<?xml version="1.0" encoding="UTF-8"?>
<svg xmlns="http://www.w3.org/2000/svg" version="1.1" width="300" height="300" viewBox="0 0 300 300"><rect x="0" y="0" width="300" height="300" fill="#ffffff"/><g transform="scale(4.918)"><g transform="translate(2,2)"><path fill-rule="evenodd" d="M9 0L9 1L8 1L8 2L9 2L9 1L11 1L11 2L10 2L10 3L8 3L8 4L10 4L10 3L11 3L11 4L12 4L12 5L8 5L8 7L9 7L9 6L10 6L10 7L11 7L11 8L6 8L6 9L7 9L7 10L6 10L6 11L5 11L5 10L3 10L3 9L5 9L5 8L0 8L0 9L2 9L2 11L5 11L5 12L4 12L4 13L2 13L2 12L1 12L1 10L0 10L0 12L1 12L1 13L0 13L0 15L1 15L1 16L0 16L0 17L1 17L1 19L0 19L0 20L2 20L2 21L5 21L5 23L4 23L4 22L3 22L3 23L4 23L4 24L2 24L2 22L1 22L1 21L0 21L0 25L2 25L2 26L1 26L1 27L0 27L0 28L1 28L1 27L3 27L3 25L4 25L4 28L3 28L3 29L2 29L2 33L4 33L4 34L0 34L0 35L3 35L3 37L1 37L1 36L0 36L0 37L1 37L1 39L0 39L0 42L2 42L2 43L0 43L0 44L2 44L2 45L3 45L3 46L2 46L2 47L1 47L1 46L0 46L0 48L5 48L5 47L7 47L7 46L8 46L8 47L9 47L9 48L6 48L6 49L8 49L8 51L9 51L9 49L10 49L10 48L11 48L11 49L12 49L12 51L13 51L13 50L14 50L14 51L15 51L15 52L13 52L13 53L12 53L12 52L11 52L11 51L10 51L10 53L9 53L9 52L8 52L8 57L11 57L11 56L10 56L10 55L9 55L9 54L13 54L13 55L14 55L14 57L16 57L16 56L17 56L17 57L19 57L19 56L17 56L17 55L20 55L20 54L17 54L17 53L16 53L16 52L17 52L17 51L18 51L18 53L20 53L20 52L21 52L21 53L22 53L22 55L21 55L21 56L22 56L22 55L23 55L23 56L24 56L24 55L23 55L23 54L24 54L24 53L25 53L25 57L26 57L26 54L27 54L27 53L28 53L28 54L30 54L30 53L31 53L31 56L30 56L30 55L29 55L29 56L30 56L30 57L32 57L32 56L33 56L33 57L37 57L37 56L36 56L36 55L37 55L37 54L38 54L38 53L37 53L37 52L36 52L36 51L38 51L38 52L39 52L39 56L40 56L40 52L41 52L41 54L43 54L43 53L44 53L44 54L45 54L45 55L41 55L41 56L45 56L45 55L46 55L46 54L45 54L45 53L47 53L47 52L48 52L48 53L49 53L49 54L48 54L48 56L46 56L46 57L50 57L50 53L51 53L51 54L53 54L53 51L54 51L54 52L55 52L55 53L54 53L54 55L51 55L51 57L52 57L52 56L53 56L53 57L56 57L56 56L55 56L55 53L56 53L56 52L55 52L55 50L57 50L57 47L56 47L56 46L57 46L57 44L55 44L55 42L57 42L57 41L54 41L54 40L55 40L55 39L57 39L57 37L55 37L55 38L54 38L54 40L52 40L52 39L53 39L53 38L52 38L52 39L50 39L50 38L51 38L51 36L49 36L49 37L47 37L47 36L46 36L46 35L48 35L48 33L47 33L47 32L48 32L48 31L49 31L49 35L50 35L50 33L54 33L54 34L57 34L57 33L54 33L54 32L56 32L56 30L57 30L57 29L56 29L56 28L57 28L57 27L56 27L56 26L57 26L57 25L56 25L56 26L55 26L55 24L56 24L56 22L57 22L57 20L56 20L56 19L55 19L55 18L57 18L57 17L56 17L56 16L55 16L55 15L56 15L56 14L57 14L57 13L54 13L54 14L53 14L53 15L49 15L49 14L50 14L50 13L51 13L51 14L52 14L52 13L51 13L51 12L50 12L50 13L47 13L47 14L46 14L46 12L45 12L45 11L47 11L47 10L50 10L50 11L52 11L52 12L53 12L53 11L54 11L54 12L55 12L55 11L56 11L56 12L57 12L57 11L56 11L56 10L55 10L55 11L54 11L54 10L53 10L53 11L52 11L52 10L50 10L50 8L49 8L49 9L47 9L47 8L46 8L46 7L47 7L47 5L48 5L48 0L44 0L44 1L43 1L43 0L42 0L42 1L41 1L41 0L39 0L39 1L38 1L38 0L37 0L37 1L36 1L36 0L35 0L35 1L34 1L34 0L30 0L30 1L29 1L29 2L28 2L28 1L25 1L25 0L21 0L21 1L23 1L23 2L28 2L28 3L27 3L27 4L26 4L26 3L23 3L23 4L19 4L19 2L20 2L20 0L19 0L19 1L18 1L18 0L17 0L17 1L18 1L18 3L17 3L17 2L16 2L16 0L13 0L13 1L12 1L12 0ZM14 1L14 2L15 2L15 1ZM30 1L30 2L29 2L29 3L28 3L28 4L29 4L29 3L30 3L30 4L31 4L31 7L32 7L32 8L31 8L31 9L32 9L32 10L31 10L31 11L30 11L30 12L28 12L28 13L26 13L26 15L25 15L25 16L24 16L24 15L21 15L21 13L22 13L22 14L24 14L24 13L25 13L25 12L27 12L27 11L29 11L29 9L28 9L28 10L27 10L27 9L25 9L25 8L26 8L26 4L25 4L25 8L24 8L24 6L23 6L23 5L24 5L24 4L23 4L23 5L21 5L21 9L20 9L20 8L19 8L19 9L20 9L20 11L19 11L19 12L20 12L20 11L22 11L22 9L23 9L23 10L24 10L24 11L23 11L23 12L24 12L24 13L22 13L22 12L21 12L21 13L19 13L19 14L20 14L20 15L18 15L18 14L17 14L17 13L18 13L18 12L17 12L17 11L18 11L18 9L16 9L16 8L18 8L18 6L19 6L19 7L20 7L20 5L19 5L19 4L17 4L17 3L14 3L14 4L13 4L13 2L12 2L12 4L13 4L13 5L14 5L14 6L13 6L13 7L14 7L14 6L15 6L15 7L16 7L16 8L11 8L11 9L12 9L12 10L7 10L7 11L6 11L6 12L8 12L8 13L5 13L5 14L2 14L2 13L1 13L1 15L2 15L2 17L4 17L4 15L5 15L5 19L6 19L6 20L5 20L5 21L6 21L6 22L7 22L7 21L6 21L6 20L8 20L8 23L5 23L5 24L4 24L4 25L6 25L6 26L9 26L9 27L11 27L11 26L9 26L9 25L12 25L12 27L13 27L13 28L11 28L11 29L10 29L10 30L11 30L11 29L13 29L13 30L12 30L12 31L11 31L11 32L10 32L10 31L9 31L9 34L8 34L8 35L6 35L6 34L7 34L7 33L5 33L5 31L4 31L4 33L5 33L5 35L4 35L4 36L5 36L5 35L6 35L6 36L7 36L7 37L5 37L5 40L3 40L3 41L2 41L2 40L1 40L1 41L2 41L2 42L3 42L3 41L5 41L5 40L8 40L8 41L6 41L6 42L7 42L7 43L4 43L4 44L3 44L3 43L2 43L2 44L3 44L3 45L4 45L4 46L3 46L3 47L5 47L5 45L4 45L4 44L7 44L7 45L6 45L6 46L7 46L7 45L10 45L10 47L11 47L11 48L12 48L12 49L13 49L13 48L14 48L14 50L15 50L15 48L14 48L14 47L15 47L15 46L17 46L17 47L16 47L16 48L17 48L17 49L16 49L16 50L17 50L17 49L18 49L18 51L21 51L21 49L20 49L20 48L21 48L21 47L20 47L20 46L21 46L21 45L22 45L22 47L23 47L23 48L22 48L22 49L26 49L26 48L31 48L31 49L32 49L32 51L31 51L31 52L32 52L32 54L33 54L33 55L34 55L34 56L35 56L35 55L34 55L34 54L37 54L37 53L36 53L36 52L34 52L34 53L33 53L33 52L32 52L32 51L34 51L34 50L35 50L35 51L36 51L36 50L39 50L39 52L40 52L40 51L41 51L41 50L42 50L42 51L44 51L44 53L45 53L45 50L47 50L47 51L48 51L48 48L49 48L49 47L52 47L52 48L54 48L54 49L55 49L55 48L56 48L56 47L55 47L55 46L56 46L56 45L55 45L55 44L54 44L54 45L55 45L55 46L54 46L54 47L53 47L53 45L52 45L52 44L53 44L53 43L54 43L54 41L52 41L52 40L49 40L49 39L47 39L47 37L46 37L46 36L45 36L45 35L46 35L46 34L47 34L47 33L46 33L46 34L42 34L42 33L45 33L45 32L40 32L40 31L39 31L39 29L40 29L40 30L42 30L42 31L44 31L44 29L45 29L45 28L42 28L42 27L41 27L41 28L40 28L40 27L39 27L39 26L41 26L41 24L44 24L44 25L43 25L43 27L45 27L45 26L47 26L47 27L46 27L46 28L47 28L47 29L46 29L46 30L45 30L45 31L46 31L46 32L47 32L47 31L48 31L48 28L47 28L47 27L48 27L48 25L49 25L49 26L51 26L51 25L52 25L52 26L53 26L53 27L55 27L55 26L54 26L54 25L53 25L53 24L51 24L51 23L50 23L50 22L51 22L51 19L52 19L52 18L53 18L53 16L54 16L54 17L55 17L55 16L54 16L54 15L55 15L55 14L54 14L54 15L53 15L53 16L52 16L52 18L51 18L51 17L50 17L50 18L47 18L47 16L49 16L49 15L45 15L45 16L44 16L44 14L45 14L45 12L43 12L43 14L42 14L42 11L43 11L43 10L47 10L47 9L46 9L46 8L45 8L45 7L46 7L46 5L47 5L47 3L43 3L43 7L44 7L44 9L43 9L43 8L42 8L42 6L41 6L41 7L40 7L40 6L39 6L39 7L38 7L38 6L37 6L37 5L39 5L39 3L38 3L38 1L37 1L37 2L36 2L36 1L35 1L35 2L34 2L34 1ZM39 1L39 2L41 2L41 1ZM42 1L42 2L43 2L43 1ZM44 1L44 2L47 2L47 1ZM30 2L30 3L31 3L31 4L32 4L32 3L33 3L33 2ZM34 3L34 4L35 4L35 3ZM36 3L36 5L34 5L34 7L33 7L33 6L32 6L32 7L33 7L33 8L35 8L35 12L34 12L34 10L33 10L33 11L31 11L31 14L30 14L30 13L28 13L28 14L27 14L27 16L25 16L25 17L21 17L21 15L20 15L20 17L19 17L19 16L18 16L18 15L15 15L15 14L14 14L14 15L13 15L13 17L14 17L14 15L15 15L15 16L16 16L16 17L15 17L15 18L16 18L16 19L15 19L15 21L16 21L16 22L14 22L14 21L13 21L13 20L14 20L14 19L11 19L11 20L12 20L12 21L13 21L13 22L12 22L12 25L13 25L13 27L14 27L14 28L13 28L13 29L18 29L18 30L19 30L19 29L22 29L22 28L19 28L19 29L18 29L18 28L16 28L16 27L18 27L18 26L19 26L19 27L20 27L20 25L19 25L19 23L20 23L20 22L18 22L18 23L17 23L17 21L16 21L16 19L17 19L17 20L18 20L18 21L20 21L20 20L21 20L21 21L22 21L22 22L24 22L24 21L25 21L25 22L26 22L26 23L25 23L25 24L24 24L24 23L23 23L23 25L21 25L21 27L22 27L22 26L25 26L25 27L26 27L26 30L25 30L25 29L24 29L24 28L23 28L23 29L24 29L24 30L20 30L20 31L18 31L18 33L19 33L19 34L18 34L18 35L19 35L19 34L20 34L20 35L22 35L22 34L23 34L23 35L26 35L26 36L23 36L23 37L22 37L22 36L21 36L21 37L19 37L19 36L18 36L18 37L19 37L19 38L20 38L20 39L19 39L19 40L18 40L18 39L17 39L17 40L16 40L16 39L15 39L15 40L16 40L16 41L17 41L17 42L18 42L18 43L15 43L15 44L16 44L16 45L17 45L17 46L18 46L18 47L19 47L19 48L18 48L18 49L19 49L19 48L20 48L20 47L19 47L19 46L20 46L20 45L21 45L21 44L22 44L22 45L24 45L24 47L31 47L31 48L34 48L34 49L33 49L33 50L34 50L34 49L35 49L35 50L36 50L36 49L39 49L39 50L40 50L40 48L41 48L41 49L42 49L42 50L45 50L45 49L46 49L46 48L47 48L47 46L48 46L48 45L49 45L49 46L50 46L50 44L52 44L52 43L53 43L53 42L52 42L52 41L48 41L48 42L46 42L46 43L45 43L45 42L44 42L44 43L42 43L42 42L43 42L43 41L44 41L44 40L43 40L43 37L44 37L44 38L45 38L45 39L46 39L46 40L47 40L47 39L46 39L46 38L45 38L45 37L44 37L44 35L43 35L43 37L41 37L41 38L42 38L42 39L41 39L41 41L40 41L40 44L38 44L38 41L39 41L39 40L40 40L40 38L38 38L38 37L37 37L37 36L36 36L36 37L35 37L35 36L34 36L34 37L35 37L35 38L38 38L38 39L37 39L37 40L36 40L36 39L33 39L33 42L32 42L32 41L31 41L31 40L29 40L29 42L27 42L27 41L28 41L28 39L26 39L26 38L28 38L28 37L26 37L26 36L27 36L27 35L26 35L26 34L25 34L25 33L22 33L22 32L20 32L20 31L24 31L24 32L25 32L25 31L27 31L27 32L26 32L26 33L29 33L29 34L30 34L30 35L29 35L29 39L31 39L31 38L32 38L32 35L31 35L31 32L34 32L34 33L37 33L37 34L33 34L33 33L32 33L32 34L33 34L33 35L37 35L37 34L38 34L38 36L39 36L39 37L40 37L40 36L42 36L42 34L41 34L41 33L40 33L40 32L39 32L39 33L40 33L40 34L41 34L41 35L40 35L40 36L39 36L39 34L38 34L38 32L34 32L34 31L36 31L36 29L37 29L37 30L38 30L38 29L39 29L39 28L38 28L38 27L37 27L37 26L38 26L38 25L37 25L37 24L38 24L38 23L39 23L39 24L41 24L41 23L40 23L40 22L43 22L43 20L46 20L46 19L47 19L47 18L45 18L45 17L44 17L44 16L43 16L43 15L42 15L42 14L41 14L41 13L39 13L39 14L37 14L37 13L38 13L38 12L39 12L39 11L38 11L38 9L39 9L39 8L38 8L38 7L37 7L37 6L36 6L36 5L37 5L37 3ZM40 3L40 5L41 5L41 3ZM14 4L14 5L16 5L16 4ZM44 4L44 5L46 5L46 4ZM27 5L27 8L30 8L30 5ZM11 6L11 7L12 7L12 6ZM16 6L16 7L17 7L17 6ZM22 6L22 8L23 8L23 9L24 9L24 10L25 10L25 9L24 9L24 8L23 8L23 6ZM28 6L28 7L29 7L29 6ZM35 6L35 8L36 8L36 6ZM44 6L44 7L45 7L45 6ZM48 6L48 7L49 7L49 6ZM41 8L41 9L42 9L42 10L41 10L41 11L40 11L40 12L41 12L41 11L42 11L42 10L43 10L43 9L42 9L42 8ZM51 8L51 9L52 9L52 8ZM53 8L53 9L54 9L54 8ZM55 8L55 9L56 9L56 8ZM13 9L13 10L12 10L12 11L11 11L11 12L10 12L10 11L8 11L8 12L10 12L10 13L11 13L11 15L10 15L10 14L9 14L9 13L8 13L8 14L5 14L5 15L7 15L7 16L6 16L6 17L9 17L9 18L6 18L6 19L9 19L9 18L10 18L10 17L11 17L11 15L12 15L12 14L13 14L13 13L17 13L17 12L15 12L15 9ZM26 10L26 11L27 11L27 10ZM13 11L13 12L11 12L11 13L13 13L13 12L14 12L14 11ZM24 11L24 12L25 12L25 11ZM36 11L36 12L37 12L37 11ZM48 11L48 12L49 12L49 11ZM32 12L32 13L33 13L33 14L36 14L36 13L33 13L33 12ZM8 14L8 15L9 15L9 14ZM29 14L29 15L28 15L28 16L27 16L27 17L25 17L25 18L27 18L27 19L26 19L26 20L25 20L25 19L23 19L23 18L21 18L21 17L20 17L20 18L19 18L19 17L16 17L16 18L19 18L19 20L20 20L20 19L22 19L22 21L24 21L24 20L25 20L25 21L26 21L26 20L28 20L28 21L27 21L27 22L28 22L28 21L29 21L29 22L30 22L30 23L29 23L29 24L25 24L25 26L26 26L26 25L27 25L27 26L30 26L30 24L33 24L33 25L34 25L34 26L33 26L33 28L32 28L32 27L31 27L31 28L32 28L32 30L31 30L31 31L30 31L30 32L29 32L29 31L28 31L28 32L29 32L29 33L30 33L30 32L31 32L31 31L32 31L32 30L35 30L35 29L33 29L33 28L34 28L34 26L36 26L36 24L37 24L37 23L38 23L38 22L39 22L39 20L40 20L40 21L42 21L42 19L45 19L45 18L42 18L42 17L43 17L43 16L42 16L42 17L41 17L41 16L40 16L40 15L41 15L41 14L39 14L39 15L36 15L36 16L35 16L35 15L33 15L33 16L32 16L32 15L31 15L31 16L30 16L30 14ZM28 16L28 17L27 17L27 18L28 18L28 20L31 20L31 21L30 21L30 22L31 22L31 23L34 23L34 25L35 25L35 24L36 24L36 23L37 23L37 22L38 22L38 20L36 20L36 21L37 21L37 22L36 22L36 23L35 23L35 22L33 22L33 21L34 21L34 20L33 20L33 19L37 19L37 18L38 18L38 19L39 19L39 18L38 18L38 17L40 17L40 18L41 18L41 19L40 19L40 20L41 20L41 19L42 19L42 18L41 18L41 17L40 17L40 16L36 16L36 17L35 17L35 16L33 16L33 17L32 17L32 16L31 16L31 17L29 17L29 16ZM33 17L33 18L29 18L29 19L33 19L33 18L35 18L35 17ZM2 18L2 20L4 20L4 18ZM49 19L49 20L48 20L48 21L47 21L47 23L46 23L46 22L45 22L45 21L44 21L44 23L46 23L46 24L45 24L45 25L44 25L44 26L45 26L45 25L46 25L46 24L47 24L47 25L48 25L48 24L49 24L49 25L51 25L51 24L49 24L49 23L48 23L48 22L50 22L50 19ZM9 20L9 23L8 23L8 25L9 25L9 23L11 23L11 21L10 21L10 20ZM32 20L32 21L33 21L33 20ZM52 20L52 21L53 21L53 22L55 22L55 21L56 21L56 20L54 20L54 21L53 21L53 20ZM13 22L13 24L14 24L14 25L15 25L15 26L14 26L14 27L16 27L16 26L18 26L18 25L16 25L16 23L15 23L15 24L14 24L14 22ZM21 23L21 24L22 24L22 23ZM47 23L47 24L48 24L48 23ZM6 24L6 25L7 25L7 24ZM31 25L31 26L32 26L32 25ZM5 27L5 30L8 30L8 27ZM27 27L27 30L30 30L30 27ZM35 27L35 28L37 28L37 27ZM49 27L49 30L52 30L52 27ZM6 28L6 29L7 29L7 28ZM28 28L28 29L29 29L29 28ZM50 28L50 29L51 29L51 28ZM54 28L54 29L55 29L55 28ZM0 29L0 33L1 33L1 29ZM3 29L3 30L4 30L4 29ZM42 29L42 30L43 30L43 29ZM13 30L13 31L12 31L12 33L11 33L11 34L10 34L10 35L9 35L9 39L8 39L8 40L9 40L9 42L11 42L11 43L13 43L13 46L12 46L12 45L11 45L11 44L10 44L10 45L11 45L11 46L12 46L12 48L13 48L13 46L15 46L15 45L14 45L14 43L13 43L13 42L14 42L14 41L13 41L13 40L14 40L14 39L13 39L13 40L12 40L12 42L11 42L11 40L9 40L9 39L11 39L11 38L10 38L10 37L13 37L13 36L16 36L16 35L17 35L17 34L14 34L14 35L12 35L12 36L11 36L11 34L12 34L12 33L17 33L17 32L16 32L16 31L17 31L17 30L16 30L16 31L14 31L14 30ZM46 30L46 31L47 31L47 30ZM54 30L54 31L53 31L53 32L54 32L54 31L55 31L55 30ZM6 31L6 32L7 32L7 31ZM19 32L19 33L20 33L20 34L21 34L21 33L20 33L20 32ZM52 34L52 36L55 36L55 35L53 35L53 34ZM56 35L56 36L57 36L57 35ZM30 36L30 38L31 38L31 36ZM15 37L15 38L16 38L16 37ZM21 37L21 38L22 38L22 37ZM23 37L23 38L24 38L24 37ZM25 37L25 38L26 38L26 37ZM6 38L6 39L7 39L7 38ZM22 39L22 40L20 40L20 44L19 44L19 45L20 45L20 44L21 44L21 43L22 43L22 42L21 42L21 41L23 41L23 40L24 40L24 41L25 41L25 42L23 42L23 44L24 44L24 45L25 45L25 46L29 46L29 45L30 45L30 44L31 44L31 43L28 43L28 44L29 44L29 45L27 45L27 44L26 44L26 43L27 43L27 42L26 42L26 41L27 41L27 40L26 40L26 39L25 39L25 40L24 40L24 39ZM38 39L38 40L37 40L37 41L36 41L36 40L34 40L34 42L35 42L35 43L34 43L34 44L33 44L33 43L32 43L32 45L31 45L31 46L32 46L32 47L33 47L33 46L35 46L35 44L36 44L36 43L37 43L37 41L38 41L38 40L39 40L39 39ZM18 41L18 42L19 42L19 41ZM30 41L30 42L31 42L31 41ZM41 41L41 42L42 42L42 41ZM50 42L50 43L51 43L51 42ZM7 43L7 44L9 44L9 43ZM44 43L44 47L43 47L43 46L42 46L42 45L43 45L43 44L40 44L40 46L39 46L39 45L38 45L38 44L37 44L37 45L36 45L36 46L37 46L37 47L34 47L34 48L40 48L40 47L41 47L41 48L42 48L42 47L43 47L43 48L44 48L44 49L45 49L45 48L44 48L44 47L45 47L45 43ZM48 43L48 44L47 44L47 45L46 45L46 46L47 46L47 45L48 45L48 44L49 44L49 43ZM17 44L17 45L18 45L18 44ZM25 44L25 45L26 45L26 44ZM32 45L32 46L33 46L33 45ZM37 45L37 46L38 46L38 45ZM51 45L51 46L52 46L52 45ZM41 46L41 47L42 47L42 46ZM54 47L54 48L55 48L55 47ZM27 49L27 52L30 52L30 49ZM49 49L49 52L52 52L52 49ZM22 50L22 53L24 53L24 52L25 52L25 53L26 53L26 51L23 51L23 50ZM28 50L28 51L29 51L29 50ZM50 50L50 51L51 51L51 50ZM42 52L42 53L43 53L43 52ZM15 53L15 54L16 54L16 53ZM15 55L15 56L16 56L16 55ZM27 55L27 56L28 56L28 55ZM12 56L12 57L13 57L13 56ZM0 0L0 7L7 7L7 0ZM1 1L1 6L6 6L6 1ZM2 2L2 5L5 5L5 2ZM50 0L50 7L57 7L57 0ZM51 1L51 6L56 6L56 1ZM52 2L52 5L55 5L55 2ZM0 50L0 57L7 57L7 50ZM1 51L1 56L6 56L6 51ZM2 52L2 55L5 55L5 52Z" fill="#000000"/></g></g></svg>
