<?xml version="1.0" encoding="UTF-8"?>
<svg xmlns="http://www.w3.org/2000/svg" version="1.1" width="300" height="300" viewBox="0 0 300 300"><rect x="0" y="0" width="300" height="300" fill="#ffffff"/><g transform="scale(4.918)"><g transform="translate(2,2)"><path fill-rule="evenodd" d="M9 0L9 1L8 1L8 2L11 2L11 1L10 1L10 0ZM12 0L12 2L13 2L13 0ZM14 0L14 1L15 1L15 2L14 2L14 3L12 3L12 4L11 4L11 5L8 5L8 7L9 7L9 6L10 6L10 7L11 7L11 6L12 6L12 9L11 9L11 8L10 8L10 10L12 10L12 9L13 9L13 11L12 11L12 12L13 12L13 13L12 13L12 14L13 14L13 15L12 15L12 16L13 16L13 17L12 17L12 18L11 18L11 19L10 19L10 18L9 18L9 16L11 16L11 15L8 15L8 20L6 20L6 19L7 19L7 18L6 18L6 17L7 17L7 16L6 16L6 15L7 15L7 14L6 14L6 15L5 15L5 14L4 14L4 13L3 13L3 14L4 14L4 15L1 15L1 16L0 16L0 17L3 17L3 18L1 18L1 19L0 19L0 23L2 23L2 22L3 22L3 23L4 23L4 24L3 24L3 25L2 25L2 24L0 24L0 25L1 25L1 26L0 26L0 28L1 28L1 29L0 29L0 30L2 30L2 29L3 29L3 31L1 31L1 33L0 33L0 39L2 39L2 37L3 37L3 38L4 38L4 37L3 37L3 34L4 34L4 32L3 32L3 31L5 31L5 32L6 32L6 33L5 33L5 34L6 34L6 35L4 35L4 36L6 36L6 37L8 37L8 36L9 36L9 38L10 38L10 39L9 39L9 40L8 40L8 41L7 41L7 40L5 40L5 39L8 39L8 38L5 38L5 39L4 39L4 40L0 40L0 41L1 41L1 42L0 42L0 43L2 43L2 44L0 44L0 45L1 45L1 46L0 46L0 48L5 48L5 47L8 47L8 46L9 46L9 47L10 47L10 48L8 48L8 51L9 51L9 52L8 52L8 57L9 57L9 55L11 55L11 56L12 56L12 57L14 57L14 56L15 56L15 57L16 57L16 56L17 56L17 57L19 57L19 55L20 55L20 54L18 54L18 55L17 55L17 53L20 53L20 52L21 52L21 50L22 50L22 49L21 49L21 50L20 50L20 49L19 49L19 47L20 47L20 46L19 46L19 45L21 45L21 48L23 48L23 47L22 47L22 45L24 45L24 46L25 46L25 45L26 45L26 44L28 44L28 45L27 45L27 46L26 46L26 48L25 48L25 47L24 47L24 49L23 49L23 50L26 50L26 53L25 53L25 51L24 51L24 53L21 53L21 54L24 54L24 53L25 53L25 54L26 54L26 55L25 55L25 57L26 57L26 56L28 56L28 55L27 55L27 53L28 53L28 54L30 54L30 53L31 53L31 55L32 55L32 56L30 56L30 55L29 55L29 56L30 56L30 57L32 57L32 56L33 56L33 54L32 54L32 52L34 52L34 51L35 51L35 52L36 52L36 53L35 53L35 55L36 55L36 56L35 56L35 57L37 57L37 54L38 54L38 53L37 53L37 52L38 52L38 51L40 51L40 52L39 52L39 55L40 55L40 52L41 52L41 51L42 51L42 50L43 50L43 53L41 53L41 56L42 56L42 57L43 57L43 56L45 56L45 57L46 57L46 54L45 54L45 53L44 53L44 50L46 50L46 51L45 51L45 52L48 52L48 54L47 54L47 57L48 57L48 55L49 55L49 53L50 53L50 55L51 55L51 56L50 56L50 57L52 57L52 56L53 56L53 57L54 57L54 56L55 56L55 57L56 57L56 56L55 56L55 55L54 55L54 56L53 56L53 55L51 55L51 54L55 54L55 53L54 53L54 52L55 52L55 50L57 50L57 49L54 49L54 48L57 48L57 47L56 47L56 46L57 46L57 45L56 45L56 46L55 46L55 45L54 45L54 44L55 44L55 43L56 43L56 44L57 44L57 43L56 43L56 42L57 42L57 41L56 41L56 42L55 42L55 41L54 41L54 40L55 40L55 39L57 39L57 37L56 37L56 36L55 36L55 34L57 34L57 32L56 32L56 30L57 30L57 28L56 28L56 26L57 26L57 25L56 25L56 22L57 22L57 21L56 21L56 20L57 20L57 19L53 19L53 18L54 18L54 16L55 16L55 18L57 18L57 17L56 17L56 16L57 16L57 15L56 15L56 14L57 14L57 13L56 13L56 14L55 14L55 13L54 13L54 14L53 14L53 15L54 15L54 16L53 16L53 17L52 17L52 18L50 18L50 17L51 17L51 14L52 14L52 13L51 13L51 14L50 14L50 17L48 17L48 16L46 16L46 15L49 15L49 13L50 13L50 11L51 11L51 10L53 10L53 11L52 11L52 12L53 12L53 11L54 11L54 12L55 12L55 11L54 11L54 10L53 10L53 9L54 9L54 8L53 8L53 9L52 9L52 8L51 8L51 10L49 10L49 9L50 9L50 8L49 8L49 6L48 6L48 7L47 7L47 5L48 5L48 0L45 0L45 1L47 1L47 2L43 2L43 3L42 3L42 2L39 2L39 1L36 1L36 2L37 2L37 3L36 3L36 5L35 5L35 6L34 6L34 7L33 7L33 6L32 6L32 8L34 8L34 9L36 9L36 11L37 11L37 12L36 12L36 14L33 14L33 13L35 13L35 12L34 12L34 11L35 11L35 10L32 10L32 9L31 9L31 4L32 4L32 3L33 3L33 2L31 2L31 4L28 4L28 3L29 3L29 2L30 2L30 1L34 1L34 4L35 4L35 1L34 1L34 0L30 0L30 1L29 1L29 2L28 2L28 3L27 3L27 4L26 4L26 3L23 3L23 4L19 4L19 3L22 3L22 2L19 2L19 1L16 1L16 0ZM21 0L21 1L23 1L23 2L27 2L27 1L28 1L28 0L27 0L27 1L25 1L25 0L24 0L24 1L23 1L23 0ZM41 0L41 1L44 1L44 0ZM8 3L8 4L10 4L10 3ZM14 3L14 4L16 4L16 5L15 5L15 7L16 7L16 8L17 8L17 7L18 7L18 8L19 8L19 7L20 7L20 5L19 5L19 4L18 4L18 3ZM40 3L40 5L41 5L41 3ZM43 3L43 8L42 8L42 6L41 6L41 7L40 7L40 6L39 6L39 4L38 4L38 5L36 5L36 6L35 6L35 7L34 7L34 8L35 8L35 7L36 7L36 8L37 8L37 9L38 9L38 10L37 10L37 11L38 11L38 10L39 10L39 11L40 11L40 12L38 12L38 14L36 14L36 15L34 15L34 16L32 16L32 13L33 13L33 11L32 11L32 13L31 13L31 12L30 12L30 11L31 11L31 10L27 10L27 9L25 9L25 8L26 8L26 4L25 4L25 8L24 8L24 6L23 6L23 7L22 7L22 6L21 6L21 7L22 7L22 8L21 8L21 9L20 9L20 10L19 10L19 11L20 11L20 12L21 12L21 13L19 13L19 15L18 15L18 14L17 14L17 13L18 13L18 12L17 12L17 13L16 13L16 15L15 15L15 13L13 13L13 14L14 14L14 17L13 17L13 18L12 18L12 19L11 19L11 20L10 20L10 21L9 21L9 22L10 22L10 21L11 21L11 22L13 22L13 21L14 21L14 24L13 24L13 26L12 26L12 24L11 24L11 25L10 25L10 24L9 24L9 23L8 23L8 22L7 22L7 21L6 21L6 22L5 22L5 23L6 23L6 24L7 24L7 25L5 25L5 24L4 24L4 25L5 25L5 26L7 26L7 25L8 25L8 24L9 24L9 25L10 25L10 26L9 26L9 27L10 27L10 28L9 28L9 30L12 30L12 33L11 33L11 37L10 37L10 38L12 38L12 39L10 39L10 41L8 41L8 42L10 42L10 41L11 41L11 43L13 43L13 42L14 42L14 43L15 43L15 44L17 44L17 45L16 45L16 46L15 46L15 45L14 45L14 44L11 44L11 45L14 45L14 46L12 46L12 47L11 47L11 46L10 46L10 45L9 45L9 44L8 44L8 43L6 43L6 42L7 42L7 41L6 41L6 42L5 42L5 40L4 40L4 42L5 42L5 43L3 43L3 41L2 41L2 43L3 43L3 44L2 44L2 45L3 45L3 47L5 47L5 46L7 46L7 45L9 45L9 46L10 46L10 47L11 47L11 48L12 48L12 49L11 49L11 51L10 51L10 52L11 52L11 53L12 53L12 56L14 56L14 55L15 55L15 56L16 56L16 55L15 55L15 54L16 54L16 53L17 53L17 52L19 52L19 51L16 51L16 50L17 50L17 49L13 49L13 47L14 47L14 46L15 46L15 48L17 48L17 47L18 47L18 46L17 46L17 45L18 45L18 44L17 44L17 43L18 43L18 41L17 41L17 39L20 39L20 38L19 38L19 37L21 37L21 40L22 40L22 41L20 41L20 40L19 40L19 41L20 41L20 42L21 42L21 43L22 43L22 41L23 41L23 40L24 40L24 41L25 41L25 43L24 43L24 42L23 42L23 44L24 44L24 45L25 45L25 44L26 44L26 43L27 43L27 42L29 42L29 43L30 43L30 44L29 44L29 45L28 45L28 46L27 46L27 48L30 48L30 47L29 47L29 46L32 46L32 47L33 47L33 48L31 48L31 49L32 49L32 50L31 50L31 52L32 52L32 51L33 51L33 50L35 50L35 51L36 51L36 52L37 52L37 51L36 51L36 50L39 50L39 49L38 49L38 48L40 48L40 51L41 51L41 50L42 50L42 49L41 49L41 48L44 48L44 49L45 49L45 48L44 48L44 47L45 47L45 46L44 46L44 47L43 47L43 46L42 46L42 45L43 45L43 44L40 44L40 43L38 43L38 46L37 46L37 45L36 45L36 46L37 46L37 47L36 47L36 48L35 48L35 47L33 47L33 46L35 46L35 44L37 44L37 43L34 43L34 42L35 42L35 41L36 41L36 40L37 40L37 42L42 42L42 43L43 43L43 42L42 42L42 41L43 41L43 39L44 39L44 43L46 43L46 42L47 42L47 43L49 43L49 42L47 42L47 41L48 41L48 40L49 40L49 41L51 41L51 42L50 42L50 43L51 43L51 44L49 44L49 45L48 45L48 44L47 44L47 45L46 45L46 46L47 46L47 47L46 47L46 48L47 48L47 49L46 49L46 50L47 50L47 51L48 51L48 48L49 48L49 47L52 47L52 48L54 48L54 47L52 47L52 46L53 46L53 45L51 45L51 44L53 44L53 43L54 43L54 41L52 41L52 40L53 40L53 39L51 39L51 38L54 38L54 39L55 39L55 38L54 38L54 37L55 37L55 36L54 36L54 37L51 37L51 38L50 38L50 39L48 39L48 38L49 38L49 37L50 37L50 36L49 36L49 35L51 35L51 36L52 36L52 34L54 34L54 33L56 33L56 32L53 32L53 31L51 31L51 32L50 32L50 31L48 31L48 28L47 28L47 26L48 26L48 25L49 25L49 23L50 23L50 24L51 24L51 25L50 25L50 26L51 26L51 25L53 25L53 27L55 27L55 26L56 26L56 25L55 25L55 24L51 24L51 23L50 23L50 22L51 22L51 21L53 21L53 22L52 22L52 23L54 23L54 21L55 21L55 20L51 20L51 19L50 19L50 18L49 18L49 19L48 19L48 18L47 18L47 17L46 17L46 16L44 16L44 15L45 15L45 14L44 14L44 13L45 13L45 12L46 12L46 14L47 14L47 13L49 13L49 11L47 11L47 9L49 9L49 8L47 8L47 7L46 7L46 5L47 5L47 3ZM17 4L17 5L18 5L18 7L19 7L19 5L18 5L18 4ZM23 4L23 5L24 5L24 4ZM44 4L44 5L46 5L46 4ZM12 5L12 6L13 6L13 7L14 7L14 6L13 6L13 5ZM27 5L27 8L30 8L30 5ZM16 6L16 7L17 7L17 6ZM28 6L28 7L29 7L29 6ZM36 6L36 7L37 7L37 8L38 8L38 9L39 9L39 10L43 10L43 11L42 11L42 14L40 14L40 13L39 13L39 14L40 14L40 15L39 15L39 16L38 16L38 15L37 15L37 16L35 16L35 18L34 18L34 17L32 17L32 16L31 16L31 15L30 15L30 14L31 14L31 13L28 13L28 12L29 12L29 11L27 11L27 10L26 10L26 11L27 11L27 12L25 12L25 13L23 13L23 11L25 11L25 9L24 9L24 8L23 8L23 9L21 9L21 10L22 10L22 11L21 11L21 12L22 12L22 13L21 13L21 15L20 15L20 17L21 17L21 18L20 18L20 19L22 19L22 20L24 20L24 21L21 21L21 23L22 23L22 22L24 22L24 21L25 21L25 22L26 22L26 23L25 23L25 24L27 24L27 25L26 25L26 26L25 26L25 25L23 25L23 28L25 28L25 27L26 27L26 30L25 30L25 29L23 29L23 30L24 30L24 32L23 32L23 37L22 37L22 36L21 36L21 34L22 34L22 33L21 33L21 32L20 32L20 33L21 33L21 34L20 34L20 35L19 35L19 34L17 34L17 35L16 35L16 33L19 33L19 31L20 31L20 30L19 30L19 29L22 29L22 28L20 28L20 27L19 27L19 29L18 29L18 28L15 28L15 29L13 29L13 30L15 30L15 33L14 33L14 34L12 34L12 37L13 37L13 40L15 40L15 41L14 41L14 42L15 42L15 43L16 43L16 42L15 42L15 41L16 41L16 39L14 39L14 38L16 38L16 37L15 37L15 36L17 36L17 37L19 37L19 36L21 36L21 37L22 37L22 38L23 38L23 39L22 39L22 40L23 40L23 39L24 39L24 40L25 40L25 36L27 36L27 35L26 35L26 34L27 34L27 33L29 33L29 34L30 34L30 36L29 36L29 39L31 39L31 40L29 40L29 41L31 41L31 42L30 42L30 43L32 43L32 44L30 44L30 45L32 45L32 44L34 44L34 43L32 43L32 42L33 42L33 41L31 41L31 40L34 40L34 38L33 38L33 39L31 39L31 38L32 38L32 35L31 35L31 34L33 34L33 37L35 37L35 35L37 35L37 34L38 34L38 35L40 35L40 36L38 36L38 37L37 37L37 36L36 36L36 38L35 38L35 40L36 40L36 39L37 39L37 40L38 40L38 41L39 41L39 40L38 40L38 39L37 39L37 38L38 38L38 37L40 37L40 36L41 36L41 39L42 39L42 38L43 38L43 37L44 37L44 38L45 38L45 39L46 39L46 41L47 41L47 39L46 39L46 38L45 38L45 37L44 37L44 34L45 34L45 36L46 36L46 37L47 37L47 38L48 38L48 37L49 37L49 36L48 36L48 37L47 37L47 36L46 36L46 35L48 35L48 33L47 33L47 32L48 32L48 31L47 31L47 30L46 30L46 29L47 29L47 28L46 28L46 26L43 26L43 24L42 24L42 25L39 25L39 24L38 24L38 21L37 21L37 20L36 20L36 21L37 21L37 22L36 22L36 23L35 23L35 22L34 22L34 25L33 25L33 26L32 26L32 25L30 25L30 24L33 24L33 21L32 21L32 20L34 20L34 21L35 21L35 20L34 20L34 19L35 19L35 18L37 18L37 19L38 19L38 20L39 20L39 23L40 23L40 24L41 24L41 23L40 23L40 22L43 22L43 21L40 21L40 20L46 20L46 19L47 19L47 18L46 18L46 17L45 17L45 18L46 18L46 19L44 19L44 16L43 16L43 15L42 15L42 14L43 14L43 13L44 13L44 12L43 12L43 11L46 11L46 10L45 10L45 9L44 9L44 8L45 8L45 6L44 6L44 8L43 8L43 9L39 9L39 8L40 8L40 7L39 7L39 6L38 6L38 7L37 7L37 6ZM38 7L38 8L39 8L39 7ZM0 8L0 9L1 9L1 10L0 10L0 11L1 11L1 10L2 10L2 12L3 12L3 11L4 11L4 10L6 10L6 11L7 11L7 12L6 12L6 13L7 13L7 12L10 12L10 11L8 11L8 10L9 10L9 8L6 8L6 9L5 9L5 8ZM13 8L13 9L15 9L15 12L16 12L16 11L18 11L18 9L15 9L15 8ZM55 8L55 10L57 10L57 9L56 9L56 8ZM3 9L3 10L4 10L4 9ZM6 9L6 10L8 10L8 9ZM13 11L13 12L14 12L14 11ZM56 11L56 12L57 12L57 11ZM0 12L0 13L1 13L1 12ZM10 13L10 14L11 14L11 13ZM22 13L22 16L21 16L21 17L22 17L22 19L24 19L24 18L23 18L23 17L24 17L24 16L23 16L23 13ZM25 13L25 16L27 16L27 17L26 17L26 21L27 21L27 24L28 24L28 26L30 26L30 25L29 25L29 24L30 24L30 23L31 23L31 22L29 22L29 21L31 21L31 20L28 20L28 18L27 18L27 17L28 17L28 16L29 16L29 17L31 17L31 18L29 18L29 19L31 19L31 18L32 18L32 19L34 19L34 18L32 18L32 17L31 17L31 16L30 16L30 15L28 15L28 16L27 16L27 15L26 15L26 14L28 14L28 13ZM16 15L16 17L14 17L14 18L15 18L15 21L16 21L16 22L15 22L15 23L16 23L16 24L15 24L15 25L16 25L16 24L17 24L17 25L19 25L19 26L20 26L20 25L19 25L19 23L20 23L20 22L18 22L18 21L20 21L20 20L19 20L19 18L18 18L18 19L17 19L17 18L16 18L16 17L19 17L19 16L17 16L17 15ZM41 15L41 16L39 16L39 17L37 17L37 18L39 18L39 17L43 17L43 16L42 16L42 15ZM3 16L3 17L4 17L4 16ZM5 18L5 19L6 19L6 18ZM40 18L40 19L39 19L39 20L40 20L40 19L43 19L43 18ZM2 19L2 20L3 20L3 22L4 22L4 20L3 20L3 19ZM13 19L13 20L14 20L14 19ZM16 19L16 21L18 21L18 20L17 20L17 19ZM49 19L49 20L48 20L48 21L47 21L47 25L48 25L48 23L49 23L49 22L50 22L50 19ZM11 20L11 21L12 21L12 20ZM1 21L1 22L2 22L2 21ZM44 21L44 24L45 24L45 25L46 25L46 24L45 24L45 23L46 23L46 22L45 22L45 21ZM6 22L6 23L7 23L7 24L8 24L8 23L7 23L7 22ZM17 22L17 23L18 23L18 22ZM23 23L23 24L24 24L24 23ZM28 23L28 24L29 24L29 23ZM36 23L36 24L37 24L37 23ZM21 25L21 27L22 27L22 25ZM34 25L34 26L33 26L33 27L31 27L31 28L32 28L32 30L31 30L31 31L30 31L30 33L31 33L31 32L32 32L32 33L33 33L33 34L36 34L36 32L37 32L37 31L38 31L38 34L42 34L42 35L41 35L41 36L42 36L42 37L43 37L43 36L42 36L42 35L43 35L43 34L44 34L44 33L45 33L45 34L47 34L47 33L45 33L45 32L44 32L44 30L45 30L45 31L46 31L46 32L47 32L47 31L46 31L46 30L45 30L45 28L42 28L42 26L41 26L41 27L40 27L40 28L39 28L39 25L38 25L38 27L37 27L37 29L38 29L38 30L37 30L37 31L36 31L36 32L32 32L32 30L35 30L35 29L33 29L33 28L34 28L34 26L35 26L35 27L36 27L36 26L35 26L35 25ZM54 25L54 26L55 26L55 25ZM11 26L11 28L10 28L10 29L12 29L12 26ZM13 26L13 28L14 28L14 26ZM16 26L16 27L18 27L18 26ZM2 27L2 28L4 28L4 27ZM5 27L5 30L8 30L8 27ZM27 27L27 30L30 30L30 27ZM49 27L49 30L52 30L52 27ZM6 28L6 29L7 29L7 28ZM28 28L28 29L29 29L29 28ZM38 28L38 29L39 29L39 28ZM50 28L50 29L51 29L51 28ZM54 28L54 29L55 29L55 30L56 30L56 28ZM16 29L16 30L17 30L17 31L16 31L16 32L18 32L18 31L19 31L19 30L18 30L18 29ZM42 29L42 30L39 30L39 32L41 32L41 33L42 33L42 34L43 34L43 33L44 33L44 32L43 32L43 31L42 31L42 30L43 30L43 29ZM21 30L21 31L22 31L22 30ZM6 31L6 32L7 32L7 33L6 33L6 34L7 34L7 35L6 35L6 36L8 36L8 34L9 34L9 33L8 33L8 32L11 32L11 31L8 31L8 32L7 32L7 31ZM13 31L13 32L14 32L14 31ZM25 31L25 32L27 32L27 31ZM28 31L28 32L29 32L29 31ZM41 31L41 32L42 32L42 33L43 33L43 32L42 32L42 31ZM2 32L2 33L1 33L1 36L2 36L2 33L3 33L3 32ZM51 32L51 33L50 33L50 34L51 34L51 33L53 33L53 32ZM7 33L7 34L8 34L8 33ZM25 33L25 34L24 34L24 36L25 36L25 34L26 34L26 33ZM13 35L13 36L15 36L15 35ZM17 35L17 36L18 36L18 35ZM30 36L30 38L31 38L31 36ZM23 37L23 38L24 38L24 37ZM26 37L26 39L27 39L27 40L28 40L28 39L27 39L27 38L28 38L28 37ZM39 38L39 39L40 39L40 38ZM50 39L50 40L51 40L51 39ZM41 40L41 41L42 41L42 40ZM26 41L26 42L27 42L27 41ZM19 43L19 44L20 44L20 43ZM4 44L4 46L5 46L5 45L7 45L7 44ZM21 44L21 45L22 45L22 44ZM44 44L44 45L45 45L45 44ZM47 45L47 46L48 46L48 45ZM49 45L49 46L51 46L51 45ZM1 46L1 47L2 47L2 46ZM39 46L39 47L40 47L40 48L41 48L41 47L42 47L42 46L41 46L41 47L40 47L40 46ZM37 47L37 48L36 48L36 49L35 49L35 50L36 50L36 49L37 49L37 48L38 48L38 47ZM6 48L6 49L7 49L7 48ZM33 48L33 49L34 49L34 48ZM12 49L12 51L13 51L13 49ZM18 49L18 50L19 50L19 49ZM27 49L27 52L30 52L30 49ZM49 49L49 52L52 52L52 49ZM28 50L28 51L29 51L29 50ZM50 50L50 51L51 51L51 50ZM53 50L53 51L54 51L54 50ZM15 51L15 52L12 52L12 53L14 53L14 54L15 54L15 53L16 53L16 51ZM22 51L22 52L23 52L23 51ZM56 51L56 52L57 52L57 51ZM9 53L9 54L10 54L10 53ZM43 53L43 54L42 54L42 55L45 55L45 54L44 54L44 53ZM21 55L21 56L20 56L20 57L21 57L21 56L24 56L24 55ZM38 56L38 57L39 57L39 56ZM0 0L0 7L7 7L7 0ZM1 1L1 6L6 6L6 1ZM2 2L2 5L5 5L5 2ZM50 0L50 7L57 7L57 0ZM51 1L51 6L56 6L56 1ZM52 2L52 5L55 5L55 2ZM0 50L0 57L7 57L7 50ZM1 51L1 56L6 56L6 51ZM2 52L2 55L5 55L5 52Z" fill="#000000"/></g></g></svg>
