<?xml version="1.0" encoding="UTF-8"?>
<svg xmlns="http://www.w3.org/2000/svg" version="1.1" width="300" height="300" viewBox="0 0 300 300"><rect x="0" y="0" width="300" height="300" fill="#ffffff"/><g transform="scale(4.918)"><g transform="translate(2,2)"><path fill-rule="evenodd" d="M9 0L9 1L8 1L8 2L10 2L10 3L8 3L8 4L9 4L9 5L8 5L8 7L9 7L9 8L6 8L6 9L9 9L9 10L10 10L10 12L8 12L8 11L7 11L7 10L4 10L4 9L5 9L5 8L0 8L0 11L2 11L2 12L0 12L0 13L1 13L1 14L0 14L0 17L2 17L2 18L0 18L0 19L1 19L1 20L2 20L2 21L3 21L3 20L4 20L4 23L5 23L5 21L7 21L7 22L6 22L6 23L7 23L7 22L8 22L8 20L10 20L10 22L9 22L9 24L10 24L10 25L12 25L12 26L13 26L13 27L14 27L14 29L13 29L13 28L12 28L12 27L11 27L11 26L10 26L10 29L9 29L9 26L8 26L8 24L5 24L5 26L3 26L3 25L4 25L4 24L3 24L3 23L2 23L2 22L0 22L0 25L1 25L1 26L0 26L0 27L1 27L1 28L3 28L3 29L4 29L4 32L3 32L3 31L2 31L2 29L1 29L1 30L0 30L0 31L2 31L2 32L1 32L1 33L2 33L2 34L4 34L4 33L7 33L7 34L5 34L5 35L3 35L3 38L2 38L2 37L1 37L1 34L0 34L0 39L1 39L1 38L2 38L2 40L0 40L0 41L3 41L3 42L2 42L2 44L1 44L1 43L0 43L0 44L1 44L1 45L2 45L2 44L3 44L3 43L5 43L5 42L6 42L6 43L7 43L7 44L5 44L5 45L4 45L4 46L5 46L5 47L3 47L3 46L2 46L2 47L1 47L1 46L0 46L0 48L5 48L5 47L7 47L7 48L6 48L6 49L7 49L7 48L8 48L8 47L7 47L7 46L5 46L5 45L8 45L8 43L10 43L10 44L9 44L9 45L10 45L10 46L11 46L11 45L12 45L12 48L9 48L9 49L8 49L8 51L9 51L9 49L10 49L10 50L11 50L11 49L12 49L12 51L10 51L10 52L8 52L8 57L9 57L9 55L11 55L11 54L9 54L9 53L11 53L11 52L12 52L12 51L13 51L13 53L14 53L14 54L16 54L16 53L14 53L14 51L13 51L13 50L14 50L14 47L15 47L15 52L18 52L18 53L19 53L19 54L17 54L17 57L19 57L19 56L20 56L20 57L21 57L21 56L22 56L22 54L23 54L23 55L24 55L24 56L23 56L23 57L24 57L24 56L28 56L28 55L26 55L26 54L27 54L27 53L28 53L28 54L29 54L29 55L30 55L30 56L29 56L29 57L31 57L31 56L34 56L34 55L33 55L33 54L32 54L32 52L36 52L36 53L35 53L35 57L38 57L38 56L39 56L39 57L40 57L40 56L41 56L41 57L44 57L44 55L42 55L42 54L43 54L43 53L44 53L44 54L45 54L45 55L46 55L46 54L45 54L45 53L47 53L47 54L48 54L48 55L47 55L47 56L46 56L46 57L49 57L49 56L50 56L50 55L51 55L51 57L52 57L52 56L53 56L53 57L56 57L56 56L55 56L55 54L54 54L54 52L55 52L55 53L56 53L56 52L57 52L57 51L55 51L55 50L57 50L57 48L56 48L56 46L57 46L57 43L56 43L56 41L55 41L55 39L57 39L57 37L54 37L54 36L55 36L55 35L56 35L56 36L57 36L57 35L56 35L56 34L57 34L57 33L56 33L56 32L57 32L57 31L56 31L56 30L57 30L57 29L56 29L56 26L55 26L55 25L56 25L56 24L55 24L55 23L56 23L56 22L57 22L57 21L56 21L56 20L55 20L55 18L57 18L57 15L56 15L56 14L57 14L57 13L56 13L56 12L57 12L57 11L56 11L56 10L55 10L55 11L54 11L54 10L53 10L53 11L52 11L52 12L53 12L53 11L54 11L54 12L55 12L55 13L54 13L54 14L53 14L53 15L51 15L51 14L52 14L52 13L51 13L51 12L50 12L50 13L51 13L51 14L49 14L49 13L47 13L47 14L46 14L46 12L45 12L45 11L44 11L44 10L45 10L45 9L46 9L46 7L47 7L47 5L48 5L48 0L45 0L45 1L47 1L47 2L44 2L44 1L43 1L43 0L40 0L40 1L43 1L43 3L42 3L42 4L40 4L40 3L41 3L41 2L39 2L39 1L37 1L37 0L36 0L36 1L37 1L37 3L36 3L36 5L35 5L35 6L34 6L34 7L35 7L35 6L36 6L36 7L37 7L37 8L35 8L35 10L36 10L36 11L35 11L35 12L34 12L34 10L33 10L33 9L32 9L32 8L33 8L33 6L32 6L32 7L31 7L31 4L32 4L32 3L34 3L34 4L35 4L35 3L34 3L34 2L35 2L35 1L33 1L33 0L28 0L28 1L25 1L25 0L23 0L23 2L21 2L21 1L22 1L22 0L21 0L21 1L20 1L20 0L19 0L19 1L16 1L16 0L12 0L12 1L10 1L10 0ZM12 1L12 2L15 2L15 1ZM19 1L19 2L16 2L16 4L15 4L15 3L14 3L14 4L13 4L13 3L10 3L10 4L11 4L11 5L9 5L9 7L10 7L10 9L15 9L15 10L11 10L11 11L12 11L12 12L13 12L13 13L11 13L11 12L10 12L10 13L11 13L11 14L12 14L12 15L13 15L13 16L14 16L14 17L13 17L13 18L12 18L12 16L11 16L11 15L10 15L10 14L9 14L9 13L8 13L8 12L7 12L7 11L4 11L4 12L3 12L3 13L2 13L2 14L1 14L1 15L3 15L3 16L4 16L4 17L3 17L3 18L2 18L2 20L3 20L3 19L4 19L4 20L5 20L5 19L6 19L6 20L8 20L8 19L12 19L12 20L11 20L11 22L12 22L12 23L13 23L13 22L14 22L14 23L16 23L16 24L12 24L12 25L13 25L13 26L14 26L14 27L15 27L15 28L17 28L17 29L16 29L16 31L15 31L15 32L14 32L14 35L12 35L12 34L13 34L13 32L12 32L12 33L11 33L11 30L12 30L12 31L14 31L14 30L15 30L15 29L14 29L14 30L12 30L12 28L11 28L11 29L10 29L10 30L9 30L9 31L6 31L6 32L7 32L7 33L8 33L8 34L9 34L9 35L11 35L11 37L10 37L10 36L9 36L9 37L10 37L10 38L9 38L9 39L6 39L6 38L7 38L7 37L8 37L8 35L6 35L6 36L4 36L4 38L3 38L3 39L4 39L4 40L3 40L3 41L4 41L4 42L5 42L5 41L6 41L6 42L7 42L7 43L8 43L8 42L10 42L10 43L13 43L13 42L14 42L14 43L15 43L15 44L12 44L12 45L13 45L13 46L14 46L14 45L15 45L15 44L18 44L18 45L16 45L16 46L17 46L17 47L16 47L16 48L17 48L17 47L18 47L18 48L19 48L19 49L16 49L16 51L17 51L17 50L21 50L21 51L23 51L23 52L22 52L22 53L21 53L21 52L19 52L19 53L21 53L21 54L22 54L22 53L23 53L23 54L24 54L24 53L23 53L23 52L24 52L24 51L25 51L25 52L26 52L26 51L25 51L25 50L26 50L26 49L25 49L25 50L23 50L23 48L22 48L22 47L25 47L25 48L30 48L30 47L26 47L26 46L29 46L29 45L27 45L27 43L29 43L29 44L31 44L31 46L36 46L36 48L35 48L35 47L33 47L33 48L31 48L31 50L32 50L32 51L31 51L31 52L32 52L32 51L34 51L34 50L37 50L37 51L36 51L36 52L37 52L37 51L38 51L38 54L37 54L37 55L36 55L36 56L38 56L38 54L39 54L39 52L40 52L40 55L39 55L39 56L40 56L40 55L41 55L41 54L42 54L42 52L43 52L43 50L44 50L44 53L45 53L45 52L47 52L47 53L48 53L48 54L49 54L49 55L48 55L48 56L49 56L49 55L50 55L50 54L51 54L51 55L53 55L53 54L51 54L51 53L48 53L48 52L47 52L47 51L48 51L48 48L49 48L49 47L51 47L51 48L54 48L54 49L56 49L56 48L54 48L54 47L51 47L51 45L52 45L52 46L53 46L53 45L52 45L52 44L53 44L53 43L54 43L54 40L53 40L53 41L51 41L51 40L49 40L49 39L48 39L48 37L49 37L49 36L50 36L50 39L51 39L51 38L53 38L53 39L54 39L54 37L53 37L53 36L52 36L52 34L53 34L53 35L54 35L54 34L53 34L53 33L51 33L51 34L50 34L50 32L49 32L49 31L48 31L48 30L47 30L47 29L48 29L48 25L49 25L49 26L53 26L53 27L55 27L55 26L54 26L54 25L55 25L55 24L54 24L54 25L53 25L53 24L51 24L51 23L53 23L53 20L52 20L52 21L51 21L51 19L52 19L52 18L54 18L54 17L55 17L55 16L56 16L56 15L55 15L55 16L52 16L52 18L51 18L51 17L50 17L50 18L51 18L51 19L50 19L50 22L49 22L49 24L48 24L48 25L47 25L47 21L46 21L46 20L48 20L48 19L49 19L49 18L48 18L48 19L46 19L46 18L47 18L47 17L46 17L46 16L48 16L48 17L49 17L49 15L46 15L46 16L44 16L44 13L45 13L45 12L44 12L44 11L43 11L43 10L42 10L42 9L41 9L41 8L43 8L43 7L44 7L44 6L45 6L45 7L46 7L46 6L45 6L45 5L44 5L44 4L46 4L46 5L47 5L47 3L43 3L43 7L42 7L42 6L41 6L41 5L40 5L40 4L38 4L38 5L36 5L36 6L37 6L37 7L38 7L38 10L37 10L37 9L36 9L36 10L37 10L37 11L36 11L36 12L37 12L37 11L38 11L38 10L40 10L40 11L39 11L39 12L38 12L38 13L37 13L37 14L35 14L35 13L33 13L33 10L32 10L32 9L31 9L31 11L30 11L30 10L29 10L29 9L28 9L28 10L27 10L27 9L26 9L26 6L25 6L25 4L26 4L26 3L25 3L25 4L24 4L24 2L23 2L23 3L21 3L21 2L20 2L20 1ZM28 1L28 2L27 2L27 3L28 3L28 4L29 4L29 3L30 3L30 4L31 4L31 3L30 3L30 2L33 2L33 1ZM28 2L28 3L29 3L29 2ZM38 2L38 3L39 3L39 2ZM17 3L17 4L16 4L16 5L15 5L15 4L14 4L14 5L13 5L13 4L12 4L12 5L11 5L11 6L10 6L10 7L11 7L11 6L12 6L12 8L13 8L13 6L14 6L14 7L15 7L15 6L16 6L16 8L15 8L15 9L16 9L16 8L17 8L17 9L19 9L19 11L22 11L22 10L23 10L23 13L24 13L24 14L26 14L26 13L28 13L28 14L27 14L27 15L29 15L29 13L30 13L30 16L31 16L31 17L29 17L29 18L33 18L33 19L30 19L30 20L31 20L31 21L30 21L30 22L28 22L28 24L27 24L27 25L26 25L26 24L25 24L25 23L26 23L26 22L25 22L25 20L26 20L26 21L28 21L28 20L29 20L29 19L28 19L28 18L25 18L25 17L28 17L28 16L25 16L25 15L24 15L24 17L22 17L22 15L21 15L21 14L20 14L20 13L22 13L22 12L20 12L20 13L18 13L18 12L16 12L16 11L18 11L18 10L16 10L16 11L15 11L15 12L16 12L16 13L18 13L18 14L19 14L19 15L18 15L18 16L16 16L16 15L17 15L17 14L15 14L15 17L14 17L14 18L13 18L13 19L14 19L14 20L13 20L13 21L12 21L12 22L13 22L13 21L15 21L15 22L16 22L16 21L15 21L15 20L18 20L18 21L17 21L17 22L18 22L18 21L19 21L19 22L20 22L20 23L17 23L17 24L16 24L16 25L18 25L18 27L17 27L17 26L16 26L16 27L17 27L17 28L18 28L18 29L17 29L17 30L18 30L18 31L16 31L16 33L15 33L15 36L14 36L14 38L11 38L11 39L9 39L9 40L8 40L8 41L7 41L7 40L6 40L6 39L5 39L5 40L6 40L6 41L7 41L7 42L8 42L8 41L9 41L9 40L11 40L11 41L10 41L10 42L13 42L13 40L14 40L14 41L15 41L15 39L16 39L16 40L17 40L17 43L18 43L18 42L19 42L19 44L20 44L20 45L18 45L18 47L19 47L19 48L20 48L20 49L21 49L21 50L22 50L22 49L21 49L21 48L20 48L20 47L19 47L19 46L20 46L20 45L22 45L22 44L20 44L20 41L19 41L19 39L20 39L20 38L18 38L18 39L17 39L17 37L20 37L20 36L19 36L19 34L18 34L18 33L19 33L19 32L20 32L20 33L21 33L21 34L20 34L20 35L21 35L21 34L22 34L22 33L21 33L21 32L24 32L24 33L23 33L23 34L25 34L25 35L24 35L24 37L21 37L21 40L22 40L22 39L23 39L23 40L24 40L24 41L23 41L23 42L24 42L24 44L23 44L23 45L24 45L24 46L25 46L25 45L26 45L26 44L25 44L25 42L26 42L26 43L27 43L27 42L26 42L26 41L29 41L29 43L32 43L32 44L34 44L34 42L32 42L32 41L31 41L31 40L33 40L33 39L31 39L31 38L32 38L32 34L34 34L34 35L35 35L35 34L36 34L36 35L37 35L37 36L36 36L36 37L35 37L35 36L33 36L33 37L35 37L35 38L34 38L34 41L36 41L36 42L37 42L37 43L35 43L35 45L37 45L37 46L38 46L38 45L37 45L37 43L38 43L38 44L43 44L43 45L42 45L42 46L39 46L39 47L40 47L40 48L39 48L39 50L38 50L38 49L37 49L37 48L38 48L38 47L37 47L37 48L36 48L36 49L37 49L37 50L38 50L38 51L39 51L39 50L41 50L41 51L40 51L40 52L41 52L41 51L42 51L42 50L43 50L43 49L42 49L42 50L41 50L41 49L40 49L40 48L41 48L41 47L42 47L42 48L45 48L45 49L44 49L44 50L45 50L45 51L47 51L47 50L45 50L45 49L46 49L46 47L48 47L48 46L49 46L49 44L50 44L50 45L51 45L51 44L52 44L52 43L53 43L53 42L51 42L51 41L49 41L49 43L48 43L48 42L46 42L46 41L47 41L47 40L46 40L46 38L45 38L45 37L44 37L44 35L45 35L45 36L47 36L47 35L48 35L48 33L47 33L47 32L48 32L48 31L47 31L47 30L46 30L46 29L47 29L47 28L46 28L46 27L45 27L45 29L44 29L44 28L43 28L43 27L44 27L44 26L43 26L43 25L44 25L44 24L46 24L46 22L45 22L45 21L44 21L44 24L43 24L43 23L42 23L42 22L43 22L43 21L41 21L41 23L40 23L40 22L38 22L38 21L40 21L40 20L41 20L41 19L42 19L42 18L44 18L44 19L43 19L43 20L46 20L46 19L45 19L45 18L46 18L46 17L45 17L45 18L44 18L44 16L43 16L43 15L42 15L42 14L43 14L43 13L44 13L44 12L43 12L43 11L42 11L42 10L41 10L41 9L40 9L40 10L41 10L41 11L40 11L40 12L41 12L41 11L42 11L42 14L37 14L37 16L36 16L36 15L35 15L35 14L33 14L33 15L32 15L32 14L31 14L31 13L32 13L32 12L30 12L30 11L27 11L27 10L26 10L26 11L27 11L27 12L25 12L25 13L24 13L24 11L25 11L25 9L24 9L24 7L25 7L25 6L24 6L24 7L23 7L23 5L24 5L24 4L21 4L21 6L20 6L20 5L18 5L18 7L17 7L17 4L20 4L20 3ZM14 5L14 6L15 6L15 5ZM27 5L27 8L30 8L30 5ZM19 6L19 9L20 9L20 10L21 10L21 9L23 9L23 7L22 7L22 6L21 6L21 7L20 7L20 6ZM28 6L28 7L29 7L29 6ZM38 6L38 7L39 7L39 6ZM40 6L40 7L41 7L41 6ZM48 6L48 8L49 8L49 9L47 9L47 10L48 10L48 12L49 12L49 11L51 11L51 10L52 10L52 8L51 8L51 10L49 10L49 9L50 9L50 8L49 8L49 6ZM21 7L21 8L22 8L22 7ZM44 8L44 9L45 9L45 8ZM53 8L53 9L54 9L54 8ZM55 8L55 9L56 9L56 8ZM1 9L1 10L2 10L2 11L3 11L3 9ZM13 11L13 12L14 12L14 11ZM55 11L55 12L56 12L56 11ZM4 12L4 14L3 14L3 15L4 15L4 14L6 14L6 15L5 15L5 17L7 17L7 16L8 16L8 17L9 17L9 18L11 18L11 16L8 16L8 15L9 15L9 14L8 14L8 13L7 13L7 12L6 12L6 13L5 13L5 12ZM28 12L28 13L29 13L29 12ZM6 13L6 14L7 14L7 15L6 15L6 16L7 16L7 15L8 15L8 14L7 14L7 13ZM13 13L13 15L14 15L14 13ZM55 13L55 14L56 14L56 13ZM19 15L19 17L16 17L16 18L19 18L19 19L21 19L21 20L19 20L19 21L23 21L23 22L24 22L24 21L23 21L23 18L21 18L21 17L20 17L20 16L21 16L21 15ZM31 15L31 16L32 16L32 17L33 17L33 18L39 18L39 19L34 19L34 20L32 20L32 21L34 21L34 22L33 22L33 23L34 23L34 22L35 22L35 24L36 24L36 22L37 22L37 23L38 23L38 24L37 24L37 25L38 25L38 26L37 26L37 27L35 27L35 28L37 28L37 30L35 30L35 29L33 29L33 28L34 28L34 27L31 27L31 28L32 28L32 29L33 29L33 30L35 30L35 31L34 31L34 32L38 32L38 33L36 33L36 34L39 34L39 36L40 36L40 38L39 38L39 37L38 37L38 36L37 36L37 37L38 37L38 40L37 40L37 41L38 41L38 42L40 42L40 43L41 43L41 42L42 42L42 43L43 43L43 44L44 44L44 45L43 45L43 46L42 46L42 47L43 47L43 46L44 46L44 47L45 47L45 44L44 44L44 41L46 41L46 40L44 40L44 39L45 39L45 38L44 38L44 37L43 37L43 40L44 40L44 41L43 41L43 42L42 42L42 39L41 39L41 37L42 37L42 36L43 36L43 35L44 35L44 34L45 34L45 35L46 35L46 34L47 34L47 33L46 33L46 32L47 32L47 31L46 31L46 30L42 30L42 29L43 29L43 28L42 28L42 27L41 27L41 28L40 28L40 26L41 26L41 24L39 24L39 23L38 23L38 22L37 22L37 21L36 21L36 20L40 20L40 19L41 19L41 18L42 18L42 17L41 17L41 16L40 16L40 15L38 15L38 16L37 16L37 17L36 17L36 16L35 16L35 15L34 15L34 16L35 16L35 17L33 17L33 16L32 16L32 15ZM39 16L39 18L40 18L40 16ZM4 18L4 19L5 19L5 18ZM6 18L6 19L7 19L7 18ZM26 19L26 20L28 20L28 19ZM34 20L34 21L35 21L35 20ZM54 20L54 23L55 23L55 20ZM21 22L21 25L19 25L19 26L21 26L21 27L22 27L22 26L21 26L21 25L24 25L24 23L23 23L23 24L22 24L22 22ZM30 22L30 23L29 23L29 24L28 24L28 25L29 25L29 24L31 24L31 25L32 25L32 26L35 26L35 25L34 25L34 24L32 24L32 23L31 23L31 22ZM50 22L50 23L51 23L51 22ZM10 23L10 24L11 24L11 23ZM2 24L2 25L3 25L3 24ZM6 25L6 26L7 26L7 25ZM25 25L25 26L23 26L23 29L22 29L22 28L21 28L21 29L19 29L19 31L20 31L20 32L21 32L21 31L22 31L22 30L23 30L23 29L25 29L25 30L26 30L26 27L25 27L25 26L26 26L26 25ZM39 25L39 26L40 26L40 25ZM1 26L1 27L3 27L3 28L4 28L4 27L3 27L3 26ZM5 27L5 30L8 30L8 27ZM19 27L19 28L20 28L20 27ZM24 27L24 28L25 28L25 27ZM27 27L27 30L30 30L30 27ZM49 27L49 30L52 30L52 27ZM6 28L6 29L7 29L7 28ZM28 28L28 29L29 29L29 28ZM50 28L50 29L51 29L51 28ZM54 28L54 29L53 29L53 30L54 30L54 31L52 31L52 32L54 32L54 33L55 33L55 34L56 34L56 33L55 33L55 32L54 32L54 31L55 31L55 30L56 30L56 29L55 29L55 28ZM21 29L21 30L20 30L20 31L21 31L21 30L22 30L22 29ZM54 29L54 30L55 30L55 29ZM37 30L37 31L38 31L38 32L39 32L39 33L40 33L40 34L41 34L41 35L40 35L40 36L41 36L41 35L42 35L42 34L44 34L44 33L43 33L43 32L45 32L45 31L43 31L43 32L42 32L42 34L41 34L41 33L40 33L40 32L41 32L41 31L42 31L42 30ZM25 31L25 34L26 34L26 35L27 35L27 36L26 36L26 37L24 37L24 38L23 38L23 39L24 39L24 40L25 40L25 39L26 39L26 40L28 40L28 39L26 39L26 38L28 38L28 37L29 37L29 36L30 36L30 38L31 38L31 36L30 36L30 35L31 35L31 32L32 32L32 33L33 33L33 32L32 32L32 31L31 31L31 32L30 32L30 31ZM39 31L39 32L40 32L40 31ZM8 32L8 33L10 33L10 34L11 34L11 33L10 33L10 32ZM26 32L26 33L30 33L30 32ZM16 33L16 34L17 34L17 33ZM34 33L34 34L35 34L35 33ZM45 33L45 34L46 34L46 33ZM29 34L29 35L30 35L30 34ZM16 35L16 37L15 37L15 38L16 38L16 37L17 37L17 36L18 36L18 35ZM50 35L50 36L51 36L51 35ZM6 36L6 37L7 37L7 36ZM27 36L27 37L28 37L28 36ZM35 38L35 39L36 39L36 38ZM11 39L11 40L13 40L13 39ZM29 39L29 40L31 40L31 39ZM39 39L39 40L41 40L41 39ZM30 41L30 42L31 42L31 41ZM40 41L40 42L41 42L41 41ZM15 42L15 43L16 43L16 42ZM21 42L21 43L22 43L22 42ZM45 42L45 43L46 43L46 42ZM50 42L50 43L51 43L51 42ZM55 43L55 44L54 44L54 45L55 45L55 46L56 46L56 43ZM10 44L10 45L11 45L11 44ZM24 44L24 45L25 45L25 44ZM47 44L47 45L46 45L46 46L48 46L48 44ZM21 46L21 47L22 47L22 46ZM12 48L12 49L13 49L13 48ZM33 48L33 49L32 49L32 50L34 50L34 48ZM27 49L27 52L30 52L30 49ZM49 49L49 52L52 52L52 49ZM28 50L28 51L29 51L29 50ZM50 50L50 51L51 51L51 50ZM25 53L25 54L26 54L26 53ZM29 53L29 54L30 54L30 53ZM19 54L19 55L18 55L18 56L19 56L19 55L20 55L20 54ZM12 55L12 57L13 57L13 56L14 56L14 55ZM15 55L15 57L16 57L16 55ZM10 56L10 57L11 57L11 56ZM0 0L0 7L7 7L7 0ZM1 1L1 6L6 6L6 1ZM2 2L2 5L5 5L5 2ZM50 0L50 7L57 7L57 0ZM51 1L51 6L56 6L56 1ZM52 2L52 5L55 5L55 2ZM0 50L0 57L7 57L7 50ZM1 51L1 56L6 56L6 51ZM2 52L2 55L5 55L5 52Z" fill="#000000"/></g></g></svg>
