<?xml version="1.0" encoding="UTF-8"?>
<svg xmlns="http://www.w3.org/2000/svg" version="1.1" width="300" height="300" viewBox="0 0 300 300"><rect x="0" y="0" width="300" height="300" fill="#ffffff"/><g transform="scale(4.918)"><g transform="translate(2,2)"><path fill-rule="evenodd" d="M10 0L10 3L8 3L8 4L10 4L10 3L11 3L11 5L12 5L12 7L11 7L11 6L10 6L10 8L12 8L12 9L13 9L13 11L12 11L12 10L11 10L11 9L9 9L9 8L6 8L6 9L7 9L7 10L6 10L6 11L7 11L7 12L6 12L6 13L5 13L5 14L4 14L4 13L1 13L1 14L2 14L2 15L1 15L1 17L2 17L2 15L3 15L3 17L4 17L4 18L6 18L6 19L7 19L7 20L5 20L5 19L4 19L4 20L3 20L3 21L5 21L5 22L6 22L6 23L8 23L8 26L6 26L6 25L7 25L7 24L5 24L5 23L4 23L4 24L3 24L3 26L1 26L1 25L2 25L2 23L3 23L3 22L2 22L2 23L1 23L1 21L2 21L2 19L3 19L3 18L2 18L2 19L1 19L1 21L0 21L0 24L1 24L1 25L0 25L0 28L2 28L2 30L1 30L1 32L2 32L2 33L3 33L3 34L1 34L1 33L0 33L0 34L1 34L1 35L0 35L0 36L2 36L2 37L1 37L1 38L0 38L0 40L2 40L2 39L3 39L3 38L5 38L5 37L3 37L3 36L2 36L2 35L4 35L4 34L5 34L5 36L6 36L6 37L7 37L7 38L6 38L6 39L5 39L5 40L6 40L6 41L7 41L7 40L6 40L6 39L7 39L7 38L8 38L8 37L9 37L9 39L8 39L8 41L9 41L9 42L5 42L5 44L6 44L6 45L8 45L8 47L7 47L7 46L5 46L5 47L3 47L3 46L4 46L4 45L2 45L2 44L3 44L3 43L4 43L4 41L2 41L2 42L3 42L3 43L2 43L2 44L1 44L1 42L0 42L0 45L1 45L1 46L0 46L0 48L5 48L5 47L7 47L7 48L6 48L6 49L8 49L8 51L9 51L9 52L8 52L8 57L9 57L9 56L12 56L12 55L11 55L11 53L13 53L13 54L14 54L14 55L16 55L16 56L13 56L13 57L21 57L21 56L19 56L19 55L20 55L20 54L18 54L18 56L17 56L17 53L20 53L20 52L22 52L22 51L20 51L20 52L18 52L18 51L19 51L19 50L20 50L20 49L21 49L21 50L23 50L23 51L24 51L24 53L21 53L21 54L22 54L22 56L23 56L23 57L26 57L26 56L28 56L28 55L27 55L27 53L28 53L28 54L30 54L30 53L31 53L31 55L34 55L34 56L30 56L30 55L29 55L29 56L30 56L30 57L38 57L38 56L37 56L37 54L38 54L38 52L37 52L37 51L39 51L39 50L43 50L43 51L42 51L42 52L41 52L41 51L40 51L40 52L39 52L39 55L40 55L40 52L41 52L41 55L43 55L43 56L41 56L41 57L44 57L44 55L43 55L43 53L44 53L44 54L45 54L45 56L46 56L46 57L47 57L47 56L48 56L48 57L49 57L49 56L50 56L50 55L51 55L51 57L52 57L52 56L55 56L55 57L56 57L56 56L55 56L55 53L56 53L56 52L57 52L57 51L56 51L56 52L55 52L55 51L54 51L54 52L55 52L55 53L54 53L54 54L53 54L53 48L55 48L55 50L57 50L57 49L56 49L56 48L55 48L55 47L56 47L56 46L57 46L57 45L54 45L54 44L55 44L55 43L56 43L56 44L57 44L57 43L56 43L56 42L57 42L57 41L56 41L56 42L55 42L55 41L54 41L54 40L55 40L55 39L57 39L57 36L56 36L56 35L54 35L54 36L53 36L53 34L52 34L52 37L53 37L53 39L50 39L50 37L49 37L49 35L50 35L50 32L51 32L51 33L53 33L53 32L55 32L55 33L54 33L54 34L57 34L57 33L56 33L56 30L57 30L57 27L56 27L56 26L57 26L57 23L56 23L56 22L57 22L57 21L56 21L56 20L57 20L57 19L56 19L56 20L55 20L55 18L57 18L57 17L54 17L54 16L55 16L55 15L56 15L56 16L57 16L57 15L56 15L56 14L57 14L57 13L56 13L56 14L55 14L55 13L54 13L54 14L53 14L53 15L54 15L54 16L53 16L53 17L51 17L51 16L52 16L52 15L51 15L51 16L50 16L50 11L51 11L51 10L52 10L52 8L51 8L51 10L49 10L49 9L50 9L50 8L49 8L49 6L48 6L48 8L47 8L47 5L48 5L48 0L46 0L46 1L47 1L47 2L44 2L44 1L43 1L43 0L42 0L42 1L40 1L40 0L39 0L39 1L37 1L37 0L35 0L35 1L34 1L34 0L33 0L33 1L32 1L32 0L30 0L30 1L29 1L29 2L28 2L28 3L27 3L27 4L26 4L26 3L25 3L25 1L26 1L26 0L24 0L24 1L23 1L23 0L21 0L21 1L23 1L23 2L20 2L20 3L21 3L21 4L19 4L19 3L18 3L18 4L19 4L19 5L20 5L20 7L19 7L19 6L18 6L18 7L17 7L17 6L16 6L16 7L15 7L15 6L14 6L14 5L16 5L16 4L14 4L14 2L13 2L13 1L16 1L16 0L12 0L12 1L11 1L11 0ZM27 0L27 1L28 1L28 0ZM8 1L8 2L9 2L9 1ZM18 1L18 2L19 2L19 1ZM30 1L30 2L29 2L29 3L28 3L28 4L29 4L29 3L30 3L30 4L31 4L31 7L32 7L32 8L31 8L31 9L32 9L32 10L31 10L31 11L30 11L30 10L28 10L28 9L25 9L25 8L26 8L26 4L25 4L25 8L24 8L24 6L23 6L23 5L24 5L24 4L23 4L23 3L24 3L24 2L23 2L23 3L22 3L22 4L21 4L21 5L22 5L22 6L21 6L21 7L22 7L22 6L23 6L23 8L20 8L20 10L21 10L21 11L20 11L20 12L19 12L19 14L20 14L20 15L18 15L18 14L17 14L17 13L18 13L18 12L17 12L17 11L18 11L18 10L19 10L19 9L17 9L17 7L16 7L16 8L13 8L13 9L15 9L15 10L16 10L16 11L15 11L15 12L17 12L17 13L12 13L12 12L11 12L11 11L10 11L10 10L8 10L8 11L10 11L10 12L9 12L9 13L10 13L10 12L11 12L11 15L12 15L12 16L10 16L10 15L9 15L9 14L8 14L8 17L6 17L6 16L7 16L7 15L5 15L5 16L4 16L4 17L6 17L6 18L7 18L7 19L8 19L8 17L10 17L10 18L9 18L9 19L10 19L10 20L7 20L7 21L6 21L6 22L7 22L7 21L8 21L8 22L9 22L9 26L10 26L10 28L9 28L9 29L10 29L10 30L9 30L9 31L8 31L8 32L7 32L7 31L5 31L5 32L7 32L7 33L5 33L5 34L7 34L7 33L8 33L8 36L9 36L9 37L10 37L10 36L9 36L9 34L13 34L13 33L14 33L14 32L12 32L12 30L15 30L15 33L16 33L16 34L17 34L17 35L15 35L15 36L14 36L14 37L12 37L12 36L13 36L13 35L11 35L11 38L10 38L10 39L9 39L9 41L11 41L11 40L12 40L12 43L10 43L10 42L9 42L9 43L10 43L10 45L9 45L9 48L8 48L8 49L9 49L9 50L10 50L10 51L11 51L11 50L15 50L15 52L16 52L16 53L15 53L15 54L16 54L16 53L17 53L17 51L18 51L18 50L19 50L19 49L20 49L20 48L21 48L21 49L24 49L24 48L21 48L21 45L22 45L22 47L23 47L23 45L25 45L25 46L24 46L24 47L25 47L25 48L27 48L27 47L28 47L28 48L30 48L30 47L29 47L29 46L30 46L30 45L31 45L31 46L35 46L35 47L34 47L34 48L37 48L37 50L39 50L39 48L40 48L40 49L41 49L41 48L43 48L43 50L44 50L44 53L45 53L45 54L46 54L46 56L47 56L47 53L48 53L48 54L51 54L51 55L53 55L53 54L51 54L51 53L48 53L48 52L47 52L47 51L48 51L48 48L50 48L50 47L52 47L52 48L53 48L53 47L54 47L54 46L53 46L53 45L51 45L51 44L47 44L47 45L46 45L46 46L47 46L47 47L46 47L46 48L47 48L47 49L46 49L46 50L44 50L44 49L45 49L45 48L43 48L43 46L42 46L42 45L43 45L43 44L44 44L44 46L45 46L45 43L44 43L44 42L46 42L46 43L47 43L47 42L48 42L48 43L49 43L49 42L48 42L48 41L51 41L51 42L50 42L50 43L51 43L51 42L53 42L53 43L52 43L52 44L53 44L53 43L54 43L54 41L53 41L53 40L52 40L52 41L51 41L51 40L50 40L50 39L49 39L49 37L48 37L48 36L47 36L47 35L46 35L46 36L45 36L45 34L47 34L47 33L48 33L48 35L49 35L49 31L48 31L48 29L46 29L46 30L45 30L45 28L44 28L44 30L45 30L45 32L43 32L43 34L42 34L42 32L40 32L40 31L41 31L41 30L42 30L42 31L43 31L43 30L42 30L42 29L43 29L43 28L42 28L42 26L41 26L41 24L42 24L42 25L43 25L43 27L45 27L45 26L44 26L44 25L45 25L45 24L46 24L46 26L47 26L47 27L46 27L46 28L48 28L48 26L47 26L47 25L49 25L49 26L53 26L53 27L55 27L55 26L54 26L54 25L55 25L55 24L54 24L54 22L55 22L55 20L54 20L54 19L53 19L53 18L52 18L52 20L51 20L51 17L50 17L50 22L49 22L49 24L48 24L48 23L44 23L44 21L45 21L45 22L47 22L47 21L48 21L48 20L47 20L47 19L49 19L49 18L47 18L47 17L49 17L49 15L45 15L45 14L42 14L42 11L43 11L43 10L42 10L42 11L41 11L41 8L39 8L39 7L40 7L40 6L41 6L41 7L42 7L42 6L43 6L43 7L44 7L44 6L45 6L45 8L44 8L44 9L45 9L45 10L44 10L44 11L45 11L45 12L43 12L43 13L45 13L45 12L46 12L46 14L47 14L47 13L49 13L49 12L48 12L48 11L49 11L49 10L48 10L48 9L49 9L49 8L48 8L48 9L47 9L47 8L46 8L46 6L45 6L45 5L44 5L44 4L46 4L46 5L47 5L47 3L42 3L42 2L43 2L43 1L42 1L42 2L41 2L41 3L40 3L40 4L38 4L38 5L39 5L39 7L38 7L38 6L37 6L37 5L36 5L36 3L37 3L37 2L34 2L34 1L33 1L33 3L32 3L32 4L31 4L31 3L30 3L30 2L32 2L32 1ZM15 2L15 3L16 3L16 2ZM33 3L33 4L34 4L34 3ZM22 4L22 5L23 5L23 4ZM40 4L40 5L43 5L43 4ZM8 5L8 7L9 7L9 5ZM27 5L27 8L30 8L30 5ZM33 5L33 6L32 6L32 7L33 7L33 6L34 6L34 8L36 8L36 9L35 9L35 10L34 10L34 9L33 9L33 13L35 13L35 14L33 14L33 15L31 15L31 14L30 14L30 13L28 13L28 12L30 12L30 11L27 11L27 10L26 10L26 11L27 11L27 12L25 12L25 9L22 9L22 11L21 11L21 12L20 12L20 13L21 13L21 16L20 16L20 17L19 17L19 16L18 16L18 17L17 17L17 14L15 14L15 15L16 15L16 17L14 17L14 16L13 16L13 17L12 17L12 18L10 18L10 19L11 19L11 20L10 20L10 21L9 21L9 22L11 22L11 24L10 24L10 25L11 25L11 28L14 28L14 29L18 29L18 30L20 30L20 31L21 31L21 32L18 32L18 33L19 33L19 34L18 34L18 35L20 35L20 33L21 33L21 37L19 37L19 36L17 36L17 38L18 38L18 37L19 37L19 38L20 38L20 39L19 39L19 40L18 40L18 41L17 41L17 40L16 40L16 39L15 39L15 38L16 38L16 37L15 37L15 38L14 38L14 39L12 39L12 40L16 40L16 41L14 41L14 42L13 42L13 43L14 43L14 45L13 45L13 46L14 46L14 45L17 45L17 46L18 46L18 47L19 47L19 48L17 48L17 47L14 47L14 48L12 48L12 47L11 47L11 46L12 46L12 45L10 45L10 47L11 47L11 48L12 48L12 49L14 49L14 48L15 48L15 49L19 49L19 48L20 48L20 47L19 47L19 45L21 45L21 44L22 44L22 45L23 45L23 42L22 42L22 41L21 41L21 42L20 42L20 41L19 41L19 40L23 40L23 41L24 41L24 42L25 42L25 41L24 41L24 40L25 40L25 39L27 39L27 41L26 41L26 42L27 42L27 41L28 41L28 39L27 39L27 38L28 38L28 37L27 37L27 38L25 38L25 37L26 37L26 36L27 36L27 35L26 35L26 34L25 34L25 31L29 31L29 32L26 32L26 33L29 33L29 34L30 34L30 35L29 35L29 39L31 39L31 40L30 40L30 41L29 41L29 42L30 42L30 43L29 43L29 44L28 44L28 45L27 45L27 46L26 46L26 47L27 47L27 46L28 46L28 45L29 45L29 44L30 44L30 43L31 43L31 42L32 42L32 41L31 41L31 40L32 40L32 39L31 39L31 38L32 38L32 34L31 34L31 33L32 33L32 32L33 32L33 34L34 34L34 35L35 35L35 34L34 34L34 33L37 33L37 34L36 34L36 35L37 35L37 34L38 34L38 35L39 35L39 34L41 34L41 35L40 35L40 36L39 36L39 38L40 38L40 36L41 36L41 35L42 35L42 34L41 34L41 33L40 33L40 32L39 32L39 34L38 34L38 33L37 33L37 32L34 32L34 31L37 31L37 30L38 30L38 29L39 29L39 28L38 28L38 27L40 27L40 26L37 26L37 25L39 25L39 24L40 24L40 20L41 20L41 23L42 23L42 24L43 24L43 25L44 25L44 24L43 24L43 23L42 23L42 22L43 22L43 21L42 21L42 20L45 20L45 19L40 19L40 18L36 18L36 19L40 19L40 20L39 20L39 22L36 22L36 23L38 23L38 24L34 24L34 23L35 23L35 22L33 22L33 21L32 21L32 20L33 20L33 19L31 19L31 20L29 20L29 18L31 18L31 17L29 17L29 16L28 16L28 15L29 15L29 14L30 14L30 16L34 16L34 17L32 17L32 18L34 18L34 19L35 19L35 18L34 18L34 17L37 17L37 16L34 16L34 15L37 15L37 14L38 14L38 12L39 12L39 14L40 14L40 16L38 16L38 17L40 17L40 16L41 16L41 18L46 18L46 19L47 19L47 18L46 18L46 17L47 17L47 16L45 16L45 15L42 15L42 14L40 14L40 12L41 12L41 11L37 11L37 10L38 10L38 9L39 9L39 10L40 10L40 9L39 9L39 8L38 8L38 7L37 7L37 6L36 6L36 5ZM13 6L13 7L14 7L14 6ZM28 6L28 7L29 7L29 6ZM35 6L35 7L36 7L36 8L37 8L37 7L36 7L36 6ZM0 8L0 10L1 10L1 9L2 9L2 12L3 12L3 9L5 9L5 8ZM45 8L45 9L46 9L46 8ZM53 8L53 9L54 9L54 8ZM55 8L55 9L56 9L56 8ZM36 9L36 10L37 10L37 9ZM4 10L4 12L5 12L5 10ZM23 10L23 11L24 11L24 10ZM46 10L46 11L47 11L47 10ZM53 10L53 11L52 11L52 12L53 12L53 11L54 11L54 12L55 12L55 11L56 11L56 10L55 10L55 11L54 11L54 10ZM13 11L13 12L14 12L14 11ZM31 11L31 13L32 13L32 11ZM34 11L34 12L35 12L35 11ZM36 11L36 12L37 12L37 11ZM7 12L7 13L6 13L6 14L7 14L7 13L8 13L8 12ZM21 12L21 13L22 13L22 15L23 15L23 16L22 16L22 17L24 17L24 13L25 13L25 15L26 15L26 16L25 16L25 18L24 18L24 19L23 19L23 18L21 18L21 17L20 17L20 18L21 18L21 19L19 19L19 17L18 17L18 19L16 19L16 21L15 21L15 18L13 18L13 19L14 19L14 20L13 20L13 21L14 21L14 23L13 23L13 22L12 22L12 23L13 23L13 24L12 24L12 26L13 26L13 25L14 25L14 27L15 27L15 25L16 25L16 26L18 26L18 27L16 27L16 28L18 28L18 29L20 29L20 30L21 30L21 31L22 31L22 33L24 33L24 31L25 31L25 30L26 30L26 27L23 27L23 26L24 26L24 25L25 25L25 26L26 26L26 25L27 25L27 26L29 26L29 25L31 25L31 26L32 26L32 25L31 25L31 24L33 24L33 23L31 23L31 22L30 22L30 21L29 21L29 20L27 20L27 19L28 19L28 18L27 18L27 17L28 17L28 16L27 16L27 14L28 14L28 13L27 13L27 14L26 14L26 13L25 13L25 12L24 12L24 13L22 13L22 12ZM36 13L36 14L37 14L37 13ZM51 13L51 14L52 14L52 13ZM13 14L13 15L14 15L14 14ZM54 14L54 15L55 15L55 14ZM26 16L26 17L27 17L27 16ZM42 16L42 17L45 17L45 16ZM16 17L16 18L17 18L17 17ZM26 18L26 19L25 19L25 20L24 20L24 21L22 21L22 20L21 20L21 21L22 21L22 22L21 22L21 23L23 23L23 25L22 25L22 24L20 24L20 25L19 25L19 24L18 24L18 22L17 22L17 21L16 21L16 22L15 22L15 23L14 23L14 25L15 25L15 23L16 23L16 25L18 25L18 26L19 26L19 27L20 27L20 29L22 29L22 28L21 28L21 27L22 27L22 26L23 26L23 25L24 25L24 23L23 23L23 22L24 22L24 21L25 21L25 22L26 22L26 23L25 23L25 24L27 24L27 25L28 25L28 24L29 24L29 23L30 23L30 22L29 22L29 21L27 21L27 20L26 20L26 19L27 19L27 18ZM18 19L18 21L20 21L20 20L19 20L19 19ZM11 20L11 21L12 21L12 20ZM25 20L25 21L26 21L26 20ZM34 20L34 21L35 21L35 20ZM36 20L36 21L37 21L37 20ZM19 22L19 23L20 23L20 22ZM28 22L28 23L27 23L27 24L28 24L28 23L29 23L29 22ZM50 22L50 24L49 24L49 25L50 25L50 24L51 24L51 25L52 25L52 24L53 24L53 25L54 25L54 24L53 24L53 22L52 22L52 24L51 24L51 22ZM4 24L4 25L5 25L5 24ZM20 25L20 27L21 27L21 26L22 26L22 25ZM33 25L33 27L32 27L32 30L31 30L31 31L30 31L30 32L29 32L29 33L30 33L30 32L32 32L32 31L33 31L33 30L36 30L36 28L37 28L37 29L38 29L38 28L37 28L37 27L36 27L36 28L35 28L35 29L33 29L33 28L34 28L34 26L35 26L35 25ZM2 27L2 28L3 28L3 30L2 30L2 32L3 32L3 33L4 33L4 27ZM5 27L5 30L8 30L8 27ZM27 27L27 30L30 30L30 27ZM49 27L49 30L52 30L52 27ZM6 28L6 29L7 29L7 28ZM23 28L23 29L24 29L24 30L25 30L25 29L24 29L24 28ZM28 28L28 29L29 29L29 28ZM50 28L50 29L51 29L51 28ZM54 28L54 29L53 29L53 31L52 31L52 32L53 32L53 31L55 31L55 30L54 30L54 29L56 29L56 28ZM40 29L40 30L41 30L41 29ZM16 30L16 31L17 31L17 30ZM22 30L22 31L23 31L23 30ZM46 30L46 31L47 31L47 32L45 32L45 33L44 33L44 34L43 34L43 36L42 36L42 38L41 38L41 39L40 39L40 40L39 40L39 39L38 39L38 40L36 40L36 39L37 39L37 38L38 38L38 36L36 36L36 38L35 38L35 39L34 39L34 38L33 38L33 39L34 39L34 40L36 40L36 41L37 41L37 42L36 42L36 43L35 43L35 44L36 44L36 45L37 45L37 44L36 44L36 43L38 43L38 40L39 40L39 44L38 44L38 45L39 45L39 44L43 44L43 43L42 43L42 42L44 42L44 40L43 40L43 39L42 39L42 38L43 38L43 37L44 37L44 38L45 38L45 40L46 40L46 41L47 41L47 39L46 39L46 38L45 38L45 37L44 37L44 34L45 34L45 33L47 33L47 32L48 32L48 31L47 31L47 30ZM9 31L9 32L8 32L8 33L12 33L12 32L10 32L10 31ZM16 32L16 33L17 33L17 32ZM24 34L24 36L25 36L25 34ZM6 35L6 36L7 36L7 35ZM22 35L22 37L21 37L21 39L23 39L23 40L24 40L24 39L23 39L23 38L24 38L24 37L23 37L23 35ZM30 36L30 38L31 38L31 36ZM34 36L34 37L35 37L35 36ZM46 36L46 37L47 37L47 38L48 38L48 37L47 37L47 36ZM54 36L54 37L55 37L55 38L54 38L54 39L55 39L55 38L56 38L56 36ZM2 37L2 38L3 38L3 37ZM22 37L22 38L23 38L23 37ZM10 39L10 40L11 40L11 39ZM41 39L41 40L40 40L40 42L41 42L41 40L42 40L42 39ZM16 41L16 42L15 42L15 43L16 43L16 44L17 44L17 45L18 45L18 44L17 44L17 43L18 43L18 42L19 42L19 41L18 41L18 42L17 42L17 41ZM33 41L33 44L34 44L34 41ZM16 42L16 43L17 43L17 42ZM21 42L21 43L20 43L20 44L21 44L21 43L22 43L22 42ZM6 43L6 44L7 44L7 43ZM24 43L24 44L25 44L25 45L26 45L26 44L27 44L27 43L26 43L26 44L25 44L25 43ZM31 44L31 45L32 45L32 44ZM1 46L1 47L2 47L2 46ZM36 46L36 47L37 47L37 48L38 48L38 47L40 47L40 48L41 48L41 47L42 47L42 46L41 46L41 47L40 47L40 46ZM49 46L49 47L50 47L50 46ZM31 47L31 48L32 48L32 51L31 51L31 52L32 52L32 54L34 54L34 55L35 55L35 56L36 56L36 55L35 55L35 54L36 54L36 53L35 53L35 52L36 52L36 50L35 50L35 49L34 49L34 50L33 50L33 48L32 48L32 47ZM27 49L27 52L30 52L30 49ZM49 49L49 52L52 52L52 49ZM25 50L25 53L24 53L24 54L23 54L23 55L24 55L24 56L26 56L26 54L25 54L25 53L26 53L26 50ZM28 50L28 51L29 51L29 50ZM34 50L34 52L33 52L33 51L32 51L32 52L33 52L33 53L34 53L34 52L35 52L35 50ZM46 50L46 51L47 51L47 50ZM50 50L50 51L51 51L51 50ZM13 51L13 53L14 53L14 51ZM9 52L9 54L10 54L10 52ZM0 0L0 7L7 7L7 0ZM1 1L1 6L6 6L6 1ZM2 2L2 5L5 5L5 2ZM50 0L50 7L57 7L57 0ZM51 1L51 6L56 6L56 1ZM52 2L52 5L55 5L55 2ZM0 50L0 57L7 57L7 50ZM1 51L1 56L6 56L6 51ZM2 52L2 55L5 55L5 52Z" fill="#000000"/></g></g></svg>
