<?xml version="1.0" encoding="UTF-8"?>
<svg xmlns="http://www.w3.org/2000/svg" version="1.1" width="300" height="300" viewBox="0 0 300 300"><rect x="0" y="0" width="300" height="300" fill="#ffffff"/><g transform="scale(4.918)"><g transform="translate(2,2)"><path fill-rule="evenodd" d="M11 0L11 1L8 1L8 2L9 2L9 3L8 3L8 4L9 4L9 5L8 5L8 7L9 7L9 5L10 5L10 7L11 7L11 2L13 2L13 1L12 1L12 0ZM14 0L14 1L15 1L15 2L14 2L14 3L12 3L12 4L13 4L13 5L12 5L12 8L11 8L11 9L12 9L12 11L11 11L11 10L8 10L8 9L10 9L10 8L6 8L6 9L5 9L5 8L0 8L0 10L1 10L1 11L0 11L0 14L2 14L2 15L1 15L1 17L0 17L0 18L1 18L1 19L0 19L0 21L1 21L1 22L0 22L0 23L1 23L1 24L4 24L4 25L5 25L5 23L3 23L3 21L4 21L4 22L5 22L5 21L7 21L7 20L6 20L6 19L8 19L8 21L9 21L9 19L10 19L10 22L6 22L6 23L9 23L9 24L6 24L6 25L8 25L8 26L3 26L3 25L2 25L2 26L0 26L0 27L3 27L3 28L4 28L4 30L1 30L1 29L2 29L2 28L1 28L1 29L0 29L0 30L1 30L1 31L0 31L0 32L1 32L1 31L3 31L3 32L2 32L2 33L0 33L0 35L1 35L1 34L3 34L3 35L2 35L2 36L0 36L0 37L1 37L1 38L0 38L0 44L2 44L2 43L3 43L3 44L4 44L4 45L3 45L3 46L2 46L2 47L1 47L1 45L0 45L0 48L5 48L5 47L7 47L7 48L6 48L6 49L7 49L7 48L10 48L10 50L9 50L9 49L8 49L8 51L9 51L9 52L8 52L8 57L9 57L9 56L10 56L10 57L12 57L12 56L13 56L13 57L16 57L16 55L15 55L15 56L13 56L13 54L12 54L12 55L11 55L11 56L10 56L10 53L9 53L9 52L10 52L10 50L12 50L12 51L11 51L11 52L12 52L12 53L14 53L14 54L16 54L16 53L15 53L15 52L16 52L16 51L17 51L17 53L19 53L19 54L20 54L20 55L18 55L18 56L17 56L17 57L22 57L22 56L23 56L23 57L26 57L26 56L28 56L28 55L27 55L27 53L28 53L28 54L29 54L29 55L30 55L30 56L29 56L29 57L32 57L32 56L31 56L31 55L33 55L33 54L32 54L32 52L33 52L33 53L35 53L35 54L34 54L34 55L35 55L35 57L39 57L39 56L38 56L38 55L40 55L40 56L41 56L41 55L42 55L42 54L43 54L43 53L44 53L44 54L45 54L45 53L44 53L44 50L45 50L45 52L48 52L48 53L50 53L50 55L51 55L51 56L50 56L50 57L52 57L52 56L53 56L53 57L54 57L54 56L55 56L55 57L56 57L56 56L55 56L55 53L54 53L54 52L55 52L55 50L57 50L57 49L54 49L54 48L57 48L57 47L56 47L56 46L57 46L57 45L56 45L56 46L55 46L55 45L54 45L54 44L55 44L55 43L56 43L56 44L57 44L57 43L56 43L56 42L57 42L57 41L56 41L56 42L55 42L55 39L57 39L57 36L56 36L56 34L57 34L57 32L56 32L56 30L57 30L57 27L56 27L56 26L55 26L55 25L56 25L56 24L55 24L55 23L56 23L56 22L57 22L57 21L51 21L51 22L50 22L50 19L51 19L51 20L56 20L56 19L52 19L52 18L54 18L54 16L55 16L55 18L57 18L57 17L56 17L56 16L57 16L57 15L56 15L56 14L57 14L57 13L56 13L56 10L57 10L57 9L56 9L56 8L55 8L55 9L56 9L56 10L55 10L55 11L54 11L54 10L53 10L53 9L54 9L54 8L53 8L53 9L52 9L52 8L51 8L51 9L52 9L52 10L49 10L49 9L50 9L50 8L49 8L49 6L48 6L48 7L47 7L47 5L48 5L48 0L42 0L42 1L41 1L41 0L40 0L40 1L38 1L38 0L36 0L36 1L34 1L34 0L30 0L30 1L29 1L29 0L27 0L27 1L25 1L25 0L24 0L24 1L23 1L23 0L21 0L21 1L23 1L23 2L25 2L25 3L24 3L24 4L21 4L21 6L20 6L20 5L19 5L19 6L18 6L18 8L17 8L17 5L18 5L18 4L20 4L20 3L22 3L22 2L19 2L19 1L16 1L16 0ZM27 1L27 3L28 3L28 4L29 4L29 3L31 3L31 2L34 2L34 3L32 3L32 4L31 4L31 7L32 7L32 6L33 6L33 7L34 7L34 9L33 9L33 8L32 8L32 9L31 9L31 10L28 10L28 9L26 9L26 6L25 6L25 4L26 4L26 3L25 3L25 4L24 4L24 5L23 5L23 7L22 7L22 6L21 6L21 7L20 7L20 6L19 6L19 8L20 8L20 12L19 12L19 10L18 10L18 11L17 11L17 12L18 12L18 13L16 13L16 15L14 15L14 14L15 14L15 10L17 10L17 9L15 9L15 8L16 8L16 6L15 6L15 5L16 5L16 4L18 4L18 3L19 3L19 2L17 2L17 3L16 3L16 4L15 4L15 3L14 3L14 4L15 4L15 5L13 5L13 7L14 7L14 8L12 8L12 9L15 9L15 10L13 10L13 11L14 11L14 12L11 12L11 13L10 13L10 14L12 14L12 15L13 15L13 16L14 16L14 17L16 17L16 18L17 18L17 19L16 19L16 20L15 20L15 21L13 21L13 20L14 20L14 19L13 19L13 18L10 18L10 17L9 17L9 12L10 12L10 11L9 11L9 12L8 12L8 11L6 11L6 10L7 10L7 9L6 9L6 10L5 10L5 11L4 11L4 10L3 10L3 9L2 9L2 12L3 12L3 11L4 11L4 13L3 13L3 14L4 14L4 13L6 13L6 14L5 14L5 15L6 15L6 16L5 16L5 17L4 17L4 15L2 15L2 16L3 16L3 17L2 17L2 18L3 18L3 19L1 19L1 21L3 21L3 20L4 20L4 21L5 21L5 19L6 19L6 18L8 18L8 19L9 19L9 18L10 18L10 19L13 19L13 20L12 20L12 21L11 21L11 23L13 23L13 24L11 24L11 25L10 25L10 27L9 27L9 30L10 30L10 31L9 31L9 32L11 32L11 33L10 33L10 35L6 35L6 34L9 34L9 33L8 33L8 31L6 31L6 32L4 32L4 33L3 33L3 34L4 34L4 36L7 36L7 37L3 37L3 40L2 40L2 38L1 38L1 42L2 42L2 41L4 41L4 38L7 38L7 39L6 39L6 40L7 40L7 41L6 41L6 42L5 42L5 43L6 43L6 44L7 44L7 45L6 45L6 46L7 46L7 47L8 47L8 46L9 46L9 47L11 47L11 49L13 49L13 52L15 52L15 51L16 51L16 50L17 50L17 51L18 51L18 50L19 50L19 49L20 49L20 50L21 50L21 51L22 51L22 53L21 53L21 52L19 52L19 53L21 53L21 54L22 54L22 55L21 55L21 56L22 56L22 55L23 55L23 56L24 56L24 55L23 55L23 54L24 54L24 53L23 53L23 52L24 52L24 51L25 51L25 52L26 52L26 46L27 46L27 45L28 45L28 46L29 46L29 45L28 45L28 44L27 44L27 43L26 43L26 42L30 42L30 40L32 40L32 41L31 41L31 42L35 42L35 43L34 43L34 44L33 44L33 43L29 43L29 44L32 44L32 45L31 45L31 47L33 47L33 46L35 46L35 47L34 47L34 48L31 48L31 52L32 52L32 50L33 50L33 51L34 51L34 52L35 52L35 53L36 53L36 52L38 52L38 54L35 54L35 55L36 55L36 56L37 56L37 55L38 55L38 54L39 54L39 52L40 52L40 55L41 55L41 53L42 53L42 52L43 52L43 50L44 50L44 49L45 49L45 50L47 50L47 51L48 51L48 48L50 48L50 47L51 47L51 46L52 46L52 47L53 47L53 48L54 48L54 47L55 47L55 46L54 46L54 47L53 47L53 45L51 45L51 44L53 44L53 43L54 43L54 40L53 40L53 39L52 39L52 38L54 38L54 39L55 39L55 38L54 38L54 37L56 37L56 36L54 36L54 37L50 37L50 36L49 36L49 35L51 35L51 36L52 36L52 34L54 34L54 33L55 33L55 34L56 34L56 32L54 32L54 31L55 31L55 30L56 30L56 28L54 28L54 29L53 29L53 31L52 31L52 32L54 32L54 33L51 33L51 32L50 32L50 31L48 31L48 28L47 28L47 27L48 27L48 25L50 25L50 26L52 26L52 25L53 25L53 27L55 27L55 26L54 26L54 25L55 25L55 24L51 24L51 23L50 23L50 22L49 22L49 23L48 23L48 25L46 25L46 24L47 24L47 21L48 21L48 20L43 20L43 24L39 24L39 20L40 20L40 21L41 21L41 20L42 20L42 19L44 19L44 18L47 18L47 19L48 19L48 18L47 18L47 17L49 17L49 16L50 16L50 18L51 18L51 17L53 17L53 16L54 16L54 15L55 15L55 14L56 14L56 13L55 13L55 12L54 12L54 11L53 11L53 10L52 10L52 11L50 11L50 13L49 13L49 12L47 12L47 11L49 11L49 10L48 10L48 9L49 9L49 8L48 8L48 9L47 9L47 8L46 8L46 5L47 5L47 3L43 3L43 5L41 5L41 4L42 4L42 2L47 2L47 1L42 1L42 2L41 2L41 1L40 1L40 2L41 2L41 3L40 3L40 5L41 5L41 8L40 8L40 6L39 6L39 7L38 7L38 6L37 6L37 5L39 5L39 2L38 2L38 1L37 1L37 2L34 2L34 1L30 1L30 2L29 2L29 1ZM28 2L28 3L29 3L29 2ZM37 2L37 3L36 3L36 5L34 5L34 7L35 7L35 9L36 9L36 12L34 12L34 10L33 10L33 9L32 9L32 10L33 10L33 11L31 11L31 12L30 12L30 11L28 11L28 10L26 10L26 11L27 11L27 12L25 12L25 11L24 11L24 10L25 10L25 8L24 8L24 7L25 7L25 6L24 6L24 7L23 7L23 8L24 8L24 9L22 9L22 7L21 7L21 9L22 9L22 10L21 10L21 11L22 11L22 10L23 10L23 12L25 12L25 13L23 13L23 15L24 15L24 17L23 17L23 18L24 18L24 19L23 19L23 21L19 21L19 19L17 19L17 20L18 20L18 21L17 21L17 22L18 22L18 23L17 23L17 25L18 25L18 27L17 27L17 26L16 26L16 27L15 27L15 28L14 28L14 29L12 29L12 30L11 30L11 28L12 28L12 27L13 27L13 25L14 25L14 26L15 26L15 25L16 25L16 23L15 23L15 22L16 22L16 21L15 21L15 22L13 22L13 23L14 23L14 24L13 24L13 25L11 25L11 26L12 26L12 27L10 27L10 30L11 30L11 31L12 31L12 30L13 30L13 31L15 31L15 32L14 32L14 34L15 34L15 36L14 36L14 35L13 35L13 32L12 32L12 33L11 33L11 35L10 35L10 36L8 36L8 37L9 37L9 38L10 38L10 40L9 40L9 39L7 39L7 40L8 40L8 41L7 41L7 42L6 42L6 43L7 43L7 42L8 42L8 43L10 43L10 42L11 42L11 43L12 43L12 40L13 40L13 41L16 41L16 40L17 40L17 41L19 41L19 42L20 42L20 41L19 41L19 39L20 39L20 38L19 38L19 39L17 39L17 37L20 37L20 36L22 36L22 35L21 35L21 34L22 34L22 33L21 33L21 31L22 31L22 29L23 29L23 30L25 30L25 31L24 31L24 32L23 32L23 36L24 36L24 37L21 37L21 41L22 41L22 42L21 42L21 43L22 43L22 42L26 42L26 41L28 41L28 40L29 40L29 39L31 39L31 38L32 38L32 35L30 35L30 34L29 34L29 35L30 35L30 36L29 36L29 37L28 37L28 36L27 36L27 35L26 35L26 34L27 34L27 33L30 33L30 32L31 32L31 34L33 34L33 36L35 36L35 34L33 34L33 33L34 33L34 31L35 31L35 32L36 32L36 35L37 35L37 36L36 36L36 38L37 38L37 39L36 39L36 40L35 40L35 38L34 38L34 37L33 37L33 38L34 38L34 40L35 40L35 41L36 41L36 42L37 42L37 43L41 43L41 44L43 44L43 45L42 45L42 46L41 46L41 45L40 45L40 46L41 46L41 47L40 47L40 48L39 48L39 46L36 46L36 45L37 45L37 44L36 44L36 43L35 43L35 46L36 46L36 47L35 47L35 48L34 48L34 49L33 49L33 50L34 50L34 51L35 51L35 52L36 52L36 51L37 51L37 50L38 50L38 52L39 52L39 51L40 51L40 52L41 52L41 51L42 51L42 50L43 50L43 49L44 49L44 48L45 48L45 49L47 49L47 48L46 48L46 47L47 47L47 46L46 46L46 45L47 45L47 44L48 44L48 45L49 45L49 47L50 47L50 44L51 44L51 43L50 43L50 42L51 42L51 41L49 41L49 40L52 40L52 41L53 41L53 40L52 40L52 39L49 39L49 38L48 38L48 37L49 37L49 36L48 36L48 33L47 33L47 34L45 34L45 36L46 36L46 37L47 37L47 39L49 39L49 40L48 40L48 41L47 41L47 40L46 40L46 38L45 38L45 37L44 37L44 34L43 34L43 33L42 33L42 32L46 32L46 31L47 31L47 32L48 32L48 31L47 31L47 30L46 30L46 29L47 29L47 28L46 28L46 27L47 27L47 26L43 26L43 25L40 25L40 26L38 26L38 25L39 25L39 24L38 24L38 25L37 25L37 23L38 23L38 21L37 21L37 20L36 20L36 21L37 21L37 22L36 22L36 23L34 23L34 22L33 22L33 21L35 21L35 19L39 19L39 18L37 18L37 16L38 16L38 17L39 17L39 16L41 16L41 17L42 17L42 18L41 18L41 19L40 19L40 20L41 20L41 19L42 19L42 18L44 18L44 16L45 16L45 17L46 17L46 15L49 15L49 13L47 13L47 14L46 14L46 12L45 12L45 15L44 15L44 16L43 16L43 15L42 15L42 14L44 14L44 11L45 11L45 9L43 9L43 8L45 8L45 6L44 6L44 7L43 7L43 6L42 6L42 9L41 9L41 10L42 10L42 14L41 14L41 13L40 13L40 12L41 12L41 11L40 11L40 12L39 12L39 10L37 10L37 8L38 8L38 9L39 9L39 8L38 8L38 7L37 7L37 6L36 6L36 5L37 5L37 4L38 4L38 2ZM34 3L34 4L35 4L35 3ZM44 4L44 5L46 5L46 4ZM27 5L27 8L30 8L30 5ZM14 6L14 7L15 7L15 6ZM28 6L28 7L29 7L29 6ZM35 6L35 7L36 7L36 8L37 8L37 7L36 7L36 6ZM52 11L52 12L53 12L53 11ZM6 12L6 13L8 13L8 12ZM20 12L20 13L18 13L18 15L19 15L19 16L17 16L17 15L16 15L16 17L19 17L19 16L20 16L20 17L21 17L21 18L20 18L20 19L22 19L22 17L21 17L21 16L22 16L22 14L21 14L21 16L20 16L20 15L19 15L19 14L20 14L20 13L22 13L22 12ZM28 12L28 13L25 13L25 14L24 14L24 15L25 15L25 16L28 16L28 17L25 17L25 19L26 19L26 21L25 21L25 22L26 22L26 23L25 23L25 24L26 24L26 25L25 25L25 26L23 26L23 24L24 24L24 23L23 23L23 22L24 22L24 21L23 21L23 22L21 22L21 23L23 23L23 24L21 24L21 25L20 25L20 26L21 26L21 27L22 27L22 26L23 26L23 29L25 29L25 30L26 30L26 27L25 27L25 26L26 26L26 25L27 25L27 24L28 24L28 25L30 25L30 24L28 24L28 21L29 21L29 22L30 22L30 23L31 23L31 25L32 25L32 27L31 27L31 28L32 28L32 29L33 29L33 30L40 30L40 31L39 31L39 32L38 32L38 31L36 31L36 32L37 32L37 34L39 34L39 32L40 32L40 34L42 34L42 35L41 35L41 36L40 36L40 35L38 35L38 36L37 36L37 37L38 37L38 38L40 38L40 39L44 39L44 42L42 42L42 43L43 43L43 44L44 44L44 46L42 46L42 47L43 47L43 48L40 48L40 49L41 49L41 50L40 50L40 51L41 51L41 50L42 50L42 49L43 49L43 48L44 48L44 47L45 47L45 43L44 43L44 42L47 42L47 43L49 43L49 42L47 42L47 41L46 41L46 40L45 40L45 38L44 38L44 37L43 37L43 38L41 38L41 37L42 37L42 35L43 35L43 34L42 34L42 33L41 33L41 32L42 32L42 31L43 31L43 30L44 30L44 31L46 31L46 30L45 30L45 28L44 28L44 29L43 29L43 28L42 28L42 27L41 27L41 28L40 28L40 27L38 27L38 26L37 26L37 25L36 25L36 26L35 26L35 24L34 24L34 25L33 25L33 24L32 24L32 23L31 23L31 22L30 22L30 21L29 21L29 20L30 20L30 19L34 19L34 18L36 18L36 16L37 16L37 15L38 15L38 16L39 16L39 14L40 14L40 15L41 15L41 16L42 16L42 15L41 15L41 14L40 14L40 13L39 13L39 12L38 12L38 14L36 14L36 13L33 13L33 12L32 12L32 13L33 13L33 14L35 14L35 15L36 15L36 16L30 16L30 13L29 13L29 12ZM13 13L13 14L14 14L14 13ZM28 13L28 14L26 14L26 15L29 15L29 13ZM51 13L51 14L50 14L50 15L51 15L51 14L52 14L52 13ZM54 13L54 14L55 14L55 13ZM6 14L6 15L7 15L7 16L6 16L6 17L7 17L7 16L8 16L8 15L7 15L7 14ZM31 14L31 15L32 15L32 14ZM29 17L29 18L32 18L32 17ZM33 17L33 18L34 18L34 17ZM26 18L26 19L27 19L27 20L29 20L29 19L28 19L28 18ZM32 20L32 21L33 21L33 20ZM18 21L18 22L19 22L19 23L20 23L20 22L19 22L19 21ZM44 21L44 24L45 24L45 23L46 23L46 22L45 22L45 21ZM1 22L1 23L2 23L2 22ZM40 22L40 23L41 23L41 22ZM52 22L52 23L53 23L53 22ZM54 22L54 23L55 23L55 22ZM49 23L49 24L50 24L50 23ZM14 24L14 25L15 25L15 24ZM33 26L33 27L32 27L32 28L33 28L33 29L37 29L37 28L38 28L38 29L40 29L40 28L38 28L38 27L37 27L37 28L36 28L36 27L35 27L35 26ZM5 27L5 30L8 30L8 27ZM24 27L24 28L25 28L25 27ZM27 27L27 30L30 30L30 27ZM33 27L33 28L34 28L34 27ZM49 27L49 30L52 30L52 27ZM6 28L6 29L7 29L7 28ZM17 28L17 29L16 29L16 30L17 30L17 31L16 31L16 32L18 32L18 31L19 31L19 33L16 33L16 35L18 35L18 34L19 34L19 35L20 35L20 34L21 34L21 33L20 33L20 31L21 31L21 29L22 29L22 28L21 28L21 29L20 29L20 28L19 28L19 29L20 29L20 30L17 30L17 29L18 29L18 28ZM28 28L28 29L29 29L29 28ZM50 28L50 29L51 29L51 28ZM14 29L14 30L15 30L15 29ZM42 29L42 30L41 30L41 31L40 31L40 32L41 32L41 31L42 31L42 30L43 30L43 29ZM54 29L54 30L55 30L55 29ZM31 30L31 32L32 32L32 33L33 33L33 32L32 32L32 30ZM25 31L25 34L24 34L24 36L25 36L25 37L24 37L24 38L23 38L23 39L24 39L24 40L22 40L22 41L25 41L25 39L26 39L26 40L28 40L28 39L26 39L26 37L27 37L27 38L28 38L28 37L27 37L27 36L26 36L26 35L25 35L25 34L26 34L26 32L29 32L29 31ZM6 32L6 33L4 33L4 34L6 34L6 33L7 33L7 32ZM50 33L50 34L51 34L51 33ZM12 35L12 37L13 37L13 39L14 39L14 38L16 38L16 37L17 37L17 36L16 36L16 37L14 37L14 36L13 36L13 35ZM46 35L46 36L47 36L47 37L48 37L48 36L47 36L47 35ZM10 36L10 37L11 37L11 36ZM30 36L30 38L31 38L31 36ZM38 36L38 37L40 37L40 36ZM11 39L11 40L12 40L12 39ZM15 39L15 40L16 40L16 39ZM32 39L32 40L33 40L33 39ZM38 40L38 41L37 41L37 42L39 42L39 41L42 41L42 40ZM9 41L9 42L10 42L10 41ZM13 42L13 44L12 44L12 46L13 46L13 45L15 45L15 46L16 46L16 47L15 47L15 48L14 48L14 47L13 47L13 49L17 49L17 50L18 50L18 49L19 49L19 45L22 45L22 44L19 44L19 45L18 45L18 44L16 44L16 43L15 43L15 42ZM17 42L17 43L18 43L18 42ZM14 43L14 44L15 44L15 43ZM9 44L9 45L10 45L10 44ZM25 44L25 45L23 45L23 46L25 46L25 45L26 45L26 44ZM4 45L4 46L3 46L3 47L5 47L5 45ZM16 45L16 46L17 46L17 47L16 47L16 48L17 48L17 47L18 47L18 45ZM32 45L32 46L33 46L33 45ZM21 46L21 47L20 47L20 48L23 48L23 47L22 47L22 46ZM24 47L24 49L23 49L23 50L25 50L25 47ZM27 47L27 48L30 48L30 47ZM36 47L36 48L35 48L35 49L34 49L34 50L36 50L36 48L38 48L38 50L39 50L39 48L38 48L38 47ZM21 49L21 50L22 50L22 49ZM27 49L27 52L30 52L30 49ZM49 49L49 52L52 52L52 49ZM14 50L14 51L15 51L15 50ZM28 50L28 51L29 51L29 50ZM50 50L50 51L51 51L51 50ZM53 50L53 51L54 51L54 50ZM56 51L56 52L57 52L57 51ZM22 53L22 54L23 54L23 53ZM25 53L25 55L26 55L26 53ZM29 53L29 54L30 54L30 53ZM47 54L47 55L48 55L48 57L49 57L49 54ZM51 54L51 55L53 55L53 56L54 56L54 55L53 55L53 54ZM43 55L43 57L44 57L44 55ZM45 55L45 57L47 57L47 56L46 56L46 55ZM33 56L33 57L34 57L34 56ZM0 0L0 7L7 7L7 0ZM1 1L1 6L6 6L6 1ZM2 2L2 5L5 5L5 2ZM50 0L50 7L57 7L57 0ZM51 1L51 6L56 6L56 1ZM52 2L52 5L55 5L55 2ZM0 50L0 57L7 57L7 50ZM1 51L1 56L6 56L6 51ZM2 52L2 55L5 55L5 52Z" fill="#000000"/></g></g></svg>
