<?xml version="1.0" encoding="UTF-8"?>
<svg xmlns="http://www.w3.org/2000/svg" version="1.1" width="300" height="300" viewBox="0 0 300 300"><rect x="0" y="0" width="300" height="300" fill="#ffffff"/><g transform="scale(4.918)"><g transform="translate(2,2)"><path fill-rule="evenodd" d="M10 0L10 2L9 2L9 1L8 1L8 2L9 2L9 3L8 3L8 4L9 4L9 3L10 3L10 4L11 4L11 6L10 6L10 5L8 5L8 7L9 7L9 8L6 8L6 9L5 9L5 8L0 8L0 12L3 12L3 15L2 15L2 14L0 14L0 16L1 16L1 18L0 18L0 19L1 19L1 20L0 20L0 21L3 21L3 22L6 22L6 23L4 23L4 25L8 25L8 26L4 26L4 27L3 27L3 23L2 23L2 25L1 25L1 24L0 24L0 29L1 29L1 28L2 28L2 29L3 29L3 28L4 28L4 31L8 31L8 32L6 32L6 33L8 33L8 32L9 32L9 33L11 33L11 35L10 35L10 37L11 37L11 38L10 38L10 39L9 39L9 38L8 38L8 39L7 39L7 38L6 38L6 37L7 37L7 36L6 36L6 35L8 35L8 36L9 36L9 35L8 35L8 34L6 34L6 35L5 35L5 38L4 38L4 37L3 37L3 38L1 38L1 39L0 39L0 48L5 48L5 47L7 47L7 46L8 46L8 44L3 44L3 42L2 42L2 41L4 41L4 40L6 40L6 41L5 41L5 42L6 42L6 43L8 43L8 41L9 41L9 43L10 43L10 42L11 42L11 43L14 43L14 42L15 42L15 44L13 44L13 45L15 45L15 47L14 47L14 46L13 46L13 48L12 48L12 47L11 47L11 48L8 48L8 51L9 51L9 49L11 49L11 50L12 50L12 49L13 49L13 51L11 51L11 52L13 52L13 51L14 51L14 53L10 53L10 52L8 52L8 57L11 57L11 56L12 56L12 57L13 57L13 56L14 56L14 57L16 57L16 56L17 56L17 57L20 57L20 56L19 56L19 55L20 55L20 54L17 54L17 53L20 53L20 52L21 52L21 53L22 53L22 54L21 54L21 56L23 56L23 57L24 57L24 55L22 55L22 54L24 54L24 53L26 53L26 55L27 55L27 56L28 56L28 55L27 55L27 53L28 53L28 54L30 54L30 53L31 53L31 56L30 56L30 55L29 55L29 56L30 56L30 57L31 57L31 56L33 56L33 54L34 54L34 56L35 56L35 57L37 57L37 56L35 56L35 54L36 54L36 55L39 55L39 56L38 56L38 57L39 57L39 56L41 56L41 57L44 57L44 56L45 56L45 57L49 57L49 56L47 56L47 55L46 55L46 54L45 54L45 53L44 53L44 51L42 51L42 50L43 50L43 49L42 49L42 50L40 50L40 48L41 48L41 47L42 47L42 48L45 48L45 49L44 49L44 50L45 50L45 52L48 52L48 53L47 53L47 54L48 54L48 55L49 55L49 54L48 54L48 53L50 53L50 55L51 55L51 56L50 56L50 57L52 57L52 56L55 56L55 57L56 57L56 56L55 56L55 53L54 53L54 52L55 52L55 50L57 50L57 49L54 49L54 48L57 48L57 47L56 47L56 46L57 46L57 43L56 43L56 42L57 42L57 41L56 41L56 42L55 42L55 39L57 39L57 37L56 37L56 36L57 36L57 35L55 35L55 34L57 34L57 32L56 32L56 30L57 30L57 29L56 29L56 30L55 30L55 29L54 29L54 28L55 28L55 27L53 27L53 26L52 26L52 24L53 24L53 25L54 25L54 26L57 26L57 25L54 25L54 24L57 24L57 23L56 23L56 22L57 22L57 21L51 21L51 22L50 22L50 19L51 19L51 20L55 20L55 19L53 19L53 18L54 18L54 17L53 17L53 18L52 18L52 19L51 19L51 18L50 18L50 17L51 17L51 16L55 16L55 18L57 18L57 17L56 17L56 16L57 16L57 15L56 15L56 14L57 14L57 12L56 12L56 14L55 14L55 13L53 13L53 15L51 15L51 14L52 14L52 13L51 13L51 14L50 14L50 15L49 15L49 13L50 13L50 11L52 11L52 12L53 12L53 11L54 11L54 12L55 12L55 11L56 11L56 8L55 8L55 11L54 11L54 10L53 10L53 11L52 11L52 10L50 10L50 8L49 8L49 6L48 6L48 7L47 7L47 5L48 5L48 0L45 0L45 1L44 1L44 2L43 2L43 3L47 3L47 5L46 5L46 4L44 4L44 5L46 5L46 7L45 7L45 6L44 6L44 8L42 8L42 7L43 7L43 6L42 6L42 7L41 7L41 5L43 5L43 4L41 4L41 5L40 5L40 3L41 3L41 2L42 2L42 1L43 1L43 0L42 0L42 1L41 1L41 2L39 2L39 1L40 1L40 0L39 0L39 1L37 1L37 0L35 0L35 1L34 1L34 0L32 0L32 1L31 1L31 0L30 0L30 1L29 1L29 2L28 2L28 3L27 3L27 4L26 4L26 3L23 3L23 4L19 4L19 3L22 3L22 2L17 2L17 1L16 1L16 0L14 0L14 1L15 1L15 2L14 2L14 3L13 3L13 4L12 4L12 2L11 2L11 0ZM12 0L12 1L13 1L13 0ZM21 0L21 1L23 1L23 2L27 2L27 1L25 1L25 0L24 0L24 1L23 1L23 0ZM30 1L30 2L29 2L29 3L28 3L28 4L30 4L30 2L31 2L31 1ZM32 1L32 2L33 2L33 3L32 3L32 4L31 4L31 9L32 9L32 10L34 10L34 12L37 12L37 11L39 11L39 12L38 12L38 13L37 13L37 14L39 14L39 12L40 12L40 15L41 15L41 14L42 14L42 15L44 15L44 14L45 14L45 12L46 12L46 14L47 14L47 13L49 13L49 12L47 12L47 11L46 11L46 10L48 10L48 9L49 9L49 8L48 8L48 9L47 9L47 7L46 7L46 8L44 8L44 11L43 11L43 12L44 12L44 14L42 14L42 10L40 10L40 9L41 9L41 8L40 8L40 6L39 6L39 2L34 2L34 1ZM45 1L45 2L47 2L47 1ZM10 2L10 3L11 3L11 2ZM14 3L14 4L16 4L16 5L12 5L12 6L11 6L11 8L10 8L10 10L9 10L9 9L8 9L8 10L7 10L7 9L6 9L6 10L7 10L7 11L6 11L6 12L8 12L8 10L9 10L9 12L10 12L10 10L12 10L12 11L11 11L11 12L12 12L12 13L13 13L13 14L12 14L12 15L11 15L11 13L9 13L9 14L10 14L10 15L8 15L8 13L5 13L5 12L4 12L4 11L3 11L3 9L2 9L2 10L1 10L1 11L3 11L3 12L4 12L4 14L7 14L7 15L6 15L6 16L4 16L4 15L3 15L3 16L4 16L4 17L2 17L2 18L1 18L1 19L2 19L2 20L3 20L3 21L6 21L6 22L7 22L7 23L6 23L6 24L7 24L7 23L9 23L9 24L8 24L8 25L10 25L10 26L9 26L9 27L10 27L10 29L9 29L9 32L11 32L11 33L12 33L12 32L11 32L11 31L10 31L10 30L11 30L11 28L12 28L12 31L14 31L14 32L13 32L13 34L12 34L12 35L13 35L13 34L15 34L15 33L14 33L14 32L15 32L15 29L14 29L14 28L15 28L15 27L14 27L14 26L15 26L15 25L16 25L16 28L18 28L18 29L16 29L16 30L17 30L17 31L16 31L16 32L18 32L18 31L20 31L20 32L19 32L19 33L16 33L16 35L17 35L17 36L15 36L15 35L14 35L14 36L15 36L15 37L16 37L16 38L15 38L15 39L16 39L16 40L13 40L13 41L12 41L12 40L11 40L11 39L10 39L10 40L9 40L9 41L10 41L10 40L11 40L11 42L14 42L14 41L15 41L15 42L16 42L16 43L18 43L18 42L19 42L19 41L18 41L18 42L17 42L17 40L19 40L19 39L20 39L20 38L19 38L19 37L21 37L21 38L22 38L22 37L23 37L23 38L24 38L24 37L23 37L23 35L22 35L22 37L21 37L21 36L19 36L19 35L20 35L20 34L21 34L21 33L22 33L22 34L23 34L23 32L26 32L26 33L25 33L25 34L24 34L24 36L25 36L25 34L26 34L26 35L27 35L27 36L26 36L26 37L25 37L25 38L27 38L27 39L25 39L25 44L24 44L24 45L22 45L22 44L21 44L21 43L22 43L22 42L23 42L23 43L24 43L24 42L23 42L23 40L24 40L24 39L21 39L21 40L20 40L20 44L21 44L21 45L19 45L19 49L18 49L18 50L17 50L17 49L15 49L15 48L14 48L14 49L15 49L15 51L16 51L16 53L14 53L14 54L11 54L11 55L12 55L12 56L13 56L13 55L14 55L14 56L16 56L16 55L15 55L15 54L16 54L16 53L17 53L17 51L18 51L18 52L19 52L19 51L18 51L18 50L19 50L19 49L20 49L20 50L21 50L21 52L22 52L22 53L24 53L24 51L25 51L25 52L26 52L26 51L25 51L25 50L26 50L26 48L25 48L25 50L23 50L23 49L24 49L24 47L26 47L26 46L27 46L27 48L29 48L29 45L30 45L30 46L31 46L31 43L28 43L28 44L26 44L26 43L27 43L27 42L26 42L26 41L28 41L28 42L29 42L29 41L28 41L28 40L31 40L31 41L30 41L30 42L31 42L31 41L32 41L32 42L33 42L33 43L34 43L34 44L32 44L32 47L33 47L33 46L35 46L35 45L36 45L36 44L37 44L37 46L39 46L39 47L38 47L38 49L37 49L37 50L36 50L36 48L37 48L37 47L36 47L36 48L34 48L34 50L32 50L32 49L33 49L33 48L31 48L31 50L32 50L32 51L31 51L31 52L32 52L32 54L33 54L33 52L32 52L32 51L34 51L34 54L35 54L35 53L36 53L36 54L39 54L39 52L40 52L40 55L43 55L43 56L44 56L44 55L45 55L45 56L46 56L46 55L45 55L45 54L44 54L44 53L43 53L43 52L42 52L42 53L43 53L43 54L41 54L41 52L40 52L40 51L37 51L37 50L39 50L39 48L40 48L40 47L41 47L41 46L42 46L42 47L45 47L45 46L44 46L44 45L45 45L45 44L44 44L44 42L47 42L47 43L49 43L49 42L47 42L47 41L48 41L48 40L49 40L49 41L51 41L51 42L50 42L50 43L51 43L51 44L49 44L49 45L52 45L52 47L51 47L51 46L47 46L47 45L48 45L48 44L47 44L47 45L46 45L46 46L47 46L47 48L46 48L46 49L45 49L45 50L47 50L47 51L48 51L48 48L49 48L49 47L51 47L51 48L54 48L54 47L55 47L55 46L56 46L56 45L55 45L55 44L56 44L56 43L55 43L55 44L54 44L54 45L52 45L52 44L53 44L53 43L54 43L54 41L52 41L52 38L53 38L53 36L52 36L52 34L54 34L54 33L56 33L56 32L54 32L54 31L55 31L55 30L53 30L53 32L54 32L54 33L51 33L51 32L50 32L50 31L48 31L48 25L50 25L50 26L51 26L51 24L52 24L52 23L53 23L53 22L52 22L52 23L50 23L50 22L49 22L49 23L48 23L48 25L47 25L47 24L46 24L46 25L45 25L45 24L44 24L44 25L45 25L45 26L44 26L44 29L43 29L43 28L42 28L42 27L43 27L43 26L42 26L42 25L41 25L41 22L40 22L40 24L39 24L39 23L38 23L38 22L39 22L39 20L40 20L40 21L43 21L43 22L42 22L42 24L43 24L43 23L44 23L44 21L45 21L45 22L46 22L46 23L47 23L47 21L48 21L48 18L47 18L47 17L50 17L50 16L51 16L51 15L50 15L50 16L49 16L49 15L45 15L45 16L43 16L43 18L41 18L41 16L39 16L39 15L33 15L33 16L30 16L30 14L32 14L32 13L33 13L33 14L36 14L36 13L33 13L33 12L31 12L31 11L30 11L30 10L27 10L27 9L25 9L25 12L24 12L24 13L22 13L22 12L21 12L21 13L19 13L19 15L18 15L18 14L17 14L17 13L18 13L18 12L17 12L17 11L18 11L18 10L19 10L19 11L20 11L20 10L21 10L21 11L22 11L22 9L23 9L23 8L24 8L24 6L23 6L23 5L24 5L24 4L23 4L23 5L22 5L22 6L21 6L21 7L22 7L22 8L19 8L19 9L16 9L16 8L17 8L17 7L18 7L18 5L19 5L19 7L20 7L20 5L19 5L19 4L18 4L18 3ZM33 3L33 4L35 4L35 3ZM36 3L36 5L35 5L35 6L34 6L34 5L33 5L33 6L32 6L32 7L33 7L33 6L34 6L34 7L35 7L35 9L37 9L37 10L38 10L38 9L37 9L37 8L36 8L36 7L37 7L37 6L38 6L38 8L39 8L39 6L38 6L38 3ZM17 4L17 5L18 5L18 4ZM25 4L25 8L26 8L26 4ZM27 5L27 8L30 8L30 5ZM36 5L36 6L35 6L35 7L36 7L36 6L37 6L37 5ZM9 6L9 7L10 7L10 6ZM12 6L12 7L13 7L13 9L12 9L12 8L11 8L11 9L12 9L12 10L13 10L13 11L12 11L12 12L13 12L13 13L15 13L15 15L14 15L14 14L13 14L13 15L12 15L12 17L11 17L11 16L9 16L9 18L6 18L6 17L8 17L8 16L6 16L6 17L4 17L4 19L5 19L5 18L6 18L6 19L7 19L7 20L6 20L6 21L8 21L8 20L9 20L9 23L10 23L10 25L12 25L12 24L13 24L13 25L14 25L14 24L15 24L15 23L16 23L16 25L18 25L18 26L17 26L17 27L18 27L18 26L20 26L20 25L21 25L21 24L20 24L20 25L19 25L19 23L20 23L20 22L19 22L19 23L17 23L17 22L18 22L18 21L20 21L20 20L19 20L19 18L18 18L18 19L17 19L17 18L16 18L16 17L19 17L19 16L20 16L20 17L21 17L21 18L20 18L20 19L21 19L21 21L22 21L22 22L21 22L21 23L22 23L22 24L23 24L23 27L26 27L26 30L25 30L25 29L24 29L24 28L23 28L23 29L24 29L24 31L27 31L27 33L29 33L29 34L30 34L30 35L29 35L29 39L31 39L31 38L32 38L32 35L31 35L31 33L32 33L32 34L34 34L34 35L33 35L33 36L35 36L35 34L34 34L34 33L35 33L35 32L36 32L36 35L37 35L37 34L38 34L38 35L40 35L40 36L36 36L36 38L37 38L37 39L35 39L35 38L34 38L34 37L33 37L33 38L34 38L34 39L32 39L32 40L34 40L34 39L35 39L35 41L37 41L37 42L36 42L36 43L35 43L35 42L34 42L34 41L33 41L33 42L34 42L34 43L35 43L35 44L36 44L36 43L38 43L38 41L39 41L39 44L38 44L38 45L39 45L39 44L43 44L43 45L42 45L42 46L43 46L43 45L44 45L44 44L43 44L43 43L42 43L42 42L44 42L44 39L43 39L43 37L44 37L44 38L45 38L45 40L46 40L46 41L47 41L47 39L46 39L46 38L45 38L45 37L44 37L44 34L43 34L43 32L45 32L45 34L46 34L46 35L45 35L45 36L46 36L46 37L47 37L47 36L48 36L48 37L50 37L50 38L48 38L48 39L50 39L50 40L51 40L51 39L50 39L50 38L51 38L51 37L52 37L52 36L51 36L51 35L49 35L49 36L48 36L48 33L47 33L47 34L46 34L46 32L45 32L45 30L46 30L46 31L47 31L47 32L48 32L48 31L47 31L47 30L46 30L46 29L47 29L47 28L46 28L46 27L47 27L47 26L45 26L45 30L43 30L43 29L42 29L42 30L41 30L41 31L39 31L39 30L37 30L37 29L39 29L39 28L38 28L38 25L39 25L39 24L36 24L36 23L37 23L37 22L38 22L38 20L39 20L39 18L33 18L33 19L32 19L32 17L29 17L29 16L28 16L28 15L29 15L29 14L30 14L30 13L28 13L28 12L30 12L30 11L27 11L27 10L26 10L26 11L27 11L27 12L25 12L25 13L24 13L24 17L23 17L23 18L24 18L24 19L23 19L23 20L24 20L24 21L22 21L22 19L21 19L21 18L22 18L22 17L21 17L21 16L22 16L22 13L21 13L21 14L20 14L20 15L19 15L19 16L17 16L17 15L16 15L16 13L17 13L17 12L16 12L16 9L15 9L15 10L13 10L13 9L14 9L14 8L16 8L16 7L17 7L17 6L16 6L16 7L15 7L15 6L14 6L14 7L13 7L13 6ZM22 6L22 7L23 7L23 6ZM28 6L28 7L29 7L29 6ZM33 8L33 9L34 9L34 8ZM51 8L51 9L52 9L52 8ZM53 8L53 9L54 9L54 8ZM19 9L19 10L20 10L20 9ZM45 9L45 10L46 10L46 9ZM39 10L39 11L40 11L40 12L41 12L41 11L40 11L40 10ZM49 10L49 11L50 11L50 10ZM13 11L13 12L14 12L14 11ZM44 11L44 12L45 12L45 11ZM25 13L25 14L26 14L26 15L25 15L25 16L27 16L27 17L25 17L25 19L26 19L26 20L25 20L25 21L24 21L24 22L22 22L22 23L24 23L24 25L25 25L25 26L26 26L26 25L27 25L27 24L28 24L28 26L29 26L29 24L28 24L28 23L27 23L27 24L25 24L25 23L26 23L26 22L25 22L25 21L26 21L26 20L27 20L27 21L28 21L28 22L30 22L30 24L31 24L31 22L30 22L30 21L31 21L31 20L30 20L30 19L31 19L31 18L29 18L29 20L28 20L28 18L27 18L27 17L28 17L28 16L27 16L27 14L28 14L28 13ZM54 14L54 15L55 15L55 14ZM13 15L13 16L14 16L14 17L13 17L13 19L12 19L12 18L11 18L11 17L10 17L10 18L11 18L11 20L10 20L10 19L9 19L9 20L10 20L10 22L11 22L11 23L12 23L12 22L13 22L13 23L14 23L14 22L16 22L16 21L18 21L18 20L17 20L17 19L16 19L16 21L15 21L15 18L14 18L14 17L16 17L16 15L15 15L15 16L14 16L14 15ZM20 15L20 16L21 16L21 15ZM33 16L33 17L37 17L37 16ZM46 16L46 17L47 17L47 16ZM26 18L26 19L27 19L27 18ZM45 18L45 19L43 19L43 20L46 20L46 19L47 19L47 18ZM49 18L49 19L50 19L50 18ZM13 19L13 20L14 20L14 19ZM35 19L35 20L34 20L34 21L33 21L33 20L32 20L32 21L33 21L33 24L32 24L32 25L31 25L31 28L32 28L32 30L31 30L31 31L28 31L28 32L29 32L29 33L30 33L30 32L32 32L32 33L33 33L33 32L32 32L32 30L35 30L35 29L33 29L33 28L34 28L34 27L36 27L36 26L37 26L37 25L36 25L36 26L35 26L35 25L33 25L33 24L35 24L35 23L36 23L36 22L37 22L37 21L36 21L36 20L38 20L38 19ZM40 19L40 20L42 20L42 19ZM56 19L56 20L57 20L57 19ZM11 20L11 22L12 22L12 20ZM13 21L13 22L14 22L14 21ZM49 23L49 24L50 24L50 23ZM32 25L32 26L33 26L33 27L32 27L32 28L33 28L33 27L34 27L34 26L33 26L33 25ZM40 25L40 26L39 26L39 27L40 27L40 26L41 26L41 27L42 27L42 26L41 26L41 25ZM10 26L10 27L12 27L12 28L13 28L13 26ZM21 26L21 27L22 27L22 26ZM5 27L5 30L8 30L8 27ZM19 27L19 28L20 28L20 29L18 29L18 30L20 30L20 29L22 29L22 28L20 28L20 27ZM27 27L27 30L30 30L30 27ZM49 27L49 30L52 30L52 27ZM56 27L56 28L57 28L57 27ZM6 28L6 29L7 29L7 28ZM28 28L28 29L29 29L29 28ZM50 28L50 29L51 29L51 28ZM13 29L13 30L14 30L14 29ZM1 30L1 31L0 31L0 33L1 33L1 34L0 34L0 36L1 36L1 34L3 34L3 30ZM21 30L21 31L22 31L22 30ZM42 30L42 31L43 31L43 30ZM1 31L1 33L2 33L2 31ZM34 31L34 32L35 32L35 31ZM36 31L36 32L37 32L37 33L38 33L38 34L40 34L40 35L41 35L41 36L40 36L40 37L38 37L38 40L39 40L39 41L41 41L41 42L40 42L40 43L41 43L41 42L42 42L42 40L39 40L39 38L40 38L40 39L41 39L41 36L43 36L43 34L40 34L40 33L41 33L41 32L39 32L39 31ZM20 32L20 33L21 33L21 32ZM4 33L4 34L5 34L5 33ZM50 33L50 34L51 34L51 33ZM17 34L17 35L19 35L19 34ZM46 35L46 36L47 36L47 35ZM11 36L11 37L12 37L12 36ZM17 36L17 37L19 37L19 36ZM30 36L30 38L31 38L31 36ZM54 36L54 37L55 37L55 36ZM27 37L27 38L28 38L28 37ZM18 38L18 39L19 39L19 38ZM54 38L54 39L55 39L55 38ZM2 39L2 40L3 40L3 39ZM6 39L6 40L7 40L7 39ZM27 39L27 40L28 40L28 39ZM6 41L6 42L7 42L7 41ZM1 43L1 47L2 47L2 43ZM9 44L9 47L10 47L10 45L11 45L11 46L12 46L12 44ZM17 44L17 45L16 45L16 46L17 46L17 47L16 47L16 48L17 48L17 47L18 47L18 46L17 46L17 45L18 45L18 44ZM25 44L25 45L24 45L24 46L25 46L25 45L26 45L26 44ZM28 44L28 45L27 45L27 46L28 46L28 45L29 45L29 44ZM5 45L5 46L3 46L3 47L5 47L5 46L7 46L7 45ZM21 45L21 46L20 46L20 47L21 47L21 48L23 48L23 47L22 47L22 45ZM40 45L40 46L41 46L41 45ZM54 45L54 46L55 46L55 45ZM6 48L6 49L7 49L7 48ZM11 48L11 49L12 49L12 48ZM21 49L21 50L22 50L22 49ZM27 49L27 52L30 52L30 49ZM49 49L49 52L52 52L52 49ZM16 50L16 51L17 51L17 50ZM28 50L28 51L29 51L29 50ZM34 50L34 51L35 51L35 52L36 52L36 53L37 53L37 52L36 52L36 51L35 51L35 50ZM50 50L50 51L51 51L51 50ZM53 50L53 51L54 51L54 50ZM22 51L22 52L23 52L23 51ZM56 51L56 52L57 52L57 51ZM9 54L9 55L10 55L10 54ZM51 54L51 55L54 55L54 54ZM17 55L17 56L18 56L18 55ZM0 0L0 7L7 7L7 0ZM1 1L1 6L6 6L6 1ZM2 2L2 5L5 5L5 2ZM50 0L50 7L57 7L57 0ZM51 1L51 6L56 6L56 1ZM52 2L52 5L55 5L55 2ZM0 50L0 57L7 57L7 50ZM1 51L1 56L6 56L6 51ZM2 52L2 55L5 55L5 52Z" fill="#000000"/></g></g></svg>
