<?xml version="1.0" encoding="UTF-8"?>
<svg xmlns="http://www.w3.org/2000/svg" version="1.1" width="300" height="300" viewBox="0 0 300 300"><rect x="0" y="0" width="300" height="300" fill="#ffffff"/><g transform="scale(4.918)"><g transform="translate(2,2)"><path fill-rule="evenodd" d="M10 0L10 2L9 2L9 1L8 1L8 2L9 2L9 3L8 3L8 4L9 4L9 5L8 5L8 7L9 7L9 5L10 5L10 8L11 8L11 6L12 6L12 9L14 9L14 8L16 8L16 9L15 9L15 10L12 10L12 11L10 11L10 10L9 10L9 12L8 12L8 13L9 13L9 14L8 14L8 15L11 15L11 16L6 16L6 15L7 15L7 14L6 14L6 15L5 15L5 17L4 17L4 18L5 18L5 19L7 19L7 20L6 20L6 21L7 21L7 20L9 20L9 21L8 21L8 22L4 22L4 23L3 23L3 20L1 20L1 18L2 18L2 19L3 19L3 17L0 17L0 20L1 20L1 21L0 21L0 23L1 23L1 24L2 24L2 25L3 25L3 24L4 24L4 25L5 25L5 26L4 26L4 27L2 27L2 28L1 28L1 29L0 29L0 30L1 30L1 29L2 29L2 32L1 32L1 33L0 33L0 34L1 34L1 35L0 35L0 37L1 37L1 38L0 38L0 39L1 39L1 40L3 40L3 42L1 42L1 41L0 41L0 42L1 42L1 45L3 45L3 46L2 46L2 47L1 47L1 46L0 46L0 48L5 48L5 47L9 47L9 46L11 46L11 47L12 47L12 50L13 50L13 51L12 51L12 52L13 52L13 53L14 53L14 56L13 56L13 54L11 54L11 56L13 56L13 57L16 57L16 56L17 56L17 57L20 57L20 56L19 56L19 55L20 55L20 54L17 54L17 53L20 53L20 52L21 52L21 53L22 53L22 56L23 56L23 57L24 57L24 55L23 55L23 54L24 54L24 53L25 53L25 54L26 54L26 56L28 56L28 55L27 55L27 53L28 53L28 54L30 54L30 53L31 53L31 55L35 55L35 57L37 57L37 56L41 56L41 57L44 57L44 56L46 56L46 57L47 57L47 55L49 55L49 53L50 53L50 55L51 55L51 56L50 56L50 57L52 57L52 56L53 56L53 57L56 57L56 56L55 56L55 54L54 54L54 52L55 52L55 50L57 50L57 49L53 49L53 48L57 48L57 47L56 47L56 46L57 46L57 45L56 45L56 46L55 46L55 45L54 45L54 44L57 44L57 43L56 43L56 42L57 42L57 41L55 41L55 39L57 39L57 37L56 37L56 36L55 36L55 34L57 34L57 32L56 32L56 30L57 30L57 29L56 29L56 26L57 26L57 25L56 25L56 22L57 22L57 21L54 21L54 22L53 22L53 21L51 21L51 22L50 22L50 19L49 19L49 18L50 18L50 17L48 17L48 16L47 16L47 18L46 18L46 17L44 17L44 18L46 18L46 19L47 19L47 20L48 20L48 21L47 21L47 23L46 23L46 22L45 22L45 21L44 21L44 23L42 23L42 24L41 24L41 25L40 25L40 26L39 26L39 27L40 27L40 28L39 28L39 30L37 30L37 28L38 28L38 27L37 27L37 26L38 26L38 25L39 25L39 24L40 24L40 22L43 22L43 21L42 21L42 19L40 19L40 20L39 20L39 24L38 24L38 25L37 25L37 22L38 22L38 21L37 21L37 20L38 20L38 19L39 19L39 18L38 18L38 17L39 17L39 16L41 16L41 15L42 15L42 17L41 17L41 18L43 18L43 16L46 16L46 15L49 15L49 13L50 13L50 11L52 11L52 12L53 12L53 11L54 11L54 12L55 12L55 13L53 13L53 15L52 15L52 16L51 16L51 17L52 17L52 19L51 19L51 20L55 20L55 19L53 19L53 18L54 18L54 16L55 16L55 18L57 18L57 17L56 17L56 16L57 16L57 15L56 15L56 14L57 14L57 12L56 12L56 10L57 10L57 9L56 9L56 8L55 8L55 11L54 11L54 10L53 10L53 9L54 9L54 8L53 8L53 9L52 9L52 8L51 8L51 9L52 9L52 10L49 10L49 9L50 9L50 8L49 8L49 6L48 6L48 7L47 7L47 5L48 5L48 0L45 0L45 1L44 1L44 2L42 2L42 1L43 1L43 0L42 0L42 1L41 1L41 0L39 0L39 1L37 1L37 0L36 0L36 1L32 1L32 2L31 2L31 3L30 3L30 2L29 2L29 1L31 1L31 0L29 0L29 1L28 1L28 0L27 0L27 2L28 2L28 3L27 3L27 4L26 4L26 3L23 3L23 4L19 4L19 3L22 3L22 2L25 2L25 1L26 1L26 0L24 0L24 1L23 1L23 0L21 0L21 2L19 2L19 1L18 1L18 2L19 2L19 3L17 3L17 1L16 1L16 0L14 0L14 1L15 1L15 2L14 2L14 3L13 3L13 2L12 2L12 3L13 3L13 5L10 5L10 4L11 4L11 1L12 1L12 0ZM40 1L40 2L41 2L41 3L40 3L40 5L41 5L41 8L40 8L40 6L39 6L39 7L38 7L38 6L37 6L37 5L39 5L39 4L37 4L37 5L36 5L36 3L37 3L37 2L35 2L35 4L34 4L34 3L32 3L32 4L31 4L31 9L32 9L32 10L34 10L34 12L35 12L35 13L33 13L33 11L31 11L31 12L30 12L30 10L29 10L29 9L28 9L28 11L29 11L29 12L28 12L28 13L27 13L27 14L26 14L26 13L25 13L25 12L27 12L27 11L26 11L26 10L27 10L27 9L25 9L25 8L26 8L26 4L25 4L25 8L24 8L24 6L23 6L23 5L24 5L24 4L23 4L23 5L22 5L22 6L21 6L21 8L22 8L22 9L19 9L19 12L21 12L21 13L19 13L19 15L18 15L18 14L17 14L17 13L18 13L18 12L17 12L17 11L18 11L18 9L16 9L16 10L17 10L17 11L16 11L16 12L17 12L17 13L16 13L16 15L15 15L15 13L13 13L13 15L15 15L15 16L14 16L14 18L13 18L13 17L12 17L12 16L11 16L11 17L12 17L12 18L11 18L11 19L10 19L10 18L8 18L8 17L6 17L6 18L7 18L7 19L9 19L9 20L11 20L11 19L12 19L12 20L13 20L13 21L11 21L11 23L10 23L10 21L9 21L9 23L8 23L8 24L7 24L7 23L4 23L4 24L7 24L7 25L6 25L6 26L7 26L7 25L8 25L8 26L9 26L9 27L10 27L10 28L9 28L9 29L10 29L10 30L9 30L9 31L11 31L11 32L13 32L13 33L9 33L9 36L10 36L10 34L12 34L12 37L11 37L11 38L12 38L12 37L13 37L13 34L15 34L15 33L14 33L14 30L15 30L15 28L13 28L13 26L11 26L11 25L12 25L12 24L13 24L13 23L15 23L15 24L14 24L14 25L15 25L15 26L18 26L18 27L17 27L17 28L18 28L18 29L16 29L16 30L17 30L17 31L16 31L16 32L18 32L18 31L20 31L20 32L19 32L19 33L16 33L16 35L17 35L17 36L15 36L15 35L14 35L14 36L15 36L15 37L14 37L14 38L15 38L15 39L16 39L16 40L17 40L17 39L20 39L20 38L19 38L19 37L21 37L21 39L22 39L22 41L23 41L23 40L24 40L24 41L25 41L25 43L23 43L23 45L22 45L22 44L21 44L21 43L22 43L22 42L21 42L21 41L19 41L19 45L20 45L20 46L19 46L19 49L18 49L18 50L17 50L17 49L14 49L14 51L13 51L13 52L14 52L14 53L15 53L15 54L16 54L16 53L17 53L17 51L19 51L19 49L20 49L20 50L21 50L21 51L23 51L23 52L22 52L22 53L24 53L24 51L25 51L25 53L26 53L26 48L25 48L25 50L23 50L23 49L24 49L24 47L26 47L26 46L27 46L27 48L29 48L29 47L28 47L28 46L31 46L31 47L30 47L30 48L31 48L31 49L32 49L32 51L31 51L31 52L32 52L32 54L37 54L37 55L36 55L36 56L37 56L37 55L38 55L38 54L39 54L39 53L38 53L38 50L42 50L42 51L41 51L41 52L40 52L40 51L39 51L39 52L40 52L40 55L41 55L41 56L44 56L44 55L45 55L45 54L46 54L46 55L47 55L47 54L48 54L48 52L45 52L45 50L47 50L47 51L48 51L48 48L50 48L50 47L51 47L51 48L53 48L53 47L55 47L55 46L54 46L54 45L52 45L52 44L53 44L53 43L54 43L54 40L53 40L53 41L52 41L52 39L55 39L55 36L54 36L54 38L53 38L53 37L52 37L52 39L51 39L51 38L50 38L50 37L51 37L51 36L52 36L52 34L54 34L54 33L56 33L56 32L53 32L53 31L54 31L54 29L55 29L55 30L56 30L56 29L55 29L55 28L54 28L54 29L53 29L53 31L51 31L51 32L49 32L49 31L48 31L48 28L47 28L47 27L48 27L48 26L47 26L47 25L49 25L49 26L51 26L51 25L53 25L53 27L55 27L55 26L56 26L56 25L55 25L55 26L54 26L54 24L51 24L51 23L50 23L50 22L49 22L49 23L48 23L48 24L46 24L46 25L45 25L45 24L44 24L44 27L43 27L43 28L42 28L42 27L41 27L41 26L40 26L40 27L41 27L41 28L40 28L40 30L42 30L42 31L43 31L43 32L44 32L44 34L42 34L42 33L41 33L41 32L39 32L39 31L36 31L36 32L35 32L35 31L33 31L33 32L32 32L32 30L36 30L36 29L33 29L33 28L34 28L34 27L36 27L36 26L35 26L35 25L34 25L34 24L31 24L31 25L33 25L33 26L31 26L31 27L33 27L33 28L31 28L31 31L30 31L30 33L31 33L31 35L32 35L32 38L31 38L31 36L30 36L30 34L29 34L29 33L27 33L27 32L29 32L29 31L25 31L25 30L26 30L26 27L24 27L24 26L23 26L23 24L21 24L21 23L24 23L24 24L25 24L25 26L26 26L26 25L27 25L27 24L28 24L28 25L29 25L29 24L30 24L30 23L31 23L31 22L27 22L27 24L25 24L25 23L26 23L26 22L25 22L25 21L24 21L24 20L22 20L22 21L21 21L21 19L20 19L20 18L21 18L21 17L22 17L22 19L24 19L24 18L23 18L23 17L24 17L24 16L23 16L23 15L24 15L24 13L25 13L25 14L26 14L26 15L25 15L25 16L27 16L27 17L28 17L28 16L29 16L29 17L32 17L32 19L33 19L33 18L35 18L35 20L34 20L34 21L33 21L33 20L32 20L32 21L33 21L33 22L34 22L34 23L35 23L35 24L36 24L36 22L37 22L37 21L36 21L36 20L37 20L37 19L38 19L38 18L35 18L35 17L36 17L36 16L37 16L37 17L38 17L38 16L39 16L39 15L41 15L41 14L42 14L42 15L43 15L43 14L42 14L42 10L40 10L40 12L38 12L38 13L37 13L37 14L39 14L39 15L38 15L38 16L37 16L37 15L36 15L36 16L35 16L35 15L33 15L33 14L35 14L35 13L36 13L36 12L37 12L37 11L38 11L38 10L39 10L39 9L43 9L43 10L44 10L44 11L43 11L43 12L44 12L44 13L45 13L45 12L46 12L46 14L47 14L47 13L49 13L49 12L48 12L48 11L46 11L46 10L48 10L48 9L49 9L49 8L48 8L48 9L47 9L47 7L46 7L46 5L47 5L47 3L42 3L42 2L41 2L41 1ZM45 1L45 2L47 2L47 1ZM38 2L38 3L39 3L39 2ZM14 3L14 4L16 4L16 5L14 5L14 6L13 6L13 7L14 7L14 6L15 6L15 7L16 7L16 8L19 8L19 7L20 7L20 5L19 5L19 4L17 4L17 3ZM28 3L28 4L30 4L30 3ZM41 3L41 5L42 5L42 8L43 8L43 9L44 9L44 7L45 7L45 9L46 9L46 7L45 7L45 6L44 6L44 7L43 7L43 4L42 4L42 3ZM44 4L44 5L46 5L46 4ZM18 5L18 7L19 7L19 5ZM27 5L27 8L30 8L30 5ZM33 5L33 6L32 6L32 8L36 8L36 10L35 10L35 11L37 11L37 10L38 10L38 9L39 9L39 8L38 8L38 9L37 9L37 8L36 8L36 7L37 7L37 6L36 6L36 5L35 5L35 6L34 6L34 5ZM16 6L16 7L17 7L17 6ZM22 6L22 8L23 8L23 6ZM28 6L28 7L29 7L29 6ZM33 6L33 7L34 7L34 6ZM35 6L35 7L36 7L36 6ZM0 8L0 9L1 9L1 10L0 10L0 13L2 13L2 14L5 14L5 12L4 12L4 11L8 11L8 9L9 9L9 8L6 8L6 9L7 9L7 10L3 10L3 9L5 9L5 8ZM22 9L22 11L21 11L21 10L20 10L20 11L21 11L21 12L22 12L22 13L21 13L21 16L20 16L20 15L19 15L19 16L17 16L17 15L16 15L16 17L15 17L15 21L16 21L16 22L15 22L15 23L16 23L16 24L15 24L15 25L16 25L16 24L17 24L17 25L19 25L19 29L18 29L18 30L19 30L19 29L22 29L22 28L20 28L20 25L21 25L21 24L19 24L19 23L20 23L20 22L18 22L18 23L17 23L17 21L20 21L20 20L17 20L17 21L16 21L16 19L17 19L17 18L16 18L16 17L19 17L19 16L20 16L20 17L21 17L21 16L22 16L22 13L24 13L24 12L23 12L23 10L25 10L25 9ZM2 10L2 11L3 11L3 10ZM52 10L52 11L53 11L53 10ZM13 11L13 12L14 12L14 11ZM44 11L44 12L45 12L45 11ZM6 12L6 13L7 13L7 12ZM9 12L9 13L10 13L10 14L11 14L11 15L12 15L12 14L11 14L11 12ZM31 12L31 13L28 13L28 14L27 14L27 16L28 16L28 15L30 15L30 16L33 16L33 15L30 15L30 14L32 14L32 12ZM40 13L40 14L41 14L41 13ZM51 13L51 14L50 14L50 15L51 15L51 14L52 14L52 13ZM55 13L55 14L56 14L56 13ZM0 14L0 16L4 16L4 15L1 15L1 14ZM53 15L53 16L52 16L52 17L53 17L53 16L54 16L54 15ZM25 17L25 20L27 20L27 21L29 21L29 20L27 20L27 19L28 19L28 18L27 18L27 19L26 19L26 17ZM18 18L18 19L19 19L19 18ZM29 18L29 19L31 19L31 18ZM13 19L13 20L14 20L14 19ZM43 19L43 20L45 20L45 19ZM40 20L40 21L41 21L41 20ZM13 21L13 22L14 22L14 21ZM22 21L22 22L24 22L24 21ZM1 22L1 23L2 23L2 24L3 24L3 23L2 23L2 22ZM52 22L52 23L53 23L53 22ZM54 22L54 23L55 23L55 22ZM9 23L9 24L8 24L8 25L9 25L9 26L10 26L10 27L11 27L11 26L10 26L10 25L11 25L11 24L10 24L10 23ZM28 23L28 24L29 24L29 23ZM42 24L42 25L43 25L43 24ZM49 24L49 25L50 25L50 24ZM0 25L0 27L1 27L1 25ZM21 26L21 27L22 27L22 26ZM46 26L46 27L44 27L44 28L43 28L43 29L42 29L42 30L43 30L43 31L44 31L44 32L46 32L46 31L47 31L47 32L48 32L48 31L47 31L47 30L46 30L46 29L47 29L47 28L46 28L46 27L47 27L47 26ZM5 27L5 30L8 30L8 27ZM27 27L27 30L30 30L30 27ZM49 27L49 30L52 30L52 27ZM2 28L2 29L3 29L3 31L4 31L4 28ZM6 28L6 29L7 29L7 28ZM12 28L12 30L13 30L13 28ZM23 28L23 29L24 29L24 30L25 30L25 29L24 29L24 28ZM28 28L28 29L29 29L29 28ZM44 28L44 31L46 31L46 30L45 30L45 28ZM50 28L50 29L51 29L51 28ZM21 30L21 31L22 31L22 30ZM5 31L5 33L3 33L3 36L2 36L2 35L1 35L1 36L2 36L2 37L3 37L3 38L4 38L4 37L5 37L5 39L6 39L6 40L7 40L7 39L9 39L9 40L8 40L8 42L7 42L7 41L4 41L4 42L3 42L3 43L2 43L2 44L3 44L3 43L4 43L4 44L5 44L5 45L4 45L4 46L3 46L3 47L5 47L5 46L8 46L8 45L9 45L9 44L10 44L10 45L12 45L12 47L13 47L13 48L14 48L14 47L15 47L15 48L17 48L17 47L18 47L18 46L17 46L17 45L18 45L18 44L17 44L17 43L18 43L18 41L15 41L15 40L14 40L14 39L12 39L12 40L14 40L14 41L13 41L13 43L12 43L12 42L11 42L11 41L9 41L9 40L10 40L10 39L9 39L9 37L8 37L8 34L7 34L7 33L8 33L8 32L7 32L7 31ZM23 31L23 35L22 35L22 33L21 33L21 32L20 32L20 33L21 33L21 34L20 34L20 35L19 35L19 34L18 34L18 35L19 35L19 36L18 36L18 37L17 37L17 38L18 38L18 37L19 37L19 36L21 36L21 37L22 37L22 39L24 39L24 40L25 40L25 37L27 37L27 38L26 38L26 40L27 40L27 41L26 41L26 42L27 42L27 41L29 41L29 42L28 42L28 43L26 43L26 44L25 44L25 45L23 45L23 47L22 47L22 45L21 45L21 44L20 44L20 45L21 45L21 47L20 47L20 48L23 48L23 47L24 47L24 46L25 46L25 45L26 45L26 44L27 44L27 45L31 45L31 46L32 46L32 44L30 44L30 43L32 43L32 42L33 42L33 41L35 41L35 46L33 46L33 47L31 47L31 48L33 48L33 50L34 50L34 53L37 53L37 54L38 54L38 53L37 53L37 50L38 50L38 47L39 47L39 46L37 46L37 48L36 48L36 47L35 47L35 46L36 46L36 45L38 45L38 44L39 44L39 43L40 43L40 44L43 44L43 45L42 45L42 46L41 46L41 45L40 45L40 46L41 46L41 47L40 47L40 48L39 48L39 49L40 49L40 48L41 48L41 49L42 49L42 50L43 50L43 51L42 51L42 52L41 52L41 53L42 53L42 54L41 54L41 55L42 55L42 54L43 54L43 53L44 53L44 54L45 54L45 53L44 53L44 48L45 48L45 49L46 49L46 48L45 48L45 47L47 47L47 46L46 46L46 45L47 45L47 44L48 44L48 43L49 43L49 45L48 45L48 46L49 46L49 47L50 47L50 46L51 46L51 47L53 47L53 46L52 46L52 45L50 45L50 44L51 44L51 43L50 43L50 42L51 42L51 41L49 41L49 40L48 40L48 41L47 41L47 42L48 42L48 43L46 43L46 42L45 42L45 41L46 41L46 38L45 38L45 37L44 37L44 35L42 35L42 34L41 34L41 33L40 33L40 34L41 34L41 35L40 35L40 36L39 36L39 37L40 37L40 36L41 36L41 39L40 39L40 38L39 38L39 40L38 40L38 41L37 41L37 40L36 40L36 39L37 39L37 38L38 38L38 37L37 37L37 36L38 36L38 35L39 35L39 34L36 34L36 33L37 33L37 32L36 32L36 33L35 33L35 32L33 32L33 34L32 34L32 35L33 35L33 34L34 34L34 35L35 35L35 34L36 34L36 35L37 35L37 36L36 36L36 37L35 37L35 36L33 36L33 37L35 37L35 38L36 38L36 39L34 39L34 38L33 38L33 39L32 39L32 40L28 40L28 39L27 39L27 38L28 38L28 37L27 37L27 35L26 35L26 34L27 34L27 33L26 33L26 32L25 32L25 31ZM6 32L6 33L7 33L7 32ZM31 32L31 33L32 33L32 32ZM38 32L38 33L39 33L39 32ZM51 32L51 33L50 33L50 34L51 34L51 33L53 33L53 32ZM1 33L1 34L2 34L2 33ZM25 33L25 34L24 34L24 36L26 36L26 35L25 35L25 34L26 34L26 33ZM34 33L34 34L35 34L35 33ZM45 33L45 34L46 34L46 35L45 35L45 36L46 36L46 37L47 37L47 36L46 36L46 35L48 35L48 33L47 33L47 34L46 34L46 33ZM4 34L4 35L5 35L5 36L6 36L6 37L7 37L7 38L6 38L6 39L7 39L7 38L8 38L8 37L7 37L7 36L6 36L6 35L7 35L7 34L6 34L6 35L5 35L5 34ZM49 35L49 37L48 37L48 39L50 39L50 40L51 40L51 39L50 39L50 38L49 38L49 37L50 37L50 36L51 36L51 35ZM3 36L3 37L4 37L4 36ZM22 36L22 37L23 37L23 38L24 38L24 37L23 37L23 36ZM29 36L29 39L31 39L31 38L30 38L30 36ZM15 37L15 38L16 38L16 37ZM43 37L43 38L42 38L42 39L41 39L41 40L39 40L39 41L38 41L38 42L37 42L37 43L36 43L36 44L38 44L38 43L39 43L39 41L41 41L41 40L43 40L43 41L45 41L45 40L43 40L43 39L45 39L45 38L44 38L44 37ZM3 39L3 40L4 40L4 39ZM32 40L32 41L33 41L33 40ZM35 40L35 41L36 41L36 40ZM14 41L14 45L13 45L13 47L14 47L14 45L15 45L15 47L16 47L16 45L17 45L17 44L16 44L16 43L15 43L15 41ZM4 42L4 43L5 43L5 44L6 44L6 45L7 45L7 44L9 44L9 42L8 42L8 43L7 43L7 42L6 42L6 43L5 43L5 42ZM20 42L20 43L21 43L21 42ZM29 42L29 43L28 43L28 44L29 44L29 43L30 43L30 42ZM41 42L41 43L43 43L43 44L44 44L44 45L45 45L45 44L44 44L44 42ZM6 43L6 44L7 44L7 43ZM10 43L10 44L11 44L11 43ZM33 43L33 44L34 44L34 43ZM49 45L49 46L50 46L50 45ZM42 46L42 47L41 47L41 48L42 48L42 47L43 47L43 48L44 48L44 47L45 47L45 46L44 46L44 47L43 47L43 46ZM33 47L33 48L35 48L35 49L34 49L34 50L35 50L35 52L36 52L36 50L37 50L37 49L36 49L36 48L35 48L35 47ZM6 48L6 49L7 49L7 48ZM10 48L10 49L8 49L8 51L9 51L9 52L8 52L8 57L10 57L10 55L9 55L9 54L10 54L10 53L11 53L11 48ZM21 49L21 50L22 50L22 49ZM27 49L27 52L30 52L30 49ZM35 49L35 50L36 50L36 49ZM49 49L49 52L52 52L52 49ZM9 50L9 51L10 51L10 50ZM16 50L16 51L15 51L15 53L16 53L16 51L17 51L17 50ZM28 50L28 51L29 51L29 50ZM50 50L50 51L51 51L51 50ZM53 50L53 51L54 51L54 50ZM32 51L32 52L33 52L33 51ZM56 51L56 52L57 52L57 51ZM51 54L51 55L54 55L54 54ZM15 55L15 56L16 56L16 55ZM29 55L29 56L30 56L30 57L32 57L32 56L30 56L30 55ZM33 56L33 57L34 57L34 56ZM0 0L0 7L7 7L7 0ZM1 1L1 6L6 6L6 1ZM2 2L2 5L5 5L5 2ZM50 0L50 7L57 7L57 0ZM51 1L51 6L56 6L56 1ZM52 2L52 5L55 5L55 2ZM0 50L0 57L7 57L7 50ZM1 51L1 56L6 56L6 51ZM2 52L2 55L5 55L5 52Z" fill="#000000"/></g></g></svg>
