<?xml version="1.0" encoding="UTF-8"?>
<svg xmlns="http://www.w3.org/2000/svg" version="1.1" width="300" height="300" viewBox="0 0 300 300"><rect x="0" y="0" width="300" height="300" fill="#ffffff"/><g transform="scale(4.918)"><g transform="translate(2,2)"><path fill-rule="evenodd" d="M10 0L10 1L8 1L8 2L9 2L9 3L8 3L8 4L9 4L9 5L8 5L8 7L9 7L9 8L6 8L6 9L5 9L5 8L0 8L0 9L2 9L2 10L3 10L3 12L2 12L2 11L1 11L1 10L0 10L0 15L2 15L2 18L1 18L1 16L0 16L0 18L1 18L1 20L2 20L2 21L0 21L0 22L2 22L2 23L3 23L3 26L4 26L4 28L2 28L2 26L1 26L1 25L2 25L2 24L1 24L1 23L0 23L0 27L1 27L1 28L0 28L0 29L1 29L1 30L0 30L0 31L1 31L1 32L0 32L0 33L2 33L2 34L3 34L3 33L2 33L2 32L3 32L3 30L4 30L4 33L5 33L5 34L4 34L4 35L8 35L8 36L4 36L4 39L3 39L3 37L1 37L1 35L0 35L0 37L1 37L1 38L2 38L2 39L0 39L0 44L2 44L2 45L0 45L0 48L5 48L5 47L7 47L7 46L6 46L6 45L8 45L8 44L9 44L9 48L10 48L10 49L11 49L11 50L9 50L9 49L8 49L8 51L9 51L9 52L8 52L8 57L9 57L9 54L10 54L10 53L9 53L9 52L11 52L11 53L13 53L13 54L11 54L11 55L10 55L10 56L11 56L11 57L12 57L12 56L11 56L11 55L14 55L14 54L16 54L16 53L13 53L13 51L14 51L14 52L16 52L16 51L17 51L17 52L18 52L18 53L17 53L17 57L19 57L19 56L22 56L22 54L23 54L23 55L24 55L24 56L23 56L23 57L24 57L24 56L25 56L25 57L26 57L26 56L28 56L28 55L25 55L25 53L26 53L26 54L27 54L27 53L28 53L28 54L29 54L29 55L30 55L30 56L29 56L29 57L32 57L32 56L31 56L31 55L33 55L33 56L34 56L34 57L37 57L37 56L38 56L38 57L39 57L39 56L38 56L38 55L40 55L40 56L41 56L41 57L42 57L42 56L43 56L43 57L44 57L44 55L42 55L42 54L43 54L43 53L44 53L44 54L45 54L45 53L44 53L44 50L45 50L45 52L48 52L48 53L47 53L47 54L48 54L48 55L45 55L45 56L47 56L47 57L48 57L48 56L49 56L49 54L48 54L48 53L50 53L50 55L51 55L51 56L50 56L50 57L52 57L52 56L54 56L54 57L56 57L56 56L55 56L55 53L54 53L54 52L55 52L55 50L57 50L57 49L53 49L53 48L57 48L57 47L56 47L56 46L57 46L57 44L56 44L56 42L57 42L57 41L56 41L56 42L55 42L55 41L54 41L54 40L55 40L55 39L57 39L57 37L56 37L56 36L57 36L57 35L56 35L56 36L55 36L55 34L57 34L57 32L56 32L56 30L57 30L57 29L56 29L56 24L55 24L55 23L56 23L56 22L57 22L57 21L56 21L56 19L51 19L51 18L54 18L54 17L52 17L52 16L55 16L55 18L57 18L57 17L56 17L56 16L57 16L57 15L56 15L56 14L57 14L57 13L56 13L56 11L54 11L54 10L53 10L53 11L52 11L52 10L49 10L49 9L50 9L50 8L49 8L49 6L48 6L48 7L47 7L47 5L48 5L48 0L45 0L45 1L47 1L47 2L42 2L42 1L44 1L44 0L42 0L42 1L37 1L37 0L36 0L36 2L37 2L37 3L36 3L36 5L33 5L33 6L32 6L32 7L31 7L31 4L32 4L32 3L33 3L33 2L32 2L32 1L31 1L31 0L30 0L30 1L29 1L29 0L28 0L28 1L26 1L26 0L24 0L24 1L23 1L23 0L21 0L21 1L23 1L23 2L19 2L19 1L18 1L18 2L19 2L19 3L18 3L18 4L16 4L16 3L17 3L17 1L16 1L16 0L14 0L14 1L15 1L15 2L14 2L14 3L10 3L10 1L11 1L11 0ZM33 0L33 1L34 1L34 2L35 2L35 1L34 1L34 0ZM12 1L12 2L13 2L13 1ZM25 1L25 2L23 2L23 3L22 3L22 4L21 4L21 3L20 3L20 4L18 4L18 5L20 5L20 6L19 6L19 8L21 8L21 9L18 9L18 11L16 11L16 12L18 12L18 13L16 13L16 15L15 15L15 16L14 16L14 15L12 15L12 13L14 13L14 14L15 14L15 10L17 10L17 8L18 8L18 6L17 6L17 8L16 8L16 6L15 6L15 8L14 8L14 6L13 6L13 4L12 4L12 5L11 5L11 4L10 4L10 3L9 3L9 4L10 4L10 5L9 5L9 7L10 7L10 8L9 8L9 9L10 9L10 10L11 10L11 11L9 11L9 10L8 10L8 9L6 9L6 10L7 10L7 11L4 11L4 12L7 12L7 13L2 13L2 12L1 12L1 13L2 13L2 14L4 14L4 15L3 15L3 16L5 16L5 18L7 18L7 17L6 17L6 16L7 16L7 15L6 15L6 14L7 14L7 13L8 13L8 12L9 12L9 14L10 14L10 15L8 15L8 17L12 17L12 18L11 18L11 19L10 19L10 20L9 20L9 19L8 19L8 20L9 20L9 21L8 21L8 22L10 22L10 23L6 23L6 22L7 22L7 21L6 21L6 22L5 22L5 20L7 20L7 19L4 19L4 18L2 18L2 19L3 19L3 20L4 20L4 21L2 21L2 22L3 22L3 23L4 23L4 24L5 24L5 25L6 25L6 26L8 26L8 24L9 24L9 25L10 25L10 27L9 27L9 30L10 30L10 31L9 31L9 32L8 32L8 33L9 33L9 34L8 34L8 35L9 35L9 34L11 34L11 37L9 37L9 36L8 36L8 37L6 37L6 38L7 38L7 39L5 39L5 40L7 40L7 41L4 41L4 40L2 40L2 41L3 41L3 42L4 42L4 43L3 43L3 45L2 45L2 46L1 46L1 47L2 47L2 46L3 46L3 47L5 47L5 46L3 46L3 45L4 45L4 43L5 43L5 42L7 42L7 43L6 43L6 44L5 44L5 45L6 45L6 44L7 44L7 43L9 43L9 44L10 44L10 45L11 45L11 47L10 47L10 48L11 48L11 49L12 49L12 50L14 50L14 51L16 51L16 50L17 50L17 51L18 51L18 50L19 50L19 49L20 49L20 50L21 50L21 51L22 51L22 53L21 53L21 52L19 52L19 53L18 53L18 54L19 54L19 55L18 55L18 56L19 56L19 55L20 55L20 54L19 54L19 53L21 53L21 54L22 54L22 53L23 53L23 54L24 54L24 53L23 53L23 52L24 52L24 51L25 51L25 52L26 52L26 49L25 49L25 50L23 50L23 49L24 49L24 47L25 47L25 48L26 48L26 46L27 46L27 47L29 47L29 46L31 46L31 48L32 48L32 49L34 49L34 50L31 50L31 52L32 52L32 54L33 54L33 55L34 55L34 56L36 56L36 55L35 55L35 54L37 54L37 55L38 55L38 54L39 54L39 53L38 53L38 54L37 54L37 53L36 53L36 52L37 52L37 51L36 51L36 50L40 50L40 51L38 51L38 52L40 52L40 55L41 55L41 56L42 56L42 55L41 55L41 53L42 53L42 52L40 52L40 51L43 51L43 50L44 50L44 49L45 49L45 50L47 50L47 51L48 51L48 48L49 48L49 47L52 47L52 48L53 48L53 46L54 46L54 47L55 47L55 46L56 46L56 44L54 44L54 45L52 45L52 44L53 44L53 43L54 43L54 41L52 41L52 39L53 39L53 37L52 37L52 34L54 34L54 33L56 33L56 32L53 32L53 31L52 31L52 32L53 32L53 33L51 33L51 32L49 32L49 31L48 31L48 29L46 29L46 30L42 30L42 29L43 29L43 28L42 28L42 27L41 27L41 28L40 28L40 26L41 26L41 24L42 24L42 25L43 25L43 26L44 26L44 27L46 27L46 28L48 28L48 27L46 27L46 26L48 26L48 25L49 25L49 26L52 26L52 25L53 25L53 27L55 27L55 26L54 26L54 24L52 24L52 23L53 23L53 22L54 22L54 21L55 21L55 20L51 20L51 19L50 19L50 22L49 22L49 23L48 23L48 25L47 25L47 24L44 24L44 25L43 25L43 23L44 23L44 21L45 21L45 22L46 22L46 23L47 23L47 21L48 21L48 19L49 19L49 18L51 18L51 16L52 16L52 15L53 15L53 14L56 14L56 13L55 13L55 12L54 12L54 11L53 11L53 12L52 12L52 11L50 11L50 13L49 13L49 12L48 12L48 9L49 9L49 8L48 8L48 9L47 9L47 7L46 7L46 5L47 5L47 3L40 3L40 5L42 5L42 6L41 6L41 7L40 7L40 6L39 6L39 7L38 7L38 5L39 5L39 4L38 4L38 3L39 3L39 2L38 2L38 3L37 3L37 4L38 4L38 5L36 5L36 6L35 6L35 9L34 9L34 6L33 6L33 8L32 8L32 9L31 9L31 11L30 11L30 12L31 12L31 11L34 11L34 12L37 12L37 11L38 11L38 10L39 10L39 12L38 12L38 14L37 14L37 13L36 13L36 14L37 14L37 15L36 15L36 16L35 16L35 15L34 15L34 16L32 16L32 15L33 15L33 14L35 14L35 13L33 13L33 12L32 12L32 13L33 13L33 14L31 14L31 16L30 16L30 13L29 13L29 12L28 12L28 13L26 13L26 15L25 15L25 16L28 16L28 17L26 17L26 20L25 20L25 22L26 22L26 23L25 23L25 24L26 24L26 25L25 25L25 26L26 26L26 25L27 25L27 24L28 24L28 26L29 26L29 25L30 25L30 24L28 24L28 23L29 23L29 22L30 22L30 23L31 23L31 25L32 25L32 26L33 26L33 28L32 28L32 29L31 29L31 30L32 30L32 29L33 29L33 30L35 30L35 31L34 31L34 32L32 32L32 31L25 31L25 30L26 30L26 27L24 27L24 26L23 26L23 29L22 29L22 28L21 28L21 27L22 27L22 26L21 26L21 24L20 24L20 27L19 27L19 28L21 28L21 29L19 29L19 30L17 30L17 29L18 29L18 28L17 28L17 27L18 27L18 25L15 25L15 23L16 23L16 24L17 24L17 22L19 22L19 23L18 23L18 24L19 24L19 23L20 23L20 22L19 22L19 21L21 21L21 23L23 23L23 24L22 24L22 25L23 25L23 24L24 24L24 23L23 23L23 22L24 22L24 21L23 21L23 19L24 19L24 18L23 18L23 17L24 17L24 16L23 16L23 15L24 15L24 13L25 13L25 12L27 12L27 11L26 11L26 10L28 10L28 11L29 11L29 9L26 9L26 6L25 6L25 4L26 4L26 3L25 3L25 2L26 2L26 1ZM30 1L30 2L29 2L29 3L28 3L28 2L27 2L27 3L28 3L28 4L29 4L29 3L31 3L31 1ZM14 3L14 4L15 4L15 5L16 5L16 4L15 4L15 3ZM24 3L24 4L22 4L22 5L21 5L21 6L20 6L20 7L21 7L21 6L22 6L22 7L23 7L23 10L25 10L25 8L24 8L24 7L25 7L25 6L24 6L24 7L23 7L23 6L22 6L22 5L24 5L24 4L25 4L25 3ZM34 3L34 4L35 4L35 3ZM42 4L42 5L43 5L43 4ZM44 4L44 5L46 5L46 4ZM10 5L10 7L11 7L11 5ZM27 5L27 8L30 8L30 5ZM12 6L12 11L11 11L11 12L10 12L10 13L12 13L12 12L14 12L14 11L13 11L13 9L14 9L14 10L15 10L15 9L16 9L16 8L15 8L15 9L14 9L14 8L13 8L13 6ZM28 6L28 7L29 7L29 6ZM36 6L36 7L37 7L37 8L36 8L36 10L34 10L34 11L36 11L36 10L38 10L38 9L39 9L39 8L40 8L40 7L39 7L39 8L38 8L38 7L37 7L37 6ZM42 6L42 7L41 7L41 8L42 8L42 9L40 9L40 10L42 10L42 14L41 14L41 13L39 13L39 15L40 15L40 16L39 16L39 18L38 18L38 15L37 15L37 16L36 16L36 19L37 19L37 20L36 20L36 21L37 21L37 22L36 22L36 23L35 23L35 22L34 22L34 20L33 20L33 19L32 19L32 18L34 18L34 19L35 19L35 18L34 18L34 17L32 17L32 16L31 16L31 17L29 17L29 18L31 18L31 19L30 19L30 20L29 20L29 19L28 19L28 18L27 18L27 21L28 21L28 22L29 22L29 21L30 21L30 22L31 22L31 23L32 23L32 24L33 24L33 25L36 25L36 26L35 26L35 27L34 27L34 28L33 28L33 29L35 29L35 30L36 30L36 31L35 31L35 32L34 32L34 33L35 33L35 32L36 32L36 33L37 33L37 32L38 32L38 31L40 31L40 32L39 32L39 34L36 34L36 35L37 35L37 36L36 36L36 37L35 37L35 34L33 34L33 36L34 36L34 37L35 37L35 38L37 38L37 39L36 39L36 40L35 40L35 41L37 41L37 42L36 42L36 43L35 43L35 42L34 42L34 43L32 43L32 41L31 41L31 40L33 40L33 41L34 41L34 39L31 39L31 38L32 38L32 32L31 32L31 35L30 35L30 34L29 34L29 35L30 35L30 36L29 36L29 37L28 37L28 36L27 36L27 35L26 35L26 34L25 34L25 31L24 31L24 30L25 30L25 29L23 29L23 31L24 31L24 32L23 32L23 35L21 35L21 34L22 34L22 33L21 33L21 32L20 32L20 31L18 31L18 32L16 32L16 31L17 31L17 30L16 30L16 29L17 29L17 28L13 28L13 27L14 27L14 23L15 23L15 22L16 22L16 21L15 21L15 20L16 20L16 19L17 19L17 21L19 21L19 20L18 20L18 19L19 19L19 18L16 18L16 17L19 17L19 16L17 16L17 15L16 15L16 17L15 17L15 18L14 18L14 16L13 16L13 18L12 18L12 19L11 19L11 20L10 20L10 21L15 21L15 22L14 22L14 23L13 23L13 22L12 22L12 28L13 28L13 29L12 29L12 30L14 30L14 31L11 31L11 33L12 33L12 34L13 34L13 35L14 35L14 36L15 36L15 37L13 37L13 36L12 36L12 37L13 37L13 38L15 38L15 39L16 39L16 41L19 41L19 42L20 42L20 43L19 43L19 44L20 44L20 45L18 45L18 44L15 44L15 49L17 49L17 50L18 50L18 49L19 49L19 48L20 48L20 45L22 45L22 44L20 44L20 43L22 43L22 42L23 42L23 41L24 41L24 42L26 42L26 43L27 43L27 45L31 45L31 46L32 46L32 48L33 48L33 47L35 47L35 48L36 48L36 49L35 49L35 50L34 50L34 51L32 51L32 52L33 52L33 53L34 53L34 51L35 51L35 52L36 52L36 51L35 51L35 50L36 50L36 49L38 49L38 48L36 48L36 47L37 47L37 46L38 46L38 45L37 45L37 44L38 44L38 43L39 43L39 44L43 44L43 45L42 45L42 46L41 46L41 47L40 47L40 45L39 45L39 48L41 48L41 49L40 49L40 50L43 50L43 49L44 49L44 48L45 48L45 47L48 47L48 46L49 46L49 45L50 45L50 46L52 46L52 45L50 45L50 44L51 44L51 43L50 43L50 42L51 42L51 41L49 41L49 40L48 40L48 41L47 41L47 42L48 42L48 43L45 43L45 47L44 47L44 48L43 48L43 47L42 47L42 46L44 46L44 44L43 44L43 43L42 43L42 42L43 42L43 41L44 41L44 39L43 39L43 37L44 37L44 38L45 38L45 39L46 39L46 38L45 38L45 37L44 37L44 35L42 35L42 34L45 34L45 36L46 36L46 37L47 37L47 36L48 36L48 33L47 33L47 32L48 32L48 31L47 31L47 30L46 30L46 31L44 31L44 32L43 32L43 31L42 31L42 30L37 30L37 29L38 29L38 27L39 27L39 26L40 26L40 25L39 25L39 24L40 24L40 22L42 22L42 23L43 23L43 20L45 20L45 19L44 19L44 17L43 17L43 16L45 16L45 18L46 18L46 19L48 19L48 18L49 18L49 17L50 17L50 16L48 16L48 17L47 17L47 16L45 16L45 15L49 15L49 13L47 13L47 14L46 14L46 12L45 12L45 11L43 11L43 10L46 10L46 11L47 11L47 10L46 10L46 9L44 9L44 8L45 8L45 6L44 6L44 8L42 8L42 7L43 7L43 6ZM51 8L51 9L52 9L52 8ZM53 8L53 9L54 9L54 8ZM55 8L55 10L57 10L57 9L56 9L56 8ZM3 9L3 10L5 10L5 9ZM32 9L32 10L33 10L33 9ZM19 10L19 11L20 11L20 10ZM21 10L21 11L22 11L22 10ZM40 11L40 12L41 12L41 11ZM20 12L20 13L18 13L18 15L19 15L19 14L20 14L20 13L22 13L22 12ZM23 12L23 13L24 13L24 12ZM44 12L44 13L43 13L43 14L42 14L42 15L41 15L41 14L40 14L40 15L41 15L41 16L40 16L40 19L38 19L38 18L37 18L37 19L38 19L38 22L37 22L37 25L38 25L38 26L37 26L37 27L36 27L36 28L35 28L35 29L36 29L36 28L37 28L37 27L38 27L38 26L39 26L39 25L38 25L38 22L39 22L39 20L40 20L40 21L42 21L42 20L43 20L43 18L41 18L41 17L42 17L42 16L43 16L43 15L44 15L44 14L45 14L45 12ZM28 13L28 14L27 14L27 15L29 15L29 13ZM51 13L51 14L50 14L50 15L51 15L51 14L52 14L52 13ZM21 14L21 16L20 16L20 17L21 17L21 18L20 18L20 19L21 19L21 21L22 21L22 22L23 22L23 21L22 21L22 19L21 19L21 18L22 18L22 17L21 17L21 16L22 16L22 14ZM11 15L11 16L12 16L12 15ZM31 17L31 18L32 18L32 17ZM46 17L46 18L47 18L47 17ZM13 19L13 20L14 20L14 19ZM40 19L40 20L41 20L41 19ZM28 20L28 21L29 21L29 20ZM32 20L32 21L33 21L33 20ZM51 21L51 22L50 22L50 23L49 23L49 25L52 25L52 24L50 24L50 23L52 23L52 22L53 22L53 21ZM5 23L5 24L6 24L6 25L7 25L7 24L6 24L6 23ZM10 23L10 24L11 24L11 23ZM34 23L34 24L35 24L35 23ZM44 25L44 26L46 26L46 25ZM15 26L15 27L16 27L16 26ZM5 27L5 30L8 30L8 27ZM10 27L10 28L11 28L11 27ZM27 27L27 30L30 30L30 27ZM49 27L49 30L52 30L52 27ZM1 28L1 29L2 29L2 28ZM6 28L6 29L7 29L7 28ZM28 28L28 29L29 29L29 28ZM39 28L39 29L40 29L40 28ZM44 28L44 29L45 29L45 28ZM50 28L50 29L51 29L51 28ZM54 28L54 29L53 29L53 30L54 30L54 31L55 31L55 30L56 30L56 29L55 29L55 28ZM10 29L10 30L11 30L11 29ZM14 29L14 30L15 30L15 29ZM21 29L21 31L22 31L22 29ZM54 29L54 30L55 30L55 29ZM5 31L5 33L6 33L6 34L7 34L7 33L6 33L6 32L7 32L7 31ZM36 31L36 32L37 32L37 31ZM46 31L46 32L47 32L47 31ZM9 32L9 33L10 33L10 32ZM12 32L12 33L13 33L13 34L14 34L14 35L15 35L15 34L14 34L14 33L15 33L15 32L14 32L14 33L13 33L13 32ZM19 32L19 33L16 33L16 35L18 35L18 34L19 34L19 35L20 35L20 34L21 34L21 33L20 33L20 32ZM27 32L27 33L30 33L30 32ZM40 32L40 33L41 33L41 34L40 34L40 35L38 35L38 36L37 36L37 37L38 37L38 38L40 38L40 39L41 39L41 40L39 40L39 39L38 39L38 40L37 40L37 41L38 41L38 42L37 42L37 43L38 43L38 42L40 42L40 43L41 43L41 40L42 40L42 41L43 41L43 40L42 40L42 38L41 38L41 36L40 36L40 35L41 35L41 34L42 34L42 32ZM44 32L44 33L45 33L45 34L47 34L47 33L45 33L45 32ZM50 33L50 34L51 34L51 33ZM24 34L24 36L20 36L20 37L17 37L17 36L16 36L16 37L15 37L15 38L16 38L16 37L17 37L17 39L19 39L19 41L20 41L20 42L22 42L22 41L23 41L23 40L22 40L22 39L21 39L21 37L24 37L24 38L23 38L23 39L24 39L24 41L25 41L25 39L26 39L26 38L28 38L28 37L24 37L24 36L26 36L26 35L25 35L25 34ZM2 35L2 36L3 36L3 35ZM46 35L46 36L47 36L47 35ZM49 35L49 36L51 36L51 35ZM30 36L30 38L31 38L31 36ZM38 36L38 37L40 37L40 36ZM54 36L54 39L55 39L55 36ZM48 37L48 38L47 38L47 39L50 39L50 37ZM8 38L8 39L7 39L7 40L8 40L8 39L9 39L9 41L11 41L11 43L12 43L12 44L11 44L11 45L12 45L12 46L13 46L13 45L12 45L12 44L13 44L13 43L14 43L14 42L15 42L15 41L14 41L14 39L12 39L12 38L10 38L10 39L9 39L9 38ZM19 38L19 39L20 39L20 38ZM51 38L51 39L52 39L52 38ZM11 39L11 40L12 40L12 42L13 42L13 40L12 40L12 39ZM27 39L27 40L28 40L28 41L26 41L26 42L27 42L27 43L28 43L28 44L29 44L29 43L30 43L30 44L32 44L32 46L36 46L36 45L35 45L35 43L34 43L34 44L32 44L32 43L30 43L30 42L31 42L31 41L29 41L29 40L31 40L31 39L29 39L29 40L28 40L28 39ZM20 40L20 41L22 41L22 40ZM38 40L38 41L39 41L39 40ZM7 41L7 42L8 42L8 41ZM1 42L1 43L2 43L2 42ZM17 42L17 43L18 43L18 42ZM48 43L48 44L47 44L47 45L46 45L46 46L48 46L48 44L49 44L49 43ZM23 44L23 45L24 45L24 46L23 46L23 47L22 47L22 46L21 46L21 48L23 48L23 47L24 47L24 46L25 46L25 45L26 45L26 44L25 44L25 45L24 45L24 44ZM16 45L16 47L18 47L18 45ZM54 45L54 46L55 46L55 45ZM12 47L12 49L14 49L14 48L13 48L13 47ZM41 47L41 48L42 48L42 49L43 49L43 48L42 48L42 47ZM6 48L6 49L7 49L7 48ZM21 49L21 50L22 50L22 49ZM27 49L27 52L30 52L30 49ZM49 49L49 52L52 52L52 49ZM28 50L28 51L29 51L29 50ZM50 50L50 51L51 51L51 50ZM53 50L53 51L54 51L54 50ZM56 51L56 52L57 52L57 51ZM29 53L29 54L30 54L30 53ZM51 54L51 55L53 55L53 54ZM15 55L15 56L14 56L14 57L15 57L15 56L16 56L16 55ZM0 0L0 7L7 7L7 0ZM1 1L1 6L6 6L6 1ZM2 2L2 5L5 5L5 2ZM50 0L50 7L57 7L57 0ZM51 1L51 6L56 6L56 1ZM52 2L52 5L55 5L55 2ZM0 50L0 57L7 57L7 50ZM1 51L1 56L6 56L6 51ZM2 52L2 55L5 55L5 52Z" fill="#000000"/></g></g></svg>
