<?xml version="1.0" encoding="UTF-8"?>
<svg xmlns="http://www.w3.org/2000/svg" version="1.1" width="300" height="300" viewBox="0 0 300 300"><rect x="0" y="0" width="300" height="300" fill="#ffffff"/><g transform="scale(4.918)"><g transform="translate(2,2)"><path fill-rule="evenodd" d="M14 0L14 1L15 1L15 2L14 2L14 3L13 3L13 1L8 1L8 2L9 2L9 3L8 3L8 4L9 4L9 3L10 3L10 4L11 4L11 5L10 5L10 9L12 9L12 8L11 8L11 5L12 5L12 3L13 3L13 5L15 5L15 6L14 6L14 8L13 8L13 9L14 9L14 10L15 10L15 14L14 14L14 13L12 13L12 15L10 15L10 16L9 16L9 14L8 14L8 12L9 12L9 13L10 13L10 14L11 14L11 13L10 13L10 11L11 11L11 10L10 10L10 11L8 11L8 12L6 12L6 11L7 11L7 10L8 10L8 9L9 9L9 8L6 8L6 9L5 9L5 8L0 8L0 9L3 9L3 11L2 11L2 10L0 10L0 13L2 13L2 14L1 14L1 15L0 15L0 23L1 23L1 24L2 24L2 23L3 23L3 25L4 25L4 23L5 23L5 22L6 22L6 23L7 23L7 24L6 24L6 25L5 25L5 26L4 26L4 31L3 31L3 28L2 28L2 26L0 26L0 27L1 27L1 28L0 28L0 29L1 29L1 31L0 31L0 33L1 33L1 31L2 31L2 35L1 35L1 34L0 34L0 35L1 35L1 38L0 38L0 41L1 41L1 38L2 38L2 40L3 40L3 37L2 37L2 36L4 36L4 37L7 37L7 38L6 38L6 39L5 39L5 40L4 40L4 41L2 41L2 42L1 42L1 43L0 43L0 44L1 44L1 43L2 43L2 47L1 47L1 46L0 46L0 48L5 48L5 47L7 47L7 48L6 48L6 49L7 49L7 48L8 48L8 51L9 51L9 52L8 52L8 57L9 57L9 56L10 56L10 57L11 57L11 56L13 56L13 57L14 57L14 55L15 55L15 57L16 57L16 55L15 55L15 54L16 54L16 53L14 53L14 52L16 52L16 51L17 51L17 50L18 50L18 51L19 51L19 52L17 52L17 53L19 53L19 54L20 54L20 55L18 55L18 56L17 56L17 57L22 57L22 56L23 56L23 55L24 55L24 57L26 57L26 54L27 54L27 53L28 53L28 54L29 54L29 55L30 55L30 56L29 56L29 57L32 57L32 55L33 55L33 56L34 56L34 57L37 57L37 55L40 55L40 52L41 52L41 51L42 51L42 50L43 50L43 49L44 49L44 48L45 48L45 50L46 50L46 51L45 51L45 52L48 52L48 53L47 53L47 55L48 55L48 56L47 56L47 57L48 57L48 56L49 56L49 54L48 54L48 53L50 53L50 55L51 55L51 56L50 56L50 57L52 57L52 56L55 56L55 57L56 57L56 56L55 56L55 54L54 54L54 52L55 52L55 51L56 51L56 52L57 52L57 51L56 51L56 50L57 50L57 49L56 49L56 50L55 50L55 49L54 49L54 48L57 48L57 47L56 47L56 46L57 46L57 44L56 44L56 42L55 42L55 41L54 41L54 43L53 43L53 44L52 44L52 45L50 45L50 46L52 46L52 45L54 45L54 46L53 46L53 47L49 47L49 48L48 48L48 51L47 51L47 50L46 50L46 47L47 47L47 46L46 46L46 45L47 45L47 44L48 44L48 43L49 43L49 44L51 44L51 43L50 43L50 42L51 42L51 41L49 41L49 40L48 40L48 41L47 41L47 42L48 42L48 43L46 43L46 42L45 42L45 47L44 47L44 48L43 48L43 47L42 47L42 46L44 46L44 44L43 44L43 43L44 43L44 42L43 42L43 41L44 41L44 40L45 40L45 41L46 41L46 38L45 38L45 37L44 37L44 34L46 34L46 35L45 35L45 36L46 36L46 37L47 37L47 38L48 38L48 39L50 39L50 40L51 40L51 39L50 39L50 38L52 38L52 41L53 41L53 40L55 40L55 39L57 39L57 37L56 37L56 35L55 35L55 34L57 34L57 32L56 32L56 30L57 30L57 29L56 29L56 30L53 30L53 29L54 29L54 28L56 28L56 26L55 26L55 25L56 25L56 24L55 24L55 23L56 23L56 22L57 22L57 21L51 21L51 22L50 22L50 19L48 19L48 21L47 21L47 23L46 23L46 22L45 22L45 21L44 21L44 24L43 24L43 23L41 23L41 26L37 26L37 27L36 27L36 25L37 25L37 24L36 24L36 23L38 23L38 21L39 21L39 24L38 24L38 25L39 25L39 24L40 24L40 22L43 22L43 21L40 21L40 20L41 20L41 19L42 19L42 20L47 20L47 18L50 18L50 17L51 17L51 16L52 16L52 15L51 15L51 14L52 14L52 13L51 13L51 14L50 14L50 16L47 16L47 18L45 18L45 17L42 17L42 16L46 16L46 15L49 15L49 13L50 13L50 11L51 11L51 10L53 10L53 11L52 11L52 12L53 12L53 11L54 11L54 12L56 12L56 14L53 14L53 15L54 15L54 16L53 16L53 17L52 17L52 18L51 18L51 20L56 20L56 19L52 19L52 18L54 18L54 16L55 16L55 18L57 18L57 17L56 17L56 16L57 16L57 15L56 15L56 14L57 14L57 11L54 11L54 10L53 10L53 9L54 9L54 8L53 8L53 9L52 9L52 8L51 8L51 10L49 10L49 9L50 9L50 8L49 8L49 6L48 6L48 7L47 7L47 5L48 5L48 0L44 0L44 1L43 1L43 0L42 0L42 1L41 1L41 2L40 2L40 0L39 0L39 1L37 1L37 0L35 0L35 1L34 1L34 0L33 0L33 1L34 1L34 2L37 2L37 3L36 3L36 5L35 5L35 6L34 6L34 5L33 5L33 6L32 6L32 7L31 7L31 4L32 4L32 3L33 3L33 2L32 2L32 0L28 0L28 1L25 1L25 0L24 0L24 1L23 1L23 0L21 0L21 2L19 2L19 1L18 1L18 2L17 2L17 1L16 1L16 0ZM22 1L22 4L21 4L21 3L20 3L20 4L17 4L17 3L16 3L16 4L15 4L15 3L14 3L14 4L15 4L15 5L16 5L16 4L17 4L17 8L16 8L16 6L15 6L15 8L14 8L14 9L15 9L15 10L16 10L16 11L17 11L17 12L18 12L18 13L16 13L16 15L15 15L15 16L14 16L14 15L12 15L12 18L13 18L13 16L14 16L14 18L15 18L15 17L16 17L16 18L19 18L19 21L18 21L18 20L17 20L17 19L16 19L16 20L15 20L15 21L12 21L12 19L11 19L11 16L10 16L10 17L9 17L9 16L8 16L8 15L6 15L6 16L5 16L5 17L4 17L4 19L3 19L3 20L4 20L4 19L5 19L5 21L3 21L3 22L5 22L5 21L6 21L6 22L7 22L7 21L9 21L9 22L8 22L8 24L12 24L12 22L13 22L13 24L14 24L14 25L10 25L10 27L9 27L9 28L11 28L11 27L13 27L13 26L15 26L15 27L14 27L14 28L16 28L16 27L18 27L18 25L17 25L17 21L18 21L18 22L19 22L19 23L18 23L18 24L19 24L19 23L20 23L20 22L19 22L19 21L23 21L23 22L21 22L21 23L23 23L23 24L22 24L22 25L19 25L19 28L20 28L20 26L21 26L21 27L22 27L22 25L23 25L23 28L24 28L24 29L22 29L22 28L21 28L21 29L19 29L19 30L17 30L17 29L18 29L18 28L17 28L17 29L16 29L16 30L17 30L17 31L16 31L16 32L18 32L18 31L19 31L19 33L16 33L16 35L18 35L18 36L16 36L16 37L15 37L15 38L14 38L14 37L10 37L10 38L9 38L9 37L8 37L8 38L7 38L7 39L6 39L6 40L7 40L7 39L9 39L9 42L8 42L8 43L9 43L9 44L7 44L7 43L3 43L3 44L4 44L4 46L3 46L3 47L5 47L5 46L7 46L7 47L8 47L8 46L7 46L7 45L9 45L9 44L12 44L12 46L11 46L11 45L10 45L10 46L11 46L11 47L9 47L9 48L11 48L11 49L10 49L10 50L9 50L9 51L11 51L11 52L10 52L10 53L9 53L9 54L10 54L10 53L11 53L11 55L10 55L10 56L11 56L11 55L12 55L12 54L13 54L13 55L14 55L14 54L13 54L13 53L12 53L12 51L16 51L16 50L17 50L17 49L12 49L12 48L15 48L15 47L16 47L16 48L17 48L17 47L18 47L18 45L19 45L19 46L22 46L22 47L23 47L23 48L21 48L21 47L19 47L19 49L18 49L18 50L19 50L19 49L20 49L20 50L21 50L21 51L23 51L23 52L22 52L22 53L21 53L21 52L19 52L19 53L21 53L21 54L22 54L22 55L21 55L21 56L22 56L22 55L23 55L23 54L24 54L24 53L23 53L23 52L24 52L24 51L25 51L25 52L26 52L26 51L25 51L25 50L26 50L26 49L25 49L25 50L23 50L23 49L24 49L24 47L25 47L25 48L26 48L26 46L27 46L27 45L28 45L28 46L29 46L29 45L28 45L28 43L29 43L29 44L30 44L30 46L32 46L32 47L33 47L33 46L35 46L35 44L37 44L37 42L39 42L39 43L38 43L38 46L37 46L37 45L36 45L36 46L37 46L37 47L36 47L36 48L35 48L35 47L34 47L34 48L31 48L31 49L32 49L32 51L31 51L31 52L32 52L32 54L33 54L33 55L34 55L34 54L36 54L36 53L34 53L34 52L36 52L36 51L37 51L37 52L38 52L38 53L37 53L37 54L39 54L39 52L40 52L40 51L41 51L41 50L42 50L42 48L40 48L40 47L41 47L41 46L42 46L42 45L43 45L43 44L39 44L39 43L42 43L42 42L41 42L41 41L42 41L42 40L41 40L41 39L43 39L43 40L44 40L44 39L45 39L45 38L44 38L44 37L43 37L43 38L41 38L41 37L42 37L42 36L43 36L43 34L44 34L44 33L46 33L46 34L47 34L47 33L48 33L48 35L46 35L46 36L47 36L47 37L48 37L48 36L49 36L49 37L50 37L50 36L49 36L49 35L51 35L51 37L52 37L52 38L53 38L53 39L55 39L55 38L53 38L53 37L52 37L52 34L54 34L54 33L56 33L56 32L53 32L53 31L52 31L52 32L53 32L53 33L51 33L51 32L49 32L49 31L48 31L48 28L47 28L47 27L48 27L48 25L49 25L49 26L51 26L51 25L49 25L49 23L50 23L50 24L52 24L52 26L53 26L53 27L55 27L55 26L54 26L54 25L53 25L53 24L52 24L52 23L55 23L55 22L52 22L52 23L50 23L50 22L49 22L49 23L48 23L48 25L47 25L47 24L46 24L46 26L45 26L45 24L44 24L44 26L43 26L43 27L46 27L46 28L47 28L47 29L46 29L46 30L42 30L42 29L43 29L43 28L42 28L42 26L41 26L41 28L40 28L40 27L39 27L39 28L38 28L38 27L37 27L37 30L39 30L39 32L38 32L38 31L36 31L36 30L35 30L35 29L33 29L33 28L34 28L34 27L33 27L33 26L35 26L35 25L33 25L33 24L32 24L32 23L31 23L31 22L29 22L29 20L30 20L30 19L31 19L31 18L32 18L32 19L33 19L33 20L32 20L32 21L34 21L34 22L35 22L35 23L36 23L36 22L37 22L37 21L36 21L36 20L40 20L40 19L37 19L37 18L42 18L42 19L45 19L45 18L42 18L42 17L41 17L41 16L40 16L40 15L41 15L41 14L42 14L42 15L45 15L45 14L44 14L44 13L45 13L45 12L46 12L46 14L47 14L47 13L49 13L49 12L48 12L48 10L47 10L47 9L49 9L49 8L47 8L47 7L46 7L46 5L47 5L47 3L42 3L42 2L43 2L43 1L42 1L42 2L41 2L41 3L40 3L40 5L41 5L41 3L42 3L42 4L43 4L43 7L42 7L42 6L41 6L41 7L40 7L40 6L39 6L39 7L40 7L40 8L38 8L38 5L39 5L39 4L38 4L38 3L37 3L37 4L38 4L38 5L36 5L36 6L35 6L35 7L34 7L34 6L33 6L33 7L34 7L34 9L33 9L33 8L32 8L32 9L31 9L31 10L30 10L30 9L26 9L26 6L25 6L25 4L26 4L26 3L25 3L25 2L23 2L23 1ZM29 1L29 3L28 3L28 2L27 2L27 3L28 3L28 4L29 4L29 3L30 3L30 2L31 2L31 1ZM44 1L44 2L47 2L47 1ZM10 2L10 3L12 3L12 2ZM24 3L24 4L22 4L22 7L21 7L21 6L20 6L20 5L19 5L19 6L18 6L18 8L17 8L17 11L18 11L18 9L19 9L19 11L22 11L22 10L25 10L25 9L21 9L21 10L20 10L20 9L19 9L19 6L20 6L20 7L21 7L21 8L22 8L22 7L23 7L23 8L24 8L24 7L25 7L25 6L24 6L24 7L23 7L23 5L24 5L24 4L25 4L25 3ZM34 3L34 4L35 4L35 3ZM44 4L44 5L46 5L46 4ZM8 5L8 7L9 7L9 5ZM27 5L27 8L30 8L30 5ZM12 6L12 7L13 7L13 6ZM28 6L28 7L29 7L29 6ZM36 6L36 7L35 7L35 8L36 8L36 9L37 9L37 10L35 10L35 11L37 11L37 12L34 12L34 10L33 10L33 9L32 9L32 10L33 10L33 11L32 11L32 12L30 12L30 10L29 10L29 11L27 11L27 10L26 10L26 11L27 11L27 12L25 12L25 11L23 11L23 13L24 13L24 14L23 14L23 16L24 16L24 17L23 17L23 18L24 18L24 19L23 19L23 21L24 21L24 22L23 22L23 23L24 23L24 24L23 24L23 25L24 25L24 27L26 27L26 30L25 30L25 29L24 29L24 30L25 30L25 31L23 31L23 36L24 36L24 37L22 37L22 35L21 35L21 34L22 34L22 33L21 33L21 31L22 31L22 29L21 29L21 31L20 31L20 30L19 30L19 31L20 31L20 33L21 33L21 34L20 34L20 35L19 35L19 34L18 34L18 35L19 35L19 36L18 36L18 37L16 37L16 38L15 38L15 39L14 39L14 38L13 38L13 39L14 39L14 40L15 40L15 41L14 41L14 44L13 44L13 42L12 42L12 44L13 44L13 45L14 45L14 46L12 46L12 47L11 47L11 48L12 48L12 47L14 47L14 46L16 46L16 47L17 47L17 46L16 46L16 45L18 45L18 44L16 44L16 43L15 43L15 41L16 41L16 40L17 40L17 41L19 41L19 42L20 42L20 41L19 41L19 39L20 39L20 38L19 38L19 39L17 39L17 38L18 38L18 37L20 37L20 36L21 36L21 37L22 37L22 38L24 38L24 37L25 37L25 36L26 36L26 37L28 37L28 38L25 38L25 40L24 40L24 39L23 39L23 41L22 41L22 42L21 42L21 43L20 43L20 44L19 44L19 45L22 45L22 44L21 44L21 43L22 43L22 42L23 42L23 44L25 44L25 45L23 45L23 46L25 46L25 45L26 45L26 44L25 44L25 43L24 43L24 42L26 42L26 43L27 43L27 42L28 42L28 41L29 41L29 43L31 43L31 45L32 45L32 46L33 46L33 45L32 45L32 42L33 42L33 44L34 44L34 42L33 42L33 41L32 41L32 40L34 40L34 41L35 41L35 38L36 38L36 39L38 39L38 40L40 40L40 38L36 38L36 37L40 37L40 36L42 36L42 34L43 34L43 33L44 33L44 32L46 32L46 31L47 31L47 32L48 32L48 31L47 31L47 30L46 30L46 31L44 31L44 32L43 32L43 31L42 31L42 30L41 30L41 29L40 29L40 30L41 30L41 31L40 31L40 32L39 32L39 33L40 33L40 34L36 34L36 33L38 33L38 32L36 32L36 31L35 31L35 30L33 30L33 31L32 31L32 32L31 32L31 35L30 35L30 34L29 34L29 35L30 35L30 36L29 36L29 37L28 37L28 36L27 36L27 35L26 35L26 34L27 34L27 33L30 33L30 32L28 32L28 31L31 31L31 30L32 30L32 29L31 29L31 28L33 28L33 27L32 27L32 26L31 26L31 24L29 24L29 22L28 22L28 20L29 20L29 19L28 19L28 18L25 18L25 17L28 17L28 16L25 16L25 15L29 15L29 13L30 13L30 16L31 16L31 17L29 17L29 18L31 18L31 17L32 17L32 18L34 18L34 19L35 19L35 18L37 18L37 17L40 17L40 16L36 16L36 14L37 14L37 15L40 15L40 14L41 14L41 13L40 13L40 14L37 14L37 13L38 13L38 12L40 12L40 11L42 11L42 14L43 14L43 12L45 12L45 10L46 10L46 11L47 11L47 10L46 10L46 9L47 9L47 8L45 8L45 6L44 6L44 8L45 8L45 9L42 9L42 8L41 8L41 9L39 9L39 10L40 10L40 11L38 11L38 9L37 9L37 8L36 8L36 7L37 7L37 6ZM55 8L55 10L57 10L57 9L56 9L56 8ZM4 9L4 11L3 11L3 14L2 14L2 15L1 15L1 16L4 16L4 15L3 15L3 14L7 14L7 13L6 13L6 12L5 12L5 11L6 11L6 10L7 10L7 9L6 9L6 10L5 10L5 9ZM43 10L43 11L44 11L44 10ZM1 11L1 12L2 12L2 11ZM13 11L13 12L14 12L14 11ZM19 12L19 13L18 13L18 15L19 15L19 13L22 13L22 12ZM24 12L24 13L25 13L25 12ZM28 12L28 13L26 13L26 14L28 14L28 13L29 13L29 12ZM32 12L32 13L31 13L31 14L32 14L32 15L31 15L31 16L32 16L32 17L33 17L33 16L32 16L32 15L33 15L33 14L35 14L35 13L33 13L33 12ZM20 14L20 15L21 15L21 16L20 16L20 17L21 17L21 18L20 18L20 19L21 19L21 20L22 20L22 17L21 17L21 16L22 16L22 14ZM16 15L16 17L19 17L19 16L17 16L17 15ZM34 15L34 16L35 16L35 17L34 17L34 18L35 18L35 17L36 17L36 16L35 16L35 15ZM6 16L6 17L5 17L5 19L7 19L7 18L6 18L6 17L7 17L7 16ZM8 17L8 19L9 19L9 21L10 21L10 23L11 23L11 22L12 22L12 21L11 21L11 19L10 19L10 18L9 18L9 17ZM1 19L1 20L2 20L2 19ZM13 19L13 20L14 20L14 19ZM26 19L26 20L25 20L25 22L26 22L26 23L25 23L25 24L24 24L24 25L25 25L25 26L26 26L26 25L27 25L27 26L29 26L29 24L28 24L28 23L27 23L27 21L26 21L26 20L27 20L27 19ZM6 20L6 21L7 21L7 20ZM34 20L34 21L35 21L35 20ZM15 21L15 22L14 22L14 24L15 24L15 25L16 25L16 23L15 23L15 22L16 22L16 21ZM1 22L1 23L2 23L2 22ZM25 24L25 25L26 25L26 24ZM27 24L27 25L28 25L28 24ZM42 24L42 25L43 25L43 24ZM6 25L6 26L9 26L9 25ZM46 26L46 27L47 27L47 26ZM5 27L5 30L8 30L8 27ZM27 27L27 30L30 30L30 27ZM35 27L35 28L36 28L36 27ZM49 27L49 30L52 30L52 27ZM1 28L1 29L2 29L2 28ZM6 28L6 29L7 29L7 28ZM12 28L12 29L11 29L11 31L13 31L13 32L14 32L14 33L15 33L15 32L14 32L14 31L15 31L15 29L13 29L13 28ZM28 28L28 29L29 29L29 28ZM44 28L44 29L45 29L45 28ZM50 28L50 29L51 29L51 28ZM9 30L9 31L8 31L8 32L9 32L9 33L10 33L10 34L8 34L8 33L6 33L6 34L7 34L7 35L5 35L5 34L4 34L4 32L7 32L7 31L4 31L4 32L3 32L3 34L4 34L4 36L8 36L8 35L11 35L11 33L12 33L12 35L13 35L13 36L15 36L15 34L14 34L14 35L13 35L13 33L12 33L12 32L11 32L11 33L10 33L10 30ZM25 31L25 32L26 32L26 33L25 33L25 34L24 34L24 36L25 36L25 34L26 34L26 33L27 33L27 31ZM33 31L33 32L32 32L32 33L33 33L33 34L32 34L32 38L31 38L31 36L30 36L30 38L31 38L31 39L29 39L29 41L30 41L30 40L31 40L31 39L34 39L34 38L35 38L35 37L36 37L36 36L40 36L40 35L41 35L41 34L42 34L42 33L43 33L43 32L42 32L42 31L41 31L41 32L40 32L40 33L41 33L41 34L40 34L40 35L36 35L36 34L35 34L35 33L36 33L36 32L35 32L35 31ZM33 32L33 33L35 33L35 32ZM41 32L41 33L42 33L42 32ZM50 33L50 34L51 34L51 33ZM33 34L33 36L34 36L34 37L33 37L33 38L34 38L34 37L35 37L35 34ZM54 36L54 37L55 37L55 36ZM10 39L10 40L11 40L11 39ZM15 39L15 40L16 40L16 39ZM21 39L21 40L22 40L22 39ZM26 39L26 40L27 40L27 41L26 41L26 42L27 42L27 41L28 41L28 39ZM36 40L36 42L35 42L35 43L36 43L36 42L37 42L37 40ZM5 41L5 42L7 42L7 41ZM17 42L17 43L18 43L18 42ZM5 44L5 45L7 45L7 44ZM54 44L54 45L55 45L55 46L54 46L54 47L53 47L53 48L54 48L54 47L55 47L55 46L56 46L56 44ZM39 45L39 46L41 46L41 45ZM28 47L28 48L30 48L30 47ZM37 47L37 48L36 48L36 50L37 50L37 51L38 51L38 52L39 52L39 50L37 50L37 49L38 49L38 47ZM34 48L34 49L35 49L35 48ZM39 48L39 49L40 49L40 48ZM21 49L21 50L22 50L22 49ZM27 49L27 52L30 52L30 49ZM49 49L49 52L52 52L52 49ZM28 50L28 51L29 51L29 50ZM33 50L33 51L32 51L32 52L34 52L34 51L35 51L35 50ZM50 50L50 51L51 51L51 50ZM53 50L53 51L54 51L54 50ZM43 51L43 53L41 53L41 54L43 54L43 53L44 53L44 54L45 54L45 53L44 53L44 51ZM22 53L22 54L23 54L23 53ZM25 53L25 54L26 54L26 53ZM29 53L29 54L30 54L30 53ZM51 54L51 55L54 55L54 54ZM27 55L27 56L28 56L28 55ZM41 55L41 56L42 56L42 55ZM43 55L43 56L45 56L45 57L46 57L46 56L45 56L45 55ZM38 56L38 57L39 57L39 56ZM0 0L0 7L7 7L7 0ZM1 1L1 6L6 6L6 1ZM2 2L2 5L5 5L5 2ZM50 0L50 7L57 7L57 0ZM51 1L51 6L56 6L56 1ZM52 2L52 5L55 5L55 2ZM0 50L0 57L7 57L7 50ZM1 51L1 56L6 56L6 51ZM2 52L2 55L5 55L5 52Z" fill="#000000"/></g></g></svg>
