<?xml version="1.0" encoding="UTF-8"?>
<svg xmlns="http://www.w3.org/2000/svg" version="1.1" width="300" height="300" viewBox="0 0 300 300"><rect x="0" y="0" width="300" height="300" fill="#ffffff"/><g transform="scale(4.918)"><g transform="translate(2,2)"><path fill-rule="evenodd" d="M9 0L9 1L8 1L8 2L9 2L9 3L8 3L8 4L9 4L9 5L8 5L8 7L9 7L9 6L10 6L10 9L9 9L9 8L6 8L6 9L9 9L9 10L8 10L8 11L7 11L7 10L5 10L5 8L0 8L0 11L1 11L1 13L0 13L0 14L1 14L1 13L2 13L2 14L3 14L3 15L0 15L0 16L1 16L1 17L2 17L2 18L0 18L0 19L1 19L1 20L0 20L0 24L2 24L2 23L3 23L3 24L4 24L4 26L3 26L3 25L1 25L1 27L2 27L2 28L1 28L1 29L0 29L0 30L2 30L2 29L3 29L3 31L2 31L2 33L1 33L1 32L0 32L0 33L1 33L1 34L0 34L0 36L2 36L2 37L3 37L3 38L2 38L2 39L5 39L5 38L6 38L6 39L7 39L7 40L6 40L6 41L5 41L5 40L4 40L4 41L3 41L3 42L4 42L4 44L5 44L5 45L7 45L7 44L6 44L6 43L8 43L8 45L9 45L9 46L5 46L5 47L3 47L3 46L2 46L2 45L0 45L0 48L5 48L5 47L9 47L9 48L10 48L10 49L8 49L8 48L6 48L6 49L8 49L8 51L10 51L10 49L11 49L11 50L12 50L12 49L11 49L11 47L14 47L14 48L13 48L13 49L14 49L14 50L15 50L15 49L17 49L17 50L16 50L16 51L14 51L14 52L12 52L12 51L11 51L11 52L10 52L10 53L13 53L13 54L15 54L15 55L13 55L13 56L14 56L14 57L16 57L16 56L17 56L17 57L19 57L19 55L20 55L20 54L19 54L19 55L17 55L17 54L18 54L18 53L20 53L20 52L21 52L21 53L22 53L22 54L21 54L21 56L20 56L20 57L22 57L22 55L23 55L23 56L24 56L24 57L26 57L26 55L27 55L27 56L28 56L28 55L27 55L27 53L28 53L28 54L30 54L30 53L31 53L31 55L32 55L32 56L30 56L30 55L29 55L29 56L30 56L30 57L32 57L32 56L34 56L34 57L35 57L35 56L36 56L36 57L39 57L39 55L40 55L40 56L41 56L41 55L42 55L42 57L43 57L43 56L46 56L46 54L45 54L45 53L44 53L44 50L43 50L43 48L45 48L45 47L47 47L47 46L46 46L46 45L47 45L47 44L48 44L48 45L49 45L49 47L50 47L50 48L48 48L48 51L47 51L47 50L45 50L45 52L48 52L48 53L47 53L47 54L48 54L48 55L47 55L47 57L49 57L49 56L48 56L48 55L49 55L49 54L48 54L48 53L50 53L50 55L51 55L51 56L50 56L50 57L52 57L52 56L53 56L53 57L54 57L54 56L55 56L55 57L56 57L56 56L55 56L55 54L54 54L54 56L53 56L53 55L51 55L51 54L53 54L53 53L54 53L54 52L55 52L55 50L57 50L57 49L54 49L54 48L57 48L57 47L56 47L56 46L57 46L57 44L55 44L55 43L56 43L56 42L55 42L55 41L54 41L54 40L55 40L55 39L57 39L57 37L56 37L56 36L57 36L57 35L55 35L55 34L57 34L57 32L56 32L56 30L57 30L57 27L56 27L56 26L57 26L57 25L56 25L56 22L57 22L57 21L55 21L55 23L52 23L52 22L53 22L53 21L51 21L51 22L50 22L50 19L51 19L51 20L55 20L55 19L51 19L51 18L54 18L54 16L55 16L55 18L57 18L57 17L56 17L56 16L57 16L57 15L56 15L56 14L57 14L57 12L56 12L56 8L55 8L55 11L54 11L54 10L52 10L52 8L51 8L51 10L50 10L50 8L49 8L49 6L48 6L48 7L47 7L47 5L48 5L48 0L44 0L44 1L47 1L47 2L43 2L43 3L42 3L42 4L41 4L41 5L40 5L40 3L41 3L41 2L39 2L39 1L38 1L38 0L35 0L35 1L34 1L34 0L32 0L32 1L31 1L31 0L30 0L30 1L29 1L29 0L27 0L27 1L26 1L26 0L24 0L24 1L23 1L23 0L21 0L21 2L19 2L19 1L18 1L18 4L17 4L17 5L18 5L18 4L19 4L19 5L20 5L20 7L19 7L19 6L18 6L18 9L17 9L17 8L16 8L16 7L17 7L17 6L16 6L16 7L15 7L15 5L16 5L16 4L14 4L14 3L17 3L17 1L16 1L16 0L14 0L14 1L15 1L15 2L14 2L14 3L13 3L13 2L9 2L9 1L11 1L11 0ZM41 0L41 1L43 1L43 0ZM25 1L25 2L22 2L22 4L21 4L21 3L19 3L19 4L21 4L21 5L22 5L22 4L23 4L23 5L24 5L24 4L23 4L23 3L26 3L26 4L25 4L25 8L26 8L26 4L27 4L27 3L28 3L28 4L30 4L30 3L31 3L31 1L30 1L30 3L28 3L28 1L27 1L27 2L26 2L26 1ZM32 1L32 2L34 2L34 1ZM37 1L37 2L35 2L35 4L34 4L34 5L33 5L33 3L32 3L32 4L31 4L31 9L32 9L32 10L33 10L33 11L32 11L32 13L33 13L33 14L32 14L32 15L31 15L31 14L30 14L30 15L28 15L28 16L27 16L27 15L25 15L25 14L28 14L28 13L31 13L31 12L30 12L30 11L31 11L31 10L30 10L30 9L29 9L29 10L27 10L27 9L25 9L25 12L24 12L24 10L23 10L23 12L24 12L24 13L22 13L22 12L21 12L21 11L22 11L22 10L21 10L21 9L24 9L24 6L23 6L23 8L22 8L22 6L21 6L21 9L20 9L20 10L21 10L21 11L20 11L20 12L21 12L21 13L19 13L19 15L18 15L18 14L17 14L17 13L18 13L18 12L17 12L17 11L18 11L18 10L19 10L19 9L18 9L18 10L17 10L17 9L15 9L15 7L14 7L14 6L13 6L13 3L10 3L10 6L11 6L11 8L12 8L12 6L13 6L13 7L14 7L14 10L16 10L16 11L15 11L15 12L17 12L17 13L16 13L16 15L15 15L15 13L13 13L13 12L14 12L14 11L13 11L13 9L12 9L12 10L11 10L11 9L10 9L10 10L9 10L9 11L8 11L8 12L9 12L9 11L10 11L10 12L12 12L12 13L11 13L11 14L10 14L10 13L9 13L9 14L8 14L8 13L6 13L6 12L7 12L7 11L6 11L6 12L5 12L5 11L4 11L4 12L5 12L5 15L4 15L4 16L3 16L3 17L4 17L4 19L3 19L3 18L2 18L2 19L3 19L3 20L1 20L1 21L3 21L3 20L4 20L4 22L5 22L5 23L4 23L4 24L5 24L5 26L9 26L9 27L11 27L11 28L10 28L10 29L11 29L11 28L12 28L12 30L10 30L10 31L6 31L6 32L5 32L5 31L4 31L4 32L3 32L3 33L2 33L2 34L4 34L4 35L6 35L6 36L7 36L7 35L9 35L9 37L6 37L6 38L8 38L8 39L9 39L9 41L8 41L8 43L11 43L11 44L12 44L12 43L13 43L13 45L11 45L11 46L10 46L10 47L11 47L11 46L14 46L14 47L15 47L15 48L17 48L17 47L18 47L18 46L17 46L17 45L18 45L18 44L17 44L17 43L18 43L18 42L19 42L19 41L17 41L17 39L18 39L18 38L19 38L19 39L20 39L20 38L19 38L19 37L23 37L23 38L21 38L21 39L22 39L22 41L21 41L21 40L20 40L20 42L21 42L21 43L22 43L22 41L23 41L23 40L24 40L24 39L23 39L23 38L24 38L24 37L23 37L23 36L22 36L22 35L23 35L23 32L24 32L24 29L25 29L25 30L26 30L26 27L25 27L25 26L26 26L26 25L27 25L27 26L28 26L28 25L29 25L29 24L28 24L28 21L29 21L29 19L31 19L31 18L29 18L29 19L28 19L28 18L27 18L27 19L26 19L26 20L25 20L25 21L24 21L24 20L22 20L22 19L24 19L24 18L23 18L23 17L24 17L24 15L25 15L25 16L27 16L27 17L28 17L28 16L29 16L29 17L31 17L31 16L32 16L32 19L34 19L34 20L32 20L32 21L34 21L34 22L33 22L33 24L31 24L31 22L29 22L29 23L30 23L30 25L32 25L32 26L33 26L33 28L31 28L31 30L32 30L32 31L33 31L33 30L35 30L35 31L34 31L34 32L30 32L30 31L28 31L28 32L30 32L30 33L32 33L32 34L31 34L31 35L32 35L32 38L31 38L31 36L30 36L30 34L29 34L29 33L27 33L27 31L25 31L25 34L24 34L24 36L25 36L25 34L26 34L26 35L27 35L27 37L25 37L25 38L26 38L26 39L25 39L25 42L24 42L24 43L23 43L23 44L24 44L24 45L22 45L22 44L21 44L21 45L20 45L20 43L19 43L19 45L20 45L20 46L19 46L19 49L18 49L18 50L19 50L19 49L20 49L20 50L21 50L21 51L22 51L22 53L24 53L24 54L23 54L23 55L24 55L24 56L25 56L25 55L26 55L26 54L25 54L25 53L26 53L26 49L25 49L25 50L23 50L23 49L24 49L24 47L25 47L25 48L26 48L26 46L27 46L27 47L28 47L28 48L29 48L29 45L30 45L30 46L31 46L31 47L32 47L32 46L35 46L35 47L34 47L34 48L35 48L35 49L33 49L33 48L31 48L31 52L32 52L32 54L33 54L33 55L34 55L34 56L35 56L35 55L36 55L36 56L38 56L38 55L39 55L39 53L38 53L38 52L40 52L40 55L41 55L41 52L42 52L42 53L43 53L43 54L42 54L42 55L45 55L45 54L44 54L44 53L43 53L43 52L42 52L42 51L43 51L43 50L42 50L42 49L41 49L41 48L42 48L42 47L44 47L44 46L45 46L45 42L46 42L46 43L49 43L49 42L47 42L47 41L48 41L48 40L49 40L49 41L51 41L51 42L50 42L50 43L51 43L51 44L49 44L49 45L50 45L50 47L51 47L51 46L52 46L52 48L54 48L54 47L53 47L53 45L51 45L51 44L53 44L53 43L54 43L54 41L52 41L52 40L53 40L53 39L54 39L54 38L53 38L53 37L52 37L52 34L54 34L54 33L56 33L56 32L54 32L54 31L55 31L55 30L56 30L56 29L55 29L55 28L54 28L54 29L55 29L55 30L53 30L53 31L51 31L51 32L49 32L49 31L48 31L48 29L46 29L46 30L45 30L45 31L46 31L46 32L44 32L44 31L43 31L43 30L44 30L44 29L45 29L45 26L46 26L46 28L48 28L48 25L49 25L49 26L53 26L53 27L55 27L55 26L54 26L54 25L55 25L55 24L52 24L52 23L50 23L50 22L49 22L49 23L48 23L48 25L45 25L45 23L44 23L44 21L45 21L45 22L46 22L46 23L47 23L47 21L48 21L48 19L50 19L50 18L51 18L51 17L50 17L50 18L48 18L48 19L46 19L46 18L47 18L47 17L46 17L46 16L48 16L48 17L49 17L49 15L50 15L50 16L52 16L52 17L53 17L53 16L54 16L54 15L53 15L53 14L56 14L56 12L54 12L54 11L53 11L53 12L52 12L52 11L50 11L50 10L49 10L49 11L50 11L50 13L49 13L49 12L48 12L48 9L49 9L49 8L48 8L48 9L46 9L46 8L47 8L47 7L46 7L46 5L47 5L47 3L43 3L43 7L44 7L44 6L45 6L45 7L46 7L46 8L44 8L44 9L43 9L43 8L42 8L42 9L43 9L43 11L44 11L44 9L45 9L45 12L43 12L43 13L44 13L44 14L42 14L42 11L40 11L40 12L38 12L38 14L37 14L37 15L34 15L34 16L32 16L32 15L33 15L33 14L36 14L36 13L33 13L33 11L34 11L34 12L35 12L35 8L32 8L32 6L33 6L33 7L34 7L34 5L36 5L36 6L35 6L35 7L36 7L36 8L38 8L38 10L37 10L37 9L36 9L36 10L37 10L37 11L38 11L38 10L39 10L39 9L40 9L40 10L41 10L41 7L42 7L42 6L41 6L41 7L40 7L40 6L39 6L39 4L38 4L38 3L39 3L39 2L38 2L38 1ZM36 3L36 5L37 5L37 6L36 6L36 7L37 7L37 6L38 6L38 7L39 7L39 8L40 8L40 7L39 7L39 6L38 6L38 4L37 4L37 3ZM44 4L44 5L46 5L46 4ZM27 5L27 8L30 8L30 5ZM28 6L28 7L29 7L29 6ZM53 8L53 9L54 9L54 8ZM1 9L1 11L3 11L3 10L4 10L4 9ZM26 10L26 11L27 11L27 12L25 12L25 13L24 13L24 14L25 14L25 13L28 13L28 12L29 12L29 11L27 11L27 10ZM12 11L12 12L13 12L13 11ZM2 12L2 13L3 13L3 12ZM45 12L45 15L42 15L42 14L40 14L40 13L39 13L39 15L40 15L40 16L35 16L35 18L34 18L34 17L33 17L33 18L34 18L34 19L35 19L35 18L37 18L37 20L36 20L36 21L37 21L37 22L36 22L36 23L35 23L35 22L34 22L34 23L35 23L35 24L34 24L34 25L36 25L36 26L35 26L35 27L34 27L34 28L33 28L33 29L32 29L32 30L33 30L33 29L35 29L35 30L36 30L36 29L39 29L39 28L40 28L40 26L41 26L41 27L42 27L42 28L43 28L43 29L42 29L42 30L41 30L41 29L40 29L40 30L37 30L37 31L39 31L39 32L43 32L43 33L42 33L42 34L41 34L41 35L40 35L40 34L37 34L37 32L36 32L36 31L35 31L35 32L36 32L36 34L37 34L37 36L36 36L36 37L35 37L35 38L34 38L34 37L33 37L33 38L34 38L34 39L31 39L31 38L30 38L30 36L29 36L29 39L31 39L31 40L28 40L28 39L26 39L26 40L27 40L27 41L26 41L26 42L27 42L27 43L26 43L26 44L25 44L25 43L24 43L24 44L25 44L25 45L24 45L24 46L25 46L25 45L26 45L26 44L27 44L27 45L29 45L29 44L30 44L30 45L32 45L32 44L34 44L34 43L35 43L35 42L38 42L38 43L37 43L37 44L35 44L35 46L36 46L36 47L35 47L35 48L36 48L36 49L37 49L37 50L36 50L36 52L34 52L34 51L35 51L35 50L33 50L33 49L32 49L32 50L33 50L33 51L32 51L32 52L34 52L34 53L33 53L33 54L34 54L34 55L35 55L35 54L36 54L36 55L38 55L38 53L37 53L37 52L38 52L38 51L40 51L40 52L41 52L41 51L42 51L42 50L40 50L40 49L39 49L39 50L38 50L38 49L37 49L37 48L36 48L36 47L37 47L37 46L38 46L38 45L39 45L39 47L38 47L38 48L41 48L41 47L42 47L42 46L43 46L43 45L44 45L44 44L43 44L43 43L44 43L44 40L41 40L41 39L42 39L42 38L43 38L43 37L44 37L44 38L45 38L45 39L46 39L46 41L47 41L47 39L46 39L46 38L45 38L45 37L44 37L44 34L46 34L46 35L45 35L45 36L46 36L46 37L47 37L47 38L48 38L48 39L49 39L49 40L52 40L52 38L51 38L51 39L50 39L50 37L49 37L49 38L48 38L48 37L47 37L47 36L51 36L51 35L48 35L48 33L47 33L47 34L46 34L46 33L44 33L44 32L43 32L43 31L42 31L42 30L43 30L43 29L44 29L44 28L43 28L43 27L42 27L42 26L43 26L43 25L44 25L44 26L45 26L45 25L44 25L44 23L42 23L42 22L43 22L43 21L42 21L42 20L46 20L46 19L42 19L42 20L41 20L41 19L40 19L40 20L38 20L38 19L39 19L39 18L43 18L43 17L40 17L40 16L46 16L46 15L49 15L49 13L47 13L47 14L46 14L46 12ZM21 13L21 14L20 14L20 15L19 15L19 16L17 16L17 15L16 15L16 17L15 17L15 21L16 21L16 22L15 22L15 23L16 23L16 24L14 24L14 21L13 21L13 22L12 22L12 21L10 21L10 20L12 20L12 19L11 19L11 18L12 18L12 17L14 17L14 16L15 16L15 15L12 15L12 16L11 16L11 18L10 18L10 20L8 20L8 23L7 23L7 22L6 22L6 21L7 21L7 20L5 20L5 19L4 19L4 20L5 20L5 22L6 22L6 23L5 23L5 24L6 24L6 25L7 25L7 24L8 24L8 23L9 23L9 24L10 24L10 26L11 26L11 24L12 24L12 25L13 25L13 26L14 26L14 27L12 27L12 28L13 28L13 29L15 29L15 33L13 33L13 32L14 32L14 30L12 30L12 31L13 31L13 32L11 32L11 33L12 33L12 34L10 34L10 32L9 32L9 35L10 35L10 36L12 36L12 37L15 37L15 38L14 38L14 39L13 39L13 38L11 38L11 39L10 39L10 40L12 40L12 39L13 39L13 40L15 40L15 41L11 41L11 43L12 43L12 42L13 42L13 43L15 43L15 45L14 45L14 46L16 46L16 47L17 47L17 46L16 46L16 45L17 45L17 44L16 44L16 43L17 43L17 42L15 42L15 41L16 41L16 39L15 39L15 38L16 38L16 37L15 37L15 36L17 36L17 37L19 37L19 36L21 36L21 34L22 34L22 33L21 33L21 32L20 32L20 33L21 33L21 34L20 34L20 35L19 35L19 34L18 34L18 35L16 35L16 33L19 33L19 31L18 31L18 32L16 32L16 31L17 31L17 30L16 30L16 29L18 29L18 30L19 30L19 29L22 29L22 28L19 28L19 29L18 29L18 28L14 28L14 27L16 27L16 26L14 26L14 25L16 25L16 24L17 24L17 25L18 25L18 26L17 26L17 27L18 27L18 26L19 26L19 27L22 27L22 26L25 26L25 25L24 25L24 23L23 23L23 22L24 22L24 21L22 21L22 20L21 20L21 21L22 21L22 23L23 23L23 25L22 25L22 26L19 26L19 25L21 25L21 24L19 24L19 23L20 23L20 22L19 22L19 23L18 23L18 24L17 24L17 21L20 21L20 20L18 20L18 19L19 19L19 18L18 18L18 19L17 19L17 18L16 18L16 17L19 17L19 16L20 16L20 17L21 17L21 18L20 18L20 19L21 19L21 18L22 18L22 17L21 17L21 16L22 16L22 13ZM51 13L51 14L50 14L50 15L51 15L51 14L52 14L52 13ZM6 14L6 15L7 15L7 14ZM9 14L9 15L10 15L10 14ZM20 15L20 16L21 16L21 15ZM30 15L30 16L31 16L31 15ZM52 15L52 16L53 16L53 15ZM5 16L5 18L6 18L6 19L7 19L7 18L6 18L6 17L8 17L8 16ZM9 16L9 17L10 17L10 16ZM37 17L37 18L39 18L39 17ZM44 17L44 18L46 18L46 17ZM13 19L13 20L14 20L14 19ZM16 19L16 21L17 21L17 19ZM27 19L27 20L28 20L28 19ZM56 19L56 20L57 20L57 19ZM30 20L30 21L31 21L31 20ZM34 20L34 21L35 21L35 20ZM37 20L37 21L38 21L38 22L37 22L37 23L36 23L36 24L37 24L37 25L38 25L38 26L40 26L40 25L41 25L41 26L42 26L42 25L41 25L41 24L42 24L42 23L41 23L41 22L42 22L42 21L41 21L41 20L40 20L40 21L41 21L41 22L40 22L40 23L39 23L39 21L38 21L38 20ZM9 21L9 23L10 23L10 24L11 24L11 23L12 23L12 24L13 24L13 23L12 23L12 22L11 22L11 23L10 23L10 21ZM25 21L25 22L26 22L26 23L25 23L25 24L27 24L27 25L28 25L28 24L27 24L27 21ZM1 22L1 23L2 23L2 22ZM6 23L6 24L7 24L7 23ZM37 23L37 24L38 24L38 23ZM40 23L40 24L41 24L41 23ZM49 24L49 25L52 25L52 24ZM2 26L2 27L3 27L3 29L4 29L4 27L3 27L3 26ZM36 26L36 27L37 27L37 28L39 28L39 27L37 27L37 26ZM5 27L5 30L8 30L8 27ZM23 27L23 29L24 29L24 28L25 28L25 27ZM27 27L27 30L30 30L30 27ZM49 27L49 30L52 30L52 27ZM6 28L6 29L7 29L7 28ZM28 28L28 29L29 29L29 28ZM50 28L50 29L51 29L51 28ZM20 30L20 31L22 31L22 30ZM40 30L40 31L41 31L41 30ZM46 30L46 31L47 31L47 32L48 32L48 31L47 31L47 30ZM6 32L6 33L7 33L7 34L6 34L6 35L7 35L7 34L8 34L8 33L7 33L7 32ZM51 32L51 33L50 33L50 34L51 34L51 33L54 33L54 32ZM4 33L4 34L5 34L5 33ZM26 33L26 34L27 34L27 33ZM43 33L43 34L42 34L42 35L43 35L43 34L44 34L44 33ZM13 34L13 35L14 35L14 36L15 36L15 34ZM33 34L33 36L35 36L35 34ZM2 35L2 36L3 36L3 35ZM18 35L18 36L19 36L19 35ZM39 35L39 36L38 36L38 37L37 37L37 38L40 38L40 39L41 39L41 38L42 38L42 37L41 37L41 36L40 36L40 35ZM46 35L46 36L47 36L47 35ZM39 36L39 37L40 37L40 36ZM54 36L54 37L55 37L55 36ZM4 37L4 38L5 38L5 37ZM27 37L27 38L28 38L28 37ZM35 38L35 39L34 39L34 40L31 40L31 41L33 41L33 42L32 42L32 43L30 43L30 41L28 41L28 43L27 43L27 44L28 44L28 43L30 43L30 44L32 44L32 43L33 43L33 42L35 42L35 40L36 40L36 38ZM37 39L37 41L38 41L38 42L41 42L41 40L39 40L39 39ZM0 40L0 41L1 41L1 42L0 42L0 43L1 43L1 44L2 44L2 41L1 41L1 40ZM6 41L6 42L7 42L7 41ZM38 43L38 44L39 44L39 45L40 45L40 46L42 46L42 45L43 45L43 44L40 44L40 43ZM54 44L54 45L55 45L55 46L56 46L56 45L55 45L55 44ZM21 45L21 48L23 48L23 47L22 47L22 45ZM36 45L36 46L37 46L37 45ZM1 46L1 47L2 47L2 46ZM21 49L21 50L22 50L22 49ZM27 49L27 52L30 52L30 49ZM49 49L49 52L52 52L52 49ZM28 50L28 51L29 51L29 50ZM37 50L37 51L38 51L38 50ZM50 50L50 51L51 51L51 50ZM53 50L53 51L54 51L54 50ZM16 51L16 53L15 53L15 54L16 54L16 53L18 53L18 52L19 52L19 51ZM24 51L24 53L25 53L25 51ZM56 51L56 52L57 52L57 51ZM8 52L8 57L9 57L9 55L11 55L11 57L12 57L12 55L11 55L11 54L9 54L9 52ZM34 53L34 54L35 54L35 53ZM15 55L15 56L16 56L16 55ZM0 0L0 7L7 7L7 0ZM1 1L1 6L6 6L6 1ZM2 2L2 5L5 5L5 2ZM50 0L50 7L57 7L57 0ZM51 1L51 6L56 6L56 1ZM52 2L52 5L55 5L55 2ZM0 50L0 57L7 57L7 50ZM1 51L1 56L6 56L6 51ZM2 52L2 55L5 55L5 52Z" fill="#000000"/></g></g></svg>
