<?xml version="1.0" encoding="UTF-8"?>
<svg xmlns="http://www.w3.org/2000/svg" version="1.1" width="300" height="300" viewBox="0 0 300 300"><rect x="0" y="0" width="300" height="300" fill="#ffffff"/><g transform="scale(4.918)"><g transform="translate(2,2)"><path fill-rule="evenodd" d="M10 0L10 2L9 2L9 1L8 1L8 2L9 2L9 3L8 3L8 4L9 4L9 5L8 5L8 7L9 7L9 6L10 6L10 9L9 9L9 8L6 8L6 9L8 9L8 10L5 10L5 8L0 8L0 9L1 9L1 10L0 10L0 18L1 18L1 12L2 12L2 11L4 11L4 13L3 13L3 14L5 14L5 15L7 15L7 16L6 16L6 17L3 17L3 16L2 16L2 17L3 17L3 19L0 19L0 21L1 21L1 20L2 20L2 21L3 21L3 22L2 22L2 23L4 23L4 22L5 22L5 24L1 24L1 22L0 22L0 25L1 25L1 26L2 26L2 28L1 28L1 29L0 29L0 32L1 32L1 33L2 33L2 34L3 34L3 36L1 36L1 34L0 34L0 36L1 36L1 38L2 38L2 39L1 39L1 40L0 40L0 42L1 42L1 40L2 40L2 42L3 42L3 41L4 41L4 43L3 43L3 44L0 44L0 48L5 48L5 47L7 47L7 46L5 46L5 45L3 45L3 44L4 44L4 43L5 43L5 44L6 44L6 45L7 45L7 44L6 44L6 43L7 43L7 42L5 42L5 41L8 41L8 43L9 43L9 44L8 44L8 45L9 45L9 44L11 44L11 45L15 45L15 46L14 46L14 47L13 47L13 46L9 46L9 47L8 47L8 48L6 48L6 49L8 49L8 51L9 51L9 50L10 50L10 52L8 52L8 57L10 57L10 54L11 54L11 57L19 57L19 56L20 56L20 57L21 57L21 56L23 56L23 55L24 55L24 56L25 56L25 57L26 57L26 55L27 55L27 56L28 56L28 55L27 55L27 53L28 53L28 54L29 54L29 55L30 55L30 56L29 56L29 57L31 57L31 56L34 56L34 55L33 55L33 54L32 54L32 52L34 52L34 51L35 51L35 52L36 52L36 54L35 54L35 56L36 56L36 57L38 57L38 55L40 55L40 52L41 52L41 54L43 54L43 53L44 53L44 54L45 54L45 55L44 55L44 56L43 56L43 55L42 55L42 57L44 57L44 56L48 56L48 57L49 57L49 56L48 56L48 55L49 55L49 53L50 53L50 55L51 55L51 56L50 56L50 57L52 57L52 56L54 56L54 57L56 57L56 56L55 56L55 53L54 53L54 52L55 52L55 51L56 51L56 52L57 52L57 51L56 51L56 50L57 50L57 49L56 49L56 50L55 50L55 49L53 49L53 48L57 48L57 47L56 47L56 46L57 46L57 43L56 43L56 42L57 42L57 41L54 41L54 40L55 40L55 39L57 39L57 37L56 37L56 36L57 36L57 35L56 35L56 36L55 36L55 34L57 34L57 32L56 32L56 30L57 30L57 29L56 29L56 30L55 30L55 29L54 29L54 28L55 28L55 27L56 27L56 28L57 28L57 27L56 27L56 26L55 26L55 25L56 25L56 24L55 24L55 23L56 23L56 22L57 22L57 20L56 20L56 21L51 21L51 22L50 22L50 19L51 19L51 20L55 20L55 19L53 19L53 18L54 18L54 17L51 17L51 16L52 16L52 15L51 15L51 14L52 14L52 13L51 13L51 14L50 14L50 15L49 15L49 13L50 13L50 11L52 11L52 12L53 12L53 11L54 11L54 12L56 12L56 14L55 14L55 13L54 13L54 15L53 15L53 16L55 16L55 18L57 18L57 17L56 17L56 16L57 16L57 15L56 15L56 14L57 14L57 11L54 11L54 10L53 10L53 9L54 9L54 8L53 8L53 9L52 9L52 8L51 8L51 10L49 10L49 9L50 9L50 8L49 8L49 6L48 6L48 7L47 7L47 5L48 5L48 0L45 0L45 1L47 1L47 2L44 2L44 0L42 0L42 1L41 1L41 0L39 0L39 1L37 1L37 0L36 0L36 1L37 1L37 2L38 2L38 3L36 3L36 5L33 5L33 6L32 6L32 7L31 7L31 4L32 4L32 3L33 3L33 4L35 4L35 3L33 3L33 2L32 2L32 1L34 1L34 2L35 2L35 1L34 1L34 0L32 0L32 1L31 1L31 0L28 0L28 1L27 1L27 2L25 2L25 1L26 1L26 0L24 0L24 1L23 1L23 0L21 0L21 2L19 2L19 1L18 1L18 2L19 2L19 3L17 3L17 1L16 1L16 0L14 0L14 1L15 1L15 2L14 2L14 3L12 3L12 0ZM22 1L22 2L21 2L21 3L20 3L20 4L17 4L17 3L16 3L16 4L15 4L15 3L14 3L14 4L15 4L15 5L16 5L16 4L17 4L17 5L20 5L20 6L19 6L19 7L18 7L18 6L17 6L17 8L16 8L16 6L15 6L15 7L14 7L14 6L13 6L13 7L12 7L12 6L11 6L11 8L13 8L13 7L14 7L14 10L13 10L13 11L14 11L14 12L13 12L13 13L12 13L12 14L13 14L13 15L11 15L11 14L9 14L9 13L8 13L8 12L10 12L10 13L11 13L11 12L12 12L12 10L10 10L10 11L9 11L9 10L8 10L8 12L7 12L7 11L5 11L5 10L4 10L4 11L5 11L5 13L6 13L6 14L7 14L7 13L8 13L8 14L9 14L9 15L10 15L10 16L12 16L12 18L11 18L11 17L10 17L10 19L11 19L11 20L10 20L10 21L9 21L9 22L8 22L8 24L7 24L7 23L6 23L6 24L5 24L5 26L9 26L9 32L10 32L10 33L6 33L6 32L7 32L7 31L4 31L4 30L3 30L3 31L2 31L2 30L1 30L1 31L2 31L2 33L3 33L3 34L4 34L4 33L5 33L5 37L6 37L6 38L5 38L5 40L4 40L4 38L3 38L3 39L2 39L2 40L4 40L4 41L5 41L5 40L7 40L7 39L9 39L9 37L10 37L10 36L9 36L9 35L8 35L8 34L11 34L11 38L12 38L12 36L14 36L14 37L15 37L15 38L16 38L16 37L17 37L17 39L19 39L19 40L21 40L21 41L20 41L20 42L18 42L18 41L16 41L16 39L15 39L15 41L12 41L12 40L13 40L13 39L11 39L11 41L10 41L10 40L8 40L8 41L10 41L10 43L13 43L13 44L14 44L14 43L13 43L13 42L15 42L15 41L16 41L16 43L15 43L15 44L18 44L18 45L16 45L16 46L15 46L15 47L14 47L14 48L15 48L15 47L16 47L16 48L17 48L17 47L18 47L18 45L19 45L19 49L18 49L18 50L19 50L19 49L20 49L20 50L21 50L21 51L22 51L22 53L21 53L21 52L19 52L19 51L16 51L16 50L17 50L17 49L15 49L15 50L13 50L13 49L11 49L11 50L12 50L12 51L11 51L11 52L10 52L10 53L11 53L11 52L12 52L12 53L13 53L13 51L16 51L16 52L15 52L15 53L16 53L16 54L13 54L13 56L15 56L15 55L16 55L16 56L17 56L17 55L18 55L18 54L19 54L19 55L20 55L20 54L19 54L19 53L21 53L21 55L22 55L22 53L23 53L23 54L24 54L24 53L23 53L23 52L24 52L24 51L25 51L25 53L26 53L26 48L25 48L25 50L23 50L23 49L24 49L24 48L21 48L21 47L20 47L20 46L22 46L22 47L26 47L26 46L27 46L27 47L28 47L28 48L32 48L32 50L31 50L31 52L32 52L32 50L33 50L33 51L34 51L34 50L35 50L35 51L36 51L36 52L37 52L37 55L36 55L36 56L37 56L37 55L38 55L38 54L39 54L39 52L40 52L40 51L41 51L41 50L42 50L42 51L44 51L44 53L45 53L45 54L46 54L46 55L47 55L47 53L48 53L48 52L45 52L45 51L46 51L46 50L47 50L47 51L48 51L48 48L50 48L50 47L51 47L51 48L53 48L53 45L51 45L51 44L53 44L53 43L54 43L54 41L52 41L52 40L49 40L49 39L52 39L52 38L55 38L55 36L54 36L54 37L53 37L53 36L52 36L52 34L54 34L54 33L56 33L56 32L54 32L54 31L55 31L55 30L54 30L54 29L53 29L53 31L51 31L51 32L49 32L49 31L48 31L48 29L46 29L46 30L45 30L45 28L44 28L44 27L46 27L46 28L48 28L48 27L46 27L46 26L48 26L48 25L49 25L49 26L51 26L51 25L52 25L52 26L53 26L53 27L55 27L55 26L54 26L54 24L51 24L51 23L50 23L50 22L49 22L49 23L48 23L48 25L45 25L45 24L44 24L44 27L43 27L43 28L42 28L42 26L41 26L41 25L42 25L42 24L43 24L43 23L44 23L44 21L45 21L45 22L46 22L46 24L47 24L47 21L48 21L48 20L47 20L47 19L48 19L48 17L49 17L49 15L46 15L46 16L42 16L42 15L43 15L43 14L42 14L42 11L43 11L43 12L44 12L44 13L45 13L45 12L46 12L46 14L47 14L47 13L49 13L49 12L47 12L47 11L48 11L48 9L49 9L49 8L48 8L48 9L47 9L47 7L46 7L46 5L47 5L47 3L42 3L42 4L43 4L43 7L42 7L42 5L41 5L41 3L40 3L40 5L41 5L41 8L40 8L40 6L39 6L39 8L38 8L38 6L37 6L37 5L39 5L39 4L37 4L37 5L36 5L36 6L35 6L35 7L36 7L36 8L37 8L37 9L36 9L36 10L35 10L35 9L33 9L33 8L32 8L32 9L31 9L31 10L27 10L27 9L26 9L26 6L25 6L25 4L26 4L26 3L25 3L25 2L23 2L23 1ZM29 1L29 2L31 2L31 1ZM39 1L39 2L41 2L41 1ZM42 1L42 2L43 2L43 1ZM22 2L22 3L23 3L23 2ZM27 2L27 3L28 3L28 4L31 4L31 3L28 3L28 2ZM9 3L9 4L11 4L11 5L13 5L13 4L12 4L12 3ZM24 3L24 4L21 4L21 6L20 6L20 7L21 7L21 6L22 6L22 7L23 7L23 8L24 8L24 7L25 7L25 6L24 6L24 7L23 7L23 6L22 6L22 5L24 5L24 4L25 4L25 3ZM44 4L44 5L46 5L46 4ZM27 5L27 8L30 8L30 5ZM28 6L28 7L29 7L29 6ZM33 6L33 7L34 7L34 6ZM36 6L36 7L37 7L37 6ZM44 6L44 8L42 8L42 9L40 9L40 10L43 10L43 11L44 11L44 12L45 12L45 11L47 11L47 10L45 10L45 9L44 9L44 8L46 8L46 7L45 7L45 6ZM15 8L15 9L16 9L16 8ZM17 8L17 9L18 9L18 10L17 10L17 11L18 11L18 10L19 10L19 12L20 12L20 13L18 13L18 12L15 12L15 15L16 15L16 17L15 17L15 18L14 18L14 15L13 15L13 18L12 18L12 22L9 22L9 24L8 24L8 25L10 25L10 23L13 23L13 25L12 25L12 26L11 26L11 27L10 27L10 28L11 28L11 29L10 29L10 31L11 31L11 32L12 32L12 33L15 33L15 34L13 34L13 35L15 35L15 37L16 37L16 36L17 36L17 37L20 37L20 36L21 36L21 34L22 34L22 33L21 33L21 31L22 31L22 29L23 29L23 30L24 30L24 31L23 31L23 36L24 36L24 37L21 37L21 40L22 40L22 39L23 39L23 40L24 40L24 39L23 39L23 38L24 38L24 37L25 37L25 36L24 36L24 34L25 34L25 35L26 35L26 36L27 36L27 37L26 37L26 38L25 38L25 41L23 41L23 43L25 43L25 42L26 42L26 43L27 43L27 44L28 44L28 45L27 45L27 46L28 46L28 47L31 47L31 45L32 45L32 46L33 46L33 47L32 47L32 48L33 48L33 47L35 47L35 46L36 46L36 45L37 45L37 46L38 46L38 44L36 44L36 43L35 43L35 46L33 46L33 45L32 45L32 44L29 44L29 43L33 43L33 44L34 44L34 43L33 43L33 42L32 42L32 41L31 41L31 40L33 40L33 41L36 41L36 42L37 42L37 43L39 43L39 44L40 44L40 42L41 42L41 44L43 44L43 45L42 45L42 46L41 46L41 45L40 45L40 46L39 46L39 47L40 47L40 48L39 48L39 49L40 49L40 50L38 50L38 47L37 47L37 48L35 48L35 50L36 50L36 51L37 51L37 50L38 50L38 51L40 51L40 50L41 50L41 49L40 49L40 48L41 48L41 47L42 47L42 46L43 46L43 48L42 48L42 50L44 50L44 51L45 51L45 50L46 50L46 48L45 48L45 47L47 47L47 46L46 46L46 45L47 45L47 44L48 44L48 43L49 43L49 45L48 45L48 46L49 46L49 47L50 47L50 44L51 44L51 43L50 43L50 42L51 42L51 41L49 41L49 40L48 40L48 41L47 41L47 40L46 40L46 38L45 38L45 37L44 37L44 35L43 35L43 37L42 37L42 34L44 34L44 32L45 32L45 30L43 30L43 29L42 29L42 30L40 30L40 29L39 29L39 30L36 30L36 29L37 29L37 28L38 28L38 25L39 25L39 24L38 24L38 23L37 23L37 22L38 22L38 20L36 20L36 21L37 21L37 22L36 22L36 24L33 24L33 21L32 21L32 20L33 20L33 19L32 19L32 18L34 18L34 19L35 19L35 18L36 18L36 19L40 19L40 20L39 20L39 23L40 23L40 24L42 24L42 23L43 23L43 21L42 21L42 20L46 20L46 19L47 19L47 18L46 18L46 17L48 17L48 16L46 16L46 17L42 17L42 16L41 16L41 15L42 15L42 14L39 14L39 15L38 15L38 16L39 16L39 18L36 18L36 17L37 17L37 16L36 16L36 15L37 15L37 14L38 14L38 12L41 12L41 11L39 11L39 10L38 10L38 9L37 9L37 10L38 10L38 11L37 11L37 12L36 12L36 11L35 11L35 12L34 12L34 10L33 10L33 9L32 9L32 10L33 10L33 11L32 11L32 12L30 12L30 11L27 11L27 10L26 10L26 11L27 11L27 12L25 12L25 13L23 13L23 16L24 16L24 17L23 17L23 18L24 18L24 19L23 19L23 21L19 21L19 18L16 18L16 17L19 17L19 16L20 16L20 17L21 17L21 18L20 18L20 19L21 19L21 20L22 20L22 19L21 19L21 18L22 18L22 17L21 17L21 16L22 16L22 14L21 14L21 16L20 16L20 15L19 15L19 14L20 14L20 13L22 13L22 12L21 12L21 11L22 11L22 9L21 9L21 8L20 8L20 9L19 9L19 8ZM55 8L55 10L57 10L57 9L56 9L56 8ZM2 9L2 10L1 10L1 11L2 11L2 10L3 10L3 9ZM20 9L20 11L21 11L21 9ZM23 9L23 10L25 10L25 9ZM15 10L15 11L16 11L16 10ZM44 10L44 11L45 11L45 10ZM52 10L52 11L53 11L53 10ZM10 11L10 12L11 12L11 11ZM6 12L6 13L7 13L7 12ZM28 12L28 13L27 13L27 14L26 14L26 13L25 13L25 16L28 16L28 17L27 17L27 18L25 18L25 20L27 20L27 18L28 18L28 19L31 19L31 18L32 18L32 17L34 17L34 18L35 18L35 17L36 17L36 16L35 16L35 15L36 15L36 13L33 13L33 12L32 12L32 14L31 14L31 16L30 16L30 13L29 13L29 12ZM13 13L13 14L14 14L14 13ZM16 13L16 15L17 15L17 16L19 16L19 15L18 15L18 13ZM28 13L28 14L27 14L27 15L29 15L29 13ZM32 14L32 16L31 16L31 17L29 17L29 18L31 18L31 17L32 17L32 16L34 16L34 17L35 17L35 16L34 16L34 15L35 15L35 14ZM39 15L39 16L40 16L40 17L41 17L41 16L40 16L40 15ZM50 15L50 16L51 16L51 15ZM7 16L7 17L6 17L6 18L7 18L7 19L6 19L6 20L7 20L7 21L5 21L5 19L4 19L4 20L3 20L3 21L5 21L5 22L7 22L7 21L8 21L8 20L9 20L9 19L8 19L8 17L9 17L9 16ZM50 17L50 18L51 18L51 19L52 19L52 18L51 18L51 17ZM40 18L40 19L41 19L41 20L40 20L40 21L41 21L41 20L42 20L42 19L46 19L46 18ZM13 19L13 20L14 20L14 19ZM16 19L16 20L15 20L15 21L13 21L13 23L16 23L16 24L14 24L14 26L15 26L15 27L18 27L18 26L19 26L19 25L20 25L20 27L19 27L19 29L20 29L20 31L19 31L19 30L17 30L17 29L18 29L18 28L17 28L17 29L16 29L16 30L17 30L17 31L16 31L16 32L18 32L18 31L19 31L19 33L16 33L16 35L17 35L17 36L18 36L18 34L19 34L19 35L20 35L20 34L21 34L21 33L20 33L20 31L21 31L21 29L22 29L22 28L21 28L21 29L20 29L20 27L22 27L22 25L24 25L24 23L22 23L22 22L21 22L21 24L19 24L19 25L16 25L16 24L17 24L17 23L18 23L18 22L19 22L19 23L20 23L20 22L19 22L19 21L18 21L18 20L17 20L17 19ZM28 20L28 21L25 21L25 22L26 22L26 23L25 23L25 24L26 24L26 25L25 25L25 26L24 26L24 27L25 27L25 28L23 28L23 29L25 29L25 30L26 30L26 27L25 27L25 26L26 26L26 25L27 25L27 24L28 24L28 26L29 26L29 25L32 25L32 26L35 26L35 27L36 27L36 28L37 28L37 26L36 26L36 25L33 25L33 24L32 24L32 23L31 23L31 22L30 22L30 21L29 21L29 20ZM15 21L15 22L16 22L16 21ZM17 21L17 22L18 22L18 21ZM23 21L23 22L24 22L24 21ZM27 22L27 23L28 23L28 24L29 24L29 23L30 23L30 24L31 24L31 23L30 23L30 22ZM34 22L34 23L35 23L35 22ZM40 22L40 23L42 23L42 22ZM52 22L52 23L53 23L53 22ZM49 23L49 25L50 25L50 23ZM6 24L6 25L7 25L7 24ZM21 24L21 25L22 25L22 24ZM37 24L37 25L38 25L38 24ZM3 25L3 26L4 26L4 25ZM15 25L15 26L16 26L16 25ZM12 26L12 27L11 27L11 28L12 28L12 27L13 27L13 26ZM39 26L39 27L41 27L41 26ZM5 27L5 30L8 30L8 27ZM27 27L27 30L30 30L30 27ZM33 27L33 28L32 28L32 29L31 29L31 31L29 31L29 32L30 32L30 33L27 33L27 34L26 34L26 33L25 33L25 34L26 34L26 35L27 35L27 36L28 36L28 37L27 37L27 38L28 38L28 37L29 37L29 36L30 36L30 38L31 38L31 39L29 39L29 40L28 40L28 39L27 39L27 41L26 41L26 42L27 42L27 43L28 43L28 42L31 42L31 41L30 41L30 40L31 40L31 39L33 39L33 40L37 40L37 39L36 39L36 36L37 36L37 37L38 37L38 38L40 38L40 39L41 39L41 40L39 40L39 39L38 39L38 41L37 41L37 42L40 42L40 41L41 41L41 42L42 42L42 43L44 43L44 45L45 45L45 43L46 43L46 42L47 42L47 43L48 43L48 42L47 42L47 41L46 41L46 42L45 42L45 40L44 40L44 41L43 41L43 42L42 42L42 40L43 40L43 39L45 39L45 38L44 38L44 37L43 37L43 38L42 38L42 39L41 39L41 36L40 36L40 35L41 35L41 34L42 34L42 33L41 33L41 32L42 32L42 31L43 31L43 32L44 32L44 31L43 31L43 30L42 30L42 31L41 31L41 32L40 32L40 31L36 31L36 32L35 32L35 31L34 31L34 32L31 32L31 31L32 31L32 29L33 29L33 30L35 30L35 29L33 29L33 28L34 28L34 27ZM49 27L49 30L52 30L52 27ZM6 28L6 29L7 29L7 28ZM13 28L13 29L12 29L12 30L13 30L13 29L14 29L14 30L15 30L15 28ZM28 28L28 29L29 29L29 28ZM50 28L50 29L51 29L51 28ZM46 30L46 31L47 31L47 32L48 32L48 31L47 31L47 30ZM3 31L3 33L4 33L4 31ZM13 31L13 32L15 32L15 31ZM25 31L25 32L27 32L27 31ZM36 32L36 34L34 34L34 33L32 33L32 34L34 34L34 35L37 35L37 34L38 34L38 37L40 37L40 36L39 36L39 34L38 34L38 33L37 33L37 32ZM39 32L39 33L40 33L40 32ZM51 32L51 33L50 33L50 34L51 34L51 33L54 33L54 32ZM47 33L47 34L45 34L45 36L46 36L46 37L47 37L47 36L48 36L48 39L49 39L49 36L50 36L50 38L51 38L51 37L52 37L52 36L51 36L51 35L49 35L49 34L48 34L48 33ZM6 34L6 35L7 35L7 34ZM29 34L29 35L30 35L30 36L31 36L31 38L32 38L32 35L30 35L30 34ZM46 35L46 36L47 36L47 35ZM48 35L48 36L49 36L49 35ZM3 36L3 37L4 37L4 36ZM6 36L6 37L9 37L9 36ZM34 36L34 37L35 37L35 36ZM6 38L6 39L7 39L7 38ZM19 38L19 39L20 39L20 38ZM33 38L33 39L34 39L34 38ZM53 39L53 40L54 40L54 39ZM11 41L11 42L12 42L12 41ZM21 41L21 42L20 42L20 43L22 43L22 41ZM17 42L17 43L18 43L18 42ZM44 42L44 43L45 43L45 42ZM55 43L55 44L54 44L54 45L55 45L55 46L54 46L54 47L55 47L55 46L56 46L56 43ZM19 44L19 45L22 45L22 44ZM25 44L25 45L23 45L23 46L25 46L25 45L26 45L26 44ZM1 45L1 47L2 47L2 45ZM28 45L28 46L29 46L29 45ZM3 46L3 47L5 47L5 46ZM40 46L40 47L41 47L41 46ZM44 46L44 47L45 47L45 46ZM9 47L9 48L13 48L13 47ZM43 48L43 49L44 49L44 50L45 50L45 48ZM21 49L21 50L22 50L22 49ZM27 49L27 52L30 52L30 49ZM33 49L33 50L34 50L34 49ZM49 49L49 52L52 52L52 49ZM28 50L28 51L29 51L29 50ZM50 50L50 51L51 51L51 50ZM53 50L53 51L54 51L54 50ZM17 52L17 53L19 53L19 52ZM29 53L29 54L30 54L30 53ZM53 53L53 54L51 54L51 55L53 55L53 54L54 54L54 53ZM25 54L25 55L26 55L26 54ZM0 0L0 7L7 7L7 0ZM1 1L1 6L6 6L6 1ZM2 2L2 5L5 5L5 2ZM50 0L50 7L57 7L57 0ZM51 1L51 6L56 6L56 1ZM52 2L52 5L55 5L55 2ZM0 50L0 57L7 57L7 50ZM1 51L1 56L6 56L6 51ZM2 52L2 55L5 55L5 52Z" fill="#000000"/></g></g></svg>
