<?xml version="1.0" encoding="UTF-8"?>
<svg xmlns="http://www.w3.org/2000/svg" version="1.1" width="300" height="300" viewBox="0 0 300 300"><rect x="0" y="0" width="300" height="300" fill="#ffffff"/><g transform="scale(4.918)"><g transform="translate(2,2)"><path fill-rule="evenodd" d="M9 0L9 1L8 1L8 2L9 2L9 3L8 3L8 4L9 4L9 5L8 5L8 7L9 7L9 8L6 8L6 9L9 9L9 10L5 10L5 11L3 11L3 9L5 9L5 8L0 8L0 12L2 12L2 11L3 11L3 12L4 12L4 13L3 13L3 14L1 14L1 13L0 13L0 15L1 15L1 16L0 16L0 17L1 17L1 18L3 18L3 19L1 19L1 22L0 22L0 23L2 23L2 24L0 24L0 25L2 25L2 26L0 26L0 27L2 27L2 26L3 26L3 27L4 27L4 29L3 29L3 30L4 30L4 32L3 32L3 34L5 34L5 35L7 35L7 36L6 36L6 37L7 37L7 36L8 36L8 37L9 37L9 36L8 36L8 34L9 34L9 35L12 35L12 36L13 36L13 37L12 37L12 38L13 38L13 39L11 39L11 38L10 38L10 39L11 39L11 43L12 43L12 41L14 41L14 42L15 42L15 41L16 41L16 40L17 40L17 41L18 41L18 42L17 42L17 43L15 43L15 44L16 44L16 45L15 45L15 46L14 46L14 47L13 47L13 45L14 45L14 43L13 43L13 44L12 44L12 45L11 45L11 46L10 46L10 44L9 44L9 42L10 42L10 41L9 41L9 42L8 42L8 43L7 43L7 42L6 42L6 43L7 43L7 44L4 44L4 45L3 45L3 43L4 43L4 42L5 42L5 41L8 41L8 38L5 38L5 37L4 37L4 35L2 35L2 33L1 33L1 31L2 31L2 28L0 28L0 30L1 30L1 31L0 31L0 34L1 34L1 35L2 35L2 36L0 36L0 37L1 37L1 39L0 39L0 43L1 43L1 45L0 45L0 48L5 48L5 47L8 47L8 51L9 51L9 50L10 50L10 52L8 52L8 57L9 57L9 54L10 54L10 55L11 55L11 54L10 54L10 53L13 53L13 54L12 54L12 55L13 55L13 56L11 56L11 57L14 57L14 56L15 56L15 57L19 57L19 56L20 56L20 57L21 57L21 56L22 56L22 54L23 54L23 55L24 55L24 56L25 56L25 57L26 57L26 56L28 56L28 55L26 55L26 54L27 54L27 53L28 53L28 54L29 54L29 55L30 55L30 57L32 57L32 56L33 56L33 54L34 54L34 55L36 55L36 56L34 56L34 57L39 57L39 56L40 56L40 52L43 52L43 53L41 53L41 54L42 54L42 55L43 55L43 53L44 53L44 54L45 54L45 53L44 53L44 51L42 51L42 50L43 50L43 49L44 49L44 48L45 48L45 47L47 47L47 46L46 46L46 45L47 45L47 44L48 44L48 43L49 43L49 47L50 47L50 48L48 48L48 51L47 51L47 50L46 50L46 49L47 49L47 48L46 48L46 49L45 49L45 50L46 50L46 51L47 51L47 52L48 52L48 53L51 53L51 54L50 54L50 55L49 55L49 54L47 54L47 55L49 55L49 56L50 56L50 57L52 57L52 56L54 56L54 57L56 57L56 56L55 56L55 53L54 53L54 54L53 54L53 52L55 52L55 51L54 51L54 50L55 50L55 49L54 49L54 48L55 48L55 45L54 45L54 44L57 44L57 43L56 43L56 42L57 42L57 41L56 41L56 42L55 42L55 39L57 39L57 37L55 37L55 39L52 39L52 38L51 38L51 41L49 41L49 42L48 42L48 43L45 43L45 47L44 47L44 44L43 44L43 43L44 43L44 42L45 42L45 41L44 41L44 40L49 40L49 39L50 39L50 37L52 37L52 36L55 36L55 34L57 34L57 32L55 32L55 31L54 31L54 32L51 32L51 31L53 31L53 30L55 30L55 29L56 29L56 30L57 30L57 29L56 29L56 26L57 26L57 25L56 25L56 24L57 24L57 23L56 23L56 22L57 22L57 19L56 19L56 21L55 21L55 23L54 23L54 22L53 22L53 23L52 23L52 22L50 22L50 19L49 19L49 21L48 21L48 18L50 18L50 16L48 16L48 17L47 17L47 18L46 18L46 17L44 17L44 16L47 16L47 15L51 15L51 16L55 16L55 15L56 15L56 16L57 16L57 15L56 15L56 14L57 14L57 12L56 12L56 13L54 13L54 14L55 14L55 15L51 15L51 14L52 14L52 13L51 13L51 14L50 14L50 13L47 13L47 14L46 14L46 12L45 12L45 14L44 14L44 12L43 12L43 9L44 9L44 10L46 10L46 11L47 11L47 12L50 12L50 11L51 11L51 10L53 10L53 11L52 11L52 12L53 12L53 11L54 11L54 12L55 12L55 11L54 11L54 10L53 10L53 9L54 9L54 8L53 8L53 9L52 9L52 8L51 8L51 10L49 10L49 9L50 9L50 8L49 8L49 9L48 9L48 8L47 8L47 9L48 9L48 10L46 10L46 9L44 9L44 8L43 8L43 9L42 9L42 8L41 8L41 9L39 9L39 8L38 8L38 7L39 7L39 6L40 6L40 7L41 7L41 6L40 6L40 3L41 3L41 2L42 2L42 3L45 3L45 4L44 4L44 5L45 5L45 6L44 6L44 7L45 7L45 6L46 6L46 7L47 7L47 5L48 5L48 0L46 0L46 1L45 1L45 0L44 0L44 1L45 1L45 2L42 2L42 1L43 1L43 0L42 0L42 1L41 1L41 2L39 2L39 1L40 1L40 0L39 0L39 1L38 1L38 0L37 0L37 1L32 1L32 2L30 2L30 3L29 3L29 2L28 2L28 0L27 0L27 1L26 1L26 0L24 0L24 1L23 1L23 0L21 0L21 1L23 1L23 2L22 2L22 3L23 3L23 2L24 2L24 4L21 4L21 5L24 5L24 4L25 4L25 6L24 6L24 7L23 7L23 6L22 6L22 7L23 7L23 9L22 9L22 8L19 8L19 6L20 6L20 7L21 7L21 6L20 6L20 5L17 5L17 4L20 4L20 3L17 3L17 4L16 4L16 2L17 2L17 1L18 1L18 2L20 2L20 0L17 0L17 1L16 1L16 2L15 2L15 4L14 4L14 5L15 5L15 6L14 6L14 7L13 7L13 2L14 2L14 1L15 1L15 0L14 0L14 1L13 1L13 0L12 0L12 1L11 1L11 0ZM29 0L29 1L31 1L31 0ZM9 1L9 2L10 2L10 1ZM12 1L12 2L11 2L11 3L10 3L10 6L9 6L9 7L10 7L10 6L11 6L11 8L9 8L9 9L12 9L12 11L11 11L11 10L10 10L10 11L8 11L8 12L7 12L7 11L6 11L6 12L7 12L7 13L5 13L5 14L8 14L8 15L6 15L6 16L8 16L8 17L6 17L6 18L4 18L4 19L3 19L3 20L2 20L2 21L3 21L3 22L7 22L7 23L6 23L6 24L7 24L7 25L5 25L5 23L3 23L3 24L2 24L2 25L3 25L3 26L8 26L8 24L9 24L9 23L10 23L10 25L9 25L9 29L11 29L11 31L10 31L10 30L9 30L9 31L8 31L8 32L9 32L9 31L10 31L10 33L9 33L9 34L10 34L10 33L11 33L11 31L12 31L12 32L13 32L13 31L14 31L14 29L16 29L16 31L17 31L17 33L15 33L15 32L14 32L14 33L13 33L13 34L16 34L16 35L17 35L17 34L19 34L19 33L20 33L20 37L17 37L17 36L16 36L16 37L15 37L15 36L14 36L14 38L16 38L16 37L17 37L17 38L20 38L20 39L19 39L19 40L21 40L21 38L22 38L22 39L24 39L24 40L22 40L22 41L19 41L19 42L18 42L18 43L17 43L17 44L18 44L18 45L16 45L16 46L15 46L15 47L16 47L16 48L17 48L17 49L15 49L15 48L14 48L14 49L13 49L13 50L14 50L14 49L15 49L15 50L19 50L19 49L20 49L20 50L21 50L21 51L23 51L23 52L20 52L20 51L19 51L19 53L18 53L18 52L17 52L17 51L16 51L16 52L15 52L15 51L14 51L14 52L15 52L15 53L16 53L16 54L15 54L15 55L16 55L16 56L17 56L17 55L18 55L18 54L19 54L19 55L20 55L20 54L19 54L19 53L23 53L23 54L24 54L24 53L23 53L23 52L24 52L24 51L25 51L25 53L26 53L26 51L25 51L25 50L26 50L26 46L27 46L27 48L31 48L31 49L32 49L32 50L31 50L31 52L32 52L32 54L33 54L33 53L34 53L34 54L36 54L36 52L37 52L37 53L38 53L38 54L37 54L37 55L38 55L38 54L39 54L39 52L40 52L40 51L41 51L41 50L42 50L42 49L43 49L43 48L44 48L44 47L43 47L43 46L42 46L42 45L43 45L43 44L40 44L40 41L43 41L43 40L44 40L44 39L45 39L45 38L46 38L46 39L48 39L48 38L49 38L49 35L47 35L47 36L46 36L46 34L47 34L47 33L48 33L48 34L49 34L49 31L48 31L48 29L46 29L46 30L42 30L42 29L43 29L43 28L44 28L44 29L45 29L45 27L46 27L46 28L47 28L47 27L48 27L48 25L49 25L49 26L53 26L53 27L55 27L55 26L56 26L56 25L55 25L55 26L54 26L54 24L50 24L50 22L48 22L48 21L45 21L45 20L43 20L43 19L46 19L46 20L47 20L47 19L46 19L46 18L42 18L42 17L43 17L43 16L44 16L44 14L42 14L42 10L41 10L41 12L40 12L40 11L39 11L39 9L38 9L38 8L37 8L37 9L38 9L38 11L39 11L39 12L38 12L38 13L37 13L37 14L40 14L40 15L41 15L41 14L42 14L42 15L43 15L43 16L42 16L42 17L41 17L41 16L39 16L39 15L38 15L38 16L37 16L37 15L36 15L36 16L35 16L35 15L34 15L34 16L35 16L35 17L34 17L34 18L32 18L32 19L34 19L34 18L39 18L39 17L40 17L40 19L35 19L35 20L34 20L34 21L33 21L33 20L32 20L32 21L33 21L33 23L34 23L34 25L33 25L33 24L32 24L32 23L31 23L31 22L29 22L29 20L28 20L28 19L31 19L31 18L29 18L29 17L33 17L33 16L30 16L30 15L33 15L33 14L35 14L35 13L33 13L33 11L34 11L34 12L36 12L36 11L34 11L34 10L35 10L35 9L34 9L34 10L30 10L30 9L26 9L26 6L25 6L25 7L24 7L24 9L23 9L23 10L22 10L22 9L19 9L19 10L18 10L18 11L17 11L17 9L16 9L16 6L15 6L15 7L14 7L14 8L13 8L13 7L12 7L12 5L11 5L11 4L12 4L12 2L13 2L13 1ZM24 1L24 2L26 2L26 1ZM37 1L37 2L34 2L34 3L32 3L32 4L31 4L31 3L30 3L30 4L31 4L31 7L32 7L32 6L33 6L33 8L31 8L31 9L33 9L33 8L36 8L36 6L37 6L37 7L38 7L38 6L37 6L37 5L39 5L39 4L37 4L37 5L36 5L36 3L39 3L39 2L38 2L38 1ZM46 1L46 2L47 2L47 1ZM27 2L27 3L28 3L28 4L29 4L29 3L28 3L28 2ZM25 3L25 4L26 4L26 3ZM34 3L34 4L35 4L35 3ZM46 3L46 4L45 4L45 5L47 5L47 3ZM15 4L15 5L16 5L16 4ZM41 4L41 5L43 5L43 4ZM27 5L27 8L30 8L30 5ZM35 5L35 6L34 6L34 7L35 7L35 6L36 6L36 5ZM17 6L17 7L18 7L18 6ZM28 6L28 7L29 7L29 6ZM42 6L42 7L43 7L43 6ZM48 6L48 7L49 7L49 6ZM55 8L55 9L56 9L56 10L57 10L57 9L56 9L56 8ZM13 9L13 10L16 10L16 9ZM24 9L24 10L23 10L23 11L25 11L25 9ZM1 10L1 11L2 11L2 10ZM21 10L21 11L20 11L20 12L19 12L19 13L18 13L18 12L16 12L16 11L15 11L15 13L18 13L18 14L17 14L17 15L16 15L16 14L15 14L15 15L14 15L14 16L16 16L16 17L17 17L17 15L18 15L18 17L19 17L19 18L17 18L17 19L19 19L19 20L18 20L18 21L17 21L17 25L18 25L18 27L17 27L17 28L16 28L16 29L17 29L17 30L18 30L18 31L20 31L20 29L21 29L21 31L22 31L22 32L23 32L23 31L27 31L27 33L26 33L26 34L25 34L25 32L24 32L24 33L23 33L23 36L24 36L24 37L22 37L22 35L21 35L21 37L22 37L22 38L24 38L24 37L25 37L25 36L24 36L24 34L25 34L25 35L27 35L27 33L29 33L29 31L31 31L31 32L30 32L30 33L31 33L31 32L36 32L36 33L35 33L35 34L33 34L33 33L32 33L32 34L33 34L33 35L35 35L35 34L36 34L36 35L40 35L40 36L39 36L39 38L38 38L38 36L36 36L36 38L37 38L37 40L36 40L36 39L35 39L35 40L34 40L34 41L35 41L35 42L34 42L34 43L32 43L32 42L33 42L33 41L31 41L31 40L33 40L33 39L34 39L34 38L33 38L33 39L31 39L31 38L32 38L32 35L31 35L31 34L29 34L29 37L28 37L28 36L27 36L27 37L28 37L28 38L26 38L26 39L25 39L25 40L24 40L24 41L22 41L22 42L21 42L21 43L20 43L20 42L19 42L19 43L20 43L20 44L19 44L19 45L18 45L18 46L17 46L17 47L18 47L18 49L19 49L19 47L20 47L20 46L19 46L19 45L22 45L22 44L21 44L21 43L22 43L22 42L23 42L23 43L24 43L24 44L23 44L23 45L24 45L24 46L22 46L22 48L23 48L23 47L25 47L25 45L26 45L26 44L25 44L25 43L24 43L24 42L26 42L26 43L31 43L31 44L34 44L34 43L35 43L35 44L36 44L36 45L35 45L35 46L33 46L33 45L32 45L32 46L33 46L33 47L31 47L31 46L30 46L30 45L29 45L29 44L28 44L28 45L27 45L27 46L28 46L28 45L29 45L29 47L31 47L31 48L33 48L33 50L34 50L34 53L35 53L35 52L36 52L36 51L37 51L37 50L38 50L38 51L40 51L40 50L41 50L41 49L40 49L40 50L38 50L38 48L43 48L43 47L42 47L42 46L41 46L41 47L38 47L38 48L34 48L34 47L35 47L35 46L36 46L36 47L37 47L37 46L38 46L38 43L37 43L37 44L36 44L36 41L37 41L37 42L38 42L38 41L39 41L39 40L38 40L38 39L39 39L39 38L40 38L40 36L42 36L42 38L41 38L41 40L43 40L43 39L42 39L42 38L43 38L43 37L44 37L44 38L45 38L45 37L44 37L44 32L46 32L46 31L47 31L47 32L48 32L48 31L47 31L47 30L46 30L46 31L44 31L44 32L43 32L43 31L42 31L42 30L41 30L41 29L40 29L40 28L41 28L41 27L42 27L42 28L43 28L43 27L42 27L42 26L43 26L43 25L44 25L44 23L46 23L46 22L45 22L45 21L44 21L44 23L42 23L42 22L43 22L43 21L42 21L42 18L41 18L41 19L40 19L40 20L39 20L39 24L40 24L40 22L41 22L41 23L42 23L42 24L43 24L43 25L42 25L42 26L41 26L41 25L39 25L39 26L38 26L38 24L36 24L36 23L38 23L38 20L36 20L36 21L37 21L37 22L36 22L36 23L35 23L35 22L34 22L34 23L35 23L35 24L36 24L36 25L35 25L35 26L33 26L33 27L31 27L31 25L32 25L32 24L31 24L31 23L27 23L27 24L30 24L30 25L29 25L29 26L27 26L27 25L26 25L26 24L25 24L25 23L26 23L26 22L25 22L25 21L27 21L27 22L28 22L28 21L27 21L27 20L25 20L25 19L26 19L26 18L27 18L27 19L28 19L28 18L27 18L27 17L28 17L28 16L25 16L25 13L28 13L28 14L26 14L26 15L29 15L29 13L30 13L30 14L31 14L31 13L32 13L32 12L30 12L30 10L29 10L29 11L28 11L28 10L26 10L26 11L27 11L27 12L25 12L25 13L24 13L24 12L23 12L23 13L24 13L24 15L23 15L23 21L19 21L19 20L21 20L21 19L22 19L22 17L21 17L21 19L19 19L19 18L20 18L20 17L19 17L19 15L21 15L21 16L22 16L22 14L19 14L19 13L22 13L22 12L21 12L21 11L22 11L22 10ZM48 10L48 11L49 11L49 10ZM13 11L13 12L14 12L14 11ZM9 12L9 13L8 13L8 14L9 14L9 13L10 13L10 12ZM11 12L11 15L9 15L9 16L11 16L11 15L13 15L13 14L14 14L14 13L12 13L12 12ZM28 12L28 13L29 13L29 12ZM39 12L39 13L40 13L40 12ZM2 15L2 17L4 17L4 16L5 16L5 15L4 15L4 16L3 16L3 15ZM36 16L36 17L37 17L37 16ZM38 16L38 17L39 17L39 16ZM8 17L8 18L6 18L6 19L7 19L7 20L6 20L6 21L7 21L7 20L8 20L8 21L9 21L9 20L8 20L8 18L9 18L9 19L12 19L12 18L13 18L13 19L14 19L14 20L13 20L13 21L15 21L15 22L13 22L13 24L14 24L14 25L10 25L10 27L11 27L11 28L12 28L12 29L13 29L13 28L15 28L15 27L14 27L14 25L16 25L16 23L15 23L15 22L16 22L16 21L15 21L15 20L16 20L16 19L15 19L15 17L12 17L12 18L11 18L11 17ZM25 17L25 18L26 18L26 17ZM52 17L52 18L51 18L51 19L52 19L52 20L55 20L55 19L54 19L54 18L55 18L55 17L54 17L54 18L53 18L53 17ZM56 17L56 18L57 18L57 17ZM52 18L52 19L53 19L53 18ZM4 19L4 21L5 21L5 19ZM11 20L11 21L10 21L10 22L11 22L11 23L12 23L12 22L11 22L11 21L12 21L12 20ZM40 20L40 21L41 21L41 22L42 22L42 21L41 21L41 20ZM18 21L18 22L19 22L19 23L20 23L20 22L19 22L19 21ZM23 21L23 22L21 22L21 25L20 25L20 27L19 27L19 29L20 29L20 28L21 28L21 29L22 29L22 31L23 31L23 29L25 29L25 30L26 30L26 27L24 27L24 26L23 26L23 24L24 24L24 23L23 23L23 22L24 22L24 21ZM14 23L14 24L15 24L15 23ZM48 23L48 24L45 24L45 26L44 26L44 27L45 27L45 26L46 26L46 27L47 27L47 26L46 26L46 25L48 25L48 24L49 24L49 23ZM55 23L55 24L56 24L56 23ZM25 25L25 26L26 26L26 25ZM11 26L11 27L12 27L12 26ZM22 26L22 27L21 27L21 28L22 28L22 29L23 29L23 26ZM35 26L35 27L36 27L36 28L35 28L35 29L33 29L33 28L34 28L34 27L33 27L33 28L31 28L31 29L32 29L32 30L31 30L31 31L33 31L33 30L36 30L36 28L37 28L37 30L39 30L39 29L38 29L38 28L40 28L40 27L38 27L38 26L37 26L37 27L36 27L36 26ZM5 27L5 30L8 30L8 27ZM27 27L27 30L30 30L30 27ZM37 27L37 28L38 28L38 27ZM49 27L49 30L52 30L52 27ZM6 28L6 29L7 29L7 28ZM17 28L17 29L18 29L18 28ZM28 28L28 29L29 29L29 28ZM50 28L50 29L51 29L51 28ZM54 28L54 29L55 29L55 28ZM40 30L40 31L38 31L38 32L37 32L37 31L36 31L36 32L37 32L37 33L36 33L36 34L40 34L40 35L43 35L43 34L41 34L41 33L43 33L43 32L40 32L40 31L41 31L41 30ZM6 31L6 32L5 32L5 34L8 34L8 33L6 33L6 32L7 32L7 31ZM18 32L18 33L19 33L19 32ZM38 32L38 33L40 33L40 32ZM50 32L50 35L51 35L51 36L52 36L52 34L55 34L55 32L54 32L54 33L51 33L51 32ZM21 33L21 34L22 34L22 33ZM45 33L45 34L46 34L46 33ZM30 35L30 38L31 38L31 35ZM56 35L56 36L57 36L57 35ZM33 36L33 37L35 37L35 36ZM2 37L2 39L1 39L1 43L3 43L3 42L4 42L4 41L2 41L2 39L3 39L3 40L4 40L4 39L3 39L3 38L4 38L4 37ZM53 37L53 38L54 38L54 37ZM5 39L5 40L7 40L7 39ZM13 39L13 40L14 40L14 41L15 41L15 40L16 40L16 39L15 39L15 40L14 40L14 39ZM17 39L17 40L18 40L18 39ZM27 39L27 41L26 41L26 42L31 42L31 41L28 41L28 39ZM29 39L29 40L31 40L31 39ZM35 40L35 41L36 41L36 40ZM51 41L51 42L50 42L50 43L51 43L51 44L50 44L50 47L51 47L51 48L54 48L54 45L51 45L51 44L52 44L52 43L51 43L51 42L53 42L53 43L54 43L54 41ZM42 42L42 43L43 43L43 42ZM24 44L24 45L25 45L25 44ZM1 45L1 47L2 47L2 45ZM6 45L6 46L8 46L8 47L9 47L9 46L8 46L8 45ZM39 45L39 46L40 46L40 45ZM56 45L56 46L57 46L57 45ZM3 46L3 47L5 47L5 46ZM11 46L11 47L10 47L10 50L11 50L11 52L13 52L13 51L12 51L12 50L11 50L11 48L13 48L13 47L12 47L12 46ZM18 46L18 47L19 47L19 46ZM51 46L51 47L52 47L52 46ZM56 47L56 48L57 48L57 47ZM6 48L6 49L7 49L7 48ZM24 48L24 49L23 49L23 51L24 51L24 50L25 50L25 48ZM21 49L21 50L22 50L22 49ZM27 49L27 52L30 52L30 49ZM34 49L34 50L36 50L36 49ZM49 49L49 52L52 52L52 49ZM56 49L56 50L57 50L57 49ZM28 50L28 51L29 51L29 50ZM50 50L50 51L51 51L51 50ZM32 51L32 52L33 52L33 51ZM56 52L56 53L57 53L57 52ZM17 53L17 54L18 54L18 53ZM30 53L30 54L31 54L31 53ZM51 54L51 55L50 55L50 56L51 56L51 55L53 55L53 54ZM25 55L25 56L26 56L26 55ZM31 55L31 56L32 56L32 55ZM45 55L45 56L46 56L46 55ZM41 56L41 57L44 57L44 56ZM47 56L47 57L48 57L48 56ZM0 0L0 7L7 7L7 0ZM1 1L1 6L6 6L6 1ZM2 2L2 5L5 5L5 2ZM50 0L50 7L57 7L57 0ZM51 1L51 6L56 6L56 1ZM52 2L52 5L55 5L55 2ZM0 50L0 57L7 57L7 50ZM1 51L1 56L6 56L6 51ZM2 52L2 55L5 55L5 52Z" fill="#000000"/></g></g></svg>
