<?xml version="1.0" encoding="UTF-8"?>
<svg xmlns="http://www.w3.org/2000/svg" version="1.1" width="300" height="300" viewBox="0 0 300 300"><rect x="0" y="0" width="300" height="300" fill="#ffffff"/><g transform="scale(4.918)"><g transform="translate(2,2)"><path fill-rule="evenodd" d="M9 0L9 1L8 1L8 2L9 2L9 3L8 3L8 4L9 4L9 3L10 3L10 2L11 2L11 4L10 4L10 5L8 5L8 7L9 7L9 6L10 6L10 10L12 10L12 9L14 9L14 10L16 10L16 9L17 9L17 11L16 11L16 13L15 13L15 14L14 14L14 13L13 13L13 14L14 14L14 16L13 16L13 15L12 15L12 14L11 14L11 15L12 15L12 16L13 16L13 19L12 19L12 21L11 21L11 23L12 23L12 25L13 25L13 28L12 28L12 29L14 29L14 31L16 31L16 30L15 30L15 29L17 29L17 32L15 32L15 35L14 35L14 33L12 33L12 31L13 31L13 30L11 30L11 29L10 29L10 30L11 30L11 32L10 32L10 31L9 31L9 26L10 26L10 28L11 28L11 27L12 27L12 26L11 26L11 25L9 25L9 24L10 24L10 23L9 23L9 24L8 24L8 23L7 23L7 22L6 22L6 23L7 23L7 24L5 24L5 22L4 22L4 21L7 21L7 20L5 20L5 19L2 19L2 18L1 18L1 17L0 17L0 19L2 19L2 23L1 23L1 24L0 24L0 27L1 27L1 30L2 30L2 31L1 31L1 32L3 32L3 33L2 33L2 34L3 34L3 35L0 35L0 38L1 38L1 39L0 39L0 42L1 42L1 43L0 43L0 45L4 45L4 46L5 46L5 47L3 47L3 46L2 46L2 47L1 47L1 46L0 46L0 48L5 48L5 47L7 47L7 48L6 48L6 49L7 49L7 48L8 48L8 51L9 51L9 52L8 52L8 57L9 57L9 56L10 56L10 57L14 57L14 56L12 56L12 55L13 55L13 54L14 54L14 55L15 55L15 57L20 57L20 56L21 56L21 53L22 53L22 56L24 56L24 57L26 57L26 56L28 56L28 55L26 55L26 54L27 54L27 53L28 53L28 54L29 54L29 57L32 57L32 56L35 56L35 57L37 57L37 56L38 56L38 57L39 57L39 56L38 56L38 52L39 52L39 55L40 55L40 56L41 56L41 57L42 57L42 56L43 56L43 57L44 57L44 56L43 56L43 55L42 55L42 54L43 54L43 53L44 53L44 54L45 54L45 55L47 55L47 54L48 54L48 56L49 56L49 55L50 55L50 54L48 54L48 53L51 53L51 54L53 54L53 55L51 55L51 56L50 56L50 57L52 57L52 56L55 56L55 57L56 57L56 56L55 56L55 53L54 53L54 52L55 52L55 51L56 51L56 52L57 52L57 51L56 51L56 50L57 50L57 49L56 49L56 50L55 50L55 49L54 49L54 50L53 50L53 47L52 47L52 45L54 45L54 46L57 46L57 45L54 45L54 44L56 44L56 42L57 42L57 41L54 41L54 40L56 40L56 39L54 39L54 36L56 36L56 37L57 37L57 36L56 36L56 34L57 34L57 33L56 33L56 32L57 32L57 31L56 31L56 32L55 32L55 30L57 30L57 29L55 29L55 30L53 30L53 29L54 29L54 28L55 28L55 27L56 27L56 28L57 28L57 27L56 27L56 26L55 26L55 25L54 25L54 26L55 26L55 27L53 27L53 25L51 25L51 26L50 26L50 24L49 24L49 25L48 25L48 23L49 23L49 22L50 22L50 23L51 23L51 24L53 24L53 23L51 23L51 22L52 22L52 20L57 20L57 19L56 19L56 18L57 18L57 17L55 17L55 18L53 18L53 19L52 19L52 18L50 18L50 16L52 16L52 15L51 15L51 14L52 14L52 13L51 13L51 14L49 14L49 13L50 13L50 12L51 12L51 11L52 11L52 12L53 12L53 11L54 11L54 12L55 12L55 11L56 11L56 13L54 13L54 15L53 15L53 17L54 17L54 16L57 16L57 15L55 15L55 14L57 14L57 11L56 11L56 8L55 8L55 11L54 11L54 10L52 10L52 8L51 8L51 10L50 10L50 8L49 8L49 6L48 6L48 8L49 8L49 9L48 9L48 10L50 10L50 12L49 12L49 13L47 13L47 14L46 14L46 12L45 12L45 11L43 11L43 9L44 9L44 10L45 10L45 9L44 9L44 8L46 8L46 9L47 9L47 8L46 8L46 7L47 7L47 5L48 5L48 0L46 0L46 1L44 1L44 2L39 2L39 1L38 1L38 0L37 0L37 1L36 1L36 0L35 0L35 1L34 1L34 0L33 0L33 1L32 1L32 2L30 2L30 1L31 1L31 0L30 0L30 1L29 1L29 2L28 2L28 3L26 3L26 2L27 2L27 1L25 1L25 0L21 0L21 1L23 1L23 2L24 2L24 3L23 3L23 4L21 4L21 6L20 6L20 5L19 5L19 6L18 6L18 7L17 7L17 5L18 5L18 4L20 4L20 3L18 3L18 4L16 4L16 2L20 2L20 0L19 0L19 1L16 1L16 2L14 2L14 1L15 1L15 0L13 0L13 1L12 1L12 0ZM41 0L41 1L43 1L43 0ZM9 1L9 2L10 2L10 1ZM24 1L24 2L25 2L25 1ZM33 1L33 2L34 2L34 3L32 3L32 4L31 4L31 3L30 3L30 4L31 4L31 8L32 8L32 9L31 9L31 10L32 10L32 9L34 9L34 10L33 10L33 11L31 11L31 12L30 12L30 13L31 13L31 12L32 12L32 13L33 13L33 14L35 14L35 15L34 15L34 16L30 16L30 14L29 14L29 15L28 15L28 16L27 16L27 14L28 14L28 13L29 13L29 12L28 12L28 13L27 13L27 14L26 14L26 13L25 13L25 12L27 12L27 11L26 11L26 10L28 10L28 11L30 11L30 10L29 10L29 9L25 9L25 8L26 8L26 6L25 6L25 5L26 5L26 4L25 4L25 3L24 3L24 4L23 4L23 5L24 5L24 6L23 6L23 8L22 8L22 6L21 6L21 7L20 7L20 6L19 6L19 9L18 9L18 8L17 8L17 9L18 9L18 11L17 11L17 12L18 12L18 13L16 13L16 14L15 14L15 15L16 15L16 17L15 17L15 16L14 16L14 17L15 17L15 18L16 18L16 20L15 20L15 21L13 21L13 22L14 22L14 23L13 23L13 24L15 24L15 23L16 23L16 24L19 24L19 23L20 23L20 22L19 22L19 21L21 21L21 22L22 22L22 21L23 21L23 18L21 18L21 17L25 17L25 18L24 18L24 21L25 21L25 22L23 22L23 24L22 24L22 23L21 23L21 25L14 25L14 27L15 27L15 28L17 28L17 29L18 29L18 28L17 28L17 27L18 27L18 26L22 26L22 27L25 27L25 28L24 28L24 29L23 29L23 28L21 28L21 27L20 27L20 28L21 28L21 29L19 29L19 30L18 30L18 31L19 31L19 30L21 30L21 31L20 31L20 32L19 32L19 33L16 33L16 35L15 35L15 36L14 36L14 37L13 37L13 34L12 34L12 33L11 33L11 36L10 36L10 35L9 35L9 36L7 36L7 35L8 35L8 33L6 33L6 34L7 34L7 35L4 35L4 36L3 36L3 38L4 38L4 39L1 39L1 40L2 40L2 41L1 41L1 42L2 42L2 43L1 43L1 44L4 44L4 43L6 43L6 44L7 44L7 43L6 43L6 42L9 42L9 41L10 41L10 44L8 44L8 45L10 45L10 46L8 46L8 47L10 47L10 48L11 48L11 50L12 50L12 52L11 52L11 51L10 51L10 52L9 52L9 53L10 53L10 52L11 52L11 53L12 53L12 54L10 54L10 56L11 56L11 55L12 55L12 54L13 54L13 53L14 53L14 54L15 54L15 55L16 55L16 56L18 56L18 55L17 55L17 53L18 53L18 54L19 54L19 55L20 55L20 54L19 54L19 53L21 53L21 51L23 51L23 52L22 52L22 53L24 53L24 51L25 51L25 53L26 53L26 51L25 51L25 50L26 50L26 48L27 48L27 47L26 47L26 46L27 46L27 45L28 45L28 48L29 48L29 45L28 45L28 44L29 44L29 43L30 43L30 46L31 46L31 47L30 47L30 48L31 48L31 52L32 52L32 54L33 54L33 55L34 55L34 54L37 54L37 53L34 53L34 52L36 52L36 50L39 50L39 52L40 52L40 55L41 55L41 54L42 54L42 53L43 53L43 52L42 52L42 51L43 51L43 50L42 50L42 49L44 49L44 53L45 53L45 54L47 54L47 53L48 53L48 52L47 52L47 51L48 51L48 48L50 48L50 47L51 47L51 48L52 48L52 47L51 47L51 46L50 46L50 47L49 47L49 46L48 46L48 44L47 44L47 45L46 45L46 46L48 46L48 47L45 47L45 48L40 48L40 47L39 47L39 43L42 43L42 42L39 42L39 41L43 41L43 40L44 40L44 41L45 41L45 43L46 43L46 42L47 42L47 43L48 43L48 42L47 42L47 41L48 41L48 40L47 40L47 39L48 39L48 38L47 38L47 37L48 37L48 36L50 36L50 37L51 37L51 38L50 38L50 39L49 39L49 41L52 41L52 43L51 43L51 42L50 42L50 43L51 43L51 44L49 44L49 45L51 45L51 44L53 44L53 43L54 43L54 41L52 41L52 40L54 40L54 39L53 39L53 36L54 36L54 35L55 35L55 34L54 34L54 33L55 33L55 32L54 32L54 31L52 31L52 32L53 32L53 33L50 33L50 32L49 32L49 31L48 31L48 28L47 28L47 27L48 27L48 25L47 25L47 23L48 23L48 21L49 21L49 20L48 20L48 19L50 19L50 22L51 22L51 20L52 20L52 19L50 19L50 18L48 18L48 17L49 17L49 16L50 16L50 15L46 15L46 16L48 16L48 17L46 17L46 18L44 18L44 19L46 19L46 20L42 20L42 19L43 19L43 18L42 18L42 17L45 17L45 16L42 16L42 15L43 15L43 14L44 14L44 15L45 15L45 12L44 12L44 13L43 13L43 14L42 14L42 10L40 10L40 9L41 9L41 7L42 7L42 6L43 6L43 7L44 7L44 6L45 6L45 7L46 7L46 5L47 5L47 3L43 3L43 5L42 5L42 6L41 6L41 3L40 3L40 5L39 5L39 2L38 2L38 1L37 1L37 2L36 2L36 1L35 1L35 2L34 2L34 1ZM46 1L46 2L47 2L47 1ZM21 2L21 3L22 3L22 2ZM37 2L37 3L36 3L36 5L35 5L35 6L34 6L34 7L33 7L33 6L32 6L32 7L33 7L33 8L35 8L35 10L34 10L34 11L33 11L33 13L35 13L35 12L36 12L36 14L38 14L38 12L40 12L40 11L37 11L37 12L36 12L36 10L38 10L38 8L40 8L40 7L41 7L41 6L40 6L40 7L39 7L39 6L38 6L38 2ZM12 3L12 5L11 5L11 9L12 9L12 8L14 8L14 9L16 9L16 6L15 6L15 5L16 5L16 4L15 4L15 3L14 3L14 4L13 4L13 3ZM28 3L28 4L29 4L29 3ZM34 3L34 4L35 4L35 3ZM14 4L14 5L13 5L13 6L12 6L12 7L13 7L13 6L14 6L14 8L15 8L15 6L14 6L14 5L15 5L15 4ZM24 4L24 5L25 5L25 4ZM44 4L44 5L45 5L45 4ZM27 5L27 8L30 8L30 5ZM36 5L36 6L35 6L35 7L36 7L36 8L38 8L38 6L37 6L37 5ZM24 6L24 8L25 8L25 6ZM28 6L28 7L29 7L29 6ZM36 6L36 7L37 7L37 6ZM0 8L0 9L2 9L2 10L3 10L3 11L2 11L2 12L4 12L4 13L5 13L5 14L4 14L4 15L3 15L3 13L2 13L2 14L1 14L1 13L0 13L0 15L2 15L2 16L4 16L4 17L3 17L3 18L4 18L4 17L7 17L7 18L6 18L6 19L8 19L8 18L9 18L9 20L8 20L8 21L10 21L10 18L9 18L9 17L10 17L10 16L9 16L9 14L10 14L10 13L11 13L11 12L10 12L10 13L9 13L9 10L6 10L6 9L9 9L9 8L6 8L6 9L5 9L5 8ZM53 8L53 9L54 9L54 8ZM3 9L3 10L4 10L4 9ZM19 9L19 12L20 12L20 13L18 13L18 14L17 14L17 15L18 15L18 16L17 16L17 17L19 17L19 18L18 18L18 19L17 19L17 20L18 20L18 21L17 21L17 23L19 23L19 22L18 22L18 21L19 21L19 18L20 18L20 17L19 17L19 16L20 16L20 15L18 15L18 14L20 14L20 13L21 13L21 14L22 14L22 16L23 16L23 15L24 15L24 16L26 16L26 17L27 17L27 16L26 16L26 14L25 14L25 13L24 13L24 12L25 12L25 9L24 9L24 10L23 10L23 9L21 9L21 10L22 10L22 11L23 11L23 13L22 13L22 12L20 12L20 9ZM4 11L4 12L7 12L7 13L6 13L6 14L7 14L7 13L8 13L8 12L7 12L7 11ZM13 11L13 12L14 12L14 11ZM34 11L34 12L35 12L35 11ZM23 13L23 14L24 14L24 15L25 15L25 14L24 14L24 13ZM31 14L31 15L32 15L32 14ZM40 14L40 15L39 15L39 16L38 16L38 17L37 17L37 16L36 16L36 15L35 15L35 16L36 16L36 17L35 17L35 18L33 18L33 19L32 19L32 17L29 17L29 18L31 18L31 19L28 19L28 20L29 20L29 21L30 21L30 22L29 22L29 23L28 23L28 24L27 24L27 25L26 25L26 26L25 26L25 25L22 25L22 26L25 26L25 27L26 27L26 30L25 30L25 29L24 29L24 31L23 31L23 29L22 29L22 31L21 31L21 32L20 32L20 33L21 33L21 35L22 35L22 34L24 34L24 35L27 35L27 34L25 34L25 33L29 33L29 36L26 36L26 37L29 37L29 38L28 38L28 39L31 39L31 38L32 38L32 35L33 35L33 36L34 36L34 35L35 35L35 34L34 34L34 32L33 32L33 31L35 31L35 30L36 30L36 31L37 31L37 30L38 30L38 27L39 27L39 28L40 28L40 26L43 26L43 27L42 27L42 28L43 28L43 29L42 29L42 30L41 30L41 29L39 29L39 32L38 32L38 33L37 33L37 32L35 32L35 33L36 33L36 34L38 34L38 35L39 35L39 34L38 34L38 33L39 33L39 32L41 32L41 33L40 33L40 34L44 34L44 33L43 33L43 32L45 32L45 33L47 33L47 34L45 34L45 36L47 36L47 35L50 35L50 36L51 36L51 37L52 37L52 36L53 36L53 34L52 34L52 36L51 36L51 35L50 35L50 34L48 34L48 33L47 33L47 32L48 32L48 31L47 31L47 30L46 30L46 29L47 29L47 28L46 28L46 27L45 27L45 25L46 25L46 24L45 24L45 23L47 23L47 22L45 22L45 21L44 21L44 23L40 23L40 22L39 22L39 23L38 23L38 24L37 24L37 22L38 22L38 19L39 19L39 18L38 18L38 17L39 17L39 16L41 16L41 15L42 15L42 14ZM5 15L5 16L8 16L8 15ZM11 17L11 18L12 18L12 17ZM26 18L26 19L27 19L27 18ZM37 18L37 19L34 19L34 20L32 20L32 21L34 21L34 22L33 22L33 24L32 24L32 23L31 23L31 22L30 22L30 23L29 23L29 24L28 24L28 26L29 26L29 24L30 24L30 23L31 23L31 24L32 24L32 25L31 25L31 28L32 28L32 30L31 30L31 31L29 31L29 32L30 32L30 33L31 33L31 35L32 35L32 34L33 34L33 35L34 35L34 34L33 34L33 32L31 32L31 31L32 31L32 30L35 30L35 29L33 29L33 28L34 28L34 27L35 27L35 28L37 28L37 25L36 25L36 26L35 26L35 25L33 25L33 24L36 24L36 22L37 22L37 21L36 21L36 20L37 20L37 19L38 19L38 18ZM41 18L41 19L40 19L40 20L39 20L39 21L40 21L40 20L41 20L41 19L42 19L42 18ZM46 18L46 19L47 19L47 18ZM13 19L13 20L14 20L14 19ZM3 20L3 21L4 21L4 20ZM21 20L21 21L22 21L22 20ZM25 20L25 21L27 21L27 22L26 22L26 23L24 23L24 24L26 24L26 23L27 23L27 22L28 22L28 21L27 21L27 20ZM34 20L34 21L35 21L35 20ZM46 20L46 21L47 21L47 20ZM15 21L15 22L16 22L16 21ZM41 21L41 22L43 22L43 21ZM53 21L53 22L54 22L54 24L55 24L55 23L56 23L56 24L57 24L57 23L56 23L56 22L57 22L57 21L55 21L55 22L54 22L54 21ZM3 22L3 23L2 23L2 24L1 24L1 26L2 26L2 25L3 25L3 23L4 23L4 22ZM34 22L34 23L35 23L35 22ZM7 24L7 25L6 25L6 26L7 26L7 25L8 25L8 24ZM39 24L39 25L38 25L38 26L40 26L40 25L42 25L42 24ZM44 24L44 25L43 25L43 26L44 26L44 25L45 25L45 24ZM4 25L4 26L3 26L3 31L4 31L4 26L5 26L5 25ZM32 25L32 28L33 28L33 27L34 27L34 26L33 26L33 25ZM15 26L15 27L17 27L17 26ZM5 27L5 30L8 30L8 27ZM27 27L27 30L30 30L30 27ZM49 27L49 30L52 30L52 27ZM6 28L6 29L7 29L7 28ZM28 28L28 29L29 29L29 28ZM44 28L44 30L42 30L42 31L41 31L41 30L40 30L40 31L41 31L41 32L42 32L42 31L46 31L46 32L47 32L47 31L46 31L46 30L45 30L45 28ZM50 28L50 29L51 29L51 28ZM36 29L36 30L37 30L37 29ZM6 31L6 32L7 32L7 31ZM8 31L8 32L9 32L9 34L10 34L10 32L9 32L9 31ZM22 31L22 32L21 32L21 33L25 33L25 32L27 32L27 31L25 31L25 32L23 32L23 31ZM0 33L0 34L1 34L1 33ZM3 33L3 34L4 34L4 33ZM17 34L17 36L18 36L18 37L16 37L16 36L15 36L15 37L14 37L14 40L13 40L13 39L12 39L12 36L11 36L11 37L10 37L10 38L8 38L8 37L7 37L7 36L4 36L4 37L7 37L7 38L6 38L6 39L7 39L7 40L6 40L6 41L5 41L5 42L6 42L6 41L9 41L9 40L8 40L8 39L11 39L11 40L13 40L13 41L12 41L12 42L11 42L11 44L12 44L12 45L11 45L11 48L13 48L13 49L12 49L12 50L13 50L13 49L14 49L14 50L15 50L15 51L16 51L16 52L17 52L17 51L19 51L19 52L18 52L18 53L19 53L19 52L20 52L20 51L19 51L19 50L20 50L20 49L21 49L21 47L22 47L22 44L21 44L21 43L20 43L20 44L19 44L19 45L18 45L18 44L15 44L15 41L14 41L14 40L15 40L15 39L16 39L16 41L18 41L18 42L16 42L16 43L18 43L18 42L20 42L20 41L21 41L21 42L22 42L22 43L26 43L26 44L25 44L25 45L23 45L23 46L24 46L24 47L25 47L25 45L26 45L26 44L28 44L28 43L29 43L29 42L30 42L30 43L32 43L32 44L31 44L31 45L32 45L32 44L34 44L34 43L35 43L35 42L34 42L34 43L32 43L32 42L33 42L33 41L32 41L32 40L33 40L33 39L32 39L32 40L30 40L30 41L29 41L29 40L27 40L27 38L26 38L26 39L24 39L24 38L25 38L25 37L21 37L21 39L22 39L22 40L23 40L23 41L24 41L24 42L22 42L22 41L21 41L21 40L20 40L20 41L19 41L19 40L18 40L18 37L20 37L20 34ZM18 35L18 36L19 36L19 35ZM40 35L40 36L36 36L36 37L35 37L35 38L34 38L34 39L35 39L35 38L36 38L36 39L37 39L37 40L36 40L36 41L37 41L37 43L36 43L36 44L35 44L35 46L32 46L32 47L31 47L31 48L33 48L33 50L34 50L34 51L35 51L35 50L36 50L36 49L40 49L40 48L36 48L36 47L37 47L37 46L38 46L38 45L37 45L37 44L38 44L38 41L39 41L39 40L38 40L38 39L37 39L37 38L38 38L38 37L39 37L39 38L40 38L40 36L41 36L41 37L42 37L42 38L43 38L43 37L44 37L44 38L45 38L45 39L44 39L44 40L45 40L45 41L47 41L47 40L46 40L46 39L47 39L47 38L45 38L45 37L44 37L44 35ZM1 36L1 37L2 37L2 36ZM30 36L30 38L31 38L31 36ZM15 37L15 38L16 38L16 37ZM19 38L19 39L20 39L20 38ZM22 38L22 39L23 39L23 38ZM40 39L40 40L41 40L41 39ZM51 39L51 40L52 40L52 39ZM3 40L3 41L2 41L2 42L3 42L3 43L4 43L4 40ZM24 40L24 41L25 41L25 42L26 42L26 43L28 43L28 42L29 42L29 41L26 41L26 40ZM12 42L12 44L13 44L13 43L14 43L14 42ZM43 43L43 44L40 44L40 45L41 45L41 46L42 46L42 47L43 47L43 46L44 46L44 45L45 45L45 44L44 44L44 43ZM14 44L14 45L15 45L15 46L16 46L16 48L17 48L17 46L18 46L18 48L19 48L19 49L15 49L15 50L19 50L19 49L20 49L20 47L21 47L21 45L19 45L19 46L18 46L18 45L15 45L15 44ZM43 44L43 45L42 45L42 46L43 46L43 45L44 45L44 44ZM5 45L5 46L7 46L7 45ZM13 46L13 48L15 48L15 47L14 47L14 46ZM19 46L19 47L20 47L20 46ZM35 46L35 47L34 47L34 48L35 48L35 49L34 49L34 50L35 50L35 49L36 49L36 48L35 48L35 47L36 47L36 46ZM54 47L54 48L55 48L55 47ZM56 47L56 48L57 48L57 47ZM45 48L45 49L47 49L47 48ZM22 49L22 50L23 50L23 51L24 51L24 50L25 50L25 49ZM27 49L27 52L30 52L30 49ZM49 49L49 52L52 52L52 49ZM28 50L28 51L29 51L29 50ZM41 50L41 51L40 51L40 52L41 52L41 51L42 51L42 50ZM45 50L45 51L47 51L47 50ZM50 50L50 51L51 51L51 50ZM13 51L13 52L12 52L12 53L13 53L13 52L14 52L14 51ZM32 51L32 52L33 52L33 51ZM37 51L37 52L38 52L38 51ZM53 51L53 52L54 52L54 51ZM46 52L46 53L47 53L47 52ZM15 53L15 54L16 54L16 53ZM29 53L29 54L30 54L30 53ZM53 53L53 54L54 54L54 53ZM24 54L24 55L25 55L25 54ZM36 55L36 56L37 56L37 55ZM45 56L45 57L47 57L47 56ZM0 0L0 7L7 7L7 0ZM1 1L1 6L6 6L6 1ZM2 2L2 5L5 5L5 2ZM50 0L50 7L57 7L57 0ZM51 1L51 6L56 6L56 1ZM52 2L52 5L55 5L55 2ZM0 50L0 57L7 57L7 50ZM1 51L1 56L6 56L6 51ZM2 52L2 55L5 55L5 52Z" fill="#000000"/></g></g></svg>
