<?xml version="1.0" encoding="UTF-8"?>
<svg xmlns="http://www.w3.org/2000/svg" version="1.1" width="300" height="300" viewBox="0 0 300 300"><rect x="0" y="0" width="300" height="300" fill="#ffffff"/><g transform="scale(4.918)"><g transform="translate(2,2)"><path fill-rule="evenodd" d="M9 0L9 1L8 1L8 2L9 2L9 3L8 3L8 4L11 4L11 5L8 5L8 7L9 7L9 6L10 6L10 8L11 8L11 6L12 6L12 9L14 9L14 10L13 10L13 11L14 11L14 12L12 12L12 10L11 10L11 11L10 11L10 10L8 10L8 13L9 13L9 14L4 14L4 13L7 13L7 12L5 12L5 10L4 10L4 12L3 12L3 11L2 11L2 9L5 9L5 8L0 8L0 10L1 10L1 11L0 11L0 12L1 12L1 11L2 11L2 13L0 13L0 15L1 15L1 14L4 14L4 15L3 15L3 16L2 16L2 17L3 17L3 18L0 18L0 20L2 20L2 19L4 19L4 20L3 20L3 21L0 21L0 23L1 23L1 24L0 24L0 25L1 25L1 26L0 26L0 28L1 28L1 29L2 29L2 30L4 30L4 32L3 32L3 31L0 31L0 32L1 32L1 33L0 33L0 34L1 34L1 35L2 35L2 36L1 36L1 37L0 37L0 39L1 39L1 40L0 40L0 41L2 41L2 39L3 39L3 38L2 38L2 39L1 39L1 37L4 37L4 38L5 38L5 39L4 39L4 41L7 41L7 42L4 42L4 43L7 43L7 44L5 44L5 45L7 45L7 46L5 46L5 47L3 47L3 45L4 45L4 44L3 44L3 45L2 45L2 44L1 44L1 43L3 43L3 42L0 42L0 44L1 44L1 45L0 45L0 48L5 48L5 47L9 47L9 46L8 46L8 45L9 45L9 43L11 43L11 42L9 42L9 39L10 39L10 40L13 40L13 39L12 39L12 38L11 38L11 37L12 37L12 36L13 36L13 37L14 37L14 36L13 36L13 35L12 35L12 34L11 34L11 33L13 33L13 34L14 34L14 35L15 35L15 36L16 36L16 35L15 35L15 34L14 34L14 33L15 33L15 32L16 32L16 33L17 33L17 32L16 32L16 31L15 31L15 29L18 29L18 30L17 30L17 31L18 31L18 33L19 33L19 34L18 34L18 35L20 35L20 33L19 33L19 32L20 32L20 31L22 31L22 32L23 32L23 35L21 35L21 37L19 37L19 36L18 36L18 37L17 37L17 39L18 39L18 40L16 40L16 39L15 39L15 40L14 40L14 41L12 41L12 42L14 42L14 43L15 43L15 44L13 44L13 46L11 46L11 47L10 47L10 49L8 49L8 51L9 51L9 52L8 52L8 57L10 57L10 55L9 55L9 54L10 54L10 51L11 51L11 49L12 49L12 48L13 48L13 50L12 50L12 51L13 51L13 52L11 52L11 55L13 55L13 56L12 56L12 57L14 57L14 55L13 55L13 54L12 54L12 53L14 53L14 54L15 54L15 55L16 55L16 56L15 56L15 57L16 57L16 56L17 56L17 57L19 57L19 55L20 55L20 54L18 54L18 53L20 53L20 52L19 52L19 51L21 51L21 52L23 52L23 51L21 51L21 50L22 50L22 49L21 49L21 50L20 50L20 49L19 49L19 48L20 48L20 47L22 47L22 45L23 45L23 48L24 48L24 49L23 49L23 50L25 50L25 49L26 49L26 53L25 53L25 51L24 51L24 53L21 53L21 56L20 56L20 57L21 57L21 56L23 56L23 57L26 57L26 56L28 56L28 55L27 55L27 53L28 53L28 54L29 54L29 53L30 53L30 54L31 54L31 55L29 55L29 57L30 57L30 56L31 56L31 57L32 57L32 56L31 56L31 55L37 55L37 56L33 56L33 57L37 57L37 56L38 56L38 57L40 57L40 56L42 56L42 57L44 57L44 56L45 56L45 55L46 55L46 54L45 54L45 53L44 53L44 50L46 50L46 51L47 51L47 52L48 52L48 54L47 54L47 55L50 55L50 53L51 53L51 54L53 54L53 55L51 55L51 56L50 56L50 57L52 57L52 56L53 56L53 57L56 57L56 56L55 56L55 55L54 55L54 54L55 54L55 53L53 53L53 52L55 52L55 51L53 51L53 50L54 50L54 48L55 48L55 50L57 50L57 48L55 48L55 45L56 45L56 46L57 46L57 44L55 44L55 41L54 41L54 43L53 43L53 44L52 44L52 43L50 43L50 42L51 42L51 41L49 41L49 40L50 40L50 38L51 38L51 39L52 39L52 41L53 41L53 40L55 40L55 39L57 39L57 35L56 35L56 37L54 37L54 38L53 38L53 39L52 39L52 37L53 37L53 36L55 36L55 35L54 35L54 34L55 34L55 33L54 33L54 32L55 32L55 31L56 31L56 32L57 32L57 31L56 31L56 30L57 30L57 27L56 27L56 24L57 24L57 23L56 23L56 22L57 22L57 21L55 21L55 23L52 23L52 24L51 24L51 26L49 26L49 25L50 25L50 23L51 23L51 22L52 22L52 21L51 21L51 22L50 22L50 19L51 19L51 18L50 18L50 17L51 17L51 16L57 16L57 15L56 15L56 14L57 14L57 12L56 12L56 10L57 10L57 9L56 9L56 8L55 8L55 11L54 11L54 10L53 10L53 11L52 11L52 12L53 12L53 11L54 11L54 12L56 12L56 14L54 14L54 15L51 15L51 14L52 14L52 13L51 13L51 14L50 14L50 11L51 11L51 10L49 10L49 9L50 9L50 8L49 8L49 6L48 6L48 8L47 8L47 5L48 5L48 0L46 0L46 1L44 1L44 0L41 0L41 1L44 1L44 2L40 2L40 1L33 1L33 0L29 0L29 1L28 1L28 0L27 0L27 2L28 2L28 3L27 3L27 4L26 4L26 3L23 3L23 4L19 4L19 3L20 3L20 2L21 2L21 3L22 3L22 2L25 2L25 1L26 1L26 0L24 0L24 1L23 1L23 0L21 0L21 1L17 1L17 2L16 2L16 0L14 0L14 1L15 1L15 2L14 2L14 3L17 3L17 2L18 2L18 4L17 4L17 6L16 6L16 7L15 7L15 6L14 6L14 5L16 5L16 4L14 4L14 5L13 5L13 4L11 4L11 3L12 3L12 0ZM29 1L29 2L33 2L33 3L32 3L32 4L31 4L31 3L30 3L30 4L31 4L31 7L32 7L32 6L33 6L33 7L34 7L34 6L33 6L33 5L36 5L36 6L35 6L35 7L36 7L36 8L38 8L38 11L39 11L39 10L40 10L40 11L41 11L41 12L38 12L38 14L37 14L37 13L36 13L36 14L37 14L37 15L36 15L36 16L35 16L35 15L34 15L34 16L35 16L35 17L33 17L33 16L32 16L32 15L33 15L33 14L35 14L35 13L33 13L33 12L32 12L32 14L30 14L30 10L28 10L28 11L29 11L29 12L28 12L28 13L25 13L25 12L27 12L27 11L26 11L26 10L27 10L27 9L25 9L25 8L26 8L26 4L25 4L25 8L24 8L24 6L23 6L23 5L24 5L24 4L23 4L23 5L21 5L21 8L19 8L19 9L18 9L18 8L17 8L17 7L18 7L18 6L19 6L19 7L20 7L20 5L19 5L19 4L18 4L18 6L17 6L17 7L16 7L16 8L17 8L17 9L15 9L15 7L14 7L14 6L13 6L13 7L14 7L14 9L15 9L15 10L16 10L16 11L15 11L15 12L17 12L17 13L16 13L16 15L15 15L15 13L12 13L12 14L11 14L11 16L10 16L10 15L6 15L6 16L5 16L5 15L4 15L4 18L5 18L5 21L4 21L4 24L5 24L5 25L6 25L6 26L7 26L7 25L8 25L8 26L9 26L9 25L8 25L8 24L10 24L10 25L12 25L12 26L10 26L10 27L12 27L12 28L11 28L11 29L10 29L10 30L9 30L9 31L10 31L10 32L9 32L9 34L8 34L8 33L6 33L6 34L5 34L5 35L6 35L6 36L4 36L4 35L3 35L3 32L2 32L2 33L1 33L1 34L2 34L2 35L3 35L3 36L4 36L4 37L6 37L6 38L8 38L8 39L9 39L9 38L8 38L8 37L6 37L6 36L7 36L7 35L6 35L6 34L8 34L8 35L9 35L9 36L10 36L10 37L11 37L11 36L10 36L10 35L9 35L9 34L10 34L10 33L11 33L11 29L12 29L12 28L13 28L13 27L14 27L14 26L13 26L13 25L15 25L15 28L14 28L14 29L13 29L13 30L12 30L12 32L13 32L13 33L14 33L14 32L15 32L15 31L14 31L14 29L15 29L15 28L18 28L18 29L19 29L19 30L18 30L18 31L19 31L19 30L24 30L24 29L25 29L25 30L26 30L26 27L25 27L25 28L24 28L24 29L23 29L23 25L25 25L25 26L26 26L26 25L27 25L27 26L28 26L28 25L29 25L29 26L30 26L30 24L32 24L32 25L33 25L33 26L31 26L31 27L33 27L33 28L32 28L32 29L31 29L31 30L32 30L32 31L33 31L33 30L39 30L39 32L38 32L38 31L34 31L34 32L31 32L31 31L30 31L30 33L32 33L32 34L31 34L31 35L30 35L30 34L29 34L29 33L27 33L27 31L26 31L26 32L25 32L25 34L24 34L24 36L25 36L25 34L26 34L26 35L27 35L27 36L26 36L26 37L25 37L25 40L24 40L24 39L23 39L23 38L24 38L24 37L23 37L23 36L22 36L22 37L21 37L21 40L19 40L19 41L20 41L20 43L19 43L19 44L21 44L21 45L19 45L19 47L18 47L18 46L17 46L17 45L18 45L18 44L17 44L17 45L16 45L16 44L15 44L15 45L16 45L16 47L14 47L14 46L13 46L13 48L14 48L14 50L13 50L13 51L14 51L14 52L15 52L15 50L16 50L16 51L18 51L18 50L19 50L19 49L15 49L15 48L19 48L19 47L20 47L20 46L21 46L21 45L22 45L22 44L21 44L21 43L22 43L22 42L23 42L23 43L25 43L25 44L23 44L23 45L25 45L25 48L26 48L26 46L27 46L27 48L29 48L29 47L30 47L30 48L32 48L32 49L31 49L31 52L32 52L32 54L35 54L35 53L36 53L36 54L37 54L37 55L38 55L38 56L40 56L40 55L41 55L41 52L40 52L40 51L41 51L41 50L42 50L42 51L43 51L43 50L42 50L42 49L45 49L45 48L40 48L40 47L38 47L38 48L37 48L37 47L34 47L34 48L37 48L37 49L36 49L36 50L35 50L35 49L33 49L33 48L32 48L32 47L30 47L30 46L29 46L29 45L27 45L27 44L26 44L26 43L28 43L28 44L29 44L29 43L30 43L30 44L32 44L32 45L33 45L33 46L36 46L36 45L35 45L35 43L34 43L34 44L33 44L33 42L36 42L36 43L37 43L37 46L42 46L42 47L45 47L45 46L42 46L42 45L43 45L43 44L44 44L44 45L45 45L45 43L46 43L46 42L47 42L47 43L49 43L49 42L47 42L47 41L48 41L48 40L47 40L47 37L48 37L48 39L49 39L49 37L51 37L51 36L52 36L52 34L53 34L53 33L51 33L51 32L49 32L49 31L48 31L48 29L46 29L46 30L45 30L45 27L46 27L46 28L47 28L47 27L48 27L48 25L49 25L49 23L50 23L50 22L48 22L48 21L49 21L49 19L50 19L50 18L49 18L49 19L47 19L47 20L46 20L46 19L45 19L45 18L47 18L47 16L51 16L51 15L45 15L45 12L46 12L46 14L47 14L47 13L49 13L49 12L48 12L48 9L49 9L49 8L48 8L48 9L47 9L47 8L46 8L46 9L45 9L45 7L46 7L46 6L45 6L45 5L44 5L44 4L46 4L46 5L47 5L47 3L43 3L43 5L42 5L42 6L41 6L41 4L42 4L42 3L40 3L40 4L38 4L38 3L39 3L39 2L33 2L33 1ZM46 1L46 2L47 2L47 1ZM28 3L28 4L29 4L29 3ZM34 3L34 4L35 4L35 3ZM36 3L36 5L37 5L37 3ZM27 5L27 8L30 8L30 5ZM38 5L38 8L41 8L41 10L44 10L44 11L45 11L45 9L44 9L44 7L45 7L45 6L44 6L44 7L43 7L43 6L42 6L42 7L41 7L41 6L40 6L40 7L39 7L39 5ZM22 6L22 7L23 7L23 6ZM28 6L28 7L29 7L29 6ZM36 6L36 7L37 7L37 6ZM6 8L6 9L9 9L9 8ZM31 8L31 11L32 11L32 9L34 9L34 10L33 10L33 11L34 11L34 12L36 12L36 10L37 10L37 9L35 9L35 8ZM42 8L42 9L43 9L43 8ZM51 8L51 9L52 9L52 8ZM53 8L53 9L54 9L54 8ZM17 9L17 10L18 10L18 11L17 11L17 12L18 12L18 13L17 13L17 14L18 14L18 15L19 15L19 16L18 16L18 17L19 17L19 18L16 18L16 19L15 19L15 21L16 21L16 22L15 22L15 23L13 23L13 24L12 24L12 22L10 22L10 21L11 21L11 18L12 18L12 19L13 19L13 20L12 20L12 21L13 21L13 22L14 22L14 21L13 21L13 20L14 20L14 19L13 19L13 18L14 18L14 15L12 15L12 16L11 16L11 17L10 17L10 16L9 16L9 17L8 17L8 16L6 16L6 17L7 17L7 18L6 18L6 19L7 19L7 18L8 18L8 20L6 20L6 21L7 21L7 22L5 22L5 24L6 24L6 25L7 25L7 24L8 24L8 23L7 23L7 22L9 22L9 23L10 23L10 24L12 24L12 25L13 25L13 24L15 24L15 25L17 25L17 26L16 26L16 27L18 27L18 25L21 25L21 24L19 24L19 23L20 23L20 22L18 22L18 21L20 21L20 20L21 20L21 19L22 19L22 17L21 17L21 18L20 18L20 17L19 17L19 16L20 16L20 13L21 13L21 16L22 16L22 13L24 13L24 17L23 17L23 18L24 18L24 19L23 19L23 20L24 20L24 21L21 21L21 22L22 22L22 24L24 24L24 23L23 23L23 22L24 22L24 21L25 21L25 22L26 22L26 23L25 23L25 24L30 24L30 23L27 23L27 20L26 20L26 19L25 19L25 18L26 18L26 17L27 17L27 18L28 18L28 20L29 20L29 18L31 18L31 19L30 19L30 20L31 20L31 21L28 21L28 22L31 22L31 23L32 23L32 24L33 24L33 25L35 25L35 26L38 26L38 27L36 27L36 28L35 28L35 27L34 27L34 28L33 28L33 29L32 29L32 30L33 30L33 29L38 29L38 27L39 27L39 26L40 26L40 28L41 28L41 27L42 27L42 28L43 28L43 29L42 29L42 30L41 30L41 29L40 29L40 32L39 32L39 34L38 34L38 33L37 33L37 32L34 32L34 33L36 33L36 34L33 34L33 37L34 37L34 35L37 35L37 34L38 34L38 35L40 35L40 36L39 36L39 38L40 38L40 36L41 36L41 39L39 39L39 40L36 40L36 39L37 39L37 38L38 38L38 36L36 36L36 37L37 37L37 38L35 38L35 39L34 39L34 38L33 38L33 41L35 41L35 40L36 40L36 41L37 41L37 42L38 42L38 41L39 41L39 42L40 42L40 41L39 41L39 40L41 40L41 39L42 39L42 38L43 38L43 37L44 37L44 38L45 38L45 37L44 37L44 32L45 32L45 33L46 33L46 32L45 32L45 30L44 30L44 27L45 27L45 25L44 25L44 27L43 27L43 24L42 24L42 23L43 23L43 21L41 21L41 22L42 22L42 23L41 23L41 25L39 25L39 24L40 24L40 22L39 22L39 24L38 24L38 23L37 23L37 22L38 22L38 21L40 21L40 20L41 20L41 19L42 19L42 18L43 18L43 20L45 20L45 19L44 19L44 18L43 18L43 17L42 17L42 18L41 18L41 17L39 17L39 16L41 16L41 15L42 15L42 16L45 16L45 15L42 15L42 14L44 14L44 12L43 12L43 11L42 11L42 14L41 14L41 15L40 15L40 14L39 14L39 16L38 16L38 17L39 17L39 18L33 18L33 19L32 19L32 16L31 16L31 15L30 15L30 14L29 14L29 13L28 13L28 14L27 14L27 16L25 16L25 13L24 13L24 11L25 11L25 9L21 9L21 10L20 10L20 9L19 9L19 10L18 10L18 9ZM6 10L6 11L7 11L7 10ZM21 10L21 11L19 11L19 13L20 13L20 12L21 12L21 13L22 13L22 12L21 12L21 11L22 11L22 10ZM34 10L34 11L35 11L35 10ZM46 10L46 11L47 11L47 10ZM9 11L9 13L10 13L10 11ZM28 15L28 16L27 16L27 17L28 17L28 16L29 16L29 17L31 17L31 16L30 16L30 15ZM0 16L0 17L1 17L1 16ZM12 16L12 18L13 18L13 16ZM15 16L15 17L17 17L17 16ZM36 16L36 17L37 17L37 16ZM52 17L52 20L55 20L55 18L57 18L57 17L55 17L55 18L53 18L53 17ZM19 18L19 19L20 19L20 18ZM40 18L40 19L39 19L39 20L40 20L40 19L41 19L41 18ZM16 19L16 21L18 21L18 20L17 20L17 19ZM33 19L33 20L32 20L32 21L33 21L33 20L34 20L34 22L33 22L33 23L34 23L34 24L36 24L36 22L37 22L37 21L36 21L36 20L38 20L38 19L35 19L35 20L34 20L34 19ZM56 19L56 20L57 20L57 19ZM25 20L25 21L26 21L26 20ZM44 21L44 24L46 24L46 22L45 22L45 21ZM2 22L2 24L3 24L3 22ZM34 22L34 23L35 23L35 22ZM6 23L6 24L7 24L7 23ZM15 23L15 24L16 24L16 23ZM37 24L37 25L38 25L38 26L39 26L39 25L38 25L38 24ZM47 24L47 25L48 25L48 24ZM52 24L52 25L53 25L53 27L55 27L55 26L54 26L54 24ZM2 26L2 27L1 27L1 28L3 28L3 26ZM21 26L21 27L20 27L20 28L19 28L19 29L22 29L22 28L21 28L21 27L22 27L22 26ZM5 27L5 30L8 30L8 27ZM27 27L27 30L30 30L30 27ZM49 27L49 30L52 30L52 27ZM6 28L6 29L7 29L7 28ZM28 28L28 29L29 29L29 28ZM50 28L50 29L51 29L51 28ZM54 28L54 29L53 29L53 30L54 30L54 29L55 29L55 28ZM42 30L42 31L43 31L43 32L42 32L42 33L41 33L41 32L40 32L40 34L42 34L42 35L43 35L43 34L42 34L42 33L43 33L43 32L44 32L44 30ZM46 30L46 31L47 31L47 32L48 32L48 31L47 31L47 30ZM6 31L6 32L8 32L8 31ZM13 31L13 32L14 32L14 31ZM23 31L23 32L24 32L24 31ZM28 31L28 32L29 32L29 31ZM52 31L52 32L54 32L54 31ZM4 32L4 33L5 33L5 32ZM21 33L21 34L22 34L22 33ZM47 33L47 34L45 34L45 35L47 35L47 36L48 36L48 37L49 37L49 36L48 36L48 35L50 35L50 36L51 36L51 35L50 35L50 34L51 34L51 33L50 33L50 34L48 34L48 33ZM56 33L56 34L57 34L57 33ZM31 35L31 38L30 38L30 36L29 36L29 39L28 39L28 40L29 40L29 39L31 39L31 40L30 40L30 41L31 41L31 42L30 42L30 43L32 43L32 39L31 39L31 38L32 38L32 35ZM27 36L27 38L26 38L26 39L27 39L27 38L28 38L28 36ZM42 36L42 37L43 37L43 36ZM15 37L15 38L16 38L16 37ZM18 37L18 38L19 38L19 39L20 39L20 38L19 38L19 37ZM22 37L22 38L23 38L23 37ZM10 38L10 39L11 39L11 38ZM54 38L54 39L55 39L55 38ZM5 39L5 40L7 40L7 41L8 41L8 40L7 40L7 39ZM45 39L45 41L44 41L44 40L43 40L43 41L41 41L41 42L43 42L43 43L38 43L38 44L43 44L43 43L44 43L44 42L45 42L45 41L46 41L46 39ZM14 41L14 42L15 42L15 43L18 43L18 42L17 42L17 41ZM23 41L23 42L25 42L25 41ZM26 41L26 42L27 42L27 41ZM43 41L43 42L44 42L44 41ZM56 41L56 42L57 42L57 41ZM7 42L7 43L8 43L8 42ZM11 44L11 45L12 45L12 44ZM25 44L25 45L26 45L26 44ZM47 44L47 45L46 45L46 46L47 46L47 47L46 47L46 48L47 48L47 49L46 49L46 50L47 50L47 51L48 51L48 48L50 48L50 47L51 47L51 46L52 46L52 47L53 47L53 48L54 48L54 47L53 47L53 46L54 46L54 45L55 45L55 44L54 44L54 45L51 45L51 44L50 44L50 47L49 47L49 44ZM1 45L1 47L2 47L2 45ZM28 46L28 47L29 47L29 46ZM11 47L11 48L12 48L12 47ZM6 48L6 49L7 49L7 48ZM38 48L38 49L39 49L39 50L36 50L36 51L35 51L35 50L33 50L33 49L32 49L32 50L33 50L33 51L32 51L32 52L33 52L33 53L35 53L35 52L36 52L36 53L37 53L37 54L38 54L38 52L36 52L36 51L39 51L39 50L41 50L41 49L40 49L40 48ZM27 49L27 52L30 52L30 49ZM49 49L49 52L52 52L52 49ZM9 50L9 51L10 51L10 50ZM28 50L28 51L29 51L29 50ZM50 50L50 51L51 51L51 50ZM34 51L34 52L35 52L35 51ZM56 51L56 52L57 52L57 51ZM16 52L16 53L15 53L15 54L16 54L16 53L18 53L18 52ZM39 52L39 55L40 55L40 52ZM42 52L42 53L43 53L43 54L42 54L42 56L44 56L44 55L45 55L45 54L44 54L44 53L43 53L43 52ZM24 53L24 54L22 54L22 55L24 55L24 56L25 56L25 55L26 55L26 54L25 54L25 53ZM17 54L17 55L18 55L18 54ZM48 56L48 57L49 57L49 56ZM0 0L0 7L7 7L7 0ZM1 1L1 6L6 6L6 1ZM2 2L2 5L5 5L5 2ZM50 0L50 7L57 7L57 0ZM51 1L51 6L56 6L56 1ZM52 2L52 5L55 5L55 2ZM0 50L0 57L7 57L7 50ZM1 51L1 56L6 56L6 51ZM2 52L2 55L5 55L5 52Z" fill="#000000"/></g></g></svg>
