<?xml version="1.0" encoding="UTF-8"?>
<svg xmlns="http://www.w3.org/2000/svg" version="1.1" width="300" height="300" viewBox="0 0 300 300"><rect x="0" y="0" width="300" height="300" fill="#ffffff"/><g transform="scale(4.918)"><g transform="translate(2,2)"><path fill-rule="evenodd" d="M8 0L8 1L9 1L9 0ZM10 0L10 1L12 1L12 3L11 3L11 4L12 4L12 5L10 5L10 7L9 7L9 6L8 6L8 7L9 7L9 8L8 8L8 9L7 9L7 8L6 8L6 9L5 9L5 11L4 11L4 8L0 8L0 9L1 9L1 10L2 10L2 9L3 9L3 11L2 11L2 14L3 14L3 15L2 15L2 17L0 17L0 19L1 19L1 20L2 20L2 19L1 19L1 18L3 18L3 16L4 16L4 19L3 19L3 23L2 23L2 21L1 21L1 22L0 22L0 24L1 24L1 25L0 25L0 27L1 27L1 28L2 28L2 29L0 29L0 30L2 30L2 29L3 29L3 30L4 30L4 31L3 31L3 32L1 32L1 31L0 31L0 33L3 33L3 34L2 34L2 37L4 37L4 38L3 38L3 40L2 40L2 41L3 41L3 42L1 42L1 39L0 39L0 43L1 43L1 44L0 44L0 48L5 48L5 47L7 47L7 48L6 48L6 49L8 49L8 50L9 50L9 52L10 52L10 50L11 50L11 48L9 48L9 47L7 47L7 46L10 46L10 47L12 47L12 52L11 52L11 53L8 53L8 57L9 57L9 56L11 56L11 55L9 55L9 54L12 54L12 57L13 57L13 54L14 54L14 53L15 53L15 55L14 55L14 56L15 56L15 57L16 57L16 56L17 56L17 55L18 55L18 56L19 56L19 57L26 57L26 55L27 55L27 54L28 54L28 53L29 53L29 54L31 54L31 55L30 55L30 56L31 56L31 55L32 55L32 57L33 57L33 56L35 56L35 57L36 57L36 56L35 56L35 55L38 55L38 57L42 57L42 56L39 56L39 55L40 55L40 54L42 54L42 55L43 55L43 56L45 56L45 57L50 57L50 56L51 56L51 54L50 54L50 53L53 53L53 55L52 55L52 57L53 57L53 55L55 55L55 54L56 54L56 53L57 53L57 52L56 52L56 51L55 51L55 49L56 49L56 47L57 47L57 45L55 45L55 44L57 44L57 43L56 43L56 42L57 42L57 40L56 40L56 41L55 41L55 42L54 42L54 43L55 43L55 44L53 44L53 45L55 45L55 49L53 49L53 48L54 48L54 46L52 46L52 47L51 47L51 46L50 46L50 48L49 48L49 45L50 45L50 42L51 42L51 43L53 43L53 41L51 41L51 40L50 40L50 42L47 42L47 41L49 41L49 40L47 40L47 41L46 41L46 40L45 40L45 39L48 39L48 38L49 38L49 37L50 37L50 38L51 38L51 39L52 39L52 40L55 40L55 38L54 38L54 36L52 36L52 35L55 35L55 37L56 37L56 36L57 36L57 33L55 33L55 32L57 32L57 31L56 31L56 30L57 30L57 27L56 27L56 25L57 25L57 21L55 21L55 20L57 20L57 19L55 19L55 18L54 18L54 17L55 17L55 15L54 15L54 13L53 13L53 14L51 14L51 13L50 13L50 12L49 12L49 14L51 14L51 15L54 15L54 17L53 17L53 20L51 20L51 18L50 18L50 19L49 19L49 18L48 18L48 16L47 16L47 17L46 17L46 15L44 15L44 14L45 14L45 13L46 13L46 12L47 12L47 11L45 11L45 10L44 10L44 12L42 12L42 13L41 13L41 15L40 15L40 16L41 16L41 15L42 15L42 16L43 16L43 20L42 20L42 21L41 21L41 19L39 19L39 18L42 18L42 17L39 17L39 16L38 16L38 15L39 15L39 14L40 14L40 13L38 13L38 12L39 12L39 11L42 11L42 10L43 10L43 9L44 9L44 7L45 7L45 6L44 6L44 5L41 5L41 4L40 4L40 3L39 3L39 2L40 2L40 1L41 1L41 2L44 2L44 3L45 3L45 5L46 5L46 9L48 9L48 10L49 10L49 11L50 11L50 10L49 10L49 9L50 9L50 8L49 8L49 6L48 6L48 8L47 8L47 5L48 5L48 0L44 0L44 1L43 1L43 0L40 0L40 1L39 1L39 2L38 2L38 8L39 8L39 9L40 9L40 10L39 10L39 11L38 11L38 12L37 12L37 10L38 10L38 9L36 9L36 10L34 10L34 9L35 9L35 6L36 6L36 8L37 8L37 5L36 5L36 4L37 4L37 2L36 2L36 1L34 1L34 0L33 0L33 1L32 1L32 0L28 0L28 1L27 1L27 4L26 4L26 1L25 1L25 0L24 0L24 1L25 1L25 3L23 3L23 4L22 4L22 5L20 5L20 4L19 4L19 3L21 3L21 1L23 1L23 0L21 0L21 1L20 1L20 2L18 2L18 1L17 1L17 2L16 2L16 0L13 0L13 1L12 1L12 0ZM37 0L37 1L38 1L38 0ZM13 1L13 3L14 3L14 5L17 5L17 7L16 7L16 6L15 6L15 8L14 8L14 9L15 9L15 10L14 10L14 11L15 11L15 12L17 12L17 13L16 13L16 14L15 14L15 15L12 15L12 13L13 13L13 14L14 14L14 13L13 13L13 12L12 12L12 11L11 11L11 8L9 8L9 9L8 9L8 10L10 10L10 11L5 11L5 12L7 12L7 13L6 13L6 14L5 14L5 13L4 13L4 11L3 11L3 13L4 13L4 14L5 14L5 15L4 15L4 16L5 16L5 18L7 18L7 17L6 17L6 16L7 16L7 15L6 15L6 14L8 14L8 13L9 13L9 14L10 14L10 13L11 13L11 15L12 15L12 16L8 16L8 21L6 21L6 20L7 20L7 19L6 19L6 20L5 20L5 22L4 22L4 23L5 23L5 24L7 24L7 25L6 25L6 26L7 26L7 25L8 25L8 26L9 26L9 24L10 24L10 28L11 28L11 29L14 29L14 30L13 30L13 31L14 31L14 30L15 30L15 31L16 31L16 34L18 34L18 35L17 35L17 36L16 36L16 35L14 35L14 36L15 36L15 37L14 37L14 38L13 38L13 39L12 39L12 40L13 40L13 41L11 41L11 42L9 42L9 39L10 39L10 38L12 38L12 36L11 36L11 35L12 35L12 34L13 34L13 33L14 33L14 34L15 34L15 33L14 33L14 32L13 32L13 33L12 33L12 30L9 30L9 32L8 32L8 33L9 33L9 35L8 35L8 34L7 34L7 33L6 33L6 34L7 34L7 35L6 35L6 36L5 36L5 38L4 38L4 40L5 40L5 38L8 38L8 36L10 36L10 37L9 37L9 39L8 39L8 40L7 40L7 39L6 39L6 40L7 40L7 41L6 41L6 42L7 42L7 43L6 43L6 44L7 44L7 45L5 45L5 43L3 43L3 45L2 45L2 46L1 46L1 47L2 47L2 46L3 46L3 47L5 47L5 46L7 46L7 45L11 45L11 44L9 44L9 43L11 43L11 42L12 42L12 47L13 47L13 52L12 52L12 54L13 54L13 52L14 52L14 51L15 51L15 53L16 53L16 54L18 54L18 53L19 53L19 52L20 52L20 51L22 51L22 49L23 49L23 50L24 50L24 51L23 51L23 52L21 52L21 53L20 53L20 55L19 55L19 56L20 56L20 55L21 55L21 53L22 53L22 56L24 56L24 55L26 55L26 48L27 48L27 46L28 46L28 47L30 47L30 48L31 48L31 50L32 50L32 49L33 49L33 50L34 50L34 51L33 51L33 53L31 53L31 54L33 54L33 53L35 53L35 54L34 54L34 55L35 55L35 54L37 54L37 53L38 53L38 54L40 54L40 53L41 53L41 52L43 52L43 51L44 51L44 52L45 52L45 53L46 53L46 52L47 52L47 51L48 51L48 50L47 50L47 49L48 49L48 47L47 47L47 48L44 48L44 47L46 47L46 46L48 46L48 45L49 45L49 44L48 44L48 43L47 43L47 44L46 44L46 41L43 41L43 40L44 40L44 39L45 39L45 37L46 37L46 38L48 38L48 37L49 37L49 36L48 36L48 35L49 35L49 33L50 33L50 34L54 34L54 33L53 33L53 31L52 31L52 32L51 32L51 31L50 31L50 32L49 32L49 33L48 33L48 29L47 29L47 31L46 31L46 28L47 28L47 27L48 27L48 26L50 26L50 25L51 25L51 22L53 22L53 23L52 23L52 26L53 26L53 27L54 27L54 26L55 26L55 24L56 24L56 23L55 23L55 21L54 21L54 20L55 20L55 19L54 19L54 20L53 20L53 21L51 21L51 20L49 20L49 19L48 19L48 18L47 18L47 20L46 20L46 21L45 21L45 17L44 17L44 21L43 21L43 22L41 22L41 21L40 21L40 20L38 20L38 18L39 18L39 17L37 17L37 15L38 15L38 13L36 13L36 14L37 14L37 15L35 15L35 13L34 13L34 14L33 14L33 12L34 12L34 10L33 10L33 8L32 8L32 10L30 10L30 11L32 11L32 10L33 10L33 12L32 12L32 13L31 13L31 12L29 12L29 10L27 10L27 9L26 9L26 6L25 6L25 5L26 5L26 4L24 4L24 6L23 6L23 7L22 7L22 6L21 6L21 7L20 7L20 6L19 6L19 7L18 7L18 5L17 5L17 4L18 4L18 2L17 2L17 3L15 3L15 2L14 2L14 1ZM31 1L31 2L28 2L28 4L31 4L31 5L32 5L32 6L31 6L31 7L32 7L32 6L33 6L33 7L34 7L34 6L35 6L35 4L36 4L36 2L34 2L34 5L32 5L32 4L33 4L33 3L32 3L32 1ZM45 1L45 3L46 3L46 5L47 5L47 3L46 3L46 2L47 2L47 1ZM8 2L8 5L9 5L9 4L10 4L10 3L9 3L9 2ZM31 3L31 4L32 4L32 3ZM42 3L42 4L43 4L43 3ZM12 5L12 6L11 6L11 7L12 7L12 10L13 10L13 7L14 7L14 6L13 6L13 5ZM27 5L27 8L30 8L30 5ZM12 6L12 7L13 7L13 6ZM24 6L24 7L23 7L23 8L22 8L22 7L21 7L21 8L20 8L20 7L19 7L19 8L20 8L20 9L23 9L23 10L19 10L19 12L18 12L18 9L17 9L17 8L16 8L16 9L17 9L17 12L18 12L18 13L19 13L19 12L20 12L20 14L19 14L19 15L20 15L20 14L21 14L21 12L20 12L20 11L23 11L23 10L24 10L24 11L25 11L25 15L24 15L24 16L23 16L23 14L22 14L22 15L21 15L21 16L23 16L23 19L22 19L22 20L21 20L21 18L19 18L19 17L18 17L18 16L17 16L17 15L16 15L16 17L15 17L15 16L13 16L13 17L10 17L10 18L12 18L12 19L13 19L13 20L10 20L10 19L9 19L9 20L10 20L10 21L8 21L8 22L5 22L5 23L8 23L8 22L10 22L10 24L11 24L11 26L12 26L12 27L11 27L11 28L13 28L13 27L16 27L16 29L15 29L15 28L14 28L14 29L15 29L15 30L16 30L16 31L17 31L17 32L19 32L19 31L17 31L17 27L19 27L19 28L18 28L18 29L19 29L19 30L20 30L20 33L19 33L19 35L18 35L18 36L17 36L17 37L18 37L18 38L19 38L19 39L17 39L17 38L15 38L15 39L13 39L13 40L14 40L14 41L13 41L13 42L18 42L18 43L20 43L20 42L19 42L19 41L18 41L18 40L20 40L20 41L22 41L22 44L20 44L20 45L21 45L21 46L20 46L20 47L18 47L18 46L19 46L19 45L17 45L17 47L18 47L18 48L16 48L16 49L17 49L17 50L19 50L19 51L20 51L20 50L21 50L21 48L20 48L20 47L21 47L21 46L22 46L22 44L23 44L23 45L24 45L24 46L23 46L23 48L24 48L24 49L25 49L25 48L26 48L26 47L25 47L25 42L27 42L27 43L28 43L28 42L29 42L29 44L30 44L30 45L29 45L29 46L30 46L30 45L31 45L31 46L32 46L32 48L34 48L34 49L35 49L35 50L37 50L37 47L36 47L36 48L35 48L35 46L36 46L36 44L37 44L37 46L38 46L38 47L39 47L39 46L40 46L40 47L41 47L41 46L40 46L40 45L41 45L41 43L43 43L43 44L42 44L42 47L43 47L43 46L44 46L44 45L43 45L43 44L45 44L45 43L44 43L44 42L42 42L42 41L39 41L39 40L38 40L38 39L40 39L40 40L42 40L42 38L39 38L39 37L40 37L40 35L39 35L39 37L38 37L38 35L36 35L36 34L34 34L34 33L35 33L35 32L34 32L34 31L36 31L36 32L37 32L37 30L36 30L36 29L35 29L35 27L34 27L34 25L35 25L35 24L36 24L36 25L37 25L37 26L36 26L36 28L37 28L37 27L38 27L38 26L39 26L39 31L38 31L38 32L39 32L39 33L40 33L40 34L41 34L41 35L42 35L42 37L44 37L44 36L43 36L43 35L45 35L45 36L46 36L46 35L47 35L47 34L48 34L48 33L47 33L47 32L45 32L45 33L43 33L43 32L42 32L42 30L41 30L41 29L43 29L43 30L44 30L44 31L45 31L45 28L46 28L46 27L47 27L47 26L46 26L46 25L45 25L45 28L44 28L44 24L47 24L47 23L49 23L49 24L50 24L50 23L49 23L49 22L50 22L50 21L48 21L48 20L47 20L47 23L44 23L44 24L43 24L43 23L41 23L41 25L39 25L39 24L38 24L38 22L37 22L37 23L36 23L36 22L35 22L35 23L34 23L34 22L33 22L33 21L35 21L35 20L37 20L37 17L34 17L34 19L35 19L35 20L33 20L33 21L29 21L29 20L27 20L27 19L24 19L24 16L25 16L25 18L26 18L26 16L25 16L25 15L27 15L27 17L29 17L29 18L28 18L28 19L29 19L29 18L30 18L30 17L31 17L31 20L32 20L32 18L33 18L33 15L32 15L32 16L31 16L31 15L30 15L30 16L28 16L28 15L27 15L27 14L29 14L29 13L28 13L28 12L26 12L26 11L25 11L25 8L24 8L24 7L25 7L25 6ZM28 6L28 7L29 7L29 6ZM39 6L39 8L41 8L41 9L42 9L42 8L43 8L43 7L44 7L44 6L43 6L43 7L42 7L42 6L41 6L41 7L40 7L40 6ZM41 7L41 8L42 8L42 7ZM52 8L52 9L51 9L51 10L52 10L52 9L55 9L55 10L54 10L54 11L55 11L55 12L56 12L56 13L57 13L57 12L56 12L56 11L57 11L57 8L56 8L56 9L55 9L55 8ZM6 9L6 10L7 10L7 9ZM15 10L15 11L16 11L16 10ZM55 10L55 11L56 11L56 10ZM0 11L0 14L1 14L1 11ZM35 11L35 12L36 12L36 11ZM51 11L51 12L52 12L52 11ZM9 12L9 13L10 13L10 12ZM22 12L22 13L23 13L23 12ZM44 12L44 13L42 13L42 14L44 14L44 13L45 13L45 12ZM30 13L30 14L31 14L31 13ZM47 14L47 15L48 15L48 14ZM0 15L0 16L1 16L1 15ZM43 15L43 16L44 16L44 15ZM56 15L56 18L57 18L57 15ZM51 16L51 17L52 17L52 16ZM14 17L14 18L13 18L13 19L15 19L15 20L14 20L14 22L13 22L13 21L11 21L11 22L12 22L12 23L11 23L11 24L12 24L12 23L13 23L13 26L14 26L14 25L15 25L15 26L16 26L16 27L17 27L17 25L16 25L16 24L17 24L17 23L16 23L16 20L17 20L17 22L21 22L21 23L20 23L20 24L19 24L19 23L18 23L18 24L19 24L19 25L18 25L18 26L19 26L19 27L20 27L20 30L21 30L21 33L20 33L20 34L21 34L21 35L20 35L20 36L19 36L19 37L20 37L20 38L21 38L21 40L22 40L22 41L24 41L24 42L25 42L25 41L26 41L26 40L27 40L27 41L29 41L29 42L31 42L31 43L32 43L32 44L31 44L31 45L32 45L32 46L33 46L33 47L34 47L34 46L35 46L35 45L33 45L33 44L36 44L36 42L34 42L34 41L35 41L35 40L34 40L34 39L36 39L36 41L37 41L37 42L39 42L39 41L37 41L37 39L38 39L38 37L37 37L37 38L36 38L36 35L35 35L35 36L33 36L33 35L31 35L31 34L30 34L30 37L29 37L29 36L26 36L26 35L25 35L25 37L24 37L24 39L23 39L23 38L22 38L22 37L23 37L23 35L24 35L24 34L21 34L21 33L22 33L22 32L23 32L23 33L25 33L25 34L26 34L26 33L25 33L25 32L26 32L26 31L22 31L22 30L21 30L21 29L23 29L23 30L25 30L25 29L26 29L26 26L27 26L27 25L29 25L29 26L31 26L31 27L32 27L32 28L33 28L33 29L34 29L34 27L32 27L32 26L33 26L33 25L31 25L31 23L30 23L30 24L29 24L29 23L27 23L27 22L28 22L28 21L27 21L27 20L23 20L23 21L24 21L24 22L25 22L25 24L24 24L24 26L23 26L23 27L22 27L22 25L23 25L23 22L21 22L21 20L20 20L20 19L19 19L19 18L18 18L18 20L17 20L17 18L16 18L16 19L15 19L15 17ZM25 21L25 22L27 22L27 21ZM39 21L39 22L40 22L40 21ZM44 21L44 22L45 22L45 21ZM14 22L14 23L15 23L15 24L16 24L16 23L15 23L15 22ZM32 22L32 24L34 24L34 23L33 23L33 22ZM21 23L21 24L22 24L22 23ZM26 23L26 24L27 24L27 23ZM53 23L53 24L54 24L54 23ZM3 24L3 25L2 25L2 26L1 26L1 27L2 27L2 26L5 26L5 25L4 25L4 24ZM42 24L42 25L41 25L41 28L40 28L40 29L41 29L41 28L42 28L42 26L43 26L43 24ZM19 25L19 26L21 26L21 25ZM53 25L53 26L54 26L54 25ZM24 26L24 29L25 29L25 26ZM3 27L3 29L4 29L4 27ZM5 27L5 30L8 30L8 27ZM27 27L27 30L30 30L30 27ZM49 27L49 30L52 30L52 27ZM6 28L6 29L7 29L7 28ZM28 28L28 29L29 29L29 28ZM50 28L50 29L51 29L51 28ZM53 28L53 30L54 30L54 28ZM55 28L55 30L56 30L56 28ZM31 29L31 30L32 30L32 31L30 31L30 32L29 32L29 31L27 31L27 34L28 34L28 35L29 35L29 33L33 33L33 30L32 30L32 29ZM40 30L40 31L39 31L39 32L40 32L40 31L41 31L41 30ZM4 31L4 32L3 32L3 33L4 33L4 34L5 34L5 32L7 32L7 31ZM10 31L10 32L11 32L11 31ZM54 31L54 32L55 32L55 31ZM10 33L10 35L11 35L11 34L12 34L12 33ZM37 33L37 34L38 34L38 33ZM46 33L46 34L47 34L47 33ZM0 34L0 35L1 35L1 34ZM55 34L55 35L56 35L56 34ZM3 35L3 36L4 36L4 35ZM21 35L21 36L22 36L22 35ZM50 35L50 37L51 37L51 35ZM0 36L0 37L1 37L1 36ZM6 36L6 37L7 37L7 36ZM31 36L31 37L30 37L30 38L27 38L27 37L26 37L26 38L25 38L25 39L24 39L24 41L25 41L25 39L27 39L27 40L28 40L28 39L30 39L30 38L31 38L31 40L32 40L32 41L34 41L34 40L32 40L32 38L33 38L33 39L34 39L34 37L32 37L32 36ZM52 37L52 38L53 38L53 37ZM43 38L43 39L44 39L44 38ZM56 38L56 39L57 39L57 38ZM16 39L16 40L15 40L15 41L16 41L16 40L17 40L17 39ZM22 39L22 40L23 40L23 39ZM4 41L4 42L5 42L5 41ZM8 42L8 43L7 43L7 44L8 44L8 43L9 43L9 42ZM33 42L33 43L34 43L34 42ZM40 42L40 43L39 43L39 44L38 44L38 46L39 46L39 44L40 44L40 43L41 43L41 42ZM14 43L14 44L13 44L13 45L15 45L15 44L16 44L16 43ZM45 45L45 46L46 46L46 45ZM13 46L13 47L14 47L14 49L15 49L15 47L16 47L16 46L15 46L15 47L14 47L14 46ZM24 47L24 48L25 48L25 47ZM19 48L19 49L20 49L20 48ZM41 48L41 50L39 50L39 49L38 49L38 51L40 51L40 52L41 52L41 51L43 51L43 50L45 50L45 52L46 52L46 50L45 50L45 49L43 49L43 50L42 50L42 48ZM9 49L9 50L10 50L10 49ZM27 49L27 52L30 52L30 49ZM49 49L49 52L52 52L52 49ZM28 50L28 51L29 51L29 50ZM50 50L50 51L51 51L51 50ZM53 50L53 52L54 52L54 50ZM17 51L17 52L18 52L18 51ZM24 51L24 52L23 52L23 54L25 54L25 53L24 53L24 52L25 52L25 51ZM31 51L31 52L32 52L32 51ZM36 51L36 52L37 52L37 51ZM38 52L38 53L39 53L39 52ZM55 52L55 53L54 53L54 54L55 54L55 53L56 53L56 52ZM42 53L42 54L43 54L43 55L45 55L45 56L46 56L46 55L45 55L45 54L43 54L43 53ZM47 53L47 54L48 54L48 53ZM48 55L48 56L49 56L49 55ZM56 55L56 56L57 56L57 55ZM27 56L27 57L29 57L29 56ZM0 0L0 7L7 7L7 0ZM1 1L1 6L6 6L6 1ZM2 2L2 5L5 5L5 2ZM50 0L50 7L57 7L57 0ZM51 1L51 6L56 6L56 1ZM52 2L52 5L55 5L55 2ZM0 50L0 57L7 57L7 50ZM1 51L1 56L6 56L6 51ZM2 52L2 55L5 55L5 52Z" fill="#000000"/></g></g></svg>
