<?xml version="1.0" encoding="UTF-8"?>
<svg xmlns="http://www.w3.org/2000/svg" version="1.1" width="300" height="300" viewBox="0 0 300 300"><rect x="0" y="0" width="300" height="300" fill="#ffffff"/><g transform="scale(4.918)"><g transform="translate(2,2)"><path fill-rule="evenodd" d="M8 0L8 4L11 4L11 5L10 5L10 7L9 7L9 5L8 5L8 7L9 7L9 8L10 8L10 9L11 9L11 10L12 10L12 9L13 9L13 8L12 8L12 7L13 7L13 6L14 6L14 10L13 10L13 11L14 11L14 12L16 12L16 13L17 13L17 14L15 14L15 13L13 13L13 12L12 12L12 11L10 11L10 10L8 10L8 11L9 11L9 12L8 12L8 15L7 15L7 14L6 14L6 15L2 15L2 14L3 14L3 13L4 13L4 10L5 10L5 9L7 9L7 8L4 8L4 9L3 9L3 10L1 10L1 9L2 9L2 8L0 8L0 10L1 10L1 11L0 11L0 13L1 13L1 14L0 14L0 16L1 16L1 15L2 15L2 17L0 17L0 18L2 18L2 17L3 17L3 18L5 18L5 19L8 19L8 18L9 18L9 13L10 13L10 14L11 14L11 15L12 15L12 16L11 16L11 17L10 17L10 20L11 20L11 21L10 21L10 22L8 22L8 21L9 21L9 20L6 20L6 21L5 21L5 20L4 20L4 19L1 19L1 20L2 20L2 21L1 21L1 22L0 22L0 25L1 25L1 26L2 26L2 27L0 27L0 28L3 28L3 26L2 26L2 24L4 24L4 29L3 29L3 30L4 30L4 32L3 32L3 31L2 31L2 33L1 33L1 32L0 32L0 34L1 34L1 35L3 35L3 37L1 37L1 39L0 39L0 40L1 40L1 41L0 41L0 42L1 42L1 44L0 44L0 45L1 45L1 46L0 46L0 48L5 48L5 47L7 47L7 48L6 48L6 49L7 49L7 48L8 48L8 50L9 50L9 51L8 51L8 53L9 53L9 51L10 51L10 52L12 52L12 48L11 48L11 47L9 47L9 48L8 48L8 46L11 46L11 45L13 45L13 49L14 49L14 48L16 48L16 49L15 49L15 50L13 50L13 54L12 54L12 53L10 53L10 54L11 54L11 55L8 55L8 57L10 57L10 56L11 56L11 57L12 57L12 56L11 56L11 55L13 55L13 57L14 57L14 56L15 56L15 55L16 55L16 54L18 54L18 53L19 53L19 55L18 55L18 56L17 56L17 57L22 57L22 56L23 56L23 57L24 57L24 56L25 56L25 57L28 57L28 56L29 56L29 55L30 55L30 57L31 57L31 55L33 55L33 56L32 56L32 57L40 57L40 56L41 56L41 54L44 54L44 53L45 53L45 54L46 54L46 55L44 55L44 57L45 57L45 56L47 56L47 57L50 57L50 56L49 56L49 55L47 55L47 54L46 54L46 49L45 49L45 48L48 48L48 50L47 50L47 51L48 51L48 54L50 54L50 55L51 55L51 56L52 56L52 55L54 55L54 54L57 54L57 51L56 51L56 52L55 52L55 53L54 53L54 52L53 52L53 51L54 51L54 50L55 50L55 49L57 49L57 47L56 47L56 45L54 45L54 44L53 44L53 43L54 43L54 42L55 42L55 43L56 43L56 42L57 42L57 40L55 40L55 41L54 41L54 39L53 39L53 38L55 38L55 39L57 39L57 38L55 38L55 37L57 37L57 36L56 36L56 29L57 29L57 28L56 28L56 27L55 27L55 24L56 24L56 25L57 25L57 24L56 24L56 22L55 22L55 24L53 24L53 25L54 25L54 26L51 26L51 25L52 25L52 23L53 23L53 22L54 22L54 21L52 21L52 19L51 19L51 20L50 20L50 19L46 19L46 20L45 20L45 19L43 19L43 18L45 18L45 17L47 17L47 18L49 18L49 17L50 17L50 18L52 18L52 16L51 16L51 13L52 13L52 12L50 12L50 11L53 11L53 12L54 12L54 11L55 11L55 13L54 13L54 14L52 14L52 15L53 15L53 19L55 19L55 21L57 21L57 19L55 19L55 18L54 18L54 15L55 15L55 16L56 16L56 17L57 17L57 15L56 15L56 10L57 10L57 8L53 8L53 9L52 9L52 8L51 8L51 9L50 9L50 11L49 11L49 12L50 12L50 13L47 13L47 14L50 14L50 16L49 16L49 15L46 15L46 14L45 14L45 15L44 15L44 17L43 17L43 16L41 16L41 18L40 18L40 15L41 15L41 13L40 13L40 11L39 11L39 9L40 9L40 10L41 10L41 12L42 12L42 15L43 15L43 12L42 12L42 11L45 11L45 10L46 10L46 12L48 12L48 11L47 11L47 10L49 10L49 9L47 9L47 8L46 8L46 7L47 7L47 5L48 5L48 0L46 0L46 1L45 1L45 0L42 0L42 1L41 1L41 0L40 0L40 1L41 1L41 2L42 2L42 1L44 1L44 2L43 2L43 3L47 3L47 5L44 5L44 4L41 4L41 3L40 3L40 2L38 2L38 1L39 1L39 0L38 0L38 1L37 1L37 0L36 0L36 2L35 2L35 1L33 1L33 0L30 0L30 1L29 1L29 0L28 0L28 2L27 2L27 0L26 0L26 2L27 2L27 3L28 3L28 4L26 4L26 3L25 3L25 0L24 0L24 1L23 1L23 0L22 0L22 1L23 1L23 3L22 3L22 5L21 5L21 6L20 6L20 5L19 5L19 6L18 6L18 5L17 5L17 6L16 6L16 5L12 5L12 3L9 3L9 2L11 2L11 1L10 1L10 0ZM13 0L13 2L14 2L14 3L13 3L13 4L14 4L14 3L16 3L16 4L17 4L17 3L18 3L18 2L19 2L19 3L21 3L21 0L19 0L19 1L18 1L18 2L17 2L17 1L16 1L16 2L15 2L15 1L14 1L14 0ZM30 1L30 2L28 2L28 3L29 3L29 4L30 4L30 2L31 2L31 1ZM46 1L46 2L47 2L47 1ZM16 2L16 3L17 3L17 2ZM33 2L33 3L32 3L32 4L33 4L33 3L34 3L34 2ZM37 2L37 3L36 3L36 4L34 4L34 5L33 5L33 8L34 8L34 6L35 6L35 7L36 7L36 6L37 6L37 7L38 7L38 6L37 6L37 5L38 5L38 4L39 4L39 7L40 7L40 9L41 9L41 7L42 7L42 8L43 8L43 7L44 7L44 6L43 6L43 5L41 5L41 4L39 4L39 3L38 3L38 2ZM23 3L23 5L22 5L22 6L21 6L21 8L22 8L22 9L21 9L21 10L20 10L20 8L19 8L19 7L20 7L20 6L19 6L19 7L18 7L18 6L17 6L17 7L18 7L18 8L16 8L16 11L17 11L17 13L18 13L18 12L19 12L19 13L21 13L21 14L20 14L20 15L19 15L19 14L18 14L18 15L19 15L19 16L20 16L20 17L21 17L21 18L23 18L23 17L24 17L24 16L25 16L25 17L26 17L26 18L24 18L24 19L20 19L20 18L19 18L19 17L14 17L14 16L17 16L17 15L15 15L15 14L12 14L12 13L11 13L11 14L12 14L12 15L14 15L14 16L12 16L12 17L14 17L14 18L13 18L13 19L12 19L12 20L13 20L13 19L14 19L14 20L15 20L15 21L18 21L18 22L16 22L16 23L15 23L15 22L14 22L14 21L11 21L11 23L10 23L10 24L12 24L12 23L13 23L13 22L14 22L14 24L13 24L13 25L12 25L12 26L11 26L11 27L10 27L10 28L11 28L11 29L9 29L9 30L10 30L10 32L9 32L9 34L8 34L8 31L6 31L6 32L4 32L4 33L5 33L5 34L3 34L3 35L4 35L4 36L5 36L5 37L4 37L4 38L2 38L2 39L1 39L1 40L3 40L3 42L2 42L2 41L1 41L1 42L2 42L2 44L1 44L1 45L2 45L2 44L4 44L4 45L3 45L3 47L5 47L5 46L8 46L8 45L5 45L5 43L3 43L3 42L4 42L4 39L5 39L5 41L6 41L6 42L8 42L8 41L9 41L9 40L10 40L10 42L9 42L9 43L8 43L8 44L9 44L9 45L11 45L11 44L12 44L12 43L13 43L13 42L14 42L14 41L13 41L13 40L15 40L15 41L16 41L16 42L15 42L15 43L14 43L14 44L13 44L13 45L14 45L14 44L15 44L15 46L14 46L14 47L15 47L15 46L17 46L17 45L18 45L18 44L20 44L20 45L19 45L19 46L18 46L18 47L17 47L17 48L21 48L21 47L20 47L20 45L21 45L21 46L23 46L23 45L26 45L26 43L28 43L28 44L29 44L29 45L27 45L27 46L28 46L28 47L29 47L29 48L30 48L30 47L32 47L32 46L33 46L33 45L32 45L32 44L33 44L33 42L32 42L32 41L31 41L31 42L30 42L30 41L28 41L28 40L27 40L27 41L26 41L26 42L24 42L24 43L25 43L25 44L23 44L23 42L20 42L20 43L19 43L19 41L21 41L21 40L22 40L22 41L25 41L25 40L26 40L26 39L25 39L25 38L24 38L24 37L23 37L23 36L24 36L24 34L23 34L23 32L22 32L22 31L21 31L21 30L20 30L20 29L22 29L22 30L23 30L23 31L24 31L24 32L25 32L25 30L24 30L24 29L25 29L25 28L26 28L26 27L25 27L25 26L24 26L24 27L25 27L25 28L24 28L24 29L23 29L23 28L22 28L22 27L21 27L21 26L20 26L20 25L21 25L21 22L20 22L20 23L19 23L19 24L20 24L20 25L19 25L19 26L20 26L20 27L19 27L19 28L18 28L18 29L16 29L16 27L18 27L18 25L17 25L17 24L18 24L18 22L19 22L19 21L20 21L20 20L21 20L21 21L24 21L24 22L25 22L25 23L26 23L26 22L27 22L27 19L29 19L29 18L28 18L28 17L27 17L27 15L26 15L26 14L24 14L24 15L23 15L23 16L22 16L22 17L21 17L21 14L23 14L23 13L31 13L31 12L32 12L32 11L30 11L30 10L29 10L29 9L27 9L27 10L29 10L29 11L28 11L28 12L27 12L27 11L26 11L26 10L25 10L25 11L24 11L24 12L23 12L23 10L22 10L22 9L23 9L23 7L24 7L24 9L26 9L26 6L25 6L25 7L24 7L24 6L23 6L23 5L24 5L24 4L25 4L25 3ZM37 3L37 4L36 4L36 5L35 5L35 6L36 6L36 5L37 5L37 4L38 4L38 3ZM11 5L11 7L12 7L12 5ZM27 5L27 8L30 8L30 5ZM40 5L40 7L41 7L41 5ZM15 6L15 7L16 7L16 6ZM22 6L22 7L23 7L23 6ZM28 6L28 7L29 7L29 6ZM31 6L31 8L32 8L32 6ZM42 6L42 7L43 7L43 6ZM45 6L45 7L46 7L46 6ZM48 6L48 7L49 7L49 6ZM18 8L18 9L19 9L19 8ZM37 8L37 9L36 9L36 10L35 10L35 9L33 9L33 11L35 11L35 12L37 12L37 13L38 13L38 12L37 12L37 9L38 9L38 8ZM45 8L45 9L46 9L46 10L47 10L47 9L46 9L46 8ZM31 9L31 10L32 10L32 9ZM43 9L43 10L44 10L44 9ZM53 9L53 11L54 11L54 10L55 10L55 9ZM6 10L6 11L7 11L7 10ZM17 10L17 11L18 11L18 10ZM1 11L1 13L3 13L3 11ZM19 11L19 12L21 12L21 13L23 13L23 12L22 12L22 11ZM29 11L29 12L30 12L30 11ZM6 12L6 13L7 13L7 12ZM33 12L33 13L34 13L34 15L33 15L33 16L34 16L34 17L31 17L31 15L30 15L30 14L28 14L28 15L30 15L30 16L29 16L29 17L31 17L31 19L33 19L33 21L32 21L32 20L31 20L31 22L33 22L33 21L34 21L34 23L35 23L35 24L34 24L34 26L31 26L31 27L32 27L32 28L31 28L31 29L32 29L32 28L33 28L33 29L34 29L34 32L33 32L33 33L32 33L32 36L31 36L31 34L30 34L30 38L29 38L29 36L28 36L28 34L29 34L29 33L28 33L28 32L29 32L29 31L28 31L28 32L27 32L27 31L26 31L26 32L27 32L27 33L28 33L28 34L27 34L27 35L25 35L25 36L28 36L28 37L26 37L26 38L27 38L27 39L28 39L28 38L29 38L29 39L33 39L33 41L34 41L34 43L36 43L36 44L37 44L37 42L35 42L35 41L36 41L36 39L37 39L37 38L35 38L35 37L36 37L36 36L34 36L34 35L35 35L35 31L38 31L38 32L37 32L37 33L36 33L36 35L37 35L37 36L38 36L38 37L40 37L40 38L41 38L41 37L44 37L44 38L42 38L42 40L43 40L43 43L42 43L42 41L41 41L41 40L40 40L40 39L38 39L38 40L37 40L37 41L39 41L39 40L40 40L40 41L41 41L41 42L39 42L39 43L38 43L38 44L39 44L39 43L41 43L41 44L40 44L40 45L39 45L39 46L38 46L38 45L37 45L37 46L36 46L36 45L35 45L35 44L34 44L34 47L35 47L35 49L34 49L34 48L33 48L33 50L32 50L32 49L31 49L31 50L32 50L32 51L31 51L31 53L30 53L30 54L32 54L32 51L33 51L33 52L34 52L34 55L36 55L36 56L39 56L39 55L37 55L37 53L38 53L38 52L39 52L39 54L41 54L41 52L42 52L42 48L43 48L43 47L45 47L45 46L46 46L46 47L47 47L47 45L48 45L48 46L49 46L49 45L48 45L48 43L49 43L49 42L50 42L50 43L51 43L51 45L50 45L50 47L49 47L49 48L50 48L50 47L52 47L52 46L53 46L53 47L54 47L54 49L55 49L55 46L54 46L54 45L52 45L52 42L54 42L54 41L52 41L52 42L51 42L51 41L49 41L49 42L48 42L48 43L47 43L47 41L48 41L48 40L47 40L47 39L46 39L46 40L45 40L45 37L44 37L44 36L45 36L45 35L47 35L47 37L46 37L46 38L48 38L48 39L49 39L49 40L51 40L51 37L52 37L52 38L53 38L53 37L52 37L52 36L54 36L54 37L55 37L55 34L54 34L54 33L55 33L55 31L54 31L54 33L52 33L52 31L51 31L51 33L50 33L50 34L49 34L49 32L48 32L48 31L47 31L47 30L48 30L48 26L47 26L47 25L49 25L49 24L48 24L48 23L50 23L50 24L51 24L51 23L50 23L50 20L49 20L49 22L47 22L47 21L48 21L48 20L46 20L46 22L47 22L47 23L46 23L46 24L45 24L45 23L44 23L44 22L45 22L45 21L44 21L44 22L42 22L42 23L41 23L41 24L40 24L40 25L39 25L39 23L38 23L38 24L37 24L37 21L36 21L36 20L34 20L34 19L35 19L35 17L36 17L36 19L37 19L37 20L38 20L38 19L37 19L37 17L36 17L36 15L37 15L37 16L38 16L38 17L39 17L39 15L40 15L40 14L39 14L39 15L37 15L37 14L36 14L36 13L34 13L34 12ZM44 12L44 13L45 13L45 12ZM35 14L35 15L34 15L34 16L35 16L35 15L36 15L36 14ZM6 15L6 16L4 16L4 17L5 17L5 18L8 18L8 16L7 16L7 15ZM6 16L6 17L7 17L7 16ZM48 16L48 17L49 17L49 16ZM50 16L50 17L51 17L51 16ZM15 18L15 20L17 20L17 19L18 19L18 18L17 18L17 19L16 19L16 18ZM39 18L39 22L40 22L40 21L43 21L43 19L40 19L40 18ZM3 20L3 21L4 21L4 22L3 22L3 23L4 23L4 24L8 24L8 26L9 26L9 23L8 23L8 22L7 22L7 21L6 21L6 22L5 22L5 21L4 21L4 20ZM18 20L18 21L19 21L19 20ZM24 20L24 21L25 21L25 20ZM28 20L28 23L27 23L27 25L26 25L26 26L27 26L27 25L28 25L28 26L29 26L29 25L30 25L30 24L31 24L31 23L30 23L30 21L29 21L29 20ZM51 21L51 22L52 22L52 21ZM1 22L1 24L2 24L2 22ZM4 22L4 23L5 23L5 22ZM6 22L6 23L7 23L7 22ZM22 22L22 23L23 23L23 24L22 24L22 25L23 25L23 24L24 24L24 25L25 25L25 24L24 24L24 23L23 23L23 22ZM35 22L35 23L36 23L36 22ZM29 23L29 24L30 24L30 23ZM35 24L35 26L37 26L37 28L34 28L34 29L37 29L37 28L38 28L38 30L39 30L39 31L40 31L40 30L41 30L41 29L40 29L40 28L42 28L42 27L41 27L41 26L43 26L43 25L42 25L42 24L41 24L41 26L40 26L40 27L39 27L39 25L38 25L38 26L37 26L37 24ZM44 24L44 25L45 25L45 28L44 28L44 29L45 29L45 28L46 28L46 29L47 29L47 26L46 26L46 25L47 25L47 24L46 24L46 25L45 25L45 24ZM6 25L6 26L7 26L7 25ZM13 25L13 26L12 26L12 27L11 27L11 28L12 28L12 30L11 30L11 32L10 32L10 33L11 33L11 34L10 34L10 35L8 35L8 34L5 34L5 35L8 35L8 36L6 36L6 37L5 37L5 38L6 38L6 39L7 39L7 40L6 40L6 41L8 41L8 39L9 39L9 38L10 38L10 36L12 36L12 38L15 38L15 37L16 37L16 35L17 35L17 37L22 37L22 38L20 38L20 39L19 39L19 40L18 40L18 39L17 39L17 38L16 38L16 39L15 39L15 40L16 40L16 41L17 41L17 42L16 42L16 43L15 43L15 44L16 44L16 45L17 45L17 44L16 44L16 43L18 43L18 41L19 41L19 40L21 40L21 39L22 39L22 40L24 40L24 39L22 39L22 38L23 38L23 37L22 37L22 36L23 36L23 34L21 34L21 33L22 33L22 32L21 32L21 33L20 33L20 32L18 32L18 31L20 31L20 30L19 30L19 29L20 29L20 28L19 28L19 29L18 29L18 30L17 30L17 31L16 31L16 30L15 30L15 28L14 28L14 27L13 27L13 26L14 26L14 25ZM15 25L15 26L16 26L16 25ZM5 27L5 30L8 30L8 27ZM12 27L12 28L13 28L13 27ZM27 27L27 30L30 30L30 27ZM38 27L38 28L39 28L39 27ZM49 27L49 30L52 30L52 27ZM53 27L53 28L54 28L54 29L56 29L56 28L55 28L55 27ZM6 28L6 29L7 29L7 28ZM28 28L28 29L29 29L29 28ZM50 28L50 29L51 29L51 28ZM0 29L0 30L1 30L1 29ZM42 29L42 31L41 31L41 34L39 34L39 32L38 32L38 33L37 33L37 35L42 35L42 36L44 36L44 35L43 35L43 33L44 33L44 34L45 34L45 33L46 33L46 31L43 31L43 29ZM14 30L14 32L15 32L15 34L14 34L14 33L13 33L13 34L14 34L14 36L13 36L13 35L12 35L12 34L11 34L11 35L12 35L12 36L13 36L13 37L15 37L15 34L18 34L18 36L19 36L19 35L20 35L20 34L19 34L19 33L16 33L16 32L15 32L15 30ZM12 31L12 32L13 32L13 31ZM42 31L42 32L43 32L43 31ZM6 32L6 33L7 33L7 32ZM30 32L30 33L31 33L31 32ZM33 33L33 35L34 35L34 33ZM47 33L47 34L48 34L48 35L49 35L49 36L48 36L48 37L49 37L49 39L50 39L50 37L49 37L49 36L51 36L51 35L49 35L49 34L48 34L48 33ZM51 33L51 34L52 34L52 33ZM32 36L32 38L34 38L34 36ZM6 37L6 38L7 38L7 39L8 39L8 37ZM10 39L10 40L11 40L11 39ZM34 39L34 41L35 41L35 39ZM43 39L43 40L44 40L44 43L45 43L45 44L44 44L44 46L45 46L45 44L46 44L46 45L47 45L47 44L46 44L46 43L45 43L45 42L46 42L46 41L47 41L47 40L46 40L46 41L45 41L45 40L44 40L44 39ZM11 41L11 42L10 42L10 43L11 43L11 42L13 42L13 41ZM27 41L27 42L28 42L28 43L30 43L30 45L31 45L31 46L32 46L32 45L31 45L31 43L30 43L30 42L28 42L28 41ZM55 41L55 42L56 42L56 41ZM6 43L6 44L7 44L7 43ZM20 43L20 44L21 44L21 45L23 45L23 44L22 44L22 43ZM40 45L40 46L39 46L39 47L41 47L41 45ZM42 45L42 47L43 47L43 45ZM51 45L51 46L52 46L52 45ZM1 46L1 47L2 47L2 46ZM25 46L25 47L22 47L22 49L21 49L21 51L22 51L22 53L21 53L21 54L20 54L20 55L19 55L19 56L22 56L22 55L23 55L23 56L24 56L24 55L23 55L23 54L22 54L22 53L24 53L24 54L25 54L25 56L26 56L26 55L28 55L28 54L27 54L27 53L26 53L26 51L24 51L24 52L23 52L23 51L22 51L22 50L23 50L23 49L24 49L24 48L26 48L26 46ZM29 46L29 47L30 47L30 46ZM36 47L36 49L35 49L35 51L34 51L34 52L35 52L35 51L36 51L36 53L37 53L37 51L40 51L40 49L39 49L39 48L38 48L38 47ZM37 48L37 49L36 49L36 51L37 51L37 49L38 49L38 48ZM10 49L10 50L11 50L11 49ZM16 49L16 50L15 50L15 51L14 51L14 54L13 54L13 55L14 55L14 54L15 54L15 53L18 53L18 51L19 51L19 50L20 50L20 49L18 49L18 51L17 51L17 49ZM27 49L27 52L30 52L30 49ZM49 49L49 52L52 52L52 49ZM28 50L28 51L29 51L29 50ZM44 50L44 52L43 52L43 53L44 53L44 52L45 52L45 50ZM50 50L50 51L51 51L51 50ZM15 51L15 52L17 52L17 51ZM19 52L19 53L20 53L20 52ZM24 52L24 53L25 53L25 54L26 54L26 53L25 53L25 52ZM50 53L50 54L51 54L51 55L52 55L52 53ZM53 53L53 54L54 54L54 53ZM21 54L21 55L22 55L22 54ZM42 56L42 57L43 57L43 56ZM53 56L53 57L54 57L54 56ZM56 56L56 57L57 57L57 56ZM0 0L0 7L7 7L7 0ZM1 1L1 6L6 6L6 1ZM2 2L2 5L5 5L5 2ZM50 0L50 7L57 7L57 0ZM51 1L51 6L56 6L56 1ZM52 2L52 5L55 5L55 2ZM0 50L0 57L7 57L7 50ZM1 51L1 56L6 56L6 51ZM2 52L2 55L5 55L5 52Z" fill="#000000"/></g></g></svg>
