<?xml version="1.0" encoding="UTF-8"?>
<svg xmlns="http://www.w3.org/2000/svg" version="1.1" width="300" height="300" viewBox="0 0 300 300"><rect x="0" y="0" width="300" height="300" fill="#ffffff"/><g transform="scale(4.918)"><g transform="translate(2,2)"><path fill-rule="evenodd" d="M11 0L11 1L10 1L10 2L9 2L9 1L8 1L8 2L9 2L9 3L8 3L8 4L9 4L9 3L11 3L11 2L13 2L13 3L12 3L12 5L14 5L14 7L15 7L15 6L16 6L16 8L15 8L15 9L16 9L16 8L17 8L17 11L18 11L18 9L19 9L19 12L20 12L20 13L22 13L22 12L20 12L20 11L22 11L22 9L21 9L21 10L20 10L20 9L19 9L19 8L17 8L17 6L18 6L18 7L19 7L19 6L20 6L20 7L21 7L21 6L20 6L20 5L18 5L18 4L20 4L20 3L21 3L21 4L22 4L22 5L24 5L24 4L25 4L25 6L24 6L24 7L23 7L23 6L22 6L22 8L24 8L24 9L23 9L23 11L24 11L24 12L23 12L23 13L24 13L24 14L23 14L23 15L22 15L22 14L21 14L21 15L19 15L19 13L18 13L18 12L16 12L16 13L18 13L18 15L19 15L19 16L18 16L18 17L17 17L17 16L15 16L15 17L13 17L13 16L14 16L14 13L11 13L11 12L14 12L14 11L13 11L13 10L14 10L14 8L13 8L13 6L12 6L12 7L11 7L11 6L10 6L10 7L9 7L9 5L8 5L8 7L9 7L9 8L6 8L6 9L8 9L8 10L9 10L9 11L7 11L7 10L5 10L5 11L4 11L4 9L5 9L5 8L0 8L0 14L1 14L1 15L0 15L0 17L1 17L1 21L0 21L0 22L2 22L2 23L0 23L0 24L1 24L1 25L0 25L0 26L1 26L1 25L2 25L2 27L0 27L0 28L2 28L2 27L3 27L3 29L0 29L0 34L1 34L1 35L0 35L0 37L1 37L1 39L0 39L0 41L2 41L2 43L3 43L3 44L2 44L2 45L3 45L3 44L4 44L4 45L5 45L5 47L3 47L3 46L2 46L2 47L1 47L1 45L0 45L0 48L5 48L5 47L7 47L7 46L8 46L8 51L9 51L9 49L10 49L10 50L12 50L12 52L13 52L13 50L12 50L12 48L11 48L11 47L10 47L10 46L13 46L13 48L15 48L15 47L16 47L16 49L14 49L14 50L15 50L15 51L14 51L14 52L15 52L15 51L17 51L17 53L19 53L19 54L17 54L17 55L18 55L18 56L16 56L16 55L9 55L9 53L10 53L10 54L11 54L11 53L10 53L10 52L11 52L11 51L10 51L10 52L8 52L8 57L9 57L9 56L10 56L10 57L11 57L11 56L13 56L13 57L14 57L14 56L15 56L15 57L19 57L19 56L22 56L22 55L24 55L24 56L23 56L23 57L24 57L24 56L25 56L25 57L26 57L26 56L28 56L28 55L27 55L27 53L28 53L28 54L29 54L29 55L30 55L30 56L29 56L29 57L31 57L31 56L32 56L32 55L33 55L33 56L34 56L34 55L33 55L33 54L32 54L32 52L33 52L33 51L35 51L35 50L36 50L36 52L34 52L34 53L37 53L37 54L35 54L35 57L37 57L37 54L38 54L38 57L39 57L39 55L40 55L40 52L43 52L43 53L41 53L41 55L42 55L42 56L41 56L41 57L44 57L44 56L45 56L45 57L47 57L47 55L48 55L48 56L50 56L50 54L49 54L49 53L51 53L51 54L53 54L53 52L54 52L54 54L55 54L55 53L56 53L56 51L55 51L55 50L57 50L57 49L55 49L55 50L54 50L54 48L55 48L55 47L56 47L56 48L57 48L57 47L56 47L56 46L57 46L57 44L56 44L56 41L54 41L54 40L55 40L55 39L57 39L57 37L56 37L56 38L55 38L55 35L53 35L53 34L52 34L52 36L51 36L51 37L50 37L50 38L49 38L49 36L50 36L50 33L54 33L54 34L57 34L57 33L56 33L56 31L55 31L55 30L53 30L53 29L54 29L54 28L56 28L56 30L57 30L57 28L56 28L56 25L57 25L57 24L55 24L55 23L56 23L56 22L57 22L57 21L55 21L55 22L54 22L54 24L53 24L53 22L50 22L50 19L47 19L47 18L50 18L50 17L51 17L51 16L53 16L53 17L54 17L54 16L55 16L55 14L57 14L57 13L55 13L55 14L54 14L54 16L53 16L53 15L49 15L49 14L50 14L50 13L51 13L51 14L52 14L52 13L51 13L51 12L49 12L49 13L47 13L47 14L46 14L46 12L45 12L45 10L46 10L46 11L47 11L47 10L46 10L46 9L48 9L48 11L52 11L52 12L53 12L53 11L54 11L54 12L57 12L57 11L56 11L56 10L55 10L55 11L54 11L54 10L53 10L53 9L54 9L54 8L53 8L53 9L52 9L52 8L51 8L51 10L49 10L49 9L50 9L50 8L49 8L49 6L48 6L48 7L47 7L47 5L48 5L48 0L46 0L46 1L45 1L45 2L44 2L44 1L43 1L43 0L42 0L42 1L41 1L41 2L40 2L40 0L39 0L39 1L38 1L38 0L37 0L37 1L36 1L36 0L35 0L35 1L33 1L33 2L31 2L31 4L28 4L28 3L30 3L30 2L28 2L28 1L31 1L31 0L28 0L28 1L26 1L26 0L24 0L24 2L23 2L23 3L24 3L24 4L22 4L22 3L21 3L21 1L23 1L23 0L21 0L21 1L20 1L20 3L17 3L17 4L16 4L16 2L17 2L17 1L16 1L16 2L15 2L15 4L14 4L14 1L15 1L15 0L14 0L14 1L13 1L13 0ZM18 1L18 2L19 2L19 1ZM25 1L25 2L24 2L24 3L25 3L25 4L26 4L26 3L25 3L25 2L26 2L26 1ZM35 1L35 3L34 3L34 2L33 2L33 3L32 3L32 4L31 4L31 8L34 8L34 6L33 6L33 5L36 5L36 6L35 6L35 9L36 9L36 6L37 6L37 8L38 8L38 11L39 11L39 12L38 12L38 14L37 14L37 13L36 13L36 14L37 14L37 15L34 15L34 16L30 16L30 15L26 15L26 16L24 16L24 15L25 15L25 14L28 14L28 13L29 13L29 14L30 14L30 13L29 13L29 12L30 12L30 11L31 11L31 12L32 12L32 13L31 13L31 15L33 15L33 14L35 14L35 13L33 13L33 11L31 11L31 10L32 10L32 9L31 9L31 10L30 10L30 9L28 9L28 11L29 11L29 12L28 12L28 13L25 13L25 12L27 12L27 11L26 11L26 10L27 10L27 9L26 9L26 6L25 6L25 7L24 7L24 8L25 8L25 12L24 12L24 13L25 13L25 14L24 14L24 15L23 15L23 16L21 16L21 17L18 17L18 18L17 18L17 17L15 17L15 18L17 18L17 19L16 19L16 20L15 20L15 21L13 21L13 22L15 22L15 23L14 23L14 24L15 24L15 25L16 25L16 26L14 26L14 25L13 25L13 23L12 23L12 22L11 22L11 23L10 23L10 25L8 25L8 24L9 24L9 23L8 23L8 22L10 22L10 21L8 21L8 20L11 20L11 18L12 18L12 19L13 19L13 20L14 20L14 19L13 19L13 17L11 17L11 15L12 15L12 16L13 16L13 14L11 14L11 15L10 15L10 14L9 14L9 12L7 12L7 11L5 11L5 12L4 12L4 13L6 13L6 14L8 14L8 15L5 15L5 14L2 14L2 16L3 16L3 17L4 17L4 18L2 18L2 19L3 19L3 20L2 20L2 22L3 22L3 24L2 24L2 25L3 25L3 24L4 24L4 23L5 23L5 25L4 25L4 26L5 26L5 25L6 25L6 26L9 26L9 27L11 27L11 31L12 31L12 32L13 32L13 33L14 33L14 34L13 34L13 35L12 35L12 33L11 33L11 36L10 36L10 35L6 35L6 36L7 36L7 37L6 37L6 38L5 38L5 39L4 39L4 40L2 40L2 39L3 39L3 38L2 38L2 39L1 39L1 40L2 40L2 41L4 41L4 40L5 40L5 39L6 39L6 40L7 40L7 41L5 41L5 42L3 42L3 43L4 43L4 44L5 44L5 45L6 45L6 46L7 46L7 45L8 45L8 44L10 44L10 43L11 43L11 45L12 45L12 43L13 43L13 45L14 45L14 44L16 44L16 42L18 42L18 43L17 43L17 44L18 44L18 45L15 45L15 46L17 46L17 47L18 47L18 48L17 48L17 49L16 49L16 50L17 50L17 49L18 49L18 50L19 50L19 49L20 49L20 50L22 50L22 51L18 51L18 52L19 52L19 53L21 53L21 54L22 54L22 53L23 53L23 54L24 54L24 53L23 53L23 52L22 52L22 51L23 51L23 50L24 50L24 51L25 51L25 53L26 53L26 49L25 49L25 48L26 48L26 47L27 47L27 46L29 46L29 45L27 45L27 44L30 44L30 46L31 46L31 47L28 47L28 48L31 48L31 50L32 50L32 51L31 51L31 52L32 52L32 51L33 51L33 50L35 50L35 49L36 49L36 48L37 48L37 49L38 49L38 50L37 50L37 53L38 53L38 54L39 54L39 52L40 52L40 51L41 51L41 50L42 50L42 51L43 51L43 50L42 50L42 47L43 47L43 46L44 46L44 45L45 45L45 44L41 44L41 43L44 43L44 42L41 42L41 41L42 41L42 40L43 40L43 39L44 39L44 41L45 41L45 43L49 43L49 42L47 42L47 41L51 41L51 42L50 42L50 43L51 43L51 44L50 44L50 45L51 45L51 46L49 46L49 44L47 44L47 45L46 45L46 46L47 46L47 47L45 47L45 48L43 48L43 49L44 49L44 53L43 53L43 54L42 54L42 55L43 55L43 56L44 56L44 55L45 55L45 54L48 54L48 52L47 52L47 51L48 51L48 48L49 48L49 47L51 47L51 48L54 48L54 47L55 47L55 46L56 46L56 44L54 44L54 45L55 45L55 46L54 46L54 47L53 47L53 45L51 45L51 44L53 44L53 43L54 43L54 41L53 41L53 40L54 40L54 39L55 39L55 38L54 38L54 39L53 39L53 37L54 37L54 36L53 36L53 37L51 37L51 38L50 38L50 40L49 40L49 39L47 39L47 37L48 37L48 36L49 36L49 35L48 35L48 36L47 36L47 35L46 35L46 34L47 34L47 33L48 33L48 34L49 34L49 33L50 33L50 32L49 32L49 31L48 31L48 28L47 28L47 27L48 27L48 25L49 25L49 26L51 26L51 24L52 24L52 25L53 25L53 27L55 27L55 26L54 26L54 25L55 25L55 24L54 24L54 25L53 25L53 24L52 24L52 23L50 23L50 22L48 22L48 23L49 23L49 24L48 24L48 25L46 25L46 24L47 24L47 23L46 23L46 22L47 22L47 21L49 21L49 20L47 20L47 19L46 19L46 18L47 18L47 17L46 17L46 16L48 16L48 17L49 17L49 15L45 15L45 14L42 14L42 11L41 11L41 12L40 12L40 11L39 11L39 10L41 10L41 9L42 9L42 6L43 6L43 7L44 7L44 6L45 6L45 7L46 7L46 8L47 8L47 7L46 7L46 6L45 6L45 5L47 5L47 3L43 3L43 1L42 1L42 2L41 2L41 3L40 3L40 4L41 4L41 3L42 3L42 4L43 4L43 5L40 5L40 6L39 6L39 7L38 7L38 6L37 6L37 5L39 5L39 4L38 4L38 3L39 3L39 2L38 2L38 1L37 1L37 2L36 2L36 1ZM46 1L46 2L47 2L47 1ZM27 2L27 3L28 3L28 2ZM33 3L33 4L34 4L34 3ZM36 3L36 5L37 5L37 3ZM10 4L10 5L11 5L11 4ZM15 4L15 5L16 5L16 4ZM44 4L44 5L45 5L45 4ZM27 5L27 8L30 8L30 5ZM28 6L28 7L29 7L29 6ZM32 6L32 7L33 7L33 6ZM40 6L40 7L39 7L39 8L41 8L41 6ZM12 8L12 9L13 9L13 8ZM44 8L44 10L43 10L43 12L44 12L44 13L45 13L45 12L44 12L44 10L45 10L45 8ZM48 8L48 9L49 9L49 8ZM55 8L55 9L56 9L56 8ZM1 9L1 10L2 10L2 9ZM10 9L10 11L12 11L12 10L11 10L11 9ZM33 9L33 10L34 10L34 12L36 12L36 11L37 11L37 10L36 10L36 11L35 11L35 10L34 10L34 9ZM15 10L15 11L16 11L16 10ZM29 10L29 11L30 11L30 10ZM52 10L52 11L53 11L53 10ZM2 12L2 13L3 13L3 12ZM6 12L6 13L7 13L7 12ZM39 13L39 15L40 15L40 16L34 16L34 17L29 17L29 18L31 18L31 19L30 19L30 20L29 20L29 19L28 19L28 18L27 18L27 17L28 17L28 16L26 16L26 18L25 18L25 17L24 17L24 18L25 18L25 19L24 19L24 20L23 20L23 21L22 21L22 20L21 20L21 21L19 21L19 20L18 20L18 19L19 19L19 18L18 18L18 19L17 19L17 21L19 21L19 22L17 22L17 23L18 23L18 24L16 24L16 23L15 23L15 24L16 24L16 25L21 25L21 26L18 26L18 27L17 27L17 28L16 28L16 27L14 27L14 28L13 28L13 27L12 27L12 26L13 26L13 25L12 25L12 23L11 23L11 25L10 25L10 26L11 26L11 27L12 27L12 28L13 28L13 29L12 29L12 31L14 31L14 33L19 33L19 32L16 32L16 31L15 31L15 30L14 30L14 29L15 29L15 28L16 28L16 29L17 29L17 31L19 31L19 28L20 28L20 29L21 29L21 30L20 30L20 31L21 31L21 32L20 32L20 33L21 33L21 35L20 35L20 36L19 36L19 35L17 35L17 34L16 34L16 35L15 35L15 34L14 34L14 35L15 35L15 36L14 36L14 37L10 37L10 36L9 36L9 37L8 37L8 39L7 39L7 38L6 38L6 39L7 39L7 40L10 40L10 39L11 39L11 43L12 43L12 42L13 42L13 43L15 43L15 41L16 41L16 40L17 40L17 41L19 41L19 43L20 43L20 41L19 41L19 40L18 40L18 39L20 39L20 38L17 38L17 37L20 37L20 36L21 36L21 37L22 37L22 38L21 38L21 39L23 39L23 41L21 41L21 43L22 43L22 42L23 42L23 44L25 44L25 45L23 45L23 46L25 46L25 47L24 47L24 48L23 48L23 49L22 49L22 50L23 50L23 49L24 49L24 50L25 50L25 49L24 49L24 48L25 48L25 47L26 47L26 46L25 46L25 45L26 45L26 44L25 44L25 42L26 42L26 43L27 43L27 42L26 42L26 41L32 41L32 42L29 42L29 43L33 43L33 44L34 44L34 42L35 42L35 46L33 46L33 45L32 45L32 44L31 44L31 45L32 45L32 46L33 46L33 47L31 47L31 48L33 48L33 49L35 49L35 48L36 48L36 45L37 45L37 46L38 46L38 45L37 45L37 42L38 42L38 43L39 43L39 44L40 44L40 43L41 43L41 42L38 42L38 41L37 41L37 40L36 40L36 41L35 41L35 39L38 39L38 40L39 40L39 39L38 39L38 37L39 37L39 38L40 38L40 36L41 36L41 39L43 39L43 37L44 37L44 38L45 38L45 37L47 37L47 36L45 36L45 37L44 37L44 34L46 34L46 33L47 33L47 32L48 32L48 31L47 31L47 30L46 30L46 29L47 29L47 28L46 28L46 26L45 26L45 25L44 25L44 23L45 23L45 22L46 22L46 20L45 20L45 19L43 19L43 20L41 20L41 19L42 19L42 18L43 18L43 16L45 16L45 15L42 15L42 14L41 14L41 13ZM15 14L15 15L16 15L16 14ZM40 14L40 15L41 15L41 14ZM3 15L3 16L4 16L4 17L5 17L5 18L6 18L6 19L7 19L7 20L5 20L5 19L4 19L4 21L3 21L3 22L4 22L4 21L5 21L5 22L6 22L6 23L7 23L7 22L8 22L8 21L7 21L7 20L8 20L8 19L9 19L9 18L11 18L11 17L9 17L9 16L5 16L5 15ZM56 15L56 16L57 16L57 15ZM40 16L40 17L41 17L41 18L40 18L40 19L38 19L38 21L36 21L36 20L37 20L37 19L34 19L34 18L39 18L39 17L34 17L34 18L32 18L32 19L33 19L33 20L32 20L32 21L34 21L34 22L33 22L33 23L32 23L32 24L31 24L31 22L30 22L30 21L29 21L29 20L27 20L27 19L26 19L26 20L25 20L25 22L26 22L26 23L25 23L25 24L24 24L24 23L23 23L23 22L24 22L24 21L23 21L23 22L22 22L22 21L21 21L21 22L22 22L22 23L21 23L21 25L22 25L22 26L21 26L21 27L22 27L22 26L23 26L23 28L24 28L24 29L22 29L22 28L21 28L21 29L22 29L22 30L23 30L23 31L22 31L22 32L21 32L21 33L23 33L23 34L22 34L22 35L21 35L21 36L22 36L22 37L24 37L24 38L23 38L23 39L24 39L24 41L25 41L25 38L28 38L28 37L29 37L29 36L30 36L30 38L31 38L31 39L29 39L29 40L34 40L34 38L37 38L37 37L36 37L36 36L40 36L40 35L41 35L41 36L42 36L42 35L43 35L43 34L44 34L44 33L46 33L46 32L47 32L47 31L46 31L46 30L44 30L44 29L45 29L45 28L42 28L42 27L41 27L41 26L40 26L40 25L43 25L43 27L44 27L44 25L43 25L43 24L40 24L40 23L44 23L44 21L45 21L45 20L43 20L43 22L41 22L41 20L40 20L40 19L41 19L41 18L42 18L42 16ZM6 17L6 18L7 18L7 17ZM21 17L21 18L20 18L20 19L22 19L22 18L23 18L23 17ZM45 17L45 18L46 18L46 17ZM55 17L55 18L57 18L57 17ZM51 19L51 20L52 20L52 19ZM54 19L54 20L56 20L56 19ZM39 20L39 21L40 21L40 20ZM6 21L6 22L7 22L7 21ZM15 21L15 22L16 22L16 21ZM19 22L19 23L20 23L20 22ZM29 22L29 23L28 23L28 24L27 24L27 25L26 25L26 24L25 24L25 25L23 25L23 26L25 26L25 27L24 27L24 28L25 28L25 27L26 27L26 30L25 30L25 29L24 29L24 30L25 30L25 31L23 31L23 32L25 32L25 33L24 33L24 34L25 34L25 35L23 35L23 36L24 36L24 37L25 37L25 36L26 36L26 35L27 35L27 34L25 34L25 33L30 33L30 32L36 32L36 33L38 33L38 31L40 31L40 32L39 32L39 34L34 34L34 33L33 33L33 34L32 34L32 33L31 33L31 34L32 34L32 35L30 35L30 34L29 34L29 35L30 35L30 36L31 36L31 38L32 38L32 35L33 35L33 37L34 37L34 35L39 35L39 34L41 34L41 35L42 35L42 34L43 34L43 32L45 32L45 31L42 31L42 30L43 30L43 29L42 29L42 30L41 30L41 29L40 29L40 30L37 30L37 32L36 32L36 31L35 31L35 30L33 30L33 31L32 31L32 28L33 28L33 29L39 29L39 28L37 28L37 27L38 27L38 25L40 25L40 24L38 24L38 25L37 25L37 24L36 24L36 23L40 23L40 22L36 22L36 23L35 23L35 22L34 22L34 23L33 23L33 24L34 24L34 23L35 23L35 25L37 25L37 26L36 26L36 27L34 27L34 28L33 28L33 27L31 27L31 26L32 26L32 25L31 25L31 24L30 24L30 25L29 25L29 26L27 26L27 25L28 25L28 24L29 24L29 23L30 23L30 22ZM6 24L6 25L7 25L7 24ZM49 24L49 25L50 25L50 24ZM25 25L25 26L26 26L26 25ZM33 25L33 26L34 26L34 25ZM39 26L39 27L40 27L40 28L41 28L41 27L40 27L40 26ZM5 27L5 30L8 30L8 27ZM27 27L27 30L30 30L30 27ZM49 27L49 30L52 30L52 27ZM6 28L6 29L7 29L7 28ZM17 28L17 29L18 29L18 28ZM28 28L28 29L29 29L29 28ZM50 28L50 29L51 29L51 28ZM3 29L3 30L1 30L1 32L2 32L2 33L1 33L1 34L3 34L3 32L2 32L2 31L3 31L3 30L4 30L4 29ZM9 29L9 30L10 30L10 29ZM6 31L6 32L4 32L4 33L6 33L6 34L7 34L7 33L8 33L8 34L9 34L9 33L10 33L10 31L8 31L8 32L7 32L7 31ZM25 31L25 32L30 32L30 31ZM41 31L41 32L40 32L40 33L41 33L41 34L42 34L42 31ZM52 31L52 32L54 32L54 33L55 33L55 32L54 32L54 31ZM6 32L6 33L7 33L7 32ZM4 34L4 35L2 35L2 36L4 36L4 37L5 37L5 34ZM33 34L33 35L34 35L34 34ZM16 35L16 37L15 37L15 38L14 38L14 39L12 39L12 40L14 40L14 39L15 39L15 40L16 40L16 39L15 39L15 38L16 38L16 37L17 37L17 35ZM56 35L56 36L57 36L57 35ZM27 36L27 37L28 37L28 36ZM9 38L9 39L10 39L10 38ZM26 39L26 40L28 40L28 39ZM45 39L45 40L46 40L46 41L47 41L47 40L46 40L46 39ZM51 39L51 40L53 40L53 39ZM7 41L7 42L6 42L6 43L9 43L9 42L8 42L8 41ZM13 41L13 42L14 42L14 41ZM33 41L33 42L34 42L34 41ZM36 41L36 42L37 42L37 41ZM0 43L0 44L1 44L1 43ZM6 44L6 45L7 45L7 44ZM20 44L20 45L22 45L22 44ZM9 45L9 46L10 46L10 45ZM18 45L18 47L19 47L19 48L18 48L18 49L19 49L19 48L20 48L20 49L21 49L21 48L20 48L20 47L19 47L19 45ZM39 45L39 46L40 46L40 45ZM42 45L42 46L41 46L41 47L39 47L39 48L41 48L41 47L42 47L42 46L43 46L43 45ZM21 46L21 47L22 47L22 46ZM9 47L9 48L10 48L10 47ZM33 47L33 48L35 48L35 47ZM37 47L37 48L38 48L38 47ZM6 48L6 49L7 49L7 48ZM46 48L46 49L45 49L45 50L46 50L46 51L45 51L45 52L46 52L46 51L47 51L47 50L46 50L46 49L47 49L47 48ZM27 49L27 52L30 52L30 49ZM49 49L49 52L52 52L52 49ZM28 50L28 51L29 51L29 50ZM38 50L38 51L39 51L39 50ZM50 50L50 51L51 51L51 50ZM21 52L21 53L22 53L22 52ZM12 53L12 54L13 54L13 53ZM15 53L15 54L16 54L16 53ZM29 53L29 54L30 54L30 53ZM44 53L44 54L45 54L45 53ZM19 54L19 55L20 55L20 54ZM25 54L25 55L26 55L26 54ZM51 55L51 57L52 57L52 56L54 56L54 57L56 57L56 56L55 56L55 55ZM0 0L0 7L7 7L7 0ZM1 1L1 6L6 6L6 1ZM2 2L2 5L5 5L5 2ZM50 0L50 7L57 7L57 0ZM51 1L51 6L56 6L56 1ZM52 2L52 5L55 5L55 2ZM0 50L0 57L7 57L7 50ZM1 51L1 56L6 56L6 51ZM2 52L2 55L5 55L5 52Z" fill="#000000"/></g></g></svg>
