<?xml version="1.0" encoding="UTF-8"?>
<svg xmlns="http://www.w3.org/2000/svg" version="1.1" width="300" height="300" viewBox="0 0 300 300"><rect x="0" y="0" width="300" height="300" fill="#ffffff"/><g transform="scale(4.918)"><g transform="translate(2,2)"><path fill-rule="evenodd" d="M9 0L9 1L8 1L8 2L9 2L9 3L8 3L8 4L9 4L9 5L8 5L8 7L9 7L9 8L6 8L6 9L5 9L5 8L0 8L0 9L4 9L4 10L3 10L3 11L2 11L2 10L0 10L0 11L2 11L2 12L1 12L1 15L0 15L0 16L2 16L2 18L1 18L1 17L0 17L0 20L2 20L2 21L0 21L0 22L2 22L2 23L1 23L1 24L2 24L2 26L1 26L1 25L0 25L0 26L1 26L1 27L3 27L3 28L4 28L4 29L2 29L2 28L1 28L1 32L0 32L0 33L1 33L1 35L0 35L0 37L1 37L1 36L3 36L3 35L2 35L2 33L3 33L3 34L4 34L4 35L5 35L5 37L2 37L2 42L1 42L1 43L0 43L0 44L1 44L1 45L4 45L4 43L5 43L5 42L6 42L6 43L7 43L7 42L6 42L6 41L8 41L8 40L6 40L6 39L7 39L7 38L6 38L6 37L9 37L9 38L8 38L8 39L10 39L10 38L12 38L12 37L13 37L13 36L14 36L14 38L13 38L13 39L15 39L15 40L14 40L14 41L13 41L13 40L12 40L12 39L11 39L11 41L13 41L13 42L12 42L12 43L13 43L13 45L12 45L12 44L11 44L11 45L12 45L12 46L11 46L11 47L10 47L10 46L9 46L9 47L8 47L8 45L10 45L10 44L6 44L6 45L5 45L5 47L3 47L3 46L2 46L2 47L1 47L1 46L0 46L0 48L5 48L5 47L7 47L7 48L6 48L6 49L8 49L8 51L10 51L10 50L12 50L12 49L11 49L11 48L13 48L13 51L15 51L15 52L14 52L14 53L16 53L16 54L15 54L15 55L14 55L14 56L15 56L15 55L16 55L16 57L21 57L21 56L19 56L19 55L20 55L20 54L18 54L18 55L17 55L17 53L20 53L20 52L22 52L22 51L21 51L21 50L22 50L22 49L21 49L21 50L20 50L20 49L19 49L19 46L20 46L20 47L21 47L21 48L23 48L23 47L24 47L24 49L23 49L23 50L25 50L25 49L26 49L26 52L25 52L25 51L24 51L24 53L21 53L21 55L22 55L22 56L24 56L24 57L26 57L26 56L28 56L28 55L26 55L26 54L27 54L27 53L28 53L28 54L30 54L30 53L31 53L31 56L30 56L30 55L29 55L29 56L30 56L30 57L31 57L31 56L36 56L36 57L39 57L39 55L40 55L40 52L41 52L41 51L40 51L40 50L43 50L43 52L42 52L42 53L41 53L41 55L42 55L42 54L43 54L43 53L44 53L44 54L45 54L45 57L47 57L47 55L49 55L49 53L50 53L50 55L51 55L51 56L50 56L50 57L52 57L52 56L55 56L55 57L56 57L56 56L55 56L55 55L51 55L51 54L54 54L54 52L55 52L55 50L57 50L57 49L54 49L54 48L57 48L57 47L56 47L56 46L57 46L57 45L56 45L56 44L57 44L57 43L56 43L56 41L55 41L55 39L57 39L57 37L54 37L54 36L55 36L55 35L56 35L56 36L57 36L57 35L56 35L56 34L57 34L57 32L56 32L56 30L57 30L57 29L56 29L56 30L55 30L55 29L54 29L54 28L57 28L57 27L56 27L56 26L57 26L57 25L54 25L54 26L55 26L55 27L53 27L53 26L52 26L52 24L57 24L57 23L56 23L56 22L57 22L57 21L54 21L54 22L53 22L53 21L51 21L51 22L50 22L50 19L51 19L51 20L55 20L55 19L52 19L52 16L55 16L55 18L57 18L57 17L56 17L56 16L57 16L57 15L56 15L56 14L57 14L57 13L56 13L56 14L55 14L55 13L54 13L54 14L55 14L55 15L51 15L51 14L52 14L52 13L51 13L51 14L50 14L50 16L48 16L48 17L47 17L47 16L46 16L46 17L47 17L47 18L45 18L45 17L44 17L44 18L45 18L45 19L43 19L43 20L42 20L42 21L40 21L40 20L41 20L41 19L42 19L42 18L43 18L43 17L42 17L42 16L45 16L45 15L49 15L49 13L50 13L50 11L52 11L52 12L53 12L53 11L54 11L54 12L57 12L57 11L56 11L56 8L55 8L55 11L54 11L54 10L53 10L53 9L54 9L54 8L53 8L53 9L52 9L52 8L51 8L51 10L49 10L49 9L50 9L50 8L49 8L49 6L48 6L48 7L47 7L47 5L48 5L48 0L44 0L44 1L47 1L47 2L43 2L43 3L42 3L42 4L41 4L41 5L40 5L40 3L41 3L41 2L39 2L39 1L38 1L38 0L37 0L37 1L36 1L36 0L35 0L35 1L33 1L33 0L30 0L30 1L29 1L29 2L28 2L28 3L27 3L27 4L26 4L26 3L23 3L23 4L22 4L22 3L21 3L21 2L27 2L27 1L25 1L25 0L24 0L24 1L23 1L23 0L21 0L21 2L19 2L19 1L16 1L16 0L14 0L14 1L15 1L15 2L14 2L14 3L13 3L13 6L12 6L12 5L10 5L10 4L9 4L9 3L10 3L10 1L11 1L11 2L12 2L12 0ZM41 0L41 1L43 1L43 0ZM30 1L30 2L29 2L29 3L28 3L28 4L31 4L31 9L32 9L32 10L34 10L34 12L35 12L35 11L36 11L36 12L37 12L37 11L36 11L36 9L35 9L35 8L36 8L36 6L37 6L37 7L38 7L38 8L37 8L37 10L39 10L39 9L38 9L38 8L40 8L40 9L43 9L43 8L42 8L42 5L41 5L41 8L40 8L40 6L39 6L39 3L38 3L38 1L37 1L37 2L36 2L36 1L35 1L35 2L34 2L34 3L32 3L32 4L31 4L31 3L30 3L30 2L33 2L33 1ZM17 2L17 3L14 3L14 4L16 4L16 5L14 5L14 6L13 6L13 8L12 8L12 11L11 11L11 13L12 13L12 14L7 14L7 13L6 13L6 14L5 14L5 12L4 12L4 11L3 11L3 12L2 12L2 13L3 13L3 12L4 12L4 16L5 16L5 17L4 17L4 18L2 18L2 20L3 20L3 21L2 21L2 22L3 22L3 23L2 23L2 24L4 24L4 23L5 23L5 25L6 25L6 26L7 26L7 25L6 25L6 24L7 24L7 23L5 23L5 21L6 21L6 22L8 22L8 24L9 24L9 25L10 25L10 24L9 24L9 23L11 23L11 24L13 24L13 25L12 25L12 26L13 26L13 29L11 29L11 27L9 27L9 29L10 29L10 30L9 30L9 31L4 31L4 30L2 30L2 31L3 31L3 33L4 33L4 32L8 32L8 35L9 35L9 36L10 36L10 37L12 37L12 35L11 35L11 33L12 33L12 32L11 32L11 31L12 31L12 30L13 30L13 29L15 29L15 28L18 28L18 29L16 29L16 30L17 30L17 31L16 31L16 32L18 32L18 31L19 31L19 33L16 33L16 35L18 35L18 34L19 34L19 35L20 35L20 34L21 34L21 35L22 35L22 36L19 36L19 37L18 37L18 36L15 36L15 31L13 31L13 34L14 34L14 36L15 36L15 37L16 37L16 38L15 38L15 39L16 39L16 40L15 40L15 42L17 42L17 43L16 43L16 44L17 44L17 45L16 45L16 47L15 47L15 46L12 46L12 47L14 47L14 48L17 48L17 47L18 47L18 46L17 46L17 45L18 45L18 44L17 44L17 43L18 43L18 41L16 41L16 40L17 40L17 37L18 37L18 38L19 38L19 39L20 39L20 38L19 38L19 37L23 37L23 38L24 38L24 37L23 37L23 31L24 31L24 29L25 29L25 30L26 30L26 27L24 27L24 26L23 26L23 25L24 25L24 24L25 24L25 26L26 26L26 25L27 25L27 24L28 24L28 26L30 26L30 24L31 24L31 22L30 22L30 20L31 20L31 19L32 19L32 18L33 18L33 19L34 19L34 18L35 18L35 20L32 20L32 21L33 21L33 22L35 22L35 23L36 23L36 22L37 22L37 26L39 26L39 27L36 27L36 26L35 26L35 24L34 24L34 25L33 25L33 24L32 24L32 25L31 25L31 28L32 28L32 29L33 29L33 30L32 30L32 31L33 31L33 32L31 32L31 31L30 31L30 32L29 32L29 33L27 33L27 35L25 35L25 34L26 34L26 33L25 33L25 34L24 34L24 36L27 36L27 37L28 37L28 38L27 38L27 39L26 39L26 37L25 37L25 40L24 40L24 39L22 39L22 38L21 38L21 39L22 39L22 40L19 40L19 41L20 41L20 42L19 42L19 45L20 45L20 46L21 46L21 45L22 45L22 47L23 47L23 45L25 45L25 48L26 48L26 46L27 46L27 45L28 45L28 48L30 48L30 47L29 47L29 45L31 45L31 44L32 44L32 45L33 45L33 46L31 46L31 47L33 47L33 48L31 48L31 50L32 50L32 51L31 51L31 52L32 52L32 54L34 54L34 55L36 55L36 56L37 56L37 55L36 55L36 54L37 54L37 53L33 53L33 52L32 52L32 51L33 51L33 50L35 50L35 52L36 52L36 48L37 48L37 50L40 50L40 49L41 49L41 48L42 48L42 47L43 47L43 48L44 48L44 53L45 53L45 54L46 54L46 55L47 55L47 54L48 54L48 52L45 52L45 50L47 50L47 51L48 51L48 48L50 48L50 47L51 47L51 48L54 48L54 46L56 46L56 45L55 45L55 44L54 44L54 45L51 45L51 44L53 44L53 43L54 43L54 40L53 40L53 41L52 41L52 40L50 40L50 39L51 39L51 38L52 38L52 39L55 39L55 38L54 38L54 37L53 37L53 36L52 36L52 34L54 34L54 33L55 33L55 34L56 34L56 32L54 32L54 30L53 30L53 31L51 31L51 32L50 32L50 31L48 31L48 29L46 29L46 30L45 30L45 28L44 28L44 27L45 27L45 26L48 26L48 25L49 25L49 24L50 24L50 26L51 26L51 24L52 24L52 23L53 23L53 22L52 22L52 23L50 23L50 22L49 22L49 23L48 23L48 25L45 25L45 24L42 24L42 25L44 25L44 26L43 26L43 28L42 28L42 26L39 26L39 25L41 25L41 23L44 23L44 21L45 21L45 22L46 22L46 24L47 24L47 21L48 21L48 20L49 20L49 18L48 18L48 19L45 19L45 20L43 20L43 22L40 22L40 24L39 24L39 20L40 20L40 19L41 19L41 18L42 18L42 17L41 17L41 16L42 16L42 15L45 15L45 14L42 14L42 11L44 11L44 13L45 13L45 12L46 12L46 14L47 14L47 13L49 13L49 11L46 11L46 10L48 10L48 9L49 9L49 8L48 8L48 9L46 9L46 8L47 8L47 7L46 7L46 5L47 5L47 3L43 3L43 7L44 7L44 9L45 9L45 10L42 10L42 11L41 11L41 12L38 12L38 14L37 14L37 13L36 13L36 16L35 16L35 15L33 15L33 14L35 14L35 13L33 13L33 12L32 12L32 13L31 13L31 10L29 10L29 9L25 9L25 8L26 8L26 4L25 4L25 8L24 8L24 6L23 6L23 5L24 5L24 4L23 4L23 5L22 5L22 4L21 4L21 3L19 3L19 2ZM17 3L17 4L19 4L19 5L18 5L18 7L17 7L17 6L16 6L16 7L15 7L15 6L14 6L14 7L15 7L15 8L16 8L16 9L19 9L19 10L18 10L18 11L17 11L17 10L16 10L16 11L17 11L17 12L15 12L15 9L14 9L14 8L13 8L13 9L14 9L14 10L13 10L13 11L12 11L12 13L15 13L15 15L16 15L16 17L14 17L14 15L13 15L13 17L12 17L12 15L10 15L10 16L8 16L8 15L7 15L7 14L6 14L6 15L7 15L7 16L6 16L6 17L5 17L5 18L6 18L6 19L8 19L8 22L9 22L9 21L10 21L10 22L11 22L11 21L12 21L12 23L13 23L13 24L14 24L14 27L15 27L15 26L16 26L16 25L18 25L18 26L17 26L17 27L18 27L18 26L19 26L19 25L21 25L21 27L19 27L19 28L20 28L20 29L18 29L18 30L20 30L20 31L22 31L22 30L20 30L20 29L22 29L22 28L21 28L21 27L22 27L22 25L21 25L21 24L19 24L19 23L20 23L20 22L19 22L19 23L17 23L17 21L20 21L20 20L19 20L19 18L16 18L16 17L19 17L19 16L17 16L17 15L16 15L16 13L17 13L17 14L18 14L18 15L21 15L21 16L20 16L20 17L21 17L21 18L20 18L20 19L21 19L21 20L24 20L24 21L21 21L21 23L22 23L22 24L24 24L24 23L22 23L22 22L24 22L24 21L25 21L25 22L26 22L26 23L25 23L25 24L27 24L27 22L29 22L29 23L28 23L28 24L29 24L29 23L30 23L30 22L29 22L29 21L27 21L27 20L29 20L29 18L31 18L31 17L29 17L29 16L28 16L28 15L29 15L29 14L30 14L30 16L33 16L33 15L32 15L32 14L30 14L30 13L28 13L28 12L30 12L30 11L29 11L29 10L26 10L26 11L27 11L27 12L25 12L25 9L23 9L23 10L22 10L22 9L21 9L21 10L20 10L20 9L19 9L19 8L22 8L22 7L23 7L23 6L22 6L22 7L21 7L21 4L19 4L19 3ZM36 3L36 5L34 5L34 4L33 4L33 5L34 5L34 7L33 7L33 6L32 6L32 7L33 7L33 8L34 8L34 7L35 7L35 6L36 6L36 5L38 5L38 3ZM44 4L44 5L46 5L46 4ZM9 5L9 7L10 7L10 5ZM19 5L19 7L20 7L20 5ZM27 5L27 8L30 8L30 5ZM11 6L11 7L12 7L12 6ZM28 6L28 7L29 7L29 6ZM38 6L38 7L39 7L39 6ZM44 6L44 7L45 7L45 6ZM16 7L16 8L17 8L17 7ZM9 8L9 9L8 9L8 10L7 10L7 9L6 9L6 10L5 10L5 11L6 11L6 12L7 12L7 11L8 11L8 12L9 12L9 13L10 13L10 11L9 11L9 10L11 10L11 8ZM6 10L6 11L7 11L7 10ZM21 10L21 11L19 11L19 12L21 12L21 13L19 13L19 14L21 14L21 13L22 13L22 16L21 16L21 17L22 17L22 19L24 19L24 18L23 18L23 17L24 17L24 15L25 15L25 16L27 16L27 17L25 17L25 18L27 18L27 19L25 19L25 20L27 20L27 19L28 19L28 18L27 18L27 17L28 17L28 16L27 16L27 14L28 14L28 13L25 13L25 12L24 12L24 13L22 13L22 12L21 12L21 11L22 11L22 10ZM23 10L23 11L24 11L24 10ZM52 10L52 11L53 11L53 10ZM13 11L13 12L14 12L14 11ZM17 12L17 13L18 13L18 12ZM24 13L24 14L23 14L23 15L24 15L24 14L25 14L25 15L26 15L26 14L25 14L25 13ZM39 13L39 15L40 15L40 16L39 16L39 17L40 17L40 16L41 16L41 15L42 15L42 14L40 14L40 13ZM2 14L2 15L3 15L3 14ZM36 16L36 18L38 18L38 20L39 20L39 18L38 18L38 16ZM6 17L6 18L7 18L7 17ZM8 17L8 19L9 19L9 20L10 20L10 21L11 21L11 20L13 20L13 21L14 21L14 24L15 24L15 25L16 25L16 23L15 23L15 22L16 22L16 21L17 21L17 19L16 19L16 21L15 21L15 18L13 18L13 19L9 19L9 17ZM10 17L10 18L11 18L11 17ZM33 17L33 18L34 18L34 17ZM50 17L50 18L51 18L51 17ZM53 17L53 18L54 18L54 17ZM3 19L3 20L4 20L4 19ZM13 19L13 20L14 20L14 19ZM56 19L56 20L57 20L57 19ZM6 20L6 21L7 21L7 20ZM36 20L36 21L37 21L37 22L38 22L38 21L37 21L37 20ZM38 24L38 25L39 25L39 24ZM3 25L3 26L4 26L4 25ZM32 25L32 26L33 26L33 27L34 27L34 28L33 28L33 29L35 29L35 30L33 30L33 31L35 31L35 32L33 32L33 33L35 33L35 34L33 34L33 35L35 35L35 34L36 34L36 35L37 35L37 36L36 36L36 37L35 37L35 38L36 38L36 39L34 39L34 41L36 41L36 43L37 43L37 44L36 44L36 45L37 45L37 46L33 46L33 47L35 47L35 48L36 48L36 47L37 47L37 46L38 46L38 43L40 43L40 44L39 44L39 48L38 48L38 49L39 49L39 48L41 48L41 47L42 47L42 46L43 46L43 47L44 47L44 48L45 48L45 49L47 49L47 48L46 48L46 47L47 47L47 46L46 46L46 45L47 45L47 44L48 44L48 43L49 43L49 45L50 45L50 44L51 44L51 43L50 43L50 42L51 42L51 41L49 41L49 40L48 40L48 41L47 41L47 42L46 42L46 43L44 43L44 42L45 42L45 41L44 41L44 40L42 40L42 38L43 38L43 37L44 37L44 38L45 38L45 40L47 40L47 39L46 39L46 38L45 38L45 37L44 37L44 35L43 35L43 36L41 36L41 35L40 35L40 36L39 36L39 34L45 34L45 36L46 36L46 37L47 37L47 38L48 38L48 39L50 39L50 38L51 38L51 37L50 37L50 36L51 36L51 35L49 35L49 34L48 34L48 33L47 33L47 32L48 32L48 31L47 31L47 30L46 30L46 31L42 31L42 30L43 30L43 29L44 29L44 28L43 28L43 29L42 29L42 30L41 30L41 31L40 31L40 30L37 30L37 31L40 31L40 32L38 32L38 33L39 33L39 34L36 34L36 33L37 33L37 32L36 32L36 31L35 31L35 30L36 30L36 29L39 29L39 28L35 28L35 27L34 27L34 26L33 26L33 25ZM5 27L5 30L8 30L8 27ZM23 27L23 29L24 29L24 27ZM27 27L27 30L30 30L30 27ZM40 27L40 28L41 28L41 27ZM46 27L46 28L48 28L48 27ZM49 27L49 30L52 30L52 27ZM6 28L6 29L7 29L7 28ZM28 28L28 29L29 29L29 28ZM50 28L50 29L51 29L51 28ZM10 30L10 31L11 31L11 30ZM25 31L25 32L27 32L27 31ZM46 31L46 32L42 32L42 33L45 33L45 34L47 34L47 33L46 33L46 32L47 32L47 31ZM10 32L10 33L9 33L9 35L10 35L10 33L11 33L11 32ZM20 32L20 33L21 33L21 34L22 34L22 33L21 33L21 32ZM30 32L30 33L29 33L29 34L30 34L30 35L29 35L29 39L31 39L31 38L32 38L32 33L31 33L31 32ZM35 32L35 33L36 33L36 32ZM40 32L40 33L41 33L41 32ZM51 32L51 33L50 33L50 34L51 34L51 33L54 33L54 32ZM5 33L5 35L6 35L6 36L7 36L7 35L6 35L6 34L7 34L7 33ZM46 35L46 36L47 36L47 37L48 37L48 36L47 36L47 35ZM30 36L30 38L31 38L31 36ZM33 36L33 37L34 37L34 36ZM40 36L40 37L38 37L38 38L37 38L37 39L36 39L36 40L38 40L38 42L37 42L37 43L38 43L38 42L40 42L40 43L41 43L41 42L42 42L42 43L43 43L43 42L44 42L44 41L43 41L43 42L42 42L42 41L41 41L41 40L40 40L40 39L41 39L41 36ZM3 38L3 41L4 41L4 42L2 42L2 43L1 43L1 44L2 44L2 43L4 43L4 42L5 42L5 41L6 41L6 40L5 40L5 41L4 41L4 39L5 39L5 38ZM38 38L38 40L39 40L39 39L40 39L40 38ZM27 39L27 41L26 41L26 42L27 42L27 41L29 41L29 42L30 42L30 43L29 43L29 44L28 44L28 45L29 45L29 44L30 44L30 43L33 43L33 44L34 44L34 43L33 43L33 42L32 42L32 41L31 41L31 40L28 40L28 39ZM32 39L32 40L33 40L33 39ZM9 41L9 43L10 43L10 41ZM21 41L21 42L22 42L22 43L20 43L20 45L21 45L21 44L22 44L22 45L23 45L23 43L24 43L24 44L25 44L25 45L26 45L26 44L27 44L27 43L26 43L26 44L25 44L25 41ZM13 42L13 43L14 43L14 42ZM47 42L47 43L48 43L48 42ZM40 44L40 47L41 47L41 46L42 46L42 45L45 45L45 44ZM6 45L6 46L7 46L7 45ZM44 46L44 47L45 47L45 46ZM49 46L49 47L50 47L50 46ZM9 47L9 48L10 48L10 47ZM33 48L33 49L34 49L34 48ZM9 49L9 50L10 50L10 49ZM15 49L15 51L16 51L16 53L17 53L17 52L18 52L18 50L19 50L19 49L18 49L18 50L17 50L17 49ZM27 49L27 52L30 52L30 49ZM49 49L49 52L52 52L52 49ZM16 50L16 51L17 51L17 50ZM28 50L28 51L29 51L29 50ZM50 50L50 51L51 51L51 50ZM53 50L53 51L54 51L54 50ZM11 51L11 52L10 52L10 54L9 54L9 52L8 52L8 57L10 57L10 54L11 54L11 52L12 52L12 51ZM37 51L37 52L40 52L40 51ZM56 51L56 52L57 52L57 51ZM12 53L12 54L13 54L13 53ZM24 53L24 54L22 54L22 55L24 55L24 56L25 56L25 54L26 54L26 53ZM38 53L38 55L39 55L39 53ZM43 55L43 56L42 56L42 57L44 57L44 55ZM11 56L11 57L13 57L13 56ZM0 0L0 7L7 7L7 0ZM1 1L1 6L6 6L6 1ZM2 2L2 5L5 5L5 2ZM50 0L50 7L57 7L57 0ZM51 1L51 6L56 6L56 1ZM52 2L52 5L55 5L55 2ZM0 50L0 57L7 57L7 50ZM1 51L1 56L6 56L6 51ZM2 52L2 55L5 55L5 52Z" fill="#000000"/></g></g></svg>
