<?xml version="1.0" encoding="UTF-8"?>
<svg xmlns="http://www.w3.org/2000/svg" version="1.1" width="300" height="300" viewBox="0 0 300 300"><rect x="0" y="0" width="300" height="300" fill="#ffffff"/><g transform="scale(4.918)"><g transform="translate(2,2)"><path fill-rule="evenodd" d="M12 0L12 1L8 1L8 2L9 2L9 3L8 3L8 4L12 4L12 7L11 7L11 6L10 6L10 5L8 5L8 7L9 7L9 6L10 6L10 7L11 7L11 9L10 9L10 8L6 8L6 9L7 9L7 10L6 10L6 11L7 11L7 12L6 12L6 13L5 13L5 10L4 10L4 11L3 11L3 10L2 10L2 9L5 9L5 8L0 8L0 9L1 9L1 10L0 10L0 13L1 13L1 14L0 14L0 15L1 15L1 14L2 14L2 15L3 15L3 14L4 14L4 15L5 15L5 14L6 14L6 15L7 15L7 16L6 16L6 17L8 17L8 15L7 15L7 14L6 14L6 13L7 13L7 12L8 12L8 14L10 14L10 15L11 15L11 16L9 16L9 18L6 18L6 19L5 19L5 18L4 18L4 19L5 19L5 22L4 22L4 20L3 20L3 19L2 19L2 18L3 18L3 16L1 16L1 17L0 17L0 21L1 21L1 22L0 22L0 23L2 23L2 24L0 24L0 25L2 25L2 26L0 26L0 28L2 28L2 29L3 29L3 28L4 28L4 30L3 30L3 31L2 31L2 30L1 30L1 29L0 29L0 31L1 31L1 34L0 34L0 35L1 35L1 36L0 36L0 38L1 38L1 40L0 40L0 41L1 41L1 40L2 40L2 39L4 39L4 40L3 40L3 41L5 41L5 42L3 42L3 44L2 44L2 42L0 42L0 44L2 44L2 45L1 45L1 46L0 46L0 48L5 48L5 47L7 47L7 48L6 48L6 49L8 49L8 51L9 51L9 52L8 52L8 57L10 57L10 56L11 56L11 55L10 55L10 53L9 53L9 52L10 52L10 51L9 51L9 49L10 49L10 50L11 50L11 51L13 51L13 48L14 48L14 44L13 44L13 43L12 43L12 41L14 41L14 40L12 40L12 41L11 41L11 40L8 40L8 41L7 41L7 40L5 40L5 38L6 38L6 39L8 39L8 38L10 38L10 39L12 39L12 38L13 38L13 39L15 39L15 41L18 41L18 43L16 43L16 42L15 42L15 43L16 43L16 44L15 44L15 45L17 45L17 46L18 46L18 47L19 47L19 48L18 48L18 49L17 49L17 47L15 47L15 48L16 48L16 49L15 49L15 50L16 50L16 49L17 49L17 50L18 50L18 51L17 51L17 53L16 53L16 51L14 51L14 52L13 52L13 53L14 53L14 52L15 52L15 53L16 53L16 54L13 54L13 55L12 55L12 56L13 56L13 57L14 57L14 55L16 55L16 56L15 56L15 57L20 57L20 56L17 56L17 53L20 53L20 52L21 52L21 53L22 53L22 54L21 54L21 56L23 56L23 57L26 57L26 56L28 56L28 55L26 55L26 56L24 56L24 55L22 55L22 54L24 54L24 53L25 53L25 54L27 54L27 53L28 53L28 54L30 54L30 53L31 53L31 55L33 55L33 54L34 54L34 56L30 56L30 55L29 55L29 56L30 56L30 57L38 57L38 56L39 56L39 57L40 57L40 56L41 56L41 57L44 57L44 56L43 56L43 55L42 55L42 54L43 54L43 53L44 53L44 54L45 54L45 55L46 55L46 54L45 54L45 53L47 53L47 52L48 52L48 54L47 54L47 55L49 55L49 56L48 56L48 57L49 57L49 56L50 56L50 55L51 55L51 57L52 57L52 56L54 56L54 57L56 57L56 56L55 56L55 53L53 53L53 48L55 48L55 50L57 50L57 49L56 49L56 48L55 48L55 47L56 47L56 46L57 46L57 45L54 45L54 44L57 44L57 43L56 43L56 42L57 42L57 41L54 41L54 40L55 40L55 39L57 39L57 37L56 37L56 38L55 38L55 39L54 39L54 40L53 40L53 38L51 38L51 39L50 39L50 38L49 38L49 40L51 40L51 41L48 41L48 42L46 42L46 41L47 41L47 40L46 40L46 38L45 38L45 37L44 37L44 35L45 35L45 36L46 36L46 37L47 37L47 38L48 38L48 37L49 37L49 36L48 36L48 37L47 37L47 36L46 36L46 35L48 35L48 33L47 33L47 34L46 34L46 32L48 32L48 31L49 31L49 35L50 35L50 32L51 32L51 33L53 33L53 32L55 32L55 33L54 33L54 34L57 34L57 33L56 33L56 30L57 30L57 29L54 29L54 28L55 28L55 27L56 27L56 26L57 26L57 23L56 23L56 22L57 22L57 21L56 21L56 20L57 20L57 19L56 19L56 18L57 18L57 17L56 17L56 18L55 18L55 17L53 17L53 18L52 18L52 17L51 17L51 18L50 18L50 16L52 16L52 15L50 15L50 11L52 11L52 12L53 12L53 11L54 11L54 12L55 12L55 13L53 13L53 14L54 14L54 15L53 15L53 16L55 16L55 15L56 15L56 16L57 16L57 15L56 15L56 14L57 14L57 11L56 11L56 8L55 8L55 11L54 11L54 10L53 10L53 9L54 9L54 8L53 8L53 9L52 9L52 8L51 8L51 9L52 9L52 10L49 10L49 9L50 9L50 8L49 8L49 6L48 6L48 8L47 8L47 5L48 5L48 0L46 0L46 1L47 1L47 2L42 2L42 1L43 1L43 0L42 0L42 1L41 1L41 0L39 0L39 1L36 1L36 2L38 2L38 3L36 3L36 5L33 5L33 6L32 6L32 7L31 7L31 4L32 4L32 3L34 3L34 2L35 2L35 1L34 1L34 0L30 0L30 1L29 1L29 0L28 0L28 1L26 1L26 0L24 0L24 1L23 1L23 0L21 0L21 1L23 1L23 2L24 2L24 3L23 3L23 4L22 4L22 2L20 2L20 3L21 3L21 4L19 4L19 3L18 3L18 4L19 4L19 5L20 5L20 7L19 7L19 6L18 6L18 7L17 7L17 6L16 6L16 7L15 7L15 5L16 5L16 4L14 4L14 2L13 2L13 0ZM14 0L14 1L15 1L15 0ZM44 0L44 1L45 1L45 0ZM16 1L16 2L15 2L15 3L16 3L16 2L17 2L17 1ZM18 1L18 2L19 2L19 1ZM25 1L25 3L26 3L26 4L25 4L25 8L24 8L24 6L23 6L23 8L22 8L22 4L21 4L21 8L19 8L19 9L18 9L18 8L17 8L17 7L16 7L16 9L15 9L15 8L14 8L14 6L13 6L13 8L14 8L14 10L15 10L15 11L16 11L16 12L17 12L17 13L13 13L13 14L12 14L12 17L11 17L11 18L12 18L12 17L13 17L13 15L14 15L14 18L13 18L13 19L14 19L14 20L12 20L12 19L9 19L9 20L7 20L7 19L6 19L6 20L7 20L7 21L6 21L6 22L7 22L7 23L4 23L4 24L8 24L8 22L10 22L10 20L11 20L11 21L14 21L14 22L13 22L13 23L12 23L12 22L11 22L11 24L10 24L10 25L11 25L11 26L13 26L13 27L12 27L12 28L11 28L11 29L9 29L9 32L10 32L10 33L9 33L9 35L8 35L8 31L6 31L6 32L5 32L5 33L6 33L6 34L7 34L7 35L6 35L6 36L5 36L5 34L4 34L4 35L3 35L3 33L2 33L2 34L1 34L1 35L3 35L3 36L4 36L4 37L6 37L6 38L7 38L7 37L6 37L6 36L7 36L7 35L8 35L8 36L9 36L9 35L10 35L10 33L11 33L11 32L12 32L12 35L11 35L11 37L10 37L10 38L11 38L11 37L12 37L12 36L13 36L13 38L14 38L14 37L16 37L16 38L15 38L15 39L16 39L16 40L17 40L17 39L18 39L18 38L19 38L19 39L20 39L20 38L19 38L19 37L23 37L23 38L21 38L21 39L23 39L23 40L19 40L19 41L20 41L20 43L19 43L19 45L20 45L20 46L19 46L19 47L20 47L20 48L19 48L19 49L18 49L18 50L19 50L19 51L18 51L18 52L20 52L20 51L22 51L22 53L24 53L24 51L23 51L23 50L21 50L21 49L24 49L24 48L21 48L21 47L20 47L20 46L21 46L21 45L22 45L22 47L23 47L23 45L25 45L25 46L24 46L24 47L25 47L25 49L26 49L26 48L27 48L27 47L26 47L26 46L27 46L27 45L28 45L28 46L29 46L29 45L28 45L28 44L32 44L32 47L33 47L33 48L31 48L31 47L30 47L30 48L31 48L31 49L32 49L32 50L31 50L31 52L32 52L32 54L33 54L33 52L32 52L32 51L34 51L34 52L36 52L36 51L34 51L34 50L36 50L36 48L39 48L39 49L38 49L38 50L37 50L37 51L38 51L38 54L35 54L35 53L34 53L34 54L35 54L35 56L36 56L36 55L37 55L37 56L38 56L38 54L39 54L39 52L40 52L40 55L39 55L39 56L40 56L40 55L41 55L41 52L40 52L40 51L44 51L44 53L45 53L45 52L46 52L46 50L47 50L47 51L48 51L48 48L50 48L50 47L52 47L52 48L53 48L53 47L55 47L55 46L53 46L53 45L52 45L52 44L53 44L53 43L54 43L54 41L53 41L53 40L52 40L52 41L51 41L51 42L50 42L50 43L51 43L51 42L53 42L53 43L52 43L52 44L51 44L51 45L50 45L50 44L47 44L47 45L46 45L46 46L47 46L47 47L46 47L46 48L42 48L42 47L45 47L45 46L42 46L42 45L43 45L43 44L44 44L44 45L45 45L45 43L46 43L46 42L45 42L45 43L43 43L43 42L44 42L44 41L46 41L46 40L44 40L44 41L43 41L43 42L42 42L42 41L41 41L41 37L42 37L42 36L43 36L43 35L44 35L44 34L45 34L45 35L46 35L46 34L45 34L45 32L39 32L39 30L40 30L40 31L41 31L41 30L42 30L42 31L44 31L44 30L42 30L42 29L43 29L43 28L42 28L42 27L44 27L44 29L45 29L45 27L46 27L46 28L47 28L47 29L46 29L46 30L45 30L45 31L46 31L46 30L47 30L47 31L48 31L48 30L47 30L47 29L48 29L48 26L47 26L47 25L49 25L49 26L52 26L52 25L53 25L53 27L55 27L55 26L56 26L56 25L55 25L55 26L54 26L54 25L53 25L53 24L52 24L52 22L53 22L53 21L55 21L55 20L56 20L56 19L55 19L55 20L54 20L54 19L52 19L52 20L51 20L51 19L50 19L50 18L47 18L47 17L49 17L49 16L50 16L50 15L45 15L45 14L44 14L44 13L45 13L45 12L46 12L46 14L47 14L47 13L49 13L49 12L47 12L47 11L48 11L48 9L49 9L49 8L48 8L48 9L47 9L47 8L44 8L44 6L45 6L45 7L46 7L46 6L45 6L45 5L44 5L44 4L46 4L46 5L47 5L47 3L42 3L42 2L41 2L41 1L39 1L39 2L41 2L41 3L40 3L40 4L38 4L38 5L36 5L36 6L35 6L35 7L36 7L36 8L34 8L34 6L33 6L33 7L32 7L32 8L31 8L31 9L32 9L32 10L27 10L27 9L25 9L25 8L26 8L26 4L29 4L29 3L30 3L30 2L34 2L34 1L30 1L30 2L29 2L29 3L27 3L27 2L26 2L26 1ZM12 3L12 4L13 4L13 3ZM41 3L41 4L40 4L40 5L41 5L41 6L40 6L40 8L41 8L41 10L42 10L42 14L40 14L40 13L39 13L39 14L37 14L37 13L38 13L38 12L40 12L40 11L39 11L39 10L38 10L38 9L39 9L39 8L36 8L36 9L35 9L35 10L34 10L34 9L33 9L33 13L36 13L36 14L33 14L33 15L32 15L32 14L30 14L30 13L28 13L28 12L30 12L30 11L27 11L27 10L26 10L26 11L27 11L27 12L25 12L25 13L23 13L23 12L24 12L24 11L25 11L25 9L24 9L24 11L23 11L23 10L22 10L22 11L21 11L21 10L20 10L20 9L19 9L19 10L18 10L18 9L17 9L17 10L18 10L18 11L17 11L17 12L18 12L18 13L17 13L17 14L14 14L14 15L16 15L16 16L15 16L15 17L17 17L17 19L18 19L18 21L20 21L20 20L19 20L19 19L24 19L24 18L25 18L25 17L26 17L26 19L25 19L25 20L24 20L24 21L22 21L22 20L21 20L21 21L22 21L22 22L24 22L24 21L25 21L25 22L26 22L26 23L25 23L25 24L24 24L24 23L22 23L22 24L23 24L23 26L24 26L24 28L25 28L25 27L26 27L26 30L25 30L25 29L23 29L23 30L22 30L22 31L21 31L21 32L18 32L18 33L19 33L19 34L18 34L18 35L20 35L20 33L21 33L21 34L23 34L23 35L22 35L22 36L23 36L23 37L24 37L24 38L23 38L23 39L24 39L24 40L23 40L23 41L24 41L24 42L22 42L22 43L21 43L21 44L20 44L20 45L21 45L21 44L22 44L22 45L23 45L23 44L25 44L25 45L26 45L26 44L27 44L27 43L26 43L26 44L25 44L25 43L24 43L24 42L25 42L25 41L24 41L24 40L25 40L25 39L26 39L26 40L28 40L28 39L26 39L26 38L28 38L28 37L26 37L26 36L24 36L24 34L25 34L25 35L27 35L27 34L25 34L25 32L26 32L26 31L29 31L29 32L27 32L27 33L29 33L29 34L30 34L30 35L29 35L29 39L31 39L31 40L29 40L29 41L30 41L30 42L29 42L29 43L31 43L31 42L32 42L32 41L31 41L31 40L32 40L32 39L31 39L31 38L32 38L32 35L31 35L31 32L33 32L33 31L35 31L35 32L36 32L36 35L37 35L37 36L36 36L36 37L37 37L37 38L34 38L34 40L35 40L35 42L36 42L36 44L35 44L35 45L36 45L36 46L37 46L37 47L39 47L39 48L41 48L41 49L39 49L39 50L38 50L38 51L40 51L40 50L43 50L43 49L42 49L42 48L41 48L41 47L42 47L42 46L41 46L41 45L40 45L40 46L41 46L41 47L39 47L39 46L37 46L37 42L38 42L38 43L41 43L41 44L43 44L43 43L42 43L42 42L40 42L40 41L39 41L39 40L40 40L40 39L39 39L39 38L40 38L40 36L42 36L42 34L43 34L43 33L42 33L42 34L41 34L41 35L40 35L40 36L38 36L38 35L39 35L39 34L38 34L38 32L36 32L36 31L37 31L37 30L38 30L38 29L37 29L37 28L38 28L38 27L37 27L37 28L36 28L36 26L38 26L38 25L40 25L40 27L39 27L39 28L40 28L40 27L41 27L41 26L43 26L43 25L44 25L44 24L45 24L45 25L47 25L47 24L46 24L46 23L48 23L48 24L49 24L49 22L50 22L50 23L51 23L51 22L50 22L50 19L47 19L47 18L46 18L46 17L47 17L47 16L46 16L46 17L45 17L45 18L46 18L46 20L45 20L45 19L44 19L44 18L43 18L43 17L44 17L44 16L45 16L45 15L44 15L44 14L43 14L43 13L44 13L44 12L43 12L43 11L44 11L44 10L45 10L45 9L44 9L44 8L43 8L43 9L42 9L42 7L43 7L43 6L42 6L42 5L43 5L43 4L42 4L42 3ZM23 4L23 5L24 5L24 4ZM41 4L41 5L42 5L42 4ZM27 5L27 8L30 8L30 5ZM38 5L38 7L39 7L39 5ZM28 6L28 7L29 7L29 6ZM36 6L36 7L37 7L37 6ZM41 6L41 7L42 7L42 6ZM8 9L8 12L10 12L10 14L11 14L11 11L13 11L13 12L14 12L14 11L13 11L13 10L12 10L12 9L11 9L11 10L10 10L10 9ZM43 9L43 10L44 10L44 9ZM9 10L9 11L10 11L10 10ZM35 10L35 11L34 11L34 12L35 12L35 11L36 11L36 12L37 12L37 11L38 11L38 10ZM46 10L46 11L47 11L47 10ZM52 10L52 11L53 11L53 10ZM20 11L20 12L19 12L19 14L20 14L20 15L18 15L18 14L17 14L17 17L18 17L18 19L19 19L19 17L20 17L20 18L21 18L21 17L20 17L20 15L21 15L21 13L22 13L22 15L23 15L23 16L22 16L22 17L24 17L24 15L25 15L25 16L27 16L27 17L28 17L28 16L29 16L29 17L31 17L31 16L32 16L32 19L34 19L34 20L35 20L35 21L33 21L33 20L32 20L32 21L33 21L33 22L34 22L34 24L36 24L36 22L39 22L39 20L40 20L40 23L39 23L39 24L40 24L40 25L42 25L42 24L40 24L40 23L44 23L44 21L45 21L45 23L46 23L46 22L47 22L47 21L48 21L48 20L46 20L46 21L45 21L45 20L43 20L43 22L41 22L41 20L42 20L42 19L43 19L43 18L39 18L39 16L40 16L40 17L41 17L41 16L44 16L44 15L43 15L43 14L42 14L42 15L41 15L41 16L40 16L40 14L39 14L39 15L38 15L38 16L37 16L37 15L36 15L36 16L35 16L35 15L33 15L33 16L32 16L32 15L31 15L31 16L30 16L30 14L29 14L29 15L28 15L28 16L27 16L27 14L28 14L28 13L26 13L26 14L24 14L24 15L23 15L23 13L22 13L22 12L21 12L21 11ZM31 11L31 13L32 13L32 11ZM1 12L1 13L2 13L2 14L3 14L3 12ZM20 12L20 13L21 13L21 12ZM4 13L4 14L5 14L5 13ZM51 13L51 14L52 14L52 13ZM55 13L55 14L56 14L56 13ZM4 16L4 17L5 17L5 16ZM18 16L18 17L19 17L19 16ZM33 16L33 18L34 18L34 19L37 19L37 20L36 20L36 21L38 21L38 20L39 20L39 18L34 18L34 17L35 17L35 16ZM36 16L36 17L37 17L37 16ZM15 18L15 21L16 21L16 22L15 22L15 23L13 23L13 24L12 24L12 25L13 25L13 24L15 24L15 23L16 23L16 25L14 25L14 27L15 27L15 26L16 26L16 28L15 28L15 29L14 29L14 30L12 30L12 32L13 32L13 33L14 33L14 32L15 32L15 29L18 29L18 30L19 30L19 31L20 31L20 30L19 30L19 29L22 29L22 28L21 28L21 27L22 27L22 26L21 26L21 27L20 27L20 25L21 25L21 24L20 24L20 25L19 25L19 24L18 24L18 23L20 23L20 22L18 22L18 23L17 23L17 21L16 21L16 18ZM27 18L27 19L26 19L26 20L25 20L25 21L26 21L26 20L27 20L27 21L28 21L28 22L27 22L27 24L25 24L25 26L26 26L26 25L27 25L27 24L28 24L28 26L30 26L30 24L33 24L33 23L31 23L31 22L29 22L29 20L27 20L27 19L28 19L28 18ZM29 18L29 19L31 19L31 18ZM1 19L1 21L2 21L2 22L3 22L3 21L2 21L2 19ZM40 19L40 20L41 20L41 19ZM30 20L30 21L31 21L31 20ZM7 21L7 22L8 22L8 21ZM54 22L54 23L55 23L55 22ZM28 23L28 24L30 24L30 23ZM2 24L2 25L3 25L3 26L2 26L2 27L3 27L3 26L4 26L4 25L3 25L3 24ZM51 24L51 25L52 25L52 24ZM5 25L5 26L8 26L8 25ZM16 25L16 26L18 26L18 27L17 27L17 28L18 28L18 29L19 29L19 28L20 28L20 27L19 27L19 25ZM31 25L31 26L32 26L32 25ZM33 25L33 28L32 28L32 29L31 29L31 30L32 30L32 29L33 29L33 30L35 30L35 31L36 31L36 30L37 30L37 29L36 29L36 30L35 30L35 29L33 29L33 28L34 28L34 26L35 26L35 25ZM44 26L44 27L45 27L45 26ZM5 27L5 30L8 30L8 27ZM9 27L9 28L10 28L10 27ZM27 27L27 30L30 30L30 27ZM49 27L49 30L52 30L52 27ZM6 28L6 29L7 29L7 28ZM28 28L28 29L29 29L29 28ZM50 28L50 29L51 29L51 28ZM40 29L40 30L41 30L41 29ZM16 30L16 31L17 31L17 30ZM53 30L53 31L51 31L51 32L53 32L53 31L55 31L55 30ZM3 31L3 32L4 32L4 31ZM22 31L22 33L24 33L24 31ZM30 31L30 32L29 32L29 33L30 33L30 32L31 32L31 31ZM6 32L6 33L7 33L7 32ZM16 32L16 33L15 33L15 34L13 34L13 35L15 35L15 36L16 36L16 33L17 33L17 32ZM32 33L32 34L33 34L33 35L35 35L35 34L33 34L33 33ZM37 34L37 35L38 35L38 34ZM52 34L52 36L50 36L50 37L52 37L52 36L53 36L53 37L54 37L54 36L56 36L56 35L54 35L54 36L53 36L53 34ZM17 36L17 38L18 38L18 37L19 37L19 36ZM30 36L30 38L31 38L31 36ZM34 36L34 37L35 37L35 36ZM25 37L25 38L26 38L26 37ZM38 37L38 38L37 38L37 39L35 39L35 40L37 40L37 41L38 41L38 42L39 42L39 41L38 41L38 40L37 40L37 39L38 39L38 38L39 38L39 37ZM43 37L43 38L42 38L42 39L45 39L45 38L44 38L44 37ZM6 41L6 42L5 42L5 43L4 43L4 44L3 44L3 45L5 45L5 43L6 43L6 44L7 44L7 45L6 45L6 46L8 46L8 44L9 44L9 46L10 46L10 45L12 45L12 46L13 46L13 45L12 45L12 43L11 43L11 42L10 42L10 41L9 41L9 42L7 42L7 41ZM26 41L26 42L27 42L27 41ZM33 41L33 43L32 43L32 44L34 44L34 41ZM6 42L6 43L7 43L7 42ZM48 42L48 43L49 43L49 42ZM10 43L10 44L11 44L11 43ZM17 44L17 45L18 45L18 44ZM38 44L38 45L39 45L39 44ZM30 45L30 46L31 46L31 45ZM51 45L51 46L52 46L52 47L53 47L53 46L52 46L52 45ZM1 46L1 47L2 47L2 46ZM3 46L3 47L5 47L5 46ZM33 46L33 47L35 47L35 48L33 48L33 50L34 50L34 49L35 49L35 48L36 48L36 47L35 47L35 46ZM49 46L49 47L50 47L50 46ZM8 47L8 49L9 49L9 47ZM10 47L10 48L11 48L11 47ZM12 47L12 48L13 48L13 47ZM28 47L28 48L29 48L29 47ZM20 48L20 49L19 49L19 50L20 50L20 49L21 49L21 48ZM27 49L27 52L30 52L30 49ZM45 49L45 50L46 50L46 49ZM49 49L49 52L52 52L52 49ZM28 50L28 51L29 51L29 50ZM50 50L50 51L51 51L51 50ZM25 51L25 53L26 53L26 51ZM54 51L54 52L57 52L57 51ZM42 52L42 53L43 53L43 52ZM11 53L11 54L12 54L12 53ZM49 53L49 54L51 54L51 55L53 55L53 54L51 54L51 53ZM19 54L19 55L20 55L20 54ZM9 55L9 56L10 56L10 55ZM45 56L45 57L46 57L46 56ZM0 0L0 7L7 7L7 0ZM1 1L1 6L6 6L6 1ZM2 2L2 5L5 5L5 2ZM50 0L50 7L57 7L57 0ZM51 1L51 6L56 6L56 1ZM52 2L52 5L55 5L55 2ZM0 50L0 57L7 57L7 50ZM1 51L1 56L6 56L6 51ZM2 52L2 55L5 55L5 52Z" fill="#000000"/></g></g></svg>
