<?xml version="1.0" encoding="UTF-8"?>
<svg xmlns="http://www.w3.org/2000/svg" version="1.1" width="300" height="300" viewBox="0 0 300 300"><rect x="0" y="0" width="300" height="300" fill="#ffffff"/><g transform="scale(4.918)"><g transform="translate(2,2)"><path fill-rule="evenodd" d="M10 0L10 1L8 1L8 2L10 2L10 3L8 3L8 4L11 4L11 2L10 2L10 1L11 1L11 0ZM12 0L12 1L13 1L13 0ZM14 0L14 1L15 1L15 0ZM21 0L21 1L23 1L23 2L24 2L24 4L22 4L22 2L20 2L20 3L18 3L18 4L20 4L20 3L21 3L21 4L22 4L22 5L24 5L24 4L25 4L25 6L24 6L24 7L23 7L23 6L22 6L22 7L23 7L23 9L21 9L21 8L20 8L20 9L19 9L19 6L20 6L20 7L21 7L21 6L20 6L20 5L17 5L17 4L16 4L16 2L17 2L17 1L16 1L16 2L15 2L15 4L14 4L14 2L13 2L13 4L12 4L12 9L11 9L11 10L10 10L10 7L11 7L11 6L10 6L10 5L8 5L8 7L9 7L9 8L6 8L6 9L5 9L5 8L0 8L0 10L1 10L1 9L4 9L4 10L6 10L6 11L5 11L5 13L7 13L7 12L8 12L8 16L9 16L9 17L8 17L8 18L6 18L6 17L7 17L7 16L6 16L6 17L5 17L5 15L4 15L4 14L3 14L3 13L4 13L4 11L3 11L3 10L2 10L2 11L1 11L1 12L0 12L0 13L1 13L1 12L3 12L3 13L2 13L2 15L3 15L3 16L1 16L1 17L0 17L0 20L1 20L1 21L2 21L2 22L1 22L1 25L2 25L2 26L0 26L0 28L1 28L1 27L2 27L2 29L0 29L0 30L4 30L4 31L1 31L1 32L0 32L0 34L2 34L2 32L4 32L4 33L3 33L3 35L2 35L2 36L1 36L1 35L0 35L0 40L1 40L1 37L2 37L2 36L3 36L3 35L4 35L4 36L5 36L5 35L4 35L4 34L6 34L6 35L7 35L7 36L6 36L6 37L3 37L3 39L2 39L2 40L3 40L3 41L2 41L2 42L0 42L0 44L1 44L1 43L2 43L2 42L3 42L3 41L4 41L4 42L5 42L5 43L4 43L4 44L2 44L2 45L0 45L0 48L5 48L5 47L8 47L8 46L5 46L5 45L4 45L4 44L6 44L6 45L8 45L8 44L11 44L11 42L12 42L12 43L14 43L14 44L13 44L13 45L11 45L11 46L12 46L12 48L10 48L10 45L9 45L9 49L8 49L8 48L6 48L6 49L8 49L8 51L9 51L9 52L8 52L8 57L11 57L11 56L10 56L10 54L11 54L11 52L12 52L12 53L14 53L14 52L16 52L16 51L15 51L15 50L16 50L16 49L17 49L17 50L18 50L18 51L17 51L17 53L19 53L19 54L17 54L17 57L19 57L19 56L21 56L21 55L24 55L24 56L23 56L23 57L24 57L24 56L26 56L26 55L27 55L27 56L28 56L28 55L27 55L27 53L28 53L28 54L29 54L29 55L30 55L30 56L29 56L29 57L31 57L31 56L32 56L32 55L33 55L33 56L34 56L34 55L33 55L33 54L32 54L32 52L34 52L34 53L35 53L35 54L36 54L36 55L35 55L35 57L37 57L37 54L38 54L38 55L40 55L40 56L38 56L38 57L40 57L40 56L42 56L42 57L43 57L43 56L45 56L45 57L47 57L47 55L49 55L49 56L50 56L50 55L51 55L51 57L52 57L52 56L53 56L53 57L56 57L56 56L55 56L55 55L51 55L51 54L53 54L53 49L54 49L54 48L55 48L55 49L56 49L56 50L55 50L55 51L54 51L54 52L57 52L57 51L56 51L56 50L57 50L57 49L56 49L56 48L55 48L55 47L56 47L56 46L57 46L57 44L56 44L56 42L55 42L55 41L54 41L54 40L55 40L55 39L57 39L57 37L56 37L56 38L55 38L55 39L53 39L53 41L54 41L54 43L53 43L53 42L51 42L51 41L52 41L52 38L51 38L51 37L53 37L53 38L54 38L54 36L55 36L55 35L54 35L54 36L53 36L53 34L52 34L52 36L50 36L50 38L48 38L48 37L49 37L49 36L48 36L48 37L47 37L47 38L46 38L46 37L44 37L44 35L45 35L45 36L46 36L46 35L50 35L50 32L51 32L51 33L53 33L53 32L55 32L55 33L54 33L54 34L57 34L57 33L56 33L56 30L57 30L57 27L56 27L56 26L57 26L57 23L56 23L56 22L57 22L57 21L54 21L54 22L55 22L55 23L53 23L53 22L52 22L52 24L51 24L51 22L50 22L50 17L51 17L51 20L52 20L52 18L53 18L53 19L54 19L54 20L55 20L55 19L56 19L56 20L57 20L57 19L56 19L56 18L57 18L57 17L56 17L56 18L55 18L55 17L54 17L54 16L55 16L55 15L56 15L56 16L57 16L57 15L56 15L56 14L57 14L57 13L56 13L56 8L55 8L55 11L54 11L54 10L53 10L53 11L52 11L52 10L49 10L49 9L50 9L50 8L49 8L49 9L48 9L48 7L49 7L49 6L48 6L48 7L47 7L47 5L48 5L48 0L42 0L42 1L41 1L41 0L39 0L39 1L37 1L37 0L36 0L36 1L34 1L34 0L32 0L32 1L31 1L31 0L30 0L30 1L29 1L29 0L28 0L28 1L29 1L29 2L28 2L28 3L27 3L27 1L25 1L25 0L24 0L24 1L23 1L23 0ZM18 1L18 2L19 2L19 1ZM24 1L24 2L25 2L25 1ZM30 1L30 2L31 2L31 1ZM32 1L32 2L34 2L34 3L35 3L35 4L33 4L33 3L32 3L32 4L31 4L31 8L33 8L33 7L34 7L34 8L35 8L35 9L33 9L33 11L34 11L34 12L35 12L35 13L33 13L33 12L32 12L32 11L31 11L31 10L32 10L32 9L31 9L31 10L29 10L29 9L26 9L26 6L25 6L25 7L24 7L24 9L25 9L25 11L24 11L24 13L23 13L23 10L22 10L22 11L21 11L21 12L22 12L22 13L20 13L20 12L19 12L19 11L20 11L20 10L21 10L21 9L20 9L20 10L18 10L18 9L16 9L16 6L15 6L15 8L14 8L14 5L13 5L13 8L14 8L14 9L15 9L15 10L12 10L12 11L10 11L10 13L9 13L9 14L11 14L11 16L10 16L10 15L9 15L9 16L10 16L10 18L11 18L11 16L13 16L13 15L15 15L15 16L14 16L14 17L13 17L13 18L12 18L12 19L11 19L11 20L12 20L12 22L15 22L15 23L16 23L16 24L17 24L17 22L18 22L18 23L20 23L20 22L19 22L19 21L23 21L23 22L24 22L24 21L23 21L23 20L21 20L21 19L23 19L23 18L21 18L21 17L20 17L20 16L21 16L21 15L20 15L20 14L22 14L22 15L23 15L23 14L24 14L24 13L25 13L25 14L26 14L26 15L25 15L25 16L24 16L24 17L25 17L25 18L24 18L24 20L25 20L25 22L26 22L26 23L25 23L25 24L24 24L24 23L22 23L22 22L21 22L21 23L22 23L22 24L21 24L21 25L20 25L20 24L19 24L19 25L20 25L20 27L19 27L19 29L20 29L20 30L17 30L17 29L18 29L18 28L17 28L17 29L15 29L15 27L16 27L16 26L17 26L17 27L18 27L18 26L17 26L17 25L15 25L15 27L14 27L14 23L10 23L10 22L8 22L8 21L9 21L9 18L8 18L8 21L6 21L6 20L7 20L7 19L6 19L6 18L5 18L5 20L4 20L4 21L3 21L3 19L4 19L4 17L2 17L2 18L1 18L1 19L2 19L2 21L3 21L3 23L2 23L2 25L3 25L3 26L4 26L4 24L7 24L7 25L6 25L6 26L9 26L9 27L10 27L10 26L9 26L9 25L10 25L10 24L11 24L11 25L13 25L13 27L12 27L12 26L11 26L11 27L12 27L12 28L9 28L9 29L10 29L10 30L11 30L11 31L12 31L12 28L13 28L13 31L14 31L14 34L15 34L15 33L16 33L16 34L17 34L17 35L15 35L15 36L16 36L16 37L13 37L13 38L16 38L16 37L17 37L17 36L20 36L20 37L18 37L18 38L20 38L20 39L18 39L18 40L19 40L19 41L18 41L18 43L16 43L16 42L17 42L17 40L16 40L16 39L15 39L15 40L13 40L13 39L11 39L11 38L12 38L12 37L11 37L11 36L9 36L9 33L12 33L12 32L9 32L9 33L8 33L8 31L5 31L5 33L6 33L6 34L7 34L7 33L8 33L8 37L9 37L9 38L7 38L7 37L6 37L6 38L7 38L7 39L6 39L6 40L5 40L5 38L4 38L4 40L5 40L5 42L7 42L7 43L6 43L6 44L7 44L7 43L8 43L8 42L9 42L9 43L10 43L10 42L11 42L11 41L15 41L15 43L16 43L16 44L18 44L18 45L15 45L15 44L14 44L14 45L15 45L15 47L17 47L17 49L18 49L18 50L19 50L19 51L18 51L18 52L19 52L19 53L21 53L21 54L22 54L22 53L23 53L23 54L24 54L24 53L23 53L23 52L24 52L24 51L25 51L25 52L26 52L26 51L25 51L25 50L24 50L24 51L23 51L23 50L22 50L22 51L23 51L23 52L22 52L22 53L21 53L21 52L20 52L20 51L21 51L21 49L25 49L25 48L26 48L26 47L25 47L25 48L24 48L24 47L23 47L23 46L24 46L24 45L25 45L25 46L31 46L31 47L30 47L30 48L31 48L31 52L32 52L32 51L33 51L33 50L36 50L36 49L35 49L35 48L39 48L39 49L38 49L38 50L37 50L37 53L38 53L38 54L39 54L39 52L40 52L40 55L41 55L41 52L42 52L42 53L43 53L43 55L45 55L45 54L47 54L47 53L48 53L48 52L47 52L47 51L48 51L48 48L49 48L49 47L52 47L52 48L54 48L54 46L53 46L53 45L52 45L52 44L53 44L53 43L52 43L52 44L51 44L51 45L50 45L50 44L49 44L49 46L47 46L47 45L48 45L48 44L47 44L47 45L46 45L46 46L47 46L47 48L46 48L46 49L45 49L45 48L42 48L42 47L44 47L44 46L42 46L42 45L43 45L43 44L41 44L41 43L42 43L42 42L40 42L40 41L42 41L42 40L43 40L43 39L46 39L46 38L44 38L44 37L43 37L43 36L42 36L42 35L44 35L44 34L45 34L45 35L46 35L46 34L47 34L47 33L48 33L48 34L49 34L49 31L48 31L48 29L46 29L46 30L44 30L44 31L46 31L46 30L47 30L47 31L48 31L48 32L42 32L42 31L43 31L43 30L42 30L42 29L45 29L45 28L42 28L42 27L45 27L45 26L48 26L48 25L49 25L49 26L52 26L52 25L53 25L53 27L55 27L55 28L54 28L54 29L53 29L53 31L51 31L51 32L53 32L53 31L55 31L55 30L54 30L54 29L55 29L55 28L56 28L56 27L55 27L55 26L54 26L54 24L52 24L52 25L51 25L51 24L50 24L50 22L48 22L48 23L49 23L49 24L48 24L48 25L47 25L47 24L44 24L44 21L45 21L45 20L43 20L43 19L44 19L44 18L45 18L45 19L46 19L46 18L47 18L47 20L46 20L46 22L45 22L45 23L46 23L46 22L47 22L47 21L48 21L48 20L49 20L49 19L48 19L48 18L47 18L47 17L46 17L46 16L49 16L49 15L45 15L45 16L43 16L43 17L44 17L44 18L42 18L42 17L41 17L41 16L40 16L40 15L39 15L39 14L40 14L40 13L41 13L41 14L42 14L42 15L44 15L44 14L45 14L45 12L46 12L46 14L47 14L47 13L49 13L49 12L48 12L48 11L49 11L49 10L48 10L48 9L47 9L47 8L44 8L44 6L45 6L45 7L46 7L46 5L47 5L47 3L43 3L43 1L42 1L42 2L41 2L41 1L39 1L39 2L41 2L41 3L40 3L40 5L41 5L41 7L42 7L42 8L40 8L40 6L39 6L39 7L38 7L38 5L39 5L39 4L38 4L38 5L36 5L36 3L37 3L37 2L34 2L34 1ZM44 1L44 2L45 2L45 1ZM46 1L46 2L47 2L47 1ZM25 3L25 4L26 4L26 3ZM28 3L28 4L29 4L29 3ZM41 3L41 5L43 5L43 3ZM15 4L15 5L16 5L16 4ZM44 4L44 5L46 5L46 4ZM27 5L27 8L30 8L30 5ZM33 5L33 6L32 6L32 7L33 7L33 6L34 6L34 7L35 7L35 6L36 6L36 7L37 7L37 8L36 8L36 9L35 9L35 10L34 10L34 11L35 11L35 12L36 12L36 14L33 14L33 15L32 15L32 16L31 16L31 13L32 13L32 12L31 12L31 11L30 11L30 12L29 12L29 11L27 11L27 10L26 10L26 11L27 11L27 12L25 12L25 13L28 13L28 14L27 14L27 15L30 15L30 16L31 16L31 17L29 17L29 18L31 18L31 19L28 19L28 18L27 18L27 19L28 19L28 20L29 20L29 21L30 21L30 22L28 22L28 21L27 21L27 20L26 20L26 18L25 18L25 20L26 20L26 21L27 21L27 23L28 23L28 24L27 24L27 25L26 25L26 24L25 24L25 25L23 25L23 26L22 26L22 25L21 25L21 26L22 26L22 27L21 27L21 28L20 28L20 29L21 29L21 30L20 30L20 31L21 31L21 32L18 32L18 33L19 33L19 34L18 34L18 35L20 35L20 33L21 33L21 34L23 34L23 35L24 35L24 37L21 37L21 39L22 39L22 38L24 38L24 37L26 37L26 36L27 36L27 37L28 37L28 38L25 38L25 40L24 40L24 39L23 39L23 40L24 40L24 41L21 41L21 43L22 43L22 42L23 42L23 45L24 45L24 44L25 44L25 45L26 45L26 44L25 44L25 42L26 42L26 43L28 43L28 42L26 42L26 41L27 41L27 39L28 39L28 41L29 41L29 39L31 39L31 38L32 38L32 35L30 35L30 34L29 34L29 35L30 35L30 36L29 36L29 37L28 37L28 36L27 36L27 35L26 35L26 34L25 34L25 33L22 33L22 31L23 31L23 32L25 32L25 31L27 31L27 32L26 32L26 33L30 33L30 32L28 32L28 31L31 31L31 32L34 32L34 33L33 33L33 34L34 34L34 35L33 35L33 37L34 37L34 36L35 36L35 34L36 34L36 35L37 35L37 34L38 34L38 36L39 36L39 37L40 37L40 36L41 36L41 35L40 35L40 36L39 36L39 34L38 34L38 33L39 33L39 32L41 32L41 31L42 31L42 30L41 30L41 31L39 31L39 32L36 32L36 31L35 31L35 30L33 30L33 31L31 31L31 28L33 28L33 29L36 29L36 30L38 30L38 28L37 28L37 27L38 27L38 25L37 25L37 24L38 24L38 23L40 23L40 22L41 22L41 24L42 24L42 25L40 25L40 26L43 26L43 25L44 25L44 26L45 26L45 25L44 25L44 24L43 24L43 23L42 23L42 22L43 22L43 21L42 21L42 20L41 20L41 19L42 19L42 18L41 18L41 17L40 17L40 16L38 16L38 17L37 17L37 16L36 16L36 15L37 15L37 14L38 14L38 12L41 12L41 11L42 11L42 14L44 14L44 12L45 12L45 10L44 10L44 8L43 8L43 9L42 9L42 10L41 10L41 9L40 9L40 10L37 10L37 9L39 9L39 8L38 8L38 7L37 7L37 6L36 6L36 5L35 5L35 6L34 6L34 5ZM9 6L9 7L10 7L10 6ZM17 6L17 8L18 8L18 6ZM28 6L28 7L29 7L29 6ZM42 6L42 7L43 7L43 6ZM51 8L51 9L52 9L52 8ZM53 8L53 9L54 9L54 8ZM6 9L6 10L8 10L8 9ZM15 10L15 11L16 11L16 10ZM17 10L17 11L18 11L18 10ZM36 10L36 12L37 12L37 10ZM40 10L40 11L41 11L41 10ZM42 10L42 11L44 11L44 10ZM47 10L47 11L48 11L48 10ZM6 11L6 12L7 12L7 11ZM8 11L8 12L9 12L9 11ZM12 11L12 13L11 13L11 14L12 14L12 15L13 15L13 14L14 14L14 13L13 13L13 12L14 12L14 11ZM50 11L50 16L51 16L51 17L53 17L53 16L54 16L54 15L53 15L53 13L55 13L55 14L56 14L56 13L55 13L55 12L54 12L54 11L53 11L53 12L52 12L52 11ZM15 12L15 13L18 13L18 15L19 15L19 13L18 13L18 12ZM28 12L28 13L29 13L29 14L30 14L30 13L29 13L29 12ZM12 13L12 14L13 14L13 13ZM51 13L51 14L52 14L52 13ZM6 14L6 15L7 15L7 14ZM15 14L15 15L16 15L16 17L15 17L15 18L13 18L13 19L12 19L12 20L13 20L13 21L15 21L15 22L16 22L16 21L15 21L15 18L16 18L16 19L18 19L18 21L19 21L19 19L21 19L21 18L20 18L20 17L19 17L19 16L18 16L18 17L17 17L17 14ZM33 15L33 16L32 16L32 19L33 19L33 20L32 20L32 21L33 21L33 23L32 23L32 24L30 24L30 23L31 23L31 22L30 22L30 23L29 23L29 24L28 24L28 25L29 25L29 24L30 24L30 25L32 25L32 26L31 26L31 27L33 27L33 28L34 28L34 27L35 27L35 28L36 28L36 27L37 27L37 26L35 26L35 25L36 25L36 24L37 24L37 23L38 23L38 22L39 22L39 21L38 21L38 18L39 18L39 17L38 17L38 18L37 18L37 19L36 19L36 18L35 18L35 17L36 17L36 16L35 16L35 15ZM51 15L51 16L53 16L53 15ZM22 16L22 17L23 17L23 16ZM25 16L25 17L28 17L28 16ZM33 16L33 17L35 17L35 16ZM16 17L16 18L17 18L17 17ZM18 17L18 19L19 19L19 17ZM45 17L45 18L46 18L46 17ZM33 18L33 19L34 19L34 20L33 20L33 21L35 21L35 18ZM40 18L40 19L39 19L39 20L40 20L40 21L41 21L41 20L40 20L40 19L41 19L41 18ZM13 19L13 20L14 20L14 19ZM30 20L30 21L31 21L31 20ZM36 20L36 21L37 21L37 22L36 22L36 23L34 23L34 24L36 24L36 23L37 23L37 22L38 22L38 21L37 21L37 20ZM4 21L4 23L5 23L5 22L6 22L6 23L7 23L7 24L8 24L8 25L9 25L9 23L7 23L7 22L6 22L6 21ZM55 23L55 24L56 24L56 23ZM25 25L25 26L26 26L26 25ZM33 25L33 27L34 27L34 25ZM5 27L5 30L8 30L8 27ZM25 27L25 28L23 28L23 29L22 29L22 28L21 28L21 29L22 29L22 30L21 30L21 31L22 31L22 30L23 30L23 31L25 31L25 30L26 30L26 27ZM27 27L27 30L30 30L30 27ZM39 27L39 28L40 28L40 27ZM46 27L46 28L47 28L47 27ZM49 27L49 30L52 30L52 27ZM6 28L6 29L7 29L7 28ZM28 28L28 29L29 29L29 28ZM50 28L50 29L51 29L51 28ZM23 29L23 30L25 30L25 29ZM39 29L39 30L40 30L40 29ZM16 30L16 31L17 31L17 30ZM34 31L34 32L35 32L35 33L34 33L34 34L35 34L35 33L36 33L36 34L37 34L37 33L36 33L36 32L35 32L35 31ZM6 32L6 33L7 33L7 32ZM16 32L16 33L17 33L17 32ZM41 33L41 34L43 34L43 33ZM45 33L45 34L46 34L46 33ZM12 34L12 35L13 35L13 36L14 36L14 35L13 35L13 34ZM21 35L21 36L22 36L22 35ZM56 35L56 36L57 36L57 35ZM30 36L30 38L31 38L31 36ZM36 36L36 37L35 37L35 38L33 38L33 39L34 39L34 40L30 40L30 41L32 41L32 42L29 42L29 43L31 43L31 44L30 44L30 45L31 45L31 46L33 46L33 47L31 47L31 48L35 48L35 47L39 47L39 48L41 48L41 49L39 49L39 50L38 50L38 51L40 51L40 52L41 52L41 51L40 51L40 50L43 50L43 51L42 51L42 52L43 52L43 53L44 53L44 54L45 54L45 53L44 53L44 50L43 50L43 49L42 49L42 48L41 48L41 47L42 47L42 46L41 46L41 47L40 47L40 46L37 46L37 44L38 44L38 43L37 43L37 42L38 42L38 41L37 41L37 39L38 39L38 40L40 40L40 38L39 38L39 39L38 39L38 37L37 37L37 36ZM36 37L36 38L35 38L35 40L36 40L36 38L37 38L37 37ZM41 37L41 38L42 38L42 39L43 39L43 37ZM9 38L9 40L8 40L8 39L7 39L7 40L6 40L6 41L7 41L7 42L8 42L8 41L11 41L11 39L10 39L10 38ZM47 38L47 41L45 41L45 40L44 40L44 41L45 41L45 42L43 42L43 43L44 43L44 45L45 45L45 42L48 42L48 43L49 43L49 42L48 42L48 41L51 41L51 38L50 38L50 40L49 40L49 39L48 39L48 38ZM15 40L15 41L16 41L16 40ZM19 41L19 44L20 44L20 45L18 45L18 47L19 47L19 48L18 48L18 49L19 49L19 50L20 50L20 49L21 49L21 48L23 48L23 47L22 47L22 46L20 46L20 45L22 45L22 44L20 44L20 41ZM33 41L33 42L34 42L34 44L31 44L31 45L33 45L33 46L36 46L36 44L37 44L37 43L36 43L36 42L37 42L37 41L36 41L36 42L34 42L34 41ZM50 42L50 43L51 43L51 42ZM35 43L35 44L36 44L36 43ZM39 43L39 44L40 44L40 43ZM27 44L27 45L29 45L29 44ZM54 44L54 45L56 45L56 44ZM2 45L2 46L1 46L1 47L2 47L2 46L3 46L3 47L5 47L5 46L3 46L3 45ZM51 45L51 46L52 46L52 47L53 47L53 46L52 46L52 45ZM13 46L13 48L12 48L12 49L14 49L14 50L13 50L13 52L14 52L14 50L15 50L15 49L16 49L16 48L15 48L15 49L14 49L14 46ZM20 47L20 48L19 48L19 49L20 49L20 48L21 48L21 47ZM28 47L28 48L29 48L29 47ZM9 49L9 50L10 50L10 51L12 51L12 50L10 50L10 49ZM27 49L27 52L30 52L30 49ZM32 49L32 50L33 50L33 49ZM49 49L49 52L52 52L52 49ZM28 50L28 51L29 51L29 50ZM45 50L45 52L46 52L46 53L47 53L47 52L46 52L46 51L47 51L47 50ZM50 50L50 51L51 51L51 50ZM34 51L34 52L36 52L36 51ZM9 53L9 54L10 54L10 53ZM15 53L15 54L16 54L16 53ZM25 53L25 55L26 55L26 53ZM29 53L29 54L30 54L30 53ZM49 53L49 54L51 54L51 53ZM54 53L54 54L55 54L55 53ZM19 54L19 55L20 55L20 54ZM15 55L15 56L14 56L14 57L15 57L15 56L16 56L16 55ZM12 56L12 57L13 57L13 56ZM0 0L0 7L7 7L7 0ZM1 1L1 6L6 6L6 1ZM2 2L2 5L5 5L5 2ZM50 0L50 7L57 7L57 0ZM51 1L51 6L56 6L56 1ZM52 2L52 5L55 5L55 2ZM0 50L0 57L7 57L7 50ZM1 51L1 56L6 56L6 51ZM2 52L2 55L5 55L5 52Z" fill="#000000"/></g></g></svg>
