<?xml version="1.0" encoding="UTF-8"?>
<svg xmlns="http://www.w3.org/2000/svg" version="1.1" width="300" height="300" viewBox="0 0 300 300"><rect x="0" y="0" width="300" height="300" fill="#ffffff"/><g transform="scale(4.918)"><g transform="translate(2,2)"><path fill-rule="evenodd" d="M12 0L12 1L13 1L13 2L10 2L10 1L8 1L8 2L9 2L9 3L8 3L8 4L9 4L9 5L8 5L8 7L9 7L9 5L10 5L10 7L11 7L11 8L6 8L6 9L5 9L5 8L0 8L0 9L2 9L2 10L1 10L1 12L2 12L2 13L0 13L0 19L1 19L1 18L2 18L2 19L4 19L4 20L3 20L3 22L2 22L2 23L1 23L1 22L0 22L0 26L1 26L1 27L0 27L0 28L3 28L3 29L2 29L2 30L3 30L3 31L0 31L0 33L1 33L1 36L2 36L2 38L1 38L1 37L0 37L0 38L1 38L1 39L0 39L0 40L1 40L1 41L0 41L0 42L3 42L3 40L1 40L1 39L2 39L2 38L3 38L3 39L5 39L5 40L6 40L6 41L8 41L8 43L7 43L7 42L5 42L5 45L4 45L4 44L3 44L3 46L2 46L2 47L1 47L1 45L0 45L0 48L5 48L5 47L7 47L7 46L9 46L9 45L11 45L11 46L10 46L10 47L11 47L11 46L15 46L15 50L14 50L14 51L15 51L15 52L17 52L17 51L18 51L18 53L19 53L19 54L20 54L20 55L18 55L18 54L17 54L17 55L18 55L18 57L19 57L19 56L23 56L23 55L24 55L24 56L25 56L25 57L26 57L26 56L28 56L28 55L26 55L26 56L25 56L25 54L27 54L27 53L28 53L28 54L29 54L29 55L30 55L30 56L29 56L29 57L31 57L31 55L32 55L32 56L33 56L33 54L32 54L32 52L33 52L33 53L34 53L34 52L36 52L36 53L37 53L37 54L34 54L34 56L35 56L35 57L37 57L37 56L35 56L35 55L37 55L37 54L38 54L38 55L40 55L40 56L38 56L38 57L40 57L40 56L41 56L41 57L44 57L44 56L43 56L43 53L44 53L44 54L45 54L45 53L47 53L47 52L48 52L48 53L49 53L49 54L47 54L47 55L48 55L48 56L49 56L49 57L50 57L50 53L51 53L51 54L53 54L53 55L51 55L51 57L52 57L52 56L53 56L53 57L54 57L54 56L55 56L55 57L56 57L56 56L55 56L55 54L53 54L53 51L54 51L54 52L55 52L55 53L56 53L56 52L55 52L55 50L57 50L57 47L56 47L56 46L57 46L57 45L56 45L56 46L55 46L55 45L54 45L54 44L55 44L55 43L56 43L56 44L57 44L57 43L56 43L56 42L55 42L55 41L54 41L54 40L55 40L55 39L57 39L57 36L56 36L56 34L57 34L57 33L56 33L56 34L55 34L55 33L54 33L54 32L56 32L56 30L57 30L57 29L54 29L54 28L55 28L55 27L53 27L53 26L50 26L50 25L51 25L51 24L53 24L53 25L54 25L54 26L57 26L57 25L54 25L54 24L55 24L55 23L56 23L56 24L57 24L57 23L56 23L56 22L57 22L57 21L54 21L54 20L55 20L55 18L57 18L57 17L56 17L56 16L55 16L55 15L56 15L56 14L57 14L57 13L54 13L54 16L53 16L53 15L52 15L52 16L53 16L53 17L52 17L52 19L51 19L51 22L50 22L50 17L48 17L48 16L47 16L47 17L48 17L48 18L49 18L49 19L47 19L47 18L45 18L45 17L44 17L44 16L46 16L46 15L49 15L49 14L50 14L50 13L51 13L51 14L52 14L52 13L51 13L51 12L50 12L50 13L47 13L47 14L46 14L46 12L45 12L45 13L44 13L44 12L43 12L43 11L44 11L44 8L43 8L43 6L42 6L42 5L43 5L43 3L47 3L47 5L46 5L46 4L44 4L44 5L45 5L45 6L44 6L44 7L45 7L45 6L46 6L46 7L47 7L47 5L48 5L48 0L44 0L44 1L43 1L43 0L39 0L39 1L38 1L38 0L35 0L35 1L34 1L34 0L33 0L33 1L34 1L34 2L30 2L30 1L32 1L32 0L30 0L30 1L29 1L29 0L27 0L27 1L28 1L28 3L27 3L27 2L26 2L26 0L21 0L21 1L23 1L23 2L21 2L21 3L23 3L23 2L25 2L25 3L24 3L24 4L21 4L21 5L24 5L24 4L25 4L25 6L24 6L24 7L23 7L23 6L22 6L22 7L23 7L23 8L24 8L24 7L25 7L25 6L26 6L26 9L27 9L27 10L26 10L26 11L27 11L27 12L25 12L25 13L24 13L24 12L23 12L23 13L24 13L24 14L21 14L21 15L20 15L20 17L19 17L19 16L18 16L18 15L19 15L19 13L22 13L22 12L20 12L20 9L19 9L19 6L20 6L20 7L21 7L21 6L20 6L20 5L18 5L18 4L20 4L20 3L19 3L19 2L20 2L20 0L19 0L19 2L18 2L18 4L16 4L16 3L17 3L17 2L14 2L14 1L16 1L16 0ZM17 0L17 1L18 1L18 0ZM35 1L35 2L34 2L34 3L32 3L32 4L31 4L31 8L36 8L36 6L37 6L37 8L40 8L40 9L38 9L38 10L35 10L35 9L33 9L33 10L35 10L35 11L34 11L34 12L36 12L36 11L38 11L38 10L39 10L39 12L38 12L38 13L36 13L36 14L40 14L40 15L41 15L41 16L39 16L39 15L38 15L38 16L37 16L37 15L36 15L36 16L30 16L30 15L27 15L27 14L28 14L28 13L29 13L29 14L30 14L30 13L29 13L29 12L30 12L30 11L29 11L29 10L27 10L27 11L29 11L29 12L28 12L28 13L25 13L25 15L26 15L26 16L24 16L24 15L21 15L21 17L20 17L20 18L19 18L19 17L16 17L16 16L14 16L14 15L18 15L18 13L19 13L19 9L18 9L18 11L17 11L17 9L16 9L16 6L15 6L15 5L16 5L16 4L15 4L15 3L14 3L14 4L13 4L13 3L11 3L11 4L13 4L13 5L12 5L12 6L11 6L11 7L12 7L12 6L13 6L13 7L14 7L14 6L15 6L15 8L14 8L14 9L13 9L13 10L12 10L12 8L11 8L11 9L10 9L10 10L9 10L9 9L8 9L8 10L9 10L9 11L8 11L8 12L7 12L7 11L6 11L6 10L7 10L7 9L6 9L6 10L4 10L4 11L3 11L3 13L2 13L2 14L3 14L3 18L4 18L4 19L6 19L6 20L8 20L8 21L6 21L6 22L7 22L7 23L5 23L5 22L4 22L4 23L3 23L3 25L1 25L1 26L2 26L2 27L3 27L3 28L4 28L4 26L5 26L5 25L4 25L4 24L7 24L7 25L6 25L6 26L7 26L7 25L8 25L8 26L9 26L9 29L10 29L10 30L9 30L9 31L11 31L11 33L9 33L9 32L7 32L7 31L5 31L5 32L7 32L7 33L5 33L5 39L6 39L6 40L8 40L8 41L9 41L9 43L8 43L8 45L9 45L9 43L10 43L10 40L8 40L8 39L9 39L9 38L10 38L10 39L11 39L11 40L12 40L12 41L11 41L11 45L15 45L15 46L17 46L17 47L16 47L16 48L17 48L17 49L16 49L16 50L17 50L17 49L18 49L18 51L21 51L21 52L19 52L19 53L21 53L21 55L23 55L23 54L24 54L24 53L23 53L23 52L25 52L25 53L26 53L26 51L23 51L23 50L21 50L21 49L20 49L20 48L21 48L21 46L22 46L22 47L23 47L23 48L22 48L22 49L25 49L25 50L26 50L26 48L29 48L29 47L24 47L24 45L25 45L25 46L29 46L29 45L27 45L27 43L26 43L26 42L28 42L28 43L29 43L29 44L32 44L32 46L31 46L31 45L30 45L30 46L31 46L31 47L32 47L32 46L35 46L35 44L39 44L39 45L37 45L37 46L36 46L36 48L35 48L35 47L33 47L33 48L31 48L31 50L32 50L32 51L31 51L31 52L32 52L32 51L33 51L33 50L35 50L35 51L36 51L36 52L37 52L37 51L38 51L38 50L40 50L40 51L39 51L39 52L38 52L38 54L39 54L39 52L40 52L40 55L41 55L41 56L42 56L42 54L41 54L41 52L42 52L42 53L43 53L43 50L44 50L44 53L45 53L45 51L46 51L46 50L47 50L47 51L48 51L48 48L50 48L50 47L51 47L51 48L54 48L54 49L55 49L55 48L56 48L56 47L55 47L55 46L54 46L54 47L53 47L53 45L52 45L52 44L53 44L53 43L54 43L54 41L52 41L52 40L54 40L54 39L55 39L55 38L54 38L54 37L56 37L56 36L52 36L52 34L53 34L53 35L55 35L55 34L54 34L54 33L50 33L50 35L49 35L49 32L50 32L50 31L48 31L48 29L46 29L46 30L45 30L45 32L44 32L44 29L45 29L45 27L46 27L46 28L48 28L48 26L47 26L47 25L49 25L49 24L51 24L51 23L50 23L50 22L48 22L48 23L47 23L47 21L48 21L48 20L47 20L47 19L46 19L46 20L43 20L43 19L45 19L45 18L44 18L44 17L43 17L43 18L42 18L42 17L41 17L41 16L42 16L42 15L43 15L43 16L44 16L44 15L45 15L45 14L42 14L42 11L43 11L43 10L42 10L42 9L43 9L43 8L40 8L40 6L39 6L39 7L38 7L38 6L37 6L37 5L36 5L36 3L37 3L37 4L38 4L38 5L39 5L39 4L38 4L38 3L39 3L39 2L41 2L41 3L40 3L40 5L42 5L42 4L41 4L41 3L43 3L43 1L39 1L39 2L38 2L38 1L37 1L37 2L36 2L36 1ZM44 1L44 2L47 2L47 1ZM29 2L29 3L28 3L28 4L29 4L29 3L30 3L30 2ZM9 3L9 4L10 4L10 3ZM25 3L25 4L26 4L26 3ZM14 4L14 5L13 5L13 6L14 6L14 5L15 5L15 4ZM17 5L17 7L18 7L18 5ZM27 5L27 8L30 8L30 5ZM33 5L33 6L32 6L32 7L33 7L33 6L34 6L34 7L35 7L35 6L36 6L36 5ZM28 6L28 7L29 7L29 6ZM41 6L41 7L42 7L42 6ZM48 6L48 7L49 7L49 6ZM46 8L46 9L48 9L48 10L46 10L46 11L47 11L47 12L49 12L49 10L50 10L50 11L52 11L52 12L53 12L53 11L54 11L54 12L55 12L55 11L56 11L56 10L55 10L55 11L54 11L54 10L53 10L53 9L54 9L54 8L53 8L53 9L52 9L52 8L51 8L51 9L52 9L52 10L50 10L50 8L49 8L49 9L48 9L48 8ZM55 8L55 9L56 9L56 8ZM15 9L15 10L16 10L16 9ZM22 9L22 10L21 10L21 11L22 11L22 10L23 10L23 11L25 11L25 9ZM31 9L31 10L32 10L32 9ZM40 9L40 11L42 11L42 10L41 10L41 9ZM52 10L52 11L53 11L53 10ZM5 11L5 12L4 12L4 13L3 13L3 14L4 14L4 13L5 13L5 15L7 15L7 16L6 16L6 17L5 17L5 16L4 16L4 17L5 17L5 18L6 18L6 19L7 19L7 18L6 18L6 17L9 17L9 16L11 16L11 17L10 17L10 18L9 18L9 20L10 20L10 19L12 19L12 20L13 20L13 21L15 21L15 22L14 22L14 24L13 24L13 25L12 25L12 23L13 23L13 22L12 22L12 23L11 23L11 22L10 22L10 23L9 23L9 21L8 21L8 23L7 23L7 24L8 24L8 25L12 25L12 26L13 26L13 25L14 25L14 27L13 27L13 28L12 28L12 27L11 27L11 28L12 28L12 29L13 29L13 31L12 31L12 30L11 30L11 31L12 31L12 34L13 34L13 35L9 35L9 33L7 33L7 34L6 34L6 35L7 35L7 34L8 34L8 35L9 35L9 37L8 37L8 36L6 36L6 37L8 37L8 38L6 38L6 39L8 39L8 38L9 38L9 37L10 37L10 38L12 38L12 39L14 39L14 40L15 40L15 39L16 39L16 40L17 40L17 42L16 42L16 45L18 45L18 47L19 47L19 48L18 48L18 49L19 49L19 48L20 48L20 47L19 47L19 46L20 46L20 45L22 45L22 44L20 44L20 45L18 45L18 44L17 44L17 43L18 43L18 42L19 42L19 43L20 43L20 41L21 41L21 43L22 43L22 41L21 41L21 40L20 40L20 41L19 41L19 40L17 40L17 37L16 37L16 35L17 35L17 34L15 34L15 33L17 33L17 32L16 32L16 31L17 31L17 30L19 30L19 29L21 29L21 30L20 30L20 31L18 31L18 33L19 33L19 34L18 34L18 35L19 35L19 34L20 34L20 35L21 35L21 36L22 36L22 35L21 35L21 34L23 34L23 35L26 35L26 36L24 36L24 37L21 37L21 38L22 38L22 40L23 40L23 41L24 41L24 42L23 42L23 43L24 43L24 44L23 44L23 45L24 45L24 44L25 44L25 45L26 45L26 44L25 44L25 42L26 42L26 41L27 41L27 39L28 39L28 41L29 41L29 43L31 43L31 41L32 41L32 42L34 42L34 43L33 43L33 44L34 44L34 43L35 43L35 42L36 42L36 43L37 43L37 42L38 42L38 43L40 43L40 44L43 44L43 45L42 45L42 46L41 46L41 45L40 45L40 46L41 46L41 47L39 47L39 46L37 46L37 48L36 48L36 49L35 49L35 50L36 50L36 51L37 51L37 50L38 50L38 49L37 49L37 48L38 48L38 47L39 47L39 48L41 48L41 49L40 49L40 50L41 50L41 51L40 51L40 52L41 52L41 51L42 51L42 50L43 50L43 48L45 48L45 50L46 50L46 49L47 49L47 48L45 48L45 47L47 47L47 46L46 46L46 45L47 45L47 44L48 44L48 43L49 43L49 47L50 47L50 44L52 44L52 43L53 43L53 42L52 42L52 41L49 41L49 42L48 42L48 43L46 43L46 42L45 42L45 41L44 41L44 39L43 39L43 41L42 41L42 40L41 40L41 42L43 42L43 41L44 41L44 44L43 44L43 43L40 43L40 42L38 42L38 41L37 41L37 40L36 40L36 39L37 39L37 38L38 38L38 37L37 37L37 36L38 36L38 35L39 35L39 34L41 34L41 35L40 35L40 36L39 36L39 37L40 37L40 36L41 36L41 38L43 38L43 37L44 37L44 38L45 38L45 39L46 39L46 38L45 38L45 37L46 37L46 35L47 35L47 36L48 36L48 33L47 33L47 32L48 32L48 31L47 31L47 30L46 30L46 31L47 31L47 32L45 32L45 33L44 33L44 32L43 32L43 31L42 31L42 30L43 30L43 29L44 29L44 28L43 28L43 27L44 27L44 25L43 25L43 24L45 24L45 21L44 21L44 23L43 23L43 24L41 24L41 23L40 23L40 22L43 22L43 20L41 20L41 19L42 19L42 18L41 18L41 17L40 17L40 18L38 18L38 17L37 17L37 16L36 16L36 17L35 17L35 18L32 18L32 17L29 17L29 18L32 18L32 19L30 19L30 22L29 22L29 21L27 21L27 23L28 23L28 24L27 24L27 25L26 25L26 24L25 24L25 23L26 23L26 22L25 22L25 20L26 20L26 19L25 19L25 18L26 18L26 17L28 17L28 16L26 16L26 17L21 17L21 19L20 19L20 20L23 20L23 21L19 21L19 20L18 20L18 19L19 19L19 18L17 18L17 20L18 20L18 21L19 21L19 22L18 22L18 23L17 23L17 26L18 26L18 27L15 27L15 24L16 24L16 23L15 23L15 22L16 22L16 21L15 21L15 20L16 20L16 19L15 19L15 18L16 18L16 17L15 17L15 18L12 18L12 17L14 17L14 16L13 16L13 15L12 15L12 14L14 14L14 13L12 13L12 12L9 12L9 13L11 13L11 15L10 15L10 14L8 14L8 15L7 15L7 14L6 14L6 13L7 13L7 12L6 12L6 11ZM13 11L13 12L14 12L14 11ZM15 11L15 13L18 13L18 12L16 12L16 11ZM5 12L5 13L6 13L6 12ZM32 12L32 14L31 14L31 15L33 15L33 14L35 14L35 13L33 13L33 12ZM40 13L40 14L41 14L41 15L42 15L42 14L41 14L41 13ZM1 15L1 17L2 17L2 15ZM50 15L50 16L51 16L51 15ZM54 16L54 17L55 17L55 16ZM36 17L36 18L35 18L35 19L34 19L34 20L32 20L32 21L34 21L34 22L33 22L33 23L31 23L31 22L30 22L30 23L29 23L29 22L28 22L28 23L29 23L29 24L28 24L28 26L29 26L29 24L31 24L31 25L32 25L32 26L34 26L34 27L33 27L33 28L32 28L32 29L31 29L31 30L35 30L35 31L34 31L34 32L35 32L35 33L33 33L33 32L30 32L30 33L27 33L27 34L26 34L26 32L29 32L29 31L25 31L25 32L24 32L24 31L20 31L20 32L19 32L19 33L20 33L20 34L21 34L21 33L20 33L20 32L22 32L22 33L25 33L25 34L26 34L26 35L27 35L27 36L26 36L26 37L24 37L24 38L23 38L23 39L24 39L24 41L25 41L25 38L28 38L28 37L29 37L29 36L30 36L30 38L31 38L31 39L29 39L29 41L31 41L31 39L33 39L33 38L34 38L34 40L32 40L32 41L34 41L34 42L35 42L35 41L36 41L36 42L37 42L37 41L36 41L36 40L35 40L35 37L36 37L36 36L37 36L37 35L38 35L38 34L39 34L39 32L40 32L40 33L41 33L41 34L42 34L42 35L44 35L44 37L45 37L45 35L46 35L46 34L47 34L47 33L46 33L46 34L44 34L44 33L43 33L43 32L40 32L40 31L41 31L41 30L42 30L42 29L43 29L43 28L42 28L42 26L41 26L41 24L40 24L40 26L39 26L39 25L37 25L37 26L39 26L39 27L38 27L38 30L37 30L37 31L36 31L36 30L35 30L35 29L33 29L33 28L34 28L34 27L35 27L35 26L36 26L36 25L35 25L35 24L39 24L39 21L38 21L38 20L40 20L40 21L41 21L41 20L40 20L40 19L41 19L41 18L40 18L40 19L38 19L38 18L37 18L37 17ZM22 18L22 19L23 19L23 20L25 20L25 19L23 19L23 18ZM27 18L27 20L28 20L28 18ZM36 18L36 19L37 19L37 18ZM13 19L13 20L14 20L14 19ZM56 19L56 20L57 20L57 19ZM1 20L1 21L2 21L2 20ZM4 20L4 21L5 21L5 20ZM36 20L36 21L37 21L37 22L36 22L36 23L37 23L37 22L38 22L38 21L37 21L37 20ZM46 20L46 21L47 21L47 20ZM52 20L52 21L53 21L53 20ZM23 21L23 22L21 22L21 23L23 23L23 24L19 24L19 23L20 23L20 22L19 22L19 23L18 23L18 24L19 24L19 25L20 25L20 27L19 27L19 28L20 28L20 27L22 27L22 26L23 26L23 24L24 24L24 25L25 25L25 26L26 26L26 25L25 25L25 24L24 24L24 23L23 23L23 22L24 22L24 21ZM34 22L34 23L35 23L35 22ZM53 22L53 23L55 23L55 22ZM8 23L8 24L9 24L9 23ZM48 23L48 24L49 24L49 23ZM46 24L46 25L47 25L47 24ZM3 25L3 26L4 26L4 25ZM21 25L21 26L22 26L22 25ZM40 26L40 27L39 27L39 28L40 28L40 27L41 27L41 26ZM46 26L46 27L47 27L47 26ZM5 27L5 30L8 30L8 27ZM14 27L14 29L15 29L15 30L14 30L14 32L13 32L13 34L14 34L14 35L15 35L15 34L14 34L14 33L15 33L15 31L16 31L16 30L17 30L17 29L18 29L18 28L17 28L17 29L15 29L15 27ZM23 27L23 29L22 29L22 28L21 28L21 29L22 29L22 30L23 30L23 29L25 29L25 30L26 30L26 27L25 27L25 28L24 28L24 27ZM27 27L27 30L30 30L30 27ZM36 27L36 28L37 28L37 27ZM49 27L49 30L52 30L52 27ZM56 27L56 28L57 28L57 27ZM6 28L6 29L7 29L7 28ZM28 28L28 29L29 29L29 28ZM50 28L50 29L51 29L51 28ZM3 29L3 30L4 30L4 29ZM53 30L53 32L54 32L54 30ZM3 31L3 32L2 32L2 33L3 33L3 34L2 34L2 35L4 35L4 33L3 33L3 32L4 32L4 31ZM35 31L35 32L36 32L36 35L37 35L37 34L38 34L38 33L37 33L37 32L38 32L38 31L37 31L37 32L36 32L36 31ZM42 33L42 34L43 34L43 33ZM29 34L29 35L30 35L30 36L31 36L31 38L32 38L32 35L30 35L30 34ZM33 34L33 35L35 35L35 34ZM3 36L3 37L4 37L4 36ZM10 36L10 37L12 37L12 38L14 38L14 39L15 39L15 38L16 38L16 37L14 37L14 36ZM18 36L18 37L20 37L20 36ZM27 36L27 37L28 37L28 36ZM34 36L34 37L35 37L35 36ZM42 36L42 37L43 37L43 36ZM50 36L50 37L52 37L52 36ZM48 37L48 39L49 39L49 40L51 40L51 39L50 39L50 38L49 38L49 37ZM19 38L19 39L20 39L20 38ZM39 38L39 39L38 39L38 40L39 40L39 39L40 39L40 38ZM53 38L53 39L54 39L54 38ZM46 40L46 41L47 41L47 40ZM12 41L12 44L14 44L14 43L13 43L13 42L14 42L14 41ZM50 42L50 43L51 43L51 42ZM0 43L0 44L2 44L2 43ZM6 43L6 44L7 44L7 43ZM44 44L44 46L42 46L42 47L41 47L41 48L42 48L42 47L44 47L44 46L45 46L45 44ZM6 45L6 46L7 46L7 45ZM51 45L51 47L52 47L52 45ZM3 46L3 47L5 47L5 46ZM12 47L12 49L14 49L14 48L13 48L13 47ZM54 47L54 48L55 48L55 47ZM6 48L6 49L7 49L7 48ZM8 49L8 51L10 51L10 50L11 50L11 49ZM27 49L27 52L30 52L30 49ZM32 49L32 50L33 50L33 49ZM36 49L36 50L37 50L37 49ZM41 49L41 50L42 50L42 49ZM49 49L49 52L52 52L52 49ZM12 50L12 51L11 51L11 52L10 52L10 53L9 53L9 52L8 52L8 57L9 57L9 55L10 55L10 53L11 53L11 54L12 54L12 56L14 56L14 57L17 57L17 56L16 56L16 55L15 55L15 54L16 54L16 53L14 53L14 52L12 52L12 51L13 51L13 50ZM28 50L28 51L29 51L29 50ZM50 50L50 51L51 51L51 50ZM21 52L21 53L22 53L22 54L23 54L23 53L22 53L22 52ZM13 53L13 54L14 54L14 53ZM29 53L29 54L30 54L30 53ZM14 55L14 56L15 56L15 55ZM45 55L45 57L47 57L47 56L46 56L46 55ZM0 0L0 7L7 7L7 0ZM1 1L1 6L6 6L6 1ZM2 2L2 5L5 5L5 2ZM50 0L50 7L57 7L57 0ZM51 1L51 6L56 6L56 1ZM52 2L52 5L55 5L55 2ZM0 50L0 57L7 57L7 50ZM1 51L1 56L6 56L6 51ZM2 52L2 55L5 55L5 52Z" fill="#000000"/></g></g></svg>
