<?xml version="1.0" encoding="UTF-8"?>
<svg xmlns="http://www.w3.org/2000/svg" version="1.1" width="300" height="300" viewBox="0 0 300 300"><rect x="0" y="0" width="300" height="300" fill="#ffffff"/><g transform="scale(4.918)"><g transform="translate(2,2)"><path fill-rule="evenodd" d="M14 0L14 1L15 1L15 0ZM17 0L17 1L16 1L16 2L14 2L14 3L16 3L16 2L20 2L20 0ZM21 0L21 1L23 1L23 2L24 2L24 3L23 3L23 4L22 4L22 3L21 3L21 4L19 4L19 3L18 3L18 4L17 4L17 6L16 6L16 7L15 7L15 5L16 5L16 4L14 4L14 7L15 7L15 8L16 8L16 9L12 9L12 12L10 12L10 10L11 10L11 9L10 9L10 8L6 8L6 9L8 9L8 10L9 10L9 11L8 11L8 12L9 12L9 15L8 15L8 13L7 13L7 12L6 12L6 11L7 11L7 10L5 10L5 8L0 8L0 10L3 10L3 9L4 9L4 11L5 11L5 14L4 14L4 16L3 16L3 15L2 15L2 16L0 16L0 18L1 18L1 19L2 19L2 20L1 20L1 21L2 21L2 23L1 23L1 22L0 22L0 23L1 23L1 24L2 24L2 25L3 25L3 27L2 27L2 28L1 28L1 27L0 27L0 29L1 29L1 30L0 30L0 31L1 31L1 30L2 30L2 33L1 33L1 34L2 34L2 35L1 35L1 36L0 36L0 38L1 38L1 39L0 39L0 40L1 40L1 41L0 41L0 42L1 42L1 41L3 41L3 40L1 40L1 39L3 39L3 38L4 38L4 41L5 41L5 42L6 42L6 43L5 43L5 45L4 45L4 43L3 43L3 42L2 42L2 45L1 45L1 43L0 43L0 48L5 48L5 47L7 47L7 46L5 46L5 45L8 45L8 43L7 43L7 42L8 42L8 41L11 41L11 40L12 40L12 39L13 39L13 36L12 36L12 35L13 35L13 34L12 34L12 35L11 35L11 38L10 38L10 37L9 37L9 36L10 36L10 34L11 34L11 33L12 33L12 32L13 32L13 33L17 33L17 32L16 32L16 30L15 30L15 29L18 29L18 31L19 31L19 32L18 32L18 33L19 33L19 34L18 34L18 35L16 35L16 34L15 34L15 36L14 36L14 37L15 37L15 38L14 38L14 39L15 39L15 41L16 41L16 39L15 39L15 38L16 38L16 37L15 37L15 36L17 36L17 37L19 37L19 38L20 38L20 39L17 39L17 41L18 41L18 43L15 43L15 42L14 42L14 43L13 43L13 42L10 42L10 43L9 43L9 46L10 46L10 47L8 47L8 48L10 48L10 49L8 49L8 51L9 51L9 52L8 52L8 57L9 57L9 54L10 54L10 55L11 55L11 57L14 57L14 56L13 56L13 54L14 54L14 52L15 52L15 53L16 53L16 54L15 54L15 55L16 55L16 56L15 56L15 57L22 57L22 55L23 55L23 56L24 56L24 55L23 55L23 54L24 54L24 53L25 53L25 54L26 54L26 55L27 55L27 56L28 56L28 55L27 55L27 53L28 53L28 54L29 54L29 53L30 53L30 54L31 54L31 55L29 55L29 57L30 57L30 56L31 56L31 57L32 57L32 56L33 56L33 57L39 57L39 55L40 55L40 56L41 56L41 57L42 57L42 56L47 56L47 57L48 57L48 56L50 56L50 57L52 57L52 56L54 56L54 57L56 57L56 56L55 56L55 55L54 55L54 54L55 54L55 53L53 53L53 52L55 52L55 51L54 51L54 50L55 50L55 49L54 49L54 48L55 48L55 47L54 47L54 48L51 48L51 47L50 47L50 45L49 45L49 44L51 44L51 43L52 43L52 45L51 45L51 46L52 46L52 45L54 45L54 46L55 46L55 45L54 45L54 44L56 44L56 42L55 42L55 41L54 41L54 40L55 40L55 39L57 39L57 37L54 37L54 40L53 40L53 38L52 38L52 40L51 40L51 39L50 39L50 37L51 37L51 35L50 35L50 32L51 32L51 33L54 33L54 32L55 32L55 34L52 34L52 36L55 36L55 34L57 34L57 32L55 32L55 29L54 29L54 28L55 28L55 27L53 27L53 25L54 25L54 26L57 26L57 25L56 25L56 24L57 24L57 23L56 23L56 22L57 22L57 19L56 19L56 21L53 21L53 23L52 23L52 22L50 22L50 17L52 17L52 18L53 18L53 19L52 19L52 20L55 20L55 19L54 19L54 18L55 18L55 17L54 17L54 16L55 16L55 15L56 15L56 16L57 16L57 15L56 15L56 14L57 14L57 13L54 13L54 14L55 14L55 15L54 15L54 16L53 16L53 15L52 15L52 16L50 16L50 15L51 15L51 14L52 14L52 13L51 13L51 14L50 14L50 13L47 13L47 14L46 14L46 12L45 12L45 14L44 14L44 12L43 12L43 11L42 11L42 10L43 10L43 9L44 9L44 10L45 10L45 11L46 11L46 10L45 10L45 9L47 9L47 11L48 11L48 12L50 12L50 11L51 11L51 10L53 10L53 11L52 11L52 12L53 12L53 11L54 11L54 12L55 12L55 11L56 11L56 12L57 12L57 11L56 11L56 10L57 10L57 9L56 9L56 8L55 8L55 11L54 11L54 10L53 10L53 9L54 9L54 8L53 8L53 9L52 9L52 8L51 8L51 10L49 10L49 9L50 9L50 8L49 8L49 9L47 9L47 5L48 5L48 0L46 0L46 1L45 1L45 2L44 2L44 1L43 1L43 0L41 0L41 1L43 1L43 2L42 2L42 3L41 3L41 2L39 2L39 1L40 1L40 0L39 0L39 1L36 1L36 2L39 2L39 3L36 3L36 5L35 5L35 6L34 6L34 5L33 5L33 6L32 6L32 8L31 8L31 4L32 4L32 3L33 3L33 4L35 4L35 1L34 1L34 0L33 0L33 1L34 1L34 2L32 2L32 0L30 0L30 1L28 1L28 0L27 0L27 1L28 1L28 3L27 3L27 4L26 4L26 3L25 3L25 2L24 2L24 1L26 1L26 0L24 0L24 1L23 1L23 0ZM8 1L8 2L9 2L9 3L8 3L8 4L9 4L9 3L12 3L12 4L13 4L13 3L12 3L12 2L13 2L13 1L11 1L11 2L10 2L10 1ZM30 1L30 4L31 4L31 1ZM46 1L46 2L47 2L47 1ZM28 3L28 4L29 4L29 3ZM40 3L40 6L39 6L39 4L38 4L38 6L37 6L37 5L36 5L36 6L35 6L35 8L34 8L34 9L33 9L33 8L32 8L32 10L31 10L31 12L30 12L30 13L29 13L29 12L28 12L28 13L25 13L25 12L27 12L27 11L26 11L26 10L28 10L28 11L30 11L30 10L29 10L29 9L25 9L25 8L26 8L26 4L25 4L25 8L24 8L24 6L23 6L23 5L24 5L24 4L23 4L23 5L22 5L22 4L21 4L21 5L22 5L22 6L21 6L21 8L19 8L19 7L20 7L20 5L19 5L19 4L18 4L18 5L19 5L19 7L18 7L18 6L17 6L17 7L16 7L16 8L19 8L19 9L20 9L20 10L19 10L19 13L20 13L20 14L19 14L19 15L20 15L20 16L19 16L19 17L18 17L18 15L16 15L16 14L17 14L17 13L18 13L18 12L17 12L17 11L18 11L18 9L16 9L16 10L15 10L15 11L16 11L16 12L17 12L17 13L13 13L13 14L11 14L11 13L10 13L10 14L11 14L11 15L13 15L13 16L12 16L12 17L13 17L13 18L10 18L10 16L8 16L8 15L6 15L6 16L7 16L7 17L5 17L5 18L2 18L2 19L4 19L4 21L3 21L3 22L4 22L4 23L6 23L6 24L9 24L9 26L11 26L11 27L9 27L9 29L11 29L11 27L12 27L12 28L14 28L14 29L15 29L15 28L18 28L18 29L20 29L20 32L19 32L19 33L20 33L20 36L19 36L19 35L18 35L18 36L19 36L19 37L23 37L23 38L24 38L24 37L23 37L23 33L24 33L24 32L22 32L22 31L24 31L24 30L23 30L23 29L25 29L25 30L26 30L26 27L25 27L25 28L23 28L23 27L24 27L24 26L22 26L22 25L24 25L24 24L25 24L25 26L26 26L26 25L27 25L27 26L28 26L28 25L31 25L31 28L32 28L32 29L33 29L33 30L31 30L31 32L30 32L30 31L28 31L28 32L30 32L30 33L31 33L31 35L30 35L30 34L29 34L29 33L26 33L26 32L27 32L27 31L25 31L25 34L24 34L24 36L26 36L26 35L27 35L27 36L28 36L28 38L27 38L27 37L25 37L25 38L26 38L26 39L25 39L25 40L24 40L24 39L22 39L22 40L21 40L21 41L20 41L20 43L19 43L19 45L20 45L20 46L21 46L21 47L19 47L19 46L18 46L18 47L16 47L16 46L17 46L17 45L18 45L18 44L17 44L17 45L16 45L16 44L15 44L15 45L16 45L16 46L14 46L14 45L13 45L13 46L12 46L12 43L10 43L10 44L11 44L11 47L10 47L10 48L11 48L11 47L12 47L12 48L13 48L13 46L14 46L14 50L19 50L19 49L20 49L20 50L21 50L21 51L22 51L22 53L21 53L21 52L20 52L20 51L19 51L19 52L20 52L20 53L18 53L18 51L16 51L16 53L18 53L18 54L17 54L17 55L18 55L18 54L20 54L20 55L19 55L19 56L21 56L21 55L22 55L22 53L24 53L24 51L25 51L25 53L26 53L26 49L25 49L25 50L24 50L24 51L23 51L23 49L24 49L24 48L26 48L26 46L27 46L27 48L30 48L30 47L28 47L28 46L31 46L31 47L33 47L33 48L31 48L31 52L32 52L32 54L33 54L33 55L34 55L34 54L36 54L36 53L34 53L34 54L33 54L33 52L32 52L32 51L34 51L34 52L36 52L36 51L34 51L34 50L35 50L35 49L36 49L36 48L37 48L37 49L38 49L38 50L37 50L37 52L40 52L40 55L41 55L41 52L40 52L40 51L41 51L41 50L42 50L42 51L43 51L43 50L44 50L44 53L43 53L43 52L42 52L42 53L43 53L43 55L48 55L48 54L49 54L49 55L50 55L50 56L51 56L51 55L53 55L53 54L51 54L51 53L48 53L48 52L47 52L47 51L48 51L48 48L50 48L50 47L49 47L49 45L48 45L48 44L47 44L47 45L46 45L46 46L47 46L47 47L45 47L45 43L49 43L49 41L51 41L51 42L50 42L50 43L51 43L51 42L53 42L53 43L54 43L54 41L51 41L51 40L50 40L50 39L49 39L49 40L47 40L47 38L48 38L48 37L50 37L50 36L46 36L46 35L45 35L45 34L47 34L47 33L48 33L48 35L49 35L49 32L50 32L50 31L48 31L48 29L46 29L46 30L42 30L42 29L43 29L43 28L44 28L44 29L45 29L45 26L46 26L46 28L48 28L48 25L50 25L50 26L51 26L51 25L53 25L53 24L51 24L51 23L50 23L50 22L48 22L48 21L49 21L49 20L48 20L48 19L46 19L46 18L47 18L47 17L49 17L49 15L45 15L45 16L44 16L44 14L42 14L42 11L41 11L41 8L39 8L39 9L38 9L38 8L37 8L37 7L38 7L38 6L39 6L39 7L40 7L40 6L41 6L41 7L42 7L42 5L41 5L41 3ZM43 3L43 8L42 8L42 9L43 9L43 8L44 8L44 9L45 9L45 8L44 8L44 6L45 6L45 7L46 7L46 6L45 6L45 5L47 5L47 3L46 3L46 4L45 4L45 3ZM44 4L44 5L45 5L45 4ZM8 5L8 7L9 7L9 6L10 6L10 7L11 7L11 8L13 8L13 6L12 6L12 5ZM27 5L27 8L30 8L30 5ZM11 6L11 7L12 7L12 6ZM22 6L22 7L23 7L23 6ZM28 6L28 7L29 7L29 6ZM33 6L33 7L34 7L34 6ZM36 6L36 7L37 7L37 6ZM48 6L48 7L49 7L49 6ZM23 8L23 10L22 10L22 9L21 9L21 10L20 10L20 11L21 11L21 12L20 12L20 13L21 13L21 16L22 16L22 13L23 13L23 20L24 20L24 21L21 21L21 25L22 25L22 23L23 23L23 24L24 24L24 23L23 23L23 22L24 22L24 21L25 21L25 22L26 22L26 23L25 23L25 24L27 24L27 25L28 25L28 24L31 24L31 25L32 25L32 24L33 24L33 23L34 23L34 24L36 24L36 25L37 25L37 26L36 26L36 27L35 27L35 26L32 26L32 27L34 27L34 28L33 28L33 29L37 29L37 30L36 30L36 31L35 31L35 30L33 30L33 31L32 31L32 32L31 32L31 33L32 33L32 32L34 32L34 33L35 33L35 32L36 32L36 34L37 34L37 36L36 36L36 37L35 37L35 39L34 39L34 40L33 40L33 39L31 39L31 38L32 38L32 35L31 35L31 38L30 38L30 36L29 36L29 39L28 39L28 40L27 40L27 39L26 39L26 40L27 40L27 41L26 41L26 42L27 42L27 43L26 43L26 44L25 44L25 45L24 45L24 44L23 44L23 43L24 43L24 42L25 42L25 41L24 41L24 40L23 40L23 41L21 41L21 42L22 42L22 43L20 43L20 45L21 45L21 46L22 46L22 48L23 48L23 46L22 46L22 45L24 45L24 47L25 47L25 45L26 45L26 44L27 44L27 43L29 43L29 44L28 44L28 45L27 45L27 46L28 46L28 45L30 45L30 43L31 43L31 45L32 45L32 46L33 46L33 47L35 47L35 48L36 48L36 47L37 47L37 46L38 46L38 45L39 45L39 46L41 46L41 47L38 47L38 48L41 48L41 47L42 47L42 48L43 48L43 49L42 49L42 50L43 50L43 49L44 49L44 48L45 48L45 47L44 47L44 44L43 44L43 43L44 43L44 42L45 42L45 41L46 41L46 40L45 40L45 41L44 41L44 39L43 39L43 37L44 37L44 38L45 38L45 39L46 39L46 38L45 38L45 37L44 37L44 35L43 35L43 37L41 37L41 38L42 38L42 39L41 39L41 41L39 41L39 42L38 42L38 43L39 43L39 44L38 44L38 45L37 45L37 44L36 44L36 43L37 43L37 42L35 42L35 46L33 46L33 45L32 45L32 44L34 44L34 43L33 43L33 42L32 42L32 43L31 43L31 40L33 40L33 41L34 41L34 40L36 40L36 41L37 41L37 40L40 40L40 39L37 39L37 38L38 38L38 37L39 37L39 38L40 38L40 36L42 36L42 34L44 34L44 33L42 33L42 32L46 32L46 33L47 33L47 32L48 32L48 31L47 31L47 30L46 30L46 31L42 31L42 30L41 30L41 29L40 29L40 30L41 30L41 31L40 31L40 32L38 32L38 31L37 31L37 30L38 30L38 28L37 28L37 27L38 27L38 25L39 25L39 27L41 27L41 26L42 26L42 28L43 28L43 25L44 25L44 26L45 26L45 25L44 25L44 24L46 24L46 22L45 22L45 21L48 21L48 20L46 20L46 19L43 19L43 20L41 20L41 19L40 19L40 18L46 18L46 17L47 17L47 16L45 16L45 17L44 17L44 16L43 16L43 15L42 15L42 14L40 14L40 13L39 13L39 14L37 14L37 13L38 13L38 12L39 12L39 11L40 11L40 10L39 10L39 11L38 11L38 9L37 9L37 8L35 8L35 9L36 9L36 10L35 10L35 11L37 11L37 12L34 12L34 10L33 10L33 13L32 13L32 12L31 12L31 13L30 13L30 14L29 14L29 13L28 13L28 14L27 14L27 16L26 16L26 14L25 14L25 13L23 13L23 12L24 12L24 11L25 11L25 9L24 9L24 8ZM21 10L21 11L22 11L22 10ZM23 10L23 11L24 11L24 10ZM48 10L48 11L49 11L49 10ZM13 11L13 12L14 12L14 11ZM0 12L0 13L1 13L1 14L2 14L2 13L4 13L4 12L2 12L2 13L1 13L1 12ZM21 12L21 13L22 13L22 12ZM6 13L6 14L7 14L7 13ZM31 13L31 14L30 14L30 15L28 15L28 16L27 16L27 17L26 17L26 16L25 16L25 17L26 17L26 18L25 18L25 19L26 19L26 20L25 20L25 21L26 21L26 20L27 20L27 21L28 21L28 22L27 22L27 24L28 24L28 23L31 23L31 22L29 22L29 21L31 21L31 20L27 20L27 19L28 19L28 18L27 18L27 17L28 17L28 16L29 16L29 17L33 17L33 18L29 18L29 19L33 19L33 20L32 20L32 21L33 21L33 22L35 22L35 23L36 23L36 24L37 24L37 25L38 25L38 24L39 24L39 25L42 25L42 24L44 24L44 21L45 21L45 20L43 20L43 22L40 22L40 23L38 23L38 22L39 22L39 21L38 21L38 22L37 22L37 21L36 21L36 20L40 20L40 21L41 21L41 20L40 20L40 19L35 19L35 21L33 21L33 20L34 20L34 19L33 19L33 18L36 18L36 16L39 16L39 17L37 17L37 18L40 18L40 17L41 17L41 16L39 16L39 15L37 15L37 14L36 14L36 13L33 13L33 14L32 14L32 13ZM31 14L31 15L30 15L30 16L34 16L34 17L35 17L35 16L36 16L36 15L35 15L35 14L33 14L33 15L32 15L32 14ZM15 15L15 16L16 16L16 17L17 17L17 16L16 16L16 15ZM34 15L34 16L35 16L35 15ZM13 16L13 17L14 17L14 18L15 18L15 17L14 17L14 16ZM52 16L52 17L53 17L53 18L54 18L54 17L53 17L53 16ZM8 17L8 19L7 19L7 18L5 18L5 20L6 20L6 21L7 21L7 20L9 20L9 17ZM19 17L19 18L20 18L20 17ZM21 17L21 18L22 18L22 17ZM56 17L56 18L57 18L57 17ZM6 19L6 20L7 20L7 19ZM11 19L11 20L10 20L10 21L11 21L11 22L9 22L9 21L8 21L8 22L6 22L6 23L8 23L8 22L9 22L9 24L10 24L10 23L11 23L11 25L12 25L12 27L13 27L13 24L14 24L14 25L16 25L16 24L18 24L18 25L17 25L17 27L18 27L18 25L19 25L19 26L20 26L20 24L18 24L18 23L20 23L20 22L18 22L18 21L20 21L20 20L21 20L21 19L17 19L17 20L18 20L18 21L16 21L16 19L15 19L15 21L16 21L16 22L14 22L14 21L12 21L12 20L14 20L14 19ZM11 22L11 23L14 23L14 24L16 24L16 23L14 23L14 22ZM17 22L17 23L18 23L18 22ZM36 22L36 23L37 23L37 24L38 24L38 23L37 23L37 22ZM2 23L2 24L3 24L3 25L4 25L4 26L5 26L5 24L3 24L3 23ZM48 23L48 24L47 24L47 25L48 25L48 24L49 24L49 23ZM50 24L50 25L51 25L51 24ZM6 25L6 26L7 26L7 25ZM14 26L14 27L15 27L15 26ZM21 26L21 27L20 27L20 29L22 29L22 28L21 28L21 27L22 27L22 26ZM5 27L5 30L8 30L8 27ZM27 27L27 30L30 30L30 27ZM49 27L49 30L52 30L52 27ZM56 27L56 30L57 30L57 27ZM2 28L2 29L3 29L3 28ZM6 28L6 29L7 29L7 28ZM28 28L28 29L29 29L29 28ZM50 28L50 29L51 29L51 28ZM53 29L53 30L54 30L54 29ZM9 30L9 31L4 31L4 32L3 32L3 35L6 35L6 36L9 36L9 33L8 33L8 35L6 35L6 34L7 34L7 33L6 33L6 34L4 34L4 33L5 33L5 32L9 32L9 31L10 31L10 33L11 33L11 32L12 32L12 31L13 31L13 32L14 32L14 31L15 31L15 30L12 30L12 31L10 31L10 30ZM21 30L21 31L22 31L22 30ZM34 31L34 32L35 32L35 31ZM36 31L36 32L37 32L37 31ZM41 31L41 32L40 32L40 33L37 33L37 34L40 34L40 35L38 35L38 36L40 36L40 35L41 35L41 34L42 34L42 33L41 33L41 32L42 32L42 31ZM46 31L46 32L47 32L47 31ZM52 31L52 32L54 32L54 31ZM21 33L21 34L22 34L22 33ZM25 34L25 35L26 35L26 34ZM33 34L33 36L34 36L34 35L35 35L35 34ZM56 35L56 36L57 36L57 35ZM2 36L2 38L3 38L3 37L4 37L4 38L5 38L5 41L6 41L6 42L7 42L7 41L6 41L6 40L8 40L8 38L9 38L9 37L6 37L6 38L5 38L5 37L4 37L4 36ZM6 38L6 39L7 39L7 38ZM9 39L9 40L10 40L10 39ZM29 39L29 40L28 40L28 41L27 41L27 42L29 42L29 43L30 43L30 42L29 42L29 40L31 40L31 39ZM36 39L36 40L37 40L37 39ZM42 39L42 40L43 40L43 39ZM41 42L41 43L40 43L40 44L39 44L39 45L41 45L41 46L42 46L42 47L43 47L43 48L44 48L44 47L43 47L43 46L42 46L42 45L43 45L43 44L41 44L41 43L42 43L42 42ZM6 43L6 44L7 44L7 43ZM21 44L21 45L22 45L22 44ZM2 45L2 46L1 46L1 47L2 47L2 46L3 46L3 47L5 47L5 46L3 46L3 45ZM47 45L47 46L48 46L48 45ZM56 45L56 46L57 46L57 45ZM35 46L35 47L36 47L36 46ZM18 47L18 49L19 49L19 47ZM56 47L56 48L57 48L57 47ZM6 48L6 49L7 49L7 48ZM15 48L15 49L17 49L17 48ZM33 48L33 49L32 49L32 50L34 50L34 48ZM10 49L10 50L9 50L9 51L10 51L10 52L9 52L9 53L11 53L11 54L13 54L13 49ZM21 49L21 50L22 50L22 49ZM27 49L27 52L30 52L30 49ZM39 49L39 50L38 50L38 51L39 51L39 50L41 50L41 49ZM45 49L45 50L46 50L46 51L47 51L47 50L46 50L46 49ZM49 49L49 52L52 52L52 49ZM56 49L56 50L57 50L57 49ZM10 50L10 51L12 51L12 50ZM28 50L28 51L29 51L29 50ZM50 50L50 51L51 51L51 50ZM56 52L56 53L57 53L57 52ZM38 53L38 54L37 54L37 55L38 55L38 54L39 54L39 53ZM44 53L44 54L45 54L45 53ZM47 53L47 54L48 54L48 53ZM50 54L50 55L51 55L51 54ZM31 55L31 56L32 56L32 55ZM35 55L35 56L36 56L36 55ZM25 56L25 57L26 57L26 56ZM0 0L0 7L7 7L7 0ZM1 1L1 6L6 6L6 1ZM2 2L2 5L5 5L5 2ZM50 0L50 7L57 7L57 0ZM51 1L51 6L56 6L56 1ZM52 2L52 5L55 5L55 2ZM0 50L0 57L7 57L7 50ZM1 51L1 56L6 56L6 51ZM2 52L2 55L5 55L5 52Z" fill="#000000"/></g></g></svg>
