<?xml version="1.0" encoding="UTF-8"?>
<svg xmlns="http://www.w3.org/2000/svg" version="1.1" width="300" height="300" viewBox="0 0 300 300"><rect x="0" y="0" width="300" height="300" fill="#ffffff"/><g transform="scale(4.918)"><g transform="translate(2,2)"><path fill-rule="evenodd" d="M12 0L12 1L8 1L8 2L12 2L12 1L13 1L13 4L14 4L14 8L12 8L12 7L13 7L13 6L12 6L12 7L11 7L11 3L8 3L8 4L9 4L9 5L8 5L8 7L9 7L9 8L6 8L6 9L5 9L5 8L0 8L0 12L3 12L3 11L2 11L2 10L3 10L3 9L4 9L4 10L6 10L6 11L4 11L4 13L3 13L3 14L2 14L2 13L0 13L0 21L1 21L1 22L0 22L0 26L1 26L1 27L0 27L0 30L1 30L1 29L2 29L2 30L3 30L3 32L2 32L2 31L0 31L0 33L2 33L2 34L1 34L1 36L2 36L2 37L3 37L3 36L4 36L4 35L5 35L5 36L6 36L6 37L7 37L7 36L8 36L8 35L9 35L9 34L10 34L10 35L12 35L12 34L11 34L11 32L12 32L12 33L13 33L13 31L12 31L12 30L11 30L11 29L12 29L12 26L13 26L13 27L14 27L14 28L13 28L13 29L14 29L14 28L15 28L15 29L18 29L18 30L20 30L20 31L18 31L18 33L19 33L19 34L18 34L18 35L19 35L19 34L20 34L20 35L21 35L21 36L22 36L22 35L21 35L21 34L23 34L23 35L25 35L25 36L23 36L23 37L19 37L19 36L18 36L18 37L19 37L19 38L17 38L17 41L18 41L18 43L13 43L13 42L14 42L14 41L15 41L15 40L16 40L16 39L15 39L15 38L16 38L16 37L14 37L14 34L13 34L13 37L12 37L12 36L9 36L9 37L8 37L8 39L7 39L7 38L6 38L6 39L7 39L7 40L5 40L5 41L7 41L7 42L4 42L4 44L1 44L1 46L0 46L0 48L5 48L5 47L8 47L8 51L9 51L9 49L10 49L10 51L11 51L11 50L12 50L12 52L11 52L11 56L15 56L15 57L22 57L22 55L23 55L23 56L24 56L24 57L26 57L26 56L24 56L24 55L23 55L23 54L24 54L24 53L25 53L25 54L26 54L26 55L27 55L27 56L28 56L28 55L27 55L27 53L28 53L28 54L30 54L30 53L31 53L31 56L30 56L30 55L29 55L29 56L30 56L30 57L31 57L31 56L35 56L35 57L38 57L38 56L36 56L36 55L37 55L37 54L38 54L38 55L40 55L40 56L41 56L41 55L42 55L42 54L43 54L43 53L44 53L44 54L45 54L45 53L44 53L44 50L46 50L46 51L45 51L45 52L46 52L46 51L47 51L47 52L48 52L48 53L47 53L47 55L44 55L44 56L43 56L43 57L44 57L44 56L45 56L45 57L47 57L47 55L48 55L48 56L49 56L49 57L50 57L50 53L51 53L51 54L54 54L54 56L55 56L55 57L56 57L56 56L55 56L55 54L54 54L54 53L53 53L53 51L54 51L54 52L55 52L55 53L56 53L56 50L57 50L57 47L56 47L56 46L57 46L57 43L56 43L56 42L57 42L57 41L56 41L56 42L55 42L55 39L57 39L57 37L56 37L56 36L57 36L57 35L56 35L56 34L57 34L57 33L56 33L56 34L55 34L55 33L54 33L54 34L55 34L55 35L53 35L53 34L52 34L52 36L50 36L50 38L49 38L49 36L48 36L48 38L47 38L47 39L49 39L49 40L51 40L51 39L50 39L50 38L51 38L51 37L53 37L53 38L52 38L52 41L49 41L49 42L48 42L48 43L46 43L46 42L45 42L45 47L44 47L44 46L43 46L43 45L44 45L44 43L42 43L42 42L44 42L44 40L45 40L45 39L46 39L46 38L45 38L45 37L44 37L44 34L43 34L43 33L44 33L44 32L45 32L45 34L46 34L46 35L45 35L45 36L46 36L46 37L47 37L47 36L46 36L46 35L50 35L50 33L53 33L53 32L56 32L56 30L57 30L57 29L56 29L56 28L55 28L55 27L56 27L56 26L57 26L57 25L56 25L56 26L55 26L55 25L54 25L54 24L57 24L57 23L56 23L56 22L57 22L57 21L54 21L54 20L55 20L55 18L57 18L57 17L56 17L56 16L55 16L55 15L56 15L56 14L57 14L57 11L56 11L56 10L57 10L57 9L56 9L56 8L55 8L55 9L56 9L56 10L55 10L55 11L54 11L54 10L53 10L53 11L52 11L52 10L49 10L49 9L50 9L50 8L49 8L49 9L48 9L48 8L47 8L47 5L48 5L48 0L44 0L44 1L47 1L47 2L42 2L42 1L43 1L43 0L42 0L42 1L41 1L41 0L40 0L40 1L38 1L38 0L37 0L37 1L36 1L36 0L35 0L35 1L34 1L34 0L33 0L33 1L34 1L34 2L32 2L32 0L30 0L30 1L29 1L29 0L28 0L28 1L26 1L26 0L21 0L21 4L19 4L19 3L17 3L17 4L19 4L19 5L17 5L17 6L16 6L16 7L15 7L15 5L16 5L16 4L14 4L14 3L16 3L16 0ZM17 0L17 2L20 2L20 0L19 0L19 1L18 1L18 0ZM14 1L14 2L15 2L15 1ZM22 1L22 2L23 2L23 3L22 3L22 4L21 4L21 5L22 5L22 4L23 4L23 5L24 5L24 4L23 4L23 3L26 3L26 4L25 4L25 8L26 8L26 4L29 4L29 3L27 3L27 2L23 2L23 1ZM28 1L28 2L29 2L29 1ZM30 1L30 2L31 2L31 1ZM37 1L37 2L35 2L35 4L33 4L33 3L32 3L32 4L31 4L31 3L30 3L30 4L31 4L31 9L32 9L32 10L33 10L33 11L34 11L34 12L35 12L35 11L36 11L36 10L37 10L37 9L38 9L38 11L39 11L39 10L40 10L40 12L38 12L38 13L37 13L37 14L36 14L36 13L33 13L33 12L32 12L32 11L31 11L31 10L28 10L28 11L30 11L30 12L28 12L28 13L25 13L25 12L27 12L27 11L26 11L26 10L27 10L27 9L25 9L25 10L23 10L23 8L24 8L24 6L23 6L23 7L22 7L22 6L21 6L21 9L20 9L20 10L21 10L21 11L22 11L22 10L23 10L23 13L22 13L22 12L21 12L21 13L20 13L20 12L19 12L19 13L20 13L20 14L19 14L19 15L18 15L18 14L17 14L17 13L18 13L18 12L17 12L17 13L12 13L12 14L11 14L11 13L10 13L10 11L11 11L11 12L14 12L14 11L13 11L13 10L15 10L15 12L16 12L16 11L18 11L18 9L15 9L15 8L14 8L14 9L13 9L13 10L12 10L12 8L11 8L11 10L10 10L10 9L9 9L9 10L10 10L10 11L8 11L8 10L7 10L7 9L6 9L6 10L7 10L7 11L6 11L6 12L5 12L5 13L6 13L6 14L7 14L7 15L4 15L4 14L3 14L3 15L2 15L2 14L1 14L1 16L2 16L2 17L3 17L3 20L2 20L2 19L1 19L1 21L4 21L4 20L5 20L5 22L7 22L7 23L4 23L4 24L3 24L3 22L2 22L2 25L1 25L1 26L2 26L2 25L3 25L3 26L7 26L7 25L4 25L4 24L8 24L8 25L10 25L10 29L9 29L9 30L10 30L10 31L9 31L9 33L10 33L10 32L11 32L11 30L10 30L10 29L11 29L11 26L12 26L12 25L14 25L14 27L15 27L15 28L18 28L18 29L20 29L20 30L24 30L24 29L25 29L25 30L26 30L26 27L25 27L25 28L24 28L24 26L22 26L22 27L21 27L21 25L23 25L23 23L24 23L24 24L25 24L25 26L26 26L26 25L27 25L27 24L28 24L28 26L29 26L29 25L31 25L31 28L32 28L32 29L31 29L31 30L35 30L35 31L33 31L33 32L31 32L31 31L25 31L25 32L24 32L24 31L20 31L20 32L19 32L19 33L20 33L20 34L21 34L21 33L20 33L20 32L22 32L22 33L25 33L25 34L26 34L26 35L27 35L27 36L25 36L25 38L27 38L27 39L28 39L28 40L29 40L29 41L27 41L27 40L26 40L26 39L25 39L25 40L24 40L24 39L23 39L23 40L20 40L20 43L19 43L19 44L20 44L20 43L22 43L22 42L23 42L23 43L24 43L24 42L23 42L23 40L24 40L24 41L25 41L25 44L23 44L23 45L22 45L22 44L21 44L21 45L19 45L19 46L21 46L21 45L22 45L22 47L23 47L23 48L22 48L22 49L25 49L25 51L23 51L23 50L21 50L21 49L20 49L20 48L21 48L21 47L18 47L18 46L17 46L17 45L18 45L18 44L17 44L17 45L16 45L16 44L15 44L15 46L14 46L14 45L13 45L13 44L12 44L12 43L10 43L10 42L12 42L12 41L14 41L14 40L15 40L15 39L14 39L14 40L13 40L13 39L12 39L12 40L11 40L11 41L10 41L10 40L9 40L9 39L8 39L8 41L9 41L9 42L8 42L8 43L5 43L5 44L4 44L4 45L2 45L2 46L1 46L1 47L2 47L2 46L3 46L3 47L5 47L5 46L8 46L8 47L9 47L9 45L10 45L10 49L12 49L12 48L13 48L13 50L14 50L14 53L13 53L13 52L12 52L12 53L13 53L13 54L14 54L14 53L15 53L15 54L16 54L16 53L17 53L17 54L18 54L18 55L19 55L19 56L21 56L21 53L24 53L24 52L25 52L25 53L26 53L26 48L27 48L27 47L28 47L28 48L31 48L31 49L32 49L32 51L31 51L31 52L32 52L32 54L33 54L33 55L34 55L34 54L37 54L37 53L38 53L38 54L39 54L39 53L38 53L38 51L36 51L36 52L35 52L35 53L33 53L33 52L32 52L32 51L33 51L33 50L39 50L39 52L40 52L40 55L41 55L41 54L42 54L42 53L43 53L43 50L44 50L44 49L46 49L46 50L47 50L47 51L48 51L48 48L50 48L50 47L51 47L51 46L52 46L52 47L53 47L53 48L54 48L54 49L55 49L55 50L56 50L56 49L55 49L55 48L56 48L56 47L55 47L55 48L54 48L54 46L53 46L53 45L51 45L51 44L49 44L49 43L48 43L48 44L47 44L47 45L46 45L46 46L47 46L47 47L45 47L45 48L44 48L44 47L43 47L43 46L42 46L42 45L43 45L43 44L39 44L39 43L38 43L38 42L39 42L39 41L40 41L40 42L41 42L41 40L39 40L39 41L38 41L38 42L37 42L37 41L36 41L36 40L38 40L38 38L40 38L40 39L45 39L45 38L44 38L44 37L43 37L43 36L42 36L42 37L43 37L43 38L41 38L41 36L40 36L40 35L41 35L41 34L42 34L42 35L43 35L43 34L42 34L42 33L43 33L43 32L44 32L44 31L43 31L43 30L45 30L45 32L46 32L46 34L47 34L47 33L48 33L48 34L49 34L49 31L48 31L48 28L47 28L47 27L48 27L48 25L49 25L49 26L52 26L52 25L53 25L53 27L55 27L55 26L54 26L54 25L53 25L53 24L51 24L51 23L50 23L50 22L51 22L51 19L52 19L52 18L51 18L51 17L53 17L53 16L54 16L54 17L55 17L55 16L54 16L54 15L55 15L55 14L54 14L54 13L56 13L56 11L55 11L55 12L54 12L54 11L53 11L53 12L52 12L52 11L47 11L47 10L48 10L48 9L47 9L47 8L46 8L46 5L47 5L47 3L43 3L43 5L42 5L42 6L41 6L41 8L40 8L40 6L39 6L39 2L38 2L38 1ZM40 1L40 2L41 2L41 3L40 3L40 5L41 5L41 3L42 3L42 2L41 2L41 1ZM37 2L37 3L36 3L36 5L35 5L35 6L34 6L34 5L33 5L33 6L32 6L32 7L33 7L33 6L34 6L34 9L37 9L37 8L38 8L38 9L40 9L40 10L42 10L42 14L41 14L41 13L39 13L39 14L37 14L37 16L36 16L36 14L33 14L33 13L32 13L32 12L31 12L31 14L30 14L30 13L28 13L28 14L27 14L27 16L26 16L26 14L25 14L25 13L23 13L23 14L22 14L22 13L21 13L21 15L24 15L24 16L26 16L26 17L21 17L21 16L20 16L20 15L19 15L19 16L18 16L18 15L15 15L15 14L14 14L14 15L15 15L15 16L16 16L16 17L15 17L15 21L16 21L16 22L14 22L14 21L13 21L13 20L14 20L14 19L13 19L13 20L10 20L10 19L9 19L9 17L10 17L10 18L14 18L14 16L13 16L13 15L12 15L12 17L11 17L11 14L10 14L10 16L9 16L9 15L7 15L7 16L3 16L3 17L4 17L4 18L5 18L5 20L6 20L6 21L7 21L7 22L8 22L8 21L7 21L7 20L6 20L6 19L7 19L7 18L8 18L8 20L10 20L10 21L9 21L9 23L10 23L10 24L11 24L11 23L13 23L13 24L15 24L15 25L16 25L16 24L17 24L17 25L19 25L19 23L20 23L20 22L19 22L19 23L17 23L17 21L16 21L16 20L18 20L18 21L20 21L20 20L21 20L21 21L22 21L22 22L24 22L24 21L25 21L25 22L26 22L26 23L25 23L25 24L27 24L27 23L28 23L28 24L29 24L29 22L31 22L31 23L30 23L30 24L31 24L31 25L32 25L32 26L33 26L33 25L32 25L32 24L34 24L34 23L35 23L35 24L36 24L36 25L35 25L35 26L36 26L36 28L35 28L35 27L34 27L34 28L33 28L33 27L32 27L32 28L33 28L33 29L35 29L35 30L36 30L36 29L38 29L38 28L41 28L41 27L42 27L42 28L43 28L43 27L42 27L42 26L45 26L45 27L44 27L44 28L45 28L45 30L46 30L46 31L47 31L47 32L48 32L48 31L47 31L47 30L46 30L46 29L47 29L47 28L46 28L46 26L45 26L45 25L41 25L41 26L38 26L38 25L39 25L39 24L41 24L41 23L42 23L42 24L47 24L47 25L48 25L48 24L49 24L49 25L50 25L50 24L49 24L49 23L48 23L48 22L50 22L50 17L51 17L51 16L53 16L53 15L54 15L54 14L53 14L53 15L51 15L51 16L50 16L50 15L49 15L49 14L50 14L50 13L51 13L51 14L52 14L52 13L51 13L51 12L50 12L50 13L47 13L47 14L46 14L46 12L45 12L45 11L46 11L46 10L44 10L44 8L45 8L45 9L46 9L46 8L45 8L45 6L44 6L44 8L43 8L43 6L42 6L42 8L43 8L43 9L40 9L40 8L38 8L38 7L39 7L39 6L38 6L38 7L37 7L37 6L36 6L36 5L38 5L38 2ZM44 4L44 5L46 5L46 4ZM9 5L9 7L10 7L10 5ZM19 5L19 7L18 7L18 6L17 6L17 7L16 7L16 8L17 8L17 7L18 7L18 8L19 8L19 7L20 7L20 5ZM27 5L27 8L30 8L30 5ZM28 6L28 7L29 7L29 6ZM35 6L35 8L37 8L37 7L36 7L36 6ZM48 6L48 7L49 7L49 6ZM51 8L51 9L52 9L52 8ZM53 8L53 9L54 9L54 8ZM1 9L1 10L2 10L2 9ZM21 9L21 10L22 10L22 9ZM11 10L11 11L12 11L12 10ZM43 10L43 11L44 11L44 10ZM7 11L7 12L6 12L6 13L9 13L9 12L8 12L8 11ZM24 11L24 12L25 12L25 11ZM43 12L43 13L45 13L45 12ZM24 14L24 15L25 15L25 14ZM29 14L29 15L28 15L28 16L27 16L27 17L26 17L26 21L28 21L28 22L29 22L29 20L31 20L31 18L29 18L29 20L27 20L27 19L28 19L28 18L27 18L27 17L28 17L28 16L29 16L29 17L31 17L31 16L32 16L32 19L33 19L33 20L32 20L32 21L33 21L33 23L34 23L34 22L35 22L35 23L36 23L36 24L37 24L37 25L36 25L36 26L37 26L37 28L38 28L38 26L37 26L37 25L38 25L38 24L39 24L39 21L38 21L38 22L37 22L37 21L36 21L36 20L38 20L38 18L39 18L39 16L40 16L40 17L41 17L41 18L40 18L40 19L39 19L39 20L40 20L40 21L41 21L41 22L40 22L40 23L41 23L41 22L42 22L42 23L44 23L44 21L45 21L45 22L46 22L46 23L47 23L47 24L48 24L48 23L47 23L47 21L48 21L48 20L49 20L49 19L46 19L46 20L43 20L43 19L45 19L45 18L47 18L47 17L49 17L49 15L45 15L45 16L43 16L43 17L44 17L44 18L42 18L42 17L41 17L41 16L42 16L42 15L43 15L43 14L42 14L42 15L41 15L41 16L40 16L40 14L39 14L39 15L38 15L38 18L36 18L36 16L35 16L35 15L34 15L34 16L32 16L32 15L31 15L31 16L30 16L30 14ZM8 16L8 17L9 17L9 16ZM19 16L19 17L16 17L16 19L18 19L18 20L20 20L20 19L21 19L21 20L22 20L22 21L24 21L24 20L25 20L25 19L23 19L23 18L21 18L21 17L20 17L20 16ZM45 16L45 17L46 17L46 16ZM6 17L6 18L7 18L7 17ZM19 17L19 18L18 18L18 19L19 19L19 18L20 18L20 17ZM33 17L33 18L34 18L34 19L35 19L35 18L34 18L34 17ZM41 18L41 19L40 19L40 20L41 20L41 19L42 19L42 18ZM22 19L22 20L23 20L23 19ZM56 19L56 20L57 20L57 19ZM33 20L33 21L34 21L34 20ZM42 20L42 22L43 22L43 20ZM52 20L52 21L53 21L53 20ZM10 22L10 23L11 23L11 22ZM36 22L36 23L37 23L37 24L38 24L38 23L37 23L37 22ZM15 23L15 24L16 24L16 23ZM20 24L20 25L21 25L21 24ZM15 26L15 27L18 27L18 26ZM1 27L1 28L2 28L2 27ZM5 27L5 30L8 30L8 27ZM19 27L19 28L20 28L20 29L22 29L22 28L21 28L21 27ZM27 27L27 30L30 30L30 27ZM49 27L49 30L52 30L52 27ZM6 28L6 29L7 29L7 28ZM23 28L23 29L24 29L24 28ZM28 28L28 29L29 29L29 28ZM50 28L50 29L51 29L51 28ZM54 28L54 29L53 29L53 31L52 31L52 32L53 32L53 31L54 31L54 30L55 30L55 28ZM3 29L3 30L4 30L4 29ZM39 29L39 30L37 30L37 32L36 32L36 31L35 31L35 32L34 32L34 33L35 33L35 32L36 32L36 34L33 34L33 37L35 37L35 36L34 36L34 35L37 35L37 36L36 36L36 37L37 37L37 38L36 38L36 39L35 39L35 40L36 40L36 39L37 39L37 38L38 38L38 36L39 36L39 37L40 37L40 36L39 36L39 34L40 34L40 33L39 33L39 34L38 34L38 31L39 31L39 32L43 32L43 31L42 31L42 30L43 30L43 29L42 29L42 30L40 30L40 29ZM14 30L14 31L15 31L15 32L16 32L16 33L15 33L15 36L16 36L16 35L17 35L17 34L16 34L16 33L17 33L17 32L16 32L16 31L17 31L17 30L16 30L16 31L15 31L15 30ZM6 31L6 32L5 32L5 33L4 33L4 32L3 32L3 33L4 33L4 34L3 34L3 35L2 35L2 36L3 36L3 35L4 35L4 34L5 34L5 33L6 33L6 34L7 34L7 33L6 33L6 32L7 32L7 31ZM25 32L25 33L29 33L29 34L30 34L30 35L29 35L29 39L31 39L31 38L32 38L32 33L31 33L31 32L30 32L30 33L29 33L29 32ZM37 34L37 35L38 35L38 34ZM6 35L6 36L7 36L7 35ZM55 35L55 36L53 36L53 37L55 37L55 36L56 36L56 35ZM30 36L30 38L31 38L31 36ZM0 37L0 38L1 38L1 37ZM9 37L9 38L10 38L10 39L11 39L11 38L12 38L12 37ZM23 37L23 38L24 38L24 37ZM27 37L27 38L28 38L28 37ZM2 38L2 39L1 39L1 40L0 40L0 43L2 43L2 42L1 42L1 40L2 40L2 41L4 41L4 40L3 40L3 38ZM19 38L19 39L18 39L18 40L19 40L19 39L20 39L20 38ZM21 38L21 39L22 39L22 38ZM33 38L33 39L32 39L32 40L33 40L33 41L34 41L34 40L33 40L33 39L34 39L34 38ZM30 40L30 41L31 41L31 42L28 42L28 43L26 43L26 44L25 44L25 45L23 45L23 46L25 46L25 47L24 47L24 48L25 48L25 47L27 47L27 46L25 46L25 45L26 45L26 44L27 44L27 45L31 45L31 46L29 46L29 47L31 47L31 48L33 48L33 49L35 49L35 48L36 48L36 49L37 49L37 48L38 48L38 47L39 47L39 48L43 48L43 49L42 49L42 50L41 50L41 51L40 51L40 52L41 52L41 51L42 51L42 50L43 50L43 49L44 49L44 48L43 48L43 47L42 47L42 46L40 46L40 45L39 45L39 44L38 44L38 43L37 43L37 42L36 42L36 44L35 44L35 45L36 45L36 46L32 46L32 44L29 44L29 43L33 43L33 44L34 44L34 43L33 43L33 42L32 42L32 41L31 41L31 40ZM42 40L42 41L43 41L43 40ZM46 40L46 41L47 41L47 40ZM21 41L21 42L22 42L22 41ZM26 41L26 42L27 42L27 41ZM52 41L52 42L53 42L53 43L52 43L52 44L53 44L53 43L54 43L54 41ZM50 42L50 43L51 43L51 42ZM9 43L9 44L10 44L10 43ZM55 43L55 44L54 44L54 45L55 45L55 46L56 46L56 43ZM5 44L5 45L8 45L8 44ZM11 44L11 48L12 48L12 46L13 46L13 45L12 45L12 44ZM37 44L37 46L39 46L39 45L38 45L38 44ZM48 44L48 45L47 45L47 46L49 46L49 47L50 47L50 46L51 46L51 45L49 45L49 44ZM15 46L15 47L13 47L13 48L15 48L15 53L16 53L16 52L17 52L17 51L18 51L18 53L20 53L20 52L21 52L21 51L18 51L18 49L19 49L19 48L18 48L18 49L17 49L17 48L16 48L16 47L17 47L17 46ZM31 46L31 47L32 47L32 46ZM34 47L34 48L35 48L35 47ZM36 47L36 48L37 48L37 47ZM6 48L6 49L7 49L7 48ZM46 48L46 49L47 49L47 48ZM16 49L16 50L17 50L17 49ZM27 49L27 52L30 52L30 49ZM49 49L49 52L52 52L52 49ZM28 50L28 51L29 51L29 50ZM50 50L50 51L51 51L51 50ZM8 52L8 57L9 57L9 56L10 56L10 55L9 55L9 54L10 54L10 53L9 53L9 52ZM36 52L36 53L37 53L37 52ZM19 54L19 55L20 55L20 54ZM15 55L15 56L16 56L16 55ZM51 55L51 57L52 57L52 56L53 56L53 55ZM0 0L0 7L7 7L7 0ZM1 1L1 6L6 6L6 1ZM2 2L2 5L5 5L5 2ZM50 0L50 7L57 7L57 0ZM51 1L51 6L56 6L56 1ZM52 2L52 5L55 5L55 2ZM0 50L0 57L7 57L7 50ZM1 51L1 56L6 56L6 51ZM2 52L2 55L5 55L5 52Z" fill="#000000"/></g></g></svg>
