<?xml version="1.0" encoding="UTF-8"?>
<svg xmlns="http://www.w3.org/2000/svg" version="1.1" width="300" height="300" viewBox="0 0 300 300"><rect x="0" y="0" width="300" height="300" fill="#ffffff"/><g transform="scale(4.918)"><g transform="translate(2,2)"><path fill-rule="evenodd" d="M9 0L9 1L8 1L8 2L9 2L9 3L8 3L8 4L9 4L9 5L8 5L8 7L9 7L9 8L6 8L6 9L9 9L9 11L8 11L8 10L4 10L4 12L3 12L3 10L2 10L2 9L5 9L5 8L0 8L0 9L1 9L1 11L0 11L0 13L1 13L1 14L0 14L0 16L1 16L1 17L2 17L2 18L1 18L1 19L0 19L0 20L2 20L2 19L3 19L3 20L4 20L4 18L5 18L5 20L6 20L6 21L4 21L4 24L3 24L3 25L4 25L4 27L3 27L3 29L2 29L2 30L3 30L3 31L1 31L1 33L2 33L2 34L1 34L1 35L2 35L2 34L3 34L3 31L4 31L4 33L5 33L5 34L4 34L4 35L3 35L3 36L4 36L4 37L2 37L2 36L0 36L0 37L2 37L2 38L0 38L0 39L2 39L2 40L1 40L1 41L0 41L0 44L1 44L1 43L2 43L2 44L3 44L3 45L1 45L1 46L0 46L0 48L5 48L5 47L9 47L9 48L8 48L8 51L9 51L9 52L8 52L8 57L10 57L10 56L9 56L9 52L10 52L10 53L11 53L11 55L12 55L12 56L11 56L11 57L19 57L19 56L20 56L20 57L21 57L21 56L22 56L22 54L23 54L23 55L24 55L24 56L23 56L23 57L24 57L24 56L28 56L28 55L26 55L26 54L27 54L27 53L28 53L28 54L29 54L29 55L30 55L30 56L29 56L29 57L31 57L31 56L33 56L33 57L37 57L37 56L33 56L33 55L35 55L35 54L36 54L36 55L37 55L37 54L38 54L38 57L39 57L39 55L40 55L40 52L42 52L42 53L41 53L41 57L42 57L42 56L43 56L43 57L44 57L44 56L45 56L45 57L46 57L46 56L45 56L45 55L44 55L44 56L43 56L43 53L44 53L44 54L45 54L45 53L44 53L44 51L42 51L42 50L45 50L45 52L48 52L48 53L47 53L47 55L48 55L48 56L47 56L47 57L49 57L49 54L48 54L48 53L50 53L50 55L51 55L51 56L50 56L50 57L52 57L52 56L54 56L54 57L56 57L56 56L55 56L55 53L54 53L54 52L55 52L55 50L57 50L57 49L54 49L54 48L57 48L57 47L56 47L56 46L57 46L57 45L56 45L56 46L55 46L55 45L54 45L54 44L55 44L55 42L57 42L57 41L54 41L54 43L53 43L53 44L52 44L52 45L50 45L50 44L51 44L51 43L50 43L50 42L51 42L51 41L49 41L49 40L48 40L48 41L47 41L47 42L46 42L46 43L45 43L45 42L43 42L43 41L44 41L44 40L47 40L47 39L50 39L50 38L51 38L51 37L49 37L49 36L51 36L51 35L49 35L49 36L48 36L48 37L47 37L47 36L46 36L46 35L48 35L48 33L47 33L47 34L46 34L46 33L45 33L45 34L44 34L44 35L42 35L42 36L41 36L41 35L40 35L40 34L38 34L38 33L37 33L37 32L36 32L36 31L37 31L37 30L38 30L38 28L36 28L36 27L37 27L37 26L38 26L38 27L39 27L39 26L40 26L40 25L39 25L39 23L40 23L40 24L41 24L41 23L43 23L43 20L47 20L47 18L49 18L49 20L48 20L48 21L47 21L47 24L45 24L45 23L46 23L46 22L45 22L45 21L44 21L44 24L42 24L42 25L41 25L41 26L42 26L42 28L45 28L45 30L46 30L46 31L44 31L44 30L43 30L43 29L42 29L42 30L41 30L41 29L40 29L40 28L41 28L41 27L40 27L40 28L39 28L39 29L40 29L40 31L38 31L38 32L41 32L41 34L43 34L43 32L48 32L48 31L50 31L50 32L51 32L51 33L50 33L50 34L51 34L51 33L53 33L53 32L56 32L56 33L54 33L54 34L52 34L52 37L53 37L53 40L52 40L52 41L53 41L53 40L55 40L55 39L57 39L57 37L54 37L54 36L57 36L57 35L55 35L55 34L57 34L57 32L56 32L56 30L57 30L57 28L56 28L56 26L57 26L57 25L56 25L56 24L55 24L55 23L56 23L56 22L57 22L57 21L51 21L51 22L50 22L50 19L51 19L51 20L55 20L55 19L56 19L56 18L57 18L57 17L56 17L56 16L57 16L57 15L56 15L56 14L57 14L57 13L56 13L56 12L55 12L55 11L56 11L56 10L57 10L57 9L56 9L56 8L55 8L55 9L56 9L56 10L55 10L55 11L54 11L54 10L53 10L53 9L54 9L54 8L53 8L53 9L52 9L52 8L51 8L51 10L50 10L50 8L49 8L49 6L48 6L48 7L47 7L47 5L48 5L48 0L45 0L45 1L47 1L47 2L43 2L43 3L42 3L42 4L41 4L41 5L40 5L40 3L41 3L41 2L40 2L40 1L44 1L44 0L39 0L39 1L38 1L38 0L36 0L36 1L38 1L38 2L37 2L37 3L36 3L36 5L35 5L35 6L34 6L34 7L35 7L35 6L36 6L36 8L33 8L33 6L32 6L32 7L31 7L31 4L32 4L32 3L34 3L34 4L35 4L35 1L34 1L34 0L33 0L33 1L32 1L32 2L30 2L30 1L31 1L31 0L30 0L30 1L26 1L26 0L24 0L24 1L23 1L23 0L21 0L21 2L19 2L19 1L18 1L18 2L17 2L17 1L16 1L16 0L14 0L14 1L15 1L15 2L14 2L14 3L13 3L13 1L11 1L11 0ZM10 1L10 2L11 2L11 1ZM22 1L22 2L23 2L23 3L20 3L20 4L18 4L18 3L16 3L16 4L15 4L15 3L14 3L14 4L15 4L15 5L13 5L13 3L12 3L12 5L11 5L11 4L10 4L10 3L9 3L9 4L10 4L10 5L9 5L9 7L10 7L10 5L11 5L11 8L10 8L10 11L11 11L11 13L10 13L10 14L9 14L9 13L8 13L8 11L5 11L5 12L4 12L4 14L5 14L5 15L6 15L6 16L5 16L5 18L8 18L8 19L6 19L6 20L8 20L8 19L9 19L9 17L10 17L10 18L11 18L11 19L12 19L12 21L10 21L10 20L9 20L9 21L10 21L10 22L12 22L12 21L13 21L13 23L14 23L14 22L15 22L15 23L16 23L16 25L15 25L15 24L12 24L12 23L9 23L9 22L8 22L8 23L6 23L6 22L7 22L7 21L6 21L6 22L5 22L5 23L6 23L6 24L4 24L4 25L6 25L6 26L8 26L8 23L9 23L9 24L10 24L10 25L9 25L9 28L10 28L10 30L11 30L11 31L10 31L10 33L11 33L11 34L10 34L10 35L11 35L11 36L10 36L10 37L12 37L12 38L10 38L10 42L9 42L9 43L6 43L6 42L7 42L7 41L9 41L9 39L8 39L8 40L7 40L7 39L5 39L5 40L7 40L7 41L4 41L4 42L3 42L3 40L4 40L4 39L3 39L3 40L2 40L2 42L3 42L3 43L4 43L4 46L3 46L3 47L5 47L5 46L8 46L8 44L9 44L9 45L11 45L11 46L9 46L9 47L10 47L10 48L9 48L9 51L10 51L10 52L11 52L11 53L12 53L12 52L11 52L11 50L12 50L12 47L13 47L13 48L14 48L14 50L13 50L13 51L16 51L16 52L15 52L15 53L14 53L14 52L13 52L13 54L15 54L15 55L16 55L16 56L17 56L17 55L20 55L20 54L19 54L19 53L23 53L23 54L24 54L24 53L23 53L23 52L24 52L24 51L25 51L25 53L26 53L26 51L25 51L25 50L23 50L23 49L24 49L24 48L25 48L25 49L26 49L26 46L27 46L27 47L28 47L28 48L29 48L29 47L30 47L30 48L31 48L31 49L32 49L32 50L31 50L31 52L32 52L32 54L35 54L35 53L36 53L36 52L37 52L37 51L38 51L38 54L39 54L39 52L40 52L40 51L41 51L41 50L42 50L42 49L45 49L45 50L47 50L47 51L48 51L48 48L49 48L49 47L51 47L51 48L54 48L54 47L55 47L55 46L54 46L54 45L52 45L52 46L54 46L54 47L51 47L51 46L50 46L50 45L49 45L49 44L47 44L47 45L46 45L46 46L48 46L48 47L45 47L45 43L43 43L43 42L42 42L42 41L41 41L41 40L43 40L43 39L45 39L45 38L46 38L46 39L47 39L47 37L46 37L46 36L45 36L45 35L46 35L46 34L45 34L45 35L44 35L44 37L43 37L43 36L42 36L42 37L43 37L43 38L42 38L42 39L41 39L41 36L40 36L40 35L38 35L38 34L37 34L37 33L36 33L36 32L35 32L35 31L36 31L36 30L35 30L35 29L33 29L33 28L34 28L34 26L35 26L35 23L36 23L36 22L37 22L37 21L36 21L36 20L38 20L38 19L36 19L36 18L39 18L39 20L40 20L40 21L41 21L41 20L43 20L43 19L44 19L44 18L45 18L45 19L46 19L46 18L47 18L47 16L49 16L49 15L50 15L50 14L51 14L51 15L52 15L52 16L50 16L50 18L52 18L52 19L55 19L55 18L56 18L56 17L55 17L55 16L54 16L54 15L55 15L55 14L56 14L56 13L55 13L55 12L54 12L54 11L53 11L53 10L51 10L51 11L50 11L50 10L49 10L49 11L50 11L50 13L49 13L49 12L47 12L47 11L43 11L43 12L44 12L44 13L45 13L45 12L46 12L46 14L47 14L47 13L49 13L49 15L47 15L47 16L43 16L43 17L44 17L44 18L42 18L42 17L41 17L41 16L42 16L42 15L43 15L43 14L42 14L42 10L40 10L40 9L42 9L42 8L44 8L44 9L45 9L45 10L48 10L48 9L49 9L49 8L48 8L48 9L47 9L47 7L46 7L46 5L47 5L47 3L43 3L43 5L41 5L41 8L40 8L40 6L39 6L39 4L38 4L38 3L37 3L37 4L38 4L38 5L36 5L36 6L37 6L37 7L38 7L38 8L37 8L37 9L38 9L38 10L37 10L37 11L36 11L36 10L35 10L35 9L33 9L33 8L32 8L32 9L31 9L31 11L30 11L30 12L31 12L31 13L32 13L32 14L31 14L31 15L33 15L33 16L30 16L30 13L29 13L29 12L28 12L28 13L26 13L26 14L23 14L23 13L25 13L25 12L27 12L27 11L26 11L26 10L27 10L27 9L26 9L26 6L25 6L25 4L26 4L26 3L25 3L25 2L26 2L26 1L25 1L25 2L23 2L23 1ZM33 1L33 2L34 2L34 1ZM24 3L24 4L21 4L21 6L20 6L20 5L19 5L19 6L18 6L18 4L16 4L16 5L15 5L15 6L14 6L14 7L13 7L13 6L12 6L12 8L11 8L11 9L13 9L13 10L11 10L11 11L13 11L13 12L12 12L12 14L10 14L10 16L11 16L11 18L12 18L12 19L14 19L14 20L13 20L13 21L15 21L15 22L16 22L16 21L15 21L15 20L16 20L16 19L17 19L17 21L19 21L19 22L17 22L17 23L18 23L18 24L17 24L17 26L18 26L18 27L17 27L17 28L16 28L16 27L14 27L14 26L15 26L15 25L14 25L14 26L13 26L13 27L12 27L12 26L11 26L11 28L13 28L13 29L14 29L14 30L15 30L15 32L14 32L14 31L13 31L13 33L15 33L15 34L13 34L13 36L12 36L12 37L13 37L13 39L11 39L11 41L12 41L12 40L13 40L13 41L16 41L16 40L17 40L17 41L18 41L18 42L17 42L17 43L16 43L16 42L14 42L14 44L15 44L15 45L13 45L13 44L12 44L12 43L13 43L13 42L12 42L12 43L11 43L11 42L10 42L10 43L9 43L9 44L10 44L10 43L11 43L11 45L13 45L13 46L16 46L16 45L18 45L18 47L17 47L17 48L15 48L15 49L17 49L17 50L16 50L16 51L18 51L18 53L17 53L17 54L18 54L18 53L19 53L19 52L21 52L21 50L22 50L22 49L21 49L21 50L20 50L20 49L19 49L19 48L20 48L20 46L19 46L19 45L22 45L22 44L21 44L21 43L22 43L22 42L23 42L23 45L24 45L24 47L25 47L25 45L26 45L26 44L25 44L25 42L26 42L26 43L27 43L27 42L26 42L26 41L30 41L30 42L28 42L28 43L31 43L31 44L27 44L27 45L31 45L31 46L30 46L30 47L31 47L31 48L33 48L33 47L37 47L37 46L38 46L38 45L39 45L39 46L40 46L40 48L39 48L39 49L40 49L40 48L45 48L45 49L46 49L46 48L45 48L45 47L42 47L42 46L44 46L44 44L43 44L43 43L42 43L42 42L41 42L41 43L39 43L39 42L38 42L38 40L41 40L41 39L40 39L40 38L37 38L37 37L38 37L38 36L36 36L36 39L35 39L35 38L34 38L34 39L35 39L35 42L34 42L34 43L33 43L33 44L34 44L34 43L35 43L35 44L36 44L36 45L35 45L35 46L33 46L33 45L32 45L32 42L31 42L31 41L32 41L32 40L33 40L33 41L34 41L34 40L33 40L33 39L32 39L32 40L29 40L29 39L31 39L31 38L32 38L32 35L30 35L30 34L29 34L29 35L30 35L30 36L29 36L29 37L28 37L28 36L27 36L27 37L26 37L26 39L25 39L25 40L24 40L24 39L23 39L23 38L24 38L24 37L25 37L25 36L26 36L26 35L27 35L27 33L30 33L30 32L33 32L33 34L34 34L34 36L33 36L33 37L34 37L34 36L35 36L35 34L36 34L36 35L37 35L37 34L36 34L36 33L35 33L35 32L34 32L34 31L35 31L35 30L33 30L33 29L32 29L32 27L33 27L33 26L32 26L32 25L31 25L31 23L32 23L32 24L34 24L34 23L35 23L35 22L33 22L33 21L32 21L32 20L33 20L33 19L35 19L35 18L33 18L33 17L34 17L34 16L33 16L33 17L29 17L29 18L33 18L33 19L31 19L31 20L30 20L30 21L29 21L29 22L31 22L31 23L28 23L28 24L27 24L27 25L26 25L26 24L25 24L25 23L26 23L26 22L25 22L25 20L26 20L26 21L27 21L27 20L29 20L29 19L28 19L28 18L27 18L27 17L28 17L28 16L25 16L25 15L23 15L23 16L24 16L24 17L23 17L23 18L24 18L24 19L21 19L21 18L22 18L22 17L21 17L21 16L22 16L22 14L19 14L19 13L22 13L22 12L19 12L19 13L18 13L18 12L17 12L17 11L18 11L18 9L19 9L19 11L22 11L22 10L20 10L20 9L19 9L19 6L20 6L20 7L21 7L21 8L24 8L24 9L23 9L23 11L24 11L24 12L25 12L25 11L24 11L24 10L25 10L25 8L24 8L24 7L25 7L25 6L24 6L24 7L23 7L23 5L24 5L24 4L25 4L25 3ZM27 3L27 4L29 4L29 3ZM44 4L44 5L46 5L46 4ZM27 5L27 8L30 8L30 5ZM15 6L15 8L14 8L14 9L15 9L15 10L13 10L13 11L14 11L14 12L13 12L13 13L14 13L14 14L13 14L13 15L12 15L12 16L13 16L13 15L14 15L14 18L15 18L15 17L16 17L16 18L17 18L17 19L19 19L19 21L23 21L23 22L22 22L22 23L23 23L23 24L21 24L21 25L20 25L20 28L19 28L19 29L20 29L20 30L17 30L17 29L18 29L18 28L17 28L17 29L16 29L16 30L17 30L17 31L16 31L16 32L18 32L18 31L20 31L20 32L19 32L19 33L16 33L16 35L17 35L17 36L16 36L16 37L14 37L14 36L13 36L13 37L14 37L14 39L13 39L13 40L14 40L14 39L15 39L15 40L16 40L16 39L15 39L15 38L16 38L16 37L18 37L18 38L20 38L20 39L18 39L18 40L20 40L20 42L18 42L18 43L17 43L17 44L18 44L18 45L19 45L19 44L20 44L20 42L22 42L22 41L23 41L23 39L22 39L22 41L21 41L21 38L22 38L22 37L24 37L24 36L25 36L25 34L26 34L26 32L29 32L29 31L24 31L24 30L23 30L23 29L25 29L25 30L26 30L26 27L25 27L25 28L24 28L24 27L23 27L23 29L22 29L22 28L21 28L21 27L22 27L22 26L21 26L21 25L23 25L23 24L24 24L24 25L25 25L25 26L26 26L26 25L25 25L25 24L24 24L24 23L23 23L23 22L24 22L24 21L23 21L23 20L21 20L21 19L20 19L20 18L21 18L21 17L20 17L20 16L21 16L21 15L18 15L18 13L16 13L16 15L14 15L14 14L15 14L15 12L16 12L16 11L15 11L15 10L17 10L17 9L18 9L18 6L17 6L17 8L16 8L16 6ZM21 6L21 7L22 7L22 6ZM28 6L28 7L29 7L29 6ZM38 6L38 7L39 7L39 6ZM42 6L42 7L43 7L43 6ZM44 6L44 8L45 8L45 9L46 9L46 7L45 7L45 6ZM15 8L15 9L16 9L16 8ZM39 8L39 9L40 9L40 8ZM28 9L28 11L29 11L29 9ZM32 9L32 10L33 10L33 9ZM38 10L38 11L37 11L37 12L36 12L36 13L38 13L38 12L40 12L40 10ZM31 11L31 12L33 12L33 13L35 13L35 12L34 12L34 11ZM52 11L52 12L53 12L53 11ZM1 12L1 13L2 13L2 12ZM6 12L6 13L5 13L5 14L6 14L6 15L7 15L7 16L6 16L6 17L7 17L7 16L8 16L8 17L9 17L9 16L8 16L8 15L9 15L9 14L8 14L8 13L7 13L7 12ZM6 13L6 14L7 14L7 13ZM28 13L28 14L27 14L27 15L29 15L29 13ZM40 13L40 14L33 14L33 15L35 15L35 16L36 16L36 17L38 17L38 16L36 16L36 15L39 15L39 16L41 16L41 15L42 15L42 14L41 14L41 13ZM51 13L51 14L52 14L52 13ZM53 13L53 14L55 14L55 13ZM40 14L40 15L41 15L41 14ZM44 14L44 15L45 15L45 14ZM1 15L1 16L2 16L2 15ZM16 15L16 17L19 17L19 16L17 16L17 15ZM3 16L3 18L4 18L4 16ZM53 16L53 17L52 17L52 18L54 18L54 16ZM12 17L12 18L13 18L13 17ZM39 17L39 18L41 18L41 19L40 19L40 20L41 20L41 19L42 19L42 18L41 18L41 17ZM45 17L45 18L46 18L46 17ZM26 19L26 20L27 20L27 19ZM1 21L1 22L0 22L0 25L2 25L2 24L1 24L1 22L2 22L2 21ZM38 21L38 22L39 22L39 21ZM19 22L19 23L20 23L20 22ZM40 22L40 23L41 23L41 22ZM49 22L49 23L48 23L48 25L46 25L46 26L45 26L45 24L44 24L44 25L43 25L43 27L44 27L44 26L45 26L45 27L46 27L46 28L48 28L48 27L46 27L46 26L48 26L48 25L50 25L50 26L53 26L53 27L55 27L55 26L54 26L54 25L53 25L53 24L51 24L51 23L50 23L50 22ZM52 22L52 23L54 23L54 22ZM49 23L49 24L50 24L50 25L51 25L51 24L50 24L50 23ZM6 24L6 25L7 25L7 24ZM28 24L28 25L30 25L30 24ZM18 25L18 26L19 26L19 25ZM36 25L36 26L37 26L37 25ZM38 25L38 26L39 26L39 25ZM0 26L0 27L1 27L1 28L2 28L2 26ZM5 27L5 30L8 30L8 27ZM13 27L13 28L14 28L14 29L15 29L15 28L14 28L14 27ZM27 27L27 30L30 30L30 27ZM49 27L49 30L52 30L52 27ZM6 28L6 29L7 29L7 28ZM20 28L20 29L21 29L21 30L20 30L20 31L22 31L22 29L21 29L21 28ZM28 28L28 29L29 29L29 28ZM50 28L50 29L51 29L51 28ZM54 28L54 29L55 29L55 30L56 30L56 28ZM3 29L3 30L4 30L4 29ZM46 29L46 30L47 30L47 31L48 31L48 29ZM32 30L32 31L33 31L33 30ZM42 30L42 31L43 31L43 30ZM53 30L53 31L52 31L52 32L53 32L53 31L54 31L54 30ZM6 31L6 32L7 32L7 33L6 33L6 34L9 34L9 33L8 33L8 31ZM20 32L20 33L21 33L21 34L20 34L20 35L19 35L19 34L17 34L17 35L19 35L19 36L18 36L18 37L20 37L20 36L21 36L21 37L22 37L22 36L21 36L21 35L22 35L22 33L21 33L21 32ZM23 32L23 36L24 36L24 34L25 34L25 32ZM34 33L34 34L35 34L35 33ZM6 35L6 36L5 36L5 37L4 37L4 38L7 38L7 37L8 37L8 38L9 38L9 36L8 36L8 35ZM6 36L6 37L7 37L7 36ZM30 36L30 38L31 38L31 36ZM39 36L39 37L40 37L40 36ZM27 37L27 38L28 38L28 37ZM44 37L44 38L45 38L45 37ZM54 38L54 39L55 39L55 38ZM27 39L27 40L28 40L28 39ZM36 39L36 40L38 40L38 39ZM35 42L35 43L36 43L36 44L37 44L37 45L38 45L38 44L39 44L39 43L38 43L38 44L37 44L37 43L36 43L36 42ZM47 42L47 43L49 43L49 42ZM5 43L5 45L7 45L7 44L6 44L6 43ZM24 44L24 45L25 45L25 44ZM40 44L40 46L42 46L42 45L43 45L43 44ZM48 45L48 46L49 46L49 45ZM1 46L1 47L2 47L2 46ZM11 46L11 47L12 47L12 46ZM21 46L21 48L23 48L23 47L22 47L22 46ZM31 46L31 47L32 47L32 46ZM6 48L6 49L7 49L7 48ZM35 48L35 50L34 50L34 49L33 49L33 50L32 50L32 52L36 52L36 51L37 51L37 50L38 50L38 51L40 51L40 50L38 50L38 48ZM18 49L18 50L19 50L19 49ZM27 49L27 52L30 52L30 49ZM49 49L49 52L52 52L52 49ZM28 50L28 51L29 51L29 50ZM33 50L33 51L34 51L34 50ZM50 50L50 51L51 51L51 50ZM53 50L53 51L54 51L54 50ZM56 51L56 52L57 52L57 51ZM15 53L15 54L16 54L16 53ZM29 53L29 54L30 54L30 53ZM51 54L51 55L53 55L53 54ZM13 55L13 56L14 56L14 55ZM0 0L0 7L7 7L7 0ZM1 1L1 6L6 6L6 1ZM2 2L2 5L5 5L5 2ZM50 0L50 7L57 7L57 0ZM51 1L51 6L56 6L56 1ZM52 2L52 5L55 5L55 2ZM0 50L0 57L7 57L7 50ZM1 51L1 56L6 56L6 51ZM2 52L2 55L5 55L5 52Z" fill="#000000"/></g></g></svg>
