<?xml version="1.0" encoding="UTF-8"?>
<svg xmlns="http://www.w3.org/2000/svg" version="1.1" width="300" height="300" viewBox="0 0 300 300"><rect x="0" y="0" width="300" height="300" fill="#ffffff"/><g transform="scale(4.918)"><g transform="translate(2,2)"><path fill-rule="evenodd" d="M9 0L9 1L8 1L8 2L9 2L9 3L8 3L8 4L9 4L9 5L8 5L8 7L9 7L9 6L10 6L10 8L11 8L11 6L10 6L10 4L9 4L9 3L10 3L10 2L9 2L9 1L11 1L11 5L12 5L12 4L14 4L14 5L13 5L13 6L12 6L12 9L13 9L13 10L10 10L10 9L9 9L9 8L6 8L6 9L5 9L5 8L0 8L0 10L2 10L2 12L3 12L3 11L4 11L4 12L6 12L6 13L5 13L5 14L6 14L6 15L5 15L5 16L6 16L6 17L7 17L7 18L5 18L5 17L4 17L4 16L3 16L3 17L2 17L2 15L1 15L1 17L0 17L0 18L1 18L1 17L2 17L2 18L3 18L3 17L4 17L4 20L3 20L3 19L1 19L1 20L0 20L0 21L1 21L1 22L2 22L2 23L0 23L0 25L1 25L1 26L0 26L0 27L1 27L1 26L2 26L2 25L3 25L3 27L2 27L2 28L3 28L3 29L2 29L2 30L3 30L3 29L4 29L4 31L5 31L5 34L4 34L4 35L5 35L5 36L4 36L4 39L2 39L2 40L1 40L1 39L0 39L0 40L1 40L1 41L0 41L0 42L1 42L1 43L0 43L0 44L1 44L1 46L0 46L0 48L5 48L5 47L7 47L7 48L6 48L6 49L8 49L8 51L9 51L9 50L11 50L11 53L10 53L10 52L8 52L8 57L9 57L9 55L10 55L10 57L11 57L11 55L12 55L12 56L14 56L14 55L15 55L15 57L21 57L21 53L22 53L22 54L23 54L23 55L24 55L24 56L25 56L25 57L26 57L26 55L25 55L25 54L27 54L27 53L28 53L28 54L29 54L29 55L30 55L30 56L29 56L29 57L31 57L31 55L32 55L32 56L33 56L33 54L32 54L32 52L36 52L36 53L35 53L35 56L34 56L34 57L38 57L38 56L39 56L39 55L40 55L40 56L43 56L43 57L44 57L44 56L45 56L45 55L46 55L46 54L45 54L45 53L46 53L46 52L45 52L45 53L44 53L44 51L45 51L45 50L46 50L46 51L47 51L47 52L48 52L48 53L49 53L49 54L48 54L48 56L46 56L46 57L48 57L48 56L50 56L50 54L53 54L53 52L57 52L57 51L53 51L53 49L54 49L54 50L57 50L57 49L56 49L56 48L57 48L57 47L56 47L56 46L57 46L57 45L56 45L56 46L53 46L53 47L50 47L50 46L52 46L52 45L54 45L54 44L55 44L55 43L56 43L56 42L55 42L55 39L57 39L57 37L56 37L56 36L57 36L57 35L56 35L56 34L57 34L57 31L56 31L56 30L57 30L57 29L56 29L56 28L55 28L55 27L56 27L56 26L57 26L57 25L56 25L56 26L55 26L55 23L56 23L56 24L57 24L57 23L56 23L56 22L57 22L57 21L56 21L56 20L55 20L55 18L57 18L57 17L52 17L52 16L56 16L56 14L57 14L57 13L56 13L56 10L57 10L57 9L56 9L56 8L55 8L55 9L56 9L56 10L55 10L55 11L54 11L54 10L53 10L53 9L54 9L54 8L53 8L53 9L52 9L52 8L51 8L51 10L49 10L49 9L50 9L50 8L49 8L49 6L48 6L48 8L49 8L49 9L47 9L47 10L48 10L48 11L47 11L47 12L49 12L49 11L50 11L50 13L51 13L51 14L50 14L50 15L49 15L49 13L47 13L47 14L46 14L46 12L45 12L45 11L44 11L44 10L45 10L45 9L44 9L44 7L45 7L45 6L46 6L46 8L47 8L47 5L48 5L48 0L46 0L46 1L47 1L47 2L44 2L44 0L42 0L42 1L41 1L41 0L39 0L39 1L38 1L38 0L37 0L37 1L34 1L34 0L32 0L32 1L34 1L34 2L28 2L28 1L31 1L31 0L27 0L27 2L24 2L24 1L26 1L26 0L21 0L21 1L23 1L23 2L22 2L22 3L21 3L21 2L20 2L20 3L18 3L18 2L19 2L19 1L20 1L20 0L19 0L19 1L18 1L18 2L17 2L17 1L15 1L15 0L14 0L14 2L12 2L12 1L13 1L13 0ZM37 1L37 2L34 2L34 3L35 3L35 4L33 4L33 3L32 3L32 4L31 4L31 8L33 8L33 11L34 11L34 12L35 12L35 13L33 13L33 12L32 12L32 13L33 13L33 14L35 14L35 15L34 15L34 16L32 16L32 14L31 14L31 16L30 16L30 15L27 15L27 14L28 14L28 13L29 13L29 14L30 14L30 13L29 13L29 12L30 12L30 10L28 10L28 9L26 9L26 6L25 6L25 4L26 4L26 3L25 3L25 4L24 4L24 2L23 2L23 3L22 3L22 4L21 4L21 3L20 3L20 4L18 4L18 3L17 3L17 2L14 2L14 4L15 4L15 5L16 5L16 4L18 4L18 5L17 5L17 7L18 7L18 6L19 6L19 9L15 9L15 8L16 8L16 6L15 6L15 8L14 8L14 6L13 6L13 9L15 9L15 10L13 10L13 11L12 11L12 12L13 12L13 13L11 13L11 12L10 12L10 11L9 11L9 10L8 10L8 9L6 9L6 10L5 10L5 9L3 9L3 10L4 10L4 11L6 11L6 12L9 12L9 13L10 13L10 16L11 16L11 18L9 18L9 19L6 19L6 20L4 20L4 21L3 21L3 23L2 23L2 24L3 24L3 23L4 23L4 24L5 24L5 23L6 23L6 24L7 24L7 23L8 23L8 22L7 22L7 21L10 21L10 23L9 23L9 25L5 25L5 26L9 26L9 28L10 28L10 29L9 29L9 31L10 31L10 33L11 33L11 34L10 34L10 36L9 36L9 35L8 35L8 34L9 34L9 32L7 32L7 31L6 31L6 32L7 32L7 33L6 33L6 34L5 34L5 35L6 35L6 36L5 36L5 37L6 37L6 38L5 38L5 39L4 39L4 42L3 42L3 41L1 41L1 42L2 42L2 43L1 43L1 44L2 44L2 46L1 46L1 47L2 47L2 46L3 46L3 47L5 47L5 46L7 46L7 47L8 47L8 46L9 46L9 47L10 47L10 46L9 46L9 45L8 45L8 44L7 44L7 43L6 43L6 42L8 42L8 43L9 43L9 42L8 42L8 41L9 41L9 39L10 39L10 41L11 41L11 42L14 42L14 43L13 43L13 44L12 44L12 46L13 46L13 47L12 47L12 49L13 49L13 48L14 48L14 49L16 49L16 50L17 50L17 51L16 51L16 52L15 52L15 51L14 51L14 50L12 50L12 51L13 51L13 52L12 52L12 53L16 53L16 54L15 54L15 55L16 55L16 56L18 56L18 55L20 55L20 54L19 54L19 53L21 53L21 51L22 51L22 53L23 53L23 54L24 54L24 53L23 53L23 51L24 51L24 50L21 50L21 49L20 49L20 48L22 48L22 49L25 49L25 50L26 50L26 48L29 48L29 45L30 45L30 46L31 46L31 45L30 45L30 44L31 44L31 43L32 43L32 47L33 47L33 48L31 48L31 52L32 52L32 50L33 50L33 51L34 51L34 50L35 50L35 51L36 51L36 52L37 52L37 53L38 53L38 54L37 54L37 56L38 56L38 55L39 55L39 52L40 52L40 55L43 55L43 56L44 56L44 55L45 55L45 54L44 54L44 53L43 53L43 52L42 52L42 51L44 51L44 50L45 50L45 49L46 49L46 50L47 50L47 51L48 51L48 48L50 48L50 47L49 47L49 46L50 46L50 45L52 45L52 44L53 44L53 43L54 43L54 41L52 41L52 42L50 42L50 43L51 43L51 44L50 44L50 45L49 45L49 43L48 43L48 42L49 42L49 41L51 41L51 40L53 40L53 37L51 37L51 38L50 38L50 37L49 37L49 36L52 36L52 34L53 34L53 33L51 33L51 32L54 32L54 33L55 33L55 34L56 34L56 33L55 33L55 32L56 32L56 31L55 31L55 32L54 32L54 31L51 31L51 32L49 32L49 31L48 31L48 28L47 28L47 27L48 27L48 26L47 26L47 25L49 25L49 26L52 26L52 25L53 25L53 27L55 27L55 26L54 26L54 24L51 24L51 23L50 23L50 22L51 22L51 20L52 20L52 21L53 21L53 22L52 22L52 23L53 23L53 22L54 22L54 23L55 23L55 22L54 22L54 21L55 21L55 20L54 20L54 21L53 21L53 20L52 20L52 19L54 19L54 18L51 18L51 17L50 17L50 16L52 16L52 15L55 15L55 14L54 14L54 13L55 13L55 12L54 12L54 11L53 11L53 10L51 10L51 13L52 13L52 14L51 14L51 15L50 15L50 16L49 16L49 15L45 15L45 16L43 16L43 15L44 15L44 14L45 14L45 12L43 12L43 14L42 14L42 11L43 11L43 10L42 10L42 9L43 9L43 8L42 8L42 6L43 6L43 7L44 7L44 6L45 6L45 5L44 5L44 4L46 4L46 5L47 5L47 3L43 3L43 1L42 1L42 2L41 2L41 1L39 1L39 2L41 2L41 3L40 3L40 5L41 5L41 7L40 7L40 6L39 6L39 7L40 7L40 8L38 8L38 6L37 6L37 5L39 5L39 3L37 3L37 2L38 2L38 1ZM27 2L27 3L28 3L28 4L30 4L30 3L28 3L28 2ZM15 3L15 4L16 4L16 3ZM36 3L36 5L34 5L34 7L33 7L33 6L32 6L32 7L33 7L33 8L36 8L36 9L37 9L37 8L36 8L36 7L37 7L37 6L36 6L36 5L37 5L37 3ZM41 3L41 5L43 5L43 3ZM22 4L22 5L21 5L21 6L20 6L20 5L19 5L19 6L20 6L20 7L21 7L21 8L24 8L24 7L25 7L25 6L24 6L24 7L23 7L23 6L22 6L22 5L24 5L24 4ZM27 5L27 8L30 8L30 5ZM21 6L21 7L22 7L22 6ZM28 6L28 7L29 7L29 6ZM35 6L35 7L36 7L36 6ZM41 8L41 9L39 9L39 10L37 10L37 12L36 12L36 10L35 10L35 12L36 12L36 13L35 13L35 14L37 14L37 15L39 15L39 16L41 16L41 17L42 17L42 18L41 18L41 19L40 19L40 20L36 20L36 21L37 21L37 22L36 22L36 23L40 23L40 24L42 24L42 25L41 25L41 26L40 26L40 25L39 25L39 24L38 24L38 25L39 25L39 26L32 26L32 25L31 25L31 24L30 24L30 25L28 25L28 24L29 24L29 23L30 23L30 22L31 22L31 23L33 23L33 21L32 21L32 20L33 20L33 19L28 19L28 18L27 18L27 17L28 17L28 16L26 16L26 14L25 14L25 13L28 13L28 12L29 12L29 11L28 11L28 10L26 10L26 11L27 11L27 12L25 12L25 11L24 11L24 10L25 10L25 9L22 9L22 10L21 10L21 11L22 11L22 10L23 10L23 11L24 11L24 12L23 12L23 13L24 13L24 14L25 14L25 15L24 15L24 16L23 16L23 17L21 17L21 16L22 16L22 15L21 15L21 14L20 14L20 13L22 13L22 12L20 12L20 13L18 13L18 12L15 12L15 13L18 13L18 15L17 15L17 14L16 14L16 15L15 15L15 16L16 16L16 17L15 17L15 18L14 18L14 16L13 16L13 15L14 15L14 13L13 13L13 15L12 15L12 14L11 14L11 16L12 16L12 17L13 17L13 18L12 18L12 19L11 19L11 20L12 20L12 19L14 19L14 20L13 20L13 21L12 21L12 22L11 22L11 24L10 24L10 25L9 25L9 26L10 26L10 27L11 27L11 26L13 26L13 28L11 28L11 30L12 30L12 31L13 31L13 30L14 30L14 31L15 31L15 32L13 32L13 33L12 33L12 32L11 32L11 33L12 33L12 34L11 34L11 36L12 36L12 35L13 35L13 37L14 37L14 36L15 36L15 37L16 37L16 38L14 38L14 40L13 40L13 39L12 39L12 37L11 37L11 38L10 38L10 39L11 39L11 41L12 41L12 40L13 40L13 41L15 41L15 39L16 39L16 41L18 41L18 42L16 42L16 44L13 44L13 45L15 45L15 46L14 46L14 47L16 47L16 49L17 49L17 47L16 47L16 45L18 45L18 46L19 46L19 47L18 47L18 49L19 49L19 48L20 48L20 47L22 47L22 48L26 48L26 47L28 47L28 45L29 45L29 44L28 44L28 43L31 43L31 41L32 41L32 42L33 42L33 41L32 41L32 40L34 40L34 41L35 41L35 42L34 42L34 43L33 43L33 44L34 44L34 43L35 43L35 46L33 46L33 47L37 47L37 48L35 48L35 50L37 50L37 51L38 51L38 52L39 52L39 51L40 51L40 52L41 52L41 54L43 54L43 53L42 53L42 52L41 52L41 51L42 51L42 50L44 50L44 49L43 49L43 48L46 48L46 47L47 47L47 46L46 46L46 45L47 45L47 44L48 44L48 43L46 43L46 42L43 42L43 41L44 41L44 39L43 39L43 37L44 37L44 38L45 38L45 39L46 39L46 41L47 41L47 39L48 39L48 37L47 37L47 39L46 39L46 38L45 38L45 37L44 37L44 34L43 34L43 32L46 32L46 31L47 31L47 32L48 32L48 31L47 31L47 30L46 30L46 29L47 29L47 28L46 28L46 27L47 27L47 26L45 26L45 27L44 27L44 28L43 28L43 25L44 25L44 24L46 24L46 23L45 23L45 21L44 21L44 23L43 23L43 20L48 20L48 21L47 21L47 23L49 23L49 24L50 24L50 23L49 23L49 22L50 22L50 19L51 19L51 18L50 18L50 17L47 17L47 16L45 16L45 17L44 17L44 18L46 18L46 19L43 19L43 20L41 20L41 19L42 19L42 18L43 18L43 16L41 16L41 15L42 15L42 14L41 14L41 15L40 15L40 14L37 14L37 13L38 13L38 12L40 12L40 10L41 10L41 11L42 11L42 10L41 10L41 9L42 9L42 8ZM19 9L19 11L20 11L20 9ZM31 9L31 10L32 10L32 9ZM6 10L6 11L7 11L7 10ZM15 10L15 11L16 11L16 10ZM17 10L17 11L18 11L18 10ZM0 11L0 14L2 14L2 13L1 13L1 11ZM13 11L13 12L14 12L14 11ZM52 11L52 12L53 12L53 11ZM24 12L24 13L25 13L25 12ZM6 13L6 14L7 14L7 15L6 15L6 16L7 16L7 15L8 15L8 16L9 16L9 15L8 15L8 14L7 14L7 13ZM3 14L3 15L4 15L4 14ZM19 14L19 17L18 17L18 18L19 18L19 21L18 21L18 20L17 20L17 19L16 19L16 20L15 20L15 21L13 21L13 22L12 22L12 23L13 23L13 24L11 24L11 25L13 25L13 24L14 24L14 22L15 22L15 23L16 23L16 24L15 24L15 25L14 25L14 28L15 28L15 30L17 30L17 31L16 31L16 32L17 32L17 31L18 31L18 32L19 32L19 33L16 33L16 34L17 34L17 36L16 36L16 37L17 37L17 39L18 39L18 38L20 38L20 39L19 39L19 41L20 41L20 42L18 42L18 43L17 43L17 44L18 44L18 45L20 45L20 46L22 46L22 47L25 47L25 46L27 46L27 45L28 45L28 44L27 44L27 43L28 43L28 42L29 42L29 41L30 41L30 40L31 40L31 39L34 39L34 38L37 38L37 39L36 39L36 40L35 40L35 41L36 41L36 40L37 40L37 41L38 41L38 42L39 42L39 41L40 41L40 42L42 42L42 43L43 43L43 44L41 44L41 43L40 43L40 44L39 44L39 43L38 43L38 46L37 46L37 45L36 45L36 46L37 46L37 47L38 47L38 48L40 48L40 49L41 49L41 50L40 50L40 51L41 51L41 50L42 50L42 48L40 48L40 47L39 47L39 45L41 45L41 46L42 46L42 47L44 47L44 46L45 46L45 44L44 44L44 43L43 43L43 42L42 42L42 41L43 41L43 40L42 40L42 38L41 38L41 37L42 37L42 36L40 36L40 35L41 35L41 34L42 34L42 35L43 35L43 34L42 34L42 33L41 33L41 32L42 32L42 31L44 31L44 29L45 29L45 28L44 28L44 29L43 29L43 28L42 28L42 26L41 26L41 28L39 28L39 27L38 27L38 28L39 28L39 29L38 29L38 30L37 30L37 29L36 29L36 30L37 30L37 31L34 31L34 32L31 32L31 31L33 31L33 30L35 30L35 29L33 29L33 28L34 28L34 27L33 27L33 28L32 28L32 27L31 27L31 29L32 29L32 30L31 30L31 31L30 31L30 33L27 33L27 32L29 32L29 31L25 31L25 30L26 30L26 27L25 27L25 26L26 26L26 25L27 25L27 26L28 26L28 25L27 25L27 24L28 24L28 23L29 23L29 22L30 22L30 21L31 21L31 20L28 20L28 19L26 19L26 18L25 18L25 20L28 20L28 21L25 21L25 22L26 22L26 23L25 23L25 24L24 24L24 23L21 23L21 24L19 24L19 25L20 25L20 27L19 27L19 28L20 28L20 27L22 27L22 26L23 26L23 28L24 28L24 29L22 29L22 28L21 28L21 29L19 29L19 31L18 31L18 30L17 30L17 29L18 29L18 28L17 28L17 27L18 27L18 25L17 25L17 24L18 24L18 23L20 23L20 22L19 22L19 21L21 21L21 22L22 22L22 21L23 21L23 22L24 22L24 21L23 21L23 20L24 20L24 19L23 19L23 18L22 18L22 19L20 19L20 18L21 18L21 17L20 17L20 16L21 16L21 15L20 15L20 14ZM16 15L16 16L17 16L17 15ZM35 15L35 16L36 16L36 17L35 17L35 18L34 18L34 17L32 17L32 16L31 16L31 17L29 17L29 18L31 18L31 17L32 17L32 18L34 18L34 19L35 19L35 18L36 18L36 19L39 19L39 18L40 18L40 17L39 17L39 18L37 18L37 17L38 17L38 16L36 16L36 15ZM24 16L24 17L26 17L26 16ZM16 17L16 18L17 18L17 17ZM19 17L19 18L20 18L20 17ZM46 17L46 18L47 18L47 17ZM49 18L49 19L50 19L50 18ZM9 19L9 20L10 20L10 19ZM1 20L1 21L2 21L2 20ZM6 20L6 21L7 21L7 20ZM21 20L21 21L22 21L22 20ZM34 20L34 21L35 21L35 20ZM40 20L40 21L41 21L41 20ZM15 21L15 22L16 22L16 21ZM17 21L17 22L18 22L18 21ZM38 21L38 22L39 22L39 21ZM6 22L6 23L7 23L7 22ZM27 22L27 23L28 23L28 22ZM40 22L40 23L41 23L41 22ZM23 24L23 25L24 25L24 26L25 26L25 25L26 25L26 24L25 24L25 25L24 25L24 24ZM34 24L34 25L37 25L37 24ZM21 25L21 26L22 26L22 25ZM15 26L15 28L16 28L16 29L17 29L17 28L16 28L16 27L17 27L17 26ZM5 27L5 30L8 30L8 27ZM24 27L24 28L25 28L25 27ZM27 27L27 30L30 30L30 27ZM49 27L49 30L52 30L52 27ZM6 28L6 29L7 29L7 28ZM28 28L28 29L29 29L29 28ZM50 28L50 29L51 29L51 28ZM54 28L54 29L53 29L53 30L54 30L54 29L55 29L55 30L56 30L56 29L55 29L55 28ZM12 29L12 30L13 30L13 29ZM21 29L21 30L20 30L20 31L22 31L22 29ZM24 29L24 30L25 30L25 29ZM40 29L40 31L39 31L39 32L38 32L38 31L37 31L37 32L34 32L34 33L33 33L33 34L34 34L34 35L33 35L33 37L35 37L35 34L34 34L34 33L37 33L37 32L38 32L38 33L39 33L39 32L41 32L41 31L42 31L42 30L43 30L43 29L42 29L42 30L41 30L41 29ZM45 30L45 31L46 31L46 30ZM2 31L2 32L0 32L0 33L2 33L2 34L1 34L1 35L2 35L2 36L0 36L0 37L2 37L2 38L3 38L3 37L2 37L2 36L3 36L3 35L2 35L2 34L3 34L3 33L2 33L2 32L3 32L3 31ZM24 31L24 32L25 32L25 33L22 33L22 34L21 34L21 35L18 35L18 37L20 37L20 36L21 36L21 35L22 35L22 34L23 34L23 35L24 35L24 37L21 37L21 40L22 40L22 39L23 39L23 43L24 43L24 44L25 44L25 45L23 45L23 46L25 46L25 45L26 45L26 44L25 44L25 43L24 43L24 42L26 42L26 43L27 43L27 42L26 42L26 41L27 41L27 39L28 39L28 41L29 41L29 39L31 39L31 38L32 38L32 34L31 34L31 35L30 35L30 34L29 34L29 35L30 35L30 36L29 36L29 37L28 37L28 36L27 36L27 35L26 35L26 34L27 34L27 33L26 33L26 32L25 32L25 31ZM20 32L20 33L21 33L21 32ZM25 33L25 34L26 34L26 33ZM45 33L45 34L46 34L46 35L45 35L45 36L46 36L46 35L48 35L48 33L47 33L47 34L46 34L46 33ZM50 33L50 34L49 34L49 35L50 35L50 34L51 34L51 33ZM6 34L6 35L7 35L7 34ZM36 34L36 35L37 35L37 36L36 36L36 37L37 37L37 38L38 38L38 37L37 37L37 36L38 36L38 35L39 35L39 34ZM25 35L25 37L24 37L24 38L23 38L23 39L24 39L24 40L25 40L25 39L26 39L26 35ZM55 35L55 36L54 36L54 38L55 38L55 36L56 36L56 35ZM6 36L6 37L7 37L7 36ZM8 36L8 37L9 37L9 36ZM30 36L30 38L31 38L31 36ZM39 36L39 37L40 37L40 36ZM27 37L27 38L28 38L28 37ZM6 38L6 39L5 39L5 42L4 42L4 43L2 43L2 44L3 44L3 46L4 46L4 45L7 45L7 44L4 44L4 43L5 43L5 42L6 42L6 41L7 41L7 40L6 40L6 39L7 39L7 38ZM8 38L8 39L9 39L9 38ZM39 38L39 40L40 40L40 38ZM49 38L49 40L50 40L50 38ZM51 38L51 39L52 39L52 38ZM21 41L21 43L22 43L22 41ZM35 42L35 43L36 43L36 44L37 44L37 42ZM10 43L10 44L11 44L11 43ZM20 44L20 45L22 45L22 44ZM43 44L43 45L42 45L42 46L43 46L43 45L44 45L44 44ZM53 47L53 48L54 48L54 49L55 49L55 48L54 48L54 47ZM9 48L9 49L11 49L11 48ZM33 48L33 50L34 50L34 48ZM27 49L27 52L30 52L30 49ZM37 49L37 50L39 50L39 49ZM49 49L49 52L52 52L52 49ZM18 50L18 51L19 51L19 50ZM20 50L20 51L21 51L21 50ZM28 50L28 51L29 51L29 50ZM50 50L50 51L51 51L51 50ZM25 51L25 53L26 53L26 51ZM18 52L18 53L19 53L19 52ZM9 53L9 54L10 54L10 55L11 55L11 54L10 54L10 53ZM29 53L29 54L30 54L30 53ZM54 53L54 54L55 54L55 53ZM13 54L13 55L14 55L14 54ZM17 54L17 55L18 55L18 54ZM27 55L27 56L28 56L28 55ZM51 55L51 57L52 57L52 56L55 56L55 57L56 57L56 56L55 56L55 55ZM0 0L0 7L7 7L7 0ZM1 1L1 6L6 6L6 1ZM2 2L2 5L5 5L5 2ZM50 0L50 7L57 7L57 0ZM51 1L51 6L56 6L56 1ZM52 2L52 5L55 5L55 2ZM0 50L0 57L7 57L7 50ZM1 51L1 56L6 56L6 51ZM2 52L2 55L5 55L5 52Z" fill="#000000"/></g></g></svg>
