<?xml version="1.0" encoding="UTF-8"?>
<svg xmlns="http://www.w3.org/2000/svg" version="1.1" width="300" height="300" viewBox="0 0 300 300"><rect x="0" y="0" width="300" height="300" fill="#ffffff"/><g transform="scale(4.918)"><g transform="translate(2,2)"><path fill-rule="evenodd" d="M11 0L11 2L13 2L13 3L12 3L12 4L10 4L10 2L9 2L9 1L8 1L8 2L9 2L9 3L8 3L8 4L9 4L9 5L8 5L8 7L9 7L9 8L6 8L6 9L10 9L10 10L9 10L9 11L8 11L8 13L9 13L9 14L14 14L14 15L9 15L9 16L5 16L5 14L6 14L6 15L8 15L8 14L6 14L6 13L7 13L7 12L6 12L6 11L7 11L7 10L6 10L6 11L5 11L5 8L0 8L0 10L1 10L1 9L4 9L4 10L2 10L2 11L1 11L1 12L0 12L0 13L1 13L1 12L2 12L2 13L3 13L3 12L2 12L2 11L4 11L4 16L5 16L5 17L7 17L7 18L4 18L4 17L3 17L3 16L2 16L2 18L1 18L1 16L0 16L0 18L1 18L1 19L0 19L0 21L1 21L1 19L2 19L2 18L3 18L3 19L4 19L4 20L3 20L3 22L0 22L0 23L1 23L1 24L0 24L0 25L1 25L1 26L0 26L0 30L1 30L1 32L0 32L0 33L2 33L2 34L0 34L0 35L1 35L1 36L0 36L0 38L1 38L1 36L2 36L2 37L3 37L3 38L2 38L2 39L1 39L1 40L2 40L2 39L3 39L3 38L4 38L4 37L3 37L3 36L2 36L2 34L3 34L3 35L5 35L5 34L4 34L4 32L6 32L6 33L8 33L8 32L9 32L9 33L10 33L10 34L11 34L11 33L12 33L12 35L11 35L11 36L12 36L12 37L10 37L10 38L6 38L6 39L8 39L8 40L9 40L9 41L8 41L8 43L10 43L10 44L9 44L9 46L10 46L10 47L9 47L9 48L11 48L11 50L10 50L10 49L8 49L8 47L7 47L7 46L6 46L6 45L8 45L8 44L6 44L6 45L5 45L5 43L4 43L4 44L3 44L3 43L2 43L2 44L1 44L1 43L0 43L0 48L5 48L5 47L7 47L7 48L6 48L6 49L8 49L8 51L14 51L14 49L13 49L13 47L12 47L12 45L13 45L13 44L14 44L14 47L16 47L16 48L15 48L15 49L17 49L17 51L15 51L15 52L12 52L12 54L11 54L11 53L9 53L9 52L8 52L8 57L10 57L10 56L11 56L11 57L14 57L14 56L13 56L13 55L14 55L14 54L13 54L13 53L15 53L15 54L16 54L16 53L15 53L15 52L17 52L17 53L19 53L19 54L20 54L20 55L19 55L19 56L18 56L18 55L17 55L17 57L20 57L20 56L21 56L21 53L22 53L22 54L23 54L23 55L22 55L22 56L23 56L23 55L24 55L24 57L26 57L26 56L25 56L25 55L26 55L26 54L27 54L27 53L28 53L28 54L29 54L29 55L30 55L30 56L29 56L29 57L31 57L31 56L32 56L32 55L33 55L33 56L34 56L34 55L33 55L33 54L32 54L32 52L34 52L34 53L35 53L35 52L36 52L36 54L35 54L35 56L36 56L36 57L38 57L38 56L39 56L39 55L40 55L40 52L41 52L41 51L42 51L42 53L41 53L41 55L42 55L42 56L43 56L43 57L44 57L44 55L43 55L43 53L44 53L44 54L46 54L46 55L47 55L47 57L49 57L49 56L50 56L50 54L48 54L48 53L51 53L51 54L53 54L53 55L51 55L51 57L52 57L52 56L53 56L53 57L54 57L54 56L55 56L55 57L56 57L56 56L55 56L55 55L54 55L54 54L55 54L55 53L56 53L56 51L55 51L55 50L57 50L57 49L55 49L55 50L54 50L54 48L55 48L55 47L56 47L56 48L57 48L57 47L56 47L56 46L57 46L57 45L56 45L56 46L55 46L55 45L54 45L54 44L55 44L55 43L56 43L56 44L57 44L57 43L56 43L56 41L54 41L54 43L53 43L53 44L52 44L52 45L51 45L51 46L52 46L52 47L54 47L54 48L51 48L51 47L49 47L49 48L48 48L48 51L47 51L47 50L45 50L45 53L44 53L44 48L45 48L45 49L47 49L47 48L45 48L45 47L47 47L47 46L46 46L46 45L47 45L47 44L48 44L48 45L49 45L49 46L50 46L50 45L49 45L49 44L51 44L51 43L50 43L50 42L51 42L51 41L49 41L49 40L55 40L55 39L57 39L57 37L56 37L56 38L54 38L54 39L52 39L52 38L51 38L51 37L52 37L52 36L54 36L54 37L55 37L55 36L57 36L57 35L56 35L56 34L57 34L57 33L56 33L56 31L55 31L55 30L54 30L54 32L53 32L53 29L54 29L54 28L56 28L56 27L53 27L53 26L50 26L50 24L49 24L49 25L48 25L48 23L49 23L49 22L50 22L50 23L51 23L51 24L53 24L53 25L54 25L54 26L55 26L55 25L56 25L56 26L57 26L57 24L55 24L55 23L56 23L56 22L57 22L57 21L56 21L56 20L57 20L57 19L56 19L56 18L57 18L57 17L56 17L56 18L55 18L55 19L54 19L54 20L55 20L55 21L54 21L54 22L55 22L55 23L51 23L51 22L50 22L50 17L51 17L51 16L50 16L50 17L47 17L47 18L46 18L46 16L47 16L47 15L49 15L49 14L50 14L50 13L51 13L51 14L52 14L52 13L51 13L51 12L49 12L49 11L51 11L51 10L52 10L52 8L51 8L51 10L49 10L49 9L50 9L50 8L49 8L49 9L48 9L48 7L49 7L49 6L48 6L48 7L47 7L47 5L48 5L48 0L46 0L46 1L45 1L45 0L44 0L44 1L43 1L43 0L41 0L41 1L43 1L43 3L47 3L47 5L46 5L46 4L44 4L44 5L45 5L45 6L44 6L44 7L43 7L43 6L42 6L42 5L43 5L43 4L42 4L42 2L39 2L39 1L40 1L40 0L39 0L39 1L38 1L38 0L37 0L37 1L36 1L36 0L35 0L35 1L34 1L34 0L32 0L32 1L34 1L34 2L35 2L35 1L36 1L36 2L37 2L37 1L38 1L38 2L39 2L39 6L38 6L38 4L37 4L37 3L36 3L36 5L34 5L34 4L33 4L33 5L34 5L34 8L31 8L31 4L32 4L32 3L33 3L33 2L30 2L30 1L31 1L31 0L30 0L30 1L29 1L29 0L27 0L27 2L26 2L26 0L24 0L24 2L23 2L23 3L24 3L24 4L22 4L22 3L21 3L21 1L23 1L23 0L21 0L21 1L20 1L20 3L17 3L17 4L16 4L16 2L17 2L17 1L16 1L16 0L13 0L13 1L12 1L12 0ZM14 1L14 4L15 4L15 5L13 5L13 7L12 7L12 6L11 6L11 5L10 5L10 6L9 6L9 7L10 7L10 8L11 8L11 7L12 7L12 8L13 8L13 9L12 9L12 11L14 11L14 12L13 12L13 13L14 13L14 14L16 14L16 15L15 15L15 16L14 16L14 17L16 17L16 18L17 18L17 19L16 19L16 20L15 20L15 21L13 21L13 20L14 20L14 19L13 19L13 16L12 16L12 21L10 21L10 20L9 20L9 21L6 21L6 22L8 22L8 25L6 25L6 24L7 24L7 23L5 23L5 21L4 21L4 22L3 22L3 24L4 24L4 25L6 25L6 26L8 26L8 25L9 25L9 28L10 28L10 25L9 25L9 22L10 22L10 24L11 24L11 25L12 25L12 24L15 24L15 26L17 26L17 27L18 27L18 26L17 26L17 25L16 25L16 24L18 24L18 23L20 23L20 22L19 22L19 21L21 21L21 22L22 22L22 23L21 23L21 24L19 24L19 25L20 25L20 27L22 27L22 26L23 26L23 27L24 27L24 26L23 26L23 25L24 25L24 23L23 23L23 22L24 22L24 21L23 21L23 20L24 20L24 19L26 19L26 20L25 20L25 22L26 22L26 23L25 23L25 24L26 24L26 25L25 25L25 26L26 26L26 25L27 25L27 26L28 26L28 25L32 25L32 26L31 26L31 27L33 27L33 28L32 28L32 29L31 29L31 30L32 30L32 31L30 31L30 33L27 33L27 31L25 31L25 32L24 32L24 31L22 31L22 32L21 32L21 31L20 31L20 30L21 30L21 29L22 29L22 30L23 30L23 29L25 29L25 30L26 30L26 27L25 27L25 28L23 28L23 29L22 29L22 28L21 28L21 29L20 29L20 28L19 28L19 30L17 30L17 29L18 29L18 28L17 28L17 29L16 29L16 27L15 27L15 29L13 29L13 28L14 28L14 26L11 26L11 29L13 29L13 30L14 30L14 32L12 32L12 33L14 33L14 35L13 35L13 36L15 36L15 33L16 33L16 34L17 34L17 35L16 35L16 37L14 37L14 38L16 38L16 37L17 37L17 38L20 38L20 39L19 39L19 41L20 41L20 42L18 42L18 41L15 41L15 40L16 40L16 39L15 39L15 40L14 40L14 39L13 39L13 37L12 37L12 39L13 39L13 40L11 40L11 38L10 38L10 40L11 40L11 41L12 41L12 43L11 43L11 44L10 44L10 46L11 46L11 44L12 44L12 43L14 43L14 44L15 44L15 42L18 42L18 43L16 43L16 44L18 44L18 45L15 45L15 46L17 46L17 47L19 47L19 46L22 46L22 47L20 47L20 48L19 48L19 49L18 49L18 48L17 48L17 49L18 49L18 50L19 50L19 49L20 49L20 50L22 50L22 51L18 51L18 52L19 52L19 53L21 53L21 52L22 52L22 53L23 53L23 54L24 54L24 53L23 53L23 52L22 52L22 51L23 51L23 50L24 50L24 51L25 51L25 52L26 52L26 51L25 51L25 50L26 50L26 48L24 48L24 49L23 49L23 45L25 45L25 46L26 46L26 47L27 47L27 46L31 46L31 44L32 44L32 47L33 47L33 46L35 46L35 47L36 47L36 48L34 48L34 50L32 50L32 49L33 49L33 48L31 48L31 47L30 47L30 48L31 48L31 52L32 52L32 51L34 51L34 52L35 52L35 51L34 51L34 50L35 50L35 49L36 49L36 48L37 48L37 49L38 49L38 50L37 50L37 51L36 51L36 52L37 52L37 53L38 53L38 54L37 54L37 55L36 55L36 56L38 56L38 54L39 54L39 52L40 52L40 51L41 51L41 50L42 50L42 51L43 51L43 50L42 50L42 49L41 49L41 48L40 48L40 47L39 47L39 45L40 45L40 46L42 46L42 47L43 47L43 48L44 48L44 47L45 47L45 44L40 44L40 43L42 43L42 42L40 42L40 41L41 41L41 40L44 40L44 43L45 43L45 42L47 42L47 43L49 43L49 41L48 41L48 40L49 40L49 39L51 39L51 38L49 38L49 39L48 39L48 38L47 38L47 37L48 37L48 36L49 36L49 33L50 33L50 37L51 37L51 36L52 36L52 34L53 34L53 35L55 35L55 34L56 34L56 33L55 33L55 32L54 32L54 33L50 33L50 31L48 31L48 27L47 27L47 26L48 26L48 25L47 25L47 24L46 24L46 25L45 25L45 24L44 24L44 25L45 25L45 26L46 26L46 28L47 28L47 29L46 29L46 30L44 30L44 29L45 29L45 28L44 28L44 26L43 26L43 28L42 28L42 27L41 27L41 26L40 26L40 25L41 25L41 24L43 24L43 23L44 23L44 21L45 21L45 22L47 22L47 23L48 23L48 22L47 22L47 21L48 21L48 20L47 20L47 19L46 19L46 18L42 18L42 17L43 17L43 16L44 16L44 17L45 17L45 16L44 16L44 14L42 14L42 11L43 11L43 12L44 12L44 13L45 13L45 12L46 12L46 14L47 14L47 13L49 13L49 12L47 12L47 11L46 11L46 10L48 10L48 11L49 11L49 10L48 10L48 9L45 9L45 8L43 8L43 9L44 9L44 11L43 11L43 10L42 10L42 9L41 9L41 8L42 8L42 6L41 6L41 5L40 5L40 6L39 6L39 8L38 8L38 6L37 6L37 5L36 5L36 6L35 6L35 9L36 9L36 6L37 6L37 8L38 8L38 10L36 10L36 11L35 11L35 10L34 10L34 9L33 9L33 10L34 10L34 12L36 12L36 11L38 11L38 10L40 10L40 11L39 11L39 12L38 12L38 14L36 14L36 16L35 16L35 15L33 15L33 14L35 14L35 13L33 13L33 11L32 11L32 14L31 14L31 16L30 16L30 15L27 15L27 14L28 14L28 13L29 13L29 14L30 14L30 13L29 13L29 12L30 12L30 11L31 11L31 10L32 10L32 9L31 9L31 10L30 10L30 11L29 11L29 10L28 10L28 11L29 11L29 12L28 12L28 13L26 13L26 15L25 15L25 16L21 16L21 17L18 17L18 16L19 16L19 15L21 15L21 14L22 14L22 15L24 15L24 13L25 13L25 12L27 12L27 11L26 11L26 10L27 10L27 9L26 9L26 6L25 6L25 4L26 4L26 3L25 3L25 2L24 2L24 3L25 3L25 4L24 4L24 5L23 5L23 7L22 7L22 4L21 4L21 3L20 3L20 4L18 4L18 6L17 6L17 8L18 8L18 6L19 6L19 9L18 9L18 11L16 11L16 10L17 10L17 9L16 9L16 6L15 6L15 5L16 5L16 4L15 4L15 2L16 2L16 1ZM18 1L18 2L19 2L19 1ZM28 1L28 2L27 2L27 3L28 3L28 4L30 4L30 3L28 3L28 2L29 2L29 1ZM44 1L44 2L45 2L45 1ZM46 1L46 2L47 2L47 1ZM40 3L40 4L41 4L41 3ZM19 5L19 6L20 6L20 7L21 7L21 8L22 8L22 7L21 7L21 6L20 6L20 5ZM27 5L27 8L30 8L30 5ZM10 6L10 7L11 7L11 6ZM14 6L14 7L15 7L15 6ZM24 6L24 7L23 7L23 8L24 8L24 9L23 9L23 11L24 11L24 10L25 10L25 8L24 8L24 7L25 7L25 6ZM28 6L28 7L29 7L29 6ZM32 6L32 7L33 7L33 6ZM40 6L40 7L41 7L41 6ZM45 6L45 7L46 7L46 6ZM53 8L53 9L54 9L54 8ZM55 8L55 11L54 11L54 10L53 10L53 11L52 11L52 12L53 12L53 11L54 11L54 12L56 12L56 13L54 13L54 14L53 14L53 15L52 15L52 16L53 16L53 17L52 17L52 18L53 18L53 17L54 17L54 16L55 16L55 14L57 14L57 11L56 11L56 10L57 10L57 9L56 9L56 8ZM14 9L14 10L15 10L15 9ZM19 9L19 11L20 11L20 9ZM21 9L21 11L22 11L22 9ZM41 10L41 11L42 11L42 10ZM9 11L9 12L10 12L10 13L11 13L11 12L10 12L10 11ZM15 11L15 12L16 12L16 13L18 13L18 15L19 15L19 13L18 13L18 12L16 12L16 11ZM20 12L20 13L22 13L22 12ZM23 12L23 13L24 13L24 12ZM40 13L40 14L39 14L39 15L40 15L40 16L39 16L39 17L40 17L40 16L41 16L41 15L42 15L42 16L43 16L43 15L42 15L42 14L41 14L41 13ZM0 14L0 15L2 15L2 14ZM40 14L40 15L41 15L41 14ZM32 15L32 16L31 16L31 17L29 17L29 18L32 18L32 16L33 16L33 15ZM37 15L37 16L36 16L36 17L37 17L37 18L34 18L34 17L33 17L33 18L34 18L34 19L28 19L28 18L26 18L26 19L28 19L28 20L27 20L27 22L28 22L28 20L29 20L29 21L30 21L30 22L29 22L29 23L27 23L27 24L29 24L29 23L30 23L30 22L31 22L31 24L32 24L32 23L33 23L33 24L34 24L34 23L35 23L35 25L37 25L37 26L36 26L36 27L38 27L38 25L40 25L40 24L41 24L41 23L40 23L40 22L39 22L39 23L40 23L40 24L38 24L38 25L37 25L37 24L36 24L36 23L37 23L37 22L38 22L38 21L40 21L40 20L41 20L41 22L42 22L42 23L43 23L43 21L42 21L42 20L45 20L45 19L42 19L42 18L41 18L41 19L40 19L40 18L38 18L38 15ZM53 15L53 16L54 16L54 15ZM56 15L56 16L57 16L57 15ZM10 16L10 17L8 17L8 19L5 19L5 20L8 20L8 19L11 19L11 16ZM16 16L16 17L17 17L17 18L18 18L18 19L17 19L17 21L19 21L19 20L18 20L18 19L19 19L19 18L18 18L18 17L17 17L17 16ZM25 16L25 17L24 17L24 18L25 18L25 17L28 17L28 16ZM21 17L21 18L20 18L20 19L21 19L21 18L23 18L23 17ZM37 18L37 19L34 19L34 20L32 20L32 21L33 21L33 22L35 22L35 23L36 23L36 22L37 22L37 21L38 21L38 20L40 20L40 19L38 19L38 18ZM48 18L48 19L49 19L49 18ZM22 19L22 20L21 20L21 21L22 21L22 22L23 22L23 21L22 21L22 20L23 20L23 19ZM37 19L37 20L36 20L36 21L37 21L37 20L38 20L38 19ZM51 19L51 20L52 20L52 19ZM55 19L55 20L56 20L56 19ZM46 20L46 21L47 21L47 20ZM12 21L12 23L11 23L11 24L12 24L12 23L13 23L13 21ZM15 21L15 22L14 22L14 23L15 23L15 24L16 24L16 23L15 23L15 22L16 22L16 21ZM4 23L4 24L5 24L5 23ZM1 24L1 25L2 25L2 26L1 26L1 27L2 27L2 28L1 28L1 30L2 30L2 31L3 31L3 32L2 32L2 33L3 33L3 32L4 32L4 29L3 29L3 30L2 30L2 28L4 28L4 27L3 27L3 25L2 25L2 24ZM54 24L54 25L55 25L55 24ZM21 25L21 26L22 26L22 25ZM33 25L33 26L34 26L34 25ZM39 26L39 28L40 28L40 26ZM5 27L5 30L8 30L8 27ZM27 27L27 30L30 30L30 27ZM34 27L34 28L33 28L33 29L32 29L32 30L33 30L33 31L32 31L32 32L31 32L31 35L30 35L30 34L29 34L29 35L30 35L30 36L29 36L29 37L28 37L28 36L27 36L27 35L26 35L26 34L27 34L27 33L26 33L26 34L25 34L25 33L24 33L24 34L25 34L25 35L23 35L23 33L21 33L21 32L20 32L20 33L21 33L21 35L20 35L20 36L19 36L19 35L17 35L17 37L20 37L20 36L21 36L21 37L22 37L22 38L21 38L21 39L23 39L23 40L24 40L24 41L21 41L21 40L20 40L20 41L21 41L21 42L20 42L20 43L19 43L19 44L20 44L20 45L22 45L22 44L20 44L20 43L22 43L22 42L24 42L24 43L23 43L23 44L24 44L24 43L25 43L25 42L26 42L26 43L27 43L27 45L29 45L29 44L28 44L28 42L26 42L26 41L29 41L29 39L31 39L31 38L32 38L32 32L34 32L34 31L35 31L35 32L36 32L36 34L34 34L34 33L33 33L33 34L34 34L34 35L38 35L38 36L39 36L39 38L38 38L38 37L37 37L37 36L36 36L36 37L35 37L35 36L33 36L33 37L35 37L35 38L36 38L36 39L37 39L37 40L36 40L36 41L35 41L35 39L34 39L34 38L33 38L33 39L34 39L34 40L30 40L30 42L29 42L29 43L32 43L32 44L34 44L34 42L35 42L35 43L36 43L36 44L35 44L35 45L36 45L36 46L38 46L38 45L37 45L37 44L38 44L38 41L39 41L39 40L41 40L41 39L43 39L43 37L44 37L44 38L46 38L46 39L45 39L45 41L47 41L47 40L48 40L48 39L47 39L47 38L46 38L46 36L47 36L47 35L48 35L48 33L47 33L47 32L48 32L48 31L47 31L47 30L46 30L46 31L47 31L47 32L45 32L45 31L42 31L42 30L43 30L43 29L44 29L44 28L43 28L43 29L42 29L42 30L41 30L41 31L40 31L40 32L38 32L38 33L40 33L40 32L41 32L41 33L42 33L42 34L41 34L41 35L40 35L40 34L37 34L37 32L36 32L36 31L35 31L35 30L36 30L36 29L37 29L37 30L38 30L38 28L35 28L35 27ZM49 27L49 30L52 30L52 27ZM6 28L6 29L7 29L7 28ZM28 28L28 29L29 29L29 28ZM50 28L50 29L51 29L51 28ZM33 29L33 30L35 30L35 29ZM39 29L39 30L40 30L40 29ZM56 29L56 30L57 30L57 29ZM10 30L10 31L9 31L9 32L10 32L10 33L11 33L11 32L10 32L10 31L12 31L12 30ZM6 31L6 32L8 32L8 31ZM15 31L15 32L14 32L14 33L15 33L15 32L16 32L16 33L17 33L17 34L18 34L18 33L19 33L19 31L17 31L17 32L16 32L16 31ZM28 31L28 32L29 32L29 31ZM41 31L41 32L42 32L42 33L44 33L44 34L42 34L42 35L44 35L44 37L45 37L45 35L46 35L46 34L47 34L47 33L46 33L46 34L45 34L45 32L42 32L42 31ZM17 32L17 33L18 33L18 32ZM54 33L54 34L55 34L55 33ZM6 34L6 35L7 35L7 34ZM8 34L8 36L5 36L5 37L8 37L8 36L10 36L10 35L9 35L9 34ZM22 35L22 37L24 37L24 38L23 38L23 39L24 39L24 40L25 40L25 38L28 38L28 37L24 37L24 36L23 36L23 35ZM25 35L25 36L26 36L26 35ZM39 35L39 36L40 36L40 38L39 38L39 39L38 39L38 40L37 40L37 41L38 41L38 40L39 40L39 39L41 39L41 36L40 36L40 35ZM30 36L30 38L31 38L31 36ZM42 36L42 37L43 37L43 36ZM17 39L17 40L18 40L18 39ZM27 39L27 40L28 40L28 39ZM5 40L5 41L4 41L4 42L5 42L5 41L7 41L7 40ZM1 41L1 42L2 42L2 41ZM13 41L13 42L14 42L14 41ZM31 41L31 42L32 42L32 41ZM33 41L33 42L34 42L34 41ZM6 42L6 43L7 43L7 42ZM36 42L36 43L37 43L37 42ZM39 42L39 43L40 43L40 42ZM2 44L2 45L1 45L1 47L2 47L2 46L3 46L3 47L5 47L5 45L3 45L3 44ZM25 44L25 45L26 45L26 44ZM18 45L18 46L19 46L19 45ZM42 45L42 46L43 46L43 47L44 47L44 46L43 46L43 45ZM52 45L52 46L53 46L53 45ZM54 46L54 47L55 47L55 46ZM11 47L11 48L12 48L12 47ZM28 47L28 48L29 48L29 47ZM20 48L20 49L21 49L21 48ZM38 48L38 49L39 49L39 50L38 50L38 51L37 51L37 52L38 52L38 51L40 51L40 48ZM22 49L22 50L23 50L23 49ZM24 49L24 50L25 50L25 49ZM27 49L27 52L30 52L30 49ZM49 49L49 52L52 52L52 49ZM28 50L28 51L29 51L29 50ZM50 50L50 51L51 51L51 50ZM46 52L46 54L47 54L47 55L48 55L48 56L49 56L49 55L48 55L48 54L47 54L47 53L48 53L48 52ZM53 52L53 54L54 54L54 52ZM25 53L25 54L26 54L26 53ZM29 53L29 54L30 54L30 53ZM9 54L9 55L10 55L10 54ZM11 55L11 56L12 56L12 55ZM15 55L15 56L16 56L16 55ZM27 55L27 56L28 56L28 55ZM45 56L45 57L46 57L46 56ZM0 0L0 7L7 7L7 0ZM1 1L1 6L6 6L6 1ZM2 2L2 5L5 5L5 2ZM50 0L50 7L57 7L57 0ZM51 1L51 6L56 6L56 1ZM52 2L52 5L55 5L55 2ZM0 50L0 57L7 57L7 50ZM1 51L1 56L6 56L6 51ZM2 52L2 55L5 55L5 52Z" fill="#000000"/></g></g></svg>
