<?xml version="1.0" encoding="UTF-8"?>
<svg xmlns="http://www.w3.org/2000/svg" version="1.1" width="300" height="300" viewBox="0 0 300 300"><rect x="0" y="0" width="300" height="300" fill="#ffffff"/><g transform="scale(4.918)"><g transform="translate(2,2)"><path fill-rule="evenodd" d="M12 0L12 2L11 2L11 1L10 1L10 5L8 5L8 7L9 7L9 8L6 8L6 9L5 9L5 8L0 8L0 10L1 10L1 11L2 11L2 12L0 12L0 13L1 13L1 14L2 14L2 15L4 15L4 16L3 16L3 17L2 17L2 16L1 16L1 17L0 17L0 18L2 18L2 19L1 19L1 21L0 21L0 23L1 23L1 24L2 24L2 25L1 25L1 26L0 26L0 28L2 28L2 31L1 31L1 29L0 29L0 31L1 31L1 32L2 32L2 31L3 31L3 32L4 32L4 33L5 33L5 34L6 34L6 35L5 35L5 36L4 36L4 34L3 34L3 33L2 33L2 34L1 34L1 33L0 33L0 34L1 34L1 35L2 35L2 36L1 36L1 38L2 38L2 39L0 39L0 43L1 43L1 44L0 44L0 45L2 45L2 47L1 47L1 46L0 46L0 48L5 48L5 47L7 47L7 48L6 48L6 49L7 49L7 48L14 48L14 47L15 47L15 49L12 49L12 50L11 50L11 49L10 49L10 50L9 50L9 49L8 49L8 51L10 51L10 52L8 52L8 57L13 57L13 56L12 56L12 55L13 55L13 54L14 54L14 56L15 56L15 55L16 55L16 57L17 57L17 56L18 56L18 57L21 57L21 56L22 56L22 55L23 55L23 57L24 57L24 55L23 55L23 54L24 54L24 53L25 53L25 54L27 54L27 53L28 53L28 54L30 54L30 53L31 53L31 55L32 55L32 56L30 56L30 55L29 55L29 56L30 56L30 57L32 57L32 56L33 56L33 57L37 57L37 56L42 56L42 57L44 57L44 56L45 56L45 55L44 55L44 56L43 56L43 55L42 55L42 54L43 54L43 53L44 53L44 54L46 54L46 55L48 55L48 57L49 57L49 56L50 56L50 55L51 55L51 57L52 57L52 56L54 56L54 57L56 57L56 56L55 56L55 53L54 53L54 52L56 52L56 53L57 53L57 52L56 52L56 51L55 51L55 50L57 50L57 48L56 48L56 46L57 46L57 45L56 45L56 44L57 44L57 43L56 43L56 41L54 41L54 40L55 40L55 39L57 39L57 37L55 37L55 38L54 38L54 36L56 36L56 35L55 35L55 34L57 34L57 33L56 33L56 32L57 32L57 31L56 31L56 30L57 30L57 28L55 28L55 27L53 27L53 26L52 26L52 24L54 24L54 26L55 26L55 25L56 25L56 26L57 26L57 25L56 25L56 22L57 22L57 21L54 21L54 20L55 20L55 18L57 18L57 15L56 15L56 14L57 14L57 11L56 11L56 8L55 8L55 11L54 11L54 10L50 10L50 8L49 8L49 6L48 6L48 8L47 8L47 5L48 5L48 0L45 0L45 1L47 1L47 2L44 2L44 0L40 0L40 1L43 1L43 3L42 3L42 2L39 2L39 1L36 1L36 0L35 0L35 1L34 1L34 0L33 0L33 1L32 1L32 2L30 2L30 3L29 3L29 2L28 2L28 3L27 3L27 4L26 4L26 3L25 3L25 2L24 2L24 1L26 1L26 0L23 0L23 2L21 2L21 1L22 1L22 0L21 0L21 1L20 1L20 0L19 0L19 1L16 1L16 0ZM29 0L29 1L31 1L31 0ZM8 1L8 2L9 2L9 1ZM13 1L13 2L12 2L12 4L11 4L11 5L12 5L12 6L11 6L11 7L10 7L10 6L9 6L9 7L10 7L10 8L9 8L9 9L11 9L11 10L8 10L8 12L7 12L7 11L6 11L6 10L7 10L7 9L6 9L6 10L4 10L4 9L2 9L2 10L3 10L3 11L4 11L4 13L3 13L3 12L2 12L2 14L4 14L4 13L5 13L5 15L6 15L6 16L7 16L7 17L6 17L6 18L5 18L5 19L6 19L6 20L7 20L7 21L6 21L6 22L7 22L7 21L8 21L8 20L9 20L9 22L8 22L8 23L5 23L5 22L4 22L4 21L3 21L3 20L2 20L2 23L3 23L3 25L2 25L2 27L3 27L3 26L4 26L4 24L8 24L8 25L9 25L9 27L10 27L10 29L12 29L12 28L13 28L13 29L14 29L14 30L12 30L12 32L9 32L9 31L6 31L6 32L9 32L9 33L8 33L8 34L7 34L7 33L6 33L6 34L7 34L7 35L6 35L6 36L5 36L5 37L4 37L4 38L7 38L7 39L6 39L6 40L5 40L5 39L3 39L3 40L2 40L2 41L1 41L1 42L2 42L2 43L3 43L3 42L4 42L4 44L5 44L5 42L4 42L4 40L5 40L5 41L6 41L6 42L7 42L7 43L6 43L6 44L8 44L8 43L9 43L9 45L4 45L4 46L3 46L3 47L5 47L5 46L9 46L9 45L11 45L11 44L12 44L12 45L13 45L13 44L17 44L17 45L16 45L16 46L17 46L17 47L16 47L16 48L17 48L17 47L18 47L18 48L19 48L19 49L16 49L16 51L17 51L17 50L21 50L21 51L18 51L18 52L16 52L16 53L15 53L15 50L14 50L14 51L13 51L13 52L12 52L12 51L11 51L11 50L10 50L10 51L11 51L11 53L12 53L12 54L11 54L11 55L12 55L12 54L13 54L13 53L15 53L15 54L16 54L16 53L17 53L17 54L20 54L20 55L18 55L18 56L21 56L21 53L24 53L24 51L25 51L25 53L26 53L26 51L25 51L25 50L23 50L23 48L24 48L24 47L23 47L23 45L25 45L25 49L26 49L26 48L30 48L30 47L26 47L26 46L27 46L27 45L28 45L28 46L31 46L31 44L32 44L32 47L33 47L33 48L31 48L31 49L32 49L32 50L31 50L31 52L32 52L32 54L33 54L33 55L34 55L34 56L35 56L35 55L34 55L34 54L39 54L39 53L38 53L38 52L40 52L40 55L41 55L41 54L42 54L42 53L41 53L41 52L40 52L40 51L44 51L44 53L46 53L46 54L49 54L49 55L50 55L50 54L51 54L51 55L53 55L53 54L51 54L51 53L48 53L48 52L47 52L47 51L48 51L48 48L49 48L49 47L51 47L51 48L54 48L54 49L56 49L56 48L54 48L54 47L55 47L55 46L56 46L56 45L55 45L55 44L56 44L56 43L55 43L55 44L54 44L54 45L55 45L55 46L53 46L53 45L52 45L52 44L53 44L53 43L54 43L54 41L51 41L51 40L52 40L52 39L53 39L53 40L54 40L54 38L53 38L53 37L52 37L52 34L53 34L53 35L54 35L54 34L53 34L53 33L51 33L51 34L50 34L50 32L49 32L49 31L48 31L48 28L47 28L47 25L49 25L49 26L51 26L51 24L52 24L52 23L55 23L55 22L53 22L53 20L52 20L52 21L51 21L51 19L53 19L53 18L54 18L54 17L55 17L55 16L56 16L56 15L55 15L55 16L54 16L54 14L56 14L56 13L55 13L55 12L54 12L54 11L53 11L53 12L52 12L52 11L50 11L50 10L48 10L48 9L49 9L49 8L48 8L48 9L47 9L47 8L46 8L46 9L45 9L45 8L44 8L44 9L43 9L43 11L44 11L44 13L43 13L43 14L42 14L42 10L41 10L41 9L42 9L42 6L43 6L43 7L44 7L44 6L45 6L45 7L46 7L46 6L45 6L45 5L44 5L44 4L46 4L46 5L47 5L47 3L43 3L43 5L42 5L42 3L40 3L40 4L39 4L39 2L35 2L35 3L34 3L34 4L33 4L33 3L32 3L32 4L31 4L31 9L32 9L32 10L33 10L33 11L34 11L34 12L37 12L37 11L34 11L34 10L35 10L35 9L33 9L33 8L36 8L36 6L37 6L37 8L38 8L38 6L39 6L39 7L40 7L40 6L41 6L41 8L39 8L39 9L36 9L36 10L39 10L39 12L38 12L38 13L37 13L37 14L35 14L35 13L33 13L33 12L30 12L30 11L31 11L31 10L30 10L30 11L29 11L29 10L28 10L28 9L25 9L25 8L26 8L26 4L25 4L25 8L24 8L24 6L23 6L23 5L24 5L24 4L23 4L23 3L22 3L22 4L21 4L21 2L20 2L20 1L19 1L19 4L18 4L18 3L17 3L17 2L16 2L16 3L14 3L14 4L13 4L13 2L15 2L15 1ZM33 1L33 2L34 2L34 1ZM8 3L8 4L9 4L9 3ZM28 3L28 4L29 4L29 3ZM36 3L36 5L35 5L35 6L34 6L34 5L33 5L33 6L32 6L32 8L33 8L33 6L34 6L34 7L35 7L35 6L36 6L36 5L38 5L38 3ZM14 4L14 5L13 5L13 6L12 6L12 7L11 7L11 8L12 8L12 13L9 13L9 12L8 12L8 13L7 13L7 12L5 12L5 13L7 13L7 14L6 14L6 15L7 15L7 16L8 16L8 17L7 17L7 18L6 18L6 19L7 19L7 20L8 20L8 19L9 19L9 20L10 20L10 19L11 19L11 18L12 18L12 20L11 20L11 22L9 22L9 23L10 23L10 26L11 26L11 24L12 24L12 25L13 25L13 26L12 26L12 27L11 27L11 28L12 28L12 27L14 27L14 26L15 26L15 25L13 25L13 24L14 24L14 23L11 23L11 22L14 22L14 21L13 21L13 20L14 20L14 19L13 19L13 18L15 18L15 21L16 21L16 22L15 22L15 23L16 23L16 24L17 24L17 25L18 25L18 26L17 26L17 27L16 27L16 28L14 28L14 29L15 29L15 31L16 31L16 33L15 33L15 32L14 32L14 31L13 31L13 32L12 32L12 34L11 34L11 33L10 33L10 34L9 34L9 35L7 35L7 36L6 36L6 37L7 37L7 36L9 36L9 35L10 35L10 34L11 34L11 35L13 35L13 34L14 34L14 33L15 33L15 35L14 35L14 37L15 37L15 38L12 38L12 37L11 37L11 38L10 38L10 40L9 40L9 38L8 38L8 40L6 40L6 41L8 41L8 40L9 40L9 41L10 41L10 42L9 42L9 43L12 43L12 42L11 42L11 41L12 41L12 40L13 40L13 41L14 41L14 43L15 43L15 41L16 41L16 39L15 39L15 38L16 38L16 37L15 37L15 36L16 36L16 35L17 35L17 34L18 34L18 33L19 33L19 32L20 32L20 33L21 33L21 34L20 34L20 35L21 35L21 34L22 34L22 33L21 33L21 32L20 32L20 31L23 31L23 32L24 32L24 33L23 33L23 34L25 34L25 35L24 35L24 36L23 36L23 37L22 37L22 36L21 36L21 37L19 37L19 35L18 35L18 37L17 37L17 38L18 38L18 39L19 39L19 40L17 40L17 42L18 42L18 43L17 43L17 44L18 44L18 45L17 45L17 46L18 46L18 47L19 47L19 48L20 48L20 49L21 49L21 48L20 48L20 47L21 47L21 46L22 46L22 45L23 45L23 43L25 43L25 41L24 41L24 40L25 40L25 39L27 39L27 40L28 40L28 41L31 41L31 42L30 42L30 43L29 43L29 42L28 42L28 43L26 43L26 44L25 44L25 45L26 45L26 44L28 44L28 45L29 45L29 44L30 44L30 43L32 43L32 44L34 44L34 43L37 43L37 44L35 44L35 45L36 45L36 46L33 46L33 47L35 47L35 48L36 48L36 49L35 49L35 50L33 50L33 51L32 51L32 52L34 52L34 51L35 51L35 50L36 50L36 52L35 52L35 53L37 53L37 50L38 50L38 51L39 51L39 50L38 50L38 48L39 48L39 49L40 49L40 48L42 48L42 49L41 49L41 50L46 50L46 51L47 51L47 50L46 50L46 49L47 49L47 48L45 48L45 47L47 47L47 46L46 46L46 45L47 45L47 44L48 44L48 46L49 46L49 44L52 44L52 43L53 43L53 42L51 42L51 41L49 41L49 43L48 43L48 42L46 42L46 43L44 43L44 42L45 42L45 41L46 41L46 38L45 38L45 37L44 37L44 35L45 35L45 36L47 36L47 35L48 35L48 33L47 33L47 32L48 32L48 31L47 31L47 30L46 30L46 29L47 29L47 28L46 28L46 27L44 27L44 28L43 28L43 26L44 26L44 25L43 25L43 24L46 24L46 22L45 22L45 21L44 21L44 23L42 23L42 22L43 22L43 21L42 21L42 19L41 19L41 18L46 18L46 19L43 19L43 20L46 20L46 21L47 21L47 24L49 24L49 25L50 25L50 23L51 23L51 22L50 22L50 19L49 19L49 20L46 20L46 19L47 19L47 18L50 18L50 17L51 17L51 18L52 18L52 17L51 17L51 16L49 16L49 17L48 17L48 16L47 16L47 18L46 18L46 17L44 17L44 16L46 16L46 15L51 15L51 14L52 14L52 13L51 13L51 12L50 12L50 13L51 13L51 14L49 14L49 13L47 13L47 14L46 14L46 12L45 12L45 15L44 15L44 14L43 14L43 15L42 15L42 14L41 14L41 13L40 13L40 14L41 14L41 15L40 15L40 16L38 16L38 15L39 15L39 14L37 14L37 16L36 16L36 15L35 15L35 14L33 14L33 13L32 13L32 15L30 15L30 14L31 14L31 13L28 13L28 12L29 12L29 11L27 11L27 10L26 10L26 11L27 11L27 12L25 12L25 13L23 13L23 11L24 11L24 10L25 10L25 9L24 9L24 8L23 8L23 9L22 9L22 8L21 8L21 6L22 6L22 7L23 7L23 6L22 6L22 5L23 5L23 4L22 4L22 5L21 5L21 4L19 4L19 5L18 5L18 4L17 4L17 5L18 5L18 7L17 7L17 6L16 6L16 7L15 7L15 5L16 5L16 4ZM19 5L19 7L20 7L20 5ZM27 5L27 8L30 8L30 5ZM39 5L39 6L40 6L40 5ZM13 6L13 7L14 7L14 6ZM28 6L28 7L29 7L29 6ZM16 7L16 8L17 8L17 7ZM14 8L14 9L15 9L15 8ZM19 8L19 9L16 9L16 11L15 11L15 13L13 13L13 14L14 14L14 15L15 15L15 14L17 14L17 15L16 15L16 16L18 16L18 15L19 15L19 14L21 14L21 15L20 15L20 16L19 16L19 17L16 17L16 18L19 18L19 19L21 19L21 17L22 17L22 18L23 18L23 16L21 16L21 15L22 15L22 14L23 14L23 15L24 15L24 14L23 14L23 13L22 13L22 12L21 12L21 11L22 11L22 10L21 10L21 8ZM51 8L51 9L52 9L52 8ZM53 8L53 9L54 9L54 8ZM19 9L19 10L18 10L18 11L16 11L16 13L17 13L17 14L19 14L19 13L21 13L21 14L22 14L22 13L21 13L21 12L20 12L20 11L21 11L21 10L20 10L20 9ZM44 9L44 10L45 10L45 11L47 11L47 10L45 10L45 9ZM19 10L19 11L20 11L20 10ZM10 11L10 12L11 12L11 11ZM13 11L13 12L14 12L14 11ZM48 11L48 12L49 12L49 11ZM17 12L17 13L18 13L18 12ZM8 13L8 14L9 14L9 15L10 15L10 14L9 14L9 13ZM25 13L25 14L26 14L26 16L25 16L25 18L24 18L24 20L23 20L23 19L22 19L22 21L21 21L21 20L20 20L20 21L18 21L18 20L16 20L16 21L18 21L18 22L17 22L17 23L19 23L19 25L20 25L20 27L19 27L19 26L18 26L18 27L17 27L17 28L18 28L18 29L16 29L16 31L18 31L18 29L19 29L19 31L20 31L20 30L23 30L23 31L25 31L25 34L26 34L26 35L25 35L25 36L26 36L26 35L27 35L27 37L28 37L28 38L27 38L27 39L28 39L28 40L31 40L31 41L33 41L33 40L31 40L31 39L33 39L33 38L34 38L34 42L32 42L32 43L34 43L34 42L36 42L36 40L37 40L37 41L38 41L38 42L37 42L37 43L38 43L38 46L37 46L37 47L36 47L36 48L38 48L38 47L39 47L39 48L40 48L40 47L41 47L41 46L42 46L42 47L45 47L45 44L44 44L44 45L43 45L43 44L40 44L40 43L41 43L41 40L42 40L42 39L45 39L45 38L44 38L44 37L43 37L43 36L42 36L42 37L43 37L43 38L41 38L41 36L40 36L40 35L38 35L38 38L39 38L39 41L38 41L38 39L36 39L36 40L35 40L35 38L36 38L36 36L37 36L37 35L35 35L35 36L33 36L33 35L34 35L34 34L35 34L35 33L36 33L36 32L37 32L37 31L36 31L36 32L35 32L35 31L33 31L33 32L31 32L31 31L28 31L28 32L30 32L30 33L32 33L32 34L31 34L31 35L32 35L32 38L31 38L31 36L30 36L30 34L29 34L29 33L26 33L26 32L27 32L27 31L25 31L25 30L26 30L26 27L25 27L25 28L23 28L23 26L24 26L24 25L25 25L25 26L26 26L26 25L27 25L27 24L28 24L28 26L29 26L29 25L32 25L32 26L33 26L33 28L32 28L32 27L31 27L31 28L32 28L32 30L35 30L35 29L36 29L36 28L37 28L37 30L39 30L39 29L40 29L40 31L38 31L38 33L37 33L37 34L39 34L39 32L40 32L40 34L41 34L41 35L44 35L44 34L45 34L45 35L46 35L46 34L47 34L47 33L46 33L46 32L47 32L47 31L46 31L46 30L44 30L44 31L46 31L46 32L43 32L43 33L44 33L44 34L41 34L41 33L42 33L42 32L40 32L40 31L41 31L41 30L42 30L42 31L43 31L43 30L42 30L42 29L43 29L43 28L42 28L42 26L41 26L41 24L42 24L42 23L41 23L41 22L42 22L42 21L41 21L41 20L40 20L40 19L39 19L39 20L40 20L40 21L41 21L41 22L40 22L40 24L39 24L39 21L38 21L38 23L36 23L36 22L37 22L37 21L36 21L36 20L38 20L38 18L39 18L39 17L38 17L38 18L37 18L37 19L34 19L34 18L35 18L35 17L36 17L36 16L35 16L35 15L33 15L33 16L30 16L30 15L28 15L28 16L27 16L27 14L28 14L28 13ZM12 15L12 17L15 17L15 16L13 16L13 15ZM41 15L41 16L40 16L40 18L41 18L41 16L42 16L42 17L43 17L43 16L44 16L44 15L43 15L43 16L42 16L42 15ZM52 15L52 16L53 16L53 17L54 17L54 16L53 16L53 15ZM9 16L9 18L11 18L11 16ZM20 16L20 17L21 17L21 16ZM26 16L26 18L25 18L25 20L24 20L24 21L22 21L22 22L21 22L21 23L22 23L22 24L20 24L20 25L22 25L22 26L21 26L21 27L22 27L22 26L23 26L23 25L22 25L22 24L24 24L24 23L23 23L23 22L24 22L24 21L25 21L25 22L26 22L26 23L25 23L25 24L27 24L27 23L28 23L28 24L29 24L29 23L30 23L30 24L34 24L34 23L35 23L35 25L37 25L37 26L36 26L36 27L34 27L34 28L33 28L33 29L35 29L35 28L36 28L36 27L37 27L37 26L38 26L38 25L39 25L39 24L36 24L36 23L35 23L35 22L33 22L33 21L34 21L34 20L33 20L33 19L32 19L32 18L31 18L31 17L29 17L29 16L28 16L28 17L27 17L27 16ZM33 17L33 18L34 18L34 17ZM27 18L27 19L26 19L26 21L29 21L29 22L30 22L30 23L31 23L31 22L30 22L30 21L31 21L31 20L30 20L30 19L31 19L31 18L29 18L29 19L28 19L28 18ZM27 19L27 20L28 20L28 19ZM29 20L29 21L30 21L30 20ZM32 20L32 21L33 21L33 20ZM3 22L3 23L4 23L4 22ZM19 22L19 23L20 23L20 22ZM49 22L49 23L50 23L50 22ZM5 25L5 26L7 26L7 25ZM5 27L5 30L8 30L8 27ZM27 27L27 30L30 30L30 27ZM39 27L39 28L38 28L38 29L39 29L39 28L40 28L40 27ZM49 27L49 30L52 30L52 27ZM3 28L3 30L4 30L4 28ZM6 28L6 29L7 29L7 28ZM19 28L19 29L22 29L22 28ZM28 28L28 29L29 29L29 28ZM44 28L44 29L45 29L45 28ZM50 28L50 29L51 29L51 28ZM54 28L54 29L55 29L55 30L54 30L54 31L53 31L53 32L54 32L54 33L55 33L55 32L54 32L54 31L55 31L55 30L56 30L56 29L55 29L55 28ZM23 29L23 30L25 30L25 29ZM10 30L10 31L11 31L11 30ZM4 31L4 32L5 32L5 31ZM33 32L33 34L32 34L32 35L33 35L33 34L34 34L34 32ZM16 33L16 34L17 34L17 33ZM45 33L45 34L46 34L46 33ZM2 34L2 35L3 35L3 34ZM50 35L50 37L47 37L47 38L48 38L48 39L49 39L49 40L51 40L51 39L49 39L49 38L50 38L50 37L51 37L51 35ZM29 36L29 39L31 39L31 38L30 38L30 36ZM39 36L39 38L40 38L40 36ZM18 37L18 38L19 38L19 39L20 39L20 38L19 38L19 37ZM21 37L21 38L22 38L22 37ZM23 37L23 38L24 38L24 37ZM25 37L25 38L26 38L26 37ZM11 38L11 40L10 40L10 41L11 41L11 40L12 40L12 38ZM21 39L21 40L19 40L19 41L20 41L20 42L19 42L19 43L20 43L20 44L19 44L19 45L20 45L20 46L19 46L19 47L20 47L20 46L21 46L21 45L22 45L22 44L21 44L21 43L22 43L22 41L23 41L23 40L24 40L24 39ZM40 39L40 40L41 40L41 39ZM14 40L14 41L15 41L15 40ZM43 40L43 42L42 42L42 43L43 43L43 42L44 42L44 41L45 41L45 40ZM26 41L26 42L27 42L27 41ZM39 41L39 42L38 42L38 43L39 43L39 42L40 42L40 41ZM20 42L20 43L21 43L21 42ZM50 42L50 43L51 43L51 42ZM28 43L28 44L29 44L29 43ZM2 44L2 45L3 45L3 44ZM20 44L20 45L21 45L21 44ZM39 44L39 46L41 46L41 45L40 45L40 44ZM42 45L42 46L43 46L43 45ZM50 45L50 46L51 46L51 47L53 47L53 46L52 46L52 45ZM10 46L10 47L12 47L12 46ZM33 48L33 49L34 49L34 48ZM43 48L43 49L45 49L45 48ZM27 49L27 52L30 52L30 49ZM49 49L49 52L52 52L52 49ZM28 50L28 51L29 51L29 50ZM50 50L50 51L51 51L51 50ZM18 52L18 53L20 53L20 52ZM46 52L46 53L47 53L47 52ZM33 53L33 54L34 54L34 53ZM9 55L9 56L10 56L10 55ZM25 55L25 57L26 57L26 56L28 56L28 55ZM36 55L36 56L37 56L37 55ZM46 56L46 57L47 57L47 56ZM0 0L0 7L7 7L7 0ZM1 1L1 6L6 6L6 1ZM2 2L2 5L5 5L5 2ZM50 0L50 7L57 7L57 0ZM51 1L51 6L56 6L56 1ZM52 2L52 5L55 5L55 2ZM0 50L0 57L7 57L7 50ZM1 51L1 56L6 56L6 51ZM2 52L2 55L5 55L5 52Z" fill="#000000"/></g></g></svg>
