<?xml version="1.0" encoding="UTF-8"?>
<svg xmlns="http://www.w3.org/2000/svg" version="1.1" width="300" height="300" viewBox="0 0 300 300"><rect x="0" y="0" width="300" height="300" fill="#ffffff"/><g transform="scale(4.918)"><g transform="translate(2,2)"><path fill-rule="evenodd" d="M8 0L8 4L9 4L9 5L8 5L8 7L9 7L9 6L10 6L10 9L7 9L7 8L4 8L4 9L5 9L5 10L3 10L3 11L2 11L2 8L0 8L0 9L1 9L1 13L2 13L2 14L1 14L1 15L0 15L0 16L2 16L2 17L3 17L3 18L2 18L2 19L1 19L1 18L0 18L0 22L1 22L1 23L0 23L0 28L1 28L1 29L2 29L2 27L3 27L3 31L1 31L1 32L0 32L0 35L1 35L1 33L2 33L2 34L3 34L3 35L2 35L2 36L1 36L1 37L0 37L0 39L3 39L3 41L2 41L2 40L1 40L1 42L0 42L0 43L1 43L1 42L2 42L2 45L1 45L1 46L0 46L0 48L5 48L5 47L7 47L7 48L6 48L6 49L7 49L7 48L8 48L8 50L9 50L9 51L8 51L8 53L9 53L9 51L10 51L10 52L11 52L11 53L10 53L10 54L11 54L11 55L8 55L8 57L9 57L9 56L10 56L10 57L12 57L12 56L13 56L13 57L14 57L14 56L13 56L13 54L14 54L14 55L15 55L15 56L17 56L17 57L19 57L19 56L22 56L22 55L23 55L23 57L25 57L25 56L26 56L26 57L28 57L28 56L29 56L29 57L34 57L34 56L30 56L30 55L29 55L29 53L30 53L30 54L31 54L31 55L33 55L33 54L34 54L34 55L35 55L35 57L37 57L37 56L38 56L38 57L39 57L39 56L38 56L38 55L41 55L41 56L42 56L42 57L43 57L43 56L44 56L44 57L45 57L45 56L46 56L46 55L47 55L47 54L46 54L46 53L47 53L47 52L44 52L44 50L45 50L45 49L46 49L46 48L48 48L48 50L47 50L47 51L48 51L48 53L50 53L50 54L49 54L49 55L48 55L48 56L47 56L47 57L49 57L49 56L50 56L50 57L51 57L51 56L52 56L52 55L53 55L53 54L54 54L54 55L55 55L55 54L57 54L57 51L56 51L56 49L53 49L53 47L52 47L52 45L54 45L54 47L56 47L56 48L57 48L57 47L56 47L56 45L57 45L57 43L56 43L56 42L57 42L57 40L54 40L54 42L53 42L53 43L52 43L52 42L51 42L51 43L50 43L50 42L49 42L49 41L53 41L53 39L54 39L54 38L52 38L52 37L53 37L53 36L52 36L52 37L51 37L51 36L50 36L50 37L49 37L49 36L48 36L48 37L47 37L47 35L46 35L46 33L45 33L45 31L43 31L43 29L42 29L42 31L41 31L41 29L40 29L40 25L39 25L39 24L38 24L38 23L41 23L41 28L42 28L42 27L43 27L43 28L44 28L44 30L45 30L45 28L46 28L46 29L47 29L47 31L46 31L46 32L47 32L47 31L48 31L48 32L49 32L49 31L50 31L50 32L51 32L51 31L52 31L52 33L50 33L50 34L48 34L48 33L47 33L47 34L48 34L48 35L50 35L50 34L52 34L52 33L54 33L54 34L53 34L53 35L55 35L55 37L57 37L57 35L55 35L55 33L57 33L57 32L56 32L56 30L55 30L55 33L54 33L54 31L53 31L53 29L54 29L54 28L53 28L53 27L55 27L55 29L56 29L56 26L57 26L57 24L55 24L55 25L54 25L54 26L53 26L53 25L52 25L52 22L53 22L53 23L56 23L56 22L55 22L55 21L57 21L57 20L55 20L55 21L54 21L54 20L53 20L53 21L52 21L52 22L51 22L51 20L52 20L52 19L51 19L51 20L50 20L50 18L51 18L51 17L52 17L52 16L53 16L53 18L55 18L55 19L56 19L56 17L57 17L57 16L56 16L56 17L54 17L54 15L53 15L53 14L52 14L52 16L50 16L50 15L46 15L46 14L45 14L45 12L44 12L44 11L46 11L46 12L48 12L48 11L46 11L46 9L48 9L48 10L49 10L49 11L51 11L51 9L52 9L52 8L51 8L51 9L48 9L48 8L49 8L49 6L48 6L48 7L47 7L47 5L48 5L48 0L46 0L46 1L45 1L45 0L42 0L42 1L41 1L41 3L40 3L40 2L38 2L38 1L40 1L40 0L38 0L38 1L37 1L37 0L35 0L35 1L34 1L34 0L33 0L33 1L32 1L32 2L30 2L30 1L31 1L31 0L30 0L30 1L29 1L29 0L26 0L26 1L25 1L25 0L22 0L22 1L21 1L21 0L20 0L20 2L21 2L21 3L22 3L22 5L21 5L21 4L20 4L20 3L19 3L19 5L20 5L20 7L21 7L21 9L20 9L20 8L18 8L18 7L19 7L19 6L18 6L18 7L17 7L17 5L18 5L18 2L19 2L19 1L18 1L18 0L17 0L17 2L16 2L16 3L15 3L15 1L14 1L14 2L13 2L13 3L11 3L11 0L10 0L10 1L9 1L9 0ZM12 0L12 1L13 1L13 0ZM22 1L22 2L23 2L23 1ZM28 1L28 2L27 2L27 3L30 3L30 2L29 2L29 1ZM33 1L33 3L32 3L32 4L34 4L34 5L33 5L33 7L32 7L32 6L31 6L31 9L32 9L32 10L33 10L33 11L31 11L31 10L29 10L29 9L28 9L28 12L27 12L27 11L26 11L26 10L24 10L24 11L25 11L25 12L22 12L22 11L21 11L21 10L23 10L23 9L24 9L24 6L25 6L25 8L26 8L26 3L24 3L24 5L23 5L23 8L22 8L22 9L21 9L21 10L20 10L20 9L19 9L19 10L20 10L20 11L19 11L19 12L18 12L18 13L16 13L16 12L15 12L15 9L16 9L16 11L18 11L18 9L16 9L16 8L17 8L17 7L16 7L16 5L15 5L15 3L14 3L14 5L13 5L13 4L11 4L11 3L10 3L10 2L9 2L9 3L10 3L10 6L11 6L11 7L12 7L12 6L13 6L13 9L14 9L14 10L12 10L12 9L10 9L10 10L12 10L12 11L9 11L9 12L8 12L8 10L7 10L7 9L6 9L6 10L7 10L7 11L3 11L3 14L2 14L2 15L3 15L3 14L5 14L5 13L4 13L4 12L7 12L7 13L6 13L6 14L7 14L7 15L5 15L5 16L4 16L4 17L6 17L6 18L4 18L4 19L2 19L2 20L1 20L1 21L2 21L2 20L4 20L4 22L2 22L2 24L1 24L1 26L2 26L2 24L3 24L3 25L4 25L4 26L3 26L3 27L4 27L4 26L5 26L5 25L6 25L6 26L9 26L9 25L11 25L11 24L12 24L12 26L11 26L11 27L9 27L9 28L11 28L11 29L9 29L9 30L10 30L10 31L11 31L11 30L12 30L12 34L13 34L13 35L11 35L11 33L10 33L10 32L9 32L9 31L8 31L8 32L7 32L7 31L3 31L3 32L2 32L2 33L4 33L4 32L7 32L7 33L6 33L6 34L4 34L4 35L3 35L3 36L4 36L4 37L6 37L6 38L7 38L7 39L5 39L5 38L3 38L3 37L2 37L2 38L3 38L3 39L5 39L5 40L7 40L7 39L8 39L8 42L7 42L7 41L6 41L6 42L7 42L7 43L5 43L5 42L4 42L4 41L3 41L3 42L4 42L4 43L3 43L3 44L4 44L4 45L5 45L5 44L8 44L8 45L10 45L10 47L8 47L8 46L7 46L7 45L6 45L6 46L7 46L7 47L8 47L8 48L9 48L9 49L13 49L13 50L11 50L11 52L12 52L12 54L13 54L13 51L14 51L14 54L15 54L15 55L16 55L16 54L19 54L19 55L17 55L17 56L19 56L19 55L20 55L20 54L21 54L21 53L23 53L23 55L24 55L24 56L25 56L25 55L26 55L26 56L27 56L27 55L28 55L28 54L27 54L27 53L26 53L26 51L25 51L25 50L22 50L22 49L25 49L25 48L27 48L27 47L22 47L22 48L21 48L21 46L20 46L20 45L22 45L22 46L24 46L24 45L26 45L26 44L27 44L27 43L29 43L29 44L30 44L30 43L31 43L31 42L30 42L30 41L32 41L32 42L33 42L33 43L35 43L35 42L38 42L38 44L39 44L39 46L38 46L38 45L35 45L35 44L34 44L34 47L35 47L35 46L37 46L37 48L39 48L39 50L41 50L41 51L39 51L39 54L41 54L41 55L42 55L42 56L43 56L43 55L44 55L44 56L45 56L45 55L46 55L46 54L45 54L45 53L44 53L44 52L43 52L43 53L44 53L44 54L41 54L41 51L42 51L42 49L43 49L43 47L42 47L42 45L43 45L43 42L44 42L44 43L46 43L46 44L45 44L45 45L44 45L44 47L45 47L45 46L46 46L46 47L48 47L48 44L49 44L49 43L48 43L48 41L49 41L49 40L52 40L52 38L51 38L51 37L50 37L50 39L49 39L49 37L48 37L48 39L49 39L49 40L47 40L47 41L46 41L46 42L45 42L45 41L44 41L44 40L45 40L45 37L44 37L44 36L45 36L45 35L44 35L44 34L43 34L43 35L42 35L42 33L41 33L41 31L40 31L40 29L39 29L39 27L38 27L38 25L36 25L36 26L37 26L37 27L38 27L38 28L37 28L37 32L38 32L38 33L39 33L39 34L40 34L40 33L41 33L41 35L38 35L38 37L40 37L40 38L41 38L41 36L42 36L42 37L44 37L44 38L43 38L43 40L42 40L42 41L43 41L43 42L41 42L41 43L40 43L40 41L41 41L41 40L40 40L40 39L38 39L38 40L40 40L40 41L39 41L39 42L38 42L38 41L36 41L36 40L35 40L35 41L34 41L34 40L33 40L33 38L32 38L32 36L34 36L34 35L37 35L37 34L36 34L36 33L35 33L35 32L34 32L34 31L35 31L35 30L36 30L36 29L34 29L34 28L36 28L36 27L35 27L35 23L34 23L34 22L36 22L36 23L38 23L38 21L39 21L39 22L40 22L40 21L41 21L41 23L42 23L42 25L44 25L44 26L43 26L43 27L44 27L44 28L45 28L45 25L46 25L46 26L47 26L47 25L49 25L49 26L50 26L50 24L51 24L51 23L50 23L50 20L49 20L49 18L50 18L50 16L48 16L48 17L46 17L46 15L45 15L45 17L44 17L44 18L43 18L43 19L37 19L37 18L35 18L35 17L36 17L36 15L37 15L37 17L38 17L38 16L39 16L39 18L40 18L40 17L41 17L41 16L42 16L42 17L43 17L43 15L44 15L44 12L43 12L43 10L45 10L45 9L44 9L44 8L45 8L45 7L46 7L46 6L45 6L45 7L44 7L44 6L43 6L43 5L42 5L42 4L39 4L39 3L38 3L38 2L37 2L37 3L36 3L36 4L35 4L35 3L34 3L34 1ZM35 1L35 2L36 2L36 1ZM42 1L42 2L43 2L43 1ZM44 1L44 2L45 2L45 1ZM46 1L46 2L47 2L47 1ZM37 3L37 4L36 4L36 5L34 5L34 8L33 8L33 10L34 10L34 8L35 8L35 9L36 9L36 10L37 10L37 9L38 9L38 10L39 10L39 11L37 11L37 12L36 12L36 11L33 11L33 12L32 12L32 13L31 13L31 12L30 12L30 11L29 11L29 13L26 13L26 15L28 15L28 16L30 16L30 15L28 15L28 14L29 14L29 13L30 13L30 14L32 14L32 15L31 15L31 17L29 17L29 18L28 18L28 17L27 17L27 18L26 18L26 17L22 17L22 16L23 16L23 15L22 15L22 13L20 13L20 12L21 12L21 11L20 11L20 12L19 12L19 13L18 13L18 14L16 14L16 13L15 13L15 12L14 12L14 11L12 11L12 12L9 12L9 13L11 13L11 14L8 14L8 13L7 13L7 14L8 14L8 17L9 17L9 19L8 19L8 18L6 18L6 19L4 19L4 20L5 20L5 22L4 22L4 24L6 24L6 25L7 25L7 24L8 24L8 25L9 25L9 24L11 24L11 23L12 23L12 24L13 24L13 26L15 26L15 28L16 28L16 29L15 29L15 30L14 30L14 27L13 27L13 28L12 28L12 29L13 29L13 30L14 30L14 31L15 31L15 33L17 33L17 32L18 32L18 33L20 33L20 35L23 35L23 36L24 36L24 37L21 37L21 36L20 36L20 37L19 37L19 35L18 35L18 34L17 34L17 35L16 35L16 34L14 34L14 35L15 35L15 36L12 36L12 37L11 37L11 35L10 35L10 33L9 33L9 35L8 35L8 33L7 33L7 34L6 34L6 35L4 35L4 36L6 36L6 37L7 37L7 38L8 38L8 39L9 39L9 35L10 35L10 37L11 37L11 39L10 39L10 40L11 40L11 41L10 41L10 42L8 42L8 43L9 43L9 44L10 44L10 45L12 45L12 46L13 46L13 47L10 47L10 48L13 48L13 47L14 47L14 49L15 49L15 48L16 48L16 49L17 49L17 50L18 50L18 51L17 51L17 52L18 52L18 53L21 53L21 52L23 52L23 53L24 53L24 54L26 54L26 53L25 53L25 51L22 51L22 50L21 50L21 49L20 49L20 47L18 47L18 46L19 46L19 45L20 45L20 43L22 43L22 44L23 44L23 45L24 45L24 44L23 44L23 43L25 43L25 41L23 41L23 42L21 42L21 41L22 41L22 40L21 40L21 41L20 41L20 40L19 40L19 39L20 39L20 38L22 38L22 39L24 39L24 40L27 40L27 41L26 41L26 43L27 43L27 42L28 42L28 40L27 40L27 39L28 39L28 38L30 38L30 35L31 35L31 36L32 36L32 34L30 34L30 35L29 35L29 34L28 34L28 33L30 33L30 31L32 31L32 33L33 33L33 31L34 31L34 29L33 29L33 27L34 27L34 26L33 26L33 24L34 24L34 23L33 23L33 22L34 22L34 20L33 20L33 19L34 19L34 16L35 16L35 15L36 15L36 14L37 14L37 15L39 15L39 14L41 14L41 13L40 13L40 12L42 12L42 15L43 15L43 12L42 12L42 10L43 10L43 8L44 8L44 7L43 7L43 6L42 6L42 5L40 5L40 8L39 8L39 4L38 4L38 3ZM43 3L43 4L44 4L44 5L47 5L47 3ZM37 4L37 5L36 5L36 6L35 6L35 7L36 7L36 6L37 6L37 8L38 8L38 4ZM27 5L27 8L30 8L30 5ZM14 6L14 9L15 9L15 6ZM21 6L21 7L22 7L22 6ZM28 6L28 7L29 7L29 6ZM41 6L41 7L42 7L42 8L43 8L43 7L42 7L42 6ZM40 8L40 9L41 9L41 8ZM53 8L53 9L57 9L57 8ZM52 10L52 11L53 11L53 12L54 12L54 11L55 11L55 10L54 10L54 11L53 11L53 10ZM56 11L56 13L57 13L57 11ZM33 12L33 13L34 13L34 15L35 15L35 13L34 13L34 12ZM37 12L37 13L38 13L38 12ZM49 12L49 13L47 13L47 14L49 14L49 13L50 13L50 14L51 14L51 13L52 13L52 12L51 12L51 13L50 13L50 12ZM13 13L13 15L14 15L14 16L13 16L13 18L11 18L11 16L12 16L12 15L9 15L9 17L10 17L10 20L9 20L9 22L12 22L12 23L13 23L13 24L14 24L14 23L16 23L16 22L18 22L18 23L17 23L17 24L16 24L16 28L17 28L17 29L16 29L16 30L15 30L15 31L17 31L17 29L18 29L18 28L19 28L19 26L20 26L20 25L19 25L19 26L18 26L18 25L17 25L17 24L19 24L19 23L20 23L20 22L21 22L21 23L22 23L22 22L21 22L21 21L23 21L23 23L24 23L24 24L22 24L22 25L21 25L21 27L20 27L20 29L19 29L19 30L20 30L20 29L21 29L21 30L22 30L22 31L18 31L18 32L20 32L20 33L21 33L21 34L22 34L22 33L25 33L25 30L24 30L24 31L23 31L23 29L25 29L25 28L26 28L26 27L25 27L25 26L23 26L23 25L26 25L26 26L27 26L27 25L28 25L28 26L29 26L29 25L31 25L31 27L33 27L33 26L32 26L32 25L31 25L31 23L30 23L30 21L31 21L31 22L33 22L33 21L32 21L32 20L31 20L31 19L33 19L33 18L32 18L32 17L31 17L31 19L29 19L29 20L28 20L28 19L26 19L26 18L23 18L23 19L26 19L26 20L28 20L28 21L27 21L27 22L26 22L26 23L25 23L25 22L24 22L24 21L23 21L23 20L22 20L22 19L21 19L21 18L22 18L22 17L21 17L21 16L22 16L22 15L21 15L21 14L20 14L20 13L19 13L19 14L18 14L18 15L16 15L16 14L15 14L15 15L14 15L14 13ZM23 13L23 14L25 14L25 13ZM54 13L54 14L55 14L55 15L56 15L56 14L55 14L55 13ZM19 14L19 15L18 15L18 16L16 16L16 15L15 15L15 16L14 16L14 18L13 18L13 19L14 19L14 20L15 20L15 21L13 21L13 20L12 20L12 21L13 21L13 23L14 23L14 22L15 22L15 21L16 21L16 20L18 20L18 21L21 21L21 19L20 19L20 20L19 20L19 19L18 19L18 18L16 18L16 17L20 17L20 18L21 18L21 17L20 17L20 16L19 16L19 15L20 15L20 14ZM6 16L6 17L7 17L7 16ZM15 16L15 17L16 17L16 16ZM45 17L45 19L43 19L43 20L42 20L42 23L43 23L43 22L44 22L44 25L45 25L45 24L46 24L46 23L47 23L47 24L48 24L48 23L49 23L49 20L48 20L48 21L47 21L47 22L46 22L46 20L47 20L47 19L46 19L46 17ZM48 17L48 18L49 18L49 17ZM6 19L6 20L7 20L7 21L6 21L6 22L7 22L7 23L6 23L6 24L7 24L7 23L8 23L8 22L7 22L7 21L8 21L8 20L7 20L7 19ZM35 19L35 20L36 20L36 21L37 21L37 19ZM29 20L29 21L30 21L30 20ZM44 21L44 22L45 22L45 21ZM27 22L27 23L28 23L28 22ZM47 22L47 23L48 23L48 22ZM32 23L32 24L33 24L33 23ZM26 24L26 25L27 25L27 24ZM51 25L51 26L52 26L52 25ZM55 25L55 26L56 26L56 25ZM17 26L17 27L18 27L18 26ZM5 27L5 30L8 30L8 27ZM21 27L21 29L23 29L23 28L22 28L22 27ZM27 27L27 30L30 30L30 27ZM49 27L49 30L52 30L52 27ZM6 28L6 29L7 29L7 28ZM28 28L28 29L29 29L29 28ZM31 28L31 29L32 29L32 31L33 31L33 29L32 29L32 28ZM47 28L47 29L48 29L48 28ZM50 28L50 29L51 29L51 28ZM38 29L38 30L39 30L39 29ZM22 31L22 32L23 32L23 31ZM26 31L26 32L27 32L27 33L26 33L26 34L27 34L27 35L26 35L26 36L27 36L27 37L26 37L26 39L27 39L27 37L29 37L29 36L28 36L28 34L27 34L27 33L28 33L28 32L27 32L27 31ZM39 31L39 33L40 33L40 31ZM42 31L42 32L43 32L43 31ZM13 32L13 33L14 33L14 32ZM23 34L23 35L25 35L25 34ZM6 35L6 36L7 36L7 37L8 37L8 35ZM43 35L43 36L44 36L44 35ZM15 36L15 37L14 37L14 38L13 38L13 37L12 37L12 38L13 38L13 40L12 40L12 41L13 41L13 42L12 42L12 43L13 43L13 44L12 44L12 45L13 45L13 44L14 44L14 45L15 45L15 44L16 44L16 43L18 43L18 41L17 41L17 40L18 40L18 39L17 39L17 38L19 38L19 37L18 37L18 36ZM35 36L35 37L34 37L34 38L36 38L36 39L37 39L37 37L36 37L36 36ZM15 37L15 39L16 39L16 38L17 38L17 37ZM24 37L24 38L25 38L25 37ZM46 37L46 38L47 38L47 37ZM55 38L55 39L57 39L57 38ZM29 39L29 40L31 40L31 39ZM15 41L15 42L16 42L16 41ZM19 41L19 43L20 43L20 41ZM33 41L33 42L34 42L34 41ZM13 42L13 43L14 43L14 42ZM29 42L29 43L30 43L30 42ZM46 42L46 43L47 43L47 42ZM54 42L54 43L53 43L53 44L54 44L54 45L56 45L56 44L55 44L55 42ZM10 43L10 44L11 44L11 43ZM18 44L18 45L16 45L16 47L17 47L17 46L18 46L18 45L19 45L19 44ZM46 44L46 45L47 45L47 44ZM51 44L51 45L52 45L52 44ZM27 45L27 46L28 46L28 47L30 47L30 48L31 48L31 47L32 47L32 46L30 46L30 45ZM40 45L40 47L41 47L41 49L42 49L42 47L41 47L41 45ZM49 45L49 47L51 47L51 48L52 48L52 47L51 47L51 46L50 46L50 45ZM1 46L1 47L2 47L2 46ZM3 46L3 47L5 47L5 46ZM17 48L17 49L18 49L18 50L19 50L19 51L18 51L18 52L19 52L19 51L21 51L21 50L19 50L19 49L18 49L18 48ZM33 48L33 49L32 49L32 51L31 51L31 54L32 54L32 51L33 51L33 52L34 52L34 54L35 54L35 48ZM27 49L27 52L30 52L30 49ZM33 49L33 51L34 51L34 49ZM37 49L37 50L36 50L36 52L37 52L37 53L36 53L36 56L37 56L37 55L38 55L38 49ZM49 49L49 52L52 52L52 49ZM15 50L15 53L16 53L16 50ZM28 50L28 51L29 51L29 50ZM50 50L50 51L51 51L51 50ZM53 50L53 51L54 51L54 52L53 52L53 53L54 53L54 54L55 54L55 50ZM51 53L51 54L50 54L50 56L51 56L51 55L52 55L52 53ZM11 55L11 56L12 56L12 55ZM56 56L56 57L57 57L57 56ZM0 0L0 7L7 7L7 0ZM1 1L1 6L6 6L6 1ZM2 2L2 5L5 5L5 2ZM50 0L50 7L57 7L57 0ZM51 1L51 6L56 6L56 1ZM52 2L52 5L55 5L55 2ZM0 50L0 57L7 57L7 50ZM1 51L1 56L6 56L6 51ZM2 52L2 55L5 55L5 52Z" fill="#000000"/></g></g></svg>
