<?xml version="1.0" encoding="UTF-8"?>
<svg xmlns="http://www.w3.org/2000/svg" version="1.1" width="300" height="300" viewBox="0 0 300 300"><rect x="0" y="0" width="300" height="300" fill="#ffffff"/><g transform="scale(4.918)"><g transform="translate(2,2)"><path fill-rule="evenodd" d="M11 0L11 1L12 1L12 2L9 2L9 1L8 1L8 2L9 2L9 3L8 3L8 4L9 4L9 5L8 5L8 7L9 7L9 5L10 5L10 7L11 7L11 8L12 8L12 10L11 10L11 9L10 9L10 8L6 8L6 9L7 9L7 10L5 10L5 11L7 11L7 12L6 12L6 13L5 13L5 14L2 14L2 9L5 9L5 8L0 8L0 9L1 9L1 10L0 10L0 12L1 12L1 14L2 14L2 15L1 15L1 17L0 17L0 18L1 18L1 20L0 20L0 21L1 21L1 22L0 22L0 23L1 23L1 24L0 24L0 26L1 26L1 28L2 28L2 29L1 29L1 31L0 31L0 32L1 32L1 33L0 33L0 34L1 34L1 35L0 35L0 36L5 36L5 37L7 37L7 38L4 38L4 39L5 39L5 40L3 40L3 39L2 39L2 40L1 40L1 39L0 39L0 40L1 40L1 41L0 41L0 43L1 43L1 42L3 42L3 44L4 44L4 46L5 46L5 47L3 47L3 45L2 45L2 47L1 47L1 45L0 45L0 48L5 48L5 47L7 47L7 48L6 48L6 49L7 49L7 48L8 48L8 51L9 51L9 52L8 52L8 57L9 57L9 56L10 56L10 57L11 57L11 56L10 56L10 54L9 54L9 52L12 52L12 53L13 53L13 54L11 54L11 55L13 55L13 56L12 56L12 57L13 57L13 56L16 56L16 57L17 57L17 56L16 56L16 55L15 55L15 54L16 54L16 53L14 53L14 51L15 51L15 52L16 52L16 51L15 51L15 50L16 50L16 49L19 49L19 50L18 50L18 51L17 51L17 53L19 53L19 54L18 54L18 55L19 55L19 56L18 56L18 57L19 57L19 56L21 56L21 55L24 55L24 56L23 56L23 57L24 57L24 56L25 56L25 54L27 54L27 53L28 53L28 54L29 54L29 55L30 55L30 56L29 56L29 57L31 57L31 56L32 56L32 55L33 55L33 56L34 56L34 55L35 55L35 54L36 54L36 56L35 56L35 57L37 57L37 55L39 55L39 56L38 56L38 57L39 57L39 56L40 56L40 52L41 52L41 54L42 54L42 55L43 55L43 53L44 53L44 54L45 54L45 55L44 55L44 56L41 56L41 57L44 57L44 56L47 56L47 54L48 54L48 56L50 56L50 55L51 55L51 57L52 57L52 56L55 56L55 57L56 57L56 56L55 56L55 55L51 55L51 54L53 54L53 48L55 48L55 50L57 50L57 49L56 49L56 48L55 48L55 47L56 47L56 46L57 46L57 43L56 43L56 41L55 41L55 39L57 39L57 36L56 36L56 34L57 34L57 33L56 33L56 30L57 30L57 28L56 28L56 29L54 29L54 28L55 28L55 27L56 27L56 26L57 26L57 23L56 23L56 22L57 22L57 21L56 21L56 20L55 20L55 19L56 19L56 18L57 18L57 17L56 17L56 18L55 18L55 17L54 17L54 16L55 16L55 15L56 15L56 16L57 16L57 15L56 15L56 14L57 14L57 13L56 13L56 14L55 14L55 13L53 13L53 14L54 14L54 16L53 16L53 15L52 15L52 16L53 16L53 19L54 19L54 20L55 20L55 21L54 21L54 22L52 22L52 23L51 23L51 22L50 22L50 19L49 19L49 18L50 18L50 17L48 17L48 16L47 16L47 17L48 17L48 18L46 18L46 16L45 16L45 15L50 15L50 11L51 11L51 10L49 10L49 9L50 9L50 8L49 8L49 9L48 9L48 8L46 8L46 9L48 9L48 10L47 10L47 11L49 11L49 13L47 13L47 14L46 14L46 12L45 12L45 11L46 11L46 10L45 10L45 9L44 9L44 7L45 7L45 6L46 6L46 7L47 7L47 5L48 5L48 0L42 0L42 1L41 1L41 0L39 0L39 1L37 1L37 0L36 0L36 1L33 1L33 0L30 0L30 1L29 1L29 2L28 2L28 3L27 3L27 2L24 2L24 1L26 1L26 0L24 0L24 1L23 1L23 0L21 0L21 1L23 1L23 2L24 2L24 4L21 4L21 5L24 5L24 4L25 4L25 6L24 6L24 7L23 7L23 6L22 6L22 7L23 7L23 8L24 8L24 9L23 9L23 11L24 11L24 12L25 12L25 13L23 13L23 15L22 15L22 14L20 14L20 15L21 15L21 16L20 16L20 17L19 17L19 16L18 16L18 17L17 17L17 14L15 14L15 15L16 15L16 16L15 16L15 17L14 17L14 18L13 18L13 16L14 16L14 13L13 13L13 15L12 15L12 14L11 14L11 13L12 13L12 12L11 12L11 11L12 11L12 10L13 10L13 9L14 9L14 7L15 7L15 6L16 6L16 8L17 8L17 11L18 11L18 10L19 10L19 11L20 11L20 10L19 10L19 9L21 9L21 11L22 11L22 9L21 9L21 8L19 8L19 6L20 6L20 7L21 7L21 6L20 6L20 5L19 5L19 6L18 6L18 7L17 7L17 4L16 4L16 2L17 2L17 1L16 1L16 2L15 2L15 4L14 4L14 2L13 2L13 1L12 1L12 0ZM14 0L14 1L15 1L15 0ZM18 1L18 2L19 2L19 1ZM30 1L30 2L29 2L29 3L28 3L28 4L31 4L31 8L33 8L33 7L34 7L34 8L35 8L35 9L33 9L33 11L31 11L31 10L32 10L32 9L31 9L31 10L29 10L29 9L26 9L26 6L25 6L25 7L24 7L24 8L25 8L25 10L24 10L24 11L25 11L25 12L27 12L27 11L29 11L29 12L28 12L28 13L26 13L26 15L25 15L25 16L24 16L24 15L23 15L23 16L22 16L22 17L23 17L23 16L24 16L24 17L25 17L25 16L28 16L28 17L26 17L26 18L28 18L28 19L25 19L25 18L24 18L24 20L27 20L27 21L25 21L25 22L26 22L26 23L25 23L25 24L24 24L24 23L23 23L23 24L19 24L19 25L20 25L20 28L19 28L19 29L20 29L20 32L21 32L21 31L22 31L22 33L25 33L25 34L27 34L27 35L25 35L25 36L28 36L28 37L24 37L24 35L23 35L23 34L22 34L22 35L21 35L21 33L20 33L20 35L18 35L18 34L19 34L19 33L18 33L18 32L19 32L19 30L17 30L17 29L18 29L18 28L17 28L17 27L18 27L18 25L16 25L16 24L17 24L17 22L19 22L19 23L20 23L20 22L19 22L19 21L21 21L21 22L22 22L22 21L23 21L23 22L24 22L24 21L23 21L23 20L22 20L22 21L21 21L21 19L19 19L19 17L18 17L18 19L17 19L17 17L15 17L15 18L16 18L16 19L15 19L15 21L13 21L13 20L14 20L14 19L13 19L13 20L12 20L12 22L13 22L13 24L12 24L12 23L11 23L11 22L10 22L10 23L11 23L11 24L9 24L9 25L11 25L11 24L12 24L12 26L9 26L9 27L11 27L11 28L12 28L12 27L13 27L13 29L15 29L15 32L17 32L17 33L14 33L14 31L13 31L13 30L12 30L12 31L11 31L11 29L9 29L9 30L10 30L10 31L8 31L8 32L9 32L9 33L10 33L10 32L12 32L12 33L11 33L11 34L9 34L9 36L10 36L10 35L11 35L11 36L12 36L12 35L13 35L13 39L11 39L11 38L10 38L10 37L8 37L8 38L7 38L7 39L6 39L6 40L5 40L5 41L3 41L3 42L4 42L4 43L5 43L5 41L6 41L6 42L7 42L7 43L6 43L6 44L7 44L7 45L5 45L5 46L7 46L7 47L8 47L8 48L9 48L9 47L10 47L10 49L9 49L9 50L10 50L10 51L11 51L11 50L15 50L15 49L16 49L16 48L14 48L14 47L17 47L17 48L19 48L19 49L20 49L20 50L19 50L19 51L18 51L18 52L19 52L19 53L23 53L23 54L24 54L24 53L23 53L23 52L24 52L24 51L25 51L25 53L26 53L26 50L24 50L24 51L23 51L23 50L22 50L22 52L20 52L20 51L21 51L21 49L26 49L26 47L25 47L25 48L21 48L21 47L20 47L20 46L22 46L22 47L23 47L23 45L25 45L25 46L27 46L27 45L28 45L28 46L29 46L29 47L27 47L27 48L29 48L29 47L30 47L30 48L31 48L31 49L32 49L32 50L31 50L31 52L32 52L32 54L35 54L35 53L34 53L34 50L35 50L35 49L36 49L36 48L37 48L37 47L38 47L38 48L40 48L40 49L37 49L37 50L40 50L40 51L37 51L37 52L38 52L38 53L37 53L37 54L39 54L39 52L40 52L40 51L41 51L41 52L42 52L42 53L43 53L43 51L44 51L44 53L45 53L45 54L47 54L47 53L48 53L48 54L51 54L51 53L48 53L48 52L47 52L47 51L48 51L48 48L50 48L50 47L51 47L51 46L53 46L53 47L52 47L52 48L53 48L53 47L55 47L55 46L54 46L54 45L56 45L56 44L54 44L54 45L51 45L51 44L47 44L47 45L46 45L46 46L47 46L47 47L46 47L46 48L44 48L44 47L45 47L45 46L42 46L42 45L43 45L43 44L41 44L41 42L42 42L42 43L43 43L43 42L44 42L44 45L45 45L45 43L47 43L47 42L48 42L48 43L49 43L49 42L48 42L48 41L51 41L51 42L50 42L50 43L51 43L51 42L53 42L53 43L52 43L52 44L53 44L53 43L54 43L54 41L53 41L53 39L54 39L54 38L56 38L56 36L54 36L54 35L55 35L55 34L56 34L56 33L55 33L55 32L53 32L53 31L51 31L51 32L50 32L50 31L48 31L48 29L46 29L46 30L45 30L45 26L46 26L46 28L47 28L47 27L48 27L48 25L50 25L50 26L53 26L53 27L55 27L55 26L56 26L56 25L55 25L55 26L54 26L54 24L50 24L50 22L49 22L49 23L48 23L48 22L47 22L47 21L49 21L49 19L47 19L47 20L43 20L43 19L46 19L46 18L44 18L44 17L45 17L45 16L43 16L43 18L40 18L40 17L42 17L42 15L44 15L44 14L45 14L45 12L44 12L44 9L43 9L43 7L44 7L44 6L45 6L45 5L47 5L47 3L42 3L42 2L43 2L43 1L42 1L42 2L41 2L41 1L39 1L39 2L35 2L35 3L34 3L34 2L33 2L33 1ZM44 1L44 2L47 2L47 1ZM20 2L20 3L18 3L18 4L20 4L20 3L21 3L21 2ZM31 2L31 4L32 4L32 3L33 3L33 4L34 4L34 3L33 3L33 2ZM39 2L39 5L38 5L38 4L37 4L37 3L36 3L36 5L33 5L33 6L32 6L32 7L33 7L33 6L34 6L34 7L35 7L35 6L36 6L36 7L37 7L37 8L36 8L36 9L35 9L35 10L34 10L34 11L33 11L33 13L36 13L36 14L33 14L33 15L32 15L32 14L31 14L31 13L32 13L32 12L31 12L31 11L30 11L30 12L29 12L29 13L28 13L28 14L27 14L27 15L30 15L30 16L31 16L31 17L29 17L29 18L31 18L31 19L29 19L29 20L31 20L31 21L30 21L30 22L29 22L29 21L28 21L28 22L27 22L27 24L30 24L30 22L31 22L31 24L32 24L32 23L34 23L34 24L36 24L36 25L35 25L35 27L34 27L34 25L33 25L33 27L34 27L34 28L33 28L33 29L32 29L32 28L31 28L31 26L32 26L32 25L30 25L30 26L27 26L27 25L26 25L26 24L25 24L25 25L24 25L24 24L23 24L23 25L24 25L24 27L26 27L26 30L25 30L25 29L24 29L24 28L23 28L23 26L22 26L22 25L21 25L21 26L22 26L22 27L21 27L21 28L20 28L20 29L21 29L21 30L22 30L22 31L24 31L24 32L25 32L25 33L26 33L26 32L25 32L25 31L27 31L27 33L30 33L30 32L28 32L28 31L31 31L31 32L33 32L33 34L32 34L32 35L30 35L30 34L29 34L29 35L30 35L30 36L29 36L29 37L28 37L28 38L25 38L25 40L24 40L24 39L23 39L23 40L24 40L24 41L21 41L21 40L20 40L20 41L19 41L19 39L20 39L20 38L18 38L18 37L20 37L20 36L17 36L17 35L16 35L16 34L14 34L14 33L13 33L13 34L14 34L14 36L15 36L15 37L16 37L16 38L14 38L14 39L16 39L16 40L14 40L14 43L13 43L13 42L11 42L11 43L10 43L10 42L8 42L8 40L9 40L9 41L10 41L10 40L9 40L9 38L8 38L8 40L6 40L6 41L7 41L7 42L8 42L8 43L7 43L7 44L8 44L8 43L9 43L9 45L10 45L10 47L11 47L11 49L14 49L14 48L13 48L13 46L15 46L15 45L18 45L18 47L19 47L19 45L22 45L22 44L19 44L19 45L18 45L18 44L16 44L16 43L18 43L18 42L15 42L15 41L16 41L16 40L17 40L17 41L19 41L19 42L20 42L20 43L22 43L22 42L23 42L23 43L24 43L24 44L25 44L25 45L26 45L26 44L25 44L25 42L26 42L26 43L31 43L31 46L30 46L30 45L29 45L29 44L28 44L28 45L29 45L29 46L30 46L30 47L31 47L31 48L33 48L33 47L35 47L35 48L34 48L34 49L33 49L33 50L34 50L34 49L35 49L35 48L36 48L36 47L37 47L37 46L38 46L38 45L37 45L37 44L38 44L38 43L39 43L39 44L40 44L40 43L39 43L39 42L41 42L41 41L39 41L39 40L36 40L36 39L38 39L38 37L40 37L40 36L41 36L41 38L43 38L43 37L44 37L44 38L46 38L46 40L45 40L45 39L44 39L44 40L43 40L43 41L42 41L42 42L43 42L43 41L44 41L44 42L45 42L45 41L47 41L47 39L49 39L49 40L51 40L51 41L52 41L52 39L53 39L53 38L51 38L51 39L50 39L50 38L49 38L49 37L50 37L50 36L48 36L48 35L50 35L50 33L49 33L49 34L48 34L48 33L47 33L47 32L48 32L48 31L47 31L47 30L46 30L46 31L47 31L47 32L46 32L46 33L47 33L47 34L45 34L45 33L44 33L44 32L45 32L45 31L44 31L44 32L43 32L43 31L42 31L42 30L44 30L44 27L43 27L43 26L44 26L44 24L45 24L45 23L46 23L46 25L48 25L48 24L47 24L47 22L45 22L45 21L44 21L44 24L43 24L43 20L42 20L42 19L40 19L40 20L38 20L38 21L37 21L37 20L36 20L36 21L37 21L37 22L36 22L36 23L35 23L35 22L33 22L33 21L32 21L32 20L34 20L34 21L35 21L35 20L34 20L34 19L39 19L39 18L33 18L33 17L40 17L40 16L41 16L41 15L42 15L42 14L44 14L44 12L43 12L43 9L40 9L40 8L41 8L41 5L43 5L43 4L42 4L42 3L41 3L41 2ZM10 3L10 5L11 5L11 3ZM25 3L25 4L26 4L26 3ZM40 3L40 5L41 5L41 3ZM15 4L15 5L12 5L12 6L11 6L11 7L12 7L12 8L13 8L13 7L14 7L14 6L15 6L15 5L16 5L16 4ZM44 4L44 5L45 5L45 4ZM27 5L27 8L30 8L30 5ZM36 5L36 6L37 6L37 7L38 7L38 8L37 8L37 9L38 9L38 11L39 11L39 12L38 12L38 13L37 13L37 14L36 14L36 15L33 15L33 16L32 16L32 15L31 15L31 16L32 16L32 17L31 17L31 18L32 18L32 19L33 19L33 18L32 18L32 17L33 17L33 16L37 16L37 14L39 14L39 13L40 13L40 14L42 14L42 10L40 10L40 9L39 9L39 8L40 8L40 6L39 6L39 7L38 7L38 5ZM12 6L12 7L13 7L13 6ZM28 6L28 7L29 7L29 6ZM42 6L42 7L43 7L43 6ZM48 6L48 7L49 7L49 6ZM51 8L51 9L52 9L52 8ZM53 8L53 9L54 9L54 8ZM55 8L55 9L56 9L56 10L55 10L55 11L54 11L54 10L53 10L53 11L52 11L52 12L53 12L53 11L54 11L54 12L55 12L55 11L56 11L56 12L57 12L57 11L56 11L56 10L57 10L57 9L56 9L56 8ZM8 9L8 10L7 10L7 11L8 11L8 12L10 12L10 11L11 11L11 10L9 10L9 9ZM26 10L26 11L27 11L27 10ZM36 10L36 11L34 11L34 12L36 12L36 11L37 11L37 10ZM39 10L39 11L40 11L40 10ZM13 11L13 12L14 12L14 11ZM15 11L15 13L18 13L18 15L19 15L19 13L18 13L18 12L16 12L16 11ZM3 12L3 13L4 13L4 12ZM20 12L20 13L22 13L22 12ZM6 13L6 14L5 14L5 15L6 15L6 16L5 16L5 17L3 17L3 16L4 16L4 15L3 15L3 16L2 16L2 17L1 17L1 18L2 18L2 17L3 17L3 18L5 18L5 17L6 17L6 18L7 18L7 17L8 17L8 19L9 19L9 17L11 17L11 18L12 18L12 17L11 17L11 15L10 15L10 16L9 16L9 14L8 14L8 13ZM29 13L29 14L30 14L30 13ZM51 13L51 14L52 14L52 13ZM6 14L6 15L7 15L7 16L6 16L6 17L7 17L7 16L8 16L8 14ZM38 15L38 16L40 16L40 15ZM20 17L20 18L21 18L21 17ZM22 18L22 19L23 19L23 18ZM3 19L3 22L4 22L4 23L2 23L2 24L1 24L1 25L3 25L3 27L2 27L2 28L3 28L3 27L4 27L4 25L6 25L6 26L7 26L7 25L8 25L8 24L7 24L7 23L5 23L5 22L7 22L7 21L5 21L5 22L4 22L4 20L7 20L7 19ZM10 19L10 21L11 21L11 19ZM18 19L18 21L19 21L19 19ZM51 19L51 20L52 20L52 19ZM1 20L1 21L2 21L2 20ZM8 20L8 21L9 21L9 20ZM40 20L40 21L41 21L41 20ZM15 21L15 22L14 22L14 24L16 24L16 23L15 23L15 22L16 22L16 21ZM38 21L38 22L37 22L37 23L36 23L36 24L37 24L37 25L38 25L38 26L36 26L36 27L35 27L35 28L38 28L38 29L37 29L37 30L35 30L35 29L33 29L33 30L32 30L32 29L31 29L31 30L32 30L32 31L33 31L33 32L37 32L37 30L40 30L40 31L38 31L38 32L40 32L40 33L34 33L34 34L33 34L33 35L32 35L32 38L31 38L31 36L30 36L30 38L31 38L31 39L29 39L29 41L28 41L28 39L26 39L26 40L27 40L27 41L26 41L26 42L30 42L30 40L34 40L34 39L36 39L36 38L35 38L35 37L36 37L36 36L37 36L37 37L38 37L38 36L37 36L37 35L35 35L35 37L33 37L33 35L34 35L34 34L39 34L39 36L40 36L40 35L41 35L41 36L43 36L43 35L44 35L44 37L45 37L45 34L42 34L42 33L43 33L43 32L42 32L42 31L41 31L41 30L42 30L42 29L43 29L43 28L42 28L42 26L41 26L41 28L40 28L40 27L39 27L39 24L40 24L40 25L41 25L41 24L40 24L40 23L42 23L42 22L40 22L40 23L39 23L39 24L38 24L38 22L39 22L39 21ZM28 22L28 23L29 23L29 22ZM55 23L55 24L56 24L56 23ZM6 24L6 25L7 25L7 24ZM13 25L13 26L16 26L16 27L17 27L17 26L16 26L16 25ZM25 25L25 26L26 26L26 25ZM5 27L5 30L8 30L8 27ZM14 27L14 28L15 28L15 29L17 29L17 28L15 28L15 27ZM27 27L27 30L30 30L30 27ZM38 27L38 28L39 28L39 27ZM49 27L49 30L52 30L52 27ZM6 28L6 29L7 29L7 28ZM21 28L21 29L22 29L22 30L24 30L24 29L22 29L22 28ZM28 28L28 29L29 29L29 28ZM50 28L50 29L51 29L51 28ZM2 29L2 31L1 31L1 32L2 32L2 34L5 34L5 36L8 36L8 35L6 35L6 34L7 34L7 33L6 33L6 34L5 34L5 31L4 31L4 30L3 30L3 29ZM40 29L40 30L41 30L41 29ZM16 30L16 31L17 31L17 30ZM33 30L33 31L35 31L35 30ZM2 31L2 32L3 32L3 33L4 33L4 32L3 32L3 31ZM6 31L6 32L7 32L7 31ZM40 31L40 32L41 32L41 33L42 33L42 32L41 32L41 31ZM51 32L51 33L53 33L53 32ZM54 33L54 34L55 34L55 33ZM11 34L11 35L12 35L12 34ZM41 34L41 35L42 35L42 34ZM52 34L52 37L54 37L54 36L53 36L53 34ZM22 35L22 36L21 36L21 37L22 37L22 38L21 38L21 39L22 39L22 38L24 38L24 37L22 37L22 36L23 36L23 35ZM16 36L16 37L17 37L17 36ZM47 36L47 37L46 37L46 38L48 38L48 36ZM0 37L0 38L1 38L1 37ZM17 38L17 39L18 39L18 38ZM33 38L33 39L34 39L34 38ZM39 38L39 39L40 39L40 38ZM11 40L11 41L12 41L12 40ZM35 40L35 41L36 41L36 40ZM44 40L44 41L45 41L45 40ZM20 41L20 42L21 42L21 41ZM31 41L31 42L32 42L32 41ZM33 41L33 42L34 42L34 44L33 44L33 43L32 43L32 45L33 45L33 46L31 46L31 47L33 47L33 46L36 46L36 44L37 44L37 43L38 43L38 42L39 42L39 41L38 41L38 42L37 42L37 43L36 43L36 42L34 42L34 41ZM12 43L12 44L10 44L10 45L15 45L15 43L14 43L14 44L13 44L13 43ZM35 43L35 44L36 44L36 43ZM7 45L7 46L8 46L8 47L9 47L9 46L8 46L8 45ZM47 45L47 46L49 46L49 47L50 47L50 46L51 46L51 45ZM39 46L39 47L40 47L40 48L41 48L41 50L44 50L44 48L43 48L43 47L42 47L42 46ZM20 48L20 49L21 49L21 48ZM27 49L27 52L30 52L30 49ZM49 49L49 52L52 52L52 49ZM28 50L28 51L29 51L29 50ZM45 50L45 51L47 51L47 50ZM50 50L50 51L51 51L51 50ZM12 51L12 52L13 52L13 51ZM32 51L32 52L33 52L33 51ZM35 51L35 52L36 52L36 51ZM54 51L54 52L55 52L55 51ZM56 51L56 52L57 52L57 51ZM45 52L45 53L46 53L46 52ZM29 53L29 54L30 54L30 53ZM54 53L54 54L55 54L55 53ZM13 54L13 55L14 55L14 54ZM19 54L19 55L20 55L20 54ZM26 55L26 56L28 56L28 55ZM0 0L0 7L7 7L7 0ZM1 1L1 6L6 6L6 1ZM2 2L2 5L5 5L5 2ZM50 0L50 7L57 7L57 0ZM51 1L51 6L56 6L56 1ZM52 2L52 5L55 5L55 2ZM0 50L0 57L7 57L7 50ZM1 51L1 56L6 56L6 51ZM2 52L2 55L5 55L5 52Z" fill="#000000"/></g></g></svg>
