<?xml version="1.0" encoding="UTF-8"?>
<svg xmlns="http://www.w3.org/2000/svg" version="1.1" width="300" height="300" viewBox="0 0 300 300"><rect x="0" y="0" width="300" height="300" fill="#ffffff"/><g transform="scale(4.918)"><g transform="translate(2,2)"><path fill-rule="evenodd" d="M9 0L9 1L8 1L8 2L9 2L9 3L8 3L8 4L9 4L9 5L8 5L8 7L9 7L9 6L10 6L10 7L11 7L11 9L9 9L9 8L6 8L6 9L9 9L9 12L8 12L8 10L6 10L6 11L5 11L5 12L6 12L6 13L4 13L4 12L3 12L3 11L2 11L2 10L3 10L3 9L5 9L5 8L0 8L0 10L1 10L1 11L0 11L0 12L2 12L2 14L3 14L3 15L2 15L2 16L3 16L3 17L4 17L4 18L5 18L5 19L3 19L3 18L2 18L2 20L6 20L6 21L7 21L7 20L6 20L6 19L8 19L8 21L9 21L9 14L10 14L10 16L12 16L12 17L11 17L11 18L10 18L10 19L11 19L11 22L13 22L13 24L12 24L12 23L9 23L9 22L5 22L5 23L7 23L7 24L6 24L6 25L7 25L7 26L5 26L5 24L4 24L4 23L0 23L0 24L1 24L1 25L0 25L0 26L1 26L1 27L2 27L2 28L0 28L0 29L2 29L2 31L1 31L1 32L0 32L0 33L1 33L1 34L0 34L0 37L2 37L2 38L0 38L0 39L2 39L2 40L0 40L0 41L1 41L1 42L0 42L0 44L1 44L1 45L2 45L2 47L1 47L1 46L0 46L0 48L5 48L5 47L8 47L8 46L6 46L6 45L7 45L7 44L8 44L8 45L9 45L9 48L10 48L10 47L11 47L11 49L12 49L12 51L11 51L11 50L10 50L10 49L8 49L8 48L6 48L6 49L8 49L8 51L9 51L9 52L8 52L8 57L9 57L9 55L11 55L11 56L12 56L12 57L15 57L15 55L16 55L16 57L19 57L19 56L18 56L18 55L20 55L20 54L17 54L17 53L20 53L20 52L21 52L21 51L22 51L22 50L23 50L23 51L24 51L24 53L21 53L21 54L24 54L24 53L25 53L25 57L26 57L26 54L27 54L27 53L28 53L28 54L30 54L30 53L31 53L31 55L33 55L33 54L32 54L32 52L33 52L33 51L32 51L32 52L31 52L31 49L32 49L32 48L33 48L33 47L35 47L35 48L36 48L36 49L35 49L35 50L34 50L34 49L33 49L33 50L34 50L34 51L36 51L36 52L34 52L34 53L37 53L37 54L35 54L35 55L34 55L34 56L30 56L30 55L29 55L29 56L30 56L30 57L37 57L37 56L38 56L38 57L39 57L39 55L40 55L40 52L43 52L43 53L41 53L41 54L43 54L43 53L44 53L44 54L46 54L46 55L45 55L45 57L46 57L46 55L47 55L47 56L50 56L50 55L51 55L51 57L52 57L52 56L55 56L55 57L56 57L56 56L55 56L55 53L56 53L56 52L57 52L57 51L56 51L56 52L55 52L55 51L54 51L54 52L55 52L55 53L54 53L54 54L53 54L53 48L55 48L55 50L57 50L57 49L56 49L56 48L55 48L55 47L56 47L56 46L57 46L57 45L54 45L54 44L57 44L57 43L56 43L56 42L55 42L55 39L57 39L57 36L56 36L56 38L53 38L53 41L54 41L54 43L53 43L53 42L51 42L51 41L52 41L52 40L51 40L51 39L50 39L50 37L48 37L48 38L49 38L49 39L50 39L50 40L51 40L51 41L48 41L48 42L46 42L46 41L47 41L47 38L46 38L46 37L44 37L44 34L43 34L43 33L44 33L44 32L45 32L45 34L46 34L46 35L47 35L47 36L48 36L48 33L47 33L47 32L48 32L48 31L50 31L50 33L49 33L49 35L50 35L50 33L53 33L53 32L55 32L55 33L54 33L54 34L55 34L55 35L54 35L54 36L53 36L53 34L52 34L52 37L54 37L54 36L55 36L55 35L56 35L56 34L57 34L57 33L56 33L56 30L57 30L57 29L56 29L56 28L57 28L57 27L56 27L56 26L57 26L57 23L56 23L56 22L57 22L57 21L54 21L54 22L52 22L52 23L51 23L51 22L50 22L50 19L51 19L51 20L52 20L52 19L51 19L51 18L50 18L50 17L51 17L51 16L52 16L52 15L50 15L50 11L52 11L52 12L53 12L53 11L54 11L54 12L55 12L55 13L53 13L53 14L54 14L54 16L53 16L53 17L52 17L52 18L53 18L53 19L54 19L54 20L56 20L56 18L57 18L57 17L56 17L56 18L55 18L55 17L54 17L54 16L55 16L55 15L56 15L56 16L57 16L57 15L56 15L56 14L57 14L57 12L56 12L56 10L57 10L57 9L56 9L56 8L55 8L55 11L54 11L54 10L53 10L53 9L54 9L54 8L53 8L53 9L52 9L52 8L51 8L51 10L49 10L49 9L50 9L50 8L49 8L49 6L48 6L48 8L49 8L49 9L47 9L47 8L46 8L46 7L47 7L47 5L48 5L48 0L46 0L46 1L47 1L47 2L45 2L45 1L44 1L44 2L43 2L43 3L47 3L47 5L46 5L46 4L44 4L44 5L45 5L45 6L44 6L44 8L43 8L43 9L42 9L42 7L43 7L43 6L42 6L42 5L43 5L43 4L42 4L42 2L39 2L39 1L37 1L37 0L36 0L36 1L34 1L34 0L33 0L33 1L32 1L32 2L30 2L30 3L29 3L29 2L28 2L28 3L27 3L27 4L26 4L26 3L25 3L25 1L26 1L26 0L24 0L24 1L23 1L23 0L21 0L21 2L20 2L20 3L21 3L21 4L19 4L19 3L18 3L18 4L19 4L19 5L20 5L20 7L19 7L19 6L18 6L18 7L19 7L19 8L17 8L17 9L19 9L19 10L18 10L18 11L16 11L16 10L15 10L15 9L16 9L16 7L17 7L17 6L16 6L16 7L15 7L15 6L14 6L14 5L16 5L16 4L14 4L14 2L12 2L12 1L13 1L13 0ZM14 0L14 1L15 1L15 0ZM28 0L28 1L31 1L31 0ZM41 0L41 1L43 1L43 0ZM9 1L9 2L10 2L10 3L9 3L9 4L10 4L10 3L11 3L11 1ZM18 1L18 2L19 2L19 1ZM22 1L22 2L21 2L21 3L22 3L22 4L21 4L21 5L22 5L22 6L21 6L21 8L19 8L19 9L20 9L20 11L19 11L19 15L18 15L18 14L17 14L17 13L18 13L18 12L17 12L17 13L13 13L13 15L14 15L14 17L12 17L12 18L11 18L11 19L12 19L12 20L13 20L13 21L14 21L14 23L15 23L15 24L16 24L16 23L15 23L15 22L16 22L16 21L17 21L17 23L18 23L18 24L19 24L19 25L20 25L20 26L18 26L18 27L17 27L17 25L15 25L15 27L14 27L14 28L12 28L12 27L11 27L11 28L12 28L12 30L13 30L13 29L15 29L15 31L11 31L11 30L10 30L10 31L9 31L9 32L8 32L8 31L6 31L6 32L5 32L5 34L4 34L4 35L5 35L5 36L4 36L4 38L2 38L2 39L3 39L3 41L2 41L2 45L3 45L3 47L5 47L5 46L4 46L4 45L3 45L3 41L5 41L5 39L6 39L6 40L7 40L7 39L6 39L6 38L7 38L7 37L9 37L9 38L8 38L8 40L9 40L9 41L10 41L10 42L7 42L7 41L6 41L6 42L7 42L7 43L6 43L6 44L7 44L7 43L8 43L8 44L9 44L9 43L10 43L10 45L11 45L11 44L12 44L12 46L13 46L13 47L14 47L14 46L13 46L13 44L14 44L14 45L15 45L15 47L17 47L17 49L16 49L16 48L14 48L14 51L13 51L13 53L15 53L15 54L14 54L14 55L12 55L12 54L11 54L11 53L10 53L10 54L11 54L11 55L12 55L12 56L14 56L14 55L15 55L15 54L16 54L16 53L17 53L17 51L18 51L18 52L20 52L20 51L21 51L21 49L24 49L24 48L21 48L21 47L20 47L20 46L21 46L21 45L22 45L22 47L24 47L24 45L25 45L25 48L27 48L27 47L28 47L28 48L32 48L32 47L33 47L33 46L36 46L36 48L37 48L37 50L39 50L39 52L38 52L38 51L37 51L37 53L38 53L38 54L37 54L37 55L36 55L36 56L37 56L37 55L38 55L38 54L39 54L39 52L40 52L40 51L41 51L41 50L42 50L42 51L43 51L43 50L44 50L44 53L46 53L46 54L51 54L51 55L53 55L53 54L51 54L51 53L48 53L48 52L47 52L47 53L46 53L46 52L45 52L45 51L46 51L46 50L47 50L47 51L48 51L48 48L49 48L49 47L51 47L51 46L48 46L48 45L52 45L52 46L53 46L53 45L52 45L52 44L53 44L53 43L52 43L52 44L47 44L47 45L46 45L46 46L47 46L47 47L45 47L45 43L46 43L46 42L44 42L44 41L46 41L46 39L45 39L45 38L44 38L44 37L43 37L43 39L45 39L45 40L44 40L44 41L43 41L43 40L39 40L39 39L42 39L42 38L41 38L41 37L42 37L42 36L43 36L43 34L42 34L42 32L40 32L40 31L39 31L39 30L42 30L42 31L43 31L43 32L44 32L44 31L45 31L45 32L47 32L47 31L48 31L48 29L46 29L46 30L45 30L45 26L47 26L47 27L46 27L46 28L48 28L48 26L47 26L47 25L49 25L49 24L51 24L51 25L50 25L50 26L51 26L51 25L52 25L52 26L53 26L53 27L55 27L55 28L54 28L54 29L53 29L53 31L55 31L55 30L54 30L54 29L55 29L55 28L56 28L56 27L55 27L55 26L56 26L56 25L55 25L55 24L54 24L54 25L53 25L53 24L51 24L51 23L50 23L50 22L49 22L49 24L48 24L48 23L46 23L46 22L47 22L47 21L48 21L48 20L47 20L47 21L46 21L46 20L43 20L43 23L42 23L42 22L41 22L41 21L42 21L42 19L43 19L43 18L44 18L44 19L46 19L46 18L48 18L48 17L50 17L50 16L49 16L49 15L46 15L46 16L39 16L39 15L36 15L36 14L40 14L40 15L41 15L41 14L42 14L42 15L44 15L44 14L45 14L45 12L46 12L46 14L47 14L47 13L49 13L49 12L48 12L48 11L49 11L49 10L48 10L48 11L45 11L45 12L44 12L44 10L47 10L47 9L45 9L45 8L44 8L44 10L43 10L43 12L44 12L44 14L42 14L42 10L41 10L41 8L40 8L40 6L41 6L41 7L42 7L42 6L41 6L41 5L40 5L40 4L41 4L41 3L40 3L40 4L39 4L39 2L38 2L38 5L36 5L36 3L37 3L37 2L35 2L35 3L34 3L34 4L33 4L33 3L32 3L32 4L31 4L31 3L30 3L30 4L31 4L31 7L32 7L32 8L31 8L31 9L32 9L32 10L30 10L30 9L29 9L29 10L28 10L28 9L25 9L25 10L24 10L24 11L23 11L23 13L22 13L22 12L21 12L21 11L22 11L22 9L23 9L23 8L24 8L24 6L23 6L23 5L24 5L24 4L23 4L23 3L24 3L24 2L23 2L23 1ZM33 1L33 2L34 2L34 1ZM15 2L15 3L16 3L16 2ZM28 3L28 4L29 4L29 3ZM12 4L12 5L10 5L10 6L11 6L11 7L12 7L12 6L13 6L13 7L14 7L14 9L13 9L13 8L12 8L12 11L11 11L11 10L10 10L10 14L11 14L11 15L12 15L12 12L14 12L14 11L13 11L13 10L14 10L14 9L15 9L15 7L14 7L14 6L13 6L13 4ZM22 4L22 5L23 5L23 4ZM25 4L25 8L26 8L26 4ZM27 5L27 8L30 8L30 5ZM34 5L34 9L33 9L33 11L31 11L31 14L30 14L30 13L28 13L28 12L30 12L30 10L29 10L29 11L27 11L27 10L26 10L26 11L27 11L27 12L25 12L25 11L24 11L24 12L25 12L25 13L23 13L23 15L22 15L22 13L21 13L21 12L20 12L20 13L21 13L21 16L20 16L20 15L19 15L19 16L18 16L18 17L17 17L17 14L15 14L15 15L16 15L16 16L15 16L15 17L14 17L14 18L15 18L15 19L18 19L18 21L20 21L20 20L19 20L19 19L21 19L21 18L23 18L23 19L22 19L22 20L23 20L23 19L24 19L24 18L25 18L25 16L26 16L26 17L27 17L27 18L26 18L26 19L27 19L27 20L24 20L24 21L21 21L21 23L22 23L22 24L24 24L24 23L22 23L22 22L24 22L24 21L25 21L25 22L26 22L26 23L25 23L25 24L27 24L27 25L26 25L26 26L25 26L25 25L22 25L22 26L21 26L21 27L20 27L20 29L18 29L18 28L17 28L17 27L15 27L15 29L18 29L18 30L19 30L19 32L18 32L18 33L19 33L19 34L18 34L18 35L20 35L20 33L21 33L21 34L23 34L23 37L22 37L22 36L21 36L21 37L19 37L19 36L17 36L17 35L15 35L15 34L16 34L16 33L17 33L17 32L16 32L16 33L14 33L14 32L13 32L13 34L12 34L12 32L11 32L11 33L10 33L10 34L12 34L12 35L11 35L11 36L10 36L10 35L9 35L9 36L10 36L10 38L12 38L12 40L13 40L13 41L11 41L11 42L14 42L14 40L15 40L15 41L19 41L19 42L18 42L18 43L17 43L17 44L16 44L16 42L15 42L15 45L17 45L17 46L18 46L18 47L19 47L19 48L18 48L18 49L17 49L17 50L16 50L16 49L15 49L15 50L16 50L16 51L14 51L14 52L15 52L15 53L16 53L16 51L17 51L17 50L18 50L18 51L19 51L19 50L20 50L20 49L21 49L21 48L20 48L20 47L19 47L19 46L20 46L20 45L21 45L21 44L22 44L22 45L24 45L24 43L25 43L25 39L26 39L26 40L28 40L28 41L31 41L31 42L30 42L30 43L28 43L28 45L27 45L27 46L26 46L26 47L27 47L27 46L28 46L28 45L29 45L29 47L31 47L31 45L32 45L32 46L33 46L33 45L32 45L32 44L31 44L31 45L30 45L30 43L31 43L31 42L32 42L32 41L31 41L31 40L32 40L32 39L31 39L31 38L32 38L32 34L34 34L34 35L33 35L33 36L34 36L34 37L35 37L35 36L34 36L34 35L35 35L35 34L34 34L34 33L32 33L32 32L33 32L33 31L35 31L35 30L38 30L38 29L39 29L39 28L38 28L38 29L37 29L37 26L38 26L38 25L39 25L39 26L40 26L40 28L41 28L41 27L42 27L42 28L43 28L43 29L42 29L42 30L43 30L43 31L44 31L44 28L43 28L43 27L44 27L44 24L45 24L45 25L47 25L47 24L46 24L46 23L45 23L45 21L44 21L44 24L41 24L41 23L40 23L40 20L41 20L41 19L40 19L40 20L38 20L38 21L37 21L37 20L36 20L36 21L37 21L37 22L36 22L36 23L35 23L35 24L34 24L34 22L33 22L33 21L32 21L32 20L33 20L33 19L37 19L37 18L38 18L38 19L39 19L39 18L38 18L38 17L39 17L39 16L38 16L38 17L37 17L37 16L35 16L35 17L36 17L36 18L33 18L33 17L29 17L29 16L28 16L28 15L29 15L29 14L30 14L30 16L34 16L34 15L35 15L35 14L36 14L36 13L38 13L38 12L39 12L39 11L36 11L36 10L38 10L38 9L39 9L39 10L40 10L40 9L39 9L39 8L38 8L38 7L39 7L39 6L38 6L38 7L37 7L37 6L36 6L36 5ZM22 6L22 7L23 7L23 6ZM28 6L28 7L29 7L29 6ZM32 6L32 7L33 7L33 6ZM35 6L35 9L34 9L34 10L36 10L36 8L37 8L37 7L36 7L36 6ZM45 6L45 7L46 7L46 6ZM1 9L1 10L2 10L2 9ZM52 10L52 11L53 11L53 10ZM6 11L6 12L7 12L7 11ZM34 11L34 12L35 12L35 11ZM40 11L40 12L41 12L41 11ZM32 12L32 13L33 13L33 14L31 14L31 15L33 15L33 14L35 14L35 13L33 13L33 12ZM3 13L3 14L4 14L4 13ZM6 13L6 14L5 14L5 17L6 17L6 18L7 18L7 17L8 17L8 14L7 14L7 13ZM26 13L26 14L28 14L28 13ZM51 13L51 14L52 14L52 13ZM55 13L55 14L56 14L56 13ZM6 14L6 15L7 15L7 14ZM24 14L24 15L23 15L23 16L22 16L22 17L24 17L24 15L25 15L25 14ZM26 15L26 16L27 16L27 17L28 17L28 16L27 16L27 15ZM6 16L6 17L7 17L7 16ZM19 16L19 17L18 17L18 19L19 19L19 17L20 17L20 18L21 18L21 17L20 17L20 16ZM46 16L46 17L45 17L45 18L46 18L46 17L48 17L48 16ZM15 17L15 18L17 18L17 17ZM40 17L40 18L43 18L43 17ZM27 18L27 19L28 19L28 20L27 20L27 24L28 24L28 26L29 26L29 25L31 25L31 26L32 26L32 25L31 25L31 24L33 24L33 23L31 23L31 22L28 22L28 21L29 21L29 20L30 20L30 19L33 19L33 18L29 18L29 19L28 19L28 18ZM49 18L49 19L50 19L50 18ZM13 19L13 20L14 20L14 19ZM0 20L0 21L1 21L1 20ZM15 20L15 21L16 21L16 20ZM3 21L3 22L4 22L4 21ZM38 21L38 23L39 23L39 25L40 25L40 26L42 26L42 27L43 27L43 26L42 26L42 25L41 25L41 24L40 24L40 23L39 23L39 21ZM18 22L18 23L20 23L20 22ZM54 22L54 23L55 23L55 22ZM28 23L28 24L31 24L31 23ZM3 24L3 25L4 25L4 24ZM7 24L7 25L8 25L8 24ZM11 24L11 26L14 26L14 24L13 24L13 25L12 25L12 24ZM37 24L37 25L33 25L33 27L32 27L32 31L31 31L31 32L32 32L32 31L33 31L33 30L35 30L35 29L33 29L33 28L34 28L34 26L37 26L37 25L38 25L38 24ZM54 25L54 26L55 26L55 25ZM2 26L2 27L4 27L4 26ZM9 26L9 27L10 27L10 26ZM22 26L22 27L21 27L21 28L22 28L22 29L20 29L20 32L21 32L21 31L22 31L22 33L24 33L24 29L25 29L25 30L26 30L26 27L24 27L24 26ZM5 27L5 30L8 30L8 27ZM23 27L23 29L24 29L24 27ZM27 27L27 30L30 30L30 27ZM49 27L49 30L52 30L52 27ZM2 28L2 29L3 29L3 32L2 32L2 33L3 33L3 32L4 32L4 29L3 29L3 28ZM6 28L6 29L7 29L7 28ZM28 28L28 29L29 29L29 28ZM50 28L50 29L51 29L51 28ZM16 30L16 31L17 31L17 30ZM22 30L22 31L23 31L23 30ZM46 30L46 31L47 31L47 30ZM25 31L25 34L24 34L24 36L25 36L25 38L27 38L27 39L28 39L28 40L31 40L31 39L29 39L29 35L30 35L30 34L29 34L29 33L30 33L30 31ZM6 32L6 33L7 33L7 32ZM26 32L26 33L29 33L29 32ZM35 32L35 33L36 33L36 35L37 35L37 36L36 36L36 37L37 37L37 38L35 38L35 39L34 39L34 40L35 40L35 42L36 42L36 43L37 43L37 44L35 44L35 45L37 45L37 46L38 46L38 45L39 45L39 47L38 47L38 48L39 48L39 50L41 50L41 49L40 49L40 48L41 48L41 47L42 47L42 46L44 46L44 43L42 43L42 42L43 42L43 41L39 41L39 40L36 40L36 39L37 39L37 38L38 38L38 37L39 37L39 38L40 38L40 36L42 36L42 34L41 34L41 35L40 35L40 34L37 34L37 32ZM38 32L38 33L40 33L40 32ZM31 33L31 34L32 34L32 33ZM46 33L46 34L47 34L47 33ZM55 33L55 34L56 34L56 33ZM1 34L1 35L2 35L2 34ZM6 34L6 35L8 35L8 34ZM25 34L25 36L27 36L27 35L26 35L26 34ZM12 35L12 36L11 36L11 37L12 37L12 38L13 38L13 40L14 40L14 38L13 38L13 35ZM14 35L14 37L16 37L16 38L15 38L15 39L16 39L16 40L19 40L19 41L20 41L20 43L19 43L19 45L20 45L20 43L22 43L22 41L24 41L24 39L23 39L23 38L24 38L24 37L23 37L23 38L22 38L22 37L21 37L21 38L22 38L22 39L21 39L21 41L20 41L20 40L19 40L19 39L20 39L20 38L19 38L19 37L18 37L18 38L19 38L19 39L17 39L17 36L15 36L15 35ZM38 35L38 36L40 36L40 35ZM2 36L2 37L3 37L3 36ZM6 36L6 37L7 37L7 36ZM30 36L30 38L31 38L31 36ZM27 37L27 38L28 38L28 37ZM26 41L26 42L27 42L27 41ZM33 41L33 44L34 44L34 41ZM38 41L38 42L37 42L37 43L38 43L38 44L37 44L37 45L38 45L38 44L40 44L40 45L41 45L41 46L40 46L40 47L39 47L39 48L40 48L40 47L41 47L41 46L42 46L42 45L43 45L43 44L40 44L40 43L39 43L39 41ZM4 42L4 44L5 44L5 42ZM48 42L48 43L49 43L49 42ZM50 42L50 43L51 43L51 42ZM12 43L12 44L13 44L13 43ZM26 43L26 44L25 44L25 45L26 45L26 44L27 44L27 43ZM17 44L17 45L18 45L18 44ZM44 47L44 48L42 48L42 50L43 50L43 49L44 49L44 48L45 48L45 50L46 50L46 49L47 49L47 48L45 48L45 47ZM52 47L52 48L53 48L53 47ZM12 48L12 49L13 49L13 48ZM19 48L19 49L18 49L18 50L19 50L19 49L20 49L20 48ZM27 49L27 52L30 52L30 49ZM49 49L49 52L52 52L52 49ZM25 50L25 53L26 53L26 50ZM28 50L28 51L29 51L29 50ZM50 50L50 51L51 51L51 50ZM10 51L10 52L11 52L11 51ZM22 55L22 56L24 56L24 55ZM27 55L27 56L28 56L28 55ZM41 55L41 57L42 57L42 56L43 56L43 57L44 57L44 56L43 56L43 55ZM0 0L0 7L7 7L7 0ZM1 1L1 6L6 6L6 1ZM2 2L2 5L5 5L5 2ZM50 0L50 7L57 7L57 0ZM51 1L51 6L56 6L56 1ZM52 2L52 5L55 5L55 2ZM0 50L0 57L7 57L7 50ZM1 51L1 56L6 56L6 51ZM2 52L2 55L5 55L5 52Z" fill="#000000"/></g></g></svg>
