<?xml version="1.0" encoding="UTF-8"?>
<svg xmlns="http://www.w3.org/2000/svg" version="1.1" width="300" height="300" viewBox="0 0 300 300"><rect x="0" y="0" width="300" height="300" fill="#ffffff"/><g transform="scale(4.918)"><g transform="translate(2,2)"><path fill-rule="evenodd" d="M8 0L8 1L10 1L10 0ZM13 0L13 1L15 1L15 2L16 2L16 3L17 3L17 1L16 1L16 0ZM19 0L19 1L20 1L20 2L19 2L19 3L18 3L18 5L14 5L14 8L15 8L15 6L16 6L16 7L17 7L17 9L18 9L18 10L17 10L17 12L15 12L15 11L14 11L14 10L15 10L15 9L14 9L14 10L13 10L13 9L11 9L11 8L10 8L10 9L11 9L11 11L12 11L12 12L13 12L13 13L14 13L14 14L11 14L11 13L9 13L9 12L10 12L10 10L9 10L9 8L8 8L8 10L6 10L6 11L5 11L5 10L4 10L4 8L0 8L0 10L1 10L1 12L0 12L0 13L1 13L1 14L0 14L0 15L1 15L1 16L0 16L0 20L1 20L1 17L2 17L2 23L3 23L3 24L1 24L1 25L0 25L0 26L1 26L1 27L0 27L0 28L1 28L1 29L2 29L2 30L0 30L0 36L2 36L2 38L3 38L3 36L4 36L4 39L3 39L3 40L2 40L2 41L3 41L3 42L2 42L2 43L1 43L1 44L2 44L2 43L3 43L3 45L2 45L2 47L1 47L1 45L0 45L0 48L5 48L5 47L9 47L9 48L8 48L8 50L9 50L9 49L10 49L10 48L11 48L11 49L12 49L12 47L13 47L13 46L14 46L14 47L15 47L15 48L14 48L14 49L13 49L13 50L12 50L12 51L11 51L11 50L10 50L10 51L9 51L9 53L8 53L8 57L9 57L9 55L10 55L10 51L11 51L11 52L12 52L12 51L13 51L13 52L14 52L14 53L13 53L13 54L12 54L12 53L11 53L11 55L12 55L12 56L11 56L11 57L12 57L12 56L13 56L13 54L15 54L15 55L14 55L14 57L15 57L15 56L16 56L16 57L18 57L18 56L19 56L19 55L20 55L20 56L21 56L21 57L25 57L25 56L26 56L26 55L24 55L24 56L23 56L23 55L22 55L22 53L21 53L21 52L19 52L19 53L18 53L18 52L17 52L17 53L18 53L18 54L16 54L16 53L15 53L15 52L16 52L16 51L15 51L15 48L16 48L16 49L17 49L17 50L19 50L19 51L23 51L23 54L25 54L25 53L24 53L24 52L25 52L25 51L26 51L26 54L28 54L28 53L29 53L29 54L31 54L31 55L30 55L30 56L31 56L31 57L32 57L32 55L33 55L33 57L36 57L36 55L35 55L35 56L34 56L34 54L35 54L35 53L36 53L36 51L34 51L34 52L33 52L33 51L32 51L32 50L34 50L34 49L32 49L32 48L36 48L36 49L35 49L35 50L37 50L37 47L38 47L38 46L37 46L37 47L35 47L35 46L34 46L34 47L32 47L32 46L33 46L33 45L35 45L35 44L33 44L33 45L30 45L30 44L32 44L32 43L34 43L34 42L35 42L35 43L36 43L36 44L37 44L37 45L38 45L38 44L40 44L40 45L41 45L41 43L42 43L42 41L43 41L43 44L42 44L42 47L43 47L43 45L44 45L44 42L45 42L45 41L46 41L46 44L47 44L47 41L48 41L48 42L49 42L49 44L48 44L48 46L46 46L46 45L45 45L45 46L46 46L46 47L48 47L48 49L47 49L47 50L48 50L48 51L47 51L47 52L46 52L46 50L45 50L45 49L46 49L46 48L45 48L45 47L44 47L44 48L45 48L45 49L44 49L44 50L45 50L45 52L44 52L44 51L43 51L43 50L42 50L42 48L41 48L41 49L40 49L40 52L41 52L41 53L40 53L40 54L38 54L38 53L39 53L39 48L38 48L38 53L37 53L37 55L38 55L38 56L37 56L37 57L42 57L42 56L39 56L39 55L40 55L40 54L42 54L42 52L41 52L41 51L43 51L43 54L46 54L46 55L47 55L47 56L45 56L45 57L47 57L47 56L48 56L48 57L50 57L50 56L51 56L51 55L50 55L50 54L51 54L51 53L53 53L53 54L54 54L54 53L55 53L55 54L56 54L56 53L57 53L57 52L56 52L56 51L55 51L55 50L54 50L54 49L53 49L53 48L54 48L54 47L56 47L56 48L55 48L55 49L56 49L56 48L57 48L57 45L56 45L56 46L55 46L55 44L53 44L53 45L54 45L54 46L53 46L53 47L52 47L52 46L50 46L50 42L51 42L51 40L52 40L52 42L53 42L53 41L55 41L55 42L54 42L54 43L56 43L56 44L57 44L57 43L56 43L56 42L57 42L57 40L56 40L56 41L55 41L55 39L54 39L54 35L53 35L53 34L55 34L55 35L57 35L57 32L56 32L56 34L55 34L55 32L54 32L54 29L55 29L55 31L56 31L56 30L57 30L57 29L56 29L56 28L57 28L57 27L56 27L56 28L55 28L55 26L56 26L56 25L55 25L55 24L54 24L54 23L56 23L56 24L57 24L57 21L55 21L55 20L57 20L57 19L55 19L55 18L54 18L54 17L55 17L55 16L56 16L56 18L57 18L57 16L56 16L56 15L54 15L54 14L51 14L51 12L52 12L52 10L51 10L51 11L50 11L50 10L49 10L49 9L50 9L50 8L48 8L48 7L49 7L49 6L48 6L48 7L47 7L47 5L48 5L48 0L46 0L46 1L45 1L45 0L44 0L44 3L45 3L45 2L46 2L46 3L47 3L47 5L46 5L46 9L47 9L47 10L45 10L45 9L44 9L44 7L45 7L45 6L44 6L44 5L42 5L42 7L43 7L43 8L42 8L42 9L41 9L41 6L40 6L40 8L39 8L39 4L40 4L40 3L39 3L39 2L38 2L38 1L37 1L37 0L35 0L35 1L34 1L34 2L33 2L33 1L32 1L32 0L29 0L29 1L28 1L28 2L27 2L27 1L26 1L26 0L21 0L21 1L20 1L20 0ZM39 0L39 1L41 1L41 2L43 2L43 0ZM21 1L21 2L22 2L22 4L23 4L23 3L25 3L25 2L26 2L26 4L24 4L24 6L23 6L23 5L22 5L22 6L21 6L21 7L20 7L20 6L19 6L19 5L18 5L18 6L17 6L17 7L18 7L18 6L19 6L19 7L20 7L20 11L19 11L19 10L18 10L18 12L17 12L17 13L16 13L16 16L15 16L15 17L14 17L14 18L13 18L13 16L14 16L14 15L10 15L10 16L9 16L9 15L8 15L8 17L6 17L6 18L7 18L7 19L6 19L6 20L4 20L4 21L3 21L3 23L4 23L4 22L5 22L5 21L6 21L6 22L7 22L7 23L6 23L6 24L7 24L7 25L6 25L6 26L8 26L8 24L7 24L7 23L8 23L8 21L6 21L6 20L9 20L9 22L10 22L10 23L9 23L9 24L10 24L10 23L11 23L11 25L9 25L9 26L10 26L10 27L9 27L9 29L10 29L10 30L9 30L9 33L10 33L10 34L11 34L11 36L10 36L10 35L9 35L9 37L10 37L10 38L11 38L11 39L14 39L14 37L15 37L15 38L17 38L17 39L16 39L16 40L14 40L14 41L13 41L13 40L10 40L10 41L9 41L9 42L7 42L7 41L8 41L8 40L9 40L9 39L6 39L6 40L5 40L5 41L6 41L6 42L5 42L5 43L6 43L6 44L7 44L7 45L5 45L5 44L4 44L4 45L3 45L3 47L5 47L5 46L8 46L8 43L10 43L10 44L11 44L11 43L10 43L10 41L11 41L11 42L12 42L12 43L13 43L13 42L14 42L14 44L12 44L12 46L13 46L13 45L14 45L14 46L15 46L15 47L16 47L16 48L17 48L17 49L18 49L18 48L19 48L19 50L20 50L20 48L21 48L21 47L22 47L22 49L21 49L21 50L22 50L22 49L23 49L23 51L25 51L25 50L26 50L26 48L30 48L30 47L31 47L31 46L30 46L30 45L29 45L29 44L30 44L30 42L25 42L25 41L26 41L26 38L30 38L30 39L28 39L28 40L27 40L27 41L28 41L28 40L29 40L29 41L31 41L31 42L33 42L33 41L32 41L32 39L33 39L33 40L35 40L35 42L36 42L36 41L37 41L37 42L39 42L39 41L38 41L38 40L39 40L39 39L40 39L40 43L41 43L41 41L42 41L42 40L41 40L41 39L40 39L40 38L44 38L44 39L43 39L43 40L44 40L44 39L46 39L46 41L47 41L47 40L49 40L49 42L50 42L50 40L51 40L51 39L52 39L52 38L53 38L53 37L52 37L52 36L53 36L53 35L52 35L52 36L51 36L51 35L50 35L50 36L49 36L49 35L48 35L48 34L50 34L50 33L51 33L51 34L53 34L53 31L49 31L49 32L50 32L50 33L48 33L48 28L47 28L47 24L46 24L46 25L45 25L45 24L44 24L44 26L43 26L43 25L41 25L41 24L43 24L43 23L45 23L45 22L46 22L46 23L48 23L48 26L49 26L49 25L50 25L50 24L51 24L51 26L52 26L52 25L53 25L53 22L54 22L54 21L53 21L53 22L51 22L51 21L52 21L52 20L47 20L47 21L45 21L45 20L46 20L46 17L45 17L45 18L44 18L44 17L43 17L43 16L44 16L44 15L43 15L43 16L42 16L42 15L41 15L41 14L40 14L40 13L42 13L42 14L44 14L44 13L45 13L45 15L46 15L46 16L48 16L48 18L47 18L47 19L48 19L48 18L49 18L49 16L51 16L51 17L50 17L50 18L52 18L52 19L53 19L53 20L55 20L55 19L54 19L54 18L52 18L52 17L54 17L54 15L53 15L53 16L52 16L52 15L49 15L49 14L50 14L50 12L49 12L49 11L47 11L47 12L46 12L46 13L45 13L45 12L44 12L44 9L43 9L43 10L41 10L41 12L38 12L38 10L40 10L40 9L38 9L38 8L36 8L36 9L33 9L33 8L32 8L32 6L33 6L33 7L34 7L34 6L33 6L33 5L32 5L32 4L34 4L34 5L35 5L35 4L36 4L36 5L38 5L38 4L39 4L39 3L38 3L38 2L37 2L37 1L36 1L36 2L35 2L35 4L34 4L34 3L32 3L32 2L30 2L30 3L29 3L29 2L28 2L28 4L31 4L31 5L32 5L32 6L31 6L31 8L32 8L32 11L31 11L31 12L29 12L29 11L28 11L28 10L29 10L29 9L26 9L26 6L25 6L25 5L26 5L26 4L27 4L27 2L26 2L26 1L25 1L25 2L24 2L24 1ZM46 1L46 2L47 2L47 1ZM8 2L8 5L9 5L9 6L8 6L8 7L9 7L9 6L10 6L10 7L11 7L11 6L12 6L12 8L13 8L13 6L12 6L12 5L9 5L9 4L10 4L10 3L11 3L11 2ZM12 2L12 4L14 4L14 3L13 3L13 2ZM36 2L36 4L37 4L37 2ZM19 3L19 4L20 4L20 5L21 5L21 3ZM31 3L31 4L32 4L32 3ZM42 3L42 4L43 4L43 3ZM27 5L27 8L30 8L30 5ZM22 6L22 8L21 8L21 11L23 11L23 12L22 12L22 13L23 13L23 12L24 12L24 11L25 11L25 14L26 14L26 15L27 15L27 17L26 17L26 16L25 16L25 15L24 15L24 14L21 14L21 12L18 12L18 13L20 13L20 14L21 14L21 17L22 17L22 15L24 15L24 17L23 17L23 18L20 18L20 20L22 20L22 22L23 22L23 26L22 26L22 27L23 27L23 26L24 26L24 24L25 24L25 22L28 22L28 23L26 23L26 24L27 24L27 25L28 25L28 23L29 23L29 22L28 22L28 21L29 21L29 20L28 20L28 19L29 19L29 18L30 18L30 17L31 17L31 20L32 20L32 17L33 17L33 19L34 19L34 20L38 20L38 21L37 21L37 22L38 22L38 23L37 23L37 24L35 24L35 23L36 23L36 22L35 22L35 23L34 23L34 22L33 22L33 21L30 21L30 24L31 24L31 25L32 25L32 24L34 24L34 25L37 25L37 24L38 24L38 27L42 27L42 28L41 28L41 29L40 29L40 28L37 28L37 29L36 29L36 27L37 27L37 26L35 26L35 27L34 27L34 26L33 26L33 27L34 27L34 29L33 29L33 28L32 28L32 26L26 26L26 29L25 29L25 27L24 27L24 28L23 28L23 29L21 29L21 30L20 30L20 27L21 27L21 25L19 25L19 24L20 24L20 23L21 23L21 22L19 22L19 24L18 24L18 21L17 21L17 20L18 20L18 19L19 19L19 17L17 17L17 16L20 16L20 15L17 15L17 16L16 16L16 17L15 17L15 19L13 19L13 18L12 18L12 16L10 16L10 19L9 19L9 20L10 20L10 19L11 19L11 20L13 20L13 21L10 21L10 22L13 22L13 24L12 24L12 25L11 25L11 27L12 27L12 25L13 25L13 27L14 27L14 26L16 26L16 25L17 25L17 27L19 27L19 28L18 28L18 29L19 29L19 30L18 30L18 32L17 32L17 33L18 33L18 32L19 32L19 33L22 33L22 34L25 34L25 35L26 35L26 36L29 36L29 37L30 37L30 38L31 38L31 39L32 39L32 38L33 38L33 37L34 37L34 35L35 35L35 34L34 34L34 35L33 35L33 33L32 33L32 31L31 31L31 30L33 30L33 32L34 32L34 33L35 33L35 32L34 32L34 31L35 31L35 29L36 29L36 32L37 32L37 34L38 34L38 33L39 33L39 32L40 32L40 33L41 33L41 35L42 35L42 37L44 37L44 36L43 36L43 34L44 34L44 35L46 35L46 36L48 36L48 39L49 39L49 38L52 38L52 37L51 37L51 36L50 36L50 37L49 37L49 36L48 36L48 35L47 35L47 34L48 34L48 33L47 33L47 32L46 32L46 31L47 31L47 28L46 28L46 26L45 26L45 27L42 27L42 26L40 26L40 25L39 25L39 22L41 22L41 23L40 23L40 24L41 24L41 23L43 23L43 21L44 21L44 22L45 22L45 21L44 21L44 19L42 19L42 18L41 18L41 17L40 17L40 18L38 18L38 17L39 17L39 16L38 16L38 15L39 15L39 13L38 13L38 12L36 12L36 11L37 11L37 10L38 10L38 9L37 9L37 10L34 10L34 12L33 12L33 11L32 11L32 12L33 12L33 14L34 14L34 13L38 13L38 15L37 15L37 16L38 16L38 17L37 17L37 18L35 18L35 16L34 16L34 17L33 17L33 15L32 15L32 13L30 13L30 14L31 14L31 15L30 15L30 16L28 16L28 15L27 15L27 14L29 14L29 13L28 13L28 12L26 12L26 11L25 11L25 9L23 9L23 8L24 8L24 7L25 7L25 6L24 6L24 7L23 7L23 6ZM28 6L28 7L29 7L29 6ZM35 6L35 7L36 7L36 6ZM37 6L37 7L38 7L38 6ZM43 6L43 7L44 7L44 6ZM6 8L6 9L7 9L7 8ZM18 8L18 9L19 9L19 8ZM47 8L47 9L48 9L48 8ZM52 8L52 9L55 9L55 10L54 10L54 11L57 11L57 8L56 8L56 9L55 9L55 8ZM2 9L2 10L3 10L3 9ZM12 10L12 11L13 11L13 10ZM23 10L23 11L24 11L24 10ZM3 11L3 12L4 12L4 13L6 13L6 14L8 14L8 13L6 13L6 12L9 12L9 11L6 11L6 12L5 12L5 11ZM1 12L1 13L2 13L2 12ZM42 12L42 13L44 13L44 12ZM55 12L55 14L56 14L56 12ZM1 14L1 15L2 15L2 16L3 16L3 15L4 15L4 17L3 17L3 19L4 19L4 18L5 18L5 16L7 16L7 15L5 15L5 14ZM47 14L47 15L48 15L48 14ZM40 15L40 16L41 16L41 15ZM31 16L31 17L32 17L32 16ZM24 17L24 18L25 18L25 19L24 19L24 20L23 20L23 19L22 19L22 20L23 20L23 21L24 21L24 22L25 22L25 21L26 21L26 18L25 18L25 17ZM27 17L27 19L28 19L28 18L29 18L29 17ZM11 18L11 19L12 19L12 18ZM17 18L17 19L15 19L15 20L14 20L14 23L16 23L16 24L17 24L17 23L16 23L16 20L17 20L17 19L18 19L18 18ZM38 19L38 20L39 20L39 21L38 21L38 22L39 22L39 21L40 21L40 20L39 20L39 19ZM42 20L42 21L43 21L43 20ZM0 21L0 22L1 22L1 21ZM47 21L47 22L50 22L50 21ZM32 22L32 23L31 23L31 24L32 24L32 23L33 23L33 22ZM3 24L3 25L2 25L2 27L4 27L4 26L5 26L5 25L4 25L4 24ZM13 24L13 25L15 25L15 24ZM3 25L3 26L4 26L4 25ZM18 25L18 26L19 26L19 27L20 27L20 26L19 26L19 25ZM54 25L54 26L53 26L53 27L54 27L54 26L55 26L55 25ZM5 27L5 30L8 30L8 27ZM15 27L15 30L14 30L14 28L10 28L10 29L11 29L11 30L10 30L10 31L11 31L11 32L10 32L10 33L11 33L11 34L12 34L12 36L11 36L11 37L12 37L12 38L13 38L13 35L14 35L14 36L15 36L15 35L14 35L14 33L15 33L15 34L16 34L16 35L17 35L17 34L16 34L16 33L15 33L15 31L17 31L17 28L16 28L16 27ZM27 27L27 30L30 30L30 27ZM49 27L49 30L52 30L52 27ZM2 28L2 29L4 29L4 28ZM6 28L6 29L7 29L7 28ZM28 28L28 29L29 29L29 28ZM43 28L43 29L41 29L41 30L39 30L39 29L38 29L38 30L39 30L39 31L41 31L41 30L42 30L42 32L41 32L41 33L44 33L44 34L45 34L45 31L46 31L46 28L45 28L45 29L44 29L44 28ZM50 28L50 29L51 29L51 28ZM53 28L53 29L54 29L54 28ZM12 29L12 30L11 30L11 31L13 31L13 33L12 33L12 32L11 32L11 33L12 33L12 34L13 34L13 33L14 33L14 31L13 31L13 29ZM24 29L24 30L22 30L22 32L23 32L23 33L24 33L24 32L25 32L25 29ZM2 30L2 31L3 31L3 30ZM19 30L19 32L20 32L20 30ZM43 30L43 31L44 31L44 30ZM6 31L6 32L4 32L4 33L3 33L3 32L2 32L2 34L4 34L4 33L6 33L6 34L7 34L7 35L6 35L6 36L8 36L8 31ZM23 31L23 32L24 32L24 31ZM28 31L28 32L26 32L26 33L25 33L25 34L28 34L28 35L29 35L29 33L31 33L31 34L30 34L30 37L31 37L31 36L32 36L32 37L33 37L33 35L32 35L32 33L31 33L31 31ZM37 31L37 32L38 32L38 31ZM6 32L6 33L7 33L7 32ZM46 33L46 34L47 34L47 33ZM20 34L20 36L21 36L21 34ZM2 35L2 36L3 36L3 35ZM18 35L18 37L17 37L17 38L18 38L18 39L17 39L17 40L20 40L20 41L21 41L21 42L22 42L22 44L20 44L20 45L21 45L21 46L22 46L22 44L23 44L23 45L24 45L24 46L23 46L23 47L25 47L25 48L26 48L26 46L25 46L25 44L24 44L24 43L25 43L25 42L24 42L24 41L23 41L23 42L22 42L22 39L21 39L21 38L20 38L20 37L19 37L19 35ZM36 35L36 37L35 37L35 38L36 38L36 37L37 37L37 36L38 36L38 39L39 39L39 38L40 38L40 35ZM23 36L23 37L22 37L22 38L23 38L23 39L24 39L24 40L25 40L25 39L24 39L24 37L25 37L25 36ZM55 36L55 38L56 38L56 39L57 39L57 38L56 38L56 36ZM6 37L6 38L7 38L7 37ZM45 37L45 38L46 38L46 39L47 39L47 38L46 38L46 37ZM3 40L3 41L4 41L4 40ZM6 40L6 41L7 41L7 40ZM0 41L0 42L1 42L1 41ZM14 41L14 42L17 42L17 41ZM18 41L18 43L20 43L20 42L19 42L19 41ZM3 42L3 43L4 43L4 42ZM6 42L6 43L7 43L7 42ZM23 42L23 43L24 43L24 42ZM15 43L15 44L14 44L14 45L15 45L15 46L16 46L16 45L15 45L15 44L17 44L17 43ZM28 43L28 44L29 44L29 43ZM37 43L37 44L38 44L38 43ZM51 43L51 44L52 44L52 43ZM9 45L9 46L10 46L10 47L11 47L11 45ZM17 45L17 47L20 47L20 46L19 46L19 45ZM27 46L27 47L28 47L28 46ZM39 46L39 47L41 47L41 46ZM49 46L49 48L50 48L50 46ZM51 47L51 48L52 48L52 47ZM6 48L6 49L7 49L7 48ZM27 49L27 52L30 52L30 49ZM49 49L49 52L52 52L52 49ZM28 50L28 51L29 51L29 50ZM50 50L50 51L51 51L51 50ZM53 50L53 51L54 51L54 50ZM14 51L14 52L15 52L15 51ZM31 51L31 52L32 52L32 51ZM20 53L20 55L21 55L21 56L22 56L22 55L21 55L21 53ZM31 53L31 54L33 54L33 53ZM49 53L49 54L50 54L50 53ZM47 54L47 55L48 55L48 56L49 56L49 55L48 55L48 54ZM17 55L17 56L18 56L18 55ZM43 55L43 56L44 56L44 55ZM52 55L52 57L55 57L55 56L53 56L53 55ZM56 55L56 56L57 56L57 55ZM27 56L27 57L29 57L29 56ZM0 0L0 7L7 7L7 0ZM1 1L1 6L6 6L6 1ZM2 2L2 5L5 5L5 2ZM50 0L50 7L57 7L57 0ZM51 1L51 6L56 6L56 1ZM52 2L52 5L55 5L55 2ZM0 50L0 57L7 57L7 50ZM1 51L1 56L6 56L6 51ZM2 52L2 55L5 55L5 52Z" fill="#000000"/></g></g></svg>
