<?xml version="1.0" encoding="UTF-8"?>
<svg xmlns="http://www.w3.org/2000/svg" version="1.1" width="300" height="300" viewBox="0 0 300 300"><rect x="0" y="0" width="300" height="300" fill="#ffffff"/><g transform="scale(4.918)"><g transform="translate(2,2)"><path fill-rule="evenodd" d="M10 0L10 1L11 1L11 2L9 2L9 1L8 1L8 2L9 2L9 3L8 3L8 4L9 4L9 3L10 3L10 4L12 4L12 1L13 1L13 0L12 0L12 1L11 1L11 0ZM14 0L14 1L15 1L15 4L14 4L14 2L13 2L13 5L15 5L15 6L14 6L14 7L13 7L13 6L12 6L12 7L11 7L11 5L10 5L10 7L9 7L9 5L8 5L8 7L9 7L9 8L6 8L6 9L5 9L5 8L0 8L0 13L2 13L2 14L0 14L0 16L1 16L1 15L2 15L2 14L5 14L5 13L9 13L9 14L12 14L12 12L14 12L14 11L13 11L13 10L15 10L15 13L18 13L18 15L19 15L19 13L18 13L18 12L17 12L17 11L18 11L18 10L20 10L20 9L19 9L19 8L18 8L18 7L19 7L19 6L20 6L20 7L21 7L21 6L20 6L20 5L19 5L19 6L18 6L18 7L17 7L17 4L16 4L16 2L17 2L17 1L15 1L15 0ZM21 0L21 2L20 2L20 3L18 3L18 4L20 4L20 3L21 3L21 2L22 2L22 1L23 1L23 2L24 2L24 4L21 4L21 5L24 5L24 4L25 4L25 6L24 6L24 7L23 7L23 6L22 6L22 7L23 7L23 8L24 8L24 9L22 9L22 8L21 8L21 11L22 11L22 10L24 10L24 11L23 11L23 12L25 12L25 13L23 13L23 14L25 14L25 13L28 13L28 14L26 14L26 15L30 15L30 16L33 16L33 15L35 15L35 16L36 16L36 19L38 19L38 21L37 21L37 20L36 20L36 21L37 21L37 22L36 22L36 23L34 23L34 24L36 24L36 25L35 25L35 27L34 27L34 25L33 25L33 27L32 27L32 28L31 28L31 26L32 26L32 25L31 25L31 24L32 24L32 23L33 23L33 21L35 21L35 20L34 20L34 19L35 19L35 18L33 18L33 19L32 19L32 17L29 17L29 18L31 18L31 19L30 19L30 20L29 20L29 21L30 21L30 22L27 22L27 23L28 23L28 24L27 24L27 25L26 25L26 24L25 24L25 23L26 23L26 22L25 22L25 20L26 20L26 21L27 21L27 20L28 20L28 18L25 18L25 17L28 17L28 16L25 16L25 15L22 15L22 14L20 14L20 15L21 15L21 16L20 16L20 17L19 17L19 16L18 16L18 17L17 17L17 14L14 14L14 13L13 13L13 14L14 14L14 16L15 16L15 17L13 17L13 16L11 16L11 15L10 15L10 16L9 16L9 17L7 17L7 16L6 16L6 15L8 15L8 14L6 14L6 15L5 15L5 16L6 16L6 17L5 17L5 18L4 18L4 19L3 19L3 20L4 20L4 19L5 19L5 18L6 18L6 19L7 19L7 20L6 20L6 21L7 21L7 22L6 22L6 23L5 23L5 22L3 22L3 21L2 21L2 19L1 19L1 18L2 18L2 17L3 17L3 16L4 16L4 15L3 15L3 16L2 16L2 17L1 17L1 18L0 18L0 19L1 19L1 20L0 20L0 21L2 21L2 23L1 23L1 22L0 22L0 23L1 23L1 24L0 24L0 26L1 26L1 27L0 27L0 29L1 29L1 30L0 30L0 31L1 31L1 32L0 32L0 33L2 33L2 34L4 34L4 32L3 32L3 31L9 31L9 30L10 30L10 31L11 31L11 30L10 30L10 29L9 29L9 26L10 26L10 27L11 27L11 28L12 28L12 29L13 29L13 30L14 30L14 31L13 31L13 33L11 33L11 32L9 32L9 34L8 34L8 33L7 33L7 32L6 32L6 33L7 33L7 34L6 34L6 35L8 35L8 36L6 36L6 37L4 37L4 35L0 35L0 37L1 37L1 36L3 36L3 37L4 37L4 38L1 38L1 40L0 40L0 41L1 41L1 40L3 40L3 39L4 39L4 38L5 38L5 39L7 39L7 40L6 40L6 41L7 41L7 40L8 40L8 41L9 41L9 42L5 42L5 44L4 44L4 43L2 43L2 42L1 42L1 45L0 45L0 48L5 48L5 47L10 47L10 49L9 49L9 48L8 48L8 51L10 51L10 52L11 52L11 53L15 53L15 54L14 54L14 55L13 55L13 56L12 56L12 54L10 54L10 55L9 55L9 52L8 52L8 57L9 57L9 56L10 56L10 57L13 57L13 56L15 56L15 57L16 57L16 55L15 55L15 54L16 54L16 53L15 53L15 52L16 52L16 51L15 51L15 50L16 50L16 49L17 49L17 50L18 50L18 51L17 51L17 53L19 53L19 54L20 54L20 55L17 55L17 57L19 57L19 56L21 56L21 55L24 55L24 57L26 57L26 56L28 56L28 55L27 55L27 53L28 53L28 54L29 54L29 55L30 55L30 56L29 56L29 57L31 57L31 56L32 56L32 55L33 55L33 56L34 56L34 55L35 55L35 54L34 54L34 55L33 55L33 54L32 54L32 52L34 52L34 51L35 51L35 52L36 52L36 53L39 53L39 54L36 54L36 55L37 55L37 56L35 56L35 57L37 57L37 56L38 56L38 57L39 57L39 56L38 56L38 55L40 55L40 56L41 56L41 55L42 55L42 56L43 56L43 57L44 57L44 55L42 55L42 54L43 54L43 53L44 53L44 54L45 54L45 57L47 57L47 56L50 56L50 55L51 55L51 57L52 57L52 56L53 56L53 55L54 55L54 56L55 56L55 57L56 57L56 56L55 56L55 53L56 53L56 52L55 52L55 51L54 51L54 52L55 52L55 53L54 53L54 54L53 54L53 49L54 49L54 48L55 48L55 50L57 50L57 49L56 49L56 48L55 48L55 47L56 47L56 46L57 46L57 45L54 45L54 44L57 44L57 43L56 43L56 42L57 42L57 41L55 41L55 39L57 39L57 36L56 36L56 38L55 38L55 37L54 37L54 36L55 36L55 35L54 35L54 36L53 36L53 34L52 34L52 36L51 36L51 37L52 37L52 36L53 36L53 38L52 38L52 39L49 39L49 38L50 38L50 37L49 37L49 38L48 38L48 39L49 39L49 40L51 40L51 41L48 41L48 42L46 42L46 43L45 43L45 47L42 47L42 46L44 46L44 44L43 44L43 43L44 43L44 40L46 40L46 39L47 39L47 38L46 38L46 39L44 39L44 40L43 40L43 41L42 41L42 39L40 39L40 38L38 38L38 37L40 37L40 36L41 36L41 38L43 38L43 37L44 37L44 38L45 38L45 37L46 37L46 36L47 36L47 35L48 35L48 33L47 33L47 34L46 34L46 32L48 32L48 31L50 31L50 32L51 32L51 33L53 33L53 32L55 32L55 33L54 33L54 34L57 34L57 33L56 33L56 30L57 30L57 29L54 29L54 28L56 28L56 25L57 25L57 23L56 23L56 22L57 22L57 21L56 21L56 20L57 20L57 19L55 19L55 18L57 18L57 17L52 17L52 16L55 16L55 15L56 15L56 16L57 16L57 15L56 15L56 14L57 14L57 13L56 13L56 12L57 12L57 11L56 11L56 10L57 10L57 9L56 9L56 8L55 8L55 11L54 11L54 10L52 10L52 8L51 8L51 10L49 10L49 9L50 9L50 8L49 8L49 9L48 9L48 7L49 7L49 6L48 6L48 7L47 7L47 5L48 5L48 0L46 0L46 1L47 1L47 2L43 2L43 3L47 3L47 5L46 5L46 4L44 4L44 5L45 5L45 6L44 6L44 7L43 7L43 6L42 6L42 5L43 5L43 4L42 4L42 5L40 5L40 3L41 3L41 2L42 2L42 1L44 1L44 0L42 0L42 1L38 1L38 0L35 0L35 1L33 1L33 0L30 0L30 1L29 1L29 0L28 0L28 1L27 1L27 2L24 2L24 1L26 1L26 0L24 0L24 1L23 1L23 0ZM18 1L18 2L19 2L19 1ZM28 1L28 2L27 2L27 3L28 3L28 4L29 4L29 3L28 3L28 2L29 2L29 1ZM30 1L30 2L31 2L31 1ZM32 1L32 2L33 2L33 1ZM37 1L37 2L34 2L34 3L32 3L32 4L31 4L31 8L33 8L33 7L34 7L34 8L35 8L35 9L33 9L33 11L31 11L31 10L32 10L32 9L31 9L31 10L29 10L29 9L26 9L26 6L25 6L25 7L24 7L24 8L25 8L25 12L27 12L27 11L26 11L26 10L29 10L29 12L28 12L28 13L29 13L29 14L30 14L30 13L29 13L29 12L30 12L30 11L31 11L31 12L32 12L32 14L31 14L31 15L32 15L32 14L35 14L35 13L33 13L33 11L34 11L34 12L35 12L35 11L34 11L34 10L35 10L35 9L36 9L36 8L37 8L37 9L38 9L38 10L36 10L36 12L37 12L37 11L38 11L38 10L41 10L41 9L44 9L44 10L42 10L42 11L40 11L40 12L38 12L38 13L37 13L37 14L36 14L36 16L37 16L37 18L40 18L40 19L39 19L39 20L40 20L40 21L43 21L43 22L40 22L40 23L39 23L39 21L38 21L38 23L39 23L39 24L38 24L38 28L37 28L37 30L36 30L36 32L35 32L35 31L33 31L33 30L35 30L35 29L33 29L33 28L34 28L34 27L33 27L33 28L32 28L32 29L31 29L31 30L32 30L32 31L26 31L26 32L23 32L23 31L24 31L24 29L25 29L25 30L26 30L26 27L25 27L25 28L24 28L24 27L23 27L23 28L24 28L24 29L22 29L22 28L21 28L21 27L22 27L22 26L23 26L23 24L24 24L24 25L25 25L25 26L26 26L26 25L25 25L25 24L24 24L24 23L23 23L23 24L22 24L22 23L21 23L21 25L20 25L20 26L19 26L19 29L20 29L20 30L21 30L21 31L19 31L19 30L17 30L17 29L18 29L18 28L17 28L17 27L18 27L18 26L17 26L17 25L15 25L15 24L14 24L14 23L16 23L16 24L17 24L17 22L19 22L19 23L18 23L18 24L19 24L19 23L20 23L20 22L19 22L19 21L21 21L21 22L22 22L22 21L23 21L23 22L24 22L24 21L23 21L23 20L22 20L22 21L21 21L21 19L19 19L19 17L18 17L18 19L16 19L16 18L17 18L17 17L15 17L15 19L16 19L16 20L15 20L15 21L13 21L13 20L14 20L14 19L13 19L13 20L10 20L10 19L9 19L9 20L8 20L8 21L10 21L10 22L9 22L9 23L8 23L8 22L7 22L7 23L6 23L6 24L7 24L7 25L5 25L5 26L8 26L8 24L9 24L9 25L10 25L10 24L13 24L13 25L11 25L11 27L13 27L13 29L14 29L14 30L15 30L15 32L17 32L17 33L13 33L13 34L11 34L11 35L12 35L12 36L11 36L11 37L9 37L9 36L8 36L8 37L6 37L6 38L9 38L9 39L8 39L8 40L9 40L9 41L11 41L11 42L10 42L10 43L9 43L9 44L8 44L8 43L6 43L6 44L5 44L5 46L3 46L3 47L5 47L5 46L7 46L7 45L8 45L8 46L9 46L9 45L10 45L10 47L12 47L12 49L10 49L10 50L11 50L11 52L12 52L12 51L13 51L13 52L15 52L15 51L14 51L14 50L15 50L15 49L16 49L16 48L15 48L15 47L17 47L17 49L18 49L18 50L19 50L19 51L18 51L18 52L19 52L19 53L21 53L21 54L22 54L22 53L23 53L23 54L24 54L24 53L23 53L23 52L24 52L24 51L25 51L25 52L26 52L26 47L25 47L25 46L27 46L27 45L28 45L28 48L29 48L29 45L28 45L28 44L29 44L29 43L30 43L30 46L31 46L31 47L33 47L33 48L31 48L31 49L32 49L32 51L31 51L31 52L32 52L32 51L34 51L34 50L35 50L35 51L36 51L36 52L37 52L37 51L36 51L36 50L35 50L35 49L36 49L36 48L37 48L37 50L39 50L39 48L40 48L40 51L38 51L38 52L40 52L40 55L41 55L41 53L42 53L42 52L43 52L43 51L44 51L44 53L45 53L45 54L47 54L47 55L48 55L48 54L51 54L51 55L53 55L53 54L51 54L51 53L48 53L48 52L47 52L47 51L48 51L48 48L50 48L50 47L51 47L51 45L52 45L52 47L53 47L53 48L54 48L54 47L55 47L55 46L54 46L54 45L52 45L52 44L53 44L53 43L54 43L54 40L52 40L52 41L51 41L51 42L50 42L50 43L51 43L51 42L53 42L53 43L52 43L52 44L50 44L50 45L49 45L49 43L48 43L48 44L47 44L47 45L46 45L46 46L47 46L47 47L46 47L46 48L47 48L47 49L46 49L46 50L45 50L45 48L40 48L40 47L39 47L39 45L40 45L40 46L42 46L42 45L43 45L43 44L41 44L41 42L40 42L40 41L41 41L41 40L38 40L38 39L36 39L36 38L37 38L37 37L38 37L38 36L40 36L40 35L38 35L38 34L42 34L42 35L41 35L41 36L42 36L42 37L43 37L43 36L42 36L42 35L44 35L44 37L45 37L45 35L46 35L46 34L42 34L42 33L45 33L45 32L38 32L38 31L37 31L37 30L39 30L39 29L40 29L40 30L42 30L42 31L43 31L43 30L44 30L44 31L46 31L46 30L47 30L47 31L48 31L48 29L46 29L46 30L45 30L45 27L46 27L46 28L47 28L47 27L48 27L48 26L47 26L47 25L49 25L49 24L48 24L48 23L50 23L50 24L52 24L52 25L50 25L50 26L52 26L52 25L53 25L53 27L55 27L55 26L54 26L54 25L55 25L55 24L56 24L56 23L55 23L55 22L54 22L54 21L55 21L55 20L54 20L54 19L52 19L52 18L51 18L51 16L52 16L52 15L54 15L54 13L55 13L55 14L56 14L56 13L55 13L55 12L56 12L56 11L55 11L55 12L54 12L54 11L53 11L53 12L52 12L52 11L50 11L50 15L46 15L46 18L41 18L41 17L42 17L42 15L45 15L45 12L46 12L46 14L47 14L47 13L49 13L49 12L48 12L48 11L49 11L49 10L48 10L48 9L47 9L47 7L46 7L46 6L45 6L45 7L46 7L46 9L45 9L45 8L41 8L41 7L42 7L42 6L41 6L41 7L40 7L40 6L39 6L39 4L38 4L38 6L37 6L37 5L36 5L36 3L37 3L37 2L38 2L38 1ZM25 3L25 4L26 4L26 3ZM15 4L15 5L16 5L16 4ZM27 5L27 8L30 8L30 5ZM34 5L34 7L35 7L35 6L36 6L36 7L37 7L37 6L36 6L36 5ZM15 6L15 7L14 7L14 9L15 9L15 10L16 10L16 11L17 11L17 8L16 8L16 6ZM28 6L28 7L29 7L29 6ZM32 6L32 7L33 7L33 6ZM38 6L38 9L39 9L39 6ZM12 7L12 8L10 8L10 9L6 9L6 10L7 10L7 11L4 11L4 10L1 10L1 11L3 11L3 12L2 12L2 13L3 13L3 12L8 12L8 10L11 10L11 9L12 9L12 8L13 8L13 7ZM53 8L53 9L54 9L54 8ZM45 10L45 11L42 11L42 14L40 14L40 13L39 13L39 14L37 14L37 16L38 16L38 17L40 17L40 16L41 16L41 15L42 15L42 14L44 14L44 12L45 12L45 11L47 11L47 10ZM9 11L9 12L10 12L10 13L11 13L11 12L10 12L10 11ZM20 12L20 13L22 13L22 12ZM51 13L51 14L52 14L52 13ZM39 14L39 15L38 15L38 16L40 16L40 14ZM15 15L15 16L16 16L16 15ZM22 16L22 17L23 17L23 16ZM24 16L24 17L25 17L25 16ZM43 16L43 17L45 17L45 16ZM47 16L47 17L48 17L48 18L49 18L49 19L47 19L47 18L46 18L46 19L47 19L47 20L45 20L45 19L40 19L40 20L45 20L45 21L44 21L44 23L46 23L46 24L47 24L47 23L48 23L48 22L50 22L50 23L51 23L51 22L50 22L50 19L51 19L51 20L52 20L52 19L51 19L51 18L50 18L50 16L49 16L49 17L48 17L48 16ZM6 17L6 18L7 18L7 19L8 19L8 18L7 18L7 17ZM20 17L20 18L21 18L21 17ZM11 18L11 19L12 19L12 18ZM22 18L22 19L23 19L23 18ZM24 18L24 20L25 20L25 18ZM18 19L18 21L19 21L19 19ZM26 19L26 20L27 20L27 19ZM32 20L32 21L33 21L33 20ZM47 20L47 21L45 21L45 22L46 22L46 23L47 23L47 21L49 21L49 20ZM12 21L12 23L14 23L14 22L13 22L13 21ZM15 21L15 22L16 22L16 21ZM10 22L10 23L9 23L9 24L10 24L10 23L11 23L11 22ZM30 22L30 23L31 23L31 22ZM52 22L52 24L53 24L53 25L54 25L54 24L55 24L55 23L54 23L54 22ZM3 23L3 24L1 24L1 26L2 26L2 27L1 27L1 28L2 28L2 30L1 30L1 31L2 31L2 30L3 30L3 28L2 28L2 27L4 27L4 25L3 25L3 24L5 24L5 23ZM36 23L36 24L37 24L37 23ZM40 23L40 24L39 24L39 26L40 26L40 27L39 27L39 28L41 28L41 26L42 26L42 28L43 28L43 29L42 29L42 30L43 30L43 29L44 29L44 27L43 27L43 25L44 25L44 26L46 26L46 27L47 27L47 26L46 26L46 25L44 25L44 24L43 24L43 23L42 23L42 24L41 24L41 23ZM28 24L28 26L29 26L29 24ZM40 24L40 26L41 26L41 24ZM42 24L42 25L43 25L43 24ZM13 25L13 27L14 27L14 25ZM21 25L21 26L22 26L22 25ZM15 26L15 29L17 29L17 28L16 28L16 27L17 27L17 26ZM36 26L36 27L35 27L35 28L36 28L36 27L37 27L37 26ZM5 27L5 30L8 30L8 27ZM27 27L27 30L30 30L30 27ZM49 27L49 30L52 30L52 27ZM6 28L6 29L7 29L7 28ZM20 28L20 29L21 29L21 30L22 30L22 31L21 31L21 32L18 32L18 33L19 33L19 34L18 34L18 35L20 35L20 33L21 33L21 35L22 35L22 34L23 34L23 35L24 35L24 37L22 37L22 36L21 36L21 37L22 37L22 38L21 38L21 39L22 39L22 38L24 38L24 37L26 37L26 39L25 39L25 40L24 40L24 39L23 39L23 40L24 40L24 41L21 41L21 43L22 43L22 42L26 42L26 43L27 43L27 42L26 42L26 41L27 41L27 40L26 40L26 39L28 39L28 40L29 40L29 41L32 41L32 42L30 42L30 43L31 43L31 44L34 44L34 42L35 42L35 43L38 43L38 44L35 44L35 45L36 45L36 46L33 46L33 47L35 47L35 48L36 48L36 47L37 47L37 48L38 48L38 47L37 47L37 46L38 46L38 44L40 44L40 42L36 42L36 41L38 41L38 40L36 40L36 39L35 39L35 38L36 38L36 37L37 37L37 36L36 36L36 37L35 37L35 36L33 36L33 37L35 37L35 38L33 38L33 39L34 39L34 40L29 40L29 39L31 39L31 38L32 38L32 35L30 35L30 34L29 34L29 35L30 35L30 36L29 36L29 37L28 37L28 36L27 36L27 35L26 35L26 34L25 34L25 33L22 33L22 31L23 31L23 30L22 30L22 29L21 29L21 28ZM28 28L28 29L29 29L29 28ZM50 28L50 29L51 29L51 28ZM32 29L32 30L33 30L33 29ZM53 29L53 30L54 30L54 31L55 31L55 30L54 30L54 29ZM16 30L16 31L17 31L17 30ZM32 31L32 32L31 32L31 33L32 33L32 32L33 32L33 31ZM52 31L52 32L53 32L53 31ZM27 32L27 33L30 33L30 32ZM36 32L36 33L35 33L35 34L34 34L34 33L33 33L33 34L34 34L34 35L35 35L35 34L36 34L36 35L37 35L37 34L38 34L38 32ZM49 33L49 35L50 35L50 33ZM9 34L9 35L10 35L10 34ZM13 34L13 36L14 36L14 34ZM16 34L16 35L15 35L15 37L16 37L16 38L15 38L15 39L13 39L13 40L11 40L11 39L12 39L12 38L13 38L13 37L12 37L12 38L11 38L11 39L10 39L10 40L11 40L11 41L13 41L13 42L12 42L12 44L13 44L13 42L15 42L15 43L16 43L16 44L14 44L14 45L13 45L13 46L12 46L12 45L11 45L11 46L12 46L12 47L13 47L13 46L14 46L14 47L15 47L15 46L14 46L14 45L18 45L18 47L19 47L19 45L22 45L22 44L19 44L19 45L18 45L18 44L17 44L17 43L18 43L18 42L17 42L17 43L16 43L16 42L15 42L15 41L16 41L16 40L17 40L17 41L19 41L19 43L20 43L20 40L17 40L17 38L18 38L18 39L20 39L20 38L18 38L18 37L20 37L20 36L17 36L17 37L16 37L16 35L17 35L17 34ZM30 36L30 38L31 38L31 36ZM27 37L27 38L28 38L28 37ZM53 38L53 39L55 39L55 38ZM15 39L15 40L16 40L16 39ZM4 40L4 41L5 41L5 40ZM35 40L35 41L36 41L36 40ZM33 41L33 42L34 42L34 41ZM28 42L28 43L29 43L29 42ZM23 43L23 45L24 45L24 46L23 46L23 47L22 47L22 46L21 46L21 48L20 48L20 49L19 49L19 48L18 48L18 49L19 49L19 50L20 50L20 49L21 49L21 51L20 51L20 52L21 52L21 53L22 53L22 52L21 52L21 51L24 51L24 50L25 50L25 49L21 49L21 48L23 48L23 47L24 47L24 48L25 48L25 47L24 47L24 46L25 46L25 45L26 45L26 44L25 44L25 45L24 45L24 43ZM3 44L3 45L4 45L4 44ZM6 44L6 45L7 45L7 44ZM31 45L31 46L32 46L32 45ZM48 45L48 46L49 46L49 47L50 47L50 46L49 46L49 45ZM1 46L1 47L2 47L2 46ZM53 46L53 47L54 47L54 46ZM6 48L6 49L7 49L7 48ZM12 49L12 50L14 50L14 49ZM27 49L27 52L30 52L30 49ZM33 49L33 50L34 50L34 49ZM42 49L42 50L41 50L41 51L40 51L40 52L42 52L42 50L44 50L44 49ZM49 49L49 52L52 52L52 49ZM28 50L28 51L29 51L29 50ZM46 50L46 51L45 51L45 52L46 52L46 53L47 53L47 54L48 54L48 53L47 53L47 52L46 52L46 51L47 51L47 50ZM50 50L50 51L51 51L51 50ZM25 53L25 54L26 54L26 53ZM29 53L29 54L30 54L30 53ZM10 55L10 56L11 56L11 55ZM0 0L0 7L7 7L7 0ZM1 1L1 6L6 6L6 1ZM2 2L2 5L5 5L5 2ZM50 0L50 7L57 7L57 0ZM51 1L51 6L56 6L56 1ZM52 2L52 5L55 5L55 2ZM0 50L0 57L7 57L7 50ZM1 51L1 56L6 56L6 51ZM2 52L2 55L5 55L5 52Z" fill="#000000"/></g></g></svg>
