<?xml version="1.0" encoding="UTF-8"?>
<svg xmlns="http://www.w3.org/2000/svg" version="1.1" width="300" height="300" viewBox="0 0 300 300"><rect x="0" y="0" width="300" height="300" fill="#ffffff"/><g transform="scale(4.918)"><g transform="translate(2,2)"><path fill-rule="evenodd" d="M9 0L9 1L8 1L8 2L9 2L9 3L8 3L8 4L9 4L9 5L8 5L8 7L9 7L9 5L10 5L10 4L9 4L9 3L10 3L10 2L12 2L12 3L11 3L11 5L12 5L12 4L14 4L14 5L13 5L13 6L12 6L12 7L11 7L11 6L10 6L10 10L9 10L9 8L6 8L6 9L8 9L8 10L5 10L5 8L0 8L0 9L1 9L1 10L2 10L2 9L3 9L3 10L4 10L4 11L3 11L3 14L2 14L2 13L0 13L0 16L1 16L1 17L0 17L0 18L1 18L1 19L2 19L2 20L3 20L3 18L4 18L4 17L5 17L5 18L6 18L6 19L8 19L8 18L9 18L9 20L5 20L5 22L4 22L4 21L1 21L1 20L0 20L0 22L1 22L1 23L2 23L2 22L4 22L4 25L3 25L3 27L1 27L1 28L0 28L0 31L3 31L3 32L2 32L2 33L3 33L3 35L1 35L1 32L0 32L0 36L1 36L1 39L0 39L0 42L1 42L1 43L0 43L0 44L1 44L1 43L2 43L2 47L1 47L1 46L0 46L0 48L5 48L5 47L7 47L7 48L6 48L6 49L7 49L7 48L9 48L9 49L8 49L8 51L9 51L9 52L8 52L8 57L13 57L13 55L12 55L12 53L13 53L13 52L17 52L17 51L18 51L18 53L19 53L19 54L17 54L17 56L16 56L16 55L15 55L15 56L14 56L14 57L15 57L15 56L16 56L16 57L19 57L19 56L23 56L23 57L24 57L24 56L25 56L25 54L27 54L27 53L28 53L28 54L29 54L29 55L30 55L30 56L29 56L29 57L31 57L31 55L32 55L32 56L33 56L33 54L32 54L32 52L33 52L33 53L34 53L34 52L36 52L36 53L37 53L37 54L36 54L36 55L37 55L37 56L35 56L35 55L34 55L34 56L35 56L35 57L39 57L39 56L41 56L41 57L42 57L42 55L40 55L40 52L41 52L41 51L40 51L40 50L44 50L44 49L43 49L43 48L46 48L46 47L47 47L47 46L51 46L51 47L49 47L49 48L48 48L48 51L47 51L47 50L45 50L45 53L44 53L44 51L42 51L42 53L41 53L41 54L43 54L43 53L44 53L44 54L45 54L45 57L47 57L47 56L46 56L46 54L45 54L45 53L46 53L46 52L48 52L48 53L47 53L47 55L48 55L48 56L50 56L50 55L51 55L51 57L52 57L52 56L55 56L55 57L56 57L56 56L55 56L55 54L54 54L54 55L51 55L51 54L53 54L53 53L54 53L54 52L56 52L56 51L55 51L55 50L57 50L57 48L56 48L56 46L57 46L57 45L56 45L56 46L55 46L55 45L54 45L54 44L55 44L55 43L56 43L56 44L57 44L57 43L56 43L56 42L57 42L57 41L54 41L54 40L55 40L55 39L57 39L57 37L54 37L54 36L57 36L57 35L55 35L55 34L57 34L57 33L56 33L56 32L57 32L57 31L56 31L56 30L57 30L57 28L56 28L56 25L54 25L54 24L55 24L55 23L56 23L56 24L57 24L57 23L56 23L56 22L57 22L57 21L55 21L55 22L53 22L53 23L52 23L52 24L51 24L51 25L52 25L52 26L49 26L49 25L50 25L50 23L51 23L51 22L50 22L50 19L51 19L51 21L52 21L52 20L53 20L53 21L54 21L54 20L55 20L55 18L57 18L57 15L56 15L56 14L57 14L57 13L56 13L56 12L55 12L55 11L56 11L56 10L55 10L55 11L54 11L54 10L53 10L53 11L52 11L52 12L53 12L53 11L54 11L54 12L55 12L55 13L53 13L53 16L55 16L55 17L54 17L54 18L53 18L53 17L52 17L52 19L51 19L51 18L49 18L49 17L47 17L47 16L46 16L46 17L45 17L45 18L46 18L46 19L44 19L44 18L43 18L43 17L44 17L44 16L45 16L45 15L49 15L49 16L52 16L52 15L51 15L51 14L52 14L52 13L51 13L51 12L50 12L50 13L51 13L51 14L49 14L49 13L47 13L47 14L46 14L46 12L45 12L45 11L47 11L47 12L49 12L49 11L51 11L51 10L49 10L49 9L50 9L50 8L49 8L49 6L48 6L48 8L45 8L45 9L44 9L44 7L45 7L45 6L46 6L46 7L47 7L47 5L48 5L48 0L44 0L44 1L47 1L47 2L43 2L43 3L41 3L41 2L40 2L40 0L39 0L39 1L34 1L34 0L33 0L33 1L32 1L32 0L27 0L27 2L26 2L26 0L23 0L23 2L21 2L21 1L22 1L22 0L21 0L21 1L20 1L20 0L19 0L19 1L18 1L18 4L16 4L16 2L17 2L17 1L15 1L15 0L14 0L14 1L15 1L15 2L13 2L13 0L11 0L11 1L10 1L10 0ZM41 0L41 1L43 1L43 0ZM9 1L9 2L10 2L10 1ZM19 1L19 3L20 3L20 4L18 4L18 5L17 5L17 7L18 7L18 6L19 6L19 9L20 9L20 11L19 11L19 10L18 10L18 9L15 9L15 8L16 8L16 6L15 6L15 5L16 5L16 4L15 4L15 3L14 3L14 4L15 4L15 5L14 5L14 6L13 6L13 7L12 7L12 8L11 8L11 10L10 10L10 11L9 11L9 12L8 12L8 13L4 13L4 14L3 14L3 15L4 15L4 16L2 16L2 15L1 15L1 16L2 16L2 17L4 17L4 16L5 16L5 17L6 17L6 18L8 18L8 17L6 17L6 16L9 16L9 18L10 18L10 19L11 19L11 20L10 20L10 21L6 21L6 22L9 22L9 23L6 23L6 24L7 24L7 25L5 25L5 26L7 26L7 25L8 25L8 26L9 26L9 25L8 25L8 24L9 24L9 23L10 23L10 21L12 21L12 17L11 17L11 18L10 18L10 16L13 16L13 15L15 15L15 14L17 14L17 15L16 15L16 16L18 16L18 15L19 15L19 17L16 17L16 18L17 18L17 20L15 20L15 21L13 21L13 22L12 22L12 23L11 23L11 24L10 24L10 25L11 25L11 26L10 26L10 27L9 27L9 28L11 28L11 26L12 26L12 27L14 27L14 28L15 28L15 27L14 27L14 25L12 25L12 24L14 24L14 23L16 23L16 24L15 24L15 26L17 26L17 27L18 27L18 25L16 25L16 24L19 24L19 25L20 25L20 26L19 26L19 29L20 29L20 30L19 30L19 33L18 33L18 34L19 34L19 36L20 36L20 37L17 37L17 35L16 35L16 37L15 37L15 36L14 36L14 35L15 35L15 34L14 34L14 35L13 35L13 34L12 34L12 35L13 35L13 36L8 36L8 35L10 35L10 33L9 33L9 34L7 34L7 33L6 33L6 32L7 32L7 31L4 31L4 32L3 32L3 33L4 33L4 32L5 32L5 33L6 33L6 34L5 34L5 36L4 36L4 35L3 35L3 36L4 36L4 37L5 37L5 38L2 38L2 39L3 39L3 40L2 40L2 41L1 41L1 42L2 42L2 43L3 43L3 42L2 42L2 41L6 41L6 42L7 42L7 41L9 41L9 40L10 40L10 43L9 43L9 44L8 44L8 43L5 43L5 44L8 44L8 45L5 45L5 46L4 46L4 44L3 44L3 47L5 47L5 46L8 46L8 45L11 45L11 44L10 44L10 43L11 43L11 42L12 42L12 39L14 39L14 38L16 38L16 37L17 37L17 38L18 38L18 39L17 39L17 40L16 40L16 39L15 39L15 40L16 40L16 41L14 41L14 40L13 40L13 41L14 41L14 42L13 42L13 43L12 43L12 45L13 45L13 46L11 46L11 49L12 49L12 47L13 47L13 49L14 49L14 51L15 51L15 49L14 49L14 46L15 46L15 44L18 44L18 45L16 45L16 46L17 46L17 47L16 47L16 48L17 48L17 47L18 47L18 48L19 48L19 49L16 49L16 51L17 51L17 50L21 50L21 51L22 51L22 53L21 53L21 52L19 52L19 53L21 53L21 55L23 55L23 56L24 56L24 55L23 55L23 54L24 54L24 53L23 53L23 52L24 52L24 51L25 51L25 53L26 53L26 49L25 49L25 50L23 50L23 48L22 48L22 47L25 47L25 48L27 48L27 47L26 47L26 46L28 46L28 47L29 47L29 48L31 48L31 49L33 49L33 48L35 48L35 49L34 49L34 50L32 50L32 51L31 51L31 52L32 52L32 51L34 51L34 50L37 50L37 51L36 51L36 52L38 52L38 54L37 54L37 55L38 55L38 56L39 56L39 52L40 52L40 51L39 51L39 52L38 52L38 50L39 50L39 49L38 49L38 50L37 50L37 49L36 49L36 48L40 48L40 49L41 49L41 48L42 48L42 47L43 47L43 46L44 46L44 45L45 45L45 44L44 44L44 42L49 42L49 41L51 41L51 42L50 42L50 43L51 43L51 42L53 42L53 43L52 43L52 44L53 44L53 43L54 43L54 41L51 41L51 39L53 39L53 40L54 40L54 39L53 39L53 38L54 38L54 37L51 37L51 36L52 36L52 34L53 34L53 35L54 35L54 34L53 34L53 33L51 33L51 34L50 34L50 32L49 32L49 31L48 31L48 27L46 27L46 26L47 26L47 25L49 25L49 24L47 24L47 25L46 25L46 24L41 24L41 21L43 21L43 22L42 22L42 23L44 23L44 21L45 21L45 22L46 22L46 23L47 23L47 21L46 21L46 20L48 20L48 19L49 19L49 18L47 18L47 17L46 17L46 18L47 18L47 19L46 19L46 20L42 20L42 19L43 19L43 18L42 18L42 17L43 17L43 16L44 16L44 15L45 15L45 12L43 12L43 13L44 13L44 15L43 15L43 14L42 14L42 11L45 11L45 10L48 10L48 9L49 9L49 8L48 8L48 9L45 9L45 10L42 10L42 9L43 9L43 7L44 7L44 6L45 6L45 5L44 5L44 4L46 4L46 5L47 5L47 3L43 3L43 5L42 5L42 4L41 4L41 3L40 3L40 4L39 4L39 3L38 3L38 4L37 4L37 5L36 5L36 3L37 3L37 2L35 2L35 3L34 3L34 5L33 5L33 3L32 3L32 4L31 4L31 3L28 3L28 2L32 2L32 1L28 1L28 2L27 2L27 3L28 3L28 4L31 4L31 8L33 8L33 11L34 11L34 12L35 12L35 13L33 13L33 12L32 12L32 11L31 11L31 10L32 10L32 9L31 9L31 10L30 10L30 9L29 9L29 10L28 10L28 9L26 9L26 6L25 6L25 4L26 4L26 3L25 3L25 4L24 4L24 2L23 2L23 3L21 3L21 2L20 2L20 1ZM33 1L33 2L34 2L34 1ZM21 4L21 6L20 6L20 5L19 5L19 6L20 6L20 7L21 7L21 6L22 6L22 7L23 7L23 9L22 9L22 10L21 10L21 11L22 11L22 10L25 10L25 8L24 8L24 7L25 7L25 6L24 6L24 7L23 7L23 5L24 5L24 4ZM40 4L40 5L41 5L41 6L40 6L40 8L41 8L41 6L42 6L42 7L43 7L43 6L42 6L42 5L41 5L41 4ZM27 5L27 8L30 8L30 5ZM34 5L34 7L33 7L33 6L32 6L32 7L33 7L33 8L35 8L35 10L34 10L34 11L35 11L35 12L36 12L36 13L35 13L35 14L33 14L33 13L32 13L32 12L31 12L31 11L30 11L30 10L29 10L29 11L28 11L28 10L26 10L26 11L27 11L27 12L25 12L25 11L24 11L24 12L23 12L23 13L24 13L24 14L23 14L23 16L24 16L24 17L22 17L22 15L21 15L21 14L19 14L19 13L22 13L22 12L19 12L19 13L18 13L18 12L16 12L16 10L15 10L15 12L16 12L16 13L18 13L18 14L19 14L19 15L21 15L21 16L20 16L20 17L21 17L21 18L23 18L23 19L19 19L19 18L18 18L18 19L19 19L19 20L17 20L17 21L19 21L19 22L18 22L18 23L19 23L19 24L21 24L21 23L22 23L22 24L23 24L23 23L24 23L24 25L23 25L23 26L22 26L22 25L21 25L21 26L20 26L20 27L21 27L21 28L20 28L20 29L21 29L21 30L20 30L20 31L21 31L21 32L20 32L20 33L21 33L21 34L20 34L20 35L21 35L21 34L22 34L22 33L21 33L21 32L24 32L24 33L23 33L23 34L25 34L25 35L24 35L24 37L21 37L21 40L19 40L19 39L20 39L20 38L19 38L19 39L18 39L18 40L17 40L17 41L19 41L19 42L20 42L20 41L21 41L21 40L24 40L24 39L23 39L23 38L24 38L24 37L25 37L25 35L26 35L26 38L25 38L25 41L22 41L22 42L21 42L21 43L20 43L20 45L18 45L18 47L19 47L19 46L20 46L20 45L22 45L22 44L21 44L21 43L22 43L22 42L23 42L23 43L24 43L24 44L23 44L23 45L24 45L24 46L25 46L25 45L26 45L26 44L25 44L25 42L26 42L26 43L27 43L27 45L29 45L29 46L30 46L30 47L31 47L31 48L33 48L33 47L35 47L35 48L36 48L36 47L39 47L39 46L40 46L40 44L43 44L43 45L42 45L42 46L41 46L41 47L40 47L40 48L41 48L41 47L42 47L42 46L43 46L43 45L44 45L44 44L43 44L43 41L44 41L44 40L43 40L43 39L42 39L42 38L43 38L43 37L44 37L44 38L45 38L45 41L46 41L46 38L45 38L45 37L44 37L44 35L42 35L42 36L41 36L41 35L40 35L40 34L43 34L43 32L45 32L45 31L44 31L44 30L43 30L43 29L44 29L44 28L45 28L45 30L46 30L46 31L47 31L47 32L46 32L46 33L47 33L47 34L45 34L45 36L47 36L47 35L49 35L49 34L48 34L48 33L47 33L47 32L48 32L48 31L47 31L47 30L46 30L46 29L47 29L47 28L46 28L46 27L42 27L42 26L44 26L44 25L42 25L42 26L40 26L40 25L39 25L39 24L40 24L40 22L39 22L39 24L37 24L37 22L38 22L38 21L37 21L37 20L36 20L36 21L37 21L37 22L36 22L36 23L35 23L35 22L33 22L33 21L35 21L35 20L34 20L34 19L35 19L35 18L36 18L36 19L38 19L38 20L39 20L39 21L40 21L40 20L41 20L41 19L42 19L42 18L41 18L41 19L40 19L40 18L36 18L36 17L38 17L38 16L35 16L35 15L40 15L40 16L39 16L39 17L40 17L40 16L43 16L43 15L42 15L42 14L41 14L41 13L39 13L39 14L37 14L37 13L38 13L38 12L40 12L40 11L42 11L42 10L41 10L41 9L40 9L40 10L39 10L39 11L38 11L38 7L39 7L39 5L37 5L37 6L36 6L36 5ZM14 6L14 7L15 7L15 6ZM28 6L28 7L29 7L29 6ZM35 6L35 7L36 7L36 6ZM37 6L37 7L38 7L38 6ZM13 8L13 9L14 9L14 8ZM20 8L20 9L21 9L21 8ZM51 8L51 9L52 9L52 8ZM53 8L53 9L54 9L54 8ZM55 8L55 9L56 9L56 8ZM11 10L11 12L12 12L12 13L13 13L13 14L11 14L11 13L10 13L10 12L9 12L9 13L10 13L10 14L9 14L9 15L10 15L10 14L11 14L11 15L13 15L13 14L14 14L14 13L13 13L13 12L14 12L14 11L13 11L13 12L12 12L12 10ZM17 10L17 11L18 11L18 10ZM35 10L35 11L36 11L36 12L37 12L37 10ZM0 11L0 12L2 12L2 11ZM4 11L4 12L5 12L5 11ZM6 11L6 12L7 12L7 11ZM29 11L29 12L28 12L28 13L25 13L25 12L24 12L24 13L25 13L25 14L24 14L24 15L26 15L26 16L25 16L25 18L26 18L26 21L25 21L25 22L26 22L26 23L25 23L25 24L26 24L26 25L25 25L25 26L26 26L26 25L27 25L27 26L28 26L28 25L29 25L29 24L27 24L27 23L29 23L29 22L30 22L30 23L31 23L31 24L30 24L30 25L32 25L32 26L33 26L33 27L31 27L31 28L32 28L32 29L31 29L31 31L28 31L28 32L30 32L30 33L26 33L26 32L27 32L27 31L25 31L25 34L26 34L26 35L27 35L27 36L28 36L28 37L27 37L27 38L28 38L28 37L29 37L29 36L30 36L30 38L31 38L31 39L29 39L29 41L28 41L28 39L26 39L26 40L27 40L27 41L26 41L26 42L27 42L27 43L28 43L28 42L29 42L29 43L30 43L30 46L31 46L31 43L32 43L32 47L33 47L33 46L35 46L35 44L37 44L37 46L39 46L39 45L38 45L38 44L40 44L40 43L42 43L42 42L41 42L41 40L39 40L39 39L41 39L41 38L42 38L42 37L41 37L41 36L40 36L40 35L38 35L38 34L40 34L40 33L42 33L42 31L43 31L43 30L42 30L42 29L43 29L43 28L42 28L42 27L40 27L40 28L39 28L39 27L38 27L38 26L39 26L39 25L38 25L38 26L37 26L37 25L34 25L34 24L35 24L35 23L31 23L31 22L30 22L30 21L31 21L31 20L28 20L28 19L31 19L31 18L32 18L32 19L34 19L34 18L35 18L35 16L34 16L34 18L32 18L32 17L33 17L33 16L30 16L30 15L27 15L27 14L28 14L28 13L29 13L29 14L30 14L30 13L29 13L29 12L30 12L30 11ZM31 13L31 14L32 14L32 13ZM55 13L55 14L56 14L56 13ZM6 14L6 15L8 15L8 14ZM55 15L55 16L56 16L56 15ZM14 16L14 18L15 18L15 16ZM26 16L26 17L28 17L28 16ZM29 17L29 18L31 18L31 17ZM27 18L27 19L28 19L28 18ZM13 19L13 20L14 20L14 19ZM39 19L39 20L40 20L40 19ZM56 19L56 20L57 20L57 19ZM19 20L19 21L21 21L21 22L22 22L22 23L23 23L23 22L24 22L24 21L23 21L23 20L22 20L22 21L21 21L21 20ZM27 20L27 21L28 21L28 22L29 22L29 21L28 21L28 20ZM32 20L32 21L33 21L33 20ZM15 21L15 22L16 22L16 21ZM22 21L22 22L23 22L23 21ZM13 22L13 23L14 23L14 22ZM19 22L19 23L20 23L20 22ZM49 22L49 23L50 23L50 22ZM53 23L53 24L52 24L52 25L53 25L53 27L55 27L55 26L54 26L54 25L53 25L53 24L54 24L54 23ZM33 25L33 26L34 26L34 28L33 28L33 29L35 29L35 30L33 30L33 31L31 31L31 32L36 32L36 34L38 34L38 33L39 33L39 32L41 32L41 31L42 31L42 30L41 30L41 29L39 29L39 30L37 30L37 28L38 28L38 27L37 27L37 28L36 28L36 27L35 27L35 26L34 26L34 25ZM21 26L21 27L22 27L22 26ZM3 27L3 29L2 29L2 28L1 28L1 29L2 29L2 30L4 30L4 27ZM5 27L5 30L8 30L8 27ZM25 27L25 28L24 28L24 29L22 29L22 28L21 28L21 29L22 29L22 30L21 30L21 31L22 31L22 30L23 30L23 31L24 31L24 29L25 29L25 30L26 30L26 27ZM27 27L27 30L30 30L30 27ZM49 27L49 30L52 30L52 27ZM6 28L6 29L7 29L7 28ZM12 28L12 29L13 29L13 28ZM17 28L17 29L16 29L16 31L15 31L15 30L14 30L14 31L13 31L13 30L12 30L12 31L11 31L11 30L10 30L10 29L9 29L9 31L8 31L8 32L10 32L10 31L11 31L11 33L12 33L12 32L14 32L14 31L15 31L15 33L16 33L16 34L17 34L17 33L16 33L16 31L18 31L18 30L17 30L17 29L18 29L18 28ZM28 28L28 29L29 29L29 28ZM50 28L50 29L51 29L51 28ZM54 28L54 29L55 29L55 30L56 30L56 28ZM35 30L35 31L36 31L36 32L37 32L37 31L36 31L36 30ZM39 30L39 31L38 31L38 32L39 32L39 31L41 31L41 30ZM52 31L52 32L54 32L54 33L55 33L55 32L54 32L54 31ZM6 34L6 35L7 35L7 34ZM29 34L29 35L30 35L30 36L31 36L31 38L32 38L32 34L31 34L31 35L30 35L30 34ZM33 34L33 38L34 38L34 40L35 40L35 42L34 42L34 41L32 41L32 40L33 40L33 39L31 39L31 41L29 41L29 42L30 42L30 43L31 43L31 41L32 41L32 42L34 42L34 43L33 43L33 44L34 44L34 43L37 43L37 44L38 44L38 43L37 43L37 42L38 42L38 39L39 39L39 38L40 38L40 36L39 36L39 38L36 38L36 37L38 37L38 36L36 36L36 37L35 37L35 38L34 38L34 36L35 36L35 34ZM22 35L22 36L23 36L23 35ZM50 35L50 36L51 36L51 35ZM6 36L6 37L7 37L7 38L5 38L5 39L4 39L4 40L5 40L5 39L7 39L7 38L8 38L8 39L9 39L9 38L11 38L11 37L7 37L7 36ZM13 36L13 37L14 37L14 36ZM47 37L47 38L48 38L48 39L50 39L50 38L48 38L48 37ZM36 39L36 40L37 40L37 39ZM6 40L6 41L7 41L7 40ZM42 40L42 41L43 41L43 40ZM27 41L27 42L28 42L28 41ZM36 41L36 42L37 42L37 41ZM14 42L14 44L15 44L15 42ZM17 42L17 43L18 43L18 42ZM39 42L39 43L40 43L40 42ZM48 43L48 44L47 44L47 45L46 45L46 46L47 46L47 45L48 45L48 44L49 44L49 45L51 45L51 46L52 46L52 47L53 47L53 48L54 48L54 49L56 49L56 48L54 48L54 47L53 47L53 45L51 45L51 44L49 44L49 43ZM24 44L24 45L25 45L25 44ZM9 46L9 47L10 47L10 46ZM21 46L21 47L20 47L20 49L21 49L21 50L22 50L22 49L21 49L21 47L22 47L22 46ZM27 49L27 52L30 52L30 49ZM49 49L49 52L52 52L52 49ZM12 50L12 51L10 51L10 54L11 54L11 53L12 53L12 51L13 51L13 50ZM28 50L28 51L29 51L29 50ZM50 50L50 51L51 51L51 50ZM15 53L15 54L16 54L16 53ZM22 53L22 54L23 54L23 53ZM29 53L29 54L30 54L30 53ZM48 53L48 54L49 54L49 55L50 55L50 54L51 54L51 53ZM19 54L19 55L18 55L18 56L19 56L19 55L20 55L20 54ZM11 55L11 56L12 56L12 55ZM26 55L26 56L28 56L28 55ZM43 56L43 57L44 57L44 56ZM0 0L0 7L7 7L7 0ZM1 1L1 6L6 6L6 1ZM2 2L2 5L5 5L5 2ZM50 0L50 7L57 7L57 0ZM51 1L51 6L56 6L56 1ZM52 2L52 5L55 5L55 2ZM0 50L0 57L7 57L7 50ZM1 51L1 56L6 56L6 51ZM2 52L2 55L5 55L5 52Z" fill="#000000"/></g></g></svg>
