<?xml version="1.0" encoding="UTF-8"?>
<svg xmlns="http://www.w3.org/2000/svg" version="1.1" width="300" height="300" viewBox="0 0 300 300"><rect x="0" y="0" width="300" height="300" fill="#ffffff"/><g transform="scale(4.918)"><g transform="translate(2,2)"><path fill-rule="evenodd" d="M9 0L9 1L8 1L8 2L9 2L9 1L10 1L10 0ZM11 0L11 1L12 1L12 3L15 3L15 4L14 4L14 5L13 5L13 4L12 4L12 5L13 5L13 6L12 6L12 7L11 7L11 6L10 6L10 7L9 7L9 5L10 5L10 4L11 4L11 3L8 3L8 4L9 4L9 5L8 5L8 7L9 7L9 8L6 8L6 9L5 9L5 8L0 8L0 10L2 10L2 9L3 9L3 10L4 10L4 11L3 11L3 12L2 12L2 13L1 13L1 14L3 14L3 13L4 13L4 15L3 15L3 16L2 16L2 15L1 15L1 16L0 16L0 17L3 17L3 19L2 19L2 20L1 20L1 18L0 18L0 21L1 21L1 23L4 23L4 24L5 24L5 25L4 25L4 27L3 27L3 24L2 24L2 27L3 27L3 29L2 29L2 30L1 30L1 29L0 29L0 31L2 31L2 32L3 32L3 33L1 33L1 32L0 32L0 33L1 33L1 34L0 34L0 35L2 35L2 36L3 36L3 35L4 35L4 36L6 36L6 37L0 37L0 38L1 38L1 39L3 39L3 40L2 40L2 41L1 41L1 40L0 40L0 42L1 42L1 43L0 43L0 45L1 45L1 46L0 46L0 48L5 48L5 47L8 47L8 51L9 51L9 52L8 52L8 57L9 57L9 56L10 56L10 55L9 55L9 54L10 54L10 53L9 53L9 52L10 52L10 51L11 51L11 54L13 54L13 55L14 55L14 54L13 54L13 52L14 52L14 51L13 51L13 49L14 49L14 50L15 50L15 52L16 52L16 51L17 51L17 52L18 52L18 53L17 53L17 54L18 54L18 55L17 55L17 56L16 56L16 55L15 55L15 57L19 57L19 56L22 56L22 55L21 55L21 54L23 54L23 55L24 55L24 56L23 56L23 57L24 57L24 56L25 56L25 57L26 57L26 56L28 56L28 55L26 55L26 54L27 54L27 53L28 53L28 54L29 54L29 55L30 55L30 57L32 57L32 56L31 56L31 55L34 55L34 54L32 54L32 52L33 52L33 53L35 53L35 56L33 56L33 57L35 57L35 56L36 56L36 57L37 57L37 56L38 56L38 55L39 55L39 56L40 56L40 52L42 52L42 53L41 53L41 55L43 55L43 53L44 53L44 54L45 54L45 53L44 53L44 51L40 51L40 52L39 52L39 54L38 54L38 53L37 53L37 52L36 52L36 51L37 51L37 50L38 50L38 51L39 51L39 50L40 50L40 49L39 49L39 50L38 50L38 47L37 47L37 46L38 46L38 45L39 45L39 46L41 46L41 47L39 47L39 48L41 48L41 50L46 50L46 51L47 51L47 52L48 52L48 53L47 53L47 54L48 54L48 55L49 55L49 56L48 56L48 57L49 57L49 56L50 56L50 57L52 57L52 56L54 56L54 57L56 57L56 56L55 56L55 54L54 54L54 55L51 55L51 54L53 54L53 52L55 52L55 51L54 51L54 50L55 50L55 49L54 49L54 48L55 48L55 47L54 47L54 46L55 46L55 45L54 45L54 44L56 44L56 42L57 42L57 41L56 41L56 42L55 42L55 39L57 39L57 37L53 37L53 38L51 38L51 39L49 39L49 38L50 38L50 36L51 36L51 37L52 37L52 36L55 36L55 34L57 34L57 32L55 32L55 29L54 29L54 28L55 28L55 27L56 27L56 28L57 28L57 27L56 27L56 26L57 26L57 25L56 25L56 24L57 24L57 23L56 23L56 22L57 22L57 19L56 19L56 21L53 21L53 22L55 22L55 23L54 23L54 24L53 24L53 23L52 23L52 22L50 22L50 19L51 19L51 18L52 18L52 20L55 20L55 19L54 19L54 18L55 18L55 17L54 17L54 16L55 16L55 15L56 15L56 16L57 16L57 15L56 15L56 14L57 14L57 13L56 13L56 12L57 12L57 11L54 11L54 10L52 10L52 8L51 8L51 10L49 10L49 9L50 9L50 8L49 8L49 9L48 9L48 8L45 8L45 6L46 6L46 7L47 7L47 5L48 5L48 0L46 0L46 1L45 1L45 0L41 0L41 1L40 1L40 0L39 0L39 1L36 1L36 0L35 0L35 1L34 1L34 0L32 0L32 1L34 1L34 2L31 2L31 4L30 4L30 3L29 3L29 1L31 1L31 0L27 0L27 2L24 2L24 1L26 1L26 0L24 0L24 1L23 1L23 0L21 0L21 2L22 2L22 3L21 3L21 4L22 4L22 5L24 5L24 4L25 4L25 6L24 6L24 7L23 7L23 6L22 6L22 7L23 7L23 9L21 9L21 10L20 10L20 9L19 9L19 6L20 6L20 7L21 7L21 6L20 6L20 5L19 5L19 6L18 6L18 7L17 7L17 4L20 4L20 3L19 3L19 2L20 2L20 0L17 0L17 1L16 1L16 2L14 2L14 1L15 1L15 0L14 0L14 1L13 1L13 0ZM22 1L22 2L23 2L23 3L22 3L22 4L24 4L24 2L23 2L23 1ZM35 1L35 3L34 3L34 4L33 4L33 3L32 3L32 4L31 4L31 7L32 7L32 6L33 6L33 8L31 8L31 9L32 9L32 10L33 10L33 9L34 9L34 10L35 10L35 11L34 11L34 12L35 12L35 11L36 11L36 12L37 12L37 11L38 11L38 10L39 10L39 9L41 9L41 10L40 10L40 12L38 12L38 14L37 14L37 13L33 13L33 12L32 12L32 11L31 11L31 10L30 10L30 12L31 12L31 14L30 14L30 13L29 13L29 12L28 12L28 13L26 13L26 14L24 14L24 13L25 13L25 12L27 12L27 11L26 11L26 10L27 10L27 9L26 9L26 6L25 6L25 7L24 7L24 8L25 8L25 12L24 12L24 10L22 10L22 11L20 11L20 10L18 10L18 11L17 11L17 9L15 9L15 8L16 8L16 6L15 6L15 5L16 5L16 4L17 4L17 2L16 2L16 4L15 4L15 5L14 5L14 6L13 6L13 7L14 7L14 6L15 6L15 8L13 8L13 11L10 11L10 9L9 9L9 10L8 10L8 9L6 9L6 10L8 10L8 11L5 11L5 12L4 12L4 13L5 13L5 15L4 15L4 16L3 16L3 17L4 17L4 19L3 19L3 20L2 20L2 22L3 22L3 20L4 20L4 19L5 19L5 22L4 22L4 23L5 23L5 24L8 24L8 23L6 23L6 22L8 22L8 21L6 21L6 20L8 20L8 19L9 19L9 18L8 18L8 19L5 19L5 17L6 17L6 18L7 18L7 17L8 17L8 16L7 16L7 15L8 15L8 11L9 11L9 12L10 12L10 13L11 13L11 15L10 15L10 14L9 14L9 16L10 16L10 24L11 24L11 26L10 26L10 25L6 25L6 26L9 26L9 27L11 27L11 26L12 26L12 25L14 25L14 24L15 24L15 23L16 23L16 25L15 25L15 27L12 27L12 28L13 28L13 29L11 29L11 28L9 28L9 31L8 31L8 32L7 32L7 31L6 31L6 32L7 32L7 33L5 33L5 31L3 31L3 32L4 32L4 33L3 33L3 34L5 34L5 35L6 35L6 36L7 36L7 37L6 37L6 38L7 38L7 39L5 39L5 40L4 40L4 41L3 41L3 42L2 42L2 46L1 46L1 47L2 47L2 46L3 46L3 47L5 47L5 46L8 46L8 47L9 47L9 46L8 46L8 45L11 45L11 47L12 47L12 46L14 46L14 47L13 47L13 48L14 48L14 49L15 49L15 50L19 50L19 49L20 49L20 50L21 50L21 52L20 52L20 51L18 51L18 52L19 52L19 53L18 53L18 54L19 54L19 55L20 55L20 54L19 54L19 53L23 53L23 54L24 54L24 53L23 53L23 52L24 52L24 51L25 51L25 53L26 53L26 48L25 48L25 50L24 50L24 51L23 51L23 49L24 49L24 48L22 48L22 46L23 46L23 47L26 47L26 46L27 46L27 45L28 45L28 47L27 47L27 48L30 48L30 47L29 47L29 45L32 45L32 46L31 46L31 47L33 47L33 48L31 48L31 49L32 49L32 50L31 50L31 52L32 52L32 51L33 51L33 50L37 50L37 49L34 49L34 48L37 48L37 47L33 47L33 46L35 46L35 43L36 43L36 44L39 44L39 45L41 45L41 46L42 46L42 47L41 47L41 48L42 48L42 47L43 47L43 46L42 46L42 45L43 45L43 44L44 44L44 47L45 47L45 48L43 48L43 49L46 49L46 50L47 50L47 51L48 51L48 48L49 48L49 47L53 47L53 48L54 48L54 47L53 47L53 46L54 46L54 45L51 45L51 44L52 44L52 43L51 43L51 42L53 42L53 43L54 43L54 41L51 41L51 40L52 40L52 39L51 39L51 40L46 40L46 39L48 39L48 38L49 38L49 37L48 37L48 36L49 36L49 35L48 35L48 36L46 36L46 34L47 34L47 33L48 33L48 34L49 34L49 32L50 32L50 35L51 35L51 36L52 36L52 34L55 34L55 32L54 32L54 31L51 31L51 32L50 32L50 31L48 31L48 30L47 30L47 29L48 29L48 27L46 27L46 28L47 28L47 29L46 29L46 30L42 30L42 29L43 29L43 28L44 28L44 29L45 29L45 26L48 26L48 25L49 25L49 24L48 24L48 23L50 23L50 24L52 24L52 26L53 26L53 27L55 27L55 26L54 26L54 25L55 25L55 24L56 24L56 23L55 23L55 24L54 24L54 25L53 25L53 24L52 24L52 23L50 23L50 22L48 22L48 21L49 21L49 20L48 20L48 21L45 21L45 20L40 20L40 19L39 19L39 20L37 20L37 19L36 19L36 18L42 18L42 19L45 19L45 18L47 18L47 17L49 17L49 18L48 18L48 19L49 19L49 18L51 18L51 17L53 17L53 18L54 18L54 17L53 17L53 16L54 16L54 15L55 15L55 14L54 14L54 13L55 13L55 12L54 12L54 11L53 11L53 12L52 12L52 11L50 11L50 12L49 12L49 11L48 11L48 9L45 9L45 8L44 8L44 6L45 6L45 5L47 5L47 3L46 3L46 4L45 4L45 3L42 3L42 4L41 4L41 3L40 3L40 6L39 6L39 2L38 2L38 3L37 3L37 2L36 2L36 1ZM41 1L41 2L45 2L45 1ZM46 1L46 2L47 2L47 1ZM25 3L25 4L26 4L26 3ZM27 3L27 4L29 4L29 3ZM36 3L36 5L34 5L34 7L35 7L35 6L36 6L36 7L37 7L37 6L36 6L36 5L38 5L38 4L37 4L37 3ZM42 4L42 5L41 5L41 6L40 6L40 7L39 7L39 6L38 6L38 8L41 8L41 6L42 6L42 8L43 8L43 9L42 9L42 10L41 10L41 11L42 11L42 14L41 14L41 15L40 15L40 16L39 16L39 17L40 17L40 16L45 16L45 15L49 15L49 16L50 16L50 17L51 17L51 16L52 16L52 15L51 15L51 14L52 14L52 13L51 13L51 14L50 14L50 13L47 13L47 14L46 14L46 12L45 12L45 14L44 14L44 12L43 12L43 11L42 11L42 10L43 10L43 9L44 9L44 11L45 11L45 9L44 9L44 8L43 8L43 6L42 6L42 5L43 5L43 4ZM44 4L44 5L45 5L45 4ZM27 5L27 8L30 8L30 5ZM28 6L28 7L29 7L29 6ZM48 6L48 7L49 7L49 6ZM10 7L10 8L11 8L11 7ZM35 8L35 10L36 10L36 9L37 9L37 10L38 10L38 9L37 9L37 8ZM53 8L53 9L54 9L54 8ZM55 8L55 10L57 10L57 9L56 9L56 8ZM4 9L4 10L5 10L5 9ZM11 9L11 10L12 10L12 9ZM14 9L14 10L15 10L15 9ZM28 9L28 10L29 10L29 9ZM46 10L46 11L47 11L47 10ZM13 11L13 12L11 12L11 13L12 13L12 14L14 14L14 15L13 15L13 16L12 16L12 19L14 19L14 20L13 20L13 21L15 21L15 22L16 22L16 21L15 21L15 20L16 20L16 19L15 19L15 17L13 17L13 16L16 16L16 17L17 17L17 16L16 16L16 15L18 15L18 17L19 17L19 18L17 18L17 19L19 19L19 20L18 20L18 21L17 21L17 26L18 26L18 27L17 27L17 28L15 28L15 29L14 29L14 30L13 30L13 31L11 31L11 32L10 32L10 31L9 31L9 32L10 32L10 34L9 34L9 33L7 33L7 34L6 34L6 35L7 35L7 34L9 34L9 35L8 35L8 36L9 36L9 37L10 37L10 38L12 38L12 40L11 40L11 39L10 39L10 40L8 40L8 39L9 39L9 38L8 38L8 37L7 37L7 38L8 38L8 39L7 39L7 40L6 40L6 41L7 41L7 42L6 42L6 43L7 43L7 42L8 42L8 43L9 43L9 42L10 42L10 43L11 43L11 44L14 44L14 46L15 46L15 47L14 47L14 48L15 48L15 49L17 49L17 48L15 48L15 47L16 47L16 46L15 46L15 45L18 45L18 46L17 46L17 47L18 47L18 49L19 49L19 47L20 47L20 46L19 46L19 45L22 45L22 44L20 44L20 41L22 41L22 42L21 42L21 43L22 43L22 42L23 42L23 43L24 43L24 44L25 44L25 45L23 45L23 46L25 46L25 45L26 45L26 44L25 44L25 43L24 43L24 42L26 42L26 43L27 43L27 42L28 42L28 45L29 45L29 44L30 44L30 43L31 43L31 44L34 44L34 42L33 42L33 41L32 41L32 40L33 40L33 39L34 39L34 40L35 40L35 42L36 42L36 43L38 43L38 40L37 40L37 39L39 39L39 38L40 38L40 36L41 36L41 37L42 37L42 38L41 38L41 39L40 39L40 40L39 40L39 42L40 42L40 43L39 43L39 44L40 44L40 43L41 43L41 44L43 44L43 43L45 43L45 47L48 47L48 46L50 46L50 45L48 45L48 46L46 46L46 45L47 45L47 44L51 44L51 43L50 43L50 42L51 42L51 41L49 41L49 43L46 43L46 42L43 42L43 41L44 41L44 39L43 39L43 40L41 40L41 39L42 39L42 38L43 38L43 37L44 37L44 38L45 38L45 39L46 39L46 38L45 38L45 37L44 37L44 34L46 34L46 33L47 33L47 32L48 32L48 31L47 31L47 30L46 30L46 31L47 31L47 32L45 32L45 31L44 31L44 32L43 32L43 31L42 31L42 30L41 30L41 29L39 29L39 28L38 28L38 27L40 27L40 24L43 24L43 25L41 25L41 26L42 26L42 28L43 28L43 27L44 27L44 26L45 26L45 25L46 25L46 24L47 24L47 25L48 25L48 24L47 24L47 23L46 23L46 22L45 22L45 21L44 21L44 23L42 23L42 22L43 22L43 21L40 21L40 20L39 20L39 22L38 22L38 21L37 21L37 20L36 20L36 21L37 21L37 22L36 22L36 23L37 23L37 24L35 24L35 23L34 23L34 22L33 22L33 21L32 21L32 20L33 20L33 19L35 19L35 18L36 18L36 17L37 17L37 16L36 16L36 15L37 15L37 14L36 14L36 15L35 15L35 14L33 14L33 15L32 15L32 14L31 14L31 15L30 15L30 16L33 16L33 17L34 17L34 16L33 16L33 15L35 15L35 16L36 16L36 17L35 17L35 18L33 18L33 19L32 19L32 18L31 18L31 17L29 17L29 18L31 18L31 19L29 19L29 20L30 20L30 22L29 22L29 21L27 21L27 23L28 23L28 24L27 24L27 25L26 25L26 24L25 24L25 23L26 23L26 22L25 22L25 20L26 20L26 19L25 19L25 18L26 18L26 17L28 17L28 16L25 16L25 15L24 15L24 14L23 14L23 15L24 15L24 16L23 16L23 18L22 18L22 17L21 17L21 19L19 19L19 18L20 18L20 17L19 17L19 15L20 15L20 16L22 16L22 14L21 14L21 15L20 15L20 14L19 14L19 13L22 13L22 12L20 12L20 11L19 11L19 13L18 13L18 12L16 12L16 11L15 11L15 12L16 12L16 13L15 13L15 14L14 14L14 13L13 13L13 12L14 12L14 11ZM5 12L5 13L7 13L7 12ZM23 12L23 13L24 13L24 12ZM16 13L16 14L15 14L15 15L16 15L16 14L18 14L18 13ZM28 13L28 14L26 14L26 15L29 15L29 13ZM39 13L39 14L40 14L40 13ZM6 14L6 15L5 15L5 16L6 16L6 17L7 17L7 16L6 16L6 15L7 15L7 14ZM42 14L42 15L44 15L44 14ZM42 17L42 18L45 18L45 17ZM56 17L56 18L57 18L57 17ZM27 18L27 20L28 20L28 18ZM21 19L21 20L19 20L19 21L18 21L18 22L19 22L19 23L18 23L18 24L19 24L19 25L18 25L18 26L19 26L19 28L21 28L21 29L19 29L19 31L18 31L18 30L17 30L17 29L18 29L18 28L17 28L17 29L15 29L15 30L14 30L14 35L13 35L13 34L12 34L12 37L13 37L13 38L16 38L16 37L18 37L18 38L20 38L20 39L19 39L19 40L21 40L21 37L24 37L24 38L22 38L22 41L23 41L23 42L24 42L24 41L25 41L25 39L26 39L26 38L28 38L28 37L29 37L29 34L31 34L31 35L30 35L30 38L31 38L31 39L29 39L29 40L31 40L31 39L33 39L33 38L35 38L35 39L36 39L36 38L37 38L37 37L36 37L36 36L40 36L40 35L41 35L41 36L42 36L42 37L43 37L43 36L42 36L42 35L43 35L43 34L42 34L42 31L41 31L41 30L39 30L39 29L38 29L38 28L37 28L37 27L38 27L38 26L39 26L39 25L38 25L38 24L37 24L37 25L38 25L38 26L35 26L35 25L34 25L34 24L33 24L33 23L31 23L31 22L30 22L30 23L31 23L31 24L30 24L30 25L31 25L31 24L32 24L32 26L31 26L31 27L32 27L32 26L35 26L35 27L36 27L36 28L37 28L37 29L33 29L33 28L34 28L34 27L33 27L33 28L31 28L31 31L32 31L32 30L35 30L35 31L34 31L34 32L31 32L31 33L30 33L30 32L29 32L29 31L28 31L28 32L29 32L29 33L27 33L27 31L25 31L25 32L26 32L26 33L25 33L25 34L24 34L24 36L23 36L23 35L21 35L21 33L22 33L22 34L23 34L23 33L24 33L24 31L23 31L23 29L25 29L25 30L26 30L26 27L25 27L25 26L26 26L26 25L25 25L25 24L24 24L24 23L22 23L22 21L23 21L23 22L24 22L24 21L23 21L23 19ZM46 19L46 20L47 20L47 19ZM11 20L11 21L12 21L12 20ZM21 20L21 21L19 21L19 22L20 22L20 23L19 23L19 24L20 24L20 25L19 25L19 26L20 26L20 27L21 27L21 28L22 28L22 29L21 29L21 31L22 31L22 32L23 32L23 31L22 31L22 29L23 29L23 27L24 27L24 28L25 28L25 27L24 27L24 26L25 26L25 25L24 25L24 24L23 24L23 25L22 25L22 27L21 27L21 26L20 26L20 25L21 25L21 24L22 24L22 23L21 23L21 21L22 21L22 20ZM34 20L34 21L35 21L35 20ZM12 22L12 23L11 23L11 24L13 24L13 22ZM28 22L28 23L29 23L29 22ZM37 22L37 23L38 23L38 22ZM40 22L40 23L39 23L39 24L40 24L40 23L41 23L41 22ZM28 24L28 25L29 25L29 24ZM44 24L44 25L43 25L43 26L44 26L44 25L45 25L45 24ZM23 25L23 26L24 26L24 25ZM50 25L50 26L51 26L51 25ZM0 26L0 28L1 28L1 26ZM5 27L5 30L8 30L8 27ZM27 27L27 30L30 30L30 27ZM49 27L49 30L52 30L52 27ZM6 28L6 29L7 29L7 28ZM28 28L28 29L29 29L29 28ZM50 28L50 29L51 29L51 28ZM3 29L3 30L4 30L4 29ZM37 29L37 30L38 30L38 29ZM56 29L56 30L57 30L57 29ZM15 30L15 31L17 31L17 30ZM35 31L35 32L34 32L34 33L33 33L33 34L32 34L32 35L31 35L31 38L32 38L32 35L33 35L33 34L34 34L34 35L35 35L35 34L36 34L36 35L37 35L37 34L38 34L38 35L40 35L40 34L41 34L41 35L42 35L42 34L41 34L41 33L40 33L40 32L41 32L41 31L40 31L40 32L38 32L38 33L37 33L37 32L36 32L36 31ZM15 32L15 33L17 33L17 32ZM18 32L18 33L19 33L19 34L17 34L17 35L16 35L16 34L15 34L15 36L14 36L14 37L16 37L16 36L18 36L18 37L20 37L20 33L19 33L19 32ZM35 32L35 33L34 33L34 34L35 34L35 33L36 33L36 34L37 34L37 33L36 33L36 32ZM44 32L44 33L45 33L45 32ZM51 32L51 33L54 33L54 32ZM38 33L38 34L40 34L40 33ZM10 34L10 35L11 35L11 34ZM25 34L25 35L26 35L26 36L24 36L24 37L26 37L26 36L27 36L27 37L28 37L28 36L27 36L27 35L26 35L26 34ZM56 35L56 36L57 36L57 35ZM33 36L33 37L34 37L34 36ZM38 37L38 38L39 38L39 37ZM13 39L13 40L14 40L14 39ZM15 39L15 40L16 40L16 41L13 41L13 42L15 42L15 43L17 43L17 44L18 44L18 45L19 45L19 42L18 42L18 41L17 41L17 40L18 40L18 39L17 39L17 40L16 40L16 39ZM23 39L23 41L24 41L24 39ZM27 39L27 41L26 41L26 42L27 42L27 41L28 41L28 42L29 42L29 43L30 43L30 42L29 42L29 41L28 41L28 39ZM7 40L7 41L8 41L8 42L9 42L9 41L8 41L8 40ZM40 40L40 42L41 42L41 43L43 43L43 42L41 42L41 40ZM45 40L45 41L46 41L46 40ZM4 41L4 43L5 43L5 41ZM10 41L10 42L12 42L12 41ZM31 41L31 42L32 42L32 43L33 43L33 42L32 42L32 41ZM36 41L36 42L37 42L37 41ZM17 42L17 43L18 43L18 42ZM3 44L3 45L4 45L4 46L5 46L5 45L8 45L8 44ZM36 45L36 46L37 46L37 45ZM56 45L56 46L57 46L57 45ZM18 46L18 47L19 47L19 46ZM56 47L56 48L57 48L57 47ZM6 48L6 49L7 49L7 48ZM9 48L9 49L11 49L11 50L12 50L12 48ZM21 49L21 50L22 50L22 49ZM27 49L27 52L30 52L30 49ZM49 49L49 52L52 52L52 49ZM56 49L56 50L57 50L57 49ZM9 50L9 51L10 51L10 50ZM28 50L28 51L29 51L29 50ZM50 50L50 51L51 51L51 50ZM35 52L35 53L36 53L36 52ZM56 52L56 53L57 53L57 52ZM15 53L15 54L16 54L16 53ZM30 53L30 54L31 54L31 53ZM48 53L48 54L49 54L49 55L50 55L50 56L51 56L51 55L50 55L50 54L51 54L51 53ZM37 54L37 55L36 55L36 56L37 56L37 55L38 55L38 54ZM11 55L11 56L12 56L12 55ZM25 55L25 56L26 56L26 55ZM45 55L45 56L46 56L46 57L47 57L47 55ZM13 56L13 57L14 57L14 56ZM41 56L41 57L44 57L44 56ZM0 0L0 7L7 7L7 0ZM1 1L1 6L6 6L6 1ZM2 2L2 5L5 5L5 2ZM50 0L50 7L57 7L57 0ZM51 1L51 6L56 6L56 1ZM52 2L52 5L55 5L55 2ZM0 50L0 57L7 57L7 50ZM1 51L1 56L6 56L6 51ZM2 52L2 55L5 55L5 52Z" fill="#000000"/></g></g></svg>
