<?xml version="1.0" encoding="UTF-8"?>
<svg xmlns="http://www.w3.org/2000/svg" version="1.1" width="300" height="300" viewBox="0 0 300 300"><rect x="0" y="0" width="300" height="300" fill="#ffffff"/><g transform="scale(4.918)"><g transform="translate(2,2)"><path fill-rule="evenodd" d="M10 0L10 4L9 4L9 3L8 3L8 4L9 4L9 5L8 5L8 7L9 7L9 8L6 8L6 9L5 9L5 8L0 8L0 11L2 11L2 12L0 12L0 13L1 13L1 14L2 14L2 15L3 15L3 16L2 16L2 18L1 18L1 15L0 15L0 20L2 20L2 18L3 18L3 19L4 19L4 18L5 18L5 20L3 20L3 22L2 22L2 21L1 21L1 22L2 22L2 23L0 23L0 26L1 26L1 25L2 25L2 24L4 24L4 23L3 23L3 22L5 22L5 21L8 21L8 20L9 20L9 16L10 16L10 14L9 14L9 15L8 15L8 16L5 16L5 15L7 15L7 14L8 14L8 10L6 10L6 9L9 9L9 11L10 11L10 9L9 9L9 8L14 8L14 7L15 7L15 6L16 6L16 8L17 8L17 9L18 9L18 10L17 10L17 11L16 11L16 10L15 10L15 9L11 9L11 11L12 11L12 10L15 10L15 13L18 13L18 14L17 14L17 15L18 15L18 16L17 16L17 17L19 17L19 18L17 18L17 19L18 19L18 20L17 20L17 21L19 21L19 22L20 22L20 23L18 23L18 22L17 22L17 23L18 23L18 25L17 25L17 24L16 24L16 23L15 23L15 22L16 22L16 21L15 21L15 20L16 20L16 18L15 18L15 17L16 17L16 15L15 15L15 14L14 14L14 13L11 13L11 12L10 12L10 13L11 13L11 17L10 17L10 20L11 20L11 21L10 21L10 22L9 22L9 23L10 23L10 22L11 22L11 23L12 23L12 22L13 22L13 24L10 24L10 25L9 25L9 26L8 26L8 24L5 24L5 25L7 25L7 26L4 26L4 25L3 25L3 26L2 26L2 27L0 27L0 29L2 29L2 30L1 30L1 32L0 32L0 33L1 33L1 34L3 34L3 36L2 36L2 38L3 38L3 39L1 39L1 38L0 38L0 40L1 40L1 41L0 41L0 43L3 43L3 46L2 46L2 44L1 44L1 45L0 45L0 48L5 48L5 47L17 47L17 48L15 48L15 49L14 49L14 48L12 48L12 49L14 49L14 50L15 50L15 51L14 51L14 52L15 52L15 51L16 51L16 52L17 52L17 51L18 51L18 53L17 53L17 55L18 55L18 56L16 56L16 55L15 55L15 54L16 54L16 53L13 53L13 52L11 52L11 51L12 51L12 50L11 50L11 51L10 51L10 50L9 50L9 49L10 49L10 48L8 48L8 51L10 51L10 54L9 54L9 52L8 52L8 57L9 57L9 56L10 56L10 57L12 57L12 56L13 56L13 57L15 57L15 56L16 56L16 57L19 57L19 54L20 54L20 55L21 55L21 54L20 54L20 53L22 53L22 56L23 56L23 57L26 57L26 56L28 56L28 55L26 55L26 54L27 54L27 53L28 53L28 54L30 54L30 55L29 55L29 57L30 57L30 56L31 56L31 57L32 57L32 56L31 56L31 55L33 55L33 56L34 56L34 57L38 57L38 56L40 56L40 52L41 52L41 51L40 51L40 52L39 52L39 50L38 50L38 49L37 49L37 48L38 48L38 47L40 47L40 48L39 48L39 49L40 49L40 48L41 48L41 50L44 50L44 51L42 51L42 52L43 52L43 53L42 53L42 54L41 54L41 56L42 56L42 57L44 57L44 56L43 56L43 55L42 55L42 54L43 54L43 53L44 53L44 54L45 54L45 55L47 55L47 54L45 54L45 53L44 53L44 51L45 51L45 50L46 50L46 51L47 51L47 52L46 52L46 53L47 53L47 52L48 52L48 53L51 53L51 54L54 54L54 55L51 55L51 56L50 56L50 57L52 57L52 56L54 56L54 57L56 57L56 56L55 56L55 54L54 54L54 52L55 52L55 51L56 51L56 52L57 52L57 51L56 51L56 50L57 50L57 48L56 48L56 47L54 47L54 48L56 48L56 50L54 50L54 52L53 52L53 47L52 47L52 45L54 45L54 46L57 46L57 45L54 45L54 44L55 44L55 43L56 43L56 42L57 42L57 41L55 41L55 40L56 40L56 39L55 39L55 37L54 37L54 36L56 36L56 37L57 37L57 36L56 36L56 34L57 34L57 33L56 33L56 32L57 32L57 31L55 31L55 30L57 30L57 29L56 29L56 28L55 28L55 27L56 27L56 24L55 24L55 23L56 23L56 22L57 22L57 21L55 21L55 23L54 23L54 24L53 24L53 23L51 23L51 22L52 22L52 21L51 21L51 22L50 22L50 19L51 19L51 20L57 20L57 19L56 19L56 18L57 18L57 17L54 17L54 16L57 16L57 15L55 15L55 14L57 14L57 13L56 13L56 12L57 12L57 11L56 11L56 10L57 10L57 9L56 9L56 8L55 8L55 9L56 9L56 10L55 10L55 11L54 11L54 10L52 10L52 8L51 8L51 10L50 10L50 8L49 8L49 6L48 6L48 8L49 8L49 9L48 9L48 10L50 10L50 11L52 11L52 12L53 12L53 11L54 11L54 12L55 12L55 13L54 13L54 15L53 15L53 17L54 17L54 18L50 18L50 16L49 16L49 17L47 17L47 16L46 16L46 15L51 15L51 16L52 16L52 15L51 15L51 14L52 14L52 13L51 13L51 12L49 12L49 13L47 13L47 14L46 14L46 12L45 12L45 11L43 11L43 9L41 9L41 11L42 11L42 14L40 14L40 16L36 16L36 13L38 13L38 12L40 12L40 11L39 11L39 10L40 10L40 9L39 9L39 8L40 8L40 7L41 7L41 6L42 6L42 8L45 8L45 9L44 9L44 10L45 10L45 9L46 9L46 8L47 8L47 5L48 5L48 0L46 0L46 1L45 1L45 0L44 0L44 1L43 1L43 0L41 0L41 1L43 1L43 2L40 2L40 0L39 0L39 1L38 1L38 0L37 0L37 1L33 1L33 2L32 2L32 0L30 0L30 1L29 1L29 2L28 2L28 3L27 3L27 4L26 4L26 2L24 2L24 1L26 1L26 0L21 0L21 1L23 1L23 2L24 2L24 4L22 4L22 3L21 3L21 4L22 4L22 5L23 5L23 6L22 6L22 7L21 7L21 6L20 6L20 5L17 5L17 4L20 4L20 3L19 3L19 2L20 2L20 0L19 0L19 2L18 2L18 3L17 3L17 4L16 4L16 2L17 2L17 1L16 1L16 2L15 2L15 4L12 4L12 3L11 3L11 0ZM12 0L12 2L14 2L14 1L15 1L15 0ZM8 1L8 2L9 2L9 1ZM30 1L30 2L29 2L29 3L28 3L28 4L31 4L31 8L32 8L32 9L31 9L31 12L30 12L30 13L31 13L31 12L32 12L32 13L33 13L33 14L35 14L35 13L33 13L33 12L32 12L32 11L33 11L33 7L34 7L34 6L35 6L35 7L36 7L36 8L34 8L34 10L35 10L35 11L34 11L34 12L37 12L37 11L38 11L38 10L39 10L39 9L38 9L38 10L37 10L37 9L36 9L36 8L37 8L37 7L38 7L38 8L39 8L39 7L40 7L40 6L41 6L41 3L40 3L40 5L39 5L39 2L38 2L38 1L37 1L37 2L33 2L33 3L32 3L32 4L31 4L31 1ZM44 1L44 2L45 2L45 1ZM46 1L46 2L47 2L47 1ZM37 2L37 3L36 3L36 5L35 5L35 6L36 6L36 7L37 7L37 6L38 6L38 7L39 7L39 6L38 6L38 2ZM34 3L34 4L35 4L35 3ZM43 3L43 5L42 5L42 6L43 6L43 7L44 7L44 6L45 6L45 7L46 7L46 5L47 5L47 3ZM10 4L10 5L9 5L9 7L10 7L10 6L11 6L11 7L12 7L12 4ZM15 4L15 5L13 5L13 7L14 7L14 6L15 6L15 5L16 5L16 4ZM25 4L25 7L26 7L26 4ZM44 4L44 5L45 5L45 4ZM27 5L27 8L30 8L30 5ZM36 5L36 6L37 6L37 5ZM17 6L17 7L18 7L18 6ZM19 6L19 8L21 8L21 9L19 9L19 10L18 10L18 11L17 11L17 12L18 12L18 13L19 13L19 14L18 14L18 15L19 15L19 17L20 17L20 18L19 18L19 21L21 21L21 25L20 25L20 28L19 28L19 29L20 29L20 30L18 30L18 31L19 31L19 33L16 33L16 35L12 35L12 36L13 36L13 37L11 37L11 38L10 38L10 37L8 37L8 36L9 36L9 35L8 35L8 34L10 34L10 33L11 33L11 29L14 29L14 30L13 30L13 31L15 31L15 32L17 32L17 29L18 29L18 28L17 28L17 27L18 27L18 26L19 26L19 25L18 25L18 26L17 26L17 25L16 25L16 24L15 24L15 23L14 23L14 24L15 24L15 25L13 25L13 27L12 27L12 28L11 28L11 26L12 26L12 25L11 25L11 26L10 26L10 29L9 29L9 30L10 30L10 33L9 33L9 31L8 31L8 32L7 32L7 31L6 31L6 32L7 32L7 33L4 33L4 32L5 32L5 31L3 31L3 30L2 30L2 32L1 32L1 33L2 33L2 32L3 32L3 33L4 33L4 34L7 34L7 35L4 35L4 36L3 36L3 37L4 37L4 39L3 39L3 40L2 40L2 42L4 42L4 41L5 41L5 42L7 42L7 41L5 41L5 39L6 39L6 40L8 40L8 38L10 38L10 40L9 40L9 43L4 43L4 45L5 45L5 46L3 46L3 47L5 47L5 46L12 46L12 45L11 45L11 42L10 42L10 41L11 41L11 38L12 38L12 42L13 42L13 43L14 43L14 44L15 44L15 45L14 45L14 46L15 46L15 45L16 45L16 46L18 46L18 48L19 48L19 49L15 49L15 50L19 50L19 51L20 51L20 52L22 52L22 53L23 53L23 52L24 52L24 53L26 53L26 49L25 49L25 48L29 48L29 46L31 46L31 47L30 47L30 48L31 48L31 49L32 49L32 50L31 50L31 52L32 52L32 54L34 54L34 55L36 55L36 56L37 56L37 55L39 55L39 52L38 52L38 50L37 50L37 49L36 49L36 48L37 48L37 47L36 47L36 48L35 48L35 47L34 47L34 48L31 48L31 47L33 47L33 46L36 46L36 45L35 45L35 43L38 43L38 44L39 44L39 41L38 41L38 42L36 42L36 41L34 41L34 40L37 40L37 39L38 39L38 40L40 40L40 42L41 42L41 40L40 40L40 39L42 39L42 41L43 41L43 40L44 40L44 42L42 42L42 43L43 43L43 44L40 44L40 45L41 45L41 46L42 46L42 47L43 47L43 46L44 46L44 45L45 45L45 44L44 44L44 43L46 43L46 42L47 42L47 43L48 43L48 42L47 42L47 41L48 41L48 40L47 40L47 41L45 41L45 40L46 40L46 39L45 39L45 38L47 38L47 37L48 37L48 38L50 38L50 40L49 40L49 41L52 41L52 42L50 42L50 43L52 43L52 44L53 44L53 43L54 43L54 40L53 40L53 39L54 39L54 37L51 37L51 36L52 36L52 34L53 34L53 36L54 36L54 34L53 34L53 33L55 33L55 32L54 32L54 31L52 31L52 32L53 32L53 33L51 33L51 32L49 32L49 31L48 31L48 28L47 28L47 27L48 27L48 25L49 25L49 24L50 24L50 26L51 26L51 25L53 25L53 27L55 27L55 26L54 26L54 25L55 25L55 24L54 24L54 25L53 25L53 24L51 24L51 23L50 23L50 22L49 22L49 23L48 23L48 21L49 21L49 20L47 20L47 19L48 19L48 18L47 18L47 17L46 17L46 18L44 18L44 17L45 17L45 16L44 16L44 15L45 15L45 12L44 12L44 13L43 13L43 14L42 14L42 15L41 15L41 16L40 16L40 17L37 17L37 18L40 18L40 19L36 19L36 18L35 18L35 17L36 17L36 16L35 16L35 15L34 15L34 16L32 16L32 15L31 15L31 14L29 14L29 16L27 16L27 14L28 14L28 13L29 13L29 12L28 12L28 13L25 13L25 12L27 12L27 11L30 11L30 10L27 10L27 9L25 9L25 8L24 8L24 6L23 6L23 8L21 8L21 7L20 7L20 6ZM28 6L28 7L29 7L29 6ZM32 6L32 7L33 7L33 6ZM23 8L23 10L25 10L25 9L24 9L24 8ZM53 8L53 9L54 9L54 8ZM1 9L1 10L3 10L3 12L4 12L4 13L2 13L2 14L3 14L3 15L4 15L4 13L6 13L6 14L7 14L7 13L6 13L6 12L7 12L7 11L6 11L6 10L3 10L3 9ZM19 10L19 13L22 13L22 16L26 16L26 17L27 17L27 18L26 18L26 19L25 19L25 21L22 21L22 20L21 20L21 21L22 21L22 22L23 22L23 23L22 23L22 24L24 24L24 22L25 22L25 21L26 21L26 22L27 22L27 20L26 20L26 19L28 19L28 18L34 18L34 19L35 19L35 18L34 18L34 17L32 17L32 16L31 16L31 15L30 15L30 16L31 16L31 17L27 17L27 16L26 16L26 14L25 14L25 13L24 13L24 11L23 11L23 13L22 13L22 12L20 12L20 10ZM21 10L21 11L22 11L22 10ZM26 10L26 11L27 11L27 10ZM46 10L46 11L47 11L47 10ZM5 11L5 12L6 12L6 11ZM13 11L13 12L14 12L14 11ZM23 13L23 14L24 14L24 15L25 15L25 14L24 14L24 13ZM49 13L49 14L51 14L51 13ZM12 14L12 16L13 16L13 17L15 17L15 15L14 15L14 14ZM20 14L20 15L21 15L21 14ZM37 14L37 15L39 15L39 14ZM43 14L43 15L42 15L42 16L41 16L41 17L42 17L42 18L41 18L41 19L40 19L40 20L39 20L39 21L40 21L40 20L41 20L41 19L42 19L42 20L46 20L46 21L47 21L47 20L46 20L46 19L47 19L47 18L46 18L46 19L44 19L44 18L43 18L43 17L44 17L44 16L43 16L43 15L44 15L44 14ZM13 15L13 16L14 16L14 15ZM3 16L3 18L4 18L4 17L5 17L5 18L7 18L7 17L5 17L5 16ZM42 16L42 17L43 17L43 16ZM11 17L11 18L12 18L12 17ZM21 17L21 19L22 19L22 18L23 18L23 20L24 20L24 18L25 18L25 17ZM42 18L42 19L43 19L43 18ZM49 18L49 19L50 19L50 18ZM54 18L54 19L55 19L55 18ZM6 19L6 20L7 20L7 19ZM13 19L13 20L14 20L14 19ZM29 19L29 20L31 20L31 21L29 21L29 22L28 22L28 24L26 24L26 23L25 23L25 24L26 24L26 26L25 26L25 25L23 25L23 26L22 26L22 27L23 27L23 29L22 29L22 28L20 28L20 29L22 29L22 31L20 31L20 33L21 33L21 35L22 35L22 34L24 34L24 35L26 35L26 36L27 36L27 35L26 35L26 34L25 34L25 33L31 33L31 32L33 32L33 33L32 33L32 34L33 34L33 36L35 36L35 34L36 34L36 35L40 35L40 36L36 36L36 37L37 37L37 38L35 38L35 39L37 39L37 38L38 38L38 37L39 37L39 38L40 38L40 36L41 36L41 37L42 37L42 38L43 38L43 37L44 37L44 38L45 38L45 37L44 37L44 34L43 34L43 33L42 33L42 32L45 32L45 34L46 34L46 35L45 35L45 36L48 36L48 35L49 35L49 37L50 37L50 36L51 36L51 35L49 35L49 34L48 34L48 33L47 33L47 32L48 32L48 31L47 31L47 30L46 30L46 29L47 29L47 28L46 28L46 26L45 26L45 25L46 25L46 24L45 24L45 23L47 23L47 25L48 25L48 23L47 23L47 22L45 22L45 21L44 21L44 24L42 24L42 23L40 23L40 22L39 22L39 23L40 23L40 24L39 24L39 25L40 25L40 24L42 24L42 26L45 26L45 27L42 27L42 28L43 28L43 29L42 29L42 30L41 30L41 29L39 29L39 28L40 28L40 27L39 27L39 26L37 26L37 25L38 25L38 23L37 23L37 22L38 22L38 20L36 20L36 21L37 21L37 22L36 22L36 24L35 24L35 23L34 23L34 22L33 22L33 21L35 21L35 20L33 20L33 19ZM32 20L32 21L33 21L33 20ZM11 21L11 22L12 22L12 21ZM13 21L13 22L15 22L15 21ZM41 21L41 22L43 22L43 21ZM53 21L53 22L54 22L54 21ZM6 22L6 23L7 23L7 22ZM29 22L29 23L31 23L31 22ZM28 24L28 25L27 25L27 26L29 26L29 25L30 25L30 24ZM32 24L32 26L33 26L33 28L32 28L32 27L31 27L31 28L32 28L32 30L31 30L31 31L30 31L30 32L31 32L31 31L33 31L33 32L38 32L38 33L36 33L36 34L40 34L40 35L41 35L41 34L42 34L42 35L43 35L43 34L42 34L42 33L41 33L41 32L42 32L42 31L45 31L45 32L47 32L47 31L46 31L46 30L45 30L45 28L44 28L44 30L42 30L42 31L41 31L41 30L40 30L40 31L41 31L41 32L38 32L38 31L36 31L36 30L35 30L35 29L33 29L33 28L34 28L34 26L35 26L35 28L36 28L36 27L37 27L37 30L39 30L39 29L38 29L38 28L39 28L39 27L37 27L37 26L35 26L35 25L34 25L34 24ZM44 24L44 25L45 25L45 24ZM15 25L15 26L14 26L14 29L17 29L17 28L16 28L16 27L17 27L17 26L16 26L16 25ZM15 26L15 27L16 27L16 26ZM23 26L23 27L25 27L25 28L24 28L24 29L23 29L23 31L22 31L22 32L21 32L21 33L25 33L25 32L27 32L27 31L25 31L25 32L23 32L23 31L24 31L24 29L25 29L25 30L26 30L26 27L25 27L25 26ZM2 27L2 28L3 28L3 29L4 29L4 27ZM5 27L5 30L8 30L8 27ZM27 27L27 30L30 30L30 27ZM49 27L49 30L52 30L52 27ZM6 28L6 29L7 29L7 28ZM28 28L28 29L29 29L29 28ZM50 28L50 29L51 29L51 28ZM54 28L54 29L53 29L53 30L55 30L55 28ZM33 30L33 31L35 31L35 30ZM28 31L28 32L29 32L29 31ZM13 32L13 34L15 34L15 33L14 33L14 32ZM7 33L7 34L8 34L8 33ZM33 33L33 34L35 34L35 33ZM40 33L40 34L41 34L41 33ZM46 33L46 34L47 34L47 33ZM17 34L17 35L18 35L18 36L17 36L17 37L16 37L16 36L14 36L14 37L13 37L13 40L14 40L14 41L13 41L13 42L15 42L15 44L16 44L16 45L18 45L18 46L19 46L19 47L22 47L22 46L24 46L24 47L23 47L23 48L25 48L25 45L26 45L26 44L25 44L25 43L28 43L28 42L25 42L25 41L26 41L26 39L27 39L27 41L28 41L28 40L29 40L29 39L31 39L31 38L32 38L32 35L31 35L31 34L29 34L29 36L28 36L28 37L29 37L29 38L25 38L25 37L22 37L22 36L21 36L21 37L22 37L22 39L20 39L20 38L18 38L18 39L17 39L17 37L19 37L19 36L20 36L20 34ZM0 35L0 37L1 37L1 35ZM7 35L7 36L4 36L4 37L7 37L7 36L8 36L8 35ZM30 35L30 38L31 38L31 35ZM15 37L15 38L16 38L16 37ZM6 38L6 39L7 39L7 38ZM33 38L33 39L34 39L34 38ZM15 39L15 40L16 40L16 39ZM22 39L22 41L23 41L23 39ZM51 39L51 40L52 40L52 41L53 41L53 40L52 40L52 39ZM17 40L17 41L15 41L15 42L17 42L17 41L18 41L18 43L16 43L16 44L18 44L18 45L19 45L19 46L21 46L21 45L19 45L19 41L18 41L18 40ZM24 40L24 41L25 41L25 40ZM30 40L30 41L29 41L29 43L32 43L32 44L31 44L31 46L33 46L33 45L32 45L32 44L34 44L34 43L35 43L35 42L34 42L34 41L32 41L32 40ZM20 41L20 44L22 44L22 45L25 45L25 44L24 44L24 43L25 43L25 42L24 42L24 43L22 43L22 42L21 42L21 41ZM30 41L30 42L32 42L32 43L33 43L33 42L32 42L32 41ZM52 42L52 43L53 43L53 42ZM9 43L9 45L10 45L10 43ZM6 44L6 45L8 45L8 44ZM27 44L27 45L29 45L29 44ZM43 44L43 45L42 45L42 46L43 46L43 45L44 45L44 44ZM47 44L47 45L46 45L46 46L48 46L48 47L45 47L45 48L42 48L42 49L44 49L44 50L45 50L45 48L46 48L46 50L47 50L47 51L48 51L48 48L50 48L50 47L51 47L51 48L52 48L52 47L51 47L51 46L50 46L50 47L49 47L49 46L48 46L48 44ZM49 44L49 45L51 45L51 44ZM37 45L37 46L39 46L39 45ZM1 46L1 47L2 47L2 46ZM26 46L26 47L28 47L28 46ZM6 48L6 49L7 49L7 48ZM20 48L20 49L19 49L19 50L20 50L20 49L21 49L21 48ZM34 48L34 49L33 49L33 50L32 50L32 52L33 52L33 50L34 50L34 52L35 52L35 54L36 54L36 55L37 55L37 54L38 54L38 52L37 52L37 50L34 50L34 49L35 49L35 48ZM22 49L22 50L23 50L23 51L24 51L24 52L25 52L25 51L24 51L24 50L25 50L25 49ZM27 49L27 52L30 52L30 49ZM49 49L49 52L52 52L52 49ZM28 50L28 51L29 51L29 50ZM50 50L50 51L51 51L51 50ZM35 51L35 52L36 52L36 51ZM18 53L18 54L19 54L19 53ZM11 54L11 55L12 55L12 54ZM23 54L23 55L24 55L24 56L25 56L25 55L24 55L24 54ZM48 54L48 56L45 56L45 57L48 57L48 56L49 56L49 54ZM13 55L13 56L14 56L14 55ZM20 56L20 57L21 57L21 56ZM0 0L0 7L7 7L7 0ZM1 1L1 6L6 6L6 1ZM2 2L2 5L5 5L5 2ZM50 0L50 7L57 7L57 0ZM51 1L51 6L56 6L56 1ZM52 2L52 5L55 5L55 2ZM0 50L0 57L7 57L7 50ZM1 51L1 56L6 56L6 51ZM2 52L2 55L5 55L5 52Z" fill="#000000"/></g></g></svg>
