<?xml version="1.0" encoding="UTF-8"?>
<svg xmlns="http://www.w3.org/2000/svg" version="1.1" width="300" height="300" viewBox="0 0 300 300"><rect x="0" y="0" width="300" height="300" fill="#ffffff"/><g transform="scale(4.918)"><g transform="translate(2,2)"><path fill-rule="evenodd" d="M9 0L9 1L8 1L8 2L9 2L9 1L11 1L11 0ZM12 0L12 1L13 1L13 0ZM14 0L14 1L15 1L15 2L14 2L14 3L15 3L15 4L14 4L14 7L13 7L13 6L12 6L12 4L11 4L11 3L13 3L13 2L11 2L11 3L8 3L8 4L11 4L11 6L10 6L10 5L8 5L8 7L9 7L9 8L6 8L6 9L5 9L5 8L0 8L0 10L2 10L2 11L0 11L0 13L2 13L2 15L4 15L4 14L5 14L5 13L7 13L7 14L6 14L6 15L5 15L5 16L4 16L4 17L3 17L3 16L2 16L2 17L3 17L3 18L4 18L4 17L5 17L5 16L6 16L6 17L7 17L7 18L6 18L6 19L7 19L7 20L5 20L5 19L3 19L3 21L2 21L2 22L1 22L1 23L0 23L0 25L1 25L1 26L0 26L0 29L4 29L4 30L2 30L2 31L0 31L0 33L3 33L3 35L5 35L5 36L3 36L3 37L5 37L5 38L3 38L3 39L2 39L2 38L0 38L0 41L1 41L1 40L3 40L3 39L5 39L5 40L4 40L4 41L2 41L2 43L3 43L3 42L4 42L4 43L5 43L5 44L3 44L3 45L1 45L1 46L0 46L0 48L5 48L5 47L7 47L7 48L6 48L6 49L7 49L7 48L8 48L8 51L9 51L9 49L13 49L13 50L12 50L12 51L11 51L11 50L10 50L10 51L11 51L11 52L12 52L12 53L10 53L10 52L8 52L8 57L9 57L9 54L10 54L10 55L11 55L11 56L10 56L10 57L12 57L12 56L13 56L13 57L14 57L14 56L15 56L15 57L16 57L16 55L14 55L14 54L13 54L13 52L17 52L17 51L18 51L18 53L17 53L17 54L18 54L18 53L19 53L19 54L20 54L20 55L17 55L17 57L19 57L19 56L20 56L20 57L21 57L21 53L22 53L22 55L24 55L24 56L23 56L23 57L24 57L24 56L25 56L25 55L26 55L26 54L27 54L27 53L28 53L28 54L29 54L29 55L30 55L30 57L32 57L32 56L33 56L33 54L32 54L32 52L33 52L33 53L35 53L35 54L38 54L38 53L37 53L37 52L36 52L36 51L37 51L37 50L38 50L38 52L39 52L39 55L40 55L40 56L41 56L41 55L40 55L40 52L42 52L42 51L40 51L40 50L43 50L43 49L40 49L40 48L41 48L41 47L42 47L42 48L45 48L45 47L47 47L47 46L48 46L48 45L49 45L49 47L50 47L50 48L48 48L48 51L47 51L47 50L46 50L46 49L45 49L45 50L46 50L46 51L47 51L47 52L48 52L48 53L49 53L49 54L47 54L47 55L50 55L50 53L51 53L51 54L53 54L53 55L51 55L51 56L50 56L50 57L52 57L52 56L54 56L54 57L56 57L56 56L55 56L55 55L54 55L54 54L55 54L55 53L54 53L54 54L53 54L53 52L55 52L55 51L53 51L53 50L54 50L54 48L55 48L55 50L57 50L57 48L55 48L55 47L54 47L54 46L55 46L55 45L54 45L54 44L56 44L56 46L57 46L57 43L56 43L56 42L57 42L57 41L55 41L55 39L57 39L57 35L56 35L56 37L53 37L53 36L55 36L55 35L54 35L54 34L55 34L55 33L54 33L54 32L55 32L55 31L56 31L56 32L57 32L57 31L56 31L56 30L57 30L57 29L56 29L56 28L57 28L57 27L56 27L56 24L57 24L57 23L56 23L56 22L57 22L57 21L53 21L53 22L55 22L55 23L52 23L52 24L51 24L51 25L52 25L52 24L53 24L53 25L54 25L54 26L55 26L55 27L53 27L53 26L49 26L49 25L47 25L47 26L48 26L48 27L47 27L47 28L46 28L46 26L44 26L44 23L45 23L45 24L47 24L47 23L46 23L46 22L45 22L45 21L44 21L44 23L43 23L43 24L42 24L42 22L43 22L43 20L45 20L45 19L40 19L40 18L43 18L43 16L45 16L45 18L46 18L46 20L49 20L49 21L48 21L48 22L50 22L50 23L49 23L49 24L50 24L50 23L51 23L51 22L52 22L52 21L51 21L51 22L50 22L50 19L52 19L52 20L55 20L55 18L57 18L57 17L55 17L55 18L50 18L50 17L51 17L51 16L50 16L50 15L51 15L51 14L52 14L52 13L51 13L51 14L50 14L50 11L51 11L51 10L53 10L53 11L52 11L52 12L53 12L53 11L54 11L54 12L55 12L55 13L54 13L54 14L55 14L55 15L53 15L53 16L57 16L57 15L56 15L56 14L57 14L57 13L56 13L56 12L55 12L55 11L56 11L56 10L55 10L55 11L54 11L54 10L53 10L53 9L54 9L54 8L53 8L53 9L52 9L52 8L51 8L51 10L50 10L50 8L49 8L49 6L48 6L48 8L47 8L47 5L48 5L48 0L46 0L46 1L44 1L44 2L42 2L42 1L43 1L43 0L42 0L42 1L41 1L41 2L40 2L40 1L34 1L34 0L33 0L33 1L34 1L34 2L32 2L32 0L28 0L28 1L26 1L26 0L24 0L24 1L23 1L23 0L21 0L21 1L18 1L18 4L16 4L16 3L17 3L17 2L16 2L16 0ZM22 1L22 2L20 2L20 4L18 4L18 5L17 5L17 7L18 7L18 8L19 8L19 9L18 9L18 11L17 11L17 8L16 8L16 6L15 6L15 7L14 7L14 9L13 9L13 10L12 10L12 11L11 11L11 8L12 8L12 6L11 6L11 8L9 8L9 9L6 9L6 10L5 10L5 11L4 11L4 9L2 9L2 10L3 10L3 11L4 11L4 12L7 12L7 13L8 13L8 12L10 12L10 15L11 15L11 17L12 17L12 18L11 18L11 23L12 23L12 22L13 22L13 24L12 24L12 25L14 25L14 28L13 28L13 30L12 30L12 27L13 27L13 26L9 26L9 30L10 30L10 29L11 29L11 30L12 30L12 32L13 32L13 33L12 33L12 34L11 34L11 32L10 32L10 31L8 31L8 32L7 32L7 31L3 31L3 32L4 32L4 33L5 33L5 35L6 35L6 36L7 36L7 35L6 35L6 34L7 34L7 33L8 33L8 35L10 35L10 34L11 34L11 36L10 36L10 37L9 37L9 38L8 38L8 37L6 37L6 38L5 38L5 39L6 39L6 40L7 40L7 41L5 41L5 42L12 42L12 41L13 41L13 43L12 43L12 44L13 44L13 45L16 45L16 47L15 47L15 46L12 46L12 45L10 45L10 44L9 44L9 43L6 43L6 44L8 44L8 47L9 47L9 48L10 48L10 47L9 47L9 45L10 45L10 46L12 46L12 47L11 47L11 48L13 48L13 49L14 49L14 50L13 50L13 51L15 51L15 50L16 50L16 51L17 51L17 50L19 50L19 49L20 49L20 50L21 50L21 49L22 49L22 50L23 50L23 51L19 51L19 53L21 53L21 52L22 52L22 53L23 53L23 54L24 54L24 53L23 53L23 52L24 52L24 51L25 51L25 53L26 53L26 46L29 46L29 47L27 47L27 48L29 48L29 47L30 47L30 48L31 48L31 50L32 50L32 51L31 51L31 52L32 52L32 51L34 51L34 52L35 52L35 53L36 53L36 52L35 52L35 51L34 51L34 50L36 50L36 48L38 48L38 50L40 50L40 49L39 49L39 48L40 48L40 47L41 47L41 46L42 46L42 47L45 47L45 46L42 46L42 45L43 45L43 44L44 44L44 45L45 45L45 43L46 43L46 42L47 42L47 43L49 43L49 42L47 42L47 41L48 41L48 40L47 40L47 37L49 37L49 36L50 36L50 35L51 35L51 37L50 37L50 38L48 38L48 39L51 39L51 40L49 40L49 41L51 41L51 42L50 42L50 43L52 43L52 44L53 44L53 43L54 43L54 40L53 40L53 39L55 39L55 38L53 38L53 37L52 37L52 34L53 34L53 33L51 33L51 32L49 32L49 31L48 31L48 28L47 28L47 29L46 29L46 30L45 30L45 27L44 27L44 26L42 26L42 24L41 24L41 21L42 21L42 20L40 20L40 19L39 19L39 20L38 20L38 19L36 19L36 18L40 18L40 17L42 17L42 16L43 16L43 14L42 14L42 11L40 11L40 10L39 10L39 9L41 9L41 8L44 8L44 9L45 9L45 8L46 8L46 10L43 10L43 12L44 12L44 13L45 13L45 12L46 12L46 14L47 14L47 13L49 13L49 12L48 12L48 11L50 11L50 10L48 10L48 9L49 9L49 8L48 8L48 9L47 9L47 8L46 8L46 6L45 6L45 5L44 5L44 4L46 4L46 5L47 5L47 3L43 3L43 5L41 5L41 4L42 4L42 3L40 3L40 4L39 4L39 3L37 3L37 2L34 2L34 3L32 3L32 4L31 4L31 3L30 3L30 4L31 4L31 7L32 7L32 6L33 6L33 7L34 7L34 8L36 8L36 6L37 6L37 8L38 8L38 10L37 10L37 9L34 9L34 10L36 10L36 11L34 11L34 12L37 12L37 11L40 11L40 12L38 12L38 13L37 13L37 14L40 14L40 15L38 15L38 17L36 17L36 18L35 18L35 17L34 17L34 16L37 16L37 15L33 15L33 14L35 14L35 13L33 13L33 12L31 12L31 11L33 11L33 10L31 10L31 11L30 11L30 10L28 10L28 11L30 11L30 12L31 12L31 14L30 14L30 13L29 13L29 12L28 12L28 13L25 13L25 12L27 12L27 11L26 11L26 10L27 10L27 9L26 9L26 6L25 6L25 4L26 4L26 3L25 3L25 2L23 2L23 1ZM28 1L28 2L27 2L27 3L28 3L28 4L29 4L29 3L28 3L28 2L31 2L31 1ZM46 1L46 2L47 2L47 1ZM24 3L24 4L21 4L21 6L20 6L20 5L18 5L18 7L19 7L19 6L20 6L20 7L21 7L21 6L22 6L22 8L24 8L24 9L23 9L23 13L24 13L24 14L23 14L23 15L24 15L24 17L23 17L23 18L24 18L24 19L22 19L22 17L21 17L21 18L20 18L20 17L19 17L19 16L18 16L18 17L19 17L19 18L20 18L20 19L18 19L18 21L17 21L17 24L16 24L16 23L14 23L14 25L15 25L15 26L16 26L16 25L18 25L18 27L17 27L17 28L16 28L16 27L15 27L15 28L16 28L16 29L15 29L15 30L14 30L14 36L11 36L11 38L12 38L12 39L13 39L13 38L15 38L15 39L14 39L14 40L15 40L15 41L16 41L16 40L17 40L17 41L19 41L19 44L20 44L20 45L18 45L18 44L16 44L16 45L18 45L18 47L19 47L19 46L20 46L20 47L22 47L22 46L20 46L20 45L22 45L22 44L20 44L20 41L21 41L21 43L22 43L22 42L24 42L24 43L25 43L25 42L26 42L26 43L32 43L32 44L30 44L30 47L31 47L31 48L33 48L33 49L32 49L32 50L34 50L34 49L35 49L35 48L36 48L36 47L39 47L39 46L40 46L40 45L39 45L39 44L40 44L40 43L41 43L41 44L43 44L43 43L44 43L44 42L46 42L46 41L47 41L47 40L46 40L46 41L44 41L44 40L45 40L45 39L44 39L44 40L43 40L43 41L42 41L42 39L43 39L43 37L44 37L44 38L45 38L45 37L44 37L44 35L45 35L45 34L46 34L46 35L50 35L50 34L51 34L51 33L50 33L50 34L48 34L48 33L47 33L47 32L48 32L48 31L47 31L47 30L46 30L46 31L45 31L45 30L44 30L44 28L43 28L43 27L42 27L42 28L43 28L43 29L42 29L42 30L41 30L41 31L39 31L39 30L40 30L40 29L39 29L39 30L37 30L37 29L38 29L38 28L37 28L37 26L38 26L38 25L39 25L39 24L40 24L40 22L39 22L39 24L37 24L37 23L38 23L38 21L37 21L37 20L36 20L36 21L37 21L37 22L36 22L36 24L35 24L35 22L34 22L34 23L33 23L33 21L32 21L32 20L34 20L34 19L35 19L35 18L34 18L34 17L33 17L33 18L34 18L34 19L28 19L28 18L27 18L27 20L31 20L31 21L30 21L30 22L29 22L29 21L27 21L27 24L29 24L29 25L26 25L26 24L25 24L25 23L26 23L26 22L25 22L25 21L26 21L26 19L25 19L25 18L26 18L26 17L28 17L28 16L26 16L26 14L25 14L25 13L24 13L24 12L25 12L25 11L24 11L24 10L25 10L25 8L24 8L24 7L25 7L25 6L24 6L24 7L23 7L23 6L22 6L22 5L24 5L24 4L25 4L25 3ZM34 3L34 4L35 4L35 3ZM36 3L36 5L35 5L35 6L34 6L34 5L33 5L33 6L34 6L34 7L35 7L35 6L36 6L36 5L37 5L37 6L38 6L38 7L39 7L39 8L40 8L40 7L41 7L41 6L40 6L40 7L39 7L39 6L38 6L38 4L37 4L37 3ZM15 4L15 5L16 5L16 4ZM27 5L27 8L30 8L30 5ZM9 6L9 7L10 7L10 6ZM28 6L28 7L29 7L29 6ZM42 6L42 7L43 7L43 6ZM44 6L44 8L45 8L45 6ZM15 8L15 9L14 9L14 10L15 10L15 9L16 9L16 8ZM20 8L20 9L19 9L19 11L20 11L20 12L19 12L19 13L18 13L18 12L15 12L15 14L14 14L14 13L13 13L13 15L16 15L16 13L18 13L18 15L21 15L21 16L22 16L22 14L19 14L19 13L22 13L22 12L21 12L21 11L22 11L22 10L21 10L21 11L20 11L20 9L21 9L21 8ZM31 8L31 9L33 9L33 8ZM55 8L55 9L56 9L56 8ZM6 10L6 11L7 11L7 12L8 12L8 11L7 11L7 10ZM46 10L46 11L48 11L48 10ZM12 11L12 12L11 12L11 14L12 14L12 12L14 12L14 11ZM2 12L2 13L3 13L3 12ZM28 13L28 14L27 14L27 15L29 15L29 13ZM32 13L32 14L33 14L33 13ZM55 13L55 14L56 14L56 13ZM0 14L0 15L1 15L1 14ZM8 14L8 18L7 18L7 19L8 19L8 20L7 20L7 21L3 21L3 22L2 22L2 23L3 23L3 24L1 24L1 25L2 25L2 26L3 26L3 28L4 28L4 26L3 26L3 25L6 25L6 26L7 26L7 25L6 25L6 24L7 24L7 23L8 23L8 22L10 22L10 21L9 21L9 20L10 20L10 18L9 18L9 17L10 17L10 16L9 16L9 14ZM24 14L24 15L25 15L25 14ZM41 14L41 15L40 15L40 16L39 16L39 17L40 17L40 16L41 16L41 15L42 15L42 14ZM44 14L44 15L45 15L45 14ZM6 15L6 16L7 16L7 15ZM30 15L30 16L33 16L33 15ZM47 15L47 16L46 16L46 18L47 18L47 17L49 17L49 15ZM0 16L0 18L1 18L1 19L0 19L0 20L2 20L2 18L1 18L1 16ZM12 16L12 17L13 17L13 16ZM15 16L15 17L14 17L14 18L12 18L12 21L15 21L15 22L16 22L16 21L15 21L15 20L16 20L16 19L17 19L17 18L16 18L16 19L15 19L15 17L17 17L17 16ZM25 16L25 17L26 17L26 16ZM29 17L29 18L32 18L32 17ZM49 18L49 19L50 19L50 18ZM13 19L13 20L14 20L14 19ZM21 19L21 20L19 20L19 21L18 21L18 22L19 22L19 23L20 23L20 22L19 22L19 21L23 21L23 22L24 22L24 21L23 21L23 20L22 20L22 19ZM56 19L56 20L57 20L57 19ZM39 20L39 21L40 21L40 20ZM3 22L3 23L4 23L4 22ZM5 22L5 24L6 24L6 23L7 23L7 22ZM28 22L28 23L29 23L29 24L30 24L30 25L31 25L31 22L30 22L30 23L29 23L29 22ZM9 23L9 24L10 24L10 25L11 25L11 24L10 24L10 23ZM23 23L23 24L21 24L21 25L20 25L20 24L19 24L19 25L20 25L20 26L21 26L21 27L20 27L20 28L21 28L21 29L19 29L19 30L18 30L18 31L17 31L17 29L18 29L18 28L17 28L17 29L16 29L16 30L15 30L15 31L16 31L16 32L15 32L15 35L16 35L16 37L15 37L15 38L16 38L16 37L17 37L17 39L18 39L18 38L20 38L20 39L19 39L19 41L20 41L20 40L21 40L21 41L25 41L25 39L26 39L26 38L28 38L28 37L29 37L29 34L31 34L31 35L30 35L30 38L31 38L31 39L29 39L29 40L32 40L32 41L28 41L28 39L27 39L27 41L26 41L26 42L27 42L27 41L28 41L28 42L32 42L32 43L33 43L33 42L35 42L35 43L34 43L34 44L32 44L32 45L31 45L31 47L32 47L32 46L35 46L35 47L33 47L33 48L35 48L35 47L36 47L36 46L39 46L39 45L38 45L38 44L39 44L39 42L41 42L41 40L39 40L39 41L38 41L38 39L42 39L42 38L41 38L41 37L42 37L42 36L40 36L40 35L38 35L38 34L39 34L39 33L40 33L40 34L42 34L42 35L44 35L44 34L45 34L45 32L43 32L43 34L42 34L42 32L38 32L38 31L37 31L37 30L36 30L36 29L33 29L33 28L34 28L34 27L33 27L33 26L35 26L35 27L36 27L36 26L37 26L37 25L36 25L36 26L35 26L35 25L34 25L34 24L32 24L32 25L33 25L33 26L31 26L31 27L32 27L32 30L36 30L36 32L35 32L35 31L33 31L33 32L31 32L31 31L30 31L30 32L29 32L29 31L25 31L25 34L24 34L24 36L23 36L23 32L24 32L24 31L23 31L23 32L22 32L22 31L21 31L21 29L22 29L22 30L24 30L24 29L25 29L25 30L26 30L26 27L25 27L25 26L26 26L26 25L25 25L25 24L24 24L24 23ZM55 23L55 24L54 24L54 25L55 25L55 24L56 24L56 23ZM15 24L15 25L16 25L16 24ZM23 24L23 26L22 26L22 25L21 25L21 26L22 26L22 27L21 27L21 28L22 28L22 29L24 29L24 28L25 28L25 27L23 27L23 26L25 26L25 25L24 25L24 24ZM39 26L39 28L41 28L41 27L40 27L40 26ZM5 27L5 30L8 30L8 27ZM27 27L27 30L30 30L30 27ZM49 27L49 30L52 30L52 27ZM6 28L6 29L7 29L7 28ZM28 28L28 29L29 29L29 28ZM50 28L50 29L51 29L51 28ZM54 28L54 29L55 29L55 28ZM42 30L42 31L44 31L44 30ZM18 31L18 33L19 33L19 35L17 35L17 37L20 37L20 36L19 36L19 35L20 35L20 33L19 33L19 32L20 32L20 31ZM46 31L46 32L47 32L47 31ZM52 31L52 32L54 32L54 31ZM5 32L5 33L7 33L7 32ZM8 32L8 33L9 33L9 34L10 34L10 33L9 33L9 32ZM16 32L16 33L17 33L17 32ZM27 32L27 33L26 33L26 34L25 34L25 35L26 35L26 36L27 36L27 37L28 37L28 36L27 36L27 35L26 35L26 34L27 34L27 33L29 33L29 32ZM30 32L30 33L31 33L31 34L33 34L33 36L34 36L34 37L35 37L35 36L34 36L34 35L37 35L37 36L36 36L36 40L35 40L35 38L33 38L33 41L34 41L34 40L35 40L35 42L37 42L37 43L36 43L36 44L35 44L35 46L36 46L36 45L37 45L37 43L38 43L38 41L37 41L37 38L38 38L38 35L37 35L37 34L38 34L38 33L37 33L37 32L36 32L36 34L33 34L33 33L35 33L35 32L33 32L33 33L31 33L31 32ZM21 33L21 34L22 34L22 33ZM46 33L46 34L47 34L47 33ZM56 33L56 34L57 34L57 33ZM0 34L0 35L1 35L1 34ZM12 34L12 35L13 35L13 34ZM31 35L31 38L32 38L32 35ZM0 36L0 37L1 37L1 36ZM21 36L21 37L22 37L22 39L21 39L21 40L24 40L24 39L23 39L23 38L24 38L24 37L25 37L25 36L24 36L24 37L22 37L22 36ZM39 36L39 38L40 38L40 36ZM51 37L51 38L52 38L52 39L53 39L53 38L52 38L52 37ZM6 38L6 39L8 39L8 40L9 40L9 41L10 41L10 40L9 40L9 39L10 39L10 38L9 38L9 39L8 39L8 38ZM15 39L15 40L16 40L16 39ZM52 40L52 41L53 41L53 40ZM0 42L0 44L1 44L1 42ZM17 42L17 43L18 43L18 42ZM42 42L42 43L43 43L43 42ZM13 43L13 44L15 44L15 43ZM25 44L25 45L23 45L23 47L24 47L24 49L23 49L23 50L25 50L25 45L26 45L26 44ZM27 44L27 45L29 45L29 44ZM47 44L47 45L46 45L46 46L47 46L47 45L48 45L48 44ZM49 44L49 45L50 45L50 47L52 47L52 48L54 48L54 47L52 47L52 46L54 46L54 45L51 45L51 44ZM3 45L3 47L5 47L5 46L4 46L4 45ZM6 45L6 46L7 46L7 45ZM1 46L1 47L2 47L2 46ZM13 47L13 48L14 48L14 49L19 49L19 48L14 48L14 47ZM27 49L27 52L30 52L30 49ZM49 49L49 52L52 52L52 49ZM28 50L28 51L29 51L29 50ZM50 50L50 51L51 51L51 50ZM39 51L39 52L40 52L40 51ZM43 51L43 53L41 53L41 54L43 54L43 53L44 53L44 54L45 54L45 55L46 55L46 54L45 54L45 53L44 53L44 51ZM56 51L56 52L57 52L57 51ZM15 53L15 54L16 54L16 53ZM30 53L30 54L31 54L31 53ZM11 54L11 55L13 55L13 54ZM27 55L27 56L28 56L28 55ZM35 55L35 56L34 56L34 57L38 57L38 55ZM43 55L43 56L42 56L42 57L44 57L44 55ZM45 56L45 57L49 57L49 56ZM0 0L0 7L7 7L7 0ZM1 1L1 6L6 6L6 1ZM2 2L2 5L5 5L5 2ZM50 0L50 7L57 7L57 0ZM51 1L51 6L56 6L56 1ZM52 2L52 5L55 5L55 2ZM0 50L0 57L7 57L7 50ZM1 51L1 56L6 56L6 51ZM2 52L2 55L5 55L5 52Z" fill="#000000"/></g></g></svg>
