<?xml version="1.0" encoding="UTF-8"?>
<svg xmlns="http://www.w3.org/2000/svg" version="1.1" width="300" height="300" viewBox="0 0 300 300"><rect x="0" y="0" width="300" height="300" fill="#ffffff"/><g transform="scale(4.918)"><g transform="translate(2,2)"><path fill-rule="evenodd" d="M9 0L9 1L8 1L8 2L9 2L9 3L8 3L8 4L9 4L9 5L8 5L8 7L9 7L9 8L6 8L6 9L8 9L8 11L7 11L7 10L5 10L5 8L0 8L0 10L1 10L1 11L2 11L2 12L3 12L3 10L5 10L5 11L4 11L4 13L2 13L2 14L3 14L3 15L2 15L2 16L1 16L1 15L0 15L0 19L1 19L1 20L0 20L0 21L1 21L1 23L0 23L0 24L1 24L1 25L0 25L0 27L1 27L1 29L0 29L0 31L1 31L1 30L2 30L2 36L1 36L1 34L0 34L0 36L1 36L1 37L2 37L2 36L3 36L3 38L4 38L4 39L3 39L3 40L2 40L2 41L1 41L1 44L0 44L0 45L3 45L3 46L2 46L2 47L1 47L1 46L0 46L0 48L5 48L5 47L7 47L7 46L5 46L5 45L8 45L8 47L9 47L9 45L8 45L8 43L9 43L9 42L6 42L6 41L7 41L7 40L6 40L6 39L8 39L8 37L9 37L9 38L11 38L11 37L12 37L12 38L13 38L13 39L12 39L12 40L13 40L13 41L11 41L11 39L9 39L9 40L10 40L10 43L11 43L11 44L12 44L12 45L13 45L13 46L11 46L11 45L10 45L10 47L12 47L12 48L10 48L10 49L12 49L12 50L13 50L13 49L14 49L14 48L15 48L15 50L14 50L14 51L12 51L12 52L11 52L11 50L10 50L10 51L9 51L9 49L8 49L8 48L6 48L6 49L8 49L8 51L9 51L9 52L8 52L8 57L10 57L10 56L9 56L9 55L10 55L10 54L11 54L11 57L14 57L14 56L16 56L16 57L19 57L19 56L20 56L20 57L21 57L21 54L23 54L23 55L22 55L22 56L23 56L23 55L24 55L24 56L25 56L25 57L26 57L26 56L25 56L25 53L26 53L26 54L27 54L27 53L28 53L28 54L29 54L29 55L30 55L30 56L29 56L29 57L32 57L32 56L31 56L31 55L33 55L33 56L34 56L34 57L37 57L37 55L38 55L38 57L39 57L39 56L41 56L41 57L44 57L44 55L43 55L43 53L44 53L44 54L45 54L45 57L48 57L48 55L49 55L49 56L50 56L50 55L51 55L51 57L52 57L52 56L54 56L54 57L56 57L56 56L55 56L55 55L54 55L54 54L55 54L55 53L56 53L56 52L57 52L57 51L56 51L56 52L55 52L55 50L57 50L57 48L56 48L56 46L57 46L57 44L56 44L56 46L55 46L55 45L54 45L54 44L55 44L55 43L56 43L56 42L55 42L55 41L54 41L54 40L55 40L55 39L57 39L57 36L56 36L56 37L54 37L54 36L55 36L55 34L57 34L57 33L56 33L56 32L57 32L57 31L56 31L56 30L57 30L57 28L55 28L55 27L56 27L56 26L55 26L55 25L56 25L56 24L55 24L55 23L56 23L56 22L57 22L57 21L56 21L56 20L57 20L57 19L56 19L56 20L55 20L55 18L57 18L57 15L56 15L56 14L57 14L57 13L56 13L56 8L55 8L55 11L54 11L54 10L53 10L53 11L52 11L52 10L49 10L49 9L50 9L50 8L49 8L49 6L48 6L48 7L47 7L47 5L48 5L48 0L39 0L39 1L34 1L34 0L33 0L33 1L34 1L34 2L39 2L39 4L40 4L40 5L41 5L41 6L40 6L40 7L41 7L41 6L42 6L42 8L43 8L43 9L40 9L40 10L41 10L41 11L40 11L40 12L41 12L41 11L42 11L42 14L40 14L40 15L38 15L38 16L36 16L36 15L35 15L35 14L38 14L38 12L39 12L39 11L37 11L37 10L38 10L38 9L37 9L37 8L38 8L38 7L39 7L39 6L38 6L38 4L37 4L37 3L36 3L36 5L35 5L35 6L34 6L34 5L33 5L33 6L32 6L32 7L31 7L31 4L32 4L32 3L33 3L33 2L30 2L30 1L31 1L31 0L30 0L30 1L29 1L29 2L28 2L28 3L27 3L27 2L25 2L25 1L26 1L26 0L23 0L23 2L24 2L24 4L21 4L21 5L24 5L24 4L25 4L25 6L24 6L24 7L23 7L23 6L22 6L22 7L21 7L21 6L20 6L20 5L18 5L18 4L20 4L20 3L18 3L18 4L16 4L16 2L17 2L17 1L16 1L16 0L13 0L13 1L12 1L12 0ZM19 0L19 1L18 1L18 2L19 2L19 1L20 1L20 2L21 2L21 3L22 3L22 2L21 2L21 1L22 1L22 0L21 0L21 1L20 1L20 0ZM27 0L27 1L28 1L28 0ZM9 1L9 2L10 2L10 3L9 3L9 4L13 4L13 7L12 7L12 5L11 5L11 7L10 7L10 5L9 5L9 7L10 7L10 8L9 8L9 11L8 11L8 12L9 12L9 13L11 13L11 14L12 14L12 12L9 12L9 11L10 11L10 8L11 8L11 10L12 10L12 11L14 11L14 12L13 12L13 13L14 13L14 15L15 15L15 14L17 14L17 15L16 15L16 16L18 16L18 15L20 15L20 16L19 16L19 17L16 17L16 18L19 18L19 19L21 19L21 20L19 20L19 21L18 21L18 19L17 19L17 20L15 20L15 21L11 21L11 20L14 20L14 19L13 19L13 18L14 18L14 17L15 17L15 16L14 16L14 17L13 17L13 18L11 18L11 16L12 16L12 15L9 15L9 14L8 14L8 15L9 15L9 16L8 16L8 17L9 17L9 18L8 18L8 20L9 20L9 18L11 18L11 19L10 19L10 21L9 21L9 22L8 22L8 23L6 23L6 22L7 22L7 21L6 21L6 20L7 20L7 19L6 19L6 18L7 18L7 17L6 17L6 16L7 16L7 15L5 15L5 14L7 14L7 13L6 13L6 12L7 12L7 11L6 11L6 12L5 12L5 14L4 14L4 15L5 15L5 16L2 16L2 17L3 17L3 18L4 18L4 19L3 19L3 20L2 20L2 21L3 21L3 22L2 22L2 23L1 23L1 24L2 24L2 26L4 26L4 25L5 25L5 26L7 26L7 25L8 25L8 26L9 26L9 27L10 27L10 26L9 26L9 25L8 25L8 24L10 24L10 25L11 25L11 24L12 24L12 25L13 25L13 26L12 26L12 27L11 27L11 28L9 28L9 30L10 30L10 29L11 29L11 30L12 30L12 29L11 29L11 28L12 28L12 27L14 27L14 28L16 28L16 27L18 27L18 26L19 26L19 25L20 25L20 28L21 28L21 29L19 29L19 31L20 31L20 32L19 32L19 33L18 33L18 34L19 34L19 36L20 36L20 37L17 37L17 36L18 36L18 35L16 35L16 37L15 37L15 36L14 36L14 34L11 34L11 33L13 33L13 32L14 32L14 30L13 30L13 32L12 32L12 31L11 31L11 32L9 32L9 31L8 31L8 34L7 34L7 33L6 33L6 34L5 34L5 32L4 32L4 31L3 31L3 36L4 36L4 38L7 38L7 37L8 37L8 36L9 36L9 37L11 37L11 36L12 36L12 35L13 35L13 36L14 36L14 37L13 37L13 38L14 38L14 37L15 37L15 38L16 38L16 37L17 37L17 38L20 38L20 39L18 39L18 40L21 40L21 41L19 41L19 42L18 42L18 43L17 43L17 44L18 44L18 45L16 45L16 46L17 46L17 47L16 47L16 48L17 48L17 47L18 47L18 48L19 48L19 49L16 49L16 51L18 51L18 52L15 52L15 51L14 51L14 54L13 54L13 53L12 53L12 55L13 55L13 56L14 56L14 55L16 55L16 56L18 56L18 55L17 55L17 54L19 54L19 55L20 55L20 54L19 54L19 53L23 53L23 54L24 54L24 53L23 53L23 52L24 52L24 51L25 51L25 52L26 52L26 51L25 51L25 50L26 50L26 49L25 49L25 50L23 50L23 48L24 48L24 47L23 47L23 45L25 45L25 48L29 48L29 45L30 45L30 44L31 44L31 43L32 43L32 45L31 45L31 46L32 46L32 45L33 45L33 46L35 46L35 47L33 47L33 48L31 48L31 47L30 47L30 48L31 48L31 50L32 50L32 51L31 51L31 52L32 52L32 54L34 54L34 56L35 56L35 55L37 55L37 54L39 54L39 52L40 52L40 55L42 55L42 56L43 56L43 55L42 55L42 54L41 54L41 52L40 52L40 51L44 51L44 53L45 53L45 54L46 54L46 56L47 56L47 55L48 55L48 54L49 54L49 55L50 55L50 54L51 54L51 55L53 55L53 54L54 54L54 53L55 53L55 52L54 52L54 53L53 53L53 54L51 54L51 53L48 53L48 52L47 52L47 51L48 51L48 48L50 48L50 47L51 47L51 48L54 48L54 49L56 49L56 48L54 48L54 46L53 46L53 45L50 45L50 44L49 44L49 45L48 45L48 44L47 44L47 45L46 45L46 46L47 46L47 47L46 47L46 50L44 50L44 49L45 49L45 48L44 48L44 47L45 47L45 46L42 46L42 45L43 45L43 44L40 44L40 43L46 43L46 42L48 42L48 43L49 43L49 41L51 41L51 42L50 42L50 43L51 43L51 42L53 42L53 43L52 43L52 44L53 44L53 43L54 43L54 41L51 41L51 40L53 40L53 38L54 38L54 37L52 37L52 34L53 34L53 35L54 35L54 34L53 34L53 33L55 33L55 32L53 32L53 31L52 31L52 32L53 32L53 33L51 33L51 34L50 34L50 32L49 32L49 31L48 31L48 30L47 30L47 29L48 29L48 27L46 27L46 28L47 28L47 29L46 29L46 30L45 30L45 26L47 26L47 25L49 25L49 26L51 26L51 25L53 25L53 27L55 27L55 26L54 26L54 25L55 25L55 24L54 24L54 25L53 25L53 24L50 24L50 22L51 22L51 23L53 23L53 22L55 22L55 20L54 20L54 21L53 21L53 20L52 20L52 21L51 21L51 18L52 18L52 19L53 19L53 18L54 18L54 17L55 17L55 16L56 16L56 15L55 15L55 16L52 16L52 15L53 15L53 14L54 14L54 13L55 13L55 14L56 14L56 13L55 13L55 12L54 12L54 11L53 11L53 12L52 12L52 11L49 11L49 10L48 10L48 9L49 9L49 8L48 8L48 9L47 9L47 7L46 7L46 6L45 6L45 5L44 5L44 4L46 4L46 5L47 5L47 3L43 3L43 2L47 2L47 1L40 1L40 2L41 2L41 3L40 3L40 4L41 4L41 5L42 5L42 6L43 6L43 7L44 7L44 6L45 6L45 7L46 7L46 8L44 8L44 9L43 9L43 10L42 10L42 11L43 11L43 12L44 12L44 13L45 13L45 12L46 12L46 14L47 14L47 13L49 13L49 14L51 14L51 16L50 16L50 15L45 15L45 16L44 16L44 15L43 15L43 14L42 14L42 15L43 15L43 16L44 16L44 18L41 18L41 16L38 16L38 17L36 17L36 16L35 16L35 15L34 15L34 16L30 16L30 13L29 13L29 12L28 12L28 13L26 13L26 15L25 15L25 14L24 14L24 13L25 13L25 12L27 12L27 11L29 11L29 10L27 10L27 9L26 9L26 6L25 6L25 7L24 7L24 8L23 8L23 7L22 7L22 8L21 8L21 7L20 7L20 6L19 6L19 7L18 7L18 6L17 6L17 7L18 7L18 8L21 8L21 9L20 9L20 10L18 10L18 9L17 9L17 8L16 8L16 6L15 6L15 7L14 7L14 4L15 4L15 5L16 5L16 4L15 4L15 3L14 3L14 4L13 4L13 2L15 2L15 1L13 1L13 2L12 2L12 1ZM11 2L11 3L12 3L12 2ZM29 2L29 3L28 3L28 4L29 4L29 3L30 3L30 2ZM25 3L25 4L26 4L26 3ZM34 3L34 4L35 4L35 3ZM41 3L41 4L42 4L42 5L43 5L43 3ZM27 5L27 8L30 8L30 5ZM36 5L36 6L35 6L35 7L34 7L34 6L33 6L33 8L32 8L32 9L31 9L31 10L30 10L30 12L32 12L32 15L33 15L33 14L35 14L35 13L33 13L33 11L34 11L34 12L37 12L37 11L35 11L35 10L37 10L37 9L36 9L36 8L37 8L37 7L38 7L38 6L37 6L37 5ZM28 6L28 7L29 7L29 6ZM36 6L36 7L35 7L35 8L34 8L34 9L35 9L35 8L36 8L36 7L37 7L37 6ZM13 7L13 8L12 8L12 10L13 10L13 9L14 9L14 7ZM15 8L15 9L16 9L16 8ZM51 8L51 9L52 9L52 8ZM53 8L53 9L54 9L54 8ZM2 9L2 10L3 10L3 9ZM23 9L23 13L24 13L24 11L25 11L25 9ZM32 9L32 10L33 10L33 9ZM16 10L16 13L18 13L18 14L19 14L19 13L22 13L22 12L21 12L21 11L22 11L22 10L21 10L21 11L19 11L19 13L18 13L18 12L17 12L17 11L18 11L18 10ZM26 10L26 11L27 11L27 10ZM43 10L43 11L44 11L44 12L45 12L45 11L46 11L46 10ZM48 11L48 12L49 12L49 11ZM50 12L50 13L51 13L51 14L52 14L52 13L51 13L51 12ZM0 13L0 14L1 14L1 13ZM28 13L28 14L27 14L27 15L29 15L29 13ZM21 15L21 16L20 16L20 17L21 17L21 19L22 19L22 18L23 18L23 21L22 21L22 20L21 20L21 21L19 21L19 22L20 22L20 23L17 23L17 24L16 24L16 23L12 23L12 24L13 24L13 25L14 25L14 24L15 24L15 26L14 26L14 27L16 27L16 25L19 25L19 24L21 24L21 25L22 25L22 27L21 27L21 28L22 28L22 29L21 29L21 30L22 30L22 31L21 31L21 32L20 32L20 33L21 33L21 34L20 34L20 35L21 35L21 37L22 37L22 38L21 38L21 40L22 40L22 38L24 38L24 37L26 37L26 38L25 38L25 41L24 41L24 39L23 39L23 41L24 41L24 42L23 42L23 44L24 44L24 43L25 43L25 42L26 42L26 43L27 43L27 42L26 42L26 41L28 41L28 40L29 40L29 41L30 41L30 43L29 43L29 44L28 44L28 45L27 45L27 46L26 46L26 47L27 47L27 46L28 46L28 45L29 45L29 44L30 44L30 43L31 43L31 42L32 42L32 43L33 43L33 44L34 44L34 43L35 43L35 46L36 46L36 47L35 47L35 48L36 48L36 50L37 50L37 52L36 52L36 51L35 51L35 50L33 50L33 51L32 51L32 52L33 52L33 53L34 53L34 52L33 52L33 51L35 51L35 52L36 52L36 53L35 53L35 54L37 54L37 53L38 53L38 52L39 52L39 51L40 51L40 50L43 50L43 49L44 49L44 48L41 48L41 47L42 47L42 46L41 46L41 45L40 45L40 44L38 44L38 43L40 43L40 42L45 42L45 41L44 41L44 39L43 39L43 41L42 41L42 40L41 40L41 39L39 39L39 38L40 38L40 36L42 36L42 37L41 37L41 38L43 38L43 37L44 37L44 38L45 38L45 37L44 37L44 33L43 33L43 32L48 32L48 31L47 31L47 30L46 30L46 31L44 31L44 28L43 28L43 27L42 27L42 28L43 28L43 29L42 29L42 30L41 30L41 31L40 31L40 32L39 32L39 33L40 33L40 32L41 32L41 33L42 33L42 34L41 34L41 35L40 35L40 36L39 36L39 34L37 34L37 32L35 32L35 33L36 33L36 34L34 34L34 33L31 33L31 34L34 34L34 35L38 35L38 37L37 37L37 36L36 36L36 40L35 40L35 38L33 38L33 39L31 39L31 38L32 38L32 35L30 35L30 34L29 34L29 35L30 35L30 36L29 36L29 37L28 37L28 36L27 36L27 37L26 37L26 36L25 36L25 35L27 35L27 33L30 33L30 32L34 32L34 31L37 31L37 30L38 30L38 25L40 25L40 26L39 26L39 28L41 28L41 27L40 27L40 26L43 26L43 25L44 25L44 26L45 26L45 25L46 25L46 24L49 24L49 22L50 22L50 17L47 17L47 18L46 18L46 16L45 16L45 18L46 18L46 19L40 19L40 17L39 17L39 18L36 18L36 19L38 19L38 21L37 21L37 20L36 20L36 21L37 21L37 22L36 22L36 23L35 23L35 22L34 22L34 23L35 23L35 26L34 26L34 28L33 28L33 26L32 26L32 25L29 25L29 26L27 26L27 25L28 25L28 24L29 24L29 22L31 22L31 23L30 23L30 24L31 24L31 23L32 23L32 24L33 24L33 21L32 21L32 20L35 20L35 18L34 18L34 17L35 17L35 16L34 16L34 17L29 17L29 18L34 18L34 19L30 19L30 21L28 21L28 22L27 22L27 23L28 23L28 24L27 24L27 25L26 25L26 24L25 24L25 23L26 23L26 22L25 22L25 21L26 21L26 19L27 19L27 20L29 20L29 19L28 19L28 18L26 18L26 17L28 17L28 16L25 16L25 15L23 15L23 16L24 16L24 17L22 17L22 15ZM51 16L51 17L52 17L52 16ZM5 17L5 18L6 18L6 17ZM25 18L25 19L26 19L26 18ZM4 19L4 21L5 21L5 19ZM39 19L39 20L40 20L40 21L38 21L38 23L37 23L37 25L38 25L38 23L39 23L39 24L40 24L40 25L42 25L42 24L40 24L40 23L41 23L41 22L42 22L42 23L43 23L43 24L44 24L44 25L45 25L45 23L44 23L44 21L45 21L45 22L46 22L46 23L47 23L47 21L46 21L46 20L48 20L48 19L46 19L46 20L43 20L43 22L42 22L42 21L41 21L41 20L40 20L40 19ZM15 21L15 22L16 22L16 21ZM17 21L17 22L18 22L18 21ZM21 21L21 24L22 24L22 25L24 25L24 23L23 23L23 22L24 22L24 21L23 21L23 22L22 22L22 21ZM4 22L4 23L5 23L5 24L6 24L6 25L7 25L7 24L6 24L6 23L5 23L5 22ZM39 22L39 23L40 23L40 22ZM2 23L2 24L3 24L3 23ZM25 25L25 26L23 26L23 29L22 29L22 30L23 30L23 32L21 32L21 33L22 33L22 37L24 37L24 35L25 35L25 34L26 34L26 33L27 33L27 31L25 31L25 30L26 30L26 27L25 27L25 26L26 26L26 25ZM35 26L35 27L36 27L36 28L35 28L35 29L33 29L33 28L31 28L31 31L33 31L33 30L36 30L36 28L37 28L37 27L36 27L36 26ZM5 27L5 30L8 30L8 27ZM24 27L24 28L25 28L25 27ZM27 27L27 30L30 30L30 27ZM49 27L49 30L52 30L52 27ZM6 28L6 29L7 29L7 28ZM17 28L17 29L16 29L16 31L15 31L15 33L16 33L16 34L17 34L17 33L16 33L16 31L18 31L18 30L17 30L17 29L18 29L18 28ZM28 28L28 29L29 29L29 28ZM50 28L50 29L51 29L51 28ZM54 28L54 29L53 29L53 30L54 30L54 29L55 29L55 30L56 30L56 29L55 29L55 28ZM23 29L23 30L25 30L25 29ZM32 29L32 30L33 30L33 29ZM39 29L39 30L40 30L40 29ZM42 30L42 31L43 31L43 30ZM6 31L6 32L7 32L7 31ZM24 31L24 33L23 33L23 34L25 34L25 33L26 33L26 32L25 32L25 31ZM28 31L28 32L30 32L30 31ZM9 33L9 35L10 35L10 36L11 36L11 35L10 35L10 33ZM45 33L45 34L46 34L46 35L45 35L45 36L47 36L47 35L49 35L49 34L48 34L48 33L47 33L47 34L46 34L46 33ZM4 34L4 36L5 36L5 37L7 37L7 36L6 36L6 35L7 35L7 34L6 34L6 35L5 35L5 34ZM42 34L42 35L43 35L43 34ZM50 35L50 36L49 36L49 37L47 37L47 38L48 38L48 39L49 39L49 37L51 37L51 38L52 38L52 37L51 37L51 35ZM30 36L30 38L31 38L31 36ZM34 36L34 37L35 37L35 36ZM27 37L27 38L28 38L28 37ZM38 37L38 38L37 38L37 39L38 39L38 40L37 40L37 41L36 41L36 42L35 42L35 40L31 40L31 39L29 39L29 40L31 40L31 41L32 41L32 42L33 42L33 43L34 43L34 42L35 42L35 43L36 43L36 44L37 44L37 45L36 45L36 46L40 46L40 45L38 45L38 44L37 44L37 43L36 43L36 42L37 42L37 41L38 41L38 42L39 42L39 41L41 41L41 40L39 40L39 39L38 39L38 38L39 38L39 37ZM0 38L0 39L2 39L2 38ZM15 39L15 41L13 41L13 43L12 43L12 42L11 42L11 43L12 43L12 44L13 44L13 45L14 45L14 44L15 44L15 43L14 43L14 42L17 42L17 40L16 40L16 39ZM27 39L27 40L28 40L28 39ZM46 39L46 41L47 41L47 39ZM50 39L50 40L51 40L51 39ZM5 40L5 41L6 41L6 40ZM38 40L38 41L39 41L39 40ZM21 41L21 43L20 43L20 42L19 42L19 45L18 45L18 47L19 47L19 48L20 48L20 49L21 49L21 50L18 50L18 51L19 51L19 52L18 52L18 53L19 53L19 52L22 52L22 51L21 51L21 50L22 50L22 49L21 49L21 48L20 48L20 47L22 47L22 48L23 48L23 47L22 47L22 46L20 46L20 47L19 47L19 45L22 45L22 44L21 44L21 43L22 43L22 41ZM33 41L33 42L34 42L34 41ZM3 42L3 43L5 43L5 44L7 44L7 43L6 43L6 42ZM25 44L25 45L26 45L26 44ZM44 44L44 45L45 45L45 44ZM47 45L47 46L48 46L48 45ZM49 45L49 47L50 47L50 45ZM3 46L3 47L5 47L5 46ZM13 46L13 48L14 48L14 47L15 47L15 46ZM52 46L52 47L53 47L53 46ZM36 47L36 48L39 48L39 49L37 49L37 50L39 50L39 49L41 49L41 48L39 48L39 47ZM33 48L33 49L34 49L34 48ZM27 49L27 52L30 52L30 49ZM49 49L49 52L52 52L52 49ZM28 50L28 51L29 51L29 50ZM46 50L46 51L45 51L45 52L46 52L46 51L47 51L47 50ZM50 50L50 51L51 51L51 50ZM10 52L10 53L9 53L9 54L10 54L10 53L11 53L11 52ZM42 52L42 53L43 53L43 52ZM15 53L15 54L16 54L16 53ZM29 53L29 54L30 54L30 53ZM47 53L47 54L48 54L48 53ZM27 55L27 56L28 56L28 55ZM0 0L0 7L7 7L7 0ZM1 1L1 6L6 6L6 1ZM2 2L2 5L5 5L5 2ZM50 0L50 7L57 7L57 0ZM51 1L51 6L56 6L56 1ZM52 2L52 5L55 5L55 2ZM0 50L0 57L7 57L7 50ZM1 51L1 56L6 56L6 51ZM2 52L2 55L5 55L5 52Z" fill="#000000"/></g></g></svg>
