<?xml version="1.0" encoding="UTF-8"?>
<svg xmlns="http://www.w3.org/2000/svg" version="1.1" width="300" height="300" viewBox="0 0 300 300"><rect x="0" y="0" width="300" height="300" fill="#ffffff"/><g transform="scale(4.918)"><g transform="translate(2,2)"><path fill-rule="evenodd" d="M9 0L9 1L8 1L8 2L10 2L10 3L11 3L11 4L9 4L9 3L8 3L8 4L9 4L9 5L8 5L8 7L9 7L9 5L10 5L10 8L11 8L11 9L10 9L10 10L9 10L9 8L6 8L6 9L5 9L5 8L0 8L0 9L1 9L1 10L2 10L2 11L0 11L0 12L1 12L1 13L2 13L2 14L3 14L3 13L2 13L2 12L3 12L3 10L2 10L2 9L5 9L5 11L7 11L7 12L6 12L6 13L5 13L5 12L4 12L4 13L5 13L5 14L6 14L6 15L5 15L5 16L2 16L2 17L1 17L1 16L0 16L0 19L1 19L1 20L0 20L0 22L1 22L1 23L0 23L0 24L1 24L1 26L0 26L0 34L1 34L1 35L0 35L0 36L1 36L1 35L3 35L3 37L4 37L4 39L3 39L3 38L2 38L2 37L0 37L0 39L2 39L2 40L1 40L1 41L2 41L2 42L0 42L0 48L5 48L5 47L9 47L9 48L10 48L10 45L9 45L9 46L8 46L8 45L7 45L7 44L6 44L6 45L7 45L7 46L5 46L5 47L3 47L3 46L4 46L4 45L5 45L5 44L4 44L4 43L5 43L5 42L6 42L6 43L7 43L7 42L8 42L8 44L9 44L9 43L10 43L10 41L12 41L12 42L14 42L14 39L13 39L13 38L11 38L11 39L10 39L10 41L9 41L9 42L8 42L8 40L9 40L9 37L8 37L8 36L6 36L6 35L8 35L8 34L6 34L6 35L5 35L5 34L2 34L2 33L5 33L5 32L6 32L6 33L10 33L10 30L9 30L9 29L10 29L10 28L11 28L11 30L12 30L12 31L14 31L14 30L13 30L13 29L12 29L12 28L15 28L15 25L14 25L14 24L16 24L16 23L14 23L14 22L13 22L13 21L15 21L15 22L16 22L16 21L15 21L15 20L16 20L16 19L19 19L19 20L17 20L17 21L19 21L19 22L17 22L17 23L18 23L18 24L17 24L17 26L16 26L16 27L17 27L17 28L16 28L16 29L15 29L15 31L16 31L16 29L17 29L17 31L18 31L18 33L19 33L19 34L17 34L17 36L18 36L18 37L16 37L16 35L15 35L15 33L14 33L14 32L13 32L13 33L12 33L12 32L11 32L11 33L12 33L12 35L11 35L11 34L9 34L9 35L11 35L11 36L10 36L10 37L11 37L11 36L12 36L12 37L14 37L14 38L15 38L15 39L16 39L16 40L15 40L15 41L17 41L17 43L15 43L15 44L14 44L14 43L13 43L13 44L14 44L14 46L13 46L13 45L12 45L12 47L11 47L11 52L10 52L10 50L9 50L9 49L8 49L8 51L9 51L9 52L8 52L8 57L10 57L10 56L11 56L11 57L13 57L13 56L15 56L15 57L16 57L16 55L12 55L12 56L11 56L11 53L12 53L12 52L14 52L14 54L16 54L16 53L15 53L15 52L17 52L17 53L19 53L19 54L18 54L18 55L17 55L17 57L19 57L19 56L21 56L21 55L22 55L22 54L23 54L23 55L24 55L24 56L25 56L25 57L26 57L26 56L28 56L28 55L26 55L26 54L27 54L27 53L28 53L28 54L29 54L29 55L30 55L30 57L32 57L32 56L31 56L31 55L34 55L34 54L32 54L32 52L33 52L33 53L34 53L34 52L36 52L36 54L35 54L35 55L37 55L37 54L38 54L38 56L35 56L35 57L39 57L39 56L40 56L40 52L41 52L41 53L42 53L42 54L41 54L41 55L42 55L42 54L43 54L43 53L44 53L44 54L45 54L45 56L46 56L46 54L45 54L45 53L44 53L44 51L40 51L40 50L38 50L38 49L39 49L39 48L42 48L42 49L41 49L41 50L43 50L43 48L45 48L45 47L47 47L47 46L46 46L46 45L47 45L47 44L48 44L48 45L50 45L50 44L52 44L52 45L51 45L51 47L49 47L49 48L48 48L48 51L47 51L47 50L46 50L46 49L45 49L45 50L46 50L46 51L47 51L47 52L48 52L48 54L47 54L47 55L50 55L50 53L51 53L51 54L55 54L55 53L53 53L53 52L55 52L55 51L53 51L53 50L54 50L54 49L53 49L53 48L55 48L55 50L57 50L57 48L55 48L55 45L54 45L54 44L56 44L56 46L57 46L57 44L56 44L56 41L54 41L54 40L55 40L55 39L57 39L57 35L56 35L56 37L54 37L54 39L52 39L52 37L53 37L53 36L55 36L55 35L54 35L54 34L55 34L55 33L53 33L53 32L55 32L55 31L56 31L56 32L57 32L57 31L56 31L56 30L57 30L57 29L54 29L54 28L56 28L56 26L57 26L57 25L56 25L56 24L57 24L57 23L56 23L56 22L57 22L57 21L55 21L55 23L54 23L54 21L53 21L53 23L52 23L52 24L51 24L51 26L49 26L49 25L50 25L50 24L49 24L49 25L48 25L48 24L47 24L47 23L46 23L46 22L45 22L45 21L44 21L44 23L43 23L43 20L45 20L45 18L46 18L46 20L47 20L47 19L49 19L49 21L48 21L48 22L50 22L50 23L51 23L51 22L52 22L52 21L51 21L51 22L50 22L50 19L49 19L49 18L50 18L50 17L49 17L49 16L50 16L50 15L51 15L51 14L52 14L52 13L51 13L51 14L50 14L50 11L52 11L52 12L53 12L53 11L54 11L54 12L55 12L55 13L54 13L54 14L55 14L55 15L52 15L52 16L57 16L57 15L56 15L56 14L57 14L57 13L56 13L56 10L55 10L55 11L54 11L54 10L52 10L52 8L51 8L51 10L50 10L50 8L49 8L49 6L48 6L48 8L49 8L49 9L47 9L47 10L46 10L46 8L47 8L47 5L48 5L48 0L46 0L46 1L45 1L45 0L44 0L44 1L43 1L43 0L40 0L40 1L37 1L37 0L35 0L35 1L33 1L33 2L30 2L30 1L32 1L32 0L30 0L30 1L29 1L29 0L27 0L27 1L26 1L26 0L24 0L24 1L23 1L23 0L21 0L21 1L17 1L17 2L16 2L16 0L14 0L14 1L15 1L15 2L14 2L14 3L15 3L15 4L14 4L14 7L13 7L13 6L12 6L12 7L11 7L11 4L12 4L12 5L13 5L13 0L11 0L11 1L10 1L10 0ZM11 1L11 3L12 3L12 1ZM21 1L21 2L20 2L20 4L17 4L17 3L18 3L18 2L17 2L17 3L16 3L16 4L15 4L15 5L16 5L16 4L17 4L17 7L18 7L18 8L21 8L21 9L19 9L19 10L18 10L18 11L17 11L17 9L15 9L15 8L16 8L16 6L15 6L15 8L13 8L13 7L12 7L12 8L13 8L13 9L15 9L15 10L13 10L13 11L11 11L11 12L10 12L10 11L9 11L9 10L8 10L8 11L9 11L9 13L10 13L10 14L9 14L9 15L6 15L6 16L5 16L5 18L7 18L7 17L8 17L8 19L4 19L4 17L2 17L2 20L3 20L3 23L2 23L2 24L5 24L5 25L4 25L4 26L5 26L5 25L6 25L6 26L8 26L8 25L9 25L9 28L10 28L10 27L11 27L11 28L12 28L12 27L11 27L11 26L10 26L10 25L11 25L11 24L12 24L12 26L13 26L13 27L14 27L14 25L13 25L13 24L14 24L14 23L13 23L13 24L12 24L12 23L11 23L11 24L10 24L10 25L9 25L9 24L8 24L8 23L6 23L6 22L8 22L8 21L9 21L9 22L11 22L11 21L12 21L12 20L14 20L14 19L13 19L13 17L15 17L15 19L16 19L16 18L19 18L19 19L20 19L20 18L21 18L21 20L19 20L19 21L21 21L21 23L22 23L22 21L23 21L23 22L24 22L24 21L23 21L23 19L24 19L24 18L23 18L23 17L24 17L24 16L23 16L23 15L24 15L24 14L23 14L23 13L25 13L25 14L26 14L26 16L25 16L25 18L26 18L26 20L27 20L27 21L25 21L25 22L26 22L26 23L25 23L25 24L24 24L24 23L23 23L23 24L19 24L19 25L20 25L20 26L19 26L19 28L21 28L21 29L19 29L19 30L18 30L18 31L20 31L20 32L19 32L19 33L20 33L20 35L19 35L19 36L20 36L20 37L18 37L18 38L20 38L20 39L17 39L17 40L21 40L21 39L22 39L22 41L19 41L19 42L18 42L18 43L17 43L17 44L18 44L18 45L15 45L15 46L14 46L14 47L15 47L15 46L17 46L17 47L16 47L16 48L19 48L19 49L14 49L14 48L13 48L13 47L12 47L12 49L14 49L14 50L12 50L12 51L14 51L14 52L15 52L15 51L14 51L14 50L16 50L16 51L17 51L17 52L18 52L18 51L19 51L19 53L21 53L21 54L22 54L22 53L23 53L23 54L24 54L24 53L23 53L23 52L24 52L24 51L25 51L25 53L26 53L26 51L25 51L25 50L26 50L26 48L25 48L25 50L23 50L23 49L24 49L24 47L26 47L26 46L27 46L27 48L29 48L29 47L30 47L30 48L32 48L32 51L31 51L31 52L32 52L32 51L33 51L33 52L34 52L34 50L36 50L36 49L35 49L35 48L37 48L37 49L38 49L38 48L39 48L39 47L37 47L37 46L40 46L40 47L41 47L41 46L42 46L42 47L45 47L45 46L42 46L42 45L43 45L43 44L44 44L44 45L45 45L45 42L46 42L46 43L49 43L49 42L47 42L47 41L48 41L48 40L47 40L47 41L45 41L45 40L43 40L43 41L45 41L45 42L44 42L44 43L43 43L43 44L40 44L40 41L42 41L42 39L49 39L49 41L51 41L51 42L50 42L50 43L52 43L52 44L53 44L53 43L54 43L54 41L52 41L52 40L51 40L51 38L50 38L50 39L49 39L49 36L50 36L50 35L51 35L51 37L52 37L52 34L53 34L53 33L51 33L51 32L49 32L49 31L48 31L48 29L46 29L46 30L45 30L45 26L48 26L48 25L46 25L46 23L45 23L45 24L44 24L44 26L43 26L43 27L44 27L44 30L42 30L42 29L43 29L43 28L42 28L42 27L41 27L41 28L40 28L40 27L38 27L38 28L37 28L37 30L36 30L36 29L33 29L33 28L34 28L34 27L33 27L33 26L37 26L37 25L35 25L35 24L37 24L37 23L36 23L36 22L37 22L37 21L38 21L38 22L40 22L40 23L41 23L41 24L39 24L39 23L38 23L38 26L41 26L41 24L42 24L42 25L43 25L43 24L42 24L42 22L41 22L41 21L42 21L42 20L40 20L40 19L41 19L41 18L42 18L42 19L44 19L44 18L45 18L45 17L46 17L46 18L47 18L47 16L49 16L49 15L46 15L46 16L38 16L38 15L41 15L41 14L42 14L42 15L45 15L45 12L46 12L46 14L47 14L47 13L49 13L49 11L50 11L50 10L49 10L49 11L45 11L45 8L46 8L46 6L45 6L45 5L44 5L44 4L46 4L46 5L47 5L47 3L43 3L43 5L42 5L42 3L40 3L40 4L38 4L38 2L37 2L37 1L35 1L35 4L34 4L34 2L33 2L33 3L32 3L32 4L31 4L31 3L30 3L30 2L29 2L29 1L27 1L27 2L29 2L29 3L27 3L27 4L29 4L29 3L30 3L30 4L31 4L31 7L32 7L32 6L33 6L33 7L34 7L34 8L35 8L35 7L36 7L36 8L39 8L39 9L38 9L38 10L37 10L37 9L33 9L33 8L31 8L31 9L32 9L32 10L35 10L35 11L34 11L34 12L37 12L37 11L39 11L39 12L38 12L38 14L37 14L37 13L36 13L36 14L37 14L37 15L36 15L36 16L35 16L35 15L33 15L33 14L35 14L35 13L33 13L33 12L31 12L31 11L30 11L30 12L31 12L31 13L32 13L32 14L30 14L30 13L29 13L29 12L28 12L28 13L25 13L25 12L27 12L27 11L29 11L29 9L28 9L28 10L27 10L27 9L26 9L26 6L25 6L25 4L26 4L26 3L25 3L25 2L23 2L23 1ZM40 1L40 2L43 2L43 1ZM44 1L44 2L45 2L45 1ZM46 1L46 2L47 2L47 1ZM21 2L21 4L22 4L22 5L24 5L24 4L25 4L25 3L24 3L24 4L22 4L22 3L23 3L23 2ZM36 3L36 5L34 5L34 7L35 7L35 6L36 6L36 7L37 7L37 6L38 6L38 7L39 7L39 8L40 8L40 7L41 7L41 10L44 10L44 8L45 8L45 6L44 6L44 7L43 7L43 6L42 6L42 5L41 5L41 6L40 6L40 7L39 7L39 5L38 5L38 4L37 4L37 3ZM18 5L18 7L19 7L19 6L20 6L20 7L21 7L21 8L22 8L22 7L23 7L23 8L24 8L24 9L21 9L21 10L19 10L19 11L20 11L20 12L19 12L19 13L18 13L18 12L15 12L15 14L16 14L16 15L17 15L17 14L16 14L16 13L18 13L18 15L19 15L19 13L22 13L22 12L21 12L21 11L22 11L22 10L25 10L25 8L24 8L24 7L25 7L25 6L24 6L24 7L23 7L23 6L22 6L22 7L21 7L21 6L20 6L20 5ZM27 5L27 8L30 8L30 5ZM36 5L36 6L37 6L37 5ZM28 6L28 7L29 7L29 6ZM41 6L41 7L42 7L42 6ZM53 8L53 9L54 9L54 8ZM55 8L55 9L56 9L56 8ZM6 9L6 10L7 10L7 9ZM11 9L11 10L12 10L12 9ZM26 10L26 11L27 11L27 10ZM13 11L13 12L14 12L14 11ZM23 11L23 12L25 12L25 11ZM40 11L40 12L41 12L41 11ZM42 11L42 14L44 14L44 12L43 12L43 11ZM6 13L6 14L8 14L8 13ZM11 13L11 14L10 14L10 16L9 16L9 17L10 17L10 16L11 16L11 17L12 17L12 16L13 16L13 15L14 15L14 16L15 16L15 17L17 17L17 16L15 16L15 15L14 15L14 13ZM28 13L28 14L27 14L27 15L29 15L29 13ZM40 13L40 14L41 14L41 13ZM55 13L55 14L56 14L56 13ZM0 14L0 15L1 15L1 14ZM11 14L11 16L12 16L12 14ZM21 14L21 16L22 16L22 14ZM30 15L30 16L31 16L31 17L29 17L29 18L31 18L31 17L32 17L32 18L34 18L34 19L38 19L38 20L39 20L39 21L40 21L40 20L39 20L39 19L40 19L40 18L37 18L37 17L38 17L38 16L36 16L36 17L35 17L35 18L34 18L34 17L32 17L32 16L33 16L33 15L32 15L32 16L31 16L31 15ZM6 16L6 17L7 17L7 16ZM18 16L18 17L19 17L19 18L20 18L20 17L19 17L19 16ZM26 16L26 18L27 18L27 20L29 20L29 19L28 19L28 18L27 18L27 17L28 17L28 16ZM21 17L21 18L22 18L22 17ZM42 17L42 18L43 18L43 17ZM51 17L51 19L52 19L52 20L55 20L55 19L56 19L56 20L57 20L57 19L56 19L56 18L57 18L57 17L56 17L56 18L53 18L53 19L52 19L52 17ZM10 18L10 19L11 19L11 20L10 20L10 21L11 21L11 20L12 20L12 18ZM8 19L8 20L9 20L9 19ZM30 19L30 20L31 20L31 21L30 21L30 22L29 22L29 23L28 23L28 22L27 22L27 23L28 23L28 24L27 24L27 25L26 25L26 24L25 24L25 25L24 25L24 24L23 24L23 25L24 25L24 26L22 26L22 25L21 25L21 26L22 26L22 27L21 27L21 28L22 28L22 29L21 29L21 31L22 31L22 32L23 32L23 34L22 34L22 33L21 33L21 35L23 35L23 36L24 36L24 37L21 37L21 38L24 38L24 37L26 37L26 38L25 38L25 41L22 41L22 42L19 42L19 44L20 44L20 45L18 45L18 47L20 47L20 45L22 45L22 44L20 44L20 43L22 43L22 42L26 42L26 43L27 43L27 42L26 42L26 41L29 41L29 42L28 42L28 43L29 43L29 44L27 44L27 45L29 45L29 46L30 46L30 47L31 47L31 46L32 46L32 44L34 44L34 43L35 43L35 42L34 42L34 41L33 41L33 42L34 42L34 43L31 43L31 42L32 42L32 41L31 41L31 40L36 40L36 42L38 42L38 43L37 43L37 44L35 44L35 45L38 45L38 43L39 43L39 42L38 42L38 39L39 39L39 40L41 40L41 39L39 39L39 38L40 38L40 36L41 36L41 35L40 35L40 34L43 34L43 32L45 32L45 30L44 30L44 31L42 31L42 30L41 30L41 29L39 29L39 28L38 28L38 29L39 29L39 30L37 30L37 32L36 32L36 30L33 30L33 29L32 29L32 28L33 28L33 27L31 27L31 25L32 25L32 24L31 24L31 25L28 25L28 24L29 24L29 23L30 23L30 22L31 22L31 23L34 23L34 24L33 24L33 25L34 25L34 24L35 24L35 22L34 22L34 21L32 21L32 20L33 20L33 19ZM5 20L5 21L4 21L4 22L6 22L6 21L7 21L7 20ZM21 20L21 21L22 21L22 20ZM36 20L36 21L37 21L37 20ZM19 22L19 23L20 23L20 22ZM55 23L55 24L54 24L54 25L53 25L53 24L52 24L52 26L53 26L53 27L55 27L55 26L56 26L56 25L55 25L55 24L56 24L56 23ZM6 24L6 25L8 25L8 24ZM2 25L2 27L3 27L3 25ZM25 25L25 26L26 26L26 25ZM54 25L54 26L55 26L55 25ZM17 26L17 27L18 27L18 26ZM5 27L5 30L8 30L8 27ZM25 27L25 28L24 28L24 29L22 29L22 30L24 30L24 29L25 29L25 30L26 30L26 27ZM27 27L27 30L30 30L30 27ZM46 27L46 28L48 28L48 27ZM49 27L49 30L52 30L52 27ZM1 28L1 29L3 29L3 30L1 30L1 31L3 31L3 32L5 32L5 31L4 31L4 28ZM6 28L6 29L7 29L7 28ZM17 28L17 29L18 29L18 28ZM28 28L28 29L29 29L29 28ZM50 28L50 29L51 29L51 28ZM31 29L31 31L25 31L25 34L24 34L24 36L26 36L26 35L27 35L27 36L28 36L28 37L27 37L27 38L28 38L28 37L29 37L29 34L31 34L31 35L30 35L30 38L31 38L31 39L29 39L29 41L30 41L30 40L31 40L31 39L33 39L33 38L34 38L34 39L35 39L35 37L36 37L36 38L37 38L37 37L36 37L36 36L40 36L40 35L38 35L38 34L40 34L40 33L41 33L41 32L40 32L40 31L41 31L41 30L39 30L39 31L38 31L38 34L37 34L37 35L35 35L35 37L34 37L34 36L33 36L33 35L34 35L34 34L35 34L35 33L36 33L36 32L35 32L35 31L34 31L34 32L31 32L31 31L32 31L32 29ZM46 30L46 31L47 31L47 32L46 32L46 33L45 33L45 34L46 34L46 35L47 35L47 36L49 36L49 35L50 35L50 34L51 34L51 33L50 33L50 34L49 34L49 35L48 35L48 33L47 33L47 32L48 32L48 31L47 31L47 30ZM6 31L6 32L8 32L8 31ZM23 31L23 32L24 32L24 31ZM52 31L52 32L53 32L53 31ZM16 32L16 33L17 33L17 32ZM27 32L27 33L26 33L26 34L25 34L25 35L26 35L26 34L27 34L27 33L29 33L29 32ZM30 32L30 33L31 33L31 34L34 34L34 33L31 33L31 32ZM39 32L39 33L40 33L40 32ZM46 33L46 34L47 34L47 33ZM56 33L56 34L57 34L57 33ZM13 34L13 35L14 35L14 34ZM31 35L31 38L32 38L32 35ZM42 35L42 36L43 36L43 37L41 37L41 38L43 38L43 37L44 37L44 38L45 38L45 37L44 37L44 35ZM4 36L4 37L5 37L5 36ZM14 36L14 37L15 37L15 38L16 38L16 37L15 37L15 36ZM6 37L6 38L7 38L7 39L5 39L5 40L4 40L4 42L5 42L5 41L6 41L6 42L7 42L7 41L6 41L6 40L8 40L8 38L7 38L7 37ZM38 37L38 38L39 38L39 37ZM47 37L47 38L48 38L48 37ZM12 39L12 40L13 40L13 39ZM23 39L23 40L24 40L24 39ZM26 39L26 40L28 40L28 39ZM36 39L36 40L37 40L37 39ZM2 40L2 41L3 41L3 40ZM2 42L2 43L1 43L1 47L2 47L2 46L3 46L3 45L4 45L4 44L2 44L2 43L3 43L3 42ZM29 42L29 43L30 43L30 44L29 44L29 45L31 45L31 43L30 43L30 42ZM41 42L41 43L42 43L42 42ZM11 43L11 44L12 44L12 43ZM23 43L23 44L24 44L24 43ZM25 44L25 45L23 45L23 47L24 47L24 46L25 46L25 45L26 45L26 44ZM39 44L39 45L40 45L40 46L41 46L41 45L40 45L40 44ZM52 45L52 47L51 47L51 48L53 48L53 46L54 46L54 45ZM21 46L21 47L22 47L22 46ZM33 46L33 47L32 47L32 48L33 48L33 50L34 50L34 47L36 47L36 46ZM6 48L6 49L7 49L7 48ZM19 49L19 51L21 51L21 53L22 53L22 52L23 52L23 51L22 51L22 49L21 49L21 50L20 50L20 49ZM27 49L27 52L30 52L30 49ZM49 49L49 52L52 52L52 49ZM28 50L28 51L29 51L29 50ZM37 50L37 51L36 51L36 52L38 52L38 54L39 54L39 52L40 52L40 51L39 51L39 52L38 52L38 50ZM50 50L50 51L51 51L51 50ZM56 51L56 52L57 52L57 51ZM9 52L9 55L10 55L10 52ZM30 53L30 54L31 54L31 53ZM19 54L19 55L20 55L20 54ZM25 55L25 56L26 56L26 55ZM51 55L51 56L50 56L50 57L52 57L52 56L53 56L53 57L54 57L54 56L55 56L55 57L56 57L56 56L55 56L55 55L54 55L54 56L53 56L53 55ZM41 56L41 57L42 57L42 56ZM43 56L43 57L44 57L44 56ZM0 0L0 7L7 7L7 0ZM1 1L1 6L6 6L6 1ZM2 2L2 5L5 5L5 2ZM50 0L50 7L57 7L57 0ZM51 1L51 6L56 6L56 1ZM52 2L52 5L55 5L55 2ZM0 50L0 57L7 57L7 50ZM1 51L1 56L6 56L6 51ZM2 52L2 55L5 55L5 52Z" fill="#000000"/></g></g></svg>
