<?xml version="1.0" encoding="UTF-8"?>
<svg xmlns="http://www.w3.org/2000/svg" version="1.1" width="300" height="300" viewBox="0 0 300 300"><rect x="0" y="0" width="300" height="300" fill="#ffffff"/><g transform="scale(4.918)"><g transform="translate(2,2)"><path fill-rule="evenodd" d="M9 0L9 1L8 1L8 2L9 2L9 1L11 1L11 2L10 2L10 3L8 3L8 4L11 4L11 5L12 5L12 8L11 8L11 6L10 6L10 5L8 5L8 7L9 7L9 8L6 8L6 9L5 9L5 8L0 8L0 9L3 9L3 10L2 10L2 11L4 11L4 10L6 10L6 11L5 11L5 12L6 12L6 13L9 13L9 12L10 12L10 11L11 11L11 13L10 13L10 15L8 15L8 16L6 16L6 17L5 17L5 16L4 16L4 17L5 17L5 18L6 18L6 19L7 19L7 20L6 20L6 21L3 21L3 20L5 20L5 19L3 19L3 18L1 18L1 17L0 17L0 18L1 18L1 21L0 21L0 22L1 22L1 23L0 23L0 24L1 24L1 26L0 26L0 27L2 27L2 28L3 28L3 27L4 27L4 29L2 29L2 30L1 30L1 29L0 29L0 33L2 33L2 34L0 34L0 37L2 37L2 38L3 38L3 39L0 39L0 40L1 40L1 41L0 41L0 42L1 42L1 45L0 45L0 48L5 48L5 47L7 47L7 48L6 48L6 49L7 49L7 48L9 48L9 49L8 49L8 51L9 51L9 49L10 49L10 48L13 48L13 47L16 47L16 48L14 48L14 49L12 49L12 50L13 50L13 51L15 51L15 53L16 53L16 54L14 54L14 52L12 52L12 54L11 54L11 55L12 55L12 54L13 54L13 56L12 56L12 57L14 57L14 56L15 56L15 55L16 55L16 57L17 57L17 55L18 55L18 57L19 57L19 55L20 55L20 54L17 54L17 53L20 53L20 52L18 52L18 51L22 51L22 52L21 52L21 53L22 53L22 54L24 54L24 53L26 53L26 56L28 56L28 55L27 55L27 53L28 53L28 54L30 54L30 53L31 53L31 55L33 55L33 54L34 54L34 56L30 56L30 55L29 55L29 56L30 56L30 57L38 57L38 56L39 56L39 55L40 55L40 56L41 56L41 57L42 57L42 56L41 56L41 55L42 55L42 54L43 54L43 53L44 53L44 54L45 54L45 55L44 55L44 56L43 56L43 57L44 57L44 56L45 56L45 57L46 57L46 56L45 56L45 55L47 55L47 54L48 54L48 55L49 55L49 57L50 57L50 55L49 55L49 54L50 54L50 53L51 53L51 54L53 54L53 55L51 55L51 57L52 57L52 56L55 56L55 57L56 57L56 56L55 56L55 55L54 55L54 53L56 53L56 52L57 52L57 51L55 51L55 50L57 50L57 49L55 49L55 50L54 50L54 48L55 48L55 47L56 47L56 48L57 48L57 47L56 47L56 46L57 46L57 45L56 45L56 42L55 42L55 41L54 41L54 43L53 43L53 44L52 44L52 45L51 45L51 47L50 47L50 46L49 46L49 45L50 45L50 44L51 44L51 43L50 43L50 42L51 42L51 41L49 41L49 40L51 40L51 39L53 39L53 40L55 40L55 39L57 39L57 36L56 36L56 34L57 34L57 33L56 33L56 31L54 31L54 30L55 30L55 29L54 29L54 28L55 28L55 27L56 27L56 26L57 26L57 24L56 24L56 22L57 22L57 21L56 21L56 20L55 20L55 19L56 19L56 18L57 18L57 17L56 17L56 18L55 18L55 19L54 19L54 20L55 20L55 21L53 21L53 23L51 23L51 22L50 22L50 19L51 19L51 20L52 20L52 19L53 19L53 17L54 17L54 16L55 16L55 14L57 14L57 13L53 13L53 15L52 15L52 16L53 16L53 17L52 17L52 18L50 18L50 17L47 17L47 18L45 18L45 17L46 17L46 16L45 16L45 15L49 15L49 16L50 16L50 15L49 15L49 14L50 14L50 13L51 13L51 14L52 14L52 13L51 13L51 12L49 12L49 11L52 11L52 12L53 12L53 11L54 11L54 12L57 12L57 11L56 11L56 10L57 10L57 9L56 9L56 8L55 8L55 11L54 11L54 10L53 10L53 9L54 9L54 8L53 8L53 9L52 9L52 8L51 8L51 10L49 10L49 9L50 9L50 8L49 8L49 6L48 6L48 7L47 7L47 5L48 5L48 0L44 0L44 1L43 1L43 0L41 0L41 1L43 1L43 2L42 2L42 3L47 3L47 5L45 5L45 4L44 4L44 5L45 5L45 6L44 6L44 7L43 7L43 4L40 4L40 3L41 3L41 2L39 2L39 1L37 1L37 0L35 0L35 1L34 1L34 0L33 0L33 1L32 1L32 2L31 2L31 4L28 4L28 3L30 3L30 2L29 2L29 1L31 1L31 0L29 0L29 1L25 1L25 0L24 0L24 2L23 2L23 4L19 4L19 3L17 3L17 6L16 6L16 7L15 7L15 5L16 5L16 4L14 4L14 1L16 1L16 0L13 0L13 1L11 1L11 0ZM21 0L21 1L20 1L20 3L22 3L22 2L21 2L21 1L23 1L23 0ZM18 1L18 2L19 2L19 1ZM33 1L33 2L34 2L34 1ZM35 1L35 3L32 3L32 4L31 4L31 7L32 7L32 8L31 8L31 9L32 9L32 10L30 10L30 12L28 12L28 13L27 13L27 14L26 14L26 13L25 13L25 12L27 12L27 11L26 11L26 10L27 10L27 9L25 9L25 12L23 12L23 13L22 13L22 12L21 12L21 11L22 11L22 10L23 10L23 8L24 8L24 6L23 6L23 7L22 7L22 6L21 6L21 7L22 7L22 8L21 8L21 9L20 9L20 8L19 8L19 7L20 7L20 5L19 5L19 4L18 4L18 6L17 6L17 7L16 7L16 9L15 9L15 8L14 8L14 5L13 5L13 4L12 4L12 5L13 5L13 8L12 8L12 9L13 9L13 10L11 10L11 8L10 8L10 10L11 10L11 11L13 11L13 12L14 12L14 11L13 11L13 10L14 10L14 9L15 9L15 10L17 10L17 11L16 11L16 12L15 12L15 13L11 13L11 15L12 15L12 16L11 16L11 17L12 17L12 22L11 22L11 20L9 20L9 19L11 19L11 18L10 18L10 16L8 16L8 17L6 17L6 18L9 18L9 19L8 19L8 20L7 20L7 21L6 21L6 22L9 22L9 21L10 21L10 22L11 22L11 23L10 23L10 24L12 24L12 25L14 25L14 26L15 26L15 27L13 27L13 26L11 26L11 25L10 25L10 26L11 26L11 27L12 27L12 28L10 28L10 29L9 29L9 30L10 30L10 31L9 31L9 32L11 32L11 30L12 30L12 33L8 33L8 31L6 31L6 32L7 32L7 33L5 33L5 31L4 31L4 30L3 30L3 31L2 31L2 33L3 33L3 32L4 32L4 34L5 34L5 35L4 35L4 36L3 36L3 35L1 35L1 36L3 36L3 37L4 37L4 38L5 38L5 37L6 37L6 38L7 38L7 39L4 39L4 40L5 40L5 41L3 41L3 42L2 42L2 45L1 45L1 47L2 47L2 45L3 45L3 44L4 44L4 46L3 46L3 47L5 47L5 44L4 44L4 43L5 43L5 41L6 41L6 42L9 42L9 44L8 44L8 43L6 43L6 44L7 44L7 45L6 45L6 46L7 46L7 45L10 45L10 43L11 43L11 44L12 44L12 45L11 45L11 46L12 46L12 47L13 47L13 46L14 46L14 43L15 43L15 44L17 44L17 45L15 45L15 46L17 46L17 47L18 47L18 46L17 46L17 45L18 45L18 44L17 44L17 43L18 43L18 41L17 41L17 40L18 40L18 38L19 38L19 39L20 39L20 38L19 38L19 37L21 37L21 38L22 38L22 37L23 37L23 38L24 38L24 37L23 37L23 35L25 35L25 36L26 36L26 37L25 37L25 38L27 38L27 39L25 39L25 42L24 42L24 43L23 43L23 44L24 44L24 45L22 45L22 44L21 44L21 43L22 43L22 42L23 42L23 41L24 41L24 39L21 39L21 41L20 41L20 40L19 40L19 41L20 41L20 43L19 43L19 46L21 46L21 45L22 45L22 47L20 47L20 48L19 48L19 49L18 49L18 48L17 48L17 49L14 49L14 50L15 50L15 51L17 51L17 49L18 49L18 50L19 50L19 49L20 49L20 50L22 50L22 51L23 51L23 50L24 50L24 51L25 51L25 52L26 52L26 51L25 51L25 50L26 50L26 47L29 47L29 48L30 48L30 47L29 47L29 45L30 45L30 44L32 44L32 46L31 46L31 47L33 47L33 48L31 48L31 50L32 50L32 51L31 51L31 52L32 52L32 54L33 54L33 53L34 53L34 54L35 54L35 53L34 53L34 52L36 52L36 50L40 50L40 51L39 51L39 52L37 52L37 53L36 53L36 54L37 54L37 55L36 55L36 56L38 56L38 54L39 54L39 52L40 52L40 55L41 55L41 52L40 52L40 51L43 51L43 50L44 50L44 53L45 53L45 54L47 54L47 53L48 53L48 54L49 54L49 53L48 53L48 52L47 52L47 51L48 51L48 48L50 48L50 47L49 47L49 46L47 46L47 45L48 45L48 44L47 44L47 45L46 45L46 46L47 46L47 47L46 47L46 48L44 48L44 47L45 47L45 46L44 46L44 45L45 45L45 44L44 44L44 45L43 45L43 44L40 44L40 43L42 43L42 42L40 42L40 41L42 41L42 38L41 38L41 36L40 36L40 35L41 35L41 34L42 34L42 35L44 35L44 37L43 37L43 36L42 36L42 37L43 37L43 40L44 40L44 43L45 43L45 42L46 42L46 43L49 43L49 42L48 42L48 40L49 40L49 39L48 39L48 38L50 38L50 39L51 39L51 38L53 38L53 39L54 39L54 38L53 38L53 37L54 37L54 36L52 36L52 34L53 34L53 35L55 35L55 34L56 34L56 33L55 33L55 32L54 32L54 31L52 31L52 32L54 32L54 33L50 33L50 32L49 32L49 31L48 31L48 28L47 28L47 27L46 27L46 26L47 26L47 25L49 25L49 26L53 26L53 27L55 27L55 26L56 26L56 25L55 25L55 26L54 26L54 25L53 25L53 24L50 24L50 22L48 22L48 24L47 24L47 23L46 23L46 22L47 22L47 21L48 21L48 19L49 19L49 18L48 18L48 19L45 19L45 18L44 18L44 17L45 17L45 16L38 16L38 15L36 15L36 16L35 16L35 15L33 15L33 14L40 14L40 15L41 15L41 14L42 14L42 15L43 15L43 14L42 14L42 10L41 10L41 12L38 12L38 13L33 13L33 12L32 12L32 11L33 11L33 9L34 9L34 12L36 12L36 10L37 10L37 11L39 11L39 10L40 10L40 9L42 9L42 8L43 8L43 11L45 11L45 12L43 12L43 13L44 13L44 14L45 14L45 12L46 12L46 14L47 14L47 13L49 13L49 12L48 12L48 11L49 11L49 10L47 10L47 9L49 9L49 8L47 8L47 7L46 7L46 6L45 6L45 8L43 8L43 7L42 7L42 6L41 6L41 5L40 5L40 6L39 6L39 3L38 3L38 2L36 2L36 1ZM44 1L44 2L45 2L45 1ZM46 1L46 2L47 2L47 1ZM12 2L12 3L13 3L13 2ZM24 2L24 3L26 3L26 4L25 4L25 8L26 8L26 4L27 4L27 3L28 3L28 2ZM36 3L36 5L33 5L33 6L32 6L32 7L33 7L33 6L34 6L34 8L35 8L35 9L37 9L37 10L38 10L38 9L37 9L37 8L38 8L38 7L39 7L39 8L40 8L40 7L41 7L41 6L40 6L40 7L39 7L39 6L38 6L38 7L37 7L37 6L36 6L36 5L38 5L38 4L37 4L37 3ZM23 4L23 5L24 5L24 4ZM27 5L27 8L30 8L30 5ZM9 6L9 7L10 7L10 6ZM18 6L18 7L19 7L19 6ZM28 6L28 7L29 7L29 6ZM35 6L35 7L36 7L36 8L37 8L37 7L36 7L36 6ZM13 8L13 9L14 9L14 8ZM17 8L17 9L19 9L19 10L18 10L18 11L17 11L17 12L16 12L16 13L17 13L17 14L18 14L18 15L19 15L19 16L15 16L15 15L16 15L16 14L13 14L13 16L15 16L15 17L13 17L13 18L15 18L15 19L16 19L16 18L15 18L15 17L21 17L21 18L20 18L20 19L21 19L21 21L22 21L22 22L21 22L21 23L22 23L22 22L24 22L24 21L25 21L25 22L26 22L26 23L25 23L25 24L24 24L24 23L23 23L23 24L24 24L24 25L21 25L21 26L20 26L20 24L19 24L19 23L20 23L20 22L19 22L19 23L17 23L17 21L20 21L20 20L18 20L18 19L19 19L19 18L18 18L18 19L17 19L17 21L16 21L16 20L15 20L15 21L16 21L16 22L15 22L15 23L16 23L16 24L18 24L18 25L17 25L17 26L16 26L16 27L15 27L15 28L16 28L16 29L18 29L18 31L19 31L19 29L18 29L18 28L16 28L16 27L18 27L18 25L19 25L19 28L20 28L20 29L22 29L22 28L20 28L20 27L22 27L22 26L25 26L25 27L24 27L24 28L23 28L23 29L24 29L24 30L20 30L20 31L21 31L21 32L20 32L20 33L21 33L21 35L20 35L20 36L21 36L21 37L22 37L22 34L23 34L23 33L21 33L21 32L22 32L22 31L27 31L27 33L29 33L29 34L30 34L30 35L29 35L29 39L31 39L31 40L29 40L29 41L31 41L31 42L30 42L30 43L29 43L29 44L28 44L28 43L26 43L26 44L25 44L25 43L24 43L24 44L25 44L25 45L24 45L24 46L23 46L23 47L24 47L24 48L23 48L23 49L22 49L22 50L23 50L23 49L24 49L24 50L25 50L25 49L24 49L24 48L25 48L25 47L26 47L26 46L25 46L25 45L26 45L26 44L28 44L28 45L27 45L27 46L28 46L28 45L29 45L29 44L30 44L30 43L31 43L31 42L32 42L32 41L31 41L31 40L32 40L32 39L31 39L31 38L32 38L32 35L33 35L33 36L35 36L35 34L32 34L32 32L33 32L33 33L34 33L34 31L35 31L35 32L36 32L36 33L37 33L37 34L36 34L36 35L37 35L37 34L38 34L38 37L37 37L37 36L36 36L36 37L35 37L35 40L36 40L36 41L35 41L35 42L36 42L36 43L38 43L38 44L39 44L39 42L36 42L36 41L39 41L39 40L40 40L40 39L39 39L39 40L38 40L38 37L39 37L39 38L40 38L40 36L39 36L39 34L41 34L41 33L39 33L39 34L38 34L38 31L39 31L39 32L42 32L42 34L46 34L46 35L47 35L47 36L48 36L48 35L50 35L50 33L49 33L49 34L48 34L48 33L47 33L47 34L46 34L46 33L44 33L44 32L46 32L46 31L47 31L47 32L48 32L48 31L47 31L47 30L46 30L46 29L47 29L47 28L46 28L46 27L45 27L45 30L46 30L46 31L44 31L44 32L43 32L43 31L42 31L42 30L44 30L44 28L43 28L43 27L42 27L42 26L45 26L45 25L44 25L44 24L45 24L45 21L44 21L44 23L43 23L43 20L45 20L45 19L44 19L44 18L43 18L43 17L42 17L42 18L41 18L41 19L40 19L40 20L39 20L39 18L40 18L40 17L39 17L39 18L38 18L38 16L36 16L36 17L35 17L35 16L34 16L34 17L33 17L33 18L34 18L34 19L37 19L37 20L36 20L36 21L37 21L37 22L36 22L36 23L38 23L38 24L36 24L36 25L35 25L35 22L33 22L33 21L32 21L32 20L33 20L33 19L32 19L32 18L31 18L31 17L29 17L29 16L28 16L28 15L29 15L29 14L30 14L30 16L33 16L33 15L32 15L32 12L31 12L31 14L30 14L30 13L28 13L28 14L27 14L27 16L26 16L26 14L25 14L25 13L23 13L23 15L22 15L22 13L21 13L21 12L20 12L20 13L21 13L21 15L19 15L19 11L20 11L20 9L19 9L19 8ZM45 8L45 10L46 10L46 11L47 11L47 10L46 10L46 9L47 9L47 8ZM6 9L6 10L9 10L9 9ZM21 9L21 10L22 10L22 9ZM28 10L28 11L29 11L29 10ZM52 10L52 11L53 11L53 10ZM0 11L0 12L1 12L1 13L3 13L3 15L4 15L4 13L3 13L3 12L1 12L1 11ZM6 11L6 12L7 12L7 11ZM17 12L17 13L18 13L18 12ZM40 13L40 14L41 14L41 13ZM0 14L0 16L2 16L2 14ZM5 14L5 15L7 15L7 14ZM24 14L24 15L25 15L25 14ZM53 15L53 16L54 16L54 15ZM56 15L56 16L57 16L57 15ZM21 16L21 17L23 17L23 18L21 18L21 19L23 19L23 20L22 20L22 21L24 21L24 19L26 19L26 20L27 20L27 24L25 24L25 26L26 26L26 25L27 25L27 26L28 26L28 25L31 25L31 26L32 26L32 25L31 25L31 24L34 24L34 23L31 23L31 22L30 22L30 21L29 21L29 19L31 19L31 18L29 18L29 19L28 19L28 18L27 18L27 17L28 17L28 16L27 16L27 17L26 17L26 16ZM24 17L24 18L26 18L26 17ZM34 17L34 18L35 18L35 17ZM36 17L36 18L37 18L37 19L38 19L38 18L37 18L37 17ZM42 18L42 19L41 19L41 20L40 20L40 21L39 21L39 20L38 20L38 22L40 22L40 23L41 23L41 24L38 24L38 26L39 26L39 28L38 28L38 27L37 27L37 26L36 26L36 28L38 28L38 29L36 29L36 30L35 30L35 29L33 29L33 28L34 28L34 27L35 27L35 26L34 26L34 25L33 25L33 26L34 26L34 27L33 27L33 28L32 28L32 27L31 27L31 28L32 28L32 29L31 29L31 30L32 30L32 31L30 31L30 32L29 32L29 31L28 31L28 32L29 32L29 33L30 33L30 32L32 32L32 31L33 31L33 30L35 30L35 31L36 31L36 32L37 32L37 31L36 31L36 30L39 30L39 31L41 31L41 30L42 30L42 29L43 29L43 28L42 28L42 27L41 27L41 26L40 26L40 25L43 25L43 24L42 24L42 23L41 23L41 20L43 20L43 18ZM2 19L2 20L3 20L3 19ZM13 19L13 20L14 20L14 19ZM46 20L46 21L47 21L47 20ZM2 21L2 22L3 22L3 21ZM13 21L13 22L12 22L12 24L13 24L13 22L14 22L14 21ZM28 21L28 22L29 22L29 23L28 23L28 24L27 24L27 25L28 25L28 24L29 24L29 23L30 23L30 22L29 22L29 21ZM2 23L2 24L3 24L3 26L4 26L4 25L6 25L6 26L9 26L9 25L8 25L8 24L7 24L7 23L6 23L6 24L5 24L5 23ZM6 24L6 25L7 25L7 24ZM14 24L14 25L15 25L15 24ZM46 24L46 25L47 25L47 24ZM49 24L49 25L50 25L50 24ZM5 27L5 30L8 30L8 27ZM25 27L25 28L24 28L24 29L25 29L25 30L26 30L26 27ZM27 27L27 30L30 30L30 27ZM40 27L40 28L39 28L39 29L40 29L40 28L41 28L41 27ZM49 27L49 30L52 30L52 27ZM6 28L6 29L7 29L7 28ZM28 28L28 29L29 29L29 28ZM50 28L50 29L51 29L51 28ZM56 28L56 30L57 30L57 28ZM12 29L12 30L15 30L15 29ZM14 31L14 32L16 32L16 33L13 33L13 34L12 34L12 37L11 37L11 35L9 35L9 36L8 36L8 33L7 33L7 34L6 34L6 35L7 35L7 36L6 36L6 37L7 37L7 36L8 36L8 37L9 37L9 38L10 38L10 39L11 39L11 40L6 40L6 41L9 41L9 42L10 42L10 41L12 41L12 39L11 39L11 38L13 38L13 39L14 39L14 40L13 40L13 42L12 42L12 44L13 44L13 43L14 43L14 40L15 40L15 41L16 41L16 39L14 39L14 38L16 38L16 37L14 37L14 38L13 38L13 36L14 36L14 35L15 35L15 34L16 34L16 33L17 33L17 34L18 34L18 33L19 33L19 32L18 32L18 33L17 33L17 32L16 32L16 31ZM25 32L25 33L24 33L24 34L25 34L25 35L26 35L26 36L27 36L27 35L26 35L26 34L25 34L25 33L26 33L26 32ZM54 33L54 34L55 34L55 33ZM31 34L31 35L32 35L32 34ZM17 35L17 37L19 37L19 35ZM4 36L4 37L5 37L5 36ZM9 36L9 37L10 37L10 38L11 38L11 37L10 37L10 36ZM30 36L30 38L31 38L31 36ZM45 36L45 37L44 37L44 38L45 38L45 39L44 39L44 40L45 40L45 41L46 41L46 40L47 40L47 38L45 38L45 37L46 37L46 36ZM50 36L50 38L51 38L51 37L52 37L52 36ZM55 36L55 38L56 38L56 36ZM27 37L27 38L28 38L28 37ZM33 38L33 40L34 40L34 38ZM27 39L27 40L28 40L28 39ZM36 39L36 40L37 40L37 39ZM21 41L21 42L22 42L22 41ZM26 41L26 42L27 42L27 41ZM33 41L33 42L34 42L34 41ZM3 42L3 43L4 43L4 42ZM15 42L15 43L16 43L16 42ZM33 43L33 44L34 44L34 43ZM20 44L20 45L21 45L21 44ZM35 44L35 46L33 46L33 47L36 47L36 45L37 45L37 44ZM54 44L54 45L52 45L52 47L51 47L51 48L54 48L54 47L53 47L53 46L54 46L54 45L55 45L55 46L56 46L56 45L55 45L55 44ZM12 45L12 46L13 46L13 45ZM39 45L39 46L37 46L37 48L35 48L35 49L37 49L37 48L38 48L38 47L39 47L39 48L41 48L41 47L42 47L42 46L43 46L43 45L42 45L42 46L40 46L40 45ZM24 46L24 47L25 47L25 46ZM20 48L20 49L21 49L21 48ZM42 48L42 49L41 49L41 50L43 50L43 49L44 49L44 50L46 50L46 51L47 51L47 50L46 50L46 49L44 49L44 48ZM27 49L27 52L30 52L30 49ZM32 49L32 50L33 50L33 51L32 51L32 52L33 52L33 51L35 51L35 50L33 50L33 49ZM49 49L49 52L52 52L52 49ZM28 50L28 51L29 51L29 50ZM50 50L50 51L51 51L51 50ZM10 51L10 52L8 52L8 57L10 57L10 56L9 56L9 55L10 55L10 54L9 54L9 53L10 53L10 52L11 52L11 51ZM16 52L16 53L17 53L17 52ZM22 52L22 53L24 53L24 52ZM42 52L42 53L43 53L43 52ZM53 52L53 53L54 53L54 52ZM23 55L23 57L24 57L24 55ZM0 0L0 7L7 7L7 0ZM1 1L1 6L6 6L6 1ZM2 2L2 5L5 5L5 2ZM50 0L50 7L57 7L57 0ZM51 1L51 6L56 6L56 1ZM52 2L52 5L55 5L55 2ZM0 50L0 57L7 57L7 50ZM1 51L1 56L6 56L6 51ZM2 52L2 55L5 55L5 52Z" fill="#000000"/></g></g></svg>
