<?xml version="1.0" encoding="UTF-8"?>
<svg xmlns="http://www.w3.org/2000/svg" version="1.1" width="300" height="300" viewBox="0 0 300 300"><rect x="0" y="0" width="300" height="300" fill="#ffffff"/><g transform="scale(4.918)"><g transform="translate(2,2)"><path fill-rule="evenodd" d="M10 0L10 2L9 2L9 1L8 1L8 2L9 2L9 3L8 3L8 4L9 4L9 3L10 3L10 4L12 4L12 3L13 3L13 4L14 4L14 7L15 7L15 9L14 9L14 8L13 8L13 9L12 9L12 7L13 7L13 6L12 6L12 7L11 7L11 5L10 5L10 7L9 7L9 5L8 5L8 7L9 7L9 8L6 8L6 9L9 9L9 10L8 10L8 11L10 11L10 12L6 12L6 11L7 11L7 10L6 10L6 11L5 11L5 12L6 12L6 13L7 13L7 14L5 14L5 13L3 13L3 14L2 14L2 13L1 13L1 10L0 10L0 18L1 18L1 19L2 19L2 21L3 21L3 22L1 22L1 21L0 21L0 22L1 22L1 23L0 23L0 25L2 25L2 24L4 24L4 26L2 26L2 27L4 27L4 28L2 28L2 29L0 29L0 30L2 30L2 29L3 29L3 30L4 30L4 31L2 31L2 32L4 32L4 34L3 34L3 33L2 33L2 34L3 34L3 35L1 35L1 34L0 34L0 36L2 36L2 37L1 37L1 38L4 38L4 40L5 40L5 41L2 41L2 40L3 40L3 39L0 39L0 41L1 41L1 42L0 42L0 43L1 43L1 42L3 42L3 43L2 43L2 44L0 44L0 45L3 45L3 44L4 44L4 42L5 42L5 43L7 43L7 42L6 42L6 41L7 41L7 40L6 40L6 39L7 39L7 38L6 38L6 37L7 37L7 36L8 36L8 37L9 37L9 38L8 38L8 39L9 39L9 40L13 40L13 39L14 39L14 38L16 38L16 37L13 37L13 35L12 35L12 34L14 34L14 33L15 33L15 36L16 36L16 35L18 35L18 36L17 36L17 37L19 37L19 38L17 38L17 40L16 40L16 39L15 39L15 41L14 41L14 42L15 42L15 43L17 43L17 44L14 44L14 46L13 46L13 45L12 45L12 47L10 47L10 48L6 48L6 49L8 49L8 51L9 51L9 52L8 52L8 57L11 57L11 56L12 56L12 57L13 57L13 56L14 56L14 57L15 57L15 55L16 55L16 57L19 57L19 55L20 55L20 54L18 54L18 55L17 55L17 53L16 53L16 52L17 52L17 51L21 51L21 53L22 53L22 54L21 54L21 56L20 56L20 57L21 57L21 56L22 56L22 55L23 55L23 57L24 57L24 55L23 55L23 54L24 54L24 53L25 53L25 55L26 55L26 56L25 56L25 57L26 57L26 56L28 56L28 55L27 55L27 53L28 53L28 54L30 54L30 53L31 53L31 56L30 56L30 55L29 55L29 56L30 56L30 57L31 57L31 56L35 56L35 57L37 57L37 56L38 56L38 55L40 55L40 56L41 56L41 57L42 57L42 56L45 56L45 57L48 57L48 55L49 55L49 56L50 56L50 55L51 55L51 57L52 57L52 56L55 56L55 57L56 57L56 56L55 56L55 53L56 53L56 52L55 52L55 51L56 51L56 50L57 50L57 48L56 48L56 46L57 46L57 45L56 45L56 42L55 42L55 39L57 39L57 37L54 37L54 36L55 36L55 34L57 34L57 33L56 33L56 32L57 32L57 31L56 31L56 30L57 30L57 27L56 27L56 26L57 26L57 25L54 25L54 26L55 26L55 27L53 27L53 25L52 25L52 24L57 24L57 23L56 23L56 22L57 22L57 21L56 21L56 20L57 20L57 19L55 19L55 18L57 18L57 15L56 15L56 14L57 14L57 13L56 13L56 12L55 12L55 11L56 11L56 10L57 10L57 9L56 9L56 8L55 8L55 11L54 11L54 10L53 10L53 11L52 11L52 12L53 12L53 11L54 11L54 12L55 12L55 13L53 13L53 15L52 15L52 16L50 16L50 15L51 15L51 14L52 14L52 13L51 13L51 12L50 12L50 13L51 13L51 14L49 14L49 13L47 13L47 14L46 14L46 12L45 12L45 11L47 11L47 10L45 10L45 9L44 9L44 7L45 7L45 6L46 6L46 8L47 8L47 9L48 9L48 12L49 12L49 11L51 11L51 10L49 10L49 9L50 9L50 8L49 8L49 6L48 6L48 7L47 7L47 5L48 5L48 0L42 0L42 1L41 1L41 0L40 0L40 1L41 1L41 2L39 2L39 1L33 1L33 2L30 2L30 1L32 1L32 0L30 0L30 1L29 1L29 2L27 2L27 1L28 1L28 0L27 0L27 1L25 1L25 0L23 0L23 4L22 4L22 3L21 3L21 4L19 4L19 3L18 3L18 4L17 4L17 5L18 5L18 7L17 7L17 6L16 6L16 7L15 7L15 5L16 5L16 4L14 4L14 3L16 3L16 2L19 2L19 1L20 1L20 2L22 2L22 0L21 0L21 1L20 1L20 0L19 0L19 1L15 1L15 0L14 0L14 1L15 1L15 2L11 2L11 1L13 1L13 0ZM24 1L24 2L25 2L25 3L26 3L26 4L25 4L25 8L24 8L24 6L23 6L23 5L24 5L24 4L23 4L23 5L22 5L22 4L21 4L21 5L22 5L22 6L21 6L21 7L22 7L22 8L19 8L19 9L15 9L15 10L17 10L17 11L18 11L18 10L19 10L19 11L22 11L22 9L23 9L23 11L24 11L24 9L25 9L25 12L23 12L23 13L22 13L22 12L21 12L21 13L20 13L20 12L19 12L19 13L20 13L20 15L19 15L19 14L17 14L17 13L18 13L18 12L17 12L17 13L16 13L16 12L15 12L15 13L13 13L13 14L12 14L12 12L14 12L14 11L13 11L13 10L10 10L10 11L11 11L11 13L9 13L9 14L12 14L12 15L13 15L13 16L14 16L14 18L13 18L13 17L12 17L12 16L11 16L11 17L12 17L12 18L11 18L11 19L9 19L9 18L10 18L10 17L9 17L9 16L10 16L10 15L9 15L9 16L8 16L8 14L7 14L7 15L5 15L5 14L4 14L4 16L3 16L3 15L2 15L2 19L3 19L3 20L4 20L4 19L5 19L5 18L7 18L7 19L6 19L6 20L5 20L5 21L6 21L6 22L4 22L4 24L7 24L7 25L6 25L6 26L7 26L7 25L9 25L9 26L10 26L10 25L11 25L11 23L12 23L12 26L11 26L11 28L9 28L9 31L4 31L4 32L5 32L5 33L6 33L6 34L5 34L5 36L7 36L7 35L6 35L6 34L8 34L8 35L9 35L9 34L10 34L10 32L9 32L9 31L10 31L10 30L11 30L11 29L12 29L12 30L15 30L15 28L16 28L16 27L15 27L15 26L18 26L18 27L17 27L17 28L18 28L18 29L16 29L16 31L13 31L13 32L12 32L12 33L11 33L11 34L12 34L12 33L13 33L13 32L15 32L15 33L16 33L16 34L17 34L17 33L16 33L16 31L18 31L18 29L19 29L19 30L23 30L23 31L19 31L19 33L18 33L18 34L19 34L19 37L23 37L23 38L24 38L24 37L23 37L23 36L24 36L24 35L25 35L25 34L26 34L26 32L27 32L27 31L25 31L25 30L26 30L26 27L24 27L24 26L23 26L23 25L24 25L24 24L25 24L25 26L26 26L26 25L27 25L27 26L28 26L28 25L29 25L29 24L30 24L30 23L31 23L31 22L30 22L30 21L29 21L29 20L30 20L30 19L31 19L31 18L32 18L32 19L33 19L33 20L32 20L32 21L33 21L33 22L35 22L35 23L36 23L36 24L37 24L37 26L36 26L36 27L35 27L35 28L37 28L37 29L36 29L36 30L35 30L35 29L33 29L33 28L34 28L34 26L35 26L35 24L34 24L34 26L32 26L32 25L33 25L33 24L32 24L32 25L31 25L31 28L32 28L32 29L31 29L31 31L28 31L28 32L29 32L29 33L27 33L27 35L26 35L26 36L27 36L27 37L28 37L28 38L27 38L27 39L25 39L25 40L24 40L24 39L22 39L22 38L21 38L21 39L22 39L22 40L21 40L21 41L20 41L20 43L19 43L19 45L20 45L20 46L19 46L19 47L18 47L18 46L17 46L17 45L18 45L18 44L17 44L17 45L16 45L16 46L17 46L17 47L16 47L16 48L17 48L17 47L18 47L18 48L19 48L19 49L16 49L16 51L17 51L17 50L21 50L21 51L23 51L23 52L22 52L22 53L24 53L24 51L25 51L25 53L26 53L26 51L25 51L25 50L23 50L23 48L25 48L25 49L26 49L26 48L27 48L27 47L28 47L28 48L30 48L30 47L29 47L29 46L31 46L31 47L32 47L32 46L35 46L35 47L33 47L33 48L31 48L31 49L33 49L33 50L31 50L31 52L32 52L32 54L33 54L33 55L34 55L34 54L35 54L35 56L36 56L36 54L37 54L37 53L36 53L36 54L35 54L35 52L36 52L36 51L33 51L33 50L36 50L36 48L38 48L38 49L37 49L37 50L39 50L39 52L38 52L38 51L37 51L37 52L38 52L38 54L39 54L39 52L40 52L40 55L45 55L45 56L47 56L47 54L49 54L49 55L50 55L50 54L51 54L51 55L53 55L53 54L54 54L54 53L55 53L55 52L54 52L54 53L53 53L53 54L51 54L51 53L48 53L48 52L47 52L47 51L48 51L48 48L50 48L50 47L51 47L51 48L53 48L53 49L55 49L55 50L56 50L56 48L53 48L53 47L55 47L55 46L56 46L56 45L55 45L55 44L54 44L54 45L50 45L50 44L47 44L47 45L46 45L46 46L47 46L47 47L45 47L45 44L44 44L44 43L46 43L46 42L48 42L48 43L49 43L49 41L51 41L51 42L50 42L50 43L51 43L51 42L53 42L53 43L52 43L52 44L53 44L53 43L54 43L54 41L51 41L51 40L53 40L53 38L54 38L54 37L53 37L53 36L52 36L52 34L53 34L53 35L54 35L54 34L53 34L53 33L51 33L51 34L50 34L50 32L49 32L49 31L48 31L48 29L46 29L46 30L42 30L42 29L43 29L43 28L44 28L44 29L45 29L45 27L46 27L46 28L47 28L47 27L46 27L46 26L48 26L48 25L49 25L49 26L52 26L52 25L49 25L49 24L48 24L48 25L46 25L46 26L45 26L45 27L44 27L44 25L45 25L45 23L44 23L44 21L45 21L45 22L46 22L46 24L47 24L47 21L46 21L46 20L47 20L47 19L46 19L46 20L40 20L40 19L41 19L41 18L42 18L42 19L45 19L45 18L47 18L47 17L49 17L49 18L51 18L51 17L49 17L49 15L46 15L46 16L47 16L47 17L45 17L45 16L43 16L43 17L45 17L45 18L42 18L42 17L41 17L41 16L42 16L42 15L45 15L45 14L42 14L42 11L43 11L43 10L44 10L44 11L45 11L45 10L44 10L44 9L43 9L43 8L38 8L38 6L37 6L37 5L40 5L40 6L39 6L39 7L40 7L40 6L41 6L41 7L42 7L42 6L43 6L43 7L44 7L44 6L45 6L45 5L44 5L44 4L46 4L46 5L47 5L47 3L42 3L42 4L43 4L43 5L41 5L41 3L40 3L40 4L39 4L39 2L38 2L38 3L37 3L37 2L35 2L35 3L32 3L32 4L31 4L31 9L32 9L32 10L33 10L33 11L31 11L31 10L30 10L30 12L28 12L28 13L25 13L25 12L27 12L27 11L26 11L26 10L28 10L28 11L29 11L29 10L28 10L28 9L25 9L25 8L26 8L26 4L30 4L30 3L27 3L27 2L25 2L25 1ZM42 1L42 2L47 2L47 1ZM10 2L10 3L11 3L11 2ZM36 3L36 5L35 5L35 6L34 6L34 5L33 5L33 6L32 6L32 7L33 7L33 8L34 8L34 9L33 9L33 10L34 10L34 11L33 11L33 13L32 13L32 12L31 12L31 14L30 14L30 13L28 13L28 14L27 14L27 16L26 16L26 14L25 14L25 13L23 13L23 14L22 14L22 13L21 13L21 14L22 14L22 15L20 15L20 17L21 17L21 19L18 19L18 20L17 20L17 18L16 18L16 17L19 17L19 15L18 15L18 16L16 16L16 15L17 15L17 14L15 14L15 21L16 21L16 22L15 22L15 23L14 23L14 24L15 24L15 25L18 25L18 26L20 26L20 25L21 25L21 27L22 27L22 25L21 25L21 24L24 24L24 23L23 23L23 22L24 22L24 21L25 21L25 22L26 22L26 23L25 23L25 24L29 24L29 23L30 23L30 22L29 22L29 23L28 23L28 22L27 22L27 20L26 20L26 19L27 19L27 18L28 18L28 20L29 20L29 18L31 18L31 17L29 17L29 16L28 16L28 15L29 15L29 14L30 14L30 16L33 16L33 17L32 17L32 18L34 18L34 20L35 20L35 18L34 18L34 17L36 17L36 18L37 18L37 20L36 20L36 21L37 21L37 22L36 22L36 23L37 23L37 22L38 22L38 23L40 23L40 24L41 24L41 25L40 25L40 26L37 26L37 28L38 28L38 27L39 27L39 30L36 30L36 31L35 31L35 30L32 30L32 32L30 32L30 33L29 33L29 34L30 34L30 35L29 35L29 39L31 39L31 38L32 38L32 35L33 35L33 36L35 36L35 34L36 34L36 35L37 35L37 36L36 36L36 37L35 37L35 39L36 39L36 40L35 40L35 44L36 44L36 45L37 45L37 46L36 46L36 47L35 47L35 48L36 48L36 47L37 47L37 46L38 46L38 45L37 45L37 44L36 44L36 43L38 43L38 41L39 41L39 43L41 43L41 44L43 44L43 45L42 45L42 46L40 46L40 45L39 45L39 47L40 47L40 48L39 48L39 49L40 49L40 48L41 48L41 49L42 49L42 50L41 50L41 51L40 51L40 52L43 52L43 53L41 53L41 54L43 54L43 53L44 53L44 54L45 54L45 53L44 53L44 51L42 51L42 50L43 50L43 49L42 49L42 48L45 48L45 50L46 50L46 51L47 51L47 50L46 50L46 49L47 49L47 48L45 48L45 47L42 47L42 46L43 46L43 45L44 45L44 44L43 44L43 43L44 43L44 42L43 42L43 41L44 41L44 40L43 40L43 41L39 41L39 40L40 40L40 39L39 39L39 38L40 38L40 36L41 36L41 35L42 35L42 36L43 36L43 37L41 37L41 38L43 38L43 37L44 37L44 38L45 38L45 41L47 41L47 40L46 40L46 38L45 38L45 37L44 37L44 34L45 34L45 36L47 36L47 35L48 35L48 33L47 33L47 34L45 34L45 33L42 33L42 34L41 34L41 33L39 33L39 34L36 34L36 33L37 33L37 32L36 32L36 31L39 31L39 32L46 32L46 31L47 31L47 32L48 32L48 31L47 31L47 30L46 30L46 31L42 31L42 30L40 30L40 28L41 28L41 27L40 27L40 26L43 26L43 25L44 25L44 23L43 23L43 24L41 24L41 23L42 23L42 22L43 22L43 21L42 21L42 22L41 22L41 21L40 21L40 20L38 20L38 19L40 19L40 18L37 18L37 16L34 16L34 15L35 15L35 14L33 14L33 13L38 13L38 12L39 12L39 11L42 11L42 10L43 10L43 9L42 9L42 10L41 10L41 9L39 9L39 11L38 11L38 9L37 9L37 8L36 8L36 7L37 7L37 6L36 6L36 5L37 5L37 3ZM18 4L18 5L19 5L19 7L20 7L20 5L19 5L19 4ZM27 5L27 8L30 8L30 5ZM22 6L22 7L23 7L23 6ZM28 6L28 7L29 7L29 6ZM33 6L33 7L34 7L34 8L35 8L35 7L36 7L36 6L35 6L35 7L34 7L34 6ZM16 7L16 8L17 8L17 7ZM0 8L0 9L2 9L2 10L3 10L3 11L2 11L2 12L3 12L3 11L4 11L4 10L5 10L5 8ZM9 8L9 9L10 9L10 8ZM23 8L23 9L24 9L24 8ZM48 8L48 9L49 9L49 8ZM51 8L51 9L52 9L52 8ZM53 8L53 9L54 9L54 8ZM3 9L3 10L4 10L4 9ZM19 9L19 10L20 10L20 9ZM34 9L34 10L35 10L35 11L34 11L34 12L36 12L36 11L37 11L37 9ZM43 12L43 13L45 13L45 12ZM40 13L40 16L39 16L39 17L40 17L40 16L41 16L41 15L42 15L42 14L41 14L41 13ZM55 13L55 14L54 14L54 15L53 15L53 16L52 16L52 17L53 17L53 18L54 18L54 17L55 17L55 16L56 16L56 15L55 15L55 14L56 14L56 13ZM23 14L23 15L24 15L24 14ZM32 14L32 15L33 15L33 14ZM37 14L37 15L39 15L39 14ZM54 15L54 16L53 16L53 17L54 17L54 16L55 16L55 15ZM5 16L5 17L7 17L7 18L8 18L8 17L7 17L7 16ZM21 16L21 17L22 17L22 19L21 19L21 20L20 20L20 21L17 21L17 20L16 20L16 21L17 21L17 23L19 23L19 25L20 25L20 24L21 24L21 22L22 22L22 21L24 21L24 20L25 20L25 21L26 21L26 20L25 20L25 19L26 19L26 18L27 18L27 17L28 17L28 16L27 16L27 17L26 17L26 16L25 16L25 17L26 17L26 18L24 18L24 20L23 20L23 16ZM3 17L3 18L4 18L4 17ZM7 19L7 20L6 20L6 21L7 21L7 22L6 22L6 23L7 23L7 22L8 22L8 24L9 24L9 25L10 25L10 24L9 24L9 23L10 23L10 22L11 22L11 21L12 21L12 23L13 23L13 22L14 22L14 21L13 21L13 20L14 20L14 19L13 19L13 20L11 20L11 21L10 21L10 20L8 20L8 19ZM50 19L50 22L49 22L49 23L50 23L50 24L52 24L52 23L53 23L53 22L54 22L54 23L55 23L55 22L54 22L54 21L55 21L55 20L54 20L54 21L53 21L53 20L52 20L52 21L51 21L51 19ZM21 20L21 21L22 21L22 20ZM37 20L37 21L38 21L38 22L39 22L39 21L38 21L38 20ZM19 22L19 23L20 23L20 22ZM40 22L40 23L41 23L41 22ZM50 22L50 23L51 23L51 22ZM1 23L1 24L2 24L2 23ZM15 23L15 24L16 24L16 23ZM38 24L38 25L39 25L39 24ZM13 25L13 26L12 26L12 27L13 27L13 28L12 28L12 29L13 29L13 28L15 28L15 27L13 27L13 26L14 26L14 25ZM0 27L0 28L1 28L1 27ZM5 27L5 30L8 30L8 27ZM27 27L27 30L30 30L30 27ZM42 27L42 28L43 28L43 27ZM49 27L49 30L52 30L52 27ZM6 28L6 29L7 29L7 28ZM19 28L19 29L22 29L22 28ZM28 28L28 29L29 29L29 28ZM50 28L50 29L51 29L51 28ZM54 28L54 29L55 29L55 30L56 30L56 29L55 29L55 28ZM23 29L23 30L25 30L25 29ZM39 30L39 31L40 31L40 30ZM0 31L0 32L1 32L1 31ZM24 31L24 33L23 33L23 34L22 34L22 33L21 33L21 32L20 32L20 33L21 33L21 34L20 34L20 35L21 35L21 36L22 36L22 35L23 35L23 34L25 34L25 31ZM33 31L33 32L32 32L32 33L31 33L31 35L32 35L32 34L33 34L33 35L34 35L34 34L35 34L35 33L36 33L36 32L35 32L35 31ZM52 31L52 32L54 32L54 33L55 33L55 32L54 32L54 31ZM6 32L6 33L8 33L8 32ZM33 33L33 34L34 34L34 33ZM40 34L40 35L38 35L38 38L39 38L39 36L40 36L40 35L41 35L41 34ZM42 34L42 35L43 35L43 34ZM50 35L50 37L47 37L47 39L50 39L50 37L52 37L52 36L51 36L51 35ZM56 35L56 36L57 36L57 35ZM9 36L9 37L10 37L10 39L11 39L11 38L12 38L12 36L11 36L11 37L10 37L10 36ZM30 36L30 38L31 38L31 36ZM4 37L4 38L5 38L5 39L6 39L6 38L5 38L5 37ZM25 37L25 38L26 38L26 37ZM19 38L19 39L20 39L20 38ZM33 38L33 39L32 39L32 40L33 40L33 39L34 39L34 38ZM51 38L51 39L52 39L52 38ZM27 39L27 41L26 41L26 42L27 42L27 41L29 41L29 43L31 43L31 44L34 44L34 43L33 43L33 42L32 42L32 41L31 41L31 40L28 40L28 39ZM38 39L38 40L39 40L39 39ZM23 40L23 41L21 41L21 42L22 42L22 43L21 43L21 44L20 44L20 45L21 45L21 46L20 46L20 47L19 47L19 48L20 48L20 49L21 49L21 48L20 48L20 47L21 47L21 46L22 46L22 45L23 45L23 47L25 47L25 45L26 45L26 44L27 44L27 45L29 45L29 44L28 44L28 43L26 43L26 44L25 44L25 45L23 45L23 43L25 43L25 41L24 41L24 40ZM10 41L10 42L9 42L9 44L10 44L10 45L8 45L8 44L5 44L5 45L4 45L4 46L5 46L5 47L3 47L3 46L2 46L2 47L1 47L1 46L0 46L0 48L5 48L5 47L7 47L7 46L6 46L6 45L8 45L8 47L9 47L9 46L11 46L11 44L10 44L10 42L11 42L11 41ZM12 41L12 44L13 44L13 41ZM15 41L15 42L17 42L17 43L18 43L18 41ZM36 41L36 42L37 42L37 41ZM21 44L21 45L22 45L22 44ZM49 45L49 47L50 47L50 45ZM54 45L54 46L55 46L55 45ZM26 46L26 47L27 47L27 46ZM51 46L51 47L52 47L52 46ZM41 47L41 48L42 48L42 47ZM10 48L10 49L12 49L12 48ZM33 48L33 49L34 49L34 48ZM14 49L14 50L11 50L11 52L12 52L12 55L14 55L14 54L16 54L16 53L14 53L14 52L15 52L15 49ZM27 49L27 52L30 52L30 49ZM49 49L49 52L52 52L52 49ZM28 50L28 51L29 51L29 50ZM50 50L50 51L51 51L51 50ZM12 51L12 52L13 52L13 51ZM32 51L32 52L33 52L33 51ZM18 52L18 53L20 53L20 52ZM10 53L10 54L9 54L9 56L11 56L11 55L10 55L10 54L11 54L11 53ZM13 53L13 54L14 54L14 53ZM33 53L33 54L34 54L34 53ZM0 0L0 7L7 7L7 0ZM1 1L1 6L6 6L6 1ZM2 2L2 5L5 5L5 2ZM50 0L50 7L57 7L57 0ZM51 1L51 6L56 6L56 1ZM52 2L52 5L55 5L55 2ZM0 50L0 57L7 57L7 50ZM1 51L1 56L6 56L6 51ZM2 52L2 55L5 55L5 52Z" fill="#000000"/></g></g></svg>
