<?xml version="1.0" encoding="UTF-8"?>
<svg xmlns="http://www.w3.org/2000/svg" version="1.1" width="300" height="300" viewBox="0 0 300 300"><rect x="0" y="0" width="300" height="300" fill="#ffffff"/><g transform="scale(4.918)"><g transform="translate(2,2)"><path fill-rule="evenodd" d="M8 0L8 1L9 1L9 0ZM10 0L10 1L11 1L11 4L12 4L12 5L10 5L10 2L8 2L8 5L10 5L10 7L9 7L9 6L8 6L8 7L9 7L9 8L8 8L8 9L7 9L7 8L6 8L6 9L4 9L4 8L0 8L0 9L2 9L2 10L0 10L0 16L1 16L1 15L3 15L3 16L2 16L2 17L0 17L0 19L1 19L1 20L0 20L0 21L3 21L3 24L2 24L2 23L1 23L1 24L0 24L0 25L1 25L1 24L2 24L2 26L1 26L1 29L0 29L0 31L2 31L2 30L4 30L4 31L3 31L3 32L4 32L4 33L5 33L5 34L4 34L4 36L3 36L3 35L1 35L1 34L3 34L3 33L1 33L1 34L0 34L0 37L1 37L1 38L0 38L0 43L1 43L1 38L2 38L2 42L5 42L5 43L7 43L7 44L6 44L6 45L7 45L7 46L5 46L5 44L3 44L3 45L4 45L4 46L5 46L5 47L3 47L3 46L2 46L2 45L1 45L1 46L0 46L0 48L5 48L5 47L8 47L8 46L10 46L10 48L11 48L11 49L12 49L12 50L10 50L10 51L9 51L9 52L10 52L10 53L8 53L8 57L9 57L9 54L10 54L10 55L12 55L12 56L10 56L10 57L12 57L12 56L13 56L13 57L16 57L16 56L14 56L14 55L15 55L15 53L16 53L16 54L17 54L17 56L18 56L18 55L19 55L19 57L20 57L20 55L21 55L21 57L23 57L23 56L24 56L24 57L25 57L25 56L24 56L24 55L26 55L26 56L27 56L27 57L30 57L30 55L32 55L32 56L31 56L31 57L32 57L32 56L33 56L33 57L36 57L36 55L37 55L37 57L41 57L41 55L40 55L40 54L42 54L42 55L43 55L43 54L45 54L45 55L44 55L44 56L45 56L45 55L47 55L47 54L48 54L48 55L49 55L49 56L48 56L48 57L49 57L49 56L51 56L51 55L50 55L50 54L49 54L49 53L54 53L54 54L53 54L53 55L52 55L52 57L53 57L53 55L55 55L55 54L56 54L56 53L57 53L57 51L56 51L56 49L57 49L57 44L53 44L53 45L56 45L56 46L55 46L55 51L54 51L54 50L53 50L53 48L54 48L54 46L53 46L53 47L52 47L52 44L51 44L51 46L49 46L49 44L50 44L50 42L51 42L51 43L53 43L53 40L52 40L52 39L50 39L50 42L49 42L49 40L47 40L47 39L48 39L48 37L47 37L47 36L50 36L50 37L51 37L51 38L52 38L52 37L51 37L51 36L52 36L52 35L53 35L53 36L54 36L54 35L55 35L55 36L56 36L56 35L57 35L57 33L56 33L56 32L57 32L57 31L56 31L56 30L57 30L57 28L56 28L56 27L55 27L55 26L57 26L57 25L55 25L55 26L54 26L54 25L52 25L52 23L53 23L53 24L54 24L54 23L53 23L53 21L54 21L54 22L55 22L55 24L56 24L56 23L57 23L57 21L55 21L55 20L57 20L57 19L56 19L56 18L57 18L57 16L55 16L55 15L54 15L54 17L52 17L52 15L53 15L53 14L51 14L51 12L52 12L52 11L51 11L51 12L50 12L50 10L49 10L49 9L50 9L50 8L49 8L49 6L48 6L48 7L47 7L47 5L48 5L48 0L42 0L42 2L43 2L43 1L44 1L44 3L45 3L45 2L46 2L46 3L47 3L47 5L46 5L46 7L45 7L45 6L44 6L44 5L43 5L43 6L42 6L42 5L41 5L41 6L40 6L40 8L39 8L39 10L38 10L38 8L37 8L37 10L34 10L34 9L36 9L36 7L37 7L37 5L39 5L39 4L40 4L40 3L39 3L39 2L40 2L40 0L39 0L39 2L36 2L36 0L35 0L35 1L34 1L34 2L33 2L33 0L28 0L28 1L27 1L27 2L26 2L26 0L21 0L21 1L20 1L20 0L19 0L19 3L18 3L18 2L16 2L16 0L12 0L12 1L11 1L11 0ZM17 0L17 1L18 1L18 0ZM37 0L37 1L38 1L38 0ZM12 1L12 2L13 2L13 3L14 3L14 4L13 4L13 5L12 5L12 6L11 6L11 7L10 7L10 9L9 9L9 10L7 10L7 9L6 9L6 10L3 10L3 11L2 11L2 12L1 12L1 14L3 14L3 13L6 13L6 14L7 14L7 13L8 13L8 15L6 15L6 16L7 16L7 17L6 17L6 18L8 18L8 19L9 19L9 20L10 20L10 24L9 24L9 22L7 22L7 21L8 21L8 20L7 20L7 19L6 19L6 20L4 20L4 19L2 19L2 18L5 18L5 15L4 15L4 16L3 16L3 17L2 17L2 18L1 18L1 19L2 19L2 20L3 20L3 21L4 21L4 24L5 24L5 25L3 25L3 26L2 26L2 29L1 29L1 30L2 30L2 29L4 29L4 28L3 28L3 27L4 27L4 26L5 26L5 25L6 25L6 26L7 26L7 25L8 25L8 26L9 26L9 28L11 28L11 29L10 29L10 30L11 30L11 33L12 33L12 35L11 35L11 34L10 34L10 33L8 33L8 32L10 32L10 31L8 31L8 32L7 32L7 31L4 31L4 32L5 32L5 33L6 33L6 34L7 34L7 35L6 35L6 36L7 36L7 37L6 37L6 38L4 38L4 37L5 37L5 36L4 36L4 37L3 37L3 41L4 41L4 40L7 40L7 41L5 41L5 42L7 42L7 43L8 43L8 44L9 44L9 45L11 45L11 44L10 44L10 43L9 43L9 42L7 42L7 41L10 41L10 42L11 42L11 43L12 43L12 42L13 42L13 44L14 44L14 42L15 42L15 44L16 44L16 45L15 45L15 46L14 46L14 45L13 45L13 46L11 46L11 48L12 48L12 47L13 47L13 46L14 46L14 47L15 47L15 48L14 48L14 49L15 49L15 51L14 51L14 50L12 50L12 51L11 51L11 52L13 52L13 53L14 53L14 52L15 52L15 51L17 51L17 52L16 52L16 53L17 53L17 54L18 54L18 53L19 53L19 55L20 55L20 52L18 52L18 51L17 51L17 50L18 50L18 47L20 47L20 48L19 48L19 50L20 50L20 51L22 51L22 49L23 49L23 50L24 50L24 51L23 51L23 52L22 52L22 53L21 53L21 54L26 54L26 50L25 50L25 49L26 49L26 48L27 48L27 47L28 47L28 46L29 46L29 47L31 47L31 49L33 49L33 50L31 50L31 52L32 52L32 51L33 51L33 50L34 50L34 51L36 51L36 54L37 54L37 55L38 55L38 56L40 56L40 55L38 55L38 54L40 54L40 53L41 53L41 52L42 52L42 54L43 54L43 52L42 52L42 51L41 51L41 52L40 52L40 51L38 51L38 52L37 52L37 50L36 50L36 48L34 48L34 46L35 46L35 45L33 45L33 44L35 44L35 43L34 43L34 42L33 42L33 43L31 43L31 44L30 44L30 45L29 45L29 42L30 42L30 41L31 41L31 40L32 40L32 41L34 41L34 40L35 40L35 41L37 41L37 43L36 43L36 45L37 45L37 46L38 46L38 48L37 48L37 49L38 49L38 48L39 48L39 47L40 47L40 50L41 50L41 48L43 48L43 49L42 49L42 50L43 50L43 49L45 49L45 50L46 50L46 51L48 51L48 50L47 50L47 49L48 49L48 47L46 47L46 46L47 46L47 45L48 45L48 44L49 44L49 42L48 42L48 41L47 41L47 42L45 42L45 43L44 43L44 46L45 46L45 48L44 48L44 47L42 47L42 44L43 44L43 43L41 43L41 40L42 40L42 42L43 42L43 41L44 41L44 40L42 40L42 39L43 39L43 38L44 38L44 39L45 39L45 37L46 37L46 39L47 39L47 37L46 37L46 36L47 36L47 35L49 35L49 33L50 33L50 34L54 34L54 33L53 33L53 31L54 31L54 32L55 32L55 30L56 30L56 28L55 28L55 29L54 29L54 28L53 28L53 31L52 31L52 32L51 32L51 31L50 31L50 32L49 32L49 33L48 33L48 28L47 28L47 27L48 27L48 26L50 26L50 24L51 24L51 23L52 23L52 22L51 22L51 21L52 21L52 19L53 19L53 20L55 20L55 19L53 19L53 18L52 18L52 17L48 17L48 16L49 16L49 13L50 13L50 12L49 12L49 10L48 10L48 9L46 9L46 8L47 8L47 7L46 7L46 8L45 8L45 7L44 7L44 6L43 6L43 7L44 7L44 8L42 8L42 9L43 9L43 10L39 10L39 11L41 11L41 12L38 12L38 11L37 11L37 12L38 12L38 13L39 13L39 14L38 14L38 16L39 16L39 15L41 15L41 13L42 13L42 14L43 14L43 16L42 16L42 18L40 18L40 17L41 17L41 16L40 16L40 17L37 17L37 15L35 15L35 14L37 14L37 13L34 13L34 14L33 14L33 12L34 12L34 11L33 11L33 10L32 10L32 6L33 6L33 8L35 8L35 7L36 7L36 6L35 6L35 4L36 4L36 5L37 5L37 4L38 4L38 3L37 3L37 4L36 4L36 2L35 2L35 4L34 4L34 3L32 3L32 1L31 1L31 3L30 3L30 2L29 2L29 1L28 1L28 2L27 2L27 4L29 4L29 3L30 3L30 4L31 4L31 5L32 5L32 6L31 6L31 10L32 10L32 13L30 13L30 15L29 15L29 14L26 14L26 16L25 16L25 17L24 17L24 18L25 18L25 20L24 20L24 21L23 21L23 23L21 23L21 22L19 22L19 20L20 20L20 21L21 21L21 20L22 20L22 19L23 19L23 16L24 16L24 15L23 15L23 12L24 12L24 14L25 14L25 12L24 12L24 11L23 11L23 10L21 10L21 8L20 8L20 6L21 6L21 7L22 7L22 8L24 8L24 2L25 2L25 4L26 4L26 2L25 2L25 1L22 1L22 2L20 2L20 4L19 4L19 5L18 5L18 3L16 3L16 4L17 4L17 5L15 5L15 3L14 3L14 2L13 2L13 1ZM46 1L46 2L47 2L47 1ZM22 2L22 3L21 3L21 4L20 4L20 5L23 5L23 4L22 4L22 3L23 3L23 2ZM31 3L31 4L32 4L32 5L33 5L33 6L34 6L34 7L35 7L35 6L34 6L34 4L32 4L32 3ZM41 3L41 4L42 4L42 3ZM13 5L13 6L12 6L12 7L13 7L13 6L14 6L14 8L15 8L15 10L14 10L14 9L13 9L13 8L11 8L11 9L10 9L10 10L9 10L9 11L7 11L7 10L6 10L6 11L4 11L4 12L6 12L6 13L7 13L7 12L10 12L10 14L9 14L9 15L8 15L8 16L10 16L10 17L8 17L8 18L10 18L10 17L12 17L12 15L13 15L13 17L15 17L15 18L11 18L11 19L10 19L10 20L11 20L11 22L13 22L13 23L12 23L12 25L11 25L11 24L10 24L10 25L9 25L9 24L8 24L8 25L9 25L9 26L10 26L10 27L11 27L11 28L13 28L13 26L14 26L14 29L13 29L13 31L12 31L12 33L13 33L13 32L14 32L14 29L15 29L15 30L16 30L16 31L17 31L17 32L18 32L18 31L17 31L17 30L18 30L18 28L19 28L19 31L20 31L20 32L19 32L19 34L20 34L20 33L21 33L21 34L25 34L25 35L24 35L24 39L23 39L23 37L22 37L22 39L21 39L21 41L22 41L22 40L23 40L23 42L24 42L24 41L26 41L26 39L27 39L27 38L29 38L29 39L28 39L28 41L27 41L27 42L26 42L26 44L27 44L27 46L28 46L28 43L27 43L27 42L29 42L29 41L30 41L30 40L29 40L29 39L30 39L30 38L31 38L31 39L32 39L32 38L34 38L34 37L35 37L35 39L36 39L36 40L37 40L37 39L38 39L38 40L39 40L39 38L40 38L40 40L41 40L41 39L42 39L42 38L40 38L40 35L39 35L39 37L38 37L38 34L37 34L37 35L36 35L36 37L35 37L35 36L34 36L34 37L32 37L32 36L31 36L31 37L30 37L30 36L29 36L29 35L28 35L28 34L27 34L27 36L26 36L26 34L25 34L25 33L27 33L27 31L31 31L31 32L29 32L29 33L31 33L31 34L30 34L30 35L35 35L35 34L36 34L36 33L35 33L35 34L34 34L34 32L33 32L33 33L32 33L32 31L36 31L36 32L37 32L37 33L39 33L39 32L40 32L40 34L41 34L41 36L42 36L42 37L44 37L44 36L42 36L42 35L43 35L43 33L44 33L44 31L43 31L43 33L42 33L42 30L38 30L38 29L36 29L36 30L35 30L35 27L37 27L37 28L38 28L38 26L40 26L40 27L42 27L42 28L41 28L41 29L43 29L43 30L44 30L44 29L45 29L45 28L46 28L46 31L45 31L45 34L44 34L44 35L45 35L45 36L46 36L46 35L47 35L47 34L48 34L48 33L47 33L47 34L46 34L46 31L47 31L47 28L46 28L46 27L45 27L45 25L47 25L47 22L48 22L48 23L49 23L49 24L50 24L50 23L49 23L49 22L50 22L50 21L47 21L47 20L45 20L45 21L44 21L44 19L43 19L43 21L41 21L41 19L40 19L40 18L38 18L38 21L37 21L37 24L36 24L36 22L34 22L34 23L33 23L33 24L34 24L34 23L35 23L35 27L34 27L34 29L33 29L33 28L31 28L31 27L32 27L32 26L33 26L33 25L31 25L31 23L32 23L32 22L33 22L33 21L31 21L31 20L32 20L32 19L31 19L31 20L30 20L30 25L31 25L31 26L29 26L29 25L28 25L28 26L26 26L26 29L25 29L25 28L24 28L24 27L22 27L22 26L23 26L23 25L26 25L26 23L28 23L28 22L29 22L29 19L28 19L28 18L30 18L30 17L31 17L31 18L32 18L32 17L34 17L34 19L33 19L33 20L34 20L34 19L35 19L35 20L37 20L37 18L36 18L36 17L34 17L34 16L33 16L33 14L31 14L31 15L30 15L30 16L29 16L29 17L27 17L27 18L26 18L26 21L27 21L27 20L28 20L28 22L25 22L25 21L24 21L24 22L25 22L25 24L23 24L23 25L22 25L22 26L21 26L21 25L19 25L19 23L16 23L16 21L17 21L17 20L18 20L18 19L17 19L17 20L16 20L16 18L17 18L17 16L18 16L18 15L17 15L17 14L18 14L18 12L19 12L19 13L20 13L20 14L19 14L19 16L20 16L20 14L22 14L22 12L23 12L23 11L21 11L21 10L20 10L20 8L19 8L19 10L18 10L18 12L17 12L17 10L16 10L16 8L17 8L17 9L18 9L18 8L17 8L17 6L16 6L16 7L15 7L15 6L14 6L14 5ZM25 5L25 8L26 8L26 5ZM27 5L27 8L30 8L30 5ZM18 6L18 7L19 7L19 6ZM22 6L22 7L23 7L23 6ZM28 6L28 7L29 7L29 6ZM38 6L38 7L39 7L39 6ZM41 6L41 7L42 7L42 6ZM52 8L52 9L51 9L51 10L53 10L53 9L55 9L55 10L54 10L54 11L55 11L55 12L56 12L56 13L55 13L55 14L56 14L56 13L57 13L57 12L56 12L56 11L57 11L57 10L56 10L56 9L57 9L57 8L56 8L56 9L55 9L55 8ZM11 9L11 11L12 11L12 13L11 13L11 15L12 15L12 14L13 14L13 13L15 13L15 11L14 11L14 10L13 10L13 11L12 11L12 9ZM25 9L25 11L26 11L26 12L28 12L28 13L29 13L29 12L31 12L31 11L30 11L30 9L29 9L29 10L28 10L28 11L27 11L27 9ZM44 9L44 10L45 10L45 9ZM46 10L46 11L45 11L45 13L46 13L46 12L48 12L48 10ZM6 11L6 12L7 12L7 11ZM19 11L19 12L21 12L21 11ZM43 11L43 12L42 12L42 13L44 13L44 11ZM16 13L16 14L17 14L17 13ZM14 14L14 15L15 15L15 14ZM47 14L47 15L48 15L48 14ZM50 14L50 16L51 16L51 14ZM31 15L31 16L32 16L32 15ZM44 15L44 16L43 16L43 17L44 17L44 18L45 18L45 15ZM15 16L15 17L16 17L16 16ZM21 16L21 17L22 17L22 16ZM18 17L18 18L19 18L19 17ZM46 17L46 19L49 19L49 20L51 20L51 19L52 19L52 18L48 18L48 17ZM54 17L54 18L55 18L55 17ZM35 18L35 19L36 19L36 18ZM11 19L11 20L12 20L12 21L13 21L13 22L15 22L15 21L14 21L14 20L15 20L15 19L13 19L13 20L12 20L12 19ZM6 20L6 21L7 21L7 20ZM39 20L39 21L38 21L38 23L39 23L39 25L41 25L41 26L42 26L42 27L43 27L43 28L45 28L45 27L43 27L43 26L44 26L44 25L45 25L45 24L46 24L46 22L47 22L47 21L45 21L45 22L44 22L44 21L43 21L43 23L42 23L42 22L39 22L39 21L40 21L40 20ZM6 22L6 23L5 23L5 24L6 24L6 25L7 25L7 24L6 24L6 23L7 23L7 22ZM13 23L13 24L14 24L14 25L16 25L16 26L15 26L15 29L16 29L16 28L17 28L17 27L19 27L19 28L20 28L20 31L21 31L21 30L22 30L22 29L21 29L21 28L20 28L20 27L21 27L21 26L19 26L19 25L18 25L18 26L17 26L17 24L16 24L16 23ZM20 23L20 24L21 24L21 23ZM40 23L40 24L41 24L41 25L44 25L44 24L45 24L45 23L44 23L44 24L42 24L42 23ZM37 24L37 25L38 25L38 24ZM10 25L10 26L11 26L11 27L12 27L12 26L13 26L13 25L12 25L12 26L11 26L11 25ZM53 26L53 27L54 27L54 26ZM5 27L5 30L8 30L8 27ZM27 27L27 30L30 30L30 27ZM49 27L49 30L52 30L52 27ZM6 28L6 29L7 29L7 28ZM28 28L28 29L29 29L29 28ZM39 28L39 29L40 29L40 28ZM50 28L50 29L51 29L51 28ZM24 29L24 30L23 30L23 31L22 31L22 32L21 32L21 33L22 33L22 32L23 32L23 33L24 33L24 32L26 32L26 31L24 31L24 30L25 30L25 29ZM31 29L31 30L33 30L33 29ZM6 32L6 33L7 33L7 34L8 34L8 36L10 36L10 34L8 34L8 33L7 33L7 32ZM15 32L15 34L16 34L16 36L15 36L15 37L14 37L14 36L13 36L13 35L12 35L12 36L11 36L11 37L7 37L7 38L6 38L6 39L7 39L7 40L8 40L8 39L9 39L9 38L11 38L11 39L10 39L10 40L11 40L11 39L12 39L12 40L15 40L15 42L16 42L16 43L17 43L17 45L18 45L18 46L16 46L16 48L15 48L15 49L17 49L17 47L18 47L18 46L19 46L19 43L20 43L20 45L21 45L21 44L22 44L22 45L24 45L24 46L23 46L23 47L25 47L25 48L26 48L26 46L25 46L25 44L24 44L24 43L23 43L23 44L22 44L22 42L21 42L21 43L20 43L20 42L19 42L19 43L18 43L18 41L16 41L16 40L18 40L18 38L19 38L19 37L20 37L20 38L21 38L21 37L20 37L20 35L18 35L18 34L16 34L16 32ZM50 32L50 33L51 33L51 32ZM55 33L55 34L56 34L56 33ZM17 35L17 36L16 36L16 37L18 37L18 35ZM21 35L21 36L23 36L23 35ZM50 35L50 36L51 36L51 35ZM12 36L12 37L13 37L13 36ZM28 36L28 37L29 37L29 38L30 38L30 37L29 37L29 36ZM25 37L25 38L27 38L27 37ZM53 37L53 38L56 38L56 39L57 39L57 38L56 38L56 37ZM13 38L13 39L15 39L15 40L16 40L16 39L17 39L17 38ZM36 38L36 39L37 39L37 38ZM24 39L24 40L25 40L25 39ZM33 39L33 40L34 40L34 39ZM54 39L54 41L55 41L55 39ZM56 40L56 41L57 41L57 40ZM39 41L39 42L38 42L38 43L39 43L39 45L41 45L41 43L40 43L40 41ZM51 41L51 42L52 42L52 41ZM54 42L54 43L56 43L56 42ZM46 43L46 44L47 44L47 43ZM37 44L37 45L38 45L38 44ZM31 45L31 47L32 47L32 48L33 48L33 49L34 49L34 48L33 48L33 45ZM45 45L45 46L46 46L46 45ZM1 46L1 47L2 47L2 46ZM40 46L40 47L41 47L41 46ZM51 47L51 48L52 48L52 47ZM6 48L6 49L8 49L8 50L9 50L9 49L8 49L8 48ZM20 48L20 50L21 50L21 49L22 49L22 48ZM45 48L45 49L46 49L46 48ZM27 49L27 52L30 52L30 49ZM49 49L49 52L52 52L52 49ZM28 50L28 51L29 51L29 50ZM50 50L50 51L51 51L51 50ZM13 51L13 52L14 52L14 51ZM44 51L44 52L45 52L45 51ZM53 51L53 52L54 52L54 51ZM17 52L17 53L18 53L18 52ZM33 52L33 53L28 53L28 54L27 54L27 56L29 56L29 54L33 54L33 55L34 55L34 54L33 54L33 53L34 53L34 52ZM38 52L38 53L39 53L39 52ZM46 52L46 53L47 53L47 52ZM55 52L55 53L56 53L56 52ZM11 53L11 54L12 54L12 55L14 55L14 54L12 54L12 53ZM22 55L22 56L23 56L23 55ZM56 55L56 56L57 56L57 55ZM54 56L54 57L55 57L55 56ZM0 0L0 7L7 7L7 0ZM1 1L1 6L6 6L6 1ZM2 2L2 5L5 5L5 2ZM50 0L50 7L57 7L57 0ZM51 1L51 6L56 6L56 1ZM52 2L52 5L55 5L55 2ZM0 50L0 57L7 57L7 50ZM1 51L1 56L6 56L6 51ZM2 52L2 55L5 55L5 52Z" fill="#000000"/></g></g></svg>
