<?xml version="1.0" encoding="UTF-8"?>
<svg xmlns="http://www.w3.org/2000/svg" version="1.1" width="300" height="300" viewBox="0 0 300 300"><rect x="0" y="0" width="300" height="300" fill="#ffffff"/><g transform="scale(4.918)"><g transform="translate(2,2)"><path fill-rule="evenodd" d="M9 0L9 1L8 1L8 2L9 2L9 1L10 1L10 0ZM11 0L11 1L12 1L12 0ZM14 0L14 1L15 1L15 2L13 2L13 4L14 4L14 5L15 5L15 6L14 6L14 7L15 7L15 6L16 6L16 9L14 9L14 8L13 8L13 5L12 5L12 8L11 8L11 6L10 6L10 4L12 4L12 3L11 3L11 2L10 2L10 3L8 3L8 4L9 4L9 5L8 5L8 7L9 7L9 8L6 8L6 9L5 9L5 8L0 8L0 14L1 14L1 15L2 15L2 16L0 16L0 21L1 21L1 18L2 18L2 16L3 16L3 15L4 15L4 14L5 14L5 15L7 15L7 14L8 14L8 13L7 13L7 12L8 12L8 11L9 11L9 12L12 12L12 14L11 14L11 13L10 13L10 14L11 14L11 15L10 15L10 16L9 16L9 15L8 15L8 16L9 16L9 17L10 17L10 16L13 16L13 18L12 18L12 17L11 17L11 18L8 18L8 17L7 17L7 16L6 16L6 17L4 17L4 18L3 18L3 21L4 21L4 24L3 24L3 25L5 25L5 26L4 26L4 27L3 27L3 26L2 26L2 25L0 25L0 26L1 26L1 28L2 28L2 27L3 27L3 28L4 28L4 30L3 30L3 31L5 31L5 32L6 32L6 33L7 33L7 34L5 34L5 33L4 33L4 34L3 34L3 33L1 33L1 34L0 34L0 35L2 35L2 34L3 34L3 35L4 35L4 37L5 37L5 35L7 35L7 36L6 36L6 37L8 37L8 38L6 38L6 39L5 39L5 41L3 41L3 40L2 40L2 39L3 39L3 38L1 38L1 37L2 37L2 36L1 36L1 37L0 37L0 39L1 39L1 41L0 41L0 43L2 43L2 42L1 42L1 41L3 41L3 42L5 42L5 44L4 44L4 43L3 43L3 44L4 44L4 45L2 45L2 44L0 44L0 45L2 45L2 47L1 47L1 46L0 46L0 48L5 48L5 47L8 47L8 48L9 48L9 47L10 47L10 48L11 48L11 46L10 46L10 45L9 45L9 44L8 44L8 40L9 40L9 39L10 39L10 40L11 40L11 38L12 38L12 35L14 35L14 34L15 34L15 37L14 37L14 36L13 36L13 37L14 37L14 38L13 38L13 39L12 39L12 40L13 40L13 42L11 42L11 41L10 41L10 42L9 42L9 43L11 43L11 45L13 45L13 44L14 44L14 45L15 45L15 46L12 46L12 47L13 47L13 51L14 51L14 52L13 52L13 54L16 54L16 53L14 53L14 52L17 52L17 51L18 51L18 53L19 53L19 54L18 54L18 55L17 55L17 57L20 57L20 56L21 56L21 54L23 54L23 55L22 55L22 56L23 56L23 55L24 55L24 56L25 56L25 57L26 57L26 54L27 54L27 53L28 53L28 54L29 54L29 55L30 55L30 56L29 56L29 57L31 57L31 55L32 55L32 56L34 56L34 57L35 57L35 56L36 56L36 57L39 57L39 56L40 56L40 52L42 52L42 54L41 54L41 56L42 56L42 54L43 54L43 53L44 53L44 54L45 54L45 55L44 55L44 56L43 56L43 57L44 57L44 56L45 56L45 55L46 55L46 54L45 54L45 53L44 53L44 50L46 50L46 51L45 51L45 52L46 52L46 51L47 51L47 52L48 52L48 53L47 53L47 55L49 55L49 56L48 56L48 57L49 57L49 56L50 56L50 55L51 55L51 57L52 57L52 56L53 56L53 57L56 57L56 56L55 56L55 54L54 54L54 55L51 55L51 54L53 54L53 53L54 53L54 52L55 52L55 53L56 53L56 52L57 52L57 51L56 51L56 52L55 52L55 50L57 50L57 48L56 48L56 46L57 46L57 45L56 45L56 46L52 46L52 45L54 45L54 44L55 44L55 43L56 43L56 42L57 42L57 41L55 41L55 39L57 39L57 37L56 37L56 36L55 36L55 34L57 34L57 33L56 33L56 32L57 32L57 31L56 31L56 30L57 30L57 27L56 27L56 26L57 26L57 25L55 25L55 23L56 23L56 24L57 24L57 23L56 23L56 22L57 22L57 21L54 21L54 20L55 20L55 18L57 18L57 15L56 15L56 14L57 14L57 11L56 11L56 10L57 10L57 9L56 9L56 8L55 8L55 11L54 11L54 10L53 10L53 11L52 11L52 12L53 12L53 11L54 11L54 12L55 12L55 11L56 11L56 14L55 14L55 13L53 13L53 14L55 14L55 15L51 15L51 14L52 14L52 13L51 13L51 12L50 12L50 13L51 13L51 14L49 14L49 13L47 13L47 14L46 14L46 12L45 12L45 13L44 13L44 12L43 12L43 11L45 11L45 9L44 9L44 8L46 8L46 7L47 7L47 5L48 5L48 0L45 0L45 1L44 1L44 2L43 2L43 3L47 3L47 5L46 5L46 4L44 4L44 5L45 5L45 6L44 6L44 7L43 7L43 4L40 4L40 3L41 3L41 2L42 2L42 1L43 1L43 0L42 0L42 1L41 1L41 2L40 2L40 1L37 1L37 0L36 0L36 1L37 1L37 2L38 2L38 4L37 4L37 3L36 3L36 5L35 5L35 6L34 6L34 5L33 5L33 6L32 6L32 7L33 7L33 8L31 8L31 4L32 4L32 3L35 3L35 1L34 1L34 0L30 0L30 1L29 1L29 2L27 2L27 1L28 1L28 0L27 0L27 1L26 1L26 0L23 0L23 2L24 2L24 4L21 4L21 5L24 5L24 4L25 4L25 6L24 6L24 7L23 7L23 6L22 6L22 7L21 7L21 6L20 6L20 5L18 5L18 4L20 4L20 3L18 3L18 4L16 4L16 2L19 2L19 1L20 1L20 2L21 2L21 3L22 3L22 2L21 2L21 1L22 1L22 0L21 0L21 1L20 1L20 0L19 0L19 1L15 1L15 0ZM30 1L30 2L29 2L29 3L27 3L27 4L29 4L29 3L31 3L31 2L34 2L34 1ZM45 1L45 2L47 2L47 1ZM14 3L14 4L15 4L15 5L16 5L16 4L15 4L15 3ZM25 3L25 4L26 4L26 3ZM38 4L38 5L36 5L36 6L35 6L35 7L36 7L36 6L37 6L37 8L38 8L38 5L39 5L39 7L40 7L40 8L39 8L39 9L38 9L38 11L39 11L39 12L38 12L38 13L37 13L37 14L40 14L40 15L36 15L36 16L35 16L35 15L34 15L34 18L33 18L33 16L32 16L32 15L33 15L33 14L36 14L36 12L37 12L37 10L36 10L36 9L35 9L35 8L33 8L33 10L34 10L34 12L35 12L35 13L33 13L33 12L32 12L32 11L31 11L31 12L32 12L32 13L33 13L33 14L32 14L32 15L31 15L31 16L30 16L30 15L26 15L26 14L28 14L28 13L29 13L29 14L30 14L30 13L29 13L29 12L30 12L30 11L29 11L29 9L28 9L28 10L27 10L27 9L26 9L26 6L25 6L25 7L24 7L24 8L23 8L23 7L22 7L22 9L20 9L20 10L18 10L18 9L16 9L16 10L14 10L14 9L13 9L13 10L12 10L12 9L11 9L11 8L9 8L9 9L8 9L8 10L9 10L9 9L11 9L11 11L14 11L14 12L13 12L13 13L14 13L14 14L17 14L17 15L16 15L16 16L18 16L18 15L20 15L20 16L19 16L19 17L16 17L16 18L19 18L19 19L21 19L21 17L20 17L20 16L21 16L21 15L22 15L22 17L24 17L24 16L23 16L23 15L24 15L24 13L25 13L25 12L27 12L27 11L29 11L29 12L28 12L28 13L26 13L26 14L25 14L25 16L28 16L28 17L26 17L26 18L25 18L25 20L27 20L27 21L25 21L25 22L26 22L26 23L25 23L25 24L26 24L26 25L25 25L25 26L26 26L26 25L29 25L29 26L30 26L30 25L32 25L32 26L34 26L34 27L32 27L32 29L31 29L31 31L30 31L30 33L25 33L25 34L23 34L23 33L24 33L24 32L27 32L27 31L24 31L24 29L25 29L25 30L26 30L26 27L23 27L23 28L24 28L24 29L22 29L22 28L21 28L21 27L22 27L22 26L23 26L23 25L24 25L24 23L21 23L21 24L19 24L19 25L17 25L17 23L20 23L20 22L19 22L19 21L23 21L23 22L24 22L24 21L23 21L23 20L19 20L19 21L17 21L17 20L18 20L18 19L17 19L17 20L15 20L15 21L13 21L13 20L14 20L14 19L13 19L13 20L11 20L11 19L12 19L12 18L11 18L11 19L10 19L10 21L8 21L8 22L7 22L7 21L6 21L6 20L8 20L8 18L7 18L7 17L6 17L6 18L4 18L4 19L6 19L6 20L4 20L4 21L5 21L5 22L7 22L7 23L5 23L5 24L7 24L7 25L6 25L6 26L9 26L9 24L8 24L8 22L9 22L9 23L10 23L10 22L11 22L11 21L12 21L12 24L13 24L13 25L14 25L14 24L15 24L15 27L13 27L13 26L12 26L12 27L13 27L13 29L11 29L11 27L10 27L10 29L9 29L9 31L10 31L10 33L11 33L11 34L14 34L14 33L16 33L16 34L17 34L17 35L16 35L16 37L15 37L15 38L14 38L14 40L15 40L15 41L14 41L14 42L13 42L13 43L12 43L12 44L13 44L13 43L14 43L14 44L15 44L15 42L18 42L18 43L17 43L17 44L18 44L18 45L16 45L16 46L17 46L17 47L16 47L16 48L17 48L17 47L18 47L18 48L19 48L19 49L16 49L16 51L17 51L17 50L21 50L21 51L23 51L23 52L19 52L19 53L23 53L23 54L24 54L24 53L23 53L23 52L24 52L24 51L25 51L25 53L26 53L26 50L23 50L23 48L24 48L24 47L23 47L23 46L24 46L24 45L25 45L25 48L31 48L31 50L32 50L32 51L31 51L31 52L32 52L32 54L33 54L33 55L34 55L34 56L35 56L35 53L36 53L36 54L39 54L39 52L40 52L40 51L43 51L43 50L44 50L44 49L45 49L45 48L47 48L47 49L46 49L46 50L47 50L47 51L48 51L48 48L49 48L49 47L51 47L51 48L54 48L54 49L56 49L56 48L54 48L54 47L52 47L52 46L48 46L48 45L52 45L52 44L53 44L53 43L54 43L54 41L51 41L51 40L53 40L53 39L52 39L52 38L55 38L55 36L54 36L54 37L53 37L53 36L52 36L52 34L53 34L53 35L54 35L54 34L53 34L53 33L51 33L51 34L50 34L50 32L49 32L49 31L48 31L48 25L49 25L49 26L52 26L52 25L53 25L53 27L55 27L55 28L54 28L54 29L53 29L53 30L54 30L54 31L52 31L52 32L54 32L54 33L55 33L55 32L54 32L54 31L55 31L55 30L56 30L56 27L55 27L55 26L54 26L54 25L53 25L53 24L51 24L51 23L53 23L53 20L52 20L52 21L51 21L51 19L50 19L50 18L54 18L54 17L55 17L55 16L56 16L56 15L55 15L55 16L51 16L51 17L50 17L50 18L49 18L49 19L46 19L46 18L47 18L47 17L46 17L46 16L50 16L50 15L45 15L45 16L42 16L42 17L41 17L41 16L40 16L40 15L41 15L41 14L42 14L42 15L43 15L43 14L44 14L44 13L43 13L43 14L42 14L42 11L41 11L41 12L40 12L40 11L39 11L39 9L40 9L40 10L41 10L41 9L42 9L42 5L40 5L40 4ZM27 5L27 8L30 8L30 5ZM9 6L9 7L10 7L10 6ZM17 6L17 7L18 7L18 8L21 8L21 7L20 7L20 6L19 6L19 7L18 7L18 6ZM28 6L28 7L29 7L29 6ZM33 6L33 7L34 7L34 6ZM40 6L40 7L41 7L41 6ZM45 6L45 7L46 7L46 6ZM48 6L48 7L49 7L49 6ZM24 8L24 9L22 9L22 10L21 10L21 11L20 11L20 13L18 13L18 12L16 12L16 13L18 13L18 14L20 14L20 13L22 13L22 12L21 12L21 11L22 11L22 10L23 10L23 13L24 13L24 12L25 12L25 8ZM47 8L47 9L48 9L48 10L47 10L47 11L48 11L48 12L49 12L49 11L48 11L48 10L50 10L50 11L51 11L51 10L52 10L52 8L51 8L51 10L50 10L50 8L49 8L49 9L48 9L48 8ZM53 8L53 9L54 9L54 8ZM6 9L6 10L4 10L4 11L3 11L3 12L2 12L2 10L1 10L1 12L2 12L2 13L1 13L1 14L4 14L4 13L3 13L3 12L4 12L4 11L5 11L5 12L7 12L7 11L6 11L6 10L7 10L7 9ZM31 9L31 10L32 10L32 9ZM16 10L16 11L18 11L18 10ZM26 10L26 11L27 11L27 10ZM35 11L35 12L36 12L36 11ZM6 13L6 14L7 14L7 13ZM14 15L14 17L15 17L15 15ZM31 16L31 17L29 17L29 18L31 18L31 19L30 19L30 20L31 20L31 21L30 21L30 22L28 22L28 21L27 21L27 24L29 24L29 25L30 25L30 24L31 24L31 23L35 23L35 24L36 24L36 25L35 25L35 26L36 26L36 27L37 27L37 26L38 26L38 25L39 25L39 26L40 26L40 27L39 27L39 28L35 28L35 27L34 27L34 28L33 28L33 29L36 29L36 31L35 31L35 30L33 30L33 31L32 31L32 32L31 32L31 33L32 33L32 32L34 32L34 31L35 31L35 32L36 32L36 33L38 33L38 32L36 32L36 31L39 31L39 32L41 32L41 33L39 33L39 34L36 34L36 35L37 35L37 36L36 36L36 37L35 37L35 38L34 38L34 37L33 37L33 38L34 38L34 41L36 41L36 42L37 42L37 43L41 43L41 44L43 44L43 45L42 45L42 46L41 46L41 45L40 45L40 46L41 46L41 47L40 47L40 48L38 48L38 47L39 47L39 46L37 46L37 44L36 44L36 43L35 43L35 44L36 44L36 46L32 46L32 47L31 47L31 45L32 45L32 43L31 43L31 41L32 41L32 42L33 42L33 44L34 44L34 42L33 42L33 41L32 41L32 40L33 40L33 39L31 39L31 38L32 38L32 35L30 35L30 34L29 34L29 35L30 35L30 36L29 36L29 37L28 37L28 36L27 36L27 37L26 37L26 36L25 36L25 35L27 35L27 34L25 34L25 35L24 35L24 37L22 37L22 35L21 35L21 34L22 34L22 33L21 33L21 32L23 32L23 30L22 30L22 29L21 29L21 28L19 28L19 27L20 27L20 25L19 25L19 26L18 26L18 27L17 27L17 28L14 28L14 29L15 29L15 31L16 31L16 33L17 33L17 34L18 34L18 35L17 35L17 37L16 37L16 38L15 38L15 39L16 39L16 40L17 40L17 41L18 41L18 42L20 42L20 41L21 41L21 40L24 40L24 41L23 41L23 42L26 42L26 43L27 43L27 45L30 45L30 47L31 47L31 48L33 48L33 50L34 50L34 51L32 51L32 52L34 52L34 53L35 53L35 52L36 52L36 53L38 53L38 52L39 52L39 51L40 51L40 50L37 50L37 49L40 49L40 48L41 48L41 47L42 47L42 48L43 48L43 49L41 49L41 50L43 50L43 49L44 49L44 48L45 48L45 47L47 47L47 46L46 46L46 45L47 45L47 44L52 44L52 43L53 43L53 42L51 42L51 41L49 41L49 43L48 43L48 42L47 42L47 43L45 43L45 41L44 41L44 43L45 43L45 45L44 45L44 44L43 44L43 41L42 41L42 40L45 40L45 39L42 39L42 40L41 40L41 39L39 39L39 40L37 40L37 38L38 38L38 37L37 37L37 36L39 36L39 38L40 38L40 36L41 36L41 38L43 38L43 37L44 37L44 38L45 38L45 37L44 37L44 32L46 32L46 33L47 33L47 34L45 34L45 36L47 36L47 35L49 35L49 34L48 34L48 33L47 33L47 32L48 32L48 31L47 31L47 30L46 30L46 29L47 29L47 28L46 28L46 27L47 27L47 26L46 26L46 25L48 25L48 24L49 24L49 25L51 25L51 24L49 24L49 22L50 22L50 23L51 23L51 22L50 22L50 19L49 19L49 20L46 20L46 19L42 19L42 18L44 18L44 17L42 17L42 18L41 18L41 19L40 19L40 18L38 18L38 17L40 17L40 16L38 16L38 17L37 17L37 16L36 16L36 17L35 17L35 18L34 18L34 20L33 20L33 19L32 19L32 16ZM36 17L36 18L37 18L37 19L35 19L35 20L34 20L34 21L33 21L33 20L32 20L32 21L33 21L33 22L35 22L35 23L36 23L36 24L37 24L37 25L36 25L36 26L37 26L37 25L38 25L38 24L39 24L39 25L40 25L40 26L42 26L42 27L40 27L40 28L39 28L39 29L37 29L37 30L40 30L40 31L41 31L41 32L42 32L42 33L43 33L43 32L44 32L44 31L46 31L46 32L47 32L47 31L46 31L46 30L45 30L45 27L46 27L46 26L45 26L45 24L47 24L47 21L46 21L46 20L40 20L40 19L39 19L39 20L40 20L40 21L38 21L38 22L37 22L37 21L36 21L36 20L37 20L37 19L38 19L38 18L37 18L37 17ZM45 17L45 18L46 18L46 17ZM6 18L6 19L7 19L7 18ZM22 18L22 19L23 19L23 18ZM26 18L26 19L27 19L27 20L29 20L29 19L28 19L28 18ZM15 21L15 22L16 22L16 21ZM41 21L41 23L40 23L40 22L39 22L39 24L41 24L41 25L42 25L42 26L44 26L44 24L43 24L43 23L42 23L42 22L43 22L43 21ZM44 21L44 23L46 23L46 22L45 22L45 21ZM0 22L0 23L1 23L1 22ZM2 22L2 23L3 23L3 22ZM30 22L30 23L29 23L29 24L30 24L30 23L31 23L31 22ZM36 22L36 23L37 23L37 22ZM13 23L13 24L14 24L14 23ZM15 23L15 24L16 24L16 23ZM41 23L41 24L42 24L42 25L43 25L43 24L42 24L42 23ZM10 24L10 26L11 26L11 24ZM33 24L33 25L34 25L34 24ZM5 27L5 30L8 30L8 27ZM27 27L27 30L30 30L30 27ZM42 27L42 28L43 28L43 29L42 29L42 30L41 30L41 31L42 31L42 32L43 32L43 31L44 31L44 30L43 30L43 29L44 29L44 28L43 28L43 27ZM49 27L49 30L52 30L52 27ZM6 28L6 29L7 29L7 28ZM17 28L17 29L16 29L16 31L18 31L18 30L17 30L17 29L18 29L18 28ZM28 28L28 29L29 29L29 28ZM50 28L50 29L51 29L51 28ZM0 29L0 32L1 32L1 31L2 31L2 30L1 30L1 29ZM19 29L19 31L20 31L20 32L19 32L19 33L18 33L18 34L19 34L19 35L18 35L18 36L20 36L20 37L17 37L17 40L18 40L18 39L19 39L19 40L21 40L21 38L22 38L22 39L24 39L24 40L25 40L25 38L26 38L26 37L24 37L24 38L22 38L22 37L21 37L21 35L20 35L20 34L21 34L21 33L20 33L20 32L21 32L21 31L22 31L22 30L21 30L21 29ZM54 29L54 30L55 30L55 29ZM10 30L10 31L11 31L11 32L12 32L12 30ZM13 30L13 33L14 33L14 30ZM42 30L42 31L43 31L43 30ZM6 31L6 32L8 32L8 33L9 33L9 32L8 32L8 31ZM28 31L28 32L29 32L29 31ZM33 33L33 34L34 34L34 35L33 35L33 36L35 36L35 34L34 34L34 33ZM9 34L9 35L10 35L10 34ZM40 34L40 35L39 35L39 36L40 36L40 35L41 35L41 36L42 36L42 35L43 35L43 34ZM50 35L50 38L49 38L49 36L48 36L48 37L47 37L47 39L50 39L50 38L51 38L51 37L52 37L52 36L51 36L51 35ZM30 36L30 38L31 38L31 36ZM27 37L27 38L28 38L28 37ZM19 38L19 39L20 39L20 38ZM35 38L35 39L36 39L36 38ZM6 39L6 40L7 40L7 39ZM27 39L27 40L28 40L28 39ZM29 39L29 40L31 40L31 39ZM39 40L39 41L38 41L38 42L41 42L41 43L42 43L42 42L41 42L41 40ZM46 40L46 41L47 41L47 40ZM5 41L5 42L7 42L7 41ZM26 41L26 42L27 42L27 43L28 43L28 42L29 42L29 43L30 43L30 44L31 44L31 43L30 43L30 41ZM21 42L21 43L22 43L22 42ZM50 42L50 43L51 43L51 42ZM6 43L6 44L7 44L7 45L4 45L4 46L3 46L3 47L5 47L5 46L8 46L8 47L9 47L9 46L8 46L8 44L7 44L7 43ZM19 44L19 45L18 45L18 47L19 47L19 48L20 48L20 49L21 49L21 50L22 50L22 49L21 49L21 48L20 48L20 46L19 46L19 45L22 45L22 44ZM23 44L23 45L24 45L24 44ZM25 44L25 45L26 45L26 44ZM21 46L21 47L22 47L22 48L23 48L23 47L22 47L22 46ZM26 46L26 47L27 47L27 46ZM42 46L42 47L43 47L43 48L44 48L44 47L45 47L45 46ZM14 47L14 48L15 48L15 47ZM33 47L33 48L34 48L34 50L35 50L35 51L34 51L34 52L35 52L35 51L36 51L36 52L37 52L37 51L36 51L36 50L35 50L35 48L37 48L37 47ZM6 48L6 49L7 49L7 48ZM8 49L8 51L10 51L10 52L8 52L8 57L9 57L9 55L10 55L10 57L13 57L13 56L14 56L14 55L13 55L13 56L11 56L11 55L12 55L12 54L11 54L11 52L12 52L12 50L9 50L9 49ZM27 49L27 52L30 52L30 49ZM49 49L49 52L52 52L52 49ZM28 50L28 51L29 51L29 50ZM50 50L50 51L51 51L51 50ZM29 53L29 54L30 54L30 53ZM48 53L48 54L49 54L49 55L50 55L50 54L51 54L51 53ZM19 54L19 55L20 55L20 54ZM15 55L15 57L16 57L16 55ZM27 55L27 56L28 56L28 55ZM36 55L36 56L37 56L37 55ZM38 55L38 56L39 56L39 55ZM0 0L0 7L7 7L7 0ZM1 1L1 6L6 6L6 1ZM2 2L2 5L5 5L5 2ZM50 0L50 7L57 7L57 0ZM51 1L51 6L56 6L56 1ZM52 2L52 5L55 5L55 2ZM0 50L0 57L7 57L7 50ZM1 51L1 56L6 56L6 51ZM2 52L2 55L5 55L5 52Z" fill="#000000"/></g></g></svg>
