<?xml version="1.0" encoding="UTF-8"?>
<svg xmlns="http://www.w3.org/2000/svg" version="1.1" width="300" height="300" viewBox="0 0 300 300"><rect x="0" y="0" width="300" height="300" fill="#ffffff"/><g transform="scale(4.918)"><g transform="translate(2,2)"><path fill-rule="evenodd" d="M9 0L9 1L8 1L8 2L9 2L9 3L8 3L8 4L9 4L9 5L8 5L8 7L9 7L9 6L10 6L10 10L9 10L9 8L6 8L6 9L8 9L8 10L6 10L6 11L8 11L8 13L7 13L7 12L6 12L6 13L7 13L7 14L5 14L5 15L4 15L4 13L3 13L3 15L4 15L4 16L3 16L3 17L2 17L2 16L0 16L0 19L2 19L2 21L1 21L1 20L0 20L0 21L1 21L1 22L2 22L2 21L7 21L7 20L8 20L8 22L3 22L3 23L2 23L2 25L1 25L1 24L0 24L0 31L2 31L2 32L1 32L1 33L0 33L0 34L1 34L1 33L2 33L2 32L3 32L3 31L4 31L4 33L3 33L3 34L2 34L2 35L1 35L1 37L2 37L2 38L0 38L0 40L1 40L1 39L3 39L3 36L2 36L2 35L3 35L3 34L6 34L6 35L5 35L5 36L6 36L6 37L5 37L5 38L6 38L6 39L7 39L7 38L8 38L8 40L5 40L5 39L4 39L4 40L5 40L5 41L3 41L3 40L2 40L2 41L3 41L3 45L5 45L5 47L3 47L3 46L2 46L2 44L1 44L1 42L0 42L0 44L1 44L1 46L0 46L0 48L5 48L5 47L7 47L7 48L6 48L6 49L7 49L7 48L10 48L10 47L11 47L11 49L10 49L10 50L9 50L9 49L8 49L8 51L9 51L9 52L8 52L8 57L10 57L10 56L9 56L9 55L11 55L11 57L12 57L12 56L13 56L13 54L12 54L12 53L11 53L11 54L10 54L10 52L12 52L12 51L13 51L13 53L14 53L14 56L15 56L15 55L16 55L16 57L17 57L17 56L18 56L18 57L20 57L20 56L19 56L19 55L20 55L20 54L19 54L19 55L18 55L18 53L20 53L20 51L19 51L19 50L20 50L20 49L21 49L21 48L20 48L20 49L19 49L19 48L18 48L18 46L19 46L19 47L20 47L20 46L19 46L19 45L21 45L21 47L22 47L22 45L23 45L23 46L25 46L25 45L26 45L26 44L27 44L27 45L29 45L29 44L30 44L30 46L29 46L29 47L31 47L31 48L25 48L25 47L23 47L23 48L25 48L25 49L22 49L22 50L21 50L21 51L22 51L22 52L21 52L21 53L22 53L22 54L21 54L21 55L22 55L22 54L25 54L25 55L23 55L23 56L24 56L24 57L26 57L26 56L28 56L28 55L26 55L26 54L27 54L27 53L28 53L28 54L29 54L29 53L30 53L30 54L31 54L31 55L29 55L29 57L30 57L30 56L31 56L31 57L32 57L32 56L33 56L33 57L37 57L37 54L38 54L38 52L39 52L39 55L40 55L40 56L45 56L45 57L46 57L46 56L47 56L47 55L49 55L49 54L48 54L48 53L50 53L50 54L53 54L53 55L51 55L51 56L50 56L50 57L52 57L52 56L55 56L55 57L56 57L56 56L55 56L55 53L54 53L54 52L55 52L55 51L56 51L56 52L57 52L57 51L56 51L56 50L57 50L57 49L56 49L56 46L57 46L57 45L56 45L56 46L55 46L55 45L54 45L54 44L55 44L55 42L57 42L57 41L55 41L55 40L56 40L56 39L54 39L54 38L53 38L53 39L50 39L50 38L51 38L51 37L52 37L52 36L53 36L53 37L54 37L54 36L56 36L56 37L57 37L57 36L56 36L56 34L57 34L57 33L53 33L53 32L52 32L52 31L54 31L54 32L57 32L57 31L55 31L55 30L57 30L57 29L56 29L56 28L57 28L57 27L56 27L56 26L57 26L57 25L54 25L54 26L55 26L55 27L53 27L53 25L51 25L51 26L50 26L50 24L49 24L49 25L48 25L48 23L49 23L49 22L50 22L50 23L51 23L51 24L56 24L56 22L57 22L57 21L54 21L54 22L55 22L55 23L51 23L51 22L52 22L52 21L51 21L51 22L50 22L50 19L51 19L51 20L57 20L57 19L56 19L56 18L57 18L57 17L56 17L56 16L55 16L55 14L57 14L57 11L56 11L56 10L57 10L57 9L56 9L56 8L55 8L55 9L56 9L56 10L55 10L55 11L54 11L54 10L52 10L52 8L51 8L51 10L50 10L50 8L49 8L49 6L48 6L48 8L49 8L49 9L48 9L48 10L50 10L50 11L52 11L52 12L53 12L53 11L54 11L54 12L55 12L55 11L56 11L56 13L54 13L54 15L53 15L53 17L54 17L54 19L51 19L51 18L50 18L50 16L48 16L48 17L47 17L47 16L46 16L46 15L49 15L49 14L50 14L50 15L51 15L51 16L52 16L52 15L51 15L51 14L52 14L52 13L51 13L51 12L50 12L50 13L47 13L47 14L46 14L46 12L45 12L45 11L46 11L46 10L45 10L45 9L46 9L46 8L45 8L45 9L44 9L44 7L45 7L45 6L44 6L44 7L43 7L43 6L42 6L42 5L43 5L43 3L47 3L47 5L46 5L46 7L47 7L47 5L48 5L48 0L46 0L46 1L45 1L45 0L44 0L44 1L43 1L43 0L42 0L42 1L41 1L41 2L39 2L39 1L38 1L38 0L36 0L36 1L34 1L34 0L29 0L29 1L28 1L28 2L27 2L27 3L26 3L26 5L25 5L25 4L24 4L24 5L23 5L23 4L19 4L19 3L18 3L18 2L20 2L20 0L19 0L19 1L16 1L16 2L15 2L15 3L16 3L16 2L17 2L17 3L18 3L18 4L17 4L17 5L18 5L18 4L19 4L19 5L20 5L20 7L19 7L19 6L18 6L18 7L19 7L19 8L17 8L17 10L18 10L18 11L17 11L17 12L15 12L15 9L14 9L14 8L13 8L13 9L12 9L12 10L13 10L13 11L11 11L11 8L12 8L12 7L13 7L13 6L14 6L14 7L15 7L15 8L16 8L16 7L17 7L17 6L16 6L16 7L15 7L15 6L14 6L14 5L16 5L16 4L13 4L13 3L10 3L10 2L9 2L9 1L11 1L11 0ZM13 0L13 2L14 2L14 1L15 1L15 0ZM21 0L21 2L22 2L22 3L23 3L23 2L24 2L24 3L25 3L25 2L26 2L26 0ZM22 1L22 2L23 2L23 1ZM24 1L24 2L25 2L25 1ZM29 1L29 3L27 3L27 4L31 4L31 8L32 8L32 9L31 9L31 10L30 10L30 12L28 12L28 13L25 13L25 12L27 12L27 11L26 11L26 10L27 10L27 9L26 9L26 6L25 6L25 7L24 7L24 6L23 6L23 5L21 5L21 9L20 9L20 10L19 10L19 12L21 12L21 13L19 13L19 14L18 14L18 15L17 15L17 13L18 13L18 12L17 12L17 13L13 13L13 14L10 14L10 13L8 13L8 14L7 14L7 15L5 15L5 16L7 16L7 17L4 17L4 18L3 18L3 19L4 19L4 18L7 18L7 19L6 19L6 20L7 20L7 19L10 19L10 18L9 18L9 17L10 17L10 16L11 16L11 17L13 17L13 15L15 15L15 16L14 16L14 17L15 17L15 18L12 18L12 19L11 19L11 20L13 20L13 21L14 21L14 22L11 22L11 21L9 21L9 22L11 22L11 23L12 23L12 25L13 25L13 23L14 23L14 22L16 22L16 21L18 21L18 22L17 22L17 25L16 25L16 23L15 23L15 24L14 24L14 25L16 25L16 26L15 26L15 27L14 27L14 26L12 26L12 28L10 28L10 27L11 27L11 26L10 26L10 25L11 25L11 24L10 24L10 25L9 25L9 28L10 28L10 31L5 31L5 33L6 33L6 34L7 34L7 35L6 35L6 36L7 36L7 37L6 37L6 38L7 38L7 37L9 37L9 39L11 39L11 38L12 38L12 39L13 39L13 38L14 38L14 37L16 37L16 38L15 38L15 39L16 39L16 40L13 40L13 41L15 41L15 42L13 42L13 43L12 43L12 45L11 45L11 47L12 47L12 48L13 48L13 51L15 51L15 52L16 52L16 53L15 53L15 54L16 54L16 53L18 53L18 52L19 52L19 51L18 51L18 50L19 50L19 49L15 49L15 47L16 47L16 48L17 48L17 45L18 45L18 44L17 44L17 43L18 43L18 41L16 41L16 40L19 40L19 39L20 39L20 38L19 38L19 37L21 37L21 39L23 39L23 38L22 38L22 37L23 37L23 36L25 36L25 38L24 38L24 40L21 40L21 41L20 41L20 42L19 42L19 44L21 44L21 45L22 45L22 44L21 44L21 43L22 43L22 42L23 42L23 43L25 43L25 44L23 44L23 45L25 45L25 44L26 44L26 43L27 43L27 44L28 44L28 43L30 43L30 44L32 44L32 45L33 45L33 46L35 46L35 43L36 43L36 42L37 42L37 41L36 41L36 42L35 42L35 39L34 39L34 38L35 38L35 37L36 37L36 38L37 38L37 39L36 39L36 40L38 40L38 39L41 39L41 40L39 40L39 41L38 41L38 44L37 44L37 45L36 45L36 46L37 46L37 47L36 47L36 48L35 48L35 47L34 47L34 48L31 48L31 49L34 49L34 50L32 50L32 51L31 51L31 52L32 52L32 54L35 54L35 55L36 55L36 54L35 54L35 53L36 53L36 52L38 52L38 51L36 51L36 50L35 50L35 49L36 49L36 48L37 48L37 50L39 50L39 48L40 48L40 50L42 50L42 51L41 51L41 52L40 52L40 51L39 51L39 52L40 52L40 55L41 55L41 54L42 54L42 55L45 55L45 56L46 56L46 55L45 55L45 54L47 54L47 53L48 53L48 52L47 52L47 51L48 51L48 48L50 48L50 47L51 47L51 48L52 48L52 47L53 47L53 49L55 49L55 50L56 50L56 49L55 49L55 48L54 48L54 47L55 47L55 46L54 46L54 45L52 45L52 47L51 47L51 46L50 46L50 47L49 47L49 46L48 46L48 44L47 44L47 45L46 45L46 46L48 46L48 47L45 47L45 48L44 48L44 47L43 47L43 46L44 46L44 45L45 45L45 44L44 44L44 42L47 42L47 43L48 43L48 42L47 42L47 41L48 41L48 40L46 40L46 41L45 41L45 40L44 40L44 42L42 42L42 41L43 41L43 39L45 39L45 38L47 38L47 39L48 39L48 38L49 38L49 37L51 37L51 36L52 36L52 34L53 34L53 36L54 36L54 34L53 34L53 33L51 33L51 32L49 32L49 31L48 31L48 28L47 28L47 27L48 27L48 25L47 25L47 24L46 24L46 23L45 23L45 24L44 24L44 21L45 21L45 22L47 22L47 23L48 23L48 21L49 21L49 18L47 18L47 17L45 17L45 16L42 16L42 15L43 15L43 14L44 14L44 15L45 15L45 12L44 12L44 13L43 13L43 14L42 14L42 11L45 11L45 10L42 10L42 9L41 9L41 8L42 8L42 6L41 6L41 3L40 3L40 5L39 5L39 2L38 2L38 1L37 1L37 2L35 2L35 3L34 3L34 4L33 4L33 3L32 3L32 4L31 4L31 1ZM32 1L32 2L34 2L34 1ZM42 1L42 2L43 2L43 1ZM44 1L44 2L45 2L45 1ZM46 1L46 2L47 2L47 1ZM37 2L37 3L36 3L36 5L33 5L33 6L32 6L32 8L34 8L34 9L35 9L35 12L34 12L34 10L31 10L31 11L33 11L33 13L35 13L35 12L36 12L36 13L37 13L37 14L38 14L38 12L40 12L40 11L39 11L39 10L40 10L40 8L41 8L41 6L40 6L40 7L39 7L39 6L38 6L38 2ZM9 3L9 4L10 4L10 5L11 5L11 7L12 7L12 6L13 6L13 5L11 5L11 4L10 4L10 3ZM44 4L44 5L45 5L45 4ZM27 5L27 8L30 8L30 5ZM36 5L36 6L35 6L35 7L34 7L34 6L33 6L33 7L34 7L34 8L38 8L38 6L37 6L37 5ZM22 6L22 7L23 7L23 8L24 8L24 7L23 7L23 6ZM28 6L28 7L29 7L29 6ZM36 6L36 7L37 7L37 6ZM0 8L0 10L1 10L1 11L0 11L0 12L2 12L2 9L3 9L3 12L4 12L4 10L5 10L5 8ZM53 8L53 9L54 9L54 8ZM21 9L21 12L25 12L25 11L24 11L24 10L25 10L25 9ZM36 9L36 10L37 10L37 9ZM38 9L38 10L39 10L39 9ZM22 10L22 11L23 11L23 10ZM28 10L28 11L29 11L29 10ZM41 10L41 11L42 11L42 10ZM9 11L9 12L10 12L10 11ZM13 11L13 12L14 12L14 11ZM36 11L36 12L37 12L37 11ZM30 12L30 13L28 13L28 14L25 14L25 13L22 13L22 16L26 16L26 17L21 17L21 18L23 18L23 19L21 19L21 20L23 20L23 21L21 21L21 24L19 24L19 23L20 23L20 22L19 22L19 23L18 23L18 25L17 25L17 26L16 26L16 27L15 27L15 29L14 29L14 27L13 27L13 28L12 28L12 29L11 29L11 31L10 31L10 32L9 32L9 33L8 33L8 32L6 32L6 33L7 33L7 34L8 34L8 35L7 35L7 36L9 36L9 37L10 37L10 38L11 38L11 37L12 37L12 38L13 38L13 37L14 37L14 36L13 36L13 35L14 35L14 34L15 34L15 35L16 35L16 33L19 33L19 31L18 31L18 30L19 30L19 29L21 29L21 30L22 30L22 31L20 31L20 33L21 33L21 35L22 35L22 34L24 34L24 35L27 35L27 33L31 33L31 34L29 34L29 36L28 36L28 37L26 37L26 38L25 38L25 41L23 41L23 42L25 42L25 43L26 43L26 42L27 42L27 41L29 41L29 42L30 42L30 43L31 43L31 42L33 42L33 41L34 41L34 40L33 40L33 39L31 39L31 38L32 38L32 35L40 35L40 36L36 36L36 37L37 37L37 38L38 38L38 37L39 37L39 38L40 38L40 36L41 36L41 37L42 37L42 38L43 38L43 37L44 37L44 38L45 38L45 37L44 37L44 34L43 34L43 32L45 32L45 33L47 33L47 34L45 34L45 36L48 36L48 33L47 33L47 32L48 32L48 31L47 31L47 30L46 30L46 29L47 29L47 28L46 28L46 27L47 27L47 26L46 26L46 27L44 27L44 26L45 26L45 25L46 25L46 24L45 24L45 25L44 25L44 24L43 24L43 23L40 23L40 22L39 22L39 23L38 23L38 24L37 24L37 22L38 22L38 19L39 19L39 18L38 18L38 17L37 17L37 16L38 16L38 15L37 15L37 16L36 16L36 14L31 14L31 13L32 13L32 12ZM0 13L0 15L1 15L1 13ZM50 13L50 14L51 14L51 13ZM8 14L8 16L9 16L9 15L10 15L10 14ZM30 14L30 15L29 15L29 16L28 16L28 15L26 15L26 16L28 16L28 18L29 18L29 19L28 19L28 20L27 20L27 19L26 19L26 20L25 20L25 18L24 18L24 21L23 21L23 22L22 22L22 23L23 23L23 24L21 24L21 25L20 25L20 27L19 27L19 25L18 25L18 27L16 27L16 28L18 28L18 29L15 29L15 30L14 30L14 29L13 29L13 31L12 31L12 32L10 32L10 33L9 33L9 36L10 36L10 35L11 35L11 36L12 36L12 35L11 35L11 34L12 34L12 32L13 32L13 31L14 31L14 33L13 33L13 34L14 34L14 33L15 33L15 31L16 31L16 32L17 32L17 30L18 30L18 29L19 29L19 28L22 28L22 30L23 30L23 31L22 31L22 32L21 32L21 33L25 33L25 34L26 34L26 33L27 33L27 31L25 31L25 32L23 32L23 31L24 31L24 29L25 29L25 30L26 30L26 27L25 27L25 26L26 26L26 24L27 24L27 26L30 26L30 23L31 23L31 24L32 24L32 25L31 25L31 28L32 28L32 29L31 29L31 31L30 31L30 32L31 32L31 33L32 33L32 34L31 34L31 35L32 35L32 34L39 34L39 33L41 33L41 34L40 34L40 35L41 35L41 34L42 34L42 35L43 35L43 34L42 34L42 33L41 33L41 32L42 32L42 31L46 31L46 32L47 32L47 31L46 31L46 30L45 30L45 28L44 28L44 30L42 30L42 29L43 29L43 28L42 28L42 27L43 27L43 26L41 26L41 27L40 27L40 26L39 26L39 24L40 24L40 25L41 25L41 24L40 24L40 23L39 23L39 24L38 24L38 26L36 26L36 25L33 25L33 24L32 24L32 23L31 23L31 22L29 22L29 19L33 19L33 20L32 20L32 21L33 21L33 23L34 23L34 24L35 24L35 23L36 23L36 22L37 22L37 21L36 21L36 20L37 20L37 19L38 19L38 18L37 18L37 19L36 19L36 18L35 18L35 17L36 17L36 16L35 16L35 15L34 15L34 16L30 16L30 15L31 15L31 14ZM40 14L40 15L39 15L39 16L41 16L41 17L42 17L42 18L41 18L41 19L40 19L40 20L39 20L39 21L40 21L40 20L41 20L41 19L42 19L42 20L46 20L46 21L47 21L47 20L46 20L46 19L47 19L47 18L45 18L45 17L42 17L42 16L41 16L41 15L42 15L42 14ZM18 15L18 16L17 16L17 17L19 17L19 18L18 18L18 21L20 21L20 20L19 20L19 18L20 18L20 17L19 17L19 15ZM20 15L20 16L21 16L21 15ZM15 16L15 17L16 17L16 16ZM34 16L34 17L35 17L35 16ZM54 16L54 17L55 17L55 16ZM1 17L1 18L2 18L2 17ZM7 17L7 18L8 18L8 17ZM26 17L26 18L27 18L27 17ZM29 17L29 18L33 18L33 19L35 19L35 18L33 18L33 17ZM15 18L15 21L16 21L16 18ZM42 18L42 19L45 19L45 18ZM13 19L13 20L14 20L14 19ZM26 20L26 22L28 22L28 21L27 21L27 20ZM24 21L24 22L23 22L23 23L24 23L24 24L23 24L23 26L22 26L22 25L21 25L21 26L22 26L22 27L23 27L23 29L24 29L24 27L23 27L23 26L25 26L25 25L24 25L24 24L26 24L26 23L25 23L25 21ZM41 21L41 22L43 22L43 21ZM6 23L6 24L3 24L3 26L1 26L1 27L3 27L3 26L8 26L8 25L6 25L6 24L8 24L8 23ZM27 23L27 24L29 24L29 23ZM32 25L32 26L33 26L33 27L32 27L32 28L33 28L33 29L35 29L35 30L32 30L32 31L31 31L31 32L34 32L34 31L35 31L35 32L36 32L36 33L37 33L37 32L38 32L38 33L39 33L39 32L41 32L41 31L42 31L42 30L41 30L41 29L39 29L39 28L40 28L40 27L39 27L39 28L38 28L38 29L39 29L39 30L36 30L36 29L37 29L37 27L36 27L36 28L35 28L35 26L33 26L33 25ZM5 27L5 30L8 30L8 27ZM27 27L27 30L30 30L30 27ZM33 27L33 28L34 28L34 27ZM49 27L49 30L52 30L52 27ZM55 27L55 28L54 28L54 29L53 29L53 30L55 30L55 28L56 28L56 27ZM6 28L6 29L7 29L7 28ZM28 28L28 29L29 29L29 28ZM50 28L50 29L51 29L51 28ZM1 29L1 30L4 30L4 29ZM40 30L40 31L41 31L41 30ZM28 31L28 32L29 32L29 31ZM36 31L36 32L37 32L37 31ZM38 31L38 32L39 32L39 31ZM10 33L10 34L11 34L11 33ZM49 33L49 34L50 34L50 33ZM19 34L19 35L17 35L17 37L19 37L19 36L20 36L20 34ZM49 35L49 36L51 36L51 35ZM21 36L21 37L22 37L22 36ZM30 36L30 38L31 38L31 36ZM33 36L33 37L35 37L35 36ZM28 37L28 38L29 38L29 37ZM18 38L18 39L19 39L19 38ZM28 39L28 40L29 40L29 41L30 41L30 40L31 40L31 41L33 41L33 40L31 40L31 39ZM9 40L9 41L6 41L6 42L4 42L4 44L5 44L5 45L6 45L6 46L7 46L7 45L10 45L10 43L11 43L11 42L12 42L12 40L11 40L11 42L10 42L10 43L9 43L9 41L10 41L10 40ZM26 40L26 41L25 41L25 42L26 42L26 41L27 41L27 40ZM49 40L49 41L52 41L52 44L53 44L53 43L54 43L54 40L53 40L53 41L52 41L52 40ZM6 42L6 43L7 43L7 44L6 44L6 45L7 45L7 44L9 44L9 43L7 43L7 42ZM16 42L16 43L13 43L13 45L12 45L12 47L13 47L13 48L14 48L14 47L13 47L13 46L16 46L16 45L17 45L17 44L16 44L16 43L17 43L17 42ZM20 42L20 43L21 43L21 42ZM34 42L34 43L32 43L32 44L34 44L34 43L35 43L35 42ZM39 42L39 47L38 47L38 48L39 48L39 47L40 47L40 48L41 48L41 49L42 49L42 50L43 50L43 51L42 51L42 52L43 52L43 53L42 53L42 54L43 54L43 53L44 53L44 54L45 54L45 53L44 53L44 50L43 50L43 49L44 49L44 48L43 48L43 47L42 47L42 46L43 46L43 45L44 45L44 44L43 44L43 43L42 43L42 42L41 42L41 43L40 43L40 42ZM50 42L50 43L51 43L51 42ZM56 43L56 44L57 44L57 43ZM14 44L14 45L16 45L16 44ZM40 44L40 45L41 45L41 46L42 46L42 45L43 45L43 44ZM49 44L49 45L51 45L51 44ZM37 45L37 46L38 46L38 45ZM1 46L1 47L2 47L2 46ZM9 46L9 47L10 47L10 46ZM26 46L26 47L28 47L28 46ZM41 47L41 48L42 48L42 49L43 49L43 48L42 48L42 47ZM45 48L45 50L46 50L46 51L47 51L47 50L46 50L46 49L47 49L47 48ZM11 49L11 50L10 50L10 51L11 51L11 50L12 50L12 49ZM27 49L27 52L30 52L30 49ZM49 49L49 52L52 52L52 49ZM15 50L15 51L16 51L16 52L17 52L17 50ZM22 50L22 51L23 51L23 52L22 52L22 53L25 53L25 54L26 54L26 53L25 53L25 52L26 52L26 50L24 50L24 51L23 51L23 50ZM28 50L28 51L29 51L29 50ZM34 50L34 51L35 51L35 52L36 52L36 51L35 51L35 50ZM50 50L50 51L51 51L51 50ZM24 51L24 52L25 52L25 51ZM32 51L32 52L33 52L33 53L34 53L34 52L33 52L33 51ZM53 51L53 52L54 52L54 51ZM46 52L46 53L47 53L47 52ZM53 53L53 54L54 54L54 53ZM31 55L31 56L32 56L32 55ZM0 0L0 7L7 7L7 0ZM1 1L1 6L6 6L6 1ZM2 2L2 5L5 5L5 2ZM50 0L50 7L57 7L57 0ZM51 1L51 6L56 6L56 1ZM52 2L52 5L55 5L55 2ZM0 50L0 57L7 57L7 50ZM1 51L1 56L6 56L6 51ZM2 52L2 55L5 55L5 52Z" fill="#000000"/></g></g></svg>
