<?xml version="1.0" encoding="UTF-8"?>
<svg xmlns="http://www.w3.org/2000/svg" version="1.1" width="300" height="300" viewBox="0 0 300 300"><rect x="0" y="0" width="300" height="300" fill="#ffffff"/><g transform="scale(4.918)"><g transform="translate(2,2)"><path fill-rule="evenodd" d="M10 0L10 1L8 1L8 2L9 2L9 3L8 3L8 4L9 4L9 3L10 3L10 2L11 2L11 3L12 3L12 4L10 4L10 5L8 5L8 7L9 7L9 8L6 8L6 9L7 9L7 10L6 10L6 11L5 11L5 10L3 10L3 9L5 9L5 8L0 8L0 9L1 9L1 10L0 10L0 11L1 11L1 10L2 10L2 11L5 11L5 12L0 12L0 15L2 15L2 16L0 16L0 17L1 17L1 19L0 19L0 23L1 23L1 25L2 25L2 24L3 24L3 25L4 25L4 26L3 26L3 28L2 28L2 27L0 27L0 30L2 30L2 31L0 31L0 34L2 34L2 33L1 33L1 32L3 32L3 33L4 33L4 34L3 34L3 36L5 36L5 37L3 37L3 38L5 38L5 39L7 39L7 38L9 38L9 40L8 40L8 43L7 43L7 42L5 42L5 41L7 41L7 40L4 40L4 42L5 42L5 43L3 43L3 41L2 41L2 40L3 40L3 39L2 39L2 38L0 38L0 39L1 39L1 41L0 41L0 48L5 48L5 47L8 47L8 48L6 48L6 49L8 49L8 51L9 51L9 52L8 52L8 57L9 57L9 55L10 55L10 54L11 54L11 55L12 55L12 56L13 56L13 57L14 57L14 56L13 56L13 55L12 55L12 54L11 54L11 53L13 53L13 54L14 54L14 55L15 55L15 57L16 57L16 55L15 55L15 54L16 54L16 53L14 53L14 51L15 51L15 52L17 52L17 53L19 53L19 54L17 54L17 57L19 57L19 56L20 56L20 57L21 57L21 53L22 53L22 54L23 54L23 55L22 55L22 56L23 56L23 55L24 55L24 57L26 57L26 56L28 56L28 55L26 55L26 56L25 56L25 53L26 53L26 54L27 54L27 53L28 53L28 54L29 54L29 55L30 55L30 56L29 56L29 57L31 57L31 55L34 55L34 56L36 56L36 57L37 57L37 56L36 56L36 55L38 55L38 57L39 57L39 55L40 55L40 56L41 56L41 57L43 57L43 56L45 56L45 55L43 55L43 53L44 53L44 54L45 54L45 53L47 53L47 55L46 55L46 56L48 56L48 57L49 57L49 56L50 56L50 55L51 55L51 57L52 57L52 56L55 56L55 57L56 57L56 56L55 56L55 55L54 55L54 53L53 53L53 49L54 49L54 48L55 48L55 49L56 49L56 50L55 50L55 51L54 51L54 52L56 52L56 50L57 50L57 49L56 49L56 48L55 48L55 47L56 47L56 46L57 46L57 45L54 45L54 44L55 44L55 43L56 43L56 44L57 44L57 43L56 43L56 42L55 42L55 41L54 41L54 43L53 43L53 42L51 42L51 41L52 41L52 40L51 40L51 39L50 39L50 38L49 38L49 36L48 36L48 33L47 33L47 34L45 34L45 36L46 36L46 37L47 37L47 38L46 38L46 39L42 39L42 38L43 38L43 37L44 37L44 38L45 38L45 37L44 37L44 35L40 35L40 36L36 36L36 39L35 39L35 38L33 38L33 40L30 40L30 41L29 41L29 43L28 43L28 42L26 42L26 41L27 41L27 39L28 39L28 40L29 40L29 39L31 39L31 38L32 38L32 35L30 35L30 34L29 34L29 35L30 35L30 36L29 36L29 37L28 37L28 36L27 36L27 35L26 35L26 34L25 34L25 33L30 33L30 32L33 32L33 31L36 31L36 30L38 30L38 29L39 29L39 31L40 31L40 32L39 32L39 34L38 34L38 33L37 33L37 32L38 32L38 31L37 31L37 32L35 32L35 33L36 33L36 34L34 34L34 33L33 33L33 34L34 34L34 35L33 35L33 37L34 37L34 35L37 35L37 34L38 34L38 35L39 35L39 34L40 34L40 32L41 32L41 34L43 34L43 33L42 33L42 32L46 32L46 31L47 31L47 32L48 32L48 31L49 31L49 35L50 35L50 32L51 32L51 33L54 33L54 34L55 34L55 35L54 35L54 36L53 36L53 34L52 34L52 36L51 36L51 37L52 37L52 36L53 36L53 38L52 38L52 39L53 39L53 38L54 38L54 40L55 40L55 39L57 39L57 37L56 37L56 34L57 34L57 33L56 33L56 30L57 30L57 27L53 27L53 25L54 25L54 26L57 26L57 25L55 25L55 23L56 23L56 22L57 22L57 21L56 21L56 20L55 20L55 19L56 19L56 18L57 18L57 17L56 17L56 18L55 18L55 17L54 17L54 16L55 16L55 15L56 15L56 16L57 16L57 15L56 15L56 14L57 14L57 13L56 13L56 14L55 14L55 13L54 13L54 14L53 14L53 15L54 15L54 16L53 16L53 19L54 19L54 20L55 20L55 21L53 21L53 22L52 22L52 23L51 23L51 22L50 22L50 19L51 19L51 20L52 20L52 19L51 19L51 18L50 18L50 17L47 17L47 18L45 18L45 17L43 17L43 16L47 16L47 15L49 15L49 16L52 16L52 15L50 15L50 11L51 11L51 10L49 10L49 9L50 9L50 8L49 8L49 6L48 6L48 8L46 8L46 7L47 7L47 5L48 5L48 0L46 0L46 1L47 1L47 2L44 2L44 1L45 1L45 0L41 0L41 1L38 1L38 0L35 0L35 1L34 1L34 0L32 0L32 1L34 1L34 2L31 2L31 3L29 3L29 2L30 2L30 1L31 1L31 0L30 0L30 1L29 1L29 0L28 0L28 2L27 2L27 1L26 1L26 0L24 0L24 1L23 1L23 0L21 0L21 2L20 2L20 3L18 3L18 4L20 4L20 3L21 3L21 4L22 4L22 5L21 5L21 6L20 6L20 5L19 5L19 6L18 6L18 7L19 7L19 6L20 6L20 7L21 7L21 6L22 6L22 8L21 8L21 9L22 9L22 10L20 10L20 8L17 8L17 4L16 4L16 3L15 3L15 4L14 4L14 2L12 2L12 0ZM14 0L14 1L15 1L15 0ZM18 1L18 2L19 2L19 1ZM22 1L22 2L23 2L23 3L22 3L22 4L24 4L24 5L23 5L23 7L24 7L24 8L22 8L22 9L25 9L25 12L23 12L23 11L24 11L24 10L22 10L22 11L20 11L20 12L19 12L19 9L17 9L17 8L16 8L16 6L15 6L15 7L14 7L14 6L13 6L13 8L12 8L12 6L11 6L11 7L10 7L10 6L9 6L9 7L10 7L10 9L9 9L9 11L10 11L10 12L8 12L8 11L6 11L6 12L8 12L8 13L6 13L6 14L5 14L5 13L3 13L3 14L2 14L2 13L1 13L1 14L2 14L2 15L3 15L3 18L2 18L2 19L1 19L1 21L2 21L2 22L1 22L1 23L3 23L3 24L4 24L4 23L5 23L5 24L8 24L8 25L6 25L6 26L8 26L8 25L9 25L9 23L10 23L10 22L11 22L11 23L13 23L13 24L12 24L12 25L10 25L10 28L9 28L9 30L10 30L10 32L11 32L11 33L9 33L9 32L8 32L8 33L6 33L6 32L7 32L7 31L6 31L6 32L5 32L5 31L4 31L4 28L3 28L3 29L2 29L2 28L1 28L1 29L2 29L2 30L3 30L3 31L4 31L4 32L5 32L5 33L6 33L6 34L4 34L4 35L5 35L5 36L7 36L7 37L5 37L5 38L7 38L7 37L9 37L9 36L10 36L10 39L11 39L11 37L12 37L12 36L14 36L14 38L12 38L12 40L9 40L9 41L12 41L12 42L9 42L9 44L7 44L7 43L5 43L5 44L3 44L3 43L1 43L1 44L2 44L2 46L1 46L1 47L2 47L2 46L3 46L3 47L5 47L5 46L3 46L3 45L6 45L6 46L7 46L7 45L8 45L8 46L9 46L9 45L10 45L10 47L9 47L9 49L13 49L13 48L14 48L14 49L16 49L16 50L15 50L15 51L18 51L18 52L19 52L19 53L21 53L21 52L22 52L22 53L23 53L23 54L24 54L24 53L23 53L23 52L24 52L24 51L23 51L23 50L21 50L21 49L24 49L24 48L21 48L21 46L22 46L22 47L25 47L25 50L26 50L26 48L29 48L29 47L26 47L26 46L30 46L30 45L31 45L31 43L29 43L29 45L27 45L27 43L26 43L26 42L22 42L22 41L24 41L24 40L25 40L25 38L26 38L26 39L27 39L27 38L28 38L28 37L27 37L27 36L26 36L26 35L25 35L25 34L24 34L24 36L21 36L21 35L23 35L23 34L21 34L21 33L20 33L20 35L18 35L18 34L19 34L19 33L18 33L18 32L19 32L19 31L20 31L20 32L21 32L21 31L22 31L22 33L24 33L24 31L25 31L25 32L27 32L27 31L25 31L25 30L26 30L26 27L25 27L25 26L26 26L26 25L27 25L27 26L29 26L29 25L32 25L32 26L31 26L31 27L33 27L33 28L31 28L31 30L32 30L32 31L33 31L33 30L35 30L35 29L33 29L33 28L34 28L34 27L33 27L33 25L34 25L34 26L35 26L35 24L34 24L34 22L35 22L35 23L36 23L36 22L37 22L37 21L36 21L36 20L37 20L37 19L38 19L38 22L39 22L39 20L40 20L40 24L39 24L39 23L37 23L37 24L38 24L38 26L37 26L37 27L35 27L35 28L37 28L37 29L38 29L38 28L39 28L39 29L41 29L41 30L42 30L42 31L41 31L41 32L42 32L42 31L43 31L43 30L42 30L42 29L43 29L43 28L42 28L42 27L45 27L45 26L46 26L46 28L47 28L47 29L46 29L46 30L45 30L45 28L44 28L44 31L46 31L46 30L47 30L47 31L48 31L48 28L47 28L47 27L48 27L48 26L47 26L47 25L49 25L49 26L52 26L52 25L53 25L53 24L51 24L51 23L50 23L50 22L49 22L49 24L48 24L48 23L45 23L45 24L44 24L44 21L45 21L45 22L47 22L47 21L48 21L48 19L45 19L45 18L42 18L42 16L40 16L40 15L41 15L41 14L42 14L42 15L43 15L43 14L42 14L42 11L43 11L43 12L44 12L44 15L45 15L45 12L46 12L46 14L47 14L47 13L49 13L49 12L47 12L47 11L48 11L48 9L49 9L49 8L48 8L48 9L46 9L46 8L44 8L44 6L45 6L45 7L46 7L46 5L47 5L47 3L43 3L43 1L41 1L41 2L42 2L42 3L40 3L40 4L39 4L39 2L38 2L38 1L37 1L37 2L36 2L36 1L35 1L35 2L34 2L34 4L33 4L33 3L32 3L32 4L31 4L31 8L33 8L33 9L34 9L34 10L33 10L33 11L31 11L31 10L32 10L32 9L31 9L31 10L27 10L27 9L26 9L26 6L25 6L25 4L26 4L26 3L25 3L25 4L24 4L24 2L23 2L23 1ZM25 1L25 2L26 2L26 1ZM37 2L37 3L36 3L36 5L35 5L35 6L34 6L34 5L33 5L33 6L32 6L32 7L33 7L33 8L34 8L34 7L35 7L35 9L36 9L36 10L34 10L34 11L33 11L33 13L32 13L32 12L31 12L31 11L30 11L30 12L29 12L29 11L27 11L27 10L26 10L26 11L27 11L27 12L25 12L25 13L23 13L23 14L24 14L24 15L22 15L22 14L20 14L20 15L19 15L19 13L18 13L18 12L15 12L15 13L18 13L18 15L19 15L19 16L18 16L18 17L17 17L17 14L15 14L15 15L16 15L16 16L15 16L15 17L14 17L14 16L13 16L13 14L14 14L14 13L13 13L13 14L12 14L12 12L14 12L14 11L12 11L12 12L11 12L11 13L8 13L8 15L7 15L7 14L6 14L6 15L5 15L5 14L3 14L3 15L5 15L5 16L6 16L6 17L5 17L5 18L6 18L6 19L5 19L5 20L6 20L6 21L4 21L4 19L3 19L3 20L2 20L2 21L4 21L4 22L3 22L3 23L4 23L4 22L5 22L5 23L7 23L7 22L8 22L8 21L7 21L7 20L8 20L8 19L9 19L9 21L10 21L10 19L11 19L11 20L13 20L13 21L12 21L12 22L13 22L13 21L15 21L15 22L14 22L14 23L15 23L15 24L14 24L14 25L13 25L13 26L14 26L14 25L15 25L15 26L16 26L16 25L17 25L17 26L18 26L18 27L17 27L17 28L16 28L16 27L15 27L15 29L14 29L14 27L13 27L13 28L12 28L12 29L11 29L11 28L10 28L10 30L12 30L12 29L14 29L14 31L13 31L13 33L12 33L12 34L10 34L10 36L12 36L12 34L14 34L14 35L15 35L15 37L16 37L16 38L15 38L15 39L14 39L14 40L12 40L12 41L14 41L14 40L15 40L15 39L16 39L16 41L19 41L19 45L18 45L18 44L15 44L15 45L18 45L18 47L19 47L19 48L18 48L18 49L17 49L17 47L15 47L15 48L16 48L16 49L17 49L17 50L18 50L18 51L19 51L19 50L20 50L20 49L21 49L21 48L20 48L20 47L19 47L19 45L22 45L22 44L20 44L20 43L22 43L22 42L20 42L20 41L19 41L19 39L20 39L20 38L19 38L19 39L18 39L18 40L17 40L17 38L18 38L18 37L20 37L20 36L17 36L17 37L16 37L16 35L17 35L17 34L16 34L16 33L17 33L17 32L16 32L16 33L14 33L14 32L15 32L15 29L17 29L17 30L16 30L16 31L17 31L17 30L19 30L19 29L21 29L21 30L22 30L22 31L24 31L24 30L25 30L25 29L23 29L23 26L25 26L25 25L26 25L26 24L25 24L25 23L26 23L26 22L25 22L25 21L26 21L26 18L25 18L25 16L26 16L26 17L28 17L28 16L26 16L26 15L30 15L30 16L31 16L31 17L29 17L29 18L31 18L31 20L29 20L29 19L28 19L28 18L27 18L27 22L28 22L28 23L27 23L27 24L29 24L29 23L30 23L30 24L32 24L32 23L33 23L33 22L34 22L34 21L35 21L35 20L34 20L34 21L32 21L32 20L33 20L33 19L37 19L37 18L38 18L38 19L40 19L40 20L45 20L45 19L42 19L42 18L41 18L41 17L40 17L40 16L38 16L38 15L40 15L40 14L36 14L36 15L35 15L35 14L33 14L33 13L38 13L38 12L40 12L40 10L44 10L44 12L45 12L45 10L46 10L46 11L47 11L47 10L46 10L46 9L44 9L44 8L43 8L43 6L42 6L42 5L43 5L43 4L40 4L40 5L41 5L41 6L40 6L40 7L41 7L41 8L42 8L42 9L39 9L39 10L38 10L38 9L37 9L37 6L36 6L36 5L38 5L38 4L37 4L37 3L38 3L38 2ZM27 3L27 4L29 4L29 3ZM12 4L12 5L13 5L13 4ZM15 4L15 5L16 5L16 4ZM44 4L44 5L46 5L46 4ZM27 5L27 8L30 8L30 5ZM24 6L24 7L25 7L25 6ZM28 6L28 7L29 7L29 6ZM33 6L33 7L34 7L34 6ZM35 6L35 7L36 7L36 6ZM38 6L38 7L39 7L39 6ZM41 6L41 7L42 7L42 6ZM13 8L13 9L10 9L10 11L11 11L11 10L15 10L15 9L16 9L16 8L15 8L15 9L14 9L14 8ZM51 8L51 9L52 9L52 8ZM53 8L53 9L54 9L54 8ZM55 8L55 9L56 9L56 10L55 10L55 11L54 11L54 10L53 10L53 11L52 11L52 12L53 12L53 11L54 11L54 12L55 12L55 11L56 11L56 12L57 12L57 11L56 11L56 10L57 10L57 9L56 9L56 8ZM16 10L16 11L18 11L18 10ZM37 10L37 11L36 11L36 12L37 12L37 11L38 11L38 10ZM34 11L34 12L35 12L35 11ZM20 12L20 13L22 13L22 12ZM28 12L28 13L26 13L26 14L25 14L25 15L26 15L26 14L28 14L28 13L29 13L29 14L30 14L30 13L29 13L29 12ZM51 13L51 14L52 14L52 13ZM9 14L9 16L8 16L8 17L10 17L10 18L9 18L9 19L10 19L10 18L11 18L11 17L12 17L12 19L13 19L13 20L14 20L14 19L13 19L13 18L14 18L14 17L12 17L12 14L11 14L11 15L10 15L10 14ZM31 14L31 16L32 16L32 17L31 17L31 18L32 18L32 19L33 19L33 18L36 18L36 16L37 16L37 17L38 17L38 18L39 18L39 17L38 17L38 16L37 16L37 15L36 15L36 16L35 16L35 15L34 15L34 16L35 16L35 17L33 17L33 16L32 16L32 15L33 15L33 14ZM6 15L6 16L7 16L7 15ZM20 15L20 16L19 16L19 17L18 17L18 19L17 19L17 17L15 17L15 21L16 21L16 22L15 22L15 23L16 23L16 24L15 24L15 25L16 25L16 24L17 24L17 23L20 23L20 22L19 22L19 21L21 21L21 24L22 24L22 25L20 25L20 24L19 24L19 25L20 25L20 27L19 27L19 28L20 28L20 27L22 27L22 25L25 25L25 24L24 24L24 23L23 23L23 22L24 22L24 21L23 21L23 20L25 20L25 18L24 18L24 19L22 19L22 21L21 21L21 19L19 19L19 17L20 17L20 18L21 18L21 17L20 17L20 16L21 16L21 15ZM22 16L22 17L24 17L24 16ZM6 17L6 18L7 18L7 19L6 19L6 20L7 20L7 19L8 19L8 18L7 18L7 17ZM40 18L40 19L41 19L41 18ZM18 19L18 21L19 21L19 19ZM28 20L28 22L30 22L30 23L31 23L31 22L30 22L30 21L29 21L29 20ZM46 20L46 21L47 21L47 20ZM6 21L6 22L7 22L7 21ZM22 21L22 22L23 22L23 21ZM41 21L41 22L42 22L42 23L41 23L41 24L43 24L43 25L39 25L39 26L38 26L38 27L40 27L40 28L41 28L41 27L42 27L42 26L44 26L44 24L43 24L43 21ZM53 22L53 23L54 23L54 22ZM22 23L22 24L23 24L23 23ZM45 24L45 25L46 25L46 24ZM49 24L49 25L51 25L51 24ZM5 27L5 30L8 30L8 27ZM27 27L27 30L30 30L30 27ZM49 27L49 30L52 30L52 27ZM6 28L6 29L7 29L7 28ZM17 28L17 29L18 29L18 28ZM21 28L21 29L22 29L22 30L23 30L23 29L22 29L22 28ZM28 28L28 29L29 29L29 28ZM50 28L50 29L51 29L51 28ZM54 28L54 29L53 29L53 30L54 30L54 29L55 29L55 28ZM32 29L32 30L33 30L33 29ZM11 31L11 32L12 32L12 31ZM28 31L28 32L29 32L29 31ZM52 31L52 32L54 32L54 33L55 33L55 34L56 34L56 33L55 33L55 32L54 32L54 31ZM6 34L6 35L9 35L9 34ZM46 35L46 36L47 36L47 37L48 37L48 36L47 36L47 35ZM0 36L0 37L2 37L2 36ZM24 36L24 37L21 37L21 41L22 41L22 38L24 38L24 37L26 37L26 38L27 38L27 37L26 37L26 36ZM30 36L30 38L31 38L31 36ZM40 36L40 38L39 38L39 37L38 37L38 38L37 38L37 40L38 40L38 42L39 42L39 41L40 41L40 43L41 43L41 41L42 41L42 39L41 39L41 38L42 38L42 37L43 37L43 36L42 36L42 37L41 37L41 36ZM54 36L54 38L55 38L55 36ZM38 38L38 39L39 39L39 38ZM48 38L48 39L47 39L47 41L45 41L45 40L44 40L44 41L43 41L43 44L39 44L39 43L37 43L37 44L38 44L38 46L37 46L37 45L35 45L35 44L36 44L36 41L33 41L33 43L32 43L32 46L31 46L31 47L30 47L30 48L31 48L31 49L33 49L33 50L31 50L31 52L32 52L32 54L34 54L34 55L35 55L35 53L36 53L36 52L37 52L37 50L40 50L40 51L39 51L39 52L40 52L40 55L41 55L41 56L43 56L43 55L42 55L42 54L41 54L41 53L43 53L43 52L42 52L42 51L44 51L44 53L45 53L45 50L47 50L47 51L46 51L46 52L47 52L47 53L48 53L48 54L51 54L51 55L53 55L53 54L51 54L51 53L48 53L48 52L47 52L47 51L48 51L48 48L49 48L49 47L52 47L52 48L54 48L54 47L55 47L55 46L54 46L54 45L51 45L51 44L50 44L50 45L49 45L49 44L47 44L47 45L46 45L46 46L47 46L47 47L46 47L46 48L42 48L42 47L43 47L43 46L42 46L42 45L43 45L43 44L44 44L44 47L45 47L45 42L48 42L48 43L49 43L49 42L48 42L48 41L51 41L51 40L49 40L49 38ZM23 39L23 40L24 40L24 39ZM34 39L34 40L35 40L35 39ZM1 41L1 42L2 42L2 41ZM30 41L30 42L32 42L32 41ZM44 41L44 42L45 42L45 41ZM12 42L12 44L10 44L10 45L11 45L11 47L10 47L10 48L11 48L11 47L12 47L12 48L13 48L13 47L14 47L14 45L13 45L13 46L12 46L12 44L13 44L13 43L15 43L15 42ZM17 42L17 43L18 43L18 42ZM34 42L34 43L33 43L33 44L34 44L34 43L35 43L35 42ZM50 42L50 43L51 43L51 42ZM24 43L24 44L23 44L23 45L24 45L24 46L25 46L25 45L26 45L26 44L25 44L25 43ZM52 43L52 44L53 44L53 43ZM6 44L6 45L7 45L7 44ZM24 44L24 45L25 45L25 44ZM39 45L39 46L40 46L40 48L38 48L38 49L40 49L40 50L44 50L44 49L40 49L40 48L41 48L41 47L42 47L42 46L40 46L40 45ZM47 45L47 46L49 46L49 45ZM50 45L50 46L51 46L51 45ZM32 46L32 47L31 47L31 48L34 48L34 49L35 49L35 48L36 48L36 50L37 50L37 48L36 48L36 47L37 47L37 46ZM53 46L53 47L54 47L54 46ZM34 47L34 48L35 48L35 47ZM19 48L19 49L18 49L18 50L19 50L19 49L20 49L20 48ZM27 49L27 52L30 52L30 49ZM49 49L49 52L52 52L52 49ZM9 50L9 51L10 51L10 50ZM11 50L11 52L12 52L12 50ZM13 50L13 51L14 51L14 50ZM28 50L28 51L29 51L29 50ZM33 50L33 51L32 51L32 52L33 52L33 51L35 51L35 52L36 52L36 51L35 51L35 50ZM50 50L50 51L51 51L51 50ZM20 51L20 52L21 52L21 51ZM25 51L25 52L26 52L26 51ZM40 51L40 52L41 52L41 51ZM29 53L29 54L30 54L30 53ZM38 53L38 55L39 55L39 53ZM19 54L19 55L18 55L18 56L19 56L19 55L20 55L20 54ZM48 55L48 56L49 56L49 55ZM0 0L0 7L7 7L7 0ZM1 1L1 6L6 6L6 1ZM2 2L2 5L5 5L5 2ZM50 0L50 7L57 7L57 0ZM51 1L51 6L56 6L56 1ZM52 2L52 5L55 5L55 2ZM0 50L0 57L7 57L7 50ZM1 51L1 56L6 56L6 51ZM2 52L2 55L5 55L5 52Z" fill="#000000"/></g></g></svg>
