<?xml version="1.0" encoding="UTF-8"?>
<svg xmlns="http://www.w3.org/2000/svg" version="1.1" width="300" height="300" viewBox="0 0 300 300"><rect x="0" y="0" width="300" height="300" fill="#ffffff"/><g transform="scale(4.918)"><g transform="translate(2,2)"><path fill-rule="evenodd" d="M9 0L9 1L8 1L8 2L9 2L9 1L10 1L10 2L11 2L11 3L8 3L8 4L10 4L10 5L8 5L8 7L9 7L9 6L10 6L10 9L9 9L9 8L6 8L6 9L5 9L5 8L0 8L0 10L1 10L1 9L5 9L5 10L6 10L6 11L7 11L7 12L6 12L6 13L7 13L7 12L8 12L8 11L9 11L9 13L8 13L8 14L6 14L6 15L4 15L4 16L3 16L3 15L2 15L2 12L3 12L3 13L5 13L5 11L4 11L4 10L3 10L3 11L1 11L1 12L0 12L0 17L2 17L2 16L3 16L3 18L2 18L2 19L1 19L1 18L0 18L0 19L1 19L1 20L0 20L0 21L1 21L1 22L0 22L0 24L1 24L1 26L0 26L0 30L1 30L1 32L0 32L0 33L1 33L1 34L0 34L0 35L1 35L1 36L0 36L0 37L1 37L1 38L0 38L0 39L1 39L1 38L2 38L2 37L3 37L3 39L2 39L2 41L1 41L1 42L2 42L2 41L3 41L3 43L2 43L2 45L1 45L1 46L0 46L0 48L5 48L5 47L8 47L8 48L9 48L9 46L6 46L6 45L8 45L8 44L9 44L9 45L10 45L10 46L11 46L11 45L12 45L12 47L13 47L13 48L15 48L15 49L14 49L14 50L15 50L15 51L16 51L16 52L12 52L12 51L13 51L13 50L12 50L12 51L11 51L11 52L12 52L12 55L9 55L9 54L11 54L11 53L10 53L10 52L8 52L8 57L10 57L10 56L12 56L12 57L13 57L13 56L14 56L14 55L16 55L16 56L15 56L15 57L22 57L22 56L23 56L23 57L26 57L26 55L27 55L27 56L28 56L28 55L27 55L27 53L28 53L28 54L29 54L29 57L30 57L30 56L31 56L31 57L32 57L32 56L31 56L31 55L33 55L33 54L34 54L34 55L35 55L35 54L34 54L34 53L35 53L35 52L36 52L36 53L37 53L37 54L36 54L36 56L35 56L35 57L37 57L37 55L38 55L38 52L39 52L39 55L40 55L40 56L38 56L38 57L40 57L40 56L41 56L41 57L43 57L43 56L45 56L45 57L47 57L47 56L48 56L48 57L49 57L49 55L50 55L50 53L51 53L51 54L53 54L53 55L51 55L51 56L50 56L50 57L52 57L52 56L53 56L53 57L54 57L54 56L55 56L55 57L56 57L56 56L55 56L55 54L53 54L53 53L54 53L54 52L55 52L55 51L56 51L56 52L57 52L57 51L56 51L56 50L57 50L57 49L56 49L56 50L55 50L55 49L53 49L53 47L52 47L52 45L54 45L54 46L57 46L57 43L56 43L56 42L57 42L57 41L56 41L56 42L55 42L55 41L54 41L54 40L56 40L56 39L55 39L55 37L54 37L54 36L56 36L56 37L57 37L57 36L56 36L56 34L57 34L57 33L56 33L56 31L55 31L55 30L57 30L57 27L56 27L56 26L57 26L57 25L56 25L56 26L55 26L55 25L54 25L54 24L57 24L57 23L56 23L56 22L57 22L57 21L55 21L55 22L53 22L53 21L54 21L54 20L57 20L57 19L56 19L56 18L57 18L57 17L54 17L54 16L57 16L57 15L56 15L56 14L57 14L57 12L56 12L56 14L55 14L55 13L54 13L54 15L53 15L53 18L54 18L54 20L53 20L53 19L52 19L52 18L50 18L50 16L52 16L52 15L51 15L51 14L52 14L52 13L51 13L51 12L50 12L50 11L52 11L52 12L53 12L53 11L54 11L54 12L55 12L55 11L56 11L56 8L55 8L55 11L54 11L54 10L52 10L52 8L51 8L51 10L50 10L50 8L49 8L49 6L48 6L48 8L49 8L49 9L48 9L48 10L50 10L50 11L49 11L49 13L47 13L47 14L46 14L46 12L45 12L45 11L44 11L44 8L43 8L43 6L42 6L42 5L43 5L43 3L47 3L47 5L46 5L46 7L47 7L47 5L48 5L48 0L46 0L46 1L44 1L44 2L42 2L42 1L43 1L43 0L42 0L42 1L41 1L41 2L39 2L39 1L38 1L38 0L37 0L37 1L36 1L36 2L37 2L37 3L36 3L36 5L34 5L34 3L35 3L35 1L34 1L34 0L33 0L33 1L32 1L32 2L30 2L30 1L31 1L31 0L30 0L30 1L29 1L29 0L28 0L28 3L27 3L27 1L26 1L26 0L21 0L21 2L22 2L22 1L23 1L23 2L24 2L24 3L23 3L23 4L19 4L19 2L20 2L20 0L19 0L19 1L16 1L16 2L15 2L15 3L16 3L16 2L17 2L17 3L18 3L18 4L17 4L17 5L18 5L18 7L17 7L17 6L16 6L16 7L15 7L15 5L16 5L16 4L13 4L13 3L14 3L14 2L13 2L13 3L12 3L12 1L10 1L10 0ZM13 0L13 1L15 1L15 0ZM24 1L24 2L25 2L25 3L26 3L26 4L25 4L25 5L26 5L26 4L27 4L27 3L26 3L26 2L25 2L25 1ZM33 1L33 3L32 3L32 4L31 4L31 3L28 3L28 4L31 4L31 8L32 8L32 9L33 9L33 10L32 10L32 11L33 11L33 10L35 10L35 11L34 11L34 12L36 12L36 11L39 11L39 10L40 10L40 12L38 12L38 14L36 14L36 13L33 13L33 12L31 12L31 10L29 10L29 9L28 9L28 10L27 10L27 9L25 9L25 8L26 8L26 6L25 6L25 8L24 8L24 9L25 9L25 12L24 12L24 11L23 11L23 10L21 10L21 9L23 9L23 7L24 7L24 5L22 5L22 6L21 6L21 8L20 8L20 10L21 10L21 13L20 13L20 11L19 11L19 13L20 13L20 14L18 14L18 15L17 15L17 13L18 13L18 12L17 12L17 11L18 11L18 10L17 10L17 9L15 9L15 7L14 7L14 6L13 6L13 7L12 7L12 6L11 6L11 7L12 7L12 8L11 8L11 9L10 9L10 13L9 13L9 19L8 19L8 20L7 20L7 19L6 19L6 18L7 18L7 17L8 17L8 16L7 16L7 15L6 15L6 16L7 16L7 17L5 17L5 19L6 19L6 20L7 20L7 21L6 21L6 22L7 22L7 21L8 21L8 20L9 20L9 21L10 21L10 22L8 22L8 24L10 24L10 23L11 23L11 24L12 24L12 25L8 25L8 26L10 26L10 27L9 27L9 29L10 29L10 31L9 31L9 32L8 32L8 31L4 31L4 27L3 27L3 26L7 26L7 25L6 25L6 24L7 24L7 23L6 23L6 24L4 24L4 22L5 22L5 20L4 20L4 18L3 18L3 20L1 20L1 21L3 21L3 24L2 24L2 25L3 25L3 26L2 26L2 27L1 27L1 28L2 28L2 29L1 29L1 30L2 30L2 31L4 31L4 34L5 34L5 35L4 35L4 36L3 36L3 37L4 37L4 42L5 42L5 41L6 41L6 42L7 42L7 43L3 43L3 45L2 45L2 46L1 46L1 47L2 47L2 46L3 46L3 47L5 47L5 46L4 46L4 44L8 44L8 42L7 42L7 41L6 41L6 40L7 40L7 39L6 39L6 38L8 38L8 40L10 40L10 41L9 41L9 43L11 43L11 44L12 44L12 43L14 43L14 44L15 44L15 45L16 45L16 47L15 47L15 46L14 46L14 45L13 45L13 47L15 47L15 48L17 48L17 45L18 45L18 44L17 44L17 43L18 43L18 42L17 42L17 41L16 41L16 40L17 40L17 37L18 37L18 40L19 40L19 39L20 39L20 38L19 38L19 37L24 37L24 36L26 36L26 35L27 35L27 36L30 36L30 38L31 38L31 39L26 39L26 40L31 40L31 39L32 39L32 41L27 41L27 43L25 43L25 44L21 44L21 41L23 41L23 40L20 40L20 43L19 43L19 45L20 45L20 46L18 46L18 48L19 48L19 49L15 49L15 50L17 50L17 52L16 52L16 53L14 53L14 54L13 54L13 55L12 55L12 56L13 56L13 55L14 55L14 54L16 54L16 53L17 53L17 54L20 54L20 55L21 55L21 56L22 56L22 55L23 55L23 56L24 56L24 55L23 55L23 54L22 54L22 53L26 53L26 51L25 51L25 50L26 50L26 49L25 49L25 48L29 48L29 46L32 46L32 47L33 47L33 48L31 48L31 47L30 47L30 48L31 48L31 49L32 49L32 51L31 51L31 52L32 52L32 54L33 54L33 53L34 53L34 52L32 52L32 51L34 51L34 50L35 50L35 49L36 49L36 48L37 48L37 50L40 50L40 51L39 51L39 52L40 52L40 55L41 55L41 56L42 56L42 55L45 55L45 54L47 54L47 53L48 53L48 52L47 52L47 51L48 51L48 48L50 48L50 47L51 47L51 48L52 48L52 47L51 47L51 46L50 46L50 47L49 47L49 46L48 46L48 44L47 44L47 45L46 45L46 46L48 46L48 47L45 47L45 48L42 48L42 47L43 47L43 46L44 46L44 45L45 45L45 44L44 44L44 42L46 42L46 43L48 43L48 42L47 42L47 41L48 41L48 40L47 40L47 39L48 39L48 36L49 36L49 38L50 38L50 39L49 39L49 41L52 41L52 43L54 43L54 41L52 41L52 40L53 40L53 39L51 39L51 38L53 38L53 36L54 36L54 35L53 35L53 36L52 36L52 34L53 34L53 33L55 33L55 32L54 32L54 31L52 31L52 32L53 32L53 33L50 33L50 32L49 32L49 31L48 31L48 28L47 28L47 27L48 27L48 25L49 25L49 24L50 24L50 26L51 26L51 25L53 25L53 27L55 27L55 26L54 26L54 25L53 25L53 24L54 24L54 23L53 23L53 22L52 22L52 21L53 21L53 20L52 20L52 19L50 19L50 18L47 18L47 17L48 17L48 16L50 16L50 15L46 15L46 16L47 16L47 17L46 17L46 18L44 18L44 17L45 17L45 16L43 16L43 18L42 18L42 15L43 15L43 14L44 14L44 15L45 15L45 12L44 12L44 13L43 13L43 14L42 14L42 10L40 10L40 9L43 9L43 8L42 8L42 6L41 6L41 3L40 3L40 5L39 5L39 2L38 2L38 1L37 1L37 2L38 2L38 6L37 6L37 5L36 5L36 6L35 6L35 7L34 7L34 6L33 6L33 3L34 3L34 1ZM46 1L46 2L47 2L47 1ZM18 4L18 5L19 5L19 7L20 7L20 5L19 5L19 4ZM44 4L44 5L45 5L45 4ZM27 5L27 8L30 8L30 5ZM22 6L22 7L23 7L23 6ZM28 6L28 7L29 7L29 6ZM32 6L32 7L33 7L33 6ZM36 6L36 7L35 7L35 8L34 8L34 9L35 9L35 10L38 10L38 9L40 9L40 8L41 8L41 6L40 6L40 8L38 8L38 9L37 9L37 8L36 8L36 7L37 7L37 6ZM38 6L38 7L39 7L39 6ZM44 6L44 7L45 7L45 6ZM13 7L13 8L12 8L12 9L11 9L11 13L12 13L12 14L10 14L10 15L11 15L11 16L10 16L10 18L11 18L11 19L10 19L10 20L12 20L12 21L11 21L11 23L12 23L12 24L14 24L14 25L17 25L17 23L18 23L18 25L19 25L19 27L20 27L20 29L18 29L18 28L17 28L17 27L18 27L18 26L17 26L17 27L16 27L16 26L15 26L15 27L14 27L14 26L11 26L11 27L12 27L12 28L11 28L11 30L12 30L12 29L15 29L15 30L14 30L14 31L10 31L10 32L9 32L9 33L10 33L10 34L9 34L9 35L7 35L7 34L6 34L6 35L5 35L5 36L4 36L4 37L5 37L5 36L6 36L6 37L8 37L8 36L11 36L11 37L10 37L10 38L9 38L9 39L11 39L11 40L12 40L12 41L13 41L13 42L14 42L14 43L17 43L17 42L16 42L16 41L14 41L14 40L16 40L16 39L13 39L13 38L14 38L14 37L15 37L15 38L16 38L16 37L15 37L15 35L16 35L16 33L19 33L19 31L18 31L18 30L20 30L20 31L21 31L21 32L20 32L20 33L21 33L21 35L22 35L22 36L23 36L23 35L22 35L22 34L24 34L24 35L26 35L26 34L25 34L25 33L29 33L29 32L28 32L28 31L31 31L31 32L30 32L30 34L29 34L29 35L30 35L30 36L31 36L31 38L32 38L32 35L31 35L31 32L35 32L35 33L36 33L36 34L33 34L33 33L32 33L32 34L33 34L33 36L35 36L35 35L39 35L39 34L40 34L40 33L39 33L39 34L37 34L37 33L38 33L38 32L35 32L35 30L36 30L36 31L37 31L37 30L38 30L38 28L37 28L37 27L39 27L39 28L40 28L40 27L41 27L41 26L43 26L43 27L42 27L42 28L43 28L43 29L42 29L42 30L41 30L41 29L39 29L39 32L41 32L41 34L44 34L44 35L40 35L40 36L36 36L36 39L37 39L37 40L35 40L35 41L36 41L36 42L37 42L37 43L36 43L36 44L35 44L35 46L33 46L33 45L32 45L32 43L31 43L31 42L30 42L30 43L27 43L27 44L28 44L28 45L27 45L27 46L26 46L26 47L28 47L28 45L30 45L30 43L31 43L31 45L32 45L32 46L33 46L33 47L35 47L35 48L36 48L36 47L38 47L38 48L41 48L41 47L42 47L42 46L43 46L43 45L44 45L44 44L43 44L43 41L44 41L44 40L43 40L43 39L41 39L41 40L43 40L43 41L39 41L39 42L37 42L37 40L38 40L38 39L37 39L37 38L38 38L38 37L39 37L39 38L40 38L40 36L41 36L41 37L42 37L42 38L43 38L43 37L44 37L44 38L45 38L45 41L46 41L46 39L47 39L47 38L45 38L45 37L44 37L44 35L45 35L45 36L48 36L48 33L47 33L47 34L44 34L44 33L43 33L43 32L45 32L45 31L43 31L43 32L41 32L41 31L42 31L42 30L44 30L44 28L45 28L45 30L46 30L46 31L47 31L47 32L48 32L48 31L47 31L47 30L46 30L46 29L47 29L47 28L46 28L46 27L44 27L44 26L45 26L45 25L46 25L46 24L47 24L47 25L48 25L48 23L49 23L49 22L50 22L50 23L51 23L51 24L53 24L53 23L52 23L52 22L50 22L50 19L47 19L47 18L46 18L46 19L42 19L42 18L41 18L41 19L40 19L40 18L37 18L37 17L38 17L38 16L36 16L36 14L32 14L32 15L30 15L30 14L31 14L31 13L28 13L28 12L30 12L30 11L27 11L27 10L26 10L26 11L27 11L27 12L25 12L25 13L24 13L24 12L23 12L23 13L21 13L21 14L20 14L20 15L18 15L18 16L17 16L17 15L15 15L15 17L14 17L14 15L13 15L13 13L15 13L15 14L16 14L16 13L17 13L17 12L16 12L16 13L15 13L15 10L13 10L13 11L14 11L14 12L13 12L13 13L12 13L12 9L14 9L14 7ZM16 7L16 8L17 8L17 7ZM45 8L45 9L47 9L47 8ZM53 8L53 9L54 9L54 8ZM6 9L6 10L7 10L7 11L8 11L8 10L9 10L9 9L8 9L8 10L7 10L7 9ZM3 11L3 12L4 12L4 11ZM23 13L23 15L25 15L25 16L22 16L22 14L21 14L21 15L20 15L20 16L19 16L19 17L17 17L17 16L16 16L16 17L15 17L15 18L14 18L14 17L13 17L13 15L12 15L12 16L11 16L11 17L13 17L13 18L12 18L12 19L14 19L14 20L13 20L13 21L12 21L12 23L13 23L13 21L14 21L14 24L16 24L16 23L15 23L15 22L16 22L16 21L17 21L17 22L18 22L18 23L19 23L19 25L20 25L20 27L21 27L21 28L22 28L22 29L25 29L25 30L23 30L23 31L22 31L22 30L21 30L21 29L20 29L20 30L21 30L21 31L22 31L22 32L21 32L21 33L25 33L25 32L27 32L27 31L25 31L25 30L26 30L26 27L25 27L25 28L22 28L22 27L23 27L23 24L25 24L25 26L26 26L26 24L28 24L28 25L27 25L27 26L28 26L28 25L29 25L29 24L28 24L28 23L29 23L29 22L30 22L30 24L31 24L31 22L30 22L30 21L31 21L31 20L29 20L29 19L32 19L32 18L33 18L33 19L34 19L34 18L35 18L35 21L34 21L34 20L32 20L32 21L33 21L33 22L35 22L35 23L36 23L36 24L37 24L37 23L38 23L38 25L34 25L34 23L32 23L32 25L33 25L33 26L31 26L31 27L32 27L32 29L31 29L31 31L32 31L32 30L35 30L35 29L33 29L33 28L34 28L34 27L35 27L35 28L36 28L36 27L37 27L37 26L39 26L39 24L40 24L40 25L41 25L41 24L40 24L40 23L44 23L44 25L43 25L43 26L44 26L44 25L45 25L45 23L44 23L44 21L45 21L45 22L47 22L47 23L48 23L48 21L49 21L49 20L47 20L47 19L46 19L46 20L42 20L42 19L41 19L41 20L40 20L40 19L39 19L39 20L38 20L38 19L36 19L36 18L35 18L35 17L36 17L36 16L34 16L34 18L33 18L33 16L30 16L30 15L29 15L29 16L28 16L28 15L27 15L27 14L28 14L28 13L25 13L25 14L24 14L24 13ZM49 13L49 14L51 14L51 13ZM25 14L25 15L26 15L26 14ZM40 14L40 15L39 15L39 16L41 16L41 15L42 15L42 14ZM1 15L1 16L2 16L2 15ZM25 16L25 17L21 17L21 19L22 19L22 20L21 20L21 21L22 21L22 22L21 22L21 23L22 23L22 24L23 24L23 23L22 23L22 22L27 22L27 23L28 23L28 22L27 22L27 21L26 21L26 19L27 19L27 20L28 20L28 19L29 19L29 18L32 18L32 17L28 17L28 16ZM19 17L19 18L20 18L20 17ZM25 17L25 18L24 18L24 20L22 20L22 21L25 21L25 18L27 18L27 19L28 19L28 17ZM15 18L15 21L16 21L16 18ZM22 18L22 19L23 19L23 18ZM17 19L17 21L20 21L20 20L19 20L19 19ZM36 20L36 21L37 21L37 22L36 22L36 23L37 23L37 22L38 22L38 20ZM39 20L39 21L40 21L40 20ZM46 20L46 21L47 21L47 20ZM51 20L51 21L52 21L52 20ZM41 21L41 22L43 22L43 21ZM1 22L1 23L2 23L2 22ZM19 22L19 23L20 23L20 22ZM39 22L39 23L40 23L40 22ZM3 24L3 25L4 25L4 24ZM21 25L21 27L22 27L22 25ZM5 27L5 30L8 30L8 27ZM13 27L13 28L14 28L14 27ZM27 27L27 30L30 30L30 27ZM49 27L49 30L52 30L52 27ZM6 28L6 29L7 29L7 28ZM15 28L15 29L16 29L16 30L18 30L18 29L16 29L16 28ZM28 28L28 29L29 29L29 28ZM50 28L50 29L51 29L51 28ZM54 28L54 29L53 29L53 30L55 30L55 29L56 29L56 28ZM36 29L36 30L37 30L37 29ZM40 30L40 31L41 31L41 30ZM16 31L16 32L17 32L17 31ZM24 31L24 32L25 32L25 31ZM2 32L2 33L3 33L3 32ZM5 32L5 33L7 33L7 32ZM12 32L12 33L11 33L11 34L10 34L10 35L11 35L11 36L13 36L13 37L11 37L11 39L12 39L12 40L13 40L13 39L12 39L12 38L13 38L13 37L14 37L14 35L15 35L15 33L13 33L13 32ZM12 33L12 34L13 34L13 33ZM49 33L49 35L50 35L50 37L52 37L52 36L51 36L51 35L50 35L50 33ZM18 34L18 35L17 35L17 36L18 36L18 37L19 37L19 36L20 36L20 34ZM6 35L6 36L7 36L7 35ZM1 36L1 37L2 37L2 36ZM25 37L25 38L29 38L29 37ZM21 38L21 39L22 39L22 38ZM23 38L23 39L24 39L24 40L25 40L25 39L24 39L24 38ZM33 38L33 41L32 41L32 42L33 42L33 44L34 44L34 43L35 43L35 42L33 42L33 41L34 41L34 39L35 39L35 38ZM5 39L5 40L6 40L6 39ZM39 39L39 40L40 40L40 39ZM10 41L10 42L11 42L11 41ZM25 41L25 42L26 42L26 41ZM22 42L22 43L24 43L24 42ZM40 42L40 43L42 43L42 42ZM50 42L50 43L51 43L51 42ZM37 43L37 44L38 44L38 45L37 45L37 46L39 46L39 43ZM55 43L55 44L54 44L54 45L56 45L56 43ZM16 44L16 45L17 45L17 44ZM20 44L20 45L21 45L21 44ZM25 44L25 45L22 45L22 46L21 46L21 47L22 47L22 46L24 46L24 47L23 47L23 48L25 48L25 45L26 45L26 44ZM40 44L40 45L41 45L41 46L42 46L42 45L43 45L43 44ZM49 44L49 45L51 45L51 44ZM35 46L35 47L36 47L36 46ZM19 47L19 48L20 48L20 49L19 49L19 50L20 50L20 49L21 49L21 48L20 48L20 47ZM54 47L54 48L55 48L55 47ZM56 47L56 48L57 48L57 47ZM6 48L6 49L7 49L7 48ZM45 48L45 49L44 49L44 50L43 50L43 49L42 49L42 50L41 50L41 49L40 49L40 50L41 50L41 51L40 51L40 52L41 52L41 51L42 51L42 52L43 52L43 53L42 53L42 54L41 54L41 55L42 55L42 54L43 54L43 53L44 53L44 54L45 54L45 53L44 53L44 50L45 50L45 51L47 51L47 50L45 50L45 49L46 49L46 48ZM8 49L8 51L9 51L9 50L10 50L10 49ZM22 49L22 50L23 50L23 51L24 51L24 52L25 52L25 51L24 51L24 50L25 50L25 49ZM27 49L27 52L30 52L30 49ZM33 49L33 50L34 50L34 49ZM49 49L49 52L52 52L52 49ZM28 50L28 51L29 51L29 50ZM42 50L42 51L43 51L43 50ZM50 50L50 51L51 51L51 50ZM53 50L53 52L54 52L54 50ZM18 51L18 52L17 52L17 53L19 53L19 52L20 52L20 51ZM21 51L21 53L22 53L22 51ZM36 51L36 52L38 52L38 51ZM46 52L46 53L47 53L47 52ZM29 53L29 54L30 54L30 55L31 55L31 54L30 54L30 53ZM17 55L17 56L18 56L18 55ZM53 55L53 56L54 56L54 55ZM0 0L0 7L7 7L7 0ZM1 1L1 6L6 6L6 1ZM2 2L2 5L5 5L5 2ZM50 0L50 7L57 7L57 0ZM51 1L51 6L56 6L56 1ZM52 2L52 5L55 5L55 2ZM0 50L0 57L7 57L7 50ZM1 51L1 56L6 56L6 51ZM2 52L2 55L5 55L5 52Z" fill="#000000"/></g></g></svg>
