<?xml version="1.0" encoding="UTF-8"?>
<svg xmlns="http://www.w3.org/2000/svg" version="1.1" width="300" height="300" viewBox="0 0 300 300"><rect x="0" y="0" width="300" height="300" fill="#ffffff"/><g transform="scale(4.918)"><g transform="translate(2,2)"><path fill-rule="evenodd" d="M10 0L10 1L8 1L8 2L10 2L10 3L8 3L8 4L11 4L11 3L12 3L12 2L13 2L13 0L12 0L12 2L10 2L10 1L11 1L11 0ZM14 0L14 1L15 1L15 2L14 2L14 3L13 3L13 4L12 4L12 5L11 5L11 6L10 6L10 7L11 7L11 8L10 8L10 9L9 9L9 8L6 8L6 9L5 9L5 8L0 8L0 11L1 11L1 13L2 13L2 14L0 14L0 16L1 16L1 17L2 17L2 18L3 18L3 20L2 20L2 19L1 19L1 21L0 21L0 22L3 22L3 24L5 24L5 25L7 25L7 24L5 24L5 23L8 23L8 22L9 22L9 19L10 19L10 18L11 18L11 19L14 19L14 20L13 20L13 21L15 21L15 22L16 22L16 21L15 21L15 20L16 20L16 19L17 19L17 18L16 18L16 17L19 17L19 16L20 16L20 17L21 17L21 18L20 18L20 19L21 19L21 18L22 18L22 17L21 17L21 16L22 16L22 14L21 14L21 16L20 16L20 15L19 15L19 14L20 14L20 13L22 13L22 12L21 12L21 11L22 11L22 10L24 10L24 11L25 11L25 9L22 9L22 8L24 8L24 7L25 7L25 6L26 6L26 9L29 9L29 10L31 10L31 9L32 9L32 10L33 10L33 11L32 11L32 12L30 12L30 11L28 11L28 10L26 10L26 11L27 11L27 12L25 12L25 13L24 13L24 12L23 12L23 13L24 13L24 14L25 14L25 15L24 15L24 17L23 17L23 18L24 18L24 19L23 19L23 21L22 21L22 20L21 20L21 21L19 21L19 20L18 20L18 21L17 21L17 24L16 24L16 23L12 23L12 22L10 22L10 24L11 24L11 25L9 25L9 24L8 24L8 25L9 25L9 26L3 26L3 25L0 25L0 27L1 27L1 26L3 26L3 27L2 27L2 29L0 29L0 30L2 30L2 31L1 31L1 32L0 32L0 34L1 34L1 33L4 33L4 34L3 34L3 37L4 37L4 38L5 38L5 37L7 37L7 38L6 38L6 39L3 39L3 38L1 38L1 37L2 37L2 35L0 35L0 36L1 36L1 37L0 37L0 39L1 39L1 40L0 40L0 42L2 42L2 43L4 43L4 45L3 45L3 44L2 44L2 47L1 47L1 46L0 46L0 48L5 48L5 47L8 47L8 48L6 48L6 49L8 49L8 51L9 51L9 49L10 49L10 50L11 50L11 51L12 51L12 49L13 49L13 52L12 52L12 53L11 53L11 52L10 52L10 53L9 53L9 52L8 52L8 57L9 57L9 55L10 55L10 56L11 56L11 55L12 55L12 56L14 56L14 57L20 57L20 56L23 56L23 55L24 55L24 56L25 56L25 57L26 57L26 56L28 56L28 55L26 55L26 54L27 54L27 53L28 53L28 54L29 54L29 55L30 55L30 56L29 56L29 57L32 57L32 56L33 56L33 57L37 57L37 56L36 56L36 55L38 55L38 56L39 56L39 55L40 55L40 52L42 52L42 53L41 53L41 54L42 54L42 57L44 57L44 56L43 56L43 53L44 53L44 54L45 54L45 53L44 53L44 50L46 50L46 51L45 51L45 52L48 52L48 53L50 53L50 55L51 55L51 56L50 56L50 57L52 57L52 56L54 56L54 57L56 57L56 56L55 56L55 54L54 54L54 52L55 52L55 51L56 51L56 52L57 52L57 51L56 51L56 50L57 50L57 49L56 49L56 50L55 50L55 49L53 49L53 48L57 48L57 47L56 47L56 46L57 46L57 45L56 45L56 44L57 44L57 43L56 43L56 42L57 42L57 41L55 41L55 39L57 39L57 37L56 37L56 36L57 36L57 35L56 35L56 34L57 34L57 32L56 32L56 30L57 30L57 28L56 28L56 26L57 26L57 25L56 25L56 24L55 24L55 23L56 23L56 22L57 22L57 21L55 21L55 23L52 23L52 22L54 22L54 21L51 21L51 22L50 22L50 19L51 19L51 20L56 20L56 18L57 18L57 17L56 17L56 16L57 16L57 15L56 15L56 14L57 14L57 13L56 13L56 14L55 14L55 13L54 13L54 14L55 14L55 15L54 15L54 16L53 16L53 15L51 15L51 14L52 14L52 13L51 13L51 14L50 14L50 16L45 16L45 15L49 15L49 13L50 13L50 11L52 11L52 12L53 12L53 11L54 11L54 12L56 12L56 10L57 10L57 9L56 9L56 8L55 8L55 9L56 9L56 10L55 10L55 11L54 11L54 10L53 10L53 9L54 9L54 8L53 8L53 9L52 9L52 8L51 8L51 10L49 10L49 9L50 9L50 8L49 8L49 6L48 6L48 7L47 7L47 5L48 5L48 0L45 0L45 1L47 1L47 2L42 2L42 1L44 1L44 0L42 0L42 1L41 1L41 0L40 0L40 1L33 1L33 2L31 2L31 3L30 3L30 1L32 1L32 0L30 0L30 1L29 1L29 0L28 0L28 1L29 1L29 2L27 2L27 1L26 1L26 0L24 0L24 1L23 1L23 0L21 0L21 1L23 1L23 2L19 2L19 1L18 1L18 2L19 2L19 3L17 3L17 1L16 1L16 0ZM40 1L40 2L41 2L41 1ZM23 2L23 3L20 3L20 4L17 4L17 3L16 3L16 4L15 4L15 3L14 3L14 4L15 4L15 5L12 5L12 6L11 6L11 7L12 7L12 6L13 6L13 7L14 7L14 6L15 6L15 8L12 8L12 9L11 9L11 10L13 10L13 11L11 11L11 12L12 12L12 13L14 13L14 14L11 14L11 13L10 13L10 12L9 12L9 11L10 11L10 10L9 10L9 9L6 9L6 10L8 10L8 13L6 13L6 14L11 14L11 15L9 15L9 16L8 16L8 15L6 15L6 16L8 16L8 18L7 18L7 17L6 17L6 18L7 18L7 19L6 19L6 20L8 20L8 19L9 19L9 18L10 18L10 17L11 17L11 18L15 18L15 17L16 17L16 15L17 15L17 16L19 16L19 15L18 15L18 13L20 13L20 11L19 11L19 9L16 9L16 6L15 6L15 5L16 5L16 4L17 4L17 7L18 7L18 6L19 6L19 8L20 8L20 10L22 10L22 9L21 9L21 8L22 8L22 5L21 5L21 4L24 4L24 5L23 5L23 7L24 7L24 6L25 6L25 4L26 4L26 3L25 3L25 2ZM33 2L33 3L32 3L32 4L31 4L31 7L32 7L32 6L33 6L33 8L32 8L32 9L33 9L33 10L34 10L34 12L36 12L36 10L37 10L37 11L38 11L38 10L39 10L39 9L41 9L41 7L42 7L42 6L43 6L43 7L44 7L44 6L45 6L45 7L46 7L46 5L47 5L47 3L42 3L42 4L43 4L43 5L42 5L42 6L41 6L41 7L40 7L40 6L39 6L39 7L40 7L40 8L38 8L38 6L37 6L37 5L36 5L36 3L38 3L38 5L39 5L39 3L38 3L38 2ZM24 3L24 4L25 4L25 3ZM27 3L27 4L29 4L29 3ZM40 3L40 5L41 5L41 3ZM44 4L44 5L46 5L46 4ZM8 5L8 7L9 7L9 5ZM19 5L19 6L20 6L20 7L21 7L21 6L20 6L20 5ZM27 5L27 8L30 8L30 5ZM35 5L35 6L34 6L34 7L35 7L35 8L34 8L34 9L35 9L35 8L36 8L36 9L37 9L37 10L38 10L38 8L36 8L36 7L37 7L37 6L36 6L36 5ZM28 6L28 7L29 7L29 6ZM35 6L35 7L36 7L36 6ZM42 8L42 9L43 9L43 8ZM44 8L44 11L45 11L45 12L44 12L44 13L45 13L45 12L46 12L46 14L47 14L47 13L49 13L49 12L47 12L47 11L49 11L49 10L47 10L47 9L49 9L49 8ZM1 9L1 11L2 11L2 13L3 13L3 14L4 14L4 12L3 12L3 10L4 10L4 11L5 11L5 9ZM13 9L13 10L15 10L15 9ZM16 10L16 11L15 11L15 15L14 15L14 16L11 16L11 17L14 17L14 16L15 16L15 15L16 15L16 13L18 13L18 12L17 12L17 11L18 11L18 10ZM41 10L41 12L38 12L38 13L36 13L36 14L35 14L35 13L33 13L33 12L32 12L32 13L31 13L31 14L32 14L32 15L31 15L31 16L30 16L30 13L29 13L29 12L28 12L28 13L25 13L25 14L26 14L26 15L25 15L25 16L28 16L28 17L27 17L27 18L26 18L26 17L25 17L25 18L26 18L26 19L25 19L25 20L27 20L27 21L25 21L25 22L26 22L26 23L25 23L25 24L24 24L24 23L23 23L23 22L24 22L24 21L23 21L23 22L22 22L22 21L21 21L21 23L23 23L23 24L22 24L22 25L21 25L21 24L19 24L19 23L20 23L20 22L19 22L19 21L18 21L18 24L19 24L19 25L15 25L15 24L12 24L12 23L11 23L11 24L12 24L12 25L11 25L11 27L14 27L14 28L13 28L13 30L12 30L12 32L10 32L10 31L11 31L11 29L12 29L12 28L11 28L11 29L10 29L10 30L9 30L9 31L8 31L8 33L9 33L9 35L6 35L6 36L8 36L8 37L10 37L10 42L8 42L8 43L9 43L9 45L8 45L8 47L10 47L10 46L11 46L11 45L10 45L10 44L12 44L12 43L13 43L13 41L14 41L14 40L12 40L12 39L13 39L13 38L14 38L14 39L15 39L15 40L16 40L16 41L15 41L15 42L14 42L14 43L15 43L15 44L13 44L13 45L12 45L12 48L13 48L13 49L15 49L15 51L14 51L14 52L13 52L13 53L12 53L12 55L14 55L14 54L15 54L15 55L16 55L16 56L17 56L17 55L20 55L20 54L19 54L19 53L21 53L21 54L22 54L22 55L23 55L23 54L24 54L24 53L23 53L23 52L24 52L24 51L25 51L25 53L26 53L26 51L25 51L25 50L26 50L26 49L25 49L25 50L23 50L23 49L24 49L24 46L23 46L23 45L25 45L25 48L26 48L26 46L27 46L27 45L28 45L28 48L31 48L31 50L32 50L32 51L31 51L31 52L32 52L32 54L36 54L36 53L35 53L35 52L36 52L36 50L37 50L37 51L38 51L38 53L37 53L37 54L39 54L39 52L40 52L40 51L43 51L43 50L41 50L41 48L43 48L43 49L45 49L45 48L43 48L43 47L45 47L45 43L49 43L49 42L47 42L47 41L48 41L48 40L49 40L49 41L51 41L51 42L50 42L50 43L51 43L51 44L49 44L49 45L48 45L48 44L47 44L47 45L46 45L46 46L47 46L47 47L46 47L46 48L47 48L47 49L46 49L46 50L47 50L47 51L48 51L48 48L49 48L49 47L51 47L51 48L53 48L53 47L54 47L54 46L53 46L53 45L51 45L51 44L53 44L53 43L54 43L54 40L53 40L53 41L52 41L52 38L54 38L54 37L55 37L55 36L56 36L56 35L55 35L55 36L54 36L54 37L53 37L53 36L52 36L52 34L54 34L54 33L55 33L55 34L56 34L56 32L54 32L54 30L56 30L56 28L54 28L54 29L53 29L53 31L51 31L51 32L49 32L49 31L48 31L48 29L46 29L46 30L42 30L42 29L43 29L43 28L44 28L44 29L45 29L45 28L44 28L44 27L46 27L46 28L47 28L47 27L46 27L46 26L47 26L47 25L49 25L49 26L53 26L53 27L55 27L55 26L56 26L56 25L55 25L55 26L54 26L54 24L51 24L51 23L50 23L50 22L49 22L49 23L48 23L48 24L47 24L47 21L48 21L48 20L49 20L49 19L48 19L48 18L47 18L47 17L46 17L46 18L44 18L44 17L45 17L45 16L44 16L44 14L42 14L42 11L43 11L43 10ZM45 10L45 11L47 11L47 10ZM52 10L52 11L53 11L53 10ZM6 11L6 12L7 12L7 11ZM13 11L13 12L14 12L14 11ZM28 13L28 14L27 14L27 15L29 15L29 13ZM32 13L32 14L33 14L33 15L32 15L32 16L31 16L31 17L29 17L29 18L31 18L31 17L32 17L32 18L34 18L34 19L31 19L31 20L30 20L30 22L29 22L29 21L28 21L28 23L27 23L27 24L29 24L29 25L26 25L26 24L25 24L25 25L24 25L24 24L23 24L23 25L22 25L22 27L21 27L21 26L20 26L20 25L19 25L19 26L18 26L18 27L17 27L17 26L16 26L16 27L15 27L15 29L14 29L14 30L13 30L13 32L14 32L14 33L13 33L13 34L12 34L12 33L10 33L10 35L11 35L11 34L12 34L12 36L10 36L10 37L13 37L13 35L15 35L15 37L14 37L14 38L15 38L15 39L16 39L16 40L17 40L17 41L18 41L18 42L16 42L16 43L18 43L18 42L20 42L20 41L19 41L19 40L18 40L18 39L20 39L20 38L18 38L18 37L20 37L20 36L21 36L21 37L22 37L22 38L24 38L24 37L28 37L28 38L27 38L27 39L26 39L26 38L25 38L25 41L24 41L24 39L23 39L23 41L21 41L21 43L22 43L22 42L23 42L23 43L24 43L24 44L25 44L25 45L26 45L26 44L25 44L25 43L24 43L24 42L26 42L26 43L27 43L27 42L26 42L26 41L31 41L31 42L30 42L30 43L29 43L29 42L28 42L28 45L30 45L30 47L31 47L31 48L33 48L33 49L34 49L34 48L33 48L33 47L35 47L35 48L36 48L36 49L37 49L37 50L38 50L38 51L39 51L39 50L40 50L40 48L41 48L41 47L42 47L42 46L44 46L44 44L43 44L43 43L42 43L42 42L43 42L43 41L42 41L42 40L45 40L45 39L46 39L46 38L45 38L45 37L44 37L44 35L43 35L43 36L41 36L41 35L42 35L42 34L43 34L43 33L44 33L44 34L45 34L45 36L46 36L46 37L47 37L47 38L48 38L48 39L50 39L50 40L51 40L51 39L50 39L50 38L49 38L49 36L50 36L50 37L51 37L51 35L49 35L49 36L48 36L48 33L47 33L47 34L45 34L45 33L44 33L44 32L46 32L46 31L47 31L47 32L48 32L48 31L47 31L47 30L46 30L46 31L44 31L44 32L43 32L43 31L42 31L42 30L37 30L37 28L36 28L36 27L37 27L37 26L38 26L38 25L39 25L39 27L42 27L42 28L43 28L43 27L42 27L42 26L46 26L46 25L47 25L47 24L46 24L46 25L42 25L42 24L45 24L45 23L46 23L46 22L45 22L45 21L44 21L44 23L42 23L42 24L41 24L41 23L40 23L40 22L43 22L43 21L40 21L40 20L41 20L41 18L43 18L43 19L42 19L42 20L45 20L45 19L44 19L44 18L43 18L43 17L44 17L44 16L43 16L43 15L42 15L42 14L41 14L41 15L39 15L39 14L40 14L40 13L39 13L39 14L36 14L36 15L35 15L35 14L33 14L33 13ZM1 15L1 16L2 16L2 17L3 17L3 16L4 16L4 15L3 15L3 16L2 16L2 15ZM33 15L33 16L32 16L32 17L33 17L33 16L35 16L35 17L34 17L34 18L35 18L35 19L34 19L34 22L33 22L33 24L32 24L32 23L31 23L31 22L30 22L30 25L32 25L32 26L33 26L33 28L32 28L32 27L31 27L31 28L32 28L32 29L31 29L31 32L30 32L30 33L27 33L27 32L29 32L29 31L25 31L25 30L26 30L26 27L23 27L23 29L22 29L22 28L21 28L21 29L20 29L20 28L19 28L19 29L20 29L20 31L19 31L19 30L17 30L17 29L18 29L18 28L17 28L17 29L16 29L16 30L17 30L17 31L16 31L16 32L18 32L18 31L19 31L19 33L16 33L16 35L17 35L17 34L19 34L19 35L18 35L18 36L16 36L16 37L15 37L15 38L16 38L16 37L18 37L18 36L19 36L19 35L20 35L20 34L21 34L21 33L22 33L22 35L21 35L21 36L22 36L22 37L24 37L24 36L26 36L26 35L27 35L27 36L28 36L28 37L29 37L29 36L30 36L30 38L31 38L31 39L29 39L29 40L31 40L31 41L33 41L33 42L31 42L31 43L30 43L30 45L31 45L31 43L34 43L34 44L32 44L32 47L33 47L33 46L35 46L35 47L36 47L36 48L37 48L37 49L38 49L38 50L39 50L39 48L40 48L40 47L39 47L39 48L38 48L38 47L36 47L36 46L39 46L39 45L41 45L41 46L42 46L42 45L43 45L43 44L40 44L40 43L41 43L41 42L42 42L42 41L41 41L41 40L40 40L40 39L41 39L41 36L40 36L40 35L39 35L39 36L38 36L38 35L34 35L34 34L35 34L35 33L36 33L36 34L42 34L42 33L43 33L43 32L42 32L42 31L41 31L41 32L40 32L40 31L37 31L37 30L36 30L36 29L33 29L33 28L34 28L34 27L35 27L35 26L37 26L37 25L35 25L35 24L37 24L37 23L38 23L38 24L39 24L39 25L40 25L40 26L41 26L41 24L40 24L40 23L38 23L38 22L39 22L39 20L40 20L40 19L39 19L39 20L38 20L38 19L36 19L36 18L35 18L35 17L36 17L36 16L37 16L37 18L39 18L39 17L40 17L40 18L41 18L41 17L43 17L43 16L39 16L39 15L38 15L38 16L37 16L37 15L36 15L36 16L35 16L35 15ZM9 16L9 17L10 17L10 16ZM51 16L51 17L49 17L49 18L51 18L51 19L55 19L55 18L56 18L56 17L55 17L55 16L54 16L54 18L51 18L51 17L53 17L53 16ZM4 17L4 18L5 18L5 17ZM18 18L18 19L19 19L19 18ZM27 18L27 20L28 20L28 18ZM46 18L46 19L47 19L47 18ZM4 20L4 21L5 21L5 20ZM32 20L32 21L33 21L33 20ZM36 20L36 21L37 21L37 22L36 22L36 23L37 23L37 22L38 22L38 21L37 21L37 20ZM6 21L6 22L7 22L7 21ZM34 22L34 24L33 24L33 25L34 25L34 24L35 24L35 22ZM0 23L0 24L2 24L2 23ZM49 23L49 25L50 25L50 23ZM12 25L12 26L15 26L15 25ZM25 25L25 26L26 26L26 25ZM3 27L3 29L2 29L2 30L4 30L4 27ZM5 27L5 30L8 30L8 27ZM9 27L9 28L10 28L10 27ZM27 27L27 30L30 30L30 27ZM49 27L49 30L52 30L52 27ZM6 28L6 29L7 29L7 28ZM28 28L28 29L29 29L29 28ZM38 28L38 29L39 29L39 28ZM50 28L50 29L51 29L51 28ZM21 29L21 31L20 31L20 33L21 33L21 31L22 31L22 29ZM23 29L23 30L25 30L25 29ZM14 30L14 32L15 32L15 30ZM33 30L33 31L32 31L32 32L31 32L31 33L32 33L32 34L31 34L31 35L30 35L30 34L29 34L29 35L30 35L30 36L31 36L31 38L32 38L32 34L34 34L34 33L35 33L35 32L36 32L36 33L37 33L37 32L36 32L36 31L35 31L35 30ZM2 31L2 32L7 32L7 31ZM23 31L23 35L22 35L22 36L24 36L24 34L25 34L25 35L26 35L26 34L27 34L27 33L26 33L26 32L25 32L25 31ZM33 31L33 32L32 32L32 33L34 33L34 32L35 32L35 31ZM39 32L39 33L40 33L40 32ZM51 32L51 33L50 33L50 34L51 34L51 33L54 33L54 32ZM6 33L6 34L7 34L7 33ZM25 33L25 34L26 34L26 33ZM33 35L33 37L34 37L34 35ZM46 35L46 36L47 36L47 37L48 37L48 36L47 36L47 35ZM36 36L36 38L35 38L35 40L36 40L36 41L35 41L35 42L37 42L37 43L40 43L40 42L41 42L41 41L40 41L40 42L37 42L37 40L38 40L38 41L39 41L39 39L40 39L40 38L39 38L39 39L38 39L38 36ZM39 36L39 37L40 37L40 36ZM43 37L43 39L45 39L45 38L44 38L44 37ZM7 38L7 39L6 39L6 40L5 40L5 42L7 42L7 41L6 41L6 40L7 40L7 39L8 39L8 41L9 41L9 38ZM33 38L33 39L31 39L31 40L33 40L33 39L34 39L34 38ZM27 39L27 40L28 40L28 39ZM36 39L36 40L37 40L37 39ZM1 40L1 41L2 41L2 42L3 42L3 41L4 41L4 40ZM11 40L11 42L12 42L12 40ZM44 42L44 43L45 43L45 42ZM0 43L0 45L1 45L1 43ZM5 43L5 45L4 45L4 46L3 46L3 47L5 47L5 46L7 46L7 45L6 45L6 44L7 44L7 43ZM19 43L19 45L18 45L18 44L15 44L15 45L14 45L14 46L13 46L13 47L14 47L14 48L15 48L15 49L17 49L17 50L16 50L16 51L15 51L15 52L16 52L16 51L19 51L19 52L18 52L18 53L17 53L17 54L18 54L18 53L19 53L19 52L21 52L21 53L22 53L22 54L23 54L23 53L22 53L22 52L21 52L21 51L23 51L23 50L22 50L22 49L21 49L21 50L20 50L20 49L19 49L19 48L20 48L20 46L19 46L19 45L22 45L22 44L20 44L20 43ZM35 43L35 44L36 44L36 45L35 45L35 46L36 46L36 45L38 45L38 44L36 44L36 43ZM55 43L55 44L54 44L54 45L55 45L55 46L56 46L56 45L55 45L55 44L56 44L56 43ZM16 45L16 46L15 46L15 48L17 48L17 47L18 47L18 45ZM16 46L16 47L17 47L17 46ZM21 46L21 48L23 48L23 47L22 47L22 46ZM51 46L51 47L53 47L53 46ZM10 48L10 49L11 49L11 48ZM18 49L18 50L19 50L19 49ZM27 49L27 52L30 52L30 49ZM49 49L49 52L52 52L52 49ZM28 50L28 51L29 51L29 50ZM33 50L33 51L32 51L32 52L35 52L35 50ZM50 50L50 51L51 51L51 50ZM53 50L53 51L54 51L54 50ZM10 53L10 54L11 54L11 53ZM15 53L15 54L16 54L16 53ZM29 53L29 54L30 54L30 53ZM47 54L47 56L46 56L46 55L45 55L45 57L49 57L49 56L48 56L48 55L49 55L49 54ZM51 54L51 55L53 55L53 54ZM25 55L25 56L26 56L26 55ZM31 55L31 56L32 56L32 55ZM34 55L34 56L35 56L35 55ZM0 0L0 7L7 7L7 0ZM1 1L1 6L6 6L6 1ZM2 2L2 5L5 5L5 2ZM50 0L50 7L57 7L57 0ZM51 1L51 6L56 6L56 1ZM52 2L52 5L55 5L55 2ZM0 50L0 57L7 57L7 50ZM1 51L1 56L6 56L6 51ZM2 52L2 55L5 55L5 52Z" fill="#000000"/></g></g></svg>
