<?xml version="1.0" encoding="UTF-8"?>
<svg xmlns="http://www.w3.org/2000/svg" version="1.1" width="300" height="300" viewBox="0 0 300 300"><rect x="0" y="0" width="300" height="300" fill="#ffffff"/><g transform="scale(4.918)"><g transform="translate(2,2)"><path fill-rule="evenodd" d="M9 0L9 1L8 1L8 2L11 2L11 1L10 1L10 0ZM14 0L14 1L15 1L15 2L14 2L14 3L13 3L13 6L12 6L12 5L11 5L11 4L9 4L9 3L8 3L8 4L9 4L9 5L8 5L8 7L9 7L9 5L10 5L10 8L6 8L6 9L8 9L8 10L4 10L4 9L5 9L5 8L0 8L0 10L2 10L2 11L0 11L0 15L1 15L1 17L0 17L0 18L1 18L1 20L2 20L2 21L1 21L1 22L0 22L0 25L1 25L1 28L0 28L0 29L2 29L2 30L1 30L1 31L0 31L0 32L1 32L1 33L0 33L0 34L1 34L1 36L0 36L0 37L2 37L2 34L3 34L3 36L4 36L4 35L5 35L5 34L6 34L6 35L7 35L7 34L6 34L6 33L8 33L8 32L9 32L9 28L10 28L10 27L9 27L9 26L5 26L5 25L7 25L7 24L8 24L8 25L10 25L10 26L11 26L11 29L13 29L13 28L12 28L12 26L14 26L14 28L15 28L15 31L14 31L14 30L13 30L13 32L12 32L12 30L10 30L10 33L9 33L9 34L10 34L10 35L8 35L8 36L5 36L5 37L3 37L3 38L5 38L5 40L6 40L6 41L5 41L5 42L6 42L6 43L4 43L4 41L2 41L2 40L4 40L4 39L2 39L2 38L0 38L0 39L1 39L1 40L0 40L0 41L1 41L1 42L2 42L2 43L0 43L0 45L2 45L2 47L1 47L1 46L0 46L0 48L5 48L5 47L7 47L7 48L6 48L6 49L8 49L8 51L9 51L9 52L8 52L8 57L9 57L9 54L10 54L10 53L9 53L9 52L11 52L11 51L10 51L10 50L11 50L11 48L13 48L13 49L12 49L12 50L13 50L13 49L14 49L14 48L15 48L15 49L17 49L17 50L16 50L16 51L12 51L12 53L11 53L11 56L10 56L10 57L14 57L14 56L15 56L15 57L19 57L19 56L22 56L22 55L21 55L21 53L22 53L22 54L23 54L23 55L24 55L24 56L25 56L25 57L26 57L26 56L25 56L25 54L26 54L26 55L27 55L27 56L28 56L28 55L27 55L27 53L28 53L28 54L29 54L29 55L30 55L30 56L29 56L29 57L32 57L32 56L33 56L33 57L34 57L34 56L33 56L33 55L35 55L35 54L32 54L32 52L33 52L33 53L35 53L35 52L36 52L36 55L37 55L37 56L35 56L35 57L37 57L37 56L38 56L38 57L39 57L39 56L40 56L40 52L42 52L42 53L41 53L41 54L43 54L43 53L44 53L44 54L45 54L45 53L44 53L44 50L43 50L43 49L44 49L44 48L45 48L45 50L46 50L46 51L45 51L45 52L48 52L48 53L47 53L47 54L48 54L48 55L49 55L49 54L48 54L48 53L50 53L50 55L51 55L51 56L50 56L50 57L52 57L52 56L53 56L53 57L54 57L54 56L55 56L55 57L56 57L56 56L55 56L55 55L54 55L54 52L55 52L55 51L56 51L56 52L57 52L57 51L56 51L56 50L57 50L57 49L56 49L56 50L55 50L55 49L54 49L54 48L57 48L57 47L56 47L56 46L57 46L57 43L56 43L56 42L57 42L57 41L54 41L54 43L53 43L53 44L52 44L52 45L50 45L50 46L49 46L49 44L51 44L51 43L50 43L50 42L51 42L51 41L49 41L49 40L52 40L52 41L53 41L53 40L55 40L55 39L57 39L57 37L55 37L55 38L54 38L54 39L53 39L53 38L52 38L52 39L50 39L50 38L48 38L48 39L49 39L49 40L48 40L48 41L47 41L47 40L46 40L46 38L45 38L45 37L44 37L44 35L42 35L42 34L44 34L44 32L48 32L48 31L49 31L49 32L51 32L51 33L50 33L50 34L51 34L51 33L54 33L54 34L52 34L52 36L51 36L51 35L49 35L49 34L48 34L48 33L47 33L47 34L46 34L46 33L45 33L45 34L46 34L46 35L45 35L45 36L46 36L46 37L47 37L47 36L46 36L46 35L49 35L49 36L48 36L48 37L49 37L49 36L51 36L51 37L52 37L52 36L53 36L53 37L54 37L54 36L55 36L55 34L57 34L57 32L56 32L56 30L57 30L57 29L56 29L56 24L55 24L55 23L56 23L56 22L57 22L57 21L55 21L55 22L54 22L54 23L52 23L52 22L53 22L53 21L51 21L51 22L50 22L50 17L47 17L47 18L46 18L46 15L49 15L49 16L50 16L50 15L51 15L51 16L52 16L52 15L51 15L51 14L52 14L52 13L51 13L51 14L50 14L50 15L49 15L49 13L50 13L50 11L51 11L51 10L53 10L53 11L52 11L52 12L53 12L53 11L54 11L54 12L55 12L55 11L56 11L56 12L57 12L57 11L56 11L56 10L57 10L57 9L56 9L56 8L55 8L55 9L56 9L56 10L55 10L55 11L54 11L54 10L53 10L53 9L54 9L54 8L53 8L53 9L52 9L52 8L51 8L51 10L49 10L49 9L50 9L50 8L49 8L49 6L48 6L48 7L47 7L47 5L48 5L48 0L44 0L44 1L43 1L43 0L42 0L42 1L41 1L41 0L39 0L39 1L37 1L37 0L36 0L36 2L39 2L39 3L38 3L38 4L37 4L37 3L36 3L36 5L34 5L34 7L35 7L35 8L33 8L33 6L32 6L32 7L31 7L31 4L32 4L32 3L33 3L33 4L35 4L35 3L33 3L33 1L34 1L34 2L35 2L35 1L34 1L34 0L33 0L33 1L32 1L32 2L30 2L30 1L31 1L31 0L30 0L30 1L29 1L29 0L28 0L28 2L27 2L27 1L26 1L26 0L24 0L24 1L23 1L23 0L21 0L21 2L18 2L18 4L16 4L16 3L17 3L17 1L16 1L16 0ZM25 1L25 2L22 2L22 4L21 4L21 3L20 3L20 4L18 4L18 5L20 5L20 6L19 6L19 7L18 7L18 6L17 6L17 8L16 8L16 6L15 6L15 5L16 5L16 4L15 4L15 3L14 3L14 4L15 4L15 5L14 5L14 6L13 6L13 7L12 7L12 6L11 6L11 7L12 7L12 8L11 8L11 9L10 9L10 10L11 10L11 11L12 11L12 10L13 10L13 11L14 11L14 12L10 12L10 13L9 13L9 14L7 14L7 13L6 13L6 12L8 12L8 11L5 11L5 13L6 13L6 14L4 14L4 13L3 13L3 14L4 14L4 15L3 15L3 16L2 16L2 17L3 17L3 16L4 16L4 15L6 15L6 16L5 16L5 17L4 17L4 18L3 18L3 20L4 20L4 21L6 21L6 22L5 22L5 23L6 23L6 24L7 24L7 23L6 23L6 22L7 22L7 21L9 21L9 22L8 22L8 23L10 23L10 24L12 24L12 23L14 23L14 24L13 24L13 25L14 25L14 26L15 26L15 27L16 27L16 28L17 28L17 29L16 29L16 30L17 30L17 31L16 31L16 32L18 32L18 31L20 31L20 32L19 32L19 33L16 33L16 35L17 35L17 34L19 34L19 35L20 35L20 34L21 34L21 33L22 33L22 37L21 37L21 36L20 36L20 37L18 37L18 36L16 36L16 37L13 37L13 38L11 38L11 35L12 35L12 36L14 36L14 35L15 35L15 34L14 34L14 32L13 32L13 34L14 34L14 35L12 35L12 34L11 34L11 35L10 35L10 37L9 37L9 36L8 36L8 37L6 37L6 38L8 38L8 40L9 40L9 42L10 42L10 43L9 43L9 46L10 46L10 47L9 47L9 49L10 49L10 48L11 48L11 47L12 47L12 46L11 46L11 45L10 45L10 44L12 44L12 42L10 42L10 39L9 39L9 38L11 38L11 39L13 39L13 41L14 41L14 42L16 42L16 43L17 43L17 44L18 44L18 45L16 45L16 46L17 46L17 47L15 47L15 46L14 46L14 45L15 45L15 44L13 44L13 46L14 46L14 47L13 47L13 48L14 48L14 47L15 47L15 48L17 48L17 47L18 47L18 45L19 45L19 49L18 49L18 50L17 50L17 51L16 51L16 52L15 52L15 53L14 53L14 52L13 52L13 54L12 54L12 55L13 55L13 56L14 56L14 55L16 55L16 56L17 56L17 55L20 55L20 54L19 54L19 53L21 53L21 52L22 52L22 53L23 53L23 54L24 54L24 53L23 53L23 52L24 52L24 51L25 51L25 53L26 53L26 51L25 51L25 50L26 50L26 48L25 48L25 50L23 50L23 49L24 49L24 47L26 47L26 46L27 46L27 48L29 48L29 45L28 45L28 44L27 44L27 43L26 43L26 42L27 42L27 41L28 41L28 43L30 43L30 46L31 46L31 47L33 47L33 46L35 46L35 47L34 47L34 49L33 49L33 48L31 48L31 50L32 50L32 51L31 51L31 52L32 52L32 51L33 51L33 50L35 50L35 51L34 51L34 52L35 52L35 51L36 51L36 52L37 52L37 51L38 51L38 53L37 53L37 54L39 54L39 52L40 52L40 51L43 51L43 50L40 50L40 49L43 49L43 48L44 48L44 47L45 47L45 48L46 48L46 50L47 50L47 51L48 51L48 48L50 48L50 47L51 47L51 46L50 46L50 47L49 47L49 46L47 46L47 45L48 45L48 44L47 44L47 45L46 45L46 46L47 46L47 47L45 47L45 43L46 43L46 42L47 42L47 43L49 43L49 42L47 42L47 41L46 41L46 40L43 40L43 44L40 44L40 43L39 43L39 41L40 41L40 42L41 42L41 43L42 43L42 42L41 42L41 41L42 41L42 40L41 40L41 36L40 36L40 35L41 35L41 34L42 34L42 31L43 31L43 32L44 32L44 31L46 31L46 30L47 30L47 31L48 31L48 28L47 28L47 27L46 27L46 26L48 26L48 25L49 25L49 26L51 26L51 24L52 24L52 25L53 25L53 27L55 27L55 26L54 26L54 25L55 25L55 24L52 24L52 23L51 23L51 24L50 24L50 22L49 22L49 23L48 23L48 25L46 25L46 24L43 24L43 23L44 23L44 21L45 21L45 22L46 22L46 23L47 23L47 21L48 21L48 20L43 20L43 18L42 18L42 17L41 17L41 16L44 16L44 19L46 19L46 18L45 18L45 16L44 16L44 15L45 15L45 12L46 12L46 14L47 14L47 13L49 13L49 12L48 12L48 11L49 11L49 10L48 10L48 9L49 9L49 8L48 8L48 9L47 9L47 8L45 8L45 7L46 7L46 5L47 5L47 3L42 3L42 4L43 4L43 7L42 7L42 6L41 6L41 8L40 8L40 6L39 6L39 4L38 4L38 6L37 6L37 5L36 5L36 6L35 6L35 7L36 7L36 6L37 6L37 9L36 9L36 10L39 10L39 11L40 11L40 12L38 12L38 13L33 13L33 11L34 11L34 12L36 12L36 11L35 11L35 9L33 9L33 8L32 8L32 9L31 9L31 10L28 10L28 11L30 11L30 12L31 12L31 11L32 11L32 15L33 15L33 16L30 16L30 13L29 13L29 12L28 12L28 13L25 13L25 12L27 12L27 11L26 11L26 10L27 10L27 9L26 9L26 6L25 6L25 4L26 4L26 3L25 3L25 2L26 2L26 1ZM39 1L39 2L41 2L41 1ZM42 1L42 2L43 2L43 1ZM44 1L44 2L47 2L47 1ZM29 2L29 3L27 3L27 4L30 4L30 2ZM24 3L24 4L22 4L22 7L21 7L21 6L20 6L20 7L21 7L21 8L20 8L20 9L19 9L19 8L17 8L17 11L18 11L18 10L19 10L19 13L18 13L18 12L16 12L16 10L15 10L15 9L16 9L16 8L15 8L15 9L14 9L14 8L13 8L13 10L15 10L15 15L16 15L16 17L15 17L15 18L13 18L13 19L14 19L14 20L11 20L11 19L12 19L12 18L11 18L11 19L10 19L10 17L11 17L11 16L12 16L12 17L14 17L14 16L13 16L13 14L14 14L14 13L13 13L13 14L12 14L12 15L9 15L9 16L8 16L8 15L7 15L7 14L6 14L6 15L7 15L7 16L6 16L6 17L5 17L5 18L4 18L4 19L7 19L7 20L6 20L6 21L7 21L7 20L11 20L11 21L12 21L12 22L13 22L13 21L15 21L15 22L16 22L16 21L15 21L15 20L16 20L16 19L17 19L17 21L19 21L19 22L17 22L17 23L18 23L18 24L17 24L17 25L18 25L18 27L17 27L17 28L18 28L18 29L17 29L17 30L19 30L19 29L21 29L21 30L20 30L20 31L22 31L22 29L24 29L24 30L23 30L23 31L24 31L24 32L23 32L23 36L24 36L24 37L22 37L22 38L24 38L24 37L28 37L28 38L26 38L26 39L25 39L25 40L24 40L24 39L23 39L23 41L22 41L22 39L21 39L21 41L22 41L22 42L20 42L20 40L19 40L19 39L20 39L20 38L18 38L18 37L16 37L16 38L15 38L15 39L14 39L14 38L13 38L13 39L14 39L14 41L16 41L16 40L17 40L17 41L18 41L18 42L17 42L17 43L18 43L18 42L20 42L20 43L19 43L19 45L22 45L22 44L20 44L20 43L22 43L22 42L23 42L23 43L24 43L24 44L23 44L23 45L24 45L24 46L23 46L23 47L22 47L22 46L21 46L21 47L20 47L20 48L23 48L23 47L24 47L24 46L25 46L25 45L26 45L26 44L25 44L25 43L24 43L24 42L26 42L26 41L27 41L27 40L26 40L26 39L28 39L28 41L29 41L29 39L31 39L31 41L30 41L30 43L32 43L32 44L31 44L31 45L32 45L32 46L33 46L33 45L32 45L32 44L34 44L34 43L35 43L35 45L37 45L37 44L38 44L38 43L37 43L37 42L38 42L38 41L39 41L39 39L40 39L40 38L38 38L38 36L36 36L36 37L35 37L35 36L34 36L34 37L35 37L35 38L36 38L36 39L38 39L38 40L36 40L36 41L35 41L35 42L33 42L33 43L32 43L32 39L31 39L31 38L32 38L32 33L31 33L31 35L30 35L30 34L29 34L29 35L30 35L30 36L29 36L29 37L28 37L28 36L27 36L27 35L26 35L26 34L25 34L25 31L30 31L30 32L26 32L26 33L30 33L30 32L33 32L33 31L35 31L35 32L36 32L36 34L34 34L34 33L33 33L33 34L34 34L34 35L40 35L40 34L41 34L41 33L39 33L39 32L41 32L41 31L42 31L42 30L46 30L46 29L47 29L47 28L46 28L46 27L45 27L45 26L46 26L46 25L45 25L45 26L44 26L44 25L43 25L43 24L42 24L42 25L39 25L39 24L38 24L38 23L40 23L40 22L41 22L41 23L42 23L42 22L43 22L43 20L42 20L42 22L41 22L41 21L40 21L40 20L41 20L41 19L42 19L42 18L41 18L41 17L40 17L40 18L36 18L36 17L38 17L38 16L36 16L36 15L39 15L39 16L41 16L41 15L42 15L42 14L43 14L43 13L44 13L44 12L45 12L45 11L46 11L46 10L45 10L45 11L42 11L42 10L43 10L43 9L44 9L44 8L43 8L43 9L42 9L42 8L41 8L41 11L42 11L42 14L41 14L41 13L40 13L40 14L36 14L36 15L35 15L35 14L33 14L33 15L35 15L35 16L33 16L33 18L34 18L34 19L37 19L37 20L36 20L36 21L37 21L37 22L36 22L36 23L35 23L35 24L34 24L34 22L33 22L33 21L34 21L34 20L33 20L33 19L28 19L28 18L26 18L26 19L25 19L25 17L28 17L28 16L24 16L24 17L23 17L23 18L24 18L24 19L23 19L23 21L22 21L22 20L21 20L21 21L19 21L19 20L18 20L18 19L19 19L19 18L18 18L18 19L17 19L17 18L16 18L16 17L19 17L19 16L20 16L20 17L21 17L21 18L20 18L20 19L21 19L21 18L22 18L22 17L21 17L21 16L22 16L22 14L21 14L21 16L20 16L20 15L19 15L19 13L22 13L22 12L20 12L20 9L21 9L21 11L22 11L22 10L25 10L25 8L24 8L24 7L25 7L25 6L24 6L24 7L23 7L23 5L24 5L24 4L25 4L25 3ZM40 3L40 5L41 5L41 3ZM44 4L44 5L46 5L46 4ZM27 5L27 8L30 8L30 5ZM14 6L14 7L15 7L15 6ZM28 6L28 7L29 7L29 6ZM38 6L38 7L39 7L39 6ZM44 6L44 7L45 7L45 6ZM22 7L22 9L23 9L23 7ZM38 8L38 9L39 9L39 8ZM11 9L11 10L12 10L12 9ZM32 9L32 10L33 10L33 9ZM3 10L3 11L2 11L2 12L3 12L3 11L4 11L4 10ZM24 11L24 12L23 12L23 13L24 13L24 14L23 14L23 15L29 15L29 13L28 13L28 14L25 14L25 13L24 13L24 12L25 12L25 11ZM16 13L16 15L17 15L17 16L19 16L19 15L18 15L18 13ZM54 13L54 14L53 14L53 16L55 16L55 18L57 18L57 17L56 17L56 16L57 16L57 15L56 15L56 14L57 14L57 13L56 13L56 14L55 14L55 13ZM40 14L40 15L41 15L41 14ZM7 16L7 17L6 17L6 18L8 18L8 16ZM35 16L35 17L34 17L34 18L35 18L35 17L36 17L36 16ZM29 17L29 18L31 18L31 17ZM52 17L52 18L51 18L51 20L55 20L55 19L52 19L52 18L54 18L54 17ZM40 18L40 19L38 19L38 20L37 20L37 21L38 21L38 22L37 22L37 23L36 23L36 24L35 24L35 25L34 25L34 26L32 26L32 27L31 27L31 28L32 28L32 29L31 29L31 30L32 30L32 31L33 31L33 30L35 30L35 31L36 31L36 32L37 32L37 34L39 34L39 33L38 33L38 32L39 32L39 29L41 29L41 30L40 30L40 31L41 31L41 30L42 30L42 29L45 29L45 28L42 28L42 27L41 27L41 26L39 26L39 25L36 25L36 24L37 24L37 23L38 23L38 22L39 22L39 20L40 20L40 19L41 19L41 18ZM48 18L48 19L49 19L49 18ZM26 19L26 20L25 20L25 22L26 22L26 23L25 23L25 24L24 24L24 23L23 23L23 24L22 24L22 21L21 21L21 25L20 25L20 24L19 24L19 25L20 25L20 27L19 27L19 28L20 28L20 27L22 27L22 26L21 26L21 25L23 25L23 24L24 24L24 25L25 25L25 26L26 26L26 25L28 25L28 26L29 26L29 24L27 24L27 22L28 22L28 23L29 23L29 22L30 22L30 24L31 24L31 25L33 25L33 24L32 24L32 23L31 23L31 22L30 22L30 21L31 21L31 20L27 20L27 19ZM32 20L32 21L33 21L33 20ZM2 21L2 22L1 22L1 25L2 25L2 26L3 26L3 27L2 27L2 29L4 29L4 25L5 25L5 24L4 24L4 25L2 25L2 24L3 24L3 23L4 23L4 22L3 22L3 21ZM23 21L23 22L24 22L24 21ZM28 21L28 22L29 22L29 21ZM10 22L10 23L11 23L11 22ZM19 22L19 23L20 23L20 22ZM15 23L15 24L16 24L16 23ZM25 24L25 25L26 25L26 24ZM35 25L35 26L34 26L34 28L33 28L33 29L35 29L35 30L36 30L36 31L37 31L37 32L38 32L38 31L37 31L37 30L38 30L38 29L37 29L37 28L36 28L36 27L35 27L35 26L36 26L36 25ZM23 26L23 27L24 27L24 26ZM38 26L38 28L39 28L39 26ZM43 26L43 27L44 27L44 26ZM5 27L5 30L8 30L8 27ZM25 27L25 28L24 28L24 29L25 29L25 30L24 30L24 31L25 31L25 30L26 30L26 27ZM27 27L27 30L30 30L30 27ZM49 27L49 30L52 30L52 27ZM6 28L6 29L7 29L7 28ZM21 28L21 29L22 29L22 28ZM28 28L28 29L29 29L29 28ZM35 28L35 29L36 29L36 30L37 30L37 29L36 29L36 28ZM50 28L50 29L51 29L51 28ZM54 28L54 29L55 29L55 30L56 30L56 29L55 29L55 28ZM2 31L2 33L1 33L1 34L2 34L2 33L3 33L3 34L5 34L5 33L4 33L4 32L7 32L7 31ZM52 31L52 32L54 32L54 33L56 33L56 32L54 32L54 31ZM11 32L11 33L12 33L12 32ZM20 32L20 33L21 33L21 32ZM24 34L24 36L25 36L25 34ZM56 35L56 36L57 36L57 35ZM30 36L30 38L31 38L31 36ZM39 36L39 37L40 37L40 36ZM42 36L42 37L43 37L43 39L45 39L45 38L44 38L44 37L43 37L43 36ZM36 37L36 38L37 38L37 37ZM17 38L17 39L18 39L18 38ZM6 39L6 40L7 40L7 39ZM15 39L15 40L16 40L16 39ZM52 39L52 40L53 40L53 39ZM11 40L11 41L12 41L12 40ZM6 41L6 42L7 42L7 41ZM44 41L44 42L46 42L46 41ZM35 42L35 43L36 43L36 42ZM2 43L2 45L4 45L4 46L3 46L3 47L5 47L5 46L7 46L7 47L8 47L8 45L6 45L6 44L8 44L8 43L6 43L6 44L3 44L3 43ZM24 44L24 45L25 45L25 44ZM43 44L43 45L42 45L42 46L41 46L41 47L39 47L39 46L36 46L36 47L35 47L35 48L36 48L36 49L35 49L35 50L36 50L36 51L37 51L37 50L38 50L38 51L40 51L40 50L38 50L38 49L37 49L37 48L36 48L36 47L38 47L38 48L43 48L43 47L42 47L42 46L44 46L44 44ZM54 44L54 45L55 45L55 46L56 46L56 44ZM27 45L27 46L28 46L28 45ZM52 45L52 48L54 48L54 46L53 46L53 45ZM19 49L19 50L18 50L18 52L17 52L17 53L19 53L19 52L21 52L21 51L22 51L22 49L21 49L21 50L20 50L20 49ZM27 49L27 52L30 52L30 49ZM36 49L36 50L37 50L37 49ZM49 49L49 52L52 52L52 49ZM28 50L28 51L29 51L29 50ZM50 50L50 51L51 51L51 50ZM53 50L53 51L54 51L54 50ZM15 53L15 54L16 54L16 53ZM29 53L29 54L30 54L30 53ZM13 54L13 55L14 55L14 54ZM51 54L51 55L53 55L53 56L54 56L54 55L53 55L53 54ZM31 55L31 56L32 56L32 55ZM41 55L41 56L43 56L43 57L44 57L44 55ZM45 55L45 56L46 56L46 57L47 57L47 56L46 56L46 55ZM0 0L0 7L7 7L7 0ZM1 1L1 6L6 6L6 1ZM2 2L2 5L5 5L5 2ZM50 0L50 7L57 7L57 0ZM51 1L51 6L56 6L56 1ZM52 2L52 5L55 5L55 2ZM0 50L0 57L7 57L7 50ZM1 51L1 56L6 56L6 51ZM2 52L2 55L5 55L5 52Z" fill="#000000"/></g></g></svg>
