<?xml version="1.0" encoding="UTF-8"?>
<svg xmlns="http://www.w3.org/2000/svg" version="1.1" width="300" height="300" viewBox="0 0 300 300"><rect x="0" y="0" width="300" height="300" fill="#ffffff"/><g transform="scale(4.918)"><g transform="translate(2,2)"><path fill-rule="evenodd" d="M11 0L11 3L8 3L8 4L12 4L12 5L13 5L13 6L12 6L12 9L11 9L11 6L10 6L10 7L9 7L9 5L8 5L8 7L9 7L9 8L6 8L6 9L5 9L5 8L0 8L0 11L1 11L1 12L0 12L0 13L1 13L1 14L0 14L0 15L1 15L1 14L2 14L2 15L3 15L3 16L0 16L0 17L2 17L2 18L0 18L0 20L1 20L1 19L2 19L2 20L4 20L4 19L5 19L5 18L6 18L6 19L7 19L7 18L6 18L6 17L9 17L9 15L7 15L7 14L5 14L5 13L7 13L7 12L6 12L6 11L7 11L7 10L8 10L8 9L9 9L9 11L8 11L8 13L10 13L10 14L11 14L11 13L13 13L13 15L12 15L12 16L13 16L13 17L11 17L11 18L12 18L12 19L10 19L10 20L9 20L9 21L10 21L10 20L12 20L12 21L11 21L11 22L9 22L9 23L8 23L8 21L7 21L7 20L5 20L5 22L4 22L4 21L2 21L2 22L1 22L1 21L0 21L0 23L1 23L1 24L0 24L0 25L2 25L2 23L3 23L3 24L4 24L4 25L3 25L3 26L4 26L4 28L3 28L3 27L2 27L2 28L3 28L3 30L2 30L2 29L0 29L0 33L1 33L1 34L0 34L0 35L1 35L1 34L2 34L2 33L3 33L3 36L4 36L4 37L5 37L5 36L6 36L6 37L7 37L7 36L6 36L6 35L7 35L7 34L6 34L6 33L8 33L8 34L9 34L9 35L8 35L8 37L9 37L9 38L8 38L8 39L7 39L7 38L6 38L6 39L7 39L7 40L6 40L6 41L3 41L3 42L1 42L1 43L2 43L2 44L1 44L1 45L0 45L0 48L5 48L5 47L7 47L7 46L8 46L8 47L10 47L10 48L6 48L6 49L8 49L8 51L9 51L9 52L8 52L8 57L10 57L10 56L9 56L9 54L10 54L10 48L12 48L12 49L11 49L11 51L12 51L12 50L13 50L13 53L15 53L15 54L13 54L13 57L14 57L14 55L15 55L15 57L20 57L20 56L23 56L23 55L24 55L24 57L26 57L26 56L28 56L28 55L27 55L27 53L28 53L28 54L29 54L29 55L30 55L30 56L31 56L31 57L32 57L32 56L31 56L31 55L33 55L33 54L32 54L32 52L34 52L34 53L35 53L35 55L34 55L34 56L35 56L35 57L38 57L38 56L35 56L35 55L38 55L38 53L39 53L39 56L40 56L40 52L41 52L41 54L43 54L43 53L44 53L44 54L45 54L45 55L46 55L46 54L45 54L45 53L44 53L44 49L42 49L42 50L41 50L41 49L39 49L39 50L37 50L37 49L38 49L38 48L36 48L36 47L37 47L37 46L38 46L38 45L39 45L39 44L38 44L38 41L40 41L40 40L41 40L41 42L39 42L39 43L41 43L41 44L43 44L43 45L42 45L42 46L41 46L41 45L40 45L40 46L41 46L41 47L39 47L39 48L45 48L45 49L46 49L46 48L45 48L45 47L47 47L47 46L49 46L49 47L50 47L50 48L48 48L48 51L47 51L47 50L45 50L45 52L46 52L46 51L47 51L47 52L48 52L48 53L47 53L47 56L45 56L45 57L48 57L48 55L49 55L49 56L50 56L50 55L51 55L51 57L52 57L52 56L53 56L53 57L54 57L54 56L55 56L55 57L56 57L56 56L55 56L55 54L53 54L53 53L54 53L54 52L55 52L55 53L56 53L56 52L57 52L57 51L55 51L55 50L57 50L57 48L56 48L56 46L57 46L57 45L56 45L56 44L57 44L57 43L56 43L56 42L57 42L57 41L56 41L56 42L55 42L55 41L54 41L54 43L53 43L53 42L51 42L51 41L53 41L53 40L55 40L55 39L57 39L57 37L56 37L56 36L55 36L55 34L57 34L57 33L56 33L56 32L57 32L57 31L56 31L56 30L57 30L57 27L56 27L56 26L57 26L57 24L56 24L56 25L55 25L55 23L56 23L56 22L57 22L57 21L54 21L54 20L57 20L57 19L55 19L55 18L57 18L57 15L56 15L56 14L57 14L57 13L56 13L56 14L55 14L55 13L54 13L54 14L53 14L53 15L51 15L51 14L52 14L52 13L51 13L51 12L50 12L50 13L51 13L51 14L49 14L49 13L47 13L47 14L46 14L46 12L45 12L45 11L44 11L44 12L43 12L43 10L46 10L46 11L48 11L48 12L49 12L49 11L51 11L51 10L52 10L52 8L51 8L51 10L49 10L49 9L50 9L50 8L49 8L49 6L48 6L48 7L47 7L47 5L48 5L48 0L44 0L44 1L47 1L47 2L43 2L43 3L47 3L47 5L46 5L46 4L44 4L44 5L45 5L45 6L44 6L44 7L43 7L43 6L42 6L42 5L43 5L43 4L40 4L40 3L41 3L41 2L39 2L39 1L37 1L37 0L35 0L35 1L34 1L34 0L30 0L30 1L28 1L28 0L27 0L27 2L26 2L26 0L23 0L23 2L21 2L21 1L22 1L22 0L21 0L21 1L20 1L20 0L19 0L19 1L18 1L18 2L19 2L19 1L20 1L20 2L21 2L21 3L23 3L23 2L24 2L24 4L21 4L21 6L20 6L20 5L19 5L19 6L18 6L18 5L17 5L17 4L20 4L20 3L17 3L17 4L16 4L16 2L17 2L17 1L16 1L16 0L13 0L13 1L12 1L12 0ZM40 0L40 1L43 1L43 0ZM8 1L8 2L10 2L10 1ZM13 1L13 2L15 2L15 1ZM30 1L30 2L29 2L29 3L28 3L28 2L27 2L27 3L28 3L28 4L29 4L29 3L30 3L30 4L31 4L31 7L32 7L32 6L33 6L33 7L34 7L34 8L32 8L32 9L31 9L31 10L28 10L28 9L26 9L26 6L25 6L25 4L26 4L26 3L25 3L25 4L24 4L24 5L23 5L23 7L22 7L22 6L21 6L21 7L20 7L20 6L19 6L19 7L18 7L18 6L17 6L17 8L16 8L16 6L15 6L15 5L16 5L16 4L15 4L15 3L14 3L14 4L13 4L13 5L14 5L14 6L13 6L13 7L14 7L14 6L15 6L15 8L14 8L14 9L15 9L15 10L11 10L11 9L10 9L10 8L9 8L9 9L10 9L10 11L9 11L9 12L12 12L12 11L14 11L14 12L13 12L13 13L14 13L14 15L13 15L13 16L14 16L14 17L15 17L15 16L14 16L14 15L15 15L15 14L17 14L17 15L16 15L16 16L18 16L18 15L19 15L19 14L18 14L18 13L20 13L20 16L19 16L19 17L16 17L16 18L17 18L17 19L18 19L18 18L19 18L19 19L23 19L23 18L21 18L21 17L20 17L20 16L21 16L21 15L22 15L22 17L24 17L24 16L23 16L23 15L25 15L25 16L27 16L27 15L26 15L26 14L28 14L28 13L29 13L29 12L30 12L30 13L31 13L31 14L30 14L30 15L28 15L28 17L27 17L27 18L25 18L25 22L26 22L26 23L25 23L25 24L24 24L24 23L22 23L22 24L19 24L19 23L20 23L20 22L19 22L19 21L23 21L23 22L24 22L24 21L23 21L23 20L19 20L19 21L18 21L18 20L15 20L15 21L13 21L13 22L12 22L12 23L11 23L11 24L10 24L10 23L9 23L9 25L8 25L8 23L6 23L6 24L7 24L7 25L4 25L4 26L9 26L9 25L11 25L11 26L10 26L10 27L11 27L11 28L12 28L12 26L13 26L13 25L14 25L14 24L15 24L15 23L16 23L16 24L17 24L17 25L15 25L15 27L14 27L14 28L13 28L13 29L12 29L12 30L11 30L11 29L10 29L10 28L9 28L9 30L11 30L11 32L13 32L13 33L14 33L14 32L15 32L15 33L16 33L16 34L17 34L17 33L16 33L16 31L18 31L18 30L17 30L17 29L18 29L18 28L17 28L17 29L16 29L16 31L15 31L15 30L14 30L14 29L15 29L15 27L18 27L18 26L19 26L19 27L20 27L20 26L21 26L21 27L22 27L22 26L23 26L23 27L24 27L24 28L23 28L23 29L22 29L22 28L21 28L21 29L19 29L19 31L20 31L20 32L19 32L19 33L18 33L18 34L19 34L19 36L20 36L20 37L18 37L18 36L17 36L17 35L16 35L16 37L15 37L15 35L14 35L14 34L13 34L13 35L14 35L14 36L13 36L13 38L14 38L14 39L12 39L12 37L11 37L11 38L9 38L9 39L10 39L10 40L11 40L11 39L12 39L12 41L13 41L13 42L10 42L10 41L9 41L9 40L8 40L8 41L9 41L9 42L10 42L10 43L8 43L8 44L10 44L10 45L8 45L8 46L10 46L10 47L12 47L12 48L14 48L14 50L15 50L15 48L14 48L14 47L15 47L15 45L14 45L14 44L18 44L18 45L16 45L16 46L17 46L17 47L16 47L16 48L17 48L17 47L18 47L18 48L19 48L19 49L16 49L16 51L18 51L18 52L15 52L15 53L16 53L16 54L15 54L15 55L16 55L16 56L17 56L17 55L18 55L18 54L19 54L19 55L20 55L20 54L19 54L19 53L21 53L21 54L22 54L22 55L23 55L23 54L24 54L24 53L23 53L23 52L24 52L24 51L25 51L25 52L26 52L26 48L27 48L27 47L28 47L28 48L29 48L29 45L28 45L28 44L29 44L29 43L30 43L30 44L31 44L31 46L35 46L35 47L34 47L34 48L31 48L31 47L30 47L30 48L31 48L31 49L32 49L32 51L31 51L31 52L32 52L32 51L34 51L34 52L35 52L35 53L36 53L36 52L37 52L37 51L36 51L36 52L35 52L35 51L34 51L34 50L36 50L36 48L35 48L35 47L36 47L36 45L35 45L35 43L34 43L34 44L32 44L32 43L30 43L30 42L29 42L29 40L31 40L31 41L33 41L33 42L36 42L36 40L37 40L37 39L38 39L38 40L40 40L40 39L42 39L42 41L43 41L43 40L44 40L44 41L45 41L45 42L41 42L41 43L43 43L43 44L44 44L44 45L43 45L43 46L42 46L42 47L43 47L43 46L44 46L44 47L45 47L45 44L44 44L44 43L45 43L45 42L48 42L48 43L49 43L49 41L51 41L51 40L50 40L50 39L51 39L51 38L52 38L52 40L53 40L53 38L54 38L54 39L55 39L55 36L54 36L54 37L49 37L49 36L50 36L50 35L51 35L51 36L52 36L52 34L53 34L53 35L54 35L54 34L53 34L53 33L51 33L51 34L50 34L50 31L48 31L48 28L47 28L47 27L48 27L48 26L47 26L47 25L50 25L50 26L51 26L51 25L52 25L52 26L53 26L53 27L55 27L55 26L54 26L54 24L51 24L51 23L55 23L55 22L54 22L54 21L53 21L53 20L52 20L52 21L51 21L51 18L54 18L54 17L55 17L55 16L56 16L56 15L55 15L55 16L54 16L54 15L53 15L53 16L51 16L51 17L50 17L50 15L46 15L46 16L47 16L47 17L45 17L45 16L43 16L43 18L42 18L42 17L41 17L41 16L42 16L42 15L44 15L44 14L45 14L45 12L44 12L44 13L43 13L43 14L42 14L42 11L41 11L41 10L39 10L39 9L45 9L45 8L46 8L46 10L47 10L47 9L49 9L49 8L46 8L46 6L45 6L45 8L42 8L42 6L41 6L41 5L40 5L40 4L39 4L39 3L38 3L38 2L34 2L34 1ZM30 2L30 3L31 3L31 4L32 4L32 3L33 3L33 2ZM36 3L36 5L33 5L33 6L34 6L34 7L35 7L35 12L34 12L34 10L33 10L33 11L32 11L32 10L31 10L31 11L30 11L30 12L31 12L31 13L32 13L32 14L31 14L31 15L30 15L30 16L31 16L31 17L29 17L29 18L28 18L28 19L27 19L27 20L26 20L26 21L27 21L27 22L28 22L28 24L27 24L27 25L26 25L26 24L25 24L25 25L24 25L24 27L26 27L26 30L25 30L25 29L23 29L23 30L22 30L22 29L21 29L21 30L22 30L22 31L21 31L21 32L20 32L20 33L21 33L21 34L20 34L20 35L22 35L22 33L21 33L21 32L23 32L23 30L24 30L24 31L27 31L27 32L26 32L26 33L29 33L29 34L30 34L30 35L29 35L29 36L28 36L28 37L29 37L29 38L27 38L27 35L26 35L26 34L25 34L25 32L24 32L24 33L23 33L23 34L25 34L25 35L24 35L24 37L21 37L21 38L22 38L22 39L21 39L21 40L20 40L20 41L19 41L19 40L18 40L18 39L17 39L17 38L18 38L18 37L16 37L16 38L15 38L15 37L14 37L14 38L15 38L15 39L16 39L16 40L13 40L13 41L16 41L16 40L17 40L17 42L16 42L16 43L18 43L18 42L20 42L20 41L21 41L21 43L22 43L22 41L21 41L21 40L22 40L22 39L23 39L23 42L26 42L26 43L27 43L27 42L26 42L26 41L28 41L28 39L31 39L31 38L32 38L32 34L34 34L34 35L33 35L33 36L34 36L34 37L35 37L35 35L37 35L37 36L36 36L36 37L37 37L37 36L39 36L39 38L38 38L38 39L39 39L39 38L40 38L40 36L41 36L41 35L40 35L40 36L39 36L39 34L43 34L43 32L45 32L45 34L46 34L46 35L45 35L45 36L47 36L47 35L49 35L49 34L48 34L48 33L47 33L47 32L48 32L48 31L47 31L47 30L46 30L46 29L47 29L47 28L46 28L46 27L44 27L44 24L46 24L46 25L47 25L47 24L50 24L50 25L51 25L51 24L50 24L50 23L51 23L51 22L50 22L50 17L47 17L47 18L45 18L45 19L44 19L44 18L43 18L43 19L42 19L42 18L41 18L41 17L40 17L40 16L41 16L41 15L42 15L42 14L41 14L41 13L39 13L39 14L33 14L33 13L38 13L38 12L40 12L40 11L38 11L38 9L39 9L39 8L41 8L41 6L40 6L40 7L39 7L39 6L38 6L38 3ZM14 4L14 5L15 5L15 4ZM27 5L27 8L30 8L30 5ZM36 5L36 6L35 6L35 7L36 7L36 6L37 6L37 8L38 8L38 6L37 6L37 5ZM24 6L24 7L23 7L23 9L22 9L22 10L21 10L21 11L20 11L20 13L22 13L22 12L21 12L21 11L22 11L22 10L23 10L23 12L24 12L24 10L25 10L25 9L24 9L24 7L25 7L25 6ZM28 6L28 7L29 7L29 6ZM17 8L17 10L16 10L16 11L18 11L18 9L19 9L19 10L20 10L20 9L19 9L19 8ZM53 8L53 9L54 9L54 8ZM55 8L55 11L54 11L54 10L53 10L53 11L52 11L52 12L53 12L53 11L54 11L54 12L55 12L55 11L56 11L56 12L57 12L57 11L56 11L56 8ZM4 9L4 10L2 10L2 11L3 11L3 12L1 12L1 13L3 13L3 14L4 14L4 17L6 17L6 16L7 16L7 15L5 15L5 14L4 14L4 13L3 13L3 12L4 12L4 10L5 10L5 11L6 11L6 10L7 10L7 9L6 9L6 10L5 10L5 9ZM26 10L26 11L27 11L27 12L25 12L25 13L23 13L23 14L25 14L25 13L28 13L28 12L29 12L29 11L28 11L28 10ZM48 10L48 11L49 11L49 10ZM31 11L31 12L32 12L32 13L33 13L33 12L32 12L32 11ZM36 11L36 12L37 12L37 11ZM16 12L16 13L18 13L18 12ZM32 14L32 15L31 15L31 16L32 16L32 17L31 17L31 18L29 18L29 20L27 20L27 21L28 21L28 22L29 22L29 23L30 23L30 24L28 24L28 25L27 25L27 26L30 26L30 25L31 25L31 24L32 24L32 25L33 25L33 27L32 27L32 26L31 26L31 28L32 28L32 29L33 29L33 30L35 30L35 31L33 31L33 32L32 32L32 31L30 31L30 32L29 32L29 33L30 33L30 34L32 34L32 33L33 33L33 32L34 32L34 34L35 34L35 33L36 33L36 32L37 32L37 33L38 33L38 34L37 34L37 35L38 35L38 34L39 34L39 33L41 33L41 32L39 32L39 31L36 31L36 30L35 30L35 29L33 29L33 28L34 28L34 27L35 27L35 28L36 28L36 27L35 27L35 25L33 25L33 24L34 24L34 23L35 23L35 24L36 24L36 22L37 22L37 21L38 21L38 23L37 23L37 24L39 24L39 25L38 25L38 27L37 27L37 30L39 30L39 28L40 28L40 30L42 30L42 31L43 31L43 30L44 30L44 29L45 29L45 28L44 28L44 29L43 29L43 28L42 28L42 27L43 27L43 26L42 26L42 24L43 24L43 23L44 23L44 21L45 21L45 22L46 22L46 24L47 24L47 21L46 21L46 20L47 20L47 19L46 19L46 20L43 20L43 22L42 22L42 24L41 24L41 20L42 20L42 19L41 19L41 18L39 18L39 17L37 17L37 18L39 18L39 19L38 19L38 20L37 20L37 19L36 19L36 18L35 18L35 16L37 16L37 15L33 15L33 14ZM39 14L39 15L38 15L38 16L40 16L40 15L41 15L41 14ZM10 15L10 16L11 16L11 15ZM32 15L32 16L33 16L33 17L34 17L34 16L33 16L33 15ZM53 16L53 17L54 17L54 16ZM2 18L2 19L4 19L4 18ZM31 18L31 19L30 19L30 20L29 20L29 22L31 22L31 23L34 23L34 22L33 22L33 21L34 21L34 20L35 20L35 18L33 18L33 19L32 19L32 18ZM48 18L48 20L49 20L49 18ZM12 19L12 20L14 20L14 19ZM33 19L33 20L32 20L32 21L33 21L33 20L34 20L34 19ZM40 19L40 20L38 20L38 21L40 21L40 20L41 20L41 19ZM36 20L36 21L37 21L37 20ZM6 21L6 22L7 22L7 21ZM15 21L15 22L14 22L14 23L13 23L13 24L12 24L12 25L13 25L13 24L14 24L14 23L15 23L15 22L16 22L16 21ZM17 21L17 22L18 22L18 23L19 23L19 22L18 22L18 21ZM39 22L39 23L40 23L40 22ZM49 22L49 23L50 23L50 22ZM4 23L4 24L5 24L5 23ZM18 24L18 25L19 25L19 26L20 26L20 25L19 25L19 24ZM21 25L21 26L22 26L22 25ZM25 25L25 26L26 26L26 25ZM39 25L39 27L40 27L40 28L41 28L41 27L40 27L40 26L41 26L41 25ZM0 26L0 28L1 28L1 26ZM5 27L5 30L8 30L8 27ZM27 27L27 30L30 30L30 27ZM49 27L49 30L52 30L52 27ZM6 28L6 29L7 29L7 28ZM28 28L28 29L29 29L29 28ZM50 28L50 29L51 29L51 28ZM54 28L54 29L53 29L53 31L51 31L51 32L54 32L54 33L55 33L55 32L54 32L54 30L56 30L56 29L55 29L55 28ZM42 29L42 30L43 30L43 29ZM3 30L3 31L4 31L4 30ZM12 30L12 31L14 31L14 30ZM45 30L45 31L46 31L46 32L47 32L47 31L46 31L46 30ZM5 31L5 32L3 32L3 33L4 33L4 34L5 34L5 33L6 33L6 32L7 32L7 31ZM35 31L35 32L36 32L36 31ZM1 32L1 33L2 33L2 32ZM8 32L8 33L9 33L9 32ZM30 32L30 33L32 33L32 32ZM10 33L10 34L11 34L11 36L12 36L12 33ZM46 33L46 34L47 34L47 33ZM30 35L30 38L31 38L31 35ZM42 35L42 36L43 36L43 37L41 37L41 38L43 38L43 37L44 37L44 38L45 38L45 37L44 37L44 35ZM0 36L0 37L1 37L1 38L0 38L0 39L1 39L1 38L2 38L2 39L4 39L4 40L5 40L5 39L4 39L4 38L2 38L2 36ZM9 36L9 37L10 37L10 36ZM24 37L24 38L23 38L23 39L24 39L24 40L25 40L25 38L26 38L26 37ZM47 37L47 38L48 38L48 39L49 39L49 37ZM19 38L19 39L20 39L20 38ZM33 38L33 39L32 39L32 40L33 40L33 41L34 41L34 40L36 40L36 39L37 39L37 38L35 38L35 39L34 39L34 38ZM26 39L26 40L27 40L27 39ZM45 39L45 40L46 40L46 41L47 41L47 40L46 40L46 39ZM0 40L0 41L1 41L1 40ZM6 41L6 42L4 42L4 43L3 43L3 45L4 45L4 46L3 46L3 47L5 47L5 46L7 46L7 45L6 45L6 44L7 44L7 43L6 43L6 42L7 42L7 41ZM13 42L13 43L12 43L12 44L11 44L11 43L10 43L10 44L11 44L11 45L10 45L10 46L11 46L11 45L12 45L12 44L13 44L13 43L15 43L15 42ZM28 42L28 43L29 43L29 42ZM50 42L50 43L51 43L51 42ZM5 43L5 44L4 44L4 45L5 45L5 44L6 44L6 43ZM19 43L19 45L18 45L18 47L19 47L19 45L22 45L22 44L20 44L20 43ZM24 43L24 44L23 44L23 45L24 45L24 46L23 46L23 47L22 47L22 46L21 46L21 47L20 47L20 49L21 49L21 50L18 50L18 51L19 51L19 52L18 52L18 53L19 53L19 52L21 52L21 53L22 53L22 54L23 54L23 53L22 53L22 51L21 51L21 50L22 50L22 49L21 49L21 47L22 47L22 48L23 48L23 50L25 50L25 45L26 45L26 44L25 44L25 43ZM52 43L52 44L49 44L49 46L50 46L50 47L51 47L51 48L54 48L54 49L56 49L56 48L54 48L54 47L53 47L53 46L56 46L56 45L55 45L55 44L56 44L56 43L55 43L55 44L54 44L54 45L52 45L52 44L53 44L53 43ZM24 44L24 45L25 45L25 44ZM47 44L47 45L46 45L46 46L47 46L47 45L48 45L48 44ZM27 45L27 46L26 46L26 47L27 47L27 46L28 46L28 45ZM50 45L50 46L51 46L51 47L52 47L52 45ZM1 46L1 47L2 47L2 46ZM13 46L13 47L14 47L14 46ZM27 49L27 52L30 52L30 49ZM33 49L33 50L34 50L34 49ZM49 49L49 52L52 52L52 49ZM28 50L28 51L29 51L29 50ZM40 50L40 51L39 51L39 52L40 52L40 51L41 51L41 50ZM42 50L42 51L43 51L43 50ZM50 50L50 51L51 51L51 50ZM11 52L11 54L12 54L12 52ZM25 53L25 54L26 54L26 53ZM30 53L30 54L31 54L31 53ZM48 53L48 54L49 54L49 55L50 55L50 54L51 54L51 55L53 55L53 54L51 54L51 53ZM41 55L41 57L44 57L44 56L42 56L42 55ZM0 0L0 7L7 7L7 0ZM1 1L1 6L6 6L6 1ZM2 2L2 5L5 5L5 2ZM50 0L50 7L57 7L57 0ZM51 1L51 6L56 6L56 1ZM52 2L52 5L55 5L55 2ZM0 50L0 57L7 57L7 50ZM1 51L1 56L6 56L6 51ZM2 52L2 55L5 55L5 52Z" fill="#000000"/></g></g></svg>
