<?xml version="1.0" encoding="UTF-8"?>
<svg xmlns="http://www.w3.org/2000/svg" version="1.1" width="300" height="300" viewBox="0 0 300 300"><rect x="0" y="0" width="300" height="300" fill="#ffffff"/><g transform="scale(4.918)"><g transform="translate(2,2)"><path fill-rule="evenodd" d="M10 0L10 2L9 2L9 1L8 1L8 2L9 2L9 3L8 3L8 4L12 4L12 5L10 5L10 8L6 8L6 9L5 9L5 8L0 8L0 9L1 9L1 11L0 11L0 12L1 12L1 14L2 14L2 13L3 13L3 14L5 14L5 13L7 13L7 14L6 14L6 15L7 15L7 16L6 16L6 17L7 17L7 18L5 18L5 20L4 20L4 19L3 19L3 18L4 18L4 17L5 17L5 15L4 15L4 16L3 16L3 15L2 15L2 16L1 16L1 15L0 15L0 18L2 18L2 20L1 20L1 21L0 21L0 22L1 22L1 23L0 23L0 24L1 24L1 23L3 23L3 22L4 22L4 21L5 21L5 20L6 20L6 21L7 21L7 22L5 22L5 23L7 23L7 24L6 24L6 25L7 25L7 26L5 26L5 25L3 25L3 24L2 24L2 25L3 25L3 26L4 26L4 31L3 31L3 30L2 30L2 31L1 31L1 28L0 28L0 31L1 31L1 32L2 32L2 31L3 31L3 33L7 33L7 34L6 34L6 35L5 35L5 34L4 34L4 35L2 35L2 33L1 33L1 34L0 34L0 35L2 35L2 36L4 36L4 37L5 37L5 36L6 36L6 37L7 37L7 38L5 38L5 41L3 41L3 40L4 40L4 39L3 39L3 38L1 38L1 37L0 37L0 40L1 40L1 39L3 39L3 40L2 40L2 42L0 42L0 44L3 44L3 45L2 45L2 47L1 47L1 45L0 45L0 48L5 48L5 47L8 47L8 48L6 48L6 49L8 49L8 51L10 51L10 52L11 52L11 53L9 53L9 52L8 52L8 57L9 57L9 56L10 56L10 55L11 55L11 57L12 57L12 55L11 55L11 53L12 53L12 52L11 52L11 51L13 51L13 52L15 52L15 53L16 53L16 54L15 54L15 55L13 55L13 56L15 56L15 55L16 55L16 57L20 57L20 56L19 56L19 55L20 55L20 54L19 54L19 55L17 55L17 53L20 53L20 52L21 52L21 53L22 53L22 54L21 54L21 55L22 55L22 56L23 56L23 57L24 57L24 55L23 55L23 54L24 54L24 53L25 53L25 54L27 54L27 53L28 53L28 54L30 54L30 53L31 53L31 55L34 55L34 56L30 56L30 55L29 55L29 56L30 56L30 57L37 57L37 56L35 56L35 55L34 55L34 54L32 54L32 52L34 52L34 53L35 53L35 54L36 54L36 55L37 55L37 54L38 54L38 52L39 52L39 55L38 55L38 57L40 57L40 56L43 56L43 57L44 57L44 56L45 56L45 57L47 57L47 56L45 56L45 55L46 55L46 54L45 54L45 53L44 53L44 51L42 51L42 50L43 50L43 48L47 48L47 46L48 46L48 45L50 45L50 44L52 44L52 45L51 45L51 47L49 47L49 48L48 48L48 51L47 51L47 50L46 50L46 49L44 49L44 50L46 50L46 51L47 51L47 52L46 52L46 53L47 53L47 52L48 52L48 53L51 53L51 54L47 54L47 55L49 55L49 56L50 56L50 55L51 55L51 57L52 57L52 56L54 56L54 57L56 57L56 56L55 56L55 55L51 55L51 54L53 54L53 49L54 49L54 48L55 48L55 50L57 50L57 49L56 49L56 48L55 48L55 47L56 47L56 46L57 46L57 45L56 45L56 44L57 44L57 43L56 43L56 42L55 42L55 39L57 39L57 37L56 37L56 36L57 36L57 35L56 35L56 34L57 34L57 33L56 33L56 30L57 30L57 27L56 27L56 25L57 25L57 23L56 23L56 22L57 22L57 21L56 21L56 20L55 20L55 18L57 18L57 17L54 17L54 16L55 16L55 15L56 15L56 16L57 16L57 15L56 15L56 14L57 14L57 13L56 13L56 12L57 12L57 11L56 11L56 10L55 10L55 11L54 11L54 10L53 10L53 9L54 9L54 8L53 8L53 9L52 9L52 8L51 8L51 9L52 9L52 10L49 10L49 9L50 9L50 8L49 8L49 6L48 6L48 7L47 7L47 5L48 5L48 0L45 0L45 2L42 2L42 1L44 1L44 0L42 0L42 1L40 1L40 0L39 0L39 1L38 1L38 0L36 0L36 1L34 1L34 0L33 0L33 1L34 1L34 2L28 2L28 3L27 3L27 4L26 4L26 3L25 3L25 1L26 1L26 2L27 2L27 1L26 1L26 0L24 0L24 1L23 1L23 0L21 0L21 2L20 2L20 3L21 3L21 4L19 4L19 3L18 3L18 4L19 4L19 5L18 5L18 7L17 7L17 6L16 6L16 7L15 7L15 6L14 6L14 5L16 5L16 4L14 4L14 2L13 2L13 0L12 0L12 1L11 1L11 0ZM14 0L14 1L15 1L15 2L17 2L17 1L15 1L15 0ZM28 0L28 1L32 1L32 0ZM18 1L18 2L19 2L19 1ZM22 1L22 4L21 4L21 7L22 7L22 4L23 4L23 5L24 5L24 4L23 4L23 3L24 3L24 2L23 2L23 1ZM37 1L37 2L34 2L34 3L35 3L35 4L33 4L33 3L32 3L32 4L31 4L31 3L30 3L30 4L31 4L31 7L32 7L32 8L31 8L31 9L32 9L32 10L31 10L31 11L30 11L30 10L28 10L28 9L25 9L25 8L26 8L26 4L25 4L25 8L24 8L24 6L23 6L23 8L19 8L19 9L20 9L20 10L19 10L19 14L20 14L20 15L18 15L18 14L17 14L17 13L18 13L18 12L17 12L17 11L18 11L18 9L17 9L17 7L16 7L16 8L15 8L15 7L14 7L14 6L13 6L13 5L12 5L12 6L11 6L11 7L12 7L12 6L13 6L13 8L12 8L12 10L14 10L14 9L15 9L15 11L16 11L16 12L17 12L17 13L13 13L13 14L14 14L14 15L15 15L15 16L14 16L14 17L15 17L15 18L12 18L12 17L13 17L13 16L12 16L12 17L11 17L11 16L10 16L10 15L11 15L11 14L12 14L12 13L10 13L10 12L7 12L7 11L9 11L9 9L8 9L8 10L7 10L7 9L6 9L6 10L5 10L5 12L7 12L7 13L9 13L9 14L7 14L7 15L8 15L8 16L7 16L7 17L8 17L8 18L7 18L7 19L6 19L6 20L7 20L7 21L8 21L8 18L9 18L9 19L11 19L11 20L9 20L9 21L11 21L11 20L12 20L12 19L14 19L14 20L13 20L13 21L12 21L12 22L13 22L13 23L14 23L14 22L16 22L16 21L17 21L17 23L19 23L19 25L20 25L20 27L19 27L19 26L18 26L18 25L16 25L16 23L15 23L15 25L14 25L14 26L13 26L13 28L15 28L15 27L17 27L17 28L18 28L18 29L14 29L14 31L15 31L15 32L12 32L12 35L11 35L11 34L10 34L10 35L9 35L9 36L10 36L10 35L11 35L11 37L10 37L10 38L9 38L9 37L8 37L8 40L7 40L7 39L6 39L6 40L7 40L7 41L5 41L5 45L6 45L6 46L8 46L8 47L10 47L10 46L11 46L11 47L12 47L12 48L11 48L11 49L10 49L10 50L11 50L11 49L12 49L12 48L13 48L13 50L15 50L15 51L16 51L16 53L17 53L17 51L18 51L18 52L20 52L20 51L21 51L21 52L22 52L22 53L24 53L24 51L23 51L23 50L21 50L21 49L24 49L24 48L21 48L21 47L20 47L20 46L21 46L21 45L22 45L22 47L23 47L23 45L25 45L25 46L24 46L24 47L25 47L25 48L27 48L27 47L29 47L29 48L30 48L30 47L29 47L29 45L28 45L28 44L29 44L29 43L30 43L30 46L31 46L31 44L32 44L32 46L40 46L40 45L41 45L41 46L42 46L42 47L45 47L45 46L44 46L44 45L45 45L45 43L47 43L47 42L48 42L48 43L49 43L49 42L48 42L48 41L51 41L51 42L50 42L50 43L51 43L51 42L53 42L53 43L52 43L52 44L53 44L53 43L54 43L54 41L53 41L53 40L52 40L52 39L53 39L53 38L54 38L54 39L55 39L55 38L56 38L56 37L55 37L55 36L54 36L54 35L55 35L55 34L56 34L56 33L55 33L55 32L54 32L54 30L55 30L55 29L56 29L56 28L54 28L54 29L53 29L53 31L51 31L51 32L54 32L54 33L50 33L50 32L49 32L49 31L48 31L48 28L47 28L47 26L48 26L48 25L49 25L49 26L51 26L51 25L53 25L53 27L55 27L55 26L54 26L54 24L51 24L51 23L52 23L52 22L55 22L55 20L54 20L54 19L53 19L53 16L54 16L54 15L55 15L55 14L56 14L56 13L55 13L55 12L56 12L56 11L55 11L55 12L54 12L54 11L53 11L53 10L52 10L52 11L50 11L50 15L45 15L45 16L44 16L44 14L42 14L42 10L40 10L40 11L41 11L41 12L38 12L38 14L37 14L37 15L36 15L36 14L35 14L35 13L33 13L33 8L34 8L34 6L35 6L35 8L36 8L36 6L37 6L37 9L38 9L38 10L37 10L37 11L39 11L39 9L43 9L43 10L44 10L44 11L43 11L43 12L44 12L44 13L45 13L45 12L46 12L46 14L47 14L47 13L49 13L49 12L48 12L48 11L46 11L46 10L47 10L47 9L49 9L49 8L46 8L46 9L45 9L45 8L44 8L44 9L43 9L43 8L40 8L40 6L41 6L41 7L42 7L42 6L43 6L43 7L44 7L44 6L45 6L45 7L46 7L46 6L45 6L45 5L47 5L47 3L42 3L42 2L41 2L41 3L40 3L40 4L38 4L38 1ZM46 1L46 2L47 2L47 1ZM11 2L11 3L12 3L12 4L13 4L13 2ZM28 3L28 4L29 4L29 3ZM36 3L36 5L35 5L35 6L36 6L36 5L37 5L37 6L38 6L38 7L39 7L39 6L38 6L38 4L37 4L37 3ZM40 4L40 5L41 5L41 6L42 6L42 5L43 5L43 4ZM44 4L44 5L45 5L45 4ZM8 5L8 7L9 7L9 5ZM19 5L19 7L20 7L20 5ZM27 5L27 8L30 8L30 5ZM28 6L28 7L29 7L29 6ZM32 6L32 7L33 7L33 6ZM10 8L10 11L11 11L11 8ZM13 8L13 9L14 9L14 8ZM55 8L55 9L56 9L56 8ZM2 9L2 10L3 10L3 11L4 11L4 9ZM23 9L23 10L22 10L22 11L20 11L20 13L21 13L21 15L20 15L20 17L19 17L19 16L18 16L18 17L17 17L17 14L15 14L15 15L16 15L16 16L15 16L15 17L17 17L17 19L16 19L16 18L15 18L15 21L16 21L16 20L17 20L17 19L18 19L18 21L20 21L20 20L19 20L19 19L21 19L21 18L23 18L23 19L22 19L22 20L23 20L23 19L24 19L24 18L25 18L25 20L24 20L24 21L21 21L21 24L20 24L20 25L21 25L21 27L20 27L20 28L19 28L19 29L18 29L18 30L19 30L19 29L22 29L22 28L21 28L21 27L22 27L22 25L21 25L21 24L24 24L24 25L23 25L23 26L25 26L25 27L24 27L24 28L25 28L25 27L26 27L26 30L25 30L25 29L23 29L23 30L22 30L22 31L21 31L21 32L20 32L20 31L19 31L19 32L18 32L18 33L19 33L19 34L18 34L18 35L20 35L20 33L21 33L21 34L23 34L23 37L22 37L22 36L21 36L21 37L19 37L19 36L17 36L17 39L18 39L18 40L16 40L16 39L15 39L15 38L16 38L16 37L14 37L14 40L13 40L13 41L12 41L12 42L11 42L11 41L10 41L10 39L9 39L9 42L10 42L10 43L9 43L9 45L8 45L8 41L7 41L7 42L6 42L6 43L7 43L7 44L6 44L6 45L8 45L8 46L10 46L10 43L12 43L12 42L13 42L13 41L15 41L15 42L16 42L16 41L19 41L19 42L18 42L18 43L15 43L15 45L13 45L13 44L11 44L11 46L12 46L12 47L13 47L13 48L14 48L14 49L17 49L17 50L18 50L18 51L19 51L19 50L20 50L20 49L21 49L21 48L20 48L20 49L19 49L19 48L18 48L18 49L17 49L17 47L15 47L15 48L14 48L14 46L15 46L15 45L17 45L17 46L18 46L18 47L19 47L19 46L20 46L20 45L21 45L21 44L22 44L22 45L23 45L23 43L25 43L25 41L24 41L24 40L25 40L25 36L24 36L24 34L25 34L25 35L27 35L27 34L25 34L25 33L29 33L29 34L30 34L30 35L29 35L29 39L31 39L31 40L30 40L30 41L29 41L29 40L28 40L28 39L27 39L27 38L28 38L28 37L27 37L27 36L26 36L26 37L27 37L27 38L26 38L26 40L28 40L28 41L29 41L29 42L30 42L30 43L31 43L31 42L32 42L32 41L31 41L31 40L32 40L32 39L31 39L31 38L32 38L32 32L33 32L33 34L34 34L34 37L35 37L35 38L33 38L33 39L34 39L34 40L35 40L35 41L37 41L37 42L38 42L38 43L37 43L37 44L36 44L36 43L35 43L35 45L38 45L38 43L39 43L39 42L41 42L41 44L43 44L43 45L42 45L42 46L43 46L43 45L44 45L44 44L43 44L43 43L42 43L42 42L45 42L45 41L46 41L46 40L47 40L47 38L45 38L45 37L47 37L47 36L48 36L48 33L47 33L47 34L46 34L46 33L44 33L44 34L46 34L46 35L45 35L45 37L44 37L44 35L42 35L42 34L43 34L43 32L45 32L45 31L42 31L42 30L44 30L44 28L43 28L43 27L44 27L44 26L45 26L45 30L46 30L46 31L47 31L47 32L48 32L48 31L47 31L47 30L46 30L46 29L47 29L47 28L46 28L46 26L45 26L45 25L46 25L46 24L47 24L47 25L48 25L48 24L50 24L50 23L51 23L51 22L50 22L50 19L48 19L48 18L50 18L50 17L51 17L51 16L45 16L45 18L46 18L46 19L42 19L42 18L43 18L43 17L44 17L44 16L43 16L43 15L42 15L42 14L40 14L40 13L39 13L39 15L40 15L40 16L39 16L39 17L40 17L40 16L42 16L42 18L41 18L41 19L40 19L40 20L39 20L39 18L38 18L38 16L36 16L36 15L35 15L35 14L33 14L33 13L32 13L32 11L31 11L31 13L32 13L32 14L30 14L30 13L28 13L28 12L30 12L30 11L28 11L28 10L26 10L26 11L27 11L27 12L25 12L25 13L24 13L24 11L23 11L23 10L25 10L25 9ZM34 9L34 10L35 10L35 11L34 11L34 12L35 12L35 11L36 11L36 9ZM6 10L6 11L7 11L7 10ZM16 10L16 11L17 11L17 10ZM1 11L1 12L2 12L2 11ZM13 11L13 12L14 12L14 11ZM44 11L44 12L45 12L45 11ZM52 11L52 12L53 12L53 11ZM21 12L21 13L22 13L22 15L23 15L23 16L22 16L22 17L24 17L24 15L25 15L25 16L27 16L27 17L28 17L28 16L29 16L29 17L32 17L32 19L33 19L33 20L32 20L32 21L33 21L33 20L34 20L34 22L35 22L35 23L34 23L34 24L35 24L35 25L33 25L33 28L32 28L32 27L31 27L31 28L32 28L32 29L31 29L31 32L32 32L32 30L39 30L39 31L38 31L38 33L36 33L36 32L37 32L37 31L36 31L36 32L35 32L35 31L33 31L33 32L34 32L34 34L40 34L40 35L39 35L39 36L40 36L40 38L39 38L39 37L38 37L38 35L35 35L35 37L36 37L36 36L37 36L37 37L38 37L38 40L37 40L37 41L38 41L38 42L39 42L39 41L41 41L41 42L42 42L42 41L43 41L43 40L44 40L44 41L45 41L45 40L46 40L46 39L45 39L45 38L44 38L44 37L43 37L43 36L42 36L42 37L43 37L43 39L41 39L41 36L40 36L40 35L41 35L41 34L42 34L42 31L41 31L41 30L42 30L42 29L43 29L43 28L42 28L42 27L43 27L43 26L44 26L44 25L45 25L45 23L44 23L44 21L45 21L45 22L46 22L46 23L47 23L47 24L48 24L48 23L47 23L47 21L48 21L48 20L47 20L47 19L46 19L46 20L43 20L43 22L42 22L42 23L41 23L41 20L40 20L40 23L39 23L39 21L38 21L38 18L37 18L37 19L35 19L35 20L34 20L34 18L36 18L36 16L35 16L35 15L34 15L34 16L30 16L30 14L29 14L29 15L28 15L28 16L27 16L27 15L25 15L25 14L28 14L28 13L25 13L25 14L24 14L24 13L22 13L22 12ZM51 13L51 14L52 14L52 13ZM53 13L53 14L55 14L55 13ZM23 14L23 15L24 15L24 14ZM10 17L10 18L11 18L11 19L12 19L12 18L11 18L11 17ZM18 17L18 19L19 19L19 17ZM20 17L20 18L21 18L21 17ZM33 17L33 18L34 18L34 17ZM46 17L46 18L47 18L47 17ZM27 18L27 19L26 19L26 20L25 20L25 21L24 21L24 22L22 22L22 23L24 23L24 24L25 24L25 26L26 26L26 25L28 25L28 26L29 26L29 24L25 24L25 23L26 23L26 22L25 22L25 21L27 21L27 23L29 23L29 22L30 22L30 23L31 23L31 24L33 24L33 23L31 23L31 22L30 22L30 21L31 21L31 20L30 20L30 19L31 19L31 18L29 18L29 20L28 20L28 18ZM51 19L51 20L52 20L52 19ZM3 20L3 21L4 21L4 20ZM27 20L27 21L28 21L28 20ZM36 20L36 21L37 21L37 22L36 22L36 23L35 23L35 24L36 24L36 25L35 25L35 26L34 26L34 28L33 28L33 29L35 29L35 28L36 28L36 29L38 29L38 27L39 27L39 28L40 28L40 27L41 27L41 26L43 26L43 25L44 25L44 23L43 23L43 24L41 24L41 23L40 23L40 24L38 24L38 21L37 21L37 20ZM46 20L46 21L47 21L47 20ZM13 21L13 22L14 22L14 21ZM7 22L7 23L9 23L9 24L10 24L10 23L11 23L11 22L10 22L10 23L9 23L9 22ZM19 22L19 23L20 23L20 22ZM49 22L49 23L50 23L50 22ZM36 23L36 24L37 24L37 25L36 25L36 26L40 26L40 25L41 25L41 24L40 24L40 25L38 25L38 24L37 24L37 23ZM7 24L7 25L8 25L8 24ZM0 25L0 27L2 27L2 29L3 29L3 27L2 27L2 26L1 26L1 25ZM15 25L15 26L16 26L16 25ZM31 25L31 26L32 26L32 25ZM9 26L9 31L10 31L10 30L11 30L11 31L12 31L12 30L13 30L13 29L12 29L12 30L11 30L11 28L12 28L12 27L11 27L11 26ZM17 26L17 27L18 27L18 26ZM5 27L5 30L8 30L8 27ZM10 27L10 28L11 28L11 27ZM27 27L27 30L30 30L30 27ZM36 27L36 28L37 28L37 27ZM49 27L49 30L52 30L52 27ZM6 28L6 29L7 29L7 28ZM28 28L28 29L29 29L29 28ZM50 28L50 29L51 29L51 28ZM40 29L40 30L41 30L41 29ZM16 30L16 31L17 31L17 30ZM4 31L4 32L7 32L7 33L8 33L8 32L7 32L7 31ZM22 31L22 33L24 33L24 31ZM25 31L25 32L27 32L27 31ZM29 31L29 33L30 33L30 31ZM40 31L40 32L39 32L39 33L40 33L40 34L41 34L41 33L40 33L40 32L41 32L41 31ZM16 32L16 33L13 33L13 35L14 35L14 34L16 34L16 35L15 35L15 36L16 36L16 35L17 35L17 34L16 34L16 33L17 33L17 32ZM49 33L49 35L50 35L50 33ZM54 33L54 34L55 34L55 33ZM7 34L7 35L6 35L6 36L8 36L8 34ZM52 34L52 37L54 37L54 36L53 36L53 34ZM4 35L4 36L5 36L5 35ZM12 36L12 37L13 37L13 36ZM30 36L30 38L31 38L31 36ZM49 36L49 39L50 39L50 38L51 38L51 36ZM18 37L18 39L20 39L20 38L19 38L19 37ZM21 37L21 38L22 38L22 37ZM23 37L23 38L24 38L24 37ZM11 38L11 40L12 40L12 38ZM22 39L22 40L19 40L19 41L20 41L20 43L19 43L19 45L20 45L20 44L21 44L21 43L22 43L22 42L23 42L23 40L24 40L24 39ZM35 39L35 40L36 40L36 39ZM39 39L39 40L40 40L40 39ZM15 40L15 41L16 41L16 40ZM51 40L51 41L52 41L52 40ZM21 41L21 42L22 42L22 41ZM26 41L26 42L27 42L27 41ZM30 41L30 42L31 42L31 41ZM33 41L33 43L32 43L32 44L34 44L34 41ZM3 43L3 44L4 44L4 43ZM26 43L26 44L25 44L25 45L26 45L26 44L27 44L27 43ZM55 43L55 44L54 44L54 45L52 45L52 47L53 47L53 48L54 48L54 45L55 45L55 44L56 44L56 43ZM17 44L17 45L18 45L18 44ZM47 44L47 45L46 45L46 46L47 46L47 45L48 45L48 44ZM27 45L27 46L26 46L26 47L27 47L27 46L28 46L28 45ZM3 46L3 47L5 47L5 46ZM34 47L34 48L31 48L31 52L32 52L32 51L34 51L34 50L35 50L35 51L36 51L36 52L35 52L35 53L36 53L36 54L37 54L37 53L36 53L36 52L38 52L38 50L39 50L39 52L40 52L40 55L39 55L39 56L40 56L40 55L42 55L42 54L41 54L41 52L40 52L40 51L41 51L41 50L42 50L42 48L40 48L40 47L39 47L39 48L38 48L38 47L36 47L36 48L35 48L35 47ZM8 48L8 49L9 49L9 48ZM36 48L36 49L37 49L37 50L36 50L36 51L37 51L37 50L38 50L38 49L37 49L37 48ZM39 48L39 50L40 50L40 48ZM18 49L18 50L19 50L19 49ZM25 49L25 50L26 50L26 49ZM27 49L27 52L30 52L30 49ZM33 49L33 50L34 50L34 49ZM49 49L49 52L52 52L52 49ZM28 50L28 51L29 51L29 50ZM50 50L50 51L51 51L51 50ZM22 51L22 52L23 52L23 51ZM25 51L25 53L26 53L26 51ZM54 51L54 52L56 52L56 51ZM13 53L13 54L14 54L14 53ZM43 53L43 56L44 56L44 55L45 55L45 54L44 54L44 53ZM9 54L9 55L10 55L10 54ZM27 55L27 56L28 56L28 55ZM25 56L25 57L26 57L26 56ZM0 0L0 7L7 7L7 0ZM1 1L1 6L6 6L6 1ZM2 2L2 5L5 5L5 2ZM50 0L50 7L57 7L57 0ZM51 1L51 6L56 6L56 1ZM52 2L52 5L55 5L55 2ZM0 50L0 57L7 57L7 50ZM1 51L1 56L6 56L6 51ZM2 52L2 55L5 55L5 52Z" fill="#000000"/></g></g></svg>
