<?xml version="1.0" encoding="UTF-8"?>
<svg xmlns="http://www.w3.org/2000/svg" version="1.1" width="300" height="300" viewBox="0 0 300 300"><rect x="0" y="0" width="300" height="300" fill="#ffffff"/><g transform="scale(4.918)"><g transform="translate(2,2)"><path fill-rule="evenodd" d="M13 0L13 1L12 1L12 4L13 4L13 5L11 5L11 6L10 6L10 3L11 3L11 1L10 1L10 2L9 2L9 1L8 1L8 2L9 2L9 3L8 3L8 4L9 4L9 5L8 5L8 7L9 7L9 8L6 8L6 9L7 9L7 10L6 10L6 11L5 11L5 8L0 8L0 11L1 11L1 9L3 9L3 10L2 10L2 11L3 11L3 10L4 10L4 12L6 12L6 13L8 13L8 12L6 12L6 11L7 11L7 10L8 10L8 9L9 9L9 10L12 10L12 11L14 11L14 12L11 12L11 13L10 13L10 11L9 11L9 15L8 15L8 18L6 18L6 17L7 17L7 16L6 16L6 15L7 15L7 14L6 14L6 15L4 15L4 14L5 14L5 13L4 13L4 14L1 14L1 16L0 16L0 17L1 17L1 18L0 18L0 21L1 21L1 22L0 22L0 23L1 23L1 22L2 22L2 24L0 24L0 27L1 27L1 28L2 28L2 29L3 29L3 28L2 28L2 27L1 27L1 26L2 26L2 24L3 24L3 25L5 25L5 26L3 26L3 27L4 27L4 30L3 30L3 31L5 31L5 32L4 32L4 33L5 33L5 32L6 32L6 33L8 33L8 34L9 34L9 33L11 33L11 32L13 32L13 30L14 30L14 29L18 29L18 30L19 30L19 29L22 29L22 28L21 28L21 27L22 27L22 25L21 25L21 24L22 24L22 23L21 23L21 24L19 24L19 23L20 23L20 22L17 22L17 21L16 21L16 20L15 20L15 21L16 21L16 22L14 22L14 21L13 21L13 20L14 20L14 19L13 19L13 20L12 20L12 21L13 21L13 22L14 22L14 23L12 23L12 22L10 22L10 21L11 21L11 20L10 20L10 19L12 19L12 18L15 18L15 19L18 19L18 21L20 21L20 20L19 20L19 19L21 19L21 21L22 21L22 22L24 22L24 21L25 21L25 22L26 22L26 23L25 23L25 24L24 24L24 23L23 23L23 24L24 24L24 25L23 25L23 27L24 27L24 28L25 28L25 27L26 27L26 30L25 30L25 29L23 29L23 30L22 30L22 31L21 31L21 32L20 32L20 31L19 31L19 32L18 32L18 33L19 33L19 34L18 34L18 35L20 35L20 33L21 33L21 35L22 35L22 34L23 34L23 37L22 37L22 36L21 36L21 37L19 37L19 36L17 36L17 38L18 38L18 40L16 40L16 39L15 39L15 38L16 38L16 37L15 37L15 36L14 36L14 37L15 37L15 38L14 38L14 39L12 39L12 38L11 38L11 37L13 37L13 35L12 35L12 34L11 34L11 35L10 35L10 36L9 36L9 35L8 35L8 36L9 36L9 38L6 38L6 39L8 39L8 40L6 40L6 41L5 41L5 42L4 42L4 43L7 43L7 44L3 44L3 43L1 43L1 42L2 42L2 40L3 40L3 41L4 41L4 40L3 40L3 39L2 39L2 38L4 38L4 37L3 37L3 36L4 36L4 35L3 35L3 34L2 34L2 33L3 33L3 32L2 32L2 31L0 31L0 33L1 33L1 34L0 34L0 36L2 36L2 37L1 37L1 39L0 39L0 40L1 40L1 42L0 42L0 44L1 44L1 46L0 46L0 48L5 48L5 47L7 47L7 48L6 48L6 49L7 49L7 48L8 48L8 51L9 51L9 52L8 52L8 57L9 57L9 56L11 56L11 57L12 57L12 56L13 56L13 55L12 55L12 54L13 54L13 53L14 53L14 55L16 55L16 56L15 56L15 57L19 57L19 56L18 56L18 55L20 55L20 54L17 54L17 53L20 53L20 52L22 52L22 51L20 51L20 52L18 52L18 51L19 51L19 50L20 50L20 49L21 49L21 50L23 50L23 51L24 51L24 53L21 53L21 55L23 55L23 56L24 56L24 57L26 57L26 56L28 56L28 55L27 55L27 53L28 53L28 54L30 54L30 53L31 53L31 55L34 55L34 56L30 56L30 55L29 55L29 56L30 56L30 57L39 57L39 56L41 56L41 57L42 57L42 56L43 56L43 57L44 57L44 55L43 55L43 53L44 53L44 54L45 54L45 55L46 55L46 54L45 54L45 53L47 53L47 52L48 52L48 54L47 54L47 57L48 57L48 55L49 55L49 56L50 56L50 55L51 55L51 57L52 57L52 56L53 56L53 57L54 57L54 56L55 56L55 57L56 57L56 56L55 56L55 54L54 54L54 53L53 53L53 49L54 49L54 48L55 48L55 50L57 50L57 49L56 49L56 48L55 48L55 47L56 47L56 46L57 46L57 45L56 45L56 44L57 44L57 43L56 43L56 42L55 42L55 41L54 41L54 43L53 43L53 42L51 42L51 41L52 41L52 40L55 40L55 39L57 39L57 37L56 37L56 35L54 35L54 36L53 36L53 34L52 34L52 37L54 37L54 39L52 39L52 38L51 38L51 41L48 41L48 42L43 42L43 41L42 41L42 40L43 40L43 39L42 39L42 38L43 38L43 37L44 37L44 38L45 38L45 39L44 39L44 40L45 40L45 41L46 41L46 40L47 40L47 39L50 39L50 38L47 38L47 39L46 39L46 38L45 38L45 37L47 37L47 36L48 36L48 35L50 35L50 33L49 33L49 34L48 34L48 33L47 33L47 34L45 34L45 37L44 37L44 35L42 35L42 34L44 34L44 33L43 33L43 32L45 32L45 33L46 33L46 32L45 32L45 31L44 31L44 30L46 30L46 31L47 31L47 32L48 32L48 31L50 31L50 32L51 32L51 33L53 33L53 32L55 32L55 33L54 33L54 34L57 34L57 33L56 33L56 30L57 30L57 29L56 29L56 28L57 28L57 27L56 27L56 25L57 25L57 23L56 23L56 22L57 22L57 21L55 21L55 22L54 22L54 21L53 21L53 22L52 22L52 24L50 24L50 23L51 23L51 22L50 22L50 17L48 17L48 16L47 16L47 17L48 17L48 18L45 18L45 17L46 17L46 16L45 16L45 15L49 15L49 16L52 16L52 15L50 15L50 11L51 11L51 10L52 10L52 8L51 8L51 10L49 10L49 9L50 9L50 8L49 8L49 6L48 6L48 8L45 8L45 9L48 9L48 10L46 10L46 11L48 11L48 12L49 12L49 13L47 13L47 14L46 14L46 12L45 12L45 13L44 13L44 12L43 12L43 11L42 11L42 10L43 10L43 9L44 9L44 7L45 7L45 6L44 6L44 7L43 7L43 6L42 6L42 5L43 5L43 4L42 4L42 3L47 3L47 5L46 5L46 4L44 4L44 5L46 5L46 7L47 7L47 5L48 5L48 0L45 0L45 1L47 1L47 2L40 2L40 1L44 1L44 0L39 0L39 1L38 1L38 0L37 0L37 1L33 1L33 2L32 2L32 1L31 1L31 0L28 0L28 1L31 1L31 2L27 2L27 1L26 1L26 0L24 0L24 1L23 1L23 0L21 0L21 1L23 1L23 2L20 2L20 3L21 3L21 4L19 4L19 3L18 3L18 4L19 4L19 5L18 5L18 7L17 7L17 6L16 6L16 7L15 7L15 6L14 6L14 8L13 8L13 5L16 5L16 4L14 4L14 2L13 2L13 1L16 1L16 2L15 2L15 3L16 3L16 2L17 2L17 1L16 1L16 0ZM18 1L18 2L19 2L19 1ZM25 1L25 3L26 3L26 4L25 4L25 8L24 8L24 6L23 6L23 5L24 5L24 4L23 4L23 3L24 3L24 2L23 2L23 3L22 3L22 4L21 4L21 8L22 8L22 9L19 9L19 11L20 11L20 12L19 12L19 15L18 15L18 14L17 14L17 13L18 13L18 12L17 12L17 11L18 11L18 10L17 10L17 7L16 7L16 9L15 9L15 8L14 8L14 9L12 9L12 10L15 10L15 11L16 11L16 12L17 12L17 13L13 13L13 14L17 14L17 17L16 17L16 15L12 15L12 14L11 14L11 15L9 15L9 17L10 17L10 16L11 16L11 18L12 18L12 17L16 17L16 18L17 18L17 17L18 17L18 19L19 19L19 17L20 17L20 18L21 18L21 17L20 17L20 16L21 16L21 13L22 13L22 15L23 15L23 16L22 16L22 17L24 17L24 15L26 15L26 16L25 16L25 17L26 17L26 16L27 16L27 17L28 17L28 16L29 16L29 17L31 17L31 18L29 18L29 20L28 20L28 18L27 18L27 19L26 19L26 18L24 18L24 19L23 19L23 18L22 18L22 21L24 21L24 20L25 20L25 19L26 19L26 20L27 20L27 22L28 22L28 23L27 23L27 24L25 24L25 26L24 26L24 27L25 27L25 26L26 26L26 25L27 25L27 24L28 24L28 25L31 25L31 26L32 26L32 25L31 25L31 24L33 24L33 23L31 23L31 22L29 22L29 20L30 20L30 19L31 19L31 18L32 18L32 19L33 19L33 20L32 20L32 21L33 21L33 22L35 22L35 23L34 23L34 24L35 24L35 25L33 25L33 28L32 28L32 27L31 27L31 28L32 28L32 29L31 29L31 30L36 30L36 32L31 32L31 31L25 31L25 34L24 34L24 36L26 36L26 37L25 37L25 42L24 42L24 43L23 43L23 45L22 45L22 44L21 44L21 43L22 43L22 42L21 42L21 41L24 41L24 39L23 39L23 38L24 38L24 37L23 37L23 38L22 38L22 37L21 37L21 38L22 38L22 39L21 39L21 41L20 41L20 42L19 42L19 41L16 41L16 40L15 40L15 44L14 44L14 43L13 43L13 40L11 40L11 38L9 38L9 40L11 40L11 41L10 41L10 42L9 42L9 41L6 41L6 42L7 42L7 43L8 43L8 42L9 42L9 43L10 43L10 44L7 44L7 45L6 45L6 46L7 46L7 45L8 45L8 47L11 47L11 46L12 46L12 49L11 49L11 51L10 51L10 52L9 52L9 53L11 53L11 54L9 54L9 55L11 55L11 56L12 56L12 55L11 55L11 54L12 54L12 52L14 52L14 53L15 53L15 54L16 54L16 53L17 53L17 51L18 51L18 50L19 50L19 49L20 49L20 48L21 48L21 49L24 49L24 48L21 48L21 47L20 47L20 46L21 46L21 45L22 45L22 47L25 47L25 49L26 49L26 48L27 48L27 47L26 47L26 46L28 46L28 47L29 47L29 45L30 45L30 44L32 44L32 45L31 45L31 47L32 47L32 45L33 45L33 46L36 46L36 47L35 47L35 48L31 48L31 50L32 50L32 51L31 51L31 52L32 52L32 54L35 54L35 56L36 56L36 55L38 55L38 56L39 56L39 53L38 53L38 52L40 52L40 55L41 55L41 56L42 56L42 54L41 54L41 52L42 52L42 53L43 53L43 52L42 52L42 51L43 51L43 50L44 50L44 53L45 53L45 52L47 52L47 51L48 51L48 48L49 48L49 47L53 47L53 48L54 48L54 47L55 47L55 46L54 46L54 45L55 45L55 44L54 44L54 45L51 45L51 44L50 44L50 45L49 45L49 43L48 43L48 44L47 44L47 45L46 45L46 46L47 46L47 47L45 47L45 46L42 46L42 45L43 45L43 44L44 44L44 45L45 45L45 43L43 43L43 42L39 42L39 41L41 41L41 40L42 40L42 39L41 39L41 38L42 38L42 37L43 37L43 36L42 36L42 37L41 37L41 36L40 36L40 35L41 35L41 34L42 34L42 31L43 31L43 30L42 30L42 29L43 29L43 28L42 28L42 27L43 27L43 26L42 26L42 27L41 27L41 25L42 25L42 23L43 23L43 24L44 24L44 25L45 25L45 27L46 27L46 28L47 28L47 29L46 29L46 30L47 30L47 31L48 31L48 28L47 28L47 25L49 25L49 24L48 24L48 23L50 23L50 22L48 22L48 21L49 21L49 18L48 18L48 19L46 19L46 21L45 21L45 20L42 20L42 19L45 19L45 18L42 18L42 16L40 16L40 15L38 15L38 16L37 16L37 15L36 15L36 14L39 14L39 13L41 13L41 14L42 14L42 15L44 15L44 13L43 13L43 14L42 14L42 11L41 11L41 10L42 10L42 9L41 9L41 8L42 8L42 6L41 6L41 5L40 5L40 4L41 4L41 3L40 3L40 4L38 4L38 3L37 3L37 2L38 2L38 1L37 1L37 2L33 2L33 3L32 3L32 4L31 4L31 3L27 3L27 2L26 2L26 1ZM33 3L33 4L35 4L35 3ZM36 3L36 5L33 5L33 6L32 6L32 7L31 7L31 4L26 4L26 8L25 8L25 9L22 9L22 11L21 11L21 12L20 12L20 13L21 13L21 12L22 12L22 13L23 13L23 14L26 14L26 13L28 13L28 14L27 14L27 16L28 16L28 15L29 15L29 14L30 14L30 16L34 16L34 15L35 15L35 14L36 14L36 13L38 13L38 12L41 12L41 11L39 11L39 10L37 10L37 8L36 8L36 7L37 7L37 6L36 6L36 5L38 5L38 4L37 4L37 3ZM22 4L22 5L23 5L23 4ZM19 5L19 7L18 7L18 8L19 8L19 7L20 7L20 5ZM27 5L27 8L30 8L30 5ZM9 6L9 7L10 7L10 8L9 8L9 9L11 9L11 8L12 8L12 6L11 6L11 7L10 7L10 6ZM22 6L22 8L23 8L23 6ZM28 6L28 7L29 7L29 6ZM33 6L33 7L32 7L32 8L31 8L31 9L32 9L32 10L30 10L30 12L28 12L28 13L30 13L30 14L31 14L31 15L32 15L32 13L33 13L33 14L35 14L35 13L33 13L33 12L32 12L32 13L31 13L31 11L33 11L33 9L34 9L34 10L35 10L35 9L36 9L36 8L34 8L34 6ZM35 6L35 7L36 7L36 6ZM38 6L38 8L41 8L41 6L40 6L40 7L39 7L39 6ZM48 8L48 9L49 9L49 8ZM53 8L53 9L54 9L54 8ZM55 8L55 9L56 9L56 8ZM25 9L25 10L23 10L23 13L25 13L25 12L27 12L27 11L26 11L26 10L27 10L27 9ZM28 9L28 10L29 10L29 9ZM40 9L40 10L41 10L41 9ZM36 10L36 11L34 11L34 12L36 12L36 11L37 11L37 10ZM44 10L44 11L45 11L45 10ZM48 10L48 11L49 11L49 10ZM53 10L53 11L52 11L52 12L53 12L53 11L54 11L54 12L57 12L57 11L56 11L56 10L55 10L55 11L54 11L54 10ZM51 13L51 14L52 14L52 13ZM53 13L53 14L55 14L55 15L53 15L53 16L55 16L55 15L56 15L56 16L57 16L57 15L56 15L56 14L57 14L57 13L56 13L56 14L55 14L55 13ZM2 15L2 17L3 17L3 18L2 18L2 19L1 19L1 21L2 21L2 22L3 22L3 24L7 24L7 23L6 23L6 22L7 22L7 21L9 21L9 20L8 20L8 19L5 19L5 16L4 16L4 17L3 17L3 15ZM11 15L11 16L12 16L12 15ZM19 15L19 16L18 16L18 17L19 17L19 16L20 16L20 15ZM35 16L35 18L34 18L34 17L32 17L32 18L34 18L34 20L33 20L33 21L35 21L35 18L37 18L37 20L36 20L36 21L37 21L37 22L36 22L36 23L35 23L35 24L36 24L36 25L35 25L35 26L34 26L34 28L33 28L33 29L37 29L37 30L38 30L38 29L39 29L39 31L40 31L40 32L36 32L36 33L35 33L35 34L34 34L34 33L33 33L33 34L34 34L34 35L33 35L33 37L34 37L34 36L35 36L35 35L37 35L37 36L36 36L36 37L37 37L37 38L36 38L36 40L35 40L35 39L34 39L34 40L35 40L35 42L36 42L36 41L39 41L39 38L40 38L40 36L38 36L38 35L39 35L39 34L40 34L40 32L41 32L41 31L42 31L42 30L40 30L40 29L39 29L39 28L38 28L38 29L37 29L37 26L38 26L38 27L39 27L39 26L38 26L38 25L37 25L37 24L36 24L36 23L37 23L37 22L38 22L38 24L40 24L40 20L41 20L41 21L42 21L42 22L41 22L41 23L42 23L42 22L43 22L43 21L42 21L42 20L41 20L41 19L42 19L42 18L41 18L41 17L40 17L40 16L38 16L38 17L39 17L39 18L37 18L37 16ZM43 16L43 17L45 17L45 16ZM52 17L52 18L53 18L53 19L54 19L54 20L56 20L56 18L57 18L57 17L56 17L56 18L55 18L55 17ZM3 18L3 20L2 20L2 21L3 21L3 22L4 22L4 21L3 21L3 20L4 20L4 18ZM9 18L9 19L10 19L10 18ZM40 18L40 19L38 19L38 22L39 22L39 20L40 20L40 19L41 19L41 18ZM51 19L51 20L52 20L52 19ZM5 20L5 22L6 22L6 21L7 21L7 20ZM47 20L47 21L48 21L48 20ZM44 21L44 24L45 24L45 25L46 25L46 24L45 24L45 23L46 23L46 22L45 22L45 21ZM9 22L9 23L10 23L10 22ZM47 22L47 23L48 23L48 22ZM14 23L14 24L13 24L13 26L11 26L11 24L9 24L9 25L8 25L8 26L9 26L9 25L10 25L10 26L11 26L11 27L9 27L9 32L8 32L8 31L6 31L6 32L8 32L8 33L9 33L9 32L10 32L10 31L12 31L12 30L13 30L13 26L14 26L14 24L16 24L16 25L15 25L15 26L16 26L16 27L17 27L17 28L18 28L18 29L19 29L19 28L20 28L20 27L21 27L21 25L18 25L18 24L16 24L16 23ZM28 23L28 24L29 24L29 23ZM30 23L30 24L31 24L31 23ZM52 24L52 25L50 25L50 26L53 26L53 27L55 27L55 26L54 26L54 25L53 25L53 24ZM6 25L6 26L7 26L7 25ZM17 25L17 27L18 27L18 25ZM19 26L19 27L20 27L20 26ZM35 26L35 28L36 28L36 26ZM5 27L5 30L8 30L8 27ZM11 27L11 29L10 29L10 30L12 30L12 27ZM14 27L14 28L15 28L15 27ZM27 27L27 30L30 30L30 27ZM49 27L49 30L52 30L52 27ZM6 28L6 29L7 29L7 28ZM28 28L28 29L29 29L29 28ZM44 28L44 29L45 29L45 28ZM50 28L50 29L51 29L51 28ZM54 28L54 29L55 29L55 28ZM0 29L0 30L1 30L1 29ZM16 30L16 31L17 31L17 30ZM23 30L23 31L22 31L22 33L24 33L24 32L23 32L23 31L24 31L24 30ZM52 31L52 32L53 32L53 31ZM1 32L1 33L2 33L2 32ZM16 32L16 33L15 33L15 35L17 35L17 34L16 34L16 33L17 33L17 32ZM27 32L27 33L26 33L26 34L25 34L25 35L27 35L27 33L29 33L29 34L30 34L30 35L29 35L29 39L31 39L31 40L28 40L28 39L27 39L27 38L28 38L28 37L26 37L26 40L27 40L27 41L26 41L26 42L27 42L27 41L31 41L31 42L30 42L30 43L29 43L29 42L28 42L28 43L29 43L29 44L27 44L27 43L26 43L26 44L25 44L25 43L24 43L24 44L25 44L25 45L23 45L23 46L25 46L25 45L26 45L26 44L27 44L27 45L29 45L29 44L30 44L30 43L31 43L31 42L32 42L32 41L31 41L31 40L32 40L32 39L31 39L31 38L32 38L32 34L31 34L31 32L30 32L30 33L29 33L29 32ZM13 33L13 34L14 34L14 33ZM37 33L37 34L39 34L39 33ZM1 34L1 35L2 35L2 36L3 36L3 35L2 35L2 34ZM6 34L6 35L7 35L7 34ZM11 35L11 36L10 36L10 37L11 37L11 36L12 36L12 35ZM46 35L46 36L47 36L47 35ZM5 36L5 37L7 37L7 36ZM30 36L30 38L31 38L31 36ZM37 36L37 37L38 37L38 38L39 38L39 37L38 37L38 36ZM49 36L49 37L50 37L50 36ZM54 36L54 37L55 37L55 38L56 38L56 37L55 37L55 36ZM18 37L18 38L19 38L19 39L20 39L20 38L19 38L19 37ZM11 41L11 42L10 42L10 43L11 43L11 44L10 44L10 45L9 45L9 46L11 46L11 44L12 44L12 46L13 46L13 45L14 45L14 46L15 46L15 45L17 45L17 46L18 46L18 47L19 47L19 48L18 48L18 49L17 49L17 47L15 47L15 48L14 48L14 47L13 47L13 49L12 49L12 50L13 50L13 49L14 49L14 51L15 51L15 53L16 53L16 51L17 51L17 50L18 50L18 49L19 49L19 48L20 48L20 47L19 47L19 45L21 45L21 44L19 44L19 42L18 42L18 43L17 43L17 42L16 42L16 44L15 44L15 45L14 45L14 44L13 44L13 43L11 43L11 42L12 42L12 41ZM33 41L33 43L32 43L32 44L34 44L34 41ZM20 42L20 43L21 43L21 42ZM37 42L37 43L39 43L39 44L40 44L40 43L39 43L39 42ZM50 42L50 43L51 43L51 42ZM41 43L41 44L43 44L43 43ZM52 43L52 44L53 44L53 43ZM17 44L17 45L18 45L18 44ZM35 44L35 45L36 45L36 46L37 46L37 48L35 48L35 50L33 50L33 51L32 51L32 52L33 52L33 53L34 53L34 52L33 52L33 51L35 51L35 50L36 50L36 52L35 52L35 54L38 54L38 53L37 53L37 52L38 52L38 51L39 51L39 50L43 50L43 49L44 49L44 48L45 48L45 47L44 47L44 48L43 48L43 47L42 47L42 46L41 46L41 45L40 45L40 46L37 46L37 45L38 45L38 44ZM2 45L2 46L1 46L1 47L2 47L2 46L3 46L3 47L5 47L5 45ZM48 45L48 46L49 46L49 45ZM40 46L40 47L38 47L38 48L37 48L37 49L36 49L36 50L37 50L37 51L38 51L38 50L39 50L39 49L38 49L38 48L40 48L40 49L41 49L41 48L42 48L42 49L43 49L43 48L42 48L42 47L41 47L41 46ZM40 47L40 48L41 48L41 47ZM9 49L9 50L10 50L10 49ZM15 49L15 50L17 50L17 49ZM27 49L27 52L30 52L30 49ZM37 49L37 50L38 50L38 49ZM45 49L45 50L46 50L46 51L47 51L47 50L46 50L46 49ZM49 49L49 52L52 52L52 49ZM28 50L28 51L29 51L29 50ZM50 50L50 51L51 51L51 50ZM25 51L25 53L24 53L24 54L23 54L23 55L24 55L24 56L26 56L26 54L25 54L25 53L26 53L26 51ZM40 51L40 52L41 52L41 51ZM54 51L54 52L55 52L55 51ZM56 51L56 52L57 52L57 51ZM49 53L49 54L51 54L51 55L54 55L54 54L51 54L51 53ZM0 0L0 7L7 7L7 0ZM1 1L1 6L6 6L6 1ZM2 2L2 5L5 5L5 2ZM50 0L50 7L57 7L57 0ZM51 1L51 6L56 6L56 1ZM52 2L52 5L55 5L55 2ZM0 50L0 57L7 57L7 50ZM1 51L1 56L6 56L6 51ZM2 52L2 55L5 55L5 52Z" fill="#000000"/></g></g></svg>
