<?xml version="1.0" encoding="UTF-8"?>
<svg xmlns="http://www.w3.org/2000/svg" version="1.1" width="300" height="300" viewBox="0 0 300 300"><rect x="0" y="0" width="300" height="300" fill="#ffffff"/><g transform="scale(4.918)"><g transform="translate(2,2)"><path fill-rule="evenodd" d="M8 0L8 1L9 1L9 2L8 2L8 5L11 5L11 6L10 6L10 7L9 7L9 6L8 6L8 7L9 7L9 8L8 8L8 9L9 9L9 10L8 10L8 11L7 11L7 10L6 10L6 9L7 9L7 8L6 8L6 9L5 9L5 10L3 10L3 9L4 9L4 8L0 8L0 9L2 9L2 10L0 10L0 11L1 11L1 12L2 12L2 14L3 14L3 15L1 15L1 14L0 14L0 16L1 16L1 18L2 18L2 16L3 16L3 15L4 15L4 13L3 13L3 12L4 12L4 11L5 11L5 12L6 12L6 13L8 13L8 14L10 14L10 15L9 15L9 16L10 16L10 17L8 17L8 15L7 15L7 14L5 14L5 15L7 15L7 16L4 16L4 17L3 17L3 18L4 18L4 17L5 17L5 18L6 18L6 19L7 19L7 20L6 20L6 21L7 21L7 22L6 22L6 23L5 23L5 24L4 24L4 23L3 23L3 22L5 22L5 21L4 21L4 20L5 20L5 19L4 19L4 20L2 20L2 19L1 19L1 20L0 20L0 21L1 21L1 22L2 22L2 23L1 23L1 24L0 24L0 26L1 26L1 24L2 24L2 25L3 25L3 24L4 24L4 25L5 25L5 26L4 26L4 28L3 28L3 29L2 29L2 28L1 28L1 27L0 27L0 28L1 28L1 29L0 29L0 31L1 31L1 32L0 32L0 33L1 33L1 34L0 34L0 37L1 37L1 38L0 38L0 40L1 40L1 38L2 38L2 39L3 39L3 40L4 40L4 41L0 41L0 42L3 42L3 43L4 43L4 44L3 44L3 45L4 45L4 46L5 46L5 47L3 47L3 46L2 46L2 47L1 47L1 45L2 45L2 43L0 43L0 48L5 48L5 47L8 47L8 48L11 48L11 47L13 47L13 46L14 46L14 45L15 45L15 44L12 44L12 45L13 45L13 46L11 46L11 47L9 47L9 46L8 46L8 45L7 45L7 44L9 44L9 45L10 45L10 43L12 43L12 42L11 42L11 36L13 36L13 37L12 37L12 38L15 38L15 39L14 39L14 40L15 40L15 41L14 41L14 42L13 42L13 43L15 43L15 42L16 42L16 43L17 43L17 41L18 41L18 43L19 43L19 45L17 45L17 47L18 47L18 50L19 50L19 51L20 51L20 52L19 52L19 53L18 53L18 54L16 54L16 53L15 53L15 51L13 51L13 52L12 52L12 53L11 53L11 51L12 51L12 50L11 50L11 49L8 49L8 50L9 50L9 53L8 53L8 57L9 57L9 55L10 55L10 56L11 56L11 57L14 57L14 55L15 55L15 56L17 56L17 57L18 57L18 56L19 56L19 57L20 57L20 56L21 56L21 57L25 57L25 55L26 55L26 54L28 54L28 53L29 53L29 54L31 54L31 55L30 55L30 56L31 56L31 55L32 55L32 57L33 57L33 56L35 56L35 57L36 57L36 55L37 55L37 53L36 53L36 51L34 51L34 50L33 50L33 49L34 49L34 48L35 48L35 49L37 49L37 52L38 52L38 53L39 53L39 52L38 52L38 51L40 51L40 52L41 52L41 53L40 53L40 54L39 54L39 55L40 55L40 56L39 56L39 57L41 57L41 55L40 55L40 54L42 54L42 52L43 52L43 54L45 54L45 55L46 55L46 56L45 56L45 57L46 57L46 56L47 56L47 57L50 57L50 56L51 56L51 54L50 54L50 53L55 53L55 54L56 54L56 53L57 53L57 52L56 52L56 51L55 51L55 49L56 49L56 47L57 47L57 45L56 45L56 44L57 44L57 43L56 43L56 42L57 42L57 40L56 40L56 42L54 42L54 43L55 43L55 44L53 44L53 47L52 47L52 44L51 44L51 46L50 46L50 45L49 45L49 46L48 46L48 45L47 45L47 46L46 46L46 45L45 45L45 46L46 46L46 47L43 47L43 46L44 46L44 45L43 45L43 44L42 44L42 47L41 47L41 44L40 44L40 43L41 43L41 42L42 42L42 41L43 41L43 40L44 40L44 43L46 43L46 44L47 44L47 43L48 43L48 42L47 42L47 41L49 41L49 40L45 40L45 39L44 39L44 38L42 38L42 37L41 37L41 38L40 38L40 35L41 35L41 34L40 34L40 33L41 33L41 32L42 32L42 35L46 35L46 36L45 36L45 38L46 38L46 39L47 39L47 38L50 38L50 37L47 37L47 36L50 36L50 35L51 35L51 39L50 39L50 42L49 42L49 44L50 44L50 42L51 42L51 43L53 43L53 41L55 41L55 39L54 39L54 38L55 38L55 37L56 37L56 35L57 35L57 33L55 33L55 32L57 32L57 31L56 31L56 30L57 30L57 29L56 29L56 30L55 30L55 32L54 32L54 29L55 29L55 26L57 26L57 21L55 21L55 20L54 20L54 19L55 19L55 18L54 18L54 17L55 17L55 15L54 15L54 17L53 17L53 18L52 18L52 16L53 16L53 14L51 14L51 13L50 13L50 12L49 12L49 14L51 14L51 19L49 19L49 20L51 20L51 21L53 21L53 20L54 20L54 22L55 22L55 23L56 23L56 24L55 24L55 26L54 26L54 25L53 25L53 26L52 26L52 25L50 25L50 26L48 26L48 23L47 23L47 22L50 22L50 21L48 21L48 20L47 20L47 19L48 19L48 16L46 16L46 15L44 15L44 16L43 16L43 19L42 19L42 18L41 18L41 19L39 19L39 18L40 18L40 17L39 17L39 16L38 16L38 15L39 15L39 13L38 13L38 12L39 12L39 10L38 10L38 8L39 8L39 9L41 9L41 10L40 10L40 12L41 12L41 11L45 11L45 13L46 13L46 12L48 12L48 11L47 11L47 10L50 10L50 8L48 8L48 9L47 9L47 8L46 8L46 7L47 7L47 5L48 5L48 0L46 0L46 1L47 1L47 2L46 2L46 3L47 3L47 5L45 5L45 6L44 6L44 5L43 5L43 6L42 6L42 7L41 7L41 6L40 6L40 7L39 7L39 4L40 4L40 3L39 3L39 2L36 2L36 1L34 1L34 0L32 0L32 3L31 3L31 4L28 4L28 2L27 2L27 4L26 4L26 1L25 1L25 0L24 0L24 2L25 2L25 3L23 3L23 4L22 4L22 5L23 5L23 6L22 6L22 7L21 7L21 5L20 5L20 4L19 4L19 3L21 3L21 2L22 2L22 1L23 1L23 0L21 0L21 1L20 1L20 2L18 2L18 1L16 1L16 3L17 3L17 2L18 2L18 4L17 4L17 5L15 5L15 6L14 6L14 3L13 3L13 5L11 5L11 4L12 4L12 0ZM14 0L14 2L15 2L15 0ZM28 0L28 1L29 1L29 2L31 2L31 0ZM37 0L37 1L38 1L38 0ZM39 0L39 1L40 1L40 0ZM42 0L42 3L41 3L41 4L43 4L43 2L44 2L44 3L45 3L45 1L44 1L44 0ZM10 1L10 2L9 2L9 4L10 4L10 2L11 2L11 1ZM35 2L35 4L34 4L34 3L32 3L32 4L31 4L31 5L32 5L32 6L31 6L31 7L32 7L32 6L33 6L33 7L34 7L34 6L33 6L33 5L32 5L32 4L34 4L34 5L35 5L35 4L36 4L36 5L37 5L37 8L36 8L36 6L35 6L35 9L34 9L34 10L33 10L33 8L32 8L32 10L31 10L31 12L29 12L29 10L27 10L27 9L26 9L26 6L25 6L25 5L26 5L26 4L24 4L24 6L23 6L23 7L22 7L22 8L23 8L23 7L24 7L24 9L25 9L25 10L23 10L23 11L19 11L19 7L20 7L20 8L21 8L21 7L20 7L20 6L19 6L19 7L18 7L18 5L17 5L17 7L16 7L16 6L15 6L15 7L14 7L14 6L13 6L13 7L12 7L12 6L11 6L11 8L14 8L14 9L15 9L15 10L14 10L14 11L16 11L16 12L17 12L17 13L16 13L16 14L14 14L14 13L13 13L13 11L12 11L12 10L13 10L13 9L10 9L10 8L9 8L9 9L10 9L10 10L9 10L9 11L10 11L10 10L11 10L11 12L9 12L9 13L10 13L10 14L11 14L11 15L10 15L10 16L12 16L12 15L15 15L15 17L16 17L16 15L17 15L17 16L18 16L18 17L19 17L19 18L18 18L18 20L17 20L17 18L16 18L16 20L14 20L14 22L13 22L13 21L11 21L11 20L10 20L10 19L8 19L8 22L7 22L7 23L6 23L6 24L5 24L5 25L6 25L6 26L10 26L10 25L8 25L8 24L9 24L9 23L8 23L8 22L10 22L10 21L11 21L11 22L12 22L12 23L11 23L11 26L12 26L12 24L13 24L13 23L14 23L14 25L13 25L13 27L10 27L10 28L13 28L13 30L12 30L12 31L14 31L14 32L15 32L15 34L14 34L14 33L12 33L12 34L11 34L11 31L10 31L10 32L8 32L8 31L6 31L6 32L7 32L7 33L6 33L6 34L5 34L5 35L4 35L4 36L3 36L3 38L5 38L5 39L4 39L4 40L5 40L5 42L4 42L4 43L6 43L6 44L7 44L7 43L6 43L6 42L7 42L7 41L9 41L9 43L10 43L10 39L9 39L9 40L7 40L7 39L8 39L8 38L10 38L10 37L8 37L8 38L7 38L7 37L6 37L6 38L5 38L5 37L4 37L4 36L5 36L5 35L6 35L6 36L7 36L7 35L6 35L6 34L8 34L8 36L9 36L9 35L10 35L10 36L11 36L11 35L13 35L13 36L15 36L15 38L18 38L18 37L17 37L17 36L18 36L18 35L19 35L19 33L20 33L20 34L21 34L21 33L22 33L22 32L23 32L23 33L24 33L24 32L25 32L25 29L26 29L26 26L29 26L29 24L30 24L30 26L31 26L31 28L32 28L32 26L33 26L33 25L31 25L31 23L30 23L30 21L29 21L29 22L25 22L25 20L24 20L24 19L25 19L25 17L24 17L24 16L21 16L21 15L22 15L22 14L23 14L23 15L24 15L24 14L25 14L25 16L26 16L26 18L27 18L27 19L28 19L28 20L29 20L29 19L30 19L30 20L31 20L31 21L33 21L33 22L32 22L32 24L34 24L34 23L35 23L35 24L39 24L39 25L40 25L40 26L41 26L41 27L36 27L36 26L38 26L38 25L36 25L36 26L35 26L35 25L34 25L34 27L33 27L33 29L34 29L34 27L36 27L36 30L35 30L35 33L34 33L34 31L32 31L32 30L31 30L31 31L32 31L32 33L31 33L31 32L30 32L30 31L28 31L28 32L26 32L26 33L25 33L25 34L22 34L22 35L23 35L23 36L22 36L22 37L23 37L23 36L25 36L25 34L28 34L28 35L29 35L29 33L31 33L31 34L30 34L30 37L29 37L29 36L26 36L26 37L24 37L24 39L22 39L22 38L21 38L21 35L20 35L20 36L19 36L19 37L20 37L20 38L21 38L21 40L22 40L22 41L20 41L20 40L18 40L18 39L16 39L16 40L18 40L18 41L19 41L19 42L20 42L20 43L21 43L21 44L22 44L22 46L21 46L21 45L20 45L20 46L18 46L18 47L20 47L20 48L19 48L19 49L20 49L20 48L21 48L21 50L20 50L20 51L22 51L22 52L21 52L21 53L20 53L20 55L19 55L19 54L18 54L18 55L17 55L17 56L18 56L18 55L19 55L19 56L20 56L20 55L21 55L21 53L22 53L22 54L23 54L23 55L22 55L22 56L24 56L24 55L25 55L25 54L23 54L23 52L24 52L24 53L25 53L25 52L26 52L26 51L25 51L25 52L24 52L24 51L23 51L23 50L26 50L26 49L25 49L25 47L24 47L24 48L23 48L23 45L24 45L24 44L25 44L25 46L26 46L26 47L27 47L27 48L28 48L28 46L29 46L29 48L31 48L31 52L32 52L32 51L33 51L33 50L32 50L32 49L33 49L33 48L32 48L32 45L33 45L33 47L34 47L34 46L35 46L35 48L36 48L36 46L37 46L37 49L39 49L39 47L40 47L40 50L41 50L41 47L40 47L40 45L39 45L39 44L38 44L38 43L35 43L35 42L34 42L34 41L35 41L35 40L34 40L34 39L33 39L33 38L32 38L32 40L31 40L31 38L30 38L30 37L31 37L31 36L32 36L32 37L34 37L34 38L36 38L36 42L39 42L39 43L40 43L40 41L42 41L42 39L40 39L40 38L39 38L39 39L40 39L40 41L39 41L39 40L38 40L38 39L37 39L37 37L39 37L39 36L38 36L38 35L40 35L40 34L39 34L39 33L40 33L40 32L38 32L38 31L37 31L37 28L40 28L40 31L41 31L41 30L42 30L42 32L43 32L43 30L45 30L45 31L44 31L44 33L43 33L43 34L44 34L44 33L45 33L45 32L47 32L47 33L46 33L46 34L47 34L47 35L49 35L49 33L50 33L50 34L54 34L54 33L53 33L53 32L52 32L52 31L50 31L50 32L49 32L49 33L48 33L48 30L47 30L47 31L46 31L46 28L48 28L48 26L47 26L47 25L46 25L46 26L47 26L47 27L46 27L46 28L45 28L45 26L43 26L43 25L45 25L45 24L44 24L44 23L45 23L45 22L44 22L44 21L45 21L45 20L46 20L46 17L45 17L45 18L44 18L44 21L43 21L43 22L42 22L42 23L43 23L43 24L41 24L41 22L39 22L39 21L40 21L40 20L39 20L39 21L38 21L38 22L37 22L37 20L35 20L35 19L38 19L38 18L39 18L39 17L38 17L38 16L37 16L37 15L38 15L38 13L36 13L36 17L35 17L35 16L34 16L34 17L33 17L33 18L31 18L31 17L32 17L32 16L31 16L31 17L30 17L30 18L29 18L29 17L27 17L27 15L28 15L28 16L30 16L30 15L31 15L31 14L32 14L32 15L35 15L35 13L34 13L34 14L33 14L33 12L34 12L34 10L35 10L35 9L37 9L37 8L38 8L38 5L37 5L37 4L36 4L36 2ZM38 3L38 4L39 4L39 3ZM27 5L27 8L30 8L30 5ZM24 6L24 7L25 7L25 6ZM28 6L28 7L29 7L29 6ZM43 6L43 7L44 7L44 10L45 10L45 11L46 11L46 10L47 10L47 9L46 9L46 8L45 8L45 7L46 7L46 6L45 6L45 7L44 7L44 6ZM48 6L48 7L49 7L49 6ZM16 8L16 9L17 9L17 12L18 12L18 13L19 13L19 12L18 12L18 8ZM41 8L41 9L43 9L43 8ZM52 8L52 9L51 9L51 10L53 10L53 9L55 9L55 10L54 10L54 11L57 11L57 10L56 10L56 9L57 9L57 8L56 8L56 9L55 9L55 8ZM20 9L20 10L21 10L21 9ZM32 10L32 12L31 12L31 13L30 13L30 14L31 14L31 13L32 13L32 12L33 12L33 10ZM37 10L37 11L36 11L36 12L38 12L38 10ZM6 11L6 12L7 12L7 11ZM24 11L24 12L22 12L22 13L23 13L23 14L24 14L24 12L25 12L25 13L26 13L26 14L29 14L29 13L28 13L28 12L26 12L26 11ZM51 11L51 12L52 12L52 11ZM11 12L11 14L13 14L13 13L12 13L12 12ZM20 12L20 14L19 14L19 16L20 16L20 15L21 15L21 12ZM42 12L42 13L40 13L40 14L41 14L41 15L40 15L40 16L41 16L41 17L42 17L42 16L41 16L41 15L43 15L43 14L44 14L44 12ZM42 13L42 14L43 14L43 13ZM47 14L47 15L48 15L48 14ZM56 15L56 18L57 18L57 15ZM13 16L13 19L15 19L15 18L14 18L14 16ZM6 17L6 18L7 18L7 17ZM11 17L11 18L12 18L12 17ZM23 17L23 19L22 19L22 20L21 20L21 18L19 18L19 19L20 19L20 20L21 20L21 22L19 22L19 23L18 23L18 22L17 22L17 20L16 20L16 23L15 23L15 22L14 22L14 23L15 23L15 26L14 26L14 27L15 27L15 28L16 28L16 29L14 29L14 31L15 31L15 32L16 32L16 31L17 31L17 32L19 32L19 31L20 31L20 33L21 33L21 31L20 31L20 30L19 30L19 31L17 31L17 27L19 27L19 26L21 26L21 24L20 24L20 23L22 23L22 24L24 24L24 25L25 25L25 22L24 22L24 21L23 21L23 19L24 19L24 17ZM34 17L34 19L33 19L33 20L34 20L34 21L35 21L35 20L34 20L34 19L35 19L35 17ZM28 18L28 19L29 19L29 18ZM31 19L31 20L32 20L32 19ZM41 19L41 21L42 21L42 19ZM51 19L51 20L53 20L53 19ZM1 20L1 21L2 21L2 20ZM9 20L9 21L10 21L10 20ZM46 21L46 22L47 22L47 21ZM22 22L22 23L23 23L23 22ZM35 22L35 23L36 23L36 22ZM38 22L38 23L39 23L39 22ZM51 22L51 23L53 23L53 24L54 24L54 23L53 23L53 22ZM2 23L2 24L3 24L3 23ZM16 23L16 24L18 24L18 23ZM26 23L26 24L27 24L27 23ZM46 23L46 24L47 24L47 23ZM6 24L6 25L7 25L7 24ZM16 25L16 26L19 26L19 25ZM22 26L22 27L24 27L24 28L23 28L23 29L21 29L21 30L22 30L22 31L23 31L23 30L24 30L24 29L25 29L25 26ZM42 26L42 28L41 28L41 29L45 29L45 28L44 28L44 27L43 27L43 26ZM53 26L53 27L54 27L54 26ZM5 27L5 30L8 30L8 27ZM27 27L27 30L30 30L30 27ZM49 27L49 30L52 30L52 27ZM6 28L6 29L7 29L7 28ZM18 28L18 29L19 29L19 28ZM28 28L28 29L29 29L29 28ZM50 28L50 29L51 29L51 28ZM53 28L53 29L54 29L54 28ZM3 29L3 31L4 31L4 29ZM9 29L9 30L10 30L10 29ZM38 29L38 30L39 30L39 29ZM1 30L1 31L2 31L2 30ZM15 30L15 31L16 31L16 30ZM36 31L36 32L37 32L37 31ZM1 32L1 33L2 33L2 34L1 34L1 35L2 35L2 34L3 34L3 33L2 33L2 32ZM8 33L8 34L9 34L9 33ZM33 33L33 34L32 34L32 35L33 35L33 36L34 36L34 37L35 37L35 36L34 36L34 35L35 35L35 34L37 34L37 35L36 35L36 37L37 37L37 35L38 35L38 34L37 34L37 33L35 33L35 34L34 34L34 33ZM47 33L47 34L48 34L48 33ZM10 34L10 35L11 35L11 34ZM13 34L13 35L14 35L14 34ZM17 34L17 35L15 35L15 36L17 36L17 35L18 35L18 34ZM55 34L55 35L52 35L52 36L54 36L54 37L55 37L55 35L56 35L56 34ZM1 36L1 37L2 37L2 36ZM43 36L43 37L44 37L44 36ZM46 37L46 38L47 38L47 37ZM52 37L52 38L53 38L53 37ZM6 38L6 39L7 39L7 38ZM25 38L25 39L24 39L24 41L23 41L23 42L22 42L22 44L24 44L24 43L25 43L25 42L27 42L27 43L28 43L28 44L29 44L29 40L28 40L28 39L30 39L30 38ZM56 38L56 39L57 39L57 38ZM12 39L12 41L13 41L13 39ZM25 39L25 41L24 41L24 42L23 42L23 43L24 43L24 42L25 42L25 41L26 41L26 39ZM51 39L51 41L53 41L53 40L52 40L52 39ZM6 40L6 41L7 41L7 40ZM32 40L32 41L34 41L34 40ZM37 40L37 41L38 41L38 40ZM30 42L30 45L29 45L29 46L31 46L31 44L32 44L32 43L31 43L31 42ZM33 42L33 43L34 43L34 42ZM4 44L4 45L5 45L5 44ZM33 44L33 45L36 45L36 44ZM37 44L37 46L38 46L38 47L39 47L39 46L38 46L38 44ZM6 45L6 46L7 46L7 45ZM15 46L15 47L14 47L14 49L13 49L13 48L12 48L12 49L13 49L13 50L15 50L15 47L16 47L16 46ZM20 46L20 47L21 47L21 46ZM49 46L49 48L50 48L50 46ZM54 46L54 47L53 47L53 48L54 48L54 49L55 49L55 46ZM42 47L42 50L44 50L44 52L45 52L45 53L46 53L46 52L47 52L47 51L48 51L48 50L47 50L47 49L48 49L48 47L47 47L47 48L44 48L44 49L43 49L43 47ZM6 48L6 49L7 49L7 48ZM16 48L16 49L17 49L17 48ZM22 49L22 50L23 50L23 49ZM27 49L27 52L30 52L30 49ZM45 49L45 50L46 50L46 49ZM49 49L49 52L52 52L52 49ZM10 50L10 51L11 51L11 50ZM16 50L16 51L17 51L17 52L18 52L18 51L17 51L17 50ZM28 50L28 51L29 51L29 50ZM50 50L50 51L51 51L51 50ZM53 50L53 52L54 52L54 50ZM41 51L41 52L42 52L42 51ZM45 51L45 52L46 52L46 51ZM34 52L34 53L35 53L35 52ZM55 52L55 53L56 53L56 52ZM9 53L9 54L11 54L11 53ZM13 53L13 54L12 54L12 55L13 55L13 54L14 54L14 53ZM31 53L31 54L33 54L33 55L36 55L36 54L33 54L33 53ZM47 53L47 54L46 54L46 55L47 55L47 56L49 56L49 55L47 55L47 54L49 54L49 53ZM53 54L53 55L52 55L52 57L53 57L53 55L54 55L54 54ZM42 55L42 56L43 56L43 57L44 57L44 56L43 56L43 55ZM56 55L56 56L57 56L57 55ZM27 56L27 57L29 57L29 56ZM0 0L0 7L7 7L7 0ZM1 1L1 6L6 6L6 1ZM2 2L2 5L5 5L5 2ZM50 0L50 7L57 7L57 0ZM51 1L51 6L56 6L56 1ZM52 2L52 5L55 5L55 2ZM0 50L0 57L7 57L7 50ZM1 51L1 56L6 56L6 51ZM2 52L2 55L5 55L5 52Z" fill="#000000"/></g></g></svg>
