<?xml version="1.0" encoding="UTF-8"?>
<svg xmlns="http://www.w3.org/2000/svg" version="1.1" width="300" height="300" viewBox="0 0 300 300"><rect x="0" y="0" width="300" height="300" fill="#ffffff"/><g transform="scale(8.108)"><g transform="translate(2,2)"><path fill-rule="evenodd" d="M8 0L8 1L10 1L10 0ZM16 0L16 3L17 3L17 4L15 4L15 3L14 3L14 1L11 1L11 2L13 2L13 5L12 5L12 9L11 9L11 5L10 5L10 9L11 9L11 10L9 10L9 11L7 11L7 10L8 10L8 9L9 9L9 8L8 8L8 9L7 9L7 8L6 8L6 9L7 9L7 10L6 10L6 11L3 11L3 10L5 10L5 9L4 9L4 8L0 8L0 12L1 12L1 13L0 13L0 14L1 14L1 13L2 13L2 14L4 14L4 16L6 16L6 17L3 17L3 18L5 18L5 19L3 19L3 20L2 20L2 17L1 17L1 16L3 16L3 15L0 15L0 18L1 18L1 19L0 19L0 22L1 22L1 20L2 20L2 23L1 23L1 24L0 24L0 25L1 25L1 24L2 24L2 23L3 23L3 22L5 22L5 24L3 24L3 25L8 25L8 26L9 26L9 28L11 28L11 29L10 29L10 30L9 30L9 29L8 29L8 33L9 33L9 31L10 31L10 32L11 32L11 30L12 30L12 33L13 33L13 31L14 31L14 32L15 32L15 31L16 31L16 33L19 33L19 32L20 32L20 31L19 31L19 32L18 32L18 29L17 29L17 31L16 31L16 29L15 29L15 28L17 28L17 27L15 27L15 28L13 28L13 27L14 27L14 26L13 26L13 27L12 27L12 28L11 28L11 27L10 27L10 26L11 26L11 25L10 25L10 24L9 24L9 23L10 23L10 22L11 22L11 23L12 23L12 24L13 24L13 25L14 25L14 23L15 23L15 26L18 26L18 27L19 27L19 29L20 29L20 30L21 30L21 31L22 31L22 32L21 32L21 33L22 33L22 32L23 32L23 33L24 33L24 32L25 32L25 33L27 33L27 30L26 30L26 31L25 31L25 29L31 29L31 30L29 30L29 31L28 31L28 33L31 33L31 32L29 32L29 31L32 31L32 32L33 32L33 31L32 31L32 27L29 27L29 26L30 26L30 23L31 23L31 24L32 24L32 25L33 25L33 24L32 24L32 23L33 23L33 21L31 21L31 20L30 20L30 18L31 18L31 19L32 19L32 20L33 20L33 19L32 19L32 18L33 18L33 16L31 16L31 14L32 14L32 13L30 13L30 12L29 12L29 11L28 11L28 10L27 10L27 9L26 9L26 8L25 8L25 9L26 9L26 10L25 10L25 13L24 13L24 14L25 14L25 13L26 13L26 10L27 10L27 14L26 14L26 15L27 15L27 14L28 14L28 17L27 17L27 16L23 16L23 15L20 15L20 12L21 12L21 10L22 10L22 11L23 11L23 12L24 12L24 9L23 9L23 10L22 10L22 8L21 8L21 9L20 9L20 7L21 7L21 6L22 6L22 7L23 7L23 8L24 8L24 7L25 7L25 4L24 4L24 7L23 7L23 6L22 6L22 5L23 5L23 3L22 3L22 5L20 5L20 4L21 4L21 3L20 3L20 4L19 4L19 6L18 6L18 5L17 5L17 4L18 4L18 3L19 3L19 1L20 1L20 2L21 2L21 0ZM23 0L23 2L24 2L24 3L25 3L25 2L24 2L24 0ZM17 1L17 3L18 3L18 1ZM8 2L8 5L9 5L9 4L12 4L12 3L9 3L9 2ZM14 4L14 6L13 6L13 9L14 9L14 11L15 11L15 12L16 12L16 13L17 13L17 12L18 12L18 14L19 14L19 12L20 12L20 10L19 10L19 12L18 12L18 11L16 11L16 9L17 9L17 7L18 7L18 6L17 6L17 7L16 7L16 5L15 5L15 4ZM8 6L8 7L9 7L9 6ZM14 6L14 7L15 7L15 8L16 8L16 7L15 7L15 6ZM19 6L19 7L20 7L20 6ZM18 8L18 9L19 9L19 8ZM28 8L28 9L30 9L30 11L31 11L31 12L32 12L32 11L33 11L33 8L32 8L32 9L31 9L31 8ZM2 11L2 13L3 13L3 11ZM6 11L6 12L7 12L7 11ZM11 11L11 12L12 12L12 11ZM13 12L13 13L10 13L10 14L11 14L11 15L13 15L13 17L12 17L12 18L11 18L11 17L10 17L10 15L9 15L9 13L8 13L8 14L7 14L7 13L6 13L6 14L5 14L5 13L4 13L4 14L5 14L5 15L6 15L6 16L7 16L7 17L6 17L6 18L7 18L7 19L5 19L5 20L4 20L4 21L5 21L5 22L8 22L8 23L6 23L6 24L8 24L8 23L9 23L9 22L8 22L8 21L6 21L6 20L8 20L8 17L9 17L9 18L10 18L10 20L9 20L9 21L10 21L10 20L11 20L11 21L12 21L12 20L13 20L13 22L14 22L14 21L15 21L15 23L16 23L16 24L18 24L18 26L19 26L19 24L18 24L18 23L17 23L17 22L18 22L18 21L15 21L15 20L14 20L14 19L15 19L15 18L14 18L14 17L16 17L16 18L18 18L18 15L17 15L17 17L16 17L16 14L15 14L15 13L14 13L14 12ZM21 13L21 14L22 14L22 13ZM28 13L28 14L29 14L29 16L30 16L30 14L29 14L29 13ZM6 14L6 15L7 15L7 14ZM8 15L8 16L9 16L9 15ZM19 17L19 19L18 19L18 20L20 20L20 21L21 21L21 20L22 20L22 22L19 22L19 23L20 23L20 29L21 29L21 30L22 30L22 29L21 29L21 25L22 25L22 26L24 26L24 23L23 23L23 21L24 21L24 22L26 22L26 23L25 23L25 24L28 24L28 23L30 23L30 22L31 22L31 21L30 21L30 20L26 20L26 21L24 21L24 20L25 20L25 19L26 19L26 17L25 17L25 18L23 18L23 20L22 20L22 19L20 19L20 18L21 18L21 17ZM31 17L31 18L32 18L32 17ZM13 18L13 19L14 19L14 18ZM28 18L28 19L29 19L29 18ZM11 19L11 20L12 20L12 19ZM26 21L26 22L27 22L27 23L28 23L28 22L27 22L27 21ZM29 21L29 22L30 22L30 21ZM22 24L22 25L23 25L23 24ZM25 25L25 28L28 28L28 25ZM26 26L26 27L27 27L27 26ZM12 29L12 30L13 30L13 29ZM23 29L23 32L24 32L24 29ZM14 30L14 31L15 31L15 30ZM0 0L0 7L7 7L7 0ZM1 1L1 6L6 6L6 1ZM2 2L2 5L5 5L5 2ZM26 0L26 7L33 7L33 0ZM27 1L27 6L32 6L32 1ZM28 2L28 5L31 5L31 2ZM0 26L0 33L7 33L7 26ZM1 27L1 32L6 32L6 27ZM2 28L2 31L5 31L5 28Z" fill="#000000"/></g></g></svg>
