<?xml version="1.0" encoding="UTF-8"?>
<svg xmlns="http://www.w3.org/2000/svg" version="1.1" width="300" height="300" viewBox="0 0 300 300"><rect x="0" y="0" width="300" height="300" fill="#ffffff"/><g transform="scale(4.918)"><g transform="translate(2,2)"><path fill-rule="evenodd" d="M12 0L12 1L11 1L11 2L9 2L9 1L8 1L8 2L9 2L9 3L8 3L8 4L9 4L9 5L8 5L8 7L9 7L9 5L10 5L10 8L6 8L6 9L5 9L5 8L0 8L0 10L1 10L1 11L0 11L0 15L1 15L1 16L0 16L0 17L1 17L1 19L2 19L2 20L0 20L0 21L2 21L2 22L1 22L1 23L0 23L0 25L2 25L2 26L3 26L3 27L4 27L4 28L3 28L3 29L2 29L2 28L1 28L1 26L0 26L0 28L1 28L1 29L0 29L0 33L2 33L2 34L3 34L3 35L0 35L0 37L1 37L1 39L0 39L0 40L1 40L1 41L3 41L3 42L0 42L0 43L2 43L2 44L3 44L3 43L4 43L4 44L5 44L5 43L7 43L7 44L6 44L6 45L7 45L7 46L5 46L5 45L4 45L4 46L5 46L5 47L3 47L3 45L2 45L2 47L1 47L1 44L0 44L0 48L5 48L5 47L7 47L7 48L6 48L6 49L7 49L7 48L9 48L9 49L8 49L8 51L9 51L9 52L8 52L8 57L10 57L10 56L13 56L13 55L12 55L12 54L14 54L14 57L20 57L20 56L23 56L23 55L24 55L24 56L28 56L28 55L27 55L27 53L28 53L28 54L29 54L29 55L30 55L30 56L29 56L29 57L32 57L32 55L33 55L33 56L34 56L34 55L35 55L35 57L38 57L38 56L39 56L39 57L40 57L40 56L41 56L41 57L44 57L44 56L41 56L41 55L40 55L40 52L41 52L41 51L42 51L42 50L43 50L43 52L42 52L42 53L41 53L41 54L42 54L42 55L43 55L43 53L44 53L44 54L45 54L45 53L44 53L44 49L43 49L43 48L45 48L45 50L46 50L46 51L45 51L45 52L48 52L48 53L47 53L47 55L45 55L45 57L47 57L47 55L49 55L49 53L50 53L50 55L51 55L51 56L50 56L50 57L52 57L52 56L53 56L53 57L54 57L54 56L55 56L55 57L56 57L56 56L55 56L55 55L51 55L51 54L53 54L53 53L54 53L54 52L55 52L55 51L56 51L56 52L57 52L57 51L56 51L56 50L57 50L57 49L56 49L56 50L55 50L55 49L54 49L54 48L57 48L57 47L56 47L56 46L57 46L57 43L56 43L56 42L57 42L57 41L54 41L54 40L55 40L55 39L57 39L57 37L56 37L56 36L57 36L57 35L56 35L56 36L55 36L55 34L57 34L57 32L56 32L56 30L57 30L57 29L56 29L56 30L55 30L55 29L54 29L54 28L56 28L56 24L55 24L55 23L56 23L56 22L57 22L57 21L54 21L54 22L53 22L53 21L51 21L51 22L50 22L50 19L49 19L49 18L50 18L50 17L51 17L51 20L57 20L57 19L52 19L52 18L54 18L54 17L51 17L51 16L48 16L48 17L47 17L47 18L44 18L44 17L43 17L43 16L45 16L45 17L46 17L46 16L45 16L45 15L49 15L49 13L50 13L50 11L52 11L52 12L53 12L53 11L54 11L54 12L55 12L55 11L56 11L56 10L57 10L57 9L56 9L56 8L55 8L55 11L54 11L54 10L53 10L53 9L54 9L54 8L53 8L53 9L52 9L52 8L51 8L51 10L49 10L49 9L50 9L50 8L49 8L49 6L48 6L48 7L47 7L47 5L48 5L48 0L45 0L45 1L47 1L47 2L43 2L43 3L42 3L42 4L41 4L41 5L40 5L40 3L41 3L41 2L42 2L42 1L43 1L43 0L42 0L42 1L41 1L41 2L39 2L39 1L40 1L40 0L39 0L39 1L37 1L37 0L35 0L35 1L34 1L34 0L33 0L33 1L34 1L34 2L37 2L37 3L36 3L36 5L34 5L34 7L33 7L33 6L32 6L32 7L31 7L31 4L32 4L32 3L33 3L33 2L29 2L29 1L32 1L32 0L28 0L28 1L26 1L26 0L24 0L24 1L23 1L23 0L21 0L21 1L23 1L23 2L25 2L25 3L24 3L24 4L22 4L22 3L21 3L21 2L19 2L19 1L16 1L16 0L14 0L14 1L15 1L15 2L14 2L14 3L13 3L13 0ZM11 2L11 4L12 4L12 5L11 5L11 8L10 8L10 9L11 9L11 8L12 8L12 5L13 5L13 8L14 8L14 9L13 9L13 11L12 11L12 12L13 12L13 13L14 13L14 15L15 15L15 16L14 16L14 17L13 17L13 18L14 18L14 17L16 17L16 18L17 18L17 19L16 19L16 20L15 20L15 21L13 21L13 20L14 20L14 19L12 19L12 18L9 18L9 17L10 17L10 16L7 16L7 15L6 15L6 16L5 16L5 14L10 14L10 12L11 12L11 10L9 10L9 11L8 11L8 9L6 9L6 10L4 10L4 11L3 11L3 12L5 12L5 14L4 14L4 13L3 13L3 15L2 15L2 11L1 11L1 15L2 15L2 16L1 16L1 17L2 17L2 18L3 18L3 19L4 19L4 18L3 18L3 17L5 17L5 19L6 19L6 20L7 20L7 21L6 21L6 22L5 22L5 20L4 20L4 22L5 22L5 23L6 23L6 24L4 24L4 23L3 23L3 22L2 22L2 24L3 24L3 26L7 26L7 25L6 25L6 24L8 24L8 25L9 25L9 23L8 23L8 21L9 21L9 20L7 20L7 19L6 19L6 18L7 18L7 17L8 17L8 18L9 18L9 19L10 19L10 20L11 20L11 19L12 19L12 21L10 21L10 22L11 22L11 23L10 23L10 24L11 24L11 25L10 25L10 26L13 26L13 27L9 27L9 28L10 28L10 29L12 29L12 30L13 30L13 31L12 31L12 32L13 32L13 34L14 34L14 30L15 30L15 28L14 28L14 27L16 27L16 28L17 28L17 29L16 29L16 30L17 30L17 31L16 31L16 32L18 32L18 31L19 31L19 33L16 33L16 35L17 35L17 36L16 36L16 37L15 37L15 35L13 35L13 36L12 36L12 37L10 37L10 39L11 39L11 40L10 40L10 42L11 42L11 41L12 41L12 43L13 43L13 45L12 45L12 44L10 44L10 45L11 45L11 48L12 48L12 49L13 49L13 51L12 51L12 52L13 52L13 51L14 51L14 50L15 50L15 51L16 51L16 52L14 52L14 53L16 53L16 54L15 54L15 55L16 55L16 56L17 56L17 55L20 55L20 54L19 54L19 53L21 53L21 55L22 55L22 53L23 53L23 54L24 54L24 53L23 53L23 52L24 52L24 51L25 51L25 52L26 52L26 50L23 50L23 49L24 49L24 48L21 48L21 46L22 46L22 47L24 47L24 45L25 45L25 48L26 48L26 46L27 46L27 45L28 45L28 46L29 46L29 45L28 45L28 44L27 44L27 43L30 43L30 46L31 46L31 47L30 47L30 48L31 48L31 50L32 50L32 51L31 51L31 52L32 52L32 54L33 54L33 55L34 55L34 54L37 54L37 53L35 53L35 52L36 52L36 51L35 51L35 52L34 52L34 53L33 53L33 52L32 52L32 51L33 51L33 50L36 50L36 48L37 48L37 47L38 47L38 48L39 48L39 49L38 49L38 50L37 50L37 51L38 51L38 55L39 55L39 56L40 56L40 55L39 55L39 52L40 52L40 51L41 51L41 50L42 50L42 49L41 49L41 48L42 48L42 47L45 47L45 42L47 42L47 43L49 43L49 42L47 42L47 41L48 41L48 40L49 40L49 41L51 41L51 42L50 42L50 43L51 43L51 44L49 44L49 45L48 45L48 44L47 44L47 45L46 45L46 46L47 46L47 47L46 47L46 48L47 48L47 49L46 49L46 50L47 50L47 51L48 51L48 48L49 48L49 47L51 47L51 46L52 46L52 47L53 47L53 48L54 48L54 45L55 45L55 46L56 46L56 45L55 45L55 44L54 44L54 45L51 45L51 44L53 44L53 43L54 43L54 41L52 41L52 40L51 40L51 37L52 37L52 39L53 39L53 37L52 37L52 34L54 34L54 33L56 33L56 32L54 32L54 30L53 30L53 31L51 31L51 32L49 32L49 31L48 31L48 29L46 29L46 30L42 30L42 29L43 29L43 28L44 28L44 29L45 29L45 28L44 28L44 27L46 27L46 28L47 28L47 27L48 27L48 25L49 25L49 26L53 26L53 27L55 27L55 26L54 26L54 25L55 25L55 24L50 24L50 22L49 22L49 23L48 23L48 25L47 25L47 24L46 24L46 25L45 25L45 24L44 24L44 21L45 21L45 22L46 22L46 23L47 23L47 21L48 21L48 20L43 20L43 24L42 24L42 22L40 22L40 23L41 23L41 24L39 24L39 23L38 23L38 22L39 22L39 20L40 20L40 21L42 21L42 19L44 19L44 18L42 18L42 17L41 17L41 16L43 16L43 14L44 14L44 15L45 15L45 14L44 14L44 13L45 13L45 12L46 12L46 14L47 14L47 13L49 13L49 12L47 12L47 11L48 11L48 9L49 9L49 8L48 8L48 9L47 9L47 8L46 8L46 5L47 5L47 3L43 3L43 5L42 5L42 6L41 6L41 7L42 7L42 6L43 6L43 8L42 8L42 9L43 9L43 8L44 8L44 9L45 9L45 12L43 12L43 14L42 14L42 11L41 11L41 10L40 10L40 9L41 9L41 8L38 8L38 6L37 6L37 5L36 5L36 6L35 6L35 7L36 7L36 8L37 8L37 9L36 9L36 10L35 10L35 9L33 9L33 8L32 8L32 9L31 9L31 11L30 11L30 10L29 10L29 9L28 9L28 10L27 10L27 9L26 9L26 6L25 6L25 4L26 4L26 3L25 3L25 4L24 4L24 5L23 5L23 7L24 7L24 9L25 9L25 12L23 12L23 11L24 11L24 10L23 10L23 8L21 8L21 7L22 7L22 6L21 6L21 5L22 5L22 4L21 4L21 3L20 3L20 4L18 4L18 3L16 3L16 4L15 4L15 3L14 3L14 4L15 4L15 5L13 5L13 4L12 4L12 2ZM27 2L27 3L28 3L28 4L31 4L31 3L28 3L28 2ZM9 3L9 4L10 4L10 3ZM38 3L38 5L39 5L39 3ZM16 4L16 5L15 5L15 6L14 6L14 7L15 7L15 6L16 6L16 9L14 9L14 10L15 10L15 15L16 15L16 17L19 17L19 16L17 16L17 15L16 15L16 13L18 13L18 15L20 15L20 14L19 14L19 13L22 13L22 12L19 12L19 13L18 13L18 12L17 12L17 11L18 11L18 10L19 10L19 8L18 8L18 7L19 7L19 6L20 6L20 7L21 7L21 6L20 6L20 5L19 5L19 6L18 6L18 7L17 7L17 5L18 5L18 4ZM44 4L44 5L46 5L46 4ZM27 5L27 8L30 8L30 5ZM24 6L24 7L25 7L25 6ZM28 6L28 7L29 7L29 6ZM36 6L36 7L37 7L37 6ZM39 6L39 7L40 7L40 6ZM44 6L44 7L45 7L45 6ZM20 8L20 9L21 9L21 10L20 10L20 11L22 11L22 9L21 9L21 8ZM45 8L45 9L46 9L46 8ZM16 9L16 10L17 10L17 9ZM32 9L32 10L33 10L33 9ZM37 9L37 10L36 10L36 12L34 12L34 11L31 11L31 12L30 12L30 11L27 11L27 10L26 10L26 11L27 11L27 12L25 12L25 13L23 13L23 14L26 14L26 13L28 13L28 14L27 14L27 15L29 15L29 13L30 13L30 16L34 16L34 17L36 17L36 19L37 19L37 20L36 20L36 21L37 21L37 20L38 20L38 19L40 19L40 20L41 20L41 19L42 19L42 18L40 18L40 17L39 17L39 18L38 18L38 16L41 16L41 15L42 15L42 14L41 14L41 13L39 13L39 14L37 14L37 15L38 15L38 16L34 16L34 15L35 15L35 14L36 14L36 13L38 13L38 12L41 12L41 11L39 11L39 10L38 10L38 9ZM6 10L6 11L7 11L7 12L6 12L6 13L7 13L7 12L8 12L8 11L7 11L7 10ZM37 10L37 11L38 11L38 10ZM46 10L46 11L47 11L47 10ZM52 10L52 11L53 11L53 10ZM9 11L9 12L10 12L10 11ZM13 11L13 12L14 12L14 11ZM28 12L28 13L29 13L29 12ZM32 12L32 13L31 13L31 15L33 15L33 14L35 14L35 13L33 13L33 12ZM56 12L56 14L55 14L55 13L53 13L53 14L54 14L54 15L52 15L52 16L55 16L55 18L57 18L57 17L56 17L56 16L57 16L57 15L56 15L56 14L57 14L57 12ZM51 13L51 14L50 14L50 15L51 15L51 14L52 14L52 13ZM11 14L11 15L12 15L12 14ZM21 14L21 16L20 16L20 17L21 17L21 18L20 18L20 19L21 19L21 21L19 21L19 18L18 18L18 20L17 20L17 21L19 21L19 22L17 22L17 26L18 26L18 27L17 27L17 28L18 28L18 29L17 29L17 30L19 30L19 31L20 31L20 33L21 33L21 34L20 34L20 35L19 35L19 34L17 34L17 35L19 35L19 36L17 36L17 37L16 37L16 38L15 38L15 39L14 39L14 37L12 37L12 38L11 38L11 39L12 39L12 38L13 38L13 41L14 41L14 40L15 40L15 41L16 41L16 40L17 40L17 41L18 41L18 42L17 42L17 43L16 43L16 42L14 42L14 43L15 43L15 44L14 44L14 45L15 45L15 46L14 46L14 48L15 48L15 49L17 49L17 50L16 50L16 51L17 51L17 52L18 52L18 53L17 53L17 54L18 54L18 53L19 53L19 52L21 52L21 53L22 53L22 52L23 52L23 51L22 51L22 52L21 52L21 50L22 50L22 49L21 49L21 50L20 50L20 49L19 49L19 45L22 45L22 44L19 44L19 45L18 45L18 44L17 44L17 43L18 43L18 42L19 42L19 43L22 43L22 42L23 42L23 43L24 43L24 42L26 42L26 43L27 43L27 42L28 42L28 41L29 41L29 42L30 42L30 43L31 43L31 44L34 44L34 43L35 43L35 44L36 44L36 45L35 45L35 46L33 46L33 45L32 45L32 47L31 47L31 48L33 48L33 47L35 47L35 48L36 48L36 47L35 47L35 46L38 46L38 45L37 45L37 44L36 44L36 43L35 43L35 42L34 42L34 43L32 43L32 42L30 42L30 41L31 41L31 40L33 40L33 39L34 39L34 38L33 38L33 39L31 39L31 38L32 38L32 35L30 35L30 34L29 34L29 35L30 35L30 36L29 36L29 37L28 37L28 36L26 36L26 35L27 35L27 33L30 33L30 32L28 32L28 31L31 31L31 32L34 32L34 31L35 31L35 32L36 32L36 33L35 33L35 34L33 34L33 35L34 35L34 36L35 36L35 34L36 34L36 35L38 35L38 36L36 36L36 37L40 37L40 36L41 36L41 38L42 38L42 39L41 39L41 40L43 40L43 41L42 41L42 42L41 42L41 44L43 44L43 45L42 45L42 46L40 46L40 45L39 45L39 48L41 48L41 47L42 47L42 46L44 46L44 44L43 44L43 43L44 43L44 42L45 42L45 41L44 41L44 39L43 39L43 37L44 37L44 38L45 38L45 39L46 39L46 38L45 38L45 37L44 37L44 35L45 35L45 36L46 36L46 37L47 37L47 38L48 38L48 39L49 39L49 40L50 40L50 37L49 37L49 36L51 36L51 35L48 35L48 33L47 33L47 34L44 34L44 33L43 33L43 32L46 32L46 31L47 31L47 32L48 32L48 31L47 31L47 30L46 30L46 31L42 31L42 30L41 30L41 29L39 29L39 30L37 30L37 28L38 28L38 27L39 27L39 28L41 28L41 27L42 27L42 28L43 28L43 27L44 27L44 26L45 26L45 25L44 25L44 24L43 24L43 25L42 25L42 26L41 26L41 25L39 25L39 26L37 26L37 28L36 28L36 30L33 30L33 29L35 29L35 27L34 27L34 28L33 28L33 27L32 27L32 25L30 25L30 24L31 24L31 23L32 23L32 24L33 24L33 23L34 23L34 22L33 22L33 21L35 21L35 20L34 20L34 19L35 19L35 18L33 18L33 17L29 17L29 18L31 18L31 19L28 19L28 18L26 18L26 17L28 17L28 16L26 16L26 15L24 15L24 17L23 17L23 18L24 18L24 19L22 19L22 17L21 17L21 16L22 16L22 14ZM3 15L3 16L4 16L4 15ZM6 16L6 17L7 17L7 16ZM25 16L25 17L26 17L26 16ZM32 18L32 19L33 19L33 18ZM37 18L37 19L38 19L38 18ZM47 18L47 19L48 19L48 18ZM26 19L26 21L25 21L25 22L26 22L26 23L25 23L25 24L26 24L26 25L25 25L25 26L26 26L26 25L27 25L27 24L28 24L28 26L29 26L29 24L28 24L28 23L29 23L29 22L30 22L30 23L31 23L31 22L30 22L30 21L29 21L29 20L28 20L28 22L27 22L27 19ZM22 20L22 21L21 21L21 24L19 24L19 25L20 25L20 26L21 26L21 27L22 27L22 25L23 25L23 24L24 24L24 23L23 23L23 22L24 22L24 21L23 21L23 20ZM32 20L32 21L33 21L33 20ZM12 21L12 25L14 25L14 26L15 26L15 25L16 25L16 23L15 23L15 22L16 22L16 21L15 21L15 22L14 22L14 23L13 23L13 21ZM22 21L22 22L23 22L23 21ZM6 22L6 23L7 23L7 22ZM19 22L19 23L20 23L20 22ZM36 22L36 23L37 23L37 24L34 24L34 25L38 25L38 23L37 23L37 22ZM52 22L52 23L53 23L53 22ZM54 22L54 23L55 23L55 22ZM14 23L14 25L15 25L15 23ZM21 24L21 25L22 25L22 24ZM49 24L49 25L50 25L50 24ZM40 26L40 27L41 27L41 26ZM42 26L42 27L43 27L43 26ZM5 27L5 30L8 30L8 27ZM25 27L25 28L24 28L24 29L22 29L22 28L21 28L21 29L19 29L19 30L20 30L20 31L21 31L21 33L22 33L22 34L23 34L23 32L24 32L24 31L23 31L23 30L24 30L24 29L25 29L25 30L26 30L26 27ZM27 27L27 30L30 30L30 27ZM49 27L49 30L52 30L52 27ZM6 28L6 29L7 29L7 28ZM12 28L12 29L13 29L13 30L14 30L14 29L13 29L13 28ZM28 28L28 29L29 29L29 28ZM32 28L32 29L33 29L33 28ZM50 28L50 29L51 29L51 28ZM3 29L3 30L1 30L1 32L2 32L2 33L3 33L3 34L4 34L4 35L5 35L5 36L7 36L7 37L5 37L5 39L4 39L4 40L3 40L3 41L4 41L4 42L8 42L8 44L7 44L7 45L8 45L8 46L9 46L9 47L10 47L10 46L9 46L9 42L8 42L8 40L9 40L9 39L8 39L8 38L7 38L7 37L8 37L8 36L10 36L10 34L7 34L7 33L6 33L6 32L8 32L8 33L10 33L10 32L9 32L9 31L6 31L6 32L2 32L2 31L4 31L4 29ZM21 29L21 31L22 31L22 29ZM32 30L32 31L33 31L33 30ZM25 31L25 32L26 32L26 33L25 33L25 34L24 34L24 36L23 36L23 35L21 35L21 36L20 36L20 37L17 37L17 39L18 39L18 38L20 38L20 39L19 39L19 41L20 41L20 42L21 42L21 41L23 41L23 39L24 39L24 40L25 40L25 38L26 38L26 40L27 40L27 41L26 41L26 42L27 42L27 41L28 41L28 39L27 39L27 38L28 38L28 37L26 37L26 36L25 36L25 34L26 34L26 33L27 33L27 31ZM36 31L36 32L37 32L37 31ZM38 31L38 33L37 33L37 34L40 34L40 35L39 35L39 36L40 36L40 35L41 35L41 36L42 36L42 35L44 35L44 34L40 34L40 33L41 33L41 32L42 32L42 31L41 31L41 32L40 32L40 31ZM39 32L39 33L40 33L40 32ZM51 32L51 33L50 33L50 34L51 34L51 33L54 33L54 32ZM5 33L5 34L6 34L6 35L7 35L7 36L8 36L8 35L7 35L7 34L6 34L6 33ZM46 35L46 36L47 36L47 37L48 37L48 38L49 38L49 37L48 37L48 36L47 36L47 35ZM1 36L1 37L2 37L2 38L3 38L3 37L4 37L4 36L3 36L3 37L2 37L2 36ZM21 36L21 37L22 37L22 38L21 38L21 40L20 40L20 41L21 41L21 40L22 40L22 38L24 38L24 37L25 37L25 36L24 36L24 37L22 37L22 36ZM30 36L30 38L31 38L31 36ZM54 36L54 39L55 39L55 36ZM6 38L6 39L5 39L5 40L6 40L6 41L7 41L7 40L6 40L6 39L7 39L7 38ZM35 38L35 40L34 40L34 41L36 41L36 42L38 42L38 41L39 41L39 40L40 40L40 38ZM1 39L1 40L2 40L2 39ZM15 39L15 40L16 40L16 39ZM29 39L29 40L31 40L31 39ZM37 39L37 40L39 40L39 39ZM43 41L43 42L42 42L42 43L43 43L43 42L44 42L44 41ZM38 43L38 44L40 44L40 43ZM23 44L23 45L24 45L24 44ZM25 44L25 45L26 45L26 44ZM16 45L16 46L15 46L15 48L17 48L17 47L18 47L18 45ZM47 45L47 46L48 46L48 45ZM12 46L12 48L13 48L13 46ZM16 46L16 47L17 47L17 46ZM28 47L28 48L29 48L29 47ZM9 49L9 50L11 50L11 49ZM18 49L18 50L17 50L17 51L18 51L18 52L19 52L19 51L18 51L18 50L19 50L19 49ZM27 49L27 52L30 52L30 49ZM40 49L40 50L38 50L38 51L40 51L40 50L41 50L41 49ZM49 49L49 52L52 52L52 49ZM28 50L28 51L29 51L29 50ZM50 50L50 51L51 51L51 50ZM53 50L53 51L54 51L54 50ZM10 51L10 52L11 52L11 51ZM9 53L9 54L10 54L10 55L9 55L9 56L10 56L10 55L11 55L11 54L10 54L10 53ZM25 53L25 54L26 54L26 53ZM29 53L29 54L30 54L30 53ZM0 0L0 7L7 7L7 0ZM1 1L1 6L6 6L6 1ZM2 2L2 5L5 5L5 2ZM50 0L50 7L57 7L57 0ZM51 1L51 6L56 6L56 1ZM52 2L52 5L55 5L55 2ZM0 50L0 57L7 57L7 50ZM1 51L1 56L6 56L6 51ZM2 52L2 55L5 55L5 52Z" fill="#000000"/></g></g></svg>
