<?xml version="1.0" encoding="UTF-8"?>
<svg xmlns="http://www.w3.org/2000/svg" version="1.1" width="300" height="300" viewBox="0 0 300 300"><rect x="0" y="0" width="300" height="300" fill="#ffffff"/><g transform="scale(4.918)"><g transform="translate(2,2)"><path fill-rule="evenodd" d="M9 0L9 1L8 1L8 2L9 2L9 3L8 3L8 4L9 4L9 3L10 3L10 4L11 4L11 6L10 6L10 8L12 8L12 9L11 9L11 10L10 10L10 12L9 12L9 11L8 11L8 10L9 10L9 8L6 8L6 9L8 9L8 10L5 10L5 11L8 11L8 12L9 12L9 13L10 13L10 16L12 16L12 15L13 15L13 14L14 14L14 13L13 13L13 12L14 12L14 11L13 11L13 12L12 12L12 10L13 10L13 9L14 9L14 8L13 8L13 6L14 6L14 7L15 7L15 6L16 6L16 8L15 8L15 9L18 9L18 10L17 10L17 11L18 11L18 10L19 10L19 11L20 11L20 12L19 12L19 13L18 13L18 12L16 12L16 11L15 11L15 13L18 13L18 15L14 15L14 16L16 16L16 17L13 17L13 19L11 19L11 20L10 20L10 21L9 21L9 24L5 24L5 23L4 23L4 22L5 22L5 20L6 20L6 21L8 21L8 20L6 20L6 19L7 19L7 18L10 18L10 17L8 17L8 16L9 16L9 14L8 14L8 15L7 15L7 14L6 14L6 15L5 15L5 14L4 14L4 13L7 13L7 12L3 12L3 10L4 10L4 9L5 9L5 8L0 8L0 9L2 9L2 12L0 12L0 14L1 14L1 13L2 13L2 14L3 14L3 15L1 15L1 16L2 16L2 17L0 17L0 18L4 18L4 19L1 19L1 20L0 20L0 21L2 21L2 24L0 24L0 25L1 25L1 26L0 26L0 28L1 28L1 26L2 26L2 27L3 27L3 28L4 28L4 29L0 29L0 33L1 33L1 31L2 31L2 32L5 32L5 31L8 31L8 32L6 32L6 33L8 33L8 34L5 34L5 35L3 35L3 34L4 34L4 33L2 33L2 35L3 35L3 36L1 36L1 34L0 34L0 36L1 36L1 39L0 39L0 43L1 43L1 42L2 42L2 43L3 43L3 44L2 44L2 47L1 47L1 45L0 45L0 48L5 48L5 47L7 47L7 48L6 48L6 49L7 49L7 48L8 48L8 51L9 51L9 52L8 52L8 57L10 57L10 56L9 56L9 55L11 55L11 57L12 57L12 56L13 56L13 57L14 57L14 56L13 56L13 54L12 54L12 53L14 53L14 55L15 55L15 57L16 57L16 55L15 55L15 54L16 54L16 53L15 53L15 52L17 52L17 51L18 51L18 53L19 53L19 54L17 54L17 55L18 55L18 56L17 56L17 57L19 57L19 56L22 56L22 54L23 54L23 55L24 55L24 56L26 56L26 54L27 54L27 53L28 53L28 54L29 54L29 55L30 55L30 56L29 56L29 57L31 57L31 55L33 55L33 54L32 54L32 52L33 52L33 51L32 51L32 52L31 52L31 50L32 50L32 48L33 48L33 50L34 50L34 51L35 51L35 52L36 52L36 54L38 54L38 53L37 53L37 52L38 52L38 51L39 51L39 50L43 50L43 49L40 49L40 48L41 48L41 47L42 47L42 48L46 48L46 47L48 47L48 46L50 46L50 44L51 44L51 45L54 45L54 46L55 46L55 47L54 47L54 48L51 48L51 47L52 47L52 46L51 46L51 47L49 47L49 48L48 48L48 51L47 51L47 50L45 50L45 49L44 49L44 50L45 50L45 53L44 53L44 51L40 51L40 52L39 52L39 56L38 56L38 55L36 55L36 56L35 56L35 55L34 55L34 56L35 56L35 57L37 57L37 56L38 56L38 57L39 57L39 56L40 56L40 52L41 52L41 54L42 54L42 55L41 55L41 56L43 56L43 57L44 57L44 56L45 56L45 57L48 57L48 56L49 56L49 57L50 57L50 53L51 53L51 54L53 54L53 55L51 55L51 57L52 57L52 56L53 56L53 57L54 57L54 56L55 56L55 57L56 57L56 56L55 56L55 55L54 55L54 54L55 54L55 53L56 53L56 52L55 52L55 50L57 50L57 47L56 47L56 46L57 46L57 44L56 44L56 46L55 46L55 45L54 45L54 44L55 44L55 43L56 43L56 41L55 41L55 39L57 39L57 37L55 37L55 39L54 39L54 38L53 38L53 40L52 40L52 39L51 39L51 40L52 40L52 41L49 41L49 43L47 43L47 42L44 42L44 41L43 41L43 40L45 40L45 39L43 39L43 40L41 40L41 39L40 39L40 38L39 38L39 40L38 40L38 39L37 39L37 38L38 38L38 35L39 35L39 34L40 34L40 32L41 32L41 33L42 33L42 34L41 34L41 35L40 35L40 36L39 36L39 37L40 37L40 36L42 36L42 37L41 37L41 38L43 38L43 37L44 37L44 38L46 38L46 39L47 39L47 38L48 38L48 39L50 39L50 37L52 37L52 36L56 36L56 35L53 35L53 34L52 34L52 36L49 36L49 38L48 38L48 37L47 37L47 36L48 36L48 35L50 35L50 33L53 33L53 32L56 32L56 30L57 30L57 29L54 29L54 28L57 28L57 27L53 27L53 26L52 26L52 24L53 24L53 22L54 22L54 20L56 20L56 21L55 21L55 23L54 23L54 24L55 24L55 23L56 23L56 22L57 22L57 20L56 20L56 18L57 18L57 17L56 17L56 16L55 16L55 15L56 15L56 14L57 14L57 13L54 13L54 14L53 14L53 15L54 15L54 16L53 16L53 17L51 17L51 16L49 16L49 17L47 17L47 16L46 16L46 17L45 17L45 18L46 18L46 19L43 19L43 20L41 20L41 19L40 19L40 20L39 20L39 22L36 22L36 23L34 23L34 24L35 24L35 26L34 26L34 25L33 25L33 27L34 27L34 28L33 28L33 29L36 29L36 30L33 30L33 31L32 31L32 28L31 28L31 26L32 26L32 25L31 25L31 24L32 24L32 23L33 23L33 21L35 21L35 19L39 19L39 18L37 18L37 16L36 16L36 15L37 15L37 14L38 14L38 12L41 12L41 11L42 11L42 14L40 14L40 13L39 13L39 15L40 15L40 16L38 16L38 17L40 17L40 16L45 16L45 15L49 15L49 14L50 14L50 13L51 13L51 14L52 14L52 13L51 13L51 12L50 12L50 13L47 13L47 14L46 14L46 12L45 12L45 11L44 11L44 12L43 12L43 10L45 10L45 9L46 9L46 8L47 8L47 9L48 9L48 12L49 12L49 11L52 11L52 12L53 12L53 11L54 11L54 12L56 12L56 10L55 10L55 11L54 11L54 10L53 10L53 9L54 9L54 8L53 8L53 9L52 9L52 8L51 8L51 10L49 10L49 9L50 9L50 8L49 8L49 9L48 9L48 8L47 8L47 5L48 5L48 0L44 0L44 1L47 1L47 2L42 2L42 1L43 1L43 0L42 0L42 1L41 1L41 2L39 2L39 1L37 1L37 0L36 0L36 2L39 2L39 6L38 6L38 3L36 3L36 5L35 5L35 6L34 6L34 7L33 7L33 6L32 6L32 7L33 7L33 8L31 8L31 4L32 4L32 3L33 3L33 4L35 4L35 3L33 3L33 2L32 2L32 1L34 1L34 2L35 2L35 1L34 1L34 0L32 0L32 1L31 1L31 0L29 0L29 1L26 1L26 0L21 0L21 4L22 4L22 5L24 5L24 4L25 4L25 6L24 6L24 7L23 7L23 6L22 6L22 8L23 8L23 9L22 9L22 10L21 10L21 11L20 11L20 9L21 9L21 8L20 8L20 9L19 9L19 8L18 8L18 7L19 7L19 6L20 6L20 7L21 7L21 6L20 6L20 5L18 5L18 4L20 4L20 3L19 3L19 2L20 2L20 0L19 0L19 1L18 1L18 0L17 0L17 2L16 2L16 0L12 0L12 1L13 1L13 3L12 3L12 2L11 2L11 0ZM9 1L9 2L10 2L10 1ZM14 1L14 2L15 2L15 1ZM22 1L22 2L23 2L23 3L22 3L22 4L24 4L24 3L25 3L25 4L26 4L26 3L25 3L25 2L26 2L26 1L25 1L25 2L23 2L23 1ZM29 1L29 3L27 3L27 4L29 4L29 3L30 3L30 2L31 2L31 1ZM17 2L17 3L16 3L16 4L15 4L15 3L14 3L14 4L12 4L12 3L11 3L11 4L12 4L12 6L11 6L11 7L12 7L12 6L13 6L13 5L14 5L14 6L15 6L15 5L16 5L16 4L18 4L18 2ZM41 2L41 3L40 3L40 5L41 5L41 7L40 7L40 6L39 6L39 8L38 8L38 6L37 6L37 5L36 5L36 6L35 6L35 8L33 8L33 9L34 9L34 10L33 10L33 11L34 11L34 12L37 12L37 11L38 11L38 10L39 10L39 11L40 11L40 9L41 9L41 8L42 8L42 5L41 5L41 4L43 4L43 7L44 7L44 9L45 9L45 7L46 7L46 5L47 5L47 3L42 3L42 2ZM14 4L14 5L15 5L15 4ZM44 4L44 5L46 5L46 4ZM8 5L8 7L9 7L9 5ZM27 5L27 8L30 8L30 5ZM17 6L17 7L18 7L18 6ZM25 6L25 7L24 7L24 9L25 9L25 12L24 12L24 13L23 13L23 10L22 10L22 11L21 11L21 12L22 12L22 13L19 13L19 15L18 15L18 16L19 16L19 17L16 17L16 18L15 18L15 19L16 19L16 20L15 20L15 21L13 21L13 20L14 20L14 19L13 19L13 20L11 20L11 21L12 21L12 22L11 22L11 25L10 25L10 24L9 24L9 25L10 25L10 28L9 28L9 29L10 29L10 31L9 31L9 32L8 32L8 33L9 33L9 32L10 32L10 31L11 31L11 32L12 32L12 31L13 31L13 30L12 30L12 31L11 31L11 29L12 29L12 28L11 28L11 26L12 26L12 25L13 25L13 24L12 24L12 23L16 23L16 24L15 24L15 26L14 26L14 27L18 27L18 25L16 25L16 24L17 24L17 23L18 23L18 22L19 22L19 23L20 23L20 22L19 22L19 21L21 21L21 22L22 22L22 21L23 21L23 22L24 22L24 21L23 21L23 20L25 20L25 22L26 22L26 23L25 23L25 24L26 24L26 25L25 25L25 26L26 26L26 25L27 25L27 26L29 26L29 25L30 25L30 24L31 24L31 22L30 22L30 21L29 21L29 20L27 20L27 18L28 18L28 19L34 19L34 18L35 18L35 17L36 17L36 16L35 16L35 15L34 15L34 16L35 16L35 17L34 17L34 18L33 18L33 16L30 16L30 15L27 15L27 14L28 14L28 13L29 13L29 14L30 14L30 13L29 13L29 12L30 12L30 10L28 10L28 9L26 9L26 6ZM28 6L28 7L29 7L29 6ZM36 6L36 8L35 8L35 9L37 9L37 10L34 10L34 11L37 11L37 10L38 10L38 9L37 9L37 6ZM44 6L44 7L45 7L45 6ZM48 6L48 7L49 7L49 6ZM55 8L55 9L56 9L56 8ZM31 9L31 10L32 10L32 9ZM0 10L0 11L1 11L1 10ZM26 10L26 11L27 11L27 12L25 12L25 13L24 13L24 14L20 14L20 15L24 15L24 16L26 16L26 17L21 17L21 16L20 16L20 17L19 17L19 18L17 18L17 19L18 19L18 21L19 21L19 18L20 18L20 17L21 17L21 18L23 18L23 19L22 19L22 20L21 20L21 19L20 19L20 20L21 20L21 21L22 21L22 20L23 20L23 19L25 19L25 20L26 20L26 19L25 19L25 18L27 18L27 17L28 17L28 16L26 16L26 15L24 15L24 14L26 14L26 13L28 13L28 12L29 12L29 11L27 11L27 10ZM46 10L46 11L47 11L47 10ZM52 10L52 11L53 11L53 10ZM31 12L31 13L33 13L33 14L32 14L32 15L33 15L33 14L35 14L35 13L33 13L33 12ZM44 12L44 13L43 13L43 14L42 14L42 15L43 15L43 14L45 14L45 12ZM4 15L4 16L3 16L3 17L4 17L4 16L5 16L5 15ZM6 15L6 16L7 16L7 15ZM54 16L54 17L55 17L55 18L56 18L56 17L55 17L55 16ZM5 17L5 18L7 18L7 17ZM29 17L29 18L32 18L32 17ZM41 17L41 18L43 18L43 17ZM46 17L46 18L47 18L47 19L46 19L46 20L43 20L43 22L42 22L42 23L43 23L43 24L44 24L44 25L43 25L43 26L42 26L42 24L41 24L41 22L40 22L40 24L39 24L39 25L38 25L38 23L37 23L37 25L38 25L38 30L36 30L36 31L34 31L34 32L32 32L32 31L31 31L31 32L30 32L30 31L25 31L25 32L24 32L24 31L19 31L19 30L21 30L21 29L22 29L22 30L24 30L24 29L25 29L25 30L26 30L26 27L25 27L25 28L24 28L24 29L22 29L22 28L21 28L21 27L22 27L22 25L23 25L23 24L24 24L24 23L23 23L23 24L19 24L19 25L20 25L20 27L19 27L19 28L21 28L21 29L19 29L19 30L17 30L17 29L18 29L18 28L17 28L17 29L15 29L15 28L13 28L13 29L14 29L14 33L15 33L15 34L13 34L13 33L11 33L11 35L10 35L10 34L9 34L9 36L8 36L8 37L9 37L9 38L7 38L7 37L6 37L6 36L7 36L7 35L6 35L6 36L5 36L5 37L2 37L2 39L1 39L1 40L2 40L2 41L3 41L3 43L4 43L4 44L5 44L5 43L6 43L6 44L7 44L7 43L6 43L6 42L7 42L7 41L6 41L6 42L5 42L5 40L4 40L4 39L3 39L3 38L5 38L5 37L6 37L6 38L7 38L7 39L6 39L6 40L8 40L8 39L9 39L9 41L8 41L8 42L9 42L9 41L11 41L11 43L8 43L8 44L9 44L9 45L8 45L8 46L7 46L7 45L6 45L6 46L7 46L7 47L8 47L8 48L10 48L10 51L12 51L12 52L14 52L14 51L15 51L15 49L14 49L14 48L15 48L15 47L14 47L14 46L12 46L12 45L15 45L15 46L17 46L17 47L16 47L16 48L17 48L17 49L16 49L16 50L17 50L17 49L18 49L18 51L21 51L21 49L20 49L20 48L21 48L21 47L18 47L18 45L19 45L19 46L22 46L22 47L23 47L23 48L22 48L22 49L25 49L25 50L26 50L26 48L30 48L30 47L25 47L25 46L30 46L30 45L31 45L31 48L32 48L32 46L35 46L35 47L34 47L34 48L35 48L35 49L34 49L34 50L35 50L35 51L36 51L36 52L37 52L37 51L38 51L38 50L39 50L39 48L40 48L40 47L39 47L39 48L38 48L38 47L36 47L36 46L40 46L40 45L41 45L41 46L42 46L42 47L45 47L45 43L44 43L44 46L42 46L42 45L43 45L43 44L40 44L40 42L41 42L41 43L43 43L43 42L41 42L41 40L39 40L39 41L38 41L38 42L39 42L39 43L37 43L37 41L33 41L33 43L34 43L34 44L32 44L32 45L31 45L31 43L28 43L28 44L30 44L30 45L27 45L27 43L26 43L26 42L29 42L29 41L26 41L26 42L24 42L24 43L23 43L23 42L22 42L22 41L25 41L25 38L26 38L26 37L27 37L27 38L28 38L28 37L29 37L29 36L30 36L30 38L31 38L31 39L29 39L29 40L33 40L33 39L34 39L34 40L37 40L37 39L36 39L36 36L37 36L37 35L34 35L34 36L35 36L35 37L33 37L33 34L39 34L39 32L40 32L40 31L41 31L41 32L42 32L42 33L46 33L46 34L42 34L42 35L44 35L44 37L46 37L46 38L47 38L47 37L46 37L46 36L47 36L47 35L46 35L46 34L47 34L47 33L48 33L48 34L49 34L49 31L48 31L48 29L46 29L46 30L45 30L45 27L46 27L46 28L48 28L48 27L46 27L46 26L48 26L48 25L49 25L49 26L51 26L51 25L49 25L49 24L48 24L48 23L50 23L50 24L52 24L52 23L50 23L50 22L51 22L51 19L52 19L52 18L51 18L51 17L50 17L50 18L49 18L49 19L50 19L50 22L48 22L48 23L47 23L47 21L48 21L48 20L47 20L47 19L48 19L48 18L47 18L47 17ZM50 18L50 19L51 19L51 18ZM2 20L2 21L3 21L3 22L4 22L4 21L3 21L3 20ZM32 20L32 21L33 21L33 20ZM36 20L36 21L37 21L37 20ZM40 20L40 21L41 21L41 20ZM52 20L52 21L53 21L53 20ZM15 21L15 22L16 22L16 21ZM44 21L44 23L45 23L45 25L44 25L44 26L43 26L43 27L42 27L42 26L41 26L41 25L40 25L40 26L39 26L39 28L41 28L41 27L42 27L42 28L43 28L43 29L42 29L42 30L41 30L41 29L40 29L40 30L39 30L39 31L40 31L40 30L41 30L41 31L42 31L42 32L46 32L46 33L47 33L47 32L48 32L48 31L47 31L47 30L46 30L46 31L44 31L44 30L43 30L43 29L44 29L44 28L43 28L43 27L44 27L44 26L46 26L46 22L45 22L45 21ZM6 22L6 23L7 23L7 22ZM27 22L27 23L28 23L28 24L27 24L27 25L28 25L28 24L30 24L30 22ZM4 24L4 25L2 25L2 26L3 26L3 27L4 27L4 26L5 26L5 24ZM47 24L47 25L48 25L48 24ZM6 25L6 26L7 26L7 25ZM54 25L54 26L57 26L57 25ZM23 26L23 27L24 27L24 26ZM36 26L36 28L37 28L37 26ZM40 26L40 27L41 27L41 26ZM5 27L5 30L8 30L8 27ZM27 27L27 30L30 30L30 27ZM49 27L49 30L52 30L52 27ZM6 28L6 29L7 29L7 28ZM28 28L28 29L29 29L29 28ZM50 28L50 29L51 29L51 28ZM16 30L16 31L15 31L15 33L17 33L17 32L16 32L16 31L17 31L17 30ZM42 30L42 31L43 31L43 30ZM54 30L54 31L55 31L55 30ZM18 31L18 33L19 33L19 34L18 34L18 35L19 35L19 34L20 34L20 35L22 35L22 36L23 36L23 35L26 35L26 36L27 36L27 37L28 37L28 36L27 36L27 35L26 35L26 34L25 34L25 33L26 33L26 32L25 32L25 33L22 33L22 32L20 32L20 33L19 33L19 31ZM37 31L37 32L34 32L34 33L38 33L38 31ZM46 31L46 32L47 32L47 31ZM51 31L51 32L53 32L53 31ZM27 32L27 33L30 33L30 32ZM31 32L31 34L32 34L32 32ZM20 33L20 34L21 34L21 33ZM54 33L54 34L57 34L57 33ZM15 34L15 36L14 36L14 35L11 35L11 36L9 36L9 37L10 37L10 39L12 39L12 38L14 38L14 37L16 37L16 38L15 38L15 39L14 39L14 42L12 42L12 43L13 43L13 44L14 44L14 42L15 42L15 43L16 43L16 42L15 42L15 39L16 39L16 40L17 40L17 41L19 41L19 43L20 43L20 44L19 44L19 45L22 45L22 44L21 44L21 43L22 43L22 42L20 42L20 41L19 41L19 39L20 39L20 38L19 38L19 39L18 39L18 38L17 38L17 37L16 37L16 35L17 35L17 34ZM22 34L22 35L23 35L23 34ZM29 34L29 35L30 35L30 36L31 36L31 38L32 38L32 35L30 35L30 34ZM45 35L45 36L46 36L46 35ZM13 36L13 37L14 37L14 36ZM18 36L18 37L20 37L20 36ZM24 36L24 37L21 37L21 41L22 41L22 40L24 40L24 39L23 39L23 38L24 38L24 37L25 37L25 36ZM11 37L11 38L12 38L12 37ZM17 39L17 40L18 40L18 39ZM27 39L27 40L28 40L28 39ZM3 40L3 41L4 41L4 40ZM11 40L11 41L13 41L13 40ZM46 40L46 41L47 41L47 40ZM31 41L31 42L32 42L32 41ZM39 41L39 42L40 42L40 41ZM52 41L52 42L53 42L53 43L52 43L52 44L53 44L53 43L54 43L54 41ZM17 42L17 43L18 43L18 42ZM34 42L34 43L35 43L35 42ZM50 42L50 43L51 43L51 42ZM10 44L10 45L9 45L9 46L8 46L8 47L9 47L9 46L10 46L10 47L11 47L11 44ZM16 44L16 45L18 45L18 44ZM23 44L23 45L24 45L24 46L25 46L25 45L26 45L26 44L25 44L25 45L24 45L24 44ZM35 44L35 46L36 46L36 45L40 45L40 44ZM47 44L47 45L46 45L46 46L48 46L48 44ZM3 45L3 47L5 47L5 46L4 46L4 45ZM12 47L12 48L11 48L11 50L12 50L12 49L13 49L13 50L14 50L14 49L13 49L13 48L14 48L14 47ZM24 47L24 48L25 48L25 47ZM35 47L35 48L36 48L36 49L35 49L35 50L36 50L36 51L37 51L37 50L38 50L38 49L37 49L37 48L36 48L36 47ZM55 47L55 48L54 48L54 49L55 49L55 48L56 48L56 47ZM18 48L18 49L19 49L19 48ZM27 49L27 52L30 52L30 49ZM49 49L49 52L52 52L52 49ZM22 50L22 51L23 51L23 52L22 52L22 53L21 53L21 52L19 52L19 53L21 53L21 54L22 54L22 53L23 53L23 54L24 54L24 53L23 53L23 52L25 52L25 53L26 53L26 51L23 51L23 50ZM28 50L28 51L29 51L29 50ZM50 50L50 51L51 51L51 50ZM46 51L46 53L45 53L45 54L44 54L44 53L43 53L43 56L44 56L44 55L45 55L45 54L46 54L46 56L47 56L47 54L48 54L48 52L47 52L47 51ZM53 51L53 53L55 53L55 52L54 52L54 51ZM9 52L9 54L11 54L11 52ZM29 53L29 54L30 54L30 53ZM19 54L19 55L20 55L20 54ZM27 55L27 56L28 56L28 55ZM53 55L53 56L54 56L54 55ZM0 0L0 7L7 7L7 0ZM1 1L1 6L6 6L6 1ZM2 2L2 5L5 5L5 2ZM50 0L50 7L57 7L57 0ZM51 1L51 6L56 6L56 1ZM52 2L52 5L55 5L55 2ZM0 50L0 57L7 57L7 50ZM1 51L1 56L6 56L6 51ZM2 52L2 55L5 55L5 52Z" fill="#000000"/></g></g></svg>
