<?xml version="1.0" encoding="UTF-8"?>
<svg xmlns="http://www.w3.org/2000/svg" version="1.1" width="300" height="300" viewBox="0 0 300 300"><rect x="0" y="0" width="300" height="300" fill="#ffffff"/><g transform="scale(4.918)"><g transform="translate(2,2)"><path fill-rule="evenodd" d="M10 0L10 1L8 1L8 2L9 2L9 3L8 3L8 4L9 4L9 3L12 3L12 5L11 5L11 4L10 4L10 5L11 5L11 6L10 6L10 7L9 7L9 5L8 5L8 7L9 7L9 8L6 8L6 9L7 9L7 10L5 10L5 8L0 8L0 9L3 9L3 11L2 11L2 10L1 10L1 11L2 11L2 12L4 12L4 10L5 10L5 11L8 11L8 12L9 12L9 11L8 11L8 10L9 10L9 9L11 9L11 8L12 8L12 9L13 9L13 10L12 10L12 11L14 11L14 12L13 12L13 13L11 13L11 11L10 11L10 13L9 13L9 14L10 14L10 16L11 16L11 17L10 17L10 19L12 19L12 17L13 17L13 18L14 18L14 16L15 16L15 15L16 15L16 17L15 17L15 21L16 21L16 22L15 22L15 23L16 23L16 25L18 25L18 26L17 26L17 27L16 27L16 26L14 26L14 25L15 25L15 24L14 24L14 23L13 23L13 22L14 22L14 21L12 21L12 20L9 20L9 19L7 19L7 18L9 18L9 17L8 17L8 14L6 14L6 15L7 15L7 16L5 16L5 14L3 14L3 13L2 13L2 14L1 14L1 12L0 12L0 14L1 14L1 15L2 15L2 14L3 14L3 16L4 16L4 17L2 17L2 16L1 16L1 17L0 17L0 19L1 19L1 20L0 20L0 21L1 21L1 23L0 23L0 26L1 26L1 29L2 29L2 31L1 31L1 30L0 30L0 32L2 32L2 31L5 31L5 32L6 32L6 33L4 33L4 32L3 32L3 34L5 34L5 36L4 36L4 35L2 35L2 33L1 33L1 34L0 34L0 37L1 37L1 39L2 39L2 40L3 40L3 41L4 41L4 40L5 40L5 38L4 38L4 37L5 37L5 36L6 36L6 37L7 37L7 38L6 38L6 39L7 39L7 40L6 40L6 41L7 41L7 40L8 40L8 38L9 38L9 39L10 39L10 41L11 41L11 42L9 42L9 43L10 43L10 44L11 44L11 45L9 45L9 44L8 44L8 43L7 43L7 42L6 42L6 43L5 43L5 42L3 42L3 43L5 43L5 44L6 44L6 45L5 45L5 47L3 47L3 44L2 44L2 41L1 41L1 42L0 42L0 44L1 44L1 45L0 45L0 48L5 48L5 47L7 47L7 46L6 46L6 45L7 45L7 44L8 44L8 45L9 45L9 46L8 46L8 47L9 47L9 48L8 48L8 51L9 51L9 52L8 52L8 57L11 57L11 56L9 56L9 55L12 55L12 57L13 57L13 56L14 56L14 57L16 57L16 56L17 56L17 57L19 57L19 55L20 55L20 54L19 54L19 55L18 55L18 56L17 56L17 53L20 53L20 52L21 52L21 53L22 53L22 54L21 54L21 56L20 56L20 57L21 57L21 56L22 56L22 55L23 55L23 56L24 56L24 55L23 55L23 54L24 54L24 53L26 53L26 54L27 54L27 53L28 53L28 54L30 54L30 53L31 53L31 56L30 56L30 55L29 55L29 56L30 56L30 57L32 57L32 56L34 56L34 55L33 55L33 54L32 54L32 52L34 52L34 53L35 53L35 57L39 57L39 56L38 56L38 55L40 55L40 56L41 56L41 55L43 55L43 56L42 56L42 57L44 57L44 56L45 56L45 55L43 55L43 53L44 53L44 54L45 54L45 53L44 53L44 49L43 49L43 48L45 48L45 49L47 49L47 48L46 48L46 47L47 47L47 46L46 46L46 45L47 45L47 44L48 44L48 43L49 43L49 45L48 45L48 46L49 46L49 47L50 47L50 48L48 48L48 51L47 51L47 50L45 50L45 52L48 52L48 53L47 53L47 54L48 54L48 56L49 56L49 54L48 54L48 53L50 53L50 55L51 55L51 56L50 56L50 57L52 57L52 56L53 56L53 57L54 57L54 56L55 56L55 57L56 57L56 56L55 56L55 55L54 55L54 56L53 56L53 55L51 55L51 54L55 54L55 53L54 53L54 52L55 52L55 50L57 50L57 49L54 49L54 48L57 48L57 47L56 47L56 46L57 46L57 45L56 45L56 46L55 46L55 45L54 45L54 44L55 44L55 43L56 43L56 42L57 42L57 41L55 41L55 39L57 39L57 37L56 37L56 36L57 36L57 35L55 35L55 34L57 34L57 32L56 32L56 30L57 30L57 29L56 29L56 28L57 28L57 27L56 27L56 26L57 26L57 25L54 25L54 24L57 24L57 23L56 23L56 22L57 22L57 21L54 21L54 22L53 22L53 21L51 21L51 22L50 22L50 19L51 19L51 20L57 20L57 19L53 19L53 18L54 18L54 16L55 16L55 18L57 18L57 17L56 17L56 16L57 16L57 15L56 15L56 14L57 14L57 11L56 11L56 14L53 14L53 15L51 15L51 14L52 14L52 13L51 13L51 14L50 14L50 16L49 16L49 17L48 17L48 16L46 16L46 17L43 17L43 16L45 16L45 15L49 15L49 13L50 13L50 11L52 11L52 12L53 12L53 11L54 11L54 12L55 12L55 11L54 11L54 10L53 10L53 9L54 9L54 8L53 8L53 9L52 9L52 8L51 8L51 10L49 10L49 9L50 9L50 8L49 8L49 6L48 6L48 7L47 7L47 5L48 5L48 0L45 0L45 1L44 1L44 2L42 2L42 1L43 1L43 0L42 0L42 1L41 1L41 0L39 0L39 1L37 1L37 0L35 0L35 1L34 1L34 0L30 0L30 1L29 1L29 0L28 0L28 3L27 3L27 4L26 4L26 3L23 3L23 4L22 4L22 3L21 3L21 2L19 2L19 1L18 1L18 2L19 2L19 3L18 3L18 4L17 4L17 6L16 6L16 7L15 7L15 5L16 5L16 4L14 4L14 3L17 3L17 1L16 1L16 0L14 0L14 1L15 1L15 2L14 2L14 3L12 3L12 2L13 2L13 0ZM21 0L21 1L23 1L23 2L25 2L25 1L26 1L26 2L27 2L27 1L26 1L26 0L24 0L24 1L23 1L23 0ZM10 1L10 2L12 2L12 1ZM30 1L30 2L29 2L29 3L28 3L28 4L29 4L29 3L30 3L30 2L34 2L34 1ZM40 1L40 2L41 2L41 3L40 3L40 5L41 5L41 7L42 7L42 5L41 5L41 4L42 4L42 2L41 2L41 1ZM45 1L45 2L47 2L47 1ZM35 2L35 3L34 3L34 4L33 4L33 3L32 3L32 4L31 4L31 9L32 9L32 10L33 10L33 11L30 11L30 12L28 12L28 13L25 13L25 12L27 12L27 11L26 11L26 10L28 10L28 11L29 11L29 10L28 10L28 9L25 9L25 10L24 10L24 11L23 11L23 12L24 12L24 13L22 13L22 12L21 12L21 11L22 11L22 10L23 10L23 9L24 9L24 6L23 6L23 7L22 7L22 4L21 4L21 3L19 3L19 4L18 4L18 5L19 5L19 7L20 7L20 5L19 5L19 4L21 4L21 7L22 7L22 8L19 8L19 9L18 9L18 10L17 10L17 9L16 9L16 8L18 8L18 6L17 6L17 7L16 7L16 8L15 8L15 7L14 7L14 5L12 5L12 6L11 6L11 7L10 7L10 8L11 8L11 7L12 7L12 8L14 8L14 9L15 9L15 12L17 12L17 13L16 13L16 15L17 15L17 16L19 16L19 17L16 17L16 18L17 18L17 19L16 19L16 21L18 21L18 22L20 22L20 23L18 23L18 24L21 24L21 25L19 25L19 26L18 26L18 27L17 27L17 28L18 28L18 29L16 29L16 30L17 30L17 31L16 31L16 32L18 32L18 31L19 31L19 30L20 30L20 32L19 32L19 33L16 33L16 35L17 35L17 34L19 34L19 35L18 35L18 36L15 36L15 32L14 32L14 31L15 31L15 29L14 29L14 26L13 26L13 25L14 25L14 24L12 24L12 25L11 25L11 24L10 24L10 23L12 23L12 22L10 22L10 21L8 21L8 20L7 20L7 19L5 19L5 18L7 18L7 17L5 17L5 18L4 18L4 20L5 20L5 21L2 21L2 20L1 20L1 21L2 21L2 23L1 23L1 24L2 24L2 26L4 26L4 25L5 25L5 26L10 26L10 25L11 25L11 27L10 27L10 28L9 28L9 29L11 29L11 30L10 30L10 33L11 33L11 34L10 34L10 35L9 35L9 36L7 36L7 35L6 35L6 36L7 36L7 37L10 37L10 35L11 35L11 34L13 34L13 32L14 32L14 35L13 35L13 36L12 36L12 37L14 37L14 39L13 39L13 38L10 38L10 39L11 39L11 41L13 41L13 42L14 42L14 43L13 43L13 44L14 44L14 45L13 45L13 46L12 46L12 47L15 47L15 48L14 48L14 49L13 49L13 48L12 48L12 49L13 49L13 50L14 50L14 51L11 51L11 49L9 49L9 51L10 51L10 52L9 52L9 53L11 53L11 54L12 54L12 53L14 53L14 52L15 52L15 51L16 51L16 53L15 53L15 54L14 54L14 55L15 55L15 56L16 56L16 55L15 55L15 54L16 54L16 53L17 53L17 51L18 51L18 50L19 50L19 49L20 49L20 50L21 50L21 49L22 49L22 53L24 53L24 51L25 51L25 52L26 52L26 50L23 50L23 49L24 49L24 47L23 47L23 46L24 46L24 45L25 45L25 49L26 49L26 46L27 46L27 45L28 45L28 47L29 47L29 48L31 48L31 52L32 52L32 51L34 51L34 50L36 50L36 48L37 48L37 50L39 50L39 52L38 52L38 53L36 53L36 52L37 52L37 51L36 51L36 52L35 52L35 53L36 53L36 54L39 54L39 52L40 52L40 55L41 55L41 52L42 52L42 53L43 53L43 52L42 52L42 51L43 51L43 50L41 50L41 48L40 48L40 47L41 47L41 46L42 46L42 47L45 47L45 43L44 43L44 42L47 42L47 43L48 43L48 42L47 42L47 41L48 41L48 40L49 40L49 41L51 41L51 42L50 42L50 43L51 43L51 44L50 44L50 47L53 47L53 48L54 48L54 47L55 47L55 46L54 46L54 45L51 45L51 44L53 44L53 43L54 43L54 41L52 41L52 40L50 40L50 39L55 39L55 38L54 38L54 37L55 37L55 36L54 36L54 37L53 37L53 36L52 36L52 34L54 34L54 33L56 33L56 32L53 32L53 31L51 31L51 32L49 32L49 31L48 31L48 28L47 28L47 27L48 27L48 26L47 26L47 25L49 25L49 26L51 26L51 25L53 25L53 27L55 27L55 28L54 28L54 29L53 29L53 30L54 30L54 29L55 29L55 30L56 30L56 29L55 29L55 28L56 28L56 27L55 27L55 26L54 26L54 25L53 25L53 24L51 24L51 23L50 23L50 22L49 22L49 23L48 23L48 24L47 24L47 25L45 25L45 24L42 24L42 23L44 23L44 21L45 21L45 22L46 22L46 23L47 23L47 21L48 21L48 20L49 20L49 19L50 19L50 18L51 18L51 17L53 17L53 16L54 16L54 15L53 15L53 16L51 16L51 17L50 17L50 18L48 18L48 17L46 17L46 18L39 18L39 17L41 17L41 16L42 16L42 15L44 15L44 14L45 14L45 12L46 12L46 14L47 14L47 13L49 13L49 12L47 12L47 11L48 11L48 9L49 9L49 8L48 8L48 9L47 9L47 7L46 7L46 5L47 5L47 3L43 3L43 7L44 7L44 6L45 6L45 8L44 8L44 9L45 9L45 10L40 10L40 11L39 11L39 9L38 9L38 11L39 11L39 12L38 12L38 13L33 13L33 11L34 11L34 12L37 12L37 11L34 11L34 10L35 10L35 9L36 9L36 8L38 8L38 6L39 6L39 7L40 7L40 6L39 6L39 4L38 4L38 6L37 6L37 5L36 5L36 3L37 3L37 2ZM38 2L38 3L39 3L39 2ZM23 4L23 5L24 5L24 4ZM25 4L25 8L26 8L26 4ZM44 4L44 5L46 5L46 4ZM27 5L27 8L30 8L30 5ZM33 5L33 6L32 6L32 7L33 7L33 6L34 6L34 7L35 7L35 8L34 8L34 9L33 9L33 10L34 10L34 9L35 9L35 8L36 8L36 7L37 7L37 6L36 6L36 5L35 5L35 6L34 6L34 5ZM12 6L12 7L13 7L13 6ZM28 6L28 7L29 7L29 6ZM35 6L35 7L36 7L36 6ZM40 8L40 9L41 9L41 8ZM45 8L45 9L46 9L46 8ZM55 8L55 10L57 10L57 9L56 9L56 8ZM19 9L19 10L18 10L18 11L17 11L17 10L16 10L16 11L17 11L17 12L18 12L18 13L17 13L17 14L18 14L18 15L19 15L19 13L21 13L21 16L20 16L20 17L21 17L21 18L20 18L20 19L21 19L21 18L22 18L22 17L21 17L21 16L22 16L22 13L21 13L21 12L20 12L20 9ZM45 10L45 11L42 11L42 14L41 14L41 13L40 13L40 12L41 12L41 11L40 11L40 12L39 12L39 14L37 14L37 15L39 15L39 16L36 16L36 15L35 15L35 14L33 14L33 13L32 13L32 12L31 12L31 13L32 13L32 14L33 14L33 15L31 15L31 14L30 14L30 13L28 13L28 14L26 14L26 15L24 15L24 14L25 14L25 13L24 13L24 14L23 14L23 15L24 15L24 17L23 17L23 18L24 18L24 19L22 19L22 20L21 20L21 21L22 21L22 22L21 22L21 24L24 24L24 25L22 25L22 26L20 26L20 27L22 27L22 26L24 26L24 27L26 27L26 30L25 30L25 29L24 29L24 28L23 28L23 29L24 29L24 30L25 30L25 31L23 31L23 37L22 37L22 33L21 33L21 32L20 32L20 33L21 33L21 34L20 34L20 35L19 35L19 36L18 36L18 37L17 37L17 38L18 38L18 37L19 37L19 38L20 38L20 39L17 39L17 41L19 41L19 42L18 42L18 43L17 43L17 44L16 44L16 43L15 43L15 46L16 46L16 45L17 45L17 46L18 46L18 47L17 47L17 48L15 48L15 49L17 49L17 50L16 50L16 51L17 51L17 50L18 50L18 49L19 49L19 46L20 46L20 47L21 47L21 48L23 48L23 47L22 47L22 45L24 45L24 44L25 44L25 45L26 45L26 44L28 44L28 45L30 45L30 46L29 46L29 47L31 47L31 48L33 48L33 49L32 49L32 50L34 50L34 49L35 49L35 48L36 48L36 47L37 47L37 48L38 48L38 49L39 49L39 50L40 50L40 48L38 48L38 47L40 47L40 46L41 46L41 45L39 45L39 44L40 44L40 43L41 43L41 44L43 44L43 45L42 45L42 46L44 46L44 44L43 44L43 43L42 43L42 42L44 42L44 41L43 41L43 40L47 40L47 39L46 39L46 38L45 38L45 37L44 37L44 35L43 35L43 37L42 37L42 36L41 36L41 35L42 35L42 34L43 34L43 32L45 32L45 31L44 31L44 30L43 30L43 29L44 29L44 28L43 28L43 27L42 27L42 28L43 28L43 29L42 29L42 30L41 30L41 29L40 29L40 32L38 32L38 33L37 33L37 32L36 32L36 31L39 31L39 30L33 30L33 31L32 31L32 32L31 32L31 29L32 29L32 28L33 28L33 29L39 29L39 28L38 28L38 27L39 27L39 26L44 26L44 27L45 27L45 30L46 30L46 31L47 31L47 32L46 32L46 33L47 33L47 34L45 34L45 33L44 33L44 34L45 34L45 36L46 36L46 37L47 37L47 38L48 38L48 39L50 39L50 38L49 38L49 37L50 37L50 36L51 36L51 37L52 37L52 36L51 36L51 35L49 35L49 34L48 34L48 33L47 33L47 32L48 32L48 31L47 31L47 30L46 30L46 29L47 29L47 28L46 28L46 27L47 27L47 26L46 26L46 27L45 27L45 26L44 26L44 25L42 25L42 24L41 24L41 25L39 25L39 26L38 26L38 27L37 27L37 22L38 22L38 21L39 21L39 23L38 23L38 24L39 24L39 23L40 23L40 22L41 22L41 21L42 21L42 22L43 22L43 21L42 21L42 19L40 19L40 20L36 20L36 21L37 21L37 22L36 22L36 24L34 24L34 23L35 23L35 22L34 22L34 21L32 21L32 20L33 20L33 19L29 19L29 18L31 18L31 17L29 17L29 16L28 16L28 15L29 15L29 14L30 14L30 16L33 16L33 17L32 17L32 18L34 18L34 20L35 20L35 18L34 18L34 17L35 17L35 16L36 16L36 17L39 17L39 16L41 16L41 15L42 15L42 14L43 14L43 12L45 12L45 11L46 11L46 10ZM52 10L52 11L53 11L53 10ZM24 11L24 12L25 12L25 11ZM6 12L6 13L7 13L7 12ZM13 13L13 14L14 14L14 15L15 15L15 13ZM40 14L40 15L41 15L41 14ZM12 15L12 16L13 16L13 15ZM26 15L26 16L25 16L25 17L26 17L26 18L25 18L25 19L26 19L26 20L25 20L25 21L24 21L24 20L22 20L22 21L24 21L24 22L23 22L23 23L24 23L24 24L25 24L25 26L26 26L26 25L27 25L27 24L28 24L28 26L29 26L29 24L28 24L28 23L29 23L29 22L30 22L30 23L31 23L31 22L30 22L30 20L27 20L27 19L28 19L28 18L27 18L27 17L28 17L28 16L27 16L27 15ZM33 15L33 16L35 16L35 15ZM26 16L26 17L27 17L27 16ZM2 18L2 19L3 19L3 18ZM18 18L18 19L17 19L17 20L18 20L18 21L20 21L20 20L19 20L19 18ZM36 18L36 19L39 19L39 18ZM46 18L46 19L43 19L43 20L47 20L47 18ZM13 19L13 20L14 20L14 19ZM6 20L6 21L7 21L7 22L6 22L6 23L9 23L9 22L8 22L8 21L7 21L7 20ZM40 20L40 21L41 21L41 20ZM25 21L25 22L26 22L26 23L25 23L25 24L27 24L27 21ZM3 22L3 23L2 23L2 24L5 24L5 23L4 23L4 22ZM33 22L33 23L34 23L34 22ZM52 22L52 23L53 23L53 22ZM6 24L6 25L8 25L8 24ZM30 24L30 25L31 25L31 27L33 27L33 28L34 28L34 26L35 26L35 27L36 27L36 26L35 26L35 25L34 25L34 24L32 24L32 25L31 25L31 24ZM50 24L50 25L51 25L51 24ZM32 25L32 26L34 26L34 25ZM3 27L3 30L4 30L4 27ZM5 27L5 30L8 30L8 27ZM11 27L11 28L12 28L12 27ZM15 27L15 28L16 28L16 27ZM27 27L27 30L30 30L30 27ZM40 27L40 28L41 28L41 27ZM49 27L49 30L52 30L52 27ZM6 28L6 29L7 29L7 28ZM19 28L19 29L18 29L18 30L19 30L19 29L22 29L22 28ZM28 28L28 29L29 29L29 28ZM50 28L50 29L51 29L51 28ZM13 29L13 30L12 30L12 32L11 32L11 33L12 33L12 32L13 32L13 30L14 30L14 29ZM21 30L21 31L22 31L22 30ZM42 30L42 31L43 31L43 30ZM6 31L6 32L7 32L7 31ZM25 31L25 32L29 32L29 33L25 33L25 34L24 34L24 36L25 36L25 38L27 38L27 39L25 39L25 40L24 40L24 39L21 39L21 40L19 40L19 41L20 41L20 42L19 42L19 43L20 43L20 44L19 44L19 45L20 45L20 46L21 46L21 45L22 45L22 44L21 44L21 43L22 43L22 42L24 42L24 41L25 41L25 44L26 44L26 43L28 43L28 44L29 44L29 43L30 43L30 45L31 45L31 43L33 43L33 42L34 42L34 44L32 44L32 45L33 45L33 46L32 46L32 47L33 47L33 46L36 46L36 45L35 45L35 44L36 44L36 41L33 41L33 40L35 40L35 38L36 38L36 36L37 36L37 35L38 35L38 38L37 38L37 39L36 39L36 40L38 40L38 39L39 39L39 38L40 38L40 39L41 39L41 36L40 36L40 35L41 35L41 34L42 34L42 32L40 32L40 35L38 35L38 34L39 34L39 33L38 33L38 34L36 34L36 32L35 32L35 31L33 31L33 32L32 32L32 38L31 38L31 36L30 36L30 38L31 38L31 39L29 39L29 35L30 35L30 34L29 34L29 33L30 33L30 31ZM33 32L33 34L34 34L34 35L35 35L35 34L34 34L34 33L35 33L35 32ZM51 32L51 33L50 33L50 34L51 34L51 33L53 33L53 32ZM6 33L6 34L7 34L7 33ZM8 33L8 34L9 34L9 33ZM25 34L25 36L27 36L27 35L26 35L26 34ZM46 35L46 36L47 36L47 37L49 37L49 35ZM19 36L19 37L21 37L21 38L22 38L22 37L21 37L21 36ZM34 36L34 37L35 37L35 36ZM39 36L39 37L40 37L40 36ZM2 37L2 39L3 39L3 37ZM15 37L15 38L16 38L16 37ZM23 37L23 38L24 38L24 37ZM27 37L27 38L28 38L28 37ZM43 37L43 38L42 38L42 40L43 40L43 39L45 39L45 38L44 38L44 37ZM33 38L33 39L32 39L32 40L33 40L33 39L34 39L34 38ZM12 39L12 40L13 40L13 41L14 41L14 42L15 42L15 41L16 41L16 39L15 39L15 40L13 40L13 39ZM27 39L27 40L28 40L28 41L29 41L29 40L28 40L28 39ZM23 40L23 41L24 41L24 40ZM30 40L30 41L31 41L31 42L30 42L30 43L31 43L31 42L32 42L32 41L31 41L31 40ZM39 40L39 41L38 41L38 42L37 42L37 43L38 43L38 44L37 44L37 46L39 46L39 45L38 45L38 44L39 44L39 42L42 42L42 41L41 41L41 40ZM21 41L21 42L22 42L22 41ZM26 41L26 42L27 42L27 41ZM11 42L11 43L12 43L12 42ZM6 43L6 44L7 44L7 43ZM23 43L23 44L24 44L24 43ZM17 44L17 45L18 45L18 44ZM20 44L20 45L21 45L21 44ZM1 46L1 47L2 47L2 46ZM10 46L10 47L11 47L11 46ZM34 47L34 48L35 48L35 47ZM6 48L6 49L7 49L7 48ZM27 49L27 52L30 52L30 49ZM49 49L49 52L52 52L52 49ZM28 50L28 51L29 51L29 50ZM50 50L50 51L51 51L51 50ZM53 50L53 51L54 51L54 50ZM40 51L40 52L41 52L41 51ZM56 51L56 52L57 52L57 51ZM11 52L11 53L12 53L12 52ZM25 55L25 57L26 57L26 55ZM27 55L27 56L28 56L28 55ZM36 55L36 56L37 56L37 55ZM46 56L46 57L47 57L47 56ZM0 0L0 7L7 7L7 0ZM1 1L1 6L6 6L6 1ZM2 2L2 5L5 5L5 2ZM50 0L50 7L57 7L57 0ZM51 1L51 6L56 6L56 1ZM52 2L52 5L55 5L55 2ZM0 50L0 57L7 57L7 50ZM1 51L1 56L6 56L6 51ZM2 52L2 55L5 55L5 52Z" fill="#000000"/></g></g></svg>
