<?xml version="1.0" encoding="UTF-8"?>
<svg xmlns="http://www.w3.org/2000/svg" version="1.1" width="300" height="300" viewBox="0 0 300 300"><rect x="0" y="0" width="300" height="300" fill="#ffffff"/><g transform="scale(4.918)"><g transform="translate(2,2)"><path fill-rule="evenodd" d="M14 0L14 1L12 1L12 3L11 3L11 2L10 2L10 1L8 1L8 2L9 2L9 3L8 3L8 4L9 4L9 5L8 5L8 7L9 7L9 5L10 5L10 8L6 8L6 9L5 9L5 8L0 8L0 10L1 10L1 11L3 11L3 12L4 12L4 14L3 14L3 15L2 15L2 16L3 16L3 15L4 15L4 14L5 14L5 15L8 15L8 11L7 11L7 10L9 10L9 11L10 11L10 13L11 13L11 14L12 14L12 15L10 15L10 14L9 14L9 15L10 15L10 16L9 16L9 18L8 18L8 17L7 17L7 16L6 16L6 17L5 17L5 16L4 16L4 19L3 19L3 18L1 18L1 20L0 20L0 21L1 21L1 20L2 20L2 21L3 21L3 22L2 22L2 23L3 23L3 25L2 25L2 27L1 27L1 26L0 26L0 27L1 27L1 28L3 28L3 31L0 31L0 32L1 32L1 33L2 33L2 34L1 34L1 35L2 35L2 36L3 36L3 37L2 37L2 38L3 38L3 37L7 37L7 38L5 38L5 39L7 39L7 40L4 40L4 39L2 39L2 40L4 40L4 41L3 41L3 42L1 42L1 41L0 41L0 42L1 42L1 43L2 43L2 44L4 44L4 46L5 46L5 47L3 47L3 45L2 45L2 47L1 47L1 46L0 46L0 48L5 48L5 47L7 47L7 48L6 48L6 49L8 49L8 51L10 51L10 52L8 52L8 57L11 57L11 56L13 56L13 55L11 55L11 56L10 56L10 54L12 54L12 53L14 53L14 55L16 55L16 57L20 57L20 56L19 56L19 55L20 55L20 54L18 54L18 53L20 53L20 52L21 52L21 53L22 53L22 54L21 54L21 55L22 55L22 56L23 56L23 57L24 57L24 55L22 55L22 54L24 54L24 53L25 53L25 54L27 54L27 53L28 53L28 54L29 54L29 53L30 53L30 54L31 54L31 55L29 55L29 57L30 57L30 56L31 56L31 57L32 57L32 56L31 56L31 55L33 55L33 54L32 54L32 52L33 52L33 53L34 53L34 52L33 52L33 51L32 51L32 50L34 50L34 51L35 51L35 52L36 52L36 54L35 54L35 56L33 56L33 57L37 57L37 56L36 56L36 55L37 55L37 54L38 54L38 55L40 55L40 56L41 56L41 55L43 55L43 56L42 56L42 57L44 57L44 55L43 55L43 53L44 53L44 54L45 54L45 53L44 53L44 50L46 50L46 51L47 51L47 52L48 52L48 54L47 54L47 55L49 55L49 56L47 56L47 57L49 57L49 56L50 56L50 57L52 57L52 56L54 56L54 57L56 57L56 56L55 56L55 55L51 55L51 54L54 54L54 53L53 53L53 52L55 52L55 51L54 51L54 50L55 50L55 49L53 49L53 48L55 48L55 47L53 47L53 48L52 48L52 47L50 47L50 46L49 46L49 47L50 47L50 48L48 48L48 51L47 51L47 50L46 50L46 49L47 49L47 48L46 48L46 47L47 47L47 46L46 46L46 45L47 45L47 44L48 44L48 45L50 45L50 44L51 44L51 43L52 43L52 45L51 45L51 46L52 46L52 45L53 45L53 46L55 46L55 45L54 45L54 44L55 44L55 43L56 43L56 46L57 46L57 43L56 43L56 42L55 42L55 39L57 39L57 37L53 37L53 38L52 38L52 40L51 40L51 39L50 39L50 38L51 38L51 37L52 37L52 36L55 36L55 34L57 34L57 32L55 32L55 29L54 29L54 28L55 28L55 27L56 27L56 30L57 30L57 27L56 27L56 26L55 26L55 25L56 25L56 24L57 24L57 23L56 23L56 22L57 22L57 19L56 19L56 21L54 21L54 22L53 22L53 23L52 23L52 22L50 22L50 19L51 19L51 18L50 18L50 17L51 17L51 16L53 16L53 17L54 17L54 18L52 18L52 20L55 20L55 19L54 19L54 18L55 18L55 17L54 17L54 16L55 16L55 15L56 15L56 16L57 16L57 15L56 15L56 14L57 14L57 12L56 12L56 11L54 11L54 10L53 10L53 11L52 11L52 12L53 12L53 11L54 11L54 12L55 12L55 13L54 13L54 14L55 14L55 15L54 15L54 16L53 16L53 15L51 15L51 14L52 14L52 13L51 13L51 14L50 14L50 13L47 13L47 14L46 14L46 12L45 12L45 14L44 14L44 10L45 10L45 11L46 11L46 10L45 10L45 9L44 9L44 8L46 8L46 7L47 7L47 5L48 5L48 0L46 0L46 1L45 1L45 0L42 0L42 1L41 1L41 2L40 2L40 1L37 1L37 0L35 0L35 1L34 1L34 0L33 0L33 1L34 1L34 2L30 2L30 1L31 1L31 0L30 0L30 1L29 1L29 2L28 2L28 1L25 1L25 0L24 0L24 1L23 1L23 0L21 0L21 4L19 4L19 2L20 2L20 0L17 0L17 1L16 1L16 2L15 2L15 3L16 3L16 2L17 2L17 4L19 4L19 5L17 5L17 6L16 6L16 7L15 7L15 5L16 5L16 4L14 4L14 7L15 7L15 9L17 9L17 10L18 10L18 11L15 11L15 10L13 10L13 9L14 9L14 8L12 8L12 9L11 9L11 11L10 11L10 10L9 10L9 9L10 9L10 8L11 8L11 5L10 5L10 3L11 3L11 4L12 4L12 7L13 7L13 4L12 4L12 3L14 3L14 1L15 1L15 0ZM22 1L22 2L23 2L23 3L22 3L22 4L21 4L21 7L22 7L22 8L21 8L21 9L20 9L20 10L19 10L19 9L18 9L18 6L17 6L17 7L16 7L16 8L17 8L17 9L18 9L18 10L19 10L19 12L21 12L21 13L19 13L19 14L20 14L20 16L19 16L19 17L18 17L18 15L17 15L17 13L18 13L18 12L17 12L17 13L16 13L16 12L15 12L15 13L12 13L12 12L14 12L14 11L12 11L12 12L11 12L11 13L12 13L12 14L13 14L13 15L14 15L14 17L13 17L13 16L10 16L10 17L11 17L11 18L9 18L9 19L11 19L11 23L13 23L13 21L14 21L14 23L15 23L15 24L16 24L16 25L15 25L15 27L14 27L14 26L13 26L13 25L14 25L14 24L13 24L13 25L12 25L12 26L11 26L11 25L9 25L9 27L10 27L10 28L9 28L9 30L11 30L11 31L13 31L13 32L12 32L12 33L11 33L11 32L9 32L9 31L6 31L6 32L5 32L5 31L4 31L4 35L5 35L5 33L6 33L6 34L7 34L7 35L6 35L6 36L7 36L7 35L9 35L9 36L14 36L14 37L10 37L10 38L9 38L9 37L8 37L8 38L9 38L9 39L10 39L10 38L11 38L11 39L12 39L12 38L15 38L15 39L14 39L14 41L13 41L13 42L12 42L12 43L14 43L14 41L15 41L15 42L17 42L17 43L18 43L18 41L17 41L17 40L18 40L18 39L20 39L20 38L19 38L19 37L23 37L23 38L21 38L21 39L22 39L22 40L21 40L21 41L20 41L20 40L19 40L19 41L20 41L20 43L19 43L19 44L20 44L20 43L22 43L22 42L23 42L23 44L24 44L24 45L22 45L22 44L21 44L21 45L19 45L19 46L18 46L18 47L16 47L16 46L17 46L17 45L18 45L18 44L17 44L17 45L15 45L15 48L17 48L17 49L15 49L15 50L17 50L17 51L16 51L16 53L15 53L15 54L16 54L16 53L18 53L18 52L17 52L17 51L18 51L18 50L19 50L19 49L20 49L20 50L21 50L21 49L22 49L22 51L21 51L21 52L22 52L22 53L24 53L24 51L25 51L25 53L26 53L26 51L25 51L25 50L26 50L26 46L27 46L27 45L28 45L28 46L29 46L29 45L28 45L28 44L26 44L26 43L27 43L27 42L29 42L29 43L30 43L30 44L31 44L31 45L30 45L30 46L36 46L36 48L35 48L35 47L33 47L33 48L32 48L32 47L31 47L31 48L32 48L32 49L31 49L31 50L32 50L32 49L34 49L34 50L35 50L35 51L36 51L36 52L37 52L37 51L36 51L36 50L39 50L39 49L38 49L38 48L40 48L40 49L41 49L41 50L40 50L40 51L38 51L38 54L39 54L39 52L40 52L40 55L41 55L41 53L42 53L42 52L43 52L43 50L44 50L44 49L45 49L45 48L40 48L40 47L41 47L41 46L42 46L42 47L44 47L44 46L45 46L45 43L46 43L46 42L47 42L47 43L49 43L49 41L51 41L51 42L50 42L50 43L51 43L51 42L53 42L53 43L54 43L54 40L53 40L53 41L51 41L51 40L50 40L50 39L49 39L49 40L45 40L45 38L46 38L46 39L47 39L47 37L49 37L49 32L50 32L50 35L51 35L51 36L52 36L52 34L55 34L55 32L53 32L53 31L54 31L54 30L53 30L53 31L51 31L51 32L50 32L50 31L48 31L48 29L46 29L46 30L42 30L42 29L43 29L43 28L44 28L44 29L45 29L45 27L46 27L46 28L47 28L47 27L48 27L48 25L50 25L50 26L51 26L51 25L50 25L50 24L52 24L52 25L53 25L53 27L55 27L55 26L54 26L54 25L55 25L55 24L54 24L54 25L53 25L53 24L52 24L52 23L50 23L50 22L48 22L48 21L49 21L49 20L48 20L48 17L49 17L49 16L50 16L50 15L46 15L46 16L44 16L44 14L42 14L42 11L43 11L43 10L44 10L44 9L43 9L43 7L44 7L44 6L45 6L45 7L46 7L46 6L45 6L45 5L47 5L47 3L46 3L46 4L45 4L45 3L43 3L43 7L42 7L42 5L41 5L41 3L42 3L42 2L45 2L45 1L42 1L42 2L41 2L41 3L40 3L40 6L39 6L39 3L38 3L38 5L36 5L36 3L37 3L37 1L35 1L35 3L34 3L34 4L33 4L33 3L32 3L32 4L31 4L31 7L32 7L32 9L31 9L31 10L29 10L29 9L25 9L25 8L26 8L26 4L27 4L27 3L28 3L28 4L30 4L30 3L28 3L28 2L25 2L25 1L24 1L24 2L23 2L23 1ZM46 1L46 2L47 2L47 1ZM24 2L24 3L23 3L23 4L22 4L22 7L23 7L23 6L24 6L24 8L25 8L25 4L26 4L26 3L25 3L25 2ZM23 4L23 5L24 5L24 4ZM44 4L44 5L45 5L45 4ZM19 5L19 7L20 7L20 5ZM27 5L27 8L30 8L30 5ZM33 5L33 6L32 6L32 7L33 7L33 9L32 9L32 11L30 11L30 12L31 12L31 13L28 13L28 12L29 12L29 11L28 11L28 10L26 10L26 11L27 11L27 12L25 12L25 13L23 13L23 12L24 12L24 10L25 10L25 9L23 9L23 10L22 10L22 9L21 9L21 10L20 10L20 11L21 11L21 12L22 12L22 13L21 13L21 16L22 16L22 13L23 13L23 15L25 15L25 14L26 14L26 15L27 15L27 16L23 16L23 20L24 20L24 21L22 21L22 20L21 20L21 19L19 19L19 18L20 18L20 17L19 17L19 18L18 18L18 19L19 19L19 20L18 20L18 21L16 21L16 19L15 19L15 21L16 21L16 22L15 22L15 23L16 23L16 24L18 24L18 25L17 25L17 27L18 27L18 25L19 25L19 26L20 26L20 28L19 28L19 29L18 29L18 28L16 28L16 27L15 27L15 28L14 28L14 27L13 27L13 26L12 26L12 27L11 27L11 28L12 28L12 30L13 30L13 31L14 31L14 30L15 30L15 32L14 32L14 33L12 33L12 35L13 35L13 34L15 34L15 35L14 35L14 36L17 36L17 37L19 37L19 36L20 36L20 33L19 33L19 32L18 32L18 33L19 33L19 34L17 34L17 35L16 35L16 34L15 34L15 33L17 33L17 32L16 32L16 31L17 31L17 30L16 30L16 29L18 29L18 31L20 31L20 30L19 30L19 29L22 29L22 28L21 28L21 27L22 27L22 26L24 26L24 27L23 27L23 29L24 29L24 30L23 30L23 31L22 31L22 30L21 30L21 31L22 31L22 32L23 32L23 31L24 31L24 33L23 33L23 35L22 35L22 33L21 33L21 36L23 36L23 37L24 37L24 38L23 38L23 39L24 39L24 41L23 41L23 42L24 42L24 43L25 43L25 39L26 39L26 40L27 40L27 41L26 41L26 42L27 42L27 41L28 41L28 40L29 40L29 39L31 39L31 40L30 40L30 41L31 41L31 42L30 42L30 43L32 43L32 44L34 44L34 42L33 42L33 41L34 41L34 40L33 40L33 39L35 39L35 38L38 38L38 35L40 35L40 36L39 36L39 38L40 38L40 36L43 36L43 37L41 37L41 38L43 38L43 37L44 37L44 38L45 38L45 37L44 37L44 34L45 34L45 35L46 35L46 36L48 36L48 33L47 33L47 32L48 32L48 31L47 31L47 30L46 30L46 31L47 31L47 32L45 32L45 31L42 31L42 30L36 30L36 29L38 29L38 28L35 28L35 26L36 26L36 25L37 25L37 26L38 26L38 27L40 27L40 28L41 28L41 27L40 27L40 26L44 26L44 27L45 27L45 26L44 26L44 24L43 24L43 21L42 21L42 20L45 20L45 21L44 21L44 23L46 23L46 24L45 24L45 25L46 25L46 24L47 24L47 25L48 25L48 24L50 24L50 23L48 23L48 24L47 24L47 23L46 23L46 22L45 22L45 21L48 21L48 20L46 20L46 19L47 19L47 18L45 18L45 17L44 17L44 16L43 16L43 15L42 15L42 14L41 14L41 15L40 15L40 16L39 16L39 15L38 15L38 16L36 16L36 13L37 13L37 14L38 14L38 12L40 12L40 11L42 11L42 10L43 10L43 9L41 9L41 10L40 10L40 9L39 9L39 11L36 11L36 12L34 12L34 11L35 11L35 10L33 10L33 9L37 9L37 10L38 10L38 9L37 9L37 8L40 8L40 7L41 7L41 6L40 6L40 7L39 7L39 6L38 6L38 7L37 7L37 6L36 6L36 5L35 5L35 6L34 6L34 5ZM28 6L28 7L29 7L29 6ZM33 6L33 7L34 7L34 6ZM35 6L35 7L36 7L36 6ZM48 6L48 7L49 7L49 6ZM49 8L49 9L47 9L47 11L48 11L48 12L50 12L50 11L51 11L51 10L50 10L50 8ZM51 8L51 9L52 9L52 8ZM53 8L53 9L54 9L54 8ZM55 8L55 10L57 10L57 9L56 9L56 8ZM2 9L2 10L3 10L3 9ZM6 9L6 10L4 10L4 12L5 12L5 14L7 14L7 13L6 13L6 12L7 12L7 11L6 11L6 10L7 10L7 9ZM21 10L21 11L22 11L22 10ZM49 10L49 11L50 11L50 10ZM32 11L32 14L30 14L30 15L28 15L28 16L27 16L27 17L26 17L26 18L25 18L25 19L26 19L26 21L29 21L29 20L30 20L30 19L32 19L32 18L33 18L33 20L32 20L32 21L33 21L33 20L35 20L35 21L34 21L34 22L33 22L33 23L31 23L31 22L27 22L27 23L29 23L29 24L25 24L25 23L26 23L26 22L25 22L25 21L24 21L24 22L22 22L22 21L21 21L21 20L20 20L20 21L18 21L18 22L17 22L17 23L18 23L18 24L21 24L21 23L22 23L22 25L20 25L20 26L22 26L22 25L24 25L24 24L25 24L25 26L26 26L26 25L28 25L28 26L30 26L30 25L29 25L29 24L32 24L32 26L31 26L31 28L32 28L32 29L33 29L33 30L35 30L35 29L33 29L33 28L34 28L34 26L35 26L35 24L36 24L36 22L37 22L37 21L36 21L36 20L37 20L37 19L38 19L38 18L39 18L39 20L38 20L38 24L40 24L40 25L38 25L38 26L40 26L40 25L41 25L41 24L42 24L42 22L40 22L40 23L39 23L39 20L40 20L40 21L41 21L41 20L42 20L42 19L43 19L43 18L44 18L44 19L45 19L45 18L44 18L44 17L43 17L43 16L42 16L42 17L43 17L43 18L41 18L41 16L40 16L40 18L39 18L39 16L38 16L38 18L37 18L37 19L34 19L34 18L36 18L36 16L35 16L35 15L33 15L33 16L30 16L30 15L32 15L32 14L35 14L35 13L33 13L33 11ZM1 12L1 13L0 13L0 17L1 17L1 14L2 14L2 12ZM15 13L15 16L16 16L16 17L17 17L17 15L16 15L16 13ZM26 13L26 14L28 14L28 13ZM28 16L28 17L27 17L27 18L26 18L26 19L27 19L27 20L28 20L28 19L29 19L29 18L31 18L31 17L29 17L29 16ZM33 16L33 18L34 18L34 17L35 17L35 16ZM46 16L46 17L48 17L48 16ZM6 17L6 18L7 18L7 17ZM21 17L21 18L22 18L22 17ZM56 17L56 18L57 18L57 17ZM27 18L27 19L28 19L28 18ZM49 18L49 19L50 19L50 18ZM2 19L2 20L3 20L3 19ZM4 19L4 20L7 20L7 21L6 21L6 22L3 22L3 23L6 23L6 24L4 24L4 26L3 26L3 28L4 28L4 26L7 26L7 25L6 25L6 24L8 24L8 22L10 22L10 20L8 20L8 19ZM12 19L12 20L14 20L14 19ZM40 19L40 20L41 20L41 19ZM7 21L7 22L6 22L6 23L7 23L7 22L8 22L8 21ZM18 22L18 23L20 23L20 22ZM34 22L34 24L35 24L35 22ZM54 22L54 23L55 23L55 22ZM23 23L23 24L24 24L24 23ZM40 23L40 24L41 24L41 23ZM0 24L0 25L1 25L1 24ZM33 25L33 26L34 26L34 25ZM46 26L46 27L47 27L47 26ZM5 27L5 30L8 30L8 27ZM12 27L12 28L13 28L13 27ZM24 27L24 29L25 29L25 30L26 30L26 27ZM27 27L27 30L30 30L30 27ZM32 27L32 28L33 28L33 27ZM42 27L42 28L43 28L43 27ZM49 27L49 30L52 30L52 27ZM6 28L6 29L7 29L7 28ZM15 28L15 29L16 29L16 28ZM28 28L28 29L29 29L29 28ZM50 28L50 29L51 29L51 28ZM0 29L0 30L2 30L2 29ZM25 31L25 32L26 32L26 33L25 33L25 34L24 34L24 36L25 36L25 38L26 38L26 39L27 39L27 40L28 40L28 39L29 39L29 36L30 36L30 38L31 38L31 39L33 39L33 38L35 38L35 37L36 37L36 36L37 36L37 35L38 35L38 34L39 34L39 33L40 33L40 34L42 34L42 35L43 35L43 34L42 34L42 33L41 33L41 32L39 32L39 31L35 31L35 32L34 32L34 33L33 33L33 32L31 32L31 31L30 31L30 32L29 32L29 31L28 31L28 32L29 32L29 33L27 33L27 31ZM6 32L6 33L8 33L8 32ZM30 32L30 33L29 33L29 34L30 34L30 35L31 35L31 38L32 38L32 35L31 35L31 34L33 34L33 36L34 36L34 37L35 37L35 36L34 36L34 35L35 35L35 34L33 34L33 33L31 33L31 32ZM35 32L35 33L36 33L36 34L38 34L38 32ZM43 32L43 33L45 33L45 34L47 34L47 33L45 33L45 32ZM51 32L51 33L53 33L53 32ZM9 33L9 34L10 34L10 35L11 35L11 34L10 34L10 33ZM30 33L30 34L31 34L31 33ZM25 34L25 35L27 35L27 34ZM17 35L17 36L18 36L18 35ZM56 35L56 36L57 36L57 35ZM26 36L26 38L28 38L28 36ZM15 37L15 38L16 38L16 37ZM0 38L0 40L1 40L1 38ZM15 39L15 41L16 41L16 39ZM38 39L38 40L35 40L35 44L36 44L36 46L37 46L37 47L39 47L39 46L37 46L37 44L36 44L36 43L39 43L39 44L38 44L38 45L39 45L39 44L43 44L43 45L42 45L42 46L44 46L44 44L43 44L43 43L44 43L44 42L43 42L43 41L44 41L44 40L43 40L43 39L42 39L42 40L41 40L41 39ZM7 40L7 41L5 41L5 42L3 42L3 43L4 43L4 44L7 44L7 45L5 45L5 46L7 46L7 47L8 47L8 49L9 49L9 47L8 47L8 45L9 45L9 44L10 44L10 43L11 43L11 42L10 42L10 41L11 41L11 40L9 40L9 41L8 41L8 40ZM32 40L32 41L33 41L33 40ZM39 40L39 41L38 41L38 42L41 42L41 40ZM7 41L7 42L5 42L5 43L7 43L7 42L8 42L8 41ZM21 41L21 42L22 42L22 41ZM45 41L45 42L46 42L46 41ZM9 42L9 43L10 43L10 42ZM32 42L32 43L33 43L33 42ZM11 44L11 45L10 45L10 46L11 46L11 48L10 48L10 51L11 51L11 53L12 53L12 52L13 52L13 51L14 51L14 52L15 52L15 51L14 51L14 48L13 48L13 46L14 46L14 44L13 44L13 45L12 45L12 44ZM25 44L25 45L24 45L24 46L25 46L25 45L26 45L26 44ZM21 45L21 46L22 46L22 48L24 48L24 49L23 49L23 51L22 51L22 52L23 52L23 51L24 51L24 50L25 50L25 47L23 47L23 46L22 46L22 45ZM40 45L40 46L41 46L41 45ZM18 47L18 49L19 49L19 47ZM27 47L27 48L30 48L30 47ZM56 47L56 48L57 48L57 47ZM11 48L11 51L12 51L12 48ZM36 48L36 49L37 49L37 48ZM27 49L27 52L30 52L30 49ZM42 49L42 50L41 50L41 51L40 51L40 52L42 52L42 50L43 50L43 49ZM49 49L49 52L52 52L52 49ZM56 49L56 50L57 50L57 49ZM28 50L28 51L29 51L29 50ZM50 50L50 51L51 51L51 50ZM19 51L19 52L20 52L20 51ZM31 51L31 52L32 52L32 51ZM56 52L56 53L57 53L57 52ZM9 53L9 54L10 54L10 53ZM49 53L49 55L50 55L50 56L51 56L51 55L50 55L50 54L51 54L51 53ZM17 55L17 56L18 56L18 55ZM25 55L25 56L28 56L28 55ZM45 55L45 57L46 57L46 55ZM14 56L14 57L15 57L15 56ZM38 56L38 57L39 57L39 56ZM0 0L0 7L7 7L7 0ZM1 1L1 6L6 6L6 1ZM2 2L2 5L5 5L5 2ZM50 0L50 7L57 7L57 0ZM51 1L51 6L56 6L56 1ZM52 2L52 5L55 5L55 2ZM0 50L0 57L7 57L7 50ZM1 51L1 56L6 56L6 51ZM2 52L2 55L5 55L5 52Z" fill="#000000"/></g></g></svg>
