<?xml version="1.0" encoding="UTF-8"?>
<svg xmlns="http://www.w3.org/2000/svg" version="1.1" width="300" height="300" viewBox="0 0 300 300"><rect x="0" y="0" width="300" height="300" fill="#ffffff"/><g transform="scale(4.918)"><g transform="translate(2,2)"><path fill-rule="evenodd" d="M9 0L9 1L8 1L8 2L9 2L9 3L8 3L8 4L9 4L9 5L8 5L8 7L9 7L9 8L6 8L6 9L5 9L5 8L0 8L0 12L1 12L1 13L2 13L2 15L4 15L4 13L7 13L7 14L5 14L5 15L7 15L7 14L10 14L10 13L11 13L11 15L12 15L12 16L13 16L13 18L15 18L15 21L16 21L16 22L15 22L15 23L16 23L16 24L17 24L17 26L16 26L16 27L15 27L15 29L14 29L14 30L15 30L15 29L18 29L18 30L20 30L20 29L22 29L22 28L20 28L20 29L18 29L18 28L16 28L16 27L18 27L18 26L19 26L19 27L20 27L20 25L21 25L21 27L22 27L22 25L21 25L21 24L20 24L20 25L19 25L19 24L17 24L17 21L16 21L16 19L18 19L18 21L20 21L20 20L19 20L19 19L21 19L21 21L22 21L22 22L24 22L24 21L25 21L25 22L26 22L26 23L25 23L25 24L27 24L27 25L26 25L26 26L25 26L25 25L24 25L24 23L23 23L23 26L25 26L25 27L24 27L24 28L23 28L23 29L24 29L24 30L22 30L22 31L20 31L20 32L18 32L18 33L19 33L19 34L18 34L18 35L20 35L20 33L21 33L21 35L22 35L22 36L21 36L21 37L19 37L19 36L17 36L17 39L18 39L18 40L17 40L17 42L18 42L18 43L17 43L17 44L16 44L16 42L14 42L14 43L12 43L12 44L10 44L10 46L11 46L11 47L9 47L9 46L5 46L5 45L7 45L7 44L6 44L6 43L9 43L9 42L8 42L8 40L11 40L11 41L12 41L12 42L13 42L13 41L12 41L12 39L13 39L13 40L14 40L14 41L15 41L15 40L16 40L16 39L15 39L15 40L14 40L14 38L11 38L11 39L9 39L9 37L10 37L10 36L11 36L11 37L14 37L14 36L15 36L15 35L17 35L17 34L14 34L14 33L11 33L11 32L12 32L12 31L13 31L13 29L10 29L10 28L13 28L13 26L12 26L12 25L11 25L11 24L13 24L13 25L14 25L14 21L13 21L13 20L14 20L14 19L13 19L13 20L12 20L12 19L11 19L11 18L12 18L12 17L11 17L11 18L10 18L10 16L9 16L9 15L8 15L8 16L5 16L5 17L8 17L8 18L5 18L5 19L8 19L8 20L6 20L6 21L4 21L4 18L3 18L3 17L4 17L4 16L1 16L1 18L0 18L0 19L1 19L1 18L3 18L3 19L2 19L2 20L0 20L0 23L1 23L1 24L2 24L2 26L1 26L1 25L0 25L0 26L1 26L1 28L2 28L2 29L1 29L1 30L4 30L4 31L2 31L2 32L1 32L1 31L0 31L0 33L1 33L1 34L0 34L0 36L2 36L2 38L1 38L1 39L0 39L0 40L2 40L2 41L1 41L1 42L0 42L0 44L3 44L3 45L2 45L2 47L1 47L1 45L0 45L0 48L5 48L5 47L8 47L8 48L9 48L9 49L8 49L8 51L10 51L10 53L9 53L9 52L8 52L8 57L9 57L9 54L10 54L10 53L11 53L11 55L12 55L12 54L13 54L13 55L14 55L14 57L15 57L15 55L16 55L16 56L17 56L17 57L19 57L19 56L17 56L17 55L20 55L20 54L17 54L17 53L20 53L20 52L21 52L21 53L22 53L22 54L21 54L21 55L23 55L23 56L24 56L24 55L23 55L23 54L24 54L24 53L25 53L25 54L26 54L26 55L27 55L27 56L28 56L28 55L27 55L27 53L28 53L28 54L30 54L30 53L31 53L31 55L34 55L34 56L30 56L30 55L29 55L29 56L30 56L30 57L37 57L37 55L36 55L36 56L35 56L35 55L34 55L34 54L32 54L32 52L33 52L33 53L35 53L35 54L38 54L38 52L36 52L36 51L40 51L40 52L39 52L39 56L38 56L38 57L39 57L39 56L42 56L42 57L44 57L44 56L45 56L45 55L46 55L46 54L45 54L45 53L44 53L44 50L46 50L46 51L45 51L45 52L48 52L48 53L51 53L51 54L48 54L48 56L46 56L46 57L48 57L48 56L50 56L50 55L51 55L51 57L52 57L52 56L53 56L53 57L54 57L54 56L55 56L55 57L56 57L56 56L55 56L55 53L56 53L56 50L57 50L57 49L56 49L56 48L55 48L55 47L56 47L56 46L57 46L57 45L56 45L56 44L55 44L55 43L56 43L56 42L57 42L57 41L54 41L54 40L55 40L55 39L57 39L57 37L56 37L56 36L55 36L55 35L56 35L56 34L57 34L57 33L56 33L56 30L57 30L57 28L56 28L56 27L53 27L53 26L50 26L50 25L48 25L48 24L50 24L50 23L51 23L51 22L50 22L50 19L51 19L51 20L52 20L52 19L54 19L54 20L55 20L55 21L54 21L54 22L55 22L55 23L54 23L54 24L53 24L53 22L52 22L52 24L51 24L51 25L52 25L52 24L53 24L53 25L54 25L54 26L55 26L55 25L56 25L56 26L57 26L57 23L56 23L56 22L57 22L57 21L56 21L56 20L55 20L55 18L57 18L57 17L54 17L54 16L55 16L55 15L56 15L56 16L57 16L57 15L56 15L56 14L57 14L57 11L56 11L56 10L55 10L55 11L54 11L54 10L53 10L53 9L54 9L54 8L53 8L53 9L52 9L52 8L51 8L51 9L52 9L52 10L53 10L53 11L52 11L52 12L53 12L53 11L54 11L54 12L56 12L56 14L55 14L55 13L53 13L53 15L50 15L50 11L51 11L51 10L49 10L49 9L50 9L50 8L49 8L49 6L48 6L48 8L49 8L49 9L47 9L47 10L49 10L49 11L47 11L47 12L49 12L49 13L47 13L47 14L46 14L46 12L45 12L45 13L44 13L44 10L45 10L45 9L46 9L46 8L45 8L45 6L46 6L46 7L47 7L47 5L48 5L48 0L45 0L45 1L47 1L47 2L43 2L43 3L47 3L47 5L45 5L45 4L44 4L44 5L45 5L45 6L44 6L44 8L42 8L42 7L43 7L43 6L42 6L42 5L43 5L43 4L42 4L42 5L40 5L40 3L41 3L41 2L39 2L39 1L36 1L36 0L35 0L35 1L34 1L34 0L33 0L33 1L34 1L34 2L32 2L32 1L31 1L31 0L30 0L30 1L29 1L29 0L28 0L28 1L29 1L29 2L27 2L27 1L26 1L26 0L24 0L24 1L23 1L23 0L21 0L21 1L23 1L23 2L22 2L22 3L23 3L23 4L19 4L19 3L18 3L18 4L19 4L19 5L20 5L20 7L19 7L19 6L18 6L18 7L17 7L17 6L16 6L16 7L15 7L15 5L16 5L16 4L14 4L14 2L12 2L12 1L16 1L16 2L15 2L15 3L16 3L16 2L17 2L17 1L16 1L16 0L12 0L12 1L11 1L11 2L12 2L12 5L14 5L14 7L13 7L13 6L12 6L12 7L13 7L13 10L12 10L12 8L11 8L11 6L10 6L10 7L9 7L9 5L10 5L10 4L9 4L9 3L10 3L10 2L9 2L9 1L10 1L10 0ZM40 0L40 1L43 1L43 0ZM18 1L18 2L19 2L19 1ZM24 1L24 2L23 2L23 3L24 3L24 2L25 2L25 3L26 3L26 4L25 4L25 8L24 8L24 6L23 6L23 5L24 5L24 4L23 4L23 5L22 5L22 6L21 6L21 7L22 7L22 6L23 6L23 8L20 8L20 10L19 10L19 11L22 11L22 10L21 10L21 9L25 9L25 12L24 12L24 10L23 10L23 12L24 12L24 13L22 13L22 12L21 12L21 13L20 13L20 12L19 12L19 15L18 15L18 14L17 14L17 13L18 13L18 12L17 12L17 11L18 11L18 9L16 9L16 10L15 10L15 12L17 12L17 13L13 13L13 12L14 12L14 11L12 11L12 10L11 10L11 11L10 11L10 10L9 10L9 9L8 9L8 11L6 11L6 12L8 12L8 13L10 13L10 12L11 12L11 13L12 13L12 15L13 15L13 16L14 16L14 17L16 17L16 18L17 18L17 17L18 17L18 19L19 19L19 17L20 17L20 18L21 18L21 19L23 19L23 18L21 18L21 17L20 17L20 16L21 16L21 13L22 13L22 15L23 15L23 16L22 16L22 17L23 17L23 16L24 16L24 17L25 17L25 18L24 18L24 20L22 20L22 21L24 21L24 20L25 20L25 21L27 21L27 22L29 22L29 23L31 23L31 24L28 24L28 23L27 23L27 24L28 24L28 26L29 26L29 25L31 25L31 26L32 26L32 25L31 25L31 24L33 24L33 23L31 23L31 22L29 22L29 20L30 20L30 19L33 19L33 20L32 20L32 21L33 21L33 22L35 22L35 23L34 23L34 24L35 24L35 23L36 23L36 22L37 22L37 25L33 25L33 28L32 28L32 27L31 27L31 28L32 28L32 29L31 29L31 31L33 31L33 32L31 32L31 33L32 33L32 34L31 34L31 35L32 35L32 38L31 38L31 36L30 36L30 38L31 38L31 39L29 39L29 35L30 35L30 34L29 34L29 33L30 33L30 31L25 31L25 30L26 30L26 27L25 27L25 28L24 28L24 29L25 29L25 30L24 30L24 31L22 31L22 33L25 33L25 34L26 34L26 35L25 35L25 38L26 38L26 39L25 39L25 42L23 42L23 43L25 43L25 44L23 44L23 45L22 45L22 44L21 44L21 43L22 43L22 42L21 42L21 41L24 41L24 39L23 39L23 38L24 38L24 37L23 37L23 36L24 36L24 35L23 35L23 34L22 34L22 35L23 35L23 36L22 36L22 37L21 37L21 38L22 38L22 39L21 39L21 40L19 40L19 41L20 41L20 44L21 44L21 45L19 45L19 46L21 46L21 45L22 45L22 47L23 47L23 48L21 48L21 47L20 47L20 48L19 48L19 47L18 47L18 46L17 46L17 45L18 45L18 44L17 44L17 45L15 45L15 47L13 47L13 46L14 46L14 44L12 44L12 47L11 47L11 48L10 48L10 49L12 49L12 48L15 48L15 47L17 47L17 48L19 48L19 49L13 49L13 51L15 51L15 52L16 52L16 53L15 53L15 54L14 54L14 53L13 53L13 52L12 52L12 51L11 51L11 53L13 53L13 54L14 54L14 55L15 55L15 54L16 54L16 53L17 53L17 51L18 51L18 52L20 52L20 51L23 51L23 52L22 52L22 53L24 53L24 51L25 51L25 53L26 53L26 51L25 51L25 50L24 50L24 51L23 51L23 50L21 50L21 49L25 49L25 48L26 48L26 47L25 47L25 48L24 48L24 47L23 47L23 45L25 45L25 46L27 46L27 47L28 47L28 48L29 48L29 46L30 46L30 45L31 45L31 43L33 43L33 41L34 41L34 44L32 44L32 46L31 46L31 48L32 48L32 51L31 51L31 52L32 52L32 51L33 51L33 50L35 50L35 51L34 51L34 52L35 52L35 53L36 53L36 52L35 52L35 51L36 51L36 49L34 49L34 48L37 48L37 50L40 50L40 51L41 51L41 52L40 52L40 55L41 55L41 52L43 52L43 50L42 50L42 49L45 49L45 48L47 48L47 49L46 49L46 50L47 50L47 51L48 51L48 48L49 48L49 47L52 47L52 48L54 48L54 49L53 49L53 53L55 53L55 52L54 52L54 51L55 51L55 50L56 50L56 49L55 49L55 48L54 48L54 46L55 46L55 44L54 44L54 45L52 45L52 44L53 44L53 43L54 43L54 41L53 41L53 40L54 40L54 39L55 39L55 38L56 38L56 37L55 37L55 36L54 36L54 35L55 35L55 34L56 34L56 33L55 33L55 32L54 32L54 29L56 29L56 28L54 28L54 29L53 29L53 32L54 32L54 33L51 33L51 32L50 32L50 31L48 31L48 29L46 29L46 30L45 30L45 28L44 28L44 27L45 27L45 26L46 26L46 28L47 28L47 27L48 27L48 25L45 25L45 23L47 23L47 24L48 24L48 23L50 23L50 22L47 22L47 20L46 20L46 18L47 18L47 17L46 17L46 18L44 18L44 17L45 17L45 16L48 16L48 17L49 17L49 18L51 18L51 19L52 19L52 18L51 18L51 17L53 17L53 16L54 16L54 15L53 15L53 16L50 16L50 17L49 17L49 15L45 15L45 16L40 16L40 15L41 15L41 14L42 14L42 15L44 15L44 13L43 13L43 14L42 14L42 10L41 10L41 8L40 8L40 6L39 6L39 7L38 7L38 6L37 6L37 5L39 5L39 2L36 2L36 1L35 1L35 2L34 2L34 3L32 3L32 4L31 4L31 3L27 3L27 2L26 2L26 1ZM30 1L30 2L31 2L31 1ZM20 2L20 3L21 3L21 2ZM34 3L34 4L35 4L35 3ZM36 3L36 5L34 5L34 8L36 8L36 9L35 9L35 10L34 10L34 9L33 9L33 11L32 11L32 12L31 12L31 13L32 13L32 14L33 14L33 15L32 15L32 16L31 16L31 14L30 14L30 13L28 13L28 12L30 12L30 11L31 11L31 10L32 10L32 9L31 9L31 8L32 8L32 7L33 7L33 6L32 6L32 7L31 7L31 4L26 4L26 8L25 8L25 9L27 9L27 10L26 10L26 11L27 11L27 12L25 12L25 13L24 13L24 14L23 14L23 15L24 15L24 16L26 16L26 17L27 17L27 18L26 18L26 19L25 19L25 20L26 20L26 19L27 19L27 20L28 20L28 19L29 19L29 18L31 18L31 17L32 17L32 16L34 16L34 17L33 17L33 18L34 18L34 19L35 19L35 18L36 18L36 19L37 19L37 20L36 20L36 21L37 21L37 22L38 22L38 23L40 23L40 22L43 22L43 20L45 20L45 21L44 21L44 23L43 23L43 25L40 25L40 26L42 26L42 28L43 28L43 29L42 29L42 30L41 30L41 29L40 29L40 30L37 30L37 29L38 29L38 28L39 28L39 27L38 27L38 25L39 25L39 24L38 24L38 25L37 25L37 26L36 26L36 27L35 27L35 26L34 26L34 28L33 28L33 29L35 29L35 30L33 30L33 31L35 31L35 30L36 30L36 31L38 31L38 32L39 32L39 34L38 34L38 33L37 33L37 32L33 32L33 33L35 33L35 34L33 34L33 36L34 36L34 37L35 37L35 35L37 35L37 36L36 36L36 39L34 39L34 40L35 40L35 45L39 45L39 44L38 44L38 41L39 41L39 39L40 39L40 38L38 38L38 37L40 37L40 36L41 36L41 38L43 38L43 37L44 37L44 38L45 38L45 37L44 37L44 34L45 34L45 35L50 35L50 32L49 32L49 34L48 34L48 33L47 33L47 34L45 34L45 33L46 33L46 32L48 32L48 31L47 31L47 30L46 30L46 31L44 31L44 28L43 28L43 27L44 27L44 26L43 26L43 25L44 25L44 23L45 23L45 21L46 21L46 20L45 20L45 19L44 19L44 18L43 18L43 17L41 17L41 18L43 18L43 20L42 20L42 21L40 21L40 20L41 20L41 19L40 19L40 20L39 20L39 22L38 22L38 19L39 19L39 18L40 18L40 16L39 16L39 18L37 18L37 16L34 16L34 15L35 15L35 14L36 14L36 15L39 15L39 14L37 14L37 13L38 13L38 12L39 12L39 11L40 11L40 12L41 12L41 10L40 10L40 9L39 9L39 8L38 8L38 7L37 7L37 6L36 6L36 5L37 5L37 4L38 4L38 3ZM27 5L27 8L30 8L30 5ZM28 6L28 7L29 7L29 6ZM35 6L35 7L36 7L36 8L37 8L37 9L38 9L38 10L37 10L37 11L34 11L34 12L37 12L37 11L38 11L38 10L39 10L39 9L38 9L38 8L37 8L37 7L36 7L36 6ZM41 6L41 7L42 7L42 6ZM16 7L16 8L17 8L17 7ZM14 8L14 9L15 9L15 8ZM44 8L44 9L43 9L43 10L44 10L44 9L45 9L45 8ZM55 8L55 9L56 9L56 8ZM1 9L1 10L2 10L2 9ZM3 9L3 11L4 11L4 12L3 12L3 13L4 13L4 12L5 12L5 9ZM6 9L6 10L7 10L7 9ZM16 10L16 11L17 11L17 10ZM27 10L27 11L30 11L30 10ZM1 11L1 12L2 12L2 11ZM8 11L8 12L9 12L9 11ZM32 12L32 13L33 13L33 14L35 14L35 13L33 13L33 12ZM26 13L26 14L24 14L24 15L26 15L26 16L27 16L27 17L28 17L28 16L29 16L29 17L31 17L31 16L30 16L30 14L29 14L29 15L28 15L28 16L27 16L27 15L26 15L26 14L28 14L28 13ZM40 13L40 14L41 14L41 13ZM51 13L51 14L52 14L52 13ZM0 14L0 15L1 15L1 14ZM13 14L13 15L14 15L14 14ZM15 14L15 15L16 15L16 17L17 17L17 14ZM19 15L19 16L18 16L18 17L19 17L19 16L20 16L20 15ZM34 17L34 18L35 18L35 17ZM9 18L9 20L11 20L11 19L10 19L10 18ZM27 18L27 19L28 19L28 18ZM2 20L2 21L1 21L1 22L2 22L2 23L3 23L3 22L2 22L2 21L3 21L3 20ZM48 20L48 21L49 21L49 20ZM6 21L6 22L5 22L5 23L6 23L6 24L5 24L5 25L6 25L6 26L8 26L8 25L6 25L6 24L7 24L7 23L8 23L8 21ZM9 21L9 24L11 24L11 23L13 23L13 22L12 22L12 21L11 21L11 23L10 23L10 21ZM6 22L6 23L7 23L7 22ZM19 22L19 23L20 23L20 22ZM54 24L54 25L55 25L55 24ZM9 25L9 27L11 27L11 26L10 26L10 25ZM3 27L3 29L4 29L4 27ZM5 27L5 30L8 30L8 27ZM27 27L27 30L30 30L30 27ZM36 27L36 28L35 28L35 29L36 29L36 28L38 28L38 27ZM49 27L49 30L52 30L52 27ZM6 28L6 29L7 29L7 28ZM28 28L28 29L29 29L29 28ZM50 28L50 29L51 29L51 28ZM9 29L9 31L4 31L4 35L3 35L3 36L4 36L4 35L5 35L5 36L7 36L7 35L8 35L8 37L9 37L9 36L10 36L10 32L11 32L11 30L10 30L10 29ZM16 30L16 31L17 31L17 30ZM40 30L40 31L39 31L39 32L40 32L40 35L38 35L38 34L37 34L37 35L38 35L38 36L37 36L37 37L38 37L38 36L40 36L40 35L41 35L41 34L42 34L42 36L43 36L43 34L44 34L44 33L45 33L45 32L42 32L42 31L43 31L43 30L42 30L42 31L41 31L41 30ZM9 31L9 32L10 32L10 31ZM24 31L24 32L25 32L25 33L29 33L29 32L25 32L25 31ZM40 31L40 32L41 32L41 31ZM6 32L6 33L5 33L5 34L6 34L6 35L7 35L7 34L8 34L8 35L9 35L9 33L7 33L7 32ZM15 32L15 33L17 33L17 32ZM6 33L6 34L7 34L7 33ZM42 33L42 34L43 34L43 33ZM54 33L54 34L55 34L55 33ZM1 34L1 35L2 35L2 34ZM11 34L11 35L12 35L12 36L13 36L13 34ZM52 34L52 36L51 36L51 37L50 37L50 36L49 36L49 37L50 37L50 38L48 38L48 37L47 37L47 36L46 36L46 37L47 37L47 38L46 38L46 39L45 39L45 40L46 40L46 41L47 41L47 40L46 40L46 39L49 39L49 40L50 40L50 38L51 38L51 41L48 41L48 42L45 42L45 41L44 41L44 39L43 39L43 40L42 40L42 39L41 39L41 40L42 40L42 41L41 41L41 42L42 42L42 43L40 43L40 44L43 44L43 45L42 45L42 46L41 46L41 47L40 47L40 46L32 46L32 48L34 48L34 47L37 47L37 48L38 48L38 49L40 49L40 50L41 50L41 51L42 51L42 50L41 50L41 49L42 49L42 48L45 48L45 47L48 47L48 46L49 46L49 45L50 45L50 44L52 44L52 43L53 43L53 42L51 42L51 41L52 41L52 40L53 40L53 39L54 39L54 38L55 38L55 37L54 37L54 36L53 36L53 34ZM26 35L26 38L28 38L28 37L27 37L27 35ZM52 36L52 37L51 37L51 38L52 38L52 39L53 39L53 38L54 38L54 37L53 37L53 36ZM5 37L5 38L3 38L3 39L2 39L2 40L4 40L4 41L2 41L2 42L1 42L1 43L2 43L2 42L5 42L5 41L6 41L6 42L7 42L7 41L6 41L6 40L7 40L7 39L8 39L8 38L7 38L7 37ZM15 37L15 38L16 38L16 37ZM18 37L18 38L19 38L19 39L20 39L20 38L19 38L19 37ZM22 37L22 38L23 38L23 37ZM6 38L6 39L4 39L4 40L6 40L6 39L7 39L7 38ZM26 39L26 40L27 40L27 41L26 41L26 42L27 42L27 41L28 41L28 39ZM31 39L31 40L29 40L29 41L30 41L30 43L29 43L29 44L28 44L28 43L26 43L26 44L25 44L25 45L26 45L26 44L27 44L27 45L30 45L30 43L31 43L31 42L32 42L32 41L31 41L31 40L32 40L32 39ZM36 39L36 40L37 40L37 41L36 41L36 42L37 42L37 41L38 41L38 39ZM43 41L43 44L44 44L44 46L42 46L42 47L44 47L44 46L45 46L45 42L44 42L44 41ZM50 42L50 43L51 43L51 42ZM3 43L3 44L4 44L4 43ZM36 43L36 44L37 44L37 43ZM48 43L48 44L47 44L47 45L46 45L46 46L48 46L48 44L49 44L49 43ZM8 44L8 45L9 45L9 44ZM51 45L51 46L52 46L52 47L53 47L53 46L52 46L52 45ZM3 46L3 47L5 47L5 46ZM38 47L38 48L40 48L40 49L41 49L41 48L40 48L40 47ZM6 48L6 49L7 49L7 48ZM20 48L20 49L19 49L19 50L18 50L18 51L19 51L19 50L20 50L20 49L21 49L21 48ZM27 49L27 52L30 52L30 49ZM49 49L49 52L52 52L52 49ZM15 50L15 51L16 51L16 50ZM28 50L28 51L29 51L29 50ZM50 50L50 51L51 51L51 50ZM43 53L43 55L42 55L42 56L43 56L43 55L45 55L45 54L44 54L44 53ZM51 54L51 55L53 55L53 56L54 56L54 54ZM10 56L10 57L11 57L11 56ZM12 56L12 57L13 57L13 56ZM25 56L25 57L26 57L26 56ZM0 0L0 7L7 7L7 0ZM1 1L1 6L6 6L6 1ZM2 2L2 5L5 5L5 2ZM50 0L50 7L57 7L57 0ZM51 1L51 6L56 6L56 1ZM52 2L52 5L55 5L55 2ZM0 50L0 57L7 57L7 50ZM1 51L1 56L6 56L6 51ZM2 52L2 55L5 55L5 52Z" fill="#000000"/></g></g></svg>
