<?xml version="1.0" encoding="UTF-8"?>
<svg xmlns="http://www.w3.org/2000/svg" version="1.1" width="300" height="300" viewBox="0 0 300 300"><rect x="0" y="0" width="300" height="300" fill="#ffffff"/><g transform="scale(4.918)"><g transform="translate(2,2)"><path fill-rule="evenodd" d="M10 0L10 1L8 1L8 2L10 2L10 1L11 1L11 0ZM14 0L14 1L15 1L15 2L13 2L13 3L12 3L12 2L11 2L11 3L8 3L8 4L11 4L11 3L12 3L12 4L14 4L14 5L10 5L10 7L9 7L9 5L8 5L8 7L9 7L9 8L6 8L6 9L7 9L7 10L6 10L6 11L3 11L3 12L6 12L6 13L2 13L2 12L0 12L0 13L1 13L1 14L0 14L0 15L1 15L1 14L3 14L3 17L2 17L2 16L1 16L1 17L2 17L2 18L4 18L4 19L5 19L5 17L7 17L7 18L6 18L6 19L7 19L7 20L6 20L6 21L8 21L8 23L10 23L10 24L11 24L11 25L12 25L12 27L11 27L11 28L12 28L12 29L10 29L10 26L8 26L8 25L9 25L9 24L8 24L8 25L7 25L7 24L6 24L6 23L7 23L7 22L6 22L6 23L5 23L5 21L4 21L4 20L3 20L3 19L2 19L2 20L1 20L1 19L0 19L0 24L2 24L2 26L1 26L1 25L0 25L0 26L1 26L1 27L0 27L0 28L1 28L1 29L0 29L0 30L1 30L1 29L2 29L2 30L3 30L3 33L2 33L2 32L1 32L1 31L0 31L0 33L1 33L1 34L0 34L0 35L1 35L1 36L0 36L0 38L3 38L3 36L4 36L4 38L5 38L5 36L6 36L6 37L7 37L7 38L6 38L6 39L3 39L3 40L2 40L2 41L4 41L4 40L5 40L5 42L6 42L6 43L5 43L5 44L4 44L4 43L3 43L3 44L2 44L2 43L1 43L1 40L0 40L0 43L1 43L1 45L3 45L3 46L2 46L2 47L1 47L1 46L0 46L0 48L5 48L5 47L7 47L7 46L8 46L8 45L9 45L9 47L10 47L10 48L6 48L6 49L8 49L8 51L9 51L9 52L8 52L8 57L9 57L9 55L10 55L10 54L11 54L11 55L14 55L14 56L15 56L15 57L16 57L16 56L17 56L17 57L22 57L22 55L23 55L23 56L24 56L24 57L26 57L26 56L28 56L28 55L27 55L27 53L28 53L28 54L30 54L30 53L31 53L31 56L30 56L30 55L29 55L29 56L30 56L30 57L32 57L32 55L33 55L33 56L34 56L34 55L35 55L35 54L38 54L38 52L39 52L39 55L38 55L38 56L39 56L39 55L40 55L40 52L41 52L41 54L43 54L43 53L44 53L44 54L45 54L45 56L46 56L46 57L47 57L47 56L48 56L48 57L49 57L49 56L50 56L50 55L51 55L51 57L52 57L52 56L53 56L53 55L51 55L51 54L55 54L55 53L56 53L56 52L55 52L55 50L57 50L57 48L56 48L56 46L57 46L57 43L56 43L56 42L55 42L55 41L54 41L54 40L55 40L55 39L57 39L57 37L55 37L55 38L54 38L54 40L53 40L53 38L52 38L52 39L50 39L50 36L51 36L51 35L50 35L50 36L48 36L48 35L49 35L49 34L48 34L48 33L47 33L47 34L46 34L46 31L47 31L47 32L48 32L48 31L50 31L50 34L51 34L51 33L53 33L53 34L52 34L52 37L54 37L54 36L57 36L57 35L56 35L56 34L57 34L57 33L56 33L56 32L57 32L57 31L56 31L56 30L57 30L57 27L56 27L56 26L57 26L57 25L54 25L54 24L57 24L57 23L56 23L56 22L57 22L57 21L55 21L55 22L53 22L53 23L51 23L51 22L50 22L50 16L52 16L52 15L51 15L51 14L52 14L52 13L51 13L51 12L50 12L50 13L51 13L51 14L49 14L49 13L47 13L47 14L46 14L46 12L45 12L45 11L44 11L44 12L43 12L43 11L42 11L42 10L44 10L44 7L45 7L45 6L46 6L46 7L47 7L47 5L48 5L48 0L44 0L44 1L47 1L47 2L42 2L42 1L43 1L43 0L42 0L42 1L41 1L41 2L39 2L39 1L40 1L40 0L39 0L39 1L38 1L38 0L37 0L37 1L36 1L36 0L35 0L35 1L33 1L33 2L31 2L31 3L29 3L29 2L28 2L28 3L27 3L27 4L26 4L26 3L25 3L25 2L24 2L24 1L26 1L26 0L23 0L23 2L22 2L22 3L21 3L21 4L19 4L19 3L18 3L18 4L17 4L17 5L18 5L18 7L17 7L17 6L16 6L16 7L15 7L15 6L14 6L14 5L16 5L16 4L14 4L14 3L16 3L16 2L17 2L17 1L15 1L15 0ZM19 0L19 1L18 1L18 2L19 2L19 1L20 1L20 2L21 2L21 1L22 1L22 0L21 0L21 1L20 1L20 0ZM28 0L28 1L31 1L31 0ZM35 1L35 3L34 3L34 2L33 2L33 3L32 3L32 4L31 4L31 9L32 9L32 10L33 10L33 11L34 11L34 12L37 12L37 11L38 11L38 10L39 10L39 11L40 11L40 12L38 12L38 14L37 14L37 13L36 13L36 14L37 14L37 15L36 15L36 16L35 16L35 15L34 15L34 16L35 16L35 17L34 17L34 18L32 18L32 17L33 17L33 16L30 16L30 14L32 14L32 15L33 15L33 14L35 14L35 13L33 13L33 12L31 12L31 10L29 10L29 9L25 9L25 12L24 12L24 11L23 11L23 12L24 12L24 13L22 13L22 12L21 12L21 11L22 11L22 10L21 10L21 9L23 9L23 8L24 8L24 6L23 6L23 5L24 5L24 4L23 4L23 3L22 3L22 4L21 4L21 7L22 7L22 8L19 8L19 9L20 9L20 10L19 10L19 13L20 13L20 14L17 14L17 13L18 13L18 12L17 12L17 11L18 11L18 9L16 9L16 8L17 8L17 7L16 7L16 8L15 8L15 7L14 7L14 6L13 6L13 7L12 7L12 6L11 6L11 7L10 7L10 8L9 8L9 9L10 9L10 10L9 10L9 11L10 11L10 10L11 10L11 12L12 12L12 13L9 13L9 12L8 12L8 15L4 15L4 16L8 16L8 15L11 15L11 16L12 16L12 17L10 17L10 18L9 18L9 17L8 17L8 20L10 20L10 21L9 21L9 22L10 22L10 23L11 23L11 22L10 22L10 21L14 21L14 22L12 22L12 24L15 24L15 25L14 25L14 26L13 26L13 27L12 27L12 28L14 28L14 30L13 30L13 29L12 29L12 30L13 30L13 31L14 31L14 30L15 30L15 27L14 27L14 26L18 26L18 27L17 27L17 28L18 28L18 29L16 29L16 31L15 31L15 32L14 32L14 34L12 34L12 31L11 31L11 30L10 30L10 29L9 29L9 31L10 31L10 32L8 32L8 31L6 31L6 32L8 32L8 33L6 33L6 34L8 34L8 33L11 33L11 34L9 34L9 37L8 37L8 35L6 35L6 36L7 36L7 37L8 37L8 38L7 38L7 39L6 39L6 40L7 40L7 39L8 39L8 40L10 40L10 43L9 43L9 41L8 41L8 44L9 44L9 45L10 45L10 46L12 46L12 51L11 51L11 50L10 50L10 53L9 53L9 54L10 54L10 53L11 53L11 52L12 52L12 54L14 54L14 55L15 55L15 56L16 56L16 55L15 55L15 54L16 54L16 53L17 53L17 55L18 55L18 54L20 54L20 55L19 55L19 56L21 56L21 55L22 55L22 53L24 53L24 54L23 54L23 55L24 55L24 56L26 56L26 54L25 54L25 53L26 53L26 50L23 50L23 48L27 48L27 47L28 47L28 48L32 48L32 49L31 49L31 50L32 50L32 51L31 51L31 52L32 52L32 54L33 54L33 55L34 55L34 54L35 54L35 52L36 52L36 51L33 51L33 50L35 50L35 49L36 49L36 48L39 48L39 49L38 49L38 50L37 50L37 52L38 52L38 50L39 50L39 52L40 52L40 51L43 51L43 50L39 50L39 49L41 49L41 48L42 48L42 49L43 49L43 48L44 48L44 49L45 49L45 48L46 48L46 50L44 50L44 53L45 53L45 54L46 54L46 55L47 55L47 54L48 54L48 52L47 52L47 51L48 51L48 48L50 48L50 47L51 47L51 48L54 48L54 49L56 49L56 48L54 48L54 46L56 46L56 43L55 43L55 44L54 44L54 45L52 45L52 44L53 44L53 43L54 43L54 41L51 41L51 40L50 40L50 39L47 39L47 37L48 37L48 38L49 38L49 37L48 37L48 36L45 36L45 35L46 35L46 34L45 34L45 32L40 32L40 31L38 31L38 34L37 34L37 35L35 35L35 36L34 36L34 37L33 37L33 34L36 34L36 32L37 32L37 31L36 31L36 32L35 32L35 31L33 31L33 30L36 30L36 29L33 29L33 28L34 28L34 27L35 27L35 28L36 28L36 27L35 27L35 25L33 25L33 24L32 24L32 25L31 25L31 27L33 27L33 28L32 28L32 29L31 29L31 31L25 31L25 34L23 34L23 33L24 33L24 29L25 29L25 30L26 30L26 27L25 27L25 28L24 28L24 29L23 29L23 26L22 26L22 25L25 25L25 26L26 26L26 25L27 25L27 24L28 24L28 25L30 25L30 24L31 24L31 22L30 22L30 21L31 21L31 20L30 20L30 19L31 19L31 18L32 18L32 19L34 19L34 21L33 21L33 20L32 20L32 21L33 21L33 22L34 22L34 23L35 23L35 24L36 24L36 22L37 22L37 23L39 23L39 25L38 25L38 26L42 26L42 27L41 27L41 28L39 28L39 27L38 27L38 28L37 28L37 30L39 30L39 29L40 29L40 30L42 30L42 31L46 31L46 30L47 30L47 31L48 31L48 30L47 30L47 29L48 29L48 26L47 26L47 25L49 25L49 24L50 24L50 26L51 26L51 25L52 25L52 26L53 26L53 27L55 27L55 26L54 26L54 25L53 25L53 24L54 24L54 23L53 23L53 24L51 24L51 23L50 23L50 22L49 22L49 24L47 24L47 21L46 21L46 20L47 20L47 19L48 19L48 20L49 20L49 18L47 18L47 17L46 17L46 16L48 16L48 17L49 17L49 15L46 15L46 16L44 16L44 15L45 15L45 14L44 14L44 13L45 13L45 12L44 12L44 13L43 13L43 14L42 14L42 11L41 11L41 10L40 10L40 9L43 9L43 8L42 8L42 5L41 5L41 4L43 4L43 7L44 7L44 6L45 6L45 5L44 5L44 4L46 4L46 5L47 5L47 3L40 3L40 4L37 4L37 5L36 5L36 3L39 3L39 2L38 2L38 1L37 1L37 2L36 2L36 1ZM28 3L28 4L29 4L29 3ZM18 4L18 5L19 5L19 7L20 7L20 5L19 5L19 4ZM22 4L22 5L23 5L23 4ZM25 4L25 8L26 8L26 4ZM27 5L27 8L30 8L30 5ZM34 5L34 7L35 7L35 8L33 8L33 9L37 9L37 8L39 8L39 6L40 6L40 7L41 7L41 6L40 6L40 5L37 5L37 6L36 6L36 5ZM22 6L22 7L23 7L23 6ZM28 6L28 7L29 7L29 6ZM32 6L32 7L33 7L33 6ZM35 6L35 7L36 7L36 8L37 8L37 7L38 7L38 6L37 6L37 7L36 7L36 6ZM48 6L48 7L49 7L49 6ZM11 7L11 8L12 8L12 7ZM0 8L0 9L3 9L3 10L4 10L4 9L5 9L5 8ZM13 8L13 9L11 9L11 10L12 10L12 12L13 12L13 13L15 13L15 12L16 12L16 13L17 13L17 12L16 12L16 11L15 11L15 10L16 10L16 9L15 9L15 10L14 10L14 8ZM45 8L45 9L48 9L48 10L49 10L49 11L47 11L47 10L46 10L46 11L47 11L47 12L49 12L49 11L51 11L51 10L49 10L49 9L50 9L50 8L49 8L49 9L48 9L48 8ZM51 8L51 9L52 9L52 8ZM53 8L53 9L54 9L54 8ZM55 8L55 11L54 11L54 10L53 10L53 11L52 11L52 12L53 12L53 11L54 11L54 12L56 12L56 14L53 14L53 15L54 15L54 16L53 16L53 17L54 17L54 18L52 18L52 17L51 17L51 21L52 21L52 20L53 20L53 21L54 21L54 20L57 20L57 19L55 19L55 18L57 18L57 15L56 15L56 14L57 14L57 12L56 12L56 10L57 10L57 9L56 9L56 8ZM1 10L1 11L2 11L2 10ZM7 10L7 11L6 11L6 12L7 12L7 11L8 11L8 10ZM20 10L20 11L21 11L21 10ZM26 10L26 11L27 11L27 12L25 12L25 13L24 13L24 14L22 14L22 13L21 13L21 12L20 12L20 13L21 13L21 14L22 14L22 15L21 15L21 16L20 16L20 15L18 15L18 16L16 16L16 15L17 15L17 14L15 14L15 15L14 15L14 14L11 14L11 15L14 15L14 16L13 16L13 17L12 17L12 20L14 20L14 19L13 19L13 18L15 18L15 21L16 21L16 22L14 22L14 23L16 23L16 25L19 25L19 26L20 26L20 25L19 25L19 23L20 23L20 22L19 22L19 23L17 23L17 21L20 21L20 20L21 20L21 21L22 21L22 22L21 22L21 23L22 23L22 24L24 24L24 23L23 23L23 22L24 22L24 21L25 21L25 22L26 22L26 23L25 23L25 24L27 24L27 23L28 23L28 24L30 24L30 22L29 22L29 21L28 21L28 22L27 22L27 21L26 21L26 19L27 19L27 20L29 20L29 18L31 18L31 17L29 17L29 16L28 16L28 15L29 15L29 14L30 14L30 13L28 13L28 12L30 12L30 11L29 11L29 10ZM35 10L35 11L36 11L36 10ZM13 11L13 12L14 12L14 11ZM6 13L6 14L7 14L7 13ZM25 13L25 15L26 15L26 16L25 16L25 18L24 18L24 20L23 20L23 16L24 16L24 15L23 15L23 16L21 16L21 17L20 17L20 16L19 16L19 17L16 17L16 18L17 18L17 19L18 19L18 20L19 20L19 19L22 19L22 21L24 21L24 20L25 20L25 19L26 19L26 16L27 16L27 17L28 17L28 16L27 16L27 15L26 15L26 14L28 14L28 13ZM39 13L39 14L40 14L40 15L39 15L39 16L36 16L36 18L34 18L34 19L37 19L37 20L36 20L36 21L37 21L37 22L38 22L38 21L39 21L39 23L40 23L40 22L43 22L43 21L40 21L40 20L46 20L46 19L47 19L47 18L46 18L46 17L44 17L44 16L43 16L43 15L42 15L42 14L40 14L40 13ZM41 15L41 16L39 16L39 17L37 17L37 18L39 18L39 17L40 17L40 19L38 19L38 20L37 20L37 21L38 21L38 20L40 20L40 19L43 19L43 18L41 18L41 17L43 17L43 16L42 16L42 15ZM55 15L55 16L54 16L54 17L55 17L55 16L56 16L56 15ZM14 16L14 17L15 17L15 16ZM21 17L21 18L22 18L22 17ZM10 18L10 19L11 19L11 18ZM18 18L18 19L19 19L19 18ZM27 18L27 19L28 19L28 18ZM44 18L44 19L46 19L46 18ZM16 20L16 21L17 21L17 20ZM1 21L1 23L2 23L2 22L3 22L3 21ZM44 21L44 23L45 23L45 25L46 25L46 22L45 22L45 21ZM42 23L42 24L41 24L41 25L42 25L42 26L44 26L44 27L42 27L42 28L43 28L43 29L42 29L42 30L46 30L46 29L47 29L47 28L46 28L46 26L44 26L44 24L43 24L43 23ZM3 24L3 25L4 25L4 26L3 26L3 27L1 27L1 28L2 28L2 29L4 29L4 28L3 28L3 27L4 27L4 26L7 26L7 25L4 25L4 24ZM32 25L32 26L33 26L33 25ZM36 25L36 26L37 26L37 25ZM21 26L21 27L22 27L22 26ZM5 27L5 30L8 30L8 27ZM27 27L27 30L30 30L30 27ZM44 27L44 29L45 29L45 27ZM49 27L49 30L52 30L52 27ZM6 28L6 29L7 29L7 28ZM19 28L19 29L18 29L18 31L16 31L16 33L15 33L15 35L14 35L14 36L16 36L16 35L17 35L17 37L19 37L19 38L20 38L20 39L18 39L18 40L17 40L17 41L18 41L18 43L16 43L16 42L14 42L14 41L16 41L16 39L14 39L14 41L12 41L12 42L11 42L11 43L10 43L10 45L11 45L11 44L12 44L12 46L13 46L13 45L14 45L14 47L13 47L13 50L14 50L14 51L13 51L13 53L16 53L16 52L17 52L17 51L16 51L16 49L19 49L19 48L20 48L20 49L21 49L21 48L20 48L20 45L21 45L21 46L22 46L22 45L24 45L24 46L23 46L23 47L25 47L25 45L26 45L26 44L27 44L27 45L29 45L29 47L31 47L31 46L33 46L33 47L32 47L32 48L33 48L33 47L35 47L35 48L36 48L36 47L39 47L39 48L41 48L41 47L42 47L42 48L43 48L43 47L44 47L44 48L45 48L45 47L47 47L47 46L46 46L46 45L47 45L47 44L48 44L48 45L49 45L49 47L50 47L50 45L49 45L49 44L52 44L52 43L53 43L53 42L51 42L51 41L49 41L49 43L48 43L48 42L44 42L44 40L45 40L45 39L43 39L43 37L44 37L44 38L45 38L45 37L44 37L44 34L43 34L43 33L41 33L41 34L43 34L43 37L42 37L42 35L40 35L40 34L38 34L38 35L40 35L40 36L36 36L36 37L39 37L39 38L36 38L36 39L34 39L34 38L33 38L33 39L32 39L32 40L33 40L33 42L34 42L34 43L33 43L33 44L34 44L34 43L37 43L37 44L35 44L35 45L37 45L37 44L38 44L38 45L39 45L39 44L43 44L43 45L42 45L42 46L41 46L41 45L40 45L40 46L33 46L33 45L32 45L32 42L28 42L28 43L31 43L31 44L30 44L30 45L29 45L29 44L27 44L27 43L26 43L26 44L25 44L25 45L24 45L24 44L23 44L23 42L25 42L25 41L21 41L21 40L23 40L23 39L24 39L24 40L25 40L25 35L26 35L26 36L27 36L27 35L26 35L26 34L27 34L27 33L29 33L29 34L30 34L30 35L29 35L29 39L31 39L31 38L32 38L32 32L33 32L33 31L32 31L32 32L30 32L30 33L29 33L29 32L26 32L26 34L25 34L25 35L24 35L24 36L23 36L23 37L22 37L22 35L21 35L21 34L22 34L22 33L21 33L21 32L20 32L20 30L19 30L19 29L22 29L22 28ZM28 28L28 29L29 29L29 28ZM50 28L50 29L51 29L51 28ZM54 28L54 29L53 29L53 31L52 31L52 32L54 32L54 33L55 33L55 34L56 34L56 33L55 33L55 32L54 32L54 30L56 30L56 29L55 29L55 28ZM32 29L32 30L33 30L33 29ZM21 30L21 31L23 31L23 30ZM4 32L4 33L3 33L3 34L5 34L5 32ZM19 32L19 33L18 33L18 34L19 34L19 37L21 37L21 38L22 38L22 37L21 37L21 35L20 35L20 34L21 34L21 33L20 33L20 32ZM34 32L34 33L35 33L35 32ZM39 32L39 33L40 33L40 32ZM16 33L16 34L17 34L17 33ZM53 34L53 35L54 35L54 34ZM4 35L4 36L5 36L5 35ZM11 35L11 36L10 36L10 38L8 38L8 39L10 39L10 40L12 40L12 39L10 39L10 38L11 38L11 37L12 37L12 35ZM30 36L30 38L31 38L31 36ZM40 36L40 38L39 38L39 39L38 39L38 40L37 40L37 39L36 39L36 40L37 40L37 41L38 41L38 42L37 42L37 43L38 43L38 44L39 44L39 43L38 43L38 42L40 42L40 43L41 43L41 40L42 40L42 39L41 39L41 36ZM15 37L15 38L16 38L16 37ZM23 37L23 38L24 38L24 37ZM27 37L27 38L26 38L26 40L27 40L27 41L26 41L26 42L27 42L27 41L29 41L29 40L28 40L28 39L27 39L27 38L28 38L28 37ZM40 39L40 40L41 40L41 39ZM30 40L30 41L31 41L31 40ZM34 40L34 42L35 42L35 40ZM46 40L46 41L47 41L47 40ZM6 41L6 42L7 42L7 41ZM19 41L19 45L20 45L20 44L21 44L21 45L22 45L22 44L21 44L21 43L22 43L22 42L21 42L21 41ZM12 42L12 43L13 43L13 42ZM42 42L42 43L43 43L43 44L44 44L44 45L43 45L43 46L42 46L42 47L43 47L43 46L44 46L44 47L45 47L45 44L44 44L44 43L43 43L43 42ZM50 42L50 43L51 43L51 42ZM6 43L6 44L7 44L7 43ZM15 43L15 44L14 44L14 45L15 45L15 44L16 44L16 43ZM17 44L17 45L16 45L16 46L17 46L17 47L16 47L16 48L17 48L17 47L18 47L18 48L19 48L19 47L18 47L18 46L17 46L17 45L18 45L18 44ZM5 45L5 46L3 46L3 47L5 47L5 46L7 46L7 45ZM30 45L30 46L31 46L31 45ZM51 45L51 47L52 47L52 45ZM26 46L26 47L27 47L27 46ZM40 46L40 47L41 47L41 46ZM14 47L14 49L15 49L15 47ZM27 49L27 52L30 52L30 49ZM32 49L32 50L33 50L33 49ZM49 49L49 52L52 52L52 49ZM18 50L18 51L21 51L21 53L22 53L22 51L23 51L23 50ZM28 50L28 51L29 51L29 50ZM46 50L46 51L45 51L45 52L46 52L46 51L47 51L47 50ZM50 50L50 51L51 51L51 50ZM24 51L24 53L25 53L25 51ZM32 51L32 52L33 52L33 53L34 53L34 52L33 52L33 51ZM18 52L18 53L20 53L20 52ZM54 52L54 53L55 53L55 52ZM49 53L49 55L50 55L50 54L51 54L51 53ZM54 55L54 56L55 56L55 57L56 57L56 56L55 56L55 55ZM10 56L10 57L11 57L11 56ZM35 56L35 57L37 57L37 56ZM41 56L41 57L44 57L44 56ZM0 0L0 7L7 7L7 0ZM1 1L1 6L6 6L6 1ZM2 2L2 5L5 5L5 2ZM50 0L50 7L57 7L57 0ZM51 1L51 6L56 6L56 1ZM52 2L52 5L55 5L55 2ZM0 50L0 57L7 57L7 50ZM1 51L1 56L6 56L6 51ZM2 52L2 55L5 55L5 52Z" fill="#000000"/></g></g></svg>
