<?xml version="1.0" encoding="UTF-8"?>
<svg xmlns="http://www.w3.org/2000/svg" version="1.1" width="300" height="300" viewBox="0 0 300 300"><rect x="0" y="0" width="300" height="300" fill="#ffffff"/><g transform="scale(8.108)"><g transform="translate(2,2)"><path fill-rule="evenodd" d="M9 0L9 1L8 1L8 2L9 2L9 3L8 3L8 4L9 4L9 3L11 3L11 1L12 1L12 3L13 3L13 4L10 4L10 5L8 5L8 7L9 7L9 8L6 8L6 9L10 9L10 8L11 8L11 6L10 6L10 5L15 5L15 6L14 6L14 8L13 8L13 9L11 9L11 10L10 10L10 11L11 11L11 10L13 10L13 11L14 11L14 14L13 14L13 12L9 12L9 13L11 13L11 14L12 14L12 16L11 16L11 15L10 15L10 16L11 16L11 17L10 17L10 18L6 18L6 19L7 19L7 20L5 20L5 15L4 15L4 14L0 14L0 17L1 17L1 18L0 18L0 19L1 19L1 20L2 20L2 21L3 21L3 23L4 23L4 21L3 21L3 19L4 19L4 20L5 20L5 21L7 21L7 22L6 22L6 23L7 23L7 24L6 24L6 25L7 25L7 24L9 24L9 23L10 23L10 25L11 25L11 26L12 26L12 28L13 28L13 29L11 29L11 30L12 30L12 31L10 31L10 27L9 27L9 25L8 25L8 27L9 27L9 28L8 28L8 33L9 33L9 31L10 31L10 32L12 32L12 31L14 31L14 30L15 30L15 33L16 33L16 32L17 32L17 33L18 33L18 32L19 32L19 33L20 33L20 32L22 32L22 33L25 33L25 32L26 32L26 33L28 33L28 32L29 32L29 33L30 33L30 32L31 32L31 33L32 33L32 32L31 32L31 31L32 31L32 30L31 30L31 29L33 29L33 28L32 28L32 26L33 26L33 24L32 24L32 26L31 26L31 25L30 25L30 24L31 24L31 23L32 23L32 22L33 22L33 21L32 21L32 20L31 20L31 19L32 19L32 18L33 18L33 17L32 17L32 16L31 16L31 15L32 15L32 14L33 14L33 13L31 13L31 15L30 15L30 16L31 16L31 19L30 19L30 17L29 17L29 15L28 15L28 14L27 14L27 13L30 13L30 12L31 12L31 11L32 11L32 10L33 10L33 9L32 9L32 8L31 8L31 9L30 9L30 8L29 8L29 9L30 9L30 10L29 10L29 11L30 11L30 12L27 12L27 13L26 13L26 12L25 12L25 11L27 11L27 9L28 9L28 8L27 8L27 9L26 9L26 8L25 8L25 6L24 6L24 9L23 9L23 8L22 8L22 7L23 7L23 5L24 5L24 4L23 4L23 2L22 2L22 1L21 1L21 0L16 0L16 1L13 1L13 0ZM23 0L23 1L24 1L24 2L25 2L25 1L24 1L24 0ZM18 1L18 2L16 2L16 3L15 3L15 2L13 2L13 3L15 3L15 5L16 5L16 6L15 6L15 8L14 8L14 10L16 10L16 9L15 9L15 8L19 8L19 9L22 9L22 10L23 10L23 11L24 11L24 10L26 10L26 9L24 9L24 10L23 10L23 9L22 9L22 8L19 8L19 7L20 7L20 5L19 5L19 7L18 7L18 6L17 6L17 5L16 5L16 4L17 4L17 3L18 3L18 4L20 4L20 3L21 3L21 4L22 4L22 3L21 3L21 1ZM19 2L19 3L20 3L20 2ZM21 5L21 7L22 7L22 5ZM9 6L9 7L10 7L10 6ZM12 6L12 7L13 7L13 6ZM16 6L16 7L17 7L17 6ZM0 8L0 9L1 9L1 10L0 10L0 11L1 11L1 12L0 12L0 13L1 13L1 12L4 12L4 13L5 13L5 12L6 12L6 13L7 13L7 14L6 14L6 15L9 15L9 14L8 14L8 13L7 13L7 12L8 12L8 11L9 11L9 10L4 10L4 9L5 9L5 8ZM1 10L1 11L2 11L2 10ZM17 10L17 12L16 12L16 13L15 13L15 14L14 14L14 15L13 15L13 16L12 16L12 17L14 17L14 16L16 16L16 15L17 15L17 16L18 16L18 17L17 17L17 18L19 18L19 20L18 20L18 19L17 19L17 20L16 20L16 19L15 19L15 18L16 18L16 17L15 17L15 18L14 18L14 19L13 19L13 20L10 20L10 21L9 21L9 22L8 22L8 23L9 23L9 22L10 22L10 21L13 21L13 22L14 22L14 23L12 23L12 22L11 22L11 25L13 25L13 28L14 28L14 29L13 29L13 30L14 30L14 29L15 29L15 30L16 30L16 31L17 31L17 32L18 32L18 31L21 31L21 30L18 30L18 31L17 31L17 30L16 30L16 29L17 29L17 28L19 28L19 27L20 27L20 28L21 28L21 29L22 29L22 30L23 30L23 31L24 31L24 32L25 32L25 31L26 31L26 32L27 32L27 31L29 31L29 30L30 30L30 29L31 29L31 28L29 28L29 30L27 30L27 29L26 29L26 30L25 30L25 29L24 29L24 28L23 28L23 29L22 29L22 28L21 28L21 27L23 27L23 25L24 25L24 24L25 24L25 22L26 22L26 21L27 21L27 23L26 23L26 24L27 24L27 23L28 23L28 24L29 24L29 21L30 21L30 23L31 23L31 20L30 20L30 19L29 19L29 17L27 17L27 16L28 16L28 15L24 15L24 14L26 14L26 13L25 13L25 12L20 12L20 13L21 13L21 14L18 14L18 13L19 13L19 11L21 11L21 10ZM30 10L30 11L31 11L31 10ZM4 11L4 12L5 12L5 11ZM6 11L6 12L7 12L7 11ZM17 12L17 13L16 13L16 14L15 14L15 15L16 15L16 14L17 14L17 15L18 15L18 16L19 16L19 18L20 18L20 20L22 20L22 21L18 21L18 20L17 20L17 21L18 21L18 22L20 22L20 23L21 23L21 24L22 24L22 25L23 25L23 23L22 23L22 21L23 21L23 22L24 22L24 21L23 21L23 20L26 20L26 19L28 19L28 20L27 20L27 21L29 21L29 19L28 19L28 18L27 18L27 17L26 17L26 16L25 16L25 18L26 18L26 19L23 19L23 18L24 18L24 17L23 17L23 14L24 14L24 13L23 13L23 14L21 14L21 15L18 15L18 14L17 14L17 13L18 13L18 12ZM2 15L2 16L1 16L1 17L2 17L2 19L3 19L3 17L2 17L2 16L4 16L4 15ZM6 16L6 17L7 17L7 16ZM8 16L8 17L9 17L9 16ZM20 16L20 18L23 18L23 17L22 17L22 16ZM11 18L11 19L12 19L12 18ZM7 20L7 21L8 21L8 20ZM13 20L13 21L14 21L14 22L15 22L15 23L16 23L16 24L15 24L15 25L14 25L14 24L13 24L13 25L14 25L14 26L15 26L15 29L16 29L16 28L17 28L17 25L18 25L18 26L21 26L21 25L20 25L20 24L19 24L19 25L18 25L18 24L17 24L17 23L16 23L16 22L15 22L15 21L14 21L14 20ZM0 21L0 25L1 25L1 21ZM2 24L2 25L4 25L4 24ZM15 25L15 26L16 26L16 25ZM25 25L25 28L28 28L28 25ZM29 25L29 27L30 27L30 25ZM26 26L26 27L27 27L27 26ZM24 30L24 31L25 31L25 30ZM26 30L26 31L27 31L27 30ZM13 32L13 33L14 33L14 32ZM0 0L0 7L7 7L7 0ZM1 1L1 6L6 6L6 1ZM2 2L2 5L5 5L5 2ZM26 0L26 7L33 7L33 0ZM27 1L27 6L32 6L32 1ZM28 2L28 5L31 5L31 2ZM0 26L0 33L7 33L7 26ZM1 27L1 32L6 32L6 27ZM2 28L2 31L5 31L5 28Z" fill="#000000"/></g></g></svg>
