<?xml version="1.0" encoding="UTF-8"?>
<svg xmlns="http://www.w3.org/2000/svg" version="1.1" width="300" height="300" viewBox="0 0 300 300"><rect x="0" y="0" width="300" height="300" fill="#ffffff"/><g transform="scale(4.918)"><g transform="translate(2,2)"><path fill-rule="evenodd" d="M10 0L10 1L11 1L11 0ZM13 0L13 1L12 1L12 3L11 3L11 2L9 2L9 1L8 1L8 2L9 2L9 3L8 3L8 4L10 4L10 3L11 3L11 5L12 5L12 3L13 3L13 4L14 4L14 5L13 5L13 6L12 6L12 7L13 7L13 8L12 8L12 9L11 9L11 10L10 10L10 8L11 8L11 6L10 6L10 5L8 5L8 7L9 7L9 8L6 8L6 9L7 9L7 10L5 10L5 8L0 8L0 12L1 12L1 13L0 13L0 14L1 14L1 13L3 13L3 14L2 14L2 15L1 15L1 16L0 16L0 17L1 17L1 16L2 16L2 17L3 17L3 18L4 18L4 17L5 17L5 19L4 19L4 20L6 20L6 21L7 21L7 20L6 20L6 19L8 19L8 20L9 20L9 18L8 18L8 16L9 16L9 17L11 17L11 15L10 15L10 16L9 16L9 15L7 15L7 14L8 14L8 13L10 13L10 14L12 14L12 16L13 16L13 17L12 17L12 18L10 18L10 21L9 21L9 23L7 23L7 22L5 22L5 23L7 23L7 24L5 24L5 25L0 25L0 26L1 26L1 27L2 27L2 29L4 29L4 30L3 30L3 31L1 31L1 32L3 32L3 33L4 33L4 31L9 31L9 33L10 33L10 34L8 34L8 32L5 32L5 34L6 34L6 35L8 35L8 36L4 36L4 35L3 35L3 34L0 34L0 35L1 35L1 36L0 36L0 37L1 37L1 36L4 36L4 38L3 38L3 37L2 37L2 38L0 38L0 39L3 39L3 41L0 41L0 43L1 43L1 44L2 44L2 43L4 43L4 42L3 42L3 41L5 41L5 42L6 42L6 43L8 43L8 44L9 44L9 46L5 46L5 45L7 45L7 44L3 44L3 45L4 45L4 46L5 46L5 47L3 47L3 46L2 46L2 45L1 45L1 46L0 46L0 48L5 48L5 47L7 47L7 48L6 48L6 49L8 49L8 51L9 51L9 52L8 52L8 57L10 57L10 56L11 56L11 57L13 57L13 56L11 56L11 55L15 55L15 57L16 57L16 55L15 55L15 54L16 54L16 53L15 53L15 52L17 52L17 51L18 51L18 53L19 53L19 54L20 54L20 55L19 55L19 56L18 56L18 55L17 55L17 57L21 57L21 56L22 56L22 55L24 55L24 56L23 56L23 57L24 57L24 56L28 56L28 55L26 55L26 54L27 54L27 53L28 53L28 54L29 54L29 55L30 55L30 56L29 56L29 57L31 57L31 55L32 55L32 56L33 56L33 55L34 55L34 56L35 56L35 57L39 57L39 55L40 55L40 56L43 56L43 55L42 55L42 54L43 54L43 53L44 53L44 54L45 54L45 55L44 55L44 56L45 56L45 55L49 55L49 56L50 56L50 55L51 55L51 57L52 57L52 56L55 56L55 57L56 57L56 56L55 56L55 55L51 55L51 54L54 54L54 52L57 52L57 51L55 51L55 50L57 50L57 48L56 48L56 46L57 46L57 45L56 45L56 44L57 44L57 43L56 43L56 42L57 42L57 41L56 41L56 42L55 42L55 39L57 39L57 37L56 37L56 34L57 34L57 33L56 33L56 32L57 32L57 31L56 31L56 30L57 30L57 29L56 29L56 30L55 30L55 29L54 29L54 28L56 28L56 27L53 27L53 26L49 26L49 25L50 25L50 23L51 23L51 24L53 24L53 25L54 25L54 26L57 26L57 25L55 25L55 23L56 23L56 24L57 24L57 23L56 23L56 22L57 22L57 21L56 21L56 18L57 18L57 15L56 15L56 14L57 14L57 12L56 12L56 10L55 10L55 11L54 11L54 10L53 10L53 11L52 11L52 10L49 10L49 9L50 9L50 8L49 8L49 6L48 6L48 7L47 7L47 5L48 5L48 0L45 0L45 1L47 1L47 2L42 2L42 1L44 1L44 0L42 0L42 1L41 1L41 0L40 0L40 1L41 1L41 2L39 2L39 1L38 1L38 0L36 0L36 1L33 1L33 2L30 2L30 1L32 1L32 0L30 0L30 1L29 1L29 0L28 0L28 1L25 1L25 0L23 0L23 2L24 2L24 4L22 4L22 3L21 3L21 4L22 4L22 5L24 5L24 4L25 4L25 6L24 6L24 7L23 7L23 6L22 6L22 7L21 7L21 6L20 6L20 5L19 5L19 6L18 6L18 7L17 7L17 5L18 5L18 4L20 4L20 3L18 3L18 4L16 4L16 2L19 2L19 1L20 1L20 2L22 2L22 0L21 0L21 1L20 1L20 0L19 0L19 1L16 1L16 0ZM13 1L13 2L15 2L15 1ZM28 1L28 2L27 2L27 3L28 3L28 4L29 4L29 3L30 3L30 4L31 4L31 8L34 8L34 6L33 6L33 3L32 3L32 4L31 4L31 3L30 3L30 2L29 2L29 1ZM37 1L37 2L34 2L34 3L35 3L35 4L34 4L34 5L36 5L36 6L35 6L35 8L36 8L36 6L37 6L37 7L38 7L38 8L37 8L37 9L36 9L36 10L35 10L35 9L33 9L33 10L34 10L34 12L35 12L35 11L36 11L36 10L37 10L37 11L38 11L38 10L39 10L39 11L40 11L40 12L38 12L38 13L37 13L37 14L36 14L36 15L33 15L33 14L35 14L35 13L33 13L33 12L32 12L32 13L31 13L31 16L30 16L30 15L27 15L27 14L28 14L28 13L29 13L29 14L30 14L30 13L29 13L29 12L30 12L30 11L31 11L31 10L32 10L32 9L31 9L31 10L30 10L30 11L29 11L29 9L26 9L26 6L25 6L25 7L24 7L24 9L25 9L25 10L22 10L22 11L21 11L21 9L23 9L23 8L21 8L21 7L20 7L20 6L19 6L19 9L20 9L20 11L19 11L19 10L18 10L18 9L16 9L16 6L15 6L15 5L16 5L16 4L15 4L15 3L14 3L14 4L15 4L15 5L14 5L14 6L13 6L13 7L14 7L14 9L13 9L13 11L12 11L12 10L11 10L11 11L10 11L10 13L11 13L11 12L12 12L12 14L13 14L13 13L14 13L14 14L17 14L17 15L16 15L16 16L18 16L18 15L19 15L19 17L16 17L16 18L17 18L17 20L15 20L15 21L13 21L13 22L12 22L12 24L11 24L11 25L10 25L10 23L9 23L9 25L8 25L8 26L9 26L9 29L13 29L13 30L10 30L10 32L11 32L11 31L12 31L12 32L13 32L13 33L12 33L12 34L15 34L15 33L16 33L16 34L17 34L17 33L16 33L16 31L18 31L18 30L17 30L17 29L18 29L18 28L17 28L17 27L18 27L18 25L16 25L16 24L17 24L17 21L18 21L18 22L19 22L19 23L20 23L20 22L19 22L19 21L21 21L21 22L22 22L22 23L21 23L21 24L19 24L19 25L20 25L20 26L19 26L19 27L20 27L20 28L19 28L19 29L20 29L20 32L19 32L19 33L18 33L18 34L19 34L19 36L20 36L20 37L18 37L18 35L16 35L16 37L15 37L15 38L14 38L14 39L13 39L13 38L11 38L11 37L13 37L13 36L15 36L15 35L13 35L13 36L12 36L12 35L10 35L10 37L6 37L6 38L5 38L5 41L6 41L6 42L7 42L7 41L8 41L8 43L10 43L10 41L11 41L11 42L12 42L12 43L11 43L11 44L10 44L10 45L11 45L11 46L12 46L12 47L13 47L13 48L14 48L14 49L13 49L13 50L11 50L11 48L10 48L10 47L9 47L9 48L8 48L8 49L10 49L10 52L11 52L11 54L12 54L12 53L13 53L13 54L14 54L14 52L15 52L15 51L13 51L13 50L15 50L15 46L14 46L14 45L15 45L15 44L18 44L18 45L16 45L16 46L17 46L17 47L16 47L16 48L17 48L17 47L18 47L18 48L19 48L19 49L16 49L16 51L17 51L17 50L21 50L21 49L22 49L22 51L21 51L21 52L19 52L19 53L21 53L21 55L22 55L22 53L23 53L23 54L24 54L24 53L23 53L23 52L24 52L24 51L25 51L25 53L26 53L26 50L23 50L23 48L24 48L24 47L25 47L25 49L26 49L26 48L31 48L31 50L32 50L32 51L31 51L31 52L32 52L32 54L35 54L35 56L36 56L36 54L37 54L37 53L36 53L36 52L37 52L37 51L36 51L36 50L35 50L35 49L36 49L36 48L40 48L40 49L37 49L37 50L39 50L39 51L38 51L38 52L40 52L40 55L41 55L41 53L43 53L43 50L44 50L44 53L45 53L45 54L47 54L47 53L48 53L48 54L49 54L49 55L50 55L50 54L51 54L51 53L48 53L48 52L47 52L47 51L48 51L48 48L49 48L49 47L52 47L52 48L54 48L54 49L56 49L56 48L54 48L54 46L56 46L56 45L55 45L55 44L54 44L54 45L50 45L50 44L47 44L47 45L46 45L46 46L47 46L47 47L46 47L46 48L44 48L44 46L42 46L42 45L43 45L43 44L38 44L38 43L39 43L39 41L40 41L40 42L41 42L41 39L45 39L45 38L46 38L46 39L47 39L47 41L46 41L46 40L44 40L44 41L45 41L45 43L47 43L47 42L48 42L48 43L49 43L49 41L51 41L51 42L50 42L50 43L51 43L51 42L53 42L53 43L52 43L52 44L53 44L53 43L54 43L54 40L53 40L53 39L54 39L54 38L53 38L53 36L52 36L52 34L53 34L53 35L54 35L54 34L53 34L53 33L51 33L51 34L50 34L50 32L49 32L49 31L48 31L48 28L47 28L47 27L46 27L46 28L47 28L47 29L46 29L46 30L45 30L45 25L46 25L46 26L48 26L48 25L49 25L49 24L48 24L48 25L47 25L47 21L46 21L46 20L49 20L49 19L50 19L50 22L49 22L49 23L50 23L50 22L51 22L51 23L53 23L53 20L52 20L52 21L51 21L51 19L53 19L53 18L54 18L54 17L55 17L55 18L56 18L56 17L55 17L55 16L56 16L56 15L55 15L55 14L56 14L56 12L54 12L54 11L53 11L53 12L52 12L52 11L49 11L49 10L48 10L48 9L49 9L49 8L48 8L48 9L47 9L47 7L46 7L46 6L45 6L45 5L44 5L44 4L46 4L46 5L47 5L47 3L43 3L43 7L44 7L44 9L43 9L43 8L42 8L42 5L40 5L40 4L42 4L42 2L41 2L41 3L40 3L40 4L39 4L39 2L38 2L38 1ZM28 2L28 3L29 3L29 2ZM25 3L25 4L26 4L26 3ZM36 3L36 5L38 5L38 3ZM27 5L27 8L30 8L30 5ZM9 6L9 7L10 7L10 6ZM14 6L14 7L15 7L15 6ZM28 6L28 7L29 7L29 6ZM32 6L32 7L33 7L33 6ZM38 6L38 7L39 7L39 6ZM40 6L40 7L41 7L41 6ZM44 6L44 7L45 7L45 6ZM20 8L20 9L21 9L21 8ZM38 8L38 9L37 9L37 10L38 10L38 9L39 9L39 8ZM51 8L51 9L52 9L52 8ZM53 8L53 9L54 9L54 8ZM55 8L55 9L56 9L56 8ZM1 9L1 11L2 11L2 9ZM15 9L15 10L16 10L16 11L18 11L18 10L16 10L16 9ZM41 9L41 10L42 10L42 14L40 14L40 13L39 13L39 14L37 14L37 15L40 15L40 16L38 16L38 17L39 17L39 18L37 18L37 16L35 16L35 18L33 18L33 19L29 19L29 20L31 20L31 21L28 21L28 22L31 22L31 23L33 23L33 25L37 25L37 26L36 26L36 27L40 27L40 28L39 28L39 30L37 30L37 29L38 29L38 28L35 28L35 27L34 27L34 28L33 28L33 29L32 29L32 28L31 28L31 27L33 27L33 26L32 26L32 25L29 25L29 26L28 26L28 25L26 25L26 24L25 24L25 23L26 23L26 22L25 22L25 20L26 20L26 19L25 19L25 18L26 18L26 17L28 17L28 16L25 16L25 15L26 15L26 14L25 14L25 13L28 13L28 12L29 12L29 11L28 11L28 10L26 10L26 11L27 11L27 12L25 12L25 13L24 13L24 12L23 12L23 13L24 13L24 15L23 15L23 16L24 16L24 17L22 17L22 15L21 15L21 16L20 16L20 17L21 17L21 19L19 19L19 18L18 18L18 21L19 21L19 20L21 20L21 21L22 21L22 22L23 22L23 23L22 23L22 24L23 24L23 25L21 25L21 26L22 26L22 27L21 27L21 28L20 28L20 29L21 29L21 30L22 30L22 31L21 31L21 32L20 32L20 33L21 33L21 34L20 34L20 35L21 35L21 36L22 36L22 35L21 35L21 34L22 34L22 33L21 33L21 32L23 32L23 31L24 31L24 33L23 33L23 34L25 34L25 35L24 35L24 37L21 37L21 38L24 38L24 37L26 37L26 39L25 39L25 40L24 40L24 39L21 39L21 40L23 40L23 41L21 41L21 43L22 43L22 42L26 42L26 43L27 43L27 44L28 44L28 45L27 45L27 46L26 46L26 47L29 47L29 46L30 46L30 47L31 47L31 48L33 48L33 49L32 49L32 50L34 50L34 51L35 51L35 52L36 52L36 51L35 51L35 50L34 50L34 48L33 48L33 47L35 47L35 48L36 48L36 47L37 47L37 46L38 46L38 45L37 45L37 42L38 42L38 40L40 40L40 39L38 39L38 40L35 40L35 42L34 42L34 41L32 41L32 40L33 40L33 39L31 39L31 38L32 38L32 35L30 35L30 34L29 34L29 35L30 35L30 36L29 36L29 37L28 37L28 36L27 36L27 35L26 35L26 34L25 34L25 33L30 33L30 32L33 32L33 33L32 33L32 34L34 34L34 35L35 35L35 34L34 34L34 33L35 33L35 32L36 32L36 34L38 34L38 35L37 35L37 36L36 36L36 39L37 39L37 38L38 38L38 37L39 37L39 38L40 38L40 36L41 36L41 38L43 38L43 37L44 37L44 38L45 38L45 37L44 37L44 34L46 34L46 35L45 35L45 36L48 36L48 37L49 37L49 38L48 38L48 39L50 39L50 38L51 38L51 37L52 37L52 36L51 36L51 35L50 35L50 37L49 37L49 36L48 36L48 35L49 35L49 34L48 34L48 33L47 33L47 34L46 34L46 32L45 32L45 31L44 31L44 30L43 30L43 29L44 29L44 27L42 27L42 26L43 26L43 25L44 25L44 24L46 24L46 22L45 22L45 21L44 21L44 24L43 24L43 25L39 25L39 26L38 26L38 23L37 23L37 22L38 22L38 21L40 21L40 20L41 20L41 23L40 23L40 22L39 22L39 24L41 24L41 23L42 23L42 22L43 22L43 20L46 20L46 19L49 19L49 17L51 17L51 18L50 18L50 19L51 19L51 18L52 18L52 17L51 17L51 16L55 16L55 15L54 15L54 14L55 14L55 13L54 13L54 14L53 14L53 15L51 15L51 14L52 14L52 13L51 13L51 12L50 12L50 13L51 13L51 14L49 14L49 13L47 13L47 14L46 14L46 12L45 12L45 11L46 11L46 10L45 10L45 9L44 9L44 11L43 11L43 9ZM4 10L4 12L3 12L3 13L4 13L4 15L2 15L2 16L3 16L3 17L4 17L4 15L6 15L6 16L7 16L7 15L6 15L6 14L7 14L7 13L8 13L8 12L9 12L9 10L8 10L8 11L6 11L6 12L7 12L7 13L4 13L4 12L5 12L5 10ZM47 10L47 11L48 11L48 12L49 12L49 11L48 11L48 10ZM13 11L13 12L14 12L14 11ZM16 12L16 13L18 13L18 14L19 14L19 15L20 15L20 14L19 14L19 13L22 13L22 12L19 12L19 13L18 13L18 12ZM44 12L44 13L45 13L45 12ZM32 13L32 14L33 14L33 13ZM42 14L42 15L41 15L41 16L40 16L40 18L42 18L42 19L41 19L41 20L42 20L42 19L43 19L43 18L42 18L42 17L45 17L45 16L46 16L46 18L44 18L44 19L46 19L46 18L48 18L48 17L49 17L49 15L45 15L45 14L44 14L44 15L45 15L45 16L42 16L42 15L43 15L43 14ZM14 15L14 17L13 17L13 18L12 18L12 20L11 20L11 21L12 21L12 20L14 20L14 19L13 19L13 18L15 18L15 15ZM32 15L32 16L31 16L31 17L29 17L29 18L32 18L32 16L33 16L33 15ZM47 16L47 17L48 17L48 16ZM6 17L6 18L7 18L7 17ZM1 18L1 19L0 19L0 21L1 21L1 24L2 24L2 23L3 23L3 22L2 22L2 21L3 21L3 19L2 19L2 18ZM22 18L22 21L23 21L23 22L24 22L24 21L23 21L23 18ZM27 18L27 19L28 19L28 18ZM1 19L1 20L2 20L2 19ZM35 19L35 21L34 21L34 20L32 20L32 21L33 21L33 22L35 22L35 23L34 23L34 24L36 24L36 22L37 22L37 21L36 21L36 20L37 20L37 19ZM39 19L39 20L40 20L40 19ZM54 20L54 21L55 21L55 20ZM15 21L15 22L16 22L16 21ZM54 22L54 23L55 23L55 22ZM15 23L15 24L16 24L16 23ZM23 23L23 24L24 24L24 23ZM27 23L27 24L29 24L29 23ZM13 24L13 25L11 25L11 26L10 26L10 27L11 27L11 28L12 28L12 27L13 27L13 25L14 25L14 26L16 26L16 27L17 27L17 26L16 26L16 25L14 25L14 24ZM5 25L5 26L7 26L7 25ZM25 25L25 26L26 26L26 25ZM2 26L2 27L3 27L3 26ZM40 26L40 27L41 27L41 28L40 28L40 29L41 29L41 30L39 30L39 31L37 31L37 30L35 30L35 29L33 29L33 30L31 30L31 31L33 31L33 30L35 30L35 31L34 31L34 32L35 32L35 31L36 31L36 32L38 32L38 34L39 34L39 35L38 35L38 36L37 36L37 37L38 37L38 36L40 36L40 35L41 35L41 36L43 36L43 34L44 34L44 33L45 33L45 32L43 32L43 30L42 30L42 29L43 29L43 28L42 28L42 27L41 27L41 26ZM5 27L5 30L8 30L8 27ZM25 27L25 28L24 28L24 29L22 29L22 28L21 28L21 29L22 29L22 30L24 30L24 31L25 31L25 32L29 32L29 31L25 31L25 30L26 30L26 27ZM27 27L27 30L30 30L30 27ZM49 27L49 30L52 30L52 27ZM0 28L0 29L1 29L1 28ZM6 28L6 29L7 29L7 28ZM13 28L13 29L14 29L14 30L13 30L13 31L14 31L14 33L15 33L15 31L16 31L16 29L17 29L17 28ZM28 28L28 29L29 29L29 28ZM50 28L50 29L51 29L51 28ZM24 29L24 30L25 30L25 29ZM53 29L53 31L51 31L51 32L54 32L54 33L55 33L55 34L56 34L56 33L55 33L55 32L54 32L54 31L55 31L55 30L54 30L54 29ZM41 30L41 31L40 31L40 32L39 32L39 34L41 34L41 35L42 35L42 34L43 34L43 32L42 32L42 34L41 34L41 33L40 33L40 32L41 32L41 31L42 31L42 30ZM46 30L46 31L47 31L47 32L48 32L48 31L47 31L47 30ZM6 33L6 34L7 34L7 33ZM25 35L25 36L26 36L26 35ZM30 36L30 38L31 38L31 36ZM33 36L33 37L35 37L35 36ZM54 36L54 37L55 37L55 36ZM16 37L16 38L15 38L15 39L14 39L14 40L13 40L13 39L10 39L10 38L9 38L9 40L8 40L8 39L7 39L7 38L6 38L6 39L7 39L7 40L6 40L6 41L7 41L7 40L8 40L8 41L10 41L10 40L13 40L13 41L12 41L12 42L13 42L13 43L14 43L14 44L11 44L11 45L12 45L12 46L13 46L13 45L14 45L14 44L15 44L15 43L16 43L16 42L15 42L15 41L17 41L17 40L18 40L18 41L19 41L19 43L20 43L20 41L19 41L19 39L20 39L20 38L18 38L18 37ZM27 37L27 38L28 38L28 37ZM17 38L17 39L18 39L18 38ZM52 38L52 39L53 39L53 38ZM15 39L15 40L14 40L14 41L13 41L13 42L14 42L14 41L15 41L15 40L16 40L16 39ZM27 39L27 41L26 41L26 42L27 42L27 43L28 43L28 42L29 42L29 43L30 43L30 44L29 44L29 45L28 45L28 46L29 46L29 45L30 45L30 44L31 44L31 43L32 43L32 46L31 46L31 47L33 47L33 46L37 46L37 45L35 45L35 44L36 44L36 42L35 42L35 43L34 43L34 42L32 42L32 41L31 41L31 43L30 43L30 42L29 42L29 40L31 40L31 39L29 39L29 40L28 40L28 39ZM51 40L51 41L53 41L53 40ZM17 42L17 43L18 43L18 42ZM42 42L42 43L44 43L44 42ZM24 43L24 44L23 44L23 45L24 45L24 46L25 46L25 45L26 45L26 44L25 44L25 43ZM33 43L33 44L34 44L34 43ZM20 44L20 45L18 45L18 47L19 47L19 48L20 48L20 49L21 49L21 48L20 48L20 47L22 47L22 48L23 48L23 47L22 47L22 46L20 46L20 45L22 45L22 44ZM24 44L24 45L25 45L25 44ZM44 44L44 45L45 45L45 44ZM39 45L39 47L40 47L40 48L41 48L41 49L42 49L42 50L41 50L41 51L40 51L40 52L42 52L42 50L43 50L43 49L44 49L44 48L43 48L43 47L42 47L42 46L41 46L41 45ZM47 45L47 46L50 46L50 45ZM1 46L1 47L2 47L2 46ZM41 47L41 48L42 48L42 49L43 49L43 48L42 48L42 47ZM46 48L46 49L45 49L45 50L46 50L46 51L45 51L45 52L46 52L46 51L47 51L47 50L46 50L46 49L47 49L47 48ZM27 49L27 52L30 52L30 49ZM49 49L49 52L52 52L52 49ZM28 50L28 51L29 51L29 50ZM50 50L50 51L51 51L51 50ZM12 51L12 52L13 52L13 51ZM32 51L32 52L33 52L33 53L34 53L34 52L33 52L33 51ZM21 52L21 53L22 53L22 52ZM29 53L29 54L30 54L30 53ZM35 53L35 54L36 54L36 53ZM38 53L38 54L39 54L39 53ZM37 55L37 56L38 56L38 55ZM46 56L46 57L48 57L48 56ZM0 0L0 7L7 7L7 0ZM1 1L1 6L6 6L6 1ZM2 2L2 5L5 5L5 2ZM50 0L50 7L57 7L57 0ZM51 1L51 6L56 6L56 1ZM52 2L52 5L55 5L55 2ZM0 50L0 57L7 57L7 50ZM1 51L1 56L6 56L6 51ZM2 52L2 55L5 55L5 52Z" fill="#000000"/></g></g></svg>
