<?xml version="1.0" encoding="UTF-8"?>
<svg xmlns="http://www.w3.org/2000/svg" version="1.1" width="300" height="300" viewBox="0 0 300 300"><rect x="0" y="0" width="300" height="300" fill="#ffffff"/><g transform="scale(4.918)"><g transform="translate(2,2)"><path fill-rule="evenodd" d="M10 0L10 1L8 1L8 2L10 2L10 4L9 4L9 3L8 3L8 4L9 4L9 5L8 5L8 7L9 7L9 5L10 5L10 4L11 4L11 2L12 2L12 0ZM13 0L13 1L15 1L15 2L13 2L13 3L12 3L12 5L11 5L11 6L10 6L10 7L11 7L11 6L12 6L12 9L11 9L11 8L10 8L10 9L9 9L9 8L6 8L6 9L9 9L9 10L8 10L8 12L5 12L5 10L3 10L3 11L4 11L4 12L1 12L1 13L3 13L3 15L2 15L2 16L3 16L3 17L4 17L4 18L2 18L2 17L0 17L0 18L1 18L1 20L0 20L0 21L1 21L1 22L2 22L2 23L3 23L3 22L5 22L5 21L7 21L7 20L8 20L8 21L9 21L9 22L8 22L8 23L7 23L7 22L6 22L6 23L7 23L7 24L5 24L5 23L4 23L4 26L0 26L0 28L2 28L2 27L3 27L3 30L2 30L2 31L1 31L1 32L0 32L0 34L1 34L1 35L0 35L0 36L1 36L1 37L0 37L0 39L1 39L1 40L2 40L2 39L3 39L3 40L6 40L6 41L5 41L5 42L6 42L6 43L3 43L3 42L4 42L4 41L0 41L0 42L1 42L1 43L3 43L3 44L4 44L4 46L5 46L5 47L3 47L3 45L0 45L0 48L5 48L5 47L9 47L9 46L10 46L10 47L12 47L12 48L13 48L13 49L14 49L14 50L13 50L13 51L12 51L12 52L11 52L11 51L9 51L9 50L10 50L10 48L8 48L8 51L9 51L9 52L8 52L8 57L9 57L9 55L10 55L10 57L11 57L11 56L12 56L12 57L15 57L15 56L12 56L12 55L10 55L10 54L9 54L9 52L10 52L10 53L11 53L11 54L13 54L13 55L14 55L14 54L15 54L15 55L16 55L16 57L19 57L19 55L20 55L20 54L18 54L18 55L17 55L17 53L16 53L16 52L18 52L18 53L20 53L20 52L21 52L21 53L22 53L22 54L21 54L21 56L20 56L20 57L21 57L21 56L22 56L22 55L23 55L23 56L24 56L24 57L26 57L26 55L25 55L25 56L24 56L24 55L23 55L23 54L24 54L24 53L26 53L26 54L27 54L27 53L28 53L28 54L30 54L30 53L31 53L31 56L30 56L30 55L29 55L29 56L30 56L30 57L31 57L31 56L33 56L33 54L32 54L32 52L33 52L33 51L32 51L32 52L31 52L31 48L33 48L33 49L32 49L32 50L34 50L34 51L35 51L35 52L36 52L36 53L35 53L35 54L34 54L34 55L36 55L36 56L35 56L35 57L37 57L37 56L38 56L38 55L37 55L37 54L38 54L38 53L39 53L39 56L40 56L40 52L41 52L41 54L42 54L42 55L43 55L43 53L44 53L44 54L45 54L45 55L44 55L44 56L42 56L42 57L44 57L44 56L46 56L46 57L47 57L47 56L46 56L46 54L45 54L45 53L44 53L44 48L45 48L45 47L47 47L47 46L46 46L46 45L47 45L47 44L50 44L50 45L51 45L51 46L52 46L52 45L54 45L54 46L55 46L55 47L54 47L54 48L52 48L52 47L50 47L50 46L49 46L49 47L50 47L50 48L48 48L48 51L47 51L47 50L45 50L45 52L46 52L46 51L47 51L47 52L48 52L48 53L47 53L47 54L48 54L48 57L49 57L49 56L50 56L50 55L51 55L51 57L52 57L52 56L55 56L55 57L56 57L56 56L55 56L55 53L54 53L54 52L57 52L57 51L55 51L55 50L57 50L57 48L56 48L56 46L57 46L57 44L56 44L56 42L55 42L55 39L57 39L57 37L54 37L54 36L57 36L57 35L55 35L55 34L57 34L57 33L56 33L56 32L57 32L57 31L56 31L56 30L57 30L57 29L56 29L56 28L57 28L57 27L56 27L56 25L54 25L54 24L57 24L57 23L56 23L56 22L57 22L57 21L56 21L56 19L55 19L55 18L57 18L57 15L56 15L56 14L57 14L57 12L55 12L55 11L54 11L54 10L52 10L52 8L51 8L51 10L50 10L50 8L49 8L49 6L48 6L48 7L47 7L47 5L48 5L48 0L44 0L44 1L47 1L47 2L43 2L43 3L41 3L41 2L42 2L42 1L43 1L43 0L42 0L42 1L41 1L41 0L39 0L39 1L37 1L37 0L36 0L36 2L37 2L37 3L36 3L36 5L35 5L35 6L34 6L34 5L33 5L33 6L32 6L32 7L33 7L33 9L35 9L35 8L36 8L36 12L34 12L34 11L35 11L35 10L34 10L34 11L33 11L33 10L32 10L32 9L31 9L31 4L32 4L32 3L33 3L33 4L34 4L34 3L35 3L35 1L34 1L34 0L33 0L33 1L34 1L34 3L33 3L33 2L31 2L31 3L29 3L29 2L30 2L30 1L31 1L31 0L30 0L30 1L29 1L29 0L28 0L28 1L26 1L26 0L23 0L23 2L24 2L24 3L23 3L23 4L22 4L22 3L21 3L21 4L19 4L19 3L17 3L17 4L19 4L19 5L18 5L18 7L17 7L17 6L16 6L16 7L15 7L15 5L16 5L16 4L14 4L14 3L16 3L16 2L19 2L19 1L20 1L20 2L21 2L21 1L22 1L22 0L21 0L21 1L20 1L20 0L19 0L19 1L16 1L16 0ZM25 1L25 3L26 3L26 4L25 4L25 8L26 8L26 4L29 4L29 3L27 3L27 2L26 2L26 1ZM28 1L28 2L29 2L29 1ZM40 1L40 2L41 2L41 1ZM38 2L38 3L39 3L39 2ZM40 3L40 4L38 4L38 5L36 5L36 6L35 6L35 7L34 7L34 6L33 6L33 7L34 7L34 8L35 8L35 7L36 7L36 8L37 8L37 9L38 9L38 10L37 10L37 11L39 11L39 12L38 12L38 14L37 14L37 15L36 15L36 16L35 16L35 15L33 15L33 14L35 14L35 13L33 13L33 11L30 11L30 12L28 12L28 13L26 13L26 15L25 15L25 16L27 16L27 17L28 17L28 16L29 16L29 17L33 17L33 18L32 18L32 19L33 19L33 18L37 18L37 19L34 19L34 20L32 20L32 21L33 21L33 23L34 23L34 24L32 24L32 25L31 25L31 28L32 28L32 29L31 29L31 31L30 31L30 32L29 32L29 31L25 31L25 32L29 32L29 33L25 33L25 34L23 34L23 33L24 33L24 32L21 32L21 31L22 31L22 30L23 30L23 29L25 29L25 30L26 30L26 27L24 27L24 28L23 28L23 25L24 25L24 24L25 24L25 26L26 26L26 25L27 25L27 26L28 26L28 25L29 25L29 26L30 26L30 25L29 25L29 24L28 24L28 23L29 23L29 22L30 22L30 23L31 23L31 22L30 22L30 21L31 21L31 20L29 20L29 19L31 19L31 18L29 18L29 19L28 19L28 18L26 18L26 21L29 21L29 22L28 22L28 23L27 23L27 24L25 24L25 23L26 23L26 22L25 22L25 21L24 21L24 20L23 20L23 18L21 18L21 17L20 17L20 15L22 15L22 17L24 17L24 15L23 15L23 13L25 13L25 12L27 12L27 11L26 11L26 10L28 10L28 11L29 11L29 9L25 9L25 10L24 10L24 11L25 11L25 12L23 12L23 13L22 13L22 12L21 12L21 13L20 13L20 12L19 12L19 13L20 13L20 14L17 14L17 13L18 13L18 12L17 12L17 13L16 13L16 11L15 11L15 13L13 13L13 12L14 12L14 11L13 11L13 10L12 10L12 12L10 12L10 11L11 11L11 10L10 10L10 11L9 11L9 12L10 12L10 13L12 13L12 14L11 14L11 16L10 16L10 14L9 14L9 15L6 15L6 14L7 14L7 13L5 13L5 12L4 12L4 13L5 13L5 15L4 15L4 17L5 17L5 15L6 15L6 16L7 16L7 17L6 17L6 18L7 18L7 17L8 17L8 20L9 20L9 21L11 21L11 25L10 25L10 23L9 23L9 24L7 24L7 25L5 25L5 26L8 26L8 25L10 25L10 26L9 26L9 27L10 27L10 28L13 28L13 27L14 27L14 28L15 28L15 27L16 27L16 28L18 28L18 29L16 29L16 31L14 31L14 29L13 29L13 30L12 30L12 32L8 32L8 31L5 31L5 32L7 32L7 33L5 33L5 35L6 35L6 36L7 36L7 35L6 35L6 34L8 34L8 33L13 33L13 34L14 34L14 35L12 35L12 36L11 36L11 37L10 37L10 36L9 36L9 35L11 35L11 34L9 34L9 35L8 35L8 36L9 36L9 37L10 37L10 38L9 38L9 40L8 40L8 39L6 39L6 38L7 38L7 37L5 37L5 36L3 36L3 38L4 38L4 39L6 39L6 40L7 40L7 41L6 41L6 42L7 42L7 43L6 43L6 44L7 44L7 43L8 43L8 44L9 44L9 45L6 45L6 46L9 46L9 45L10 45L10 46L11 46L11 44L13 44L13 42L12 42L12 43L11 43L11 42L9 42L9 41L11 41L11 40L10 40L10 39L12 39L12 41L14 41L14 40L15 40L15 42L16 42L16 43L18 43L18 42L19 42L19 41L20 41L20 43L22 43L22 42L21 42L21 41L25 41L25 42L23 42L23 44L24 44L24 45L22 45L22 44L21 44L21 45L20 45L20 44L19 44L19 45L20 45L20 46L19 46L19 47L18 47L18 46L17 46L17 45L18 45L18 44L17 44L17 45L16 45L16 46L17 46L17 47L16 47L16 48L17 48L17 47L18 47L18 48L19 48L19 49L16 49L16 51L18 51L18 50L21 50L21 49L22 49L22 50L23 50L23 51L21 51L21 52L22 52L22 53L24 53L24 51L25 51L25 52L26 52L26 51L25 51L25 50L23 50L23 48L24 48L24 47L25 47L25 49L26 49L26 48L27 48L27 47L28 47L28 48L29 48L29 45L30 45L30 44L32 44L32 46L31 46L31 47L30 47L30 48L31 48L31 47L32 47L32 46L35 46L35 47L34 47L34 48L35 48L35 49L34 49L34 50L35 50L35 51L36 51L36 52L38 52L38 51L36 51L36 48L37 48L37 47L36 47L36 46L35 46L35 39L36 39L36 40L39 40L39 41L38 41L38 42L37 42L37 41L36 41L36 43L38 43L38 44L37 44L37 46L39 46L39 47L38 47L38 48L40 48L40 49L37 49L37 50L40 50L40 51L39 51L39 52L40 52L40 51L41 51L41 50L42 50L42 52L43 52L43 50L42 50L42 49L41 49L41 48L40 48L40 47L41 47L41 46L42 46L42 47L43 47L43 48L44 48L44 47L45 47L45 44L44 44L44 43L46 43L46 42L48 42L48 43L49 43L49 41L51 41L51 42L50 42L50 43L51 43L51 42L53 42L53 43L52 43L52 44L51 44L51 45L52 45L52 44L53 44L53 43L54 43L54 41L51 41L51 40L49 40L49 39L48 39L48 37L50 37L50 39L51 39L51 38L52 38L52 39L53 39L53 38L54 38L54 37L51 37L51 36L52 36L52 34L53 34L53 35L54 35L54 34L53 34L53 33L51 33L51 34L50 34L50 32L49 32L49 31L48 31L48 26L47 26L47 25L49 25L49 26L51 26L51 25L50 25L50 24L52 24L52 26L53 26L53 27L55 27L55 28L54 28L54 29L53 29L53 30L56 30L56 29L55 29L55 28L56 28L56 27L55 27L55 26L54 26L54 25L53 25L53 24L54 24L54 23L55 23L55 20L54 20L54 23L53 23L53 20L52 20L52 21L51 21L51 17L53 17L53 18L52 18L52 19L53 19L53 18L54 18L54 17L55 17L55 16L56 16L56 15L55 15L55 16L54 16L54 13L55 13L55 14L56 14L56 13L55 13L55 12L54 12L54 11L53 11L53 12L52 12L52 11L50 11L50 10L49 10L49 12L47 12L47 11L48 11L48 10L47 10L47 9L49 9L49 8L46 8L46 6L45 6L45 5L44 5L44 4L46 4L46 5L47 5L47 3L43 3L43 5L42 5L42 4L41 4L41 3ZM13 4L13 5L12 5L12 6L13 6L13 8L14 8L14 10L17 10L17 11L18 11L18 9L17 9L17 7L16 7L16 9L15 9L15 8L14 8L14 4ZM21 4L21 5L22 5L22 4ZM23 4L23 5L24 5L24 4ZM40 4L40 5L41 5L41 6L40 6L40 7L39 7L39 6L38 6L38 9L39 9L39 11L40 11L40 12L39 12L39 14L40 14L40 12L41 12L41 11L40 11L40 10L42 10L42 14L41 14L41 15L39 15L39 16L41 16L41 17L40 17L40 18L38 18L38 17L37 17L37 16L36 16L36 17L37 17L37 18L38 18L38 20L36 20L36 21L37 21L37 22L36 22L36 23L35 23L35 22L34 22L34 23L35 23L35 26L33 26L33 25L32 25L32 26L33 26L33 27L34 27L34 28L33 28L33 29L32 29L32 30L33 30L33 31L31 31L31 32L30 32L30 33L29 33L29 34L30 34L30 35L29 35L29 39L31 39L31 38L32 38L32 35L33 35L33 36L35 36L35 34L34 34L34 33L36 33L36 35L38 35L38 36L36 36L36 39L37 39L37 37L38 37L38 36L39 36L39 38L38 38L38 39L39 39L39 38L40 38L40 36L42 36L42 35L41 35L41 34L44 34L44 32L45 32L45 34L46 34L46 35L45 35L45 36L48 36L48 35L49 35L49 34L48 34L48 33L47 33L47 34L46 34L46 32L45 32L45 30L46 30L46 31L47 31L47 32L48 32L48 31L47 31L47 30L46 30L46 29L47 29L47 28L46 28L46 27L47 27L47 26L45 26L45 25L44 25L44 24L45 24L45 23L46 23L46 22L45 22L45 21L44 21L44 24L42 24L42 25L40 25L40 24L41 24L41 23L40 23L40 22L38 22L38 20L39 20L39 21L40 21L40 20L42 20L42 21L41 21L41 22L42 22L42 23L43 23L43 20L46 20L46 21L47 21L47 24L46 24L46 25L47 25L47 24L49 24L49 22L50 22L50 23L51 23L51 22L50 22L50 17L51 17L51 16L50 16L50 15L51 15L51 14L52 14L52 13L51 13L51 12L50 12L50 13L51 13L51 14L49 14L49 13L47 13L47 14L46 14L46 12L45 12L45 10L44 10L44 8L45 8L45 6L44 6L44 7L43 7L43 6L42 6L42 5L41 5L41 4ZM19 5L19 7L20 7L20 5ZM27 5L27 8L30 8L30 5ZM21 6L21 7L22 7L22 8L20 8L20 11L22 11L22 10L23 10L23 9L24 9L24 6L23 6L23 7L22 7L22 6ZM28 6L28 7L29 7L29 6ZM36 6L36 7L37 7L37 6ZM41 6L41 7L42 7L42 6ZM0 8L0 11L1 11L1 9L5 9L5 8ZM39 8L39 9L42 9L42 8ZM53 8L53 9L54 9L54 8ZM55 8L55 9L56 9L56 10L57 10L57 9L56 9L56 8ZM6 10L6 11L7 11L7 10ZM46 10L46 11L47 11L47 10ZM43 11L43 12L44 12L44 13L43 13L43 14L42 14L42 15L43 15L43 16L42 16L42 17L43 17L43 18L40 18L40 19L39 19L39 20L40 20L40 19L43 19L43 18L44 18L44 19L46 19L46 20L47 20L47 19L49 19L49 18L47 18L47 17L48 17L48 16L49 16L49 17L50 17L50 16L49 16L49 15L45 15L45 12L44 12L44 11ZM31 12L31 14L30 14L30 13L28 13L28 14L27 14L27 16L28 16L28 15L29 15L29 14L30 14L30 16L33 16L33 15L32 15L32 14L33 14L33 13L32 13L32 12ZM21 13L21 14L22 14L22 13ZM0 14L0 16L1 16L1 14ZM14 14L14 15L15 15L15 21L16 21L16 22L15 22L15 23L16 23L16 24L14 24L14 23L13 23L13 22L14 22L14 21L13 21L13 20L14 20L14 19L13 19L13 20L12 20L12 23L13 23L13 24L12 24L12 25L11 25L11 27L13 27L13 26L14 26L14 27L15 27L15 26L14 26L14 25L19 25L19 26L20 26L20 25L21 25L21 27L19 27L19 29L18 29L18 31L16 31L16 33L15 33L15 35L14 35L14 36L16 36L16 35L17 35L17 34L18 34L18 35L19 35L19 34L18 34L18 33L19 33L19 31L21 31L21 30L19 30L19 29L22 29L22 28L21 28L21 27L22 27L22 25L21 25L21 24L20 24L20 25L19 25L19 23L20 23L20 22L19 22L19 23L17 23L17 22L18 22L18 21L20 21L20 20L21 20L21 21L22 21L22 22L21 22L21 23L22 23L22 22L24 22L24 21L22 21L22 20L21 20L21 19L19 19L19 18L16 18L16 17L19 17L19 15L18 15L18 16L16 16L16 15L17 15L17 14ZM12 15L12 16L13 16L13 17L14 17L14 16L13 16L13 15ZM44 15L44 16L43 16L43 17L44 17L44 16L45 16L45 15ZM52 15L52 16L53 16L53 17L54 17L54 16L53 16L53 15ZM45 17L45 18L46 18L46 19L47 19L47 18L46 18L46 17ZM9 18L9 19L10 19L10 20L11 20L11 19L12 19L12 18L11 18L11 19L10 19L10 18ZM2 19L2 20L3 20L3 21L2 21L2 22L3 22L3 21L5 21L5 20L7 20L7 19L5 19L5 20L3 20L3 19ZM17 19L17 20L16 20L16 21L18 21L18 20L19 20L19 19ZM27 19L27 20L28 20L28 19ZM0 23L0 25L3 25L3 24L1 24L1 23ZM23 23L23 24L24 24L24 23ZM38 23L38 24L37 24L37 25L38 25L38 26L39 26L39 24L40 24L40 23ZM52 23L52 24L53 24L53 23ZM13 24L13 25L14 25L14 24ZM27 24L27 25L28 25L28 24ZM43 25L43 26L44 26L44 27L45 27L45 26L44 26L44 25ZM17 26L17 27L18 27L18 26ZM40 26L40 27L35 27L35 28L40 28L40 29L38 29L38 30L37 30L37 29L36 29L36 30L35 30L35 29L33 29L33 30L35 30L35 31L34 31L34 32L37 32L37 31L38 31L38 33L37 33L37 34L39 34L39 33L40 33L40 34L41 34L41 32L42 32L42 33L43 33L43 32L44 32L44 31L43 31L43 30L44 30L44 29L45 29L45 28L42 28L42 26ZM5 27L5 30L8 30L8 27ZM27 27L27 30L30 30L30 27ZM40 27L40 28L41 28L41 27ZM49 27L49 30L52 30L52 27ZM6 28L6 29L7 29L7 28ZM28 28L28 29L29 29L29 28ZM50 28L50 29L51 29L51 28ZM0 29L0 30L1 30L1 29ZM42 29L42 30L41 30L41 31L39 31L39 32L41 32L41 31L42 31L42 32L43 32L43 31L42 31L42 30L43 30L43 29ZM36 30L36 31L37 31L37 30ZM2 31L2 32L1 32L1 33L2 33L2 32L3 32L3 33L4 33L4 31ZM13 31L13 32L14 32L14 31ZM52 31L52 32L54 32L54 33L55 33L55 32L54 32L54 31ZM20 32L20 33L21 33L21 34L20 34L20 35L23 35L23 34L22 34L22 33L21 33L21 32ZM31 32L31 35L32 35L32 34L33 34L33 35L34 35L34 34L33 34L33 32ZM16 33L16 34L17 34L17 33ZM2 34L2 35L3 35L3 34ZM25 34L25 35L24 35L24 36L23 36L23 37L22 37L22 36L21 36L21 37L19 37L19 36L18 36L18 37L17 37L17 41L19 41L19 40L20 40L20 41L21 41L21 40L22 40L22 39L21 39L21 37L22 37L22 38L23 38L23 39L24 39L24 40L25 40L25 36L27 36L27 35L26 35L26 34ZM39 35L39 36L40 36L40 35ZM43 35L43 37L41 37L41 38L43 38L43 37L44 37L44 38L45 38L45 37L44 37L44 35ZM50 35L50 36L51 36L51 35ZM30 36L30 38L31 38L31 36ZM14 37L14 39L13 39L13 38L12 38L12 39L13 39L13 40L14 40L14 39L15 39L15 40L16 40L16 39L15 39L15 38L16 38L16 37ZM18 37L18 38L19 38L19 39L18 39L18 40L19 40L19 39L20 39L20 38L19 38L19 37ZM23 37L23 38L24 38L24 37ZM27 37L27 38L26 38L26 40L28 40L28 39L27 39L27 38L28 38L28 37ZM1 38L1 39L2 39L2 38ZM33 38L33 39L32 39L32 40L33 40L33 39L35 39L35 38ZM42 39L42 40L41 40L41 42L40 42L40 43L39 43L39 44L43 44L43 45L42 45L42 46L43 46L43 47L44 47L44 46L43 46L43 45L44 45L44 44L43 44L43 41L44 41L44 42L45 42L45 41L44 41L44 39ZM45 39L45 40L46 40L46 39ZM30 40L30 41L29 41L29 42L28 42L28 43L33 43L33 44L34 44L34 43L33 43L33 42L32 42L32 41L31 41L31 40ZM7 41L7 42L8 42L8 43L9 43L9 44L10 44L10 43L9 43L9 42L8 42L8 41ZM26 41L26 42L27 42L27 41ZM30 41L30 42L31 42L31 41ZM41 42L41 43L42 43L42 42ZM24 43L24 44L25 44L25 45L24 45L24 46L23 46L23 47L22 47L22 45L21 45L21 47L22 47L22 48L23 48L23 47L24 47L24 46L25 46L25 45L26 45L26 44L27 44L27 43L26 43L26 44L25 44L25 43ZM14 44L14 45L12 45L12 47L13 47L13 46L14 46L14 45L15 45L15 44ZM28 44L28 45L27 45L27 46L26 46L26 47L27 47L27 46L28 46L28 45L29 45L29 44ZM54 44L54 45L55 45L55 46L56 46L56 45L55 45L55 44ZM39 45L39 46L40 46L40 45ZM1 46L1 47L2 47L2 46ZM19 47L19 48L20 48L20 49L21 49L21 48L20 48L20 47ZM35 47L35 48L36 48L36 47ZM6 48L6 49L7 49L7 48ZM46 48L46 49L47 49L47 48ZM54 48L54 49L56 49L56 48ZM27 49L27 52L30 52L30 49ZM40 49L40 50L41 50L41 49ZM49 49L49 52L52 52L52 49ZM28 50L28 51L29 51L29 50ZM50 50L50 51L51 51L51 50ZM13 51L13 54L14 54L14 52L15 52L15 51ZM15 53L15 54L16 54L16 53ZM48 53L48 54L49 54L49 55L50 55L50 54L51 54L51 55L54 55L54 54L51 54L51 53ZM27 55L27 56L28 56L28 55ZM0 0L0 7L7 7L7 0ZM1 1L1 6L6 6L6 1ZM2 2L2 5L5 5L5 2ZM50 0L50 7L57 7L57 0ZM51 1L51 6L56 6L56 1ZM52 2L52 5L55 5L55 2ZM0 50L0 57L7 57L7 50ZM1 51L1 56L6 56L6 51ZM2 52L2 55L5 55L5 52Z" fill="#000000"/></g></g></svg>
