<?xml version="1.0" encoding="UTF-8"?>
<svg xmlns="http://www.w3.org/2000/svg" version="1.1" width="300" height="300" viewBox="0 0 300 300"><rect x="0" y="0" width="300" height="300" fill="#ffffff"/><g transform="scale(4.918)"><g transform="translate(2,2)"><path fill-rule="evenodd" d="M10 0L10 1L8 1L8 2L9 2L9 3L8 3L8 4L9 4L9 5L8 5L8 7L9 7L9 5L10 5L10 4L11 4L11 5L12 5L12 7L11 7L11 6L10 6L10 7L11 7L11 9L9 9L9 8L6 8L6 9L5 9L5 8L0 8L0 9L1 9L1 10L0 10L0 12L1 12L1 13L0 13L0 14L1 14L1 15L0 15L0 16L1 16L1 17L3 17L3 18L4 18L4 19L3 19L3 21L2 21L2 22L3 22L3 21L4 21L4 23L5 23L5 22L6 22L6 23L8 23L8 22L9 22L9 24L6 24L6 25L5 25L5 24L3 24L3 25L2 25L2 24L1 24L1 20L2 20L2 19L1 19L1 18L0 18L0 19L1 19L1 20L0 20L0 24L1 24L1 25L0 25L0 29L1 29L1 30L2 30L2 29L3 29L3 31L1 31L1 32L0 32L0 33L2 33L2 32L3 32L3 31L4 31L4 32L6 32L6 33L3 33L3 34L4 34L4 35L5 35L5 38L4 38L4 37L3 37L3 38L4 38L4 39L5 39L5 40L6 40L6 41L7 41L7 42L4 42L4 40L3 40L3 41L2 41L2 40L1 40L1 39L2 39L2 37L0 37L0 43L3 43L3 42L4 42L4 44L5 44L5 43L7 43L7 42L10 42L10 43L9 43L9 44L11 44L11 43L12 43L12 44L13 44L13 43L15 43L15 44L14 44L14 45L15 45L15 44L16 44L16 45L17 45L17 46L15 46L15 48L14 48L14 46L13 46L13 45L8 45L8 46L6 46L6 45L7 45L7 44L6 44L6 45L4 45L4 46L5 46L5 47L3 47L3 44L1 44L1 46L0 46L0 48L5 48L5 47L8 47L8 48L9 48L9 47L13 47L13 48L12 48L12 49L14 49L14 51L13 51L13 53L11 53L11 54L10 54L10 53L9 53L9 52L11 52L11 51L10 51L10 49L11 49L11 48L10 48L10 49L8 49L8 51L9 51L9 52L8 52L8 57L11 57L11 56L9 56L9 54L10 54L10 55L11 55L11 54L13 54L13 53L14 53L14 51L15 51L15 53L16 53L16 54L15 54L15 55L16 55L16 57L17 57L17 53L16 53L16 52L17 52L17 51L18 51L18 53L20 53L20 52L21 52L21 51L18 51L18 49L19 49L19 48L20 48L20 49L21 49L21 50L23 50L23 51L25 51L25 49L22 49L22 48L23 48L23 47L22 47L22 45L24 45L24 47L25 47L25 48L26 48L26 53L25 53L25 52L24 52L24 53L21 53L21 54L24 54L24 53L25 53L25 54L27 54L27 53L28 53L28 54L30 54L30 53L31 53L31 56L30 56L30 55L29 55L29 56L30 56L30 57L32 57L32 56L33 56L33 57L39 57L39 56L41 56L41 57L44 57L44 56L43 56L43 53L44 53L44 54L46 54L46 55L49 55L49 56L45 56L45 57L50 57L50 53L51 53L51 54L53 54L53 55L51 55L51 57L52 57L52 56L55 56L55 57L56 57L56 56L55 56L55 53L53 53L53 51L54 51L54 52L57 52L57 51L56 51L56 50L57 50L57 47L56 47L56 46L57 46L57 45L56 45L56 44L57 44L57 43L56 43L56 42L57 42L57 41L56 41L56 42L55 42L55 39L57 39L57 37L56 37L56 36L55 36L55 35L56 35L56 34L57 34L57 33L56 33L56 34L55 34L55 33L54 33L54 32L56 32L56 30L57 30L57 29L55 29L55 30L54 30L54 32L51 32L51 31L53 31L53 29L54 29L54 28L56 28L56 26L57 26L57 25L54 25L54 24L56 24L56 22L57 22L57 21L56 21L56 20L55 20L55 19L56 19L56 18L57 18L57 17L56 17L56 16L55 16L55 15L56 15L56 14L57 14L57 12L56 12L56 8L55 8L55 11L54 11L54 10L53 10L53 11L52 11L52 10L50 10L50 8L49 8L49 9L48 9L48 8L46 8L46 7L47 7L47 5L48 5L48 0L45 0L45 1L47 1L47 2L42 2L42 1L44 1L44 0L42 0L42 1L41 1L41 2L39 2L39 1L40 1L40 0L39 0L39 1L33 1L33 0L28 0L28 3L27 3L27 4L26 4L26 3L23 3L23 4L19 4L19 3L18 3L18 2L20 2L20 0L19 0L19 1L18 1L18 0L17 0L17 3L18 3L18 4L17 4L17 5L18 5L18 7L17 7L17 6L16 6L16 7L15 7L15 6L14 6L14 5L16 5L16 4L14 4L14 3L15 3L15 2L16 2L16 1L15 1L15 0L14 0L14 1L13 1L13 0ZM21 0L21 1L23 1L23 2L27 2L27 1L26 1L26 0ZM10 1L10 3L11 3L11 4L12 4L12 5L14 5L14 4L12 4L12 3L13 3L13 1ZM14 1L14 2L15 2L15 1ZM29 1L29 3L28 3L28 4L29 4L29 3L30 3L30 2L33 2L33 3L32 3L32 4L31 4L31 7L32 7L32 8L31 8L31 9L32 9L32 10L31 10L31 11L30 11L30 12L28 12L28 13L26 13L26 14L25 14L25 15L24 15L24 13L25 13L25 12L27 12L27 11L26 11L26 10L27 10L27 9L25 9L25 8L26 8L26 4L25 4L25 8L24 8L24 6L23 6L23 7L22 7L22 6L21 6L21 7L22 7L22 8L19 8L19 9L16 9L16 8L17 8L17 7L16 7L16 8L15 8L15 7L14 7L14 6L13 6L13 8L12 8L12 9L13 9L13 8L14 8L14 10L16 10L16 11L15 11L15 12L17 12L17 13L13 13L13 12L14 12L14 11L13 11L13 10L11 10L11 11L9 11L9 10L8 10L8 11L9 11L9 12L8 12L8 16L9 16L9 13L10 13L10 12L11 12L11 14L10 14L10 18L11 18L11 17L12 17L12 18L13 18L13 19L14 19L14 20L11 20L11 19L8 19L8 18L9 18L9 17L8 17L8 18L7 18L7 17L6 17L6 16L7 16L7 15L4 15L4 17L5 17L5 19L4 19L4 20L5 20L5 21L6 21L6 22L8 22L8 20L9 20L9 21L10 21L10 20L11 20L11 21L12 21L12 22L13 22L13 23L11 23L11 26L12 26L12 24L14 24L14 25L13 25L13 26L14 26L14 25L16 25L16 26L15 26L15 28L18 28L18 29L15 29L15 30L14 30L14 29L13 29L13 28L12 28L12 29L11 29L11 28L10 28L10 29L9 29L9 30L10 30L10 29L11 29L11 30L12 30L12 31L11 31L11 32L13 32L13 33L11 33L11 35L9 35L9 33L6 33L6 34L5 34L5 35L6 35L6 36L7 36L7 35L8 35L8 37L6 37L6 38L5 38L5 39L6 39L6 40L7 40L7 41L8 41L8 40L9 40L9 41L10 41L10 40L11 40L11 41L13 41L13 42L16 42L16 43L18 43L18 42L19 42L19 41L20 41L20 43L19 43L19 44L21 44L21 45L19 45L19 47L18 47L18 46L17 46L17 47L16 47L16 48L17 48L17 49L16 49L16 50L17 50L17 49L18 49L18 48L19 48L19 47L20 47L20 48L21 48L21 47L20 47L20 46L21 46L21 45L22 45L22 44L21 44L21 43L22 43L22 42L23 42L23 41L25 41L25 43L23 43L23 44L24 44L24 45L25 45L25 46L27 46L27 47L26 47L26 48L27 48L27 47L28 47L28 48L29 48L29 46L30 46L30 44L31 44L31 43L28 43L28 42L29 42L29 40L31 40L31 41L32 41L32 42L33 42L33 41L34 41L34 42L35 42L35 43L34 43L34 44L33 44L33 43L32 43L32 45L31 45L31 47L33 47L33 46L35 46L35 47L34 47L34 48L31 48L31 49L34 49L34 50L32 50L32 51L31 51L31 52L32 52L32 54L33 54L33 55L34 55L34 56L37 56L37 55L39 55L39 52L40 52L40 55L42 55L42 54L41 54L41 53L42 53L42 52L43 52L43 50L44 50L44 53L45 53L45 52L46 52L46 50L47 50L47 51L48 51L48 48L50 48L50 47L51 47L51 46L53 46L53 47L52 47L52 48L54 48L54 49L55 49L55 50L56 50L56 49L55 49L55 48L56 48L56 47L55 47L55 46L56 46L56 45L55 45L55 44L56 44L56 43L55 43L55 44L54 44L54 45L55 45L55 46L53 46L53 45L51 45L51 44L50 44L50 45L49 45L49 44L47 44L47 45L46 45L46 46L47 46L47 47L46 47L46 48L47 48L47 49L46 49L46 50L44 50L44 49L45 49L45 48L43 48L43 50L41 50L41 49L42 49L42 48L40 48L40 46L42 46L42 47L44 47L44 46L45 46L45 44L44 44L44 45L43 45L43 44L41 44L41 43L42 43L42 42L40 42L40 41L41 41L41 40L40 40L40 39L43 39L43 40L44 40L44 41L45 41L45 42L44 42L44 43L49 43L49 41L52 41L52 42L53 42L53 43L52 43L52 44L53 44L53 43L54 43L54 41L52 41L52 40L53 40L53 39L55 39L55 38L54 38L54 37L55 37L55 36L53 36L53 37L52 37L52 34L53 34L53 35L55 35L55 34L54 34L54 33L50 33L50 35L46 35L46 34L47 34L47 33L48 33L48 34L49 34L49 32L50 32L50 31L48 31L48 28L47 28L47 27L46 27L46 26L48 26L48 25L50 25L50 26L53 26L53 27L55 27L55 26L54 26L54 25L53 25L53 24L54 24L54 23L55 23L55 22L53 22L53 24L51 24L51 23L50 23L50 22L51 22L51 19L53 19L53 16L54 16L54 17L55 17L55 18L56 18L56 17L55 17L55 16L54 16L54 15L55 15L55 14L54 14L54 13L56 13L56 12L54 12L54 11L53 11L53 12L52 12L52 11L50 11L50 10L49 10L49 12L47 12L47 11L48 11L48 9L46 9L46 8L45 8L45 7L46 7L46 6L45 6L45 5L44 5L44 4L46 4L46 5L47 5L47 3L42 3L42 4L43 4L43 7L44 7L44 9L43 9L43 12L44 12L44 13L45 13L45 12L46 12L46 14L47 14L47 13L50 13L50 14L49 14L49 15L45 15L45 16L39 16L39 14L42 14L42 15L43 15L43 14L42 14L42 10L40 10L40 12L38 12L38 14L37 14L37 13L33 13L33 12L31 12L31 11L34 11L34 12L35 12L35 10L36 10L36 9L35 9L35 8L34 8L34 9L33 9L33 7L34 7L34 6L33 6L33 5L36 5L36 6L35 6L35 7L36 7L36 8L37 8L37 9L38 9L38 10L37 10L37 11L36 11L36 12L37 12L37 11L38 11L38 10L39 10L39 9L42 9L42 5L41 5L41 3L40 3L40 5L41 5L41 8L39 8L39 9L38 9L38 6L39 6L39 7L40 7L40 6L39 6L39 4L38 4L38 3L39 3L39 2L33 2L33 1ZM11 2L11 3L12 3L12 2ZM33 3L33 4L35 4L35 3ZM36 3L36 5L38 5L38 4L37 4L37 3ZM18 4L18 5L19 5L19 7L20 7L20 5L19 5L19 4ZM23 4L23 5L24 5L24 4ZM27 5L27 8L30 8L30 5ZM28 6L28 7L29 7L29 6ZM32 6L32 7L33 7L33 6ZM36 6L36 7L37 7L37 6ZM44 6L44 7L45 7L45 6ZM48 6L48 7L49 7L49 6ZM23 8L23 9L22 9L22 11L21 11L21 12L20 12L20 9L19 9L19 10L18 10L18 11L17 11L17 12L18 12L18 13L17 13L17 14L18 14L18 15L14 15L14 14L12 14L12 15L11 15L11 16L12 16L12 15L13 15L13 18L15 18L15 17L19 17L19 18L17 18L17 20L18 20L18 21L20 21L20 20L22 20L22 19L20 19L20 20L18 20L18 19L19 19L19 18L20 18L20 17L21 17L21 18L23 18L23 19L25 19L25 20L24 20L24 21L21 21L21 24L24 24L24 25L23 25L23 27L26 27L26 30L25 30L25 29L24 29L24 28L23 28L23 29L24 29L24 31L23 31L23 30L21 30L21 31L23 31L23 32L25 32L25 33L22 33L22 32L20 32L20 31L18 31L18 33L19 33L19 34L18 34L18 35L19 35L19 34L20 34L20 35L22 35L22 36L21 36L21 37L19 37L19 36L18 36L18 37L19 37L19 38L17 38L17 39L18 39L18 40L16 40L16 39L15 39L15 40L14 40L14 38L16 38L16 37L14 37L14 36L13 36L13 35L11 35L11 36L13 36L13 37L10 37L10 36L9 36L9 37L10 37L10 38L8 38L8 39L9 39L9 40L10 40L10 38L11 38L11 40L12 40L12 39L13 39L13 41L19 41L19 40L20 40L20 41L21 41L21 39L22 39L22 40L23 40L23 39L24 39L24 40L25 40L25 39L27 39L27 41L26 41L26 42L27 42L27 41L28 41L28 39L27 39L27 38L28 38L28 37L26 37L26 36L27 36L27 35L26 35L26 34L25 34L25 33L29 33L29 34L30 34L30 35L29 35L29 39L31 39L31 38L32 38L32 34L34 34L34 35L33 35L33 36L34 36L34 37L33 37L33 38L34 38L34 40L35 40L35 42L37 42L37 40L39 40L39 41L40 41L40 40L39 40L39 39L40 39L40 38L38 38L38 37L37 37L37 36L36 36L36 40L35 40L35 38L34 38L34 37L35 37L35 36L34 36L34 35L35 35L35 34L34 34L34 33L35 33L35 32L36 32L36 33L37 33L37 34L36 34L36 35L37 35L37 34L38 34L38 36L39 36L39 37L40 37L40 36L41 36L41 35L40 35L40 36L39 36L39 34L38 34L38 32L36 32L36 30L37 30L37 31L39 31L39 32L41 32L41 31L42 31L42 32L45 32L45 31L42 31L42 30L43 30L43 29L44 29L44 30L46 30L46 31L47 31L47 32L46 32L46 33L45 33L45 34L46 34L46 33L47 33L47 32L48 32L48 31L47 31L47 30L46 30L46 29L47 29L47 28L46 28L46 27L45 27L45 26L46 26L46 24L47 24L47 25L48 25L48 24L50 24L50 25L51 25L51 24L50 24L50 23L48 23L48 22L50 22L50 19L51 19L51 18L52 18L52 17L51 17L51 16L52 16L52 15L49 15L49 16L50 16L50 17L48 17L48 16L47 16L47 18L46 18L46 17L45 17L45 18L44 18L44 17L40 17L40 18L38 18L38 16L36 16L36 15L37 15L37 14L32 14L32 15L31 15L31 14L30 14L30 13L28 13L28 14L27 14L27 16L26 16L26 15L25 15L25 16L26 16L26 17L27 17L27 18L26 18L26 19L25 19L25 17L21 17L21 16L20 16L20 17L19 17L19 16L18 16L18 15L20 15L20 14L19 14L19 13L21 13L21 15L23 15L23 14L22 14L22 13L24 13L24 12L25 12L25 11L24 11L24 12L23 12L23 9L24 9L24 10L25 10L25 9L24 9L24 8ZM51 8L51 9L52 9L52 8ZM53 8L53 9L54 9L54 8ZM3 9L3 10L1 10L1 12L2 12L2 13L1 13L1 14L2 14L2 13L5 13L5 14L7 14L7 13L5 13L5 12L7 12L7 11L5 11L5 9ZM6 9L6 10L7 10L7 9ZM3 10L3 11L4 11L4 10ZM28 10L28 11L29 11L29 10ZM44 10L44 11L45 11L45 10ZM21 12L21 13L22 13L22 12ZM50 12L50 13L51 13L51 14L52 14L52 13L51 13L51 12ZM29 14L29 15L28 15L28 16L27 16L27 17L28 17L28 16L29 16L29 17L32 17L32 19L33 19L33 20L32 20L32 21L33 21L33 22L34 22L34 24L33 24L33 23L31 23L31 22L30 22L30 20L27 20L27 19L28 19L28 18L27 18L27 19L26 19L26 20L27 20L27 21L29 21L29 22L30 22L30 23L29 23L29 24L28 24L28 23L27 23L27 24L25 24L25 23L26 23L26 22L25 22L25 21L24 21L24 22L22 22L22 23L24 23L24 24L25 24L25 26L26 26L26 25L27 25L27 24L28 24L28 26L30 26L30 23L31 23L31 24L33 24L33 25L34 25L34 26L33 26L33 28L32 28L32 27L31 27L31 28L32 28L32 29L31 29L31 31L30 31L30 32L29 32L29 31L25 31L25 32L29 32L29 33L30 33L30 32L31 32L31 34L32 34L32 33L34 33L34 32L35 32L35 31L34 31L34 32L31 32L31 31L33 31L33 30L35 30L35 29L36 29L36 28L37 28L37 30L39 30L39 31L41 31L41 30L42 30L42 29L43 29L43 28L44 28L44 29L45 29L45 28L44 28L44 27L43 27L43 28L42 28L42 27L41 27L41 25L43 25L43 24L44 24L44 26L45 26L45 24L44 24L44 21L45 21L45 22L47 22L47 21L48 21L48 20L49 20L49 19L50 19L50 18L51 18L51 17L50 17L50 18L49 18L49 19L48 19L48 20L46 20L46 21L45 21L45 20L43 20L43 24L41 24L41 22L40 22L40 23L39 23L39 24L38 24L38 27L37 27L37 26L36 26L36 28L35 28L35 29L33 29L33 28L34 28L34 26L35 26L35 25L36 25L36 24L37 24L37 23L36 23L36 22L37 22L37 21L38 21L38 22L39 22L39 21L38 21L38 20L40 20L40 21L42 21L42 20L40 20L40 19L44 19L44 18L40 18L40 19L38 19L38 18L37 18L37 17L36 17L36 16L35 16L35 15L33 15L33 16L30 16L30 14ZM53 14L53 15L54 15L54 14ZM1 15L1 16L3 16L3 15ZM14 16L14 17L15 17L15 16ZM35 17L35 18L33 18L33 19L34 19L34 20L33 20L33 21L35 21L35 19L37 19L37 20L36 20L36 21L37 21L37 20L38 20L38 19L37 19L37 18L36 18L36 17ZM6 18L6 19L7 19L7 20L6 20L6 21L7 21L7 20L8 20L8 19L7 19L7 18ZM29 18L29 19L31 19L31 18ZM45 18L45 19L46 19L46 18ZM15 20L15 21L16 21L16 22L15 22L15 23L16 23L16 25L17 25L17 26L16 26L16 27L18 27L18 26L19 26L19 27L20 27L20 28L19 28L19 29L18 29L18 30L19 30L19 29L22 29L22 28L21 28L21 27L22 27L22 25L21 25L21 27L20 27L20 25L19 25L19 24L18 24L18 23L20 23L20 22L17 22L17 21L16 21L16 20ZM52 20L52 21L53 21L53 20ZM54 20L54 21L55 21L55 20ZM13 21L13 22L14 22L14 21ZM35 23L35 24L36 24L36 23ZM47 23L47 24L48 24L48 23ZM6 25L6 26L8 26L8 25ZM9 25L9 27L10 27L10 25ZM31 25L31 26L32 26L32 25ZM39 26L39 27L40 27L40 26ZM1 27L1 29L2 29L2 27ZM5 27L5 30L8 30L8 27ZM27 27L27 30L30 30L30 27ZM49 27L49 30L52 30L52 27ZM6 28L6 29L7 29L7 28ZM28 28L28 29L29 29L29 28ZM38 28L38 29L39 29L39 30L40 30L40 29L39 29L39 28ZM50 28L50 29L51 29L51 28ZM12 29L12 30L13 30L13 29ZM32 29L32 30L33 30L33 29ZM16 30L16 31L13 31L13 32L14 32L14 34L15 34L15 36L16 36L16 35L17 35L17 34L15 34L15 33L17 33L17 32L16 32L16 31L17 31L17 30ZM6 31L6 32L8 32L8 31ZM9 31L9 32L10 32L10 31ZM19 32L19 33L20 33L20 34L21 34L21 33L20 33L20 32ZM41 33L41 34L43 34L43 33ZM0 34L0 36L1 36L1 34ZM6 34L6 35L7 35L7 34ZM22 34L22 35L23 35L23 36L22 36L22 37L21 37L21 38L22 38L22 39L23 39L23 38L24 38L24 37L23 37L23 36L26 36L26 35L23 35L23 34ZM2 35L2 36L3 36L3 35ZM42 35L42 37L41 37L41 38L43 38L43 37L44 37L44 38L45 38L45 39L44 39L44 40L45 40L45 39L46 39L46 38L45 38L45 37L44 37L44 35ZM45 35L45 36L46 36L46 37L47 37L47 38L48 38L48 39L50 39L50 40L52 40L52 39L50 39L50 38L52 38L52 37L50 37L50 36L48 36L48 37L47 37L47 36L46 36L46 35ZM30 36L30 38L31 38L31 36ZM22 37L22 38L23 38L23 37ZM25 37L25 38L26 38L26 37ZM49 37L49 38L50 38L50 37ZM6 38L6 39L7 39L7 38ZM19 38L19 39L20 39L20 38ZM46 40L46 41L47 41L47 40ZM1 41L1 42L2 42L2 41ZM38 42L38 43L36 43L36 44L35 44L35 45L37 45L37 46L38 46L38 45L39 45L39 44L38 44L38 43L40 43L40 42ZM50 42L50 43L51 43L51 42ZM26 43L26 44L25 44L25 45L26 45L26 44L28 44L28 45L27 45L27 46L28 46L28 45L29 45L29 44L28 44L28 43ZM17 44L17 45L18 45L18 44ZM32 45L32 46L33 46L33 45ZM42 45L42 46L43 46L43 45ZM50 45L50 46L49 46L49 47L50 47L50 46L51 46L51 45ZM1 46L1 47L2 47L2 46ZM54 47L54 48L55 48L55 47ZM6 48L6 49L7 49L7 48ZM35 48L35 49L38 49L38 48ZM39 48L39 49L40 49L40 48ZM27 49L27 52L30 52L30 49ZM49 49L49 52L52 52L52 49ZM28 50L28 51L29 51L29 50ZM34 50L34 51L35 51L35 52L33 52L33 51L32 51L32 52L33 52L33 54L34 54L34 55L37 55L37 54L38 54L38 53L37 53L37 52L36 52L36 51L38 51L38 52L39 52L39 50ZM50 50L50 51L51 51L51 50ZM40 51L40 52L41 52L41 51ZM35 52L35 53L34 53L34 54L36 54L36 52ZM47 52L47 53L46 53L46 54L48 54L48 52ZM19 54L19 55L18 55L18 57L19 57L19 55L20 55L20 54ZM23 55L23 57L26 57L26 56L28 56L28 55L26 55L26 56L24 56L24 55ZM12 56L12 57L13 57L13 56ZM14 56L14 57L15 57L15 56ZM0 0L0 7L7 7L7 0ZM1 1L1 6L6 6L6 1ZM2 2L2 5L5 5L5 2ZM50 0L50 7L57 7L57 0ZM51 1L51 6L56 6L56 1ZM52 2L52 5L55 5L55 2ZM0 50L0 57L7 57L7 50ZM1 51L1 56L6 56L6 51ZM2 52L2 55L5 55L5 52Z" fill="#000000"/></g></g></svg>
