<?xml version="1.0" encoding="UTF-8"?>
<svg xmlns="http://www.w3.org/2000/svg" version="1.1" width="300" height="300" viewBox="0 0 300 300"><rect x="0" y="0" width="300" height="300" fill="#ffffff"/><g transform="scale(4.918)"><g transform="translate(2,2)"><path fill-rule="evenodd" d="M9 0L9 1L8 1L8 2L9 2L9 3L8 3L8 4L9 4L9 5L8 5L8 7L9 7L9 8L6 8L6 9L5 9L5 8L0 8L0 9L1 9L1 10L0 10L0 12L1 12L1 11L2 11L2 14L5 14L5 18L4 18L4 16L3 16L3 15L2 15L2 17L1 17L1 15L0 15L0 20L2 20L2 19L3 19L3 20L6 20L6 21L8 21L8 22L6 22L6 23L5 23L5 21L4 21L4 23L3 23L3 21L0 21L0 22L1 22L1 23L2 23L2 25L1 25L1 26L0 26L0 27L1 27L1 29L0 29L0 31L1 31L1 32L0 32L0 33L1 33L1 32L2 32L2 35L1 35L1 34L0 34L0 35L1 35L1 36L0 36L0 39L1 39L1 40L3 40L3 41L4 41L4 42L2 42L2 43L0 43L0 44L2 44L2 45L4 45L4 46L5 46L5 47L3 47L3 46L2 46L2 47L1 47L1 45L0 45L0 48L5 48L5 47L7 47L7 46L5 46L5 45L10 45L10 44L11 44L11 43L12 43L12 44L13 44L13 47L12 47L12 49L11 49L11 50L12 50L12 51L9 51L9 49L8 49L8 51L9 51L9 52L8 52L8 57L11 57L11 55L12 55L12 56L14 56L14 50L15 50L15 52L17 52L17 51L18 51L18 53L19 53L19 54L20 54L20 55L19 55L19 56L18 56L18 54L17 54L17 56L16 56L16 55L15 55L15 57L19 57L19 56L21 56L21 55L22 55L22 56L23 56L23 57L24 57L24 56L25 56L25 55L26 55L26 54L27 54L27 53L28 53L28 54L29 54L29 55L30 55L30 56L29 56L29 57L31 57L31 55L33 55L33 54L34 54L34 56L35 56L35 57L37 57L37 56L38 56L38 57L39 57L39 56L38 56L38 55L37 55L37 54L38 54L38 53L39 53L39 55L40 55L40 56L41 56L41 57L44 57L44 56L43 56L43 55L42 55L42 54L43 54L43 53L44 53L44 54L45 54L45 57L50 57L50 53L51 53L51 54L55 54L55 53L53 53L53 51L54 51L54 52L56 52L56 53L57 53L57 52L56 52L56 51L55 51L55 50L57 50L57 47L56 47L56 46L57 46L57 45L56 45L56 46L55 46L55 45L54 45L54 44L55 44L55 42L57 42L57 41L54 41L54 43L53 43L53 42L52 42L52 41L53 41L53 40L55 40L55 39L57 39L57 37L56 37L56 36L57 36L57 35L56 35L56 34L57 34L57 33L56 33L56 34L55 34L55 33L54 33L54 34L55 34L55 35L53 35L53 34L52 34L52 36L51 36L51 37L50 37L50 36L48 36L48 33L47 33L47 32L48 32L48 31L49 31L49 35L50 35L50 33L53 33L53 32L56 32L56 30L57 30L57 29L54 29L54 28L55 28L55 27L56 27L56 26L55 26L55 25L54 25L54 24L55 24L55 23L56 23L56 22L57 22L57 21L55 21L55 22L54 22L54 20L55 20L55 18L57 18L57 17L56 17L56 16L55 16L55 15L56 15L56 14L57 14L57 11L56 11L56 10L57 10L57 9L56 9L56 8L55 8L55 9L56 9L56 10L55 10L55 11L54 11L54 10L53 10L53 11L52 11L52 10L50 10L50 8L49 8L49 9L47 9L47 10L46 10L46 8L47 8L47 5L48 5L48 0L42 0L42 1L41 1L41 0L39 0L39 1L36 1L36 0L35 0L35 1L33 1L33 2L32 2L32 1L31 1L31 0L27 0L27 2L25 2L25 1L26 1L26 0L21 0L21 1L23 1L23 2L21 2L21 3L23 3L23 2L25 2L25 3L24 3L24 4L21 4L21 5L24 5L24 4L25 4L25 6L24 6L24 7L23 7L23 6L22 6L22 7L23 7L23 8L24 8L24 7L25 7L25 6L26 6L26 9L27 9L27 10L26 10L26 11L27 11L27 12L25 12L25 11L24 11L24 10L25 10L25 9L21 9L21 11L22 11L22 10L23 10L23 12L25 12L25 13L23 13L23 14L21 14L21 15L23 15L23 16L25 16L25 17L21 17L21 16L20 16L20 15L19 15L19 14L20 14L20 13L22 13L22 12L20 12L20 13L18 13L18 12L17 12L17 11L18 11L18 10L19 10L19 11L20 11L20 8L19 8L19 6L20 6L20 7L21 7L21 6L20 6L20 5L19 5L19 6L18 6L18 8L17 8L17 4L20 4L20 3L17 3L17 4L16 4L16 3L15 3L15 2L20 2L20 0L19 0L19 1L18 1L18 0L17 0L17 1L16 1L16 0L13 0L13 1L12 1L12 2L11 2L11 1L10 1L10 0ZM9 1L9 2L10 2L10 3L9 3L9 4L10 4L10 6L9 6L9 7L10 7L10 8L9 8L9 9L6 9L6 10L7 10L7 11L5 11L5 12L3 12L3 13L5 13L5 12L7 12L7 11L9 11L9 12L8 12L8 13L14 13L14 14L13 14L13 15L12 15L12 14L11 14L11 16L10 16L10 14L9 14L9 16L8 16L8 15L6 15L6 16L7 16L7 17L6 17L6 18L8 18L8 19L6 19L6 20L8 20L8 21L9 21L9 22L12 22L12 24L11 24L11 23L8 23L8 24L9 24L9 25L8 25L8 26L11 26L11 29L10 29L10 30L9 30L9 31L3 31L3 30L2 30L2 29L4 29L4 27L2 27L2 26L1 26L1 27L2 27L2 29L1 29L1 30L2 30L2 32L3 32L3 33L4 33L4 32L5 32L5 33L6 33L6 34L7 34L7 35L6 35L6 36L4 36L4 35L3 35L3 36L2 36L2 37L1 37L1 39L3 39L3 40L4 40L4 38L5 38L5 39L6 39L6 40L7 40L7 41L6 41L6 42L4 42L4 43L3 43L3 44L4 44L4 43L5 43L5 44L7 44L7 43L8 43L8 44L9 44L9 42L10 42L10 43L11 43L11 41L10 41L10 40L12 40L12 41L13 41L13 44L14 44L14 45L15 45L15 46L17 46L17 47L16 47L16 48L17 48L17 49L16 49L16 50L17 50L17 49L18 49L18 51L21 51L21 52L19 52L19 53L21 53L21 54L22 54L22 53L23 53L23 54L24 54L24 53L23 53L23 52L25 52L25 53L26 53L26 49L25 49L25 48L27 48L27 47L28 47L28 48L29 48L29 47L30 47L30 48L31 48L31 49L32 49L32 50L31 50L31 52L32 52L32 54L33 54L33 53L34 53L34 54L36 54L36 53L35 53L35 52L36 52L36 48L37 48L37 50L39 50L39 51L38 51L38 52L40 52L40 55L41 55L41 56L42 56L42 55L41 55L41 53L43 53L43 51L44 51L44 53L45 53L45 54L46 54L46 56L49 56L49 55L48 55L48 54L49 54L49 53L48 53L48 52L47 52L47 51L48 51L48 48L49 48L49 47L53 47L53 48L54 48L54 49L55 49L55 48L56 48L56 47L55 47L55 48L54 48L54 47L53 47L53 46L54 46L54 45L52 45L52 44L53 44L53 43L52 43L52 44L51 44L51 45L50 45L50 44L47 44L47 45L46 45L46 46L47 46L47 47L46 47L46 48L44 48L44 46L45 46L45 44L40 44L40 43L38 43L38 46L36 46L36 45L35 45L35 43L34 43L34 42L36 42L36 43L37 43L37 42L41 42L41 41L42 41L42 40L39 40L39 38L40 38L40 39L41 39L41 37L42 37L42 35L44 35L44 37L43 37L43 38L42 38L42 39L43 39L43 40L44 40L44 41L45 41L45 43L46 43L46 42L47 42L47 43L49 43L49 42L48 42L48 41L52 41L52 40L53 40L53 38L55 38L55 36L53 36L53 37L51 37L51 38L50 38L50 39L48 39L48 38L49 38L49 37L48 37L48 36L47 36L47 35L46 35L46 37L45 37L45 34L47 34L47 33L45 33L45 32L39 32L39 31L36 31L36 29L33 29L33 28L34 28L34 27L33 27L33 25L34 25L34 26L35 26L35 27L36 27L36 28L37 28L37 30L39 30L39 29L40 29L40 31L41 31L41 30L42 30L42 31L43 31L43 30L44 30L44 31L46 31L46 32L47 32L47 31L48 31L48 29L46 29L46 30L44 30L44 29L45 29L45 26L46 26L46 28L47 28L47 27L48 27L48 25L49 25L49 26L51 26L51 25L53 25L53 27L55 27L55 26L54 26L54 25L53 25L53 24L54 24L54 23L53 23L53 24L51 24L51 23L50 23L50 22L51 22L51 18L53 18L53 17L55 17L55 16L53 16L53 15L54 15L54 14L53 14L53 13L56 13L56 11L55 11L55 12L54 12L54 11L53 11L53 12L52 12L52 11L50 11L50 10L49 10L49 12L48 12L48 10L47 10L47 11L46 11L46 10L44 10L44 9L45 9L45 7L46 7L46 6L45 6L45 5L44 5L44 4L46 4L46 5L47 5L47 3L43 3L43 1L42 1L42 2L41 2L41 1L40 1L40 2L41 2L41 3L40 3L40 5L41 5L41 8L40 8L40 6L39 6L39 2L34 2L34 3L32 3L32 4L31 4L31 8L33 8L33 9L34 9L34 10L33 10L33 11L34 11L34 12L35 12L35 11L34 11L34 10L35 10L35 9L36 9L36 10L37 10L37 11L38 11L38 10L39 10L39 12L38 12L38 13L33 13L33 12L32 12L32 11L31 11L31 10L32 10L32 9L31 9L31 10L30 10L30 9L29 9L29 10L28 10L28 11L29 11L29 12L28 12L28 13L25 13L25 14L26 14L26 15L25 15L25 16L28 16L28 17L25 17L25 18L28 18L28 19L23 19L23 18L22 18L22 19L21 19L21 17L20 17L20 16L19 16L19 15L18 15L18 13L15 13L15 12L16 12L16 11L17 11L17 10L18 10L18 9L15 9L15 8L16 8L16 6L15 6L15 7L14 7L14 6L13 6L13 5L14 5L14 4L15 4L15 5L16 5L16 4L15 4L15 3L14 3L14 4L13 4L13 2L12 2L12 4L10 4L10 3L11 3L11 2L10 2L10 1ZM14 1L14 2L15 2L15 1ZM28 1L28 2L31 2L31 1ZM44 1L44 2L47 2L47 1ZM25 3L25 4L26 4L26 3ZM27 3L27 4L30 4L30 3ZM36 3L36 5L34 5L34 4L33 4L33 6L32 6L32 7L33 7L33 6L34 6L34 8L36 8L36 9L37 9L37 10L38 10L38 9L39 9L39 10L40 10L40 8L38 8L38 7L39 7L39 6L38 6L38 7L37 7L37 6L36 6L36 5L38 5L38 4L37 4L37 3ZM41 3L41 5L43 5L43 3ZM12 4L12 5L11 5L11 6L10 6L10 7L11 7L11 6L12 6L12 7L13 7L13 6L12 6L12 5L13 5L13 4ZM27 5L27 8L30 8L30 5ZM28 6L28 7L29 7L29 6ZM35 6L35 7L36 7L36 8L37 8L37 9L38 9L38 8L37 8L37 7L36 7L36 6ZM42 6L42 8L41 8L41 11L40 11L40 12L41 12L41 11L42 11L42 14L41 14L41 13L40 13L40 14L33 14L33 15L31 15L31 14L32 14L32 12L31 12L31 11L30 11L30 10L29 10L29 11L30 11L30 12L29 12L29 13L28 13L28 14L27 14L27 15L30 15L30 16L34 16L34 17L33 17L33 18L34 18L34 19L32 19L32 18L31 18L31 17L29 17L29 18L31 18L31 19L30 19L30 20L29 20L29 19L28 19L28 20L29 20L29 21L30 21L30 22L28 22L28 21L27 21L27 20L23 20L23 19L22 19L22 20L21 20L21 19L20 19L20 20L21 20L21 21L19 21L19 18L20 18L20 17L19 17L19 16L18 16L18 15L13 15L13 16L12 16L12 17L11 17L11 18L10 18L10 17L9 17L9 18L10 18L10 20L9 20L9 19L8 19L8 20L9 20L9 21L11 21L11 19L12 19L12 20L13 20L13 21L15 21L15 22L13 22L13 25L12 25L12 28L13 28L13 29L12 29L12 30L10 30L10 31L9 31L9 32L6 32L6 33L7 33L7 34L8 34L8 35L7 35L7 36L6 36L6 37L5 37L5 38L6 38L6 39L8 39L8 37L9 37L9 36L11 36L11 37L10 37L10 39L9 39L9 40L8 40L8 41L7 41L7 42L6 42L6 43L7 43L7 42L9 42L9 40L10 40L10 39L11 39L11 38L12 38L12 40L13 40L13 38L14 38L14 37L16 37L16 38L15 38L15 39L16 39L16 41L18 41L18 42L17 42L17 43L18 43L18 42L19 42L19 43L20 43L20 41L21 41L21 43L22 43L22 42L24 42L24 43L23 43L23 44L25 44L25 45L23 45L23 46L24 46L24 48L25 48L25 47L27 47L27 46L28 46L28 47L29 47L29 46L28 46L28 45L29 45L29 44L28 44L28 45L27 45L27 46L25 46L25 45L26 45L26 44L25 44L25 42L26 42L26 43L27 43L27 42L28 42L28 43L32 43L32 44L30 44L30 45L32 45L32 46L30 46L30 47L31 47L31 48L33 48L33 50L32 50L32 52L34 52L34 51L35 51L35 50L34 50L34 49L35 49L35 48L36 48L36 47L35 47L35 46L33 46L33 45L32 45L32 44L34 44L34 43L33 43L33 41L37 41L37 40L38 40L38 39L37 39L37 38L38 38L38 37L37 37L37 36L39 36L39 37L40 37L40 36L41 36L41 35L42 35L42 34L43 34L43 33L42 33L42 34L38 34L38 33L39 33L39 32L35 32L35 33L37 33L37 34L34 34L34 31L35 31L35 30L33 30L33 29L32 29L32 28L33 28L33 27L32 27L32 28L31 28L31 26L32 26L32 25L31 25L31 24L32 24L32 23L33 23L33 21L32 21L32 20L34 20L34 21L35 21L35 18L36 18L36 19L37 19L37 18L38 18L38 21L37 21L37 20L36 20L36 21L37 21L37 22L36 22L36 23L37 23L37 22L38 22L38 21L39 21L39 23L38 23L38 24L40 24L40 22L41 22L41 23L42 23L42 24L41 24L41 25L42 25L42 26L39 26L39 28L38 28L38 27L37 27L37 26L38 26L38 25L37 25L37 24L35 24L35 23L34 23L34 24L35 24L35 26L36 26L36 27L37 27L37 28L38 28L38 29L39 29L39 28L40 28L40 27L42 27L42 28L43 28L43 29L42 29L42 30L43 30L43 29L44 29L44 26L45 26L45 25L44 25L44 24L45 24L45 21L47 21L47 22L46 22L46 23L48 23L48 24L46 24L46 25L48 25L48 24L49 24L49 23L48 23L48 22L50 22L50 19L48 19L48 18L50 18L50 17L51 17L51 16L52 16L52 15L50 15L50 17L48 17L48 16L47 16L47 17L48 17L48 18L45 18L45 17L43 17L43 16L45 16L45 15L49 15L49 14L50 14L50 13L51 13L51 14L52 14L52 13L51 13L51 12L50 12L50 13L47 13L47 14L46 14L46 12L45 12L45 11L42 11L42 10L43 10L43 9L44 9L44 7L45 7L45 6L44 6L44 7L43 7L43 6ZM48 6L48 7L49 7L49 6ZM10 8L10 9L9 9L9 10L10 10L10 9L11 9L11 10L15 10L15 9L14 9L14 8ZM42 8L42 9L43 9L43 8ZM51 8L51 9L52 9L52 8ZM53 8L53 9L54 9L54 8ZM2 10L2 11L4 11L4 10ZM11 11L11 12L14 12L14 11ZM44 12L44 14L42 14L42 15L41 15L41 14L40 14L40 15L36 15L36 16L35 16L35 15L34 15L34 16L35 16L35 17L34 17L34 18L35 18L35 17L36 17L36 16L38 16L38 18L39 18L39 20L40 20L40 21L41 21L41 22L42 22L42 23L43 23L43 24L44 24L44 21L45 21L45 20L47 20L47 21L48 21L48 19L45 19L45 18L42 18L42 16L43 16L43 15L45 15L45 12ZM6 13L6 14L7 14L7 13ZM29 13L29 14L30 14L30 13ZM23 14L23 15L24 15L24 14ZM40 15L40 16L39 16L39 18L40 18L40 16L41 16L41 15ZM14 16L14 18L19 18L19 17L15 17L15 16ZM1 18L1 19L2 19L2 18ZM12 18L12 19L13 19L13 20L14 20L14 19L13 19L13 18ZM41 18L41 19L40 19L40 20L41 20L41 21L42 21L42 22L43 22L43 20L45 20L45 19L42 19L42 18ZM16 19L16 20L15 20L15 21L16 21L16 22L15 22L15 23L14 23L14 24L15 24L15 23L16 23L16 24L18 24L18 23L20 23L20 22L19 22L19 21L18 21L18 19ZM56 19L56 20L57 20L57 19ZM22 20L22 21L21 21L21 24L19 24L19 25L20 25L20 27L19 27L19 28L20 28L20 27L22 27L22 26L23 26L23 24L24 24L24 23L23 23L23 24L22 24L22 21L23 21L23 22L24 22L24 21L23 21L23 20ZM30 20L30 21L31 21L31 20ZM52 20L52 21L53 21L53 20ZM25 21L25 22L26 22L26 23L25 23L25 24L26 24L26 25L25 25L25 26L24 26L24 28L23 28L23 29L22 29L22 28L21 28L21 29L19 29L19 30L17 30L17 29L18 29L18 28L17 28L17 29L13 29L13 30L12 30L12 31L13 31L13 32L14 32L14 33L15 33L15 34L17 34L17 35L16 35L16 37L17 37L17 38L18 38L18 39L17 39L17 40L18 40L18 39L19 39L19 41L20 41L20 40L21 40L21 38L22 38L22 39L24 39L24 40L22 40L22 41L25 41L25 38L28 38L28 37L29 37L29 36L30 36L30 38L31 38L31 39L29 39L29 41L28 41L28 39L26 39L26 40L27 40L27 41L26 41L26 42L27 42L27 41L28 41L28 42L32 42L32 41L30 41L30 40L33 40L33 39L34 39L34 40L36 40L36 39L34 39L34 38L36 38L36 36L37 36L37 35L38 35L38 34L37 34L37 35L34 35L34 34L33 34L33 32L31 32L31 31L33 31L33 30L32 30L32 29L31 29L31 31L25 31L25 32L23 32L23 31L24 31L24 30L23 30L23 29L25 29L25 30L26 30L26 27L25 27L25 26L26 26L26 25L28 25L28 26L29 26L29 24L31 24L31 22L30 22L30 23L29 23L29 24L27 24L27 21ZM4 23L4 24L5 24L5 23ZM6 23L6 24L7 24L7 23ZM10 24L10 25L11 25L11 24ZM50 24L50 25L51 25L51 24ZM5 25L5 26L7 26L7 25ZM15 25L15 26L16 26L16 27L18 27L18 25ZM43 25L43 26L42 26L42 27L43 27L43 26L44 26L44 25ZM5 27L5 30L8 30L8 27ZM9 27L9 28L10 28L10 27ZM14 27L14 28L15 28L15 27ZM27 27L27 30L30 30L30 27ZM49 27L49 30L52 30L52 27ZM6 28L6 29L7 29L7 28ZM28 28L28 29L29 29L29 28ZM50 28L50 29L51 29L51 28ZM21 29L21 31L23 31L23 30L22 30L22 29ZM16 30L16 31L15 31L15 33L17 33L17 32L16 32L16 31L17 31L17 30ZM19 30L19 31L18 31L18 33L19 33L19 34L18 34L18 35L19 35L19 34L20 34L20 35L21 35L21 37L22 37L22 38L24 38L24 37L28 37L28 36L27 36L27 35L26 35L26 34L25 34L25 33L26 33L26 32L25 32L25 33L22 33L22 32L20 32L20 30ZM46 30L46 31L47 31L47 30ZM53 30L53 31L52 31L52 32L53 32L53 31L55 31L55 30ZM9 32L9 35L8 35L8 36L7 36L7 37L6 37L6 38L7 38L7 37L8 37L8 36L9 36L9 35L11 35L11 36L12 36L12 37L14 37L14 34L13 34L13 33L12 33L12 32L11 32L11 33L10 33L10 32ZM19 32L19 33L20 33L20 34L21 34L21 33L20 33L20 32ZM27 32L27 33L30 33L30 32ZM31 33L31 34L32 34L32 33ZM44 33L44 34L45 34L45 33ZM29 34L29 35L30 35L30 36L31 36L31 38L32 38L32 35L30 35L30 34ZM22 35L22 37L24 37L24 36L26 36L26 35ZM33 35L33 36L34 36L34 37L33 37L33 38L34 38L34 37L35 37L35 36L34 36L34 35ZM39 35L39 36L40 36L40 35ZM3 36L3 37L2 37L2 38L4 38L4 36ZM18 36L18 37L20 37L20 36ZM44 37L44 38L45 38L45 39L44 39L44 40L45 40L45 41L47 41L47 39L46 39L46 38L45 38L45 37ZM19 38L19 39L20 39L20 38ZM51 38L51 39L52 39L52 38ZM14 40L14 44L16 44L16 45L18 45L18 47L20 47L20 49L21 49L21 51L22 51L22 50L23 50L23 51L25 51L25 49L22 49L22 48L23 48L23 47L22 47L22 46L21 46L21 47L20 47L20 45L22 45L22 44L20 44L20 45L18 45L18 44L16 44L16 43L15 43L15 40ZM0 41L0 42L1 42L1 41ZM42 42L42 43L44 43L44 42ZM50 42L50 43L51 43L51 42ZM39 44L39 45L40 45L40 44ZM42 45L42 46L41 46L41 47L40 47L40 46L39 46L39 47L40 47L40 48L39 48L39 49L40 49L40 48L41 48L41 50L44 50L44 48L43 48L43 47L42 47L42 46L44 46L44 45ZM47 45L47 46L50 46L50 45ZM51 45L51 46L52 46L52 45ZM8 46L8 48L9 48L9 47L10 47L10 48L11 48L11 46ZM32 46L32 47L33 47L33 48L35 48L35 47L33 47L33 46ZM14 47L14 48L13 48L13 49L12 49L12 50L13 50L13 49L15 49L15 47ZM37 47L37 48L38 48L38 47ZM6 48L6 49L7 49L7 48ZM18 48L18 49L19 49L19 48ZM46 48L46 49L45 49L45 50L46 50L46 51L45 51L45 53L47 53L47 54L48 54L48 53L47 53L47 52L46 52L46 51L47 51L47 50L46 50L46 49L47 49L47 48ZM27 49L27 52L30 52L30 49ZM49 49L49 52L52 52L52 49ZM28 50L28 51L29 51L29 50ZM33 50L33 51L34 51L34 50ZM50 50L50 51L51 51L51 50ZM40 51L40 52L41 52L41 51ZM9 52L9 54L12 54L12 55L13 55L13 53L10 53L10 52ZM21 52L21 53L22 53L22 52ZM15 53L15 54L16 54L16 53ZM29 53L29 54L30 54L30 53ZM9 55L9 56L10 56L10 55ZM23 55L23 56L24 56L24 55ZM27 55L27 56L28 56L28 55ZM35 55L35 56L36 56L36 55ZM51 55L51 57L52 57L52 56L54 56L54 57L56 57L56 56L55 56L55 55ZM0 0L0 7L7 7L7 0ZM1 1L1 6L6 6L6 1ZM2 2L2 5L5 5L5 2ZM50 0L50 7L57 7L57 0ZM51 1L51 6L56 6L56 1ZM52 2L52 5L55 5L55 2ZM0 50L0 57L7 57L7 50ZM1 51L1 56L6 56L6 51ZM2 52L2 55L5 55L5 52Z" fill="#000000"/></g></g></svg>
