<?xml version="1.0" encoding="UTF-8"?>
<svg xmlns="http://www.w3.org/2000/svg" version="1.1" width="300" height="300" viewBox="0 0 300 300"><rect x="0" y="0" width="300" height="300" fill="#ffffff"/><g transform="scale(4.918)"><g transform="translate(2,2)"><path fill-rule="evenodd" d="M11 0L11 2L12 2L12 3L10 3L10 1L9 1L9 3L8 3L8 5L9 5L9 6L8 6L8 7L9 7L9 8L11 8L11 9L12 9L12 10L10 10L10 9L9 9L9 13L8 13L8 15L10 15L10 14L11 14L11 15L12 15L12 14L13 14L13 11L14 11L14 12L15 12L15 10L16 10L16 12L17 12L17 14L16 14L16 15L15 15L15 14L14 14L14 15L15 15L15 18L14 18L14 16L13 16L13 18L12 18L12 17L11 17L11 19L10 19L10 21L11 21L11 22L9 22L9 23L8 23L8 22L6 22L6 23L5 23L5 25L4 25L4 24L3 24L3 23L4 23L4 22L5 22L5 20L6 20L6 21L7 21L7 20L6 20L6 19L7 19L7 18L6 18L6 17L8 17L8 20L9 20L9 16L6 16L6 17L5 17L5 18L6 18L6 19L5 19L5 20L4 20L4 22L3 22L3 20L1 20L1 19L4 19L4 18L1 18L1 19L0 19L0 20L1 20L1 21L0 21L0 22L3 22L3 23L2 23L2 24L1 24L1 25L2 25L2 27L1 27L1 28L0 28L0 30L1 30L1 28L3 28L3 27L4 27L4 29L3 29L3 30L4 30L4 31L2 31L2 32L4 32L4 31L9 31L9 32L8 32L8 34L12 34L12 35L13 35L13 36L12 36L12 37L13 37L13 38L10 38L10 37L11 37L11 36L10 36L10 35L7 35L7 34L6 34L6 35L7 35L7 36L5 36L5 35L4 35L4 34L5 34L5 33L4 33L4 34L3 34L3 35L2 35L2 34L1 34L1 32L0 32L0 36L1 36L1 35L2 35L2 37L0 37L0 41L1 41L1 40L2 40L2 39L1 39L1 38L2 38L2 37L4 37L4 36L5 36L5 38L4 38L4 39L3 39L3 40L4 40L4 41L5 41L5 42L3 42L3 41L2 41L2 42L3 42L3 44L2 44L2 43L0 43L0 44L2 44L2 45L0 45L0 48L5 48L5 47L7 47L7 46L6 46L6 45L8 45L8 46L9 46L9 45L8 45L8 44L6 44L6 43L7 43L7 42L6 42L6 41L7 41L7 40L8 40L8 41L11 41L11 43L10 43L10 42L9 42L9 43L10 43L10 44L12 44L12 45L13 45L13 44L12 44L12 42L13 42L13 43L14 43L14 42L13 42L13 41L11 41L11 40L13 40L13 38L14 38L14 37L15 37L15 36L16 36L16 37L17 37L17 36L16 36L16 34L17 34L17 33L19 33L19 31L21 31L21 30L19 30L19 29L22 29L22 30L23 30L23 31L25 31L25 29L22 29L22 28L23 28L23 27L24 27L24 28L25 28L25 27L26 27L26 31L27 31L27 34L30 34L30 35L29 35L29 36L28 36L28 35L26 35L26 34L25 34L25 33L23 33L23 34L24 34L24 35L25 35L25 37L24 37L24 36L22 36L22 34L21 34L21 32L20 32L20 34L18 34L18 35L19 35L19 36L18 36L18 37L19 37L19 38L20 38L20 39L18 39L18 38L17 38L17 39L16 39L16 40L15 40L15 39L14 39L14 40L15 40L15 42L16 42L16 43L15 43L15 45L14 45L14 46L10 46L10 47L9 47L9 48L6 48L6 49L8 49L8 52L9 52L9 55L8 55L8 57L14 57L14 56L16 56L16 57L17 57L17 56L18 56L18 57L20 57L20 56L22 56L22 54L23 54L23 57L26 57L26 55L27 55L27 54L28 54L28 55L29 55L29 56L31 56L31 57L32 57L32 56L31 56L31 54L32 54L32 52L31 52L31 51L32 51L32 50L33 50L33 51L34 51L34 52L36 52L36 53L35 53L35 55L34 55L34 53L33 53L33 55L34 55L34 56L33 56L33 57L37 57L37 56L36 56L36 55L38 55L38 56L40 56L40 55L41 55L41 54L38 54L38 52L36 52L36 51L39 51L39 53L40 53L40 49L41 49L41 50L43 50L43 51L42 51L42 52L43 52L43 53L42 53L42 54L43 54L43 56L42 56L42 57L44 57L44 55L45 55L45 56L46 56L46 53L47 53L47 52L48 52L48 53L52 53L52 56L50 56L50 57L52 57L52 56L55 56L55 57L56 57L56 56L55 56L55 55L57 55L57 54L55 54L55 53L54 53L54 55L53 55L53 52L55 52L55 51L56 51L56 50L57 50L57 47L54 47L54 48L53 48L53 47L52 47L52 46L53 46L53 45L54 45L54 46L56 46L56 45L54 45L54 44L56 44L56 43L57 43L57 42L56 42L56 41L55 41L55 40L57 40L57 39L53 39L53 40L52 40L52 41L53 41L53 40L54 40L54 42L52 42L52 43L51 43L51 41L49 41L49 40L51 40L51 39L50 39L50 38L52 38L52 37L54 37L54 36L55 36L55 37L56 37L56 32L55 32L55 31L57 31L57 27L56 27L56 29L55 29L55 30L54 30L54 32L55 32L55 33L54 33L54 34L55 34L55 35L53 35L53 32L51 32L51 31L53 31L53 29L54 29L54 28L55 28L55 27L53 27L53 25L54 25L54 26L57 26L57 23L56 23L56 21L53 21L53 22L55 22L55 23L52 23L52 21L50 21L50 19L49 19L49 17L50 17L50 16L51 16L51 14L49 14L49 13L48 13L48 12L46 12L46 10L47 10L47 5L48 5L48 0L46 0L46 1L47 1L47 2L44 2L44 1L45 1L45 0L44 0L44 1L43 1L43 0L40 0L40 1L41 1L41 2L39 2L39 0L37 0L37 1L36 1L36 2L37 2L37 3L36 3L36 5L35 5L35 6L34 6L34 5L33 5L33 6L32 6L32 7L31 7L31 4L34 4L34 3L35 3L35 0L34 0L34 2L32 2L32 1L33 1L33 0L29 0L29 2L28 2L28 4L26 4L26 3L25 3L25 2L27 2L27 1L28 1L28 0L26 0L26 1L25 1L25 0L24 0L24 1L23 1L23 2L22 2L22 5L25 5L25 6L24 6L24 7L23 7L23 6L22 6L22 7L23 7L23 9L22 9L22 10L21 10L21 9L19 9L19 8L21 8L21 3L20 3L20 4L19 4L19 2L20 2L20 1L22 1L22 0L20 0L20 1L18 1L18 0L16 0L16 1L15 1L15 3L14 3L14 4L13 4L13 0ZM24 1L24 2L23 2L23 4L24 4L24 2L25 2L25 1ZM30 1L30 3L31 3L31 1ZM42 1L42 2L43 2L43 1ZM16 2L16 3L18 3L18 2ZM38 2L38 3L39 3L39 4L38 4L38 6L37 6L37 5L36 5L36 6L35 6L35 8L36 8L36 6L37 6L37 7L38 7L38 8L37 8L37 9L39 9L39 10L40 10L40 11L39 11L39 13L38 13L38 12L37 12L37 10L35 10L35 11L34 11L34 9L33 9L33 7L34 7L34 6L33 6L33 7L32 7L32 9L31 9L31 10L30 10L30 9L27 9L27 11L26 11L26 8L25 8L25 12L24 12L24 13L25 13L25 14L27 14L27 12L28 12L28 11L30 11L30 12L31 12L31 13L32 13L32 9L33 9L33 12L34 12L34 14L35 14L35 16L34 16L34 19L33 19L33 20L32 20L32 22L33 22L33 20L34 20L34 21L35 21L35 25L34 25L34 23L33 23L33 25L32 25L32 26L31 26L31 28L32 28L32 29L31 29L31 31L28 31L28 32L30 32L30 34L31 34L31 35L30 35L30 36L29 36L29 37L28 37L28 36L27 36L27 37L28 37L28 38L27 38L27 39L29 39L29 41L28 41L28 40L26 40L26 39L25 39L25 40L24 40L24 39L23 39L23 38L21 38L21 39L20 39L20 40L21 40L21 41L20 41L20 42L19 42L19 41L16 41L16 42L19 42L19 44L20 44L20 42L21 42L21 41L23 41L23 42L24 42L24 41L25 41L25 42L26 42L26 43L25 43L25 44L24 44L24 45L23 45L23 44L22 44L22 43L21 43L21 45L22 45L22 48L21 48L21 47L20 47L20 50L19 50L19 49L18 49L18 48L19 48L19 46L20 46L20 45L19 45L19 46L18 46L18 48L17 48L17 46L16 46L16 50L19 50L19 51L16 51L16 53L17 53L17 54L16 54L16 55L17 55L17 54L19 54L19 55L20 55L20 54L21 54L21 52L22 52L22 53L23 53L23 52L24 52L24 51L25 51L25 53L26 53L26 51L25 51L25 50L26 50L26 48L29 48L29 47L30 47L30 48L31 48L31 47L30 47L30 46L32 46L32 47L33 47L33 49L34 49L34 50L35 50L35 47L33 47L33 45L35 45L35 46L36 46L36 45L35 45L35 42L36 42L36 41L35 41L35 40L39 40L39 41L38 41L38 42L39 42L39 41L40 41L40 42L41 42L41 39L42 39L42 40L44 40L44 42L45 42L45 44L44 44L44 43L43 43L43 42L42 42L42 43L43 43L43 44L40 44L40 43L38 43L38 44L37 44L37 43L36 43L36 44L37 44L37 45L38 45L38 44L40 44L40 45L39 45L39 46L37 46L37 47L36 47L36 48L37 48L37 47L38 47L38 49L37 49L37 50L39 50L39 46L42 46L42 47L43 47L43 48L42 48L42 49L44 49L44 47L43 47L43 46L46 46L46 45L45 45L45 44L46 44L46 43L47 43L47 41L48 41L48 40L44 40L44 39L45 39L45 38L44 38L44 36L45 36L45 37L46 37L46 38L47 38L47 37L46 37L46 33L45 33L45 32L47 32L47 33L48 33L48 35L47 35L47 36L48 36L48 38L50 38L50 35L52 35L52 34L51 34L51 32L49 32L49 31L48 31L48 32L47 32L47 30L48 30L48 28L47 28L47 29L45 29L45 28L46 28L46 27L44 27L44 30L45 30L45 32L43 32L43 33L45 33L45 34L42 34L42 32L40 32L40 35L41 35L41 34L42 34L42 35L44 35L44 36L43 36L43 38L42 38L42 36L41 36L41 37L39 37L39 35L37 35L37 34L38 34L38 33L39 33L39 31L38 31L38 32L37 32L37 29L38 29L38 30L40 30L40 29L41 29L41 31L43 31L43 30L42 30L42 29L43 29L43 28L42 28L42 27L43 27L43 26L45 26L45 25L44 25L44 24L46 24L46 26L47 26L47 27L48 27L48 25L50 25L50 26L52 26L52 23L50 23L50 22L49 22L49 23L48 23L48 21L49 21L49 20L48 20L48 19L47 19L47 17L49 17L49 16L50 16L50 15L47 15L47 17L45 17L45 16L46 16L46 15L45 15L45 14L47 14L47 13L44 13L44 12L43 12L43 14L42 14L42 13L40 13L40 12L42 12L42 11L41 11L41 10L40 10L40 9L43 9L43 8L44 8L44 11L45 11L45 7L46 7L46 6L45 6L45 5L47 5L47 3L46 3L46 4L45 4L45 5L44 5L44 3L43 3L43 5L42 5L42 6L41 6L41 4L40 4L40 3L39 3L39 2ZM9 3L9 4L10 4L10 3ZM12 4L12 6L11 6L11 5L10 5L10 6L9 6L9 7L10 7L10 6L11 6L11 8L12 8L12 9L13 9L13 7L14 7L14 9L18 9L18 10L17 10L17 11L18 11L18 10L19 10L19 9L18 9L18 8L17 8L17 7L18 7L18 6L19 6L19 7L20 7L20 5L19 5L19 4L16 4L16 6L15 6L15 5L13 5L13 4ZM25 4L25 5L26 5L26 4ZM39 4L39 6L38 6L38 7L39 7L39 8L40 8L40 7L41 7L41 8L43 8L43 6L42 6L42 7L41 7L41 6L40 6L40 4ZM17 5L17 6L16 6L16 7L17 7L17 6L18 6L18 5ZM27 5L27 8L30 8L30 5ZM12 6L12 7L13 7L13 6ZM14 6L14 7L15 7L15 6ZM25 6L25 7L26 7L26 6ZM28 6L28 7L29 7L29 6ZM39 6L39 7L40 7L40 6ZM44 6L44 7L45 7L45 6ZM48 6L48 8L49 8L49 6ZM0 8L0 9L2 9L2 10L0 10L0 12L2 12L2 13L0 13L0 14L1 14L1 15L0 15L0 16L2 16L2 17L4 17L4 16L5 16L5 14L6 14L6 15L7 15L7 14L6 14L6 13L7 13L7 12L5 12L5 10L4 10L4 12L2 12L2 10L3 10L3 9L2 9L2 8ZM5 8L5 9L7 9L7 10L6 10L6 11L7 11L7 10L8 10L8 8ZM52 8L52 10L51 10L51 9L48 9L48 10L50 10L50 11L49 11L49 12L50 12L50 13L51 13L51 12L52 12L52 13L54 13L54 15L52 15L52 16L53 16L53 18L52 18L52 17L51 17L51 18L52 18L52 20L57 20L57 15L55 15L55 14L57 14L57 11L56 11L56 9L55 9L55 11L54 11L54 10L53 10L53 9L54 9L54 8ZM12 10L12 11L13 11L13 10ZM20 10L20 11L19 11L19 14L18 14L18 15L17 15L17 16L16 16L16 18L19 18L19 17L20 17L20 18L22 18L22 17L25 17L25 18L23 18L23 19L24 19L24 20L22 20L22 19L14 19L14 20L13 20L13 21L12 21L12 24L11 24L11 23L10 23L10 24L8 24L8 25L11 25L11 26L10 26L10 28L9 28L9 30L10 30L10 32L11 32L11 33L14 33L14 32L15 32L15 31L16 31L16 32L17 32L17 31L19 31L19 30L18 30L18 29L19 29L19 28L21 28L21 27L22 27L22 26L21 26L21 25L20 25L20 27L19 27L19 26L18 26L18 24L21 24L21 23L23 23L23 25L25 25L25 26L24 26L24 27L25 27L25 26L26 26L26 25L28 25L28 26L29 26L29 25L31 25L31 22L27 22L27 21L26 21L26 22L23 22L23 21L25 21L25 19L26 19L26 20L27 20L27 17L28 17L28 19L29 19L29 20L28 20L28 21L30 21L30 20L31 20L31 19L32 19L32 18L33 18L33 15L31 15L31 14L30 14L30 13L29 13L29 15L27 15L27 17L25 17L25 16L26 16L26 15L25 15L25 16L24 16L24 15L22 15L22 14L21 14L21 12L20 12L20 11L21 11L21 10ZM22 10L22 12L23 12L23 11L24 11L24 10ZM10 11L10 13L9 13L9 14L10 14L10 13L11 13L11 14L12 14L12 13L11 13L11 11ZM50 11L50 12L51 12L51 11ZM53 11L53 12L54 12L54 13L56 13L56 11L55 11L55 12L54 12L54 11ZM4 12L4 14L3 14L3 13L2 13L2 14L3 14L3 15L2 15L2 16L4 16L4 14L5 14L5 12ZM36 12L36 13L35 13L35 14L36 14L36 15L38 15L38 17L39 17L39 14L40 14L40 15L42 15L42 16L41 16L41 17L40 17L40 19L39 19L39 21L38 21L38 19L37 19L37 20L36 20L36 21L37 21L37 22L36 22L36 23L37 23L37 22L39 22L39 24L40 24L40 28L41 28L41 26L43 26L43 25L42 25L42 24L41 24L41 23L40 23L40 22L43 22L43 21L40 21L40 20L41 20L41 19L42 19L42 20L45 20L45 17L42 17L42 16L44 16L44 14L43 14L43 15L42 15L42 14L40 14L40 13L39 13L39 14L37 14L37 12ZM19 14L19 15L18 15L18 16L17 16L17 17L19 17L19 15L20 15L20 16L22 16L22 15L21 15L21 14ZM30 15L30 16L31 16L31 17L29 17L29 19L30 19L30 18L31 18L31 17L32 17L32 16L31 16L31 15ZM35 16L35 19L36 19L36 18L37 18L37 16ZM54 16L54 17L56 17L56 16ZM42 18L42 19L43 19L43 18ZM54 18L54 19L56 19L56 18ZM15 20L15 21L13 21L13 22L14 22L14 23L15 23L15 24L13 24L13 26L11 26L11 27L12 27L12 28L16 28L16 29L18 29L18 28L17 28L17 27L18 27L18 26L16 26L16 25L17 25L17 22L16 22L16 20ZM17 20L17 21L20 21L20 22L18 22L18 23L20 23L20 22L22 22L22 20L21 20L21 21L20 21L20 20ZM46 20L46 21L45 21L45 22L44 22L44 23L43 23L43 24L44 24L44 23L46 23L46 24L48 24L48 23L47 23L47 20ZM26 22L26 23L24 23L24 24L25 24L25 25L26 25L26 23L27 23L27 22ZM6 23L6 24L7 24L7 23ZM28 23L28 25L29 25L29 23ZM2 24L2 25L3 25L3 26L4 26L4 25L3 25L3 24ZM36 24L36 26L38 26L38 27L39 27L39 26L38 26L38 25L37 25L37 24ZM50 24L50 25L51 25L51 24ZM5 25L5 26L7 26L7 25ZM33 25L33 29L32 29L32 32L31 32L31 34L33 34L33 33L34 33L34 35L33 35L33 36L32 36L32 35L31 35L31 36L32 36L32 37L31 37L31 38L30 38L30 37L29 37L29 39L31 39L31 38L32 38L32 37L33 37L33 39L32 39L32 40L30 40L30 41L32 41L32 40L33 40L33 42L32 42L32 44L30 44L30 43L31 43L31 42L28 42L28 41L26 41L26 42L27 42L27 43L26 43L26 44L25 44L25 45L24 45L24 46L23 46L23 48L22 48L22 49L21 49L21 51L19 51L19 52L17 52L17 53L19 53L19 52L21 52L21 51L22 51L22 50L23 50L23 51L24 51L24 50L25 50L25 49L24 49L24 48L25 48L25 47L24 47L24 46L25 46L25 45L26 45L26 47L27 47L27 46L28 46L28 47L29 47L29 46L30 46L30 45L32 45L32 44L33 44L33 43L34 43L34 40L35 40L35 39L34 39L34 37L33 37L33 36L34 36L34 35L35 35L35 34L37 34L37 32L36 32L36 30L35 30L35 32L33 32L33 31L34 31L34 29L37 29L37 27L36 27L36 28L34 28L34 27L35 27L35 26L34 26L34 25ZM15 26L15 27L16 27L16 26ZM5 27L5 30L8 30L8 27ZM27 27L27 30L30 30L30 27ZM49 27L49 30L52 30L52 27ZM6 28L6 29L7 29L7 28ZM28 28L28 29L29 29L29 28ZM50 28L50 29L51 29L51 28ZM10 29L10 30L12 30L12 32L13 32L13 30L14 30L14 31L15 31L15 29ZM16 30L16 31L17 31L17 30ZM6 32L6 33L7 33L7 32ZM32 32L32 33L33 33L33 32ZM35 32L35 33L36 33L36 32ZM15 33L15 34L13 34L13 35L15 35L15 34L16 34L16 33ZM49 33L49 35L50 35L50 33ZM20 34L20 36L21 36L21 34ZM3 35L3 36L4 36L4 35ZM7 36L7 37L6 37L6 38L5 38L5 39L4 39L4 40L5 40L5 41L6 41L6 40L7 40L7 39L8 39L8 38L9 38L9 36ZM13 36L13 37L14 37L14 36ZM35 36L35 38L38 38L38 37L37 37L37 36ZM25 37L25 38L26 38L26 37ZM6 38L6 39L7 39L7 38ZM9 39L9 40L10 40L10 39ZM21 39L21 40L23 40L23 41L24 41L24 40L23 40L23 39ZM45 41L45 42L46 42L46 41ZM5 42L5 43L4 43L4 44L3 44L3 47L5 47L5 45L4 45L4 44L5 44L5 43L6 43L6 42ZM49 42L49 43L50 43L50 42ZM55 42L55 43L56 43L56 42ZM16 43L16 44L17 44L17 45L18 45L18 44L17 44L17 43ZM27 43L27 44L26 44L26 45L27 45L27 44L28 44L28 43ZM52 43L52 44L53 44L53 43ZM29 44L29 45L30 45L30 44ZM43 44L43 45L42 45L42 46L43 46L43 45L44 45L44 44ZM47 44L47 46L48 46L48 47L45 47L45 48L46 48L46 49L45 49L45 50L44 50L44 51L46 51L46 50L47 50L47 51L48 51L48 49L47 49L47 48L50 48L50 47L51 47L51 46L52 46L52 45L51 45L51 44L49 44L49 45L50 45L50 47L49 47L49 46L48 46L48 44ZM1 46L1 47L2 47L2 46ZM10 47L10 48L9 48L9 49L10 49L10 53L11 53L11 54L12 54L12 55L11 55L11 56L12 56L12 55L15 55L15 53L14 53L14 51L15 51L15 50L13 50L13 49L10 49L10 48L12 48L12 47ZM13 47L13 48L14 48L14 49L15 49L15 47ZM54 48L54 49L53 49L53 50L54 50L54 51L55 51L55 50L56 50L56 48ZM27 49L27 52L30 52L30 49ZM31 49L31 50L32 50L32 49ZM49 49L49 52L52 52L52 49ZM54 49L54 50L55 50L55 49ZM11 50L11 51L12 51L12 50ZM28 50L28 51L29 51L29 50ZM50 50L50 51L51 51L51 50ZM11 52L11 53L12 53L12 52ZM44 52L44 53L43 53L43 54L44 54L44 53L46 53L46 52ZM13 53L13 54L14 54L14 53ZM29 53L29 55L30 55L30 54L31 54L31 53ZM36 53L36 54L37 54L37 53ZM47 54L47 55L48 55L48 56L47 56L47 57L48 57L48 56L49 56L49 54ZM50 54L50 55L51 55L51 54ZM9 55L9 56L10 56L10 55ZM0 0L0 7L7 7L7 0ZM1 1L1 6L6 6L6 1ZM2 2L2 5L5 5L5 2ZM50 0L50 7L57 7L57 0ZM51 1L51 6L56 6L56 1ZM52 2L52 5L55 5L55 2ZM0 50L0 57L7 57L7 50ZM1 51L1 56L6 56L6 51ZM2 52L2 55L5 55L5 52Z" fill="#000000"/></g></g></svg>
