<?xml version="1.0" encoding="UTF-8"?>
<svg xmlns="http://www.w3.org/2000/svg" version="1.1" width="300" height="300" viewBox="0 0 300 300"><rect x="0" y="0" width="300" height="300" fill="#ffffff"/><g transform="scale(4.918)"><g transform="translate(2,2)"><path fill-rule="evenodd" d="M9 0L9 1L8 1L8 2L9 2L9 3L8 3L8 4L9 4L9 5L8 5L8 7L9 7L9 8L6 8L6 9L7 9L7 10L6 10L6 11L7 11L7 12L5 12L5 11L4 11L4 10L5 10L5 8L0 8L0 9L3 9L3 13L7 13L7 14L5 14L5 16L6 16L6 17L8 17L8 18L5 18L5 19L4 19L4 21L3 21L3 22L0 22L0 23L1 23L1 24L0 24L0 28L1 28L1 29L0 29L0 33L2 33L2 35L3 35L3 36L2 36L2 37L1 37L1 35L0 35L0 38L4 38L4 36L5 36L5 38L6 38L6 39L7 39L7 40L6 40L6 41L8 41L8 39L9 39L9 40L10 40L10 42L8 42L8 44L10 44L10 42L11 42L11 41L12 41L12 39L13 39L13 37L14 37L14 36L15 36L15 37L16 37L16 38L15 38L15 39L14 39L14 40L15 40L15 39L16 39L16 41L15 41L15 42L16 42L16 43L18 43L18 42L16 42L16 41L19 41L19 45L18 45L18 44L15 44L15 43L14 43L14 42L12 42L12 44L13 44L13 43L14 43L14 45L13 45L13 46L12 46L12 45L7 45L7 44L6 44L6 43L7 43L7 42L6 42L6 43L5 43L5 42L4 42L4 43L5 43L5 45L3 45L3 44L2 44L2 43L1 43L1 40L2 40L2 42L3 42L3 40L4 40L4 39L3 39L3 40L2 40L2 39L1 39L1 40L0 40L0 43L1 43L1 44L0 44L0 45L1 45L1 46L0 46L0 48L5 48L5 47L7 47L7 48L6 48L6 49L8 49L8 51L9 51L9 50L10 50L10 47L9 47L9 49L8 49L8 47L7 47L7 46L12 46L12 47L13 47L13 48L16 48L16 49L14 49L14 50L11 50L11 51L10 51L10 53L11 53L11 55L10 55L10 54L9 54L9 52L8 52L8 57L10 57L10 56L11 56L11 57L13 57L13 56L12 56L12 53L13 53L13 54L14 54L14 53L15 53L15 54L16 54L16 53L15 53L15 52L16 52L16 51L15 51L15 50L16 50L16 49L19 49L19 50L18 50L18 51L17 51L17 53L19 53L19 54L17 54L17 55L19 55L19 56L16 56L16 55L15 55L15 56L14 56L14 57L19 57L19 56L21 56L21 55L24 55L24 57L26 57L26 56L28 56L28 55L27 55L27 53L28 53L28 54L29 54L29 55L30 55L30 56L29 56L29 57L31 57L31 56L32 56L32 55L33 55L33 56L34 56L34 55L35 55L35 54L36 54L36 56L35 56L35 57L37 57L37 56L38 56L38 55L39 55L39 56L40 56L40 52L42 52L42 54L41 54L41 55L42 55L42 54L43 54L43 53L44 53L44 54L46 54L46 55L44 55L44 56L42 56L42 57L44 57L44 56L46 56L46 57L49 57L49 56L50 56L50 55L51 55L51 57L52 57L52 56L53 56L53 57L56 57L56 56L55 56L55 55L51 55L51 54L53 54L53 49L54 49L54 48L55 48L55 49L56 49L56 50L55 50L55 51L54 51L54 52L56 52L56 53L57 53L57 52L56 52L56 50L57 50L57 49L56 49L56 48L55 48L55 47L56 47L56 46L57 46L57 45L54 45L54 44L57 44L57 43L56 43L56 41L54 41L54 43L53 43L53 42L51 42L51 41L52 41L52 39L53 39L53 40L55 40L55 39L57 39L57 37L56 37L56 38L55 38L55 37L54 37L54 36L56 36L56 35L54 35L54 36L53 36L53 34L52 34L52 36L50 36L50 37L49 37L49 36L48 36L48 33L47 33L47 32L48 32L48 31L49 31L49 35L50 35L50 32L51 32L51 33L54 33L54 34L57 34L57 33L56 33L56 30L57 30L57 29L54 29L54 28L57 28L57 27L56 27L56 26L55 26L55 25L57 25L57 23L56 23L56 22L57 22L57 21L56 21L56 20L57 20L57 19L55 19L55 18L57 18L57 17L53 17L53 18L52 18L52 16L55 16L55 15L56 15L56 16L57 16L57 15L56 15L56 14L57 14L57 11L56 11L56 10L55 10L55 11L54 11L54 10L53 10L53 11L52 11L52 12L53 12L53 11L54 11L54 12L56 12L56 14L55 14L55 13L54 13L54 14L55 14L55 15L52 15L52 16L50 16L50 11L51 11L51 10L52 10L52 8L51 8L51 10L49 10L49 9L50 9L50 8L49 8L49 6L48 6L48 7L47 7L47 5L48 5L48 0L46 0L46 1L47 1L47 2L43 2L43 3L42 3L42 1L43 1L43 0L42 0L42 1L41 1L41 0L40 0L40 1L38 1L38 0L37 0L37 1L36 1L36 2L37 2L37 3L36 3L36 5L35 5L35 6L34 6L34 5L33 5L33 6L32 6L32 7L33 7L33 8L31 8L31 4L32 4L32 3L35 3L35 1L33 1L33 0L32 0L32 1L31 1L31 0L29 0L29 1L31 1L31 4L30 4L30 3L29 3L29 2L28 2L28 0L27 0L27 2L25 2L25 1L26 1L26 0L24 0L24 1L23 1L23 0L21 0L21 2L20 2L20 3L18 3L18 4L20 4L20 3L21 3L21 4L22 4L22 5L21 5L21 6L20 6L20 5L17 5L17 4L16 4L16 3L17 3L17 2L15 2L15 4L14 4L14 2L12 2L12 1L16 1L16 0L11 0L11 2L10 2L10 0ZM44 0L44 1L45 1L45 0ZM18 1L18 2L19 2L19 1ZM22 1L22 2L21 2L21 3L22 3L22 4L24 4L24 5L23 5L23 7L22 7L22 6L21 6L21 7L20 7L20 6L19 6L19 7L18 7L18 6L17 6L17 8L19 8L19 9L20 9L20 11L19 11L19 10L18 10L18 11L17 11L17 9L16 9L16 6L15 6L15 8L14 8L14 5L12 5L12 6L11 6L11 9L10 9L10 8L9 8L9 9L8 9L8 10L7 10L7 11L8 11L8 12L7 12L7 13L9 13L9 14L7 14L7 15L6 15L6 16L8 16L8 17L11 17L11 18L10 18L10 19L6 19L6 20L7 20L7 21L6 21L6 22L5 22L5 25L2 25L2 24L4 24L4 23L2 23L2 24L1 24L1 28L2 28L2 27L3 27L3 28L4 28L4 27L3 27L3 26L9 26L9 27L10 27L10 28L9 28L9 29L10 29L10 31L9 31L9 33L10 33L10 32L11 32L11 34L10 34L10 35L9 35L9 36L11 36L11 37L12 37L12 35L14 35L14 34L15 34L15 35L16 35L16 37L17 37L17 36L20 36L20 37L18 37L18 38L17 38L17 40L18 40L18 39L19 39L19 41L20 41L20 44L22 44L22 45L19 45L19 47L18 47L18 45L14 45L14 46L15 46L15 47L17 47L17 48L19 48L19 49L20 49L20 50L19 50L19 51L18 51L18 52L19 52L19 53L21 53L21 54L22 54L22 53L23 53L23 54L24 54L24 53L23 53L23 52L24 52L24 51L23 51L23 50L21 50L21 49L24 49L24 47L23 47L23 45L25 45L25 49L26 49L26 48L30 48L30 47L29 47L29 46L31 46L31 48L32 48L32 49L31 49L31 52L32 52L32 54L35 54L35 53L33 53L33 52L34 52L34 50L35 50L35 52L36 52L36 50L35 50L35 49L36 49L36 48L37 48L37 50L39 50L39 51L37 51L37 52L40 52L40 51L42 51L42 52L43 52L43 50L44 50L44 53L46 53L46 54L51 54L51 53L48 53L48 52L47 52L47 51L48 51L48 48L49 48L49 47L51 47L51 46L52 46L52 47L53 47L53 48L54 48L54 47L55 47L55 46L54 46L54 45L51 45L51 44L47 44L47 45L46 45L46 46L48 46L48 47L45 47L45 48L44 48L44 46L45 46L45 44L44 44L44 46L42 46L42 45L43 45L43 44L41 44L41 43L42 43L42 42L41 42L41 40L39 40L39 39L42 39L42 41L43 41L43 40L44 40L44 41L45 41L45 42L43 42L43 43L45 43L45 42L46 42L46 43L47 43L47 42L48 42L48 43L49 43L49 42L48 42L48 41L51 41L51 40L49 40L49 39L51 39L51 38L54 38L54 37L53 37L53 36L52 36L52 37L51 37L51 38L49 38L49 37L48 37L48 36L47 36L47 37L46 37L46 36L45 36L45 34L47 34L47 33L46 33L46 32L47 32L47 31L48 31L48 30L47 30L47 29L48 29L48 27L46 27L46 26L47 26L47 25L49 25L49 26L51 26L51 24L52 24L52 25L53 25L53 27L55 27L55 26L54 26L54 25L55 25L55 24L56 24L56 23L55 23L55 22L54 22L54 23L53 23L53 24L52 24L52 22L53 22L53 21L55 21L55 20L54 20L54 19L52 19L52 18L51 18L51 17L50 17L50 18L49 18L49 19L50 19L50 22L49 22L49 24L48 24L48 23L47 23L47 21L46 21L46 20L47 20L47 19L48 19L48 18L47 18L47 16L49 16L49 15L46 15L46 18L44 18L44 17L45 17L45 16L43 16L43 14L42 14L42 11L43 11L43 12L44 12L44 15L45 15L45 12L46 12L46 14L47 14L47 13L49 13L49 12L47 12L47 11L48 11L48 9L49 9L49 8L48 8L48 9L47 9L47 8L43 8L43 7L44 7L44 6L45 6L45 7L46 7L46 6L45 6L45 5L47 5L47 3L43 3L43 5L40 5L40 4L42 4L42 3L40 3L40 4L39 4L39 2L38 2L38 1L37 1L37 2L38 2L38 3L37 3L37 4L38 4L38 5L36 5L36 6L35 6L35 7L34 7L34 6L33 6L33 7L34 7L34 8L35 8L35 9L33 9L33 11L34 11L34 12L36 12L36 11L38 11L38 10L40 10L40 11L39 11L39 12L38 12L38 13L36 13L36 14L39 14L39 15L36 15L36 16L35 16L35 15L34 15L34 16L30 16L30 15L27 15L27 14L28 14L28 13L29 13L29 14L30 14L30 13L29 13L29 12L30 12L30 11L31 11L31 14L32 14L32 15L33 15L33 14L35 14L35 13L33 13L33 12L32 12L32 11L31 11L31 10L32 10L32 9L31 9L31 10L28 10L28 11L29 11L29 12L28 12L28 13L25 13L25 12L27 12L27 11L26 11L26 10L27 10L27 9L26 9L26 6L25 6L25 4L26 4L26 3L25 3L25 4L24 4L24 2L23 2L23 1ZM32 1L32 2L33 2L33 1ZM40 1L40 2L41 2L41 1ZM11 2L11 3L12 3L12 4L13 4L13 3L12 3L12 2ZM27 2L27 3L28 3L28 4L29 4L29 3L28 3L28 2ZM10 4L10 5L11 5L11 4ZM15 4L15 5L16 5L16 4ZM44 4L44 5L45 5L45 4ZM27 5L27 8L30 8L30 5ZM9 6L9 7L10 7L10 6ZM12 6L12 8L13 8L13 6ZM24 6L24 7L23 7L23 8L24 8L24 9L22 9L22 7L21 7L21 8L20 8L20 9L22 9L22 10L21 10L21 11L22 11L22 10L25 10L25 8L24 8L24 7L25 7L25 6ZM28 6L28 7L29 7L29 6ZM36 6L36 7L37 7L37 6ZM38 6L38 8L39 8L39 6ZM40 6L40 8L41 8L41 9L40 9L40 10L41 10L41 11L42 11L42 10L43 10L43 11L44 11L44 10L45 10L45 9L43 9L43 8L41 8L41 6ZM42 6L42 7L43 7L43 6ZM36 8L36 9L35 9L35 10L34 10L34 11L36 11L36 10L38 10L38 9L37 9L37 8ZM53 8L53 9L54 9L54 8ZM55 8L55 9L56 9L56 8ZM9 9L9 10L8 10L8 11L9 11L9 10L10 10L10 9ZM12 9L12 10L15 10L15 13L18 13L18 15L19 15L19 13L18 13L18 12L16 12L16 10L15 10L15 9ZM0 10L0 11L2 11L2 10ZM46 10L46 11L47 11L47 10ZM12 11L12 14L10 14L10 15L9 15L9 16L10 16L10 15L11 15L11 17L13 17L13 19L12 19L12 20L11 20L11 19L10 19L10 20L8 20L8 21L7 21L7 22L6 22L6 23L7 23L7 24L6 24L6 25L7 25L7 24L8 24L8 25L9 25L9 26L10 26L10 27L11 27L11 26L12 26L12 25L11 25L11 24L8 24L8 23L9 23L9 21L10 21L10 23L11 23L11 22L12 22L12 20L13 20L13 21L15 21L15 22L13 22L13 23L12 23L12 24L13 24L13 25L14 25L14 26L15 26L15 24L16 24L16 25L17 25L17 26L18 26L18 27L17 27L17 28L16 28L16 27L14 27L14 28L13 28L13 27L12 27L12 28L11 28L11 30L12 30L12 28L13 28L13 30L15 30L15 29L17 29L17 30L16 30L16 31L17 31L17 30L19 30L19 32L18 32L18 33L19 33L19 34L18 34L18 35L20 35L20 33L21 33L21 35L22 35L22 36L21 36L21 37L22 37L22 38L21 38L21 39L22 39L22 38L24 38L24 37L26 37L26 38L25 38L25 41L21 41L21 43L22 43L22 42L24 42L24 43L23 43L23 44L24 44L24 43L25 43L25 42L26 42L26 43L28 43L28 45L27 45L27 46L26 46L26 47L28 47L28 45L32 45L32 46L33 46L33 47L32 47L32 48L33 48L33 49L32 49L32 50L34 50L34 48L33 48L33 47L35 47L35 48L36 48L36 47L37 47L37 48L38 48L38 47L37 47L37 46L38 46L38 45L39 45L39 44L40 44L40 43L41 43L41 42L40 42L40 41L39 41L39 40L38 40L38 39L39 39L39 38L40 38L40 36L41 36L41 35L42 35L42 34L44 34L44 33L42 33L42 34L41 34L41 35L40 35L40 36L38 36L38 37L37 37L37 36L36 36L36 37L35 37L35 34L34 34L34 33L36 33L36 35L37 35L37 34L38 34L38 35L39 35L39 34L38 34L38 33L37 33L37 32L38 32L38 31L39 31L39 30L40 30L40 32L39 32L39 33L40 33L40 32L46 32L46 31L47 31L47 30L46 30L46 29L47 29L47 28L46 28L46 27L45 27L45 26L44 26L44 24L43 24L43 21L42 21L42 20L45 20L45 19L42 19L42 20L41 20L41 18L43 18L43 16L42 16L42 17L41 17L41 18L36 18L36 17L39 17L39 16L41 16L41 15L42 15L42 14L40 14L40 15L39 15L39 16L36 16L36 17L35 17L35 16L34 16L34 17L33 17L33 18L34 18L34 19L35 19L35 18L36 18L36 19L37 19L37 20L36 20L36 21L37 21L37 22L36 22L36 23L35 23L35 22L33 22L33 21L32 21L32 20L33 20L33 19L32 19L32 18L31 18L31 17L29 17L29 18L31 18L31 19L30 19L30 20L29 20L29 19L28 19L28 18L27 18L27 17L28 17L28 16L25 16L25 15L26 15L26 14L25 14L25 13L23 13L23 15L22 15L22 14L20 14L20 15L21 15L21 16L20 16L20 17L19 17L19 16L18 16L18 17L17 17L17 14L15 14L15 15L14 15L14 13L13 13L13 12L14 12L14 11ZM23 11L23 12L25 12L25 11ZM0 12L0 15L1 15L1 17L0 17L0 18L2 18L2 19L3 19L3 18L2 18L2 13L1 13L1 12ZM20 12L20 13L22 13L22 12ZM32 13L32 14L33 14L33 13ZM51 13L51 14L52 14L52 13ZM12 14L12 15L13 15L13 17L16 17L16 18L15 18L15 21L16 21L16 22L15 22L15 23L16 23L16 24L17 24L17 25L18 25L18 26L20 26L20 27L19 27L19 28L21 28L21 29L19 29L19 30L20 30L20 32L21 32L21 31L22 31L22 33L24 33L24 31L25 31L25 32L27 32L27 31L25 31L25 30L26 30L26 27L25 27L25 26L26 26L26 25L27 25L27 26L28 26L28 25L30 25L30 24L31 24L31 25L32 25L32 26L31 26L31 27L32 27L32 29L31 29L31 30L32 30L32 29L33 29L33 30L35 30L35 31L33 31L33 32L31 32L31 31L30 31L30 33L25 33L25 34L24 34L24 36L22 36L22 37L24 37L24 36L26 36L26 37L27 37L27 38L26 38L26 40L27 40L27 41L26 41L26 42L27 42L27 41L28 41L28 43L29 43L29 44L32 44L32 45L33 45L33 46L35 46L35 44L37 44L37 43L38 43L38 44L39 44L39 43L38 43L38 42L39 42L39 41L38 41L38 40L37 40L37 39L36 39L36 40L35 40L35 42L34 42L34 41L33 41L33 42L34 42L34 44L33 44L33 43L29 43L29 42L32 42L32 41L30 41L30 40L34 40L34 39L33 39L33 38L35 38L35 37L33 37L33 36L34 36L34 34L33 34L33 32L37 32L37 31L36 31L36 30L39 30L39 29L40 29L40 30L42 30L42 31L44 31L44 29L45 29L45 27L44 27L44 29L43 29L43 28L42 28L42 27L43 27L43 26L41 26L41 23L42 23L42 22L41 22L41 20L40 20L40 19L38 19L38 20L37 20L37 21L38 21L38 22L37 22L37 23L36 23L36 24L34 24L34 23L32 23L32 24L31 24L31 22L28 22L28 23L30 23L30 24L27 24L27 21L29 21L29 20L28 20L28 19L26 19L26 20L27 20L27 21L25 21L25 22L26 22L26 23L25 23L25 24L24 24L24 23L23 23L23 22L24 22L24 21L23 21L23 20L25 20L25 18L26 18L26 17L25 17L25 18L24 18L24 19L23 19L23 18L21 18L21 17L20 17L20 18L21 18L21 19L19 19L19 17L18 17L18 19L17 19L17 17L16 17L16 15L15 15L15 16L14 16L14 15L13 15L13 14ZM3 15L3 17L4 17L4 15ZM22 16L22 17L24 17L24 16ZM34 17L34 18L35 18L35 17ZM46 18L46 19L47 19L47 18ZM13 19L13 20L14 20L14 19ZM18 19L18 21L19 21L19 22L17 22L17 23L19 23L19 24L18 24L18 25L21 25L21 26L22 26L22 27L21 27L21 28L22 28L22 29L21 29L21 30L22 30L22 31L23 31L23 30L22 30L22 29L24 29L24 30L25 30L25 29L24 29L24 26L25 26L25 25L26 25L26 24L25 24L25 25L24 25L24 24L23 24L23 23L21 23L21 21L22 21L22 22L23 22L23 21L22 21L22 20L21 20L21 21L19 21L19 19ZM51 19L51 20L52 20L52 19ZM0 20L0 21L1 21L1 20ZM30 20L30 21L31 21L31 20ZM34 20L34 21L35 21L35 20ZM39 20L39 23L38 23L38 24L36 24L36 26L38 26L38 27L36 27L36 28L35 28L35 27L34 27L34 25L33 25L33 27L34 27L34 28L33 28L33 29L39 29L39 28L41 28L41 26L40 26L40 25L39 25L39 26L38 26L38 24L40 24L40 20ZM44 21L44 23L45 23L45 24L46 24L46 22L45 22L45 21ZM19 22L19 23L20 23L20 22ZM50 22L50 24L49 24L49 25L50 25L50 24L51 24L51 22ZM54 23L54 24L53 24L53 25L54 25L54 24L55 24L55 23ZM21 24L21 25L22 25L22 26L23 26L23 24ZM42 24L42 25L43 25L43 24ZM10 25L10 26L11 26L11 25ZM39 26L39 27L38 27L38 28L39 28L39 27L40 27L40 26ZM5 27L5 30L8 30L8 27ZM27 27L27 30L30 30L30 27ZM49 27L49 30L52 30L52 27ZM6 28L6 29L7 29L7 28ZM14 28L14 29L15 29L15 28ZM17 28L17 29L18 29L18 28ZM28 28L28 29L29 29L29 28ZM50 28L50 29L51 29L51 28ZM2 29L2 30L1 30L1 31L2 31L2 30L3 30L3 29ZM42 29L42 30L43 30L43 29ZM45 30L45 31L46 31L46 30ZM4 31L4 32L2 32L2 33L3 33L3 34L4 34L4 35L5 35L5 36L7 36L7 37L6 37L6 38L7 38L7 39L8 39L8 38L9 38L9 39L10 39L10 37L8 37L8 36L7 36L7 35L6 35L6 34L8 34L8 33L5 33L5 32L7 32L7 31ZM11 31L11 32L13 32L13 33L12 33L12 34L11 34L11 35L12 35L12 34L14 34L14 32L15 32L15 31ZM28 31L28 32L29 32L29 31ZM51 31L51 32L54 32L54 33L55 33L55 32L54 32L54 31ZM16 32L16 33L15 33L15 34L16 34L16 33L17 33L17 32ZM31 33L31 34L32 34L32 33ZM22 34L22 35L23 35L23 34ZM25 34L25 35L26 35L26 36L27 36L27 37L28 37L28 38L27 38L27 39L28 39L28 41L29 41L29 39L31 39L31 38L32 38L32 35L30 35L30 34L29 34L29 35L30 35L30 36L29 36L29 37L28 37L28 36L27 36L27 35L26 35L26 34ZM43 35L43 37L41 37L41 38L43 38L43 37L44 37L44 38L45 38L45 37L44 37L44 35ZM30 36L30 38L31 38L31 36ZM7 37L7 38L8 38L8 37ZM38 37L38 38L39 38L39 37ZM11 38L11 39L12 39L12 38ZM19 38L19 39L20 39L20 38ZM46 38L46 39L44 39L44 40L45 40L45 41L46 41L46 39L47 39L47 38ZM48 38L48 39L49 39L49 38ZM23 39L23 40L24 40L24 39ZM36 40L36 42L38 42L38 41L37 41L37 40ZM50 42L50 43L51 43L51 42ZM52 43L52 44L53 44L53 43ZM25 44L25 45L26 45L26 44ZM5 45L5 46L3 46L3 47L5 47L5 46L7 46L7 45ZM48 45L48 46L49 46L49 45ZM1 46L1 47L2 47L2 46ZM21 46L21 48L20 48L20 47L19 47L19 48L20 48L20 49L21 49L21 48L23 48L23 47L22 47L22 46ZM39 46L39 47L40 47L40 48L39 48L39 50L40 50L40 48L41 48L41 50L43 50L43 49L44 49L44 50L46 50L46 51L47 51L47 50L46 50L46 49L47 49L47 48L45 48L45 49L44 49L44 48L43 48L43 47L42 47L42 46L41 46L41 47L40 47L40 46ZM42 48L42 49L43 49L43 48ZM27 49L27 52L30 52L30 49ZM49 49L49 52L52 52L52 49ZM25 50L25 52L26 52L26 50ZM28 50L28 51L29 51L29 50ZM50 50L50 51L51 51L51 50ZM14 51L14 52L15 52L15 51ZM20 51L20 52L21 52L21 53L22 53L22 52L23 52L23 51L22 51L22 52L21 52L21 51ZM32 51L32 52L33 52L33 51ZM46 52L46 53L47 53L47 52ZM25 53L25 55L26 55L26 53ZM29 53L29 54L30 54L30 53ZM36 53L36 54L37 54L37 55L38 55L38 54L39 54L39 53L38 53L38 54L37 54L37 53ZM54 53L54 54L55 54L55 53ZM19 54L19 55L20 55L20 54ZM9 55L9 56L10 56L10 55ZM0 0L0 7L7 7L7 0ZM1 1L1 6L6 6L6 1ZM2 2L2 5L5 5L5 2ZM50 0L50 7L57 7L57 0ZM51 1L51 6L56 6L56 1ZM52 2L52 5L55 5L55 2ZM0 50L0 57L7 57L7 50ZM1 51L1 56L6 56L6 51ZM2 52L2 55L5 55L5 52Z" fill="#000000"/></g></g></svg>
