<?xml version="1.0" encoding="UTF-8"?>
<svg xmlns="http://www.w3.org/2000/svg" version="1.1" width="300" height="300" viewBox="0 0 300 300"><rect x="0" y="0" width="300" height="300" fill="#ffffff"/><g transform="scale(4.918)"><g transform="translate(2,2)"><path fill-rule="evenodd" d="M9 0L9 1L8 1L8 2L9 2L9 1L10 1L10 4L11 4L11 6L10 6L10 8L6 8L6 9L5 9L5 8L0 8L0 9L2 9L2 10L1 10L1 11L0 11L0 12L2 12L2 11L4 11L4 9L5 9L5 10L6 10L6 11L5 11L5 12L6 12L6 13L5 13L5 14L3 14L3 16L2 16L2 15L1 15L1 16L0 16L0 17L1 17L1 16L2 16L2 19L1 19L1 18L0 18L0 20L1 20L1 21L0 21L0 24L3 24L3 23L2 23L2 20L3 20L3 21L9 21L9 22L11 22L11 23L12 23L12 27L9 27L9 25L10 25L10 26L11 26L11 24L9 24L9 23L7 23L7 22L4 22L4 23L5 23L5 24L4 24L4 25L5 25L5 24L6 24L6 25L7 25L7 24L8 24L8 26L4 26L4 31L5 31L5 32L6 32L6 33L9 33L9 34L11 34L11 35L7 35L7 34L3 34L3 33L4 33L4 32L3 32L3 31L2 31L2 32L1 32L1 30L0 30L0 36L1 36L1 35L2 35L2 34L3 34L3 36L4 36L4 37L5 37L5 35L7 35L7 36L6 36L6 37L7 37L7 38L6 38L6 39L7 39L7 40L6 40L6 41L5 41L5 42L4 42L4 43L2 43L2 44L1 44L1 45L0 45L0 48L5 48L5 47L7 47L7 48L6 48L6 49L7 49L7 48L8 48L8 51L11 51L11 48L12 48L12 49L13 49L13 48L12 48L12 47L13 47L13 45L14 45L14 44L16 44L16 45L15 45L15 46L14 46L14 48L15 48L15 49L14 49L14 50L13 50L13 52L12 52L12 53L11 53L11 52L10 52L10 53L9 53L9 52L8 52L8 57L13 57L13 56L14 56L14 57L20 57L20 56L21 56L21 53L22 53L22 54L23 54L23 55L24 55L24 56L23 56L23 57L24 57L24 56L25 56L25 57L26 57L26 56L25 56L25 54L27 54L27 53L28 53L28 54L29 54L29 55L30 55L30 57L32 57L32 56L31 56L31 55L33 55L33 57L34 57L34 55L33 55L33 54L32 54L32 52L34 52L34 53L35 53L35 54L36 54L36 55L37 55L37 54L38 54L38 56L40 56L40 52L41 52L41 51L40 51L40 50L43 50L43 52L42 52L42 54L41 54L41 57L42 57L42 56L43 56L43 57L44 57L44 55L42 55L42 54L43 54L43 53L44 53L44 54L45 54L45 53L44 53L44 50L46 50L46 51L47 51L47 52L48 52L48 54L47 54L47 55L45 55L45 57L46 57L46 56L47 56L47 57L49 57L49 56L50 56L50 57L52 57L52 56L53 56L53 57L56 57L56 56L55 56L55 55L51 55L51 54L53 54L53 52L55 52L55 51L54 51L54 50L55 50L55 49L54 49L54 48L55 48L55 45L54 45L54 44L57 44L57 43L56 43L56 42L57 42L57 41L54 41L54 43L53 43L53 42L51 42L51 41L53 41L53 40L55 40L55 39L57 39L57 37L53 37L53 40L51 40L51 39L50 39L50 37L52 37L52 36L55 36L55 34L57 34L57 32L55 32L55 30L53 30L53 29L54 29L54 28L55 28L55 29L56 29L56 30L57 30L57 29L56 29L56 28L57 28L57 27L56 27L56 26L55 26L55 25L56 25L56 24L57 24L57 23L56 23L56 22L57 22L57 19L56 19L56 21L55 21L55 22L54 22L54 21L53 21L53 23L52 23L52 22L50 22L50 19L51 19L51 18L52 18L52 20L55 20L55 19L54 19L54 18L55 18L55 17L54 17L54 16L55 16L55 15L56 15L56 16L57 16L57 15L56 15L56 14L57 14L57 11L56 11L56 10L55 10L55 11L54 11L54 10L49 10L49 9L50 9L50 8L49 8L49 9L48 9L48 8L47 8L47 5L48 5L48 0L46 0L46 1L45 1L45 0L44 0L44 1L45 1L45 2L42 2L42 3L41 3L41 2L40 2L40 1L43 1L43 0L40 0L40 1L36 1L36 0L35 0L35 1L34 1L34 0L33 0L33 1L34 1L34 2L32 2L32 0L29 0L29 1L28 1L28 0L27 0L27 1L28 1L28 3L27 3L27 2L24 2L24 1L26 1L26 0L24 0L24 1L23 1L23 0L21 0L21 1L23 1L23 2L24 2L24 4L22 4L22 2L21 2L21 4L22 4L22 5L24 5L24 4L25 4L25 6L24 6L24 7L23 7L23 6L22 6L22 8L24 8L24 9L23 9L23 10L25 10L25 8L24 8L24 7L25 7L25 6L26 6L26 9L27 9L27 10L26 10L26 11L27 11L27 12L25 12L25 13L24 13L24 12L23 12L23 13L24 13L24 14L23 14L23 21L19 21L19 20L22 20L22 19L19 19L19 18L20 18L20 17L19 17L19 13L22 13L22 12L21 12L21 11L22 11L22 10L21 10L21 11L20 11L20 12L19 12L19 13L18 13L18 12L16 12L16 10L15 10L15 13L18 13L18 14L16 14L16 15L18 15L18 17L19 17L19 18L17 18L17 19L18 19L18 21L17 21L17 24L16 24L16 23L15 23L15 24L14 24L14 22L11 22L11 21L10 21L10 20L9 20L9 18L10 18L10 19L11 19L11 20L12 20L12 21L15 21L15 22L16 22L16 21L15 21L15 20L16 20L16 19L15 19L15 18L12 18L12 16L11 16L11 17L10 17L10 16L9 16L9 18L8 18L8 15L7 15L7 14L6 14L6 13L7 13L7 12L8 12L8 14L10 14L10 15L11 15L11 14L12 14L12 15L13 15L13 14L14 14L14 13L13 13L13 12L14 12L14 11L13 11L13 9L14 9L14 7L15 7L15 6L16 6L16 8L18 8L18 9L17 9L17 11L18 11L18 9L19 9L19 10L20 10L20 9L21 9L21 8L20 8L20 9L19 9L19 8L18 8L18 7L19 7L19 6L20 6L20 7L21 7L21 6L20 6L20 5L19 5L19 6L18 6L18 7L17 7L17 5L18 5L18 4L20 4L20 3L19 3L19 2L20 2L20 0L17 0L17 1L16 1L16 2L14 2L14 3L15 3L15 4L14 4L14 7L13 7L13 6L12 6L12 3L11 3L11 2L13 2L13 0L11 0L11 1L10 1L10 0ZM14 0L14 1L15 1L15 0ZM17 1L17 2L16 2L16 4L15 4L15 5L16 5L16 4L18 4L18 1ZM29 1L29 2L30 2L30 4L31 4L31 7L32 7L32 6L33 6L33 7L34 7L34 6L35 6L35 8L36 8L36 6L37 6L37 8L39 8L39 9L38 9L38 10L37 10L37 9L36 9L36 10L35 10L35 9L34 9L34 8L31 8L31 9L32 9L32 10L35 10L35 11L34 11L34 12L35 12L35 11L36 11L36 12L37 12L37 11L39 11L39 12L38 12L38 13L33 13L33 11L30 11L30 12L32 12L32 13L31 13L31 14L30 14L30 13L29 13L29 12L28 12L28 13L25 13L25 16L28 16L28 17L27 17L27 18L26 18L26 17L25 17L25 19L26 19L26 20L27 20L27 21L25 21L25 22L26 22L26 23L25 23L25 24L24 24L24 23L23 23L23 22L24 22L24 21L23 21L23 22L22 22L22 23L21 23L21 25L20 25L20 24L19 24L19 25L18 25L18 24L17 24L17 25L16 25L16 24L15 24L15 25L16 25L16 26L17 26L17 27L16 27L16 28L15 28L15 29L16 29L16 30L14 30L14 27L15 27L15 26L14 26L14 24L13 24L13 27L12 27L12 28L9 28L9 30L10 30L10 29L11 29L11 31L10 31L10 32L9 32L9 33L11 33L11 32L12 32L12 28L13 28L13 30L14 30L14 31L16 31L16 32L17 32L17 33L15 33L15 32L14 32L14 33L13 33L13 35L11 35L11 38L10 38L10 39L9 39L9 40L8 40L8 41L6 41L6 42L7 42L7 43L6 43L6 44L5 44L5 45L4 45L4 44L2 44L2 45L4 45L4 46L3 46L3 47L5 47L5 45L6 45L6 46L9 46L9 49L10 49L10 48L11 48L11 47L10 47L10 45L8 45L8 44L10 44L10 41L9 41L9 40L11 40L11 42L12 42L12 43L11 43L11 44L12 44L12 45L13 45L13 44L14 44L14 41L12 41L12 40L13 40L13 37L15 37L15 38L16 38L16 37L17 37L17 39L18 39L18 40L19 40L19 41L20 41L20 42L18 42L18 41L17 41L17 40L16 40L16 39L15 39L15 40L16 40L16 41L15 41L15 43L17 43L17 44L18 44L18 45L16 45L16 46L15 46L15 47L16 47L16 48L17 48L17 49L15 49L15 50L14 50L14 53L13 53L13 54L11 54L11 56L13 56L13 54L15 54L15 55L16 55L16 56L17 56L17 55L18 55L18 54L19 54L19 55L20 55L20 54L19 54L19 53L21 53L21 52L22 52L22 53L23 53L23 54L24 54L24 53L23 53L23 52L24 52L24 51L25 51L25 53L26 53L26 50L24 50L24 51L23 51L23 49L24 49L24 48L26 48L26 46L27 46L27 47L28 47L28 48L30 48L30 47L28 47L28 46L29 46L29 45L30 45L30 44L32 44L32 45L33 45L33 46L31 46L31 48L32 48L32 49L31 49L31 52L32 52L32 51L34 51L34 50L35 50L35 52L36 52L36 50L37 50L37 51L38 51L38 52L37 52L37 53L38 53L38 54L39 54L39 53L38 53L38 52L40 52L40 51L38 51L38 50L39 50L39 49L41 49L41 48L42 48L42 47L45 47L45 43L49 43L49 41L51 41L51 40L50 40L50 39L49 39L49 40L47 40L47 39L48 39L48 38L49 38L49 37L50 37L50 36L49 36L49 35L48 35L48 36L46 36L46 35L45 35L45 34L47 34L47 33L48 33L48 34L49 34L49 31L48 31L48 30L47 30L47 29L48 29L48 27L47 27L47 26L48 26L48 25L49 25L49 26L51 26L51 24L52 24L52 25L53 25L53 27L55 27L55 26L54 26L54 24L52 24L52 23L51 23L51 24L50 24L50 22L48 22L48 21L49 21L49 20L48 20L48 19L49 19L49 18L51 18L51 17L52 17L52 18L54 18L54 17L53 17L53 16L54 16L54 15L55 15L55 14L54 14L54 13L56 13L56 11L55 11L55 12L54 12L54 11L53 11L53 12L52 12L52 11L50 11L50 12L48 12L48 11L49 11L49 10L48 10L48 9L46 9L46 8L42 8L42 6L43 6L43 7L44 7L44 6L45 6L45 7L46 7L46 6L45 6L45 5L47 5L47 3L46 3L46 4L45 4L45 3L42 3L42 4L43 4L43 5L42 5L42 6L41 6L41 3L40 3L40 6L39 6L39 4L38 4L38 5L36 5L36 3L39 3L39 2L34 2L34 3L32 3L32 4L31 4L31 1ZM46 1L46 2L47 2L47 1ZM8 3L8 4L9 4L9 3ZM25 3L25 4L26 4L26 3ZM28 3L28 4L29 4L29 3ZM34 3L34 4L35 4L35 3ZM44 4L44 5L45 5L45 4ZM8 5L8 7L9 7L9 5ZM27 5L27 8L30 8L30 5ZM33 5L33 6L34 6L34 5ZM35 5L35 6L36 6L36 5ZM11 6L11 7L12 7L12 8L11 8L11 10L9 10L9 11L10 11L10 14L11 14L11 13L12 13L12 14L13 14L13 13L12 13L12 12L13 12L13 11L12 11L12 9L13 9L13 7L12 7L12 6ZM28 6L28 7L29 7L29 6ZM38 6L38 7L39 7L39 6ZM40 6L40 7L41 7L41 6ZM48 6L48 7L49 7L49 6ZM41 8L41 9L40 9L40 10L43 10L43 11L42 11L42 14L41 14L41 13L39 13L39 14L36 14L36 15L35 15L35 14L33 14L33 13L32 13L32 14L33 14L33 15L32 15L32 16L31 16L31 15L30 15L30 16L31 16L31 17L29 17L29 18L31 18L31 17L32 17L32 18L34 18L34 19L30 19L30 20L31 20L31 21L30 21L30 22L29 22L29 21L27 21L27 24L29 24L29 26L27 26L27 25L26 25L26 24L25 24L25 25L21 25L21 26L22 26L22 27L21 27L21 28L20 28L20 25L19 25L19 26L18 26L18 25L17 25L17 26L18 26L18 27L17 27L17 28L16 28L16 29L17 29L17 30L18 30L18 31L19 31L19 32L18 32L18 33L19 33L19 34L18 34L18 35L19 35L19 36L17 36L17 35L16 35L16 34L15 34L15 33L14 33L14 34L15 34L15 35L13 35L13 36L15 36L15 37L16 37L16 36L17 36L17 37L20 37L20 33L19 33L19 32L20 32L20 31L19 31L19 29L21 29L21 31L22 31L22 32L23 32L23 31L22 31L22 29L24 29L24 30L25 30L25 31L24 31L24 33L23 33L23 36L24 36L24 37L22 37L22 35L21 35L21 37L22 37L22 38L24 38L24 37L25 37L25 36L24 36L24 34L25 34L25 35L26 35L26 37L28 37L28 38L26 38L26 39L25 39L25 41L24 41L24 39L23 39L23 41L22 41L22 42L21 42L21 43L20 43L20 45L18 45L18 46L17 46L17 47L18 47L18 49L19 49L19 50L18 50L18 51L17 51L17 50L15 50L15 52L16 52L16 51L17 51L17 52L18 52L18 53L17 53L17 54L18 54L18 53L19 53L19 51L20 51L20 52L21 52L21 51L22 51L22 49L21 49L21 50L20 50L20 49L19 49L19 47L18 47L18 46L20 46L20 47L21 47L21 46L20 46L20 45L22 45L22 44L21 44L21 43L22 43L22 42L23 42L23 43L24 43L24 44L25 44L25 45L23 45L23 46L22 46L22 48L23 48L23 46L24 46L24 47L25 47L25 45L26 45L26 44L25 44L25 43L24 43L24 42L26 42L26 43L27 43L27 45L29 45L29 43L31 43L31 42L32 42L32 40L33 40L33 41L35 41L35 42L34 42L34 43L32 43L32 44L34 44L34 43L35 43L35 42L37 42L37 43L36 43L36 44L35 44L35 46L33 46L33 47L32 47L32 48L33 48L33 50L34 50L34 49L35 49L35 50L36 50L36 49L37 49L37 50L38 50L38 47L37 47L37 48L36 48L36 46L38 46L38 45L39 45L39 48L41 48L41 47L42 47L42 46L44 46L44 44L43 44L43 43L44 43L44 42L45 42L45 41L46 41L46 40L45 40L45 41L44 41L44 40L43 40L43 39L41 39L41 40L42 40L42 41L39 41L39 42L37 42L37 41L38 41L38 39L37 39L37 38L38 38L38 37L39 37L39 38L40 38L40 36L41 36L41 35L42 35L42 36L43 36L43 37L41 37L41 38L43 38L43 37L44 37L44 38L45 38L45 39L46 39L46 38L45 38L45 37L44 37L44 35L42 35L42 34L43 34L43 32L45 32L45 33L47 33L47 32L48 32L48 31L47 31L47 30L46 30L46 29L47 29L47 28L46 28L46 27L45 27L45 26L43 26L43 24L45 24L45 25L46 25L46 22L45 22L45 21L48 21L48 20L46 20L46 19L47 19L47 18L49 18L49 17L50 17L50 16L52 16L52 15L51 15L51 14L52 14L52 13L51 13L51 14L50 14L50 13L47 13L47 14L46 14L46 12L45 12L45 14L44 14L44 12L43 12L43 11L44 11L44 10L45 10L45 9L44 9L44 10L43 10L43 9L42 9L42 8ZM51 8L51 9L52 9L52 8ZM53 8L53 9L54 9L54 8ZM55 8L55 9L56 9L56 8ZM6 9L6 10L7 10L7 11L6 11L6 12L7 12L7 11L8 11L8 10L7 10L7 9ZM28 10L28 11L29 11L29 10ZM46 10L46 11L47 11L47 10ZM11 11L11 12L12 12L12 11ZM0 13L0 14L2 14L2 13ZM28 13L28 14L26 14L26 15L29 15L29 13ZM5 14L5 15L6 15L6 16L7 16L7 15L6 15L6 14ZM21 14L21 15L20 15L20 16L22 16L22 14ZM39 14L39 15L38 15L38 16L37 16L37 15L36 15L36 16L35 16L35 15L33 15L33 16L32 16L32 17L33 17L33 16L34 16L34 18L35 18L35 19L34 19L34 20L32 20L32 21L34 21L34 22L35 22L35 24L31 24L31 25L33 25L33 26L32 26L32 27L31 27L31 28L32 28L32 29L31 29L31 30L39 30L39 31L41 31L41 32L38 32L38 31L36 31L36 32L35 32L35 31L33 31L33 32L31 32L31 31L30 31L30 32L29 32L29 31L25 31L25 32L29 32L29 33L25 33L25 34L26 34L26 35L27 35L27 36L28 36L28 37L29 37L29 34L31 34L31 33L32 33L32 38L31 38L31 35L30 35L30 38L31 38L31 39L29 39L29 40L28 40L28 39L27 39L27 40L28 40L28 41L26 41L26 42L27 42L27 43L29 43L29 42L30 42L30 41L31 41L31 39L33 39L33 38L35 38L35 39L34 39L34 40L35 40L35 41L36 41L36 40L37 40L37 39L36 39L36 38L37 38L37 37L36 37L36 36L38 36L38 35L37 35L37 34L40 34L40 35L39 35L39 36L40 36L40 35L41 35L41 34L42 34L42 32L43 32L43 31L46 31L46 32L47 32L47 31L46 31L46 30L42 30L42 29L43 29L43 28L44 28L44 29L45 29L45 27L43 27L43 26L42 26L42 27L41 27L41 23L42 23L42 24L43 24L43 23L44 23L44 21L45 21L45 20L40 20L40 19L41 19L41 18L42 18L42 19L45 19L45 18L47 18L47 17L48 17L48 16L50 16L50 15L46 15L46 17L45 17L45 16L43 16L43 17L44 17L44 18L42 18L42 16L39 16L39 15L41 15L41 14ZM42 14L42 15L44 15L44 14ZM14 15L14 16L13 16L13 17L14 17L14 16L15 16L15 15ZM16 16L16 17L17 17L17 16ZM36 16L36 17L35 17L35 18L37 18L37 20L36 20L36 21L37 21L37 22L36 22L36 23L37 23L37 24L35 24L35 26L34 26L34 28L33 28L33 27L32 27L32 28L33 28L33 29L35 29L35 28L36 28L36 29L38 29L38 28L36 28L36 27L35 27L35 26L36 26L36 25L37 25L37 26L38 26L38 25L39 25L39 26L40 26L40 25L39 25L39 24L40 24L40 22L43 22L43 21L40 21L40 20L39 20L39 24L38 24L38 23L37 23L37 22L38 22L38 19L39 19L39 18L37 18L37 16ZM3 17L3 18L4 18L4 17ZM6 17L6 18L7 18L7 17ZM21 17L21 18L22 18L22 17ZM56 17L56 18L57 18L57 17ZM11 18L11 19L12 19L12 20L14 20L14 19L12 19L12 18ZM27 18L27 20L29 20L29 19L28 19L28 18ZM4 19L4 20L7 20L7 19ZM34 20L34 21L35 21L35 20ZM18 21L18 22L19 22L19 23L20 23L20 22L19 22L19 21ZM30 22L30 23L31 23L31 22ZM6 23L6 24L7 24L7 23ZM22 23L22 24L23 24L23 23ZM48 23L48 24L47 24L47 25L48 25L48 24L49 24L49 23ZM55 23L55 24L56 24L56 23ZM1 25L1 26L0 26L0 29L2 29L2 30L3 30L3 29L2 29L2 28L3 28L3 27L2 27L2 25ZM25 25L25 26L26 26L26 25ZM5 27L5 30L8 30L8 27ZM23 27L23 28L24 28L24 29L25 29L25 30L26 30L26 27ZM27 27L27 30L30 30L30 27ZM39 27L39 28L40 28L40 27ZM42 27L42 28L43 28L43 27ZM49 27L49 30L52 30L52 27ZM6 28L6 29L7 29L7 28ZM17 28L17 29L18 29L18 28ZM21 28L21 29L22 29L22 28ZM28 28L28 29L29 29L29 28ZM50 28L50 29L51 29L51 28ZM40 29L40 30L41 30L41 31L42 31L42 30L41 30L41 29ZM6 31L6 32L7 32L7 31ZM52 31L52 32L53 32L53 33L51 33L51 32L50 32L50 35L51 35L51 36L52 36L52 34L55 34L55 32L53 32L53 31ZM2 32L2 33L3 33L3 32ZM30 32L30 33L31 33L31 32ZM36 32L36 33L35 33L35 34L33 34L33 36L34 36L34 37L35 37L35 34L37 34L37 33L38 33L38 32ZM21 33L21 34L22 34L22 33ZM56 35L56 36L57 36L57 35ZM7 36L7 37L8 37L8 38L9 38L9 36ZM0 38L0 42L1 42L1 41L2 41L2 39L4 39L4 38L2 38L2 39L1 39L1 38ZM11 38L11 39L12 39L12 38ZM18 38L18 39L20 39L20 38ZM21 39L21 40L22 40L22 39ZM39 39L39 40L40 40L40 39ZM8 41L8 42L9 42L9 41ZM17 42L17 43L18 43L18 42ZM39 42L39 43L38 43L38 44L37 44L37 45L38 45L38 44L39 44L39 45L41 45L41 46L40 46L40 47L41 47L41 46L42 46L42 45L43 45L43 44L40 44L40 43L43 43L43 42ZM50 42L50 43L51 43L51 44L52 44L52 43L51 43L51 42ZM7 43L7 44L6 44L6 45L7 45L7 44L8 44L8 43ZM12 43L12 44L13 44L13 43ZM47 44L47 45L46 45L46 46L48 46L48 47L46 47L46 48L47 48L47 49L46 49L46 50L47 50L47 51L48 51L48 48L49 48L49 47L51 47L51 48L54 48L54 47L52 47L52 46L53 46L53 45L50 45L50 44ZM48 45L48 46L49 46L49 45ZM56 45L56 46L57 46L57 45ZM1 46L1 47L2 47L2 46ZM34 47L34 48L35 48L35 49L36 49L36 48L35 48L35 47ZM56 47L56 48L57 48L57 47ZM43 48L43 49L45 49L45 48ZM27 49L27 52L30 52L30 49ZM49 49L49 52L52 52L52 49ZM56 49L56 50L57 50L57 49ZM28 50L28 51L29 51L29 50ZM50 50L50 51L51 51L51 50ZM56 52L56 53L57 53L57 52ZM15 53L15 54L16 54L16 53ZM30 53L30 54L31 54L31 53ZM49 53L49 55L47 55L47 56L49 56L49 55L50 55L50 56L51 56L51 55L50 55L50 54L51 54L51 53ZM9 55L9 56L10 56L10 55ZM27 55L27 56L28 56L28 55ZM35 56L35 57L37 57L37 56ZM0 0L0 7L7 7L7 0ZM1 1L1 6L6 6L6 1ZM2 2L2 5L5 5L5 2ZM50 0L50 7L57 7L57 0ZM51 1L51 6L56 6L56 1ZM52 2L52 5L55 5L55 2ZM0 50L0 57L7 57L7 50ZM1 51L1 56L6 56L6 51ZM2 52L2 55L5 55L5 52Z" fill="#000000"/></g></g></svg>
