<?xml version="1.0" encoding="UTF-8"?>
<svg xmlns="http://www.w3.org/2000/svg" version="1.1" width="300" height="300" viewBox="0 0 300 300"><rect x="0" y="0" width="300" height="300" fill="#ffffff"/><g transform="scale(4.918)"><g transform="translate(2,2)"><path fill-rule="evenodd" d="M10 0L10 1L8 1L8 2L11 2L11 3L12 3L12 1L13 1L13 4L14 4L14 5L13 5L13 6L12 6L12 8L13 8L13 9L11 9L11 6L10 6L10 5L12 5L12 4L10 4L10 5L8 5L8 7L9 7L9 8L6 8L6 9L5 9L5 8L0 8L0 10L1 10L1 11L0 11L0 16L1 16L1 17L0 17L0 21L1 21L1 18L2 18L2 19L5 19L5 20L4 20L4 21L3 21L3 23L4 23L4 24L3 24L3 25L4 25L4 24L5 24L5 23L4 23L4 21L5 21L5 22L6 22L6 23L7 23L7 24L6 24L6 25L5 25L5 26L4 26L4 27L3 27L3 26L2 26L2 22L0 22L0 23L1 23L1 24L0 24L0 25L1 25L1 27L3 27L3 28L0 28L0 31L1 31L1 32L0 32L0 33L1 33L1 34L0 34L0 36L1 36L1 37L0 37L0 38L1 38L1 37L2 37L2 39L0 39L0 40L3 40L3 41L4 41L4 42L1 42L1 43L2 43L2 45L3 45L3 46L2 46L2 47L1 47L1 46L0 46L0 48L5 48L5 47L8 47L8 46L6 46L6 45L7 45L7 44L8 44L8 45L10 45L10 46L9 46L9 47L11 47L11 48L6 48L6 49L8 49L8 51L9 51L9 52L8 52L8 57L11 57L11 56L12 56L12 57L13 57L13 56L15 56L15 57L19 57L19 55L20 55L20 54L19 54L19 55L18 55L18 56L17 56L17 54L18 54L18 53L20 53L20 51L19 51L19 50L20 50L20 49L21 49L21 48L20 48L20 49L19 49L19 48L18 48L18 46L19 46L19 47L22 47L22 45L23 45L23 46L25 46L25 45L26 45L26 44L25 44L25 41L30 41L30 42L26 42L26 43L31 43L31 44L28 44L28 45L27 45L27 46L26 46L26 47L29 47L29 48L25 48L25 47L24 47L24 48L25 48L25 49L22 49L22 50L21 50L21 51L22 51L22 52L23 52L23 51L24 51L24 53L21 53L21 54L23 54L23 55L22 55L22 56L23 56L23 57L26 57L26 55L27 55L27 56L28 56L28 55L27 55L27 53L28 53L28 54L29 54L29 56L30 56L30 57L32 57L32 55L35 55L35 56L33 56L33 57L39 57L39 56L40 56L40 52L41 52L41 51L42 51L42 52L43 52L43 53L42 53L42 54L41 54L41 55L42 55L42 57L43 57L43 56L45 56L45 57L46 57L46 56L45 56L45 55L50 55L50 54L49 54L49 53L51 53L51 54L55 54L55 53L54 53L54 52L55 52L55 51L56 51L56 52L57 52L57 51L56 51L56 50L57 50L57 49L56 49L56 50L55 50L55 49L53 49L53 47L52 47L52 45L54 45L54 46L57 46L57 45L56 45L56 44L57 44L57 43L56 43L56 42L55 42L55 40L56 40L56 39L54 39L54 38L55 38L55 37L54 37L54 38L53 38L53 40L52 40L52 39L50 39L50 38L51 38L51 37L52 37L52 36L56 36L56 37L57 37L57 36L56 36L56 34L57 34L57 33L56 33L56 32L57 32L57 31L55 31L55 30L57 30L57 29L55 29L55 30L53 30L53 29L54 29L54 28L56 28L56 25L54 25L54 24L56 24L56 22L57 22L57 21L54 21L54 20L57 20L57 19L56 19L56 18L57 18L57 17L54 17L54 16L55 16L55 15L56 15L56 14L57 14L57 12L56 12L56 8L55 8L55 11L54 11L54 10L52 10L52 8L51 8L51 10L50 10L50 8L49 8L49 6L48 6L48 8L49 8L49 9L48 9L48 10L50 10L50 11L52 11L52 12L53 12L53 11L54 11L54 12L56 12L56 14L55 14L55 13L54 13L54 15L51 15L51 14L52 14L52 13L51 13L51 12L49 12L49 13L47 13L47 14L46 14L46 12L45 12L45 11L47 11L47 10L45 10L45 11L44 11L44 9L42 9L42 8L47 8L47 5L48 5L48 0L46 0L46 1L45 1L45 0L44 0L44 1L45 1L45 2L40 2L40 1L37 1L37 0L36 0L36 2L37 2L37 3L36 3L36 5L35 5L35 6L34 6L34 5L33 5L33 6L32 6L32 7L31 7L31 4L32 4L32 3L33 3L33 4L34 4L34 3L33 3L33 2L35 2L35 1L33 1L33 2L30 2L30 1L32 1L32 0L30 0L30 1L29 1L29 0L27 0L27 1L28 1L28 3L26 3L26 2L24 2L24 1L26 1L26 0L21 0L21 3L23 3L23 2L24 2L24 3L25 3L25 4L24 4L24 5L23 5L23 4L19 4L19 2L20 2L20 0L19 0L19 1L16 1L16 2L14 2L14 1L15 1L15 0ZM41 0L41 1L43 1L43 0ZM22 1L22 2L23 2L23 1ZM46 1L46 2L47 2L47 1ZM16 2L16 3L14 3L14 4L16 4L16 5L14 5L14 6L13 6L13 8L14 8L14 10L15 10L15 11L18 11L18 10L17 10L17 9L16 9L16 8L19 8L19 9L20 9L20 10L19 10L19 12L21 12L21 13L19 13L19 14L18 14L18 15L16 15L16 14L17 14L17 13L18 13L18 12L17 12L17 13L16 13L16 12L15 12L15 13L11 13L11 9L10 9L10 12L9 12L9 10L8 10L8 11L6 11L6 10L7 10L7 9L6 9L6 10L4 10L4 9L1 9L1 10L2 10L2 12L1 12L1 13L3 13L3 14L4 14L4 13L5 13L5 15L6 15L6 16L7 16L7 17L6 17L6 18L5 18L5 19L6 19L6 20L5 20L5 21L6 21L6 22L7 22L7 21L8 21L8 24L10 24L10 25L9 25L9 26L10 26L10 27L12 27L12 28L11 28L11 29L10 29L10 30L9 30L9 31L6 31L6 32L7 32L7 33L5 33L5 32L4 32L4 31L3 31L3 29L1 29L1 31L3 31L3 32L1 32L1 33L3 33L3 32L4 32L4 34L7 34L7 33L8 33L8 35L6 35L6 36L5 36L5 35L3 35L3 37L4 37L4 38L3 38L3 40L4 40L4 41L5 41L5 40L4 40L4 39L5 39L5 38L8 38L8 39L6 39L6 40L8 40L8 41L6 41L6 42L7 42L7 43L4 43L4 44L7 44L7 43L9 43L9 44L10 44L10 45L11 45L11 46L12 46L12 45L14 45L14 46L13 46L13 47L12 47L12 48L11 48L11 49L10 49L10 50L9 50L9 51L10 51L10 52L11 52L11 49L12 49L12 48L13 48L13 49L14 49L14 50L12 50L12 53L11 53L11 54L12 54L12 56L13 56L13 53L14 53L14 52L16 52L16 53L15 53L15 54L14 54L14 55L15 55L15 56L16 56L16 55L15 55L15 54L16 54L16 53L18 53L18 52L16 52L16 51L15 51L15 50L19 50L19 49L15 49L15 48L17 48L17 47L15 47L15 45L16 45L16 46L17 46L17 45L18 45L18 44L17 44L17 45L16 45L16 43L15 43L15 42L17 42L17 43L18 43L18 42L19 42L19 43L22 43L22 41L24 41L24 40L27 40L27 39L26 39L26 37L27 37L27 38L29 38L29 37L27 37L27 36L30 36L30 38L31 38L31 39L29 39L29 40L31 40L31 39L32 39L32 43L33 43L33 42L34 42L34 44L31 44L31 45L33 45L33 46L35 46L35 47L34 47L34 48L38 48L38 50L37 50L37 51L36 51L36 50L35 50L35 49L34 49L34 50L33 50L33 48L31 48L31 47L32 47L32 46L31 46L31 47L30 47L30 46L29 46L29 45L28 45L28 46L29 46L29 47L30 47L30 48L31 48L31 52L32 52L32 54L36 54L36 52L38 52L38 56L39 56L39 52L40 52L40 51L41 51L41 50L42 50L42 51L44 51L44 53L43 53L43 54L42 54L42 55L45 55L45 54L48 54L48 52L47 52L47 51L48 51L48 48L50 48L50 47L51 47L51 48L52 48L52 47L51 47L51 46L50 46L50 47L49 47L49 46L48 46L48 44L47 44L47 45L46 45L46 46L48 46L48 47L46 47L46 48L47 48L47 49L46 49L46 50L45 50L45 48L44 48L44 47L43 47L43 46L44 46L44 45L45 45L45 44L44 44L44 43L45 43L45 42L47 42L47 43L48 43L48 42L47 42L47 41L48 41L48 40L47 40L47 39L46 39L46 41L45 41L45 38L47 38L47 37L51 37L51 36L52 36L52 34L53 34L53 35L54 35L54 34L55 34L55 32L54 32L54 31L52 31L52 32L53 32L53 33L51 33L51 32L49 32L49 31L48 31L48 28L47 28L47 27L48 27L48 25L49 25L49 24L50 24L50 26L51 26L51 25L53 25L53 27L55 27L55 26L54 26L54 25L53 25L53 24L51 24L51 23L50 23L50 22L51 22L51 20L52 20L52 21L53 21L53 22L52 22L52 23L55 23L55 22L54 22L54 21L53 21L53 20L54 20L54 19L55 19L55 18L54 18L54 17L53 17L53 16L51 16L51 15L50 15L50 16L51 16L51 17L50 17L50 18L47 18L47 17L45 17L45 16L44 16L44 15L45 15L45 12L44 12L44 13L43 13L43 14L42 14L42 11L43 11L43 10L42 10L42 9L41 9L41 8L42 8L42 6L43 6L43 7L44 7L44 6L45 6L45 7L46 7L46 5L47 5L47 3L43 3L43 5L42 5L42 6L41 6L41 3L40 3L40 5L39 5L39 2L38 2L38 6L37 6L37 5L36 5L36 6L35 6L35 7L34 7L34 6L33 6L33 7L32 7L32 9L33 9L33 10L32 10L32 11L31 11L31 10L29 10L29 9L28 9L28 10L27 10L27 9L25 9L25 12L24 12L24 11L23 11L23 9L24 9L24 8L25 8L25 7L26 7L26 6L25 6L25 7L24 7L24 6L23 6L23 7L22 7L22 5L21 5L21 9L20 9L20 8L19 8L19 7L20 7L20 5L19 5L19 4L17 4L17 3L18 3L18 2ZM8 3L8 4L9 4L9 3ZM28 3L28 4L29 4L29 3ZM25 4L25 5L26 5L26 4ZM44 4L44 5L45 5L45 4ZM17 5L17 6L16 6L16 7L15 7L15 6L14 6L14 7L15 7L15 8L16 8L16 7L17 7L17 6L18 6L18 7L19 7L19 5ZM27 5L27 8L30 8L30 5ZM9 6L9 7L10 7L10 6ZM28 6L28 7L29 7L29 6ZM36 6L36 7L35 7L35 9L37 9L37 10L35 10L35 11L37 11L37 12L34 12L34 11L32 11L32 12L31 12L31 11L30 11L30 12L29 12L29 11L27 11L27 10L26 10L26 11L27 11L27 12L25 12L25 13L22 13L22 16L26 16L26 19L27 19L27 20L25 20L25 21L24 21L24 18L25 18L25 17L21 17L21 19L22 19L22 18L23 18L23 21L21 21L21 22L23 22L23 21L24 21L24 23L25 23L25 24L26 24L26 23L25 23L25 21L26 21L26 22L27 22L27 20L28 20L28 19L29 19L29 18L31 18L31 19L30 19L30 20L29 20L29 21L28 21L28 22L29 22L29 23L27 23L27 24L29 24L29 23L30 23L30 24L31 24L31 25L30 25L30 26L29 26L29 25L28 25L28 26L27 26L27 25L26 25L26 26L25 26L25 25L24 25L24 24L23 24L23 23L22 23L22 24L23 24L23 25L21 25L21 24L19 24L19 23L20 23L20 22L18 22L18 21L20 21L20 20L19 20L19 18L20 18L20 17L19 17L19 15L18 15L18 16L17 16L17 17L19 17L19 18L17 18L17 20L18 20L18 21L16 21L16 18L15 18L15 17L16 17L16 15L15 15L15 17L13 17L13 18L12 18L12 19L8 19L8 17L9 17L9 18L10 18L10 17L11 17L11 16L12 16L12 15L13 15L13 16L14 16L14 14L11 14L11 13L10 13L10 15L9 15L9 16L8 16L8 14L6 14L6 15L7 15L7 16L8 16L8 17L7 17L7 18L6 18L6 19L7 19L7 20L6 20L6 21L7 21L7 20L8 20L8 21L9 21L9 20L10 20L10 22L12 22L12 23L11 23L11 24L12 24L12 23L13 23L13 22L14 22L14 21L13 21L13 20L14 20L14 19L13 19L13 18L15 18L15 21L16 21L16 22L15 22L15 23L16 23L16 24L15 24L15 25L16 25L16 24L17 24L17 25L19 25L19 27L20 27L20 28L19 28L19 29L18 29L18 28L17 28L17 27L18 27L18 26L16 26L16 27L15 27L15 28L14 28L14 25L12 25L12 26L13 26L13 28L14 28L14 29L12 29L12 30L11 30L11 31L10 31L10 32L9 32L9 35L10 35L10 36L11 36L11 37L10 37L10 38L11 38L11 40L12 40L12 41L11 41L11 42L9 42L9 43L10 43L10 44L11 44L11 45L12 45L12 44L13 44L13 43L14 43L14 41L13 41L13 40L15 40L15 41L17 41L17 42L18 42L18 41L19 41L19 40L20 40L20 41L22 41L22 39L23 39L23 40L24 40L24 38L25 38L25 37L26 37L26 36L25 36L25 37L24 37L24 36L23 36L23 35L22 35L22 34L24 34L24 35L27 35L27 33L29 33L29 32L30 32L30 34L29 34L29 35L31 35L31 38L32 38L32 34L33 34L33 36L34 36L34 37L35 37L35 35L40 35L40 36L36 36L36 37L37 37L37 38L36 38L36 39L35 39L35 38L34 38L34 41L35 41L35 40L36 40L36 41L37 41L37 42L35 42L35 43L36 43L36 44L35 44L35 46L36 46L36 47L40 47L40 48L39 48L39 50L38 50L38 52L39 52L39 51L40 51L40 50L41 50L41 49L40 49L40 48L41 48L41 47L42 47L42 48L43 48L43 49L42 49L42 50L43 50L43 49L44 49L44 48L43 48L43 47L42 47L42 46L43 46L43 45L44 45L44 44L43 44L43 43L42 43L42 42L45 42L45 41L44 41L44 39L41 39L41 41L39 41L39 40L40 40L40 39L39 39L39 40L38 40L38 39L37 39L37 38L38 38L38 37L39 37L39 38L40 38L40 36L41 36L41 37L42 37L42 38L43 38L43 37L44 37L44 38L45 38L45 37L44 37L44 35L42 35L42 34L44 34L44 33L42 33L42 34L41 34L41 33L40 33L40 32L45 32L45 34L46 34L46 35L45 35L45 36L48 36L48 33L47 33L47 32L48 32L48 31L47 31L47 30L46 30L46 29L47 29L47 28L46 28L46 27L44 27L44 26L45 26L45 25L44 25L44 23L47 23L47 24L46 24L46 25L48 25L48 23L49 23L49 22L50 22L50 19L52 19L52 20L53 20L53 19L54 19L54 18L50 18L50 19L49 19L49 21L48 21L48 23L47 23L47 22L45 22L45 21L44 21L44 23L40 23L40 22L39 22L39 23L40 23L40 24L43 24L43 25L39 25L39 26L38 26L38 24L37 24L37 22L38 22L38 19L40 19L40 20L39 20L39 21L40 21L40 20L41 20L41 19L40 19L40 18L43 18L43 19L42 19L42 20L46 20L46 21L47 21L47 20L46 20L46 19L47 19L47 18L45 18L45 19L44 19L44 16L43 16L43 15L44 15L44 14L43 14L43 15L42 15L42 14L40 14L40 16L39 16L39 17L40 17L40 18L36 18L36 17L37 17L37 16L36 16L36 15L37 15L37 14L38 14L38 12L40 12L40 11L37 11L37 10L38 10L38 9L39 9L39 10L41 10L41 11L42 11L42 10L41 10L41 9L39 9L39 8L38 8L38 9L37 9L37 6ZM38 6L38 7L39 7L39 6ZM40 6L40 7L41 7L41 6ZM23 7L23 8L24 8L24 7ZM33 7L33 9L34 9L34 7ZM53 8L53 9L54 9L54 8ZM15 9L15 10L16 10L16 9ZM21 9L21 10L20 10L20 11L21 11L21 12L23 12L23 11L22 11L22 9ZM4 11L4 12L3 12L3 13L4 13L4 12L5 12L5 13L8 13L8 12L6 12L6 11ZM13 11L13 12L14 12L14 11ZM28 12L28 13L26 13L26 14L23 14L23 15L26 15L26 16L27 16L27 18L28 18L28 17L31 17L31 16L32 16L32 19L34 19L34 20L32 20L32 21L33 21L33 22L34 22L34 23L36 23L36 22L37 22L37 21L36 21L36 20L37 20L37 19L34 19L34 18L35 18L35 17L36 17L36 16L35 16L35 15L36 15L36 14L35 14L35 13L33 13L33 12L32 12L32 13L31 13L31 14L30 14L30 13L29 13L29 12ZM15 13L15 14L16 14L16 13ZM28 13L28 14L27 14L27 16L29 16L29 15L30 15L30 16L31 16L31 15L30 15L30 14L29 14L29 13ZM32 13L32 14L33 14L33 15L32 15L32 16L34 16L34 17L33 17L33 18L34 18L34 17L35 17L35 16L34 16L34 15L35 15L35 14L33 14L33 13ZM49 13L49 14L51 14L51 13ZM3 15L3 16L2 16L2 17L3 17L3 16L4 16L4 15ZM41 15L41 16L40 16L40 17L41 17L41 16L42 16L42 15ZM46 15L46 16L49 16L49 15ZM12 19L12 20L11 20L11 21L12 21L12 20L13 20L13 19ZM30 20L30 21L29 21L29 22L30 22L30 23L31 23L31 22L30 22L30 21L31 21L31 20ZM41 21L41 22L43 22L43 21ZM17 22L17 24L18 24L18 22ZM32 24L32 25L31 25L31 26L32 26L32 29L31 29L31 30L32 30L32 31L30 31L30 32L32 32L32 33L31 33L31 34L32 34L32 33L33 33L33 34L36 34L36 32L37 32L37 34L39 34L39 32L40 32L40 31L41 31L41 30L42 30L42 31L46 31L46 32L47 32L47 31L46 31L46 30L45 30L45 28L44 28L44 30L42 30L42 29L43 29L43 28L42 28L42 27L43 27L43 26L44 26L44 25L43 25L43 26L42 26L42 27L41 27L41 26L39 26L39 27L37 27L37 26L36 26L36 25L33 25L33 24ZM6 25L6 26L7 26L7 25ZM20 25L20 26L21 26L21 28L22 28L22 30L21 30L21 29L19 29L19 30L18 30L18 29L16 29L16 28L15 28L15 29L16 29L16 30L15 30L15 31L13 31L13 30L12 30L12 32L11 32L11 34L10 34L10 35L11 35L11 36L12 36L12 37L13 37L13 39L12 39L12 40L13 40L13 39L14 39L14 38L15 38L15 39L16 39L16 40L17 40L17 38L19 38L19 39L20 39L20 38L19 38L19 37L21 37L21 39L22 39L22 37L23 37L23 38L24 38L24 37L23 37L23 36L22 36L22 35L21 35L21 33L25 33L25 34L26 34L26 33L27 33L27 32L29 32L29 31L25 31L25 30L26 30L26 27L25 27L25 26L24 26L24 25L23 25L23 26L24 26L24 27L22 27L22 26L21 26L21 25ZM32 25L32 26L33 26L33 27L34 27L34 28L33 28L33 29L36 29L36 30L33 30L33 31L32 31L32 32L33 32L33 33L34 33L34 32L33 32L33 31L35 31L35 32L36 32L36 31L37 31L37 30L38 30L38 28L37 28L37 27L36 27L36 28L35 28L35 27L34 27L34 26L33 26L33 25ZM5 27L5 30L8 30L8 27ZM24 27L24 28L23 28L23 29L24 29L24 30L25 30L25 29L24 29L24 28L25 28L25 27ZM27 27L27 30L30 30L30 27ZM39 27L39 28L40 28L40 27ZM49 27L49 30L52 30L52 27ZM6 28L6 29L7 29L7 28ZM28 28L28 29L29 29L29 28ZM50 28L50 29L51 29L51 28ZM39 29L39 31L38 31L38 32L39 32L39 31L40 31L40 30L41 30L41 29ZM17 30L17 31L15 31L15 32L13 32L13 34L12 34L12 35L16 35L16 33L19 33L19 31L21 31L21 32L20 32L20 33L21 33L21 32L22 32L22 31L23 31L23 32L25 32L25 33L26 33L26 32L25 32L25 31L23 31L23 30L22 30L22 31L21 31L21 30L19 30L19 31L18 31L18 30ZM14 33L14 34L15 34L15 33ZM46 33L46 34L47 34L47 33ZM1 34L1 36L2 36L2 34ZM17 34L17 37L19 37L19 36L20 36L20 34ZM40 34L40 35L41 35L41 34ZM49 34L49 35L50 35L50 36L51 36L51 35L50 35L50 34ZM18 35L18 36L19 36L19 35ZM6 36L6 37L8 37L8 38L9 38L9 37L8 37L8 36ZM21 36L21 37L22 37L22 36ZM15 37L15 38L16 38L16 37ZM36 39L36 40L37 40L37 41L38 41L38 42L37 42L37 43L38 43L38 44L37 44L37 46L39 46L39 45L38 45L38 44L39 44L39 43L38 43L38 42L39 42L39 41L38 41L38 40L37 40L37 39ZM49 39L49 41L51 41L51 42L50 42L50 43L51 43L51 42L52 42L52 44L53 44L53 43L54 43L54 41L51 41L51 40L50 40L50 39ZM42 40L42 41L41 41L41 42L40 42L40 43L41 43L41 42L42 42L42 41L43 41L43 40ZM12 41L12 43L13 43L13 41ZM23 43L23 45L25 45L25 44L24 44L24 43ZM55 43L55 44L54 44L54 45L55 45L55 44L56 44L56 43ZM14 44L14 45L15 45L15 44ZM19 44L19 45L20 45L20 46L21 46L21 45L22 45L22 44L21 44L21 45L20 45L20 44ZM40 44L40 45L41 45L41 46L42 46L42 45L43 45L43 44ZM49 44L49 45L51 45L51 44ZM4 45L4 46L3 46L3 47L5 47L5 45ZM13 47L13 48L14 48L14 47ZM54 47L54 48L57 48L57 47ZM27 49L27 52L30 52L30 49ZM49 49L49 52L52 52L52 49ZM22 50L22 51L23 51L23 50ZM24 50L24 51L25 51L25 53L26 53L26 50ZM28 50L28 51L29 51L29 50ZM32 50L32 52L34 52L34 53L35 53L35 52L36 52L36 51L35 51L35 50L34 50L34 51L33 51L33 50ZM46 50L46 51L47 51L47 50ZM50 50L50 51L51 51L51 50ZM13 51L13 52L14 52L14 51ZM34 51L34 52L35 52L35 51ZM53 51L53 52L54 52L54 51ZM46 52L46 53L47 53L47 52ZM9 53L9 54L10 54L10 53ZM44 53L44 54L45 54L45 53ZM25 54L25 55L24 55L24 56L25 56L25 55L26 55L26 54ZM30 54L30 55L31 55L31 54ZM36 55L36 56L37 56L37 55ZM51 55L51 56L50 56L50 57L52 57L52 56L53 56L53 57L56 57L56 56L55 56L55 55ZM48 56L48 57L49 57L49 56ZM0 0L0 7L7 7L7 0ZM1 1L1 6L6 6L6 1ZM2 2L2 5L5 5L5 2ZM50 0L50 7L57 7L57 0ZM51 1L51 6L56 6L56 1ZM52 2L52 5L55 5L55 2ZM0 50L0 57L7 57L7 50ZM1 51L1 56L6 56L6 51ZM2 52L2 55L5 55L5 52Z" fill="#000000"/></g></g></svg>
