<?xml version="1.0" encoding="UTF-8"?>
<svg xmlns="http://www.w3.org/2000/svg" version="1.1" width="300" height="300" viewBox="0 0 300 300"><rect x="0" y="0" width="300" height="300" fill="#ffffff"/><g transform="scale(4.918)"><g transform="translate(2,2)"><path fill-rule="evenodd" d="M9 0L9 1L8 1L8 2L9 2L9 3L8 3L8 4L9 4L9 5L8 5L8 7L9 7L9 6L10 6L10 9L9 9L9 8L6 8L6 9L8 9L8 10L5 10L5 11L4 11L4 10L3 10L3 12L2 12L2 11L1 11L1 12L0 12L0 14L2 14L2 15L3 15L3 12L6 12L6 13L8 13L8 14L9 14L9 16L8 16L8 15L7 15L7 14L6 14L6 15L5 15L5 14L4 14L4 15L5 15L5 16L6 16L6 17L5 17L5 18L4 18L4 17L2 17L2 18L1 18L1 17L0 17L0 19L2 19L2 18L4 18L4 19L5 19L5 21L4 21L4 20L3 20L3 21L1 21L1 23L0 23L0 25L1 25L1 24L3 24L3 22L6 22L6 23L7 23L7 24L4 24L4 25L5 25L5 26L4 26L4 29L3 29L3 31L1 31L1 33L0 33L0 35L1 35L1 37L0 37L0 38L2 38L2 39L1 39L1 40L0 40L0 41L1 41L1 42L2 42L2 41L3 41L3 43L2 43L2 44L1 44L1 43L0 43L0 48L5 48L5 47L8 47L8 48L6 48L6 49L8 49L8 51L10 51L10 52L8 52L8 57L9 57L9 53L11 53L11 54L12 54L12 52L13 52L13 53L16 53L16 54L15 54L15 55L14 55L14 54L13 54L13 55L12 55L12 57L14 57L14 56L15 56L15 57L16 57L16 56L17 56L17 57L22 57L22 56L24 56L24 57L26 57L26 56L28 56L28 55L26 55L26 54L27 54L27 53L28 53L28 54L30 54L30 53L31 53L31 56L30 56L30 55L29 55L29 56L30 56L30 57L32 57L32 56L33 56L33 57L34 57L34 56L33 56L33 54L34 54L34 55L35 55L35 57L37 57L37 56L38 56L38 57L39 57L39 56L38 56L38 55L40 55L40 56L41 56L41 57L42 57L42 56L43 56L43 57L44 57L44 56L45 56L45 57L47 57L47 56L48 56L48 57L49 57L49 56L48 56L48 55L49 55L49 54L48 54L48 53L50 53L50 55L51 55L51 56L50 56L50 57L52 57L52 56L54 56L54 57L56 57L56 56L55 56L55 55L51 55L51 54L55 54L55 53L54 53L54 52L55 52L55 50L57 50L57 49L54 49L54 48L57 48L57 47L56 47L56 46L57 46L57 45L56 45L56 42L55 42L55 39L57 39L57 37L56 37L56 36L55 36L55 35L56 35L56 34L57 34L57 32L56 32L56 30L57 30L57 28L56 28L56 26L57 26L57 25L56 25L56 22L57 22L57 21L56 21L56 20L57 20L57 19L56 19L56 18L57 18L57 17L56 17L56 16L57 16L57 15L56 15L56 14L57 14L57 13L56 13L56 10L57 10L57 9L56 9L56 8L55 8L55 9L56 9L56 10L55 10L55 11L54 11L54 10L53 10L53 9L54 9L54 8L53 8L53 9L52 9L52 8L51 8L51 10L49 10L49 9L50 9L50 8L49 8L49 6L48 6L48 7L47 7L47 5L48 5L48 0L41 0L41 1L47 1L47 2L42 2L42 3L47 3L47 5L46 5L46 4L44 4L44 5L46 5L46 7L45 7L45 6L44 6L44 7L43 7L43 4L41 4L41 5L40 5L40 3L41 3L41 2L39 2L39 1L40 1L40 0L39 0L39 1L37 1L37 0L36 0L36 1L37 1L37 2L39 2L39 3L38 3L38 4L37 4L37 3L36 3L36 5L34 5L34 3L35 3L35 1L32 1L32 0L28 0L28 1L25 1L25 0L24 0L24 1L23 1L23 0L21 0L21 1L23 1L23 2L28 2L28 3L27 3L27 4L26 4L26 3L23 3L23 4L22 4L22 3L21 3L21 2L19 2L19 1L16 1L16 0L14 0L14 1L15 1L15 2L14 2L14 3L13 3L13 0L12 0L12 1L11 1L11 0ZM29 1L29 2L32 2L32 1ZM17 2L17 3L14 3L14 4L16 4L16 5L15 5L15 7L14 7L14 6L13 6L13 5L10 5L10 6L11 6L11 7L12 7L12 8L13 8L13 9L12 9L12 10L11 10L11 9L10 9L10 10L9 10L9 11L6 11L6 12L10 12L10 13L9 13L9 14L10 14L10 13L11 13L11 15L10 15L10 16L9 16L9 17L8 17L8 19L9 19L9 17L10 17L10 18L11 18L11 19L10 19L10 21L8 21L8 23L9 23L9 24L7 24L7 25L6 25L6 26L7 26L7 25L8 25L8 26L10 26L10 27L11 27L11 28L10 28L10 29L11 29L11 30L10 30L10 31L8 31L8 32L7 32L7 31L5 31L5 32L4 32L4 31L3 31L3 32L2 32L2 33L3 33L3 34L4 34L4 33L6 33L6 34L5 34L5 35L6 35L6 36L4 36L4 35L2 35L2 34L1 34L1 35L2 35L2 37L3 37L3 36L4 36L4 37L6 37L6 38L8 38L8 39L6 39L6 40L5 40L5 38L4 38L4 39L3 39L3 41L4 41L4 42L7 42L7 43L5 43L5 44L7 44L7 45L5 45L5 46L3 46L3 45L2 45L2 46L1 46L1 47L2 47L2 46L3 46L3 47L5 47L5 46L8 46L8 44L9 44L9 45L10 45L10 47L9 47L9 48L8 48L8 49L9 49L9 50L10 50L10 49L9 49L9 48L11 48L11 45L12 45L12 47L14 47L14 48L12 48L12 49L11 49L11 50L13 50L13 52L14 52L14 51L16 51L16 53L18 53L18 54L17 54L17 55L19 55L19 56L21 56L21 54L22 54L22 55L24 55L24 56L26 56L26 55L25 55L25 53L26 53L26 49L25 49L25 50L23 50L23 49L24 49L24 46L23 46L23 45L25 45L25 48L26 48L26 46L29 46L29 45L27 45L27 44L30 44L30 46L31 46L31 44L32 44L32 45L33 45L33 46L32 46L32 47L31 47L31 48L32 48L32 51L31 51L31 52L32 52L32 54L33 54L33 52L32 52L32 51L33 51L33 50L39 50L39 51L38 51L38 52L37 52L37 51L36 51L36 52L35 52L35 51L34 51L34 54L35 54L35 55L36 55L36 54L35 54L35 53L36 53L36 52L37 52L37 53L38 53L38 54L37 54L37 55L38 55L38 54L39 54L39 52L40 52L40 55L42 55L42 54L41 54L41 53L42 53L42 52L43 52L43 50L44 50L44 53L43 53L43 56L44 56L44 55L45 55L45 54L46 54L46 56L47 56L47 55L48 55L48 54L47 54L47 53L48 53L48 52L45 52L45 50L47 50L47 51L48 51L48 48L49 48L49 47L51 47L51 46L52 46L52 48L54 48L54 47L53 47L53 45L50 45L50 44L47 44L47 45L46 45L46 46L47 46L47 47L46 47L46 48L47 48L47 49L45 49L45 48L43 48L43 47L45 47L45 46L44 46L44 45L45 45L45 44L44 44L44 45L43 45L43 44L41 44L41 43L44 43L44 42L45 42L45 43L46 43L46 42L47 42L47 43L49 43L49 42L47 42L47 41L48 41L48 40L49 40L49 41L51 41L51 42L50 42L50 43L51 43L51 44L53 44L53 43L54 43L54 41L52 41L52 40L49 40L49 39L52 39L52 38L53 38L53 39L55 39L55 36L54 36L54 38L53 38L53 37L52 37L52 34L54 34L54 33L55 33L55 34L56 34L56 32L53 32L53 31L51 31L51 32L49 32L49 31L48 31L48 28L47 28L47 27L46 27L46 28L47 28L47 29L46 29L46 30L42 30L42 29L43 29L43 28L44 28L44 29L45 29L45 27L44 27L44 26L48 26L48 25L49 25L49 26L53 26L53 27L55 27L55 26L54 26L54 25L55 25L55 24L51 24L51 23L50 23L50 22L51 22L51 21L54 21L54 22L52 22L52 23L55 23L55 20L56 20L56 19L55 19L55 18L56 18L56 17L55 17L55 16L54 16L54 15L53 15L53 14L54 14L54 13L55 13L55 14L56 14L56 13L55 13L55 12L54 12L54 11L53 11L53 10L52 10L52 11L50 11L50 13L49 13L49 12L48 12L48 11L47 11L47 9L49 9L49 8L45 8L45 7L44 7L44 13L43 13L43 14L42 14L42 11L43 11L43 10L42 10L42 8L43 8L43 7L42 7L42 5L41 5L41 7L42 7L42 8L40 8L40 6L39 6L39 7L38 7L38 6L37 6L37 5L36 5L36 6L35 6L35 7L36 7L36 8L39 8L39 9L38 9L38 10L39 10L39 9L41 9L41 10L40 10L40 12L38 12L38 13L37 13L37 14L35 14L35 13L36 13L36 12L37 12L37 11L36 11L36 10L37 10L37 9L36 9L36 10L35 10L35 8L34 8L34 9L33 9L33 8L32 8L32 6L33 6L33 7L34 7L34 5L33 5L33 3L32 3L32 4L31 4L31 9L32 9L32 10L33 10L33 11L34 11L34 12L35 12L35 13L33 13L33 12L32 12L32 11L31 11L31 12L30 12L30 11L29 11L29 9L25 9L25 8L26 8L26 4L25 4L25 8L24 8L24 6L23 6L23 5L24 5L24 4L23 4L23 5L22 5L22 4L21 4L21 3L19 3L19 4L18 4L18 2ZM10 3L10 4L13 4L13 3ZM28 3L28 4L29 4L29 3ZM17 4L17 5L18 5L18 7L17 7L17 6L16 6L16 7L15 7L15 8L16 8L16 7L17 7L17 9L19 9L19 10L18 10L18 11L17 11L17 12L16 12L16 10L15 10L15 9L14 9L14 10L12 10L12 12L13 12L13 13L12 13L12 18L13 18L13 17L14 17L14 16L15 16L15 15L16 15L16 17L15 17L15 21L16 21L16 22L15 22L15 23L16 23L16 25L15 25L15 24L12 24L12 23L13 23L13 22L14 22L14 21L13 21L13 20L14 20L14 19L12 19L12 21L11 21L11 22L10 22L10 24L9 24L9 25L10 25L10 24L11 24L11 27L12 27L12 26L13 26L13 25L14 25L14 26L16 26L16 27L14 27L14 28L13 28L13 29L12 29L12 31L11 31L11 32L8 32L8 33L7 33L7 32L6 32L6 33L7 33L7 34L6 34L6 35L8 35L8 34L9 34L9 35L10 35L10 34L12 34L12 35L13 35L13 33L14 33L14 35L15 35L15 36L17 36L17 35L19 35L19 36L18 36L18 37L17 37L17 38L18 38L18 39L19 39L19 40L18 40L18 41L17 41L17 42L15 42L15 41L16 41L16 39L15 39L15 40L12 40L12 39L13 39L13 38L14 38L14 36L13 36L13 37L12 37L12 38L11 38L11 39L10 39L10 38L9 38L9 37L8 37L8 36L6 36L6 37L8 37L8 38L9 38L9 39L8 39L8 40L6 40L6 41L7 41L7 42L8 42L8 43L7 43L7 44L8 44L8 43L10 43L10 44L11 44L11 43L12 43L12 42L15 42L15 43L14 43L14 44L13 44L13 46L16 46L16 45L17 45L17 46L18 46L18 47L17 47L17 48L15 48L15 49L17 49L17 50L16 50L16 51L17 51L17 50L18 50L18 51L19 51L19 52L18 52L18 53L20 53L20 52L21 52L21 53L22 53L22 54L24 54L24 53L25 53L25 51L24 51L24 53L22 53L22 52L21 52L21 51L22 51L22 49L21 49L21 50L20 50L20 49L19 49L19 48L20 48L20 45L21 45L21 48L23 48L23 47L22 47L22 45L23 45L23 44L24 44L24 43L25 43L25 41L24 41L24 40L25 40L25 37L26 37L26 40L27 40L27 41L26 41L26 42L27 42L27 43L26 43L26 44L25 44L25 45L26 45L26 44L27 44L27 43L28 43L28 42L27 42L27 41L28 41L28 39L27 39L27 38L28 38L28 37L26 37L26 36L27 36L27 35L26 35L26 34L25 34L25 31L31 31L31 32L34 32L34 31L35 31L35 30L33 30L33 29L37 29L37 30L38 30L38 27L39 27L39 28L41 28L41 27L42 27L42 28L43 28L43 27L42 27L42 26L44 26L44 24L45 24L45 23L46 23L46 25L48 25L48 23L49 23L49 24L50 24L50 23L49 23L49 22L50 22L50 19L51 19L51 20L55 20L55 19L53 19L53 18L54 18L54 16L53 16L53 15L52 15L52 16L51 16L51 14L52 14L52 13L51 13L51 14L50 14L50 16L51 16L51 17L52 17L52 16L53 16L53 18L50 18L50 17L48 17L48 16L45 16L45 15L49 15L49 13L47 13L47 14L46 14L46 12L45 12L45 13L44 13L44 14L43 14L43 15L42 15L42 14L41 14L41 13L39 13L39 14L37 14L37 15L39 15L39 16L41 16L41 17L42 17L42 18L40 18L40 17L39 17L39 18L38 18L38 17L37 17L37 16L36 16L36 15L35 15L35 14L33 14L33 13L32 13L32 12L31 12L31 13L28 13L28 12L29 12L29 11L27 11L27 10L26 10L26 11L27 11L27 12L25 12L25 9L24 9L24 8L23 8L23 9L24 9L24 11L23 11L23 10L22 10L22 9L21 9L21 10L22 10L22 11L21 11L21 12L20 12L20 9L19 9L19 8L22 8L22 7L23 7L23 6L22 6L22 5L21 5L21 4L19 4L19 5L18 5L18 4ZM38 4L38 5L39 5L39 4ZM19 5L19 7L20 7L20 5ZM27 5L27 8L30 8L30 5ZM12 6L12 7L13 7L13 6ZM21 6L21 7L22 7L22 6ZM28 6L28 7L29 7L29 6ZM36 6L36 7L37 7L37 6ZM0 8L0 10L1 10L1 9L5 9L5 8ZM34 10L34 11L35 11L35 12L36 12L36 11L35 11L35 10ZM45 10L45 11L46 11L46 10ZM10 11L10 12L11 12L11 11ZM13 11L13 12L14 12L14 11ZM52 11L52 12L53 12L53 11ZM1 12L1 13L2 13L2 12ZM17 12L17 13L16 13L16 15L17 15L17 16L19 16L19 17L16 17L16 18L17 18L17 19L16 19L16 21L18 21L18 22L17 22L17 23L19 23L19 25L20 25L20 26L18 26L18 25L16 25L16 26L18 26L18 27L17 27L17 28L18 28L18 29L16 29L16 30L17 30L17 31L16 31L16 32L18 32L18 31L19 31L19 33L16 33L16 35L17 35L17 34L19 34L19 35L20 35L20 34L21 34L21 33L22 33L22 35L21 35L21 36L19 36L19 37L18 37L18 38L19 38L19 39L20 39L20 38L19 38L19 37L21 37L21 38L22 38L22 37L23 37L23 38L24 38L24 37L23 37L23 32L24 32L24 31L23 31L23 29L25 29L25 30L26 30L26 27L25 27L25 26L26 26L26 25L27 25L27 24L28 24L28 26L29 26L29 24L30 24L30 25L32 25L32 26L34 26L34 27L33 27L33 28L32 28L32 27L31 27L31 28L32 28L32 29L33 29L33 28L34 28L34 27L35 27L35 28L37 28L37 27L38 27L38 26L42 26L42 25L43 25L43 24L44 24L44 21L45 21L45 22L46 22L46 23L47 23L47 21L48 21L48 19L50 19L50 18L47 18L47 17L46 17L46 18L42 18L42 20L43 20L43 23L42 23L42 25L41 25L41 22L40 22L40 23L38 23L38 24L37 24L37 25L38 25L38 26L37 26L37 27L35 27L35 24L36 24L36 22L39 22L39 20L40 20L40 21L41 21L41 20L40 20L40 19L38 19L38 18L37 18L37 19L36 19L36 18L35 18L35 17L36 17L36 16L35 16L35 15L34 15L34 16L30 16L30 15L32 15L32 13L31 13L31 14L30 14L30 15L28 15L28 16L27 16L27 14L28 14L28 13L27 13L27 14L26 14L26 13L25 13L25 12L23 12L23 13L22 13L22 12L21 12L21 13L20 13L20 12L19 12L19 13L20 13L20 14L21 14L21 13L22 13L22 16L21 16L21 15L18 15L18 14L17 14L17 13L18 13L18 12ZM13 13L13 14L15 14L15 13ZM23 13L23 15L24 15L24 17L23 17L23 18L24 18L24 19L23 19L23 20L24 20L24 21L21 21L21 24L20 24L20 25L21 25L21 26L20 26L20 27L19 27L19 29L18 29L18 30L19 30L19 31L22 31L22 30L19 30L19 29L22 29L22 28L20 28L20 27L22 27L22 26L25 26L25 24L27 24L27 20L28 20L28 19L29 19L29 20L30 20L30 22L28 22L28 24L29 24L29 23L30 23L30 24L35 24L35 22L34 22L34 19L35 19L35 18L34 18L34 17L33 17L33 18L34 18L34 19L32 19L32 18L31 18L31 17L29 17L29 16L28 16L28 17L27 17L27 16L26 16L26 14L25 14L25 13ZM24 14L24 15L25 15L25 14ZM40 14L40 15L41 15L41 14ZM44 14L44 15L45 15L45 14ZM0 15L0 16L1 16L1 15ZM6 15L6 16L7 16L7 15ZM10 16L10 17L11 17L11 16ZM20 16L20 17L21 17L21 18L20 18L20 19L21 19L21 20L22 20L22 19L21 19L21 18L22 18L22 17L21 17L21 16ZM25 16L25 19L26 19L26 20L25 20L25 21L24 21L24 22L23 22L23 23L24 23L24 24L25 24L25 23L26 23L26 22L25 22L25 21L26 21L26 20L27 20L27 19L28 19L28 18L26 18L26 16ZM43 16L43 17L45 17L45 16ZM6 17L6 18L7 18L7 17ZM18 18L18 19L19 19L19 18ZM29 18L29 19L31 19L31 18ZM46 18L46 19L43 19L43 20L46 20L46 19L47 19L47 18ZM6 19L6 20L7 20L7 19ZM37 19L37 20L36 20L36 21L38 21L38 19ZM18 20L18 21L20 21L20 20ZM32 20L32 21L33 21L33 20ZM6 21L6 22L7 22L7 21ZM11 22L11 23L12 23L12 22ZM19 22L19 23L20 23L20 22ZM30 22L30 23L31 23L31 22ZM33 22L33 23L34 23L34 22ZM21 24L21 25L23 25L23 24ZM2 25L2 26L1 26L1 27L3 27L3 25ZM5 27L5 30L8 30L8 27ZM24 27L24 28L25 28L25 27ZM27 27L27 30L30 30L30 27ZM49 27L49 30L52 30L52 27ZM0 28L0 29L1 29L1 30L2 30L2 29L1 29L1 28ZM6 28L6 29L7 29L7 28ZM28 28L28 29L29 29L29 28ZM50 28L50 29L51 29L51 28ZM54 28L54 29L53 29L53 30L54 30L54 29L55 29L55 30L56 30L56 28ZM39 29L39 31L40 31L40 32L39 32L39 33L40 33L40 32L41 32L41 33L42 33L42 34L41 34L41 35L40 35L40 34L38 34L38 33L37 33L37 32L38 32L38 31L37 31L37 32L35 32L35 34L34 34L34 33L30 33L30 32L26 32L26 33L29 33L29 34L30 34L30 36L29 36L29 39L31 39L31 40L30 40L30 42L29 42L29 43L32 43L32 42L33 42L33 44L34 44L34 43L37 43L37 44L35 44L35 45L36 45L36 46L33 46L33 47L32 47L32 48L34 48L34 49L38 49L38 47L39 47L39 48L41 48L41 47L42 47L42 46L43 46L43 45L42 45L42 46L37 46L37 44L38 44L38 45L39 45L39 44L38 44L38 43L37 43L37 42L38 42L38 41L39 41L39 43L41 43L41 42L43 42L43 41L44 41L44 40L45 40L45 41L47 41L47 40L46 40L46 38L45 38L45 37L44 37L44 35L42 35L42 34L46 34L46 35L45 35L45 36L46 36L46 37L47 37L47 38L48 38L48 39L49 39L49 38L52 38L52 37L50 37L50 36L51 36L51 35L48 35L48 33L47 33L47 34L46 34L46 32L48 32L48 31L47 31L47 30L46 30L46 31L44 31L44 32L43 32L43 31L42 31L42 30L41 30L41 29ZM13 30L13 31L12 31L12 32L11 32L11 33L13 33L13 32L14 32L14 30ZM31 30L31 31L33 31L33 30ZM41 31L41 32L42 32L42 31ZM20 32L20 33L21 33L21 32ZM44 32L44 33L45 33L45 32ZM51 32L51 33L50 33L50 34L51 34L51 33L53 33L53 32ZM9 33L9 34L10 34L10 33ZM36 33L36 34L35 34L35 36L34 36L34 37L33 37L33 35L34 35L34 34L31 34L31 35L32 35L32 38L31 38L31 36L30 36L30 38L31 38L31 39L35 39L35 40L31 40L31 41L33 41L33 42L35 42L35 40L37 40L37 41L36 41L36 42L37 42L37 41L38 41L38 39L39 39L39 41L40 41L40 42L41 42L41 38L42 38L42 39L43 39L43 40L42 40L42 41L43 41L43 40L44 40L44 39L45 39L45 38L44 38L44 37L43 37L43 36L40 36L40 35L39 35L39 36L38 36L38 34L37 34L37 33ZM24 34L24 36L26 36L26 35L25 35L25 34ZM36 34L36 35L37 35L37 34ZM46 35L46 36L47 36L47 37L48 37L48 36L47 36L47 35ZM10 36L10 37L11 37L11 36ZM21 36L21 37L22 37L22 36ZM36 36L36 38L37 38L37 39L38 39L38 36ZM39 36L39 37L40 37L40 36ZM15 37L15 38L16 38L16 37ZM42 37L42 38L43 38L43 37ZM39 38L39 39L40 39L40 38ZM9 39L9 40L8 40L8 41L9 41L9 40L10 40L10 42L11 42L11 41L12 41L12 40L10 40L10 39ZM22 39L22 40L21 40L21 41L20 41L20 40L19 40L19 41L18 41L18 42L17 42L17 43L18 43L18 42L19 42L19 43L20 43L20 44L19 44L19 45L20 45L20 44L21 44L21 45L22 45L22 44L21 44L21 43L22 43L22 41L23 41L23 43L24 43L24 41L23 41L23 40L24 40L24 39ZM4 40L4 41L5 41L5 40ZM19 41L19 42L20 42L20 41ZM15 43L15 44L14 44L14 45L15 45L15 44L16 44L16 43ZM17 44L17 45L18 45L18 44ZM54 44L54 45L55 45L55 46L56 46L56 45L55 45L55 44ZM47 45L47 46L48 46L48 45ZM49 45L49 46L50 46L50 45ZM28 47L28 48L29 48L29 47ZM34 47L34 48L37 48L37 47ZM42 48L42 50L41 50L41 51L40 51L40 52L41 52L41 51L42 51L42 50L43 50L43 48ZM18 49L18 50L19 50L19 49ZM27 49L27 52L30 52L30 49ZM39 49L39 50L40 50L40 49ZM44 49L44 50L45 50L45 49ZM49 49L49 52L52 52L52 49ZM28 50L28 51L29 51L29 50ZM50 50L50 51L51 51L51 50ZM53 50L53 51L54 51L54 50ZM11 51L11 52L12 52L12 51ZM56 51L56 52L57 52L57 51ZM44 53L44 54L45 54L45 53ZM19 54L19 55L20 55L20 54ZM15 55L15 56L16 56L16 55ZM10 56L10 57L11 57L11 56ZM0 0L0 7L7 7L7 0ZM1 1L1 6L6 6L6 1ZM2 2L2 5L5 5L5 2ZM50 0L50 7L57 7L57 0ZM51 1L51 6L56 6L56 1ZM52 2L52 5L55 5L55 2ZM0 50L0 57L7 57L7 50ZM1 51L1 56L6 56L6 51ZM2 52L2 55L5 55L5 52Z" fill="#000000"/></g></g></svg>
