<?xml version="1.0" encoding="UTF-8"?>
<svg xmlns="http://www.w3.org/2000/svg" version="1.1" width="300" height="300" viewBox="0 0 300 300"><rect x="0" y="0" width="300" height="300" fill="#ffffff"/><g transform="scale(4.918)"><g transform="translate(2,2)"><path fill-rule="evenodd" d="M13 0L13 1L11 1L11 2L10 2L10 1L8 1L8 2L10 2L10 3L11 3L11 2L12 2L12 3L16 3L16 2L17 2L17 1L16 1L16 2L13 2L13 1L15 1L15 0ZM19 0L19 2L18 2L18 3L17 3L17 4L19 4L19 5L20 5L20 7L19 7L19 6L18 6L18 7L19 7L19 8L17 8L17 10L18 10L18 11L17 11L17 12L16 12L16 10L15 10L15 9L16 9L16 7L17 7L17 6L16 6L16 7L15 7L15 5L16 5L16 4L13 4L13 6L12 6L12 5L10 5L10 4L9 4L9 3L8 3L8 4L9 4L9 5L8 5L8 7L9 7L9 5L10 5L10 8L12 8L12 7L13 7L13 9L11 9L11 10L10 10L10 13L9 13L9 14L10 14L10 13L12 13L12 14L11 14L11 17L10 17L10 16L8 16L8 15L7 15L7 14L6 14L6 15L5 15L5 16L6 16L6 17L7 17L7 18L5 18L5 17L4 17L4 19L5 19L5 20L4 20L4 22L6 22L6 23L5 23L5 24L4 24L4 25L8 25L8 26L4 26L4 29L2 29L2 30L1 30L1 29L0 29L0 30L1 30L1 31L0 31L0 32L1 32L1 34L0 34L0 37L1 37L1 35L2 35L2 38L0 38L0 41L1 41L1 40L5 40L5 37L7 37L7 38L6 38L6 39L7 39L7 38L8 38L8 39L10 39L10 38L8 38L8 36L6 36L6 35L7 35L7 34L6 34L6 33L7 33L7 32L8 32L8 31L9 31L9 29L10 29L10 28L9 28L9 27L11 27L11 26L12 26L12 28L13 28L13 27L14 27L14 28L16 28L16 29L14 29L14 31L13 31L13 30L12 30L12 29L11 29L11 30L12 30L12 32L11 32L11 31L10 31L10 32L9 32L9 33L8 33L8 35L9 35L9 37L12 37L12 36L11 36L11 35L10 35L10 34L11 34L11 33L12 33L12 34L13 34L13 36L14 36L14 38L13 38L13 39L12 39L12 38L11 38L11 39L12 39L12 40L13 40L13 42L12 42L12 44L13 44L13 45L12 45L12 46L11 46L11 45L9 45L9 46L8 46L8 45L7 45L7 44L11 44L11 40L10 40L10 42L9 42L9 41L8 41L8 40L6 40L6 41L2 41L2 42L1 42L1 43L2 43L2 44L3 44L3 45L1 45L1 44L0 44L0 48L5 48L5 47L9 47L9 48L10 48L10 49L8 49L8 51L10 51L10 52L8 52L8 57L11 57L11 56L13 56L13 57L16 57L16 56L17 56L17 57L20 57L20 56L21 56L21 55L22 55L22 56L25 56L25 57L26 57L26 56L28 56L28 55L26 55L26 54L27 54L27 53L28 53L28 54L29 54L29 53L31 53L31 54L30 54L30 55L29 55L29 57L32 57L32 56L33 56L33 55L34 55L34 57L37 57L37 55L38 55L38 52L39 52L39 55L40 55L40 56L41 56L41 55L42 55L42 54L43 54L43 53L44 53L44 54L45 54L45 55L43 55L43 56L42 56L42 57L43 57L43 56L47 56L47 57L48 57L48 56L49 56L49 54L45 54L45 53L44 53L44 50L43 50L43 49L44 49L44 48L46 48L46 49L47 49L47 48L46 48L46 47L48 47L48 46L49 46L49 47L50 47L50 48L48 48L48 51L47 51L47 50L45 50L45 51L47 51L47 52L46 52L46 53L47 53L47 52L48 52L48 53L50 53L50 54L53 54L53 55L51 55L51 56L50 56L50 57L52 57L52 56L53 56L53 57L54 57L54 56L55 56L55 57L56 57L56 56L55 56L55 53L53 53L53 52L55 52L55 51L56 51L56 52L57 52L57 51L56 51L56 50L57 50L57 49L56 49L56 48L55 48L55 47L54 47L54 48L55 48L55 49L53 49L53 47L52 47L52 45L54 45L54 46L57 46L57 45L56 45L56 44L57 44L57 43L56 43L56 41L54 41L54 40L56 40L56 39L54 39L54 40L51 40L51 41L49 41L49 39L50 39L50 37L49 37L49 36L51 36L51 37L52 37L52 36L53 36L53 38L52 38L52 39L53 39L53 38L54 38L54 36L56 36L56 37L57 37L57 36L56 36L56 34L57 34L57 32L56 32L56 30L57 30L57 29L56 29L56 30L53 30L53 29L54 29L54 28L55 28L55 27L56 27L56 25L54 25L54 26L55 26L55 27L53 27L53 25L51 25L51 26L50 26L50 24L49 24L49 25L48 25L48 23L49 23L49 22L50 22L50 23L51 23L51 24L57 24L57 23L56 23L56 22L57 22L57 21L55 21L55 23L51 23L51 22L53 22L53 21L54 21L54 20L57 20L57 19L56 19L56 18L57 18L57 17L56 17L56 16L55 16L55 14L57 14L57 13L54 13L54 15L51 15L51 14L52 14L52 13L51 13L51 12L50 12L50 13L47 13L47 14L46 14L46 12L45 12L45 11L47 11L47 10L45 10L45 11L42 11L42 10L44 10L44 8L45 8L45 6L44 6L44 7L43 7L43 6L42 6L42 5L43 5L43 3L47 3L47 5L46 5L46 8L47 8L47 5L48 5L48 0L46 0L46 1L45 1L45 0L41 0L41 1L45 1L45 2L40 2L40 1L37 1L37 0L35 0L35 1L34 1L34 0L32 0L32 1L34 1L34 2L37 2L37 3L36 3L36 5L34 5L34 7L35 7L35 8L36 8L36 9L35 9L35 12L34 12L34 10L32 10L32 8L33 8L33 6L32 6L32 7L31 7L31 4L32 4L32 3L33 3L33 2L30 2L30 1L31 1L31 0L30 0L30 1L29 1L29 2L28 2L28 3L27 3L27 1L26 1L26 0L21 0L21 1L23 1L23 2L22 2L22 3L21 3L21 4L19 4L19 2L20 2L20 0ZM24 1L24 2L23 2L23 3L22 3L22 4L21 4L21 5L22 5L22 4L24 4L24 2L26 2L26 1ZM46 1L46 2L47 2L47 1ZM29 2L29 3L28 3L28 4L30 4L30 2ZM38 2L38 6L37 6L37 5L36 5L36 6L35 6L35 7L36 7L36 8L38 8L38 10L37 10L37 11L36 11L36 12L35 12L35 13L33 13L33 12L31 12L31 11L32 11L32 10L31 10L31 11L30 11L30 10L29 10L29 9L26 9L26 8L25 8L25 10L24 10L24 11L22 11L22 9L24 9L24 6L23 6L23 8L22 8L22 6L21 6L21 8L22 8L22 9L20 9L20 8L19 8L19 9L18 9L18 10L19 10L19 12L20 12L20 11L22 11L22 12L21 12L21 13L19 13L19 14L18 14L18 15L17 15L17 13L18 13L18 12L17 12L17 13L13 13L13 14L12 14L12 15L15 15L15 14L16 14L16 17L15 17L15 16L14 16L14 18L13 18L13 19L14 19L14 20L12 20L12 19L11 19L11 18L12 18L12 17L11 17L11 18L9 18L9 17L8 17L8 16L7 16L7 15L6 15L6 16L7 16L7 17L8 17L8 19L6 19L6 20L8 20L8 21L9 21L9 22L7 22L7 21L6 21L6 22L7 22L7 23L6 23L6 24L7 24L7 23L8 23L8 24L10 24L10 22L11 22L11 23L13 23L13 24L15 24L15 25L14 25L14 27L16 27L16 28L18 28L18 29L16 29L16 30L18 30L18 31L19 31L19 33L16 33L16 35L15 35L15 37L16 37L16 38L15 38L15 39L14 39L14 40L15 40L15 39L16 39L16 41L14 41L14 42L13 42L13 43L15 43L15 44L14 44L14 45L13 45L13 46L12 46L12 47L14 47L14 50L12 50L12 48L11 48L11 49L10 49L10 51L11 51L11 50L12 50L12 52L10 52L10 53L9 53L9 54L10 54L10 55L9 55L9 56L11 56L11 55L12 55L12 54L14 54L14 55L13 55L13 56L16 56L16 55L15 55L15 54L16 54L16 53L18 53L18 54L20 54L20 55L21 55L21 54L22 54L22 55L23 55L23 54L22 54L22 53L24 53L24 51L25 51L25 52L26 52L26 51L25 51L25 50L26 50L26 49L25 49L25 48L27 48L27 47L28 47L28 48L29 48L29 47L28 47L28 46L29 46L29 45L30 45L30 44L32 44L32 45L33 45L33 46L35 46L35 47L33 47L33 48L32 48L32 46L31 46L31 47L30 47L30 48L32 48L32 49L31 49L31 52L32 52L32 54L34 54L34 55L36 55L36 54L35 54L35 53L36 53L36 52L38 52L38 51L37 51L37 50L39 50L39 49L38 49L38 48L40 48L40 51L39 51L39 52L40 52L40 55L41 55L41 54L42 54L42 53L43 53L43 52L42 52L42 51L43 51L43 50L42 50L42 49L43 49L43 48L44 48L44 47L43 47L43 46L44 46L44 45L45 45L45 44L44 44L44 43L45 43L45 42L46 42L46 43L48 43L48 42L47 42L47 41L48 41L48 40L47 40L47 39L45 39L45 38L47 38L47 37L48 37L48 38L49 38L49 37L48 37L48 36L45 36L45 34L47 34L47 33L48 33L48 35L51 35L51 36L52 36L52 34L54 34L54 35L53 35L53 36L54 36L54 35L55 35L55 34L54 34L54 33L56 33L56 32L54 32L54 31L52 31L52 32L53 32L53 33L51 33L51 32L50 32L50 34L49 34L49 31L48 31L48 28L47 28L47 27L48 27L48 25L47 25L47 24L46 24L46 23L44 23L44 21L45 21L45 22L47 22L47 23L48 23L48 21L49 21L49 20L48 20L48 18L47 18L47 17L50 17L50 18L49 18L49 19L50 19L50 22L51 22L51 20L52 20L52 21L53 21L53 20L54 20L54 19L53 19L53 20L52 20L52 19L51 19L51 18L54 18L54 17L55 17L55 16L54 16L54 17L53 17L53 16L50 16L50 14L51 14L51 13L50 13L50 14L49 14L49 15L46 15L46 16L47 16L47 17L46 17L46 18L45 18L45 16L43 16L43 17L44 17L44 18L42 18L42 16L40 16L40 14L42 14L42 15L43 15L43 14L44 14L44 15L45 15L45 12L44 12L44 13L43 13L43 14L42 14L42 11L41 11L41 10L42 10L42 9L41 9L41 8L43 8L43 7L42 7L42 6L41 6L41 3L40 3L40 5L39 5L39 2ZM25 3L25 5L26 5L26 4L27 4L27 3ZM34 3L34 4L35 4L35 3ZM44 4L44 5L45 5L45 4ZM27 5L27 8L30 8L30 5ZM11 6L11 7L12 7L12 6ZM13 6L13 7L14 7L14 9L13 9L13 10L11 10L11 12L12 12L12 11L13 11L13 12L14 12L14 11L13 11L13 10L14 10L14 9L15 9L15 7L14 7L14 6ZM25 6L25 7L26 7L26 6ZM28 6L28 7L29 7L29 6ZM36 6L36 7L37 7L37 6ZM38 6L38 7L39 7L39 6ZM40 6L40 8L41 8L41 6ZM48 6L48 8L49 8L49 9L48 9L48 10L50 10L50 11L52 11L52 12L53 12L53 11L54 11L54 12L55 12L55 11L56 11L56 12L57 12L57 11L56 11L56 10L55 10L55 11L54 11L54 10L52 10L52 8L51 8L51 10L50 10L50 8L49 8L49 6ZM0 8L0 11L1 11L1 9L2 9L2 10L3 10L3 9L5 9L5 10L4 10L4 11L5 11L5 12L4 12L4 14L5 14L5 12L6 12L6 13L7 13L7 12L8 12L8 11L7 11L7 10L8 10L8 9L9 9L9 8L6 8L6 9L5 9L5 8ZM53 8L53 9L54 9L54 8ZM55 8L55 9L56 9L56 8ZM6 9L6 10L7 10L7 9ZM19 9L19 10L20 10L20 9ZM40 9L40 10L39 10L39 11L37 11L37 12L36 12L36 13L35 13L35 14L32 14L32 13L28 13L28 12L29 12L29 11L27 11L27 10L26 10L26 11L27 11L27 12L25 12L25 11L24 11L24 12L23 12L23 13L21 13L21 14L19 14L19 15L18 15L18 16L17 16L17 17L19 17L19 18L17 18L17 19L18 19L18 21L16 21L16 18L15 18L15 21L16 21L16 22L15 22L15 23L16 23L16 24L17 24L17 22L18 22L18 21L20 21L20 20L19 20L19 18L20 18L20 17L19 17L19 15L21 15L21 14L22 14L22 16L23 16L23 15L24 15L24 16L26 16L26 18L25 18L25 17L21 17L21 20L22 20L22 19L23 19L23 21L21 21L21 23L23 23L23 24L26 24L26 21L27 21L27 23L28 23L28 24L27 24L27 25L26 25L26 26L25 26L25 25L22 25L22 24L21 24L21 25L22 25L22 28L21 28L21 27L20 27L20 29L18 29L18 30L20 30L20 29L21 29L21 30L22 30L22 31L21 31L21 32L20 32L20 33L21 33L21 34L24 34L24 35L25 35L25 36L26 36L26 37L27 37L27 38L26 38L26 39L25 39L25 37L24 37L24 36L23 36L23 37L19 37L19 36L20 36L20 34L19 34L19 35L17 35L17 36L18 36L18 37L17 37L17 39L18 39L18 40L17 40L17 41L19 41L19 42L18 42L18 43L17 43L17 42L15 42L15 43L16 43L16 44L15 44L15 45L14 45L14 46L15 46L15 49L19 49L19 50L18 50L18 51L17 51L17 50L15 50L15 51L14 51L14 53L16 53L16 52L18 52L18 53L19 53L19 52L20 52L20 51L19 51L19 50L20 50L20 49L21 49L21 47L22 47L22 46L23 46L23 45L24 45L24 46L25 46L25 45L26 45L26 44L27 44L27 45L29 45L29 44L30 44L30 43L32 43L32 40L33 40L33 44L34 44L34 43L35 43L35 42L34 42L34 40L35 40L35 41L37 41L37 42L38 42L38 43L36 43L36 44L35 44L35 46L36 46L36 47L35 47L35 48L36 48L36 49L35 49L35 50L34 50L34 49L33 49L33 50L34 50L34 51L32 51L32 52L33 52L33 53L34 53L34 52L36 52L36 51L35 51L35 50L37 50L37 48L38 48L38 47L37 47L37 46L38 46L38 45L39 45L39 47L40 47L40 48L41 48L41 49L42 49L42 48L43 48L43 47L42 47L42 46L43 46L43 45L44 45L44 44L43 44L43 43L44 43L44 39L43 39L43 40L42 40L42 42L41 42L41 43L39 43L39 42L38 42L38 41L37 41L37 40L38 40L38 39L37 39L37 38L38 38L38 37L39 37L39 38L40 38L40 36L41 36L41 37L42 37L42 38L43 38L43 37L44 37L44 38L45 38L45 37L44 37L44 35L42 35L42 34L44 34L44 32L46 32L46 31L47 31L47 32L48 32L48 31L47 31L47 30L46 30L46 29L47 29L47 28L46 28L46 27L47 27L47 26L45 26L45 27L42 27L42 26L43 26L43 25L44 25L44 23L43 23L43 24L41 24L41 23L40 23L40 22L39 22L39 23L40 23L40 24L38 24L38 23L37 23L37 22L38 22L38 20L39 20L39 21L40 21L40 20L41 20L41 19L42 19L42 20L46 20L46 21L47 21L47 20L46 20L46 19L47 19L47 18L46 18L46 19L42 19L42 18L41 18L41 19L40 19L40 20L39 20L39 18L34 18L34 17L38 17L38 16L39 16L39 17L40 17L40 16L39 16L39 14L36 14L36 13L38 13L38 12L40 12L40 10L41 10L41 9ZM2 11L2 12L0 12L0 14L1 14L1 13L2 13L2 15L1 15L1 16L0 16L0 18L1 18L1 16L2 16L2 19L3 19L3 16L4 16L4 15L3 15L3 13L2 13L2 12L3 12L3 11ZM6 11L6 12L7 12L7 11ZM24 12L24 13L23 13L23 14L24 14L24 15L25 15L25 14L24 14L24 13L25 13L25 12ZM26 13L26 14L28 14L28 13ZM29 14L29 15L28 15L28 16L27 16L27 15L26 15L26 16L27 16L27 18L26 18L26 20L25 20L25 18L24 18L24 20L25 20L25 21L26 21L26 20L27 20L27 21L29 21L29 22L30 22L30 23L29 23L29 24L28 24L28 25L27 25L27 26L28 26L28 25L29 25L29 24L31 24L31 22L30 22L30 21L29 21L29 20L30 20L30 19L34 19L34 18L32 18L32 17L33 17L33 16L32 16L32 14L31 14L31 16L30 16L30 14ZM2 15L2 16L3 16L3 15ZM34 15L34 16L38 16L38 15ZM31 16L31 17L28 17L28 19L27 19L27 20L28 20L28 19L29 19L29 18L31 18L31 17L32 17L32 16ZM9 19L9 20L10 20L10 21L11 21L11 20L10 20L10 19ZM35 19L35 20L32 20L32 21L33 21L33 22L34 22L34 23L33 23L33 24L32 24L32 25L31 25L31 26L32 26L32 25L33 25L33 28L32 28L32 30L31 30L31 31L32 31L32 30L35 30L35 31L33 31L33 32L31 32L31 33L32 33L32 38L31 38L31 36L30 36L30 38L31 38L31 39L29 39L29 37L28 37L28 39L27 39L27 40L25 40L25 39L23 39L23 38L22 38L22 39L21 39L21 40L22 40L22 41L20 41L20 42L19 42L19 43L20 43L20 44L21 44L21 45L19 45L19 46L18 46L18 48L19 48L19 49L20 49L20 47L21 47L21 46L22 46L22 45L23 45L23 44L24 44L24 45L25 45L25 44L26 44L26 43L25 43L25 44L24 44L24 43L23 43L23 42L22 42L22 41L24 41L24 40L25 40L25 42L26 42L26 41L27 41L27 43L30 43L30 42L31 42L31 41L29 41L29 40L32 40L32 39L33 39L33 40L34 40L34 39L35 39L35 37L36 37L36 38L37 38L37 37L36 37L36 36L40 36L40 35L41 35L41 34L42 34L42 33L43 33L43 32L44 32L44 31L46 31L46 30L45 30L45 28L44 28L44 30L42 30L42 29L43 29L43 28L42 28L42 27L41 27L41 26L42 26L42 25L41 25L41 24L40 24L40 26L39 26L39 25L38 25L38 26L35 26L35 25L34 25L34 24L36 24L36 22L37 22L37 21L36 21L36 20L38 20L38 19ZM0 20L0 22L1 22L1 23L0 23L0 24L1 24L1 25L3 25L3 21L1 21L1 20ZM12 21L12 22L13 22L13 23L14 23L14 21ZM41 21L41 22L43 22L43 21ZM19 22L19 23L18 23L18 25L17 25L17 27L18 27L18 25L19 25L19 26L20 26L20 25L19 25L19 23L20 23L20 22ZM23 22L23 23L25 23L25 22ZM11 24L11 25L12 25L12 26L13 26L13 25L12 25L12 24ZM9 25L9 26L10 26L10 25ZM0 26L0 28L3 28L3 26L2 26L2 27L1 27L1 26ZM23 26L23 27L25 27L25 28L22 28L22 29L25 29L25 30L26 30L26 27L25 27L25 26ZM5 27L5 30L8 30L8 27ZM27 27L27 30L30 30L30 27ZM34 27L34 28L33 28L33 29L35 29L35 30L36 30L36 31L40 31L40 32L38 32L38 33L37 33L37 32L35 32L35 34L34 34L34 32L33 32L33 34L34 34L34 35L33 35L33 37L35 37L35 34L36 34L36 35L37 35L37 34L38 34L38 35L40 35L40 34L38 34L38 33L40 33L40 32L41 32L41 33L42 33L42 32L43 32L43 31L42 31L42 30L41 30L41 29L39 29L39 28L40 28L40 27L39 27L39 28L38 28L38 29L39 29L39 30L36 30L36 29L37 29L37 28L36 28L36 27ZM49 27L49 30L52 30L52 27ZM6 28L6 29L7 29L7 28ZM28 28L28 29L29 29L29 28ZM35 28L35 29L36 29L36 28ZM50 28L50 29L51 29L51 28ZM2 30L2 34L4 34L4 37L5 37L5 35L6 35L6 34L5 34L5 33L3 33L3 31L4 31L4 32L5 32L5 31L4 31L4 30ZM40 30L40 31L41 31L41 32L42 32L42 31L41 31L41 30ZM6 31L6 32L7 32L7 31ZM14 31L14 32L17 32L17 31ZM22 31L22 32L21 32L21 33L25 33L25 34L26 34L26 35L27 35L27 36L29 36L29 33L30 33L30 31L28 31L28 32L29 32L29 33L27 33L27 34L26 34L26 32L27 32L27 31ZM9 33L9 34L10 34L10 33ZM13 33L13 34L14 34L14 33ZM36 33L36 34L37 34L37 33ZM21 35L21 36L22 36L22 35ZM18 37L18 38L19 38L19 39L20 39L20 38L19 38L19 37ZM3 38L3 39L4 39L4 38ZM22 39L22 40L23 40L23 39ZM28 39L28 40L29 40L29 39ZM40 39L40 40L41 40L41 39ZM6 41L6 42L8 42L8 43L9 43L9 42L8 42L8 41ZM51 41L51 42L50 42L50 43L52 43L52 44L53 44L53 43L54 43L54 41ZM4 42L4 43L5 43L5 42ZM21 42L21 44L23 44L23 43L22 43L22 42ZM42 42L42 43L43 43L43 42ZM6 43L6 44L7 44L7 43ZM38 43L38 44L39 44L39 43ZM17 44L17 45L15 45L15 46L16 46L16 48L17 48L17 45L18 45L18 44ZM40 44L40 45L41 45L41 46L42 46L42 45L43 45L43 44ZM47 44L47 45L46 45L46 46L48 46L48 44ZM49 44L49 45L51 45L51 44ZM54 44L54 45L55 45L55 44ZM3 45L3 47L5 47L5 46L4 46L4 45ZM6 45L6 46L7 46L7 45ZM1 46L1 47L2 47L2 46ZM9 46L9 47L11 47L11 46ZM19 46L19 47L20 47L20 46ZM26 46L26 47L27 47L27 46ZM50 46L50 47L51 47L51 48L52 48L52 47L51 47L51 46ZM24 47L24 48L25 48L25 47ZM36 47L36 48L37 48L37 47ZM41 47L41 48L42 48L42 47ZM6 48L6 49L7 49L7 48ZM22 49L22 50L23 50L23 51L24 51L24 50L25 50L25 49ZM27 49L27 52L30 52L30 49ZM49 49L49 52L52 52L52 49ZM55 49L55 50L56 50L56 49ZM28 50L28 51L29 51L29 50ZM41 50L41 51L40 51L40 52L41 52L41 51L42 51L42 50ZM50 50L50 51L51 51L51 50ZM15 51L15 52L16 52L16 51ZM21 52L21 53L22 53L22 52ZM25 53L25 54L24 54L24 55L25 55L25 54L26 54L26 53ZM17 55L17 56L18 56L18 55ZM47 55L47 56L48 56L48 55ZM38 56L38 57L39 57L39 56ZM0 0L0 7L7 7L7 0ZM1 1L1 6L6 6L6 1ZM2 2L2 5L5 5L5 2ZM50 0L50 7L57 7L57 0ZM51 1L51 6L56 6L56 1ZM52 2L52 5L55 5L55 2ZM0 50L0 57L7 57L7 50ZM1 51L1 56L6 56L6 51ZM2 52L2 55L5 55L5 52Z" fill="#000000"/></g></g></svg>
