<?xml version="1.0" encoding="UTF-8"?>
<svg xmlns="http://www.w3.org/2000/svg" version="1.1" width="300" height="300" viewBox="0 0 300 300"><rect x="0" y="0" width="300" height="300" fill="#ffffff"/><g transform="scale(4.918)"><g transform="translate(2,2)"><path fill-rule="evenodd" d="M9 0L9 1L8 1L8 2L10 2L10 1L12 1L12 2L11 2L11 3L10 3L10 7L9 7L9 5L8 5L8 7L9 7L9 8L6 8L6 9L7 9L7 10L4 10L4 9L5 9L5 8L0 8L0 11L1 11L1 12L0 12L0 14L1 14L1 12L2 12L2 10L4 10L4 11L3 11L3 12L5 12L5 13L4 13L4 14L3 14L3 13L2 13L2 14L3 14L3 15L2 15L2 16L0 16L0 17L1 17L1 18L0 18L0 19L3 19L3 21L2 21L2 22L0 22L0 23L2 23L2 24L1 24L1 26L2 26L2 27L1 27L1 28L0 28L0 31L2 31L2 29L1 29L1 28L2 28L2 27L3 27L3 28L4 28L4 31L3 31L3 33L1 33L1 34L0 34L0 37L1 37L1 38L0 38L0 39L2 39L2 38L4 38L4 39L3 39L3 40L4 40L4 39L5 39L5 40L6 40L6 41L7 41L7 40L8 40L8 41L10 41L10 43L13 43L13 44L12 44L12 45L14 45L14 47L15 47L15 48L14 48L14 50L12 50L12 49L13 49L13 46L11 46L11 45L10 45L10 44L8 44L8 43L7 43L7 42L5 42L5 43L3 43L3 44L1 44L1 45L0 45L0 48L5 48L5 47L7 47L7 48L6 48L6 49L7 49L7 48L8 48L8 45L9 45L9 47L10 47L10 48L11 48L11 47L12 47L12 49L8 49L8 51L10 51L10 53L9 53L9 52L8 52L8 57L9 57L9 56L11 56L11 57L20 57L20 56L18 56L18 54L17 54L17 53L20 53L20 52L21 52L21 53L22 53L22 54L21 54L21 56L23 56L23 57L24 57L24 55L22 55L22 54L24 54L24 53L25 53L25 54L26 54L26 55L25 55L25 57L26 57L26 55L27 55L27 56L28 56L28 55L27 55L27 53L28 53L28 54L30 54L30 53L31 53L31 56L30 56L30 55L29 55L29 56L30 56L30 57L32 57L32 56L33 56L33 57L35 57L35 56L36 56L36 57L38 57L38 56L39 56L39 57L40 57L40 56L42 56L42 57L44 57L44 56L47 56L47 57L49 57L49 56L50 56L50 55L51 55L51 57L52 57L52 56L54 56L54 57L56 57L56 56L55 56L55 55L54 55L54 54L55 54L55 53L54 53L54 54L53 54L53 48L55 48L55 50L57 50L57 49L56 49L56 48L55 48L55 47L56 47L56 46L57 46L57 45L56 45L56 44L55 44L55 43L56 43L56 42L55 42L55 41L54 41L54 40L55 40L55 39L57 39L57 37L56 37L56 36L57 36L57 35L56 35L56 36L55 36L55 35L54 35L54 36L53 36L53 34L52 34L52 36L50 36L50 37L49 37L49 35L50 35L50 33L54 33L54 34L57 34L57 33L56 33L56 30L57 30L57 29L54 29L54 28L57 28L57 27L56 27L56 26L57 26L57 25L55 25L55 24L56 24L56 22L57 22L57 21L56 21L56 19L55 19L55 18L57 18L57 17L52 17L52 18L50 18L50 17L51 17L51 16L50 16L50 11L52 11L52 12L53 12L53 11L54 11L54 12L55 12L55 11L56 11L56 10L57 10L57 9L56 9L56 8L55 8L55 11L54 11L54 10L53 10L53 11L52 11L52 10L49 10L49 9L50 9L50 8L49 8L49 6L48 6L48 8L47 8L47 5L48 5L48 0L46 0L46 1L47 1L47 2L43 2L43 3L42 3L42 4L41 4L41 5L40 5L40 3L41 3L41 2L40 2L40 1L43 1L43 0L39 0L39 1L34 1L34 0L29 0L29 1L28 1L28 3L27 3L27 4L26 4L26 3L25 3L25 2L24 2L24 1L26 1L26 0L24 0L24 1L23 1L23 0L21 0L21 2L20 2L20 3L21 3L21 2L22 2L22 3L23 3L23 4L19 4L19 3L18 3L18 4L19 4L19 5L18 5L18 7L17 7L17 6L16 6L16 7L15 7L15 6L14 6L14 7L13 7L13 6L12 6L12 5L16 5L16 4L14 4L14 2L13 2L13 1L15 1L15 3L17 3L17 2L16 2L16 0L13 0L13 1L12 1L12 0ZM44 0L44 1L45 1L45 0ZM18 1L18 2L19 2L19 1ZM22 1L22 2L23 2L23 3L24 3L24 2L23 2L23 1ZM29 1L29 2L30 2L30 4L31 4L31 7L32 7L32 8L31 8L31 9L32 9L32 10L30 10L30 9L25 9L25 8L26 8L26 4L25 4L25 8L24 8L24 6L23 6L23 7L22 7L22 6L21 6L21 7L22 7L22 8L19 8L19 9L20 9L20 10L19 10L19 15L18 15L18 14L17 14L17 13L18 13L18 12L17 12L17 11L18 11L18 9L16 9L16 8L17 8L17 7L16 7L16 8L15 8L15 7L14 7L14 9L13 9L13 7L12 7L12 6L11 6L11 7L10 7L10 9L11 9L11 10L10 10L10 12L9 12L9 11L8 11L8 10L9 10L9 9L8 9L8 10L7 10L7 11L5 11L5 12L7 12L7 11L8 11L8 12L9 12L9 13L8 13L8 15L6 15L6 16L7 16L7 17L6 17L6 18L4 18L4 17L3 17L3 16L2 16L2 18L3 18L3 19L4 19L4 20L5 20L5 21L6 21L6 22L7 22L7 21L9 21L9 22L8 22L8 23L10 23L10 26L11 26L11 28L9 28L9 29L11 29L11 30L12 30L12 31L11 31L11 33L12 33L12 34L10 34L10 31L8 31L8 32L7 32L7 31L6 31L6 32L5 32L5 31L4 31L4 32L5 32L5 33L3 33L3 34L1 34L1 35L3 35L3 34L5 34L5 36L4 36L4 38L5 38L5 37L6 37L6 38L7 38L7 39L6 39L6 40L7 40L7 39L8 39L8 38L9 38L9 36L11 36L11 35L12 35L12 40L13 40L13 41L12 41L12 42L13 42L13 43L15 43L15 42L16 42L16 43L18 43L18 42L19 42L19 41L20 41L20 43L19 43L19 44L21 44L21 45L19 45L19 46L21 46L21 45L22 45L22 47L23 47L23 48L21 48L21 47L18 47L18 46L17 46L17 45L18 45L18 44L17 44L17 45L15 45L15 44L14 44L14 45L15 45L15 47L17 47L17 48L19 48L19 49L16 49L16 48L15 48L15 49L16 49L16 50L15 50L15 51L16 51L16 53L15 53L15 54L16 54L16 53L17 53L17 51L18 51L18 52L20 52L20 51L21 51L21 49L26 49L26 47L24 47L24 45L25 45L25 46L27 46L27 47L28 47L28 48L29 48L29 47L28 47L28 46L29 46L29 45L28 45L28 44L26 44L26 43L27 43L27 42L26 42L26 41L28 41L28 43L30 43L30 46L31 46L31 47L32 47L32 46L35 46L35 47L34 47L34 48L35 48L35 49L34 49L34 50L33 50L33 48L31 48L31 50L32 50L32 51L31 51L31 52L32 52L32 54L35 54L35 55L34 55L34 56L35 56L35 55L36 55L36 56L38 56L38 54L39 54L39 53L38 53L38 52L40 52L40 55L42 55L42 56L44 56L44 55L47 55L47 56L48 56L48 55L47 55L47 53L48 53L48 52L47 52L47 51L48 51L48 48L49 48L49 47L52 47L52 48L53 48L53 47L54 47L54 45L55 45L55 44L54 44L54 45L52 45L52 44L53 44L53 43L54 43L54 41L53 41L53 39L55 39L55 36L54 36L54 38L53 38L53 37L50 37L50 39L52 39L52 41L51 41L51 40L49 40L49 38L48 38L48 36L47 36L47 37L46 37L46 35L45 35L45 34L47 34L47 33L48 33L48 35L49 35L49 33L50 33L50 31L48 31L48 29L46 29L46 30L44 30L44 29L45 29L45 28L42 28L42 26L41 26L41 24L40 24L40 23L43 23L43 24L42 24L42 25L43 25L43 24L44 24L44 25L45 25L45 26L43 26L43 27L46 27L46 28L48 28L48 26L47 26L47 25L49 25L49 24L48 24L48 23L47 23L47 25L45 25L45 24L44 24L44 21L45 21L45 22L47 22L47 21L48 21L48 20L49 20L49 19L47 19L47 21L46 21L46 20L43 20L43 18L44 18L44 19L46 19L46 18L47 18L47 17L50 17L50 16L49 16L49 15L46 15L46 16L43 16L43 18L41 18L41 17L42 17L42 16L40 16L40 15L37 15L37 14L39 14L39 13L41 13L41 14L42 14L42 15L45 15L45 14L42 14L42 11L43 11L43 10L39 10L39 8L40 8L40 9L41 9L41 8L40 8L40 6L39 6L39 8L38 8L38 5L39 5L39 2L35 2L35 4L33 4L33 3L34 3L34 1ZM31 2L31 4L32 4L32 3L33 3L33 2ZM8 3L8 4L9 4L9 3ZM11 3L11 4L13 4L13 3ZM28 3L28 4L29 4L29 3ZM36 3L36 5L33 5L33 6L32 6L32 7L33 7L33 6L34 6L34 7L35 7L35 8L33 8L33 9L35 9L35 10L34 10L34 11L32 11L32 12L33 12L33 13L38 13L38 12L39 12L39 11L38 11L38 8L36 8L36 7L37 7L37 6L36 6L36 5L37 5L37 3ZM43 3L43 8L44 8L44 9L45 9L45 10L44 10L44 11L45 11L45 12L44 12L44 13L45 13L45 12L46 12L46 14L47 14L47 13L49 13L49 12L47 12L47 11L48 11L48 9L49 9L49 8L48 8L48 9L47 9L47 8L45 8L45 7L46 7L46 6L45 6L45 5L44 5L44 4L46 4L46 5L47 5L47 3ZM23 4L23 5L24 5L24 4ZM19 5L19 7L20 7L20 5ZM27 5L27 8L30 8L30 5ZM41 5L41 7L42 7L42 5ZM28 6L28 7L29 7L29 6ZM35 6L35 7L36 7L36 6ZM44 6L44 7L45 7L45 6ZM11 7L11 8L12 8L12 7ZM51 8L51 9L52 9L52 8ZM53 8L53 9L54 9L54 8ZM1 9L1 10L2 10L2 9ZM14 9L14 10L11 10L11 12L10 12L10 13L9 13L9 14L10 14L10 15L9 15L9 16L8 16L8 17L7 17L7 18L6 18L6 19L7 19L7 20L6 20L6 21L7 21L7 20L9 20L9 21L10 21L10 20L9 20L9 19L8 19L8 17L11 17L11 16L10 16L10 15L12 15L12 17L13 17L13 18L12 18L12 19L13 19L13 20L12 20L12 21L13 21L13 22L12 22L12 23L11 23L11 24L12 24L12 25L11 25L11 26L12 26L12 27L14 27L14 26L15 26L15 27L16 27L16 28L15 28L15 29L14 29L14 30L13 30L13 28L11 28L11 29L12 29L12 30L13 30L13 31L12 31L12 32L13 32L13 31L14 31L14 30L15 30L15 29L18 29L18 30L19 30L19 32L18 32L18 33L19 33L19 34L18 34L18 35L20 35L20 33L21 33L21 36L22 36L22 34L23 34L23 35L24 35L24 36L23 36L23 37L19 37L19 36L17 36L17 39L18 39L18 41L19 41L19 40L21 40L21 38L23 38L23 39L22 39L22 40L23 40L23 39L24 39L24 41L23 41L23 42L22 42L22 41L21 41L21 42L22 42L22 43L21 43L21 44L22 44L22 45L24 45L24 44L25 44L25 45L26 45L26 44L25 44L25 43L23 43L23 42L25 42L25 35L27 35L27 34L25 34L25 33L29 33L29 34L30 34L30 35L29 35L29 39L31 39L31 38L32 38L32 35L33 35L33 37L34 37L34 36L35 36L35 34L32 34L32 35L31 35L31 32L33 32L33 33L34 33L34 32L33 32L33 31L36 31L36 30L37 30L37 31L39 31L39 32L42 32L42 34L41 34L41 33L40 33L40 34L37 34L37 33L38 33L38 32L35 32L35 33L36 33L36 34L37 34L37 36L36 36L36 37L35 37L35 38L33 38L33 40L36 40L36 41L39 41L39 40L38 40L38 39L40 39L40 38L38 38L38 37L40 37L40 36L41 36L41 40L42 40L42 41L40 41L40 44L39 44L39 45L40 45L40 44L43 44L43 45L42 45L42 46L41 46L41 47L40 47L40 46L36 46L36 47L35 47L35 48L36 48L36 49L35 49L35 50L34 50L34 51L32 51L32 52L34 52L34 53L35 53L35 52L36 52L36 54L38 54L38 53L37 53L37 52L36 52L36 51L37 51L37 50L38 50L38 51L40 51L40 52L41 52L41 54L43 54L43 53L44 53L44 54L45 54L45 53L46 53L46 51L47 51L47 50L46 50L46 49L44 49L44 50L46 50L46 51L45 51L45 53L44 53L44 51L42 51L42 50L43 50L43 48L45 48L45 47L47 47L47 46L50 46L50 45L47 45L47 44L48 44L48 43L49 43L49 44L52 44L52 43L53 43L53 42L51 42L51 41L48 41L48 42L46 42L46 43L44 43L44 42L43 42L43 41L44 41L44 40L45 40L45 41L46 41L46 40L45 40L45 39L44 39L44 40L43 40L43 39L42 39L42 38L43 38L43 37L44 37L44 38L45 38L45 37L44 37L44 35L43 35L43 36L42 36L42 34L44 34L44 32L45 32L45 33L47 33L47 32L48 32L48 31L47 31L47 30L46 30L46 31L44 31L44 32L43 32L43 31L42 31L42 30L43 30L43 29L42 29L42 30L41 30L41 31L40 31L40 29L39 29L39 28L41 28L41 27L39 27L39 28L38 28L38 25L39 25L39 23L40 23L40 22L43 22L43 20L42 20L42 19L40 19L40 18L38 18L38 17L40 17L40 16L38 16L38 17L37 17L37 16L35 16L35 14L30 14L30 13L28 13L28 12L30 12L30 10L26 10L26 11L27 11L27 12L25 12L25 9L23 9L23 10L22 10L22 9L21 9L21 10L22 10L22 11L20 11L20 13L21 13L21 14L20 14L20 15L21 15L21 16L20 16L20 17L19 17L19 16L18 16L18 17L17 17L17 14L14 14L14 16L13 16L13 13L17 13L17 12L15 12L15 11L17 11L17 10L15 10L15 9ZM35 10L35 11L34 11L34 12L37 12L37 11L36 11L36 10ZM45 10L45 11L47 11L47 10ZM12 11L12 12L11 12L11 14L12 14L12 13L13 13L13 12L14 12L14 11ZM23 11L23 13L22 13L22 12L21 12L21 13L22 13L22 15L23 15L23 16L22 16L22 17L23 17L23 16L24 16L24 17L25 17L25 18L24 18L24 20L23 20L23 18L21 18L21 17L20 17L20 18L21 18L21 19L19 19L19 17L18 17L18 19L15 19L15 18L13 18L13 19L14 19L14 20L13 20L13 21L14 21L14 22L13 22L13 23L12 23L12 24L14 24L14 25L15 25L15 26L16 26L16 27L17 27L17 28L18 28L18 29L20 29L20 30L21 30L21 31L20 31L20 32L21 32L21 31L22 31L22 33L25 33L25 32L27 32L27 31L25 31L25 30L26 30L26 27L25 27L25 28L23 28L23 24L22 24L22 21L24 21L24 22L23 22L23 23L24 23L24 25L25 25L25 26L26 26L26 25L27 25L27 24L28 24L28 26L29 26L29 24L33 24L33 23L34 23L34 25L33 25L33 27L32 27L32 29L31 29L31 30L32 30L32 31L33 31L33 30L35 30L35 29L33 29L33 28L34 28L34 27L36 27L36 28L37 28L37 30L39 30L39 29L38 29L38 28L37 28L37 26L35 26L35 23L36 23L36 24L37 24L37 25L38 25L38 23L39 23L39 21L38 21L38 22L37 22L37 21L36 21L36 20L38 20L38 18L37 18L37 17L35 17L35 16L34 16L34 18L33 18L33 16L30 16L30 14L29 14L29 15L28 15L28 16L27 16L27 14L28 14L28 13L25 13L25 12L24 12L24 11ZM56 12L56 14L55 14L55 13L53 13L53 16L55 16L55 15L56 15L56 16L57 16L57 15L56 15L56 14L57 14L57 12ZM6 13L6 14L7 14L7 13ZM23 13L23 15L24 15L24 16L25 16L25 17L27 17L27 18L28 18L28 19L27 19L27 20L26 20L26 18L25 18L25 20L24 20L24 21L25 21L25 22L26 22L26 23L25 23L25 24L27 24L27 23L28 23L28 24L29 24L29 23L30 23L30 22L31 22L31 23L33 23L33 21L32 21L32 20L34 20L34 21L35 21L35 19L37 19L37 18L34 18L34 19L33 19L33 18L32 18L32 17L29 17L29 16L28 16L28 17L27 17L27 16L25 16L25 15L24 15L24 14L25 14L25 13ZM51 13L51 14L52 14L52 13ZM15 15L15 16L14 16L14 17L16 17L16 18L17 18L17 17L16 17L16 15ZM44 17L44 18L46 18L46 17ZM10 18L10 19L11 19L11 18ZM29 18L29 19L32 19L32 18ZM52 18L52 20L51 20L51 19L50 19L50 22L49 22L49 23L50 23L50 26L53 26L53 27L55 27L55 26L54 26L54 24L51 24L51 23L52 23L52 22L53 22L53 21L55 21L55 20L54 20L54 19L53 19L53 18ZM18 19L18 21L20 21L20 20L19 20L19 19ZM21 19L21 21L22 21L22 19ZM39 19L39 20L40 20L40 21L41 21L41 20L40 20L40 19ZM0 20L0 21L1 21L1 20ZM15 20L15 21L16 21L16 22L14 22L14 23L16 23L16 24L17 24L17 27L18 27L18 26L19 26L19 27L20 27L20 29L22 29L22 28L21 28L21 27L22 27L22 26L21 26L21 27L20 27L20 25L21 25L21 24L20 24L20 25L19 25L19 24L18 24L18 23L17 23L17 21L16 21L16 20ZM27 20L27 21L28 21L28 22L30 22L30 21L29 21L29 20ZM4 22L4 24L2 24L2 26L3 26L3 27L4 27L4 26L5 26L5 25L6 25L6 26L7 26L7 25L6 25L6 24L7 24L7 23L5 23L5 22ZM19 22L19 23L20 23L20 22ZM36 22L36 23L37 23L37 22ZM50 22L50 23L51 23L51 22ZM54 22L54 23L55 23L55 22ZM4 24L4 25L3 25L3 26L4 26L4 25L5 25L5 24ZM8 24L8 26L9 26L9 24ZM31 25L31 26L32 26L32 25ZM5 27L5 30L8 30L8 27ZM27 27L27 30L30 30L30 27ZM49 27L49 30L52 30L52 27ZM6 28L6 29L7 29L7 28ZM28 28L28 29L29 29L29 28ZM50 28L50 29L51 29L51 28ZM23 29L23 30L22 30L22 31L23 31L23 32L25 32L25 31L24 31L24 30L25 30L25 29ZM32 29L32 30L33 30L33 29ZM53 29L53 31L52 31L52 32L54 32L54 33L55 33L55 32L54 32L54 31L55 31L55 30L54 30L54 29ZM16 30L16 31L17 31L17 30ZM29 31L29 33L30 33L30 32L31 32L31 31ZM46 31L46 32L47 32L47 31ZM6 32L6 33L5 33L5 34L6 34L6 35L7 35L7 34L6 34L6 33L7 33L7 32ZM8 32L8 35L9 35L9 32ZM14 32L14 33L17 33L17 32ZM14 34L14 35L15 35L15 34ZM16 34L16 35L17 35L17 34ZM40 34L40 35L38 35L38 36L37 36L37 37L36 37L36 38L37 38L37 39L36 39L36 40L37 40L37 39L38 39L38 38L37 38L37 37L38 37L38 36L40 36L40 35L41 35L41 34ZM6 36L6 37L7 37L7 38L8 38L8 37L7 37L7 36ZM13 36L13 37L14 37L14 38L13 38L13 39L15 39L15 40L14 40L14 42L15 42L15 41L17 41L17 40L16 40L16 39L15 39L15 38L16 38L16 37L14 37L14 36ZM26 36L26 37L27 37L27 38L26 38L26 39L27 39L27 40L28 40L28 41L29 41L29 42L30 42L30 43L33 43L33 44L34 44L34 43L39 43L39 42L34 42L34 41L33 41L33 42L32 42L32 41L31 41L31 40L28 40L28 39L27 39L27 38L28 38L28 37L27 37L27 36ZM30 36L30 38L31 38L31 36ZM18 37L18 39L20 39L20 38L19 38L19 37ZM23 37L23 38L24 38L24 37ZM46 38L46 39L48 39L48 38ZM52 38L52 39L53 39L53 38ZM10 39L10 41L11 41L11 39ZM1 40L1 41L2 41L2 42L0 42L0 43L2 43L2 42L3 42L3 41L2 41L2 40ZM30 41L30 42L31 42L31 41ZM50 42L50 43L51 43L51 42ZM5 43L5 44L4 44L4 45L3 45L3 47L5 47L5 45L6 45L6 46L7 46L7 45L6 45L6 44L7 44L7 43ZM43 43L43 44L44 44L44 45L43 45L43 46L42 46L42 47L41 47L41 48L39 48L39 47L36 47L36 48L38 48L38 50L39 50L39 49L40 49L40 50L42 50L42 47L43 47L43 46L44 46L44 47L45 47L45 44L44 44L44 43ZM31 44L31 45L32 45L32 44ZM35 44L35 45L38 45L38 44ZM27 45L27 46L28 46L28 45ZM46 45L46 46L47 46L47 45ZM51 45L51 46L52 46L52 45ZM1 46L1 47L2 47L2 46ZM20 48L20 49L19 49L19 50L18 50L18 51L19 51L19 50L20 50L20 49L21 49L21 48ZM27 49L27 52L30 52L30 49ZM36 49L36 50L35 50L35 51L34 51L34 52L35 52L35 51L36 51L36 50L37 50L37 49ZM49 49L49 52L52 52L52 49ZM10 50L10 51L12 51L12 52L11 52L11 53L12 53L12 52L14 52L14 51L12 51L12 50ZM22 50L22 51L23 51L23 52L22 52L22 53L24 53L24 51L25 51L25 53L26 53L26 50L24 50L24 51L23 51L23 50ZM28 50L28 51L29 51L29 50ZM50 50L50 51L51 51L51 50ZM54 51L54 52L55 52L55 51ZM56 51L56 52L57 52L57 51ZM42 52L42 53L43 53L43 52ZM49 53L49 54L51 54L51 55L53 55L53 54L51 54L51 53ZM9 54L9 55L10 55L10 54ZM11 54L11 55L14 55L14 54ZM19 54L19 55L20 55L20 54ZM15 55L15 56L16 56L16 55ZM0 0L0 7L7 7L7 0ZM1 1L1 6L6 6L6 1ZM2 2L2 5L5 5L5 2ZM50 0L50 7L57 7L57 0ZM51 1L51 6L56 6L56 1ZM52 2L52 5L55 5L55 2ZM0 50L0 57L7 57L7 50ZM1 51L1 56L6 56L6 51ZM2 52L2 55L5 55L5 52Z" fill="#000000"/></g></g></svg>
