<?xml version="1.0" encoding="UTF-8"?>
<svg xmlns="http://www.w3.org/2000/svg" version="1.1" width="300" height="300" viewBox="0 0 300 300"><rect x="0" y="0" width="300" height="300" fill="#ffffff"/><g transform="scale(4.918)"><g transform="translate(2,2)"><path fill-rule="evenodd" d="M9 0L9 1L8 1L8 2L9 2L9 1L10 1L10 5L8 5L8 7L9 7L9 6L10 6L10 7L11 7L11 6L12 6L12 8L10 8L10 9L9 9L9 8L6 8L6 9L7 9L7 10L5 10L5 11L4 11L4 10L2 10L2 9L5 9L5 8L0 8L0 10L2 10L2 12L1 12L1 11L0 11L0 12L1 12L1 14L0 14L0 17L2 17L2 18L1 18L1 20L0 20L0 21L1 21L1 22L0 22L0 25L2 25L2 24L1 24L1 23L3 23L3 25L7 25L7 24L8 24L8 23L9 23L9 20L5 20L5 18L4 18L4 17L7 17L7 18L6 18L6 19L11 19L11 20L10 20L10 22L11 22L11 21L12 21L12 20L14 20L14 19L12 19L12 18L14 18L14 16L15 16L15 17L21 17L21 18L20 18L20 19L23 19L23 17L21 17L21 16L25 16L25 17L24 17L24 18L26 18L26 19L27 19L27 20L26 20L26 21L25 21L25 19L24 19L24 21L21 21L21 23L23 23L23 24L24 24L24 23L23 23L23 22L24 22L24 21L25 21L25 22L26 22L26 23L25 23L25 24L27 24L27 25L26 25L26 26L25 26L25 25L23 25L23 26L25 26L25 27L24 27L24 28L23 28L23 29L24 29L24 30L20 30L20 31L21 31L21 32L20 32L20 33L21 33L21 35L20 35L20 36L21 36L21 37L19 37L19 35L17 35L17 34L16 34L16 35L17 35L17 37L19 37L19 38L18 38L18 39L17 39L17 41L18 41L18 43L16 43L16 42L15 42L15 41L13 41L13 40L11 40L11 39L12 39L12 37L11 37L11 36L13 36L13 34L14 34L14 32L15 32L15 33L19 33L19 29L18 29L18 28L17 28L17 27L18 27L18 25L19 25L19 27L20 27L20 25L21 25L21 27L22 27L22 25L21 25L21 24L19 24L19 23L20 23L20 22L17 22L17 21L20 21L20 20L18 20L18 19L19 19L19 18L18 18L18 19L17 19L17 18L15 18L15 19L17 19L17 21L16 21L16 20L15 20L15 21L16 21L16 22L14 22L14 21L13 21L13 23L12 23L12 25L11 25L11 24L10 24L10 25L8 25L8 26L3 26L3 27L2 27L2 26L0 26L0 27L1 27L1 28L3 28L3 27L4 27L4 29L2 29L2 31L1 31L1 32L0 32L0 34L1 34L1 35L0 35L0 37L1 37L1 36L3 36L3 37L4 37L4 38L2 38L2 39L5 39L5 40L2 40L2 41L1 41L1 40L0 40L0 41L1 41L1 43L0 43L0 48L5 48L5 47L11 47L11 46L12 46L12 47L13 47L13 45L14 45L14 48L12 48L12 49L11 49L11 50L10 50L10 48L9 48L9 49L8 49L8 51L9 51L9 50L10 50L10 51L11 51L11 50L13 50L13 51L12 51L12 52L13 52L13 55L12 55L12 53L11 53L11 52L8 52L8 57L10 57L10 56L11 56L11 55L12 55L12 57L15 57L15 55L16 55L16 57L21 57L21 56L17 56L17 55L18 55L18 54L17 54L17 53L20 53L20 52L18 52L18 51L21 51L21 50L20 50L20 49L21 49L21 48L20 48L20 47L22 47L22 45L23 45L23 47L24 47L24 48L23 48L23 49L22 49L22 50L23 50L23 51L22 51L22 52L21 52L21 53L22 53L22 54L21 54L21 55L22 55L22 54L24 54L24 53L26 53L26 54L25 54L25 56L24 56L24 55L23 55L23 56L24 56L24 57L26 57L26 56L28 56L28 55L26 55L26 54L27 54L27 53L28 53L28 54L30 54L30 53L31 53L31 55L33 55L33 54L32 54L32 52L33 52L33 53L34 53L34 52L33 52L33 51L32 51L32 49L31 49L31 48L36 48L36 49L35 49L35 50L34 50L34 49L33 49L33 50L34 50L34 51L35 51L35 50L36 50L36 52L35 52L35 53L36 53L36 54L37 54L37 55L36 55L36 56L35 56L35 55L34 55L34 56L30 56L30 55L29 55L29 56L30 56L30 57L37 57L37 56L38 56L38 57L39 57L39 56L38 56L38 55L40 55L40 52L41 52L41 54L43 54L43 53L44 53L44 54L45 54L45 53L44 53L44 50L43 50L43 48L46 48L46 49L45 49L45 50L46 50L46 51L45 51L45 52L48 52L48 53L47 53L47 54L48 54L48 55L46 55L46 57L48 57L48 56L49 56L49 57L52 57L52 56L53 56L53 57L54 57L54 56L55 56L55 57L56 57L56 56L55 56L55 53L56 53L56 52L57 52L57 51L56 51L56 52L55 52L55 50L57 50L57 49L55 49L55 50L54 50L54 48L55 48L55 47L56 47L56 48L57 48L57 47L56 47L56 46L57 46L57 45L56 45L56 44L57 44L57 43L56 43L56 41L55 41L55 39L57 39L57 37L56 37L56 36L57 36L57 35L56 35L56 34L57 34L57 33L56 33L56 31L54 31L54 32L51 32L51 31L53 31L53 29L54 29L54 30L55 30L55 29L54 29L54 28L56 28L56 30L57 30L57 28L56 28L56 26L55 26L55 25L57 25L57 24L56 24L56 22L57 22L57 21L56 21L56 20L57 20L57 19L56 19L56 18L57 18L57 17L56 17L56 18L55 18L55 19L54 19L54 20L55 20L55 22L54 22L54 21L53 21L53 23L51 23L51 22L50 22L50 19L51 19L51 20L52 20L52 19L51 19L51 18L50 18L50 17L51 17L51 16L53 16L53 17L52 17L52 18L53 18L53 17L54 17L54 16L55 16L55 14L57 14L57 13L53 13L53 15L51 15L51 16L50 16L50 15L49 15L49 14L50 14L50 13L51 13L51 14L52 14L52 13L51 13L51 12L49 12L49 13L47 13L47 14L46 14L46 12L45 12L45 13L44 13L44 12L43 12L43 10L44 10L44 11L47 11L47 10L44 10L44 7L45 7L45 9L48 9L48 11L49 11L49 10L50 10L50 11L52 11L52 12L53 12L53 11L54 11L54 12L56 12L56 10L55 10L55 11L54 11L54 10L53 10L53 9L54 9L54 8L53 8L53 9L52 9L52 8L51 8L51 10L50 10L50 8L49 8L49 9L48 9L48 7L49 7L49 6L48 6L48 7L47 7L47 5L48 5L48 0L46 0L46 1L45 1L45 2L44 2L44 0L42 0L42 1L41 1L41 0L40 0L40 1L38 1L38 0L37 0L37 1L33 1L33 0L32 0L32 1L33 1L33 2L31 2L31 4L30 4L30 1L31 1L31 0L30 0L30 1L29 1L29 0L28 0L28 1L26 1L26 0L24 0L24 2L21 2L21 1L23 1L23 0L21 0L21 1L20 1L20 3L21 3L21 4L19 4L19 3L17 3L17 5L18 5L18 7L17 7L17 6L16 6L16 7L15 7L15 6L14 6L14 5L16 5L16 4L14 4L14 1L15 1L15 3L16 3L16 2L17 2L17 1L16 1L16 0L12 0L12 1L13 1L13 2L12 2L12 3L11 3L11 1L10 1L10 0ZM18 1L18 2L19 2L19 1ZM25 1L25 2L24 2L24 3L26 3L26 4L25 4L25 8L26 8L26 4L29 4L29 3L27 3L27 2L26 2L26 1ZM28 1L28 2L29 2L29 1ZM37 1L37 2L35 2L35 4L34 4L34 3L32 3L32 4L31 4L31 7L32 7L32 8L31 8L31 9L32 9L32 10L28 10L28 9L25 9L25 11L24 11L24 10L23 10L23 11L24 11L24 13L22 13L22 12L21 12L21 11L22 11L22 10L21 10L21 9L24 9L24 6L23 6L23 5L24 5L24 4L23 4L23 3L22 3L22 4L21 4L21 5L22 5L22 6L21 6L21 8L20 8L20 11L19 11L19 15L18 15L18 14L17 14L17 13L18 13L18 12L17 12L17 13L16 13L16 12L15 12L15 13L13 13L13 12L14 12L14 11L13 11L13 10L11 10L11 9L10 9L10 10L7 10L7 11L5 11L5 12L4 12L4 11L3 11L3 12L2 12L2 13L3 13L3 14L1 14L1 15L3 15L3 17L4 17L4 16L5 16L5 15L3 15L3 14L4 14L4 13L6 13L6 14L8 14L8 16L9 16L9 14L10 14L10 18L12 18L12 16L13 16L13 15L15 15L15 16L19 16L19 15L21 15L21 13L22 13L22 15L24 15L24 13L25 13L25 14L26 14L26 15L25 15L25 16L27 16L27 17L28 17L28 16L29 16L29 17L31 17L31 18L29 18L29 19L32 19L32 18L37 18L37 19L33 19L33 20L32 20L32 21L33 21L33 22L35 22L35 25L36 25L36 24L37 24L37 25L38 25L38 26L39 26L39 27L38 27L38 28L37 28L37 30L39 30L39 29L40 29L40 30L42 30L42 31L43 31L43 30L42 30L42 29L43 29L43 28L44 28L44 31L46 31L46 32L42 32L42 33L41 33L41 32L40 32L40 31L38 31L38 34L37 34L37 35L36 35L36 32L37 32L37 31L36 31L36 32L35 32L35 31L33 31L33 30L35 30L35 29L33 29L33 28L34 28L34 27L35 27L35 26L34 26L34 25L33 25L33 26L34 26L34 27L31 27L31 28L32 28L32 29L31 29L31 31L33 31L33 32L31 32L31 33L32 33L32 34L31 34L31 35L32 35L32 38L31 38L31 36L30 36L30 38L31 38L31 39L29 39L29 35L30 35L30 34L29 34L29 33L30 33L30 32L29 32L29 31L25 31L25 32L23 32L23 31L22 31L22 32L21 32L21 33L23 33L23 34L22 34L22 35L21 35L21 36L22 36L22 37L21 37L21 41L19 41L19 47L20 47L20 46L21 46L21 45L22 45L22 44L21 44L21 45L20 45L20 43L22 43L22 42L23 42L23 41L24 41L24 39L23 39L23 38L24 38L24 37L23 37L23 35L25 35L25 34L26 34L26 35L27 35L27 36L26 36L26 37L25 37L25 38L26 38L26 37L28 37L28 38L27 38L27 39L28 39L28 40L26 40L26 39L25 39L25 43L24 43L24 44L23 44L23 45L25 45L25 46L26 46L26 47L25 47L25 48L24 48L24 49L23 49L23 50L24 50L24 51L25 51L25 52L26 52L26 47L27 47L27 48L29 48L29 46L31 46L31 45L28 45L28 44L26 44L26 43L27 43L27 42L28 42L28 43L29 43L29 44L31 44L31 43L32 43L32 47L33 47L33 46L35 46L35 47L36 47L36 48L40 48L40 50L39 50L39 49L37 49L37 50L39 50L39 51L38 51L38 52L37 52L37 54L39 54L39 53L38 53L38 52L40 52L40 51L41 51L41 52L43 52L43 50L42 50L42 49L41 49L41 48L43 48L43 47L44 47L44 46L45 46L45 44L41 44L41 43L42 43L42 42L41 42L41 41L43 41L43 39L44 39L44 43L45 43L45 42L47 42L47 41L48 41L48 40L49 40L49 41L51 41L51 42L50 42L50 43L51 43L51 44L49 44L49 43L48 43L48 44L47 44L47 45L46 45L46 46L47 46L47 47L46 47L46 48L47 48L47 49L46 49L46 50L47 50L47 51L48 51L48 48L49 48L49 47L51 47L51 48L54 48L54 47L52 47L52 46L53 46L53 45L51 45L51 44L53 44L53 43L54 43L54 41L53 41L53 39L51 39L51 38L54 38L54 39L55 39L55 38L56 38L56 37L55 37L55 38L54 38L54 36L53 36L53 37L51 37L51 36L52 36L52 34L53 34L53 35L55 35L55 36L56 36L56 35L55 35L55 34L56 34L56 33L55 33L55 32L54 32L54 33L50 33L50 31L48 31L48 29L46 29L46 30L45 30L45 27L46 27L46 28L47 28L47 27L48 27L48 25L49 25L49 24L51 24L51 25L50 25L50 26L53 26L53 27L55 27L55 26L54 26L54 24L51 24L51 23L50 23L50 22L47 22L47 21L48 21L48 19L50 19L50 18L47 18L47 16L48 16L48 17L50 17L50 16L49 16L49 15L47 15L47 16L44 16L44 15L45 15L45 14L44 14L44 13L43 13L43 14L42 14L42 10L41 10L41 8L42 8L42 5L40 5L40 6L39 6L39 7L38 7L38 6L37 6L37 5L36 5L36 3L37 3L37 4L38 4L38 5L39 5L39 4L38 4L38 3L37 3L37 2L38 2L38 1ZM40 1L40 2L41 2L41 3L40 3L40 4L41 4L41 3L43 3L43 7L44 7L44 6L45 6L45 7L46 7L46 8L47 8L47 7L46 7L46 6L45 6L45 5L44 5L44 4L46 4L46 5L47 5L47 3L43 3L43 1L42 1L42 2L41 2L41 1ZM46 1L46 2L47 2L47 1ZM8 3L8 4L9 4L9 3ZM18 4L18 5L19 5L19 7L20 7L20 5L19 5L19 4ZM22 4L22 5L23 5L23 4ZM27 5L27 8L30 8L30 5ZM35 5L35 6L34 6L34 8L35 8L35 9L37 9L37 10L36 10L36 11L37 11L37 12L36 12L36 13L35 13L35 12L34 12L34 9L33 9L33 11L32 11L32 12L31 12L31 14L30 14L30 13L28 13L28 12L30 12L30 11L27 11L27 10L26 10L26 11L27 11L27 12L25 12L25 13L28 13L28 14L27 14L27 16L28 16L28 15L29 15L29 14L30 14L30 16L34 16L34 15L35 15L35 16L36 16L36 17L37 17L37 18L38 18L38 20L36 20L36 21L38 21L38 20L39 20L39 21L40 21L40 20L42 20L42 22L41 22L41 23L40 23L40 22L36 22L36 23L38 23L38 24L39 24L39 23L40 23L40 24L41 24L41 25L40 25L40 27L39 27L39 28L38 28L38 29L39 29L39 28L41 28L41 26L42 26L42 28L43 28L43 27L44 27L44 26L45 26L45 25L42 25L42 24L41 24L41 23L42 23L42 22L43 22L43 20L45 20L45 18L46 18L46 19L47 19L47 18L46 18L46 17L45 17L45 18L44 18L44 16L43 16L43 15L44 15L44 14L43 14L43 15L42 15L42 14L41 14L41 15L39 15L39 16L38 16L38 17L37 17L37 16L36 16L36 15L37 15L37 14L38 14L38 12L41 12L41 11L39 11L39 10L40 10L40 8L41 8L41 6L40 6L40 8L39 8L39 10L38 10L38 9L37 9L37 8L38 8L38 7L37 7L37 6L36 6L36 5ZM13 6L13 7L14 7L14 10L17 10L17 11L18 11L18 10L19 10L19 9L18 9L18 10L17 10L17 7L16 7L16 9L15 9L15 7L14 7L14 6ZM22 6L22 7L23 7L23 6ZM28 6L28 7L29 7L29 6ZM32 6L32 7L33 7L33 6ZM35 6L35 7L36 7L36 8L37 8L37 7L36 7L36 6ZM12 8L12 9L13 9L13 8ZM55 8L55 9L56 9L56 8ZM52 10L52 11L53 11L53 10ZM8 11L8 13L10 13L10 14L13 14L13 13L12 13L12 12L10 12L10 11ZM6 12L6 13L7 13L7 12ZM20 12L20 13L21 13L21 12ZM32 12L32 14L31 14L31 15L32 15L32 14L35 14L35 13L33 13L33 12ZM15 14L15 15L16 15L16 14ZM6 15L6 16L7 16L7 15ZM53 15L53 16L54 16L54 15ZM56 15L56 16L57 16L57 15ZM39 16L39 17L38 17L38 18L39 18L39 20L40 20L40 19L41 19L41 18L42 18L42 19L44 19L44 18L42 18L42 17L43 17L43 16L42 16L42 17L41 17L41 16ZM2 18L2 19L3 19L3 18ZM27 18L27 19L28 19L28 18ZM55 19L55 20L56 20L56 19ZM2 20L2 22L3 22L3 23L4 23L4 22L5 22L5 24L7 24L7 23L8 23L8 21L3 21L3 20ZM27 20L27 24L28 24L28 26L29 26L29 24L28 24L28 23L31 23L31 24L30 24L30 25L31 25L31 26L32 26L32 25L31 25L31 24L34 24L34 23L31 23L31 22L28 22L28 21L31 21L31 20ZM34 20L34 21L35 21L35 20ZM44 21L44 23L43 23L43 24L46 24L46 25L48 25L48 24L46 24L46 23L45 23L45 21ZM6 22L6 23L7 23L7 22ZM13 23L13 25L14 25L14 28L13 28L13 29L12 29L12 27L10 27L10 26L9 26L9 27L10 27L10 29L9 29L9 30L10 30L10 32L9 32L9 33L8 33L8 31L4 31L4 30L3 30L3 31L2 31L2 33L4 33L4 32L5 32L5 35L3 35L3 34L2 34L2 35L3 35L3 36L5 36L5 35L6 35L6 36L7 36L7 37L5 37L5 38L7 38L7 37L8 37L8 38L9 38L9 37L10 37L10 38L11 38L11 37L10 37L10 35L11 35L11 34L12 34L12 33L13 33L13 32L14 32L14 31L12 31L12 33L11 33L11 29L12 29L12 30L13 30L13 29L14 29L14 30L15 30L15 31L16 31L16 32L18 32L18 31L17 31L17 30L18 30L18 29L16 29L16 28L15 28L15 26L17 26L17 25L18 25L18 24L16 24L16 23ZM14 24L14 25L15 25L15 24ZM36 26L36 27L37 27L37 26ZM46 26L46 27L47 27L47 26ZM5 27L5 30L8 30L8 27ZM25 27L25 28L24 28L24 29L25 29L25 30L26 30L26 27ZM27 27L27 30L30 30L30 27ZM49 27L49 30L52 30L52 27ZM6 28L6 29L7 29L7 28ZM14 28L14 29L15 29L15 28ZM20 28L20 29L22 29L22 28ZM28 28L28 29L29 29L29 28ZM50 28L50 29L51 29L51 28ZM0 29L0 30L1 30L1 29ZM32 29L32 30L33 30L33 29ZM46 30L46 31L47 31L47 32L48 32L48 31L47 31L47 30ZM3 31L3 32L4 32L4 31ZM6 32L6 33L7 33L7 34L6 34L6 35L7 35L7 36L8 36L8 37L9 37L9 36L8 36L8 35L7 35L7 34L8 34L8 33L7 33L7 32ZM25 32L25 33L24 33L24 34L25 34L25 33L29 33L29 32ZM39 32L39 34L38 34L38 35L37 35L37 36L36 36L36 38L33 38L33 40L34 40L34 39L35 39L35 40L36 40L36 41L35 41L35 44L36 44L36 45L39 45L39 46L36 46L36 47L40 47L40 48L41 48L41 47L42 47L42 46L43 46L43 45L42 45L42 46L41 46L41 45L39 45L39 44L36 44L36 42L37 42L37 43L39 43L39 42L40 42L40 43L41 43L41 42L40 42L40 40L42 40L42 39L39 39L39 42L38 42L38 41L37 41L37 40L38 40L38 37L39 37L39 38L40 38L40 36L41 36L41 38L43 38L43 37L44 37L44 38L45 38L45 37L44 37L44 35L45 35L45 34L46 34L46 35L47 35L47 36L46 36L46 37L47 37L47 36L48 36L48 33L47 33L47 34L46 34L46 33L45 33L45 34L44 34L44 35L42 35L42 34L43 34L43 33L42 33L42 34L41 34L41 33L40 33L40 32ZM9 33L9 34L10 34L10 33ZM33 33L33 34L34 34L34 35L33 35L33 37L34 37L34 36L35 36L35 34L34 34L34 33ZM49 33L49 35L50 35L50 33ZM54 33L54 34L55 34L55 33ZM40 34L40 35L38 35L38 36L40 36L40 35L41 35L41 34ZM14 35L14 36L15 36L15 35ZM42 36L42 37L43 37L43 36ZM49 36L49 37L48 37L48 39L50 39L50 40L51 40L51 39L50 39L50 38L51 38L51 37L50 37L50 36ZM15 37L15 38L14 38L14 39L15 39L15 40L16 40L16 39L15 39L15 38L16 38L16 37ZM22 37L22 38L23 38L23 37ZM49 37L49 38L50 38L50 37ZM19 38L19 39L20 39L20 38ZM6 39L6 40L9 40L9 39ZM31 39L31 40L30 40L30 41L31 41L31 42L29 42L29 43L31 43L31 42L32 42L32 41L31 41L31 40L32 40L32 39ZM36 39L36 40L37 40L37 39ZM3 41L3 43L4 43L4 46L3 46L3 44L2 44L2 45L1 45L1 47L2 47L2 46L3 46L3 47L5 47L5 43L4 43L4 42L7 42L7 43L6 43L6 44L9 44L9 45L10 45L10 46L11 46L11 44L10 44L10 43L12 43L12 44L14 44L14 45L15 45L15 46L17 46L17 47L18 47L18 46L17 46L17 45L18 45L18 44L17 44L17 45L15 45L15 44L14 44L14 43L15 43L15 42L14 42L14 43L12 43L12 41L10 41L10 42L9 42L9 41L8 41L8 42L7 42L7 41ZM21 41L21 42L22 42L22 41ZM26 41L26 42L27 42L27 41ZM33 41L33 42L34 42L34 41ZM33 43L33 44L34 44L34 43ZM55 43L55 44L54 44L54 45L55 45L55 46L56 46L56 45L55 45L55 44L56 44L56 43ZM25 44L25 45L26 45L26 44ZM6 45L6 46L7 46L7 45ZM27 45L27 47L28 47L28 45ZM50 45L50 46L51 46L51 45ZM15 47L15 48L14 48L14 49L13 49L13 50L15 50L15 51L13 51L13 52L14 52L14 54L16 54L16 53L17 53L17 51L16 51L16 50L17 50L17 49L18 49L18 50L19 50L19 49L20 49L20 48L19 48L19 49L18 49L18 48L17 48L17 49L16 49L16 47ZM6 48L6 49L7 49L7 48ZM15 49L15 50L16 50L16 49ZM24 49L24 50L25 50L25 49ZM27 49L27 52L30 52L30 49ZM49 49L49 52L52 52L52 49ZM28 50L28 51L29 51L29 50ZM41 50L41 51L42 51L42 50ZM50 50L50 51L51 51L51 50ZM15 51L15 53L16 53L16 51ZM31 51L31 52L32 52L32 51ZM22 52L22 53L24 53L24 52ZM53 52L53 53L54 53L54 52ZM9 53L9 56L10 56L10 54L11 54L11 53ZM48 53L48 54L49 54L49 53ZM50 53L50 54L51 54L51 55L50 55L50 56L51 56L51 55L53 55L53 56L54 56L54 54L51 54L51 53ZM19 54L19 55L20 55L20 54ZM44 55L44 56L43 56L43 57L44 57L44 56L45 56L45 55ZM0 0L0 7L7 7L7 0ZM1 1L1 6L6 6L6 1ZM2 2L2 5L5 5L5 2ZM50 0L50 7L57 7L57 0ZM51 1L51 6L56 6L56 1ZM52 2L52 5L55 5L55 2ZM0 50L0 57L7 57L7 50ZM1 51L1 56L6 56L6 51ZM2 52L2 55L5 55L5 52Z" fill="#000000"/></g></g></svg>
