<?xml version="1.0" encoding="UTF-8"?>
<svg xmlns="http://www.w3.org/2000/svg" version="1.1" width="300" height="300" viewBox="0 0 300 300"><rect x="0" y="0" width="300" height="300" fill="#ffffff"/><g transform="scale(4.918)"><g transform="translate(2,2)"><path fill-rule="evenodd" d="M10 0L10 2L11 2L11 4L10 4L10 3L8 3L8 4L9 4L9 5L8 5L8 7L9 7L9 6L10 6L10 7L11 7L11 8L6 8L6 9L5 9L5 8L0 8L0 12L1 12L1 9L2 9L2 10L3 10L3 11L5 11L5 12L6 12L6 13L7 13L7 14L6 14L6 15L5 15L5 13L4 13L4 14L2 14L2 16L3 16L3 15L5 15L5 16L4 16L4 17L3 17L3 18L4 18L4 19L5 19L5 20L3 20L3 19L2 19L2 18L0 18L0 20L1 20L1 19L2 19L2 20L3 20L3 21L2 21L2 23L3 23L3 24L4 24L4 26L2 26L2 24L1 24L1 26L0 26L0 28L1 28L1 29L0 29L0 30L1 30L1 31L0 31L0 34L2 34L2 33L1 33L1 31L2 31L2 30L3 30L3 32L6 32L6 33L5 33L5 35L7 35L7 36L4 36L4 33L3 33L3 36L4 36L4 37L3 37L3 38L1 38L1 37L0 37L0 39L1 39L1 40L0 40L0 42L2 42L2 43L1 43L1 45L0 45L0 48L5 48L5 47L9 47L9 45L10 45L10 48L9 48L9 49L8 49L8 51L9 51L9 50L10 50L10 51L13 51L13 50L12 50L12 49L13 49L13 47L15 47L15 48L14 48L14 49L17 49L17 50L16 50L16 51L15 51L15 50L14 50L14 51L15 51L15 53L16 53L16 54L15 54L15 55L16 55L16 56L15 56L15 57L16 57L16 56L17 56L17 57L19 57L19 56L18 56L18 55L20 55L20 54L17 54L17 53L20 53L20 52L21 52L21 53L22 53L22 54L21 54L21 55L22 55L22 56L24 56L24 57L26 57L26 56L28 56L28 55L27 55L27 53L28 53L28 54L30 54L30 53L31 53L31 56L30 56L30 55L29 55L29 56L30 56L30 57L31 57L31 56L33 56L33 57L34 57L34 55L33 55L33 54L32 54L32 52L33 52L33 53L34 53L34 52L36 52L36 53L35 53L35 54L36 54L36 55L35 55L35 56L36 56L36 57L37 57L37 56L38 56L38 57L39 57L39 55L40 55L40 56L42 56L42 55L43 55L43 53L44 53L44 54L45 54L45 53L44 53L44 51L42 51L42 50L46 50L46 51L45 51L45 52L48 52L48 53L47 53L47 54L48 54L48 57L49 57L49 54L48 54L48 53L50 53L50 55L51 55L51 56L50 56L50 57L52 57L52 56L54 56L54 57L56 57L56 56L55 56L55 53L54 53L54 52L55 52L55 50L57 50L57 49L53 49L53 48L57 48L57 47L56 47L56 46L57 46L57 43L56 43L56 46L55 46L55 45L54 45L54 44L55 44L55 41L54 41L54 40L55 40L55 39L57 39L57 37L54 37L54 36L56 36L56 34L57 34L57 32L56 32L56 30L57 30L57 27L56 27L56 26L55 26L55 25L54 25L54 24L57 24L57 23L56 23L56 22L57 22L57 21L51 21L51 22L50 22L50 19L51 19L51 20L57 20L57 19L53 19L53 18L54 18L54 16L55 16L55 18L57 18L57 17L56 17L56 16L57 16L57 15L56 15L56 14L57 14L57 11L56 11L56 10L55 10L55 11L54 11L54 10L53 10L53 11L52 11L52 12L53 12L53 11L54 11L54 12L55 12L55 13L53 13L53 14L54 14L54 16L53 16L53 18L52 18L52 17L51 17L51 18L50 18L50 17L47 17L47 18L45 18L45 17L46 17L46 16L45 16L45 15L49 15L49 13L50 13L50 11L51 11L51 10L52 10L52 8L51 8L51 10L49 10L49 9L50 9L50 8L49 8L49 6L48 6L48 7L47 7L47 5L48 5L48 0L45 0L45 1L47 1L47 2L44 2L44 0L41 0L41 1L43 1L43 3L47 3L47 5L46 5L46 4L44 4L44 5L46 5L46 7L47 7L47 8L45 8L45 9L44 9L44 8L43 8L43 4L41 4L41 5L40 5L40 3L42 3L42 2L39 2L39 1L40 1L40 0L39 0L39 1L38 1L38 0L35 0L35 1L34 1L34 0L33 0L33 1L32 1L32 0L29 0L29 1L28 1L28 2L27 2L27 3L29 3L29 4L26 4L26 3L23 3L23 4L22 4L22 3L21 3L21 2L22 2L22 1L23 1L23 2L26 2L26 0L24 0L24 1L23 1L23 0L21 0L21 2L18 2L18 3L17 3L17 1L16 1L16 0L14 0L14 1L15 1L15 2L14 2L14 3L12 3L12 2L13 2L13 1L12 1L12 0ZM8 1L8 2L9 2L9 1ZM11 1L11 2L12 2L12 1ZM29 1L29 3L30 3L30 4L31 4L31 9L32 9L32 10L33 10L33 11L34 11L34 12L35 12L35 11L38 11L38 10L39 10L39 12L38 12L38 13L33 13L33 12L32 12L32 11L31 11L31 10L29 10L29 9L28 9L28 10L27 10L27 9L25 9L25 8L26 8L26 4L25 4L25 8L24 8L24 6L23 6L23 5L24 5L24 4L23 4L23 5L22 5L22 4L21 4L21 3L19 3L19 4L17 4L17 3L14 3L14 4L16 4L16 5L15 5L15 7L16 7L16 8L17 8L17 7L18 7L18 8L19 8L19 9L16 9L16 10L15 10L15 11L18 11L18 10L19 10L19 9L20 9L20 11L19 11L19 12L20 12L20 11L22 11L22 10L24 10L24 9L25 9L25 11L23 11L23 12L24 12L24 13L22 13L22 12L21 12L21 13L19 13L19 14L20 14L20 16L19 16L19 15L18 15L18 14L17 14L17 13L18 13L18 12L17 12L17 13L16 13L16 15L14 15L14 14L15 14L15 13L13 13L13 12L14 12L14 11L12 11L12 10L14 10L14 9L15 9L15 8L14 8L14 9L12 9L12 8L13 8L13 7L14 7L14 5L13 5L13 4L12 4L12 5L11 5L11 7L12 7L12 8L11 8L11 9L10 9L10 10L9 10L9 9L6 9L6 10L5 10L5 9L3 9L3 10L5 10L5 11L6 11L6 12L7 12L7 11L8 11L8 10L9 10L9 12L8 12L8 14L7 14L7 15L6 15L6 16L7 16L7 15L8 15L8 16L10 16L10 18L11 18L11 20L10 20L10 21L9 21L9 19L6 19L6 18L7 18L7 17L5 17L5 19L6 19L6 20L7 20L7 21L6 21L6 22L7 22L7 23L5 23L5 22L4 22L4 21L3 21L3 22L4 22L4 23L5 23L5 25L6 25L6 26L9 26L9 29L11 29L11 30L9 30L9 31L8 31L8 32L7 32L7 31L6 31L6 32L7 32L7 33L6 33L6 34L8 34L8 35L9 35L9 37L12 37L12 36L13 36L13 37L14 37L14 36L13 36L13 34L15 34L15 30L14 30L14 26L18 26L18 27L17 27L17 28L18 28L18 29L16 29L16 30L17 30L17 31L16 31L16 32L18 32L18 31L19 31L19 30L18 30L18 29L20 29L20 32L19 32L19 33L16 33L16 35L18 35L18 36L15 36L15 37L16 37L16 38L15 38L15 39L16 39L16 40L15 40L15 41L14 41L14 39L13 39L13 38L12 38L12 39L13 39L13 41L14 41L14 42L15 42L15 43L13 43L13 42L12 42L12 41L10 41L10 39L11 39L11 38L8 38L8 37L6 37L6 38L5 38L5 40L8 40L8 41L10 41L10 42L7 42L7 41L6 41L6 42L7 42L7 43L2 43L2 44L7 44L7 43L8 43L8 45L9 45L9 43L10 43L10 42L12 42L12 44L11 44L11 48L10 48L10 50L11 50L11 49L12 49L12 47L13 47L13 46L12 46L12 45L13 45L13 44L14 44L14 45L15 45L15 43L16 43L16 44L17 44L17 45L16 45L16 46L17 46L17 47L16 47L16 48L17 48L17 47L18 47L18 46L17 46L17 45L18 45L18 44L17 44L17 43L18 43L18 42L19 42L19 41L16 41L16 40L17 40L17 39L20 39L20 38L19 38L19 37L23 37L23 38L22 38L22 40L20 40L20 42L21 42L21 43L19 43L19 44L21 44L21 45L19 45L19 46L21 46L21 45L22 45L22 47L23 47L23 48L21 48L21 47L19 47L19 49L18 49L18 50L17 50L17 51L16 51L16 53L17 53L17 52L18 52L18 51L19 51L19 49L20 49L20 50L21 50L21 51L23 51L23 52L22 52L22 53L24 53L24 54L22 54L22 55L24 55L24 56L26 56L26 54L25 54L25 53L26 53L26 51L25 51L25 50L23 50L23 49L24 49L24 48L26 48L26 46L27 46L27 48L30 48L30 47L29 47L29 46L30 46L30 45L28 45L28 44L29 44L29 43L30 43L30 44L31 44L31 46L32 46L32 47L31 47L31 48L32 48L32 49L31 49L31 52L32 52L32 51L33 51L33 50L35 50L35 49L36 49L36 48L37 48L37 49L38 49L38 50L37 50L37 51L36 51L36 52L38 52L38 54L37 54L37 53L36 53L36 54L37 54L37 55L36 55L36 56L37 56L37 55L39 55L39 52L40 52L40 55L42 55L42 54L41 54L41 53L42 53L42 52L40 52L40 51L41 51L41 50L42 50L42 49L41 49L41 48L42 48L42 47L45 47L45 43L44 43L44 42L43 42L43 44L41 44L41 43L42 43L42 42L41 42L41 41L42 41L42 40L43 40L43 39L44 39L44 41L45 41L45 42L46 42L46 43L49 43L49 42L47 42L47 41L48 41L48 40L49 40L49 41L51 41L51 42L50 42L50 43L51 43L51 44L49 44L49 46L47 46L47 45L48 45L48 44L47 44L47 45L46 45L46 46L47 46L47 47L46 47L46 48L47 48L47 49L46 49L46 50L47 50L47 51L48 51L48 48L50 48L50 47L52 47L52 48L53 48L53 47L55 47L55 46L54 46L54 45L52 45L52 44L53 44L53 43L54 43L54 41L52 41L52 39L51 39L51 38L53 38L53 36L52 36L52 34L54 34L54 33L55 33L55 34L56 34L56 32L54 32L54 29L55 29L55 30L56 30L56 28L54 28L54 29L53 29L53 32L54 32L54 33L51 33L51 32L50 32L50 31L48 31L48 30L47 30L47 29L48 29L48 26L47 26L47 25L49 25L49 23L50 23L50 24L52 24L52 25L50 25L50 26L53 26L53 27L55 27L55 26L54 26L54 25L53 25L53 24L52 24L52 23L53 23L53 22L52 22L52 23L50 23L50 22L49 22L49 23L48 23L48 24L47 24L47 21L48 21L48 20L49 20L49 19L50 19L50 18L49 18L49 19L45 19L45 18L44 18L44 17L45 17L45 16L44 16L44 15L45 15L45 14L44 14L44 15L43 15L43 14L42 14L42 10L41 10L41 9L43 9L43 8L42 8L42 6L41 6L41 8L40 8L40 6L39 6L39 4L38 4L38 5L36 5L36 3L37 3L37 2L38 2L38 3L39 3L39 2L38 2L38 1L35 1L35 3L34 3L34 5L33 5L33 3L32 3L32 4L31 4L31 2L32 2L32 1ZM33 1L33 2L34 2L34 1ZM19 4L19 5L17 5L17 6L16 6L16 7L17 7L17 6L18 6L18 7L19 7L19 8L21 8L21 6L22 6L22 7L23 7L23 6L22 6L22 5L21 5L21 4ZM12 5L12 7L13 7L13 5ZM19 5L19 7L20 7L20 5ZM27 5L27 8L30 8L30 5ZM34 5L34 7L35 7L35 6L36 6L36 8L33 8L33 9L35 9L35 10L34 10L34 11L35 11L35 10L36 10L36 9L37 9L37 10L38 10L38 8L37 8L37 6L36 6L36 5ZM28 6L28 7L29 7L29 6ZM32 6L32 7L33 7L33 6ZM38 6L38 7L39 7L39 6ZM44 6L44 7L45 7L45 6ZM23 8L23 9L24 9L24 8ZM39 8L39 10L40 10L40 8ZM48 8L48 9L45 9L45 10L44 10L44 11L43 11L43 12L44 12L44 13L45 13L45 12L46 12L46 14L47 14L47 13L49 13L49 12L47 12L47 10L48 10L48 9L49 9L49 8ZM53 8L53 9L54 9L54 8ZM55 8L55 9L56 9L56 8ZM11 9L11 10L12 10L12 9ZM21 9L21 10L22 10L22 9ZM6 10L6 11L7 11L7 10ZM26 10L26 11L27 11L27 12L25 12L25 13L24 13L24 14L25 14L25 13L28 13L28 14L26 14L26 15L27 15L27 16L25 16L25 15L24 15L24 17L23 17L23 18L24 18L24 19L23 19L23 20L24 20L24 21L22 21L22 19L21 19L21 18L22 18L22 17L21 17L21 16L22 16L22 13L21 13L21 16L20 16L20 17L21 17L21 18L20 18L20 19L21 19L21 21L22 21L22 22L21 22L21 24L24 24L24 23L23 23L23 22L24 22L24 21L25 21L25 22L26 22L26 23L25 23L25 24L29 24L29 26L27 26L27 25L26 25L26 26L25 26L25 25L23 25L23 26L25 26L25 27L24 27L24 28L23 28L23 29L24 29L24 30L23 30L23 31L24 31L24 32L23 32L23 34L22 34L22 33L21 33L21 32L20 32L20 33L21 33L21 34L20 34L20 35L19 35L19 34L18 34L18 35L19 35L19 36L18 36L18 37L17 37L17 38L18 38L18 37L19 37L19 36L22 36L22 35L23 35L23 37L24 37L24 38L23 38L23 39L24 39L24 40L23 40L23 41L21 41L21 42L22 42L22 43L21 43L21 44L22 44L22 45L24 45L24 46L23 46L23 47L25 47L25 45L26 45L26 44L27 44L27 43L26 43L26 44L25 44L25 45L24 45L24 44L23 44L23 42L24 42L24 43L25 43L25 41L24 41L24 40L25 40L25 39L26 39L26 40L28 40L28 41L29 41L29 42L30 42L30 43L31 43L31 44L34 44L34 43L35 43L35 45L37 45L37 42L38 42L38 41L37 41L37 40L38 40L38 39L39 39L39 40L40 40L40 38L38 38L38 37L40 37L40 36L41 36L41 39L42 39L42 38L43 38L43 37L44 37L44 38L45 38L45 39L46 39L46 38L45 38L45 37L44 37L44 35L45 35L45 36L46 36L46 37L47 37L47 36L49 36L49 37L50 37L50 36L51 36L51 35L48 35L48 33L47 33L47 34L44 34L44 35L42 35L42 34L43 34L43 33L44 33L44 32L45 32L45 33L46 33L46 32L45 32L45 31L44 31L44 30L43 30L43 29L44 29L44 28L45 28L45 30L46 30L46 31L47 31L47 32L48 32L48 31L47 31L47 30L46 30L46 29L47 29L47 28L46 28L46 27L47 27L47 26L45 26L45 27L44 27L44 24L45 24L45 25L46 25L46 22L45 22L45 21L44 21L44 24L43 24L43 23L42 23L42 22L43 22L43 21L42 21L42 20L45 20L45 19L42 19L42 18L43 18L43 17L44 17L44 16L43 16L43 15L42 15L42 14L41 14L41 15L40 15L40 16L39 16L39 18L37 18L37 17L38 17L38 16L36 16L36 15L39 15L39 14L33 14L33 13L32 13L32 12L31 12L31 13L32 13L32 15L31 15L31 14L30 14L30 13L28 13L28 12L30 12L30 11L27 11L27 10ZM10 11L10 13L9 13L9 14L10 14L10 13L12 13L12 11ZM40 11L40 12L41 12L41 11ZM44 11L44 12L45 12L45 11ZM55 11L55 12L56 12L56 11ZM51 13L51 14L50 14L50 15L51 15L51 14L52 14L52 13ZM55 13L55 14L56 14L56 13ZM0 14L0 17L1 17L1 14ZM29 14L29 15L28 15L28 16L27 16L27 17L28 17L28 16L29 16L29 17L32 17L32 18L29 18L29 20L27 20L27 19L28 19L28 18L26 18L26 17L25 17L25 18L26 18L26 20L25 20L25 21L28 21L28 22L29 22L29 24L30 24L30 23L31 23L31 22L29 22L29 20L30 20L30 21L31 21L31 20L30 20L30 19L33 19L33 18L35 18L35 20L32 20L32 21L33 21L33 22L35 22L35 23L33 23L33 24L32 24L32 25L31 25L31 28L32 28L32 29L31 29L31 30L32 30L32 31L31 31L31 32L32 32L32 38L31 38L31 36L30 36L30 38L31 38L31 39L29 39L29 35L30 35L30 34L29 34L29 33L30 33L30 31L28 31L28 32L29 32L29 33L26 33L26 32L27 32L27 31L25 31L25 34L24 34L24 36L25 36L25 34L26 34L26 35L27 35L27 37L28 37L28 38L27 38L27 39L28 39L28 40L29 40L29 41L30 41L30 40L31 40L31 41L32 41L32 42L33 42L33 43L34 43L34 42L35 42L35 43L36 43L36 42L37 42L37 41L36 41L36 40L37 40L37 39L38 39L38 38L37 38L37 37L36 37L36 36L37 36L37 35L35 35L35 37L33 37L33 34L36 34L36 32L37 32L37 34L39 34L39 33L38 33L38 32L40 32L40 33L41 33L41 34L40 34L40 35L38 35L38 36L40 36L40 35L41 35L41 36L42 36L42 37L43 37L43 36L42 36L42 35L41 35L41 34L42 34L42 33L43 33L43 32L44 32L44 31L43 31L43 30L42 30L42 29L43 29L43 28L42 28L42 26L41 26L41 24L40 24L40 23L41 23L41 22L42 22L42 21L41 21L41 20L42 20L42 19L41 19L41 18L42 18L42 17L41 17L41 16L42 16L42 15L41 15L41 16L40 16L40 17L41 17L41 18L39 18L39 19L38 19L38 21L36 21L36 20L37 20L37 18L36 18L36 16L35 16L35 15L33 15L33 16L30 16L30 14ZM10 15L10 16L11 16L11 17L12 17L12 19L13 19L13 20L14 20L14 19L13 19L13 18L15 18L15 21L16 21L16 22L15 22L15 23L16 23L16 25L18 25L18 26L19 26L19 27L22 27L22 26L20 26L20 24L18 24L18 23L20 23L20 22L18 22L18 21L20 21L20 20L19 20L19 18L16 18L16 17L19 17L19 16L17 16L17 15L16 15L16 17L14 17L14 16L13 16L13 15ZM12 16L12 17L13 17L13 16ZM33 16L33 17L34 17L34 16ZM8 17L8 18L9 18L9 17ZM16 19L16 21L18 21L18 19ZM40 19L40 20L39 20L39 22L36 22L36 24L35 24L35 26L36 26L36 28L35 28L35 27L34 27L34 26L33 26L33 25L32 25L32 26L33 26L33 27L34 27L34 28L33 28L33 29L35 29L35 30L33 30L33 31L32 31L32 32L33 32L33 33L34 33L34 32L33 32L33 31L35 31L35 32L36 32L36 31L35 31L35 30L37 30L37 32L38 32L38 31L40 31L40 32L43 32L43 31L42 31L42 30L41 30L41 29L40 29L40 30L37 30L37 29L38 29L38 27L39 27L39 28L40 28L40 26L38 26L38 24L37 24L37 23L40 23L40 22L41 22L41 21L40 21L40 20L41 20L41 19ZM11 20L11 21L10 21L10 22L8 22L8 24L6 24L6 25L9 25L9 26L11 26L11 27L10 27L10 28L12 28L12 29L13 29L13 27L12 27L12 26L11 26L11 25L13 25L13 26L14 26L14 25L15 25L15 24L14 24L14 23L13 23L13 22L14 22L14 21L12 21L12 20ZM0 21L0 23L1 23L1 21ZM11 21L11 22L12 22L12 21ZM54 22L54 23L55 23L55 22ZM10 23L10 24L9 24L9 25L10 25L10 24L11 24L11 23ZM13 24L13 25L14 25L14 24ZM42 24L42 25L43 25L43 24ZM36 25L36 26L37 26L37 25ZM1 27L1 28L2 28L2 29L3 29L3 28L2 28L2 27ZM5 27L5 30L8 30L8 27ZM25 27L25 28L24 28L24 29L25 29L25 30L26 30L26 27ZM27 27L27 30L30 30L30 27ZM49 27L49 30L52 30L52 27ZM6 28L6 29L7 29L7 28ZM20 28L20 29L22 29L22 28ZM28 28L28 29L29 29L29 28ZM50 28L50 29L51 29L51 28ZM13 30L13 32L14 32L14 30ZM21 30L21 31L22 31L22 30ZM9 31L9 32L8 32L8 33L9 33L9 34L10 34L10 31ZM11 32L11 34L12 34L12 32ZM50 33L50 34L51 34L51 33ZM0 35L0 36L2 36L2 35ZM10 35L10 36L12 36L12 35ZM46 35L46 36L47 36L47 35ZM25 37L25 38L26 38L26 37ZM3 38L3 39L2 39L2 40L1 40L1 41L3 41L3 42L5 42L5 41L4 41L4 38ZM6 38L6 39L7 39L7 38ZM33 38L33 39L32 39L32 40L33 40L33 39L34 39L34 40L36 40L36 39L37 39L37 38L36 38L36 39L35 39L35 38ZM48 38L48 39L49 39L49 40L50 40L50 38ZM53 39L53 40L54 40L54 39ZM46 40L46 41L47 41L47 40ZM26 41L26 42L27 42L27 41ZM33 41L33 42L34 42L34 41ZM56 41L56 42L57 42L57 41ZM39 42L39 44L38 44L38 45L39 45L39 46L37 46L37 48L38 48L38 49L39 49L39 50L38 50L38 52L39 52L39 51L40 51L40 48L41 48L41 47L42 47L42 46L44 46L44 44L43 44L43 45L42 45L42 46L41 46L41 45L39 45L39 44L40 44L40 43L41 43L41 42ZM1 45L1 47L2 47L2 45ZM5 45L5 46L3 46L3 47L5 47L5 46L7 46L7 45ZM27 45L27 46L28 46L28 45ZM50 45L50 46L49 46L49 47L50 47L50 46L52 46L52 45ZM33 46L33 47L32 47L32 48L33 48L33 49L32 49L32 50L33 50L33 49L34 49L34 48L33 48L33 47L35 47L35 48L36 48L36 47L35 47L35 46ZM39 46L39 47L38 47L38 48L40 48L40 46ZM6 48L6 49L7 49L7 48ZM43 48L43 49L45 49L45 48ZM21 49L21 50L22 50L22 49ZM27 49L27 52L30 52L30 49ZM49 49L49 52L52 52L52 49ZM28 50L28 51L29 51L29 50ZM50 50L50 51L51 51L51 50ZM53 50L53 51L54 51L54 50ZM24 51L24 53L25 53L25 51ZM56 51L56 52L57 52L57 51ZM8 52L8 57L10 57L10 55L11 55L11 54L9 54L9 53L10 53L10 52ZM12 52L12 53L13 53L13 52ZM12 54L12 55L14 55L14 54ZM51 54L51 55L54 55L54 54ZM11 56L11 57L14 57L14 56ZM20 56L20 57L21 57L21 56ZM43 56L43 57L44 57L44 56ZM45 56L45 57L46 57L46 56ZM0 0L0 7L7 7L7 0ZM1 1L1 6L6 6L6 1ZM2 2L2 5L5 5L5 2ZM50 0L50 7L57 7L57 0ZM51 1L51 6L56 6L56 1ZM52 2L52 5L55 5L55 2ZM0 50L0 57L7 57L7 50ZM1 51L1 56L6 56L6 51ZM2 52L2 55L5 55L5 52Z" fill="#000000"/></g></g></svg>
