<?xml version="1.0" encoding="UTF-8"?>
<svg xmlns="http://www.w3.org/2000/svg" version="1.1" width="300" height="300" viewBox="0 0 300 300"><rect x="0" y="0" width="300" height="300" fill="#ffffff"/><g transform="scale(4.918)"><g transform="translate(2,2)"><path fill-rule="evenodd" d="M9 0L9 1L8 1L8 2L9 2L9 1L10 1L10 0ZM12 0L12 1L15 1L15 2L16 2L16 0ZM21 0L21 2L20 2L20 3L18 3L18 4L20 4L20 3L21 3L21 2L22 2L22 1L23 1L23 2L24 2L24 4L21 4L21 6L20 6L20 5L19 5L19 6L18 6L18 8L17 8L17 4L16 4L16 3L15 3L15 4L14 4L14 2L12 2L12 3L11 3L11 4L13 4L13 5L15 5L15 6L14 6L14 7L13 7L13 6L12 6L12 5L10 5L10 4L9 4L9 3L8 3L8 4L9 4L9 5L8 5L8 7L9 7L9 8L6 8L6 9L5 9L5 8L0 8L0 9L1 9L1 11L0 11L0 12L1 12L1 13L0 13L0 14L1 14L1 15L0 15L0 16L1 16L1 17L0 17L0 21L1 21L1 20L2 20L2 21L3 21L3 22L4 22L4 23L2 23L2 25L3 25L3 24L4 24L4 23L7 23L7 24L5 24L5 25L4 25L4 26L3 26L3 27L2 27L2 26L1 26L1 25L0 25L0 26L1 26L1 27L0 27L0 28L3 28L3 30L4 30L4 31L3 31L3 32L1 32L1 31L0 31L0 33L2 33L2 34L1 34L1 36L0 36L0 37L2 37L2 38L1 38L1 39L0 39L0 41L1 41L1 40L2 40L2 42L0 42L0 43L1 43L1 44L0 44L0 48L5 48L5 47L7 47L7 48L6 48L6 49L8 49L8 51L10 51L10 50L13 50L13 52L12 52L12 51L11 51L11 52L12 52L12 53L14 53L14 57L16 57L16 55L15 55L15 54L16 54L16 53L14 53L14 52L15 52L15 51L17 51L17 53L19 53L19 54L18 54L18 55L19 55L19 56L17 56L17 57L19 57L19 56L21 56L21 55L24 55L24 56L23 56L23 57L26 57L26 56L28 56L28 55L26 55L26 56L25 56L25 54L27 54L27 53L28 53L28 54L29 54L29 55L30 55L30 56L29 56L29 57L31 57L31 56L32 56L32 55L33 55L33 56L34 56L34 55L35 55L35 57L39 57L39 56L42 56L42 57L44 57L44 55L42 55L42 54L43 54L43 53L44 53L44 54L45 54L45 55L46 55L46 54L45 54L45 53L47 53L47 52L48 52L48 54L47 54L47 56L45 56L45 57L49 57L49 56L50 56L50 55L51 55L51 57L52 57L52 56L55 56L55 57L56 57L56 56L55 56L55 53L53 53L53 48L55 48L55 50L57 50L57 49L56 49L56 48L55 48L55 47L56 47L56 46L57 46L57 44L56 44L56 45L54 45L54 44L55 44L55 43L56 43L56 42L57 42L57 41L54 41L54 43L53 43L53 42L51 42L51 41L52 41L52 40L55 40L55 39L57 39L57 37L56 37L56 38L55 38L55 39L53 39L53 38L52 38L52 37L54 37L54 36L55 36L55 35L54 35L54 36L53 36L53 34L52 34L52 37L48 37L48 39L50 39L50 40L51 40L51 41L48 41L48 42L46 42L46 43L45 43L45 42L44 42L44 43L45 43L45 46L44 46L44 44L43 44L43 43L41 43L41 42L43 42L43 41L44 41L44 40L45 40L45 41L46 41L46 40L47 40L47 39L46 39L46 38L45 38L45 37L47 37L47 36L48 36L48 33L47 33L47 34L46 34L46 31L47 31L47 32L48 32L48 31L49 31L49 32L51 32L51 33L53 33L53 32L55 32L55 33L54 33L54 34L57 34L57 33L56 33L56 30L57 30L57 29L54 29L54 28L56 28L56 25L57 25L57 23L56 23L56 22L57 22L57 21L55 21L55 23L53 23L53 22L52 22L52 23L51 23L51 22L50 22L50 19L51 19L51 20L52 20L52 19L51 19L51 18L49 18L49 17L50 17L50 11L51 11L51 10L53 10L53 11L52 11L52 12L53 12L53 11L54 11L54 12L55 12L55 13L53 13L53 14L54 14L54 15L52 15L52 16L55 16L55 15L56 15L56 16L57 16L57 15L56 15L56 14L57 14L57 13L56 13L56 12L57 12L57 11L56 11L56 10L55 10L55 11L54 11L54 10L53 10L53 9L54 9L54 8L53 8L53 9L52 9L52 8L51 8L51 10L49 10L49 9L50 9L50 8L49 8L49 6L48 6L48 7L47 7L47 5L48 5L48 0L42 0L42 1L41 1L41 0L40 0L40 1L38 1L38 0L35 0L35 1L34 1L34 0L30 0L30 1L29 1L29 0L28 0L28 1L26 1L26 0L24 0L24 1L23 1L23 0ZM18 1L18 2L19 2L19 1ZM25 1L25 2L26 2L26 1ZM30 1L30 2L29 2L29 3L28 3L28 2L27 2L27 3L28 3L28 4L29 4L29 3L30 3L30 4L31 4L31 8L33 8L33 7L34 7L34 8L35 8L35 9L33 9L33 11L31 11L31 10L32 10L32 9L31 9L31 10L30 10L30 11L29 11L29 10L28 10L28 11L29 11L29 12L28 12L28 13L25 13L25 12L27 12L27 11L26 11L26 10L27 10L27 9L26 9L26 6L25 6L25 4L26 4L26 3L25 3L25 4L24 4L24 5L23 5L23 7L22 7L22 6L21 6L21 7L20 7L20 6L19 6L19 8L21 8L21 9L17 9L17 8L16 8L16 6L15 6L15 8L14 8L14 10L13 10L13 9L11 9L11 7L12 7L12 8L13 8L13 7L12 7L12 6L11 6L11 7L10 7L10 6L9 6L9 7L10 7L10 9L9 9L9 10L10 10L10 9L11 9L11 10L12 10L12 12L10 12L10 11L9 11L9 12L10 12L10 13L14 13L14 14L11 14L11 16L10 16L10 15L9 15L9 16L10 16L10 18L11 18L11 19L10 19L10 20L9 20L9 18L8 18L8 21L10 21L10 20L12 20L12 19L13 19L13 20L14 20L14 19L13 19L13 18L15 18L15 19L16 19L16 20L15 20L15 21L12 21L12 24L11 24L11 26L9 26L9 28L11 28L11 32L10 32L10 31L8 31L8 33L6 33L6 34L7 34L7 35L5 35L5 34L3 34L3 39L2 39L2 40L3 40L3 42L4 42L4 44L5 44L5 45L4 45L4 46L3 46L3 47L5 47L5 46L7 46L7 45L6 45L6 44L7 44L7 43L6 43L6 42L9 42L9 40L10 40L10 41L11 41L11 44L10 44L10 43L8 43L8 49L9 49L9 50L10 50L10 49L9 49L9 48L12 48L12 49L13 49L13 50L14 50L14 49L15 49L15 50L17 50L17 51L18 51L18 52L19 52L19 53L21 53L21 54L22 54L22 53L23 53L23 54L24 54L24 53L23 53L23 52L24 52L24 51L23 51L23 50L21 50L21 49L24 49L24 47L25 47L25 48L27 48L27 47L28 47L28 48L30 48L30 47L29 47L29 45L30 45L30 46L31 46L31 48L32 48L32 49L31 49L31 52L32 52L32 54L35 54L35 55L36 55L36 54L35 54L35 53L33 53L33 52L36 52L36 50L37 50L37 52L40 52L40 55L41 55L41 52L40 52L40 51L41 51L41 50L42 50L42 51L43 51L43 50L44 50L44 53L45 53L45 51L46 51L46 52L47 52L47 51L48 51L48 48L49 48L49 47L51 47L51 48L53 48L53 47L51 47L51 46L53 46L53 45L50 45L50 44L49 44L49 43L48 43L48 44L47 44L47 45L46 45L46 46L47 46L47 47L45 47L45 48L44 48L44 46L42 46L42 45L43 45L43 44L41 44L41 43L40 43L40 44L38 44L38 43L36 43L36 42L34 42L34 41L33 41L33 42L34 42L34 44L32 44L32 43L29 43L29 45L28 45L28 43L26 43L26 42L30 42L30 41L26 41L26 42L25 42L25 43L23 43L23 42L22 42L22 43L21 43L21 41L24 41L24 40L25 40L25 39L26 39L26 38L28 38L28 37L29 37L29 36L30 36L30 38L31 38L31 39L29 39L29 40L34 40L34 39L35 39L35 38L36 38L36 36L37 36L37 37L38 37L38 38L37 38L37 39L36 39L36 40L35 40L35 41L36 41L36 40L37 40L37 41L38 41L38 42L40 42L40 41L41 41L41 39L42 39L42 38L41 38L41 36L42 36L42 37L43 37L43 40L42 40L42 41L43 41L43 40L44 40L44 39L45 39L45 38L44 38L44 37L45 37L45 35L46 35L46 36L47 36L47 35L46 35L46 34L44 34L44 33L45 33L45 32L44 32L44 31L46 31L46 30L47 30L47 31L48 31L48 29L46 29L46 30L45 30L45 28L44 28L44 27L45 27L45 26L47 26L47 27L46 27L46 28L47 28L47 27L48 27L48 26L47 26L47 25L49 25L49 26L51 26L51 25L52 25L52 26L53 26L53 27L55 27L55 26L54 26L54 24L51 24L51 23L50 23L50 22L48 22L48 23L50 23L50 24L46 24L46 25L45 25L45 24L44 24L44 21L45 21L45 23L47 23L47 21L49 21L49 19L46 19L46 18L47 18L47 17L49 17L49 15L47 15L47 16L43 16L43 17L46 17L46 18L41 18L41 17L42 17L42 16L40 16L40 15L41 15L41 14L42 14L42 15L44 15L44 14L45 14L45 12L46 12L46 14L47 14L47 13L49 13L49 12L47 12L47 11L48 11L48 9L49 9L49 8L48 8L48 9L47 9L47 8L46 8L46 6L45 6L45 5L47 5L47 3L40 3L40 4L39 4L39 2L38 2L38 1L37 1L37 2L35 2L35 3L34 3L34 4L33 4L33 3L32 3L32 4L31 4L31 2L34 2L34 1ZM40 1L40 2L41 2L41 1ZM42 1L42 2L43 2L43 1ZM44 1L44 2L47 2L47 1ZM37 2L37 3L36 3L36 5L33 5L33 6L32 6L32 7L33 7L33 6L34 6L34 7L35 7L35 6L36 6L36 7L37 7L37 8L36 8L36 9L35 9L35 10L34 10L34 11L33 11L33 13L32 13L32 12L31 12L31 11L30 11L30 12L29 12L29 13L28 13L28 14L26 14L26 15L30 15L30 16L36 16L36 17L37 17L37 16L38 16L38 15L39 15L39 14L37 14L37 13L38 13L38 12L39 12L39 13L40 13L40 12L41 12L41 11L40 11L40 12L39 12L39 10L40 10L40 9L39 9L39 8L40 8L40 7L41 7L41 8L43 8L43 9L41 9L41 10L42 10L42 14L43 14L43 13L44 13L44 11L43 11L43 10L44 10L44 8L45 8L45 9L46 9L46 8L45 8L45 6L44 6L44 8L43 8L43 6L42 6L42 5L43 5L43 4L42 4L42 5L41 5L41 4L40 4L40 5L41 5L41 6L40 6L40 7L39 7L39 5L38 5L38 2ZM15 4L15 5L16 5L16 4ZM44 4L44 5L45 5L45 4ZM27 5L27 8L30 8L30 5ZM36 5L36 6L37 6L37 7L38 7L38 8L37 8L37 9L38 9L38 10L36 10L36 12L37 12L37 11L38 11L38 10L39 10L39 9L38 9L38 8L39 8L39 7L38 7L38 6L37 6L37 5ZM24 6L24 7L23 7L23 9L21 9L21 10L20 10L20 11L19 11L19 12L20 12L20 13L22 13L22 12L20 12L20 11L22 11L22 10L23 10L23 11L24 11L24 10L25 10L25 9L24 9L24 7L25 7L25 6ZM28 6L28 7L29 7L29 6ZM41 6L41 7L42 7L42 6ZM55 8L55 9L56 9L56 8ZM4 9L4 10L2 10L2 11L1 11L1 12L2 12L2 13L1 13L1 14L3 14L3 13L4 13L4 14L5 14L5 15L1 15L1 16L3 16L3 17L1 17L1 18L2 18L2 19L3 19L3 21L4 21L4 22L5 22L5 21L4 21L4 20L5 20L5 19L3 19L3 17L4 17L4 18L5 18L5 17L6 17L6 18L7 18L7 17L8 17L8 16L7 16L7 15L6 15L6 14L7 14L7 13L8 13L8 12L7 12L7 11L8 11L8 9L6 9L6 10L5 10L5 9ZM6 10L6 11L4 11L4 12L6 12L6 13L7 13L7 12L6 12L6 11L7 11L7 10ZM17 10L17 11L18 11L18 10ZM2 11L2 12L3 12L3 11ZM13 11L13 12L14 12L14 11ZM34 11L34 12L35 12L35 11ZM15 12L15 13L18 13L18 15L21 15L21 16L20 16L20 17L19 17L19 16L18 16L18 17L17 17L17 14L14 14L14 15L16 15L16 16L15 16L15 17L17 17L17 19L18 19L18 21L19 21L19 22L20 22L20 23L19 23L19 24L18 24L18 23L17 23L17 25L18 25L18 27L17 27L17 26L16 26L16 27L15 27L15 26L14 26L14 24L15 24L15 25L16 25L16 23L15 23L15 22L16 22L16 21L15 21L15 22L13 22L13 24L12 24L12 25L13 25L13 27L12 27L12 26L11 26L11 28L13 28L13 29L14 29L14 27L15 27L15 29L17 29L17 30L16 30L16 31L17 31L17 30L19 30L19 32L18 32L18 33L19 33L19 34L18 34L18 35L20 35L20 33L21 33L21 36L22 36L22 34L23 34L23 36L24 36L24 37L21 37L21 39L22 39L22 38L24 38L24 37L26 37L26 36L27 36L27 37L28 37L28 36L27 36L27 35L26 35L26 34L27 34L27 33L30 33L30 31L31 31L31 32L33 32L33 33L32 33L32 34L33 34L33 35L35 35L35 34L36 34L36 35L38 35L38 37L39 37L39 38L38 38L38 39L37 39L37 40L39 40L39 38L40 38L40 36L41 36L41 35L40 35L40 36L39 36L39 34L37 34L37 32L33 32L33 31L40 31L40 32L39 32L39 33L40 33L40 32L42 32L42 33L41 33L41 34L43 34L43 33L44 33L44 32L43 32L43 31L42 31L42 30L44 30L44 28L43 28L43 27L42 27L42 26L45 26L45 25L44 25L44 24L43 24L43 23L42 23L42 24L41 24L41 23L40 23L40 20L41 20L41 22L43 22L43 21L42 21L42 20L45 20L45 21L47 21L47 20L45 20L45 19L42 19L42 20L41 20L41 18L40 18L40 16L39 16L39 18L36 18L36 19L37 19L37 20L36 20L36 21L37 21L37 22L36 22L36 23L35 23L35 22L33 22L33 21L32 21L32 20L34 20L34 21L35 21L35 20L34 20L34 19L35 19L35 18L33 18L33 17L29 17L29 18L31 18L31 19L30 19L30 20L29 20L29 21L28 21L28 22L31 22L31 23L27 23L27 24L29 24L29 25L30 25L30 26L28 26L28 25L26 25L26 24L25 24L25 23L26 23L26 22L25 22L25 21L27 21L27 20L28 20L28 18L26 18L26 17L28 17L28 16L25 16L25 13L23 13L23 15L22 15L22 14L19 14L19 13L18 13L18 12ZM29 13L29 14L30 14L30 13ZM33 13L33 14L31 14L31 15L33 15L33 14L35 14L35 15L36 15L36 16L37 16L37 15L36 15L36 14L35 14L35 13ZM51 13L51 14L52 14L52 13ZM55 13L55 14L56 14L56 13ZM12 15L12 17L11 17L11 18L13 18L13 17L14 17L14 16L13 16L13 15ZM4 16L4 17L5 17L5 16ZM6 16L6 17L7 17L7 16ZM22 16L22 17L24 17L24 16ZM18 17L18 19L19 19L19 21L21 21L21 22L22 22L22 21L23 21L23 22L24 22L24 21L23 21L23 20L27 20L27 19L25 19L25 18L24 18L24 19L23 19L23 18L22 18L22 19L19 19L19 17ZM20 17L20 18L21 18L21 17ZM53 17L53 19L54 19L54 20L55 20L55 18L57 18L57 17ZM32 18L32 19L33 19L33 18ZM6 19L6 20L7 20L7 19ZM22 19L22 20L21 20L21 21L22 21L22 20L23 20L23 19ZM38 19L38 20L37 20L37 21L38 21L38 22L37 22L37 23L36 23L36 24L34 24L34 23L32 23L32 24L31 24L31 25L32 25L32 26L31 26L31 27L32 27L32 29L31 29L31 30L35 30L35 29L33 29L33 28L34 28L34 27L35 27L35 25L36 25L36 24L37 24L37 25L38 25L38 26L36 26L36 27L37 27L37 28L38 28L38 29L37 29L37 30L39 30L39 29L41 29L41 30L40 30L40 31L41 31L41 30L42 30L42 29L43 29L43 28L42 28L42 27L40 27L40 28L39 28L39 27L38 27L38 26L39 26L39 25L40 25L40 26L41 26L41 24L39 24L39 25L38 25L38 23L39 23L39 20L40 20L40 19ZM6 21L6 22L7 22L7 23L8 23L8 25L10 25L10 24L9 24L9 22L7 22L7 21ZM10 22L10 23L11 23L11 22ZM0 23L0 24L1 24L1 23ZM22 23L22 24L21 24L21 25L20 25L20 24L19 24L19 25L20 25L20 26L21 26L21 27L19 27L19 28L21 28L21 29L19 29L19 30L20 30L20 32L21 32L21 31L22 31L22 33L24 33L24 32L23 32L23 31L22 31L22 30L23 30L23 29L25 29L25 30L26 30L26 27L24 27L24 28L23 28L23 29L22 29L22 28L21 28L21 27L22 27L22 26L24 26L24 25L25 25L25 26L26 26L26 25L25 25L25 24L24 24L24 23ZM55 23L55 24L56 24L56 23ZM50 24L50 25L51 25L51 24ZM5 25L5 26L7 26L7 25ZM21 25L21 26L22 26L22 25ZM33 25L33 27L34 27L34 25ZM3 27L3 28L4 28L4 27ZM5 27L5 30L8 30L8 27ZM16 27L16 28L17 28L17 29L18 29L18 28L17 28L17 27ZM27 27L27 30L30 30L30 27ZM49 27L49 30L52 30L52 27ZM6 28L6 29L7 29L7 28ZM28 28L28 29L29 29L29 28ZM50 28L50 29L51 29L51 28ZM0 29L0 30L1 30L1 29ZM9 29L9 30L10 30L10 29ZM21 29L21 30L22 30L22 29ZM53 29L53 30L54 30L54 31L55 31L55 30L54 30L54 29ZM12 30L12 32L13 32L13 33L10 33L10 32L9 32L9 34L10 34L10 35L11 35L11 36L9 36L9 35L8 35L8 36L9 36L9 37L7 37L7 36L6 36L6 37L5 37L5 35L4 35L4 37L5 37L5 39L3 39L3 40L4 40L4 42L6 42L6 41L8 41L8 40L6 40L6 39L8 39L8 38L9 38L9 39L10 39L10 40L12 40L12 42L14 42L14 43L16 43L16 44L13 44L13 43L12 43L12 45L11 45L11 46L12 46L12 48L15 48L15 49L17 49L17 50L18 50L18 51L19 51L19 50L20 50L20 49L21 49L21 48L23 48L23 47L22 47L22 46L19 46L19 45L22 45L22 44L19 44L19 45L18 45L18 44L17 44L17 43L18 43L18 41L19 41L19 43L20 43L20 40L18 40L18 37L20 37L20 36L17 36L17 37L16 37L16 36L15 36L15 37L13 37L13 36L12 36L12 35L11 35L11 34L13 34L13 35L15 35L15 33L17 33L17 32L15 32L15 31L13 31L13 30ZM6 31L6 32L7 32L7 31ZM25 31L25 34L24 34L24 36L26 36L26 35L25 35L25 34L26 34L26 33L27 33L27 31ZM51 31L51 32L53 32L53 31ZM3 32L3 33L4 33L4 32ZM14 32L14 33L15 33L15 32ZM33 33L33 34L35 34L35 33ZM49 33L49 35L50 35L50 33ZM29 34L29 35L30 35L30 36L31 36L31 38L32 38L32 35L30 35L30 34ZM43 35L43 37L44 37L44 35ZM11 36L11 37L12 37L12 38L13 38L13 41L14 41L14 39L15 39L15 42L17 42L17 41L18 41L18 40L16 40L16 39L15 39L15 38L16 38L16 37L15 37L15 38L13 38L13 37L12 37L12 36ZM33 36L33 37L34 37L34 36ZM6 37L6 38L7 38L7 37ZM19 38L19 39L20 39L20 38ZM50 38L50 39L51 39L51 38ZM23 39L23 40L24 40L24 39ZM27 39L27 40L28 40L28 39ZM31 41L31 42L32 42L32 41ZM50 42L50 43L51 43L51 42ZM5 43L5 44L6 44L6 43ZM52 43L52 44L53 44L53 43ZM2 44L2 45L3 45L3 44ZM23 44L23 45L24 45L24 46L25 46L25 45L26 45L26 44L25 44L25 45L24 45L24 44ZM30 44L30 45L31 45L31 46L32 46L32 48L33 48L33 50L34 50L34 51L35 51L35 50L36 50L36 49L37 49L37 50L38 50L38 51L39 51L39 50L38 50L38 48L43 48L43 49L42 49L42 50L43 50L43 49L44 49L44 50L46 50L46 51L47 51L47 50L46 50L46 49L47 49L47 48L45 48L45 49L44 49L44 48L43 48L43 47L42 47L42 46L41 46L41 45L39 45L39 46L36 46L36 47L35 47L35 46L33 46L33 45L32 45L32 44ZM35 44L35 45L38 45L38 44ZM48 44L48 45L47 45L47 46L50 46L50 45L49 45L49 44ZM12 45L12 46L13 46L13 45ZM14 45L14 46L15 46L15 47L17 47L17 49L18 49L18 50L19 50L19 49L20 49L20 48L21 48L21 47L18 47L18 45ZM27 45L27 46L26 46L26 47L27 47L27 46L28 46L28 45ZM1 46L1 47L2 47L2 46ZM40 46L40 47L41 47L41 46ZM33 47L33 48L34 48L34 50L35 50L35 49L36 49L36 48L38 48L38 47L36 47L36 48L35 48L35 47ZM18 48L18 49L19 49L19 48ZM25 49L25 53L26 53L26 49ZM27 49L27 52L30 52L30 49ZM49 49L49 52L52 52L52 49ZM28 50L28 51L29 51L29 50ZM50 50L50 51L51 51L51 50ZM20 51L20 52L21 52L21 53L22 53L22 52L21 52L21 51ZM32 51L32 52L33 52L33 51ZM54 51L54 52L55 52L55 51ZM8 52L8 57L9 57L9 56L13 56L13 54L12 54L12 55L10 55L10 54L11 54L11 53L10 53L10 52ZM42 52L42 53L43 53L43 52ZM56 52L56 53L57 53L57 52ZM29 53L29 54L30 54L30 53ZM37 53L37 54L39 54L39 53ZM49 53L49 54L51 54L51 55L53 55L53 54L51 54L51 53ZM19 54L19 55L20 55L20 54ZM37 55L37 56L39 56L39 55ZM48 55L48 56L49 56L49 55ZM0 0L0 7L7 7L7 0ZM1 1L1 6L6 6L6 1ZM2 2L2 5L5 5L5 2ZM50 0L50 7L57 7L57 0ZM51 1L51 6L56 6L56 1ZM52 2L52 5L55 5L55 2ZM0 50L0 57L7 57L7 50ZM1 51L1 56L6 56L6 51ZM2 52L2 55L5 55L5 52Z" fill="#000000"/></g></g></svg>
