<?xml version="1.0" encoding="UTF-8"?>
<svg xmlns="http://www.w3.org/2000/svg" version="1.1" width="300" height="300" viewBox="0 0 300 300"><rect x="0" y="0" width="300" height="300" fill="#ffffff"/><g transform="scale(4.918)"><g transform="translate(2,2)"><path fill-rule="evenodd" d="M9 0L9 1L8 1L8 2L9 2L9 3L8 3L8 4L10 4L10 5L8 5L8 7L9 7L9 6L10 6L10 7L11 7L11 6L12 6L12 7L13 7L13 9L12 9L12 8L6 8L6 9L5 9L5 8L0 8L0 12L1 12L1 13L0 13L0 15L1 15L1 14L2 14L2 17L1 17L1 16L0 16L0 19L1 19L1 18L2 18L2 20L1 20L1 22L2 22L2 20L4 20L4 21L7 21L7 20L9 20L9 21L8 21L8 22L6 22L6 23L7 23L7 24L6 24L6 25L5 25L5 26L4 26L4 25L3 25L3 26L4 26L4 27L2 27L2 23L0 23L0 25L1 25L1 27L0 27L0 29L1 29L1 30L0 30L0 31L1 31L1 30L2 30L2 31L3 31L3 32L4 32L4 31L7 31L7 32L6 32L6 33L7 33L7 34L6 34L6 35L7 35L7 36L6 36L6 37L7 37L7 36L8 36L8 35L7 35L7 34L10 34L10 32L9 32L9 31L10 31L10 30L12 30L12 31L11 31L11 36L10 36L10 39L11 39L11 42L12 42L12 41L14 41L14 42L15 42L15 46L13 46L13 48L12 48L12 46L11 46L11 47L10 47L10 46L9 46L9 45L10 45L10 44L11 44L11 45L13 45L13 44L14 44L14 43L13 43L13 44L11 44L11 43L10 43L10 42L8 42L8 43L7 43L7 42L6 42L6 41L7 41L7 40L4 40L4 39L5 39L5 36L4 36L4 37L3 37L3 35L2 35L2 38L1 38L1 40L4 40L4 41L1 41L1 42L3 42L3 43L2 43L2 45L1 45L1 46L0 46L0 48L5 48L5 47L7 47L7 46L5 46L5 47L3 47L3 44L4 44L4 45L8 45L8 46L9 46L9 48L8 48L8 51L9 51L9 52L8 52L8 57L9 57L9 56L10 56L10 57L11 57L11 56L12 56L12 57L13 57L13 56L12 56L12 54L13 54L13 55L14 55L14 56L15 56L15 55L16 55L16 57L19 57L19 55L20 55L20 54L19 54L19 55L17 55L17 53L16 53L16 52L18 52L18 53L20 53L20 52L21 52L21 53L22 53L22 54L21 54L21 56L23 56L23 57L26 57L26 56L28 56L28 55L27 55L27 53L28 53L28 54L30 54L30 53L31 53L31 56L30 56L30 55L29 55L29 56L30 56L30 57L31 57L31 56L33 56L33 55L34 55L34 56L36 56L36 57L38 57L38 56L36 56L36 55L40 55L40 56L39 56L39 57L40 57L40 56L41 56L41 57L44 57L44 56L45 56L45 57L49 57L49 56L50 56L50 55L51 55L51 57L52 57L52 56L53 56L53 57L56 57L56 56L55 56L55 55L51 55L51 54L53 54L53 53L54 53L54 52L55 52L55 50L57 50L57 48L56 48L56 46L57 46L57 45L56 45L56 46L55 46L55 45L54 45L54 44L57 44L57 43L56 43L56 42L57 42L57 41L56 41L56 42L55 42L55 39L57 39L57 37L56 37L56 36L55 36L55 35L56 35L56 34L57 34L57 33L56 33L56 32L57 32L57 31L56 31L56 30L57 30L57 28L56 28L56 25L54 25L54 26L55 26L55 27L53 27L53 25L52 25L52 24L57 24L57 23L56 23L56 22L57 22L57 21L54 21L54 20L56 20L56 19L55 19L55 18L57 18L57 15L56 15L56 14L57 14L57 13L56 13L56 14L55 14L55 13L53 13L53 14L55 14L55 15L54 15L54 16L53 16L53 15L51 15L51 14L52 14L52 13L51 13L51 12L50 12L50 13L51 13L51 14L49 14L49 13L47 13L47 14L46 14L46 12L45 12L45 11L44 11L44 12L43 12L43 11L42 11L42 14L41 14L41 15L40 15L40 16L35 16L35 14L33 14L33 13L36 13L36 14L38 14L38 12L40 12L40 10L43 10L43 9L44 9L44 10L46 10L46 11L47 11L47 10L46 10L46 9L48 9L48 11L49 11L49 10L50 10L50 11L51 11L51 10L53 10L53 11L52 11L52 12L53 12L53 11L54 11L54 12L56 12L56 10L57 10L57 9L56 9L56 8L55 8L55 11L54 11L54 10L53 10L53 9L54 9L54 8L53 8L53 9L52 9L52 8L51 8L51 10L50 10L50 8L49 8L49 6L48 6L48 8L46 8L46 9L44 9L44 8L45 8L45 6L46 6L46 7L47 7L47 5L48 5L48 0L45 0L45 1L44 1L44 2L42 2L42 1L43 1L43 0L42 0L42 1L41 1L41 0L39 0L39 1L36 1L36 0L35 0L35 1L34 1L34 0L32 0L32 1L34 1L34 2L31 2L31 3L30 3L30 4L26 4L26 3L25 3L25 1L26 1L26 0L23 0L23 1L22 1L22 0L21 0L21 1L20 1L20 0L19 0L19 1L16 1L16 0L12 0L12 1L15 1L15 2L12 2L12 3L10 3L10 2L11 2L11 0ZM27 0L27 1L29 1L29 2L27 2L27 3L29 3L29 2L30 2L30 1L31 1L31 0L30 0L30 1L29 1L29 0ZM9 1L9 2L10 2L10 1ZM19 1L19 2L16 2L16 3L14 3L14 4L13 4L13 3L12 3L12 4L13 4L13 5L14 5L14 6L13 6L13 7L14 7L14 6L15 6L15 7L16 7L16 8L17 8L17 7L18 7L18 5L19 5L19 7L20 7L20 5L19 5L19 4L23 4L23 5L24 5L24 4L23 4L23 3L24 3L24 2L20 2L20 1ZM35 1L35 2L34 2L34 4L33 4L33 3L32 3L32 4L31 4L31 9L32 9L32 10L34 10L34 12L35 12L35 11L36 11L36 12L37 12L37 9L38 9L38 11L39 11L39 10L40 10L40 9L41 9L41 8L44 8L44 6L45 6L45 5L44 5L44 4L46 4L46 5L47 5L47 3L42 3L42 2L41 2L41 1L39 1L39 2L41 2L41 3L40 3L40 4L39 4L39 3L38 3L38 2L36 2L36 1ZM45 1L45 2L47 2L47 1ZM18 3L18 4L17 4L17 5L18 5L18 4L19 4L19 3ZM36 3L36 5L35 5L35 6L34 6L34 8L35 8L35 10L36 10L36 9L37 9L37 8L38 8L38 9L39 9L39 8L38 8L38 7L39 7L39 6L38 6L38 3ZM41 3L41 4L40 4L40 5L41 5L41 6L40 6L40 8L41 8L41 6L42 6L42 7L43 7L43 6L42 6L42 5L43 5L43 4L42 4L42 3ZM14 4L14 5L16 5L16 4ZM25 4L25 8L24 8L24 6L23 6L23 8L19 8L19 9L15 9L15 8L14 8L14 9L13 9L13 10L12 10L12 11L11 11L11 12L12 12L12 13L9 13L9 11L10 11L10 10L11 10L11 9L9 9L9 11L8 11L8 10L7 10L7 9L6 9L6 10L7 10L7 11L6 11L6 12L5 12L5 13L4 13L4 14L5 14L5 17L6 17L6 18L3 18L3 19L6 19L6 20L7 20L7 19L6 19L6 18L7 18L7 17L6 17L6 16L8 16L8 18L9 18L9 15L10 15L10 14L12 14L12 17L13 17L13 16L14 16L14 17L15 17L15 16L14 16L14 15L13 15L13 14L17 14L17 15L16 15L16 16L18 16L18 15L20 15L20 16L19 16L19 17L16 17L16 18L19 18L19 19L17 19L17 20L16 20L16 21L15 21L15 18L11 18L11 16L10 16L10 20L11 20L11 21L9 21L9 22L11 22L11 25L12 25L12 26L11 26L11 27L12 27L12 26L14 26L14 28L13 28L13 29L12 29L12 30L14 30L14 31L12 31L12 33L13 33L13 34L12 34L12 36L13 36L13 35L14 35L14 37L13 37L13 38L11 38L11 39L12 39L12 40L13 40L13 38L15 38L15 39L14 39L14 40L15 40L15 42L16 42L16 43L18 43L18 42L19 42L19 44L20 44L20 43L22 43L22 41L23 41L23 43L24 43L24 44L23 44L23 45L22 45L22 44L21 44L21 45L19 45L19 47L18 47L18 46L17 46L17 45L18 45L18 44L17 44L17 45L16 45L16 46L17 46L17 47L16 47L16 48L17 48L17 47L18 47L18 48L19 48L19 49L16 49L16 51L18 51L18 50L21 50L21 49L22 49L22 50L23 50L23 51L21 51L21 52L22 52L22 53L24 53L24 54L23 54L23 55L24 55L24 56L25 56L25 53L26 53L26 50L23 50L23 48L25 48L25 49L26 49L26 48L29 48L29 47L30 47L30 48L32 48L32 49L31 49L31 52L32 52L32 54L34 54L34 55L35 55L35 54L37 54L37 53L38 53L38 54L39 54L39 52L40 52L40 55L42 55L42 56L44 56L44 55L45 55L45 56L49 56L49 55L50 55L50 54L51 54L51 53L49 53L49 55L47 55L47 54L48 54L48 52L47 52L47 51L48 51L48 48L49 48L49 47L51 47L51 46L54 46L54 47L55 47L55 46L54 46L54 45L51 45L51 44L49 44L49 46L47 46L47 45L48 45L48 44L47 44L47 45L46 45L46 46L47 46L47 48L46 48L46 50L42 50L42 48L44 48L44 49L45 49L45 48L44 48L44 47L45 47L45 43L47 43L47 42L48 42L48 43L49 43L49 41L51 41L51 42L50 42L50 43L51 43L51 42L53 42L53 43L52 43L52 44L53 44L53 43L54 43L54 41L51 41L51 40L53 40L53 39L54 39L54 38L55 38L55 36L54 36L54 38L53 38L53 37L52 37L52 34L53 34L53 35L54 35L54 34L53 34L53 33L55 33L55 34L56 34L56 33L55 33L55 32L53 32L53 31L55 31L55 30L56 30L56 29L55 29L55 28L54 28L54 29L53 29L53 31L51 31L51 32L53 32L53 33L51 33L51 34L50 34L50 32L49 32L49 31L48 31L48 28L47 28L47 26L48 26L48 25L49 25L49 26L51 26L51 24L52 24L52 23L55 23L55 22L54 22L54 21L53 21L53 20L52 20L52 21L51 21L51 18L54 18L54 17L55 17L55 16L56 16L56 15L55 15L55 16L54 16L54 17L53 17L53 16L51 16L51 15L50 15L50 16L49 16L49 15L45 15L45 14L44 14L44 15L45 15L45 16L43 16L43 18L42 18L42 17L41 17L41 16L40 16L40 18L42 18L42 19L41 19L41 20L40 20L40 19L38 19L38 20L37 20L37 19L35 19L35 20L32 20L32 21L34 21L34 22L35 22L35 23L33 23L33 24L32 24L32 25L31 25L31 28L32 28L32 29L33 29L33 30L31 30L31 31L30 31L30 32L29 32L29 31L28 31L28 32L29 32L29 33L25 33L25 34L23 34L23 33L24 33L24 32L21 32L21 31L22 31L22 30L23 30L23 31L25 31L25 32L27 32L27 31L25 31L25 30L26 30L26 27L25 27L25 26L26 26L26 25L27 25L27 26L28 26L28 25L29 25L29 24L28 24L28 23L29 23L29 22L30 22L30 23L31 23L31 22L30 22L30 21L29 21L29 19L34 19L34 18L36 18L36 17L35 17L35 16L34 16L34 18L29 18L29 19L28 19L28 18L27 18L27 17L28 17L28 16L29 16L29 17L33 17L33 16L30 16L30 14L31 14L31 15L32 15L32 14L31 14L31 10L30 10L30 12L28 12L28 13L25 13L25 12L27 12L27 11L26 11L26 10L27 10L27 9L25 9L25 8L26 8L26 4ZM10 5L10 6L11 6L11 5ZM27 5L27 8L30 8L30 5ZM36 5L36 6L35 6L35 8L37 8L37 7L38 7L38 6L37 6L37 5ZM16 6L16 7L17 7L17 6ZM21 6L21 7L22 7L22 6ZM28 6L28 7L29 7L29 6ZM32 6L32 7L33 7L33 6ZM36 6L36 7L37 7L37 6ZM23 8L23 10L22 10L22 11L21 11L21 10L20 10L20 9L19 9L19 10L18 10L18 11L17 11L17 10L16 10L16 11L17 11L17 12L16 12L16 13L17 13L17 14L20 14L20 15L21 15L21 16L20 16L20 17L21 17L21 19L19 19L19 20L18 20L18 21L16 21L16 22L14 22L14 21L12 21L12 22L13 22L13 23L14 23L14 24L12 24L12 25L14 25L14 24L15 24L15 23L16 23L16 25L15 25L15 26L16 26L16 27L15 27L15 29L14 29L14 30L15 30L15 31L16 31L16 33L15 33L15 32L13 32L13 33L15 33L15 34L14 34L14 35L15 35L15 36L16 36L16 35L18 35L18 36L17 36L17 37L19 37L19 38L18 38L18 39L19 39L19 40L17 40L17 41L19 41L19 42L20 42L20 41L21 41L21 40L22 40L22 39L24 39L24 40L25 40L25 39L27 39L27 40L28 40L28 41L29 41L29 42L28 42L28 43L29 43L29 44L28 44L28 45L27 45L27 46L26 46L26 47L27 47L27 46L28 46L28 45L29 45L29 46L30 46L30 47L32 47L32 48L33 48L33 47L35 47L35 46L32 46L32 45L31 45L31 44L34 44L34 43L35 43L35 45L37 45L37 46L38 46L38 45L37 45L37 43L40 43L40 42L42 42L42 43L41 43L41 44L43 44L43 45L42 45L42 46L41 46L41 45L39 45L39 46L41 46L41 47L40 47L40 48L35 48L35 50L33 50L33 49L32 49L32 50L33 50L33 51L32 51L32 52L34 52L34 51L35 51L35 50L36 50L36 52L35 52L35 53L37 53L37 51L38 51L38 52L39 52L39 50L37 50L37 49L40 49L40 50L41 50L41 51L40 51L40 52L42 52L42 53L41 53L41 54L43 54L43 53L44 53L44 54L45 54L45 53L44 53L44 51L42 51L42 50L41 50L41 49L40 49L40 48L41 48L41 47L42 47L42 46L43 46L43 47L44 47L44 46L43 46L43 45L44 45L44 44L43 44L43 42L45 42L45 41L44 41L44 40L43 40L43 39L42 39L42 38L43 38L43 37L44 37L44 38L45 38L45 40L46 40L46 38L45 38L45 37L44 37L44 34L46 34L46 35L45 35L45 36L47 36L47 35L48 35L48 33L47 33L47 32L48 32L48 31L47 31L47 30L46 30L46 29L47 29L47 28L46 28L46 26L43 26L43 25L44 25L44 24L46 24L46 22L45 22L45 21L44 21L44 24L42 24L42 23L41 23L41 26L40 26L40 25L39 25L39 27L41 27L41 26L43 26L43 27L42 27L42 28L43 28L43 29L42 29L42 30L41 30L41 29L39 29L39 28L37 28L37 26L38 26L38 23L37 23L37 22L38 22L38 21L40 21L40 20L38 20L38 21L37 21L37 20L36 20L36 21L37 21L37 22L36 22L36 24L35 24L35 25L36 25L36 27L35 27L35 26L34 26L34 28L33 28L33 29L39 29L39 30L37 30L37 32L36 32L36 31L35 31L35 30L33 30L33 31L32 31L32 32L30 32L30 33L29 33L29 34L30 34L30 35L29 35L29 39L31 39L31 38L32 38L32 35L31 35L31 34L33 34L33 36L34 36L34 37L35 37L35 34L33 34L33 33L32 33L32 32L36 32L36 33L38 33L38 31L40 31L40 32L39 32L39 34L36 34L36 35L37 35L37 36L36 36L36 37L37 37L37 38L36 38L36 39L35 39L35 38L33 38L33 39L32 39L32 40L33 40L33 39L35 39L35 40L34 40L34 41L33 41L33 42L32 42L32 41L31 41L31 40L30 40L30 41L29 41L29 40L28 40L28 39L27 39L27 38L28 38L28 37L27 37L27 38L25 38L25 37L26 37L26 36L27 36L27 35L26 35L26 34L25 34L25 35L24 35L24 36L23 36L23 37L22 37L22 36L21 36L21 37L19 37L19 34L18 34L18 33L19 33L19 32L20 32L20 33L21 33L21 34L20 34L20 35L21 35L21 34L22 34L22 33L21 33L21 32L20 32L20 29L22 29L22 28L20 28L20 29L18 29L18 28L16 28L16 27L18 27L18 26L19 26L19 25L21 25L21 26L20 26L20 27L22 27L22 25L21 25L21 24L22 24L22 23L21 23L21 24L19 24L19 23L20 23L20 22L19 22L19 23L17 23L17 22L18 22L18 21L20 21L20 20L21 20L21 21L22 21L22 22L24 22L24 21L25 21L25 22L26 22L26 23L25 23L25 24L27 24L27 25L28 25L28 24L27 24L27 23L28 23L28 22L29 22L29 21L27 21L27 20L28 20L28 19L27 19L27 20L26 20L26 18L25 18L25 17L27 17L27 16L28 16L28 15L29 15L29 14L30 14L30 13L28 13L28 14L26 14L26 15L27 15L27 16L25 16L25 15L24 15L24 14L25 14L25 13L24 13L24 12L23 12L23 10L24 10L24 11L25 11L25 9L24 9L24 8ZM48 8L48 9L49 9L49 8ZM3 9L3 10L4 10L4 11L3 11L3 12L2 12L2 13L3 13L3 12L4 12L4 11L5 11L5 9ZM14 9L14 10L13 10L13 11L12 11L12 12L13 12L13 13L15 13L15 9ZM28 10L28 11L29 11L29 10ZM13 11L13 12L14 12L14 11ZM20 11L20 12L19 12L19 13L20 13L20 14L21 14L21 15L22 15L22 17L24 17L24 16L23 16L23 14L24 14L24 13L22 13L22 12L21 12L21 11ZM6 12L6 13L7 13L7 12ZM17 12L17 13L18 13L18 12ZM20 12L20 13L21 13L21 14L22 14L22 13L21 13L21 12ZM32 12L32 13L33 13L33 12ZM44 12L44 13L45 13L45 12ZM39 13L39 14L40 14L40 13ZM6 14L6 15L9 15L9 14ZM42 14L42 15L43 15L43 14ZM3 15L3 16L4 16L4 15ZM45 16L45 17L44 17L44 18L43 18L43 19L42 19L42 20L41 20L41 22L43 22L43 21L42 21L42 20L46 20L46 21L47 21L47 25L48 25L48 24L49 24L49 25L50 25L50 23L51 23L51 22L50 22L50 17L51 17L51 16L50 16L50 17L49 17L49 16ZM37 17L37 18L39 18L39 17ZM45 17L45 18L44 18L44 19L45 19L45 18L47 18L47 19L46 19L46 20L48 20L48 19L49 19L49 18L47 18L47 17ZM22 18L22 19L21 19L21 20L22 20L22 21L24 21L24 20L23 20L23 18ZM11 19L11 20L14 20L14 19ZM4 22L4 24L5 24L5 22ZM39 22L39 23L40 23L40 22ZM49 22L49 23L50 23L50 22ZM23 23L23 25L24 25L24 26L23 26L23 29L24 29L24 30L25 30L25 29L24 29L24 26L25 26L25 25L24 25L24 23ZM7 24L7 25L6 25L6 26L8 26L8 25L10 25L10 24ZM33 24L33 25L32 25L32 26L33 26L33 25L34 25L34 24ZM16 25L16 26L18 26L18 25ZM9 26L9 27L10 27L10 26ZM5 27L5 30L8 30L8 27ZM27 27L27 30L30 30L30 27ZM43 27L43 28L44 28L44 29L45 29L45 28L44 28L44 27ZM49 27L49 30L52 30L52 27ZM2 28L2 29L3 29L3 28ZM6 28L6 29L7 29L7 28ZM9 28L9 30L10 30L10 29L11 29L11 28ZM28 28L28 29L29 29L29 28ZM50 28L50 29L51 29L51 28ZM16 29L16 31L18 31L18 29ZM54 29L54 30L55 30L55 29ZM40 30L40 31L41 31L41 30ZM42 30L42 31L43 31L43 30ZM44 30L44 31L46 31L46 32L47 32L47 31L46 31L46 30ZM7 32L7 33L9 33L9 32ZM40 32L40 34L42 34L42 35L41 35L41 36L40 36L40 35L38 35L38 36L40 36L40 38L39 38L39 37L38 37L38 39L36 39L36 40L37 40L37 41L38 41L38 42L39 42L39 41L41 41L41 40L40 40L40 39L41 39L41 36L42 36L42 35L43 35L43 34L44 34L44 33L45 33L45 32L42 32L42 33L41 33L41 32ZM2 33L2 34L3 34L3 33ZM4 33L4 35L5 35L5 33ZM16 33L16 34L17 34L17 33ZM42 33L42 34L43 34L43 33ZM46 33L46 34L47 34L47 33ZM0 35L0 36L1 36L1 35ZM50 35L50 36L51 36L51 35ZM30 36L30 38L31 38L31 36ZM48 36L48 37L47 37L47 39L50 39L50 37L49 37L49 36ZM8 37L8 40L9 40L9 41L10 41L10 40L9 40L9 37ZM15 37L15 38L16 38L16 37ZM21 37L21 39L22 39L22 37ZM23 37L23 38L24 38L24 37ZM51 37L51 38L52 38L52 39L53 39L53 38L52 38L52 37ZM2 38L2 39L3 39L3 38ZM6 38L6 39L7 39L7 38ZM19 38L19 39L20 39L20 38ZM15 39L15 40L16 40L16 39ZM19 40L19 41L20 41L20 40ZM38 40L38 41L39 41L39 40ZM4 41L4 43L5 43L5 41ZM24 41L24 43L25 43L25 41ZM26 41L26 42L27 42L27 41ZM34 41L34 42L33 42L33 43L34 43L34 42L36 42L36 41ZM29 42L29 43L30 43L30 44L29 44L29 45L30 45L30 46L31 46L31 45L30 45L30 44L31 44L31 43L30 43L30 42ZM6 43L6 44L7 44L7 43ZM8 43L8 44L10 44L10 43ZM26 43L26 44L25 44L25 45L23 45L23 46L24 46L24 47L25 47L25 45L26 45L26 44L27 44L27 43ZM21 45L21 46L20 46L20 47L19 47L19 48L20 48L20 49L21 49L21 48L20 48L20 47L22 47L22 48L23 48L23 47L22 47L22 45ZM1 46L1 47L2 47L2 46ZM14 47L14 48L15 48L15 47ZM52 47L52 48L53 48L53 49L56 49L56 48L53 48L53 47ZM6 48L6 49L7 49L7 48ZM10 48L10 50L9 50L9 51L10 51L10 50L11 50L11 52L10 52L10 53L9 53L9 55L10 55L10 53L11 53L11 52L12 52L12 53L13 53L13 54L14 54L14 55L15 55L15 54L16 54L16 53L14 53L14 52L15 52L15 49L13 49L13 50L11 50L11 49L12 49L12 48ZM27 49L27 52L30 52L30 49ZM49 49L49 52L52 52L52 49ZM28 50L28 51L29 51L29 50ZM46 50L46 51L47 51L47 50ZM50 50L50 51L51 51L51 50ZM13 51L13 52L14 52L14 51ZM24 51L24 53L25 53L25 51ZM46 52L46 53L47 53L47 52ZM0 0L0 7L7 7L7 0ZM1 1L1 6L6 6L6 1ZM2 2L2 5L5 5L5 2ZM50 0L50 7L57 7L57 0ZM51 1L51 6L56 6L56 1ZM52 2L52 5L55 5L55 2ZM0 50L0 57L7 57L7 50ZM1 51L1 56L6 56L6 51ZM2 52L2 55L5 55L5 52Z" fill="#000000"/></g></g></svg>
