<?xml version="1.0" encoding="UTF-8"?>
<svg xmlns="http://www.w3.org/2000/svg" version="1.1" width="300" height="300" viewBox="0 0 300 300"><rect x="0" y="0" width="300" height="300" fill="#ffffff"/><g transform="scale(4.918)"><g transform="translate(2,2)"><path fill-rule="evenodd" d="M8 0L8 1L9 1L9 0ZM12 0L12 1L10 1L10 2L12 2L12 3L11 3L11 6L10 6L10 5L9 5L9 4L10 4L10 3L9 3L9 2L8 2L8 5L9 5L9 6L8 6L8 7L9 7L9 6L10 6L10 7L11 7L11 8L12 8L12 9L13 9L13 6L12 6L12 5L14 5L14 7L15 7L15 6L16 6L16 7L17 7L17 6L18 6L18 8L16 8L16 9L17 9L17 10L16 10L16 11L17 11L17 12L15 12L15 11L14 11L14 10L15 10L15 9L14 9L14 10L13 10L13 11L12 11L12 10L9 10L9 9L10 9L10 8L8 8L8 11L7 11L7 10L5 10L5 9L4 9L4 8L0 8L0 9L2 9L2 10L3 10L3 12L1 12L1 10L0 10L0 12L1 12L1 14L2 14L2 15L0 15L0 17L1 17L1 18L0 18L0 19L1 19L1 18L2 18L2 20L1 20L1 21L3 21L3 24L2 24L2 22L0 22L0 23L1 23L1 24L2 24L2 25L1 25L1 26L0 26L0 28L1 28L1 26L2 26L2 28L3 28L3 29L1 29L1 30L3 30L3 32L2 32L2 31L1 31L1 32L0 32L0 33L1 33L1 35L0 35L0 37L1 37L1 39L2 39L2 40L1 40L1 42L0 42L0 44L2 44L2 43L3 43L3 44L4 44L4 43L5 43L5 45L0 45L0 48L5 48L5 47L7 47L7 48L6 48L6 49L8 49L8 50L9 50L9 51L10 51L10 50L9 50L9 48L10 48L10 49L11 49L11 48L10 48L10 47L12 47L12 48L13 48L13 46L15 46L15 47L14 47L14 49L12 49L12 50L11 50L11 52L9 52L9 53L8 53L8 57L10 57L10 56L11 56L11 57L12 57L12 56L13 56L13 55L15 55L15 56L14 56L14 57L15 57L15 56L16 56L16 57L18 57L18 56L19 56L19 57L23 57L23 56L22 56L22 54L21 54L21 55L20 55L20 53L22 53L22 52L21 52L21 51L20 51L20 50L21 50L21 48L20 48L20 49L19 49L19 47L18 47L18 46L19 46L19 45L17 45L17 47L18 47L18 48L15 48L15 47L16 47L16 46L15 46L15 45L13 45L13 46L10 46L10 45L12 45L12 44L13 44L13 43L15 43L15 42L16 42L16 43L17 43L17 40L16 40L16 39L17 39L17 38L15 38L15 36L17 36L17 37L18 37L18 40L20 40L20 41L22 41L22 44L20 44L20 45L21 45L21 46L22 46L22 44L24 44L24 45L23 45L23 46L25 46L25 43L24 43L24 42L23 42L23 41L22 41L22 40L23 40L23 39L24 39L24 41L25 41L25 42L28 42L28 44L27 44L27 46L28 46L28 44L29 44L29 45L30 45L30 46L31 46L31 47L30 47L30 48L29 48L29 47L28 47L28 48L26 48L26 47L25 47L25 48L24 48L24 47L23 47L23 48L24 48L24 49L25 49L25 50L26 50L26 54L28 54L28 53L29 53L29 54L31 54L31 55L30 55L30 56L31 56L31 55L32 55L32 57L33 57L33 56L35 56L35 57L36 57L36 56L35 56L35 55L37 55L37 56L39 56L39 57L43 57L43 56L41 56L41 55L40 55L40 54L42 54L42 55L43 55L43 54L45 54L45 53L46 53L46 55L45 55L45 56L46 56L46 55L48 55L48 56L47 56L47 57L50 57L50 56L51 56L51 54L50 54L50 53L55 53L55 54L56 54L56 53L57 53L57 51L56 51L56 47L57 47L57 43L56 43L56 42L54 42L54 43L56 43L56 45L55 45L55 44L53 44L53 45L54 45L54 46L53 46L53 47L51 47L51 46L52 46L52 44L51 44L51 45L47 45L47 46L46 46L46 45L45 45L45 46L44 46L44 45L43 45L43 44L45 44L45 43L44 43L44 42L43 42L43 44L42 44L42 47L43 47L43 46L44 46L44 48L45 48L45 46L46 46L46 49L45 49L45 50L46 50L46 49L47 49L47 50L48 50L48 51L47 51L47 52L44 52L44 49L43 49L43 50L42 50L42 49L41 49L41 51L40 51L40 52L41 52L41 51L43 51L43 52L42 52L42 53L40 53L40 54L38 54L38 55L37 55L37 53L36 53L36 54L35 54L35 53L33 53L33 51L32 51L32 52L31 52L31 49L32 49L32 48L33 48L33 50L34 50L34 48L36 48L36 49L35 49L35 50L37 50L37 51L36 51L36 52L37 52L37 51L38 51L38 53L39 53L39 50L40 50L40 47L41 47L41 46L38 46L38 45L36 45L36 44L33 44L33 45L30 45L30 44L31 44L31 41L30 41L30 40L29 40L29 41L28 41L28 39L30 39L30 38L31 38L31 40L32 40L32 41L34 41L34 42L33 42L33 43L34 43L34 42L35 42L35 43L37 43L37 44L39 44L39 45L41 45L41 43L42 43L42 41L40 41L40 40L42 40L42 39L44 39L44 40L43 40L43 41L46 41L46 44L47 44L47 43L48 43L48 42L47 42L47 41L49 41L49 40L47 40L47 41L46 41L46 40L45 40L45 39L46 39L46 37L47 37L47 38L48 38L48 37L47 37L47 36L45 36L45 39L44 39L44 38L42 38L42 39L41 39L41 38L39 38L39 37L40 37L40 35L39 35L39 37L38 37L38 34L37 34L37 33L38 33L38 32L40 32L40 33L41 33L41 35L43 35L43 34L44 34L44 35L45 35L45 34L44 34L44 31L45 31L45 32L46 32L46 33L47 33L47 34L46 34L46 35L47 35L47 34L48 34L48 33L49 33L49 35L48 35L48 36L49 36L49 38L51 38L51 39L50 39L50 42L49 42L49 44L50 44L50 42L51 42L51 43L53 43L53 41L51 41L51 39L52 39L52 35L55 35L55 37L56 37L56 36L57 36L57 33L55 33L55 32L57 32L57 31L56 31L56 30L57 30L57 28L55 28L55 27L56 27L56 25L57 25L57 19L56 19L56 18L57 18L57 15L56 15L56 17L55 17L55 14L54 14L54 13L53 13L53 14L51 14L51 13L50 13L50 12L49 12L49 11L50 11L50 10L49 10L49 9L50 9L50 8L48 8L48 9L47 9L47 8L45 8L45 9L44 9L44 7L45 7L45 6L46 6L46 7L47 7L47 5L48 5L48 0L46 0L46 1L45 1L45 2L44 2L44 3L45 3L45 6L44 6L44 5L42 5L42 4L40 4L40 3L37 3L37 2L38 2L38 1L37 1L37 2L36 2L36 0L35 0L35 1L34 1L34 0L32 0L32 1L31 1L31 0L28 0L28 1L27 1L27 2L28 2L28 1L29 1L29 4L26 4L26 2L25 2L25 3L23 3L23 4L22 4L22 3L21 3L21 1L23 1L23 0L21 0L21 1L20 1L20 2L18 2L18 1L17 1L17 2L16 2L16 0ZM24 0L24 1L26 1L26 0ZM39 0L39 2L40 2L40 1L41 1L41 0ZM42 0L42 2L43 2L43 1L44 1L44 0ZM13 1L13 3L14 3L14 5L17 5L17 4L18 4L18 2L17 2L17 3L15 3L15 2L14 2L14 1ZM46 1L46 2L45 2L45 3L46 3L46 5L47 5L47 3L46 3L46 2L47 2L47 1ZM30 2L30 4L31 4L31 5L32 5L32 6L31 6L31 7L32 7L32 6L33 6L33 7L34 7L34 6L35 6L35 9L34 9L34 10L33 10L33 8L32 8L32 10L31 10L31 12L29 12L29 11L30 11L30 9L26 9L26 6L25 6L25 5L26 5L26 4L24 4L24 6L23 6L23 7L22 7L22 6L21 6L21 7L20 7L20 6L19 6L19 7L20 7L20 10L23 10L23 11L19 11L19 8L18 8L18 12L17 12L17 13L16 13L16 14L15 14L15 15L14 15L14 13L12 13L12 12L11 12L11 13L10 13L10 11L9 11L9 13L8 13L8 12L7 12L7 11L6 11L6 12L7 12L7 13L3 13L3 14L4 14L4 15L3 15L3 16L2 16L2 17L3 17L3 19L4 19L4 17L3 17L3 16L4 16L4 15L6 15L6 16L9 16L9 17L8 17L8 19L9 19L9 21L11 21L11 20L12 20L12 22L9 22L9 23L8 23L8 22L7 22L7 21L4 21L4 20L3 20L3 21L4 21L4 22L5 22L5 24L7 24L7 25L6 25L6 26L8 26L8 25L9 25L9 23L13 23L13 24L12 24L12 25L11 25L11 26L14 26L14 28L15 28L15 29L13 29L13 28L12 28L12 30L13 30L13 31L16 31L16 34L15 34L15 35L17 35L17 36L18 36L18 35L19 35L19 33L20 33L20 34L21 34L21 35L20 35L20 36L19 36L19 37L20 37L20 38L22 38L22 39L21 39L21 40L22 40L22 39L23 39L23 38L22 38L22 37L23 37L23 35L24 35L24 34L21 34L21 33L22 33L22 32L23 32L23 33L25 33L25 34L26 34L26 37L24 37L24 39L25 39L25 41L26 41L26 39L25 39L25 38L26 38L26 37L27 37L27 38L30 38L30 37L31 37L31 36L32 36L32 37L33 37L33 36L34 36L34 35L31 35L31 34L32 34L32 33L33 33L33 32L34 32L34 34L35 34L35 37L34 37L34 38L32 38L32 40L34 40L34 41L37 41L37 43L40 43L40 41L37 41L37 40L38 40L38 39L39 39L39 38L36 38L36 35L37 35L37 34L36 34L36 33L37 33L37 32L36 32L36 33L35 33L35 31L36 31L36 30L37 30L37 31L39 31L39 30L40 30L40 31L41 31L41 30L42 30L42 32L43 32L43 31L44 31L44 30L45 30L45 31L46 31L46 32L47 32L47 33L48 33L48 29L47 29L47 31L46 31L46 28L48 28L48 26L50 26L50 25L51 25L51 24L49 24L49 23L51 23L51 22L54 22L54 24L53 24L53 23L52 23L52 25L54 25L54 26L53 26L53 27L54 27L54 26L55 26L55 25L54 25L54 24L56 24L56 23L55 23L55 22L54 22L54 20L56 20L56 19L54 19L54 20L53 20L53 17L54 17L54 18L55 18L55 17L54 17L54 14L53 14L53 16L52 16L52 15L51 15L51 14L49 14L49 12L48 12L48 11L49 11L49 10L47 10L47 9L45 9L45 11L46 11L46 10L47 10L47 12L46 12L46 13L45 13L45 12L44 12L44 13L42 13L42 12L43 12L43 11L41 11L41 10L40 10L40 8L39 8L39 9L38 9L38 11L37 11L37 12L38 12L38 13L40 13L40 14L38 14L38 16L37 16L37 15L36 15L36 14L37 14L37 13L34 13L34 14L33 14L33 12L34 12L34 10L35 10L35 11L36 11L36 10L35 10L35 9L37 9L37 8L38 8L38 6L37 6L37 8L36 8L36 6L35 6L35 4L36 4L36 5L37 5L37 4L36 4L36 2L35 2L35 4L34 4L34 3L32 3L32 2ZM19 3L19 4L20 4L20 5L21 5L21 3ZM31 3L31 4L32 4L32 5L33 5L33 6L34 6L34 5L33 5L33 4L32 4L32 3ZM27 5L27 8L30 8L30 5ZM11 6L11 7L12 7L12 6ZM24 6L24 7L23 7L23 8L21 8L21 9L23 9L23 10L25 10L25 8L24 8L24 7L25 7L25 6ZM28 6L28 7L29 7L29 6ZM39 6L39 7L40 7L40 6ZM41 6L41 7L42 7L42 9L43 9L43 7L44 7L44 6L43 6L43 7L42 7L42 6ZM48 6L48 7L49 7L49 6ZM6 8L6 9L7 9L7 8ZM23 8L23 9L24 9L24 8ZM52 8L52 10L51 10L51 12L52 12L52 10L53 10L53 9L55 9L55 10L54 10L54 11L55 11L55 12L56 12L56 13L57 13L57 12L56 12L56 11L57 11L57 8L56 8L56 9L55 9L55 8ZM3 9L3 10L4 10L4 9ZM27 10L27 11L28 11L28 10ZM32 10L32 12L31 12L31 13L30 13L30 14L31 14L31 15L30 15L30 16L28 16L28 15L27 15L27 14L29 14L29 13L28 13L28 12L26 12L26 11L25 11L25 13L26 13L26 14L24 14L24 12L22 12L22 13L23 13L23 14L22 14L22 15L20 15L20 16L23 16L23 19L22 19L22 18L19 18L19 17L18 17L18 16L17 16L17 15L16 15L16 17L15 17L15 16L13 16L13 15L12 15L12 16L13 16L13 18L14 18L14 17L15 17L15 19L12 19L12 17L11 17L11 16L10 16L10 15L11 15L11 14L10 14L10 13L9 13L9 14L10 14L10 15L9 15L9 16L10 16L10 17L9 17L9 18L11 18L11 19L10 19L10 20L11 20L11 19L12 19L12 20L13 20L13 23L15 23L15 24L16 24L16 25L14 25L14 26L15 26L15 27L21 27L21 25L22 25L22 27L23 27L23 28L24 28L24 29L25 29L25 31L26 31L26 33L27 33L27 31L28 31L28 32L29 32L29 31L31 31L31 33L29 33L29 35L28 35L28 34L27 34L27 36L29 36L29 37L30 37L30 34L31 34L31 33L32 33L32 31L35 31L35 30L36 30L36 29L35 29L35 28L36 28L36 27L34 27L34 25L35 25L35 24L36 24L36 25L37 25L37 28L38 28L38 27L39 27L39 29L40 29L40 28L41 28L41 29L45 29L45 28L46 28L46 26L42 26L42 28L41 28L41 27L39 27L39 26L41 26L41 25L42 25L42 24L43 24L43 25L44 25L44 24L45 24L45 25L47 25L47 26L48 26L48 24L45 24L45 23L49 23L49 22L50 22L50 21L49 21L49 20L51 20L51 21L53 21L53 20L51 20L51 19L52 19L52 16L51 16L51 15L50 15L50 16L47 16L47 17L46 17L46 15L43 15L43 14L42 14L42 13L41 13L41 15L40 15L40 16L41 16L41 15L43 15L43 16L44 16L44 17L43 17L43 18L44 18L44 19L43 19L43 21L41 21L41 19L39 19L39 18L38 18L38 19L37 19L37 18L36 18L36 15L35 15L35 16L33 16L33 14L32 14L32 12L33 12L33 10ZM39 10L39 11L38 11L38 12L40 12L40 10ZM4 11L4 12L5 12L5 11ZM18 12L18 13L19 13L19 12ZM20 12L20 14L21 14L21 12ZM7 13L7 14L6 14L6 15L7 15L7 14L8 14L8 13ZM23 14L23 16L24 16L24 19L25 19L25 20L23 20L23 21L24 21L24 22L25 22L25 25L23 25L23 24L22 24L22 23L20 23L20 24L22 24L22 25L23 25L23 26L25 26L25 29L26 29L26 26L31 26L31 28L32 28L32 26L33 26L33 25L30 25L30 24L31 24L31 23L30 23L30 20L31 20L31 21L33 21L33 22L32 22L32 24L34 24L34 23L33 23L33 22L36 22L36 23L38 23L38 24L39 24L39 25L41 25L41 24L40 24L40 23L45 23L45 22L48 22L48 21L45 21L45 20L46 20L46 19L44 19L44 21L43 21L43 22L41 22L41 21L40 21L40 20L38 20L38 22L37 22L37 20L35 20L35 19L36 19L36 18L35 18L35 19L34 19L34 20L33 20L33 19L32 19L32 18L33 18L33 17L32 17L32 16L31 16L31 17L30 17L30 18L29 18L29 17L27 17L27 15L25 15L25 16L24 16L24 14ZM47 14L47 15L48 15L48 14ZM25 16L25 17L26 17L26 16ZM6 17L6 18L5 18L5 19L6 19L6 20L7 20L7 19L6 19L6 18L7 18L7 17ZM40 17L40 18L42 18L42 17ZM44 17L44 18L45 18L45 17ZM48 17L48 19L47 19L47 20L49 20L49 19L51 19L51 17ZM16 18L16 20L14 20L14 22L15 22L15 23L16 23L16 24L17 24L17 25L16 25L16 26L18 26L18 24L19 24L19 22L21 22L21 20L20 20L20 19L19 19L19 18L18 18L18 20L17 20L17 18ZM28 18L28 19L26 19L26 21L25 21L25 22L27 22L27 23L26 23L26 24L27 24L27 25L28 25L28 22L29 22L29 18ZM31 19L31 20L32 20L32 19ZM16 20L16 23L17 23L17 24L18 24L18 23L17 23L17 20ZM27 20L27 21L28 21L28 20ZM39 21L39 22L38 22L38 23L39 23L39 22L40 22L40 21ZM44 21L44 22L45 22L45 21ZM6 22L6 23L7 23L7 24L8 24L8 23L7 23L7 22ZM3 25L3 26L4 26L4 25ZM19 25L19 26L20 26L20 25ZM9 26L9 27L10 27L10 26ZM3 27L3 28L4 28L4 27ZM5 27L5 30L8 30L8 27ZM27 27L27 30L30 30L30 27ZM33 27L33 29L34 29L34 27ZM43 27L43 28L45 28L45 27ZM49 27L49 30L52 30L52 27ZM6 28L6 29L7 29L7 28ZM10 28L10 29L9 29L9 30L11 30L11 28ZM16 28L16 29L15 29L15 30L16 30L16 31L17 31L17 32L19 32L19 31L20 31L20 28L18 28L18 29L19 29L19 31L17 31L17 28ZM28 28L28 29L29 29L29 28ZM50 28L50 29L51 29L51 28ZM53 28L53 29L54 29L54 30L53 30L53 31L50 31L50 34L54 34L54 33L53 33L53 31L54 31L54 32L55 32L55 30L56 30L56 29L54 29L54 28ZM3 29L3 30L4 30L4 29ZM21 29L21 30L22 30L22 31L23 31L23 29ZM31 29L31 30L32 30L32 29ZM4 31L4 32L3 32L3 33L2 33L2 34L3 34L3 33L4 33L4 35L3 35L3 36L2 36L2 35L1 35L1 37L2 37L2 39L3 39L3 38L5 38L5 39L4 39L4 42L3 42L3 40L2 40L2 42L1 42L1 43L2 43L2 42L3 42L3 43L4 43L4 42L5 42L5 40L7 40L7 41L6 41L6 42L7 42L7 43L6 43L6 44L7 44L7 45L5 45L5 46L3 46L3 47L5 47L5 46L7 46L7 47L10 47L10 46L8 46L8 45L9 45L9 44L8 44L8 43L10 43L10 42L11 42L11 43L13 43L13 42L15 42L15 41L16 41L16 40L15 40L15 38L14 38L14 39L13 39L13 40L12 40L12 41L10 41L10 42L8 42L8 38L9 38L9 37L8 37L8 38L7 38L7 37L4 37L4 35L5 35L5 32L7 32L7 33L6 33L6 34L7 34L7 35L6 35L6 36L7 36L7 35L8 35L8 34L7 34L7 33L9 33L9 35L10 35L10 36L11 36L11 38L10 38L10 39L9 39L9 40L10 40L10 39L12 39L12 38L13 38L13 37L12 37L12 36L11 36L11 35L13 35L13 36L14 36L14 35L13 35L13 33L15 33L15 32L12 32L12 34L11 34L11 35L10 35L10 33L11 33L11 31L9 31L9 32L7 32L7 31ZM20 32L20 33L21 33L21 32ZM17 34L17 35L18 35L18 34ZM55 34L55 35L56 35L56 34ZM50 35L50 36L51 36L51 35ZM41 36L41 37L44 37L44 36ZM53 36L53 37L54 37L54 36ZM6 38L6 39L7 39L7 38ZM56 38L56 39L57 39L57 38ZM34 39L34 40L35 40L35 39ZM36 39L36 40L37 40L37 39ZM53 39L53 40L54 40L54 41L55 41L55 39ZM56 40L56 41L57 41L57 40ZM18 42L18 43L20 43L20 42ZM29 42L29 44L30 44L30 42ZM33 45L33 46L32 46L32 47L33 47L33 48L34 48L34 46L35 46L35 47L36 47L36 46L35 46L35 45ZM1 46L1 47L2 47L2 46ZM37 46L37 47L38 47L38 46ZM49 46L49 48L50 48L50 46ZM54 46L54 48L53 48L53 49L55 49L55 46ZM47 47L47 49L48 49L48 47ZM25 48L25 49L26 49L26 48ZM37 48L37 49L39 49L39 48ZM14 49L14 50L15 50L15 49ZM16 49L16 52L15 52L15 51L13 51L13 50L12 50L12 51L13 51L13 53L11 53L11 55L12 55L12 54L13 54L13 53L16 53L16 54L18 54L18 53L19 53L19 52L20 52L20 51L19 51L19 50L17 50L17 49ZM22 49L22 51L24 51L24 52L23 52L23 54L25 54L25 53L24 53L24 52L25 52L25 51L24 51L24 50L23 50L23 49ZM27 49L27 52L30 52L30 49ZM49 49L49 52L52 52L52 49ZM28 50L28 51L29 51L29 50ZM50 50L50 51L51 51L51 50ZM53 50L53 52L54 52L54 50ZM17 51L17 52L18 52L18 51ZM34 51L34 52L35 52L35 51ZM55 51L55 52L56 52L56 51ZM31 53L31 54L33 54L33 53ZM42 53L42 54L43 54L43 53ZM47 53L47 54L48 54L48 53ZM9 54L9 55L10 55L10 54ZM17 55L17 56L18 56L18 55ZM19 55L19 56L20 56L20 55ZM24 55L24 56L25 56L25 55ZM26 55L26 56L27 56L27 57L29 57L29 56L27 56L27 55ZM39 55L39 56L40 56L40 55ZM52 55L52 57L53 57L53 55ZM56 55L56 56L57 56L57 55ZM54 56L54 57L55 57L55 56ZM0 0L0 7L7 7L7 0ZM1 1L1 6L6 6L6 1ZM2 2L2 5L5 5L5 2ZM50 0L50 7L57 7L57 0ZM51 1L51 6L56 6L56 1ZM52 2L52 5L55 5L55 2ZM0 50L0 57L7 57L7 50ZM1 51L1 56L6 56L6 51ZM2 52L2 55L5 55L5 52Z" fill="#000000"/></g></g></svg>
