<?xml version="1.0" encoding="UTF-8"?>
<svg xmlns="http://www.w3.org/2000/svg" version="1.1" width="300" height="300" viewBox="0 0 300 300"><rect x="0" y="0" width="300" height="300" fill="#ffffff"/><g transform="scale(4.918)"><g transform="translate(2,2)"><path fill-rule="evenodd" d="M10 0L10 1L8 1L8 2L9 2L9 3L8 3L8 4L9 4L9 5L8 5L8 7L9 7L9 5L10 5L10 9L11 9L11 10L10 10L10 11L9 11L9 12L8 12L8 10L9 10L9 8L6 8L6 9L5 9L5 8L0 8L0 10L1 10L1 9L2 9L2 12L1 12L1 11L0 11L0 18L1 18L1 19L0 19L0 20L3 20L3 19L2 19L2 18L4 18L4 19L8 19L8 21L7 21L7 20L6 20L6 21L7 21L7 22L6 22L6 23L7 23L7 24L5 24L5 23L4 23L4 24L3 24L3 23L1 23L1 21L0 21L0 23L1 23L1 24L0 24L0 29L1 29L1 28L2 28L2 31L3 31L3 32L4 32L4 33L3 33L3 34L2 34L2 35L1 35L1 33L2 33L2 32L1 32L1 30L0 30L0 35L1 35L1 36L3 36L3 37L2 37L2 38L4 38L4 39L5 39L5 40L6 40L6 41L8 41L8 45L9 45L9 47L8 47L8 46L6 46L6 45L7 45L7 44L6 44L6 43L7 43L7 42L6 42L6 43L5 43L5 42L4 42L4 41L2 41L2 42L1 42L1 41L0 41L0 45L1 45L1 46L0 46L0 48L5 48L5 47L8 47L8 48L6 48L6 49L8 49L8 51L10 51L10 50L9 50L9 47L10 47L10 49L12 49L12 52L8 52L8 57L9 57L9 55L11 55L11 54L12 54L12 56L11 56L11 57L12 57L12 56L13 56L13 54L12 54L12 52L13 52L13 53L14 53L14 54L15 54L15 55L16 55L16 57L17 57L17 56L18 56L18 57L20 57L20 56L19 56L19 55L20 55L20 54L18 54L18 55L17 55L17 53L16 53L16 52L17 52L17 51L16 51L16 49L19 49L19 48L18 48L18 47L19 47L19 45L21 45L21 47L22 47L22 48L23 48L23 50L22 50L22 49L21 49L21 48L20 48L20 49L21 49L21 50L18 50L18 53L20 53L20 52L21 52L21 53L22 53L22 54L21 54L21 56L23 56L23 57L26 57L26 56L24 56L24 55L23 55L23 54L24 54L24 53L25 53L25 54L27 54L27 53L28 53L28 54L30 54L30 53L31 53L31 56L30 56L30 55L29 55L29 56L30 56L30 57L31 57L31 56L34 56L34 57L38 57L38 56L37 56L37 55L36 55L36 56L34 56L34 55L35 55L35 54L34 54L34 53L33 53L33 54L32 54L32 52L35 52L35 53L36 53L36 54L38 54L38 53L37 53L37 52L38 52L38 51L40 51L40 52L39 52L39 55L40 55L40 52L41 52L41 54L43 54L43 53L44 53L44 54L45 54L45 53L47 53L47 54L46 54L46 55L48 55L48 56L50 56L50 55L51 55L51 57L52 57L52 56L54 56L54 57L56 57L56 56L55 56L55 53L54 53L54 52L55 52L55 50L57 50L57 48L56 48L56 46L57 46L57 45L56 45L56 44L57 44L57 43L56 43L56 42L55 42L55 39L57 39L57 37L56 37L56 36L57 36L57 35L55 35L55 34L57 34L57 33L56 33L56 32L57 32L57 31L56 31L56 30L57 30L57 29L56 29L56 30L55 30L55 29L54 29L54 28L55 28L55 27L56 27L56 28L57 28L57 27L56 27L56 26L57 26L57 25L56 25L56 26L55 26L55 25L54 25L54 26L55 26L55 27L53 27L53 26L52 26L52 24L57 24L57 23L56 23L56 22L57 22L57 21L54 21L54 20L55 20L55 18L57 18L57 15L56 15L56 14L57 14L57 11L56 11L56 8L55 8L55 11L54 11L54 10L53 10L53 9L54 9L54 8L53 8L53 9L52 9L52 8L51 8L51 10L49 10L49 9L50 9L50 8L49 8L49 6L48 6L48 7L47 7L47 5L48 5L48 0L45 0L45 1L47 1L47 2L42 2L42 3L41 3L41 1L44 1L44 0L41 0L41 1L37 1L37 0L36 0L36 1L33 1L33 0L30 0L30 1L29 1L29 2L28 2L28 1L27 1L27 2L28 2L28 3L27 3L27 4L26 4L26 3L25 3L25 1L26 1L26 0L23 0L23 2L22 2L22 0L21 0L21 1L20 1L20 0L19 0L19 1L16 1L16 0ZM10 1L10 3L9 3L9 4L10 4L10 5L11 5L11 9L13 9L13 10L11 10L11 12L10 12L10 13L8 13L8 14L7 14L7 13L4 13L4 10L5 10L5 12L7 12L7 11L6 11L6 10L7 10L7 9L6 9L6 10L5 10L5 9L3 9L3 14L1 14L1 15L2 15L2 16L4 16L4 14L7 14L7 15L5 15L5 17L6 17L6 18L7 18L7 17L6 17L6 16L7 16L7 15L8 15L8 16L9 16L9 21L10 21L10 23L9 23L9 22L7 22L7 23L9 23L9 24L8 24L8 26L10 26L10 25L11 25L11 24L13 24L13 25L12 25L12 26L13 26L13 25L14 25L14 26L15 26L15 27L12 27L12 28L13 28L13 29L10 29L10 28L11 28L11 27L9 27L9 29L10 29L10 31L11 31L11 32L12 32L12 30L13 30L13 29L15 29L15 27L17 27L17 28L18 28L18 29L16 29L16 31L15 31L15 30L14 30L14 31L15 31L15 32L14 32L14 34L13 34L13 33L12 33L12 34L13 34L13 35L12 35L12 37L13 37L13 38L14 38L14 39L13 39L13 40L12 40L12 38L11 38L11 36L10 36L10 35L11 35L11 33L9 33L9 31L8 31L8 33L6 33L6 32L7 32L7 31L5 31L5 34L3 34L3 36L5 36L5 37L4 37L4 38L7 38L7 39L6 39L6 40L7 40L7 39L8 39L8 38L9 38L9 39L11 39L11 40L10 40L10 41L9 41L9 40L8 40L8 41L9 41L9 43L10 43L10 42L11 42L11 43L12 43L12 45L11 45L11 44L9 44L9 45L11 45L11 46L10 46L10 47L11 47L11 48L12 48L12 49L13 49L13 50L14 50L14 51L13 51L13 52L14 52L14 53L15 53L15 54L16 54L16 53L15 53L15 50L14 50L14 49L15 49L15 48L14 48L14 47L13 47L13 48L12 48L12 47L11 47L11 46L14 46L14 45L13 45L13 43L12 43L12 41L13 41L13 40L14 40L14 41L15 41L15 43L14 43L14 44L15 44L15 43L16 43L16 44L17 44L17 45L16 45L16 46L17 46L17 47L16 47L16 48L17 48L17 47L18 47L18 46L17 46L17 45L18 45L18 44L17 44L17 43L18 43L18 41L15 41L15 40L14 40L14 39L16 39L16 40L17 40L17 37L18 37L18 38L19 38L19 39L20 39L20 38L19 38L19 37L21 37L21 39L23 39L23 40L21 40L21 41L20 41L20 40L19 40L19 41L20 41L20 42L19 42L19 43L20 43L20 44L21 44L21 45L22 45L22 47L23 47L23 48L25 48L25 50L23 50L23 51L22 51L22 53L24 53L24 51L25 51L25 53L26 53L26 51L25 51L25 50L26 50L26 48L27 48L27 47L29 47L29 48L30 48L30 47L29 47L29 45L28 45L28 44L29 44L29 43L30 43L30 45L31 45L31 43L30 43L30 42L29 42L29 40L31 40L31 41L32 41L32 42L33 42L33 43L34 43L34 44L32 44L32 46L31 46L31 47L33 47L33 48L31 48L31 50L32 50L32 51L31 51L31 52L32 52L32 51L34 51L34 50L35 50L35 52L36 52L36 50L37 50L37 51L38 51L38 50L39 50L39 48L40 48L40 49L41 49L41 48L42 48L42 49L43 49L43 50L40 50L40 51L41 51L41 52L42 52L42 51L43 51L43 50L44 50L44 53L45 53L45 52L47 52L47 53L48 53L48 52L47 52L47 51L48 51L48 48L49 48L49 47L51 47L51 45L52 45L52 46L53 46L53 47L52 47L52 48L54 48L54 49L56 49L56 48L54 48L54 47L55 47L55 46L56 46L56 45L55 45L55 44L54 44L54 45L52 45L52 44L53 44L53 43L54 43L54 41L51 41L51 39L52 39L52 40L53 40L53 39L52 39L52 38L53 38L53 36L52 36L52 34L53 34L53 35L54 35L54 34L53 34L53 33L55 33L55 32L53 32L53 31L51 31L51 32L53 32L53 33L51 33L51 34L50 34L50 32L49 32L49 31L48 31L48 29L46 29L46 30L45 30L45 27L46 27L46 28L48 28L48 25L49 25L49 26L51 26L51 24L52 24L52 23L54 23L54 21L53 21L53 20L52 20L52 21L51 21L51 19L50 19L50 18L51 18L51 17L50 17L50 16L52 16L52 19L53 19L53 18L54 18L54 17L55 17L55 16L56 16L56 15L55 15L55 16L52 16L52 15L53 15L53 13L55 13L55 14L56 14L56 13L55 13L55 12L56 12L56 11L55 11L55 12L54 12L54 11L53 11L53 10L51 10L51 11L48 11L48 9L49 9L49 8L48 8L48 9L46 9L46 8L47 8L47 7L46 7L46 6L45 6L45 5L44 5L44 4L46 4L46 5L47 5L47 3L42 3L42 4L43 4L43 7L44 7L44 11L43 11L43 10L41 10L41 7L42 7L42 6L41 6L41 5L40 5L40 4L41 4L41 3L40 3L40 4L39 4L39 2L33 2L33 1L30 1L30 2L33 2L33 3L32 3L32 4L31 4L31 9L32 9L32 10L33 10L33 11L34 11L34 12L37 12L37 10L40 10L40 11L39 11L39 12L38 12L38 13L33 13L33 12L32 12L32 13L31 13L31 11L30 11L30 10L29 10L29 9L25 9L25 11L24 11L24 10L23 10L23 13L22 13L22 12L21 12L21 13L19 13L19 14L17 14L17 13L18 13L18 12L17 12L17 13L16 13L16 11L18 11L18 10L19 10L19 11L20 11L20 10L21 10L21 11L22 11L22 9L24 9L24 6L23 6L23 7L22 7L22 6L21 6L21 7L22 7L22 9L21 9L21 8L19 8L19 9L16 9L16 8L17 8L17 7L18 7L18 5L19 5L19 7L20 7L20 5L19 5L19 4L23 4L23 5L24 5L24 4L23 4L23 3L24 3L24 2L23 2L23 3L21 3L21 2L20 2L20 1L19 1L19 2L16 2L16 3L14 3L14 4L13 4L13 2L15 2L15 1L12 1L12 2L11 2L11 1ZM10 3L10 4L12 4L12 3ZM17 3L17 4L19 4L19 3ZM28 3L28 4L29 4L29 3ZM36 3L36 5L35 5L35 6L34 6L34 7L33 7L33 6L32 6L32 7L33 7L33 9L36 9L36 10L37 10L37 8L34 8L34 7L35 7L35 6L36 6L36 7L37 7L37 6L38 6L38 7L39 7L39 8L38 8L38 9L39 9L39 8L40 8L40 7L41 7L41 6L40 6L40 7L39 7L39 6L38 6L38 4L37 4L37 3ZM14 4L14 5L16 5L16 4ZM25 4L25 8L26 8L26 4ZM27 5L27 8L30 8L30 5ZM36 5L36 6L37 6L37 5ZM12 6L12 7L13 7L13 9L14 9L14 7L15 7L15 8L16 8L16 7L17 7L17 6L16 6L16 7L15 7L15 6L14 6L14 7L13 7L13 6ZM28 6L28 7L29 7L29 6ZM44 6L44 7L45 7L45 8L46 8L46 7L45 7L45 6ZM42 8L42 9L43 9L43 8ZM15 9L15 10L13 10L13 11L14 11L14 12L11 12L11 13L10 13L10 14L11 14L11 13L15 13L15 10L16 10L16 9ZM19 9L19 10L20 10L20 9ZM26 10L26 11L27 11L27 12L25 12L25 13L23 13L23 15L27 15L27 16L24 16L24 17L22 17L22 15L21 15L21 14L22 14L22 13L21 13L21 14L19 14L19 15L18 15L18 16L16 16L16 15L17 15L17 14L15 14L15 15L13 15L13 16L15 16L15 17L12 17L12 15L10 15L10 17L12 17L12 18L10 18L10 20L11 20L11 19L13 19L13 20L12 20L12 21L11 21L11 22L13 22L13 24L15 24L15 25L18 25L18 26L17 26L17 27L18 27L18 26L20 26L20 25L19 25L19 23L20 23L20 22L19 22L19 23L17 23L17 22L18 22L18 21L20 21L20 20L24 20L24 21L21 21L21 22L24 22L24 21L25 21L25 22L26 22L26 23L25 23L25 24L24 24L24 23L22 23L22 24L23 24L23 29L24 29L24 30L22 30L22 31L21 31L21 32L20 32L20 33L21 33L21 34L20 34L20 35L21 35L21 37L22 37L22 38L23 38L23 39L24 39L24 40L25 40L25 39L26 39L26 40L28 40L28 39L26 39L26 38L25 38L25 37L26 37L26 36L25 36L25 35L27 35L27 33L29 33L29 34L30 34L30 35L29 35L29 39L31 39L31 38L32 38L32 35L31 35L31 34L34 34L34 35L33 35L33 37L35 37L35 38L33 38L33 39L32 39L32 40L34 40L34 41L37 41L37 42L38 42L38 41L39 41L39 40L38 40L38 41L37 41L37 39L39 39L39 38L40 38L40 36L43 36L43 37L41 37L41 39L40 39L40 40L41 40L41 42L42 42L42 43L39 43L39 44L38 44L38 43L36 43L36 42L34 42L34 43L36 43L36 44L35 44L35 46L33 46L33 47L35 47L35 48L36 48L36 49L35 49L35 50L36 50L36 49L37 49L37 50L38 50L38 49L37 49L37 48L36 48L36 47L35 47L35 46L37 46L37 47L40 47L40 48L41 48L41 47L42 47L42 48L43 48L43 49L44 49L44 48L46 48L46 47L47 47L47 46L46 46L46 45L47 45L47 44L48 44L48 46L49 46L49 44L50 44L50 45L51 45L51 44L52 44L52 43L53 43L53 42L51 42L51 41L49 41L49 42L45 42L45 41L46 41L46 40L47 40L47 39L49 39L49 40L50 40L50 38L51 38L51 35L50 35L50 37L49 37L49 36L48 36L48 37L47 37L47 39L46 39L46 38L45 38L45 37L44 37L44 34L46 34L46 35L45 35L45 36L47 36L47 35L49 35L49 34L48 34L48 33L47 33L47 34L46 34L46 33L44 33L44 34L43 34L43 32L46 32L46 31L47 31L47 32L48 32L48 31L47 31L47 30L46 30L46 31L42 31L42 30L44 30L44 27L45 27L45 26L46 26L46 27L47 27L47 26L46 26L46 24L47 24L47 25L48 25L48 24L49 24L49 22L50 22L50 24L51 24L51 22L50 22L50 19L49 19L49 18L50 18L50 17L47 17L47 18L46 18L46 17L44 17L44 18L46 18L46 19L42 19L42 18L43 18L43 16L45 16L45 15L51 15L51 14L52 14L52 13L51 13L51 12L50 12L50 13L51 13L51 14L49 14L49 13L47 13L47 14L46 14L46 12L45 12L45 13L44 13L44 12L43 12L43 11L42 11L42 14L41 14L41 13L40 13L40 12L41 12L41 11L40 11L40 12L39 12L39 13L40 13L40 14L41 14L41 15L40 15L40 16L39 16L39 14L33 14L33 13L32 13L32 16L31 16L31 14L30 14L30 13L28 13L28 12L30 12L30 11L28 11L28 10ZM45 10L45 11L47 11L47 10ZM52 11L52 12L53 12L53 11ZM26 13L26 14L28 14L28 13ZM43 13L43 14L42 14L42 15L45 15L45 14L44 14L44 13ZM8 14L8 15L9 15L9 14ZM29 14L29 15L28 15L28 16L27 16L27 17L28 17L28 16L29 16L29 17L31 17L31 18L29 18L29 20L28 20L28 18L25 18L25 19L26 19L26 20L25 20L25 21L27 21L27 22L28 22L28 23L27 23L27 24L25 24L25 26L24 26L24 29L25 29L25 30L26 30L26 27L25 27L25 26L26 26L26 25L27 25L27 24L28 24L28 26L29 26L29 24L28 24L28 23L31 23L31 22L28 22L28 21L31 21L31 20L30 20L30 19L31 19L31 18L32 18L32 19L34 19L34 18L36 18L36 16L38 16L38 17L37 17L37 18L39 18L39 19L38 19L38 22L37 22L37 21L36 21L36 20L37 20L37 19L35 19L35 20L32 20L32 21L33 21L33 24L32 24L32 25L31 25L31 27L32 27L32 29L31 29L31 31L25 31L25 32L26 32L26 33L25 33L25 34L23 34L23 33L24 33L24 32L21 32L21 33L22 33L22 35L23 35L23 36L22 36L22 37L23 37L23 38L24 38L24 37L23 37L23 36L24 36L24 35L25 35L25 34L26 34L26 33L27 33L27 32L29 32L29 33L30 33L30 32L32 32L32 33L33 33L33 32L32 32L32 29L33 29L33 30L35 30L35 31L34 31L34 34L35 34L35 32L38 32L38 33L36 33L36 34L39 34L39 35L34 35L34 36L35 36L35 37L36 37L36 38L35 38L35 39L34 39L34 40L36 40L36 38L37 38L37 37L36 37L36 36L40 36L40 35L41 35L41 34L42 34L42 35L43 35L43 34L42 34L42 33L41 33L41 32L40 32L40 30L42 30L42 29L43 29L43 28L42 28L42 27L44 27L44 26L45 26L45 24L46 24L46 23L47 23L47 21L46 21L46 20L47 20L47 19L46 19L46 20L43 20L43 22L42 22L42 24L43 24L43 23L44 23L44 26L41 26L41 24L39 24L39 22L40 22L40 23L41 23L41 20L42 20L42 19L41 19L41 18L42 18L42 17L41 17L41 16L40 16L40 17L39 17L39 16L38 16L38 15L36 15L36 16L35 16L35 15L33 15L33 16L32 16L32 17L31 17L31 16L30 16L30 14ZM19 15L19 17L16 17L16 18L19 18L19 19L17 19L17 20L16 20L16 21L15 21L15 18L13 18L13 19L14 19L14 20L13 20L13 21L14 21L14 23L15 23L15 24L16 24L16 23L15 23L15 22L16 22L16 21L18 21L18 20L19 20L19 19L21 19L21 17L20 17L20 16L21 16L21 15ZM32 17L32 18L34 18L34 17ZM40 17L40 18L41 18L41 17ZM22 18L22 19L23 19L23 18ZM40 19L40 20L39 20L39 21L40 21L40 20L41 20L41 19ZM48 19L48 20L49 20L49 19ZM56 19L56 20L57 20L57 19ZM2 21L2 22L3 22L3 21ZM4 21L4 22L5 22L5 21ZM44 21L44 23L46 23L46 22L45 22L45 21ZM36 22L36 23L35 23L35 24L36 24L36 25L35 25L35 26L33 26L33 25L32 25L32 26L33 26L33 27L34 27L34 28L33 28L33 29L36 29L36 30L37 30L37 31L39 31L39 30L37 30L37 29L38 29L38 28L37 28L37 27L35 27L35 26L36 26L36 25L37 25L37 26L38 26L38 27L39 27L39 28L40 28L40 27L41 27L41 26L40 26L40 25L39 25L39 24L38 24L38 23L37 23L37 22ZM36 23L36 24L37 24L37 25L38 25L38 26L39 26L39 25L38 25L38 24L37 24L37 23ZM2 24L2 25L3 25L3 26L2 26L2 28L3 28L3 29L4 29L4 28L3 28L3 26L7 26L7 25L3 25L3 24ZM9 24L9 25L10 25L10 24ZM21 25L21 27L20 27L20 29L18 29L18 31L16 31L16 33L15 33L15 36L14 36L14 35L13 35L13 37L15 37L15 38L16 38L16 37L15 37L15 36L16 36L16 35L17 35L17 36L18 36L18 37L19 37L19 36L18 36L18 35L19 35L19 34L18 34L18 33L19 33L19 30L20 30L20 29L22 29L22 28L21 28L21 27L22 27L22 25ZM5 27L5 30L8 30L8 27ZM27 27L27 30L30 30L30 27ZM49 27L49 30L52 30L52 27ZM6 28L6 29L7 29L7 28ZM28 28L28 29L29 29L29 28ZM50 28L50 29L51 29L51 28ZM53 29L53 30L54 30L54 29ZM39 32L39 33L40 33L40 34L41 34L41 33L40 33L40 32ZM16 33L16 34L17 34L17 33ZM5 34L5 35L8 35L8 36L9 36L9 34ZM6 36L6 37L7 37L7 36ZM30 36L30 38L31 38L31 36ZM54 36L54 39L55 39L55 36ZM0 37L0 38L1 38L1 37ZM27 37L27 38L28 38L28 37ZM38 37L38 38L39 38L39 37ZM43 37L43 38L42 38L42 40L44 40L44 41L45 41L45 40L44 40L44 39L45 39L45 38L44 38L44 37ZM0 39L0 40L1 40L1 39ZM2 39L2 40L3 40L3 39ZM11 40L11 41L12 41L12 40ZM24 41L24 43L23 43L23 42L22 42L22 43L21 43L21 44L22 44L22 45L24 45L24 47L25 47L25 45L26 45L26 44L28 44L28 43L29 43L29 42L28 42L28 43L26 43L26 44L25 44L25 45L24 45L24 43L25 43L25 41ZM26 41L26 42L27 42L27 41ZM3 42L3 43L1 43L1 44L3 44L3 45L2 45L2 46L1 46L1 47L2 47L2 46L3 46L3 47L5 47L5 45L4 45L4 44L5 44L5 43L4 43L4 42ZM43 42L43 43L44 43L44 46L42 46L42 45L43 45L43 44L39 44L39 45L37 45L37 46L40 46L40 47L41 47L41 46L42 46L42 47L43 47L43 48L44 48L44 47L45 47L45 42ZM50 42L50 43L51 43L51 42ZM3 43L3 44L4 44L4 43ZM48 43L48 44L49 44L49 43ZM3 45L3 46L4 46L4 45ZM27 45L27 46L26 46L26 47L27 47L27 46L28 46L28 45ZM54 45L54 46L55 46L55 45ZM13 48L13 49L14 49L14 48ZM27 49L27 52L30 52L30 49ZM32 49L32 50L34 50L34 49ZM49 49L49 52L52 52L52 49ZM28 50L28 51L29 51L29 50ZM45 50L45 51L47 51L47 50ZM50 50L50 51L51 51L51 50ZM56 52L56 53L57 53L57 52ZM49 53L49 55L50 55L50 54L51 54L51 55L53 55L53 54L51 54L51 53ZM33 54L33 55L34 55L34 54ZM27 55L27 56L28 56L28 55ZM43 55L43 57L44 57L44 55ZM41 56L41 57L42 57L42 56ZM45 56L45 57L47 57L47 56ZM0 0L0 7L7 7L7 0ZM1 1L1 6L6 6L6 1ZM2 2L2 5L5 5L5 2ZM50 0L50 7L57 7L57 0ZM51 1L51 6L56 6L56 1ZM52 2L52 5L55 5L55 2ZM0 50L0 57L7 57L7 50ZM1 51L1 56L6 56L6 51ZM2 52L2 55L5 55L5 52Z" fill="#000000"/></g></g></svg>
