<?xml version="1.0" encoding="UTF-8"?>
<svg xmlns="http://www.w3.org/2000/svg" version="1.1" width="300" height="300" viewBox="0 0 300 300"><rect x="0" y="0" width="300" height="300" fill="#ffffff"/><g transform="scale(4.918)"><g transform="translate(2,2)"><path fill-rule="evenodd" d="M11 0L11 1L8 1L8 2L11 2L11 3L12 3L12 1L13 1L13 2L15 2L15 4L14 4L14 5L13 5L13 4L12 4L12 8L11 8L11 6L10 6L10 5L8 5L8 7L9 7L9 8L6 8L6 9L5 9L5 8L0 8L0 9L4 9L4 10L1 10L1 11L0 11L0 12L3 12L3 13L2 13L2 15L3 15L3 16L4 16L4 17L0 17L0 20L1 20L1 19L3 19L3 18L4 18L4 17L5 17L5 16L4 16L4 15L7 15L7 16L6 16L6 17L7 17L7 18L6 18L6 19L7 19L7 20L6 20L6 21L7 21L7 22L5 22L5 23L7 23L7 24L3 24L3 22L4 22L4 21L5 21L5 19L4 19L4 21L3 21L3 20L2 20L2 21L3 21L3 22L1 22L1 23L2 23L2 24L3 24L3 25L5 25L5 26L4 26L4 27L3 27L3 28L2 28L2 30L1 30L1 31L2 31L2 32L3 32L3 33L1 33L1 32L0 32L0 33L1 33L1 34L0 34L0 36L3 36L3 37L2 37L2 38L3 38L3 37L4 37L4 39L5 39L5 40L3 40L3 39L1 39L1 37L0 37L0 39L1 39L1 40L0 40L0 44L1 44L1 45L0 45L0 48L5 48L5 47L8 47L8 51L10 51L10 50L9 50L9 49L11 49L11 51L12 51L12 52L13 52L13 51L12 51L12 49L11 49L11 48L10 48L10 47L8 47L8 44L6 44L6 43L7 43L7 42L8 42L8 41L9 41L9 40L10 40L10 42L11 42L11 43L12 43L12 42L13 42L13 44L10 44L10 43L9 43L9 44L10 44L10 45L13 45L13 46L12 46L12 47L14 47L14 46L16 46L16 45L18 45L18 46L19 46L19 47L18 47L18 48L16 48L16 49L19 49L19 50L18 50L18 52L17 52L17 53L19 53L19 54L18 54L18 55L19 55L19 56L18 56L18 57L22 57L22 54L23 54L23 55L24 55L24 56L25 56L25 57L26 57L26 56L28 56L28 55L25 55L25 54L27 54L27 53L28 53L28 54L29 54L29 55L30 55L30 56L29 56L29 57L31 57L31 56L34 56L34 55L37 55L37 54L38 54L38 53L39 53L39 55L38 55L38 56L35 56L35 57L38 57L38 56L39 56L39 55L40 55L40 52L41 52L41 51L42 51L42 50L44 50L44 48L45 48L45 50L46 50L46 51L45 51L45 52L46 52L46 53L47 53L47 52L48 52L48 53L51 53L51 54L50 54L50 55L51 55L51 56L49 56L49 54L47 54L47 55L48 55L48 57L52 57L52 56L54 56L54 57L56 57L56 56L55 56L55 53L54 53L54 52L55 52L55 49L54 49L54 48L55 48L55 47L56 47L56 48L57 48L57 47L56 47L56 46L57 46L57 45L54 45L54 44L55 44L55 43L56 43L56 44L57 44L57 43L56 43L56 42L57 42L57 41L56 41L56 42L55 42L55 41L54 41L54 40L55 40L55 39L57 39L57 37L53 37L53 38L54 38L54 39L53 39L53 40L52 40L52 41L54 41L54 43L53 43L53 44L51 44L51 43L52 43L52 42L51 42L51 41L49 41L49 40L51 40L51 39L52 39L52 38L51 38L51 37L52 37L52 36L55 36L55 35L53 35L53 34L54 34L54 33L53 33L53 32L57 32L57 31L56 31L56 30L57 30L57 29L56 29L56 26L55 26L55 25L56 25L56 24L55 24L55 23L56 23L56 22L57 22L57 21L54 21L54 22L55 22L55 23L52 23L52 24L51 24L51 22L50 22L50 19L49 19L49 18L50 18L50 17L51 17L51 19L52 19L52 20L57 20L57 19L56 19L56 18L57 18L57 16L56 16L56 14L57 14L57 12L56 12L56 14L55 14L55 13L54 13L54 14L55 14L55 15L54 15L54 16L53 16L53 15L52 15L52 16L53 16L53 18L52 18L52 17L51 17L51 14L52 14L52 13L51 13L51 12L50 12L50 13L47 13L47 14L46 14L46 12L45 12L45 15L44 15L44 11L42 11L42 10L45 10L45 9L46 9L46 8L48 8L48 7L49 7L49 6L48 6L48 7L47 7L47 5L48 5L48 0L44 0L44 1L47 1L47 2L39 2L39 1L36 1L36 0L35 0L35 1L34 1L34 0L32 0L32 1L31 1L31 0L30 0L30 1L29 1L29 0L27 0L27 1L26 1L26 0L24 0L24 1L23 1L23 0L21 0L21 1L20 1L20 2L21 2L21 3L22 3L22 2L21 2L21 1L23 1L23 2L25 2L25 3L24 3L24 4L21 4L21 5L24 5L24 4L25 4L25 6L24 6L24 7L23 7L23 6L22 6L22 7L23 7L23 9L22 9L22 8L21 8L21 9L22 9L22 10L20 10L20 8L18 8L18 7L19 7L19 6L20 6L20 7L21 7L21 6L20 6L20 5L18 5L18 4L20 4L20 3L19 3L19 1L16 1L16 0ZM41 0L41 1L43 1L43 0ZM25 1L25 2L26 2L26 1ZM30 1L30 2L29 2L29 3L28 3L28 2L27 2L27 3L28 3L28 4L29 4L29 3L30 3L30 4L31 4L31 7L32 7L32 6L33 6L33 7L34 7L34 6L35 6L35 7L36 7L36 8L32 8L32 9L31 9L31 11L30 11L30 12L31 12L31 11L32 11L32 13L33 13L33 14L31 14L31 15L33 15L33 14L35 14L35 15L34 15L34 16L35 16L35 17L34 17L34 18L33 18L33 16L30 16L30 13L29 13L29 12L28 12L28 13L26 13L26 14L24 14L24 13L25 13L25 12L27 12L27 11L29 11L29 10L27 10L27 9L26 9L26 6L25 6L25 7L24 7L24 8L25 8L25 10L22 10L22 11L20 11L20 10L18 10L18 9L16 9L16 6L15 6L15 5L16 5L16 4L18 4L18 2L16 2L16 4L15 4L15 5L14 5L14 6L13 6L13 7L14 7L14 9L13 9L13 10L12 10L12 11L11 11L11 12L10 12L10 11L9 11L9 10L10 10L10 8L9 8L9 9L6 9L6 10L8 10L8 11L9 11L9 14L8 14L8 12L7 12L7 11L6 11L6 12L5 12L5 14L8 14L8 17L9 17L9 19L8 19L8 20L9 20L9 22L11 22L11 24L9 24L9 23L8 23L8 25L11 25L11 26L9 26L9 27L10 27L10 28L9 28L9 32L10 32L10 30L11 30L11 28L13 28L13 30L12 30L12 31L11 31L11 32L12 32L12 33L13 33L13 36L12 36L12 35L11 35L11 34L10 34L10 33L8 33L8 32L7 32L7 31L4 31L4 32L5 32L5 35L4 35L4 36L5 36L5 38L8 38L8 37L9 37L9 39L8 39L8 40L7 40L7 39L6 39L6 40L5 40L5 41L4 41L4 42L5 42L5 41L6 41L6 42L7 42L7 41L8 41L8 40L9 40L9 39L12 39L12 40L11 40L11 42L12 42L12 40L13 40L13 41L14 41L14 43L16 43L16 44L14 44L14 45L16 45L16 44L18 44L18 45L19 45L19 46L20 46L20 47L19 47L19 49L20 49L20 50L19 50L19 53L21 53L21 54L22 54L22 53L23 53L23 54L24 54L24 53L23 53L23 52L24 52L24 51L25 51L25 53L26 53L26 50L23 50L23 49L24 49L24 48L25 48L25 49L26 49L26 46L30 46L30 44L32 44L32 45L33 45L33 46L39 46L39 47L38 47L38 48L37 48L37 47L35 47L35 48L32 48L32 46L31 46L31 48L32 48L32 49L31 49L31 52L32 52L32 54L36 54L36 53L34 53L34 50L35 50L35 48L37 48L37 49L38 49L38 50L37 50L37 53L38 53L38 52L40 52L40 51L41 51L41 50L42 50L42 49L43 49L43 48L44 48L44 46L45 46L45 43L43 43L43 42L42 42L42 41L43 41L43 40L44 40L44 42L47 42L47 41L48 41L48 40L47 40L47 41L45 41L45 38L46 38L46 39L47 39L47 38L48 38L48 36L50 36L50 35L51 35L51 36L52 36L52 34L53 34L53 33L51 33L51 32L53 32L53 31L55 31L55 30L56 30L56 29L55 29L55 28L54 28L54 29L55 29L55 30L53 30L53 31L51 31L51 32L50 32L50 31L48 31L48 28L47 28L47 27L46 27L46 28L47 28L47 29L46 29L46 30L44 30L44 31L46 31L46 32L42 32L42 33L44 33L44 34L40 34L40 33L41 33L41 32L40 32L40 31L36 31L36 30L42 30L42 31L43 31L43 30L42 30L42 29L43 29L43 28L44 28L44 29L45 29L45 27L44 27L44 25L45 25L45 26L48 26L48 25L50 25L50 26L51 26L51 24L50 24L50 22L47 22L47 21L48 21L48 20L49 20L49 19L48 19L48 18L47 18L47 17L48 17L48 16L49 16L49 17L50 17L50 14L51 14L51 13L50 13L50 14L49 14L49 15L46 15L46 16L47 16L47 17L45 17L45 16L42 16L42 15L43 15L43 14L42 14L42 11L41 11L41 10L42 10L42 9L41 9L41 8L40 8L40 6L41 6L41 7L42 7L42 5L41 5L41 4L43 4L43 7L44 7L44 6L45 6L45 7L46 7L46 6L45 6L45 5L44 5L44 4L46 4L46 5L47 5L47 3L40 3L40 6L39 6L39 2L38 2L38 3L37 3L37 2L36 2L36 1L35 1L35 2L34 2L34 1L32 1L32 2L34 2L34 3L35 3L35 4L33 4L33 3L32 3L32 4L31 4L31 3L30 3L30 2L31 2L31 1ZM8 3L8 4L10 4L10 3ZM25 3L25 4L26 4L26 3ZM36 3L36 5L35 5L35 6L36 6L36 7L37 7L37 6L36 6L36 5L38 5L38 4L37 4L37 3ZM27 5L27 8L30 8L30 5ZM33 5L33 6L34 6L34 5ZM9 6L9 7L10 7L10 6ZM14 6L14 7L15 7L15 6ZM17 6L17 7L18 7L18 6ZM28 6L28 7L29 7L29 6ZM38 6L38 7L39 7L39 6ZM36 8L36 9L35 9L35 10L37 10L37 12L36 12L36 11L35 11L35 12L34 12L34 10L33 10L33 9L32 9L32 10L33 10L33 13L38 13L38 12L39 12L39 11L40 11L40 12L41 12L41 11L40 11L40 10L41 10L41 9L40 9L40 10L39 10L39 11L38 11L38 9L39 9L39 8ZM43 8L43 9L45 9L45 8ZM49 8L49 9L47 9L47 10L46 10L46 11L47 11L47 12L49 12L49 11L52 11L52 12L53 12L53 11L54 11L54 12L55 12L55 11L56 11L56 10L57 10L57 9L56 9L56 8L55 8L55 9L56 9L56 10L55 10L55 11L54 11L54 10L49 10L49 9L50 9L50 8ZM51 8L51 9L52 9L52 8ZM53 8L53 9L54 9L54 8ZM15 9L15 11L16 11L16 9ZM17 10L17 11L18 11L18 10ZM26 10L26 11L27 11L27 10ZM47 10L47 11L49 11L49 10ZM3 11L3 12L4 12L4 11ZM13 11L13 12L12 12L12 13L11 13L11 15L10 15L10 14L9 14L9 15L10 15L10 16L9 16L9 17L11 17L11 18L12 18L12 19L10 19L10 20L11 20L11 22L12 22L12 21L15 21L15 22L14 22L14 24L13 24L13 23L12 23L12 25L14 25L14 26L11 26L11 27L14 27L14 28L15 28L15 31L12 31L12 32L14 32L14 33L19 33L19 34L16 34L16 35L15 35L15 34L14 34L14 35L15 35L15 36L14 36L14 37L12 37L12 36L11 36L11 35L10 35L10 34L9 34L9 35L7 35L7 34L8 34L8 33L7 33L7 32L6 32L6 33L7 33L7 34L6 34L6 35L5 35L5 36L6 36L6 37L7 37L7 36L9 36L9 37L10 37L10 36L11 36L11 38L12 38L12 39L14 39L14 37L16 37L16 38L15 38L15 39L16 39L16 40L17 40L17 41L18 41L18 42L16 42L16 43L18 43L18 42L20 42L20 40L19 40L19 39L20 39L20 38L19 38L19 39L17 39L17 38L18 38L18 37L20 37L20 33L19 33L19 32L20 32L20 30L19 30L19 29L21 29L21 31L22 31L22 32L23 32L23 36L24 36L24 37L22 37L22 36L21 36L21 37L22 37L22 38L24 38L24 37L25 37L25 36L26 36L26 35L27 35L27 34L25 34L25 31L27 31L27 32L26 32L26 33L30 33L30 32L34 32L34 31L35 31L35 32L36 32L36 33L35 33L35 34L34 34L34 33L32 33L32 34L31 34L31 35L30 35L30 34L29 34L29 35L30 35L30 36L29 36L29 37L28 37L28 36L27 36L27 37L28 37L28 38L26 38L26 39L25 39L25 41L24 41L24 39L21 39L21 40L23 40L23 41L22 41L22 42L21 42L21 43L22 43L22 42L23 42L23 43L24 43L24 44L25 44L25 45L23 45L23 46L22 46L22 48L23 48L23 46L24 46L24 47L25 47L25 45L26 45L26 44L25 44L25 42L26 42L26 43L27 43L27 45L29 45L29 43L32 43L32 44L34 44L34 42L32 42L32 41L31 41L31 40L33 40L33 41L35 41L35 42L36 42L36 43L35 43L35 45L37 45L37 42L38 42L38 44L39 44L39 43L40 43L40 44L43 44L43 45L42 45L42 46L41 46L41 47L40 47L40 48L38 48L38 49L39 49L39 50L38 50L38 51L40 51L40 50L41 50L41 49L40 49L40 48L43 48L43 47L42 47L42 46L44 46L44 44L43 44L43 43L42 43L42 42L41 42L41 41L40 41L40 40L41 40L41 39L40 39L40 38L42 38L42 40L43 40L43 37L44 37L44 38L45 38L45 37L44 37L44 35L40 35L40 34L38 34L38 33L40 33L40 32L38 32L38 33L37 33L37 32L36 32L36 31L35 31L35 30L36 30L36 29L38 29L38 28L39 28L39 29L40 29L40 28L41 28L41 27L42 27L42 28L43 28L43 27L42 27L42 26L43 26L43 25L44 25L44 23L45 23L45 21L44 21L44 23L42 23L42 22L43 22L43 21L42 21L42 22L41 22L41 25L42 25L42 26L41 26L41 27L40 27L40 25L39 25L39 26L38 26L38 25L37 25L37 24L38 24L38 23L39 23L39 24L40 24L40 22L38 22L38 19L40 19L40 20L39 20L39 21L40 21L40 20L41 20L41 19L42 19L42 20L45 20L45 19L47 19L47 18L44 18L44 19L42 19L42 18L43 18L43 17L42 17L42 18L41 18L41 19L40 19L40 16L41 16L41 15L42 15L42 14L40 14L40 13L39 13L39 14L37 14L37 16L36 16L36 15L35 15L35 16L36 16L36 18L38 18L38 19L37 19L37 20L36 20L36 21L37 21L37 22L36 22L36 23L33 23L33 21L35 21L35 18L34 18L34 19L32 19L32 17L29 17L29 18L31 18L31 19L30 19L30 20L31 20L31 21L30 21L30 22L29 22L29 23L28 23L28 24L27 24L27 25L26 25L26 24L25 24L25 23L26 23L26 22L25 22L25 21L26 21L26 17L28 17L28 16L26 16L26 15L29 15L29 13L28 13L28 14L26 14L26 15L23 15L23 16L24 16L24 17L23 17L23 18L24 18L24 19L23 19L23 21L22 21L22 20L21 20L21 19L22 19L22 18L21 18L21 19L19 19L19 18L17 18L17 19L16 19L16 17L17 17L17 16L16 16L16 15L18 15L18 17L19 17L19 15L18 15L18 14L19 14L19 13L22 13L22 12L19 12L19 13L18 13L18 12L15 12L15 14L14 14L14 13L13 13L13 12L14 12L14 11ZM23 11L23 13L24 13L24 11ZM6 12L6 13L7 13L7 12ZM0 13L0 14L1 14L1 13ZM12 13L12 14L13 14L13 15L14 15L14 14L13 14L13 13ZM16 13L16 14L18 14L18 13ZM3 14L3 15L4 15L4 14ZM21 14L21 16L20 16L20 17L21 17L21 16L22 16L22 14ZM0 15L0 16L1 16L1 15ZM38 15L38 16L37 16L37 17L38 17L38 18L39 18L39 17L38 17L38 16L40 16L40 15ZM12 16L12 18L14 18L14 17L15 17L15 16L14 16L14 17L13 17L13 16ZM25 16L25 17L26 17L26 16ZM54 16L54 17L55 17L55 18L54 18L54 19L55 19L55 18L56 18L56 16ZM27 18L27 20L29 20L29 19L28 19L28 18ZM13 19L13 20L14 20L14 19ZM17 19L17 20L15 20L15 21L16 21L16 22L15 22L15 23L16 23L16 25L15 25L15 24L14 24L14 25L15 25L15 26L16 26L16 27L15 27L15 28L17 28L17 29L16 29L16 31L15 31L15 32L19 32L19 31L18 31L18 30L17 30L17 29L18 29L18 28L17 28L17 27L18 27L18 26L19 26L19 28L20 28L20 27L22 27L22 26L23 26L23 28L24 28L24 29L22 29L22 28L21 28L21 29L22 29L22 31L23 31L23 32L24 32L24 31L25 31L25 30L26 30L26 27L24 27L24 26L23 26L23 25L24 25L24 23L23 23L23 22L24 22L24 21L23 21L23 22L22 22L22 21L21 21L21 20L19 20L19 19ZM17 20L17 21L19 21L19 22L18 22L18 23L17 23L17 25L19 25L19 26L20 26L20 25L21 25L21 26L22 26L22 25L21 25L21 24L22 24L22 22L21 22L21 21L19 21L19 20ZM32 20L32 21L33 21L33 20ZM27 21L27 22L28 22L28 21ZM19 22L19 23L20 23L20 22ZM30 22L30 23L31 23L31 25L32 25L32 26L33 26L33 27L31 27L31 28L32 28L32 30L31 30L31 31L33 31L33 30L35 30L35 29L33 29L33 28L34 28L34 26L36 26L36 25L35 25L35 24L32 24L32 23L31 23L31 22ZM37 22L37 23L38 23L38 22ZM48 23L48 24L45 24L45 25L48 25L48 24L49 24L49 23ZM0 24L0 25L1 25L1 27L2 27L2 25L1 25L1 24ZM19 24L19 25L20 25L20 24ZM28 24L28 25L30 25L30 24ZM52 24L52 26L53 26L53 27L55 27L55 26L54 26L54 25L53 25L53 24ZM6 25L6 26L7 26L7 25ZM25 25L25 26L26 26L26 25ZM33 25L33 26L34 26L34 25ZM5 27L5 30L8 30L8 27ZM27 27L27 30L30 30L30 27ZM37 27L37 28L38 28L38 27ZM39 27L39 28L40 28L40 27ZM49 27L49 30L52 30L52 27ZM6 28L6 29L7 29L7 28ZM28 28L28 29L29 29L29 28ZM50 28L50 29L51 29L51 28ZM3 29L3 30L4 30L4 29ZM24 29L24 30L23 30L23 31L24 31L24 30L25 30L25 29ZM46 30L46 31L47 31L47 32L46 32L46 33L47 33L47 34L45 34L45 36L46 36L46 35L48 35L48 33L47 33L47 32L48 32L48 31L47 31L47 30ZM28 31L28 32L29 32L29 31ZM49 32L49 34L50 34L50 32ZM3 33L3 34L4 34L4 33ZM21 33L21 35L22 35L22 33ZM36 33L36 34L35 34L35 35L34 35L34 34L32 34L32 38L31 38L31 36L30 36L30 38L31 38L31 39L29 39L29 40L31 40L31 39L33 39L33 40L37 40L37 41L36 41L36 42L37 42L37 41L38 41L38 42L40 42L40 43L41 43L41 42L40 42L40 41L38 41L38 39L36 39L36 38L35 38L35 37L36 37L36 36L37 36L37 35L38 35L38 36L40 36L40 37L42 37L42 36L40 36L40 35L38 35L38 34L37 34L37 33ZM55 33L55 34L57 34L57 33ZM1 34L1 35L2 35L2 34ZM24 34L24 36L25 36L25 34ZM36 34L36 35L37 35L37 34ZM6 35L6 36L7 36L7 35ZM16 35L16 37L18 37L18 35ZM56 35L56 36L57 36L57 35ZM33 36L33 37L34 37L34 36ZM38 37L38 38L39 38L39 37ZM33 38L33 39L35 39L35 38ZM49 38L49 39L51 39L51 38ZM27 39L27 41L26 41L26 42L27 42L27 43L29 43L29 42L31 42L31 41L28 41L28 39ZM39 39L39 40L40 40L40 39ZM6 40L6 41L7 41L7 40ZM23 41L23 42L24 42L24 41ZM2 42L2 44L3 44L3 45L2 45L2 46L1 46L1 47L2 47L2 46L3 46L3 47L5 47L5 46L7 46L7 45L6 45L6 44L5 44L5 45L4 45L4 44L3 44L3 42ZM50 42L50 43L51 43L51 42ZM48 43L48 44L47 44L47 45L46 45L46 46L47 46L47 47L45 47L45 48L46 48L46 50L47 50L47 51L46 51L46 52L47 52L47 51L48 51L48 48L49 48L49 47L51 47L51 48L54 48L54 47L53 47L53 45L51 45L51 44L50 44L50 45L48 45L48 44L49 44L49 43ZM19 44L19 45L22 45L22 44ZM47 45L47 46L48 46L48 45ZM50 45L50 46L51 46L51 47L52 47L52 46L51 46L51 45ZM20 47L20 48L21 48L21 47ZM28 47L28 48L29 48L29 47ZM6 48L6 49L7 49L7 48ZM13 49L13 50L14 50L14 52L16 52L16 51L15 51L15 50L14 50L14 49ZM21 49L21 50L20 50L20 51L22 51L22 52L21 52L21 53L22 53L22 52L23 52L23 51L22 51L22 49ZM27 49L27 52L30 52L30 49ZM33 49L33 50L34 50L34 49ZM49 49L49 52L52 52L52 49ZM53 49L53 50L54 50L54 49ZM56 49L56 50L57 50L57 49ZM28 50L28 51L29 51L29 50ZM50 50L50 51L51 51L51 50ZM32 51L32 52L33 52L33 51ZM35 51L35 52L36 52L36 51ZM43 51L43 52L42 52L42 53L41 53L41 55L42 55L42 56L41 56L41 57L42 57L42 56L43 56L43 57L44 57L44 56L45 56L45 55L46 55L46 54L45 54L45 53L44 53L44 51ZM56 51L56 53L57 53L57 51ZM8 52L8 57L10 57L10 56L12 56L12 55L10 55L10 54L13 54L13 55L15 55L15 56L13 56L13 57L15 57L15 56L16 56L16 57L17 57L17 56L16 56L16 55L15 55L15 54L16 54L16 53L15 53L15 54L14 54L14 53L11 53L11 52L10 52L10 54L9 54L9 52ZM29 53L29 54L30 54L30 53ZM43 53L43 56L44 56L44 55L45 55L45 54L44 54L44 53ZM53 53L53 54L51 54L51 55L54 55L54 53ZM19 54L19 55L20 55L20 54ZM9 55L9 56L10 56L10 55ZM46 56L46 57L47 57L47 56ZM0 0L0 7L7 7L7 0ZM1 1L1 6L6 6L6 1ZM2 2L2 5L5 5L5 2ZM50 0L50 7L57 7L57 0ZM51 1L51 6L56 6L56 1ZM52 2L52 5L55 5L55 2ZM0 50L0 57L7 57L7 50ZM1 51L1 56L6 56L6 51ZM2 52L2 55L5 55L5 52Z" fill="#000000"/></g></g></svg>
