<?xml version="1.0" encoding="UTF-8"?>
<svg xmlns="http://www.w3.org/2000/svg" version="1.1" width="300" height="300" viewBox="0 0 300 300"><rect x="0" y="0" width="300" height="300" fill="#ffffff"/><g transform="scale(4.918)"><g transform="translate(2,2)"><path fill-rule="evenodd" d="M9 0L9 1L8 1L8 2L9 2L9 1L10 1L10 2L11 2L11 1L10 1L10 0ZM12 0L12 2L13 2L13 0ZM14 0L14 1L15 1L15 2L14 2L14 3L12 3L12 5L13 5L13 6L12 6L12 7L13 7L13 6L14 6L14 7L15 7L15 6L16 6L16 9L17 9L17 11L16 11L16 10L15 10L15 15L14 15L14 13L12 13L12 14L11 14L11 12L12 12L12 10L9 10L9 8L11 8L11 6L10 6L10 7L9 7L9 5L10 5L10 4L9 4L9 3L8 3L8 4L9 4L9 5L8 5L8 7L9 7L9 8L6 8L6 9L7 9L7 10L5 10L5 8L0 8L0 9L2 9L2 10L0 10L0 11L1 11L1 12L0 12L0 13L2 13L2 11L3 11L3 12L5 12L5 13L3 13L3 14L5 14L5 17L7 17L7 18L6 18L6 19L5 19L5 20L6 20L6 21L8 21L8 20L9 20L9 21L11 21L11 20L12 20L12 19L14 19L14 20L13 20L13 21L12 21L12 22L13 22L13 21L15 21L15 22L14 22L14 24L15 24L15 25L13 25L13 27L11 27L11 26L10 26L10 25L11 25L11 23L10 23L10 22L9 22L9 23L8 23L8 24L9 24L9 25L8 25L8 26L4 26L4 23L5 23L5 22L4 22L4 21L3 21L3 20L4 20L4 19L2 19L2 18L3 18L3 17L2 17L2 16L1 16L1 17L0 17L0 18L1 18L1 20L2 20L2 21L0 21L0 22L2 22L2 23L0 23L0 24L1 24L1 26L0 26L0 27L1 27L1 30L2 30L2 27L3 27L3 26L4 26L4 28L3 28L3 30L4 30L4 31L2 31L2 32L1 32L1 31L0 31L0 32L1 32L1 33L2 33L2 34L1 34L1 35L2 35L2 34L3 34L3 33L2 33L2 32L4 32L4 31L9 31L9 30L10 30L10 31L11 31L11 33L12 33L12 34L10 34L10 33L7 33L7 32L5 32L5 33L4 33L4 34L5 34L5 35L4 35L4 36L2 36L2 37L1 37L1 36L0 36L0 37L1 37L1 38L0 38L0 39L1 39L1 38L2 38L2 40L3 40L3 38L2 38L2 37L4 37L4 38L5 38L5 39L4 39L4 42L3 42L3 41L1 41L1 40L0 40L0 43L1 43L1 42L3 42L3 46L2 46L2 44L1 44L1 46L0 46L0 48L5 48L5 47L7 47L7 48L6 48L6 49L8 49L8 51L9 51L9 52L8 52L8 57L9 57L9 52L10 52L10 53L12 53L12 52L14 52L14 48L15 48L15 49L17 49L17 50L16 50L16 51L15 51L15 52L16 52L16 51L17 51L17 50L18 50L18 51L19 51L19 52L17 52L17 53L19 53L19 54L20 54L20 55L17 55L17 56L16 56L16 55L13 55L13 56L12 56L12 55L11 55L11 57L14 57L14 56L15 56L15 57L20 57L20 56L21 56L21 55L22 55L22 56L23 56L23 57L24 57L24 56L25 56L25 57L26 57L26 56L28 56L28 55L26 55L26 54L27 54L27 53L28 53L28 54L29 54L29 55L30 55L30 56L29 56L29 57L32 57L32 56L33 56L33 57L34 57L34 56L35 56L35 57L37 57L37 56L38 56L38 57L39 57L39 56L41 56L41 57L42 57L42 56L43 56L43 57L44 57L44 56L45 56L45 57L47 57L47 56L48 56L48 57L49 57L49 54L47 54L47 55L46 55L46 56L45 56L45 55L44 55L44 56L43 56L43 53L44 53L44 54L45 54L45 53L44 53L44 49L43 49L43 48L45 48L45 49L46 49L46 48L47 48L47 46L46 46L46 45L47 45L47 44L51 44L51 43L50 43L50 42L51 42L51 41L49 41L49 40L52 40L52 41L53 41L53 40L54 40L54 43L53 43L53 44L52 44L52 45L51 45L51 46L52 46L52 45L54 45L54 46L53 46L53 47L54 47L54 48L52 48L52 47L49 47L49 48L48 48L48 51L47 51L47 50L45 50L45 52L48 52L48 53L50 53L50 55L51 55L51 56L50 56L50 57L52 57L52 56L54 56L54 57L56 57L56 56L55 56L55 55L54 55L54 54L53 54L53 53L54 53L54 52L55 52L55 50L57 50L57 49L54 49L54 48L57 48L57 47L56 47L56 46L57 46L57 45L56 45L56 46L55 46L55 45L54 45L54 44L56 44L56 42L57 42L57 41L56 41L56 42L55 42L55 39L57 39L57 37L56 37L56 34L57 34L57 32L56 32L56 30L57 30L57 29L56 29L56 28L55 28L55 27L56 27L56 26L55 26L55 25L56 25L56 24L55 24L55 23L56 23L56 22L57 22L57 21L56 21L56 20L57 20L57 19L56 19L56 20L55 20L55 19L51 19L51 18L50 18L50 17L51 17L51 16L53 16L53 17L52 17L52 18L54 18L54 16L55 16L55 18L57 18L57 17L56 17L56 16L57 16L57 15L56 15L56 14L57 14L57 13L56 13L56 14L54 14L54 16L53 16L53 15L51 15L51 14L52 14L52 13L51 13L51 14L50 14L50 15L51 15L51 16L49 16L49 17L48 17L48 16L47 16L47 17L48 17L48 18L46 18L46 17L44 17L44 16L46 16L46 15L49 15L49 13L50 13L50 11L52 11L52 12L53 12L53 11L54 11L54 12L55 12L55 11L56 11L56 12L57 12L57 11L56 11L56 8L55 8L55 11L54 11L54 10L53 10L53 9L54 9L54 8L53 8L53 9L52 9L52 8L51 8L51 9L52 9L52 10L49 10L49 9L50 9L50 8L49 8L49 6L48 6L48 7L47 7L47 5L48 5L48 0L44 0L44 1L47 1L47 2L42 2L42 1L43 1L43 0L42 0L42 1L40 1L40 0L39 0L39 1L38 1L38 0L35 0L35 1L34 1L34 0L33 0L33 1L32 1L32 2L30 2L30 1L31 1L31 0L30 0L30 1L29 1L29 0L27 0L27 1L28 1L28 3L27 3L27 2L25 2L25 1L26 1L26 0L24 0L24 1L23 1L23 0L21 0L21 1L23 1L23 2L25 2L25 3L24 3L24 4L22 4L22 2L19 2L19 1L18 1L18 2L17 2L17 1L16 1L16 0ZM33 1L33 2L34 2L34 3L32 3L32 4L31 4L31 7L32 7L32 6L33 6L33 8L32 8L32 9L31 9L31 10L29 10L29 9L28 9L28 11L30 11L30 12L31 12L31 11L32 11L32 15L33 15L33 14L36 14L36 12L37 12L37 11L38 11L38 10L39 10L39 9L38 9L38 10L37 10L37 11L36 11L36 10L35 10L35 7L36 7L36 8L37 8L37 7L38 7L38 8L40 8L40 10L41 10L41 8L40 8L40 6L39 6L39 7L38 7L38 6L37 6L37 5L36 5L36 3L37 3L37 4L38 4L38 5L39 5L39 4L38 4L38 3L39 3L39 2L38 2L38 1L37 1L37 2L36 2L36 1L35 1L35 2L34 2L34 1ZM18 2L18 3L16 3L16 4L15 4L15 3L14 3L14 4L15 4L15 5L14 5L14 6L15 6L15 5L16 5L16 4L18 4L18 5L17 5L17 7L18 7L18 8L21 8L21 9L20 9L20 10L19 10L19 9L18 9L18 11L17 11L17 12L18 12L18 13L16 13L16 15L15 15L15 16L14 16L14 15L13 15L13 14L12 14L12 17L11 17L11 16L9 16L9 15L11 15L11 14L10 14L10 12L11 12L11 11L9 11L9 12L8 12L8 10L7 10L7 11L6 11L6 12L8 12L8 14L7 14L7 13L6 13L6 14L7 14L7 15L6 15L6 16L7 16L7 17L9 17L9 18L10 18L10 17L11 17L11 18L12 18L12 17L13 17L13 16L14 16L14 18L15 18L15 17L16 17L16 18L19 18L19 21L18 21L18 19L16 19L16 20L15 20L15 21L16 21L16 22L15 22L15 23L16 23L16 25L15 25L15 28L17 28L17 29L16 29L16 30L17 30L17 31L16 31L16 32L18 32L18 31L20 31L20 32L19 32L19 33L16 33L16 35L17 35L17 36L16 36L16 37L15 37L15 38L13 38L13 39L12 39L12 41L11 41L11 40L10 40L10 41L9 41L9 40L8 40L8 39L9 39L9 38L10 38L10 39L11 39L11 38L12 38L12 37L13 37L13 36L14 36L14 35L15 35L15 33L14 33L14 32L15 32L15 31L14 31L14 30L15 30L15 29L14 29L14 27L13 27L13 28L10 28L10 27L9 27L9 29L11 29L11 30L12 30L12 31L14 31L14 32L13 32L13 33L14 33L14 35L10 35L10 36L12 36L12 37L11 37L11 38L10 38L10 37L6 37L6 38L7 38L7 39L6 39L6 40L5 40L5 42L4 42L4 44L7 44L7 43L6 43L6 42L9 42L9 43L8 43L8 45L9 45L9 47L8 47L8 46L7 46L7 45L6 45L6 46L7 46L7 47L8 47L8 48L9 48L9 51L11 51L11 52L12 52L12 50L13 50L13 49L12 49L12 48L13 48L13 47L11 47L11 48L10 48L10 45L12 45L12 44L13 44L13 45L15 45L15 44L18 44L18 45L16 45L16 46L15 46L15 47L16 47L16 48L17 48L17 47L18 47L18 45L20 45L20 46L19 46L19 49L18 49L18 50L19 50L19 49L20 49L20 50L21 50L21 49L22 49L22 51L23 51L23 52L22 52L22 53L21 53L21 52L19 52L19 53L21 53L21 54L22 54L22 55L23 55L23 56L24 56L24 55L23 55L23 54L24 54L24 53L23 53L23 52L24 52L24 51L25 51L25 53L26 53L26 50L23 50L23 49L24 49L24 45L25 45L25 48L26 48L26 46L27 46L27 47L28 47L28 48L29 48L29 47L28 47L28 46L31 46L31 45L28 45L28 44L27 44L27 43L26 43L26 42L27 42L27 41L28 41L28 42L29 42L29 43L30 43L30 44L32 44L32 47L31 47L31 48L32 48L32 49L31 49L31 52L32 52L32 54L37 54L37 53L36 53L36 52L37 52L37 51L36 51L36 52L35 52L35 53L33 53L33 52L32 52L32 50L33 50L33 51L34 51L34 50L36 50L36 48L37 48L37 50L39 50L39 51L38 51L38 54L39 54L39 52L40 52L40 55L41 55L41 52L40 52L40 51L41 51L41 50L42 50L42 53L43 53L43 50L42 50L42 49L41 49L41 48L42 48L42 47L45 47L45 43L43 43L43 44L40 44L40 43L42 43L42 42L40 42L40 41L41 41L41 40L42 40L42 41L43 41L43 42L47 42L47 43L49 43L49 42L47 42L47 41L48 41L48 40L49 40L49 39L47 39L47 37L48 37L48 38L49 38L49 37L50 37L50 39L51 39L51 38L53 38L53 36L52 36L52 34L54 34L54 33L55 33L55 34L56 34L56 32L54 32L54 31L55 31L55 30L56 30L56 29L55 29L55 28L54 28L54 29L53 29L53 31L52 31L52 32L54 32L54 33L51 33L51 32L50 32L50 31L48 31L48 27L47 27L47 25L50 25L50 26L52 26L52 25L53 25L53 27L55 27L55 26L54 26L54 25L55 25L55 24L52 24L52 23L53 23L53 22L54 22L54 23L55 23L55 22L54 22L54 21L55 21L55 20L51 20L51 19L50 19L50 18L49 18L49 19L50 19L50 22L49 22L49 23L48 23L48 24L47 24L47 21L48 21L48 20L47 20L47 19L46 19L46 18L44 18L44 17L43 17L43 18L42 18L42 17L41 17L41 16L44 16L44 15L43 15L43 14L42 14L42 11L41 11L41 12L40 12L40 11L39 11L39 12L38 12L38 13L37 13L37 14L40 14L40 15L36 15L36 16L35 16L35 15L34 15L34 16L30 16L30 13L29 13L29 12L28 12L28 13L27 13L27 14L26 14L26 13L25 13L25 12L27 12L27 11L26 11L26 10L27 10L27 9L26 9L26 6L25 6L25 4L26 4L26 3L25 3L25 4L24 4L24 5L23 5L23 7L24 7L24 8L22 8L22 4L21 4L21 3L20 3L20 4L18 4L18 3L19 3L19 2ZM29 2L29 3L28 3L28 4L30 4L30 2ZM41 2L41 3L40 3L40 5L42 5L42 6L41 6L41 7L42 7L42 6L43 6L43 8L42 8L42 9L43 9L43 10L44 10L44 9L45 9L45 12L44 12L44 14L45 14L45 12L46 12L46 14L47 14L47 13L49 13L49 12L47 12L47 9L49 9L49 8L47 8L47 7L46 7L46 5L47 5L47 3L43 3L43 5L42 5L42 4L41 4L41 3L42 3L42 2ZM44 4L44 5L46 5L46 4ZM18 5L18 7L19 7L19 6L20 6L20 7L21 7L21 6L20 6L20 5ZM27 5L27 8L30 8L30 5ZM33 5L33 6L34 6L34 7L35 7L35 6L36 6L36 7L37 7L37 6L36 6L36 5L35 5L35 6L34 6L34 5ZM24 6L24 7L25 7L25 6ZM28 6L28 7L29 7L29 6ZM44 6L44 7L45 7L45 9L47 9L47 8L46 8L46 7L45 7L45 6ZM12 8L12 9L14 9L14 8ZM24 8L24 9L22 9L22 10L20 10L20 13L18 13L18 15L21 15L21 16L20 16L20 17L21 17L21 18L20 18L20 19L21 19L21 21L19 21L19 22L18 22L18 21L17 21L17 22L18 22L18 23L19 23L19 24L17 24L17 25L18 25L18 27L17 27L17 26L16 26L16 27L17 27L17 28L18 28L18 29L17 29L17 30L20 30L20 31L22 31L22 29L24 29L24 30L25 30L25 31L24 31L24 32L23 32L23 36L24 36L24 37L21 37L21 38L22 38L22 40L23 40L23 41L24 41L24 42L26 42L26 41L27 41L27 39L28 39L28 41L29 41L29 39L31 39L31 40L33 40L33 41L30 41L30 43L32 43L32 44L34 44L34 43L35 43L35 46L33 46L33 47L32 47L32 48L33 48L33 50L34 50L34 48L36 48L36 47L39 47L39 48L41 48L41 47L42 47L42 46L44 46L44 44L43 44L43 45L42 45L42 46L41 46L41 45L40 45L40 46L41 46L41 47L39 47L39 46L36 46L36 45L37 45L37 44L38 44L38 43L40 43L40 42L37 42L37 44L36 44L36 43L35 43L35 42L36 42L36 41L38 41L38 39L40 39L40 40L41 40L41 39L40 39L40 38L37 38L37 36L39 36L39 37L40 37L40 36L41 36L41 35L42 35L42 34L46 34L46 35L45 35L45 36L46 36L46 37L47 37L47 36L46 36L46 35L48 35L48 33L47 33L47 34L46 34L46 31L47 31L47 32L48 32L48 31L47 31L47 30L46 30L46 29L47 29L47 28L46 28L46 26L45 26L45 25L44 25L44 24L43 24L43 23L42 23L42 22L43 22L43 21L42 21L42 20L45 20L45 19L44 19L44 18L43 18L43 19L42 19L42 18L41 18L41 19L40 19L40 18L36 18L36 17L40 17L40 16L41 16L41 15L42 15L42 14L41 14L41 13L40 13L40 12L39 12L39 13L40 13L40 14L41 14L41 15L40 15L40 16L36 16L36 17L35 17L35 18L34 18L34 17L29 17L29 18L31 18L31 19L29 19L29 21L30 21L30 22L27 22L27 23L28 23L28 24L27 24L27 25L26 25L26 24L25 24L25 23L26 23L26 22L25 22L25 20L26 20L26 21L27 21L27 20L28 20L28 18L27 18L27 20L26 20L26 19L25 19L25 18L26 18L26 17L28 17L28 16L25 16L25 13L23 13L23 14L24 14L24 15L23 15L23 16L24 16L24 17L23 17L23 18L22 18L22 17L21 17L21 16L22 16L22 14L20 14L20 13L22 13L22 12L21 12L21 11L22 11L22 10L25 10L25 8ZM33 8L33 9L32 9L32 10L33 10L33 9L34 9L34 8ZM43 8L43 9L44 9L44 8ZM4 10L4 11L5 11L5 10ZM34 10L34 11L33 11L33 13L35 13L35 12L36 12L36 11L35 11L35 10ZM52 10L52 11L53 11L53 10ZM13 11L13 12L14 12L14 11ZM34 11L34 12L35 12L35 11ZM28 13L28 14L27 14L27 15L29 15L29 13ZM1 14L1 15L2 15L2 14ZM16 15L16 17L19 17L19 16L17 16L17 15ZM23 18L23 19L22 19L22 21L21 21L21 23L23 23L23 24L21 24L21 25L20 25L20 24L19 24L19 25L20 25L20 26L21 26L21 27L22 27L22 26L21 26L21 25L23 25L23 24L24 24L24 25L25 25L25 26L23 26L23 27L25 27L25 28L24 28L24 29L25 29L25 30L26 30L26 27L25 27L25 26L26 26L26 25L25 25L25 24L24 24L24 23L23 23L23 22L24 22L24 21L23 21L23 19L24 19L24 18ZM32 18L32 19L34 19L34 20L32 20L32 21L33 21L33 22L34 22L34 24L32 24L32 23L31 23L31 22L30 22L30 23L31 23L31 25L32 25L32 26L35 26L35 27L36 27L36 28L37 28L37 30L39 30L39 31L36 31L36 30L35 30L35 29L33 29L33 28L34 28L34 27L31 27L31 28L32 28L32 30L31 30L31 31L30 31L30 33L27 33L27 32L29 32L29 31L25 31L25 34L24 34L24 36L25 36L25 37L24 37L24 38L23 38L23 39L24 39L24 41L25 41L25 38L26 38L26 39L27 39L27 38L28 38L28 37L29 37L29 36L30 36L30 38L31 38L31 39L33 39L33 38L35 38L35 39L36 39L36 40L34 40L34 41L33 41L33 42L35 42L35 41L36 41L36 40L37 40L37 38L36 38L36 36L37 36L37 35L36 35L36 34L40 34L40 35L39 35L39 36L40 36L40 35L41 35L41 34L42 34L42 32L39 32L39 31L41 31L41 30L42 30L42 31L46 31L46 30L42 30L42 29L43 29L43 28L44 28L44 29L45 29L45 28L44 28L44 27L45 27L45 26L44 26L44 25L43 25L43 26L41 26L41 22L40 22L40 24L39 24L39 23L38 23L38 22L39 22L39 21L38 21L38 22L37 22L37 21L36 21L36 20L40 20L40 21L41 21L41 20L42 20L42 19L41 19L41 20L40 20L40 19L36 19L36 18L35 18L35 19L34 19L34 18ZM6 19L6 20L8 20L8 19ZM34 20L34 21L35 21L35 20ZM22 21L22 22L23 22L23 21ZM44 21L44 23L45 23L45 24L46 24L46 22L45 22L45 21ZM51 21L51 22L50 22L50 23L49 23L49 24L50 24L50 23L52 23L52 22L53 22L53 21ZM3 22L3 23L2 23L2 24L3 24L3 23L4 23L4 22ZM6 22L6 23L7 23L7 22ZM19 22L19 23L20 23L20 22ZM36 22L36 23L37 23L37 22ZM5 24L5 25L7 25L7 24ZM28 24L28 26L29 26L29 25L30 25L30 24ZM34 24L34 25L36 25L36 27L40 27L40 28L41 28L41 27L40 27L40 25L39 25L39 24ZM51 24L51 25L52 25L52 24ZM38 25L38 26L39 26L39 25ZM1 26L1 27L2 27L2 26ZM43 26L43 27L42 27L42 28L43 28L43 27L44 27L44 26ZM5 27L5 30L8 30L8 27ZM27 27L27 30L30 30L30 27ZM49 27L49 30L52 30L52 27ZM6 28L6 29L7 29L7 28ZM19 28L19 29L20 29L20 30L21 30L21 29L22 29L22 28L21 28L21 29L20 29L20 28ZM28 28L28 29L29 29L29 28ZM50 28L50 29L51 29L51 28ZM13 29L13 30L14 30L14 29ZM54 29L54 30L55 30L55 29ZM33 30L33 31L31 31L31 32L33 32L33 33L31 33L31 34L34 34L34 35L35 35L35 34L34 34L34 31L35 31L35 30ZM20 32L20 33L21 33L21 34L20 34L20 35L19 35L19 34L17 34L17 35L18 35L18 37L16 37L16 38L15 38L15 39L13 39L13 40L14 40L14 41L12 41L12 43L10 43L10 44L12 44L12 43L13 43L13 42L15 42L15 39L16 39L16 40L17 40L17 41L18 41L18 42L16 42L16 43L18 43L18 42L19 42L19 39L20 39L20 38L18 38L18 37L20 37L20 36L21 36L21 35L22 35L22 33L21 33L21 32ZM35 32L35 33L39 33L39 32ZM43 32L43 33L45 33L45 32ZM6 33L6 34L7 34L7 35L6 35L6 36L7 36L7 35L8 35L8 36L9 36L9 34L7 34L7 33ZM50 33L50 34L51 34L51 33ZM25 34L25 36L26 36L26 37L28 37L28 36L27 36L27 35L26 35L26 34ZM29 34L29 35L30 35L30 36L31 36L31 38L32 38L32 35L30 35L30 34ZM43 35L43 36L42 36L42 37L41 37L41 38L42 38L42 39L43 39L43 37L44 37L44 38L45 38L45 39L44 39L44 40L43 40L43 41L44 41L44 40L45 40L45 41L47 41L47 39L46 39L46 38L45 38L45 37L44 37L44 35ZM49 35L49 36L51 36L51 35ZM54 36L54 37L55 37L55 36ZM17 38L17 39L18 39L18 38ZM54 38L54 39L55 39L55 38ZM6 40L6 41L7 41L7 40ZM20 40L20 41L21 41L21 43L19 43L19 44L20 44L20 45L22 45L22 44L21 44L21 43L22 43L22 41L21 41L21 40ZM14 43L14 44L15 44L15 43ZM24 43L24 44L23 44L23 45L24 45L24 44L25 44L25 45L26 45L26 44L25 44L25 43ZM27 45L27 46L28 46L28 45ZM48 45L48 46L50 46L50 45ZM1 46L1 47L2 47L2 46ZM3 46L3 47L5 47L5 46ZM16 46L16 47L17 47L17 46ZM21 46L21 47L20 47L20 48L23 48L23 47L22 47L22 46ZM35 46L35 47L36 47L36 46ZM54 46L54 47L55 47L55 46ZM27 49L27 52L30 52L30 49ZM40 49L40 50L41 50L41 49ZM49 49L49 52L52 52L52 49ZM28 50L28 51L29 51L29 50ZM50 50L50 51L51 51L51 50ZM53 50L53 51L54 51L54 50ZM56 51L56 52L57 52L57 51ZM15 53L15 54L16 54L16 53ZM22 53L22 54L23 54L23 53ZM29 53L29 54L30 54L30 53ZM51 54L51 55L53 55L53 54ZM31 55L31 56L32 56L32 55ZM35 55L35 56L36 56L36 55ZM38 55L38 56L39 56L39 55ZM0 0L0 7L7 7L7 0ZM1 1L1 6L6 6L6 1ZM2 2L2 5L5 5L5 2ZM50 0L50 7L57 7L57 0ZM51 1L51 6L56 6L56 1ZM52 2L52 5L55 5L55 2ZM0 50L0 57L7 57L7 50ZM1 51L1 56L6 56L6 51ZM2 52L2 55L5 55L5 52Z" fill="#000000"/></g></g></svg>
