<?xml version="1.0" encoding="UTF-8"?>
<svg xmlns="http://www.w3.org/2000/svg" version="1.1" width="300" height="300" viewBox="0 0 300 300"><rect x="0" y="0" width="300" height="300" fill="#ffffff"/><g transform="scale(4.918)"><g transform="translate(2,2)"><path fill-rule="evenodd" d="M9 0L9 1L8 1L8 2L9 2L9 1L10 1L10 2L11 2L11 3L8 3L8 4L11 4L11 5L12 5L12 8L10 8L10 7L11 7L11 6L10 6L10 7L9 7L9 5L8 5L8 7L9 7L9 8L6 8L6 9L5 9L5 8L0 8L0 12L1 12L1 10L2 10L2 9L3 9L3 10L4 10L4 11L2 11L2 13L1 13L1 14L2 14L2 13L4 13L4 14L3 14L3 15L1 15L1 16L0 16L0 20L2 20L2 18L5 18L5 19L4 19L4 20L5 20L5 19L8 19L8 21L9 21L9 22L11 22L11 23L7 23L7 22L5 22L5 23L3 23L3 24L1 24L1 23L2 23L2 21L0 21L0 22L1 22L1 23L0 23L0 24L1 24L1 25L0 25L0 27L1 27L1 25L2 25L2 26L3 26L3 27L4 27L4 28L3 28L3 29L0 29L0 30L1 30L1 31L0 31L0 33L1 33L1 34L0 34L0 37L2 37L2 38L4 38L4 39L5 39L5 40L4 40L4 41L3 41L3 39L2 39L2 41L1 41L1 40L0 40L0 42L1 42L1 43L0 43L0 44L1 44L1 45L3 45L3 46L2 46L2 47L1 47L1 46L0 46L0 48L5 48L5 47L7 47L7 48L6 48L6 49L8 49L8 51L9 51L9 47L8 47L8 46L10 46L10 49L11 49L11 51L12 51L12 53L13 53L13 54L12 54L12 55L10 55L10 54L11 54L11 52L8 52L8 57L9 57L9 56L10 56L10 57L11 57L11 56L13 56L13 57L14 57L14 56L15 56L15 57L20 57L20 56L19 56L19 55L20 55L20 54L17 54L17 53L20 53L20 52L21 52L21 53L22 53L22 54L24 54L24 53L26 53L26 54L25 54L25 57L26 57L26 54L27 54L27 53L28 53L28 54L30 54L30 53L31 53L31 55L33 55L33 54L32 54L32 52L33 52L33 51L32 51L32 52L31 52L31 48L34 48L34 49L32 49L32 50L34 50L34 53L37 53L37 54L36 54L36 55L37 55L37 56L35 56L35 55L34 55L34 56L30 56L30 55L29 55L29 56L30 56L30 57L37 57L37 56L38 56L38 57L39 57L39 56L43 56L43 57L44 57L44 56L43 56L43 53L44 53L44 54L45 54L45 55L46 55L46 56L47 56L47 57L48 57L48 56L50 56L50 55L51 55L51 57L52 57L52 56L54 56L54 57L56 57L56 56L55 56L55 55L51 55L51 54L53 54L53 48L55 48L55 49L56 49L56 50L55 50L55 51L54 51L54 52L55 52L55 53L54 53L54 54L55 54L55 53L56 53L56 50L57 50L57 49L56 49L56 48L55 48L55 47L56 47L56 46L57 46L57 44L55 44L55 43L56 43L56 42L57 42L57 41L56 41L56 42L55 42L55 41L54 41L54 40L55 40L55 39L57 39L57 37L56 37L56 35L54 35L54 36L53 36L53 34L52 34L52 36L48 36L48 35L50 35L50 32L51 32L51 33L54 33L54 34L57 34L57 33L56 33L56 30L57 30L57 27L56 27L56 26L55 26L55 25L57 25L57 23L56 23L56 22L57 22L57 21L54 21L54 22L52 22L52 24L49 24L49 22L50 22L50 23L51 23L51 22L50 22L50 19L48 19L48 18L50 18L50 17L51 17L51 16L53 16L53 18L51 18L51 20L52 20L52 19L54 19L54 20L55 20L55 19L56 19L56 18L57 18L57 17L56 17L56 18L55 18L55 17L54 17L54 16L55 16L55 15L56 15L56 16L57 16L57 15L56 15L56 14L57 14L57 13L56 13L56 12L57 12L57 11L56 11L56 8L55 8L55 11L54 11L54 10L53 10L53 9L54 9L54 8L53 8L53 9L52 9L52 8L51 8L51 9L52 9L52 10L53 10L53 11L52 11L52 12L53 12L53 11L54 11L54 12L55 12L55 13L54 13L54 14L53 14L53 15L51 15L51 16L50 16L50 11L51 11L51 10L49 10L49 9L50 9L50 8L49 8L49 6L48 6L48 8L49 8L49 9L47 9L47 8L46 8L46 7L47 7L47 5L48 5L48 0L46 0L46 1L47 1L47 2L43 2L43 3L41 3L41 2L42 2L42 1L43 1L43 0L42 0L42 1L40 1L40 0L39 0L39 1L36 1L36 0L35 0L35 1L34 1L34 0L33 0L33 1L34 1L34 2L35 2L35 1L36 1L36 2L37 2L37 3L36 3L36 5L35 5L35 6L34 6L34 5L33 5L33 6L32 6L32 7L31 7L31 4L32 4L32 3L33 3L33 2L31 2L31 4L28 4L28 3L29 3L29 2L30 2L30 1L31 1L31 0L30 0L30 1L29 1L29 0L27 0L27 1L26 1L26 0L24 0L24 1L23 1L23 0L21 0L21 2L20 2L20 3L21 3L21 2L22 2L22 1L23 1L23 2L24 2L24 3L23 3L23 4L19 4L19 3L18 3L18 4L19 4L19 5L18 5L18 7L17 7L17 6L16 6L16 7L15 7L15 6L14 6L14 7L15 7L15 8L16 8L16 9L13 9L13 10L11 10L11 11L9 11L9 13L10 13L10 14L8 14L8 13L7 13L7 12L8 12L8 11L7 11L7 10L6 10L6 9L9 9L9 10L10 10L10 9L12 9L12 8L13 8L13 5L16 5L16 4L14 4L14 2L13 2L13 3L12 3L12 2L11 2L11 1L15 1L15 2L17 2L17 1L16 1L16 0L11 0L11 1L10 1L10 0ZM44 0L44 1L45 1L45 0ZM18 1L18 2L19 2L19 1ZM25 1L25 3L26 3L26 4L25 4L25 8L24 8L24 6L23 6L23 7L22 7L22 6L21 6L21 8L19 8L19 7L20 7L20 5L19 5L19 7L18 7L18 8L19 8L19 9L20 9L20 10L21 10L21 11L20 11L20 12L19 12L19 14L21 14L21 13L22 13L22 15L24 15L24 14L23 14L23 13L25 13L25 12L27 12L27 11L29 11L29 10L27 10L27 9L25 9L25 8L26 8L26 4L27 4L27 3L28 3L28 2L29 2L29 1L28 1L28 2L26 2L26 1ZM38 2L38 3L37 3L37 4L38 4L38 6L37 6L37 5L36 5L36 6L35 6L35 7L36 7L36 8L34 8L34 6L33 6L33 7L32 7L32 8L31 8L31 9L32 9L32 10L31 10L31 11L30 11L30 12L28 12L28 13L26 13L26 14L25 14L25 16L27 16L27 17L28 17L28 16L29 16L29 17L33 17L33 16L30 16L30 14L31 14L31 12L32 12L32 13L33 13L33 14L36 14L36 15L34 15L34 18L29 18L29 19L33 19L33 20L32 20L32 21L33 21L33 22L35 22L35 23L34 23L34 24L35 24L35 23L36 23L36 22L37 22L37 21L36 21L36 20L37 20L37 19L36 19L36 18L39 18L39 19L38 19L38 22L39 22L39 20L40 20L40 23L37 23L37 24L38 24L38 27L37 27L37 26L36 26L36 25L33 25L33 28L32 28L32 27L31 27L31 30L35 30L35 29L33 29L33 28L34 28L34 26L36 26L36 27L35 27L35 28L36 28L36 27L37 27L37 28L39 28L39 29L36 29L36 30L39 30L39 31L36 31L36 32L35 32L35 31L33 31L33 32L32 32L32 31L31 31L31 32L32 32L32 33L31 33L31 34L32 34L32 38L31 38L31 36L30 36L30 38L31 38L31 39L29 39L29 35L30 35L30 34L29 34L29 33L30 33L30 31L26 31L26 32L25 32L25 34L24 34L24 36L25 36L25 38L26 38L26 39L25 39L25 42L24 42L24 44L23 44L23 45L22 45L22 44L21 44L21 43L22 43L22 42L23 42L23 40L24 40L24 39L22 39L22 37L23 37L23 38L24 38L24 37L23 37L23 36L22 36L22 37L21 37L21 33L20 33L20 35L18 35L18 34L19 34L19 33L18 33L18 32L19 32L19 31L20 31L20 32L21 32L21 31L22 31L22 33L24 33L24 31L25 31L25 30L26 30L26 27L24 27L24 26L23 26L23 24L21 24L21 21L24 21L24 22L22 22L22 23L24 23L24 25L25 25L25 26L26 26L26 25L27 25L27 26L29 26L29 25L30 25L30 24L33 24L33 23L31 23L31 22L29 22L29 21L30 21L30 20L28 20L28 18L26 18L26 17L25 17L25 18L24 18L24 19L23 19L23 18L22 18L22 19L19 19L19 17L20 17L20 18L21 18L21 17L20 17L20 16L21 16L21 15L20 15L20 16L19 16L19 15L18 15L18 14L17 14L17 13L18 13L18 12L17 12L17 13L13 13L13 12L14 12L14 11L12 11L12 13L11 13L11 12L10 12L10 13L11 13L11 15L9 15L9 21L11 21L11 19L10 19L10 18L12 18L12 19L14 19L14 20L13 20L13 21L14 21L14 23L15 23L15 24L16 24L16 25L15 25L15 26L14 26L14 25L13 25L13 24L12 24L12 23L13 23L13 22L12 22L12 23L11 23L11 24L8 24L8 25L5 25L5 24L3 24L3 25L5 25L5 26L8 26L8 25L9 25L9 27L10 27L10 26L11 26L11 25L13 25L13 26L12 26L12 29L11 29L11 30L12 30L12 29L13 29L13 27L15 27L15 28L14 28L14 30L13 30L13 31L14 31L14 30L15 30L15 32L12 32L12 31L11 31L11 32L10 32L10 33L9 33L9 32L8 32L8 31L6 31L6 32L8 32L8 33L6 33L6 34L8 34L8 36L7 36L7 35L5 35L5 36L7 36L7 37L5 37L5 38L7 38L7 39L6 39L6 40L9 40L9 41L10 41L10 42L11 42L11 44L10 44L10 46L11 46L11 49L12 49L12 50L15 50L15 49L16 49L16 51L14 51L14 52L13 52L13 53L14 53L14 54L13 54L13 56L14 56L14 55L15 55L15 56L16 56L16 55L15 55L15 54L16 54L16 53L17 53L17 51L18 51L18 52L20 52L20 51L21 51L21 52L22 52L22 53L24 53L24 51L23 51L23 50L22 50L22 51L21 51L21 49L24 49L24 47L23 47L23 45L25 45L25 48L27 48L27 47L26 47L26 46L27 46L27 45L28 45L28 48L31 48L31 47L29 47L29 45L30 45L30 46L32 46L32 47L33 47L33 46L39 46L39 45L40 45L40 46L42 46L42 47L43 47L43 48L44 48L44 49L43 49L43 50L40 50L40 51L37 51L37 52L38 52L38 55L39 55L39 52L40 52L40 55L41 55L41 52L42 52L42 53L43 53L43 52L42 52L42 51L43 51L43 50L44 50L44 53L45 53L45 54L46 54L46 55L47 55L47 53L48 53L48 52L47 52L47 51L48 51L48 48L50 48L50 47L51 47L51 48L53 48L53 45L50 45L50 44L49 44L49 45L48 45L48 44L47 44L47 45L46 45L46 46L47 46L47 47L45 47L45 48L44 48L44 47L43 47L43 46L44 46L44 45L45 45L45 43L43 43L43 42L41 42L41 40L42 40L42 41L43 41L43 40L44 40L44 42L46 42L46 43L47 43L47 42L48 42L48 43L49 43L49 42L48 42L48 41L51 41L51 42L50 42L50 43L51 43L51 42L53 42L53 43L52 43L52 44L53 44L53 43L54 43L54 41L53 41L53 40L54 40L54 39L53 39L53 40L52 40L52 39L51 39L51 38L53 38L53 36L52 36L52 37L51 37L51 38L50 38L50 37L49 37L49 38L47 38L47 37L48 37L48 36L47 36L47 35L46 35L46 34L47 34L47 33L48 33L48 34L49 34L49 31L48 31L48 29L46 29L46 30L45 30L45 28L44 28L44 30L42 30L42 29L43 29L43 28L42 28L42 27L41 27L41 28L39 28L39 26L41 26L41 24L44 24L44 26L43 26L43 27L44 27L44 26L46 26L46 28L47 28L47 27L48 27L48 26L47 26L47 25L49 25L49 26L51 26L51 25L49 25L49 24L48 24L48 23L47 23L47 25L46 25L46 24L44 24L44 21L45 21L45 23L46 23L46 22L47 22L47 21L48 21L48 19L47 19L47 20L46 20L46 21L45 21L45 20L43 20L43 22L42 22L42 23L41 23L41 20L40 20L40 19L45 19L45 18L47 18L47 17L48 17L48 16L49 16L49 15L46 15L46 16L44 16L44 13L45 13L45 12L46 12L46 14L47 14L47 13L49 13L49 12L47 12L47 9L46 9L46 8L44 8L44 6L45 6L45 7L46 7L46 5L47 5L47 3L43 3L43 8L44 8L44 9L45 9L45 10L46 10L46 11L44 11L44 10L42 10L42 8L40 8L40 6L41 6L41 7L42 7L42 6L41 6L41 5L40 5L40 4L41 4L41 3L40 3L40 4L39 4L39 2ZM23 4L23 5L24 5L24 4ZM44 4L44 5L46 5L46 4ZM27 5L27 8L30 8L30 5ZM28 6L28 7L29 7L29 6ZM36 6L36 7L37 7L37 6ZM38 6L38 7L39 7L39 6ZM16 7L16 8L17 8L17 7ZM23 8L23 9L24 9L24 11L23 11L23 10L22 10L22 11L21 11L21 12L20 12L20 13L21 13L21 12L22 12L22 13L23 13L23 12L25 12L25 9L24 9L24 8ZM36 8L36 9L35 9L35 10L34 10L34 9L33 9L33 13L36 13L36 14L37 14L37 15L38 15L38 16L39 16L39 18L44 18L44 16L43 16L43 15L42 15L42 14L43 14L43 13L44 13L44 12L43 12L43 11L42 11L42 10L41 10L41 11L40 11L40 10L37 10L37 9L40 9L40 8ZM4 9L4 10L5 10L5 11L4 11L4 13L6 13L6 14L7 14L7 15L5 15L5 14L4 14L4 15L3 15L3 16L1 16L1 17L3 17L3 16L7 16L7 15L8 15L8 14L7 14L7 13L6 13L6 12L7 12L7 11L6 11L6 10L5 10L5 9ZM16 9L16 11L18 11L18 9ZM26 10L26 11L27 11L27 10ZM35 10L35 11L34 11L34 12L37 12L37 10ZM39 11L39 12L38 12L38 13L37 13L37 14L39 14L39 16L40 16L40 17L41 17L41 16L42 16L42 15L41 15L41 14L42 14L42 11L41 11L41 12L40 12L40 11ZM55 11L55 12L56 12L56 11ZM39 12L39 14L41 14L41 13L40 13L40 12ZM12 13L12 14L13 14L13 13ZM28 13L28 14L26 14L26 15L27 15L27 16L28 16L28 15L29 15L29 14L30 14L30 13ZM51 13L51 14L52 14L52 13ZM55 13L55 14L56 14L56 13ZM15 14L15 15L16 15L16 16L15 16L15 17L17 17L17 18L15 18L15 21L16 21L16 22L15 22L15 23L16 23L16 24L18 24L18 25L17 25L17 26L15 26L15 27L18 27L18 25L19 25L19 27L20 27L20 28L19 28L19 29L18 29L18 28L15 28L15 29L18 29L18 30L19 30L19 29L22 29L22 28L21 28L21 27L22 27L22 25L21 25L21 24L20 24L20 25L19 25L19 23L20 23L20 22L19 22L19 23L18 23L18 22L17 22L17 21L16 21L16 19L18 19L18 21L20 21L20 20L19 20L19 19L18 19L18 17L19 17L19 16L18 16L18 17L17 17L17 14ZM13 15L13 16L11 16L11 17L12 17L12 18L13 18L13 17L14 17L14 15ZM40 15L40 16L41 16L41 15ZM53 15L53 16L54 16L54 15ZM22 16L22 17L24 17L24 16ZM35 16L35 18L34 18L34 20L33 20L33 21L34 21L34 20L35 20L35 18L36 18L36 17L37 17L37 16ZM6 17L6 18L8 18L8 17ZM22 19L22 20L23 20L23 19ZM25 19L25 20L24 20L24 21L25 21L25 22L26 22L26 23L25 23L25 24L29 24L29 22L28 22L28 21L27 21L27 20L26 20L26 19ZM6 20L6 21L7 21L7 20ZM25 20L25 21L26 21L26 20ZM3 21L3 22L4 22L4 21ZM6 23L6 24L7 24L7 23ZM52 24L52 25L53 25L53 27L55 27L55 28L54 28L54 29L56 29L56 27L55 27L55 26L54 26L54 25L53 25L53 24ZM20 25L20 27L21 27L21 25ZM31 25L31 26L32 26L32 25ZM5 27L5 30L8 30L8 27ZM27 27L27 30L30 30L30 27ZM49 27L49 30L52 30L52 27ZM6 28L6 29L7 29L7 28ZM9 28L9 29L10 29L10 28ZM28 28L28 29L29 29L29 28ZM50 28L50 29L51 29L51 28ZM3 29L3 30L2 30L2 33L5 33L5 32L3 32L3 31L4 31L4 29ZM23 29L23 30L22 30L22 31L24 31L24 30L25 30L25 29ZM39 29L39 30L41 30L41 31L39 31L39 32L41 32L41 34L43 34L43 36L41 36L41 35L40 35L40 34L37 34L37 32L36 32L36 33L35 33L35 32L33 32L33 33L32 33L32 34L33 34L33 35L34 35L34 36L33 36L33 37L35 37L35 34L36 34L36 35L38 35L38 36L39 36L39 38L38 38L38 37L37 37L37 36L36 36L36 38L33 38L33 39L34 39L34 40L35 40L35 42L36 42L36 43L35 43L35 45L39 45L39 44L43 44L43 45L42 45L42 46L43 46L43 45L44 45L44 44L43 44L43 43L40 43L40 42L39 42L39 44L37 44L37 42L38 42L38 41L37 41L37 40L38 40L38 39L39 39L39 38L40 38L40 36L41 36L41 39L40 39L40 40L39 40L39 41L40 41L40 40L41 40L41 39L42 39L42 40L43 40L43 39L42 39L42 38L43 38L43 37L44 37L44 38L45 38L45 39L44 39L44 40L45 40L45 39L46 39L46 40L47 40L47 38L45 38L45 37L47 37L47 36L46 36L46 35L45 35L45 37L44 37L44 32L45 32L45 34L46 34L46 33L47 33L47 32L48 32L48 31L47 31L47 30L46 30L46 31L47 31L47 32L45 32L45 31L44 31L44 32L43 32L43 31L42 31L42 30L41 30L41 29ZM9 30L9 31L10 31L10 30ZM16 30L16 31L17 31L17 30ZM53 30L53 31L51 31L51 32L54 32L54 33L55 33L55 32L54 32L54 31L55 31L55 30ZM11 32L11 33L12 33L12 34L13 34L13 35L10 35L10 34L9 34L9 33L8 33L8 34L9 34L9 36L10 36L10 37L12 37L12 36L13 36L13 35L14 35L14 36L16 36L16 35L17 35L17 34L15 34L15 33L17 33L17 32L15 32L15 33L14 33L14 34L13 34L13 33L12 33L12 32ZM27 32L27 33L26 33L26 34L25 34L25 35L26 35L26 38L28 38L28 37L27 37L27 35L26 35L26 34L27 34L27 33L29 33L29 32ZM33 33L33 34L35 34L35 33ZM14 34L14 35L15 35L15 34ZM22 34L22 35L23 35L23 34ZM3 35L3 37L4 37L4 35ZM39 35L39 36L40 36L40 35ZM17 36L17 38L18 38L18 37L19 37L19 38L20 38L20 39L17 39L17 40L16 40L16 39L15 39L15 38L16 38L16 37L15 37L15 38L14 38L14 37L13 37L13 38L14 38L14 39L12 39L12 38L10 38L10 39L11 39L11 42L12 42L12 41L14 41L14 39L15 39L15 40L16 40L16 41L15 41L15 42L16 42L16 41L17 41L17 42L18 42L18 43L17 43L17 44L15 44L15 45L17 45L17 46L18 46L18 47L19 47L19 48L17 48L17 47L15 47L15 48L14 48L14 46L13 46L13 45L14 45L14 42L13 42L13 43L12 43L12 44L11 44L11 45L12 45L12 46L13 46L13 49L15 49L15 48L16 48L16 49L19 49L19 50L18 50L18 51L19 51L19 50L20 50L20 49L21 49L21 48L23 48L23 47L22 47L22 45L21 45L21 44L19 44L19 43L20 43L20 41L19 41L19 40L21 40L21 37L19 37L19 36ZM54 36L54 37L55 37L55 38L56 38L56 37L55 37L55 36ZM49 38L49 39L50 39L50 40L51 40L51 41L52 41L52 40L51 40L51 39L50 39L50 38ZM26 39L26 40L28 40L28 41L26 41L26 42L28 42L28 43L29 43L29 44L28 44L28 45L29 45L29 44L30 44L30 45L32 45L32 46L33 46L33 45L32 45L32 43L31 43L31 42L32 42L32 41L31 41L31 40L32 40L32 39L31 39L31 40L30 40L30 41L29 41L29 40L28 40L28 39ZM35 39L35 40L37 40L37 39ZM17 40L17 41L18 41L18 42L19 42L19 41L18 41L18 40ZM2 41L2 42L3 42L3 41ZM6 41L6 42L5 42L5 43L4 43L4 44L3 44L3 43L1 43L1 44L3 44L3 45L4 45L4 46L3 46L3 47L5 47L5 46L7 46L7 45L8 45L8 44L9 44L9 42L7 42L7 41ZM28 41L28 42L29 42L29 43L30 43L30 44L31 44L31 43L30 43L30 42L31 42L31 41L30 41L30 42L29 42L29 41ZM33 41L33 44L34 44L34 41ZM6 42L6 43L5 43L5 45L7 45L7 44L8 44L8 43L7 43L7 42ZM6 43L6 44L7 44L7 43ZM26 43L26 44L25 44L25 45L26 45L26 44L27 44L27 43ZM17 44L17 45L18 45L18 44ZM54 44L54 45L55 45L55 44ZM19 45L19 47L20 47L20 48L19 48L19 49L20 49L20 48L21 48L21 45ZM49 45L49 47L50 47L50 45ZM34 47L34 48L38 48L38 49L37 49L37 50L39 50L39 48L40 48L40 49L41 49L41 48L40 48L40 47ZM27 49L27 52L30 52L30 49ZM34 49L34 50L35 50L35 49ZM44 49L44 50L45 50L45 53L47 53L47 52L46 52L46 51L47 51L47 50L45 50L45 49ZM49 49L49 52L52 52L52 49ZM25 50L25 52L26 52L26 50ZM28 50L28 51L29 51L29 50ZM50 50L50 51L51 51L51 50ZM22 51L22 52L23 52L23 51ZM35 51L35 52L36 52L36 51ZM40 51L40 52L41 52L41 51ZM14 52L14 53L16 53L16 52ZM9 53L9 54L10 54L10 53ZM49 53L49 54L51 54L51 53ZM23 55L23 56L24 56L24 55ZM27 55L27 56L28 56L28 55ZM0 0L0 7L7 7L7 0ZM1 1L1 6L6 6L6 1ZM2 2L2 5L5 5L5 2ZM50 0L50 7L57 7L57 0ZM51 1L51 6L56 6L56 1ZM52 2L52 5L55 5L55 2ZM0 50L0 57L7 57L7 50ZM1 51L1 56L6 56L6 51ZM2 52L2 55L5 55L5 52Z" fill="#000000"/></g></g></svg>
