<?xml version="1.0" encoding="UTF-8"?>
<svg xmlns="http://www.w3.org/2000/svg" version="1.1" width="300" height="300" viewBox="0 0 300 300"><rect x="0" y="0" width="300" height="300" fill="#ffffff"/><g transform="scale(4.918)"><g transform="translate(2,2)"><path fill-rule="evenodd" d="M9 0L9 1L8 1L8 2L9 2L9 3L8 3L8 4L9 4L9 5L8 5L8 7L9 7L9 5L10 5L10 7L11 7L11 6L12 6L12 8L13 8L13 9L11 9L11 8L10 8L10 9L9 9L9 8L6 8L6 9L5 9L5 8L0 8L0 12L1 12L1 13L0 13L0 15L1 15L1 16L0 16L0 17L5 17L5 18L6 18L6 19L3 19L3 20L2 20L2 18L1 18L1 19L0 19L0 23L1 23L1 25L3 25L3 24L4 24L4 23L7 23L7 22L8 22L8 24L10 24L10 23L12 23L12 24L11 24L11 26L10 26L10 27L11 27L11 29L10 29L10 28L9 28L9 25L8 25L8 26L6 26L6 25L7 25L7 24L6 24L6 25L5 25L5 26L4 26L4 27L3 27L3 26L2 26L2 28L0 28L0 30L1 30L1 31L0 31L0 34L1 34L1 33L2 33L2 32L3 32L3 33L5 33L5 36L4 36L4 37L5 37L5 40L4 40L4 39L3 39L3 37L2 37L2 39L1 39L1 41L0 41L0 42L1 42L1 43L0 43L0 44L2 44L2 45L0 45L0 48L5 48L5 47L7 47L7 48L6 48L6 49L7 49L7 48L9 48L9 49L8 49L8 51L9 51L9 49L10 49L10 50L11 50L11 52L10 52L10 53L9 53L9 52L8 52L8 57L9 57L9 54L11 54L11 55L10 55L10 56L11 56L11 55L12 55L12 57L14 57L14 56L13 56L13 55L15 55L15 56L16 56L16 57L19 57L19 56L22 56L22 54L23 54L23 55L25 55L25 57L26 57L26 54L27 54L27 53L28 53L28 54L29 54L29 56L30 56L30 57L32 57L32 55L33 55L33 57L39 57L39 56L40 56L40 52L41 52L41 51L40 51L40 50L44 50L44 51L42 51L42 52L43 52L43 53L42 53L42 54L41 54L41 57L42 57L42 54L43 54L43 53L44 53L44 54L45 54L45 55L49 55L49 54L50 54L50 55L51 55L51 56L50 56L50 57L52 57L52 56L55 56L55 57L56 57L56 56L55 56L55 53L54 53L54 54L53 54L53 52L55 52L55 51L56 51L56 52L57 52L57 51L56 51L56 50L57 50L57 49L56 49L56 48L55 48L55 47L56 47L56 46L57 46L57 45L56 45L56 46L55 46L55 45L54 45L54 44L57 44L57 43L56 43L56 42L57 42L57 41L56 41L56 42L55 42L55 40L56 40L56 39L55 39L55 38L54 38L54 39L51 39L51 41L49 41L49 39L50 39L50 38L51 38L51 37L52 37L52 36L53 36L53 37L54 37L54 36L56 36L56 37L57 37L57 36L56 36L56 34L57 34L57 33L56 33L56 32L57 32L57 31L56 31L56 32L55 32L55 30L57 30L57 29L55 29L55 30L53 30L53 29L54 29L54 28L57 28L57 27L56 27L56 26L57 26L57 25L56 25L56 26L55 26L55 25L54 25L54 24L55 24L55 23L56 23L56 24L57 24L57 23L56 23L56 22L57 22L57 21L52 21L52 20L57 20L57 19L56 19L56 18L57 18L57 17L54 17L54 16L56 16L56 14L57 14L57 12L55 12L55 11L54 11L54 10L52 10L52 8L51 8L51 10L50 10L50 8L49 8L49 6L48 6L48 8L49 8L49 9L48 9L48 10L50 10L50 11L52 11L52 12L53 12L53 11L54 11L54 12L55 12L55 13L54 13L54 15L52 15L52 16L51 16L51 14L52 14L52 13L51 13L51 14L50 14L50 12L49 12L49 13L47 13L47 14L46 14L46 12L45 12L45 11L46 11L46 10L45 10L45 9L46 9L46 8L47 8L47 5L48 5L48 0L46 0L46 1L45 1L45 0L44 0L44 1L43 1L43 0L42 0L42 1L41 1L41 2L39 2L39 1L38 1L38 0L37 0L37 1L36 1L36 0L35 0L35 1L33 1L33 2L32 2L32 1L31 1L31 0L30 0L30 1L29 1L29 0L28 0L28 1L26 1L26 0L21 0L21 1L23 1L23 2L24 2L24 3L23 3L23 4L22 4L22 2L21 2L21 4L22 4L22 5L23 5L23 6L22 6L22 8L23 8L23 10L22 10L22 11L23 11L23 12L25 12L25 13L22 13L22 12L20 12L20 11L21 11L21 10L20 10L20 9L21 9L21 8L20 8L20 9L19 9L19 8L18 8L18 7L19 7L19 6L20 6L20 7L21 7L21 6L20 6L20 5L17 5L17 4L20 4L20 3L18 3L18 2L20 2L20 0L19 0L19 1L18 1L18 2L17 2L17 1L16 1L16 2L14 2L14 1L15 1L15 0L13 0L13 2L11 2L11 1L12 1L12 0L11 0L11 1L10 1L10 0ZM24 1L24 2L26 2L26 4L25 4L25 3L24 3L24 4L23 4L23 5L24 5L24 4L25 4L25 5L26 5L26 4L27 4L27 3L28 3L28 4L30 4L30 3L31 3L31 1L30 1L30 2L29 2L29 1L28 1L28 2L26 2L26 1ZM37 1L37 2L33 2L33 3L32 3L32 4L31 4L31 7L32 7L32 9L31 9L31 10L32 10L32 11L33 11L33 10L37 10L37 11L38 11L38 10L39 10L39 9L38 9L38 10L37 10L37 9L35 9L35 7L36 7L36 6L37 6L37 8L40 8L40 12L38 12L38 13L36 13L36 14L39 14L39 15L36 15L36 16L35 16L35 15L34 15L34 16L35 16L35 17L34 17L34 18L33 18L33 16L32 16L32 15L33 15L33 14L35 14L35 13L33 13L33 12L31 12L31 13L33 13L33 14L32 14L32 15L31 15L31 16L30 16L30 15L29 15L29 16L28 16L28 15L25 15L25 16L22 16L22 14L21 14L21 13L19 13L19 11L20 11L20 10L19 10L19 9L16 9L16 6L15 6L15 5L16 5L16 4L17 4L17 2L16 2L16 4L15 4L15 3L14 3L14 4L12 4L12 6L13 6L13 8L14 8L14 10L13 10L13 11L11 11L11 9L10 9L10 10L9 10L9 9L6 9L6 10L5 10L5 11L4 11L4 10L3 10L3 9L2 9L2 10L1 10L1 11L3 11L3 12L2 12L2 16L11 16L11 17L10 17L10 19L9 19L9 17L8 17L8 20L7 20L7 19L6 19L6 20L7 20L7 21L6 21L6 22L7 22L7 21L9 21L9 22L10 22L10 21L11 21L11 20L12 20L12 23L13 23L13 24L15 24L15 23L16 23L16 24L17 24L17 23L18 23L18 24L19 24L19 25L18 25L18 26L17 26L17 25L12 25L12 28L14 28L14 29L13 29L13 30L12 30L12 29L11 29L11 31L10 31L10 32L9 32L9 31L8 31L8 32L7 32L7 31L5 31L5 32L7 32L7 33L6 33L6 34L7 34L7 33L8 33L8 32L9 32L9 33L10 33L10 34L11 34L11 35L10 35L10 36L11 36L11 37L12 37L12 36L11 36L11 35L13 35L13 33L14 33L14 36L16 36L16 37L15 37L15 38L16 38L16 37L18 37L18 38L20 38L20 39L17 39L17 40L16 40L16 39L14 39L14 37L13 37L13 40L12 40L12 38L11 38L11 40L12 40L12 41L9 41L9 39L6 39L6 40L7 40L7 41L5 41L5 43L6 43L6 44L7 44L7 43L6 43L6 42L8 42L8 41L9 41L9 42L12 42L12 43L9 43L9 44L11 44L11 45L10 45L10 46L9 46L9 45L8 45L8 47L10 47L10 49L11 49L11 50L12 50L12 51L14 51L14 52L13 52L13 53L11 53L11 54L12 54L12 55L13 55L13 53L14 53L14 52L15 52L15 53L16 53L16 54L15 54L15 55L16 55L16 56L17 56L17 53L18 53L18 54L19 54L19 55L20 55L20 54L19 54L19 53L23 53L23 54L24 54L24 53L25 53L25 54L26 54L26 53L25 53L25 52L26 52L26 50L24 50L24 51L23 51L23 50L22 50L22 49L25 49L25 48L32 48L32 51L31 51L31 52L32 52L32 54L34 54L34 55L35 55L35 56L38 56L38 55L39 55L39 52L40 52L40 51L39 51L39 52L38 52L38 51L36 51L36 52L35 52L35 51L34 51L34 50L35 50L35 49L36 49L36 48L37 48L37 47L38 47L38 49L37 49L37 50L40 50L40 49L42 49L42 47L43 47L43 46L44 46L44 45L45 45L45 44L44 44L44 43L45 43L45 42L47 42L47 43L48 43L48 42L47 42L47 41L48 41L48 40L47 40L47 39L48 39L48 37L49 37L49 38L50 38L50 36L49 36L49 35L51 35L51 36L52 36L52 34L53 34L53 36L54 36L54 35L55 35L55 34L54 34L54 33L55 33L55 32L54 32L54 31L52 31L52 32L53 32L53 33L51 33L51 32L50 32L50 34L49 34L49 31L48 31L48 28L47 28L47 27L48 27L48 25L49 25L49 24L50 24L50 26L51 26L51 25L53 25L53 27L55 27L55 26L54 26L54 25L53 25L53 24L54 24L54 23L55 23L55 22L52 22L52 23L53 23L53 24L51 24L51 23L50 23L50 22L51 22L51 20L52 20L52 19L55 19L55 18L54 18L54 17L53 17L53 16L52 16L52 17L53 17L53 18L52 18L52 19L51 19L51 16L50 16L50 14L49 14L49 15L46 15L46 16L47 16L47 17L46 17L46 18L44 18L44 17L45 17L45 16L44 16L44 15L45 15L45 12L44 12L44 13L43 13L43 14L42 14L42 11L41 11L41 9L42 9L42 8L44 8L44 9L43 9L43 11L44 11L44 9L45 9L45 8L46 8L46 5L47 5L47 3L43 3L43 5L42 5L42 6L41 6L41 3L40 3L40 5L39 5L39 2L38 2L38 1ZM42 1L42 2L43 2L43 1ZM44 1L44 2L45 2L45 1ZM46 1L46 2L47 2L47 1ZM10 2L10 4L11 4L11 2ZM28 2L28 3L29 3L29 2ZM37 2L37 3L36 3L36 5L34 5L34 7L33 7L33 6L32 6L32 7L33 7L33 9L32 9L32 10L33 10L33 9L34 9L34 7L35 7L35 6L36 6L36 5L37 5L37 6L38 6L38 7L39 7L39 6L38 6L38 2ZM14 4L14 5L13 5L13 6L14 6L14 8L15 8L15 6L14 6L14 5L15 5L15 4ZM44 4L44 5L45 5L45 4ZM27 5L27 8L30 8L30 5ZM17 6L17 7L18 7L18 6ZM23 6L23 7L24 7L24 9L25 9L25 10L23 10L23 11L25 11L25 12L27 12L27 11L26 11L26 10L27 10L27 9L26 9L26 6L25 6L25 7L24 7L24 6ZM28 6L28 7L29 7L29 6ZM40 6L40 8L42 8L42 7L43 7L43 6L42 6L42 7L41 7L41 6ZM44 6L44 8L45 8L45 6ZM53 8L53 9L54 9L54 8ZM55 8L55 10L57 10L57 9L56 9L56 8ZM15 9L15 10L16 10L16 13L15 13L15 14L16 14L16 15L15 15L15 17L16 17L16 15L18 15L18 16L17 16L17 17L19 17L19 18L18 18L18 19L17 19L17 20L18 20L18 21L17 21L17 22L18 22L18 21L19 21L19 22L20 22L20 23L19 23L19 24L20 24L20 25L19 25L19 26L18 26L18 27L17 27L17 26L16 26L16 28L15 28L15 29L17 29L17 30L13 30L13 31L14 31L14 32L15 32L15 35L16 35L16 33L19 33L19 31L21 31L21 32L20 32L20 33L21 33L21 34L24 34L24 35L25 35L25 36L23 36L23 37L22 37L22 36L21 36L21 37L22 37L22 38L21 38L21 40L23 40L23 38L24 38L24 40L25 40L25 37L26 37L26 35L27 35L27 34L25 34L25 33L26 33L26 32L25 32L25 33L21 33L21 32L22 32L22 31L27 31L27 33L29 33L29 36L28 36L28 37L27 37L27 38L26 38L26 41L29 41L29 42L28 42L28 45L27 45L27 46L26 46L26 47L27 47L27 46L28 46L28 45L29 45L29 47L31 47L31 46L30 46L30 45L32 45L32 48L33 48L33 50L34 50L34 48L36 48L36 47L37 47L37 46L38 46L38 45L39 45L39 47L40 47L40 48L39 48L39 49L40 49L40 48L41 48L41 47L42 47L42 46L43 46L43 45L44 45L44 44L43 44L43 43L44 43L44 42L43 42L43 41L44 41L44 40L46 40L46 41L47 41L47 40L46 40L46 39L47 39L47 38L45 38L45 37L44 37L44 35L42 35L42 34L44 34L44 33L42 33L42 34L41 34L41 33L40 33L40 32L41 32L41 31L42 31L42 32L45 32L45 34L46 34L46 35L45 35L45 36L48 36L48 33L47 33L47 32L48 32L48 31L47 31L47 30L46 30L46 29L47 29L47 28L46 28L46 26L45 26L45 27L43 27L43 26L44 26L44 23L46 23L46 24L45 24L45 25L48 25L48 23L49 23L49 22L50 22L50 19L47 19L47 18L50 18L50 16L48 16L48 17L47 17L47 18L46 18L46 19L44 19L44 18L43 18L43 17L44 17L44 16L43 16L43 15L44 15L44 14L43 14L43 15L42 15L42 14L40 14L40 15L39 15L39 16L36 16L36 18L34 18L34 19L37 19L37 18L38 18L38 19L39 19L39 18L38 18L38 17L39 17L39 16L41 16L41 17L40 17L40 18L43 18L43 19L42 19L42 20L46 20L46 21L47 21L47 20L49 20L49 21L48 21L48 23L47 23L47 22L45 22L45 21L44 21L44 23L41 23L41 24L42 24L42 25L39 25L39 23L40 23L40 22L39 22L39 23L37 23L37 22L38 22L38 20L36 20L36 21L37 21L37 22L36 22L36 23L37 23L37 24L35 24L35 25L36 25L36 27L35 27L35 26L32 26L32 24L34 24L34 23L33 23L33 21L34 21L34 20L33 20L33 19L32 19L32 16L31 16L31 17L28 17L28 18L31 18L31 19L29 19L29 22L28 22L28 21L26 21L26 23L25 23L25 21L24 21L24 18L26 18L26 19L25 19L25 20L26 20L26 19L27 19L27 18L26 18L26 17L27 17L27 16L25 16L25 17L21 17L21 18L23 18L23 21L22 21L22 19L21 19L21 21L19 21L19 18L20 18L20 17L19 17L19 16L20 16L20 14L19 14L19 13L18 13L18 12L17 12L17 11L18 11L18 10L16 10L16 9ZM6 10L6 11L5 11L5 12L3 12L3 13L4 13L4 14L3 14L3 15L5 15L5 14L6 14L6 15L8 15L8 14L10 14L10 15L12 15L12 14L13 14L13 16L12 16L12 17L13 17L13 19L12 19L12 20L13 20L13 21L15 21L15 22L14 22L14 23L15 23L15 22L16 22L16 21L15 21L15 20L16 20L16 18L14 18L14 13L13 13L13 12L14 12L14 11L13 11L13 12L12 12L12 13L11 13L11 14L10 14L10 13L9 13L9 11L7 11L7 10ZM28 10L28 11L29 11L29 10ZM6 11L6 12L7 12L7 13L6 13L6 14L7 14L7 13L8 13L8 12L7 12L7 11ZM10 11L10 12L11 12L11 11ZM34 11L34 12L36 12L36 11ZM28 12L28 13L25 13L25 14L28 14L28 13L29 13L29 12ZM16 13L16 14L18 14L18 15L19 15L19 14L18 14L18 13ZM55 13L55 14L56 14L56 13ZM41 15L41 16L42 16L42 15ZM6 17L6 18L7 18L7 17ZM10 19L10 20L9 20L9 21L10 21L10 20L11 20L11 19ZM13 19L13 20L14 20L14 19ZM40 19L40 20L39 20L39 21L40 21L40 20L41 20L41 19ZM46 19L46 20L47 20L47 19ZM32 20L32 21L33 21L33 20ZM2 21L2 22L1 22L1 23L4 23L4 22L3 22L3 21ZM21 21L21 22L22 22L22 21ZM23 21L23 22L24 22L24 21ZM41 21L41 22L43 22L43 21ZM29 22L29 24L27 24L27 23L26 23L26 24L27 24L27 25L31 25L31 24L32 24L32 23L31 23L31 22ZM23 23L23 24L21 24L21 25L20 25L20 28L21 28L21 29L19 29L19 30L18 30L18 31L19 31L19 30L21 30L21 31L22 31L22 29L25 29L25 30L26 30L26 27L25 27L25 26L26 26L26 25L25 25L25 26L24 26L24 27L25 27L25 28L21 28L21 26L22 26L22 27L23 27L23 25L24 25L24 23ZM37 24L37 26L39 26L39 27L37 27L37 28L39 28L39 29L33 29L33 28L34 28L34 27L32 27L32 26L31 26L31 27L32 27L32 29L31 29L31 31L30 31L30 32L32 32L32 38L31 38L31 35L30 35L30 38L31 38L31 39L29 39L29 37L28 37L28 38L27 38L27 40L29 40L29 41L30 41L30 40L31 40L31 39L32 39L32 41L31 41L31 43L30 43L30 42L29 42L29 43L30 43L30 44L31 44L31 43L32 43L32 45L33 45L33 46L35 46L35 47L36 47L36 46L37 46L37 45L35 45L35 43L36 43L36 42L37 42L37 44L39 44L39 43L38 43L38 42L39 42L39 41L38 41L38 40L40 40L40 42L41 42L41 43L43 43L43 42L42 42L42 40L43 40L43 39L45 39L45 38L44 38L44 37L43 37L43 38L42 38L42 37L41 37L41 36L40 36L40 35L41 35L41 34L40 34L40 35L38 35L38 34L39 34L39 32L40 32L40 31L41 31L41 30L42 30L42 31L46 31L46 32L47 32L47 31L46 31L46 30L45 30L45 28L44 28L44 30L42 30L42 29L43 29L43 28L42 28L42 27L41 27L41 26L39 26L39 25L38 25L38 24ZM0 26L0 27L1 27L1 26ZM5 27L5 30L8 30L8 27ZM27 27L27 30L30 30L30 27ZM39 27L39 28L40 28L40 27ZM49 27L49 30L52 30L52 27ZM2 28L2 29L1 29L1 30L2 30L2 31L1 31L1 32L2 32L2 31L3 31L3 30L2 30L2 29L4 29L4 28ZM6 28L6 29L7 29L7 28ZM17 28L17 29L18 29L18 28ZM28 28L28 29L29 29L29 28ZM50 28L50 29L51 29L51 28ZM32 29L32 30L33 30L33 31L32 31L32 32L33 32L33 34L34 34L34 35L33 35L33 37L34 37L34 36L35 36L35 35L37 35L37 34L38 34L38 32L36 32L36 31L40 31L40 30L41 30L41 29L39 29L39 30L36 30L36 31L35 31L35 30L33 30L33 29ZM11 31L11 32L10 32L10 33L11 33L11 34L12 34L12 33L11 33L11 32L12 32L12 31ZM15 31L15 32L17 32L17 31ZM28 31L28 32L29 32L29 31ZM34 31L34 32L35 32L35 33L34 33L34 34L37 34L37 33L36 33L36 32L35 32L35 31ZM30 33L30 34L31 34L31 33ZM46 33L46 34L47 34L47 33ZM8 34L8 35L6 35L6 36L5 36L5 37L6 37L6 38L7 38L7 37L6 37L6 36L8 36L8 35L9 35L9 34ZM19 34L19 35L17 35L17 36L18 36L18 37L20 37L20 34ZM0 35L0 36L3 36L3 35ZM36 36L36 37L37 37L37 38L36 38L36 39L35 39L35 38L34 38L34 39L35 39L35 40L33 40L33 41L35 41L35 42L32 42L32 43L33 43L33 44L34 44L34 43L35 43L35 42L36 42L36 41L37 41L37 42L38 42L38 41L37 41L37 40L38 40L38 39L37 39L37 38L38 38L38 37L39 37L39 38L40 38L40 36ZM8 37L8 38L10 38L10 37ZM40 39L40 40L42 40L42 39ZM2 40L2 41L1 41L1 42L2 42L2 43L4 43L4 40ZM15 40L15 41L16 41L16 40ZM17 40L17 41L19 41L19 45L18 45L18 44L15 44L15 42L13 42L13 43L12 43L12 44L13 44L13 43L14 43L14 45L13 45L13 46L12 46L12 45L11 45L11 46L12 46L12 48L11 48L11 49L13 49L13 48L14 48L14 50L15 50L15 51L16 51L16 52L18 52L18 53L19 53L19 52L20 52L20 51L17 51L17 50L15 50L15 49L19 49L19 50L20 50L20 49L21 49L21 48L20 48L20 49L19 49L19 48L18 48L18 46L19 46L19 45L21 45L21 46L20 46L20 47L22 47L22 44L20 44L20 41L19 41L19 40ZM53 40L53 41L51 41L51 42L50 42L50 43L51 43L51 44L49 44L49 45L51 45L51 44L53 44L53 43L54 43L54 40ZM2 41L2 42L3 42L3 41ZM23 41L23 42L22 42L22 43L24 43L24 44L23 44L23 45L24 45L24 46L23 46L23 47L24 47L24 48L25 48L25 45L26 45L26 44L27 44L27 43L26 43L26 42L25 42L25 41ZM16 42L16 43L18 43L18 42ZM24 42L24 43L25 43L25 44L24 44L24 45L25 45L25 44L26 44L26 43L25 43L25 42ZM51 42L51 43L53 43L53 42ZM3 44L3 47L5 47L5 46L7 46L7 45L5 45L5 44ZM40 44L40 45L41 45L41 46L42 46L42 45L43 45L43 44ZM47 44L47 45L46 45L46 46L48 46L48 47L46 47L46 48L47 48L47 49L46 49L46 50L45 50L45 48L43 48L43 49L44 49L44 50L45 50L45 51L44 51L44 53L45 53L45 54L47 54L47 53L48 53L48 52L47 52L47 51L48 51L48 48L50 48L50 47L51 47L51 48L52 48L52 47L53 47L53 50L54 50L54 49L55 49L55 50L56 50L56 49L55 49L55 48L54 48L54 47L55 47L55 46L54 46L54 45L52 45L52 47L51 47L51 46L50 46L50 47L49 47L49 46L48 46L48 44ZM4 45L4 46L5 46L5 45ZM15 45L15 46L13 46L13 47L16 47L16 48L17 48L17 46L18 46L18 45ZM1 46L1 47L2 47L2 46ZM27 49L27 52L30 52L30 49ZM49 49L49 52L52 52L52 49ZM21 50L21 52L22 52L22 50ZM28 50L28 51L29 51L29 50ZM46 50L46 51L47 51L47 50ZM50 50L50 51L51 51L51 50ZM24 51L24 52L23 52L23 53L24 53L24 52L25 52L25 51ZM32 51L32 52L33 52L33 51ZM34 52L34 53L35 53L35 52ZM36 52L36 54L35 54L35 55L37 55L37 54L38 54L38 52ZM46 52L46 53L47 53L47 52ZM50 53L50 54L51 54L51 55L53 55L53 54L51 54L51 53ZM30 54L30 55L31 55L31 54ZM27 55L27 56L28 56L28 55ZM43 55L43 57L44 57L44 55ZM46 56L46 57L47 57L47 56ZM48 56L48 57L49 57L49 56ZM0 0L0 7L7 7L7 0ZM1 1L1 6L6 6L6 1ZM2 2L2 5L5 5L5 2ZM50 0L50 7L57 7L57 0ZM51 1L51 6L56 6L56 1ZM52 2L52 5L55 5L55 2ZM0 50L0 57L7 57L7 50ZM1 51L1 56L6 56L6 51ZM2 52L2 55L5 55L5 52Z" fill="#000000"/></g></g></svg>
