<?xml version="1.0" encoding="UTF-8"?>
<svg xmlns="http://www.w3.org/2000/svg" version="1.1" width="300" height="300" viewBox="0 0 300 300"><rect x="0" y="0" width="300" height="300" fill="#ffffff"/><g transform="scale(4.918)"><g transform="translate(2,2)"><path fill-rule="evenodd" d="M11 0L11 1L15 1L15 3L16 3L16 2L17 2L17 1L16 1L16 0ZM21 0L21 2L20 2L20 3L21 3L21 4L19 4L19 3L18 3L18 4L19 4L19 5L17 5L17 6L16 6L16 7L15 7L15 5L16 5L16 4L14 4L14 2L13 2L13 5L14 5L14 8L15 8L15 9L13 9L13 6L12 6L12 8L11 8L11 9L13 9L13 11L14 11L14 12L13 12L13 13L12 13L12 11L10 11L10 8L6 8L6 9L5 9L5 8L0 8L0 12L1 12L1 11L3 11L3 10L2 10L2 9L4 9L4 10L5 10L5 11L7 11L7 10L8 10L8 12L5 12L5 13L4 13L4 12L3 12L3 13L1 13L1 14L0 14L0 15L1 15L1 16L0 16L0 17L1 17L1 18L0 18L0 20L2 20L2 21L1 21L1 22L0 22L0 23L1 23L1 25L2 25L2 24L3 24L3 26L4 26L4 28L3 28L3 27L2 27L2 28L3 28L3 29L2 29L2 31L1 31L1 32L0 32L0 33L1 33L1 34L2 34L2 35L0 35L0 36L3 36L3 37L1 37L1 40L2 40L2 41L5 41L5 39L4 39L4 36L5 36L5 37L7 37L7 38L6 38L6 39L7 39L7 40L6 40L6 41L8 41L8 40L10 40L10 37L11 37L11 38L13 38L13 40L12 40L12 42L11 42L11 41L10 41L10 42L11 42L11 43L16 43L16 44L12 44L12 45L8 45L8 47L7 47L7 46L5 46L5 47L3 47L3 46L2 46L2 47L1 47L1 45L2 45L2 42L1 42L1 41L0 41L0 44L1 44L1 45L0 45L0 48L5 48L5 47L7 47L7 48L6 48L6 49L8 49L8 51L9 51L9 49L8 49L8 47L9 47L9 48L10 48L10 51L11 51L11 53L10 53L10 52L8 52L8 57L10 57L10 56L12 56L12 55L11 55L11 53L13 53L13 52L12 52L12 51L11 51L11 50L12 50L12 49L13 49L13 48L14 48L14 47L13 47L13 46L14 46L14 45L17 45L17 46L18 46L18 47L19 47L19 48L18 48L18 49L17 49L17 47L15 47L15 48L16 48L16 49L14 49L14 50L13 50L13 51L14 51L14 52L15 52L15 53L16 53L16 54L14 54L14 56L15 56L15 57L19 57L19 56L18 56L18 55L17 55L17 53L20 53L20 52L22 52L22 51L20 51L20 52L18 52L18 51L19 51L19 50L20 50L20 49L21 49L21 50L23 50L23 51L24 51L24 53L21 53L21 55L23 55L23 56L24 56L24 57L26 57L26 54L27 54L27 53L28 53L28 54L30 54L30 53L31 53L31 55L33 55L33 54L32 54L32 52L33 52L33 53L35 53L35 52L36 52L36 56L35 56L35 54L34 54L34 56L30 56L30 55L29 55L29 56L30 56L30 57L37 57L37 56L38 56L38 57L39 57L39 56L40 56L40 52L41 52L41 56L43 56L43 57L44 57L44 55L42 55L42 54L43 54L43 53L44 53L44 54L45 54L45 56L48 56L48 57L49 57L49 56L50 56L50 55L51 55L51 57L52 57L52 56L53 56L53 57L54 57L54 56L55 56L55 57L56 57L56 56L55 56L55 54L53 54L53 49L54 49L54 48L55 48L55 49L56 49L56 50L55 50L55 51L54 51L54 52L56 52L56 53L57 53L57 52L56 52L56 50L57 50L57 49L56 49L56 48L55 48L55 47L56 47L56 46L57 46L57 44L56 44L56 42L57 42L57 41L56 41L56 42L55 42L55 39L57 39L57 37L56 37L56 38L55 38L55 39L53 39L53 40L54 40L54 43L53 43L53 42L51 42L51 41L52 41L52 39L50 39L50 38L49 38L49 37L50 37L50 36L49 36L49 37L48 37L48 39L49 39L49 40L51 40L51 41L48 41L48 42L45 42L45 43L44 43L44 40L43 40L43 37L44 37L44 38L45 38L45 39L46 39L46 41L47 41L47 38L45 38L45 37L47 37L47 36L48 36L48 35L50 35L50 33L49 33L49 34L48 34L48 33L47 33L47 32L48 32L48 31L50 31L50 32L51 32L51 33L54 33L54 34L57 34L57 33L56 33L56 30L57 30L57 28L56 28L56 29L54 29L54 28L55 28L55 27L56 27L56 25L57 25L57 23L56 23L56 22L57 22L57 21L54 21L54 23L53 23L53 22L52 22L52 24L51 24L51 26L50 26L50 23L51 23L51 22L50 22L50 17L49 17L49 16L50 16L50 11L52 11L52 12L53 12L53 11L54 11L54 12L55 12L55 11L54 11L54 10L53 10L53 9L54 9L54 8L53 8L53 9L52 9L52 8L51 8L51 10L50 10L50 8L49 8L49 6L48 6L48 7L47 7L47 5L48 5L48 0L45 0L45 2L42 2L42 1L44 1L44 0L42 0L42 1L41 1L41 0L39 0L39 1L37 1L37 0L36 0L36 1L34 1L34 0L33 0L33 1L34 1L34 2L39 2L39 4L40 4L40 5L43 5L43 4L42 4L42 3L47 3L47 5L45 5L45 4L44 4L44 5L45 5L45 6L44 6L44 7L43 7L43 6L42 6L42 8L43 8L43 9L40 9L40 8L41 8L41 6L40 6L40 8L38 8L38 7L39 7L39 5L37 5L37 3L36 3L36 5L35 5L35 6L34 6L34 8L36 8L36 9L35 9L35 10L34 10L34 9L33 9L33 11L32 11L32 12L31 12L31 13L32 13L32 12L33 12L33 13L35 13L35 14L32 14L32 15L31 15L31 14L30 14L30 13L28 13L28 12L30 12L30 10L32 10L32 9L31 9L31 8L32 8L32 7L33 7L33 6L32 6L32 7L31 7L31 4L32 4L32 3L33 3L33 2L32 2L32 0L29 0L29 1L27 1L27 2L28 2L28 3L27 3L27 4L26 4L26 3L25 3L25 1L26 1L26 0L24 0L24 1L23 1L23 0ZM8 1L8 2L10 2L10 3L8 3L8 4L9 4L9 5L8 5L8 7L9 7L9 5L10 5L10 7L11 7L11 5L12 5L12 4L10 4L10 3L12 3L12 2L10 2L10 1ZM18 1L18 2L19 2L19 1ZM22 1L22 2L21 2L21 3L22 3L22 4L21 4L21 8L19 8L19 7L20 7L20 5L19 5L19 7L18 7L18 6L17 6L17 7L16 7L16 8L19 8L19 9L15 9L15 11L16 11L16 10L17 10L17 11L18 11L18 10L19 10L19 9L20 9L20 11L19 11L19 15L18 15L18 14L17 14L17 13L18 13L18 12L17 12L17 13L13 13L13 14L11 14L11 13L9 13L9 12L8 12L8 13L9 13L9 14L7 14L7 13L6 13L6 14L7 14L7 15L6 15L6 16L4 16L4 15L5 15L5 14L2 14L2 15L3 15L3 16L4 16L4 18L3 18L3 17L2 17L2 18L1 18L1 19L3 19L3 20L5 20L5 18L7 18L7 19L6 19L6 20L7 20L7 21L6 21L6 22L5 22L5 23L6 23L6 24L7 24L7 25L6 25L6 26L7 26L7 25L8 25L8 24L9 24L9 23L10 23L10 24L11 24L11 26L10 26L10 27L9 27L9 29L11 29L11 30L9 30L9 31L5 31L5 32L7 32L7 33L6 33L6 34L5 34L5 33L4 33L4 32L3 32L3 31L2 31L2 33L3 33L3 36L4 36L4 35L5 35L5 36L7 36L7 37L8 37L8 39L9 39L9 37L8 37L8 35L9 35L9 36L10 36L10 35L11 35L11 37L13 37L13 36L12 36L12 35L14 35L14 38L15 38L15 39L16 39L16 40L15 40L15 41L14 41L14 40L13 40L13 41L14 41L14 42L17 42L17 43L18 43L18 41L16 41L16 40L19 40L19 41L20 41L20 42L19 42L19 45L20 45L20 46L19 46L19 47L20 47L20 48L19 48L19 49L18 49L18 50L17 50L17 49L16 49L16 50L15 50L15 51L16 51L16 53L17 53L17 51L18 51L18 50L19 50L19 49L20 49L20 48L21 48L21 49L24 49L24 48L25 48L25 49L26 49L26 48L29 48L29 47L30 47L30 48L32 48L32 50L31 50L31 52L32 52L32 50L33 50L33 52L35 52L35 51L36 51L36 52L40 52L40 51L41 51L41 50L42 50L42 51L43 51L43 50L42 50L42 49L44 49L44 53L45 53L45 54L46 54L46 55L47 55L47 54L51 54L51 55L53 55L53 56L54 56L54 55L53 55L53 54L51 54L51 53L48 53L48 52L45 52L45 50L47 50L47 51L48 51L48 48L49 48L49 47L51 47L51 46L53 46L53 47L52 47L52 48L54 48L54 47L55 47L55 46L53 46L53 45L51 45L51 44L50 44L50 46L48 46L48 45L49 45L49 43L48 43L48 44L47 44L47 45L46 45L46 46L48 46L48 47L47 47L47 48L42 48L42 47L43 47L43 46L42 46L42 45L43 45L43 44L44 44L44 46L45 46L45 44L44 44L44 43L43 43L43 42L40 42L40 43L43 43L43 44L40 44L40 45L39 45L39 44L38 44L38 43L39 43L39 41L41 41L41 39L42 39L42 38L41 38L41 37L42 37L42 35L43 35L43 34L44 34L44 37L45 37L45 35L46 35L46 36L47 36L47 35L46 35L46 34L47 34L47 33L46 33L46 34L44 34L44 33L45 33L45 32L47 32L47 31L48 31L48 28L47 28L47 26L48 26L48 25L49 25L49 24L48 24L48 23L50 23L50 22L48 22L48 23L47 23L47 20L42 20L42 21L43 21L43 23L44 23L44 25L43 25L43 24L42 24L42 23L41 23L41 20L40 20L40 19L41 19L41 18L42 18L42 19L44 19L44 18L47 18L47 19L49 19L49 18L47 18L47 17L46 17L46 16L49 16L49 15L45 15L45 16L44 16L44 15L43 15L43 14L42 14L42 11L43 11L43 12L44 12L44 14L45 14L45 12L46 12L46 14L47 14L47 13L49 13L49 12L48 12L48 11L50 11L50 10L48 10L48 9L49 9L49 8L48 8L48 9L47 9L47 8L46 8L46 6L45 6L45 8L44 8L44 9L43 9L43 10L40 10L40 11L39 11L39 12L38 12L38 13L36 13L36 14L35 14L35 16L30 16L30 14L29 14L29 15L28 15L28 16L27 16L27 15L26 15L26 14L28 14L28 13L25 13L25 12L27 12L27 11L29 11L29 10L30 10L30 9L28 9L28 10L27 10L27 9L25 9L25 10L23 10L23 12L24 12L24 13L22 13L22 12L21 12L21 11L22 11L22 9L24 9L24 6L23 6L23 8L22 8L22 4L23 4L23 5L24 5L24 4L23 4L23 3L24 3L24 2L23 2L23 1ZM29 1L29 2L31 2L31 1ZM39 1L39 2L41 2L41 1ZM46 1L46 2L47 2L47 1ZM28 3L28 4L30 4L30 3ZM40 3L40 4L41 4L41 3ZM25 4L25 8L26 8L26 4ZM27 5L27 8L30 8L30 5ZM36 5L36 6L35 6L35 7L36 7L36 8L37 8L37 9L38 9L38 10L36 10L36 11L34 11L34 12L36 12L36 11L38 11L38 10L39 10L39 9L38 9L38 8L37 8L37 7L38 7L38 6L37 6L37 5ZM28 6L28 7L29 7L29 6ZM36 6L36 7L37 7L37 6ZM45 8L45 9L44 9L44 11L47 11L47 10L46 10L46 8ZM55 8L55 10L57 10L57 9L56 9L56 8ZM6 9L6 10L7 10L7 9ZM8 9L8 10L9 10L9 9ZM26 10L26 11L27 11L27 10ZM52 10L52 11L53 11L53 10ZM40 11L40 12L41 12L41 11ZM56 11L56 12L57 12L57 11ZM20 12L20 13L21 13L21 14L20 14L20 15L19 15L19 16L18 16L18 17L17 17L17 14L15 14L15 15L14 15L14 14L13 14L13 15L11 15L11 14L9 14L9 15L8 15L8 17L7 17L7 16L6 16L6 17L7 17L7 18L8 18L8 19L7 19L7 20L8 20L8 21L9 21L9 22L6 22L6 23L7 23L7 24L8 24L8 23L9 23L9 22L10 22L10 23L11 23L11 24L12 24L12 23L11 23L11 22L12 22L12 20L14 20L14 19L12 19L12 18L14 18L14 16L15 16L15 17L17 17L17 18L16 18L16 19L18 19L18 21L20 21L20 20L19 20L19 19L22 19L22 20L23 20L23 19L24 19L24 18L25 18L25 20L24 20L24 21L21 21L21 24L17 24L17 23L18 23L18 22L17 22L17 21L16 21L16 20L15 20L15 21L16 21L16 22L14 22L14 21L13 21L13 23L16 23L16 24L14 24L14 25L13 25L13 26L11 26L11 28L12 28L12 30L13 30L13 31L11 31L11 32L10 32L10 31L9 31L9 32L10 32L10 33L7 33L7 34L6 34L6 35L7 35L7 34L9 34L9 35L10 35L10 34L11 34L11 35L12 35L12 34L13 34L13 33L14 33L14 35L15 35L15 36L16 36L16 35L15 35L15 34L16 34L16 33L17 33L17 32L16 32L16 33L14 33L14 32L15 32L15 30L14 30L14 28L12 28L12 27L14 27L14 26L16 26L16 27L15 27L15 29L18 29L18 30L20 30L20 31L19 31L19 32L18 32L18 33L19 33L19 34L18 34L18 35L20 35L20 33L21 33L21 34L23 34L23 37L22 37L22 36L21 36L21 37L19 37L19 36L17 36L17 38L18 38L18 39L19 39L19 40L20 40L20 41L21 41L21 42L20 42L20 43L21 43L21 44L20 44L20 45L21 45L21 46L20 46L20 47L21 47L21 48L23 48L23 47L25 47L25 45L26 45L26 44L28 44L28 45L27 45L27 46L26 46L26 47L28 47L28 45L29 45L29 46L30 46L30 47L32 47L32 48L33 48L33 50L34 50L34 51L35 51L35 50L34 50L34 49L35 49L35 48L36 48L36 49L38 49L38 47L40 47L40 48L39 48L39 49L40 49L40 50L41 50L41 49L42 49L42 48L41 48L41 47L42 47L42 46L37 46L37 44L36 44L36 43L37 43L37 42L38 42L38 41L39 41L39 40L37 40L37 39L39 39L39 38L40 38L40 36L41 36L41 35L40 35L40 34L43 34L43 32L45 32L45 31L44 31L44 30L43 30L43 29L44 29L44 28L45 28L45 30L46 30L46 31L47 31L47 30L46 30L46 29L47 29L47 28L46 28L46 26L43 26L43 25L42 25L42 24L41 24L41 26L43 26L43 27L42 27L42 28L43 28L43 29L42 29L42 30L41 30L41 29L40 29L40 28L41 28L41 27L40 27L40 25L39 25L39 27L40 27L40 28L39 28L39 29L40 29L40 30L37 30L37 28L38 28L38 25L37 25L37 24L36 24L36 23L37 23L37 22L38 22L38 24L39 24L39 23L40 23L40 20L39 20L39 22L38 22L38 19L39 19L39 18L36 18L36 17L37 17L37 16L38 16L38 17L39 17L39 16L41 16L41 15L42 15L42 14L36 14L36 15L37 15L37 16L35 16L35 18L34 18L34 17L29 17L29 16L28 16L28 17L27 17L27 16L25 16L25 13L24 13L24 17L22 17L22 16L23 16L23 15L22 15L22 13L21 13L21 12ZM51 13L51 14L52 14L52 13ZM54 13L54 14L53 14L53 15L54 15L54 16L53 16L53 19L54 19L54 20L55 20L55 19L56 19L56 20L57 20L57 19L56 19L56 18L57 18L57 17L56 17L56 18L55 18L55 17L54 17L54 16L55 16L55 15L56 15L56 16L57 16L57 15L56 15L56 14L57 14L57 13L56 13L56 14L55 14L55 13ZM15 15L15 16L16 16L16 15ZM20 15L20 16L19 16L19 17L18 17L18 19L19 19L19 17L20 17L20 18L21 18L21 17L20 17L20 16L21 16L21 15ZM38 15L38 16L39 16L39 15ZM51 15L51 16L52 16L52 15ZM9 16L9 17L8 17L8 18L9 18L9 19L8 19L8 20L9 20L9 21L10 21L10 22L11 22L11 20L12 20L12 19L11 19L11 20L10 20L10 18L11 18L11 17L13 17L13 16ZM42 16L42 18L44 18L44 16ZM25 17L25 18L26 18L26 17ZM22 18L22 19L23 19L23 18ZM27 18L27 19L26 19L26 20L25 20L25 21L24 21L24 22L22 22L22 24L21 24L21 25L18 25L18 27L16 27L16 28L18 28L18 29L20 29L20 30L21 30L21 31L20 31L20 32L21 32L21 31L22 31L22 33L24 33L24 32L23 32L23 31L24 31L24 29L25 29L25 30L26 30L26 27L25 27L25 26L26 26L26 25L27 25L27 24L28 24L28 26L29 26L29 24L30 24L30 23L31 23L31 24L33 24L33 23L31 23L31 22L29 22L29 20L30 20L30 21L31 21L31 20L30 20L30 19L33 19L33 20L32 20L32 21L33 21L33 22L34 22L34 24L35 24L35 25L33 25L33 27L31 27L31 28L32 28L32 29L31 29L31 31L33 31L33 32L31 32L31 33L32 33L32 38L31 38L31 36L30 36L30 38L31 38L31 39L29 39L29 35L30 35L30 34L29 34L29 33L30 33L30 32L29 32L29 31L26 31L26 32L25 32L25 34L24 34L24 36L25 36L25 40L24 40L24 39L23 39L23 38L24 38L24 37L23 37L23 38L22 38L22 37L21 37L21 38L22 38L22 39L21 39L21 41L25 41L25 42L23 42L23 44L24 44L24 45L22 45L22 44L21 44L21 45L22 45L22 47L23 47L23 46L24 46L24 45L25 45L25 44L26 44L26 43L27 43L27 42L28 42L28 44L29 44L29 45L33 45L33 46L32 46L32 47L33 47L33 46L35 46L35 47L34 47L34 48L35 48L35 47L36 47L36 48L37 48L37 46L35 46L35 45L36 45L36 44L35 44L35 43L36 43L36 42L37 42L37 41L36 41L36 42L35 42L35 40L34 40L34 38L37 38L37 37L36 37L36 36L37 36L37 35L38 35L38 38L39 38L39 36L40 36L40 35L38 35L38 34L40 34L40 33L42 33L42 31L43 31L43 30L42 30L42 31L41 31L41 32L40 32L40 31L36 31L36 30L35 30L35 29L33 29L33 28L34 28L34 26L35 26L35 28L36 28L36 26L35 26L35 25L36 25L36 24L35 24L35 23L36 23L36 22L37 22L37 21L36 21L36 20L37 20L37 19L36 19L36 18L35 18L35 19L34 19L34 18L29 18L29 20L27 20L27 19L28 19L28 18ZM51 18L51 20L52 20L52 18ZM26 20L26 21L25 21L25 22L26 22L26 23L25 23L25 24L27 24L27 20ZM33 20L33 21L34 21L34 20ZM2 21L2 23L3 23L3 24L4 24L4 22L3 22L3 21ZM44 21L44 23L46 23L46 25L48 25L48 24L47 24L47 23L46 23L46 22L45 22L45 21ZM19 22L19 23L20 23L20 22ZM28 22L28 24L29 24L29 22ZM23 23L23 26L25 26L25 25L24 25L24 23ZM52 24L52 26L53 26L53 27L55 27L55 26L54 26L54 25L55 25L55 24ZM4 25L4 26L5 26L5 25ZM16 25L16 26L17 26L17 25ZM21 25L21 27L19 27L19 28L20 28L20 29L22 29L22 28L21 28L21 27L22 27L22 25ZM31 25L31 26L32 26L32 25ZM0 26L0 28L1 28L1 26ZM5 27L5 30L8 30L8 27ZM23 27L23 29L24 29L24 28L25 28L25 27ZM27 27L27 30L30 30L30 27ZM43 27L43 28L44 28L44 27ZM49 27L49 30L52 30L52 27ZM6 28L6 29L7 29L7 28ZM28 28L28 29L29 29L29 28ZM50 28L50 29L51 29L51 28ZM0 29L0 30L1 30L1 29ZM16 30L16 31L17 31L17 30ZM22 30L22 31L23 31L23 30ZM33 30L33 31L35 31L35 32L36 32L36 33L37 33L37 34L36 34L36 35L37 35L37 34L38 34L38 32L36 32L36 31L35 31L35 30ZM53 30L53 31L51 31L51 32L54 32L54 33L55 33L55 32L54 32L54 31L55 31L55 30ZM13 31L13 32L11 32L11 33L13 33L13 32L14 32L14 31ZM27 32L27 33L26 33L26 34L25 34L25 36L26 36L26 37L27 37L27 38L26 38L26 39L27 39L27 41L26 41L26 42L27 42L27 41L29 41L29 43L31 43L31 44L34 44L34 41L33 41L33 43L31 43L31 42L32 42L32 41L31 41L31 40L32 40L32 39L31 39L31 40L28 40L28 39L27 39L27 38L28 38L28 37L27 37L27 35L26 35L26 34L27 34L27 33L29 33L29 32ZM39 32L39 33L40 33L40 32ZM33 34L33 36L34 36L34 37L33 37L33 38L34 38L34 37L35 37L35 36L34 36L34 35L35 35L35 34ZM52 34L52 36L53 36L53 38L54 38L54 36L55 36L55 35L54 35L54 36L53 36L53 34ZM56 35L56 36L57 36L57 35ZM15 37L15 38L16 38L16 37ZM18 37L18 38L19 38L19 39L20 39L20 38L19 38L19 37ZM2 38L2 39L3 39L3 38ZM42 40L42 41L43 41L43 40ZM4 42L4 43L3 43L3 45L4 45L4 44L5 44L5 45L7 45L7 44L5 44L5 43L8 43L8 42ZM21 42L21 43L22 43L22 42ZM50 42L50 43L51 43L51 42ZM24 43L24 44L25 44L25 43ZM52 43L52 44L53 44L53 43ZM17 44L17 45L18 45L18 44ZM54 44L54 45L56 45L56 44ZM12 45L12 46L13 46L13 45ZM9 46L9 47L11 47L11 46ZM12 47L12 48L11 48L11 49L12 49L12 48L13 48L13 47ZM40 48L40 49L41 49L41 48ZM27 49L27 52L30 52L30 49ZM49 49L49 52L52 52L52 49ZM16 50L16 51L17 51L17 50ZM28 50L28 51L29 51L29 50ZM36 50L36 51L39 51L39 50ZM50 50L50 51L51 51L51 50ZM25 51L25 53L24 53L24 54L23 54L23 55L24 55L24 56L25 56L25 53L26 53L26 51ZM9 53L9 54L10 54L10 53ZM38 53L38 54L37 54L37 55L38 55L38 56L39 56L39 55L38 55L38 54L39 54L39 53ZM19 54L19 55L20 55L20 54ZM15 55L15 56L16 56L16 55ZM27 55L27 56L28 56L28 55ZM48 55L48 56L49 56L49 55ZM0 0L0 7L7 7L7 0ZM1 1L1 6L6 6L6 1ZM2 2L2 5L5 5L5 2ZM50 0L50 7L57 7L57 0ZM51 1L51 6L56 6L56 1ZM52 2L52 5L55 5L55 2ZM0 50L0 57L7 57L7 50ZM1 51L1 56L6 56L6 51ZM2 52L2 55L5 55L5 52Z" fill="#000000"/></g></g></svg>
