<?xml version="1.0" encoding="UTF-8"?>
<svg xmlns="http://www.w3.org/2000/svg" version="1.1" width="300" height="300" viewBox="0 0 300 300"><rect x="0" y="0" width="300" height="300" fill="#ffffff"/><g transform="scale(4.918)"><g transform="translate(2,2)"><path fill-rule="evenodd" d="M9 0L9 1L8 1L8 2L10 2L10 3L8 3L8 4L9 4L9 5L8 5L8 7L9 7L9 8L6 8L6 9L5 9L5 8L0 8L0 10L1 10L1 9L2 9L2 10L3 10L3 9L4 9L4 11L5 11L5 10L6 10L6 11L7 11L7 10L8 10L8 11L9 11L9 12L10 12L10 15L11 15L11 16L9 16L9 15L8 15L8 14L9 14L9 13L8 13L8 14L6 14L6 13L7 13L7 12L5 12L5 15L4 15L4 14L2 14L2 13L4 13L4 12L2 12L2 13L1 13L1 11L0 11L0 14L2 14L2 16L3 16L3 17L1 17L1 15L0 15L0 17L1 17L1 18L0 18L0 19L2 19L2 20L3 20L3 21L8 21L8 22L5 22L5 23L8 23L8 22L9 22L9 25L10 25L10 26L13 26L13 27L12 27L12 28L11 28L11 27L10 27L10 32L11 32L11 30L12 30L12 28L13 28L13 27L17 27L17 28L15 28L15 29L14 29L14 30L15 30L15 29L17 29L17 30L16 30L16 31L14 31L14 32L13 32L13 34L14 34L14 32L16 32L16 33L15 33L15 36L14 36L14 35L13 35L13 36L14 36L14 37L13 37L13 39L11 39L11 38L12 38L12 37L11 37L11 36L12 36L12 35L10 35L10 36L9 36L9 34L11 34L11 33L9 33L9 26L5 26L5 25L8 25L8 24L4 24L4 22L3 22L3 24L2 24L2 23L1 23L1 20L0 20L0 24L2 24L2 25L1 25L1 26L2 26L2 25L4 25L4 26L3 26L3 27L2 27L2 28L1 28L1 31L0 31L0 32L1 32L1 33L0 33L0 36L1 36L1 33L2 33L2 35L5 35L5 34L6 34L6 35L7 35L7 36L6 36L6 37L7 37L7 38L6 38L6 39L5 39L5 38L4 38L4 37L5 37L5 36L3 36L3 38L2 38L2 37L0 37L0 38L1 38L1 40L2 40L2 43L1 43L1 42L0 42L0 43L1 43L1 44L6 44L6 45L3 45L3 46L2 46L2 47L1 47L1 46L0 46L0 48L5 48L5 47L7 47L7 48L6 48L6 49L7 49L7 48L8 48L8 51L9 51L9 52L8 52L8 57L9 57L9 54L11 54L11 55L10 55L10 56L12 56L12 57L13 57L13 56L15 56L15 57L20 57L20 56L22 56L22 55L21 55L21 54L23 54L23 55L24 55L24 57L26 57L26 56L28 56L28 55L25 55L25 53L26 53L26 54L27 54L27 53L28 53L28 54L29 54L29 55L30 55L30 56L29 56L29 57L31 57L31 55L32 55L32 56L33 56L33 54L32 54L32 52L33 52L33 53L34 53L34 52L35 52L35 54L34 54L34 56L35 56L35 57L37 57L37 54L38 54L38 56L39 56L39 55L40 55L40 52L41 52L41 51L42 51L42 54L41 54L41 57L44 57L44 56L45 56L45 57L46 57L46 56L47 56L47 57L50 57L50 53L51 53L51 54L53 54L53 55L51 55L51 57L52 57L52 56L53 56L53 57L56 57L56 56L55 56L55 55L54 55L54 54L55 54L55 53L54 53L54 54L53 54L53 51L54 51L54 52L55 52L55 51L56 51L56 50L57 50L57 47L56 47L56 46L57 46L57 43L56 43L56 42L55 42L55 41L54 41L54 40L55 40L55 39L57 39L57 37L53 37L53 38L52 38L52 39L50 39L50 38L51 38L51 37L50 37L50 36L48 36L48 37L47 37L47 36L46 36L46 35L48 35L48 33L47 33L47 34L46 34L46 33L45 33L45 34L46 34L46 35L45 35L45 36L46 36L46 37L47 37L47 39L46 39L46 38L45 38L45 37L44 37L44 35L42 35L42 34L44 34L44 33L43 33L43 32L45 32L45 31L44 31L44 30L46 30L46 31L47 31L47 32L48 32L48 31L49 31L49 35L50 35L50 33L53 33L53 32L56 32L56 30L57 30L57 29L56 29L56 28L57 28L57 27L56 27L56 26L57 26L57 25L54 25L54 24L55 24L55 23L56 23L56 24L57 24L57 23L56 23L56 22L57 22L57 21L56 21L56 20L55 20L55 19L56 19L56 18L57 18L57 17L56 17L56 16L55 16L55 15L56 15L56 14L57 14L57 11L56 11L56 10L57 10L57 9L56 9L56 8L55 8L55 9L56 9L56 10L55 10L55 11L54 11L54 10L53 10L53 11L52 11L52 10L49 10L49 9L50 9L50 8L49 8L49 9L48 9L48 8L46 8L46 7L47 7L47 5L48 5L48 0L45 0L45 1L47 1L47 2L44 2L44 1L43 1L43 0L42 0L42 1L41 1L41 2L39 2L39 1L40 1L40 0L39 0L39 1L34 1L34 0L33 0L33 1L34 1L34 2L32 2L32 1L31 1L31 0L28 0L28 1L31 1L31 4L30 4L30 2L26 2L26 0L21 0L21 3L23 3L23 2L25 2L25 3L24 3L24 4L21 4L21 5L22 5L22 8L24 8L24 9L22 9L22 10L21 10L21 11L22 11L22 10L24 10L24 11L25 11L25 8L24 8L24 7L25 7L25 6L26 6L26 9L27 9L27 10L26 10L26 11L27 11L27 12L25 12L25 13L24 13L24 12L23 12L23 13L24 13L24 14L21 14L21 15L23 15L23 16L25 16L25 17L21 17L21 16L20 16L20 14L19 14L19 13L22 13L22 12L19 12L19 13L18 13L18 12L16 12L16 11L15 11L15 13L18 13L18 15L13 15L13 14L14 14L14 13L13 13L13 12L14 12L14 11L9 11L9 10L10 10L10 9L9 9L9 8L11 8L11 6L10 6L10 7L9 7L9 5L12 5L12 4L11 4L11 3L13 3L13 4L14 4L14 5L15 5L15 6L14 6L14 7L15 7L15 6L16 6L16 8L17 8L17 9L19 9L19 11L20 11L20 9L19 9L19 6L20 6L20 7L21 7L21 6L20 6L20 5L19 5L19 6L18 6L18 7L17 7L17 4L20 4L20 3L19 3L19 2L20 2L20 0L19 0L19 1L18 1L18 0L17 0L17 1L18 1L18 3L17 3L17 4L16 4L16 0L13 0L13 1L12 1L12 0ZM10 1L10 2L11 2L11 1ZM14 1L14 2L15 2L15 1ZM22 1L22 2L23 2L23 1ZM42 1L42 2L41 2L41 3L40 3L40 5L41 5L41 7L40 7L40 6L39 6L39 9L38 9L38 6L37 6L37 5L36 5L36 3L37 3L37 2L34 2L34 4L33 4L33 3L32 3L32 4L31 4L31 8L33 8L33 10L35 10L35 9L36 9L36 8L37 8L37 9L38 9L38 11L39 11L39 9L40 9L40 12L38 12L38 13L37 13L37 14L39 14L39 15L38 15L38 18L37 18L37 19L36 19L36 18L35 18L35 17L34 17L34 16L37 16L37 15L33 15L33 16L30 16L30 15L27 15L27 14L28 14L28 13L29 13L29 14L30 14L30 13L29 13L29 12L30 12L30 10L29 10L29 9L28 9L28 10L27 10L27 11L29 11L29 12L28 12L28 13L26 13L26 14L25 14L25 16L28 16L28 17L26 17L26 20L25 20L25 19L23 19L23 18L21 18L21 17L20 17L20 16L19 16L19 15L18 15L18 16L19 16L19 17L16 17L16 16L14 16L14 17L11 17L11 18L10 18L10 17L8 17L8 15L5 15L5 16L4 16L4 17L3 17L3 18L2 18L2 19L3 19L3 20L4 20L4 19L6 19L6 20L8 20L8 19L11 19L11 20L10 20L10 23L11 23L11 22L12 22L12 24L13 24L13 25L14 25L14 26L17 26L17 27L18 27L18 25L17 25L17 22L19 22L19 23L18 23L18 24L19 24L19 25L20 25L20 26L21 26L21 27L19 27L19 28L21 28L21 29L19 29L19 30L17 30L17 31L16 31L16 32L17 32L17 33L16 33L16 34L17 34L17 35L16 35L16 37L15 37L15 38L14 38L14 39L13 39L13 41L12 41L12 40L10 40L10 41L9 41L9 43L8 43L8 40L9 40L9 39L10 39L10 37L9 37L9 36L7 36L7 37L9 37L9 39L8 39L8 38L7 38L7 39L6 39L6 40L7 40L7 41L4 41L4 38L3 38L3 41L4 41L4 43L5 43L5 42L7 42L7 43L6 43L6 44L7 44L7 45L6 45L6 46L8 46L8 47L9 47L9 49L10 49L10 50L9 50L9 51L10 51L10 50L15 50L15 48L14 48L14 47L15 47L15 46L17 46L17 47L16 47L16 48L17 48L17 49L16 49L16 50L17 50L17 49L18 49L18 51L17 51L17 52L14 52L14 53L11 53L11 54L13 54L13 55L12 55L12 56L13 56L13 55L14 55L14 54L15 54L15 55L16 55L16 56L18 56L18 55L20 55L20 54L19 54L19 53L23 53L23 54L24 54L24 53L23 53L23 52L26 52L26 48L27 48L27 47L28 47L28 48L29 48L29 47L30 47L30 48L31 48L31 50L32 50L32 51L31 51L31 52L32 52L32 51L33 51L33 50L40 50L40 51L39 51L39 52L40 52L40 51L41 51L41 50L42 50L42 51L44 51L44 53L43 53L43 54L42 54L42 55L43 55L43 56L44 56L44 55L45 55L45 56L46 56L46 54L49 54L49 53L48 53L48 52L46 52L46 51L45 51L45 50L47 50L47 51L48 51L48 48L50 48L50 47L52 47L52 48L53 48L53 49L55 49L55 50L56 50L56 49L55 49L55 48L56 48L56 47L55 47L55 48L53 48L53 47L52 47L52 46L54 46L54 45L55 45L55 46L56 46L56 44L54 44L54 45L52 45L52 44L53 44L53 43L54 43L54 41L52 41L52 40L54 40L54 39L55 39L55 38L53 38L53 39L52 39L52 40L50 40L50 39L47 39L47 40L46 40L46 41L45 41L45 38L44 38L44 37L43 37L43 39L42 39L42 40L41 40L41 36L40 36L40 35L41 35L41 34L42 34L42 33L41 33L41 32L40 32L40 31L41 31L41 30L42 30L42 31L43 31L43 30L42 30L42 29L45 29L45 28L42 28L42 26L41 26L41 24L40 24L40 23L41 23L41 22L42 22L42 24L44 24L44 25L45 25L45 26L43 26L43 27L45 27L45 26L47 26L47 27L46 27L46 28L47 28L47 29L46 29L46 30L47 30L47 31L48 31L48 30L47 30L47 29L48 29L48 25L49 25L49 26L51 26L51 24L52 24L52 25L53 25L53 27L55 27L55 28L54 28L54 29L55 29L55 28L56 28L56 27L55 27L55 26L54 26L54 25L53 25L53 24L54 24L54 23L53 23L53 24L52 24L52 23L50 23L50 22L51 22L51 19L52 19L52 18L53 18L53 16L54 16L54 17L55 17L55 18L56 18L56 17L55 17L55 16L54 16L54 14L53 14L53 13L56 13L56 11L55 11L55 12L54 12L54 11L53 11L53 12L52 12L52 11L49 11L49 10L48 10L48 9L46 9L46 8L44 8L44 6L45 6L45 7L46 7L46 5L47 5L47 3L42 3L42 2L43 2L43 1ZM38 2L38 5L39 5L39 2ZM14 3L14 4L15 4L15 5L16 5L16 4L15 4L15 3ZM25 3L25 4L24 4L24 5L23 5L23 7L24 7L24 6L25 6L25 4L26 4L26 3ZM27 3L27 4L29 4L29 3ZM41 4L41 5L42 5L42 7L41 7L41 10L42 10L42 14L41 14L41 13L40 13L40 14L41 14L41 15L40 15L40 16L39 16L39 17L40 17L40 16L41 16L41 15L42 15L42 17L41 17L41 18L43 18L43 17L44 17L44 18L46 18L46 19L40 19L40 20L39 20L39 18L38 18L38 21L37 21L37 20L36 20L36 21L37 21L37 22L36 22L36 23L35 23L35 22L33 22L33 21L32 21L32 20L34 20L34 19L35 19L35 18L34 18L34 17L29 17L29 18L34 18L34 19L30 19L30 20L29 20L29 21L28 21L28 22L29 22L29 23L27 23L27 24L29 24L29 25L26 25L26 24L25 24L25 23L26 23L26 22L25 22L25 20L23 20L23 21L19 21L19 20L18 20L18 19L19 19L19 18L20 18L20 17L19 17L19 18L18 18L18 19L17 19L17 20L18 20L18 21L19 21L19 22L20 22L20 23L19 23L19 24L23 24L23 25L22 25L22 27L21 27L21 28L22 28L22 29L21 29L21 31L23 31L23 30L24 30L24 32L26 32L26 31L29 31L29 32L27 32L27 33L30 33L30 31L31 31L31 29L32 29L32 27L33 27L33 26L32 26L32 25L31 25L31 23L33 23L33 24L36 24L36 25L35 25L35 26L36 26L36 27L34 27L34 28L33 28L33 29L35 29L35 30L32 30L32 32L31 32L31 33L32 33L32 32L34 32L34 31L35 31L35 32L36 32L36 33L35 33L35 34L34 34L34 33L33 33L33 34L34 34L34 35L35 35L35 34L36 34L36 35L37 35L37 36L36 36L36 37L35 37L35 36L33 36L33 37L35 37L35 39L34 39L34 38L33 38L33 39L31 39L31 38L32 38L32 35L30 35L30 34L29 34L29 35L30 35L30 36L29 36L29 37L28 37L28 36L27 36L27 35L26 35L26 34L25 34L25 33L22 33L22 32L20 32L20 31L18 31L18 33L19 33L19 34L18 34L18 35L19 35L19 34L20 34L20 35L21 35L21 36L23 36L23 35L26 35L26 36L24 36L24 37L21 37L21 40L19 40L19 39L20 39L20 38L19 38L19 39L18 39L18 38L17 38L17 37L16 37L16 38L15 38L15 39L14 39L14 41L15 41L15 39L16 39L16 40L17 40L17 43L18 43L18 41L19 41L19 42L20 42L20 41L22 41L22 42L21 42L21 43L22 43L22 42L23 42L23 43L24 43L24 44L23 44L23 45L24 45L24 46L25 46L25 47L24 47L24 48L25 48L25 47L27 47L27 46L28 46L28 45L29 45L29 44L30 44L30 47L31 47L31 48L33 48L33 49L32 49L32 50L33 50L33 49L34 49L34 48L33 48L33 47L35 47L35 48L36 48L36 49L40 49L40 48L41 48L41 47L42 47L42 48L43 48L43 49L42 49L42 50L43 50L43 49L44 49L44 50L45 50L45 49L44 49L44 48L45 48L45 47L47 47L47 46L48 46L48 45L49 45L49 47L50 47L50 44L52 44L52 43L53 43L53 42L52 42L52 41L49 41L49 43L46 43L46 42L45 42L45 43L43 43L43 42L44 42L44 39L43 39L43 41L39 41L39 43L40 43L40 44L43 44L43 45L42 45L42 46L41 46L41 47L40 47L40 46L39 46L39 47L40 47L40 48L36 48L36 47L35 47L35 46L33 46L33 45L32 45L32 44L34 44L34 43L35 43L35 44L36 44L36 46L38 46L38 44L36 44L36 43L38 43L38 41L37 41L37 40L40 40L40 38L39 38L39 39L37 39L37 38L38 38L38 37L40 37L40 36L39 36L39 35L40 35L40 32L38 32L38 31L37 31L37 30L38 30L38 29L39 29L39 28L36 28L36 27L37 27L37 26L38 26L38 25L39 25L39 23L40 23L40 22L41 22L41 21L40 21L40 20L46 20L46 19L47 19L47 20L48 20L48 21L47 21L47 23L46 23L46 22L45 22L45 21L44 21L44 23L45 23L45 24L47 24L47 25L48 25L48 24L49 24L49 25L50 25L50 24L49 24L49 23L48 23L48 22L50 22L50 19L48 19L48 18L50 18L50 17L51 17L51 18L52 18L52 16L53 16L53 15L49 15L49 14L50 14L50 13L51 13L51 14L52 14L52 13L51 13L51 12L50 12L50 13L47 13L47 14L46 14L46 12L45 12L45 11L46 11L46 10L43 10L43 9L44 9L44 8L43 8L43 9L42 9L42 7L43 7L43 4ZM44 4L44 5L46 5L46 4ZM27 5L27 8L30 8L30 5ZM34 5L34 7L33 7L33 6L32 6L32 7L33 7L33 8L36 8L36 7L37 7L37 6L36 6L36 5ZM12 6L12 8L13 8L13 9L12 9L12 10L15 10L15 9L14 9L14 8L13 8L13 6ZM28 6L28 7L29 7L29 6ZM35 6L35 7L36 7L36 6ZM48 6L48 7L49 7L49 6ZM51 8L51 9L52 9L52 8ZM53 8L53 9L54 9L54 8ZM6 9L6 10L7 10L7 9ZM31 9L31 10L32 10L32 9ZM17 10L17 11L18 11L18 10ZM47 10L47 11L48 11L48 12L49 12L49 11L48 11L48 10ZM31 11L31 14L35 14L35 13L33 13L33 12L32 12L32 11ZM34 11L34 12L35 12L35 11ZM11 12L11 15L12 15L12 16L13 16L13 15L12 15L12 12ZM43 12L43 14L42 14L42 15L43 15L43 16L44 16L44 17L46 17L46 18L48 18L48 17L49 17L49 15L46 15L46 16L44 16L44 15L45 15L45 14L44 14L44 13L45 13L45 12ZM5 16L5 17L4 17L4 18L5 18L5 17L7 17L7 16ZM46 16L46 17L48 17L48 16ZM14 17L14 18L11 18L11 19L12 19L12 20L13 20L13 21L12 21L12 22L13 22L13 21L15 21L15 22L16 22L16 21L15 21L15 20L16 20L16 17ZM6 18L6 19L7 19L7 18ZM27 18L27 20L28 20L28 18ZM13 19L13 20L14 20L14 19ZM20 19L20 20L21 20L21 19ZM52 20L52 21L53 21L53 22L55 22L55 20L54 20L54 21L53 21L53 20ZM23 21L23 22L21 22L21 23L23 23L23 24L24 24L24 23L23 23L23 22L24 22L24 21ZM29 21L29 22L30 22L30 23L29 23L29 24L30 24L30 23L31 23L31 22L30 22L30 21ZM38 21L38 22L37 22L37 23L36 23L36 24L37 24L37 25L38 25L38 23L39 23L39 21ZM42 21L42 22L43 22L43 21ZM13 23L13 24L14 24L14 25L15 25L15 24L16 24L16 23ZM47 23L47 24L48 24L48 23ZM25 25L25 26L26 26L26 25ZM40 26L40 28L41 28L41 26ZM5 27L5 30L8 30L8 27ZM23 27L23 29L22 29L22 30L23 30L23 29L25 29L25 30L26 30L26 27ZM27 27L27 30L30 30L30 27ZM49 27L49 30L52 30L52 27ZM3 28L3 29L2 29L2 31L1 31L1 32L2 32L2 31L3 31L3 32L4 32L4 31L3 31L3 30L4 30L4 28ZM6 28L6 29L7 29L7 28ZM17 28L17 29L18 29L18 28ZM28 28L28 29L29 29L29 28ZM50 28L50 29L51 29L51 28ZM36 29L36 30L37 30L37 29ZM40 29L40 30L41 30L41 29ZM5 31L5 33L3 33L3 34L5 34L5 33L6 33L6 34L7 34L7 35L8 35L8 32L7 32L7 31ZM36 31L36 32L37 32L37 33L36 33L36 34L39 34L39 33L38 33L38 32L37 32L37 31ZM52 31L52 32L53 32L53 31ZM6 32L6 33L7 33L7 32ZM19 32L19 33L20 33L20 34L21 34L21 35L23 35L23 34L21 34L21 33L20 33L20 32ZM54 33L54 34L57 34L57 33ZM52 34L52 36L56 36L56 35L53 35L53 34ZM18 36L18 37L20 37L20 36ZM30 36L30 38L31 38L31 36ZM24 37L24 38L22 38L22 41L23 41L23 42L24 42L24 43L25 43L25 44L24 44L24 45L25 45L25 46L27 46L27 45L28 45L28 44L29 44L29 43L30 43L30 44L32 44L32 43L34 43L34 42L35 42L35 43L36 43L36 42L35 42L35 40L32 40L32 41L28 41L28 39L27 39L27 38L28 38L28 37L27 37L27 38L26 38L26 37ZM48 37L48 38L49 38L49 37ZM25 38L25 41L24 41L24 39L23 39L23 41L24 41L24 42L26 42L26 43L27 43L27 44L28 44L28 43L27 43L27 42L28 42L28 41L27 41L27 39L26 39L26 38ZM29 39L29 40L31 40L31 39ZM36 39L36 40L37 40L37 39ZM10 41L10 43L11 43L11 41ZM26 41L26 42L27 42L27 41ZM32 41L32 42L34 42L34 41ZM14 42L14 44L12 44L12 46L13 46L13 47L12 47L12 49L14 49L14 48L13 48L13 47L14 47L14 46L15 46L15 44L16 44L16 45L18 45L18 47L20 47L20 45L22 45L22 44L20 44L20 43L19 43L19 44L20 44L20 45L18 45L18 44L16 44L16 43L15 43L15 42ZM30 42L30 43L31 43L31 42ZM50 42L50 43L51 43L51 42ZM10 44L10 45L11 45L11 44ZM25 44L25 45L26 45L26 44ZM44 44L44 45L45 45L45 44ZM47 44L47 45L46 45L46 46L47 46L47 45L48 45L48 44ZM13 45L13 46L14 46L14 45ZM31 45L31 47L33 47L33 46L32 46L32 45ZM51 45L51 46L52 46L52 45ZM3 46L3 47L5 47L5 46ZM21 46L21 48L20 48L20 49L21 49L21 50L23 50L23 51L18 51L18 53L19 53L19 52L23 52L23 51L25 51L25 49L22 49L22 48L23 48L23 47L22 47L22 46ZM42 46L42 47L43 47L43 48L44 48L44 47L45 47L45 46ZM10 47L10 48L11 48L11 47ZM18 48L18 49L19 49L19 48ZM27 49L27 52L30 52L30 49ZM49 49L49 52L52 52L52 49ZM28 50L28 51L29 51L29 50ZM50 50L50 51L51 51L51 50ZM35 51L35 52L36 52L36 51ZM9 52L9 53L10 53L10 52ZM15 53L15 54L16 54L16 53ZM29 53L29 54L30 54L30 53ZM36 53L36 54L35 54L35 56L36 56L36 54L37 54L37 53ZM38 53L38 54L39 54L39 53ZM44 53L44 54L45 54L45 53ZM47 55L47 56L48 56L48 55ZM0 0L0 7L7 7L7 0ZM1 1L1 6L6 6L6 1ZM2 2L2 5L5 5L5 2ZM50 0L50 7L57 7L57 0ZM51 1L51 6L56 6L56 1ZM52 2L52 5L55 5L55 2ZM0 50L0 57L7 57L7 50ZM1 51L1 56L6 56L6 51ZM2 52L2 55L5 55L5 52Z" fill="#000000"/></g></g></svg>
