<?xml version="1.0" encoding="UTF-8"?>
<svg xmlns="http://www.w3.org/2000/svg" version="1.1" width="300" height="300" viewBox="0 0 300 300"><rect x="0" y="0" width="300" height="300" fill="#ffffff"/><g transform="scale(4.918)"><g transform="translate(2,2)"><path fill-rule="evenodd" d="M10 0L10 1L11 1L11 0ZM12 0L12 3L11 3L11 2L9 2L9 1L8 1L8 2L9 2L9 3L8 3L8 4L9 4L9 5L8 5L8 7L9 7L9 6L10 6L10 8L6 8L6 9L5 9L5 8L0 8L0 13L3 13L3 14L2 14L2 15L3 15L3 16L1 16L1 15L0 15L0 16L1 16L1 17L0 17L0 19L1 19L1 20L5 20L5 19L4 19L4 18L6 18L6 19L7 19L7 20L6 20L6 21L3 21L3 22L5 22L5 23L7 23L7 24L4 24L4 23L2 23L2 22L1 22L1 21L0 21L0 24L1 24L1 25L2 25L2 24L3 24L3 26L4 26L4 27L3 27L3 28L2 28L2 27L1 27L1 26L0 26L0 27L1 27L1 28L0 28L0 33L1 33L1 30L2 30L2 33L3 33L3 34L6 34L6 35L3 35L3 36L1 36L1 35L0 35L0 36L1 36L1 37L0 37L0 40L1 40L1 41L0 41L0 43L2 43L2 44L1 44L1 45L0 45L0 48L5 48L5 47L7 47L7 48L6 48L6 49L7 49L7 48L9 48L9 49L8 49L8 51L9 51L9 52L8 52L8 57L10 57L10 56L9 56L9 55L10 55L10 54L11 54L11 55L12 55L12 56L11 56L11 57L13 57L13 55L16 55L16 56L15 56L15 57L20 57L20 56L19 56L19 55L20 55L20 54L18 54L18 56L17 56L17 53L16 53L16 51L17 51L17 50L16 50L16 49L17 49L17 47L16 47L16 45L17 45L17 46L20 46L20 47L18 47L18 49L19 49L19 48L20 48L20 49L21 49L21 50L20 50L20 51L21 51L21 53L22 53L22 54L21 54L21 55L23 55L23 57L26 57L26 55L25 55L25 56L24 56L24 55L23 55L23 54L24 54L24 53L25 53L25 54L27 54L27 53L28 53L28 54L30 54L30 53L31 53L31 56L30 56L30 55L29 55L29 56L30 56L30 57L32 57L32 56L33 56L33 57L38 57L38 56L37 56L37 55L38 55L38 51L39 51L39 50L41 50L41 51L40 51L40 52L39 52L39 56L40 56L40 52L41 52L41 51L42 51L42 52L43 52L43 53L41 53L41 54L43 54L43 53L44 53L44 54L45 54L45 55L44 55L44 56L45 56L45 57L46 57L46 54L45 54L45 53L46 53L46 52L45 52L45 53L44 53L44 48L47 48L47 46L50 46L50 44L51 44L51 43L50 43L50 42L52 42L52 41L53 41L53 40L54 40L54 43L53 43L53 44L52 44L52 45L51 45L51 46L52 46L52 45L54 45L54 46L53 46L53 47L54 47L54 48L52 48L52 47L49 47L49 48L48 48L48 51L47 51L47 50L46 50L46 49L45 49L45 50L46 50L46 51L47 51L47 52L48 52L48 53L47 53L47 57L49 57L49 56L50 56L50 54L53 54L53 55L51 55L51 57L52 57L52 56L53 56L53 55L54 55L54 56L55 56L55 57L56 57L56 56L55 56L55 53L53 53L53 52L55 52L55 51L53 51L53 49L54 49L54 50L57 50L57 49L56 49L56 48L57 48L57 47L56 47L56 46L57 46L57 45L56 45L56 44L57 44L57 43L56 43L56 42L57 42L57 41L56 41L56 42L55 42L55 39L57 39L57 37L54 37L54 36L57 36L57 35L55 35L55 34L57 34L57 31L56 31L56 30L57 30L57 29L56 29L56 30L55 30L55 29L54 29L54 28L57 28L57 27L56 27L56 25L55 25L55 24L56 24L56 22L57 22L57 21L56 21L56 19L55 19L55 18L57 18L57 17L54 17L54 16L56 16L56 14L57 14L57 13L56 13L56 12L55 12L55 11L56 11L56 10L55 10L55 11L54 11L54 10L53 10L53 11L52 11L52 8L51 8L51 10L50 10L50 8L49 8L49 6L48 6L48 8L46 8L46 7L47 7L47 5L48 5L48 0L46 0L46 1L47 1L47 2L44 2L44 1L43 1L43 0L41 0L41 1L43 1L43 2L40 2L40 1L38 1L38 0L35 0L35 1L33 1L33 0L30 0L30 1L29 1L29 0L27 0L27 3L29 3L29 4L26 4L26 3L25 3L25 2L24 2L24 1L26 1L26 0L21 0L21 1L23 1L23 2L24 2L24 3L23 3L23 4L19 4L19 3L18 3L18 4L17 4L17 5L18 5L18 4L19 4L19 5L20 5L20 7L19 7L19 6L18 6L18 7L17 7L17 6L16 6L16 7L15 7L15 5L16 5L16 4L14 4L14 2L15 2L15 3L17 3L17 2L19 2L19 1L20 1L20 0L19 0L19 1L17 1L17 2L16 2L16 0ZM13 1L13 2L14 2L14 1ZM28 1L28 2L29 2L29 3L30 3L30 2L33 2L33 3L32 3L32 4L31 4L31 7L32 7L32 8L31 8L31 9L32 9L32 10L30 10L30 9L29 9L29 10L28 10L28 9L25 9L25 10L23 10L23 12L24 12L24 13L22 13L22 12L21 12L21 11L22 11L22 9L23 9L23 8L24 8L24 6L23 6L23 8L22 8L22 9L21 9L21 8L19 8L19 9L17 9L17 7L16 7L16 8L14 8L14 4L12 4L12 5L11 5L11 4L10 4L10 3L9 3L9 4L10 4L10 6L11 6L11 10L10 10L10 9L9 9L9 10L10 10L10 11L9 11L9 12L8 12L8 11L6 11L6 12L5 12L5 14L3 14L3 15L4 15L4 16L3 16L3 17L2 17L2 18L1 18L1 19L3 19L3 17L4 17L4 16L5 16L5 17L6 17L6 18L7 18L7 19L8 19L8 20L7 20L7 21L6 21L6 22L7 22L7 21L8 21L8 22L10 22L10 23L9 23L9 24L8 24L8 26L9 26L9 25L10 25L10 27L11 27L11 25L12 25L12 26L13 26L13 25L12 25L12 24L14 24L14 23L15 23L15 25L14 25L14 27L13 27L13 28L10 28L10 29L9 29L9 31L12 31L12 32L8 32L8 31L4 31L4 28L3 28L3 31L4 31L4 32L3 32L3 33L6 33L6 34L7 34L7 35L6 35L6 36L5 36L5 40L4 40L4 41L5 41L5 42L4 42L4 43L3 43L3 42L2 42L2 43L3 43L3 44L2 44L2 45L1 45L1 47L2 47L2 46L3 46L3 47L5 47L5 46L7 46L7 45L6 45L6 44L7 44L7 43L6 43L6 44L4 44L4 43L5 43L5 42L8 42L8 47L9 47L9 48L10 48L10 50L9 50L9 51L10 51L10 50L14 50L14 51L12 51L12 52L10 52L10 53L9 53L9 54L10 54L10 53L11 53L11 54L13 54L13 53L14 53L14 52L15 52L15 49L16 49L16 47L15 47L15 49L14 49L14 48L13 48L13 49L11 49L11 48L12 48L12 47L14 47L14 46L15 46L15 45L14 45L14 44L13 44L13 41L14 41L14 42L15 42L15 44L16 44L16 43L18 43L18 42L17 42L17 41L16 41L16 40L17 40L17 39L18 39L18 38L19 38L19 39L20 39L20 38L19 38L19 37L21 37L21 39L22 39L22 40L19 40L19 41L20 41L20 42L19 42L19 43L20 43L20 44L19 44L19 45L20 45L20 46L21 46L21 45L22 45L22 47L20 47L20 48L22 48L22 49L25 49L25 50L26 50L26 48L27 48L27 47L26 47L26 48L25 48L25 47L23 47L23 45L25 45L25 46L27 46L27 45L28 45L28 46L30 46L30 44L32 44L32 45L33 45L33 46L31 46L31 48L32 48L32 50L31 50L31 52L32 52L32 54L34 54L34 56L35 56L35 53L36 53L36 54L37 54L37 53L36 53L36 52L37 52L37 51L38 51L38 50L39 50L39 49L41 49L41 50L42 50L42 51L43 51L43 50L42 50L42 49L43 49L43 48L44 48L44 46L42 46L42 45L43 45L43 44L41 44L41 43L44 43L44 42L42 42L42 41L41 41L41 36L42 36L42 35L44 35L44 37L43 37L43 39L45 39L45 40L44 40L44 41L45 41L45 43L48 43L48 44L47 44L47 45L46 45L46 46L47 46L47 45L48 45L48 44L49 44L49 43L48 43L48 42L49 42L49 41L51 41L51 39L52 39L52 38L53 38L53 37L51 37L51 38L50 38L50 39L49 39L49 36L52 36L52 34L53 34L53 33L51 33L51 32L49 32L49 31L48 31L48 29L46 29L46 30L44 30L44 31L43 31L43 30L42 30L42 29L43 29L43 28L42 28L42 27L43 27L43 26L42 26L42 27L41 27L41 25L42 25L42 24L41 24L41 22L40 22L40 24L38 24L38 23L39 23L39 21L38 21L38 20L40 20L40 21L41 21L41 20L40 20L40 19L43 19L43 18L44 18L44 19L45 19L45 18L47 18L47 19L50 19L50 22L49 22L49 23L47 23L47 21L48 21L48 20L43 20L43 22L42 22L42 23L43 23L43 24L44 24L44 25L45 25L45 26L44 26L44 27L45 27L45 26L46 26L46 28L47 28L47 27L48 27L48 25L49 25L49 26L51 26L51 25L50 25L50 24L52 24L52 26L53 26L53 27L55 27L55 26L54 26L54 24L52 24L52 23L55 23L55 22L54 22L54 21L55 21L55 20L54 20L54 21L53 21L53 20L52 20L52 19L51 19L51 17L53 17L53 16L54 16L54 15L55 15L55 14L53 14L53 13L55 13L55 12L54 12L54 11L53 11L53 12L52 12L52 11L51 11L51 13L50 13L50 10L48 10L48 9L49 9L49 8L48 8L48 9L46 9L46 8L42 8L42 9L44 9L44 11L43 11L43 12L44 12L44 13L43 13L43 14L42 14L42 10L41 10L41 7L42 7L42 5L41 5L41 3L40 3L40 5L41 5L41 7L40 7L40 6L39 6L39 2L38 2L38 1L35 1L35 2L33 2L33 1L30 1L30 2L29 2L29 1ZM20 2L20 3L21 3L21 2ZM37 2L37 3L36 3L36 5L35 5L35 6L34 6L34 5L33 5L33 6L32 6L32 7L33 7L33 6L34 6L34 7L35 7L35 6L36 6L36 7L37 7L37 8L34 8L34 9L35 9L35 10L33 10L33 13L36 13L36 15L35 15L35 14L32 14L32 12L31 12L31 14L30 14L30 13L28 13L28 12L30 12L30 10L29 10L29 11L28 11L28 10L26 10L26 11L27 11L27 12L25 12L25 13L24 13L24 14L23 14L23 17L21 17L21 16L22 16L22 15L21 15L21 16L20 16L20 15L19 15L19 14L20 14L20 13L21 13L21 14L22 14L22 13L21 13L21 12L20 12L20 13L19 13L19 11L20 11L20 9L19 9L19 10L18 10L18 11L17 11L17 12L16 12L16 11L15 11L15 10L13 10L13 11L11 11L11 14L9 14L9 13L8 13L8 12L6 12L6 13L8 13L8 14L6 14L6 15L5 15L5 16L6 16L6 17L7 17L7 16L8 16L8 15L9 15L9 17L8 17L8 18L9 18L9 19L10 19L10 20L9 20L9 21L10 21L10 20L14 20L14 19L10 19L10 18L12 18L12 17L14 17L14 16L16 16L16 17L15 17L15 21L16 21L16 22L15 22L15 23L16 23L16 24L17 24L17 25L18 25L18 26L16 26L16 27L15 27L15 28L16 28L16 29L18 29L18 31L17 31L17 30L14 30L14 28L13 28L13 29L10 29L10 30L14 30L14 31L13 31L13 33L10 33L10 35L11 35L11 36L12 36L12 38L11 38L11 37L10 37L10 38L11 38L11 39L12 39L12 40L14 40L14 41L15 41L15 40L16 40L16 39L15 39L15 38L16 38L16 37L15 37L15 36L18 36L18 37L19 37L19 36L21 36L21 37L22 37L22 38L23 38L23 39L24 39L24 41L23 41L23 42L22 42L22 43L21 43L21 42L20 42L20 43L21 43L21 44L20 44L20 45L21 45L21 44L22 44L22 45L23 45L23 42L24 42L24 43L25 43L25 39L26 39L26 40L28 40L28 41L29 41L29 40L28 40L28 39L26 39L26 38L25 38L25 35L26 35L26 36L27 36L27 35L26 35L26 34L27 34L27 33L29 33L29 34L30 34L30 35L29 35L29 39L31 39L31 38L32 38L32 35L31 35L31 32L33 32L33 33L32 33L32 34L34 34L34 35L35 35L35 34L34 34L34 33L35 33L35 32L36 32L36 35L37 35L37 34L38 34L38 36L36 36L36 40L35 40L35 39L34 39L34 40L35 40L35 41L37 41L37 42L34 42L34 41L33 41L33 42L32 42L32 41L31 41L31 40L30 40L30 41L31 41L31 42L30 42L30 43L29 43L29 44L28 44L28 42L27 42L27 41L26 41L26 42L27 42L27 43L26 43L26 44L25 44L25 45L26 45L26 44L28 44L28 45L29 45L29 44L30 44L30 43L33 43L33 44L34 44L34 43L35 43L35 44L36 44L36 46L37 46L37 47L39 47L39 48L41 48L41 47L42 47L42 48L43 48L43 47L42 47L42 46L41 46L41 45L39 45L39 46L37 46L37 45L38 45L38 44L36 44L36 43L37 43L37 42L38 42L38 43L39 43L39 44L40 44L40 42L38 42L38 41L39 41L39 40L38 40L38 36L39 36L39 37L40 37L40 36L41 36L41 35L42 35L42 34L43 34L43 33L44 33L44 34L46 34L46 35L45 35L45 36L46 36L46 35L47 35L47 36L49 36L49 35L50 35L50 34L51 34L51 33L50 33L50 34L49 34L49 35L48 35L48 33L47 33L47 32L48 32L48 31L47 31L47 30L46 30L46 31L44 31L44 32L43 32L43 31L42 31L42 30L41 30L41 31L40 31L40 30L37 30L37 28L38 28L38 24L37 24L37 22L38 22L38 21L37 21L37 20L38 20L38 19L39 19L39 18L38 18L38 17L37 17L37 16L38 16L38 15L39 15L39 16L41 16L41 18L43 18L43 17L44 17L44 16L45 16L45 15L49 15L49 13L47 13L47 14L46 14L46 12L45 12L45 15L44 15L44 16L43 16L43 15L42 15L42 14L40 14L40 13L39 13L39 14L37 14L37 13L38 13L38 12L39 12L39 11L40 11L40 12L41 12L41 10L40 10L40 9L39 9L39 8L40 8L40 7L39 7L39 6L38 6L38 7L37 7L37 6L36 6L36 5L38 5L38 2ZM33 3L33 4L34 4L34 3ZM42 3L42 4L43 4L43 7L44 7L44 6L45 6L45 7L46 7L46 6L45 6L45 5L44 5L44 4L46 4L46 5L47 5L47 3ZM23 4L23 5L24 5L24 4ZM25 4L25 8L26 8L26 4ZM27 5L27 8L30 8L30 5ZM12 6L12 7L13 7L13 6ZM21 6L21 7L22 7L22 6ZM28 6L28 7L29 7L29 6ZM38 7L38 8L37 8L37 9L38 9L38 10L36 10L36 11L34 11L34 12L37 12L37 11L39 11L39 9L38 9L38 8L39 8L39 7ZM13 8L13 9L14 9L14 8ZM53 8L53 9L54 9L54 8ZM55 8L55 9L56 9L56 8ZM6 9L6 10L8 10L8 9ZM1 10L1 12L3 12L3 11L4 11L4 10L3 10L3 11L2 11L2 10ZM13 11L13 12L14 12L14 11ZM48 11L48 12L49 12L49 11ZM17 12L17 13L13 13L13 14L14 14L14 15L13 15L13 16L14 16L14 15L16 15L16 16L17 16L17 15L18 15L18 14L17 14L17 13L18 13L18 12ZM26 13L26 14L24 14L24 15L25 15L25 16L24 16L24 17L25 17L25 18L26 18L26 20L28 20L28 22L30 22L30 23L29 23L29 24L25 24L25 23L26 23L26 22L25 22L25 21L24 21L24 19L23 19L23 18L21 18L21 17L20 17L20 16L19 16L19 17L18 17L18 18L19 18L19 19L18 19L18 20L17 20L17 19L16 19L16 21L18 21L18 22L17 22L17 24L18 24L18 23L19 23L19 25L20 25L20 27L21 27L21 28L22 28L22 29L19 29L19 26L18 26L18 27L16 27L16 28L18 28L18 29L19 29L19 31L18 31L18 32L19 32L19 33L16 33L16 34L19 34L19 35L18 35L18 36L19 36L19 35L21 35L21 36L22 36L22 37L23 37L23 38L24 38L24 37L23 37L23 36L24 36L24 35L23 35L23 34L22 34L22 33L25 33L25 34L26 34L26 32L27 32L27 31L25 31L25 30L26 30L26 27L24 27L24 29L23 29L23 26L22 26L22 25L24 25L24 24L25 24L25 26L26 26L26 25L28 25L28 26L30 26L30 23L31 23L31 24L33 24L33 26L36 26L36 28L35 28L35 29L33 29L33 28L34 28L34 27L32 27L32 31L33 31L33 30L35 30L35 31L34 31L34 32L35 32L35 31L36 31L36 32L37 32L37 33L38 33L38 34L39 34L39 36L40 36L40 35L41 35L41 34L42 34L42 33L41 33L41 32L40 32L40 31L38 31L38 32L37 32L37 30L35 30L35 29L36 29L36 28L37 28L37 25L35 25L35 24L36 24L36 22L37 22L37 21L36 21L36 20L37 20L37 19L38 19L38 18L37 18L37 17L36 17L36 16L37 16L37 15L36 15L36 16L35 16L35 15L34 15L34 16L32 16L32 14L31 14L31 16L30 16L30 14L29 14L29 15L28 15L28 16L27 16L27 14L28 14L28 13ZM51 13L51 14L50 14L50 16L51 16L51 14L52 14L52 13ZM16 14L16 15L17 15L17 14ZM6 15L6 16L7 16L7 15ZM41 15L41 16L42 16L42 17L43 17L43 16L42 16L42 15ZM10 16L10 17L9 17L9 18L10 18L10 17L12 17L12 16ZM25 16L25 17L27 17L27 18L28 18L28 20L31 20L31 21L30 21L30 22L31 22L31 23L33 23L33 21L34 21L34 20L35 20L35 19L37 19L37 18L36 18L36 17L35 17L35 16L34 16L34 17L32 17L32 16L31 16L31 17L29 17L29 16L28 16L28 17L27 17L27 16ZM47 16L47 18L50 18L50 17L49 17L49 16ZM16 17L16 18L17 18L17 17ZM19 17L19 18L20 18L20 19L21 19L21 18L20 18L20 17ZM34 17L34 18L29 18L29 19L34 19L34 18L35 18L35 17ZM53 18L53 19L54 19L54 18ZM18 20L18 21L20 21L20 20ZM32 20L32 21L33 21L33 20ZM51 20L51 22L50 22L50 23L49 23L49 24L50 24L50 23L52 23L52 22L53 22L53 21L52 21L52 20ZM13 21L13 22L14 22L14 21ZM21 21L21 24L22 24L22 23L23 23L23 24L24 24L24 23L23 23L23 22L24 22L24 21ZM44 21L44 23L45 23L45 21ZM11 22L11 23L10 23L10 24L12 24L12 22ZM19 22L19 23L20 23L20 22ZM34 22L34 24L35 24L35 22ZM1 23L1 24L2 24L2 23ZM45 24L45 25L46 25L46 24ZM47 24L47 25L48 25L48 24ZM4 25L4 26L7 26L7 25ZM31 25L31 26L32 26L32 25ZM21 26L21 27L22 27L22 26ZM5 27L5 30L8 30L8 27ZM27 27L27 30L30 30L30 27ZM49 27L49 30L52 30L52 27ZM6 28L6 29L7 29L7 28ZM28 28L28 29L29 29L29 28ZM44 28L44 29L45 29L45 28ZM50 28L50 29L51 29L51 28ZM24 29L24 30L25 30L25 29ZM20 30L20 31L19 31L19 32L20 32L20 33L21 33L21 32L20 32L20 31L22 31L22 30ZM14 31L14 32L15 32L15 31ZM16 31L16 32L17 32L17 31ZM23 31L23 32L25 32L25 31ZM30 31L30 32L29 32L29 33L30 33L30 32L31 32L31 31ZM46 31L46 32L47 32L47 31ZM52 31L52 32L54 32L54 33L55 33L55 32L56 32L56 31L55 31L55 32L54 32L54 31ZM6 32L6 33L7 33L7 34L9 34L9 33L8 33L8 32ZM38 32L38 33L39 33L39 34L41 34L41 33L40 33L40 32ZM44 32L44 33L45 33L45 32ZM13 33L13 34L12 34L12 36L14 36L14 35L15 35L15 33ZM46 33L46 34L47 34L47 33ZM13 34L13 35L14 35L14 34ZM6 36L6 37L7 37L7 38L6 38L6 39L7 39L7 38L8 38L8 39L9 39L9 40L10 40L10 41L9 41L9 43L11 43L11 44L12 44L12 45L11 45L11 47L12 47L12 46L14 46L14 45L13 45L13 44L12 44L12 42L10 42L10 41L11 41L11 40L10 40L10 39L9 39L9 36L8 36L8 37L7 37L7 36ZM30 36L30 38L31 38L31 36ZM3 37L3 38L1 38L1 39L3 39L3 38L4 38L4 37ZM13 37L13 39L14 39L14 38L15 38L15 37ZM27 37L27 38L28 38L28 37ZM44 37L44 38L45 38L45 39L46 39L46 40L45 40L45 41L46 41L46 40L47 40L47 39L46 39L46 38L45 38L45 37ZM47 37L47 38L48 38L48 37ZM39 38L39 39L40 39L40 38ZM54 38L54 39L55 39L55 38ZM6 40L6 41L7 41L7 40ZM37 40L37 41L38 41L38 40ZM55 43L55 44L54 44L54 45L55 45L55 46L56 46L56 45L55 45L55 44L56 44L56 43ZM3 44L3 45L4 45L4 44ZM17 44L17 45L18 45L18 44ZM44 44L44 45L45 45L45 44ZM9 45L9 47L10 47L10 45ZM33 46L33 47L32 47L32 48L33 48L33 49L35 49L35 48L36 48L36 49L37 49L37 50L33 50L33 51L32 51L32 52L33 52L33 53L34 53L34 52L33 52L33 51L35 51L35 52L36 52L36 51L37 51L37 50L38 50L38 48L36 48L36 47L35 47L35 46ZM22 47L22 48L23 48L23 47ZM28 47L28 48L29 48L29 47ZM33 47L33 48L35 48L35 47ZM54 48L54 49L55 49L55 48ZM27 49L27 52L30 52L30 49ZM49 49L49 52L52 52L52 49ZM18 50L18 51L19 51L19 50ZM21 50L21 51L24 51L24 50ZM28 50L28 51L29 51L29 50ZM50 50L50 51L51 51L51 50ZM25 51L25 53L26 53L26 51ZM56 51L56 52L57 52L57 51ZM12 52L12 53L13 53L13 52ZM18 52L18 53L20 53L20 52ZM22 52L22 53L24 53L24 52ZM15 53L15 54L16 54L16 53ZM27 55L27 56L28 56L28 55ZM48 55L48 56L49 56L49 55ZM41 56L41 57L42 57L42 56ZM0 0L0 7L7 7L7 0ZM1 1L1 6L6 6L6 1ZM2 2L2 5L5 5L5 2ZM50 0L50 7L57 7L57 0ZM51 1L51 6L56 6L56 1ZM52 2L52 5L55 5L55 2ZM0 50L0 57L7 57L7 50ZM1 51L1 56L6 56L6 51ZM2 52L2 55L5 55L5 52Z" fill="#000000"/></g></g></svg>
