<?xml version="1.0" encoding="UTF-8"?>
<svg xmlns="http://www.w3.org/2000/svg" version="1.1" width="300" height="300" viewBox="0 0 300 300"><rect x="0" y="0" width="300" height="300" fill="#ffffff"/><g transform="scale(4.918)"><g transform="translate(2,2)"><path fill-rule="evenodd" d="M10 0L10 1L8 1L8 2L9 2L9 3L8 3L8 4L9 4L9 5L8 5L8 7L9 7L9 8L6 8L6 9L5 9L5 8L0 8L0 9L2 9L2 11L1 11L1 10L0 10L0 11L1 11L1 12L0 12L0 14L1 14L1 15L0 15L0 17L1 17L1 15L2 15L2 18L1 18L1 19L2 19L2 20L1 20L1 21L0 21L0 22L1 22L1 24L2 24L2 22L1 22L1 21L2 21L2 20L3 20L3 21L4 21L4 20L5 20L5 21L7 21L7 22L6 22L6 23L7 23L7 22L10 22L10 23L8 23L8 24L6 24L6 25L9 25L9 26L2 26L2 27L3 27L3 28L2 28L2 29L0 29L0 31L1 31L1 30L2 30L2 31L3 31L3 32L1 32L1 34L0 34L0 36L1 36L1 37L2 37L2 38L1 38L1 39L2 39L2 40L1 40L1 42L0 42L0 48L5 48L5 47L7 47L7 46L9 46L9 47L8 47L8 51L9 51L9 52L8 52L8 57L10 57L10 56L11 56L11 57L12 57L12 56L11 56L11 55L12 55L12 54L11 54L11 53L10 53L10 51L12 51L12 50L10 50L10 49L11 49L11 48L10 48L10 46L11 46L11 47L13 47L13 46L14 46L14 43L15 43L15 42L14 42L14 41L17 41L17 42L16 42L16 44L15 44L15 45L17 45L17 46L15 46L15 47L14 47L14 48L12 48L12 49L13 49L13 52L12 52L12 53L13 53L13 54L14 54L14 53L13 53L13 52L15 52L15 53L16 53L16 54L15 54L15 55L16 55L16 56L14 56L14 55L13 55L13 57L17 57L17 55L18 55L18 57L20 57L20 56L19 56L19 55L20 55L20 54L19 54L19 55L18 55L18 54L17 54L17 53L20 53L20 52L18 52L18 51L21 51L21 53L22 53L22 54L24 54L24 53L26 53L26 54L27 54L27 53L28 53L28 54L30 54L30 53L31 53L31 55L34 55L34 56L30 56L30 55L29 55L29 56L30 56L30 57L37 57L37 56L38 56L38 57L39 57L39 56L40 56L40 52L41 52L41 51L42 51L42 52L43 52L43 53L41 53L41 54L42 54L42 56L45 56L45 57L46 57L46 56L47 56L47 54L48 54L48 55L49 55L49 56L48 56L48 57L49 57L49 56L50 56L50 54L48 54L48 53L51 53L51 54L55 54L55 50L57 50L57 49L55 49L55 50L54 50L54 48L55 48L55 47L56 47L56 48L57 48L57 47L56 47L56 46L57 46L57 45L56 45L56 46L55 46L55 45L54 45L54 44L56 44L56 43L55 43L55 42L57 42L57 41L54 41L54 43L53 43L53 44L51 44L51 43L50 43L50 42L51 42L51 41L47 41L47 40L48 40L48 39L49 39L49 40L51 40L51 39L50 39L50 38L48 38L48 39L47 39L47 40L46 40L46 41L47 41L47 42L48 42L48 43L46 43L46 42L44 42L44 43L42 43L42 42L43 42L43 41L44 41L44 40L43 40L43 39L42 39L42 38L43 38L43 37L44 37L44 38L45 38L45 39L46 39L46 38L45 38L45 37L44 37L44 34L46 34L46 35L47 35L47 36L46 36L46 37L47 37L47 36L50 36L50 37L53 37L53 36L54 36L54 38L55 38L55 39L53 39L53 38L52 38L52 39L53 39L53 40L55 40L55 39L57 39L57 37L56 37L56 36L57 36L57 35L56 35L56 34L57 34L57 33L56 33L56 31L54 31L54 30L55 30L55 29L54 29L54 28L55 28L55 27L56 27L56 26L55 26L55 25L57 25L57 24L56 24L56 22L57 22L57 21L56 21L56 20L57 20L57 19L56 19L56 18L57 18L57 17L56 17L56 18L55 18L55 19L54 19L54 20L55 20L55 22L54 22L54 24L53 24L53 23L52 23L52 24L50 24L50 23L51 23L51 22L50 22L50 19L49 19L49 18L50 18L50 17L51 17L51 16L53 16L53 17L52 17L52 19L51 19L51 20L52 20L52 19L53 19L53 17L54 17L54 16L55 16L55 14L57 14L57 12L56 12L56 10L57 10L57 9L56 9L56 8L55 8L55 11L54 11L54 10L53 10L53 9L54 9L54 8L53 8L53 9L52 9L52 8L51 8L51 9L52 9L52 10L49 10L49 9L50 9L50 8L49 8L49 6L48 6L48 7L47 7L47 5L48 5L48 0L41 0L41 1L43 1L43 2L40 2L40 0L39 0L39 1L37 1L37 0L36 0L36 1L34 1L34 0L33 0L33 1L34 1L34 2L32 2L32 1L31 1L31 0L29 0L29 1L28 1L28 0L27 0L27 1L26 1L26 0L24 0L24 2L22 2L22 1L23 1L23 0L21 0L21 1L20 1L20 3L21 3L21 4L19 4L19 3L17 3L17 5L18 5L18 7L17 7L17 6L16 6L16 7L15 7L15 6L14 6L14 5L16 5L16 4L14 4L14 1L15 1L15 2L16 2L16 1L15 1L15 0L14 0L14 1L12 1L12 0ZM10 1L10 4L12 4L12 3L13 3L13 2L12 2L12 1ZM18 1L18 2L19 2L19 1ZM27 1L27 2L24 2L24 3L26 3L26 4L25 4L25 8L24 8L24 6L23 6L23 5L24 5L24 4L23 4L23 3L22 3L22 2L21 2L21 3L22 3L22 4L21 4L21 5L22 5L22 6L21 6L21 9L16 9L16 8L17 8L17 7L16 7L16 8L15 8L15 7L14 7L14 6L13 6L13 5L10 5L10 6L9 6L9 7L10 7L10 8L9 8L9 9L8 9L8 11L2 11L2 12L1 12L1 14L2 14L2 15L3 15L3 16L4 16L4 18L5 18L5 20L7 20L7 21L8 21L8 20L9 20L9 19L11 19L11 18L12 18L12 17L13 17L13 16L11 16L11 17L8 17L8 19L6 19L6 18L7 18L7 17L6 17L6 16L8 16L8 15L6 15L6 14L9 14L9 13L6 13L6 12L8 12L8 11L9 11L9 10L10 10L10 11L11 11L11 12L10 12L10 13L13 13L13 14L14 14L14 18L13 18L13 19L12 19L12 20L10 20L10 22L13 22L13 21L14 21L14 22L16 22L16 21L17 21L17 23L18 23L18 22L20 22L20 23L19 23L19 24L21 24L21 25L17 25L17 24L16 24L16 23L15 23L15 26L14 26L14 23L13 23L13 26L12 26L12 27L13 27L13 26L14 26L14 28L15 28L15 29L13 29L13 28L11 28L11 27L9 27L9 29L11 29L11 30L10 30L10 34L11 34L11 36L12 36L12 37L10 37L10 40L9 40L9 37L8 37L8 36L9 36L9 35L8 35L8 36L7 36L7 35L6 35L6 34L9 34L9 33L8 33L8 32L9 32L9 31L4 31L4 33L2 33L2 37L3 37L3 35L4 35L4 34L5 34L5 36L4 36L4 37L5 37L5 38L4 38L4 39L3 39L3 38L2 38L2 39L3 39L3 40L2 40L2 42L3 42L3 43L1 43L1 45L2 45L2 44L4 44L4 45L5 45L5 46L3 46L3 47L5 47L5 46L7 46L7 45L8 45L8 44L10 44L10 45L9 45L9 46L10 46L10 45L11 45L11 44L12 44L12 45L13 45L13 44L12 44L12 43L11 43L11 42L13 42L13 41L12 41L12 40L13 40L13 39L14 39L14 40L15 40L15 39L16 39L16 40L17 40L17 39L20 39L20 38L19 38L19 37L21 37L21 38L22 38L22 37L23 37L23 38L24 38L24 37L23 37L23 36L22 36L22 35L25 35L25 34L26 34L26 32L29 32L29 33L27 33L27 35L26 35L26 36L25 36L25 40L24 40L24 39L21 39L21 41L20 41L20 40L19 40L19 41L20 41L20 42L19 42L19 47L18 47L18 46L17 46L17 47L18 47L18 48L19 48L19 49L15 49L15 50L14 50L14 51L15 51L15 52L16 52L16 53L17 53L17 51L15 51L15 50L19 50L19 49L20 49L20 50L22 50L22 53L24 53L24 52L23 52L23 50L24 50L24 51L25 51L25 52L26 52L26 50L24 50L24 49L25 49L25 48L26 48L26 47L27 47L27 46L28 46L28 47L29 47L29 48L31 48L31 49L32 49L32 50L31 50L31 52L32 52L32 54L36 54L36 52L40 52L40 51L38 51L38 50L39 50L39 49L38 49L38 48L40 48L40 50L42 50L42 51L43 51L43 50L44 50L44 53L43 53L43 55L45 55L45 56L46 56L46 54L47 54L47 53L48 53L48 52L45 52L45 50L47 50L47 51L48 51L48 48L50 48L50 47L51 47L51 46L52 46L52 48L54 48L54 47L55 47L55 46L54 46L54 45L51 45L51 44L49 44L49 43L48 43L48 44L47 44L47 45L46 45L46 46L47 46L47 47L45 47L45 48L43 48L43 50L42 50L42 49L41 49L41 48L40 48L40 47L39 47L39 45L41 45L41 46L42 46L42 47L44 47L44 46L45 46L45 43L44 43L44 46L42 46L42 45L43 45L43 44L39 44L39 43L41 43L41 42L42 42L42 41L43 41L43 40L39 40L39 41L38 41L38 42L35 42L35 41L36 41L36 40L38 40L38 39L41 39L41 36L42 36L42 35L43 35L43 34L44 34L44 33L46 33L46 34L47 34L47 33L48 33L48 35L49 35L49 33L50 33L50 36L52 36L52 34L53 34L53 35L55 35L55 34L56 34L56 33L55 33L55 32L54 32L54 31L52 31L52 32L54 32L54 33L50 33L50 32L49 32L49 31L48 31L48 27L47 27L47 26L48 26L48 25L49 25L49 26L51 26L51 25L49 25L49 23L50 23L50 22L49 22L49 23L48 23L48 25L46 25L46 24L44 24L44 21L45 21L45 22L48 22L48 21L49 21L49 20L48 20L48 21L46 21L46 20L43 20L43 22L41 22L41 20L40 20L40 19L41 19L41 18L42 18L42 19L46 19L46 18L47 18L47 19L48 19L48 18L47 18L47 16L49 16L49 15L53 15L53 16L54 16L54 15L53 15L53 13L55 13L55 12L54 12L54 11L53 11L53 10L52 10L52 11L49 11L49 10L47 10L47 9L49 9L49 8L47 8L47 7L46 7L46 6L45 6L45 5L47 5L47 3L43 3L43 5L40 5L40 6L39 6L39 2L34 2L34 3L32 3L32 4L31 4L31 3L30 3L30 2L31 2L31 1L29 1L29 3L27 3L27 2L28 2L28 1ZM44 1L44 2L45 2L45 1ZM46 1L46 2L47 2L47 1ZM11 2L11 3L12 3L12 2ZM34 3L34 4L35 4L35 3ZM36 3L36 5L33 5L33 6L32 6L32 7L31 7L31 4L26 4L26 8L25 8L25 9L24 9L24 8L23 8L23 10L22 10L22 11L21 11L21 12L20 12L20 11L19 11L19 10L18 10L18 11L17 11L17 12L16 12L16 13L17 13L17 14L18 14L18 15L19 15L19 16L18 16L18 17L17 17L17 16L16 16L16 17L15 17L15 19L16 19L16 17L17 17L17 18L18 18L18 19L17 19L17 21L20 21L20 20L18 20L18 19L19 19L19 18L18 18L18 17L21 17L21 18L20 18L20 19L21 19L21 18L23 18L23 17L21 17L21 16L23 16L23 15L22 15L22 13L24 13L24 14L25 14L25 15L24 15L24 16L25 16L25 17L24 17L24 18L25 18L25 19L24 19L24 21L22 21L22 20L21 20L21 21L22 21L22 22L21 22L21 23L22 23L22 22L24 22L24 21L25 21L25 22L26 22L26 23L25 23L25 24L31 24L31 25L29 25L29 26L27 26L27 25L26 25L26 26L25 26L25 25L23 25L23 27L26 27L26 30L25 30L25 29L23 29L23 30L20 30L20 31L21 31L21 32L20 32L20 33L21 33L21 34L23 34L23 33L21 33L21 32L22 32L22 31L23 31L23 32L25 32L25 31L29 31L29 32L30 32L30 33L29 33L29 34L30 34L30 35L29 35L29 39L31 39L31 40L28 40L28 39L27 39L27 38L28 38L28 37L27 37L27 36L26 36L26 37L27 37L27 38L26 38L26 39L27 39L27 40L28 40L28 41L29 41L29 42L30 42L30 43L29 43L29 44L27 44L27 43L26 43L26 44L25 44L25 43L24 43L24 44L23 44L23 42L25 42L25 41L21 41L21 42L20 42L20 43L21 43L21 44L20 44L20 45L21 45L21 47L22 47L22 45L24 45L24 46L23 46L23 47L24 47L24 48L23 48L23 49L22 49L22 50L23 50L23 49L24 49L24 48L25 48L25 47L26 47L26 46L25 46L25 45L26 45L26 44L27 44L27 45L29 45L29 47L31 47L31 48L33 48L33 50L32 50L32 52L33 52L33 50L34 50L34 52L36 52L36 51L37 51L37 50L38 50L38 49L37 49L37 48L33 48L33 47L36 47L36 46L32 46L32 44L34 44L34 43L31 43L31 42L32 42L32 41L31 41L31 40L32 40L32 39L31 39L31 38L32 38L32 34L31 34L31 33L32 33L32 32L33 32L33 34L34 34L34 35L33 35L33 36L35 36L35 35L37 35L37 36L36 36L36 37L35 37L35 38L33 38L33 40L34 40L34 39L35 39L35 40L36 40L36 39L37 39L37 38L38 38L38 36L39 36L39 38L40 38L40 36L41 36L41 35L40 35L40 36L39 36L39 34L38 34L38 33L40 33L40 32L41 32L41 31L42 31L42 30L44 30L44 31L43 31L43 32L42 32L42 33L41 33L41 34L43 34L43 32L46 32L46 31L47 31L47 32L48 32L48 31L47 31L47 30L46 30L46 29L47 29L47 28L46 28L46 26L45 26L45 25L44 25L44 24L43 24L43 23L40 23L40 22L39 22L39 23L40 23L40 24L38 24L38 23L37 23L37 22L38 22L38 21L40 21L40 20L39 20L39 18L40 18L40 16L41 16L41 17L42 17L42 18L44 18L44 17L43 17L43 16L45 16L45 18L46 18L46 16L45 16L45 15L49 15L49 14L50 14L50 13L51 13L51 14L52 14L52 13L51 13L51 12L49 12L49 11L48 11L48 12L49 12L49 13L47 13L47 14L46 14L46 12L45 12L45 11L47 11L47 10L45 10L45 9L44 9L44 7L45 7L45 8L46 8L46 9L47 9L47 8L46 8L46 7L45 7L45 6L44 6L44 7L43 7L43 6L42 6L42 8L41 8L41 6L40 6L40 8L39 8L39 9L40 9L40 10L39 10L39 11L38 11L38 9L37 9L37 8L38 8L38 7L39 7L39 6L38 6L38 7L37 7L37 6L36 6L36 5L38 5L38 3ZM40 3L40 4L41 4L41 3ZM18 4L18 5L19 5L19 7L20 7L20 5L19 5L19 4ZM22 4L22 5L23 5L23 4ZM44 4L44 5L45 5L45 4ZM27 5L27 8L30 8L30 5ZM10 6L10 7L11 7L11 8L10 8L10 10L11 10L11 11L12 11L12 10L13 10L13 11L14 11L14 12L13 12L13 13L15 13L15 11L16 11L16 9L15 9L15 10L13 10L13 9L14 9L14 8L13 8L13 9L12 9L12 7L13 7L13 6L12 6L12 7L11 7L11 6ZM22 6L22 7L23 7L23 6ZM28 6L28 7L29 7L29 6ZM33 6L33 7L32 7L32 8L31 8L31 9L32 9L32 10L31 10L31 11L30 11L30 12L28 12L28 13L25 13L25 12L27 12L27 11L26 11L26 10L27 10L27 9L25 9L25 10L24 10L24 11L23 11L23 12L24 12L24 13L25 13L25 14L28 14L28 13L30 13L30 14L29 14L29 15L28 15L28 16L27 16L27 15L25 15L25 16L27 16L27 17L26 17L26 18L27 18L27 19L26 19L26 20L25 20L25 21L26 21L26 20L27 20L27 22L29 22L29 23L31 23L31 24L34 24L34 22L35 22L35 25L36 25L36 24L37 24L37 25L38 25L38 26L36 26L36 27L37 27L37 28L39 28L39 29L38 29L38 30L37 30L37 29L33 29L33 28L34 28L34 27L35 27L35 26L34 26L34 25L33 25L33 26L34 26L34 27L31 27L31 28L32 28L32 30L31 30L31 32L32 32L32 31L33 31L33 30L35 30L35 31L34 31L34 32L37 32L37 33L38 33L38 32L40 32L40 31L41 31L41 30L42 30L42 29L43 29L43 28L44 28L44 30L45 30L45 31L46 31L46 30L45 30L45 26L44 26L44 25L43 25L43 26L42 26L42 24L40 24L40 25L38 25L38 24L37 24L37 23L36 23L36 22L37 22L37 21L36 21L36 20L37 20L37 19L36 19L36 18L35 18L35 17L34 17L34 16L37 16L37 18L39 18L39 17L38 17L38 16L40 16L40 15L41 15L41 16L42 16L42 15L43 15L43 14L42 14L42 11L43 11L43 10L42 10L42 11L41 11L41 10L40 10L40 11L41 11L41 12L38 12L38 13L37 13L37 14L39 14L39 15L36 15L36 14L35 14L35 13L33 13L33 12L32 12L32 11L33 11L33 9L34 9L34 12L35 12L35 11L36 11L36 10L37 10L37 9L35 9L35 8L34 8L34 6ZM35 6L35 7L36 7L36 8L37 8L37 7L36 7L36 6ZM40 8L40 9L41 9L41 8ZM4 9L4 10L5 10L5 9ZM6 9L6 10L7 10L7 9ZM11 9L11 10L12 10L12 9ZM28 10L28 11L29 11L29 10ZM24 11L24 12L25 12L25 11ZM52 11L52 12L53 12L53 11ZM4 12L4 14L3 14L3 15L4 15L4 14L6 14L6 13L5 13L5 12ZM17 12L17 13L18 13L18 12ZM19 12L19 15L21 15L21 13L22 13L22 12L21 12L21 13L20 13L20 12ZM31 12L31 13L32 13L32 12ZM43 12L43 13L45 13L45 12ZM40 13L40 14L41 14L41 15L42 15L42 14L41 14L41 13ZM15 14L15 15L16 15L16 14ZM30 14L30 16L34 16L34 15L35 15L35 14ZM44 14L44 15L45 15L45 14ZM5 15L5 16L6 16L6 15ZM9 15L9 16L10 16L10 15ZM56 15L56 16L57 16L57 15ZM28 16L28 17L27 17L27 18L28 18L28 19L27 19L27 20L29 20L29 22L31 22L31 23L33 23L33 22L34 22L34 21L32 21L32 20L35 20L35 18L33 18L33 19L30 19L30 20L29 20L29 18L32 18L32 17L29 17L29 16ZM2 18L2 19L3 19L3 20L4 20L4 19L3 19L3 18ZM13 19L13 20L14 20L14 19ZM55 19L55 20L56 20L56 19ZM15 20L15 21L16 21L16 20ZM30 20L30 21L31 21L31 20ZM3 22L3 23L4 23L4 24L5 24L5 22ZM23 23L23 24L24 24L24 23ZM9 24L9 25L10 25L10 24ZM11 24L11 25L12 25L12 24ZM52 24L52 25L53 25L53 27L55 27L55 26L54 26L54 25L55 25L55 24L54 24L54 25L53 25L53 24ZM0 25L0 28L1 28L1 25ZM21 25L21 26L19 26L19 27L20 27L20 29L22 29L22 28L21 28L21 27L22 27L22 25ZM31 25L31 26L32 26L32 25ZM17 26L17 27L16 27L16 29L18 29L18 30L17 30L17 32L16 32L16 31L15 31L15 30L11 30L11 31L13 31L13 32L14 32L14 33L17 33L17 34L18 34L18 33L19 33L19 32L18 32L18 31L19 31L19 29L18 29L18 28L17 28L17 27L18 27L18 26ZM38 26L38 27L39 27L39 28L41 28L41 27L42 27L42 28L43 28L43 27L42 27L42 26L41 26L41 27L39 27L39 26ZM5 27L5 30L8 30L8 27ZM27 27L27 30L30 30L30 27ZM49 27L49 30L52 30L52 27ZM3 28L3 30L4 30L4 28ZM6 28L6 29L7 29L7 28ZM28 28L28 29L29 29L29 28ZM50 28L50 29L51 29L51 28ZM40 29L40 30L39 30L39 31L40 31L40 30L41 30L41 29ZM56 29L56 30L57 30L57 29ZM36 30L36 31L37 31L37 30ZM6 32L6 33L5 33L5 34L6 34L6 33L7 33L7 32ZM11 32L11 34L12 34L12 36L13 36L13 37L12 37L12 38L11 38L11 39L12 39L12 38L16 38L16 37L14 37L14 34L13 34L13 33L12 33L12 32ZM17 32L17 33L18 33L18 32ZM24 33L24 34L25 34L25 33ZM34 33L34 34L36 34L36 33ZM54 33L54 34L55 34L55 33ZM37 34L37 35L38 35L38 34ZM17 35L17 37L19 37L19 35ZM20 35L20 36L21 36L21 37L22 37L22 36L21 36L21 35ZM5 36L5 37L7 37L7 36ZM30 36L30 38L31 38L31 36ZM55 37L55 38L56 38L56 37ZM5 38L5 39L4 39L4 41L5 41L5 44L6 44L6 45L7 45L7 44L6 44L6 43L8 43L8 42L9 42L9 43L10 43L10 42L11 42L11 40L10 40L10 41L9 41L9 40L8 40L8 38ZM5 39L5 40L7 40L7 39ZM6 41L6 42L7 42L7 41ZM26 41L26 42L27 42L27 41ZM33 41L33 42L34 42L34 41ZM40 41L40 42L41 42L41 41ZM17 42L17 43L18 43L18 42ZM21 42L21 43L22 43L22 42ZM30 43L30 44L31 44L31 43ZM36 43L36 44L35 44L35 45L37 45L37 46L38 46L38 44L37 44L37 43ZM17 44L17 45L18 45L18 44ZM21 44L21 45L22 45L22 44ZM24 44L24 45L25 45L25 44ZM1 46L1 47L2 47L2 46ZM24 46L24 47L25 47L25 46ZM49 46L49 47L50 47L50 46ZM15 47L15 48L16 48L16 47ZM6 48L6 49L7 49L7 48ZM20 48L20 49L21 49L21 48ZM27 49L27 52L30 52L30 49ZM34 49L34 50L36 50L36 49ZM44 49L44 50L45 50L45 49ZM49 49L49 52L52 52L52 49ZM9 50L9 51L10 51L10 50ZM28 50L28 51L29 51L29 50ZM50 50L50 51L51 51L51 50ZM56 51L56 52L57 52L57 51ZM53 52L53 53L54 53L54 52ZM38 53L38 54L37 54L37 55L38 55L38 54L39 54L39 53ZM44 53L44 54L45 54L45 53ZM9 54L9 55L11 55L11 54ZM22 55L22 56L23 56L23 57L26 57L26 56L28 56L28 55L26 55L26 56L24 56L24 55ZM35 55L35 56L36 56L36 55ZM51 55L51 57L52 57L52 56L53 56L53 57L56 57L56 56L55 56L55 55ZM0 0L0 7L7 7L7 0ZM1 1L1 6L6 6L6 1ZM2 2L2 5L5 5L5 2ZM50 0L50 7L57 7L57 0ZM51 1L51 6L56 6L56 1ZM52 2L52 5L55 5L55 2ZM0 50L0 57L7 57L7 50ZM1 51L1 56L6 56L6 51ZM2 52L2 55L5 55L5 52Z" fill="#000000"/></g></g></svg>
