<?xml version="1.0" encoding="UTF-8"?>
<svg xmlns="http://www.w3.org/2000/svg" version="1.1" width="300" height="300" viewBox="0 0 300 300"><rect x="0" y="0" width="300" height="300" fill="#ffffff"/><g transform="scale(4.918)"><g transform="translate(2,2)"><path fill-rule="evenodd" d="M14 0L14 1L11 1L11 2L10 2L10 3L11 3L11 4L9 4L9 3L8 3L8 4L9 4L9 5L8 5L8 7L9 7L9 8L6 8L6 9L9 9L9 13L10 13L10 14L8 14L8 15L7 15L7 14L6 14L6 13L8 13L8 12L6 12L6 11L8 11L8 10L5 10L5 8L0 8L0 9L1 9L1 10L0 10L0 14L1 14L1 15L3 15L3 16L1 16L1 17L0 17L0 18L1 18L1 19L2 19L2 21L3 21L3 22L4 22L4 20L3 20L3 19L5 19L5 24L6 24L6 25L7 25L7 24L6 24L6 23L7 23L7 22L6 22L6 21L7 21L7 20L8 20L8 21L9 21L9 22L8 22L8 23L10 23L10 24L8 24L8 25L9 25L9 26L5 26L5 25L4 25L4 27L3 27L3 26L2 26L2 27L1 27L1 24L2 24L2 23L1 23L1 21L0 21L0 28L1 28L1 29L2 29L2 33L1 33L1 32L0 32L0 33L1 33L1 34L0 34L0 35L2 35L2 34L3 34L3 36L0 36L0 39L4 39L4 40L3 40L3 41L2 41L2 40L0 40L0 42L1 42L1 43L0 43L0 44L2 44L2 47L1 47L1 46L0 46L0 48L5 48L5 47L7 47L7 48L6 48L6 49L7 49L7 48L8 48L8 47L7 47L7 46L6 46L6 45L10 45L10 46L9 46L9 47L10 47L10 48L9 48L9 49L8 49L8 51L9 51L9 52L8 52L8 57L9 57L9 56L10 56L10 57L12 57L12 56L13 56L13 57L21 57L21 56L23 56L23 57L24 57L24 56L25 56L25 57L26 57L26 56L25 56L25 55L27 55L27 56L28 56L28 55L27 55L27 53L28 53L28 54L29 54L29 55L30 55L30 56L29 56L29 57L31 57L31 55L32 55L32 56L33 56L33 54L34 54L34 56L35 56L35 57L37 57L37 56L36 56L36 55L37 55L37 54L38 54L38 51L40 51L40 52L39 52L39 55L38 55L38 57L39 57L39 55L40 55L40 56L43 56L43 57L44 57L44 56L46 56L46 57L47 57L47 55L48 55L48 56L49 56L49 57L50 57L50 53L51 53L51 54L54 54L54 55L51 55L51 57L52 57L52 56L53 56L53 57L54 57L54 56L55 56L55 57L56 57L56 56L55 56L55 54L54 54L54 53L53 53L53 51L54 51L54 52L55 52L55 53L56 53L56 52L57 52L57 51L56 51L56 52L55 52L55 50L57 50L57 47L56 47L56 46L57 46L57 45L56 45L56 46L55 46L55 45L54 45L54 44L55 44L55 43L56 43L56 44L57 44L57 43L56 43L56 41L55 41L55 39L57 39L57 37L56 37L56 36L57 36L57 35L56 35L56 36L55 36L55 35L53 35L53 34L52 34L52 37L53 37L53 36L55 36L55 39L50 39L50 37L47 37L47 39L50 39L50 40L52 40L52 41L49 41L49 43L47 43L47 42L46 42L46 40L45 40L45 39L44 39L44 40L41 40L41 39L40 39L40 38L37 38L37 36L38 36L38 35L40 35L40 36L39 36L39 37L40 37L40 36L42 36L42 38L43 38L43 37L44 37L44 38L45 38L45 37L46 37L46 36L45 36L45 37L44 37L44 33L42 33L42 34L41 34L41 33L40 33L40 32L41 32L41 31L42 31L42 32L45 32L45 33L46 33L46 32L45 32L45 30L46 30L46 31L47 31L47 32L48 32L48 31L49 31L49 35L50 35L50 33L54 33L54 34L57 34L57 33L54 33L54 32L56 32L56 30L57 30L57 28L55 28L55 27L53 27L53 26L49 26L49 25L47 25L47 26L48 26L48 28L46 28L46 27L45 27L45 25L46 25L46 22L45 22L45 21L44 21L44 23L43 23L43 20L46 20L46 19L47 19L47 20L48 20L48 21L47 21L47 23L48 23L48 24L49 24L49 23L48 23L48 22L50 22L50 24L55 24L55 23L56 23L56 24L57 24L57 23L56 23L56 22L57 22L57 21L56 21L56 20L57 20L57 19L56 19L56 20L55 20L55 18L57 18L57 17L56 17L56 16L55 16L55 15L56 15L56 14L57 14L57 11L56 11L56 10L55 10L55 11L54 11L54 10L53 10L53 11L52 11L52 10L49 10L49 9L50 9L50 8L49 8L49 9L48 9L48 8L46 8L46 9L48 9L48 10L49 10L49 11L47 11L47 12L49 12L49 11L52 11L52 12L53 12L53 11L54 11L54 12L55 12L55 14L53 14L53 16L55 16L55 17L53 17L53 19L51 19L51 22L50 22L50 17L49 17L49 16L47 16L47 18L45 18L45 17L46 17L46 15L49 15L49 14L50 14L50 13L51 13L51 14L52 14L52 13L51 13L51 12L50 12L50 13L47 13L47 14L46 14L46 12L45 12L45 11L44 11L44 10L45 10L45 9L44 9L44 8L45 8L45 6L44 6L44 8L43 8L43 9L42 9L42 7L43 7L43 6L42 6L42 7L41 7L41 5L43 5L43 3L47 3L47 5L46 5L46 4L44 4L44 5L46 5L46 7L47 7L47 5L48 5L48 0L45 0L45 1L47 1L47 2L44 2L44 0L41 0L41 1L37 1L37 0L35 0L35 1L34 1L34 0L32 0L32 1L31 1L31 0L27 0L27 1L26 1L26 0L21 0L21 3L22 3L22 1L23 1L23 2L25 2L25 3L24 3L24 4L21 4L21 6L20 6L20 5L19 5L19 6L18 6L18 7L17 7L17 5L18 5L18 4L20 4L20 3L19 3L19 2L20 2L20 0L19 0L19 1L18 1L18 0L17 0L17 1L16 1L16 2L14 2L14 1L15 1L15 0ZM8 1L8 2L9 2L9 1ZM17 1L17 2L16 2L16 4L15 4L15 3L14 3L14 4L12 4L12 5L10 5L10 6L9 6L9 7L10 7L10 8L9 8L9 9L10 9L10 8L11 8L11 11L12 11L12 10L13 10L13 11L14 11L14 12L12 12L12 13L14 13L14 15L18 15L18 16L19 16L19 17L16 17L16 16L14 16L14 17L16 17L16 18L19 18L19 21L18 21L18 19L15 19L15 21L13 21L13 20L14 20L14 19L13 19L13 17L12 17L12 16L11 16L11 15L9 15L9 16L8 16L8 18L9 18L9 20L10 20L10 19L12 19L12 20L11 20L11 22L10 22L10 23L11 23L11 25L13 25L13 27L12 27L12 26L9 26L9 27L12 27L12 28L11 28L11 29L10 29L10 28L9 28L9 29L10 29L10 30L11 30L11 35L10 35L10 34L8 34L8 32L10 32L10 31L6 31L6 32L5 32L5 31L4 31L4 32L3 32L3 34L5 34L5 33L6 33L6 34L7 34L7 35L5 35L5 37L4 37L4 36L3 36L3 37L1 37L1 38L4 38L4 39L5 39L5 42L4 42L4 43L5 43L5 45L3 45L3 47L5 47L5 45L6 45L6 44L8 44L8 43L9 43L9 41L8 41L8 39L9 39L9 38L8 38L8 35L9 35L9 37L10 37L10 36L11 36L11 38L10 38L10 40L12 40L12 42L10 42L10 43L11 43L11 44L12 44L12 42L13 42L13 41L14 41L14 40L16 40L16 39L15 39L15 38L16 38L16 37L17 37L17 39L18 39L18 40L21 40L21 41L19 41L19 42L18 42L18 43L17 43L17 41L15 41L15 42L14 42L14 43L16 43L16 44L15 44L15 46L14 46L14 45L11 45L11 46L10 46L10 47L11 47L11 48L12 48L12 49L14 49L14 48L15 48L15 46L17 46L17 47L16 47L16 48L17 48L17 49L16 49L16 50L17 50L17 49L18 49L18 51L17 51L17 52L15 52L15 50L14 50L14 52L13 52L13 50L12 50L12 51L11 51L11 52L9 52L9 54L12 54L12 53L11 53L11 52L13 52L13 55L14 55L14 56L15 56L15 55L16 55L16 56L18 56L18 55L20 55L20 54L19 54L19 53L21 53L21 55L22 55L22 53L23 53L23 54L24 54L24 53L23 53L23 52L26 52L26 49L25 49L25 48L27 48L27 47L25 47L25 48L22 48L22 49L25 49L25 51L23 51L23 50L21 50L21 49L20 49L20 47L21 47L21 46L22 46L22 47L24 47L24 46L23 46L23 45L25 45L25 46L30 46L30 45L27 45L27 43L26 43L26 42L29 42L29 43L30 43L30 44L31 44L31 47L30 47L30 48L31 48L31 52L32 52L32 54L33 54L33 52L32 52L32 51L33 51L33 50L35 50L35 51L34 51L34 52L36 52L36 48L40 48L40 49L41 49L41 50L40 50L40 51L41 51L41 50L42 50L42 53L43 53L43 55L45 55L45 54L46 54L46 55L47 55L47 54L48 54L48 52L47 52L47 51L48 51L48 48L50 48L50 47L52 47L52 48L54 48L54 49L55 49L55 48L56 48L56 47L55 47L55 48L54 48L54 47L52 47L52 46L53 46L53 45L52 45L52 44L53 44L53 43L54 43L54 40L53 40L53 41L52 41L52 42L53 42L53 43L52 43L52 44L50 44L50 45L52 45L52 46L50 46L50 47L49 47L49 44L47 44L47 45L46 45L46 46L47 46L47 47L46 47L46 48L44 48L44 47L45 47L45 44L44 44L44 43L45 43L45 42L43 42L43 44L41 44L41 43L42 43L42 42L41 42L41 40L39 40L39 39L37 39L37 40L39 40L39 41L38 41L38 42L37 42L37 41L36 41L36 42L37 42L37 44L39 44L39 45L38 45L38 46L37 46L37 45L35 45L35 44L36 44L36 43L34 43L34 42L35 42L35 40L36 40L36 39L35 39L35 37L36 37L36 36L37 36L37 35L38 35L38 34L40 34L40 35L41 35L41 34L40 34L40 33L38 33L38 32L40 32L40 31L41 31L41 30L42 30L42 31L44 31L44 30L42 30L42 29L43 29L43 28L44 28L44 29L45 29L45 27L44 27L44 25L45 25L45 24L43 24L43 28L42 28L42 27L40 27L40 25L42 25L42 23L41 23L41 22L40 22L40 24L39 24L39 23L37 23L37 25L36 25L36 26L35 26L35 25L33 25L33 23L34 23L34 22L35 22L35 23L36 23L36 22L37 22L37 21L36 21L36 20L38 20L38 22L39 22L39 20L40 20L40 21L41 21L41 20L42 20L42 19L45 19L45 18L42 18L42 17L41 17L41 16L42 16L42 15L45 15L45 14L44 14L44 13L45 13L45 12L44 12L44 11L43 11L43 12L44 12L44 13L43 13L43 14L42 14L42 11L41 11L41 12L38 12L38 14L36 14L36 16L30 16L30 15L21 15L21 14L24 14L24 13L25 13L25 14L28 14L28 13L29 13L29 14L30 14L30 13L29 13L29 12L30 12L30 11L31 11L31 10L32 10L32 9L31 9L31 10L30 10L30 11L29 11L29 10L28 10L28 9L26 9L26 6L25 6L25 4L26 4L26 3L25 3L25 4L24 4L24 5L23 5L23 7L22 7L22 6L21 6L21 7L20 7L20 6L19 6L19 9L16 9L16 6L15 6L15 5L16 5L16 4L18 4L18 1ZM25 1L25 2L26 2L26 1ZM27 1L27 3L28 3L28 4L29 4L29 3L31 3L31 1ZM32 1L32 2L34 2L34 1ZM41 1L41 2L43 2L43 1ZM11 2L11 3L13 3L13 2ZM28 2L28 3L29 3L29 2ZM35 2L35 4L33 4L33 3L32 3L32 4L31 4L31 8L33 8L33 7L34 7L34 9L33 9L33 11L32 11L32 13L31 13L31 15L33 15L33 14L35 14L35 13L33 13L33 11L34 11L34 12L37 12L37 11L35 11L35 7L36 7L36 6L37 6L37 8L39 8L39 9L36 9L36 10L39 10L39 11L40 11L40 10L41 10L41 7L40 7L40 6L39 6L39 7L38 7L38 6L37 6L37 5L39 5L39 4L37 4L37 5L36 5L36 3L37 3L37 2ZM40 3L40 5L41 5L41 4L42 4L42 3ZM14 4L14 5L12 5L12 7L11 7L11 6L10 6L10 7L11 7L11 8L13 8L13 9L14 9L14 10L16 10L16 9L14 9L14 8L15 8L15 6L14 6L14 5L15 5L15 4ZM27 5L27 8L30 8L30 5ZM33 5L33 6L32 6L32 7L33 7L33 6L34 6L34 7L35 7L35 6L36 6L36 5ZM13 6L13 8L14 8L14 6ZM24 6L24 7L23 7L23 9L22 9L22 8L21 8L21 9L22 9L22 10L20 10L20 9L19 9L19 13L18 13L18 12L17 12L17 11L18 11L18 10L17 10L17 11L15 11L15 13L18 13L18 15L19 15L19 16L20 16L20 17L19 17L19 18L20 18L20 17L21 17L21 19L20 19L20 20L21 20L21 21L19 21L19 22L17 22L17 24L16 24L16 23L15 23L15 22L16 22L16 21L15 21L15 22L12 22L12 24L13 24L13 25L18 25L18 27L16 27L16 28L15 28L15 29L17 29L17 30L16 30L16 31L15 31L15 30L14 30L14 29L11 29L11 30L13 30L13 32L12 32L12 33L13 33L13 34L12 34L12 35L13 35L13 36L15 36L15 37L16 37L16 35L17 35L17 34L14 34L14 33L17 33L17 32L16 32L16 31L17 31L17 30L20 30L20 31L23 31L23 32L25 32L25 33L22 33L22 32L20 32L20 33L19 33L19 31L18 31L18 33L19 33L19 34L18 34L18 35L19 35L19 34L20 34L20 35L22 35L22 36L23 36L23 35L26 35L26 39L25 39L25 40L24 40L24 39L23 39L23 41L21 41L21 43L22 43L22 42L23 42L23 43L24 43L24 44L25 44L25 45L26 45L26 44L25 44L25 42L26 42L26 41L27 41L27 40L26 40L26 39L28 39L28 40L29 40L29 39L31 39L31 40L30 40L30 43L31 43L31 44L34 44L34 43L31 43L31 41L32 41L32 42L34 42L34 41L32 41L32 40L34 40L34 38L33 38L33 39L31 39L31 38L32 38L32 35L30 35L30 34L29 34L29 35L30 35L30 36L29 36L29 37L28 37L28 36L27 36L27 35L26 35L26 34L25 34L25 33L26 33L26 32L25 32L25 31L29 31L29 32L27 32L27 33L30 33L30 31L31 31L31 29L32 29L32 27L33 27L33 26L32 26L32 25L31 25L31 23L33 23L33 21L32 21L32 20L33 20L33 19L32 19L32 18L34 18L34 19L39 19L39 18L41 18L41 19L40 19L40 20L41 20L41 19L42 19L42 18L41 18L41 17L40 17L40 16L41 16L41 15L42 15L42 14L41 14L41 13L40 13L40 16L39 16L39 18L34 18L34 17L32 17L32 18L31 18L31 17L29 17L29 18L31 18L31 19L28 19L28 18L26 18L26 17L28 17L28 16L25 16L25 17L21 17L21 16L20 16L20 15L19 15L19 13L22 13L22 12L20 12L20 11L22 11L22 10L23 10L23 9L24 9L24 10L25 10L25 9L24 9L24 7L25 7L25 6ZM28 6L28 7L29 7L29 6ZM48 6L48 7L49 7L49 6ZM39 7L39 8L40 8L40 7ZM51 8L51 9L52 9L52 8ZM53 8L53 9L54 9L54 8ZM55 8L55 9L56 9L56 8ZM3 9L3 10L2 10L2 11L1 11L1 14L3 14L3 15L5 15L5 16L4 16L4 17L5 17L5 19L6 19L6 20L7 20L7 19L6 19L6 18L7 18L7 17L6 17L6 16L7 16L7 15L6 15L6 14L5 14L5 12L4 12L4 11L5 11L5 10L4 10L4 9ZM39 9L39 10L40 10L40 9ZM43 9L43 10L44 10L44 9ZM26 10L26 11L27 11L27 12L25 12L25 13L28 13L28 12L29 12L29 11L28 11L28 10ZM2 12L2 13L3 13L3 14L4 14L4 13L3 13L3 12ZM10 12L10 13L11 13L11 12ZM23 12L23 13L24 13L24 12ZM37 15L37 16L36 16L36 17L37 17L37 16L38 16L38 15ZM50 15L50 16L52 16L52 15ZM9 16L9 18L10 18L10 17L11 17L11 16ZM43 16L43 17L45 17L45 16ZM1 17L1 18L2 18L2 19L3 19L3 18L2 18L2 17ZM22 18L22 19L23 19L23 20L22 20L22 21L21 21L21 22L22 22L22 21L23 21L23 22L24 22L24 21L23 21L23 20L25 20L25 19L26 19L26 20L28 20L28 22L30 22L30 23L31 23L31 22L30 22L30 21L29 21L29 20L28 20L28 19L26 19L26 18L25 18L25 19L23 19L23 18ZM47 18L47 19L48 19L48 18ZM34 20L34 21L35 21L35 20ZM52 20L52 21L53 21L53 20ZM54 20L54 22L53 22L53 23L55 23L55 20ZM25 21L25 22L26 22L26 23L25 23L25 24L24 24L24 23L21 23L21 24L22 24L22 25L20 25L20 24L19 24L19 23L20 23L20 22L19 22L19 23L18 23L18 24L19 24L19 25L20 25L20 27L19 27L19 29L20 29L20 30L21 30L21 29L22 29L22 30L23 30L23 31L25 31L25 30L26 30L26 27L25 27L25 28L24 28L24 26L23 26L23 28L24 28L24 29L22 29L22 28L21 28L21 27L22 27L22 25L23 25L23 24L24 24L24 25L25 25L25 26L26 26L26 25L27 25L27 24L28 24L28 26L29 26L29 24L28 24L28 23L27 23L27 21ZM14 23L14 24L15 24L15 23ZM25 24L25 25L26 25L26 24ZM54 25L54 26L55 26L55 25ZM56 25L56 26L57 26L57 25ZM36 26L36 28L35 28L35 27L34 27L34 28L33 28L33 29L35 29L35 30L33 30L33 31L32 31L32 32L31 32L31 33L32 33L32 32L34 32L34 31L35 31L35 30L37 30L37 32L35 32L35 33L36 33L36 35L37 35L37 34L38 34L38 33L37 33L37 32L38 32L38 31L39 31L39 30L37 30L37 28L38 28L38 27L39 27L39 28L40 28L40 27L39 27L39 26ZM2 27L2 29L4 29L4 28L3 28L3 27ZM5 27L5 30L8 30L8 27ZM27 27L27 30L30 30L30 27ZM49 27L49 30L52 30L52 27ZM6 28L6 29L7 29L7 28ZM17 28L17 29L18 29L18 28ZM20 28L20 29L21 29L21 28ZM28 28L28 29L29 29L29 28ZM50 28L50 29L51 29L51 28ZM54 28L54 29L55 29L55 28ZM24 29L24 30L25 30L25 29ZM40 29L40 30L41 30L41 29ZM46 29L46 30L47 30L47 31L48 31L48 29ZM0 30L0 31L1 31L1 30ZM51 31L51 32L54 32L54 31ZM6 32L6 33L7 33L7 32ZM20 33L20 34L21 34L21 33ZM33 33L33 34L34 34L34 35L33 35L33 36L34 36L34 37L35 37L35 36L34 36L34 35L35 35L35 34L34 34L34 33ZM47 33L47 34L45 34L45 35L48 35L48 33ZM22 34L22 35L23 35L23 34ZM42 34L42 36L43 36L43 34ZM6 36L6 37L5 37L5 38L6 38L6 39L8 39L8 38L6 38L6 37L7 37L7 36ZM18 36L18 37L20 37L20 36ZM24 36L24 37L21 37L21 40L22 40L22 38L24 38L24 37L25 37L25 36ZM30 36L30 38L31 38L31 36ZM12 37L12 38L11 38L11 39L12 39L12 40L13 40L13 39L14 39L14 38L13 38L13 37ZM27 37L27 38L28 38L28 37ZM12 38L12 39L13 39L13 38ZM19 38L19 39L20 39L20 38ZM6 40L6 41L7 41L7 42L6 42L6 43L7 43L7 42L8 42L8 41L7 41L7 40ZM44 40L44 41L45 41L45 40ZM39 41L39 44L40 44L40 41ZM2 42L2 43L3 43L3 42ZM50 42L50 43L51 43L51 42ZM19 43L19 44L20 44L20 45L18 45L18 44L16 44L16 45L18 45L18 47L19 47L19 46L20 46L20 45L22 45L22 44L20 44L20 43ZM39 45L39 47L40 47L40 48L42 48L42 50L43 50L43 53L44 53L44 54L45 54L45 53L44 53L44 50L43 50L43 49L44 49L44 48L43 48L43 47L44 47L44 45L42 45L42 46L41 46L41 45ZM13 46L13 47L12 47L12 48L13 48L13 47L14 47L14 46ZM33 46L33 47L31 47L31 48L34 48L34 49L35 49L35 48L36 48L36 47L37 47L37 46ZM42 46L42 47L43 47L43 46ZM28 47L28 48L29 48L29 47ZM34 47L34 48L35 48L35 47ZM18 48L18 49L19 49L19 48ZM46 48L46 49L45 49L45 50L46 50L46 51L45 51L45 52L46 52L46 51L47 51L47 50L46 50L46 49L47 49L47 48ZM9 49L9 50L10 50L10 49ZM27 49L27 52L30 52L30 49ZM32 49L32 50L33 50L33 49ZM37 49L37 50L39 50L39 49ZM49 49L49 52L52 52L52 49ZM28 50L28 51L29 51L29 50ZM50 50L50 51L51 51L51 50ZM18 51L18 53L19 53L19 52L21 52L21 53L22 53L22 52L21 52L21 51ZM14 52L14 53L15 53L15 54L14 54L14 55L15 55L15 54L16 54L16 53L15 53L15 52ZM40 52L40 55L41 55L41 52ZM25 53L25 54L26 54L26 53ZM29 53L29 54L30 54L30 53ZM34 53L34 54L37 54L37 53ZM10 55L10 56L12 56L12 55ZM23 55L23 56L24 56L24 55ZM0 0L0 7L7 7L7 0ZM1 1L1 6L6 6L6 1ZM2 2L2 5L5 5L5 2ZM50 0L50 7L57 7L57 0ZM51 1L51 6L56 6L56 1ZM52 2L52 5L55 5L55 2ZM0 50L0 57L7 57L7 50ZM1 51L1 56L6 56L6 51ZM2 52L2 55L5 55L5 52Z" fill="#000000"/></g></g></svg>
