<?xml version="1.0" encoding="UTF-8"?>
<svg xmlns="http://www.w3.org/2000/svg" version="1.1" width="300" height="300" viewBox="0 0 300 300"><rect x="0" y="0" width="300" height="300" fill="#ffffff"/><g transform="scale(4.918)"><g transform="translate(2,2)"><path fill-rule="evenodd" d="M8 0L8 1L9 1L9 0ZM10 0L10 1L11 1L11 4L10 4L10 5L9 5L9 3L10 3L10 2L8 2L8 5L9 5L9 6L8 6L8 7L9 7L9 6L10 6L10 8L8 8L8 10L9 10L9 9L10 9L10 10L13 10L13 11L11 11L11 12L13 12L13 13L11 13L11 15L10 15L10 16L9 16L9 14L10 14L10 13L7 13L7 12L9 12L9 11L7 11L7 10L6 10L6 9L7 9L7 8L6 8L6 9L4 9L4 8L0 8L0 11L1 11L1 12L0 12L0 16L1 16L1 15L4 15L4 16L5 16L5 15L7 15L7 16L6 16L6 17L7 17L7 18L6 18L6 19L7 19L7 20L6 20L6 21L7 21L7 22L5 22L5 21L3 21L3 20L1 20L1 22L0 22L0 26L1 26L1 27L0 27L0 29L1 29L1 30L2 30L2 31L1 31L1 32L0 32L0 34L1 34L1 35L3 35L3 36L5 36L5 37L4 37L4 38L2 38L2 39L3 39L3 40L2 40L2 42L1 42L1 44L0 44L0 48L5 48L5 47L7 47L7 48L6 48L6 49L8 49L8 50L9 50L9 49L11 49L11 51L10 51L10 52L9 52L9 53L8 53L8 57L10 57L10 55L11 55L11 51L12 51L12 50L13 50L13 52L12 52L12 53L13 53L13 54L14 54L14 53L13 53L13 52L16 52L16 49L18 49L18 50L20 50L20 51L19 51L19 53L18 53L18 51L17 51L17 54L16 54L16 53L15 53L15 56L14 56L14 57L15 57L15 56L16 56L16 57L18 57L18 55L17 55L17 54L19 54L19 55L20 55L20 56L19 56L19 57L20 57L20 56L21 56L21 57L23 57L23 56L22 56L22 55L23 55L23 54L25 54L25 55L24 55L24 57L25 57L25 55L26 55L26 56L27 56L27 57L29 57L29 56L27 56L27 54L28 54L28 53L29 53L29 54L31 54L31 55L30 55L30 56L31 56L31 55L32 55L32 56L33 56L33 55L34 55L34 56L35 56L35 57L36 57L36 55L37 55L37 53L36 53L36 54L35 54L35 53L34 53L34 52L33 52L33 51L32 51L32 50L31 50L31 47L32 47L32 48L33 48L33 50L34 50L34 48L36 48L36 49L35 49L35 50L36 50L36 52L37 52L37 50L36 50L36 49L37 49L37 47L35 47L35 46L34 46L34 47L33 47L33 46L31 46L31 45L30 45L30 44L31 44L31 42L29 42L29 40L28 40L28 39L30 39L30 38L31 38L31 39L32 39L32 44L33 44L33 45L36 45L36 46L38 46L38 47L39 47L39 48L38 48L38 53L39 53L39 49L40 49L40 52L41 52L41 49L43 49L43 50L42 50L42 52L43 52L43 54L47 54L47 55L45 55L45 56L49 56L49 57L51 57L51 53L53 53L53 55L52 55L52 57L54 57L54 56L53 56L53 55L54 55L54 53L55 53L55 54L56 54L56 53L57 53L57 51L56 51L56 49L55 49L55 51L53 51L53 49L54 49L54 48L53 48L53 47L52 47L52 43L51 43L51 46L50 46L50 48L49 48L49 44L50 44L50 42L53 42L53 40L55 40L55 39L53 39L53 40L50 40L50 42L49 42L49 44L48 44L48 46L46 46L46 45L45 45L45 46L44 46L44 45L43 45L43 44L42 44L42 47L41 47L41 43L42 43L42 39L41 39L41 38L40 38L40 35L38 35L38 34L37 34L37 35L36 35L36 37L35 37L35 34L34 34L34 36L33 36L33 37L32 37L32 36L31 36L31 37L30 37L30 34L32 34L32 35L33 35L33 33L32 33L32 31L31 31L31 30L33 30L33 32L34 32L34 31L35 31L35 33L36 33L36 32L37 32L37 33L38 33L38 32L37 32L37 31L39 31L39 30L40 30L40 29L39 29L39 28L38 28L38 27L39 27L39 26L40 26L40 28L41 28L41 29L43 29L43 32L42 32L42 30L41 30L41 31L40 31L40 32L39 32L39 34L41 34L41 32L42 32L42 36L43 36L43 37L44 37L44 36L43 36L43 33L44 33L44 35L45 35L45 33L47 33L47 34L46 34L46 37L45 37L45 38L46 38L46 39L47 39L47 38L46 38L46 37L47 37L47 36L49 36L49 34L48 34L48 33L50 33L50 36L51 36L51 38L52 38L52 35L53 35L53 37L54 37L54 35L53 35L53 34L51 34L51 33L50 33L50 32L49 32L49 31L53 31L53 33L54 33L54 34L56 34L56 36L55 36L55 38L56 38L56 39L57 39L57 38L56 38L56 36L57 36L57 31L56 31L56 30L57 30L57 28L56 28L56 29L55 29L55 26L54 26L54 23L56 23L56 24L57 24L57 21L56 21L56 20L57 20L57 19L56 19L56 20L54 20L54 22L53 22L53 19L52 19L52 17L51 17L51 16L46 16L46 17L45 17L45 14L44 14L44 12L45 12L45 13L46 13L46 12L48 12L48 11L50 11L50 10L49 10L49 9L50 9L50 8L48 8L48 9L47 9L47 8L45 8L45 9L47 9L47 10L46 10L46 11L43 11L43 9L44 9L44 7L45 7L45 6L46 6L46 7L47 7L47 5L48 5L48 0L44 0L44 3L45 3L45 2L46 2L46 3L47 3L47 5L45 5L45 6L44 6L44 5L42 5L42 7L41 7L41 6L40 6L40 8L39 8L39 4L40 4L40 3L39 3L39 4L38 4L38 2L36 2L36 4L35 4L35 1L34 1L34 3L33 3L33 0L32 0L32 1L31 1L31 0L29 0L29 3L30 3L30 4L28 4L28 2L27 2L27 4L26 4L26 1L25 1L25 0L24 0L24 1L25 1L25 2L24 2L24 3L23 3L23 4L22 4L22 5L20 5L20 4L19 4L19 3L18 3L18 1L16 1L16 0L14 0L14 2L13 2L13 1L12 1L12 0ZM21 0L21 1L20 1L20 3L21 3L21 1L23 1L23 0ZM27 0L27 1L28 1L28 0ZM37 0L37 1L38 1L38 0ZM40 0L40 1L41 1L41 2L43 2L43 0ZM15 1L15 3L14 3L14 6L13 6L13 7L12 7L12 6L11 6L11 8L10 8L10 9L12 9L12 8L13 8L13 9L14 9L14 11L15 11L15 12L17 12L17 13L15 13L15 14L14 14L14 13L13 13L13 14L14 14L14 15L13 15L13 16L12 16L12 15L11 15L11 16L10 16L10 17L9 17L9 20L8 20L8 21L10 21L10 22L11 22L11 23L9 23L9 24L7 24L7 23L6 23L6 24L7 24L7 25L6 25L6 26L7 26L7 25L9 25L9 26L10 26L10 25L12 25L12 28L13 28L13 26L14 26L14 27L15 27L15 29L12 29L12 30L14 30L14 32L13 32L13 33L12 33L12 32L11 32L11 33L12 33L12 35L11 35L11 34L10 34L10 31L5 31L5 32L4 32L4 31L3 31L3 32L4 32L4 34L5 34L5 35L6 35L6 36L7 36L7 37L5 37L5 38L4 38L4 40L3 40L3 42L5 42L5 44L4 44L4 43L3 43L3 45L2 45L2 44L1 44L1 47L2 47L2 46L3 46L3 47L5 47L5 44L7 44L7 45L6 45L6 46L7 46L7 47L8 47L8 46L7 46L7 45L8 45L8 44L7 44L7 43L6 43L6 42L7 42L7 41L4 41L4 40L7 40L7 39L5 39L5 38L8 38L8 37L9 37L9 39L8 39L8 42L9 42L9 43L10 43L10 45L11 45L11 46L10 46L10 47L9 47L9 48L8 48L8 49L9 49L9 48L11 48L11 49L13 49L13 50L14 50L14 51L15 51L15 50L14 50L14 49L13 49L13 47L12 47L12 45L11 45L11 43L12 43L12 44L14 44L14 45L16 45L16 47L15 47L15 48L17 48L17 45L19 45L19 46L18 46L18 48L19 48L19 49L21 49L21 50L23 50L23 52L21 52L21 53L20 53L20 55L21 55L21 53L22 53L22 54L23 54L23 52L24 52L24 53L25 53L25 54L26 54L26 51L25 51L25 52L24 52L24 50L25 50L25 49L26 49L26 48L25 48L25 47L27 47L27 48L28 48L28 46L30 46L30 47L31 47L31 46L30 46L30 45L29 45L29 43L28 43L28 46L27 46L27 42L28 42L28 41L27 41L27 42L25 42L25 41L26 41L26 40L27 40L27 39L25 39L25 38L30 38L30 37L29 37L29 36L25 36L25 37L24 37L24 39L23 39L23 40L22 40L22 38L21 38L21 36L20 36L20 35L21 35L21 33L19 33L19 31L20 31L20 30L21 30L21 29L23 29L23 27L24 27L24 28L25 28L25 29L24 29L24 30L22 30L22 32L23 32L23 31L24 31L24 30L25 30L25 29L26 29L26 26L27 26L27 24L26 24L26 23L27 23L27 22L28 22L28 26L32 26L32 27L31 27L31 28L32 28L32 27L33 27L33 29L34 29L34 27L35 27L35 29L36 29L36 30L35 30L35 31L36 31L36 30L37 30L37 29L38 29L38 30L39 30L39 29L38 29L38 28L36 28L36 26L37 26L37 25L40 25L40 26L41 26L41 28L42 28L42 27L43 27L43 29L44 29L44 33L45 33L45 32L47 32L47 33L48 33L48 30L47 30L47 31L46 31L46 28L48 28L48 27L47 27L47 23L50 23L50 24L48 24L48 26L49 26L49 25L50 25L50 24L51 24L51 23L52 23L52 25L51 25L51 26L53 26L53 27L54 27L54 26L53 26L53 22L51 22L51 20L52 20L52 19L51 19L51 20L49 20L49 18L51 18L51 17L48 17L48 18L47 18L47 21L45 21L45 20L46 20L46 19L45 19L45 18L44 18L44 16L42 16L42 15L41 15L41 16L40 16L40 17L39 17L39 15L38 15L38 13L39 13L39 14L41 14L41 13L42 13L42 14L43 14L43 13L42 13L42 12L43 12L43 11L41 11L41 9L42 9L42 8L43 8L43 7L44 7L44 6L43 6L43 7L42 7L42 8L41 8L41 9L38 9L38 4L36 4L36 5L37 5L37 7L36 7L36 6L35 6L35 7L34 7L34 5L35 5L35 4L34 4L34 5L32 5L32 4L33 4L33 3L32 3L32 2L30 2L30 3L32 3L32 4L31 4L31 5L32 5L32 6L31 6L31 8L32 8L32 14L30 14L30 13L31 13L31 12L29 12L29 10L27 10L27 9L26 9L26 6L25 6L25 5L26 5L26 4L24 4L24 6L23 6L23 5L22 5L22 6L21 6L21 7L20 7L20 6L19 6L19 7L20 7L20 8L23 8L23 9L25 9L25 10L23 10L23 11L19 11L19 8L18 8L18 12L17 12L17 7L18 7L18 5L17 5L17 2L16 2L16 1ZM46 1L46 2L47 2L47 1ZM12 2L12 4L11 4L11 5L12 5L12 4L13 4L13 2ZM15 5L15 6L14 6L14 7L13 7L13 8L15 8L15 9L16 9L16 8L15 8L15 6L16 6L16 7L17 7L17 5ZM27 5L27 8L30 8L30 5ZM22 6L22 7L23 7L23 8L24 8L24 7L25 7L25 6L24 6L24 7L23 7L23 6ZM28 6L28 7L29 7L29 6ZM32 6L32 8L33 8L33 6ZM48 6L48 7L49 7L49 6ZM35 7L35 10L36 10L36 7ZM52 8L52 9L51 9L51 10L52 10L52 9L55 9L55 8ZM56 8L56 10L54 10L54 11L55 11L55 12L56 12L56 13L57 13L57 12L56 12L56 11L57 11L57 8ZM1 9L1 11L2 11L2 13L4 13L4 14L7 14L7 13L4 13L4 12L7 12L7 11L2 11L2 9ZM3 9L3 10L4 10L4 9ZM20 9L20 10L21 10L21 9ZM37 9L37 11L38 11L38 12L36 12L36 11L34 11L34 10L33 10L33 11L34 11L34 12L33 12L33 14L32 14L32 16L31 16L31 15L30 15L30 16L28 16L28 15L27 15L27 17L29 17L29 18L28 18L28 19L27 19L27 18L26 18L26 21L25 21L25 22L24 22L24 21L23 21L23 20L22 20L22 19L21 19L21 18L20 18L20 17L18 17L18 18L17 18L17 14L16 14L16 16L13 16L13 17L16 17L16 18L15 18L15 19L12 19L12 18L11 18L11 17L10 17L10 20L11 20L11 21L12 21L12 22L14 22L14 23L13 23L13 24L12 24L12 23L11 23L11 24L12 24L12 25L14 25L14 26L15 26L15 27L16 27L16 30L15 30L15 31L17 31L17 33L18 33L18 31L17 31L17 27L20 27L20 28L18 28L18 29L19 29L19 30L20 30L20 28L21 28L21 25L19 25L19 24L20 24L20 23L21 23L21 24L22 24L22 23L23 23L23 24L24 24L24 25L25 25L25 22L27 22L27 21L28 21L28 22L29 22L29 23L32 23L32 24L29 24L29 25L32 25L32 24L33 24L33 27L34 27L34 24L35 24L35 25L37 25L37 24L38 24L38 23L37 23L37 24L35 24L35 23L36 23L36 22L33 22L33 21L34 21L34 20L37 20L37 22L38 22L38 21L39 21L39 22L43 22L43 21L44 21L44 22L45 22L45 21L44 21L44 18L43 18L43 21L41 21L41 19L39 19L39 18L38 18L38 17L37 17L37 18L36 18L36 15L37 15L37 16L38 16L38 15L37 15L37 14L35 14L35 17L34 17L34 20L33 20L33 21L30 21L30 20L28 20L28 19L29 19L29 18L30 18L30 17L31 17L31 18L33 18L33 14L34 14L34 13L38 13L38 12L40 12L40 10L38 10L38 9ZM47 10L47 11L48 11L48 10ZM23 11L23 12L22 12L22 13L23 13L23 12L24 12L24 11ZM25 11L25 14L29 14L29 13L28 13L28 12L26 12L26 11ZM51 11L51 12L52 12L52 11ZM18 12L18 13L19 13L19 15L20 15L20 16L21 16L21 17L22 17L22 18L24 18L24 19L25 19L25 18L24 18L24 16L25 16L25 17L26 17L26 16L25 16L25 15L23 15L23 14L22 14L22 15L20 15L20 14L21 14L21 12L20 12L20 13L19 13L19 12ZM49 12L49 13L50 13L50 14L49 14L49 15L52 15L52 16L53 16L53 14L55 14L55 13L53 13L53 14L51 14L51 13L50 13L50 12ZM47 14L47 15L48 15L48 14ZM22 15L22 17L23 17L23 15ZM54 15L54 17L53 17L53 18L55 18L55 17L56 17L56 18L57 18L57 15ZM2 16L2 18L1 18L1 19L4 19L4 18L3 18L3 16ZM41 17L41 18L42 18L42 17ZM7 18L7 19L8 19L8 18ZM19 18L19 20L17 20L17 19L15 19L15 20L14 20L14 22L15 22L15 23L14 23L14 24L15 24L15 25L16 25L16 27L17 27L17 23L19 23L19 22L21 22L21 23L22 23L22 20L20 20L20 18ZM31 19L31 20L32 20L32 19ZM12 20L12 21L13 21L13 20ZM16 20L16 23L15 23L15 24L16 24L16 23L17 23L17 22L18 22L18 21L17 21L17 20ZM39 20L39 21L40 21L40 20ZM2 21L2 22L1 22L1 25L2 25L2 26L3 26L3 24L5 24L5 22L4 22L4 23L3 23L3 24L2 24L2 22L3 22L3 21ZM47 21L47 22L50 22L50 21ZM32 22L32 23L33 23L33 22ZM41 23L41 25L44 25L44 24L45 24L45 23L43 23L43 24L42 24L42 23ZM9 24L9 25L10 25L10 24ZM18 25L18 26L19 26L19 25ZM22 25L22 27L23 27L23 25ZM45 25L45 27L44 27L44 29L45 29L45 28L46 28L46 25ZM1 27L1 28L2 28L2 29L3 29L3 30L4 30L4 27ZM5 27L5 30L8 30L8 27ZM9 27L9 28L10 28L10 27ZM27 27L27 30L30 30L30 27ZM49 27L49 30L52 30L52 27ZM6 28L6 29L7 29L7 28ZM28 28L28 29L29 29L29 28ZM50 28L50 29L51 29L51 28ZM53 28L53 29L54 29L54 30L53 30L53 31L54 31L54 32L55 32L55 29L54 29L54 28ZM10 29L10 30L11 30L11 29ZM25 31L25 32L24 32L24 33L25 33L25 34L26 34L26 33L25 33L25 32L26 32L26 31ZM27 31L27 34L28 34L28 35L29 35L29 33L31 33L31 31L30 31L30 32L29 32L29 31ZM6 32L6 33L5 33L5 34L6 34L6 35L7 35L7 34L8 34L8 33L9 33L9 32ZM14 32L14 33L13 33L13 35L14 35L14 34L16 34L16 33L15 33L15 32ZM6 33L6 34L7 34L7 33ZM22 33L22 37L23 37L23 35L24 35L24 34L23 34L23 33ZM9 34L9 35L8 35L8 36L9 36L9 37L10 37L10 38L11 38L11 39L10 39L10 42L11 42L11 41L12 41L12 43L13 43L13 39L14 39L14 38L15 38L15 40L16 40L16 39L17 39L17 40L20 40L20 41L22 41L22 44L21 44L21 42L20 42L20 43L19 43L19 41L18 41L18 43L19 43L19 44L20 44L20 45L21 45L21 46L22 46L22 44L23 44L23 45L24 45L24 46L23 46L23 47L24 47L24 46L25 46L25 43L23 43L23 42L24 42L24 40L25 40L25 39L24 39L24 40L23 40L23 41L22 41L22 40L21 40L21 38L20 38L20 37L19 37L19 36L17 36L17 38L15 38L15 36L14 36L14 38L13 38L13 39L12 39L12 38L11 38L11 37L13 37L13 36L9 36L9 35L10 35L10 34ZM17 34L17 35L18 35L18 34ZM47 34L47 35L48 35L48 34ZM37 35L37 37L39 37L39 36L38 36L38 35ZM0 36L0 37L2 37L2 36ZM34 37L34 38L32 38L32 39L34 39L34 40L33 40L33 41L34 41L34 40L35 40L35 42L33 42L33 44L35 44L35 43L36 43L36 41L37 41L37 42L38 42L38 43L37 43L37 44L36 44L36 45L37 45L37 44L38 44L38 43L39 43L39 44L40 44L40 43L41 43L41 40L40 40L40 41L38 41L38 40L39 40L39 39L40 39L40 38L39 38L39 39L38 39L38 38L36 38L36 39L38 39L38 40L35 40L35 39L34 39L34 38L35 38L35 37ZM49 37L49 38L50 38L50 37ZM17 38L17 39L18 39L18 38ZM43 38L43 41L45 41L45 43L44 43L44 42L43 42L43 43L44 43L44 44L45 44L45 43L46 43L46 44L47 44L47 42L48 42L48 40L47 40L47 41L46 41L46 40L45 40L45 39L44 39L44 38ZM56 40L56 42L54 42L54 43L55 43L55 44L53 44L53 45L55 45L55 44L56 44L56 42L57 42L57 40ZM15 41L15 42L17 42L17 41ZM39 42L39 43L40 43L40 42ZM14 43L14 44L15 44L15 43ZM38 45L38 46L39 46L39 47L40 47L40 49L41 49L41 47L40 47L40 45ZM56 45L56 46L55 46L55 47L56 47L56 48L57 48L57 45ZM19 46L19 47L20 47L20 46ZM43 46L43 47L42 47L42 48L43 48L43 49L45 49L45 48L46 48L46 46L45 46L45 48L44 48L44 46ZM47 47L47 49L46 49L46 50L43 50L43 51L44 51L44 52L45 52L45 51L48 51L48 50L47 50L47 49L48 49L48 47ZM24 48L24 49L25 49L25 48ZM27 49L27 52L30 52L30 49ZM49 49L49 52L52 52L52 49ZM28 50L28 51L29 51L29 50ZM50 50L50 51L51 51L51 50ZM31 51L31 52L32 52L32 51ZM55 51L55 53L56 53L56 51ZM46 52L46 53L47 53L47 52ZM53 52L53 53L54 53L54 52ZM9 53L9 55L10 55L10 53ZM31 53L31 54L33 54L33 53ZM40 53L40 54L38 54L38 56L39 56L39 57L41 57L41 56L42 56L42 57L43 57L43 56L44 56L44 55L43 55L43 56L42 56L42 55L41 55L41 56L39 56L39 55L40 55L40 54L42 54L42 53ZM48 53L48 54L49 54L49 56L50 56L50 54L49 54L49 53ZM12 55L12 57L13 57L13 55ZM56 55L56 56L57 56L57 55ZM0 0L0 7L7 7L7 0ZM1 1L1 6L6 6L6 1ZM2 2L2 5L5 5L5 2ZM50 0L50 7L57 7L57 0ZM51 1L51 6L56 6L56 1ZM52 2L52 5L55 5L55 2ZM0 50L0 57L7 57L7 50ZM1 51L1 56L6 56L6 51ZM2 52L2 55L5 55L5 52Z" fill="#000000"/></g></g></svg>
