<?xml version="1.0" encoding="UTF-8"?>
<svg xmlns="http://www.w3.org/2000/svg" version="1.1" width="300" height="300" viewBox="0 0 300 300"><rect x="0" y="0" width="300" height="300" fill="#ffffff"/><g transform="scale(4.918)"><g transform="translate(2,2)"><path fill-rule="evenodd" d="M9 0L9 1L8 1L8 2L9 2L9 3L8 3L8 4L9 4L9 5L8 5L8 7L9 7L9 8L6 8L6 9L5 9L5 8L0 8L0 9L1 9L1 11L3 11L3 15L2 15L2 17L1 17L1 15L0 15L0 22L1 22L1 23L4 23L4 22L5 22L5 24L2 24L2 25L1 25L1 24L0 24L0 25L1 25L1 26L0 26L0 28L2 28L2 25L7 25L7 26L3 26L3 28L4 28L4 32L6 32L6 33L7 33L7 34L4 34L4 35L3 35L3 32L2 32L2 31L3 31L3 29L2 29L2 30L0 30L0 32L2 32L2 34L1 34L1 35L0 35L0 39L1 39L1 41L2 41L2 42L1 42L1 43L0 43L0 48L5 48L5 47L7 47L7 46L5 46L5 47L3 47L3 46L4 46L4 44L5 44L5 45L8 45L8 51L9 51L9 52L8 52L8 57L10 57L10 56L9 56L9 55L11 55L11 57L12 57L12 56L13 56L13 55L14 55L14 54L16 54L16 53L15 53L15 52L18 52L18 53L19 53L19 54L18 54L18 55L17 55L17 56L16 56L16 55L15 55L15 56L14 56L14 57L19 57L19 56L21 56L21 55L22 55L22 56L23 56L23 55L24 55L24 56L25 56L25 57L26 57L26 56L28 56L28 55L27 55L27 53L28 53L28 54L29 54L29 55L30 55L30 56L29 56L29 57L32 57L32 56L31 56L31 55L34 55L34 57L38 57L38 55L39 55L39 56L42 56L42 55L43 55L43 57L44 57L44 55L43 55L43 53L44 53L44 54L45 54L45 56L46 56L46 54L45 54L45 53L44 53L44 50L45 50L45 51L47 51L47 52L48 52L48 54L47 54L47 55L49 55L49 56L50 56L50 55L51 55L51 57L52 57L52 56L53 56L53 55L54 55L54 56L55 56L55 57L56 57L56 56L55 56L55 53L56 53L56 52L57 52L57 51L56 51L56 52L55 52L55 50L57 50L57 48L56 48L56 46L57 46L57 45L56 45L56 46L55 46L55 45L54 45L54 44L56 44L56 42L57 42L57 41L56 41L56 42L55 42L55 39L57 39L57 37L56 37L56 36L55 36L55 34L57 34L57 33L56 33L56 32L57 32L57 31L56 31L56 30L57 30L57 27L56 27L56 28L55 28L55 27L53 27L53 25L54 25L54 26L57 26L57 25L56 25L56 24L55 24L55 23L56 23L56 22L57 22L57 21L54 21L54 20L56 20L56 18L57 18L57 15L56 15L56 14L57 14L57 13L56 13L56 12L57 12L57 11L56 11L56 10L57 10L57 9L56 9L56 8L55 8L55 9L56 9L56 10L55 10L55 11L54 11L54 10L53 10L53 9L54 9L54 8L53 8L53 9L52 9L52 8L51 8L51 10L49 10L49 9L50 9L50 8L49 8L49 6L48 6L48 7L47 7L47 5L48 5L48 0L44 0L44 1L43 1L43 0L40 0L40 1L36 1L36 2L37 2L37 3L36 3L36 5L34 5L34 4L35 4L35 1L34 1L34 0L33 0L33 1L34 1L34 2L32 2L32 0L30 0L30 1L28 1L28 0L27 0L27 2L24 2L24 1L26 1L26 0L23 0L23 2L22 2L22 0L21 0L21 1L20 1L20 0L19 0L19 1L18 1L18 2L19 2L19 1L20 1L20 2L21 2L21 4L22 4L22 5L21 5L21 6L20 6L20 5L18 5L18 7L17 7L17 4L20 4L20 3L17 3L17 4L16 4L16 2L17 2L17 1L16 1L16 0L13 0L13 1L15 1L15 2L13 2L13 3L11 3L11 0ZM30 1L30 2L31 2L31 1ZM40 1L40 2L41 2L41 3L40 3L40 4L37 4L37 5L36 5L36 6L35 6L35 7L34 7L34 5L33 5L33 3L32 3L32 4L31 4L31 7L32 7L32 6L33 6L33 8L32 8L32 9L31 9L31 11L30 11L30 12L32 12L32 13L33 13L33 14L31 14L31 15L33 15L33 14L35 14L35 15L34 15L34 16L30 16L30 13L29 13L29 12L28 12L28 13L25 13L25 12L27 12L27 11L26 11L26 10L29 10L29 9L26 9L26 6L25 6L25 4L26 4L26 3L25 3L25 4L24 4L24 3L22 3L22 4L24 4L24 5L22 5L22 6L21 6L21 7L20 7L20 6L19 6L19 9L16 9L16 6L15 6L15 7L14 7L14 4L15 4L15 5L16 5L16 4L15 4L15 3L14 3L14 4L12 4L12 5L13 5L13 8L12 8L12 6L11 6L11 9L9 9L9 10L7 10L7 9L6 9L6 10L5 10L5 11L6 11L6 12L4 12L4 13L5 13L5 14L8 14L8 16L7 16L7 15L6 15L6 16L5 16L5 15L4 15L4 16L3 16L3 17L2 17L2 18L1 18L1 20L2 20L2 22L3 22L3 20L5 20L5 19L2 19L2 18L7 18L7 19L6 19L6 20L9 20L9 21L8 21L8 22L9 22L9 21L10 21L10 20L9 20L9 19L8 19L8 18L9 18L9 17L10 17L10 16L12 16L12 18L10 18L10 19L12 19L12 20L11 20L11 21L12 21L12 23L11 23L11 22L10 22L10 23L11 23L11 24L12 24L12 25L13 25L13 27L15 27L15 28L14 28L14 29L15 29L15 28L16 28L16 27L18 27L18 25L17 25L17 23L20 23L20 22L19 22L19 21L21 21L21 23L23 23L23 24L21 24L21 25L20 25L20 24L19 24L19 25L20 25L20 26L19 26L19 27L20 27L20 28L21 28L21 29L19 29L19 30L21 30L21 29L22 29L22 30L24 30L24 29L25 29L25 30L26 30L26 27L25 27L25 28L24 28L24 27L23 27L23 28L24 28L24 29L22 29L22 28L21 28L21 27L22 27L22 26L21 26L21 25L25 25L25 26L26 26L26 25L27 25L27 24L28 24L28 26L29 26L29 25L30 25L30 24L31 24L31 25L32 25L32 26L33 26L33 28L32 28L32 27L31 27L31 28L32 28L32 29L33 29L33 30L31 30L31 31L30 31L30 33L27 33L27 34L26 34L26 33L25 33L25 34L23 34L23 33L24 33L24 32L23 32L23 31L19 31L19 33L18 33L18 34L19 34L19 35L16 35L16 37L15 37L15 35L12 35L12 34L11 34L11 33L14 33L14 34L15 34L15 33L16 33L16 34L17 34L17 33L16 33L16 31L18 31L18 30L17 30L17 29L18 29L18 28L17 28L17 29L16 29L16 31L15 31L15 32L14 32L14 30L13 30L13 28L12 28L12 26L11 26L11 25L10 25L10 26L9 26L9 30L11 30L11 29L12 29L12 32L11 32L11 31L10 31L10 33L9 33L9 31L6 31L6 32L7 32L7 33L9 33L9 34L7 34L7 35L6 35L6 36L7 36L7 37L6 37L6 38L5 38L5 39L4 39L4 38L2 38L2 39L3 39L3 40L4 40L4 41L3 41L3 42L2 42L2 43L4 43L4 42L5 42L5 44L8 44L8 45L12 45L12 44L8 44L8 43L9 43L9 41L10 41L10 39L8 39L8 38L9 38L9 36L7 36L7 35L11 35L11 36L10 36L10 37L11 37L11 39L12 39L12 38L13 38L13 42L12 42L12 41L11 41L11 42L12 42L12 43L16 43L16 42L18 42L18 43L17 43L17 44L18 44L18 45L16 45L16 46L17 46L17 47L16 47L16 48L17 48L17 47L18 47L18 48L19 48L19 49L16 49L16 51L18 51L18 52L19 52L19 53L23 53L23 54L22 54L22 55L23 55L23 54L24 54L24 53L23 53L23 52L24 52L24 51L25 51L25 52L26 52L26 51L25 51L25 50L26 50L26 48L27 48L27 47L28 47L28 48L29 48L29 46L31 46L31 45L27 45L27 44L29 44L29 43L30 43L30 44L31 44L31 43L30 43L30 42L31 42L31 41L32 41L32 42L33 42L33 40L34 40L34 42L35 42L35 43L34 43L34 44L32 44L32 47L31 47L31 48L32 48L32 49L33 49L33 48L32 48L32 47L33 47L33 46L36 46L36 45L35 45L35 44L36 44L36 42L35 42L35 40L37 40L37 41L38 41L38 42L37 42L37 43L38 43L38 44L39 44L39 45L37 45L37 46L42 46L42 47L44 47L44 45L45 45L45 44L44 44L44 45L43 45L43 44L40 44L40 43L42 43L42 42L40 42L40 41L41 41L41 40L39 40L39 39L42 39L42 38L41 38L41 37L42 37L42 36L43 36L43 35L44 35L44 37L43 37L43 39L45 39L45 38L46 38L46 42L43 42L43 43L46 43L46 42L48 42L48 43L49 43L49 41L51 41L51 42L50 42L50 43L51 43L51 42L53 42L53 43L52 43L52 44L53 44L53 43L54 43L54 41L51 41L51 40L50 40L50 39L52 39L52 38L54 38L54 37L55 37L55 36L54 36L54 37L53 37L53 36L52 36L52 34L53 34L53 35L54 35L54 34L53 34L53 33L55 33L55 32L53 32L53 31L52 31L52 32L53 32L53 33L51 33L51 34L50 34L50 31L48 31L48 30L47 30L47 29L48 29L48 25L49 25L49 24L52 24L52 25L53 25L53 24L54 24L54 25L55 25L55 24L54 24L54 23L55 23L55 22L54 22L54 23L53 23L53 20L52 20L52 21L51 21L51 19L52 19L52 18L54 18L54 17L55 17L55 18L56 18L56 17L55 17L55 16L56 16L56 15L55 15L55 16L54 16L54 15L53 15L53 13L55 13L55 14L56 14L56 13L55 13L55 12L56 12L56 11L55 11L55 12L54 12L54 11L53 11L53 10L52 10L52 11L49 11L49 10L48 10L48 9L49 9L49 8L48 8L48 9L47 9L47 8L46 8L46 9L45 9L45 7L46 7L46 6L45 6L45 5L44 5L44 4L46 4L46 5L47 5L47 3L43 3L43 1ZM44 1L44 2L47 2L47 1ZM27 2L27 3L28 3L28 4L29 4L29 3L28 3L28 2ZM9 3L9 4L11 4L11 3ZM41 3L41 5L42 5L42 7L43 7L43 8L41 8L41 9L40 9L40 10L41 10L41 11L37 11L37 10L38 10L38 8L39 8L39 6L40 6L40 7L41 7L41 6L40 6L40 5L37 5L37 6L36 6L36 7L35 7L35 8L36 8L36 9L35 9L35 10L36 10L36 11L35 11L35 12L34 12L34 10L33 10L33 9L32 9L32 10L33 10L33 11L32 11L32 12L33 12L33 13L36 13L36 15L39 15L39 16L43 16L43 17L42 17L42 18L41 18L41 17L40 17L40 18L41 18L41 19L40 19L40 20L36 20L36 21L37 21L37 22L36 22L36 23L35 23L35 22L34 22L34 24L35 24L35 27L34 27L34 28L33 28L33 29L35 29L35 30L33 30L33 31L31 31L31 32L33 32L33 33L31 33L31 34L33 34L33 36L35 36L35 34L36 34L36 35L37 35L37 36L36 36L36 38L34 38L34 37L33 37L33 38L34 38L34 40L35 40L35 39L37 39L37 40L38 40L38 41L39 41L39 40L38 40L38 39L37 39L37 38L38 38L38 35L39 35L39 34L40 34L40 32L41 32L41 34L43 34L43 33L44 33L44 32L46 32L46 31L47 31L47 32L48 32L48 31L47 31L47 30L46 30L46 29L47 29L47 28L46 28L46 27L47 27L47 26L46 26L46 27L45 27L45 25L48 25L48 24L49 24L49 22L50 22L50 23L51 23L51 22L50 22L50 19L51 19L51 18L50 18L50 17L51 17L51 14L52 14L52 13L51 13L51 12L50 12L50 13L51 13L51 14L49 14L49 13L47 13L47 14L46 14L46 12L45 12L45 11L48 11L48 12L49 12L49 11L48 11L48 10L45 10L45 9L44 9L44 7L45 7L45 6L44 6L44 7L43 7L43 4L42 4L42 3ZM27 5L27 8L30 8L30 5ZM9 6L9 7L10 7L10 6ZM22 6L22 8L23 8L23 10L25 10L25 8L24 8L24 7L25 7L25 6L24 6L24 7L23 7L23 6ZM28 6L28 7L29 7L29 6ZM37 6L37 7L36 7L36 8L38 8L38 6ZM13 8L13 9L11 9L11 10L9 10L9 11L10 11L10 12L9 12L9 13L8 13L8 14L9 14L9 15L10 15L10 14L9 14L9 13L12 13L12 12L14 12L14 11L12 11L12 10L13 10L13 9L14 9L14 10L15 10L15 9L14 9L14 8ZM2 9L2 10L3 10L3 9ZM19 9L19 10L20 10L20 9ZM43 9L43 10L44 10L44 11L43 11L43 14L42 14L42 11L41 11L41 12L40 12L40 14L39 14L39 12L38 12L38 13L37 13L37 14L39 14L39 15L40 15L40 14L42 14L42 15L43 15L43 16L44 16L44 19L45 19L45 18L47 18L47 17L48 17L48 16L49 16L49 17L50 17L50 15L45 15L45 16L44 16L44 15L43 15L43 14L45 14L45 12L44 12L44 11L45 11L45 10L44 10L44 9ZM6 10L6 11L7 11L7 12L6 12L6 13L7 13L7 12L8 12L8 11L7 11L7 10ZM16 10L16 13L18 13L18 14L19 14L19 15L18 15L18 16L16 16L16 15L17 15L17 14L14 14L14 13L13 13L13 14L12 14L12 15L15 15L15 17L14 17L14 16L13 16L13 17L14 17L14 18L12 18L12 19L14 19L14 20L13 20L13 21L15 21L15 22L16 22L16 21L15 21L15 20L17 20L17 19L18 19L18 21L17 21L17 22L18 22L18 21L19 21L19 20L21 20L21 21L22 21L22 22L23 22L23 23L24 23L24 24L25 24L25 25L26 25L26 24L25 24L25 23L26 23L26 22L25 22L25 21L26 21L26 19L27 19L27 20L29 20L29 19L28 19L28 18L27 18L27 17L28 17L28 16L25 16L25 15L24 15L24 16L23 16L23 14L22 14L22 15L21 15L21 16L20 16L20 17L21 17L21 19L19 19L19 18L16 18L16 17L19 17L19 15L20 15L20 13L22 13L22 12L21 12L21 11L22 11L22 10L21 10L21 11L20 11L20 13L18 13L18 12L17 12L17 11L18 11L18 10ZM23 11L23 13L24 13L24 14L25 14L25 13L24 13L24 11ZM52 11L52 12L53 12L53 11ZM0 12L0 13L1 13L1 14L2 14L2 13L1 13L1 12ZM28 13L28 14L27 14L27 15L29 15L29 13ZM6 16L6 17L7 17L7 16ZM21 16L21 17L22 17L22 18L23 18L23 16ZM34 16L34 17L33 17L33 18L34 18L34 19L32 19L32 17L29 17L29 18L31 18L31 19L30 19L30 22L29 22L29 21L28 21L28 22L27 22L27 23L28 23L28 24L29 24L29 23L30 23L30 22L31 22L31 23L32 23L32 24L33 24L33 21L32 21L32 20L35 20L35 19L39 19L39 18L37 18L37 16ZM53 16L53 17L54 17L54 16ZM34 17L34 18L36 18L36 17ZM24 18L24 20L25 20L25 19L26 19L26 18ZM42 18L42 19L43 19L43 18ZM49 18L49 19L50 19L50 18ZM21 19L21 20L22 20L22 21L23 21L23 22L24 22L24 21L23 21L23 19ZM46 19L46 20L40 20L40 21L43 21L43 22L40 22L40 23L39 23L39 21L38 21L38 23L37 23L37 24L39 24L39 25L38 25L38 26L37 26L37 25L36 25L36 28L35 28L35 29L36 29L36 28L37 28L37 30L35 30L35 31L34 31L34 33L33 33L33 34L35 34L35 33L36 33L36 32L37 32L37 34L39 34L39 33L38 33L38 32L40 32L40 31L37 31L37 30L39 30L39 29L41 29L41 30L42 30L42 31L43 31L43 32L42 32L42 33L43 33L43 32L44 32L44 31L46 31L46 30L44 30L44 29L45 29L45 28L44 28L44 25L45 25L45 24L44 24L44 21L45 21L45 22L46 22L46 24L47 24L47 21L46 21L46 20L48 20L48 19ZM5 21L5 22L7 22L7 21ZM13 22L13 23L12 23L12 24L13 24L13 25L14 25L14 26L15 26L15 25L16 25L16 23L14 23L14 22ZM6 23L6 24L7 24L7 25L9 25L9 23L8 23L8 24L7 24L7 23ZM42 23L42 25L41 25L41 26L40 26L40 27L41 27L41 26L43 26L43 25L44 25L44 24L43 24L43 23ZM52 23L52 24L53 24L53 23ZM14 24L14 25L15 25L15 24ZM50 25L50 26L51 26L51 25ZM10 26L10 27L11 27L11 26ZM38 26L38 28L39 28L39 26ZM5 27L5 30L8 30L8 27ZM27 27L27 30L30 30L30 27ZM42 27L42 28L43 28L43 29L42 29L42 30L43 30L43 31L44 31L44 30L43 30L43 29L44 29L44 28L43 28L43 27ZM49 27L49 30L52 30L52 27ZM6 28L6 29L7 29L7 28ZM10 28L10 29L11 29L11 28ZM28 28L28 29L29 29L29 28ZM50 28L50 29L51 29L51 28ZM54 28L54 29L53 29L53 30L54 30L54 31L55 31L55 30L56 30L56 29L55 29L55 28ZM54 29L54 30L55 30L55 29ZM25 31L25 32L29 32L29 31ZM35 31L35 32L36 32L36 31ZM20 32L20 33L21 33L21 34L20 34L20 35L22 35L22 33L21 33L21 32ZM45 33L45 34L46 34L46 35L45 35L45 36L48 36L48 37L47 37L47 39L50 39L50 38L51 38L51 37L52 37L52 36L51 36L51 35L50 35L50 36L48 36L48 35L49 35L49 34L48 34L48 33L47 33L47 34L46 34L46 33ZM25 34L25 35L24 35L24 37L21 37L21 38L22 38L22 39L21 39L21 40L20 40L20 41L19 41L19 39L20 39L20 38L17 38L17 37L20 37L20 36L17 36L17 37L16 37L16 38L15 38L15 37L14 37L14 36L12 36L12 37L14 37L14 39L16 39L16 40L15 40L15 41L14 41L14 42L15 42L15 41L16 41L16 40L17 40L17 41L18 41L18 42L19 42L19 44L20 44L20 45L18 45L18 47L19 47L19 48L20 48L20 49L21 49L21 48L20 48L20 47L19 47L19 46L20 46L20 45L22 45L22 44L21 44L21 43L22 43L22 42L23 42L23 43L24 43L24 44L25 44L25 45L23 45L23 46L25 46L25 45L26 45L26 44L25 44L25 43L24 43L24 42L26 42L26 43L27 43L27 42L28 42L28 41L29 41L29 42L30 42L30 41L31 41L31 40L33 40L33 39L31 39L31 38L32 38L32 35L30 35L30 34L29 34L29 35L30 35L30 36L29 36L29 37L28 37L28 36L27 36L27 35L26 35L26 34ZM2 35L2 36L3 36L3 37L5 37L5 36L3 36L3 35ZM25 35L25 37L24 37L24 38L23 38L23 39L22 39L22 40L21 40L21 41L20 41L20 42L21 42L21 41L24 41L24 40L25 40L25 38L26 38L26 35ZM40 35L40 36L39 36L39 38L40 38L40 36L41 36L41 35ZM30 36L30 38L31 38L31 36ZM50 36L50 37L51 37L51 36ZM7 37L7 38L6 38L6 39L5 39L5 41L7 41L7 42L6 42L6 43L8 43L8 41L7 41L7 40L8 40L8 39L7 39L7 38L8 38L8 37ZM27 37L27 38L28 38L28 37ZM44 37L44 38L45 38L45 37ZM6 39L6 40L7 40L7 39ZM23 39L23 40L24 40L24 39ZM26 39L26 40L28 40L28 39ZM29 39L29 41L30 41L30 40L31 40L31 39ZM44 40L44 41L45 41L45 40ZM26 41L26 42L27 42L27 41ZM38 42L38 43L40 43L40 42ZM1 44L1 45L2 45L2 46L1 46L1 47L2 47L2 46L3 46L3 45L2 45L2 44ZM13 44L13 45L15 45L15 44ZM47 44L47 45L46 45L46 46L47 46L47 48L46 48L46 49L45 49L45 48L43 48L43 50L41 50L41 49L42 49L42 48L39 48L39 47L38 47L38 48L37 48L37 47L36 47L36 48L35 48L35 47L34 47L34 48L35 48L35 49L34 49L34 50L32 50L32 51L31 51L31 52L32 52L32 54L34 54L34 55L35 55L35 56L36 56L36 55L38 55L38 54L39 54L39 53L38 53L38 54L35 54L35 53L36 53L36 52L37 52L37 51L38 51L38 50L40 50L40 51L39 51L39 52L40 52L40 55L41 55L41 52L42 52L42 53L43 53L43 50L44 50L44 49L45 49L45 50L47 50L47 51L48 51L48 48L49 48L49 47L52 47L52 48L53 48L53 49L56 49L56 48L53 48L53 46L54 46L54 47L55 47L55 46L54 46L54 45L51 45L51 44ZM42 45L42 46L43 46L43 45ZM50 45L50 46L51 46L51 45ZM10 46L10 47L9 47L9 49L10 49L10 50L11 50L11 49L13 49L13 50L12 50L12 51L13 51L13 50L14 50L14 52L15 52L15 50L14 50L14 47L15 47L15 46L14 46L14 47L13 47L13 48L12 48L12 47L11 47L11 46ZM26 46L26 47L24 47L24 48L23 48L23 50L25 50L25 48L26 48L26 47L27 47L27 46ZM10 47L10 49L11 49L11 47ZM6 48L6 49L7 49L7 48ZM36 48L36 49L35 49L35 50L34 50L34 51L35 51L35 52L36 52L36 51L37 51L37 50L38 50L38 49L39 49L39 48L38 48L38 49L37 49L37 48ZM27 49L27 52L30 52L30 49ZM49 49L49 52L52 52L52 49ZM18 50L18 51L21 51L21 52L22 52L22 51L21 51L21 50ZM28 50L28 51L29 51L29 50ZM50 50L50 51L51 51L51 50ZM32 51L32 52L33 52L33 51ZM40 51L40 52L41 52L41 51ZM9 52L9 53L10 53L10 54L11 54L11 55L12 55L12 53L11 53L11 52ZM54 52L54 53L53 53L53 54L51 54L51 53L49 53L49 55L50 55L50 54L51 54L51 55L53 55L53 54L54 54L54 53L55 53L55 52ZM13 53L13 54L14 54L14 53ZM25 53L25 55L26 55L26 53ZM29 53L29 54L30 54L30 53ZM19 54L19 55L20 55L20 54ZM0 0L0 7L7 7L7 0ZM1 1L1 6L6 6L6 1ZM2 2L2 5L5 5L5 2ZM50 0L50 7L57 7L57 0ZM51 1L51 6L56 6L56 1ZM52 2L52 5L55 5L55 2ZM0 50L0 57L7 57L7 50ZM1 51L1 56L6 56L6 51ZM2 52L2 55L5 55L5 52Z" fill="#000000"/></g></g></svg>
