<?xml version="1.0" encoding="UTF-8"?>
<svg xmlns="http://www.w3.org/2000/svg" version="1.1" width="300" height="300" viewBox="0 0 300 300"><rect x="0" y="0" width="300" height="300" fill="#ffffff"/><g transform="scale(4.918)"><g transform="translate(2,2)"><path fill-rule="evenodd" d="M13 0L13 1L12 1L12 2L11 2L11 1L8 1L8 2L9 2L9 3L8 3L8 4L9 4L9 5L8 5L8 7L9 7L9 8L6 8L6 9L9 9L9 10L8 10L8 14L9 14L9 12L10 12L10 11L9 11L9 10L10 10L10 7L11 7L11 6L12 6L12 8L11 8L11 10L13 10L13 11L14 11L14 12L13 12L13 13L15 13L15 12L16 12L16 13L17 13L17 14L14 14L14 15L13 15L13 14L12 14L12 15L11 15L11 14L10 14L10 15L11 15L11 16L10 16L10 17L9 17L9 20L5 20L5 19L7 19L7 18L8 18L8 17L7 17L7 16L5 16L5 17L4 17L4 16L2 16L2 14L3 14L3 15L5 15L5 14L6 14L6 15L7 15L7 14L6 14L6 13L7 13L7 12L4 12L4 11L0 11L0 12L3 12L3 13L0 13L0 14L1 14L1 17L0 17L0 18L1 18L1 23L0 23L0 25L3 25L3 23L2 23L2 22L6 22L6 23L7 23L7 22L8 22L8 21L10 21L10 19L12 19L12 20L11 20L11 21L13 21L13 22L12 22L12 23L11 23L11 24L12 24L12 23L14 23L14 24L13 24L13 25L14 25L14 26L13 26L13 27L12 27L12 26L11 26L11 25L10 25L10 26L11 26L11 28L10 28L10 29L9 29L9 26L8 26L8 25L9 25L9 24L10 24L10 22L9 22L9 24L8 24L8 25L7 25L7 24L4 24L4 26L3 26L3 27L2 27L2 28L1 28L1 26L0 26L0 28L1 28L1 30L2 30L2 31L3 31L3 32L0 32L0 33L2 33L2 34L1 34L1 35L0 35L0 36L1 36L1 37L0 37L0 38L1 38L1 40L0 40L0 41L1 41L1 40L2 40L2 41L3 41L3 42L2 42L2 43L1 43L1 42L0 42L0 43L1 43L1 44L0 44L0 45L2 45L2 43L3 43L3 44L4 44L4 43L3 43L3 42L5 42L5 43L7 43L7 44L6 44L6 45L3 45L3 46L2 46L2 47L1 47L1 46L0 46L0 48L5 48L5 47L7 47L7 46L8 46L8 48L6 48L6 49L8 49L8 51L9 51L9 52L8 52L8 57L9 57L9 54L13 54L13 57L19 57L19 55L20 55L20 54L17 54L17 53L16 53L16 52L17 52L17 51L19 51L19 52L18 52L18 53L20 53L20 52L21 52L21 53L22 53L22 54L21 54L21 56L20 56L20 57L21 57L21 56L22 56L22 55L23 55L23 57L26 57L26 56L28 56L28 55L26 55L26 54L27 54L27 53L28 53L28 54L30 54L30 53L31 53L31 56L30 56L30 55L29 55L29 56L30 56L30 57L31 57L31 56L33 56L33 55L34 55L34 56L35 56L35 57L37 57L37 56L36 56L36 55L38 55L38 52L37 52L37 51L40 51L40 52L39 52L39 56L41 56L41 57L42 57L42 56L43 56L43 57L44 57L44 56L43 56L43 55L42 55L42 54L43 54L43 53L44 53L44 54L45 54L45 56L46 56L46 57L47 57L47 56L48 56L48 55L49 55L49 56L50 56L50 55L51 55L51 57L52 57L52 56L55 56L55 57L56 57L56 56L55 56L55 55L51 55L51 54L55 54L55 53L54 53L54 52L56 52L56 53L57 53L57 52L56 52L56 50L57 50L57 48L56 48L56 46L57 46L57 45L56 45L56 46L51 46L51 47L50 47L50 45L48 45L48 46L49 46L49 47L50 47L50 48L48 48L48 51L47 51L47 50L45 50L45 53L44 53L44 51L42 51L42 50L44 50L44 48L45 48L45 47L47 47L47 46L46 46L46 45L47 45L47 44L48 44L48 43L49 43L49 44L51 44L51 45L54 45L54 44L56 44L56 43L55 43L55 42L57 42L57 41L54 41L54 43L53 43L53 42L51 42L51 41L53 41L53 40L55 40L55 39L57 39L57 37L55 37L55 38L54 38L54 39L53 39L53 40L52 40L52 39L51 39L51 41L49 41L49 42L47 42L47 43L46 43L46 42L45 42L45 47L44 47L44 46L43 46L43 45L44 45L44 44L43 44L43 43L44 43L44 42L43 42L43 41L44 41L44 40L45 40L45 39L46 39L46 41L47 41L47 39L50 39L50 38L51 38L51 35L50 35L50 37L49 37L49 36L48 36L48 35L49 35L49 34L48 34L48 33L47 33L47 34L45 34L45 33L46 33L46 31L47 31L47 32L48 32L48 31L50 31L50 34L51 34L51 33L53 33L53 34L52 34L52 37L54 37L54 36L57 36L57 35L56 35L56 34L57 34L57 33L56 33L56 32L57 32L57 31L56 31L56 30L57 30L57 29L56 29L56 30L55 30L55 29L54 29L54 28L57 28L57 27L53 27L53 26L52 26L52 24L53 24L53 25L54 25L54 26L55 26L55 25L54 25L54 24L57 24L57 23L56 23L56 22L57 22L57 21L56 21L56 20L55 20L55 18L57 18L57 15L56 15L56 14L57 14L57 11L56 11L56 10L55 10L55 11L54 11L54 10L49 10L49 9L50 9L50 8L49 8L49 6L48 6L48 8L49 8L49 9L47 9L47 10L46 10L46 9L45 9L45 10L46 10L46 11L48 11L48 12L49 12L49 11L52 11L52 12L53 12L53 11L54 11L54 12L56 12L56 14L53 14L53 16L55 16L55 17L54 17L54 18L53 18L53 17L52 17L52 18L53 18L53 19L51 19L51 21L52 21L52 20L53 20L53 23L52 23L52 24L51 24L51 22L50 22L50 19L49 19L49 20L46 20L46 19L48 19L48 18L50 18L50 16L52 16L52 15L51 15L51 14L52 14L52 13L51 13L51 12L50 12L50 13L51 13L51 14L49 14L49 13L47 13L47 14L46 14L46 12L45 12L45 11L44 11L44 10L43 10L43 9L44 9L44 8L45 8L45 6L46 6L46 7L47 7L47 5L48 5L48 0L45 0L45 1L44 1L44 2L43 2L43 3L47 3L47 5L46 5L46 4L44 4L44 5L45 5L45 6L44 6L44 7L43 7L43 4L40 4L40 3L41 3L41 2L42 2L42 1L43 1L43 0L42 0L42 1L41 1L41 0L40 0L40 1L37 1L37 0L35 0L35 1L33 1L33 0L32 0L32 1L33 1L33 2L29 2L29 1L31 1L31 0L29 0L29 1L25 1L25 0L23 0L23 2L22 2L22 0L21 0L21 1L20 1L20 0L19 0L19 1L18 1L18 2L19 2L19 1L20 1L20 2L21 2L21 3L23 3L23 4L19 4L19 3L18 3L18 4L17 4L17 5L18 5L18 7L17 7L17 6L16 6L16 7L15 7L15 5L16 5L16 4L14 4L14 3L16 3L16 2L17 2L17 1L16 1L16 0ZM13 1L13 2L15 2L15 1ZM40 1L40 2L41 2L41 1ZM45 1L45 2L47 2L47 1ZM23 2L23 3L24 3L24 2ZM25 2L25 3L26 3L26 4L25 4L25 8L24 8L24 6L23 6L23 5L24 5L24 4L23 4L23 5L21 5L21 7L22 7L22 6L23 6L23 8L22 8L22 9L21 9L21 8L19 8L19 9L17 9L17 7L16 7L16 9L15 9L15 8L14 8L14 6L13 6L13 5L14 5L14 4L13 4L13 3L10 3L10 5L9 5L9 7L10 7L10 5L11 5L11 4L13 4L13 5L12 5L12 6L13 6L13 8L14 8L14 9L13 9L13 10L15 10L15 11L18 11L18 10L19 10L19 11L20 11L20 12L19 12L19 13L20 13L20 15L19 15L19 14L17 14L17 15L16 15L16 16L18 16L18 15L19 15L19 17L16 17L16 18L19 18L19 19L18 19L18 20L16 20L16 21L15 21L15 16L14 16L14 18L13 18L13 17L10 17L10 18L13 18L13 19L14 19L14 20L13 20L13 21L14 21L14 23L15 23L15 26L18 26L18 27L16 27L16 28L18 28L18 29L16 29L16 31L15 31L15 32L13 32L13 30L15 30L15 27L13 27L13 30L12 30L12 29L11 29L11 30L12 30L12 31L10 31L10 30L9 30L9 32L8 32L8 33L9 33L9 32L11 32L11 34L12 34L12 36L11 36L11 35L10 35L10 34L9 34L9 36L10 36L10 38L9 38L9 37L8 37L8 36L7 36L7 35L6 35L6 36L7 36L7 37L6 37L6 38L7 38L7 39L6 39L6 40L9 40L9 39L10 39L10 40L11 40L11 41L12 41L12 42L13 42L13 40L12 40L12 39L11 39L11 37L12 37L12 36L13 36L13 37L16 37L16 38L15 38L15 39L16 39L16 40L15 40L15 41L14 41L14 44L13 44L13 43L11 43L11 42L10 42L10 41L8 41L8 43L9 43L9 44L8 44L8 46L9 46L9 47L10 47L10 49L9 49L9 51L10 51L10 52L11 52L11 51L14 51L14 52L15 52L15 51L14 51L14 47L13 47L13 45L15 45L15 41L16 41L16 43L18 43L18 42L19 42L19 43L20 43L20 44L21 44L21 45L19 45L19 46L20 46L20 48L19 48L19 47L18 47L18 46L17 46L17 45L18 45L18 44L17 44L17 45L16 45L16 46L17 46L17 47L16 47L16 48L17 48L17 47L18 47L18 48L19 48L19 49L16 49L16 51L17 51L17 50L21 50L21 49L22 49L22 50L23 50L23 51L21 51L21 52L22 52L22 53L24 53L24 54L23 54L23 55L24 55L24 56L26 56L26 55L25 55L25 54L26 54L26 53L24 53L24 51L25 51L25 52L26 52L26 51L25 51L25 50L26 50L26 48L27 48L27 47L26 47L26 46L27 46L27 45L28 45L28 46L29 46L29 47L28 47L28 48L29 48L29 47L30 47L30 48L31 48L31 50L32 50L32 51L31 51L31 52L32 52L32 54L34 54L34 55L35 55L35 52L36 52L36 51L37 51L37 50L40 50L40 51L41 51L41 50L42 50L42 49L43 49L43 48L44 48L44 47L43 47L43 46L42 46L42 45L43 45L43 44L41 44L41 43L43 43L43 42L41 42L41 39L45 39L45 38L46 38L46 39L47 39L47 37L48 37L48 38L49 38L49 37L48 37L48 36L45 36L45 34L42 34L42 33L41 33L41 32L42 32L42 31L43 31L43 32L44 32L44 33L45 33L45 32L44 32L44 30L45 30L45 31L46 31L46 30L47 30L47 31L48 31L48 28L47 28L47 25L50 25L50 26L51 26L51 24L50 24L50 22L49 22L49 24L47 24L47 21L46 21L46 20L43 20L43 19L46 19L46 18L47 18L47 17L48 17L48 16L50 16L50 15L45 15L45 16L43 16L43 15L44 15L44 14L45 14L45 12L44 12L44 11L43 11L43 10L41 10L41 8L42 8L42 9L43 9L43 8L42 8L42 5L40 5L40 4L38 4L38 3L39 3L39 2L33 2L33 3L32 3L32 4L31 4L31 9L32 9L32 10L34 10L34 12L36 12L36 9L33 9L33 8L37 8L37 7L38 7L38 6L37 6L37 5L39 5L39 7L40 7L40 6L41 6L41 8L38 8L38 10L37 10L37 11L39 11L39 12L38 12L38 14L37 14L37 13L36 13L36 14L37 14L37 15L33 15L33 16L30 16L30 14L31 14L31 15L32 15L32 14L31 14L31 12L32 12L32 13L33 13L33 14L35 14L35 13L33 13L33 12L32 12L32 11L30 11L30 10L27 10L27 9L25 9L25 8L26 8L26 4L27 4L27 3L28 3L28 4L29 4L29 3L28 3L28 2ZM33 3L33 4L34 4L34 3ZM36 3L36 5L35 5L35 6L34 6L34 7L35 7L35 6L36 6L36 7L37 7L37 6L36 6L36 5L37 5L37 3ZM18 4L18 5L19 5L19 7L20 7L20 5L19 5L19 4ZM27 5L27 8L30 8L30 5ZM28 6L28 7L29 7L29 6ZM32 6L32 7L33 7L33 6ZM0 8L0 9L3 9L3 10L4 10L4 9L5 9L5 8ZM23 8L23 9L22 9L22 11L21 11L21 10L20 10L20 9L19 9L19 10L20 10L20 11L21 11L21 12L20 12L20 13L21 13L21 14L22 14L22 13L23 13L23 16L24 16L24 17L22 17L22 15L21 15L21 16L20 16L20 17L21 17L21 18L23 18L23 20L24 20L24 21L22 21L22 20L21 20L21 19L19 19L19 20L18 20L18 21L16 21L16 22L15 22L15 23L16 23L16 25L18 25L18 26L19 26L19 27L20 27L20 26L19 26L19 25L21 25L21 27L22 27L22 26L23 26L23 29L24 29L24 30L25 30L25 31L23 31L23 30L22 30L22 31L20 31L20 30L19 30L19 29L22 29L22 28L19 28L19 29L18 29L18 31L16 31L16 33L15 33L15 34L14 34L14 33L13 33L13 32L12 32L12 34L14 34L14 35L15 35L15 36L16 36L16 35L17 35L17 37L19 37L19 38L18 38L18 39L19 39L19 40L16 40L16 41L19 41L19 42L20 42L20 43L21 43L21 44L22 44L22 45L21 45L21 47L22 47L22 48L23 48L23 50L25 50L25 47L24 47L24 46L25 46L25 45L26 45L26 44L28 44L28 45L29 45L29 46L30 46L30 47L31 47L31 48L34 48L34 49L35 49L35 48L36 48L36 50L37 50L37 48L38 48L38 49L40 49L40 50L41 50L41 49L40 49L40 48L43 48L43 47L42 47L42 46L41 46L41 47L40 47L40 48L38 48L38 47L37 47L37 48L36 48L36 47L35 47L35 46L32 46L32 45L31 45L31 46L30 46L30 45L29 45L29 44L28 44L28 43L31 43L31 44L34 44L34 43L35 43L35 45L36 45L36 46L38 46L38 45L39 45L39 46L40 46L40 45L39 45L39 44L40 44L40 43L39 43L39 44L38 44L38 40L40 40L40 39L39 39L39 38L40 38L40 36L41 36L41 35L42 35L42 36L43 36L43 37L41 37L41 38L43 38L43 37L44 37L44 38L45 38L45 37L44 37L44 35L42 35L42 34L41 34L41 35L40 35L40 32L41 32L41 31L42 31L42 30L44 30L44 29L42 29L42 30L40 30L40 29L39 29L39 28L40 28L40 27L39 27L39 28L36 28L36 27L35 27L35 26L38 26L38 25L39 25L39 24L45 24L45 23L46 23L46 22L45 22L45 21L44 21L44 23L43 23L43 21L42 21L42 18L43 18L43 16L41 16L41 15L42 15L42 14L44 14L44 12L43 12L43 11L42 11L42 14L41 14L41 15L40 15L40 14L39 14L39 15L38 15L38 16L35 16L35 18L34 18L34 17L33 17L33 18L34 18L34 19L39 19L39 18L37 18L37 17L38 17L38 16L41 16L41 17L42 17L42 18L41 18L41 19L40 19L40 20L38 20L38 21L40 21L40 20L41 20L41 22L42 22L42 23L40 23L40 22L36 22L36 23L35 23L35 26L33 26L33 25L32 25L32 24L33 24L33 23L34 23L34 22L33 22L33 21L35 21L35 20L33 20L33 19L32 19L32 17L29 17L29 16L28 16L28 15L29 15L29 14L30 14L30 13L28 13L28 12L30 12L30 11L27 11L27 10L26 10L26 11L27 11L27 12L25 12L25 11L24 11L24 12L25 12L25 13L23 13L23 10L25 10L25 9L24 9L24 8ZM51 8L51 9L52 9L52 8ZM53 8L53 9L54 9L54 8ZM55 8L55 9L56 9L56 8ZM39 9L39 10L40 10L40 12L39 12L39 13L40 13L40 12L41 12L41 10L40 10L40 9ZM6 10L6 11L7 11L7 10ZM11 12L11 13L12 13L12 12ZM17 12L17 13L18 13L18 12ZM21 12L21 13L22 13L22 12ZM3 13L3 14L4 14L4 13ZM25 13L25 14L24 14L24 15L25 15L25 16L27 16L27 17L26 17L26 18L25 18L25 19L26 19L26 20L25 20L25 21L24 21L24 22L22 22L22 21L21 21L21 20L20 20L20 21L18 21L18 22L17 22L17 23L19 23L19 24L21 24L21 25L23 25L23 24L21 24L21 23L24 23L24 24L25 24L25 26L24 26L24 29L25 29L25 30L26 30L26 27L25 27L25 26L26 26L26 25L27 25L27 26L30 26L30 24L31 24L31 22L29 22L29 20L30 20L30 21L31 21L31 20L30 20L30 19L31 19L31 18L29 18L29 20L28 20L28 18L27 18L27 17L28 17L28 16L27 16L27 14L28 14L28 13L27 13L27 14L26 14L26 13ZM25 14L25 15L26 15L26 14ZM8 15L8 16L9 16L9 15ZM55 15L55 16L56 16L56 15ZM1 17L1 18L2 18L2 19L3 19L3 20L4 20L4 19L5 19L5 18L7 18L7 17L5 17L5 18L4 18L4 17ZM44 17L44 18L46 18L46 17ZM27 20L27 21L25 21L25 22L26 22L26 23L25 23L25 24L27 24L27 25L28 25L28 24L29 24L29 23L28 23L28 22L27 22L27 21L28 21L28 20ZM32 20L32 21L33 21L33 20ZM36 20L36 21L37 21L37 20ZM54 20L54 22L55 22L55 20ZM6 21L6 22L7 22L7 21ZM19 22L19 23L20 23L20 22ZM27 23L27 24L28 24L28 23ZM36 23L36 24L37 24L37 25L38 25L38 24L37 24L37 23ZM46 24L46 25L47 25L47 24ZM6 25L6 26L7 26L7 25ZM31 25L31 28L32 28L32 29L31 29L31 30L32 30L32 31L28 31L28 32L29 32L29 33L27 33L27 31L26 31L26 32L25 32L25 34L23 34L23 33L24 33L24 32L21 32L21 33L20 33L20 31L19 31L19 33L18 33L18 34L17 34L17 33L16 33L16 34L17 34L17 35L18 35L18 34L19 34L19 37L21 37L21 39L22 39L22 37L23 37L23 38L24 38L24 37L23 37L23 36L24 36L24 35L25 35L25 34L26 34L26 35L27 35L27 36L25 36L25 38L27 38L27 39L25 39L25 40L24 40L24 39L23 39L23 40L20 40L20 42L21 42L21 43L22 43L22 42L23 42L23 43L24 43L24 44L23 44L23 45L22 45L22 47L23 47L23 48L24 48L24 47L23 47L23 45L25 45L25 44L26 44L26 43L27 43L27 42L29 42L29 41L30 41L30 40L31 40L31 41L32 41L32 42L33 42L33 43L34 43L34 42L35 42L35 43L36 43L36 42L37 42L37 41L34 41L34 40L38 40L38 38L39 38L39 36L40 36L40 35L38 35L38 36L37 36L37 35L34 35L34 34L35 34L35 33L36 33L36 32L37 32L37 34L39 34L39 33L38 33L38 32L40 32L40 30L39 30L39 29L33 29L33 28L34 28L34 27L33 27L33 26L32 26L32 25ZM41 25L41 27L42 27L42 28L45 28L45 30L46 30L46 29L47 29L47 28L46 28L46 26L45 26L45 27L42 27L42 26L44 26L44 25ZM56 25L56 26L57 26L57 25ZM5 27L5 30L8 30L8 27ZM27 27L27 30L30 30L30 27ZM32 27L32 28L33 28L33 27ZM49 27L49 30L52 30L52 27ZM6 28L6 29L7 29L7 28ZM28 28L28 29L29 29L29 28ZM50 28L50 29L51 29L51 28ZM2 29L2 30L3 30L3 31L4 31L4 29ZM32 29L32 30L33 30L33 31L32 31L32 32L30 32L30 33L29 33L29 34L30 34L30 35L29 35L29 39L31 39L31 38L32 38L32 35L33 35L33 34L34 34L34 32L33 32L33 31L35 31L35 32L36 32L36 31L39 31L39 30L36 30L36 31L35 31L35 30L33 30L33 29ZM5 31L5 34L4 34L4 35L3 35L3 34L2 34L2 35L1 35L1 36L2 36L2 38L3 38L3 39L4 39L4 40L3 40L3 41L5 41L5 37L4 37L4 36L5 36L5 34L7 34L7 33L6 33L6 32L7 32L7 31ZM51 31L51 32L54 32L54 33L55 33L55 34L56 34L56 33L55 33L55 32L54 32L54 31ZM3 32L3 33L4 33L4 32ZM32 32L32 33L31 33L31 35L32 35L32 34L33 34L33 32ZM21 33L21 34L20 34L20 35L21 35L21 37L22 37L22 36L23 36L23 35L22 35L22 33ZM26 33L26 34L27 34L27 33ZM53 34L53 35L54 35L54 34ZM2 35L2 36L3 36L3 35ZM30 36L30 38L31 38L31 36ZM34 36L34 37L35 37L35 38L33 38L33 39L32 39L32 40L33 40L33 39L35 39L35 38L36 38L36 39L37 39L37 38L38 38L38 37L37 37L37 36L36 36L36 37L35 37L35 36ZM27 37L27 38L28 38L28 37ZM36 37L36 38L37 38L37 37ZM8 38L8 39L9 39L9 38ZM19 38L19 39L20 39L20 38ZM27 39L27 40L28 40L28 39ZM42 40L42 41L43 41L43 40ZM6 41L6 42L7 42L7 41ZM24 41L24 43L25 43L25 41ZM26 41L26 42L27 42L27 41ZM33 41L33 42L34 42L34 41ZM39 41L39 42L40 42L40 41ZM9 42L9 43L10 43L10 44L11 44L11 45L10 45L10 46L11 46L11 48L12 48L12 49L11 49L11 50L13 50L13 47L12 47L12 46L11 46L11 45L12 45L12 44L11 44L11 43L10 43L10 42ZM50 42L50 43L51 43L51 42ZM52 43L52 44L53 44L53 43ZM37 44L37 45L38 45L38 44ZM6 45L6 46L7 46L7 45ZM3 46L3 47L5 47L5 46ZM31 46L31 47L32 47L32 46ZM34 47L34 48L35 48L35 47ZM51 47L51 48L54 48L54 49L55 49L55 50L56 50L56 48L54 48L54 47ZM20 48L20 49L21 49L21 48ZM27 49L27 52L30 52L30 49ZM49 49L49 52L52 52L52 49ZM28 50L28 51L29 51L29 50ZM33 50L33 51L32 51L32 52L35 52L35 50ZM50 50L50 51L51 51L51 50ZM12 52L12 53L13 53L13 54L16 54L16 53L13 53L13 52ZM40 52L40 55L41 55L41 56L42 56L42 55L41 55L41 53L43 53L43 52ZM46 52L46 53L45 53L45 54L49 54L49 55L50 55L50 54L51 54L51 53L48 53L48 52ZM10 55L10 56L11 56L11 57L12 57L12 56L11 56L11 55ZM15 55L15 56L16 56L16 55ZM0 0L0 7L7 7L7 0ZM1 1L1 6L6 6L6 1ZM2 2L2 5L5 5L5 2ZM50 0L50 7L57 7L57 0ZM51 1L51 6L56 6L56 1ZM52 2L52 5L55 5L55 2ZM0 50L0 57L7 57L7 50ZM1 51L1 56L6 56L6 51ZM2 52L2 55L5 55L5 52Z" fill="#000000"/></g></g></svg>
