<?xml version="1.0" encoding="UTF-8"?>
<svg xmlns="http://www.w3.org/2000/svg" version="1.1" width="300" height="300" viewBox="0 0 300 300"><rect x="0" y="0" width="300" height="300" fill="#ffffff"/><g transform="scale(4.918)"><g transform="translate(2,2)"><path fill-rule="evenodd" d="M10 0L10 1L8 1L8 2L10 2L10 4L9 4L9 3L8 3L8 4L9 4L9 5L8 5L8 7L9 7L9 6L10 6L10 8L6 8L6 9L5 9L5 8L0 8L0 9L2 9L2 10L3 10L3 12L5 12L5 14L3 14L3 13L1 13L1 12L2 12L2 11L1 11L1 10L0 10L0 13L1 13L1 14L0 14L0 17L1 17L1 18L0 18L0 22L1 22L1 21L3 21L3 22L2 22L2 23L0 23L0 24L2 24L2 23L3 23L3 25L4 25L4 22L5 22L5 23L7 23L7 22L6 22L6 21L7 21L7 20L6 20L6 19L9 19L9 21L8 21L8 22L10 22L10 23L11 23L11 22L12 22L12 23L13 23L13 24L14 24L14 25L12 25L12 26L13 26L13 27L11 27L11 26L10 26L10 27L11 27L11 28L9 28L9 26L8 26L8 25L9 25L9 24L6 24L6 25L5 25L5 26L4 26L4 31L2 31L2 30L3 30L3 29L2 29L2 28L3 28L3 27L1 27L1 25L0 25L0 27L1 27L1 29L0 29L0 38L1 38L1 37L2 37L2 38L3 38L3 39L8 39L8 38L9 38L9 37L10 37L10 39L9 39L9 40L8 40L8 42L6 42L6 43L5 43L5 44L6 44L6 45L5 45L5 47L3 47L3 45L0 45L0 48L5 48L5 47L7 47L7 48L6 48L6 49L8 49L8 51L9 51L9 52L8 52L8 57L10 57L10 56L11 56L11 57L12 57L12 56L11 56L11 54L12 54L12 52L11 52L11 50L12 50L12 51L13 51L13 52L15 52L15 51L16 51L16 52L18 52L18 53L17 53L17 57L22 57L22 56L23 56L23 55L24 55L24 54L25 54L25 53L26 53L26 55L25 55L25 56L24 56L24 57L26 57L26 56L28 56L28 55L27 55L27 53L28 53L28 54L29 54L29 53L31 53L31 54L30 54L30 56L29 56L29 57L30 57L30 56L31 56L31 57L32 57L32 55L33 55L33 57L37 57L37 55L38 55L38 56L41 56L41 57L42 57L42 56L45 56L45 57L49 57L49 56L48 56L48 55L49 55L49 53L51 53L51 54L50 54L50 55L51 55L51 56L50 56L50 57L52 57L52 56L54 56L54 57L56 57L56 56L55 56L55 55L51 55L51 54L53 54L53 52L55 52L55 51L56 51L56 52L57 52L57 51L56 51L56 50L57 50L57 49L56 49L56 50L55 50L55 49L54 49L54 50L55 50L55 51L53 51L53 47L52 47L52 45L54 45L54 46L57 46L57 45L54 45L54 44L55 44L55 43L56 43L56 44L57 44L57 43L56 43L56 42L55 42L55 41L54 41L54 40L56 40L56 39L55 39L55 38L52 38L52 40L51 40L51 39L50 39L50 37L51 37L51 35L49 35L49 36L48 36L48 38L45 38L45 37L44 37L44 35L42 35L42 34L43 34L43 32L46 32L46 33L47 33L47 34L45 34L45 33L44 33L44 34L45 34L45 36L47 36L47 35L48 35L48 33L47 33L47 32L48 32L48 31L49 31L49 33L50 33L50 34L51 34L51 33L53 33L53 32L52 32L52 31L54 31L54 32L56 32L56 31L55 31L55 30L57 30L57 29L56 29L56 28L57 28L57 27L56 27L56 24L55 24L55 23L56 23L56 22L57 22L57 21L54 21L54 20L57 20L57 19L56 19L56 18L57 18L57 17L54 17L54 16L55 16L55 14L57 14L57 13L54 13L54 15L53 15L53 17L54 17L54 20L53 20L53 19L51 19L51 20L53 20L53 22L54 22L54 23L51 23L51 22L52 22L52 21L51 21L51 22L50 22L50 19L49 19L49 21L48 21L48 23L47 23L47 22L45 22L45 21L44 21L44 24L43 24L43 25L42 25L42 24L41 24L41 23L40 23L40 22L39 22L39 24L37 24L37 22L38 22L38 19L40 19L40 20L39 20L39 21L40 21L40 20L41 20L41 19L40 19L40 18L38 18L38 17L40 17L40 16L41 16L41 15L42 15L42 17L41 17L41 18L44 18L44 19L42 19L42 20L46 20L46 21L47 21L47 20L46 20L46 19L47 19L47 18L50 18L50 16L49 16L49 17L47 17L47 16L46 16L46 15L49 15L49 14L50 14L50 15L51 15L51 16L52 16L52 15L51 15L51 14L52 14L52 13L51 13L51 12L49 12L49 13L47 13L47 14L46 14L46 12L45 12L45 11L47 11L47 10L45 10L45 9L44 9L44 8L43 8L43 6L42 6L42 5L43 5L43 3L47 3L47 5L46 5L46 9L47 9L47 5L48 5L48 0L46 0L46 1L45 1L45 2L44 2L44 0L42 0L42 1L41 1L41 0L40 0L40 1L36 1L36 0L35 0L35 1L34 1L34 0L33 0L33 1L34 1L34 2L35 2L35 1L36 1L36 2L37 2L37 3L36 3L36 5L35 5L35 6L34 6L34 5L33 5L33 6L32 6L32 7L31 7L31 4L32 4L32 3L33 3L33 4L35 4L35 3L33 3L33 2L32 2L32 1L31 1L31 0L30 0L30 1L29 1L29 2L28 2L28 0L27 0L27 1L25 1L25 0L21 0L21 4L22 4L22 7L21 7L21 6L20 6L20 5L19 5L19 6L18 6L18 7L17 7L17 4L20 4L20 3L18 3L18 2L20 2L20 0L19 0L19 1L18 1L18 2L17 2L17 1L16 1L16 2L14 2L14 1L15 1L15 0ZM10 1L10 2L12 2L12 1ZM22 1L22 2L23 2L23 3L22 3L22 4L23 4L23 3L24 3L24 4L25 4L25 5L23 5L23 7L22 7L22 8L21 8L21 7L20 7L20 6L19 6L19 7L18 7L18 8L19 8L19 9L20 9L20 10L22 10L22 9L25 9L25 10L24 10L24 11L22 11L22 12L21 12L21 13L19 13L19 10L18 10L18 9L17 9L17 8L16 8L16 6L15 6L15 5L16 5L16 4L17 4L17 2L16 2L16 4L15 4L15 3L14 3L14 2L13 2L13 3L11 3L11 4L10 4L10 5L11 5L11 4L12 4L12 5L13 5L13 4L15 4L15 5L14 5L14 6L13 6L13 7L14 7L14 8L13 8L13 9L12 9L12 8L10 8L10 10L9 10L9 9L8 9L8 11L9 11L9 13L8 13L8 12L7 12L7 11L6 11L6 10L7 10L7 9L6 9L6 10L4 10L4 11L6 11L6 12L7 12L7 13L6 13L6 14L5 14L5 15L4 15L4 17L3 17L3 19L2 19L2 20L3 20L3 19L4 19L4 20L5 20L5 21L6 21L6 20L5 20L5 19L4 19L4 17L5 17L5 18L9 18L9 19L10 19L10 21L12 21L12 19L13 19L13 20L14 20L14 19L13 19L13 16L14 16L14 18L16 18L16 20L15 20L15 21L13 21L13 22L15 22L15 23L14 23L14 24L15 24L15 23L16 23L16 25L15 25L15 28L14 28L14 27L13 27L13 28L14 28L14 31L13 31L13 30L9 30L9 31L11 31L11 32L10 32L10 33L9 33L9 32L8 32L8 31L6 31L6 32L8 32L8 33L6 33L6 34L4 34L4 33L5 33L5 31L4 31L4 33L3 33L3 32L1 32L1 33L2 33L2 34L4 34L4 36L3 36L3 37L5 37L5 38L8 38L8 37L5 37L5 35L6 35L6 36L7 36L7 35L8 35L8 34L10 34L10 33L11 33L11 35L9 35L9 36L11 36L11 38L12 38L12 39L10 39L10 41L9 41L9 42L8 42L8 45L9 45L9 46L8 46L8 47L9 47L9 46L10 46L10 49L9 49L9 50L11 50L11 49L12 49L12 48L11 48L11 46L12 46L12 47L13 47L13 45L12 45L12 44L13 44L13 43L12 43L12 44L9 44L9 43L10 43L10 42L14 42L14 44L15 44L15 45L16 45L16 46L14 46L14 49L13 49L13 51L15 51L15 50L17 50L17 51L20 51L20 52L21 52L21 53L20 53L20 54L19 54L19 53L18 53L18 54L19 54L19 56L22 56L22 54L21 54L21 53L25 53L25 52L26 52L26 50L24 50L24 51L23 51L23 50L22 50L22 49L26 49L26 48L27 48L27 47L28 47L28 48L29 48L29 45L30 45L30 46L35 46L35 47L34 47L34 48L37 48L37 47L36 47L36 46L35 46L35 44L36 44L36 43L38 43L38 44L39 44L39 42L40 42L40 41L41 41L41 42L42 42L42 43L43 43L43 44L40 44L40 45L41 45L41 46L42 46L42 47L43 47L43 46L44 46L44 45L45 45L45 44L44 44L44 43L46 43L46 42L47 42L47 43L48 43L48 42L47 42L47 41L48 41L48 40L47 40L47 41L45 41L45 38L44 38L44 37L43 37L43 38L42 38L42 37L41 37L41 36L40 36L40 35L41 35L41 34L42 34L42 33L41 33L41 32L42 32L42 31L46 31L46 32L47 32L47 31L48 31L48 28L47 28L47 27L48 27L48 25L49 25L49 24L50 24L50 26L51 26L51 25L53 25L53 27L55 27L55 26L54 26L54 25L55 25L55 24L54 24L54 25L53 25L53 24L51 24L51 23L50 23L50 22L49 22L49 23L48 23L48 25L47 25L47 23L46 23L46 24L44 24L44 25L45 25L45 26L44 26L44 27L46 27L46 28L47 28L47 29L46 29L46 30L45 30L45 28L44 28L44 30L42 30L42 29L43 29L43 28L42 28L42 27L43 27L43 26L41 26L41 24L39 24L39 25L38 25L38 27L36 27L36 26L37 26L37 25L35 25L35 24L36 24L36 22L37 22L37 21L36 21L36 20L37 20L37 19L38 19L38 18L37 18L37 19L34 19L34 18L36 18L36 16L37 16L37 15L38 15L38 16L40 16L40 14L42 14L42 15L43 15L43 16L44 16L44 18L45 18L45 19L46 19L46 18L47 18L47 17L46 17L46 18L45 18L45 16L44 16L44 15L45 15L45 12L44 12L44 13L43 13L43 14L42 14L42 11L43 11L43 10L44 10L44 11L45 11L45 10L44 10L44 9L43 9L43 8L42 8L42 9L43 9L43 10L41 10L41 8L40 8L40 6L41 6L41 7L42 7L42 6L41 6L41 3L40 3L40 5L39 5L39 2L38 2L38 6L37 6L37 5L36 5L36 6L35 6L35 8L34 8L34 6L33 6L33 7L32 7L32 9L33 9L33 10L34 10L34 12L35 12L35 11L40 11L40 12L38 12L38 14L37 14L37 15L36 15L36 16L35 16L35 15L34 15L34 16L32 16L32 14L35 14L35 13L33 13L33 12L32 12L32 11L31 11L31 10L28 10L28 9L26 9L26 6L25 6L25 5L26 5L26 4L27 4L27 3L28 3L28 4L29 4L29 3L28 3L28 2L26 2L26 3L24 3L24 2L25 2L25 1L24 1L24 2L23 2L23 1ZM30 1L30 2L31 2L31 1ZM40 1L40 2L41 2L41 1ZM42 1L42 2L43 2L43 1ZM46 1L46 2L47 2L47 1ZM44 4L44 5L45 5L45 4ZM27 5L27 8L30 8L30 5ZM11 6L11 7L12 7L12 6ZM14 6L14 7L15 7L15 6ZM24 6L24 8L25 8L25 6ZM28 6L28 7L29 7L29 6ZM36 6L36 7L37 7L37 8L35 8L35 9L37 9L37 10L38 10L38 7L39 7L39 6L38 6L38 7L37 7L37 6ZM44 6L44 7L45 7L45 6ZM48 6L48 8L49 8L49 9L48 9L48 10L50 10L50 11L52 11L52 12L53 12L53 11L54 11L54 12L56 12L56 11L54 11L54 10L52 10L52 8L51 8L51 10L50 10L50 8L49 8L49 6ZM33 8L33 9L34 9L34 8ZM39 8L39 9L40 9L40 8ZM53 8L53 9L54 9L54 8ZM55 8L55 10L57 10L57 9L56 9L56 8ZM13 9L13 10L12 10L12 11L13 11L13 12L14 12L14 11L13 11L13 10L15 10L15 9ZM17 10L17 11L18 11L18 10ZM26 10L26 11L27 11L27 12L25 12L25 13L23 13L23 14L22 14L22 13L21 13L21 14L22 14L22 16L23 16L23 15L24 15L24 16L25 16L25 17L21 17L21 20L22 20L22 18L23 18L23 21L19 21L19 18L20 18L20 17L19 17L19 15L18 15L18 14L19 14L19 13L18 13L18 12L16 12L16 11L15 11L15 13L18 13L18 14L16 14L16 15L15 15L15 17L16 17L16 15L18 15L18 16L17 16L17 17L19 17L19 18L17 18L17 19L18 19L18 21L17 21L17 22L18 22L18 23L17 23L17 26L16 26L16 29L15 29L15 31L14 31L14 32L13 32L13 35L12 35L12 36L13 36L13 37L12 37L12 38L14 38L14 39L16 39L16 40L15 40L15 41L14 41L14 40L13 40L13 39L12 39L12 40L11 40L11 41L12 41L12 40L13 40L13 41L14 41L14 42L15 42L15 43L16 43L16 45L18 45L18 46L16 46L16 47L15 47L15 49L14 49L14 50L15 50L15 49L19 49L19 50L20 50L20 49L21 49L21 48L20 48L20 49L19 49L19 48L18 48L18 46L19 46L19 47L22 47L22 46L25 46L25 45L26 45L26 44L25 44L25 45L22 45L22 44L21 44L21 43L20 43L20 41L21 41L21 42L22 42L22 43L25 43L25 40L26 40L26 39L27 39L27 40L28 40L28 41L30 41L30 42L29 42L29 43L31 43L31 41L32 41L32 39L31 39L31 38L32 38L32 35L31 35L31 34L34 34L34 35L33 35L33 37L34 37L34 36L35 36L35 35L39 35L39 34L40 34L40 32L41 32L41 31L42 31L42 30L41 30L41 29L39 29L39 28L40 28L40 25L39 25L39 28L38 28L38 29L39 29L39 30L36 30L36 29L37 29L37 28L35 28L35 26L34 26L34 25L33 25L33 26L31 26L31 25L30 25L30 22L31 22L31 23L32 23L32 24L33 24L33 23L34 23L34 24L35 24L35 23L34 23L34 22L33 22L33 21L35 21L35 20L33 20L33 19L30 19L30 20L29 20L29 21L27 21L27 20L26 20L26 19L27 19L27 18L28 18L28 19L29 19L29 18L31 18L31 17L32 17L32 18L34 18L34 17L32 17L32 16L31 16L31 15L30 15L30 16L31 16L31 17L29 17L29 18L28 18L28 16L29 16L29 14L31 14L31 13L32 13L32 12L31 12L31 11L27 11L27 10ZM40 10L40 11L41 11L41 10ZM10 12L10 13L11 13L11 12ZM28 12L28 13L27 13L27 14L26 14L26 13L25 13L25 14L24 14L24 15L25 15L25 16L28 16L28 15L27 15L27 14L28 14L28 13L31 13L31 12ZM12 13L12 14L11 14L11 15L9 15L9 16L11 16L11 15L13 15L13 14L14 14L14 13ZM50 13L50 14L51 14L51 13ZM6 14L6 15L7 15L7 14ZM25 14L25 15L26 15L26 14ZM43 14L43 15L44 15L44 14ZM1 15L1 16L3 16L3 15ZM20 15L20 16L21 16L21 15ZM56 15L56 16L57 16L57 15ZM5 16L5 17L7 17L7 16ZM11 17L11 18L10 18L10 19L12 19L12 17ZM25 17L25 18L24 18L24 21L23 21L23 23L24 23L24 21L25 21L25 23L26 23L26 24L19 24L19 25L20 25L20 26L21 26L21 25L22 25L22 27L21 27L21 28L22 28L22 29L19 29L19 30L18 30L18 31L19 31L19 33L16 33L16 35L15 35L15 33L14 33L14 35L13 35L13 36L16 36L16 37L14 37L14 38L16 38L16 37L18 37L18 38L17 38L17 39L18 39L18 40L19 40L19 41L18 41L18 43L17 43L17 41L16 41L16 43L17 43L17 44L18 44L18 45L19 45L19 46L21 46L21 45L19 45L19 44L20 44L20 43L19 43L19 41L20 41L20 40L19 40L19 39L18 39L18 38L20 38L20 39L21 39L21 41L24 41L24 40L25 40L25 39L24 39L24 37L25 37L25 38L29 38L29 35L30 35L30 38L31 38L31 35L30 35L30 34L31 34L31 32L32 32L32 33L34 33L34 34L35 34L35 33L36 33L36 32L37 32L37 34L39 34L39 32L40 32L40 31L41 31L41 30L40 30L40 31L38 31L38 32L37 32L37 31L36 31L36 30L35 30L35 29L33 29L33 28L34 28L34 27L33 27L33 28L32 28L32 29L33 29L33 30L35 30L35 31L34 31L34 32L32 32L32 31L28 31L28 32L30 32L30 34L29 34L29 33L27 33L27 31L25 31L25 30L26 30L26 27L25 27L25 26L26 26L26 24L28 24L28 25L27 25L27 26L29 26L29 24L28 24L28 23L29 23L29 22L30 22L30 21L31 21L31 20L30 20L30 21L29 21L29 22L27 22L27 23L26 23L26 21L25 21L25 19L26 19L26 18L27 18L27 17ZM51 17L51 18L52 18L52 17ZM32 20L32 21L33 21L33 20ZM15 21L15 22L16 22L16 21ZM18 21L18 22L19 22L19 23L20 23L20 22L19 22L19 21ZM41 21L41 22L43 22L43 21ZM6 25L6 26L7 26L7 25ZM23 25L23 26L25 26L25 25ZM17 26L17 27L18 27L18 26ZM5 27L5 30L8 30L8 27ZM27 27L27 30L30 30L30 27ZM49 27L49 30L52 30L52 27ZM6 28L6 29L7 29L7 28ZM11 28L11 29L12 29L12 28ZM17 28L17 29L16 29L16 31L15 31L15 32L17 32L17 29L18 29L18 28ZM23 28L23 29L22 29L22 31L21 31L21 32L20 32L20 33L21 33L21 34L24 34L24 35L27 35L27 34L25 34L25 33L26 33L26 32L25 32L25 31L24 31L24 32L25 32L25 33L21 33L21 32L22 32L22 31L23 31L23 29L24 29L24 30L25 30L25 29L24 29L24 28ZM28 28L28 29L29 29L29 28ZM50 28L50 29L51 29L51 28ZM54 28L54 29L53 29L53 30L55 30L55 28ZM46 30L46 31L47 31L47 30ZM35 31L35 32L34 32L34 33L35 33L35 32L36 32L36 31ZM11 32L11 33L12 33L12 32ZM50 32L50 33L51 33L51 32ZM55 33L55 34L54 34L54 36L53 36L53 34L52 34L52 36L53 36L53 37L54 37L54 36L56 36L56 37L57 37L57 36L56 36L56 34L57 34L57 33ZM6 34L6 35L7 35L7 34ZM19 34L19 35L18 35L18 37L19 37L19 36L20 36L20 34ZM1 35L1 36L2 36L2 35ZM21 35L21 37L22 37L22 39L23 39L23 40L24 40L24 39L23 39L23 37L24 37L24 36L23 36L23 37L22 37L22 35ZM25 36L25 37L26 37L26 36ZM27 36L27 37L28 37L28 36ZM36 36L36 38L33 38L33 40L34 40L34 41L35 41L35 42L38 42L38 41L37 41L37 38L38 38L38 37L39 37L39 38L40 38L40 36ZM49 36L49 37L50 37L50 36ZM1 39L1 42L3 42L3 43L0 43L0 44L3 44L3 43L4 43L4 42L5 42L5 41L7 41L7 40L3 40L3 41L2 41L2 39ZM28 39L28 40L31 40L31 39ZM49 39L49 41L51 41L51 42L50 42L50 43L51 43L51 44L49 44L49 45L51 45L51 44L53 44L53 43L54 43L54 41L51 41L51 40L50 40L50 39ZM41 40L41 41L42 41L42 42L43 42L43 43L44 43L44 42L45 42L45 41L44 41L44 40ZM3 41L3 42L4 42L4 41ZM26 42L26 43L27 43L27 42ZM32 42L32 44L34 44L34 42ZM6 43L6 44L7 44L7 43ZM28 44L28 45L27 45L27 46L26 46L26 47L27 47L27 46L28 46L28 45L29 45L29 44ZM30 44L30 45L31 45L31 44ZM43 44L43 45L42 45L42 46L43 46L43 45L44 45L44 44ZM47 44L47 45L46 45L46 46L48 46L48 47L46 47L46 48L47 48L47 49L46 49L46 50L45 50L45 48L43 48L43 50L39 50L39 48L40 48L40 49L42 49L42 48L40 48L40 47L38 47L38 50L37 50L37 52L38 52L38 55L39 55L39 52L40 52L40 55L41 55L41 54L42 54L42 55L45 55L45 54L47 54L47 53L48 53L48 52L47 52L47 51L48 51L48 48L50 48L50 47L51 47L51 48L52 48L52 47L51 47L51 46L50 46L50 47L49 47L49 46L48 46L48 44ZM6 45L6 46L7 46L7 45ZM10 45L10 46L11 46L11 45ZM37 45L37 46L39 46L39 45ZM1 46L1 47L2 47L2 46ZM16 47L16 48L17 48L17 47ZM24 47L24 48L25 48L25 47ZM30 47L30 48L32 48L32 51L31 51L31 52L32 52L32 54L33 54L33 55L35 55L35 56L36 56L36 54L37 54L37 53L36 53L36 54L35 54L35 52L36 52L36 51L35 51L35 52L34 52L34 50L36 50L36 49L34 49L34 50L33 50L33 48L32 48L32 47ZM54 47L54 48L57 48L57 47ZM27 49L27 52L30 52L30 49ZM49 49L49 52L52 52L52 49ZM28 50L28 51L29 51L29 50ZM38 50L38 52L39 52L39 50ZM43 50L43 51L42 51L42 52L43 52L43 53L42 53L42 54L43 54L43 53L44 53L44 54L45 54L45 53L44 53L44 50ZM46 50L46 51L47 51L47 50ZM50 50L50 51L51 51L51 50ZM22 51L22 52L23 52L23 51ZM24 51L24 52L25 52L25 51ZM32 51L32 52L33 52L33 51ZM40 51L40 52L41 52L41 51ZM46 52L46 53L47 53L47 52ZM15 53L15 54L13 54L13 57L14 57L14 55L15 55L15 56L16 56L16 55L15 55L15 54L16 54L16 53ZM20 54L20 55L21 55L21 54ZM9 55L9 56L10 56L10 55ZM46 55L46 56L47 56L47 55ZM0 0L0 7L7 7L7 0ZM1 1L1 6L6 6L6 1ZM2 2L2 5L5 5L5 2ZM50 0L50 7L57 7L57 0ZM51 1L51 6L56 6L56 1ZM52 2L52 5L55 5L55 2ZM0 50L0 57L7 57L7 50ZM1 51L1 56L6 56L6 51ZM2 52L2 55L5 55L5 52Z" fill="#000000"/></g></g></svg>
