<?xml version="1.0" encoding="UTF-8"?>
<svg xmlns="http://www.w3.org/2000/svg" version="1.1" width="300" height="300" viewBox="0 0 300 300"><rect x="0" y="0" width="300" height="300" fill="#ffffff"/><g transform="scale(4.918)"><g transform="translate(2,2)"><path fill-rule="evenodd" d="M9 0L9 1L8 1L8 2L10 2L10 1L11 1L11 2L13 2L13 4L14 4L14 5L12 5L12 4L11 4L11 3L8 3L8 4L10 4L10 7L9 7L9 5L8 5L8 7L9 7L9 8L6 8L6 9L7 9L7 10L5 10L5 8L0 8L0 9L2 9L2 11L1 11L1 10L0 10L0 11L1 11L1 12L0 12L0 15L1 15L1 14L2 14L2 15L3 15L3 16L1 16L1 17L0 17L0 18L2 18L2 19L1 19L1 21L0 21L0 22L1 22L1 23L0 23L0 24L3 24L3 25L0 25L0 26L1 26L1 27L0 27L0 31L1 31L1 30L2 30L2 31L3 31L3 29L1 29L1 27L2 27L2 28L4 28L4 33L2 33L2 34L4 34L4 37L5 37L5 33L7 33L7 34L6 34L6 35L7 35L7 36L6 36L6 37L7 37L7 38L4 38L4 39L3 39L3 38L2 38L2 35L1 35L1 36L0 36L0 37L1 37L1 40L0 40L0 41L2 41L2 43L0 43L0 44L1 44L1 45L0 45L0 48L5 48L5 47L7 47L7 46L9 46L9 48L6 48L6 49L8 49L8 51L10 51L10 50L9 50L9 48L10 48L10 49L13 49L13 50L14 50L14 51L13 51L13 53L14 53L14 54L12 54L12 55L11 55L11 56L12 56L12 55L13 55L13 56L14 56L14 57L15 57L15 56L16 56L16 57L17 57L17 56L18 56L18 57L20 57L20 56L21 56L21 55L24 55L24 57L26 57L26 56L25 56L25 55L26 55L26 54L27 54L27 53L28 53L28 54L29 54L29 55L30 55L30 56L29 56L29 57L31 57L31 55L32 55L32 56L33 56L33 54L34 54L34 56L35 56L35 54L34 54L34 53L33 53L33 54L32 54L32 52L34 52L34 51L35 51L35 52L36 52L36 53L37 53L37 54L36 54L36 55L37 55L37 56L36 56L36 57L37 57L37 56L40 56L40 52L41 52L41 51L42 51L42 50L43 50L43 52L42 52L42 53L41 53L41 54L43 54L43 53L44 53L44 54L45 54L45 57L46 57L46 56L47 56L47 55L48 55L48 57L49 57L49 56L50 56L50 55L51 55L51 57L52 57L52 56L53 56L53 57L54 57L54 56L55 56L55 57L56 57L56 56L55 56L55 54L53 54L53 53L54 53L54 52L55 52L55 53L56 53L56 52L57 52L57 51L56 51L56 52L55 52L55 50L57 50L57 48L56 48L56 46L57 46L57 43L56 43L56 42L57 42L57 41L56 41L56 42L55 42L55 41L54 41L54 43L53 43L53 42L51 42L51 41L53 41L53 40L55 40L55 39L57 39L57 37L54 37L54 36L55 36L55 35L56 35L56 36L57 36L57 35L56 35L56 34L57 34L57 33L56 33L56 32L57 32L57 31L56 31L56 30L57 30L57 29L56 29L56 30L55 30L55 29L54 29L54 28L57 28L57 27L56 27L56 25L55 25L55 23L56 23L56 24L57 24L57 23L56 23L56 22L57 22L57 21L54 21L54 20L55 20L55 19L56 19L56 20L57 20L57 19L56 19L56 18L57 18L57 15L56 15L56 14L57 14L57 13L56 13L56 14L55 14L55 13L53 13L53 14L54 14L54 16L53 16L53 15L52 15L52 16L53 16L53 17L52 17L52 18L50 18L50 17L49 17L49 16L50 16L50 15L51 15L51 14L52 14L52 13L51 13L51 12L50 12L50 13L51 13L51 14L49 14L49 13L47 13L47 14L46 14L46 12L45 12L45 13L44 13L44 11L45 11L45 10L44 10L44 11L42 11L42 10L43 10L43 9L44 9L44 8L42 8L42 9L41 9L41 11L40 11L40 12L39 12L39 10L40 10L40 9L39 9L39 10L38 10L38 8L41 8L41 6L42 6L42 7L43 7L43 6L42 6L42 5L43 5L43 4L42 4L42 3L47 3L47 5L46 5L46 4L44 4L44 5L45 5L45 6L44 6L44 7L45 7L45 6L46 6L46 7L47 7L47 9L48 9L48 11L47 11L47 12L49 12L49 10L50 10L50 11L51 11L51 10L50 10L50 8L49 8L49 6L48 6L48 7L47 7L47 5L48 5L48 0L42 0L42 1L41 1L41 0L40 0L40 1L37 1L37 0L35 0L35 1L34 1L34 0L33 0L33 1L32 1L32 2L30 2L30 3L31 3L31 4L28 4L28 3L29 3L29 2L28 2L28 3L27 3L27 2L26 2L26 0L23 0L23 3L24 3L24 4L21 4L21 6L20 6L20 5L18 5L18 4L20 4L20 3L18 3L18 2L19 2L19 1L20 1L20 2L21 2L21 3L22 3L22 2L21 2L21 1L22 1L22 0L21 0L21 1L20 1L20 0L19 0L19 1L18 1L18 2L17 2L17 1L15 1L15 0L14 0L14 1L15 1L15 2L13 2L13 0ZM27 0L27 1L28 1L28 0ZM29 0L29 1L31 1L31 0ZM24 1L24 2L25 2L25 1ZM33 1L33 2L34 2L34 3L32 3L32 4L31 4L31 8L33 8L33 7L34 7L34 8L36 8L36 6L37 6L37 8L38 8L38 6L37 6L37 5L40 5L40 6L39 6L39 7L40 7L40 6L41 6L41 5L42 5L42 4L41 4L41 3L42 3L42 2L47 2L47 1L42 1L42 2L41 2L41 1L40 1L40 2L41 2L41 3L40 3L40 4L38 4L38 3L39 3L39 2L37 2L37 1L35 1L35 2L34 2L34 1ZM16 2L16 4L15 4L15 3L14 3L14 4L15 4L15 5L14 5L14 6L13 6L13 7L12 7L12 5L11 5L11 9L10 9L10 8L9 8L9 9L10 9L10 10L9 10L9 11L8 11L8 10L7 10L7 11L3 11L3 12L4 12L4 14L5 14L5 12L7 12L7 13L6 13L6 14L7 14L7 15L6 15L6 16L7 16L7 15L8 15L8 17L5 17L5 16L3 16L3 19L2 19L2 20L3 20L3 19L4 19L4 20L7 20L7 19L8 19L8 20L9 20L9 22L8 22L8 23L5 23L5 21L3 21L3 22L4 22L4 25L3 25L3 26L2 26L2 27L4 27L4 25L5 25L5 24L7 24L7 25L6 25L6 26L10 26L10 27L9 27L9 29L10 29L10 28L11 28L11 27L12 27L12 29L11 29L11 30L9 30L9 32L8 32L8 36L7 36L7 37L8 37L8 36L9 36L9 37L10 37L10 38L9 38L9 39L8 39L8 38L7 38L7 39L6 39L6 40L5 40L5 41L4 41L4 42L3 42L3 43L2 43L2 45L1 45L1 47L2 47L2 45L3 45L3 43L5 43L5 45L4 45L4 46L3 46L3 47L5 47L5 45L6 45L6 46L7 46L7 45L9 45L9 43L11 43L11 42L13 42L13 44L12 44L12 46L10 46L10 47L11 47L11 48L12 48L12 46L13 46L13 44L14 44L14 45L15 45L15 44L18 44L18 45L16 45L16 46L17 46L17 47L16 47L16 48L17 48L17 47L18 47L18 48L19 48L19 49L16 49L16 51L18 51L18 50L22 50L22 51L19 51L19 53L18 53L18 52L15 52L15 51L14 51L14 52L15 52L15 53L16 53L16 54L14 54L14 55L16 55L16 56L17 56L17 54L19 54L19 55L20 55L20 54L19 54L19 53L23 53L23 54L24 54L24 53L23 53L23 52L24 52L24 51L25 51L25 52L26 52L26 48L27 48L27 47L26 47L26 46L29 46L29 45L31 45L31 44L32 44L32 45L33 45L33 46L31 46L31 48L32 48L32 49L31 49L31 52L32 52L32 50L33 50L33 51L34 51L34 50L35 50L35 51L36 51L36 52L37 52L37 51L36 51L36 50L40 50L40 51L38 51L38 52L40 52L40 51L41 51L41 50L42 50L42 49L46 49L46 50L44 50L44 53L45 53L45 54L46 54L46 55L47 55L47 53L48 53L48 52L47 52L47 51L48 51L48 48L49 48L49 47L51 47L51 45L52 45L52 46L53 46L53 47L52 47L52 48L54 48L54 49L56 49L56 48L54 48L54 47L55 47L55 46L56 46L56 43L55 43L55 44L54 44L54 45L55 45L55 46L53 46L53 45L52 45L52 44L53 44L53 43L52 43L52 44L50 44L50 46L49 46L49 45L48 45L48 44L47 44L47 45L46 45L46 46L47 46L47 47L45 47L45 46L42 46L42 45L43 45L43 44L40 44L40 43L42 43L42 42L41 42L41 40L44 40L44 41L45 41L45 43L44 43L44 45L45 45L45 43L46 43L46 42L48 42L48 43L49 43L49 41L51 41L51 40L53 40L53 39L55 39L55 38L53 38L53 37L52 37L52 34L53 34L53 35L54 35L54 34L53 34L53 33L55 33L55 34L56 34L56 33L55 33L55 32L53 32L53 31L54 31L54 30L53 30L53 31L51 31L51 32L53 32L53 33L51 33L51 34L50 34L50 32L49 32L49 31L48 31L48 28L47 28L47 25L49 25L49 26L51 26L51 25L50 25L50 24L52 24L52 25L53 25L53 27L55 27L55 26L54 26L54 24L52 24L52 23L55 23L55 22L53 22L53 20L52 20L52 21L51 21L51 19L50 19L50 22L49 22L49 23L50 23L50 24L47 24L47 21L46 21L46 20L49 20L49 18L48 18L48 19L46 19L46 18L47 18L47 17L48 17L48 16L49 16L49 15L46 15L46 16L47 16L47 17L46 17L46 18L45 18L45 16L44 16L44 15L45 15L45 14L42 14L42 11L41 11L41 12L40 12L40 13L39 13L39 12L38 12L38 13L33 13L33 11L34 11L34 12L37 12L37 11L38 11L38 10L37 10L37 9L36 9L36 10L35 10L35 9L33 9L33 11L32 11L32 13L31 13L31 14L32 14L32 15L33 15L33 14L35 14L35 15L36 15L36 16L30 16L30 15L25 15L25 14L24 14L24 13L25 13L25 12L27 12L27 11L26 11L26 10L28 10L28 11L29 11L29 12L28 12L28 13L26 13L26 14L28 14L28 13L29 13L29 14L30 14L30 13L29 13L29 12L30 12L30 11L29 11L29 10L28 10L28 9L26 9L26 6L25 6L25 4L26 4L26 3L25 3L25 4L24 4L24 5L22 5L22 6L21 6L21 7L20 7L20 6L19 6L19 7L18 7L18 6L17 6L17 7L18 7L18 8L19 8L19 9L20 9L20 11L19 11L19 10L18 10L18 9L16 9L16 6L15 6L15 5L16 5L16 4L18 4L18 3L17 3L17 2ZM36 3L36 5L33 5L33 6L32 6L32 7L33 7L33 6L34 6L34 7L35 7L35 6L36 6L36 5L37 5L37 3ZM27 5L27 8L30 8L30 5ZM14 6L14 7L13 7L13 9L11 9L11 10L10 10L10 11L11 11L11 12L8 12L8 11L7 11L7 12L8 12L8 14L9 14L9 13L10 13L10 15L9 15L9 17L8 17L8 18L9 18L9 20L10 20L10 22L9 22L9 23L8 23L8 25L10 25L10 26L13 26L13 27L15 27L15 28L13 28L13 30L14 30L14 29L15 29L15 31L12 31L12 34L13 34L13 35L11 35L11 31L10 31L10 32L9 32L9 33L10 33L10 34L9 34L9 36L10 36L10 35L11 35L11 37L12 37L12 38L11 38L11 39L9 39L9 41L8 41L8 39L7 39L7 40L6 40L6 41L5 41L5 43L8 43L8 42L9 42L9 41L10 41L10 42L11 42L11 41L14 41L14 40L12 40L12 39L13 39L13 37L14 37L14 39L16 39L16 41L15 41L15 42L14 42L14 44L15 44L15 43L16 43L16 41L19 41L19 42L20 42L20 45L18 45L18 47L19 47L19 48L20 48L20 49L21 49L21 48L20 48L20 47L21 47L21 46L20 46L20 45L22 45L22 44L21 44L21 43L22 43L22 42L20 42L20 40L18 40L18 39L20 39L20 38L17 38L17 37L20 37L20 36L17 36L17 37L16 37L16 35L19 35L19 34L18 34L18 33L19 33L19 31L20 31L20 29L21 29L21 31L23 31L23 32L24 32L24 33L23 33L23 34L22 34L22 33L21 33L21 32L20 32L20 33L21 33L21 34L20 34L20 35L21 35L21 37L22 37L22 38L21 38L21 39L22 39L22 38L24 38L24 37L25 37L25 35L26 35L26 36L27 36L27 37L28 37L28 38L26 38L26 39L25 39L25 40L24 40L24 39L23 39L23 43L24 43L24 44L25 44L25 45L23 45L23 46L24 46L24 47L23 47L23 50L25 50L25 48L26 48L26 47L25 47L25 45L26 45L26 44L25 44L25 43L24 43L24 42L26 42L26 43L27 43L27 42L26 42L26 41L29 41L29 43L31 43L31 42L30 42L30 41L32 41L32 42L34 42L34 43L33 43L33 44L34 44L34 43L35 43L35 46L33 46L33 47L32 47L32 48L34 48L34 49L33 49L33 50L34 50L34 49L37 49L37 48L34 48L34 47L35 47L35 46L37 46L37 47L38 47L38 48L39 48L39 49L40 49L40 50L41 50L41 49L42 49L42 48L45 48L45 47L42 47L42 46L40 46L40 44L39 44L39 46L37 46L37 44L36 44L36 43L35 43L35 42L36 42L36 41L37 41L37 42L38 42L38 43L39 43L39 42L40 42L40 41L39 41L39 42L38 42L38 41L37 41L37 40L35 40L35 39L38 39L38 40L39 40L39 38L40 38L40 36L41 36L41 35L42 35L42 36L43 36L43 37L42 37L42 38L41 38L41 39L40 39L40 40L41 40L41 39L42 39L42 38L43 38L43 37L44 37L44 38L45 38L45 37L44 37L44 35L45 35L45 36L48 36L48 35L49 35L49 34L48 34L48 33L47 33L47 32L48 32L48 31L47 31L47 30L46 30L46 29L47 29L47 28L46 28L46 27L45 27L45 30L46 30L46 31L42 31L42 30L43 30L43 29L44 29L44 23L45 23L45 25L47 25L47 24L46 24L46 22L45 22L45 21L44 21L44 23L40 23L40 22L43 22L43 21L42 21L42 20L46 20L46 19L44 19L44 18L43 18L43 17L44 17L44 16L43 16L43 15L42 15L42 14L41 14L41 13L40 13L40 14L37 14L37 16L36 16L36 17L37 17L37 18L34 18L34 17L32 17L32 18L34 18L34 19L28 19L28 18L27 18L27 17L28 17L28 16L25 16L25 15L23 15L23 14L22 14L22 15L21 15L21 16L20 16L20 14L19 14L19 13L22 13L22 12L21 12L21 11L22 11L22 10L24 10L24 12L23 12L23 13L24 13L24 12L25 12L25 8L24 8L24 7L25 7L25 6L24 6L24 7L23 7L23 6L22 6L22 7L21 7L21 8L20 8L20 9L22 9L22 10L21 10L21 11L20 11L20 12L19 12L19 13L18 13L18 12L16 12L16 11L15 11L15 12L16 12L16 13L18 13L18 14L19 14L19 15L18 15L18 16L16 16L16 15L17 15L17 14L14 14L14 13L13 13L13 12L14 12L14 11L12 11L12 10L16 10L16 9L14 9L14 8L15 8L15 6ZM28 6L28 7L29 7L29 6ZM22 7L22 9L23 9L23 7ZM48 8L48 9L49 9L49 8ZM51 8L51 9L52 9L52 8ZM53 8L53 9L54 9L54 8ZM55 8L55 10L57 10L57 9L56 9L56 8ZM3 9L3 10L4 10L4 9ZM31 9L31 10L32 10L32 9ZM17 10L17 11L18 11L18 10ZM34 10L34 11L35 11L35 10ZM53 10L53 11L52 11L52 12L53 12L53 11L54 11L54 12L55 12L55 11L54 11L54 10ZM11 12L11 15L10 15L10 18L11 18L11 16L14 16L14 17L12 17L12 18L14 18L14 17L15 17L15 15L14 15L14 14L13 14L13 13L12 13L12 12ZM32 13L32 14L33 14L33 13ZM12 14L12 15L13 15L13 14ZM40 14L40 15L38 15L38 16L37 16L37 17L38 17L38 18L37 18L37 19L34 19L34 20L35 20L35 21L34 21L34 22L33 22L33 23L31 23L31 22L29 22L29 20L28 20L28 19L26 19L26 17L25 17L25 18L24 18L24 20L28 20L28 22L29 22L29 24L28 24L28 23L27 23L27 21L25 21L25 22L26 22L26 23L25 23L25 24L26 24L26 25L25 25L25 26L26 26L26 25L27 25L27 24L28 24L28 25L29 25L29 24L30 24L30 25L32 25L32 26L34 26L34 27L33 27L33 28L32 28L32 27L31 27L31 28L32 28L32 30L35 30L35 31L33 31L33 32L30 32L30 31L25 31L25 34L23 34L23 35L22 35L22 37L24 37L24 35L25 35L25 34L26 34L26 35L27 35L27 36L28 36L28 37L29 37L29 36L30 36L30 38L31 38L31 39L29 39L29 41L30 41L30 40L31 40L31 39L33 39L33 38L34 38L34 39L35 39L35 37L36 37L36 38L39 38L39 37L38 37L38 35L36 35L36 34L39 34L39 33L38 33L38 32L40 32L40 34L42 34L42 35L44 35L44 34L47 34L47 33L45 33L45 32L43 32L43 33L44 33L44 34L42 34L42 33L41 33L41 32L42 32L42 31L41 31L41 32L40 32L40 31L36 31L36 30L39 30L39 29L40 29L40 30L42 30L42 29L43 29L43 28L42 28L42 27L43 27L43 26L41 26L41 25L42 25L42 24L40 24L40 23L39 23L39 21L38 21L38 20L40 20L40 21L41 21L41 20L40 20L40 19L43 19L43 18L39 18L39 17L38 17L38 16L40 16L40 17L42 17L42 16L40 16L40 15L41 15L41 14ZM55 15L55 16L54 16L54 17L53 17L53 18L52 18L52 19L53 19L53 18L54 18L54 17L55 17L55 18L56 18L56 17L55 17L55 16L56 16L56 15ZM19 16L19 17L16 17L16 18L17 18L17 19L18 19L18 20L15 20L15 21L13 21L13 22L10 22L10 23L12 23L12 24L11 24L11 25L12 25L12 24L14 24L14 26L15 26L15 25L16 25L16 26L17 26L17 27L16 27L16 28L17 28L17 29L16 29L16 31L15 31L15 33L13 33L13 34L15 34L15 33L16 33L16 34L17 34L17 33L16 33L16 31L18 31L18 30L17 30L17 29L18 29L18 28L17 28L17 27L18 27L18 26L19 26L19 27L20 27L20 28L19 28L19 29L20 29L20 28L21 28L21 29L22 29L22 30L23 30L23 29L25 29L25 30L26 30L26 27L25 27L25 28L24 28L24 26L23 26L23 29L22 29L22 28L21 28L21 27L22 27L22 25L23 25L23 24L24 24L24 23L23 23L23 22L24 22L24 21L23 21L23 16L21 16L21 17L20 17L20 16ZM21 17L21 18L22 18L22 17ZM29 17L29 18L31 18L31 17ZM5 18L5 19L7 19L7 18ZM18 18L18 19L19 19L19 20L18 20L18 21L17 21L17 22L18 22L18 21L19 21L19 22L20 22L20 23L17 23L17 24L16 24L16 23L15 23L15 22L16 22L16 21L15 21L15 22L13 22L13 23L15 23L15 24L16 24L16 25L19 25L19 26L20 26L20 27L21 27L21 26L20 26L20 24L21 24L21 25L22 25L22 24L21 24L21 23L22 23L22 22L23 22L23 21L22 21L22 19L19 19L19 18ZM38 18L38 19L39 19L39 18ZM11 19L11 20L14 20L14 19ZM19 20L19 21L21 21L21 22L22 22L22 21L21 21L21 20ZM32 20L32 21L33 21L33 20ZM36 20L36 21L37 21L37 22L36 22L36 23L37 23L37 24L34 24L34 23L35 23L35 22L34 22L34 23L33 23L33 25L37 25L37 26L35 26L35 27L34 27L34 28L33 28L33 29L35 29L35 30L36 30L36 29L39 29L39 28L40 28L40 27L41 27L41 26L40 26L40 25L39 25L39 23L38 23L38 21L37 21L37 20ZM1 21L1 22L2 22L2 21ZM6 21L6 22L7 22L7 21ZM50 22L50 23L51 23L51 22ZM30 23L30 24L31 24L31 23ZM37 24L37 25L38 25L38 26L39 26L39 25L38 25L38 24ZM5 27L5 30L8 30L8 27ZM27 27L27 30L30 30L30 27ZM36 27L36 28L39 28L39 27ZM49 27L49 30L52 30L52 27ZM6 28L6 29L7 29L7 28ZM28 28L28 29L29 29L29 28ZM50 28L50 29L51 29L51 28ZM6 31L6 32L7 32L7 31ZM46 31L46 32L47 32L47 31ZM27 32L27 33L26 33L26 34L27 34L27 33L30 33L30 32ZM35 32L35 34L34 34L34 33L33 33L33 34L34 34L34 35L33 35L33 36L34 36L34 37L35 37L35 36L34 36L34 35L35 35L35 34L36 34L36 33L37 33L37 32ZM31 33L31 34L32 34L32 33ZM29 34L29 35L30 35L30 36L31 36L31 38L32 38L32 35L30 35L30 34ZM13 35L13 36L12 36L12 37L13 37L13 36L14 36L14 37L15 37L15 38L16 38L16 37L15 37L15 36L14 36L14 35ZM39 35L39 36L40 36L40 35ZM50 35L50 36L51 36L51 35ZM36 36L36 37L37 37L37 36ZM47 37L47 38L48 38L48 39L49 39L49 40L51 40L51 39L50 39L50 38L52 38L52 37ZM2 39L2 41L3 41L3 39ZM27 39L27 40L28 40L28 39ZM44 39L44 40L46 40L46 41L47 41L47 40L46 40L46 39ZM10 40L10 41L11 41L11 40ZM32 40L32 41L34 41L34 42L35 42L35 40ZM6 41L6 42L8 42L8 41ZM17 42L17 43L18 43L18 42ZM50 42L50 43L51 43L51 42ZM6 44L6 45L7 45L7 44ZM27 44L27 45L29 45L29 44ZM47 45L47 46L48 46L48 45ZM14 46L14 48L13 48L13 49L14 49L14 48L15 48L15 46ZM19 46L19 47L20 47L20 46ZM39 46L39 48L40 48L40 49L41 49L41 48L42 48L42 47L41 47L41 48L40 48L40 46ZM28 47L28 48L30 48L30 47ZM27 49L27 52L30 52L30 49ZM49 49L49 52L52 52L52 49ZM11 50L11 51L12 51L12 50ZM28 50L28 51L29 51L29 50ZM46 50L46 51L45 51L45 52L46 52L46 51L47 51L47 50ZM50 50L50 51L51 51L51 50ZM8 52L8 57L10 57L10 53L12 53L12 52L10 52L10 53L9 53L9 52ZM25 53L25 54L26 54L26 53ZM29 53L29 54L30 54L30 53ZM38 53L38 55L39 55L39 53ZM49 53L49 55L50 55L50 54L51 54L51 55L53 55L53 54L51 54L51 53ZM27 55L27 56L28 56L28 55ZM41 55L41 56L42 56L42 57L44 57L44 56L43 56L43 55ZM0 0L0 7L7 7L7 0ZM1 1L1 6L6 6L6 1ZM2 2L2 5L5 5L5 2ZM50 0L50 7L57 7L57 0ZM51 1L51 6L56 6L56 1ZM52 2L52 5L55 5L55 2ZM0 50L0 57L7 57L7 50ZM1 51L1 56L6 56L6 51ZM2 52L2 55L5 55L5 52Z" fill="#000000"/></g></g></svg>
