<?xml version="1.0" encoding="UTF-8"?>
<svg xmlns="http://www.w3.org/2000/svg" version="1.1" width="300" height="300" viewBox="0 0 300 300"><rect x="0" y="0" width="300" height="300" fill="#ffffff"/><g transform="scale(4.918)"><g transform="translate(2,2)"><path fill-rule="evenodd" d="M13 0L13 1L15 1L15 2L13 2L13 3L12 3L12 1L11 1L11 2L10 2L10 3L8 3L8 4L10 4L10 5L11 5L11 6L10 6L10 7L9 7L9 5L8 5L8 7L9 7L9 8L6 8L6 9L5 9L5 8L0 8L0 13L2 13L2 12L3 12L3 14L2 14L2 15L4 15L4 14L6 14L6 15L7 15L7 16L5 16L5 18L4 18L4 19L2 19L2 18L3 18L3 17L2 17L2 18L0 18L0 19L2 19L2 20L0 20L0 23L1 23L1 21L2 21L2 20L3 20L3 21L4 21L4 20L5 20L5 21L7 21L7 22L5 22L5 23L3 23L3 22L2 22L2 23L3 23L3 24L2 24L2 25L3 25L3 26L1 26L1 24L0 24L0 27L1 27L1 28L0 28L0 31L1 31L1 34L4 34L4 35L3 35L3 36L2 36L2 35L0 35L0 36L2 36L2 37L3 37L3 39L2 39L2 38L1 38L1 37L0 37L0 38L1 38L1 39L0 39L0 42L1 42L1 44L0 44L0 48L5 48L5 47L9 47L9 48L8 48L8 51L9 51L9 52L8 52L8 57L11 57L11 56L13 56L13 57L16 57L16 55L15 55L15 56L14 56L14 54L12 54L12 55L11 55L11 53L13 53L13 52L18 52L18 53L19 53L19 54L18 54L18 55L19 55L19 56L17 56L17 57L19 57L19 56L20 56L20 57L21 57L21 56L23 56L23 57L24 57L24 56L28 56L28 55L25 55L25 54L27 54L27 53L28 53L28 54L29 54L29 55L30 55L30 56L29 56L29 57L31 57L31 55L32 55L32 56L33 56L33 54L34 54L34 56L35 56L35 57L38 57L38 56L35 56L35 54L36 54L36 55L38 55L38 53L39 53L39 55L40 55L40 52L41 52L41 53L42 53L42 54L41 54L41 56L42 56L42 57L44 57L44 56L42 56L42 54L43 54L43 53L44 53L44 54L45 54L45 56L48 56L48 57L49 57L49 56L50 56L50 55L51 55L51 57L52 57L52 56L53 56L53 57L54 57L54 56L55 56L55 57L56 57L56 56L55 56L55 55L51 55L51 54L53 54L53 53L54 53L54 54L55 54L55 53L54 53L54 52L55 52L55 50L57 50L57 48L56 48L56 46L57 46L57 45L56 45L56 43L55 43L55 42L57 42L57 41L54 41L54 40L55 40L55 39L57 39L57 37L56 37L56 36L55 36L55 35L56 35L56 34L57 34L57 33L56 33L56 32L57 32L57 31L56 31L56 30L57 30L57 29L56 29L56 26L57 26L57 25L54 25L54 24L55 24L55 23L56 23L56 24L57 24L57 23L56 23L56 22L57 22L57 21L56 21L56 19L55 19L55 18L57 18L57 15L56 15L56 14L57 14L57 13L56 13L56 12L55 12L55 11L56 11L56 10L57 10L57 9L56 9L56 8L55 8L55 9L56 9L56 10L55 10L55 11L54 11L54 10L52 10L52 8L51 8L51 10L49 10L49 9L50 9L50 8L49 8L49 6L48 6L48 7L47 7L47 5L48 5L48 0L44 0L44 1L47 1L47 2L42 2L42 1L43 1L43 0L42 0L42 1L41 1L41 2L39 2L39 1L40 1L40 0L39 0L39 1L36 1L36 2L39 2L39 3L38 3L38 4L37 4L37 3L36 3L36 5L35 5L35 6L34 6L34 7L33 7L33 6L32 6L32 7L33 7L33 8L31 8L31 4L32 4L32 3L33 3L33 4L34 4L34 3L35 3L35 1L33 1L33 0L32 0L32 1L31 1L31 0L30 0L30 1L29 1L29 0L28 0L28 1L27 1L27 2L26 2L26 0L23 0L23 2L24 2L24 4L21 4L21 5L24 5L24 4L25 4L25 6L24 6L24 7L23 7L23 6L22 6L22 7L21 7L21 6L20 6L20 5L19 5L19 6L18 6L18 7L17 7L17 5L18 5L18 4L20 4L20 3L18 3L18 4L16 4L16 2L19 2L19 1L20 1L20 2L21 2L21 3L22 3L22 2L21 2L21 1L22 1L22 0L21 0L21 1L20 1L20 0L19 0L19 1L16 1L16 0ZM8 1L8 2L9 2L9 1ZM28 1L28 2L29 2L29 1ZM30 1L30 2L31 2L31 1ZM32 1L32 2L33 2L33 3L34 3L34 2L33 2L33 1ZM41 2L41 3L40 3L40 4L38 4L38 5L36 5L36 6L35 6L35 8L37 8L37 9L38 9L38 10L40 10L40 11L41 11L41 12L38 12L38 13L33 13L33 12L31 12L31 14L32 14L32 15L33 15L33 16L30 16L30 15L26 15L26 14L28 14L28 13L29 13L29 14L30 14L30 13L29 13L29 12L30 12L30 10L29 10L29 9L26 9L26 6L25 6L25 7L24 7L24 9L25 9L25 10L24 10L24 13L23 13L23 10L22 10L22 9L23 9L23 8L21 8L21 7L20 7L20 6L19 6L19 9L20 9L20 11L19 11L19 10L18 10L18 9L17 9L17 8L16 8L16 6L15 6L15 7L14 7L14 6L13 6L13 7L12 7L12 6L11 6L11 7L12 7L12 8L10 8L10 9L6 9L6 10L10 10L10 11L12 11L12 12L9 12L9 11L8 11L8 13L9 13L9 15L8 15L8 16L9 16L9 17L10 17L10 18L8 18L8 17L6 17L6 18L5 18L5 20L7 20L7 21L9 21L9 20L10 20L10 23L6 23L6 24L12 24L12 25L10 25L10 26L9 26L9 25L6 25L6 26L9 26L9 27L10 27L10 28L11 28L11 27L13 27L13 28L12 28L12 29L11 29L11 30L12 30L12 29L13 29L13 33L12 33L12 34L13 34L13 36L14 36L14 38L16 38L16 37L18 37L18 38L17 38L17 39L18 39L18 38L20 38L20 39L19 39L19 41L18 41L18 43L15 43L15 42L17 42L17 40L16 40L16 39L15 39L15 40L14 40L14 41L13 41L13 42L14 42L14 43L13 43L13 44L12 44L12 43L10 43L10 42L9 42L9 39L10 39L10 40L11 40L11 42L12 42L12 39L10 39L10 38L12 38L12 37L11 37L11 36L12 36L12 35L11 35L11 34L10 34L10 33L11 33L11 31L6 31L6 32L4 32L4 34L5 34L5 33L6 33L6 34L8 34L8 33L9 33L9 34L10 34L10 35L4 35L4 39L3 39L3 40L2 40L2 39L1 39L1 41L4 41L4 42L5 42L5 43L4 43L4 44L5 44L5 45L6 45L6 46L9 46L9 45L10 45L10 44L11 44L11 45L13 45L13 46L11 46L11 47L10 47L10 50L9 50L9 51L12 51L12 52L13 52L13 51L14 51L14 50L15 50L15 49L14 49L14 45L15 45L15 44L18 44L18 45L16 45L16 46L17 46L17 47L16 47L16 48L17 48L17 47L18 47L18 48L19 48L19 49L16 49L16 51L17 51L17 50L21 50L21 51L23 51L23 52L22 52L22 53L21 53L21 52L19 52L19 53L21 53L21 54L22 54L22 55L23 55L23 56L24 56L24 55L23 55L23 54L24 54L24 53L23 53L23 52L24 52L24 51L25 51L25 53L26 53L26 51L25 51L25 50L26 50L26 49L25 49L25 50L23 50L23 48L22 48L22 47L23 47L23 45L25 45L25 48L27 48L27 47L26 47L26 46L27 46L27 45L28 45L28 47L29 47L29 48L31 48L31 49L33 49L33 50L31 50L31 52L32 52L32 54L33 54L33 53L34 53L34 54L35 54L35 53L36 53L36 52L37 52L37 51L38 51L38 50L39 50L39 52L40 52L40 51L41 51L41 50L42 50L42 51L44 51L44 53L45 53L45 54L46 54L46 55L48 55L48 54L49 54L49 55L50 55L50 54L51 54L51 53L48 53L48 52L47 52L47 51L48 51L48 48L50 48L50 47L51 47L51 46L50 46L50 47L49 47L49 45L48 45L48 44L47 44L47 45L46 45L46 46L47 46L47 47L45 47L45 48L42 48L42 47L44 47L44 45L45 45L45 44L44 44L44 43L46 43L46 42L48 42L48 43L49 43L49 41L51 41L51 42L50 42L50 43L51 43L51 42L53 42L53 43L52 43L52 44L50 44L50 45L52 45L52 46L53 46L53 47L52 47L52 48L53 48L53 49L56 49L56 48L53 48L53 47L55 47L55 46L56 46L56 45L55 45L55 44L54 44L54 45L52 45L52 44L53 44L53 43L54 43L54 41L51 41L51 40L49 40L49 39L51 39L51 38L53 38L53 39L52 39L52 40L54 40L54 39L55 39L55 38L54 38L54 37L55 37L55 36L54 36L54 37L53 37L53 36L52 36L52 34L53 34L53 35L54 35L54 34L53 34L53 33L51 33L51 34L50 34L50 32L49 32L49 31L48 31L48 30L47 30L47 29L48 29L48 26L47 26L47 25L49 25L49 26L51 26L51 25L50 25L50 24L52 24L52 25L53 25L53 27L55 27L55 26L54 26L54 25L53 25L53 24L52 24L52 23L53 23L53 22L55 22L55 20L54 20L54 21L53 21L53 20L52 20L52 21L51 21L51 19L50 19L50 22L49 22L49 23L50 23L50 24L47 24L47 25L46 25L46 26L44 26L44 25L45 25L45 24L46 24L46 23L47 23L47 21L46 21L46 20L49 20L49 19L48 19L48 18L47 18L47 17L46 17L46 16L48 16L48 17L49 17L49 16L50 16L50 18L52 18L52 19L53 19L53 18L54 18L54 17L55 17L55 16L56 16L56 15L55 15L55 16L50 16L50 15L46 15L46 16L44 16L44 14L45 14L45 12L46 12L46 14L47 14L47 13L49 13L49 14L51 14L51 15L53 15L53 14L54 14L54 13L55 13L55 14L56 14L56 13L55 13L55 12L54 12L54 11L53 11L53 12L52 12L52 11L49 11L49 10L47 10L47 9L49 9L49 8L45 8L45 7L46 7L46 6L45 6L45 5L44 5L44 4L46 4L46 5L47 5L47 3L42 3L42 2ZM11 3L11 5L14 5L14 4L15 4L15 5L16 5L16 4L15 4L15 3L14 3L14 4L12 4L12 3ZM25 3L25 4L26 4L26 3ZM27 3L27 4L30 4L30 3ZM41 3L41 4L40 4L40 5L41 5L41 6L40 6L40 7L41 7L41 9L40 9L40 10L41 10L41 11L42 11L42 14L41 14L41 13L40 13L40 14L33 14L33 15L35 15L35 16L33 16L33 17L35 17L35 18L33 18L33 19L28 19L28 18L27 18L27 19L28 19L28 20L31 20L31 21L30 21L30 22L29 22L29 21L28 21L28 22L27 22L27 24L30 24L30 22L31 22L31 23L33 23L33 22L34 22L34 23L35 23L35 24L36 24L36 25L37 25L37 26L34 26L34 24L33 24L33 26L32 26L32 25L26 25L26 24L25 24L25 23L26 23L26 22L25 22L25 21L27 21L27 20L25 20L25 17L28 17L28 16L25 16L25 13L28 13L28 12L29 12L29 11L27 11L27 10L26 10L26 11L27 11L27 12L25 12L25 13L24 13L24 14L23 14L23 15L24 15L24 17L22 17L22 15L20 15L20 13L22 13L22 12L20 12L20 13L18 13L18 12L16 12L16 11L15 11L15 12L16 12L16 13L18 13L18 14L19 14L19 15L18 15L18 16L16 16L16 15L17 15L17 14L15 14L15 15L14 15L14 13L13 13L13 15L12 15L12 18L13 18L13 19L12 19L12 21L11 21L11 22L13 22L13 21L15 21L15 22L14 22L14 24L13 24L13 23L12 23L12 24L13 24L13 25L12 25L12 26L13 26L13 25L14 25L14 24L16 24L16 25L15 25L15 26L14 26L14 27L15 27L15 26L16 26L16 25L18 25L18 27L17 27L17 28L15 28L15 30L14 30L14 31L16 31L16 33L15 33L15 35L14 35L14 36L15 36L15 37L16 37L16 35L17 35L17 34L18 34L18 33L19 33L19 29L21 29L21 30L22 30L22 31L20 31L20 33L21 33L21 34L20 34L20 35L21 35L21 37L22 37L22 40L24 40L24 41L21 41L21 40L20 40L20 41L19 41L19 42L20 42L20 43L19 43L19 45L18 45L18 47L19 47L19 48L20 48L20 49L21 49L21 50L22 50L22 49L21 49L21 48L20 48L20 46L19 46L19 45L22 45L22 44L20 44L20 43L22 43L22 42L23 42L23 44L25 44L25 45L26 45L26 44L25 44L25 42L26 42L26 43L29 43L29 44L28 44L28 45L29 45L29 47L31 47L31 48L33 48L33 49L34 49L34 48L33 48L33 47L35 47L35 48L36 48L36 49L35 49L35 50L33 50L33 51L32 51L32 52L33 52L33 51L35 51L35 52L36 52L36 51L37 51L37 50L38 50L38 49L39 49L39 50L41 50L41 49L40 49L40 48L41 48L41 47L42 47L42 46L43 46L43 45L44 45L44 44L43 44L43 43L44 43L44 40L43 40L43 41L40 41L40 42L39 42L39 44L38 44L38 43L37 43L37 42L38 42L38 41L37 41L37 40L35 40L35 41L36 41L36 42L34 42L34 39L37 39L37 38L38 38L38 36L39 36L39 38L40 38L40 36L41 36L41 35L42 35L42 34L43 34L43 32L46 32L46 31L47 31L47 32L48 32L48 31L47 31L47 30L46 30L46 29L47 29L47 28L46 28L46 27L47 27L47 26L46 26L46 27L44 27L44 26L43 26L43 25L44 25L44 24L45 24L45 23L46 23L46 22L45 22L45 21L44 21L44 23L42 23L42 22L43 22L43 21L42 21L42 20L46 20L46 19L47 19L47 18L46 18L46 17L44 17L44 16L43 16L43 15L42 15L42 14L43 14L43 13L44 13L44 12L43 12L43 11L42 11L42 10L44 10L44 11L46 11L46 10L44 10L44 7L45 7L45 6L44 6L44 7L43 7L43 6L42 6L42 5L43 5L43 4L42 4L42 3ZM41 4L41 5L42 5L42 4ZM27 5L27 8L30 8L30 5ZM38 5L38 7L39 7L39 5ZM28 6L28 7L29 7L29 6ZM36 6L36 7L37 7L37 6ZM41 6L41 7L42 7L42 6ZM12 8L12 9L10 9L10 10L14 10L14 8ZM15 8L15 9L16 9L16 8ZM20 8L20 9L21 9L21 8ZM38 8L38 9L39 9L39 8ZM53 8L53 9L54 9L54 8ZM3 9L3 10L2 10L2 11L1 11L1 12L2 12L2 11L3 11L3 12L4 12L4 13L6 13L6 14L7 14L7 13L6 13L6 12L7 12L7 11L6 11L6 12L5 12L5 9ZM31 9L31 10L32 10L32 9ZM34 9L34 10L33 10L33 11L34 11L34 12L37 12L37 10L36 10L36 9ZM17 10L17 11L18 11L18 10ZM21 10L21 11L22 11L22 10ZM34 10L34 11L35 11L35 10ZM13 11L13 12L14 12L14 11ZM48 11L48 12L49 12L49 11ZM50 12L50 13L51 13L51 14L52 14L52 13L51 13L51 12ZM10 14L10 15L11 15L11 14ZM40 14L40 15L41 15L41 14ZM0 15L0 17L1 17L1 15ZM13 15L13 16L14 16L14 17L13 17L13 18L15 18L15 16L14 16L14 15ZM19 15L19 17L16 17L16 18L17 18L17 19L18 19L18 20L15 20L15 21L16 21L16 22L15 22L15 23L16 23L16 24L17 24L17 21L18 21L18 22L19 22L19 23L20 23L20 22L19 22L19 21L21 21L21 22L22 22L22 23L21 23L21 24L19 24L19 25L20 25L20 26L21 26L21 27L22 27L22 26L23 26L23 25L24 25L24 23L23 23L23 22L24 22L24 21L23 21L23 20L22 20L22 21L21 21L21 20L19 20L19 19L21 19L21 17L20 17L20 15ZM36 15L36 16L35 16L35 17L36 17L36 16L39 16L39 17L38 17L38 18L37 18L37 19L34 19L34 20L32 20L32 21L34 21L34 22L35 22L35 23L36 23L36 24L37 24L37 25L38 25L38 26L37 26L37 27L35 27L35 28L38 28L38 30L36 30L36 31L33 31L33 30L35 30L35 29L33 29L33 28L34 28L34 26L33 26L33 27L31 27L31 28L32 28L32 29L31 29L31 30L32 30L32 31L33 31L33 32L31 32L31 31L28 31L28 32L30 32L30 33L27 33L27 31L25 31L25 30L26 30L26 27L25 27L25 26L26 26L26 25L25 25L25 26L24 26L24 27L25 27L25 28L24 28L24 29L22 29L22 28L21 28L21 29L22 29L22 30L24 30L24 31L23 31L23 32L21 32L21 33L22 33L22 34L23 34L23 35L22 35L22 37L24 37L24 38L23 38L23 39L24 39L24 40L25 40L25 39L26 39L26 37L27 37L27 38L28 38L28 37L29 37L29 36L30 36L30 38L31 38L31 39L29 39L29 40L28 40L28 39L27 39L27 40L28 40L28 41L26 41L26 42L29 42L29 43L30 43L30 44L32 44L32 45L31 45L31 47L33 47L33 46L35 46L35 47L36 47L36 48L37 48L37 49L38 49L38 48L40 48L40 47L37 47L37 46L42 46L42 45L43 45L43 44L41 44L41 43L43 43L43 42L40 42L40 44L39 44L39 45L38 45L38 44L37 44L37 43L34 43L34 42L32 42L32 41L33 41L33 40L32 40L32 41L31 41L31 43L30 43L30 41L29 41L29 40L31 40L31 39L34 39L34 38L35 38L35 37L36 37L36 38L37 38L37 37L36 37L36 36L38 36L38 35L36 35L36 33L35 33L35 32L37 32L37 31L38 31L38 33L37 33L37 34L40 34L40 35L39 35L39 36L40 36L40 35L41 35L41 34L42 34L42 33L41 33L41 32L39 32L39 31L40 31L40 29L41 29L41 30L42 30L42 31L43 31L43 30L45 30L45 31L46 31L46 30L45 30L45 28L42 28L42 27L43 27L43 26L42 26L42 27L41 27L41 26L39 26L39 25L42 25L42 23L41 23L41 20L42 20L42 19L46 19L46 18L44 18L44 17L43 17L43 16L39 16L39 15ZM29 17L29 18L31 18L31 17ZM39 17L39 18L38 18L38 21L37 21L37 20L36 20L36 21L37 21L37 22L36 22L36 23L37 23L37 24L38 24L38 25L39 25L39 24L38 24L38 21L40 21L40 20L41 20L41 19L40 19L40 20L39 20L39 18L40 18L40 17ZM41 17L41 18L43 18L43 17ZM52 17L52 18L53 18L53 17ZM6 18L6 19L7 19L7 18ZM10 18L10 19L11 19L11 18ZM18 18L18 19L19 19L19 18ZM22 18L22 19L23 19L23 18ZM8 19L8 20L9 20L9 19ZM13 19L13 20L14 20L14 19ZM18 20L18 21L19 21L19 20ZM34 20L34 21L35 21L35 20ZM22 21L22 22L23 22L23 21ZM39 22L39 23L40 23L40 24L41 24L41 23L40 23L40 22ZM50 22L50 23L51 23L51 22ZM22 23L22 24L23 24L23 23ZM4 24L4 25L5 25L5 24ZM21 25L21 26L22 26L22 25ZM3 26L3 27L4 27L4 26ZM38 26L38 27L39 27L39 26ZM5 27L5 30L8 30L8 27ZM19 27L19 28L20 28L20 27ZM27 27L27 30L30 30L30 27ZM40 27L40 28L39 28L39 29L40 29L40 28L41 28L41 27ZM49 27L49 30L52 30L52 27ZM1 28L1 29L3 29L3 28ZM6 28L6 29L7 29L7 28ZM17 28L17 29L16 29L16 31L18 31L18 30L17 30L17 29L18 29L18 28ZM28 28L28 29L29 29L29 28ZM50 28L50 29L51 29L51 28ZM54 28L54 29L55 29L55 30L56 30L56 29L55 29L55 28ZM24 29L24 30L25 30L25 29ZM42 29L42 30L43 30L43 29ZM1 30L1 31L2 31L2 32L3 32L3 31L4 31L4 30ZM24 31L24 33L23 33L23 34L25 34L25 35L24 35L24 37L26 37L26 36L25 36L25 35L27 35L27 33L26 33L26 32L25 32L25 31ZM52 31L52 32L54 32L54 33L55 33L55 34L56 34L56 33L55 33L55 32L54 32L54 31ZM6 32L6 33L7 33L7 32ZM9 32L9 33L10 33L10 32ZM33 32L33 34L32 34L32 33L31 33L31 34L32 34L32 35L30 35L30 34L29 34L29 35L30 35L30 36L31 36L31 38L32 38L32 35L33 35L33 37L34 37L34 36L35 36L35 34L34 34L34 32ZM13 33L13 34L14 34L14 33ZM16 33L16 34L17 34L17 33ZM25 33L25 34L26 34L26 33ZM40 33L40 34L41 34L41 33ZM47 33L47 34L45 34L45 36L47 36L47 35L49 35L49 34L48 34L48 33ZM33 34L33 35L34 35L34 34ZM10 35L10 36L8 36L8 38L5 38L5 40L4 40L4 41L5 41L5 42L6 42L6 43L5 43L5 44L6 44L6 45L7 45L7 44L6 44L6 43L9 43L9 44L8 44L8 45L9 45L9 44L10 44L10 43L9 43L9 42L8 42L8 41L7 41L7 40L8 40L8 39L9 39L9 37L10 37L10 36L11 36L11 35ZM18 35L18 37L20 37L20 36L19 36L19 35ZM43 35L43 36L42 36L42 37L41 37L41 39L42 39L42 38L43 38L43 37L44 37L44 38L45 38L45 39L46 39L46 38L45 38L45 37L44 37L44 35ZM50 35L50 36L51 36L51 35ZM5 36L5 37L7 37L7 36ZM27 36L27 37L28 37L28 36ZM48 37L48 39L49 39L49 38L51 38L51 37ZM6 39L6 40L5 40L5 41L6 41L6 42L7 42L7 41L6 41L6 40L7 40L7 39ZM38 39L38 40L40 40L40 39ZM20 41L20 42L21 42L21 41ZM2 42L2 43L3 43L3 42ZM14 43L14 44L13 44L13 45L14 45L14 44L15 44L15 43ZM32 43L32 44L34 44L34 43ZM2 44L2 46L1 46L1 47L2 47L2 46L3 46L3 47L5 47L5 46L3 46L3 44ZM35 44L35 45L37 45L37 44ZM32 45L32 46L33 46L33 45ZM47 45L47 46L48 46L48 45ZM54 45L54 46L55 46L55 45ZM21 46L21 47L22 47L22 46ZM12 47L12 48L13 48L13 47ZM6 48L6 49L7 49L7 48ZM45 48L45 49L47 49L47 48ZM11 49L11 50L12 50L12 51L13 51L13 49ZM27 49L27 52L30 52L30 49ZM42 49L42 50L44 50L44 49ZM49 49L49 52L52 52L52 49ZM28 50L28 51L29 51L29 50ZM35 50L35 51L36 51L36 50ZM45 50L45 51L47 51L47 50ZM50 50L50 51L51 51L51 50ZM56 51L56 52L57 52L57 51ZM9 52L9 54L10 54L10 53L11 53L11 52ZM42 52L42 53L43 53L43 52ZM45 52L45 53L47 53L47 54L48 54L48 53L47 53L47 52ZM15 53L15 54L16 54L16 53ZM22 53L22 54L23 54L23 53ZM29 53L29 54L30 54L30 53ZM19 54L19 55L20 55L20 54ZM0 0L0 7L7 7L7 0ZM1 1L1 6L6 6L6 1ZM2 2L2 5L5 5L5 2ZM50 0L50 7L57 7L57 0ZM51 1L51 6L56 6L56 1ZM52 2L52 5L55 5L55 2ZM0 50L0 57L7 57L7 50ZM1 51L1 56L6 56L6 51ZM2 52L2 55L5 55L5 52Z" fill="#000000"/></g></g></svg>
