<?xml version="1.0" encoding="UTF-8"?>
<svg xmlns="http://www.w3.org/2000/svg" version="1.1" width="300" height="300" viewBox="0 0 300 300"><rect x="0" y="0" width="300" height="300" fill="#ffffff"/><g transform="scale(4.918)"><g transform="translate(2,2)"><path fill-rule="evenodd" d="M9 0L9 1L8 1L8 2L9 2L9 3L8 3L8 4L12 4L12 7L11 7L11 5L8 5L8 7L9 7L9 6L10 6L10 7L11 7L11 10L12 10L12 9L13 9L13 8L12 8L12 7L13 7L13 5L14 5L14 7L15 7L15 6L16 6L16 8L17 8L17 9L18 9L18 10L17 10L17 11L18 11L18 10L19 10L19 13L18 13L18 12L16 12L16 11L15 11L15 14L14 14L14 13L13 13L13 12L14 12L14 11L13 11L13 12L12 12L12 11L10 11L10 13L9 13L9 11L8 11L8 10L9 10L9 9L10 9L10 8L6 8L6 9L8 9L8 10L5 10L5 8L0 8L0 10L1 10L1 11L0 11L0 16L1 16L1 18L2 18L2 19L1 19L1 22L2 22L2 24L1 24L1 23L0 23L0 27L1 27L1 28L3 28L3 30L2 30L2 29L1 29L1 30L2 30L2 31L0 31L0 32L2 32L2 35L1 35L1 34L0 34L0 35L1 35L1 38L0 38L0 39L1 39L1 40L2 40L2 42L0 42L0 43L2 43L2 47L1 47L1 46L0 46L0 48L5 48L5 47L7 47L7 48L6 48L6 49L7 49L7 48L8 48L8 47L7 47L7 46L5 46L5 45L4 45L4 44L3 44L3 43L5 43L5 44L6 44L6 45L7 45L7 44L6 44L6 43L7 43L7 42L6 42L6 41L7 41L7 40L11 40L11 41L10 41L10 43L11 43L11 44L10 44L10 45L9 45L9 47L10 47L10 45L13 45L13 46L12 46L12 47L14 47L14 46L16 46L16 47L17 47L17 48L13 48L13 49L14 49L14 50L12 50L12 48L9 48L9 49L8 49L8 51L10 51L10 50L11 50L11 52L13 52L13 51L14 51L14 52L16 52L16 51L17 51L17 50L18 50L18 51L19 51L19 52L18 52L18 53L17 53L17 54L18 54L18 55L17 55L17 57L21 57L21 53L22 53L22 56L23 56L23 55L24 55L24 57L26 57L26 56L28 56L28 55L27 55L27 53L28 53L28 54L29 54L29 55L30 55L30 57L32 57L32 56L31 56L31 55L33 55L33 57L34 57L34 56L35 56L35 57L37 57L37 56L35 56L35 55L38 55L38 53L39 53L39 55L40 55L40 52L41 52L41 51L40 51L40 50L38 50L38 48L36 48L36 47L37 47L37 46L38 46L38 45L40 45L40 44L43 44L43 45L42 45L42 46L41 46L41 47L40 47L40 46L39 46L39 47L40 47L40 48L39 48L39 49L40 49L40 48L41 48L41 47L42 47L42 48L43 48L43 49L41 49L41 50L43 50L43 53L42 53L42 54L41 54L41 57L42 57L42 56L43 56L43 57L44 57L44 56L46 56L46 57L47 57L47 55L49 55L49 54L48 54L48 53L50 53L50 55L51 55L51 56L50 56L50 57L52 57L52 56L53 56L53 57L56 57L56 56L55 56L55 55L51 55L51 54L53 54L53 53L54 53L54 54L55 54L55 53L54 53L54 52L55 52L55 50L57 50L57 49L54 49L54 48L57 48L57 47L56 47L56 46L57 46L57 45L56 45L56 44L55 44L55 43L56 43L56 41L54 41L54 43L53 43L53 44L52 44L52 45L51 45L51 47L49 47L49 48L48 48L48 51L47 51L47 50L46 50L46 47L47 47L47 46L49 46L49 45L50 45L50 44L51 44L51 43L50 43L50 42L51 42L51 41L49 41L49 40L48 40L48 41L47 41L47 40L46 40L46 38L45 38L45 37L44 37L44 34L46 34L46 35L45 35L45 36L46 36L46 37L47 37L47 36L46 36L46 35L49 35L49 37L50 37L50 36L51 36L51 35L49 35L49 34L48 34L48 33L47 33L47 34L46 34L46 33L44 33L44 34L43 34L43 32L48 32L48 31L50 31L50 32L51 32L51 33L50 33L50 34L51 34L51 33L53 33L53 32L56 32L56 34L55 34L55 33L54 33L54 34L52 34L52 37L51 37L51 38L52 38L52 37L54 37L54 38L55 38L55 39L53 39L53 40L52 40L52 39L51 39L51 40L52 40L52 41L53 41L53 40L55 40L55 39L57 39L57 37L56 37L56 36L57 36L57 35L56 35L56 34L57 34L57 32L56 32L56 30L57 30L57 29L56 29L56 28L57 28L57 27L56 27L56 26L57 26L57 25L56 25L56 24L57 24L57 23L56 23L56 22L57 22L57 21L54 21L54 23L52 23L52 22L53 22L53 21L51 21L51 22L50 22L50 19L51 19L51 20L55 20L55 19L56 19L56 20L57 20L57 19L56 19L56 18L57 18L57 17L56 17L56 16L57 16L57 15L56 15L56 14L57 14L57 13L56 13L56 12L57 12L57 11L56 11L56 10L57 10L57 9L56 9L56 8L55 8L55 11L54 11L54 10L53 10L53 9L54 9L54 8L53 8L53 9L52 9L52 8L51 8L51 9L52 9L52 10L49 10L49 9L50 9L50 8L49 8L49 6L48 6L48 7L47 7L47 5L48 5L48 0L41 0L41 1L37 1L37 0L35 0L35 1L34 1L34 0L29 0L29 1L28 1L28 3L27 3L27 2L25 2L25 1L26 1L26 0L24 0L24 1L23 1L23 0L21 0L21 1L23 1L23 2L17 2L17 1L16 1L16 0L14 0L14 1L15 1L15 2L14 2L14 3L10 3L10 2L9 2L9 1L11 1L11 2L13 2L13 1L11 1L11 0ZM29 1L29 2L30 2L30 3L28 3L28 4L30 4L30 3L31 3L31 1ZM32 1L32 2L33 2L33 3L32 3L32 4L31 4L31 7L32 7L32 6L33 6L33 7L34 7L34 6L33 6L33 5L36 5L36 6L35 6L35 8L31 8L31 9L33 9L33 10L32 10L32 13L31 13L31 14L30 14L30 13L29 13L29 12L28 12L28 13L25 13L25 12L27 12L27 11L26 11L26 10L28 10L28 11L30 11L30 12L31 12L31 10L30 10L30 9L26 9L26 6L25 6L25 4L26 4L26 3L25 3L25 2L23 2L23 3L20 3L20 4L17 4L17 3L16 3L16 4L15 4L15 3L14 3L14 4L15 4L15 5L16 5L16 4L17 4L17 5L20 5L20 6L19 6L19 9L20 9L20 12L22 12L22 13L19 13L19 14L22 14L22 16L21 16L21 15L20 15L20 16L19 16L19 15L18 15L18 13L16 13L16 15L15 15L15 16L13 16L13 15L14 15L14 14L12 14L12 13L11 13L11 14L9 14L9 13L8 13L8 11L6 11L6 12L7 12L7 13L5 13L5 11L4 11L4 12L3 12L3 9L2 9L2 13L4 13L4 14L5 14L5 15L6 15L6 16L7 16L7 17L6 17L6 18L8 18L8 20L7 20L7 19L6 19L6 20L5 20L5 18L4 18L4 19L3 19L3 20L5 20L5 22L4 22L4 21L2 21L2 22L4 22L4 25L3 25L3 24L2 24L2 25L1 25L1 27L2 27L2 26L3 26L3 28L4 28L4 25L5 25L5 26L7 26L7 25L10 25L10 28L9 28L9 30L10 30L10 31L11 31L11 32L10 32L10 33L8 33L8 31L5 31L5 32L4 32L4 33L3 33L3 35L2 35L2 38L1 38L1 39L3 39L3 41L4 41L4 42L5 42L5 43L6 43L6 42L5 42L5 40L7 40L7 39L8 39L8 37L10 37L10 35L11 35L11 37L12 37L12 38L11 38L11 40L12 40L12 38L13 38L13 37L14 37L14 36L15 36L15 35L14 35L14 34L15 34L15 33L14 33L14 34L12 34L12 35L11 35L11 34L10 34L10 33L11 33L11 32L12 32L12 33L13 33L13 32L15 32L15 30L14 30L14 29L15 29L15 28L17 28L17 29L16 29L16 30L17 30L17 31L16 31L16 32L18 32L18 31L20 31L20 32L19 32L19 33L16 33L16 35L17 35L17 34L19 34L19 35L20 35L20 34L21 34L21 33L22 33L22 36L20 36L20 37L18 37L18 36L16 36L16 37L15 37L15 38L16 38L16 37L18 37L18 38L20 38L20 39L17 39L17 40L19 40L19 41L20 41L20 42L18 42L18 43L17 43L17 41L15 41L15 43L17 43L17 44L18 44L18 45L16 45L16 46L17 46L17 47L18 47L18 45L20 45L20 46L19 46L19 49L18 49L18 50L19 50L19 49L20 49L20 50L21 50L21 51L23 51L23 52L22 52L22 53L23 53L23 54L24 54L24 53L23 53L23 52L24 52L24 51L25 51L25 53L26 53L26 46L27 46L27 47L29 47L29 46L30 46L30 45L28 45L28 44L29 44L29 43L30 43L30 44L32 44L32 45L31 45L31 47L33 47L33 46L35 46L35 47L36 47L36 46L35 46L35 44L36 44L36 43L37 43L37 44L39 44L39 42L41 42L41 40L42 40L42 41L43 41L43 40L44 40L44 41L45 41L45 42L42 42L42 43L43 43L43 44L44 44L44 46L42 46L42 47L43 47L43 48L44 48L44 49L45 49L45 48L44 48L44 47L45 47L45 42L46 42L46 43L49 43L49 42L47 42L47 41L46 41L46 40L44 40L44 39L45 39L45 38L44 38L44 37L43 37L43 38L42 38L42 39L41 39L41 36L43 36L43 34L41 34L41 32L40 32L40 31L39 31L39 32L38 32L38 31L36 31L36 30L40 30L40 29L41 29L41 30L42 30L42 31L46 31L46 30L47 30L47 31L48 31L48 27L46 27L46 26L48 26L48 25L49 25L49 23L50 23L50 24L51 24L51 25L50 25L50 26L52 26L52 25L53 25L53 27L55 27L55 26L56 26L56 25L55 25L55 24L56 24L56 23L55 23L55 24L51 24L51 23L50 23L50 22L49 22L49 23L48 23L48 25L47 25L47 21L48 21L48 20L47 20L47 19L49 19L49 18L51 18L51 19L55 19L55 18L56 18L56 17L55 17L55 16L52 16L52 15L53 15L53 14L54 14L54 13L55 13L55 14L56 14L56 13L55 13L55 12L54 12L54 11L53 11L53 10L52 10L52 11L50 11L50 13L49 13L49 12L48 12L48 11L49 11L49 10L47 10L47 9L49 9L49 8L44 8L44 6L45 6L45 7L46 7L46 5L47 5L47 3L42 3L42 2L43 2L43 1L41 1L41 3L40 3L40 5L41 5L41 7L40 7L40 6L39 6L39 7L40 7L40 8L39 8L39 9L38 9L38 11L40 11L40 12L38 12L38 13L37 13L37 14L36 14L36 13L33 13L33 11L34 11L34 12L36 12L36 11L34 11L34 10L35 10L35 8L36 8L36 6L37 6L37 8L38 8L38 5L39 5L39 2L38 2L38 5L36 5L36 3L37 3L37 2L36 2L36 1L35 1L35 2L34 2L34 1ZM44 1L44 2L47 2L47 1ZM24 3L24 4L21 4L21 6L20 6L20 7L21 7L21 8L20 8L20 9L21 9L21 11L22 11L22 9L21 9L21 8L23 8L23 13L24 13L24 14L23 14L23 16L24 16L24 17L23 17L23 18L24 18L24 19L23 19L23 21L22 21L22 20L21 20L21 21L19 21L19 18L16 18L16 17L19 17L19 16L17 16L17 15L16 15L16 17L12 17L12 14L11 14L11 18L10 18L10 16L9 16L9 15L8 15L8 14L6 14L6 15L8 15L8 16L9 16L9 17L8 17L8 18L9 18L9 19L11 19L11 18L13 18L13 19L14 19L14 20L10 20L10 21L9 21L9 20L8 20L8 21L9 21L9 22L11 22L11 23L9 23L9 24L10 24L10 25L11 25L11 26L15 26L15 24L16 24L16 23L15 23L15 22L16 22L16 21L15 21L15 20L16 20L16 19L17 19L17 20L18 20L18 21L17 21L17 23L18 23L18 21L19 21L19 22L20 22L20 23L19 23L19 24L17 24L17 26L16 26L16 27L17 27L17 28L18 28L18 29L17 29L17 30L19 30L19 29L21 29L21 30L20 30L20 31L22 31L22 29L24 29L24 32L23 32L23 36L24 36L24 37L21 37L21 38L24 38L24 37L25 37L25 36L26 36L26 37L28 37L28 38L25 38L25 41L23 41L23 42L26 42L26 43L27 43L27 42L26 42L26 41L29 41L29 39L31 39L31 40L30 40L30 41L32 41L32 43L33 43L33 44L34 44L34 43L36 43L36 42L37 42L37 43L38 43L38 41L39 41L39 40L41 40L41 39L40 39L40 38L38 38L38 40L37 40L37 36L39 36L39 37L40 37L40 36L41 36L41 35L40 35L40 36L39 36L39 34L34 34L34 33L35 33L35 32L36 32L36 33L37 33L37 32L36 32L36 31L35 31L35 30L36 30L36 29L39 29L39 28L40 28L40 27L41 27L41 26L43 26L43 25L44 25L44 23L45 23L45 24L46 24L46 22L45 22L45 21L44 21L44 23L42 23L42 22L43 22L43 21L42 21L42 19L41 19L41 18L43 18L43 20L45 20L45 19L44 19L44 18L46 18L46 19L47 19L47 18L49 18L49 16L50 16L50 15L51 15L51 14L52 14L52 13L51 13L51 14L50 14L50 15L49 15L49 13L47 13L47 14L46 14L46 12L45 12L45 11L46 11L46 10L43 10L43 9L42 9L42 7L43 7L43 4L41 4L41 5L42 5L42 7L41 7L41 10L40 10L40 11L42 11L42 14L40 14L40 13L39 13L39 14L37 14L37 15L39 15L39 14L40 14L40 16L39 16L39 17L40 17L40 16L41 16L41 18L36 18L36 17L37 17L37 16L35 16L35 14L33 14L33 15L30 15L30 16L35 16L35 18L33 18L33 19L32 19L32 17L29 17L29 18L31 18L31 19L29 19L29 20L30 20L30 22L29 22L29 23L28 23L28 22L27 22L27 24L29 24L29 25L30 25L30 26L28 26L28 25L26 25L26 24L25 24L25 23L26 23L26 22L25 22L25 20L26 20L26 18L27 18L27 20L28 20L28 18L27 18L27 17L28 17L28 16L26 16L26 15L29 15L29 13L28 13L28 14L25 14L25 13L24 13L24 12L25 12L25 11L24 11L24 10L25 10L25 8L24 8L24 7L25 7L25 6L24 6L24 7L23 7L23 6L22 6L22 5L24 5L24 4L25 4L25 3ZM34 3L34 4L35 4L35 3ZM44 4L44 5L46 5L46 4ZM27 5L27 8L30 8L30 5ZM17 6L17 8L18 8L18 6ZM21 6L21 7L22 7L22 6ZM28 6L28 7L29 7L29 6ZM14 9L14 10L15 10L15 9ZM36 9L36 10L37 10L37 9ZM43 11L43 12L44 12L44 13L43 13L43 14L42 14L42 15L45 15L45 14L44 14L44 13L45 13L45 12L44 12L44 11ZM52 11L52 12L53 12L53 11ZM1 14L1 15L2 15L2 18L3 18L3 16L4 16L4 17L5 17L5 16L4 16L4 15L2 15L2 14ZM24 14L24 15L25 15L25 14ZM46 15L46 16L43 16L43 17L46 17L46 18L47 18L47 17L48 17L48 16L49 16L49 15ZM20 16L20 17L21 17L21 18L20 18L20 19L22 19L22 17L21 17L21 16ZM25 16L25 18L26 18L26 16ZM46 16L46 17L47 17L47 16ZM51 16L51 18L54 18L54 17L52 17L52 16ZM33 19L33 20L32 20L32 21L33 21L33 24L32 24L32 25L31 25L31 22L30 22L30 25L31 25L31 26L32 26L32 27L33 27L33 28L31 28L31 31L30 31L30 32L29 32L29 31L25 31L25 34L24 34L24 36L25 36L25 34L26 34L26 35L27 35L27 36L28 36L28 37L29 37L29 34L31 34L31 35L30 35L30 38L31 38L31 39L33 39L33 40L32 40L32 41L34 41L34 42L33 42L33 43L34 43L34 42L36 42L36 41L34 41L34 40L36 40L36 36L37 36L37 35L34 35L34 34L32 34L32 33L34 33L34 32L35 32L35 31L34 31L34 32L32 32L32 31L33 31L33 30L35 30L35 29L33 29L33 28L34 28L34 26L35 26L35 28L39 28L39 27L38 27L38 26L40 26L40 25L43 25L43 24L42 24L42 23L41 23L41 22L40 22L40 24L39 24L39 21L38 21L38 20L37 20L37 19ZM39 19L39 20L40 20L40 21L41 21L41 20L40 20L40 19ZM6 20L6 21L7 21L7 20ZM36 20L36 21L37 21L37 22L36 22L36 24L35 24L35 26L36 26L36 25L37 25L37 24L38 24L38 21L37 21L37 20ZM11 21L11 22L12 22L12 21ZM13 21L13 22L15 22L15 21ZM21 21L21 23L22 23L22 25L21 25L21 24L20 24L20 26L19 26L19 25L18 25L18 26L17 26L17 27L18 27L18 26L19 26L19 27L22 27L22 25L25 25L25 26L24 26L24 27L23 27L23 28L24 28L24 29L25 29L25 30L26 30L26 27L25 27L25 26L26 26L26 25L25 25L25 24L24 24L24 23L22 23L22 21ZM23 21L23 22L24 22L24 21ZM5 22L5 25L7 25L7 24L6 24L6 23L8 23L8 22ZM34 22L34 23L35 23L35 22ZM13 23L13 24L11 24L11 25L13 25L13 24L14 24L14 23ZM33 25L33 26L34 26L34 25ZM45 25L45 26L44 26L44 28L43 28L43 27L42 27L42 28L43 28L43 29L42 29L42 30L46 30L46 29L47 29L47 28L46 28L46 27L45 27L45 26L46 26L46 25ZM54 25L54 26L55 26L55 25ZM5 27L5 30L8 30L8 27ZM11 27L11 28L10 28L10 29L11 29L11 28L14 28L14 27ZM27 27L27 30L30 30L30 27ZM49 27L49 30L52 30L52 27ZM6 28L6 29L7 29L7 28ZM21 28L21 29L22 29L22 28ZM28 28L28 29L29 29L29 28ZM44 28L44 29L45 29L45 28ZM50 28L50 29L51 29L51 28ZM54 28L54 29L53 29L53 31L52 31L52 32L53 32L53 31L55 31L55 30L56 30L56 29L55 29L55 28ZM12 29L12 30L11 30L11 31L12 31L12 30L13 30L13 29ZM32 29L32 30L33 30L33 29ZM54 29L54 30L55 30L55 29ZM2 31L2 32L3 32L3 31ZM6 32L6 33L7 33L7 34L5 34L5 33L4 33L4 34L5 34L5 38L4 38L4 39L7 39L7 38L6 38L6 37L8 37L8 36L6 36L6 35L8 35L8 33L7 33L7 32ZM20 32L20 33L21 33L21 32ZM27 32L27 33L26 33L26 34L27 34L27 33L29 33L29 32ZM30 32L30 33L32 33L32 32ZM39 32L39 33L40 33L40 32ZM3 35L3 37L4 37L4 35ZM12 35L12 37L13 37L13 36L14 36L14 35ZM31 35L31 38L32 38L32 35ZM33 35L33 36L34 36L34 37L35 37L35 36L34 36L34 35ZM55 35L55 36L54 36L54 37L55 37L55 36L56 36L56 35ZM9 38L9 39L10 39L10 38ZM48 38L48 39L50 39L50 38ZM13 39L13 40L16 40L16 39ZM22 39L22 40L24 40L24 39ZM26 39L26 40L28 40L28 39ZM8 41L8 44L9 44L9 41ZM21 41L21 42L20 42L20 45L22 45L22 44L21 44L21 43L22 43L22 41ZM2 42L2 43L3 43L3 42ZM13 42L13 43L14 43L14 42ZM28 42L28 43L29 43L29 42ZM30 42L30 43L31 43L31 42ZM14 44L14 45L15 45L15 44ZM23 44L23 45L24 45L24 47L25 47L25 45L26 45L26 44L25 44L25 45L24 45L24 44ZM47 44L47 45L46 45L46 46L47 46L47 45L49 45L49 44ZM54 44L54 45L52 45L52 47L53 47L53 48L54 48L54 47L55 47L55 46L56 46L56 45L55 45L55 44ZM27 45L27 46L28 46L28 45ZM32 45L32 46L33 46L33 45ZM54 45L54 46L53 46L53 47L54 47L54 46L55 46L55 45ZM3 46L3 47L5 47L5 46ZM21 46L21 48L23 48L23 47L22 47L22 46ZM24 48L24 49L23 49L23 50L25 50L25 48ZM31 48L31 49L32 49L32 50L31 50L31 52L32 52L32 54L34 54L34 55L35 55L35 54L37 54L37 53L36 53L36 52L37 52L37 51L38 51L38 50L37 50L37 49L36 49L36 48ZM9 49L9 50L10 50L10 49ZM15 49L15 51L16 51L16 50L17 50L17 49ZM21 49L21 50L22 50L22 49ZM27 49L27 52L30 52L30 49ZM49 49L49 52L52 52L52 49ZM28 50L28 51L29 51L29 50ZM33 50L33 51L32 51L32 52L33 52L33 51L35 51L35 52L36 52L36 51L37 51L37 50L36 50L36 51L35 51L35 50ZM44 50L44 53L43 53L43 54L42 54L42 55L47 55L47 53L48 53L48 52L45 52L45 51L46 51L46 50ZM50 50L50 51L51 51L51 50ZM53 50L53 51L54 51L54 50ZM39 51L39 52L40 52L40 51ZM56 51L56 52L57 52L57 51ZM8 52L8 57L10 57L10 56L11 56L11 57L12 57L12 56L11 56L11 55L13 55L13 57L14 57L14 56L15 56L15 57L16 57L16 55L15 55L15 54L16 54L16 53L14 53L14 55L13 55L13 53L12 53L12 54L11 54L11 55L9 55L9 54L10 54L10 52ZM19 52L19 53L18 53L18 54L19 54L19 55L20 55L20 54L19 54L19 53L21 53L21 52ZM30 53L30 54L31 54L31 53ZM44 53L44 54L45 54L45 53ZM25 54L25 56L26 56L26 54ZM38 56L38 57L39 57L39 56ZM0 0L0 7L7 7L7 0ZM1 1L1 6L6 6L6 1ZM2 2L2 5L5 5L5 2ZM50 0L50 7L57 7L57 0ZM51 1L51 6L56 6L56 1ZM52 2L52 5L55 5L55 2ZM0 50L0 57L7 57L7 50ZM1 51L1 56L6 56L6 51ZM2 52L2 55L5 55L5 52Z" fill="#000000"/></g></g></svg>
