<?xml version="1.0" encoding="UTF-8"?>
<svg xmlns="http://www.w3.org/2000/svg" version="1.1" width="300" height="300" viewBox="0 0 300 300"><rect x="0" y="0" width="300" height="300" fill="#ffffff"/><g transform="scale(4.918)"><g transform="translate(2,2)"><path fill-rule="evenodd" d="M9 0L9 1L8 1L8 2L9 2L9 1L15 1L15 0ZM19 0L19 1L16 1L16 2L14 2L14 3L13 3L13 2L10 2L10 3L11 3L11 6L10 6L10 7L9 7L9 5L8 5L8 7L9 7L9 8L6 8L6 9L8 9L8 10L6 10L6 11L7 11L7 12L5 12L5 8L0 8L0 10L1 10L1 9L2 9L2 12L3 12L3 13L1 13L1 14L0 14L0 15L1 15L1 14L2 14L2 16L1 16L1 17L0 17L0 18L2 18L2 17L3 17L3 13L4 13L4 12L5 12L5 14L6 14L6 15L4 15L4 16L6 16L6 17L4 17L4 18L3 18L3 19L2 19L2 20L0 20L0 22L1 22L1 23L4 23L4 26L3 26L3 25L2 25L2 24L0 24L0 28L1 28L1 25L2 25L2 27L4 27L4 29L3 29L3 28L2 28L2 29L0 29L0 31L1 31L1 32L0 32L0 34L1 34L1 35L0 35L0 36L1 36L1 37L2 37L2 36L3 36L3 39L2 39L2 41L0 41L0 43L2 43L2 44L3 44L3 45L2 45L2 47L1 47L1 45L0 45L0 48L5 48L5 47L7 47L7 48L6 48L6 49L7 49L7 48L9 48L9 44L10 44L10 42L9 42L9 41L11 41L11 44L14 44L14 45L13 45L13 46L12 46L12 45L11 45L11 46L10 46L10 48L13 48L13 49L12 49L12 50L11 50L11 49L8 49L8 51L9 51L9 50L11 50L11 54L10 54L10 53L9 53L9 52L8 52L8 57L9 57L9 55L10 55L10 56L11 56L11 57L13 57L13 56L15 56L15 55L16 55L16 56L17 56L17 57L19 57L19 56L18 56L18 55L20 55L20 54L18 54L18 55L17 55L17 53L20 53L20 51L19 51L19 50L20 50L20 49L21 49L21 48L20 48L20 47L22 47L22 45L24 45L24 46L23 46L23 47L24 47L24 48L25 48L25 49L22 49L22 50L21 50L21 53L22 53L22 54L25 54L25 53L26 53L26 55L24 55L24 56L23 56L23 55L21 55L21 56L20 56L20 57L21 57L21 56L23 56L23 57L26 57L26 55L27 55L27 56L28 56L28 55L27 55L27 53L28 53L28 54L30 54L30 55L29 55L29 57L32 57L32 56L31 56L31 55L33 55L33 54L34 54L34 55L35 55L35 56L34 56L34 57L35 57L35 56L36 56L36 57L37 57L37 56L36 56L36 55L35 55L35 54L38 54L38 52L39 52L39 55L38 55L38 56L39 56L39 55L40 55L40 52L41 52L41 51L42 51L42 52L43 52L43 53L42 53L42 54L41 54L41 55L42 55L42 54L43 54L43 53L44 53L44 54L45 54L45 55L44 55L44 56L43 56L43 57L44 57L44 56L46 56L46 57L49 57L49 56L47 56L47 55L50 55L50 54L53 54L53 55L51 55L51 56L50 56L50 57L52 57L52 56L55 56L55 57L56 57L56 56L55 56L55 53L54 53L54 52L55 52L55 51L56 51L56 52L57 52L57 51L56 51L56 50L57 50L57 49L56 49L56 48L55 48L55 47L56 47L56 46L57 46L57 45L56 45L56 42L57 42L57 41L55 41L55 40L56 40L56 39L54 39L54 38L55 38L55 37L54 37L54 36L56 36L56 37L57 37L57 36L56 36L56 34L57 34L57 33L56 33L56 32L57 32L57 31L56 31L56 32L55 32L55 30L57 30L57 29L56 29L56 28L55 28L55 27L56 27L56 26L57 26L57 25L55 25L55 24L56 24L56 22L57 22L57 21L54 21L54 20L57 20L57 19L56 19L56 18L57 18L57 17L56 17L56 16L55 16L55 14L57 14L57 13L54 13L54 15L51 15L51 14L52 14L52 13L51 13L51 14L49 14L49 13L50 13L50 11L52 11L52 12L53 12L53 11L54 11L54 12L56 12L56 10L57 10L57 9L56 9L56 8L55 8L55 11L54 11L54 10L52 10L52 8L51 8L51 10L50 10L50 8L49 8L49 6L48 6L48 8L49 8L49 9L48 9L48 10L50 10L50 11L49 11L49 13L47 13L47 14L46 14L46 12L45 12L45 11L46 11L46 10L45 10L45 9L44 9L44 8L43 8L43 6L42 6L42 5L43 5L43 3L47 3L47 5L46 5L46 7L45 7L45 6L44 6L44 7L45 7L45 8L46 8L46 9L47 9L47 8L46 8L46 7L47 7L47 5L48 5L48 0L46 0L46 1L45 1L45 2L39 2L39 1L43 1L43 0L39 0L39 1L38 1L38 0L37 0L37 1L36 1L36 2L37 2L37 3L36 3L36 5L34 5L34 7L33 7L33 6L32 6L32 7L31 7L31 4L32 4L32 3L33 3L33 4L35 4L35 1L33 1L33 2L32 2L32 0L30 0L30 1L29 1L29 0L27 0L27 1L25 1L25 0L21 0L21 1L23 1L23 2L21 2L21 3L23 3L23 2L24 2L24 3L25 3L25 2L28 2L28 3L27 3L27 4L26 4L26 5L25 5L25 4L24 4L24 5L23 5L23 4L19 4L19 2L20 2L20 0ZM24 1L24 2L25 2L25 1ZM28 1L28 2L29 2L29 1ZM30 1L30 3L28 3L28 4L31 4L31 1ZM37 1L37 2L38 2L38 6L37 6L37 5L36 5L36 6L35 6L35 7L34 7L34 10L33 10L33 11L32 11L32 9L33 9L33 7L32 7L32 9L31 9L31 11L30 11L30 10L29 10L29 9L26 9L26 8L25 8L25 7L26 7L26 6L25 6L25 7L24 7L24 6L23 6L23 7L22 7L22 6L21 6L21 7L22 7L22 8L20 8L20 12L19 12L19 13L20 13L20 15L19 15L19 14L18 14L18 15L17 15L17 13L18 13L18 12L17 12L17 11L18 11L18 9L17 9L17 7L18 7L18 6L17 6L17 4L18 4L18 5L19 5L19 7L20 7L20 5L19 5L19 4L18 4L18 3L17 3L17 2L16 2L16 3L14 3L14 4L12 4L12 6L11 6L11 8L9 8L9 10L8 10L8 12L10 12L10 14L13 14L13 16L11 16L11 15L9 15L9 14L7 14L7 13L6 13L6 14L7 14L7 15L6 15L6 16L7 16L7 15L8 15L8 17L12 17L12 19L14 19L14 20L11 20L11 21L10 21L10 20L9 20L9 19L11 19L11 18L7 18L7 17L6 17L6 18L5 18L5 19L6 19L6 20L7 20L7 21L5 21L5 22L4 22L4 21L3 21L3 20L2 20L2 21L3 21L3 22L4 22L4 23L6 23L6 24L7 24L7 23L6 23L6 22L7 22L7 21L8 21L8 22L9 22L9 26L10 26L10 27L9 27L9 28L11 28L11 29L9 29L9 30L10 30L10 32L8 32L8 31L6 31L6 32L3 32L3 31L4 31L4 30L1 30L1 31L2 31L2 32L1 32L1 34L2 34L2 35L1 35L1 36L2 36L2 35L3 35L3 34L10 34L10 35L11 35L11 37L12 37L12 36L13 36L13 35L14 35L14 36L15 36L15 37L13 37L13 38L15 38L15 39L16 39L16 40L17 40L17 41L14 41L14 42L15 42L15 43L16 43L16 44L15 44L15 45L16 45L16 46L15 46L15 47L14 47L14 46L13 46L13 47L14 47L14 48L15 48L15 47L16 47L16 48L17 48L17 47L16 47L16 46L17 46L17 45L18 45L18 44L17 44L17 43L18 43L18 42L21 42L21 43L20 43L20 44L21 44L21 45L19 45L19 46L18 46L18 48L19 48L19 49L13 49L13 50L14 50L14 51L12 51L12 52L13 52L13 53L12 53L12 55L11 55L11 56L12 56L12 55L13 55L13 54L16 54L16 53L17 53L17 52L18 52L18 51L17 51L17 52L16 52L16 51L15 51L15 50L19 50L19 49L20 49L20 48L19 48L19 46L21 46L21 45L22 45L22 44L21 44L21 43L22 43L22 41L23 41L23 38L24 38L24 39L25 39L25 42L23 42L23 44L24 44L24 45L25 45L25 46L24 46L24 47L25 47L25 48L27 48L27 47L28 47L28 48L29 48L29 47L30 47L30 48L31 48L31 49L32 49L32 50L31 50L31 52L32 52L32 54L33 54L33 53L34 53L34 54L35 54L35 52L36 52L36 51L34 51L34 50L35 50L35 49L36 49L36 48L37 48L37 50L39 50L39 52L40 52L40 51L41 51L41 50L42 50L42 51L43 51L43 50L44 50L44 53L45 53L45 54L47 54L47 53L48 53L48 52L47 52L47 51L48 51L48 48L50 48L50 47L51 47L51 48L52 48L52 47L53 47L53 50L54 50L54 51L53 51L53 52L54 52L54 51L55 51L55 50L56 50L56 49L55 49L55 48L54 48L54 47L55 47L55 46L56 46L56 45L55 45L55 44L54 44L54 45L52 45L52 47L51 47L51 46L50 46L50 47L49 47L49 46L48 46L48 44L47 44L47 45L46 45L46 46L48 46L48 47L45 47L45 48L42 48L42 49L41 49L41 48L40 48L40 47L38 47L38 48L37 48L37 47L36 47L36 48L35 48L35 47L33 47L33 46L35 46L35 44L37 44L37 45L36 45L36 46L39 46L39 45L38 45L38 44L39 44L39 43L42 43L42 42L41 42L41 39L42 39L42 41L43 41L43 44L40 44L40 45L41 45L41 46L42 46L42 47L43 47L43 46L44 46L44 45L45 45L45 44L44 44L44 41L45 41L45 42L46 42L46 43L48 43L48 42L47 42L47 41L48 41L48 40L47 40L47 39L48 39L48 38L50 38L50 39L49 39L49 41L52 41L52 42L50 42L50 43L51 43L51 44L49 44L49 45L51 45L51 44L53 44L53 43L54 43L54 40L53 40L53 41L52 41L52 40L50 40L50 39L53 39L53 36L54 36L54 35L53 35L53 36L52 36L52 34L53 34L53 33L55 33L55 32L54 32L54 31L52 31L52 32L53 32L53 33L51 33L51 32L49 32L49 31L48 31L48 28L47 28L47 27L48 27L48 25L49 25L49 24L50 24L50 26L51 26L51 25L53 25L53 27L55 27L55 26L54 26L54 24L51 24L51 23L53 23L53 22L51 22L51 21L53 21L53 20L54 20L54 19L55 19L55 18L52 18L52 19L53 19L53 20L51 20L51 19L50 19L50 22L49 22L49 23L48 23L48 21L49 21L49 19L46 19L46 20L42 20L42 19L43 19L43 18L44 18L44 19L45 19L45 18L48 18L48 17L49 17L49 18L51 18L51 17L53 17L53 16L51 16L51 15L50 15L50 17L49 17L49 15L46 15L46 16L48 16L48 17L45 17L45 16L40 16L40 14L42 14L42 15L43 15L43 14L44 14L44 15L45 15L45 12L44 12L44 13L43 13L43 14L42 14L42 11L43 11L43 10L44 10L44 11L45 11L45 10L44 10L44 9L43 9L43 10L41 10L41 7L42 7L42 6L41 6L41 3L40 3L40 5L39 5L39 2L38 2L38 1ZM46 1L46 2L47 2L47 1ZM8 3L8 4L9 4L9 3ZM14 4L14 5L13 5L13 6L12 6L12 7L13 7L13 6L14 6L14 7L15 7L15 9L16 9L16 7L17 7L17 6L16 6L16 7L15 7L15 6L14 6L14 5L16 5L16 4ZM44 4L44 5L45 5L45 4ZM27 5L27 8L30 8L30 5ZM28 6L28 7L29 7L29 6ZM36 6L36 7L35 7L35 8L36 8L36 10L37 10L37 9L38 9L38 8L40 8L40 7L41 7L41 6L40 6L40 7L39 7L39 6L38 6L38 8L36 8L36 7L37 7L37 6ZM23 7L23 8L24 8L24 7ZM13 8L13 9L12 9L12 11L11 11L11 13L12 13L12 11L14 11L14 12L13 12L13 13L17 13L17 12L16 12L16 11L17 11L17 10L13 10L13 9L14 9L14 8ZM53 8L53 9L54 9L54 8ZM3 9L3 12L4 12L4 9ZM10 9L10 10L9 10L9 11L10 11L10 10L11 10L11 9ZM22 9L22 10L21 10L21 12L20 12L20 13L21 13L21 12L25 12L25 13L22 13L22 16L23 16L23 14L25 14L25 15L24 15L24 16L25 16L25 17L21 17L21 19L22 19L22 18L23 18L23 21L22 21L22 20L21 20L21 21L22 21L22 22L23 22L23 23L22 23L22 24L23 24L23 26L22 26L22 27L23 27L23 29L24 29L24 30L22 30L22 28L20 28L20 27L21 27L21 26L20 26L20 25L21 25L21 24L17 24L17 23L20 23L20 22L18 22L18 21L20 21L20 20L19 20L19 18L20 18L20 17L19 17L19 15L18 15L18 16L17 16L17 17L19 17L19 18L17 18L17 20L18 20L18 21L16 21L16 18L15 18L15 21L16 21L16 22L15 22L15 23L13 23L13 22L14 22L14 21L12 21L12 23L13 23L13 24L11 24L11 23L10 23L10 26L11 26L11 27L12 27L12 26L13 26L13 28L12 28L12 30L13 30L13 31L12 31L12 32L11 32L11 33L12 33L12 35L13 35L13 34L14 34L14 35L16 35L16 33L19 33L19 32L20 32L20 33L21 33L21 35L22 35L22 36L21 36L21 37L19 37L19 36L20 36L20 34L18 34L18 35L19 35L19 36L18 36L18 37L17 37L17 39L18 39L18 41L17 41L17 42L18 42L18 41L21 41L21 39L22 39L22 38L23 38L23 37L24 37L24 38L25 38L25 37L27 37L27 38L26 38L26 39L27 39L27 40L28 40L28 39L27 39L27 38L28 38L28 37L29 37L29 39L31 39L31 38L32 38L32 34L33 34L33 37L35 37L35 38L34 38L34 39L35 39L35 38L36 38L36 40L35 40L35 41L36 41L36 42L38 42L38 43L39 43L39 42L38 42L38 41L39 41L39 40L40 40L40 39L39 39L39 40L37 40L37 38L38 38L38 37L39 37L39 38L40 38L40 36L41 36L41 37L42 37L42 38L43 38L43 37L44 37L44 38L45 38L45 39L47 39L47 38L45 38L45 37L44 37L44 35L42 35L42 34L45 34L45 36L47 36L47 35L49 35L49 36L48 36L48 37L49 37L49 36L51 36L51 37L50 37L50 38L51 38L51 37L52 37L52 36L51 36L51 35L49 35L49 34L48 34L48 33L47 33L47 34L45 34L45 33L43 33L43 32L46 32L46 31L47 31L47 32L48 32L48 31L47 31L47 30L46 30L46 29L47 29L47 28L46 28L46 27L47 27L47 26L43 26L43 25L44 25L44 24L47 24L47 25L48 25L48 23L47 23L47 22L45 22L45 21L44 21L44 24L42 24L42 23L41 23L41 24L42 24L42 25L39 25L39 23L40 23L40 22L39 22L39 23L38 23L38 24L37 24L37 22L38 22L38 20L36 20L36 21L37 21L37 22L36 22L36 23L35 23L35 22L34 22L34 23L35 23L35 24L33 24L33 25L32 25L32 24L30 24L30 26L29 26L29 25L28 25L28 24L29 24L29 23L30 23L30 22L31 22L31 23L33 23L33 21L34 21L34 20L35 20L35 18L36 18L36 19L39 19L39 18L36 18L36 17L37 17L37 16L38 16L38 15L39 15L39 14L33 14L33 13L38 13L38 12L40 12L40 9L39 9L39 10L38 10L38 11L37 11L37 12L34 12L34 11L35 11L35 10L34 10L34 11L33 11L33 13L32 13L32 12L30 12L30 13L28 13L28 12L29 12L29 11L28 11L28 10L26 10L26 11L27 11L27 12L25 12L25 9ZM22 10L22 11L23 11L23 10ZM0 11L0 12L1 12L1 11ZM25 13L25 14L28 14L28 13ZM31 13L31 14L32 14L32 15L31 15L31 16L30 16L30 15L25 15L25 16L27 16L27 17L26 17L26 18L24 18L24 21L23 21L23 22L24 22L24 21L25 21L25 23L24 23L24 25L25 25L25 26L24 26L24 27L25 27L25 28L24 28L24 29L25 29L25 30L26 30L26 27L25 27L25 26L26 26L26 25L25 25L25 24L28 24L28 23L26 23L26 22L27 22L27 21L28 21L28 22L30 22L30 20L29 20L29 19L31 19L31 18L29 18L29 19L28 19L28 20L27 20L27 18L28 18L28 17L31 17L31 16L32 16L32 19L34 19L34 18L35 18L35 17L34 17L34 18L33 18L33 16L37 16L37 15L33 15L33 14L32 14L32 13ZM14 15L14 16L13 16L13 17L14 17L14 16L15 16L15 17L16 17L16 15ZM20 15L20 16L21 16L21 15ZM32 15L32 16L33 16L33 15ZM39 16L39 17L40 17L40 16ZM54 16L54 17L55 17L55 16ZM41 17L41 18L43 18L43 17ZM44 17L44 18L45 18L45 17ZM6 18L6 19L7 19L7 18ZM25 19L25 20L26 20L26 21L27 21L27 20L26 20L26 19ZM40 19L40 20L39 20L39 21L40 21L40 20L41 20L41 19ZM32 20L32 21L33 21L33 20ZM46 20L46 21L47 21L47 20ZM41 21L41 22L43 22L43 21ZM50 22L50 23L51 23L51 22ZM54 22L54 23L55 23L55 22ZM15 23L15 24L16 24L16 23ZM13 24L13 26L14 26L14 27L15 27L15 29L16 29L16 32L17 32L17 30L18 30L18 31L20 31L20 32L21 32L21 33L25 33L25 34L26 34L26 33L27 33L27 35L26 35L26 36L29 36L29 34L30 34L30 33L27 33L27 32L29 32L29 31L26 31L26 32L23 32L23 31L22 31L22 30L21 30L21 29L19 29L19 25L18 25L18 27L17 27L17 25L14 25L14 24ZM6 25L6 26L7 26L7 25ZM27 25L27 26L28 26L28 25ZM31 25L31 26L32 26L32 25ZM34 25L34 26L33 26L33 28L31 28L31 29L33 29L33 30L32 30L32 31L30 31L30 32L32 32L32 33L33 33L33 34L35 34L35 37L36 37L36 36L40 36L40 35L41 35L41 34L42 34L42 33L41 33L41 32L39 32L39 31L37 31L37 30L39 30L39 29L41 29L41 30L40 30L40 31L41 31L41 30L42 30L42 31L46 31L46 30L45 30L45 28L44 28L44 30L42 30L42 29L43 29L43 28L42 28L42 26L40 26L40 28L39 28L39 27L38 27L38 26L39 26L39 25L38 25L38 26L37 26L37 25L36 25L36 28L37 28L37 27L38 27L38 29L37 29L37 30L35 30L35 29L33 29L33 28L34 28L34 26L35 26L35 25ZM15 26L15 27L16 27L16 26ZM5 27L5 30L8 30L8 27ZM27 27L27 30L30 30L30 27ZM49 27L49 30L52 30L52 27ZM6 28L6 29L7 29L7 28ZM16 28L16 29L18 29L18 30L19 30L19 29L18 29L18 28ZM28 28L28 29L29 29L29 28ZM50 28L50 29L51 29L51 28ZM54 28L54 29L53 29L53 30L55 30L55 28ZM13 29L13 30L14 30L14 31L13 31L13 32L14 32L14 31L15 31L15 30L14 30L14 29ZM20 30L20 31L21 31L21 32L22 32L22 31L21 31L21 30ZM33 30L33 31L32 31L32 32L33 32L33 33L34 33L34 32L33 32L33 31L35 31L35 30ZM2 32L2 33L3 33L3 32ZM6 32L6 33L8 33L8 32ZM35 32L35 34L36 34L36 35L39 35L39 34L37 34L37 33L38 33L38 32ZM50 33L50 34L51 34L51 33ZM22 34L22 35L23 35L23 36L22 36L22 37L21 37L21 38L22 38L22 37L23 37L23 36L24 36L24 37L25 37L25 35L24 35L24 34ZM6 35L6 36L7 36L7 37L4 37L4 38L8 38L8 39L6 39L6 40L5 40L5 41L3 41L3 43L4 43L4 42L5 42L5 44L4 44L4 45L3 45L3 47L5 47L5 46L7 46L7 47L8 47L8 46L7 46L7 45L8 45L8 44L9 44L9 42L8 42L8 41L6 41L6 40L8 40L8 39L9 39L9 40L10 40L10 36L9 36L9 35ZM30 35L30 38L31 38L31 35ZM15 37L15 38L16 38L16 37ZM18 37L18 38L19 38L19 39L20 39L20 38L19 38L19 37ZM11 38L11 41L12 41L12 38ZM13 39L13 40L14 40L14 39ZM31 40L31 41L30 41L30 42L28 42L28 43L31 43L31 41L32 41L32 40ZM33 40L33 41L34 41L34 40ZM43 40L43 41L44 41L44 40ZM45 40L45 41L46 41L46 40ZM5 41L5 42L6 42L6 43L7 43L7 44L5 44L5 45L4 45L4 46L5 46L5 45L7 45L7 44L8 44L8 42L6 42L6 41ZM26 41L26 43L27 43L27 41ZM12 42L12 43L13 43L13 42ZM32 42L32 43L33 43L33 44L34 44L34 42ZM52 42L52 43L53 43L53 42ZM24 43L24 44L25 44L25 45L26 45L26 44L25 44L25 43ZM16 44L16 45L17 45L17 44ZM28 44L28 45L27 45L27 46L26 46L26 47L27 47L27 46L28 46L28 47L29 47L29 46L30 46L30 47L31 47L31 48L33 48L33 50L34 50L34 48L33 48L33 47L32 47L32 46L33 46L33 45L32 45L32 44ZM43 44L43 45L42 45L42 46L43 46L43 45L44 45L44 44ZM28 45L28 46L29 46L29 45ZM54 45L54 46L55 46L55 45ZM11 46L11 47L12 47L12 46ZM39 48L39 49L40 49L40 50L41 50L41 49L40 49L40 48ZM45 48L45 50L46 50L46 51L47 51L47 50L46 50L46 49L47 49L47 48ZM27 49L27 52L30 52L30 49ZM42 49L42 50L43 50L43 49ZM49 49L49 52L52 52L52 49ZM54 49L54 50L55 50L55 49ZM22 50L22 53L23 53L23 52L24 52L24 53L25 53L25 52L26 52L26 50L24 50L24 51L23 51L23 50ZM28 50L28 51L29 51L29 50ZM50 50L50 51L51 51L51 50ZM24 51L24 52L25 52L25 51ZM32 51L32 52L34 52L34 51ZM37 51L37 52L38 52L38 51ZM14 52L14 53L16 53L16 52ZM46 52L46 53L47 53L47 52ZM49 53L49 54L50 54L50 53ZM53 53L53 54L54 54L54 53ZM41 56L41 57L42 57L42 56ZM0 0L0 7L7 7L7 0ZM1 1L1 6L6 6L6 1ZM2 2L2 5L5 5L5 2ZM50 0L50 7L57 7L57 0ZM51 1L51 6L56 6L56 1ZM52 2L52 5L55 5L55 2ZM0 50L0 57L7 57L7 50ZM1 51L1 56L6 56L6 51ZM2 52L2 55L5 55L5 52Z" fill="#000000"/></g></g></svg>
