<?xml version="1.0" encoding="UTF-8"?>
<svg xmlns="http://www.w3.org/2000/svg" version="1.1" width="300" height="300" viewBox="0 0 300 300"><rect x="0" y="0" width="300" height="300" fill="#ffffff"/><g transform="scale(4.918)"><g transform="translate(2,2)"><path fill-rule="evenodd" d="M11 0L11 1L8 1L8 2L9 2L9 3L8 3L8 4L10 4L10 2L11 2L11 5L10 5L10 7L9 7L9 5L8 5L8 7L9 7L9 8L6 8L6 9L8 9L8 11L9 11L9 10L10 10L10 8L11 8L11 5L12 5L12 7L13 7L13 6L14 6L14 7L15 7L15 6L16 6L16 9L17 9L17 10L15 10L15 9L14 9L14 8L12 8L12 9L11 9L11 11L10 11L10 13L11 13L11 11L12 11L12 14L9 14L9 12L8 12L8 13L7 13L7 12L6 12L6 11L7 11L7 10L6 10L6 11L3 11L3 12L0 12L0 14L1 14L1 13L2 13L2 14L3 14L3 15L2 15L2 17L0 17L0 18L2 18L2 19L0 19L0 23L1 23L1 22L2 22L2 25L4 25L4 27L3 27L3 28L2 28L2 27L0 27L0 28L1 28L1 31L2 31L2 29L3 29L3 30L4 30L4 31L3 31L3 32L4 32L4 31L7 31L7 32L5 32L5 33L7 33L7 32L8 32L8 33L9 33L9 32L10 32L10 33L11 33L11 34L6 34L6 35L7 35L7 36L5 36L5 37L4 37L4 36L3 36L3 35L4 35L4 33L2 33L2 32L0 32L0 33L1 33L1 34L0 34L0 37L1 37L1 36L2 36L2 38L1 38L1 40L2 40L2 41L3 41L3 43L2 43L2 42L1 42L1 41L0 41L0 42L1 42L1 44L2 44L2 45L1 45L1 46L0 46L0 48L5 48L5 47L8 47L8 48L6 48L6 49L8 49L8 51L9 51L9 50L10 50L10 52L11 52L11 53L10 53L10 54L11 54L11 55L9 55L9 52L8 52L8 57L9 57L9 56L11 56L11 55L13 55L13 56L12 56L12 57L13 57L13 56L16 56L16 55L14 55L14 54L16 54L16 53L15 53L15 52L17 52L17 53L19 53L19 54L17 54L17 57L19 57L19 56L21 56L21 55L24 55L24 57L26 57L26 56L28 56L28 55L26 55L26 54L27 54L27 53L28 53L28 54L29 54L29 55L30 55L30 56L29 56L29 57L31 57L31 56L32 56L32 55L33 55L33 56L34 56L34 55L35 55L35 57L39 57L39 56L41 56L41 55L42 55L42 56L43 56L43 57L44 57L44 56L46 56L46 57L48 57L48 56L50 56L50 55L51 55L51 57L52 57L52 56L53 56L53 57L56 57L56 56L55 56L55 55L54 55L54 54L55 54L55 53L53 53L53 48L55 48L55 50L57 50L57 49L56 49L56 48L55 48L55 47L56 47L56 46L57 46L57 45L56 45L56 44L57 44L57 43L56 43L56 42L55 42L55 41L54 41L54 40L55 40L55 39L57 39L57 37L56 37L56 38L55 38L55 37L54 37L54 36L56 36L56 34L57 34L57 33L56 33L56 30L57 30L57 28L56 28L56 29L54 29L54 28L55 28L55 27L53 27L53 26L52 26L52 25L51 25L51 26L49 26L49 25L47 25L47 26L46 26L46 25L45 25L45 26L44 26L44 28L43 28L43 25L44 25L44 24L43 24L43 20L45 20L45 21L44 21L44 23L45 23L45 24L46 24L46 23L48 23L48 24L50 24L50 23L51 23L51 24L53 24L53 25L54 25L54 26L57 26L57 23L56 23L56 22L57 22L57 21L56 21L56 19L55 19L55 18L57 18L57 17L51 17L51 18L49 18L49 17L50 17L50 16L49 16L49 17L48 17L48 16L47 16L47 17L48 17L48 19L49 19L49 21L48 21L48 20L47 20L47 21L48 21L48 22L45 22L45 21L46 21L46 20L45 20L45 19L44 19L44 17L43 17L43 16L45 16L45 18L46 18L46 19L47 19L47 18L46 18L46 16L45 16L45 15L50 15L50 11L51 11L51 10L53 10L53 11L52 11L52 12L53 12L53 11L54 11L54 12L55 12L55 13L56 13L56 14L54 14L54 15L52 15L52 16L55 16L55 15L56 15L56 16L57 16L57 15L56 15L56 14L57 14L57 13L56 13L56 12L57 12L57 11L56 11L56 8L55 8L55 11L54 11L54 10L53 10L53 9L54 9L54 8L53 8L53 9L52 9L52 8L51 8L51 10L49 10L49 9L50 9L50 8L49 8L49 6L48 6L48 8L47 8L47 5L48 5L48 0L46 0L46 1L44 1L44 2L42 2L42 1L43 1L43 0L42 0L42 1L41 1L41 0L39 0L39 1L38 1L38 0L35 0L35 1L33 1L33 2L32 2L32 0L28 0L28 1L27 1L27 2L25 2L25 1L26 1L26 0L24 0L24 1L23 1L23 0L21 0L21 2L20 2L20 3L18 3L18 4L20 4L20 3L21 3L21 4L22 4L22 5L21 5L21 6L20 6L20 5L17 5L17 4L16 4L16 2L17 2L17 1L16 1L16 0ZM12 1L12 5L13 5L13 2L14 2L14 4L15 4L15 5L14 5L14 6L15 6L15 5L16 5L16 4L15 4L15 1ZM18 1L18 2L19 2L19 1ZM22 1L22 4L24 4L24 5L23 5L23 7L22 7L22 6L21 6L21 7L20 7L20 6L19 6L19 8L20 8L20 11L19 11L19 10L18 10L18 11L17 11L17 12L18 12L18 13L15 13L15 10L13 10L13 9L12 9L12 11L14 11L14 12L13 12L13 13L14 13L14 15L13 15L13 14L12 14L12 16L11 16L11 17L10 17L10 15L9 15L9 14L7 14L7 13L6 13L6 12L3 12L3 14L5 14L5 15L3 15L3 17L5 17L5 15L6 15L6 16L8 16L8 15L9 15L9 20L8 20L8 21L6 21L6 22L7 22L7 23L6 23L6 24L7 24L7 25L5 25L5 23L4 23L4 25L5 25L5 26L9 26L9 23L10 23L10 22L12 22L12 23L14 23L14 22L15 22L15 23L16 23L16 24L15 24L15 26L16 26L16 28L17 28L17 29L15 29L15 28L14 28L14 29L15 29L15 30L12 30L12 31L13 31L13 34L15 34L15 35L14 35L14 36L15 36L15 35L16 35L16 37L15 37L15 38L14 38L14 37L13 37L13 36L12 36L12 35L11 35L11 36L10 36L10 37L11 37L11 36L12 36L12 38L10 38L10 43L5 43L5 42L4 42L4 43L5 43L5 44L7 44L7 45L5 45L5 46L3 46L3 47L5 47L5 46L7 46L7 45L9 45L9 46L8 46L8 47L9 47L9 46L10 46L10 47L11 47L11 48L9 48L9 49L10 49L10 50L11 50L11 52L13 52L13 53L14 53L14 52L15 52L15 50L16 50L16 51L18 51L18 52L19 52L19 53L23 53L23 54L24 54L24 53L23 53L23 52L24 52L24 51L23 51L23 50L22 50L22 51L23 51L23 52L20 52L20 51L21 51L21 49L24 49L24 47L23 47L23 45L25 45L25 48L29 48L29 45L28 45L28 44L29 44L29 43L30 43L30 44L31 44L31 45L32 45L32 46L31 46L31 47L32 47L32 46L39 46L39 47L34 47L34 48L31 48L31 49L33 49L33 50L31 50L31 52L32 52L32 54L33 54L33 55L34 55L34 54L35 54L35 55L36 55L36 54L35 54L35 53L36 53L36 52L38 52L38 53L37 53L37 54L39 54L39 52L40 52L40 55L41 55L41 52L40 52L40 51L41 51L41 50L42 50L42 51L44 51L44 53L43 53L43 52L42 52L42 53L43 53L43 56L44 56L44 55L46 55L46 56L47 56L47 55L46 55L46 54L47 54L47 53L48 53L48 54L51 54L51 55L53 55L53 54L51 54L51 53L48 53L48 52L47 52L47 51L48 51L48 48L50 48L50 47L51 47L51 48L53 48L53 47L54 47L54 45L55 45L55 44L56 44L56 43L55 43L55 44L54 44L54 45L51 45L51 44L49 44L49 43L48 43L48 44L47 44L47 45L46 45L46 46L47 46L47 48L43 48L43 50L42 50L42 49L41 49L41 48L39 48L39 47L41 47L41 46L42 46L42 47L43 47L43 46L44 46L44 47L45 47L45 46L44 46L44 45L45 45L45 43L44 43L44 42L48 42L48 41L51 41L51 42L50 42L50 43L51 43L51 42L53 42L53 43L52 43L52 44L53 44L53 43L54 43L54 41L53 41L53 40L54 40L54 39L55 39L55 38L54 38L54 37L53 37L53 36L54 36L54 35L55 35L55 34L56 34L56 33L55 33L55 32L54 32L54 31L55 31L55 30L54 30L54 29L53 29L53 31L51 31L51 32L50 32L50 35L46 35L46 34L47 34L47 33L48 33L48 34L49 34L49 31L48 31L48 29L46 29L46 30L45 30L45 28L44 28L44 30L42 30L42 29L43 29L43 28L42 28L42 26L41 26L41 28L38 28L38 26L39 26L39 25L41 25L41 24L40 24L40 23L41 23L41 21L42 21L42 20L40 20L40 19L43 19L43 18L40 18L40 19L39 19L39 20L38 20L38 19L35 19L35 21L34 21L34 19L33 19L33 18L35 18L35 17L34 17L34 16L37 16L37 18L39 18L39 17L41 17L41 16L39 16L39 15L36 15L36 14L42 14L42 15L43 15L43 14L44 14L44 15L45 15L45 12L46 12L46 14L47 14L47 13L49 13L49 12L48 12L48 11L47 11L47 10L48 10L48 9L49 9L49 8L48 8L48 9L47 9L47 8L46 8L46 9L45 9L45 8L43 8L43 10L42 10L42 9L41 9L41 8L42 8L42 6L43 6L43 7L44 7L44 6L45 6L45 7L46 7L46 5L47 5L47 3L46 3L46 4L45 4L45 3L42 3L42 2L41 2L41 1L40 1L40 2L41 2L41 3L40 3L40 4L39 4L39 2L38 2L38 1L37 1L37 2L36 2L36 1L35 1L35 3L34 3L34 4L33 4L33 3L32 3L32 4L31 4L31 1L28 1L28 2L27 2L27 3L28 3L28 4L31 4L31 8L33 8L33 7L34 7L34 8L35 8L35 9L33 9L33 11L31 11L31 10L32 10L32 9L31 9L31 10L30 10L30 9L26 9L26 6L25 6L25 4L26 4L26 3L25 3L25 4L24 4L24 2L23 2L23 1ZM46 1L46 2L47 2L47 1ZM28 2L28 3L30 3L30 2ZM37 2L37 3L36 3L36 5L35 5L35 6L34 6L34 5L33 5L33 6L32 6L32 7L33 7L33 6L34 6L34 7L35 7L35 6L36 6L36 7L37 7L37 6L38 6L38 8L36 8L36 9L35 9L35 10L34 10L34 11L33 11L33 13L35 13L35 12L36 12L36 13L38 13L38 12L39 12L39 13L40 13L40 12L41 12L41 11L42 11L42 14L43 14L43 13L44 13L44 12L45 12L45 10L43 10L43 11L42 11L42 10L41 10L41 9L40 9L40 10L41 10L41 11L40 11L40 12L39 12L39 10L38 10L38 8L40 8L40 7L41 7L41 6L42 6L42 5L43 5L43 4L42 4L42 3L41 3L41 4L40 4L40 5L41 5L41 6L40 6L40 7L39 7L39 5L38 5L38 4L37 4L37 3L38 3L38 2ZM41 4L41 5L42 5L42 4ZM44 4L44 5L45 5L45 4ZM27 5L27 8L30 8L30 5ZM36 5L36 6L37 6L37 5ZM17 6L17 7L18 7L18 6ZM24 6L24 7L23 7L23 8L24 8L24 9L22 9L22 7L21 7L21 9L22 9L22 10L21 10L21 11L22 11L22 10L23 10L23 11L24 11L24 12L23 12L23 13L24 13L24 14L23 14L23 15L22 15L22 14L21 14L21 16L20 16L20 15L19 15L19 13L18 13L18 15L19 15L19 16L18 16L18 17L17 17L17 14L15 14L15 15L16 15L16 16L15 16L15 17L17 17L17 18L14 18L14 16L12 16L12 17L11 17L11 19L10 19L10 20L9 20L9 21L10 21L10 20L11 20L11 21L12 21L12 22L13 22L13 21L15 21L15 22L16 22L16 21L15 21L15 19L18 19L18 21L19 21L19 22L17 22L17 24L16 24L16 25L17 25L17 26L18 26L18 27L17 27L17 28L18 28L18 29L17 29L17 30L16 30L16 31L17 31L17 30L20 30L20 31L19 31L19 32L18 32L18 33L19 33L19 34L18 34L18 35L20 35L20 33L21 33L21 34L23 34L23 35L21 35L21 37L22 37L22 38L21 38L21 39L22 39L22 38L24 38L24 37L25 37L25 36L27 36L27 37L28 37L28 38L25 38L25 40L24 40L24 39L23 39L23 40L24 40L24 41L21 41L21 43L22 43L22 42L23 42L23 43L24 43L24 44L25 44L25 45L26 45L26 44L25 44L25 43L24 43L24 42L26 42L26 43L27 43L27 44L28 44L28 42L26 42L26 41L28 41L28 40L29 40L29 39L31 39L31 38L32 38L32 35L33 35L33 37L35 37L35 34L36 34L36 35L39 35L39 34L40 34L40 32L41 32L41 34L43 34L43 36L41 36L41 35L40 35L40 36L36 36L36 39L34 39L34 38L33 38L33 39L34 39L34 40L30 40L30 41L29 41L29 42L30 42L30 43L31 43L31 44L34 44L34 42L36 42L36 44L35 44L35 45L39 45L39 46L40 46L40 45L39 45L39 44L40 44L40 43L41 43L41 44L43 44L43 45L42 45L42 46L43 46L43 45L44 45L44 43L43 43L43 41L44 41L44 40L43 40L43 39L41 39L41 40L42 40L42 41L40 41L40 43L39 43L39 42L38 42L38 40L39 40L39 38L40 38L40 36L41 36L41 38L43 38L43 37L44 37L44 38L46 38L46 39L45 39L45 40L46 40L46 41L47 41L47 38L48 38L48 39L50 39L50 40L51 40L51 41L52 41L52 38L51 38L51 37L52 37L52 36L53 36L53 34L52 34L52 36L51 36L51 37L50 37L50 36L49 36L49 38L48 38L48 37L47 37L47 36L46 36L46 37L44 37L44 32L46 32L46 31L47 31L47 32L48 32L48 31L47 31L47 30L46 30L46 31L44 31L44 32L43 32L43 31L42 31L42 30L40 30L40 32L39 32L39 30L37 30L37 31L38 31L38 32L35 32L35 34L34 34L34 33L33 33L33 34L32 34L32 33L31 33L31 34L32 34L32 35L30 35L30 34L29 34L29 35L30 35L30 36L29 36L29 37L28 37L28 36L27 36L27 35L26 35L26 34L25 34L25 33L26 33L26 32L25 32L25 31L27 31L27 33L30 33L30 31L31 31L31 32L34 32L34 31L36 31L36 29L37 29L37 26L38 26L38 25L37 25L37 24L36 24L36 23L37 23L37 22L38 22L38 20L36 20L36 21L37 21L37 22L36 22L36 23L34 23L34 24L36 24L36 25L35 25L35 27L34 27L34 25L33 25L33 27L34 27L34 28L33 28L33 29L32 29L32 28L31 28L31 26L32 26L32 25L30 25L30 24L32 24L32 23L33 23L33 21L32 21L32 20L33 20L33 19L32 19L32 17L29 17L29 18L31 18L31 19L28 19L28 18L27 18L27 17L28 17L28 16L26 16L26 14L25 14L25 13L28 13L28 14L27 14L27 15L30 15L30 16L34 16L34 15L35 15L35 14L33 14L33 15L32 15L32 12L31 12L31 11L30 11L30 10L26 10L26 11L27 11L27 12L25 12L25 8L24 8L24 7L25 7L25 6ZM28 6L28 7L29 7L29 6ZM0 8L0 10L1 10L1 11L2 11L2 10L5 10L5 8ZM36 10L36 12L37 12L37 10ZM29 11L29 12L28 12L28 13L29 13L29 14L30 14L30 13L29 13L29 12L30 12L30 11ZM34 11L34 12L35 12L35 11ZM55 11L55 12L56 12L56 11ZM20 12L20 13L22 13L22 12ZM24 12L24 13L25 13L25 12ZM51 13L51 14L52 14L52 13ZM6 14L6 15L7 15L7 14ZM0 15L0 16L1 16L1 15ZM23 15L23 16L22 16L22 17L24 17L24 15ZM19 16L19 17L18 17L18 19L19 19L19 21L23 21L23 22L22 22L22 23L21 23L21 25L20 25L20 27L19 27L19 29L20 29L20 30L21 30L21 31L20 31L20 32L21 32L21 31L22 31L22 33L24 33L24 32L23 32L23 31L22 31L22 30L23 30L23 29L25 29L25 30L26 30L26 27L25 27L25 28L23 28L23 29L22 29L22 28L21 28L21 27L22 27L22 26L23 26L23 27L24 27L24 26L23 26L23 25L25 25L25 26L26 26L26 25L27 25L27 24L28 24L28 26L29 26L29 24L30 24L30 23L31 23L31 22L30 22L30 21L29 21L29 20L27 20L27 18L26 18L26 16L25 16L25 18L24 18L24 19L22 19L22 20L21 20L21 19L19 19L19 17L20 17L20 18L21 18L21 17L20 17L20 16ZM38 16L38 17L39 17L39 16ZM6 17L6 18L8 18L8 17ZM12 17L12 18L13 18L13 17ZM3 18L3 19L5 19L5 18ZM6 19L6 20L7 20L7 19ZM11 19L11 20L12 20L12 21L13 21L13 20L14 20L14 19ZM25 19L25 20L23 20L23 21L24 21L24 22L23 22L23 23L22 23L22 24L23 24L23 23L24 23L24 24L25 24L25 25L26 25L26 24L25 24L25 23L26 23L26 22L25 22L25 21L26 21L26 19ZM50 19L50 22L49 22L49 23L50 23L50 22L51 22L51 23L52 23L52 22L53 22L53 21L55 21L55 20L54 20L54 19L52 19L52 20L51 20L51 19ZM4 20L4 21L5 21L5 20ZM39 20L39 23L40 23L40 20ZM2 21L2 22L3 22L3 21ZM27 21L27 23L28 23L28 24L29 24L29 23L30 23L30 22L29 22L29 21ZM19 22L19 23L18 23L18 24L19 24L19 23L20 23L20 22ZM28 22L28 23L29 23L29 22ZM7 23L7 24L8 24L8 23ZM53 23L53 24L54 24L54 25L55 25L55 24L56 24L56 23L55 23L55 24L54 24L54 23ZM10 24L10 25L11 25L11 24ZM13 25L13 26L12 26L12 27L13 27L13 26L14 26L14 25ZM18 25L18 26L19 26L19 25ZM21 25L21 26L22 26L22 25ZM36 25L36 26L37 26L37 25ZM47 26L47 27L46 27L46 28L47 28L47 27L48 27L48 26ZM5 27L5 30L8 30L8 27ZM9 27L9 31L10 31L10 32L11 32L11 33L12 33L12 32L11 32L11 30L10 30L10 28L11 28L11 29L13 29L13 28L11 28L11 27ZM27 27L27 30L30 30L30 27ZM35 27L35 28L36 28L36 27ZM49 27L49 30L52 30L52 27ZM3 28L3 29L4 29L4 28ZM6 28L6 29L7 29L7 28ZM20 28L20 29L21 29L21 30L22 30L22 29L21 29L21 28ZM28 28L28 29L29 29L29 28ZM50 28L50 29L51 29L51 28ZM31 29L31 31L33 31L33 30L35 30L35 29L33 29L33 30L32 30L32 29ZM28 31L28 32L29 32L29 31ZM41 31L41 32L42 32L42 33L43 33L43 32L42 32L42 31ZM14 32L14 33L17 33L17 32ZM38 32L38 33L37 33L37 34L39 34L39 32ZM51 32L51 33L54 33L54 34L55 34L55 33L54 33L54 32ZM45 33L45 34L46 34L46 33ZM1 34L1 35L3 35L3 34ZM16 34L16 35L17 35L17 34ZM24 34L24 36L22 36L22 37L24 37L24 36L25 36L25 34ZM33 34L33 35L34 35L34 34ZM7 36L7 37L6 37L6 38L7 38L7 39L6 39L6 40L7 40L7 41L6 41L6 42L7 42L7 41L8 41L8 40L9 40L9 36ZM17 36L17 37L16 37L16 38L15 38L15 39L16 39L16 40L17 40L17 38L18 38L18 41L17 41L17 42L16 42L16 43L15 43L15 45L18 45L18 47L21 47L21 48L20 48L20 49L19 49L19 48L18 48L18 49L17 49L17 47L15 47L15 46L14 46L14 47L13 47L13 45L14 45L14 41L15 41L15 40L14 40L14 39L12 39L12 40L11 40L11 41L12 41L12 43L13 43L13 44L11 44L11 43L10 43L10 44L9 44L9 45L10 45L10 46L12 46L12 47L13 47L13 48L15 48L15 49L17 49L17 50L18 50L18 51L19 51L19 50L20 50L20 49L21 49L21 48L23 48L23 47L22 47L22 46L20 46L20 45L22 45L22 44L20 44L20 41L19 41L19 39L20 39L20 38L18 38L18 37L20 37L20 36ZM30 36L30 38L31 38L31 36ZM7 37L7 38L8 38L8 37ZM38 37L38 38L39 38L39 37ZM46 37L46 38L47 38L47 37ZM2 38L2 39L3 39L3 40L5 40L5 38ZM50 38L50 39L51 39L51 38ZM53 38L53 39L54 39L54 38ZM27 39L27 40L28 40L28 39ZM36 39L36 40L38 40L38 39ZM13 40L13 41L14 41L14 40ZM18 41L18 43L16 43L16 44L18 44L18 45L20 45L20 44L19 44L19 41ZM30 41L30 42L32 42L32 41ZM33 41L33 42L34 42L34 41ZM37 43L37 44L39 44L39 43ZM3 44L3 45L4 45L4 44ZM48 44L48 45L47 45L47 46L48 46L48 45L49 45L49 47L50 47L50 46L51 46L51 47L53 47L53 46L51 46L51 45L49 45L49 44ZM27 45L27 46L26 46L26 47L28 47L28 45ZM1 46L1 47L2 47L2 46ZM11 48L11 50L12 50L12 51L13 51L13 50L14 50L14 49L12 49L12 48ZM35 48L35 50L33 50L33 51L32 51L32 52L33 52L33 53L35 53L35 52L36 52L36 51L37 51L37 50L38 50L38 52L39 52L39 51L40 51L40 50L41 50L41 49L40 49L40 50L38 50L38 49L37 49L37 48ZM18 49L18 50L19 50L19 49ZM25 49L25 53L26 53L26 49ZM27 49L27 52L30 52L30 49ZM44 49L44 50L45 50L45 52L46 52L46 53L44 53L44 54L46 54L46 53L47 53L47 52L46 52L46 51L47 51L47 50L45 50L45 49ZM49 49L49 52L52 52L52 49ZM28 50L28 51L29 51L29 50ZM35 50L35 51L36 51L36 50ZM50 50L50 51L51 51L51 50ZM54 51L54 52L57 52L57 51ZM29 53L29 54L30 54L30 53ZM19 54L19 55L18 55L18 56L19 56L19 55L20 55L20 54ZM25 55L25 56L26 56L26 55ZM38 55L38 56L39 56L39 55ZM0 0L0 7L7 7L7 0ZM1 1L1 6L6 6L6 1ZM2 2L2 5L5 5L5 2ZM50 0L50 7L57 7L57 0ZM51 1L51 6L56 6L56 1ZM52 2L52 5L55 5L55 2ZM0 50L0 57L7 57L7 50ZM1 51L1 56L6 56L6 51ZM2 52L2 55L5 55L5 52Z" fill="#000000"/></g></g></svg>
