<?xml version="1.0" encoding="UTF-8"?>
<svg xmlns="http://www.w3.org/2000/svg" version="1.1" width="300" height="300" viewBox="0 0 300 300"><rect x="0" y="0" width="300" height="300" fill="#ffffff"/><g transform="scale(4.918)"><g transform="translate(2,2)"><path fill-rule="evenodd" d="M12 0L12 1L10 1L10 2L9 2L9 1L8 1L8 2L9 2L9 3L8 3L8 4L10 4L10 5L8 5L8 7L9 7L9 6L10 6L10 8L6 8L6 9L8 9L8 11L9 11L9 10L10 10L10 11L11 11L11 10L10 10L10 8L11 8L11 6L12 6L12 14L11 14L11 15L10 15L10 14L9 14L9 13L10 13L10 12L9 12L9 13L8 13L8 12L6 12L6 11L7 11L7 10L5 10L5 8L0 8L0 9L2 9L2 10L5 10L5 11L3 11L3 12L2 12L2 11L0 11L0 12L2 12L2 13L0 13L0 17L2 17L2 16L3 16L3 15L1 15L1 14L2 14L2 13L3 13L3 14L4 14L4 15L7 15L7 14L9 14L9 15L8 15L8 16L11 16L11 17L10 17L10 18L8 18L8 21L9 21L9 23L8 23L8 22L5 22L5 23L4 23L4 22L2 22L2 21L4 21L4 19L5 19L5 20L6 20L6 21L7 21L7 20L6 20L6 19L7 19L7 18L6 18L6 19L5 19L5 18L4 18L4 17L3 17L3 18L4 18L4 19L2 19L2 20L1 20L1 18L0 18L0 21L1 21L1 22L2 22L2 25L1 25L1 27L0 27L0 28L1 28L1 29L0 29L0 31L1 31L1 32L2 32L2 33L1 33L1 34L0 34L0 35L1 35L1 36L0 36L0 37L1 37L1 36L2 36L2 35L3 35L3 37L4 37L4 35L3 35L3 34L6 34L6 35L7 35L7 36L6 36L6 37L8 37L8 39L12 39L12 41L14 41L14 42L13 42L13 44L15 44L15 45L13 45L13 46L12 46L12 45L11 45L11 44L12 44L12 43L10 43L10 44L9 44L9 46L11 46L11 47L10 47L10 51L9 51L9 49L8 49L8 48L9 48L9 47L8 47L8 44L6 44L6 43L7 43L7 42L8 42L8 43L9 43L9 42L10 42L10 41L11 41L11 40L9 40L9 41L7 41L7 40L5 40L5 39L7 39L7 38L5 38L5 39L4 39L4 38L1 38L1 39L3 39L3 41L4 41L4 43L5 43L5 44L4 44L4 45L3 45L3 43L1 43L1 42L2 42L2 41L1 41L1 40L0 40L0 41L1 41L1 42L0 42L0 44L1 44L1 45L0 45L0 48L5 48L5 47L8 47L8 48L6 48L6 49L8 49L8 51L9 51L9 52L8 52L8 57L9 57L9 52L10 52L10 53L11 53L11 54L10 54L10 56L11 56L11 57L12 57L12 54L13 54L13 55L15 55L15 56L14 56L14 57L15 57L15 56L16 56L16 57L17 57L17 56L18 56L18 57L20 57L20 56L21 56L21 55L23 55L23 56L24 56L24 57L26 57L26 56L28 56L28 55L26 55L26 56L25 56L25 54L27 54L27 53L28 53L28 54L29 54L29 57L32 57L32 56L31 56L31 55L34 55L34 57L35 57L35 55L38 55L38 56L39 56L39 55L40 55L40 56L41 56L41 57L44 57L44 56L43 56L43 55L42 55L42 54L43 54L43 53L44 53L44 54L45 54L45 56L46 56L46 57L47 57L47 55L49 55L49 54L50 54L50 55L51 55L51 56L50 56L50 57L52 57L52 56L53 56L53 57L56 57L56 56L55 56L55 53L54 53L54 52L55 52L55 51L56 51L56 52L57 52L57 51L56 51L56 50L57 50L57 49L56 49L56 48L57 48L57 47L56 47L56 48L55 48L55 47L54 47L54 48L55 48L55 49L54 49L54 50L53 50L53 47L52 47L52 45L54 45L54 46L57 46L57 44L56 44L56 41L55 41L55 40L56 40L56 39L53 39L53 40L52 40L52 39L51 39L51 41L49 41L49 39L50 39L50 37L49 37L49 36L51 36L51 37L52 37L52 36L53 36L53 37L54 37L54 38L55 38L55 37L54 37L54 36L56 36L56 37L57 37L57 36L56 36L56 34L57 34L57 33L56 33L56 32L57 32L57 31L56 31L56 32L55 32L55 30L57 30L57 29L56 29L56 28L55 28L55 27L56 27L56 25L54 25L54 24L55 24L55 23L56 23L56 24L57 24L57 23L56 23L56 22L57 22L57 21L55 21L55 22L53 22L53 23L51 23L51 22L50 22L50 19L48 19L48 18L50 18L50 17L49 17L49 16L48 16L48 17L47 17L47 16L46 16L46 15L50 15L50 16L53 16L53 17L54 17L54 18L55 18L55 19L54 19L54 20L53 20L53 18L51 18L51 19L52 19L52 20L51 20L51 21L52 21L52 20L53 20L53 21L54 21L54 20L57 20L57 19L56 19L56 18L57 18L57 16L56 16L56 14L57 14L57 13L56 13L56 14L55 14L55 13L54 13L54 15L51 15L51 14L52 14L52 13L51 13L51 12L50 12L50 13L51 13L51 14L49 14L49 13L47 13L47 14L46 14L46 12L45 12L45 11L47 11L47 10L45 10L45 9L46 9L46 8L47 8L47 5L48 5L48 0L46 0L46 1L45 1L45 0L44 0L44 1L45 1L45 2L42 2L42 1L43 1L43 0L42 0L42 1L37 1L37 0L35 0L35 1L33 1L33 2L30 2L30 1L32 1L32 0L30 0L30 1L29 1L29 2L28 2L28 3L27 3L27 1L28 1L28 0L27 0L27 1L26 1L26 0L21 0L21 2L24 2L24 4L22 4L22 3L21 3L21 4L22 4L22 5L21 5L21 6L20 6L20 5L18 5L18 7L17 7L17 4L20 4L20 3L19 3L19 2L20 2L20 0L19 0L19 2L17 2L17 1L16 1L16 2L14 2L14 1L15 1L15 0ZM12 1L12 2L11 2L11 3L10 3L10 4L11 4L11 5L12 5L12 6L13 6L13 9L15 9L15 10L13 10L13 11L14 11L14 12L13 12L13 13L14 13L14 14L12 14L12 15L11 15L11 16L14 16L14 18L16 18L16 20L15 20L15 21L13 21L13 20L14 20L14 19L11 19L11 20L12 20L12 23L13 23L13 25L8 25L8 23L5 23L5 25L4 25L4 23L3 23L3 25L4 25L4 26L5 26L5 25L6 25L6 26L9 26L9 27L10 27L10 26L13 26L13 25L14 25L14 27L13 27L13 28L12 28L12 29L11 29L11 30L12 30L12 31L13 31L13 30L15 30L15 29L16 29L16 31L15 31L15 32L17 32L17 29L18 29L18 28L17 28L17 27L18 27L18 26L19 26L19 28L21 28L21 29L19 29L19 30L18 30L18 31L20 31L20 32L19 32L19 33L16 33L16 35L15 35L15 34L13 34L13 33L14 33L14 32L13 32L13 33L12 33L12 32L10 32L10 31L9 31L9 32L8 32L8 31L6 31L6 32L5 32L5 31L4 31L4 32L3 32L3 33L6 33L6 34L7 34L7 33L9 33L9 34L10 34L10 35L11 35L11 33L12 33L12 34L13 34L13 35L12 35L12 36L10 36L10 37L9 37L9 38L11 38L11 37L12 37L12 39L13 39L13 35L15 35L15 36L16 36L16 37L15 37L15 38L16 38L16 37L17 37L17 38L20 38L20 39L18 39L18 40L21 40L21 41L19 41L19 42L18 42L18 41L15 41L15 40L16 40L16 39L15 39L15 40L14 40L14 41L15 41L15 42L14 42L14 43L16 43L16 44L18 44L18 45L15 45L15 46L13 46L13 47L11 47L11 48L14 48L14 47L16 47L16 48L17 48L17 46L18 46L18 48L19 48L19 49L12 49L12 51L10 51L10 52L11 52L11 53L12 53L12 51L15 51L15 52L13 52L13 53L14 53L14 54L15 54L15 55L16 55L16 56L17 56L17 53L18 53L18 54L19 54L19 55L20 55L20 54L19 54L19 53L21 53L21 54L22 54L22 53L24 53L24 51L25 51L25 53L26 53L26 49L25 49L25 48L27 48L27 47L26 47L26 46L29 46L29 45L30 45L30 46L31 46L31 47L28 47L28 48L31 48L31 49L32 49L32 51L31 51L31 52L32 52L32 54L34 54L34 55L35 55L35 53L36 53L36 52L38 52L38 55L39 55L39 52L40 52L40 55L41 55L41 56L42 56L42 55L41 55L41 54L42 54L42 53L43 53L43 52L42 52L42 51L44 51L44 53L45 53L45 54L47 54L47 53L48 53L48 52L47 52L47 51L48 51L48 48L50 48L50 47L51 47L51 48L52 48L52 47L51 47L51 46L50 46L50 47L49 47L49 46L48 46L48 44L47 44L47 45L46 45L46 46L48 46L48 47L46 47L46 48L43 48L43 46L44 46L44 45L45 45L45 44L44 44L44 43L45 43L45 42L44 42L44 43L43 43L43 42L41 42L41 40L40 40L40 39L44 39L44 41L45 41L45 40L46 40L46 42L47 42L47 43L48 43L48 42L47 42L47 41L48 41L48 40L47 40L47 39L48 39L48 38L49 38L49 37L48 37L48 36L49 36L49 35L51 35L51 36L52 36L52 34L53 34L53 33L55 33L55 32L54 32L54 31L52 31L52 32L53 32L53 33L51 33L51 32L49 32L49 31L48 31L48 28L47 28L47 27L48 27L48 25L49 25L49 24L50 24L50 26L51 26L51 25L53 25L53 27L55 27L55 26L54 26L54 25L53 25L53 24L51 24L51 23L50 23L50 22L49 22L49 23L48 23L48 21L49 21L49 20L48 20L48 19L46 19L46 18L47 18L47 17L46 17L46 18L45 18L45 16L42 16L42 17L41 17L41 16L40 16L40 14L42 14L42 15L43 15L43 14L44 14L44 15L45 15L45 12L44 12L44 13L43 13L43 14L42 14L42 11L44 11L44 10L42 10L42 8L43 8L43 7L44 7L44 9L45 9L45 7L46 7L46 5L47 5L47 3L43 3L43 5L42 5L42 6L41 6L41 3L40 3L40 5L39 5L39 2L38 2L38 6L37 6L37 5L36 5L36 3L37 3L37 2L35 2L35 3L34 3L34 2L33 2L33 3L32 3L32 4L31 4L31 3L30 3L30 2L29 2L29 3L28 3L28 4L31 4L31 9L32 9L32 10L31 10L31 11L29 11L29 10L28 10L28 9L25 9L25 7L26 7L26 6L25 6L25 7L24 7L24 6L23 6L23 5L22 5L22 6L21 6L21 7L20 7L20 6L19 6L19 7L18 7L18 8L17 8L17 9L15 9L15 8L16 8L16 6L15 6L15 8L14 8L14 4L15 4L15 5L16 5L16 4L17 4L17 2L16 2L16 4L15 4L15 3L14 3L14 4L13 4L13 3L12 3L12 2L13 2L13 1ZM24 1L24 2L25 2L25 1ZM46 1L46 2L47 2L47 1ZM33 3L33 4L34 4L34 3ZM25 4L25 5L26 5L26 4ZM44 4L44 5L45 5L45 4ZM27 5L27 8L30 8L30 5ZM35 5L35 6L34 6L34 7L35 7L35 6L36 6L36 8L35 8L35 10L36 10L36 9L37 9L37 8L38 8L38 9L39 9L39 10L37 10L37 12L34 12L34 11L33 11L33 10L32 10L32 11L33 11L33 13L35 13L35 14L33 14L33 15L32 15L32 14L31 14L31 13L32 13L32 12L31 12L31 13L30 13L30 12L29 12L29 11L27 11L27 10L26 10L26 11L27 11L27 12L25 12L25 11L24 11L24 10L25 10L25 9L23 9L23 11L22 11L22 9L21 9L21 8L23 8L23 6L22 6L22 7L21 7L21 8L18 8L18 9L17 9L17 11L18 11L18 9L19 9L19 11L20 11L20 9L21 9L21 12L19 12L19 13L18 13L18 12L16 12L16 13L15 13L15 15L14 15L14 16L15 16L15 17L16 17L16 13L18 13L18 14L17 14L17 15L18 15L18 16L17 16L17 17L19 17L19 18L18 18L18 19L17 19L17 20L18 20L18 21L17 21L17 22L18 22L18 23L17 23L17 24L16 24L16 23L15 23L15 22L16 22L16 21L15 21L15 22L14 22L14 24L16 24L16 25L15 25L15 26L16 26L16 25L19 25L19 26L20 26L20 27L21 27L21 28L23 28L23 29L22 29L22 31L21 31L21 32L20 32L20 33L21 33L21 37L22 37L22 38L21 38L21 39L23 39L23 37L24 37L24 38L25 38L25 37L24 37L24 36L23 36L23 37L22 37L22 35L23 35L23 34L24 34L24 35L26 35L26 36L27 36L27 35L26 35L26 34L27 34L27 33L29 33L29 35L30 35L30 36L28 36L28 37L29 37L29 39L31 39L31 38L32 38L32 35L33 35L33 34L34 34L34 36L33 36L33 37L34 37L34 36L35 36L35 35L39 35L39 34L41 34L41 35L40 35L40 36L36 36L36 38L35 38L35 39L37 39L37 40L34 40L34 38L33 38L33 41L35 41L35 42L33 42L33 44L34 44L34 43L35 43L35 42L36 42L36 41L37 41L37 40L39 40L39 39L37 39L37 38L38 38L38 37L39 37L39 38L40 38L40 36L41 36L41 37L42 37L42 38L43 38L43 37L44 37L44 38L45 38L45 39L47 39L47 38L45 38L45 37L44 37L44 33L42 33L42 32L46 32L46 31L47 31L47 32L48 32L48 31L47 31L47 30L46 30L46 29L47 29L47 28L46 28L46 27L47 27L47 26L45 26L45 25L44 25L44 24L45 24L45 23L47 23L47 24L46 24L46 25L48 25L48 23L47 23L47 22L45 22L45 21L44 21L44 24L43 24L43 25L42 25L42 23L40 23L40 22L39 22L39 24L41 24L41 25L40 25L40 26L43 26L43 27L42 27L42 28L43 28L43 29L42 29L42 30L41 30L41 29L39 29L39 28L40 28L40 27L39 27L39 28L38 28L38 29L37 29L37 26L38 26L38 25L37 25L37 24L34 24L34 22L33 22L33 21L34 21L34 20L33 20L33 19L32 19L32 18L34 18L34 19L35 19L35 18L36 18L36 19L37 19L37 18L38 18L38 20L36 20L36 21L37 21L37 22L36 22L36 23L37 23L37 22L38 22L38 20L39 20L39 21L40 21L40 20L41 20L41 19L42 19L42 20L46 20L46 21L47 21L47 20L46 20L46 19L45 19L45 18L44 18L44 19L42 19L42 18L43 18L43 17L42 17L42 18L41 18L41 19L40 19L40 18L38 18L38 17L40 17L40 16L38 16L38 15L39 15L39 14L37 14L37 13L38 13L38 12L40 12L40 10L41 10L41 9L39 9L39 8L42 8L42 7L43 7L43 6L42 6L42 7L41 7L41 6L40 6L40 7L39 7L39 6L38 6L38 7L37 7L37 6L36 6L36 5ZM28 6L28 7L29 7L29 6ZM32 6L32 8L33 8L33 9L34 9L34 8L33 8L33 6ZM44 6L44 7L45 7L45 6ZM48 6L48 8L49 8L49 9L48 9L48 10L50 10L50 11L52 11L52 12L53 12L53 11L54 11L54 12L55 12L55 11L56 11L56 12L57 12L57 11L56 11L56 10L57 10L57 9L56 9L56 8L55 8L55 11L54 11L54 10L52 10L52 8L51 8L51 10L50 10L50 8L49 8L49 6ZM38 7L38 8L39 8L39 7ZM53 8L53 9L54 9L54 8ZM23 11L23 12L22 12L22 13L23 13L23 14L24 14L24 13L25 13L25 14L28 14L28 13L29 13L29 14L30 14L30 15L29 15L29 16L27 16L27 15L23 15L23 16L22 16L22 14L21 14L21 13L19 13L19 14L18 14L18 15L19 15L19 14L20 14L20 16L19 16L19 17L20 17L20 18L19 18L19 19L18 19L18 20L19 20L19 21L18 21L18 22L19 22L19 23L18 23L18 24L19 24L19 25L20 25L20 26L22 26L22 27L23 27L23 25L24 25L24 23L25 23L25 24L28 24L28 25L29 25L29 24L28 24L28 23L26 23L26 22L27 22L27 21L29 21L29 22L30 22L30 23L31 23L31 22L30 22L30 21L31 21L31 20L30 20L30 19L31 19L31 18L29 18L29 17L34 17L34 18L35 18L35 17L36 17L36 16L37 16L37 17L38 17L38 16L37 16L37 14L35 14L35 15L34 15L34 16L30 16L30 15L31 15L31 14L30 14L30 13L29 13L29 12L28 12L28 13L25 13L25 12L24 12L24 11ZM4 12L4 14L5 14L5 12ZM23 12L23 13L24 13L24 12ZM6 13L6 14L7 14L7 13ZM35 15L35 16L36 16L36 15ZM6 16L6 17L7 17L7 16ZM25 16L25 17L21 17L21 18L23 18L23 21L22 21L22 19L21 19L21 21L19 21L19 22L20 22L20 23L19 23L19 24L22 24L22 23L24 23L24 22L26 22L26 21L27 21L27 20L26 20L26 18L27 18L27 19L28 19L28 18L27 18L27 16ZM54 16L54 17L56 17L56 16ZM11 17L11 18L13 18L13 17ZM25 17L25 18L24 18L24 21L26 21L26 20L25 20L25 18L26 18L26 17ZM9 19L9 20L10 20L10 19ZM39 19L39 20L40 20L40 19ZM29 20L29 21L30 21L30 20ZM32 20L32 21L33 21L33 20ZM10 21L10 23L9 23L9 24L11 24L11 21ZM21 21L21 22L22 22L22 21ZM41 21L41 22L43 22L43 21ZM6 24L6 25L7 25L7 24ZM32 24L32 26L35 26L35 27L36 27L36 26L37 26L37 25L36 25L36 26L35 26L35 25L34 25L34 24ZM25 25L25 26L26 26L26 25ZM43 25L43 26L44 26L44 27L45 27L45 26L44 26L44 25ZM1 27L1 28L3 28L3 29L4 29L4 27ZM5 27L5 30L8 30L8 27ZM14 27L14 28L13 28L13 29L14 29L14 28L15 28L15 27ZM25 27L25 28L24 28L24 29L23 29L23 31L22 31L22 32L21 32L21 33L25 33L25 34L26 34L26 33L27 33L27 31L26 31L26 32L23 32L23 31L24 31L24 29L25 29L25 30L26 30L26 27ZM27 27L27 30L30 30L30 27ZM31 27L31 28L32 28L32 29L31 29L31 30L32 30L32 31L33 31L33 30L36 30L36 29L33 29L33 28L34 28L34 27ZM49 27L49 30L52 30L52 27ZM6 28L6 29L7 29L7 28ZM16 28L16 29L17 29L17 28ZM28 28L28 29L29 29L29 28ZM44 28L44 30L42 30L42 31L46 31L46 30L45 30L45 28ZM50 28L50 29L51 29L51 28ZM54 28L54 29L53 29L53 30L55 30L55 28ZM1 29L1 30L2 30L2 31L3 31L3 30L2 30L2 29ZM32 29L32 30L33 30L33 29ZM38 29L38 30L37 30L37 31L36 31L36 32L34 32L34 34L39 34L39 33L41 33L41 34L42 34L42 35L43 35L43 34L42 34L42 33L41 33L41 32L39 32L39 29ZM40 30L40 31L41 31L41 30ZM28 31L28 32L29 32L29 33L30 33L30 34L31 34L31 35L32 35L32 34L33 34L33 32L31 32L31 31ZM37 31L37 32L36 32L36 33L38 33L38 31ZM6 32L6 33L7 33L7 32ZM30 32L30 33L31 33L31 34L32 34L32 33L31 33L31 32ZM45 33L45 34L46 34L46 35L45 35L45 36L47 36L47 35L48 35L48 33L47 33L47 34L46 34L46 33ZM49 33L49 34L50 34L50 33ZM18 34L18 35L19 35L19 36L17 36L17 37L20 37L20 34ZM8 35L8 36L9 36L9 35ZM53 35L53 36L54 36L54 35ZM30 36L30 38L31 38L31 36ZM26 37L26 39L27 39L27 37ZM25 40L25 41L22 41L22 43L23 43L23 45L24 45L24 46L23 46L23 47L25 47L25 45L26 45L26 44L27 44L27 45L29 45L29 44L30 44L30 43L32 43L32 40L31 40L31 41L30 41L30 43L28 43L28 42L26 42L26 44L25 44L25 41L26 41L26 40ZM27 40L27 41L28 41L28 40ZM53 40L53 41L51 41L51 42L50 42L50 43L52 43L52 44L53 44L53 43L54 43L54 40ZM6 41L6 42L7 42L7 41ZM39 41L39 42L37 42L37 43L36 43L36 44L35 44L35 46L33 46L33 45L32 45L32 44L31 44L31 45L32 45L32 46L33 46L33 47L31 47L31 48L34 48L34 47L35 47L35 48L36 48L36 51L35 51L35 50L33 50L33 51L32 51L32 52L33 52L33 53L34 53L34 52L36 52L36 51L38 51L38 52L39 52L39 51L40 51L40 52L41 52L41 51L40 51L40 50L43 50L43 48L41 48L41 47L42 47L42 46L43 46L43 45L44 45L44 44L43 44L43 43L41 43L41 42L40 42L40 41ZM17 42L17 43L18 43L18 42ZM23 42L23 43L24 43L24 42ZM52 42L52 43L53 43L53 42ZM27 43L27 44L28 44L28 43ZM37 43L37 45L38 45L38 46L37 46L37 47L36 47L36 46L35 46L35 47L36 47L36 48L38 48L38 49L37 49L37 50L40 50L40 49L41 49L41 48L38 48L38 47L39 47L39 45L38 45L38 44L39 44L39 43ZM5 44L5 45L4 45L4 46L3 46L3 47L5 47L5 45L6 45L6 46L7 46L7 45L6 45L6 44ZM20 44L20 45L18 45L18 46L20 46L20 47L19 47L19 48L20 48L20 49L19 49L19 50L15 50L15 51L16 51L16 52L18 52L18 53L19 53L19 52L20 52L20 51L19 51L19 50L20 50L20 49L21 49L21 48L20 48L20 47L22 47L22 44ZM24 44L24 45L25 45L25 44ZM40 44L40 45L41 45L41 46L42 46L42 45L43 45L43 44ZM49 44L49 45L51 45L51 44ZM54 44L54 45L56 45L56 44ZM20 45L20 46L21 46L21 45ZM1 46L1 47L2 47L2 46ZM22 49L22 50L21 50L21 51L22 51L22 52L21 52L21 53L22 53L22 52L23 52L23 51L24 51L24 50L25 50L25 49ZM27 49L27 52L30 52L30 49ZM45 49L45 50L44 50L44 51L45 51L45 50L46 50L46 51L47 51L47 50L46 50L46 49ZM49 49L49 52L52 52L52 49ZM55 49L55 50L56 50L56 49ZM22 50L22 51L23 51L23 50ZM28 50L28 51L29 51L29 50ZM50 50L50 51L51 51L51 50ZM53 51L53 52L54 52L54 51ZM46 52L46 53L47 53L47 52ZM15 53L15 54L16 54L16 53ZM50 53L50 54L51 54L51 55L53 55L53 54L51 54L51 53ZM23 54L23 55L24 55L24 54ZM30 54L30 55L31 55L31 54ZM36 56L36 57L37 57L37 56ZM0 0L0 7L7 7L7 0ZM1 1L1 6L6 6L6 1ZM2 2L2 5L5 5L5 2ZM50 0L50 7L57 7L57 0ZM51 1L51 6L56 6L56 1ZM52 2L52 5L55 5L55 2ZM0 50L0 57L7 57L7 50ZM1 51L1 56L6 56L6 51ZM2 52L2 55L5 55L5 52Z" fill="#000000"/></g></g></svg>
