<?xml version="1.0" encoding="UTF-8"?>
<svg xmlns="http://www.w3.org/2000/svg" version="1.1" width="300" height="300" viewBox="0 0 300 300"><rect x="0" y="0" width="300" height="300" fill="#ffffff"/><g transform="scale(4.918)"><g transform="translate(2,2)"><path fill-rule="evenodd" d="M14 0L14 1L15 1L15 0ZM21 0L21 2L20 2L20 3L21 3L21 4L19 4L19 3L18 3L18 4L19 4L19 5L18 5L18 7L17 7L17 6L16 6L16 7L15 7L15 6L14 6L14 5L16 5L16 4L14 4L14 2L11 2L11 1L8 1L8 2L9 2L9 3L8 3L8 4L9 4L9 5L8 5L8 7L9 7L9 5L12 5L12 8L11 8L11 6L10 6L10 8L11 8L11 10L10 10L10 11L9 11L9 14L10 14L10 17L9 17L9 19L7 19L7 18L6 18L6 17L8 17L8 11L7 11L7 10L9 10L9 8L6 8L6 9L7 9L7 10L6 10L6 11L5 11L5 8L0 8L0 11L2 11L2 13L1 13L1 14L0 14L0 16L1 16L1 18L4 18L4 19L0 19L0 22L1 22L1 20L2 20L2 22L4 22L4 24L2 24L2 23L0 23L0 25L1 25L1 26L3 26L3 27L0 27L0 31L1 31L1 32L2 32L2 33L1 33L1 35L0 35L0 37L4 37L4 38L5 38L5 40L4 40L4 39L3 39L3 38L0 38L0 41L1 41L1 42L0 42L0 43L2 43L2 41L1 41L1 39L2 39L2 40L4 40L4 41L3 41L3 45L2 45L2 44L0 44L0 48L5 48L5 47L8 47L8 46L9 46L9 48L8 48L8 51L9 51L9 52L8 52L8 57L11 57L11 56L12 56L12 57L15 57L15 55L16 55L16 56L17 56L17 57L19 57L19 55L20 55L20 54L17 54L17 53L20 53L20 52L21 52L21 53L22 53L22 54L21 54L21 55L22 55L22 54L24 54L24 53L26 53L26 54L25 54L25 55L26 55L26 54L27 54L27 53L28 53L28 54L30 54L30 53L31 53L31 55L33 55L33 54L32 54L32 52L34 52L34 51L35 51L35 52L36 52L36 53L37 53L37 54L35 54L35 55L34 55L34 56L30 56L30 55L29 55L29 56L30 56L30 57L35 57L35 56L36 56L36 57L37 57L37 56L38 56L38 55L39 55L39 56L40 56L40 52L41 52L41 51L42 51L42 52L43 52L43 53L41 53L41 54L43 54L43 53L44 53L44 54L45 54L45 56L48 56L48 55L49 55L49 56L50 56L50 55L51 55L51 57L52 57L52 56L55 56L55 57L56 57L56 56L55 56L55 55L51 55L51 54L53 54L53 49L54 49L54 48L55 48L55 50L57 50L57 49L56 49L56 48L55 48L55 47L56 47L56 46L57 46L57 45L54 45L54 44L55 44L55 43L56 43L56 42L57 42L57 41L54 41L54 40L55 40L55 39L57 39L57 37L56 37L56 35L54 35L54 36L53 36L53 34L52 34L52 37L54 37L54 36L55 36L55 37L56 37L56 38L52 38L52 39L54 39L54 40L53 40L53 41L54 41L54 43L53 43L53 42L51 42L51 41L52 41L52 40L51 40L51 41L48 41L48 42L45 42L45 41L44 41L44 39L43 39L43 37L44 37L44 38L45 38L45 37L44 37L44 34L43 34L43 33L44 33L44 32L45 32L45 31L44 31L44 32L43 32L43 31L42 31L42 30L44 30L44 27L43 27L43 26L45 26L45 25L44 25L44 23L45 23L45 24L46 24L46 22L45 22L45 21L46 21L46 20L47 20L47 25L48 25L48 26L47 26L47 28L46 28L46 27L45 27L45 30L46 30L46 31L47 31L47 32L48 32L48 31L50 31L50 32L51 32L51 33L54 33L54 34L57 34L57 33L56 33L56 30L57 30L57 29L56 29L56 26L57 26L57 23L56 23L56 22L57 22L57 20L56 20L56 19L55 19L55 18L57 18L57 17L54 17L54 16L55 16L55 15L56 15L56 16L57 16L57 15L56 15L56 14L57 14L57 12L56 12L56 10L55 10L55 11L54 11L54 10L53 10L53 11L52 11L52 12L53 12L53 11L54 11L54 12L56 12L56 14L55 14L55 13L54 13L54 16L53 16L53 15L52 15L52 16L53 16L53 18L50 18L50 16L47 16L47 18L46 18L46 16L45 16L45 15L50 15L50 11L51 11L51 10L52 10L52 8L51 8L51 10L49 10L49 9L50 9L50 8L49 8L49 9L47 9L47 5L48 5L48 0L46 0L46 1L45 1L45 0L44 0L44 1L43 1L43 0L42 0L42 1L41 1L41 2L40 2L40 0L39 0L39 1L38 1L38 0L35 0L35 1L34 1L34 0L32 0L32 1L34 1L34 3L33 3L33 2L31 2L31 3L30 3L30 4L28 4L28 3L29 3L29 2L30 2L30 1L31 1L31 0L30 0L30 1L29 1L29 0L27 0L27 1L29 1L29 2L28 2L28 3L27 3L27 4L26 4L26 3L25 3L25 1L26 1L26 0L24 0L24 1L23 1L23 0ZM18 1L18 2L19 2L19 1ZM22 1L22 4L21 4L21 7L22 7L22 8L20 8L20 11L19 11L19 15L18 15L18 14L17 14L17 13L18 13L18 12L17 12L17 13L13 13L13 12L14 12L14 11L12 11L12 13L13 13L13 14L11 14L11 13L10 13L10 14L11 14L11 18L10 18L10 21L9 21L9 20L7 20L7 19L6 19L6 20L5 20L5 19L4 19L4 20L5 20L5 21L6 21L6 22L5 22L5 23L6 23L6 24L9 24L9 23L10 23L10 25L3 25L3 26L11 26L11 27L10 27L10 28L9 28L9 29L10 29L10 28L12 28L12 31L13 31L13 32L12 32L12 33L11 33L11 32L10 32L10 31L11 31L11 30L9 30L9 31L6 31L6 32L5 32L5 31L4 31L4 32L3 32L3 30L2 30L2 28L1 28L1 31L2 31L2 32L3 32L3 33L2 33L2 36L3 36L3 33L4 33L4 35L5 35L5 36L4 36L4 37L5 37L5 38L7 38L7 37L6 37L6 36L8 36L8 37L9 37L9 35L10 35L10 36L12 36L12 37L10 37L10 38L12 38L12 42L13 42L13 44L10 44L10 43L11 43L11 42L10 42L10 41L6 41L6 40L8 40L8 39L6 39L6 40L5 40L5 41L4 41L4 43L5 43L5 41L6 41L6 42L9 42L9 43L8 43L8 44L9 44L9 46L10 46L10 48L9 48L9 49L10 49L10 50L9 50L9 51L11 51L11 52L10 52L10 54L9 54L9 55L10 55L10 56L11 56L11 55L10 55L10 54L11 54L11 53L12 53L12 54L14 54L14 55L12 55L12 56L14 56L14 55L15 55L15 54L16 54L16 53L17 53L17 51L18 51L18 52L20 52L20 51L23 51L23 52L22 52L22 53L24 53L24 51L23 51L23 50L21 50L21 49L24 49L24 47L25 47L25 48L29 48L29 46L30 46L30 45L31 45L31 47L30 47L30 48L32 48L32 49L31 49L31 50L32 50L32 51L31 51L31 52L32 52L32 51L34 51L34 50L35 50L35 51L36 51L36 52L37 52L37 53L38 53L38 54L39 54L39 53L38 53L38 51L36 51L36 50L40 50L40 51L39 51L39 52L40 52L40 51L41 51L41 50L42 50L42 51L43 51L43 50L44 50L44 53L45 53L45 54L51 54L51 53L48 53L48 52L46 52L46 53L45 53L45 51L46 51L46 50L47 50L47 51L48 51L48 48L50 48L50 47L51 47L51 48L54 48L54 47L53 47L53 45L51 45L51 44L49 44L49 45L48 45L48 44L47 44L47 45L46 45L46 46L47 46L47 48L46 48L46 50L45 50L45 48L44 48L44 46L45 46L45 43L44 43L44 42L43 42L43 43L44 43L44 45L43 45L43 44L41 44L41 43L42 43L42 42L41 42L41 41L43 41L43 40L42 40L42 39L41 39L41 36L40 36L40 35L41 35L41 34L42 34L42 35L43 35L43 34L42 34L42 33L41 33L41 32L42 32L42 31L41 31L41 32L39 32L39 29L40 29L40 30L42 30L42 29L43 29L43 28L42 28L42 26L41 26L41 25L42 25L42 24L43 24L43 23L44 23L44 21L45 21L45 20L43 20L43 18L42 18L42 16L40 16L40 15L41 15L41 14L42 14L42 15L44 15L44 14L45 14L45 12L46 12L46 14L47 14L47 13L49 13L49 11L48 11L48 10L47 10L47 9L45 9L45 7L46 7L46 5L47 5L47 3L43 3L43 1L42 1L42 4L41 4L41 3L40 3L40 4L38 4L38 3L37 3L37 2L38 2L38 1L35 1L35 3L34 3L34 5L36 5L36 6L35 6L35 7L36 7L36 8L34 8L34 6L33 6L33 3L32 3L32 4L31 4L31 7L32 7L32 8L31 8L31 9L32 9L32 10L31 10L31 11L30 11L30 10L28 10L28 11L30 11L30 12L28 12L28 13L26 13L26 14L24 14L24 13L25 13L25 12L27 12L27 11L26 11L26 10L27 10L27 9L25 9L25 8L26 8L26 4L25 4L25 8L24 8L24 6L23 6L23 5L24 5L24 4L23 4L23 3L24 3L24 2L23 2L23 1ZM44 1L44 2L45 2L45 1ZM46 1L46 2L47 2L47 1ZM10 2L10 3L9 3L9 4L12 4L12 3L11 3L11 2ZM15 2L15 3L17 3L17 2ZM36 3L36 5L38 5L38 7L39 7L39 5L38 5L38 4L37 4L37 3ZM22 4L22 5L23 5L23 4ZM40 4L40 5L41 5L41 4ZM42 4L42 5L43 5L43 4ZM44 4L44 5L46 5L46 4ZM19 5L19 7L20 7L20 5ZM27 5L27 8L30 8L30 5ZM13 6L13 8L12 8L12 9L13 9L13 8L14 8L14 9L15 9L15 11L18 11L18 10L19 10L19 9L18 9L18 8L17 8L17 7L16 7L16 8L14 8L14 6ZM22 6L22 7L23 7L23 6ZM28 6L28 7L29 7L29 6ZM32 6L32 7L33 7L33 6ZM36 6L36 7L37 7L37 6ZM40 6L40 7L41 7L41 11L42 11L42 14L44 14L44 12L45 12L45 11L47 11L47 10L45 10L45 9L44 9L44 8L43 8L43 6L42 6L42 7L41 7L41 6ZM44 6L44 7L45 7L45 6ZM48 6L48 7L49 7L49 6ZM16 8L16 9L17 9L17 10L18 10L18 9L17 9L17 8ZM23 8L23 9L21 9L21 10L22 10L22 11L21 11L21 12L20 12L20 13L21 13L21 14L20 14L20 15L19 15L19 16L18 16L18 17L17 17L17 14L15 14L15 15L12 15L12 17L13 17L13 18L12 18L12 20L14 20L14 19L13 19L13 18L14 18L14 16L15 16L15 15L16 15L16 17L15 17L15 18L16 18L16 19L15 19L15 21L16 21L16 22L15 22L15 23L16 23L16 24L17 24L17 25L22 25L22 26L20 26L20 27L22 27L22 26L24 26L24 27L23 27L23 29L24 29L24 30L22 30L22 31L20 31L20 29L22 29L22 28L20 28L20 29L18 29L18 28L17 28L17 27L18 27L18 26L16 26L16 27L15 27L15 26L14 26L14 25L15 25L15 24L14 24L14 21L13 21L13 25L12 25L12 21L10 21L10 23L11 23L11 25L12 25L12 27L13 27L13 26L14 26L14 28L15 28L15 29L14 29L14 30L13 30L13 31L14 31L14 32L13 32L13 33L12 33L12 35L13 35L13 36L16 36L16 35L13 35L13 34L14 34L14 33L17 33L17 32L15 32L15 31L14 31L14 30L15 30L15 29L18 29L18 30L19 30L19 31L20 31L20 32L18 32L18 33L19 33L19 34L18 34L18 35L20 35L20 33L21 33L21 37L19 37L19 36L17 36L17 40L16 40L16 39L15 39L15 38L16 38L16 37L15 37L15 38L13 38L13 39L15 39L15 41L14 41L14 40L13 40L13 41L14 41L14 44L13 44L13 45L11 45L11 46L13 46L13 47L14 47L14 50L13 50L13 48L12 48L12 50L11 50L11 51L12 51L12 50L13 50L13 51L17 51L17 50L15 50L15 49L19 49L19 50L18 50L18 51L19 51L19 50L20 50L20 49L21 49L21 48L23 48L23 47L24 47L24 46L25 46L25 45L26 45L26 44L27 44L27 45L30 45L30 44L29 44L29 43L31 43L31 45L32 45L32 44L34 44L34 41L33 41L33 43L31 43L31 42L32 42L32 41L31 41L31 40L32 40L32 39L31 39L31 38L32 38L32 34L34 34L34 35L33 35L33 38L34 38L34 40L35 40L35 42L37 42L37 43L36 43L36 44L35 44L35 46L32 46L32 48L33 48L33 47L35 47L35 48L34 48L34 49L33 49L33 50L34 50L34 49L35 49L35 50L36 50L36 49L37 49L37 48L36 48L36 47L39 47L39 46L36 46L36 45L37 45L37 44L38 44L38 45L39 45L39 44L40 44L40 43L41 43L41 42L40 42L40 41L39 41L39 40L40 40L40 39L39 39L39 38L40 38L40 36L39 36L39 34L37 34L37 33L38 33L38 31L37 31L37 32L36 32L36 30L33 30L33 31L32 31L32 30L31 30L31 29L32 29L32 28L33 28L33 29L37 29L37 30L38 30L38 27L39 27L39 26L40 26L40 25L39 25L39 24L38 24L38 23L40 23L40 24L41 24L41 23L42 23L42 22L43 22L43 21L42 21L42 20L41 20L41 19L42 19L42 18L41 18L41 19L40 19L40 20L38 20L38 19L39 19L39 18L38 18L38 17L40 17L40 16L36 16L36 15L35 15L35 14L37 14L37 15L39 15L39 14L37 14L37 13L38 13L38 12L40 12L40 11L38 11L38 8L36 8L36 9L35 9L35 10L34 10L34 9L33 9L33 13L35 13L35 14L33 14L33 15L32 15L32 16L31 16L31 14L32 14L32 12L31 12L31 14L30 14L30 13L28 13L28 14L26 14L26 15L24 15L24 14L23 14L23 15L22 15L22 13L24 13L24 12L25 12L25 11L24 11L24 12L23 12L23 9L24 9L24 10L25 10L25 9L24 9L24 8ZM53 8L53 9L54 9L54 8ZM55 8L55 9L56 9L56 8ZM1 9L1 10L2 10L2 9ZM3 9L3 11L4 11L4 13L2 13L2 15L3 15L3 16L2 16L2 17L4 17L4 15L5 15L5 17L6 17L6 16L7 16L7 15L6 15L6 14L7 14L7 13L6 13L6 12L7 12L7 11L6 11L6 12L5 12L5 11L4 11L4 9ZM39 9L39 10L40 10L40 9ZM36 10L36 11L37 11L37 10ZM42 10L42 11L43 11L43 12L44 12L44 11L45 11L45 10L44 10L44 11L43 11L43 10ZM34 11L34 12L35 12L35 11ZM21 12L21 13L22 13L22 12ZM5 13L5 14L6 14L6 13ZM51 13L51 14L52 14L52 13ZM29 14L29 15L28 15L28 16L27 16L27 15L26 15L26 16L25 16L25 17L26 17L26 18L27 18L27 19L26 19L26 20L25 20L25 18L24 18L24 19L23 19L23 18L22 18L22 21L21 21L21 19L19 19L19 17L20 17L20 18L21 18L21 17L20 17L20 16L21 16L21 15L20 15L20 16L19 16L19 17L18 17L18 19L16 19L16 21L17 21L17 23L18 23L18 22L20 22L20 23L19 23L19 24L21 24L21 22L22 22L22 23L24 23L24 24L22 24L22 25L24 25L24 24L25 24L25 26L26 26L26 25L27 25L27 26L29 26L29 25L30 25L30 24L33 24L33 23L34 23L34 24L35 24L35 25L33 25L33 28L34 28L34 26L35 26L35 27L36 27L36 26L35 26L35 25L36 25L36 24L37 24L37 27L38 27L38 26L39 26L39 25L38 25L38 24L37 24L37 23L36 23L36 22L39 22L39 21L38 21L38 20L37 20L37 19L38 19L38 18L35 18L35 17L36 17L36 16L34 16L34 18L29 18L29 19L28 19L28 18L27 18L27 17L28 17L28 16L29 16L29 17L31 17L31 16L30 16L30 14ZM22 16L22 17L24 17L24 16ZM26 16L26 17L27 17L27 16ZM32 16L32 17L33 17L33 16ZM43 16L43 17L44 17L44 19L46 19L46 18L45 18L45 16ZM16 17L16 18L17 18L17 17ZM34 18L34 21L35 21L35 18ZM47 18L47 20L49 20L49 19L48 19L48 18ZM18 19L18 21L20 21L20 20L19 20L19 19ZM27 19L27 20L28 20L28 19ZM30 19L30 20L29 20L29 21L30 21L30 22L29 22L29 23L28 23L28 22L27 22L27 21L25 21L25 20L24 20L24 21L22 21L22 22L24 22L24 21L25 21L25 22L26 22L26 23L25 23L25 24L30 24L30 22L31 22L31 23L33 23L33 21L32 21L32 20L33 20L33 19ZM50 19L50 22L48 22L48 23L49 23L49 24L48 24L48 25L50 25L50 26L53 26L53 27L55 27L55 26L54 26L54 25L53 25L53 24L51 24L51 23L52 23L52 22L54 22L54 21L56 21L56 20L54 20L54 19L52 19L52 20L51 20L51 19ZM6 20L6 21L7 21L7 22L6 22L6 23L9 23L9 21L7 21L7 20ZM36 20L36 21L37 21L37 20ZM40 20L40 23L41 23L41 22L42 22L42 21L41 21L41 20ZM34 22L34 23L35 23L35 24L36 24L36 23L35 23L35 22ZM50 22L50 23L51 23L51 22ZM1 24L1 25L2 25L2 24ZM31 25L31 26L32 26L32 25ZM3 27L3 28L4 28L4 27ZM5 27L5 30L8 30L8 27ZM25 27L25 28L24 28L24 29L25 29L25 30L26 30L26 27ZM27 27L27 30L30 30L30 27ZM49 27L49 30L52 30L52 27ZM6 28L6 29L7 29L7 28ZM28 28L28 29L29 29L29 28ZM50 28L50 29L51 29L51 28ZM54 28L54 29L55 29L55 28ZM46 29L46 30L47 30L47 31L48 31L48 29ZM16 30L16 31L17 31L17 30ZM53 30L53 31L52 31L52 32L54 32L54 33L55 33L55 32L54 32L54 30ZM22 31L22 33L24 33L24 31ZM25 31L25 34L24 34L24 36L25 36L25 34L26 34L26 33L27 33L27 35L26 35L26 36L27 36L27 37L25 37L25 40L24 40L24 39L23 39L23 38L24 38L24 37L23 37L23 36L22 36L22 37L21 37L21 38L22 38L22 39L23 39L23 40L19 40L19 39L20 39L20 38L19 38L19 37L18 37L18 40L19 40L19 41L18 41L18 42L17 42L17 41L15 41L15 44L14 44L14 45L13 45L13 46L14 46L14 47L17 47L17 48L19 48L19 49L20 49L20 48L21 48L21 45L22 45L22 47L23 47L23 45L25 45L25 44L26 44L26 43L29 43L29 42L30 42L30 41L28 41L28 40L31 40L31 39L29 39L29 35L30 35L30 34L29 34L29 33L30 33L30 31L28 31L28 32L29 32L29 33L27 33L27 31ZM33 31L33 32L31 32L31 34L32 34L32 33L33 33L33 32L35 32L35 33L34 33L34 34L35 34L35 35L34 35L34 38L35 38L35 40L36 40L36 38L37 38L37 37L36 37L36 36L38 36L38 38L39 38L39 36L38 36L38 35L37 35L37 34L35 34L35 33L36 33L36 32L35 32L35 31ZM6 32L6 33L5 33L5 34L6 34L6 35L8 35L8 34L9 34L9 32ZM6 33L6 34L7 34L7 33ZM40 33L40 34L41 34L41 33ZM45 33L45 34L46 34L46 35L45 35L45 36L48 36L48 33L47 33L47 34L46 34L46 33ZM49 33L49 35L50 35L50 33ZM22 34L22 35L23 35L23 34ZM30 36L30 38L31 38L31 36ZM22 37L22 38L23 38L23 37ZM27 37L27 38L26 38L26 39L27 39L27 40L28 40L28 39L27 39L27 38L28 38L28 37ZM35 37L35 38L36 38L36 37ZM47 37L47 38L46 38L46 39L45 39L45 40L46 40L46 41L47 41L47 40L46 40L46 39L47 39L47 38L48 38L48 39L50 39L50 38L51 38L51 37L50 37L50 38L49 38L49 37ZM9 39L9 40L10 40L10 39ZM37 39L37 40L38 40L38 39ZM19 41L19 42L18 42L18 43L17 43L17 42L16 42L16 43L17 43L17 44L15 44L15 45L14 45L14 46L15 46L15 45L17 45L17 46L18 46L18 47L19 47L19 48L20 48L20 46L19 46L19 45L21 45L21 44L22 44L22 45L23 45L23 42L25 42L25 41L23 41L23 42L22 42L22 41L21 41L21 42L22 42L22 43L20 43L20 41ZM26 41L26 42L28 42L28 41ZM38 41L38 44L39 44L39 41ZM48 42L48 43L49 43L49 42ZM50 42L50 43L51 43L51 42ZM6 43L6 44L7 44L7 43ZM19 43L19 44L20 44L20 43ZM52 43L52 44L53 44L53 43ZM4 44L4 45L3 45L3 47L5 47L5 46L4 46L4 45L5 45L5 44ZM17 44L17 45L18 45L18 44ZM6 45L6 46L8 46L8 45ZM42 45L42 46L40 46L40 48L39 48L39 49L40 49L40 50L41 50L41 49L42 49L42 50L43 50L43 49L44 49L44 48L43 48L43 47L42 47L42 46L43 46L43 45ZM47 45L47 46L48 46L48 45ZM49 45L49 47L50 47L50 45ZM1 46L1 47L2 47L2 46ZM26 46L26 47L28 47L28 46ZM35 46L35 47L36 47L36 46ZM51 46L51 47L52 47L52 46ZM41 47L41 48L40 48L40 49L41 49L41 48L42 48L42 49L43 49L43 48L42 48L42 47ZM6 48L6 49L7 49L7 48ZM35 48L35 49L36 49L36 48ZM25 49L25 50L26 50L26 49ZM27 49L27 52L30 52L30 49ZM49 49L49 52L52 52L52 49ZM28 50L28 51L29 51L29 50ZM50 50L50 51L51 51L51 50ZM25 51L25 52L26 52L26 51ZM54 51L54 52L55 52L55 53L54 53L54 54L55 54L55 53L56 53L56 52L57 52L57 51L56 51L56 52L55 52L55 51ZM13 52L13 53L16 53L16 52ZM23 55L23 57L24 57L24 55ZM27 55L27 56L28 56L28 55ZM36 55L36 56L37 56L37 55ZM42 55L42 56L41 56L41 57L42 57L42 56L43 56L43 57L44 57L44 56L43 56L43 55ZM20 56L20 57L21 57L21 56ZM25 56L25 57L26 57L26 56ZM0 0L0 7L7 7L7 0ZM1 1L1 6L6 6L6 1ZM2 2L2 5L5 5L5 2ZM50 0L50 7L57 7L57 0ZM51 1L51 6L56 6L56 1ZM52 2L52 5L55 5L55 2ZM0 50L0 57L7 57L7 50ZM1 51L1 56L6 56L6 51ZM2 52L2 55L5 55L5 52Z" fill="#000000"/></g></g></svg>
