<?xml version="1.0" encoding="UTF-8"?>
<svg xmlns="http://www.w3.org/2000/svg" version="1.1" width="300" height="300" viewBox="0 0 300 300"><rect x="0" y="0" width="300" height="300" fill="#ffffff"/><g transform="scale(4.918)"><g transform="translate(2,2)"><path fill-rule="evenodd" d="M9 0L9 1L8 1L8 2L9 2L9 3L8 3L8 4L10 4L10 5L8 5L8 7L9 7L9 6L10 6L10 9L11 9L11 8L12 8L12 10L13 10L13 9L14 9L14 10L15 10L15 11L16 11L16 10L15 10L15 9L17 9L17 11L18 11L18 9L19 9L19 10L20 10L20 9L21 9L21 11L20 11L20 13L22 13L22 12L21 12L21 11L22 11L22 10L23 10L23 11L24 11L24 12L25 12L25 13L23 13L23 14L26 14L26 15L24 15L24 16L26 16L26 17L24 17L24 18L25 18L25 19L24 19L24 20L23 20L23 19L22 19L22 18L23 18L23 17L21 17L21 16L23 16L23 15L22 15L22 14L21 14L21 15L19 15L19 13L18 13L18 12L16 12L16 13L18 13L18 15L19 15L19 16L18 16L18 17L17 17L17 16L15 16L15 17L14 17L14 16L12 16L12 14L11 14L11 18L10 18L10 17L9 17L9 18L8 18L8 17L7 17L7 16L9 16L9 15L7 15L7 14L6 14L6 13L7 13L7 12L6 12L6 11L8 11L8 10L9 10L9 12L8 12L8 13L10 13L10 12L11 12L11 13L13 13L13 15L14 15L14 13L13 13L13 12L14 12L14 11L10 11L10 10L9 10L9 8L6 8L6 9L5 9L5 8L0 8L0 10L1 10L1 9L2 9L2 11L3 11L3 12L1 12L1 11L0 11L0 12L1 12L1 13L2 13L2 15L1 15L1 14L0 14L0 16L3 16L3 18L2 18L2 17L1 17L1 18L0 18L0 19L1 19L1 20L0 20L0 22L1 22L1 23L0 23L0 25L1 25L1 23L2 23L2 24L4 24L4 25L2 25L2 26L1 26L1 27L0 27L0 29L1 29L1 30L0 30L0 35L1 35L1 34L2 34L2 37L1 37L1 38L0 38L0 40L1 40L1 41L2 41L2 42L1 42L1 44L0 44L0 48L5 48L5 47L7 47L7 46L5 46L5 45L8 45L8 47L9 47L9 48L10 48L10 47L9 47L9 46L10 46L10 45L8 45L8 43L7 43L7 42L6 42L6 41L8 41L8 40L9 40L9 39L10 39L10 38L9 38L9 39L8 39L8 40L6 40L6 39L7 39L7 38L5 38L5 37L4 37L4 36L5 36L5 34L4 34L4 36L3 36L3 32L4 32L4 33L7 33L7 32L9 32L9 29L10 29L10 28L9 28L9 27L11 27L11 29L12 29L12 25L14 25L14 26L15 26L15 27L13 27L13 30L11 30L11 31L10 31L10 32L11 32L11 31L12 31L12 32L13 32L13 31L14 31L14 32L16 32L16 33L13 33L13 34L14 34L14 35L12 35L12 36L14 36L14 38L15 38L15 39L14 39L14 41L15 41L15 39L16 39L16 41L17 41L17 42L15 42L15 43L13 43L13 44L12 44L12 42L13 42L13 38L12 38L12 39L11 39L11 40L10 40L10 41L11 41L11 42L9 42L9 44L10 44L10 43L11 43L11 47L12 47L12 48L13 48L13 49L10 49L10 50L9 50L9 49L8 49L8 51L10 51L10 52L8 52L8 57L9 57L9 55L10 55L10 56L11 56L11 55L12 55L12 54L9 54L9 53L11 53L11 51L10 51L10 50L13 50L13 51L14 51L14 52L12 52L12 53L15 53L15 54L14 54L14 55L13 55L13 56L12 56L12 57L13 57L13 56L14 56L14 57L22 57L22 54L23 54L23 55L24 55L24 56L25 56L25 57L26 57L26 56L28 56L28 55L27 55L27 53L28 53L28 54L29 54L29 55L30 55L30 56L29 56L29 57L31 57L31 56L32 56L32 55L33 55L33 56L34 56L34 55L35 55L35 56L36 56L36 57L38 57L38 56L41 56L41 57L42 57L42 55L43 55L43 53L44 53L44 54L46 54L46 56L47 56L47 57L49 57L49 56L50 56L50 57L52 57L52 56L54 56L54 57L56 57L56 56L55 56L55 54L54 54L54 55L51 55L51 54L53 54L53 52L54 52L54 53L56 53L56 50L57 50L57 49L56 49L56 50L54 50L54 49L53 49L53 48L55 48L55 47L56 47L56 48L57 48L57 47L56 47L56 46L57 46L57 44L56 44L56 46L55 46L55 45L54 45L54 44L55 44L55 43L56 43L56 42L57 42L57 41L55 41L55 39L57 39L57 37L56 37L56 38L55 38L55 35L53 35L53 34L52 34L52 36L54 36L54 38L52 38L52 40L53 40L53 41L54 41L54 43L53 43L53 44L52 44L52 45L50 45L50 44L51 44L51 43L50 43L50 42L51 42L51 41L49 41L49 43L47 43L47 42L48 42L48 41L47 41L47 42L45 42L45 41L44 41L44 39L42 39L42 38L43 38L43 37L44 37L44 38L46 38L46 40L47 40L47 38L46 38L46 37L47 37L47 36L48 36L48 39L49 39L49 40L51 40L51 39L49 39L49 38L50 38L50 37L49 37L49 36L48 36L48 33L47 33L47 32L48 32L48 31L50 31L50 33L49 33L49 35L50 35L50 33L53 33L53 32L55 32L55 33L54 33L54 34L57 34L57 33L56 33L56 31L55 31L55 29L56 29L56 30L57 30L57 29L56 29L56 28L57 28L57 27L56 27L56 26L57 26L57 24L55 24L55 23L56 23L56 22L57 22L57 21L54 21L54 22L53 22L53 23L52 23L52 22L50 22L50 19L51 19L51 20L52 20L52 18L53 18L53 17L52 17L52 16L55 16L55 15L54 15L54 14L57 14L57 13L56 13L56 12L57 12L57 11L56 11L56 10L57 10L57 9L56 9L56 8L55 8L55 11L54 11L54 10L53 10L53 11L52 11L52 12L53 12L53 11L54 11L54 12L55 12L55 13L53 13L53 15L52 15L52 16L51 16L51 15L50 15L50 16L51 16L51 18L50 18L50 17L48 17L48 16L46 16L46 17L41 17L41 18L46 18L46 20L45 20L45 19L43 19L43 20L45 20L45 21L44 21L44 23L45 23L45 21L48 21L48 22L50 22L50 23L48 23L48 24L47 24L47 25L48 25L48 26L47 26L47 28L46 28L46 26L45 26L45 27L44 27L44 26L43 26L43 25L44 25L44 24L43 24L43 23L42 23L42 22L43 22L43 21L42 21L42 19L40 19L40 20L38 20L38 21L37 21L37 20L36 20L36 21L37 21L37 22L36 22L36 23L35 23L35 22L33 22L33 21L32 21L32 20L34 20L34 19L39 19L39 18L40 18L40 16L45 16L45 15L49 15L49 14L50 14L50 13L51 13L51 14L52 14L52 13L51 13L51 12L49 12L49 11L51 11L51 10L52 10L52 8L51 8L51 10L49 10L49 9L50 9L50 8L49 8L49 6L48 6L48 8L47 8L47 9L48 9L48 11L47 11L47 10L46 10L46 11L47 11L47 12L49 12L49 13L47 13L47 14L46 14L46 12L45 12L45 9L40 9L40 8L45 8L45 6L46 6L46 7L47 7L47 5L48 5L48 0L44 0L44 1L47 1L47 2L40 2L40 0L39 0L39 1L37 1L37 0L35 0L35 1L34 1L34 0L29 0L29 1L26 1L26 0L24 0L24 2L23 2L23 3L24 3L24 4L21 4L21 6L20 6L20 5L18 5L18 4L20 4L20 3L22 3L22 2L21 2L21 1L23 1L23 0L21 0L21 1L20 1L20 3L17 3L17 4L16 4L16 2L17 2L17 1L16 1L16 2L15 2L15 4L14 4L14 1L15 1L15 0L14 0L14 1L13 1L13 4L12 4L12 2L11 2L11 1L10 1L10 0ZM41 0L41 1L43 1L43 0ZM18 1L18 2L19 2L19 1ZM25 1L25 2L24 2L24 3L25 3L25 4L24 4L24 5L22 5L22 6L21 6L21 7L20 7L20 6L19 6L19 8L21 8L21 9L24 9L24 8L25 8L25 10L24 10L24 11L25 11L25 12L27 12L27 11L26 11L26 10L28 10L28 11L29 11L29 12L28 12L28 13L26 13L26 14L28 14L28 13L29 13L29 14L30 14L30 13L29 13L29 12L30 12L30 11L31 11L31 13L32 13L32 15L33 15L33 16L30 16L30 15L26 15L26 16L28 16L28 17L26 17L26 18L28 18L28 19L26 19L26 20L25 20L25 22L26 22L26 23L25 23L25 24L26 24L26 25L25 25L25 26L26 26L26 25L29 25L29 24L31 24L31 25L32 25L32 26L31 26L31 28L32 28L32 29L33 29L33 30L35 30L35 31L33 31L33 32L30 32L30 33L26 33L26 32L29 32L29 31L25 31L25 30L26 30L26 27L25 27L25 28L24 28L24 27L23 27L23 28L24 28L24 29L22 29L22 28L21 28L21 27L22 27L22 26L23 26L23 25L24 25L24 23L21 23L21 24L19 24L19 23L20 23L20 22L19 22L19 21L21 21L21 22L22 22L22 21L23 21L23 22L24 22L24 21L23 21L23 20L22 20L22 19L20 19L20 18L21 18L21 17L18 17L18 18L17 18L17 17L15 17L15 19L18 19L18 20L19 20L19 21L17 21L17 20L15 20L15 21L12 21L12 20L11 20L11 19L10 19L10 20L9 20L9 21L5 21L5 22L2 22L2 23L5 23L5 22L7 22L7 23L6 23L6 24L5 24L5 25L4 25L4 26L3 26L3 27L1 27L1 28L4 28L4 26L5 26L5 25L6 25L6 26L9 26L9 25L8 25L8 24L9 24L9 23L8 23L8 22L9 22L9 21L10 21L10 20L11 20L11 21L12 21L12 22L11 22L11 23L10 23L10 24L11 24L11 23L12 23L12 24L13 24L13 22L14 22L14 23L16 23L16 25L15 25L15 26L16 26L16 28L14 28L14 30L15 30L15 31L16 31L16 32L17 32L17 33L16 33L16 34L15 34L15 35L14 35L14 36L16 36L16 37L15 37L15 38L16 38L16 37L17 37L17 41L18 41L18 43L15 43L15 44L18 44L18 45L15 45L15 46L13 46L13 48L14 48L14 49L13 49L13 50L14 50L14 51L15 51L15 53L16 53L16 54L15 54L15 55L14 55L14 56L15 56L15 55L16 55L16 56L17 56L17 54L19 54L19 55L20 55L20 54L19 54L19 53L21 53L21 54L22 54L22 53L23 53L23 54L24 54L24 53L23 53L23 50L24 50L24 51L25 51L25 53L26 53L26 51L25 51L25 50L26 50L26 47L27 47L27 48L32 48L32 51L31 51L31 52L32 52L32 54L35 54L35 52L36 52L36 51L35 51L35 52L32 52L32 51L34 51L34 50L36 50L36 48L37 48L37 50L39 50L39 51L38 51L38 52L37 52L37 53L38 53L38 54L37 54L37 55L36 55L36 56L37 56L37 55L38 55L38 54L39 54L39 53L38 53L38 52L40 52L40 55L42 55L42 54L41 54L41 53L43 53L43 52L40 52L40 51L43 51L43 50L44 50L44 53L46 53L46 54L47 54L47 53L48 53L48 54L49 54L49 53L48 53L48 52L45 52L45 50L47 50L47 51L48 51L48 48L49 48L49 47L51 47L51 46L50 46L50 45L49 45L49 44L47 44L47 45L46 45L46 46L47 46L47 47L45 47L45 46L44 46L44 47L43 47L43 46L42 46L42 45L43 45L43 44L44 44L44 45L45 45L45 44L44 44L44 43L43 43L43 42L44 42L44 41L43 41L43 40L42 40L42 41L43 41L43 42L41 42L41 43L43 43L43 44L40 44L40 43L37 43L37 42L39 42L39 41L41 41L41 37L43 37L43 36L42 36L42 35L43 35L43 34L44 34L44 37L46 37L46 36L47 36L47 35L46 35L46 34L47 34L47 33L46 33L46 32L47 32L47 31L48 31L48 28L47 28L47 29L46 29L46 30L45 30L45 28L44 28L44 27L43 27L43 28L42 28L42 27L40 27L40 26L41 26L41 22L42 22L42 21L41 21L41 20L40 20L40 21L38 21L38 23L36 23L36 24L37 24L37 25L35 25L35 23L34 23L34 24L33 24L33 23L32 23L32 24L31 24L31 22L29 22L29 24L27 24L27 21L31 21L31 20L30 20L30 19L34 19L34 18L36 18L36 16L38 16L38 17L37 17L37 18L39 18L39 16L40 16L40 15L39 15L39 14L42 14L42 15L43 15L43 14L42 14L42 11L43 11L43 10L40 10L40 11L39 11L39 12L38 12L38 14L35 14L35 13L33 13L33 12L32 12L32 11L31 11L31 10L32 10L32 9L31 9L31 10L28 10L28 9L26 9L26 6L25 6L25 4L26 4L26 3L25 3L25 2L26 2L26 1ZM29 1L29 3L28 3L28 2L27 2L27 3L28 3L28 4L29 4L29 3L30 3L30 4L31 4L31 8L34 8L34 6L35 6L35 9L36 9L36 6L37 6L37 8L38 8L38 10L39 10L39 8L40 8L40 6L41 6L41 7L42 7L42 5L40 5L40 6L39 6L39 8L38 8L38 6L37 6L37 5L36 5L36 3L37 3L37 4L38 4L38 5L39 5L39 4L38 4L38 3L39 3L39 2L34 2L34 1L32 1L32 2L33 2L33 3L32 3L32 4L31 4L31 1ZM40 3L40 4L43 4L43 7L44 7L44 6L45 6L45 5L44 5L44 4L46 4L46 5L47 5L47 3ZM15 4L15 5L16 5L16 4ZM12 5L12 6L11 6L11 7L12 7L12 6L13 6L13 7L14 7L14 5ZM17 5L17 7L18 7L18 5ZM27 5L27 8L30 8L30 5ZM33 5L33 6L32 6L32 7L33 7L33 6L34 6L34 5ZM35 5L35 6L36 6L36 5ZM15 6L15 8L14 8L14 9L15 9L15 8L16 8L16 6ZM22 6L22 7L23 7L23 8L24 8L24 7L25 7L25 6L24 6L24 7L23 7L23 6ZM28 6L28 7L29 7L29 6ZM48 8L48 9L49 9L49 8ZM53 8L53 9L54 9L54 8ZM4 9L4 10L5 10L5 9ZM6 9L6 10L7 10L7 9ZM33 9L33 10L34 10L34 12L35 12L35 10L34 10L34 9ZM36 10L36 12L37 12L37 10ZM4 11L4 12L5 12L5 11ZM40 11L40 12L39 12L39 13L40 13L40 12L41 12L41 11ZM55 11L55 12L56 12L56 11ZM43 12L43 13L45 13L45 12ZM3 13L3 16L5 16L5 18L3 18L3 19L2 19L2 18L1 18L1 19L2 19L2 21L3 21L3 19L5 19L5 18L7 18L7 17L6 17L6 16L7 16L7 15L4 15L4 14L5 14L5 13ZM15 14L15 15L16 15L16 14ZM33 14L33 15L35 15L35 16L36 16L36 15L35 15L35 14ZM44 14L44 15L45 15L45 14ZM56 15L56 16L57 16L57 15ZM33 16L33 18L34 18L34 16ZM29 17L29 18L32 18L32 17ZM46 17L46 18L48 18L48 17ZM55 17L55 18L57 18L57 17ZM12 18L12 19L13 19L13 20L14 20L14 19L13 19L13 18ZM18 18L18 19L19 19L19 18ZM49 18L49 19L50 19L50 18ZM6 19L6 20L8 20L8 19ZM54 19L54 20L55 20L55 19ZM56 19L56 20L57 20L57 19ZM21 20L21 21L22 21L22 20ZM48 20L48 21L49 21L49 20ZM15 21L15 22L16 22L16 21ZM39 22L39 23L38 23L38 25L37 25L37 26L36 26L36 27L34 27L34 28L33 28L33 29L35 29L35 28L36 28L36 29L37 29L37 28L38 28L38 27L37 27L37 26L38 26L38 25L39 25L39 26L40 26L40 25L39 25L39 23L40 23L40 22ZM46 22L46 23L47 23L47 22ZM50 23L50 26L52 26L52 25L53 25L53 27L55 27L55 28L54 28L54 29L53 29L53 30L54 30L54 29L55 29L55 28L56 28L56 27L55 27L55 26L54 26L54 25L53 25L53 24L51 24L51 23ZM6 24L6 25L7 25L7 24ZM17 24L17 25L19 25L19 26L18 26L18 27L17 27L17 28L16 28L16 29L17 29L17 30L19 30L19 28L20 28L20 29L21 29L21 30L20 30L20 31L21 31L21 32L20 32L20 33L21 33L21 34L23 34L23 33L21 33L21 32L22 32L22 31L23 31L23 30L22 30L22 29L21 29L21 28L20 28L20 27L21 27L21 26L22 26L22 25L21 25L21 26L20 26L20 25L19 25L19 24ZM48 24L48 25L49 25L49 24ZM33 25L33 26L34 26L34 25ZM19 26L19 27L20 27L20 26ZM5 27L5 30L8 30L8 27ZM27 27L27 30L30 30L30 27ZM36 27L36 28L37 28L37 27ZM49 27L49 30L52 30L52 27ZM6 28L6 29L7 29L7 28ZM17 28L17 29L18 29L18 28ZM28 28L28 29L29 29L29 28ZM43 28L43 29L42 29L42 30L41 30L41 31L40 31L40 30L36 30L36 31L35 31L35 32L33 32L33 33L32 33L32 34L31 34L31 35L30 35L30 34L29 34L29 35L30 35L30 36L29 36L29 37L28 37L28 36L27 36L27 35L26 35L26 34L25 34L25 33L24 33L24 34L25 34L25 35L22 35L22 36L21 36L21 35L20 35L20 36L19 36L19 35L17 35L17 34L18 34L18 33L19 33L19 31L17 31L17 32L18 32L18 33L17 33L17 34L16 34L16 35L17 35L17 37L20 37L20 36L21 36L21 37L22 37L22 38L21 38L21 41L22 41L22 42L21 42L21 43L22 43L22 42L23 42L23 44L25 44L25 45L23 45L23 49L22 49L22 50L20 50L20 49L21 49L21 48L20 48L20 49L19 49L19 47L22 47L22 46L19 46L19 45L18 45L18 49L17 49L17 46L15 46L15 47L14 47L14 48L15 48L15 47L16 47L16 49L14 49L14 50L15 50L15 51L17 51L17 53L19 53L19 52L18 52L18 51L22 51L22 50L23 50L23 49L24 49L24 50L25 50L25 49L24 49L24 48L25 48L25 47L26 47L26 46L25 46L25 45L26 45L26 44L25 44L25 42L26 42L26 43L27 43L27 45L31 45L31 46L29 46L29 47L31 47L31 46L32 46L32 48L33 48L33 50L34 50L34 49L35 49L35 48L36 48L36 47L35 47L35 46L37 46L37 48L38 48L38 49L39 49L39 50L40 50L40 48L41 48L41 47L42 47L42 46L40 46L40 44L39 44L39 46L37 46L37 45L38 45L38 44L36 44L36 42L37 42L37 41L38 41L38 40L36 40L36 41L35 41L35 38L36 38L36 39L38 39L38 37L39 37L39 38L40 38L40 36L41 36L41 35L42 35L42 34L43 34L43 33L44 33L44 32L45 32L45 31L44 31L44 28ZM50 28L50 29L51 29L51 28ZM2 29L2 30L1 30L1 33L2 33L2 32L3 32L3 31L4 31L4 29ZM24 29L24 30L25 30L25 29ZM2 30L2 31L3 31L3 30ZM31 30L31 31L32 31L32 30ZM42 30L42 31L41 31L41 32L40 32L40 31L38 31L38 32L37 32L37 31L36 31L36 32L35 32L35 33L34 33L34 34L32 34L32 38L31 38L31 36L30 36L30 38L31 38L31 39L29 39L29 40L28 40L28 39L26 39L26 40L28 40L28 41L26 41L26 42L27 42L27 43L28 43L28 42L32 42L32 41L30 41L30 40L34 40L34 38L35 38L35 37L36 37L36 36L37 36L37 37L38 37L38 36L40 36L40 35L41 35L41 34L42 34L42 33L43 33L43 32L44 32L44 31L43 31L43 30ZM46 30L46 31L47 31L47 30ZM6 31L6 32L7 32L7 31ZM24 31L24 32L25 32L25 31ZM42 31L42 32L41 32L41 33L40 33L40 32L38 32L38 33L37 33L37 32L36 32L36 33L35 33L35 34L34 34L34 36L33 36L33 37L34 37L34 36L35 36L35 35L37 35L37 36L38 36L38 35L40 35L40 34L41 34L41 33L42 33L42 32L43 32L43 31ZM51 31L51 32L53 32L53 31ZM10 33L10 34L12 34L12 33ZM38 33L38 34L37 34L37 35L38 35L38 34L40 34L40 33ZM45 33L45 34L46 34L46 33ZM6 34L6 35L7 35L7 36L6 36L6 37L7 37L7 36L8 36L8 37L9 37L9 36L11 36L11 35L7 35L7 34ZM56 35L56 36L57 36L57 35ZM22 36L22 37L24 37L24 38L22 38L22 39L24 39L24 40L22 40L22 41L25 41L25 38L26 38L26 37L27 37L27 38L28 38L28 37L27 37L27 36L26 36L26 37L24 37L24 36ZM2 37L2 38L1 38L1 39L2 39L2 41L3 41L3 47L5 47L5 46L4 46L4 44L5 44L5 43L6 43L6 44L7 44L7 43L6 43L6 42L4 42L4 41L6 41L6 40L5 40L5 38L4 38L4 40L3 40L3 37ZM18 38L18 39L20 39L20 38ZM39 39L39 40L40 40L40 39ZM11 40L11 41L12 41L12 40ZM18 40L18 41L19 41L19 42L20 42L20 40ZM33 41L33 42L34 42L34 44L32 44L32 43L29 43L29 44L31 44L31 45L33 45L33 46L35 46L35 42L34 42L34 41ZM19 43L19 44L20 44L20 45L22 45L22 44L20 44L20 43ZM1 44L1 45L2 45L2 44ZM13 44L13 45L14 45L14 44ZM52 45L52 46L54 46L54 45ZM1 46L1 47L2 47L2 46ZM39 46L39 47L38 47L38 48L40 48L40 46ZM33 47L33 48L35 48L35 47ZM44 47L44 48L42 48L42 49L41 49L41 50L43 50L43 49L44 49L44 48L45 48L45 49L46 49L46 48L45 48L45 47ZM52 47L52 48L53 48L53 47ZM6 48L6 49L7 49L7 48ZM16 49L16 50L17 50L17 49ZM18 49L18 50L19 50L19 49ZM27 49L27 52L30 52L30 49ZM49 49L49 52L52 52L52 49ZM28 50L28 51L29 51L29 50ZM50 50L50 51L51 51L51 50ZM21 52L21 53L22 53L22 52ZM29 53L29 54L30 54L30 53ZM50 53L50 54L51 54L51 53ZM25 54L25 56L26 56L26 54ZM44 55L44 56L43 56L43 57L44 57L44 56L45 56L45 55ZM47 55L47 56L48 56L48 55ZM50 55L50 56L51 56L51 55ZM0 0L0 7L7 7L7 0ZM1 1L1 6L6 6L6 1ZM2 2L2 5L5 5L5 2ZM50 0L50 7L57 7L57 0ZM51 1L51 6L56 6L56 1ZM52 2L52 5L55 5L55 2ZM0 50L0 57L7 57L7 50ZM1 51L1 56L6 56L6 51ZM2 52L2 55L5 55L5 52Z" fill="#000000"/></g></g></svg>
