<?xml version="1.0" encoding="UTF-8"?>
<svg xmlns="http://www.w3.org/2000/svg" version="1.1" width="300" height="300" viewBox="0 0 300 300"><rect x="0" y="0" width="300" height="300" fill="#ffffff"/><g transform="scale(4.918)"><g transform="translate(2,2)"><path fill-rule="evenodd" d="M13 0L13 1L15 1L15 2L12 2L12 1L8 1L8 2L10 2L10 3L8 3L8 4L10 4L10 7L9 7L9 5L8 5L8 7L9 7L9 8L6 8L6 9L5 9L5 8L0 8L0 9L1 9L1 10L0 10L0 15L2 15L2 17L4 17L4 18L5 18L5 20L4 20L4 19L3 19L3 20L4 20L4 21L3 21L3 22L4 22L4 23L3 23L3 24L2 24L2 22L1 22L1 27L2 27L2 25L3 25L3 26L4 26L4 33L3 33L3 34L2 34L2 33L1 33L1 35L0 35L0 37L2 37L2 38L0 38L0 42L2 42L2 43L3 43L3 45L5 45L5 44L6 44L6 45L7 45L7 46L5 46L5 47L3 47L3 46L2 46L2 45L1 45L1 43L0 43L0 48L5 48L5 47L7 47L7 46L8 46L8 48L6 48L6 49L8 49L8 51L9 51L9 49L8 49L8 48L12 48L12 49L14 49L14 50L13 50L13 51L14 51L14 50L15 50L15 52L14 52L14 53L11 53L11 56L12 56L12 57L14 57L14 56L16 56L16 57L17 57L17 56L18 56L18 57L19 57L19 56L23 56L23 55L24 55L24 56L25 56L25 57L26 57L26 55L27 55L27 56L28 56L28 55L27 55L27 53L28 53L28 54L29 54L29 55L30 55L30 56L29 56L29 57L31 57L31 56L34 56L34 54L32 54L32 52L33 52L33 51L35 51L35 52L36 52L36 53L37 53L37 54L35 54L35 56L36 56L36 57L38 57L38 55L40 55L40 56L41 56L41 55L40 55L40 52L41 52L41 51L42 51L42 50L43 50L43 52L42 52L42 53L41 53L41 54L42 54L42 55L43 55L43 56L42 56L42 57L43 57L43 56L46 56L46 55L47 55L47 56L50 56L50 55L51 55L51 57L52 57L52 56L53 56L53 57L54 57L54 56L55 56L55 57L56 57L56 56L55 56L55 55L51 55L51 54L53 54L53 53L54 53L54 54L55 54L55 53L54 53L54 52L57 52L57 51L55 51L55 50L57 50L57 48L56 48L56 46L57 46L57 45L56 45L56 44L57 44L57 43L56 43L56 42L57 42L57 41L56 41L56 42L55 42L55 39L57 39L57 37L56 37L56 36L57 36L57 35L56 35L56 34L57 34L57 33L56 33L56 32L57 32L57 31L56 31L56 30L57 30L57 28L56 28L56 30L55 30L55 29L54 29L54 28L55 28L55 27L56 27L56 26L57 26L57 25L56 25L56 24L55 24L55 23L56 23L56 22L57 22L57 21L56 21L56 20L55 20L55 18L57 18L57 15L56 15L56 14L57 14L57 13L56 13L56 12L57 12L57 11L56 11L56 10L57 10L57 9L56 9L56 8L55 8L55 9L56 9L56 10L55 10L55 11L54 11L54 10L53 10L53 11L52 11L52 12L53 12L53 11L54 11L54 12L55 12L55 13L53 13L53 15L51 15L51 14L52 14L52 13L51 13L51 12L50 12L50 13L51 13L51 14L49 14L49 13L47 13L47 14L46 14L46 12L45 12L45 11L46 11L46 10L45 10L45 11L44 11L44 12L43 12L43 11L42 11L42 14L40 14L40 13L39 13L39 14L37 14L37 13L38 13L38 12L41 12L41 10L40 10L40 9L39 9L39 8L35 8L35 6L36 6L36 7L37 7L37 6L36 6L36 5L38 5L38 4L40 4L40 5L41 5L41 6L40 6L40 8L42 8L42 10L44 10L44 7L45 7L45 8L47 8L47 9L48 9L48 10L50 10L50 11L51 11L51 10L50 10L50 8L49 8L49 6L48 6L48 8L47 8L47 5L48 5L48 0L41 0L41 1L43 1L43 3L47 3L47 5L46 5L46 4L44 4L44 5L45 5L45 6L44 6L44 7L43 7L43 6L42 6L42 5L43 5L43 4L42 4L42 3L41 3L41 2L39 2L39 1L34 1L34 0L32 0L32 1L34 1L34 2L37 2L37 3L36 3L36 5L35 5L35 6L34 6L34 5L33 5L33 6L32 6L32 7L31 7L31 4L32 4L32 3L33 3L33 4L35 4L35 3L33 3L33 2L31 2L31 3L30 3L30 2L28 2L28 3L27 3L27 2L25 2L25 1L26 1L26 0L23 0L23 2L22 2L22 0L21 0L21 1L20 1L20 0L19 0L19 1L16 1L16 0ZM27 0L27 1L28 1L28 0ZM29 0L29 1L31 1L31 0ZM19 1L19 2L16 2L16 4L15 4L15 3L14 3L14 4L13 4L13 3L12 3L12 2L11 2L11 3L12 3L12 5L11 5L11 8L10 8L10 9L11 9L11 10L10 10L10 11L9 11L9 10L7 10L7 9L6 9L6 10L7 10L7 11L5 11L5 10L4 10L4 9L2 9L2 10L1 10L1 12L3 12L3 13L4 13L4 12L5 12L5 13L6 13L6 14L7 14L7 13L8 13L8 15L6 15L6 16L7 16L7 17L6 17L6 18L7 18L7 17L8 17L8 16L9 16L9 14L11 14L11 13L12 13L12 12L11 12L11 10L12 10L12 11L14 11L14 12L13 12L13 13L14 13L14 15L13 15L13 16L11 16L11 15L10 15L10 16L11 16L11 18L10 18L10 19L9 19L9 18L8 18L8 20L10 20L10 22L9 22L9 24L11 24L11 25L9 25L9 33L4 33L4 34L3 34L3 35L2 35L2 37L3 37L3 36L4 36L4 38L2 38L2 39L1 39L1 40L3 40L3 39L4 39L4 38L5 38L5 40L4 40L4 41L6 41L6 42L7 42L7 41L8 41L8 42L9 42L9 43L10 43L10 44L14 44L14 43L15 43L15 42L18 42L18 43L16 43L16 44L18 44L18 45L16 45L16 46L17 46L17 47L16 47L16 48L17 48L17 47L18 47L18 48L19 48L19 49L16 49L16 51L17 51L17 52L15 52L15 53L16 53L16 54L15 54L15 55L16 55L16 56L17 56L17 54L19 54L19 55L20 55L20 54L19 54L19 53L23 53L23 54L24 54L24 53L23 53L23 52L24 52L24 51L25 51L25 52L26 52L26 51L25 51L25 50L26 50L26 48L29 48L29 45L30 45L30 44L31 44L31 43L28 43L28 42L29 42L29 41L28 41L28 39L26 39L26 40L27 40L27 41L26 41L26 42L25 42L25 43L24 43L24 45L23 45L23 42L24 42L24 41L25 41L25 38L26 38L26 37L24 37L24 35L25 35L25 36L26 36L26 35L27 35L27 36L28 36L28 37L27 37L27 38L28 38L28 37L29 37L29 36L30 36L30 38L31 38L31 39L29 39L29 40L31 40L31 41L30 41L30 42L31 42L31 41L32 41L32 42L34 42L34 44L32 44L32 45L31 45L31 46L32 46L32 47L31 47L31 48L32 48L32 50L31 50L31 52L32 52L32 51L33 51L33 50L35 50L35 51L36 51L36 52L37 52L37 51L36 51L36 50L35 50L35 49L33 49L33 48L37 48L37 50L39 50L39 51L38 51L38 54L39 54L39 52L40 52L40 51L41 51L41 50L42 50L42 49L41 49L41 48L44 48L44 53L43 53L43 55L46 55L46 54L47 54L47 53L48 53L48 54L49 54L49 55L50 55L50 54L51 54L51 53L48 53L48 52L47 52L47 51L48 51L48 48L49 48L49 47L51 47L51 46L50 46L50 45L52 45L52 48L54 48L54 49L56 49L56 48L54 48L54 47L55 47L55 46L56 46L56 45L55 45L55 44L54 44L54 45L55 45L55 46L53 46L53 45L52 45L52 44L53 44L53 43L54 43L54 40L53 40L53 41L51 41L51 40L49 40L49 39L51 39L51 38L53 38L53 36L52 36L52 34L53 34L53 35L54 35L54 34L53 34L53 33L55 33L55 34L56 34L56 33L55 33L55 32L53 32L53 31L55 31L55 30L53 30L53 31L51 31L51 32L53 32L53 33L51 33L51 34L50 34L50 31L48 31L48 29L46 29L46 30L45 30L45 32L42 32L42 31L44 31L44 29L45 29L45 28L44 28L44 29L43 29L43 28L42 28L42 27L44 27L44 25L45 25L45 26L47 26L47 27L46 27L46 28L48 28L48 26L47 26L47 25L49 25L49 24L47 24L47 21L46 21L46 20L47 20L47 19L48 19L48 20L49 20L49 18L47 18L47 17L48 17L48 16L51 16L51 17L50 17L50 18L52 18L52 17L53 17L53 18L54 18L54 17L55 17L55 16L56 16L56 15L55 15L55 16L54 16L54 15L53 15L53 16L51 16L51 15L47 15L47 16L39 16L39 15L38 15L38 16L39 16L39 17L38 17L38 18L37 18L37 19L35 19L35 20L34 20L34 19L33 19L33 18L35 18L35 17L33 17L33 16L32 16L32 15L31 15L31 16L30 16L30 13L29 13L29 12L28 12L28 13L25 13L25 12L27 12L27 11L26 11L26 10L27 10L27 9L26 9L26 6L25 6L25 4L26 4L26 3L25 3L25 4L24 4L24 2L23 2L23 3L21 3L21 2L20 2L20 1ZM44 1L44 2L47 2L47 1ZM38 2L38 3L37 3L37 4L38 4L38 3L39 3L39 2ZM18 3L18 4L16 4L16 5L15 5L15 4L14 4L14 8L15 8L15 9L13 9L13 10L15 10L15 11L18 11L18 10L15 10L15 9L19 9L19 13L18 13L18 12L16 12L16 13L18 13L18 14L19 14L19 15L18 15L18 16L16 16L16 15L17 15L17 14L15 14L15 15L14 15L14 16L13 16L13 17L12 17L12 18L11 18L11 20L13 20L13 21L11 21L11 22L12 22L12 23L14 23L14 24L15 24L15 25L14 25L14 27L13 27L13 25L11 25L11 27L10 27L10 28L11 28L11 30L12 30L12 31L10 31L10 32L11 32L11 33L9 33L9 34L8 34L8 35L7 35L7 34L5 34L5 35L4 35L4 36L5 36L5 38L6 38L6 39L7 39L7 38L8 38L8 39L9 39L9 40L8 40L8 41L9 41L9 42L10 42L10 40L13 40L13 41L11 41L11 42L13 42L13 43L14 43L14 42L13 42L13 41L14 41L14 40L13 40L13 39L16 39L16 41L21 41L21 42L20 42L20 43L19 43L19 45L18 45L18 47L22 47L22 48L23 48L23 50L25 50L25 48L26 48L26 47L28 47L28 45L29 45L29 44L28 44L28 45L27 45L27 46L26 46L26 47L24 47L24 46L25 46L25 45L26 45L26 44L25 44L25 45L24 45L24 46L23 46L23 47L22 47L22 46L19 46L19 45L22 45L22 44L20 44L20 43L22 43L22 42L23 42L23 41L24 41L24 39L23 39L23 41L21 41L21 40L22 40L22 39L21 39L21 40L19 40L19 39L20 39L20 38L18 38L18 39L17 39L17 37L20 37L20 36L17 36L17 37L16 37L16 35L19 35L19 34L18 34L18 33L19 33L19 32L20 32L20 33L21 33L21 34L20 34L20 35L21 35L21 37L22 37L22 38L24 38L24 37L22 37L22 36L23 36L23 35L22 35L22 33L21 33L21 32L23 32L23 31L24 31L24 33L23 33L23 34L25 34L25 35L26 35L26 34L27 34L27 33L30 33L30 32L29 32L29 31L31 31L31 29L32 29L32 30L33 30L33 31L32 31L32 32L31 32L31 33L32 33L32 34L33 34L33 35L37 35L37 36L36 36L36 37L35 37L35 36L33 36L33 37L35 37L35 39L36 39L36 40L35 40L35 42L38 42L38 43L39 43L39 44L37 44L37 43L36 43L36 44L35 44L35 46L33 46L33 45L32 45L32 46L33 46L33 47L32 47L32 48L33 48L33 47L39 47L39 48L38 48L38 49L39 49L39 48L41 48L41 47L42 47L42 46L45 46L45 47L44 47L44 48L46 48L46 47L47 47L47 46L46 46L46 45L47 45L47 44L48 44L48 46L49 46L49 44L52 44L52 43L53 43L53 42L51 42L51 41L49 41L49 42L47 42L47 43L45 43L45 42L44 42L44 40L46 40L46 38L45 38L45 37L44 37L44 35L42 35L42 34L44 34L44 33L42 33L42 34L41 34L41 35L40 35L40 36L39 36L39 34L37 34L37 32L38 32L38 31L37 31L37 30L38 30L38 29L40 29L40 30L39 30L39 32L41 32L41 31L42 31L42 30L43 30L43 29L42 29L42 30L41 30L41 29L40 29L40 28L41 28L41 27L40 27L40 28L38 28L38 27L37 27L37 26L38 26L38 24L36 24L36 23L37 23L37 22L38 22L38 21L37 21L37 20L39 20L39 21L40 21L40 20L41 20L41 19L42 19L42 18L43 18L43 17L42 17L42 18L41 18L41 17L39 17L39 18L38 18L38 19L37 19L37 20L36 20L36 21L37 21L37 22L36 22L36 23L35 23L35 22L33 22L33 21L34 21L34 20L33 20L33 19L28 19L28 18L26 18L26 17L28 17L28 16L26 16L26 14L25 14L25 13L23 13L23 16L24 16L24 17L22 17L22 15L21 15L21 14L19 14L19 13L22 13L22 12L21 12L21 11L22 11L22 10L23 10L23 9L22 9L22 10L20 10L20 9L19 9L19 6L20 6L20 7L21 7L21 6L20 6L20 5L18 5L18 4L20 4L20 3ZM28 3L28 4L30 4L30 3ZM40 3L40 4L41 4L41 5L42 5L42 4L41 4L41 3ZM21 4L21 5L22 5L22 8L24 8L24 7L25 7L25 6L24 6L24 7L23 7L23 5L24 5L24 4ZM17 5L17 7L18 7L18 5ZM27 5L27 8L30 8L30 5ZM12 6L12 8L11 8L11 9L12 9L12 8L13 8L13 6ZM15 6L15 8L16 8L16 6ZM28 6L28 7L29 7L29 6ZM33 6L33 7L34 7L34 6ZM38 6L38 7L39 7L39 6ZM41 6L41 7L42 7L42 8L43 8L43 7L42 7L42 6ZM45 6L45 7L46 7L46 6ZM32 8L32 9L31 9L31 10L30 10L30 12L32 12L32 13L33 13L33 14L35 14L35 15L34 15L34 16L37 16L37 14L35 14L35 13L36 13L36 12L37 12L37 11L38 11L38 10L39 10L39 9L38 9L38 10L37 10L37 11L36 11L36 10L35 10L35 8ZM48 8L48 9L49 9L49 8ZM51 8L51 9L52 9L52 8ZM53 8L53 9L54 9L54 8ZM24 9L24 11L23 11L23 12L24 12L24 11L25 11L25 9ZM28 9L28 10L29 10L29 9ZM32 9L32 10L33 10L33 13L35 13L35 12L36 12L36 11L35 11L35 10L33 10L33 9ZM2 10L2 11L3 11L3 12L4 12L4 10ZM8 11L8 13L9 13L9 11ZM34 11L34 12L35 12L35 11ZM48 11L48 12L49 12L49 11ZM6 12L6 13L7 13L7 12ZM44 12L44 15L45 15L45 12ZM28 13L28 14L27 14L27 15L29 15L29 13ZM55 13L55 14L56 14L56 13ZM4 14L4 15L5 15L5 14ZM42 14L42 15L43 15L43 14ZM19 15L19 17L16 17L16 18L17 18L17 20L15 20L15 21L13 21L13 22L14 22L14 23L16 23L16 24L17 24L17 23L20 23L20 22L19 22L19 21L23 21L23 22L24 22L24 21L23 21L23 18L21 18L21 17L20 17L20 16L21 16L21 15ZM0 16L0 18L1 18L1 16ZM14 16L14 17L13 17L13 18L14 18L14 17L15 17L15 16ZM25 16L25 17L26 17L26 16ZM31 16L31 17L29 17L29 18L32 18L32 16ZM53 16L53 17L54 17L54 16ZM45 17L45 18L44 18L44 19L43 19L43 20L42 20L42 21L41 21L41 26L43 26L43 25L44 25L44 24L45 24L45 25L47 25L47 24L45 24L45 23L46 23L46 22L45 22L45 21L44 21L44 24L43 24L43 25L42 25L42 22L43 22L43 20L46 20L46 19L47 19L47 18L46 18L46 17ZM18 18L18 21L17 21L17 22L18 22L18 21L19 21L19 20L21 20L21 19L19 19L19 18ZM39 18L39 20L40 20L40 19L41 19L41 18ZM45 18L45 19L46 19L46 18ZM0 19L0 21L1 21L1 19ZM6 19L6 20L7 20L7 19ZM13 19L13 20L14 20L14 19ZM26 19L26 20L27 20L27 21L25 21L25 22L26 22L26 23L25 23L25 24L26 24L26 25L25 25L25 26L26 26L26 25L27 25L27 24L28 24L28 26L29 26L29 25L30 25L30 23L31 23L31 25L32 25L32 26L34 26L34 27L31 27L31 28L32 28L32 29L33 29L33 30L35 30L35 29L33 29L33 28L34 28L34 27L35 27L35 28L37 28L37 27L35 27L35 25L36 25L36 24L35 24L35 23L34 23L34 24L35 24L35 25L33 25L33 24L32 24L32 23L31 23L31 22L30 22L30 21L29 21L29 20L28 20L28 19ZM50 19L50 22L49 22L49 23L50 23L50 26L53 26L53 27L55 27L55 26L56 26L56 25L55 25L55 24L54 24L54 23L55 23L55 22L53 22L53 20L52 20L52 21L51 21L51 19ZM32 20L32 21L33 21L33 20ZM54 20L54 21L55 21L55 20ZM4 21L4 22L7 22L7 23L4 23L4 24L3 24L3 25L5 25L5 24L8 24L8 22L7 22L7 21ZM15 21L15 22L16 22L16 21ZM29 22L29 23L28 23L28 24L29 24L29 23L30 23L30 22ZM39 22L39 24L40 24L40 22ZM50 22L50 23L51 23L51 22ZM23 23L23 24L19 24L19 25L20 25L20 26L19 26L19 28L21 28L21 29L19 29L19 30L21 30L21 31L20 31L20 32L21 32L21 31L22 31L22 30L23 30L23 29L25 29L25 30L24 30L24 31L25 31L25 34L26 34L26 32L27 32L27 31L25 31L25 30L26 30L26 27L23 27L23 29L22 29L22 28L21 28L21 27L22 27L22 25L23 25L23 24L24 24L24 23ZM52 23L52 24L51 24L51 25L52 25L52 24L53 24L53 25L54 25L54 26L55 26L55 25L54 25L54 24L53 24L53 23ZM6 25L6 26L7 26L7 25ZM15 25L15 27L14 27L14 28L15 28L15 27L16 27L16 28L17 28L17 29L16 29L16 31L15 31L15 30L14 30L14 29L13 29L13 28L12 28L12 27L11 27L11 28L12 28L12 30L14 30L14 31L13 31L13 33L11 33L11 35L8 35L8 36L7 36L7 35L5 35L5 36L7 36L7 37L6 37L6 38L7 38L7 37L8 37L8 38L9 38L9 39L10 39L10 38L13 38L13 36L15 36L15 33L16 33L16 34L17 34L17 33L16 33L16 31L18 31L18 30L17 30L17 29L18 29L18 28L17 28L17 27L18 27L18 25ZM5 27L5 30L8 30L8 27ZM27 27L27 30L30 30L30 27ZM49 27L49 30L52 30L52 27ZM0 28L0 31L1 31L1 32L2 32L2 31L3 31L3 29L2 29L2 31L1 31L1 28ZM6 28L6 29L7 29L7 28ZM28 28L28 29L29 29L29 28ZM50 28L50 29L51 29L51 28ZM21 29L21 30L22 30L22 29ZM36 29L36 30L37 30L37 29ZM40 30L40 31L41 31L41 30ZM46 30L46 31L47 31L47 32L46 32L46 33L45 33L45 34L46 34L46 35L45 35L45 36L47 36L47 35L49 35L49 34L48 34L48 33L47 33L47 32L48 32L48 31L47 31L47 30ZM6 31L6 32L7 32L7 31ZM14 31L14 32L15 32L15 31ZM34 31L34 32L32 32L32 33L33 33L33 34L35 34L35 33L34 33L34 32L37 32L37 31ZM46 33L46 34L47 34L47 33ZM12 34L12 35L11 35L11 37L12 37L12 36L13 36L13 35L14 35L14 34ZM29 34L29 35L30 35L30 36L31 36L31 38L32 38L32 35L30 35L30 34ZM50 35L50 37L52 37L52 36L51 36L51 35ZM55 35L55 36L54 36L54 37L55 37L55 36L56 36L56 35ZM9 36L9 37L10 37L10 36ZM37 36L37 37L36 37L36 38L37 38L37 37L38 37L38 39L39 39L39 40L38 40L38 42L39 42L39 41L41 41L41 40L43 40L43 39L45 39L45 38L44 38L44 37L43 37L43 36L40 36L40 38L39 38L39 36ZM15 37L15 38L16 38L16 37ZM42 37L42 38L41 38L41 39L40 39L40 40L41 40L41 39L42 39L42 38L43 38L43 37ZM47 37L47 38L48 38L48 39L49 39L49 37ZM54 38L54 39L55 39L55 38ZM31 39L31 40L33 40L33 41L34 41L34 40L33 40L33 39ZM6 40L6 41L7 41L7 40ZM27 41L27 42L26 42L26 43L27 43L27 42L28 42L28 41ZM3 42L3 43L5 43L5 42ZM40 42L40 43L41 43L41 42ZM43 42L43 44L39 44L39 45L36 45L36 46L40 46L40 45L41 45L41 46L42 46L42 45L43 45L43 44L44 44L44 45L45 45L45 43L44 43L44 42ZM50 42L50 43L51 43L51 42ZM6 43L6 44L8 44L8 43ZM48 43L48 44L49 44L49 43ZM12 45L12 46L11 46L11 47L12 47L12 48L14 48L14 49L15 49L15 45ZM1 46L1 47L2 47L2 46ZM13 46L13 47L14 47L14 46ZM23 47L23 48L24 48L24 47ZM20 48L20 49L21 49L21 50L17 50L17 51L18 51L18 53L19 53L19 52L23 52L23 51L22 51L22 49L21 49L21 48ZM10 49L10 50L11 50L11 51L10 51L10 52L8 52L8 57L10 57L10 52L11 52L11 51L12 51L12 50L11 50L11 49ZM27 49L27 52L30 52L30 49ZM45 49L45 50L46 50L46 51L47 51L47 50L46 50L46 49ZM49 49L49 52L52 52L52 49ZM28 50L28 51L29 51L29 50ZM50 50L50 51L51 51L51 50ZM45 52L45 53L44 53L44 54L45 54L45 53L47 53L47 52ZM25 53L25 54L26 54L26 53ZM29 53L29 54L30 54L30 53ZM21 54L21 55L22 55L22 54ZM12 55L12 56L14 56L14 55ZM36 55L36 56L37 56L37 55ZM0 0L0 7L7 7L7 0ZM1 1L1 6L6 6L6 1ZM2 2L2 5L5 5L5 2ZM50 0L50 7L57 7L57 0ZM51 1L51 6L56 6L56 1ZM52 2L52 5L55 5L55 2ZM0 50L0 57L7 57L7 50ZM1 51L1 56L6 56L6 51ZM2 52L2 55L5 55L5 52Z" fill="#000000"/></g></g></svg>
