<?xml version="1.0" encoding="UTF-8"?>
<svg xmlns="http://www.w3.org/2000/svg" version="1.1" width="300" height="300" viewBox="0 0 300 300"><rect x="0" y="0" width="300" height="300" fill="#ffffff"/><g transform="scale(4.918)"><g transform="translate(2,2)"><path fill-rule="evenodd" d="M9 0L9 1L8 1L8 2L9 2L9 3L8 3L8 4L9 4L9 5L8 5L8 7L9 7L9 5L10 5L10 7L11 7L11 8L13 8L13 10L12 10L12 9L10 9L10 10L9 10L9 8L6 8L6 9L5 9L5 8L0 8L0 9L2 9L2 11L3 11L3 12L4 12L4 11L3 11L3 9L4 9L4 10L5 10L5 11L8 11L8 12L9 12L9 11L10 11L10 12L11 12L11 13L9 13L9 14L8 14L8 13L7 13L7 12L5 12L5 13L4 13L4 15L3 15L3 16L4 16L4 17L3 17L3 18L4 18L4 17L5 17L5 19L4 19L4 20L3 20L3 22L2 22L2 21L1 21L1 19L0 19L0 23L1 23L1 22L2 22L2 23L4 23L4 21L5 21L5 20L6 20L6 21L7 21L7 22L5 22L5 23L8 23L8 24L6 24L6 25L5 25L5 24L4 24L4 26L2 26L2 25L1 25L1 26L0 26L0 27L1 27L1 28L2 28L2 30L1 30L1 29L0 29L0 31L2 31L2 30L3 30L3 32L2 32L2 33L1 33L1 32L0 32L0 33L1 33L1 34L0 34L0 36L4 36L4 37L5 37L5 38L3 38L3 39L2 39L2 42L1 42L1 41L0 41L0 42L1 42L1 43L0 43L0 44L2 44L2 45L0 45L0 48L5 48L5 47L8 47L8 48L6 48L6 49L8 49L8 51L9 51L9 52L8 52L8 57L9 57L9 56L13 56L13 57L14 57L14 55L12 55L12 53L13 53L13 54L16 54L16 53L13 53L13 52L11 52L11 51L10 51L10 50L9 50L9 47L8 47L8 46L6 46L6 45L7 45L7 44L6 44L6 43L7 43L7 42L5 42L5 41L7 41L7 40L3 40L3 39L5 39L5 38L6 38L6 39L10 39L10 42L9 42L9 41L8 41L8 42L9 42L9 43L8 43L8 44L9 44L9 43L10 43L10 45L11 45L11 43L14 43L14 44L12 44L12 45L13 45L13 46L12 46L12 48L14 48L14 49L13 49L13 50L12 50L12 51L14 51L14 52L15 52L15 51L16 51L16 52L18 52L18 53L17 53L17 55L19 55L19 56L17 56L17 57L21 57L21 53L22 53L22 54L23 54L23 53L24 53L24 54L25 54L25 55L22 55L22 56L25 56L25 57L26 57L26 56L28 56L28 55L26 55L26 54L27 54L27 53L28 53L28 54L29 54L29 53L31 53L31 54L30 54L30 56L29 56L29 57L30 57L30 56L31 56L31 57L32 57L32 56L31 56L31 55L34 55L34 54L32 54L32 52L33 52L33 53L34 53L34 52L33 52L33 51L32 51L32 50L31 50L31 48L33 48L33 47L35 47L35 48L34 48L34 49L33 49L33 50L34 50L34 51L35 51L35 52L36 52L36 53L37 53L37 54L36 54L36 55L35 55L35 57L40 57L40 56L41 56L41 57L44 57L44 56L47 56L47 55L50 55L50 54L53 54L53 55L51 55L51 56L50 56L50 57L52 57L52 56L55 56L55 57L56 57L56 56L55 56L55 53L53 53L53 52L55 52L55 51L56 51L56 52L57 52L57 51L56 51L56 50L57 50L57 49L56 49L56 48L57 48L57 47L56 47L56 48L55 48L55 47L54 47L54 48L55 48L55 49L54 49L54 51L53 51L53 47L52 47L52 45L54 45L54 46L57 46L57 44L56 44L56 45L54 45L54 44L55 44L55 43L56 43L56 41L55 41L55 40L56 40L56 39L54 39L54 38L55 38L55 37L54 37L54 36L56 36L56 37L57 37L57 36L56 36L56 34L57 34L57 33L56 33L56 31L55 31L55 30L57 30L57 28L56 28L56 29L55 29L55 30L53 30L53 29L54 29L54 28L55 28L55 27L56 27L56 26L55 26L55 25L54 25L54 24L55 24L55 23L56 23L56 24L57 24L57 23L56 23L56 22L57 22L57 21L55 21L55 23L54 23L54 24L53 24L53 22L52 22L52 20L53 20L53 21L54 21L54 20L57 20L57 19L56 19L56 18L57 18L57 17L54 17L54 16L55 16L55 15L56 15L56 16L57 16L57 15L56 15L56 14L57 14L57 13L56 13L56 14L55 14L55 13L54 13L54 15L53 15L53 17L54 17L54 18L55 18L55 19L54 19L54 20L53 20L53 19L52 19L52 18L50 18L50 16L52 16L52 15L51 15L51 14L52 14L52 13L51 13L51 14L49 14L49 13L47 13L47 14L46 14L46 12L45 12L45 11L46 11L46 10L45 10L45 11L42 11L42 10L43 10L43 9L44 9L44 7L45 7L45 8L46 8L46 9L47 9L47 5L48 5L48 0L46 0L46 1L45 1L45 0L44 0L44 1L45 1L45 2L42 2L42 1L43 1L43 0L42 0L42 1L41 1L41 2L39 2L39 1L36 1L36 2L37 2L37 3L36 3L36 5L35 5L35 6L34 6L34 5L33 5L33 6L32 6L32 7L31 7L31 4L32 4L32 3L33 3L33 2L34 2L34 4L35 4L35 1L33 1L33 2L28 2L28 3L27 3L27 2L26 2L26 3L25 3L25 2L24 2L24 1L26 1L26 0L21 0L21 4L22 4L22 5L23 5L23 6L22 6L22 7L23 7L23 6L24 6L24 8L26 8L26 9L27 9L27 10L26 10L26 11L27 11L27 12L25 12L25 13L24 13L24 11L23 11L23 10L25 10L25 9L22 9L22 8L21 8L21 9L22 9L22 11L23 11L23 13L22 13L22 12L21 12L21 11L20 11L20 9L19 9L19 6L20 6L20 7L21 7L21 6L20 6L20 5L17 5L17 4L20 4L20 3L17 3L17 4L16 4L16 2L17 2L17 1L16 1L16 2L14 2L14 1L15 1L15 0ZM19 0L19 1L18 1L18 2L20 2L20 0ZM29 0L29 1L32 1L32 0ZM10 1L10 3L11 3L11 4L10 4L10 5L11 5L11 7L12 7L12 5L14 5L14 4L15 4L15 5L16 5L16 4L15 4L15 3L14 3L14 2L13 2L13 1L12 1L12 3L11 3L11 1ZM22 1L22 2L23 2L23 3L22 3L22 4L23 4L23 5L24 5L24 6L25 6L25 7L26 7L26 6L25 6L25 5L26 5L26 4L27 4L27 3L26 3L26 4L25 4L25 3L24 3L24 2L23 2L23 1ZM46 1L46 2L47 2L47 1ZM38 2L38 6L37 6L37 5L36 5L36 6L35 6L35 7L34 7L34 6L33 6L33 7L34 7L34 8L35 8L35 9L33 9L33 8L32 8L32 9L31 9L31 10L29 10L29 9L28 9L28 10L27 10L27 11L31 11L31 12L30 12L30 13L31 13L31 12L32 12L32 13L33 13L33 14L36 14L36 16L35 16L35 15L33 15L33 16L32 16L32 15L31 15L31 14L29 14L29 16L27 16L27 15L26 15L26 14L28 14L28 13L29 13L29 12L28 12L28 13L26 13L26 14L24 14L24 13L23 13L23 15L26 15L26 16L22 16L22 14L21 14L21 13L19 13L19 12L20 12L20 11L19 11L19 9L18 9L18 8L17 8L17 9L15 9L15 8L16 8L16 6L15 6L15 8L14 8L14 10L13 10L13 11L12 11L12 10L10 10L10 11L11 11L11 12L12 12L12 13L14 13L14 14L9 14L9 15L8 15L8 14L7 14L7 13L5 13L5 15L6 15L6 16L5 16L5 17L6 17L6 18L8 18L8 20L7 20L7 19L6 19L6 20L7 20L7 21L8 21L8 22L9 22L9 23L11 23L11 24L9 24L9 25L8 25L8 26L10 26L10 25L11 25L11 24L12 24L12 22L10 22L10 21L11 21L11 20L10 20L10 18L9 18L9 17L11 17L11 18L12 18L12 17L13 17L13 16L14 16L14 17L15 17L15 18L16 18L16 20L15 20L15 21L13 21L13 20L14 20L14 19L12 19L12 21L13 21L13 22L14 22L14 23L13 23L13 24L15 24L15 23L16 23L16 25L13 25L13 26L11 26L11 27L12 27L12 28L11 28L11 29L12 29L12 30L10 30L10 31L11 31L11 32L9 32L9 31L5 31L5 33L4 33L4 34L1 34L1 35L4 35L4 36L5 36L5 37L6 37L6 38L11 38L11 36L9 36L9 35L8 35L8 34L10 34L10 35L11 35L11 34L12 34L12 39L11 39L11 40L12 40L12 39L13 39L13 34L14 34L14 35L15 35L15 36L16 36L16 37L14 37L14 38L16 38L16 37L18 37L18 38L17 38L17 39L19 39L19 40L21 40L21 41L18 41L18 43L17 43L17 41L15 41L15 42L14 42L14 43L15 43L15 44L14 44L14 45L16 45L16 46L15 46L15 47L14 47L14 48L15 48L15 47L16 47L16 48L17 48L17 47L16 47L16 46L18 46L18 48L19 48L19 49L14 49L14 51L15 51L15 50L17 50L17 51L18 51L18 52L19 52L19 53L18 53L18 54L19 54L19 55L20 55L20 54L19 54L19 53L21 53L21 52L22 52L22 53L23 53L23 52L24 52L24 53L26 53L26 50L24 50L24 51L21 51L21 50L22 50L22 49L26 49L26 48L27 48L27 47L26 47L26 46L29 46L29 45L27 45L27 44L26 44L26 43L27 43L27 42L26 42L26 39L27 39L27 41L28 41L28 42L29 42L29 43L28 43L28 44L29 44L29 43L30 43L30 44L32 44L32 46L35 46L35 47L36 47L36 48L35 48L35 49L34 49L34 50L35 50L35 51L36 51L36 52L38 52L38 55L36 55L36 56L40 56L40 55L41 55L41 54L42 54L42 55L43 55L43 56L44 56L44 55L45 55L45 54L48 54L48 52L47 52L47 51L48 51L48 48L50 48L50 47L51 47L51 48L52 48L52 47L51 47L51 46L50 46L50 47L49 47L49 46L48 46L48 44L47 44L47 45L46 45L46 46L48 46L48 47L45 47L45 48L44 48L44 47L43 47L43 46L44 46L44 45L45 45L45 44L44 44L44 43L43 43L43 42L41 42L41 40L43 40L43 41L44 41L44 42L46 42L46 43L48 43L48 42L47 42L47 41L48 41L48 40L46 40L46 39L45 39L45 38L47 38L47 37L49 37L49 35L51 35L51 36L50 36L50 37L51 37L51 38L50 38L50 39L49 39L49 41L52 41L52 42L50 42L50 43L52 43L52 44L53 44L53 43L54 43L54 40L53 40L53 41L52 41L52 40L50 40L50 39L51 39L51 38L52 38L52 39L53 39L53 38L54 38L54 37L53 37L53 36L54 36L54 34L55 34L55 32L54 32L54 31L52 31L52 32L53 32L53 33L50 33L50 32L49 32L49 31L48 31L48 28L47 28L47 27L48 27L48 25L49 25L49 24L50 24L50 26L51 26L51 25L53 25L53 27L55 27L55 26L54 26L54 25L53 25L53 24L51 24L51 23L50 23L50 22L51 22L51 20L52 20L52 19L50 19L50 18L48 18L48 17L49 17L49 16L50 16L50 15L46 15L46 16L47 16L47 17L46 17L46 18L45 18L45 16L43 16L43 17L44 17L44 18L42 18L42 17L41 17L41 16L39 16L39 15L40 15L40 14L42 14L42 15L43 15L43 14L44 14L44 15L45 15L45 12L44 12L44 13L43 13L43 14L42 14L42 11L40 11L40 10L39 10L39 9L38 9L38 11L40 11L40 12L38 12L38 14L36 14L36 12L37 12L37 11L36 11L36 10L37 10L37 9L36 9L36 8L37 8L37 7L38 7L38 8L40 8L40 9L41 9L41 8L42 8L42 9L43 9L43 8L42 8L42 6L43 6L43 7L44 7L44 6L45 6L45 7L46 7L46 5L47 5L47 3L43 3L43 5L42 5L42 6L41 6L41 3L40 3L40 5L39 5L39 2ZM13 3L13 4L14 4L14 3ZM23 3L23 4L24 4L24 5L25 5L25 4L24 4L24 3ZM28 3L28 4L30 4L30 3ZM44 4L44 5L45 5L45 4ZM27 5L27 8L30 8L30 5ZM13 6L13 7L14 7L14 6ZM17 6L17 7L18 7L18 6ZM28 6L28 7L29 7L29 6ZM36 6L36 7L35 7L35 8L36 8L36 7L37 7L37 6ZM38 6L38 7L39 7L39 6ZM40 6L40 8L41 8L41 6ZM48 6L48 8L49 8L49 9L48 9L48 10L50 10L50 12L51 12L51 11L52 11L52 12L53 12L53 11L54 11L54 12L57 12L57 11L56 11L56 10L57 10L57 9L56 9L56 8L55 8L55 9L56 9L56 10L55 10L55 11L54 11L54 10L52 10L52 8L51 8L51 10L50 10L50 8L49 8L49 6ZM53 8L53 9L54 9L54 8ZM6 9L6 10L8 10L8 11L9 11L9 10L8 10L8 9ZM17 9L17 10L15 10L15 11L18 11L18 9ZM32 9L32 10L31 10L31 11L33 11L33 13L35 13L35 12L34 12L34 11L35 11L35 10L36 10L36 9L35 9L35 10L34 10L34 11L33 11L33 9ZM0 10L0 11L1 11L1 10ZM13 11L13 12L14 12L14 11ZM16 12L16 13L15 13L15 14L16 14L16 13L18 13L18 14L17 14L17 15L15 15L15 17L16 17L16 16L17 16L17 17L19 17L19 18L18 18L18 19L19 19L19 18L20 18L20 17L19 17L19 15L21 15L21 14L19 14L19 13L18 13L18 12ZM0 13L0 15L2 15L2 14L3 14L3 13L2 13L2 14L1 14L1 13ZM6 14L6 15L7 15L7 16L6 16L6 17L9 17L9 16L8 16L8 15L7 15L7 14ZM18 14L18 15L17 15L17 16L18 16L18 15L19 15L19 14ZM10 15L10 16L11 16L11 15ZM12 15L12 16L13 16L13 15ZM30 15L30 16L31 16L31 17L27 17L27 16L26 16L26 17L21 17L21 19L23 19L23 21L19 21L19 20L17 20L17 21L19 21L19 22L20 22L20 23L17 23L17 25L19 25L19 26L18 26L18 27L17 27L17 28L16 28L16 29L15 29L15 26L14 26L14 28L13 28L13 30L12 30L12 31L13 31L13 30L14 30L14 31L15 31L15 35L16 35L16 33L19 33L19 31L20 31L20 33L21 33L21 34L24 34L24 35L26 35L26 38L25 38L25 37L24 37L24 36L23 36L23 37L22 37L22 36L21 36L21 37L22 37L22 38L21 38L21 40L22 40L22 38L24 38L24 39L23 39L23 40L24 40L24 41L22 41L22 43L23 43L23 42L25 42L25 43L24 43L24 44L23 44L23 45L24 45L24 47L23 47L23 48L25 48L25 45L26 45L26 44L25 44L25 43L26 43L26 42L25 42L25 39L26 39L26 38L27 38L27 39L31 39L31 40L28 40L28 41L31 41L31 42L30 42L30 43L31 43L31 42L32 42L32 41L31 41L31 40L33 40L33 39L31 39L31 38L32 38L32 35L33 35L33 34L34 34L34 35L35 35L35 34L36 34L36 35L37 35L37 34L38 34L38 35L40 35L40 36L36 36L36 38L38 38L38 37L39 37L39 38L40 38L40 36L41 36L41 37L42 37L42 38L43 38L43 37L44 37L44 38L45 38L45 37L44 37L44 34L43 34L43 32L45 32L45 33L47 33L47 34L45 34L45 36L48 36L48 33L47 33L47 32L48 32L48 31L47 31L47 30L46 30L46 29L47 29L47 28L46 28L46 26L44 26L44 27L42 27L42 26L43 26L43 25L44 25L44 24L45 24L45 25L48 25L48 23L49 23L49 22L50 22L50 19L48 19L48 18L46 18L46 19L42 19L42 18L41 18L41 19L40 19L40 20L39 20L39 21L40 21L40 20L41 20L41 19L42 19L42 20L46 20L46 21L47 21L47 20L49 20L49 21L48 21L48 23L47 23L47 22L45 22L45 21L44 21L44 23L41 23L41 24L43 24L43 25L40 25L40 27L39 27L39 28L38 28L38 29L39 29L39 30L37 30L37 27L38 27L38 25L39 25L39 24L40 24L40 22L39 22L39 24L38 24L38 23L37 23L37 22L38 22L38 19L39 19L39 18L40 18L40 17L39 17L39 16L38 16L38 15L37 15L37 16L36 16L36 17L35 17L35 18L34 18L34 16L33 16L33 18L32 18L32 19L30 19L30 20L29 20L29 21L27 21L27 20L26 20L26 19L25 19L25 20L26 20L26 21L24 21L24 18L31 18L31 17L32 17L32 16L31 16L31 15ZM1 16L1 17L0 17L0 18L2 18L2 16ZM37 17L37 18L39 18L39 17ZM33 18L33 20L32 20L32 21L33 21L33 22L34 22L34 23L36 23L36 24L35 24L35 25L33 25L33 23L31 23L31 22L28 22L28 23L26 23L26 22L24 22L24 23L23 23L23 22L21 22L21 24L19 24L19 25L20 25L20 26L19 26L19 28L21 28L21 29L19 29L19 30L18 30L18 31L19 31L19 30L20 30L20 31L22 31L22 32L21 32L21 33L25 33L25 34L26 34L26 35L27 35L27 37L28 37L28 38L29 38L29 37L28 37L28 36L29 36L29 35L30 35L30 38L31 38L31 35L32 35L32 34L33 34L33 32L31 32L31 31L33 31L33 30L36 30L36 29L33 29L33 28L34 28L34 26L35 26L35 27L36 27L36 26L35 26L35 25L36 25L36 24L37 24L37 25L38 25L38 24L37 24L37 23L36 23L36 22L37 22L37 21L36 21L36 20L37 20L37 19L34 19L34 18ZM46 19L46 20L47 20L47 19ZM8 20L8 21L9 21L9 20ZM15 21L15 22L16 22L16 21ZM41 21L41 22L43 22L43 21ZM22 23L22 24L23 24L23 23ZM24 23L24 25L22 25L22 26L21 26L21 28L23 28L23 29L22 29L22 31L23 31L23 32L25 32L25 31L29 31L29 32L26 32L26 33L29 33L29 34L30 34L30 35L31 35L31 34L32 34L32 33L30 33L30 31L31 31L31 30L33 30L33 29L32 29L32 28L33 28L33 26L32 26L32 28L31 28L31 25L32 25L32 24L31 24L31 23L28 23L28 24L26 24L26 23ZM45 23L45 24L46 24L46 23ZM25 24L25 26L26 26L26 24ZM28 24L28 25L29 25L29 26L30 26L30 25L31 25L31 24ZM6 25L6 26L7 26L7 25ZM22 26L22 27L24 27L24 26ZM2 27L2 28L3 28L3 27ZM5 27L5 30L8 30L8 27ZM25 27L25 28L24 28L24 29L23 29L23 31L24 31L24 29L25 29L25 30L26 30L26 27ZM27 27L27 30L30 30L30 27ZM40 27L40 28L39 28L39 29L41 29L41 30L40 30L40 31L39 31L39 32L38 32L38 31L34 31L34 32L37 32L37 33L36 33L36 34L37 34L37 33L38 33L38 34L41 34L41 35L43 35L43 34L41 34L41 33L42 33L42 31L45 31L45 32L47 32L47 31L46 31L46 30L45 30L45 28L44 28L44 30L42 30L42 29L43 29L43 28L42 28L42 27ZM49 27L49 30L52 30L52 27ZM6 28L6 29L7 29L7 28ZM9 28L9 29L10 29L10 28ZM17 28L17 29L16 29L16 30L17 30L17 29L18 29L18 28ZM28 28L28 29L29 29L29 28ZM50 28L50 29L51 29L51 28ZM3 29L3 30L4 30L4 29ZM41 30L41 31L40 31L40 32L39 32L39 33L40 33L40 32L41 32L41 31L42 31L42 30ZM16 31L16 32L17 32L17 31ZM6 32L6 33L7 33L7 32ZM8 32L8 33L9 33L9 32ZM11 32L11 33L12 33L12 34L13 34L13 32ZM34 33L34 34L35 34L35 33ZM4 34L4 35L5 35L5 34ZM6 34L6 35L7 35L7 36L6 36L6 37L8 37L8 35L7 35L7 34ZM18 34L18 35L17 35L17 36L18 36L18 37L20 37L20 34ZM52 34L52 36L51 36L51 37L52 37L52 36L53 36L53 34ZM33 36L33 37L35 37L35 36ZM0 37L0 38L1 38L1 37ZM19 38L19 39L20 39L20 38ZM34 38L34 39L35 39L35 40L36 40L36 41L35 41L35 42L36 42L36 44L35 44L35 46L36 46L36 47L37 47L37 48L36 48L36 49L35 49L35 50L36 50L36 51L38 51L38 52L39 52L39 55L40 55L40 52L41 52L41 51L42 51L42 52L43 52L43 53L42 53L42 54L43 54L43 53L44 53L44 54L45 54L45 53L44 53L44 51L45 51L45 50L46 50L46 51L47 51L47 50L46 50L46 49L45 49L45 50L44 50L44 51L42 51L42 50L43 50L43 49L44 49L44 48L43 48L43 47L42 47L42 46L43 46L43 45L44 45L44 44L43 44L43 43L39 43L39 44L38 44L38 39L37 39L37 40L36 40L36 39L35 39L35 38ZM14 39L14 40L13 40L13 41L14 41L14 40L16 40L16 39ZM39 39L39 40L41 40L41 39ZM43 39L43 40L45 40L45 41L46 41L46 40L45 40L45 39ZM3 41L3 43L2 43L2 44L3 44L3 45L2 45L2 46L1 46L1 47L2 47L2 46L3 46L3 47L5 47L5 45L4 45L4 44L5 44L5 42L4 42L4 41ZM11 41L11 42L12 42L12 41ZM36 41L36 42L37 42L37 41ZM15 42L15 43L16 43L16 42ZM20 42L20 44L19 44L19 45L18 45L18 44L16 44L16 45L18 45L18 46L19 46L19 48L20 48L20 49L19 49L19 50L18 50L18 51L19 51L19 52L20 52L20 51L19 51L19 50L20 50L20 49L21 49L21 48L20 48L20 46L19 46L19 45L21 45L21 47L22 47L22 44L21 44L21 42ZM33 42L33 43L32 43L32 44L34 44L34 42ZM3 43L3 44L4 44L4 43ZM24 44L24 45L25 45L25 44ZM37 44L37 46L39 46L39 45L38 45L38 44ZM40 44L40 45L41 45L41 46L42 46L42 45L43 45L43 44ZM49 44L49 45L51 45L51 44ZM30 45L30 46L31 46L31 45ZM10 47L10 49L11 49L11 47ZM28 47L28 48L29 48L29 47ZM30 47L30 48L31 48L31 47ZM38 47L38 49L36 49L36 50L39 50L39 52L40 52L40 51L41 51L41 50L42 50L42 49L43 49L43 48L40 48L40 47ZM39 48L39 50L40 50L40 48ZM27 49L27 52L30 52L30 49ZM49 49L49 52L52 52L52 49ZM55 49L55 50L56 50L56 49ZM28 50L28 51L29 51L29 50ZM50 50L50 51L51 51L51 50ZM24 51L24 52L25 52L25 51ZM31 51L31 52L32 52L32 51ZM10 52L10 53L9 53L9 54L10 54L10 53L11 53L11 52ZM46 52L46 53L47 53L47 52ZM49 53L49 54L50 54L50 53ZM15 55L15 57L16 57L16 55ZM25 55L25 56L26 56L26 55ZM48 56L48 57L49 57L49 56ZM0 0L0 7L7 7L7 0ZM1 1L1 6L6 6L6 1ZM2 2L2 5L5 5L5 2ZM50 0L50 7L57 7L57 0ZM51 1L51 6L56 6L56 1ZM52 2L52 5L55 5L55 2ZM0 50L0 57L7 57L7 50ZM1 51L1 56L6 56L6 51ZM2 52L2 55L5 55L5 52Z" fill="#000000"/></g></g></svg>
