<?xml version="1.0" encoding="UTF-8"?>
<svg xmlns="http://www.w3.org/2000/svg" version="1.1" width="300" height="300" viewBox="0 0 300 300"><rect x="0" y="0" width="300" height="300" fill="#ffffff"/><g transform="scale(4.918)"><g transform="translate(2,2)"><path fill-rule="evenodd" d="M9 0L9 1L8 1L8 2L10 2L10 3L8 3L8 4L10 4L10 3L11 3L11 6L10 6L10 7L9 7L9 5L8 5L8 7L9 7L9 8L6 8L6 9L7 9L7 10L5 10L5 8L0 8L0 10L1 10L1 11L0 11L0 13L1 13L1 11L3 11L3 12L2 12L2 13L3 13L3 12L6 12L6 13L4 13L4 14L2 14L2 16L1 16L1 18L0 18L0 21L1 21L1 22L0 22L0 23L2 23L2 24L3 24L3 22L4 22L4 24L6 24L6 25L5 25L5 26L3 26L3 27L1 27L1 26L2 26L2 25L1 25L1 26L0 26L0 27L1 27L1 28L2 28L2 29L0 29L0 30L2 30L2 31L1 31L1 34L2 34L2 31L3 31L3 30L2 30L2 29L3 29L3 28L4 28L4 31L5 31L5 32L4 32L4 33L5 33L5 34L3 34L3 35L2 35L2 37L1 37L1 35L0 35L0 41L5 41L5 42L4 42L4 44L3 44L3 45L2 45L2 43L3 43L3 42L2 42L2 43L1 43L1 42L0 42L0 43L1 43L1 45L0 45L0 48L5 48L5 47L7 47L7 46L8 46L8 45L7 45L7 44L6 44L6 45L7 45L7 46L5 46L5 47L3 47L3 46L4 46L4 44L5 44L5 43L7 43L7 42L9 42L9 43L8 43L8 44L10 44L10 43L11 43L11 44L13 44L13 42L14 42L14 41L16 41L16 39L15 39L15 38L16 38L16 37L15 37L15 36L17 36L17 38L18 38L18 37L19 37L19 38L20 38L20 39L18 39L18 40L17 40L17 42L16 42L16 44L15 44L15 43L14 43L14 46L12 46L12 45L9 45L9 46L11 46L11 48L9 48L9 47L8 47L8 48L6 48L6 49L8 49L8 51L9 51L9 49L10 49L10 50L12 50L12 51L11 51L11 52L10 52L10 53L9 53L9 52L8 52L8 57L11 57L11 56L10 56L10 55L11 55L11 54L12 54L12 52L13 52L13 54L14 54L14 53L16 53L16 54L15 54L15 55L16 55L16 56L14 56L14 55L12 55L12 56L14 56L14 57L17 57L17 55L18 55L18 57L19 57L19 55L20 55L20 54L19 54L19 55L18 55L18 54L17 54L17 53L20 53L20 52L22 52L22 51L20 51L20 52L18 52L18 51L19 51L19 50L20 50L20 49L21 49L21 50L23 50L23 51L24 51L24 53L21 53L21 55L23 55L23 57L24 57L24 55L23 55L23 54L24 54L24 53L25 53L25 56L28 56L28 55L27 55L27 53L28 53L28 54L30 54L30 53L31 53L31 55L33 55L33 54L34 54L34 56L30 56L30 55L29 55L29 56L30 56L30 57L37 57L37 56L38 56L38 55L37 55L37 54L38 54L38 52L36 52L36 51L39 51L39 50L36 50L36 49L37 49L37 48L38 48L38 47L39 47L39 48L41 48L41 47L42 47L42 46L43 46L43 48L42 48L42 49L41 49L41 50L43 50L43 51L40 51L40 52L39 52L39 55L40 55L40 52L41 52L41 54L42 54L42 56L41 56L41 57L44 57L44 56L45 56L45 55L44 55L44 56L43 56L43 53L44 53L44 54L45 54L45 53L47 53L47 55L46 55L46 57L48 57L48 56L50 56L50 55L51 55L51 57L52 57L52 56L53 56L53 57L54 57L54 56L55 56L55 57L56 57L56 56L55 56L55 55L54 55L54 54L55 54L55 53L56 53L56 52L57 52L57 51L56 51L56 50L57 50L57 49L56 49L56 48L55 48L55 47L56 47L56 46L57 46L57 45L55 45L55 46L54 46L54 48L52 48L52 47L53 47L53 46L52 46L52 45L54 45L54 44L55 44L55 42L57 42L57 41L55 41L55 39L57 39L57 37L56 37L56 36L57 36L57 35L56 35L56 34L57 34L57 33L56 33L56 30L57 30L57 29L54 29L54 28L55 28L55 27L56 27L56 25L57 25L57 23L56 23L56 22L57 22L57 21L56 21L56 19L55 19L55 18L57 18L57 17L54 17L54 16L55 16L55 15L56 15L56 16L57 16L57 15L56 15L56 14L57 14L57 13L56 13L56 10L57 10L57 9L56 9L56 8L55 8L55 11L54 11L54 10L53 10L53 9L54 9L54 8L53 8L53 9L52 9L52 8L51 8L51 10L50 10L50 8L49 8L49 9L48 9L48 8L46 8L46 7L47 7L47 5L48 5L48 0L46 0L46 1L45 1L45 2L44 2L44 1L43 1L43 0L42 0L42 1L41 1L41 2L40 2L40 1L36 1L36 0L35 0L35 1L34 1L34 0L32 0L32 1L34 1L34 2L30 2L30 1L31 1L31 0L30 0L30 1L29 1L29 0L28 0L28 1L26 1L26 0L24 0L24 1L23 1L23 0L21 0L21 1L23 1L23 2L24 2L24 3L23 3L23 4L22 4L22 2L20 2L20 3L21 3L21 4L19 4L19 3L18 3L18 4L19 4L19 5L20 5L20 7L19 7L19 6L18 6L18 9L19 9L19 10L18 10L18 11L17 11L17 10L16 10L16 11L15 11L15 9L14 9L14 8L13 8L13 6L12 6L12 5L16 5L16 4L14 4L14 2L12 2L12 3L11 3L11 0ZM14 0L14 1L15 1L15 0ZM18 1L18 2L19 2L19 1ZM25 1L25 3L26 3L26 4L25 4L25 8L24 8L24 6L23 6L23 7L22 7L22 6L21 6L21 7L22 7L22 8L21 8L21 9L20 9L20 11L19 11L19 14L20 14L20 16L19 16L19 15L18 15L18 14L17 14L17 13L18 13L18 12L17 12L17 11L16 11L16 12L17 12L17 13L13 13L13 14L11 14L11 13L12 13L12 11L13 11L13 12L14 12L14 11L13 11L13 10L12 10L12 9L11 9L11 10L12 10L12 11L11 11L11 12L8 12L8 11L6 11L6 12L8 12L8 13L6 13L6 14L9 14L9 15L10 15L10 16L8 16L8 15L6 15L6 16L5 16L5 17L4 17L4 16L2 16L2 18L1 18L1 20L2 20L2 22L3 22L3 21L4 21L4 22L5 22L5 21L6 21L6 22L7 22L7 23L6 23L6 24L7 24L7 23L8 23L8 24L10 24L10 25L9 25L9 26L11 26L11 27L9 27L9 30L10 30L10 33L11 33L11 32L13 32L13 31L12 31L12 30L14 30L14 31L15 31L15 33L16 33L16 35L17 35L17 36L19 36L19 37L21 37L21 38L22 38L22 39L21 39L21 40L19 40L19 41L20 41L20 44L21 44L21 45L19 45L19 46L20 46L20 48L19 48L19 47L18 47L18 46L17 46L17 45L18 45L18 44L17 44L17 45L15 45L15 46L14 46L14 47L13 47L13 49L14 49L14 48L15 48L15 49L16 49L16 50L15 50L15 51L16 51L16 53L17 53L17 51L18 51L18 50L19 50L19 49L20 49L20 48L21 48L21 49L24 49L24 48L27 48L27 47L28 47L28 48L31 48L31 49L32 49L32 51L31 51L31 52L32 52L32 54L33 54L33 52L32 52L32 51L33 51L33 50L35 50L35 48L37 48L37 47L36 47L36 46L39 46L39 47L40 47L40 46L39 46L39 45L41 45L41 46L42 46L42 45L43 45L43 44L39 44L39 43L41 43L41 41L42 41L42 40L40 40L40 39L41 39L41 37L42 37L42 36L43 36L43 35L44 35L44 37L43 37L43 40L44 40L44 41L43 41L43 42L42 42L42 43L43 43L43 42L44 42L44 47L45 47L45 42L48 42L48 43L49 43L49 42L48 42L48 41L51 41L51 42L50 42L50 43L51 43L51 42L53 42L53 43L52 43L52 44L50 44L50 46L48 46L48 45L49 45L49 44L47 44L47 45L46 45L46 46L48 46L48 47L46 47L46 48L43 48L43 49L46 49L46 50L44 50L44 53L45 53L45 51L46 51L46 52L47 52L47 53L48 53L48 54L51 54L51 55L53 55L53 54L54 54L54 53L55 53L55 52L56 52L56 51L55 51L55 50L56 50L56 49L55 49L55 48L54 48L54 49L53 49L53 54L51 54L51 53L48 53L48 52L47 52L47 51L48 51L48 48L49 48L49 47L51 47L51 45L52 45L52 44L53 44L53 43L54 43L54 40L53 40L53 37L51 37L51 36L52 36L52 34L53 34L53 36L54 36L54 37L55 37L55 38L54 38L54 39L55 39L55 38L56 38L56 37L55 37L55 36L56 36L56 35L55 35L55 34L56 34L56 33L55 33L55 32L54 32L54 31L55 31L55 30L54 30L54 29L53 29L53 31L51 31L51 32L50 32L50 31L48 31L48 29L46 29L46 30L44 30L44 29L45 29L45 28L42 28L42 26L41 26L41 23L44 23L44 25L43 25L43 24L42 24L42 25L43 25L43 26L44 26L44 27L45 27L45 26L47 26L47 27L46 27L46 28L48 28L48 25L49 25L49 24L48 24L48 25L47 25L47 23L46 23L46 22L47 22L47 21L46 21L46 22L45 22L45 23L44 23L44 21L45 21L45 20L43 20L43 19L45 19L45 18L47 18L47 19L46 19L46 20L47 20L47 19L48 19L48 20L49 20L49 19L50 19L50 22L48 22L48 23L50 23L50 26L51 26L51 24L52 24L52 26L53 26L53 27L55 27L55 26L54 26L54 25L55 25L55 24L52 24L52 22L55 22L55 20L54 20L54 19L53 19L53 16L54 16L54 13L55 13L55 14L56 14L56 13L55 13L55 12L54 12L54 11L53 11L53 10L52 10L52 11L50 11L50 10L49 10L49 11L50 11L50 16L49 16L49 15L45 15L45 12L46 12L46 14L47 14L47 13L49 13L49 12L48 12L48 9L45 9L45 8L41 8L41 7L42 7L42 6L43 6L43 7L44 7L44 6L45 6L45 7L46 7L46 5L47 5L47 3L46 3L46 4L45 4L45 3L42 3L42 4L43 4L43 5L42 5L42 6L41 6L41 5L40 5L40 4L41 4L41 3L40 3L40 4L38 4L38 5L36 5L36 3L37 3L37 2L34 2L34 3L32 3L32 4L31 4L31 3L30 3L30 2L29 2L29 3L27 3L27 2L26 2L26 1ZM42 1L42 2L43 2L43 1ZM46 1L46 2L47 2L47 1ZM12 3L12 4L13 4L13 3ZM29 3L29 4L26 4L26 8L25 8L25 9L24 9L24 8L23 8L23 9L24 9L24 11L23 11L23 10L22 10L22 9L21 9L21 10L22 10L22 11L20 11L20 13L21 13L21 16L20 16L20 17L19 17L19 16L18 16L18 17L17 17L17 14L14 14L14 15L13 15L13 16L12 16L12 15L11 15L11 14L10 14L10 15L11 15L11 16L10 16L10 17L9 17L9 18L10 18L10 17L12 17L12 18L13 18L13 17L14 17L14 15L16 15L16 17L15 17L15 18L16 18L16 19L18 19L18 21L20 21L20 20L19 20L19 19L22 19L22 18L23 18L23 19L24 19L24 18L26 18L26 19L27 19L27 20L24 20L24 21L22 21L22 20L21 20L21 21L22 21L22 22L21 22L21 23L23 23L23 24L24 24L24 23L23 23L23 22L24 22L24 21L25 21L25 22L26 22L26 23L25 23L25 24L27 24L27 25L26 25L26 26L25 26L25 25L23 25L23 29L24 29L24 30L22 30L22 31L20 31L20 29L22 29L22 28L20 28L20 29L18 29L18 28L16 28L16 27L18 27L18 26L15 26L15 27L14 27L14 25L13 25L13 24L14 24L14 23L16 23L16 24L15 24L15 25L16 25L16 24L17 24L17 25L21 25L21 27L22 27L22 25L21 25L21 24L18 24L18 23L17 23L17 21L16 21L16 20L15 20L15 21L16 21L16 22L14 22L14 21L13 21L13 22L12 22L12 23L13 23L13 24L11 24L11 22L8 22L8 21L7 21L7 20L8 20L8 19L7 19L7 18L8 18L8 17L7 17L7 16L6 16L6 17L5 17L5 18L4 18L4 17L3 17L3 19L5 19L5 20L6 20L6 21L7 21L7 22L8 22L8 23L10 23L10 24L11 24L11 26L12 26L12 25L13 25L13 27L14 27L14 28L13 28L13 29L14 29L14 28L15 28L15 29L18 29L18 30L19 30L19 31L20 31L20 32L18 32L18 33L19 33L19 34L18 34L18 35L20 35L20 33L21 33L21 35L23 35L23 37L22 37L22 36L21 36L21 37L22 37L22 38L23 38L23 39L24 39L24 40L23 40L23 41L21 41L21 42L22 42L22 43L21 43L21 44L22 44L22 45L21 45L21 48L23 48L23 47L25 47L25 45L26 45L26 44L28 44L28 45L27 45L27 46L26 46L26 47L27 47L27 46L28 46L28 45L30 45L30 43L31 43L31 46L30 46L30 47L31 47L31 48L35 48L35 46L36 46L36 45L38 45L38 44L36 44L36 43L39 43L39 42L36 42L36 43L35 43L35 46L33 46L33 45L32 45L32 43L31 43L31 42L32 42L32 41L31 41L31 40L32 40L32 39L31 39L31 38L32 38L32 32L33 32L33 34L34 34L34 35L35 35L35 34L36 34L36 35L37 35L37 36L36 36L36 39L35 39L35 38L34 38L34 40L35 40L35 41L37 41L37 40L38 40L38 39L39 39L39 38L40 38L40 36L42 36L42 34L43 34L43 33L42 33L42 34L41 34L41 33L39 33L39 34L38 34L38 32L41 32L41 31L42 31L42 32L45 32L45 34L44 34L44 35L45 35L45 37L44 37L44 38L45 38L45 39L44 39L44 40L45 40L45 41L44 41L44 42L45 42L45 41L47 41L47 40L46 40L46 38L45 38L45 37L46 37L46 36L48 36L48 35L50 35L50 32L49 32L49 34L48 34L48 33L47 33L47 34L46 34L46 32L45 32L45 31L44 31L44 30L43 30L43 29L42 29L42 30L41 30L41 29L39 29L39 28L38 28L38 29L39 29L39 30L37 30L37 31L38 31L38 32L35 32L35 34L34 34L34 31L35 31L35 30L33 30L33 29L35 29L35 28L36 28L36 29L37 29L37 28L36 28L36 27L37 27L37 26L38 26L38 27L39 27L39 26L38 26L38 25L37 25L37 24L34 24L34 23L35 23L35 22L34 22L34 23L33 23L33 21L32 21L32 20L33 20L33 19L31 19L31 20L30 20L30 22L29 22L29 23L28 23L28 22L27 22L27 20L28 20L28 19L29 19L29 18L34 18L34 20L35 20L35 19L37 19L37 20L36 20L36 21L37 21L37 22L36 22L36 23L37 23L37 22L38 22L38 24L39 24L39 23L40 23L40 20L41 20L41 19L42 19L42 18L43 18L43 17L44 17L44 18L45 18L45 17L44 17L44 16L45 16L45 15L44 15L44 16L41 16L41 15L42 15L42 14L43 14L43 13L44 13L44 11L47 11L47 10L45 10L45 9L44 9L44 11L43 11L43 9L39 9L39 8L40 8L40 7L41 7L41 6L40 6L40 7L39 7L39 5L38 5L38 7L37 7L37 6L36 6L36 5L35 5L35 6L34 6L34 5L33 5L33 6L32 6L32 7L31 7L31 4L30 4L30 3ZM21 4L21 5L22 5L22 4ZM23 4L23 5L24 5L24 4ZM44 4L44 5L45 5L45 4ZM27 5L27 8L30 8L30 5ZM11 6L11 7L10 7L10 8L11 8L11 7L12 7L12 6ZM14 6L14 7L15 7L15 8L16 8L16 7L17 7L17 6L16 6L16 7L15 7L15 6ZM28 6L28 7L29 7L29 6ZM33 6L33 7L32 7L32 8L31 8L31 9L32 9L32 10L31 10L31 11L30 11L30 12L28 12L28 13L25 13L25 12L27 12L27 11L26 11L26 10L28 10L28 11L29 11L29 9L25 9L25 11L24 11L24 12L23 12L23 13L22 13L22 12L21 12L21 13L22 13L22 15L23 15L23 16L22 16L22 17L24 17L24 16L25 16L25 17L26 17L26 16L27 16L27 17L28 17L28 16L29 16L29 17L31 17L31 16L32 16L32 17L33 17L33 16L35 16L35 17L34 17L34 18L39 18L39 20L40 20L40 19L41 19L41 18L42 18L42 17L41 17L41 16L40 16L40 15L41 15L41 14L42 14L42 10L41 10L41 12L38 12L38 13L36 13L36 14L40 14L40 15L39 15L39 16L38 16L38 15L36 15L36 16L35 16L35 15L33 15L33 14L35 14L35 13L33 13L33 9L34 9L34 10L35 10L35 11L34 11L34 12L36 12L36 10L37 10L37 9L38 9L38 10L39 10L39 9L38 9L38 8L37 8L37 7L36 7L36 6L35 6L35 7L36 7L36 8L34 8L34 6ZM48 6L48 7L49 7L49 6ZM36 8L36 9L35 9L35 10L36 10L36 9L37 9L37 8ZM2 9L2 10L4 10L4 11L5 11L5 10L4 10L4 9ZM8 9L8 10L9 10L9 11L10 11L10 9ZM52 11L52 12L53 12L53 11ZM31 12L31 13L32 13L32 12ZM23 13L23 14L24 14L24 15L25 15L25 16L26 16L26 14L25 14L25 13ZM28 13L28 14L27 14L27 16L28 16L28 15L29 15L29 14L30 14L30 16L31 16L31 15L32 15L32 16L33 16L33 15L32 15L32 14L30 14L30 13ZM51 13L51 14L52 14L52 13ZM0 14L0 15L1 15L1 14ZM4 14L4 15L5 15L5 14ZM36 16L36 17L38 17L38 16ZM39 16L39 18L40 18L40 16ZM47 16L47 17L48 17L48 18L50 18L50 17L51 17L51 16L50 16L50 17L48 17L48 16ZM6 17L6 18L7 18L7 17ZM16 17L16 18L17 18L17 17ZM18 17L18 19L19 19L19 17ZM20 17L20 18L21 18L21 17ZM27 18L27 19L28 19L28 18ZM6 19L6 20L7 20L7 19ZM11 19L11 20L10 20L10 21L11 21L11 20L12 20L12 19ZM13 19L13 20L14 20L14 19ZM51 19L51 20L52 20L52 19ZM42 20L42 21L41 21L41 22L43 22L43 20ZM38 21L38 22L39 22L39 21ZM13 22L13 23L14 23L14 22ZM19 22L19 23L20 23L20 22ZM30 22L30 23L31 23L31 24L28 24L28 23L27 23L27 24L28 24L28 25L27 25L27 26L28 26L28 25L31 25L31 26L32 26L32 25L31 25L31 24L33 24L33 23L31 23L31 22ZM50 22L50 23L51 23L51 22ZM6 25L6 26L8 26L8 25ZM33 25L33 28L32 28L32 29L31 29L31 30L32 30L32 31L25 31L25 32L29 32L29 33L25 33L25 34L24 34L24 36L25 36L25 40L24 40L24 41L25 41L25 44L24 44L24 45L22 45L22 47L23 47L23 46L24 46L24 45L25 45L25 44L26 44L26 43L28 43L28 42L29 42L29 43L30 43L30 41L28 41L28 40L31 40L31 39L29 39L29 35L30 35L30 34L29 34L29 33L30 33L30 32L32 32L32 31L33 31L33 30L32 30L32 29L33 29L33 28L34 28L34 26L35 26L35 27L36 27L36 25ZM19 26L19 27L20 27L20 26ZM5 27L5 30L8 30L8 27ZM11 27L11 28L10 28L10 30L11 30L11 29L12 29L12 27ZM25 27L25 28L24 28L24 29L25 29L25 30L26 30L26 27ZM27 27L27 30L30 30L30 27ZM40 27L40 28L41 28L41 27ZM49 27L49 30L52 30L52 27ZM6 28L6 29L7 29L7 28ZM28 28L28 29L29 29L29 28ZM50 28L50 29L51 29L51 28ZM16 30L16 31L17 31L17 30ZM39 30L39 31L41 31L41 30ZM42 30L42 31L43 31L43 30ZM46 30L46 31L47 31L47 32L48 32L48 31L47 31L47 30ZM6 31L6 32L5 32L5 33L6 33L6 34L7 34L7 35L5 35L5 36L4 36L4 37L2 37L2 38L4 38L4 40L5 40L5 41L6 41L6 42L7 42L7 41L6 41L6 40L8 40L8 41L9 41L9 42L11 42L11 43L12 43L12 42L13 42L13 40L14 40L14 39L13 39L13 40L12 40L12 42L11 42L11 41L9 41L9 40L10 40L10 39L9 39L9 37L10 37L10 38L11 38L11 37L12 37L12 38L13 38L13 37L12 37L12 36L11 36L11 34L10 34L10 35L9 35L9 34L8 34L8 33L9 33L9 31ZM22 31L22 33L24 33L24 32L23 32L23 31ZM6 32L6 33L7 33L7 32ZM16 32L16 33L17 33L17 32ZM51 32L51 33L54 33L54 34L55 34L55 33L54 33L54 32ZM13 33L13 34L12 34L12 35L13 35L13 34L14 34L14 36L15 36L15 34L14 34L14 33ZM36 33L36 34L37 34L37 35L38 35L38 34L37 34L37 33ZM25 34L25 35L27 35L27 34ZM40 34L40 35L39 35L39 36L40 36L40 35L41 35L41 34ZM45 34L45 35L46 35L46 34ZM7 35L7 36L6 36L6 37L5 37L5 40L6 40L6 39L7 39L7 38L6 38L6 37L7 37L7 36L9 36L9 35ZM54 35L54 36L55 36L55 35ZM26 36L26 37L27 37L27 38L26 38L26 39L27 39L27 40L28 40L28 39L27 39L27 38L28 38L28 37L27 37L27 36ZM30 36L30 38L31 38L31 36ZM37 36L37 37L38 37L38 38L37 38L37 39L36 39L36 40L37 40L37 39L38 39L38 38L39 38L39 37L38 37L38 36ZM14 37L14 38L15 38L15 37ZM23 37L23 38L24 38L24 37ZM47 37L47 38L48 38L48 39L50 39L50 40L51 40L51 41L52 41L52 39L50 39L50 38L51 38L51 37L50 37L50 38L48 38L48 37ZM1 39L1 40L3 40L3 39ZM8 39L8 40L9 40L9 39ZM39 40L39 41L40 41L40 40ZM26 41L26 42L27 42L27 41ZM33 41L33 44L34 44L34 41ZM17 42L17 43L18 43L18 42ZM23 42L23 43L24 43L24 42ZM56 43L56 44L57 44L57 43ZM1 45L1 47L2 47L2 45ZM32 46L32 47L33 47L33 46ZM15 47L15 48L16 48L16 49L19 49L19 48L17 48L17 47ZM8 48L8 49L9 49L9 48ZM11 48L11 49L12 49L12 48ZM46 48L46 49L47 49L47 48ZM27 49L27 52L30 52L30 49ZM49 49L49 52L52 52L52 49ZM25 50L25 53L26 53L26 50ZM28 50L28 51L29 51L29 50ZM46 50L46 51L47 51L47 50ZM50 50L50 51L51 51L51 50ZM54 51L54 52L55 52L55 51ZM35 52L35 53L34 53L34 54L35 54L35 53L36 53L36 54L37 54L37 53L36 53L36 52ZM42 52L42 53L43 53L43 52ZM9 54L9 55L10 55L10 54ZM35 55L35 56L37 56L37 55ZM0 0L0 7L7 7L7 0ZM1 1L1 6L6 6L6 1ZM2 2L2 5L5 5L5 2ZM50 0L50 7L57 7L57 0ZM51 1L51 6L56 6L56 1ZM52 2L52 5L55 5L55 2ZM0 50L0 57L7 57L7 50ZM1 51L1 56L6 56L6 51ZM2 52L2 55L5 55L5 52Z" fill="#000000"/></g></g></svg>
