<?xml version="1.0" encoding="UTF-8"?>
<svg xmlns="http://www.w3.org/2000/svg" version="1.1" width="300" height="300" viewBox="0 0 300 300"><rect x="0" y="0" width="300" height="300" fill="#ffffff"/><g transform="scale(4.918)"><g transform="translate(2,2)"><path fill-rule="evenodd" d="M9 0L9 1L8 1L8 2L9 2L9 1L10 1L10 5L8 5L8 7L9 7L9 8L6 8L6 9L7 9L7 10L6 10L6 11L5 11L5 13L7 13L7 12L11 12L11 13L12 13L12 15L13 15L13 16L11 16L11 17L13 17L13 18L10 18L10 15L11 15L11 14L10 14L10 15L8 15L8 14L9 14L9 13L8 13L8 14L5 14L5 15L4 15L4 14L3 14L3 17L8 17L8 18L9 18L9 19L8 19L8 21L7 21L7 20L6 20L6 21L7 21L7 22L5 22L5 19L7 19L7 18L5 18L5 19L4 19L4 22L3 22L3 19L2 19L2 17L1 17L1 19L0 19L0 21L1 21L1 24L0 24L0 25L1 25L1 26L0 26L0 29L3 29L3 30L0 30L0 32L1 32L1 33L2 33L2 34L0 34L0 35L2 35L2 34L3 34L3 36L2 36L2 37L0 37L0 38L1 38L1 40L0 40L0 41L1 41L1 43L0 43L0 44L2 44L2 43L4 43L4 42L3 42L3 41L4 41L4 39L5 39L5 42L6 42L6 43L5 43L5 44L4 44L4 45L2 45L2 47L1 47L1 46L0 46L0 48L5 48L5 47L8 47L8 48L9 48L9 49L8 49L8 51L9 51L9 52L8 52L8 57L9 57L9 54L10 54L10 55L12 55L12 53L11 53L11 51L13 51L13 57L15 57L15 56L16 56L16 55L15 55L15 56L14 56L14 53L15 53L15 54L16 54L16 53L15 53L15 52L16 52L16 51L17 51L17 52L18 52L18 53L17 53L17 54L18 54L18 53L19 53L19 54L20 54L20 55L17 55L17 57L19 57L19 56L20 56L20 57L21 57L21 56L23 56L23 57L26 57L26 56L28 56L28 55L26 55L26 54L27 54L27 53L28 53L28 54L29 54L29 55L30 55L30 57L32 57L32 56L33 56L33 57L34 57L34 55L35 55L35 57L37 57L37 56L36 56L36 55L37 55L37 54L38 54L38 53L39 53L39 55L40 55L40 56L38 56L38 57L40 57L40 56L42 56L42 57L44 57L44 56L43 56L43 55L40 55L40 52L41 52L41 54L43 54L43 53L44 53L44 54L45 54L45 53L44 53L44 51L43 51L43 52L41 52L41 51L40 51L40 52L38 52L38 51L39 51L39 50L40 50L40 48L41 48L41 50L43 50L43 49L44 49L44 50L46 50L46 51L47 51L47 52L48 52L48 53L47 53L47 54L48 54L48 57L49 57L49 56L50 56L50 57L52 57L52 56L55 56L55 57L56 57L56 56L55 56L55 53L54 53L54 54L53 54L53 52L55 52L55 51L54 51L54 50L55 50L55 49L53 49L53 48L55 48L55 45L54 45L54 44L55 44L55 43L56 43L56 41L54 41L54 40L55 40L55 39L57 39L57 37L54 37L54 38L52 38L52 39L51 39L51 41L49 41L49 43L45 43L45 41L44 41L44 39L43 39L43 40L42 40L42 41L39 41L39 42L36 42L36 41L38 41L38 39L39 39L39 40L40 40L40 39L39 39L39 38L40 38L40 36L41 36L41 35L42 35L42 36L43 36L43 37L41 37L41 38L43 38L43 37L44 37L44 38L45 38L45 40L50 40L50 37L48 37L48 39L46 39L46 38L45 38L45 37L44 37L44 35L42 35L42 34L44 34L44 33L43 33L43 32L45 32L45 31L42 31L42 30L46 30L46 31L47 31L47 32L48 32L48 31L50 31L50 32L49 32L49 34L48 34L48 33L47 33L47 34L45 34L45 35L46 35L46 36L47 36L47 35L49 35L49 36L51 36L51 35L50 35L50 32L51 32L51 33L54 33L54 32L55 32L55 34L52 34L52 37L53 37L53 36L55 36L55 34L57 34L57 32L55 32L55 31L54 31L54 32L51 32L51 31L53 31L53 29L54 29L54 30L55 30L55 29L54 29L54 28L55 28L55 27L53 27L53 26L50 26L50 25L52 25L52 24L53 24L53 25L54 25L54 26L57 26L57 25L56 25L56 24L57 24L57 23L56 23L56 22L57 22L57 19L56 19L56 21L53 21L53 22L55 22L55 23L54 23L54 24L53 24L53 23L52 23L52 22L50 22L50 19L52 19L52 20L55 20L55 19L54 19L54 18L55 18L55 17L54 17L54 18L53 18L53 17L52 17L52 18L50 18L50 17L49 17L49 16L50 16L50 15L51 15L51 14L52 14L52 13L51 13L51 14L50 14L50 13L47 13L47 14L46 14L46 12L45 12L45 14L44 14L44 11L45 11L45 9L44 9L44 8L45 8L45 6L46 6L46 8L47 8L47 5L48 5L48 0L46 0L46 1L45 1L45 2L42 2L42 1L44 1L44 0L42 0L42 1L37 1L37 0L36 0L36 1L33 1L33 0L32 0L32 1L31 1L31 0L30 0L30 1L29 1L29 0L28 0L28 3L27 3L27 1L26 1L26 0L24 0L24 1L23 1L23 0L21 0L21 1L23 1L23 2L24 2L24 4L22 4L22 2L21 2L21 4L22 4L22 5L21 5L21 6L20 6L20 5L19 5L19 6L18 6L18 8L17 8L17 5L18 5L18 4L20 4L20 3L19 3L19 2L20 2L20 0L17 0L17 1L16 1L16 2L13 2L13 1L11 1L11 0ZM14 0L14 1L15 1L15 0ZM24 1L24 2L26 2L26 1ZM30 1L30 2L31 2L31 1ZM32 1L32 2L33 2L33 3L32 3L32 4L31 4L31 3L28 3L28 4L31 4L31 7L32 7L32 6L33 6L33 8L32 8L32 9L31 9L31 11L29 11L29 12L28 12L28 13L26 13L26 14L28 14L28 13L29 13L29 15L23 15L23 13L25 13L25 12L27 12L27 11L26 11L26 10L27 10L27 9L26 9L26 6L25 6L25 4L26 4L26 3L25 3L25 4L24 4L24 5L23 5L23 7L22 7L22 6L21 6L21 7L20 7L20 6L19 6L19 8L20 8L20 10L19 10L19 9L18 9L18 11L17 11L17 8L16 8L16 6L15 6L15 5L16 5L16 4L18 4L18 2L16 2L16 4L15 4L15 3L13 3L13 5L12 5L12 4L11 4L11 5L12 5L12 6L11 6L11 7L10 7L10 6L9 6L9 7L10 7L10 8L9 8L9 9L8 9L8 10L7 10L7 11L6 11L6 12L7 12L7 11L8 11L8 10L10 10L10 11L12 11L12 13L14 13L14 14L16 14L16 15L14 15L14 16L13 16L13 17L15 17L15 19L16 19L16 20L15 20L15 21L13 21L13 20L14 20L14 19L11 19L11 20L12 20L12 21L11 21L11 22L9 22L9 21L10 21L10 20L9 20L9 21L8 21L8 23L9 23L9 24L10 24L10 25L11 25L11 26L12 26L12 27L13 27L13 28L10 28L10 27L9 27L9 29L13 29L13 28L14 28L14 30L13 30L13 31L11 31L11 30L10 30L10 31L3 31L3 34L4 34L4 36L3 36L3 37L2 37L2 40L3 40L3 38L4 38L4 36L5 36L5 38L8 38L8 39L9 39L9 37L10 37L10 38L11 38L11 39L10 39L10 40L9 40L9 41L8 41L8 40L7 40L7 39L6 39L6 40L7 40L7 41L6 41L6 42L8 42L8 43L6 43L6 44L7 44L7 45L6 45L6 46L7 46L7 45L8 45L8 44L9 44L9 45L10 45L10 44L9 44L9 42L10 42L10 43L13 43L13 45L11 45L11 46L10 46L10 47L9 47L9 48L10 48L10 49L11 49L11 50L9 50L9 51L11 51L11 50L12 50L12 48L13 48L13 49L15 49L15 50L17 50L17 51L18 51L18 52L19 52L19 53L23 53L23 54L24 54L24 53L23 53L23 52L24 52L24 51L25 51L25 53L26 53L26 51L25 51L25 50L24 50L24 51L23 51L23 49L24 49L24 47L23 47L23 48L22 48L22 46L24 46L24 45L25 45L25 48L26 48L26 46L27 46L27 48L30 48L30 47L29 47L29 46L30 46L30 45L31 45L31 44L32 44L32 46L31 46L31 47L32 47L32 46L35 46L35 47L33 47L33 48L31 48L31 49L32 49L32 50L31 50L31 52L32 52L32 54L37 54L37 53L38 53L38 52L37 52L37 51L38 51L38 50L39 50L39 48L40 48L40 47L39 47L39 46L40 46L40 45L41 45L41 46L42 46L42 47L41 47L41 48L42 48L42 49L43 49L43 48L44 48L44 49L45 49L45 48L47 48L47 49L46 49L46 50L47 50L47 51L48 51L48 48L49 48L49 47L51 47L51 48L53 48L53 45L52 45L52 43L51 43L51 42L53 42L53 43L54 43L54 41L51 41L51 42L50 42L50 43L51 43L51 44L50 44L50 45L49 45L49 44L47 44L47 45L46 45L46 46L48 46L48 47L45 47L45 48L44 48L44 46L45 46L45 43L44 43L44 41L43 41L43 44L39 44L39 43L38 43L38 44L37 44L37 45L36 45L36 46L35 46L35 41L33 41L33 40L32 40L32 41L31 41L31 42L32 42L32 41L33 41L33 43L34 43L34 44L32 44L32 43L29 43L29 41L30 41L30 40L31 40L31 39L33 39L33 38L35 38L35 39L34 39L34 40L35 40L35 39L36 39L36 38L35 38L35 37L36 37L36 36L37 36L37 38L39 38L39 36L40 36L40 35L41 35L41 34L42 34L42 33L41 33L41 32L42 32L42 31L41 31L41 30L42 30L42 29L43 29L43 28L44 28L44 29L45 29L45 26L46 26L46 28L48 28L48 25L50 25L50 24L52 24L52 23L50 23L50 22L48 22L48 21L49 21L49 19L48 19L48 18L47 18L47 17L48 17L48 16L49 16L49 15L46 15L46 16L44 16L44 14L42 14L42 11L44 11L44 10L41 10L41 9L42 9L42 8L43 8L43 7L44 7L44 6L45 6L45 5L47 5L47 3L46 3L46 4L45 4L45 3L43 3L43 7L42 7L42 5L41 5L41 3L42 3L42 2L41 2L41 3L40 3L40 6L39 6L39 2L38 2L38 3L37 3L37 2L33 2L33 1ZM46 1L46 2L47 2L47 1ZM11 2L11 3L12 3L12 2ZM8 3L8 4L9 4L9 3ZM34 3L34 4L33 4L33 5L34 5L34 7L35 7L35 8L33 8L33 9L32 9L32 10L33 10L33 9L35 9L35 10L36 10L36 11L37 11L37 12L34 12L34 11L31 11L31 12L29 12L29 13L30 13L30 14L31 14L31 15L30 15L30 16L34 16L34 17L32 17L32 18L31 18L31 17L29 17L29 18L31 18L31 19L30 19L30 20L29 20L29 19L28 19L28 18L27 18L27 17L28 17L28 16L23 16L23 18L22 18L22 17L21 17L21 19L19 19L19 18L20 18L20 17L19 17L19 16L20 16L20 15L19 15L19 13L22 13L22 12L20 12L20 11L19 11L19 13L18 13L18 12L17 12L17 11L16 11L16 10L15 10L15 13L18 13L18 14L17 14L17 15L18 15L18 17L19 17L19 18L18 18L18 19L17 19L17 20L18 20L18 21L17 21L17 22L18 22L18 23L17 23L17 24L16 24L16 23L15 23L15 22L16 22L16 21L15 21L15 22L13 22L13 21L12 21L12 22L11 22L11 24L12 24L12 23L13 23L13 25L12 25L12 26L13 26L13 25L14 25L14 23L15 23L15 25L19 25L19 26L18 26L18 27L14 27L14 28L16 28L16 29L15 29L15 31L14 31L14 32L10 32L10 33L8 33L8 32L4 32L4 34L6 34L6 35L7 35L7 34L10 34L10 37L11 37L11 36L14 36L14 34L15 34L15 37L14 37L14 38L13 38L13 37L12 37L12 38L13 38L13 39L12 39L12 40L10 40L10 41L12 41L12 42L13 42L13 43L14 43L14 42L15 42L15 41L16 41L16 40L17 40L17 41L19 41L19 42L20 42L20 43L19 43L19 45L18 45L18 44L16 44L16 43L15 43L15 44L14 44L14 47L18 47L18 49L19 49L19 50L18 50L18 51L20 51L20 52L21 52L21 50L22 50L22 49L21 49L21 50L20 50L20 49L19 49L19 47L21 47L21 46L19 46L19 45L22 45L22 44L21 44L21 43L22 43L22 42L24 42L24 43L23 43L23 45L24 45L24 44L25 44L25 45L26 45L26 44L25 44L25 42L26 42L26 43L28 43L28 41L29 41L29 39L31 39L31 38L32 38L32 35L31 35L31 34L29 34L29 37L28 37L28 36L27 36L27 35L26 35L26 34L27 34L27 33L29 33L29 32L30 32L30 33L31 33L31 32L34 32L34 33L32 33L32 34L34 34L34 35L40 35L40 33L39 33L39 34L36 34L36 33L38 33L38 31L37 31L37 30L38 30L38 29L39 29L39 28L38 28L38 27L40 27L40 28L41 28L41 27L42 27L42 28L43 28L43 27L42 27L42 26L45 26L45 25L48 25L48 24L50 24L50 23L48 23L48 24L47 24L47 23L46 23L46 22L45 22L45 21L48 21L48 19L47 19L47 18L46 18L46 17L45 17L45 18L46 18L46 19L42 19L42 18L44 18L44 16L41 16L41 15L42 15L42 14L41 14L41 13L39 13L39 14L36 14L36 13L38 13L38 12L41 12L41 11L40 11L40 10L39 10L39 11L38 11L38 9L39 9L39 8L41 8L41 6L40 6L40 7L39 7L39 6L38 6L38 4L37 4L37 3L36 3L36 5L34 5L34 4L35 4L35 3ZM14 4L14 5L15 5L15 4ZM44 4L44 5L45 5L45 4ZM27 5L27 8L30 8L30 5ZM36 5L36 6L35 6L35 7L36 7L36 8L37 8L37 9L38 9L38 8L39 8L39 7L38 7L38 6L37 6L37 5ZM12 6L12 10L13 10L13 9L14 9L14 7L15 7L15 6L14 6L14 7L13 7L13 6ZM24 6L24 7L23 7L23 9L22 9L22 7L21 7L21 9L22 9L22 10L21 10L21 11L22 11L22 10L25 10L25 8L24 8L24 7L25 7L25 6ZM28 6L28 7L29 7L29 6ZM36 6L36 7L37 7L37 6ZM48 6L48 7L49 7L49 6ZM0 8L0 9L5 9L5 8ZM10 8L10 10L11 10L11 8ZM15 8L15 9L16 9L16 8ZM49 8L49 9L47 9L47 11L48 11L48 12L50 12L50 11L52 11L52 12L53 12L53 11L54 11L54 12L55 12L55 13L54 13L54 14L55 14L55 15L53 15L53 16L55 16L55 15L56 15L56 16L57 16L57 15L56 15L56 14L57 14L57 13L56 13L56 12L55 12L55 11L56 11L56 10L57 10L57 9L56 9L56 8L55 8L55 9L56 9L56 10L55 10L55 11L54 11L54 10L53 10L53 9L54 9L54 8L53 8L53 9L52 9L52 8L51 8L51 10L50 10L50 8ZM28 9L28 10L29 10L29 9ZM0 10L0 11L2 11L2 12L0 12L0 14L1 14L1 16L2 16L2 14L1 14L1 13L4 13L4 12L3 12L3 11L2 11L2 10ZM49 10L49 11L50 11L50 10ZM52 10L52 11L53 11L53 10ZM13 11L13 12L14 12L14 11ZM24 11L24 12L25 12L25 11ZM32 12L32 13L31 13L31 14L32 14L32 15L33 15L33 14L35 14L35 15L34 15L34 16L35 16L35 17L34 17L34 18L32 18L32 19L33 19L33 20L32 20L32 21L33 21L33 23L31 23L31 22L30 22L30 21L31 21L31 20L30 20L30 21L29 21L29 20L27 20L27 19L25 19L25 20L27 20L27 21L25 21L25 22L26 22L26 23L25 23L25 24L26 24L26 25L25 25L25 26L23 26L23 28L24 28L24 29L22 29L22 28L21 28L21 27L22 27L22 25L23 25L23 24L24 24L24 23L21 23L21 25L20 25L20 26L21 26L21 27L19 27L19 29L20 29L20 30L19 30L19 31L18 31L18 30L17 30L17 29L18 29L18 28L17 28L17 29L16 29L16 31L15 31L15 32L14 32L14 33L15 33L15 34L16 34L16 35L17 35L17 36L16 36L16 37L15 37L15 38L16 38L16 37L18 37L18 38L17 38L17 40L19 40L19 41L20 41L20 42L22 42L22 41L25 41L25 38L26 38L26 39L27 39L27 41L26 41L26 42L27 42L27 41L28 41L28 39L27 39L27 38L28 38L28 37L26 37L26 35L25 35L25 34L26 34L26 33L25 33L25 34L24 34L24 36L23 36L23 33L24 33L24 32L29 32L29 31L24 31L24 29L25 29L25 30L26 30L26 27L25 27L25 26L26 26L26 25L27 25L27 24L28 24L28 25L29 25L29 26L30 26L30 25L31 25L31 24L32 24L32 26L31 26L31 27L32 27L32 26L33 26L33 28L32 28L32 29L31 29L31 30L32 30L32 29L33 29L33 30L35 30L35 31L34 31L34 32L37 32L37 31L36 31L36 30L35 30L35 29L33 29L33 28L34 28L34 26L35 26L35 27L36 27L36 26L37 26L37 27L38 27L38 26L39 26L39 24L40 24L40 26L42 26L42 24L40 24L40 23L41 23L41 22L40 22L40 23L36 23L36 22L37 22L37 21L36 21L36 20L37 20L37 19L38 19L38 22L39 22L39 20L40 20L40 21L42 21L42 20L40 20L40 19L41 19L41 18L42 18L42 17L41 17L41 16L40 16L40 15L36 15L36 14L35 14L35 13L33 13L33 12ZM32 13L32 14L33 14L33 13ZM21 14L21 16L22 16L22 14ZM5 15L5 16L8 16L8 17L9 17L9 16L8 16L8 15ZM35 15L35 16L36 16L36 17L35 17L35 18L34 18L34 19L35 19L35 18L36 18L36 19L37 19L37 18L38 18L38 19L40 19L40 18L41 18L41 17L40 17L40 16L36 16L36 15ZM16 16L16 17L17 17L17 16ZM25 17L25 18L26 18L26 17ZM36 17L36 18L37 18L37 17ZM38 17L38 18L40 18L40 17ZM56 17L56 18L57 18L57 17ZM52 18L52 19L53 19L53 18ZM1 19L1 20L2 20L2 19ZM18 19L18 20L19 20L19 21L18 21L18 22L19 22L19 23L18 23L18 24L19 24L19 23L20 23L20 22L19 22L19 21L23 21L23 22L24 22L24 21L23 21L23 19L22 19L22 20L19 20L19 19ZM46 19L46 20L47 20L47 19ZM43 20L43 25L45 25L45 24L44 24L44 21L45 21L45 20ZM2 22L2 23L3 23L3 24L1 24L1 25L2 25L2 26L3 26L3 27L2 27L2 28L3 28L3 29L4 29L4 28L3 28L3 27L4 27L4 25L3 25L3 24L4 24L4 23L5 23L5 22L4 22L4 23L3 23L3 22ZM27 22L27 23L28 23L28 24L29 24L29 25L30 25L30 24L31 24L31 23L30 23L30 22ZM34 22L34 23L33 23L33 26L34 26L34 23L35 23L35 26L36 26L36 25L37 25L37 26L38 26L38 25L37 25L37 24L36 24L36 23L35 23L35 22ZM6 23L6 24L7 24L7 25L6 25L6 26L8 26L8 24L7 24L7 23ZM29 23L29 24L30 24L30 23ZM55 23L55 24L54 24L54 25L55 25L55 24L56 24L56 23ZM5 27L5 30L8 30L8 27ZM24 27L24 28L25 28L25 27ZM27 27L27 30L30 30L30 27ZM49 27L49 30L52 30L52 27ZM6 28L6 29L7 29L7 28ZM20 28L20 29L21 29L21 31L20 31L20 32L21 32L21 31L22 31L22 32L23 32L23 31L22 31L22 29L21 29L21 28ZM28 28L28 29L29 29L29 28ZM50 28L50 29L51 29L51 28ZM56 28L56 30L57 30L57 28ZM46 29L46 30L47 30L47 31L48 31L48 29ZM30 31L30 32L31 32L31 31ZM39 31L39 32L41 32L41 31ZM15 32L15 33L17 33L17 32ZM18 32L18 33L19 33L19 35L18 35L18 37L20 37L20 33L19 33L19 32ZM6 33L6 34L7 34L7 33ZM10 33L10 34L11 34L11 33ZM21 33L21 34L22 34L22 33ZM34 33L34 34L35 34L35 33ZM12 34L12 35L13 35L13 34ZM30 35L30 38L31 38L31 35ZM56 35L56 36L57 36L57 35ZM6 36L6 37L9 37L9 36ZM21 36L21 37L22 37L22 38L21 38L21 40L20 40L20 41L21 41L21 40L22 40L22 38L24 38L24 37L25 37L25 36L24 36L24 37L22 37L22 36ZM19 38L19 39L20 39L20 38ZM54 38L54 39L55 39L55 38ZM13 39L13 42L14 42L14 39ZM15 39L15 40L16 40L16 39ZM23 39L23 40L24 40L24 39ZM52 39L52 40L53 40L53 39ZM17 42L17 43L18 43L18 42ZM40 42L40 43L41 43L41 42ZM27 44L27 45L29 45L29 44ZM43 44L43 45L42 45L42 46L44 46L44 44ZM56 44L56 46L57 46L57 44ZM4 45L4 46L3 46L3 47L5 47L5 45ZM15 45L15 46L18 46L18 47L19 47L19 46L18 46L18 45ZM37 45L37 46L38 46L38 45ZM48 45L48 46L49 46L49 45ZM50 45L50 46L51 46L51 47L52 47L52 45ZM12 46L12 47L13 47L13 46ZM10 47L10 48L11 48L11 47ZM35 47L35 48L34 48L34 49L35 49L35 50L33 50L33 51L32 51L32 52L33 52L33 53L34 53L34 52L36 52L36 53L37 53L37 52L36 52L36 51L37 51L37 50L38 50L38 49L37 49L37 48L36 48L36 47ZM38 47L38 48L39 48L39 47ZM42 47L42 48L43 48L43 47ZM56 47L56 48L57 48L57 47ZM6 48L6 49L7 49L7 48ZM15 48L15 49L17 49L17 48ZM35 48L35 49L36 49L36 50L35 50L35 51L36 51L36 50L37 50L37 49L36 49L36 48ZM27 49L27 52L30 52L30 49ZM49 49L49 52L52 52L52 49ZM56 49L56 50L57 50L57 49ZM13 50L13 51L14 51L14 52L15 52L15 51L14 51L14 50ZM28 50L28 51L29 51L29 50ZM50 50L50 51L51 51L51 50ZM9 52L9 53L10 53L10 52ZM56 52L56 53L57 53L57 52ZM30 53L30 54L31 54L31 53ZM48 53L48 54L49 54L49 55L50 55L50 56L51 56L51 55L53 55L53 54L51 54L51 53ZM50 54L50 55L51 55L51 54ZM23 55L23 56L24 56L24 55ZM25 55L25 56L26 56L26 55ZM31 55L31 56L32 56L32 55ZM45 55L45 56L46 56L46 57L47 57L47 56L46 56L46 55ZM10 56L10 57L12 57L12 56ZM0 0L0 7L7 7L7 0ZM1 1L1 6L6 6L6 1ZM2 2L2 5L5 5L5 2ZM50 0L50 7L57 7L57 0ZM51 1L51 6L56 6L56 1ZM52 2L52 5L55 5L55 2ZM0 50L0 57L7 57L7 50ZM1 51L1 56L6 56L6 51ZM2 52L2 55L5 55L5 52Z" fill="#000000"/></g></g></svg>
