<?xml version="1.0" encoding="UTF-8"?>
<svg xmlns="http://www.w3.org/2000/svg" version="1.1" width="300" height="300" viewBox="0 0 300 300"><rect x="0" y="0" width="300" height="300" fill="#ffffff"/><g transform="scale(4.918)"><g transform="translate(2,2)"><path fill-rule="evenodd" d="M9 0L9 1L8 1L8 2L9 2L9 3L8 3L8 4L10 4L10 5L8 5L8 7L9 7L9 6L10 6L10 7L11 7L11 6L10 6L10 5L12 5L12 3L13 3L13 4L14 4L14 5L13 5L13 6L12 6L12 7L13 7L13 6L14 6L14 7L15 7L15 8L16 8L16 9L15 9L15 10L12 10L12 9L14 9L14 8L12 8L12 9L11 9L11 8L10 8L10 10L8 10L8 12L6 12L6 11L7 11L7 10L5 10L5 8L0 8L0 9L1 9L1 10L0 10L0 13L1 13L1 15L2 15L2 13L1 13L1 11L2 11L2 9L3 9L3 10L4 10L4 11L5 11L5 13L7 13L7 14L5 14L5 16L4 16L4 17L2 17L2 16L0 16L0 17L1 17L1 19L2 19L2 21L1 21L1 22L0 22L0 23L1 23L1 22L2 22L2 25L0 25L0 26L2 26L2 28L1 28L1 29L4 29L4 30L3 30L3 31L4 31L4 32L3 32L3 33L4 33L4 34L3 34L3 36L4 36L4 39L5 39L5 40L3 40L3 39L2 39L2 41L1 41L1 38L0 38L0 42L1 42L1 43L0 43L0 48L5 48L5 47L7 47L7 48L6 48L6 49L7 49L7 48L8 48L8 46L9 46L9 49L8 49L8 51L9 51L9 52L8 52L8 57L11 57L11 56L12 56L12 57L13 57L13 55L12 55L12 54L14 54L14 53L16 53L16 54L15 54L15 55L14 55L14 57L15 57L15 55L16 55L16 56L17 56L17 57L19 57L19 55L20 55L20 54L18 54L18 55L17 55L17 53L16 53L16 52L18 52L18 53L20 53L20 52L23 52L23 51L22 51L22 49L21 49L21 48L20 48L20 49L21 49L21 50L19 50L19 51L16 51L16 49L19 49L19 48L18 48L18 47L20 47L20 45L21 45L21 47L22 47L22 48L23 48L23 50L25 50L25 49L26 49L26 52L25 52L25 51L24 51L24 53L21 53L21 55L22 55L22 54L24 54L24 53L26 53L26 54L25 54L25 55L26 55L26 54L27 54L27 53L28 53L28 54L30 54L30 53L31 53L31 56L30 56L30 55L29 55L29 56L30 56L30 57L31 57L31 56L33 56L33 55L34 55L34 56L36 56L36 57L39 57L39 56L41 56L41 57L42 57L42 56L41 56L41 55L42 55L42 54L43 54L43 53L44 53L44 54L45 54L45 53L46 53L46 52L48 52L48 53L47 53L47 54L46 54L46 55L47 55L47 56L48 56L48 57L49 57L49 56L50 56L50 55L51 55L51 57L52 57L52 56L53 56L53 57L54 57L54 56L55 56L55 57L56 57L56 56L55 56L55 55L54 55L54 54L55 54L55 53L54 53L54 52L55 52L55 50L57 50L57 48L56 48L56 46L57 46L57 44L55 44L55 41L54 41L54 40L55 40L55 39L57 39L57 36L56 36L56 35L55 35L55 34L57 34L57 33L56 33L56 32L57 32L57 31L56 31L56 30L57 30L57 27L56 27L56 26L57 26L57 25L54 25L54 24L57 24L57 23L56 23L56 22L57 22L57 20L56 20L56 21L54 21L54 20L55 20L55 18L57 18L57 15L56 15L56 14L57 14L57 13L56 13L56 12L55 12L55 11L56 11L56 10L57 10L57 9L56 9L56 8L55 8L55 9L56 9L56 10L55 10L55 11L54 11L54 10L53 10L53 9L54 9L54 8L53 8L53 9L52 9L52 8L51 8L51 10L50 10L50 8L49 8L49 6L48 6L48 8L49 8L49 9L47 9L47 8L46 8L46 7L47 7L47 5L48 5L48 0L45 0L45 1L44 1L44 2L42 2L42 1L43 1L43 0L42 0L42 1L37 1L37 0L35 0L35 1L34 1L34 0L33 0L33 1L34 1L34 2L37 2L37 3L36 3L36 5L33 5L33 6L32 6L32 7L33 7L33 8L34 8L34 9L35 9L35 8L36 8L36 9L37 9L37 10L36 10L36 11L35 11L35 10L32 10L32 9L31 9L31 4L32 4L32 3L33 3L33 2L32 2L32 0L30 0L30 1L29 1L29 0L28 0L28 1L26 1L26 0L23 0L23 2L24 2L24 3L23 3L23 4L22 4L22 3L21 3L21 4L19 4L19 3L17 3L17 4L19 4L19 5L20 5L20 7L19 7L19 6L18 6L18 7L17 7L17 6L16 6L16 7L15 7L15 6L14 6L14 5L16 5L16 4L14 4L14 3L16 3L16 2L17 2L17 1L16 1L16 0L13 0L13 1L12 1L12 0L11 0L11 2L12 2L12 3L11 3L11 4L10 4L10 0ZM19 0L19 1L18 1L18 2L19 2L19 1L20 1L20 2L22 2L22 0L21 0L21 1L20 1L20 0ZM13 1L13 2L15 2L15 1ZM30 1L30 2L29 2L29 3L27 3L27 2L25 2L25 3L26 3L26 4L25 4L25 8L24 8L24 6L23 6L23 5L24 5L24 4L23 4L23 5L22 5L22 4L21 4L21 9L20 9L20 8L19 8L19 9L20 9L20 11L19 11L19 12L21 12L21 13L19 13L19 14L17 14L17 13L18 13L18 12L17 12L17 11L18 11L18 9L16 9L16 10L15 10L15 13L12 13L12 11L11 11L11 10L10 10L10 11L11 11L11 12L10 12L10 14L9 14L9 13L8 13L8 14L7 14L7 15L6 15L6 16L7 16L7 15L11 15L11 16L8 16L8 21L9 21L9 22L7 22L7 21L6 21L6 20L7 20L7 19L6 19L6 18L7 18L7 17L6 17L6 18L5 18L5 19L6 19L6 20L3 20L3 21L2 21L2 22L3 22L3 24L4 24L4 25L3 25L3 28L4 28L4 26L7 26L7 25L8 25L8 26L9 26L9 25L10 25L10 24L14 24L14 25L15 25L15 27L16 27L16 28L18 28L18 29L16 29L16 31L15 31L15 28L14 28L14 26L13 26L13 27L10 27L10 30L9 30L9 31L8 31L8 33L6 33L6 32L7 32L7 31L6 31L6 32L4 32L4 33L5 33L5 34L4 34L4 36L5 36L5 39L6 39L6 40L5 40L5 41L4 41L4 46L3 46L3 44L2 44L2 43L3 43L3 41L2 41L2 43L1 43L1 44L2 44L2 45L1 45L1 47L2 47L2 46L3 46L3 47L5 47L5 43L6 43L6 44L7 44L7 45L6 45L6 46L8 46L8 45L10 45L10 47L14 47L14 46L13 46L13 45L14 45L14 44L13 44L13 42L14 42L14 43L15 43L15 44L17 44L17 45L16 45L16 46L17 46L17 47L16 47L16 48L17 48L17 47L18 47L18 46L17 46L17 45L18 45L18 44L17 44L17 43L18 43L18 42L17 42L17 41L16 41L16 40L18 40L18 38L19 38L19 39L20 39L20 38L19 38L19 37L21 37L21 38L22 38L22 37L23 37L23 38L24 38L24 37L23 37L23 36L24 36L24 35L25 35L25 38L26 38L26 39L25 39L25 40L24 40L24 39L23 39L23 40L20 40L20 42L19 42L19 43L22 43L22 42L21 42L21 41L23 41L23 40L24 40L24 41L25 41L25 42L23 42L23 43L25 43L25 44L23 44L23 45L22 45L22 44L21 44L21 45L22 45L22 47L23 47L23 45L25 45L25 48L27 48L27 47L30 47L30 48L31 48L31 50L32 50L32 51L31 51L31 52L32 52L32 54L34 54L34 55L36 55L36 56L37 56L37 55L36 55L36 52L38 52L38 50L39 50L39 48L40 48L40 49L41 49L41 50L40 50L40 51L39 51L39 52L40 52L40 55L41 55L41 52L40 52L40 51L41 51L41 50L42 50L42 52L43 52L43 51L44 51L44 53L45 53L45 50L47 50L47 51L48 51L48 48L50 48L50 47L51 47L51 48L53 48L53 49L56 49L56 48L53 48L53 47L55 47L55 46L56 46L56 45L55 45L55 44L54 44L54 45L55 45L55 46L53 46L53 45L52 45L52 44L53 44L53 43L54 43L54 41L51 41L51 40L49 40L49 39L53 39L53 40L54 40L54 39L53 39L53 38L54 38L54 37L56 37L56 36L54 36L54 37L53 37L53 36L52 36L52 34L53 34L53 35L54 35L54 34L53 34L53 33L55 33L55 32L53 32L53 33L51 33L51 34L50 34L50 31L48 31L48 29L46 29L46 30L45 30L45 27L46 27L46 28L48 28L48 27L46 27L46 26L48 26L48 25L49 25L49 24L48 24L48 25L45 25L45 24L47 24L47 21L46 21L46 20L49 20L49 18L48 18L48 19L46 19L46 18L47 18L47 16L50 16L50 18L51 18L51 17L53 17L53 18L52 18L52 19L53 19L53 18L54 18L54 17L55 17L55 16L56 16L56 15L55 15L55 16L54 16L54 14L56 14L56 13L55 13L55 12L54 12L54 11L53 11L53 10L51 10L51 11L50 11L50 10L49 10L49 12L48 12L48 11L46 11L46 10L47 10L47 9L45 9L45 7L46 7L46 6L45 6L45 5L44 5L44 4L46 4L46 5L47 5L47 3L40 3L40 4L39 4L39 2L38 2L38 6L37 6L37 5L36 5L36 6L35 6L35 7L34 7L34 6L33 6L33 7L34 7L34 8L35 8L35 7L36 7L36 8L38 8L38 11L41 11L41 12L38 12L38 13L37 13L37 14L42 14L42 15L43 15L43 14L42 14L42 11L43 11L43 12L44 12L44 13L45 13L45 12L46 12L46 14L47 14L47 13L49 13L49 14L51 14L51 16L50 16L50 15L45 15L45 14L44 14L44 15L45 15L45 16L42 16L42 17L41 17L41 16L40 16L40 15L38 15L38 16L40 16L40 17L37 17L37 18L35 18L35 17L36 17L36 16L37 16L37 15L36 15L36 16L35 16L35 15L34 15L34 16L32 16L32 15L33 15L33 14L35 14L35 13L33 13L33 11L31 11L31 10L29 10L29 9L25 9L25 8L26 8L26 4L30 4L30 3L31 3L31 1ZM45 1L45 2L47 2L47 1ZM34 3L34 4L35 4L35 3ZM40 4L40 5L43 5L43 4ZM27 5L27 8L30 8L30 5ZM22 6L22 7L23 7L23 6ZM28 6L28 7L29 7L29 6ZM36 6L36 7L37 7L37 6ZM38 6L38 7L39 7L39 8L40 8L40 7L41 7L41 6L40 6L40 7L39 7L39 6ZM42 6L42 7L43 7L43 8L41 8L41 10L43 10L43 11L45 11L45 9L44 9L44 7L45 7L45 6L44 6L44 7L43 7L43 6ZM16 7L16 8L17 8L17 7ZM6 8L6 9L9 9L9 8ZM23 8L23 9L21 9L21 10L22 10L22 11L21 11L21 12L22 12L22 13L21 13L21 14L22 14L22 13L23 13L23 15L24 15L24 17L22 17L22 15L21 15L21 16L20 16L20 17L21 17L21 18L23 18L23 20L24 20L24 21L21 21L21 22L22 22L22 23L21 23L21 24L22 24L22 23L23 23L23 25L21 25L21 26L20 26L20 25L19 25L19 23L20 23L20 22L18 22L18 23L17 23L17 21L20 21L20 20L22 20L22 19L19 19L19 18L18 18L18 19L19 19L19 20L17 20L17 18L16 18L16 17L19 17L19 15L18 15L18 16L16 16L16 15L17 15L17 14L15 14L15 15L14 15L14 16L13 16L13 15L12 15L12 16L13 16L13 17L11 17L11 20L14 20L14 19L13 19L13 18L14 18L14 16L15 16L15 21L16 21L16 22L14 22L14 21L13 21L13 22L14 22L14 24L15 24L15 23L16 23L16 25L17 25L17 26L16 26L16 27L18 27L18 26L20 26L20 28L19 28L19 29L18 29L18 31L16 31L16 33L14 33L14 34L11 34L11 35L10 35L10 32L11 32L11 31L13 31L13 32L15 32L15 31L13 31L13 30L14 30L14 28L13 28L13 30L12 30L12 28L11 28L11 31L9 31L9 33L8 33L8 34L6 34L6 35L5 35L5 36L6 36L6 37L7 37L7 38L6 38L6 39L7 39L7 38L8 38L8 42L10 42L10 43L12 43L12 42L10 42L10 41L14 41L14 42L15 42L15 43L17 43L17 42L15 42L15 40L16 40L16 39L14 39L14 38L12 38L12 39L10 39L10 38L8 38L8 37L9 37L9 36L10 36L10 37L11 37L11 36L12 36L12 37L13 37L13 35L14 35L14 34L15 34L15 36L16 36L16 35L18 35L18 37L17 37L17 38L18 38L18 37L19 37L19 34L18 34L18 33L19 33L19 32L20 32L20 33L21 33L21 34L20 34L20 35L21 35L21 37L22 37L22 35L21 35L21 34L22 34L22 33L21 33L21 32L23 32L23 30L22 30L22 31L21 31L21 32L20 32L20 30L19 30L19 29L22 29L22 28L21 28L21 27L22 27L22 26L23 26L23 29L24 29L24 30L25 30L25 31L24 31L24 33L23 33L23 34L25 34L25 35L27 35L27 33L29 33L29 34L30 34L30 35L29 35L29 39L31 39L31 38L32 38L32 35L31 35L31 34L32 34L32 33L31 33L31 32L33 32L33 33L35 33L35 34L33 34L33 37L35 37L35 36L34 36L34 35L35 35L35 34L36 34L36 35L38 35L38 36L39 36L39 38L38 38L38 37L37 37L37 36L36 36L36 39L35 39L35 38L34 38L34 39L35 39L35 40L34 40L34 41L33 41L33 42L32 42L32 41L31 41L31 40L29 40L29 41L31 41L31 42L30 42L30 43L29 43L29 44L28 44L28 42L27 42L27 41L28 41L28 39L26 39L26 40L27 40L27 41L26 41L26 42L27 42L27 43L26 43L26 44L25 44L25 45L26 45L26 44L28 44L28 45L27 45L27 46L26 46L26 47L27 47L27 46L28 46L28 45L29 45L29 46L30 46L30 47L31 47L31 48L33 48L33 49L32 49L32 50L33 50L33 51L32 51L32 52L33 52L33 53L35 53L35 52L36 52L36 51L37 51L37 50L38 50L38 49L37 49L37 48L33 48L33 47L35 47L35 46L36 46L36 47L38 47L38 48L39 48L39 46L37 46L37 44L38 44L38 45L39 45L39 44L43 44L43 45L42 45L42 46L41 46L41 47L40 47L40 48L41 48L41 47L42 47L42 50L45 50L45 49L44 49L44 48L45 48L45 47L47 47L47 46L46 46L46 45L47 45L47 44L52 44L52 43L53 43L53 42L51 42L51 41L49 41L49 43L48 43L48 42L47 42L47 43L46 43L46 42L45 42L45 43L39 43L39 44L38 44L38 41L39 41L39 42L43 42L43 41L44 41L44 40L45 40L45 41L47 41L47 40L45 40L45 39L46 39L46 38L45 38L45 37L44 37L44 34L46 34L46 35L45 35L45 36L47 36L47 35L49 35L49 34L48 34L48 33L47 33L47 32L48 32L48 31L47 31L47 30L46 30L46 31L47 31L47 32L45 32L45 30L44 30L44 27L45 27L45 26L44 26L44 24L45 24L45 23L46 23L46 22L45 22L45 21L44 21L44 24L42 24L42 22L43 22L43 21L42 21L42 18L43 18L43 17L42 17L42 18L41 18L41 17L40 17L40 18L41 18L41 19L40 19L40 20L39 20L39 21L40 21L40 20L41 20L41 24L42 24L42 25L41 25L41 26L40 26L40 27L39 27L39 26L38 26L38 24L36 24L36 23L37 23L37 22L38 22L38 19L39 19L39 18L37 18L37 20L36 20L36 21L37 21L37 22L36 22L36 23L34 23L34 22L33 22L33 21L32 21L32 20L33 20L33 19L35 19L35 18L33 18L33 17L32 17L32 16L31 16L31 14L30 14L30 13L28 13L28 12L30 12L30 11L27 11L27 10L26 10L26 11L27 11L27 12L25 12L25 9L24 9L24 8ZM39 9L39 10L40 10L40 9ZM16 10L16 11L17 11L17 10ZM23 10L23 13L25 13L25 12L24 12L24 10ZM13 11L13 12L14 12L14 11ZM34 11L34 12L35 12L35 11ZM52 11L52 12L53 12L53 11ZM3 12L3 13L4 13L4 12ZM16 12L16 13L17 13L17 12ZM31 12L31 13L32 13L32 14L33 14L33 13L32 13L32 12ZM50 12L50 13L51 13L51 14L52 14L52 13L51 13L51 12ZM26 13L26 14L25 14L25 15L26 15L26 16L25 16L25 18L26 18L26 20L27 20L27 21L28 21L28 22L27 22L27 24L25 24L25 23L26 23L26 22L25 22L25 21L24 21L24 22L23 22L23 23L24 23L24 25L23 25L23 26L24 26L24 25L25 25L25 26L26 26L26 25L27 25L27 24L28 24L28 25L31 25L31 28L32 28L32 29L33 29L33 30L32 30L32 31L33 31L33 32L35 32L35 33L36 33L36 32L37 32L37 31L36 31L36 32L35 32L35 31L33 31L33 30L36 30L36 29L33 29L33 28L34 28L34 26L35 26L35 24L32 24L32 25L31 25L31 22L29 22L29 20L30 20L30 19L31 19L31 18L32 18L32 19L33 19L33 18L32 18L32 17L31 17L31 16L30 16L30 14L29 14L29 15L28 15L28 16L27 16L27 15L26 15L26 14L28 14L28 13ZM52 15L52 16L53 16L53 17L54 17L54 16L53 16L53 15ZM26 16L26 18L28 18L28 19L27 19L27 20L29 20L29 18L31 18L31 17L29 17L29 16L28 16L28 17L27 17L27 16ZM34 16L34 17L35 17L35 16ZM45 16L45 18L44 18L44 19L43 19L43 20L46 20L46 19L45 19L45 18L46 18L46 16ZM3 18L3 19L4 19L4 18ZM9 18L9 19L10 19L10 18ZM50 19L50 22L49 22L49 23L50 23L50 26L53 26L53 27L55 27L55 26L54 26L54 25L53 25L53 24L52 24L52 23L53 23L53 20L52 20L52 21L51 21L51 19ZM16 20L16 21L17 21L17 20ZM3 21L3 22L4 22L4 23L5 23L5 25L7 25L7 24L8 24L8 25L9 25L9 24L10 24L10 23L12 23L12 22L10 22L10 23L7 23L7 22L6 22L6 21ZM5 22L5 23L6 23L6 24L7 24L7 23L6 23L6 22ZM28 22L28 24L29 24L29 22ZM39 22L39 23L40 23L40 22ZM50 22L50 23L51 23L51 22ZM54 22L54 23L55 23L55 22ZM51 24L51 25L52 25L52 24ZM11 25L11 26L12 26L12 25ZM32 25L32 26L33 26L33 25ZM37 26L37 27L35 27L35 28L37 28L37 30L39 30L39 31L38 31L38 33L37 33L37 34L40 34L40 35L39 35L39 36L40 36L40 38L39 38L39 39L38 39L38 38L37 38L37 39L36 39L36 40L37 40L37 39L38 39L38 40L39 40L39 41L41 41L41 40L44 40L44 39L45 39L45 38L44 38L44 37L43 37L43 39L42 39L42 38L41 38L41 36L40 36L40 35L41 35L41 34L42 34L42 35L43 35L43 34L44 34L44 33L45 33L45 32L43 32L43 34L42 34L42 31L44 31L44 30L42 30L42 29L43 29L43 28L42 28L42 27L44 27L44 26L41 26L41 27L40 27L40 28L39 28L39 27L38 27L38 26ZM5 27L5 30L8 30L8 27ZM25 27L25 28L24 28L24 29L25 29L25 30L26 30L26 27ZM27 27L27 30L30 30L30 27ZM37 27L37 28L38 28L38 29L39 29L39 28L38 28L38 27ZM49 27L49 30L52 30L52 27ZM6 28L6 29L7 29L7 28ZM28 28L28 29L29 29L29 28ZM50 28L50 29L51 29L51 28ZM54 28L54 29L53 29L53 31L54 31L54 29L55 29L55 30L56 30L56 29L55 29L55 28ZM1 30L1 31L2 31L2 30ZM40 30L40 32L39 32L39 33L40 33L40 34L41 34L41 33L40 33L40 32L41 32L41 31L42 31L42 30ZM25 31L25 34L26 34L26 32L29 32L29 33L30 33L30 31ZM0 33L0 35L1 35L1 36L0 36L0 37L1 37L1 36L2 36L2 35L1 35L1 33ZM16 33L16 34L17 34L17 33ZM46 33L46 34L47 34L47 33ZM8 34L8 36L9 36L9 34ZM6 35L6 36L7 36L7 35ZM50 35L50 36L48 36L48 38L47 38L47 39L49 39L49 37L50 37L50 36L51 36L51 35ZM26 36L26 37L27 37L27 38L28 38L28 37L27 37L27 36ZM30 36L30 38L31 38L31 36ZM15 37L15 38L16 38L16 37ZM9 39L9 41L10 41L10 39ZM12 39L12 40L13 40L13 39ZM32 39L32 40L33 40L33 39ZM39 39L39 40L40 40L40 39ZM6 40L6 41L5 41L5 42L6 42L6 43L7 43L7 42L6 42L6 41L7 41L7 40ZM34 41L34 42L33 42L33 43L34 43L34 44L32 44L32 45L31 45L31 43L30 43L30 44L29 44L29 45L30 45L30 46L31 46L31 47L32 47L32 45L33 45L33 46L35 46L35 43L36 43L36 42L37 42L37 41ZM56 41L56 42L57 42L57 41ZM34 42L34 43L35 43L35 42ZM50 42L50 43L51 43L51 42ZM8 43L8 44L9 44L9 43ZM11 44L11 45L12 45L12 44ZM19 44L19 45L20 45L20 44ZM44 44L44 45L43 45L43 46L42 46L42 47L43 47L43 48L44 48L44 46L45 46L45 44ZM48 45L48 46L49 46L49 47L50 47L50 46L51 46L51 47L52 47L52 45ZM10 48L10 50L9 50L9 51L10 51L10 50L14 50L14 49L11 49L11 48ZM27 49L27 52L30 52L30 49ZM33 49L33 50L35 50L35 51L34 51L34 52L35 52L35 51L36 51L36 50L37 50L37 49ZM49 49L49 52L52 52L52 49ZM28 50L28 51L29 51L29 50ZM50 50L50 51L51 51L51 50ZM11 51L11 52L12 52L12 53L14 53L14 52L15 52L15 51ZM56 51L56 52L57 52L57 51ZM9 52L9 55L10 55L10 56L11 56L11 55L10 55L10 54L11 54L11 53L10 53L10 52ZM37 53L37 54L39 54L39 53ZM49 53L49 55L50 55L50 54L51 54L51 55L53 55L53 54L54 54L54 53L53 53L53 54L51 54L51 53ZM23 55L23 57L24 57L24 55ZM27 55L27 56L28 56L28 55ZM38 55L38 56L39 56L39 55ZM43 55L43 56L45 56L45 57L46 57L46 56L45 56L45 55ZM25 56L25 57L26 57L26 56ZM0 0L0 7L7 7L7 0ZM1 1L1 6L6 6L6 1ZM2 2L2 5L5 5L5 2ZM50 0L50 7L57 7L57 0ZM51 1L51 6L56 6L56 1ZM52 2L52 5L55 5L55 2ZM0 50L0 57L7 57L7 50ZM1 51L1 56L6 56L6 51ZM2 52L2 55L5 55L5 52Z" fill="#000000"/></g></g></svg>
