<?xml version="1.0" encoding="UTF-8"?>
<svg xmlns="http://www.w3.org/2000/svg" version="1.1" width="300" height="300" viewBox="0 0 300 300"><rect x="0" y="0" width="300" height="300" fill="#ffffff"/><g transform="scale(4.918)"><g transform="translate(2,2)"><path fill-rule="evenodd" d="M9 0L9 1L8 1L8 2L9 2L9 1L10 1L10 4L11 4L11 5L13 5L13 4L14 4L14 7L13 7L13 6L12 6L12 8L11 8L11 6L10 6L10 8L11 8L11 10L10 10L10 9L9 9L9 8L6 8L6 9L5 9L5 8L0 8L0 14L1 14L1 12L2 12L2 11L3 11L3 10L4 10L4 11L7 11L7 12L6 12L6 13L4 13L4 14L3 14L3 13L2 13L2 15L0 15L0 16L2 16L2 18L1 18L1 17L0 17L0 21L2 21L2 22L1 22L1 24L2 24L2 23L3 23L3 21L4 21L4 24L5 24L5 26L3 26L3 25L2 25L2 27L4 27L4 31L5 31L5 32L3 32L3 28L2 28L2 29L1 29L1 25L0 25L0 30L2 30L2 31L0 31L0 37L1 37L1 38L0 38L0 41L1 41L1 40L2 40L2 41L3 41L3 42L2 42L2 43L1 43L1 42L0 42L0 43L1 43L1 44L0 44L0 45L1 45L1 46L0 46L0 48L5 48L5 47L7 47L7 46L6 46L6 45L9 45L9 46L10 46L10 44L12 44L12 43L14 43L14 47L13 47L13 45L12 45L12 48L8 48L8 51L12 51L12 50L15 50L15 52L18 52L18 53L19 53L19 54L17 54L17 55L18 55L18 56L16 56L16 55L15 55L15 54L16 54L16 53L15 53L15 54L13 54L13 52L12 52L12 53L10 53L10 52L8 52L8 57L10 57L10 56L11 56L11 57L12 57L12 56L13 56L13 57L14 57L14 55L15 55L15 56L16 56L16 57L19 57L19 56L22 56L22 55L24 55L24 57L26 57L26 56L28 56L28 55L27 55L27 53L28 53L28 54L29 54L29 55L30 55L30 56L29 56L29 57L31 57L31 55L32 55L32 56L33 56L33 54L32 54L32 52L33 52L33 50L34 50L34 51L35 51L35 50L34 50L34 49L35 49L35 48L36 48L36 52L35 52L35 55L34 55L34 56L35 56L35 57L37 57L37 56L38 56L38 57L40 57L40 56L41 56L41 57L42 57L42 55L43 55L43 57L44 57L44 56L45 56L45 57L46 57L46 56L45 56L45 55L43 55L43 53L44 53L44 54L46 54L46 55L47 55L47 56L50 56L50 55L51 55L51 57L52 57L52 56L55 56L55 57L56 57L56 56L55 56L55 54L53 54L53 53L54 53L54 52L55 52L55 53L56 53L56 52L57 52L57 51L56 51L56 50L57 50L57 48L56 48L56 46L57 46L57 45L56 45L56 46L55 46L55 45L54 45L54 44L55 44L55 43L56 43L56 44L57 44L57 43L56 43L56 42L57 42L57 41L55 41L55 39L57 39L57 37L56 37L56 34L57 34L57 33L56 33L56 32L57 32L57 31L56 31L56 30L57 30L57 29L56 29L56 26L57 26L57 25L55 25L55 23L56 23L56 24L57 24L57 23L56 23L56 22L57 22L57 21L54 21L54 20L57 20L57 19L55 19L55 18L57 18L57 15L56 15L56 14L57 14L57 11L56 11L56 14L55 14L55 13L54 13L54 14L55 14L55 15L54 15L54 16L53 16L53 15L52 15L52 16L53 16L53 17L54 17L54 18L53 18L53 19L51 19L51 21L52 21L52 20L53 20L53 23L52 23L52 24L51 24L51 26L49 26L49 25L48 25L48 24L50 24L50 23L51 23L51 22L50 22L50 17L51 17L51 16L50 16L50 17L48 17L48 16L45 16L45 15L51 15L51 14L52 14L52 13L51 13L51 12L50 12L50 13L51 13L51 14L49 14L49 13L47 13L47 14L46 14L46 12L45 12L45 13L44 13L44 12L43 12L43 11L45 11L45 9L46 9L46 7L47 7L47 8L49 8L49 9L47 9L47 10L46 10L46 11L48 11L48 12L49 12L49 11L51 11L51 10L49 10L49 9L50 9L50 8L49 8L49 6L48 6L48 7L47 7L47 5L48 5L48 0L45 0L45 1L44 1L44 2L43 2L43 3L47 3L47 5L46 5L46 4L44 4L44 5L45 5L45 6L44 6L44 7L43 7L43 6L42 6L42 5L43 5L43 4L42 4L42 5L41 5L41 4L40 4L40 3L41 3L41 2L42 2L42 1L43 1L43 0L42 0L42 1L41 1L41 2L39 2L39 1L40 1L40 0L39 0L39 1L37 1L37 0L35 0L35 1L34 1L34 0L33 0L33 1L34 1L34 2L31 2L31 4L28 4L28 3L29 3L29 2L28 2L28 3L27 3L27 1L26 1L26 0L23 0L23 2L24 2L24 4L21 4L21 5L24 5L24 4L25 4L25 6L24 6L24 7L23 7L23 6L22 6L22 8L24 8L24 9L23 9L23 10L24 10L24 11L23 11L23 12L25 12L25 13L23 13L23 14L26 14L26 15L30 15L30 16L35 16L35 18L33 18L33 17L32 17L32 18L31 18L31 17L29 17L29 18L31 18L31 19L28 19L28 18L26 18L26 19L25 19L25 17L28 17L28 16L25 16L25 15L24 15L24 17L22 17L22 15L21 15L21 14L20 14L20 15L18 15L18 16L16 16L16 15L17 15L17 14L15 14L15 15L14 15L14 16L12 16L12 15L13 15L13 14L14 14L14 13L13 13L13 14L12 14L12 12L14 12L14 11L13 11L13 9L14 9L14 10L15 10L15 9L16 9L16 8L17 8L17 9L18 9L18 10L16 10L16 11L15 11L15 12L16 12L16 13L18 13L18 14L19 14L19 13L22 13L22 12L19 12L19 13L18 13L18 12L17 12L17 11L18 11L18 10L19 10L19 11L20 11L20 9L21 9L21 8L20 8L20 9L19 9L19 6L20 6L20 7L21 7L21 6L20 6L20 5L19 5L19 6L18 6L18 7L17 7L17 4L20 4L20 3L17 3L17 4L16 4L16 2L19 2L19 1L20 1L20 2L21 2L21 3L22 3L22 2L21 2L21 1L22 1L22 0L21 0L21 1L20 1L20 0L19 0L19 1L15 1L15 0L14 0L14 1L15 1L15 2L13 2L13 1L12 1L12 3L11 3L11 1L10 1L10 0ZM28 0L28 1L32 1L32 0ZM25 1L25 2L26 2L26 1ZM35 1L35 4L33 4L33 3L32 3L32 4L31 4L31 8L33 8L33 9L34 9L34 10L33 10L33 11L34 11L34 12L35 12L35 11L36 11L36 10L35 10L35 9L34 9L34 8L36 8L36 6L37 6L37 9L38 9L38 11L39 11L39 10L40 10L40 12L38 12L38 13L37 13L37 14L39 14L39 15L35 15L35 16L37 16L37 17L36 17L36 18L35 18L35 21L34 21L34 20L32 20L32 21L33 21L33 22L34 22L34 23L35 23L35 24L34 24L34 25L33 25L33 23L31 23L31 22L28 22L28 23L29 23L29 24L27 24L27 20L28 20L28 21L30 21L30 20L28 20L28 19L26 19L26 20L25 20L25 22L26 22L26 23L25 23L25 24L24 24L24 23L23 23L23 22L24 22L24 21L23 21L23 18L21 18L21 17L20 17L20 16L21 16L21 15L20 15L20 16L19 16L19 17L16 17L16 18L17 18L17 19L18 19L18 18L19 18L19 19L22 19L22 20L19 20L19 21L18 21L18 20L15 20L15 21L12 21L12 20L14 20L14 19L13 19L13 17L12 17L12 20L11 20L11 21L12 21L12 22L14 22L14 23L13 23L13 24L12 24L12 23L11 23L11 22L10 22L10 23L9 23L9 22L8 22L8 20L9 20L9 21L10 21L10 18L11 18L11 15L12 15L12 14L11 14L11 13L10 13L10 12L9 12L9 9L8 9L8 10L7 10L7 9L6 9L6 10L7 10L7 11L8 11L8 12L9 12L9 13L8 13L8 16L9 16L9 14L11 14L11 15L10 15L10 17L8 17L8 19L5 19L5 18L4 18L4 17L6 17L6 18L7 18L7 17L6 17L6 16L7 16L7 15L6 15L6 14L7 14L7 13L6 13L6 14L5 14L5 16L4 16L4 17L3 17L3 18L4 18L4 19L3 19L3 20L2 20L2 21L3 21L3 20L4 20L4 19L5 19L5 21L6 21L6 22L8 22L8 23L9 23L9 24L10 24L10 25L8 25L8 26L9 26L9 27L10 27L10 25L11 25L11 26L12 26L12 25L13 25L13 24L14 24L14 25L15 25L15 26L17 26L17 27L18 27L18 25L15 25L15 23L16 23L16 24L17 24L17 21L18 21L18 22L19 22L19 23L20 23L20 22L19 22L19 21L23 21L23 22L22 22L22 23L21 23L21 24L19 24L19 25L20 25L20 26L19 26L19 29L20 29L20 30L21 30L21 31L19 31L19 33L18 33L18 34L17 34L17 33L16 33L16 31L18 31L18 30L17 30L17 29L18 29L18 28L17 28L17 29L16 29L16 31L15 31L15 30L13 30L13 31L15 31L15 32L13 32L13 33L12 33L12 32L11 32L11 31L12 31L12 29L10 29L10 28L9 28L9 31L8 31L8 33L6 33L6 34L5 34L5 33L3 33L3 32L1 32L1 33L2 33L2 34L5 34L5 35L4 35L4 36L3 36L3 35L2 35L2 36L3 36L3 37L4 37L4 38L1 38L1 39L3 39L3 40L5 40L5 42L3 42L3 44L1 44L1 45L2 45L2 46L1 46L1 47L2 47L2 46L3 46L3 47L5 47L5 46L3 46L3 45L4 45L4 44L9 44L9 43L10 43L10 42L11 42L11 43L12 43L12 42L13 42L13 40L14 40L14 41L15 41L15 42L14 42L14 43L15 43L15 42L17 42L17 41L15 41L15 40L16 40L16 39L15 39L15 38L16 38L16 37L18 37L18 38L17 38L17 39L18 39L18 38L20 38L20 39L19 39L19 41L18 41L18 43L17 43L17 44L18 44L18 45L16 45L16 46L17 46L17 47L16 47L16 48L17 48L17 47L18 47L18 48L19 48L19 49L16 49L16 51L17 51L17 50L21 50L21 49L22 49L22 50L23 50L23 51L22 51L22 53L21 53L21 52L19 52L19 53L21 53L21 54L22 54L22 53L23 53L23 54L24 54L24 53L23 53L23 52L24 52L24 51L25 51L25 53L26 53L26 51L25 51L25 50L26 50L26 48L27 48L27 47L26 47L26 46L27 46L27 45L28 45L28 46L30 46L30 45L28 45L28 44L27 44L27 43L26 43L26 42L27 42L27 41L28 41L28 42L30 42L30 41L28 41L28 39L26 39L26 40L27 40L27 41L26 41L26 42L25 42L25 44L23 44L23 43L24 43L24 42L22 42L22 43L21 43L21 44L22 44L22 45L20 45L20 43L19 43L19 41L20 41L20 42L21 42L21 41L25 41L25 38L26 38L26 37L24 37L24 35L25 35L25 34L26 34L26 35L27 35L27 36L28 36L28 37L27 37L27 38L28 38L28 37L29 37L29 36L30 36L30 38L31 38L31 39L29 39L29 40L31 40L31 39L34 39L34 40L32 40L32 41L31 41L31 43L29 43L29 44L31 44L31 45L32 45L32 46L31 46L31 47L32 47L32 46L35 46L35 47L33 47L33 48L31 48L31 49L32 49L32 50L31 50L31 52L32 52L32 50L33 50L33 48L35 48L35 47L36 47L36 48L37 48L37 47L36 47L36 46L35 46L35 44L37 44L37 46L40 46L40 47L38 47L38 49L37 49L37 50L39 50L39 52L38 52L38 51L37 51L37 53L36 53L36 54L37 54L37 55L39 55L39 56L40 56L40 55L42 55L42 54L41 54L41 53L42 53L42 52L40 52L40 51L44 51L44 53L45 53L45 52L46 52L46 54L48 54L48 52L47 52L47 51L48 51L48 48L50 48L50 47L51 47L51 48L53 48L53 49L55 49L55 50L56 50L56 48L53 48L53 47L51 47L51 46L53 46L53 45L51 45L51 44L50 44L50 45L48 45L48 44L47 44L47 45L46 45L46 46L47 46L47 47L46 47L46 48L42 48L42 47L45 47L45 44L44 44L44 45L43 45L43 44L41 44L41 43L45 43L45 42L48 42L48 43L49 43L49 41L51 41L51 42L50 42L50 43L51 43L51 42L53 42L53 43L52 43L52 44L53 44L53 43L54 43L54 40L53 40L53 41L51 41L51 40L50 40L50 39L51 39L51 38L53 38L53 37L52 37L52 34L53 34L53 35L54 35L54 34L53 34L53 33L51 33L51 34L50 34L50 32L49 32L49 31L48 31L48 30L47 30L47 29L48 29L48 27L47 27L47 26L48 26L48 25L47 25L47 21L46 21L46 20L47 20L47 19L46 19L46 20L43 20L43 19L45 19L45 18L47 18L47 17L45 17L45 16L43 16L43 17L45 17L45 18L40 18L40 17L42 17L42 16L39 16L39 15L41 15L41 14L42 14L42 15L45 15L45 14L44 14L44 13L43 13L43 14L42 14L42 10L41 10L41 7L42 7L42 6L41 6L41 5L40 5L40 4L38 4L38 3L39 3L39 2L38 2L38 3L37 3L37 2L36 2L36 1ZM45 1L45 2L47 2L47 1ZM8 3L8 4L9 4L9 3ZM12 3L12 4L13 4L13 3ZM14 3L14 4L15 4L15 5L16 5L16 4L15 4L15 3ZM25 3L25 4L26 4L26 3ZM36 3L36 5L33 5L33 6L32 6L32 7L33 7L33 8L34 8L34 7L35 7L35 6L36 6L36 5L37 5L37 6L38 6L38 9L39 9L39 6L38 6L38 4L37 4L37 3ZM8 5L8 7L9 7L9 5ZM27 5L27 8L30 8L30 5ZM15 6L15 8L14 8L14 9L15 9L15 8L16 8L16 6ZM25 6L25 7L24 7L24 8L25 8L25 12L27 12L27 11L29 11L29 12L28 12L28 13L26 13L26 14L28 14L28 13L29 13L29 14L30 14L30 13L29 13L29 12L30 12L30 11L31 11L31 10L32 10L32 9L31 9L31 10L30 10L30 11L29 11L29 10L27 10L27 9L26 9L26 6ZM28 6L28 7L29 7L29 6ZM33 6L33 7L34 7L34 6ZM40 6L40 7L41 7L41 6ZM45 6L45 7L44 7L44 9L45 9L45 7L46 7L46 6ZM12 8L12 9L13 9L13 8ZM42 8L42 9L43 9L43 8ZM51 8L51 9L52 9L52 10L53 10L53 11L52 11L52 12L53 12L53 11L54 11L54 12L55 12L55 11L54 11L54 10L53 10L53 9L54 9L54 8L53 8L53 9L52 9L52 8ZM55 8L55 10L57 10L57 9L56 9L56 8ZM1 10L1 11L2 11L2 10ZM21 10L21 11L22 11L22 10ZM26 10L26 11L27 11L27 10ZM34 10L34 11L35 11L35 10ZM32 12L32 15L33 15L33 14L36 14L36 13L33 13L33 12ZM40 13L40 14L41 14L41 13ZM2 15L2 16L3 16L3 15ZM55 15L55 16L54 16L54 17L55 17L55 16L56 16L56 15ZM14 16L14 17L15 17L15 16ZM32 18L32 19L33 19L33 18ZM36 18L36 19L37 19L37 20L36 20L36 21L37 21L37 20L38 20L38 19L40 19L40 20L39 20L39 21L40 21L40 20L41 20L41 19L40 19L40 18ZM48 18L48 19L49 19L49 18ZM6 20L6 21L7 21L7 20ZM42 20L42 21L41 21L41 23L40 23L40 22L36 22L36 24L35 24L35 26L36 26L36 27L34 27L34 26L32 26L32 25L31 25L31 23L30 23L30 24L29 24L29 26L28 26L28 25L26 25L26 24L25 24L25 25L21 25L21 26L20 26L20 29L21 29L21 30L22 30L22 31L21 31L21 32L20 32L20 33L21 33L21 34L20 34L20 35L21 35L21 37L22 37L22 38L21 38L21 39L22 39L22 40L24 40L24 39L23 39L23 38L24 38L24 37L22 37L22 36L23 36L23 35L22 35L22 33L21 33L21 32L23 32L23 30L22 30L22 29L24 29L24 30L25 30L25 31L24 31L24 33L23 33L23 34L25 34L25 31L27 31L27 33L30 33L30 32L31 32L31 33L32 33L32 32L34 32L34 31L36 31L36 29L37 29L37 30L38 30L38 29L39 29L39 30L41 30L41 31L40 31L40 32L38 32L38 31L37 31L37 32L35 32L35 33L36 33L36 34L38 34L38 35L39 35L39 34L40 34L40 32L41 32L41 33L42 33L42 34L41 34L41 35L40 35L40 36L36 36L36 37L37 37L37 38L36 38L36 40L35 40L35 42L34 42L34 41L32 41L32 42L34 42L34 43L31 43L31 44L34 44L34 43L35 43L35 42L38 42L38 40L39 40L39 39L38 39L38 40L37 40L37 38L38 38L38 37L39 37L39 38L40 38L40 36L43 36L43 37L41 37L41 38L42 38L42 39L40 39L40 40L41 40L41 42L44 42L44 40L45 40L45 41L46 41L46 40L45 40L45 39L46 39L46 38L45 38L45 37L44 37L44 33L43 33L43 32L45 32L45 34L46 34L46 35L45 35L45 36L48 36L48 35L49 35L49 34L48 34L48 33L47 33L47 32L48 32L48 31L47 31L47 30L46 30L46 29L47 29L47 28L46 28L46 27L44 27L44 26L43 26L43 25L44 25L44 24L43 24L43 20ZM15 21L15 22L16 22L16 21ZM44 21L44 23L45 23L45 24L46 24L46 22L45 22L45 21ZM49 22L49 23L50 23L50 22ZM54 22L54 23L55 23L55 22ZM5 23L5 24L7 24L7 23ZM22 23L22 24L23 24L23 23ZM37 23L37 25L38 25L38 26L37 26L37 27L36 27L36 28L37 28L37 27L38 27L38 28L39 28L39 29L41 29L41 30L42 30L42 31L45 31L45 32L47 32L47 31L46 31L46 30L44 30L44 29L45 29L45 28L44 28L44 29L43 29L43 28L42 28L42 26L39 26L39 25L38 25L38 23ZM39 23L39 24L40 24L40 25L43 25L43 24L40 24L40 23ZM52 24L52 25L53 25L53 27L55 27L55 26L54 26L54 25L53 25L53 24ZM6 25L6 26L7 26L7 25ZM25 25L25 26L26 26L26 25ZM21 26L21 27L22 27L22 26ZM5 27L5 30L8 30L8 27ZM12 27L12 28L13 28L13 29L15 29L15 28L16 28L16 27L15 27L15 28L13 28L13 27ZM25 27L25 28L24 28L24 29L25 29L25 30L26 30L26 27ZM27 27L27 30L30 30L30 27ZM32 27L32 29L31 29L31 30L32 30L32 31L31 31L31 32L32 32L32 31L33 31L33 30L35 30L35 29L33 29L33 28L34 28L34 27ZM39 27L39 28L40 28L40 27ZM49 27L49 30L52 30L52 27ZM6 28L6 29L7 29L7 28ZM21 28L21 29L22 29L22 28ZM28 28L28 29L29 29L29 28ZM50 28L50 29L51 29L51 28ZM54 28L54 29L53 29L53 30L56 30L56 29L55 29L55 28ZM32 29L32 30L33 30L33 29ZM42 29L42 30L43 30L43 29ZM10 30L10 31L11 31L11 30ZM6 31L6 32L7 32L7 31ZM29 31L29 32L30 32L30 31ZM51 31L51 32L54 32L54 33L55 33L55 34L56 34L56 33L55 33L55 32L54 32L54 31ZM9 32L9 33L8 33L8 37L7 37L7 36L5 36L5 38L6 38L6 39L7 39L7 38L8 38L8 37L9 37L9 38L10 38L10 39L8 39L8 40L11 40L11 42L12 42L12 40L11 40L11 38L12 38L12 37L11 37L11 32ZM15 33L15 37L13 37L13 38L15 38L15 37L16 37L16 35L17 35L17 34L16 34L16 33ZM33 33L33 34L34 34L34 35L33 35L33 37L35 37L35 34L34 34L34 33ZM38 33L38 34L39 34L39 33ZM46 33L46 34L47 34L47 33ZM6 34L6 35L7 35L7 34ZM9 34L9 35L10 35L10 34ZM12 34L12 36L14 36L14 35L13 35L13 34ZM18 34L18 37L20 37L20 36L19 36L19 34ZM29 34L29 35L30 35L30 36L31 36L31 38L32 38L32 34L31 34L31 35L30 35L30 34ZM42 34L42 35L43 35L43 34ZM50 35L50 36L49 36L49 37L50 37L50 38L48 38L48 37L47 37L47 39L50 39L50 38L51 38L51 37L50 37L50 36L51 36L51 35ZM54 36L54 37L55 37L55 36ZM6 37L6 38L7 38L7 37ZM43 37L43 39L42 39L42 40L44 40L44 39L45 39L45 38L44 38L44 37ZM34 38L34 39L35 39L35 38ZM54 38L54 39L55 39L55 38ZM14 39L14 40L15 40L15 39ZM6 40L6 41L7 41L7 42L5 42L5 43L8 43L8 42L10 42L10 41L7 41L7 40ZM39 41L39 44L38 44L38 45L39 45L39 44L40 44L40 41ZM25 44L25 45L23 45L23 46L25 46L25 45L26 45L26 44ZM18 45L18 47L20 47L20 45ZM40 45L40 46L41 46L41 47L40 47L40 48L39 48L39 50L40 50L40 48L41 48L41 50L44 50L44 49L42 49L42 48L41 48L41 47L42 47L42 46L43 46L43 45L42 45L42 46L41 46L41 45ZM47 45L47 46L48 46L48 45ZM21 46L21 47L22 47L22 48L23 48L23 50L25 50L25 47L22 47L22 46ZM49 46L49 47L50 47L50 46ZM54 46L54 47L55 47L55 46ZM28 47L28 48L30 48L30 47ZM6 48L6 49L7 49L7 48ZM12 48L12 49L9 49L9 50L12 50L12 49L13 49L13 48ZM20 48L20 49L21 49L21 48ZM46 48L46 49L45 49L45 50L46 50L46 51L47 51L47 50L46 50L46 49L47 49L47 48ZM27 49L27 52L30 52L30 49ZM49 49L49 52L52 52L52 49ZM28 50L28 51L29 51L29 50ZM50 50L50 51L51 51L51 50ZM55 51L55 52L56 52L56 51ZM39 52L39 55L40 55L40 52ZM29 53L29 54L30 54L30 53ZM37 53L37 54L38 54L38 53ZM49 53L49 55L50 55L50 54L51 54L51 55L53 55L53 54L51 54L51 53ZM10 54L10 55L11 55L11 54ZM12 54L12 55L13 55L13 54ZM19 54L19 55L20 55L20 54ZM25 55L25 56L26 56L26 55ZM0 0L0 7L7 7L7 0ZM1 1L1 6L6 6L6 1ZM2 2L2 5L5 5L5 2ZM50 0L50 7L57 7L57 0ZM51 1L51 6L56 6L56 1ZM52 2L52 5L55 5L55 2ZM0 50L0 57L7 57L7 50ZM1 51L1 56L6 56L6 51ZM2 52L2 55L5 55L5 52Z" fill="#000000"/></g></g></svg>
