<?xml version="1.0" encoding="UTF-8"?>
<svg xmlns="http://www.w3.org/2000/svg" version="1.1" width="300" height="300" viewBox="0 0 300 300"><rect x="0" y="0" width="300" height="300" fill="#ffffff"/><g transform="scale(4.918)"><g transform="translate(2,2)"><path fill-rule="evenodd" d="M9 0L9 1L8 1L8 2L9 2L9 3L8 3L8 4L9 4L9 5L8 5L8 7L9 7L9 8L6 8L6 9L10 9L10 7L11 7L11 6L10 6L10 7L9 7L9 5L10 5L10 4L11 4L11 5L12 5L12 4L11 4L11 2L12 2L12 1L13 1L13 0L12 0L12 1L11 1L11 0ZM14 0L14 1L15 1L15 0ZM17 0L17 1L16 1L16 2L14 2L14 3L16 3L16 2L20 2L20 0ZM21 0L21 1L23 1L23 2L24 2L24 3L23 3L23 4L19 4L19 3L18 3L18 4L17 4L17 5L18 5L18 4L19 4L19 5L20 5L20 7L19 7L19 6L18 6L18 7L19 7L19 8L16 8L16 7L17 7L17 6L16 6L16 7L15 7L15 5L16 5L16 4L14 4L14 7L15 7L15 9L18 9L18 11L15 11L15 10L13 10L13 9L14 9L14 8L11 8L11 9L12 9L12 10L11 10L11 11L9 11L9 10L6 10L6 11L8 11L8 12L6 12L6 13L5 13L5 12L3 12L3 13L2 13L2 9L3 9L3 11L5 11L5 8L0 8L0 12L1 12L1 13L2 13L2 15L1 15L1 14L0 14L0 15L1 15L1 16L3 16L3 17L1 17L1 18L0 18L0 19L1 19L1 20L0 20L0 21L2 21L2 22L1 22L1 23L2 23L2 25L1 25L1 26L2 26L2 27L4 27L4 28L3 28L3 31L2 31L2 38L3 38L3 37L4 37L4 35L3 35L3 31L4 31L4 32L5 32L5 33L7 33L7 34L5 34L5 36L6 36L6 37L8 37L8 38L9 38L9 37L10 37L10 36L6 36L6 35L8 35L8 34L9 34L9 35L10 35L10 32L11 32L11 31L12 31L12 29L13 29L13 28L12 28L12 27L11 27L11 28L10 28L10 26L8 26L8 25L10 25L10 24L8 24L8 23L7 23L7 22L8 22L8 21L9 21L9 20L12 20L12 21L10 21L10 22L9 22L9 23L10 23L10 22L11 22L11 24L12 24L12 25L13 25L13 27L14 27L14 28L16 28L16 29L14 29L14 30L13 30L13 31L14 31L14 32L15 32L15 33L17 33L17 32L16 32L16 31L17 31L17 30L16 30L16 29L18 29L18 31L19 31L19 32L18 32L18 33L19 33L19 34L17 34L17 35L16 35L16 34L15 34L15 36L14 36L14 33L13 33L13 34L12 34L12 33L11 33L11 36L14 36L14 37L15 37L15 38L14 38L14 39L13 39L13 38L12 38L12 37L11 37L11 38L10 38L10 39L12 39L12 40L10 40L10 41L8 41L8 39L7 39L7 38L6 38L6 39L5 39L5 38L4 38L4 39L1 39L1 37L0 37L0 39L1 39L1 40L0 40L0 41L1 41L1 43L0 43L0 44L1 44L1 45L2 45L2 47L1 47L1 46L0 46L0 48L5 48L5 47L7 47L7 48L6 48L6 49L8 49L8 51L9 51L9 52L8 52L8 57L9 57L9 56L10 56L10 54L11 54L11 56L12 56L12 55L13 55L13 57L15 57L15 55L16 55L16 57L20 57L20 56L18 56L18 55L20 55L20 54L18 54L18 53L20 53L20 52L22 52L22 51L21 51L21 50L22 50L22 49L21 49L21 50L20 50L20 49L19 49L19 48L20 48L20 46L19 46L19 45L21 45L21 46L22 46L22 48L23 48L23 47L24 47L24 49L23 49L23 51L24 51L24 53L21 53L21 56L22 56L22 55L23 55L23 57L26 57L26 55L27 55L27 56L28 56L28 55L27 55L27 53L28 53L28 54L29 54L29 53L30 53L30 54L31 54L31 55L29 55L29 57L30 57L30 56L31 56L31 57L32 57L32 56L33 56L33 57L38 57L38 55L39 55L39 56L40 56L40 52L41 52L41 54L42 54L42 55L43 55L43 53L44 53L44 54L45 54L45 53L44 53L44 51L43 51L43 52L41 52L41 51L40 51L40 50L46 50L46 51L47 51L47 52L48 52L48 53L51 53L51 54L50 54L50 55L49 55L49 54L47 54L47 57L48 57L48 55L49 55L49 56L50 56L50 57L52 57L52 56L55 56L55 57L56 57L56 56L55 56L55 55L54 55L54 54L53 54L53 52L55 52L55 51L54 51L54 50L55 50L55 49L53 49L53 48L55 48L55 46L54 46L54 47L53 47L53 46L51 46L51 45L54 45L54 44L55 44L55 45L56 45L56 46L57 46L57 43L56 43L56 41L54 41L54 43L53 43L53 42L51 42L51 41L53 41L53 40L55 40L55 39L57 39L57 37L53 37L53 38L51 38L51 37L52 37L52 36L55 36L55 34L57 34L57 32L55 32L55 31L54 31L54 32L51 32L51 31L53 31L53 29L54 29L54 30L55 30L55 29L54 29L54 28L57 28L57 27L56 27L56 26L57 26L57 25L56 25L56 24L57 24L57 23L56 23L56 22L57 22L57 19L56 19L56 21L53 21L53 23L52 23L52 22L50 22L50 19L51 19L51 18L50 18L50 17L47 17L47 18L46 18L46 17L45 17L45 18L46 18L46 19L44 19L44 17L43 17L43 16L45 16L45 15L49 15L49 16L50 16L50 15L51 15L51 14L52 14L52 13L51 13L51 14L50 14L50 13L47 13L47 14L46 14L46 12L45 12L45 14L44 14L44 11L42 11L42 10L44 10L44 8L43 8L43 3L45 3L45 4L44 4L44 5L45 5L45 6L44 6L44 7L45 7L45 10L46 10L46 11L47 11L47 12L50 12L50 11L52 11L52 12L53 12L53 11L54 11L54 12L55 12L55 13L54 13L54 14L55 14L55 15L52 15L52 16L51 16L51 17L52 17L52 18L53 18L53 19L52 19L52 20L55 20L55 19L54 19L54 18L55 18L55 17L54 17L54 18L53 18L53 17L52 17L52 16L55 16L55 15L56 15L56 16L57 16L57 15L56 15L56 14L57 14L57 13L56 13L56 10L55 10L55 11L54 11L54 10L53 10L53 11L52 11L52 10L50 10L50 8L49 8L49 9L48 9L48 8L46 8L46 7L47 7L47 5L48 5L48 0L46 0L46 1L45 1L45 0L44 0L44 1L43 1L43 0L42 0L42 1L41 1L41 0L39 0L39 1L38 1L38 0L37 0L37 1L36 1L36 2L37 2L37 1L38 1L38 3L36 3L36 5L34 5L34 7L33 7L33 6L32 6L32 7L31 7L31 4L32 4L32 3L33 3L33 4L35 4L35 1L34 1L34 0L29 0L29 1L28 1L28 0L27 0L27 1L26 1L26 2L27 2L27 3L29 3L29 4L26 4L26 3L25 3L25 2L24 2L24 1L25 1L25 0L24 0L24 1L23 1L23 0ZM27 1L27 2L28 2L28 1ZM29 1L29 2L31 2L31 1ZM32 1L32 2L33 2L33 3L34 3L34 1ZM39 1L39 2L41 2L41 3L40 3L40 6L39 6L39 8L38 8L38 6L37 6L37 5L36 5L36 6L35 6L35 7L36 7L36 6L37 6L37 9L38 9L38 10L36 10L36 9L35 9L35 8L31 8L31 10L30 10L30 9L29 9L29 10L28 10L28 9L25 9L25 8L26 8L26 4L25 4L25 8L24 8L24 6L23 6L23 8L22 8L22 9L20 9L20 10L21 10L21 11L22 11L22 9L23 9L23 8L24 8L24 9L25 9L25 10L24 10L24 13L22 13L22 12L21 12L21 13L19 13L19 14L20 14L20 15L19 15L19 17L18 17L18 15L17 15L17 13L18 13L18 12L17 12L17 13L16 13L16 12L15 12L15 13L11 13L11 16L10 16L10 17L9 17L9 16L8 16L8 13L9 13L9 14L10 14L10 12L8 12L8 13L6 13L6 14L5 14L5 16L8 16L8 17L6 17L6 18L5 18L5 17L4 17L4 18L3 18L3 19L2 19L2 18L1 18L1 19L2 19L2 21L4 21L4 23L3 23L3 22L2 22L2 23L3 23L3 26L4 26L4 25L5 25L5 26L7 26L7 25L8 25L8 24L7 24L7 23L6 23L6 22L7 22L7 21L8 21L8 18L9 18L9 19L11 19L11 17L12 17L12 19L14 19L14 20L13 20L13 21L14 21L14 22L12 22L12 24L13 24L13 25L14 25L14 24L16 24L16 25L15 25L15 26L14 26L14 27L16 27L16 28L18 28L18 29L20 29L20 30L19 30L19 31L20 31L20 32L19 32L19 33L20 33L20 36L19 36L19 37L17 37L17 36L18 36L18 35L17 35L17 36L15 36L15 37L16 37L16 38L15 38L15 39L16 39L16 40L15 40L15 42L12 42L12 41L11 41L11 42L12 42L12 43L10 43L10 42L7 42L7 41L5 41L5 39L4 39L4 40L1 40L1 41L4 41L4 42L3 42L3 43L2 43L2 45L3 45L3 44L4 44L4 45L5 45L5 46L3 46L3 47L5 47L5 46L7 46L7 47L8 47L8 49L9 49L9 48L10 48L10 50L11 50L11 51L10 51L10 53L9 53L9 54L10 54L10 53L11 53L11 54L13 54L13 55L14 55L14 54L13 54L13 53L14 53L14 52L15 52L15 50L17 50L17 51L16 51L16 53L15 53L15 54L16 54L16 53L18 53L18 52L20 52L20 51L18 51L18 50L19 50L19 49L18 49L18 47L19 47L19 46L18 46L18 47L17 47L17 45L18 45L18 44L17 44L17 45L15 45L15 44L14 44L14 45L11 45L11 44L13 44L13 43L15 43L15 42L16 42L16 43L18 43L18 42L19 42L19 43L20 43L20 44L21 44L21 45L22 45L22 46L24 46L24 47L25 47L25 49L26 49L26 46L27 46L27 47L28 47L28 48L31 48L31 49L32 49L32 50L31 50L31 52L32 52L32 54L35 54L35 55L34 55L34 56L35 56L35 55L36 55L36 54L39 54L39 52L40 52L40 51L39 51L39 52L38 52L38 50L40 50L40 49L41 49L41 48L42 48L42 49L45 49L45 48L42 48L42 47L44 47L44 46L45 46L45 43L46 43L46 42L47 42L47 43L48 43L48 44L47 44L47 45L46 45L46 46L47 46L47 48L46 48L46 50L47 50L47 51L48 51L48 48L49 48L49 47L51 47L51 46L49 46L49 43L48 43L48 42L49 42L49 41L51 41L51 38L50 38L50 37L51 37L51 36L52 36L52 34L55 34L55 32L54 32L54 33L51 33L51 32L50 32L50 35L51 35L51 36L50 36L50 37L49 37L49 31L48 31L48 29L46 29L46 30L42 30L42 29L43 29L43 28L44 28L44 29L45 29L45 27L46 27L46 28L48 28L48 26L47 26L47 25L49 25L49 26L53 26L53 27L55 27L55 26L56 26L56 25L55 25L55 24L54 24L54 23L55 23L55 22L54 22L54 23L53 23L53 24L51 24L51 23L50 23L50 22L48 22L48 21L49 21L49 20L48 20L48 18L47 18L47 19L46 19L46 20L48 20L48 21L45 21L45 20L42 20L42 19L43 19L43 18L42 18L42 17L41 17L41 16L43 16L43 15L44 15L44 14L42 14L42 11L41 11L41 10L40 10L40 11L41 11L41 12L40 12L40 13L41 13L41 14L39 14L39 12L38 12L38 13L37 13L37 14L36 14L36 13L33 13L33 12L32 12L32 13L33 13L33 14L31 14L31 15L33 15L33 16L30 16L30 14L29 14L29 15L28 15L28 16L27 16L27 14L28 14L28 13L30 13L30 12L28 12L28 13L25 13L25 12L27 12L27 11L29 11L29 10L30 10L30 11L34 11L34 12L37 12L37 11L39 11L39 9L42 9L42 8L40 8L40 6L41 6L41 7L42 7L42 5L41 5L41 3L42 3L42 2L43 2L43 1L42 1L42 2L41 2L41 1ZM44 1L44 2L45 2L45 1ZM46 1L46 2L47 2L47 1ZM21 2L21 3L22 3L22 2ZM46 3L46 4L45 4L45 5L47 5L47 3ZM23 4L23 5L24 5L24 4ZM38 4L38 5L39 5L39 4ZM27 5L27 8L30 8L30 5ZM12 6L12 7L13 7L13 6ZM21 6L21 7L22 7L22 6ZM28 6L28 7L29 7L29 6ZM45 6L45 7L46 7L46 6ZM48 6L48 7L49 7L49 6ZM51 8L51 9L52 9L52 8ZM53 8L53 9L54 9L54 8ZM55 8L55 9L56 9L56 8ZM33 9L33 10L34 10L34 11L35 11L35 10L34 10L34 9ZM46 9L46 10L47 10L47 11L48 11L48 9ZM12 10L12 12L14 12L14 11L13 11L13 10ZM26 10L26 11L27 11L27 10ZM49 10L49 11L50 11L50 10ZM19 11L19 12L20 12L20 11ZM15 13L15 15L16 15L16 13ZM21 13L21 16L22 16L22 13ZM24 13L24 14L23 14L23 15L24 15L24 16L23 16L23 20L24 20L24 21L21 21L21 22L24 22L24 21L25 21L25 22L26 22L26 23L25 23L25 24L24 24L24 23L22 23L22 24L24 24L24 25L22 25L22 26L21 26L21 27L19 27L19 28L20 28L20 29L22 29L22 28L21 28L21 27L22 27L22 26L24 26L24 27L26 27L26 30L25 30L25 29L23 29L23 30L24 30L24 31L22 31L22 30L21 30L21 31L22 31L22 32L24 32L24 33L23 33L23 35L22 35L22 33L21 33L21 35L22 35L22 36L21 36L21 37L19 37L19 38L17 38L17 40L18 40L18 41L17 41L17 42L18 42L18 41L19 41L19 42L20 42L20 41L21 41L21 42L22 42L22 43L21 43L21 44L22 44L22 45L24 45L24 46L25 46L25 45L26 45L26 44L27 44L27 45L32 45L32 47L31 47L31 46L28 46L28 47L31 47L31 48L34 48L34 47L35 47L35 48L36 48L36 49L37 49L37 50L36 50L36 51L35 51L35 50L34 50L34 49L33 49L33 50L34 50L34 51L32 51L32 52L36 52L36 53L35 53L35 54L36 54L36 53L37 53L37 52L36 52L36 51L37 51L37 50L38 50L38 47L37 47L37 46L38 46L38 45L39 45L39 46L40 46L40 45L39 45L39 44L43 44L43 45L42 45L42 46L41 46L41 47L40 47L40 48L39 48L39 49L40 49L40 48L41 48L41 47L42 47L42 46L44 46L44 44L43 44L43 43L45 43L45 41L47 41L47 40L49 40L49 39L50 39L50 38L48 38L48 37L47 37L47 40L45 40L45 39L46 39L46 38L45 38L45 37L44 37L44 35L40 35L40 36L38 36L38 35L39 35L39 34L38 34L38 31L37 31L37 32L34 32L34 31L35 31L35 30L38 30L38 29L39 29L39 28L41 28L41 27L39 27L39 28L38 28L38 29L37 29L37 28L36 28L36 27L38 27L38 25L39 25L39 23L40 23L40 22L41 22L41 23L42 23L42 22L43 22L43 21L42 21L42 20L41 20L41 19L42 19L42 18L41 18L41 17L40 17L40 16L41 16L41 15L42 15L42 14L41 14L41 15L40 15L40 16L34 16L34 17L37 17L37 18L36 18L36 19L37 19L37 18L38 18L38 19L40 19L40 20L39 20L39 23L38 23L38 21L37 21L37 20L36 20L36 21L37 21L37 22L36 22L36 23L37 23L37 24L35 24L35 26L33 26L33 27L32 27L32 28L31 28L31 26L32 26L32 24L33 24L33 22L34 22L34 23L35 23L35 22L34 22L34 21L32 21L32 20L34 20L34 19L35 19L35 18L32 18L32 19L30 19L30 20L31 20L31 21L30 21L30 22L28 22L28 21L27 21L27 20L25 20L25 19L27 19L27 18L28 18L28 19L29 19L29 18L31 18L31 17L29 17L29 16L28 16L28 17L27 17L27 16L25 16L25 15L26 15L26 14L25 14L25 13ZM3 14L3 15L4 15L4 14ZM6 14L6 15L7 15L7 14ZM12 14L12 15L13 15L13 17L14 17L14 15L13 15L13 14ZM24 14L24 15L25 15L25 14ZM33 14L33 15L35 15L35 14ZM37 14L37 15L39 15L39 14ZM16 16L16 17L17 17L17 16ZM19 17L19 18L18 18L18 20L17 20L17 21L16 21L16 19L15 19L15 21L16 21L16 22L15 22L15 23L16 23L16 24L17 24L17 25L19 25L19 24L18 24L18 23L17 23L17 21L20 21L20 20L21 20L21 19L19 19L19 18L20 18L20 17ZM21 17L21 18L22 18L22 17ZM38 17L38 18L39 18L39 17ZM56 17L56 18L57 18L57 17ZM4 18L4 19L5 19L5 20L6 20L6 21L7 21L7 20L6 20L6 19L7 19L7 18L6 18L6 19L5 19L5 18ZM40 18L40 19L41 19L41 18ZM40 20L40 21L41 21L41 22L42 22L42 21L41 21L41 20ZM44 21L44 23L46 23L46 22L45 22L45 21ZM19 22L19 23L20 23L20 22ZM30 22L30 23L31 23L31 22ZM13 23L13 24L14 24L14 23ZM27 23L27 24L25 24L25 26L26 26L26 25L27 25L27 26L29 26L29 24L28 24L28 23ZM48 23L48 24L50 24L50 25L51 25L51 24L50 24L50 23ZM5 24L5 25L7 25L7 24ZM20 24L20 25L21 25L21 24ZM27 24L27 25L28 25L28 24ZM30 24L30 25L31 25L31 24ZM37 24L37 25L38 25L38 24ZM42 24L42 25L41 25L41 26L42 26L42 28L43 28L43 27L44 27L44 26L45 26L45 25L46 25L46 24L45 24L45 25L44 25L44 24ZM53 24L53 25L54 25L54 26L55 26L55 25L54 25L54 24ZM17 26L17 27L18 27L18 26ZM35 26L35 27L36 27L36 26ZM46 26L46 27L47 27L47 26ZM0 27L0 28L1 28L1 29L0 29L0 30L2 30L2 28L1 28L1 27ZM5 27L5 30L8 30L8 27ZM27 27L27 30L30 30L30 27ZM33 27L33 28L32 28L32 30L35 30L35 29L33 29L33 28L34 28L34 27ZM49 27L49 30L52 30L52 27ZM6 28L6 29L7 29L7 28ZM9 28L9 32L10 32L10 31L11 31L11 30L10 30L10 28ZM11 28L11 29L12 29L12 28ZM28 28L28 29L29 29L29 28ZM50 28L50 29L51 29L51 28ZM40 29L40 30L39 30L39 32L41 32L41 33L40 33L40 34L43 34L43 33L42 33L42 32L45 32L45 33L44 33L44 34L46 34L46 36L47 36L47 35L48 35L48 33L47 33L47 32L48 32L48 31L47 31L47 30L46 30L46 31L42 31L42 30L41 30L41 29ZM56 29L56 30L57 30L57 29ZM14 30L14 31L16 31L16 30ZM0 31L0 32L1 32L1 31ZM5 31L5 32L7 32L7 31ZM25 31L25 32L27 32L27 31ZM28 31L28 32L29 32L29 33L27 33L27 34L26 34L26 33L25 33L25 34L24 34L24 36L25 36L25 42L23 42L23 40L24 40L24 39L23 39L23 38L24 38L24 37L23 37L23 36L22 36L22 37L21 37L21 38L22 38L22 40L21 40L21 41L22 41L22 42L23 42L23 43L25 43L25 44L24 44L24 45L25 45L25 44L26 44L26 43L28 43L28 42L29 42L29 40L31 40L31 39L33 39L33 40L32 40L32 41L31 41L31 43L29 43L29 44L32 44L32 45L33 45L33 46L35 46L35 43L36 43L36 44L39 44L39 43L41 43L41 41L45 41L45 40L42 40L42 39L41 39L41 37L42 37L42 36L40 36L40 38L39 38L39 37L36 37L36 36L37 36L37 35L38 35L38 34L37 34L37 33L36 33L36 34L35 34L35 33L34 33L34 32L31 32L31 34L32 34L32 38L31 38L31 35L30 35L30 34L29 34L29 33L30 33L30 31ZM46 31L46 32L47 32L47 31ZM32 33L32 34L33 34L33 35L35 35L35 34L33 34L33 33ZM46 33L46 34L47 34L47 33ZM25 34L25 35L26 35L26 37L27 37L27 38L26 38L26 39L27 39L27 38L28 38L28 36L27 36L27 35L26 35L26 34ZM36 34L36 35L37 35L37 34ZM0 35L0 36L1 36L1 35ZM56 35L56 36L57 36L57 35ZM29 36L29 39L28 39L28 40L29 40L29 39L31 39L31 38L30 38L30 36ZM33 36L33 37L35 37L35 39L34 39L34 40L33 40L33 42L34 42L34 43L33 43L33 44L34 44L34 43L35 43L35 42L36 42L36 43L38 43L38 41L39 41L39 42L40 42L40 41L39 41L39 40L41 40L41 39L39 39L39 38L36 38L36 37L35 37L35 36ZM22 37L22 38L23 38L23 37ZM43 37L43 39L45 39L45 38L44 38L44 37ZM19 38L19 39L18 39L18 40L19 40L19 41L20 41L20 40L19 40L19 39L20 39L20 38ZM53 38L53 39L52 39L52 40L53 40L53 39L54 39L54 38ZM6 39L6 40L7 40L7 39ZM36 39L36 40L35 40L35 41L34 41L34 42L35 42L35 41L36 41L36 40L39 40L39 39ZM26 41L26 42L27 42L27 41ZM6 42L6 43L7 43L7 44L6 44L6 45L7 45L7 46L8 46L8 47L9 47L9 45L10 45L10 47L11 47L11 48L12 48L12 46L11 46L11 45L10 45L10 44L8 44L8 43L7 43L7 42ZM50 42L50 43L51 43L51 44L50 44L50 45L51 45L51 44L52 44L52 43L51 43L51 42ZM47 45L47 46L48 46L48 45ZM13 46L13 47L15 47L15 49L17 49L17 47L16 47L16 46ZM36 47L36 48L37 48L37 47ZM52 47L52 48L53 48L53 47ZM56 47L56 48L57 48L57 47ZM13 48L13 49L14 49L14 48ZM11 49L11 50L12 50L12 49ZM27 49L27 52L30 52L30 49ZM49 49L49 52L52 52L52 49ZM56 49L56 50L57 50L57 49ZM13 50L13 51L12 51L12 52L11 52L11 53L12 53L12 52L13 52L13 51L14 51L14 50ZM24 50L24 51L25 51L25 53L24 53L24 54L23 54L23 55L24 55L24 56L25 56L25 53L26 53L26 51L25 51L25 50ZM28 50L28 51L29 51L29 50ZM50 50L50 51L51 51L51 50ZM56 52L56 53L57 53L57 52ZM51 54L51 55L50 55L50 56L51 56L51 55L53 55L53 54ZM45 55L45 56L46 56L46 55ZM41 56L41 57L44 57L44 56ZM0 0L0 7L7 7L7 0ZM1 1L1 6L6 6L6 1ZM2 2L2 5L5 5L5 2ZM50 0L50 7L57 7L57 0ZM51 1L51 6L56 6L56 1ZM52 2L52 5L55 5L55 2ZM0 50L0 57L7 57L7 50ZM1 51L1 56L6 56L6 51ZM2 52L2 55L5 55L5 52Z" fill="#000000"/></g></g></svg>
