<?xml version="1.0" encoding="UTF-8"?>
<svg xmlns="http://www.w3.org/2000/svg" version="1.1" width="300" height="300" viewBox="0 0 300 300"><rect x="0" y="0" width="300" height="300" fill="#ffffff"/><g transform="scale(4.918)"><g transform="translate(2,2)"><path fill-rule="evenodd" d="M9 0L9 1L8 1L8 2L10 2L10 4L9 4L9 3L8 3L8 4L9 4L9 5L8 5L8 7L9 7L9 6L10 6L10 9L9 9L9 8L6 8L6 9L5 9L5 8L0 8L0 9L2 9L2 10L0 10L0 11L2 11L2 12L3 12L3 13L5 13L5 12L6 12L6 13L7 13L7 12L6 12L6 11L8 11L8 13L9 13L9 14L8 14L8 16L6 16L6 15L7 15L7 14L3 14L3 15L4 15L4 16L5 16L5 17L4 17L4 18L5 18L5 19L7 19L7 20L6 20L6 21L5 21L5 20L3 20L3 18L2 18L2 13L1 13L1 14L0 14L0 15L1 15L1 16L0 16L0 19L1 19L1 18L2 18L2 20L3 20L3 22L2 22L2 21L0 21L0 22L1 22L1 24L2 24L2 23L5 23L5 24L3 24L3 25L4 25L4 27L3 27L3 26L1 26L1 25L0 25L0 27L1 27L1 28L0 28L0 30L1 30L1 28L3 28L3 29L2 29L2 30L4 30L4 31L5 31L5 33L7 33L7 34L6 34L6 35L8 35L8 38L6 38L6 39L5 39L5 40L4 40L4 38L5 38L5 37L7 37L7 36L5 36L5 34L4 34L4 32L1 32L1 31L0 31L0 34L1 34L1 35L2 35L2 34L3 34L3 37L2 37L2 36L0 36L0 37L1 37L1 38L0 38L0 39L1 39L1 40L0 40L0 44L2 44L2 45L0 45L0 48L5 48L5 47L8 47L8 48L6 48L6 49L8 49L8 51L9 51L9 49L11 49L11 48L13 48L13 51L14 51L14 53L13 53L13 52L12 52L12 54L11 54L11 55L9 55L9 54L10 54L10 53L9 53L9 52L8 52L8 57L9 57L9 56L11 56L11 55L12 55L12 57L13 57L13 55L12 55L12 54L16 54L16 53L15 53L15 52L16 52L16 51L17 51L17 53L19 53L19 54L18 54L18 55L17 55L17 57L19 57L19 56L23 56L23 57L24 57L24 56L25 56L25 57L26 57L26 56L25 56L25 53L26 53L26 55L27 55L27 56L28 56L28 55L27 55L27 53L28 53L28 54L29 54L29 55L30 55L30 57L32 57L32 56L33 56L33 55L35 55L35 57L37 57L37 56L36 56L36 55L37 55L37 54L38 54L38 57L39 57L39 55L40 55L40 56L41 56L41 57L44 57L44 56L46 56L46 57L47 57L47 56L48 56L48 55L49 55L49 53L50 53L50 55L51 55L51 56L50 56L50 57L52 57L52 56L53 56L53 57L54 57L54 56L55 56L55 57L56 57L56 56L55 56L55 55L54 55L54 54L55 54L55 53L54 53L54 52L55 52L55 51L56 51L56 52L57 52L57 51L56 51L56 50L57 50L57 49L56 49L56 50L55 50L55 49L53 49L53 48L57 48L57 47L56 47L56 46L57 46L57 45L56 45L56 46L55 46L55 45L54 45L54 44L55 44L55 43L56 43L56 44L57 44L57 43L56 43L56 41L54 41L54 40L55 40L55 39L57 39L57 37L54 37L54 36L56 36L56 34L57 34L57 32L56 32L56 30L57 30L57 27L56 27L56 26L57 26L57 25L56 25L56 24L57 24L57 23L56 23L56 22L57 22L57 21L56 21L56 20L55 20L55 19L53 19L53 18L54 18L54 16L55 16L55 18L57 18L57 17L56 17L56 16L57 16L57 15L56 15L56 14L57 14L57 13L56 13L56 14L55 14L55 13L53 13L53 15L52 15L52 16L51 16L51 14L52 14L52 13L51 13L51 14L50 14L50 16L48 16L48 17L47 17L47 16L46 16L46 15L49 15L49 13L50 13L50 11L52 11L52 12L53 12L53 11L54 11L54 12L55 12L55 11L56 11L56 8L55 8L55 11L54 11L54 10L53 10L53 11L52 11L52 10L49 10L49 9L50 9L50 8L49 8L49 6L48 6L48 7L47 7L47 5L48 5L48 0L40 0L40 1L38 1L38 0L37 0L37 1L32 1L32 2L31 2L31 4L27 4L27 3L30 3L30 2L28 2L28 1L31 1L31 0L27 0L27 1L26 1L26 0L24 0L24 1L23 1L23 0L21 0L21 1L23 1L23 2L25 2L25 3L24 3L24 4L21 4L21 5L24 5L24 4L25 4L25 6L24 6L24 7L23 7L23 6L22 6L22 8L23 8L23 9L21 9L21 8L20 8L20 9L19 9L19 8L17 8L17 6L18 6L18 7L19 7L19 6L20 6L20 7L21 7L21 6L20 6L20 5L19 5L19 6L18 6L18 5L17 5L17 4L20 4L20 3L22 3L22 2L17 2L17 1L16 1L16 0L14 0L14 1L15 1L15 2L14 2L14 3L12 3L12 1L13 1L13 0L11 0L11 1L10 1L10 0ZM25 1L25 2L26 2L26 1ZM37 1L37 2L35 2L35 3L34 3L34 2L33 2L33 3L32 3L32 4L31 4L31 7L32 7L32 6L33 6L33 8L32 8L32 9L33 9L33 10L32 10L32 11L31 11L31 12L32 12L32 14L30 14L30 11L29 11L29 9L26 9L26 6L25 6L25 7L24 7L24 9L25 9L25 12L24 12L24 13L23 13L23 10L22 10L22 11L21 11L21 12L22 12L22 13L19 13L19 12L20 12L20 11L19 11L19 10L18 10L18 9L17 9L17 8L16 8L16 6L15 6L15 7L14 7L14 6L13 6L13 7L12 7L12 5L13 5L13 4L12 4L12 3L11 3L11 4L10 4L10 6L11 6L11 8L14 8L14 9L13 9L13 10L12 10L12 9L10 9L10 10L12 10L12 12L11 12L11 13L10 13L10 12L9 12L9 13L10 13L10 14L9 14L9 15L10 15L10 16L8 16L8 17L5 17L5 18L9 18L9 17L10 17L10 18L11 18L11 17L12 17L12 18L13 18L13 17L16 17L16 18L19 18L19 19L16 19L16 20L15 20L15 21L11 21L11 19L10 19L10 20L7 20L7 21L6 21L6 22L7 22L7 21L8 21L8 22L11 22L11 23L10 23L10 25L9 25L9 24L8 24L8 25L6 25L6 26L9 26L9 27L12 27L12 28L13 28L13 27L14 27L14 24L11 24L11 23L12 23L12 22L13 22L13 23L14 23L14 22L15 22L15 23L16 23L16 25L15 25L15 26L16 26L16 27L18 27L18 26L19 26L19 27L20 27L20 28L21 28L21 29L19 29L19 30L17 30L17 29L18 29L18 28L17 28L17 29L16 29L16 30L17 30L17 31L16 31L16 32L18 32L18 31L19 31L19 30L21 30L21 29L22 29L22 31L20 31L20 32L19 32L19 33L16 33L16 35L17 35L17 36L16 36L16 37L15 37L15 34L14 34L14 33L15 33L15 32L14 32L14 33L13 33L13 31L14 31L14 30L15 30L15 29L12 29L12 30L11 30L11 31L10 31L10 32L9 32L9 31L6 31L6 32L7 32L7 33L9 33L9 34L8 34L8 35L9 35L9 37L10 37L10 38L11 38L11 39L10 39L10 40L12 40L12 41L13 41L13 42L11 42L11 41L10 41L10 42L11 42L11 44L13 44L13 46L12 46L12 45L11 45L11 46L10 46L10 43L9 43L9 47L10 47L10 48L11 48L11 47L13 47L13 46L14 46L14 51L16 51L16 50L17 50L17 51L19 51L19 49L20 49L20 50L21 50L21 51L22 51L22 53L21 53L21 52L19 52L19 53L21 53L21 54L22 54L22 55L23 55L23 56L24 56L24 55L23 55L23 54L24 54L24 53L23 53L23 52L24 52L24 51L25 51L25 52L26 52L26 51L25 51L25 50L23 50L23 49L24 49L24 48L21 48L21 47L20 47L20 48L19 48L19 49L18 49L18 50L17 50L17 49L15 49L15 43L17 43L17 44L18 44L18 45L16 45L16 46L17 46L17 47L16 47L16 48L17 48L17 47L18 47L18 45L19 45L19 46L22 46L22 47L23 47L23 46L24 46L24 45L25 45L25 49L26 49L26 46L27 46L27 47L28 47L28 48L29 48L29 47L30 47L30 48L32 48L32 50L31 50L31 52L32 52L32 54L36 54L36 53L35 53L35 52L36 52L36 51L35 51L35 52L34 52L34 53L33 53L33 52L32 52L32 51L34 51L34 50L35 50L35 49L36 49L36 50L40 50L40 51L38 51L38 52L37 52L37 53L38 53L38 54L39 54L39 52L40 52L40 55L42 55L42 54L41 54L41 53L43 53L43 55L46 55L46 56L47 56L47 54L48 54L48 52L45 52L45 51L46 51L46 50L47 50L47 51L48 51L48 48L49 48L49 47L52 47L52 48L53 48L53 47L52 47L52 46L54 46L54 45L52 45L52 44L53 44L53 43L54 43L54 41L52 41L52 40L53 40L53 36L52 36L52 34L54 34L54 33L55 33L55 34L56 34L56 32L54 32L54 31L55 31L55 30L56 30L56 27L55 27L55 26L54 26L54 25L55 25L55 24L56 24L56 23L55 23L55 24L54 24L54 25L53 25L53 24L50 24L50 22L51 22L51 21L53 21L53 22L52 22L52 23L54 23L54 21L55 21L55 20L51 20L51 18L53 18L53 16L54 16L54 15L53 15L53 16L52 16L52 17L51 17L51 16L50 16L50 18L48 18L48 19L47 19L47 20L43 20L43 18L39 18L39 17L42 17L42 16L39 16L39 15L40 15L40 14L42 14L42 15L43 15L43 14L45 14L45 12L46 12L46 14L47 14L47 13L49 13L49 12L47 12L47 11L48 11L48 9L49 9L49 8L48 8L48 9L47 9L47 7L46 7L46 5L47 5L47 3L43 3L43 2L47 2L47 1L40 1L40 2L42 2L42 4L43 4L43 7L42 7L42 5L41 5L41 3L40 3L40 5L41 5L41 8L40 8L40 6L39 6L39 4L38 4L38 6L37 6L37 5L36 5L36 3L37 3L37 2L38 2L38 1ZM14 3L14 4L15 4L15 5L16 5L16 4L17 4L17 3L16 3L16 4L15 4L15 3ZM25 3L25 4L26 4L26 3ZM44 4L44 5L46 5L46 4ZM27 5L27 8L30 8L30 5ZM33 5L33 6L34 6L34 8L33 8L33 9L34 9L34 8L35 8L35 9L36 9L36 10L38 10L38 11L36 11L36 12L34 12L34 10L33 10L33 11L32 11L32 12L33 12L33 13L37 13L37 14L36 14L36 15L35 15L35 14L32 14L32 15L30 15L30 16L34 16L34 17L33 17L33 18L32 18L32 17L29 17L29 18L32 18L32 19L29 19L29 20L31 20L31 21L30 21L30 22L29 22L29 23L28 23L28 24L27 24L27 25L26 25L26 24L25 24L25 23L26 23L26 22L25 22L25 21L27 21L27 20L26 20L26 19L28 19L28 18L26 18L26 17L28 17L28 16L26 16L26 15L29 15L29 13L28 13L28 12L29 12L29 11L27 11L27 10L26 10L26 11L27 11L27 12L25 12L25 13L24 13L24 14L23 14L23 16L24 16L24 17L23 17L23 18L24 18L24 19L22 19L22 17L21 17L21 16L22 16L22 14L21 14L21 15L20 15L20 14L19 14L19 13L18 13L18 12L16 12L16 11L15 11L15 14L14 14L14 13L13 13L13 12L14 12L14 11L13 11L13 12L12 12L12 13L13 13L13 16L15 16L15 15L16 15L16 17L19 17L19 16L17 16L17 15L16 15L16 13L18 13L18 15L20 15L20 17L21 17L21 18L20 18L20 19L22 19L22 20L21 20L21 21L19 21L19 20L18 20L18 21L17 21L17 26L18 26L18 25L19 25L19 26L20 26L20 25L19 25L19 24L21 24L21 23L22 23L22 22L23 22L23 23L24 23L24 25L21 25L21 26L22 26L22 27L21 27L21 28L22 28L22 29L24 29L24 31L23 31L23 35L22 35L22 33L21 33L21 32L20 32L20 33L21 33L21 34L20 34L20 35L19 35L19 34L17 34L17 35L19 35L19 36L18 36L18 37L16 37L16 38L15 38L15 39L14 39L14 38L12 38L12 39L13 39L13 41L18 41L18 42L17 42L17 43L18 43L18 42L20 42L20 40L18 40L18 39L20 39L20 38L18 38L18 37L20 37L20 36L21 36L21 37L22 37L22 38L21 38L21 39L22 39L22 40L23 40L23 42L24 42L24 43L25 43L25 42L26 42L26 43L27 43L27 45L29 45L29 46L30 46L30 47L31 47L31 46L33 46L33 47L32 47L32 48L34 48L34 47L35 47L35 48L36 48L36 49L37 49L37 48L38 48L38 47L37 47L37 48L36 48L36 47L35 47L35 46L38 46L38 44L36 44L36 43L37 43L37 42L38 42L38 40L41 40L41 39L42 39L42 41L39 41L39 43L40 43L40 44L43 44L43 45L42 45L42 46L41 46L41 45L40 45L40 47L39 47L39 48L41 48L41 49L40 49L40 50L43 50L43 48L46 48L46 49L45 49L45 50L44 50L44 51L42 51L42 52L43 52L43 53L44 53L44 54L45 54L45 53L44 53L44 51L45 51L45 50L46 50L46 49L47 49L47 48L46 48L46 47L47 47L47 46L46 46L46 45L47 45L47 44L48 44L48 46L52 46L52 45L49 45L49 44L51 44L51 43L50 43L50 42L51 42L51 41L49 41L49 40L48 40L48 41L47 41L47 42L49 42L49 43L45 43L45 47L42 47L42 46L44 46L44 44L43 44L43 42L45 42L45 41L44 41L44 39L43 39L43 37L44 37L44 38L45 38L45 40L46 40L46 38L45 38L45 37L44 37L44 35L40 35L40 34L44 34L44 33L39 33L39 34L34 34L34 33L35 33L35 32L36 32L36 33L37 33L37 32L38 32L38 31L37 31L37 30L38 30L38 29L39 29L39 30L41 30L41 31L39 31L39 32L41 32L41 31L42 31L42 32L45 32L45 33L46 33L46 32L45 32L45 31L44 31L44 30L43 30L43 29L44 29L44 27L45 27L45 30L46 30L46 31L47 31L47 32L48 32L48 31L50 31L50 32L51 32L51 33L50 33L50 34L51 34L51 33L54 33L54 32L52 32L52 31L54 31L54 30L55 30L55 29L54 29L54 28L55 28L55 27L53 27L53 26L52 26L52 25L51 25L51 26L50 26L50 24L49 24L49 25L47 25L47 26L46 26L46 24L45 24L45 23L46 23L46 22L45 22L45 21L44 21L44 24L45 24L45 26L43 26L43 23L42 23L42 22L43 22L43 21L42 21L42 19L40 19L40 20L39 20L39 18L38 18L38 17L39 17L39 16L38 16L38 17L37 17L37 16L36 16L36 15L37 15L37 14L38 14L38 12L39 12L39 14L40 14L40 12L41 12L41 11L42 11L42 14L43 14L43 11L44 11L44 12L45 12L45 10L46 10L46 11L47 11L47 10L46 10L46 9L44 9L44 8L45 8L45 6L44 6L44 8L43 8L43 9L42 9L42 8L41 8L41 11L39 11L39 10L40 10L40 8L37 8L37 6L36 6L36 5L35 5L35 6L34 6L34 5ZM28 6L28 7L29 7L29 6ZM35 6L35 8L36 8L36 6ZM38 6L38 7L39 7L39 6ZM15 8L15 9L16 9L16 8ZM51 8L51 9L52 9L52 8ZM53 8L53 9L54 9L54 8ZM6 9L6 10L8 10L8 11L9 11L9 9ZM20 9L20 10L21 10L21 9ZM38 9L38 10L39 10L39 9ZM2 10L2 11L3 11L3 12L5 12L5 11L4 11L4 10ZM17 10L17 11L18 11L18 10ZM42 10L42 11L43 11L43 10ZM26 13L26 14L25 14L25 15L26 15L26 14L28 14L28 13ZM11 14L11 16L12 16L12 14ZM34 15L34 16L35 16L35 17L34 17L34 18L33 18L33 19L34 19L34 18L35 18L35 20L34 20L34 21L33 21L33 20L32 20L32 21L33 21L33 22L34 22L34 23L36 23L36 22L37 22L37 26L39 26L39 27L37 27L37 29L38 29L38 28L39 28L39 29L41 29L41 30L42 30L42 31L43 31L43 30L42 30L42 29L43 29L43 28L42 28L42 27L41 27L41 26L40 26L40 25L41 25L41 24L42 24L42 23L41 23L41 22L42 22L42 21L41 21L41 20L40 20L40 21L41 21L41 22L40 22L40 23L39 23L39 20L38 20L38 18L35 18L35 17L36 17L36 16L35 16L35 15ZM25 16L25 17L26 17L26 16ZM43 16L43 17L44 17L44 19L46 19L46 18L47 18L47 17L46 17L46 18L45 18L45 16ZM13 19L13 20L14 20L14 19ZM48 19L48 21L47 21L47 24L48 24L48 23L49 23L49 22L50 22L50 19ZM22 20L22 21L21 21L21 22L22 22L22 21L23 21L23 22L24 22L24 21L23 21L23 20ZM36 20L36 21L37 21L37 22L38 22L38 21L37 21L37 20ZM15 21L15 22L16 22L16 21ZM18 21L18 24L19 24L19 23L20 23L20 22L19 22L19 21ZM30 22L30 23L31 23L31 24L30 24L30 25L31 25L31 27L32 27L32 25L33 25L33 26L34 26L34 27L33 27L33 28L31 28L31 29L33 29L33 30L31 30L31 31L33 31L33 30L35 30L35 31L34 31L34 32L35 32L35 31L36 31L36 32L37 32L37 31L36 31L36 29L33 29L33 28L34 28L34 27L35 27L35 28L36 28L36 27L35 27L35 24L34 24L34 25L33 25L33 23L31 23L31 22ZM6 23L6 24L7 24L7 23ZM38 23L38 25L40 25L40 24L41 24L41 23L40 23L40 24L39 24L39 23ZM28 24L28 25L27 25L27 26L29 26L29 24ZM31 24L31 25L32 25L32 24ZM25 25L25 26L26 26L26 25ZM23 26L23 28L24 28L24 29L25 29L25 30L26 30L26 27L24 27L24 26ZM45 26L45 27L46 27L46 28L47 28L47 29L46 29L46 30L47 30L47 31L48 31L48 28L47 28L47 27L46 27L46 26ZM5 27L5 30L8 30L8 27ZM27 27L27 30L30 30L30 27ZM49 27L49 30L52 30L52 27ZM6 28L6 29L7 29L7 28ZM9 28L9 29L10 29L10 28ZM28 28L28 29L29 29L29 28ZM50 28L50 29L51 29L51 28ZM53 29L53 30L54 30L54 29ZM11 31L11 32L10 32L10 34L9 34L9 35L10 35L10 34L11 34L11 35L12 35L12 36L11 36L11 37L13 37L13 36L14 36L14 35L12 35L12 34L13 34L13 33L12 33L12 31ZM25 31L25 34L24 34L24 36L22 36L22 35L21 35L21 36L22 36L22 37L24 37L24 38L22 38L22 39L24 39L24 41L25 41L25 39L26 39L26 37L27 37L27 38L28 38L28 37L29 37L29 34L32 34L32 38L31 38L31 35L30 35L30 38L31 38L31 39L29 39L29 40L28 40L28 39L27 39L27 40L28 40L28 41L26 41L26 42L29 42L29 43L28 43L28 44L29 44L29 45L30 45L30 44L31 44L31 45L33 45L33 46L35 46L35 43L36 43L36 41L35 41L35 40L33 40L33 39L34 39L34 38L35 38L35 39L36 39L36 38L37 38L37 37L38 37L38 39L37 39L37 40L38 40L38 39L39 39L39 38L40 38L40 39L41 39L41 36L40 36L40 35L38 35L38 36L37 36L37 35L35 35L35 36L34 36L34 34L33 34L33 32L31 32L31 33L30 33L30 31ZM26 32L26 33L29 33L29 32ZM1 33L1 34L2 34L2 33ZM47 33L47 34L45 34L45 36L46 36L46 37L47 37L47 36L48 36L48 33ZM25 34L25 35L27 35L27 34ZM46 35L46 36L47 36L47 35ZM49 35L49 36L50 36L50 37L49 37L49 38L47 38L47 39L50 39L50 40L51 40L51 39L52 39L52 38L51 38L51 37L52 37L52 36L51 36L51 35ZM24 36L24 37L26 37L26 36ZM27 36L27 37L28 37L28 36ZM36 36L36 37L37 37L37 36ZM39 36L39 37L40 37L40 36ZM42 36L42 37L43 37L43 36ZM8 38L8 39L9 39L9 38ZM17 38L17 39L18 39L18 38ZM50 38L50 39L51 39L51 38ZM2 39L2 40L1 40L1 43L2 43L2 44L4 44L4 46L3 46L3 47L5 47L5 45L6 45L6 46L8 46L8 45L6 45L6 44L7 44L7 43L8 43L8 42L9 42L9 40L7 40L7 39L6 39L6 40L7 40L7 41L6 41L6 42L7 42L7 43L6 43L6 44L4 44L4 43L5 43L5 41L4 41L4 40L3 40L3 39ZM15 39L15 40L16 40L16 39ZM2 40L2 41L3 41L3 40ZM30 40L30 43L29 43L29 44L30 44L30 43L31 43L31 44L34 44L34 43L35 43L35 42L34 42L34 43L33 43L33 42L32 42L32 40ZM7 41L7 42L8 42L8 41ZM2 42L2 43L3 43L3 42ZM14 42L14 43L15 43L15 42ZM21 42L21 43L22 43L22 42ZM31 42L31 43L32 43L32 42ZM40 42L40 43L41 43L41 42ZM19 43L19 45L22 45L22 44L20 44L20 43ZM23 44L23 45L24 45L24 44ZM25 44L25 45L26 45L26 44ZM1 46L1 47L2 47L2 46ZM41 47L41 48L42 48L42 47ZM21 49L21 50L22 50L22 49ZM27 49L27 52L30 52L30 49ZM33 49L33 50L34 50L34 49ZM49 49L49 52L52 52L52 49ZM10 50L10 52L11 52L11 50ZM28 50L28 51L29 51L29 50ZM50 50L50 51L51 51L51 50ZM53 50L53 51L54 51L54 50ZM40 51L40 52L41 52L41 51ZM22 53L22 54L23 54L23 53ZM30 53L30 54L31 54L31 53ZM19 54L19 55L20 55L20 54ZM51 54L51 55L53 55L53 54ZM15 55L15 56L14 56L14 57L16 57L16 55ZM0 0L0 7L7 7L7 0ZM1 1L1 6L6 6L6 1ZM2 2L2 5L5 5L5 2ZM50 0L50 7L57 7L57 0ZM51 1L51 6L56 6L56 1ZM52 2L52 5L55 5L55 2ZM0 50L0 57L7 57L7 50ZM1 51L1 56L6 56L6 51ZM2 52L2 55L5 55L5 52Z" fill="#000000"/></g></g></svg>
