<?xml version="1.0" encoding="UTF-8"?>
<svg xmlns="http://www.w3.org/2000/svg" version="1.1" width="300" height="300" viewBox="0 0 300 300"><rect x="0" y="0" width="300" height="300" fill="#ffffff"/><g transform="scale(4.918)"><g transform="translate(2,2)"><path fill-rule="evenodd" d="M9 0L9 1L8 1L8 2L9 2L9 1L10 1L10 2L12 2L12 3L13 3L13 4L12 4L12 7L11 7L11 5L10 5L10 9L9 9L9 8L6 8L6 9L5 9L5 8L0 8L0 9L3 9L3 10L2 10L2 11L1 11L1 13L0 13L0 14L1 14L1 15L0 15L0 16L1 16L1 17L2 17L2 18L0 18L0 19L2 19L2 18L3 18L3 17L2 17L2 16L3 16L3 15L2 15L2 14L1 14L1 13L3 13L3 14L4 14L4 13L8 13L8 14L6 14L6 15L8 15L8 14L9 14L9 16L5 16L5 15L4 15L4 18L5 18L5 19L3 19L3 20L4 20L4 21L1 21L1 20L0 20L0 21L1 21L1 22L2 22L2 23L1 23L1 24L2 24L2 25L3 25L3 26L2 26L2 27L1 27L1 25L0 25L0 27L1 27L1 28L0 28L0 30L1 30L1 32L0 32L0 37L1 37L1 41L0 41L0 43L1 43L1 44L0 44L0 48L5 48L5 47L7 47L7 48L6 48L6 49L8 49L8 51L9 51L9 49L12 49L12 50L14 50L14 48L13 48L13 47L14 47L14 46L16 46L16 47L15 47L15 49L17 49L17 50L16 50L16 51L15 51L15 52L16 52L16 51L17 51L17 52L18 52L18 53L17 53L17 54L18 54L18 53L19 53L19 54L20 54L20 55L17 55L17 56L16 56L16 55L15 55L15 54L16 54L16 53L14 53L14 54L13 54L13 53L12 53L12 52L8 52L8 57L11 57L11 55L9 55L9 54L11 54L11 53L12 53L12 54L13 54L13 56L14 56L14 55L15 55L15 57L22 57L22 56L23 56L23 55L24 55L24 56L25 56L25 55L26 55L26 56L28 56L28 55L26 55L26 54L27 54L27 53L28 53L28 54L29 54L29 55L30 55L30 56L29 56L29 57L32 57L32 56L34 56L34 55L36 55L36 56L35 56L35 57L37 57L37 54L38 54L38 53L39 53L39 56L38 56L38 57L39 57L39 56L40 56L40 52L41 52L41 51L42 51L42 50L43 50L43 49L44 49L44 48L46 48L46 49L45 49L45 50L46 50L46 51L45 51L45 52L48 52L48 53L47 53L47 55L45 55L45 56L47 56L47 57L49 57L49 56L48 56L48 55L49 55L49 54L48 54L48 53L50 53L50 55L51 55L51 56L50 56L50 57L52 57L52 56L53 56L53 57L56 57L56 56L55 56L55 55L54 55L54 54L53 54L53 53L54 53L54 52L55 52L55 50L57 50L57 49L53 49L53 48L57 48L57 47L56 47L56 46L57 46L57 45L56 45L56 44L57 44L57 43L56 43L56 44L55 44L55 42L57 42L57 41L54 41L54 43L53 43L53 44L52 44L52 45L51 45L51 47L49 47L49 48L48 48L48 51L47 51L47 50L46 50L46 49L47 49L47 48L46 48L46 47L47 47L47 46L50 46L50 45L49 45L49 44L51 44L51 43L50 43L50 42L51 42L51 41L49 41L49 40L48 40L48 41L47 41L47 42L44 42L44 40L43 40L43 41L42 41L42 42L41 42L41 41L39 41L39 40L38 40L38 39L36 39L36 40L35 40L35 39L31 39L31 38L32 38L32 35L30 35L30 34L29 34L29 35L30 35L30 36L29 36L29 37L28 37L28 36L26 36L26 35L27 35L27 34L25 34L25 33L26 33L26 32L25 32L25 31L27 31L27 33L30 33L30 31L31 31L31 32L33 32L33 34L34 34L34 36L33 36L33 37L34 37L34 36L35 36L35 35L39 35L39 34L40 34L40 32L41 32L41 33L42 33L42 34L41 34L41 35L40 35L40 36L39 36L39 37L40 37L40 36L41 36L41 38L42 38L42 39L41 39L41 40L42 40L42 39L43 39L43 37L44 37L44 38L45 38L45 40L46 40L46 38L45 38L45 37L44 37L44 35L43 35L43 37L42 37L42 36L41 36L41 35L42 35L42 34L46 34L46 35L45 35L45 36L46 36L46 37L47 37L47 36L51 36L51 35L48 35L48 33L47 33L47 32L48 32L48 31L49 31L49 32L51 32L51 33L50 33L50 34L51 34L51 33L54 33L54 34L52 34L52 36L53 36L53 38L51 38L51 39L50 39L50 38L49 38L49 37L48 37L48 39L50 39L50 40L51 40L51 39L53 39L53 40L52 40L52 41L53 41L53 40L55 40L55 39L57 39L57 37L56 37L56 36L55 36L55 34L57 34L57 32L56 32L56 30L57 30L57 29L56 29L56 30L54 30L54 32L52 32L52 31L53 31L53 29L54 29L54 28L56 28L56 24L55 24L55 23L56 23L56 22L57 22L57 21L51 21L51 22L50 22L50 19L51 19L51 20L55 20L55 19L51 19L51 18L50 18L50 17L51 17L51 16L49 16L49 17L48 17L48 16L46 16L46 15L49 15L49 13L50 13L50 11L52 11L52 12L53 12L53 11L54 11L54 12L55 12L55 11L56 11L56 10L55 10L55 11L54 11L54 10L52 10L52 8L51 8L51 10L49 10L49 9L50 9L50 8L49 8L49 6L48 6L48 7L47 7L47 5L48 5L48 0L42 0L42 1L41 1L41 2L40 2L40 1L37 1L37 0L36 0L36 1L32 1L32 2L31 2L31 4L27 4L27 3L29 3L29 2L30 2L30 1L31 1L31 0L30 0L30 1L29 1L29 2L28 2L28 0L27 0L27 1L25 1L25 0L24 0L24 1L23 1L23 0L21 0L21 1L23 1L23 2L19 2L19 1L18 1L18 2L17 2L17 1L16 1L16 0L14 0L14 1L15 1L15 2L14 2L14 3L13 3L13 1L12 1L12 0ZM42 1L42 2L41 2L41 3L40 3L40 5L42 5L42 6L41 6L41 7L42 7L42 9L43 9L43 8L44 8L44 10L42 10L42 11L41 11L41 12L38 12L38 13L37 13L37 14L36 14L36 13L33 13L33 12L32 12L32 11L34 11L34 12L35 12L35 11L36 11L36 12L37 12L37 11L39 11L39 9L41 9L41 8L40 8L40 6L39 6L39 3L38 3L38 2L33 2L33 3L32 3L32 4L31 4L31 7L32 7L32 6L33 6L33 8L32 8L32 9L31 9L31 10L30 10L30 12L32 12L32 14L36 14L36 15L34 15L34 16L38 16L38 18L37 18L37 17L34 17L34 18L32 18L32 19L34 19L34 20L35 20L35 21L33 21L33 20L32 20L32 21L33 21L33 22L34 22L34 24L32 24L32 23L31 23L31 22L30 22L30 20L28 20L28 19L31 19L31 18L29 18L29 17L33 17L33 16L30 16L30 13L29 13L29 12L28 12L28 13L26 13L26 14L23 14L23 13L25 13L25 12L27 12L27 11L29 11L29 10L27 10L27 9L26 9L26 6L25 6L25 4L26 4L26 3L25 3L25 2L23 2L23 3L20 3L20 4L18 4L18 3L16 3L16 4L15 4L15 3L14 3L14 4L15 4L15 5L13 5L13 7L14 7L14 10L13 10L13 8L12 8L12 10L11 10L11 9L10 9L10 11L9 11L9 12L8 12L8 10L7 10L7 9L6 9L6 10L5 10L5 9L4 9L4 12L3 12L3 13L4 13L4 12L8 12L8 13L9 13L9 14L10 14L10 11L11 11L11 12L12 12L12 14L11 14L11 16L9 16L9 17L6 17L6 18L7 18L7 19L6 19L6 20L7 20L7 21L5 21L5 22L3 22L3 25L6 25L6 26L7 26L7 25L6 25L6 24L9 24L9 25L10 25L10 24L9 24L9 21L10 21L10 23L13 23L13 24L11 24L11 26L9 26L9 27L10 27L10 28L9 28L9 30L10 30L10 31L4 31L4 26L3 26L3 27L2 27L2 28L1 28L1 29L2 29L2 31L4 31L4 33L5 33L5 34L3 34L3 39L2 39L2 41L1 41L1 43L2 43L2 44L1 44L1 45L2 45L2 46L1 46L1 47L2 47L2 46L3 46L3 47L5 47L5 45L6 45L6 46L8 46L8 48L9 48L9 45L8 45L8 44L10 44L10 46L11 46L11 47L12 47L12 46L11 46L11 45L12 45L12 44L11 44L11 43L10 43L10 42L9 42L9 43L6 43L6 42L8 42L8 41L9 41L9 39L10 39L10 38L8 38L8 36L9 36L9 35L13 35L13 36L14 36L14 35L15 35L15 34L14 34L14 33L15 33L15 31L14 31L14 30L15 30L15 27L14 27L14 29L11 29L11 30L10 30L10 28L11 28L11 26L12 26L12 27L13 27L13 26L12 26L12 25L14 25L14 26L16 26L16 27L18 27L18 26L17 26L17 25L15 25L15 24L14 24L14 23L16 23L16 24L19 24L19 25L20 25L20 26L21 26L21 27L20 27L20 28L19 28L19 29L20 29L20 31L19 31L19 30L17 30L17 29L18 29L18 28L17 28L17 29L16 29L16 30L17 30L17 31L16 31L16 32L18 32L18 31L19 31L19 33L16 33L16 35L18 35L18 36L16 36L16 37L13 37L13 38L14 38L14 40L16 40L16 41L14 41L14 42L15 42L15 44L18 44L18 45L16 45L16 46L17 46L17 47L16 47L16 48L17 48L17 47L18 47L18 45L19 45L19 46L20 46L20 48L19 48L19 49L18 49L18 50L17 50L17 51L19 51L19 49L20 49L20 50L21 50L21 49L22 49L22 52L19 52L19 53L23 53L23 54L22 54L22 55L23 55L23 54L24 54L24 53L23 53L23 52L24 52L24 51L25 51L25 53L26 53L26 51L25 51L25 50L26 50L26 49L25 49L25 50L23 50L23 49L24 49L24 47L25 47L25 48L26 48L26 46L27 46L27 45L28 45L28 46L29 46L29 45L30 45L30 46L31 46L31 47L32 47L32 46L35 46L35 43L36 43L36 44L37 44L37 45L36 45L36 46L37 46L37 47L36 47L36 48L35 48L35 47L34 47L34 50L33 50L33 48L31 48L31 49L32 49L32 50L31 50L31 52L32 52L32 54L35 54L35 53L36 53L36 52L40 52L40 51L41 51L41 50L42 50L42 47L43 47L43 48L44 48L44 47L45 47L45 43L44 43L44 42L42 42L42 43L43 43L43 44L41 44L41 42L39 42L39 41L38 41L38 40L37 40L37 41L38 41L38 44L37 44L37 42L36 42L36 41L33 41L33 40L31 40L31 39L29 39L29 41L28 41L28 43L26 43L26 42L27 42L27 41L26 41L26 42L24 42L24 41L25 41L25 38L26 38L26 39L27 39L27 40L28 40L28 39L27 39L27 38L28 38L28 37L27 37L27 38L26 38L26 36L25 36L25 34L24 34L24 36L23 36L23 31L24 31L24 30L23 30L23 29L25 29L25 30L26 30L26 27L25 27L25 26L26 26L26 25L27 25L27 26L28 26L28 25L29 25L29 24L30 24L30 23L31 23L31 25L32 25L32 26L35 26L35 28L37 28L37 27L38 27L38 29L33 29L33 28L34 28L34 27L31 27L31 28L32 28L32 29L31 29L31 30L32 30L32 31L33 31L33 30L35 30L35 31L34 31L34 34L35 34L35 32L37 32L37 30L39 30L39 29L41 29L41 30L40 30L40 31L38 31L38 33L36 33L36 34L39 34L39 32L40 32L40 31L41 31L41 32L42 32L42 33L45 33L45 32L47 32L47 31L48 31L48 29L46 29L46 30L45 30L45 26L46 26L46 28L48 28L48 27L47 27L47 26L48 26L48 25L49 25L49 26L53 26L53 27L55 27L55 26L54 26L54 24L52 24L52 23L53 23L53 22L52 22L52 23L50 23L50 22L49 22L49 23L48 23L48 25L47 25L47 21L48 21L48 20L47 20L47 19L45 19L45 20L43 20L43 19L44 19L44 18L47 18L47 17L45 17L45 16L44 16L44 15L45 15L45 14L44 14L44 13L45 13L45 12L46 12L46 14L47 14L47 13L49 13L49 12L48 12L48 10L47 10L47 9L49 9L49 8L46 8L46 9L45 9L45 8L44 8L44 6L45 6L45 7L46 7L46 5L47 5L47 3L43 3L43 2L47 2L47 1ZM8 3L8 4L10 4L10 3ZM24 3L24 4L21 4L21 6L20 6L20 5L18 5L18 4L16 4L16 5L15 5L15 6L14 6L14 7L15 7L15 6L16 6L16 8L15 8L15 9L18 9L18 10L16 10L16 11L18 11L18 10L19 10L19 11L22 11L22 9L21 9L21 10L20 10L20 8L18 8L18 7L19 7L19 6L20 6L20 7L21 7L21 6L22 6L22 8L23 8L23 10L24 10L24 12L25 12L25 9L24 9L24 7L25 7L25 6L24 6L24 7L23 7L23 6L22 6L22 5L24 5L24 4L25 4L25 3ZM34 3L34 4L35 4L35 3ZM36 3L36 5L33 5L33 6L34 6L34 7L35 7L35 9L36 9L36 10L38 10L38 9L37 9L37 8L36 8L36 7L37 7L37 6L36 6L36 5L38 5L38 3ZM42 3L42 5L43 5L43 3ZM44 4L44 5L46 5L46 4ZM8 5L8 7L9 7L9 5ZM27 5L27 8L30 8L30 5ZM17 6L17 7L18 7L18 6ZM28 6L28 7L29 7L29 6ZM35 6L35 7L36 7L36 6ZM38 6L38 7L39 7L39 6ZM42 6L42 7L43 7L43 6ZM53 8L53 9L54 9L54 8ZM55 8L55 9L56 9L56 8ZM32 9L32 10L33 10L33 9ZM6 10L6 11L7 11L7 10ZM12 10L12 12L14 12L14 11L13 11L13 10ZM26 10L26 11L27 11L27 10ZM44 10L44 11L42 11L42 14L41 14L41 15L39 15L39 14L40 14L40 13L39 13L39 14L37 14L37 15L38 15L38 16L42 16L42 17L41 17L41 18L43 18L43 17L44 17L44 16L43 16L43 15L42 15L42 14L43 14L43 12L45 12L45 10ZM15 12L15 14L14 14L14 13L13 13L13 14L14 14L14 16L15 16L15 15L16 15L16 17L13 17L13 16L11 16L11 17L10 17L10 19L9 19L9 20L8 20L8 21L7 21L7 22L6 22L6 23L7 23L7 22L8 22L8 21L9 21L9 20L10 20L10 19L11 19L11 20L13 20L13 21L12 21L12 22L13 22L13 21L15 21L15 22L16 22L16 21L15 21L15 20L16 20L16 19L18 19L18 21L17 21L17 23L18 23L18 21L19 21L19 22L20 22L20 23L19 23L19 24L21 24L21 21L22 21L22 22L23 22L23 23L22 23L22 24L23 24L23 26L22 26L22 25L21 25L21 26L22 26L22 27L21 27L21 28L20 28L20 29L21 29L21 31L22 31L22 29L23 29L23 28L25 28L25 27L23 27L23 26L25 26L25 25L26 25L26 24L25 24L25 23L26 23L26 22L25 22L25 20L26 20L26 19L28 19L28 18L26 18L26 19L25 19L25 17L28 17L28 16L25 16L25 15L23 15L23 16L24 16L24 17L23 17L23 18L24 18L24 19L23 19L23 21L22 21L22 19L21 19L21 18L22 18L22 17L21 17L21 16L22 16L22 14L21 14L21 16L20 16L20 15L19 15L19 13L22 13L22 12L19 12L19 13L18 13L18 12ZM56 12L56 14L54 14L54 16L53 16L53 15L52 15L52 16L53 16L53 18L54 18L54 16L55 16L55 18L57 18L57 17L56 17L56 16L57 16L57 15L56 15L56 14L57 14L57 12ZM16 13L16 15L17 15L17 16L19 16L19 17L16 17L16 18L19 18L19 21L21 21L21 19L20 19L20 18L21 18L21 17L20 17L20 16L19 16L19 15L18 15L18 13ZM28 13L28 14L27 14L27 15L29 15L29 13ZM51 13L51 14L50 14L50 15L51 15L51 14L52 14L52 13ZM39 17L39 18L38 18L38 19L37 19L37 18L36 18L36 19L37 19L37 20L36 20L36 21L37 21L37 22L36 22L36 23L35 23L35 24L34 24L34 25L35 25L35 26L36 26L36 25L37 25L37 26L38 26L38 24L37 24L37 23L38 23L38 21L39 21L39 24L40 24L40 22L43 22L43 20L41 20L41 19L40 19L40 20L39 20L39 18L40 18L40 17ZM34 18L34 19L35 19L35 18ZM48 18L48 19L49 19L49 18ZM13 19L13 20L14 20L14 19ZM56 19L56 20L57 20L57 19ZM40 20L40 21L41 21L41 20ZM23 21L23 22L24 22L24 21ZM28 21L28 23L27 23L27 24L29 24L29 23L30 23L30 22L29 22L29 21ZM44 21L44 23L43 23L43 24L42 24L42 25L41 25L41 26L40 26L40 25L39 25L39 27L40 27L40 28L41 28L41 26L43 26L43 25L44 25L44 26L45 26L45 25L44 25L44 24L45 24L45 23L46 23L46 22L45 22L45 21ZM23 23L23 24L24 24L24 23ZM51 24L51 25L52 25L52 24ZM5 27L5 30L8 30L8 27ZM27 27L27 30L30 30L30 27ZM42 27L42 28L43 28L43 29L42 29L42 30L41 30L41 31L42 31L42 32L45 32L45 31L44 31L44 30L43 30L43 29L44 29L44 28L43 28L43 27ZM49 27L49 30L52 30L52 27ZM6 28L6 29L7 29L7 28ZM21 28L21 29L22 29L22 28ZM28 28L28 29L29 29L29 28ZM50 28L50 29L51 29L51 28ZM12 30L12 31L13 31L13 30ZM42 30L42 31L43 31L43 30ZM46 30L46 31L47 31L47 30ZM28 31L28 32L29 32L29 31ZM2 32L2 33L1 33L1 35L2 35L2 33L3 33L3 32ZM6 32L6 33L7 33L7 32ZM8 32L8 34L5 34L5 35L7 35L7 36L6 36L6 37L7 37L7 36L8 36L8 35L9 35L9 33L10 33L10 34L11 34L11 33L10 33L10 32ZM13 32L13 33L14 33L14 32ZM20 32L20 33L21 33L21 34L20 34L20 35L19 35L19 34L18 34L18 35L19 35L19 36L18 36L18 37L16 37L16 38L15 38L15 39L16 39L16 40L17 40L17 41L18 41L18 42L16 42L16 43L18 43L18 42L19 42L19 41L21 41L21 43L20 43L20 44L19 44L19 45L22 45L22 44L21 44L21 43L22 43L22 41L21 41L21 40L19 40L19 39L20 39L20 38L18 38L18 37L20 37L20 36L21 36L21 37L22 37L22 40L23 40L23 41L24 41L24 39L23 39L23 38L24 38L24 37L25 37L25 36L24 36L24 37L22 37L22 35L21 35L21 34L22 34L22 33L21 33L21 32ZM54 32L54 33L56 33L56 32ZM31 33L31 34L32 34L32 33ZM46 33L46 34L47 34L47 33ZM46 35L46 36L47 36L47 35ZM30 36L30 38L31 38L31 36ZM36 36L36 37L35 37L35 38L38 38L38 37L37 37L37 36ZM54 36L54 38L55 38L55 36ZM11 37L11 39L12 39L12 40L10 40L10 41L13 41L13 39L12 39L12 37ZM4 38L4 40L3 40L3 41L4 41L4 42L3 42L3 43L4 43L4 45L3 45L3 46L4 46L4 45L5 45L5 43L4 43L4 42L6 42L6 41L8 41L8 38L6 38L6 39L7 39L7 40L5 40L5 38ZM17 38L17 39L18 39L18 38ZM39 38L39 39L40 39L40 38ZM4 40L4 41L5 41L5 40ZM30 41L30 42L29 42L29 43L28 43L28 45L29 45L29 43L31 43L31 44L30 44L30 45L31 45L31 46L32 46L32 45L31 45L31 44L34 44L34 43L35 43L35 42L33 42L33 41ZM23 42L23 43L24 43L24 42ZM47 42L47 43L48 43L48 44L47 44L47 45L46 45L46 46L47 46L47 45L48 45L48 44L49 44L49 43L48 43L48 42ZM6 44L6 45L7 45L7 44ZM25 44L25 45L23 45L23 46L25 46L25 45L26 45L26 44ZM38 44L38 45L37 45L37 46L38 46L38 45L39 45L39 48L41 48L41 47L42 47L42 46L44 46L44 44L43 44L43 45L42 45L42 46L41 46L41 47L40 47L40 45L39 45L39 44ZM54 44L54 45L52 45L52 46L56 46L56 45L55 45L55 44ZM21 46L21 48L23 48L23 47L22 47L22 46ZM28 47L28 48L29 48L29 47ZM52 47L52 48L53 48L53 47ZM12 48L12 49L13 49L13 48ZM36 48L36 49L35 49L35 50L34 50L34 51L35 51L35 52L33 52L33 51L32 51L32 52L33 52L33 53L35 53L35 52L36 52L36 51L40 51L40 50L36 50L36 49L38 49L38 48ZM27 49L27 52L30 52L30 49ZM49 49L49 52L52 52L52 49ZM10 50L10 51L11 51L11 50ZM28 50L28 51L29 51L29 50ZM35 50L35 51L36 51L36 50ZM50 50L50 51L51 51L51 50ZM53 50L53 51L54 51L54 50ZM13 51L13 52L14 52L14 51ZM43 51L43 53L41 53L41 56L43 56L43 57L44 57L44 55L42 55L42 54L43 54L43 53L44 53L44 54L45 54L45 53L44 53L44 51ZM56 51L56 52L57 52L57 51ZM29 53L29 54L30 54L30 53ZM51 54L51 55L53 55L53 54ZM31 55L31 56L32 56L32 55ZM0 0L0 7L7 7L7 0ZM1 1L1 6L6 6L6 1ZM2 2L2 5L5 5L5 2ZM50 0L50 7L57 7L57 0ZM51 1L51 6L56 6L56 1ZM52 2L52 5L55 5L55 2ZM0 50L0 57L7 57L7 50ZM1 51L1 56L6 56L6 51ZM2 52L2 55L5 55L5 52Z" fill="#000000"/></g></g></svg>
