<?xml version="1.0" encoding="UTF-8"?>
<svg xmlns="http://www.w3.org/2000/svg" version="1.1" width="300" height="300" viewBox="0 0 300 300"><rect x="0" y="0" width="300" height="300" fill="#ffffff"/><g transform="scale(4.918)"><g transform="translate(2,2)"><path fill-rule="evenodd" d="M10 0L10 1L11 1L11 0ZM12 0L12 1L13 1L13 0ZM14 0L14 1L15 1L15 2L14 2L14 3L17 3L17 4L19 4L19 5L17 5L17 6L16 6L16 7L15 7L15 6L14 6L14 8L15 8L15 9L13 9L13 8L12 8L12 7L13 7L13 6L12 6L12 7L11 7L11 4L13 4L13 3L10 3L10 2L9 2L9 1L8 1L8 2L9 2L9 3L8 3L8 4L9 4L9 5L8 5L8 7L9 7L9 8L6 8L6 9L5 9L5 8L0 8L0 18L1 18L1 19L0 19L0 21L1 21L1 22L2 22L2 23L0 23L0 26L1 26L1 25L2 25L2 23L3 23L3 25L7 25L7 26L3 26L3 27L4 27L4 28L3 28L3 29L2 29L2 31L3 31L3 33L2 33L2 32L1 32L1 31L0 31L0 33L2 33L2 34L1 34L1 35L0 35L0 36L4 36L4 34L5 34L5 35L9 35L9 36L10 36L10 35L11 35L11 36L13 36L13 37L14 37L14 38L11 38L11 41L10 41L10 42L9 42L9 41L8 41L8 43L9 43L9 47L10 47L10 49L11 49L11 51L10 51L10 50L9 50L9 48L8 48L8 46L5 46L5 45L4 45L4 44L5 44L5 43L7 43L7 42L4 42L4 44L3 44L3 43L2 43L2 38L3 38L3 37L2 37L2 38L1 38L1 37L0 37L0 41L1 41L1 43L2 43L2 44L0 44L0 45L1 45L1 46L0 46L0 48L5 48L5 47L7 47L7 48L6 48L6 49L8 49L8 51L10 51L10 52L8 52L8 57L9 57L9 53L10 53L10 52L11 52L11 54L10 54L10 55L13 55L13 54L12 54L12 53L14 53L14 54L15 54L15 55L14 55L14 56L11 56L11 57L16 57L16 56L17 56L17 57L21 57L21 56L19 56L19 55L20 55L20 54L19 54L19 55L17 55L17 54L18 54L18 53L20 53L20 52L19 52L19 51L23 51L23 50L25 50L25 51L24 51L24 53L22 53L22 52L21 52L21 53L22 53L22 54L24 54L24 53L25 53L25 56L24 56L24 55L23 55L23 56L24 56L24 57L26 57L26 55L27 55L27 56L28 56L28 55L27 55L27 53L28 53L28 54L30 54L30 53L31 53L31 55L32 55L32 56L30 56L30 55L29 55L29 56L30 56L30 57L32 57L32 56L33 56L33 57L34 57L34 56L33 56L33 55L34 55L34 54L32 54L32 52L33 52L33 53L34 53L34 52L33 52L33 51L35 51L35 52L36 52L36 53L35 53L35 55L38 55L38 56L35 56L35 57L38 57L38 56L39 56L39 55L40 55L40 52L41 52L41 51L42 51L42 50L43 50L43 53L41 53L41 57L42 57L42 56L43 56L43 57L44 57L44 56L46 56L46 54L45 54L45 53L44 53L44 48L45 48L45 47L47 47L47 46L46 46L46 45L47 45L47 44L48 44L48 43L49 43L49 44L52 44L52 45L48 45L48 46L51 46L51 47L49 47L49 48L48 48L48 51L47 51L47 50L45 50L45 52L46 52L46 51L47 51L47 52L48 52L48 53L47 53L47 55L48 55L48 57L49 57L49 55L50 55L50 53L51 53L51 54L53 54L53 55L51 55L51 56L50 56L50 57L52 57L52 56L54 56L54 57L56 57L56 56L55 56L55 54L54 54L54 53L53 53L53 52L55 52L55 51L53 51L53 50L54 50L54 49L53 49L53 48L55 48L55 50L57 50L57 48L55 48L55 47L54 47L54 46L55 46L55 45L56 45L56 46L57 46L57 45L56 45L56 44L57 44L57 43L56 43L56 44L55 44L55 42L57 42L57 41L54 41L54 43L53 43L53 44L52 44L52 43L50 43L50 42L51 42L51 41L49 41L49 40L51 40L51 39L52 39L52 38L51 38L51 39L50 39L50 37L51 37L51 35L50 35L50 34L51 34L51 33L53 33L53 34L52 34L52 36L55 36L55 35L54 35L54 34L55 34L55 33L54 33L54 32L55 32L55 31L56 31L56 32L57 32L57 31L56 31L56 30L57 30L57 29L56 29L56 26L57 26L57 25L56 25L56 22L57 22L57 21L53 21L53 22L55 22L55 23L51 23L51 22L52 22L52 21L51 21L51 22L50 22L50 19L52 19L52 20L55 20L55 18L57 18L57 17L55 17L55 18L53 18L53 19L52 19L52 18L50 18L50 17L51 17L51 16L52 16L52 15L51 15L51 14L52 14L52 13L51 13L51 14L50 14L50 11L51 11L51 10L52 10L52 8L51 8L51 10L49 10L49 9L50 9L50 8L49 8L49 6L48 6L48 8L49 8L49 9L47 9L47 11L48 11L48 12L49 12L49 13L47 13L47 14L46 14L46 12L45 12L45 11L46 11L46 10L45 10L45 9L46 9L46 8L45 8L45 6L46 6L46 7L47 7L47 5L48 5L48 0L46 0L46 1L45 1L45 0L44 0L44 1L43 1L43 0L42 0L42 1L41 1L41 2L39 2L39 1L38 1L38 0L37 0L37 1L36 1L36 0L35 0L35 1L33 1L33 0L30 0L30 1L29 1L29 2L27 2L27 1L28 1L28 0L27 0L27 1L26 1L26 0L24 0L24 1L23 1L23 0L21 0L21 1L19 1L19 2L16 2L16 0ZM21 1L21 2L20 2L20 3L19 3L19 4L21 4L21 7L22 7L22 6L23 6L23 8L22 8L22 9L20 9L20 8L19 8L19 7L20 7L20 5L19 5L19 7L18 7L18 6L17 6L17 7L16 7L16 9L15 9L15 12L17 12L17 13L16 13L16 14L17 14L17 15L16 15L16 16L17 16L17 17L15 17L15 16L14 16L14 17L13 17L13 14L14 14L14 15L15 15L15 13L12 13L12 12L14 12L14 11L13 11L13 10L12 10L12 9L11 9L11 8L9 8L9 9L11 9L11 10L12 10L12 11L11 11L11 13L12 13L12 15L11 15L11 14L10 14L10 13L9 13L9 12L10 12L10 10L7 10L7 9L6 9L6 10L4 10L4 12L3 12L3 15L2 15L2 16L7 16L7 15L8 15L8 17L9 17L9 18L8 18L8 19L6 19L6 18L7 18L7 17L6 17L6 18L4 18L4 17L3 17L3 19L2 19L2 21L3 21L3 22L4 22L4 19L5 19L5 20L8 20L8 21L5 21L5 23L6 23L6 24L7 24L7 23L6 23L6 22L8 22L8 23L9 23L9 24L10 24L10 25L8 25L8 26L9 26L9 27L10 27L10 28L11 28L11 29L9 29L9 30L13 30L13 32L12 32L12 31L4 31L4 32L7 32L7 33L6 33L6 34L7 34L7 33L8 33L8 34L9 34L9 35L10 35L10 34L11 34L11 35L12 35L12 33L13 33L13 32L14 32L14 35L16 35L16 36L15 36L15 37L16 37L16 38L15 38L15 39L14 39L14 41L11 41L11 43L12 43L12 47L11 47L11 48L12 48L12 47L13 47L13 45L14 45L14 44L15 44L15 45L16 45L16 47L17 47L17 48L19 48L19 49L15 49L15 47L14 47L14 49L13 49L13 50L14 50L14 49L15 49L15 50L16 50L16 51L17 51L17 52L16 52L16 53L15 53L15 54L16 54L16 53L18 53L18 51L17 51L17 50L19 50L19 49L20 49L20 50L21 50L21 49L22 49L22 50L23 50L23 49L24 49L24 48L23 48L23 47L24 47L24 46L23 46L23 45L25 45L25 47L26 47L26 46L27 46L27 47L30 47L30 48L32 48L32 49L33 49L33 50L31 50L31 52L32 52L32 51L33 51L33 50L40 50L40 51L36 51L36 52L40 52L40 51L41 51L41 50L42 50L42 49L41 49L41 48L42 48L42 47L43 47L43 48L44 48L44 47L45 47L45 46L42 46L42 45L43 45L43 44L44 44L44 45L45 45L45 43L46 43L46 42L47 42L47 43L48 43L48 42L47 42L47 41L48 41L48 40L47 40L47 39L49 39L49 38L48 38L48 36L47 36L47 35L45 35L45 34L47 34L47 33L48 33L48 35L49 35L49 37L50 37L50 35L49 35L49 34L50 34L50 33L51 33L51 32L49 32L49 31L48 31L48 28L47 28L47 27L46 27L46 26L48 26L48 25L49 25L49 26L52 26L52 25L53 25L53 27L55 27L55 26L56 26L56 25L55 25L55 24L51 24L51 23L50 23L50 22L48 22L48 21L49 21L49 19L48 19L48 18L47 18L47 17L49 17L49 16L50 16L50 15L46 15L46 16L43 16L43 17L44 17L44 19L45 19L45 20L43 20L43 18L42 18L42 17L41 17L41 16L40 16L40 15L38 15L38 18L36 18L36 17L35 17L35 16L37 16L37 14L39 14L39 13L40 13L40 14L42 14L42 15L43 15L43 14L42 14L42 11L43 11L43 10L42 10L42 8L43 8L43 7L44 7L44 6L45 6L45 5L44 5L44 4L46 4L46 5L47 5L47 3L43 3L43 5L42 5L42 4L41 4L41 3L40 3L40 4L39 4L39 2L38 2L38 1L37 1L37 2L36 2L36 1L35 1L35 2L34 2L34 3L32 3L32 4L31 4L31 9L32 9L32 10L34 10L34 12L37 12L37 11L39 11L39 12L38 12L38 13L33 13L33 11L32 11L32 15L33 15L33 16L30 16L30 15L31 15L31 14L30 14L30 15L28 15L28 16L27 16L27 15L26 15L26 14L28 14L28 13L31 13L31 12L30 12L30 10L29 10L29 9L28 9L28 10L29 10L29 12L28 12L28 13L25 13L25 12L27 12L27 11L26 11L26 10L27 10L27 9L25 9L25 12L23 12L23 13L22 13L22 12L21 12L21 11L22 11L22 9L24 9L24 6L23 6L23 5L24 5L24 4L23 4L23 3L26 3L26 4L25 4L25 8L26 8L26 4L29 4L29 3L30 3L30 2L33 2L33 1L30 1L30 2L29 2L29 3L27 3L27 2L23 2L23 1ZM42 1L42 2L43 2L43 1ZM44 1L44 2L45 2L45 1ZM46 1L46 2L47 2L47 1ZM21 2L21 4L22 4L22 5L23 5L23 4L22 4L22 2ZM36 3L36 5L35 5L35 6L34 6L34 5L33 5L33 6L32 6L32 8L33 8L33 9L36 9L36 10L35 10L35 11L37 11L37 10L38 10L38 8L34 8L34 7L35 7L35 6L36 6L36 7L37 7L37 6L38 6L38 7L39 7L39 8L40 8L40 7L41 7L41 6L42 6L42 7L43 7L43 6L42 6L42 5L41 5L41 6L40 6L40 7L39 7L39 5L37 5L37 4L38 4L38 3ZM14 4L14 5L16 5L16 4ZM27 5L27 8L30 8L30 5ZM36 5L36 6L37 6L37 5ZM9 6L9 7L10 7L10 6ZM28 6L28 7L29 7L29 6ZM33 6L33 7L34 7L34 6ZM17 7L17 9L19 9L19 10L18 10L18 11L17 11L17 10L16 10L16 11L17 11L17 12L18 12L18 13L17 13L17 14L18 14L18 15L20 15L20 16L22 16L22 13L21 13L21 12L19 12L19 10L20 10L20 11L21 11L21 10L20 10L20 9L19 9L19 8L18 8L18 7ZM44 8L44 9L45 9L45 8ZM53 8L53 9L54 9L54 8ZM55 8L55 9L56 9L56 10L55 10L55 11L54 11L54 10L53 10L53 11L52 11L52 12L53 12L53 11L54 11L54 12L55 12L55 13L54 13L54 14L55 14L55 15L54 15L54 16L53 16L53 17L54 17L54 16L57 16L57 15L56 15L56 14L57 14L57 12L55 12L55 11L56 11L56 10L57 10L57 9L56 9L56 8ZM2 9L2 10L1 10L1 11L2 11L2 10L3 10L3 9ZM39 9L39 11L40 11L40 12L41 12L41 11L42 11L42 10L41 10L41 9ZM6 10L6 11L7 11L7 10ZM23 10L23 11L24 11L24 10ZM40 10L40 11L41 11L41 10ZM44 10L44 11L45 11L45 10ZM8 11L8 12L9 12L9 11ZM4 12L4 13L5 13L5 15L7 15L7 14L6 14L6 13L7 13L7 12L6 12L6 13L5 13L5 12ZM43 12L43 13L44 13L44 15L45 15L45 12ZM1 13L1 14L2 14L2 13ZM19 13L19 14L20 14L20 15L21 15L21 13ZM23 13L23 14L25 14L25 13ZM55 13L55 14L56 14L56 13ZM9 14L9 17L10 17L10 18L9 18L9 20L11 20L11 18L12 18L12 19L13 19L13 20L12 20L12 22L11 22L11 23L10 23L10 24L11 24L11 23L13 23L13 24L12 24L12 26L13 26L13 27L14 27L14 29L18 29L18 30L17 30L17 31L18 31L18 33L19 33L19 34L18 34L18 35L20 35L20 33L19 33L19 31L18 31L18 30L19 30L19 29L22 29L22 28L21 28L21 27L22 27L22 25L21 25L21 26L20 26L20 24L19 24L19 23L20 23L20 22L18 22L18 21L20 21L20 20L21 20L21 21L22 21L22 22L24 22L24 21L25 21L25 22L26 22L26 23L25 23L25 24L24 24L24 23L23 23L23 26L25 26L25 27L24 27L24 28L25 28L25 27L26 27L26 30L25 30L25 29L23 29L23 30L21 30L21 31L22 31L22 32L23 32L23 34L22 34L22 33L21 33L21 35L23 35L23 37L22 37L22 36L21 36L21 37L19 37L19 36L18 36L18 37L17 37L17 38L18 38L18 39L17 39L17 40L16 40L16 39L15 39L15 40L16 40L16 41L14 41L14 43L15 43L15 44L16 44L16 45L17 45L17 46L18 46L18 47L19 47L19 48L20 48L20 47L19 47L19 45L21 45L21 47L22 47L22 45L23 45L23 44L25 44L25 45L26 45L26 44L28 44L28 45L27 45L27 46L28 46L28 45L29 45L29 44L30 44L30 45L32 45L32 46L30 46L30 47L32 47L32 48L34 48L34 47L35 47L35 46L36 46L36 47L37 47L37 48L35 48L35 49L38 49L38 47L40 47L40 48L39 48L39 49L40 49L40 50L41 50L41 49L40 49L40 48L41 48L41 47L42 47L42 46L41 46L41 47L40 47L40 46L36 46L36 45L37 45L37 44L38 44L38 43L39 43L39 44L40 44L40 43L39 43L39 42L38 42L38 41L37 41L37 40L36 40L36 41L35 41L35 40L33 40L33 39L31 39L31 38L32 38L32 35L31 35L31 34L34 34L34 35L33 35L33 37L35 37L35 38L34 38L34 39L37 39L37 38L38 38L38 39L39 39L39 40L40 40L40 39L39 39L39 38L40 38L40 36L42 36L42 34L43 34L43 37L41 37L41 38L43 38L43 37L44 37L44 38L45 38L45 37L44 37L44 32L45 32L45 33L47 33L47 32L48 32L48 31L47 31L47 30L46 30L46 29L47 29L47 28L46 28L46 27L45 27L45 30L44 30L44 28L43 28L43 27L44 27L44 26L45 26L45 25L48 25L48 24L47 24L47 23L46 23L46 22L45 22L45 21L44 21L44 23L45 23L45 25L44 25L44 24L43 24L43 23L41 23L41 24L42 24L42 25L39 25L39 24L40 24L40 22L39 22L39 23L37 23L37 22L38 22L38 21L37 21L37 20L38 20L38 19L39 19L39 18L40 18L40 16L39 16L39 18L38 18L38 19L37 19L37 20L36 20L36 21L37 21L37 22L36 22L36 24L35 24L35 26L32 26L32 25L31 25L31 24L33 24L33 25L34 25L34 24L33 24L33 21L32 21L32 20L34 20L34 19L35 19L35 18L34 18L34 17L29 17L29 16L28 16L28 17L27 17L27 16L25 16L25 15L23 15L23 16L24 16L24 17L23 17L23 18L24 18L24 19L23 19L23 20L24 20L24 21L22 21L22 20L21 20L21 19L22 19L22 17L21 17L21 18L20 18L20 17L19 17L19 16L18 16L18 17L19 17L19 18L16 18L16 19L15 19L15 21L16 21L16 22L14 22L14 21L13 21L13 20L14 20L14 19L13 19L13 17L10 17L10 14ZM33 14L33 15L35 15L35 14ZM14 17L14 18L15 18L15 17ZM25 17L25 18L27 18L27 19L26 19L26 20L27 20L27 22L28 22L28 23L27 23L27 24L25 24L25 26L26 26L26 25L27 25L27 26L28 26L28 25L29 25L29 24L28 24L28 23L29 23L29 22L30 22L30 23L31 23L31 22L30 22L30 21L29 21L29 19L31 19L31 18L29 18L29 19L28 19L28 18L27 18L27 17ZM45 17L45 18L46 18L46 20L47 20L47 18L46 18L46 17ZM19 18L19 19L20 19L20 18ZM32 18L32 19L34 19L34 18ZM41 18L41 19L40 19L40 20L39 20L39 21L40 21L40 20L41 20L41 22L43 22L43 20L41 20L41 19L42 19L42 18ZM16 19L16 21L18 21L18 20L17 20L17 19ZM27 19L27 20L28 20L28 19ZM56 19L56 20L57 20L57 19ZM9 21L9 22L10 22L10 21ZM13 22L13 23L14 23L14 24L13 24L13 25L14 25L14 24L15 24L15 26L16 26L16 27L15 27L15 28L18 28L18 29L19 29L19 28L20 28L20 26L18 26L18 25L17 25L17 24L16 24L16 23L14 23L14 22ZM49 23L49 25L50 25L50 23ZM27 24L27 25L28 25L28 24ZM10 25L10 26L11 26L11 25ZM36 25L36 26L35 26L35 27L37 27L37 26L39 26L39 27L38 27L38 30L36 30L36 29L33 29L33 28L34 28L34 27L32 27L32 29L31 29L31 30L35 30L35 31L34 31L34 32L31 32L31 31L28 31L28 32L30 32L30 33L34 33L34 34L35 34L35 37L36 37L36 38L37 38L37 37L38 37L38 38L39 38L39 37L38 37L38 36L40 36L40 35L41 35L41 34L42 34L42 33L43 33L43 32L44 32L44 30L42 30L42 29L43 29L43 28L42 28L42 27L41 27L41 26L39 26L39 25ZM43 25L43 26L44 26L44 25ZM54 25L54 26L55 26L55 25ZM17 26L17 27L18 27L18 26ZM0 27L0 30L1 30L1 28L2 28L2 27ZM5 27L5 30L8 30L8 27ZM27 27L27 30L30 30L30 27ZM49 27L49 30L52 30L52 27ZM6 28L6 29L7 29L7 28ZM12 28L12 29L13 29L13 28ZM28 28L28 29L29 29L29 28ZM50 28L50 29L51 29L51 28ZM54 28L54 29L53 29L53 31L52 31L52 32L54 32L54 29L55 29L55 28ZM40 29L40 30L41 30L41 31L39 31L39 32L41 32L41 33L42 33L42 32L43 32L43 31L42 31L42 30L41 30L41 29ZM14 30L14 32L16 32L16 33L17 33L17 32L16 32L16 31L15 31L15 30ZM23 30L23 31L25 31L25 32L26 32L26 33L25 33L25 34L24 34L24 36L25 36L25 40L24 40L24 39L23 39L23 38L24 38L24 37L23 37L23 38L22 38L22 37L21 37L21 39L23 39L23 40L19 40L19 41L16 41L16 42L17 42L17 43L16 43L16 44L17 44L17 45L18 45L18 44L17 44L17 43L18 43L18 42L19 42L19 43L20 43L20 44L21 44L21 45L22 45L22 44L21 44L21 43L22 43L22 41L25 41L25 42L24 42L24 43L25 43L25 44L26 44L26 43L27 43L27 42L28 42L28 43L30 43L30 44L32 44L32 45L33 45L33 46L35 46L35 43L37 43L37 42L35 42L35 41L33 41L33 40L31 40L31 39L29 39L29 36L30 36L30 38L31 38L31 36L30 36L30 34L29 34L29 33L27 33L27 31L25 31L25 30ZM45 30L45 31L46 31L46 32L47 32L47 31L46 31L46 30ZM35 31L35 32L36 32L36 33L35 33L35 34L36 34L36 35L40 35L40 34L37 34L37 32L38 32L38 31L37 31L37 32L36 32L36 31ZM56 33L56 34L57 34L57 33ZM25 34L25 35L26 35L26 36L27 36L27 35L26 35L26 34ZM56 35L56 37L55 37L55 38L54 38L54 37L53 37L53 38L54 38L54 39L53 39L53 40L52 40L52 41L53 41L53 40L55 40L55 39L57 39L57 35ZM5 36L5 37L4 37L4 38L5 38L5 40L4 40L4 39L3 39L3 40L4 40L4 41L5 41L5 40L6 40L6 41L7 41L7 40L6 40L6 39L8 39L8 38L9 38L9 40L10 40L10 38L9 38L9 37L7 37L7 36ZM36 36L36 37L37 37L37 36ZM6 37L6 38L7 38L7 37ZM18 37L18 38L19 38L19 39L20 39L20 38L19 38L19 37ZM26 37L26 39L27 39L27 40L28 40L28 39L27 39L27 38L28 38L28 37ZM12 39L12 40L13 40L13 39ZM45 39L45 41L47 41L47 40L46 40L46 39ZM29 40L29 42L30 42L30 43L32 43L32 44L34 44L34 43L32 43L32 42L33 42L33 41L31 41L31 40ZM42 40L42 41L41 41L41 42L43 42L43 43L41 43L41 44L43 44L43 43L45 43L45 42L43 42L43 41L44 41L44 40ZM19 41L19 42L20 42L20 43L21 43L21 42L20 42L20 41ZM26 41L26 42L27 42L27 41ZM2 44L2 46L1 46L1 47L2 47L2 46L3 46L3 47L5 47L5 46L4 46L4 45L3 45L3 44ZM6 44L6 45L8 45L8 44ZM10 44L10 46L11 46L11 44ZM54 44L54 45L55 45L55 44ZM52 45L52 46L53 46L53 45ZM52 47L52 48L53 48L53 47ZM25 48L25 50L26 50L26 48ZM27 49L27 52L30 52L30 49ZM49 49L49 52L52 52L52 49ZM28 50L28 51L29 51L29 50ZM50 50L50 51L51 51L51 50ZM12 51L12 52L15 52L15 51ZM25 51L25 53L26 53L26 51ZM56 51L56 52L57 52L57 51ZM37 53L37 54L39 54L39 53ZM43 53L43 54L42 54L42 55L43 55L43 56L44 56L44 55L45 55L45 54L44 54L44 53ZM15 55L15 56L16 56L16 55ZM0 0L0 7L7 7L7 0ZM1 1L1 6L6 6L6 1ZM2 2L2 5L5 5L5 2ZM50 0L50 7L57 7L57 0ZM51 1L51 6L56 6L56 1ZM52 2L52 5L55 5L55 2ZM0 50L0 57L7 57L7 50ZM1 51L1 56L6 56L6 51ZM2 52L2 55L5 55L5 52Z" fill="#000000"/></g></g></svg>
