<?xml version="1.0" encoding="UTF-8"?>
<svg xmlns="http://www.w3.org/2000/svg" version="1.1" width="300" height="300" viewBox="0 0 300 300"><rect x="0" y="0" width="300" height="300" fill="#ffffff"/><g transform="scale(4.918)"><g transform="translate(2,2)"><path fill-rule="evenodd" d="M9 0L9 1L8 1L8 2L10 2L10 3L8 3L8 4L9 4L9 5L8 5L8 7L9 7L9 5L10 5L10 4L11 4L11 3L13 3L13 4L12 4L12 5L11 5L11 6L10 6L10 7L11 7L11 6L12 6L12 7L13 7L13 6L12 6L12 5L16 5L16 4L14 4L14 3L17 3L17 4L19 4L19 5L18 5L18 7L17 7L17 6L16 6L16 7L15 7L15 6L14 6L14 7L15 7L15 8L16 8L16 7L17 7L17 9L19 9L19 10L18 10L18 11L17 11L17 10L13 10L13 9L14 9L14 8L11 8L11 10L9 10L9 9L10 9L10 8L6 8L6 9L7 9L7 10L5 10L5 8L0 8L0 13L1 13L1 12L2 12L2 14L0 14L0 21L2 21L2 20L1 20L1 19L3 19L3 15L4 15L4 13L5 13L5 16L4 16L4 18L6 18L6 19L4 19L4 20L3 20L3 22L4 22L4 23L2 23L2 22L0 22L0 27L1 27L1 28L0 28L0 29L1 29L1 31L4 31L4 33L3 33L3 32L2 32L2 33L1 33L1 34L0 34L0 35L1 35L1 40L0 40L0 42L1 42L1 40L3 40L3 39L4 39L4 38L5 38L5 37L7 37L7 36L8 36L8 38L6 38L6 39L7 39L7 40L4 40L4 41L7 41L7 40L8 40L8 44L5 44L5 43L7 43L7 42L4 42L4 43L3 43L3 44L2 44L2 43L1 43L1 44L0 44L0 45L1 45L1 46L0 46L0 48L5 48L5 47L7 47L7 46L6 46L6 45L8 45L8 48L6 48L6 49L8 49L8 51L9 51L9 52L8 52L8 57L9 57L9 55L10 55L10 56L11 56L11 55L13 55L13 57L15 57L15 56L14 56L14 53L16 53L16 54L15 54L15 55L16 55L16 56L17 56L17 57L22 57L22 56L23 56L23 57L26 57L26 56L28 56L28 55L25 55L25 56L24 56L24 55L23 55L23 54L24 54L24 53L26 53L26 54L27 54L27 53L28 53L28 54L30 54L30 53L31 53L31 56L30 56L30 55L29 55L29 56L30 56L30 57L31 57L31 56L33 56L33 55L34 55L34 56L35 56L35 57L37 57L37 56L38 56L38 55L37 55L37 54L38 54L38 52L39 52L39 55L40 55L40 56L39 56L39 57L40 57L40 56L41 56L41 57L44 57L44 55L42 55L42 54L43 54L43 53L44 53L44 54L45 54L45 55L46 55L46 54L45 54L45 53L44 53L44 50L43 50L43 49L44 49L44 48L45 48L45 49L46 49L46 48L47 48L47 46L46 46L46 45L47 45L47 44L51 44L51 43L50 43L50 42L51 42L51 41L49 41L49 40L48 40L48 41L47 41L47 42L46 42L46 43L45 43L45 41L46 41L46 40L47 40L47 39L46 39L46 38L45 38L45 37L44 37L44 34L46 34L46 35L45 35L45 36L46 36L46 37L47 37L47 36L48 36L48 35L49 35L49 37L48 37L48 39L50 39L50 38L51 38L51 39L52 39L52 38L51 38L51 37L54 37L54 36L55 36L55 38L54 38L54 40L52 40L52 41L54 41L54 43L53 43L53 44L52 44L52 45L48 45L48 46L51 46L51 47L49 47L49 48L48 48L48 51L47 51L47 50L45 50L45 52L48 52L48 53L50 53L50 55L51 55L51 56L50 56L50 57L52 57L52 56L55 56L55 57L56 57L56 56L55 56L55 53L54 53L54 52L55 52L55 51L56 51L56 52L57 52L57 51L56 51L56 50L57 50L57 49L56 49L56 50L55 50L55 49L54 49L54 48L57 48L57 47L56 47L56 46L57 46L57 45L56 45L56 44L57 44L57 43L56 43L56 42L57 42L57 41L56 41L56 42L55 42L55 41L54 41L54 40L55 40L55 39L57 39L57 37L56 37L56 36L55 36L55 35L56 35L56 34L57 34L57 32L56 32L56 30L57 30L57 28L56 28L56 30L55 30L55 29L54 29L54 28L55 28L55 27L53 27L53 25L54 25L54 26L57 26L57 25L55 25L55 24L57 24L57 23L56 23L56 22L57 22L57 21L56 21L56 20L57 20L57 19L56 19L56 18L57 18L57 17L56 17L56 16L57 16L57 15L56 15L56 14L57 14L57 12L56 12L56 10L55 10L55 11L54 11L54 10L53 10L53 11L52 11L52 12L53 12L53 11L54 11L54 12L56 12L56 14L55 14L55 13L53 13L53 15L52 15L52 16L53 16L53 18L54 18L54 16L55 16L55 17L56 17L56 18L55 18L55 19L51 19L51 20L55 20L55 22L54 22L54 21L51 21L51 22L50 22L50 19L48 19L48 21L47 21L47 23L46 23L46 22L45 22L45 21L44 21L44 23L43 23L43 20L46 20L46 19L47 19L47 18L50 18L50 17L51 17L51 18L52 18L52 17L51 17L51 16L46 16L46 17L47 17L47 18L45 18L45 17L44 17L44 16L45 16L45 15L49 15L49 13L50 13L50 11L51 11L51 10L52 10L52 8L51 8L51 10L49 10L49 9L50 9L50 8L49 8L49 6L48 6L48 7L47 7L47 5L48 5L48 0L45 0L45 1L47 1L47 2L44 2L44 0L42 0L42 1L41 1L41 0L40 0L40 1L38 1L38 0L37 0L37 1L36 1L36 0L35 0L35 1L34 1L34 0L33 0L33 1L34 1L34 2L35 2L35 1L36 1L36 2L37 2L37 1L38 1L38 2L39 2L39 3L38 3L38 4L37 4L37 3L36 3L36 5L35 5L35 6L34 6L34 5L33 5L33 6L32 6L32 7L33 7L33 8L34 8L34 9L33 9L33 10L32 10L32 9L31 9L31 4L32 4L32 3L33 3L33 2L32 2L32 1L31 1L31 0L30 0L30 1L29 1L29 0L28 0L28 1L29 1L29 2L28 2L28 3L27 3L27 4L26 4L26 3L23 3L23 4L19 4L19 3L21 3L21 2L26 2L26 0L24 0L24 1L23 1L23 0L21 0L21 2L19 2L19 1L18 1L18 2L17 2L17 1L16 1L16 0L14 0L14 1L15 1L15 2L14 2L14 3L13 3L13 2L10 2L10 0ZM11 0L11 1L13 1L13 0ZM30 1L30 2L29 2L29 3L28 3L28 4L30 4L30 3L31 3L31 1ZM40 1L40 2L41 2L41 1ZM42 1L42 2L43 2L43 1ZM18 2L18 3L19 3L19 2ZM40 3L40 5L41 5L41 4L42 4L42 3ZM43 3L43 7L44 7L44 6L45 6L45 8L42 8L42 9L45 9L45 10L44 10L44 11L45 11L45 12L44 12L44 13L43 13L43 14L42 14L42 11L41 11L41 12L40 12L40 11L39 11L39 12L38 12L38 14L37 14L37 13L33 13L33 12L32 12L32 13L33 13L33 14L32 14L32 15L31 15L31 16L30 16L30 14L31 14L31 10L28 10L28 9L25 9L25 8L26 8L26 4L25 4L25 8L24 8L24 6L23 6L23 7L22 7L22 5L21 5L21 7L22 7L22 8L19 8L19 9L20 9L20 10L19 10L19 12L21 12L21 13L19 13L19 15L18 15L18 14L17 14L17 13L18 13L18 12L17 12L17 11L15 11L15 12L17 12L17 13L16 13L16 15L15 15L15 13L12 13L12 12L14 12L14 11L13 11L13 10L11 10L11 11L12 11L12 12L11 12L11 13L10 13L10 11L9 11L9 13L8 13L8 10L7 10L7 11L6 11L6 12L5 12L5 11L4 11L4 10L3 10L3 9L2 9L2 10L1 10L1 11L3 11L3 13L4 13L4 12L5 12L5 13L6 13L6 14L7 14L7 13L8 13L8 15L6 15L6 16L5 16L5 17L6 17L6 18L7 18L7 19L6 19L6 20L7 20L7 21L5 21L5 22L8 22L8 24L9 24L9 25L6 25L6 24L7 24L7 23L5 23L5 24L4 24L4 25L3 25L3 26L2 26L2 23L1 23L1 26L2 26L2 30L3 30L3 28L4 28L4 27L3 27L3 26L9 26L9 27L10 27L10 28L11 28L11 27L10 27L10 26L11 26L11 25L10 25L10 23L11 23L11 24L12 24L12 25L13 25L13 26L12 26L12 28L13 28L13 29L12 29L12 30L11 30L11 29L9 29L9 32L10 32L10 31L12 31L12 33L8 33L8 34L7 34L7 33L6 33L6 32L7 32L7 31L5 31L5 33L4 33L4 37L3 37L3 38L4 38L4 37L5 37L5 33L6 33L6 34L7 34L7 35L6 35L6 36L7 36L7 35L8 35L8 36L10 36L10 37L9 37L9 38L8 38L8 39L9 39L9 40L10 40L10 41L9 41L9 42L11 42L11 40L10 40L10 37L11 37L11 38L13 38L13 39L12 39L12 40L14 40L14 41L15 41L15 42L13 42L13 41L12 41L12 42L13 42L13 43L14 43L14 44L12 44L12 45L13 45L13 46L12 46L12 47L15 47L15 48L13 48L13 49L14 49L14 51L16 51L16 53L17 53L17 54L20 54L20 55L19 55L19 56L21 56L21 55L22 55L22 53L24 53L24 51L25 51L25 52L26 52L26 49L25 49L25 50L23 50L23 49L24 49L24 47L25 47L25 48L26 48L26 46L29 46L29 45L30 45L30 46L32 46L32 47L30 47L30 48L32 48L32 50L31 50L31 52L32 52L32 54L35 54L35 55L36 55L36 54L37 54L37 53L36 53L36 52L37 52L37 51L38 51L38 50L39 50L39 49L41 49L41 50L40 50L40 51L39 51L39 52L40 52L40 55L41 55L41 54L42 54L42 53L41 53L41 52L40 52L40 51L41 51L41 50L42 50L42 51L43 51L43 50L42 50L42 49L43 49L43 48L44 48L44 47L45 47L45 44L44 44L44 41L45 41L45 40L44 40L44 41L43 41L43 40L40 40L40 39L41 39L41 37L42 37L42 36L43 36L43 34L44 34L44 33L45 33L45 32L44 32L44 30L45 30L45 31L46 31L46 32L47 32L47 33L46 33L46 34L47 34L47 33L48 33L48 34L49 34L49 35L51 35L51 36L50 36L50 37L49 37L49 38L50 38L50 37L51 37L51 36L52 36L52 34L54 34L54 33L55 33L55 34L56 34L56 32L54 32L54 29L53 29L53 31L51 31L51 32L50 32L50 31L48 31L48 29L46 29L46 30L45 30L45 28L44 28L44 27L46 27L46 28L47 28L47 27L46 27L46 26L48 26L48 25L50 25L50 26L52 26L52 25L53 25L53 24L52 24L52 23L54 23L54 22L52 22L52 23L51 23L51 24L50 24L50 22L49 22L49 23L48 23L48 25L46 25L46 26L45 26L45 24L46 24L46 23L44 23L44 26L42 26L42 27L41 27L41 28L39 28L39 26L41 26L41 24L42 24L42 22L40 22L40 24L39 24L39 25L38 25L38 28L37 28L37 26L35 26L35 24L34 24L34 25L33 25L33 24L32 24L32 25L31 25L31 28L32 28L32 29L33 29L33 30L31 30L31 31L30 31L30 32L29 32L29 31L28 31L28 32L29 32L29 33L27 33L27 31L26 31L26 32L25 32L25 34L24 34L24 36L25 36L25 38L26 38L26 39L25 39L25 44L24 44L24 42L23 42L23 45L22 45L22 44L21 44L21 43L22 43L22 42L21 42L21 41L24 41L24 39L22 39L22 37L23 37L23 38L24 38L24 37L23 37L23 36L22 36L22 35L23 35L23 32L24 32L24 31L25 31L25 30L26 30L26 27L25 27L25 26L26 26L26 25L29 25L29 26L30 26L30 24L25 24L25 23L26 23L26 22L25 22L25 21L24 21L24 20L23 20L23 19L24 19L24 18L23 18L23 17L24 17L24 15L25 15L25 16L27 16L27 17L26 17L26 18L25 18L25 20L27 20L27 21L29 21L29 22L28 22L28 23L29 23L29 22L30 22L30 23L31 23L31 22L30 22L30 21L31 21L31 20L29 20L29 19L31 19L31 18L32 18L32 19L33 19L33 20L32 20L32 21L33 21L33 20L34 20L34 19L33 19L33 18L35 18L35 21L34 21L34 22L33 22L33 23L34 23L34 22L35 22L35 23L36 23L36 22L37 22L37 23L38 23L38 22L39 22L39 21L38 21L38 20L40 20L40 21L41 21L41 20L40 20L40 19L41 19L41 18L42 18L42 19L45 19L45 18L42 18L42 17L43 17L43 16L44 16L44 15L45 15L45 12L46 12L46 14L47 14L47 13L49 13L49 11L48 11L48 9L49 9L49 8L48 8L48 9L46 9L46 8L47 8L47 7L46 7L46 5L47 5L47 3ZM23 4L23 5L24 5L24 4ZM38 4L38 5L36 5L36 6L35 6L35 9L34 9L34 10L33 10L33 11L34 11L34 12L37 12L37 11L38 11L38 10L40 10L40 9L41 9L41 8L40 8L40 6L39 6L39 4ZM44 4L44 5L46 5L46 4ZM19 5L19 7L20 7L20 5ZM27 5L27 8L30 8L30 5ZM28 6L28 7L29 7L29 6ZM33 6L33 7L34 7L34 6ZM36 6L36 7L37 7L37 6ZM38 6L38 7L39 7L39 6ZM41 6L41 7L42 7L42 6ZM36 8L36 9L37 9L37 10L36 10L36 11L37 11L37 10L38 10L38 8ZM39 8L39 9L40 9L40 8ZM53 8L53 9L54 9L54 8ZM55 8L55 9L56 9L56 8ZM22 9L22 11L21 11L21 12L22 12L22 13L21 13L21 14L20 14L20 15L19 15L19 16L17 16L17 15L16 15L16 17L14 17L14 15L13 15L13 14L12 14L12 13L11 13L11 14L10 14L10 18L11 18L11 21L9 21L9 20L10 20L10 19L9 19L9 18L8 18L8 19L7 19L7 20L8 20L8 21L9 21L9 23L10 23L10 22L11 22L11 23L12 23L12 24L13 24L13 23L16 23L16 24L15 24L15 25L16 25L16 24L17 24L17 25L18 25L18 26L17 26L17 27L18 27L18 26L19 26L19 27L22 27L22 26L23 26L23 28L24 28L24 26L25 26L25 25L21 25L21 24L19 24L19 23L20 23L20 22L19 22L19 23L17 23L17 22L18 22L18 21L20 21L20 20L18 20L18 19L19 19L19 18L18 18L18 19L17 19L17 18L16 18L16 17L19 17L19 16L20 16L20 17L21 17L21 18L20 18L20 19L21 19L21 18L22 18L22 17L21 17L21 16L22 16L22 13L24 13L24 14L23 14L23 15L24 15L24 14L25 14L25 13L28 13L28 14L27 14L27 16L28 16L28 17L27 17L27 18L28 18L28 19L27 19L27 20L28 20L28 19L29 19L29 18L31 18L31 17L32 17L32 16L33 16L33 17L36 17L36 18L37 18L37 20L36 20L36 21L37 21L37 22L38 22L38 21L37 21L37 20L38 20L38 19L39 19L39 18L41 18L41 17L42 17L42 16L43 16L43 15L44 15L44 14L43 14L43 15L42 15L42 14L41 14L41 15L39 15L39 16L41 16L41 17L39 17L39 18L37 18L37 17L38 17L38 16L34 16L34 15L35 15L35 14L33 14L33 15L32 15L32 16L31 16L31 17L29 17L29 16L28 16L28 15L29 15L29 14L30 14L30 13L28 13L28 12L30 12L30 11L28 11L28 10L26 10L26 11L27 11L27 12L25 12L25 11L23 11L23 10L25 10L25 9ZM34 10L34 11L35 11L35 10ZM45 10L45 11L46 11L46 10ZM6 12L6 13L7 13L7 12ZM24 12L24 13L25 13L25 12ZM39 13L39 14L40 14L40 13ZM51 13L51 14L50 14L50 15L51 15L51 14L52 14L52 13ZM36 14L36 15L37 15L37 14ZM11 15L11 16L13 16L13 15ZM20 15L20 16L21 16L21 15ZM53 15L53 16L54 16L54 15ZM6 16L6 17L7 17L7 16ZM8 16L8 17L9 17L9 16ZM1 17L1 18L2 18L2 17ZM11 17L11 18L12 18L12 17ZM13 18L13 19L12 19L12 21L14 21L14 22L16 22L16 21L18 21L18 20L17 20L17 19L16 19L16 21L15 21L15 18ZM8 19L8 20L9 20L9 19ZM13 19L13 20L14 20L14 19ZM55 19L55 20L56 20L56 19ZM21 21L21 22L24 22L24 21ZM22 23L22 24L24 24L24 23ZM51 24L51 25L52 25L52 24ZM9 25L9 26L10 26L10 25ZM19 25L19 26L21 26L21 25ZM32 25L32 26L33 26L33 27L32 27L32 28L33 28L33 29L37 29L37 28L36 28L36 27L34 27L34 26L33 26L33 25ZM13 26L13 27L16 27L16 26ZM5 27L5 30L8 30L8 27ZM27 27L27 30L30 30L30 27ZM33 27L33 28L34 28L34 27ZM42 27L42 28L43 28L43 29L42 29L42 30L41 30L41 29L39 29L39 30L37 30L37 31L38 31L38 32L41 32L41 34L43 34L43 33L44 33L44 32L43 32L43 31L42 31L42 30L44 30L44 28L43 28L43 27ZM49 27L49 30L52 30L52 27ZM6 28L6 29L7 29L7 28ZM14 28L14 30L15 30L15 31L13 31L13 33L14 33L14 32L15 32L15 34L14 34L14 36L13 36L13 34L12 34L12 37L14 37L14 36L17 36L17 37L19 37L19 38L18 38L18 39L19 39L19 40L17 40L17 42L16 42L16 43L17 43L17 44L14 44L14 46L16 46L16 45L17 45L17 46L18 46L18 47L17 47L17 48L15 48L15 49L17 49L17 50L16 50L16 51L17 51L17 53L20 53L20 52L21 52L21 53L22 53L22 52L23 52L23 51L22 51L22 49L21 49L21 50L20 50L20 49L19 49L19 47L20 47L20 48L23 48L23 47L22 47L22 45L21 45L21 44L20 44L20 41L21 41L21 37L22 37L22 36L21 36L21 35L22 35L22 33L21 33L21 32L20 32L20 33L21 33L21 34L20 34L20 35L19 35L19 34L18 34L18 35L19 35L19 36L17 36L17 35L16 35L16 33L19 33L19 31L18 31L18 32L16 32L16 31L17 31L17 30L16 30L16 29L18 29L18 30L20 30L20 29L22 29L22 28L20 28L20 29L18 29L18 28ZM28 28L28 29L29 29L29 28ZM50 28L50 29L51 29L51 28ZM23 29L23 31L24 31L24 30L25 30L25 29ZM21 30L21 31L22 31L22 30ZM33 30L33 31L32 31L32 32L30 32L30 33L29 33L29 34L30 34L30 35L29 35L29 39L31 39L31 38L32 38L32 35L31 35L31 34L32 34L32 32L33 32L33 31L35 31L35 32L36 32L36 33L37 33L37 32L36 32L36 31L35 31L35 30ZM39 30L39 31L41 31L41 30ZM46 30L46 31L47 31L47 32L48 32L48 31L47 31L47 30ZM51 32L51 33L50 33L50 34L51 34L51 33L54 33L54 32ZM33 33L33 34L34 34L34 35L33 35L33 36L34 36L34 37L35 37L35 38L33 38L33 39L32 39L32 40L34 40L34 39L36 39L36 40L35 40L35 41L36 41L36 42L34 42L34 41L33 41L33 42L32 42L32 41L31 41L31 40L29 40L29 41L30 41L30 43L28 43L28 42L27 42L27 41L26 41L26 42L27 42L27 43L26 43L26 44L25 44L25 45L23 45L23 46L25 46L25 45L26 45L26 44L27 44L27 45L29 45L29 44L30 44L30 45L32 45L32 44L34 44L34 43L37 43L37 44L35 44L35 46L33 46L33 47L32 47L32 48L34 48L34 49L33 49L33 50L32 50L32 52L34 52L34 53L35 53L35 54L36 54L36 53L35 53L35 52L36 52L36 51L37 51L37 50L38 50L38 49L39 49L39 48L41 48L41 49L42 49L42 48L43 48L43 47L42 47L42 46L44 46L44 44L43 44L43 43L42 43L42 42L43 42L43 41L40 41L40 40L39 40L39 42L38 42L38 40L37 40L37 38L38 38L38 37L40 37L40 36L42 36L42 35L40 35L40 36L36 36L36 37L35 37L35 36L34 36L34 35L35 35L35 34L34 34L34 33ZM2 34L2 36L3 36L3 34ZM25 34L25 35L26 35L26 36L27 36L27 35L26 35L26 34ZM36 34L36 35L39 35L39 34ZM46 35L46 36L47 36L47 35ZM19 36L19 37L21 37L21 36ZM30 36L30 38L31 38L31 36ZM15 37L15 38L14 38L14 39L15 39L15 40L16 40L16 39L15 39L15 38L16 38L16 37ZM26 37L26 38L28 38L28 37ZM43 37L43 39L45 39L45 38L44 38L44 37ZM19 38L19 39L20 39L20 38ZM39 38L39 39L40 39L40 38ZM26 39L26 40L28 40L28 39ZM17 42L17 43L18 43L18 42ZM33 42L33 43L34 43L34 42ZM37 42L37 43L38 43L38 44L39 44L39 45L38 45L38 46L37 46L37 45L36 45L36 46L35 46L35 47L34 47L34 48L39 48L39 45L40 45L40 47L41 47L41 48L42 48L42 47L41 47L41 46L42 46L42 45L43 45L43 44L41 44L41 42L40 42L40 43L38 43L38 42ZM47 42L47 43L49 43L49 42ZM9 43L9 44L8 44L8 45L9 45L9 46L10 46L10 45L9 45L9 44L10 44L10 43ZM30 43L30 44L31 44L31 43ZM3 44L3 45L2 45L2 46L1 46L1 47L2 47L2 46L3 46L3 47L5 47L5 44ZM17 44L17 45L18 45L18 44ZM54 44L54 45L52 45L52 47L51 47L51 48L54 48L54 46L56 46L56 45L55 45L55 44ZM3 45L3 46L4 46L4 45ZM19 45L19 46L20 46L20 47L21 47L21 45ZM10 47L10 48L8 48L8 49L9 49L9 51L11 51L11 52L10 52L10 53L11 53L11 52L12 52L12 53L13 53L13 52L12 52L12 49L11 49L11 50L10 50L10 48L11 48L11 47ZM28 47L28 48L29 48L29 47ZM18 49L18 50L19 50L19 49ZM27 49L27 52L30 52L30 49ZM34 49L34 50L33 50L33 51L34 51L34 50L35 50L35 51L36 51L36 50L37 50L37 49ZM49 49L49 52L52 52L52 49ZM28 50L28 51L29 51L29 50ZM50 50L50 51L51 51L51 50ZM53 50L53 51L54 51L54 50ZM53 53L53 54L51 54L51 55L54 55L54 53ZM47 54L47 55L48 55L48 56L49 56L49 54ZM45 56L45 57L46 57L46 56ZM0 0L0 7L7 7L7 0ZM1 1L1 6L6 6L6 1ZM2 2L2 5L5 5L5 2ZM50 0L50 7L57 7L57 0ZM51 1L51 6L56 6L56 1ZM52 2L52 5L55 5L55 2ZM0 50L0 57L7 57L7 50ZM1 51L1 56L6 56L6 51ZM2 52L2 55L5 55L5 52Z" fill="#000000"/></g></g></svg>
