<?xml version="1.0" encoding="UTF-8"?>
<svg xmlns="http://www.w3.org/2000/svg" version="1.1" width="300" height="300" viewBox="0 0 300 300"><rect x="0" y="0" width="300" height="300" fill="#ffffff"/><g transform="scale(4.918)"><g transform="translate(2,2)"><path fill-rule="evenodd" d="M11 0L11 1L8 1L8 2L9 2L9 3L8 3L8 4L9 4L9 5L8 5L8 7L9 7L9 6L10 6L10 8L6 8L6 9L5 9L5 8L0 8L0 9L2 9L2 11L1 11L1 10L0 10L0 11L1 11L1 12L0 12L0 14L1 14L1 13L3 13L3 14L4 14L4 13L5 13L5 14L6 14L6 15L4 15L4 16L5 16L5 17L3 17L3 18L2 18L2 19L0 19L0 22L1 22L1 23L0 23L0 27L1 27L1 26L2 26L2 25L1 25L1 24L3 24L3 26L4 26L4 27L2 27L2 28L1 28L1 29L0 29L0 31L1 31L1 29L3 29L3 30L2 30L2 32L3 32L3 33L1 33L1 36L0 36L0 37L3 37L3 36L2 36L2 34L5 34L5 35L4 35L4 41L5 41L5 35L7 35L7 36L6 36L6 37L7 37L7 38L6 38L6 39L7 39L7 40L6 40L6 41L7 41L7 42L6 42L6 43L7 43L7 44L5 44L5 45L4 45L4 44L3 44L3 43L1 43L1 44L0 44L0 45L2 45L2 47L1 47L1 46L0 46L0 48L5 48L5 47L7 47L7 48L6 48L6 49L8 49L8 51L9 51L9 50L10 50L10 52L8 52L8 57L9 57L9 53L11 53L11 55L10 55L10 56L11 56L11 57L13 57L13 55L14 55L14 54L15 54L15 55L16 55L16 56L15 56L15 57L19 57L19 55L20 55L20 54L18 54L18 53L20 53L20 52L23 52L23 51L22 51L22 49L21 49L21 50L20 50L20 49L19 49L19 47L20 47L20 45L21 45L21 48L23 48L23 47L22 47L22 45L24 45L24 46L25 46L25 45L26 45L26 44L28 44L28 45L27 45L27 46L26 46L26 48L25 48L25 47L24 47L24 49L23 49L23 50L25 50L25 51L24 51L24 53L21 53L21 56L20 56L20 57L21 57L21 56L23 56L23 57L24 57L24 55L22 55L22 54L24 54L24 53L25 53L25 56L28 56L28 55L27 55L27 53L28 53L28 54L30 54L30 53L31 53L31 56L30 56L30 55L29 55L29 56L30 56L30 57L32 57L32 55L33 55L33 54L34 54L34 55L38 55L38 53L37 53L37 51L38 51L38 52L39 52L39 55L40 55L40 56L41 56L41 57L42 57L42 56L41 56L41 55L40 55L40 52L41 52L41 51L40 51L40 50L36 50L36 52L34 52L34 51L35 51L35 50L33 50L33 51L32 51L32 52L31 52L31 50L32 50L32 49L31 49L31 48L33 48L33 49L35 49L35 48L36 48L36 49L38 49L38 48L36 48L36 47L39 47L39 48L41 48L41 50L43 50L43 48L45 48L45 50L46 50L46 51L45 51L45 52L48 52L48 53L47 53L47 55L46 55L46 54L45 54L45 53L44 53L44 51L42 51L42 52L43 52L43 53L41 53L41 54L42 54L42 55L43 55L43 56L45 56L45 57L46 57L46 56L49 56L49 53L50 53L50 55L51 55L51 56L50 56L50 57L52 57L52 56L55 56L55 57L56 57L56 56L55 56L55 54L53 54L53 53L54 53L54 52L55 52L55 50L57 50L57 49L54 49L54 48L57 48L57 47L56 47L56 46L57 46L57 44L56 44L56 43L55 43L55 41L54 41L54 40L55 40L55 39L57 39L57 37L56 37L56 34L57 34L57 32L56 32L56 30L57 30L57 27L56 27L56 26L55 26L55 25L56 25L56 22L57 22L57 21L54 21L54 22L53 22L53 21L51 21L51 22L50 22L50 19L49 19L49 18L50 18L50 17L51 17L51 16L53 16L53 18L52 18L52 19L51 19L51 20L56 20L56 19L53 19L53 18L54 18L54 16L55 16L55 18L57 18L57 17L56 17L56 16L57 16L57 15L56 15L56 14L57 14L57 12L55 12L55 11L56 11L56 10L57 10L57 9L56 9L56 8L55 8L55 11L54 11L54 10L53 10L53 9L54 9L54 8L53 8L53 9L52 9L52 8L51 8L51 10L50 10L50 8L49 8L49 6L48 6L48 7L47 7L47 5L48 5L48 0L45 0L45 1L47 1L47 2L42 2L42 1L44 1L44 0L42 0L42 1L41 1L41 2L40 2L40 1L37 1L37 0L36 0L36 1L34 1L34 0L33 0L33 1L32 1L32 0L27 0L27 1L26 1L26 0L24 0L24 1L23 1L23 0L21 0L21 1L23 1L23 2L22 2L22 3L21 3L21 2L19 2L19 1L16 1L16 0L14 0L14 1L15 1L15 2L14 2L14 3L12 3L12 4L13 4L13 5L10 5L10 4L11 4L11 3L10 3L10 2L11 2L11 1L12 1L12 0ZM29 1L29 2L32 2L32 1ZM33 1L33 3L32 3L32 4L31 4L31 3L27 3L27 2L23 2L23 3L22 3L22 4L21 4L21 3L19 3L19 4L18 4L18 2L17 2L17 3L14 3L14 4L16 4L16 5L15 5L15 7L16 7L16 8L17 8L17 7L18 7L18 5L19 5L19 7L20 7L20 5L19 5L19 4L21 4L21 5L22 5L22 4L23 4L23 5L24 5L24 4L23 4L23 3L26 3L26 4L25 4L25 8L24 8L24 6L23 6L23 7L22 7L22 6L21 6L21 7L22 7L22 8L19 8L19 9L16 9L16 11L15 11L15 12L16 12L16 11L18 11L18 10L19 10L19 9L20 9L20 10L21 10L21 11L22 11L22 10L23 10L23 11L24 11L24 13L22 13L22 12L21 12L21 13L19 13L19 15L18 15L18 14L17 14L17 13L18 13L18 12L17 12L17 13L16 13L16 15L14 15L14 14L15 14L15 13L13 13L13 12L14 12L14 11L13 11L13 12L12 12L12 13L11 13L11 14L12 14L12 17L11 17L11 18L10 18L10 17L6 17L6 18L7 18L7 19L6 19L6 20L7 20L7 21L6 21L6 22L7 22L7 21L10 21L10 22L8 22L8 23L6 23L6 24L5 24L5 22L4 22L4 23L3 23L3 22L2 22L2 20L3 20L3 19L4 19L4 18L3 18L3 19L2 19L2 20L1 20L1 22L2 22L2 23L3 23L3 24L5 24L5 25L6 25L6 26L7 26L7 25L6 25L6 24L8 24L8 23L11 23L11 25L10 25L10 24L9 24L9 25L8 25L8 26L9 26L9 29L11 29L11 28L12 28L12 29L13 29L13 31L14 31L14 32L12 32L12 31L11 31L11 30L9 30L9 31L11 31L11 32L10 32L10 33L11 33L11 35L12 35L12 33L13 33L13 35L14 35L14 36L12 36L12 37L13 37L13 39L14 39L14 40L10 40L10 39L9 39L9 40L10 40L10 43L9 43L9 41L8 41L8 42L7 42L7 43L8 43L8 46L9 46L9 47L8 47L8 49L9 49L9 48L10 48L10 50L12 50L12 51L13 51L13 52L12 52L12 53L13 53L13 54L12 54L12 55L13 55L13 54L14 54L14 51L16 51L16 53L15 53L15 54L16 54L16 53L18 53L18 52L17 52L17 51L18 51L18 50L19 50L19 49L18 49L18 50L17 50L17 49L15 49L15 48L17 48L17 47L18 47L18 46L17 46L17 45L18 45L18 44L17 44L17 43L18 43L18 42L19 42L19 41L20 41L20 42L21 42L21 43L19 43L19 45L20 45L20 44L21 44L21 45L22 45L22 44L21 44L21 43L22 43L22 42L21 42L21 41L23 41L23 42L24 42L24 41L25 41L25 44L24 44L24 45L25 45L25 44L26 44L26 43L28 43L28 42L31 42L31 43L29 43L29 44L32 44L32 46L31 46L31 45L30 45L30 46L31 46L31 47L29 47L29 45L28 45L28 46L27 46L27 47L28 47L28 48L31 48L31 47L32 47L32 46L36 46L36 44L38 44L38 45L37 45L37 46L39 46L39 47L40 47L40 45L41 45L41 46L42 46L42 47L41 47L41 48L43 48L43 46L42 46L42 45L45 45L45 44L40 44L40 43L39 43L39 42L41 42L41 43L43 43L43 42L42 42L42 41L41 41L41 40L42 40L42 39L44 39L44 43L45 43L45 42L47 42L47 43L49 43L49 42L47 42L47 41L48 41L48 40L49 40L49 41L51 41L51 42L50 42L50 43L51 43L51 44L49 44L49 46L47 46L47 45L48 45L48 44L47 44L47 45L46 45L46 46L47 46L47 47L46 47L46 48L47 48L47 49L46 49L46 50L47 50L47 51L48 51L48 48L49 48L49 47L52 47L52 48L54 48L54 46L56 46L56 44L54 44L54 45L51 45L51 44L53 44L53 43L54 43L54 41L52 41L52 40L50 40L50 39L52 39L52 38L53 38L53 39L55 39L55 36L54 36L54 38L53 38L53 37L50 37L50 36L49 36L49 37L50 37L50 39L47 39L47 37L48 37L48 36L47 36L47 35L46 35L46 36L45 36L45 34L47 34L47 33L48 33L48 35L51 35L51 36L52 36L52 34L54 34L54 33L55 33L55 34L56 34L56 32L54 32L54 31L55 31L55 30L56 30L56 28L54 28L54 29L53 29L53 30L54 30L54 31L52 31L52 32L54 32L54 33L51 33L51 32L49 32L49 31L48 31L48 29L46 29L46 30L44 30L44 29L45 29L45 28L44 28L44 29L43 29L43 28L42 28L42 27L44 27L44 26L45 26L45 27L46 27L46 28L48 28L48 25L49 25L49 26L51 26L51 25L53 25L53 27L55 27L55 26L54 26L54 25L55 25L55 24L51 24L51 23L50 23L50 22L49 22L49 23L48 23L48 25L46 25L46 23L47 23L47 21L48 21L48 18L47 18L47 16L49 16L49 17L50 17L50 16L49 16L49 15L50 15L50 14L51 14L51 15L53 15L53 16L54 16L54 14L56 14L56 13L55 13L55 12L54 12L54 11L53 11L53 10L52 10L52 11L50 11L50 10L48 10L48 9L49 9L49 8L48 8L48 9L47 9L47 8L46 8L46 5L47 5L47 3L42 3L42 2L41 2L41 3L40 3L40 5L41 5L41 8L38 8L38 6L39 6L39 7L40 7L40 6L39 6L39 3L38 3L38 2L34 2L34 1ZM33 3L33 4L34 4L34 3ZM36 3L36 5L35 5L35 6L34 6L34 7L33 7L33 6L32 6L32 8L33 8L33 9L34 9L34 8L35 8L35 9L37 9L37 12L36 12L36 11L35 11L35 12L34 12L34 11L33 11L33 10L32 10L32 9L31 9L31 4L26 4L26 8L25 8L25 9L23 9L23 10L25 10L25 9L28 9L28 10L26 10L26 11L27 11L27 12L25 12L25 13L24 13L24 14L23 14L23 16L24 16L24 17L23 17L23 18L22 18L22 17L21 17L21 16L22 16L22 13L21 13L21 16L20 16L20 17L21 17L21 18L20 18L20 19L23 19L23 20L24 20L24 21L22 21L22 20L21 20L21 21L22 21L22 22L21 22L21 23L22 23L22 22L24 22L24 21L25 21L25 22L26 22L26 23L25 23L25 24L29 24L29 26L27 26L27 25L26 25L26 26L25 26L25 25L23 25L23 26L24 26L24 27L23 27L23 29L24 29L24 31L23 31L23 37L19 37L19 36L22 36L22 33L21 33L21 32L20 32L20 31L22 31L22 30L20 30L20 31L18 31L18 32L16 32L16 31L17 31L17 30L16 30L16 29L18 29L18 30L19 30L19 29L22 29L22 28L20 28L20 27L22 27L22 25L21 25L21 24L20 24L20 25L19 25L19 23L20 23L20 22L19 22L19 23L17 23L17 22L18 22L18 21L20 21L20 20L19 20L19 18L18 18L18 19L17 19L17 18L16 18L16 17L19 17L19 16L17 16L17 15L16 15L16 17L14 17L14 15L13 15L13 17L14 17L14 18L15 18L15 21L16 21L16 22L15 22L15 23L16 23L16 24L17 24L17 25L18 25L18 26L17 26L17 27L18 27L18 26L20 26L20 27L19 27L19 29L18 29L18 28L14 28L14 27L15 27L15 24L14 24L14 23L13 23L13 22L14 22L14 21L11 21L11 20L10 20L10 21L11 21L11 22L12 22L12 23L13 23L13 24L12 24L12 25L11 25L11 27L10 27L10 28L11 28L11 27L12 27L12 28L14 28L14 29L15 29L15 30L14 30L14 31L15 31L15 33L14 33L14 34L15 34L15 36L14 36L14 37L15 37L15 38L14 38L14 39L15 39L15 40L14 40L14 41L11 41L11 42L12 42L12 43L13 43L13 42L14 42L14 44L13 44L13 45L14 45L14 44L15 44L15 46L16 46L16 47L17 47L17 46L16 46L16 45L17 45L17 44L15 44L15 43L17 43L17 42L15 42L15 40L16 40L16 39L15 39L15 38L16 38L16 37L15 37L15 36L17 36L17 37L19 37L19 38L18 38L18 39L19 39L19 40L17 40L17 41L19 41L19 40L23 40L23 41L24 41L24 40L25 40L25 39L27 39L27 40L28 40L28 41L31 41L31 42L32 42L32 41L31 41L31 40L33 40L33 39L31 39L31 38L32 38L32 35L33 35L33 36L35 36L35 34L34 34L34 33L37 33L37 34L36 34L36 35L37 35L37 34L38 34L38 36L36 36L36 38L35 38L35 39L36 39L36 40L35 40L35 41L36 41L36 42L34 42L34 43L32 43L32 44L34 44L34 43L35 43L35 44L36 44L36 43L37 43L37 42L38 42L38 40L37 40L37 39L39 39L39 40L41 40L41 39L42 39L42 38L43 38L43 37L44 37L44 38L45 38L45 39L46 39L46 38L45 38L45 37L44 37L44 35L42 35L42 34L44 34L44 33L42 33L42 34L41 34L41 33L40 33L40 32L41 32L41 31L42 31L42 32L45 32L45 33L46 33L46 32L48 32L48 31L47 31L47 30L46 30L46 31L42 31L42 30L43 30L43 29L42 29L42 30L41 30L41 29L39 29L39 30L36 30L36 29L37 29L37 28L38 28L38 27L39 27L39 28L40 28L40 27L39 27L39 26L41 26L41 27L42 27L42 26L44 26L44 24L45 24L45 23L46 23L46 22L45 22L45 21L44 21L44 24L43 24L43 23L41 23L41 25L39 25L39 26L38 26L38 24L40 24L40 22L43 22L43 21L40 21L40 20L46 20L46 19L47 19L47 18L46 18L46 16L45 16L45 15L49 15L49 13L50 13L50 11L48 11L48 10L46 10L46 8L45 8L45 6L44 6L44 7L43 7L43 4L41 4L41 5L42 5L42 7L43 7L43 8L42 8L42 9L39 9L39 10L38 10L38 8L37 8L37 6L38 6L38 3ZM17 4L17 5L18 5L18 4ZM44 4L44 5L46 5L46 4ZM27 5L27 8L30 8L30 5ZM36 5L36 6L35 6L35 7L36 7L36 6L37 6L37 5ZM11 6L11 8L10 8L10 10L8 10L8 9L6 9L6 10L7 10L7 11L6 11L6 12L5 12L5 11L4 11L4 10L3 10L3 11L4 11L4 12L3 12L3 13L4 13L4 12L5 12L5 13L6 13L6 14L7 14L7 13L6 13L6 12L8 12L8 13L9 13L9 12L8 12L8 11L10 11L10 10L11 10L11 9L12 9L12 10L13 10L13 9L12 9L12 6ZM13 6L13 7L14 7L14 6ZM16 6L16 7L17 7L17 6ZM28 6L28 7L29 7L29 6ZM14 8L14 9L15 9L15 8ZM44 8L44 10L43 10L43 11L44 11L44 10L45 10L45 8ZM21 9L21 10L22 10L22 9ZM28 10L28 11L29 11L29 12L28 12L28 13L25 13L25 14L24 14L24 15L25 15L25 14L26 14L26 16L25 16L25 17L26 17L26 20L25 20L25 21L28 21L28 23L29 23L29 24L30 24L30 23L31 23L31 22L29 22L29 21L31 21L31 20L29 20L29 19L31 19L31 18L32 18L32 19L33 19L33 20L32 20L32 21L34 21L34 22L33 22L33 24L31 24L31 25L32 25L32 26L35 26L35 27L36 27L36 28L35 28L35 29L33 29L33 28L34 28L34 27L33 27L33 28L31 28L31 30L32 30L32 29L33 29L33 30L35 30L35 29L36 29L36 28L37 28L37 27L38 27L38 26L37 26L37 25L35 25L35 24L38 24L38 23L36 23L36 22L39 22L39 20L40 20L40 19L44 19L44 18L45 18L45 19L46 19L46 18L45 18L45 16L44 16L44 15L45 15L45 14L44 14L44 13L45 13L45 12L46 12L46 14L47 14L47 13L49 13L49 12L47 12L47 11L45 11L45 12L43 12L43 14L42 14L42 11L41 11L41 10L40 10L40 11L41 11L41 12L38 12L38 14L37 14L37 15L36 15L36 16L35 16L35 15L33 15L33 14L36 14L36 12L35 12L35 13L33 13L33 11L32 11L32 13L31 13L31 12L30 12L30 11L31 11L31 10ZM52 11L52 12L53 12L53 11ZM12 13L12 14L13 14L13 13ZM28 13L28 14L27 14L27 16L26 16L26 17L27 17L27 18L28 18L28 19L29 19L29 18L31 18L31 17L29 17L29 16L28 16L28 15L30 15L30 16L33 16L33 15L30 15L30 14L31 14L31 13ZM40 13L40 14L39 14L39 15L38 15L38 16L36 16L36 17L35 17L35 18L33 18L33 17L32 17L32 18L33 18L33 19L39 19L39 18L43 18L43 17L44 17L44 16L41 16L41 15L42 15L42 14L41 14L41 13ZM51 13L51 14L52 14L52 13ZM0 15L0 16L1 16L1 15ZM6 15L6 16L8 16L8 15ZM9 15L9 16L11 16L11 15ZM27 16L27 17L28 17L28 16ZM38 16L38 17L37 17L37 18L39 18L39 17L41 17L41 16ZM0 17L0 18L1 18L1 17ZM8 18L8 19L9 19L9 18ZM11 18L11 19L12 19L12 20L14 20L14 19L13 19L13 18ZM23 18L23 19L24 19L24 18ZM16 19L16 21L18 21L18 20L17 20L17 19ZM4 20L4 21L5 21L5 20ZM36 20L36 21L38 21L38 20ZM34 22L34 23L35 23L35 22ZM52 22L52 23L53 23L53 22ZM23 23L23 24L24 24L24 23ZM13 24L13 25L12 25L12 27L13 27L13 26L14 26L14 24ZM50 24L50 25L51 25L51 24ZM20 25L20 26L21 26L21 25ZM36 26L36 27L37 27L37 26ZM5 27L5 30L8 30L8 27ZM25 27L25 28L24 28L24 29L25 29L25 30L26 30L26 27ZM27 27L27 30L30 30L30 27ZM49 27L49 30L52 30L52 27ZM6 28L6 29L7 29L7 28ZM28 28L28 29L29 29L29 28ZM50 28L50 29L51 29L51 28ZM54 29L54 30L55 30L55 29ZM39 30L39 31L33 31L33 32L32 32L32 31L31 31L31 32L30 32L30 33L31 33L31 32L32 32L32 34L31 34L31 35L32 35L32 34L33 34L33 35L34 35L34 34L33 34L33 32L37 32L37 33L38 33L38 34L39 34L39 36L38 36L38 37L37 37L37 38L40 38L40 39L41 39L41 36L42 36L42 37L43 37L43 36L42 36L42 35L41 35L41 34L39 34L39 33L38 33L38 32L40 32L40 31L41 31L41 30ZM3 31L3 32L4 32L4 31ZM5 31L5 33L6 33L6 34L8 34L8 37L9 37L9 34L8 34L8 33L9 33L9 32L8 32L8 31ZM25 31L25 32L26 32L26 33L25 33L25 34L24 34L24 36L25 36L25 34L27 34L27 35L26 35L26 37L25 37L25 38L26 38L26 37L28 37L28 38L27 38L27 39L28 39L28 40L31 40L31 39L29 39L29 36L30 36L30 38L31 38L31 36L30 36L30 34L29 34L29 33L27 33L27 32L29 32L29 31ZM6 32L6 33L7 33L7 32ZM19 32L19 33L16 33L16 35L20 35L20 34L21 34L21 33L20 33L20 32ZM50 33L50 34L51 34L51 33ZM40 35L40 36L39 36L39 37L40 37L40 36L41 36L41 35ZM10 36L10 38L11 38L11 39L12 39L12 38L11 38L11 36ZM46 36L46 37L47 37L47 36ZM23 37L23 38L24 38L24 37ZM1 38L1 39L0 39L0 40L3 40L3 39L2 39L2 38ZM7 38L7 39L8 39L8 38ZM19 38L19 39L20 39L20 38ZM21 38L21 39L22 39L22 38ZM23 39L23 40L24 40L24 39ZM46 40L46 41L47 41L47 40ZM26 41L26 42L27 42L27 41ZM56 41L56 42L57 42L57 41ZM4 42L4 43L5 43L5 42ZM3 45L3 47L5 47L5 46L7 46L7 45L5 45L5 46L4 46L4 45ZM9 45L9 46L10 46L10 45ZM11 45L11 47L10 47L10 48L11 48L11 49L12 49L12 50L13 50L13 49L14 49L14 50L15 50L15 49L14 49L14 48L15 48L15 47L14 47L14 46L13 46L13 47L12 47L12 45ZM44 46L44 47L45 47L45 46ZM13 47L13 48L14 48L14 47ZM33 47L33 48L35 48L35 47ZM25 49L25 50L26 50L26 49ZM27 49L27 52L30 52L30 49ZM49 49L49 52L52 52L52 49ZM16 50L16 51L17 51L17 50ZM28 50L28 51L29 51L29 50ZM50 50L50 51L51 51L51 50ZM53 50L53 51L54 51L54 50ZM25 51L25 53L26 53L26 51ZM39 51L39 52L40 52L40 51ZM56 51L56 52L57 52L57 51ZM32 52L32 54L33 54L33 53L34 53L34 54L36 54L36 53L34 53L34 52ZM43 53L43 55L45 55L45 54L44 54L44 53ZM17 54L17 55L18 55L18 54ZM51 54L51 55L53 55L53 54ZM34 56L34 57L37 57L37 56ZM38 56L38 57L39 57L39 56ZM0 0L0 7L7 7L7 0ZM1 1L1 6L6 6L6 1ZM2 2L2 5L5 5L5 2ZM50 0L50 7L57 7L57 0ZM51 1L51 6L56 6L56 1ZM52 2L52 5L55 5L55 2ZM0 50L0 57L7 57L7 50ZM1 51L1 56L6 56L6 51ZM2 52L2 55L5 55L5 52Z" fill="#000000"/></g></g></svg>
