<?xml version="1.0" encoding="UTF-8"?>
<svg xmlns="http://www.w3.org/2000/svg" version="1.1" width="300" height="300" viewBox="0 0 300 300"><rect x="0" y="0" width="300" height="300" fill="#ffffff"/><g transform="scale(4.918)"><g transform="translate(2,2)"><path fill-rule="evenodd" d="M12 0L12 1L13 1L13 2L12 2L12 3L11 3L11 2L10 2L10 3L11 3L11 5L10 5L10 4L9 4L9 3L8 3L8 4L9 4L9 5L8 5L8 7L9 7L9 5L10 5L10 8L11 8L11 9L9 9L9 8L6 8L6 9L9 9L9 10L10 10L10 11L8 11L8 10L6 10L6 11L7 11L7 12L6 12L6 13L8 13L8 14L5 14L5 13L3 13L3 14L4 14L4 15L1 15L1 17L0 17L0 20L1 20L1 17L2 17L2 20L3 20L3 19L4 19L4 20L5 20L5 21L0 21L0 22L2 22L2 23L1 23L1 26L2 26L2 23L3 23L3 22L4 22L4 26L3 26L3 27L4 27L4 30L3 30L3 33L2 33L2 32L1 32L1 30L0 30L0 32L1 32L1 33L2 33L2 34L1 34L1 35L3 35L3 36L2 36L2 38L1 38L1 37L0 37L0 38L1 38L1 39L0 39L0 40L1 40L1 39L2 39L2 38L6 38L6 39L7 39L7 40L5 40L5 41L4 41L4 42L3 42L3 41L2 41L2 42L0 42L0 45L1 45L1 46L0 46L0 48L5 48L5 47L7 47L7 48L6 48L6 49L8 49L8 51L9 51L9 50L10 50L10 52L11 52L11 53L12 53L12 51L13 51L13 52L14 52L14 53L13 53L13 54L12 54L12 55L13 55L13 54L14 54L14 53L15 53L15 54L16 54L16 53L15 53L15 52L16 52L16 51L17 51L17 53L19 53L19 54L18 54L18 56L17 56L17 57L19 57L19 56L20 56L20 57L22 57L22 56L23 56L23 57L26 57L26 56L28 56L28 55L27 55L27 53L28 53L28 54L29 54L29 55L30 55L30 56L31 56L31 57L32 57L32 55L33 55L33 54L32 54L32 52L34 52L34 53L35 53L35 54L34 54L34 55L35 55L35 56L34 56L34 57L35 57L35 56L36 56L36 57L38 57L38 56L41 56L41 57L44 57L44 56L45 56L45 55L43 55L43 56L41 56L41 55L42 55L42 54L43 54L43 53L44 53L44 54L45 54L45 53L44 53L44 51L42 51L42 50L43 50L43 49L44 49L44 50L45 50L45 51L47 51L47 52L48 52L48 53L47 53L47 55L48 55L48 56L50 56L50 57L52 57L52 56L54 56L54 57L56 57L56 56L55 56L55 55L54 55L54 54L55 54L55 53L54 53L54 54L53 54L53 52L55 52L55 51L54 51L54 50L55 50L55 49L54 49L54 48L55 48L55 45L54 45L54 44L55 44L55 42L57 42L57 41L55 41L55 39L57 39L57 37L55 37L55 39L54 39L54 37L53 37L53 36L55 36L55 34L57 34L57 32L55 32L55 29L54 29L54 28L57 28L57 27L56 27L56 26L55 26L55 25L54 25L54 26L55 26L55 27L53 27L53 26L49 26L49 25L48 25L48 24L50 24L50 23L52 23L52 24L51 24L51 25L52 25L52 24L53 24L53 23L52 23L52 22L50 22L50 16L55 16L55 15L56 15L56 16L57 16L57 15L56 15L56 14L57 14L57 13L56 13L56 8L55 8L55 11L54 11L54 10L53 10L53 11L52 11L52 10L50 10L50 8L49 8L49 9L47 9L47 10L46 10L46 11L47 11L47 10L48 10L48 11L49 11L49 12L50 12L50 11L52 11L52 12L53 12L53 11L54 11L54 12L55 12L55 13L54 13L54 14L55 14L55 15L51 15L51 14L52 14L52 13L51 13L51 14L50 14L50 13L47 13L47 14L46 14L46 12L45 12L45 14L44 14L44 12L43 12L43 11L44 11L44 10L45 10L45 9L46 9L46 8L45 8L45 6L46 6L46 7L47 7L47 5L48 5L48 0L46 0L46 1L45 1L45 2L44 2L44 0L42 0L42 1L41 1L41 0L39 0L39 1L38 1L38 0L37 0L37 1L36 1L36 0L35 0L35 1L33 1L33 0L29 0L29 1L31 1L31 2L28 2L28 1L25 1L25 0L24 0L24 1L23 1L23 0L21 0L21 2L22 2L22 3L21 3L21 4L22 4L22 5L24 5L24 4L25 4L25 6L24 6L24 7L23 7L23 6L22 6L22 7L21 7L21 6L20 6L20 5L19 5L19 6L18 6L18 7L17 7L17 5L18 5L18 4L20 4L20 3L19 3L19 2L20 2L20 0L17 0L17 1L16 1L16 2L15 2L15 4L14 4L14 5L13 5L13 3L14 3L14 1L15 1L15 0L14 0L14 1L13 1L13 0ZM8 1L8 2L9 2L9 1ZM22 1L22 2L23 2L23 3L22 3L22 4L24 4L24 2L25 2L25 1L24 1L24 2L23 2L23 1ZM32 1L32 2L33 2L33 1ZM37 1L37 2L34 2L34 3L32 3L32 4L31 4L31 7L32 7L32 9L31 9L31 10L29 10L29 9L28 9L28 10L29 10L29 12L28 12L28 13L26 13L26 14L25 14L25 15L24 15L24 13L25 13L25 12L27 12L27 11L26 11L26 10L27 10L27 9L26 9L26 6L25 6L25 7L24 7L24 9L25 9L25 11L24 11L24 10L22 10L22 11L21 11L21 12L22 12L22 13L19 13L19 12L20 12L20 11L19 11L19 9L15 9L15 8L16 8L16 6L15 6L15 5L16 5L16 4L18 4L18 3L17 3L17 2L16 2L16 4L15 4L15 5L14 5L14 6L13 6L13 7L14 7L14 6L15 6L15 8L14 8L14 10L13 10L13 9L11 9L11 10L13 10L13 11L10 11L10 12L9 12L9 13L10 13L10 12L12 12L12 13L11 13L11 15L10 15L10 14L9 14L9 15L6 15L6 16L7 16L7 17L6 17L6 18L7 18L7 19L5 19L5 20L7 20L7 19L10 19L10 21L9 21L9 20L8 20L8 21L9 21L9 22L8 22L8 23L6 23L6 24L7 24L7 25L6 25L6 26L8 26L8 24L10 24L10 23L11 23L11 22L12 22L12 21L13 21L13 23L12 23L12 24L11 24L11 25L10 25L10 26L9 26L9 28L10 28L10 29L9 29L9 30L10 30L10 29L12 29L12 28L11 28L11 26L12 26L12 27L13 27L13 28L14 28L14 27L18 27L18 25L17 25L17 21L18 21L18 24L19 24L19 25L20 25L20 27L19 27L19 28L21 28L21 29L19 29L19 31L18 31L18 30L17 30L17 29L18 29L18 28L17 28L17 29L16 29L16 28L15 28L15 29L14 29L14 31L12 31L12 30L11 30L11 31L8 31L8 32L9 32L9 33L8 33L8 34L7 34L7 33L5 33L5 31L4 31L4 33L5 33L5 34L7 34L7 35L6 35L6 36L5 36L5 35L4 35L4 37L6 37L6 38L7 38L7 39L8 39L8 37L11 37L11 40L10 40L10 42L9 42L9 44L8 44L8 46L7 46L7 45L6 45L6 44L7 44L7 43L6 43L6 42L7 42L7 41L5 41L5 44L4 44L4 46L3 46L3 45L2 45L2 44L3 44L3 43L1 43L1 45L2 45L2 46L1 46L1 47L2 47L2 46L3 46L3 47L5 47L5 46L7 46L7 47L8 47L8 48L9 48L9 49L10 49L10 50L11 50L11 49L12 49L12 47L13 47L13 45L15 45L15 46L14 46L14 48L13 48L13 50L14 50L14 48L15 48L15 46L18 46L18 47L16 47L16 48L17 48L17 49L15 49L15 50L17 50L17 51L18 51L18 50L19 50L19 49L20 49L20 50L21 50L21 49L22 49L22 52L20 52L20 51L19 51L19 53L23 53L23 54L24 54L24 53L23 53L23 52L24 52L24 51L25 51L25 52L26 52L26 49L25 49L25 50L24 50L24 51L23 51L23 49L24 49L24 48L22 48L22 46L23 46L23 47L24 47L24 45L25 45L25 48L26 48L26 46L27 46L27 45L28 45L28 46L30 46L30 45L28 45L28 44L27 44L27 43L26 43L26 42L30 42L30 40L31 40L31 39L33 39L33 40L32 40L32 41L31 41L31 43L29 43L29 44L31 44L31 43L32 43L32 41L33 41L33 40L34 40L34 42L33 42L33 43L34 43L34 44L32 44L32 45L31 45L31 47L32 47L32 46L35 46L35 47L34 47L34 48L37 48L37 47L36 47L36 45L35 45L35 43L36 43L36 42L41 42L41 41L42 41L42 40L40 40L40 41L39 41L39 40L38 40L38 38L39 38L39 39L41 39L41 37L43 37L43 38L42 38L42 39L43 39L43 40L44 40L44 42L42 42L42 43L43 43L43 44L38 44L38 43L37 43L37 46L40 46L40 47L41 47L41 48L39 48L39 47L38 47L38 49L37 49L37 50L36 50L36 49L33 49L33 48L31 48L31 49L32 49L32 50L31 50L31 52L32 52L32 51L33 51L33 50L35 50L35 51L34 51L34 52L36 52L36 51L37 51L37 50L39 50L39 52L37 52L37 53L36 53L36 54L35 54L35 55L36 55L36 56L38 56L38 55L36 55L36 54L39 54L39 52L40 52L40 55L41 55L41 54L42 54L42 53L41 53L41 52L40 52L40 51L41 51L41 50L42 50L42 49L41 49L41 48L44 48L44 49L45 49L45 50L47 50L47 51L48 51L48 48L49 48L49 47L51 47L51 48L54 48L54 46L53 46L53 45L52 45L52 43L51 43L51 42L53 42L53 43L54 43L54 40L53 40L53 41L51 41L51 40L50 40L50 39L53 39L53 37L52 37L52 34L55 34L55 32L53 32L53 31L54 31L54 30L53 30L53 31L51 31L51 32L50 32L50 35L51 35L51 36L50 36L50 37L49 37L49 38L50 38L50 39L49 39L49 40L47 40L47 39L48 39L48 38L47 38L47 37L48 37L48 36L46 36L46 34L47 34L47 33L48 33L48 35L49 35L49 31L48 31L48 25L47 25L47 24L48 24L48 23L50 23L50 22L48 22L48 21L49 21L49 20L48 20L48 21L45 21L45 20L43 20L43 19L44 19L44 18L45 18L45 19L46 19L46 20L47 20L47 19L48 19L48 18L47 18L47 17L48 17L48 16L49 16L49 15L46 15L46 16L47 16L47 17L46 17L46 18L45 18L45 16L44 16L44 14L42 14L42 11L43 11L43 10L44 10L44 9L45 9L45 8L44 8L44 9L43 9L43 8L40 8L40 6L41 6L41 7L42 7L42 6L43 6L43 7L44 7L44 6L45 6L45 5L47 5L47 3L46 3L46 4L45 4L45 3L42 3L42 4L43 4L43 5L42 5L42 6L41 6L41 3L40 3L40 6L39 6L39 4L38 4L38 3L39 3L39 2L38 2L38 1ZM40 1L40 2L41 2L41 1ZM42 1L42 2L43 2L43 1ZM46 1L46 2L47 2L47 1ZM37 2L37 3L36 3L36 5L35 5L35 6L34 6L34 5L33 5L33 6L32 6L32 7L33 7L33 8L34 8L34 9L36 9L36 10L37 10L37 11L36 11L36 12L34 12L34 11L35 11L35 10L34 10L34 11L32 11L32 10L31 10L31 11L30 11L30 12L29 12L29 13L28 13L28 14L27 14L27 16L23 16L23 19L22 19L22 17L21 17L21 19L19 19L19 18L20 18L20 17L19 17L19 13L18 13L18 12L16 12L16 11L15 11L15 13L18 13L18 14L16 14L16 15L18 15L18 17L19 17L19 18L18 18L18 21L19 21L19 22L20 22L20 23L19 23L19 24L20 24L20 25L21 25L21 26L22 26L22 27L21 27L21 28L22 28L22 29L21 29L21 31L20 31L20 32L21 32L21 31L22 31L22 32L24 32L24 33L23 33L23 36L24 36L24 37L22 37L22 35L21 35L21 37L22 37L22 38L21 38L21 39L23 39L23 40L24 40L24 39L23 39L23 38L24 38L24 37L25 37L25 36L26 36L26 37L27 37L27 35L26 35L26 34L27 34L27 33L29 33L29 34L30 34L30 35L29 35L29 36L28 36L28 37L29 37L29 38L27 38L27 40L26 40L26 38L25 38L25 41L23 41L23 43L24 43L24 44L23 44L23 45L24 45L24 44L25 44L25 45L26 45L26 44L25 44L25 42L26 42L26 41L27 41L27 40L28 40L28 41L29 41L29 40L28 40L28 39L31 39L31 38L32 38L32 35L31 35L31 33L32 33L32 34L34 34L34 35L35 35L35 34L36 34L36 35L37 35L37 36L36 36L36 37L35 37L35 36L34 36L34 37L35 37L35 38L34 38L34 40L35 40L35 41L38 41L38 40L36 40L36 39L37 39L37 38L38 38L38 37L39 37L39 38L40 38L40 36L41 36L41 35L42 35L42 36L43 36L43 37L44 37L44 38L45 38L45 39L46 39L46 38L45 38L45 37L44 37L44 35L42 35L42 34L46 34L46 33L43 33L43 32L45 32L45 31L42 31L42 30L46 30L46 31L47 31L47 32L48 32L48 31L47 31L47 30L46 30L46 29L47 29L47 28L46 28L46 27L47 27L47 26L45 26L45 25L46 25L46 24L45 24L45 25L44 25L44 24L43 24L43 25L42 25L42 22L43 22L43 20L41 20L41 19L42 19L42 18L43 18L43 17L44 17L44 16L43 16L43 15L42 15L42 14L41 14L41 13L39 13L39 14L41 14L41 15L40 15L40 16L38 16L38 15L37 15L37 16L36 16L36 15L35 15L35 14L33 14L33 15L30 15L30 14L32 14L32 12L33 12L33 13L37 13L37 14L38 14L38 12L39 12L39 11L41 11L41 10L43 10L43 9L41 9L41 10L40 10L40 8L39 8L39 10L37 10L37 9L38 9L38 7L39 7L39 6L38 6L38 7L37 7L37 6L36 6L36 5L38 5L38 4L37 4L37 3L38 3L38 2ZM25 3L25 4L26 4L26 3ZM27 3L27 4L30 4L30 3ZM44 4L44 5L45 5L45 4ZM11 5L11 7L12 7L12 5ZM27 5L27 8L30 8L30 5ZM19 6L19 8L21 8L21 9L20 9L20 10L21 10L21 9L23 9L23 7L22 7L22 8L21 8L21 7L20 7L20 6ZM28 6L28 7L29 7L29 6ZM33 6L33 7L34 7L34 6ZM35 6L35 8L36 8L36 6ZM48 6L48 7L49 7L49 6ZM0 8L0 9L3 9L3 10L4 10L4 11L3 11L3 12L4 12L4 11L5 11L5 10L4 10L4 9L5 9L5 8ZM51 8L51 9L52 9L52 8ZM53 8L53 9L54 9L54 8ZM0 10L0 12L1 12L1 13L0 13L0 14L2 14L2 11L1 11L1 10ZM17 10L17 11L18 11L18 10ZM49 10L49 11L50 11L50 10ZM13 11L13 12L14 12L14 11ZM23 11L23 13L24 13L24 11ZM31 11L31 12L32 12L32 11ZM12 13L12 15L11 15L11 16L13 16L13 17L14 17L14 18L13 18L13 19L14 19L14 20L13 20L13 21L15 21L15 22L16 22L16 21L15 21L15 20L16 20L16 19L15 19L15 17L14 17L14 16L15 16L15 15L14 15L14 13ZM29 13L29 14L30 14L30 13ZM21 14L21 15L20 15L20 16L22 16L22 14ZM28 15L28 17L26 17L26 18L25 18L25 19L26 19L26 21L25 21L25 22L26 22L26 23L25 23L25 24L26 24L26 25L25 25L25 26L26 26L26 25L27 25L27 26L28 26L28 25L29 25L29 24L31 24L31 26L32 26L32 27L33 27L33 28L31 28L31 32L30 32L30 31L25 31L25 34L24 34L24 36L25 36L25 34L26 34L26 33L27 33L27 32L30 32L30 33L31 33L31 32L32 32L32 33L33 33L33 32L34 32L34 34L35 34L35 33L36 33L36 34L39 34L39 35L38 35L38 36L40 36L40 35L41 35L41 34L42 34L42 33L41 33L41 32L42 32L42 31L41 31L41 32L40 32L40 29L41 29L41 30L42 30L42 29L43 29L43 28L44 28L44 29L45 29L45 27L44 27L44 25L43 25L43 26L41 26L41 27L38 27L38 26L40 26L40 25L41 25L41 22L42 22L42 21L41 21L41 20L40 20L40 19L41 19L41 18L42 18L42 17L41 17L41 16L42 16L42 15L41 15L41 16L40 16L40 17L41 17L41 18L40 18L40 19L39 19L39 20L38 20L38 19L37 19L37 18L39 18L39 17L38 17L38 16L37 16L37 18L35 18L35 17L36 17L36 16L35 16L35 15L33 15L33 16L30 16L30 15ZM4 16L4 17L3 17L3 18L5 18L5 16ZM8 16L8 17L7 17L7 18L8 18L8 17L9 17L9 16ZM16 16L16 17L17 17L17 16ZM33 16L33 17L34 17L34 16ZM11 17L11 18L10 18L10 19L11 19L11 20L12 20L12 17ZM29 17L29 18L28 18L28 19L27 19L27 20L30 20L30 22L29 22L29 21L28 21L28 22L27 22L27 23L28 23L28 24L27 24L27 25L28 25L28 24L29 24L29 23L30 23L30 22L31 22L31 24L33 24L33 25L32 25L32 26L33 26L33 27L34 27L34 28L33 28L33 29L32 29L32 32L33 32L33 31L35 31L35 32L36 32L36 33L37 33L37 32L36 32L36 31L35 31L35 30L33 30L33 29L38 29L38 27L37 27L37 26L38 26L38 25L37 25L37 24L36 24L36 23L37 23L37 22L38 22L38 20L36 20L36 21L37 21L37 22L36 22L36 23L35 23L35 22L34 22L34 21L32 21L32 20L33 20L33 19L35 19L35 18L33 18L33 19L32 19L32 17ZM52 17L52 18L51 18L51 19L52 19L52 20L55 20L55 19L54 19L54 18L55 18L55 17L54 17L54 18L53 18L53 17ZM56 17L56 18L57 18L57 17ZM29 18L29 19L31 19L31 18ZM46 18L46 19L47 19L47 18ZM52 18L52 19L53 19L53 18ZM56 19L56 21L55 21L55 22L54 22L54 21L53 21L53 22L54 22L54 24L55 24L55 23L56 23L56 22L57 22L57 19ZM19 20L19 21L23 21L23 22L24 22L24 21L23 21L23 20ZM39 20L39 24L40 24L40 22L41 22L41 21L40 21L40 20ZM6 21L6 22L7 22L7 21ZM44 21L44 23L46 23L46 22L45 22L45 21ZM28 22L28 23L29 23L29 22ZM33 22L33 23L34 23L34 22ZM13 23L13 24L12 24L12 26L14 26L14 24L15 24L15 25L16 25L16 23ZM21 23L21 25L24 25L24 23L23 23L23 24L22 24L22 23ZM56 24L56 25L57 25L57 24ZM33 25L33 26L34 26L34 27L36 27L36 28L37 28L37 27L36 27L36 25ZM0 27L0 28L1 28L1 29L3 29L3 28L2 28L2 27ZM5 27L5 30L8 30L8 27ZM23 27L23 28L24 28L24 29L22 29L22 31L23 31L23 30L24 30L24 29L25 29L25 30L26 30L26 27ZM27 27L27 30L30 30L30 27ZM42 27L42 28L43 28L43 27ZM49 27L49 30L52 30L52 27ZM6 28L6 29L7 29L7 28ZM28 28L28 29L29 29L29 28ZM50 28L50 29L51 29L51 28ZM15 29L15 30L16 30L16 29ZM56 29L56 30L57 30L57 29ZM37 30L37 31L39 31L39 30ZM6 31L6 32L7 32L7 31ZM11 31L11 32L12 32L12 33L13 33L13 34L12 34L12 35L11 35L11 33L10 33L10 34L9 34L9 36L12 36L12 35L14 35L14 33L13 33L13 32L12 32L12 31ZM15 31L15 33L17 33L17 32L16 32L16 31ZM18 32L18 33L19 33L19 34L17 34L17 35L16 35L16 34L15 34L15 36L13 36L13 38L14 38L14 39L12 39L12 40L11 40L11 43L10 43L10 45L9 45L9 47L11 47L11 46L12 46L12 45L13 45L13 44L15 44L15 45L18 45L18 46L19 46L19 47L18 47L18 49L19 49L19 48L20 48L20 46L19 46L19 45L22 45L22 44L21 44L21 43L22 43L22 41L21 41L21 42L20 42L20 41L19 41L19 39L20 39L20 38L18 38L18 39L17 39L17 37L20 37L20 33L19 33L19 32ZM39 32L39 33L40 33L40 32ZM51 32L51 33L53 33L53 32ZM21 33L21 34L22 34L22 33ZM17 35L17 36L16 36L16 37L15 37L15 38L16 38L16 37L17 37L17 36L18 36L18 35ZM30 35L30 38L31 38L31 35ZM56 35L56 36L57 36L57 35ZM6 36L6 37L7 37L7 36ZM9 38L9 39L10 39L10 38ZM35 38L35 39L36 39L36 38ZM15 39L15 40L16 40L16 39ZM8 40L8 41L9 41L9 40ZM13 40L13 41L14 41L14 40ZM15 41L15 43L16 43L16 44L18 44L18 45L19 45L19 44L20 44L20 43L19 43L19 41L18 41L18 43L17 43L17 41ZM49 41L49 43L45 43L45 47L44 47L44 48L45 48L45 49L46 49L46 48L45 48L45 47L47 47L47 46L46 46L46 45L47 45L47 44L50 44L50 45L48 45L48 46L50 46L50 45L51 45L51 47L52 47L52 45L51 45L51 43L50 43L50 42L51 42L51 41ZM13 42L13 43L12 43L12 44L13 44L13 43L14 43L14 42ZM34 42L34 43L35 43L35 42ZM43 44L43 45L42 45L42 46L41 46L41 45L40 45L40 46L41 46L41 47L42 47L42 46L44 46L44 44ZM56 44L56 46L57 46L57 44ZM10 45L10 46L11 46L11 45ZM28 47L28 48L30 48L30 47ZM56 47L56 48L57 48L57 47ZM27 49L27 52L30 52L30 49ZM39 49L39 50L41 50L41 49ZM49 49L49 52L52 52L52 49ZM56 49L56 50L57 50L57 49ZM28 50L28 51L29 51L29 50ZM50 50L50 51L51 51L51 50ZM8 52L8 57L9 57L9 55L10 55L10 53L9 53L9 52ZM56 52L56 53L57 53L57 52ZM25 53L25 54L26 54L26 53ZM30 53L30 54L31 54L31 53ZM48 53L48 54L49 54L49 55L50 55L50 56L51 56L51 55L53 55L53 54L51 54L51 53ZM19 54L19 55L20 55L20 54ZM21 54L21 56L22 56L22 54ZM50 54L50 55L51 55L51 54ZM15 55L15 57L16 57L16 55ZM23 55L23 56L24 56L24 55ZM10 56L10 57L11 57L11 56ZM12 56L12 57L13 57L13 56ZM46 56L46 57L47 57L47 56ZM0 0L0 7L7 7L7 0ZM1 1L1 6L6 6L6 1ZM2 2L2 5L5 5L5 2ZM50 0L50 7L57 7L57 0ZM51 1L51 6L56 6L56 1ZM52 2L52 5L55 5L55 2ZM0 50L0 57L7 57L7 50ZM1 51L1 56L6 56L6 51ZM2 52L2 55L5 55L5 52Z" fill="#000000"/></g></g></svg>
