<?xml version="1.0" encoding="UTF-8"?>
<svg xmlns="http://www.w3.org/2000/svg" version="1.1" width="300" height="300" viewBox="0 0 300 300"><rect x="0" y="0" width="300" height="300" fill="#ffffff"/><g transform="scale(4.918)"><g transform="translate(2,2)"><path fill-rule="evenodd" d="M8 0L8 1L9 1L9 2L8 2L8 5L10 5L10 4L11 4L11 6L10 6L10 7L11 7L11 6L12 6L12 8L13 8L13 10L14 10L14 11L15 11L15 9L14 9L14 7L15 7L15 8L17 8L17 10L16 10L16 13L13 13L13 11L12 11L12 12L11 12L11 13L12 13L12 14L9 14L9 12L10 12L10 11L9 11L9 10L10 10L10 9L11 9L11 10L12 10L12 9L11 9L11 8L8 8L8 12L5 12L5 10L6 10L6 11L7 11L7 10L6 10L6 9L7 9L7 8L6 8L6 9L4 9L4 8L0 8L0 9L4 9L4 10L3 10L3 11L1 11L1 10L0 10L0 11L1 11L1 14L3 14L3 15L4 15L4 16L2 16L2 17L3 17L3 18L0 18L0 21L1 21L1 22L0 22L0 23L2 23L2 26L0 26L0 27L1 27L1 28L0 28L0 29L2 29L2 26L3 26L3 30L2 30L2 31L1 31L1 32L0 32L0 34L2 34L2 38L0 38L0 39L2 39L2 38L4 38L4 39L3 39L3 40L5 40L5 39L7 39L7 40L6 40L6 41L5 41L5 43L7 43L7 44L6 44L6 45L8 45L8 46L9 46L9 45L8 45L8 43L7 43L7 42L8 42L8 41L7 41L7 40L8 40L8 39L9 39L9 37L10 37L10 38L11 38L11 39L12 39L12 37L13 37L13 35L14 35L14 34L13 34L13 35L12 35L12 34L11 34L11 33L10 33L10 35L9 35L9 36L8 36L8 37L7 37L7 36L5 36L5 33L7 33L7 34L6 34L6 35L8 35L8 34L9 34L9 33L8 33L8 32L9 32L9 26L10 26L10 23L11 23L11 28L12 28L12 29L11 29L11 31L10 31L10 32L11 32L11 31L13 31L13 32L12 32L12 33L13 33L13 32L14 32L14 33L15 33L15 34L16 34L16 36L14 36L14 37L15 37L15 38L13 38L13 40L12 40L12 41L13 41L13 40L14 40L14 41L15 41L15 42L17 42L17 45L18 45L18 46L16 46L16 45L15 45L15 44L14 44L14 43L12 43L12 45L11 45L11 40L9 40L9 43L10 43L10 46L11 46L11 48L10 48L10 49L8 49L8 50L10 50L10 49L11 49L11 50L14 50L14 52L13 52L13 51L10 51L10 52L9 52L9 53L8 53L8 57L9 57L9 55L10 55L10 57L11 57L11 56L12 56L12 57L14 57L14 56L12 56L12 55L11 55L11 54L10 54L10 53L14 53L14 52L15 52L15 53L16 53L16 54L17 54L17 53L18 53L18 54L19 54L19 53L18 53L18 51L17 51L17 50L19 50L19 47L18 47L18 46L19 46L19 44L20 44L20 45L21 45L21 44L22 44L22 45L24 45L24 46L23 46L23 47L22 47L22 46L21 46L21 48L20 48L20 51L23 51L23 50L22 50L22 49L21 49L21 48L23 48L23 49L25 49L25 50L24 50L24 52L25 52L25 54L23 54L23 56L22 56L22 53L21 53L21 52L20 52L20 55L19 55L19 56L20 56L20 57L23 57L23 56L24 56L24 55L25 55L25 56L26 56L26 54L28 54L28 53L33 53L33 52L35 52L35 53L34 53L34 56L37 56L37 57L38 57L38 55L35 55L35 54L36 54L36 51L34 51L34 50L33 50L33 49L34 49L34 48L33 48L33 46L32 46L32 45L31 45L31 44L33 44L33 45L36 45L36 44L37 44L37 43L38 43L38 44L40 44L40 45L39 45L39 46L40 46L40 47L39 47L39 48L38 48L38 51L37 51L37 52L38 52L38 53L39 53L39 51L40 51L40 52L42 52L42 51L43 51L43 54L42 54L42 53L40 53L40 54L39 54L39 57L41 57L41 56L40 56L40 54L41 54L41 55L42 55L42 57L43 57L43 56L44 56L44 55L43 55L43 54L45 54L45 55L46 55L46 56L45 56L45 57L47 57L47 56L49 56L49 57L50 57L50 56L51 56L51 54L50 54L50 53L53 53L53 55L52 55L52 57L55 57L55 56L53 56L53 55L55 55L55 54L56 54L56 53L57 53L57 51L56 51L56 49L57 49L57 48L56 48L56 49L55 49L55 51L54 51L54 50L53 50L53 48L54 48L54 47L57 47L57 45L56 45L56 46L55 46L55 44L53 44L53 45L54 45L54 46L52 46L52 44L51 44L51 45L50 45L50 48L49 48L49 44L50 44L50 42L51 42L51 43L53 43L53 41L55 41L55 42L54 42L54 43L56 43L56 44L57 44L57 43L56 43L56 41L57 41L57 40L56 40L56 41L55 41L55 38L56 38L56 39L57 39L57 38L56 38L56 36L57 36L57 33L56 33L56 34L55 34L55 32L56 32L56 30L57 30L57 29L56 29L56 27L55 27L55 26L54 26L54 25L53 25L53 26L52 26L52 25L51 25L51 24L50 24L50 26L48 26L48 23L44 23L44 24L43 24L43 21L44 21L44 22L45 22L45 21L46 21L46 20L45 20L45 21L44 21L44 19L39 19L39 18L38 18L38 19L39 19L39 20L38 20L38 21L37 21L37 22L38 22L38 23L39 23L39 22L41 22L41 23L40 23L40 24L41 24L41 25L43 25L43 26L42 26L42 28L41 28L41 29L43 29L43 31L44 31L44 29L45 29L45 28L46 28L46 31L45 31L45 32L46 32L46 31L47 31L47 28L46 28L46 27L48 27L48 33L47 33L47 34L46 34L46 33L44 33L44 35L47 35L47 36L48 36L48 37L49 37L49 36L50 36L50 37L51 37L51 39L49 39L49 40L45 40L45 39L48 39L48 38L46 38L46 37L45 37L45 39L44 39L44 38L42 38L42 39L41 39L41 38L39 38L39 37L40 37L40 34L41 34L41 32L42 32L42 35L41 35L41 37L42 37L42 36L43 36L43 37L44 37L44 36L43 36L43 32L42 32L42 30L41 30L41 31L40 31L40 28L37 28L37 27L34 27L34 23L36 23L36 25L35 25L35 26L36 26L36 25L37 25L37 26L38 26L38 27L39 27L39 26L40 26L40 27L41 27L41 26L40 26L40 25L38 25L38 24L37 24L37 23L36 23L36 22L34 22L34 21L35 21L35 20L37 20L37 17L36 17L36 18L35 18L35 16L34 16L34 17L33 17L33 14L34 14L34 13L35 13L35 15L36 15L36 14L37 14L37 15L38 15L38 14L40 14L40 16L42 16L42 17L40 17L40 18L42 18L42 17L44 17L44 18L45 18L45 19L48 19L48 16L47 16L47 17L46 17L46 16L45 16L45 15L44 15L44 16L43 16L43 14L42 14L42 13L44 13L44 11L45 11L45 13L46 13L46 12L47 12L47 10L50 10L50 8L49 8L49 6L48 6L48 7L47 7L47 5L48 5L48 0L45 0L45 1L44 1L44 0L42 0L42 2L44 2L44 3L45 3L45 2L46 2L46 3L47 3L47 5L46 5L46 7L45 7L45 6L44 6L44 5L42 5L42 7L41 7L41 5L40 5L40 3L39 3L39 4L37 4L37 3L38 3L38 1L37 1L37 2L36 2L36 0L35 0L35 1L34 1L34 2L36 2L36 4L35 4L35 3L33 3L33 1L32 1L32 0L30 0L30 2L29 2L29 1L28 1L28 2L26 2L26 0L23 0L23 1L24 1L24 2L23 2L23 3L24 3L24 9L23 9L23 8L21 8L21 6L22 6L22 7L23 7L23 4L22 4L22 5L21 5L21 4L20 4L20 2L19 2L19 3L18 3L18 5L17 5L17 4L16 4L16 3L17 3L17 1L16 1L16 0L13 0L13 1L12 1L12 2L11 2L11 3L10 3L10 1L9 1L9 0ZM19 0L19 1L20 1L20 0ZM21 0L21 2L22 2L22 0ZM39 0L39 2L40 2L40 1L41 1L41 0ZM13 1L13 2L12 2L12 3L14 3L14 4L13 4L13 7L14 7L14 5L15 5L15 7L16 7L16 6L17 6L17 7L18 7L18 9L19 9L19 8L20 8L20 6L21 6L21 5L20 5L20 4L19 4L19 5L18 5L18 6L17 6L17 5L15 5L15 3L16 3L16 1L15 1L15 3L14 3L14 1ZM31 1L31 2L30 2L30 3L29 3L29 2L28 2L28 4L30 4L30 3L32 3L32 4L31 4L31 5L32 5L32 6L31 6L31 7L32 7L32 8L31 8L31 12L32 12L32 13L30 13L30 14L26 14L26 15L25 15L25 16L24 16L24 14L25 14L25 11L26 11L26 12L28 12L28 13L29 13L29 11L30 11L30 10L28 10L28 11L27 11L27 9L25 9L25 10L24 10L24 12L22 12L22 15L23 15L23 16L22 16L22 17L21 17L21 15L19 15L19 16L18 16L18 14L19 14L19 13L20 13L20 12L21 12L21 11L23 11L23 9L22 9L22 10L21 10L21 9L20 9L20 10L21 10L21 11L20 11L20 12L18 12L18 10L17 10L17 12L18 12L18 14L17 14L17 13L16 13L16 14L14 14L14 16L15 16L15 18L16 18L16 16L17 16L17 19L18 19L18 17L20 17L20 18L19 18L19 19L20 19L20 21L21 21L21 18L22 18L22 19L23 19L23 20L24 20L24 21L23 21L23 23L22 23L22 22L19 22L19 20L17 20L17 21L16 21L16 23L15 23L15 25L16 25L16 26L17 26L17 27L20 27L20 31L21 31L21 30L22 30L22 29L21 29L21 26L22 26L22 27L24 27L24 26L25 26L25 29L24 29L24 30L23 30L23 31L22 31L22 32L23 32L23 33L22 33L22 34L21 34L21 33L19 33L19 31L18 31L18 30L19 30L19 28L18 28L18 30L16 30L16 27L15 27L15 26L14 26L14 25L13 25L13 24L14 24L14 22L15 22L15 21L14 21L14 20L16 20L16 19L11 19L11 20L10 20L10 21L8 21L8 20L9 20L9 19L10 19L10 18L9 18L9 17L10 17L10 16L11 16L11 18L13 18L13 16L11 16L11 15L10 15L10 16L9 16L9 17L8 17L8 13L6 13L6 14L5 14L5 13L4 13L4 12L3 12L3 13L4 13L4 15L6 15L6 16L7 16L7 17L5 17L5 19L1 19L1 21L2 21L2 20L3 20L3 23L5 23L5 21L4 21L4 20L5 20L5 19L6 19L6 20L7 20L7 21L6 21L6 22L7 22L7 23L6 23L6 24L5 24L5 26L7 26L7 25L8 25L8 26L9 26L9 24L8 24L8 23L10 23L10 22L11 22L11 23L12 23L12 22L13 22L13 24L12 24L12 25L13 25L13 26L12 26L12 28L13 28L13 26L14 26L14 29L15 29L15 30L16 30L16 31L17 31L17 32L16 32L16 34L17 34L17 32L18 32L18 34L19 34L19 35L17 35L17 36L16 36L16 37L17 37L17 36L19 36L19 35L20 35L20 37L19 37L19 40L16 40L16 39L18 39L18 38L15 38L15 41L17 41L17 42L18 42L18 43L21 43L21 41L22 41L22 44L23 44L23 39L24 39L24 40L25 40L25 39L24 39L24 36L27 36L27 34L28 34L28 35L29 35L29 36L28 36L28 37L29 37L29 38L27 38L27 40L26 40L26 41L24 41L24 42L25 42L25 43L24 43L24 44L25 44L25 47L23 47L23 48L25 48L25 49L26 49L26 48L28 48L28 47L29 47L29 48L30 48L30 47L31 47L31 52L32 52L32 51L33 51L33 50L32 50L32 49L33 49L33 48L32 48L32 47L31 47L31 46L30 46L30 45L29 45L29 44L30 44L30 42L32 42L32 43L33 43L33 44L35 44L35 43L34 43L34 42L32 42L32 41L31 41L31 40L33 40L33 41L34 41L34 40L33 40L33 39L36 39L36 40L35 40L35 41L37 41L37 42L36 42L36 43L37 43L37 42L38 42L38 43L41 43L41 47L40 47L40 49L39 49L39 50L40 50L40 49L41 49L41 47L42 47L42 50L43 50L43 51L44 51L44 52L45 52L45 51L46 51L46 53L47 53L47 51L48 51L48 50L47 50L47 49L48 49L48 43L47 43L47 44L46 44L46 41L45 41L45 42L44 42L44 41L43 41L43 40L42 40L42 42L39 42L39 38L38 38L38 39L36 39L36 38L37 38L37 37L39 37L39 32L40 32L40 31L39 31L39 32L36 32L36 33L34 33L34 34L35 34L35 36L33 36L33 35L32 35L32 34L33 34L33 30L31 30L31 31L27 31L27 34L26 34L26 33L25 33L25 32L26 32L26 31L24 31L24 30L25 30L25 29L26 29L26 26L28 26L28 25L29 25L29 26L31 26L31 28L33 28L33 29L34 29L34 27L33 27L33 24L31 24L31 23L30 23L30 24L31 24L31 25L29 25L29 22L28 22L28 23L26 23L26 25L25 25L25 22L27 22L27 21L25 21L25 20L24 20L24 19L26 19L26 18L25 18L25 16L26 16L26 17L29 17L29 16L30 16L30 15L31 15L31 16L32 16L32 14L33 14L33 12L34 12L34 10L35 10L35 9L34 9L34 6L33 6L33 5L32 5L32 4L33 4L33 3L32 3L32 1ZM46 1L46 2L47 2L47 1ZM24 2L24 3L25 3L25 4L26 4L26 2ZM9 3L9 4L10 4L10 3ZM41 3L41 4L42 4L42 3ZM34 4L34 5L35 5L35 4ZM36 4L36 5L37 5L37 4ZM25 5L25 8L26 8L26 5ZM27 5L27 8L30 8L30 5ZM39 5L39 7L40 7L40 8L41 8L41 9L43 9L43 8L41 8L41 7L40 7L40 5ZM8 6L8 7L9 7L9 6ZM18 6L18 7L19 7L19 6ZM28 6L28 7L29 7L29 6ZM32 6L32 7L33 7L33 6ZM35 6L35 8L36 8L36 10L37 10L37 12L38 12L38 13L40 13L40 14L41 14L41 13L42 13L42 12L43 12L43 11L41 11L41 10L39 10L39 9L38 9L38 10L37 10L37 7L38 7L38 6L37 6L37 7L36 7L36 6ZM43 6L43 7L44 7L44 9L46 9L46 10L47 10L47 9L48 9L48 8L47 8L47 7L46 7L46 8L45 8L45 7L44 7L44 6ZM52 8L52 10L53 10L53 9L55 9L55 8ZM56 8L56 10L54 10L54 11L57 11L57 8ZM32 9L32 12L33 12L33 9ZM38 10L38 12L41 12L41 11L39 11L39 10ZM48 11L48 12L50 12L50 17L51 17L51 15L52 15L52 16L53 16L53 17L56 17L56 18L57 18L57 17L56 17L56 16L57 16L57 15L56 15L56 16L55 16L55 15L53 15L53 14L54 14L54 13L53 13L53 14L51 14L51 12L52 12L52 11L51 11L51 12L50 12L50 11ZM55 12L55 13L56 13L56 12ZM6 14L6 15L7 15L7 14ZM12 14L12 15L13 15L13 14ZM47 14L47 15L48 15L48 14ZM0 15L0 17L1 17L1 15ZM15 15L15 16L16 16L16 15ZM7 17L7 18L6 18L6 19L8 19L8 17ZM22 17L22 18L23 18L23 19L24 19L24 17ZM30 17L30 18L28 18L28 19L27 19L27 20L28 20L28 19L29 19L29 20L31 20L31 21L33 21L33 17L32 17L32 20L31 20L31 17ZM49 18L49 20L51 20L51 18ZM53 18L53 19L52 19L52 21L53 21L53 22L54 22L54 23L53 23L53 24L54 24L54 23L55 23L55 25L56 25L56 26L57 26L57 25L56 25L56 23L57 23L57 21L56 21L56 19L55 19L55 18ZM34 19L34 20L35 20L35 19ZM53 19L53 20L55 20L55 19ZM12 20L12 21L13 21L13 20ZM39 20L39 21L38 21L38 22L39 22L39 21L40 21L40 20ZM47 20L47 22L50 22L50 21L48 21L48 20ZM17 21L17 23L16 23L16 24L17 24L17 26L18 26L18 25L19 25L19 26L21 26L21 25L19 25L19 24L18 24L18 21ZM24 21L24 22L25 22L25 21ZM32 22L32 23L33 23L33 22ZM51 22L51 23L52 23L52 22ZM20 23L20 24L21 24L21 23ZM0 24L0 25L1 25L1 24ZM6 24L6 25L7 25L7 24ZM23 24L23 25L22 25L22 26L23 26L23 25L24 25L24 24ZM44 24L44 26L43 26L43 28L45 28L45 25L46 25L46 26L47 26L47 24ZM53 26L53 27L54 27L54 26ZM5 27L5 30L8 30L8 27ZM27 27L27 30L30 30L30 27ZM49 27L49 30L52 30L52 27ZM6 28L6 29L7 29L7 28ZM28 28L28 29L29 29L29 28ZM35 28L35 29L37 29L37 28ZM50 28L50 29L51 29L51 28ZM53 28L53 29L54 29L54 30L53 30L53 31L52 31L52 32L51 32L51 31L50 31L50 32L51 32L51 34L53 34L53 33L54 33L54 32L55 32L55 31L54 31L54 30L55 30L55 29L54 29L54 28ZM12 29L12 30L13 30L13 29ZM38 29L38 30L39 30L39 29ZM3 30L3 31L2 31L2 32L1 32L1 33L2 33L2 34L4 34L4 32L3 32L3 31L4 31L4 30ZM36 30L36 31L37 31L37 30ZM5 31L5 32L7 32L7 31ZM34 31L34 32L35 32L35 31ZM29 32L29 33L31 33L31 34L30 34L30 35L31 35L31 34L32 34L32 33L31 33L31 32ZM23 33L23 35L26 35L26 34L25 34L25 33ZM36 33L36 34L37 34L37 35L36 35L36 37L35 37L35 38L36 38L36 37L37 37L37 35L38 35L38 34L37 34L37 33ZM48 33L48 34L47 34L47 35L48 35L48 36L49 36L49 35L50 35L50 33ZM48 34L48 35L49 35L49 34ZM54 34L54 37L52 37L52 39L51 39L51 41L52 41L52 40L53 40L53 38L54 38L54 37L55 37L55 34ZM0 35L0 36L1 36L1 35ZM10 35L10 37L11 37L11 35ZM21 35L21 36L22 36L22 35ZM52 35L52 36L53 36L53 35ZM3 36L3 37L4 37L4 38L7 38L7 39L8 39L8 38L7 38L7 37L4 37L4 36ZM29 36L29 37L30 37L30 38L29 38L29 39L28 39L28 41L27 41L27 42L26 42L26 44L27 44L27 47L28 47L28 44L29 44L29 39L30 39L30 38L31 38L31 39L32 39L32 38L34 38L34 37L32 37L32 36L31 36L31 37L30 37L30 36ZM20 37L20 38L21 38L21 37ZM22 37L22 38L23 38L23 37ZM25 37L25 38L26 38L26 37ZM21 39L21 40L19 40L19 41L18 41L18 42L19 42L19 41L21 41L21 40L22 40L22 39ZM40 39L40 41L41 41L41 39ZM0 40L0 42L1 42L1 43L0 43L0 48L5 48L5 47L7 47L7 48L6 48L6 49L7 49L7 48L8 48L8 47L7 47L7 46L5 46L5 45L3 45L3 42L4 42L4 41L3 41L3 42L1 42L1 41L2 41L2 40ZM37 40L37 41L38 41L38 40ZM49 40L49 42L50 42L50 40ZM6 41L6 42L7 42L7 41ZM47 41L47 42L48 42L48 41ZM27 42L27 43L28 43L28 42ZM43 42L43 44L42 44L42 47L43 47L43 50L46 50L46 48L47 48L47 46L46 46L46 45L43 45L43 44L45 44L45 43L44 43L44 42ZM12 45L12 46L13 46L13 47L12 47L12 48L11 48L11 49L12 49L12 48L16 48L16 46L15 46L15 47L14 47L14 46L13 46L13 45ZM1 46L1 47L2 47L2 46ZM3 46L3 47L5 47L5 46ZM29 46L29 47L30 47L30 46ZM34 46L34 47L35 47L35 48L36 48L36 49L35 49L35 50L36 50L36 49L37 49L37 47L38 47L38 46L37 46L37 47L35 47L35 46ZM43 46L43 47L44 47L44 46ZM45 46L45 47L46 47L46 46ZM51 46L51 48L52 48L52 46ZM25 47L25 48L26 48L26 47ZM44 48L44 49L45 49L45 48ZM14 49L14 50L15 50L15 51L16 51L16 50L17 50L17 49ZM27 49L27 52L30 52L30 49ZM49 49L49 52L52 52L52 49ZM28 50L28 51L29 51L29 50ZM50 50L50 51L51 51L51 50ZM25 51L25 52L26 52L26 51ZM16 52L16 53L17 53L17 52ZM53 52L53 53L54 53L54 54L55 54L55 53L56 53L56 52L55 52L55 53L54 53L54 52ZM14 54L14 55L15 55L15 54ZM29 54L29 56L27 56L27 57L30 57L30 55L31 55L31 57L32 57L32 55L33 55L33 54ZM46 54L46 55L47 55L47 54ZM49 54L49 55L50 55L50 54ZM17 55L17 56L16 56L16 57L18 57L18 55ZM20 55L20 56L21 56L21 55ZM56 55L56 56L57 56L57 55ZM0 0L0 7L7 7L7 0ZM1 1L1 6L6 6L6 1ZM2 2L2 5L5 5L5 2ZM50 0L50 7L57 7L57 0ZM51 1L51 6L56 6L56 1ZM52 2L52 5L55 5L55 2ZM0 50L0 57L7 57L7 50ZM1 51L1 56L6 56L6 51ZM2 52L2 55L5 55L5 52Z" fill="#000000"/></g></g></svg>
