<?xml version="1.0" encoding="UTF-8"?>
<svg xmlns="http://www.w3.org/2000/svg" version="1.1" width="300" height="300" viewBox="0 0 300 300"><rect x="0" y="0" width="300" height="300" fill="#ffffff"/><g transform="scale(4.918)"><g transform="translate(2,2)"><path fill-rule="evenodd" d="M8 0L8 1L9 1L9 2L10 2L10 3L11 3L11 4L12 4L12 7L11 7L11 5L10 5L10 7L11 7L11 9L10 9L10 8L9 8L9 6L8 6L8 8L9 8L9 9L7 9L7 8L6 8L6 9L7 9L7 10L6 10L6 11L5 11L5 12L3 12L3 11L4 11L4 10L5 10L5 8L3 8L3 10L2 10L2 8L0 8L0 9L1 9L1 12L0 12L0 15L1 15L1 14L3 14L3 16L4 16L4 13L5 13L5 16L6 16L6 17L8 17L8 16L10 16L10 17L9 17L9 19L10 19L10 20L8 20L8 19L7 19L7 18L5 18L5 19L7 19L7 20L6 20L6 21L4 21L4 19L3 19L3 18L4 18L4 17L3 17L3 18L0 18L0 19L3 19L3 21L4 21L4 22L1 22L1 23L0 23L0 24L1 24L1 25L2 25L2 26L3 26L3 27L2 27L2 28L0 28L0 29L1 29L1 30L3 30L3 29L4 29L4 31L3 31L3 32L2 32L2 31L0 31L0 32L1 32L1 35L0 35L0 40L1 40L1 41L0 41L0 43L1 43L1 44L0 44L0 45L1 45L1 44L2 44L2 43L3 43L3 45L4 45L4 46L5 46L5 47L3 47L3 46L2 46L2 47L1 47L1 46L0 46L0 48L5 48L5 47L8 47L8 50L11 50L11 48L12 48L12 46L13 46L13 49L15 49L15 50L13 50L13 51L16 51L16 52L17 52L17 51L16 51L16 48L17 48L17 49L20 49L20 51L21 51L21 48L22 48L22 49L23 49L23 50L22 50L22 51L24 51L24 53L23 53L23 54L24 54L24 56L23 56L23 55L22 55L22 52L20 52L20 53L19 53L19 52L18 52L18 53L16 53L16 55L17 55L17 56L15 56L15 57L21 57L21 56L22 56L22 57L24 57L24 56L25 56L25 57L26 57L26 56L27 56L27 55L26 55L26 54L28 54L28 55L29 55L29 54L28 54L28 53L31 53L31 54L30 54L30 56L33 56L33 57L34 57L34 54L35 54L35 57L37 57L37 56L38 56L38 57L39 57L39 56L40 56L40 57L41 57L41 56L43 56L43 57L44 57L44 55L45 55L45 57L46 57L46 55L47 55L47 56L49 56L49 57L53 57L53 56L57 56L57 54L55 54L55 53L54 53L54 52L55 52L55 51L56 51L56 52L57 52L57 51L56 51L56 49L57 49L57 46L56 46L56 48L55 48L55 47L54 47L54 46L55 46L55 45L56 45L56 43L57 43L57 38L56 38L56 41L53 41L53 40L55 40L55 38L54 38L54 36L55 36L55 37L57 37L57 34L56 34L56 33L57 33L57 28L55 28L55 27L53 27L53 26L51 26L51 25L54 25L54 26L57 26L57 25L56 25L56 24L55 24L55 23L57 23L57 22L56 22L56 21L57 21L57 20L56 20L56 19L57 19L57 16L56 16L56 18L55 18L55 17L54 17L54 16L55 16L55 15L53 15L53 14L52 14L52 15L53 15L53 17L52 17L52 18L51 18L51 19L50 19L50 16L51 16L51 12L52 12L52 13L54 13L54 14L55 14L55 13L56 13L56 12L55 12L55 11L57 11L57 10L56 10L56 9L57 9L57 8L56 8L56 9L55 9L55 11L53 11L53 12L52 12L52 11L51 11L51 12L50 12L50 11L49 11L49 10L53 10L53 9L51 9L51 8L50 8L50 9L45 9L45 10L46 10L46 11L45 11L45 12L44 12L44 14L43 14L43 11L40 11L40 10L43 10L43 8L47 8L47 5L48 5L48 0L46 0L46 1L47 1L47 2L45 2L45 0L44 0L44 4L45 4L45 3L47 3L47 5L46 5L46 7L45 7L45 6L44 6L44 7L43 7L43 3L42 3L42 5L40 5L40 4L41 4L41 3L40 3L40 2L42 2L42 1L43 1L43 0L40 0L40 2L37 2L37 1L39 1L39 0L37 0L37 1L35 1L35 0L34 0L34 3L33 3L33 0L32 0L32 3L31 3L31 2L30 2L30 1L31 1L31 0L29 0L29 2L30 2L30 4L29 4L29 3L28 3L28 1L27 1L27 0L26 0L26 1L27 1L27 2L26 2L26 3L27 3L27 4L25 4L25 2L24 2L24 1L25 1L25 0L23 0L23 2L22 2L22 0L20 0L20 2L19 2L19 0L18 0L18 2L19 2L19 3L18 3L18 4L20 4L20 5L19 5L19 6L18 6L18 5L17 5L17 0L16 0L16 1L15 1L15 3L14 3L14 4L15 4L15 3L16 3L16 5L17 5L17 6L16 6L16 7L15 7L15 5L13 5L13 2L14 2L14 0L11 0L11 2L10 2L10 1L9 1L9 0ZM11 2L11 3L12 3L12 2ZM20 2L20 3L21 3L21 5L20 5L20 6L19 6L19 7L18 7L18 6L17 6L17 7L18 7L18 8L16 8L16 9L18 9L18 10L17 10L17 11L18 11L18 12L16 12L16 11L14 11L14 9L15 9L15 8L14 8L14 6L13 6L13 8L12 8L12 11L11 11L11 10L10 10L10 9L9 9L9 10L10 10L10 11L11 11L11 13L12 13L12 14L11 14L11 15L10 15L10 16L11 16L11 15L12 15L12 14L14 14L14 15L16 15L16 14L18 14L18 13L19 13L19 15L21 15L21 17L20 17L20 16L19 16L19 17L18 17L18 18L17 18L17 19L16 19L16 18L14 18L14 17L10 17L10 19L11 19L11 18L12 18L12 19L14 19L14 20L13 20L13 21L12 21L12 20L11 20L11 21L10 21L10 22L11 22L11 21L12 21L12 22L13 22L13 23L12 23L12 24L11 24L11 23L8 23L8 20L7 20L7 21L6 21L6 22L7 22L7 23L2 23L2 25L3 25L3 24L5 24L5 26L8 26L8 25L10 25L10 26L9 26L9 29L10 29L10 26L11 26L11 25L12 25L12 26L13 26L13 29L12 29L12 28L11 28L11 30L10 30L10 31L8 31L8 32L7 32L7 31L5 31L5 32L4 32L4 33L3 33L3 34L4 34L4 35L3 35L3 38L4 38L4 35L5 35L5 36L9 36L9 37L11 37L11 38L8 38L8 37L5 37L5 38L8 38L8 39L3 39L3 41L1 41L1 43L2 43L2 42L3 42L3 41L4 41L4 40L7 40L7 41L6 41L6 42L5 42L5 43L4 43L4 45L5 45L5 46L9 46L9 45L8 45L8 44L7 44L7 43L6 43L6 42L7 42L7 41L8 41L8 43L9 43L9 41L10 41L10 40L13 40L13 38L14 38L14 39L15 39L15 36L19 36L19 37L18 37L18 38L16 38L16 40L17 40L17 41L18 41L18 42L17 42L17 43L16 43L16 42L15 42L15 43L14 43L14 44L13 44L13 43L11 43L11 42L10 42L10 43L11 43L11 44L10 44L10 45L12 45L12 44L13 44L13 46L14 46L14 48L16 48L16 45L17 45L17 47L19 47L19 48L20 48L20 43L21 43L21 42L23 42L23 43L22 43L22 44L23 44L23 45L25 45L25 46L24 46L24 47L25 47L25 48L26 48L26 47L27 47L27 48L28 48L28 47L27 47L27 46L28 46L28 45L29 45L29 48L30 48L30 45L29 45L29 43L28 43L28 42L27 42L27 40L28 40L28 39L29 39L29 42L30 42L30 40L32 40L32 39L33 39L33 41L35 41L35 42L37 42L37 41L36 41L36 40L38 40L38 37L39 37L39 41L38 41L38 42L39 42L39 43L40 43L40 42L41 42L41 43L42 43L42 41L43 41L43 40L45 40L45 42L44 42L44 43L45 43L45 44L41 44L41 45L40 45L40 44L38 44L38 43L37 43L37 44L38 44L38 45L37 45L37 46L36 46L36 48L35 48L35 49L34 49L34 47L33 47L33 51L31 51L31 52L33 52L33 51L35 51L35 52L34 52L34 53L36 53L36 51L35 51L35 50L37 50L37 53L38 53L38 54L37 54L37 55L36 55L36 56L37 56L37 55L38 55L38 56L39 56L39 55L38 55L38 54L40 54L40 53L41 53L41 55L42 55L42 53L43 53L43 54L44 54L44 53L43 53L43 52L42 52L42 51L43 51L43 50L44 50L44 51L48 51L48 49L47 49L47 48L45 48L45 50L44 50L44 49L43 49L43 50L41 50L41 49L42 49L42 47L44 47L44 46L42 46L42 45L45 45L45 46L46 46L46 45L47 45L47 46L48 46L48 48L50 48L50 47L49 47L49 46L50 46L50 45L51 45L51 48L53 48L53 49L55 49L55 48L53 48L53 46L54 46L54 45L55 45L55 44L54 44L54 45L53 45L53 44L51 44L51 43L50 43L50 42L49 42L49 41L50 41L50 40L52 40L52 39L53 39L53 37L52 37L52 39L51 39L51 37L50 37L50 38L49 38L49 39L50 39L50 40L48 40L48 43L49 43L49 44L46 44L46 43L47 43L47 42L46 42L46 41L47 41L47 39L48 39L48 37L46 37L46 36L47 36L47 35L48 35L48 36L49 36L49 33L51 33L51 31L48 31L48 32L47 32L47 30L46 30L46 29L45 29L45 31L43 31L43 30L41 30L41 28L42 28L42 29L43 29L43 28L44 28L44 27L45 27L45 28L46 28L46 27L47 27L47 24L45 24L45 20L46 20L46 21L47 21L47 22L46 22L46 23L47 23L47 22L48 22L48 23L49 23L49 24L48 24L48 25L50 25L50 24L51 24L51 22L48 22L48 21L52 21L52 20L50 20L50 19L48 19L48 21L47 21L47 18L46 18L46 17L45 17L45 19L44 19L44 18L40 18L40 17L42 17L42 15L43 15L43 14L42 14L42 13L41 13L41 14L40 14L40 12L39 12L39 14L38 14L38 12L37 12L37 11L39 11L39 10L40 10L40 8L41 8L41 7L42 7L42 8L43 8L43 7L42 7L42 6L41 6L41 7L40 7L40 5L39 5L39 7L40 7L40 8L37 8L37 9L35 9L35 10L34 10L34 11L33 11L33 10L32 10L32 9L33 9L33 7L34 7L34 8L36 8L36 6L37 6L37 7L38 7L38 6L37 6L37 5L35 5L35 4L36 4L36 3L37 3L37 2L35 2L35 4L33 4L33 5L32 5L32 4L31 4L31 10L29 10L29 9L28 9L28 11L27 11L27 10L26 10L26 9L25 9L25 12L24 12L24 10L23 10L23 9L21 9L21 10L19 10L19 9L18 9L18 8L19 8L19 7L20 7L20 6L21 6L21 8L23 8L23 7L24 7L24 8L25 8L25 7L26 7L26 6L25 6L25 4L24 4L24 2L23 2L23 5L22 5L22 2ZM39 3L39 4L40 4L40 3ZM21 5L21 6L22 6L22 7L23 7L23 6L24 6L24 7L25 7L25 6L24 6L24 5L23 5L23 6L22 6L22 5ZM27 5L27 8L30 8L30 5ZM33 5L33 6L32 6L32 7L33 7L33 6L34 6L34 7L35 7L35 6L34 6L34 5ZM28 6L28 7L29 7L29 6ZM48 6L48 7L49 7L49 6ZM37 9L37 10L36 10L36 11L37 11L37 10L39 10L39 9ZM21 10L21 13L20 13L20 11L19 11L19 13L20 13L20 14L21 14L21 15L22 15L22 16L24 16L24 19L23 19L23 17L22 17L22 19L21 19L21 18L20 18L20 17L19 17L19 18L18 18L18 19L21 19L21 22L22 22L22 23L19 23L19 22L20 22L20 20L16 20L16 22L17 22L17 21L19 21L19 22L18 22L18 23L19 23L19 24L18 24L18 27L17 27L17 26L16 26L16 25L17 25L17 23L16 23L16 24L15 24L15 20L14 20L14 23L13 23L13 24L15 24L15 25L13 25L13 26L16 26L16 27L17 27L17 28L16 28L16 30L17 30L17 31L19 31L19 32L18 32L18 33L19 33L19 34L17 34L17 33L16 33L16 32L15 32L15 30L14 30L14 31L13 31L13 32L12 32L12 33L13 33L13 34L14 34L14 33L15 33L15 35L14 35L14 36L15 36L15 35L16 35L16 34L17 34L17 35L19 35L19 36L20 36L20 37L19 37L19 38L18 38L18 39L19 39L19 38L21 38L21 39L20 39L20 40L21 40L21 41L22 41L22 40L24 40L24 39L23 39L23 38L24 38L24 37L25 37L25 38L26 38L26 39L25 39L25 41L24 41L24 43L25 43L25 44L28 44L28 43L26 43L26 39L28 39L28 37L27 37L27 36L29 36L29 35L31 35L31 36L32 36L32 38L30 38L30 37L29 37L29 39L32 39L32 38L34 38L34 37L35 37L35 38L36 38L36 39L35 39L35 40L36 40L36 39L37 39L37 37L38 37L38 36L36 36L36 35L38 35L38 34L39 34L39 33L41 33L41 35L42 35L42 36L44 36L44 37L41 37L41 36L40 36L40 35L39 35L39 37L41 37L41 38L40 38L40 40L41 40L41 41L42 41L42 40L43 40L43 39L44 39L44 37L45 37L45 40L46 40L46 39L47 39L47 38L46 38L46 37L45 37L45 36L46 36L46 35L47 35L47 34L48 34L48 33L47 33L47 32L45 32L45 33L44 33L44 32L43 32L43 31L41 31L41 30L40 30L40 29L39 29L39 31L38 31L38 32L36 32L36 31L37 31L37 28L41 28L41 27L39 27L39 25L40 25L40 26L45 26L45 27L46 27L46 25L45 25L45 24L44 24L44 23L42 23L42 22L43 22L43 21L44 21L44 20L43 20L43 19L40 19L40 18L39 18L39 19L37 19L37 17L38 17L38 16L39 16L39 17L40 17L40 14L39 14L39 15L38 15L38 14L37 14L37 12L35 12L35 11L34 11L34 12L33 12L33 11L30 11L30 12L31 12L31 13L30 13L30 14L29 14L29 12L27 12L27 13L24 13L24 14L22 14L22 13L23 13L23 11L22 11L22 10ZM47 10L47 11L48 11L48 10ZM6 11L6 12L7 12L7 11ZM13 11L13 12L12 12L12 13L14 13L14 14L15 14L15 12L14 12L14 11ZM1 12L1 13L3 13L3 12ZM8 12L8 13L6 13L6 14L7 14L7 15L6 15L6 16L8 16L8 15L9 15L9 14L10 14L10 13L9 13L9 12ZM34 12L34 15L35 15L35 12ZM48 12L48 13L49 13L49 15L47 15L47 13L45 13L45 14L46 14L46 15L47 15L47 16L48 16L48 17L49 17L49 16L50 16L50 13L49 13L49 12ZM54 12L54 13L55 13L55 12ZM8 13L8 14L9 14L9 13ZM32 13L32 14L33 14L33 13ZM25 14L25 16L26 16L26 17L25 17L25 18L26 18L26 19L25 19L25 22L26 22L26 21L27 21L27 23L25 23L25 25L26 25L26 26L25 26L25 27L24 27L24 26L23 26L23 25L24 25L24 24L23 24L23 23L24 23L24 21L22 21L22 22L23 22L23 23L22 23L22 24L20 24L20 25L19 25L19 26L20 26L20 25L21 25L21 27L19 27L19 28L20 28L20 29L19 29L19 30L20 30L20 31L21 31L21 30L22 30L22 28L23 28L23 29L25 29L25 31L26 31L26 26L27 26L27 25L26 25L26 24L27 24L27 23L28 23L28 24L29 24L29 25L28 25L28 26L29 26L29 25L32 25L32 26L31 26L31 27L32 27L32 26L33 26L33 27L34 27L34 28L35 28L35 30L34 30L34 31L33 31L33 30L32 30L32 29L31 29L31 31L32 31L32 32L30 32L30 33L33 33L33 34L31 34L31 35L32 35L32 36L33 36L33 37L34 37L34 33L33 33L33 32L35 32L35 35L36 35L36 32L35 32L35 30L36 30L36 28L37 28L37 27L36 27L36 28L35 28L35 25L36 25L36 26L38 26L38 25L39 25L39 24L38 24L38 25L36 25L36 24L37 24L37 23L36 23L36 24L34 24L34 26L33 26L33 25L32 25L32 24L29 24L29 23L31 23L31 22L30 22L30 21L32 21L32 23L35 23L35 22L37 22L37 21L38 21L38 20L37 20L37 19L35 19L35 18L34 18L34 17L32 17L32 16L33 16L33 15L32 15L32 16L30 16L30 15L31 15L31 14L30 14L30 15L29 15L29 14L28 14L28 15L27 15L27 14ZM41 14L41 15L42 15L42 14ZM17 15L17 16L18 16L18 15ZM26 15L26 16L27 16L27 18L29 18L29 19L30 19L30 20L28 20L28 23L29 23L29 21L30 21L30 20L31 20L31 19L30 19L30 18L32 18L32 19L33 19L33 18L32 18L32 17L30 17L30 16L29 16L29 15L28 15L28 16L27 16L27 15ZM36 15L36 16L37 16L37 15ZM44 15L44 16L43 16L43 17L44 17L44 16L45 16L45 15ZM0 16L0 17L2 17L2 16ZM15 16L15 17L16 17L16 16ZM28 16L28 17L29 17L29 18L30 18L30 17L29 17L29 16ZM52 18L52 19L55 19L55 18ZM22 19L22 20L23 20L23 19ZM26 19L26 20L27 20L27 19ZM1 20L1 21L2 21L2 20ZM33 20L33 22L35 22L35 20ZM36 20L36 21L37 21L37 20ZM41 20L41 21L39 21L39 22L40 22L40 24L42 24L42 23L41 23L41 21L42 21L42 20ZM53 20L53 21L55 21L55 20ZM52 22L52 24L54 24L54 23L53 23L53 22ZM7 23L7 24L6 24L6 25L8 25L8 23ZM22 24L22 25L23 25L23 24ZM43 24L43 25L44 25L44 24ZM3 27L3 28L4 28L4 27ZM5 27L5 30L8 30L8 27ZM27 27L27 30L30 30L30 27ZM42 27L42 28L43 28L43 27ZM49 27L49 30L52 30L52 27ZM6 28L6 29L7 29L7 28ZM28 28L28 29L29 29L29 28ZM47 28L47 29L48 29L48 28ZM50 28L50 29L51 29L51 28ZM53 28L53 29L55 29L55 30L53 30L53 31L52 31L52 33L53 33L53 35L52 35L52 34L51 34L51 35L52 35L52 36L54 36L54 34L55 34L55 36L56 36L56 34L55 34L55 33L56 33L56 32L54 32L54 31L55 31L55 30L56 30L56 29L55 29L55 28ZM17 29L17 30L18 30L18 29ZM11 30L11 31L10 31L10 32L11 32L11 31L12 31L12 30ZM27 31L27 32L28 32L28 33L29 33L29 31ZM6 32L6 33L7 33L7 32ZM13 32L13 33L14 33L14 32ZM20 32L20 33L21 33L21 35L20 35L20 36L21 36L21 35L23 35L23 36L25 36L25 34L26 34L26 36L27 36L27 35L29 35L29 34L27 34L27 33L25 33L25 34L22 34L22 32ZM23 32L23 33L24 33L24 32ZM38 32L38 33L37 33L37 34L38 34L38 33L39 33L39 32ZM41 32L41 33L42 33L42 32ZM53 32L53 33L54 33L54 32ZM4 33L4 34L5 34L5 35L7 35L7 34L5 34L5 33ZM10 33L10 35L9 35L9 34L8 34L8 35L9 35L9 36L11 36L11 37L13 37L13 36L11 36L11 33ZM45 33L45 35L44 35L44 36L45 36L45 35L46 35L46 33ZM42 34L42 35L43 35L43 34ZM1 35L1 36L2 36L2 35ZM26 37L26 38L27 38L27 37ZM11 38L11 39L12 39L12 38ZM41 38L41 40L42 40L42 39L43 39L43 38ZM1 39L1 40L2 40L2 39ZM9 39L9 40L10 40L10 39ZM14 40L14 41L12 41L12 42L14 42L14 41L15 41L15 40ZM18 40L18 41L19 41L19 43L20 43L20 41L19 41L19 40ZM31 41L31 43L30 43L30 44L31 44L31 45L34 45L34 44L36 44L36 43L34 43L34 42L33 42L33 43L32 43L32 41ZM52 42L52 43L53 43L53 42ZM31 43L31 44L32 44L32 43ZM6 44L6 45L7 45L7 44ZM14 44L14 45L15 45L15 44ZM17 44L17 45L18 45L18 46L19 46L19 45L18 45L18 44ZM45 44L45 45L46 45L46 44ZM26 45L26 46L27 46L27 45ZM38 45L38 46L37 46L37 47L38 47L38 46L40 46L40 45ZM48 45L48 46L49 46L49 45ZM52 45L52 46L53 46L53 45ZM10 46L10 47L9 47L9 49L10 49L10 47L11 47L11 46ZM21 46L21 47L22 47L22 48L23 48L23 47L22 47L22 46ZM39 47L39 48L36 48L36 49L37 49L37 50L38 50L38 53L40 53L40 51L41 51L41 50L40 50L40 51L39 51L39 49L41 49L41 48L40 48L40 47ZM6 48L6 49L7 49L7 48ZM25 49L25 50L24 50L24 51L25 51L25 53L26 53L26 49ZM27 49L27 52L30 52L30 49ZM31 49L31 50L32 50L32 49ZM49 49L49 52L52 52L52 49ZM18 50L18 51L19 51L19 50ZM28 50L28 51L29 51L29 50ZM50 50L50 51L51 51L51 50ZM54 50L54 51L55 51L55 50ZM11 51L11 52L12 52L12 53L11 53L11 55L10 55L10 54L9 54L9 52L8 52L8 54L9 54L9 55L8 55L8 57L10 57L10 56L11 56L11 57L13 57L13 55L14 55L14 54L12 54L12 53L14 53L14 52L12 52L12 51ZM45 52L45 53L47 53L47 55L48 55L48 54L50 54L50 55L49 55L49 56L50 56L50 55L51 55L51 56L52 56L52 54L53 54L53 53L47 53L47 52ZM18 53L18 54L17 54L17 55L18 55L18 54L19 54L19 53ZM32 53L32 54L31 54L31 55L33 55L33 53ZM20 54L20 55L19 55L19 56L21 56L21 54ZM45 54L45 55L46 55L46 54ZM54 54L54 55L55 55L55 54ZM9 55L9 56L10 56L10 55ZM25 55L25 56L26 56L26 55ZM28 56L28 57L29 57L29 56ZM0 0L0 7L7 7L7 0ZM1 1L1 6L6 6L6 1ZM2 2L2 5L5 5L5 2ZM50 0L50 7L57 7L57 0ZM51 1L51 6L56 6L56 1ZM52 2L52 5L55 5L55 2ZM0 50L0 57L7 57L7 50ZM1 51L1 56L6 56L6 51ZM2 52L2 55L5 55L5 52Z" fill="#000000"/></g></g></svg>
