<?xml version="1.0" encoding="UTF-8"?>
<svg xmlns="http://www.w3.org/2000/svg" version="1.1" width="300" height="300" viewBox="0 0 300 300"><rect x="0" y="0" width="300" height="300" fill="#ffffff"/><g transform="scale(4.918)"><g transform="translate(2,2)"><path fill-rule="evenodd" d="M9 0L9 1L8 1L8 2L9 2L9 3L8 3L8 4L9 4L9 5L8 5L8 7L9 7L9 5L10 5L10 7L11 7L11 6L12 6L12 7L13 7L13 8L11 8L11 9L9 9L9 8L6 8L6 9L8 9L8 11L9 11L9 12L11 12L11 13L8 13L8 12L6 12L6 13L5 13L5 12L4 12L4 11L3 11L3 12L2 12L2 9L5 9L5 8L0 8L0 9L1 9L1 13L0 13L0 14L1 14L1 13L2 13L2 16L4 16L4 17L2 17L2 18L1 18L1 19L0 19L0 23L1 23L1 25L2 25L2 26L0 26L0 27L2 27L2 26L3 26L3 27L4 27L4 28L3 28L3 29L2 29L2 30L0 30L0 31L2 31L2 32L0 32L0 33L1 33L1 34L3 34L3 35L2 35L2 36L1 36L1 35L0 35L0 36L1 36L1 37L0 37L0 39L1 39L1 37L2 37L2 36L3 36L3 38L2 38L2 39L3 39L3 38L4 38L4 39L7 39L7 40L5 40L5 41L4 41L4 40L2 40L2 41L3 41L3 42L1 42L1 43L0 43L0 45L1 45L1 46L0 46L0 48L5 48L5 47L7 47L7 46L8 46L8 45L9 45L9 44L11 44L11 43L12 43L12 46L11 46L11 45L10 45L10 46L9 46L9 47L10 47L10 48L11 48L11 49L9 49L9 48L8 48L8 51L9 51L9 52L8 52L8 57L11 57L11 56L9 56L9 55L12 55L12 57L14 57L14 56L15 56L15 57L16 57L16 55L15 55L15 54L16 54L16 53L13 53L13 52L12 52L12 53L11 53L11 54L10 54L10 51L9 51L9 50L11 50L11 51L14 51L14 50L15 50L15 49L17 49L17 50L16 50L16 51L15 51L15 52L16 52L16 51L19 51L19 52L18 52L18 53L17 53L17 57L21 57L21 56L23 56L23 55L24 55L24 56L25 56L25 57L26 57L26 55L27 55L27 56L28 56L28 55L27 55L27 53L28 53L28 54L29 54L29 55L30 55L30 56L29 56L29 57L32 57L32 56L33 56L33 57L37 57L37 56L38 56L38 53L37 53L37 52L36 52L36 51L37 51L37 50L38 50L38 52L39 52L39 55L40 55L40 56L41 56L41 55L42 55L42 54L43 54L43 53L44 53L44 54L45 54L45 55L46 55L46 54L45 54L45 53L44 53L44 48L46 48L46 47L47 47L47 46L46 46L46 45L47 45L47 44L48 44L48 46L50 46L50 44L51 44L51 43L50 43L50 42L51 42L51 41L49 41L49 40L50 40L50 38L49 38L49 36L50 36L50 37L51 37L51 35L49 35L49 34L48 34L48 33L47 33L47 32L48 32L48 31L49 31L49 32L51 32L51 33L50 33L50 34L51 34L51 33L54 33L54 34L52 34L52 36L53 36L53 38L51 38L51 39L54 39L54 40L52 40L52 41L54 41L54 43L53 43L53 44L52 44L52 45L51 45L51 46L52 46L52 45L54 45L54 48L53 48L53 47L49 47L49 48L48 48L48 51L47 51L47 50L45 50L45 52L48 52L48 53L47 53L47 57L49 57L49 54L48 54L48 53L50 53L50 55L51 55L51 56L50 56L50 57L52 57L52 56L53 56L53 57L54 57L54 56L55 56L55 57L56 57L56 56L55 56L55 53L54 53L54 52L55 52L55 50L57 50L57 49L54 49L54 48L57 48L57 47L56 47L56 46L57 46L57 44L56 44L56 46L55 46L55 45L54 45L54 44L55 44L55 43L56 43L56 42L55 42L55 41L54 41L54 40L55 40L55 39L57 39L57 37L56 37L56 36L55 36L55 34L57 34L57 32L56 32L56 30L57 30L57 29L56 29L56 30L55 30L55 29L54 29L54 28L55 28L55 27L56 27L56 28L57 28L57 27L56 27L56 26L57 26L57 25L56 25L56 24L55 24L55 23L56 23L56 22L57 22L57 21L55 21L55 23L52 23L52 22L54 22L54 21L51 21L51 22L50 22L50 19L51 19L51 20L57 20L57 19L52 19L52 17L51 17L51 16L50 16L50 15L51 15L51 14L52 14L52 13L51 13L51 14L50 14L50 15L49 15L49 13L50 13L50 11L51 11L51 10L53 10L53 11L52 11L52 12L53 12L53 11L54 11L54 12L56 12L56 14L55 14L55 13L54 13L54 15L52 15L52 16L55 16L55 18L57 18L57 17L56 17L56 16L57 16L57 15L56 15L56 14L57 14L57 12L56 12L56 10L55 10L55 11L54 11L54 10L53 10L53 9L54 9L54 8L53 8L53 9L52 9L52 8L51 8L51 10L49 10L49 9L50 9L50 8L49 8L49 6L48 6L48 7L47 7L47 5L48 5L48 0L44 0L44 1L43 1L43 0L42 0L42 1L41 1L41 0L39 0L39 1L38 1L38 0L36 0L36 1L34 1L34 0L30 0L30 1L29 1L29 0L28 0L28 3L27 3L27 2L25 2L25 1L26 1L26 0L24 0L24 1L23 1L23 0L21 0L21 2L19 2L19 1L16 1L16 0L14 0L14 1L15 1L15 2L14 2L14 3L13 3L13 1L12 1L12 3L11 3L11 4L9 4L9 3L10 3L10 2L9 2L9 1L10 1L10 0ZM30 1L30 2L29 2L29 3L28 3L28 4L30 4L30 3L31 3L31 2L34 2L34 4L33 4L33 3L32 3L32 4L31 4L31 7L32 7L32 6L33 6L33 8L32 8L32 9L31 9L31 11L30 11L30 10L29 10L29 9L28 9L28 10L27 10L27 9L26 9L26 6L25 6L25 4L26 4L26 3L25 3L25 2L21 2L21 3L20 3L20 4L18 4L18 2L17 2L17 3L16 3L16 4L15 4L15 3L14 3L14 4L15 4L15 5L16 5L16 4L18 4L18 5L17 5L17 7L18 7L18 5L20 5L20 6L19 6L19 8L20 8L20 10L18 10L18 9L17 9L17 8L16 8L16 6L15 6L15 7L14 7L14 5L13 5L13 4L11 4L11 5L13 5L13 7L14 7L14 10L13 10L13 9L12 9L12 10L13 10L13 11L12 11L12 12L13 12L13 13L14 13L14 15L15 15L15 16L14 16L14 17L16 17L16 18L17 18L17 19L16 19L16 20L15 20L15 21L13 21L13 20L14 20L14 19L13 19L13 20L11 20L11 19L10 19L10 18L11 18L11 17L10 17L10 16L11 16L11 15L10 15L10 14L7 14L7 13L6 13L6 14L7 14L7 15L5 15L5 14L4 14L4 12L3 12L3 15L4 15L4 16L5 16L5 17L4 17L4 18L3 18L3 19L1 19L1 21L2 21L2 23L3 23L3 22L4 22L4 24L3 24L3 26L9 26L9 25L10 25L10 26L12 26L12 27L10 27L10 29L11 29L11 31L13 31L13 32L12 32L12 33L10 33L10 34L12 34L12 35L10 35L10 36L8 36L8 34L7 34L7 33L6 33L6 34L5 34L5 33L3 33L3 34L5 34L5 35L4 35L4 37L5 37L5 38L7 38L7 39L8 39L8 40L7 40L7 41L6 41L6 42L12 42L12 43L13 43L13 41L16 41L16 42L14 42L14 43L16 43L16 44L18 44L18 45L16 45L16 48L17 48L17 47L18 47L18 45L19 45L19 46L22 46L22 47L23 47L23 48L21 48L21 47L19 47L19 49L18 49L18 50L19 50L19 49L20 49L20 50L21 50L21 51L22 51L22 52L19 52L19 53L18 53L18 54L19 54L19 55L20 55L20 54L19 54L19 53L23 53L23 54L22 54L22 55L23 55L23 54L24 54L24 53L23 53L23 52L24 52L24 51L25 51L25 53L26 53L26 50L23 50L23 49L24 49L24 47L23 47L23 46L24 46L24 45L25 45L25 49L26 49L26 46L27 46L27 47L28 47L28 48L30 48L30 47L28 47L28 46L30 46L30 45L31 45L31 46L32 46L32 47L33 47L33 46L35 46L35 47L36 47L36 48L34 48L34 50L33 50L33 48L31 48L31 49L32 49L32 51L31 51L31 52L32 52L32 54L34 54L34 55L35 55L35 56L37 56L37 54L35 54L35 53L36 53L36 52L35 52L35 51L34 51L34 50L35 50L35 49L36 49L36 48L38 48L38 50L40 50L40 51L39 51L39 52L40 52L40 55L41 55L41 54L42 54L42 53L43 53L43 52L42 52L42 53L41 53L41 52L40 52L40 51L41 51L41 50L42 50L42 51L43 51L43 50L42 50L42 49L43 49L43 48L44 48L44 47L45 47L45 44L44 44L44 43L45 43L45 42L47 42L47 43L49 43L49 42L47 42L47 41L48 41L48 40L49 40L49 39L47 39L47 37L48 37L48 36L49 36L49 35L46 35L46 34L47 34L47 33L46 33L46 34L45 34L45 32L47 32L47 31L48 31L48 29L46 29L46 30L45 30L45 32L43 32L43 33L44 33L44 34L41 34L41 33L42 33L42 32L40 32L40 31L39 31L39 29L40 29L40 30L42 30L42 31L44 31L44 30L42 30L42 29L43 29L43 28L42 28L42 27L43 27L43 26L45 26L45 27L44 27L44 29L45 29L45 27L46 27L46 28L48 28L48 27L46 27L46 26L47 26L47 25L49 25L49 26L53 26L53 27L55 27L55 26L54 26L54 25L53 25L53 24L51 24L51 23L50 23L50 22L49 22L49 23L48 23L48 24L46 24L46 25L45 25L45 24L44 24L44 25L43 25L43 24L41 24L41 22L42 22L42 23L44 23L44 21L45 21L45 22L46 22L46 23L47 23L47 21L48 21L48 20L49 20L49 18L48 18L48 20L47 20L47 19L46 19L46 18L47 18L47 17L50 17L50 18L51 18L51 17L50 17L50 16L49 16L49 15L46 15L46 16L44 16L44 15L45 15L45 14L44 14L44 15L43 15L43 14L42 14L42 11L44 11L44 13L45 13L45 12L46 12L46 14L47 14L47 13L49 13L49 12L48 12L48 11L49 11L49 10L48 10L48 11L45 11L45 10L47 10L47 9L49 9L49 8L47 8L47 7L46 7L46 5L47 5L47 3L43 3L43 5L42 5L42 2L43 2L43 1L42 1L42 2L41 2L41 1L40 1L40 2L41 2L41 3L40 3L40 5L42 5L42 6L41 6L41 7L40 7L40 6L39 6L39 7L40 7L40 8L39 8L39 9L38 9L38 5L39 5L39 2L38 2L38 1L37 1L37 2L34 2L34 1ZM44 1L44 2L47 2L47 1ZM21 3L21 4L22 4L22 5L24 5L24 4L25 4L25 3L24 3L24 4L22 4L22 3ZM36 3L36 5L35 5L35 6L34 6L34 7L35 7L35 6L36 6L36 7L37 7L37 6L36 6L36 5L38 5L38 4L37 4L37 3ZM44 4L44 5L46 5L46 4ZM27 5L27 8L30 8L30 5ZM20 6L20 7L21 7L21 9L22 9L22 10L20 10L20 11L22 11L22 10L23 10L23 11L24 11L24 12L23 12L23 13L24 13L24 14L25 14L25 15L24 15L24 17L23 17L23 18L24 18L24 19L23 19L23 21L22 21L22 19L21 19L21 18L22 18L22 17L21 17L21 16L22 16L22 14L21 14L21 15L20 15L20 17L21 17L21 18L20 18L20 19L21 19L21 21L19 21L19 19L17 19L17 21L19 21L19 22L18 22L18 23L17 23L17 25L19 25L19 26L18 26L18 27L17 27L17 26L16 26L16 27L15 27L15 26L14 26L14 22L13 22L13 21L12 21L12 22L9 22L9 24L10 24L10 25L11 25L11 24L10 24L10 23L12 23L12 22L13 22L13 25L12 25L12 26L13 26L13 28L14 28L14 29L13 29L13 31L15 31L15 33L12 33L12 34L13 34L13 35L14 35L14 34L15 34L15 36L12 36L12 37L10 37L10 39L9 39L9 37L7 37L7 36L6 36L6 35L7 35L7 34L6 34L6 35L5 35L5 37L7 37L7 38L8 38L8 39L9 39L9 40L10 40L10 41L11 41L11 40L12 40L12 41L13 41L13 40L15 40L15 39L16 39L16 41L18 41L18 42L17 42L17 43L18 43L18 42L20 42L20 44L19 44L19 45L22 45L22 44L21 44L21 43L22 43L22 42L23 42L23 43L24 43L24 44L23 44L23 45L24 45L24 44L25 44L25 45L26 45L26 44L25 44L25 43L24 43L24 42L26 42L26 43L27 43L27 45L29 45L29 44L30 44L30 43L32 43L32 44L31 44L31 45L32 45L32 46L33 46L33 45L32 45L32 44L34 44L34 43L32 43L32 42L33 42L33 41L31 41L31 40L33 40L33 39L31 39L31 38L32 38L32 35L30 35L30 34L29 34L29 35L30 35L30 36L29 36L29 37L28 37L28 36L27 36L27 37L26 37L26 39L25 39L25 40L24 40L24 39L23 39L23 38L24 38L24 37L25 37L25 36L26 36L26 35L27 35L27 33L30 33L30 32L28 32L28 31L32 31L32 32L31 32L31 33L32 33L32 32L33 32L33 34L34 34L34 35L33 35L33 38L34 38L34 40L35 40L35 42L36 42L36 43L35 43L35 46L36 46L36 47L38 47L38 48L41 48L41 49L42 49L42 48L43 48L43 47L42 47L42 46L44 46L44 45L42 45L42 46L36 46L36 45L37 45L37 43L39 43L39 44L38 44L38 45L39 45L39 44L43 44L43 43L44 43L44 40L45 40L45 41L47 41L47 40L46 40L46 38L45 38L45 37L44 37L44 35L43 35L43 36L41 36L41 35L40 35L40 36L39 36L39 34L36 34L36 33L38 33L38 32L36 32L36 30L38 30L38 27L39 27L39 26L38 26L38 24L40 24L40 22L41 22L41 21L40 21L40 20L41 20L41 19L40 19L40 18L43 18L43 19L42 19L42 20L45 20L45 19L44 19L44 18L43 18L43 17L44 17L44 16L43 16L43 15L42 15L42 14L39 14L39 15L40 15L40 16L38 16L38 15L37 15L37 16L36 16L36 13L37 13L37 14L38 14L38 12L39 12L39 13L40 13L40 12L41 12L41 11L42 11L42 10L44 10L44 8L45 8L45 9L47 9L47 8L45 8L45 6L44 6L44 7L43 7L43 6L42 6L42 7L41 7L41 9L39 9L39 10L37 10L37 8L35 8L35 12L34 12L34 11L33 11L33 13L32 13L32 11L31 11L31 12L30 12L30 11L27 11L27 10L26 10L26 11L27 11L27 12L25 12L25 11L24 11L24 10L25 10L25 8L24 8L24 7L25 7L25 6L24 6L24 7L23 7L23 6L22 6L22 7L21 7L21 6ZM28 6L28 7L29 7L29 6ZM22 7L22 9L23 9L23 7ZM15 8L15 9L16 9L16 8ZM42 8L42 9L41 9L41 10L42 10L42 9L43 9L43 8ZM55 8L55 9L56 9L56 8ZM32 9L32 10L33 10L33 9ZM5 10L5 11L7 11L7 10ZM10 10L10 11L11 11L11 10ZM15 10L15 15L16 15L16 17L19 17L19 16L17 16L17 15L16 15L16 13L18 13L18 15L19 15L19 13L22 13L22 12L19 12L19 13L18 13L18 12L17 12L17 11L18 11L18 10L17 10L17 11L16 11L16 10ZM36 10L36 12L35 12L35 13L33 13L33 14L35 14L35 13L36 13L36 12L37 12L37 10ZM13 11L13 12L14 12L14 11ZM39 11L39 12L40 12L40 11ZM24 12L24 13L25 13L25 14L26 14L26 15L25 15L25 16L28 16L28 17L27 17L27 18L28 18L28 20L27 20L27 19L26 19L26 18L25 18L25 19L26 19L26 21L25 21L25 22L26 22L26 23L25 23L25 24L26 24L26 25L25 25L25 26L24 26L24 27L25 27L25 28L24 28L24 29L22 29L22 28L21 28L21 29L19 29L19 30L17 30L17 29L18 29L18 28L17 28L17 27L16 27L16 28L17 28L17 29L16 29L16 30L17 30L17 31L16 31L16 32L18 32L18 31L20 31L20 32L19 32L19 33L16 33L16 35L17 35L17 36L16 36L16 37L15 37L15 38L14 38L14 37L12 37L12 39L15 39L15 38L16 38L16 37L18 37L18 38L17 38L17 39L19 39L19 41L20 41L20 42L22 42L22 41L24 41L24 40L22 40L22 39L21 39L21 38L22 38L22 37L24 37L24 36L25 36L25 34L26 34L26 33L27 33L27 31L26 31L26 32L25 32L25 34L24 34L24 36L22 36L22 35L23 35L23 30L24 30L24 29L25 29L25 30L26 30L26 27L25 27L25 26L26 26L26 25L27 25L27 26L28 26L28 25L29 25L29 24L30 24L30 25L32 25L32 26L35 26L35 25L34 25L34 24L38 24L38 22L39 22L39 20L40 20L40 19L39 19L39 20L37 20L37 19L38 19L38 18L39 18L39 17L38 17L38 16L37 16L37 17L38 17L38 18L37 18L37 19L34 19L34 20L32 20L32 21L34 21L34 22L33 22L33 23L34 23L34 24L32 24L32 23L31 23L31 22L28 22L28 21L31 21L31 20L29 20L29 19L31 19L31 18L32 18L32 19L33 19L33 18L35 18L35 17L36 17L36 16L30 16L30 13L29 13L29 12L28 12L28 13L27 13L27 14L26 14L26 13L25 13L25 12ZM28 13L28 14L27 14L27 15L29 15L29 13ZM31 13L31 15L32 15L32 13ZM12 14L12 15L13 15L13 14ZM0 15L0 17L1 17L1 15ZM8 15L8 16L6 16L6 17L8 17L8 19L7 19L7 18L5 18L5 20L4 20L4 22L5 22L5 21L8 21L8 20L9 20L9 21L10 21L10 20L9 20L9 17L8 17L8 16L10 16L10 15ZM12 16L12 17L13 17L13 16ZM40 16L40 17L42 17L42 16ZM46 16L46 17L45 17L45 18L46 18L46 17L47 17L47 16ZM29 17L29 18L31 18L31 17ZM32 17L32 18L33 18L33 17ZM53 17L53 18L54 18L54 17ZM6 19L6 20L7 20L7 19ZM2 20L2 21L3 21L3 20ZM36 20L36 21L37 21L37 20ZM15 21L15 22L16 22L16 21ZM21 21L21 22L22 22L22 23L21 23L21 25L20 25L20 24L19 24L19 25L20 25L20 26L21 26L21 27L22 27L22 26L21 26L21 25L23 25L23 24L24 24L24 23L23 23L23 22L24 22L24 21L23 21L23 22L22 22L22 21ZM42 21L42 22L43 22L43 21ZM6 22L6 23L5 23L5 25L8 25L8 24L6 24L6 23L8 23L8 22ZM19 22L19 23L20 23L20 22ZM27 22L27 23L28 23L28 24L27 24L27 25L28 25L28 24L29 24L29 23L28 23L28 22ZM34 22L34 23L35 23L35 22ZM36 22L36 23L37 23L37 22ZM15 23L15 24L16 24L16 23ZM22 23L22 24L23 24L23 23ZM30 23L30 24L31 24L31 23ZM49 23L49 25L51 25L51 24L50 24L50 23ZM40 25L40 28L41 28L41 27L42 27L42 26L43 26L43 25ZM37 26L37 27L35 27L35 29L33 29L33 28L34 28L34 27L33 27L33 28L32 28L32 27L31 27L31 28L32 28L32 30L36 30L36 28L37 28L37 27L38 27L38 26ZM5 27L5 30L8 30L8 27ZM14 27L14 28L15 28L15 27ZM19 27L19 28L20 28L20 27ZM27 27L27 30L30 30L30 27ZM49 27L49 30L52 30L52 27ZM6 28L6 29L7 29L7 28ZM28 28L28 29L29 29L29 28ZM50 28L50 29L51 29L51 28ZM3 29L3 30L2 30L2 31L4 31L4 29ZM21 29L21 31L22 31L22 29ZM53 29L53 31L52 31L52 32L54 32L54 33L56 33L56 32L54 32L54 31L55 31L55 30L54 30L54 29ZM9 30L9 31L5 31L5 32L9 32L9 31L10 31L10 30ZM46 30L46 31L47 31L47 30ZM33 31L33 32L34 32L34 34L35 34L35 35L34 35L34 36L35 36L35 37L34 37L34 38L36 38L36 36L38 36L38 35L36 35L36 34L35 34L35 33L36 33L36 32L35 32L35 31ZM20 32L20 33L21 33L21 34L20 34L20 35L19 35L19 34L17 34L17 35L18 35L18 37L20 37L20 36L21 36L21 37L22 37L22 36L21 36L21 34L22 34L22 33L21 33L21 32ZM39 32L39 33L40 33L40 32ZM45 35L45 36L46 36L46 37L47 37L47 36L46 36L46 35ZM30 36L30 38L31 38L31 36ZM40 36L40 37L37 37L37 38L40 38L40 40L39 40L39 39L36 39L36 40L39 40L39 41L38 41L38 42L39 42L39 41L42 41L42 39L43 39L43 40L44 40L44 39L45 39L45 38L44 38L44 37L43 37L43 38L42 38L42 39L41 39L41 36ZM54 36L54 37L55 37L55 36ZM27 37L27 38L28 38L28 37ZM19 38L19 39L20 39L20 38ZM27 39L27 40L28 40L28 41L26 41L26 42L28 42L28 43L30 43L30 42L31 42L31 41L30 41L30 40L31 40L31 39L29 39L29 40L28 40L28 39ZM21 40L21 41L22 41L22 40ZM4 42L4 43L5 43L5 45L6 45L6 46L7 46L7 45L6 45L6 44L7 44L7 43L5 43L5 42ZM41 42L41 43L43 43L43 42ZM1 43L1 45L3 45L3 47L5 47L5 46L4 46L4 45L3 45L3 44L2 44L2 43ZM14 44L14 45L15 45L15 44ZM1 46L1 47L2 47L2 46ZM10 46L10 47L11 47L11 48L14 48L14 49L11 49L11 50L14 50L14 49L15 49L15 47L14 47L14 46L12 46L12 47L11 47L11 46ZM41 47L41 48L42 48L42 47ZM6 48L6 49L7 49L7 48ZM21 49L21 50L22 50L22 49ZM27 49L27 52L30 52L30 49ZM49 49L49 52L52 52L52 49ZM28 50L28 51L29 51L29 50ZM50 50L50 51L51 51L51 50ZM53 50L53 51L54 51L54 50ZM32 51L32 52L33 52L33 51ZM56 51L56 52L57 52L57 51ZM12 53L12 55L14 55L14 54L13 54L13 53ZM29 53L29 54L30 54L30 53ZM53 53L53 54L51 54L51 55L53 55L53 56L54 56L54 55L53 55L53 54L54 54L54 53ZM25 54L25 55L26 55L26 54ZM43 55L43 56L42 56L42 57L44 57L44 55ZM0 0L0 7L7 7L7 0ZM1 1L1 6L6 6L6 1ZM2 2L2 5L5 5L5 2ZM50 0L50 7L57 7L57 0ZM51 1L51 6L56 6L56 1ZM52 2L52 5L55 5L55 2ZM0 50L0 57L7 57L7 50ZM1 51L1 56L6 56L6 51ZM2 52L2 55L5 55L5 52Z" fill="#000000"/></g></g></svg>
