<?xml version="1.0" encoding="UTF-8"?>
<svg xmlns="http://www.w3.org/2000/svg" version="1.1" width="300" height="300" viewBox="0 0 300 300"><rect x="0" y="0" width="300" height="300" fill="#ffffff"/><g transform="scale(4.918)"><g transform="translate(2,2)"><path fill-rule="evenodd" d="M10 0L10 1L8 1L8 2L9 2L9 3L8 3L8 4L9 4L9 5L8 5L8 7L9 7L9 8L6 8L6 9L7 9L7 10L4 10L4 9L5 9L5 8L0 8L0 9L3 9L3 10L4 10L4 11L2 11L2 10L0 10L0 11L2 11L2 14L0 14L0 18L6 18L6 19L4 19L4 20L3 20L3 19L2 19L2 20L3 20L3 21L1 21L1 22L0 22L0 23L1 23L1 22L3 22L3 21L4 21L4 20L6 20L6 21L7 21L7 22L4 22L4 24L3 24L3 23L2 23L2 24L3 24L3 26L2 26L2 25L1 25L1 26L0 26L0 29L1 29L1 30L2 30L2 32L1 32L1 31L0 31L0 35L1 35L1 36L0 36L0 39L2 39L2 40L0 40L0 41L1 41L1 42L0 42L0 43L2 43L2 47L1 47L1 45L0 45L0 48L5 48L5 47L7 47L7 48L6 48L6 49L8 49L8 51L9 51L9 49L8 49L8 47L9 47L9 44L8 44L8 46L6 46L6 45L7 45L7 44L6 44L6 43L7 43L7 42L8 42L8 38L6 38L6 37L8 37L8 36L6 36L6 37L4 37L4 36L5 36L5 35L10 35L10 36L9 36L9 39L10 39L10 37L11 37L11 40L9 40L9 41L11 41L11 42L10 42L10 43L11 43L11 44L13 44L13 45L10 45L10 46L11 46L11 47L10 47L10 49L11 49L11 50L10 50L10 51L11 51L11 52L10 52L10 53L9 53L9 52L8 52L8 57L10 57L10 56L11 56L11 57L12 57L12 56L14 56L14 57L16 57L16 56L17 56L17 57L19 57L19 56L18 56L18 55L20 55L20 54L17 54L17 53L20 53L20 52L21 52L21 51L24 51L24 53L21 53L21 55L23 55L23 56L24 56L24 57L26 57L26 55L27 55L27 56L28 56L28 55L27 55L27 53L28 53L28 54L30 54L30 53L31 53L31 55L33 55L33 54L32 54L32 52L34 52L34 53L35 53L35 55L34 55L34 56L30 56L30 55L29 55L29 56L30 56L30 57L39 57L39 56L40 56L40 52L41 52L41 51L42 51L42 52L43 52L43 53L41 53L41 55L43 55L43 53L44 53L44 54L46 54L46 55L45 55L45 56L46 56L46 57L48 57L48 56L50 56L50 55L51 55L51 57L52 57L52 56L54 56L54 57L56 57L56 56L55 56L55 55L54 55L54 54L55 54L55 53L56 53L56 50L57 50L57 49L56 49L56 48L55 48L55 47L56 47L56 46L57 46L57 43L55 43L55 42L57 42L57 41L54 41L54 40L55 40L55 39L57 39L57 37L56 37L56 36L57 36L57 35L56 35L56 34L57 34L57 33L56 33L56 30L57 30L57 29L56 29L56 28L57 28L57 27L56 27L56 26L57 26L57 23L56 23L56 22L57 22L57 21L53 21L53 22L52 22L52 24L50 24L50 25L47 25L47 26L48 26L48 29L47 29L47 28L46 28L46 27L45 27L45 26L44 26L44 27L42 27L42 28L43 28L43 29L42 29L42 30L41 30L41 31L40 31L40 32L39 32L39 30L40 30L40 29L39 29L39 30L37 30L37 28L35 28L35 27L37 27L37 26L38 26L38 25L37 25L37 24L36 24L36 23L38 23L38 24L39 24L39 23L40 23L40 20L41 20L41 19L42 19L42 18L43 18L43 20L42 20L42 22L41 22L41 24L45 24L45 25L46 25L46 23L47 23L47 22L45 22L45 21L46 21L46 20L45 20L45 19L44 19L44 18L43 18L43 17L44 17L44 16L45 16L45 18L46 18L46 19L47 19L47 21L48 21L48 23L49 23L49 22L50 22L50 23L51 23L51 22L50 22L50 19L51 19L51 20L52 20L52 19L51 19L51 18L50 18L50 17L48 17L48 16L46 16L46 15L50 15L50 16L51 16L51 15L50 15L50 11L52 11L52 12L53 12L53 11L54 11L54 12L56 12L56 14L55 14L55 13L53 13L53 14L55 14L55 15L54 15L54 16L53 16L53 15L52 15L52 16L53 16L53 17L52 17L52 18L53 18L53 19L54 19L54 20L55 20L55 19L56 19L56 20L57 20L57 19L56 19L56 18L57 18L57 17L56 17L56 18L55 18L55 17L54 17L54 16L55 16L55 15L56 15L56 16L57 16L57 15L56 15L56 14L57 14L57 11L56 11L56 10L55 10L55 11L54 11L54 10L53 10L53 9L54 9L54 8L53 8L53 9L52 9L52 8L51 8L51 9L52 9L52 10L49 10L49 9L50 9L50 8L49 8L49 9L48 9L48 8L47 8L47 9L48 9L48 10L46 10L46 11L47 11L47 12L49 12L49 13L47 13L47 14L46 14L46 12L45 12L45 11L44 11L44 8L46 8L46 7L47 7L47 5L48 5L48 0L45 0L45 1L47 1L47 2L44 2L44 0L42 0L42 1L41 1L41 0L40 0L40 1L41 1L41 2L39 2L39 1L37 1L37 0L36 0L36 1L34 1L34 0L33 0L33 1L34 1L34 3L33 3L33 2L31 2L31 4L26 4L26 3L25 3L25 1L26 1L26 0L24 0L24 1L23 1L23 0L21 0L21 2L20 2L20 3L21 3L21 4L19 4L19 3L18 3L18 4L19 4L19 5L17 5L17 6L16 6L16 7L15 7L15 6L14 6L14 5L16 5L16 4L14 4L14 2L13 2L13 3L12 3L12 4L13 4L13 6L12 6L12 7L11 7L11 4L9 4L9 3L10 3L10 1L11 1L11 0ZM13 0L13 1L16 1L16 0ZM27 0L27 3L29 3L29 2L30 2L30 1L31 1L31 0L30 0L30 1L29 1L29 2L28 2L28 0ZM18 1L18 2L19 2L19 1ZM42 1L42 2L41 2L41 3L40 3L40 4L39 4L39 3L38 3L38 4L37 4L37 5L36 5L36 3L37 3L37 2L35 2L35 3L34 3L34 5L33 5L33 3L32 3L32 4L31 4L31 7L32 7L32 8L31 8L31 9L32 9L32 10L31 10L31 11L30 11L30 12L28 12L28 13L25 13L25 12L27 12L27 11L29 11L29 10L28 10L28 9L25 9L25 8L26 8L26 4L25 4L25 8L24 8L24 6L23 6L23 5L24 5L24 4L23 4L23 3L24 3L24 2L22 2L22 4L21 4L21 5L22 5L22 6L21 6L21 8L20 8L20 10L19 10L19 11L20 11L20 12L19 12L19 15L18 15L18 14L17 14L17 13L18 13L18 12L17 12L17 11L18 11L18 10L17 10L17 7L18 7L18 8L19 8L19 7L20 7L20 5L19 5L19 7L18 7L18 6L17 6L17 7L16 7L16 9L15 9L15 8L14 8L14 6L13 6L13 9L15 9L15 10L17 10L17 11L16 11L16 12L17 12L17 13L13 13L13 16L12 16L12 15L11 15L11 16L12 16L12 17L10 17L10 12L11 12L11 11L10 11L10 9L11 9L11 7L10 7L10 5L9 5L9 7L10 7L10 9L9 9L9 10L7 10L7 11L6 11L6 12L5 12L5 13L6 13L6 14L5 14L5 15L4 15L4 16L3 16L3 14L4 14L4 13L3 13L3 14L2 14L2 15L1 15L1 17L2 17L2 16L3 16L3 17L4 17L4 16L5 16L5 15L6 15L6 16L7 16L7 17L6 17L6 18L7 18L7 19L6 19L6 20L8 20L8 18L9 18L9 22L8 22L8 25L9 25L9 22L10 22L10 23L14 23L14 24L16 24L16 25L13 25L13 24L11 24L11 25L12 25L12 26L18 26L18 27L17 27L17 28L18 28L18 29L15 29L15 28L16 28L16 27L13 27L13 28L12 28L12 29L13 29L13 30L11 30L11 29L10 29L10 28L11 28L11 26L10 26L10 27L9 27L9 31L8 31L8 32L7 32L7 31L4 31L4 29L3 29L3 28L2 28L2 29L3 29L3 33L1 33L1 35L2 35L2 36L3 36L3 35L4 35L4 34L3 34L3 33L4 33L4 32L5 32L5 33L6 33L6 34L7 34L7 33L8 33L8 34L10 34L10 32L11 32L11 31L13 31L13 32L12 32L12 33L11 33L11 34L12 34L12 35L11 35L11 37L12 37L12 35L13 35L13 34L14 34L14 36L15 36L15 37L13 37L13 38L12 38L12 39L13 39L13 38L14 38L14 39L16 39L16 40L17 40L17 39L18 39L18 40L19 40L19 41L20 41L20 42L19 42L19 45L20 45L20 48L19 48L19 47L18 47L18 46L17 46L17 45L18 45L18 44L17 44L17 43L18 43L18 42L17 42L17 41L15 41L15 43L14 43L14 45L13 45L13 47L12 47L12 50L14 50L14 49L16 49L16 50L15 50L15 51L14 51L14 54L16 54L16 53L17 53L17 51L18 51L18 52L20 52L20 51L21 51L21 49L24 49L24 48L21 48L21 45L22 45L22 47L25 47L25 48L27 48L27 47L28 47L28 48L29 48L29 47L30 47L30 48L32 48L32 49L31 49L31 50L32 50L32 51L31 51L31 52L32 52L32 51L33 51L33 50L37 50L37 51L36 51L36 52L35 52L35 51L34 51L34 52L35 52L35 53L36 53L36 52L38 52L38 54L37 54L37 56L39 56L39 55L38 55L38 54L39 54L39 52L40 52L40 51L41 51L41 50L42 50L42 51L43 51L43 50L44 50L44 53L46 53L46 54L47 54L47 53L48 53L48 52L47 52L47 51L48 51L48 48L49 48L49 47L51 47L51 48L54 48L54 49L53 49L53 54L51 54L51 53L49 53L49 54L51 54L51 55L53 55L53 54L54 54L54 53L55 53L55 52L54 52L54 51L55 51L55 50L56 50L56 49L55 49L55 48L54 48L54 47L53 47L53 45L51 45L51 44L50 44L50 45L49 45L49 44L47 44L47 45L46 45L46 46L48 46L48 47L45 47L45 46L44 46L44 47L45 47L45 48L42 48L42 47L43 47L43 46L42 46L42 45L43 45L43 44L41 44L41 43L44 43L44 42L46 42L46 43L47 43L47 42L48 42L48 43L49 43L49 42L48 42L48 41L51 41L51 42L50 42L50 43L51 43L51 42L53 42L53 43L52 43L52 44L53 44L53 43L54 43L54 41L53 41L53 40L54 40L54 38L56 38L56 37L55 37L55 36L56 36L56 35L55 35L55 34L56 34L56 33L55 33L55 32L53 32L53 31L55 31L55 30L53 30L53 31L51 31L51 32L50 32L50 31L48 31L48 30L47 30L47 29L46 29L46 30L44 30L44 29L45 29L45 27L44 27L44 29L43 29L43 30L42 30L42 31L43 31L43 30L44 30L44 31L45 31L45 32L43 32L43 33L45 33L45 34L44 34L44 37L43 37L43 38L42 38L42 39L41 39L41 37L42 37L42 36L40 36L40 35L43 35L43 34L40 34L40 33L41 33L41 32L40 32L40 33L39 33L39 32L38 32L38 31L35 31L35 32L34 32L34 34L32 34L32 33L33 33L33 32L32 32L32 31L33 31L33 30L35 30L35 29L33 29L33 28L34 28L34 26L35 26L35 25L36 25L36 26L37 26L37 25L36 25L36 24L35 24L35 23L36 23L36 22L39 22L39 20L40 20L40 19L41 19L41 18L42 18L42 16L44 16L44 15L45 15L45 14L42 14L42 10L41 10L41 8L39 8L39 9L38 9L38 10L36 10L36 11L34 11L34 12L37 12L37 11L38 11L38 10L39 10L39 11L41 11L41 12L38 12L38 13L36 13L36 14L35 14L35 13L33 13L33 9L34 9L34 10L35 10L35 9L36 9L36 8L37 8L37 7L38 7L38 6L37 6L37 5L39 5L39 7L40 7L40 6L41 6L41 7L42 7L42 8L44 8L44 6L45 6L45 7L46 7L46 5L47 5L47 3L43 3L43 7L42 7L42 5L40 5L40 4L41 4L41 3L42 3L42 2L43 2L43 1ZM15 2L15 3L16 3L16 2ZM22 4L22 5L23 5L23 4ZM44 4L44 5L45 5L45 4ZM27 5L27 8L30 8L30 5ZM34 5L34 8L36 8L36 7L37 7L37 6L36 6L36 5ZM22 6L22 8L23 8L23 9L21 9L21 10L22 10L22 11L21 11L21 12L20 12L20 13L21 13L21 14L20 14L20 15L19 15L19 16L18 16L18 17L17 17L17 14L15 14L15 15L14 15L14 16L15 16L15 17L14 17L14 18L15 18L15 17L17 17L17 19L18 19L18 21L20 21L20 20L19 20L19 19L21 19L21 21L22 21L22 22L24 22L24 21L25 21L25 22L26 22L26 23L25 23L25 24L24 24L24 23L23 23L23 24L24 24L24 25L23 25L23 26L25 26L25 27L23 27L23 29L24 29L24 30L22 30L22 31L21 31L21 30L20 30L20 29L22 29L22 28L20 28L20 25L21 25L21 27L22 27L22 25L21 25L21 24L22 24L22 23L21 23L21 24L20 24L20 25L19 25L19 23L20 23L20 22L19 22L19 23L18 23L18 24L17 24L17 21L16 21L16 19L15 19L15 21L16 21L16 22L15 22L15 23L16 23L16 24L17 24L17 25L18 25L18 26L19 26L19 28L20 28L20 29L18 29L18 30L20 30L20 31L21 31L21 32L18 32L18 33L19 33L19 34L18 34L18 35L20 35L20 33L21 33L21 35L23 35L23 37L22 37L22 36L21 36L21 37L19 37L19 36L17 36L17 38L18 38L18 37L19 37L19 38L20 38L20 39L19 39L19 40L21 40L21 39L22 39L22 38L23 38L23 39L24 39L24 40L23 40L23 41L21 41L21 42L20 42L20 43L21 43L21 44L20 44L20 45L21 45L21 44L22 44L22 45L24 45L24 46L25 46L25 45L26 45L26 44L27 44L27 45L29 45L29 46L30 46L30 47L31 47L31 45L32 45L32 46L33 46L33 47L32 47L32 48L33 48L33 49L37 49L37 50L38 50L38 52L39 52L39 50L38 50L38 48L33 48L33 47L35 47L35 46L36 46L36 45L38 45L38 44L40 44L40 43L39 43L39 42L38 42L38 41L37 41L37 40L38 40L38 39L39 39L39 38L40 38L40 36L38 36L38 35L40 35L40 34L37 34L37 33L38 33L38 32L35 32L35 33L36 33L36 34L34 34L34 35L33 35L33 36L34 36L34 35L37 35L37 36L36 36L36 37L37 37L37 36L38 36L38 37L39 37L39 38L36 38L36 39L37 39L37 40L35 40L35 39L34 39L34 38L33 38L33 39L34 39L34 40L35 40L35 41L36 41L36 43L35 43L35 46L33 46L33 45L32 45L32 44L34 44L34 41L33 41L33 43L32 43L32 44L28 44L28 43L31 43L31 42L32 42L32 41L31 41L31 40L32 40L32 39L31 39L31 38L32 38L32 35L31 35L31 33L32 33L32 32L31 32L31 31L32 31L32 30L31 30L31 29L32 29L32 28L31 28L31 27L33 27L33 25L35 25L35 24L34 24L34 23L35 23L35 22L33 22L33 21L34 21L34 20L33 20L33 19L32 19L32 17L29 17L29 16L28 16L28 15L29 15L29 14L30 14L30 16L34 16L34 17L33 17L33 18L34 18L34 19L40 19L40 18L37 18L37 17L38 17L38 15L39 15L39 14L36 14L36 15L37 15L37 16L34 16L34 15L35 15L35 14L33 14L33 13L32 13L32 12L31 12L31 14L30 14L30 13L28 13L28 14L27 14L27 16L25 16L25 15L26 15L26 14L25 14L25 13L24 13L24 12L23 12L23 11L25 11L25 9L24 9L24 8L23 8L23 6ZM28 6L28 7L29 7L29 6ZM32 6L32 7L33 7L33 6ZM35 6L35 7L36 7L36 6ZM48 6L48 7L49 7L49 6ZM55 8L55 9L56 9L56 8ZM12 10L12 11L13 11L13 12L14 12L14 11L13 11L13 10ZM26 10L26 11L27 11L27 10ZM52 10L52 11L53 11L53 10ZM9 11L9 12L10 12L10 11ZM0 12L0 13L1 13L1 12ZM6 12L6 13L8 13L8 12ZM21 12L21 13L22 13L22 15L23 15L23 14L24 14L24 15L25 15L25 14L24 14L24 13L22 13L22 12ZM43 12L43 13L45 13L45 12ZM11 13L11 14L12 14L12 13ZM51 13L51 14L52 14L52 13ZM6 14L6 15L7 15L7 16L8 16L8 17L9 17L9 15L7 15L7 14ZM31 14L31 15L33 15L33 14ZM40 14L40 16L39 16L39 17L40 17L40 16L41 16L41 15L42 15L42 14ZM15 15L15 16L16 16L16 15ZM20 15L20 16L19 16L19 17L18 17L18 19L19 19L19 17L20 17L20 18L21 18L21 19L22 19L22 21L24 21L24 20L25 20L25 18L27 18L27 19L26 19L26 21L27 21L27 20L28 20L28 21L29 21L29 22L28 22L28 23L27 23L27 24L25 24L25 26L26 26L26 25L27 25L27 26L29 26L29 24L28 24L28 23L29 23L29 22L30 22L30 23L31 23L31 24L33 24L33 23L31 23L31 22L30 22L30 21L29 21L29 20L31 20L31 18L29 18L29 20L28 20L28 18L27 18L27 17L28 17L28 16L27 16L27 17L25 17L25 18L24 18L24 19L23 19L23 18L21 18L21 17L20 17L20 16L21 16L21 15ZM22 16L22 17L24 17L24 16ZM34 17L34 18L35 18L35 17ZM46 17L46 18L47 18L47 17ZM12 18L12 20L11 20L11 21L12 21L12 22L14 22L14 21L13 21L13 20L14 20L14 19L13 19L13 18ZM48 18L48 21L49 21L49 19L50 19L50 18ZM0 19L0 20L1 20L1 19ZM32 20L32 21L33 21L33 20ZM36 20L36 21L38 21L38 20ZM43 20L43 22L42 22L42 23L44 23L44 21L45 21L45 20ZM53 22L53 23L54 23L54 22ZM5 23L5 25L6 25L6 26L7 26L7 25L6 25L6 24L7 24L7 23ZM27 24L27 25L28 25L28 24ZM52 24L52 25L53 25L53 27L55 27L55 28L54 28L54 29L55 29L55 28L56 28L56 27L55 27L55 26L56 26L56 25L55 25L55 24ZM31 25L31 26L32 26L32 25ZM39 25L39 26L43 26L43 25ZM50 25L50 26L51 26L51 25ZM54 25L54 26L55 26L55 25ZM5 27L5 30L8 30L8 27ZM25 27L25 28L24 28L24 29L25 29L25 30L26 30L26 27ZM27 27L27 30L30 30L30 27ZM38 27L38 28L41 28L41 27ZM49 27L49 30L52 30L52 27ZM6 28L6 29L7 29L7 28ZM28 28L28 29L29 29L29 28ZM50 28L50 29L51 29L51 28ZM13 30L13 31L14 31L14 32L13 32L13 33L17 33L17 32L15 32L15 31L14 31L14 30ZM16 30L16 31L17 31L17 30ZM46 30L46 31L47 31L47 32L46 32L46 33L47 33L47 34L45 34L45 36L46 36L46 37L44 37L44 38L46 38L46 39L50 39L50 40L51 40L51 41L52 41L52 40L53 40L53 38L54 38L54 36L55 36L55 35L54 35L54 36L53 36L53 34L52 34L52 37L53 37L53 38L52 38L52 40L51 40L51 39L50 39L50 37L51 37L51 36L50 36L50 37L49 37L49 35L50 35L50 33L49 33L49 34L48 34L48 33L47 33L47 32L48 32L48 31L47 31L47 30ZM9 31L9 32L8 32L8 33L9 33L9 32L10 32L10 31ZM22 31L22 33L24 33L24 32L23 32L23 31ZM25 31L25 32L26 32L26 33L25 33L25 34L24 34L24 36L25 36L25 38L26 38L26 37L28 37L28 38L27 38L27 39L25 39L25 42L23 42L23 43L25 43L25 44L24 44L24 45L25 45L25 44L26 44L26 43L27 43L27 42L31 42L31 41L30 41L30 40L31 40L31 39L29 39L29 35L30 35L30 34L29 34L29 33L30 33L30 32L29 32L29 31ZM6 32L6 33L7 33L7 32ZM27 32L27 33L26 33L26 34L25 34L25 35L27 35L27 33L29 33L29 32ZM51 32L51 33L53 33L53 32ZM54 33L54 34L55 34L55 33ZM2 34L2 35L3 35L3 34ZM15 34L15 35L16 35L16 34ZM30 36L30 38L31 38L31 36ZM47 36L47 37L46 37L46 38L49 38L49 37L48 37L48 36ZM1 37L1 38L2 38L2 39L3 39L3 38L4 38L4 39L6 39L6 40L5 40L5 41L4 41L4 40L2 40L2 43L4 43L4 44L5 44L5 43L6 43L6 42L7 42L7 41L6 41L6 40L7 40L7 39L6 39L6 38L4 38L4 37L3 37L3 38L2 38L2 37ZM15 37L15 38L16 38L16 37ZM21 37L21 38L22 38L22 37ZM23 37L23 38L24 38L24 37ZM27 39L27 41L26 41L26 42L27 42L27 41L29 41L29 40L28 40L28 39ZM40 39L40 40L39 40L39 41L40 41L40 40L41 40L41 39ZM44 39L44 40L43 40L43 41L42 41L42 42L43 42L43 41L44 41L44 40L45 40L45 41L46 41L46 40L45 40L45 39ZM3 41L3 42L4 42L4 41ZM11 42L11 43L13 43L13 42ZM16 42L16 43L17 43L17 42ZM21 42L21 43L22 43L22 42ZM36 43L36 44L38 44L38 43ZM15 44L15 45L14 45L14 46L15 46L15 45L17 45L17 44ZM44 44L44 45L45 45L45 44ZM54 44L54 45L56 45L56 44ZM3 45L3 47L5 47L5 45ZM48 45L48 46L49 46L49 45ZM26 46L26 47L27 47L27 46ZM37 46L37 47L39 47L39 48L41 48L41 47L42 47L42 46ZM14 47L14 48L13 48L13 49L14 49L14 48L16 48L16 49L19 49L19 50L18 50L18 51L19 51L19 50L20 50L20 49L21 49L21 48L20 48L20 49L19 49L19 48L17 48L17 47ZM25 49L25 50L26 50L26 49ZM27 49L27 52L30 52L30 49ZM40 49L40 50L41 50L41 49ZM42 49L42 50L43 50L43 49ZM44 49L44 50L46 50L46 51L45 51L45 52L46 52L46 51L47 51L47 50L46 50L46 49ZM49 49L49 52L52 52L52 49ZM28 50L28 51L29 51L29 50ZM50 50L50 51L51 51L51 50ZM15 51L15 53L16 53L16 51ZM25 51L25 52L26 52L26 51ZM11 52L11 53L12 53L12 54L13 54L13 53L12 53L12 52ZM24 53L24 54L23 54L23 55L24 55L24 56L25 56L25 55L26 55L26 53ZM9 54L9 56L10 56L10 55L11 55L11 54ZM15 55L15 56L16 56L16 55ZM47 55L47 56L48 56L48 55ZM41 56L41 57L42 57L42 56ZM43 56L43 57L44 57L44 56ZM0 0L0 7L7 7L7 0ZM1 1L1 6L6 6L6 1ZM2 2L2 5L5 5L5 2ZM50 0L50 7L57 7L57 0ZM51 1L51 6L56 6L56 1ZM52 2L52 5L55 5L55 2ZM0 50L0 57L7 57L7 50ZM1 51L1 56L6 56L6 51ZM2 52L2 55L5 55L5 52Z" fill="#000000"/></g></g></svg>
