<?xml version="1.0" encoding="UTF-8"?>
<svg xmlns="http://www.w3.org/2000/svg" version="1.1" width="300" height="300" viewBox="0 0 300 300"><rect x="0" y="0" width="300" height="300" fill="#ffffff"/><g transform="scale(4.918)"><g transform="translate(2,2)"><path fill-rule="evenodd" d="M10 0L10 2L9 2L9 1L8 1L8 2L9 2L9 3L8 3L8 4L10 4L10 2L12 2L12 1L11 1L11 0ZM14 0L14 1L15 1L15 2L13 2L13 4L12 4L12 3L11 3L11 4L12 4L12 5L11 5L11 6L10 6L10 7L11 7L11 8L6 8L6 9L5 9L5 8L0 8L0 9L5 9L5 12L6 12L6 13L8 13L8 10L9 10L9 9L12 9L12 7L13 7L13 6L14 6L14 7L15 7L15 8L16 8L16 9L19 9L19 10L18 10L18 11L17 11L17 10L15 10L15 9L14 9L14 8L13 8L13 9L14 9L14 10L13 10L13 11L12 11L12 10L11 10L11 11L10 11L10 12L9 12L9 13L10 13L10 15L9 15L9 14L6 14L6 15L7 15L7 16L5 16L5 15L4 15L4 16L3 16L3 19L4 19L4 20L2 20L2 21L0 21L0 33L1 33L1 30L3 30L3 27L2 27L2 26L3 26L3 25L4 25L4 32L2 32L2 34L5 34L5 33L4 33L4 32L6 32L6 33L9 33L9 29L10 29L10 28L11 28L11 30L10 30L10 32L12 32L12 34L13 34L13 35L14 35L14 34L15 34L15 36L14 36L14 38L12 38L12 37L13 37L13 36L11 36L11 37L10 37L10 35L11 35L11 33L10 33L10 34L9 34L9 35L8 35L8 34L6 34L6 35L8 35L8 36L5 36L5 35L2 35L2 36L1 36L1 35L0 35L0 36L1 36L1 37L2 37L2 38L4 38L4 39L3 39L3 40L0 40L0 42L1 42L1 43L3 43L3 44L2 44L2 45L3 45L3 44L4 44L4 43L3 43L3 42L6 42L6 43L5 43L5 44L6 44L6 45L4 45L4 46L5 46L5 47L3 47L3 46L2 46L2 47L1 47L1 44L0 44L0 48L5 48L5 47L8 47L8 48L6 48L6 49L8 49L8 51L10 51L10 52L8 52L8 57L9 57L9 56L11 56L11 57L12 57L12 56L13 56L13 57L14 57L14 55L12 55L12 54L10 54L10 55L9 55L9 53L11 53L11 52L13 52L13 54L15 54L15 55L16 55L16 56L15 56L15 57L22 57L22 56L23 56L23 57L26 57L26 56L28 56L28 55L27 55L27 53L28 53L28 54L30 54L30 53L31 53L31 56L30 56L30 55L29 55L29 56L30 56L30 57L31 57L31 56L33 56L33 55L34 55L34 56L35 56L35 57L38 57L38 56L37 56L37 55L38 55L38 52L36 52L36 51L35 51L35 50L33 50L33 51L32 51L32 50L31 50L31 49L32 49L32 48L33 48L33 49L35 49L35 48L36 48L36 50L37 50L37 51L39 51L39 50L37 50L37 48L38 48L38 49L39 49L39 48L43 48L43 49L41 49L41 50L44 50L44 48L45 48L45 50L46 50L46 51L45 51L45 53L44 53L44 51L42 51L42 52L41 52L41 51L40 51L40 52L39 52L39 55L40 55L40 52L41 52L41 54L42 54L42 55L41 55L41 56L43 56L43 57L44 57L44 56L46 56L46 57L47 57L47 56L48 56L48 55L49 55L49 56L50 56L50 55L51 55L51 57L52 57L52 56L55 56L55 57L56 57L56 56L55 56L55 55L54 55L54 54L55 54L55 53L56 53L56 52L57 52L57 51L56 51L56 50L57 50L57 48L56 48L56 46L57 46L57 45L56 45L56 46L55 46L55 45L54 45L54 44L56 44L56 43L55 43L55 42L57 42L57 41L55 41L55 39L57 39L57 37L56 37L56 36L57 36L57 35L56 35L56 34L57 34L57 33L56 33L56 32L57 32L57 31L56 31L56 30L57 30L57 29L56 29L56 26L55 26L55 25L54 25L54 24L57 24L57 23L56 23L56 22L57 22L57 21L55 21L55 22L54 22L54 20L56 20L56 19L55 19L55 18L57 18L57 15L56 15L56 14L57 14L57 12L55 12L55 11L56 11L56 10L55 10L55 11L54 11L54 10L53 10L53 11L52 11L52 10L49 10L49 9L50 9L50 8L49 8L49 6L48 6L48 8L49 8L49 9L47 9L47 10L45 10L45 11L43 11L43 10L44 10L44 8L45 8L45 6L46 6L46 7L47 7L47 5L48 5L48 0L44 0L44 1L47 1L47 2L42 2L42 1L43 1L43 0L42 0L42 1L41 1L41 2L39 2L39 1L36 1L36 0L35 0L35 1L33 1L33 2L32 2L32 1L31 1L31 0L30 0L30 1L29 1L29 0L28 0L28 1L29 1L29 2L27 2L27 1L25 1L25 0L23 0L23 2L22 2L22 0L21 0L21 1L20 1L20 0L19 0L19 1L20 1L20 2L21 2L21 4L19 4L19 2L17 2L17 1L15 1L15 0ZM30 1L30 2L29 2L29 3L27 3L27 2L25 2L25 3L26 3L26 4L25 4L25 8L24 8L24 6L23 6L23 5L24 5L24 4L23 4L23 3L24 3L24 2L23 2L23 3L22 3L22 4L21 4L21 7L22 7L22 6L23 6L23 8L22 8L22 9L21 9L21 8L19 8L19 9L20 9L20 10L19 10L19 11L20 11L20 12L21 12L21 13L19 13L19 14L17 14L17 13L18 13L18 12L17 12L17 11L15 11L15 13L13 13L13 12L14 12L14 11L13 11L13 12L12 12L12 13L11 13L11 15L12 15L12 17L10 17L10 16L8 16L8 17L10 17L10 18L8 18L8 20L9 20L9 19L10 19L10 21L8 21L8 22L7 22L7 21L5 21L5 23L4 23L4 21L3 21L3 22L2 22L2 23L1 23L1 24L2 24L2 25L1 25L1 26L2 26L2 25L3 25L3 24L4 24L4 25L5 25L5 26L7 26L7 25L6 25L6 24L7 24L7 23L8 23L8 25L9 25L9 22L10 22L10 23L12 23L12 27L11 27L11 26L9 26L9 28L10 28L10 27L11 27L11 28L12 28L12 27L13 27L13 28L15 28L15 27L16 27L16 28L18 28L18 29L16 29L16 31L15 31L15 29L13 29L13 31L12 31L12 32L13 32L13 31L15 31L15 32L14 32L14 33L16 33L16 34L17 34L17 33L16 33L16 31L18 31L18 29L20 29L20 30L19 30L19 33L18 33L18 34L19 34L19 35L16 35L16 36L15 36L15 37L16 37L16 38L15 38L15 39L16 39L16 40L14 40L14 39L12 39L12 41L11 41L11 42L12 42L12 43L13 43L13 42L12 42L12 41L13 41L13 40L14 40L14 41L15 41L15 42L16 42L16 43L18 43L18 42L19 42L19 44L21 44L21 45L19 45L19 47L18 47L18 46L17 46L17 45L18 45L18 44L17 44L17 45L16 45L16 46L17 46L17 47L16 47L16 48L17 48L17 47L18 47L18 48L19 48L19 49L16 49L16 51L19 51L19 50L21 50L21 52L20 52L20 53L18 53L18 52L16 52L16 53L15 53L15 54L16 54L16 53L17 53L17 56L18 56L18 54L20 54L20 55L19 55L19 56L21 56L21 55L22 55L22 53L24 53L24 54L23 54L23 55L24 55L24 56L26 56L26 55L25 55L25 53L26 53L26 51L25 51L25 50L26 50L26 49L25 49L25 50L23 50L23 48L22 48L22 47L24 47L24 45L25 45L25 48L27 48L27 47L28 47L28 48L32 48L32 47L29 47L29 46L31 46L31 45L33 45L33 46L35 46L35 47L34 47L34 48L35 48L35 47L36 47L36 48L37 48L37 47L38 47L38 48L39 48L39 46L42 46L42 47L43 47L43 48L44 48L44 47L45 47L45 46L44 46L44 47L43 47L43 46L42 46L42 45L43 45L43 44L40 44L40 43L44 43L44 45L45 45L45 42L46 42L46 43L47 43L47 42L48 42L48 43L49 43L49 41L51 41L51 42L50 42L50 43L51 43L51 42L53 42L53 43L52 43L52 44L53 44L53 43L54 43L54 41L51 41L51 40L53 40L53 39L51 39L51 38L49 38L49 39L48 39L48 38L47 38L47 37L49 37L49 36L50 36L50 35L51 35L51 37L52 37L52 38L54 38L54 37L55 37L55 36L56 36L56 35L55 35L55 36L54 36L54 37L52 37L52 34L53 34L53 35L54 35L54 34L53 34L53 33L51 33L51 34L50 34L50 31L48 31L48 29L46 29L46 30L45 30L45 31L46 31L46 30L47 30L47 31L48 31L48 32L46 32L46 33L45 33L45 32L44 32L44 29L45 29L45 27L46 27L46 28L47 28L47 27L48 27L48 26L47 26L47 25L49 25L49 24L47 24L47 21L46 21L46 20L48 20L48 19L50 19L50 22L49 22L49 23L50 23L50 24L52 24L52 25L53 25L53 27L55 27L55 26L54 26L54 25L53 25L53 24L52 24L52 23L53 23L53 20L52 20L52 21L51 21L51 19L50 19L50 18L51 18L51 17L50 17L50 18L47 18L47 17L46 17L46 18L45 18L45 16L44 16L44 15L45 15L45 12L46 12L46 14L47 14L47 13L49 13L49 14L51 14L51 15L53 15L53 16L52 16L52 17L53 17L53 18L52 18L52 19L53 19L53 18L54 18L54 17L55 17L55 16L56 16L56 15L55 15L55 16L54 16L54 14L53 14L53 13L55 13L55 14L56 14L56 13L55 13L55 12L54 12L54 11L53 11L53 12L52 12L52 11L49 11L49 12L47 12L47 11L45 11L45 12L44 12L44 13L43 13L43 14L42 14L42 10L41 10L41 9L42 9L42 8L44 8L44 6L45 6L45 5L44 5L44 4L46 4L46 5L47 5L47 3L42 3L42 4L43 4L43 5L40 5L40 4L41 4L41 3L40 3L40 4L39 4L39 3L37 3L37 2L36 2L36 1L35 1L35 2L33 2L33 3L32 3L32 4L31 4L31 9L32 9L32 10L35 10L35 11L34 11L34 12L37 12L37 11L39 11L39 9L40 9L40 11L41 11L41 12L38 12L38 13L33 13L33 11L31 11L31 10L30 10L30 12L28 12L28 13L26 13L26 14L25 14L25 15L26 15L26 16L25 16L25 19L26 19L26 21L27 21L27 23L29 23L29 22L30 22L30 23L31 23L31 22L30 22L30 21L31 21L31 20L30 20L30 19L33 19L33 20L32 20L32 21L33 21L33 23L34 23L34 24L35 24L35 23L36 23L36 24L38 24L38 22L40 22L40 23L39 23L39 24L40 24L40 26L41 26L41 24L42 24L42 23L43 23L43 24L44 24L44 25L43 25L43 26L44 26L44 29L43 29L43 28L42 28L42 27L41 27L41 28L40 28L40 27L38 27L38 26L39 26L39 25L38 25L38 26L37 26L37 27L36 27L36 26L35 26L35 25L33 25L33 24L32 24L32 25L31 25L31 24L25 24L25 23L26 23L26 22L25 22L25 21L24 21L24 20L23 20L23 18L21 18L21 17L20 17L20 16L21 16L21 15L22 15L22 17L24 17L24 15L23 15L23 14L24 14L24 13L25 13L25 12L27 12L27 11L29 11L29 9L28 9L28 10L27 10L27 9L25 9L25 8L26 8L26 4L29 4L29 3L31 3L31 1ZM16 2L16 3L14 3L14 4L13 4L13 5L12 5L12 6L11 6L11 7L12 7L12 6L13 6L13 5L14 5L14 6L15 6L15 7L16 7L16 8L17 8L17 7L18 7L18 5L19 5L19 7L20 7L20 5L19 5L19 4L18 4L18 3L17 3L17 2ZM36 3L36 5L35 5L35 6L34 6L34 5L33 5L33 6L32 6L32 7L33 7L33 6L34 6L34 8L33 8L33 9L34 9L34 8L35 8L35 9L37 9L37 10L36 10L36 11L37 11L37 10L38 10L38 9L37 9L37 8L38 8L38 7L39 7L39 8L41 8L41 6L40 6L40 7L39 7L39 6L38 6L38 7L37 7L37 6L36 6L36 5L38 5L38 4L37 4L37 3ZM14 4L14 5L16 5L16 4ZM17 4L17 5L18 5L18 4ZM22 4L22 5L23 5L23 4ZM8 5L8 7L9 7L9 5ZM27 5L27 8L30 8L30 5ZM16 6L16 7L17 7L17 6ZM28 6L28 7L29 7L29 6ZM35 6L35 8L37 8L37 7L36 7L36 6ZM42 6L42 7L43 7L43 6ZM23 8L23 9L22 9L22 11L21 11L21 12L22 12L22 13L21 13L21 14L20 14L20 15L18 15L18 16L16 16L16 15L17 15L17 14L15 14L15 15L14 15L14 14L13 14L13 13L12 13L12 15L14 15L14 16L15 16L15 17L12 17L12 19L11 19L11 18L10 18L10 19L11 19L11 21L12 21L12 23L13 23L13 22L14 22L14 21L12 21L12 20L14 20L14 19L13 19L13 18L15 18L15 21L16 21L16 22L15 22L15 23L16 23L16 25L15 25L15 24L13 24L13 25L14 25L14 26L16 26L16 27L18 27L18 26L19 26L19 28L20 28L20 29L22 29L22 28L20 28L20 24L19 24L19 23L20 23L20 22L19 22L19 23L17 23L17 21L20 21L20 20L21 20L21 21L22 21L22 22L24 22L24 21L22 21L22 20L21 20L21 19L19 19L19 18L16 18L16 17L19 17L19 16L20 16L20 15L21 15L21 14L22 14L22 13L24 13L24 12L25 12L25 9L24 9L24 8ZM51 8L51 9L52 9L52 8ZM53 8L53 9L54 9L54 8ZM55 8L55 9L56 9L56 8ZM6 9L6 10L7 10L7 9ZM23 9L23 10L24 10L24 9ZM0 10L0 11L1 11L1 12L0 12L0 14L1 14L1 15L3 15L3 14L4 14L4 13L2 13L2 14L1 14L1 12L3 12L3 10ZM26 10L26 11L27 11L27 10ZM6 11L6 12L7 12L7 11ZM23 11L23 12L24 12L24 11ZM16 12L16 13L17 13L17 12ZM31 12L31 14L30 14L30 13L28 13L28 14L26 14L26 15L27 15L27 16L26 16L26 17L27 17L27 18L28 18L28 19L29 19L29 18L34 18L34 19L38 19L38 21L37 21L37 20L36 20L36 21L37 21L37 22L36 22L36 23L37 23L37 22L38 22L38 21L40 21L40 20L42 20L42 21L41 21L41 23L40 23L40 24L41 24L41 23L42 23L42 22L43 22L43 20L46 20L46 19L47 19L47 18L46 18L46 19L44 19L44 18L43 18L43 17L44 17L44 16L43 16L43 15L42 15L42 14L40 14L40 13L39 13L39 14L33 14L33 13L32 13L32 12ZM50 12L50 13L51 13L51 14L52 14L52 13L51 13L51 12ZM29 14L29 15L28 15L28 16L27 16L27 17L28 17L28 16L29 16L29 17L34 17L34 18L35 18L35 16L38 16L38 17L37 17L37 18L39 18L39 17L40 17L40 18L41 18L41 19L43 19L43 18L41 18L41 17L42 17L42 15L41 15L41 16L39 16L39 15L33 15L33 16L30 16L30 14ZM31 14L31 15L32 15L32 14ZM46 15L46 16L50 16L50 15ZM0 16L0 17L1 17L1 18L2 18L2 16ZM4 16L4 17L5 17L5 16ZM53 16L53 17L54 17L54 16ZM6 17L6 18L4 18L4 19L6 19L6 20L7 20L7 19L6 19L6 18L7 18L7 17ZM17 19L17 20L16 20L16 21L17 21L17 20L18 20L18 19ZM39 19L39 20L40 20L40 19ZM29 20L29 21L28 21L28 22L29 22L29 21L30 21L30 20ZM33 20L33 21L35 21L35 20ZM44 21L44 23L45 23L45 25L44 25L44 26L46 26L46 27L47 27L47 26L46 26L46 25L47 25L47 24L46 24L46 22L45 22L45 21ZM6 22L6 23L7 23L7 22ZM50 22L50 23L51 23L51 22ZM23 23L23 24L24 24L24 25L23 25L23 28L25 28L25 27L26 27L26 30L25 30L25 29L23 29L23 30L22 30L22 31L21 31L21 30L20 30L20 31L21 31L21 32L20 32L20 33L21 33L21 34L20 34L20 35L21 35L21 34L22 34L22 33L21 33L21 32L23 32L23 31L24 31L24 33L23 33L23 34L25 34L25 35L24 35L24 36L23 36L23 35L22 35L22 36L21 36L21 37L19 37L19 36L18 36L18 37L17 37L17 38L18 38L18 39L17 39L17 40L18 40L18 41L17 41L17 42L18 42L18 41L19 41L19 42L20 42L20 41L19 41L19 40L22 40L22 39L21 39L21 37L22 37L22 38L23 38L23 39L24 39L24 40L23 40L23 41L24 41L24 42L25 42L25 41L24 41L24 40L25 40L25 39L27 39L27 41L26 41L26 42L27 42L27 41L28 41L28 39L27 39L27 38L28 38L28 37L27 37L27 38L25 38L25 37L26 37L26 36L27 36L27 35L26 35L26 34L25 34L25 31L27 31L27 32L26 32L26 33L29 33L29 34L30 34L30 35L29 35L29 39L31 39L31 38L32 38L32 35L31 35L31 34L32 34L32 32L33 32L33 34L34 34L34 35L33 35L33 37L35 37L35 35L38 35L38 36L36 36L36 40L35 40L35 41L36 41L36 42L38 42L38 41L39 41L39 43L40 43L40 42L43 42L43 41L44 41L44 42L45 42L45 41L44 41L44 40L45 40L45 39L46 39L46 38L45 38L45 37L44 37L44 35L42 35L42 34L43 34L43 33L44 33L44 34L45 34L45 36L48 36L48 35L49 35L49 34L48 34L48 33L47 33L47 34L45 34L45 33L44 33L44 32L43 32L43 31L42 31L42 30L43 30L43 29L42 29L42 30L41 30L41 29L40 29L40 28L38 28L38 27L37 27L37 28L36 28L36 27L34 27L34 28L33 28L33 29L35 29L35 28L36 28L36 30L33 30L33 31L32 31L32 28L31 28L31 25L29 25L29 26L27 26L27 25L26 25L26 26L25 26L25 24L24 24L24 23ZM16 25L16 26L18 26L18 25ZM21 25L21 27L22 27L22 25ZM32 25L32 26L33 26L33 25ZM50 25L50 26L51 26L51 25ZM24 26L24 27L25 27L25 26ZM1 27L1 29L2 29L2 27ZM5 27L5 30L8 30L8 27ZM27 27L27 30L30 30L30 27ZM49 27L49 30L52 30L52 27ZM6 28L6 29L7 29L7 28ZM28 28L28 29L29 29L29 28ZM37 28L37 29L38 29L38 30L37 30L37 31L36 31L36 32L35 32L35 31L33 31L33 32L35 32L35 33L34 33L34 34L36 34L36 32L37 32L37 34L40 34L40 35L39 35L39 36L40 36L40 38L39 38L39 37L38 37L38 39L39 39L39 41L41 41L41 40L42 40L42 41L43 41L43 40L42 40L42 39L41 39L41 37L43 37L43 39L45 39L45 38L44 38L44 37L43 37L43 36L40 36L40 35L41 35L41 34L42 34L42 33L43 33L43 32L42 32L42 31L41 31L41 30L39 30L39 29L38 29L38 28ZM50 28L50 29L51 29L51 28ZM54 28L54 29L53 29L53 30L56 30L56 29L55 29L55 28ZM24 30L24 31L25 31L25 30ZM6 31L6 32L7 32L7 31ZM28 31L28 32L29 32L29 33L30 33L30 32L32 32L32 31ZM40 31L40 32L39 32L39 33L40 33L40 32L41 32L41 33L42 33L42 32L41 32L41 31ZM51 31L51 32L54 32L54 33L55 33L55 34L56 34L56 33L55 33L55 32L54 32L54 31ZM25 35L25 36L26 36L26 35ZM2 36L2 37L3 37L3 36ZM22 36L22 37L23 37L23 38L24 38L24 37L23 37L23 36ZM30 36L30 38L31 38L31 36ZM4 37L4 38L5 38L5 40L4 40L4 41L6 41L6 42L7 42L7 41L6 41L6 40L9 40L9 41L8 41L8 43L9 43L9 45L8 45L8 44L7 44L7 43L6 43L6 44L7 44L7 45L6 45L6 46L10 46L10 47L9 47L9 49L11 49L11 50L10 50L10 51L12 51L12 45L13 45L13 47L14 47L14 48L15 48L15 47L14 47L14 46L15 46L15 43L14 43L14 44L12 44L12 45L11 45L11 43L10 43L10 40L9 40L9 39L6 39L6 38L8 38L8 37ZM18 37L18 38L19 38L19 39L20 39L20 38L19 38L19 37ZM0 38L0 39L1 39L1 38ZM32 39L32 40L34 40L34 39ZM40 39L40 40L41 40L41 39ZM50 39L50 40L51 40L51 39ZM30 40L30 41L29 41L29 42L28 42L28 43L26 43L26 44L25 44L25 43L24 43L24 44L23 44L23 42L22 42L22 41L21 41L21 42L22 42L22 43L21 43L21 44L22 44L22 45L21 45L21 46L20 46L20 47L22 47L22 45L24 45L24 44L25 44L25 45L26 45L26 44L28 44L28 45L27 45L27 46L26 46L26 47L27 47L27 46L28 46L28 45L30 45L30 44L29 44L29 43L31 43L31 44L34 44L34 43L35 43L35 46L36 46L36 47L37 47L37 46L38 46L38 43L35 43L35 42L34 42L34 41L33 41L33 42L32 42L32 41L31 41L31 40ZM37 40L37 41L38 41L38 40ZM46 40L46 41L47 41L47 40ZM2 41L2 42L3 42L3 41ZM33 42L33 43L34 43L34 42ZM47 44L47 45L46 45L46 46L47 46L47 47L46 47L46 48L47 48L47 49L46 49L46 50L47 50L47 51L46 51L46 52L47 52L47 53L45 53L45 54L44 54L44 53L43 53L43 56L44 56L44 55L47 55L47 54L49 54L49 55L50 55L50 54L51 54L51 55L53 55L53 54L54 54L54 53L55 53L55 52L56 52L56 51L55 51L55 52L54 52L54 53L53 53L53 54L51 54L51 53L48 53L48 52L47 52L47 51L48 51L48 48L49 48L49 47L51 47L51 46L53 46L53 47L52 47L52 48L53 48L53 49L55 49L55 50L56 50L56 48L53 48L53 47L54 47L54 46L53 46L53 45L51 45L51 44L50 44L50 45L48 45L48 44ZM10 45L10 46L11 46L11 45ZM36 45L36 46L37 46L37 45ZM50 45L50 46L51 46L51 45ZM10 47L10 48L11 48L11 47ZM20 48L20 49L21 49L21 50L22 50L22 49L21 49L21 48ZM13 49L13 52L15 52L15 51L14 51L14 50L15 50L15 49ZM27 49L27 52L30 52L30 49ZM49 49L49 52L52 52L52 49ZM28 50L28 51L29 51L29 50ZM50 50L50 51L51 51L51 50ZM24 51L24 53L25 53L25 51ZM31 51L31 52L32 52L32 54L33 54L33 52L34 52L34 54L35 54L35 55L36 55L36 54L35 54L35 53L36 53L36 52L34 52L34 51L33 51L33 52L32 52L32 51ZM21 52L21 53L22 53L22 52ZM11 55L11 56L12 56L12 55ZM0 0L0 7L7 7L7 0ZM1 1L1 6L6 6L6 1ZM2 2L2 5L5 5L5 2ZM50 0L50 7L57 7L57 0ZM51 1L51 6L56 6L56 1ZM52 2L52 5L55 5L55 2ZM0 50L0 57L7 57L7 50ZM1 51L1 56L6 56L6 51ZM2 52L2 55L5 55L5 52Z" fill="#000000"/></g></g></svg>
