<?xml version="1.0" encoding="UTF-8"?>
<svg xmlns="http://www.w3.org/2000/svg" version="1.1" width="300" height="300" viewBox="0 0 300 300"><rect x="0" y="0" width="300" height="300" fill="#ffffff"/><g transform="scale(4.918)"><g transform="translate(2,2)"><path fill-rule="evenodd" d="M9 0L9 1L8 1L8 2L10 2L10 3L8 3L8 4L11 4L11 2L12 2L12 1L15 1L15 0L12 0L12 1L10 1L10 0ZM19 0L19 1L18 1L18 2L20 2L20 0ZM21 0L21 2L22 2L22 1L23 1L23 2L24 2L24 3L23 3L23 4L22 4L22 3L21 3L21 4L22 4L22 5L21 5L21 6L20 6L20 5L18 5L18 4L20 4L20 3L18 3L18 4L16 4L16 2L17 2L17 1L16 1L16 2L15 2L15 4L14 4L14 2L13 2L13 4L12 4L12 8L11 8L11 10L9 10L9 8L10 8L10 7L11 7L11 5L10 5L10 7L9 7L9 5L8 5L8 7L9 7L9 8L6 8L6 9L5 9L5 8L0 8L0 11L1 11L1 9L5 9L5 10L3 10L3 12L4 12L4 14L3 14L3 13L1 13L1 12L0 12L0 14L2 14L2 15L4 15L4 16L2 16L2 17L5 17L5 18L4 18L4 19L3 19L3 18L2 18L2 21L0 21L0 25L1 25L1 26L0 26L0 28L1 28L1 29L2 29L2 30L0 30L0 31L1 31L1 33L0 33L0 34L1 34L1 33L5 33L5 32L6 32L6 33L8 33L8 34L6 34L6 35L8 35L8 36L9 36L9 37L7 37L7 36L5 36L5 35L4 35L4 34L2 34L2 35L0 35L0 38L1 38L1 39L2 39L2 40L0 40L0 44L2 44L2 43L1 43L1 41L3 41L3 42L4 42L4 44L3 44L3 45L4 45L4 46L5 46L5 47L3 47L3 46L2 46L2 47L1 47L1 45L0 45L0 48L5 48L5 47L8 47L8 48L6 48L6 49L8 49L8 51L10 51L10 53L9 53L9 52L8 52L8 57L9 57L9 55L10 55L10 54L11 54L11 53L13 53L13 52L14 52L14 51L16 51L16 52L17 52L17 50L15 50L15 49L19 49L19 50L18 50L18 51L19 51L19 52L18 52L18 53L17 53L17 54L18 54L18 55L17 55L17 57L20 57L20 56L21 56L21 53L22 53L22 54L23 54L23 55L22 55L22 56L23 56L23 55L25 55L25 56L24 56L24 57L26 57L26 56L28 56L28 55L26 55L26 54L27 54L27 53L28 53L28 54L29 54L29 53L31 53L31 55L29 55L29 56L31 56L31 57L32 57L32 56L31 56L31 55L33 55L33 57L38 57L38 56L39 56L39 57L40 57L40 56L43 56L43 57L44 57L44 56L45 56L45 57L46 57L46 56L48 56L48 57L49 57L49 55L50 55L50 54L53 54L53 53L54 53L54 52L55 52L55 51L56 51L56 52L57 52L57 51L56 51L56 50L57 50L57 49L56 49L56 48L55 48L55 47L54 47L54 48L55 48L55 49L53 49L53 47L52 47L52 45L54 45L54 46L57 46L57 45L56 45L56 42L55 42L55 40L56 40L56 39L53 39L53 38L52 38L52 39L53 39L53 40L52 40L52 41L49 41L49 39L50 39L50 38L48 38L48 37L49 37L49 36L50 36L50 37L53 37L53 36L56 36L56 37L57 37L57 36L56 36L56 34L57 34L57 33L56 33L56 32L57 32L57 31L56 31L56 32L55 32L55 30L57 30L57 29L56 29L56 28L57 28L57 27L56 27L56 25L55 25L55 23L56 23L56 24L57 24L57 23L56 23L56 22L57 22L57 21L54 21L54 20L57 20L57 19L56 19L56 18L57 18L57 17L56 17L56 16L55 16L55 14L57 14L57 13L56 13L56 11L54 11L54 10L52 10L52 8L51 8L51 10L50 10L50 8L49 8L49 6L48 6L48 8L49 8L49 9L48 9L48 10L50 10L50 11L49 11L49 12L50 12L50 13L51 13L51 14L49 14L49 13L47 13L47 14L46 14L46 12L45 12L45 11L43 11L43 10L44 10L44 8L43 8L43 6L42 6L42 5L43 5L43 3L47 3L47 5L46 5L46 7L45 7L45 6L44 6L44 7L45 7L45 8L46 8L46 7L47 7L47 5L48 5L48 0L46 0L46 1L45 1L45 2L44 2L44 1L43 1L43 0L42 0L42 1L41 1L41 2L40 2L40 1L36 1L36 2L37 2L37 3L36 3L36 5L34 5L34 7L33 7L33 6L32 6L32 7L31 7L31 4L32 4L32 3L35 3L35 1L34 1L34 0L33 0L33 1L34 1L34 2L32 2L32 0L30 0L30 1L29 1L29 0L27 0L27 1L26 1L26 0ZM24 1L24 2L25 2L25 7L24 7L24 5L23 5L23 8L22 8L22 6L21 6L21 7L20 7L20 6L19 6L19 7L18 7L18 6L17 6L17 8L16 8L16 6L15 6L15 8L14 8L14 10L13 10L13 9L12 9L12 10L11 10L11 11L12 11L12 14L10 14L10 13L11 13L11 12L10 12L10 11L9 11L9 10L7 10L7 9L6 9L6 10L5 10L5 11L4 11L4 12L5 12L5 14L4 14L4 15L5 15L5 14L8 14L8 12L7 12L7 11L9 11L9 17L8 17L8 15L6 15L6 16L7 16L7 17L6 17L6 18L7 18L7 19L6 19L6 20L7 20L7 21L5 21L5 20L3 20L3 22L2 22L2 23L3 23L3 25L2 25L2 26L1 26L1 27L2 27L2 26L3 26L3 28L2 28L2 29L3 29L3 31L4 31L4 26L7 26L7 25L9 25L9 26L10 26L10 27L11 27L11 28L10 28L10 30L9 30L9 31L8 31L8 32L9 32L9 33L11 33L11 35L12 35L12 36L10 36L10 34L9 34L9 36L10 36L10 37L11 37L11 38L8 38L8 40L7 40L7 39L6 39L6 40L5 40L5 39L4 39L4 40L3 40L3 41L4 41L4 42L7 42L7 41L8 41L8 42L9 42L9 43L10 43L10 45L9 45L9 44L8 44L8 43L5 43L5 44L4 44L4 45L5 45L5 46L8 46L8 47L9 47L9 48L8 48L8 49L9 49L9 50L10 50L10 49L12 49L12 48L10 48L10 47L11 47L11 46L13 46L13 49L14 49L14 48L17 48L17 47L15 47L15 45L16 45L16 46L18 46L18 48L19 48L19 49L20 49L20 50L19 50L19 51L20 51L20 52L19 52L19 53L18 53L18 54L19 54L19 55L18 55L18 56L19 56L19 55L20 55L20 54L19 54L19 53L21 53L21 51L23 51L23 52L22 52L22 53L23 53L23 52L24 52L24 53L26 53L26 51L25 51L25 50L26 50L26 48L31 48L31 49L32 49L32 51L31 51L31 52L32 52L32 54L34 54L34 56L36 56L36 54L37 54L37 53L33 53L33 52L36 52L36 50L40 50L40 51L39 51L39 52L38 52L38 51L37 51L37 52L38 52L38 55L37 55L37 56L38 56L38 55L39 55L39 56L40 56L40 55L41 55L41 54L42 54L42 55L43 55L43 56L44 56L44 55L45 55L45 56L46 56L46 55L45 55L45 54L48 54L48 52L47 52L47 51L48 51L48 48L50 48L50 47L51 47L51 48L52 48L52 47L51 47L51 46L50 46L50 47L49 47L49 46L48 46L48 44L47 44L47 45L46 45L46 46L48 46L48 47L47 47L47 48L46 48L46 50L45 50L45 48L44 48L44 47L43 47L43 46L44 46L44 45L45 45L45 44L44 44L44 43L45 43L45 42L46 42L46 43L48 43L48 42L47 42L47 41L48 41L48 40L47 40L47 41L45 41L45 40L43 40L43 39L45 39L45 38L47 38L47 37L48 37L48 36L49 36L49 35L51 35L51 36L52 36L52 34L54 34L54 35L55 35L55 34L54 34L54 33L55 33L55 32L54 32L54 31L52 31L52 32L53 32L53 33L50 33L50 32L49 32L49 31L48 31L48 28L47 28L47 27L48 27L48 25L49 25L49 24L50 24L50 26L51 26L51 25L53 25L53 27L55 27L55 28L54 28L54 29L53 29L53 30L55 30L55 28L56 28L56 27L55 27L55 26L54 26L54 24L51 24L51 23L53 23L53 20L54 20L54 19L53 19L53 18L55 18L55 16L54 16L54 17L53 17L53 15L54 15L54 13L55 13L55 12L54 12L54 11L53 11L53 12L52 12L52 11L50 11L50 12L51 12L51 13L52 13L52 14L51 14L51 15L52 15L52 16L50 16L50 15L46 15L46 16L48 16L48 17L49 17L49 16L50 16L50 18L47 18L47 17L45 17L45 16L42 16L42 15L43 15L43 14L44 14L44 15L45 15L45 12L44 12L44 13L43 13L43 14L42 14L42 10L41 10L41 11L40 11L40 12L38 12L38 13L33 13L33 12L30 12L30 11L31 11L31 10L34 10L34 12L35 12L35 10L37 10L37 9L38 9L38 11L39 11L39 9L42 9L42 8L41 8L41 7L42 7L42 6L41 6L41 3L40 3L40 5L39 5L39 2L38 2L38 6L37 6L37 5L36 5L36 6L35 6L35 8L37 8L37 9L33 9L33 8L31 8L31 10L29 10L29 9L28 9L28 10L29 10L29 12L28 12L28 13L26 13L26 15L25 15L25 16L22 16L22 14L21 14L21 13L20 13L20 12L21 12L21 10L22 10L22 13L23 13L23 14L24 14L24 13L25 13L25 12L27 12L27 11L26 11L26 10L27 10L27 9L25 9L25 12L24 12L24 13L23 13L23 11L24 11L24 10L23 10L23 9L24 9L24 8L25 8L25 7L26 7L26 3L27 3L27 4L30 4L30 3L31 3L31 1L30 1L30 2L29 2L29 3L27 3L27 2L28 2L28 1L27 1L27 2L26 2L26 1ZM42 1L42 2L43 2L43 1ZM46 1L46 2L47 2L47 1ZM13 4L13 7L14 7L14 4ZM15 4L15 5L16 5L16 4ZM44 4L44 5L45 5L45 4ZM27 5L27 8L30 8L30 5ZM28 6L28 7L29 7L29 6ZM36 6L36 7L37 7L37 8L38 8L38 7L39 7L39 8L40 8L40 7L41 7L41 6L40 6L40 7L39 7L39 6L38 6L38 7L37 7L37 6ZM15 8L15 9L16 9L16 8ZM17 8L17 9L19 9L19 12L20 12L20 8ZM53 8L53 9L54 9L54 8ZM55 8L55 10L57 10L57 9L56 9L56 8ZM6 10L6 11L7 11L7 10ZM12 10L12 11L13 11L13 12L14 12L14 11L13 11L13 10ZM16 10L16 12L15 12L15 13L18 13L18 14L15 14L15 15L14 15L14 16L15 16L15 17L13 17L13 18L11 18L11 17L12 17L12 15L13 15L13 14L14 14L14 13L13 13L13 14L12 14L12 15L11 15L11 16L10 16L10 18L9 18L9 19L7 19L7 20L9 20L9 21L8 21L8 22L10 22L10 23L11 23L11 24L12 24L12 25L10 25L10 24L9 24L9 23L8 23L8 24L9 24L9 25L10 25L10 26L12 26L12 27L13 27L13 28L15 28L15 27L16 27L16 29L12 29L12 30L11 30L11 31L10 31L10 32L11 32L11 31L12 31L12 30L14 30L14 31L13 31L13 32L12 32L12 34L15 34L15 35L14 35L14 36L15 36L15 37L13 37L13 36L12 36L12 37L13 37L13 38L12 38L12 39L9 39L9 40L11 40L11 41L9 41L9 42L11 42L11 43L13 43L13 44L11 44L11 45L13 45L13 46L14 46L14 43L15 43L15 44L16 44L16 45L18 45L18 46L20 46L20 45L21 45L21 47L22 47L22 44L20 44L20 45L18 45L18 44L16 44L16 43L18 43L18 42L20 42L20 43L21 43L21 42L22 42L22 43L23 43L23 45L24 45L24 46L23 46L23 48L26 48L26 47L31 47L31 48L33 48L33 49L35 49L35 50L33 50L33 51L32 51L32 52L33 52L33 51L35 51L35 50L36 50L36 49L38 49L38 48L33 48L33 47L35 47L35 46L36 46L36 47L39 47L39 48L41 48L41 47L42 47L42 48L43 48L43 49L42 49L42 50L41 50L41 49L40 49L40 50L41 50L41 51L40 51L40 52L39 52L39 55L40 55L40 52L41 52L41 51L42 51L42 52L43 52L43 53L42 53L42 54L43 54L43 53L44 53L44 54L45 54L45 53L44 53L44 51L45 51L45 50L44 50L44 48L43 48L43 47L42 47L42 46L43 46L43 45L44 45L44 44L43 44L43 43L39 43L39 44L38 44L38 45L39 45L39 46L37 46L37 43L38 43L38 41L39 41L39 40L41 40L41 39L39 39L39 40L38 40L38 39L37 39L37 38L38 38L38 37L39 37L39 38L40 38L40 36L41 36L41 37L42 37L42 38L43 38L43 37L44 37L44 38L45 38L45 37L44 37L44 35L42 35L42 34L46 34L46 35L45 35L45 36L48 36L48 35L49 35L49 34L50 34L50 33L49 33L49 34L48 34L48 33L47 33L47 32L48 32L48 31L47 31L47 30L46 30L46 29L47 29L47 28L46 28L46 27L47 27L47 26L45 26L45 25L48 25L48 23L49 23L49 22L50 22L50 23L51 23L51 22L52 22L52 20L53 20L53 19L52 19L52 20L51 20L51 22L50 22L50 19L51 19L51 18L50 18L50 19L48 19L48 20L49 20L49 21L48 21L48 23L47 23L47 22L45 22L45 21L44 21L44 23L45 23L45 25L44 25L44 24L43 24L43 23L42 23L42 24L41 24L41 23L40 23L40 22L39 22L39 24L41 24L41 27L42 27L42 28L43 28L43 29L42 29L42 30L41 30L41 29L39 29L39 30L36 30L36 29L38 29L38 28L35 28L35 27L39 27L39 28L40 28L40 26L38 26L38 23L37 23L37 22L38 22L38 20L39 20L39 21L40 21L40 20L41 20L41 19L42 19L42 20L46 20L46 21L47 21L47 20L46 20L46 19L47 19L47 18L45 18L45 19L44 19L44 17L42 17L42 18L41 18L41 17L39 17L39 18L38 18L38 15L39 15L39 16L41 16L41 15L42 15L42 14L40 14L40 15L39 15L39 14L33 14L33 15L32 15L32 13L30 13L30 12L29 12L29 13L28 13L28 14L27 14L27 15L30 15L30 16L31 16L31 17L29 17L29 18L28 18L28 17L27 17L27 16L25 16L25 17L21 17L21 19L22 19L22 20L21 20L21 21L19 21L19 18L20 18L20 17L19 17L19 15L20 15L20 16L21 16L21 15L20 15L20 13L18 13L18 12L17 12L17 11L18 11L18 10ZM46 10L46 11L47 11L47 10ZM36 11L36 12L37 12L37 11ZM6 12L6 13L7 13L7 12ZM18 14L18 15L16 15L16 17L15 17L15 18L16 18L16 20L15 20L15 21L13 21L13 22L12 22L12 23L13 23L13 24L15 24L15 23L16 23L16 24L17 24L17 25L16 25L16 27L18 27L18 26L19 26L19 25L20 25L20 28L21 28L21 29L19 29L19 30L18 30L18 31L20 31L20 32L19 32L19 33L16 33L16 35L15 35L15 36L16 36L16 37L15 37L15 38L13 38L13 40L14 40L14 39L15 39L15 41L14 41L14 42L13 42L13 43L14 43L14 42L17 42L17 40L18 40L18 39L17 39L17 40L16 40L16 39L15 39L15 38L16 38L16 37L18 37L18 38L20 38L20 39L19 39L19 41L20 41L20 42L21 42L21 41L25 41L25 42L27 42L27 43L30 43L30 44L32 44L32 46L35 46L35 44L36 44L36 43L37 43L37 41L38 41L38 40L37 40L37 41L33 41L33 40L31 40L31 39L34 39L34 40L35 40L35 39L36 39L36 38L37 38L37 37L36 37L36 36L40 36L40 35L41 35L41 34L42 34L42 31L46 31L46 32L43 32L43 33L46 33L46 34L47 34L47 33L46 33L46 32L47 32L47 31L46 31L46 30L45 30L45 28L44 28L44 30L42 30L42 31L41 31L41 30L40 30L40 31L36 31L36 30L35 30L35 29L33 29L33 28L34 28L34 27L35 27L35 25L34 25L34 24L37 24L37 23L36 23L36 22L37 22L37 21L36 21L36 20L38 20L38 18L37 18L37 19L34 19L34 18L36 18L36 17L35 17L35 16L37 16L37 15L35 15L35 16L34 16L34 18L32 18L32 17L33 17L33 16L32 16L32 15L31 15L31 14L30 14L30 15L31 15L31 16L32 16L32 17L31 17L31 18L29 18L29 19L28 19L28 20L27 20L27 17L26 17L26 18L24 18L24 20L25 20L25 22L27 22L27 21L29 21L29 22L28 22L28 23L26 23L26 25L25 25L25 26L24 26L24 27L23 27L23 26L22 26L22 25L24 25L24 24L25 24L25 23L23 23L23 22L22 22L22 21L23 21L23 20L22 20L22 21L21 21L21 23L22 23L22 25L20 25L20 24L19 24L19 25L18 25L18 24L17 24L17 23L20 23L20 22L19 22L19 21L17 21L17 18L19 18L19 17L17 17L17 16L18 16L18 15L19 15L19 14ZM0 15L0 17L1 17L1 15ZM7 17L7 18L8 18L8 17ZM52 17L52 18L53 18L53 17ZM0 18L0 19L1 19L1 18ZM10 18L10 19L9 19L9 20L10 20L10 21L12 21L12 19L11 19L11 18ZM22 18L22 19L23 19L23 18ZM40 18L40 19L39 19L39 20L40 20L40 19L41 19L41 18ZM42 18L42 19L43 19L43 18ZM13 19L13 20L14 20L14 19ZM25 19L25 20L26 20L26 21L27 21L27 20L26 20L26 19ZM30 19L30 20L29 20L29 21L30 21L30 22L29 22L29 23L28 23L28 24L27 24L27 25L26 25L26 26L25 26L25 27L26 27L26 30L25 30L25 29L24 29L24 28L23 28L23 27L22 27L22 26L21 26L21 28L23 28L23 29L22 29L22 31L21 31L21 30L20 30L20 31L21 31L21 32L20 32L20 33L21 33L21 34L24 34L24 35L25 35L25 36L26 36L26 38L25 38L25 37L21 37L21 39L22 39L22 38L25 38L25 39L24 39L24 40L25 40L25 39L26 39L26 40L27 40L27 39L26 39L26 38L27 38L27 35L26 35L26 34L25 34L25 33L26 33L26 32L25 32L25 31L29 31L29 32L27 32L27 33L29 33L29 32L30 32L30 34L29 34L29 35L30 35L30 36L28 36L28 37L29 37L29 39L28 39L28 41L27 41L27 42L28 42L28 41L30 41L30 43L32 43L32 42L31 42L31 40L29 40L29 39L31 39L31 38L32 38L32 35L33 35L33 34L34 34L34 36L33 36L33 37L34 37L34 36L35 36L35 34L36 34L36 35L37 35L37 34L38 34L38 35L39 35L39 34L40 34L40 32L41 32L41 31L40 31L40 32L39 32L39 34L38 34L38 32L35 32L35 34L34 34L34 31L35 31L35 30L32 30L32 28L31 28L31 25L32 25L32 24L31 24L31 25L30 25L30 26L28 26L28 24L30 24L30 22L31 22L31 23L33 23L33 24L34 24L34 22L33 22L33 21L32 21L32 20L33 20L33 19ZM34 20L34 21L35 21L35 20ZM4 21L4 22L3 22L3 23L5 23L5 25L7 25L7 24L6 24L6 23L7 23L7 22L6 22L6 23L5 23L5 21ZM15 21L15 22L16 22L16 21ZM41 21L41 22L43 22L43 21ZM46 23L46 24L47 24L47 23ZM42 24L42 25L43 25L43 26L42 26L42 27L45 27L45 26L44 26L44 25L43 25L43 24ZM12 25L12 26L13 26L13 27L14 27L14 25ZM17 25L17 26L18 26L18 25ZM32 26L32 27L34 27L34 26ZM5 27L5 30L8 30L8 27ZM27 27L27 30L30 30L30 27ZM49 27L49 30L52 30L52 27ZM6 28L6 29L7 29L7 28ZM17 28L17 29L16 29L16 30L17 30L17 29L18 29L18 28ZM28 28L28 29L29 29L29 28ZM50 28L50 29L51 29L51 28ZM23 29L23 31L22 31L22 32L21 32L21 33L25 33L25 32L23 32L23 31L24 31L24 29ZM6 31L6 32L7 32L7 31ZM15 31L15 32L17 32L17 31ZM30 31L30 32L31 32L31 35L32 35L32 34L33 34L33 32L31 32L31 31ZM36 33L36 34L37 34L37 33ZM17 34L17 36L18 36L18 37L20 37L20 34ZM21 35L21 36L23 36L23 35ZM1 36L1 38L2 38L2 39L3 39L3 38L4 38L4 37L3 37L3 36ZM30 36L30 38L31 38L31 36ZM2 37L2 38L3 38L3 37ZM5 37L5 38L7 38L7 37ZM35 37L35 38L34 38L34 39L35 39L35 38L36 38L36 37ZM54 37L54 38L55 38L55 37ZM6 40L6 41L7 41L7 40ZM53 40L53 41L52 41L52 43L54 43L54 40ZM41 41L41 42L43 42L43 41ZM44 41L44 42L45 42L45 41ZM50 42L50 43L51 43L51 42ZM25 43L25 44L24 44L24 45L25 45L25 46L24 46L24 47L26 47L26 46L27 46L27 45L28 45L28 46L29 46L29 45L28 45L28 44L26 44L26 43ZM33 43L33 44L34 44L34 43ZM6 44L6 45L7 45L7 44ZM25 44L25 45L26 45L26 44ZM40 44L40 45L41 45L41 46L42 46L42 45L43 45L43 44ZM49 44L49 45L51 45L51 44ZM54 44L54 45L55 45L55 44ZM9 46L9 47L10 47L10 46ZM19 47L19 48L20 48L20 49L21 49L21 48L20 48L20 47ZM9 48L9 49L10 49L10 48ZM22 49L22 50L23 50L23 51L24 51L24 52L25 52L25 51L24 51L24 50L25 50L25 49ZM27 49L27 52L30 52L30 49ZM49 49L49 52L52 52L52 49ZM55 49L55 50L56 50L56 49ZM11 50L11 51L13 51L13 50ZM28 50L28 51L29 51L29 50ZM42 50L42 51L44 51L44 50ZM46 50L46 51L47 51L47 50ZM50 50L50 51L51 51L51 50ZM53 51L53 52L54 52L54 51ZM46 52L46 53L47 53L47 52ZM15 53L15 54L12 54L12 55L13 55L13 57L16 57L16 55L15 55L15 54L16 54L16 53ZM49 53L49 54L50 54L50 53ZM54 54L54 56L53 56L53 55L51 55L51 56L50 56L50 57L52 57L52 56L53 56L53 57L54 57L54 56L55 56L55 57L56 57L56 56L55 56L55 54ZM14 55L14 56L15 56L15 55ZM10 56L10 57L11 57L11 56ZM0 0L0 7L7 7L7 0ZM1 1L1 6L6 6L6 1ZM2 2L2 5L5 5L5 2ZM50 0L50 7L57 7L57 0ZM51 1L51 6L56 6L56 1ZM52 2L52 5L55 5L55 2ZM0 50L0 57L7 57L7 50ZM1 51L1 56L6 56L6 51ZM2 52L2 55L5 55L5 52Z" fill="#000000"/></g></g></svg>
