<?xml version="1.0" encoding="UTF-8"?>
<svg xmlns="http://www.w3.org/2000/svg" version="1.1" width="300" height="300" viewBox="0 0 300 300"><rect x="0" y="0" width="300" height="300" fill="#ffffff"/><g transform="scale(4.918)"><g transform="translate(2,2)"><path fill-rule="evenodd" d="M10 0L10 1L8 1L8 2L10 2L10 3L8 3L8 4L9 4L9 5L8 5L8 7L9 7L9 5L10 5L10 4L12 4L12 5L11 5L11 6L10 6L10 7L11 7L11 8L10 8L10 10L8 10L8 9L9 9L9 8L6 8L6 9L7 9L7 10L5 10L5 11L4 11L4 10L3 10L3 9L5 9L5 8L0 8L0 9L1 9L1 10L0 10L0 13L1 13L1 11L2 11L2 12L4 12L4 13L2 13L2 14L3 14L3 16L2 16L2 15L1 15L1 16L0 16L0 17L2 17L2 18L0 18L0 21L3 21L3 19L2 19L2 18L4 18L4 19L8 19L8 22L9 22L9 23L10 23L10 24L8 24L8 25L9 25L9 26L5 26L5 25L3 25L3 26L4 26L4 27L2 27L2 24L4 24L4 23L5 23L5 24L6 24L6 25L7 25L7 24L6 24L6 23L7 23L7 22L6 22L6 21L7 21L7 20L5 20L5 21L4 21L4 23L2 23L2 24L1 24L1 23L0 23L0 25L1 25L1 26L0 26L0 31L2 31L2 33L1 33L1 32L0 32L0 34L1 34L1 36L0 36L0 38L1 38L1 39L0 39L0 42L1 42L1 43L0 43L0 48L5 48L5 47L7 47L7 48L6 48L6 49L7 49L7 48L8 48L8 47L9 47L9 48L10 48L10 49L8 49L8 51L9 51L9 52L8 52L8 57L12 57L12 55L11 55L11 54L10 54L10 52L14 52L14 50L13 50L13 49L12 49L12 50L10 50L10 49L11 49L11 48L13 48L13 46L14 46L14 45L15 45L15 47L17 47L17 48L14 48L14 49L17 49L17 50L16 50L16 51L15 51L15 53L14 53L14 54L13 54L13 56L14 56L14 57L16 57L16 56L17 56L17 57L22 57L22 56L18 56L18 55L20 55L20 54L17 54L17 53L20 53L20 52L21 52L21 53L22 53L22 55L23 55L23 57L24 57L24 55L23 55L23 54L24 54L24 53L26 53L26 54L25 54L25 55L26 55L26 54L27 54L27 53L28 53L28 54L30 54L30 53L31 53L31 56L30 56L30 55L29 55L29 56L30 56L30 57L31 57L31 56L34 56L34 57L37 57L37 56L38 56L38 57L40 57L40 56L42 56L42 54L43 54L43 53L44 53L44 54L45 54L45 53L44 53L44 51L45 51L45 52L48 52L48 53L50 53L50 55L51 55L51 56L50 56L50 57L52 57L52 56L53 56L53 57L56 57L56 56L55 56L55 54L54 54L54 52L55 52L55 50L57 50L57 49L54 49L54 48L57 48L57 47L56 47L56 46L57 46L57 45L56 45L56 44L57 44L57 43L55 43L55 42L57 42L57 41L54 41L54 43L53 43L53 44L51 44L51 43L50 43L50 42L51 42L51 41L49 41L49 40L48 40L48 41L47 41L47 40L46 40L46 41L44 41L44 39L42 39L42 38L43 38L43 37L44 37L44 38L45 38L45 39L46 39L46 38L45 38L45 37L44 37L44 32L46 32L46 33L45 33L45 34L46 34L46 35L45 35L45 36L46 36L46 37L47 37L47 38L48 38L48 39L50 39L50 38L51 38L51 37L53 37L53 38L52 38L52 39L53 39L53 40L52 40L52 41L53 41L53 40L55 40L55 39L57 39L57 37L56 37L56 35L55 35L55 34L57 34L57 32L56 32L56 30L57 30L57 29L56 29L56 28L55 28L55 27L56 27L56 26L57 26L57 25L54 25L54 26L55 26L55 27L53 27L53 26L50 26L50 24L57 24L57 23L56 23L56 22L57 22L57 21L56 21L56 20L55 20L55 19L52 19L52 18L54 18L54 16L55 16L55 18L57 18L57 17L56 17L56 16L57 16L57 15L56 15L56 14L57 14L57 13L56 13L56 14L53 14L53 15L54 15L54 16L53 16L53 17L51 17L51 16L50 16L50 17L47 17L47 18L46 18L46 17L45 17L45 18L46 18L46 19L47 19L47 18L48 18L48 19L49 19L49 20L48 20L48 21L47 21L47 23L46 23L46 22L45 22L45 21L44 21L44 23L46 23L46 24L45 24L45 25L44 25L44 24L43 24L43 23L42 23L42 22L43 22L43 21L42 21L42 22L41 22L41 21L40 21L40 20L41 20L41 18L43 18L43 19L42 19L42 20L45 20L45 19L44 19L44 18L43 18L43 17L41 17L41 18L40 18L40 16L47 16L47 15L49 15L49 13L50 13L50 11L51 11L51 10L49 10L49 9L50 9L50 8L49 8L49 6L48 6L48 7L47 7L47 5L48 5L48 0L45 0L45 1L47 1L47 2L44 2L44 0L42 0L42 1L40 1L40 0L39 0L39 1L37 1L37 0L36 0L36 2L37 2L37 3L36 3L36 5L33 5L33 6L32 6L32 7L33 7L33 8L34 8L34 9L35 9L35 10L36 10L36 11L37 11L37 12L34 12L34 11L33 11L33 10L32 10L32 9L31 9L31 4L32 4L32 3L34 3L34 2L35 2L35 1L34 1L34 0L33 0L33 1L32 1L32 2L30 2L30 1L31 1L31 0L30 0L30 1L29 1L29 2L27 2L27 1L26 1L26 0L24 0L24 1L23 1L23 0L21 0L21 1L23 1L23 2L27 2L27 3L29 3L29 4L26 4L26 3L23 3L23 4L22 4L22 3L21 3L21 2L19 2L19 1L18 1L18 3L17 3L17 1L16 1L16 0L14 0L14 1L15 1L15 2L14 2L14 3L13 3L13 2L10 2L10 1L12 1L12 0ZM33 1L33 2L34 2L34 1ZM42 1L42 2L41 2L41 3L40 3L40 5L41 5L41 8L40 8L40 6L39 6L39 2L38 2L38 3L37 3L37 4L38 4L38 5L36 5L36 6L35 6L35 9L36 9L36 8L37 8L37 9L38 9L38 10L37 10L37 11L39 11L39 12L38 12L38 14L37 14L37 13L33 13L33 11L31 11L31 10L29 10L29 9L25 9L25 11L23 11L23 13L22 13L22 12L21 12L21 13L19 13L19 15L18 15L18 14L17 14L17 13L18 13L18 12L17 12L17 11L18 11L18 10L19 10L19 12L20 12L20 11L22 11L22 9L23 9L23 8L24 8L24 6L23 6L23 5L24 5L24 4L23 4L23 5L22 5L22 4L21 4L21 3L19 3L19 4L17 4L17 3L14 3L14 4L16 4L16 5L14 5L14 6L13 6L13 5L12 5L12 6L11 6L11 7L12 7L12 8L11 8L11 10L12 10L12 11L9 11L9 13L11 13L11 14L12 14L12 13L13 13L13 15L11 15L11 16L13 16L13 15L14 15L14 14L15 14L15 13L13 13L13 12L14 12L14 11L13 11L13 10L14 10L14 9L15 9L15 11L16 11L16 12L17 12L17 13L16 13L16 15L15 15L15 16L14 16L14 17L13 17L13 18L11 18L11 21L10 21L10 23L12 23L12 25L11 25L11 24L10 24L10 25L11 25L11 26L9 26L9 27L11 27L11 28L12 28L12 29L14 29L14 28L15 28L15 27L16 27L16 28L18 28L18 29L16 29L16 30L17 30L17 31L16 31L16 32L18 32L18 31L19 31L19 33L16 33L16 35L17 35L17 34L19 34L19 35L18 35L18 36L15 36L15 35L14 35L14 34L15 34L15 30L11 30L11 31L10 31L10 30L9 30L9 31L6 31L6 32L3 32L3 34L2 34L2 36L1 36L1 38L2 38L2 40L5 40L5 38L4 38L4 39L3 39L3 37L4 37L4 36L3 36L3 35L6 35L6 36L7 36L7 37L6 37L6 38L8 38L8 39L6 39L6 40L8 40L8 41L4 41L4 42L3 42L3 43L4 43L4 42L8 42L8 44L7 44L7 43L6 43L6 44L7 44L7 45L6 45L6 46L7 46L7 47L8 47L8 45L9 45L9 44L10 44L10 43L12 43L12 42L13 42L13 43L14 43L14 44L15 44L15 42L16 42L16 43L18 43L18 42L19 42L19 41L20 41L20 44L21 44L21 45L19 45L19 46L21 46L21 45L22 45L22 47L23 47L23 46L24 46L24 45L25 45L25 48L26 48L26 46L27 46L27 47L28 47L28 48L30 48L30 47L28 47L28 46L29 46L29 45L27 45L27 44L26 44L26 43L27 43L27 42L29 42L29 43L28 43L28 44L29 44L29 43L30 43L30 44L31 44L31 45L30 45L30 46L31 46L31 45L32 45L32 47L33 47L33 46L35 46L35 48L34 48L34 50L33 50L33 48L31 48L31 52L32 52L32 54L33 54L33 55L34 55L34 56L37 56L37 55L38 55L38 56L39 56L39 52L40 52L40 55L41 55L41 54L42 54L42 53L41 53L41 52L40 52L40 51L44 51L44 50L45 50L45 51L46 51L46 50L47 50L47 51L48 51L48 48L49 48L49 47L52 47L52 48L54 48L54 47L55 47L55 46L56 46L56 45L55 45L55 44L54 44L54 45L55 45L55 46L54 46L54 47L52 47L52 46L53 46L53 45L51 45L51 44L47 44L47 45L46 45L46 46L47 46L47 48L42 48L42 47L45 47L45 43L46 43L46 42L47 42L47 43L49 43L49 42L47 42L47 41L46 41L46 42L44 42L44 43L43 43L43 42L41 42L41 43L43 43L43 44L39 44L39 42L40 42L40 41L41 41L41 37L42 37L42 36L43 36L43 34L42 34L42 33L43 33L43 32L44 32L44 31L46 31L46 32L47 32L47 33L46 33L46 34L47 34L47 33L48 33L48 34L49 34L49 35L48 35L48 36L47 36L47 35L46 35L46 36L47 36L47 37L48 37L48 38L49 38L49 35L51 35L51 36L50 36L50 37L51 37L51 36L52 36L52 34L54 34L54 33L56 33L56 32L54 32L54 31L51 31L51 32L50 32L50 31L48 31L48 30L47 30L47 29L48 29L48 27L46 27L46 26L47 26L47 25L49 25L49 24L50 24L50 22L51 22L51 21L53 21L53 22L52 22L52 23L55 23L55 22L54 22L54 21L55 21L55 20L51 20L51 17L50 17L50 22L49 22L49 23L48 23L48 24L46 24L46 25L45 25L45 26L43 26L43 27L46 27L46 28L47 28L47 29L46 29L46 30L42 30L42 29L43 29L43 28L42 28L42 26L39 26L39 24L40 24L40 25L43 25L43 24L40 24L40 23L41 23L41 22L40 22L40 23L39 23L39 20L40 20L40 19L38 19L38 18L39 18L39 16L40 16L40 15L41 15L41 14L42 14L42 15L45 15L45 14L42 14L42 11L45 11L45 12L44 12L44 13L45 13L45 12L46 12L46 14L47 14L47 13L49 13L49 12L47 12L47 11L49 11L49 10L48 10L48 9L49 9L49 8L48 8L48 9L47 9L47 7L46 7L46 5L47 5L47 3L43 3L43 1ZM12 3L12 4L13 4L13 3ZM30 3L30 4L31 4L31 3ZM42 3L42 4L41 4L41 5L42 5L42 7L43 7L43 3ZM19 4L19 5L20 5L20 7L19 7L19 6L18 6L18 5L17 5L17 6L16 6L16 7L15 7L15 6L14 6L14 7L15 7L15 8L16 8L16 9L19 9L19 10L20 10L20 9L21 9L21 8L22 8L22 7L23 7L23 6L22 6L22 7L21 7L21 4ZM25 4L25 8L26 8L26 4ZM44 4L44 5L46 5L46 4ZM27 5L27 8L30 8L30 5ZM12 6L12 7L13 7L13 6ZM17 6L17 7L16 7L16 8L17 8L17 7L18 7L18 6ZM28 6L28 7L29 7L29 6ZM33 6L33 7L34 7L34 6ZM36 6L36 7L37 7L37 6ZM38 6L38 8L39 8L39 6ZM44 6L44 8L43 8L43 9L42 9L42 8L41 8L41 10L39 10L39 11L40 11L40 12L41 12L41 11L42 11L42 10L43 10L43 9L44 9L44 10L45 10L45 11L46 11L46 10L45 10L45 9L44 9L44 8L46 8L46 7L45 7L45 6ZM12 8L12 9L14 9L14 8ZM19 8L19 9L20 9L20 8ZM51 8L51 9L52 9L52 8ZM53 8L53 9L54 9L54 8ZM55 8L55 11L54 11L54 10L53 10L53 11L52 11L52 12L53 12L53 11L54 11L54 12L55 12L55 11L56 11L56 8ZM26 10L26 11L27 11L27 12L25 12L25 13L23 13L23 14L26 14L26 15L24 15L24 17L23 17L23 18L24 18L24 19L23 19L23 20L24 20L24 21L21 21L21 23L23 23L23 25L21 25L21 26L20 26L20 25L19 25L19 24L18 24L18 23L20 23L20 22L18 22L18 21L20 21L20 20L18 20L18 21L16 21L16 19L17 19L17 18L16 18L16 17L19 17L19 16L20 16L20 17L21 17L21 18L20 18L20 19L21 19L21 20L22 20L22 17L21 17L21 16L22 16L22 13L21 13L21 14L20 14L20 15L19 15L19 16L17 16L17 15L16 15L16 17L15 17L15 21L16 21L16 22L15 22L15 23L16 23L16 25L15 25L15 24L14 24L14 21L12 21L12 22L13 22L13 24L14 24L14 26L13 26L13 25L12 25L12 26L11 26L11 27L12 27L12 28L13 28L13 27L14 27L14 26L16 26L16 25L18 25L18 26L17 26L17 27L18 27L18 26L19 26L19 27L20 27L20 28L19 28L19 29L18 29L18 30L19 30L19 29L22 29L22 28L21 28L21 27L22 27L22 26L23 26L23 25L24 25L24 26L25 26L25 27L26 27L26 30L25 30L25 29L23 29L23 35L21 35L21 34L22 34L22 33L21 33L21 32L20 32L20 33L21 33L21 34L20 34L20 35L19 35L19 36L18 36L18 37L17 37L17 38L18 38L18 37L19 37L19 38L20 38L20 39L17 39L17 40L16 40L16 39L15 39L15 40L14 40L14 39L13 39L13 42L15 42L15 41L19 41L19 40L20 40L20 41L21 41L21 42L22 42L22 43L21 43L21 44L22 44L22 45L24 45L24 44L25 44L25 45L26 45L26 44L25 44L25 36L26 36L26 35L27 35L27 34L25 34L25 33L29 33L29 34L30 34L30 35L29 35L29 39L31 39L31 38L32 38L32 35L31 35L31 34L34 34L34 35L35 35L35 34L36 34L36 35L37 35L37 36L36 36L36 37L35 37L35 36L33 36L33 37L35 37L35 38L33 38L33 39L32 39L32 40L33 40L33 39L35 39L35 40L36 40L36 41L37 41L37 42L32 42L32 41L30 41L30 43L31 43L31 44L34 44L34 43L37 43L37 42L38 42L38 41L39 41L39 40L40 40L40 38L38 38L38 37L40 37L40 36L41 36L41 35L42 35L42 34L41 34L41 33L40 33L40 32L41 32L41 31L42 31L42 32L43 32L43 31L42 31L42 30L41 30L41 29L39 29L39 30L41 30L41 31L40 31L40 32L38 32L38 31L37 31L37 32L35 32L35 34L34 34L34 33L31 33L31 32L33 32L33 31L35 31L35 30L38 30L38 27L39 27L39 26L37 26L37 25L38 25L38 23L37 23L37 22L38 22L38 21L37 21L37 20L38 20L38 19L37 19L37 18L38 18L38 15L37 15L37 14L33 14L33 13L32 13L32 12L31 12L31 13L32 13L32 14L33 14L33 15L31 15L31 14L30 14L30 13L28 13L28 12L30 12L30 11L28 11L28 10ZM6 11L6 12L5 12L5 13L6 13L6 14L4 14L4 17L6 17L6 18L7 18L7 17L10 17L10 16L9 16L9 15L10 15L10 14L7 14L7 13L8 13L8 11ZM12 11L12 12L13 12L13 11ZM6 12L6 13L7 13L7 12ZM26 13L26 14L28 14L28 13ZM39 13L39 14L40 14L40 13ZM51 13L51 14L50 14L50 15L51 15L51 14L52 14L52 13ZM6 14L6 15L5 15L5 16L6 16L6 17L7 17L7 16L6 16L6 15L7 15L7 14ZM29 14L29 15L28 15L28 16L27 16L27 15L26 15L26 16L25 16L25 18L26 18L26 20L25 20L25 21L24 21L24 22L23 22L23 23L24 23L24 25L25 25L25 26L26 26L26 25L27 25L27 26L28 26L28 25L30 25L30 24L31 24L31 22L30 22L30 21L29 21L29 20L30 20L30 19L34 19L34 18L35 18L35 20L34 20L34 21L33 21L33 20L32 20L32 21L33 21L33 22L35 22L35 23L34 23L34 24L32 24L32 25L31 25L31 27L33 27L33 28L31 28L31 29L33 29L33 30L32 30L32 31L33 31L33 30L35 30L35 29L36 29L36 28L37 28L37 26L35 26L35 25L34 25L34 24L37 24L37 23L36 23L36 22L37 22L37 21L36 21L36 20L37 20L37 19L36 19L36 18L37 18L37 17L36 17L36 16L37 16L37 15L36 15L36 16L35 16L35 15L34 15L34 16L35 16L35 17L34 17L34 18L33 18L33 16L30 16L30 14ZM20 15L20 16L21 16L21 15ZM26 16L26 17L27 17L27 18L28 18L28 19L27 19L27 20L26 20L26 21L25 21L25 22L26 22L26 23L25 23L25 24L27 24L27 25L28 25L28 24L30 24L30 22L29 22L29 23L28 23L28 24L27 24L27 20L29 20L29 18L31 18L31 17L29 17L29 16L28 16L28 17L27 17L27 16ZM35 17L35 18L36 18L36 17ZM8 18L8 19L9 19L9 20L10 20L10 18ZM18 18L18 19L19 19L19 18ZM1 19L1 20L2 20L2 19ZM12 19L12 20L14 20L14 19ZM5 22L5 23L6 23L6 22ZM32 25L32 26L33 26L33 25ZM1 27L1 29L2 29L2 27ZM5 27L5 30L8 30L8 27ZM23 27L23 28L24 28L24 27ZM27 27L27 30L30 30L30 27ZM34 27L34 28L33 28L33 29L35 29L35 28L36 28L36 27ZM40 27L40 28L41 28L41 27ZM49 27L49 30L52 30L52 27ZM6 28L6 29L7 29L7 28ZM28 28L28 29L29 29L29 28ZM44 28L44 29L45 29L45 28ZM50 28L50 29L51 29L51 28ZM54 28L54 29L53 29L53 30L56 30L56 29L55 29L55 28ZM3 29L3 31L4 31L4 29ZM21 30L21 31L22 31L22 30ZM24 30L24 31L25 31L25 32L27 32L27 31L25 31L25 30ZM46 30L46 31L47 31L47 32L48 32L48 31L47 31L47 30ZM13 31L13 32L10 32L10 33L13 33L13 32L14 32L14 31ZM28 31L28 32L29 32L29 33L30 33L30 31ZM6 32L6 33L7 33L7 34L6 34L6 35L8 35L8 34L9 34L9 33L7 33L7 32ZM37 32L37 33L36 33L36 34L37 34L37 35L38 35L38 36L40 36L40 35L41 35L41 34L40 34L40 35L38 35L38 34L39 34L39 33L38 33L38 32ZM51 32L51 33L50 33L50 34L51 34L51 33L54 33L54 32ZM4 33L4 34L5 34L5 33ZM37 33L37 34L38 34L38 33ZM11 34L11 35L10 35L10 36L11 36L11 37L12 37L12 36L13 36L13 38L16 38L16 37L15 37L15 36L13 36L13 34ZM24 34L24 36L25 36L25 34ZM11 35L11 36L12 36L12 35ZM2 36L2 37L3 37L3 36ZM19 36L19 37L21 37L21 39L22 39L22 37L23 37L23 38L24 38L24 37L23 37L23 36L22 36L22 37L21 37L21 36ZM30 36L30 38L31 38L31 36ZM54 36L54 37L55 37L55 36ZM9 37L9 39L8 39L8 40L9 40L9 41L8 41L8 42L9 42L9 43L10 43L10 42L12 42L12 39L11 39L11 38L10 38L10 37ZM26 37L26 40L28 40L28 41L29 41L29 40L28 40L28 39L27 39L27 38L28 38L28 37ZM35 38L35 39L36 39L36 40L37 40L37 39L38 39L38 40L39 40L39 39L38 39L38 38ZM53 38L53 39L55 39L55 38ZM10 39L10 41L11 41L11 39ZM23 39L23 40L21 40L21 41L22 41L22 42L23 42L23 41L24 41L24 39ZM42 40L42 41L43 41L43 40ZM26 41L26 42L27 42L27 41ZM1 43L1 44L2 44L2 43ZM23 43L23 44L24 44L24 43ZM3 44L3 45L4 45L4 46L3 46L3 47L5 47L5 45L4 45L4 44ZM17 44L17 45L16 45L16 46L17 46L17 47L18 47L18 46L17 46L17 45L18 45L18 44ZM35 44L35 46L38 46L38 45L39 45L39 44L38 44L38 45L37 45L37 44ZM43 44L43 45L42 45L42 46L39 46L39 48L41 48L41 47L42 47L42 46L44 46L44 44ZM1 45L1 47L2 47L2 45ZM12 45L12 46L13 46L13 45ZM47 45L47 46L48 46L48 45ZM49 45L49 46L51 46L51 45ZM10 47L10 48L11 48L11 47ZM20 47L20 48L19 48L19 49L18 49L18 50L19 50L19 49L20 49L20 50L21 50L21 51L22 51L22 53L24 53L24 51L25 51L25 52L26 52L26 50L23 50L23 49L24 49L24 48L21 48L21 47ZM37 47L37 48L35 48L35 50L34 50L34 52L33 52L33 50L32 50L32 52L33 52L33 53L34 53L34 52L36 52L36 53L37 53L37 54L36 54L36 55L37 55L37 54L38 54L38 53L37 53L37 52L38 52L38 51L40 51L40 50L44 50L44 49L40 49L40 50L38 50L38 47ZM21 49L21 50L22 50L22 49ZM27 49L27 52L30 52L30 49ZM36 49L36 50L35 50L35 51L36 51L36 52L37 52L37 51L38 51L38 50L37 50L37 49ZM45 49L45 50L46 50L46 49ZM49 49L49 52L52 52L52 49ZM12 50L12 51L13 51L13 50ZM28 50L28 51L29 51L29 50ZM36 50L36 51L37 51L37 50ZM50 50L50 51L51 51L51 50ZM53 50L53 51L54 51L54 50ZM16 51L16 53L15 53L15 54L16 54L16 53L17 53L17 51ZM18 51L18 52L19 52L19 51ZM56 51L56 52L57 52L57 51ZM9 54L9 56L11 56L11 55L10 55L10 54ZM34 54L34 55L35 55L35 54ZM47 54L47 55L48 55L48 56L46 56L46 55L45 55L45 57L49 57L49 54ZM51 54L51 55L53 55L53 54ZM15 55L15 56L16 56L16 55ZM27 55L27 56L28 56L28 55ZM43 55L43 57L44 57L44 55ZM25 56L25 57L26 57L26 56ZM0 0L0 7L7 7L7 0ZM1 1L1 6L6 6L6 1ZM2 2L2 5L5 5L5 2ZM50 0L50 7L57 7L57 0ZM51 1L51 6L56 6L56 1ZM52 2L52 5L55 5L55 2ZM0 50L0 57L7 57L7 50ZM1 51L1 56L6 56L6 51ZM2 52L2 55L5 55L5 52Z" fill="#000000"/></g></g></svg>
