<?xml version="1.0" encoding="UTF-8"?>
<svg xmlns="http://www.w3.org/2000/svg" version="1.1" width="300" height="300" viewBox="0 0 300 300"><rect x="0" y="0" width="300" height="300" fill="#ffffff"/><g transform="scale(4.918)"><g transform="translate(2,2)"><path fill-rule="evenodd" d="M12 0L12 1L13 1L13 0ZM14 0L14 1L15 1L15 2L14 2L14 3L8 3L8 4L13 4L13 5L15 5L15 6L14 6L14 7L13 7L13 6L12 6L12 8L11 8L11 10L12 10L12 12L11 12L11 11L10 11L10 10L9 10L9 9L10 9L10 8L6 8L6 9L7 9L7 10L5 10L5 8L0 8L0 9L2 9L2 12L3 12L3 13L1 13L1 11L0 11L0 13L1 13L1 14L4 14L4 12L3 12L3 11L4 11L4 10L5 10L5 14L6 14L6 15L8 15L8 16L10 16L10 17L9 17L9 18L8 18L8 17L7 17L7 16L4 16L4 15L1 15L1 16L4 16L4 17L7 17L7 18L5 18L5 20L4 20L4 23L5 23L5 20L6 20L6 21L7 21L7 22L6 22L6 23L7 23L7 22L8 22L8 20L9 20L9 18L10 18L10 19L11 19L11 18L12 18L12 20L10 20L10 22L12 22L12 23L9 23L9 24L8 24L8 25L9 25L9 26L4 26L4 25L3 25L3 24L2 24L2 23L3 23L3 21L2 21L2 20L3 20L3 19L4 19L4 18L2 18L2 17L0 17L0 18L2 18L2 20L1 20L1 19L0 19L0 22L2 22L2 23L0 23L0 24L2 24L2 25L3 25L3 27L2 27L2 26L1 26L1 27L0 27L0 28L1 28L1 30L0 30L0 37L1 37L1 38L2 38L2 39L0 39L0 40L1 40L1 41L0 41L0 42L1 42L1 43L2 43L2 42L3 42L3 44L1 44L1 45L2 45L2 47L1 47L1 46L0 46L0 48L5 48L5 47L7 47L7 48L6 48L6 49L8 49L8 51L9 51L9 52L8 52L8 57L10 57L10 56L12 56L12 57L14 57L14 56L16 56L16 55L15 55L15 54L16 54L16 53L15 53L15 52L16 52L16 51L17 51L17 53L19 53L19 54L17 54L17 57L20 57L20 56L22 56L22 55L24 55L24 56L23 56L23 57L26 57L26 56L28 56L28 55L25 55L25 54L27 54L27 53L28 53L28 54L29 54L29 55L30 55L30 56L29 56L29 57L32 57L32 56L33 56L33 57L37 57L37 56L38 56L38 57L39 57L39 56L40 56L40 52L41 52L41 56L43 56L43 57L44 57L44 56L45 56L45 55L44 55L44 56L43 56L43 53L44 53L44 54L45 54L45 53L44 53L44 51L43 51L43 53L42 53L42 52L41 52L41 51L42 51L42 50L45 50L45 52L48 52L48 53L50 53L50 55L51 55L51 56L50 56L50 57L52 57L52 56L53 56L53 57L56 57L56 56L55 56L55 54L53 54L53 53L54 53L54 52L55 52L55 51L56 51L56 52L57 52L57 51L56 51L56 50L57 50L57 49L56 49L56 50L55 50L55 49L54 49L54 48L57 48L57 47L56 47L56 46L57 46L57 43L56 43L56 42L57 42L57 41L54 41L54 40L55 40L55 39L57 39L57 37L56 37L56 36L57 36L57 35L56 35L56 34L57 34L57 32L56 32L56 30L57 30L57 29L56 29L56 28L57 28L57 27L56 27L56 26L57 26L57 25L56 25L56 24L55 24L55 23L56 23L56 22L57 22L57 21L55 21L55 22L54 22L54 23L52 23L52 22L53 22L53 21L51 21L51 22L50 22L50 16L51 16L51 20L56 20L56 19L52 19L52 18L54 18L54 17L52 17L52 16L55 16L55 18L57 18L57 17L56 17L56 16L57 16L57 15L56 15L56 14L57 14L57 13L56 13L56 12L57 12L57 11L56 11L56 10L57 10L57 9L56 9L56 8L55 8L55 9L56 9L56 10L55 10L55 11L54 11L54 10L53 10L53 9L54 9L54 8L53 8L53 9L52 9L52 8L51 8L51 10L49 10L49 9L50 9L50 8L49 8L49 6L48 6L48 7L47 7L47 5L48 5L48 0L45 0L45 1L47 1L47 2L44 2L44 0L41 0L41 1L40 1L40 0L39 0L39 1L38 1L38 0L36 0L36 1L34 1L34 0L32 0L32 1L34 1L34 2L28 2L28 1L26 1L26 0L24 0L24 1L23 1L23 0L21 0L21 1L23 1L23 2L25 2L25 3L24 3L24 4L22 4L22 2L19 2L19 1L16 1L16 0ZM29 0L29 1L31 1L31 0ZM8 1L8 2L11 2L11 1ZM37 1L37 2L35 2L35 3L34 3L34 4L33 4L33 3L32 3L32 4L31 4L31 7L32 7L32 6L33 6L33 7L34 7L34 6L33 6L33 5L36 5L36 6L35 6L35 7L36 7L36 6L37 6L37 7L38 7L38 6L39 6L39 7L40 7L40 8L39 8L39 9L38 9L38 8L37 8L37 9L35 9L35 8L34 8L34 9L33 9L33 8L32 8L32 9L31 9L31 10L29 10L29 9L28 9L28 11L30 11L30 12L32 12L32 14L31 14L31 15L32 15L32 14L37 14L37 15L34 15L34 18L33 18L33 16L30 16L30 13L29 13L29 12L28 12L28 13L26 13L26 16L25 16L25 19L26 19L26 20L25 20L25 22L26 22L26 23L25 23L25 24L26 24L26 25L25 25L25 26L23 26L23 29L22 29L22 28L21 28L21 29L20 29L20 27L22 27L22 25L24 25L24 23L23 23L23 22L24 22L24 21L23 21L23 20L22 20L22 21L21 21L21 19L24 19L24 18L23 18L23 17L24 17L24 15L25 15L25 14L24 14L24 13L25 13L25 12L27 12L27 11L26 11L26 10L27 10L27 9L26 9L26 6L25 6L25 4L26 4L26 3L25 3L25 4L24 4L24 5L23 5L23 7L22 7L22 6L21 6L21 5L22 5L22 4L21 4L21 3L20 3L20 4L18 4L18 3L19 3L19 2L17 2L17 3L16 3L16 4L15 4L15 3L14 3L14 4L15 4L15 5L16 5L16 4L18 4L18 5L17 5L17 8L16 8L16 6L15 6L15 7L14 7L14 9L12 9L12 10L13 10L13 11L14 11L14 12L13 12L13 13L14 13L14 14L15 14L15 11L17 11L17 12L18 12L18 13L16 13L16 15L15 15L15 16L14 16L14 17L12 17L12 18L15 18L15 17L16 17L16 18L17 18L17 19L16 19L16 20L15 20L15 21L13 21L13 20L14 20L14 19L13 19L13 20L12 20L12 21L13 21L13 23L14 23L14 24L13 24L13 25L12 25L12 24L9 24L9 25L12 25L12 26L13 26L13 25L14 25L14 24L15 24L15 26L14 26L14 27L13 27L13 28L12 28L12 29L13 29L13 33L12 33L12 30L10 30L10 31L11 31L11 32L10 32L10 33L5 33L5 32L9 32L9 31L3 31L3 33L2 33L2 31L1 31L1 33L2 33L2 34L1 34L1 35L3 35L3 36L1 36L1 37L2 37L2 38L5 38L5 37L4 37L4 36L7 36L7 37L6 37L6 38L7 38L7 37L8 37L8 38L9 38L9 40L7 40L7 39L6 39L6 40L4 40L4 39L3 39L3 40L2 40L2 41L3 41L3 40L4 40L4 41L6 41L6 42L7 42L7 43L6 43L6 44L7 44L7 43L8 43L8 41L9 41L9 40L11 40L11 41L10 41L10 42L9 42L9 44L8 44L8 47L9 47L9 48L8 48L8 49L9 49L9 48L10 48L10 49L11 49L11 51L12 51L12 52L9 52L9 56L10 56L10 54L11 54L11 55L12 55L12 56L13 56L13 55L14 55L14 53L13 53L13 52L15 52L15 51L16 51L16 50L17 50L17 51L18 51L18 50L19 50L19 49L20 49L20 50L21 50L21 49L22 49L22 51L23 51L23 52L22 52L22 53L21 53L21 52L19 52L19 53L21 53L21 54L22 54L22 53L23 53L23 54L24 54L24 53L23 53L23 52L24 52L24 51L25 51L25 53L26 53L26 51L25 51L25 50L23 50L23 49L24 49L24 48L25 48L25 49L26 49L26 46L28 46L28 47L27 47L27 48L30 48L30 47L29 47L29 45L27 45L27 43L28 43L28 42L31 42L31 41L33 41L33 42L32 42L32 43L29 43L29 44L32 44L32 46L36 46L36 47L33 47L33 48L31 48L31 49L32 49L32 51L31 51L31 52L32 52L32 54L34 54L34 55L36 55L36 54L35 54L35 52L36 52L36 51L37 51L37 50L40 50L40 51L38 51L38 52L40 52L40 51L41 51L41 50L42 50L42 49L41 49L41 48L42 48L42 47L43 47L43 48L44 48L44 49L45 49L45 50L47 50L47 51L48 51L48 48L49 48L49 47L52 47L52 48L54 48L54 47L55 47L55 46L56 46L56 45L55 45L55 44L54 44L54 45L55 45L55 46L54 46L54 47L53 47L53 45L52 45L52 44L53 44L53 43L54 43L54 41L52 41L52 40L53 40L53 39L55 39L55 36L56 36L56 35L55 35L55 36L54 36L54 38L53 38L53 36L52 36L52 34L54 34L54 33L55 33L55 34L56 34L56 32L54 32L54 31L55 31L55 30L56 30L56 29L55 29L55 28L56 28L56 27L55 27L55 26L54 26L54 24L51 24L51 23L50 23L50 22L49 22L49 23L48 23L48 24L46 24L46 25L45 25L45 24L44 24L44 26L46 26L46 28L47 28L47 29L46 29L46 30L45 30L45 28L44 28L44 27L43 27L43 28L42 28L42 26L41 26L41 23L42 23L42 22L40 22L40 23L37 23L37 24L38 24L38 26L37 26L37 25L36 25L36 26L35 26L35 25L33 25L33 24L36 24L36 22L37 22L37 21L36 21L36 20L37 20L37 19L34 19L34 18L36 18L36 17L35 17L35 16L40 16L40 17L37 17L37 18L39 18L39 19L38 19L38 22L39 22L39 20L40 20L40 21L42 21L42 20L40 20L40 19L43 19L43 18L44 18L44 19L45 19L45 20L43 20L43 23L44 23L44 21L45 21L45 22L46 22L46 23L47 23L47 21L48 21L48 20L47 20L47 19L46 19L46 18L47 18L47 17L49 17L49 16L50 16L50 14L51 14L51 16L52 16L52 15L55 15L55 14L56 14L56 13L55 13L55 12L54 12L54 11L53 11L53 10L51 10L51 11L50 11L50 13L49 13L49 12L48 12L48 11L49 11L49 10L48 10L48 9L49 9L49 8L48 8L48 9L46 9L46 8L47 8L47 7L46 7L46 5L47 5L47 3L40 3L40 5L41 5L41 4L43 4L43 8L44 8L44 9L45 9L45 10L44 10L44 11L45 11L45 12L43 12L43 14L42 14L42 11L43 11L43 10L42 10L42 11L41 11L41 10L40 10L40 9L41 9L41 8L42 8L42 6L41 6L41 7L40 7L40 6L39 6L39 4L38 4L38 3L39 3L39 2L38 2L38 1ZM41 1L41 2L43 2L43 1ZM37 2L37 3L36 3L36 5L37 5L37 6L38 6L38 4L37 4L37 3L38 3L38 2ZM27 3L27 4L29 4L29 3ZM44 4L44 5L46 5L46 4ZM8 5L8 7L9 7L9 6L10 6L10 7L11 7L11 6L10 6L10 5ZM18 5L18 7L19 7L19 6L20 6L20 7L21 7L21 6L20 6L20 5ZM27 5L27 8L30 8L30 5ZM24 6L24 7L23 7L23 9L22 9L22 10L19 10L19 11L20 11L20 13L18 13L18 15L20 15L20 13L22 13L22 12L21 12L21 11L22 11L22 10L25 10L25 9L24 9L24 7L25 7L25 6ZM28 6L28 7L29 7L29 6ZM44 6L44 8L46 8L46 7L45 7L45 6ZM17 8L17 11L18 11L18 9L21 9L21 8ZM3 9L3 10L4 10L4 9ZM14 9L14 10L15 10L15 9ZM32 9L32 10L33 10L33 9ZM37 9L37 10L36 10L36 11L37 11L37 12L34 12L34 11L32 11L32 12L33 12L33 13L37 13L37 14L38 14L38 12L39 12L39 11L38 11L38 9ZM45 10L45 11L46 11L46 10ZM6 11L6 12L7 12L7 11ZM8 11L8 12L9 12L9 11ZM40 11L40 12L41 12L41 11ZM52 11L52 12L53 12L53 11ZM23 12L23 13L24 13L24 12ZM45 12L45 13L44 13L44 14L43 14L43 15L42 15L42 14L41 14L41 13L39 13L39 15L40 15L40 16L43 16L43 17L41 17L41 18L43 18L43 17L44 17L44 16L46 16L46 17L45 17L45 18L46 18L46 17L47 17L47 16L46 16L46 15L49 15L49 13L47 13L47 14L46 14L46 12ZM6 13L6 14L7 14L7 13ZM8 13L8 14L9 14L9 13ZM10 13L10 14L11 14L11 15L10 15L10 16L11 16L11 15L13 15L13 14L12 14L12 13ZM28 13L28 14L27 14L27 15L29 15L29 13ZM51 13L51 14L52 14L52 13ZM54 13L54 14L55 14L55 13ZM21 14L21 16L20 16L20 17L21 17L21 18L20 18L20 19L21 19L21 18L22 18L22 17L21 17L21 16L22 16L22 14ZM40 14L40 15L41 15L41 14ZM44 14L44 15L43 15L43 16L44 16L44 15L45 15L45 14ZM16 15L16 17L19 17L19 16L17 16L17 15ZM26 16L26 19L27 19L27 20L30 20L30 22L28 22L28 21L27 21L27 23L28 23L28 24L27 24L27 25L26 25L26 26L25 26L25 27L26 27L26 30L25 30L25 29L23 29L23 31L24 31L24 32L23 32L23 36L24 36L24 37L22 37L22 36L21 36L21 34L22 34L22 33L21 33L21 32L20 32L20 33L21 33L21 34L20 34L20 35L18 35L18 37L16 37L16 36L17 36L17 35L16 35L16 33L19 33L19 31L18 31L18 32L16 32L16 31L17 31L17 30L20 30L20 29L19 29L19 26L20 26L20 25L21 25L21 23L22 23L22 22L23 22L23 21L22 21L22 22L21 22L21 21L19 21L19 18L18 18L18 19L17 19L17 20L18 20L18 21L17 21L17 24L16 24L16 23L15 23L15 24L16 24L16 25L18 25L18 27L15 27L15 31L14 31L14 33L13 33L13 34L12 34L12 35L11 35L11 36L9 36L9 37L10 37L10 38L11 38L11 40L13 40L13 38L15 38L15 39L14 39L14 40L15 40L15 39L16 39L16 41L15 41L15 46L16 46L16 45L18 45L18 47L17 47L17 48L16 48L16 47L15 47L15 48L14 48L14 49L13 49L13 48L12 48L12 46L11 46L11 45L10 45L10 44L11 44L11 43L10 43L10 44L9 44L9 45L10 45L10 46L9 46L9 47L10 47L10 46L11 46L11 48L12 48L12 50L13 50L13 51L14 51L14 50L15 50L15 49L17 49L17 50L18 50L18 49L19 49L19 48L20 48L20 46L19 46L19 45L22 45L22 44L20 44L20 42L19 42L19 45L18 45L18 44L16 44L16 43L18 43L18 42L16 42L16 41L21 41L21 40L22 40L22 39L21 39L21 40L19 40L19 39L20 39L20 38L19 38L19 39L17 39L17 38L18 38L18 37L20 37L20 36L21 36L21 37L22 37L22 38L24 38L24 37L28 37L28 38L25 38L25 40L24 40L24 39L23 39L23 41L22 41L22 42L21 42L21 43L22 43L22 42L26 42L26 43L27 43L27 42L26 42L26 41L27 41L27 39L28 39L28 41L31 41L31 40L33 40L33 39L34 39L34 41L35 41L35 42L33 42L33 43L32 43L32 44L34 44L34 43L35 43L35 44L36 44L36 46L38 46L38 45L39 45L39 47L38 47L38 48L35 48L35 50L33 50L33 51L32 51L32 52L33 52L33 51L35 51L35 50L37 50L37 49L38 49L38 48L39 48L39 49L40 49L40 50L41 50L41 49L40 49L40 48L41 48L41 47L42 47L42 46L44 46L44 44L43 44L43 43L45 43L45 47L44 47L44 48L45 48L45 49L46 49L46 48L45 48L45 47L47 47L47 46L48 46L48 45L50 45L50 44L51 44L51 43L50 43L50 42L51 42L51 41L49 41L49 40L50 40L50 38L48 38L48 37L47 37L47 36L48 36L48 33L47 33L47 34L45 34L45 33L44 33L44 32L45 32L45 31L44 31L44 30L43 30L43 29L44 29L44 28L43 28L43 29L42 29L42 30L41 30L41 29L40 29L40 28L41 28L41 27L40 27L40 26L39 26L39 27L40 27L40 28L39 28L39 29L40 29L40 30L41 30L41 31L38 31L38 32L34 32L34 31L37 31L37 30L38 30L38 27L37 27L37 26L36 26L36 27L35 27L35 26L32 26L32 25L29 25L29 26L27 26L27 25L28 25L28 24L29 24L29 23L30 23L30 24L31 24L31 23L32 23L32 24L33 24L33 23L34 23L34 22L33 22L33 21L32 21L32 20L34 20L34 21L35 21L35 20L34 20L34 19L28 19L28 18L27 18L27 17L28 17L28 16ZM29 17L29 18L31 18L31 17ZM7 18L7 19L6 19L6 20L8 20L8 18ZM15 21L15 22L16 22L16 21ZM18 21L18 22L19 22L19 23L18 23L18 24L19 24L19 25L20 25L20 24L19 24L19 23L20 23L20 22L19 22L19 21ZM30 22L30 23L31 23L31 22ZM6 24L6 25L7 25L7 24ZM42 24L42 25L43 25L43 24ZM49 24L49 25L47 25L47 26L48 26L48 29L47 29L47 30L46 30L46 31L47 31L47 32L48 32L48 31L50 31L50 32L51 32L51 33L50 33L50 34L51 34L51 33L54 33L54 32L52 32L52 31L53 31L53 30L55 30L55 29L54 29L54 28L55 28L55 27L53 27L53 25L51 25L51 24ZM50 25L50 26L51 26L51 25ZM9 26L9 29L10 29L10 28L11 28L11 27L10 27L10 26ZM1 27L1 28L2 28L2 27ZM3 27L3 28L4 28L4 27ZM5 27L5 30L8 30L8 27ZM27 27L27 30L30 30L30 27ZM31 27L31 28L32 28L32 29L33 29L33 30L31 30L31 31L33 31L33 30L35 30L35 29L33 29L33 28L34 28L34 27ZM36 27L36 28L37 28L37 27ZM49 27L49 30L52 30L52 27ZM6 28L6 29L7 29L7 28ZM13 28L13 29L14 29L14 28ZM17 28L17 29L16 29L16 30L17 30L17 29L18 29L18 28ZM28 28L28 29L29 29L29 28ZM50 28L50 29L51 29L51 28ZM2 29L2 30L3 30L3 29ZM21 29L21 31L22 31L22 29ZM24 30L24 31L25 31L25 34L24 34L24 36L25 36L25 34L26 34L26 33L27 33L27 35L26 35L26 36L28 36L28 37L29 37L29 36L30 36L30 38L31 38L31 39L29 39L29 40L31 40L31 39L33 39L33 38L34 38L34 39L35 39L35 40L37 40L37 41L38 41L38 42L37 42L37 43L36 43L36 42L35 42L35 43L36 43L36 44L39 44L39 45L41 45L41 46L42 46L42 45L43 45L43 44L41 44L41 43L43 43L43 42L41 42L41 39L43 39L43 40L42 40L42 41L43 41L43 40L44 40L44 41L45 41L45 42L46 42L46 43L49 43L49 42L47 42L47 41L48 41L48 40L49 40L49 39L47 39L47 37L46 37L46 36L47 36L47 35L46 35L46 36L45 36L45 34L44 34L44 33L43 33L43 34L42 34L42 33L41 33L41 32L42 32L42 31L43 31L43 32L44 32L44 31L43 31L43 30L42 30L42 31L41 31L41 32L38 32L38 33L34 33L34 34L32 34L32 38L31 38L31 36L30 36L30 35L31 35L31 33L33 33L33 32L30 32L30 33L27 33L27 31L25 31L25 30ZM47 30L47 31L48 31L48 30ZM28 31L28 32L29 32L29 31ZM3 33L3 34L5 34L5 35L7 35L7 36L8 36L8 35L7 35L7 34L5 34L5 33ZM10 33L10 34L9 34L9 35L10 35L10 34L11 34L11 33ZM29 34L29 35L30 35L30 34ZM34 34L34 35L33 35L33 36L34 36L34 37L35 37L35 38L36 38L36 39L38 39L38 40L39 40L39 39L40 39L40 38L38 38L38 37L40 37L40 36L41 36L41 35L42 35L42 36L43 36L43 37L42 37L42 38L43 38L43 37L44 37L44 38L45 38L45 39L46 39L46 38L45 38L45 37L44 37L44 35L42 35L42 34L41 34L41 35L40 35L40 36L36 36L36 37L35 37L35 35L39 35L39 34ZM14 35L14 36L12 36L12 37L11 37L11 38L12 38L12 37L15 37L15 38L16 38L16 37L15 37L15 35ZM49 35L49 36L50 36L50 37L52 37L52 36L51 36L51 35ZM51 38L51 40L52 40L52 38ZM6 40L6 41L7 41L7 40ZM46 40L46 41L47 41L47 40ZM11 41L11 42L13 42L13 43L12 43L12 45L14 45L14 42L13 42L13 41ZM39 41L39 42L40 42L40 41ZM24 43L24 44L23 44L23 45L24 45L24 47L25 47L25 45L26 45L26 44L25 44L25 43ZM39 43L39 44L40 44L40 43ZM24 44L24 45L25 45L25 44ZM47 44L47 45L46 45L46 46L47 46L47 45L48 45L48 44ZM4 45L4 46L3 46L3 47L5 47L5 45ZM6 45L6 46L7 46L7 45ZM51 45L51 46L52 46L52 45ZM21 46L21 48L23 48L23 47L22 47L22 46ZM39 47L39 48L40 48L40 47ZM27 49L27 52L30 52L30 49ZM49 49L49 52L52 52L52 49ZM9 50L9 51L10 51L10 50ZM28 50L28 51L29 51L29 50ZM50 50L50 51L51 51L51 50ZM53 50L53 51L54 51L54 50ZM29 53L29 54L30 54L30 53ZM38 53L38 54L37 54L37 55L38 55L38 56L39 56L39 55L38 55L38 54L39 54L39 53ZM12 54L12 55L13 55L13 54ZM19 54L19 55L18 55L18 56L19 56L19 55L20 55L20 54ZM48 54L48 56L47 56L47 57L48 57L48 56L49 56L49 54ZM51 54L51 55L53 55L53 54ZM31 55L31 56L32 56L32 55ZM0 0L0 7L7 7L7 0ZM1 1L1 6L6 6L6 1ZM2 2L2 5L5 5L5 2ZM50 0L50 7L57 7L57 0ZM51 1L51 6L56 6L56 1ZM52 2L52 5L55 5L55 2ZM0 50L0 57L7 57L7 50ZM1 51L1 56L6 56L6 51ZM2 52L2 55L5 55L5 52Z" fill="#000000"/></g></g></svg>
