<?xml version="1.0" encoding="UTF-8"?>
<svg xmlns="http://www.w3.org/2000/svg" version="1.1" width="300" height="300" viewBox="0 0 300 300"><rect x="0" y="0" width="300" height="300" fill="#ffffff"/><g transform="scale(4.918)"><g transform="translate(2,2)"><path fill-rule="evenodd" d="M11 0L11 1L8 1L8 2L9 2L9 3L8 3L8 4L9 4L9 5L8 5L8 7L9 7L9 8L6 8L6 9L5 9L5 8L0 8L0 11L1 11L1 12L2 12L2 15L0 15L0 16L2 16L2 17L1 17L1 19L0 19L0 20L1 20L1 19L2 19L2 17L3 17L3 18L4 18L4 17L5 17L5 16L4 16L4 15L5 15L5 14L4 14L4 13L5 13L5 12L6 12L6 13L8 13L8 15L7 15L7 14L6 14L6 15L7 15L7 16L6 16L6 17L8 17L8 18L6 18L6 19L7 19L7 20L6 20L6 21L7 21L7 22L5 22L5 20L4 20L4 19L3 19L3 20L4 20L4 21L0 21L0 22L1 22L1 23L0 23L0 25L1 25L1 27L0 27L0 28L1 28L1 29L0 29L0 30L1 30L1 29L2 29L2 28L1 28L1 27L2 27L2 25L3 25L3 23L5 23L5 24L6 24L6 25L7 25L7 26L5 26L5 25L4 25L4 27L3 27L3 29L4 29L4 31L7 31L7 32L6 32L6 33L4 33L4 32L3 32L3 30L2 30L2 33L1 33L1 34L2 34L2 36L1 36L1 35L0 35L0 36L1 36L1 37L2 37L2 38L0 38L0 39L1 39L1 40L0 40L0 41L1 41L1 43L0 43L0 45L3 45L3 46L2 46L2 47L1 47L1 46L0 46L0 48L5 48L5 47L7 47L7 46L6 46L6 45L7 45L7 44L8 44L8 45L9 45L9 46L8 46L8 51L9 51L9 48L10 48L10 49L11 49L11 48L12 48L12 51L10 51L10 52L8 52L8 57L14 57L14 56L15 56L15 57L16 57L16 55L14 55L14 52L18 52L18 53L19 53L19 54L20 54L20 55L19 55L19 56L18 56L18 55L17 55L17 57L19 57L19 56L20 56L20 57L21 57L21 56L22 56L22 54L23 54L23 55L24 55L24 57L26 57L26 56L25 56L25 55L26 55L26 54L27 54L27 53L28 53L28 54L29 54L29 55L30 55L30 56L29 56L29 57L31 57L31 56L34 56L34 55L35 55L35 57L39 57L39 56L40 56L40 52L41 52L41 54L42 54L42 55L43 55L43 53L44 53L44 54L45 54L45 53L44 53L44 50L45 50L45 51L47 51L47 52L46 52L46 53L47 53L47 55L49 55L49 56L47 56L47 57L49 57L49 56L50 56L50 55L51 55L51 57L52 57L52 56L53 56L53 57L56 57L56 56L55 56L55 53L56 53L56 51L55 51L55 50L57 50L57 48L56 48L56 46L57 46L57 44L56 44L56 42L57 42L57 41L54 41L54 40L55 40L55 39L57 39L57 37L54 37L54 36L55 36L55 34L57 34L57 33L56 33L56 32L57 32L57 31L56 31L56 30L57 30L57 29L56 29L56 28L55 28L55 27L56 27L56 26L57 26L57 25L56 25L56 24L55 24L55 23L56 23L56 22L57 22L57 21L56 21L56 20L57 20L57 19L56 19L56 18L57 18L57 15L56 15L56 14L57 14L57 13L56 13L56 14L55 14L55 13L54 13L54 14L55 14L55 15L54 15L54 16L53 16L53 17L54 17L54 18L53 18L53 19L52 19L52 17L51 17L51 16L52 16L52 15L51 15L51 14L52 14L52 13L51 13L51 12L50 12L50 13L51 13L51 14L49 14L49 13L47 13L47 14L46 14L46 12L45 12L45 14L44 14L44 11L42 11L42 10L46 10L46 11L47 11L47 10L49 10L49 11L48 11L48 12L49 12L49 11L52 11L52 12L53 12L53 11L54 11L54 12L55 12L55 11L56 11L56 10L57 10L57 9L56 9L56 8L55 8L55 9L56 9L56 10L55 10L55 11L54 11L54 10L52 10L52 8L51 8L51 10L49 10L49 9L50 9L50 8L49 8L49 6L48 6L48 8L49 8L49 9L47 9L47 8L46 8L46 7L47 7L47 5L48 5L48 0L45 0L45 1L44 1L44 2L43 2L43 3L42 3L42 1L43 1L43 0L42 0L42 1L41 1L41 0L39 0L39 1L37 1L37 0L35 0L35 1L33 1L33 2L32 2L32 1L31 1L31 0L30 0L30 1L28 1L28 0L27 0L27 2L26 2L26 0L23 0L23 2L22 2L22 0L21 0L21 1L20 1L20 0L19 0L19 1L18 1L18 2L17 2L17 1L16 1L16 0L13 0L13 1L15 1L15 2L13 2L13 4L12 4L12 3L11 3L11 2L12 2L12 0ZM19 1L19 3L20 3L20 4L17 4L17 2L16 2L16 4L15 4L15 3L14 3L14 4L13 4L13 5L12 5L12 6L11 6L11 3L10 3L10 5L9 5L9 7L10 7L10 8L9 8L9 9L6 9L6 10L7 10L7 11L6 11L6 12L7 12L7 11L8 11L8 10L9 10L9 9L11 9L11 10L12 10L12 9L13 9L13 11L10 11L10 12L9 12L9 13L11 13L11 12L13 12L13 13L14 13L14 17L11 17L11 15L13 15L13 14L11 14L11 15L8 15L8 17L9 17L9 16L10 16L10 17L11 17L11 18L9 18L9 19L8 19L8 20L7 20L7 21L8 21L8 22L9 22L9 23L6 23L6 24L7 24L7 25L8 25L8 26L10 26L10 28L9 28L9 30L11 30L11 31L14 31L14 32L15 32L15 33L12 33L12 32L10 32L10 31L8 31L8 32L7 32L7 33L6 33L6 34L7 34L7 35L4 35L4 34L3 34L3 36L2 36L2 37L3 37L3 38L2 38L2 39L3 39L3 38L5 38L5 40L4 40L4 41L6 41L6 42L5 42L5 43L6 43L6 44L5 44L5 45L6 45L6 44L7 44L7 43L8 43L8 42L9 42L9 45L11 45L11 46L15 46L15 45L14 45L14 43L12 43L12 41L11 41L11 39L12 39L12 40L14 40L14 41L13 41L13 42L14 42L14 41L15 41L15 44L18 44L18 45L16 45L16 46L17 46L17 47L16 47L16 48L17 48L17 47L18 47L18 48L19 48L19 49L16 49L16 51L17 51L17 50L21 50L21 49L22 49L22 50L23 50L23 51L22 51L22 52L19 52L19 51L18 51L18 52L19 52L19 53L23 53L23 54L24 54L24 53L23 53L23 52L24 52L24 51L25 51L25 53L26 53L26 50L23 50L23 48L22 48L22 47L23 47L23 45L25 45L25 49L26 49L26 48L30 48L30 47L29 47L29 46L31 46L31 47L33 47L33 46L35 46L35 45L36 45L36 46L37 46L37 47L34 47L34 48L37 48L37 49L34 49L34 50L32 50L32 51L31 51L31 52L32 52L32 54L33 54L33 55L34 55L34 54L35 54L35 55L36 55L36 54L35 54L35 53L36 53L36 52L38 52L38 50L39 50L39 52L40 52L40 51L42 51L42 52L43 52L43 50L44 50L44 49L45 49L45 50L47 50L47 51L48 51L48 48L49 48L49 47L52 47L52 48L53 48L53 49L56 49L56 48L53 48L53 47L55 47L55 46L56 46L56 44L54 44L54 45L51 45L51 44L50 44L50 46L47 46L47 45L48 45L48 44L47 44L47 45L46 45L46 46L47 46L47 48L43 48L43 50L41 50L41 48L40 48L40 47L41 47L41 46L42 46L42 47L45 47L45 43L46 43L46 42L48 42L48 43L49 43L49 41L51 41L51 42L50 42L50 43L51 43L51 42L53 42L53 43L52 43L52 44L53 44L53 43L54 43L54 41L51 41L51 38L52 38L52 39L53 39L53 40L54 40L54 39L53 39L53 38L54 38L54 37L53 37L53 36L52 36L52 34L53 34L53 35L54 35L54 34L53 34L53 33L51 33L51 34L50 34L50 32L49 32L49 31L48 31L48 28L47 28L47 27L46 27L46 26L47 26L47 25L49 25L49 26L51 26L51 24L52 24L52 26L53 26L53 27L55 27L55 26L54 26L54 24L52 24L52 23L54 23L54 22L53 22L53 20L52 20L52 21L51 21L51 19L50 19L50 22L49 22L49 24L47 24L47 21L46 21L46 20L47 20L47 19L48 19L48 18L47 18L47 17L48 17L48 16L51 16L51 15L45 15L45 16L42 16L42 17L44 17L44 18L41 18L41 16L39 16L39 15L41 15L41 14L42 14L42 15L43 15L43 14L42 14L42 11L41 11L41 10L42 10L42 8L40 8L40 11L39 11L39 9L38 9L38 11L39 11L39 12L38 12L38 13L33 13L33 10L32 10L32 9L33 9L33 8L34 8L34 10L35 10L35 11L34 11L34 12L35 12L35 11L36 11L36 12L37 12L37 10L35 10L35 8L34 8L34 5L36 5L36 6L35 6L35 7L36 7L36 6L37 6L37 8L38 8L38 6L37 6L37 5L36 5L36 3L38 3L38 5L39 5L39 7L40 7L40 6L41 6L41 7L42 7L42 6L43 6L43 7L44 7L44 6L45 6L45 7L46 7L46 6L45 6L45 5L44 5L44 4L46 4L46 5L47 5L47 3L43 3L43 5L42 5L42 3L40 3L40 4L39 4L39 2L35 2L35 4L34 4L34 5L33 5L33 3L32 3L32 4L31 4L31 7L32 7L32 6L33 6L33 8L32 8L32 9L31 9L31 11L30 11L30 10L29 10L29 9L28 9L28 10L29 10L29 11L30 11L30 12L32 12L32 14L31 14L31 15L33 15L33 16L30 16L30 13L29 13L29 12L28 12L28 13L26 13L26 16L25 16L25 15L24 15L24 14L23 14L23 13L25 13L25 12L27 12L27 11L26 11L26 10L27 10L27 9L26 9L26 6L25 6L25 4L26 4L26 3L25 3L25 4L24 4L24 2L23 2L23 3L22 3L22 4L21 4L21 2L20 2L20 1ZM30 1L30 2L29 2L29 3L27 3L27 4L30 4L30 3L31 3L31 1ZM40 1L40 2L41 2L41 1ZM45 1L45 2L47 2L47 1ZM14 4L14 5L15 5L15 6L14 6L14 7L13 7L13 6L12 6L12 8L11 8L11 9L12 9L12 8L13 8L13 9L14 9L14 7L15 7L15 6L16 6L16 8L15 8L15 9L16 9L16 8L17 8L17 9L19 9L19 10L20 10L20 12L19 12L19 13L18 13L18 12L16 12L16 13L18 13L18 14L19 14L19 15L18 15L18 16L16 16L16 15L17 15L17 14L15 14L15 18L11 18L11 21L10 21L10 22L11 22L11 21L12 21L12 19L14 19L14 20L13 20L13 21L15 21L15 22L16 22L16 21L15 21L15 20L17 20L17 19L19 19L19 20L18 20L18 21L17 21L17 22L18 22L18 21L19 21L19 22L20 22L20 23L17 23L17 24L16 24L16 23L15 23L15 24L14 24L14 25L18 25L18 27L17 27L17 28L14 28L14 26L13 26L13 25L12 25L12 26L11 26L11 28L10 28L10 29L11 29L11 30L13 30L13 28L14 28L14 29L15 29L15 30L14 30L14 31L16 31L16 33L15 33L15 34L14 34L14 35L13 35L13 34L12 34L12 33L11 33L11 34L12 34L12 35L11 35L11 38L14 38L14 37L12 37L12 36L15 36L15 37L16 37L16 38L15 38L15 39L14 39L14 40L15 40L15 39L16 39L16 41L18 41L18 42L16 42L16 43L18 43L18 42L20 42L20 44L19 44L19 45L18 45L18 47L19 47L19 48L20 48L20 49L21 49L21 48L20 48L20 47L22 47L22 46L20 46L20 47L19 47L19 45L22 45L22 44L21 44L21 43L22 43L22 42L23 42L23 43L24 43L24 44L25 44L25 45L26 45L26 44L25 44L25 42L26 42L26 43L28 43L28 42L26 42L26 41L28 41L28 40L29 40L29 41L31 41L31 42L29 42L29 43L33 43L33 44L34 44L34 42L32 42L32 41L31 41L31 40L33 40L33 41L34 41L34 40L35 40L35 41L37 41L37 40L38 40L38 41L39 41L39 40L38 40L38 39L39 39L39 38L40 38L40 36L41 36L41 38L43 38L43 37L44 37L44 38L45 38L45 39L46 39L46 38L45 38L45 37L44 37L44 34L46 34L46 35L45 35L45 36L47 36L47 35L49 35L49 34L48 34L48 33L47 33L47 34L46 34L46 31L47 31L47 32L48 32L48 31L47 31L47 30L46 30L46 29L47 29L47 28L46 28L46 27L45 27L45 26L44 26L44 24L45 24L45 25L46 25L46 22L45 22L45 21L44 21L44 23L43 23L43 24L41 24L41 23L42 23L42 22L43 22L43 21L42 21L42 19L40 19L40 20L39 20L39 21L40 21L40 20L41 20L41 23L40 23L40 22L36 22L36 24L35 24L35 22L34 22L34 25L37 25L37 26L36 26L36 27L37 27L37 26L38 26L38 27L39 27L39 28L41 28L41 27L42 27L42 28L43 28L43 29L42 29L42 30L41 30L41 29L40 29L40 30L39 30L39 31L40 31L40 32L39 32L39 33L40 33L40 34L43 34L43 36L41 36L41 35L40 35L40 36L39 36L39 38L38 38L38 39L36 39L36 40L35 40L35 38L37 38L37 36L36 36L36 37L35 37L35 35L37 35L37 34L38 34L38 35L39 35L39 34L38 34L38 33L37 33L37 32L38 32L38 31L37 31L37 30L38 30L38 29L37 29L37 28L35 28L35 26L34 26L34 28L33 28L33 26L32 26L32 25L28 25L28 24L29 24L29 23L30 23L30 24L31 24L31 23L32 23L32 24L33 24L33 21L34 21L34 19L35 19L35 18L34 18L34 17L33 17L33 18L34 18L34 19L32 19L32 18L31 18L31 17L29 17L29 18L31 18L31 19L30 19L30 20L29 20L29 19L28 19L28 18L27 18L27 19L28 19L28 20L26 20L26 19L25 19L25 18L26 18L26 17L28 17L28 16L26 16L26 17L25 17L25 16L24 16L24 17L22 17L22 15L21 15L21 16L20 16L20 14L19 14L19 13L22 13L22 12L21 12L21 11L22 11L22 10L23 10L23 11L24 11L24 10L25 10L25 9L22 9L22 10L20 10L20 9L19 9L19 6L20 6L20 7L21 7L21 6L20 6L20 5L18 5L18 7L17 7L17 4L16 4L16 5L15 5L15 4ZM22 4L22 7L23 7L23 8L24 8L24 7L25 7L25 6L24 6L24 7L23 7L23 5L24 5L24 4ZM40 4L40 5L41 5L41 4ZM27 5L27 8L30 8L30 5ZM10 6L10 7L11 7L11 6ZM28 6L28 7L29 7L29 6ZM43 8L43 9L46 9L46 10L47 10L47 9L46 9L46 8ZM53 8L53 9L54 9L54 8ZM3 9L3 10L5 10L5 9ZM1 10L1 11L2 11L2 12L3 12L3 13L4 13L4 11L2 11L2 10ZM16 10L16 11L18 11L18 10ZM13 11L13 12L14 12L14 11ZM40 11L40 12L41 12L41 11ZM28 13L28 14L27 14L27 15L29 15L29 13ZM39 13L39 14L36 14L36 15L35 15L35 14L33 14L33 15L35 15L35 16L36 16L36 18L37 18L37 20L36 20L36 21L37 21L37 20L38 20L38 19L39 19L39 18L37 18L37 16L38 16L38 17L39 17L39 16L38 16L38 15L39 15L39 14L40 14L40 13ZM3 14L3 15L2 15L2 16L3 16L3 17L4 17L4 16L3 16L3 15L4 15L4 14ZM36 15L36 16L37 16L37 15ZM55 15L55 16L54 16L54 17L55 17L55 18L56 18L56 17L55 17L55 16L56 16L56 15ZM19 16L19 17L16 17L16 18L19 18L19 19L21 19L21 20L19 20L19 21L21 21L21 22L22 22L22 23L21 23L21 24L20 24L20 26L19 26L19 27L20 27L20 28L19 28L19 29L20 29L20 30L21 30L21 31L20 31L20 32L19 32L19 33L18 33L18 34L17 34L17 33L16 33L16 34L17 34L17 35L16 35L16 37L18 37L18 38L17 38L17 39L18 39L18 38L20 38L20 39L19 39L19 41L20 41L20 42L22 42L22 41L23 41L23 39L24 39L24 40L25 40L25 38L26 38L26 39L27 39L27 40L28 40L28 39L27 39L27 38L28 38L28 37L29 37L29 36L30 36L30 38L31 38L31 39L29 39L29 40L31 40L31 39L34 39L34 38L35 38L35 37L34 37L34 38L33 38L33 34L36 34L36 32L37 32L37 31L36 31L36 32L35 32L35 31L34 31L34 32L32 32L32 31L31 31L31 32L30 32L30 33L27 33L27 32L29 32L29 31L25 31L25 30L26 30L26 27L25 27L25 26L26 26L26 25L27 25L27 24L28 24L28 23L29 23L29 22L30 22L30 23L31 23L31 22L30 22L30 21L31 21L31 20L30 20L30 21L29 21L29 20L28 20L28 21L25 21L25 22L26 22L26 23L25 23L25 24L24 24L24 23L23 23L23 22L24 22L24 21L23 21L23 18L21 18L21 17L20 17L20 16ZM45 16L45 18L44 18L44 19L43 19L43 20L46 20L46 19L47 19L47 18L46 18L46 16ZM49 17L49 18L51 18L51 17ZM45 18L45 19L46 19L46 18ZM9 19L9 20L10 20L10 19ZM55 19L55 20L54 20L54 21L55 21L55 20L56 20L56 19ZM21 20L21 21L22 21L22 22L23 22L23 21L22 21L22 20ZM32 20L32 21L33 21L33 20ZM28 21L28 22L27 22L27 23L28 23L28 22L29 22L29 21ZM2 22L2 23L3 23L3 22ZM50 22L50 23L51 23L51 22ZM9 23L9 24L8 24L8 25L9 25L9 24L10 24L10 23ZM11 23L11 24L13 24L13 23ZM37 23L37 25L38 25L38 26L39 26L39 24L40 24L40 25L41 25L41 24L40 24L40 23L39 23L39 24L38 24L38 23ZM25 24L25 25L24 25L24 26L22 26L22 27L21 27L21 26L20 26L20 27L21 27L21 28L20 28L20 29L21 29L21 30L22 30L22 31L21 31L21 32L20 32L20 33L21 33L21 34L20 34L20 35L21 35L21 34L22 34L22 33L21 33L21 32L23 32L23 31L24 31L24 33L23 33L23 34L25 34L25 35L24 35L24 37L22 37L22 36L23 36L23 35L22 35L22 36L21 36L21 37L22 37L22 38L24 38L24 37L25 37L25 36L26 36L26 35L27 35L27 34L25 34L25 33L26 33L26 32L25 32L25 31L24 31L24 30L25 30L25 29L24 29L24 28L25 28L25 27L24 27L24 26L25 26L25 25L26 25L26 24ZM49 24L49 25L50 25L50 24ZM15 26L15 27L16 27L16 26ZM42 26L42 27L43 27L43 28L44 28L44 29L43 29L43 30L42 30L42 31L46 31L46 30L44 30L44 29L45 29L45 28L44 28L44 27L43 27L43 26ZM5 27L5 30L8 30L8 27ZM23 27L23 28L24 28L24 27ZM27 27L27 30L30 30L30 27ZM49 27L49 30L52 30L52 27ZM6 28L6 29L7 29L7 28ZM17 28L17 29L16 29L16 31L18 31L18 30L17 30L17 29L18 29L18 28ZM21 28L21 29L22 29L22 30L24 30L24 29L22 29L22 28ZM28 28L28 29L29 29L29 28ZM31 28L31 29L33 29L33 30L36 30L36 29L33 29L33 28ZM50 28L50 29L51 29L51 28ZM54 28L54 29L53 29L53 30L56 30L56 29L55 29L55 28ZM0 31L0 32L1 32L1 31ZM51 31L51 32L54 32L54 33L55 33L55 32L54 32L54 31ZM8 32L8 33L9 33L9 32ZM31 32L31 33L32 33L32 32ZM40 32L40 33L41 33L41 32ZM43 32L43 34L44 34L44 33L45 33L45 32ZM8 34L8 35L7 35L7 36L6 36L6 37L5 37L5 38L6 38L6 39L7 39L7 38L6 38L6 37L8 37L8 39L9 39L9 42L10 42L10 43L11 43L11 45L13 45L13 44L12 44L12 43L11 43L11 42L10 42L10 39L9 39L9 37L10 37L10 36L8 36L8 35L10 35L10 34ZM18 34L18 35L19 35L19 34ZM29 34L29 35L30 35L30 36L31 36L31 38L32 38L32 34L31 34L31 35L30 35L30 34ZM50 35L50 36L51 36L51 35ZM56 35L56 36L57 36L57 35ZM3 36L3 37L4 37L4 36ZM18 36L18 37L20 37L20 36ZM27 36L27 37L26 37L26 38L27 38L27 37L28 37L28 36ZM48 37L48 39L50 39L50 37ZM42 39L42 42L38 42L38 43L39 43L39 44L36 44L36 43L35 43L35 44L36 44L36 45L37 45L37 46L38 46L38 45L39 45L39 46L40 46L40 44L43 44L43 45L42 45L42 46L43 46L43 45L44 45L44 43L45 43L45 42L44 42L44 40L43 40L43 39ZM2 40L2 41L3 41L3 40ZM6 40L6 41L7 41L7 42L6 42L6 43L7 43L7 42L8 42L8 40ZM21 40L21 41L22 41L22 40ZM2 42L2 43L1 43L1 44L3 44L3 45L4 45L4 43L3 43L3 42ZM42 42L42 43L43 43L43 42ZM28 44L28 45L27 45L27 46L26 46L26 47L28 47L28 45L29 45L29 44ZM31 44L31 45L32 45L32 46L33 46L33 45L32 45L32 44ZM54 45L54 46L55 46L55 45ZM3 46L3 47L5 47L5 46ZM9 46L9 47L10 47L10 48L11 48L11 47L10 47L10 46ZM52 46L52 47L53 47L53 46ZM12 47L12 48L13 48L13 49L15 49L15 48L14 48L14 47ZM37 47L37 48L38 48L38 47ZM6 48L6 49L7 49L7 48ZM31 48L31 49L33 49L33 48ZM39 48L39 49L40 49L40 48ZM27 49L27 52L30 52L30 49ZM37 49L37 50L34 50L34 51L35 51L35 52L34 52L34 53L33 53L33 54L34 54L34 53L35 53L35 52L36 52L36 51L37 51L37 50L38 50L38 49ZM49 49L49 52L52 52L52 49ZM14 50L14 51L12 51L12 52L14 52L14 51L15 51L15 50ZM28 50L28 51L29 51L29 50ZM50 50L50 51L51 51L51 50ZM32 51L32 52L33 52L33 51ZM47 52L47 53L48 53L48 52ZM54 52L54 53L55 53L55 52ZM9 53L9 54L11 54L11 55L12 55L12 56L14 56L14 55L13 55L13 54L12 54L12 53ZM15 53L15 54L16 54L16 53ZM29 53L29 54L30 54L30 53ZM38 53L38 54L39 54L39 53ZM49 53L49 55L50 55L50 54L51 54L51 55L54 55L54 54L51 54L51 53ZM27 55L27 56L28 56L28 55ZM37 55L37 56L38 56L38 55ZM45 55L45 56L46 56L46 55ZM42 56L42 57L44 57L44 56ZM0 0L0 7L7 7L7 0ZM1 1L1 6L6 6L6 1ZM2 2L2 5L5 5L5 2ZM50 0L50 7L57 7L57 0ZM51 1L51 6L56 6L56 1ZM52 2L52 5L55 5L55 2ZM0 50L0 57L7 57L7 50ZM1 51L1 56L6 56L6 51ZM2 52L2 55L5 55L5 52Z" fill="#000000"/></g></g></svg>
