<?xml version="1.0" encoding="UTF-8"?>
<svg xmlns="http://www.w3.org/2000/svg" version="1.1" width="300" height="300" viewBox="0 0 300 300"><rect x="0" y="0" width="300" height="300" fill="#ffffff"/><g transform="scale(4.918)"><g transform="translate(2,2)"><path fill-rule="evenodd" d="M9 0L9 1L8 1L8 2L9 2L9 3L8 3L8 4L9 4L9 3L11 3L11 2L13 2L13 1L11 1L11 0ZM14 0L14 1L15 1L15 2L14 2L14 3L13 3L13 6L12 6L12 5L11 5L11 4L10 4L10 5L8 5L8 7L9 7L9 6L10 6L10 8L6 8L6 9L7 9L7 10L4 10L4 9L5 9L5 8L0 8L0 10L1 10L1 11L3 11L3 10L4 10L4 12L5 12L5 14L4 14L4 15L8 15L8 17L7 17L7 16L6 16L6 17L4 17L4 16L3 16L3 17L2 17L2 18L1 18L1 15L2 15L2 13L3 13L3 12L1 12L1 15L0 15L0 18L1 18L1 19L3 19L3 18L4 18L4 19L5 19L5 18L6 18L6 19L7 19L7 20L5 20L5 21L7 21L7 22L4 22L4 20L2 20L2 21L3 21L3 23L7 23L7 24L6 24L6 25L7 25L7 26L3 26L3 24L1 24L1 25L0 25L0 26L3 26L3 27L2 27L2 28L3 28L3 27L4 27L4 30L3 30L3 29L2 29L2 30L0 30L0 31L2 31L2 30L3 30L3 31L4 31L4 34L2 34L2 33L3 33L3 32L0 32L0 34L2 34L2 35L0 35L0 37L1 37L1 36L3 36L3 37L2 37L2 38L3 38L3 39L1 39L1 41L2 41L2 40L3 40L3 43L4 43L4 44L3 44L3 45L4 45L4 44L5 44L5 43L4 43L4 40L3 40L3 39L4 39L4 38L3 38L3 37L5 37L5 39L7 39L7 40L6 40L6 41L5 41L5 42L6 42L6 43L7 43L7 42L9 42L9 43L8 43L8 45L7 45L7 44L6 44L6 45L7 45L7 46L5 46L5 47L3 47L3 46L2 46L2 44L1 44L1 46L0 46L0 48L5 48L5 47L7 47L7 48L6 48L6 49L8 49L8 51L9 51L9 52L8 52L8 57L12 57L12 55L13 55L13 56L15 56L15 57L16 57L16 56L17 56L17 57L20 57L20 56L19 56L19 55L20 55L20 54L18 54L18 53L20 53L20 52L21 52L21 53L22 53L22 54L21 54L21 56L23 56L23 57L24 57L24 55L22 55L22 54L24 54L24 53L25 53L25 54L26 54L26 55L25 55L25 56L28 56L28 55L27 55L27 53L28 53L28 54L30 54L30 53L31 53L31 56L30 56L30 55L29 55L29 56L30 56L30 57L31 57L31 56L33 56L33 54L32 54L32 52L33 52L33 51L32 51L32 49L31 49L31 48L33 48L33 50L34 50L34 51L36 51L36 52L34 52L34 53L35 53L35 54L34 54L34 56L35 56L35 57L37 57L37 56L38 56L38 57L39 57L39 56L38 56L38 55L40 55L40 56L42 56L42 54L43 54L43 53L44 53L44 54L45 54L45 57L46 57L46 54L45 54L45 53L44 53L44 50L43 50L43 49L42 49L42 48L45 48L45 49L46 49L46 48L45 48L45 47L47 47L47 46L46 46L46 45L47 45L47 44L48 44L48 45L50 45L50 46L51 46L51 47L49 47L49 48L48 48L48 51L47 51L47 50L45 50L45 52L48 52L48 53L47 53L47 57L48 57L48 56L49 56L49 54L48 54L48 53L50 53L50 55L51 55L51 56L50 56L50 57L52 57L52 56L53 56L53 57L56 57L56 56L55 56L55 55L54 55L54 54L55 54L55 53L54 53L54 52L55 52L55 50L57 50L57 49L53 49L53 48L57 48L57 47L56 47L56 46L57 46L57 45L56 45L56 44L55 44L55 43L56 43L56 42L57 42L57 41L55 41L55 39L57 39L57 37L56 37L56 36L57 36L57 35L55 35L55 34L57 34L57 32L56 32L56 30L57 30L57 29L56 29L56 30L55 30L55 29L54 29L54 28L56 28L56 26L55 26L55 25L54 25L54 26L55 26L55 27L53 27L53 25L52 25L52 24L57 24L57 23L56 23L56 22L57 22L57 20L56 20L56 21L51 21L51 22L50 22L50 19L51 19L51 20L55 20L55 19L52 19L52 18L54 18L54 17L51 17L51 16L52 16L52 15L51 15L51 14L52 14L52 13L51 13L51 14L50 14L50 16L49 16L49 17L48 17L48 16L47 16L47 15L49 15L49 13L50 13L50 11L52 11L52 12L53 12L53 11L54 11L54 12L55 12L55 13L53 13L53 16L55 16L55 18L57 18L57 17L56 17L56 16L57 16L57 15L56 15L56 14L57 14L57 13L56 13L56 12L57 12L57 11L54 11L54 10L50 10L50 8L49 8L49 6L48 6L48 7L47 7L47 5L48 5L48 0L45 0L45 1L47 1L47 2L44 2L44 0L41 0L41 1L40 1L40 0L39 0L39 1L38 1L38 0L35 0L35 1L33 1L33 0L28 0L28 2L27 2L27 3L31 3L31 4L26 4L26 3L23 3L23 4L22 4L22 3L21 3L21 2L26 2L26 0L24 0L24 1L23 1L23 0L21 0L21 2L19 2L19 1L16 1L16 0ZM9 1L9 2L11 2L11 1ZM29 1L29 2L33 2L33 3L32 3L32 4L31 4L31 9L32 9L32 10L33 10L33 11L32 11L32 13L31 13L31 11L30 11L30 10L28 10L28 11L30 11L30 12L28 12L28 13L25 13L25 12L27 12L27 11L26 11L26 10L27 10L27 9L25 9L25 10L24 10L24 11L23 11L23 12L24 12L24 13L22 13L22 12L21 12L21 11L22 11L22 10L23 10L23 9L24 9L24 6L23 6L23 5L24 5L24 4L23 4L23 5L22 5L22 4L21 4L21 3L19 3L19 4L18 4L18 3L14 3L14 4L16 4L16 5L14 5L14 6L13 6L13 8L14 8L14 9L11 9L11 10L10 10L10 11L9 11L9 10L8 10L8 11L9 11L9 12L8 12L8 13L9 13L9 14L8 14L8 15L10 15L10 14L11 14L11 17L10 17L10 16L9 16L9 17L8 17L8 18L10 18L10 19L9 19L9 21L10 21L10 22L9 22L9 24L7 24L7 25L8 25L8 26L9 26L9 28L10 28L10 27L12 27L12 25L11 25L11 26L10 26L10 25L9 25L9 24L12 24L12 23L11 23L11 22L12 22L12 21L11 21L11 20L13 20L13 21L14 21L14 24L13 24L13 27L15 27L15 26L18 26L18 27L17 27L17 28L18 28L18 29L16 29L16 30L17 30L17 31L16 31L16 32L18 32L18 31L19 31L19 33L16 33L16 35L17 35L17 34L19 34L19 35L20 35L20 34L21 34L21 33L22 33L22 34L23 34L23 32L24 32L24 31L25 31L25 34L24 34L24 36L25 36L25 42L24 42L24 43L23 43L23 44L24 44L24 45L22 45L22 44L21 44L21 43L22 43L22 41L23 41L23 40L24 40L24 39L23 39L23 40L22 40L22 39L21 39L21 41L20 41L20 40L19 40L19 41L18 41L18 40L17 40L17 39L18 39L18 38L19 38L19 39L20 39L20 38L19 38L19 37L21 37L21 38L22 38L22 37L23 37L23 38L24 38L24 37L23 37L23 35L22 35L22 37L21 37L21 36L19 36L19 37L18 37L18 36L15 36L15 37L16 37L16 38L15 38L15 39L14 39L14 41L15 41L15 44L14 44L14 42L13 42L13 40L12 40L12 41L11 41L11 43L10 43L10 44L12 44L12 45L13 45L13 44L14 44L14 45L15 45L15 44L16 44L16 43L18 43L18 42L19 42L19 41L20 41L20 44L21 44L21 45L19 45L19 46L21 46L21 45L22 45L22 47L23 47L23 48L21 48L21 47L20 47L20 48L19 48L19 49L18 49L18 50L17 50L17 49L15 49L15 48L17 48L17 47L18 47L18 46L17 46L17 45L18 45L18 44L17 44L17 45L16 45L16 47L15 47L15 46L10 46L10 45L9 45L9 48L8 48L8 49L11 49L11 52L10 52L10 53L11 53L11 55L12 55L12 53L14 53L14 55L15 55L15 56L16 56L16 55L15 55L15 54L16 54L16 53L18 53L18 52L17 52L17 51L18 51L18 50L19 50L19 49L20 49L20 50L21 50L21 51L23 51L23 52L22 52L22 53L24 53L24 51L25 51L25 53L26 53L26 46L27 46L27 47L28 47L28 48L29 48L29 47L28 47L28 46L29 46L29 45L31 45L31 47L30 47L30 48L31 48L31 47L33 47L33 48L35 48L35 49L34 49L34 50L35 50L35 49L36 49L36 48L38 48L38 49L37 49L37 50L42 50L42 51L43 51L43 50L42 50L42 49L41 49L41 48L42 48L42 47L45 47L45 46L42 46L42 45L45 45L45 44L41 44L41 43L44 43L44 41L45 41L45 43L49 43L49 42L47 42L47 41L48 41L48 40L49 40L49 41L51 41L51 42L50 42L50 43L51 43L51 44L50 44L50 45L52 45L52 46L53 46L53 47L51 47L51 48L53 48L53 47L54 47L54 46L56 46L56 45L55 45L55 44L54 44L54 45L52 45L52 44L53 44L53 43L54 43L54 41L52 41L52 40L50 40L50 39L53 39L53 38L55 38L55 36L54 36L54 37L53 37L53 36L52 36L52 34L54 34L54 33L56 33L56 32L54 32L54 31L55 31L55 30L53 30L53 31L51 31L51 32L50 32L50 31L48 31L48 27L46 27L46 26L48 26L48 25L49 25L49 24L52 24L52 23L53 23L53 22L52 22L52 23L50 23L50 22L49 22L49 23L48 23L48 25L47 25L47 21L48 21L48 19L46 19L46 18L48 18L48 17L47 17L47 16L44 16L44 15L45 15L45 12L46 12L46 14L47 14L47 13L49 13L49 12L47 12L47 11L48 11L48 9L49 9L49 8L48 8L48 9L47 9L47 7L46 7L46 5L47 5L47 3L43 3L43 5L41 5L41 3L42 3L42 2L43 2L43 1L41 1L41 3L40 3L40 5L41 5L41 8L39 8L39 7L40 7L40 6L39 6L39 7L38 7L38 5L39 5L39 4L38 4L38 5L36 5L36 3L39 3L39 2L38 2L38 1L37 1L37 2L33 2L33 1ZM33 3L33 4L34 4L34 3ZM17 4L17 5L18 5L18 7L17 7L17 6L16 6L16 7L15 7L15 6L14 6L14 7L15 7L15 9L16 9L16 7L17 7L17 9L19 9L19 10L18 10L18 11L17 11L17 10L13 10L13 11L14 11L14 12L12 12L12 11L10 11L10 12L9 12L9 13L10 13L10 12L11 12L11 13L12 13L12 17L11 17L11 19L10 19L10 20L11 20L11 19L12 19L12 18L15 18L15 21L16 21L16 22L15 22L15 23L16 23L16 25L18 25L18 26L19 26L19 28L20 28L20 29L18 29L18 30L20 30L20 31L22 31L22 30L20 30L20 29L22 29L22 28L20 28L20 27L22 27L22 26L23 26L23 29L24 29L24 30L23 30L23 31L24 31L24 30L25 30L25 31L29 31L29 32L27 32L27 33L26 33L26 34L25 34L25 36L27 36L27 35L26 35L26 34L27 34L27 33L29 33L29 34L30 34L30 35L29 35L29 39L31 39L31 38L32 38L32 35L31 35L31 34L34 34L34 35L33 35L33 38L34 38L34 39L35 39L35 40L34 40L34 41L33 41L33 42L32 42L32 41L31 41L31 40L30 40L30 41L29 41L29 43L31 43L31 45L32 45L32 44L34 44L34 43L35 43L35 42L36 42L36 44L35 44L35 46L33 46L33 47L35 47L35 48L36 48L36 47L39 47L39 46L41 46L41 47L40 47L40 48L39 48L39 49L40 49L40 48L41 48L41 47L42 47L42 46L41 46L41 45L39 45L39 44L40 44L40 43L41 43L41 42L43 42L43 40L45 40L45 41L46 41L46 38L45 38L45 37L44 37L44 35L42 35L42 37L41 37L41 38L42 38L42 41L41 41L41 42L40 42L40 41L39 41L39 42L38 42L38 40L40 40L40 38L39 38L39 39L38 39L38 36L36 36L36 37L37 37L37 38L36 38L36 39L35 39L35 38L34 38L34 36L35 36L35 35L39 35L39 34L40 34L40 32L41 32L41 31L42 31L42 30L43 30L43 32L42 32L42 33L41 33L41 34L43 34L43 32L45 32L45 33L44 33L44 34L45 34L45 36L46 36L46 37L47 37L47 36L46 36L46 35L49 35L49 37L50 37L50 38L48 38L48 39L50 39L50 38L51 38L51 37L50 37L50 36L51 36L51 35L49 35L49 34L48 34L48 33L47 33L47 34L45 34L45 33L46 33L46 31L47 31L47 32L48 32L48 31L47 31L47 30L46 30L46 29L47 29L47 28L46 28L46 27L45 27L45 30L46 30L46 31L44 31L44 28L43 28L43 25L44 25L44 24L43 24L43 23L42 23L42 22L43 22L43 20L46 20L46 19L43 19L43 20L41 20L41 19L42 19L42 18L46 18L46 17L44 17L44 16L43 16L43 15L44 15L44 14L43 14L43 13L44 13L44 12L43 12L43 11L45 11L45 10L44 10L44 9L40 9L40 10L38 10L38 9L39 9L39 8L38 8L38 7L37 7L37 6L36 6L36 5L35 5L35 6L34 6L34 7L33 7L33 6L32 6L32 7L33 7L33 9L34 9L34 7L35 7L35 10L34 10L34 11L33 11L33 13L32 13L32 14L30 14L30 13L28 13L28 14L26 14L26 15L27 15L27 16L25 16L25 15L24 15L24 17L23 17L23 18L24 18L24 19L22 19L22 20L21 20L21 21L22 21L22 22L24 22L24 21L25 21L25 22L26 22L26 23L25 23L25 24L30 24L30 25L29 25L29 26L28 26L28 25L26 25L26 26L25 26L25 25L24 25L24 23L21 23L21 24L19 24L19 23L20 23L20 22L19 22L19 23L17 23L17 21L20 21L20 20L19 20L19 19L17 19L17 18L16 18L16 17L19 17L19 16L20 16L20 17L21 17L21 18L20 18L20 19L21 19L21 18L22 18L22 17L21 17L21 16L22 16L22 13L21 13L21 12L19 12L19 11L21 11L21 10L20 10L20 9L19 9L19 8L21 8L21 6L22 6L22 8L23 8L23 6L22 6L22 5L21 5L21 4L19 4L19 5L18 5L18 4ZM25 4L25 8L26 8L26 4ZM44 4L44 5L46 5L46 4ZM10 5L10 6L11 6L11 7L12 7L12 6L11 6L11 5ZM19 5L19 7L20 7L20 5ZM27 5L27 8L30 8L30 5ZM28 6L28 7L29 7L29 6ZM35 6L35 7L36 7L36 6ZM42 6L42 8L45 8L45 9L46 9L46 7L45 7L45 6L44 6L44 7L43 7L43 6ZM37 8L37 9L38 9L38 8ZM51 8L51 9L52 9L52 8ZM53 8L53 9L54 9L54 8ZM55 8L55 10L57 10L57 9L56 9L56 8ZM37 10L37 11L36 11L36 12L35 12L35 11L34 11L34 12L35 12L35 13L33 13L33 14L35 14L35 15L34 15L34 16L30 16L30 14L29 14L29 15L28 15L28 16L27 16L27 17L25 17L25 19L26 19L26 21L29 21L29 22L30 22L30 23L31 23L31 22L30 22L30 21L31 21L31 20L30 20L30 19L31 19L31 18L32 18L32 19L34 19L34 20L32 20L32 21L33 21L33 24L32 24L32 25L31 25L31 28L32 28L32 29L31 29L31 32L32 32L32 33L34 33L34 34L36 34L36 33L35 33L35 32L40 32L40 31L41 31L41 30L42 30L42 29L43 29L43 28L42 28L42 27L41 27L41 22L42 22L42 21L41 21L41 20L40 20L40 19L41 19L41 18L42 18L42 17L41 17L41 16L40 16L40 15L39 15L39 13L40 13L40 14L42 14L42 15L43 15L43 14L42 14L42 11L43 11L43 10L40 10L40 11L39 11L39 12L38 12L38 14L37 14L37 13L36 13L36 12L37 12L37 11L38 11L38 10ZM46 10L46 11L47 11L47 10ZM49 10L49 11L50 11L50 10ZM5 11L5 12L7 12L7 11ZM24 11L24 12L25 12L25 11ZM17 12L17 13L16 13L16 15L15 15L15 16L13 16L13 17L16 17L16 15L17 15L17 16L19 16L19 15L20 15L20 16L21 16L21 15L20 15L20 14L21 14L21 13L19 13L19 15L18 15L18 14L17 14L17 13L18 13L18 12ZM6 13L6 14L7 14L7 13ZM13 13L13 14L15 14L15 13ZM24 13L24 14L25 14L25 13ZM35 13L35 14L36 14L36 15L37 15L37 16L35 16L35 17L37 17L37 18L34 18L34 17L32 17L32 18L34 18L34 19L37 19L37 18L38 18L38 21L37 21L37 20L36 20L36 21L37 21L37 22L36 22L36 23L35 23L35 24L33 24L33 25L32 25L32 26L33 26L33 27L32 27L32 28L33 28L33 29L32 29L32 30L33 30L33 31L32 31L32 32L33 32L33 31L36 31L36 29L37 29L37 30L38 30L38 29L40 29L40 30L41 30L41 29L40 29L40 28L41 28L41 27L40 27L40 28L37 28L37 27L39 27L39 26L38 26L38 21L39 21L39 24L40 24L40 22L41 22L41 21L40 21L40 20L39 20L39 19L40 19L40 18L38 18L38 15L37 15L37 14L36 14L36 13ZM55 13L55 14L54 14L54 15L55 15L55 14L56 14L56 13ZM28 16L28 17L27 17L27 18L26 18L26 19L27 19L27 20L29 20L29 18L31 18L31 17L29 17L29 16ZM39 16L39 17L40 17L40 16ZM6 17L6 18L7 18L7 17ZM50 17L50 18L51 18L51 17ZM27 18L27 19L28 19L28 18ZM13 19L13 20L14 20L14 19ZM16 19L16 21L17 21L17 19ZM22 20L22 21L24 21L24 20ZM44 21L44 23L45 23L45 24L46 24L46 22L45 22L45 21ZM0 22L0 23L1 23L1 22ZM7 22L7 23L8 23L8 22ZM54 22L54 23L55 23L55 22ZM36 23L36 24L37 24L37 23ZM22 24L22 25L23 25L23 24ZM42 24L42 25L43 25L43 24ZM14 25L14 26L15 26L15 25ZM20 25L20 26L21 26L21 25ZM33 25L33 26L35 26L35 27L37 27L37 26L35 26L35 25ZM45 25L45 26L46 26L46 25ZM50 25L50 26L51 26L51 25ZM0 27L0 28L1 28L1 27ZM5 27L5 30L8 30L8 27ZM25 27L25 28L24 28L24 29L25 29L25 30L26 30L26 27ZM27 27L27 30L30 30L30 27ZM33 27L33 28L34 28L34 27ZM49 27L49 30L52 30L52 27ZM6 28L6 29L7 29L7 28ZM11 28L11 29L9 29L9 30L11 30L11 29L12 29L12 28ZM13 28L13 29L14 29L14 28ZM28 28L28 29L29 29L29 28ZM50 28L50 29L51 29L51 28ZM33 29L33 30L35 30L35 29ZM14 30L14 32L15 32L15 30ZM6 31L6 32L5 32L5 33L6 33L6 34L8 34L8 33L6 33L6 32L7 32L7 31ZM8 31L8 32L9 32L9 34L10 34L10 35L13 35L13 36L12 36L12 37L13 37L13 36L14 36L14 35L15 35L15 33L13 33L13 31L12 31L12 32L10 32L10 31ZM20 32L20 33L21 33L21 32ZM29 32L29 33L30 33L30 32ZM51 32L51 33L50 33L50 34L51 34L51 33L54 33L54 32ZM11 33L11 34L12 34L12 33ZM37 33L37 34L39 34L39 33ZM3 35L3 36L4 36L4 35ZM6 35L6 36L7 36L7 35ZM8 35L8 37L6 37L6 38L7 38L7 39L8 39L8 38L9 38L9 39L10 39L10 40L9 40L9 41L10 41L10 40L11 40L11 39L10 39L10 38L9 38L9 35ZM40 35L40 36L39 36L39 37L40 37L40 36L41 36L41 35ZM10 36L10 37L11 37L11 36ZM30 36L30 38L31 38L31 36ZM17 37L17 38L18 38L18 37ZM26 37L26 39L27 39L27 40L28 40L28 39L27 39L27 38L28 38L28 37ZM43 37L43 39L45 39L45 38L44 38L44 37ZM12 38L12 39L13 39L13 38ZM15 39L15 41L16 41L16 39ZM32 39L32 40L33 40L33 39ZM36 39L36 40L38 40L38 39ZM6 41L6 42L7 42L7 41ZM17 41L17 42L18 42L18 41ZM26 41L26 42L27 42L27 43L26 43L26 44L25 44L25 43L24 43L24 44L25 44L25 45L24 45L24 46L23 46L23 47L24 47L24 49L23 49L23 50L25 50L25 45L26 45L26 44L27 44L27 45L29 45L29 44L27 44L27 43L28 43L28 42L27 42L27 41ZM34 41L34 42L33 42L33 43L34 43L34 42L35 42L35 41ZM0 42L0 43L2 43L2 42ZM37 42L37 43L38 43L38 44L37 44L37 45L36 45L36 46L39 46L39 45L38 45L38 44L39 44L39 43L38 43L38 42ZM1 46L1 47L2 47L2 46ZM12 47L12 48L11 48L11 49L12 49L12 48L14 48L14 47ZM21 49L21 50L22 50L22 49ZM27 49L27 52L30 52L30 49ZM49 49L49 52L52 52L52 49ZM12 50L12 51L13 51L13 52L14 52L14 53L16 53L16 51L17 51L17 50L16 50L16 51L15 51L15 52L14 52L14 50ZM28 50L28 51L29 51L29 50ZM50 50L50 51L51 51L51 50ZM53 50L53 51L54 51L54 50ZM31 51L31 52L32 52L32 51ZM37 51L37 53L36 53L36 54L37 54L37 55L38 55L38 54L39 54L39 53L38 53L38 52L40 52L40 55L41 55L41 52L40 52L40 51ZM56 51L56 52L57 52L57 51ZM42 52L42 53L43 53L43 52ZM37 53L37 54L38 54L38 53ZM53 53L53 54L51 54L51 55L53 55L53 54L54 54L54 53ZM17 54L17 56L18 56L18 54ZM35 55L35 56L36 56L36 55ZM43 56L43 57L44 57L44 56ZM0 0L0 7L7 7L7 0ZM1 1L1 6L6 6L6 1ZM2 2L2 5L5 5L5 2ZM50 0L50 7L57 7L57 0ZM51 1L51 6L56 6L56 1ZM52 2L52 5L55 5L55 2ZM0 50L0 57L7 57L7 50ZM1 51L1 56L6 56L6 51ZM2 52L2 55L5 55L5 52Z" fill="#000000"/></g></g></svg>
