<?xml version="1.0" encoding="UTF-8"?>
<svg xmlns="http://www.w3.org/2000/svg" version="1.1" width="300" height="300" viewBox="0 0 300 300"><rect x="0" y="0" width="300" height="300" fill="#ffffff"/><g transform="scale(4.918)"><g transform="translate(2,2)"><path fill-rule="evenodd" d="M9 0L9 1L8 1L8 2L9 2L9 1L10 1L10 3L8 3L8 4L9 4L9 5L8 5L8 7L9 7L9 8L6 8L6 9L5 9L5 8L0 8L0 15L2 15L2 16L1 16L1 17L0 17L0 19L1 19L1 18L2 18L2 17L4 17L4 15L5 15L5 17L7 17L7 18L6 18L6 19L7 19L7 20L6 20L6 21L5 21L5 23L4 23L4 19L5 19L5 18L3 18L3 19L2 19L2 20L0 20L0 21L2 21L2 23L1 23L1 22L0 22L0 27L1 27L1 28L0 28L0 29L1 29L1 30L0 30L0 32L1 32L1 35L2 35L2 36L1 36L1 37L2 37L2 39L1 39L1 40L0 40L0 41L1 41L1 44L2 44L2 47L1 47L1 46L0 46L0 48L5 48L5 47L7 47L7 48L6 48L6 49L7 49L7 48L8 48L8 51L9 51L9 52L8 52L8 57L9 57L9 56L10 56L10 57L11 57L11 55L14 55L14 54L16 54L16 53L15 53L15 52L16 52L16 51L17 51L17 50L18 50L18 53L17 53L17 54L18 54L18 55L17 55L17 57L20 57L20 56L22 56L22 55L21 55L21 53L22 53L22 54L23 54L23 55L24 55L24 56L23 56L23 57L24 57L24 56L25 56L25 57L26 57L26 56L28 56L28 55L26 55L26 54L27 54L27 53L28 53L28 54L29 54L29 55L30 55L30 57L32 57L32 56L35 56L35 57L39 57L39 56L38 56L38 52L39 52L39 55L40 55L40 52L42 52L42 53L41 53L41 56L43 56L43 57L44 57L44 55L42 55L42 54L43 54L43 53L44 53L44 54L45 54L45 53L44 53L44 51L40 51L40 50L43 50L43 49L40 49L40 48L41 48L41 47L42 47L42 48L45 48L45 47L47 47L47 46L46 46L46 45L47 45L47 44L48 44L48 45L49 45L49 44L50 44L50 45L53 45L53 46L51 46L51 47L49 47L49 48L48 48L48 51L47 51L47 50L46 50L46 49L47 49L47 48L46 48L46 49L44 49L44 50L46 50L46 51L45 51L45 52L48 52L48 54L47 54L47 55L45 55L45 56L46 56L46 57L49 57L49 56L47 56L47 55L49 55L49 53L50 53L50 55L51 55L51 56L50 56L50 57L52 57L52 56L54 56L54 57L56 57L56 56L55 56L55 55L54 55L54 54L55 54L55 53L54 53L54 52L55 52L55 50L57 50L57 49L54 49L54 48L57 48L57 47L56 47L56 46L57 46L57 43L56 43L56 42L55 42L55 41L54 41L54 40L55 40L55 39L57 39L57 37L54 37L54 36L55 36L55 34L57 34L57 32L56 32L56 30L57 30L57 27L56 27L56 28L55 28L55 27L53 27L53 26L49 26L49 25L48 25L48 23L49 23L49 22L50 22L50 23L52 23L52 24L51 24L51 25L52 25L52 24L55 24L55 25L54 25L54 26L57 26L57 25L56 25L56 24L57 24L57 23L56 23L56 22L57 22L57 21L55 21L55 22L53 22L53 21L51 21L51 22L50 22L50 17L51 17L51 18L54 18L54 17L51 17L51 16L55 16L55 18L57 18L57 17L56 17L56 16L57 16L57 15L56 15L56 14L57 14L57 12L56 12L56 14L55 14L55 13L53 13L53 14L54 14L54 15L51 15L51 14L52 14L52 13L51 13L51 14L50 14L50 15L49 15L49 13L50 13L50 11L52 11L52 12L53 12L53 11L54 11L54 12L55 12L55 11L56 11L56 10L57 10L57 9L56 9L56 8L55 8L55 11L54 11L54 10L53 10L53 9L54 9L54 8L53 8L53 9L52 9L52 8L51 8L51 9L52 9L52 10L49 10L49 9L50 9L50 8L49 8L49 6L48 6L48 7L47 7L47 5L48 5L48 0L39 0L39 1L38 1L38 0L36 0L36 1L34 1L34 0L33 0L33 1L34 1L34 2L32 2L32 0L28 0L28 2L25 2L25 1L26 1L26 0L24 0L24 1L23 1L23 0L21 0L21 1L23 1L23 2L25 2L25 3L24 3L24 4L22 4L22 3L21 3L21 2L17 2L17 1L16 1L16 0L14 0L14 1L15 1L15 2L14 2L14 3L13 3L13 1L12 1L12 2L11 2L11 1L10 1L10 0ZM29 1L29 2L31 2L31 1ZM37 1L37 2L35 2L35 4L33 4L33 3L32 3L32 4L31 4L31 3L30 3L30 4L31 4L31 7L32 7L32 9L31 9L31 10L30 10L30 11L29 11L29 10L28 10L28 9L26 9L26 6L25 6L25 4L26 4L26 3L25 3L25 4L24 4L24 5L23 5L23 7L22 7L22 4L21 4L21 3L20 3L20 4L17 4L17 3L16 3L16 4L15 4L15 3L14 3L14 4L15 4L15 5L16 5L16 4L17 4L17 8L16 8L16 6L15 6L15 7L14 7L14 5L13 5L13 7L14 7L14 9L15 9L15 10L13 10L13 8L12 8L12 5L11 5L11 4L10 4L10 5L11 5L11 8L9 8L9 9L8 9L8 10L7 10L7 9L6 9L6 10L7 10L7 11L6 11L6 12L7 12L7 11L8 11L8 10L9 10L9 9L10 9L10 10L13 10L13 11L11 11L11 12L10 12L10 13L11 13L11 12L13 12L13 13L14 13L14 14L13 14L13 15L14 15L14 17L13 17L13 16L12 16L12 17L13 17L13 18L15 18L15 17L16 17L16 18L17 18L17 19L16 19L16 20L15 20L15 21L13 21L13 20L14 20L14 19L12 19L12 20L11 20L11 21L10 21L10 20L9 20L9 18L11 18L11 15L12 15L12 14L10 14L10 17L9 17L9 13L6 13L6 14L5 14L5 15L6 15L6 16L7 16L7 17L8 17L8 18L7 18L7 19L8 19L8 21L6 21L6 22L8 22L8 23L9 23L9 24L8 24L8 25L9 25L9 26L10 26L10 25L12 25L12 24L10 24L10 23L11 23L11 21L13 21L13 24L14 24L14 25L13 25L13 26L14 26L14 27L12 27L12 26L11 26L11 27L9 27L9 28L11 28L11 30L12 30L12 31L11 31L11 32L14 32L14 31L15 31L15 30L14 30L14 31L13 31L13 30L12 30L12 29L13 29L13 28L14 28L14 29L15 29L15 26L16 26L16 27L18 27L18 26L19 26L19 27L22 27L22 26L21 26L21 25L24 25L24 23L23 23L23 24L22 24L22 23L21 23L21 25L20 25L20 24L19 24L19 23L20 23L20 22L19 22L19 21L21 21L21 22L22 22L22 21L23 21L23 22L24 22L24 21L23 21L23 20L22 20L22 19L24 19L24 18L23 18L23 17L24 17L24 16L28 16L28 17L25 17L25 18L26 18L26 20L27 20L27 18L28 18L28 19L31 19L31 18L32 18L32 19L34 19L34 20L32 20L32 21L33 21L33 23L31 23L31 22L30 22L30 21L29 21L29 20L28 20L28 22L27 22L27 21L25 21L25 22L26 22L26 23L25 23L25 24L26 24L26 25L25 25L25 26L23 26L23 28L24 28L24 29L22 29L22 28L21 28L21 29L20 29L20 28L19 28L19 29L20 29L20 30L21 30L21 29L22 29L22 31L19 31L19 30L17 30L17 29L18 29L18 28L17 28L17 29L16 29L16 30L17 30L17 31L16 31L16 32L18 32L18 31L19 31L19 33L16 33L16 35L17 35L17 36L16 36L16 37L15 37L15 36L14 36L14 37L15 37L15 38L13 38L13 36L12 36L12 35L13 35L13 34L14 34L14 35L15 35L15 34L14 34L14 33L10 33L10 31L9 31L9 32L8 32L8 33L6 33L6 34L4 34L4 32L7 32L7 31L4 31L4 29L3 29L3 28L1 28L1 29L3 29L3 31L1 31L1 32L3 32L3 33L2 33L2 35L3 35L3 36L4 36L4 37L3 37L3 43L2 43L2 44L3 44L3 43L4 43L4 44L7 44L7 45L6 45L6 46L8 46L8 47L9 47L9 51L10 51L10 52L11 52L11 53L12 53L12 54L14 54L14 52L15 52L15 51L16 51L16 50L17 50L17 49L14 49L14 48L15 48L15 47L14 47L14 46L15 46L15 45L13 45L13 46L11 46L11 44L12 44L12 43L9 43L9 45L8 45L8 43L4 43L4 41L5 41L5 42L8 42L8 40L7 40L7 39L13 39L13 40L14 40L14 41L15 41L15 42L14 42L14 44L15 44L15 43L17 43L17 44L18 44L18 45L16 45L16 48L17 48L17 47L18 47L18 45L19 45L19 46L22 46L22 47L23 47L23 48L21 48L21 47L20 47L20 48L19 48L19 49L18 49L18 50L19 50L19 49L20 49L20 50L21 50L21 49L22 49L22 51L21 51L21 52L19 52L19 53L18 53L18 54L19 54L19 55L20 55L20 54L19 54L19 53L21 53L21 52L22 52L22 53L23 53L23 54L24 54L24 53L23 53L23 52L24 52L24 51L25 51L25 52L26 52L26 49L25 49L25 50L23 50L23 49L24 49L24 47L25 47L25 48L26 48L26 46L27 46L27 47L28 47L28 48L32 48L32 49L31 49L31 52L32 52L32 54L34 54L34 55L36 55L36 54L35 54L35 53L33 53L33 52L32 52L32 51L34 51L34 52L36 52L36 51L37 51L37 52L38 52L38 51L37 51L37 50L39 50L39 48L40 48L40 47L41 47L41 46L42 46L42 47L45 47L45 42L46 42L46 43L49 43L49 42L47 42L47 41L48 41L48 40L49 40L49 41L51 41L51 42L50 42L50 43L51 43L51 44L53 44L53 43L54 43L54 41L52 41L52 40L54 40L54 39L55 39L55 38L54 38L54 37L52 37L52 34L54 34L54 33L56 33L56 32L53 32L53 31L54 31L54 30L53 30L53 31L52 31L52 32L53 32L53 33L51 33L51 32L49 32L49 31L48 31L48 25L45 25L45 23L44 23L44 21L45 21L45 22L46 22L46 24L47 24L47 21L48 21L48 20L49 20L49 18L47 18L47 16L48 16L48 17L50 17L50 16L51 16L51 15L50 15L50 16L49 16L49 15L45 15L45 16L43 16L43 18L42 18L42 17L41 17L41 16L42 16L42 15L44 15L44 14L45 14L45 12L46 12L46 14L47 14L47 13L49 13L49 11L48 11L48 9L49 9L49 8L48 8L48 9L45 9L45 7L46 7L46 5L47 5L47 3L43 3L43 8L44 8L44 9L43 9L43 10L40 10L40 9L41 9L41 8L42 8L42 6L41 6L41 8L39 8L39 9L37 9L37 10L36 10L36 9L35 9L35 8L36 8L36 6L37 6L37 7L38 7L38 6L37 6L37 5L39 5L39 4L37 4L37 5L36 5L36 3L39 3L39 2L41 2L41 3L40 3L40 5L41 5L41 3L42 3L42 2L47 2L47 1L39 1L39 2L38 2L38 1ZM12 3L12 4L13 4L13 3ZM27 3L27 4L29 4L29 3ZM44 4L44 5L46 5L46 4ZM18 5L18 7L19 7L19 6L20 6L20 7L21 7L21 6L20 6L20 5ZM27 5L27 8L30 8L30 5ZM33 5L33 6L32 6L32 7L33 7L33 6L34 6L34 8L33 8L33 9L32 9L32 10L33 10L33 11L31 11L31 12L29 12L29 11L28 11L28 10L26 10L26 11L27 11L27 12L25 12L25 9L21 9L21 8L17 8L17 9L18 9L18 10L17 10L17 11L18 11L18 10L19 10L19 13L18 13L18 12L16 12L16 11L15 11L15 15L16 15L16 17L19 17L19 16L17 16L17 15L16 15L16 13L18 13L18 15L19 15L19 13L22 13L22 12L21 12L21 11L22 11L22 10L24 10L24 11L23 11L23 13L24 13L24 15L26 15L26 13L28 13L28 14L27 14L27 15L29 15L29 13L30 13L30 14L33 14L33 15L32 15L32 16L31 16L31 15L30 15L30 16L31 16L31 17L29 17L29 18L31 18L31 17L32 17L32 16L34 16L34 15L37 15L37 16L35 16L35 17L36 17L36 19L40 19L40 20L36 20L36 21L37 21L37 22L36 22L36 23L37 23L37 24L35 24L35 23L33 23L33 26L34 26L34 28L33 28L33 27L32 27L32 24L31 24L31 23L30 23L30 22L28 22L28 24L27 24L27 25L26 25L26 26L25 26L25 27L24 27L24 28L25 28L25 27L26 27L26 30L25 30L25 29L24 29L24 30L23 30L23 34L22 34L22 33L21 33L21 32L20 32L20 33L21 33L21 34L20 34L20 35L19 35L19 34L18 34L18 35L19 35L19 36L18 36L18 37L16 37L16 38L15 38L15 39L16 39L16 40L15 40L15 41L17 41L17 43L18 43L18 42L19 42L19 43L20 43L20 40L19 40L19 39L20 39L20 38L19 38L19 39L17 39L17 38L18 38L18 37L20 37L20 36L21 36L21 37L22 37L22 38L21 38L21 40L23 40L23 41L22 41L22 42L21 42L21 43L22 43L22 42L23 42L23 44L25 44L25 45L23 45L23 46L25 46L25 45L26 45L26 44L25 44L25 42L26 42L26 43L27 43L27 42L26 42L26 41L27 41L27 40L26 40L26 39L28 39L28 40L29 40L29 39L31 39L31 40L30 40L30 41L32 41L32 40L33 40L33 41L34 41L34 39L35 39L35 41L36 41L36 42L35 42L35 43L37 43L37 44L35 44L35 46L31 46L31 45L32 45L32 44L34 44L34 42L33 42L33 43L31 43L31 42L30 42L30 43L29 43L29 42L28 42L28 45L27 45L27 46L28 46L28 47L32 47L32 48L34 48L34 49L32 49L32 50L34 50L34 51L35 51L35 50L34 50L34 49L35 49L35 48L36 48L36 50L37 50L37 48L36 48L36 47L35 47L35 46L38 46L38 45L39 45L39 47L38 47L38 48L39 48L39 47L40 47L40 46L41 46L41 45L39 45L39 44L43 44L43 45L42 45L42 46L44 46L44 44L43 44L43 42L45 42L45 41L44 41L44 40L46 40L46 41L47 41L47 40L46 40L46 38L45 38L45 37L44 37L44 35L42 35L42 37L41 37L41 39L40 39L40 38L38 38L38 37L40 37L40 36L41 36L41 35L40 35L40 34L43 34L43 33L44 33L44 34L46 34L46 35L45 35L45 36L46 36L46 37L47 37L47 36L48 36L48 37L50 37L50 36L51 36L51 35L49 35L49 36L48 36L48 33L47 33L47 34L46 34L46 33L44 33L44 32L46 32L46 31L47 31L47 32L48 32L48 31L47 31L47 30L46 30L46 29L47 29L47 28L46 28L46 26L44 26L44 27L43 27L43 25L44 25L44 24L43 24L43 21L42 21L42 20L47 20L47 18L46 18L46 17L44 17L44 18L43 18L43 19L42 19L42 18L40 18L40 16L41 16L41 15L42 15L42 14L43 14L43 13L44 13L44 12L45 12L45 11L47 11L47 10L43 10L43 11L42 11L42 14L41 14L41 13L40 13L40 12L41 12L41 11L40 11L40 10L37 10L37 12L36 12L36 11L35 11L35 12L34 12L34 10L33 10L33 9L34 9L34 8L35 8L35 6L36 6L36 5ZM9 6L9 7L10 7L10 6ZM24 6L24 7L23 7L23 8L24 8L24 7L25 7L25 6ZM28 6L28 7L29 7L29 6ZM39 6L39 7L40 7L40 6ZM44 6L44 7L45 7L45 6ZM11 8L11 9L12 9L12 8ZM15 8L15 9L16 9L16 8ZM4 9L4 11L3 11L3 12L1 12L1 13L2 13L2 14L4 14L4 11L5 11L5 9ZM19 9L19 10L21 10L21 9ZM1 10L1 11L2 11L2 10ZM52 10L52 11L53 11L53 10ZM13 11L13 12L14 12L14 11ZM39 11L39 12L38 12L38 14L37 14L37 15L38 15L38 16L37 16L37 18L39 18L39 16L40 16L40 15L41 15L41 14L40 14L40 13L39 13L39 12L40 12L40 11ZM24 12L24 13L25 13L25 12ZM28 12L28 13L29 13L29 12ZM32 12L32 13L33 13L33 14L35 14L35 13L33 13L33 12ZM6 14L6 15L7 15L7 16L8 16L8 14ZM20 14L20 15L21 15L21 16L20 16L20 17L21 17L21 18L20 18L20 19L22 19L22 17L21 17L21 16L22 16L22 14ZM33 17L33 18L34 18L34 19L35 19L35 18L34 18L34 17ZM18 18L18 19L17 19L17 20L18 20L18 21L17 21L17 22L18 22L18 21L19 21L19 18ZM44 18L44 19L46 19L46 18ZM51 19L51 20L55 20L55 19ZM2 20L2 21L3 21L3 20ZM21 20L21 21L22 21L22 20ZM34 20L34 21L35 21L35 20ZM40 20L40 21L41 21L41 20ZM9 21L9 22L10 22L10 21ZM15 21L15 22L16 22L16 21ZM38 21L38 22L37 22L37 23L38 23L38 24L39 24L39 25L37 25L37 26L39 26L39 27L36 27L36 28L35 28L35 29L33 29L33 28L32 28L32 27L31 27L31 28L32 28L32 29L31 29L31 32L32 32L32 33L30 33L30 32L29 32L29 33L27 33L27 31L26 31L26 32L25 32L25 34L24 34L24 36L23 36L23 35L22 35L22 37L24 37L24 38L22 38L22 39L24 39L24 40L25 40L25 39L26 39L26 37L24 37L24 36L28 36L28 37L27 37L27 38L28 38L28 37L29 37L29 34L31 34L31 35L30 35L30 38L31 38L31 39L33 39L33 38L36 38L36 36L38 36L38 35L34 35L34 34L36 34L36 32L37 32L37 34L40 34L40 33L43 33L43 32L44 32L44 31L46 31L46 30L45 30L45 27L44 27L44 29L43 29L43 28L42 28L42 27L40 27L40 25L41 25L41 24L42 24L42 25L43 25L43 24L42 24L42 23L41 23L41 22L40 22L40 23L41 23L41 24L39 24L39 21ZM52 22L52 23L53 23L53 22ZM5 23L5 24L4 24L4 25L3 25L3 24L1 24L1 27L2 27L2 26L7 26L7 25L6 25L6 24L7 24L7 23ZM14 23L14 24L15 24L15 25L16 25L16 23ZM17 23L17 25L19 25L19 24L18 24L18 23ZM29 23L29 24L28 24L28 26L29 26L29 25L30 25L30 23ZM55 23L55 24L56 24L56 23ZM9 24L9 25L10 25L10 24ZM34 24L34 26L36 26L36 25L35 25L35 24ZM5 27L5 30L8 30L8 27ZM11 27L11 28L12 28L12 27ZM27 27L27 30L30 30L30 27ZM49 27L49 30L52 30L52 27ZM6 28L6 29L7 29L7 28ZM28 28L28 29L29 29L29 28ZM36 28L36 29L39 29L39 28ZM50 28L50 29L51 29L51 28ZM54 28L54 29L55 29L55 30L56 30L56 29L55 29L55 28ZM42 29L42 30L37 30L37 31L40 31L40 32L38 32L38 33L40 33L40 32L43 32L43 31L44 31L44 30L43 30L43 29ZM32 30L32 32L33 32L33 33L32 33L32 34L34 34L34 32L33 32L33 31L35 31L35 32L36 32L36 30ZM42 30L42 31L43 31L43 30ZM3 31L3 32L4 32L4 31ZM26 33L26 34L25 34L25 35L27 35L27 33ZM50 33L50 34L51 34L51 33ZM3 34L3 35L4 35L4 36L5 36L5 37L4 37L4 39L5 39L5 38L6 38L6 39L7 39L7 38L6 38L6 37L8 37L8 38L9 38L9 37L8 37L8 35L9 35L9 36L10 36L10 38L11 38L11 37L12 37L12 36L11 36L11 35L12 35L12 34L10 34L10 35L9 35L9 34L6 34L6 35L4 35L4 34ZM6 35L6 36L7 36L7 35ZM31 35L31 38L32 38L32 35ZM39 35L39 36L40 36L40 35ZM46 35L46 36L47 36L47 35ZM33 36L33 37L34 37L34 36ZM43 37L43 39L45 39L45 38L44 38L44 37ZM47 38L47 39L49 39L49 40L50 40L50 38ZM51 38L51 40L52 40L52 39L54 39L54 38ZM37 39L37 40L39 40L39 39ZM41 39L41 40L40 40L40 42L39 42L39 41L38 41L38 42L37 42L37 43L38 43L38 44L39 44L39 43L40 43L40 42L41 42L41 43L42 43L42 42L41 42L41 41L43 41L43 40L42 40L42 39ZM1 40L1 41L2 41L2 40ZM5 40L5 41L7 41L7 40ZM10 40L10 41L9 41L9 42L13 42L13 41L11 41L11 40ZM38 42L38 43L39 43L39 42ZM30 43L30 44L31 44L31 43ZM19 44L19 45L22 45L22 44ZM54 44L54 45L55 45L55 46L56 46L56 45L55 45L55 44ZM3 45L3 47L5 47L5 46L4 46L4 45ZM28 45L28 46L30 46L30 45ZM12 47L12 48L11 48L11 49L13 49L13 50L14 50L14 51L15 51L15 50L14 50L14 49L13 49L13 47ZM34 47L34 48L35 48L35 47ZM52 47L52 48L54 48L54 47ZM27 49L27 52L30 52L30 49ZM49 49L49 52L52 52L52 49ZM28 50L28 51L29 51L29 50ZM50 50L50 51L51 51L51 50ZM53 50L53 51L54 51L54 50ZM12 51L12 53L13 53L13 51ZM22 51L22 52L23 52L23 51ZM39 51L39 52L40 52L40 51ZM56 51L56 52L57 52L57 51ZM9 53L9 54L10 54L10 55L11 55L11 54L10 54L10 53ZM25 53L25 54L26 54L26 53ZM30 53L30 54L31 54L31 53ZM51 54L51 55L53 55L53 54ZM15 55L15 56L13 56L13 57L16 57L16 55ZM25 55L25 56L26 56L26 55ZM0 0L0 7L7 7L7 0ZM1 1L1 6L6 6L6 1ZM2 2L2 5L5 5L5 2ZM50 0L50 7L57 7L57 0ZM51 1L51 6L56 6L56 1ZM52 2L52 5L55 5L55 2ZM0 50L0 57L7 57L7 50ZM1 51L1 56L6 56L6 51ZM2 52L2 55L5 55L5 52Z" fill="#000000"/></g></g></svg>
