<?xml version="1.0" encoding="UTF-8"?>
<svg xmlns="http://www.w3.org/2000/svg" version="1.1" width="300" height="300" viewBox="0 0 300 300"><rect x="0" y="0" width="300" height="300" fill="#ffffff"/><g transform="scale(4.918)"><g transform="translate(2,2)"><path fill-rule="evenodd" d="M8 0L8 1L10 1L10 0ZM11 0L11 1L12 1L12 4L11 4L11 3L10 3L10 2L8 2L8 5L10 5L10 7L11 7L11 5L12 5L12 8L11 8L11 9L9 9L9 8L8 8L8 9L7 9L7 8L6 8L6 9L5 9L5 10L4 10L4 8L0 8L0 11L1 11L1 9L3 9L3 10L2 10L2 11L3 11L3 12L2 12L2 14L1 14L1 16L0 16L0 19L1 19L1 18L2 18L2 20L0 20L0 23L1 23L1 21L2 21L2 20L3 20L3 22L2 22L2 24L1 24L1 25L0 25L0 26L2 26L2 24L3 24L3 22L4 22L4 20L6 20L6 21L7 21L7 22L5 22L5 23L7 23L7 22L8 22L8 23L9 23L9 24L11 24L11 25L8 25L8 26L6 26L6 25L7 25L7 24L6 24L6 25L5 25L5 26L4 26L4 25L3 25L3 26L4 26L4 28L3 28L3 27L1 27L1 28L0 28L0 29L1 29L1 30L0 30L0 31L1 31L1 32L0 32L0 33L1 33L1 32L2 32L2 31L1 31L1 30L4 30L4 32L5 32L5 33L8 33L8 35L10 35L10 36L11 36L11 37L8 37L8 36L6 36L6 35L7 35L7 34L5 34L5 36L6 36L6 37L3 37L3 36L4 36L4 33L3 33L3 35L2 35L2 34L1 34L1 35L2 35L2 37L3 37L3 38L2 38L2 39L3 39L3 40L2 40L2 41L1 41L1 40L0 40L0 42L2 42L2 41L3 41L3 42L4 42L4 39L5 39L5 40L6 40L6 41L7 41L7 42L6 42L6 43L4 43L4 44L3 44L3 43L1 43L1 44L0 44L0 45L1 45L1 44L2 44L2 45L4 45L4 46L5 46L5 47L3 47L3 46L2 46L2 47L1 47L1 46L0 46L0 48L5 48L5 47L8 47L8 50L9 50L9 52L10 52L10 53L11 53L11 54L14 54L14 55L13 55L13 56L12 56L12 55L10 55L10 54L9 54L9 53L8 53L8 57L11 57L11 56L12 56L12 57L13 57L13 56L14 56L14 57L15 57L15 53L16 53L16 54L17 54L17 53L16 53L16 52L15 52L15 53L14 53L14 51L15 51L15 50L16 50L16 49L17 49L17 48L15 48L15 50L14 50L14 47L13 47L13 46L11 46L11 45L12 45L12 44L11 44L11 42L10 42L10 44L8 44L8 45L10 45L10 46L9 46L9 47L8 47L8 46L6 46L6 45L7 45L7 44L6 44L6 43L8 43L8 42L9 42L9 41L12 41L12 43L14 43L14 41L12 41L12 40L13 40L13 39L12 39L12 40L11 40L11 39L10 39L10 38L12 38L12 37L13 37L13 35L15 35L15 34L16 34L16 36L14 36L14 37L15 37L15 38L17 38L17 39L16 39L16 40L17 40L17 41L15 41L15 42L16 42L16 44L17 44L17 45L18 45L18 46L17 46L17 47L18 47L18 50L19 50L19 51L20 51L20 55L19 55L19 53L18 53L18 56L16 56L16 57L18 57L18 56L20 56L20 55L21 55L21 53L22 53L22 52L23 52L23 51L24 51L24 52L25 52L25 51L24 51L24 50L23 50L23 49L22 49L22 52L21 52L21 51L20 51L20 50L21 50L21 48L20 48L20 49L19 49L19 47L21 47L21 46L19 46L19 43L20 43L20 45L21 45L21 44L22 44L22 45L24 45L24 47L23 47L23 48L24 48L24 49L26 49L26 54L23 54L23 56L21 56L21 57L25 57L25 56L26 56L26 54L28 54L28 53L33 53L33 54L29 54L29 56L27 56L27 57L30 57L30 55L32 55L32 56L31 56L31 57L32 57L32 56L33 56L33 57L36 57L36 56L37 56L37 57L41 57L41 56L42 56L42 57L44 57L44 56L42 56L42 55L40 55L40 54L41 54L41 53L42 53L42 51L43 51L43 54L45 54L45 56L46 56L46 57L47 57L47 55L49 55L49 56L48 56L48 57L50 57L50 56L51 56L51 54L50 54L50 53L53 53L53 54L54 54L54 55L55 55L55 54L56 54L56 53L57 53L57 51L56 51L56 47L57 47L57 45L55 45L55 44L53 44L53 46L52 46L52 44L51 44L51 45L50 45L50 46L49 46L49 44L50 44L50 42L51 42L51 43L53 43L53 41L51 41L51 39L50 39L50 42L49 42L49 44L48 44L48 46L46 46L46 45L45 45L45 46L44 46L44 45L43 45L43 44L42 44L42 49L41 49L41 50L40 50L40 52L41 52L41 53L40 53L40 54L39 54L39 55L40 55L40 56L38 56L38 55L37 55L37 53L36 53L36 51L35 51L35 52L34 52L34 50L33 50L33 49L35 49L35 48L36 48L36 49L38 49L38 51L37 51L37 52L39 52L39 49L40 49L40 47L41 47L41 42L42 42L42 43L45 43L45 42L47 42L47 43L46 43L46 44L47 44L47 43L48 43L48 42L47 42L47 41L49 41L49 40L47 40L47 39L44 39L44 38L43 38L43 39L42 39L42 38L39 38L39 37L40 37L40 34L41 34L41 32L42 32L42 30L41 30L41 31L40 31L40 28L41 28L41 29L45 29L45 28L46 28L46 31L45 31L45 30L44 30L44 31L43 31L43 33L42 33L42 36L43 36L43 37L44 37L44 36L43 36L43 35L47 35L47 36L46 36L46 37L45 37L45 38L46 38L46 37L47 37L47 38L48 38L48 39L49 39L49 37L47 37L47 36L50 36L50 35L51 35L51 38L52 38L52 35L55 35L55 34L56 34L56 35L57 35L57 33L55 33L55 32L57 32L57 31L56 31L56 30L57 30L57 28L56 28L56 27L55 27L55 26L57 26L57 25L55 25L55 26L54 26L54 24L53 24L53 25L50 25L50 26L48 26L48 24L47 24L47 23L45 23L45 24L47 24L47 27L48 27L48 28L46 28L46 27L45 27L45 28L43 28L43 27L44 27L44 26L46 26L46 25L44 25L44 23L43 23L43 24L41 24L41 25L40 25L40 23L39 23L39 22L40 22L40 21L41 21L41 22L43 22L43 21L44 21L44 22L45 22L45 21L44 21L44 18L45 18L45 19L47 19L47 20L51 20L51 21L53 21L53 22L51 22L51 23L49 23L49 24L51 24L51 23L53 23L53 22L55 22L55 24L56 24L56 23L57 23L57 21L56 21L56 20L57 20L57 19L55 19L55 18L54 18L54 17L55 17L55 15L54 15L54 14L55 14L55 13L56 13L56 12L55 12L55 13L53 13L53 14L51 14L51 13L50 13L50 12L49 12L49 11L50 11L50 10L49 10L49 9L50 9L50 8L48 8L48 7L49 7L49 6L48 6L48 7L47 7L47 5L48 5L48 0L46 0L46 1L45 1L45 2L44 2L44 3L45 3L45 2L46 2L46 3L47 3L47 5L46 5L46 7L45 7L45 6L44 6L44 5L42 5L42 7L43 7L43 8L44 8L44 7L45 7L45 8L46 8L46 7L47 7L47 9L48 9L48 10L46 10L46 11L45 11L45 13L46 13L46 12L47 12L47 11L48 11L48 12L49 12L49 14L51 14L51 15L52 15L52 16L53 16L53 15L54 15L54 17L53 17L53 18L52 18L52 19L53 19L53 20L51 20L51 19L50 19L50 18L49 18L49 19L48 19L48 17L49 17L49 16L48 16L48 17L47 17L47 16L46 16L46 15L45 15L45 14L44 14L44 11L43 11L43 12L42 12L42 13L41 13L41 14L40 14L40 13L38 13L38 12L41 12L41 11L42 11L42 10L43 10L43 9L41 9L41 8L39 8L39 11L38 11L38 9L36 9L36 8L38 8L38 7L39 7L39 6L40 6L40 7L41 7L41 4L43 4L43 0L42 0L42 2L41 2L41 4L40 4L40 3L38 3L38 4L37 4L37 2L36 2L36 4L35 4L35 6L34 6L34 5L33 5L33 4L34 4L34 3L35 3L35 1L34 1L34 3L33 3L33 2L32 2L32 3L30 3L30 2L31 2L31 0L27 0L27 1L26 1L26 0L24 0L24 1L26 1L26 4L25 4L25 3L24 3L24 9L23 9L23 4L22 4L22 8L21 8L21 6L20 6L20 8L21 8L21 9L23 9L23 11L21 11L21 12L20 12L20 14L19 14L19 15L21 15L21 16L23 16L23 20L21 20L21 18L19 18L19 17L18 17L18 16L17 16L17 15L16 15L16 17L15 17L15 16L13 16L13 15L14 15L14 14L16 14L16 13L17 13L17 14L18 14L18 12L19 12L19 11L20 11L20 9L18 9L18 7L19 7L19 6L18 6L18 7L17 7L17 6L16 6L16 7L15 7L15 6L14 6L14 3L13 3L13 1L12 1L12 0ZM14 0L14 2L15 2L15 0ZM21 0L21 1L20 1L20 2L18 2L18 1L16 1L16 3L15 3L15 5L19 5L19 4L20 4L20 5L21 5L21 4L20 4L20 3L21 3L21 1L23 1L23 0ZM36 0L36 1L38 1L38 0ZM39 0L39 2L40 2L40 1L41 1L41 0ZM27 1L27 2L28 2L28 4L29 4L29 1ZM46 1L46 2L47 2L47 1ZM17 2L17 3L16 3L16 4L18 4L18 2ZM9 3L9 4L10 4L10 3ZM32 3L32 4L31 4L31 5L32 5L32 6L31 6L31 10L32 10L32 11L30 11L30 9L28 9L28 10L27 10L27 9L25 9L25 10L24 10L24 11L23 11L23 12L22 12L22 14L21 14L21 15L22 15L22 14L23 14L23 15L24 15L24 14L25 14L25 15L26 15L26 16L24 16L24 19L25 19L25 18L26 18L26 19L27 19L27 18L26 18L26 17L29 17L29 16L30 16L30 15L34 15L34 16L35 16L35 17L36 17L36 18L35 18L35 19L34 19L34 20L33 20L33 18L31 18L31 17L32 17L32 16L31 16L31 17L30 17L30 18L28 18L28 20L29 20L29 19L30 19L30 20L31 20L31 21L33 21L33 22L32 22L32 23L30 23L30 21L27 21L27 20L26 20L26 21L25 21L25 20L24 20L24 21L23 21L23 23L22 23L22 22L19 22L19 20L20 20L20 21L21 21L21 20L20 20L20 19L19 19L19 18L18 18L18 20L17 20L17 21L16 21L16 23L15 23L15 21L14 21L14 20L16 20L16 19L17 19L17 18L15 18L15 19L13 19L13 18L14 18L14 17L13 17L13 16L12 16L12 14L11 14L11 16L12 16L12 19L11 19L11 17L10 17L10 16L9 16L9 15L8 15L8 17L10 17L10 18L8 18L8 19L6 19L6 20L8 20L8 21L10 21L10 20L13 20L13 22L9 22L9 23L12 23L12 24L15 24L15 25L14 25L14 26L13 26L13 25L12 25L12 26L10 26L10 27L9 27L9 28L10 28L10 27L11 27L11 28L14 28L14 29L16 29L16 28L15 28L15 27L16 27L16 26L17 26L17 27L19 27L19 28L18 28L18 30L17 30L17 31L16 31L16 30L13 30L13 29L9 29L9 30L10 30L10 33L11 33L11 36L12 36L12 35L13 35L13 34L12 34L12 32L13 32L13 33L14 33L14 34L15 34L15 33L14 33L14 31L16 31L16 34L18 34L18 35L17 35L17 36L16 36L16 37L17 37L17 38L18 38L18 37L17 37L17 36L18 36L18 35L19 35L19 33L20 33L20 34L21 34L21 35L20 35L20 37L19 37L19 39L17 39L17 40L18 40L18 41L19 41L19 42L18 42L18 43L19 43L19 42L20 42L20 43L21 43L21 42L22 42L22 44L23 44L23 43L24 43L24 44L25 44L25 47L24 47L24 48L25 48L25 47L26 47L26 48L27 48L27 46L28 46L28 47L29 47L29 48L30 48L30 47L31 47L31 50L32 50L32 51L31 51L31 52L32 52L32 51L33 51L33 50L32 50L32 49L33 49L33 48L32 48L32 47L34 47L34 46L35 46L35 47L36 47L36 45L38 45L38 46L37 46L37 47L38 47L38 48L39 48L39 47L38 47L38 46L40 46L40 45L39 45L39 44L40 44L40 43L39 43L39 42L41 42L41 41L42 41L42 42L44 42L44 40L43 40L43 41L42 41L42 39L41 39L41 40L40 40L40 41L39 41L39 39L38 39L38 41L37 41L37 38L36 38L36 35L35 35L35 36L33 36L33 35L34 35L34 34L35 34L35 33L38 33L38 34L37 34L37 37L39 37L39 34L40 34L40 32L36 32L36 31L37 31L37 27L38 27L38 28L39 28L39 27L38 27L38 26L37 26L37 27L36 27L36 25L35 25L35 23L34 23L34 22L36 22L36 24L39 24L39 23L38 23L38 22L39 22L39 21L40 21L40 20L35 20L35 19L36 19L36 18L37 18L37 19L38 19L38 18L39 18L39 17L37 17L37 16L39 16L39 15L40 15L40 14L39 14L39 15L38 15L38 13L34 13L34 14L33 14L33 12L34 12L34 11L33 11L33 10L32 10L32 6L33 6L33 7L34 7L34 6L33 6L33 5L32 5L32 4L33 4L33 3ZM12 4L12 5L13 5L13 4ZM36 4L36 5L37 5L37 4ZM25 5L25 8L26 8L26 5ZM27 5L27 8L30 8L30 5ZM38 5L38 6L37 6L37 7L38 7L38 6L39 6L39 5ZM8 6L8 7L9 7L9 6ZM13 6L13 7L14 7L14 9L15 9L15 11L14 11L14 10L13 10L13 9L11 9L11 10L10 10L10 11L11 11L11 12L10 12L10 13L11 13L11 12L12 12L12 10L13 10L13 13L15 13L15 12L16 12L16 10L17 10L17 12L18 12L18 10L17 10L17 8L15 8L15 7L14 7L14 6ZM28 6L28 7L29 7L29 6ZM35 6L35 7L36 7L36 6ZM43 6L43 7L44 7L44 6ZM34 8L34 10L35 10L35 11L37 11L37 12L38 12L38 11L37 11L37 10L35 10L35 8ZM52 8L52 9L51 9L51 12L52 12L52 9L55 9L55 8ZM56 8L56 9L57 9L57 8ZM6 9L6 10L5 10L5 11L6 11L6 12L5 12L5 13L3 13L3 15L2 15L2 18L3 18L3 19L4 19L4 17L6 17L6 18L7 18L7 17L6 17L6 16L7 16L7 15L6 15L6 16L4 16L4 17L3 17L3 15L5 15L5 14L7 14L7 13L8 13L8 12L7 12L7 11L8 11L8 10L7 10L7 9ZM40 9L40 11L41 11L41 9ZM6 10L6 11L7 11L7 10ZM28 10L28 11L29 11L29 10ZM48 10L48 11L49 11L49 10ZM54 10L54 11L57 11L57 10ZM25 11L25 14L29 14L29 15L30 15L30 13L31 13L31 14L32 14L32 12L29 12L29 13L28 13L28 12L26 12L26 11ZM6 12L6 13L7 13L7 12ZM42 13L42 14L43 14L43 15L41 15L41 16L40 16L40 19L41 19L41 21L42 21L42 20L43 20L43 17L44 17L44 16L43 16L43 15L44 15L44 14L43 14L43 13ZM36 14L36 15L37 15L37 14ZM47 14L47 15L48 15L48 14ZM56 15L56 18L57 18L57 15ZM41 18L41 19L42 19L42 18ZM8 19L8 20L9 20L9 19ZM31 19L31 20L32 20L32 19ZM54 19L54 20L53 20L53 21L54 21L54 20L55 20L55 19ZM34 20L34 21L35 21L35 20ZM24 21L24 22L25 22L25 24L23 24L23 25L22 25L22 24L21 24L21 23L20 23L20 25L19 25L19 23L16 23L16 25L17 25L17 26L21 26L21 27L20 27L20 28L21 28L21 29L22 29L22 31L26 31L26 32L27 32L27 31L30 31L30 32L29 32L29 33L31 33L31 29L33 29L33 33L32 33L32 35L33 35L33 33L35 33L35 32L34 32L34 31L35 31L35 28L36 28L36 27L34 27L34 29L33 29L33 28L32 28L32 26L33 26L33 25L31 25L31 26L30 26L30 24L29 24L29 25L28 25L28 23L29 23L29 22L28 22L28 23L27 23L27 22L25 22L25 21ZM37 21L37 22L38 22L38 21ZM47 21L47 22L50 22L50 21ZM13 22L13 23L14 23L14 22ZM26 23L26 25L23 25L23 26L22 26L22 27L23 27L23 30L25 30L25 29L26 29L26 26L27 26L27 23ZM33 23L33 24L34 24L34 23ZM39 25L39 26L40 26L40 25ZM41 25L41 26L44 26L44 25ZM53 26L53 27L54 27L54 26ZM5 27L5 30L8 30L8 27ZM27 27L27 30L30 30L30 27ZM41 27L41 28L42 28L42 27ZM49 27L49 30L52 30L52 27ZM2 28L2 29L3 29L3 28ZM6 28L6 29L7 29L7 28ZM24 28L24 29L25 29L25 28ZM28 28L28 29L29 29L29 28ZM50 28L50 29L51 29L51 28ZM53 28L53 29L54 29L54 30L53 30L53 31L52 31L52 32L51 32L51 31L50 31L50 32L49 32L49 33L48 33L48 29L47 29L47 31L46 31L46 32L47 32L47 33L46 33L46 34L47 34L47 35L49 35L49 33L50 33L50 34L54 34L54 32L55 32L55 30L56 30L56 28L55 28L55 29L54 29L54 28ZM38 29L38 30L39 30L39 29ZM5 31L5 32L8 32L8 31ZM11 31L11 32L12 32L12 31ZM17 31L17 32L19 32L19 31ZM44 31L44 33L43 33L43 34L45 34L45 31ZM20 32L20 33L21 33L21 34L24 34L24 35L23 35L23 36L24 36L24 39L23 39L23 37L22 37L22 36L21 36L21 37L20 37L20 38L21 38L21 39L23 39L23 42L24 42L24 43L25 43L25 42L24 42L24 41L26 41L26 39L27 39L27 38L29 38L29 39L28 39L28 40L29 40L29 41L27 41L27 42L26 42L26 44L28 44L28 42L29 42L29 41L30 41L30 44L32 44L32 43L33 43L33 42L34 42L34 43L36 43L36 44L33 44L33 45L29 45L29 46L31 46L31 47L32 47L32 46L33 46L33 45L36 45L36 44L39 44L39 43L36 43L36 42L37 42L37 41L36 41L36 40L34 40L34 38L33 38L33 37L32 37L32 36L31 36L31 37L30 37L30 36L29 36L29 35L28 35L28 34L27 34L27 36L26 36L26 34L25 34L25 33L23 33L23 32L22 32L22 33L21 33L21 32ZM47 33L47 34L48 34L48 33ZM30 34L30 35L31 35L31 34ZM25 36L25 38L26 38L26 36ZM28 36L28 37L29 37L29 38L30 38L30 39L29 39L29 40L30 40L30 41L31 41L31 40L32 40L32 41L34 41L34 40L33 40L33 38L32 38L32 39L31 39L31 38L30 38L30 37L29 37L29 36ZM53 36L53 37L54 37L54 36ZM0 37L0 38L1 38L1 37ZM6 37L6 38L7 38L7 37ZM55 37L55 38L56 38L56 39L57 39L57 38L56 38L56 37ZM8 38L8 39L6 39L6 40L8 40L8 41L9 41L9 38ZM14 39L14 40L15 40L15 39ZM24 39L24 40L25 40L25 39ZM54 39L54 41L55 41L55 39ZM20 40L20 41L22 41L22 40ZM46 40L46 41L47 41L47 40ZM56 40L56 42L57 42L57 40ZM35 41L35 42L36 42L36 41ZM54 42L54 43L55 43L55 42ZM56 43L56 44L57 44L57 43ZM4 44L4 45L6 45L6 44ZM10 44L10 45L11 45L11 44ZM14 44L14 45L15 45L15 44ZM10 46L10 47L9 47L9 49L10 49L10 48L11 48L11 46ZM15 46L15 47L16 47L16 46ZM18 46L18 47L19 47L19 46ZM43 46L43 49L42 49L42 50L44 50L44 52L45 52L45 53L46 53L46 52L47 52L47 51L48 51L48 50L47 50L47 49L48 49L48 47L47 47L47 49L45 49L45 48L46 48L46 46L45 46L45 48L44 48L44 46ZM51 46L51 48L52 48L52 46ZM53 46L53 47L54 47L54 48L53 48L53 49L55 49L55 46ZM12 47L12 48L13 48L13 47ZM6 48L6 49L7 49L7 48ZM12 49L12 50L10 50L10 52L12 52L12 53L13 53L13 52L12 52L12 50L13 50L13 49ZM27 49L27 52L30 52L30 49ZM49 49L49 52L52 52L52 49ZM28 50L28 51L29 51L29 50ZM45 50L45 52L46 52L46 50ZM50 50L50 51L51 51L51 50ZM53 50L53 52L54 52L54 50ZM17 51L17 52L18 52L18 51ZM55 51L55 53L54 53L54 54L55 54L55 53L56 53L56 51ZM48 53L48 54L49 54L49 53ZM35 54L35 55L36 55L36 54ZM9 55L9 56L10 56L10 55ZM24 55L24 56L25 56L25 55ZM52 55L52 57L53 57L53 55ZM56 55L56 56L57 56L57 55ZM54 56L54 57L55 57L55 56ZM0 0L0 7L7 7L7 0ZM1 1L1 6L6 6L6 1ZM2 2L2 5L5 5L5 2ZM50 0L50 7L57 7L57 0ZM51 1L51 6L56 6L56 1ZM52 2L52 5L55 5L55 2ZM0 50L0 57L7 57L7 50ZM1 51L1 56L6 56L6 51ZM2 52L2 55L5 55L5 52Z" fill="#000000"/></g></g></svg>
