<?xml version="1.0" encoding="UTF-8"?>
<svg xmlns="http://www.w3.org/2000/svg" version="1.1" width="300" height="300" viewBox="0 0 300 300"><rect x="0" y="0" width="300" height="300" fill="#ffffff"/><g transform="scale(4.918)"><g transform="translate(2,2)"><path fill-rule="evenodd" d="M9 0L9 1L8 1L8 2L9 2L9 1L10 1L10 3L11 3L11 4L10 4L10 5L11 5L11 4L12 4L12 5L13 5L13 6L12 6L12 7L11 7L11 6L10 6L10 7L11 7L11 8L10 8L10 10L11 10L11 11L9 11L9 13L8 13L8 14L9 14L9 16L10 16L10 17L7 17L7 16L6 16L6 15L7 15L7 14L6 14L6 15L5 15L5 14L4 14L4 13L7 13L7 12L8 12L8 11L7 11L7 10L6 10L6 9L9 9L9 8L6 8L6 9L5 9L5 8L0 8L0 10L1 10L1 12L2 12L2 13L1 13L1 14L0 14L0 15L1 15L1 16L0 16L0 19L1 19L1 20L0 20L0 24L1 24L1 25L3 25L3 26L2 26L2 27L0 27L0 29L1 29L1 28L2 28L2 30L3 30L3 31L2 31L2 33L1 33L1 30L0 30L0 36L1 36L1 35L2 35L2 33L3 33L3 34L4 34L4 35L3 35L3 36L2 36L2 37L1 37L1 39L4 39L4 40L5 40L5 41L2 41L2 40L1 40L1 41L0 41L0 45L1 45L1 43L2 43L2 42L3 42L3 44L2 44L2 45L3 45L3 44L4 44L4 42L6 42L6 43L5 43L5 44L6 44L6 45L4 45L4 46L5 46L5 47L3 47L3 46L2 46L2 47L1 47L1 46L0 46L0 48L5 48L5 47L7 47L7 48L6 48L6 49L7 49L7 48L8 48L8 47L9 47L9 49L8 49L8 51L9 51L9 52L8 52L8 57L11 57L11 56L10 56L10 54L11 54L11 55L12 55L12 56L13 56L13 57L14 57L14 56L15 56L15 57L16 57L16 55L14 55L14 56L13 56L13 55L12 55L12 54L11 54L11 53L13 53L13 52L14 52L14 54L16 54L16 53L15 53L15 52L14 52L14 49L15 49L15 50L16 50L16 51L17 51L17 53L19 53L19 54L20 54L20 55L18 55L18 54L17 54L17 55L18 55L18 56L17 56L17 57L19 57L19 56L21 56L21 55L24 55L24 56L25 56L25 57L26 57L26 56L25 56L25 55L26 55L26 54L27 54L27 53L28 53L28 54L29 54L29 55L30 55L30 56L29 56L29 57L31 57L31 56L32 56L32 55L33 55L33 56L34 56L34 55L35 55L35 57L39 57L39 56L38 56L38 55L37 55L37 54L38 54L38 53L37 53L37 51L38 51L38 52L39 52L39 55L40 55L40 52L41 52L41 51L40 51L40 50L43 50L43 49L44 49L44 48L45 48L45 50L46 50L46 51L45 51L45 53L44 53L44 51L43 51L43 53L42 53L42 54L41 54L41 56L43 56L43 57L44 57L44 56L45 56L45 57L49 57L49 56L50 56L50 55L51 55L51 57L52 57L52 56L54 56L54 57L56 57L56 56L55 56L55 55L51 55L51 54L55 54L55 53L56 53L56 52L57 52L57 51L54 51L54 52L55 52L55 53L53 53L53 48L55 48L55 50L57 50L57 49L56 49L56 48L55 48L55 47L56 47L56 46L57 46L57 43L56 43L56 42L57 42L57 41L56 41L56 42L55 42L55 39L57 39L57 37L56 37L56 36L57 36L57 35L54 35L54 36L53 36L53 34L52 34L52 36L48 36L48 33L47 33L47 32L48 32L48 31L50 31L50 32L51 32L51 33L53 33L53 32L55 32L55 33L54 33L54 34L57 34L57 33L56 33L56 30L57 30L57 27L53 27L53 25L51 25L51 24L55 24L55 25L54 25L54 26L57 26L57 23L56 23L56 22L57 22L57 21L54 21L54 22L55 22L55 23L53 23L53 22L52 22L52 23L51 23L51 22L50 22L50 19L51 19L51 20L52 20L52 19L54 19L54 20L55 20L55 18L57 18L57 17L54 17L54 16L55 16L55 15L56 15L56 16L57 16L57 15L56 15L56 14L57 14L57 13L56 13L56 14L55 14L55 13L54 13L54 16L53 16L53 17L52 17L52 18L50 18L50 17L49 17L49 16L52 16L52 15L50 15L50 11L51 11L51 10L52 10L52 8L51 8L51 10L50 10L50 8L49 8L49 6L48 6L48 8L49 8L49 9L47 9L47 10L45 10L45 9L46 9L46 8L45 8L45 6L46 6L46 7L47 7L47 5L48 5L48 0L45 0L45 2L43 2L43 3L47 3L47 5L46 5L46 4L44 4L44 5L45 5L45 6L44 6L44 7L43 7L43 6L42 6L42 5L43 5L43 4L40 4L40 3L42 3L42 2L41 2L41 1L43 1L43 0L41 0L41 1L36 1L36 0L35 0L35 1L34 1L34 0L32 0L32 1L31 1L31 0L30 0L30 1L29 1L29 0L27 0L27 1L26 1L26 0L24 0L24 1L23 1L23 0L21 0L21 1L23 1L23 2L20 2L20 3L18 3L18 4L20 4L20 3L23 3L23 2L24 2L24 4L21 4L21 6L20 6L20 5L18 5L18 7L17 7L17 4L16 4L16 0L12 0L12 1L11 1L11 0ZM13 1L13 2L14 2L14 4L15 4L15 5L14 5L14 6L13 6L13 9L15 9L15 10L13 10L13 11L14 11L14 12L10 12L10 13L9 13L9 14L10 14L10 13L12 13L12 14L11 14L11 15L10 15L10 16L11 16L11 15L13 15L13 16L12 16L12 17L11 17L11 18L12 18L12 20L14 20L14 19L13 19L13 18L14 18L14 17L16 17L16 18L15 18L15 21L13 21L13 22L12 22L12 21L10 21L10 23L9 23L9 25L10 25L10 26L12 26L12 28L13 28L13 29L11 29L11 28L9 28L9 30L10 30L10 31L11 31L11 32L10 32L10 33L8 33L8 31L6 31L6 32L7 32L7 33L6 33L6 34L7 34L7 35L4 35L4 36L5 36L5 38L4 38L4 37L3 37L3 38L4 38L4 39L6 39L6 40L7 40L7 41L6 41L6 42L8 42L8 38L7 38L7 37L6 37L6 36L7 36L7 35L8 35L8 36L9 36L9 38L10 38L10 36L12 36L12 37L14 37L14 38L16 38L16 37L17 37L17 36L20 36L20 37L18 37L18 38L17 38L17 39L18 39L18 38L20 38L20 39L19 39L19 41L20 41L20 42L18 42L18 41L16 41L16 39L15 39L15 41L14 41L14 40L13 40L13 41L14 41L14 42L12 42L12 39L11 39L11 40L10 40L10 39L9 39L9 40L10 40L10 41L9 41L9 43L6 43L6 44L9 44L9 45L10 45L10 46L9 46L9 47L10 47L10 46L11 46L11 47L12 47L12 45L13 45L13 46L14 46L14 47L17 47L17 49L16 49L16 48L15 48L15 49L16 49L16 50L17 50L17 51L18 51L18 52L19 52L19 53L23 53L23 54L24 54L24 53L23 53L23 52L24 52L24 51L23 51L23 50L22 50L22 51L23 51L23 52L20 52L20 51L21 51L21 49L24 49L24 45L25 45L25 48L27 48L27 47L28 47L28 48L31 48L31 52L32 52L32 54L33 54L33 52L36 52L36 51L34 51L34 50L40 50L40 49L42 49L42 48L40 48L40 47L41 47L41 46L42 46L42 47L43 47L43 48L44 48L44 47L45 47L45 44L44 44L44 45L43 45L43 44L41 44L41 43L45 43L45 42L46 42L46 43L47 43L47 42L48 42L48 41L51 41L51 42L50 42L50 43L51 43L51 42L53 42L53 43L52 43L52 44L50 44L50 45L49 45L49 46L48 46L48 44L49 44L49 43L48 43L48 44L47 44L47 45L46 45L46 46L47 46L47 47L46 47L46 50L47 50L47 51L48 51L48 48L49 48L49 47L51 47L51 46L50 46L50 45L52 45L52 46L53 46L53 45L52 45L52 44L53 44L53 43L54 43L54 40L52 40L52 41L51 41L51 39L52 39L52 38L53 38L53 39L55 39L55 38L56 38L56 37L55 37L55 36L54 36L54 37L52 37L52 38L50 38L50 39L48 39L48 36L47 36L47 35L46 35L46 34L47 34L47 33L46 33L46 32L47 32L47 31L48 31L48 29L46 29L46 30L44 30L44 31L43 31L43 30L42 30L42 29L45 29L45 28L42 28L42 27L43 27L43 26L44 26L44 27L46 27L46 28L48 28L48 25L50 25L50 26L51 26L51 25L50 25L50 24L51 24L51 23L50 23L50 22L47 22L47 21L46 21L46 18L47 18L47 20L48 20L48 18L47 18L47 17L48 17L48 16L49 16L49 15L46 15L46 16L42 16L42 15L45 15L45 14L42 14L42 10L40 10L40 11L39 11L39 9L42 9L42 6L41 6L41 5L40 5L40 4L39 4L39 2L38 2L38 3L37 3L37 2L36 2L36 1L35 1L35 3L32 3L32 4L31 4L31 3L30 3L30 2L31 2L31 1L30 1L30 2L29 2L29 1L28 1L28 2L27 2L27 3L28 3L28 4L31 4L31 8L33 8L33 7L34 7L34 8L35 8L35 9L33 9L33 11L34 11L34 12L35 12L35 13L33 13L33 12L31 12L31 14L32 14L32 13L33 13L33 14L35 14L35 13L36 13L36 12L37 12L37 10L36 10L36 12L35 12L35 11L34 11L34 10L35 10L35 9L36 9L36 8L37 8L37 7L38 7L38 8L39 8L39 9L38 9L38 11L39 11L39 12L38 12L38 14L37 14L37 15L36 15L36 16L35 16L35 15L34 15L34 16L35 16L35 17L34 17L34 18L32 18L32 17L33 17L33 16L30 16L30 15L26 15L26 16L25 16L25 17L26 17L26 18L28 18L28 20L27 20L27 19L26 19L26 20L27 20L27 21L25 21L25 22L26 22L26 23L25 23L25 24L24 24L24 23L23 23L23 22L24 22L24 21L23 21L23 20L25 20L25 18L24 18L24 19L23 19L23 18L21 18L21 17L20 17L20 16L21 16L21 15L18 15L18 13L19 13L19 14L22 14L22 15L23 15L23 16L22 16L22 17L24 17L24 15L25 15L25 14L28 14L28 13L29 13L29 14L30 14L30 13L29 13L29 12L30 12L30 11L29 11L29 10L28 10L28 11L29 11L29 12L28 12L28 13L25 13L25 12L27 12L27 11L26 11L26 10L27 10L27 9L26 9L26 6L25 6L25 4L26 4L26 3L25 3L25 4L24 4L24 5L22 5L22 6L21 6L21 7L20 7L20 6L19 6L19 7L18 7L18 8L16 8L16 6L15 6L15 5L16 5L16 4L15 4L15 1ZM18 1L18 2L19 2L19 1ZM25 1L25 2L26 2L26 1ZM32 1L32 2L34 2L34 1ZM46 1L46 2L47 2L47 1ZM11 2L11 3L12 3L12 4L13 4L13 3L12 3L12 2ZM28 2L28 3L29 3L29 2ZM8 3L8 4L9 4L9 3ZM36 3L36 5L35 5L35 6L34 6L34 7L35 7L35 6L36 6L36 7L37 7L37 6L36 6L36 5L38 5L38 4L37 4L37 3ZM8 5L8 7L9 7L9 5ZM27 5L27 8L30 8L30 5ZM14 6L14 7L15 7L15 6ZM22 6L22 8L23 8L23 9L21 9L21 8L20 8L20 9L19 9L19 8L18 8L18 9L17 9L17 10L16 10L16 11L18 11L18 9L19 9L19 10L20 10L20 13L22 13L22 12L21 12L21 11L22 11L22 10L23 10L23 12L25 12L25 11L24 11L24 10L25 10L25 8L24 8L24 7L25 7L25 6L24 6L24 7L23 7L23 6ZM28 6L28 7L29 7L29 6ZM32 6L32 7L33 7L33 6ZM38 6L38 7L39 7L39 6ZM40 6L40 8L41 8L41 6ZM15 8L15 9L16 9L16 8ZM43 8L43 9L45 9L45 8ZM53 8L53 9L54 9L54 8ZM55 8L55 10L57 10L57 9L56 9L56 8ZM1 9L1 10L2 10L2 11L4 11L4 12L3 12L3 13L2 13L2 14L3 14L3 16L1 16L1 17L3 17L3 20L4 20L4 18L7 18L7 19L6 19L6 20L7 20L7 21L5 21L5 22L4 22L4 21L2 21L2 20L1 20L1 23L3 23L3 22L4 22L4 23L6 23L6 24L5 24L5 25L4 25L4 24L3 24L3 25L4 25L4 26L5 26L5 25L6 25L6 26L8 26L8 25L6 25L6 24L8 24L8 22L9 22L9 20L10 20L10 18L7 18L7 17L4 17L4 14L3 14L3 13L4 13L4 12L5 12L5 11L6 11L6 12L7 12L7 11L6 11L6 10L5 10L5 9L4 9L4 10L3 10L3 9ZM20 9L20 10L21 10L21 9ZM31 9L31 10L32 10L32 9ZM43 10L43 12L44 12L44 13L45 13L45 12L46 12L46 14L47 14L47 13L49 13L49 12L47 12L47 11L44 11L44 10ZM48 10L48 11L50 11L50 10ZM53 10L53 11L52 11L52 12L53 12L53 11L54 11L54 12L56 12L56 11L54 11L54 10ZM15 12L15 13L18 13L18 12ZM13 13L13 14L14 14L14 15L16 15L16 17L17 17L17 18L16 18L16 19L18 19L18 21L19 21L19 22L18 22L18 23L17 23L17 25L19 25L19 26L18 26L18 27L17 27L17 28L16 28L16 27L14 27L14 25L16 25L16 23L15 23L15 22L16 22L16 21L15 21L15 22L14 22L14 24L13 24L13 23L11 23L11 24L10 24L10 25L11 25L11 24L12 24L12 25L13 25L13 27L14 27L14 28L15 28L15 29L13 29L13 32L12 32L12 33L13 33L13 35L15 35L15 37L16 37L16 36L17 36L17 35L16 35L16 33L17 33L17 32L16 32L16 33L15 33L15 32L14 32L14 31L15 31L15 29L17 29L17 30L16 30L16 31L17 31L17 30L19 30L19 32L18 32L18 33L19 33L19 34L18 34L18 35L20 35L20 33L21 33L21 35L22 35L22 34L23 34L23 36L24 36L24 37L22 37L22 36L21 36L21 37L22 37L22 38L21 38L21 39L22 39L22 38L24 38L24 37L25 37L25 36L24 36L24 34L25 34L25 35L27 35L27 34L25 34L25 31L30 31L30 32L26 32L26 33L30 33L30 32L33 32L33 34L34 34L34 35L33 35L33 38L34 38L34 40L30 40L30 41L32 41L32 42L28 42L28 41L29 41L29 39L31 39L31 38L32 38L32 35L30 35L30 34L29 34L29 35L30 35L30 36L29 36L29 37L28 37L28 36L27 36L27 37L26 37L26 38L25 38L25 40L24 40L24 39L23 39L23 40L24 40L24 41L21 41L21 40L20 40L20 41L21 41L21 42L20 42L20 43L22 43L22 42L23 42L23 43L24 43L24 42L26 42L26 43L27 43L27 42L28 42L28 45L27 45L27 46L26 46L26 47L27 47L27 46L28 46L28 47L31 47L31 48L33 48L33 49L32 49L32 50L34 50L34 49L37 49L37 48L38 48L38 47L37 47L37 46L38 46L38 44L36 44L36 43L37 43L37 42L38 42L38 41L37 41L37 40L36 40L36 39L38 39L38 40L39 40L39 44L40 44L40 43L41 43L41 42L43 42L43 41L44 41L44 42L45 42L45 41L46 41L46 39L47 39L47 38L46 38L46 39L44 39L44 40L43 40L43 39L42 39L42 38L43 38L43 37L44 37L44 38L45 38L45 37L47 37L47 36L45 36L45 37L44 37L44 34L46 34L46 33L44 33L44 32L45 32L45 31L44 31L44 32L43 32L43 31L42 31L42 30L41 30L41 29L39 29L39 31L40 31L40 32L39 32L39 34L37 34L37 32L38 32L38 31L37 31L37 30L38 30L38 29L37 29L37 28L38 28L38 27L39 27L39 28L40 28L40 27L39 27L39 26L40 26L40 25L39 25L39 26L38 26L38 25L37 25L37 24L36 24L36 23L37 23L37 22L38 22L38 19L40 19L40 20L39 20L39 23L38 23L38 24L40 24L40 20L41 20L41 18L43 18L43 19L42 19L42 20L45 20L45 19L44 19L44 17L41 17L41 18L37 18L37 17L38 17L38 15L37 15L37 16L36 16L36 17L35 17L35 18L34 18L34 19L32 19L32 18L31 18L31 17L29 17L29 18L31 18L31 19L30 19L30 20L29 20L29 22L31 22L31 23L27 23L27 24L32 24L32 23L34 23L34 24L36 24L36 25L35 25L35 27L34 27L34 25L33 25L33 27L32 27L32 28L31 28L31 26L32 26L32 25L28 25L28 26L27 26L27 25L26 25L26 24L25 24L25 25L23 25L23 26L22 26L22 25L21 25L21 24L23 24L23 23L22 23L22 22L23 22L23 21L19 21L19 19L21 19L21 20L22 20L22 19L21 19L21 18L20 18L20 17L19 17L19 16L18 16L18 17L17 17L17 14L14 14L14 13ZM23 13L23 14L25 14L25 13ZM39 13L39 14L41 14L41 15L40 15L40 16L39 16L39 17L40 17L40 16L41 16L41 15L42 15L42 14L41 14L41 13ZM51 13L51 14L52 14L52 13ZM26 16L26 17L28 17L28 16ZM12 17L12 18L13 18L13 17ZM18 17L18 19L19 19L19 17ZM45 17L45 18L46 18L46 17ZM35 18L35 19L34 19L34 21L33 21L33 20L32 20L32 21L33 21L33 22L35 22L35 23L36 23L36 22L37 22L37 21L36 21L36 20L37 20L37 18ZM49 18L49 19L50 19L50 18ZM56 19L56 20L57 20L57 19ZM27 21L27 22L28 22L28 21ZM41 21L41 23L42 23L42 24L43 24L43 25L41 25L41 26L43 26L43 25L44 25L44 24L43 24L43 23L42 23L42 22L43 22L43 21ZM44 21L44 23L45 23L45 25L48 25L48 24L50 24L50 23L47 23L47 22L45 22L45 21ZM6 22L6 23L7 23L7 22ZM19 22L19 23L18 23L18 24L19 24L19 23L20 23L20 22ZM46 23L46 24L47 24L47 23ZM55 23L55 24L56 24L56 23ZM20 25L20 28L21 28L21 29L19 29L19 30L21 30L21 31L20 31L20 32L21 32L21 31L22 31L22 33L24 33L24 32L23 32L23 31L25 31L25 30L26 30L26 27L24 27L24 26L23 26L23 29L22 29L22 28L21 28L21 27L22 27L22 26L21 26L21 25ZM25 25L25 26L26 26L26 25ZM36 26L36 28L35 28L35 29L33 29L33 28L34 28L34 27L33 27L33 28L32 28L32 29L33 29L33 30L31 30L31 31L33 31L33 30L35 30L35 29L36 29L36 30L37 30L37 29L36 29L36 28L37 28L37 26ZM46 26L46 27L47 27L47 26ZM5 27L5 30L8 30L8 27ZM27 27L27 30L30 30L30 27ZM49 27L49 30L52 30L52 27ZM3 28L3 29L4 29L4 28ZM6 28L6 29L7 29L7 28ZM17 28L17 29L18 29L18 28ZM28 28L28 29L29 29L29 28ZM50 28L50 29L51 29L51 28ZM54 28L54 29L53 29L53 31L52 31L52 32L53 32L53 31L54 31L54 29L55 29L55 28ZM10 29L10 30L11 30L11 29ZM21 29L21 30L22 30L22 31L23 31L23 30L25 30L25 29L23 29L23 30L22 30L22 29ZM40 30L40 31L41 31L41 30ZM46 30L46 31L47 31L47 30ZM3 31L3 32L4 32L4 33L5 33L5 31ZM34 31L34 32L35 32L35 33L34 33L34 34L36 34L36 32L37 32L37 31L36 31L36 32L35 32L35 31ZM40 32L40 34L39 34L39 36L40 36L40 38L39 38L39 37L38 37L38 39L39 39L39 40L40 40L40 42L41 42L41 40L40 40L40 39L41 39L41 37L42 37L42 36L40 36L40 35L41 35L41 34L42 34L42 35L43 35L43 34L44 34L44 33L43 33L43 32ZM10 33L10 35L12 35L12 34L11 34L11 33ZM31 33L31 34L32 34L32 33ZM42 33L42 34L43 34L43 33ZM49 33L49 35L50 35L50 33ZM8 34L8 35L9 35L9 34ZM35 35L35 36L34 36L34 38L35 38L35 37L36 37L36 36L37 36L37 35ZM30 36L30 38L31 38L31 36ZM27 37L27 38L28 38L28 37ZM6 38L6 39L7 39L7 38ZM27 39L27 41L26 41L26 42L27 42L27 41L28 41L28 39ZM35 40L35 41L36 41L36 42L37 42L37 41L36 41L36 40ZM44 40L44 41L45 41L45 40ZM1 41L1 42L2 42L2 41ZM33 41L33 42L34 42L34 44L32 44L32 43L29 43L29 44L30 44L30 45L28 45L28 46L30 46L30 45L31 45L31 44L32 44L32 45L33 45L33 46L36 46L36 45L35 45L35 42L34 42L34 41ZM10 42L10 45L11 45L11 43L12 43L12 44L13 44L13 43L12 43L12 42ZM17 42L17 43L16 43L16 44L14 44L14 45L18 45L18 47L19 47L19 45L22 45L22 44L19 44L19 45L18 45L18 44L17 44L17 43L18 43L18 42ZM23 44L23 45L24 45L24 44ZM25 44L25 45L26 45L26 44ZM54 44L54 45L56 45L56 44ZM6 45L6 46L7 46L7 47L8 47L8 46L7 46L7 45ZM39 45L39 46L41 46L41 45ZM42 45L42 46L43 46L43 45ZM20 46L20 47L21 47L21 48L20 48L20 49L19 49L19 48L18 48L18 49L17 49L17 50L18 50L18 51L19 51L19 50L20 50L20 49L21 49L21 48L23 48L23 47L22 47L22 46ZM31 46L31 47L32 47L32 46ZM34 47L34 48L37 48L37 47ZM52 47L52 48L53 48L53 47ZM10 48L10 49L9 49L9 51L10 51L10 50L11 50L11 52L13 52L13 51L12 51L12 50L11 50L11 49L14 49L14 48ZM39 48L39 49L40 49L40 48ZM18 49L18 50L19 50L19 49ZM25 49L25 53L26 53L26 49ZM27 49L27 52L30 52L30 49ZM49 49L49 52L52 52L52 49ZM28 50L28 51L29 51L29 50ZM50 50L50 51L51 51L51 50ZM32 51L32 52L33 52L33 51ZM39 51L39 52L40 52L40 51ZM46 52L46 53L45 53L45 54L44 54L44 53L43 53L43 54L42 54L42 55L46 55L46 56L47 56L47 55L46 55L46 54L47 54L47 53L48 53L48 52ZM29 53L29 54L30 54L30 53ZM34 53L34 54L35 54L35 55L36 55L36 56L37 56L37 55L36 55L36 54L37 54L37 53ZM49 53L49 54L51 54L51 53ZM27 55L27 56L28 56L28 55ZM0 0L0 7L7 7L7 0ZM1 1L1 6L6 6L6 1ZM2 2L2 5L5 5L5 2ZM50 0L50 7L57 7L57 0ZM51 1L51 6L56 6L56 1ZM52 2L52 5L55 5L55 2ZM0 50L0 57L7 57L7 50ZM1 51L1 56L6 56L6 51ZM2 52L2 55L5 55L5 52Z" fill="#000000"/></g></g></svg>
