<?xml version="1.0" encoding="UTF-8"?>
<svg xmlns="http://www.w3.org/2000/svg" version="1.1" width="300" height="300" viewBox="0 0 300 300"><rect x="0" y="0" width="300" height="300" fill="#ffffff"/><g transform="scale(4.918)"><g transform="translate(2,2)"><path fill-rule="evenodd" d="M10 0L10 1L12 1L12 0ZM13 0L13 3L15 3L15 4L12 4L12 2L10 2L10 3L11 3L11 4L12 4L12 5L11 5L11 6L10 6L10 7L11 7L11 6L12 6L12 8L11 8L11 9L9 9L9 8L6 8L6 9L8 9L8 10L5 10L5 8L0 8L0 10L1 10L1 12L0 12L0 16L2 16L2 18L1 18L1 17L0 17L0 21L1 21L1 22L4 22L4 23L3 23L3 24L2 24L2 23L1 23L1 24L0 24L0 26L2 26L2 27L1 27L1 29L2 29L2 30L0 30L0 32L1 32L1 34L0 34L0 35L1 35L1 36L4 36L4 35L7 35L7 34L2 34L2 33L3 33L3 32L4 32L4 33L5 33L5 32L6 32L6 33L8 33L8 32L10 32L10 31L11 31L11 34L8 34L8 36L9 36L9 35L11 35L11 34L14 34L14 35L16 35L16 33L19 33L19 32L20 32L20 33L21 33L21 34L24 34L24 35L26 35L26 37L27 37L27 38L26 38L26 40L25 40L25 39L23 39L23 38L25 38L25 36L24 36L24 37L22 37L22 36L21 36L21 37L22 37L22 38L21 38L21 40L22 40L22 39L23 39L23 41L22 41L22 43L23 43L23 42L24 42L24 43L26 43L26 44L25 44L25 45L23 45L23 46L25 46L25 45L26 45L26 44L27 44L27 43L28 43L28 45L27 45L27 46L26 46L26 47L27 47L27 48L25 48L25 47L23 47L23 48L25 48L25 49L22 49L22 50L21 50L21 52L23 52L23 51L24 51L24 52L25 52L25 51L24 51L24 50L25 50L25 49L26 49L26 53L19 53L19 52L20 52L20 51L19 51L19 50L20 50L20 49L21 49L21 48L20 48L20 49L19 49L19 48L18 48L18 46L19 46L19 47L20 47L20 46L19 46L19 45L21 45L21 47L22 47L22 44L19 44L19 45L18 45L18 44L17 44L17 43L18 43L18 42L19 42L19 43L21 43L21 42L20 42L20 41L19 41L19 39L20 39L20 38L18 38L18 39L17 39L17 37L20 37L20 34L19 34L19 35L17 35L17 37L16 37L16 36L15 36L15 37L16 37L16 38L15 38L15 39L14 39L14 42L15 42L15 43L13 43L13 47L10 47L10 46L11 46L11 45L12 45L12 44L11 44L11 45L10 45L10 46L9 46L9 45L7 45L7 44L8 44L8 43L10 43L10 41L11 41L11 40L13 40L13 37L14 37L14 36L12 36L12 37L7 37L7 36L5 36L5 38L6 38L6 39L7 39L7 38L8 38L8 39L9 39L9 40L10 40L10 41L9 41L9 42L8 42L8 41L7 41L7 40L5 40L5 41L7 41L7 42L5 42L5 43L3 43L3 44L4 44L4 45L2 45L2 44L0 44L0 45L1 45L1 46L0 46L0 48L5 48L5 47L7 47L7 48L6 48L6 49L8 49L8 51L9 51L9 52L8 52L8 57L11 57L11 56L12 56L12 57L14 57L14 55L15 55L15 57L21 57L21 55L23 55L23 54L25 54L25 55L24 55L24 57L26 57L26 56L28 56L28 55L26 55L26 54L27 54L27 53L28 53L28 54L29 54L29 53L30 53L30 55L29 55L29 57L30 57L30 56L34 56L34 57L38 57L38 52L39 52L39 55L40 55L40 56L41 56L41 57L44 57L44 55L42 55L42 54L43 54L43 53L44 53L44 54L45 54L45 57L46 57L46 56L47 56L47 55L50 55L50 53L51 53L51 54L53 54L53 55L51 55L51 56L50 56L50 57L52 57L52 56L53 56L53 57L56 57L56 56L55 56L55 53L54 53L54 54L53 54L53 52L55 52L55 51L56 51L56 52L57 52L57 51L56 51L56 50L57 50L57 49L56 49L56 50L55 50L55 49L54 49L54 50L53 50L53 47L52 47L52 45L54 45L54 46L55 46L55 47L54 47L54 48L55 48L55 47L56 47L56 48L57 48L57 47L56 47L56 46L57 46L57 44L55 44L55 43L56 43L56 42L55 42L55 41L54 41L54 40L56 40L56 39L55 39L55 38L54 38L54 40L53 40L53 38L51 38L51 37L52 37L52 36L56 36L56 37L57 37L57 36L56 36L56 34L57 34L57 33L53 33L53 32L52 32L52 31L54 31L54 32L57 32L57 31L55 31L55 30L57 30L57 28L56 28L56 27L53 27L53 25L54 25L54 26L57 26L57 25L54 25L54 24L55 24L55 23L56 23L56 24L57 24L57 23L56 23L56 22L57 22L57 21L54 21L54 20L57 20L57 19L56 19L56 18L57 18L57 17L56 17L56 16L57 16L57 15L55 15L55 14L57 14L57 13L54 13L54 15L53 15L53 17L54 17L54 16L55 16L55 18L53 18L53 19L52 19L52 18L50 18L50 16L52 16L52 15L51 15L51 14L52 14L52 13L51 13L51 12L50 12L50 11L52 11L52 12L53 12L53 11L54 11L54 12L55 12L55 11L56 11L56 8L55 8L55 11L54 11L54 10L52 10L52 8L51 8L51 10L50 10L50 8L49 8L49 6L48 6L48 8L49 8L49 9L48 9L48 10L50 10L50 11L49 11L49 12L50 12L50 13L51 13L51 14L49 14L49 13L47 13L47 14L46 14L46 12L45 12L45 11L46 11L46 10L45 10L45 9L44 9L44 8L43 8L43 9L41 9L41 10L40 10L40 11L37 11L37 10L38 10L38 9L39 9L39 8L40 8L40 7L41 7L41 8L42 8L42 7L43 7L43 6L42 6L42 5L43 5L43 3L47 3L47 5L46 5L46 7L45 7L45 6L44 6L44 7L45 7L45 8L47 8L47 5L48 5L48 0L46 0L46 1L45 1L45 0L44 0L44 1L45 1L45 2L42 2L42 1L43 1L43 0L42 0L42 1L41 1L41 2L40 2L40 1L38 1L38 0L37 0L37 1L33 1L33 2L32 2L32 0L28 0L28 1L25 1L25 0L21 0L21 1L23 1L23 2L21 2L21 3L23 3L23 4L21 4L21 6L20 6L20 5L17 5L17 4L20 4L20 3L17 3L17 4L16 4L16 2L20 2L20 0L19 0L19 1L16 1L16 2L14 2L14 1L15 1L15 0ZM8 1L8 2L9 2L9 1ZM24 1L24 2L23 2L23 3L24 3L24 4L23 4L23 7L22 7L22 6L21 6L21 7L20 7L20 6L19 6L19 8L22 8L22 9L20 9L20 11L19 11L19 9L17 9L17 8L18 8L18 6L17 6L17 8L16 8L16 6L15 6L15 8L14 8L14 5L13 5L13 8L14 8L14 9L13 9L13 11L14 11L14 12L13 12L13 13L12 13L12 14L11 14L11 12L12 12L12 9L11 9L11 10L8 10L8 11L10 11L10 12L9 12L9 13L8 13L8 12L7 12L7 11L6 11L6 12L4 12L4 11L3 11L3 10L2 10L2 12L1 12L1 15L2 15L2 13L3 13L3 14L5 14L5 13L6 13L6 14L7 14L7 15L6 15L6 16L7 16L7 15L8 15L8 17L5 17L5 15L4 15L4 16L3 16L3 17L4 17L4 18L2 18L2 19L1 19L1 20L3 20L3 21L4 21L4 20L5 20L5 24L4 24L4 25L3 25L3 26L4 26L4 25L5 25L5 26L7 26L7 25L9 25L9 23L10 23L10 22L11 22L11 23L14 23L14 24L12 24L12 26L13 26L13 25L14 25L14 24L15 24L15 27L18 27L18 26L19 26L19 27L20 27L20 28L21 28L21 29L19 29L19 30L18 30L18 31L20 31L20 32L21 32L21 33L25 33L25 34L26 34L26 35L27 35L27 37L28 37L28 38L27 38L27 39L29 39L29 40L28 40L28 41L27 41L27 42L26 42L26 41L25 41L25 42L26 42L26 43L27 43L27 42L29 42L29 43L30 43L30 44L29 44L29 45L28 45L28 46L27 46L27 47L28 47L28 48L32 48L32 50L31 50L31 52L32 52L32 54L37 54L37 53L36 53L36 52L38 52L38 51L36 51L36 50L35 50L35 49L36 49L36 48L37 48L37 47L38 47L38 49L37 49L37 50L40 50L40 51L39 51L39 52L40 52L40 55L41 55L41 54L42 54L42 53L43 53L43 52L42 52L42 51L44 51L44 53L45 53L45 54L47 54L47 53L48 53L48 52L47 52L47 51L48 51L48 48L50 48L50 47L51 47L51 48L52 48L52 47L51 47L51 46L50 46L50 47L49 47L49 46L48 46L48 44L47 44L47 45L46 45L46 46L48 46L48 47L46 47L46 48L47 48L47 49L46 49L46 50L45 50L45 48L42 48L42 47L43 47L43 46L44 46L44 45L45 45L45 44L44 44L44 41L45 41L45 42L46 42L46 43L48 43L48 42L47 42L47 41L48 41L48 40L47 40L47 41L46 41L46 40L44 40L44 39L45 39L45 38L47 38L47 39L48 39L48 38L49 38L49 36L50 36L50 37L51 37L51 36L52 36L52 34L53 34L53 33L51 33L51 32L50 32L50 33L49 33L49 31L48 31L48 28L47 28L47 27L48 27L48 25L49 25L49 24L50 24L50 26L51 26L51 25L53 25L53 24L51 24L51 23L53 23L53 22L51 22L51 20L52 20L52 21L53 21L53 20L54 20L54 19L53 19L53 20L52 20L52 19L50 19L50 18L48 18L48 17L49 17L49 16L50 16L50 15L46 15L46 16L48 16L48 17L46 17L46 18L44 18L44 17L45 17L45 16L44 16L44 15L45 15L45 12L44 12L44 13L43 13L43 14L42 14L42 11L43 11L43 10L44 10L44 11L45 11L45 10L44 10L44 9L43 9L43 10L41 10L41 11L40 11L40 12L38 12L38 13L36 13L36 15L34 15L34 16L37 16L37 17L36 17L36 18L39 18L39 17L38 17L38 16L40 16L40 17L41 17L41 18L40 18L40 19L38 19L38 22L37 22L37 21L36 21L36 20L37 20L37 19L34 19L34 18L35 18L35 17L34 17L34 18L32 18L32 17L33 17L33 16L32 16L32 15L33 15L33 14L35 14L35 13L33 13L33 12L31 12L31 13L33 13L33 14L32 14L32 15L31 15L31 14L30 14L30 13L29 13L29 12L28 12L28 13L25 13L25 12L27 12L27 11L26 11L26 10L27 10L27 9L25 9L25 10L24 10L24 12L23 12L23 11L22 11L22 9L24 9L24 4L25 4L25 7L26 7L26 4L29 4L29 3L26 3L26 4L25 4L25 3L24 3L24 2L25 2L25 1ZM28 1L28 2L31 2L31 1ZM37 1L37 2L34 2L34 3L35 3L35 4L34 4L34 5L33 5L33 3L32 3L32 4L31 4L31 3L30 3L30 4L31 4L31 7L32 7L32 10L28 10L28 11L32 11L32 10L33 10L33 11L34 11L34 12L37 12L37 11L35 11L35 10L37 10L37 9L38 9L38 6L39 6L39 7L40 7L40 6L41 6L41 7L42 7L42 6L41 6L41 3L40 3L40 5L39 5L39 2L38 2L38 1ZM46 1L46 2L47 2L47 1ZM37 2L37 3L36 3L36 5L34 5L34 7L33 7L33 6L32 6L32 7L33 7L33 8L34 8L34 7L35 7L35 9L37 9L37 8L36 8L36 7L37 7L37 6L38 6L38 2ZM8 3L8 4L9 4L9 3ZM15 4L15 5L16 5L16 4ZM44 4L44 5L45 5L45 4ZM8 5L8 7L9 7L9 5ZM27 5L27 8L30 8L30 5ZM36 5L36 6L35 6L35 7L36 7L36 6L37 6L37 5ZM28 6L28 7L29 7L29 6ZM15 8L15 9L14 9L14 10L15 10L15 9L16 9L16 8ZM53 8L53 9L54 9L54 8ZM17 10L17 11L18 11L18 10ZM15 11L15 12L16 12L16 13L15 13L15 14L16 14L16 13L18 13L18 14L17 14L17 15L18 15L18 16L17 16L17 17L19 17L19 18L18 18L18 19L17 19L17 20L18 20L18 21L17 21L17 25L21 25L21 21L22 21L22 22L23 22L23 23L24 23L24 24L26 24L26 26L25 26L25 25L24 25L24 27L22 27L22 26L23 26L23 25L22 25L22 26L21 26L21 28L24 28L24 27L26 27L26 30L25 30L25 29L22 29L22 31L21 31L21 30L20 30L20 31L21 31L21 32L22 32L22 31L23 31L23 32L25 32L25 31L29 31L29 32L27 32L27 33L29 33L29 36L28 36L28 37L29 37L29 39L31 39L31 38L32 38L32 34L33 34L33 35L34 35L34 36L35 36L35 34L36 34L36 35L37 35L37 34L38 34L38 35L39 35L39 34L38 34L38 33L40 33L40 32L45 32L45 31L42 31L42 30L44 30L44 28L45 28L45 30L46 30L46 31L47 31L47 32L48 32L48 31L47 31L47 30L46 30L46 29L47 29L47 28L46 28L46 27L47 27L47 26L45 26L45 25L44 25L44 24L42 24L42 25L41 25L41 27L42 27L42 28L43 28L43 29L42 29L42 30L41 30L41 29L39 29L39 30L37 30L37 28L38 28L38 25L39 25L39 24L41 24L41 23L40 23L40 22L39 22L39 24L38 24L38 25L37 25L37 24L36 24L36 23L37 23L37 22L36 22L36 23L35 23L35 22L33 22L33 21L32 21L32 20L33 20L33 19L32 19L32 18L31 18L31 17L32 17L32 16L31 16L31 15L30 15L30 14L29 14L29 13L28 13L28 14L27 14L27 16L25 16L25 15L26 15L26 14L25 14L25 13L22 13L22 12L21 12L21 11L20 11L20 12L19 12L19 13L18 13L18 12L16 12L16 11ZM6 12L6 13L7 13L7 14L8 14L8 15L9 15L9 14L10 14L10 13L9 13L9 14L8 14L8 13L7 13L7 12ZM13 13L13 14L12 14L12 15L11 15L11 16L9 16L9 17L10 17L10 18L5 18L5 19L8 19L8 20L9 20L9 21L11 21L11 20L13 20L13 21L15 21L15 22L14 22L14 23L15 23L15 24L16 24L16 23L15 23L15 22L16 22L16 21L15 21L15 20L16 20L16 18L13 18L13 17L14 17L14 15L13 15L13 14L14 14L14 13ZM19 13L19 14L18 14L18 15L19 15L19 17L20 17L20 18L19 18L19 19L18 19L18 20L19 20L19 21L18 21L18 22L19 22L19 23L20 23L20 22L19 22L19 21L21 21L21 20L22 20L22 21L23 21L23 22L24 22L24 21L25 21L25 22L27 22L27 23L26 23L26 24L28 24L28 26L29 26L29 24L28 24L28 22L27 22L27 21L25 21L25 19L26 19L26 20L28 20L28 21L29 21L29 22L30 22L30 25L31 25L31 24L32 24L32 25L33 25L33 26L32 26L32 27L31 27L31 28L32 28L32 29L31 29L31 31L32 31L32 29L33 29L33 30L36 30L36 29L33 29L33 28L34 28L34 27L33 27L33 26L35 26L35 28L36 28L36 27L37 27L37 25L36 25L36 24L35 24L35 23L34 23L34 25L33 25L33 23L31 23L31 22L30 22L30 20L28 20L28 19L31 19L31 18L27 18L27 17L31 17L31 16L30 16L30 15L28 15L28 16L27 16L27 17L25 17L25 16L24 16L24 15L25 15L25 14L23 14L23 16L22 16L22 14L21 14L21 13ZM37 14L37 16L38 16L38 15L39 15L39 14ZM40 14L40 16L41 16L41 17L42 17L42 18L41 18L41 19L40 19L40 20L39 20L39 21L40 21L40 20L41 20L41 19L42 19L42 20L46 20L46 21L47 21L47 20L49 20L49 21L48 21L48 23L47 23L47 22L45 22L45 21L44 21L44 23L47 23L47 24L46 24L46 25L48 25L48 23L49 23L49 22L50 22L50 23L51 23L51 22L50 22L50 19L47 19L47 18L46 18L46 19L44 19L44 18L43 18L43 17L44 17L44 16L43 16L43 15L44 15L44 14L43 14L43 15L42 15L42 14ZM15 15L15 17L16 17L16 15ZM20 15L20 16L21 16L21 15ZM11 16L11 18L10 18L10 19L9 19L9 20L10 20L10 19L11 19L11 18L12 18L12 17L13 17L13 16ZM21 17L21 18L23 18L23 21L24 21L24 18L25 18L25 17ZM42 18L42 19L43 19L43 18ZM13 19L13 20L14 20L14 19ZM46 19L46 20L47 20L47 19ZM6 20L6 21L7 21L7 22L6 22L6 23L7 23L7 24L5 24L5 25L7 25L7 24L8 24L8 21L7 21L7 20ZM41 21L41 22L43 22L43 21ZM54 22L54 23L55 23L55 22ZM10 25L10 26L11 26L11 25ZM43 25L43 26L42 26L42 27L44 27L44 25ZM2 27L2 28L3 28L3 27ZM5 27L5 30L8 30L8 27ZM10 27L10 29L9 29L9 31L10 31L10 29L11 29L11 28L12 28L12 29L13 29L13 30L11 30L11 31L13 31L13 32L14 32L14 34L15 34L15 30L14 30L14 29L16 29L16 31L17 31L17 29L18 29L18 28L17 28L17 29L16 29L16 28L14 28L14 27ZM27 27L27 30L30 30L30 27ZM32 27L32 28L33 28L33 27ZM39 27L39 28L40 28L40 27ZM49 27L49 30L52 30L52 27ZM6 28L6 29L7 29L7 28ZM13 28L13 29L14 29L14 28ZM28 28L28 29L29 29L29 28ZM50 28L50 29L51 29L51 28ZM54 28L54 29L53 29L53 30L55 30L55 28ZM3 30L3 31L4 31L4 32L5 32L5 31L4 31L4 30ZM13 30L13 31L14 31L14 30ZM40 30L40 31L36 31L36 32L35 32L35 31L34 31L34 32L31 32L31 33L30 33L30 34L32 34L32 33L33 33L33 34L35 34L35 33L36 33L36 32L40 32L40 31L41 31L41 30ZM1 31L1 32L2 32L2 31ZM6 31L6 32L7 32L7 31ZM34 32L34 33L35 33L35 32ZM41 33L41 34L45 34L45 36L48 36L48 35L50 35L50 36L51 36L51 35L50 35L50 34L48 34L48 33L47 33L47 34L45 34L45 33ZM1 34L1 35L2 35L2 34ZM54 34L54 35L55 35L55 34ZM30 35L30 38L31 38L31 35ZM40 35L40 36L36 36L36 37L35 37L35 38L36 38L36 39L37 39L37 38L38 38L38 37L39 37L39 38L40 38L40 36L41 36L41 37L42 37L42 38L43 38L43 37L44 37L44 38L45 38L45 37L44 37L44 35ZM0 37L0 38L2 38L2 39L1 39L1 42L4 42L4 41L3 41L3 40L2 40L2 39L4 39L4 38L2 38L2 37ZM6 37L6 38L7 38L7 37ZM9 38L9 39L10 39L10 38ZM33 38L33 39L32 39L32 40L30 40L30 43L32 43L32 42L33 42L33 44L34 44L34 42L33 42L33 41L32 41L32 40L33 40L33 39L34 39L34 38ZM50 38L50 39L49 39L49 41L51 41L51 42L50 42L50 43L51 43L51 44L49 44L49 45L51 45L51 44L53 44L53 43L54 43L54 41L51 41L51 38ZM15 39L15 40L16 40L16 39ZM38 39L38 40L39 40L39 41L40 41L40 40L41 40L41 39L40 39L40 40L39 40L39 39ZM42 39L42 40L43 40L43 41L41 41L41 42L37 42L37 40L34 40L34 41L36 41L36 44L35 44L35 46L33 46L33 45L32 45L32 44L30 44L30 46L29 46L29 47L31 47L31 46L32 46L32 48L33 48L33 49L35 49L35 48L36 48L36 47L37 47L37 46L38 46L38 45L37 45L37 43L38 43L38 44L39 44L39 48L41 48L41 49L40 49L40 50L44 50L44 49L42 49L42 48L41 48L41 47L42 47L42 46L43 46L43 45L44 45L44 44L43 44L43 41L44 41L44 40L43 40L43 39ZM12 41L12 42L13 42L13 41ZM15 41L15 42L16 42L16 43L17 43L17 42L18 42L18 41ZM31 41L31 42L32 42L32 41ZM7 42L7 43L6 43L6 44L7 44L7 43L8 43L8 42ZM41 42L41 43L42 43L42 42ZM51 42L51 43L53 43L53 42ZM15 44L15 45L16 45L16 46L15 46L15 47L14 47L14 49L12 49L12 48L10 48L10 47L8 47L8 49L12 49L12 50L11 50L11 52L12 52L12 51L13 51L13 52L14 52L14 51L15 51L15 53L16 53L16 54L15 54L15 55L16 55L16 56L17 56L17 53L18 53L18 54L19 54L19 55L20 55L20 54L19 54L19 53L18 53L18 52L19 52L19 51L18 51L18 50L19 50L19 49L15 49L15 48L17 48L17 46L18 46L18 45L16 45L16 44ZM40 44L40 45L41 45L41 46L42 46L42 45L43 45L43 44ZM54 44L54 45L55 45L55 46L56 46L56 45L55 45L55 44ZM4 45L4 46L3 46L3 47L5 47L5 45ZM6 45L6 46L7 46L7 45ZM1 46L1 47L2 47L2 46ZM35 46L35 47L33 47L33 48L35 48L35 47L36 47L36 46ZM27 49L27 52L30 52L30 49ZM49 49L49 52L52 52L52 49ZM15 50L15 51L16 51L16 52L17 52L17 50ZM22 50L22 51L23 51L23 50ZM28 50L28 51L29 51L29 50ZM33 50L33 51L32 51L32 52L34 52L34 53L35 53L35 52L36 52L36 51L35 51L35 50ZM46 50L46 51L47 51L47 50ZM50 50L50 51L51 51L51 50ZM34 51L34 52L35 52L35 51ZM40 51L40 52L41 52L41 51ZM46 52L46 53L47 53L47 52ZM10 53L10 54L9 54L9 55L10 55L10 56L11 56L11 54L12 54L12 55L13 55L13 53ZM48 56L48 57L49 57L49 56ZM0 0L0 7L7 7L7 0ZM1 1L1 6L6 6L6 1ZM2 2L2 5L5 5L5 2ZM50 0L50 7L57 7L57 0ZM51 1L51 6L56 6L56 1ZM52 2L52 5L55 5L55 2ZM0 50L0 57L7 57L7 50ZM1 51L1 56L6 56L6 51ZM2 52L2 55L5 55L5 52Z" fill="#000000"/></g></g></svg>
