<?xml version="1.0" encoding="UTF-8"?>
<svg xmlns="http://www.w3.org/2000/svg" version="1.1" width="300" height="300" viewBox="0 0 300 300"><rect x="0" y="0" width="300" height="300" fill="#ffffff"/><g transform="scale(4.918)"><g transform="translate(2,2)"><path fill-rule="evenodd" d="M8 0L8 1L9 1L9 2L8 2L8 5L11 5L11 3L12 3L12 5L13 5L13 3L15 3L15 1L16 1L16 0L14 0L14 2L13 2L13 3L12 3L12 2L11 2L11 3L9 3L9 2L10 2L10 1L13 1L13 0L10 0L10 1L9 1L9 0ZM21 0L21 2L22 2L22 1L23 1L23 0ZM24 0L24 1L25 1L25 2L24 2L24 3L23 3L23 4L22 4L22 3L21 3L21 5L20 5L20 4L19 4L19 3L18 3L18 2L17 2L17 3L18 3L18 5L15 5L15 6L14 6L14 7L13 7L13 6L12 6L12 7L11 7L11 6L10 6L10 8L12 8L12 9L13 9L13 12L11 12L11 10L10 10L10 9L9 9L9 8L8 8L8 9L7 9L7 8L6 8L6 9L7 9L7 10L6 10L6 11L5 11L5 9L4 9L4 8L0 8L0 11L1 11L1 13L3 13L3 14L0 14L0 15L4 15L4 16L3 16L3 18L4 18L4 20L3 20L3 19L2 19L2 18L1 18L1 17L0 17L0 20L1 20L1 19L2 19L2 20L3 20L3 21L0 21L0 22L1 22L1 23L0 23L0 24L1 24L1 25L0 25L0 29L1 29L1 30L0 30L0 33L1 33L1 35L2 35L2 36L6 36L6 37L4 37L4 39L3 39L3 38L2 38L2 39L1 39L1 41L0 41L0 42L1 42L1 43L0 43L0 45L1 45L1 46L0 46L0 48L5 48L5 47L8 47L8 48L6 48L6 49L8 49L8 50L10 50L10 49L11 49L11 51L9 51L9 53L8 53L8 57L12 57L12 56L13 56L13 57L14 57L14 55L11 55L11 51L12 51L12 49L13 49L13 50L14 50L14 51L15 51L15 52L17 52L17 54L16 54L16 53L14 53L14 52L12 52L12 53L13 53L13 54L15 54L15 56L17 56L17 57L18 57L18 55L17 55L17 54L19 54L19 55L20 55L20 57L24 57L24 56L25 56L25 55L24 55L24 56L21 56L21 55L22 55L22 54L21 54L21 55L20 55L20 53L22 53L22 52L23 52L23 54L25 54L25 53L24 53L24 52L25 52L25 51L26 51L26 54L28 54L28 53L33 53L33 54L31 54L31 56L27 56L27 55L26 55L26 56L27 56L27 57L31 57L31 56L33 56L33 55L34 55L34 57L35 57L35 55L36 55L36 56L37 56L37 55L39 55L39 57L41 57L41 56L43 56L43 54L45 54L45 57L46 57L46 54L47 54L47 55L50 55L50 56L47 56L47 57L51 57L51 55L50 55L50 54L49 54L49 53L55 53L55 54L53 54L53 55L52 55L52 57L53 57L53 55L55 55L55 54L56 54L56 53L57 53L57 51L56 51L56 49L57 49L57 48L56 48L56 47L57 47L57 43L56 43L56 42L54 42L54 43L56 43L56 44L53 44L53 46L50 46L50 42L53 42L53 40L55 40L55 39L53 39L53 38L54 38L54 37L53 37L53 36L54 36L54 35L55 35L55 36L56 36L56 37L55 37L55 38L56 38L56 39L57 39L57 38L56 38L56 37L57 37L57 33L56 33L56 32L54 32L54 30L53 30L53 28L54 28L54 29L55 29L55 26L57 26L57 25L56 25L56 24L57 24L57 21L56 21L56 20L54 20L54 22L53 22L53 23L56 23L56 24L55 24L55 26L54 26L54 24L53 24L53 25L52 25L52 21L53 21L53 19L55 19L55 16L56 16L56 18L57 18L57 15L54 15L54 18L53 18L53 17L52 17L52 16L53 16L53 14L54 14L54 13L53 13L53 14L51 14L51 13L50 13L50 12L49 12L49 14L50 14L50 16L48 16L48 17L46 17L46 15L44 15L44 14L45 14L45 13L46 13L46 12L47 12L47 11L48 11L48 10L49 10L49 11L50 11L50 10L49 10L49 9L50 9L50 8L48 8L48 7L49 7L49 6L48 6L48 7L47 7L47 5L48 5L48 0L46 0L46 1L47 1L47 2L46 2L46 3L47 3L47 5L46 5L46 7L47 7L47 9L48 9L48 10L46 10L46 11L45 11L45 9L46 9L46 8L45 8L45 6L44 6L44 5L42 5L42 4L43 4L43 3L42 3L42 2L44 2L44 3L45 3L45 0L44 0L44 1L43 1L43 0L42 0L42 2L41 2L41 3L42 3L42 4L41 4L41 5L40 5L40 3L39 3L39 4L37 4L37 2L38 2L38 1L37 1L37 0L35 0L35 1L34 1L34 2L33 2L33 0L32 0L32 1L31 1L31 0L27 0L27 1L26 1L26 0ZM40 0L40 1L41 1L41 0ZM19 1L19 2L20 2L20 1ZM27 1L27 2L26 2L26 4L24 4L24 6L23 6L23 5L22 5L22 6L21 6L21 7L20 7L20 6L19 6L19 7L20 7L20 8L21 8L21 9L19 9L19 8L18 8L18 6L17 6L17 7L16 7L16 6L15 6L15 7L14 7L14 8L13 8L13 9L14 9L14 11L15 11L15 12L17 12L17 13L15 13L15 14L16 14L16 15L13 15L13 14L14 14L14 13L13 13L13 14L12 14L12 15L11 15L11 17L10 17L10 18L9 18L9 20L11 20L11 21L10 21L10 22L9 22L9 21L8 21L8 20L7 20L7 19L6 19L6 20L7 20L7 21L6 21L6 22L5 22L5 20L4 20L4 21L3 21L3 23L2 23L2 25L3 25L3 24L5 24L5 23L6 23L6 24L7 24L7 25L6 25L6 26L9 26L9 28L10 28L10 29L9 29L9 30L10 30L10 31L12 31L12 30L13 30L13 29L15 29L15 31L14 31L14 34L13 34L13 36L15 36L15 38L18 38L18 40L17 40L17 39L16 39L16 40L15 40L15 39L14 39L14 38L12 38L12 37L11 37L11 36L12 36L12 34L11 34L11 33L13 33L13 32L9 32L9 31L6 31L6 32L4 32L4 31L3 31L3 30L4 30L4 29L2 29L2 30L1 30L1 31L2 31L2 32L4 32L4 33L2 33L2 35L6 35L6 36L7 36L7 35L8 35L8 38L7 38L7 37L6 37L6 38L7 38L7 39L6 39L6 40L5 40L5 39L4 39L4 40L3 40L3 39L2 39L2 40L3 40L3 43L1 43L1 44L2 44L2 46L1 46L1 47L2 47L2 46L3 46L3 47L5 47L5 44L7 44L7 43L5 43L5 41L6 41L6 42L7 42L7 41L8 41L8 42L9 42L9 43L8 43L8 44L9 44L9 45L6 45L6 46L9 46L9 49L10 49L10 46L11 46L11 47L12 47L12 48L11 48L11 49L12 49L12 48L13 48L13 49L15 49L15 48L16 48L16 47L14 47L14 48L13 48L13 44L14 44L14 40L15 40L15 41L16 41L16 40L17 40L17 41L19 41L19 42L21 42L21 44L22 44L22 46L21 46L21 45L20 45L20 43L18 43L18 42L17 42L17 43L16 43L16 44L15 44L15 46L17 46L17 45L19 45L19 46L18 46L18 47L17 47L17 48L18 48L18 47L19 47L19 46L20 46L20 48L19 48L19 49L21 49L21 51L20 51L20 50L18 50L18 53L19 53L19 52L22 52L22 50L23 50L23 52L24 52L24 50L25 50L25 49L26 49L26 48L25 48L25 47L28 47L28 46L30 46L30 47L31 47L31 49L33 49L33 48L34 48L34 50L32 50L32 51L31 51L31 52L32 52L32 51L36 51L36 53L35 53L35 52L34 52L34 53L35 53L35 54L40 54L40 56L41 56L41 55L42 55L42 54L43 54L43 53L42 53L42 54L40 54L40 53L41 53L41 52L40 52L40 49L41 49L41 47L42 47L42 50L44 50L44 49L45 49L45 50L46 50L46 51L44 51L44 52L46 52L46 53L47 53L47 54L48 54L48 53L47 53L47 51L48 51L48 50L47 50L47 49L48 49L48 47L47 47L47 49L46 49L46 46L48 46L48 44L49 44L49 42L50 42L50 40L52 40L52 39L51 39L51 38L53 38L53 37L52 37L52 36L53 36L53 35L54 35L54 34L53 34L53 31L50 31L50 33L48 33L48 29L47 29L47 31L46 31L46 28L48 28L48 26L50 26L50 25L51 25L51 26L52 26L52 25L51 25L51 20L49 20L49 17L48 17L48 18L47 18L47 21L45 21L45 19L46 19L46 17L44 17L44 21L43 21L43 16L44 16L44 15L43 15L43 16L42 16L42 15L41 15L41 16L40 16L40 15L38 15L38 13L39 13L39 14L40 14L40 13L42 13L42 14L43 14L43 13L42 13L42 12L43 12L43 11L44 11L44 13L45 13L45 11L44 11L44 9L45 9L45 8L43 8L43 7L44 7L44 6L43 6L43 7L42 7L42 6L41 6L41 7L42 7L42 8L41 8L41 9L42 9L42 8L43 8L43 11L42 11L42 10L40 10L40 9L38 9L38 6L39 6L39 8L40 8L40 6L39 6L39 5L38 5L38 6L37 6L37 8L36 8L36 6L35 6L35 4L36 4L36 5L37 5L37 4L36 4L36 2L37 2L37 1L36 1L36 2L35 2L35 4L33 4L33 3L32 3L32 2L30 2L30 3L29 3L29 1ZM27 2L27 4L26 4L26 5L25 5L25 6L24 6L24 7L23 7L23 6L22 6L22 7L23 7L23 8L22 8L22 9L21 9L21 10L20 10L20 12L18 12L18 10L19 10L19 9L18 9L18 8L17 8L17 9L18 9L18 10L17 10L17 12L18 12L18 13L20 13L20 14L21 14L21 11L23 11L23 10L25 10L25 9L24 9L24 7L25 7L25 6L26 6L26 9L30 9L30 11L29 11L29 13L28 13L28 12L26 12L26 11L24 11L24 12L22 12L22 13L23 13L23 14L22 14L22 15L21 15L21 16L20 16L20 15L19 15L19 16L20 16L20 17L22 17L22 18L24 18L24 19L25 19L25 18L26 18L26 16L25 16L25 15L26 15L26 14L24 14L24 12L25 12L25 13L27 13L27 14L29 14L29 15L30 15L30 16L28 16L28 15L27 15L27 17L29 17L29 18L28 18L28 19L29 19L29 18L30 18L30 17L31 17L31 20L32 20L32 18L33 18L33 19L35 19L35 20L34 20L34 21L35 21L35 20L38 20L38 21L39 21L39 20L40 20L40 21L42 21L42 24L43 24L43 27L42 27L42 26L41 26L41 25L40 25L40 26L41 26L41 27L40 27L40 28L37 28L37 27L36 27L36 26L39 26L39 25L37 25L37 24L39 24L39 23L38 23L38 22L37 22L37 24L35 24L35 23L36 23L36 22L33 22L33 21L30 21L30 20L27 20L27 19L26 19L26 21L25 21L25 22L24 22L24 21L23 21L23 19L22 19L22 20L21 20L21 22L18 22L18 21L17 21L17 20L16 20L16 23L15 23L15 22L14 22L14 20L15 20L15 19L12 19L12 18L13 18L13 17L15 17L15 18L16 18L16 19L18 19L18 20L20 20L20 19L21 19L21 18L20 18L20 19L19 19L19 17L18 17L18 16L16 16L16 17L15 17L15 16L13 16L13 15L12 15L12 17L11 17L11 20L13 20L13 22L12 22L12 21L11 21L11 22L12 22L12 23L11 23L11 24L10 24L10 23L8 23L8 22L6 22L6 23L8 23L8 24L10 24L10 25L14 25L14 26L13 26L13 27L12 27L12 29L13 29L13 27L14 27L14 26L15 26L15 27L16 27L16 23L17 23L17 25L19 25L19 26L17 26L17 27L19 27L19 28L18 28L18 29L19 29L19 28L21 28L21 26L22 26L22 27L23 27L23 29L21 29L21 31L19 31L19 34L17 34L17 35L16 35L16 34L15 34L15 35L16 35L16 36L17 36L17 35L19 35L19 36L18 36L18 38L19 38L19 40L20 40L20 41L21 41L21 42L22 42L22 44L23 44L23 42L24 42L24 43L25 43L25 42L27 42L27 44L28 44L28 42L29 42L29 39L30 39L30 38L31 38L31 39L32 39L32 38L33 38L33 39L34 39L34 37L35 37L35 39L36 39L36 40L37 40L37 39L36 39L36 38L39 38L39 39L38 39L38 40L39 40L39 41L40 41L40 40L39 40L39 39L41 39L41 42L39 42L39 43L38 43L38 42L37 42L37 45L36 45L36 43L35 43L35 44L33 44L33 45L36 45L36 46L37 46L37 47L35 47L35 46L34 46L34 48L36 48L36 49L35 49L35 50L36 50L36 49L38 49L38 51L39 51L39 49L38 49L38 48L39 48L39 47L41 47L41 46L39 46L39 47L38 47L38 46L37 46L37 45L38 45L38 44L40 44L40 45L41 45L41 42L42 42L42 40L43 40L43 41L45 41L45 40L46 40L46 44L47 44L47 42L48 42L48 40L49 40L49 38L51 38L51 37L50 37L50 36L52 36L52 35L53 35L53 34L51 34L51 33L50 33L50 34L49 34L49 35L47 35L47 34L48 34L48 33L47 33L47 32L46 32L46 31L45 31L45 30L44 30L44 31L43 31L43 33L42 33L42 32L41 32L41 31L42 31L42 30L41 30L41 29L45 29L45 28L46 28L46 26L44 26L44 24L45 24L45 25L47 25L47 26L48 26L48 24L50 24L50 23L49 23L49 22L50 22L50 21L49 21L49 20L48 20L48 22L47 22L47 23L46 23L46 24L45 24L45 23L43 23L43 21L42 21L42 20L41 20L41 19L39 19L39 18L38 18L38 19L37 19L37 17L39 17L39 16L38 16L38 15L37 15L37 13L38 13L38 12L39 12L39 11L40 11L40 10L39 10L39 11L38 11L38 9L37 9L37 10L35 10L35 11L34 11L34 10L33 10L33 9L31 9L31 6L32 6L32 8L34 8L34 7L35 7L35 6L34 6L34 5L33 5L33 4L32 4L32 3L31 3L31 4L28 4L28 2ZM31 4L31 5L32 5L32 6L33 6L33 7L34 7L34 6L33 6L33 5L32 5L32 4ZM27 5L27 8L30 8L30 5ZM8 6L8 7L9 7L9 6ZM28 6L28 7L29 7L29 6ZM35 8L35 9L36 9L36 8ZM52 8L52 9L55 9L55 8ZM56 8L56 9L57 9L57 8ZM2 9L2 10L1 10L1 11L2 11L2 12L3 12L3 11L4 11L4 10L3 10L3 9ZM8 9L8 10L7 10L7 11L6 11L6 12L5 12L5 13L4 13L4 15L5 15L5 16L10 16L10 15L5 15L5 14L8 14L8 12L7 12L7 11L8 11L8 10L9 10L9 9ZM15 10L15 11L16 11L16 10ZM51 10L51 12L52 12L52 10ZM54 10L54 11L57 11L57 10ZM9 11L9 12L10 12L10 14L11 14L11 12L10 12L10 11ZM30 11L30 12L32 12L32 13L30 13L30 14L31 14L31 16L32 16L32 15L33 15L33 17L34 17L34 16L35 16L35 17L37 17L37 15L35 15L35 14L36 14L36 13L34 13L34 14L32 14L32 13L33 13L33 12L34 12L34 11L33 11L33 12L32 12L32 11ZM35 11L35 12L36 12L36 11ZM37 11L37 12L38 12L38 11ZM6 12L6 13L7 13L7 12ZM47 14L47 15L48 15L48 14ZM22 15L22 17L23 17L23 16L24 16L24 18L25 18L25 16L24 16L24 15ZM51 15L51 16L52 16L52 15ZM4 17L4 18L5 18L5 17ZM6 17L6 18L8 18L8 17ZM17 17L17 18L18 18L18 17ZM40 17L40 18L42 18L42 17ZM50 17L50 18L51 18L51 19L53 19L53 18L51 18L51 17ZM35 18L35 19L36 19L36 18ZM38 19L38 20L39 20L39 19ZM28 21L28 23L27 23L27 22L25 22L25 24L24 24L24 26L23 26L23 27L24 27L24 26L25 26L25 29L24 29L24 30L25 30L25 29L26 29L26 26L28 26L28 25L29 25L29 24L31 24L31 25L30 25L30 26L31 26L31 27L32 27L32 28L33 28L33 29L34 29L34 26L36 26L36 25L34 25L34 26L31 26L31 25L33 25L33 24L32 24L32 23L33 23L33 22L32 22L32 23L29 23L29 21ZM44 21L44 22L45 22L45 21ZM4 22L4 23L5 23L5 22ZM13 22L13 23L14 23L14 25L15 25L15 23L14 23L14 22ZM18 23L18 24L19 24L19 23ZM20 23L20 25L23 25L23 23L22 23L22 24L21 24L21 23ZM26 23L26 24L27 24L27 23ZM40 23L40 24L41 24L41 23ZM47 23L47 24L48 24L48 23ZM4 25L4 26L5 26L5 25ZM1 26L1 27L2 27L2 28L4 28L4 27L2 27L2 26ZM53 26L53 27L54 27L54 26ZM5 27L5 30L8 30L8 27ZM27 27L27 30L30 30L30 27ZM35 27L35 29L36 29L36 30L35 30L35 31L33 31L33 30L31 30L31 31L32 31L32 34L33 34L33 33L34 33L34 34L36 34L36 33L37 33L37 34L38 34L38 35L37 35L37 36L38 36L38 37L39 37L39 38L41 38L41 39L42 39L42 38L44 38L44 39L43 39L43 40L44 40L44 39L45 39L45 37L46 37L46 38L47 38L47 37L48 37L48 38L49 38L49 36L45 36L45 35L42 35L42 33L40 33L40 32L39 32L39 33L37 33L37 32L36 32L36 33L35 33L35 31L36 31L36 30L37 30L37 31L39 31L39 30L40 30L40 31L41 31L41 30L40 30L40 29L41 29L41 28L42 28L42 27L41 27L41 28L40 28L40 29L37 29L37 28L36 28L36 27ZM44 27L44 28L45 28L45 27ZM49 27L49 30L52 30L52 27ZM56 27L56 28L57 28L57 27ZM6 28L6 29L7 29L7 28ZM15 28L15 29L16 29L16 30L17 30L17 32L18 32L18 30L17 30L17 28ZM28 28L28 29L29 29L29 28ZM50 28L50 29L51 29L51 28ZM56 29L56 30L55 30L55 31L56 31L56 30L57 30L57 29ZM15 31L15 33L16 33L16 31ZM23 31L23 32L24 32L24 33L25 33L25 34L28 34L28 35L29 35L29 36L28 36L28 37L27 37L27 36L26 36L26 37L24 37L24 39L23 39L23 40L22 40L22 42L23 42L23 41L24 41L24 42L25 42L25 41L26 41L26 38L30 38L30 37L31 37L31 36L32 36L32 37L33 37L33 36L34 36L34 35L31 35L31 34L30 34L30 35L29 35L29 32L30 32L30 31L28 31L28 32L26 32L26 31ZM44 31L44 33L43 33L43 34L44 34L44 33L46 33L46 34L47 34L47 33L46 33L46 32L45 32L45 31ZM6 32L6 33L5 33L5 34L6 34L6 35L7 35L7 34L8 34L8 32ZM20 32L20 34L21 34L21 32ZM25 32L25 33L26 33L26 32ZM6 33L6 34L7 34L7 33ZM9 33L9 35L10 35L10 36L9 36L9 38L8 38L8 39L7 39L7 40L6 40L6 41L7 41L7 40L8 40L8 39L9 39L9 38L10 38L10 39L11 39L11 41L9 41L9 42L11 42L11 43L9 43L9 44L10 44L10 45L11 45L11 46L12 46L12 44L13 44L13 43L12 43L12 42L13 42L13 41L12 41L12 38L11 38L11 37L10 37L10 36L11 36L11 34L10 34L10 33ZM22 33L22 35L24 35L24 34L23 34L23 33ZM55 33L55 35L56 35L56 33ZM20 35L20 36L19 36L19 37L20 37L20 38L21 38L21 39L22 39L22 37L23 37L23 36L21 36L21 35ZM30 35L30 36L29 36L29 37L30 37L30 36L31 36L31 35ZM35 35L35 37L36 37L36 35ZM39 35L39 37L40 37L40 35ZM41 35L41 36L42 36L42 37L44 37L44 36L42 36L42 35ZM0 36L0 37L1 37L1 36ZM24 39L24 40L25 40L25 39ZM27 39L27 41L28 41L28 39ZM46 39L46 40L47 40L47 39ZM31 40L31 42L30 42L30 44L29 44L29 45L30 45L30 44L31 44L31 47L32 47L32 48L33 48L33 47L32 47L32 43L31 43L31 42L32 42L32 41L33 41L33 43L34 43L34 42L35 42L35 40L34 40L34 41L33 41L33 40ZM56 40L56 41L57 41L57 40ZM11 41L11 42L12 42L12 41ZM44 42L44 44L45 44L45 42ZM3 43L3 45L4 45L4 44L5 44L5 43ZM24 44L24 45L23 45L23 46L25 46L25 44ZM42 44L42 47L43 47L43 49L44 49L44 48L45 48L45 46L46 46L46 45L43 45L43 44ZM55 45L55 47L54 47L54 48L53 48L53 51L54 51L54 49L55 49L55 47L56 47L56 45ZM43 46L43 47L44 47L44 46ZM49 46L49 48L50 48L50 46ZM21 47L21 48L23 48L23 47ZM51 47L51 48L52 48L52 47ZM24 48L24 49L25 49L25 48ZM16 49L16 50L15 50L15 51L16 51L16 50L17 50L17 49ZM27 49L27 52L30 52L30 49ZM49 49L49 52L52 52L52 49ZM28 50L28 51L29 51L29 50ZM50 50L50 51L51 51L51 50ZM55 51L55 53L56 53L56 51ZM37 52L37 53L39 53L39 52ZM9 53L9 55L10 55L10 56L11 56L11 55L10 55L10 53ZM56 55L56 56L57 56L57 55ZM0 0L0 7L7 7L7 0ZM1 1L1 6L6 6L6 1ZM2 2L2 5L5 5L5 2ZM50 0L50 7L57 7L57 0ZM51 1L51 6L56 6L56 1ZM52 2L52 5L55 5L55 2ZM0 50L0 57L7 57L7 50ZM1 51L1 56L6 56L6 51ZM2 52L2 55L5 55L5 52Z" fill="#000000"/></g></g></svg>
