<?xml version="1.0" encoding="UTF-8"?>
<svg xmlns="http://www.w3.org/2000/svg" version="1.1" width="300" height="300" viewBox="0 0 300 300"><rect x="0" y="0" width="300" height="300" fill="#ffffff"/><g transform="scale(4.918)"><g transform="translate(2,2)"><path fill-rule="evenodd" d="M9 0L9 1L8 1L8 2L9 2L9 3L8 3L8 4L9 4L9 5L8 5L8 7L9 7L9 8L6 8L6 9L5 9L5 8L0 8L0 11L1 11L1 13L0 13L0 14L1 14L1 15L0 15L0 18L1 18L1 19L0 19L0 20L1 20L1 22L0 22L0 23L2 23L2 24L3 24L3 25L5 25L5 26L3 26L3 27L1 27L1 28L0 28L0 29L1 29L1 31L2 31L2 29L1 29L1 28L3 28L3 29L4 29L4 31L9 31L9 30L11 30L11 31L12 31L12 32L11 32L11 33L13 33L13 34L15 34L15 36L13 36L13 38L16 38L16 37L15 37L15 36L18 36L18 37L17 37L17 38L18 38L18 37L19 37L19 38L20 38L20 39L17 39L17 40L16 40L16 39L15 39L15 41L13 41L13 39L10 39L10 40L12 40L12 41L9 41L9 40L8 40L8 39L7 39L7 38L6 38L6 37L10 37L10 38L11 38L11 37L10 37L10 36L11 36L11 35L12 35L12 34L11 34L11 35L9 35L9 34L10 34L10 32L8 32L8 33L9 33L9 34L6 34L6 33L7 33L7 32L6 32L6 33L4 33L4 34L3 34L3 32L2 32L2 33L1 33L1 32L0 32L0 35L1 35L1 36L0 36L0 37L1 37L1 39L2 39L2 40L3 40L3 39L7 39L7 40L6 40L6 41L7 41L7 42L6 42L6 43L3 43L3 42L2 42L2 41L1 41L1 42L2 42L2 43L1 43L1 44L0 44L0 48L5 48L5 47L7 47L7 48L6 48L6 49L8 49L8 51L9 51L9 49L10 49L10 51L11 51L11 50L12 50L12 51L13 51L13 53L14 53L14 55L16 55L16 56L13 56L13 57L16 57L16 56L17 56L17 57L21 57L21 56L18 56L18 55L20 55L20 54L18 54L18 53L20 53L20 52L21 52L21 53L22 53L22 56L24 56L24 57L26 57L26 56L28 56L28 55L25 55L25 56L24 56L24 55L23 55L23 54L24 54L24 53L25 53L25 54L27 54L27 53L28 53L28 54L30 54L30 53L31 53L31 55L32 55L32 56L30 56L30 55L29 55L29 56L30 56L30 57L32 57L32 56L33 56L33 57L37 57L37 56L33 56L33 54L34 54L34 55L38 55L38 56L39 56L39 57L40 57L40 56L41 56L41 55L40 55L40 52L42 52L42 53L41 53L41 54L43 54L43 53L44 53L44 54L45 54L45 53L44 53L44 51L45 51L45 52L48 52L48 54L47 54L47 55L46 55L46 56L45 56L45 55L44 55L44 56L45 56L45 57L46 57L46 56L47 56L47 55L49 55L49 53L50 53L50 55L51 55L51 56L50 56L50 57L52 57L52 56L53 56L53 57L56 57L56 56L55 56L55 55L54 55L54 54L55 54L55 53L54 53L54 52L55 52L55 50L57 50L57 49L53 49L53 48L57 48L57 47L56 47L56 46L57 46L57 44L56 44L56 46L52 46L52 45L54 45L54 44L55 44L55 43L56 43L56 41L54 41L54 43L53 43L53 44L52 44L52 45L50 45L50 44L51 44L51 43L50 43L50 42L51 42L51 41L49 41L49 40L50 40L50 38L51 38L51 39L52 39L52 41L53 41L53 40L55 40L55 39L57 39L57 37L56 37L56 36L57 36L57 35L56 35L56 34L57 34L57 32L56 32L56 30L57 30L57 28L56 28L56 26L57 26L57 25L56 25L56 22L57 22L57 21L55 21L55 22L53 22L53 21L51 21L51 22L50 22L50 19L51 19L51 20L55 20L55 19L53 19L53 18L54 18L54 17L52 17L52 16L55 16L55 18L57 18L57 17L56 17L56 16L57 16L57 15L56 15L56 14L57 14L57 12L55 12L55 11L56 11L56 10L55 10L55 11L54 11L54 10L53 10L53 11L52 11L52 12L53 12L53 11L54 11L54 12L55 12L55 13L54 13L54 14L55 14L55 15L52 15L52 16L51 16L51 17L52 17L52 19L51 19L51 18L50 18L50 16L49 16L49 17L48 17L48 16L47 16L47 18L44 18L44 19L41 19L41 18L43 18L43 17L44 17L44 16L46 16L46 15L49 15L49 13L50 13L50 11L51 11L51 10L52 10L52 8L51 8L51 10L50 10L50 8L49 8L49 6L48 6L48 7L47 7L47 5L48 5L48 0L45 0L45 1L47 1L47 2L44 2L44 1L43 1L43 0L39 0L39 1L37 1L37 0L36 0L36 1L34 1L34 0L33 0L33 1L34 1L34 2L37 2L37 3L36 3L36 5L33 5L33 6L32 6L32 8L33 8L33 6L34 6L34 7L35 7L35 6L36 6L36 7L37 7L37 8L34 8L34 9L35 9L35 10L34 10L34 11L33 11L33 10L32 10L32 9L31 9L31 4L32 4L32 3L33 3L33 4L34 4L34 3L33 3L33 2L30 2L30 3L31 3L31 4L28 4L28 3L29 3L29 2L28 2L28 1L26 1L26 0L24 0L24 1L23 1L23 0L21 0L21 2L19 2L19 1L16 1L16 0L14 0L14 1L15 1L15 2L14 2L14 3L13 3L13 0ZM29 0L29 1L32 1L32 0ZM9 1L9 2L10 2L10 3L9 3L9 4L10 4L10 5L11 5L11 7L10 7L10 6L9 6L9 7L10 7L10 8L9 8L9 10L8 10L8 9L6 9L6 10L2 10L2 9L1 9L1 10L2 10L2 11L3 11L3 12L7 12L7 13L6 13L6 14L5 14L5 13L4 13L4 14L5 14L5 15L4 15L4 17L5 17L5 18L3 18L3 17L2 17L2 15L1 15L1 17L2 17L2 21L3 21L3 20L5 20L5 21L4 21L4 22L5 22L5 23L3 23L3 24L5 24L5 25L6 25L6 26L8 26L8 23L10 23L10 25L9 25L9 26L10 26L10 25L11 25L11 22L12 22L12 24L15 24L15 25L12 25L12 27L14 27L14 28L13 28L13 29L12 29L12 28L11 28L11 30L12 30L12 31L14 31L14 32L13 32L13 33L14 33L14 32L15 32L15 29L14 29L14 28L16 28L16 27L17 27L17 28L18 28L18 29L16 29L16 30L17 30L17 31L16 31L16 32L18 32L18 31L20 31L20 32L19 32L19 33L16 33L16 35L18 35L18 34L19 34L19 35L20 35L20 34L21 34L21 33L22 33L22 35L21 35L21 36L19 36L19 37L21 37L21 38L22 38L22 39L21 39L21 40L19 40L19 41L15 41L15 42L14 42L14 43L15 43L15 44L16 44L16 43L18 43L18 42L19 42L19 45L20 45L20 46L19 46L19 49L18 49L18 50L19 50L19 49L20 49L20 50L21 50L21 49L22 49L22 50L23 50L23 51L22 51L22 53L24 53L24 51L25 51L25 53L26 53L26 50L23 50L23 49L24 49L24 47L25 47L25 48L26 48L26 46L27 46L27 48L31 48L31 49L33 49L33 48L31 48L31 47L32 47L32 46L35 46L35 47L34 47L34 50L32 50L32 51L31 51L31 52L32 52L32 54L33 54L33 53L34 53L34 54L35 54L35 53L36 53L36 54L39 54L39 52L40 52L40 51L41 51L41 50L42 50L42 51L44 51L44 50L45 50L45 51L46 51L46 50L47 50L47 51L48 51L48 48L50 48L50 47L52 47L52 48L53 48L53 47L52 47L52 46L50 46L50 45L48 45L48 44L49 44L49 43L48 43L48 42L47 42L47 41L48 41L48 40L49 40L49 39L48 39L48 38L50 38L50 37L51 37L51 36L52 36L52 34L54 34L54 33L55 33L55 34L56 34L56 32L54 32L54 31L55 31L55 30L56 30L56 28L54 28L54 29L55 29L55 30L53 30L53 31L52 31L52 32L54 32L54 33L51 33L51 32L50 32L50 31L48 31L48 29L46 29L46 30L45 30L45 28L44 28L44 27L46 27L46 28L48 28L48 26L47 26L47 25L50 25L50 26L51 26L51 24L52 24L52 25L53 25L53 27L55 27L55 26L56 26L56 25L55 25L55 24L52 24L52 23L53 23L53 22L52 22L52 23L50 23L50 22L49 22L49 23L48 23L48 24L47 24L47 21L48 21L48 19L50 19L50 18L47 18L47 19L45 19L45 20L43 20L43 23L44 23L44 21L45 21L45 22L46 22L46 23L45 23L45 24L42 24L42 25L43 25L43 26L44 26L44 27L43 27L43 28L42 28L42 26L40 26L40 27L38 27L38 30L37 30L37 29L36 29L36 30L37 30L37 31L36 31L36 32L35 32L35 31L33 31L33 30L35 30L35 29L33 29L33 28L34 28L34 27L32 27L32 26L35 26L35 24L36 24L36 22L37 22L37 25L36 25L36 26L37 26L37 25L38 25L38 26L39 26L39 25L38 25L38 24L40 24L40 25L41 25L41 24L40 24L40 23L41 23L41 22L40 22L40 23L38 23L38 22L39 22L39 21L38 21L38 22L37 22L37 21L36 21L36 20L37 20L37 19L38 19L38 20L40 20L40 21L42 21L42 20L40 20L40 19L38 19L38 18L39 18L39 17L40 17L40 18L41 18L41 16L42 16L42 15L43 15L43 16L44 16L44 14L45 14L45 12L46 12L46 14L47 14L47 13L49 13L49 12L47 12L47 11L50 11L50 10L47 10L47 9L49 9L49 8L47 8L47 7L46 7L46 5L47 5L47 3L43 3L43 5L42 5L42 3L40 3L40 5L42 5L42 6L41 6L41 8L39 8L39 7L40 7L40 6L39 6L39 2L38 2L38 6L37 6L37 5L36 5L36 6L37 6L37 7L38 7L38 8L37 8L37 9L38 9L38 10L39 10L39 11L40 11L40 12L38 12L38 13L37 13L37 14L39 14L39 13L41 13L41 14L40 14L40 15L41 15L41 16L39 16L39 15L38 15L38 18L37 18L37 19L35 19L35 20L34 20L34 18L35 18L35 17L36 17L36 16L37 16L37 15L36 15L36 16L35 16L35 15L34 15L34 18L33 18L33 16L30 16L30 15L31 15L31 14L30 14L30 15L28 15L28 16L27 16L27 14L28 14L28 13L31 13L31 12L32 12L32 15L33 15L33 14L35 14L35 13L33 13L33 12L32 12L32 11L31 11L31 10L27 10L27 9L25 9L25 8L26 8L26 4L27 4L27 3L28 3L28 2L26 2L26 1L25 1L25 2L21 2L21 3L19 3L19 2L18 2L18 3L19 3L19 4L17 4L17 3L14 3L14 4L16 4L16 5L13 5L13 4L12 4L12 1ZM40 1L40 2L43 2L43 1ZM10 3L10 4L11 4L11 5L12 5L12 7L13 7L13 11L12 11L12 12L11 12L11 10L12 10L12 9L11 9L11 8L10 8L10 9L11 9L11 10L10 10L10 11L9 11L9 12L8 12L8 10L6 10L6 11L7 11L7 12L8 12L8 13L7 13L7 14L6 14L6 15L7 15L7 16L5 16L5 17L8 17L8 18L5 18L5 19L7 19L7 20L6 20L6 21L5 21L5 22L6 22L6 23L5 23L5 24L6 24L6 25L7 25L7 24L6 24L6 23L7 23L7 22L6 22L6 21L7 21L7 20L8 20L8 18L11 18L11 17L14 17L14 16L15 16L15 15L16 15L16 17L15 17L15 21L16 21L16 22L14 22L14 21L13 21L13 23L16 23L16 25L15 25L15 26L14 26L14 27L15 27L15 26L16 26L16 25L18 25L18 26L17 26L17 27L18 27L18 26L20 26L20 25L21 25L21 27L19 27L19 28L20 28L20 29L18 29L18 30L20 30L20 31L22 31L22 30L20 30L20 29L22 29L22 28L21 28L21 27L22 27L22 26L23 26L23 27L24 27L24 28L23 28L23 29L24 29L24 30L25 30L25 31L23 31L23 35L22 35L22 36L21 36L21 37L22 37L22 38L23 38L23 39L22 39L22 40L23 40L23 39L24 39L24 41L21 41L21 42L20 42L20 41L19 41L19 42L20 42L20 45L21 45L21 46L20 46L20 47L21 47L21 48L23 48L23 47L24 47L24 46L25 46L25 45L26 45L26 44L28 44L28 45L27 45L27 46L28 46L28 45L29 45L29 46L30 46L30 47L31 47L31 45L32 45L32 44L34 44L34 43L35 43L35 44L36 44L36 45L35 45L35 46L37 46L37 48L36 48L36 47L35 47L35 48L36 48L36 49L35 49L35 50L34 50L34 51L32 51L32 52L36 52L36 53L37 53L37 52L36 52L36 51L37 51L37 50L38 50L38 52L39 52L39 51L40 51L40 50L41 50L41 49L39 49L39 48L45 48L45 50L46 50L46 48L45 48L45 47L47 47L47 46L46 46L46 45L47 45L47 44L48 44L48 43L45 43L45 41L41 41L41 43L40 43L40 42L38 42L38 41L40 41L40 40L41 40L41 39L40 39L40 38L39 38L39 39L40 39L40 40L38 40L38 37L40 37L40 36L41 36L41 38L43 38L43 37L44 37L44 38L45 38L45 39L43 39L43 40L45 40L45 39L46 39L46 38L45 38L45 37L44 37L44 35L42 35L42 36L41 36L41 35L40 35L40 34L37 34L37 33L38 33L38 32L36 32L36 33L35 33L35 34L34 34L34 32L33 32L33 31L32 31L32 28L31 28L31 24L35 24L35 23L33 23L33 21L34 21L34 20L33 20L33 19L32 19L32 18L31 18L31 17L29 17L29 16L28 16L28 17L27 17L27 16L26 16L26 15L24 15L24 14L26 14L26 13L28 13L28 12L29 12L29 11L27 11L27 10L26 10L26 11L27 11L27 12L25 12L25 11L24 11L24 10L25 10L25 9L22 9L22 8L23 8L23 6L24 6L24 8L25 8L25 4L26 4L26 3L23 3L23 4L22 4L22 3L21 3L21 4L19 4L19 5L20 5L20 7L19 7L19 6L18 6L18 8L16 8L16 7L17 7L17 6L16 6L16 7L15 7L15 6L14 6L14 7L13 7L13 5L12 5L12 4L11 4L11 3ZM21 4L21 5L22 5L22 4ZM23 4L23 5L24 5L24 4ZM44 4L44 5L46 5L46 4ZM27 5L27 8L30 8L30 5ZM21 6L21 8L19 8L19 9L16 9L16 8L15 8L15 7L14 7L14 10L16 10L16 11L18 11L18 10L19 10L19 11L20 11L20 12L21 12L21 13L19 13L19 15L18 15L18 14L17 14L17 13L18 13L18 12L17 12L17 13L16 13L16 15L17 15L17 16L19 16L19 17L16 17L16 18L17 18L17 19L16 19L16 21L17 21L17 22L20 22L20 23L18 23L18 24L19 24L19 25L20 25L20 24L21 24L21 25L24 25L24 24L25 24L25 26L24 26L24 27L25 27L25 28L24 28L24 29L25 29L25 30L26 30L26 27L25 27L25 26L26 26L26 25L28 25L28 26L29 26L29 24L30 24L30 23L31 23L31 22L30 22L30 21L29 21L29 20L30 20L30 19L31 19L31 18L29 18L29 19L28 19L28 18L27 18L27 17L26 17L26 16L25 16L25 17L26 17L26 18L27 18L27 19L26 19L26 20L25 20L25 21L24 21L24 20L22 20L22 19L24 19L24 18L23 18L23 17L24 17L24 15L23 15L23 14L24 14L24 13L25 13L25 12L24 12L24 11L23 11L23 12L24 12L24 13L22 13L22 12L21 12L21 11L22 11L22 9L21 9L21 8L22 8L22 6ZM28 6L28 7L29 7L29 6ZM38 6L38 7L39 7L39 6ZM42 6L42 8L43 8L43 9L39 9L39 10L43 10L43 9L44 9L44 8L45 8L45 6L44 6L44 8L43 8L43 6ZM46 8L46 9L47 9L47 8ZM53 8L53 9L54 9L54 8ZM55 8L55 9L56 9L56 8ZM19 9L19 10L20 10L20 11L21 11L21 10L20 10L20 9ZM35 10L35 11L34 11L34 12L36 12L36 11L37 11L37 10ZM44 10L44 11L42 11L42 14L41 14L41 15L42 15L42 14L43 14L43 12L45 12L45 11L47 11L47 10ZM13 11L13 12L12 12L12 13L11 13L11 12L9 12L9 13L8 13L8 14L7 14L7 15L8 15L8 14L12 14L12 15L11 15L11 16L12 16L12 15L13 15L13 16L14 16L14 14L15 14L15 13L13 13L13 12L14 12L14 11ZM30 11L30 12L31 12L31 11ZM21 13L21 14L20 14L20 15L21 15L21 16L20 16L20 17L21 17L21 18L20 18L20 19L22 19L22 17L21 17L21 16L22 16L22 13ZM51 13L51 14L50 14L50 15L51 15L51 14L52 14L52 13ZM55 13L55 14L56 14L56 13ZM9 15L9 17L10 17L10 15ZM12 18L12 20L14 20L14 19L13 19L13 18ZM18 18L18 19L17 19L17 21L20 21L20 20L19 20L19 18ZM9 19L9 20L11 20L11 19ZM27 19L27 20L28 20L28 19ZM56 19L56 20L57 20L57 19ZM32 20L32 21L33 21L33 20ZM8 21L8 22L9 22L9 21ZM21 21L21 23L22 23L22 22L24 22L24 21ZM25 21L25 22L26 22L26 23L25 23L25 24L29 24L29 23L30 23L30 22L27 22L27 21ZM23 23L23 24L24 24L24 23ZM49 23L49 24L50 24L50 23ZM0 24L0 26L1 26L1 24ZM45 24L45 25L44 25L44 26L45 26L45 25L46 25L46 24ZM54 25L54 26L55 26L55 25ZM3 27L3 28L4 28L4 27ZM5 27L5 30L8 30L8 27ZM9 27L9 28L10 28L10 27ZM27 27L27 30L30 30L30 27ZM35 27L35 28L37 28L37 27ZM40 27L40 28L41 28L41 27ZM49 27L49 30L52 30L52 27ZM6 28L6 29L7 29L7 28ZM28 28L28 29L29 29L29 28ZM43 28L43 29L42 29L42 30L41 30L41 31L40 31L40 29L39 29L39 31L40 31L40 32L39 32L39 33L40 33L40 32L41 32L41 34L43 34L43 32L45 32L45 34L46 34L46 35L45 35L45 36L46 36L46 37L47 37L47 36L48 36L48 35L49 35L49 36L51 36L51 35L49 35L49 34L48 34L48 33L47 33L47 32L48 32L48 31L47 31L47 30L46 30L46 31L47 31L47 32L45 32L45 31L44 31L44 30L43 30L43 29L44 29L44 28ZM50 28L50 29L51 29L51 28ZM13 29L13 30L14 30L14 29ZM42 30L42 31L41 31L41 32L42 32L42 31L43 31L43 30ZM25 31L25 34L24 34L24 36L26 36L26 37L25 37L25 38L26 38L26 37L28 37L28 38L27 38L27 39L28 39L28 40L31 40L31 42L33 42L33 43L34 43L34 42L35 42L35 43L36 43L36 44L37 44L37 46L39 46L39 47L38 47L38 48L37 48L37 49L36 49L36 50L35 50L35 51L36 51L36 50L37 50L37 49L38 49L38 50L39 50L39 49L38 49L38 48L39 48L39 47L40 47L40 45L41 45L41 46L42 46L42 47L45 47L45 43L43 43L43 44L40 44L40 43L38 43L38 44L37 44L37 43L36 43L36 42L37 42L37 41L38 41L38 40L37 40L37 38L36 38L36 36L40 36L40 35L34 35L34 34L33 34L33 32L31 32L31 31L29 31L29 32L30 32L30 33L32 33L32 34L31 34L31 35L32 35L32 38L31 38L31 36L30 36L30 34L29 34L29 33L26 33L26 32L27 32L27 31ZM20 32L20 33L21 33L21 32ZM46 33L46 34L47 34L47 33ZM50 33L50 34L51 34L51 33ZM2 34L2 35L3 35L3 34ZM5 34L5 35L4 35L4 36L5 36L5 35L6 35L6 36L7 36L7 35L6 35L6 34ZM25 34L25 35L26 35L26 36L27 36L27 35L26 35L26 34ZM33 35L33 36L34 36L34 35ZM46 35L46 36L47 36L47 35ZM55 35L55 36L54 36L54 38L53 38L53 37L52 37L52 39L55 39L55 36L56 36L56 35ZM22 36L22 37L23 37L23 38L24 38L24 37L23 37L23 36ZM29 36L29 39L31 39L31 40L33 40L33 42L34 42L34 40L35 40L35 42L36 42L36 41L37 41L37 40L36 40L36 39L34 39L34 38L33 38L33 39L31 39L31 38L30 38L30 36ZM42 36L42 37L43 37L43 36ZM2 37L2 39L3 39L3 38L5 38L5 37ZM25 39L25 42L24 42L24 45L22 45L22 44L21 44L21 45L22 45L22 47L23 47L23 46L24 46L24 45L25 45L25 44L26 44L26 43L28 43L28 42L30 42L30 41L27 41L27 40L26 40L26 39ZM33 39L33 40L34 40L34 39ZM4 40L4 42L5 42L5 40ZM26 41L26 42L27 42L27 41ZM7 42L7 43L6 43L6 44L7 44L7 45L6 45L6 46L7 46L7 45L10 45L10 44L7 44L7 43L8 43L8 42ZM10 42L10 43L12 43L12 45L11 45L11 46L12 46L12 48L13 48L13 51L14 51L14 49L15 49L15 51L16 51L16 53L15 53L15 54L16 54L16 53L18 53L18 51L16 51L16 50L17 50L17 49L15 49L15 47L18 47L18 46L17 46L17 45L18 45L18 44L17 44L17 45L16 45L16 46L15 46L15 45L14 45L14 44L13 44L13 43L12 43L12 42ZM21 42L21 43L22 43L22 42ZM29 43L29 44L30 44L30 45L31 45L31 44L32 44L32 43ZM39 44L39 45L40 45L40 44ZM43 44L43 45L42 45L42 46L44 46L44 44ZM1 45L1 47L2 47L2 45ZM3 45L3 47L5 47L5 46L4 46L4 45ZM13 45L13 47L15 47L15 46L14 46L14 45ZM8 46L8 49L9 49L9 46ZM49 46L49 47L50 47L50 46ZM10 47L10 49L11 49L11 47ZM27 49L27 52L30 52L30 49ZM42 49L42 50L44 50L44 49ZM49 49L49 52L52 52L52 49ZM28 50L28 51L29 51L29 50ZM50 50L50 51L51 51L51 50ZM53 50L53 51L54 51L54 50ZM56 51L56 52L57 52L57 51ZM8 52L8 57L11 57L11 55L12 55L12 54L10 54L10 52ZM11 52L11 53L12 53L12 52ZM9 54L9 56L10 56L10 54ZM51 54L51 55L53 55L53 54ZM39 55L39 56L40 56L40 55ZM42 55L42 57L43 57L43 55ZM0 0L0 7L7 7L7 0ZM1 1L1 6L6 6L6 1ZM2 2L2 5L5 5L5 2ZM50 0L50 7L57 7L57 0ZM51 1L51 6L56 6L56 1ZM52 2L52 5L55 5L55 2ZM0 50L0 57L7 57L7 50ZM1 51L1 56L6 56L6 51ZM2 52L2 55L5 55L5 52Z" fill="#000000"/></g></g></svg>
