<?xml version="1.0" encoding="UTF-8"?>
<svg xmlns="http://www.w3.org/2000/svg" version="1.1" width="300" height="300" viewBox="0 0 300 300"><rect x="0" y="0" width="300" height="300" fill="#ffffff"/><g transform="scale(4.918)"><g transform="translate(2,2)"><path fill-rule="evenodd" d="M9 0L9 1L8 1L8 2L10 2L10 0ZM11 0L11 2L12 2L12 1L15 1L15 3L16 3L16 2L17 2L17 1L16 1L16 0ZM21 0L21 2L20 2L20 3L21 3L21 2L22 2L22 3L23 3L23 4L19 4L19 3L18 3L18 4L19 4L19 5L17 5L17 6L16 6L16 7L15 7L15 6L14 6L14 5L16 5L16 4L14 4L14 2L13 2L13 3L12 3L12 4L11 4L11 3L10 3L10 4L11 4L11 6L10 6L10 7L9 7L9 5L8 5L8 7L9 7L9 8L6 8L6 9L8 9L8 10L5 10L5 8L0 8L0 11L1 11L1 12L0 12L0 13L1 13L1 12L2 12L2 14L3 14L3 15L2 15L2 16L1 16L1 14L0 14L0 16L1 16L1 17L0 17L0 18L1 18L1 20L2 20L2 21L3 21L3 22L5 22L5 24L4 24L4 23L1 23L1 24L0 24L0 34L2 34L2 35L1 35L1 36L0 36L0 38L1 38L1 40L0 40L0 41L1 41L1 40L3 40L3 39L4 39L4 38L6 38L6 39L7 39L7 38L6 38L6 37L9 37L9 36L8 36L8 34L9 34L9 35L10 35L10 36L12 36L12 34L14 34L14 36L13 36L13 37L12 37L12 38L11 38L11 37L10 37L10 38L11 38L11 39L10 39L10 40L11 40L11 41L12 41L12 42L11 42L11 43L10 43L10 41L9 41L9 39L8 39L8 41L7 41L7 40L6 40L6 41L7 41L7 42L6 42L6 43L5 43L5 42L3 42L3 44L4 44L4 45L3 45L3 46L2 46L2 45L1 45L1 44L0 44L0 45L1 45L1 46L0 46L0 48L5 48L5 47L7 47L7 48L6 48L6 49L8 49L8 51L9 51L9 52L8 52L8 57L10 57L10 53L9 53L9 52L10 52L10 49L11 49L11 50L13 50L13 52L14 52L14 53L16 53L16 54L14 54L14 55L16 55L16 56L17 56L17 57L19 57L19 55L20 55L20 54L17 54L17 53L20 53L20 52L21 52L21 51L22 51L22 50L23 50L23 51L24 51L24 53L21 53L21 54L24 54L24 53L25 53L25 54L27 54L27 53L28 53L28 54L30 54L30 53L31 53L31 55L34 55L34 56L30 56L30 55L29 55L29 56L30 56L30 57L37 57L37 54L38 54L38 55L40 55L40 56L41 56L41 57L44 57L44 56L43 56L43 55L40 55L40 52L41 52L41 54L43 54L43 53L44 53L44 54L45 54L45 56L46 56L46 57L47 57L47 56L46 56L46 54L45 54L45 53L47 53L47 52L48 52L48 54L47 54L47 55L49 55L49 56L48 56L48 57L49 57L49 56L50 56L50 55L51 55L51 57L52 57L52 56L54 56L54 57L56 57L56 56L55 56L55 54L54 54L54 53L53 53L53 49L54 49L54 48L55 48L55 50L57 50L57 49L56 49L56 48L55 48L55 47L56 47L56 46L57 46L57 44L56 44L56 41L55 41L55 39L57 39L57 37L56 37L56 36L57 36L57 35L56 35L56 34L57 34L57 33L56 33L56 30L57 30L57 29L54 29L54 28L56 28L56 27L53 27L53 25L52 25L52 24L55 24L55 25L54 25L54 26L57 26L57 23L56 23L56 22L57 22L57 21L56 21L56 20L55 20L55 19L56 19L56 18L57 18L57 17L56 17L56 18L55 18L55 17L53 17L53 19L54 19L54 20L55 20L55 21L54 21L54 22L55 22L55 23L53 23L53 22L52 22L52 24L51 24L51 25L52 25L52 26L49 26L49 25L47 25L47 24L46 24L46 23L48 23L48 24L49 24L49 22L50 22L50 23L51 23L51 22L50 22L50 19L51 19L51 20L52 20L52 18L50 18L50 16L48 16L48 17L47 17L47 18L45 18L45 17L43 17L43 16L45 16L45 15L50 15L50 11L52 11L52 12L53 12L53 11L54 11L54 12L55 12L55 13L54 13L54 14L53 14L53 15L51 15L51 16L55 16L55 15L56 15L56 16L57 16L57 15L56 15L56 14L57 14L57 13L56 13L56 10L55 10L55 11L54 11L54 10L53 10L53 9L54 9L54 8L53 8L53 9L52 9L52 8L51 8L51 10L49 10L49 9L50 9L50 8L49 8L49 6L48 6L48 8L46 8L46 7L47 7L47 5L48 5L48 0L46 0L46 1L47 1L47 2L43 2L43 3L42 3L42 4L40 4L40 3L41 3L41 2L40 2L40 1L45 1L45 0L39 0L39 1L38 1L38 0L35 0L35 1L33 1L33 0L32 0L32 1L33 1L33 2L31 2L31 4L30 4L30 3L29 3L29 1L31 1L31 0L28 0L28 1L27 1L27 2L28 2L28 3L27 3L27 4L26 4L26 3L25 3L25 2L26 2L26 0L24 0L24 1L23 1L23 0ZM18 1L18 2L19 2L19 1ZM22 1L22 2L23 2L23 3L24 3L24 2L23 2L23 1ZM35 1L35 2L33 2L33 3L32 3L32 4L31 4L31 7L32 7L32 8L31 8L31 9L32 9L32 10L30 10L30 9L29 9L29 10L28 10L28 9L25 9L25 8L26 8L26 4L25 4L25 8L24 8L24 6L23 6L23 5L24 5L24 4L23 4L23 5L21 5L21 8L20 8L20 12L19 12L19 14L21 14L21 13L22 13L22 15L23 15L23 13L25 13L25 12L27 12L27 11L29 11L29 10L30 10L30 12L28 12L28 13L26 13L26 15L25 15L25 14L24 14L24 15L25 15L25 16L27 16L27 17L26 17L26 18L27 18L27 19L26 19L26 21L28 21L28 22L27 22L27 24L25 24L25 23L26 23L26 22L25 22L25 21L24 21L24 20L25 20L25 18L24 18L24 19L23 19L23 18L22 18L22 19L19 19L19 17L20 17L20 18L21 18L21 17L20 17L20 16L21 16L21 15L20 15L20 16L19 16L19 15L18 15L18 14L17 14L17 13L18 13L18 12L17 12L17 11L18 11L18 10L17 10L17 8L19 8L19 7L20 7L20 5L19 5L19 7L18 7L18 6L17 6L17 7L16 7L16 8L15 8L15 7L14 7L14 6L13 6L13 5L12 5L12 6L11 6L11 9L9 9L9 11L8 11L8 12L7 12L7 11L5 11L5 12L4 12L4 10L3 10L3 11L2 11L2 10L1 10L1 11L2 11L2 12L3 12L3 14L4 14L4 13L6 13L6 14L5 14L5 15L4 15L4 16L3 16L3 19L2 19L2 20L3 20L3 21L5 21L5 22L9 22L9 23L6 23L6 24L7 24L7 25L6 25L6 26L7 26L7 25L8 25L8 26L9 26L9 30L10 30L10 28L11 28L11 27L10 27L10 25L11 25L11 26L13 26L13 28L12 28L12 29L11 29L11 32L12 32L12 33L11 33L11 34L10 34L10 33L9 33L9 32L10 32L10 31L9 31L9 32L8 32L8 31L6 31L6 32L5 32L5 31L4 31L4 32L5 32L5 34L7 34L7 33L6 33L6 32L8 32L8 33L9 33L9 34L10 34L10 35L11 35L11 34L12 34L12 33L13 33L13 32L14 32L14 34L15 34L15 37L16 37L16 38L14 38L14 37L13 37L13 39L12 39L12 41L13 41L13 39L14 39L14 43L13 43L13 42L12 42L12 44L11 44L11 45L10 45L10 44L9 44L9 43L8 43L8 42L7 42L7 43L6 43L6 44L5 44L5 43L4 43L4 44L5 44L5 46L3 46L3 47L5 47L5 46L11 46L11 47L12 47L12 46L11 46L11 45L13 45L13 46L14 46L14 45L13 45L13 44L16 44L16 43L18 43L18 42L19 42L19 41L20 41L20 43L19 43L19 44L20 44L20 43L22 43L22 41L23 41L23 40L24 40L24 41L25 41L25 42L24 42L24 45L22 45L22 44L21 44L21 45L19 45L19 47L18 47L18 46L17 46L17 45L18 45L18 44L17 44L17 45L15 45L15 47L17 47L17 48L19 48L19 49L16 49L16 48L14 48L14 47L13 47L13 48L12 48L12 49L13 49L13 48L14 48L14 49L16 49L16 50L14 50L14 52L15 52L15 51L16 51L16 53L17 53L17 51L18 51L18 52L20 52L20 51L21 51L21 49L24 49L24 47L25 47L25 50L26 50L26 48L29 48L29 45L27 45L27 44L26 44L26 43L27 43L27 42L28 42L28 43L29 43L29 44L32 44L32 45L30 45L30 46L31 46L31 47L33 47L33 48L31 48L31 49L33 49L33 50L31 50L31 52L32 52L32 54L37 54L37 53L38 53L38 54L39 54L39 53L38 53L38 52L37 52L37 51L38 51L38 50L39 50L39 52L40 52L40 51L41 51L41 52L43 52L43 51L44 51L44 53L45 53L45 50L47 50L47 51L46 51L46 52L47 52L47 51L48 51L48 48L49 48L49 47L51 47L51 48L54 48L54 47L53 47L53 45L52 45L52 44L53 44L53 43L54 43L54 40L52 40L52 39L51 39L51 38L56 38L56 37L55 37L55 36L54 36L54 35L55 35L55 34L56 34L56 33L55 33L55 32L53 32L53 31L51 31L51 32L50 32L50 35L49 35L49 31L48 31L48 29L46 29L46 30L45 30L45 27L44 27L44 26L43 26L43 28L42 28L42 27L41 27L41 25L42 25L42 24L44 24L44 25L45 25L45 26L47 26L47 27L46 27L46 28L47 28L47 27L48 27L48 26L47 26L47 25L45 25L45 23L44 23L44 21L45 21L45 22L47 22L47 21L48 21L48 19L50 19L50 18L48 18L48 19L45 19L45 18L44 18L44 19L45 19L45 20L40 20L40 19L41 19L41 18L42 18L42 19L43 19L43 18L42 18L42 17L41 17L41 16L42 16L42 15L45 15L45 12L46 12L46 14L47 14L47 13L49 13L49 12L48 12L48 11L49 11L49 10L48 10L48 9L49 9L49 8L48 8L48 9L45 9L45 8L43 8L43 7L44 7L44 6L45 6L45 7L46 7L46 5L47 5L47 3L43 3L43 7L42 7L42 6L41 6L41 5L40 5L40 4L39 4L39 2L38 2L38 1L37 1L37 2L36 2L36 1ZM8 3L8 4L9 4L9 3ZM28 3L28 4L29 4L29 3ZM33 3L33 6L32 6L32 7L33 7L33 6L34 6L34 8L36 8L36 10L38 10L38 9L39 9L39 11L35 11L35 10L34 10L34 9L33 9L33 11L32 11L32 12L31 12L31 13L32 13L32 14L30 14L30 13L28 13L28 14L27 14L27 16L28 16L28 17L27 17L27 18L28 18L28 19L27 19L27 20L28 20L28 19L29 19L29 18L31 18L31 17L29 17L29 16L28 16L28 15L29 15L29 14L30 14L30 16L34 16L34 17L32 17L32 18L34 18L34 19L30 19L30 20L29 20L29 21L30 21L30 22L28 22L28 24L27 24L27 25L26 25L26 26L25 26L25 25L23 25L23 26L25 26L25 27L24 27L24 28L23 28L23 29L24 29L24 30L22 30L22 31L21 31L21 32L20 32L20 31L19 31L19 32L18 32L18 33L19 33L19 34L18 34L18 35L20 35L20 33L21 33L21 36L23 36L23 37L19 37L19 36L17 36L17 38L18 38L18 39L17 39L17 40L16 40L16 39L15 39L15 43L16 43L16 41L19 41L19 40L20 40L20 41L21 41L21 40L22 40L22 39L24 39L24 40L25 40L25 39L26 39L26 40L27 40L27 41L26 41L26 42L27 42L27 41L28 41L28 39L27 39L27 38L28 38L28 37L27 37L27 38L25 38L25 36L26 36L26 35L27 35L27 33L29 33L29 34L30 34L30 35L29 35L29 39L31 39L31 40L29 40L29 43L31 43L31 42L32 42L32 41L31 41L31 40L32 40L32 39L31 39L31 38L32 38L32 35L31 35L31 32L36 32L36 33L35 33L35 34L33 34L33 35L34 35L34 36L35 36L35 34L36 34L36 35L37 35L37 34L38 34L38 37L37 37L37 36L36 36L36 37L35 37L35 38L34 38L34 37L33 37L33 38L34 38L34 40L35 40L35 42L36 42L36 43L35 43L35 44L36 44L36 45L35 45L35 46L33 46L33 45L32 45L32 46L33 46L33 47L35 47L35 48L36 48L36 49L37 49L37 50L36 50L36 51L35 51L35 50L33 50L33 51L32 51L32 52L36 52L36 53L37 53L37 52L36 52L36 51L37 51L37 50L38 50L38 49L39 49L39 48L41 48L41 49L42 49L42 50L41 50L41 51L42 51L42 50L44 50L44 49L43 49L43 48L45 48L45 49L46 49L46 48L45 48L45 47L47 47L47 46L46 46L46 45L47 45L47 44L49 44L49 45L48 45L48 46L51 46L51 47L52 47L52 45L50 45L50 44L52 44L52 43L53 43L53 42L51 42L51 41L52 41L52 40L51 40L51 41L48 41L48 42L47 42L47 43L46 43L46 42L45 42L45 41L47 41L47 40L46 40L46 39L48 39L48 38L49 38L49 40L50 40L50 37L47 37L47 38L46 38L46 36L45 36L45 37L44 37L44 35L48 35L48 33L47 33L47 34L44 34L44 33L43 33L43 32L45 32L45 33L46 33L46 32L45 32L45 30L44 30L44 28L43 28L43 29L42 29L42 30L41 30L41 31L40 31L40 32L38 32L38 31L37 31L37 30L38 30L38 29L40 29L40 28L41 28L41 27L40 27L40 25L39 25L39 23L40 23L40 20L36 20L36 21L37 21L37 22L36 22L36 23L35 23L35 22L33 22L33 21L32 21L32 20L34 20L34 21L35 21L35 18L37 18L37 19L39 19L39 18L41 18L41 17L40 17L40 16L41 16L41 15L42 15L42 14L44 14L44 13L43 13L43 12L45 12L45 11L47 11L47 10L45 10L45 9L43 9L43 8L42 8L42 9L39 9L39 8L40 8L40 7L41 7L41 6L40 6L40 7L39 7L39 5L38 5L38 3L36 3L36 5L34 5L34 4L35 4L35 3ZM44 4L44 5L46 5L46 4ZM27 5L27 8L30 8L30 5ZM36 5L36 6L35 6L35 7L36 7L36 8L37 8L37 9L38 9L38 8L37 8L37 7L38 7L38 5ZM12 6L12 7L13 7L13 8L12 8L12 9L11 9L11 10L10 10L10 12L8 12L8 15L9 15L9 13L10 13L10 12L11 12L11 14L10 14L10 15L11 15L11 14L12 14L12 16L13 16L13 17L10 17L10 18L12 18L12 19L10 19L10 20L12 20L12 19L13 19L13 20L14 20L14 19L13 19L13 17L14 17L14 18L16 18L16 19L18 19L18 21L20 21L20 20L19 20L19 19L18 19L18 17L19 17L19 16L18 16L18 17L17 17L17 14L15 14L15 15L16 15L16 17L14 17L14 14L12 14L12 13L17 13L17 12L15 12L15 11L16 11L16 10L15 10L15 9L14 9L14 7L13 7L13 6ZM22 6L22 8L23 8L23 9L24 9L24 10L25 10L25 9L24 9L24 8L23 8L23 6ZM28 6L28 7L29 7L29 6ZM36 6L36 7L37 7L37 6ZM55 8L55 9L56 9L56 8ZM22 10L22 11L21 11L21 12L20 12L20 13L21 13L21 12L22 12L22 13L23 13L23 10ZM26 10L26 11L27 11L27 10ZM41 10L41 12L38 12L38 13L36 13L36 14L35 14L35 13L33 13L33 12L32 12L32 13L33 13L33 14L35 14L35 15L34 15L34 16L37 16L37 18L39 18L39 16L40 16L40 15L41 15L41 14L42 14L42 11L43 11L43 10ZM44 10L44 11L45 11L45 10ZM52 10L52 11L53 11L53 10ZM11 11L11 12L14 12L14 11ZM34 11L34 12L35 12L35 11ZM6 12L6 13L7 13L7 12ZM39 13L39 14L36 14L36 15L37 15L37 16L38 16L38 15L40 15L40 14L41 14L41 13ZM51 13L51 14L52 14L52 13ZM55 13L55 14L54 14L54 15L55 15L55 14L56 14L56 13ZM6 14L6 15L7 15L7 14ZM4 16L4 19L5 19L5 20L6 20L6 21L8 21L8 19L7 19L7 18L6 18L6 17L8 17L8 18L9 18L9 16L6 16L6 17L5 17L5 16ZM22 16L22 17L24 17L24 16ZM16 17L16 18L17 18L17 17ZM34 17L34 18L35 18L35 17ZM5 18L5 19L6 19L6 20L7 20L7 19L6 19L6 18ZM22 19L22 20L23 20L23 19ZM15 20L15 21L16 21L16 22L15 22L15 23L16 23L16 25L19 25L19 29L18 29L18 28L17 28L17 27L18 27L18 26L16 26L16 28L15 28L15 29L18 29L18 30L19 30L19 29L22 29L22 28L20 28L20 27L22 27L22 26L20 26L20 25L19 25L19 24L17 24L17 23L20 23L20 22L17 22L17 21L16 21L16 20ZM45 20L45 21L46 21L46 20ZM12 21L12 22L11 22L11 23L12 23L12 25L13 25L13 24L14 24L14 25L15 25L15 24L14 24L14 23L12 23L12 22L14 22L14 21ZM21 21L21 23L22 23L22 22L24 22L24 21ZM38 21L38 22L37 22L37 23L36 23L36 24L35 24L35 23L34 23L34 24L35 24L35 25L33 25L33 28L32 28L32 27L31 27L31 28L32 28L32 30L35 30L35 31L36 31L36 32L37 32L37 31L36 31L36 30L37 30L37 29L38 29L38 28L40 28L40 27L39 27L39 25L38 25L38 26L37 26L37 27L36 27L36 26L35 26L35 25L36 25L36 24L38 24L38 22L39 22L39 21ZM41 21L41 24L42 24L42 22L43 22L43 21ZM30 22L30 23L31 23L31 24L33 24L33 23L31 23L31 22ZM23 23L23 24L24 24L24 23ZM3 24L3 26L4 26L4 24ZM8 24L8 25L10 25L10 24ZM28 24L28 25L27 25L27 26L28 26L28 25L30 25L30 24ZM1 25L1 26L2 26L2 25ZM31 25L31 26L32 26L32 25ZM34 26L34 28L33 28L33 29L35 29L35 30L36 30L36 29L37 29L37 28L38 28L38 27L37 27L37 28L35 28L35 26ZM1 27L1 28L4 28L4 27ZM5 27L5 30L8 30L8 27ZM25 27L25 28L24 28L24 29L25 29L25 30L24 30L24 31L22 31L22 33L24 33L24 31L25 31L25 34L24 34L24 36L25 36L25 34L26 34L26 33L27 33L27 31L25 31L25 30L26 30L26 27ZM27 27L27 30L30 30L30 27ZM49 27L49 30L52 30L52 27ZM6 28L6 29L7 29L7 28ZM28 28L28 29L29 29L29 28ZM50 28L50 29L51 29L51 28ZM1 29L1 32L2 32L2 34L3 34L3 35L4 35L4 36L1 36L1 37L4 37L4 36L5 36L5 37L6 37L6 36L7 36L7 35L6 35L6 36L5 36L5 35L4 35L4 34L3 34L3 31L2 31L2 29ZM3 29L3 30L4 30L4 29ZM53 29L53 30L54 30L54 29ZM12 30L12 31L13 31L13 30ZM16 30L16 31L17 31L17 30ZM42 30L42 31L41 31L41 32L40 32L40 33L41 33L41 32L43 32L43 31L44 31L44 30ZM46 30L46 31L47 31L47 32L48 32L48 31L47 31L47 30ZM14 31L14 32L15 32L15 31ZM28 31L28 32L29 32L29 33L30 33L30 31ZM16 32L16 33L15 33L15 34L16 34L16 35L17 35L17 34L16 34L16 33L17 33L17 32ZM51 32L51 33L53 33L53 32ZM36 33L36 34L37 34L37 33ZM38 33L38 34L39 34L39 33ZM54 33L54 34L55 34L55 33ZM22 34L22 35L23 35L23 34ZM40 34L40 35L39 35L39 36L40 36L40 38L39 38L39 37L38 37L38 38L35 38L35 40L37 40L37 39L38 39L38 40L39 40L39 41L36 41L36 42L39 42L39 43L36 43L36 44L37 44L37 46L39 46L39 45L41 45L41 46L42 46L42 47L43 47L43 46L42 46L42 45L45 45L45 44L41 44L41 43L42 43L42 42L41 42L41 41L42 41L42 40L40 40L40 39L42 39L42 38L41 38L41 37L42 37L42 36L40 36L40 35L44 35L44 34ZM52 34L52 36L51 36L51 37L52 37L52 36L53 36L53 37L54 37L54 36L53 36L53 34ZM30 36L30 38L31 38L31 36ZM18 37L18 38L19 38L19 39L18 39L18 40L19 40L19 39L20 39L20 38L19 38L19 37ZM23 37L23 38L24 38L24 37ZM43 37L43 40L44 40L44 41L45 41L45 39L46 39L46 38L44 38L44 37ZM38 38L38 39L39 39L39 38ZM30 41L30 42L31 42L31 41ZM33 41L33 44L34 44L34 41ZM39 41L39 42L40 42L40 41ZM0 42L0 43L2 43L2 42ZM44 42L44 43L45 43L45 42ZM48 42L48 43L49 43L49 42ZM50 42L50 43L51 43L51 42ZM7 43L7 44L6 44L6 45L7 45L7 44L8 44L8 43ZM25 44L25 45L24 45L24 46L25 46L25 45L26 45L26 44ZM38 44L38 45L39 45L39 44ZM54 44L54 45L55 45L55 44ZM21 45L21 46L20 46L20 47L21 47L21 48L20 48L20 49L19 49L19 50L18 50L18 51L19 51L19 50L20 50L20 49L21 49L21 48L23 48L23 47L22 47L22 45ZM1 46L1 47L2 47L2 46ZM26 46L26 47L27 47L27 46ZM36 47L36 48L39 48L39 47ZM8 48L8 49L9 49L9 48ZM27 49L27 52L30 52L30 49ZM49 49L49 52L52 52L52 49ZM28 50L28 51L29 51L29 50ZM50 50L50 51L51 51L51 50ZM11 51L11 53L12 53L12 51ZM25 51L25 53L26 53L26 51ZM54 51L54 52L55 52L55 51ZM56 51L56 52L57 52L57 51ZM49 53L49 54L51 54L51 55L53 55L53 54L51 54L51 53ZM11 54L11 57L12 57L12 56L13 56L13 57L15 57L15 56L13 56L13 54ZM22 55L22 56L24 56L24 57L26 57L26 56L28 56L28 55L26 55L26 56L24 56L24 55ZM38 56L38 57L39 57L39 56ZM0 0L0 7L7 7L7 0ZM1 1L1 6L6 6L6 1ZM2 2L2 5L5 5L5 2ZM50 0L50 7L57 7L57 0ZM51 1L51 6L56 6L56 1ZM52 2L52 5L55 5L55 2ZM0 50L0 57L7 57L7 50ZM1 51L1 56L6 56L6 51ZM2 52L2 55L5 55L5 52Z" fill="#000000"/></g></g></svg>
