<?xml version="1.0" encoding="UTF-8"?>
<svg xmlns="http://www.w3.org/2000/svg" version="1.1" width="300" height="300" viewBox="0 0 300 300"><rect x="0" y="0" width="300" height="300" fill="#ffffff"/><g transform="scale(4.918)"><g transform="translate(2,2)"><path fill-rule="evenodd" d="M9 0L9 1L8 1L8 2L9 2L9 3L8 3L8 4L9 4L9 3L10 3L10 2L11 2L11 4L12 4L12 3L14 3L14 2L11 2L11 1L15 1L15 0L11 0L11 1L10 1L10 0ZM19 0L19 1L18 1L18 2L20 2L20 0ZM21 0L21 1L23 1L23 2L24 2L24 3L26 3L26 0ZM28 0L28 1L27 1L27 3L29 3L29 4L26 4L26 5L25 5L25 4L24 4L24 5L23 5L23 4L22 4L22 2L21 2L21 4L19 4L19 3L18 3L18 4L17 4L17 6L16 6L16 7L15 7L15 6L14 6L14 7L13 7L13 5L16 5L16 4L13 4L13 5L12 5L12 8L10 8L10 7L11 7L11 5L10 5L10 7L9 7L9 5L8 5L8 7L9 7L9 8L6 8L6 9L8 9L8 10L6 10L6 11L5 11L5 8L0 8L0 13L1 13L1 14L2 14L2 16L1 16L1 15L0 15L0 17L4 17L4 16L5 16L5 19L7 19L7 20L6 20L6 21L3 21L3 22L4 22L4 23L2 23L2 19L4 19L4 18L1 18L1 19L0 19L0 20L1 20L1 21L0 21L0 22L1 22L1 23L2 23L2 25L1 25L1 24L0 24L0 25L1 25L1 26L2 26L2 29L1 29L1 27L0 27L0 31L2 31L2 32L3 32L3 33L2 33L2 34L3 34L3 35L2 35L2 36L3 36L3 35L5 35L5 36L4 36L4 38L3 38L3 40L4 40L4 41L5 41L5 42L3 42L3 44L4 44L4 43L5 43L5 45L3 45L3 46L2 46L2 47L1 47L1 46L0 46L0 48L5 48L5 47L8 47L8 51L9 51L9 49L10 49L10 52L8 52L8 57L11 57L11 54L12 54L12 57L16 57L16 56L17 56L17 57L19 57L19 56L18 56L18 55L20 55L20 54L17 54L17 53L20 53L20 51L17 51L17 50L11 50L11 49L13 49L13 48L14 48L14 49L19 49L19 50L20 50L20 49L21 49L21 48L20 48L20 47L19 47L19 48L18 48L18 46L19 46L19 45L21 45L21 47L22 47L22 45L24 45L24 46L23 46L23 47L24 47L24 48L25 48L25 49L22 49L22 50L23 50L23 51L24 51L24 52L23 52L23 53L22 53L22 52L21 52L21 53L22 53L22 54L21 54L21 55L22 55L22 54L23 54L23 53L24 53L24 54L25 54L25 53L26 53L26 55L27 55L27 56L28 56L28 55L27 55L27 53L28 53L28 54L30 54L30 55L29 55L29 57L32 57L32 56L33 56L33 57L34 57L34 56L33 56L33 55L35 55L35 56L36 56L36 57L37 57L37 56L38 56L38 57L39 57L39 56L40 56L40 52L41 52L41 51L42 51L42 52L43 52L43 53L42 53L42 54L41 54L41 55L42 55L42 56L41 56L41 57L43 57L43 56L46 56L46 57L47 57L47 56L48 56L48 57L49 57L49 54L50 54L50 53L51 53L51 54L53 54L53 55L51 55L51 56L50 56L50 57L52 57L52 56L55 56L55 57L56 57L56 56L55 56L55 53L54 53L54 52L55 52L55 51L56 51L56 52L57 52L57 51L56 51L56 50L57 50L57 49L56 49L56 48L55 48L55 47L54 47L54 48L55 48L55 49L54 49L54 52L53 52L53 47L52 47L52 45L54 45L54 46L57 46L57 45L56 45L56 44L55 44L55 43L56 43L56 42L57 42L57 41L56 41L56 42L55 42L55 40L56 40L56 39L54 39L54 38L55 38L55 37L54 37L54 36L56 36L56 37L57 37L57 36L56 36L56 34L57 34L57 33L56 33L56 32L55 32L55 31L56 31L56 30L57 30L57 28L56 28L56 25L54 25L54 24L56 24L56 22L57 22L57 21L55 21L55 22L53 22L53 21L54 21L54 20L57 20L57 19L56 19L56 18L57 18L57 17L54 17L54 16L57 16L57 15L55 15L55 14L57 14L57 13L56 13L56 10L57 10L57 9L56 9L56 8L55 8L55 9L56 9L56 10L55 10L55 11L54 11L54 10L52 10L52 8L51 8L51 10L50 10L50 8L49 8L49 6L48 6L48 8L49 8L49 9L48 9L48 10L50 10L50 11L52 11L52 12L53 12L53 11L54 11L54 12L55 12L55 13L54 13L54 15L53 15L53 18L54 18L54 20L53 20L53 19L51 19L51 18L50 18L50 16L49 16L49 17L48 17L48 16L46 16L46 15L51 15L51 16L52 16L52 15L51 15L51 14L52 14L52 13L51 13L51 12L49 12L49 13L47 13L47 14L46 14L46 12L45 12L45 11L47 11L47 10L44 10L44 11L43 11L43 9L44 9L44 8L45 8L45 9L47 9L47 8L45 8L45 6L44 6L44 8L42 8L42 7L43 7L43 6L42 6L42 5L43 5L43 3L47 3L47 5L46 5L46 7L47 7L47 5L48 5L48 0L46 0L46 1L44 1L44 2L42 2L42 1L43 1L43 0L42 0L42 1L41 1L41 2L40 2L40 0L39 0L39 1L38 1L38 0L35 0L35 1L33 1L33 0L32 0L32 1L31 1L31 0L30 0L30 1L29 1L29 0ZM16 1L16 2L15 2L15 3L16 3L16 2L17 2L17 1ZM24 1L24 2L25 2L25 1ZM28 1L28 2L29 2L29 1ZM30 1L30 2L31 2L31 1ZM32 1L32 2L33 2L33 1ZM35 1L35 2L34 2L34 3L32 3L32 4L31 4L31 3L30 3L30 4L31 4L31 7L32 7L32 6L33 6L33 7L34 7L34 6L35 6L35 7L36 7L36 8L34 8L34 9L33 9L33 8L31 8L31 10L30 10L30 9L28 9L28 10L30 10L30 11L31 11L31 10L32 10L32 9L33 9L33 10L36 10L36 8L37 8L37 7L38 7L38 6L39 6L39 7L40 7L40 6L41 6L41 7L42 7L42 6L41 6L41 3L40 3L40 5L39 5L39 2L38 2L38 1ZM46 1L46 2L47 2L47 1ZM37 2L37 3L36 3L36 5L35 5L35 6L36 6L36 7L37 7L37 6L38 6L38 2ZM18 4L18 6L17 6L17 7L16 7L16 8L12 8L12 9L11 9L11 10L13 10L13 9L15 9L15 10L16 10L16 11L15 11L15 13L13 13L13 12L14 12L14 11L13 11L13 12L11 12L11 11L9 11L9 13L11 13L11 14L8 14L8 11L6 11L6 12L5 12L5 11L2 11L2 12L1 12L1 13L2 13L2 12L3 12L3 13L5 13L5 16L7 16L7 15L9 15L9 16L8 16L8 17L6 17L6 18L7 18L7 19L8 19L8 20L7 20L7 21L6 21L6 22L5 22L5 26L8 26L8 25L6 25L6 24L8 24L8 20L9 20L9 19L8 19L8 17L9 17L9 16L11 16L11 15L12 15L12 18L11 18L11 17L10 17L10 19L11 19L11 20L10 20L10 21L9 21L9 22L11 22L11 24L10 24L10 23L9 23L9 26L10 26L10 25L11 25L11 26L12 26L12 25L13 25L13 26L14 26L14 27L9 27L9 28L10 28L10 29L9 29L9 30L10 30L10 33L9 33L9 32L7 32L7 31L3 31L3 32L4 32L4 33L3 33L3 34L8 34L8 36L7 36L7 35L6 35L6 36L7 36L7 37L5 37L5 38L4 38L4 39L5 39L5 41L6 41L6 42L5 42L5 43L6 43L6 44L7 44L7 45L5 45L5 46L3 46L3 47L5 47L5 46L7 46L7 45L10 45L10 46L8 46L8 47L10 47L10 49L11 49L11 47L13 47L13 46L11 46L11 45L10 45L10 44L7 44L7 43L11 43L11 44L13 44L13 45L16 45L16 46L17 46L17 45L18 45L18 44L17 44L17 43L18 43L18 42L17 42L17 40L18 40L18 39L20 39L20 38L19 38L19 37L21 37L21 41L20 41L20 40L19 40L19 41L20 41L20 43L22 43L22 42L23 42L23 44L24 44L24 45L25 45L25 48L27 48L27 47L28 47L28 48L32 48L32 49L31 49L31 52L32 52L32 54L35 54L35 55L36 55L36 56L37 56L37 55L39 55L39 52L40 52L40 51L41 51L41 50L42 50L42 51L44 51L44 53L43 53L43 54L42 54L42 55L45 55L45 54L49 54L49 53L48 53L48 52L47 52L47 51L48 51L48 48L50 48L50 47L51 47L51 48L52 48L52 47L51 47L51 46L50 46L50 47L49 47L49 46L48 46L48 44L47 44L47 45L46 45L46 46L48 46L48 47L46 47L46 48L44 48L44 47L43 47L43 46L44 46L44 45L45 45L45 44L44 44L44 43L45 43L45 42L44 42L44 43L43 43L43 44L40 44L40 45L41 45L41 46L42 46L42 47L43 47L43 48L44 48L44 49L45 49L45 50L42 50L42 48L40 48L40 47L39 47L39 43L38 43L38 42L40 42L40 43L42 43L42 42L40 42L40 41L41 41L41 39L42 39L42 41L43 41L43 40L44 40L44 41L46 41L46 42L47 42L47 43L48 43L48 42L47 42L47 41L48 41L48 40L44 40L44 39L45 39L45 38L47 38L47 37L48 37L48 36L45 36L45 34L47 34L47 33L48 33L48 35L51 35L51 36L52 36L52 37L50 37L50 36L49 36L49 37L50 37L50 39L49 39L49 41L52 41L52 44L53 44L53 43L54 43L54 40L53 40L53 41L52 41L52 40L50 40L50 39L53 39L53 38L54 38L54 37L53 37L53 36L54 36L54 35L55 35L55 34L54 34L54 35L53 35L53 36L52 36L52 34L53 34L53 33L55 33L55 32L54 32L54 31L52 31L52 32L53 32L53 33L51 33L51 32L50 32L50 34L49 34L49 31L48 31L48 28L47 28L47 27L48 27L48 25L49 25L49 24L50 24L50 26L51 26L51 25L53 25L53 27L55 27L55 26L54 26L54 25L53 25L53 24L51 24L51 23L50 23L50 22L52 22L52 23L53 23L53 22L52 22L52 21L53 21L53 20L51 20L51 19L50 19L50 18L48 18L48 17L45 17L45 16L43 16L43 14L44 14L44 15L45 15L45 12L44 12L44 13L43 13L43 14L42 14L42 10L41 10L41 11L40 11L40 12L38 12L38 13L37 13L37 14L39 14L39 15L38 15L38 16L37 16L37 15L36 15L36 16L35 16L35 15L33 15L33 14L36 14L36 12L37 12L37 11L36 11L36 12L35 12L35 11L34 11L34 12L35 12L35 13L33 13L33 11L32 11L32 13L31 13L31 12L28 12L28 13L25 13L25 12L27 12L27 11L26 11L26 10L27 10L27 9L26 9L26 8L25 8L25 7L26 7L26 6L25 6L25 7L24 7L24 6L23 6L23 5L22 5L22 4L21 4L21 5L22 5L22 6L21 6L21 7L22 7L22 6L23 6L23 7L24 7L24 8L19 8L19 7L20 7L20 5L19 5L19 4ZM44 4L44 5L45 5L45 4ZM27 5L27 8L30 8L30 5ZM36 5L36 6L37 6L37 5ZM18 6L18 7L19 7L19 6ZM28 6L28 7L29 7L29 6ZM18 8L18 9L17 9L17 10L18 10L18 11L16 11L16 13L15 13L15 14L16 14L16 15L18 15L18 16L17 16L17 17L19 17L19 18L17 18L17 21L16 21L16 18L15 18L15 21L16 21L16 22L14 22L14 21L13 21L13 22L14 22L14 23L16 23L16 24L14 24L14 26L15 26L15 25L18 25L18 26L16 26L16 29L15 29L15 28L14 28L14 29L13 29L13 28L12 28L12 29L13 29L13 30L11 30L11 29L10 29L10 30L11 30L11 34L15 34L15 35L11 35L11 36L10 36L10 39L9 39L9 40L10 40L10 41L11 41L11 39L12 39L12 42L13 42L13 44L16 44L16 45L17 45L17 44L16 44L16 43L14 43L14 42L13 42L13 41L14 41L14 40L15 40L15 41L16 41L16 39L15 39L15 38L16 38L16 37L15 37L15 35L16 35L16 33L19 33L19 31L20 31L20 30L19 30L19 29L21 29L21 30L22 30L22 31L21 31L21 32L20 32L20 33L21 33L21 34L24 34L24 35L25 35L25 36L26 36L26 35L27 35L27 33L30 33L30 34L29 34L29 36L27 36L27 37L29 37L29 39L31 39L31 40L30 40L30 42L26 42L26 44L25 44L25 41L23 41L23 42L24 42L24 44L25 44L25 45L26 45L26 44L27 44L27 43L28 43L28 45L27 45L27 46L26 46L26 47L27 47L27 46L28 46L28 47L32 47L32 48L33 48L33 49L32 49L32 50L34 50L34 51L32 51L32 52L33 52L33 53L35 53L35 54L36 54L36 55L37 55L37 54L38 54L38 52L39 52L39 51L40 51L40 50L41 50L41 49L40 49L40 48L39 48L39 47L38 47L38 48L36 48L36 47L37 47L37 46L38 46L38 43L37 43L37 44L35 44L35 45L36 45L36 46L30 46L30 45L31 45L31 44L29 44L29 43L31 43L31 42L32 42L32 40L34 40L34 41L35 41L35 42L33 42L33 43L32 43L32 44L34 44L34 43L35 43L35 42L38 42L38 41L39 41L39 40L40 40L40 39L38 39L38 41L37 41L37 38L38 38L38 37L39 37L39 38L40 38L40 36L41 36L41 37L42 37L42 38L43 38L43 37L44 37L44 38L45 38L45 37L44 37L44 34L45 34L45 33L44 33L44 32L45 32L45 31L44 31L44 32L43 32L43 31L42 31L42 30L44 30L44 28L45 28L45 30L46 30L46 31L47 31L47 32L48 32L48 31L47 31L47 30L46 30L46 29L47 29L47 28L46 28L46 27L47 27L47 26L46 26L46 27L45 27L45 26L44 26L44 23L45 23L45 25L48 25L48 23L49 23L49 22L50 22L50 19L48 19L48 18L45 18L45 17L43 17L43 16L42 16L42 17L40 17L40 16L41 16L41 15L42 15L42 14L40 14L40 16L39 16L39 18L36 18L36 17L37 17L37 16L36 16L36 17L35 17L35 18L33 18L33 19L31 19L31 20L29 20L29 18L32 18L32 16L33 16L33 15L32 15L32 14L33 14L33 13L32 13L32 14L31 14L31 13L28 13L28 14L26 14L26 15L28 15L28 16L29 16L29 14L31 14L31 15L30 15L30 16L31 16L31 17L29 17L29 18L26 18L26 17L27 17L27 16L25 16L25 13L22 13L22 16L25 16L25 17L21 17L21 19L22 19L22 20L21 20L21 21L22 21L22 22L21 22L21 23L22 23L22 22L23 22L23 21L24 21L24 25L21 25L21 26L20 26L20 25L19 25L19 24L18 24L18 23L20 23L20 22L17 22L17 21L20 21L20 20L19 20L19 18L20 18L20 17L19 17L19 15L18 15L18 14L20 14L20 13L21 13L21 12L25 12L25 9L21 9L21 10L20 10L20 9L19 9L19 8ZM38 8L38 11L39 11L39 9L42 9L42 8ZM53 8L53 9L54 9L54 8ZM1 9L1 10L2 10L2 9ZM3 9L3 10L4 10L4 9ZM9 9L9 10L10 10L10 9ZM18 9L18 10L19 10L19 9ZM22 10L22 11L23 11L23 10ZM20 11L20 12L19 12L19 13L20 13L20 12L21 12L21 11ZM6 12L6 13L7 13L7 12ZM17 12L17 13L16 13L16 14L17 14L17 13L18 13L18 12ZM49 13L49 14L51 14L51 13ZM3 14L3 16L4 16L4 14ZM6 14L6 15L7 15L7 14ZM23 14L23 15L24 15L24 14ZM13 15L13 18L12 18L12 19L13 19L13 20L14 20L14 19L13 19L13 18L14 18L14 16L15 16L15 17L16 17L16 16L15 16L15 15ZM20 15L20 16L21 16L21 15ZM31 15L31 16L32 16L32 15ZM22 18L22 19L23 19L23 18ZM24 18L24 21L25 21L25 19L26 19L26 21L27 21L27 22L28 22L28 23L26 23L26 22L25 22L25 23L26 23L26 25L25 25L25 26L26 26L26 25L27 25L27 24L28 24L28 26L29 26L29 25L31 25L31 24L32 24L32 27L31 27L31 28L32 28L32 29L33 29L33 30L37 30L37 31L36 31L36 32L35 32L35 31L34 31L34 32L32 32L32 30L31 30L31 32L32 32L32 33L31 33L31 34L32 34L32 38L31 38L31 35L30 35L30 38L31 38L31 39L33 39L33 38L34 38L34 39L35 39L35 38L37 38L37 37L36 37L36 36L40 36L40 35L43 35L43 34L44 34L44 33L43 33L43 32L42 32L42 31L41 31L41 30L42 30L42 29L43 29L43 28L42 28L42 26L41 26L41 25L43 25L43 23L44 23L44 21L45 21L45 22L47 22L47 23L48 23L48 21L49 21L49 20L47 20L47 19L46 19L46 20L42 20L42 19L45 19L45 18L39 18L39 19L38 19L38 22L37 22L37 21L36 21L36 20L37 20L37 19L36 19L36 18L35 18L35 19L34 19L34 21L33 21L33 20L32 20L32 21L33 21L33 22L35 22L35 23L31 23L31 22L30 22L30 21L29 21L29 20L28 20L28 19L26 19L26 18ZM40 19L40 20L39 20L39 21L40 21L40 20L41 20L41 19ZM11 20L11 22L12 22L12 20ZM22 20L22 21L23 21L23 20ZM27 20L27 21L28 21L28 20ZM46 20L46 21L47 21L47 20ZM41 21L41 22L43 22L43 21ZM6 22L6 23L7 23L7 22ZM29 22L29 23L28 23L28 24L31 24L31 23L30 23L30 22ZM36 22L36 23L35 23L35 24L36 24L36 25L37 25L37 26L34 26L34 25L33 25L33 27L32 27L32 28L33 28L33 29L37 29L37 30L38 30L38 27L37 27L37 26L38 26L38 23L37 23L37 22ZM39 22L39 23L40 23L40 22ZM36 23L36 24L37 24L37 23ZM2 25L2 26L3 26L3 25ZM39 25L39 26L40 26L40 27L39 27L39 28L40 28L40 27L41 27L41 26L40 26L40 25ZM18 26L18 27L17 27L17 28L18 28L18 29L16 29L16 31L17 31L17 30L18 30L18 31L19 31L19 30L18 30L18 29L19 29L19 27L20 27L20 26ZM21 26L21 28L22 28L22 30L23 30L23 31L22 31L22 32L21 32L21 33L25 33L25 34L26 34L26 33L25 33L25 32L29 32L29 31L24 31L24 29L25 29L25 30L26 30L26 27L25 27L25 28L24 28L24 27L22 27L22 26ZM5 27L5 30L8 30L8 27ZM27 27L27 30L30 30L30 27ZM33 27L33 28L34 28L34 27ZM35 27L35 28L36 28L36 27ZM49 27L49 30L52 30L52 27ZM6 28L6 29L7 29L7 28ZM23 28L23 29L24 29L24 28ZM28 28L28 29L29 29L29 28ZM50 28L50 29L51 29L51 28ZM54 28L54 29L53 29L53 30L56 30L56 29L55 29L55 28ZM2 29L2 30L3 30L3 29ZM39 29L39 32L41 32L41 31L40 31L40 30L41 30L41 29ZM12 31L12 33L14 33L14 31ZM37 31L37 32L36 32L36 33L37 33L37 32L38 32L38 31ZM5 32L5 33L7 33L7 32ZM34 32L34 33L35 33L35 32ZM0 33L0 34L1 34L1 33ZM8 33L8 34L9 34L9 35L10 35L10 34L9 34L9 33ZM32 33L32 34L33 34L33 35L35 35L35 34L33 34L33 33ZM41 33L41 34L43 34L43 33ZM17 34L17 36L18 36L18 37L17 37L17 38L18 38L18 37L19 37L19 36L20 36L20 34ZM36 34L36 35L40 35L40 34ZM21 35L21 37L22 37L22 38L23 38L23 39L25 39L25 40L27 40L27 39L28 39L28 38L26 38L26 39L25 39L25 37L24 37L24 36L23 36L23 35ZM0 36L0 38L2 38L2 37L1 37L1 36ZM8 36L8 37L7 37L7 38L6 38L6 39L7 39L7 40L6 40L6 41L8 41L8 42L9 42L9 41L8 41L8 39L7 39L7 38L9 38L9 36ZM12 36L12 37L11 37L11 38L12 38L12 37L13 37L13 38L14 38L14 37L13 37L13 36ZM22 36L22 37L23 37L23 38L24 38L24 37L23 37L23 36ZM34 36L34 37L35 37L35 36ZM0 39L0 40L2 40L2 39ZM0 41L0 42L2 42L2 41ZM6 42L6 43L7 43L7 42ZM50 42L50 43L51 43L51 42ZM0 43L0 45L1 45L1 44L2 44L2 43ZM21 44L21 45L22 45L22 44ZM43 44L43 45L42 45L42 46L43 46L43 45L44 45L44 44ZM49 44L49 45L51 45L51 44ZM54 44L54 45L55 45L55 44ZM28 45L28 46L29 46L29 45ZM10 46L10 47L11 47L11 46ZM15 47L15 48L17 48L17 47ZM33 47L33 48L34 48L34 50L36 50L36 48L35 48L35 47ZM6 48L6 49L7 49L7 48ZM19 48L19 49L20 49L20 48ZM38 48L38 50L37 50L37 52L38 52L38 50L39 50L39 48ZM46 48L46 49L47 49L47 48ZM25 49L25 50L24 50L24 51L25 51L25 52L24 52L24 53L25 53L25 52L26 52L26 49ZM27 49L27 52L30 52L30 49ZM49 49L49 52L52 52L52 49ZM55 49L55 50L56 50L56 49ZM28 50L28 51L29 51L29 50ZM45 50L45 51L47 51L47 50ZM50 50L50 51L51 51L51 50ZM11 51L11 53L9 53L9 54L11 54L11 53L12 53L12 54L13 54L13 53L14 53L14 54L16 54L16 53L17 53L17 52L16 52L16 51L15 51L15 52L16 52L16 53L14 53L14 52L13 52L13 53L12 53L12 51ZM35 51L35 52L36 52L36 51ZM46 52L46 53L47 53L47 52ZM44 53L44 54L45 54L45 53ZM53 53L53 54L54 54L54 53ZM9 55L9 56L10 56L10 55ZM13 55L13 56L14 56L14 55ZM15 55L15 56L16 56L16 55ZM20 56L20 57L21 57L21 56ZM23 56L23 57L24 57L24 56ZM25 56L25 57L26 57L26 56ZM0 0L0 7L7 7L7 0ZM1 1L1 6L6 6L6 1ZM2 2L2 5L5 5L5 2ZM50 0L50 7L57 7L57 0ZM51 1L51 6L56 6L56 1ZM52 2L52 5L55 5L55 2ZM0 50L0 57L7 57L7 50ZM1 51L1 56L6 56L6 51ZM2 52L2 55L5 55L5 52Z" fill="#000000"/></g></g></svg>
