<?xml version="1.0" encoding="UTF-8"?>
<svg xmlns="http://www.w3.org/2000/svg" version="1.1" width="300" height="300" viewBox="0 0 300 300"><rect x="0" y="0" width="300" height="300" fill="#ffffff"/><g transform="scale(4.918)"><g transform="translate(2,2)"><path fill-rule="evenodd" d="M10 0L10 1L12 1L12 0ZM14 0L14 1L13 1L13 2L14 2L14 3L16 3L16 2L18 2L18 4L17 4L17 5L18 5L18 4L19 4L19 5L20 5L20 7L19 7L19 6L18 6L18 9L17 9L17 8L16 8L16 7L17 7L17 6L16 6L16 7L15 7L15 6L14 6L14 8L11 8L11 5L12 5L12 7L13 7L13 5L12 5L12 4L13 4L13 3L12 3L12 2L9 2L9 1L8 1L8 2L9 2L9 3L8 3L8 4L9 4L9 5L8 5L8 7L9 7L9 5L10 5L10 8L11 8L11 9L10 9L10 10L9 10L9 8L6 8L6 9L5 9L5 8L0 8L0 9L1 9L1 12L2 12L2 11L3 11L3 12L4 12L4 11L5 11L5 12L6 12L6 13L7 13L7 14L4 14L4 13L3 13L3 14L4 14L4 15L3 15L3 16L2 16L2 15L1 15L1 16L0 16L0 17L2 17L2 18L1 18L1 19L2 19L2 20L3 20L3 21L1 21L1 20L0 20L0 24L1 24L1 22L5 22L5 23L7 23L7 22L5 22L5 21L7 21L7 20L8 20L8 21L9 21L9 20L10 20L10 21L11 21L11 22L10 22L10 23L9 23L9 22L8 22L8 23L9 23L9 24L5 24L5 25L3 25L3 24L2 24L2 25L3 25L3 26L4 26L4 27L1 27L1 28L0 28L0 31L1 31L1 32L0 32L0 34L1 34L1 35L0 35L0 38L1 38L1 37L2 37L2 38L3 38L3 39L4 39L4 41L7 41L7 42L6 42L6 43L7 43L7 44L5 44L5 42L3 42L3 44L4 44L4 45L3 45L3 46L2 46L2 47L1 47L1 45L2 45L2 44L1 44L1 45L0 45L0 48L5 48L5 47L8 47L8 48L6 48L6 49L8 49L8 51L10 51L10 50L9 50L9 49L8 49L8 48L11 48L11 47L12 47L12 45L13 45L13 48L12 48L12 49L11 49L11 51L12 51L12 49L13 49L13 48L15 48L15 49L14 49L14 50L13 50L13 51L14 51L14 50L15 50L15 53L14 53L14 52L11 52L11 53L9 53L9 52L8 52L8 57L9 57L9 56L10 56L10 55L11 55L11 53L12 53L12 55L13 55L13 54L15 54L15 55L14 55L14 56L13 56L13 57L14 57L14 56L15 56L15 57L22 57L22 56L23 56L23 57L24 57L24 55L22 55L22 54L24 54L24 53L25 53L25 56L26 56L26 54L27 54L27 53L28 53L28 54L29 54L29 53L30 53L30 54L31 54L31 55L29 55L29 57L30 57L30 56L31 56L31 57L32 57L32 55L33 55L33 57L37 57L37 56L38 56L38 57L39 57L39 56L41 56L41 57L42 57L42 55L40 55L40 52L41 52L41 54L43 54L43 53L44 53L44 54L45 54L45 53L44 53L44 51L43 51L43 53L42 53L42 52L41 52L41 51L40 51L40 50L37 50L37 49L38 49L38 47L39 47L39 48L46 48L46 49L47 49L47 48L46 48L46 47L47 47L47 46L48 46L48 45L49 45L49 46L51 46L51 47L49 47L49 48L48 48L48 51L47 51L47 50L45 50L45 51L47 51L47 52L48 52L48 53L47 53L47 55L43 55L43 56L45 56L45 57L46 57L46 56L47 56L47 57L48 57L48 55L49 55L49 56L50 56L50 57L52 57L52 56L53 56L53 57L54 57L54 56L55 56L55 57L56 57L56 56L55 56L55 55L54 55L54 53L53 53L53 52L55 52L55 51L54 51L54 50L55 50L55 49L53 49L53 48L55 48L55 47L54 47L54 46L55 46L55 45L54 45L54 44L55 44L55 43L56 43L56 42L55 42L55 41L54 41L54 43L53 43L53 42L51 42L51 41L53 41L53 40L51 40L51 41L49 41L49 43L47 43L47 42L46 42L46 43L45 43L45 47L44 47L44 44L43 44L43 43L41 43L41 42L43 42L43 41L44 41L44 40L43 40L43 39L42 39L42 41L41 41L41 42L39 42L39 43L40 43L40 44L39 44L39 45L40 45L40 44L43 44L43 45L42 45L42 46L37 46L37 48L36 48L36 45L38 45L38 44L36 44L36 43L37 43L37 42L38 42L38 41L40 41L40 40L41 40L41 39L40 39L40 40L38 40L38 41L37 41L37 39L39 39L39 38L40 38L40 36L41 36L41 37L42 37L42 38L43 38L43 37L44 37L44 38L45 38L45 41L47 41L47 40L49 40L49 39L50 39L50 37L48 37L48 39L47 39L47 40L46 40L46 38L45 38L45 37L44 37L44 35L42 35L42 34L43 34L43 33L42 33L42 34L41 34L41 33L40 33L40 32L41 32L41 31L42 31L42 32L45 32L45 31L42 31L42 30L46 30L46 31L47 31L47 32L48 32L48 31L50 31L50 32L49 32L49 34L48 34L48 33L47 33L47 34L45 34L45 35L46 35L46 36L47 36L47 35L49 35L49 36L51 36L51 37L53 37L53 38L54 38L54 40L55 40L55 39L57 39L57 37L55 37L55 38L54 38L54 37L53 37L53 36L55 36L55 34L57 34L57 32L55 32L55 29L56 29L56 30L57 30L57 28L56 28L56 26L57 26L57 25L56 25L56 24L57 24L57 23L56 23L56 22L57 22L57 19L56 19L56 21L55 21L55 22L53 22L53 23L52 23L52 22L50 22L50 19L51 19L51 18L53 18L53 19L52 19L52 20L55 20L55 19L54 19L54 18L55 18L55 17L54 17L54 16L55 16L55 15L56 15L56 16L57 16L57 15L56 15L56 14L57 14L57 13L56 13L56 12L57 12L57 11L56 11L56 10L55 10L55 11L54 11L54 10L52 10L52 8L51 8L51 10L49 10L49 9L50 9L50 8L49 8L49 9L48 9L48 8L46 8L46 7L47 7L47 5L48 5L48 0L46 0L46 1L45 1L45 2L44 2L44 0L42 0L42 1L41 1L41 2L39 2L39 1L38 1L38 0L37 0L37 1L36 1L36 2L37 2L37 3L36 3L36 5L35 5L35 6L34 6L34 5L33 5L33 6L32 6L32 7L31 7L31 4L32 4L32 3L34 3L34 2L35 2L35 1L34 1L34 0L32 0L32 1L31 1L31 0L28 0L28 1L26 1L26 0L24 0L24 1L23 1L23 0L21 0L21 1L23 1L23 2L22 2L22 3L23 3L23 4L19 4L19 2L20 2L20 0L17 0L17 1L16 1L16 2L14 2L14 1L15 1L15 0ZM24 1L24 2L23 2L23 3L24 3L24 2L25 2L25 3L26 3L26 4L25 4L25 8L26 8L26 4L27 4L27 3L28 3L28 4L31 4L31 3L28 3L28 2L31 2L31 1L28 1L28 2L26 2L26 1ZM32 1L32 2L34 2L34 1ZM37 1L37 2L38 2L38 3L37 3L37 4L38 4L38 5L36 5L36 6L35 6L35 7L34 7L34 6L33 6L33 8L31 8L31 9L32 9L32 10L29 10L29 9L28 9L28 10L27 10L27 9L25 9L25 12L24 12L24 13L22 13L22 12L21 12L21 11L22 11L22 10L21 10L21 9L24 9L24 6L23 6L23 5L24 5L24 4L23 4L23 5L21 5L21 9L20 9L20 10L19 10L19 9L18 9L18 10L17 10L17 9L16 9L16 8L14 8L14 9L11 9L11 11L10 11L10 13L9 13L9 11L8 11L8 9L6 9L6 10L5 10L5 9L4 9L4 10L3 10L3 11L4 11L4 10L5 10L5 11L6 11L6 12L7 12L7 13L8 13L8 14L7 14L7 15L5 15L5 17L4 17L4 16L3 16L3 18L2 18L2 19L3 19L3 20L4 20L4 19L6 19L6 20L7 20L7 19L8 19L8 20L9 20L9 19L8 19L8 18L10 18L10 19L11 19L11 21L14 21L14 22L13 22L13 24L12 24L12 22L11 22L11 23L10 23L10 24L11 24L11 25L10 25L10 27L9 27L9 28L10 28L10 31L5 31L5 32L4 32L4 31L3 31L3 34L2 34L2 33L1 33L1 34L2 34L2 36L3 36L3 37L6 37L6 38L7 38L7 39L5 39L5 40L7 40L7 39L8 39L8 36L10 36L10 37L9 37L9 38L12 38L12 40L13 40L13 41L15 41L15 43L14 43L14 42L11 42L11 40L10 40L10 39L9 39L9 41L8 41L8 42L10 42L10 43L8 43L8 44L7 44L7 45L4 45L4 46L3 46L3 47L5 47L5 46L7 46L7 45L8 45L8 44L10 44L10 46L9 46L9 47L11 47L11 45L12 45L12 44L13 44L13 45L14 45L14 47L15 47L15 46L16 46L16 47L17 47L17 49L15 49L15 50L17 50L17 51L16 51L16 53L15 53L15 54L16 54L16 53L18 53L18 54L17 54L17 55L18 55L18 54L20 54L20 55L19 55L19 56L21 56L21 54L22 54L22 53L24 53L24 51L25 51L25 53L26 53L26 50L24 50L24 51L23 51L23 49L24 49L24 47L25 47L25 48L26 48L26 46L27 46L27 48L31 48L31 49L32 49L32 50L31 50L31 52L32 52L32 54L37 54L37 55L39 55L39 53L38 53L38 52L40 52L40 51L36 51L36 48L35 48L35 47L33 47L33 48L31 48L31 47L29 47L29 46L32 46L32 45L33 45L33 46L35 46L35 43L34 43L34 44L33 44L33 42L36 42L36 41L35 41L35 40L36 40L36 36L37 36L37 38L39 38L39 37L38 37L38 36L40 36L40 35L41 35L41 36L42 36L42 37L43 37L43 36L42 36L42 35L41 35L41 34L39 34L39 32L40 32L40 31L41 31L41 30L42 30L42 29L43 29L43 28L44 28L44 29L45 29L45 27L46 27L46 28L47 28L47 29L46 29L46 30L47 30L47 31L48 31L48 28L47 28L47 27L48 27L48 26L47 26L47 25L50 25L50 26L51 26L51 25L50 25L50 24L52 24L52 25L53 25L53 27L55 27L55 26L54 26L54 25L53 25L53 24L52 24L52 23L50 23L50 22L48 22L48 21L49 21L49 19L48 19L48 21L45 21L45 20L43 20L43 22L42 22L42 23L41 23L41 22L40 22L40 24L38 24L38 22L39 22L39 21L38 21L38 20L40 20L40 21L42 21L42 20L40 20L40 19L38 19L38 18L42 18L42 19L43 19L43 18L42 18L42 17L41 17L41 16L40 16L40 15L38 15L38 18L37 18L37 19L36 19L36 18L35 18L35 16L37 16L37 15L36 15L36 14L39 14L39 13L41 13L41 14L42 14L42 15L43 15L43 16L44 16L44 19L45 19L45 18L47 18L47 16L48 16L48 17L49 17L49 16L50 16L50 18L51 18L51 17L53 17L53 18L54 18L54 17L53 17L53 16L54 16L54 15L55 15L55 14L54 14L54 13L55 13L55 12L54 12L54 11L53 11L53 12L52 12L52 11L50 11L50 12L48 12L48 11L49 11L49 10L48 10L48 9L46 9L46 8L43 8L43 9L45 9L45 10L43 10L43 12L44 12L44 14L42 14L42 11L39 11L39 9L40 9L40 10L41 10L41 8L42 8L42 6L43 6L43 7L44 7L44 6L45 6L45 7L46 7L46 6L45 6L45 5L47 5L47 3L46 3L46 4L45 4L45 3L42 3L42 2L43 2L43 1L42 1L42 2L41 2L41 3L40 3L40 6L39 6L39 4L38 4L38 3L39 3L39 2L38 2L38 1ZM46 1L46 2L47 2L47 1ZM9 3L9 4L10 4L10 5L11 5L11 4L10 4L10 3ZM41 3L41 5L43 5L43 4L42 4L42 3ZM14 4L14 5L16 5L16 4ZM44 4L44 5L45 5L45 4ZM27 5L27 8L30 8L30 5ZM22 6L22 8L23 8L23 6ZM28 6L28 7L29 7L29 6ZM36 6L36 7L35 7L35 8L36 8L36 9L37 9L37 12L34 12L34 11L35 11L35 10L33 10L33 13L32 13L32 12L31 12L31 11L27 11L27 10L26 10L26 11L27 11L27 12L25 12L25 13L24 13L24 14L23 14L23 15L24 15L24 16L23 16L23 20L24 20L24 21L22 21L22 20L21 20L21 19L22 19L22 17L21 17L21 19L19 19L19 18L20 18L20 17L19 17L19 16L20 16L20 13L21 13L21 16L22 16L22 13L21 13L21 12L20 12L20 11L21 11L21 10L20 10L20 11L19 11L19 10L18 10L18 11L17 11L17 12L16 12L16 11L15 11L15 10L12 10L12 11L14 11L14 12L13 12L13 13L12 13L12 12L11 12L11 13L10 13L10 14L8 14L8 15L7 15L7 16L6 16L6 17L7 17L7 18L6 18L6 19L7 19L7 18L8 18L8 15L10 15L10 16L9 16L9 17L10 17L10 18L11 18L11 17L12 17L12 18L15 18L15 17L14 17L14 16L16 16L16 17L17 17L17 16L16 16L16 15L15 15L15 14L16 14L16 13L17 13L17 15L18 15L18 17L19 17L19 18L18 18L18 19L17 19L17 21L16 21L16 19L15 19L15 21L16 21L16 22L14 22L14 23L16 23L16 24L13 24L13 28L14 28L14 27L15 27L15 25L16 25L16 24L17 24L17 21L20 21L20 20L21 20L21 21L22 21L22 22L21 22L21 24L22 24L22 23L23 23L23 25L21 25L21 26L20 26L20 24L19 24L19 23L20 23L20 22L19 22L19 23L18 23L18 25L17 25L17 27L18 27L18 25L19 25L19 26L20 26L20 27L19 27L19 28L20 28L20 29L18 29L18 28L15 28L15 29L18 29L18 31L19 31L19 32L18 32L18 33L19 33L19 34L17 34L17 35L16 35L16 34L15 34L15 33L17 33L17 32L16 32L16 31L15 31L15 30L14 30L14 29L12 29L12 28L11 28L11 30L12 30L12 31L10 31L10 32L9 32L9 33L8 33L8 32L6 32L6 33L8 33L8 34L5 34L5 35L4 35L4 34L3 34L3 35L4 35L4 36L6 36L6 37L7 37L7 36L8 36L8 34L9 34L9 33L10 33L10 35L11 35L11 36L12 36L12 38L14 38L14 36L17 36L17 37L19 37L19 38L18 38L18 39L19 39L19 40L17 40L17 41L18 41L18 43L15 43L15 44L14 44L14 45L17 45L17 47L18 47L18 49L19 49L19 50L18 50L18 51L17 51L17 52L18 52L18 53L20 53L20 52L21 52L21 53L22 53L22 52L23 52L23 51L22 51L22 49L21 49L21 50L20 50L20 49L19 49L19 47L18 47L18 46L20 46L20 45L21 45L21 46L22 46L22 48L23 48L23 47L24 47L24 46L25 46L25 45L26 45L26 44L27 44L27 45L30 45L30 44L27 44L27 43L26 43L26 44L25 44L25 43L24 43L24 44L23 44L23 42L25 42L25 41L24 41L24 40L25 40L25 39L26 39L26 40L27 40L27 38L28 38L28 36L27 36L27 38L25 38L25 36L26 36L26 35L27 35L27 33L29 33L29 34L30 34L30 35L31 35L31 38L30 38L30 36L29 36L29 39L28 39L28 41L29 41L29 39L31 39L31 38L32 38L32 34L31 34L31 33L32 33L32 32L33 32L33 31L35 31L35 32L36 32L36 33L35 33L35 34L33 34L33 35L35 35L35 34L36 34L36 35L37 35L37 34L38 34L38 35L39 35L39 34L38 34L38 33L37 33L37 32L38 32L38 31L40 31L40 29L39 29L39 30L37 30L37 28L35 28L35 27L34 27L34 26L33 26L33 25L34 25L34 24L35 24L35 25L37 25L37 26L36 26L36 27L37 27L37 26L38 26L38 25L37 25L37 24L35 24L35 22L33 22L33 21L35 21L35 20L34 20L34 19L35 19L35 18L33 18L33 19L32 19L32 18L31 18L31 17L29 17L29 16L28 16L28 15L30 15L30 16L35 16L35 14L36 14L36 13L38 13L38 12L39 12L39 11L38 11L38 8L41 8L41 6L40 6L40 7L39 7L39 6L38 6L38 7L37 7L37 6ZM48 6L48 7L49 7L49 6ZM36 7L36 8L37 8L37 7ZM33 8L33 9L34 9L34 8ZM53 8L53 9L54 9L54 8ZM55 8L55 9L56 9L56 8ZM6 10L6 11L7 11L7 12L8 12L8 11L7 11L7 10ZM23 10L23 11L24 11L24 10ZM45 10L45 11L46 11L46 10ZM15 12L15 13L13 13L13 14L12 14L12 13L11 13L11 14L10 14L10 15L12 15L12 16L13 16L13 15L14 15L14 14L15 14L15 13L16 13L16 12ZM17 12L17 13L18 13L18 12ZM19 12L19 13L20 13L20 12ZM28 12L28 13L25 13L25 14L26 14L26 16L25 16L25 17L26 17L26 16L27 16L27 17L28 17L28 16L27 16L27 14L28 14L28 13L29 13L29 14L30 14L30 15L32 15L32 13L31 13L31 14L30 14L30 12ZM45 12L45 14L44 14L44 16L45 16L45 17L46 17L46 15L50 15L50 16L52 16L52 15L51 15L51 14L52 14L52 13L51 13L51 14L50 14L50 13L47 13L47 14L46 14L46 12ZM1 13L1 14L2 14L2 13ZM33 13L33 14L35 14L35 13ZM39 16L39 17L40 17L40 16ZM56 17L56 18L57 18L57 17ZM3 18L3 19L4 19L4 18ZM27 18L27 19L26 19L26 21L28 21L28 23L27 23L27 24L25 24L25 23L26 23L26 22L25 22L25 21L24 21L24 22L23 22L23 23L24 23L24 25L23 25L23 26L22 26L22 27L20 27L20 28L22 28L22 29L20 29L20 30L19 30L19 31L20 31L20 32L19 32L19 33L20 33L20 36L19 36L19 35L17 35L17 36L19 36L19 37L23 37L23 38L21 38L21 41L19 41L19 42L20 42L20 43L19 43L19 45L20 45L20 44L21 44L21 45L22 45L22 46L24 46L24 45L25 45L25 44L24 44L24 45L22 45L22 44L21 44L21 43L22 43L22 41L23 41L23 40L24 40L24 39L23 39L23 38L24 38L24 37L23 37L23 35L21 35L21 33L22 33L22 34L23 34L23 33L24 33L24 32L22 32L22 31L23 31L23 29L25 29L25 30L26 30L26 27L24 27L24 25L25 25L25 26L26 26L26 25L27 25L27 26L29 26L29 25L30 25L30 24L28 24L28 23L29 23L29 22L30 22L30 23L31 23L31 24L32 24L32 25L33 25L33 24L34 24L34 23L31 23L31 22L30 22L30 21L31 21L31 20L28 20L28 18ZM29 18L29 19L31 19L31 18ZM12 19L12 20L14 20L14 19ZM37 19L37 20L36 20L36 21L37 21L37 22L36 22L36 23L37 23L37 22L38 22L38 21L37 21L37 20L38 20L38 19ZM46 19L46 20L47 20L47 19ZM32 20L32 21L33 21L33 20ZM44 21L44 23L43 23L43 24L41 24L41 27L38 27L38 28L41 28L41 27L42 27L42 28L43 28L43 27L45 27L45 26L44 26L44 23L46 23L46 24L47 24L47 23L46 23L46 22L45 22L45 21ZM48 23L48 24L49 24L49 23ZM27 24L27 25L28 25L28 24ZM0 25L0 26L1 26L1 25ZM5 25L5 26L7 26L7 25ZM39 25L39 26L40 26L40 25ZM31 26L31 27L32 27L32 26ZM5 27L5 30L8 30L8 27ZM27 27L27 30L30 30L30 27ZM33 27L33 28L32 28L32 29L33 29L33 30L35 30L35 31L36 31L36 32L37 32L37 30L36 30L36 29L33 29L33 28L34 28L34 27ZM49 27L49 30L52 30L52 27ZM1 28L1 29L3 29L3 28ZM6 28L6 29L7 29L7 28ZM28 28L28 29L29 29L29 28ZM50 28L50 29L51 29L51 28ZM54 28L54 29L53 29L53 31L51 31L51 32L50 32L50 35L51 35L51 36L52 36L52 34L55 34L55 32L54 32L54 29L55 29L55 28ZM1 30L1 31L2 31L2 30ZM21 30L21 31L22 31L22 30ZM31 30L31 31L28 31L28 32L30 32L30 33L31 33L31 32L32 32L32 30ZM13 31L13 32L10 32L10 33L13 33L13 34L14 34L14 35L15 35L15 34L14 34L14 33L15 33L15 32L14 32L14 31ZM25 31L25 34L24 34L24 36L25 36L25 34L26 34L26 33L27 33L27 31ZM13 32L13 33L14 33L14 32ZM51 32L51 33L54 33L54 32ZM36 33L36 34L37 34L37 33ZM11 34L11 35L12 35L12 36L13 36L13 35L12 35L12 34ZM6 35L6 36L7 36L7 35ZM56 35L56 36L57 36L57 35ZM33 36L33 37L34 37L34 36ZM15 37L15 38L16 38L16 37ZM19 38L19 39L20 39L20 38ZM33 38L33 39L32 39L32 40L30 40L30 42L29 42L29 43L31 43L31 42L33 42L33 41L34 41L34 40L35 40L35 38ZM0 39L0 40L2 40L2 41L3 41L3 40L2 40L2 39ZM15 39L15 41L16 41L16 39ZM22 39L22 40L23 40L23 39ZM33 39L33 40L32 40L32 41L33 41L33 40L34 40L34 39ZM0 41L0 42L1 42L1 41ZM26 41L26 42L27 42L27 41ZM50 42L50 43L51 43L51 44L49 44L49 45L51 45L51 46L53 46L53 45L51 45L51 44L52 44L52 43L51 43L51 42ZM10 43L10 44L11 44L11 43ZM17 44L17 45L18 45L18 44ZM31 44L31 45L32 45L32 44ZM47 44L47 45L46 45L46 46L47 46L47 45L48 45L48 44ZM56 44L56 46L57 46L57 44ZM42 46L42 47L43 47L43 46ZM20 47L20 48L21 48L21 47ZM51 47L51 48L53 48L53 47ZM56 47L56 48L57 48L57 47ZM33 48L33 50L34 50L34 53L35 53L35 52L36 52L36 53L37 53L37 54L38 54L38 53L37 53L37 52L36 52L36 51L35 51L35 50L34 50L34 48ZM27 49L27 52L30 52L30 49ZM41 49L41 50L44 50L44 49ZM49 49L49 52L52 52L52 49ZM56 49L56 50L57 50L57 49ZM28 50L28 51L29 51L29 50ZM50 50L50 51L51 51L51 50ZM18 51L18 52L20 52L20 51ZM21 51L21 52L22 52L22 51ZM32 51L32 52L33 52L33 51ZM56 52L56 53L57 53L57 52ZM49 53L49 55L50 55L50 56L51 56L51 55L53 55L53 56L54 56L54 55L53 55L53 54L51 54L51 53ZM9 54L9 55L10 55L10 54ZM50 54L50 55L51 55L51 54ZM15 55L15 56L16 56L16 55ZM27 55L27 56L28 56L28 55ZM34 55L34 56L36 56L36 55ZM0 0L0 7L7 7L7 0ZM1 1L1 6L6 6L6 1ZM2 2L2 5L5 5L5 2ZM50 0L50 7L57 7L57 0ZM51 1L51 6L56 6L56 1ZM52 2L52 5L55 5L55 2ZM0 50L0 57L7 57L7 50ZM1 51L1 56L6 56L6 51ZM2 52L2 55L5 55L5 52Z" fill="#000000"/></g></g></svg>
