<?xml version="1.0" encoding="UTF-8"?>
<svg xmlns="http://www.w3.org/2000/svg" version="1.1" width="300" height="300" viewBox="0 0 300 300"><rect x="0" y="0" width="300" height="300" fill="#ffffff"/><g transform="scale(4.918)"><g transform="translate(2,2)"><path fill-rule="evenodd" d="M9 0L9 1L8 1L8 2L9 2L9 1L10 1L10 0ZM11 0L11 2L10 2L10 3L11 3L11 2L12 2L12 3L13 3L13 4L14 4L14 5L15 5L15 6L14 6L14 7L13 7L13 6L12 6L12 4L10 4L10 5L8 5L8 7L9 7L9 8L6 8L6 9L5 9L5 8L0 8L0 10L1 10L1 11L2 11L2 10L3 10L3 11L5 11L5 12L4 12L4 14L3 14L3 15L2 15L2 16L1 16L1 13L3 13L3 12L1 12L1 13L0 13L0 16L1 16L1 17L2 17L2 18L3 18L3 19L4 19L4 20L3 20L3 21L0 21L0 22L1 22L1 23L3 23L3 25L2 25L2 24L0 24L0 25L1 25L1 26L0 26L0 28L1 28L1 30L0 30L0 32L1 32L1 31L2 31L2 28L3 28L3 27L4 27L4 29L3 29L3 30L4 30L4 31L3 31L3 33L0 33L0 34L1 34L1 35L0 35L0 36L1 36L1 37L0 37L0 38L1 38L1 40L2 40L2 41L1 41L1 43L3 43L3 44L0 44L0 45L1 45L1 46L0 46L0 48L5 48L5 47L7 47L7 48L6 48L6 49L7 49L7 48L8 48L8 51L9 51L9 52L8 52L8 57L10 57L10 55L9 55L9 54L10 54L10 51L12 51L12 52L11 52L11 54L13 54L13 56L16 56L16 57L19 57L19 56L20 56L20 57L21 57L21 53L22 53L22 54L23 54L23 55L24 55L24 56L23 56L23 57L26 57L26 54L27 54L27 53L28 53L28 54L29 54L29 55L30 55L30 56L29 56L29 57L31 57L31 55L32 55L32 56L33 56L33 54L34 54L34 56L35 56L35 57L38 57L38 56L37 56L37 54L38 54L38 51L39 51L39 50L40 50L40 48L41 48L41 47L42 47L42 48L43 48L43 49L41 49L41 50L43 50L43 53L41 53L41 55L40 55L40 52L41 52L41 51L40 51L40 52L39 52L39 56L41 56L41 55L42 55L42 56L43 56L43 57L44 57L44 56L45 56L45 57L46 57L46 56L47 56L47 57L49 57L49 56L50 56L50 55L51 55L51 57L52 57L52 56L53 56L53 57L54 57L54 56L55 56L55 57L56 57L56 56L55 56L55 55L54 55L54 54L53 54L53 53L54 53L54 52L55 52L55 53L56 53L56 52L55 52L55 51L56 51L56 50L57 50L57 48L56 48L56 46L57 46L57 44L56 44L56 46L55 46L55 45L54 45L54 44L55 44L55 43L56 43L56 42L57 42L57 41L54 41L54 43L53 43L53 42L51 42L51 41L53 41L53 40L55 40L55 39L57 39L57 37L54 37L54 36L57 36L57 35L55 35L55 34L57 34L57 33L56 33L56 32L57 32L57 31L56 31L56 30L57 30L57 29L56 29L56 28L55 28L55 27L56 27L56 25L55 25L55 23L56 23L56 24L57 24L57 23L56 23L56 22L57 22L57 21L54 21L54 20L55 20L55 18L57 18L57 15L56 15L56 14L57 14L57 13L56 13L56 14L55 14L55 13L53 13L53 15L52 15L52 16L50 16L50 15L51 15L51 14L52 14L52 13L51 13L51 12L50 12L50 13L51 13L51 14L49 14L49 13L47 13L47 14L46 14L46 12L45 12L45 13L44 13L44 12L43 12L43 11L42 11L42 14L41 14L41 15L39 15L39 14L33 14L33 15L31 15L31 14L32 14L32 13L31 13L31 12L33 12L33 13L38 13L38 12L39 12L39 10L40 10L40 12L41 12L41 10L44 10L44 11L46 11L46 10L45 10L45 9L40 9L40 8L41 8L41 6L42 6L42 8L45 8L45 6L46 6L46 9L48 9L48 10L47 10L47 12L49 12L49 10L50 10L50 11L51 11L51 10L50 10L50 8L49 8L49 6L48 6L48 7L47 7L47 5L48 5L48 0L45 0L45 1L44 1L44 2L42 2L42 3L41 3L41 2L39 2L39 1L40 1L40 0L39 0L39 1L37 1L37 0L35 0L35 1L34 1L34 0L30 0L30 1L29 1L29 0L28 0L28 1L29 1L29 2L28 2L28 3L27 3L27 2L25 2L25 1L26 1L26 0L23 0L23 2L24 2L24 4L22 4L22 3L21 3L21 4L22 4L22 5L21 5L21 6L20 6L20 5L19 5L19 6L18 6L18 7L17 7L17 5L18 5L18 4L20 4L20 3L19 3L19 2L18 2L18 4L16 4L16 2L17 2L17 1L16 1L16 0L13 0L13 1L15 1L15 2L12 2L12 0ZM19 0L19 1L20 1L20 2L21 2L21 1L22 1L22 0L21 0L21 1L20 1L20 0ZM41 0L41 1L43 1L43 0ZM30 1L30 2L29 2L29 3L28 3L28 4L31 4L31 8L33 8L33 10L35 10L35 11L34 11L34 12L35 12L35 11L36 11L36 12L37 12L37 10L36 10L36 9L35 9L35 7L36 7L36 8L38 8L38 6L39 6L39 7L40 7L40 6L41 6L41 5L42 5L42 6L43 6L43 7L44 7L44 6L45 6L45 5L44 5L44 4L46 4L46 5L47 5L47 3L43 3L43 5L42 5L42 4L41 4L41 3L40 3L40 4L39 4L39 2L37 2L37 1L35 1L35 2L34 2L34 1ZM45 1L45 2L47 2L47 1ZM30 2L30 3L31 3L31 4L32 4L32 3L34 3L34 2ZM8 3L8 4L9 4L9 3ZM14 3L14 4L15 4L15 5L16 5L16 4L15 4L15 3ZM25 3L25 4L24 4L24 5L22 5L22 6L21 6L21 7L20 7L20 6L19 6L19 9L20 9L20 11L19 11L19 10L18 10L18 9L17 9L17 8L16 8L16 6L15 6L15 8L14 8L14 9L13 9L13 8L12 8L12 9L10 9L10 10L12 10L12 12L13 12L13 13L14 13L14 15L15 15L15 14L17 14L17 15L16 15L16 16L18 16L18 15L19 15L19 17L16 17L16 18L17 18L17 19L18 19L18 20L15 20L15 21L13 21L13 22L15 22L15 23L16 23L16 25L15 25L15 24L14 24L14 23L11 23L11 22L12 22L12 21L11 21L11 22L10 22L10 20L12 20L12 19L13 19L13 20L14 20L14 19L13 19L13 18L12 18L12 17L13 17L13 16L11 16L11 15L13 15L13 14L12 14L12 13L11 13L11 11L10 11L10 14L9 14L9 13L6 13L6 12L9 12L9 10L7 10L7 9L6 9L6 10L5 10L5 9L3 9L3 10L5 10L5 11L6 11L6 12L5 12L5 13L6 13L6 14L8 14L8 15L5 15L5 14L4 14L4 15L3 15L3 16L2 16L2 17L4 17L4 18L5 18L5 20L8 20L8 19L10 19L10 20L9 20L9 21L6 21L6 22L8 22L8 24L7 24L7 23L6 23L6 24L5 24L5 25L3 25L3 26L2 26L2 27L1 27L1 28L2 28L2 27L3 27L3 26L7 26L7 25L8 25L8 26L9 26L9 27L11 27L11 26L10 26L10 25L11 25L11 24L13 24L13 25L12 25L12 28L10 28L10 29L9 29L9 32L7 32L7 31L5 31L5 32L7 32L7 33L6 33L6 34L4 34L4 33L3 33L3 35L1 35L1 36L3 36L3 39L2 39L2 40L3 40L3 42L4 42L4 44L3 44L3 45L4 45L4 44L5 44L5 42L7 42L7 41L6 41L6 40L8 40L8 43L6 43L6 44L7 44L7 45L5 45L5 46L3 46L3 47L5 47L5 46L7 46L7 45L8 45L8 46L9 46L9 45L8 45L8 43L9 43L9 44L10 44L10 45L11 45L11 46L10 46L10 48L9 48L9 47L8 47L8 48L9 48L9 49L11 49L11 48L13 48L13 51L14 51L14 49L15 49L15 48L13 48L13 47L12 47L12 45L13 45L13 41L12 41L12 39L14 39L14 44L15 44L15 42L17 42L17 41L15 41L15 40L16 40L16 39L14 39L14 37L15 37L15 38L16 38L16 37L18 37L18 38L17 38L17 39L18 39L18 38L20 38L20 39L19 39L19 41L18 41L18 43L16 43L16 44L18 44L18 45L16 45L16 46L17 46L17 47L16 47L16 48L17 48L17 47L18 47L18 48L19 48L19 49L16 49L16 51L17 51L17 52L12 52L12 53L16 53L16 54L14 54L14 55L16 55L16 56L17 56L17 54L19 54L19 55L20 55L20 54L19 54L19 53L21 53L21 52L19 52L19 53L18 53L18 50L21 50L21 49L22 49L22 53L23 53L23 54L24 54L24 53L23 53L23 52L24 52L24 51L25 51L25 52L26 52L26 50L23 50L23 48L22 48L22 47L23 47L23 46L24 46L24 45L25 45L25 49L26 49L26 48L27 48L27 47L26 47L26 46L27 46L27 45L28 45L28 47L29 47L29 46L30 46L30 44L31 44L31 45L32 45L32 46L31 46L31 47L30 47L30 48L31 48L31 50L32 50L32 51L31 51L31 52L32 52L32 54L33 54L33 53L34 53L34 54L36 54L36 52L37 52L37 50L39 50L39 48L40 48L40 47L39 47L39 48L38 48L38 47L37 47L37 46L39 46L39 45L40 45L40 46L42 46L42 47L43 47L43 48L44 48L44 49L43 49L43 50L44 50L44 53L43 53L43 55L45 55L45 54L49 54L49 55L47 55L47 56L49 56L49 55L50 55L50 54L51 54L51 55L53 55L53 54L51 54L51 53L48 53L48 52L47 52L47 51L48 51L48 48L49 48L49 47L51 47L51 48L54 48L54 49L55 49L55 50L56 50L56 48L54 48L54 47L55 47L55 46L54 46L54 45L51 45L51 44L50 44L50 45L49 45L49 46L48 46L48 44L49 44L49 43L48 43L48 44L47 44L47 45L46 45L46 46L47 46L47 47L45 47L45 48L44 48L44 47L43 47L43 46L42 46L42 45L43 45L43 44L41 44L41 40L42 40L42 41L43 41L43 43L45 43L45 42L49 42L49 41L51 41L51 40L50 40L50 39L52 39L52 40L53 40L53 39L55 39L55 38L54 38L54 37L50 37L50 35L51 35L51 36L52 36L52 34L53 34L53 35L54 35L54 34L53 34L53 33L51 33L51 34L50 34L50 31L48 31L48 28L47 28L47 27L48 27L48 25L50 25L50 26L53 26L53 27L55 27L55 26L54 26L54 25L53 25L53 24L51 24L51 23L53 23L53 20L52 20L52 21L51 21L51 19L52 19L52 18L54 18L54 17L55 17L55 16L56 16L56 15L55 15L55 14L54 14L54 15L55 15L55 16L52 16L52 17L50 17L50 16L49 16L49 15L45 15L45 14L44 14L44 15L45 15L45 16L42 16L42 15L43 15L43 14L42 14L42 15L41 15L41 16L39 16L39 15L38 15L38 16L37 16L37 15L36 15L36 16L35 16L35 15L33 15L33 16L30 16L30 15L26 15L26 16L25 16L25 18L26 18L26 20L27 20L27 21L25 21L25 22L26 22L26 23L25 23L25 24L24 24L24 23L23 23L23 24L22 24L22 23L21 23L21 24L19 24L19 25L20 25L20 26L19 26L19 27L20 27L20 28L21 28L21 29L19 29L19 30L21 30L21 31L20 31L20 32L19 32L19 33L18 33L18 34L19 34L19 36L20 36L20 37L18 37L18 35L16 35L16 37L15 37L15 33L16 33L16 34L17 34L17 33L16 33L16 31L18 31L18 30L17 30L17 29L18 29L18 28L17 28L17 29L16 29L16 31L13 31L13 30L15 30L15 29L13 29L13 27L14 27L14 28L16 28L16 27L18 27L18 25L17 25L17 21L18 21L18 22L19 22L19 23L20 23L20 22L19 22L19 21L23 21L23 22L24 22L24 21L23 21L23 20L19 20L19 19L23 19L23 18L21 18L21 17L20 17L20 16L21 16L21 15L22 15L22 17L24 17L24 16L23 16L23 13L25 13L25 14L28 14L28 13L29 13L29 14L30 14L30 13L29 13L29 12L30 12L30 11L31 11L31 10L32 10L32 9L31 9L31 10L30 10L30 9L29 9L29 10L28 10L28 11L29 11L29 12L28 12L28 13L25 13L25 12L27 12L27 11L26 11L26 10L27 10L27 9L26 9L26 6L25 6L25 4L26 4L26 3ZM36 3L36 5L35 5L35 6L34 6L34 7L35 7L35 6L36 6L36 7L37 7L37 6L36 6L36 5L38 5L38 4L37 4L37 3ZM40 4L40 5L41 5L41 4ZM27 5L27 8L30 8L30 5ZM9 6L9 7L10 7L10 6ZM11 6L11 7L12 7L12 6ZM22 6L22 7L21 7L21 8L20 8L20 9L21 9L21 11L22 11L22 9L21 9L21 8L22 8L22 7L23 7L23 10L24 10L24 11L23 11L23 12L25 12L25 8L24 8L24 7L25 7L25 6L24 6L24 7L23 7L23 6ZM28 6L28 7L29 7L29 6ZM32 6L32 7L33 7L33 6ZM15 8L15 9L16 9L16 8ZM48 8L48 9L49 9L49 8ZM51 8L51 9L52 9L52 8ZM53 8L53 9L54 9L54 8ZM55 8L55 9L56 9L56 8ZM1 9L1 10L2 10L2 9ZM12 9L12 10L13 10L13 9ZM38 9L38 10L39 10L39 9ZM6 10L6 11L7 11L7 10ZM17 10L17 11L15 11L15 12L16 12L16 13L18 13L18 14L19 14L19 15L20 15L20 14L19 14L19 13L22 13L22 12L19 12L19 13L18 13L18 12L17 12L17 11L18 11L18 10ZM29 10L29 11L30 11L30 10ZM53 10L53 11L52 11L52 12L53 12L53 11L54 11L54 12L57 12L57 11L56 11L56 10L55 10L55 11L54 11L54 10ZM13 11L13 12L14 12L14 11ZM4 15L4 17L5 17L5 18L6 18L6 19L7 19L7 18L9 18L9 17L11 17L11 16L8 16L8 17L7 17L7 16L6 16L6 17L5 17L5 15ZM14 16L14 17L15 17L15 16ZM26 16L26 17L28 17L28 16ZM33 16L33 17L32 17L32 18L34 18L34 19L30 19L30 20L31 20L31 21L30 21L30 22L29 22L29 21L27 21L27 22L29 22L29 23L27 23L27 24L29 24L29 23L30 23L30 24L31 24L31 23L33 23L33 25L34 25L34 24L35 24L35 25L37 25L37 26L35 26L35 27L34 27L34 26L32 26L32 25L30 25L30 26L29 26L29 25L28 25L28 26L27 26L27 25L26 25L26 24L25 24L25 25L24 25L24 24L23 24L23 25L24 25L24 26L25 26L25 27L23 27L23 26L22 26L22 27L21 27L21 26L20 26L20 27L21 27L21 28L22 28L22 29L21 29L21 30L22 30L22 31L21 31L21 32L20 32L20 33L21 33L21 34L20 34L20 35L22 35L22 36L21 36L21 37L22 37L22 38L24 38L24 37L26 37L26 38L25 38L25 41L24 41L24 39L23 39L23 41L22 41L22 42L21 42L21 43L22 43L22 42L24 42L24 44L23 44L23 45L24 45L24 44L25 44L25 45L26 45L26 44L25 44L25 42L26 42L26 43L27 43L27 44L28 44L28 45L29 45L29 44L30 44L30 43L31 43L31 44L34 44L34 43L35 43L35 46L32 46L32 47L31 47L31 48L34 48L34 47L36 47L36 45L39 45L39 44L40 44L40 42L39 42L39 44L38 44L38 43L37 43L37 42L38 42L38 40L36 40L36 39L39 39L39 38L40 38L40 36L41 36L41 39L40 39L40 40L39 40L39 41L40 41L40 40L41 40L41 39L42 39L42 40L43 40L43 41L44 41L44 42L45 42L45 41L44 41L44 40L43 40L43 39L42 39L42 38L43 38L43 37L44 37L44 38L45 38L45 39L46 39L46 38L45 38L45 37L44 37L44 35L43 35L43 37L42 37L42 36L41 36L41 35L42 35L42 34L46 34L46 35L45 35L45 36L48 36L48 35L49 35L49 34L48 34L48 33L47 33L47 34L46 34L46 33L42 33L42 34L41 34L41 33L40 33L40 34L41 34L41 35L40 35L40 36L39 36L39 34L36 34L36 33L37 33L37 32L36 32L36 31L39 31L39 32L38 32L38 33L39 33L39 32L41 32L41 31L42 31L42 32L45 32L45 31L44 31L44 30L46 30L46 31L47 31L47 32L48 32L48 31L47 31L47 30L46 30L46 29L47 29L47 28L46 28L46 27L45 27L45 26L44 26L44 25L42 25L42 24L41 24L41 23L40 23L40 22L36 22L36 23L34 23L34 22L33 22L33 21L35 21L35 18L37 18L37 20L36 20L36 21L40 21L40 20L46 20L46 21L47 21L47 23L46 23L46 22L45 22L45 21L44 21L44 24L45 24L45 23L46 23L46 24L47 24L47 25L48 25L48 24L49 24L49 22L50 22L50 23L51 23L51 22L50 22L50 19L48 19L48 18L50 18L50 17L47 17L47 16L46 16L46 17L47 17L47 18L44 18L44 19L40 19L40 18L43 18L43 17L40 17L40 18L37 18L37 16L36 16L36 17L35 17L35 16ZM6 17L6 18L7 18L7 17ZM29 17L29 18L31 18L31 17ZM34 17L34 18L35 18L35 17ZM0 18L0 20L1 20L1 18ZM10 18L10 19L11 19L11 18ZM18 18L18 19L19 19L19 18ZM27 18L27 20L28 20L28 18ZM38 19L38 20L40 20L40 19ZM46 19L46 20L47 20L47 19ZM56 19L56 20L57 20L57 19ZM18 20L18 21L19 21L19 20ZM32 20L32 21L33 21L33 20ZM15 21L15 22L16 22L16 21ZM41 21L41 22L43 22L43 21ZM4 22L4 23L5 23L5 22ZM30 22L30 23L31 23L31 22ZM36 23L36 24L37 24L37 25L38 25L38 26L37 26L37 27L36 27L36 28L35 28L35 29L33 29L33 28L34 28L34 27L31 27L31 28L32 28L32 29L31 29L31 31L30 31L30 33L26 33L26 32L29 32L29 31L25 31L25 30L26 30L26 27L25 27L25 28L24 28L24 29L22 29L22 30L24 30L24 31L25 31L25 34L23 34L23 33L24 33L24 32L21 32L21 33L22 33L22 35L23 35L23 36L22 36L22 37L24 37L24 35L25 35L25 36L26 36L26 35L27 35L27 36L28 36L28 37L27 37L27 38L28 38L28 37L29 37L29 36L30 36L30 38L31 38L31 39L29 39L29 40L31 40L31 39L34 39L34 40L32 40L32 41L31 41L31 43L34 43L34 42L35 42L35 43L36 43L36 44L37 44L37 43L36 43L36 42L35 42L35 41L36 41L36 40L35 40L35 39L34 39L34 38L35 38L35 37L36 37L36 38L39 38L39 36L38 36L38 35L36 35L36 34L35 34L35 33L36 33L36 32L34 32L34 34L33 34L33 32L31 32L31 31L33 31L33 30L35 30L35 31L36 31L36 30L35 30L35 29L36 29L36 28L37 28L37 30L39 30L39 31L41 31L41 30L42 30L42 31L43 31L43 30L42 30L42 29L43 29L43 28L42 28L42 27L41 27L41 28L39 28L39 27L38 27L38 26L39 26L39 25L40 25L40 26L41 26L41 24L39 24L39 23ZM6 24L6 25L7 25L7 24ZM9 24L9 25L10 25L10 24ZM38 24L38 25L39 25L39 24ZM50 24L50 25L51 25L51 24ZM13 25L13 26L14 26L14 27L16 27L16 26L14 26L14 25ZM25 25L25 26L26 26L26 25ZM43 26L43 27L44 27L44 29L45 29L45 27L44 27L44 26ZM5 27L5 30L8 30L8 27ZM27 27L27 30L30 30L30 27ZM37 27L37 28L38 28L38 29L39 29L39 30L41 30L41 29L39 29L39 28L38 28L38 27ZM49 27L49 30L52 30L52 27ZM6 28L6 29L7 29L7 28ZM28 28L28 29L29 29L29 28ZM50 28L50 29L51 29L51 28ZM54 28L54 29L55 29L55 30L56 30L56 29L55 29L55 28ZM11 29L11 30L10 30L10 31L11 31L11 32L10 32L10 33L9 33L9 37L10 37L10 35L12 35L12 36L13 36L13 37L11 37L11 38L10 38L10 39L11 39L11 38L13 38L13 37L14 37L14 36L13 36L13 35L14 35L14 33L13 33L13 35L12 35L12 33L11 33L11 32L12 32L12 29ZM24 29L24 30L25 30L25 29ZM52 31L52 32L54 32L54 33L55 33L55 32L54 32L54 31ZM31 33L31 34L32 34L32 33ZM6 34L6 35L5 35L5 36L4 36L4 42L5 42L5 39L8 39L8 37L7 37L7 36L8 36L8 35L7 35L7 34ZM25 34L25 35L26 35L26 34ZM29 34L29 35L30 35L30 36L31 36L31 38L32 38L32 35L30 35L30 34ZM34 34L34 36L33 36L33 38L34 38L34 37L35 37L35 34ZM6 35L6 36L7 36L7 35ZM36 36L36 37L37 37L37 36ZM5 37L5 38L7 38L7 37ZM47 38L47 39L50 39L50 38ZM21 39L21 40L22 40L22 39ZM26 39L26 40L27 40L27 41L26 41L26 42L27 42L27 43L30 43L30 42L29 42L29 41L28 41L28 39ZM9 40L9 41L11 41L11 40ZM46 40L46 41L47 41L47 40ZM19 41L19 42L20 42L20 41ZM27 41L27 42L28 42L28 41ZM32 41L32 42L34 42L34 41ZM11 42L11 43L10 43L10 44L11 44L11 43L12 43L12 42ZM50 42L50 43L51 43L51 42ZM19 43L19 45L18 45L18 47L20 47L20 49L21 49L21 47L22 47L22 46L21 46L21 47L20 47L20 46L19 46L19 45L22 45L22 44L20 44L20 43ZM52 43L52 44L53 44L53 43ZM44 44L44 45L45 45L45 44ZM14 45L14 46L15 46L15 45ZM50 45L50 46L51 46L51 45ZM1 46L1 47L2 47L2 46ZM52 46L52 47L54 47L54 46ZM35 48L35 49L36 49L36 50L37 50L37 49L38 49L38 48ZM27 49L27 52L30 52L30 49ZM32 49L32 50L34 50L34 51L32 51L32 52L36 52L36 51L35 51L35 50L34 50L34 49ZM49 49L49 52L52 52L52 49ZM9 50L9 51L10 51L10 50ZM28 50L28 51L29 51L29 50ZM45 50L45 52L46 52L46 51L47 51L47 50ZM50 50L50 51L51 51L51 50ZM25 53L25 54L26 54L26 53ZM29 53L29 54L30 54L30 53ZM44 53L44 54L45 54L45 53ZM27 55L27 56L28 56L28 55ZM0 0L0 7L7 7L7 0ZM1 1L1 6L6 6L6 1ZM2 2L2 5L5 5L5 2ZM50 0L50 7L57 7L57 0ZM51 1L51 6L56 6L56 1ZM52 2L52 5L55 5L55 2ZM0 50L0 57L7 57L7 50ZM1 51L1 56L6 56L6 51ZM2 52L2 55L5 55L5 52Z" fill="#000000"/></g></g></svg>
