<?xml version="1.0" encoding="UTF-8"?>
<svg xmlns="http://www.w3.org/2000/svg" version="1.1" width="300" height="300" viewBox="0 0 300 300"><rect x="0" y="0" width="300" height="300" fill="#ffffff"/><g transform="scale(4.918)"><g transform="translate(2,2)"><path fill-rule="evenodd" d="M10 0L10 4L9 4L9 3L8 3L8 4L9 4L9 5L8 5L8 7L9 7L9 8L6 8L6 9L5 9L5 8L0 8L0 10L2 10L2 11L1 11L1 12L0 12L0 13L2 13L2 14L3 14L3 15L0 15L0 16L1 16L1 17L2 17L2 16L3 16L3 18L2 18L2 19L4 19L4 20L3 20L3 21L2 21L2 22L0 22L0 23L1 23L1 24L0 24L0 25L1 25L1 26L0 26L0 27L3 27L3 29L2 29L2 28L0 28L0 30L1 30L1 31L0 31L0 33L2 33L2 34L0 34L0 35L2 35L2 34L3 34L3 33L4 33L4 32L6 32L6 33L5 33L5 35L8 35L8 38L10 38L10 39L12 39L12 40L10 40L10 41L12 41L12 42L13 42L13 43L11 43L11 44L10 44L10 42L6 42L6 41L9 41L9 39L8 39L8 40L5 40L5 39L7 39L7 38L6 38L6 37L7 37L7 36L5 36L5 38L4 38L4 40L3 40L3 37L4 37L4 36L2 36L2 37L1 37L1 36L0 36L0 37L1 37L1 38L0 38L0 39L1 39L1 38L2 38L2 40L3 40L3 42L2 42L2 41L0 41L0 42L2 42L2 44L3 44L3 43L5 43L5 42L6 42L6 43L7 43L7 44L5 44L5 45L9 45L9 46L5 46L5 47L3 47L3 46L2 46L2 45L0 45L0 48L5 48L5 47L10 47L10 45L11 45L11 47L12 47L12 48L11 48L11 49L13 49L13 50L14 50L14 49L15 49L15 51L12 51L12 50L11 50L11 51L10 51L10 53L9 53L9 52L8 52L8 57L9 57L9 55L10 55L10 56L11 56L11 57L12 57L12 56L13 56L13 55L15 55L15 57L16 57L16 55L15 55L15 54L16 54L16 53L13 53L13 52L18 52L18 53L19 53L19 54L18 54L18 55L17 55L17 57L20 57L20 56L22 56L22 55L24 55L24 56L25 56L25 53L26 53L26 54L27 54L27 53L28 53L28 54L29 54L29 55L30 55L30 56L29 56L29 57L31 57L31 55L32 55L32 56L33 56L33 57L38 57L38 56L39 56L39 55L40 55L40 56L41 56L41 57L44 57L44 56L45 56L45 57L46 57L46 56L45 56L45 55L46 55L46 54L45 54L45 53L44 53L44 48L45 48L45 49L46 49L46 48L45 48L45 47L47 47L47 46L48 46L48 45L49 45L49 44L52 44L52 45L50 45L50 46L49 46L49 47L50 47L50 48L48 48L48 51L47 51L47 50L45 50L45 52L46 52L46 51L47 51L47 52L48 52L48 54L47 54L47 55L48 55L48 56L47 56L47 57L49 57L49 56L50 56L50 55L51 55L51 57L52 57L52 56L55 56L55 57L56 57L56 56L55 56L55 53L56 53L56 52L57 52L57 51L56 51L56 50L57 50L57 48L56 48L56 46L57 46L57 45L56 45L56 46L55 46L55 45L54 45L54 44L56 44L56 42L57 42L57 41L55 41L55 39L57 39L57 37L54 37L54 36L57 36L57 35L55 35L55 34L57 34L57 33L56 33L56 32L57 32L57 31L56 31L56 30L57 30L57 27L56 27L56 26L57 26L57 25L56 25L56 26L55 26L55 25L54 25L54 24L55 24L55 23L56 23L56 24L57 24L57 23L56 23L56 22L57 22L57 21L56 21L56 20L55 20L55 18L57 18L57 15L56 15L56 14L57 14L57 11L56 11L56 8L55 8L55 11L54 11L54 10L53 10L53 9L54 9L54 8L53 8L53 9L52 9L52 8L51 8L51 10L49 10L49 9L50 9L50 8L49 8L49 9L48 9L48 8L47 8L47 5L48 5L48 0L42 0L42 1L41 1L41 0L39 0L39 1L38 1L38 0L37 0L37 1L33 1L33 0L30 0L30 1L28 1L28 0L27 0L27 1L26 1L26 0L23 0L23 2L21 2L21 1L22 1L22 0L21 0L21 1L20 1L20 0L19 0L19 1L16 1L16 0L12 0L12 2L11 2L11 0ZM8 1L8 2L9 2L9 1ZM13 1L13 2L12 2L12 3L13 3L13 2L15 2L15 1ZM19 1L19 2L18 2L18 3L17 3L17 2L16 2L16 4L15 4L15 3L14 3L14 4L11 4L11 5L10 5L10 6L9 6L9 7L10 7L10 12L9 12L9 11L8 11L8 12L7 12L7 11L6 11L6 12L3 12L3 13L6 13L6 14L5 14L5 15L6 15L6 16L4 16L4 15L3 15L3 16L4 16L4 17L6 17L6 18L7 18L7 19L6 19L6 20L4 20L4 22L2 22L2 23L3 23L3 24L2 24L2 26L3 26L3 27L4 27L4 23L5 23L5 24L7 24L7 23L10 23L10 24L8 24L8 26L9 26L9 31L6 31L6 32L9 32L9 34L8 34L8 35L10 35L10 36L9 36L9 37L10 37L10 36L12 36L12 35L13 35L13 34L14 34L14 35L15 35L15 33L16 33L16 34L17 34L17 33L16 33L16 31L18 31L18 30L17 30L17 29L18 29L18 28L17 28L17 27L18 27L18 26L20 26L20 27L19 27L19 28L20 28L20 27L22 27L22 25L23 25L23 24L24 24L24 23L23 23L23 22L24 22L24 21L23 21L23 20L22 20L22 19L23 19L23 18L22 18L22 19L21 19L21 17L20 17L20 16L21 16L21 15L22 15L22 17L24 17L24 16L23 16L23 13L25 13L25 12L27 12L27 11L26 11L26 10L28 10L28 11L29 11L29 12L28 12L28 13L26 13L26 14L25 14L25 15L26 15L26 16L25 16L25 18L28 18L28 19L34 19L34 18L35 18L35 20L34 20L34 21L33 21L33 20L32 20L32 21L33 21L33 22L35 22L35 23L34 23L34 24L36 24L36 22L40 22L40 24L39 24L39 23L37 23L37 25L38 25L38 26L39 26L39 25L41 25L41 21L42 21L42 20L40 20L40 19L41 19L41 18L42 18L42 19L43 19L43 18L44 18L44 19L45 19L45 18L47 18L47 17L49 17L49 18L51 18L51 17L53 17L53 18L52 18L52 19L53 19L53 18L54 18L54 17L55 17L55 16L56 16L56 15L55 15L55 16L54 16L54 13L55 13L55 14L56 14L56 12L54 12L54 11L53 11L53 10L51 10L51 11L49 11L49 12L48 12L48 11L47 11L47 10L48 10L48 9L47 9L47 8L46 8L46 9L45 9L45 7L46 7L46 6L45 6L45 5L44 5L44 4L46 4L46 5L47 5L47 3L43 3L43 5L40 5L40 4L41 4L41 3L40 3L40 4L39 4L39 2L38 2L38 1L37 1L37 2L34 2L34 3L32 3L32 4L31 4L31 1L30 1L30 2L29 2L29 3L27 3L27 4L29 4L29 3L30 3L30 4L31 4L31 8L33 8L33 9L34 9L34 10L33 10L33 11L34 11L34 12L37 12L37 10L40 10L40 11L39 11L39 12L38 12L38 14L36 14L36 13L33 13L33 12L32 12L32 11L31 11L31 10L32 10L32 9L31 9L31 10L30 10L30 11L29 11L29 9L26 9L26 6L25 6L25 4L26 4L26 3L25 3L25 4L24 4L24 2L23 2L23 3L21 3L21 2L20 2L20 1ZM32 1L32 2L33 2L33 1ZM40 1L40 2L41 2L41 1ZM42 1L42 2L47 2L47 1ZM37 2L37 3L36 3L36 5L34 5L34 7L33 7L33 6L32 6L32 7L33 7L33 8L34 8L34 9L35 9L35 10L34 10L34 11L36 11L36 9L39 9L39 8L38 8L38 7L39 7L39 5L38 5L38 2ZM18 3L18 4L16 4L16 5L15 5L15 4L14 4L14 5L15 5L15 6L14 6L14 8L13 8L13 9L11 9L11 11L12 11L12 10L13 10L13 9L14 9L14 8L15 8L15 9L18 9L18 10L15 10L15 11L18 11L18 10L19 10L19 13L18 13L18 12L16 12L16 13L18 13L18 14L19 14L19 13L22 13L22 12L20 12L20 9L19 9L19 6L20 6L20 7L21 7L21 6L22 6L22 8L23 8L23 9L22 9L22 10L21 10L21 11L22 11L22 10L23 10L23 11L25 11L25 8L24 8L24 7L25 7L25 6L24 6L24 7L23 7L23 6L22 6L22 5L24 5L24 4L21 4L21 6L20 6L20 5L18 5L18 4L20 4L20 3ZM11 5L11 6L10 6L10 7L11 7L11 8L12 8L12 7L13 7L13 6L12 6L12 5ZM17 5L17 7L18 7L18 5ZM27 5L27 8L30 8L30 5ZM36 5L36 6L35 6L35 7L34 7L34 8L35 8L35 9L36 9L36 8L37 8L37 7L38 7L38 5ZM11 6L11 7L12 7L12 6ZM15 6L15 8L16 8L16 6ZM28 6L28 7L29 7L29 6ZM36 6L36 7L35 7L35 8L36 8L36 7L37 7L37 6ZM40 6L40 7L41 7L41 6ZM42 6L42 8L41 8L41 9L40 9L40 10L41 10L41 11L40 11L40 12L39 12L39 15L40 15L40 16L39 16L39 18L37 18L37 17L38 17L38 16L36 16L36 15L35 15L35 14L33 14L33 15L32 15L32 13L31 13L31 11L30 11L30 12L29 12L29 13L28 13L28 14L27 14L27 15L30 15L30 16L33 16L33 18L34 18L34 16L33 16L33 15L35 15L35 16L36 16L36 19L38 19L38 20L36 20L36 21L40 21L40 20L39 20L39 19L40 19L40 18L41 18L41 17L42 17L42 18L43 18L43 17L44 17L44 16L46 16L46 17L47 17L47 16L46 16L46 15L50 15L50 17L51 17L51 14L52 14L52 13L51 13L51 12L50 12L50 13L51 13L51 14L49 14L49 13L47 13L47 14L46 14L46 12L45 12L45 11L46 11L46 10L45 10L45 11L44 11L44 10L43 10L43 9L44 9L44 8L43 8L43 6ZM44 6L44 7L45 7L45 6ZM48 6L48 7L49 7L49 6ZM42 8L42 9L43 9L43 8ZM2 9L2 10L3 10L3 11L5 11L5 9L4 9L4 10L3 10L3 9ZM6 9L6 10L9 10L9 9ZM42 10L42 11L41 11L41 12L40 12L40 13L41 13L41 14L40 14L40 15L41 15L41 16L40 16L40 17L41 17L41 16L42 16L42 17L43 17L43 16L44 16L44 15L45 15L45 12L44 12L44 11L43 11L43 10ZM13 11L13 12L10 12L10 13L11 13L11 15L13 15L13 14L14 14L14 16L13 16L13 17L12 17L12 16L9 16L9 17L12 17L12 18L13 18L13 19L12 19L12 20L11 20L11 19L10 19L10 18L9 18L9 19L8 19L8 22L10 22L10 23L11 23L11 26L14 26L14 28L13 28L13 30L12 30L12 28L11 28L11 30L10 30L10 31L9 31L9 32L11 32L11 33L10 33L10 35L12 35L12 34L13 34L13 33L14 33L14 31L16 31L16 29L17 29L17 28L15 28L15 27L17 27L17 26L14 26L14 25L13 25L13 23L15 23L15 25L16 25L16 23L15 23L15 22L16 22L16 21L15 21L15 20L17 20L17 19L18 19L18 21L17 21L17 22L18 22L18 21L19 21L19 22L20 22L20 23L17 23L17 25L21 25L21 23L22 23L22 22L23 22L23 21L19 21L19 20L21 20L21 19L19 19L19 18L16 18L16 17L19 17L19 16L20 16L20 15L18 15L18 16L16 16L16 15L17 15L17 14L14 14L14 13L13 13L13 12L14 12L14 11ZM42 11L42 14L41 14L41 15L42 15L42 16L43 16L43 15L42 15L42 14L44 14L44 12L43 12L43 11ZM52 11L52 12L53 12L53 11ZM6 12L6 13L7 13L7 14L6 14L6 15L8 15L8 13L7 13L7 12ZM12 13L12 14L13 14L13 13ZM29 13L29 14L30 14L30 13ZM9 14L9 15L10 15L10 14ZM52 15L52 16L53 16L53 17L54 17L54 16L53 16L53 15ZM6 16L6 17L8 17L8 16ZM14 16L14 18L15 18L15 16ZM26 16L26 17L28 17L28 16ZM29 17L29 18L32 18L32 17ZM13 19L13 20L14 20L14 19ZM26 19L26 21L25 21L25 22L26 22L26 23L25 23L25 24L26 24L26 25L25 25L25 26L26 26L26 25L28 25L28 26L29 26L29 25L30 25L30 24L27 24L27 23L31 23L31 25L32 25L32 26L34 26L34 27L33 27L33 28L31 28L31 29L32 29L32 30L31 30L31 32L30 32L30 31L28 31L28 32L30 32L30 33L27 33L27 31L25 31L25 30L26 30L26 27L23 27L23 28L24 28L24 29L22 29L22 28L21 28L21 29L19 29L19 30L20 30L20 31L19 31L19 33L18 33L18 34L19 34L19 35L18 35L18 36L17 36L17 35L16 35L16 37L15 37L15 36L13 36L13 37L12 37L12 39L13 39L13 38L14 38L14 40L12 40L12 41L13 41L13 42L14 42L14 43L15 43L15 44L16 44L16 43L17 43L17 44L18 44L18 45L16 45L16 46L17 46L17 47L16 47L16 48L17 48L17 47L18 47L18 48L19 48L19 49L16 49L16 51L17 51L17 50L21 50L21 49L22 49L22 51L21 51L21 52L19 52L19 51L18 51L18 52L19 52L19 53L23 53L23 54L24 54L24 53L23 53L23 52L24 52L24 51L25 51L25 52L26 52L26 51L25 51L25 50L23 50L23 48L22 48L22 47L25 47L25 49L26 49L26 48L27 48L27 47L26 47L26 46L27 46L27 45L28 45L28 46L31 46L31 43L33 43L33 42L34 42L34 44L32 44L32 46L36 46L36 44L38 44L38 45L37 45L37 46L39 46L39 47L36 47L36 48L35 48L35 47L34 47L34 48L31 48L31 47L30 47L30 48L31 48L31 52L32 52L32 54L34 54L34 56L38 56L38 55L35 55L35 53L36 53L36 54L37 54L37 53L36 53L36 52L37 52L37 51L36 51L36 52L35 52L35 53L33 53L33 52L32 52L32 51L34 51L34 50L35 50L35 49L36 49L36 50L39 50L39 49L36 49L36 48L40 48L40 49L43 49L43 48L44 48L44 47L45 47L45 46L42 46L42 45L43 45L43 44L44 44L44 45L45 45L45 43L44 43L44 42L46 42L46 43L47 43L47 42L48 42L48 43L49 43L49 41L51 41L51 42L50 42L50 43L51 43L51 42L53 42L53 43L52 43L52 44L53 44L53 43L54 43L54 41L51 41L51 40L53 40L53 39L54 39L54 38L53 38L53 37L52 37L52 34L53 34L53 35L54 35L54 34L53 34L53 33L55 33L55 32L53 32L53 31L52 31L52 32L53 32L53 33L51 33L51 34L50 34L50 32L49 32L49 31L48 31L48 29L46 29L46 30L44 30L44 29L45 29L45 28L44 28L44 27L46 27L46 28L47 28L47 27L48 27L48 25L49 25L49 26L52 26L52 25L53 25L53 27L55 27L55 28L54 28L54 29L53 29L53 30L56 30L56 27L55 27L55 26L54 26L54 25L53 25L53 24L54 24L54 22L55 22L55 20L54 20L54 21L53 21L53 20L52 20L52 21L51 21L51 19L50 19L50 22L49 22L49 24L48 24L48 25L46 25L46 26L45 26L45 23L44 23L44 21L45 21L45 22L46 22L46 23L47 23L47 21L46 21L46 20L49 20L49 19L46 19L46 20L43 20L43 22L42 22L42 23L44 23L44 25L43 25L43 26L42 26L42 27L41 27L41 26L40 26L40 27L38 27L38 28L37 28L37 30L40 30L40 31L41 31L41 32L39 32L39 31L38 31L38 32L39 32L39 33L36 33L36 32L37 32L37 31L36 31L36 30L35 30L35 29L33 29L33 28L34 28L34 27L35 27L35 28L36 28L36 26L35 26L35 25L33 25L33 23L31 23L31 22L29 22L29 20L27 20L27 19ZM6 20L6 21L5 21L5 22L6 22L6 23L7 23L7 22L6 22L6 21L7 21L7 20ZM30 20L30 21L31 21L31 20ZM10 21L10 22L11 22L11 21ZM12 21L12 23L13 23L13 22L15 22L15 21ZM27 21L27 22L28 22L28 21ZM50 22L50 24L49 24L49 25L50 25L50 24L53 24L53 23L51 23L51 22ZM5 25L5 26L7 26L7 25ZM46 26L46 27L47 27L47 26ZM5 27L5 30L8 30L8 27ZM27 27L27 30L30 30L30 27ZM40 27L40 28L41 28L41 27ZM42 27L42 28L43 28L43 29L42 29L42 30L41 30L41 31L42 31L42 32L41 32L41 33L39 33L39 34L36 34L36 35L37 35L37 36L36 36L36 37L37 37L37 38L33 38L33 39L31 39L31 38L32 38L32 35L30 35L30 34L29 34L29 35L30 35L30 36L29 36L29 37L28 37L28 36L26 36L26 37L28 37L28 38L27 38L27 39L26 39L26 38L25 38L25 41L23 41L23 43L24 43L24 42L26 42L26 43L28 43L28 42L26 42L26 41L27 41L27 39L28 39L28 40L29 40L29 41L30 41L30 43L29 43L29 44L28 44L28 45L29 45L29 44L30 44L30 43L31 43L31 41L32 41L32 42L33 42L33 41L32 41L32 40L33 40L33 39L34 39L34 40L36 40L36 41L37 41L37 40L38 40L38 41L39 41L39 42L35 42L35 44L36 44L36 43L38 43L38 44L40 44L40 43L39 43L39 42L40 42L40 40L41 40L41 42L42 42L42 43L41 43L41 44L43 44L43 42L44 42L44 39L43 39L43 37L44 37L44 38L45 38L45 37L44 37L44 35L43 35L43 36L42 36L42 37L41 37L41 38L42 38L42 39L40 39L40 40L38 40L38 39L39 39L39 38L40 38L40 36L41 36L41 35L42 35L42 34L43 34L43 32L45 32L45 33L44 33L44 34L45 34L45 36L47 36L47 35L48 35L48 33L47 33L47 32L48 32L48 31L47 31L47 30L46 30L46 31L47 31L47 32L45 32L45 31L44 31L44 30L43 30L43 29L44 29L44 28L43 28L43 27ZM49 27L49 30L52 30L52 27ZM6 28L6 29L7 29L7 28ZM14 28L14 29L15 29L15 28ZM28 28L28 29L29 29L29 28ZM38 28L38 29L39 29L39 28ZM50 28L50 29L51 29L51 28ZM1 29L1 30L2 30L2 29ZM21 29L21 30L22 30L22 31L21 31L21 32L20 32L20 33L21 33L21 34L20 34L20 35L22 35L22 33L21 33L21 32L23 32L23 31L24 31L24 33L23 33L23 34L25 34L25 35L24 35L24 37L22 37L22 36L21 36L21 37L22 37L22 38L24 38L24 37L25 37L25 35L27 35L27 33L26 33L26 32L25 32L25 31L24 31L24 30L25 30L25 29L24 29L24 30L22 30L22 29ZM3 30L3 32L4 32L4 30ZM13 30L13 31L11 31L11 32L13 32L13 31L14 31L14 30ZM32 30L32 32L31 32L31 33L32 33L32 32L33 32L33 34L34 34L34 36L33 36L33 37L34 37L34 36L35 36L35 34L34 34L34 31L35 31L35 32L36 32L36 31L35 31L35 30ZM42 30L42 31L43 31L43 30ZM6 33L6 34L7 34L7 33ZM11 33L11 34L12 34L12 33ZM25 33L25 34L26 34L26 33ZM41 33L41 34L40 34L40 35L38 35L38 38L37 38L37 39L36 39L36 40L37 40L37 39L38 39L38 38L39 38L39 36L40 36L40 35L41 35L41 34L42 34L42 33ZM45 33L45 34L47 34L47 33ZM50 35L50 36L51 36L51 35ZM18 36L18 37L16 37L16 38L15 38L15 37L14 37L14 38L15 38L15 39L16 39L16 40L14 40L14 41L16 41L16 40L17 40L17 41L18 41L18 42L17 42L17 43L18 43L18 42L19 42L19 41L21 41L21 42L20 42L20 43L22 43L22 41L21 41L21 40L22 40L22 39L21 39L21 40L19 40L19 39L20 39L20 38L19 38L19 39L18 39L18 40L17 40L17 38L18 38L18 37L20 37L20 36ZM30 36L30 38L31 38L31 36ZM48 36L48 37L47 37L47 39L49 39L49 40L51 40L51 39L53 39L53 38L52 38L52 37L51 37L51 39L49 39L49 36ZM23 39L23 40L24 40L24 39ZM29 39L29 40L31 40L31 39ZM45 39L45 41L47 41L47 40L46 40L46 39ZM4 40L4 41L5 41L5 40ZM42 40L42 41L43 41L43 40ZM15 42L15 43L16 43L16 42ZM0 43L0 44L1 44L1 43ZM8 43L8 44L9 44L9 45L10 45L10 44L9 44L9 43ZM12 44L12 46L13 46L13 47L14 47L14 46L15 46L15 45L14 45L14 44ZM20 44L20 45L18 45L18 47L20 47L20 45L22 45L22 44ZM25 44L25 45L23 45L23 46L25 46L25 45L26 45L26 44ZM47 44L47 45L46 45L46 46L47 46L47 45L48 45L48 44ZM13 45L13 46L14 46L14 45ZM52 45L52 46L54 46L54 47L55 47L55 46L54 46L54 45ZM1 46L1 47L2 47L2 46ZM21 46L21 47L22 47L22 46ZM41 46L41 47L40 47L40 48L41 48L41 47L42 47L42 48L43 48L43 47L42 47L42 46ZM50 46L50 47L51 47L51 46ZM28 47L28 48L29 48L29 47ZM52 47L52 48L53 48L53 49L55 49L55 50L56 50L56 48L53 48L53 47ZM6 48L6 49L8 49L8 51L9 51L9 48ZM13 48L13 49L14 49L14 48ZM20 48L20 49L21 49L21 48ZM27 49L27 52L30 52L30 49ZM33 49L33 50L34 50L34 49ZM49 49L49 52L52 52L52 49ZM28 50L28 51L29 51L29 50ZM40 50L40 51L38 51L38 52L40 52L40 55L41 55L41 56L42 56L42 54L41 54L41 52L40 52L40 51L42 51L42 53L43 53L43 56L44 56L44 55L45 55L45 54L44 54L44 53L43 53L43 50ZM50 50L50 51L51 51L51 50ZM11 51L11 55L13 55L13 54L12 54L12 51ZM55 51L55 52L54 52L54 53L53 53L53 54L51 54L51 53L49 53L49 55L50 55L50 54L51 54L51 55L54 55L54 53L55 53L55 52L56 52L56 51ZM29 53L29 54L30 54L30 53ZM38 53L38 54L39 54L39 53ZM19 54L19 55L20 55L20 54ZM26 55L26 56L28 56L28 55ZM0 0L0 7L7 7L7 0ZM1 1L1 6L6 6L6 1ZM2 2L2 5L5 5L5 2ZM50 0L50 7L57 7L57 0ZM51 1L51 6L56 6L56 1ZM52 2L52 5L55 5L55 2ZM0 50L0 57L7 57L7 50ZM1 51L1 56L6 56L6 51ZM2 52L2 55L5 55L5 52Z" fill="#000000"/></g></g></svg>
