<?xml version="1.0" encoding="UTF-8"?>
<svg xmlns="http://www.w3.org/2000/svg" version="1.1" width="300" height="300" viewBox="0 0 300 300"><rect x="0" y="0" width="300" height="300" fill="#ffffff"/><g transform="scale(4.918)"><g transform="translate(2,2)"><path fill-rule="evenodd" d="M8 0L8 1L11 1L11 4L10 4L10 5L11 5L11 6L10 6L10 10L11 10L11 11L8 11L8 10L5 10L5 9L4 9L4 8L0 8L0 11L1 11L1 12L2 12L2 13L3 13L3 12L2 12L2 11L1 11L1 9L2 9L2 10L3 10L3 9L4 9L4 10L5 10L5 11L4 11L4 15L3 15L3 14L1 14L1 13L0 13L0 17L1 17L1 18L3 18L3 21L5 21L5 20L6 20L6 21L7 21L7 20L8 20L8 22L6 22L6 23L5 23L5 22L4 22L4 24L3 24L3 22L2 22L2 23L1 23L1 24L2 24L2 25L1 25L1 27L3 27L3 29L2 29L2 28L0 28L0 29L2 29L2 30L1 30L1 31L2 31L2 33L1 33L1 32L0 32L0 33L1 33L1 34L2 34L2 33L3 33L3 32L4 32L4 34L3 34L3 35L2 35L2 36L1 36L1 35L0 35L0 37L1 37L1 38L3 38L3 39L7 39L7 38L5 38L5 36L4 36L4 35L5 35L5 34L6 34L6 35L7 35L7 34L8 34L8 32L9 32L9 34L10 34L10 32L11 32L11 30L12 30L12 32L13 32L13 33L11 33L11 35L14 35L14 39L12 39L12 41L13 41L13 46L14 46L14 48L13 48L13 49L14 49L14 48L15 48L15 50L10 50L10 51L9 51L9 53L8 53L8 57L9 57L9 56L10 56L10 57L12 57L12 56L13 56L13 57L14 57L14 55L15 55L15 56L17 56L17 57L18 57L18 56L17 56L17 54L16 54L16 53L14 53L14 51L15 51L15 52L16 52L16 49L17 49L17 50L19 50L19 51L20 51L20 52L19 52L19 53L18 53L18 54L19 54L19 55L20 55L20 57L23 57L23 54L25 54L25 55L24 55L24 56L26 56L26 54L28 54L28 53L29 53L29 54L31 54L31 55L30 55L30 56L31 56L31 55L32 55L32 57L33 57L33 56L35 56L35 57L36 57L36 56L38 56L38 54L36 54L36 53L35 53L35 52L34 52L34 50L33 50L33 49L31 49L31 47L32 47L32 48L33 48L33 47L32 47L32 46L31 46L31 47L27 47L27 48L26 48L26 47L25 47L25 48L24 48L24 47L23 47L23 48L24 48L24 49L26 49L26 54L25 54L25 53L24 53L24 52L25 52L25 51L24 51L24 50L23 50L23 49L22 49L22 51L20 51L20 50L21 50L21 48L20 48L20 47L21 47L21 46L22 46L22 44L24 44L24 45L23 45L23 46L25 46L25 44L24 44L24 40L25 40L25 39L26 39L26 41L25 41L25 42L29 42L29 43L28 43L28 44L27 44L27 46L28 46L28 44L30 44L30 45L32 45L32 44L31 44L31 41L30 41L30 40L29 40L29 41L28 41L28 39L30 39L30 38L31 38L31 40L32 40L32 41L34 41L34 42L33 42L33 43L34 43L34 42L36 42L36 43L35 43L35 44L33 44L33 45L36 45L36 46L34 46L34 48L36 48L36 49L35 49L35 51L36 51L36 52L37 52L37 53L38 53L38 52L39 52L39 51L40 51L40 52L41 52L41 53L40 53L40 54L39 54L39 55L40 55L40 54L42 54L42 55L43 55L43 56L46 56L46 55L49 55L49 56L48 56L48 57L50 57L50 56L51 56L51 54L50 54L50 53L55 53L55 54L53 54L53 55L52 55L52 57L53 57L53 55L55 55L55 54L56 54L56 53L57 53L57 52L56 52L56 47L57 47L57 43L56 43L56 41L57 41L57 40L56 40L56 41L55 41L55 42L54 42L54 43L55 43L55 44L53 44L53 45L54 45L54 46L52 46L52 44L51 44L51 45L50 45L50 48L49 48L49 46L48 46L48 45L47 45L47 46L46 46L46 45L43 45L43 44L42 44L42 47L44 47L44 48L45 48L45 50L46 50L46 48L47 48L47 47L48 47L48 49L47 49L47 50L48 50L48 51L47 51L47 52L46 52L46 53L45 53L45 52L44 52L44 49L43 49L43 50L42 50L42 51L41 51L41 49L42 49L42 48L41 48L41 49L40 49L40 46L41 46L41 44L39 44L39 43L37 43L37 42L36 42L36 39L34 39L34 35L35 35L35 34L37 34L37 35L36 35L36 37L37 37L37 39L38 39L38 40L37 40L37 41L38 41L38 40L39 40L39 42L40 42L40 40L41 40L41 43L44 43L44 41L45 41L45 42L46 42L46 44L47 44L47 43L48 43L48 44L50 44L50 42L51 42L51 43L53 43L53 41L54 41L54 40L55 40L55 39L54 39L54 38L55 38L55 37L54 37L54 36L53 36L53 41L51 41L51 40L52 40L52 35L56 35L56 36L57 36L57 33L56 33L56 34L55 34L55 32L57 32L57 31L56 31L56 30L57 30L57 27L56 27L56 26L54 26L54 25L57 25L57 21L55 21L55 20L54 20L54 19L56 19L56 18L57 18L57 15L56 15L56 17L55 17L55 14L54 14L54 15L53 15L53 14L51 14L51 13L50 13L50 12L49 12L49 11L50 11L50 10L49 10L49 9L50 9L50 8L48 8L48 7L49 7L49 6L48 6L48 7L47 7L47 5L48 5L48 0L46 0L46 1L44 1L44 0L42 0L42 2L41 2L41 3L42 3L42 2L44 2L44 3L45 3L45 2L46 2L46 3L47 3L47 5L46 5L46 4L45 4L45 5L46 5L46 7L45 7L45 6L44 6L44 5L42 5L42 8L41 8L41 4L40 4L40 3L38 3L38 4L37 4L37 2L38 2L38 1L37 1L37 0L35 0L35 1L34 1L34 2L33 2L33 0L32 0L32 3L30 3L30 2L31 2L31 0L30 0L30 2L29 2L29 3L30 3L30 4L28 4L28 1L27 1L27 4L26 4L26 2L25 2L25 3L23 3L23 2L22 2L22 1L23 1L23 0L21 0L21 1L20 1L20 2L18 2L18 1L17 1L17 2L16 2L16 1L15 1L15 0L14 0L14 2L16 2L16 3L17 3L17 2L18 2L18 4L17 4L17 5L15 5L15 6L14 6L14 3L13 3L13 2L12 2L12 1L11 1L11 0ZM24 0L24 1L26 1L26 0ZM39 0L39 2L40 2L40 1L41 1L41 0ZM46 1L46 2L47 2L47 1ZM8 2L8 5L9 5L9 3L10 3L10 2ZM35 2L35 3L34 3L34 5L35 5L35 4L36 4L36 5L37 5L37 4L36 4L36 2ZM12 3L12 4L13 4L13 3ZM19 3L19 4L20 4L20 5L21 5L21 7L20 7L20 6L19 6L19 5L17 5L17 7L16 7L16 6L15 6L15 8L13 8L13 7L14 7L14 6L13 6L13 5L12 5L12 6L11 6L11 8L12 8L12 9L13 9L13 10L12 10L12 11L11 11L11 12L12 12L12 14L13 14L13 15L12 15L12 16L13 16L13 18L12 18L12 19L15 19L15 20L14 20L14 22L15 22L15 23L16 23L16 27L15 27L15 24L14 24L14 23L12 23L12 21L13 21L13 20L11 20L11 22L10 22L10 23L6 23L6 24L7 24L7 25L2 25L2 26L7 26L7 25L8 25L8 24L10 24L10 23L11 23L11 25L10 25L10 26L9 26L9 27L10 27L10 28L9 28L9 30L10 30L10 28L11 28L11 29L12 29L12 28L13 28L13 27L12 27L12 28L11 28L11 26L12 26L12 24L14 24L14 25L13 25L13 26L14 26L14 28L15 28L15 29L14 29L14 30L15 30L15 31L16 31L16 34L15 34L15 33L13 33L13 34L14 34L14 35L15 35L15 38L17 38L17 39L16 39L16 40L15 40L15 41L14 41L14 45L15 45L15 46L16 46L16 47L15 47L15 48L18 48L18 47L19 47L19 46L21 46L21 45L20 45L20 44L19 44L19 43L18 43L18 42L17 42L17 44L16 44L16 43L15 43L15 41L16 41L16 40L17 40L17 39L18 39L18 41L19 41L19 42L21 42L21 44L22 44L22 41L23 41L23 40L24 40L24 39L25 39L25 38L30 38L30 37L31 37L31 36L32 36L32 37L33 37L33 35L34 35L34 34L35 34L35 33L37 33L37 34L38 34L38 36L37 36L37 37L39 37L39 38L38 38L38 39L39 39L39 40L40 40L40 39L39 39L39 38L41 38L41 40L43 40L43 38L44 38L44 40L46 40L46 41L47 41L47 42L50 42L50 40L51 40L51 37L50 37L50 36L51 36L51 35L50 35L50 36L49 36L49 35L48 35L48 34L49 34L49 33L48 33L48 29L47 29L47 31L46 31L46 28L47 28L47 27L48 27L48 26L50 26L50 25L49 25L49 23L50 23L50 24L51 24L51 26L53 26L53 27L54 27L54 26L53 26L53 25L54 25L54 24L56 24L56 23L55 23L55 22L54 22L54 20L53 20L53 19L52 19L52 18L53 18L53 15L52 15L52 17L50 17L50 16L49 16L49 15L51 15L51 14L49 14L49 12L48 12L48 11L49 11L49 10L48 10L48 9L47 9L47 7L46 7L46 8L44 8L44 6L43 6L43 8L42 8L42 9L43 9L43 11L42 11L42 10L40 10L40 11L39 11L39 9L38 9L38 10L35 10L35 9L34 9L34 10L33 10L33 8L32 8L32 10L29 10L29 9L28 9L28 10L27 10L27 9L26 9L26 6L25 6L25 5L26 5L26 4L24 4L24 6L23 6L23 7L24 7L24 8L25 8L25 11L26 11L26 12L28 12L28 13L29 13L29 14L26 14L26 13L25 13L25 12L23 12L23 11L24 11L24 10L23 10L23 11L21 11L21 15L20 15L20 16L19 16L19 14L20 14L20 12L19 12L19 11L20 11L20 10L22 10L22 8L21 8L21 7L22 7L22 4L23 4L23 3ZM32 3L32 4L31 4L31 5L32 5L32 6L31 6L31 7L32 7L32 6L33 6L33 7L34 7L34 6L33 6L33 5L32 5L32 4L33 4L33 3ZM27 5L27 8L30 8L30 5ZM38 5L38 6L37 6L37 8L36 8L36 9L37 9L37 8L40 8L40 6L39 6L39 5ZM8 6L8 7L9 7L9 6ZM12 6L12 7L13 7L13 6ZM18 6L18 7L19 7L19 9L18 9L18 8L17 8L17 9L18 9L18 10L16 10L16 8L15 8L15 9L14 9L14 10L13 10L13 13L14 13L14 15L13 15L13 16L14 16L14 18L15 18L15 17L16 17L16 18L17 18L17 19L16 19L16 23L18 23L18 24L17 24L17 25L19 25L19 26L17 26L17 27L19 27L19 26L21 26L21 24L24 24L24 25L25 25L25 22L27 22L27 21L29 21L29 22L28 22L28 23L26 23L26 24L27 24L27 25L28 25L28 23L29 23L29 24L30 24L30 23L31 23L31 25L33 25L33 26L32 26L32 27L31 27L31 26L26 26L26 29L25 29L25 28L23 28L23 29L21 29L21 30L22 30L22 31L23 31L23 32L22 32L22 33L21 33L21 32L20 32L20 33L19 33L19 35L18 35L18 34L16 34L16 36L17 36L17 37L18 37L18 38L19 38L19 40L20 40L20 41L22 41L22 40L23 40L23 39L24 39L24 37L25 37L25 36L26 36L26 34L25 34L25 33L23 33L23 32L24 32L24 31L23 31L23 30L24 30L24 29L25 29L25 31L26 31L26 33L27 33L27 31L28 31L28 32L31 32L31 31L33 31L33 32L34 32L34 31L36 31L36 32L37 32L37 33L38 33L38 32L37 32L37 31L39 31L39 30L40 30L40 32L39 32L39 37L40 37L40 34L41 34L41 31L42 31L42 30L41 30L41 29L44 29L44 30L43 30L43 31L45 31L45 28L46 28L46 27L47 27L47 26L48 26L48 24L47 24L47 22L50 22L50 21L47 21L47 22L46 22L46 23L44 23L44 24L46 24L46 25L44 25L44 26L40 26L40 25L39 25L39 23L38 23L38 21L37 21L37 23L38 23L38 26L37 26L37 24L36 24L36 22L35 22L35 23L34 23L34 24L32 24L32 22L33 22L33 21L34 21L34 19L35 19L35 20L40 20L40 21L39 21L39 22L40 22L40 21L41 21L41 23L42 23L42 24L41 24L41 25L43 25L43 21L44 21L44 22L45 22L45 21L46 21L46 19L47 19L47 20L48 20L48 19L49 19L49 20L51 20L51 21L53 21L53 20L51 20L51 19L50 19L50 18L48 18L48 17L49 17L49 16L45 16L45 15L44 15L44 14L45 14L45 13L46 13L46 12L47 12L47 11L48 11L48 10L46 10L46 11L45 11L45 9L44 9L44 12L42 12L42 13L41 13L41 15L39 15L39 14L40 14L40 13L38 13L38 12L39 12L39 11L38 11L38 12L36 12L36 11L35 11L35 10L34 10L34 12L33 12L33 13L32 13L32 12L31 12L31 11L29 11L29 12L31 12L31 13L30 13L30 14L31 14L31 13L32 13L32 14L34 14L34 13L38 13L38 15L37 15L37 16L38 16L38 17L37 17L37 19L35 19L35 17L36 17L36 15L35 15L35 16L34 16L34 15L30 15L30 16L28 16L28 15L27 15L27 17L26 17L26 16L25 16L25 15L24 15L24 14L22 14L22 15L21 15L21 16L23 16L23 20L22 20L22 19L21 19L21 18L19 18L19 17L18 17L18 16L17 16L17 15L16 15L16 16L14 16L14 15L15 15L15 14L16 14L16 13L17 13L17 12L18 12L18 13L19 13L19 12L18 12L18 10L20 10L20 7L19 7L19 6ZM24 6L24 7L25 7L25 6ZM28 6L28 7L29 7L29 6ZM35 6L35 7L36 7L36 6ZM38 6L38 7L39 7L39 6ZM6 8L6 9L7 9L7 8ZM8 8L8 9L9 9L9 8ZM52 8L52 9L51 9L51 10L53 10L53 9L55 9L55 10L54 10L54 11L56 11L56 13L57 13L57 8L56 8L56 9L55 9L55 8ZM14 10L14 11L15 11L15 10ZM32 10L32 11L33 11L33 10ZM6 11L6 12L5 12L5 13L6 13L6 14L5 14L5 15L4 15L4 17L3 17L3 16L2 16L2 15L1 15L1 17L3 17L3 18L4 18L4 17L5 17L5 18L9 18L9 17L10 17L10 18L11 18L11 17L10 17L10 16L9 16L9 15L10 15L10 14L11 14L11 13L10 13L10 14L9 14L9 12L8 12L8 13L6 13L6 12L7 12L7 11ZM16 11L16 12L17 12L17 11ZM51 11L51 12L52 12L52 11ZM22 12L22 13L23 13L23 12ZM44 12L44 13L42 13L42 14L44 14L44 13L45 13L45 12ZM6 14L6 15L7 15L7 16L5 16L5 17L7 17L7 16L8 16L8 17L9 17L9 16L8 16L8 14ZM47 14L47 15L48 15L48 14ZM38 15L38 16L39 16L39 15ZM41 15L41 16L40 16L40 17L42 17L42 18L40 18L40 19L41 19L41 21L43 21L43 20L42 20L42 19L44 19L44 21L45 21L45 19L46 19L46 17L44 17L44 16L43 16L43 17L42 17L42 15ZM24 16L24 19L26 19L26 17L25 17L25 16ZM31 16L31 17L30 17L30 18L29 18L29 17L27 17L27 20L23 20L23 21L24 21L24 22L25 22L25 21L27 21L27 20L29 20L29 19L31 19L31 18L32 18L32 20L30 20L30 21L33 21L33 19L34 19L34 17L32 17L32 16ZM38 17L38 18L39 18L39 17ZM54 17L54 18L55 18L55 17ZM18 18L18 20L17 20L17 22L21 22L21 23L20 23L20 24L19 24L19 25L20 25L20 24L21 24L21 23L22 23L22 22L21 22L21 20L20 20L20 19L19 19L19 18ZM28 18L28 19L29 19L29 18ZM47 18L47 19L48 19L48 18ZM1 19L1 20L2 20L2 19ZM4 19L4 20L5 20L5 19ZM6 19L6 20L7 20L7 19ZM9 20L9 21L10 21L10 20ZM51 22L51 23L53 23L53 24L54 24L54 23L53 23L53 22ZM34 25L34 27L32 27L32 28L33 28L33 29L34 29L34 27L35 27L35 30L36 30L36 31L37 31L37 30L36 30L36 29L38 29L38 30L39 30L39 27L40 27L40 29L41 29L41 28L42 28L42 27L40 27L40 26L39 26L39 27L38 27L38 28L37 28L37 26L36 26L36 27L35 27L35 25ZM46 25L46 26L47 26L47 25ZM22 26L22 27L23 27L23 26ZM24 26L24 27L25 27L25 26ZM5 27L5 30L8 30L8 27ZM20 27L20 28L18 28L18 29L19 29L19 31L17 31L17 28L16 28L16 29L15 29L15 30L16 30L16 31L17 31L17 32L19 32L19 31L20 31L20 28L21 28L21 27ZM27 27L27 30L30 30L30 27ZM44 27L44 28L45 28L45 27ZM49 27L49 30L52 30L52 27ZM6 28L6 29L7 29L7 28ZM28 28L28 29L29 29L29 28ZM50 28L50 29L51 29L51 28ZM53 28L53 29L54 29L54 30L53 30L53 31L54 31L54 32L55 32L55 30L56 30L56 28L55 28L55 29L54 29L54 28ZM3 29L3 30L2 30L2 31L4 31L4 32L5 32L5 33L6 33L6 34L7 34L7 33L6 33L6 32L7 32L7 31L6 31L6 32L5 32L5 31L4 31L4 29ZM31 29L31 30L32 30L32 29ZM9 31L9 32L10 32L10 31ZM50 31L50 32L51 32L51 33L50 33L50 34L54 34L54 33L53 33L53 32L52 32L52 31ZM45 32L45 33L44 33L44 34L43 34L43 33L42 33L42 35L41 35L41 36L42 36L42 35L45 35L45 38L46 38L46 37L47 37L47 36L48 36L48 35L47 35L47 34L48 34L48 33L47 33L47 34L46 34L46 35L45 35L45 33L46 33L46 32ZM20 33L20 34L21 34L21 33ZM29 33L29 35L28 35L28 34L27 34L27 36L29 36L29 37L30 37L30 34L31 34L31 33ZM22 34L22 35L20 35L20 36L19 36L19 37L20 37L20 38L22 38L22 37L23 37L23 35L24 35L24 34ZM32 34L32 35L33 35L33 34ZM17 35L17 36L18 36L18 35ZM6 36L6 37L8 37L8 40L2 40L2 39L1 39L1 40L0 40L0 41L1 41L1 40L2 40L2 42L1 42L1 45L0 45L0 48L5 48L5 47L7 47L7 48L6 48L6 49L7 49L7 48L8 48L8 47L9 47L9 49L8 49L8 50L9 50L9 49L10 49L10 48L11 48L11 49L12 49L12 48L11 48L11 47L12 47L12 46L10 46L10 44L11 44L11 45L12 45L12 44L11 44L11 40L9 40L9 38L10 38L10 39L11 39L11 37L13 37L13 36ZM43 36L43 37L44 37L44 36ZM48 37L48 39L49 39L49 40L47 40L47 41L49 41L49 40L50 40L50 39L49 39L49 37ZM32 38L32 40L34 40L34 41L35 41L35 40L34 40L34 39L33 39L33 38ZM56 38L56 39L57 39L57 38ZM3 41L3 42L4 42L4 41ZM6 41L6 42L5 42L5 43L2 43L2 45L1 45L1 47L2 47L2 46L3 46L3 47L5 47L5 44L7 44L7 43L6 43L6 42L7 42L7 41ZM8 41L8 42L9 42L9 44L8 44L8 45L6 45L6 46L7 46L7 47L8 47L8 46L9 46L9 44L10 44L10 41ZM42 41L42 42L43 42L43 41ZM36 43L36 45L37 45L37 46L36 46L36 47L37 47L37 46L38 46L38 48L39 48L39 46L40 46L40 45L39 45L39 44L38 44L38 45L37 45L37 43ZM3 44L3 45L4 45L4 44ZM17 45L17 47L18 47L18 46L19 46L19 45ZM45 46L45 47L46 47L46 46ZM51 47L51 48L52 48L52 47ZM54 47L54 48L53 48L53 49L55 49L55 47ZM19 48L19 49L20 49L20 48ZM27 49L27 52L30 52L30 49ZM36 49L36 51L38 51L38 49ZM39 49L39 50L40 50L40 49ZM49 49L49 52L52 52L52 49ZM28 50L28 51L29 51L29 50ZM31 50L31 52L32 52L32 51L33 51L33 50ZM50 50L50 51L51 51L51 50ZM53 50L53 52L54 52L54 50ZM12 51L12 53L13 53L13 54L11 54L11 56L12 56L12 55L14 55L14 53L13 53L13 51ZM17 51L17 52L18 52L18 51ZM23 51L23 52L21 52L21 53L20 53L20 55L21 55L21 56L22 56L22 55L21 55L21 53L22 53L22 54L23 54L23 52L24 52L24 51ZM33 52L33 53L31 53L31 54L33 54L33 55L35 55L35 56L36 56L36 54L33 54L33 53L34 53L34 52ZM55 52L55 53L56 53L56 52ZM42 53L42 54L43 54L43 55L46 55L46 54L43 54L43 53ZM47 53L47 54L48 54L48 53ZM56 55L56 56L57 56L57 55ZM27 56L27 57L29 57L29 56ZM39 56L39 57L41 57L41 56ZM0 0L0 7L7 7L7 0ZM1 1L1 6L6 6L6 1ZM2 2L2 5L5 5L5 2ZM50 0L50 7L57 7L57 0ZM51 1L51 6L56 6L56 1ZM52 2L52 5L55 5L55 2ZM0 50L0 57L7 57L7 50ZM1 51L1 56L6 56L6 51ZM2 52L2 55L5 55L5 52Z" fill="#000000"/></g></g></svg>
