<?xml version="1.0" encoding="UTF-8"?>
<svg xmlns="http://www.w3.org/2000/svg" version="1.1" width="300" height="300" viewBox="0 0 300 300"><rect x="0" y="0" width="300" height="300" fill="#ffffff"/><g transform="scale(4.918)"><g transform="translate(2,2)"><path fill-rule="evenodd" d="M9 0L9 1L8 1L8 2L10 2L10 3L11 3L11 2L10 2L10 0ZM11 0L11 1L12 1L12 3L13 3L13 5L12 5L12 4L10 4L10 5L12 5L12 7L11 7L11 6L10 6L10 8L6 8L6 9L8 9L8 10L9 10L9 11L8 11L8 12L6 12L6 11L7 11L7 10L6 10L6 11L5 11L5 8L0 8L0 9L1 9L1 10L0 10L0 13L1 13L1 12L2 12L2 13L3 13L3 14L2 14L2 15L5 15L5 16L4 16L4 17L5 17L5 18L3 18L3 17L2 17L2 18L3 18L3 19L1 19L1 16L0 16L0 19L1 19L1 23L0 23L0 24L1 24L1 23L2 23L2 24L4 24L4 25L5 25L5 24L6 24L6 25L7 25L7 26L3 26L3 25L2 25L2 26L1 26L1 25L0 25L0 26L1 26L1 27L0 27L0 28L3 28L3 30L2 30L2 29L1 29L1 30L0 30L0 31L3 31L3 30L4 30L4 33L5 33L5 37L4 37L4 39L8 39L8 38L9 38L9 39L10 39L10 40L5 40L5 42L4 42L4 40L3 40L3 39L2 39L2 41L0 41L0 42L1 42L1 43L3 43L3 45L4 45L4 43L5 43L5 47L3 47L3 46L2 46L2 45L1 45L1 46L0 46L0 48L5 48L5 47L7 47L7 48L6 48L6 49L8 49L8 51L9 51L9 52L8 52L8 57L9 57L9 56L10 56L10 55L11 55L11 53L12 53L12 52L11 52L11 51L13 51L13 48L14 48L14 50L15 50L15 51L14 51L14 52L15 52L15 53L16 53L16 54L14 54L14 53L13 53L13 54L14 54L14 55L16 55L16 57L19 57L19 56L17 56L17 55L20 55L20 54L17 54L17 53L20 53L20 52L21 52L21 51L20 51L20 52L18 52L18 51L19 51L19 50L20 50L20 49L21 49L21 50L23 50L23 51L24 51L24 53L21 53L21 54L24 54L24 53L26 53L26 56L25 56L25 57L26 57L26 56L28 56L28 55L27 55L27 53L28 53L28 54L30 54L30 53L31 53L31 55L34 55L34 56L30 56L30 55L29 55L29 56L30 56L30 57L40 57L40 56L41 56L41 57L42 57L42 55L43 55L43 57L44 57L44 56L45 56L45 57L47 57L47 56L45 56L45 55L48 55L48 56L50 56L50 55L51 55L51 57L52 57L52 56L53 56L53 55L51 55L51 54L54 54L54 56L55 56L55 57L56 57L56 56L55 56L55 54L54 54L54 53L53 53L53 48L55 48L55 49L56 49L56 50L55 50L55 51L54 51L54 52L56 52L56 50L57 50L57 49L56 49L56 48L55 48L55 47L56 47L56 46L57 46L57 44L56 44L56 42L57 42L57 41L56 41L56 42L55 42L55 39L57 39L57 37L56 37L56 38L55 38L55 37L54 37L54 36L56 36L56 34L57 34L57 33L56 33L56 30L57 30L57 29L56 29L56 28L57 28L57 27L56 27L56 26L57 26L57 23L56 23L56 22L57 22L57 21L55 21L55 23L53 23L53 22L54 22L54 21L53 21L53 22L52 22L52 24L51 24L51 25L52 25L52 24L53 24L53 25L54 25L54 26L55 26L55 27L53 27L53 26L49 26L49 25L50 25L50 23L51 23L51 22L50 22L50 11L51 11L51 10L49 10L49 9L50 9L50 8L49 8L49 6L48 6L48 8L47 8L47 5L48 5L48 0L46 0L46 1L47 1L47 2L44 2L44 1L43 1L43 0L42 0L42 1L41 1L41 0L40 0L40 1L38 1L38 0L36 0L36 1L33 1L33 0L32 0L32 1L31 1L31 0L30 0L30 1L29 1L29 0L28 0L28 1L29 1L29 2L27 2L27 1L26 1L26 0L24 0L24 1L23 1L23 0L21 0L21 1L23 1L23 2L22 2L22 3L21 3L21 2L20 2L20 3L21 3L21 4L19 4L19 3L18 3L18 4L19 4L19 5L18 5L18 7L17 7L17 6L16 6L16 7L15 7L15 5L16 5L16 4L14 4L14 2L13 2L13 1L15 1L15 2L17 2L17 1L16 1L16 0L13 0L13 1L12 1L12 0ZM18 1L18 2L19 2L19 1ZM30 1L30 2L31 2L31 1ZM32 1L32 2L33 2L33 1ZM37 1L37 2L34 2L34 3L35 3L35 4L33 4L33 3L32 3L32 4L31 4L31 3L30 3L30 4L31 4L31 7L32 7L32 8L31 8L31 9L32 9L32 10L31 10L31 11L30 11L30 10L29 10L29 9L28 9L28 10L29 10L29 11L30 11L30 12L28 12L28 13L26 13L26 15L25 15L25 16L27 16L27 17L28 17L28 16L29 16L29 17L31 17L31 18L29 18L29 20L27 20L27 19L28 19L28 18L26 18L26 17L25 17L25 18L24 18L24 19L23 19L23 18L21 18L21 17L20 17L20 16L21 16L21 13L22 13L22 15L23 15L23 16L22 16L22 17L24 17L24 15L23 15L23 14L24 14L24 13L25 13L25 12L27 12L27 11L26 11L26 10L27 10L27 9L25 9L25 10L23 10L23 12L24 12L24 13L22 13L22 12L21 12L21 11L22 11L22 10L21 10L21 9L24 9L24 6L23 6L23 5L24 5L24 4L23 4L23 3L24 3L24 2L23 2L23 3L22 3L22 4L21 4L21 8L19 8L19 9L18 9L18 8L17 8L17 7L16 7L16 9L15 9L15 8L14 8L14 9L12 9L12 10L11 10L11 8L10 8L10 9L9 9L9 10L11 10L11 11L9 11L9 12L10 12L10 14L9 14L9 15L10 15L10 16L11 16L11 17L9 17L9 18L8 18L8 17L6 17L6 18L5 18L5 20L2 20L2 21L3 21L3 23L4 23L4 24L5 24L5 23L6 23L6 24L7 24L7 25L8 25L8 26L9 26L9 28L10 28L10 29L9 29L9 30L10 30L10 31L9 31L9 32L10 32L10 34L9 34L9 33L8 33L8 32L7 32L7 31L5 31L5 32L7 32L7 33L6 33L6 34L7 34L7 35L6 35L6 36L7 36L7 35L8 35L8 36L9 36L9 38L10 38L10 39L13 39L13 41L9 41L9 42L8 42L8 41L6 41L6 42L8 42L8 43L6 43L6 44L7 44L7 45L6 45L6 46L8 46L8 47L10 47L10 50L9 50L9 51L10 51L10 50L11 50L11 49L12 49L12 47L13 47L13 46L14 46L14 45L15 45L15 47L17 47L17 49L15 49L15 50L16 50L16 51L15 51L15 52L16 52L16 53L17 53L17 51L18 51L18 50L19 50L19 49L20 49L20 48L21 48L21 49L24 49L24 47L25 47L25 52L26 52L26 48L27 48L27 47L28 47L28 48L31 48L31 49L32 49L32 50L31 50L31 52L32 52L32 54L35 54L35 55L36 55L36 56L40 56L40 55L42 55L42 54L41 54L41 53L43 53L43 55L45 55L45 54L44 54L44 53L46 53L46 54L48 54L48 52L47 52L47 51L48 51L48 48L49 48L49 47L52 47L52 48L53 48L53 47L52 47L52 46L55 46L55 45L56 45L56 44L54 44L54 45L52 45L52 44L53 44L53 43L54 43L54 41L53 41L53 40L52 40L52 38L53 38L53 39L55 39L55 38L54 38L54 37L53 37L53 36L54 36L54 35L55 35L55 34L56 34L56 33L55 33L55 32L54 32L54 31L51 31L51 32L50 32L50 35L49 35L49 31L48 31L48 29L46 29L46 30L45 30L45 28L42 28L42 26L41 26L41 25L43 25L43 24L44 24L44 26L43 26L43 27L46 27L46 28L48 28L48 27L46 27L46 26L48 26L48 25L49 25L49 24L48 24L48 23L47 23L47 24L48 24L48 25L45 25L45 24L44 24L44 21L45 21L45 20L43 20L43 19L46 19L46 20L47 20L47 21L46 21L46 22L45 22L45 23L46 23L46 22L47 22L47 21L48 21L48 20L47 20L47 19L46 19L46 18L47 18L47 17L48 17L48 16L49 16L49 15L45 15L45 12L46 12L46 14L47 14L47 13L49 13L49 12L48 12L48 11L49 11L49 10L48 10L48 9L49 9L49 8L48 8L48 9L46 9L46 5L47 5L47 3L43 3L43 5L40 5L40 4L41 4L41 3L40 3L40 4L39 4L39 3L37 3L37 2L38 2L38 1ZM40 1L40 2L41 2L41 1ZM42 1L42 2L43 2L43 1ZM25 2L25 3L26 3L26 4L25 4L25 8L26 8L26 4L29 4L29 3L27 3L27 2ZM8 3L8 4L9 4L9 3ZM36 3L36 5L34 5L34 8L36 8L36 10L34 10L34 9L33 9L33 11L31 11L31 13L32 13L32 14L33 14L33 15L31 15L31 14L30 14L30 13L28 13L28 14L27 14L27 16L28 16L28 15L29 15L29 14L30 14L30 16L33 16L33 18L34 18L34 19L35 19L35 18L34 18L34 17L35 17L35 16L36 16L36 19L37 19L37 20L36 20L36 21L37 21L37 22L36 22L36 23L35 23L35 22L34 22L34 23L33 23L33 21L32 21L32 20L33 20L33 19L30 19L30 22L29 22L29 23L28 23L28 24L27 24L27 22L28 22L28 21L25 21L25 20L26 20L26 18L25 18L25 20L24 20L24 21L22 21L22 20L23 20L23 19L22 19L22 20L21 20L21 21L22 21L22 24L23 24L23 27L24 27L24 26L25 26L25 27L26 27L26 30L25 30L25 29L23 29L23 30L22 30L22 31L21 31L21 32L18 32L18 33L19 33L19 34L18 34L18 35L20 35L20 33L21 33L21 36L22 36L22 34L23 34L23 37L19 37L19 36L17 36L17 40L16 40L16 39L15 39L15 38L16 38L16 37L15 37L15 35L17 35L17 34L15 34L15 33L17 33L17 32L15 32L15 31L14 31L14 29L18 29L18 30L20 30L20 29L22 29L22 28L20 28L20 27L22 27L22 26L20 26L20 24L19 24L19 23L20 23L20 22L17 22L17 21L16 21L16 20L15 20L15 21L16 21L16 22L14 22L14 21L13 21L13 20L14 20L14 19L12 19L12 22L13 22L13 23L16 23L16 25L14 25L14 24L12 24L12 25L14 25L14 26L13 26L13 27L12 27L12 28L13 28L13 27L14 27L14 29L10 29L10 30L13 30L13 31L12 31L12 32L13 32L13 34L12 34L12 35L11 35L11 34L10 34L10 38L11 38L11 36L12 36L12 35L13 35L13 34L14 34L14 36L13 36L13 37L12 37L12 38L13 38L13 37L15 37L15 38L14 38L14 39L15 39L15 40L14 40L14 42L12 42L12 43L11 43L11 44L13 44L13 45L12 45L12 46L13 46L13 45L14 45L14 44L13 44L13 43L15 43L15 45L17 45L17 46L18 46L18 47L19 47L19 48L18 48L18 49L17 49L17 50L18 50L18 49L19 49L19 48L20 48L20 47L19 47L19 45L21 45L21 48L23 48L23 47L22 47L22 45L24 45L24 46L25 46L25 45L26 45L26 44L27 44L27 43L31 43L31 45L32 45L32 43L31 43L31 42L32 42L32 41L30 41L30 42L27 42L27 41L28 41L28 39L27 39L27 38L28 38L28 37L27 37L27 38L25 38L25 36L27 36L27 35L26 35L26 34L25 34L25 32L24 32L24 33L22 33L22 31L27 31L27 32L26 32L26 33L29 33L29 34L30 34L30 35L29 35L29 39L31 39L31 40L32 40L32 39L31 39L31 38L32 38L32 34L34 34L34 35L37 35L37 34L38 34L38 37L37 37L37 36L36 36L36 37L37 37L37 38L33 38L33 39L34 39L34 40L36 40L36 41L37 41L37 43L36 43L36 44L35 44L35 46L30 46L30 44L28 44L28 45L27 45L27 46L26 46L26 47L27 47L27 46L28 46L28 45L29 45L29 47L31 47L31 48L33 48L33 49L34 49L34 48L33 48L33 47L35 47L35 46L36 46L36 47L39 47L39 46L40 46L40 48L38 48L38 49L37 49L37 48L35 48L35 50L33 50L33 51L32 51L32 52L33 52L33 53L34 53L34 52L36 52L36 53L35 53L35 54L36 54L36 55L40 55L40 52L41 52L41 51L40 51L40 52L39 52L39 54L38 54L38 51L39 51L39 50L38 50L38 49L40 49L40 48L41 48L41 47L42 47L42 48L46 48L46 47L47 47L47 46L46 46L46 45L47 45L47 44L48 44L48 43L49 43L49 45L48 45L48 46L49 46L49 45L50 45L50 46L52 46L52 45L50 45L50 44L52 44L52 43L53 43L53 42L51 42L51 41L52 41L52 40L51 40L51 39L50 39L50 38L51 38L51 37L50 37L50 38L49 38L49 39L50 39L50 40L51 40L51 41L48 41L48 42L45 42L45 41L47 41L47 40L46 40L46 39L44 39L44 40L43 40L43 37L44 37L44 38L45 38L45 37L46 37L46 36L48 36L48 37L47 37L47 38L48 38L48 37L49 37L49 36L48 36L48 33L47 33L47 32L48 32L48 31L47 31L47 30L46 30L46 31L44 31L44 30L43 30L43 29L42 29L42 30L41 30L41 31L40 31L40 29L39 29L39 28L41 28L41 27L39 27L39 26L36 26L36 25L37 25L37 24L38 24L38 23L37 23L37 22L38 22L38 19L40 19L40 20L39 20L39 24L40 24L40 20L42 20L42 21L41 21L41 24L42 24L42 23L43 23L43 20L42 20L42 18L43 18L43 17L42 17L42 18L41 18L41 17L40 17L40 16L41 16L41 15L42 15L42 16L45 16L45 15L44 15L44 12L45 12L45 11L47 11L47 10L45 10L45 11L44 11L44 10L43 10L43 9L44 9L44 7L45 7L45 6L44 6L44 7L43 7L43 6L42 6L42 8L41 8L41 6L40 6L40 8L36 8L36 7L37 7L37 6L38 6L38 7L39 7L39 6L38 6L38 4L37 4L37 3ZM22 4L22 5L23 5L23 4ZM44 4L44 5L46 5L46 4ZM8 5L8 7L9 7L9 5ZM19 5L19 7L20 7L20 5ZM27 5L27 8L30 8L30 5ZM36 5L36 6L35 6L35 7L36 7L36 6L37 6L37 5ZM13 6L13 7L14 7L14 6ZM22 6L22 8L23 8L23 6ZM28 6L28 7L29 7L29 6ZM32 6L32 7L33 7L33 6ZM40 8L40 9L41 9L41 8ZM51 8L51 9L52 9L52 10L53 10L53 11L52 11L52 12L53 12L53 11L54 11L54 12L55 12L55 11L56 11L56 12L57 12L57 11L56 11L56 10L55 10L55 11L54 11L54 10L53 10L53 9L54 9L54 8L53 8L53 9L52 9L52 8ZM55 8L55 9L56 9L56 8ZM3 9L3 10L1 10L1 11L3 11L3 13L4 13L4 14L5 14L5 13L6 13L6 14L7 14L7 13L6 13L6 12L5 12L5 11L3 11L3 10L4 10L4 9ZM17 9L17 10L12 10L12 11L11 11L11 12L12 12L12 17L11 17L11 18L9 18L9 19L10 19L10 21L9 21L9 22L8 22L8 18L6 18L6 19L7 19L7 20L5 20L5 21L4 21L4 22L5 22L5 21L7 21L7 22L6 22L6 23L11 23L11 18L12 18L12 17L13 17L13 18L14 18L14 16L15 16L15 15L16 15L16 17L15 17L15 19L18 19L18 21L20 21L20 20L19 20L19 19L21 19L21 18L20 18L20 17L19 17L19 16L20 16L20 14L19 14L19 11L20 11L20 9L19 9L19 10L18 10L18 9ZM38 9L38 10L37 10L37 11L34 11L34 12L37 12L37 11L41 11L41 12L38 12L38 13L37 13L37 14L35 14L35 13L33 13L33 12L32 12L32 13L33 13L33 14L35 14L35 15L34 15L34 16L35 16L35 15L36 15L36 16L37 16L37 14L40 14L40 15L38 15L38 17L37 17L37 18L40 18L40 19L41 19L41 18L40 18L40 17L39 17L39 16L40 16L40 15L41 15L41 14L42 14L42 15L43 15L43 14L42 14L42 10L39 10L39 9ZM17 10L17 11L15 11L15 12L17 12L17 13L13 13L13 14L17 14L17 17L16 17L16 18L17 18L17 17L18 17L18 19L19 19L19 17L18 17L18 16L19 16L19 15L18 15L18 14L17 14L17 13L18 13L18 12L17 12L17 11L18 11L18 10ZM12 11L12 12L14 12L14 11ZM43 11L43 12L44 12L44 11ZM4 12L4 13L5 13L5 12ZM20 12L20 13L21 13L21 12ZM51 13L51 14L52 14L52 13ZM54 13L54 14L53 14L53 15L54 15L54 16L53 16L53 17L51 17L51 20L52 20L52 19L54 19L54 20L56 20L56 19L55 19L55 18L57 18L57 17L54 17L54 16L55 16L55 15L56 15L56 16L57 16L57 15L56 15L56 14L57 14L57 13L56 13L56 14L55 14L55 13ZM10 14L10 15L11 15L11 14ZM54 14L54 15L55 15L55 14ZM6 15L6 16L7 16L7 15ZM51 15L51 16L52 16L52 15ZM44 17L44 18L46 18L46 17ZM48 18L48 19L49 19L49 18ZM24 21L24 22L23 22L23 23L24 23L24 24L25 24L25 26L26 26L26 25L27 25L27 26L29 26L29 24L28 24L28 25L27 25L27 24L25 24L25 23L26 23L26 22L25 22L25 21ZM30 22L30 24L33 24L33 23L31 23L31 22ZM49 22L49 23L50 23L50 22ZM34 23L34 24L35 24L35 25L33 25L33 28L32 28L32 27L31 27L31 28L32 28L32 30L31 30L31 31L28 31L28 32L29 32L29 33L30 33L30 32L31 32L31 33L33 33L33 32L31 32L31 31L32 31L32 30L39 30L39 29L33 29L33 28L34 28L34 26L35 26L35 25L36 25L36 24L37 24L37 23L36 23L36 24L35 24L35 23ZM8 24L8 25L10 25L10 27L11 27L11 25L10 25L10 24ZM54 24L54 25L55 25L55 24ZM16 25L16 26L18 26L18 27L15 27L15 28L18 28L18 29L20 29L20 28L19 28L19 25ZM31 25L31 26L32 26L32 25ZM3 27L3 28L4 28L4 27ZM5 27L5 30L8 30L8 27ZM27 27L27 30L30 30L30 27ZM37 27L37 28L39 28L39 27ZM49 27L49 30L52 30L52 27ZM55 27L55 28L54 28L54 29L53 29L53 30L55 30L55 28L56 28L56 27ZM6 28L6 29L7 29L7 28ZM28 28L28 29L29 29L29 28ZM50 28L50 29L51 29L51 28ZM16 30L16 31L17 31L17 30ZM42 30L42 31L41 31L41 32L40 32L40 31L36 31L36 32L35 32L35 31L34 31L34 32L35 32L35 33L34 33L34 34L37 34L37 33L36 33L36 32L40 32L40 33L38 33L38 34L39 34L39 36L40 36L40 38L39 38L39 37L38 37L38 40L37 40L37 39L36 39L36 40L37 40L37 41L38 41L38 42L39 42L39 41L40 41L40 43L37 43L37 45L36 45L36 46L39 46L39 45L41 45L41 46L42 46L42 47L44 47L44 46L42 46L42 45L45 45L45 44L40 44L40 43L42 43L42 42L41 42L41 40L42 40L42 39L41 39L41 37L43 37L43 36L42 36L42 35L44 35L44 37L45 37L45 34L47 34L47 33L46 33L46 32L47 32L47 31L46 31L46 32L43 32L43 33L45 33L45 34L42 34L42 31L43 31L43 30ZM10 31L10 32L11 32L11 31ZM2 32L2 33L3 33L3 32ZM14 32L14 33L15 33L15 32ZM51 32L51 33L54 33L54 34L55 34L55 33L54 33L54 32ZM7 33L7 34L8 34L8 35L9 35L9 34L8 34L8 33ZM40 33L40 34L41 34L41 35L40 35L40 36L41 36L41 35L42 35L42 34L41 34L41 33ZM0 34L0 37L1 37L1 38L0 38L0 40L1 40L1 38L3 38L3 36L4 36L4 35L3 35L3 36L2 36L2 34ZM24 34L24 36L25 36L25 34ZM52 34L52 36L53 36L53 34ZM1 36L1 37L2 37L2 36ZM30 36L30 38L31 38L31 36ZM33 36L33 37L34 37L34 36ZM5 37L5 38L7 38L7 37ZM18 37L18 38L19 38L19 39L20 39L20 38L19 38L19 37ZM23 37L23 38L21 38L21 41L20 41L20 40L19 40L19 41L20 41L20 43L19 43L19 44L20 44L20 43L22 43L22 41L24 41L24 39L23 39L23 38L24 38L24 37ZM25 39L25 44L24 44L24 45L25 45L25 44L26 44L26 43L27 43L27 42L26 42L26 41L27 41L27 40L26 40L26 39ZM15 40L15 41L16 41L16 42L15 42L15 43L16 43L16 44L17 44L17 45L18 45L18 44L17 44L17 43L18 43L18 42L17 42L17 41L16 41L16 40ZM44 40L44 41L45 41L45 40ZM2 41L2 42L3 42L3 43L4 43L4 42L3 42L3 41ZM33 41L33 44L34 44L34 41ZM23 42L23 43L24 43L24 42ZM44 42L44 43L45 43L45 42ZM50 42L50 43L51 43L51 42ZM8 43L8 44L9 44L9 45L10 45L10 44L9 44L9 43ZM21 44L21 45L22 45L22 44ZM38 44L38 45L39 45L39 44ZM1 46L1 47L2 47L2 46ZM8 48L8 49L9 49L9 48ZM27 49L27 52L30 52L30 49ZM41 49L41 50L45 50L45 51L47 51L47 50L45 50L45 49ZM49 49L49 52L52 52L52 49ZM28 50L28 51L29 51L29 50ZM37 50L37 51L36 51L36 52L37 52L37 51L38 51L38 50ZM50 50L50 51L51 51L51 50ZM43 51L43 53L44 53L44 51ZM9 53L9 55L10 55L10 53ZM49 53L49 54L51 54L51 53ZM12 55L12 56L11 56L11 57L12 57L12 56L13 56L13 55ZM22 55L22 56L24 56L24 55ZM0 0L0 7L7 7L7 0ZM1 1L1 6L6 6L6 1ZM2 2L2 5L5 5L5 2ZM50 0L50 7L57 7L57 0ZM51 1L51 6L56 6L56 1ZM52 2L52 5L55 5L55 2ZM0 50L0 57L7 57L7 50ZM1 51L1 56L6 56L6 51ZM2 52L2 55L5 55L5 52Z" fill="#000000"/></g></g></svg>
