<?xml version="1.0" encoding="UTF-8"?>
<svg xmlns="http://www.w3.org/2000/svg" version="1.1" width="300" height="300" viewBox="0 0 300 300"><rect x="0" y="0" width="300" height="300" fill="#ffffff"/><g transform="scale(4.918)"><g transform="translate(2,2)"><path fill-rule="evenodd" d="M10 0L10 1L8 1L8 2L9 2L9 3L8 3L8 4L9 4L9 5L8 5L8 7L9 7L9 5L10 5L10 7L11 7L11 8L10 8L10 10L8 10L8 13L7 13L7 12L5 12L5 11L7 11L7 10L6 10L6 9L9 9L9 8L6 8L6 9L5 9L5 8L0 8L0 11L1 11L1 12L2 12L2 14L4 14L4 15L2 15L2 16L0 16L0 17L1 17L1 18L0 18L0 20L1 20L1 21L2 21L2 20L4 20L4 21L5 21L5 18L6 18L6 19L7 19L7 18L8 18L8 17L9 17L9 15L8 15L8 14L10 14L10 15L11 15L11 16L12 16L12 17L10 17L10 18L9 18L9 19L8 19L8 20L9 20L9 21L7 21L7 20L6 20L6 21L7 21L7 22L5 22L5 23L7 23L7 22L8 22L8 24L4 24L4 25L3 25L3 24L2 24L2 25L0 25L0 26L2 26L2 27L3 27L3 26L4 26L4 29L3 29L3 33L5 33L5 34L4 34L4 35L3 35L3 34L2 34L2 35L1 35L1 36L0 36L0 37L1 37L1 36L2 36L2 38L0 38L0 40L1 40L1 41L0 41L0 42L1 42L1 43L0 43L0 45L2 45L2 44L1 44L1 43L3 43L3 45L4 45L4 46L5 46L5 47L3 47L3 46L2 46L2 47L1 47L1 46L0 46L0 48L5 48L5 47L9 47L9 46L10 46L10 45L11 45L11 46L12 46L12 48L13 48L13 47L14 47L14 49L12 49L12 50L14 50L14 51L12 51L12 52L11 52L11 51L9 51L9 49L11 49L11 48L9 48L9 49L8 49L8 51L9 51L9 52L8 52L8 57L11 57L11 56L12 56L12 57L13 57L13 56L14 56L14 57L16 57L16 56L17 56L17 57L21 57L21 56L23 56L23 57L26 57L26 56L28 56L28 55L26 55L26 54L27 54L27 53L28 53L28 54L30 54L30 53L31 53L31 55L32 55L32 56L30 56L30 55L29 55L29 56L30 56L30 57L32 57L32 56L33 56L33 55L34 55L34 54L32 54L32 52L33 52L33 53L34 53L34 52L36 52L36 53L35 53L35 56L34 56L34 57L40 57L40 56L41 56L41 57L44 57L44 56L46 56L46 57L47 57L47 55L49 55L49 53L50 53L50 55L51 55L51 56L50 56L50 57L52 57L52 56L54 56L54 57L56 57L56 56L55 56L55 55L54 55L54 54L55 54L55 53L54 53L54 52L55 52L55 50L57 50L57 49L53 49L53 48L57 48L57 47L56 47L56 46L57 46L57 43L56 43L56 42L57 42L57 41L56 41L56 42L55 42L55 39L57 39L57 36L56 36L56 35L55 35L55 34L57 34L57 32L56 32L56 30L57 30L57 29L56 29L56 28L55 28L55 27L56 27L56 26L57 26L57 25L56 25L56 26L55 26L55 25L54 25L54 24L57 24L57 23L56 23L56 22L57 22L57 21L56 21L56 20L57 20L57 19L56 19L56 20L55 20L55 19L52 19L52 18L54 18L54 16L55 16L55 18L57 18L57 17L56 17L56 16L57 16L57 15L56 15L56 14L57 14L57 12L56 12L56 8L55 8L55 11L54 11L54 10L53 10L53 11L52 11L52 8L51 8L51 10L49 10L49 9L50 9L50 8L49 8L49 6L48 6L48 7L47 7L47 5L48 5L48 0L45 0L45 1L47 1L47 2L44 2L44 1L43 1L43 0L42 0L42 1L41 1L41 2L39 2L39 1L36 1L36 0L35 0L35 1L34 1L34 0L33 0L33 1L34 1L34 2L32 2L32 1L31 1L31 0L30 0L30 1L29 1L29 2L28 2L28 3L27 3L27 4L26 4L26 3L23 3L23 4L19 4L19 3L22 3L22 2L19 2L19 1L18 1L18 2L19 2L19 3L17 3L17 1L16 1L16 0L14 0L14 1L15 1L15 2L14 2L14 3L13 3L13 2L11 2L11 0ZM12 0L12 1L13 1L13 0ZM21 0L21 1L23 1L23 2L27 2L27 1L26 1L26 0L24 0L24 1L23 1L23 0ZM30 1L30 2L31 2L31 1ZM42 1L42 2L43 2L43 1ZM10 2L10 3L9 3L9 4L10 4L10 5L13 5L13 8L11 8L11 11L9 11L9 13L10 13L10 14L11 14L11 15L12 15L12 16L14 16L14 18L13 18L13 19L14 19L14 20L13 20L13 21L11 21L11 20L10 20L10 19L11 19L11 18L10 18L10 19L9 19L9 20L10 20L10 22L9 22L9 24L8 24L8 26L9 26L9 25L10 25L10 26L11 26L11 27L9 27L9 30L12 30L12 31L13 31L13 30L14 30L14 32L13 32L13 33L12 33L12 32L11 32L11 31L9 31L9 32L8 32L8 33L9 33L9 34L8 34L8 35L6 35L6 36L5 36L5 35L4 35L4 36L3 36L3 35L2 35L2 36L3 36L3 37L4 37L4 36L5 36L5 38L7 38L7 39L4 39L4 38L3 38L3 39L2 39L2 40L8 40L8 41L6 41L6 42L8 42L8 41L9 41L9 40L8 40L8 38L9 38L9 39L11 39L11 40L10 40L10 41L12 41L12 40L13 40L13 39L14 39L14 40L15 40L15 39L16 39L16 41L15 41L15 43L16 43L16 44L17 44L17 45L16 45L16 48L17 48L17 47L18 47L18 46L17 46L17 45L18 45L18 44L17 44L17 43L18 43L18 42L19 42L19 41L17 41L17 39L20 39L20 38L19 38L19 37L21 37L21 38L22 38L22 37L23 37L23 38L24 38L24 37L23 37L23 32L24 32L24 31L23 31L23 30L24 30L24 29L25 29L25 30L26 30L26 27L25 27L25 28L24 28L24 27L23 27L23 25L25 25L25 26L26 26L26 25L27 25L27 24L28 24L28 25L29 25L29 26L30 26L30 25L31 25L31 27L33 27L33 28L32 28L32 29L33 29L33 30L31 30L31 31L30 31L30 32L29 32L29 31L28 31L28 32L29 32L29 33L27 33L27 34L26 34L26 32L27 32L27 31L25 31L25 34L24 34L24 36L25 36L25 38L27 38L27 39L28 39L28 40L26 40L26 39L25 39L25 42L23 42L23 44L24 44L24 45L22 45L22 44L21 44L21 43L22 43L22 42L21 42L21 41L24 41L24 39L22 39L22 40L20 40L20 42L21 42L21 43L19 43L19 44L21 44L21 45L19 45L19 46L21 46L21 45L22 45L22 47L23 47L23 48L21 48L21 47L19 47L19 49L18 49L18 50L19 50L19 49L20 49L20 50L21 50L21 49L22 49L22 50L23 50L23 51L22 51L22 52L20 52L20 53L18 53L18 51L16 51L16 50L17 50L17 49L15 49L15 51L16 51L16 53L14 53L14 54L13 54L13 52L12 52L12 54L13 54L13 55L12 55L12 56L13 56L13 55L14 55L14 56L16 56L16 55L14 55L14 54L16 54L16 53L18 53L18 54L17 54L17 56L18 56L18 55L19 55L19 56L21 56L21 55L24 55L24 56L25 56L25 54L26 54L26 53L24 53L24 51L25 51L25 52L26 52L26 51L25 51L25 50L23 50L23 49L24 49L24 47L25 47L25 49L26 49L26 46L27 46L27 45L28 45L28 46L29 46L29 45L28 45L28 44L26 44L26 43L29 43L29 44L31 44L31 45L30 45L30 46L31 46L31 47L32 47L32 46L35 46L35 45L36 45L36 44L38 44L38 46L36 46L36 48L35 48L35 47L34 47L34 48L31 48L31 49L33 49L33 50L31 50L31 52L32 52L32 51L33 51L33 50L36 50L36 48L37 48L37 49L38 49L38 50L37 50L37 51L36 51L36 52L37 52L37 53L38 53L38 54L37 54L37 55L36 55L36 56L40 56L40 55L41 55L41 56L42 56L42 55L41 55L41 52L42 52L42 53L43 53L43 55L47 55L47 54L48 54L48 52L45 52L45 50L47 50L47 51L48 51L48 48L50 48L50 47L51 47L51 48L53 48L53 47L55 47L55 46L56 46L56 43L55 43L55 44L54 44L54 45L55 45L55 46L53 46L53 45L52 45L52 44L53 44L53 43L54 43L54 41L52 41L52 39L54 39L54 37L56 37L56 36L54 36L54 37L51 37L51 36L52 36L52 34L54 34L54 33L56 33L56 32L54 32L54 31L55 31L55 30L56 30L56 29L55 29L55 28L54 28L54 29L53 29L53 30L54 30L54 31L53 31L53 32L54 32L54 33L51 33L51 32L50 32L50 31L48 31L48 30L47 30L47 29L48 29L48 27L46 27L46 28L47 28L47 29L46 29L46 30L42 30L42 29L43 29L43 28L42 28L42 27L43 27L43 26L42 26L42 27L39 27L39 25L41 25L41 24L40 24L40 23L41 23L41 22L40 22L40 23L39 23L39 21L38 21L38 23L36 23L36 22L37 22L37 21L36 21L36 20L38 20L38 19L36 19L36 18L35 18L35 17L36 17L36 16L38 16L38 17L37 17L37 18L40 18L40 19L39 19L39 20L40 20L40 21L41 21L41 20L40 20L40 19L42 19L42 20L43 20L43 24L44 24L44 25L45 25L45 26L47 26L47 25L49 25L49 24L52 24L52 26L53 26L53 27L55 27L55 26L54 26L54 25L53 25L53 24L52 24L52 23L54 23L54 22L52 22L52 23L50 23L50 22L51 22L51 21L55 21L55 20L51 20L51 19L50 19L50 18L51 18L51 17L53 17L53 16L54 16L54 15L53 15L53 13L55 13L55 14L56 14L56 12L54 12L54 11L53 11L53 12L52 12L52 11L50 11L50 13L49 13L49 12L48 12L48 11L49 11L49 10L48 10L48 9L49 9L49 8L48 8L48 9L45 9L45 8L46 8L46 5L47 5L47 3L40 3L40 5L41 5L41 8L39 8L39 7L40 7L40 6L39 6L39 7L38 7L38 5L39 5L39 2L34 2L34 3L32 3L32 4L31 4L31 9L32 9L32 10L33 10L33 7L34 7L34 10L35 10L35 11L34 11L34 12L36 12L36 11L38 11L38 10L41 10L41 11L39 11L39 12L38 12L38 13L33 13L33 12L32 12L32 13L31 13L31 11L30 11L30 12L28 12L28 13L25 13L25 12L27 12L27 11L26 11L26 10L29 10L29 9L25 9L25 8L26 8L26 4L25 4L25 8L24 8L24 6L23 6L23 7L22 7L22 5L21 5L21 9L20 9L20 10L19 10L19 11L20 11L20 12L19 12L19 13L20 13L20 14L19 14L19 15L18 15L18 14L17 14L17 13L18 13L18 12L17 12L17 13L16 13L16 15L14 15L14 14L15 14L15 13L12 13L12 10L13 10L13 8L14 8L14 10L17 10L17 11L18 11L18 9L17 9L17 7L18 7L18 5L19 5L19 7L20 7L20 5L19 5L19 4L17 4L17 3L14 3L14 4L16 4L16 5L15 5L15 7L16 7L16 8L14 8L14 5L13 5L13 4L11 4L11 2ZM28 3L28 4L29 4L29 3ZM36 3L36 5L35 5L35 6L34 6L34 7L35 7L35 10L36 10L36 9L37 9L37 10L38 10L38 7L37 7L37 6L36 6L36 5L37 5L37 3ZM23 4L23 5L24 5L24 4ZM41 4L41 5L42 5L42 7L43 7L43 4ZM44 4L44 5L46 5L46 4ZM27 5L27 8L30 8L30 5ZM11 6L11 7L12 7L12 6ZM16 6L16 7L17 7L17 6ZM28 6L28 7L29 7L29 6ZM32 6L32 7L33 7L33 6ZM35 6L35 7L36 7L36 8L37 8L37 7L36 7L36 6ZM44 6L44 8L41 8L41 10L42 10L42 14L41 14L41 13L39 13L39 14L36 14L36 15L35 15L35 14L32 14L32 16L31 16L31 14L30 14L30 13L28 13L28 14L27 14L27 16L25 16L25 15L26 15L26 14L25 14L25 13L23 13L23 12L25 12L25 11L23 11L23 10L25 10L25 9L21 9L21 10L22 10L22 11L21 11L21 12L20 12L20 13L21 13L21 14L20 14L20 15L21 15L21 16L20 16L20 17L21 17L21 18L20 18L20 19L22 19L22 20L21 20L21 21L22 21L22 23L21 23L21 24L19 24L19 23L20 23L20 22L18 22L18 21L20 21L20 20L18 20L18 21L16 21L16 19L19 19L19 18L16 18L16 17L19 17L19 16L17 16L17 15L16 15L16 17L15 17L15 21L16 21L16 22L15 22L15 23L12 23L12 22L10 22L10 25L11 25L11 26L12 26L12 27L11 27L11 29L13 29L13 28L14 28L14 29L15 29L15 32L14 32L14 33L13 33L13 34L14 34L14 33L15 33L15 35L14 35L14 36L13 36L13 37L14 37L14 39L15 39L15 38L16 38L16 37L15 37L15 36L18 36L18 37L17 37L17 38L18 38L18 37L19 37L19 36L21 36L21 37L22 37L22 35L21 35L21 34L22 34L22 33L21 33L21 32L20 32L20 33L21 33L21 34L20 34L20 35L19 35L19 34L17 34L17 35L16 35L16 33L19 33L19 31L20 31L20 29L22 29L22 28L20 28L20 29L18 29L18 28L17 28L17 27L18 27L18 26L19 26L19 27L20 27L20 26L19 26L19 25L21 25L21 24L24 24L24 23L23 23L23 22L24 22L24 21L25 21L25 22L26 22L26 23L25 23L25 24L27 24L27 22L29 22L29 23L28 23L28 24L29 24L29 25L30 25L30 24L31 24L31 25L32 25L32 26L33 26L33 25L32 25L32 24L34 24L34 25L35 25L35 22L33 22L33 21L32 21L32 20L34 20L34 21L35 21L35 20L34 20L34 19L35 19L35 18L34 18L34 15L35 15L35 16L36 16L36 15L38 15L38 16L42 16L42 17L41 17L41 18L43 18L43 17L44 17L44 16L45 16L45 18L46 18L46 19L43 19L43 20L48 20L48 21L47 21L47 24L46 24L46 22L45 22L45 21L44 21L44 24L46 24L46 25L47 25L47 24L48 24L48 23L49 23L49 22L50 22L50 19L47 19L47 18L50 18L50 17L49 17L49 16L50 16L50 15L51 15L51 16L52 16L52 15L51 15L51 14L52 14L52 13L51 13L51 14L50 14L50 15L49 15L49 13L47 13L47 14L46 14L46 12L45 12L45 11L47 11L47 10L45 10L45 11L44 11L44 10L43 10L43 9L44 9L44 8L45 8L45 6ZM53 8L53 9L54 9L54 8ZM2 9L2 12L4 12L4 14L5 14L5 12L4 12L4 10L3 10L3 9ZM13 11L13 12L14 12L14 11ZM21 12L21 13L22 13L22 16L21 16L21 17L22 17L22 19L24 19L24 18L23 18L23 17L24 17L24 16L23 16L23 15L25 15L25 14L23 14L23 13L22 13L22 12ZM43 12L43 13L44 13L44 14L42 14L42 15L43 15L43 16L44 16L44 15L45 15L45 16L46 16L46 18L47 18L47 17L48 17L48 16L49 16L49 15L45 15L45 12ZM6 13L6 14L7 14L7 13ZM29 14L29 15L28 15L28 16L27 16L27 17L28 17L28 16L29 16L29 17L31 17L31 18L29 18L29 19L32 19L32 18L33 18L33 19L34 19L34 18L33 18L33 16L32 16L32 17L31 17L31 16L30 16L30 14ZM40 14L40 15L41 15L41 14ZM4 15L4 16L2 16L2 17L3 17L3 18L5 18L5 16L8 16L8 15ZM6 17L6 18L7 18L7 17ZM25 17L25 19L26 19L26 20L28 20L28 21L29 21L29 22L30 22L30 23L29 23L29 24L30 24L30 23L31 23L31 22L30 22L30 21L29 21L29 20L28 20L28 18L26 18L26 17ZM1 18L1 19L2 19L2 18ZM22 20L22 21L24 21L24 20ZM13 21L13 22L14 22L14 21ZM0 22L0 24L1 24L1 22ZM3 22L3 23L4 23L4 22ZM17 22L17 23L18 23L18 22ZM15 23L15 24L14 24L14 25L13 25L13 27L14 27L14 28L16 28L16 27L17 27L17 26L18 26L18 25L17 25L17 24L16 24L16 23ZM36 24L36 26L34 26L34 28L33 28L33 29L36 29L36 30L37 30L37 32L35 32L35 33L36 33L36 35L37 35L37 36L36 36L36 40L35 40L35 38L34 38L34 36L35 36L35 34L33 34L33 33L32 33L32 34L33 34L33 35L34 35L34 36L33 36L33 38L34 38L34 39L32 39L32 40L33 40L33 41L32 41L32 42L33 42L33 43L31 43L31 42L30 42L30 41L31 41L31 40L29 40L29 43L31 43L31 44L34 44L34 42L33 42L33 41L37 41L37 42L35 42L35 44L36 44L36 43L37 43L37 42L38 42L38 44L39 44L39 45L40 45L40 44L43 44L43 45L42 45L42 46L41 46L41 47L40 47L40 48L39 48L39 47L38 47L38 48L39 48L39 50L38 50L38 52L39 52L39 54L38 54L38 55L40 55L40 52L41 52L41 51L42 51L42 52L43 52L43 53L44 53L44 54L45 54L45 53L44 53L44 49L43 49L43 48L46 48L46 47L47 47L47 46L48 46L48 45L49 45L49 47L50 47L50 44L51 44L51 43L50 43L50 42L51 42L51 41L49 41L49 40L48 40L48 41L47 41L47 42L46 42L46 40L47 40L47 39L46 39L46 38L45 38L45 37L44 37L44 35L45 35L45 36L46 36L46 37L47 37L47 36L46 36L46 35L49 35L49 36L48 36L48 37L50 37L50 36L51 36L51 35L49 35L49 34L48 34L48 33L47 33L47 34L44 34L44 35L42 35L42 36L41 36L41 35L40 35L40 32L41 32L41 34L43 34L43 32L45 32L45 33L46 33L46 31L47 31L47 32L48 32L48 31L47 31L47 30L46 30L46 31L42 31L42 30L41 30L41 29L40 29L40 30L41 30L41 31L40 31L40 32L38 32L38 31L39 31L39 30L37 30L37 29L39 29L39 28L36 28L36 27L37 27L37 26L38 26L38 24ZM2 25L2 26L3 26L3 25ZM4 25L4 26L7 26L7 25ZM14 25L14 27L15 27L15 25ZM50 25L50 26L51 26L51 25ZM21 26L21 27L22 27L22 26ZM5 27L5 30L8 30L8 27ZM27 27L27 30L30 30L30 27ZM44 27L44 29L45 29L45 27ZM49 27L49 30L52 30L52 27ZM1 28L1 29L0 29L0 30L1 30L1 33L2 33L2 30L1 30L1 29L2 29L2 28ZM6 28L6 29L7 29L7 28ZM23 28L23 29L24 29L24 28ZM28 28L28 29L29 29L29 28ZM50 28L50 29L51 29L51 28ZM16 29L16 30L17 30L17 31L16 31L16 32L18 32L18 31L19 31L19 30L18 30L18 29ZM54 29L54 30L55 30L55 29ZM21 30L21 31L22 31L22 30ZM33 30L33 31L31 31L31 32L30 32L30 33L29 33L29 34L30 34L30 35L29 35L29 39L31 39L31 38L32 38L32 35L31 35L31 32L34 32L34 31L35 31L35 30ZM4 31L4 32L5 32L5 33L6 33L6 34L7 34L7 33L6 33L6 32L7 32L7 31L6 31L6 32L5 32L5 31ZM41 31L41 32L42 32L42 31ZM10 32L10 33L11 33L11 34L12 34L12 33L11 33L11 32ZM37 33L37 34L39 34L39 33ZM50 33L50 34L51 34L51 33ZM25 34L25 36L27 36L27 35L26 35L26 34ZM9 35L9 36L10 36L10 37L9 37L9 38L11 38L11 37L12 37L12 36L10 36L10 35ZM18 35L18 36L19 36L19 35ZM38 35L38 37L37 37L37 38L40 38L40 39L38 39L38 40L39 40L39 41L38 41L38 42L39 42L39 41L40 41L40 42L41 42L41 40L42 40L42 41L43 41L43 42L42 42L42 43L43 43L43 44L44 44L44 46L42 46L42 47L45 47L45 40L46 40L46 39L45 39L45 38L44 38L44 37L43 37L43 36L42 36L42 37L43 37L43 40L42 40L42 38L41 38L41 36L40 36L40 35ZM6 36L6 37L7 37L7 38L8 38L8 36ZM30 36L30 38L31 38L31 36ZM39 36L39 37L40 37L40 36ZM27 37L27 38L28 38L28 37ZM12 38L12 39L13 39L13 38ZM48 38L48 39L50 39L50 38ZM51 38L51 39L52 39L52 38ZM40 39L40 40L41 40L41 39ZM44 39L44 40L43 40L43 41L44 41L44 40L45 40L45 39ZM1 41L1 42L2 42L2 41ZM3 41L3 42L4 42L4 41ZM13 41L13 42L10 42L10 43L8 43L8 44L7 44L7 43L6 43L6 44L5 44L5 46L8 46L8 45L10 45L10 44L11 44L11 45L14 45L14 47L15 47L15 44L14 44L14 41ZM26 41L26 42L27 42L27 41ZM43 42L43 43L44 43L44 42ZM47 42L47 43L49 43L49 42ZM11 43L11 44L13 44L13 43ZM24 43L24 44L25 44L25 45L24 45L24 46L25 46L25 45L26 45L26 44L25 44L25 43ZM39 43L39 44L40 44L40 43ZM6 44L6 45L7 45L7 44ZM47 44L47 45L46 45L46 46L47 46L47 45L48 45L48 44ZM31 45L31 46L32 46L32 45ZM51 45L51 46L52 46L52 45ZM28 47L28 48L29 48L29 47ZM6 48L6 49L7 49L7 48ZM34 48L34 49L35 49L35 48ZM40 48L40 49L41 49L41 50L39 50L39 52L40 52L40 51L41 51L41 50L42 50L42 51L43 51L43 50L42 50L42 48ZM27 49L27 52L30 52L30 49ZM49 49L49 52L52 52L52 49ZM28 50L28 51L29 51L29 50ZM50 50L50 51L51 51L51 50ZM53 50L53 51L54 51L54 50ZM56 51L56 52L57 52L57 51ZM10 53L10 54L9 54L9 55L11 55L11 53ZM21 53L21 54L24 54L24 53ZM53 53L53 54L51 54L51 55L53 55L53 54L54 54L54 53ZM19 54L19 55L20 55L20 54ZM0 0L0 7L7 7L7 0ZM1 1L1 6L6 6L6 1ZM2 2L2 5L5 5L5 2ZM50 0L50 7L57 7L57 0ZM51 1L51 6L56 6L56 1ZM52 2L52 5L55 5L55 2ZM0 50L0 57L7 57L7 50ZM1 51L1 56L6 56L6 51ZM2 52L2 55L5 55L5 52Z" fill="#000000"/></g></g></svg>
