<?xml version="1.0" encoding="UTF-8"?>
<svg xmlns="http://www.w3.org/2000/svg" version="1.1" width="300" height="300" viewBox="0 0 300 300"><rect x="0" y="0" width="300" height="300" fill="#ffffff"/><g transform="scale(4.918)"><g transform="translate(2,2)"><path fill-rule="evenodd" d="M9 0L9 1L8 1L8 2L9 2L9 1L10 1L10 2L12 2L12 3L13 3L13 4L12 4L12 5L13 5L13 6L12 6L12 8L13 8L13 9L14 9L14 10L13 10L13 11L12 11L12 9L11 9L11 11L10 11L10 7L11 7L11 6L10 6L10 7L9 7L9 5L8 5L8 7L9 7L9 8L6 8L6 9L7 9L7 10L6 10L6 11L5 11L5 12L4 12L4 11L3 11L3 13L2 13L2 14L1 14L1 11L2 11L2 10L3 10L3 9L5 9L5 8L0 8L0 10L1 10L1 11L0 11L0 14L1 14L1 15L0 15L0 20L1 20L1 21L4 21L4 19L2 19L2 17L3 17L3 16L4 16L4 18L5 18L5 23L4 23L4 24L5 24L5 23L7 23L7 24L6 24L6 25L7 25L7 26L3 26L3 27L2 27L2 26L0 26L0 27L2 27L2 28L1 28L1 30L0 30L0 31L1 31L1 32L3 32L3 34L0 34L0 35L3 35L3 37L2 37L2 38L1 38L1 36L0 36L0 39L1 39L1 40L2 40L2 38L3 38L3 41L4 41L4 43L3 43L3 42L2 42L2 43L1 43L1 42L0 42L0 45L1 45L1 44L2 44L2 45L3 45L3 46L2 46L2 47L1 47L1 46L0 46L0 48L5 48L5 47L7 47L7 48L6 48L6 49L7 49L7 48L8 48L8 51L9 51L9 52L8 52L8 57L9 57L9 54L11 54L11 56L10 56L10 57L11 57L11 56L13 56L13 55L14 55L14 57L19 57L19 55L20 55L20 54L19 54L19 55L17 55L17 54L18 54L18 53L20 53L20 52L21 52L21 51L23 51L23 50L25 50L25 51L24 51L24 53L21 53L21 54L22 54L22 55L21 55L21 56L22 56L22 55L23 55L23 57L24 57L24 55L23 55L23 54L24 54L24 53L25 53L25 54L26 54L26 55L25 55L25 56L26 56L26 55L27 55L27 56L28 56L28 55L27 55L27 53L28 53L28 54L30 54L30 53L31 53L31 56L30 56L30 55L29 55L29 56L30 56L30 57L32 57L32 56L33 56L33 55L34 55L34 56L35 56L35 57L38 57L38 55L40 55L40 56L41 56L41 55L40 55L40 52L41 52L41 54L43 54L43 53L44 53L44 54L45 54L45 53L44 53L44 50L43 50L43 48L46 48L46 49L47 49L47 48L46 48L46 47L48 47L48 46L50 46L50 45L48 45L48 46L46 46L46 45L47 45L47 44L51 44L51 43L50 43L50 42L51 42L51 41L49 41L49 40L48 40L48 41L47 41L47 42L45 42L45 47L42 47L42 46L44 46L44 44L43 44L43 43L41 43L41 44L43 44L43 45L42 45L42 46L39 46L39 47L40 47L40 48L39 48L39 49L40 49L40 48L42 48L42 50L41 50L41 51L40 51L40 50L37 50L37 49L38 49L38 48L36 48L36 47L35 47L35 46L32 46L32 42L30 42L30 43L29 43L29 44L27 44L27 43L28 43L28 42L27 42L27 41L26 41L26 42L27 42L27 43L26 43L26 44L25 44L25 41L21 41L21 37L22 37L22 40L23 40L23 39L24 39L24 40L25 40L25 39L27 39L27 40L28 40L28 39L27 39L27 38L28 38L28 37L27 37L27 35L26 35L26 34L27 34L27 33L29 33L29 34L30 34L30 36L29 36L29 39L31 39L31 40L29 40L29 41L31 41L31 40L34 40L34 41L35 41L35 39L34 39L34 38L33 38L33 39L31 39L31 38L32 38L32 33L30 33L30 32L33 32L33 34L34 34L34 35L35 35L35 34L34 34L34 32L33 32L33 31L35 31L35 32L36 32L36 34L37 34L37 35L39 35L39 34L40 34L40 32L41 32L41 33L42 33L42 34L41 34L41 35L40 35L40 36L39 36L39 37L40 37L40 36L43 36L43 37L41 37L41 38L42 38L42 40L45 40L45 41L46 41L46 40L47 40L47 39L46 39L46 38L45 38L45 37L44 37L44 35L45 35L45 36L46 36L46 37L47 37L47 36L46 36L46 35L49 35L49 36L48 36L48 39L50 39L50 40L51 40L51 39L53 39L53 40L52 40L52 41L53 41L53 40L54 40L54 43L53 43L53 44L52 44L52 45L51 45L51 47L49 47L49 48L48 48L48 51L47 51L47 50L45 50L45 52L48 52L48 53L47 53L47 55L46 55L46 56L47 56L47 57L48 57L48 56L49 56L49 54L48 54L48 53L50 53L50 55L51 55L51 56L50 56L50 57L52 57L52 56L53 56L53 57L56 57L56 56L55 56L55 55L51 55L51 54L53 54L53 53L54 53L54 52L55 52L55 50L57 50L57 49L53 49L53 48L57 48L57 47L56 47L56 46L57 46L57 45L56 45L56 46L55 46L55 45L54 45L54 44L55 44L55 43L56 43L56 44L57 44L57 43L56 43L56 41L55 41L55 39L57 39L57 37L55 37L55 38L54 38L54 36L55 36L55 35L56 35L56 34L57 34L57 32L56 32L56 30L57 30L57 29L56 29L56 30L55 30L55 29L54 29L54 28L55 28L55 27L56 27L56 28L57 28L57 27L56 27L56 26L57 26L57 25L56 25L56 22L57 22L57 21L54 21L54 23L52 23L52 22L53 22L53 21L51 21L51 22L50 22L50 19L51 19L51 20L56 20L56 18L57 18L57 17L56 17L56 16L57 16L57 15L56 15L56 14L57 14L57 13L56 13L56 14L55 14L55 13L53 13L53 16L55 16L55 17L56 17L56 18L55 18L55 19L51 19L51 18L54 18L54 17L51 17L51 14L52 14L52 13L51 13L51 14L50 14L50 17L49 17L49 16L48 16L48 17L47 17L47 18L46 18L46 17L45 17L45 18L44 18L44 19L42 19L42 18L43 18L43 16L46 16L46 15L49 15L49 13L50 13L50 11L51 11L51 10L50 10L50 8L49 8L49 6L48 6L48 7L47 7L47 5L48 5L48 0L44 0L44 1L43 1L43 0L42 0L42 1L41 1L41 0L40 0L40 1L33 1L33 2L30 2L30 1L32 1L32 0L30 0L30 1L28 1L28 0L27 0L27 2L28 2L28 3L27 3L27 4L26 4L26 3L23 3L23 4L22 4L22 2L26 2L26 0L24 0L24 1L23 1L23 0L21 0L21 2L19 2L19 1L18 1L18 2L17 2L17 1L16 1L16 0L14 0L14 1L15 1L15 2L14 2L14 3L13 3L13 0ZM40 1L40 2L41 2L41 1ZM42 1L42 2L43 2L43 1ZM44 1L44 2L47 2L47 1ZM35 2L35 4L34 4L34 3L32 3L32 4L31 4L31 10L30 10L30 9L28 9L28 11L29 11L29 12L28 12L28 13L26 13L26 14L28 14L28 13L31 13L31 14L30 14L30 15L28 15L28 16L27 16L27 15L25 15L25 16L27 16L27 17L28 17L28 16L29 16L29 17L31 17L31 18L29 18L29 20L28 20L28 18L25 18L25 21L24 21L24 20L23 20L23 19L24 19L24 18L23 18L23 17L24 17L24 16L23 16L23 14L24 14L24 13L25 13L25 12L27 12L27 11L26 11L26 10L27 10L27 9L25 9L25 8L26 8L26 4L25 4L25 8L24 8L24 6L23 6L23 5L24 5L24 4L23 4L23 5L22 5L22 4L21 4L21 3L19 3L19 4L18 4L18 3L14 3L14 4L16 4L16 5L15 5L15 7L14 7L14 6L13 6L13 7L14 7L14 9L15 9L15 10L17 10L17 11L18 11L18 10L19 10L19 12L21 12L21 13L19 13L19 15L18 15L18 14L17 14L17 13L18 13L18 12L17 12L17 13L16 13L16 15L15 15L15 16L14 16L14 17L16 17L16 18L17 18L17 19L16 19L16 21L15 21L15 18L13 18L13 17L11 17L11 16L13 16L13 14L15 14L15 13L11 13L11 12L12 12L12 11L11 11L11 12L10 12L10 11L9 11L9 12L8 12L8 14L7 14L7 13L4 13L4 14L2 14L2 15L1 15L1 16L3 16L3 15L4 15L4 16L7 16L7 17L6 17L6 18L7 18L7 19L6 19L6 20L8 20L8 18L10 18L10 19L9 19L9 22L8 22L8 21L6 21L6 22L7 22L7 23L8 23L8 24L7 24L7 25L8 25L8 26L9 26L9 25L11 25L11 26L10 26L10 28L11 28L11 29L9 29L9 30L11 30L11 32L10 32L10 34L9 34L9 35L10 35L10 34L11 34L11 33L13 33L13 35L11 35L11 36L12 36L12 37L10 37L10 36L7 36L7 35L4 35L4 34L8 34L8 33L9 33L9 32L7 32L7 31L4 31L4 32L7 32L7 33L4 33L4 34L3 34L3 35L4 35L4 37L5 37L5 38L4 38L4 40L7 40L7 41L6 41L6 42L7 42L7 43L6 43L6 44L8 44L8 41L9 41L9 43L10 43L10 44L9 44L9 47L10 47L10 49L9 49L9 50L10 50L10 51L11 51L11 50L10 50L10 49L11 49L11 47L10 47L10 46L11 46L11 45L14 45L14 46L13 46L13 47L12 47L12 52L11 52L11 53L12 53L12 52L14 52L14 51L13 51L13 48L14 48L14 49L15 49L15 51L16 51L16 53L15 53L15 54L16 54L16 53L18 53L18 52L17 52L17 51L16 51L16 50L17 50L17 49L15 49L15 47L16 47L16 48L17 48L17 47L18 47L18 46L17 46L17 45L18 45L18 44L17 44L17 45L16 45L16 46L15 46L15 45L14 45L14 44L11 44L11 43L10 43L10 41L9 41L9 39L8 39L8 40L7 40L7 39L6 39L6 38L8 38L8 37L10 37L10 38L12 38L12 40L11 40L11 41L13 41L13 40L14 40L14 39L16 39L16 41L14 41L14 42L13 42L13 43L15 43L15 42L16 42L16 43L18 43L18 41L17 41L17 39L18 39L18 38L19 38L19 39L20 39L20 38L19 38L19 37L21 37L21 36L19 36L19 37L17 37L17 36L18 36L18 35L20 35L20 34L21 34L21 35L23 35L23 32L26 32L26 33L25 33L25 34L24 34L24 36L25 36L25 34L26 34L26 33L27 33L27 32L29 32L29 31L24 31L24 29L25 29L25 30L26 30L26 27L25 27L25 28L24 28L24 27L23 27L23 26L24 26L24 25L25 25L25 26L26 26L26 25L27 25L27 24L28 24L28 25L29 25L29 24L30 24L30 25L31 25L31 27L33 27L33 28L32 28L32 30L31 30L31 31L32 31L32 30L35 30L35 31L36 31L36 32L37 32L37 34L39 34L39 32L40 32L40 31L41 31L41 30L42 30L42 31L43 31L43 30L44 30L44 31L46 31L46 33L45 33L45 32L43 32L43 33L44 33L44 34L42 34L42 35L44 35L44 34L47 34L47 33L48 33L48 34L49 34L49 35L51 35L51 38L50 38L50 37L49 37L49 38L50 38L50 39L51 39L51 38L53 38L53 36L52 36L52 34L54 34L54 33L55 33L55 34L56 34L56 32L54 32L54 31L55 31L55 30L53 30L53 31L51 31L51 32L50 32L50 31L48 31L48 28L47 28L47 27L48 27L48 26L47 26L47 25L50 25L50 26L52 26L52 25L53 25L53 27L55 27L55 26L54 26L54 24L52 24L52 23L50 23L50 22L49 22L49 23L48 23L48 24L46 24L46 25L45 25L45 23L44 23L44 21L45 21L45 22L46 22L46 23L47 23L47 21L48 21L48 20L49 20L49 19L50 19L50 18L51 18L51 17L50 17L50 18L49 18L49 19L48 19L48 20L43 20L43 23L42 23L42 22L40 22L40 23L38 23L38 24L37 24L37 25L36 25L36 28L35 28L35 29L33 29L33 28L34 28L34 27L33 27L33 26L32 26L32 25L34 25L34 26L35 26L35 24L34 24L34 23L36 23L36 22L37 22L37 21L36 21L36 20L38 20L38 18L39 18L39 17L41 17L41 18L40 18L40 19L39 19L39 20L40 20L40 21L42 21L42 19L41 19L41 18L42 18L42 16L43 16L43 14L44 14L44 15L45 15L45 12L46 12L46 14L47 14L47 13L49 13L49 12L48 12L48 11L50 11L50 10L48 10L48 9L49 9L49 8L48 8L48 9L46 9L46 8L42 8L42 6L43 6L43 7L44 7L44 6L45 6L45 7L46 7L46 5L47 5L47 3L43 3L43 5L42 5L42 6L41 6L41 8L39 8L39 9L38 9L38 10L36 10L36 9L33 9L33 8L32 8L32 6L33 6L33 7L34 7L34 6L33 6L33 4L34 4L34 5L36 5L36 6L35 6L35 8L36 8L36 6L37 6L37 7L38 7L38 6L39 6L39 7L40 7L40 6L39 6L39 4L38 4L38 5L36 5L36 3L39 3L39 2ZM8 3L8 4L10 4L10 5L11 5L11 3ZM28 3L28 4L30 4L30 3ZM40 3L40 5L41 5L41 3ZM17 4L17 6L16 6L16 7L15 7L15 9L17 9L17 8L18 8L18 9L19 9L19 10L20 10L20 11L21 11L21 12L22 12L22 13L21 13L21 16L20 16L20 17L21 17L21 18L20 18L20 19L22 19L22 17L21 17L21 16L22 16L22 13L24 13L24 12L25 12L25 9L23 9L23 10L22 10L22 9L21 9L21 10L20 10L20 9L19 9L19 8L21 8L21 4L19 4L19 5L18 5L18 4ZM44 4L44 5L46 5L46 4ZM19 5L19 7L20 7L20 5ZM27 5L27 8L30 8L30 5ZM17 6L17 7L16 7L16 8L17 8L17 7L18 7L18 6ZM22 6L22 7L23 7L23 6ZM28 6L28 7L29 7L29 6ZM41 8L41 9L39 9L39 11L36 11L36 12L34 12L34 10L33 10L33 11L30 11L30 12L33 12L33 13L35 13L35 14L33 14L33 15L30 15L30 16L33 16L33 18L34 18L34 19L32 19L32 18L31 18L31 20L29 20L29 21L28 21L28 20L26 20L26 21L25 21L25 22L26 22L26 23L25 23L25 24L27 24L27 23L28 23L28 24L29 24L29 23L30 23L30 22L31 22L31 25L32 25L32 24L33 24L33 21L32 21L32 20L34 20L34 21L35 21L35 18L34 18L34 17L35 17L35 16L36 16L36 18L38 18L38 17L37 17L37 16L38 16L38 15L39 15L39 16L41 16L41 15L42 15L42 14L43 14L43 13L44 13L44 12L45 12L45 11L44 11L44 10L43 10L43 9L42 9L42 8ZM51 8L51 9L52 9L52 8ZM53 8L53 9L54 9L54 8ZM55 8L55 11L54 11L54 10L53 10L53 11L52 11L52 12L53 12L53 11L54 11L54 12L55 12L55 11L56 11L56 8ZM8 9L8 10L9 10L9 9ZM21 10L21 11L22 11L22 10ZM23 10L23 12L24 12L24 10ZM40 10L40 12L38 12L38 13L37 13L37 14L39 14L39 13L40 13L40 14L42 14L42 11L43 11L43 12L44 12L44 11L43 11L43 10L42 10L42 11L41 11L41 10ZM6 11L6 12L7 12L7 11ZM13 11L13 12L14 12L14 11ZM6 14L6 15L7 15L7 16L8 16L8 17L7 17L7 18L8 18L8 17L10 17L10 18L11 18L11 17L10 17L10 14L8 14L8 15L7 15L7 14ZM8 15L8 16L9 16L9 15ZM16 15L16 17L19 17L19 16L17 16L17 15ZM34 15L34 16L35 16L35 15ZM36 15L36 16L37 16L37 15ZM45 18L45 19L46 19L46 18ZM1 19L1 20L2 20L2 19ZM10 19L10 20L11 20L11 21L10 21L10 23L9 23L9 24L8 24L8 25L9 25L9 24L10 24L10 23L11 23L11 24L13 24L13 25L14 25L14 28L13 28L13 27L12 27L12 26L11 26L11 27L12 27L12 28L13 28L13 30L14 30L14 31L12 31L12 32L14 32L14 33L15 33L15 34L14 34L14 35L15 35L15 36L17 36L17 35L16 35L16 33L19 33L19 32L20 32L20 33L21 33L21 34L22 34L22 33L21 33L21 32L20 32L20 31L22 31L22 30L20 30L20 31L18 31L18 32L16 32L16 31L17 31L17 30L16 30L16 29L18 29L18 30L19 30L19 29L22 29L22 28L19 28L19 29L18 29L18 28L16 28L16 27L15 27L15 25L16 25L16 24L17 24L17 25L18 25L18 26L17 26L17 27L18 27L18 26L19 26L19 27L22 27L22 25L21 25L21 24L23 24L23 25L24 25L24 23L21 23L21 24L18 24L18 23L17 23L17 22L18 22L18 21L20 21L20 20L19 20L19 19L18 19L18 21L16 21L16 22L14 22L14 21L12 21L12 19ZM13 19L13 20L14 20L14 19ZM40 19L40 20L41 20L41 19ZM11 21L11 22L12 22L12 21ZM21 21L21 22L24 22L24 21ZM27 21L27 22L28 22L28 23L29 23L29 22L30 22L30 21L29 21L29 22L28 22L28 21ZM38 21L38 22L39 22L39 21ZM0 22L0 24L1 24L1 25L2 25L2 24L3 24L3 22ZM13 22L13 23L14 23L14 25L15 25L15 24L16 24L16 23L14 23L14 22ZM19 22L19 23L20 23L20 22ZM40 23L40 24L41 24L41 26L38 26L38 25L39 25L39 24L38 24L38 25L37 25L37 28L36 28L36 30L37 30L37 32L38 32L38 31L40 31L40 29L39 29L39 28L38 28L38 27L40 27L40 28L41 28L41 26L42 26L42 28L43 28L43 29L42 29L42 30L43 30L43 29L44 29L44 28L45 28L45 30L46 30L46 31L47 31L47 32L48 32L48 31L47 31L47 30L46 30L46 29L47 29L47 28L46 28L46 27L47 27L47 26L45 26L45 25L44 25L44 23L43 23L43 24L41 24L41 23ZM50 24L50 25L52 25L52 24ZM19 25L19 26L21 26L21 25ZM43 25L43 28L44 28L44 27L45 27L45 26L44 26L44 25ZM3 27L3 28L2 28L2 29L4 29L4 27ZM5 27L5 30L8 30L8 27ZM27 27L27 30L30 30L30 27ZM49 27L49 30L52 30L52 27ZM6 28L6 29L7 29L7 28ZM14 28L14 30L15 30L15 28ZM23 28L23 29L24 29L24 28ZM28 28L28 29L29 29L29 28ZM37 28L37 30L39 30L39 29L38 29L38 28ZM50 28L50 29L51 29L51 28ZM11 29L11 30L12 30L12 29ZM1 30L1 31L3 31L3 30ZM14 31L14 32L15 32L15 31ZM51 32L51 33L50 33L50 34L51 34L51 33L54 33L54 32ZM6 36L6 37L7 37L7 36ZM22 36L22 37L23 37L23 38L24 38L24 37L23 37L23 36ZM30 36L30 38L31 38L31 36ZM33 36L33 37L34 37L34 36ZM36 36L36 37L35 37L35 38L36 38L36 39L37 39L37 38L38 38L38 40L36 40L36 42L33 42L33 44L34 44L34 43L35 43L35 44L36 44L36 46L38 46L38 44L36 44L36 42L37 42L37 43L38 43L38 40L39 40L39 41L40 41L40 40L41 40L41 39L40 39L40 38L38 38L38 37L37 37L37 36ZM13 37L13 38L16 38L16 37ZM25 37L25 38L26 38L26 37ZM43 37L43 39L45 39L45 40L46 40L46 39L45 39L45 38L44 38L44 37ZM39 39L39 40L40 40L40 39ZM20 41L20 42L19 42L19 44L21 44L21 45L19 45L19 46L20 46L20 47L19 47L19 49L18 49L18 50L19 50L19 49L20 49L20 50L21 50L21 49L22 49L22 50L23 50L23 49L24 49L24 48L21 48L21 45L22 45L22 47L24 47L24 45L25 45L25 48L26 48L26 46L27 46L27 48L30 48L30 47L29 47L29 45L30 45L30 46L31 46L31 47L32 47L32 46L31 46L31 45L30 45L30 44L31 44L31 43L30 43L30 44L29 44L29 45L27 45L27 44L26 44L26 45L25 45L25 44L24 44L24 42L23 42L23 44L24 44L24 45L22 45L22 44L21 44L21 43L22 43L22 42L21 42L21 41ZM41 41L41 42L43 42L43 41ZM20 42L20 43L21 43L21 42ZM39 42L39 43L40 43L40 42ZM47 42L47 43L49 43L49 42ZM4 43L4 44L3 44L3 45L4 45L4 44L5 44L5 43ZM5 45L5 46L3 46L3 47L5 47L5 46L7 46L7 47L8 47L8 45ZM52 45L52 46L54 46L54 45ZM16 46L16 47L17 47L17 46ZM33 47L33 48L31 48L31 52L32 52L32 54L35 54L35 55L36 55L36 54L37 54L37 55L38 55L38 54L39 54L39 53L38 53L38 52L40 52L40 51L37 51L37 53L35 53L35 52L36 52L36 48L35 48L35 47ZM51 47L51 48L53 48L53 47ZM34 48L34 49L33 49L33 50L34 50L34 51L32 51L32 52L34 52L34 51L35 51L35 50L34 50L34 49L35 49L35 48ZM27 49L27 52L30 52L30 49ZM49 49L49 52L52 52L52 49ZM28 50L28 51L29 51L29 50ZM42 50L42 51L41 51L41 52L42 52L42 51L43 51L43 50ZM50 50L50 51L51 51L51 50ZM53 50L53 51L54 51L54 50ZM25 51L25 53L26 53L26 51ZM56 51L56 52L57 52L57 51ZM37 53L37 54L38 54L38 53ZM12 54L12 55L13 55L13 54ZM15 55L15 56L16 56L16 55ZM43 55L43 56L42 56L42 57L44 57L44 55ZM47 55L47 56L48 56L48 55ZM0 0L0 7L7 7L7 0ZM1 1L1 6L6 6L6 1ZM2 2L2 5L5 5L5 2ZM50 0L50 7L57 7L57 0ZM51 1L51 6L56 6L56 1ZM52 2L52 5L55 5L55 2ZM0 50L0 57L7 57L7 50ZM1 51L1 56L6 56L6 51ZM2 52L2 55L5 55L5 52Z" fill="#000000"/></g></g></svg>
