<?xml version="1.0" encoding="UTF-8"?>
<svg xmlns="http://www.w3.org/2000/svg" version="1.1" width="300" height="300" viewBox="0 0 300 300"><rect x="0" y="0" width="300" height="300" fill="#ffffff"/><g transform="scale(4.918)"><g transform="translate(2,2)"><path fill-rule="evenodd" d="M9 0L9 1L8 1L8 2L9 2L9 1L10 1L10 2L11 2L11 3L8 3L8 4L9 4L9 5L8 5L8 7L9 7L9 5L10 5L10 8L6 8L6 9L9 9L9 10L6 10L6 11L9 11L9 13L8 13L8 14L9 14L9 13L10 13L10 16L12 16L12 17L9 17L9 16L6 16L6 15L7 15L7 14L5 14L5 16L6 16L6 17L4 17L4 19L2 19L2 17L3 17L3 16L4 16L4 12L3 12L3 11L5 11L5 8L0 8L0 10L1 10L1 9L3 9L3 10L2 10L2 12L1 12L1 11L0 11L0 12L1 12L1 14L0 14L0 15L2 15L2 17L0 17L0 21L1 21L1 22L2 22L2 21L3 21L3 20L4 20L4 21L5 21L5 22L3 22L3 23L2 23L2 24L0 24L0 25L1 25L1 26L0 26L0 28L1 28L1 26L2 26L2 28L3 28L3 29L1 29L1 30L2 30L2 31L1 31L1 32L0 32L0 34L3 34L3 35L4 35L4 36L2 36L2 38L1 38L1 41L0 41L0 44L2 44L2 45L1 45L1 46L0 46L0 48L5 48L5 47L7 47L7 46L8 46L8 51L9 51L9 52L8 52L8 57L9 57L9 56L10 56L10 57L12 57L12 56L13 56L13 57L14 57L14 56L15 56L15 55L16 55L16 56L17 56L17 57L21 57L21 56L19 56L19 55L20 55L20 54L17 54L17 53L16 53L16 52L17 52L17 51L18 51L18 53L20 53L20 52L21 52L21 53L22 53L22 54L21 54L21 55L22 55L22 56L23 56L23 57L24 57L24 55L22 55L22 54L24 54L24 53L26 53L26 54L25 54L25 55L26 55L26 54L27 54L27 53L28 53L28 54L30 54L30 53L31 53L31 56L30 56L30 55L29 55L29 56L30 56L30 57L31 57L31 56L33 56L33 54L34 54L34 56L35 56L35 55L37 55L37 56L36 56L36 57L37 57L37 56L40 56L40 52L42 52L42 53L41 53L41 54L43 54L43 53L44 53L44 54L45 54L45 53L47 53L47 52L48 52L48 54L46 54L46 57L47 57L47 55L49 55L49 56L48 56L48 57L49 57L49 56L50 56L50 55L51 55L51 57L52 57L52 56L53 56L53 57L54 57L54 56L55 56L55 57L56 57L56 56L55 56L55 53L56 53L56 52L57 52L57 51L56 51L56 52L55 52L55 50L57 50L57 48L56 48L56 46L57 46L57 45L56 45L56 44L57 44L57 43L56 43L56 42L55 42L55 39L57 39L57 36L56 36L56 34L57 34L57 33L56 33L56 32L57 32L57 31L56 31L56 30L57 30L57 29L56 29L56 28L57 28L57 27L53 27L53 25L54 25L54 26L55 26L55 25L54 25L54 24L57 24L57 23L56 23L56 22L57 22L57 21L56 21L56 20L57 20L57 19L56 19L56 20L55 20L55 18L57 18L57 15L56 15L56 14L57 14L57 11L56 11L56 10L55 10L55 11L54 11L54 10L52 10L52 8L51 8L51 10L49 10L49 9L50 9L50 8L49 8L49 6L48 6L48 8L47 8L47 5L48 5L48 0L44 0L44 1L47 1L47 2L41 2L41 1L43 1L43 0L41 0L41 1L38 1L38 0L37 0L37 1L36 1L36 2L37 2L37 3L36 3L36 5L34 5L34 7L35 7L35 6L36 6L36 8L35 8L35 9L36 9L36 10L35 10L35 12L34 12L34 10L32 10L32 9L31 9L31 4L32 4L32 3L35 3L35 1L34 1L34 0L33 0L33 1L34 1L34 2L28 2L28 1L32 1L32 0L27 0L27 1L26 1L26 0L23 0L23 2L22 2L22 0L21 0L21 1L20 1L20 0L19 0L19 1L16 1L16 0L13 0L13 1L15 1L15 2L13 2L13 3L12 3L12 0L11 0L11 1L10 1L10 0ZM19 1L19 4L18 4L18 2L16 2L16 3L14 3L14 4L12 4L12 5L14 5L14 6L13 6L13 7L12 7L12 6L11 6L11 7L12 7L12 9L11 9L11 8L10 8L10 9L11 9L11 10L12 10L12 9L13 9L13 10L14 10L14 9L15 9L15 11L16 11L16 12L15 12L15 13L13 13L13 12L14 12L14 11L12 11L12 13L11 13L11 12L10 12L10 13L11 13L11 14L12 14L12 13L13 13L13 15L12 15L12 16L13 16L13 17L12 17L12 18L13 18L13 19L11 19L11 20L10 20L10 21L9 21L9 19L8 19L8 18L9 18L9 17L6 17L6 18L7 18L7 19L6 19L6 20L5 20L5 19L4 19L4 20L5 20L5 21L6 21L6 22L7 22L7 23L4 23L4 24L3 24L3 25L4 25L4 26L7 26L7 25L6 25L6 24L8 24L8 26L9 26L9 24L8 24L8 23L10 23L10 21L12 21L12 20L13 20L13 21L14 21L14 22L11 22L11 24L12 24L12 23L15 23L15 24L13 24L13 25L10 25L10 26L11 26L11 27L12 27L12 28L9 28L9 30L10 30L10 29L11 29L11 32L10 32L10 34L13 34L13 35L12 35L12 37L13 37L13 38L14 38L14 42L13 42L13 43L12 43L12 40L13 40L13 39L12 39L12 38L10 38L10 41L9 41L9 40L8 40L8 41L3 41L3 42L4 42L4 43L3 43L3 45L2 45L2 46L1 46L1 47L2 47L2 46L3 46L3 47L5 47L5 46L3 46L3 45L5 45L5 44L7 44L7 45L6 45L6 46L7 46L7 45L8 45L8 46L9 46L9 49L11 49L11 50L14 50L14 52L15 52L15 49L14 49L14 48L15 48L15 47L14 47L14 48L12 48L12 47L13 47L13 45L12 45L12 44L14 44L14 42L16 42L16 43L18 43L18 42L19 42L19 43L20 43L20 44L21 44L21 45L19 45L19 47L18 47L18 46L17 46L17 45L18 45L18 44L17 44L17 45L16 45L16 46L17 46L17 47L16 47L16 48L17 48L17 47L18 47L18 48L19 48L19 49L16 49L16 51L17 51L17 50L21 50L21 49L22 49L22 50L23 50L23 51L21 51L21 52L22 52L22 53L24 53L24 51L25 51L25 52L26 52L26 51L25 51L25 50L26 50L26 49L25 49L25 50L23 50L23 48L22 48L22 47L24 47L24 46L23 46L23 45L25 45L25 48L29 48L29 47L30 47L30 48L31 48L31 49L32 49L32 51L31 51L31 52L32 52L32 54L33 54L33 52L32 52L32 51L33 51L33 50L35 50L35 51L34 51L34 52L35 52L35 53L34 53L34 54L37 54L37 55L39 55L39 52L40 52L40 51L38 51L38 52L37 52L37 51L36 51L36 50L42 50L42 51L43 51L43 50L44 50L44 53L45 53L45 50L47 50L47 51L46 51L46 52L47 52L47 51L48 51L48 48L49 48L49 47L51 47L51 46L50 46L50 45L52 45L52 47L53 47L53 48L54 48L54 49L56 49L56 48L54 48L54 47L55 47L55 46L56 46L56 45L55 45L55 44L54 44L54 45L55 45L55 46L54 46L54 47L53 47L53 45L52 45L52 44L53 44L53 43L54 43L54 41L51 41L51 40L49 40L49 39L52 39L52 40L53 40L53 39L55 39L55 38L53 38L53 37L52 37L52 34L53 34L53 35L54 35L54 34L53 34L53 33L51 33L51 34L50 34L50 31L48 31L48 29L46 29L46 30L42 30L42 29L43 29L43 28L42 28L42 27L44 27L44 29L45 29L45 26L46 26L46 28L47 28L47 27L48 27L48 26L47 26L47 25L49 25L49 24L47 24L47 21L46 21L46 20L47 20L47 19L46 19L46 20L43 20L43 24L44 24L44 26L42 26L42 27L41 27L41 28L40 28L40 29L39 29L39 27L38 27L38 29L36 29L36 28L37 28L37 26L39 26L39 25L38 25L38 24L40 24L40 25L41 25L41 24L40 24L40 23L42 23L42 22L41 22L41 20L40 20L40 19L43 19L43 18L40 18L40 17L43 17L43 16L44 16L44 19L45 19L45 18L47 18L47 16L49 16L49 17L50 17L50 18L49 18L49 19L50 19L50 22L49 22L49 23L50 23L50 24L52 24L52 25L53 25L53 24L54 24L54 23L55 23L55 22L54 22L54 23L53 23L53 20L52 20L52 21L51 21L51 19L50 19L50 18L52 18L52 19L53 19L53 18L54 18L54 17L55 17L55 16L56 16L56 15L55 15L55 14L56 14L56 12L54 12L54 11L53 11L53 12L52 12L52 11L49 11L49 12L47 12L47 11L45 11L45 12L44 12L44 10L43 10L43 12L44 12L44 13L45 13L45 12L46 12L46 14L47 14L47 13L49 13L49 14L51 14L51 15L52 15L52 16L51 16L51 17L50 17L50 16L49 16L49 15L47 15L47 16L46 16L46 17L45 17L45 16L44 16L44 15L45 15L45 14L44 14L44 15L43 15L43 14L42 14L42 11L41 11L41 10L40 10L40 9L42 9L42 6L43 6L43 7L44 7L44 6L45 6L45 7L46 7L46 6L45 6L45 5L44 5L44 4L46 4L46 5L47 5L47 3L42 3L42 4L43 4L43 5L40 5L40 4L41 4L41 3L40 3L40 4L38 4L38 3L39 3L39 2L38 2L38 1L37 1L37 2L38 2L38 3L37 3L37 4L38 4L38 5L39 5L39 7L38 7L38 6L37 6L37 5L36 5L36 6L37 6L37 7L38 7L38 8L37 8L37 9L38 9L38 10L40 10L40 11L41 11L41 12L38 12L38 13L36 13L36 12L37 12L37 11L36 11L36 12L35 12L35 13L33 13L33 11L32 11L32 13L33 13L33 14L35 14L35 15L33 15L33 16L32 16L32 14L31 14L31 11L30 11L30 10L29 10L29 9L25 9L25 12L24 12L24 11L23 11L23 12L24 12L24 13L22 13L22 12L21 12L21 11L22 11L22 9L24 9L24 6L23 6L23 7L22 7L22 6L21 6L21 7L22 7L22 8L21 8L21 9L20 9L20 8L19 8L19 9L20 9L20 11L19 11L19 13L20 13L20 15L19 15L19 14L17 14L17 13L18 13L18 12L17 12L17 11L18 11L18 9L17 9L17 7L18 7L18 6L19 6L19 7L20 7L20 5L19 5L19 4L23 4L23 5L24 5L24 4L23 4L23 3L24 3L24 2L23 2L23 3L22 3L22 2L20 2L20 1ZM25 2L25 3L26 3L26 4L25 4L25 8L26 8L26 4L27 4L27 3L28 3L28 4L31 4L31 3L28 3L28 2ZM10 4L10 5L11 5L11 4ZM14 4L14 5L16 5L16 4ZM17 4L17 5L18 5L18 4ZM27 5L27 8L30 8L30 5ZM14 6L14 8L13 8L13 9L14 9L14 8L16 8L16 7L17 7L17 6L16 6L16 7L15 7L15 6ZM28 6L28 7L29 7L29 6ZM32 6L32 7L33 7L33 6ZM40 6L40 7L39 7L39 8L41 8L41 6ZM43 8L43 9L45 9L45 10L48 10L48 9L49 9L49 8L48 8L48 9L47 9L47 8L46 8L46 9L45 9L45 8ZM53 8L53 9L54 9L54 8ZM55 8L55 9L56 9L56 8ZM16 10L16 11L17 11L17 10ZM26 10L26 11L27 11L27 12L25 12L25 13L24 13L24 14L26 14L26 15L23 15L23 16L24 16L24 17L22 17L22 15L21 15L21 16L20 16L20 17L21 17L21 19L19 19L19 18L16 18L16 17L19 17L19 15L18 15L18 16L16 16L16 15L17 15L17 14L14 14L14 15L13 15L13 16L15 16L15 17L13 17L13 18L15 18L15 21L16 21L16 22L15 22L15 23L16 23L16 24L17 24L17 25L19 25L19 27L20 27L20 28L19 28L19 29L18 29L18 28L17 28L17 27L18 27L18 26L17 26L17 27L15 27L15 29L14 29L14 28L12 28L12 30L13 30L13 31L12 31L12 32L11 32L11 33L13 33L13 34L14 34L14 33L15 33L15 36L16 36L16 35L17 35L17 34L18 34L18 33L19 33L19 32L20 32L20 33L21 33L21 34L20 34L20 35L22 35L22 36L21 36L21 37L19 37L19 35L18 35L18 36L17 36L17 37L19 37L19 38L17 38L17 39L19 39L19 40L16 40L16 39L15 39L15 41L17 41L17 42L18 42L18 41L19 41L19 42L20 42L20 41L19 41L19 40L23 40L23 41L21 41L21 42L22 42L22 43L21 43L21 44L22 44L22 45L21 45L21 46L20 46L20 47L22 47L22 45L23 45L23 42L25 42L25 39L26 39L26 40L28 40L28 41L26 41L26 42L28 42L28 43L26 43L26 44L25 44L25 43L24 43L24 44L25 44L25 45L26 45L26 44L28 44L28 45L27 45L27 46L26 46L26 47L29 47L29 46L30 46L30 47L31 47L31 48L33 48L33 49L35 49L35 50L36 50L36 49L37 49L37 48L38 48L38 49L39 49L39 48L41 48L41 49L42 49L42 50L43 50L43 48L45 48L45 49L47 49L47 48L46 48L46 47L47 47L47 46L46 46L46 45L47 45L47 44L48 44L48 43L49 43L49 45L48 45L48 46L49 46L49 45L50 45L50 44L52 44L52 43L53 43L53 42L51 42L51 41L49 41L49 42L45 42L45 41L47 41L47 40L45 40L45 39L46 39L46 38L45 38L45 37L44 37L44 35L42 35L42 34L43 34L43 33L44 33L44 32L45 32L45 34L46 34L46 35L45 35L45 36L48 36L48 35L49 35L49 34L48 34L48 33L47 33L47 32L48 32L48 31L47 31L47 30L46 30L46 31L47 31L47 32L45 32L45 31L44 31L44 32L43 32L43 31L42 31L42 30L36 30L36 31L35 31L35 30L33 30L33 29L35 29L35 28L36 28L36 27L34 27L34 28L33 28L33 27L32 27L32 28L33 28L33 29L31 29L31 25L32 25L32 26L33 26L33 25L32 25L32 24L35 24L35 26L37 26L37 22L38 22L38 23L40 23L40 22L38 22L38 21L40 21L40 20L38 20L38 19L40 19L40 18L37 18L37 16L35 16L35 17L36 17L36 18L37 18L37 20L36 20L36 21L37 21L37 22L36 22L36 24L35 24L35 23L33 23L33 21L32 21L32 20L33 20L33 19L35 19L35 18L33 18L33 19L30 19L30 20L31 20L31 21L30 21L30 22L29 22L29 23L28 23L28 21L27 21L27 20L26 20L26 19L27 19L27 18L28 18L28 19L29 19L29 18L32 18L32 16L31 16L31 14L30 14L30 13L28 13L28 12L30 12L30 11L28 11L28 10ZM2 12L2 13L3 13L3 12ZM6 12L6 13L7 13L7 12ZM16 12L16 13L17 13L17 12ZM20 12L20 13L21 13L21 14L22 14L22 13L21 13L21 12ZM50 12L50 13L51 13L51 14L52 14L52 13L51 13L51 12ZM26 13L26 14L28 14L28 13ZM35 13L35 14L36 14L36 15L40 15L40 16L38 16L38 17L40 17L40 16L41 16L41 15L42 15L42 16L43 16L43 15L42 15L42 14L41 14L41 13L40 13L40 14L36 14L36 13ZM54 13L54 14L53 14L53 15L54 15L54 16L53 16L53 17L54 17L54 16L55 16L55 15L54 15L54 14L55 14L55 13ZM2 14L2 15L3 15L3 14ZM29 14L29 15L28 15L28 16L27 16L27 15L26 15L26 16L25 16L25 19L26 19L26 16L27 16L27 17L28 17L28 16L29 16L29 17L31 17L31 16L30 16L30 14ZM33 16L33 17L34 17L34 16ZM22 18L22 19L23 19L23 18ZM1 19L1 21L2 21L2 19ZM13 19L13 20L14 20L14 19ZM17 19L17 20L16 20L16 21L18 21L18 22L17 22L17 24L19 24L19 25L20 25L20 27L21 27L21 28L22 28L22 29L19 29L19 31L20 31L20 32L21 32L21 33L22 33L22 35L23 35L23 36L22 36L22 37L21 37L21 39L23 39L23 40L24 40L24 39L23 39L23 38L24 38L24 37L23 37L23 36L24 36L24 35L25 35L25 34L26 34L26 35L27 35L27 37L25 37L25 38L26 38L26 39L28 39L28 40L29 40L29 41L28 41L28 42L29 42L29 43L28 43L28 44L29 44L29 43L30 43L30 44L32 44L32 45L33 45L33 46L32 46L32 47L33 47L33 46L35 46L35 47L34 47L34 48L37 48L37 47L38 47L38 48L39 48L39 46L40 46L40 47L41 47L41 48L43 48L43 46L44 46L44 47L45 47L45 44L41 44L41 43L45 43L45 42L41 42L41 43L40 43L40 41L41 41L41 40L39 40L39 39L43 39L43 40L44 40L44 41L45 41L45 40L44 40L44 39L45 39L45 38L44 38L44 37L43 37L43 38L41 38L41 36L40 36L40 35L41 35L41 34L42 34L42 33L43 33L43 32L42 32L42 31L41 31L41 32L39 32L39 31L38 31L38 32L37 32L37 31L36 31L36 32L35 32L35 31L33 31L33 32L31 32L31 31L32 31L32 30L31 30L31 31L28 31L28 32L29 32L29 33L27 33L27 31L25 31L25 34L23 34L23 33L24 33L24 31L23 31L23 32L21 32L21 31L22 31L22 30L24 30L24 29L25 29L25 30L26 30L26 27L25 27L25 28L24 28L24 27L23 27L23 25L25 25L25 26L26 26L26 25L27 25L27 26L28 26L28 25L29 25L29 24L25 24L25 23L26 23L26 22L25 22L25 21L26 21L26 20L25 20L25 21L24 21L24 20L22 20L22 21L21 21L21 20L20 20L20 21L18 21L18 19ZM6 20L6 21L7 21L7 22L8 22L8 20ZM54 20L54 21L55 21L55 20ZM22 21L22 22L24 22L24 21ZM44 21L44 23L46 23L46 22L45 22L45 21ZM18 22L18 23L20 23L20 22ZM30 22L30 23L31 23L31 22ZM50 22L50 23L51 23L51 22ZM22 23L22 24L24 24L24 23ZM52 23L52 24L53 24L53 23ZM4 24L4 25L5 25L5 24ZM30 24L30 25L31 25L31 24ZM45 24L45 25L47 25L47 24ZM14 25L14 26L13 26L13 27L14 27L14 26L15 26L15 25ZM21 25L21 27L22 27L22 25ZM50 25L50 26L51 26L51 25ZM56 25L56 26L57 26L57 25ZM3 27L3 28L4 28L4 27ZM5 27L5 30L8 30L8 27ZM27 27L27 30L30 30L30 27ZM49 27L49 30L52 30L52 27ZM6 28L6 29L7 29L7 28ZM23 28L23 29L24 29L24 28ZM28 28L28 29L29 29L29 28ZM50 28L50 29L51 29L51 28ZM54 28L54 29L53 29L53 31L51 31L51 32L54 32L54 33L55 33L55 34L56 34L56 33L55 33L55 32L54 32L54 30L56 30L56 29L55 29L55 28ZM3 29L3 31L4 31L4 29ZM16 29L16 31L15 31L15 30L14 30L14 32L13 32L13 33L14 33L14 32L15 32L15 33L16 33L16 34L17 34L17 33L16 33L16 31L18 31L18 29ZM20 30L20 31L21 31L21 30ZM5 31L5 32L8 32L8 33L5 33L5 37L6 37L6 38L7 38L7 37L8 37L8 34L9 34L9 31ZM1 32L1 33L3 33L3 32ZM30 32L30 33L29 33L29 34L30 34L30 35L29 35L29 39L31 39L31 38L32 38L32 35L33 35L33 34L34 34L34 35L35 35L35 34L36 34L36 35L38 35L38 36L39 36L39 38L38 38L38 37L37 37L37 36L36 36L36 37L35 37L35 36L33 36L33 37L35 37L35 38L33 38L33 39L32 39L32 40L34 40L34 39L35 39L35 40L36 40L36 41L35 41L35 42L34 42L34 41L33 41L33 42L32 42L32 41L30 41L30 43L32 43L32 44L34 44L34 43L36 43L36 41L37 41L37 43L38 43L38 44L39 44L39 43L38 43L38 41L39 41L39 40L38 40L38 41L37 41L37 40L36 40L36 39L37 39L37 38L38 38L38 39L39 39L39 38L40 38L40 36L39 36L39 34L37 34L37 32L36 32L36 33L35 33L35 32L33 32L33 34L32 34L32 33L31 33L31 32ZM41 32L41 33L42 33L42 32ZM26 33L26 34L27 34L27 33ZM34 33L34 34L35 34L35 33ZM46 33L46 34L47 34L47 33ZM6 34L6 35L7 35L7 34ZM31 34L31 35L32 35L32 34ZM9 35L9 36L10 36L10 35ZM50 35L50 37L49 37L49 38L48 38L48 39L49 39L49 38L52 38L52 39L53 39L53 38L52 38L52 37L51 37L51 35ZM6 36L6 37L7 37L7 36ZM30 36L30 38L31 38L31 36ZM54 36L54 37L56 37L56 36ZM15 37L15 38L16 38L16 37ZM22 37L22 38L23 38L23 37ZM27 37L27 38L28 38L28 37ZM36 37L36 38L35 38L35 39L36 39L36 38L37 38L37 37ZM4 38L4 39L2 39L2 40L4 40L4 39L5 39L5 40L7 40L7 39L5 39L5 38ZM19 38L19 39L20 39L20 38ZM1 41L1 43L2 43L2 41ZM8 41L8 42L9 42L9 41ZM6 42L6 43L7 43L7 44L8 44L8 45L10 45L10 44L12 44L12 43L11 43L11 42L10 42L10 44L8 44L8 43L7 43L7 42ZM33 42L33 43L34 43L34 42ZM50 42L50 43L51 43L51 42ZM35 44L35 45L36 45L36 46L38 46L38 45L37 45L37 44ZM28 45L28 46L29 46L29 45ZM40 45L40 46L41 46L41 47L42 47L42 46L43 46L43 45L42 45L42 46L41 46L41 45ZM11 46L11 47L10 47L10 48L11 48L11 49L12 49L12 48L11 48L11 47L12 47L12 46ZM6 48L6 49L7 49L7 48ZM20 48L20 49L21 49L21 48ZM27 49L27 52L30 52L30 49ZM49 49L49 52L52 52L52 49ZM9 50L9 51L10 51L10 52L9 52L9 53L11 53L11 54L10 54L10 56L12 56L12 55L13 55L13 56L14 56L14 53L13 53L13 51L12 51L12 52L11 52L11 51L10 51L10 50ZM28 50L28 51L29 51L29 50ZM50 50L50 51L51 51L51 50ZM35 51L35 52L36 52L36 53L37 53L37 54L38 54L38 53L37 53L37 52L36 52L36 51ZM54 52L54 53L53 53L53 54L51 54L51 53L49 53L49 55L50 55L50 54L51 54L51 55L53 55L53 54L54 54L54 53L55 53L55 52ZM15 53L15 54L16 54L16 53ZM27 55L27 56L28 56L28 55ZM41 55L41 56L42 56L42 57L43 57L43 56L45 56L45 55ZM0 0L0 7L7 7L7 0ZM1 1L1 6L6 6L6 1ZM2 2L2 5L5 5L5 2ZM50 0L50 7L57 7L57 0ZM51 1L51 6L56 6L56 1ZM52 2L52 5L55 5L55 2ZM0 50L0 57L7 57L7 50ZM1 51L1 56L6 56L6 51ZM2 52L2 55L5 55L5 52Z" fill="#000000"/></g></g></svg>
