<?xml version="1.0" encoding="UTF-8"?>
<svg xmlns="http://www.w3.org/2000/svg" version="1.1" width="300" height="300" viewBox="0 0 300 300"><rect x="0" y="0" width="300" height="300" fill="#ffffff"/><g transform="scale(4.918)"><g transform="translate(2,2)"><path fill-rule="evenodd" d="M12 0L12 2L11 2L11 1L8 1L8 2L9 2L9 3L8 3L8 4L9 4L9 5L8 5L8 7L9 7L9 6L10 6L10 8L6 8L6 9L5 9L5 8L0 8L0 11L1 11L1 12L0 12L0 13L3 13L3 14L2 14L2 15L1 15L1 14L0 14L0 15L1 15L1 19L0 19L0 21L1 21L1 19L2 19L2 22L0 22L0 23L2 23L2 24L3 24L3 22L5 22L5 23L4 23L4 25L3 25L3 26L2 26L2 25L1 25L1 24L0 24L0 26L1 26L1 27L0 27L0 28L1 28L1 29L0 29L0 30L1 30L1 31L0 31L0 33L1 33L1 35L2 35L2 36L0 36L0 37L3 37L3 39L2 39L2 40L1 40L1 41L0 41L0 44L1 44L1 42L2 42L2 41L3 41L3 39L4 39L4 40L5 40L5 39L8 39L8 40L9 40L9 39L8 39L8 38L11 38L11 40L12 40L12 39L13 39L13 38L14 38L14 36L15 36L15 37L16 37L16 38L15 38L15 39L14 39L14 40L15 40L15 41L14 41L14 42L13 42L13 41L12 41L12 42L11 42L11 41L8 41L8 42L9 42L9 44L6 44L6 43L7 43L7 42L6 42L6 41L7 41L7 40L6 40L6 41L4 41L4 42L6 42L6 43L5 43L5 44L6 44L6 45L5 45L5 47L3 47L3 46L4 46L4 44L3 44L3 43L2 43L2 44L3 44L3 46L2 46L2 47L1 47L1 46L0 46L0 48L5 48L5 47L8 47L8 46L6 46L6 45L9 45L9 44L11 44L11 47L10 47L10 46L9 46L9 48L8 48L8 51L9 51L9 52L8 52L8 57L9 57L9 53L10 53L10 54L11 54L11 55L10 55L10 57L14 57L14 56L13 56L13 55L14 55L14 53L15 53L15 54L16 54L16 53L15 53L15 52L16 52L16 51L17 51L17 50L18 50L18 53L17 53L17 54L18 54L18 53L19 53L19 54L20 54L20 55L17 55L17 56L16 56L16 55L15 55L15 57L19 57L19 56L21 56L21 55L22 55L22 56L23 56L23 55L24 55L24 56L25 56L25 57L26 57L26 56L28 56L28 55L26 55L26 54L27 54L27 53L28 53L28 54L29 54L29 55L30 55L30 57L32 57L32 56L33 56L33 57L34 57L34 56L33 56L33 54L34 54L34 55L35 55L35 54L34 54L34 53L37 53L37 54L36 54L36 56L35 56L35 57L37 57L37 54L38 54L38 53L39 53L39 56L38 56L38 57L39 57L39 56L41 56L41 57L44 57L44 55L40 55L40 52L43 52L43 53L41 53L41 54L43 54L43 53L44 53L44 54L45 54L45 53L44 53L44 50L43 50L43 49L44 49L44 48L45 48L45 47L47 47L47 46L46 46L46 45L47 45L47 44L48 44L48 43L49 43L49 47L50 47L50 48L48 48L48 51L47 51L47 50L45 50L45 52L48 52L48 53L47 53L47 55L45 55L45 56L47 56L47 57L49 57L49 56L47 56L47 55L49 55L49 54L48 54L48 53L50 53L50 55L51 55L51 56L50 56L50 57L52 57L52 56L54 56L54 57L56 57L56 56L55 56L55 53L54 53L54 52L55 52L55 51L56 51L56 52L57 52L57 51L56 51L56 50L57 50L57 49L56 49L56 50L55 50L55 49L54 49L54 48L57 48L57 47L56 47L56 46L57 46L57 45L56 45L56 44L57 44L57 43L56 43L56 44L55 44L55 42L57 42L57 41L54 41L54 43L53 43L53 44L51 44L51 43L50 43L50 42L51 42L51 41L49 41L49 40L48 40L48 41L47 41L47 42L48 42L48 43L46 43L46 42L43 42L43 41L41 41L41 43L39 43L39 42L38 42L38 41L39 41L39 40L41 40L41 39L40 39L40 38L38 38L38 36L36 36L36 37L37 37L37 38L35 38L35 41L37 41L37 42L35 42L35 46L33 46L33 47L31 47L31 46L30 46L30 43L31 43L31 45L32 45L32 43L33 43L33 44L34 44L34 43L33 43L33 42L32 42L32 41L31 41L31 40L34 40L34 39L31 39L31 38L32 38L32 35L31 35L31 34L29 34L29 37L28 37L28 36L27 36L27 37L26 37L26 36L24 36L24 34L25 34L25 35L27 35L27 33L29 33L29 32L28 32L28 31L31 31L31 32L30 32L30 33L31 33L31 32L33 32L33 31L35 31L35 32L36 32L36 34L37 34L37 35L40 35L40 36L39 36L39 37L40 37L40 36L42 36L42 34L43 34L43 37L41 37L41 38L43 38L43 37L44 37L44 38L45 38L45 39L44 39L44 40L47 40L47 39L46 39L46 38L45 38L45 37L44 37L44 34L45 34L45 36L46 36L46 37L47 37L47 38L48 38L48 39L50 39L50 38L48 38L48 37L47 37L47 36L46 36L46 35L48 35L48 33L47 33L47 34L45 34L45 33L44 33L44 32L46 32L46 31L47 31L47 32L48 32L48 31L49 31L49 32L51 32L51 33L50 33L50 34L51 34L51 33L54 33L54 34L52 34L52 36L51 36L51 35L49 35L49 36L51 36L51 37L52 37L52 36L53 36L53 39L52 39L52 41L53 41L53 40L55 40L55 39L57 39L57 37L55 37L55 39L54 39L54 36L57 36L57 35L55 35L55 34L57 34L57 32L56 32L56 30L57 30L57 29L56 29L56 30L54 30L54 32L52 32L52 31L53 31L53 29L54 29L54 28L55 28L55 27L56 27L56 26L55 26L55 25L56 25L56 24L57 24L57 23L56 23L56 22L57 22L57 21L56 21L56 19L51 19L51 18L49 18L49 16L50 16L50 15L51 15L51 14L52 14L52 13L51 13L51 14L50 14L50 15L49 15L49 13L50 13L50 11L52 11L52 12L53 12L53 11L54 11L54 12L55 12L55 13L56 13L56 14L53 14L53 15L52 15L52 16L53 16L53 17L52 17L52 18L54 18L54 16L55 16L55 18L57 18L57 17L56 17L56 16L57 16L57 15L56 15L56 14L57 14L57 13L56 13L56 12L57 12L57 11L56 11L56 8L55 8L55 11L54 11L54 10L53 10L53 11L52 11L52 8L51 8L51 10L50 10L50 8L49 8L49 6L48 6L48 7L47 7L47 5L48 5L48 0L45 0L45 1L47 1L47 2L44 2L44 1L43 1L43 0L42 0L42 1L41 1L41 0L39 0L39 1L36 1L36 0L35 0L35 1L33 1L33 2L28 2L28 0L27 0L27 1L26 1L26 0L24 0L24 1L23 1L23 0L21 0L21 2L19 2L19 1L18 1L18 2L19 2L19 3L17 3L17 1L16 1L16 0L14 0L14 1L15 1L15 2L14 2L14 3L13 3L13 4L11 4L11 3L12 3L12 2L13 2L13 0ZM29 0L29 1L31 1L31 0ZM35 1L35 2L33 2L33 3L32 3L32 4L31 4L31 7L32 7L32 6L33 6L33 7L34 7L34 6L33 6L33 5L36 5L36 6L35 6L35 8L31 8L31 9L32 9L32 11L34 11L34 12L36 12L36 11L38 11L38 10L39 10L39 12L38 12L38 14L36 14L36 13L33 13L33 12L31 12L31 11L30 11L30 12L31 12L31 13L32 13L32 14L30 14L30 13L29 13L29 12L28 12L28 13L26 13L26 14L24 14L24 13L25 13L25 12L27 12L27 11L26 11L26 10L28 10L28 11L29 11L29 10L28 10L28 9L26 9L26 6L25 6L25 4L26 4L26 3L25 3L25 2L21 2L21 3L20 3L20 4L17 4L17 3L16 3L16 4L15 4L15 3L14 3L14 4L15 4L15 5L16 5L16 4L17 4L17 5L20 5L20 6L19 6L19 7L18 7L18 6L17 6L17 8L16 8L16 6L15 6L15 7L14 7L14 6L13 6L13 7L12 7L12 6L11 6L11 8L10 8L10 9L9 9L9 11L8 11L8 9L6 9L6 10L4 10L4 9L3 9L3 11L2 11L2 12L3 12L3 13L4 13L4 14L7 14L7 15L6 15L6 16L7 16L7 17L6 17L6 18L5 18L5 15L4 15L4 16L2 16L2 19L4 19L4 21L5 21L5 20L7 20L7 21L6 21L6 22L7 22L7 23L5 23L5 24L7 24L7 25L4 25L4 26L8 26L8 22L10 22L10 21L9 21L9 20L7 20L7 19L6 19L6 18L7 18L7 17L9 17L9 16L7 16L7 15L8 15L8 14L9 14L9 13L8 13L8 12L9 12L9 11L10 11L10 13L14 13L14 14L13 14L13 15L12 15L12 16L13 16L13 15L14 15L14 14L15 14L15 10L16 10L16 12L18 12L18 13L16 13L16 15L15 15L15 16L14 16L14 17L12 17L12 20L11 20L11 15L10 15L10 18L8 18L8 19L10 19L10 20L11 20L11 22L12 22L12 21L13 21L13 22L14 22L14 23L13 23L13 24L14 24L14 25L13 25L13 29L12 29L12 28L11 28L11 27L9 27L9 28L11 28L11 29L10 29L10 31L8 31L8 34L7 34L7 33L5 33L5 32L4 32L4 31L3 31L3 30L4 30L4 27L1 27L1 28L3 28L3 30L2 30L2 31L3 31L3 32L1 32L1 33L3 33L3 34L2 34L2 35L3 35L3 37L4 37L4 39L5 39L5 38L7 38L7 37L9 37L9 36L10 36L10 37L12 37L12 38L13 38L13 34L14 34L14 35L15 35L15 34L14 34L14 33L13 33L13 32L15 32L15 31L13 31L13 30L15 30L15 29L14 29L14 27L16 27L16 26L17 26L17 27L18 27L18 25L16 25L16 24L17 24L17 22L18 22L18 24L19 24L19 25L20 25L20 26L19 26L19 27L20 27L20 28L19 28L19 29L20 29L20 30L21 30L21 29L22 29L22 31L19 31L19 30L17 30L17 29L18 29L18 28L17 28L17 29L16 29L16 30L17 30L17 31L16 31L16 32L18 32L18 31L19 31L19 33L16 33L16 35L17 35L17 34L19 34L19 35L20 35L20 34L21 34L21 33L22 33L22 35L21 35L21 36L20 36L20 37L18 37L18 36L16 36L16 37L18 37L18 38L17 38L17 39L18 39L18 38L20 38L20 39L19 39L19 41L20 41L20 42L18 42L18 41L17 41L17 40L16 40L16 39L15 39L15 40L16 40L16 41L15 41L15 42L14 42L14 43L13 43L13 42L12 42L12 43L11 43L11 42L10 42L10 43L11 43L11 44L12 44L12 46L13 46L13 47L11 47L11 49L12 49L12 50L13 50L13 53L12 53L12 51L11 51L11 50L10 50L10 48L9 48L9 50L10 50L10 52L11 52L11 54L13 54L13 53L14 53L14 52L15 52L15 51L16 51L16 50L17 50L17 49L15 49L15 47L18 47L18 45L19 45L19 47L20 47L20 48L19 48L19 49L18 49L18 50L19 50L19 49L20 49L20 50L21 50L21 51L23 51L23 52L19 52L19 53L23 53L23 54L22 54L22 55L23 55L23 54L24 54L24 53L23 53L23 52L24 52L24 51L25 51L25 52L26 52L26 51L25 51L25 50L26 50L26 49L25 49L25 50L23 50L23 49L24 49L24 47L25 47L25 48L26 48L26 46L28 46L28 47L27 47L27 48L29 48L29 45L27 45L27 43L26 43L26 42L28 42L28 44L29 44L29 43L30 43L30 42L31 42L31 41L29 41L29 40L31 40L31 39L29 39L29 40L28 40L28 39L26 39L26 37L24 37L24 36L23 36L23 31L25 31L25 30L26 30L26 27L25 27L25 26L26 26L26 25L29 25L29 26L30 26L30 24L31 24L31 22L28 22L28 21L29 21L29 20L30 20L30 19L31 19L31 18L29 18L29 17L33 17L33 16L30 16L30 15L32 15L32 14L35 14L35 15L34 15L34 16L35 16L35 17L34 17L34 18L32 18L32 19L34 19L34 18L35 18L35 20L34 20L34 21L33 21L33 20L32 20L32 21L33 21L33 23L32 23L32 25L33 25L33 26L32 26L32 27L31 27L31 28L32 28L32 29L31 29L31 30L32 30L32 31L33 31L33 30L35 30L35 31L36 31L36 32L37 32L37 34L39 34L39 32L40 32L40 33L41 33L41 34L40 34L40 35L41 35L41 34L42 34L42 33L43 33L43 34L44 34L44 33L43 33L43 32L44 32L44 31L46 31L46 30L47 30L47 31L48 31L48 29L46 29L46 30L45 30L45 28L44 28L44 29L43 29L43 28L42 28L42 27L40 27L40 28L39 28L39 27L36 27L36 26L40 26L40 25L41 25L41 24L43 24L43 25L45 25L45 26L46 26L46 28L48 28L48 27L47 27L47 26L48 26L48 25L49 25L49 26L53 26L53 27L55 27L55 26L54 26L54 25L55 25L55 24L56 24L56 23L55 23L55 24L54 24L54 22L55 22L55 20L51 20L51 19L50 19L50 22L49 22L49 23L48 23L48 25L47 25L47 24L43 24L43 23L44 23L44 21L45 21L45 22L46 22L46 23L47 23L47 21L48 21L48 20L47 20L47 19L49 19L49 18L47 18L47 17L48 17L48 16L49 16L49 15L46 15L46 18L44 18L44 17L45 17L45 16L44 16L44 14L45 14L45 12L46 12L46 14L47 14L47 13L49 13L49 12L47 12L47 11L50 11L50 10L48 10L48 9L49 9L49 8L48 8L48 9L47 9L47 7L46 7L46 5L47 5L47 3L43 3L43 5L42 5L42 4L41 4L41 3L40 3L40 5L42 5L42 6L41 6L41 8L40 8L40 6L39 6L39 7L38 7L38 6L37 6L37 5L36 5L36 3L37 3L37 4L38 4L38 5L39 5L39 4L38 4L38 3L39 3L39 2L36 2L36 1ZM40 1L40 2L41 2L41 1ZM42 1L42 2L43 2L43 1ZM27 2L27 3L28 3L28 4L30 4L30 3L28 3L28 2ZM21 3L21 4L22 4L22 5L24 5L24 4L25 4L25 3L24 3L24 4L22 4L22 3ZM44 4L44 5L46 5L46 4ZM27 5L27 8L30 8L30 5ZM20 6L20 7L21 7L21 6ZM22 6L22 7L23 7L23 8L24 8L24 7L25 7L25 6L24 6L24 7L23 7L23 6ZM28 6L28 7L29 7L29 6ZM36 6L36 7L37 7L37 8L35 8L35 9L36 9L36 10L38 10L38 7L37 7L37 6ZM42 6L42 7L43 7L43 6ZM44 6L44 8L41 8L41 11L40 11L40 12L39 12L39 13L40 13L40 12L41 12L41 11L42 11L42 14L40 14L40 16L39 16L39 15L38 15L38 16L36 16L36 15L35 15L35 16L36 16L36 17L35 17L35 18L37 18L37 20L36 20L36 21L39 21L39 22L36 22L36 24L34 24L34 23L35 23L35 22L34 22L34 23L33 23L33 24L34 24L34 25L35 25L35 26L36 26L36 25L37 25L37 23L38 23L38 25L40 25L40 24L41 24L41 23L40 23L40 22L42 22L42 23L43 23L43 20L45 20L45 19L42 19L42 18L43 18L43 17L44 17L44 16L43 16L43 15L42 15L42 14L43 14L43 13L44 13L44 12L45 12L45 11L46 11L46 10L44 10L44 11L42 11L42 10L43 10L43 9L44 9L44 8L45 8L45 6ZM12 8L12 9L10 9L10 10L11 10L11 12L14 12L14 11L12 11L12 10L13 10L13 8ZM15 8L15 9L14 9L14 10L15 10L15 9L16 9L16 8ZM17 8L17 9L22 9L22 10L21 10L21 11L20 11L20 10L19 10L19 13L18 13L18 15L19 15L19 13L22 13L22 12L21 12L21 11L22 11L22 10L24 10L24 11L25 11L25 9L22 9L22 8ZM53 8L53 9L54 9L54 8ZM33 9L33 10L34 10L34 11L35 11L35 10L34 10L34 9ZM39 9L39 10L40 10L40 9ZM6 10L6 11L5 11L5 12L4 12L4 11L3 11L3 12L4 12L4 13L5 13L5 12L6 12L6 13L7 13L7 14L8 14L8 13L7 13L7 12L6 12L6 11L7 11L7 10ZM17 10L17 11L18 11L18 10ZM23 12L23 13L24 13L24 12ZM28 13L28 14L26 14L26 15L29 15L29 13ZM20 14L20 15L21 15L21 16L20 16L20 17L21 17L21 18L20 18L20 19L21 19L21 21L19 21L19 18L16 18L16 17L19 17L19 16L17 16L17 15L16 15L16 17L14 17L14 18L13 18L13 19L14 19L14 20L13 20L13 21L15 21L15 22L16 22L16 21L15 21L15 20L16 20L16 19L17 19L17 21L19 21L19 22L20 22L20 23L19 23L19 24L21 24L21 21L22 21L22 22L23 22L23 23L24 23L24 25L21 25L21 26L22 26L22 27L21 27L21 28L20 28L20 29L21 29L21 28L22 28L22 29L24 29L24 30L25 30L25 29L24 29L24 28L25 28L25 27L24 27L24 28L23 28L23 26L25 26L25 25L26 25L26 24L25 24L25 23L26 23L26 22L25 22L25 21L28 21L28 20L29 20L29 19L28 19L28 18L26 18L26 17L28 17L28 16L25 16L25 15L24 15L24 14L23 14L23 15L24 15L24 17L23 17L23 18L24 18L24 19L21 19L21 18L22 18L22 17L21 17L21 16L22 16L22 14ZM53 15L53 16L54 16L54 15ZM38 16L38 17L37 17L37 18L39 18L39 19L38 19L38 20L40 20L40 21L42 21L42 20L40 20L40 19L41 19L41 18L42 18L42 16L40 16L40 18L39 18L39 16ZM25 18L25 19L26 19L26 20L28 20L28 19L26 19L26 18ZM46 18L46 19L47 19L47 18ZM22 20L22 21L23 21L23 22L24 22L24 21L23 21L23 20ZM51 21L51 22L50 22L50 23L52 23L52 24L51 24L51 25L52 25L52 24L53 24L53 23L52 23L52 22L54 22L54 21ZM27 22L27 24L30 24L30 23L28 23L28 22ZM10 23L10 24L11 24L11 26L12 26L12 23ZM15 23L15 24L16 24L16 23ZM39 23L39 24L40 24L40 23ZM49 24L49 25L50 25L50 24ZM14 25L14 26L16 26L16 25ZM5 27L5 30L8 30L8 27ZM27 27L27 30L30 30L30 27ZM32 27L32 28L33 28L33 29L32 29L32 30L33 30L33 29L35 29L35 30L36 30L36 31L37 31L37 32L38 32L38 31L37 31L37 30L38 30L38 29L39 29L39 30L40 30L40 32L41 32L41 31L42 31L42 32L43 32L43 31L44 31L44 30L43 30L43 29L42 29L42 30L41 30L41 29L39 29L39 28L38 28L38 29L37 29L37 28L36 28L36 27L34 27L34 28L33 28L33 27ZM49 27L49 30L52 30L52 27ZM6 28L6 29L7 29L7 28ZM28 28L28 29L29 29L29 28ZM50 28L50 29L51 29L51 28ZM36 29L36 30L37 30L37 29ZM11 30L11 31L10 31L10 32L11 32L11 33L9 33L9 34L8 34L8 35L7 35L7 34L6 34L6 35L5 35L5 34L4 34L4 35L5 35L5 37L7 37L7 36L8 36L8 35L11 35L11 36L12 36L12 35L11 35L11 34L13 34L13 33L12 33L12 32L13 32L13 31L12 31L12 30ZM42 30L42 31L43 31L43 30ZM6 31L6 32L7 32L7 31ZM26 31L26 32L25 32L25 34L26 34L26 33L27 33L27 31ZM20 32L20 33L21 33L21 32ZM54 32L54 33L56 33L56 32ZM33 33L33 34L34 34L34 35L33 35L33 37L34 37L34 35L35 35L35 34L34 34L34 33ZM6 35L6 36L7 36L7 35ZM30 35L30 38L31 38L31 35ZM21 36L21 37L22 37L22 38L21 38L21 39L23 39L23 41L21 41L21 43L19 43L19 45L22 45L22 44L21 44L21 43L22 43L22 42L26 42L26 41L27 41L27 40L26 40L26 39L25 39L25 41L24 41L24 39L23 39L23 38L24 38L24 37L22 37L22 36ZM27 37L27 38L28 38L28 37ZM0 38L0 39L1 39L1 38ZM38 39L38 40L39 40L39 39ZM42 39L42 40L43 40L43 39ZM16 42L16 43L18 43L18 42ZM42 42L42 43L43 43L43 44L39 44L39 43L38 43L38 44L37 44L37 45L36 45L36 46L35 46L35 47L34 47L34 48L35 48L35 49L33 49L33 48L31 48L31 49L32 49L32 51L31 51L31 52L32 52L32 54L33 54L33 53L34 53L34 52L36 52L36 51L37 51L37 52L40 52L40 51L37 51L37 50L42 50L42 51L43 51L43 50L42 50L42 49L43 49L43 48L44 48L44 47L45 47L45 43L43 43L43 42ZM12 43L12 44L13 44L13 46L16 46L16 45L18 45L18 44L15 44L15 45L14 45L14 44L13 44L13 43ZM23 43L23 45L24 45L24 46L23 46L23 47L22 47L22 46L20 46L20 47L21 47L21 48L23 48L23 47L24 47L24 46L25 46L25 45L26 45L26 44L25 44L25 43ZM24 44L24 45L25 45L25 44ZM38 44L38 45L37 45L37 46L38 46L38 45L39 45L39 44ZM43 44L43 45L42 45L42 46L41 46L41 45L40 45L40 46L39 46L39 48L41 48L41 47L42 47L42 48L43 48L43 47L42 47L42 46L44 46L44 44ZM50 44L50 47L52 47L52 48L54 48L54 46L53 46L53 45L51 45L51 44ZM54 44L54 45L55 45L55 46L56 46L56 45L55 45L55 44ZM35 47L35 48L36 48L36 50L37 50L37 49L38 49L38 48L36 48L36 47ZM6 48L6 49L7 49L7 48ZM13 49L13 50L14 50L14 49ZM21 49L21 50L22 50L22 49ZM27 49L27 52L30 52L30 49ZM49 49L49 52L52 52L52 49ZM28 50L28 51L29 51L29 50ZM33 50L33 51L32 51L32 52L34 52L34 51L35 51L35 50ZM50 50L50 51L51 51L51 50ZM53 50L53 51L54 51L54 50ZM25 53L25 54L26 54L26 53ZM30 53L30 54L31 54L31 53ZM53 53L53 54L51 54L51 55L53 55L53 54L54 54L54 53ZM11 55L11 56L12 56L12 55ZM31 55L31 56L32 56L32 55ZM0 0L0 7L7 7L7 0ZM1 1L1 6L6 6L6 1ZM2 2L2 5L5 5L5 2ZM50 0L50 7L57 7L57 0ZM51 1L51 6L56 6L56 1ZM52 2L52 5L55 5L55 2ZM0 50L0 57L7 57L7 50ZM1 51L1 56L6 56L6 51ZM2 52L2 55L5 55L5 52Z" fill="#000000"/></g></g></svg>
