<?xml version="1.0" encoding="UTF-8"?>
<svg xmlns="http://www.w3.org/2000/svg" version="1.1" width="300" height="300" viewBox="0 0 300 300"><rect x="0" y="0" width="300" height="300" fill="#ffffff"/><g transform="scale(4.918)"><g transform="translate(2,2)"><path fill-rule="evenodd" d="M9 0L9 1L8 1L8 2L9 2L9 3L8 3L8 4L9 4L9 5L8 5L8 7L9 7L9 8L6 8L6 9L5 9L5 8L0 8L0 10L1 10L1 11L0 11L0 13L2 13L2 14L3 14L3 16L2 16L2 15L1 15L1 14L0 14L0 15L1 15L1 16L2 16L2 18L0 18L0 19L1 19L1 20L0 20L0 21L1 21L1 23L0 23L0 26L1 26L1 25L2 25L2 27L3 27L3 28L4 28L4 29L2 29L2 28L1 28L1 29L2 29L2 31L3 31L3 32L2 32L2 34L1 34L1 33L0 33L0 34L1 34L1 35L0 35L0 36L1 36L1 35L2 35L2 34L3 34L3 36L4 36L4 34L5 34L5 35L7 35L7 36L5 36L5 37L4 37L4 38L3 38L3 37L2 37L2 38L3 38L3 39L0 39L0 41L1 41L1 42L2 42L2 43L3 43L3 42L2 42L2 40L3 40L3 41L4 41L4 43L8 43L8 42L5 42L5 41L8 41L8 40L9 40L9 42L11 42L11 44L10 44L10 43L9 43L9 44L8 44L8 46L9 46L9 47L10 47L10 45L11 45L11 44L12 44L12 46L11 46L11 47L12 47L12 49L13 49L13 51L12 51L12 52L11 52L11 53L13 53L13 54L12 54L12 55L13 55L13 54L14 54L14 55L15 55L15 56L13 56L13 57L19 57L19 56L20 56L20 57L21 57L21 55L24 55L24 57L26 57L26 56L28 56L28 55L26 55L26 54L27 54L27 53L28 53L28 54L29 54L29 55L30 55L30 56L29 56L29 57L31 57L31 56L33 56L33 54L34 54L34 55L35 55L35 54L36 54L36 56L34 56L34 57L40 57L40 56L41 56L41 57L44 57L44 56L46 56L46 57L47 57L47 56L46 56L46 54L45 54L45 53L44 53L44 51L45 51L45 52L48 52L48 54L47 54L47 55L49 55L49 53L50 53L50 55L51 55L51 56L50 56L50 57L52 57L52 56L54 56L54 57L56 57L56 56L55 56L55 55L51 55L51 54L54 54L54 52L55 52L55 50L57 50L57 49L53 49L53 48L57 48L57 47L56 47L56 46L57 46L57 45L56 45L56 42L57 42L57 41L56 41L56 42L55 42L55 39L57 39L57 37L54 37L54 36L55 36L55 34L57 34L57 32L56 32L56 30L57 30L57 28L56 28L56 26L57 26L57 25L56 25L56 24L55 24L55 23L56 23L56 22L57 22L57 21L54 21L54 22L55 22L55 23L52 23L52 22L53 22L53 21L51 21L51 22L50 22L50 19L51 19L51 20L55 20L55 19L52 19L52 18L54 18L54 16L55 16L55 18L57 18L57 17L56 17L56 16L57 16L57 15L56 15L56 14L57 14L57 12L55 12L55 11L56 11L56 10L57 10L57 9L56 9L56 8L55 8L55 9L56 9L56 10L55 10L55 11L54 11L54 10L50 10L50 8L49 8L49 6L48 6L48 7L47 7L47 5L48 5L48 0L45 0L45 1L47 1L47 2L42 2L42 1L43 1L43 0L42 0L42 1L40 1L40 0L39 0L39 1L37 1L37 0L35 0L35 1L32 1L32 2L31 2L31 3L30 3L30 2L27 2L27 1L31 1L31 0L27 0L27 1L26 1L26 0L24 0L24 1L23 1L23 0L21 0L21 1L23 1L23 2L19 2L19 1L18 1L18 4L16 4L16 3L17 3L17 1L16 1L16 0L14 0L14 1L15 1L15 2L14 2L14 3L12 3L12 2L10 2L10 0ZM11 0L11 1L12 1L12 0ZM25 1L25 2L23 2L23 3L22 3L22 4L21 4L21 3L20 3L20 4L18 4L18 5L17 5L17 7L18 7L18 5L20 5L20 6L19 6L19 9L16 9L16 6L15 6L15 5L16 5L16 4L15 4L15 3L14 3L14 4L15 4L15 5L14 5L14 6L13 6L13 8L14 8L14 9L16 9L16 10L18 10L18 11L15 11L15 10L13 10L13 9L12 9L12 5L10 5L10 6L9 6L9 7L10 7L10 6L11 6L11 8L9 8L9 9L6 9L6 10L8 10L8 12L7 12L7 11L5 11L5 9L4 9L4 10L3 10L3 9L1 9L1 10L3 10L3 11L1 11L1 12L2 12L2 13L3 13L3 14L4 14L4 13L5 13L5 12L7 12L7 13L6 13L6 14L5 14L5 16L3 16L3 17L5 17L5 18L2 18L2 21L3 21L3 19L4 19L4 22L3 22L3 23L1 23L1 24L2 24L2 25L4 25L4 26L5 26L5 25L6 25L6 26L8 26L8 25L9 25L9 26L12 26L12 27L11 27L11 28L12 28L12 29L11 29L11 30L10 30L10 29L9 29L9 31L11 31L11 32L8 32L8 35L9 35L9 36L8 36L8 37L9 37L9 38L8 38L8 39L5 39L5 38L7 38L7 37L5 37L5 38L4 38L4 39L3 39L3 40L4 40L4 39L5 39L5 40L8 40L8 39L9 39L9 40L11 40L11 42L13 42L13 45L14 45L14 46L15 46L15 45L14 45L14 43L15 43L15 44L16 44L16 42L17 42L17 40L16 40L16 39L15 39L15 38L16 38L16 37L18 37L18 38L17 38L17 39L18 39L18 38L20 38L20 39L19 39L19 41L18 41L18 43L17 43L17 44L18 44L18 45L16 45L16 46L17 46L17 47L15 47L15 48L17 48L17 47L18 47L18 45L20 45L20 46L22 46L22 47L23 47L23 48L21 48L21 47L19 47L19 49L18 49L18 50L19 50L19 49L20 49L20 50L21 50L21 51L22 51L22 52L19 52L19 51L16 51L16 50L17 50L17 49L15 49L15 50L14 50L14 51L13 51L13 53L14 53L14 54L15 54L15 55L16 55L16 56L18 56L18 54L19 54L19 55L20 55L20 54L19 54L19 53L23 53L23 54L24 54L24 53L23 53L23 52L24 52L24 51L25 51L25 53L26 53L26 50L23 50L23 49L24 49L24 48L25 48L25 49L26 49L26 46L27 46L27 45L28 45L28 47L27 47L27 48L29 48L29 46L30 46L30 45L31 45L31 43L30 43L30 41L26 41L26 42L24 42L24 44L23 44L23 42L22 42L22 41L23 41L23 40L22 40L22 39L24 39L24 40L25 40L25 38L26 38L26 35L27 35L27 36L28 36L28 37L27 37L27 38L28 38L28 37L29 37L29 36L30 36L30 38L31 38L31 39L29 39L29 40L31 40L31 41L32 41L32 42L35 42L35 43L34 43L34 44L33 44L33 43L32 43L32 45L33 45L33 46L31 46L31 47L30 47L30 48L32 48L32 49L31 49L31 52L32 52L32 54L33 54L33 53L34 53L34 54L35 54L35 53L34 53L34 52L36 52L36 50L35 50L35 49L34 49L34 48L38 48L38 50L37 50L37 51L38 51L38 50L40 50L40 51L39 51L39 52L37 52L37 53L38 53L38 54L39 54L39 52L40 52L40 55L38 55L38 56L40 56L40 55L41 55L41 56L43 56L43 55L45 55L45 54L44 54L44 53L43 53L43 51L44 51L44 50L45 50L45 51L46 51L46 50L47 50L47 51L48 51L48 48L49 48L49 47L51 47L51 48L53 48L53 47L54 47L54 45L55 45L55 46L56 46L56 45L55 45L55 44L54 44L54 45L51 45L51 44L53 44L53 43L54 43L54 40L53 40L53 41L52 41L52 40L49 40L49 39L48 39L48 38L47 38L47 37L49 37L49 35L51 35L51 36L50 36L50 39L51 39L51 38L53 38L53 39L54 39L54 38L53 38L53 37L52 37L52 34L54 34L54 33L56 33L56 32L54 32L54 31L51 31L51 32L49 32L49 31L48 31L48 30L47 30L47 29L48 29L48 26L47 26L47 25L49 25L49 26L51 26L51 24L52 24L52 25L53 25L53 27L55 27L55 26L56 26L56 25L55 25L55 24L52 24L52 23L50 23L50 22L49 22L49 23L48 23L48 24L47 24L47 21L48 21L48 20L47 20L47 19L48 19L48 18L47 18L47 17L48 17L48 16L49 16L49 15L50 15L50 14L51 14L51 15L52 15L52 16L50 16L50 17L49 17L49 18L52 18L52 17L53 17L53 16L54 16L54 14L53 14L53 13L55 13L55 14L56 14L56 13L55 13L55 12L54 12L54 11L53 11L53 12L52 12L52 11L50 11L50 10L48 10L48 9L49 9L49 8L48 8L48 9L46 9L46 8L47 8L47 7L46 7L46 5L47 5L47 3L42 3L42 2L41 2L41 3L40 3L40 5L42 5L42 6L41 6L41 7L40 7L40 6L39 6L39 7L38 7L38 6L37 6L37 5L36 5L36 3L38 3L38 5L39 5L39 3L38 3L38 2L34 2L34 3L32 3L32 4L31 4L31 7L32 7L32 6L33 6L33 8L32 8L32 9L31 9L31 10L30 10L30 9L26 9L26 6L25 6L25 4L26 4L26 3L25 3L25 2L26 2L26 1ZM10 3L10 4L12 4L12 3ZM24 3L24 4L22 4L22 5L24 5L24 4L25 4L25 3ZM27 3L27 4L29 4L29 3ZM33 4L33 5L34 5L34 8L35 8L35 10L34 10L34 11L33 11L33 13L32 13L32 12L30 12L30 10L29 10L29 11L27 11L27 10L26 10L26 11L27 11L27 12L25 12L25 11L24 11L24 10L25 10L25 9L21 9L21 11L19 11L19 13L18 13L18 12L15 12L15 15L14 15L14 16L13 16L13 15L10 15L10 14L12 14L12 13L10 13L10 12L12 12L12 11L11 11L11 10L9 10L9 11L10 11L10 12L9 12L9 13L10 13L10 14L8 14L8 13L7 13L7 14L6 14L6 15L7 15L7 16L5 16L5 17L9 17L9 15L10 15L10 17L11 17L11 18L12 18L12 19L9 19L9 18L5 18L5 20L6 20L6 21L7 21L7 22L6 22L6 23L5 23L5 22L4 22L4 25L5 25L5 24L6 24L6 25L7 25L7 24L6 24L6 23L7 23L7 22L8 22L8 24L9 24L9 22L10 22L10 23L11 23L11 25L12 25L12 23L13 23L13 25L15 25L15 24L16 24L16 23L13 23L13 21L15 21L15 22L16 22L16 21L15 21L15 20L16 20L16 19L17 19L17 21L19 21L19 22L20 22L20 23L17 23L17 25L18 25L18 27L15 27L15 29L14 29L14 28L13 28L13 29L12 29L12 31L13 31L13 30L14 30L14 31L15 31L15 36L14 36L14 37L13 37L13 36L12 36L12 38L11 38L11 37L10 37L10 36L9 36L9 37L10 37L10 38L9 38L9 39L12 39L12 38L15 38L15 37L16 37L16 36L18 36L18 37L20 37L20 36L21 36L21 37L22 37L22 38L24 38L24 37L25 37L25 36L24 36L24 34L25 34L25 35L26 35L26 34L27 34L27 33L30 33L30 31L31 31L31 30L32 30L32 32L31 32L31 33L32 33L32 34L33 34L33 35L35 35L35 34L36 34L36 35L37 35L37 36L36 36L36 37L35 37L35 38L34 38L34 36L33 36L33 38L34 38L34 39L35 39L35 38L36 38L36 40L35 40L35 42L36 42L36 44L35 44L35 46L33 46L33 47L32 47L32 48L34 48L34 47L35 47L35 46L38 46L38 45L37 45L37 44L38 44L38 43L39 43L39 44L40 44L40 43L39 43L39 42L38 42L38 41L39 41L39 40L38 40L38 39L40 39L40 40L41 40L41 41L42 41L42 42L41 42L41 44L43 44L43 43L44 43L44 44L45 44L45 47L44 47L44 45L42 45L42 46L40 46L40 48L39 48L39 49L40 49L40 48L41 48L41 49L42 49L42 50L41 50L41 51L40 51L40 52L41 52L41 51L42 51L42 50L43 50L43 48L46 48L46 49L45 49L45 50L46 50L46 49L47 49L47 48L46 48L46 47L47 47L47 46L48 46L48 45L47 45L47 44L51 44L51 43L50 43L50 42L51 42L51 41L49 41L49 40L48 40L48 41L47 41L47 40L46 40L46 38L45 38L45 37L44 37L44 35L42 35L42 37L41 37L41 38L42 38L42 39L43 39L43 40L41 40L41 39L40 39L40 38L38 38L38 35L39 35L39 34L36 34L36 33L37 33L37 32L38 32L38 31L37 31L37 32L36 32L36 29L37 29L37 30L38 30L38 29L37 29L37 28L36 28L36 27L37 27L37 26L38 26L38 27L41 27L41 26L42 26L42 28L43 28L43 29L42 29L42 30L41 30L41 29L39 29L39 31L40 31L40 32L39 32L39 33L40 33L40 32L41 32L41 31L42 31L42 33L41 33L41 34L44 34L44 33L43 33L43 32L48 32L48 31L47 31L47 30L46 30L46 29L47 29L47 28L46 28L46 27L47 27L47 26L46 26L46 27L44 27L44 26L45 26L45 25L47 25L47 24L45 24L45 25L44 25L44 23L46 23L46 22L45 22L45 21L44 21L44 23L43 23L43 20L46 20L46 19L47 19L47 18L46 18L46 15L49 15L49 13L50 13L50 11L48 11L48 12L49 12L49 13L47 13L47 14L46 14L46 12L45 12L45 10L43 10L43 9L42 9L42 7L43 7L43 6L42 6L42 7L41 7L41 10L40 10L40 9L39 9L39 8L35 8L35 6L36 6L36 7L37 7L37 6L36 6L36 5L34 5L34 4ZM42 4L42 5L43 5L43 4ZM44 4L44 5L46 5L46 4ZM27 5L27 8L30 8L30 5ZM14 6L14 8L15 8L15 6ZM20 6L20 7L21 7L21 6ZM22 6L22 8L24 8L24 7L25 7L25 6L24 6L24 7L23 7L23 6ZM28 6L28 7L29 7L29 6ZM44 6L44 8L45 8L45 6ZM51 8L51 9L52 9L52 8ZM53 8L53 9L54 9L54 8ZM19 9L19 10L20 10L20 9ZM32 9L32 10L33 10L33 9ZM36 9L36 10L37 10L37 11L36 11L36 12L37 12L37 11L39 11L39 12L38 12L38 13L37 13L37 14L35 14L35 13L33 13L33 14L32 14L32 13L31 13L31 14L32 14L32 15L33 15L33 14L35 14L35 15L34 15L34 16L30 16L30 13L29 13L29 12L28 12L28 13L25 13L25 12L23 12L23 10L22 10L22 11L21 11L21 12L22 12L22 13L19 13L19 14L20 14L20 15L18 15L18 13L16 13L16 15L15 15L15 16L14 16L14 17L13 17L13 16L11 16L11 17L13 17L13 18L14 18L14 17L16 17L16 18L17 18L17 19L18 19L18 20L19 20L19 21L21 21L21 24L19 24L19 25L20 25L20 26L19 26L19 27L20 27L20 28L21 28L21 29L19 29L19 30L17 30L17 29L18 29L18 28L17 28L17 29L16 29L16 30L17 30L17 31L16 31L16 32L18 32L18 31L20 31L20 32L19 32L19 33L16 33L16 35L17 35L17 34L19 34L19 35L20 35L20 34L21 34L21 33L22 33L22 34L23 34L23 32L24 32L24 31L25 31L25 34L26 34L26 33L27 33L27 32L29 32L29 31L25 31L25 30L26 30L26 27L23 27L23 29L22 29L22 28L21 28L21 27L22 27L22 26L23 26L23 25L24 25L24 23L23 23L23 24L22 24L22 21L23 21L23 22L24 22L24 21L23 21L23 19L24 19L24 18L23 18L23 17L24 17L24 15L23 15L23 13L25 13L25 15L26 15L26 16L25 16L25 18L26 18L26 20L25 20L25 22L26 22L26 23L25 23L25 24L26 24L26 25L25 25L25 26L26 26L26 25L30 25L30 24L27 24L27 23L31 23L31 25L32 25L32 26L33 26L33 27L32 27L32 30L35 30L35 29L33 29L33 28L34 28L34 26L36 26L36 24L37 24L37 25L38 25L38 26L41 26L41 25L42 25L42 24L43 24L43 23L41 23L41 22L40 22L40 24L39 24L39 25L38 25L38 23L36 23L36 22L37 22L37 21L38 21L38 22L39 22L39 21L38 21L38 20L40 20L40 21L41 21L41 20L42 20L42 19L44 19L44 18L45 18L45 19L46 19L46 18L45 18L45 16L43 16L43 18L42 18L42 17L41 17L41 16L42 16L42 15L45 15L45 14L44 14L44 13L45 13L45 12L44 12L44 13L43 13L43 14L42 14L42 11L43 11L43 10L42 10L42 11L39 11L39 9L38 9L38 10L37 10L37 9ZM46 10L46 11L47 11L47 10ZM13 11L13 12L14 12L14 11ZM34 11L34 12L35 12L35 11ZM13 13L13 14L14 14L14 13ZM28 13L28 14L26 14L26 15L29 15L29 13ZM51 13L51 14L52 14L52 13ZM7 14L7 15L8 15L8 14ZM21 14L21 15L20 15L20 17L21 17L21 18L20 18L20 19L23 19L23 18L22 18L22 17L21 17L21 16L22 16L22 14ZM37 14L37 16L35 16L35 17L40 17L40 16L41 16L41 15L42 15L42 14L41 14L41 15L40 15L40 14ZM16 15L16 17L19 17L19 16L17 16L17 15ZM38 15L38 16L40 16L40 15ZM26 16L26 17L28 17L28 16ZM29 17L29 18L31 18L31 19L30 19L30 20L29 20L29 21L27 21L27 22L31 22L31 23L32 23L32 24L33 24L33 21L32 21L32 20L34 20L34 21L35 21L35 20L34 20L34 19L35 19L35 18L33 18L33 19L32 19L32 17ZM18 18L18 19L19 19L19 18ZM27 18L27 20L28 20L28 18ZM36 18L36 19L40 19L40 20L41 20L41 19L42 19L42 18ZM6 19L6 20L8 20L8 21L10 21L10 22L11 22L11 23L12 23L12 21L10 21L10 20L8 20L8 19ZM12 19L12 20L14 20L14 19ZM21 20L21 21L22 21L22 20ZM36 20L36 21L37 21L37 20ZM35 23L35 24L34 24L34 25L33 25L33 26L34 26L34 25L35 25L35 24L36 24L36 23ZM49 24L49 25L50 25L50 24ZM43 25L43 26L44 26L44 25ZM54 25L54 26L55 26L55 25ZM5 27L5 30L8 30L8 27ZM27 27L27 30L30 30L30 27ZM49 27L49 30L52 30L52 27ZM6 28L6 29L7 29L7 28ZM28 28L28 29L29 29L29 28ZM44 28L44 29L45 29L45 28ZM50 28L50 29L51 29L51 28ZM54 28L54 29L53 29L53 30L56 30L56 28ZM21 29L21 30L20 30L20 31L22 31L22 29ZM23 29L23 30L25 30L25 29ZM3 30L3 31L4 31L4 32L5 32L5 33L6 33L6 34L7 34L7 33L6 33L6 32L7 32L7 31L6 31L6 32L5 32L5 31L4 31L4 30ZM42 30L42 31L44 31L44 30ZM45 30L45 31L46 31L46 30ZM0 31L0 32L1 32L1 31ZM34 31L34 32L35 32L35 33L33 33L33 32L32 32L32 33L33 33L33 34L35 34L35 33L36 33L36 32L35 32L35 31ZM12 32L12 33L13 33L13 34L14 34L14 32ZM20 32L20 33L21 33L21 32ZM51 32L51 33L50 33L50 34L51 34L51 33L54 33L54 32ZM9 33L9 34L10 34L10 35L11 35L11 33ZM47 33L47 34L45 34L45 36L46 36L46 37L47 37L47 36L48 36L48 33ZM29 34L29 35L30 35L30 36L31 36L31 38L32 38L32 35L30 35L30 34ZM22 35L22 37L24 37L24 36L23 36L23 35ZM40 35L40 36L39 36L39 37L40 37L40 36L41 36L41 35ZM46 35L46 36L47 36L47 35ZM0 37L0 38L1 38L1 37ZM36 37L36 38L37 38L37 39L38 39L38 38L37 38L37 37ZM43 37L43 39L45 39L45 38L44 38L44 37ZM14 39L14 40L12 40L12 41L13 41L13 42L14 42L14 40L15 40L15 41L16 41L16 40L15 40L15 39ZM27 39L27 40L28 40L28 39ZM31 39L31 40L33 40L33 39ZM20 40L20 41L19 41L19 42L20 42L20 43L19 43L19 44L20 44L20 45L22 45L22 44L20 44L20 43L22 43L22 42L20 42L20 41L22 41L22 40ZM37 40L37 41L38 41L38 40ZM44 40L44 41L43 41L43 42L42 42L42 43L43 43L43 42L44 42L44 43L46 43L46 42L47 42L47 43L49 43L49 42L47 42L47 41L46 41L46 42L45 42L45 40ZM26 42L26 43L27 43L27 42ZM29 43L29 44L28 44L28 45L29 45L29 44L30 44L30 43ZM1 44L1 46L0 46L0 48L5 48L5 47L7 47L7 46L5 46L5 45L7 45L7 44L5 44L5 45L4 45L4 44ZM9 44L9 45L10 45L10 44ZM25 44L25 45L23 45L23 46L24 46L24 47L25 47L25 45L26 45L26 44ZM2 45L2 46L1 46L1 47L2 47L2 46L3 46L3 47L5 47L5 46L4 46L4 45ZM46 45L46 46L47 46L47 45ZM50 45L50 46L51 46L51 45ZM42 46L42 47L41 47L41 48L42 48L42 47L43 47L43 46ZM13 47L13 49L14 49L14 47ZM6 48L6 49L8 49L8 51L9 51L9 52L8 52L8 57L9 57L9 56L11 56L11 57L12 57L12 56L11 56L11 55L9 55L9 53L10 53L10 51L9 51L9 49L10 49L10 48L9 48L9 49L8 49L8 48ZM21 49L21 50L22 50L22 49ZM27 49L27 52L30 52L30 49ZM32 49L32 50L33 50L33 51L32 51L32 52L33 52L33 51L35 51L35 50L33 50L33 49ZM49 49L49 52L52 52L52 49ZM28 50L28 51L29 51L29 50ZM50 50L50 51L51 51L51 50ZM53 50L53 51L54 51L54 50ZM14 51L14 52L16 52L16 51ZM56 51L56 52L57 52L57 51ZM17 52L17 53L19 53L19 52ZM15 53L15 54L16 54L16 53ZM29 53L29 54L30 54L30 53ZM41 53L41 54L43 54L43 53ZM25 55L25 56L26 56L26 55ZM0 0L0 7L7 7L7 0ZM1 1L1 6L6 6L6 1ZM2 2L2 5L5 5L5 2ZM50 0L50 7L57 7L57 0ZM51 1L51 6L56 6L56 1ZM52 2L52 5L55 5L55 2ZM0 50L0 57L7 57L7 50ZM1 51L1 56L6 56L6 51ZM2 52L2 55L5 55L5 52Z" fill="#000000"/></g></g></svg>
