<?xml version="1.0" encoding="UTF-8"?>
<svg xmlns="http://www.w3.org/2000/svg" version="1.1" width="300" height="300" viewBox="0 0 300 300"><rect x="0" y="0" width="300" height="300" fill="#ffffff"/><g transform="scale(4.918)"><g transform="translate(2,2)"><path fill-rule="evenodd" d="M11 0L11 1L10 1L10 3L11 3L11 1L12 1L12 0ZM14 0L14 1L15 1L15 2L14 2L14 3L12 3L12 4L10 4L10 5L8 5L8 7L9 7L9 8L6 8L6 9L8 9L8 10L10 10L10 11L8 11L8 12L6 12L6 11L7 11L7 10L6 10L6 11L5 11L5 13L4 13L4 14L5 14L5 15L3 15L3 13L2 13L2 11L1 11L1 12L0 12L0 15L2 15L2 16L3 16L3 19L2 19L2 17L1 17L1 16L0 16L0 18L1 18L1 19L0 19L0 22L1 22L1 23L0 23L0 24L1 24L1 23L3 23L3 21L7 21L7 22L6 22L6 23L5 23L5 24L2 24L2 25L0 25L0 26L2 26L2 25L4 25L4 28L3 28L3 34L4 34L4 35L3 35L3 36L2 36L2 38L4 38L4 39L3 39L3 40L2 40L2 41L0 41L0 42L2 42L2 43L0 43L0 45L1 45L1 44L2 44L2 45L3 45L3 41L4 41L4 45L5 45L5 47L3 47L3 46L2 46L2 47L1 47L1 46L0 46L0 48L5 48L5 47L7 47L7 46L6 46L6 45L7 45L7 44L8 44L8 45L9 45L9 47L8 47L8 48L6 48L6 49L8 49L8 51L9 51L9 50L10 50L10 48L11 48L11 51L12 51L12 52L8 52L8 57L10 57L10 56L9 56L9 55L10 55L10 54L11 54L11 55L12 55L12 57L13 57L13 55L14 55L14 56L15 56L15 57L16 57L16 55L14 55L14 53L15 53L15 54L16 54L16 53L15 53L15 52L16 52L16 51L17 51L17 52L18 52L18 53L17 53L17 57L19 57L19 56L20 56L20 57L21 57L21 55L22 55L22 56L23 56L23 57L26 57L26 56L25 56L25 55L27 55L27 56L28 56L28 55L27 55L27 53L28 53L28 54L29 54L29 55L30 55L30 57L31 57L31 55L32 55L32 56L33 56L33 54L34 54L34 56L36 56L36 57L38 57L38 56L36 56L36 55L38 55L38 53L39 53L39 55L40 55L40 56L41 56L41 57L44 57L44 56L45 56L45 57L47 57L47 56L45 56L45 55L42 55L42 54L43 54L43 53L44 53L44 54L45 54L45 53L44 53L44 51L42 51L42 50L43 50L43 48L45 48L45 47L47 47L47 46L46 46L46 45L47 45L47 44L48 44L48 43L49 43L49 44L50 44L50 45L51 45L51 47L50 47L50 46L49 46L49 45L48 45L48 46L49 46L49 47L50 47L50 48L48 48L48 51L47 51L47 50L46 50L46 49L44 49L44 50L46 50L46 51L45 51L45 52L48 52L48 53L47 53L47 55L49 55L49 53L50 53L50 55L51 55L51 56L50 56L50 57L52 57L52 56L55 56L55 57L56 57L56 56L55 56L55 54L54 54L54 52L55 52L55 50L57 50L57 49L54 49L54 48L57 48L57 47L56 47L56 46L57 46L57 45L56 45L56 44L57 44L57 43L56 43L56 44L55 44L55 42L57 42L57 41L55 41L55 39L57 39L57 37L54 37L54 36L56 36L56 35L55 35L55 34L57 34L57 32L56 32L56 30L57 30L57 29L56 29L56 30L55 30L55 29L54 29L54 28L57 28L57 27L53 27L53 26L52 26L52 25L51 25L51 26L49 26L49 25L50 25L50 23L51 23L51 24L54 24L54 26L57 26L57 25L56 25L56 24L57 24L57 23L56 23L56 22L57 22L57 21L55 21L55 22L54 22L54 21L51 21L51 22L50 22L50 19L49 19L49 20L48 20L48 21L47 21L47 23L46 23L46 22L45 22L45 21L44 21L44 23L42 23L42 22L43 22L43 21L42 21L42 22L41 22L41 21L40 21L40 20L42 20L42 18L44 18L44 17L42 17L42 16L45 16L45 15L49 15L49 16L50 16L50 17L47 17L47 16L46 16L46 17L45 17L45 18L46 18L46 19L47 19L47 18L50 18L50 17L52 17L52 16L55 16L55 18L57 18L57 17L56 17L56 16L57 16L57 15L56 15L56 14L57 14L57 13L56 13L56 14L55 14L55 13L53 13L53 14L55 14L55 15L52 15L52 16L50 16L50 15L51 15L51 14L52 14L52 13L51 13L51 14L50 14L50 15L49 15L49 13L50 13L50 11L51 11L51 10L49 10L49 9L50 9L50 8L49 8L49 6L48 6L48 7L47 7L47 5L48 5L48 0L39 0L39 1L36 1L36 0L35 0L35 1L34 1L34 0L32 0L32 1L34 1L34 4L35 4L35 1L36 1L36 2L37 2L37 3L36 3L36 5L35 5L35 6L34 6L34 5L33 5L33 6L32 6L32 7L31 7L31 4L32 4L32 3L33 3L33 2L30 2L30 3L29 3L29 1L31 1L31 0L29 0L29 1L27 1L27 2L25 2L25 1L26 1L26 0L24 0L24 1L23 1L23 0L21 0L21 2L19 2L19 1L18 1L18 2L17 2L17 1L16 1L16 0ZM8 1L8 2L9 2L9 1ZM22 1L22 4L21 4L21 3L20 3L20 4L18 4L18 3L16 3L16 4L15 4L15 3L14 3L14 4L15 4L15 5L16 5L16 4L18 4L18 5L20 5L20 6L19 6L19 8L21 8L21 9L20 9L20 10L19 10L19 9L15 9L15 8L16 8L16 6L15 6L15 8L14 8L14 10L13 10L13 11L12 11L12 12L8 12L8 13L5 13L5 14L7 14L7 15L6 15L6 16L7 16L7 15L8 15L8 16L10 16L10 15L11 15L11 13L12 13L12 12L13 12L13 13L14 13L14 14L12 14L12 15L13 15L13 16L12 16L12 21L11 21L11 19L10 19L10 17L4 17L4 19L3 19L3 20L4 20L4 19L5 19L5 18L7 18L7 19L6 19L6 20L9 20L9 21L8 21L8 22L7 22L7 23L6 23L6 24L7 24L7 25L5 25L5 26L7 26L7 25L8 25L8 24L7 24L7 23L9 23L9 24L10 24L10 25L9 25L9 27L11 27L11 28L9 28L9 30L10 30L10 29L11 29L11 31L10 31L10 32L11 32L11 31L12 31L12 33L13 33L13 34L14 34L14 35L13 35L13 36L12 36L12 37L11 37L11 36L10 36L10 35L6 35L6 34L7 34L7 33L6 33L6 34L5 34L5 33L4 33L4 34L5 34L5 35L4 35L4 36L3 36L3 37L4 37L4 38L5 38L5 37L4 37L4 36L5 36L5 35L6 35L6 36L7 36L7 37L6 37L6 38L7 38L7 37L8 37L8 39L4 39L4 41L5 41L5 42L7 42L7 41L5 41L5 40L8 40L8 41L9 41L9 42L10 42L10 43L9 43L9 44L11 44L11 46L10 46L10 47L12 47L12 45L13 45L13 48L12 48L12 49L13 49L13 50L15 50L15 51L16 51L16 50L17 50L17 51L18 51L18 52L19 52L19 53L18 53L18 54L19 54L19 55L18 55L18 56L19 56L19 55L20 55L20 54L19 54L19 53L21 53L21 54L22 54L22 55L23 55L23 56L24 56L24 55L23 55L23 54L24 54L24 53L23 53L23 52L24 52L24 51L25 51L25 52L26 52L26 51L25 51L25 50L23 50L23 49L24 49L24 48L21 48L21 46L22 46L22 47L24 47L24 45L25 45L25 48L26 48L26 46L28 46L28 47L29 47L29 48L31 48L31 52L32 52L32 54L33 54L33 52L32 52L32 51L34 51L34 54L35 54L35 55L36 55L36 54L37 54L37 53L36 53L36 54L35 54L35 52L36 52L36 51L34 51L34 50L36 50L36 49L34 49L34 50L32 50L32 49L33 49L33 48L37 48L37 49L38 49L38 50L37 50L37 52L40 52L40 55L41 55L41 56L42 56L42 55L41 55L41 54L42 54L42 51L41 51L41 50L42 50L42 49L41 49L41 48L39 48L39 46L42 46L42 47L45 47L45 43L48 43L48 42L47 42L47 41L48 41L48 40L49 40L49 41L51 41L51 42L50 42L50 43L51 43L51 45L52 45L52 47L51 47L51 48L54 48L54 47L53 47L53 46L56 46L56 45L55 45L55 44L54 44L54 45L52 45L52 44L53 44L53 43L54 43L54 40L53 40L53 41L52 41L52 40L49 40L49 39L51 39L51 38L53 38L53 36L52 36L52 34L54 34L54 33L56 33L56 32L54 32L54 31L52 31L52 32L54 32L54 33L51 33L51 32L49 32L49 31L48 31L48 28L47 28L47 27L46 27L46 26L48 26L48 25L49 25L49 23L50 23L50 22L49 22L49 23L48 23L48 25L47 25L47 24L45 24L45 23L44 23L44 26L43 26L43 28L42 28L42 27L41 27L41 26L40 26L40 27L39 27L39 25L41 25L41 24L40 24L40 23L41 23L41 22L40 22L40 23L39 23L39 25L38 25L38 24L37 24L37 23L36 23L36 22L37 22L37 21L36 21L36 20L40 20L40 19L34 19L34 18L35 18L35 17L36 17L36 16L40 16L40 17L37 17L37 18L42 18L42 17L41 17L41 16L42 16L42 15L43 15L43 14L42 14L42 11L43 11L43 10L45 10L45 11L44 11L44 13L45 13L45 12L46 12L46 14L47 14L47 13L49 13L49 12L47 12L47 11L46 11L46 10L48 10L48 11L49 11L49 10L48 10L48 9L49 9L49 8L48 8L48 9L46 9L46 8L47 8L47 7L46 7L46 5L47 5L47 3L43 3L43 1L39 1L39 2L38 2L38 3L39 3L39 2L41 2L41 3L40 3L40 5L41 5L41 7L40 7L40 6L39 6L39 7L38 7L38 6L37 6L37 5L39 5L39 4L37 4L37 5L36 5L36 6L35 6L35 7L36 7L36 6L37 6L37 7L38 7L38 8L37 8L37 9L36 9L36 10L35 10L35 8L34 8L34 10L32 10L32 11L34 11L34 12L35 12L35 13L33 13L33 12L32 12L32 13L31 13L31 14L30 14L30 13L29 13L29 12L28 12L28 13L25 13L25 12L27 12L27 11L26 11L26 10L27 10L27 9L26 9L26 6L25 6L25 4L26 4L26 3L25 3L25 2L23 2L23 1ZM44 1L44 2L47 2L47 1ZM8 3L8 4L9 4L9 3ZM24 3L24 4L22 4L22 7L21 7L21 6L20 6L20 7L21 7L21 8L22 8L22 7L23 7L23 8L24 8L24 9L21 9L21 11L22 11L22 10L24 10L24 11L23 11L23 13L24 13L24 14L25 14L25 15L24 15L24 17L23 17L23 18L22 18L22 17L21 17L21 16L22 16L22 14L21 14L21 16L20 16L20 17L21 17L21 18L20 18L20 19L23 19L23 21L22 21L22 20L21 20L21 21L19 21L19 20L17 20L17 21L19 21L19 22L20 22L20 23L19 23L19 24L18 24L18 25L19 25L19 26L18 26L18 27L17 27L17 26L16 26L16 27L17 27L17 28L15 28L15 27L12 27L12 28L11 28L11 29L12 29L12 31L13 31L13 29L12 29L12 28L14 28L14 31L15 31L15 35L14 35L14 36L15 36L15 37L14 37L14 38L15 38L15 39L13 39L13 37L12 37L12 39L11 39L11 37L10 37L10 40L9 40L9 41L10 41L10 40L11 40L11 41L13 41L13 40L15 40L15 41L17 41L17 43L15 43L15 42L11 42L11 44L12 44L12 43L13 43L13 45L15 45L15 47L14 47L14 48L15 48L15 49L17 49L17 50L18 50L18 51L19 51L19 52L21 52L21 53L22 53L22 54L23 54L23 53L22 53L22 52L21 52L21 51L22 51L22 49L21 49L21 50L20 50L20 49L19 49L19 46L20 46L20 45L22 45L22 44L20 44L20 45L18 45L18 44L17 44L17 43L18 43L18 41L19 41L19 42L20 42L20 43L22 43L22 41L21 41L21 42L20 42L20 40L18 40L18 39L17 39L17 37L20 37L20 36L24 36L24 37L21 37L21 40L22 40L22 38L24 38L24 37L25 37L25 36L24 36L24 34L25 34L25 35L26 35L26 36L27 36L27 37L26 37L26 39L25 39L25 41L24 41L24 43L23 43L23 45L24 45L24 43L25 43L25 42L26 42L26 43L27 43L27 45L30 45L30 46L29 46L29 47L31 47L31 48L33 48L33 47L35 47L35 46L33 46L33 45L32 45L32 44L34 44L34 43L35 43L35 44L36 44L36 46L38 46L38 45L39 45L39 44L43 44L43 45L42 45L42 46L44 46L44 44L43 44L43 43L44 43L44 42L45 42L45 41L46 41L46 40L45 40L45 39L46 39L46 38L45 38L45 37L44 37L44 35L43 35L43 36L41 36L41 35L42 35L42 34L45 34L45 36L46 36L46 37L47 37L47 36L48 36L48 38L47 38L47 39L49 39L49 36L50 36L50 38L51 38L51 37L52 37L52 36L51 36L51 35L49 35L49 36L48 36L48 33L47 33L47 34L45 34L45 33L44 33L44 32L46 32L46 31L47 31L47 32L48 32L48 31L47 31L47 30L46 30L46 29L47 29L47 28L46 28L46 27L44 27L44 28L43 28L43 29L42 29L42 30L41 30L41 29L39 29L39 30L41 30L41 31L40 31L40 32L36 32L36 31L37 31L37 30L38 30L38 27L36 27L36 26L38 26L38 25L37 25L37 24L36 24L36 23L35 23L35 22L33 22L33 21L34 21L34 20L33 20L33 19L32 19L32 18L34 18L34 16L33 16L33 15L35 15L35 16L36 16L36 14L37 14L37 15L40 15L40 16L41 16L41 15L42 15L42 14L41 14L41 13L40 13L40 14L37 14L37 13L38 13L38 12L40 12L40 9L39 9L39 8L38 8L38 9L37 9L37 10L36 10L36 11L37 11L37 12L36 12L36 14L33 14L33 13L32 13L32 15L30 15L30 16L33 16L33 17L29 17L29 18L31 18L31 19L28 19L28 18L27 18L27 17L28 17L28 16L26 16L26 14L25 14L25 13L24 13L24 11L25 11L25 8L24 8L24 7L25 7L25 6L24 6L24 7L23 7L23 5L24 5L24 4L25 4L25 3ZM27 3L27 4L29 4L29 3ZM42 3L42 4L41 4L41 5L43 5L43 3ZM12 4L12 6L11 6L11 7L10 7L10 6L9 6L9 7L10 7L10 8L9 8L9 9L10 9L10 8L11 8L11 10L12 10L12 9L13 9L13 7L14 7L14 6L13 6L13 4ZM44 4L44 5L46 5L46 4ZM27 5L27 8L30 8L30 5ZM12 6L12 7L11 7L11 8L12 8L12 7L13 7L13 6ZM17 6L17 7L18 7L18 6ZM28 6L28 7L29 7L29 6ZM33 6L33 7L34 7L34 6ZM42 6L42 7L41 7L41 11L42 11L42 10L43 10L43 9L42 9L42 7L43 7L43 6ZM44 6L44 8L46 8L46 7L45 7L45 6ZM0 8L0 10L1 10L1 9L3 9L3 10L5 10L5 8ZM31 8L31 9L33 9L33 8ZM51 8L51 9L52 9L52 8ZM53 8L53 9L54 9L54 8ZM55 8L55 9L56 9L56 10L55 10L55 11L54 11L54 10L53 10L53 11L52 11L52 12L53 12L53 11L54 11L54 12L56 12L56 10L57 10L57 9L56 9L56 8ZM28 9L28 11L29 11L29 9ZM38 9L38 10L37 10L37 11L38 11L38 10L39 10L39 9ZM16 10L16 12L15 12L15 14L14 14L14 15L16 15L16 17L14 17L14 16L13 16L13 19L14 19L14 20L13 20L13 21L15 21L15 22L16 22L16 21L15 21L15 20L16 20L16 19L17 19L17 18L16 18L16 17L19 17L19 16L17 16L17 15L16 15L16 13L18 13L18 15L20 15L20 13L22 13L22 12L20 12L20 11L19 11L19 12L20 12L20 13L18 13L18 12L17 12L17 11L18 11L18 10ZM34 10L34 11L35 11L35 10ZM3 11L3 12L4 12L4 11ZM13 11L13 12L14 12L14 11ZM30 11L30 12L31 12L31 11ZM28 13L28 14L27 14L27 15L29 15L29 13ZM8 14L8 15L9 15L9 14ZM40 14L40 15L41 15L41 14ZM25 16L25 19L26 19L26 20L25 20L25 22L26 22L26 23L25 23L25 24L24 24L24 23L23 23L23 22L24 22L24 21L23 21L23 22L22 22L22 21L21 21L21 22L22 22L22 23L23 23L23 24L21 24L21 25L20 25L20 24L19 24L19 25L20 25L20 27L19 27L19 28L20 28L20 27L22 27L22 26L23 26L23 25L25 25L25 26L24 26L24 29L22 29L22 28L21 28L21 29L19 29L19 30L17 30L17 29L18 29L18 28L17 28L17 29L16 29L16 30L17 30L17 31L16 31L16 32L18 32L18 31L19 31L19 30L20 30L20 32L19 32L19 33L16 33L16 35L17 35L17 36L16 36L16 37L15 37L15 38L16 38L16 37L17 37L17 36L19 36L19 35L20 35L20 34L21 34L21 33L22 33L22 35L23 35L23 32L25 32L25 34L26 34L26 35L27 35L27 36L28 36L28 37L27 37L27 38L28 38L28 37L29 37L29 34L32 34L32 38L31 38L31 35L30 35L30 38L31 38L31 39L29 39L29 40L28 40L28 39L26 39L26 40L28 40L28 41L26 41L26 42L27 42L27 43L28 43L28 42L29 42L29 43L30 43L30 44L31 44L31 43L32 43L32 42L31 42L31 41L29 41L29 40L32 40L32 41L33 41L33 42L35 42L35 41L33 41L33 39L34 39L34 38L36 38L36 36L37 36L37 37L38 37L38 38L37 38L37 39L35 39L35 40L37 40L37 39L38 39L38 40L39 40L39 41L38 41L38 42L37 42L37 43L36 43L36 44L37 44L37 45L38 45L38 44L39 44L39 43L43 43L43 42L39 42L39 41L42 41L42 40L39 40L39 38L40 38L40 39L41 39L41 38L42 38L42 39L43 39L43 40L44 40L44 41L45 41L45 40L44 40L44 39L45 39L45 38L44 38L44 37L43 37L43 38L42 38L42 37L41 37L41 36L40 36L40 35L41 35L41 34L42 34L42 33L43 33L43 32L44 32L44 31L46 31L46 30L42 30L42 31L41 31L41 32L40 32L40 34L39 34L39 33L36 33L36 32L35 32L35 31L33 31L33 30L36 30L36 29L33 29L33 28L34 28L34 27L35 27L35 26L36 26L36 24L35 24L35 23L33 23L33 24L32 24L32 25L31 25L31 24L30 24L30 23L31 23L31 22L30 22L30 21L31 21L31 20L27 20L27 18L26 18L26 16ZM46 17L46 18L47 18L47 17ZM53 17L53 18L54 18L54 17ZM8 18L8 19L9 19L9 20L10 20L10 19L9 19L9 18ZM18 18L18 19L19 19L19 18ZM23 18L23 19L24 19L24 18ZM51 18L51 20L55 20L55 19L52 19L52 18ZM43 19L43 20L45 20L45 19ZM56 19L56 20L57 20L57 19ZM26 20L26 21L27 21L27 23L28 23L28 24L27 24L27 25L26 25L26 24L25 24L25 25L26 25L26 26L25 26L25 27L26 27L26 30L25 30L25 29L24 29L24 31L27 31L27 32L26 32L26 33L29 33L29 32L30 32L30 33L31 33L31 32L33 32L33 31L32 31L32 30L33 30L33 29L32 29L32 27L34 27L34 26L31 26L31 25L29 25L29 26L27 26L27 25L28 25L28 24L29 24L29 23L30 23L30 22L28 22L28 21L27 21L27 20ZM32 20L32 21L33 21L33 20ZM1 21L1 22L2 22L2 21ZM9 21L9 23L10 23L10 21ZM38 21L38 22L39 22L39 21ZM13 22L13 23L12 23L12 24L11 24L11 25L10 25L10 26L13 26L13 25L12 25L12 24L13 24L13 23L14 23L14 22ZM52 22L52 23L54 23L54 22ZM15 23L15 24L14 24L14 25L16 25L16 23ZM55 23L55 24L56 24L56 23ZM42 24L42 25L43 25L43 24ZM45 25L45 26L46 26L46 25ZM1 27L1 29L0 29L0 31L1 31L1 33L2 33L2 31L1 31L1 30L2 30L2 27ZM5 27L5 30L8 30L8 27ZM27 27L27 30L30 30L30 27ZM40 27L40 28L41 28L41 27ZM49 27L49 30L52 30L52 27ZM6 28L6 29L7 29L7 28ZM28 28L28 29L29 29L29 28ZM44 28L44 29L45 29L45 28ZM50 28L50 29L51 29L51 28ZM21 29L21 31L22 31L22 29ZM31 29L31 30L32 30L32 29ZM53 29L53 30L54 30L54 29ZM6 31L6 32L8 32L8 34L9 34L9 32L8 32L8 31ZM28 31L28 32L29 32L29 31ZM42 31L42 32L41 32L41 33L42 33L42 32L43 32L43 31ZM20 32L20 33L21 33L21 32ZM10 33L10 34L11 34L11 35L12 35L12 34L11 34L11 33ZM50 33L50 34L51 34L51 33ZM17 34L17 35L19 35L19 34ZM33 34L33 35L35 35L35 34ZM36 34L36 35L37 35L37 36L38 36L38 35L39 35L39 34ZM0 35L0 40L1 40L1 35ZM46 35L46 36L47 36L47 35ZM33 36L33 37L35 37L35 36ZM39 36L39 37L40 37L40 36ZM19 38L19 39L20 39L20 38ZM54 38L54 39L55 39L55 38ZM12 39L12 40L13 40L13 39ZM15 39L15 40L16 40L16 39ZM23 39L23 40L24 40L24 39ZM30 42L30 43L31 43L31 42ZM38 42L38 43L37 43L37 44L38 44L38 43L39 43L39 42ZM5 43L5 44L7 44L7 43ZM14 43L14 44L15 44L15 43ZM25 44L25 45L26 45L26 44ZM16 45L16 46L17 46L17 47L16 47L16 48L17 48L17 47L18 47L18 45ZM31 46L31 47L33 47L33 46ZM37 47L37 48L38 48L38 47ZM8 48L8 49L9 49L9 48ZM18 49L18 50L19 50L19 49ZM27 49L27 52L30 52L30 49ZM40 49L40 50L38 50L38 51L40 51L40 52L41 52L41 51L40 51L40 50L41 50L41 49ZM49 49L49 52L52 52L52 49ZM28 50L28 51L29 51L29 50ZM50 50L50 51L51 51L51 50ZM53 50L53 51L54 51L54 50ZM56 51L56 52L57 52L57 51ZM13 52L13 53L12 53L12 55L13 55L13 53L14 53L14 52ZM9 53L9 54L10 54L10 53ZM25 53L25 54L26 54L26 53ZM30 53L30 54L31 54L31 53ZM51 54L51 55L53 55L53 54ZM48 56L48 57L49 57L49 56ZM0 0L0 7L7 7L7 0ZM1 1L1 6L6 6L6 1ZM2 2L2 5L5 5L5 2ZM50 0L50 7L57 7L57 0ZM51 1L51 6L56 6L56 1ZM52 2L52 5L55 5L55 2ZM0 50L0 57L7 57L7 50ZM1 51L1 56L6 56L6 51ZM2 52L2 55L5 55L5 52Z" fill="#000000"/></g></g></svg>
