<?xml version="1.0" encoding="UTF-8"?>
<svg xmlns="http://www.w3.org/2000/svg" version="1.1" width="300" height="300" viewBox="0 0 300 300"><rect x="0" y="0" width="300" height="300" fill="#ffffff"/><g transform="scale(4.918)"><g transform="translate(2,2)"><path fill-rule="evenodd" d="M14 0L14 1L15 1L15 2L14 2L14 3L17 3L17 2L19 2L19 3L18 3L18 4L17 4L17 6L16 6L16 7L15 7L15 5L16 5L16 4L14 4L14 7L13 7L13 5L11 5L11 4L9 4L9 3L10 3L10 1L8 1L8 2L9 2L9 3L8 3L8 4L9 4L9 5L8 5L8 7L9 7L9 8L6 8L6 9L5 9L5 8L0 8L0 12L1 12L1 11L2 11L2 12L3 12L3 13L0 13L0 14L6 14L6 15L4 15L4 16L6 16L6 17L8 17L8 18L6 18L6 19L5 19L5 18L3 18L3 21L2 21L2 20L1 20L1 19L0 19L0 23L1 23L1 25L2 25L2 27L0 27L0 32L2 32L2 31L1 31L1 29L2 29L2 30L3 30L3 29L4 29L4 31L3 31L3 35L4 35L4 31L7 31L7 32L6 32L6 33L7 33L7 34L5 34L5 35L7 35L7 36L6 36L6 37L7 37L7 36L8 36L8 37L9 37L9 39L8 39L8 40L9 40L9 41L7 41L7 40L6 40L6 41L7 41L7 42L5 42L5 43L4 43L4 42L3 42L3 41L2 41L2 42L1 42L1 44L0 44L0 48L5 48L5 47L7 47L7 48L6 48L6 49L7 49L7 48L9 48L9 49L8 49L8 51L9 51L9 52L8 52L8 57L9 57L9 56L10 56L10 57L11 57L11 56L13 56L13 57L22 57L22 56L24 56L24 57L26 57L26 56L28 56L28 55L27 55L27 53L28 53L28 54L29 54L29 55L30 55L30 56L29 56L29 57L30 57L30 56L31 56L31 57L32 57L32 56L33 56L33 57L38 57L38 53L37 53L37 52L38 52L38 51L40 51L40 52L39 52L39 55L40 55L40 52L42 52L42 51L40 51L40 50L37 50L37 49L40 49L40 48L41 48L41 50L43 50L43 53L41 53L41 57L44 57L44 55L43 55L43 53L44 53L44 54L45 54L45 56L47 56L47 55L50 55L50 53L51 53L51 54L53 54L53 52L55 52L55 51L53 51L53 50L54 50L54 48L55 48L55 50L57 50L57 48L55 48L55 45L56 45L56 46L57 46L57 44L55 44L55 39L57 39L57 35L56 35L56 37L53 37L53 40L52 40L52 41L54 41L54 43L53 43L53 44L52 44L52 43L50 43L50 42L51 42L51 41L49 41L49 40L51 40L51 39L52 39L52 38L51 38L51 39L50 39L50 36L51 36L51 35L50 35L50 34L51 34L51 33L53 33L53 34L52 34L52 36L55 36L55 35L54 35L54 34L55 34L55 33L54 33L54 32L55 32L55 31L56 31L56 32L57 32L57 31L56 31L56 30L57 30L57 27L56 27L56 26L57 26L57 24L56 24L56 22L57 22L57 21L54 21L54 23L51 23L51 22L52 22L52 21L51 21L51 22L50 22L50 19L51 19L51 18L52 18L52 16L53 16L53 17L54 17L54 16L57 16L57 15L56 15L56 14L57 14L57 12L56 12L56 14L55 14L55 13L53 13L53 14L55 14L55 15L54 15L54 16L53 16L53 15L52 15L52 16L50 16L50 15L51 15L51 14L52 14L52 13L51 13L51 14L50 14L50 11L52 11L52 12L53 12L53 11L54 11L54 12L55 12L55 11L56 11L56 8L55 8L55 11L54 11L54 10L53 10L53 9L54 9L54 8L53 8L53 9L52 9L52 8L51 8L51 9L52 9L52 10L50 10L50 8L49 8L49 6L48 6L48 8L47 8L47 5L48 5L48 0L46 0L46 1L45 1L45 0L41 0L41 1L40 1L40 0L39 0L39 1L38 1L38 0L36 0L36 2L37 2L37 3L36 3L36 5L35 5L35 6L34 6L34 5L33 5L33 6L32 6L32 7L31 7L31 4L32 4L32 3L33 3L33 4L35 4L35 3L34 3L34 2L35 2L35 1L34 1L34 0L32 0L32 1L31 1L31 0L30 0L30 1L29 1L29 0L27 0L27 2L26 2L26 0L24 0L24 1L23 1L23 0L21 0L21 1L17 1L17 2L16 2L16 0ZM11 1L11 3L12 3L12 2L13 2L13 1ZM21 1L21 2L20 2L20 3L19 3L19 4L18 4L18 5L19 5L19 7L20 7L20 5L19 5L19 4L23 4L23 5L24 5L24 4L23 4L23 3L25 3L25 2L23 2L23 1ZM30 1L30 3L31 3L31 1ZM32 1L32 2L34 2L34 1ZM37 1L37 2L38 2L38 3L37 3L37 5L36 5L36 6L35 6L35 7L34 7L34 6L33 6L33 8L31 8L31 10L28 10L28 9L26 9L26 4L27 4L27 3L28 3L28 4L29 4L29 3L28 3L28 2L27 2L27 3L26 3L26 4L25 4L25 10L23 10L23 9L24 9L24 6L23 6L23 8L21 8L21 9L18 9L18 10L17 10L17 9L15 9L15 7L14 7L14 9L12 9L12 8L11 8L11 7L12 7L12 6L11 6L11 7L10 7L10 5L9 5L9 7L10 7L10 8L9 8L9 9L8 9L8 10L7 10L7 9L6 9L6 10L7 10L7 11L5 11L5 9L4 9L4 11L5 11L5 12L7 12L7 11L8 11L8 10L9 10L9 9L10 9L10 8L11 8L11 10L15 10L15 11L16 11L16 12L17 12L17 13L16 13L16 15L15 15L15 13L13 13L13 14L12 14L12 11L11 11L11 15L14 15L14 18L12 18L12 17L11 17L11 18L10 18L10 15L8 15L8 16L9 16L9 18L8 18L8 19L10 19L10 20L7 20L7 19L6 19L6 20L7 20L7 21L5 21L5 23L4 23L4 24L5 24L5 25L3 25L3 27L2 27L2 29L3 29L3 28L4 28L4 26L7 26L7 25L6 25L6 24L8 24L8 25L9 25L9 24L11 24L11 25L10 25L10 26L9 26L9 28L10 28L10 29L9 29L9 30L10 30L10 31L8 31L8 32L10 32L10 31L11 31L11 34L10 34L10 33L9 33L9 34L7 34L7 35L9 35L9 37L10 37L10 38L11 38L11 39L10 39L10 40L11 40L11 41L9 41L9 42L7 42L7 43L6 43L6 44L7 44L7 45L5 45L5 46L3 46L3 47L5 47L5 46L8 46L8 47L9 47L9 48L10 48L10 49L9 49L9 51L10 51L10 52L9 52L9 55L10 55L10 56L11 56L11 55L10 55L10 53L11 53L11 52L13 52L13 53L12 53L12 54L13 54L13 56L14 56L14 54L13 54L13 53L15 53L15 54L16 54L16 53L17 53L17 55L18 55L18 54L20 54L20 55L19 55L19 56L22 56L22 55L24 55L24 56L25 56L25 54L26 54L26 53L24 53L24 51L25 51L25 52L26 52L26 51L25 51L25 50L26 50L26 48L25 48L25 50L23 50L23 49L24 49L24 47L23 47L23 46L24 46L24 45L25 45L25 47L26 47L26 46L27 46L27 48L29 48L29 47L28 47L28 46L30 46L30 44L31 44L31 43L30 43L30 42L29 42L29 41L30 41L30 40L32 40L32 41L31 41L31 42L32 42L32 43L33 43L33 42L35 42L35 43L34 43L34 44L32 44L32 45L31 45L31 46L32 46L32 47L33 47L33 48L31 48L31 52L32 52L32 54L34 54L34 55L33 55L33 56L35 56L35 53L34 53L34 52L36 52L36 51L33 51L33 50L36 50L36 49L33 49L33 48L37 48L37 47L33 47L33 46L40 46L40 47L38 47L38 48L40 48L40 47L41 47L41 48L42 48L42 49L43 49L43 50L44 50L44 53L45 53L45 54L46 54L46 55L47 55L47 54L48 54L48 52L47 52L47 51L48 51L48 48L49 48L49 47L51 47L51 48L54 48L54 45L55 45L55 44L54 44L54 45L51 45L51 44L49 44L49 46L48 46L48 44L47 44L47 45L46 45L46 46L48 46L48 47L45 47L45 46L42 46L42 45L43 45L43 44L44 44L44 45L45 45L45 42L47 42L47 43L49 43L49 42L47 42L47 41L48 41L48 40L47 40L47 41L46 41L46 40L45 40L45 39L47 39L47 37L48 37L48 39L49 39L49 37L48 37L48 36L50 36L50 35L48 35L48 36L47 36L47 35L46 35L46 34L47 34L47 33L48 33L48 34L50 34L50 33L51 33L51 32L54 32L54 30L53 30L53 31L51 31L51 32L49 32L49 31L48 31L48 28L47 28L47 27L46 27L46 28L47 28L47 29L46 29L46 30L45 30L45 27L43 27L43 26L47 26L47 25L49 25L49 26L51 26L51 25L53 25L53 27L55 27L55 26L54 26L54 24L51 24L51 23L50 23L50 22L48 22L48 21L49 21L49 20L46 20L46 19L45 19L45 18L47 18L47 17L48 17L48 16L49 16L49 15L46 15L46 16L44 16L44 15L45 15L45 12L46 12L46 14L47 14L47 13L49 13L49 12L48 12L48 11L50 11L50 10L48 10L48 9L49 9L49 8L48 8L48 9L46 9L46 8L43 8L43 9L46 9L46 10L48 10L48 11L45 11L45 12L43 12L43 13L44 13L44 14L42 14L42 11L43 11L43 10L40 10L40 9L41 9L41 8L42 8L42 5L41 5L41 4L42 4L42 3L43 3L43 7L44 7L44 6L45 6L45 7L46 7L46 6L45 6L45 5L44 5L44 4L46 4L46 5L47 5L47 3L43 3L43 2L45 2L45 1L41 1L41 3L40 3L40 4L38 4L38 3L39 3L39 2L38 2L38 1ZM46 1L46 2L47 2L47 1ZM27 5L27 8L30 8L30 5ZM37 5L37 6L36 6L36 7L35 7L35 8L34 8L34 9L35 9L35 8L36 8L36 9L37 9L37 12L34 12L34 11L32 11L32 10L33 10L33 9L32 9L32 10L31 10L31 11L32 11L32 12L30 12L30 13L28 13L28 12L29 12L29 11L28 11L28 10L26 10L26 11L27 11L27 12L25 12L25 11L23 11L23 10L22 10L22 11L21 11L21 10L20 10L20 11L19 11L19 10L18 10L18 11L17 11L17 12L18 12L18 13L17 13L17 14L18 14L18 15L19 15L19 16L18 16L18 17L19 17L19 18L18 18L18 19L17 19L17 18L16 18L16 19L15 19L15 21L16 21L16 22L15 22L15 23L16 23L16 24L15 24L15 25L14 25L14 24L13 24L13 22L14 22L14 21L13 21L13 20L14 20L14 19L12 19L12 21L13 21L13 22L11 22L11 20L10 20L10 21L9 21L9 23L10 23L10 22L11 22L11 23L12 23L12 25L11 25L11 26L10 26L10 27L12 27L12 29L11 29L11 31L13 31L13 32L12 32L12 33L13 33L13 34L12 34L12 35L11 35L11 36L10 36L10 37L11 37L11 36L12 36L12 35L14 35L14 33L15 33L15 32L14 32L14 31L15 31L15 30L16 30L16 29L18 29L18 30L17 30L17 31L18 31L18 33L19 33L19 34L18 34L18 35L20 35L20 33L19 33L19 32L20 32L20 29L22 29L22 28L20 28L20 27L22 27L22 26L23 26L23 27L24 27L24 28L25 28L25 27L26 27L26 30L25 30L25 29L23 29L23 30L21 30L21 31L22 31L22 32L23 32L23 34L22 34L22 33L21 33L21 37L19 37L19 36L18 36L18 37L17 37L17 38L18 38L18 40L17 40L17 41L18 41L18 43L15 43L15 42L14 42L14 41L16 41L16 39L14 39L14 38L12 38L12 39L13 39L13 40L12 40L12 42L13 42L13 43L12 43L12 44L11 44L11 46L10 46L10 42L9 42L9 43L8 43L8 44L9 44L9 45L8 45L8 46L10 46L10 48L11 48L11 49L10 49L10 50L12 50L12 51L14 51L14 52L15 52L15 53L16 53L16 52L17 52L17 53L20 53L20 52L17 52L17 51L21 51L21 52L23 52L23 51L21 51L21 50L22 50L22 49L21 49L21 50L20 50L20 49L19 49L19 48L20 48L20 47L19 47L19 45L21 45L21 47L22 47L22 45L24 45L24 44L25 44L25 45L26 45L26 44L27 44L27 45L29 45L29 44L30 44L30 43L29 43L29 44L27 44L27 43L26 43L26 44L25 44L25 43L24 43L24 42L25 42L25 41L24 41L24 40L25 40L25 39L26 39L26 38L25 38L25 36L26 36L26 37L27 37L27 38L28 38L28 37L29 37L29 39L28 39L28 40L27 40L27 41L26 41L26 42L27 42L27 41L29 41L29 39L31 39L31 38L32 38L32 35L31 35L31 34L32 34L32 32L36 32L36 33L40 33L40 34L36 34L36 35L37 35L37 36L36 36L36 38L35 38L35 40L34 40L34 38L33 38L33 39L32 39L32 40L34 40L34 41L36 41L36 42L38 42L38 43L37 43L37 44L35 44L35 45L39 45L39 44L38 44L38 43L40 43L40 42L38 42L38 41L39 41L39 39L37 39L37 38L38 38L38 37L39 37L39 38L40 38L40 36L41 36L41 38L42 38L42 39L41 39L41 41L42 41L42 42L41 42L41 44L43 44L43 43L44 43L44 39L43 39L43 37L44 37L44 38L45 38L45 37L44 37L44 34L46 34L46 33L47 33L47 32L48 32L48 31L47 31L47 30L46 30L46 31L45 31L45 30L44 30L44 28L43 28L43 27L42 27L42 28L43 28L43 29L42 29L42 30L41 30L41 31L40 31L40 32L36 32L36 30L33 30L33 29L35 29L35 28L36 28L36 29L39 29L39 28L36 28L36 27L37 27L37 24L39 24L39 26L38 26L38 27L40 27L40 24L41 24L41 26L43 26L43 24L42 24L42 23L43 23L43 20L45 20L45 19L43 19L43 20L42 20L42 18L43 18L43 17L44 17L44 18L45 18L45 17L44 17L44 16L43 16L43 15L42 15L42 14L41 14L41 13L39 13L39 14L37 14L37 13L38 13L38 12L41 12L41 11L38 11L38 9L37 9L37 8L41 8L41 6L40 6L40 7L39 7L39 5ZM17 6L17 7L16 7L16 8L18 8L18 6ZM21 6L21 7L22 7L22 6ZM28 6L28 7L29 7L29 6ZM37 6L37 7L36 7L36 8L37 8L37 7L38 7L38 6ZM35 10L35 11L36 11L36 10ZM52 10L52 11L53 11L53 10ZM13 11L13 12L14 12L14 11ZM8 12L8 13L6 13L6 14L8 14L8 13L9 13L9 14L10 14L10 13L9 13L9 12ZM21 12L21 13L19 13L19 15L20 15L20 16L19 16L19 17L20 17L20 18L19 18L19 19L20 19L20 18L21 18L21 17L22 17L22 19L21 19L21 20L20 20L20 21L18 21L18 20L17 20L17 19L16 19L16 21L18 21L18 22L17 22L17 23L19 23L19 25L18 25L18 24L16 24L16 25L15 25L15 26L14 26L14 25L12 25L12 27L13 27L13 29L12 29L12 30L13 30L13 31L14 31L14 28L15 28L15 29L16 29L16 28L18 28L18 29L20 29L20 28L19 28L19 25L20 25L20 26L21 26L21 25L25 25L25 26L24 26L24 27L25 27L25 26L26 26L26 25L27 25L27 26L28 26L28 25L29 25L29 24L25 24L25 23L26 23L26 22L25 22L25 21L24 21L24 20L23 20L23 19L24 19L24 18L23 18L23 17L24 17L24 15L25 15L25 16L27 16L27 17L26 17L26 18L25 18L25 19L26 19L26 21L29 21L29 22L27 22L27 23L29 23L29 22L30 22L30 25L31 25L31 26L32 26L32 25L33 25L33 28L32 28L32 29L33 29L33 28L34 28L34 26L35 26L35 27L36 27L36 26L35 26L35 24L37 24L37 23L36 23L36 22L37 22L37 21L36 21L36 20L38 20L38 22L40 22L40 23L39 23L39 24L40 24L40 23L42 23L42 22L41 22L41 21L42 21L42 20L40 20L40 19L41 19L41 18L42 18L42 17L41 17L41 16L40 16L40 15L38 15L38 17L37 17L37 18L39 18L39 20L38 20L38 19L34 19L34 18L35 18L35 17L36 17L36 16L37 16L37 15L36 15L36 16L35 16L35 15L33 15L33 14L35 14L35 13L33 13L33 12L32 12L32 13L31 13L31 14L32 14L32 15L31 15L31 16L30 16L30 14L29 14L29 16L28 16L28 15L27 15L27 14L28 14L28 13L25 13L25 12L24 12L24 13L22 13L22 12ZM21 13L21 16L22 16L22 13ZM24 13L24 14L23 14L23 15L24 15L24 14L25 14L25 15L26 15L26 14L25 14L25 13ZM32 13L32 14L33 14L33 13ZM0 15L0 18L2 18L2 17L3 17L3 15L2 15L2 17L1 17L1 15ZM6 15L6 16L7 16L7 15ZM32 15L32 16L31 16L31 17L27 17L27 18L26 18L26 19L27 19L27 20L29 20L29 21L30 21L30 22L31 22L31 23L32 23L32 24L31 24L31 25L32 25L32 24L34 24L34 23L33 23L33 21L32 21L32 20L34 20L34 21L35 21L35 20L34 20L34 19L28 19L28 18L32 18L32 16L33 16L33 18L34 18L34 17L35 17L35 16L33 16L33 15ZM15 16L15 17L17 17L17 16ZM39 16L39 17L40 17L40 18L41 18L41 17L40 17L40 16ZM46 16L46 17L47 17L47 16ZM50 17L50 18L49 18L49 19L50 19L50 18L51 18L51 17ZM55 17L55 18L53 18L53 19L52 19L52 20L55 20L55 18L57 18L57 17ZM56 19L56 20L57 20L57 19ZM21 20L21 21L22 21L22 22L21 22L21 23L23 23L23 24L24 24L24 23L23 23L23 22L24 22L24 21L22 21L22 20ZM30 20L30 21L31 21L31 20ZM39 20L39 21L40 21L40 20ZM1 21L1 22L2 22L2 23L3 23L3 22L4 22L4 21L3 21L3 22L2 22L2 21ZM7 21L7 22L6 22L6 23L5 23L5 24L6 24L6 23L8 23L8 21ZM44 21L44 24L46 24L46 25L47 25L47 23L46 23L46 22L45 22L45 21ZM19 22L19 23L20 23L20 22ZM49 24L49 25L51 25L51 24ZM55 24L55 25L56 25L56 24ZM17 25L17 27L18 27L18 25ZM5 27L5 30L8 30L8 27ZM27 27L27 30L30 30L30 27ZM49 27L49 30L52 30L52 27ZM6 28L6 29L7 29L7 28ZM28 28L28 29L29 29L29 28ZM50 28L50 29L51 29L51 28ZM54 28L54 29L55 29L55 28ZM18 30L18 31L19 31L19 30ZM23 30L23 31L24 31L24 30ZM31 30L31 31L30 31L30 32L29 32L29 31L28 31L28 32L29 32L29 33L27 33L27 31L25 31L25 34L24 34L24 36L25 36L25 34L26 34L26 35L27 35L27 36L30 36L30 38L31 38L31 35L29 35L29 33L30 33L30 32L32 32L32 31L33 31L33 30ZM37 30L37 31L39 31L39 30ZM42 30L42 31L41 31L41 32L40 32L40 33L42 33L42 32L43 32L43 34L40 34L40 35L38 35L38 36L37 36L37 37L38 37L38 36L40 36L40 35L43 35L43 34L44 34L44 33L46 33L46 32L47 32L47 31L46 31L46 32L43 32L43 31L44 31L44 30ZM13 32L13 33L14 33L14 32ZM16 32L16 33L17 33L17 32ZM0 33L0 40L1 40L1 36L2 36L2 35L1 35L1 33ZM26 33L26 34L27 34L27 33ZM56 33L56 34L57 34L57 33ZM33 34L33 37L35 37L35 34ZM15 35L15 36L16 36L16 35ZM22 35L22 37L21 37L21 38L22 38L22 37L23 37L23 38L24 38L24 37L23 37L23 35ZM4 36L4 37L5 37L5 36ZM13 36L13 37L14 37L14 36ZM2 37L2 40L3 40L3 39L4 39L4 41L5 41L5 39L7 39L7 38L3 38L3 37ZM15 37L15 38L16 38L16 37ZM18 37L18 38L19 38L19 39L20 39L20 38L19 38L19 37ZM21 39L21 40L22 40L22 41L20 41L20 43L19 43L19 44L21 44L21 45L22 45L22 44L21 44L21 43L22 43L22 41L23 41L23 40L24 40L24 39ZM42 39L42 40L43 40L43 39ZM32 41L32 42L33 42L33 41ZM56 41L56 42L57 42L57 41ZM42 42L42 43L43 43L43 42ZM2 43L2 44L3 44L3 43ZM14 43L14 45L15 45L15 46L13 46L13 47L15 47L15 48L19 48L19 47L18 47L18 46L17 46L17 45L18 45L18 44L17 44L17 45L15 45L15 43ZM23 43L23 44L24 44L24 43ZM12 44L12 45L13 45L13 44ZM40 45L40 46L41 46L41 47L42 47L42 48L43 48L43 49L44 49L44 48L45 48L45 47L44 47L44 48L43 48L43 47L42 47L42 46L41 46L41 45ZM1 46L1 47L2 47L2 46ZM11 46L11 47L12 47L12 46ZM15 46L15 47L17 47L17 46ZM13 48L13 49L14 49L14 48ZM15 49L15 50L14 50L14 51L15 51L15 50L16 50L16 51L17 51L17 50L19 50L19 49ZM27 49L27 52L30 52L30 49ZM32 49L32 50L33 50L33 49ZM49 49L49 52L52 52L52 49ZM28 50L28 51L29 51L29 50ZM45 50L45 51L47 51L47 50ZM50 50L50 51L51 51L51 50ZM32 51L32 52L33 52L33 51ZM56 51L56 52L57 52L57 51ZM21 53L21 55L22 55L22 54L24 54L24 53ZM30 53L30 55L31 55L31 56L32 56L32 55L31 55L31 53ZM15 55L15 56L16 56L16 55ZM51 55L51 56L50 56L50 57L52 57L52 56L53 56L53 57L54 57L54 56L55 56L55 57L56 57L56 56L55 56L55 55L54 55L54 56L53 56L53 55ZM48 56L48 57L49 57L49 56ZM0 0L0 7L7 7L7 0ZM1 1L1 6L6 6L6 1ZM2 2L2 5L5 5L5 2ZM50 0L50 7L57 7L57 0ZM51 1L51 6L56 6L56 1ZM52 2L52 5L55 5L55 2ZM0 50L0 57L7 57L7 50ZM1 51L1 56L6 56L6 51ZM2 52L2 55L5 55L5 52Z" fill="#000000"/></g></g></svg>
