<?xml version="1.0" encoding="UTF-8"?>
<svg xmlns="http://www.w3.org/2000/svg" version="1.1" width="300" height="300" viewBox="0 0 300 300"><rect x="0" y="0" width="300" height="300" fill="#ffffff"/><g transform="scale(4.918)"><g transform="translate(2,2)"><path fill-rule="evenodd" d="M9 0L9 1L8 1L8 2L9 2L9 1L11 1L11 0ZM12 0L12 1L13 1L13 0ZM14 0L14 1L15 1L15 2L14 2L14 3L13 3L13 2L12 2L12 3L13 3L13 5L12 5L12 4L11 4L11 3L10 3L10 4L9 4L9 3L8 3L8 4L9 4L9 5L8 5L8 7L9 7L9 5L10 5L10 7L11 7L11 8L12 8L12 7L13 7L13 8L15 8L15 9L14 9L14 10L13 10L13 9L9 9L9 8L6 8L6 9L8 9L8 11L7 11L7 10L5 10L5 8L0 8L0 11L1 11L1 12L0 12L0 13L1 13L1 17L2 17L2 18L1 18L1 19L0 19L0 23L1 23L1 24L0 24L0 27L1 27L1 28L0 28L0 29L1 29L1 28L2 28L2 29L3 29L3 30L0 30L0 31L2 31L2 32L3 32L3 33L4 33L4 34L3 34L3 35L2 35L2 36L1 36L1 34L2 34L2 33L1 33L1 32L0 32L0 33L1 33L1 34L0 34L0 37L2 37L2 39L1 39L1 38L0 38L0 39L1 39L1 40L0 40L0 42L2 42L2 44L1 44L1 45L4 45L4 46L5 46L5 47L3 47L3 46L2 46L2 47L1 47L1 46L0 46L0 48L5 48L5 47L7 47L7 46L6 46L6 45L7 45L7 44L8 44L8 43L9 43L9 45L8 45L8 46L9 46L9 48L6 48L6 49L8 49L8 51L10 51L10 52L8 52L8 57L10 57L10 55L11 55L11 56L12 56L12 55L14 55L14 54L12 54L12 53L16 53L16 54L15 54L15 55L16 55L16 57L21 57L21 56L22 56L22 55L21 55L21 56L18 56L18 55L20 55L20 54L17 54L17 53L20 53L20 52L21 52L21 53L22 53L22 54L24 54L24 53L25 53L25 56L28 56L28 55L27 55L27 53L28 53L28 54L30 54L30 53L31 53L31 56L30 56L30 55L29 55L29 56L30 56L30 57L31 57L31 56L33 56L33 55L34 55L34 56L35 56L35 57L39 57L39 56L38 56L38 53L37 53L37 51L39 51L39 50L37 50L37 49L39 49L39 48L41 48L41 47L42 47L42 48L45 48L45 47L47 47L47 46L49 46L49 47L50 47L50 48L48 48L48 51L47 51L47 50L46 50L46 49L41 49L41 50L43 50L43 51L42 51L42 52L41 52L41 51L40 51L40 52L39 52L39 55L40 55L40 52L41 52L41 53L42 53L42 54L43 54L43 53L44 53L44 54L45 54L45 55L46 55L46 54L45 54L45 53L44 53L44 50L46 50L46 51L45 51L45 52L48 52L48 54L47 54L47 55L48 55L48 56L45 56L45 57L49 57L49 53L50 53L50 55L51 55L51 56L50 56L50 57L52 57L52 56L55 56L55 57L56 57L56 56L55 56L55 53L54 53L54 52L55 52L55 50L57 50L57 49L54 49L54 48L57 48L57 47L56 47L56 46L57 46L57 44L56 44L56 46L55 46L55 45L54 45L54 44L55 44L55 42L57 42L57 41L55 41L55 39L57 39L57 37L54 37L54 36L57 36L57 35L55 35L55 34L57 34L57 32L56 32L56 30L57 30L57 28L56 28L56 26L55 26L55 25L54 25L54 26L55 26L55 27L53 27L53 25L52 25L52 24L57 24L57 23L56 23L56 22L57 22L57 21L56 21L56 20L57 20L57 19L56 19L56 18L57 18L57 17L56 17L56 16L57 16L57 15L56 15L56 14L57 14L57 13L56 13L56 14L55 14L55 13L53 13L53 14L54 14L54 15L52 15L52 16L55 16L55 17L56 17L56 18L55 18L55 19L52 19L52 17L51 17L51 16L50 16L50 15L51 15L51 14L52 14L52 13L51 13L51 14L50 14L50 15L49 15L49 13L50 13L50 11L52 11L52 12L53 12L53 11L54 11L54 12L55 12L55 11L54 11L54 10L50 10L50 8L49 8L49 6L48 6L48 7L47 7L47 5L48 5L48 0L45 0L45 1L47 1L47 2L44 2L44 1L43 1L43 0L42 0L42 1L41 1L41 0L40 0L40 1L41 1L41 2L39 2L39 1L38 1L38 0L37 0L37 1L34 1L34 0L33 0L33 1L34 1L34 2L32 2L32 0L30 0L30 1L29 1L29 2L28 2L28 0L27 0L27 1L26 1L26 0L24 0L24 1L23 1L23 0L21 0L21 2L19 2L19 1L16 1L16 0ZM22 1L22 4L21 4L21 3L19 3L19 4L18 4L18 2L17 2L17 3L14 3L14 4L16 4L16 5L13 5L13 7L14 7L14 6L15 6L15 7L16 7L16 9L15 9L15 11L16 11L16 12L17 12L17 13L16 13L16 15L15 15L15 16L13 16L13 15L14 15L14 14L15 14L15 13L13 13L13 14L11 14L11 15L10 15L10 18L8 18L8 16L7 16L7 15L6 15L6 16L7 16L7 17L5 17L5 15L4 15L4 14L8 14L8 15L9 15L9 14L10 14L10 13L8 13L8 12L7 12L7 11L6 11L6 12L5 12L5 10L4 10L4 9L3 9L3 10L1 10L1 11L2 11L2 12L1 12L1 13L2 13L2 12L3 12L3 13L4 13L4 14L3 14L3 15L2 15L2 17L3 17L3 18L4 18L4 19L3 19L3 20L1 20L1 21L3 21L3 23L2 23L2 22L1 22L1 23L2 23L2 24L1 24L1 26L2 26L2 27L3 27L3 29L4 29L4 26L5 26L5 25L6 25L6 26L10 26L10 27L9 27L9 29L12 29L12 30L13 30L13 31L14 31L14 32L12 32L12 31L11 31L11 30L10 30L10 31L11 31L11 32L9 32L9 33L8 33L8 34L7 34L7 33L6 33L6 32L7 32L7 31L6 31L6 32L5 32L5 34L4 34L4 35L3 35L3 39L2 39L2 40L4 40L4 41L2 41L2 42L4 42L4 43L5 43L5 44L4 44L4 45L6 45L6 44L7 44L7 43L8 43L8 42L7 42L7 41L5 41L5 40L7 40L7 39L6 39L6 38L8 38L8 39L9 39L9 40L8 40L8 41L9 41L9 42L10 42L10 41L9 41L9 40L10 40L10 39L9 39L9 38L8 38L8 37L9 37L9 36L10 36L10 38L11 38L11 35L12 35L12 36L13 36L13 35L14 35L14 34L15 34L15 33L14 33L14 32L15 32L15 31L14 31L14 30L15 30L15 28L18 28L18 29L16 29L16 30L17 30L17 31L16 31L16 32L18 32L18 31L19 31L19 33L16 33L16 35L18 35L18 34L19 34L19 35L20 35L20 34L21 34L21 33L22 33L22 35L21 35L21 36L19 36L19 37L17 37L17 36L14 36L14 38L15 38L15 39L14 39L14 40L13 40L13 39L11 39L11 43L12 43L12 44L10 44L10 46L11 46L11 45L12 45L12 44L13 44L13 45L14 45L14 46L12 46L12 47L10 47L10 48L9 48L9 50L14 50L14 51L12 51L12 52L11 52L11 53L9 53L9 54L11 54L11 55L12 55L12 54L11 54L11 53L12 53L12 52L15 52L15 51L16 51L16 53L17 53L17 52L18 52L18 51L16 51L16 50L17 50L17 49L15 49L15 50L14 50L14 49L13 49L13 48L12 48L12 47L14 47L14 48L15 48L15 47L16 47L16 48L17 48L17 47L18 47L18 46L17 46L17 45L18 45L18 44L17 44L17 45L16 45L16 46L15 46L15 43L14 43L14 42L13 42L13 43L12 43L12 41L14 41L14 40L15 40L15 39L16 39L16 41L15 41L15 42L16 42L16 43L18 43L18 42L19 42L19 41L17 41L17 39L18 39L18 38L19 38L19 39L20 39L20 38L19 38L19 37L21 37L21 39L23 39L23 40L22 40L22 41L20 41L20 43L19 43L19 44L21 44L21 45L19 45L19 46L20 46L20 48L19 48L19 49L18 49L18 50L19 50L19 49L20 49L20 50L21 50L21 49L22 49L22 50L23 50L23 51L21 51L21 52L22 52L22 53L24 53L24 51L25 51L25 53L26 53L26 51L25 51L25 50L26 50L26 49L25 49L25 50L23 50L23 49L24 49L24 48L26 48L26 46L27 46L27 47L29 47L29 46L30 46L30 45L27 45L27 44L29 44L29 43L30 43L30 44L31 44L31 45L32 45L32 46L36 46L36 45L35 45L35 43L36 43L36 44L37 44L37 43L38 43L38 45L37 45L37 46L40 46L40 45L41 45L41 46L42 46L42 47L43 47L43 46L42 46L42 45L43 45L43 44L40 44L40 43L44 43L44 45L45 45L45 42L46 42L46 43L49 43L49 42L47 42L47 41L48 41L48 40L49 40L49 41L51 41L51 42L50 42L50 43L51 43L51 44L50 44L50 45L49 45L49 46L50 46L50 47L51 47L51 48L54 48L54 47L55 47L55 46L54 46L54 45L51 45L51 44L53 44L53 43L54 43L54 41L52 41L52 40L53 40L53 39L55 39L55 38L54 38L54 37L52 37L52 34L54 34L54 33L56 33L56 32L53 32L53 31L51 31L51 32L49 32L49 31L48 31L48 30L47 30L47 29L48 29L48 27L46 27L46 28L47 28L47 29L46 29L46 30L45 30L45 26L48 26L48 25L49 25L49 26L51 26L51 24L52 24L52 23L53 23L53 22L54 22L54 21L55 21L55 20L56 20L56 19L55 19L55 20L51 20L51 19L50 19L50 18L51 18L51 17L50 17L50 18L48 18L48 19L50 19L50 22L49 22L49 23L48 23L48 25L45 25L45 24L46 24L46 23L47 23L47 21L48 21L48 20L47 20L47 19L46 19L46 20L43 20L43 19L45 19L45 18L47 18L47 16L48 16L48 17L49 17L49 15L45 15L45 14L44 14L44 15L45 15L45 16L43 16L43 18L42 18L42 15L43 15L43 14L42 14L42 11L43 11L43 12L44 12L44 13L45 13L45 12L46 12L46 14L47 14L47 13L49 13L49 12L47 12L47 11L45 11L45 12L44 12L44 9L45 9L45 10L48 10L48 11L50 11L50 10L48 10L48 9L49 9L49 8L48 8L48 9L46 9L46 8L47 8L47 7L46 7L46 5L47 5L47 3L43 3L43 1L42 1L42 3L40 3L40 5L41 5L41 7L42 7L42 6L43 6L43 7L44 7L44 9L43 9L43 10L42 10L42 8L39 8L39 9L38 9L38 6L39 6L39 7L40 7L40 6L39 6L39 2L38 2L38 1L37 1L37 2L34 2L34 4L33 4L33 3L32 3L32 4L31 4L31 3L30 3L30 2L31 2L31 1L30 1L30 2L29 2L29 3L28 3L28 2L23 2L23 1ZM37 2L37 3L36 3L36 5L35 5L35 6L34 6L34 5L33 5L33 6L32 6L32 7L33 7L33 6L34 6L34 7L35 7L35 9L36 9L36 11L35 11L35 10L34 10L34 9L33 9L33 10L32 10L32 9L31 9L31 4L30 4L30 3L29 3L29 4L28 4L28 3L27 3L27 4L26 4L26 3L23 3L23 4L22 4L22 5L21 5L21 4L19 4L19 5L18 5L18 4L17 4L17 5L18 5L18 7L17 7L17 6L16 6L16 7L17 7L17 9L19 9L19 10L18 10L18 11L17 11L17 12L18 12L18 13L17 13L17 14L18 14L18 15L19 15L19 13L21 13L21 14L20 14L20 15L21 15L21 16L20 16L20 17L21 17L21 18L20 18L20 19L21 19L21 18L22 18L22 17L21 17L21 16L22 16L22 13L24 13L24 14L23 14L23 15L24 15L24 17L23 17L23 18L24 18L24 19L22 19L22 20L24 20L24 21L21 21L21 23L22 23L22 24L23 24L23 29L24 29L24 30L23 30L23 31L24 31L24 32L23 32L23 37L22 37L22 36L21 36L21 37L22 37L22 38L23 38L23 39L24 39L24 40L23 40L23 41L22 41L22 43L21 43L21 44L22 44L22 45L21 45L21 48L23 48L23 47L22 47L22 45L23 45L23 46L24 46L24 47L25 47L25 45L26 45L26 44L27 44L27 43L26 43L26 44L25 44L25 45L23 45L23 43L25 43L25 41L24 41L24 40L25 40L25 39L27 39L27 40L28 40L28 41L29 41L29 42L30 42L30 43L31 43L31 44L34 44L34 43L35 43L35 42L34 42L34 41L33 41L33 42L32 42L32 41L31 41L31 40L28 40L28 39L27 39L27 38L28 38L28 37L26 37L26 35L27 35L27 34L25 34L25 33L29 33L29 34L30 34L30 35L29 35L29 39L31 39L31 38L32 38L32 35L31 35L31 33L32 33L32 34L34 34L34 35L37 35L37 36L36 36L36 38L35 38L35 41L37 41L37 42L36 42L36 43L37 43L37 42L38 42L38 40L41 40L41 39L42 39L42 38L43 38L43 37L44 37L44 38L45 38L45 39L43 39L43 40L42 40L42 41L41 41L41 42L43 42L43 40L45 40L45 39L46 39L46 41L47 41L47 39L46 39L46 38L45 38L45 37L44 37L44 33L41 33L41 34L43 34L43 36L41 36L41 35L40 35L40 36L38 36L38 35L39 35L39 34L40 34L40 32L45 32L45 31L42 31L42 30L43 30L43 29L44 29L44 28L43 28L43 25L44 25L44 24L45 24L45 23L46 23L46 22L45 22L45 21L44 21L44 24L43 24L43 23L42 23L42 22L43 22L43 21L40 21L40 20L42 20L42 18L41 18L41 17L40 17L40 16L41 16L41 15L42 15L42 14L41 14L41 13L39 13L39 14L37 14L37 13L38 13L38 12L39 12L39 10L40 10L40 12L41 12L41 11L42 11L42 10L40 10L40 9L39 9L39 10L38 10L38 9L37 9L37 6L36 6L36 5L38 5L38 4L37 4L37 3L38 3L38 2ZM10 4L10 5L11 5L11 4ZM23 4L23 5L22 5L22 6L21 6L21 8L19 8L19 9L20 9L20 10L21 10L21 11L22 11L22 10L23 10L23 12L24 12L24 13L25 13L25 12L27 12L27 11L26 11L26 10L27 10L27 9L25 9L25 8L26 8L26 4L25 4L25 8L24 8L24 6L23 6L23 5L24 5L24 4ZM41 4L41 5L43 5L43 4ZM44 4L44 5L46 5L46 4ZM19 5L19 7L20 7L20 5ZM27 5L27 8L30 8L30 5ZM11 6L11 7L12 7L12 6ZM22 6L22 7L23 7L23 6ZM28 6L28 7L29 7L29 6ZM35 6L35 7L36 7L36 6ZM44 6L44 7L45 7L45 6ZM51 8L51 9L52 9L52 8ZM53 8L53 9L54 9L54 8ZM55 8L55 10L57 10L57 9L56 9L56 8ZM21 9L21 10L22 10L22 9ZM23 9L23 10L24 10L24 12L25 12L25 9ZM3 10L3 11L4 11L4 10ZM9 10L9 11L10 11L10 12L11 12L11 13L12 13L12 12L11 12L11 11L13 11L13 12L14 12L14 11L13 11L13 10ZM28 10L28 11L30 11L30 12L28 12L28 13L26 13L26 14L24 14L24 15L26 15L26 16L25 16L25 19L26 19L26 20L25 20L25 21L24 21L24 22L23 22L23 23L24 23L24 24L25 24L25 26L26 26L26 25L27 25L27 26L28 26L28 25L29 25L29 24L31 24L31 22L29 22L29 21L30 21L30 20L31 20L31 18L32 18L32 19L33 19L33 20L32 20L32 21L33 21L33 23L36 23L36 22L37 22L37 23L38 23L38 22L39 22L39 20L40 20L40 19L41 19L41 18L39 18L39 16L40 16L40 15L41 15L41 14L40 14L40 15L33 15L33 14L35 14L35 13L33 13L33 12L31 12L31 10ZM33 10L33 11L34 11L34 12L35 12L35 11L34 11L34 10ZM37 10L37 11L36 11L36 12L37 12L37 11L38 11L38 10ZM56 11L56 12L57 12L57 11ZM6 12L6 13L7 13L7 12ZM21 12L21 13L22 13L22 12ZM28 13L28 14L26 14L26 15L27 15L27 16L26 16L26 17L27 17L27 18L26 18L26 19L27 19L27 18L28 18L28 20L26 20L26 21L25 21L25 22L26 22L26 23L25 23L25 24L29 24L29 23L27 23L27 21L28 21L28 20L29 20L29 18L31 18L31 17L32 17L32 18L33 18L33 19L37 19L37 18L38 18L38 19L39 19L39 18L38 18L38 16L33 16L33 15L32 15L32 13L31 13L31 14L30 14L30 13ZM29 14L29 15L28 15L28 16L27 16L27 17L28 17L28 16L29 16L29 17L31 17L31 16L32 16L32 17L33 17L33 18L35 18L35 17L33 17L33 16L32 16L32 15L31 15L31 16L30 16L30 14ZM11 15L11 16L12 16L12 15ZM16 15L16 17L13 17L13 18L12 18L12 19L11 19L11 18L10 18L10 19L11 19L11 20L10 20L10 21L11 21L11 25L12 25L12 27L11 27L11 28L12 28L12 27L13 27L13 30L14 30L14 27L13 27L13 25L12 25L12 24L13 24L13 22L14 22L14 21L13 21L13 22L12 22L12 20L14 20L14 19L13 19L13 18L15 18L15 21L16 21L16 22L15 22L15 23L14 23L14 26L15 26L15 23L16 23L16 24L17 24L17 25L18 25L18 26L16 26L16 27L18 27L18 26L19 26L19 27L20 27L20 25L19 25L19 23L20 23L20 22L19 22L19 23L17 23L17 22L18 22L18 21L20 21L20 20L19 20L19 18L16 18L16 17L19 17L19 16L17 16L17 15ZM4 17L4 18L5 18L5 19L7 19L7 20L6 20L6 21L4 21L4 22L5 22L5 24L4 24L4 25L5 25L5 24L6 24L6 25L8 25L8 24L10 24L10 23L8 23L8 22L9 22L9 21L8 21L8 19L7 19L7 18L5 18L5 17ZM53 17L53 18L54 18L54 17ZM16 19L16 21L18 21L18 19ZM34 20L34 21L35 21L35 20ZM36 20L36 21L37 21L37 22L38 22L38 20ZM6 21L6 22L8 22L8 21ZM51 21L51 22L50 22L50 23L52 23L52 22L53 22L53 21ZM40 22L40 23L41 23L41 24L38 24L38 25L37 25L37 26L36 26L36 25L35 25L35 24L32 24L32 25L31 25L31 28L32 28L32 31L31 31L31 32L32 32L32 33L34 33L34 34L35 34L35 33L36 33L36 32L37 32L37 33L38 33L38 34L37 34L37 35L38 35L38 34L39 34L39 33L38 33L38 32L40 32L40 31L38 31L38 32L37 32L37 30L39 30L39 29L40 29L40 30L42 30L42 29L43 29L43 28L42 28L42 26L41 26L41 28L39 28L39 27L37 27L37 26L39 26L39 25L41 25L41 24L42 24L42 25L43 25L43 24L42 24L42 23L41 23L41 22ZM6 23L6 24L7 24L7 23ZM49 24L49 25L50 25L50 24ZM21 25L21 27L22 27L22 25ZM32 25L32 26L33 26L33 25ZM5 27L5 30L8 30L8 27ZM25 27L25 28L24 28L24 29L25 29L25 30L24 30L24 31L25 31L25 32L27 32L27 31L25 31L25 30L26 30L26 27ZM27 27L27 30L30 30L30 27ZM34 27L34 28L33 28L33 29L38 29L38 28L35 28L35 27ZM49 27L49 30L52 30L52 27ZM6 28L6 29L7 29L7 28ZM19 28L19 29L18 29L18 30L19 30L19 31L22 31L22 30L19 30L19 29L22 29L22 28ZM28 28L28 29L29 29L29 28ZM50 28L50 29L51 29L51 28ZM54 28L54 29L53 29L53 30L54 30L54 29L55 29L55 30L56 30L56 28ZM33 30L33 31L32 31L32 32L34 32L34 31L35 31L35 32L36 32L36 31L35 31L35 30ZM46 30L46 31L47 31L47 32L48 32L48 31L47 31L47 30ZM3 31L3 32L4 32L4 31ZM28 31L28 32L29 32L29 33L30 33L30 32L29 32L29 31ZM20 32L20 33L21 33L21 32ZM51 32L51 33L50 33L50 34L51 34L51 33L53 33L53 32ZM9 33L9 34L8 34L8 35L11 35L11 34L10 34L10 33ZM45 33L45 34L46 34L46 35L45 35L45 36L46 36L46 37L47 37L47 36L48 36L48 37L50 37L50 38L48 38L48 39L50 39L50 38L51 38L51 35L49 35L49 36L48 36L48 33L47 33L47 34L46 34L46 33ZM6 34L6 35L4 35L4 36L6 36L6 37L7 37L7 36L6 36L6 35L7 35L7 34ZM24 34L24 36L25 36L25 34ZM46 35L46 36L47 36L47 35ZM30 36L30 38L31 38L31 36ZM37 36L37 38L40 38L40 39L41 39L41 36L40 36L40 37L38 37L38 36ZM15 37L15 38L16 38L16 37ZM23 37L23 38L24 38L24 37ZM25 37L25 38L26 38L26 37ZM32 39L32 40L34 40L34 39ZM37 39L37 40L38 40L38 39ZM4 41L4 42L5 42L5 43L7 43L7 42L5 42L5 41ZM26 41L26 42L27 42L27 41ZM39 41L39 42L40 42L40 41ZM44 41L44 42L45 42L45 41ZM33 42L33 43L34 43L34 42ZM13 43L13 44L14 44L14 43ZM39 44L39 45L40 45L40 44ZM47 44L47 45L46 45L46 46L47 46L47 45L48 45L48 44ZM50 45L50 46L51 46L51 45ZM14 46L14 47L15 47L15 46ZM16 46L16 47L17 47L17 46ZM44 46L44 47L45 47L45 46ZM52 46L52 47L54 47L54 46ZM30 47L30 48L31 48L31 52L32 52L32 54L34 54L34 55L36 55L36 56L37 56L37 55L36 55L36 54L37 54L37 53L36 53L36 54L35 54L35 52L36 52L36 51L34 51L34 50L36 50L36 48L39 48L39 47L36 47L36 48L35 48L35 47L34 47L34 48L35 48L35 49L34 49L34 50L33 50L33 48L31 48L31 47ZM27 49L27 52L30 52L30 49ZM49 49L49 52L52 52L52 49ZM28 50L28 51L29 51L29 50ZM50 50L50 51L51 51L51 50ZM53 50L53 51L54 51L54 50ZM32 51L32 52L34 52L34 51ZM56 51L56 52L57 52L57 51ZM53 53L53 54L51 54L51 55L54 55L54 53ZM23 55L23 57L24 57L24 55ZM41 55L41 56L42 56L42 55ZM43 55L43 57L44 57L44 55ZM13 56L13 57L14 57L14 56ZM0 0L0 7L7 7L7 0ZM1 1L1 6L6 6L6 1ZM2 2L2 5L5 5L5 2ZM50 0L50 7L57 7L57 0ZM51 1L51 6L56 6L56 1ZM52 2L52 5L55 5L55 2ZM0 50L0 57L7 57L7 50ZM1 51L1 56L6 56L6 51ZM2 52L2 55L5 55L5 52Z" fill="#000000"/></g></g></svg>
