<?xml version="1.0" encoding="UTF-8"?>
<svg xmlns="http://www.w3.org/2000/svg" version="1.1" width="300" height="300" viewBox="0 0 300 300"><rect x="0" y="0" width="300" height="300" fill="#ffffff"/><g transform="scale(4.918)"><g transform="translate(2,2)"><path fill-rule="evenodd" d="M10 0L10 2L9 2L9 3L8 3L8 5L9 5L9 4L10 4L10 3L11 3L11 4L12 4L12 5L10 5L10 10L8 10L8 8L5 8L5 9L7 9L7 10L5 10L5 11L7 11L7 12L6 12L6 13L5 13L5 12L4 12L4 13L3 13L3 14L2 14L2 13L0 13L0 15L2 15L2 16L1 16L1 20L0 20L0 21L1 21L1 22L0 22L0 24L1 24L1 26L2 26L2 27L0 27L0 30L1 30L1 31L0 31L0 33L1 33L1 31L2 31L2 30L1 30L1 28L2 28L2 29L3 29L3 31L4 31L4 32L3 32L3 33L2 33L2 34L3 34L3 38L6 38L6 39L5 39L5 40L4 40L4 39L2 39L2 40L1 40L1 41L0 41L0 42L1 42L1 44L0 44L0 48L5 48L5 47L7 47L7 46L9 46L9 47L8 47L8 48L9 48L9 49L8 49L8 52L9 52L9 54L10 54L10 55L12 55L12 53L13 53L13 54L14 54L14 55L13 55L13 56L9 56L9 55L8 55L8 57L13 57L13 56L14 56L14 55L15 55L15 54L14 54L14 53L15 53L15 51L14 51L14 53L13 53L13 51L12 51L12 50L14 50L14 49L15 49L15 48L14 48L14 49L12 49L12 48L13 48L13 45L14 45L14 46L17 46L17 45L18 45L18 47L19 47L19 48L18 48L18 49L19 49L19 50L18 50L18 51L17 51L17 50L16 50L16 52L17 52L17 53L19 53L19 54L18 54L18 55L17 55L17 54L16 54L16 55L17 55L17 57L19 57L19 56L20 56L20 57L21 57L21 55L22 55L22 54L23 54L23 53L24 53L24 56L25 56L25 57L26 57L26 55L25 55L25 54L28 54L28 55L29 55L29 53L30 53L30 56L29 56L29 57L31 57L31 54L32 54L32 52L31 52L31 50L32 50L32 51L33 51L33 50L32 50L32 49L33 49L33 48L34 48L34 49L37 49L37 50L34 50L34 52L35 52L35 55L34 55L34 53L33 53L33 56L35 56L35 57L39 57L39 56L41 56L41 57L44 57L44 56L43 56L43 55L47 55L47 57L49 57L49 56L50 56L50 55L49 55L49 54L48 54L48 53L52 53L52 56L51 56L51 57L52 57L52 56L53 56L53 57L56 57L56 56L55 56L55 55L57 55L57 54L55 54L55 53L53 53L53 48L52 48L52 47L50 47L50 46L55 46L55 47L54 47L54 48L55 48L55 47L56 47L56 45L54 45L54 44L57 44L57 41L56 41L56 43L55 43L55 39L56 39L56 40L57 40L57 35L54 35L54 36L55 36L55 39L54 39L54 37L53 37L53 38L52 38L52 37L51 37L51 38L52 38L52 39L50 39L50 37L48 37L48 36L47 36L47 38L49 38L49 39L50 39L50 40L51 40L51 41L48 41L48 42L50 42L50 43L47 43L47 42L46 42L46 40L45 40L45 41L44 41L44 39L41 39L41 40L42 40L42 41L40 41L40 42L39 42L39 43L40 43L40 44L43 44L43 45L42 45L42 46L41 46L41 45L39 45L39 44L38 44L38 43L37 43L37 42L38 42L38 40L39 40L39 38L37 38L37 36L35 36L35 38L36 38L36 39L38 39L38 40L35 40L35 39L34 39L34 40L33 40L33 39L32 39L32 40L30 40L30 41L29 41L29 42L30 42L30 43L31 43L31 42L30 42L30 41L32 41L32 42L34 42L34 41L35 41L35 42L36 42L36 43L35 43L35 44L36 44L36 45L37 45L37 46L36 46L36 47L35 47L35 45L33 45L33 46L32 46L32 47L31 47L31 46L30 46L30 45L29 45L29 44L27 44L27 45L26 45L26 44L25 44L25 45L22 45L22 43L23 43L23 44L24 44L24 42L25 42L25 43L26 43L26 41L27 41L27 43L28 43L28 41L27 41L27 40L28 40L28 39L31 39L31 38L32 38L32 37L33 37L33 38L34 38L34 35L35 35L35 32L36 32L36 33L37 33L37 34L36 34L36 35L37 35L37 34L38 34L38 35L39 35L39 36L38 36L38 37L41 37L41 38L43 38L43 37L41 37L41 36L44 36L44 38L45 38L45 39L46 39L46 37L45 37L45 36L46 36L46 35L50 35L50 34L52 34L52 35L51 35L51 36L53 36L53 32L55 32L55 33L54 33L54 34L56 34L56 31L57 31L57 29L56 29L56 26L55 26L55 25L57 25L57 24L55 24L55 23L56 23L56 21L55 21L55 22L54 22L54 21L50 21L50 19L52 19L52 18L54 18L54 20L55 20L55 17L54 17L54 16L55 16L55 15L56 15L56 14L57 14L57 11L56 11L56 10L57 10L57 9L55 9L55 11L54 11L54 10L53 10L53 9L54 9L54 8L52 8L52 10L53 10L53 11L51 11L51 9L50 9L50 10L49 10L49 9L47 9L47 8L49 8L49 6L48 6L48 7L47 7L47 5L48 5L48 0L44 0L44 1L43 1L43 0L42 0L42 1L43 1L43 2L40 2L40 1L39 1L39 0L37 0L37 1L36 1L36 2L37 2L37 3L36 3L36 5L34 5L34 11L35 11L35 9L38 9L38 10L36 10L36 13L35 13L35 14L34 14L34 12L32 12L32 13L33 13L33 15L34 15L34 16L33 16L33 17L29 17L29 18L28 18L28 16L29 16L29 15L30 15L30 16L32 16L32 14L31 14L31 11L33 11L33 10L31 10L31 9L33 9L33 8L31 8L31 4L35 4L35 3L33 3L33 2L32 2L32 1L33 1L33 0L30 0L30 1L31 1L31 4L29 4L29 0L23 0L23 2L24 2L24 4L23 4L23 3L22 3L22 0L19 0L19 1L18 1L18 0L15 0L15 1L16 1L16 2L15 2L15 3L14 3L14 2L13 2L13 0ZM34 0L34 2L35 2L35 0ZM11 1L11 3L12 3L12 4L13 4L13 3L12 3L12 1ZM17 1L17 2L16 2L16 3L15 3L15 5L12 5L12 6L11 6L11 10L12 10L12 11L11 11L11 13L10 13L10 12L8 12L8 13L9 13L9 17L6 17L6 18L7 18L7 19L5 19L5 16L8 16L8 15L6 15L6 14L7 14L7 13L6 13L6 14L5 14L5 13L4 13L4 14L3 14L3 15L4 15L4 19L3 19L3 18L2 18L2 19L3 19L3 20L4 20L4 19L5 19L5 21L3 21L3 22L4 22L4 23L2 23L2 22L1 22L1 24L2 24L2 25L3 25L3 26L4 26L4 25L3 25L3 24L4 24L4 23L6 23L6 24L5 24L5 25L6 25L6 26L7 26L7 25L6 25L6 24L8 24L8 23L10 23L10 21L9 21L9 22L8 22L8 20L7 20L7 19L9 19L9 20L10 20L10 19L9 19L9 18L11 18L11 21L12 21L12 22L13 22L13 23L12 23L12 25L11 25L11 24L9 24L9 25L8 25L8 26L9 26L9 28L10 28L10 26L11 26L11 29L10 29L10 30L9 30L9 32L10 32L10 30L11 30L11 31L12 31L12 30L13 30L13 31L14 31L14 32L15 32L15 31L16 31L16 32L17 32L17 34L15 34L15 35L14 35L14 33L13 33L13 32L12 32L12 33L11 33L11 34L10 34L10 33L9 33L9 34L8 34L8 32L7 32L7 31L5 31L5 32L4 32L4 33L5 33L5 34L7 34L7 35L4 35L4 37L6 37L6 38L7 38L7 39L6 39L6 40L5 40L5 42L3 42L3 40L2 40L2 43L3 43L3 44L4 44L4 46L3 46L3 45L2 45L2 44L1 44L1 45L2 45L2 46L1 46L1 47L2 47L2 46L3 46L3 47L5 47L5 42L7 42L7 43L6 43L6 44L7 44L7 45L6 45L6 46L7 46L7 45L10 45L10 46L12 46L12 45L13 45L13 43L10 43L10 42L11 42L11 41L10 41L10 39L8 39L8 38L9 38L9 37L8 37L8 35L9 35L9 36L10 36L10 37L11 37L11 38L12 38L12 42L13 42L13 41L14 41L14 43L15 43L15 42L16 42L16 44L18 44L18 45L19 45L19 47L20 47L20 50L19 50L19 51L18 51L18 52L19 52L19 53L21 53L21 52L22 52L22 53L23 53L23 52L24 52L24 51L23 51L23 50L22 50L22 47L23 47L23 46L22 46L22 47L21 47L21 46L20 46L20 45L19 45L19 43L20 43L20 44L21 44L21 41L22 41L22 42L23 42L23 40L20 40L20 39L21 39L21 37L20 37L20 36L22 36L22 35L23 35L23 33L24 33L24 29L25 29L25 32L30 32L30 33L29 33L29 34L27 34L27 33L25 33L25 34L24 34L24 36L26 36L26 35L28 35L28 36L29 36L29 37L30 37L30 38L31 38L31 37L32 37L32 36L33 36L33 34L32 34L32 36L30 36L30 35L31 35L31 33L34 33L34 32L35 32L35 31L36 31L36 32L39 32L39 33L41 33L41 32L40 32L40 30L41 30L41 31L43 31L43 30L42 30L42 29L43 29L43 28L44 28L44 29L45 29L45 32L43 32L43 34L39 34L39 35L43 35L43 34L44 34L44 36L45 36L45 35L46 35L46 33L48 33L48 34L49 34L49 31L48 31L48 32L46 32L46 31L47 31L47 30L48 30L48 29L45 29L45 28L46 28L46 26L47 26L47 25L46 25L46 26L44 26L44 27L43 27L43 26L41 26L41 25L44 25L44 24L48 24L48 25L49 25L49 26L51 26L51 25L52 25L52 22L51 22L51 23L50 23L50 22L49 22L49 23L50 23L50 24L51 24L51 25L49 25L49 24L48 24L48 23L46 23L46 21L45 21L45 20L42 20L42 19L43 19L43 18L42 18L42 17L43 17L43 16L44 16L44 17L45 17L45 19L47 19L47 21L48 21L48 20L49 20L49 18L47 18L47 17L48 17L48 16L49 16L49 17L50 17L50 18L52 18L52 17L53 17L53 16L54 16L54 15L55 15L55 14L56 14L56 13L55 13L55 12L56 12L56 11L55 11L55 12L54 12L54 11L53 11L53 12L54 12L54 13L52 13L52 12L51 12L51 11L50 11L50 12L48 12L48 13L50 13L50 15L51 15L51 17L50 17L50 16L49 16L49 15L47 15L47 17L45 17L45 15L43 15L43 14L42 14L42 13L41 13L41 14L42 14L42 15L40 15L40 17L39 17L39 16L38 16L38 15L39 15L39 13L40 13L40 10L39 10L39 13L38 13L38 12L37 12L37 13L36 13L36 14L35 14L35 15L36 15L36 16L35 16L35 17L34 17L34 20L32 20L32 22L33 22L33 21L34 21L34 20L35 20L35 23L36 23L36 22L37 22L37 23L38 23L38 24L37 24L37 25L38 25L38 26L36 26L36 27L34 27L34 28L37 28L37 31L36 31L36 29L34 29L34 31L33 31L33 32L31 32L31 31L32 31L32 30L33 30L33 26L35 26L35 25L36 25L36 24L35 24L35 25L34 25L34 24L33 24L33 23L32 23L32 24L33 24L33 25L32 25L32 26L31 26L31 27L32 27L32 28L31 28L31 29L32 29L32 30L31 30L31 31L26 31L26 27L25 27L25 26L26 26L26 24L27 24L27 23L30 23L30 24L29 24L29 25L30 25L30 24L31 24L31 22L29 22L29 20L30 20L30 19L32 19L32 18L30 18L30 19L28 19L28 20L27 20L27 18L23 18L23 19L22 19L22 17L24 17L24 16L23 16L23 13L22 13L22 15L21 15L21 16L22 16L22 17L20 17L20 16L19 16L19 15L20 15L20 14L21 14L21 11L20 11L20 13L19 13L19 10L18 10L18 11L17 11L17 10L16 10L16 11L15 11L15 9L16 9L16 8L15 8L15 7L16 7L16 3L17 3L17 5L20 5L20 6L19 6L19 7L18 7L18 6L17 6L17 7L18 7L18 8L20 8L20 9L21 9L21 7L22 7L22 6L23 6L23 7L24 7L24 8L22 8L22 12L24 12L24 13L25 13L25 14L24 14L24 15L25 15L25 16L26 16L26 15L27 15L27 14L26 14L26 13L27 13L27 12L28 12L28 11L29 11L29 14L30 14L30 10L28 10L28 9L27 9L27 10L28 10L28 11L26 11L26 6L25 6L25 4L28 4L28 2L27 2L27 3L25 3L25 4L24 4L24 5L21 5L21 4L18 4L18 3L20 3L20 2L21 2L21 1L19 1L19 2L18 2L18 1ZM25 1L25 2L26 2L26 1ZM44 1L44 2L47 2L47 1ZM38 2L38 3L39 3L39 4L38 4L38 6L37 6L37 5L36 5L36 6L35 6L35 8L38 8L38 9L42 9L42 8L41 8L41 7L42 7L42 6L43 6L43 8L44 8L44 9L45 9L45 10L42 10L42 11L41 11L41 12L42 12L42 11L46 11L46 12L47 12L47 11L49 11L49 10L47 10L47 11L46 11L46 9L45 9L45 8L46 8L46 5L47 5L47 3L46 3L46 4L45 4L45 5L44 5L44 3L43 3L43 5L42 5L42 4L41 4L41 5L40 5L40 3L39 3L39 2ZM27 5L27 8L30 8L30 5ZM39 5L39 6L38 6L38 7L39 7L39 6L40 6L40 7L41 7L41 6L42 6L42 5L41 5L41 6L40 6L40 5ZM8 6L8 7L9 7L9 6ZM12 6L12 8L13 8L13 6ZM14 6L14 7L15 7L15 6ZM20 6L20 7L21 7L21 6ZM24 6L24 7L25 7L25 6ZM28 6L28 7L29 7L29 6ZM32 6L32 7L33 7L33 6ZM36 6L36 7L37 7L37 6ZM44 6L44 7L45 7L45 6ZM0 8L0 10L1 10L1 11L2 11L2 12L3 12L3 11L4 11L4 9L2 9L2 8ZM24 8L24 9L23 9L23 11L24 11L24 12L25 12L25 11L24 11L24 10L25 10L25 8ZM12 9L12 10L14 10L14 9ZM2 10L2 11L3 11L3 10ZM13 11L13 13L12 13L12 14L13 14L13 15L12 15L12 16L11 16L11 15L10 15L10 16L11 16L11 18L12 18L12 20L13 20L13 21L14 21L14 23L15 23L15 20L16 20L16 19L17 19L17 18L18 18L18 17L19 17L19 18L20 18L20 17L19 17L19 16L18 16L18 17L17 17L17 16L16 16L16 15L17 15L17 14L16 14L16 12L17 12L17 11L16 11L16 12L14 12L14 11ZM50 12L50 13L51 13L51 12ZM14 13L14 15L15 15L15 13ZM18 13L18 15L19 15L19 13ZM37 13L37 14L36 14L36 15L37 15L37 14L38 14L38 13ZM45 13L45 14L47 14L47 13ZM54 13L54 14L55 14L55 13ZM42 15L42 16L43 16L43 15ZM52 15L52 16L53 16L53 15ZM2 16L2 17L3 17L3 16ZM12 16L12 18L13 18L13 20L14 20L14 19L16 19L16 18L17 18L17 17L16 17L16 18L14 18L14 17L15 17L15 16L14 16L14 17L13 17L13 16ZM36 16L36 17L35 17L35 19L37 19L37 17L38 17L38 16ZM40 17L40 18L39 18L39 19L38 19L38 20L36 20L36 21L37 21L37 22L39 22L39 23L40 23L40 25L41 25L41 23L42 23L42 24L43 24L43 21L40 21L40 20L41 20L41 17ZM56 17L56 20L57 20L57 17ZM18 19L18 21L19 21L19 22L20 22L20 23L18 23L18 25L17 25L17 26L16 26L16 24L14 24L14 25L12 25L12 27L14 27L14 29L13 29L13 30L14 30L14 31L15 31L15 30L16 30L16 29L17 29L17 31L18 31L18 30L20 30L20 32L18 32L18 33L19 33L19 34L18 34L18 35L20 35L20 34L21 34L21 33L22 33L22 32L21 32L21 30L20 30L20 29L21 29L21 28L20 28L20 29L19 29L19 27L20 27L20 24L21 24L21 26L22 26L22 27L23 27L23 28L22 28L22 29L24 29L24 28L25 28L25 27L23 27L23 26L25 26L25 23L26 23L26 22L28 22L28 21L26 21L26 19L25 19L25 20L23 20L23 21L24 21L24 22L23 22L23 23L22 23L22 20L21 20L21 22L20 22L20 21L19 21L19 19ZM1 20L1 21L2 21L2 20ZM6 20L6 21L7 21L7 20ZM38 20L38 21L39 21L39 22L40 22L40 23L41 23L41 22L40 22L40 21L39 21L39 20ZM16 21L16 22L17 22L17 21ZM25 21L25 22L26 22L26 21ZM6 22L6 23L7 23L7 22ZM44 22L44 23L45 23L45 22ZM53 22L53 24L54 24L54 25L53 25L53 27L55 27L55 26L54 26L54 25L55 25L55 24L54 24L54 22ZM23 23L23 25L24 25L24 23ZM9 25L9 26L10 26L10 25ZM14 25L14 26L15 26L15 25ZM18 25L18 26L17 26L17 27L18 27L18 26L19 26L19 25ZM27 25L27 26L28 26L28 25ZM38 26L38 27L37 27L37 28L39 28L39 27L40 27L40 28L41 28L41 26ZM2 27L2 28L4 28L4 27ZM5 27L5 30L8 30L8 27ZM15 27L15 28L16 28L16 27ZM27 27L27 30L30 30L30 27ZM42 27L42 28L43 28L43 27ZM44 27L44 28L45 28L45 27ZM49 27L49 30L52 30L52 27ZM6 28L6 29L7 29L7 28ZM17 28L17 29L18 29L18 28ZM28 28L28 29L29 29L29 28ZM50 28L50 29L51 29L51 28ZM54 28L54 29L53 29L53 31L51 31L51 32L50 32L50 33L51 33L51 32L53 32L53 31L54 31L54 30L55 30L55 31L56 31L56 30L55 30L55 28ZM5 32L5 33L7 33L7 32ZM45 32L45 33L46 33L46 32ZM0 34L0 36L1 36L1 37L0 37L0 39L1 39L1 38L2 38L2 36L1 36L1 34ZM12 34L12 36L14 36L14 37L12 37L12 38L14 38L14 39L13 39L13 40L14 40L14 39L15 39L15 40L16 40L16 41L18 41L18 42L20 42L20 41L19 41L19 40L18 40L18 39L20 39L20 38L18 38L18 37L19 37L19 36L18 36L18 37L17 37L17 36L16 36L16 35L15 35L15 36L14 36L14 35L13 35L13 34ZM25 34L25 35L26 35L26 34ZM29 34L29 35L30 35L30 34ZM6 36L6 37L7 37L7 36ZM24 37L24 38L22 38L22 39L24 39L24 40L25 40L25 39L26 39L26 37ZM7 39L7 40L6 40L6 41L7 41L7 42L8 42L8 43L9 43L9 44L10 44L10 43L9 43L9 42L10 42L10 41L9 41L9 40L8 40L8 39ZM16 39L16 40L17 40L17 39ZM52 40L52 43L51 43L51 44L53 44L53 42L54 42L54 41L53 41L53 40ZM36 41L36 42L37 42L37 41ZM41 42L41 43L43 43L43 44L44 44L44 45L43 45L43 46L42 46L42 47L43 47L43 49L44 49L44 47L45 47L45 49L46 49L46 50L47 50L47 51L46 51L46 52L44 52L44 53L43 53L43 54L41 54L41 50L42 50L42 52L43 52L43 51L45 51L45 50L42 50L42 49L41 49L41 50L40 50L40 49L39 49L39 46L37 46L37 47L36 47L36 48L37 48L37 49L38 49L38 50L37 50L37 51L38 51L38 50L40 50L40 53L39 53L39 52L37 52L37 53L36 53L36 54L37 54L37 56L39 56L39 54L41 54L41 55L43 55L43 54L44 54L44 53L46 53L46 54L47 54L47 55L48 55L48 54L47 54L47 53L48 53L48 52L47 52L47 51L48 51L48 49L46 49L46 48L50 48L50 47L49 47L49 46L50 46L50 44L47 44L47 47L45 47L45 46L46 46L46 45L45 45L45 44L46 44L46 42L45 42L45 44L44 44L44 43L43 43L43 42ZM32 43L32 44L31 44L31 45L32 45L32 44L33 44L33 43ZM36 43L36 44L37 44L37 43ZM11 44L11 45L12 45L12 44ZM14 44L14 45L15 45L15 44ZM25 45L25 48L30 48L30 47L26 47L26 45ZM44 45L44 46L43 46L43 47L44 47L44 46L45 46L45 45ZM48 45L48 46L49 46L49 45ZM10 47L10 49L9 49L9 51L10 51L10 52L12 52L12 51L11 51L11 50L12 50L12 49L11 49L11 48L12 48L12 47ZM16 47L16 48L17 48L17 47ZM34 47L34 48L35 48L35 47ZM6 48L6 49L7 49L7 48ZM56 48L56 49L55 49L55 50L57 50L57 48ZM10 49L10 50L11 50L11 49ZM27 49L27 52L30 52L30 49ZM49 49L49 52L52 52L52 49ZM21 50L21 51L22 51L22 52L23 52L23 51L22 51L22 50ZM28 50L28 51L29 51L29 50ZM50 50L50 51L51 51L51 50ZM25 51L25 53L26 53L26 51ZM35 51L35 52L36 52L36 51ZM54 51L54 52L57 52L57 51ZM37 53L37 54L38 54L38 53ZM20 54L20 55L21 55L21 54ZM53 54L53 55L54 55L54 54ZM18 55L18 56L19 56L19 55ZM35 55L35 56L36 56L36 55ZM15 56L15 57L16 57L16 56ZM0 0L0 7L7 7L7 0ZM1 1L1 6L6 6L6 1ZM2 2L2 5L5 5L5 2ZM50 0L50 7L57 7L57 0ZM51 1L51 6L56 6L56 1ZM52 2L52 5L55 5L55 2ZM0 50L0 57L7 57L7 50ZM1 51L1 56L6 56L6 51ZM2 52L2 55L5 55L5 52Z" fill="#000000"/></g></g></svg>
