<?xml version="1.0" encoding="UTF-8"?>
<svg xmlns="http://www.w3.org/2000/svg" version="1.1" width="300" height="300" viewBox="0 0 300 300"><rect x="0" y="0" width="300" height="300" fill="#ffffff"/><g transform="scale(4.918)"><g transform="translate(2,2)"><path fill-rule="evenodd" d="M9 0L9 1L8 1L8 2L9 2L9 3L8 3L8 4L9 4L9 3L11 3L11 4L14 4L14 7L13 7L13 6L12 6L12 7L13 7L13 8L10 8L10 10L8 10L8 9L9 9L9 8L6 8L6 9L7 9L7 10L4 10L4 9L5 9L5 8L0 8L0 9L1 9L1 10L0 10L0 11L2 11L2 14L1 14L1 12L0 12L0 15L1 15L1 16L0 16L0 18L1 18L1 19L0 19L0 20L2 20L2 21L1 21L1 23L0 23L0 24L2 24L2 25L0 25L0 29L2 29L2 30L4 30L4 31L1 31L1 32L0 32L0 33L1 33L1 32L2 32L2 34L1 34L1 35L0 35L0 36L1 36L1 39L0 39L0 43L1 43L1 44L0 44L0 45L2 45L2 47L1 47L1 46L0 46L0 48L5 48L5 47L7 47L7 48L6 48L6 49L8 49L8 51L9 51L9 52L8 52L8 57L10 57L10 54L11 54L11 52L12 52L12 53L13 53L13 54L14 54L14 53L13 53L13 52L14 52L14 51L13 51L13 50L15 50L15 52L17 52L17 51L18 51L18 53L19 53L19 54L20 54L20 55L19 55L19 56L16 56L16 55L15 55L15 57L19 57L19 56L23 56L23 57L24 57L24 56L25 56L25 57L26 57L26 55L27 55L27 56L28 56L28 55L27 55L27 53L28 53L28 54L29 54L29 55L30 55L30 56L29 56L29 57L31 57L31 55L32 55L32 56L33 56L33 57L37 57L37 56L38 56L38 57L39 57L39 56L38 56L38 55L37 55L37 54L38 54L38 53L39 53L39 55L40 55L40 52L41 52L41 51L42 51L42 52L43 52L43 53L41 53L41 55L42 55L42 54L43 54L43 53L44 53L44 54L45 54L45 53L44 53L44 51L42 51L42 50L46 50L46 53L47 53L47 55L46 55L46 56L45 56L45 57L47 57L47 56L49 56L49 57L50 57L50 53L51 53L51 54L53 54L53 51L54 51L54 52L55 52L55 51L56 51L56 50L57 50L57 47L56 47L56 46L57 46L57 43L56 43L56 42L57 42L57 41L54 41L54 40L55 40L55 39L57 39L57 37L53 37L53 36L55 36L55 35L53 35L53 34L52 34L52 36L50 36L50 37L48 37L48 38L47 38L47 39L49 39L49 40L51 40L51 39L49 39L49 38L51 38L51 37L53 37L53 40L52 40L52 41L48 41L48 42L43 42L43 39L41 39L41 41L39 41L39 39L40 39L40 38L39 38L39 39L38 39L38 37L40 37L40 36L41 36L41 35L40 35L40 32L41 32L41 34L43 34L43 33L42 33L42 32L46 32L46 33L44 33L44 34L46 34L46 35L45 35L45 36L46 36L46 37L47 37L47 36L46 36L46 35L48 35L48 33L47 33L47 32L48 32L48 31L49 31L49 35L50 35L50 33L54 33L54 34L57 34L57 33L54 33L54 32L56 32L56 30L57 30L57 28L56 28L56 29L54 29L54 28L55 28L55 27L56 27L56 26L57 26L57 25L56 25L56 26L55 26L55 25L54 25L54 26L55 26L55 27L53 27L53 25L52 25L52 24L55 24L55 23L56 23L56 24L57 24L57 23L56 23L56 22L57 22L57 20L56 20L56 19L55 19L55 18L57 18L57 17L56 17L56 16L55 16L55 15L56 15L56 14L57 14L57 11L54 11L54 10L52 10L52 8L51 8L51 10L49 10L49 9L50 9L50 8L49 8L49 9L48 9L48 8L47 8L47 9L48 9L48 10L46 10L46 8L45 8L45 6L44 6L44 8L45 8L45 10L43 10L43 9L42 9L42 7L43 7L43 4L41 4L41 5L40 5L40 3L47 3L47 5L46 5L46 4L44 4L44 5L46 5L46 7L47 7L47 5L48 5L48 0L45 0L45 1L47 1L47 2L42 2L42 1L44 1L44 0L42 0L42 1L41 1L41 2L40 2L40 1L38 1L38 0L35 0L35 1L33 1L33 0L32 0L32 1L31 1L31 0L28 0L28 1L26 1L26 0L21 0L21 2L22 2L22 1L23 1L23 2L25 2L25 3L24 3L24 4L22 4L22 3L21 3L21 4L22 4L22 7L21 7L21 6L20 6L20 5L19 5L19 6L18 6L18 8L17 8L17 4L20 4L20 3L17 3L17 4L16 4L16 3L15 3L15 2L14 2L14 1L16 1L16 2L20 2L20 0L19 0L19 1L18 1L18 0L17 0L17 1L16 1L16 0ZM9 1L9 2L10 2L10 1ZM12 1L12 2L11 2L11 3L13 3L13 1ZM25 1L25 2L26 2L26 1ZM28 1L28 2L27 2L27 3L28 3L28 4L29 4L29 3L28 3L28 2L31 2L31 1ZM32 1L32 2L33 2L33 3L32 3L32 4L31 4L31 8L34 8L34 10L33 10L33 11L32 11L32 13L31 13L31 14L32 14L32 15L31 15L31 16L30 16L30 15L26 15L26 16L24 16L24 15L25 15L25 14L28 14L28 13L29 13L29 14L30 14L30 13L29 13L29 12L30 12L30 11L31 11L31 10L32 10L32 9L31 9L31 10L30 10L30 11L29 11L29 9L26 9L26 6L25 6L25 4L26 4L26 3L25 3L25 4L24 4L24 5L23 5L23 7L22 7L22 8L21 8L21 7L20 7L20 6L19 6L19 9L20 9L20 11L19 11L19 10L18 10L18 9L17 9L17 8L16 8L16 6L15 6L15 7L14 7L14 9L13 9L13 11L12 11L12 9L11 9L11 10L10 10L10 11L9 11L9 13L8 13L8 12L7 12L7 11L6 11L6 12L5 12L5 11L3 11L3 10L2 10L2 11L3 11L3 12L5 12L5 13L6 13L6 14L7 14L7 13L8 13L8 15L9 15L9 17L8 17L8 16L7 16L7 15L5 15L5 14L4 14L4 13L3 13L3 14L2 14L2 16L7 16L7 17L6 17L6 18L7 18L7 19L6 19L6 20L7 20L7 21L4 21L4 20L5 20L5 19L4 19L4 18L5 18L5 17L3 17L3 19L4 19L4 20L3 20L3 21L2 21L2 23L3 23L3 24L5 24L5 23L6 23L6 24L7 24L7 25L6 25L6 26L7 26L7 25L8 25L8 26L10 26L10 27L9 27L9 29L10 29L10 30L9 30L9 31L8 31L8 32L7 32L7 31L5 31L5 32L3 32L3 33L4 33L4 34L2 34L2 35L4 35L4 36L3 36L3 37L2 37L2 38L5 38L5 39L1 39L1 40L2 40L2 41L1 41L1 43L3 43L3 42L5 42L5 41L6 41L6 42L7 42L7 43L6 43L6 44L4 44L4 45L3 45L3 44L2 44L2 45L3 45L3 47L5 47L5 46L8 46L8 49L9 49L9 47L10 47L10 48L11 48L11 47L10 47L10 46L11 46L11 45L10 45L10 44L11 44L11 43L8 43L8 42L11 42L11 41L12 41L12 43L13 43L13 44L12 44L12 45L13 45L13 46L12 46L12 48L13 48L13 49L11 49L11 50L10 50L10 51L11 51L11 50L13 50L13 49L14 49L14 48L15 48L15 47L13 47L13 46L14 46L14 43L15 43L15 46L17 46L17 47L16 47L16 48L17 48L17 49L16 49L16 50L17 50L17 49L18 49L18 51L21 51L21 52L19 52L19 53L21 53L21 54L22 54L22 55L23 55L23 56L24 56L24 55L23 55L23 54L24 54L24 53L23 53L23 52L26 52L26 51L23 51L23 50L22 50L22 51L21 51L21 49L20 49L20 48L21 48L21 47L20 47L20 48L19 48L19 47L18 47L18 45L20 45L20 46L22 46L22 47L23 47L23 48L22 48L22 49L25 49L25 48L29 48L29 47L30 47L30 48L31 48L31 50L32 50L32 51L31 51L31 52L32 52L32 54L33 54L33 55L35 55L35 53L36 53L36 52L40 52L40 51L41 51L41 50L42 50L42 49L46 49L46 50L47 50L47 51L48 51L48 48L49 48L49 47L51 47L51 48L54 48L54 49L55 49L55 50L56 50L56 49L55 49L55 48L56 48L56 47L55 47L55 46L56 46L56 45L55 45L55 44L56 44L56 43L55 43L55 44L54 44L54 45L55 45L55 46L54 46L54 47L51 47L51 46L53 46L53 45L51 45L51 44L49 44L49 45L48 45L48 44L47 44L47 45L46 45L46 46L47 46L47 48L42 48L42 47L43 47L43 46L42 46L42 45L43 45L43 44L44 44L44 47L45 47L45 44L44 44L44 43L43 43L43 42L42 42L42 43L43 43L43 44L41 44L41 42L40 42L40 44L39 44L39 41L38 41L38 42L37 42L37 43L38 43L38 44L39 44L39 45L36 45L36 48L35 48L35 47L34 47L34 48L35 48L35 49L34 49L34 50L32 50L32 49L33 49L33 48L31 48L31 47L30 47L30 46L32 46L32 47L33 47L33 46L35 46L35 44L36 44L36 43L35 43L35 41L34 41L34 40L35 40L35 39L36 39L36 38L37 38L37 37L38 37L38 36L40 36L40 35L36 35L36 34L39 34L39 33L36 33L36 34L35 34L35 33L34 33L34 34L31 34L31 32L32 32L32 33L33 33L33 32L32 32L32 31L25 31L25 30L26 30L26 27L25 27L25 26L26 26L26 25L32 25L32 26L35 26L35 27L36 27L36 26L37 26L37 28L40 28L40 30L39 30L39 29L37 29L37 30L35 30L35 29L33 29L33 28L34 28L34 27L32 27L32 29L31 29L31 30L32 30L32 29L33 29L33 30L35 30L35 31L34 31L34 32L40 32L40 31L41 31L41 32L42 32L42 31L46 31L46 32L47 32L47 31L48 31L48 30L47 30L47 29L48 29L48 27L47 27L47 25L49 25L49 26L51 26L51 25L49 25L49 24L52 24L52 23L50 23L50 22L51 22L51 18L53 18L53 16L54 16L54 17L55 17L55 16L54 16L54 15L55 15L55 14L54 14L54 13L56 13L56 12L54 12L54 11L53 11L53 12L52 12L52 11L49 11L49 10L48 10L48 11L46 11L46 10L45 10L45 11L44 11L44 13L43 13L43 14L42 14L42 11L43 11L43 10L41 10L41 12L40 12L40 11L39 11L39 9L41 9L41 7L42 7L42 5L41 5L41 7L40 7L40 6L39 6L39 7L38 7L38 6L37 6L37 5L36 5L36 3L37 3L37 2L38 2L38 3L39 3L39 2L38 2L38 1L37 1L37 2L36 2L36 1L35 1L35 2L33 2L33 1ZM14 3L14 4L15 4L15 5L16 5L16 4L15 4L15 3ZM38 4L38 5L39 5L39 4ZM8 5L8 7L9 7L9 6L10 6L10 7L11 7L11 5ZM27 5L27 8L30 8L30 5ZM34 5L34 7L35 7L35 8L36 8L36 12L34 12L34 11L35 11L35 10L34 10L34 11L33 11L33 13L38 13L38 12L39 12L39 11L38 11L38 9L39 9L39 8L36 8L36 7L37 7L37 6L36 6L36 5ZM24 6L24 7L23 7L23 8L24 8L24 9L21 9L21 8L20 8L20 9L21 9L21 11L20 11L20 13L18 13L18 12L16 12L16 11L15 11L15 13L18 13L18 15L15 15L15 14L14 14L14 13L13 13L13 12L14 12L14 11L13 11L13 12L12 12L12 11L11 11L11 12L10 12L10 13L9 13L9 14L10 14L10 15L14 15L14 16L13 16L13 17L14 17L14 16L16 16L16 17L15 17L15 18L13 18L13 19L14 19L14 20L13 20L13 21L12 21L12 19L11 19L11 21L10 21L10 19L9 19L9 18L12 18L12 17L9 17L9 18L8 18L8 20L9 20L9 21L7 21L7 22L6 22L6 23L7 23L7 22L9 22L9 21L10 21L10 22L11 22L11 21L12 21L12 22L13 22L13 23L14 23L14 22L13 22L13 21L15 21L15 22L16 22L16 21L15 21L15 18L16 18L16 17L19 17L19 18L18 18L18 19L19 19L19 18L20 18L20 17L21 17L21 19L20 19L20 20L21 20L21 21L19 21L19 20L18 20L18 21L19 21L19 22L18 22L18 23L17 23L17 24L16 24L16 23L15 23L15 24L16 24L16 25L14 25L14 24L13 24L13 28L12 28L12 29L13 29L13 30L15 30L15 29L17 29L17 30L16 30L16 31L14 31L14 32L16 32L16 33L14 33L14 35L13 35L13 32L12 32L12 30L10 30L10 31L11 31L11 32L9 32L9 33L11 33L11 32L12 32L12 35L13 35L13 37L14 37L14 35L15 35L15 37L16 37L16 38L13 38L13 40L12 40L12 41L13 41L13 43L14 43L14 42L15 42L15 43L16 43L16 42L15 42L15 41L18 41L18 42L17 42L17 43L18 43L18 42L20 42L20 43L19 43L19 44L20 44L20 45L22 45L22 44L21 44L21 43L22 43L22 42L26 42L26 43L27 43L27 44L28 44L28 45L27 45L27 46L25 46L25 45L26 45L26 44L25 44L25 43L23 43L23 44L25 44L25 45L23 45L23 47L24 47L24 48L25 48L25 47L29 47L29 46L28 46L28 45L29 45L29 44L30 44L30 43L31 43L31 42L30 42L30 43L29 43L29 42L28 42L28 43L27 43L27 42L26 42L26 41L28 41L28 40L29 40L29 39L31 39L31 40L30 40L30 41L32 41L32 42L33 42L33 41L32 41L32 40L34 40L34 38L33 38L33 39L31 39L31 38L32 38L32 35L30 35L30 34L29 34L29 35L30 35L30 36L29 36L29 37L28 37L28 36L27 36L27 35L26 35L26 34L27 34L27 33L30 33L30 32L26 32L26 34L25 34L25 33L22 33L22 32L20 32L20 31L23 31L23 30L25 30L25 29L23 29L23 28L25 28L25 27L24 27L24 26L25 26L25 25L26 25L26 24L25 24L25 23L26 23L26 22L25 22L25 21L26 21L26 18L27 18L27 20L28 20L28 18L27 18L27 17L28 17L28 16L26 16L26 17L21 17L21 16L20 16L20 15L19 15L19 14L20 14L20 13L22 13L22 12L21 12L21 11L22 11L22 10L25 10L25 8L24 8L24 7L25 7L25 6ZM28 6L28 7L29 7L29 6ZM32 6L32 7L33 7L33 6ZM35 6L35 7L36 7L36 6ZM48 6L48 7L49 7L49 6ZM15 8L15 9L14 9L14 10L15 10L15 9L16 9L16 8ZM53 8L53 9L54 9L54 8ZM55 8L55 10L57 10L57 9L56 9L56 8ZM17 10L17 11L18 11L18 10ZM26 10L26 11L27 11L27 12L25 12L25 11L24 11L24 12L25 12L25 13L23 13L23 14L21 14L21 15L24 15L24 14L25 14L25 13L28 13L28 12L29 12L29 11L27 11L27 10ZM48 11L48 12L49 12L49 11ZM6 12L6 13L7 13L7 12ZM11 12L11 14L12 14L12 12ZM45 12L45 13L44 13L44 14L45 14L45 15L44 15L44 16L43 16L43 15L42 15L42 14L41 14L41 13L40 13L40 14L33 14L33 15L32 15L32 16L31 16L31 17L29 17L29 18L31 18L31 19L29 19L29 20L31 20L31 21L28 21L28 22L27 22L27 24L29 24L29 22L31 22L31 23L30 23L30 24L31 24L31 23L33 23L33 24L35 24L35 25L37 25L37 26L38 26L38 27L40 27L40 28L41 28L41 27L40 27L40 26L43 26L43 27L42 27L42 28L43 28L43 29L42 29L42 30L41 30L41 31L42 31L42 30L43 30L43 29L44 29L44 30L46 30L46 31L47 31L47 30L46 30L46 29L47 29L47 28L46 28L46 27L45 27L45 25L46 25L46 22L45 22L45 21L44 21L44 23L43 23L43 21L42 21L42 20L46 20L46 19L48 19L48 21L47 21L47 23L48 23L48 24L49 24L49 23L48 23L48 22L50 22L50 19L49 19L49 18L50 18L50 17L49 17L49 16L52 16L52 15L49 15L49 14L50 14L50 13L51 13L51 14L52 14L52 13L51 13L51 12L50 12L50 13L47 13L47 14L46 14L46 12ZM3 14L3 15L4 15L4 14ZM40 14L40 15L41 15L41 14ZM18 15L18 16L19 16L19 17L20 17L20 16L19 16L19 15ZM33 15L33 16L32 16L32 19L34 19L34 18L37 18L37 19L35 19L35 20L34 20L34 21L33 21L33 20L32 20L32 21L33 21L33 22L35 22L35 23L36 23L36 22L39 22L39 20L40 20L40 21L41 21L41 20L42 20L42 19L43 19L43 18L44 18L44 19L45 19L45 18L47 18L47 17L48 17L48 16L49 16L49 15L46 15L46 17L45 17L45 16L44 16L44 17L43 17L43 18L42 18L42 17L41 17L41 16L39 16L39 15ZM33 16L33 18L34 18L34 16ZM35 16L35 17L37 17L37 18L38 18L38 19L40 19L40 20L41 20L41 19L42 19L42 18L40 18L40 17L39 17L39 16ZM38 17L38 18L39 18L39 17ZM21 19L21 20L22 20L22 21L21 21L21 22L22 22L22 21L23 21L23 22L24 22L24 21L23 21L23 20L25 20L25 19ZM36 20L36 21L37 21L37 20ZM52 20L52 21L53 21L53 20ZM54 20L54 21L56 21L56 20ZM19 22L19 23L20 23L20 22ZM40 22L40 23L37 23L37 25L38 25L38 26L40 26L40 25L43 25L43 24L40 24L40 23L41 23L41 22ZM53 22L53 23L55 23L55 22ZM22 23L22 24L19 24L19 25L20 25L20 27L19 27L19 28L21 28L21 29L19 29L19 30L17 30L17 31L16 31L16 32L17 32L17 33L16 33L16 34L17 34L17 35L16 35L16 37L17 37L17 39L18 39L18 40L20 40L20 42L21 42L21 41L24 41L24 40L25 40L25 39L26 39L26 38L28 38L28 37L27 37L27 36L25 36L25 35L23 35L23 34L21 34L21 33L20 33L20 32L19 32L19 33L18 33L18 31L20 31L20 30L21 30L21 29L22 29L22 30L23 30L23 29L22 29L22 28L21 28L21 27L22 27L22 26L23 26L23 24L24 24L24 23ZM44 23L44 25L45 25L45 23ZM8 24L8 25L10 25L10 26L11 26L11 27L12 27L12 26L11 26L11 25L12 25L12 24ZM38 24L38 25L39 25L39 24ZM4 25L4 26L1 26L1 28L3 28L3 29L4 29L4 28L3 28L3 27L4 27L4 26L5 26L5 25ZM16 25L16 27L15 27L15 26L14 26L14 27L15 27L15 28L16 28L16 27L18 27L18 25ZM21 25L21 26L22 26L22 25ZM5 27L5 30L8 30L8 27ZM27 27L27 30L30 30L30 27ZM44 27L44 29L45 29L45 27ZM49 27L49 30L52 30L52 27ZM6 28L6 29L7 29L7 28ZM10 28L10 29L11 29L11 28ZM13 28L13 29L14 29L14 28ZM17 28L17 29L18 29L18 28ZM28 28L28 29L29 29L29 28ZM50 28L50 29L51 29L51 28ZM53 29L53 30L54 30L54 29ZM37 30L37 31L39 31L39 30ZM24 31L24 32L25 32L25 31ZM51 31L51 32L54 32L54 31ZM6 32L6 33L5 33L5 34L4 34L4 35L5 35L5 38L6 38L6 39L7 39L7 38L6 38L6 37L8 37L8 38L9 38L9 37L8 37L8 36L9 36L9 35L7 35L7 34L8 34L8 33L7 33L7 32ZM6 33L6 34L5 34L5 35L6 35L6 36L7 36L7 35L6 35L6 34L7 34L7 33ZM19 33L19 34L18 34L18 35L19 35L19 34L20 34L20 35L21 35L21 34L20 34L20 33ZM46 33L46 34L47 34L47 33ZM10 34L10 36L11 36L11 34ZM34 34L34 35L35 35L35 34ZM42 35L42 37L41 37L41 38L43 38L43 37L44 37L44 38L45 38L45 39L44 39L44 40L45 40L45 41L47 41L47 40L46 40L46 38L45 38L45 37L44 37L44 35ZM56 35L56 36L57 36L57 35ZM18 36L18 37L20 37L20 36ZM24 36L24 37L21 37L21 39L23 39L23 40L24 40L24 39L23 39L23 38L24 38L24 37L25 37L25 36ZM30 36L30 38L31 38L31 36ZM33 36L33 37L35 37L35 36ZM36 36L36 37L37 37L37 36ZM11 38L11 39L12 39L12 38ZM19 38L19 39L20 39L20 38ZM54 38L54 39L55 39L55 38ZM8 39L8 41L10 41L10 39ZM14 39L14 40L13 40L13 41L14 41L14 40L16 40L16 39ZM27 39L27 40L28 40L28 39ZM37 39L37 40L38 40L38 39ZM3 40L3 41L4 41L4 40ZM6 40L6 41L7 41L7 40ZM52 41L52 42L53 42L53 43L52 43L52 44L53 44L53 43L54 43L54 41ZM48 42L48 43L49 43L49 42ZM50 42L50 43L51 43L51 42ZM28 43L28 44L29 44L29 43ZM32 43L32 44L31 44L31 45L32 45L32 44L34 44L34 43ZM6 44L6 45L7 45L7 44ZM8 44L8 46L9 46L9 44ZM16 44L16 45L18 45L18 44ZM4 45L4 46L5 46L5 45ZM40 45L40 46L37 46L37 48L36 48L36 49L35 49L35 50L34 50L34 51L35 51L35 52L33 52L33 51L32 51L32 52L33 52L33 53L35 53L35 52L36 52L36 51L39 51L39 50L40 50L40 48L41 48L41 47L42 47L42 46L41 46L41 45ZM47 45L47 46L48 46L48 45ZM50 45L50 46L51 46L51 45ZM24 46L24 47L25 47L25 46ZM40 46L40 47L38 47L38 48L37 48L37 50L39 50L39 48L40 48L40 47L41 47L41 46ZM54 47L54 48L55 48L55 47ZM18 48L18 49L19 49L19 48ZM27 49L27 52L30 52L30 49ZM49 49L49 52L52 52L52 49ZM28 50L28 51L29 51L29 50ZM35 50L35 51L36 51L36 50ZM50 50L50 51L51 51L51 50ZM12 51L12 52L13 52L13 51ZM9 52L9 54L10 54L10 52ZM21 52L21 53L22 53L22 54L23 54L23 53L22 53L22 52ZM47 52L47 53L48 53L48 54L49 54L49 53L48 53L48 52ZM15 53L15 54L16 54L16 53ZM25 53L25 55L26 55L26 53ZM29 53L29 54L30 54L30 53ZM54 53L54 55L51 55L51 57L52 57L52 56L54 56L54 57L56 57L56 56L55 56L55 53ZM36 55L36 56L37 56L37 55ZM43 55L43 57L44 57L44 55ZM11 56L11 57L13 57L13 56ZM0 0L0 7L7 7L7 0ZM1 1L1 6L6 6L6 1ZM2 2L2 5L5 5L5 2ZM50 0L50 7L57 7L57 0ZM51 1L51 6L56 6L56 1ZM52 2L52 5L55 5L55 2ZM0 50L0 57L7 57L7 50ZM1 51L1 56L6 56L6 51ZM2 52L2 55L5 55L5 52Z" fill="#000000"/></g></g></svg>
