<?xml version="1.0" encoding="UTF-8"?>
<svg xmlns="http://www.w3.org/2000/svg" version="1.1" width="300" height="300" viewBox="0 0 300 300"><rect x="0" y="0" width="300" height="300" fill="#ffffff"/><g transform="scale(4.918)"><g transform="translate(2,2)"><path fill-rule="evenodd" d="M11 0L11 1L8 1L8 2L9 2L9 3L8 3L8 4L10 4L10 3L11 3L11 5L10 5L10 7L9 7L9 5L8 5L8 7L9 7L9 8L6 8L6 9L5 9L5 8L0 8L0 11L1 11L1 12L0 12L0 16L1 16L1 14L2 14L2 13L3 13L3 12L4 12L4 11L1 11L1 9L2 9L2 10L3 10L3 9L5 9L5 11L7 11L7 10L8 10L8 12L6 12L6 13L7 13L7 14L6 14L6 15L5 15L5 17L7 17L7 18L4 18L4 19L1 19L1 22L0 22L0 23L2 23L2 22L3 22L3 24L5 24L5 25L4 25L4 31L8 31L8 33L7 33L7 32L4 32L4 33L2 33L2 31L3 31L3 29L2 29L2 28L1 28L1 30L2 30L2 31L0 31L0 35L1 35L1 33L2 33L2 35L4 35L4 36L0 36L0 37L1 37L1 38L2 38L2 37L4 37L4 38L5 38L5 39L3 39L3 40L2 40L2 39L0 39L0 41L3 41L3 42L2 42L2 43L3 43L3 42L5 42L5 40L6 40L6 41L7 41L7 42L6 42L6 43L5 43L5 44L2 44L2 45L0 45L0 48L5 48L5 47L7 47L7 48L6 48L6 49L8 49L8 51L9 51L9 48L8 48L8 47L7 47L7 46L8 46L8 44L9 44L9 46L11 46L11 47L10 47L10 48L11 48L11 47L12 47L12 49L10 49L10 51L13 51L13 52L12 52L12 53L11 53L11 52L8 52L8 57L9 57L9 53L11 53L11 54L12 54L12 53L13 53L13 54L14 54L14 53L15 53L15 54L16 54L16 53L15 53L15 52L18 52L18 53L19 53L19 54L18 54L18 55L17 55L17 57L21 57L21 56L22 56L22 55L24 55L24 56L23 56L23 57L24 57L24 56L26 56L26 54L27 54L27 53L28 53L28 54L29 54L29 55L30 55L30 56L29 56L29 57L31 57L31 56L33 56L33 55L35 55L35 56L34 56L34 57L38 57L38 55L37 55L37 54L38 54L38 53L39 53L39 56L41 56L41 57L44 57L44 56L45 56L45 55L43 55L43 56L41 56L41 55L42 55L42 54L43 54L43 53L44 53L44 54L45 54L45 53L46 53L46 52L48 52L48 53L47 53L47 56L48 56L48 55L49 55L49 56L50 56L50 55L51 55L51 57L52 57L52 56L55 56L55 57L56 57L56 56L55 56L55 54L53 54L53 53L54 53L54 52L55 52L55 50L57 50L57 48L56 48L56 46L57 46L57 45L56 45L56 44L55 44L55 43L56 43L56 42L55 42L55 41L54 41L54 43L53 43L53 42L51 42L51 41L53 41L53 40L55 40L55 39L57 39L57 37L56 37L56 34L57 34L57 33L56 33L56 32L57 32L57 31L56 31L56 30L57 30L57 27L56 27L56 30L55 30L55 29L54 29L54 28L55 28L55 27L53 27L53 26L52 26L52 24L54 24L54 26L57 26L57 25L56 25L56 24L55 24L55 23L56 23L56 22L57 22L57 21L56 21L56 20L57 20L57 19L56 19L56 20L55 20L55 18L57 18L57 15L56 15L56 14L57 14L57 12L56 12L56 14L55 14L55 13L54 13L54 14L53 14L53 16L55 16L55 17L54 17L54 18L53 18L53 17L51 17L51 16L52 16L52 15L51 15L51 14L52 14L52 13L51 13L51 12L50 12L50 13L51 13L51 14L49 14L49 13L47 13L47 14L46 14L46 12L45 12L45 10L44 10L44 11L42 11L42 14L39 14L39 15L40 15L40 16L38 16L38 17L40 17L40 16L45 16L45 18L46 18L46 19L44 19L44 18L43 18L43 17L41 17L41 18L43 18L43 20L42 20L42 19L40 19L40 18L36 18L36 19L38 19L38 20L36 20L36 21L37 21L37 22L36 22L36 23L35 23L35 22L34 22L34 21L32 21L32 20L33 20L33 19L28 19L28 18L27 18L27 17L28 17L28 16L25 16L25 13L26 13L26 14L27 14L27 15L29 15L29 13L30 13L30 16L36 16L36 17L37 17L37 16L36 16L36 15L35 15L35 14L33 14L33 15L32 15L32 13L31 13L31 12L30 12L30 10L31 10L31 9L32 9L32 10L34 10L34 11L32 11L32 12L33 12L33 13L36 13L36 14L38 14L38 12L41 12L41 11L37 11L37 10L38 10L38 9L37 9L37 6L36 6L36 5L37 5L37 3L36 3L36 5L35 5L35 6L34 6L34 7L35 7L35 6L36 6L36 8L35 8L35 9L37 9L37 10L36 10L36 12L34 12L34 11L35 11L35 10L34 10L34 8L33 8L33 6L32 6L32 7L31 7L31 4L32 4L32 3L33 3L33 4L35 4L35 1L36 1L36 2L37 2L37 1L38 1L38 3L39 3L39 4L40 4L40 5L41 5L41 6L40 6L40 8L39 8L39 5L38 5L38 8L39 8L39 9L40 9L40 8L41 8L41 10L43 10L43 9L44 9L44 8L45 8L45 6L46 6L46 9L47 9L47 10L46 10L46 11L47 11L47 10L50 10L50 11L52 11L52 12L53 12L53 11L54 11L54 12L55 12L55 11L56 11L56 10L57 10L57 9L56 9L56 8L55 8L55 11L54 11L54 10L53 10L53 11L52 11L52 10L50 10L50 8L49 8L49 6L48 6L48 8L49 8L49 9L47 9L47 5L48 5L48 0L45 0L45 1L47 1L47 2L43 2L43 3L47 3L47 5L46 5L46 4L44 4L44 5L45 5L45 6L44 6L44 8L43 8L43 4L40 4L40 3L41 3L41 2L42 2L42 1L44 1L44 0L42 0L42 1L41 1L41 2L39 2L39 1L40 1L40 0L39 0L39 1L38 1L38 0L37 0L37 1L36 1L36 0L35 0L35 1L34 1L34 0L33 0L33 1L34 1L34 2L32 2L32 1L31 1L31 0L29 0L29 1L31 1L31 4L30 4L30 3L29 3L29 2L28 2L28 3L27 3L27 2L26 2L26 0L23 0L23 2L24 2L24 4L22 4L22 3L21 3L21 4L22 4L22 5L24 5L24 4L25 4L25 6L24 6L24 7L23 7L23 6L22 6L22 7L21 7L21 6L20 6L20 5L19 5L19 6L18 6L18 7L19 7L19 6L20 6L20 7L21 7L21 8L22 8L22 7L23 7L23 8L24 8L24 9L21 9L21 11L20 11L20 8L17 8L17 4L20 4L20 3L19 3L19 1L20 1L20 2L22 2L22 0L21 0L21 1L20 1L20 0L19 0L19 1L16 1L16 0L13 0L13 1L15 1L15 2L13 2L13 4L14 4L14 5L13 5L13 6L12 6L12 0ZM27 0L27 1L28 1L28 0ZM16 2L16 4L15 4L15 3L14 3L14 4L15 4L15 5L14 5L14 6L13 6L13 7L12 7L12 6L11 6L11 9L13 9L13 7L14 7L14 10L12 10L12 11L11 11L11 10L10 10L10 11L11 11L11 12L8 12L8 14L7 14L7 15L6 15L6 16L7 16L7 17L9 17L9 18L7 18L7 19L6 19L6 20L7 20L7 21L6 21L6 22L5 22L5 21L4 21L4 22L5 22L5 23L6 23L6 24L9 24L9 25L5 25L5 26L10 26L10 27L13 27L13 26L14 26L14 25L16 25L16 26L15 26L15 28L14 28L14 30L15 30L15 28L17 28L17 29L16 29L16 31L13 31L13 30L11 30L11 29L13 29L13 28L10 28L10 30L9 30L9 33L10 33L10 35L9 35L9 34L8 34L8 35L6 35L6 34L7 34L7 33L6 33L6 34L5 34L5 33L4 33L4 35L6 35L6 36L7 36L7 37L6 37L6 38L7 38L7 39L6 39L6 40L7 40L7 41L8 41L8 42L7 42L7 43L6 43L6 44L7 44L7 43L8 43L8 42L9 42L9 41L10 41L10 40L9 40L9 39L12 39L12 40L13 40L13 41L12 41L12 43L10 43L10 44L12 44L12 47L13 47L13 48L15 48L15 46L14 46L14 42L15 42L15 41L16 41L16 42L18 42L18 43L17 43L17 44L18 44L18 45L16 45L16 46L17 46L17 47L16 47L16 48L17 48L17 47L18 47L18 48L19 48L19 49L16 49L16 51L17 51L17 50L21 50L21 52L19 52L19 51L18 51L18 52L19 52L19 53L21 53L21 54L22 54L22 53L23 53L23 54L24 54L24 53L23 53L23 52L24 52L24 51L25 51L25 53L26 53L26 51L25 51L25 50L26 50L26 48L29 48L29 46L30 46L30 44L31 44L31 45L33 45L33 46L32 46L32 47L33 47L33 48L31 48L31 50L32 50L32 51L31 51L31 52L32 52L32 54L37 54L37 53L36 53L36 52L37 52L37 51L36 51L36 52L35 52L35 53L34 53L34 52L32 52L32 51L33 51L33 50L36 50L36 48L39 48L39 49L37 49L37 50L39 50L39 52L40 52L40 55L41 55L41 53L42 53L42 52L43 52L43 50L44 50L44 53L45 53L45 50L47 50L47 51L48 51L48 48L49 48L49 47L51 47L51 45L52 45L52 47L53 47L53 48L54 48L54 49L56 49L56 48L54 48L54 47L53 47L53 46L56 46L56 45L55 45L55 44L54 44L54 45L52 45L52 44L53 44L53 43L52 43L52 44L51 44L51 45L50 45L50 44L49 44L49 43L48 43L48 44L47 44L47 45L46 45L46 46L47 46L47 47L46 47L46 48L43 48L43 50L41 50L41 48L39 48L39 47L36 47L36 46L40 46L40 47L41 47L41 46L42 46L42 47L43 47L43 46L42 46L42 45L43 45L43 44L44 44L44 45L45 45L45 44L44 44L44 43L45 43L45 42L49 42L49 41L51 41L51 40L50 40L50 39L51 39L51 38L53 38L53 36L52 36L52 34L53 34L53 35L54 35L54 34L53 34L53 33L51 33L51 34L50 34L50 32L49 32L49 31L48 31L48 29L46 29L46 30L44 30L44 29L45 29L45 28L44 28L44 26L47 26L47 27L46 27L46 28L47 28L47 27L48 27L48 25L49 25L49 26L51 26L51 25L50 25L50 24L52 24L52 23L55 23L55 22L54 22L54 21L55 21L55 20L54 20L54 21L53 21L53 20L52 20L52 21L51 21L51 17L50 17L50 22L49 22L49 23L50 23L50 24L48 24L48 25L46 25L46 24L47 24L47 21L46 21L46 20L48 20L48 19L49 19L49 18L48 18L48 19L46 19L46 20L43 20L43 22L42 22L42 20L40 20L40 19L39 19L39 20L40 20L40 21L38 21L38 23L36 23L36 24L35 24L35 23L34 23L34 22L33 22L33 23L34 23L34 24L32 24L32 23L31 23L31 22L30 22L30 20L28 20L28 19L27 19L27 18L26 18L26 17L25 17L25 18L26 18L26 20L28 20L28 22L27 22L27 21L25 21L25 22L26 22L26 23L25 23L25 24L24 24L24 23L23 23L23 22L24 22L24 21L23 21L23 18L22 18L22 21L21 21L21 20L19 20L19 21L18 21L18 20L15 20L15 21L13 21L13 20L14 20L14 19L13 19L13 18L15 18L15 16L14 16L14 15L15 15L15 14L17 14L17 15L16 15L16 16L18 16L18 15L19 15L19 17L16 17L16 18L17 18L17 19L18 19L18 18L19 18L19 19L21 19L21 17L20 17L20 15L22 15L22 17L24 17L24 15L23 15L23 13L25 13L25 12L27 12L27 11L26 11L26 10L27 10L27 9L26 9L26 6L25 6L25 7L24 7L24 8L25 8L25 12L24 12L24 11L23 11L23 10L22 10L22 11L21 11L21 12L22 12L22 13L19 13L19 10L18 10L18 9L16 9L16 6L15 6L15 5L16 5L16 4L17 4L17 3L18 3L18 2ZM25 3L25 4L26 4L26 3ZM28 3L28 4L29 4L29 3ZM27 5L27 8L30 8L30 5ZM14 6L14 7L15 7L15 6ZM28 6L28 7L29 7L29 6ZM41 6L41 8L42 8L42 6ZM32 8L32 9L33 9L33 8ZM51 8L51 9L52 9L52 8ZM53 8L53 9L54 9L54 8ZM6 9L6 10L7 10L7 9ZM8 9L8 10L9 10L9 9ZM15 9L15 10L16 10L16 11L18 11L18 10L16 10L16 9ZM28 10L28 11L29 11L29 10ZM12 11L12 12L11 12L11 14L9 14L9 15L7 15L7 16L9 16L9 17L10 17L10 19L9 19L9 20L8 20L8 19L7 19L7 20L8 20L8 22L9 22L9 20L10 20L10 21L11 21L11 20L10 20L10 19L11 19L11 17L10 17L10 16L11 16L11 15L14 15L14 13L13 13L13 14L12 14L12 12L14 12L14 11ZM48 11L48 12L49 12L49 11ZM1 12L1 13L2 13L2 12ZM16 12L16 13L18 13L18 14L19 14L19 15L20 15L20 14L19 14L19 13L18 13L18 12ZM28 12L28 13L27 13L27 14L28 14L28 13L29 13L29 12ZM44 12L44 13L43 13L43 14L42 14L42 15L43 15L43 14L44 14L44 13L45 13L45 12ZM3 14L3 15L4 15L4 14ZM54 14L54 15L55 15L55 16L56 16L56 15L55 15L55 14ZM45 15L45 16L46 16L46 18L47 18L47 17L49 17L49 16L51 16L51 15ZM2 16L2 17L0 17L0 18L2 18L2 17L3 17L3 16ZM13 16L13 17L14 17L14 16ZM29 17L29 18L31 18L31 17ZM32 17L32 18L34 18L34 19L35 19L35 18L34 18L34 17ZM2 20L2 21L3 21L3 20ZM12 21L12 22L13 22L13 23L11 23L11 22L10 22L10 24L11 24L11 25L10 25L10 26L11 26L11 25L14 25L14 22L13 22L13 21ZM15 21L15 22L16 22L16 21ZM17 21L17 22L18 22L18 23L17 23L17 24L16 24L16 23L15 23L15 24L16 24L16 25L19 25L19 26L18 26L18 27L17 27L17 28L18 28L18 29L17 29L17 30L18 30L18 31L16 31L16 33L15 33L15 34L14 34L14 33L12 33L12 32L13 32L13 31L11 31L11 30L10 30L10 32L11 32L11 34L13 34L13 37L12 37L12 36L11 36L11 35L10 35L10 36L8 36L8 38L9 38L9 37L10 37L10 38L11 38L11 37L12 37L12 39L13 39L13 40L14 40L14 41L15 41L15 39L16 39L16 41L18 41L18 42L19 42L19 45L18 45L18 47L19 47L19 45L22 45L22 44L20 44L20 43L22 43L22 42L20 42L20 41L21 41L21 40L20 40L20 41L19 41L19 39L20 39L20 38L19 38L19 39L17 39L17 38L18 38L18 37L20 37L20 36L19 36L19 34L18 34L18 33L19 33L19 32L20 32L20 33L21 33L21 34L20 34L20 35L21 35L21 37L22 37L22 38L21 38L21 39L23 39L23 40L24 40L24 39L23 39L23 38L24 38L24 37L26 37L26 38L25 38L25 41L23 41L23 42L26 42L26 43L28 43L28 42L26 42L26 41L30 41L30 43L29 43L29 44L28 44L28 45L27 45L27 46L26 46L26 47L27 47L27 46L28 46L28 45L29 45L29 44L30 44L30 43L31 43L31 44L34 44L34 43L35 43L35 45L37 45L37 44L38 44L38 45L40 45L40 46L41 46L41 45L40 45L40 44L43 44L43 43L44 43L44 42L45 42L45 41L44 41L44 40L43 40L43 39L42 39L42 38L43 38L43 37L44 37L44 38L45 38L45 39L46 39L46 41L47 41L47 39L50 39L50 38L51 38L51 37L52 37L52 36L51 36L51 35L50 35L50 38L49 38L49 36L48 36L48 35L49 35L49 34L48 34L48 33L47 33L47 34L45 34L45 36L48 36L48 38L47 38L47 39L46 39L46 38L45 38L45 37L44 37L44 35L43 35L43 37L42 37L42 35L40 35L40 36L39 36L39 34L37 34L37 32L38 32L38 33L39 33L39 32L43 32L43 33L41 33L41 34L43 34L43 33L44 33L44 32L46 32L46 31L47 31L47 32L48 32L48 31L47 31L47 30L46 30L46 31L44 31L44 30L43 30L43 29L44 29L44 28L43 28L43 27L42 27L42 28L43 28L43 29L42 29L42 30L41 30L41 29L40 29L40 30L41 30L41 31L39 31L39 32L38 32L38 31L37 31L37 30L38 30L38 29L39 29L39 28L40 28L40 27L41 27L41 26L44 26L44 24L45 24L45 23L46 23L46 22L45 22L45 21L44 21L44 23L43 23L43 24L42 24L42 25L40 25L40 24L41 24L41 23L40 23L40 22L39 22L39 23L38 23L38 24L39 24L39 26L38 26L38 25L37 25L37 24L36 24L36 25L35 25L35 24L34 24L34 25L35 25L35 26L32 26L32 25L30 25L30 24L31 24L31 23L30 23L30 22L28 22L28 23L27 23L27 24L29 24L29 26L28 26L28 25L26 25L26 24L25 24L25 25L24 25L24 24L23 24L23 25L22 25L22 24L21 24L21 23L22 23L22 22L23 22L23 21L22 21L22 22L21 22L21 21L19 21L19 22L18 22L18 21ZM6 22L6 23L7 23L7 22ZM19 22L19 23L20 23L20 22ZM50 22L50 23L51 23L51 22ZM29 23L29 24L30 24L30 23ZM39 23L39 24L40 24L40 23ZM0 24L0 25L1 25L1 26L2 26L2 27L3 27L3 25L1 25L1 24ZM19 24L19 25L20 25L20 28L21 28L21 29L19 29L19 30L20 30L20 32L21 32L21 33L22 33L22 34L21 34L21 35L22 35L22 37L24 37L24 35L25 35L25 36L28 36L28 37L27 37L27 38L26 38L26 39L27 39L27 40L28 40L28 39L27 39L27 38L28 38L28 37L29 37L29 36L30 36L30 38L31 38L31 39L29 39L29 40L31 40L31 41L32 41L32 42L33 42L33 43L34 43L34 42L37 42L37 43L38 43L38 44L40 44L40 43L41 43L41 42L42 42L42 43L43 43L43 42L44 42L44 41L43 41L43 42L42 42L42 41L41 41L41 40L40 40L40 39L41 39L41 38L42 38L42 37L41 37L41 36L40 36L40 38L39 38L39 36L37 36L37 35L36 35L36 32L37 32L37 31L36 31L36 32L35 32L35 31L34 31L34 32L31 32L31 31L33 31L33 30L37 30L37 29L38 29L38 28L39 28L39 27L37 27L37 29L33 29L33 28L34 28L34 27L31 27L31 28L32 28L32 30L31 30L31 31L30 31L30 33L27 33L27 31L25 31L25 30L26 30L26 27L25 27L25 26L26 26L26 25L25 25L25 26L24 26L24 25L23 25L23 26L24 26L24 27L23 27L23 29L22 29L22 28L21 28L21 27L22 27L22 25L21 25L21 24ZM36 25L36 26L37 26L37 25ZM5 27L5 30L8 30L8 27ZM27 27L27 30L30 30L30 27ZM35 27L35 28L36 28L36 27ZM49 27L49 30L52 30L52 27ZM6 28L6 29L7 29L7 28ZM28 28L28 29L29 29L29 28ZM50 28L50 29L51 29L51 28ZM21 29L21 30L22 30L22 31L21 31L21 32L23 32L23 31L24 31L24 33L23 33L23 34L25 34L25 35L27 35L27 34L25 34L25 33L26 33L26 32L25 32L25 31L24 31L24 30L25 30L25 29L23 29L23 30L22 30L22 29ZM53 29L53 30L54 30L54 31L52 31L52 32L54 32L54 33L55 33L55 34L56 34L56 33L55 33L55 32L54 32L54 31L55 31L55 30L54 30L54 29ZM42 30L42 31L43 31L43 32L44 32L44 31L43 31L43 30ZM28 31L28 32L29 32L29 31ZM34 32L34 33L35 33L35 32ZM16 33L16 34L17 34L17 35L16 35L16 37L14 37L14 38L13 38L13 39L15 39L15 38L16 38L16 37L18 37L18 34L17 34L17 33ZM29 34L29 35L30 35L30 36L31 36L31 38L32 38L32 34L31 34L31 35L30 35L30 34ZM33 34L33 36L35 36L35 34ZM4 36L4 37L5 37L5 36ZM10 36L10 37L11 37L11 36ZM36 36L36 37L35 37L35 38L34 38L34 37L33 37L33 39L31 39L31 40L33 40L33 41L37 41L37 42L38 42L38 41L37 41L37 40L38 40L38 39L39 39L39 38L38 38L38 39L35 39L35 38L37 38L37 36ZM54 36L54 37L55 37L55 36ZM54 38L54 39L55 39L55 38ZM33 39L33 40L34 40L34 39ZM3 40L3 41L4 41L4 40ZM8 40L8 41L9 41L9 40ZM40 41L40 42L39 42L39 43L40 43L40 42L41 42L41 41ZM0 42L0 43L1 43L1 42ZM50 42L50 43L51 43L51 42ZM15 43L15 44L16 44L16 43ZM24 43L24 44L25 44L25 45L23 45L23 46L24 46L24 47L22 47L22 46L20 46L20 47L22 47L22 48L23 48L23 50L25 50L25 45L26 45L26 44L25 44L25 43ZM2 45L2 46L1 46L1 47L2 47L2 46L3 46L3 47L5 47L5 46L7 46L7 45L4 45L4 46L3 46L3 45ZM48 45L48 46L50 46L50 45ZM13 46L13 47L14 47L14 46ZM33 46L33 47L35 47L35 48L33 48L33 49L35 49L35 48L36 48L36 47L35 47L35 46ZM44 46L44 47L45 47L45 46ZM20 48L20 49L21 49L21 50L22 50L22 49L21 49L21 48ZM12 49L12 50L13 50L13 51L14 51L14 52L13 52L13 53L14 53L14 52L15 52L15 50L13 50L13 49ZM27 49L27 52L30 52L30 49ZM39 49L39 50L40 50L40 49ZM49 49L49 52L52 52L52 49ZM28 50L28 51L29 51L29 50ZM50 50L50 51L51 51L51 50ZM40 51L40 52L41 52L41 51ZM21 52L21 53L22 53L22 52ZM56 52L56 53L57 53L57 52ZM29 53L29 54L30 54L30 53ZM49 53L49 55L50 55L50 54L51 54L51 55L53 55L53 54L51 54L51 53ZM19 54L19 55L20 55L20 54ZM14 55L14 57L16 57L16 55ZM27 55L27 56L28 56L28 55ZM10 56L10 57L13 57L13 56ZM0 0L0 7L7 7L7 0ZM1 1L1 6L6 6L6 1ZM2 2L2 5L5 5L5 2ZM50 0L50 7L57 7L57 0ZM51 1L51 6L56 6L56 1ZM52 2L52 5L55 5L55 2ZM0 50L0 57L7 57L7 50ZM1 51L1 56L6 56L6 51ZM2 52L2 55L5 55L5 52Z" fill="#000000"/></g></g></svg>
