<?xml version="1.0" encoding="UTF-8"?>
<svg xmlns="http://www.w3.org/2000/svg" version="1.1" width="300" height="300" viewBox="0 0 300 300"><rect x="0" y="0" width="300" height="300" fill="#ffffff"/><g transform="scale(4.918)"><g transform="translate(2,2)"><path fill-rule="evenodd" d="M9 0L9 1L8 1L8 2L9 2L9 3L8 3L8 4L9 4L9 5L8 5L8 7L9 7L9 6L10 6L10 7L11 7L11 8L6 8L6 9L5 9L5 8L0 8L0 9L2 9L2 15L1 15L1 12L0 12L0 16L1 16L1 17L2 17L2 18L1 18L1 19L0 19L0 20L1 20L1 19L2 19L2 21L0 21L0 25L2 25L2 26L0 26L0 27L1 27L1 28L0 28L0 29L1 29L1 28L3 28L3 27L4 27L4 29L2 29L2 30L4 30L4 31L2 31L2 32L4 32L4 33L7 33L7 34L6 34L6 35L8 35L8 36L3 36L3 33L2 33L2 35L0 35L0 36L3 36L3 37L5 37L5 38L2 38L2 37L0 37L0 39L1 39L1 38L2 38L2 41L0 41L0 44L1 44L1 45L0 45L0 48L5 48L5 47L7 47L7 48L6 48L6 49L8 49L8 51L11 51L11 52L10 52L10 53L9 53L9 52L8 52L8 57L9 57L9 56L10 56L10 57L11 57L11 55L13 55L13 54L12 54L12 53L11 53L11 52L12 52L12 51L14 51L14 53L15 53L15 54L14 54L14 56L12 56L12 57L16 57L16 55L15 55L15 54L16 54L16 53L15 53L15 51L16 51L16 52L17 52L17 53L19 53L19 54L20 54L20 55L18 55L18 56L17 56L17 57L19 57L19 56L20 56L20 57L21 57L21 55L24 55L24 54L26 54L26 55L25 55L25 56L24 56L24 57L26 57L26 56L28 56L28 55L27 55L27 53L28 53L28 54L29 54L29 56L30 56L30 57L32 57L32 56L31 56L31 55L33 55L33 57L34 57L34 56L35 56L35 57L37 57L37 56L36 56L36 55L38 55L38 52L39 52L39 56L41 56L41 55L42 55L42 54L43 54L43 53L44 53L44 54L45 54L45 55L44 55L44 56L43 56L43 57L44 57L44 56L45 56L45 55L47 55L47 56L46 56L46 57L47 57L47 56L49 56L49 55L51 55L51 56L50 56L50 57L52 57L52 56L53 56L53 57L56 57L56 56L55 56L55 55L54 55L54 52L55 52L55 51L56 51L56 52L57 52L57 51L56 51L56 50L57 50L57 49L56 49L56 50L55 50L55 49L53 49L53 47L52 47L52 45L54 45L54 46L57 46L57 44L56 44L56 45L54 45L54 44L55 44L55 43L56 43L56 42L57 42L57 41L56 41L56 42L55 42L55 41L54 41L54 43L53 43L53 42L52 42L52 43L53 43L53 44L51 44L51 43L50 43L50 42L51 42L51 41L53 41L53 40L56 40L56 39L53 39L53 40L52 40L52 39L49 39L49 37L47 37L47 38L45 38L45 37L44 37L44 35L40 35L40 36L36 36L36 37L35 37L35 38L34 38L34 35L35 35L35 34L33 34L33 38L34 38L34 39L35 39L35 40L33 40L33 39L31 39L31 38L32 38L32 34L31 34L31 32L33 32L33 33L34 33L34 31L35 31L35 30L36 30L36 31L37 31L37 32L35 32L35 33L36 33L36 35L39 35L39 34L43 34L43 32L45 32L45 33L44 33L44 34L45 34L45 36L51 36L51 37L50 37L50 38L51 38L51 37L52 37L52 36L53 36L53 37L54 37L54 36L56 36L56 37L57 37L57 36L56 36L56 34L57 34L57 33L56 33L56 32L55 32L55 30L57 30L57 28L56 28L56 26L57 26L57 25L55 25L55 23L56 23L56 24L57 24L57 23L56 23L56 22L57 22L57 21L55 21L55 22L53 22L53 21L54 21L54 20L57 20L57 19L56 19L56 18L57 18L57 17L55 17L55 18L51 18L51 20L53 20L53 21L52 21L52 22L50 22L50 17L51 17L51 16L53 16L53 17L54 17L54 16L56 16L56 15L55 15L55 14L57 14L57 11L56 11L56 10L57 10L57 9L56 9L56 8L55 8L55 9L56 9L56 10L55 10L55 11L54 11L54 10L52 10L52 8L51 8L51 10L50 10L50 8L49 8L49 6L48 6L48 8L49 8L49 9L48 9L48 10L50 10L50 11L49 11L49 13L47 13L47 14L46 14L46 12L45 12L45 10L46 10L46 11L47 11L47 10L46 10L46 9L44 9L44 8L46 8L46 7L47 7L47 5L48 5L48 0L46 0L46 1L45 1L45 0L44 0L44 1L43 1L43 0L42 0L42 1L34 1L34 0L29 0L29 1L27 1L27 2L28 2L28 3L26 3L26 5L25 5L25 4L24 4L24 3L25 3L25 2L26 2L26 0L21 0L21 2L22 2L22 1L23 1L23 2L24 2L24 3L23 3L23 4L22 4L22 3L21 3L21 4L22 4L22 7L23 7L23 6L24 6L24 7L25 7L25 6L26 6L26 8L25 8L25 9L23 9L23 10L22 10L22 9L21 9L21 8L19 8L19 6L20 6L20 7L21 7L21 6L20 6L20 5L18 5L18 4L20 4L20 3L19 3L19 2L20 2L20 0L19 0L19 1L16 1L16 2L13 2L13 3L12 3L12 2L11 2L11 1L15 1L15 0ZM24 1L24 2L25 2L25 1ZM29 1L29 2L31 2L31 1ZM32 1L32 2L34 2L34 1ZM42 1L42 2L43 2L43 1ZM44 1L44 2L45 2L45 1ZM46 1L46 2L47 2L47 1ZM16 2L16 4L15 4L15 3L14 3L14 4L12 4L12 5L11 5L11 4L10 4L10 6L11 6L11 7L12 7L12 8L11 8L11 11L12 11L12 10L13 10L13 11L14 11L14 12L13 12L13 13L12 13L12 12L11 12L11 13L10 13L10 12L8 12L8 11L6 11L6 10L7 10L7 9L6 9L6 10L5 10L5 9L4 9L4 13L3 13L3 14L5 14L5 16L4 16L4 15L3 15L3 16L2 16L2 17L3 17L3 18L2 18L2 19L4 19L4 18L7 18L7 19L5 19L5 21L3 21L3 24L2 24L2 25L3 25L3 26L8 26L8 22L9 22L9 23L10 23L10 25L9 25L9 26L10 26L10 25L11 25L11 26L12 26L12 27L14 27L14 28L12 28L12 30L11 30L11 31L9 31L9 32L11 32L11 33L12 33L12 34L9 34L9 33L8 33L8 34L9 34L9 36L10 36L10 38L16 38L16 37L17 37L17 40L16 40L16 39L15 39L15 40L14 40L14 39L12 39L12 40L10 40L10 39L9 39L9 38L7 38L7 37L6 37L6 38L5 38L5 39L6 39L6 40L7 40L7 41L6 41L6 42L5 42L5 40L4 40L4 39L3 39L3 41L2 41L2 42L1 42L1 44L2 44L2 45L1 45L1 47L2 47L2 45L3 45L3 47L5 47L5 46L4 46L4 45L3 45L3 44L5 44L5 43L6 43L6 44L8 44L8 45L6 45L6 46L7 46L7 47L8 47L8 49L9 49L9 50L10 50L10 49L9 49L9 47L8 47L8 45L9 45L9 46L12 46L12 45L13 45L13 43L14 43L14 42L15 42L15 43L16 43L16 42L18 42L18 43L17 43L17 44L18 44L18 45L16 45L16 44L14 44L14 47L12 47L12 48L13 48L13 49L15 49L15 50L14 50L14 51L15 51L15 50L17 50L17 52L19 52L19 53L21 53L21 54L22 54L22 53L23 53L23 52L24 52L24 53L26 53L26 51L25 51L25 50L24 50L24 51L22 51L22 53L21 53L21 50L22 50L22 49L26 49L26 48L32 48L32 49L33 49L33 48L34 48L34 50L32 50L32 51L31 51L31 52L32 52L32 54L33 54L33 55L36 55L36 54L37 54L37 53L36 53L36 52L38 52L38 50L39 50L39 52L40 52L40 55L41 55L41 54L42 54L42 53L43 53L43 52L42 52L42 51L43 51L43 50L44 50L44 53L45 53L45 54L47 54L47 53L48 53L48 52L47 52L47 51L48 51L48 48L50 48L50 47L51 47L51 48L52 48L52 47L51 47L51 46L50 46L50 47L49 47L49 46L48 46L48 44L47 44L47 45L46 45L46 46L48 46L48 47L46 47L46 48L44 48L44 47L43 47L43 46L44 46L44 45L45 45L45 44L44 44L44 43L43 43L43 44L40 44L40 45L41 45L41 46L42 46L42 47L41 47L41 48L38 48L38 47L36 47L36 46L35 46L35 44L36 44L36 43L34 43L34 42L35 42L35 41L34 41L34 42L31 42L31 41L33 41L33 40L31 40L31 39L27 39L27 38L29 38L29 37L28 37L28 36L30 36L30 38L31 38L31 35L29 35L29 33L30 33L30 31L25 31L25 32L24 32L24 30L23 30L23 31L22 31L22 29L25 29L25 30L26 30L26 27L23 27L23 25L24 25L24 24L21 24L21 25L20 25L20 24L19 24L19 23L20 23L20 22L19 22L19 21L21 21L21 22L22 22L22 21L24 21L24 20L27 20L27 21L25 21L25 22L23 22L23 23L25 23L25 22L26 22L26 24L25 24L25 26L26 26L26 25L27 25L27 24L28 24L28 25L31 25L31 26L32 26L32 27L31 27L31 28L32 28L32 29L31 29L31 31L32 31L32 29L33 29L33 30L35 30L35 29L33 29L33 28L34 28L34 27L35 27L35 28L36 28L36 26L37 26L37 27L38 27L38 30L37 30L37 29L36 29L36 30L37 30L37 31L38 31L38 32L39 32L39 33L37 33L37 34L39 34L39 33L42 33L42 32L39 32L39 29L41 29L41 30L40 30L40 31L41 31L41 30L42 30L42 31L45 31L45 32L46 32L46 33L45 33L45 34L47 34L47 33L48 33L48 35L51 35L51 36L52 36L52 34L53 34L53 36L54 36L54 34L55 34L55 32L54 32L54 31L52 31L52 32L53 32L53 33L51 33L51 32L49 32L49 31L48 31L48 28L47 28L47 27L48 27L48 25L49 25L49 24L50 24L50 26L51 26L51 25L53 25L53 27L55 27L55 26L54 26L54 25L53 25L53 24L51 24L51 23L50 23L50 22L49 22L49 23L48 23L48 21L49 21L49 20L47 20L47 19L49 19L49 18L47 18L47 17L46 17L46 18L45 18L45 16L44 16L44 15L45 15L45 12L44 12L44 13L43 13L43 14L42 14L42 10L40 10L40 9L41 9L41 8L44 8L44 6L45 6L45 7L46 7L46 5L47 5L47 3L43 3L43 5L42 5L42 6L41 6L41 3L40 3L40 5L39 5L39 2L38 2L38 6L37 6L37 5L36 5L36 3L37 3L37 2L35 2L35 3L34 3L34 4L33 4L33 3L32 3L32 4L31 4L31 3L30 3L30 4L31 4L31 7L32 7L32 6L33 6L33 7L34 7L34 6L35 6L35 7L36 7L36 8L37 8L37 9L38 9L38 11L40 11L40 12L38 12L38 14L37 14L37 15L35 15L35 16L34 16L34 18L33 18L33 16L30 16L30 15L32 15L32 13L33 13L33 14L36 14L36 13L33 13L33 12L32 12L32 11L33 11L33 10L35 10L35 8L34 8L34 9L33 9L33 8L32 8L32 9L31 9L31 10L29 10L29 9L25 9L25 12L24 12L24 13L23 13L23 11L24 11L24 10L23 10L23 11L22 11L22 10L21 10L21 9L20 9L20 10L21 10L21 12L22 12L22 13L23 13L23 16L22 16L22 14L21 14L21 13L20 13L20 12L19 12L19 10L18 10L18 9L17 9L17 8L16 8L16 6L15 6L15 5L16 5L16 4L18 4L18 2ZM28 3L28 4L29 4L29 3ZM14 4L14 5L12 5L12 7L13 7L13 6L14 6L14 7L15 7L15 6L14 6L14 5L15 5L15 4ZM23 4L23 5L24 5L24 4ZM44 4L44 5L45 5L45 4ZM27 5L27 8L30 8L30 5ZM35 5L35 6L36 6L36 7L37 7L37 8L40 8L40 7L41 7L41 6L40 6L40 7L39 7L39 6L38 6L38 7L37 7L37 6L36 6L36 5ZM17 6L17 7L18 7L18 6ZM28 6L28 7L29 7L29 6ZM42 6L42 7L43 7L43 6ZM13 8L13 9L14 9L14 8ZM15 8L15 9L16 9L16 8ZM53 8L53 9L54 9L54 8ZM8 9L8 10L9 10L9 11L10 11L10 9ZM0 10L0 11L1 11L1 10ZM16 10L16 11L18 11L18 10ZM26 10L26 11L27 11L27 12L25 12L25 13L24 13L24 14L25 14L25 13L28 13L28 14L27 14L27 15L30 15L30 14L31 14L31 13L32 13L32 12L31 12L31 11L32 11L32 10L31 10L31 11L29 11L29 10ZM5 11L5 12L6 12L6 13L5 13L5 14L6 14L6 15L7 15L7 14L8 14L8 17L9 17L9 18L11 18L11 20L10 20L10 19L9 19L9 20L8 20L8 19L7 19L7 20L6 20L6 21L5 21L5 22L4 22L4 24L3 24L3 25L4 25L4 24L6 24L6 25L7 25L7 24L6 24L6 23L7 23L7 22L8 22L8 21L11 21L11 22L10 22L10 23L12 23L12 24L13 24L13 23L14 23L14 25L12 25L12 26L14 26L14 27L15 27L15 28L16 28L16 29L15 29L15 31L17 31L17 32L15 32L15 35L13 35L13 34L14 34L14 32L13 32L13 34L12 34L12 36L11 36L11 37L14 37L14 36L15 36L15 37L16 37L16 36L15 36L15 35L16 35L16 33L19 33L19 31L21 31L21 32L20 32L20 33L21 33L21 34L24 34L24 35L26 35L26 36L27 36L27 35L26 35L26 34L25 34L25 33L21 33L21 32L22 32L22 31L21 31L21 30L19 30L19 29L21 29L21 28L23 28L23 27L22 27L22 25L21 25L21 26L20 26L20 25L19 25L19 24L18 24L18 23L19 23L19 22L18 22L18 21L19 21L19 20L18 20L18 21L17 21L17 22L18 22L18 23L17 23L17 26L15 26L15 25L16 25L16 23L14 23L14 22L13 22L13 21L15 21L15 22L16 22L16 21L15 21L15 20L16 20L16 18L15 18L15 17L16 17L16 16L17 16L17 17L19 17L19 18L17 18L17 19L19 19L19 18L20 18L20 17L19 17L19 15L18 15L18 14L20 14L20 13L18 13L18 12L15 12L15 13L18 13L18 14L17 14L17 15L14 15L14 13L13 13L13 14L12 14L12 13L11 13L11 14L12 14L12 16L11 16L11 15L10 15L10 13L9 13L9 14L8 14L8 13L7 13L7 12L6 12L6 11ZM34 11L34 12L35 12L35 11ZM36 11L36 12L37 12L37 11ZM50 11L50 13L49 13L49 14L51 14L51 15L50 15L50 16L51 16L51 15L54 15L54 13L56 13L56 11L55 11L55 12L54 12L54 11L53 11L53 12L52 12L52 11ZM28 12L28 13L29 13L29 12ZM30 12L30 13L31 13L31 12ZM6 13L6 14L7 14L7 13ZM51 13L51 14L52 14L52 13ZM40 14L40 16L38 16L38 15L37 15L37 16L35 16L35 18L34 18L34 19L32 19L32 17L29 17L29 18L31 18L31 19L30 19L30 20L29 20L29 21L27 21L27 23L28 23L28 24L29 24L29 22L31 22L31 23L30 23L30 24L31 24L31 25L32 25L32 24L33 24L33 25L34 25L34 24L35 24L35 25L37 25L37 26L38 26L38 25L39 25L39 24L40 24L40 22L39 22L39 24L38 24L38 23L37 23L37 22L38 22L38 19L40 19L40 20L39 20L39 21L40 21L40 20L41 20L41 19L42 19L42 20L46 20L46 21L47 21L47 20L46 20L46 19L47 19L47 18L46 18L46 19L44 19L44 16L43 16L43 15L44 15L44 14L43 14L43 15L42 15L42 14ZM13 15L13 16L12 16L12 17L11 17L11 16L10 16L10 17L11 17L11 18L12 18L12 20L11 20L11 21L12 21L12 20L14 20L14 19L13 19L13 16L14 16L14 17L15 17L15 16L14 16L14 15ZM17 15L17 16L18 16L18 15ZM20 15L20 16L21 16L21 15ZM24 15L24 16L25 16L25 17L21 17L21 19L22 19L22 18L23 18L23 20L24 20L24 18L25 18L25 17L26 17L26 18L27 18L27 19L28 19L28 17L27 17L27 16L25 16L25 15ZM41 15L41 16L40 16L40 17L37 17L37 18L40 18L40 19L41 19L41 18L42 18L42 19L43 19L43 18L42 18L42 17L41 17L41 16L42 16L42 15ZM46 15L46 16L48 16L48 17L49 17L49 15ZM6 16L6 17L7 17L7 16ZM35 18L35 21L34 21L34 22L33 22L33 23L34 23L34 22L35 22L35 24L37 24L37 25L38 25L38 24L37 24L37 23L36 23L36 22L37 22L37 21L36 21L36 20L37 20L37 19L36 19L36 18ZM53 19L53 20L54 20L54 19ZM21 20L21 21L22 21L22 20ZM30 20L30 21L31 21L31 20ZM32 20L32 21L33 21L33 20ZM6 21L6 22L7 22L7 21ZM41 21L41 22L43 22L43 21ZM44 21L44 24L45 24L45 25L48 25L48 23L47 23L47 22L45 22L45 21ZM52 22L52 23L53 23L53 22ZM31 23L31 24L32 24L32 23ZM41 23L41 25L40 25L40 26L43 26L43 27L42 27L42 28L43 28L43 29L42 29L42 30L44 30L44 28L45 28L45 30L46 30L46 31L47 31L47 32L48 32L48 31L47 31L47 30L46 30L46 29L47 29L47 28L46 28L46 27L47 27L47 26L46 26L46 27L45 27L45 26L43 26L43 25L42 25L42 23ZM45 23L45 24L47 24L47 23ZM17 26L17 27L16 27L16 28L17 28L17 29L16 29L16 30L17 30L17 29L18 29L18 28L17 28L17 27L18 27L18 26ZM19 26L19 28L20 28L20 26ZM33 26L33 27L32 27L32 28L33 28L33 27L34 27L34 26ZM5 27L5 30L8 30L8 27ZM27 27L27 30L30 30L30 27ZM39 27L39 28L40 28L40 27ZM49 27L49 30L52 30L52 27ZM6 28L6 29L7 29L7 28ZM10 28L10 29L9 29L9 30L10 30L10 29L11 29L11 28ZM28 28L28 29L29 29L29 28ZM50 28L50 29L51 29L51 28ZM54 28L54 29L53 29L53 30L55 30L55 28ZM13 29L13 31L14 31L14 29ZM18 30L18 31L19 31L19 30ZM0 31L0 32L1 32L1 31ZM4 31L4 32L7 32L7 31ZM11 31L11 32L12 32L12 31ZM26 32L26 33L29 33L29 32ZM0 33L0 34L1 34L1 33ZM4 34L4 35L5 35L5 34ZM19 34L19 35L18 35L18 36L17 36L17 37L20 37L20 34ZM22 35L22 36L21 36L21 37L22 37L22 38L23 38L23 41L22 41L22 39L21 39L21 40L20 40L20 41L19 41L19 40L17 40L17 41L18 41L18 42L19 42L19 45L18 45L18 46L16 46L16 45L15 45L15 47L17 47L17 48L15 48L15 49L19 49L19 50L18 50L18 51L19 51L19 52L20 52L20 51L19 51L19 50L20 50L20 49L21 49L21 48L20 48L20 47L19 47L19 48L18 48L18 46L19 46L19 45L21 45L21 47L22 47L22 44L20 44L20 41L22 41L22 43L24 43L24 44L23 44L23 45L24 45L24 46L23 46L23 47L24 47L24 48L25 48L25 45L26 45L26 44L25 44L25 43L26 43L26 42L25 42L25 41L28 41L28 40L26 40L26 38L27 38L27 37L26 37L26 38L25 38L25 37L22 37L22 36L23 36L23 35ZM40 36L40 38L39 38L39 37L38 37L38 38L37 38L37 39L36 39L36 38L35 38L35 39L36 39L36 40L37 40L37 41L36 41L36 42L40 42L40 43L42 43L42 42L40 42L40 41L41 41L41 40L42 40L42 39L44 39L44 42L45 42L45 43L48 43L48 42L47 42L47 41L48 41L48 40L47 40L47 39L48 39L48 38L47 38L47 39L45 39L45 38L44 38L44 37L43 37L43 38L42 38L42 37L41 37L41 36ZM6 38L6 39L7 39L7 40L8 40L8 39L7 39L7 38ZM19 38L19 39L20 39L20 38ZM24 38L24 39L25 39L25 38ZM9 40L9 42L10 42L10 45L12 45L12 44L11 44L11 43L12 43L12 42L10 42L10 40ZM12 40L12 41L13 41L13 42L14 42L14 41L13 41L13 40ZM24 40L24 41L23 41L23 42L24 42L24 43L25 43L25 42L24 42L24 41L25 41L25 40ZM30 40L30 41L29 41L29 42L30 42L30 43L29 43L29 44L28 44L28 45L27 45L27 46L26 46L26 47L32 47L32 48L33 48L33 47L35 47L35 48L36 48L36 49L35 49L35 50L34 50L34 51L32 51L32 52L33 52L33 53L34 53L34 51L35 51L35 52L36 52L36 51L37 51L37 50L38 50L38 49L37 49L37 48L36 48L36 47L35 47L35 46L33 46L33 45L32 45L32 44L34 44L34 43L31 43L31 42L30 42L30 41L31 41L31 40ZM38 40L38 41L39 41L39 40ZM45 40L45 41L47 41L47 40ZM49 40L49 41L51 41L51 40ZM3 41L3 42L2 42L2 43L4 43L4 41ZM6 42L6 43L7 43L7 42ZM30 43L30 44L29 44L29 45L28 45L28 46L29 46L29 45L30 45L30 46L31 46L31 45L30 45L30 44L31 44L31 43ZM37 43L37 44L39 44L39 43ZM24 44L24 45L25 45L25 44ZM43 44L43 45L42 45L42 46L43 46L43 45L44 45L44 44ZM49 44L49 45L51 45L51 44ZM37 45L37 46L39 46L39 45ZM32 46L32 47L33 47L33 46ZM10 47L10 48L11 48L11 47ZM42 47L42 48L41 48L41 49L39 49L39 50L41 50L41 51L40 51L40 52L41 52L41 51L42 51L42 50L43 50L43 49L44 49L44 50L46 50L46 51L47 51L47 50L46 50L46 49L44 49L44 48L43 48L43 47ZM54 47L54 48L55 48L55 47ZM56 47L56 48L57 48L57 47ZM19 48L19 49L20 49L20 48ZM27 49L27 52L30 52L30 49ZM41 49L41 50L42 50L42 49ZM49 49L49 52L52 52L52 49ZM28 50L28 51L29 51L29 50ZM35 50L35 51L36 51L36 50ZM50 50L50 51L51 51L51 50ZM53 50L53 52L54 52L54 50ZM24 51L24 52L25 52L25 51ZM46 52L46 53L47 53L47 52ZM10 53L10 54L11 54L11 53ZM29 53L29 54L30 54L30 53ZM35 53L35 54L36 54L36 53ZM49 53L49 54L51 54L51 55L53 55L53 54L51 54L51 53ZM0 0L0 7L7 7L7 0ZM1 1L1 6L6 6L6 1ZM2 2L2 5L5 5L5 2ZM50 0L50 7L57 7L57 0ZM51 1L51 6L56 6L56 1ZM52 2L52 5L55 5L55 2ZM0 50L0 57L7 57L7 50ZM1 51L1 56L6 56L6 51ZM2 52L2 55L5 55L5 52Z" fill="#000000"/></g></g></svg>
