<?xml version="1.0" encoding="UTF-8"?>
<svg xmlns="http://www.w3.org/2000/svg" version="1.1" width="300" height="300" viewBox="0 0 300 300"><rect x="0" y="0" width="300" height="300" fill="#ffffff"/><g transform="scale(4.918)"><g transform="translate(2,2)"><path fill-rule="evenodd" d="M9 0L9 1L8 1L8 2L9 2L9 1L12 1L12 3L10 3L10 5L8 5L8 7L9 7L9 6L10 6L10 7L11 7L11 4L12 4L12 5L16 5L16 4L14 4L14 2L13 2L13 1L15 1L15 3L16 3L16 0L13 0L13 1L12 1L12 0ZM21 0L21 1L23 1L23 2L24 2L24 3L23 3L23 4L22 4L22 2L20 2L20 3L21 3L21 4L19 4L19 3L18 3L18 4L19 4L19 5L20 5L20 7L19 7L19 6L18 6L18 7L19 7L19 8L16 8L16 7L17 7L17 6L16 6L16 7L15 7L15 6L14 6L14 7L13 7L13 6L12 6L12 9L11 9L11 8L6 8L6 9L5 9L5 8L0 8L0 9L2 9L2 10L1 10L1 12L3 12L3 11L2 11L2 10L4 10L4 11L5 11L5 13L7 13L7 14L6 14L6 15L5 15L5 14L3 14L3 13L2 13L2 15L1 15L1 16L0 16L0 17L2 17L2 18L1 18L1 19L0 19L0 21L1 21L1 22L0 22L0 23L1 23L1 22L3 22L3 20L4 20L4 21L5 21L5 23L2 23L2 24L1 24L1 26L0 26L0 27L1 27L1 28L2 28L2 27L1 27L1 26L2 26L2 24L5 24L5 25L3 25L3 26L4 26L4 27L3 27L3 29L0 29L0 32L1 32L1 33L0 33L0 34L5 34L5 38L4 38L4 36L3 36L3 37L2 37L2 36L1 36L1 37L0 37L0 42L1 42L1 44L0 44L0 48L5 48L5 47L7 47L7 46L9 46L9 47L8 47L8 51L9 51L9 52L8 52L8 57L11 57L11 56L10 56L10 55L11 55L11 54L12 54L12 55L13 55L13 56L12 56L12 57L13 57L13 56L14 56L14 54L15 54L15 55L16 55L16 56L15 56L15 57L19 57L19 56L18 56L18 55L17 55L17 53L20 53L20 52L21 52L21 53L22 53L22 54L21 54L21 55L22 55L22 54L24 54L24 53L25 53L25 54L26 54L26 56L25 56L25 57L26 57L26 56L28 56L28 55L27 55L27 53L28 53L28 54L30 54L30 53L31 53L31 55L34 55L34 56L30 56L30 55L29 55L29 56L30 56L30 57L37 57L37 56L38 56L38 55L39 55L39 56L41 56L41 55L40 55L40 52L42 52L42 54L43 54L43 53L44 53L44 54L45 54L45 53L46 53L46 51L47 51L47 52L48 52L48 53L47 53L47 54L48 54L48 55L47 55L47 56L48 56L48 57L49 57L49 56L50 56L50 55L51 55L51 57L52 57L52 56L55 56L55 57L56 57L56 56L55 56L55 54L54 54L54 55L51 55L51 54L53 54L53 48L55 48L55 50L57 50L57 49L56 49L56 48L55 48L55 47L56 47L56 46L57 46L57 43L56 43L56 42L55 42L55 41L54 41L54 43L53 43L53 42L51 42L51 41L52 41L52 40L55 40L55 39L57 39L57 37L56 37L56 38L55 38L55 37L54 37L54 36L55 36L55 35L54 35L54 36L53 36L53 34L52 34L52 36L49 36L49 37L48 37L48 38L46 38L46 36L45 36L45 37L44 37L44 35L42 35L42 34L43 34L43 33L42 33L42 32L45 32L45 34L46 34L46 35L50 35L50 32L51 32L51 33L54 33L54 34L57 34L57 33L56 33L56 30L57 30L57 29L54 29L54 28L57 28L57 27L56 27L56 26L57 26L57 23L56 23L56 22L57 22L57 20L56 20L56 21L53 21L53 22L52 22L52 24L51 24L51 26L50 26L50 23L51 23L51 22L50 22L50 19L49 19L49 18L50 18L50 17L49 17L49 16L50 16L50 11L51 11L51 10L53 10L53 11L52 11L52 12L53 12L53 11L54 11L54 12L55 12L55 11L56 11L56 12L57 12L57 11L56 11L56 10L57 10L57 9L56 9L56 8L55 8L55 9L56 9L56 10L55 10L55 11L54 11L54 10L53 10L53 9L54 9L54 8L53 8L53 9L52 9L52 8L51 8L51 10L49 10L49 9L50 9L50 8L49 8L49 6L48 6L48 8L46 8L46 7L47 7L47 5L48 5L48 0L46 0L46 1L47 1L47 2L42 2L42 3L41 3L41 2L39 2L39 1L45 1L45 0L39 0L39 1L37 1L37 0L35 0L35 1L34 1L34 0L33 0L33 1L34 1L34 2L37 2L37 3L36 3L36 5L35 5L35 6L34 6L34 8L36 8L36 9L35 9L35 10L34 10L34 9L33 9L33 11L32 11L32 12L31 12L31 14L30 14L30 13L28 13L28 12L30 12L30 10L32 10L32 9L31 9L31 8L32 8L32 7L33 7L33 6L32 6L32 7L31 7L31 4L32 4L32 3L33 3L33 4L35 4L35 3L33 3L33 2L31 2L31 4L28 4L28 3L30 3L30 1L31 1L31 0L30 0L30 1L29 1L29 0L28 0L28 1L26 1L26 0L24 0L24 1L23 1L23 0ZM18 1L18 2L19 2L19 1ZM25 1L25 3L26 3L26 4L25 4L25 8L26 8L26 4L27 4L27 3L28 3L28 2L26 2L26 1ZM8 3L8 4L9 4L9 3ZM12 3L12 4L13 4L13 3ZM37 3L37 4L38 4L38 5L36 5L36 6L35 6L35 7L36 7L36 8L37 8L37 7L38 7L38 10L37 10L37 9L36 9L36 10L35 10L35 11L34 11L34 12L37 12L37 11L41 11L41 12L38 12L38 13L36 13L36 14L35 14L35 13L33 13L33 12L32 12L32 14L31 14L31 15L32 15L32 14L35 14L35 15L34 15L34 16L30 16L30 14L29 14L29 15L28 15L28 16L27 16L27 14L28 14L28 13L25 13L25 12L27 12L27 11L29 11L29 9L25 9L25 12L24 12L24 10L23 10L23 9L24 9L24 6L23 6L23 5L24 5L24 4L23 4L23 5L22 5L22 4L21 4L21 7L22 7L22 8L21 8L21 9L20 9L20 11L19 11L19 14L21 14L21 13L22 13L22 15L24 15L24 14L23 14L23 13L25 13L25 14L26 14L26 16L25 16L25 17L26 17L26 18L24 18L24 19L19 19L19 17L20 17L20 18L21 18L21 17L20 17L20 16L21 16L21 15L20 15L20 16L19 16L19 15L18 15L18 14L17 14L17 13L18 13L18 12L17 12L17 13L13 13L13 12L14 12L14 11L13 11L13 10L14 10L14 9L15 9L15 12L16 12L16 11L18 11L18 10L19 10L19 9L18 9L18 10L17 10L17 9L16 9L16 8L14 8L14 9L13 9L13 10L11 10L11 9L10 9L10 10L11 10L11 12L12 12L12 14L11 14L11 15L9 15L9 20L7 20L7 19L6 19L6 20L7 20L7 21L6 21L6 22L7 22L7 23L6 23L6 24L7 24L7 23L9 23L9 22L8 22L8 21L10 21L10 17L11 17L11 18L12 18L12 19L11 19L11 20L13 20L13 21L11 21L11 22L12 22L12 25L11 25L11 26L10 26L10 24L11 24L11 23L10 23L10 24L8 24L8 26L9 26L9 27L11 27L11 26L13 26L13 27L12 27L12 28L10 28L10 30L9 30L9 31L8 31L8 32L10 32L10 34L9 34L9 36L7 36L7 35L8 35L8 34L7 34L7 33L5 33L5 34L7 34L7 35L6 35L6 36L7 36L7 37L6 37L6 38L7 38L7 39L6 39L6 40L5 40L5 39L4 39L4 38L3 38L3 40L1 40L1 41L2 41L2 42L3 42L3 43L5 43L5 44L4 44L4 45L3 45L3 44L2 44L2 45L1 45L1 47L2 47L2 45L3 45L3 47L5 47L5 44L8 44L8 45L9 45L9 46L10 46L10 47L9 47L9 49L11 49L11 51L10 51L10 52L11 52L11 51L12 51L12 53L14 53L14 52L16 52L16 53L15 53L15 54L16 54L16 53L17 53L17 51L18 51L18 52L20 52L20 51L21 51L21 49L24 49L24 47L26 47L26 48L25 48L25 50L26 50L26 48L32 48L32 49L31 49L31 52L32 52L32 54L34 54L34 55L35 55L35 56L36 56L36 54L37 54L37 55L38 55L38 54L39 54L39 53L38 53L38 54L37 54L37 53L35 53L35 52L36 52L36 50L40 50L40 51L37 51L37 52L40 52L40 51L42 51L42 52L43 52L43 51L44 51L44 53L45 53L45 51L46 51L46 50L47 50L47 51L48 51L48 48L49 48L49 47L51 47L51 48L53 48L53 46L54 46L54 47L55 47L55 46L54 46L54 45L55 45L55 44L54 44L54 45L51 45L51 44L49 44L49 43L48 43L48 44L47 44L47 45L46 45L46 46L47 46L47 47L46 47L46 50L41 50L41 49L42 49L42 48L40 48L40 45L41 45L41 46L42 46L42 47L44 47L44 46L45 46L45 44L39 44L39 43L40 43L40 42L41 42L41 36L42 36L42 37L43 37L43 39L46 39L46 40L44 40L44 41L43 41L43 40L42 40L42 41L43 41L43 43L46 43L46 42L48 42L48 41L51 41L51 39L55 39L55 38L53 38L53 37L52 37L52 38L51 38L51 37L50 37L50 40L49 40L49 39L46 39L46 38L44 38L44 37L43 37L43 36L42 36L42 35L41 35L41 34L42 34L42 33L41 33L41 32L42 32L42 31L46 31L46 30L47 30L47 31L48 31L48 32L46 32L46 34L47 34L47 33L48 33L48 34L49 34L49 32L50 32L50 31L48 31L48 28L47 28L47 27L48 27L48 25L49 25L49 24L48 24L48 25L45 25L45 24L46 24L46 23L50 23L50 22L47 22L47 19L46 19L46 18L47 18L47 17L46 17L46 18L45 18L45 16L49 16L49 15L45 15L45 16L43 16L43 17L44 17L44 19L45 19L45 20L43 20L43 18L41 18L41 16L42 16L42 15L43 15L43 14L42 14L42 10L41 10L41 9L42 9L42 8L41 8L41 7L42 7L42 5L40 5L40 4L41 4L41 3L40 3L40 4L39 4L39 3ZM42 3L42 4L43 4L43 7L44 7L44 6L45 6L45 7L46 7L46 6L45 6L45 5L47 5L47 3ZM44 4L44 5L45 5L45 4ZM27 5L27 8L30 8L30 5ZM22 6L22 7L23 7L23 6ZM28 6L28 7L29 7L29 6ZM36 6L36 7L37 7L37 6ZM38 6L38 7L39 7L39 6ZM40 6L40 7L41 7L41 6ZM44 8L44 9L43 9L43 12L44 12L44 14L45 14L45 12L46 12L46 14L47 14L47 13L49 13L49 12L48 12L48 11L49 11L49 10L48 10L48 9L49 9L49 8L48 8L48 9L45 9L45 8ZM6 9L6 10L5 10L5 11L6 11L6 12L7 12L7 11L9 11L9 9ZM21 9L21 10L22 10L22 11L21 11L21 12L20 12L20 13L21 13L21 12L22 12L22 13L23 13L23 10L22 10L22 9ZM44 9L44 11L47 11L47 10L45 10L45 9ZM6 10L6 11L7 11L7 10ZM26 10L26 11L27 11L27 10ZM8 13L8 14L10 14L10 13ZM40 13L40 14L36 14L36 15L35 15L35 16L34 16L34 17L35 17L35 16L36 16L36 18L37 18L37 19L40 19L40 20L38 20L38 21L37 21L37 20L36 20L36 21L37 21L37 22L36 22L36 23L39 23L39 24L42 24L42 22L43 22L43 20L42 20L42 21L41 21L41 23L40 23L40 20L41 20L41 19L40 19L40 17L39 17L39 18L37 18L37 16L38 16L38 15L39 15L39 16L41 16L41 15L42 15L42 14L41 14L41 13ZM51 13L51 14L52 14L52 13ZM56 13L56 14L53 14L53 15L52 15L52 16L51 16L51 17L52 17L52 18L51 18L51 20L52 20L52 19L54 19L54 20L55 20L55 18L57 18L57 17L52 17L52 16L55 16L55 15L56 15L56 16L57 16L57 15L56 15L56 14L57 14L57 13ZM15 14L15 15L13 15L13 16L11 16L11 17L14 17L14 18L16 18L16 17L17 17L17 19L18 19L18 21L20 21L20 20L19 20L19 19L18 19L18 17L19 17L19 16L18 16L18 17L17 17L17 14ZM40 14L40 15L41 15L41 14ZM6 15L6 16L4 16L4 17L3 17L3 18L4 18L4 20L5 20L5 18L4 18L4 17L6 17L6 18L7 18L7 17L6 17L6 16L8 16L8 15ZM15 15L15 16L14 16L14 17L16 17L16 15ZM36 15L36 16L37 16L37 15ZM22 16L22 17L24 17L24 16ZM26 16L26 17L27 17L27 18L28 18L28 19L27 19L27 20L28 20L28 19L29 19L29 18L33 18L33 19L30 19L30 20L29 20L29 21L25 21L25 20L26 20L26 19L25 19L25 20L24 20L24 21L21 21L21 23L23 23L23 25L22 25L22 24L21 24L21 25L22 25L22 26L21 26L21 27L22 27L22 26L24 26L24 27L23 27L23 29L24 29L24 30L22 30L22 31L21 31L21 30L20 30L20 31L21 31L21 32L18 32L18 33L19 33L19 34L18 34L18 35L20 35L20 33L21 33L21 36L23 36L23 37L19 37L19 36L17 36L17 38L18 38L18 37L19 37L19 38L20 38L20 39L18 39L18 40L16 40L16 39L15 39L15 40L14 40L14 38L13 38L13 39L12 39L12 40L11 40L11 39L10 39L10 38L11 38L11 37L15 37L15 38L16 38L16 37L15 37L15 35L17 35L17 34L16 34L16 33L17 33L17 32L16 32L16 33L13 33L13 34L12 34L12 32L14 32L14 31L15 31L15 29L18 29L18 30L19 30L19 29L22 29L22 28L20 28L20 25L19 25L19 23L20 23L20 22L17 22L17 21L16 21L16 19L15 19L15 21L16 21L16 22L14 22L14 21L13 21L13 24L14 24L14 25L13 25L13 26L14 26L14 27L13 27L13 29L11 29L11 30L10 30L10 31L11 31L11 35L10 35L10 36L9 36L9 37L7 37L7 38L9 38L9 39L10 39L10 40L8 40L8 39L7 39L7 40L6 40L6 41L5 41L5 40L4 40L4 41L3 41L3 42L4 42L4 41L5 41L5 42L6 42L6 43L8 43L8 42L6 42L6 41L7 41L7 40L8 40L8 41L9 41L9 44L11 44L11 45L12 45L12 43L13 43L13 42L15 42L15 41L18 41L18 43L17 43L17 42L16 42L16 44L15 44L15 43L14 43L14 44L15 44L15 45L17 45L17 46L18 46L18 47L19 47L19 45L21 45L21 46L20 46L20 47L21 47L21 48L20 48L20 49L19 49L19 48L18 48L18 49L17 49L17 47L15 47L15 48L13 48L13 47L14 47L14 45L13 45L13 46L11 46L11 49L12 49L12 50L13 50L13 51L15 51L15 49L17 49L17 50L16 50L16 51L17 51L17 50L18 50L18 51L19 51L19 50L20 50L20 49L21 49L21 48L23 48L23 47L22 47L22 45L23 45L23 46L25 46L25 45L26 45L26 44L27 44L27 45L32 45L32 43L31 43L31 42L32 42L32 41L31 41L31 40L32 40L32 39L31 39L31 38L32 38L32 35L31 35L31 34L34 34L34 35L38 35L38 36L36 36L36 37L35 37L35 38L34 38L34 40L35 40L35 44L36 44L36 45L37 45L37 44L38 44L38 45L39 45L39 44L38 44L38 43L39 43L39 42L38 42L38 41L37 41L37 38L38 38L38 36L39 36L39 38L40 38L40 36L41 36L41 35L40 35L40 36L39 36L39 34L40 34L40 32L41 32L41 31L42 31L42 30L46 30L46 29L47 29L47 28L46 28L46 26L45 26L45 27L44 27L44 26L43 26L43 25L44 25L44 24L43 24L43 25L39 25L39 26L43 26L43 27L42 27L42 28L43 28L43 29L42 29L42 30L41 30L41 29L39 29L39 30L41 30L41 31L40 31L40 32L39 32L39 31L38 31L38 32L39 32L39 34L37 34L37 32L36 32L36 31L37 31L37 30L38 30L38 29L37 29L37 28L36 28L36 27L35 27L35 26L36 26L36 25L37 25L37 27L38 27L38 28L39 28L39 27L38 27L38 24L34 24L34 23L33 23L33 21L34 21L34 19L35 19L35 18L33 18L33 17L29 17L29 16L28 16L28 17L27 17L27 16ZM13 19L13 20L14 20L14 19ZM48 19L48 20L49 20L49 19ZM1 20L1 21L2 21L2 20ZM32 20L32 21L33 21L33 20ZM24 21L24 22L23 22L23 23L24 23L24 25L25 25L25 26L26 26L26 25L27 25L27 24L28 24L28 26L29 26L29 24L30 24L30 23L31 23L31 24L33 24L33 23L31 23L31 22L27 22L27 24L25 24L25 23L26 23L26 22L25 22L25 21ZM38 21L38 22L39 22L39 21ZM44 21L44 23L45 23L45 21ZM53 22L53 23L55 23L55 22ZM15 23L15 24L16 24L16 23ZM17 23L17 24L18 24L18 23ZM28 23L28 24L29 24L29 23ZM52 24L52 25L53 25L53 27L55 27L55 26L54 26L54 25L55 25L55 24L54 24L54 25L53 25L53 24ZM6 25L6 26L7 26L7 25ZM15 25L15 28L16 28L16 27L17 27L17 28L18 28L18 29L19 29L19 26L18 26L18 27L17 27L17 25ZM31 25L31 26L32 26L32 25ZM33 25L33 28L31 28L31 32L32 32L32 33L34 33L34 34L36 34L36 32L35 32L35 31L36 31L36 28L35 28L35 29L33 29L33 28L34 28L34 26L35 26L35 25ZM5 27L5 30L8 30L8 27ZM24 27L24 29L25 29L25 30L26 30L26 27ZM27 27L27 30L30 30L30 27ZM40 27L40 28L41 28L41 27ZM43 27L43 28L44 28L44 29L45 29L45 28L44 28L44 27ZM49 27L49 30L52 30L52 27ZM6 28L6 29L7 29L7 28ZM28 28L28 29L29 29L29 28ZM50 28L50 29L51 29L51 28ZM32 29L32 32L33 32L33 31L35 31L35 30L33 30L33 29ZM3 30L3 31L4 31L4 32L2 32L2 33L4 33L4 32L5 32L5 31L4 31L4 30ZM12 30L12 31L14 31L14 30ZM16 30L16 31L17 31L17 30ZM53 30L53 31L52 31L52 32L54 32L54 33L55 33L55 32L54 32L54 30ZM6 31L6 32L7 32L7 31ZM22 31L22 33L24 33L24 31ZM25 31L25 32L26 32L26 33L25 33L25 34L24 34L24 36L25 36L25 38L26 38L26 35L27 35L27 37L28 37L28 38L27 38L27 39L28 39L28 40L31 40L31 39L29 39L29 35L30 35L30 34L29 34L29 33L30 33L30 31ZM27 32L27 33L29 33L29 32ZM13 34L13 35L11 35L11 36L13 36L13 35L15 35L15 34ZM22 34L22 35L23 35L23 34ZM25 34L25 35L26 35L26 34ZM56 35L56 36L57 36L57 35ZM30 36L30 38L31 38L31 36ZM1 37L1 38L2 38L2 37ZM9 37L9 38L10 38L10 37ZM23 37L23 38L22 38L22 39L23 39L23 40L19 40L19 41L20 41L20 43L19 43L19 44L20 44L20 43L22 43L22 42L23 42L23 45L25 45L25 44L26 44L26 43L27 43L27 44L29 44L29 43L30 43L30 44L31 44L31 43L30 43L30 42L31 42L31 41L27 41L27 40L26 40L26 39L25 39L25 40L24 40L24 39L23 39L23 38L24 38L24 37ZM36 37L36 38L35 38L35 40L36 40L36 38L37 38L37 37ZM10 40L10 41L11 41L11 40ZM13 40L13 41L12 41L12 42L13 42L13 41L14 41L14 40ZM46 40L46 41L47 41L47 40ZM21 41L21 42L22 42L22 41ZM23 41L23 42L24 42L24 43L25 43L25 41ZM26 41L26 42L27 42L27 41ZM33 41L33 44L34 44L34 41ZM36 41L36 42L37 42L37 41ZM44 41L44 42L45 42L45 41ZM10 42L10 43L11 43L11 42ZM50 42L50 43L51 43L51 42ZM36 43L36 44L37 44L37 43ZM52 43L52 44L53 44L53 43ZM17 44L17 45L18 45L18 44ZM21 44L21 45L22 45L22 44ZM6 45L6 46L7 46L7 45ZM42 45L42 46L44 46L44 45ZM50 45L50 46L51 46L51 47L52 47L52 46L51 46L51 45ZM26 46L26 47L27 47L27 46ZM29 46L29 47L32 47L32 48L33 48L33 49L32 49L32 50L33 50L33 51L32 51L32 52L33 52L33 53L34 53L34 52L33 52L33 51L35 51L35 50L33 50L33 49L34 49L34 48L33 48L33 47L37 47L37 48L35 48L35 49L38 49L38 47L39 47L39 46ZM6 48L6 49L7 49L7 48ZM39 48L39 49L40 49L40 48ZM43 48L43 49L45 49L45 48ZM18 49L18 50L19 50L19 49ZM27 49L27 52L30 52L30 49ZM49 49L49 52L52 52L52 49ZM22 50L22 51L23 51L23 52L22 52L22 53L24 53L24 51L23 51L23 50ZM28 50L28 51L29 51L29 50ZM50 50L50 51L51 51L51 50ZM25 51L25 53L26 53L26 51ZM54 51L54 52L55 52L55 51ZM9 53L9 54L10 54L10 53ZM48 53L48 54L51 54L51 53ZM19 54L19 55L20 55L20 54ZM23 55L23 56L24 56L24 55ZM44 55L44 56L43 56L43 57L44 57L44 56L45 56L45 57L46 57L46 55ZM48 55L48 56L49 56L49 55ZM20 56L20 57L21 57L21 56ZM0 0L0 7L7 7L7 0ZM1 1L1 6L6 6L6 1ZM2 2L2 5L5 5L5 2ZM50 0L50 7L57 7L57 0ZM51 1L51 6L56 6L56 1ZM52 2L52 5L55 5L55 2ZM0 50L0 57L7 57L7 50ZM1 51L1 56L6 56L6 51ZM2 52L2 55L5 55L5 52Z" fill="#000000"/></g></g></svg>
