<?xml version="1.0" encoding="UTF-8"?>
<svg xmlns="http://www.w3.org/2000/svg" version="1.1" width="300" height="300" viewBox="0 0 300 300"><rect x="0" y="0" width="300" height="300" fill="#ffffff"/><g transform="scale(4.918)"><g transform="translate(2,2)"><path fill-rule="evenodd" d="M10 0L10 1L11 1L11 2L12 2L12 1L13 1L13 0ZM14 0L14 1L15 1L15 2L13 2L13 4L14 4L14 5L12 5L12 3L10 3L10 2L9 2L9 1L8 1L8 2L9 2L9 3L8 3L8 4L10 4L10 5L8 5L8 7L9 7L9 8L6 8L6 9L8 9L8 14L6 14L6 13L7 13L7 12L6 12L6 11L7 11L7 10L5 10L5 11L4 11L4 12L6 12L6 13L5 13L5 14L6 14L6 15L4 15L4 13L2 13L2 12L3 12L3 11L2 11L2 9L3 9L3 10L4 10L4 9L5 9L5 8L0 8L0 9L1 9L1 11L0 11L0 14L1 14L1 16L0 16L0 17L2 17L2 15L3 15L3 16L6 16L6 17L7 17L7 18L5 18L5 19L4 19L4 17L3 17L3 19L4 19L4 20L5 20L5 23L3 23L3 22L4 22L4 21L3 21L3 20L2 20L2 18L0 18L0 20L2 20L2 22L1 22L1 21L0 21L0 22L1 22L1 23L3 23L3 24L1 24L1 25L0 25L0 26L1 26L1 25L3 25L3 24L5 24L5 25L4 25L4 26L3 26L3 27L4 27L4 29L3 29L3 28L0 28L0 30L1 30L1 29L3 29L3 30L2 30L2 31L1 31L1 32L3 32L3 33L2 33L2 35L4 35L4 36L2 36L2 37L0 37L0 41L1 41L1 42L3 42L3 43L4 43L4 42L5 42L5 44L6 44L6 45L7 45L7 46L5 46L5 47L3 47L3 46L4 46L4 45L3 45L3 44L2 44L2 43L0 43L0 44L1 44L1 45L3 45L3 46L2 46L2 47L1 47L1 46L0 46L0 48L5 48L5 47L7 47L7 46L8 46L8 48L6 48L6 49L8 49L8 51L9 51L9 52L8 52L8 57L10 57L10 56L9 56L9 53L11 53L11 52L10 52L10 51L12 51L12 53L13 53L13 54L16 54L16 53L14 53L14 52L13 52L13 51L15 51L15 52L17 52L17 51L16 51L16 49L19 49L19 48L20 48L20 49L21 49L21 50L18 50L18 51L19 51L19 52L18 52L18 53L19 53L19 54L18 54L18 55L17 55L17 57L19 57L19 56L22 56L22 55L24 55L24 56L23 56L23 57L24 57L24 56L25 56L25 54L27 54L27 53L28 53L28 54L29 54L29 55L30 55L30 56L29 56L29 57L31 57L31 55L32 55L32 56L33 56L33 57L34 57L34 56L35 56L35 57L38 57L38 55L39 55L39 56L41 56L41 57L44 57L44 56L45 56L45 55L46 55L46 57L49 57L49 56L50 56L50 55L51 55L51 57L52 57L52 56L55 56L55 57L56 57L56 56L55 56L55 55L51 55L51 54L55 54L55 53L54 53L54 52L55 52L55 50L57 50L57 48L56 48L56 46L57 46L57 43L56 43L56 42L57 42L57 41L54 41L54 40L55 40L55 39L57 39L57 37L55 37L55 38L53 38L53 39L54 39L54 40L52 40L52 39L51 39L51 41L49 41L49 42L47 42L47 43L46 43L46 42L45 42L45 41L44 41L44 40L43 40L43 39L42 39L42 38L43 38L43 37L44 37L44 38L45 38L45 37L44 37L44 32L45 32L45 31L44 31L44 32L43 32L43 31L42 31L42 30L43 30L43 29L42 29L42 30L41 30L41 31L40 31L40 32L39 32L39 33L40 33L40 32L41 32L41 31L42 31L42 32L43 32L43 33L42 33L42 34L41 34L41 35L40 35L40 34L38 34L38 31L39 31L39 30L40 30L40 28L41 28L41 27L42 27L42 28L45 28L45 30L46 30L46 31L47 31L47 32L46 32L46 33L47 33L47 34L45 34L45 36L48 36L48 37L49 37L49 38L48 38L48 39L49 39L49 40L50 40L50 38L51 38L51 37L49 37L49 36L48 36L48 33L47 33L47 32L48 32L48 31L49 31L49 32L50 32L50 34L51 34L51 33L53 33L53 34L52 34L52 37L54 37L54 36L55 36L55 35L56 35L56 36L57 36L57 35L56 35L56 34L57 34L57 33L56 33L56 32L57 32L57 31L56 31L56 30L57 30L57 29L56 29L56 27L53 27L53 26L49 26L49 25L52 25L52 24L53 24L53 25L54 25L54 26L57 26L57 25L54 25L54 24L55 24L55 23L56 23L56 24L57 24L57 23L56 23L56 22L57 22L57 21L56 21L56 20L55 20L55 18L57 18L57 15L56 15L56 14L57 14L57 12L56 12L56 14L53 14L53 15L54 15L54 16L53 16L53 17L54 17L54 18L53 18L53 19L52 19L52 17L51 17L51 16L52 16L52 15L51 15L51 14L52 14L52 13L51 13L51 12L50 12L50 13L51 13L51 14L49 14L49 13L47 13L47 14L46 14L46 12L45 12L45 13L44 13L44 11L45 11L45 10L44 10L44 8L42 8L42 7L43 7L43 6L42 6L42 7L41 7L41 6L40 6L40 8L42 8L42 9L39 9L39 10L37 10L37 8L38 8L38 7L39 7L39 5L38 5L38 4L40 4L40 5L43 5L43 3L47 3L47 5L46 5L46 4L44 4L44 5L45 5L45 6L44 6L44 7L45 7L45 9L48 9L48 11L47 11L47 12L49 12L49 11L51 11L51 10L49 10L49 9L50 9L50 8L49 8L49 9L48 9L48 8L46 8L46 7L47 7L47 5L48 5L48 0L45 0L45 1L44 1L44 0L42 0L42 1L40 1L40 0L39 0L39 1L38 1L38 0L36 0L36 2L37 2L37 1L38 1L38 2L39 2L39 3L36 3L36 5L35 5L35 6L34 6L34 7L35 7L35 8L34 8L34 9L35 9L35 12L34 12L34 11L33 11L33 8L31 8L31 4L32 4L32 3L34 3L34 2L35 2L35 1L33 1L33 2L32 2L32 0L29 0L29 1L31 1L31 2L30 2L30 3L29 3L29 2L28 2L28 3L27 3L27 2L25 2L25 1L26 1L26 0L23 0L23 2L22 2L22 0L21 0L21 1L20 1L20 0L19 0L19 1L18 1L18 2L17 2L17 1L15 1L15 0ZM19 1L19 2L18 2L18 3L17 3L17 2L16 2L16 4L15 4L15 3L14 3L14 4L15 4L15 5L16 5L16 4L18 4L18 5L17 5L17 7L18 7L18 5L20 5L20 6L19 6L19 8L20 8L20 10L18 10L18 9L17 9L17 8L16 8L16 6L15 6L15 7L14 7L14 6L13 6L13 7L12 7L12 6L11 6L11 8L9 8L9 11L10 11L10 12L11 12L11 11L12 11L12 10L13 10L13 11L14 11L14 12L13 12L13 13L9 13L9 16L7 16L7 15L6 15L6 16L7 16L7 17L8 17L8 19L5 19L5 20L8 20L8 21L6 21L6 22L8 22L8 21L9 21L9 24L8 24L8 23L6 23L6 24L7 24L7 25L5 25L5 26L10 26L10 29L9 29L9 32L10 32L10 33L8 33L8 32L7 32L7 31L6 31L6 32L5 32L5 31L3 31L3 32L4 32L4 35L5 35L5 33L6 33L6 34L7 34L7 33L8 33L8 35L9 35L9 34L11 34L11 35L10 35L10 36L8 36L8 38L7 38L7 37L6 37L6 38L7 38L7 39L6 39L6 40L5 40L5 37L4 37L4 40L3 40L3 41L5 41L5 42L9 42L9 45L8 45L8 44L7 44L7 43L6 43L6 44L7 44L7 45L8 45L8 46L9 46L9 47L10 47L10 49L11 49L11 48L12 48L12 47L13 47L13 46L12 46L12 44L13 44L13 43L14 43L14 42L13 42L13 43L12 43L12 44L11 44L11 43L10 43L10 42L11 42L11 40L13 40L13 41L15 41L15 43L17 43L17 44L18 44L18 45L16 45L16 46L17 46L17 47L16 47L16 48L17 48L17 47L18 47L18 48L19 48L19 47L18 47L18 45L20 45L20 48L21 48L21 49L22 49L22 50L21 50L21 51L23 51L23 52L19 52L19 53L23 53L23 54L24 54L24 53L23 53L23 52L24 52L24 51L25 51L25 53L26 53L26 48L30 48L30 47L29 47L29 45L31 45L31 44L32 44L32 46L31 46L31 47L32 47L32 46L35 46L35 47L34 47L34 48L31 48L31 49L32 49L32 51L31 51L31 52L32 52L32 54L33 54L33 56L34 56L34 54L35 54L35 55L36 55L36 53L33 53L33 52L36 52L36 50L37 50L37 52L40 52L40 55L41 55L41 56L44 56L44 55L45 55L45 54L46 54L46 55L47 55L47 56L49 56L49 55L50 55L50 54L51 54L51 53L48 53L48 52L47 52L47 51L48 51L48 48L49 48L49 47L52 47L52 48L54 48L54 49L56 49L56 48L54 48L54 47L55 47L55 46L56 46L56 45L55 45L55 44L56 44L56 43L55 43L55 44L54 44L54 45L52 45L52 44L53 44L53 43L54 43L54 41L51 41L51 42L50 42L50 43L51 43L51 42L53 42L53 43L52 43L52 44L49 44L49 43L48 43L48 44L47 44L47 45L46 45L46 46L47 46L47 47L46 47L46 48L44 48L44 47L45 47L45 46L42 46L42 45L45 45L45 44L41 44L41 43L44 43L44 42L41 42L41 41L43 41L43 40L40 40L40 39L41 39L41 38L42 38L42 36L40 36L40 35L38 35L38 34L37 34L37 35L36 35L36 34L35 34L35 33L34 33L34 32L37 32L37 31L36 31L36 30L39 30L39 28L40 28L40 27L41 27L41 26L42 26L42 27L44 27L44 26L42 26L42 25L41 25L41 24L43 24L43 23L44 23L44 25L45 25L45 26L47 26L47 25L49 25L49 24L47 24L47 21L46 21L46 20L49 20L49 19L50 19L50 22L49 22L49 23L50 23L50 24L52 24L52 23L54 23L54 22L53 22L53 20L52 20L52 21L51 21L51 17L50 17L50 18L49 18L49 19L48 19L48 18L47 18L47 16L51 16L51 15L47 15L47 16L43 16L43 17L44 17L44 19L46 19L46 20L43 20L43 18L41 18L41 16L42 16L42 15L45 15L45 14L44 14L44 13L43 13L43 14L42 14L42 11L44 11L44 10L42 10L42 11L41 11L41 10L40 10L40 11L39 11L39 12L38 12L38 13L36 13L36 12L37 12L37 11L36 11L36 12L35 12L35 13L33 13L33 12L32 12L32 13L31 13L31 14L32 14L32 15L31 15L31 16L30 16L30 15L27 15L27 14L28 14L28 13L29 13L29 14L30 14L30 13L29 13L29 12L30 12L30 11L31 11L31 10L32 10L32 9L31 9L31 10L30 10L30 9L28 9L28 10L27 10L27 9L26 9L26 6L25 6L25 4L26 4L26 3L25 3L25 4L24 4L24 2L23 2L23 3L22 3L22 2L20 2L20 1ZM42 1L42 2L41 2L41 3L40 3L40 4L41 4L41 3L43 3L43 2L44 2L44 1ZM45 1L45 2L47 2L47 1ZM18 3L18 4L20 4L20 3ZM21 3L21 4L22 4L22 5L21 5L21 6L20 6L20 7L21 7L21 8L22 8L22 7L23 7L23 8L24 8L24 9L23 9L23 10L25 10L25 8L24 8L24 7L25 7L25 6L24 6L24 7L23 7L23 5L24 5L24 4L22 4L22 3ZM28 3L28 4L29 4L29 3ZM30 3L30 4L31 4L31 3ZM27 5L27 8L30 8L30 5ZM36 5L36 6L35 6L35 7L36 7L36 8L37 8L37 7L38 7L38 5ZM9 6L9 7L10 7L10 6ZM21 6L21 7L22 7L22 6ZM28 6L28 7L29 7L29 6ZM32 6L32 7L33 7L33 6ZM36 6L36 7L37 7L37 6ZM45 6L45 7L46 7L46 6ZM48 6L48 7L49 7L49 6ZM13 8L13 10L15 10L15 11L16 11L16 13L18 13L18 14L19 14L19 15L18 15L18 16L16 16L16 15L17 15L17 14L15 14L15 18L12 18L12 19L11 19L11 20L12 20L12 22L11 22L11 21L10 21L10 22L11 22L11 23L10 23L10 26L11 26L11 27L12 27L12 29L10 29L10 30L11 30L11 34L12 34L12 35L11 35L11 36L12 36L12 38L13 38L13 39L14 39L14 38L13 38L13 37L14 37L14 36L15 36L15 37L16 37L16 38L15 38L15 39L16 39L16 41L18 41L18 42L17 42L17 43L18 43L18 42L19 42L19 41L21 41L21 42L20 42L20 45L22 45L22 44L21 44L21 43L22 43L22 42L24 42L24 44L25 44L25 45L23 45L23 46L24 46L24 47L22 47L22 46L21 46L21 47L22 47L22 48L23 48L23 50L25 50L25 48L26 48L26 47L27 47L27 46L28 46L28 45L29 45L29 44L30 44L30 43L31 43L31 42L30 42L30 41L32 41L32 42L33 42L33 44L34 44L34 42L33 42L33 41L34 41L34 40L33 40L33 39L34 39L34 38L33 38L33 39L31 39L31 38L32 38L32 34L33 34L33 35L34 35L34 36L33 36L33 37L34 37L34 36L35 36L35 34L33 34L33 33L32 33L32 34L31 34L31 35L30 35L30 34L29 34L29 35L30 35L30 36L29 36L29 37L28 37L28 36L27 36L27 35L26 35L26 34L27 34L27 33L30 33L30 32L34 32L34 31L35 31L35 30L33 30L33 29L38 29L38 28L37 28L37 27L34 27L34 28L33 28L33 29L32 29L32 27L33 27L33 26L32 26L32 25L29 25L29 26L27 26L27 25L26 25L26 24L25 24L25 23L26 23L26 22L25 22L25 21L28 21L28 20L30 20L30 21L29 21L29 22L31 22L31 23L27 23L27 24L31 24L31 23L33 23L33 25L34 25L34 24L36 24L36 26L38 26L38 25L37 25L37 24L38 24L38 23L40 23L40 24L41 24L41 23L40 23L40 22L38 22L38 21L37 21L37 20L39 20L39 21L40 21L40 20L41 20L41 22L43 22L43 21L42 21L42 20L41 20L41 18L38 18L38 15L40 15L40 16L39 16L39 17L40 17L40 16L41 16L41 15L42 15L42 14L41 14L41 13L40 13L40 12L41 12L41 11L40 11L40 12L39 12L39 13L40 13L40 14L36 14L36 13L35 13L35 14L33 14L33 15L32 15L32 16L31 16L31 17L29 17L29 18L31 18L31 17L32 17L32 16L33 16L33 17L34 17L34 16L33 16L33 15L35 15L35 16L36 16L36 18L33 18L33 19L28 19L28 18L27 18L27 19L28 19L28 20L25 20L25 19L26 19L26 17L28 17L28 16L25 16L25 15L26 15L26 13L28 13L28 12L29 12L29 11L30 11L30 10L29 10L29 11L27 11L27 10L26 10L26 11L27 11L27 12L25 12L25 11L24 11L24 12L23 12L23 13L24 13L24 14L23 14L23 15L24 15L24 17L22 17L22 15L21 15L21 16L20 16L20 14L19 14L19 13L22 13L22 12L20 12L20 11L19 11L19 13L18 13L18 12L17 12L17 11L18 11L18 10L15 10L15 9L16 9L16 8L15 8L15 9L14 9L14 8ZM51 8L51 9L52 9L52 10L53 10L53 11L52 11L52 12L53 12L53 11L54 11L54 12L55 12L55 11L54 11L54 10L53 10L53 9L54 9L54 8L53 8L53 9L52 9L52 8ZM55 8L55 10L57 10L57 9L56 9L56 8ZM10 9L10 11L11 11L11 10L12 10L12 9ZM21 10L21 11L22 11L22 10ZM1 11L1 12L2 12L2 11ZM24 12L24 13L25 13L25 12ZM1 13L1 14L2 14L2 13ZM13 13L13 14L14 14L14 13ZM10 14L10 15L12 15L12 16L13 16L13 17L14 17L14 16L13 16L13 15L12 15L12 14ZM40 14L40 15L41 15L41 14ZM36 15L36 16L37 16L37 15ZM55 15L55 16L54 16L54 17L55 17L55 16L56 16L56 15ZM9 16L9 19L8 19L8 20L9 20L9 19L10 19L10 17L11 17L11 16ZM19 16L19 17L16 17L16 18L17 18L17 19L21 19L21 20L19 20L19 21L18 21L18 20L15 20L15 21L13 21L13 22L12 22L12 24L11 24L11 25L12 25L12 27L13 27L13 31L12 31L12 34L13 34L13 36L14 36L14 35L15 35L15 34L14 34L14 33L16 33L16 34L17 34L17 35L16 35L16 37L17 37L17 40L18 40L18 39L19 39L19 40L21 40L21 41L25 41L25 39L26 39L26 35L25 35L25 34L26 34L26 33L27 33L27 31L26 31L26 32L25 32L25 34L23 34L23 33L24 33L24 32L21 32L21 31L22 31L22 30L23 30L23 31L24 31L24 29L25 29L25 30L26 30L26 27L25 27L25 28L24 28L24 29L22 29L22 28L21 28L21 27L22 27L22 26L21 26L21 25L25 25L25 26L26 26L26 25L25 25L25 24L24 24L24 23L23 23L23 22L24 22L24 21L23 21L23 18L21 18L21 17L20 17L20 16ZM45 17L45 18L46 18L46 19L47 19L47 18L46 18L46 17ZM37 18L37 19L34 19L34 20L32 20L32 21L33 21L33 22L35 22L35 23L36 23L36 24L37 24L37 23L36 23L36 22L37 22L37 21L36 21L36 20L37 20L37 19L38 19L38 18ZM13 19L13 20L14 20L14 19ZM39 19L39 20L40 20L40 19ZM34 20L34 21L35 21L35 20ZM54 20L54 21L55 21L55 20ZM15 21L15 22L16 22L16 21ZM17 21L17 22L18 22L18 21ZM19 21L19 22L20 22L20 23L17 23L17 25L21 25L21 22L23 22L23 21ZM44 21L44 23L45 23L45 25L46 25L46 22L45 22L45 21ZM50 22L50 23L51 23L51 22ZM13 23L13 27L14 27L14 23ZM15 23L15 25L16 25L16 23ZM22 23L22 24L23 24L23 23ZM39 25L39 26L41 26L41 25ZM15 26L15 27L16 27L16 26ZM18 26L18 27L17 27L17 28L15 28L15 31L16 31L16 33L17 33L17 34L18 34L18 36L17 36L17 37L20 37L20 36L19 36L19 34L18 34L18 33L19 33L19 32L20 32L20 33L21 33L21 34L20 34L20 35L21 35L21 36L23 36L23 35L22 35L22 33L21 33L21 32L20 32L20 29L21 29L21 30L22 30L22 29L21 29L21 28L20 28L20 27L21 27L21 26L20 26L20 27L19 27L19 26ZM23 26L23 27L24 27L24 26ZM5 27L5 30L8 30L8 27ZM27 27L27 30L30 30L30 27ZM46 27L46 28L48 28L48 27ZM49 27L49 30L52 30L52 27ZM6 28L6 29L7 29L7 28ZM17 28L17 29L16 29L16 31L18 31L18 30L17 30L17 29L18 29L18 28ZM19 28L19 29L20 29L20 28ZM28 28L28 29L29 29L29 28ZM50 28L50 29L51 29L51 28ZM54 28L54 29L53 29L53 30L56 30L56 29L55 29L55 28ZM46 29L46 30L47 30L47 31L48 31L48 29ZM13 31L13 33L14 33L14 31ZM52 31L52 32L53 32L53 33L55 33L55 34L56 34L56 33L55 33L55 32L53 32L53 31ZM6 32L6 33L7 33L7 32ZM0 34L0 35L1 35L1 34ZM42 34L42 35L43 35L43 34ZM53 34L53 35L54 35L54 34ZM6 35L6 36L7 36L7 35ZM24 35L24 37L21 37L21 39L22 39L22 40L24 40L24 39L23 39L23 38L24 38L24 37L25 37L25 35ZM37 35L37 36L36 36L36 37L35 37L35 38L36 38L36 40L35 40L35 41L36 41L36 43L35 43L35 45L37 45L37 43L38 43L38 41L40 41L40 40L39 40L39 38L40 38L40 36L38 36L38 35ZM50 35L50 36L51 36L51 35ZM30 36L30 38L31 38L31 36ZM2 37L2 38L1 38L1 41L2 41L2 39L3 39L3 37ZM9 37L9 38L10 38L10 40L9 40L9 42L10 42L10 40L11 40L11 38L10 38L10 37ZM27 37L27 38L28 38L28 37ZM38 37L38 38L37 38L37 40L38 40L38 38L39 38L39 37ZM19 38L19 39L20 39L20 38ZM7 39L7 40L6 40L6 41L8 41L8 39ZM27 39L27 41L26 41L26 42L25 42L25 44L26 44L26 45L25 45L25 47L26 47L26 46L27 46L27 45L28 45L28 44L29 44L29 43L30 43L30 42L29 42L29 41L30 41L30 40L31 40L31 39L29 39L29 40L28 40L28 39ZM45 39L45 40L46 40L46 39ZM32 40L32 41L33 41L33 40ZM26 42L26 43L27 43L27 44L28 44L28 43L29 43L29 42ZM39 42L39 44L38 44L38 45L39 45L39 44L40 44L40 42ZM10 44L10 45L9 45L9 46L10 46L10 47L11 47L11 46L10 46L10 45L11 45L11 44ZM14 44L14 46L15 46L15 44ZM40 45L40 46L37 46L37 47L39 47L39 48L41 48L41 47L42 47L42 46L41 46L41 45ZM49 45L49 46L50 46L50 45ZM51 45L51 46L52 46L52 45ZM54 45L54 46L53 46L53 47L54 47L54 46L55 46L55 45ZM40 46L40 47L41 47L41 46ZM14 47L14 49L15 49L15 47ZM35 47L35 48L36 48L36 49L35 49L35 50L33 50L33 51L32 51L32 52L33 52L33 51L35 51L35 50L36 50L36 49L37 49L37 50L38 50L38 51L39 51L39 50L38 50L38 48L36 48L36 47ZM8 48L8 49L9 49L9 48ZM42 48L42 49L41 49L41 50L43 50L43 51L40 51L40 52L42 52L42 53L41 53L41 54L42 54L42 55L43 55L43 53L44 53L44 54L45 54L45 53L44 53L44 48ZM46 48L46 49L45 49L45 50L46 50L46 51L45 51L45 52L46 52L46 51L47 51L47 50L46 50L46 49L47 49L47 48ZM12 49L12 51L13 51L13 49ZM27 49L27 52L30 52L30 49ZM49 49L49 52L52 52L52 49ZM28 50L28 51L29 51L29 50ZM50 50L50 51L51 51L51 50ZM56 51L56 52L57 52L57 51ZM29 53L29 54L30 54L30 53ZM38 53L38 54L37 54L37 55L38 55L38 54L39 54L39 53ZM11 54L11 57L12 57L12 56L13 56L13 57L14 57L14 55L12 55L12 54ZM19 54L19 55L20 55L20 54ZM47 54L47 55L49 55L49 54ZM15 55L15 57L16 57L16 55ZM27 55L27 56L28 56L28 55ZM0 0L0 7L7 7L7 0ZM1 1L1 6L6 6L6 1ZM2 2L2 5L5 5L5 2ZM50 0L50 7L57 7L57 0ZM51 1L51 6L56 6L56 1ZM52 2L52 5L55 5L55 2ZM0 50L0 57L7 57L7 50ZM1 51L1 56L6 56L6 51ZM2 52L2 55L5 55L5 52Z" fill="#000000"/></g></g></svg>
