<?xml version="1.0" encoding="UTF-8"?>
<svg xmlns="http://www.w3.org/2000/svg" version="1.1" width="300" height="300" viewBox="0 0 300 300"><rect x="0" y="0" width="300" height="300" fill="#ffffff"/><g transform="scale(4.918)"><g transform="translate(2,2)"><path fill-rule="evenodd" d="M9 0L9 1L8 1L8 2L9 2L9 3L8 3L8 4L10 4L10 7L9 7L9 5L8 5L8 7L9 7L9 8L6 8L6 9L5 9L5 8L0 8L0 10L1 10L1 12L0 12L0 17L1 17L1 18L2 18L2 17L3 17L3 16L2 16L2 15L1 15L1 14L2 14L2 13L4 13L4 12L5 12L5 10L6 10L6 11L7 11L7 12L6 12L6 13L5 13L5 14L6 14L6 15L5 15L5 17L4 17L4 18L6 18L6 19L7 19L7 18L9 18L9 19L10 19L10 18L11 18L11 17L12 17L12 15L13 15L13 18L12 18L12 19L14 19L14 20L11 20L11 21L7 21L7 20L6 20L6 21L5 21L5 19L4 19L4 21L3 21L3 20L1 20L1 19L0 19L0 20L1 20L1 21L0 21L0 23L2 23L2 21L3 21L3 22L5 22L5 24L3 24L3 26L2 26L2 25L1 25L1 26L2 26L2 27L1 27L1 29L2 29L2 30L1 30L1 31L2 31L2 32L3 32L3 34L1 34L1 33L0 33L0 34L1 34L1 36L0 36L0 37L1 37L1 36L2 36L2 37L3 37L3 38L0 38L0 39L1 39L1 40L2 40L2 39L4 39L4 40L3 40L3 41L1 41L1 42L0 42L0 43L1 43L1 42L3 42L3 44L0 44L0 48L5 48L5 47L7 47L7 46L8 46L8 47L9 47L9 46L8 46L8 44L11 44L11 43L12 43L12 42L13 42L13 44L12 44L12 45L14 45L14 47L17 47L17 48L13 48L13 46L11 46L11 45L10 45L10 48L11 48L11 47L12 47L12 48L13 48L13 50L12 50L12 49L9 49L9 48L8 48L8 51L9 51L9 50L10 50L10 51L11 51L11 52L10 52L10 53L11 53L11 52L12 52L12 53L13 53L13 55L12 55L12 54L9 54L9 52L8 52L8 57L10 57L10 56L12 56L12 57L14 57L14 55L15 55L15 57L16 57L16 55L15 55L15 54L16 54L16 53L14 53L14 50L15 50L15 49L17 49L17 50L16 50L16 51L15 51L15 52L16 52L16 51L19 51L19 52L18 52L18 53L17 53L17 57L21 57L21 55L22 55L22 54L23 54L23 55L24 55L24 57L26 57L26 56L28 56L28 55L26 55L26 54L27 54L27 53L28 53L28 54L29 54L29 55L30 55L30 56L29 56L29 57L32 57L32 55L33 55L33 54L32 54L32 52L34 52L34 53L37 53L37 54L34 54L34 55L37 55L37 56L33 56L33 57L38 57L38 56L39 56L39 55L40 55L40 52L42 52L42 53L41 53L41 56L42 56L42 57L43 57L43 56L45 56L45 55L46 55L46 56L47 56L47 57L48 57L48 56L47 56L47 55L46 55L46 54L45 54L45 53L44 53L44 49L43 49L43 48L45 48L45 50L46 50L46 51L45 51L45 52L48 52L48 53L47 53L47 54L48 54L48 55L49 55L49 54L48 54L48 53L50 53L50 55L51 55L51 56L50 56L50 57L52 57L52 56L53 56L53 57L54 57L54 56L55 56L55 57L56 57L56 56L55 56L55 54L53 54L53 53L54 53L54 52L55 52L55 50L57 50L57 49L54 49L54 48L57 48L57 47L56 47L56 46L57 46L57 45L56 45L56 42L57 42L57 41L56 41L56 42L55 42L55 41L54 41L54 43L53 43L53 44L52 44L52 45L51 45L51 46L52 46L52 45L54 45L54 44L55 44L55 45L56 45L56 46L53 46L53 47L54 47L54 48L52 48L52 47L49 47L49 48L48 48L48 51L47 51L47 50L46 50L46 48L45 48L45 47L47 47L47 46L46 46L46 45L47 45L47 44L48 44L48 46L49 46L49 44L51 44L51 43L50 43L50 42L51 42L51 41L49 41L49 40L48 40L48 41L47 41L47 42L45 42L45 45L44 45L44 43L43 43L43 41L41 41L41 43L40 43L40 42L38 42L38 41L39 41L39 40L40 40L40 38L38 38L38 36L39 36L39 37L40 37L40 36L41 36L41 38L43 38L43 37L44 37L44 38L45 38L45 39L42 39L42 40L47 40L47 39L50 39L50 38L49 38L49 37L48 37L48 38L47 38L47 39L46 39L46 38L45 38L45 37L44 37L44 35L43 35L43 36L41 36L41 35L40 35L40 32L41 32L41 34L43 34L43 33L44 33L44 32L46 32L46 33L45 33L45 34L46 34L46 35L45 35L45 36L46 36L46 37L47 37L47 36L51 36L51 35L48 35L48 33L47 33L47 32L48 32L48 31L49 31L49 32L51 32L51 33L50 33L50 34L51 34L51 33L54 33L54 34L52 34L52 37L51 37L51 40L52 40L52 41L53 41L53 40L55 40L55 39L57 39L57 37L55 37L55 38L52 38L52 37L54 37L54 36L55 36L55 34L57 34L57 32L56 32L56 30L57 30L57 29L56 29L56 28L57 28L57 27L56 27L56 24L55 24L55 23L56 23L56 22L57 22L57 21L54 21L54 22L55 22L55 23L52 23L52 22L53 22L53 21L51 21L51 22L50 22L50 19L51 19L51 20L55 20L55 19L52 19L52 18L54 18L54 17L52 17L52 18L49 18L49 17L50 17L50 16L55 16L55 18L57 18L57 17L56 17L56 16L57 16L57 15L56 15L56 14L57 14L57 13L56 13L56 10L55 10L55 11L54 11L54 10L53 10L53 11L52 11L52 12L53 12L53 11L54 11L54 12L55 12L55 13L54 13L54 14L55 14L55 15L51 15L51 14L52 14L52 13L51 13L51 14L50 14L50 15L49 15L49 13L50 13L50 11L51 11L51 10L52 10L52 8L51 8L51 10L50 10L50 8L49 8L49 6L48 6L48 7L47 7L47 5L48 5L48 0L42 0L42 1L41 1L41 2L39 2L39 1L40 1L40 0L39 0L39 1L37 1L37 0L35 0L35 1L34 1L34 0L33 0L33 1L34 1L34 2L29 2L29 1L31 1L31 0L28 0L28 3L27 3L27 2L25 2L25 1L26 1L26 0L24 0L24 1L23 1L23 0L21 0L21 2L17 2L17 1L16 1L16 0L14 0L14 1L15 1L15 2L14 2L14 3L13 3L13 2L12 2L12 3L11 3L11 4L10 4L10 0ZM11 0L11 1L12 1L12 0ZM22 1L22 2L23 2L23 3L22 3L22 4L21 4L21 3L20 3L20 4L18 4L18 3L16 3L16 4L15 4L15 3L14 3L14 4L15 4L15 5L14 5L14 6L13 6L13 4L12 4L12 5L11 5L11 7L10 7L10 8L9 8L9 11L8 11L8 9L6 9L6 10L7 10L7 11L8 11L8 12L7 12L7 13L6 13L6 14L7 14L7 15L6 15L6 16L7 16L7 17L6 17L6 18L7 18L7 17L8 17L8 16L7 16L7 15L8 15L8 14L7 14L7 13L8 13L8 12L10 12L10 14L9 14L9 15L12 15L12 14L13 14L13 15L14 15L14 18L15 18L15 17L16 17L16 18L17 18L17 19L16 19L16 20L15 20L15 21L11 21L11 22L12 22L12 23L10 23L10 22L9 22L9 23L8 23L8 24L9 24L9 25L4 25L4 26L3 26L3 27L4 27L4 26L9 26L9 25L10 25L10 27L11 27L11 26L13 26L13 27L14 27L14 25L15 25L15 27L16 27L16 28L17 28L17 29L16 29L16 30L17 30L17 31L16 31L16 32L18 32L18 31L19 31L19 33L16 33L16 35L17 35L17 34L19 34L19 35L20 35L20 34L21 34L21 36L20 36L20 37L18 37L18 36L16 36L16 37L15 37L15 36L14 36L14 35L13 35L13 36L12 36L12 38L11 38L11 37L9 37L9 35L10 35L10 33L11 33L11 35L12 35L12 34L13 34L13 33L15 33L15 31L14 31L14 30L15 30L15 28L14 28L14 30L12 30L12 31L13 31L13 33L11 33L11 32L10 32L10 30L11 30L11 28L9 28L9 31L8 31L8 32L7 32L7 31L4 31L4 28L3 28L3 30L2 30L2 31L3 31L3 32L5 32L5 34L3 34L3 35L5 35L5 34L7 34L7 33L9 33L9 34L8 34L8 37L9 37L9 38L10 38L10 39L9 39L9 40L10 40L10 42L9 42L9 41L8 41L8 42L9 42L9 43L11 43L11 42L12 42L12 41L13 41L13 40L15 40L15 42L14 42L14 45L15 45L15 43L16 43L16 44L18 44L18 45L16 45L16 46L17 46L17 47L18 47L18 45L19 45L19 49L18 49L18 50L19 50L19 49L20 49L20 50L21 50L21 49L22 49L22 51L23 51L23 52L22 52L22 53L21 53L21 52L19 52L19 53L18 53L18 54L19 54L19 55L20 55L20 54L19 54L19 53L21 53L21 54L22 54L22 53L23 53L23 54L24 54L24 53L23 53L23 52L24 52L24 51L25 51L25 52L26 52L26 51L25 51L25 50L26 50L26 46L27 46L27 48L32 48L32 49L31 49L31 50L32 50L32 51L31 51L31 52L32 52L32 51L34 51L34 52L36 52L36 51L37 51L37 50L39 50L39 51L38 51L38 54L39 54L39 52L40 52L40 51L41 51L41 50L42 50L42 52L43 52L43 50L42 50L42 48L40 48L40 47L41 47L41 46L42 46L42 47L45 47L45 46L44 46L44 45L43 45L43 44L40 44L40 43L38 43L38 42L37 42L37 41L33 41L33 40L37 40L37 39L36 39L36 38L37 38L37 37L36 37L36 36L38 36L38 35L33 35L33 34L36 34L36 32L37 32L37 31L38 31L38 33L37 33L37 34L39 34L39 32L40 32L40 31L39 31L39 30L42 30L42 31L43 31L43 32L42 32L42 33L43 33L43 32L44 32L44 31L43 31L43 30L45 30L45 31L46 31L46 32L47 32L47 31L48 31L48 28L47 28L47 26L48 26L48 25L49 25L49 26L51 26L51 25L50 25L50 24L52 24L52 25L53 25L53 27L55 27L55 26L54 26L54 25L55 25L55 24L54 24L54 25L53 25L53 24L52 24L52 23L50 23L50 22L49 22L49 23L48 23L48 25L46 25L46 24L47 24L47 21L48 21L48 20L49 20L49 19L48 19L48 18L47 18L47 17L48 17L48 16L49 16L49 15L45 15L45 16L43 16L43 18L42 18L42 16L39 16L39 14L42 14L42 15L43 15L43 14L42 14L42 11L43 11L43 12L44 12L44 13L45 13L45 12L46 12L46 14L47 14L47 13L49 13L49 12L48 12L48 11L50 11L50 10L48 10L48 9L49 9L49 8L48 8L48 9L47 9L47 8L46 8L46 9L45 9L45 8L43 8L43 7L44 7L44 6L45 6L45 7L46 7L46 5L47 5L47 3L43 3L43 1L42 1L42 3L40 3L40 5L41 5L41 7L40 7L40 6L39 6L39 7L40 7L40 8L39 8L39 9L38 9L38 8L37 8L37 7L38 7L38 6L37 6L37 5L36 5L36 3L38 3L38 5L39 5L39 3L38 3L38 2L34 2L34 4L33 4L33 3L32 3L32 4L31 4L31 7L32 7L32 6L33 6L33 7L34 7L34 8L32 8L32 9L31 9L31 10L28 10L28 11L30 11L30 12L31 12L31 11L32 11L32 13L31 13L31 15L33 15L33 16L30 16L30 13L29 13L29 12L28 12L28 13L25 13L25 12L27 12L27 11L26 11L26 10L27 10L27 9L26 9L26 6L25 6L25 4L26 4L26 3L25 3L25 2L23 2L23 1ZM44 1L44 2L47 2L47 1ZM24 3L24 4L22 4L22 5L21 5L21 6L20 6L20 5L18 5L18 4L16 4L16 5L15 5L15 6L14 6L14 7L15 7L15 6L16 6L16 9L12 9L12 7L13 7L13 6L12 6L12 7L11 7L11 8L10 8L10 9L12 9L12 11L10 11L10 12L12 12L12 13L13 13L13 14L14 14L14 15L16 15L16 17L19 17L19 16L17 16L17 15L16 15L16 13L18 13L18 15L20 15L20 17L21 17L21 18L20 18L20 19L21 19L21 18L22 18L22 17L21 17L21 16L22 16L22 14L21 14L21 15L20 15L20 14L19 14L19 13L22 13L22 12L21 12L21 11L22 11L22 9L21 9L21 8L24 8L24 7L25 7L25 6L24 6L24 7L23 7L23 5L24 5L24 4L25 4L25 3ZM28 3L28 4L30 4L30 3ZM42 3L42 4L41 4L41 5L43 5L43 3ZM44 4L44 5L46 5L46 4ZM17 5L17 8L21 8L21 7L22 7L22 6L21 6L21 7L20 7L20 6L19 6L19 7L18 7L18 5ZM27 5L27 8L30 8L30 5ZM33 5L33 6L34 6L34 7L35 7L35 8L34 8L34 9L32 9L32 10L34 10L34 11L33 11L33 13L32 13L32 14L33 14L33 15L35 15L35 14L33 14L33 13L37 13L37 14L36 14L36 15L37 15L37 16L34 16L34 17L33 17L33 18L32 18L32 17L29 17L29 18L32 18L32 19L29 19L29 21L28 21L28 22L29 22L29 23L28 23L28 24L27 24L27 25L26 25L26 24L25 24L25 23L26 23L26 22L25 22L25 21L27 21L27 20L28 20L28 18L27 18L27 17L28 17L28 16L26 16L26 15L29 15L29 13L28 13L28 14L26 14L26 15L25 15L25 13L23 13L23 14L24 14L24 15L23 15L23 16L24 16L24 17L23 17L23 18L24 18L24 19L23 19L23 21L19 21L19 19L18 19L18 21L17 21L17 22L18 22L18 23L17 23L17 24L16 24L16 23L13 23L13 25L14 25L14 24L15 24L15 25L19 25L19 26L18 26L18 27L17 27L17 26L16 26L16 27L17 27L17 28L18 28L18 29L17 29L17 30L19 30L19 31L20 31L20 33L21 33L21 34L22 34L22 33L21 33L21 31L22 31L22 29L23 29L23 36L24 36L24 37L22 37L22 36L21 36L21 37L22 37L22 38L21 38L21 39L22 39L22 40L24 40L24 41L23 41L23 43L24 43L24 42L26 42L26 43L28 43L28 44L27 44L27 45L31 45L31 46L29 46L29 47L32 47L32 48L33 48L33 49L32 49L32 50L34 50L34 51L35 51L35 50L34 50L34 49L36 49L36 50L37 50L37 48L33 48L33 47L35 47L35 46L38 46L38 45L40 45L40 44L38 44L38 43L37 43L37 42L36 42L36 43L35 43L35 46L33 46L33 47L32 47L32 44L34 44L34 43L33 43L33 42L32 42L32 41L31 41L31 40L33 40L33 39L31 39L31 38L32 38L32 35L30 35L30 34L29 34L29 35L30 35L30 36L29 36L29 37L28 37L28 36L27 36L27 35L26 35L26 34L25 34L25 33L26 33L26 32L25 32L25 31L29 31L29 32L27 32L27 33L30 33L30 31L31 31L31 32L34 32L34 33L35 33L35 32L36 32L36 31L35 31L35 30L38 30L38 29L39 29L39 28L38 28L38 29L37 29L37 27L39 27L39 26L40 26L40 27L42 27L42 28L43 28L43 27L42 27L42 26L45 26L45 27L44 27L44 28L45 28L45 30L46 30L46 31L47 31L47 30L46 30L46 29L47 29L47 28L46 28L46 26L45 26L45 25L44 25L44 24L41 24L41 23L42 23L42 22L43 22L43 21L42 21L42 22L41 22L41 21L40 21L40 20L41 20L41 19L42 19L42 20L45 20L45 19L44 19L44 18L43 18L43 19L42 19L42 18L40 18L40 17L39 17L39 16L38 16L38 15L37 15L37 14L38 14L38 12L39 12L39 11L41 11L41 10L43 10L43 11L44 11L44 12L45 12L45 10L43 10L43 8L42 8L42 9L41 9L41 10L40 10L40 9L39 9L39 10L38 10L38 9L37 9L37 8L36 8L36 7L37 7L37 6L36 6L36 5ZM28 6L28 7L29 7L29 6ZM35 6L35 7L36 7L36 6ZM42 6L42 7L43 7L43 6ZM35 8L35 9L34 9L34 10L35 10L35 11L34 11L34 12L35 12L35 11L36 11L36 12L37 12L37 11L38 11L38 10L37 10L37 11L36 11L36 10L35 10L35 9L36 9L36 8ZM53 8L53 9L54 9L54 8ZM55 8L55 9L56 9L56 8ZM3 9L3 11L4 11L4 9ZM16 9L16 10L13 10L13 11L12 11L12 12L13 12L13 13L14 13L14 14L15 14L15 12L16 12L16 10L18 10L18 11L17 11L17 12L18 12L18 13L19 13L19 12L20 12L20 11L19 11L19 10L18 10L18 9ZM20 9L20 10L21 10L21 9ZM23 9L23 12L25 12L25 9ZM13 11L13 12L14 12L14 11ZM55 13L55 14L56 14L56 13ZM3 14L3 15L4 15L4 14ZM1 16L1 17L2 17L2 16ZM10 16L10 17L11 17L11 16ZM25 16L25 19L26 19L26 20L27 20L27 18L26 18L26 16ZM37 16L37 17L36 17L36 18L39 18L39 17L38 17L38 16ZM45 16L45 18L46 18L46 19L47 19L47 18L46 18L46 16ZM34 17L34 18L33 18L33 19L34 19L34 18L35 18L35 17ZM35 19L35 20L34 20L34 21L33 21L33 20L32 20L32 21L33 21L33 24L32 24L32 23L31 23L31 22L30 22L30 21L29 21L29 22L30 22L30 23L31 23L31 24L30 24L30 25L29 25L29 24L28 24L28 26L30 26L30 25L32 25L32 26L36 26L36 27L35 27L35 28L36 28L36 27L37 27L37 26L39 26L39 25L37 25L37 26L36 26L36 24L40 24L40 25L41 25L41 24L40 24L40 23L41 23L41 22L40 22L40 23L36 23L36 22L39 22L39 21L38 21L38 20L40 20L40 19L38 19L38 20L37 20L37 19ZM36 20L36 21L37 21L37 20ZM6 21L6 22L7 22L7 21ZM15 21L15 22L16 22L16 21ZM18 21L18 22L19 22L19 23L20 23L20 22L19 22L19 21ZM23 21L23 22L24 22L24 21ZM44 21L44 23L46 23L46 22L45 22L45 21ZM6 23L6 24L7 24L7 23ZM21 23L21 25L20 25L20 24L19 24L19 25L20 25L20 26L19 26L19 28L21 28L21 29L19 29L19 30L20 30L20 31L21 31L21 29L22 29L22 28L21 28L21 27L22 27L22 26L23 26L23 29L25 29L25 30L26 30L26 27L25 27L25 26L26 26L26 25L25 25L25 24L24 24L24 23L23 23L23 24L22 24L22 23ZM35 23L35 24L34 24L34 25L35 25L35 24L36 24L36 23ZM23 24L23 25L24 25L24 26L25 26L25 25L24 25L24 24ZM20 26L20 27L21 27L21 26ZM5 27L5 30L8 30L8 27ZM27 27L27 30L30 30L30 27ZM33 27L33 28L31 28L31 29L32 29L32 30L31 30L31 31L33 31L33 30L35 30L35 29L33 29L33 28L34 28L34 27ZM49 27L49 30L52 30L52 27ZM6 28L6 29L7 29L7 28ZM28 28L28 29L29 29L29 28ZM50 28L50 29L51 29L51 28ZM54 28L54 29L55 29L55 30L56 30L56 29L55 29L55 28ZM42 29L42 30L43 30L43 29ZM53 30L53 31L51 31L51 32L54 32L54 33L56 33L56 32L54 32L54 30ZM34 31L34 32L35 32L35 31ZM6 32L6 33L7 33L7 32ZM9 32L9 33L10 33L10 32ZM31 33L31 34L32 34L32 33ZM46 33L46 34L47 34L47 33ZM24 34L24 36L25 36L25 37L24 37L24 38L22 38L22 39L24 39L24 40L25 40L25 39L26 39L26 38L28 38L28 37L26 37L26 35L25 35L25 34ZM6 35L6 36L7 36L7 35ZM39 35L39 36L40 36L40 35ZM46 35L46 36L47 36L47 35ZM56 35L56 36L57 36L57 35ZM4 36L4 39L6 39L6 40L4 40L4 41L5 41L5 43L4 43L4 44L3 44L3 45L1 45L1 47L2 47L2 46L3 46L3 47L5 47L5 46L7 46L7 45L6 45L6 44L8 44L8 43L6 43L6 42L7 42L7 41L6 41L6 40L7 40L7 39L8 39L8 38L7 38L7 37L6 37L6 38L5 38L5 36ZM30 36L30 38L31 38L31 36ZM13 37L13 38L12 38L12 40L11 40L11 41L12 41L12 40L13 40L13 39L14 39L14 38L15 38L15 39L16 39L16 41L18 41L18 42L17 42L17 43L18 43L18 42L20 42L20 41L21 41L21 40L19 40L19 39L20 39L20 38L19 38L19 39L17 39L17 38L18 38L18 37L16 37L16 38L15 38L15 37ZM35 37L35 38L36 38L36 37ZM6 38L6 39L7 39L7 38ZM27 39L27 41L26 41L26 42L29 42L29 43L30 43L30 44L31 44L31 43L32 43L32 42L31 42L31 41L29 41L29 40L31 40L31 39L29 39L29 40L28 40L28 39ZM38 39L38 40L39 40L39 39ZM52 39L52 40L53 40L53 39ZM21 42L21 43L22 43L22 42ZM30 42L30 43L31 43L31 42ZM47 42L47 43L48 43L48 44L49 44L49 43L48 43L48 42ZM19 43L19 45L22 45L22 44L20 44L20 43ZM36 43L36 44L37 44L37 45L38 45L38 44L37 44L37 43ZM25 44L25 45L23 45L23 47L22 47L22 46L20 46L20 47L21 47L21 48L23 48L23 47L24 47L24 49L23 49L23 50L25 50L25 47L24 47L24 46L25 46L25 45L26 45L26 44ZM42 45L42 46L43 46L43 45ZM38 47L38 48L39 48L39 50L40 50L40 48L39 48L39 47ZM6 48L6 49L7 49L7 48ZM27 49L27 52L30 52L30 49ZM49 49L49 52L52 52L52 49ZM28 50L28 51L29 51L29 50ZM50 50L50 51L51 51L51 50ZM53 50L53 51L54 51L54 50ZM12 51L12 52L13 52L13 51ZM56 51L56 52L57 52L57 51ZM25 53L25 54L26 54L26 53ZM29 53L29 54L30 54L30 53ZM43 53L43 55L45 55L45 54L44 54L44 53ZM51 54L51 55L53 55L53 54ZM0 0L0 7L7 7L7 0ZM1 1L1 6L6 6L6 1ZM2 2L2 5L5 5L5 2ZM50 0L50 7L57 7L57 0ZM51 1L51 6L56 6L56 1ZM52 2L52 5L55 5L55 2ZM0 50L0 57L7 57L7 50ZM1 51L1 56L6 56L6 51ZM2 52L2 55L5 55L5 52Z" fill="#000000"/></g></g></svg>
