<?xml version="1.0" encoding="UTF-8"?>
<svg xmlns="http://www.w3.org/2000/svg" version="1.1" width="300" height="300" viewBox="0 0 300 300"><rect x="0" y="0" width="300" height="300" fill="#ffffff"/><g transform="scale(4.918)"><g transform="translate(2,2)"><path fill-rule="evenodd" d="M11 0L11 1L12 1L12 0ZM14 0L14 1L13 1L13 4L12 4L12 3L10 3L10 2L9 2L9 1L8 1L8 2L9 2L9 3L8 3L8 4L9 4L9 5L8 5L8 7L9 7L9 8L6 8L6 9L5 9L5 8L0 8L0 10L1 10L1 11L0 11L0 13L1 13L1 11L3 11L3 10L4 10L4 11L5 11L5 12L2 12L2 13L4 13L4 15L5 15L5 16L3 16L3 18L2 18L2 22L1 22L1 20L0 20L0 22L1 22L1 23L0 23L0 27L1 27L1 28L0 28L0 29L1 29L1 30L0 30L0 33L3 33L3 36L2 36L2 35L0 35L0 37L1 37L1 38L3 38L3 40L4 40L4 39L5 39L5 40L6 40L6 41L8 41L8 40L6 40L6 39L7 39L7 38L6 38L6 37L8 37L8 38L12 38L12 39L11 39L11 40L9 40L9 41L10 41L10 42L6 42L6 43L5 43L5 42L4 42L4 41L3 41L3 42L2 42L2 39L1 39L1 42L0 42L0 43L1 43L1 44L0 44L0 48L5 48L5 47L7 47L7 48L6 48L6 49L8 49L8 51L11 51L11 52L12 52L12 51L13 51L13 50L14 50L14 49L13 49L13 48L15 48L15 47L16 47L16 49L15 49L15 50L16 50L16 49L19 49L19 50L17 50L17 53L16 53L16 51L15 51L15 53L16 53L16 54L15 54L15 55L16 55L16 56L14 56L14 57L16 57L16 56L17 56L17 57L19 57L19 55L20 55L20 54L18 54L18 56L17 56L17 53L20 53L20 52L18 52L18 51L21 51L21 53L22 53L22 54L24 54L24 53L26 53L26 55L25 55L25 56L26 56L26 55L27 55L27 56L28 56L28 55L27 55L27 53L28 53L28 54L30 54L30 53L31 53L31 55L34 55L34 56L30 56L30 55L29 55L29 56L30 56L30 57L35 57L35 56L36 56L36 57L39 57L39 56L38 56L38 55L37 55L37 56L36 56L36 55L35 55L35 54L32 54L32 52L33 52L33 51L32 51L32 52L31 52L31 50L32 50L32 49L31 49L31 48L33 48L33 50L34 50L34 51L36 51L36 52L35 52L35 53L36 53L36 54L38 54L38 53L39 53L39 55L40 55L40 52L42 52L42 50L43 50L43 53L41 53L41 54L43 54L43 53L44 53L44 54L45 54L45 55L41 55L41 56L45 56L45 57L47 57L47 56L48 56L48 55L49 55L49 57L50 57L50 55L49 55L49 54L50 54L50 53L51 53L51 54L54 54L54 56L55 56L55 57L56 57L56 56L55 56L55 54L54 54L54 53L55 53L55 52L56 52L56 51L55 51L55 50L57 50L57 49L55 49L55 50L54 50L54 48L55 48L55 47L56 47L56 48L57 48L57 47L56 47L56 46L57 46L57 45L56 45L56 44L57 44L57 43L56 43L56 42L57 42L57 41L56 41L56 42L55 42L55 39L57 39L57 37L56 37L56 38L55 38L55 36L57 36L57 35L56 35L56 34L57 34L57 33L56 33L56 31L55 31L55 29L54 29L54 28L56 28L56 30L57 30L57 28L56 28L56 26L55 26L55 25L57 25L57 24L56 24L56 22L57 22L57 21L56 21L56 20L57 20L57 19L56 19L56 20L55 20L55 19L54 19L54 20L55 20L55 21L54 21L54 22L55 22L55 23L52 23L52 22L50 22L50 19L48 19L48 18L50 18L50 17L51 17L51 18L53 18L53 17L51 17L51 15L50 15L50 17L48 17L48 16L47 16L47 18L46 18L46 17L45 17L45 18L46 18L46 20L45 20L45 19L42 19L42 20L41 20L41 19L40 19L40 17L39 17L39 18L38 18L38 16L34 16L34 15L39 15L39 16L41 16L41 18L44 18L44 17L43 17L43 16L46 16L46 15L49 15L49 14L50 14L50 13L51 13L51 14L52 14L52 13L51 13L51 12L49 12L49 11L52 11L52 12L53 12L53 11L54 11L54 12L55 12L55 13L54 13L54 14L57 14L57 13L56 13L56 12L55 12L55 11L56 11L56 10L57 10L57 9L56 9L56 8L55 8L55 9L56 9L56 10L55 10L55 11L54 11L54 10L53 10L53 9L54 9L54 8L53 8L53 9L52 9L52 8L51 8L51 10L49 10L49 9L50 9L50 8L49 8L49 6L48 6L48 8L47 8L47 5L48 5L48 0L46 0L46 1L45 1L45 0L42 0L42 1L41 1L41 2L39 2L39 1L38 1L38 0L37 0L37 1L36 1L36 0L35 0L35 1L32 1L32 2L31 2L31 4L28 4L28 3L29 3L29 2L30 2L30 1L31 1L31 0L30 0L30 1L29 1L29 0L27 0L27 1L26 1L26 0L24 0L24 2L21 2L21 1L23 1L23 0L21 0L21 1L20 1L20 3L21 3L21 4L19 4L19 3L17 3L17 2L16 2L16 1L15 1L15 0ZM14 1L14 4L16 4L16 5L15 5L15 7L14 7L14 5L12 5L12 4L11 4L11 5L9 5L9 7L10 7L10 8L9 8L9 9L6 9L6 10L5 10L5 11L6 11L6 12L7 12L7 11L9 11L9 9L10 9L10 11L11 11L11 9L12 9L12 10L13 10L13 9L15 9L15 13L12 13L12 12L14 12L14 11L12 11L12 12L11 12L11 14L12 14L12 15L13 15L13 16L14 16L14 17L13 17L13 19L11 19L11 20L12 20L12 21L14 21L14 22L16 22L16 21L17 21L17 24L16 24L16 23L15 23L15 24L16 24L16 25L11 25L11 23L12 23L12 22L11 22L11 23L10 23L10 24L7 24L7 23L9 23L9 22L10 22L10 18L12 18L12 16L11 16L11 15L10 15L10 16L11 16L11 17L9 17L9 18L8 18L8 19L5 19L5 20L4 20L4 19L3 19L3 21L5 21L5 22L2 22L2 23L1 23L1 24L2 24L2 25L1 25L1 26L2 26L2 28L1 28L1 29L2 29L2 28L4 28L4 26L2 26L2 25L4 25L4 23L5 23L5 25L6 25L6 26L8 26L8 25L11 25L11 27L12 27L12 29L13 29L13 30L15 30L15 31L13 31L13 32L12 32L12 30L11 30L11 31L10 31L10 30L9 30L9 31L8 31L8 32L7 32L7 31L6 31L6 32L7 32L7 33L4 33L4 34L8 34L8 37L9 37L9 33L10 33L10 36L11 36L11 35L12 35L12 36L14 36L14 37L13 37L13 38L14 38L14 39L12 39L12 40L11 40L11 42L10 42L10 43L9 43L9 44L11 44L11 45L9 45L9 46L8 46L8 43L6 43L6 44L5 44L5 43L4 43L4 42L3 42L3 43L2 43L2 42L1 42L1 43L2 43L2 44L1 44L1 47L2 47L2 46L3 46L3 47L5 47L5 46L7 46L7 47L8 47L8 49L9 49L9 47L11 47L11 48L10 48L10 50L11 50L11 51L12 51L12 47L15 47L15 46L17 46L17 45L18 45L18 44L17 44L17 45L15 45L15 44L14 44L14 42L12 42L12 41L13 41L13 40L14 40L14 39L16 39L16 40L17 40L17 41L15 41L15 42L17 42L17 43L18 43L18 42L19 42L19 41L20 41L20 42L21 42L21 43L22 43L22 41L23 41L23 40L24 40L24 39L23 39L23 38L24 38L24 37L23 37L23 35L25 35L25 34L26 34L26 35L27 35L27 37L28 37L28 38L27 38L27 39L28 39L28 41L27 41L27 40L26 40L26 39L25 39L25 43L23 43L23 44L24 44L24 45L22 45L22 44L21 44L21 45L20 45L20 43L19 43L19 46L20 46L20 47L17 47L17 48L19 48L19 49L20 49L20 50L22 50L22 51L23 51L23 50L24 50L24 51L25 51L25 52L26 52L26 51L25 51L25 50L26 50L26 48L24 48L24 47L25 47L25 46L26 46L26 47L27 47L27 48L31 48L31 47L32 47L32 46L36 46L36 47L34 47L34 48L37 48L37 49L36 49L36 50L42 50L42 49L41 49L41 48L39 48L39 47L37 47L37 46L40 46L40 47L41 47L41 46L42 46L42 47L43 47L43 46L44 46L44 45L45 45L45 42L47 42L47 43L49 43L49 41L51 41L51 42L50 42L50 43L51 43L51 44L50 44L50 47L49 47L49 45L48 45L48 44L47 44L47 45L46 45L46 46L47 46L47 47L46 47L46 48L43 48L43 50L44 50L44 53L45 53L45 54L47 54L47 55L46 55L46 56L47 56L47 55L48 55L48 54L49 54L49 53L48 53L48 52L47 52L47 51L48 51L48 48L50 48L50 47L51 47L51 48L54 48L54 47L53 47L53 46L54 46L54 45L55 45L55 46L56 46L56 45L55 45L55 44L54 44L54 45L52 45L52 44L53 44L53 43L54 43L54 41L53 41L53 40L52 40L52 38L53 38L53 37L54 37L54 36L53 36L53 37L52 37L52 34L53 34L53 35L55 35L55 34L56 34L56 33L55 33L55 32L54 32L54 31L51 31L51 32L54 32L54 33L50 33L50 31L48 31L48 28L47 28L47 27L46 27L46 28L47 28L47 29L46 29L46 30L45 30L45 27L44 27L44 26L48 26L48 25L49 25L49 24L48 24L48 25L47 25L47 23L50 23L50 26L53 26L53 27L55 27L55 26L54 26L54 25L55 25L55 24L54 24L54 25L53 25L53 24L52 24L52 23L50 23L50 22L47 22L47 21L49 21L49 20L48 20L48 19L47 19L47 20L46 20L46 21L45 21L45 20L43 20L43 23L44 23L44 21L45 21L45 22L46 22L46 23L45 23L45 24L39 24L39 25L37 25L37 26L36 26L36 27L35 27L35 26L34 26L34 25L33 25L33 26L34 26L34 27L31 27L31 28L32 28L32 30L31 30L31 31L30 31L30 32L29 32L29 31L26 31L26 32L23 32L23 31L24 31L24 29L25 29L25 30L26 30L26 27L25 27L25 26L26 26L26 25L27 25L27 24L28 24L28 25L29 25L29 26L30 26L30 25L29 25L29 24L30 24L30 23L31 23L31 24L34 24L34 23L35 23L35 25L36 25L36 24L38 24L38 22L40 22L40 23L42 23L42 22L41 22L41 20L40 20L40 19L38 19L38 18L37 18L37 19L33 19L33 18L35 18L35 17L34 17L34 16L30 16L30 14L31 14L31 11L33 11L33 9L34 9L34 12L35 12L35 13L33 13L33 12L32 12L32 13L33 13L33 14L32 14L32 15L33 15L33 14L40 14L40 15L41 15L41 14L42 14L42 15L43 15L43 14L42 14L42 11L45 11L45 12L43 12L43 13L44 13L44 15L45 15L45 12L46 12L46 14L47 14L47 13L49 13L49 12L47 12L47 11L48 11L48 9L49 9L49 8L48 8L48 9L47 9L47 8L45 8L45 7L46 7L46 6L45 6L45 5L47 5L47 3L40 3L40 4L43 4L43 7L42 7L42 6L41 6L41 5L40 5L40 6L39 6L39 7L40 7L40 6L41 6L41 8L38 8L38 6L37 6L37 5L36 5L36 3L37 3L37 4L38 4L38 5L39 5L39 3L38 3L38 1L37 1L37 2L36 2L36 1L35 1L35 2L34 2L34 3L32 3L32 4L31 4L31 7L32 7L32 8L31 8L31 9L32 9L32 10L31 10L31 11L30 11L30 12L28 12L28 13L26 13L26 14L24 14L24 13L25 13L25 12L27 12L27 11L29 11L29 10L28 10L28 9L25 9L25 10L24 10L24 11L23 11L23 12L24 12L24 13L22 13L22 12L21 12L21 13L20 13L20 12L19 12L19 15L18 15L18 14L17 14L17 13L18 13L18 12L17 12L17 11L18 11L18 10L17 10L17 7L18 7L18 5L19 5L19 7L20 7L20 5L19 5L19 4L18 4L18 5L17 5L17 3L15 3L15 1ZM18 1L18 2L19 2L19 1ZM27 1L27 2L24 2L24 3L26 3L26 4L25 4L25 8L26 8L26 4L27 4L27 3L28 3L28 2L29 2L29 1ZM42 1L42 2L43 2L43 1ZM44 1L44 2L45 2L45 1ZM46 1L46 2L47 2L47 1ZM22 3L22 4L21 4L21 5L22 5L22 6L21 6L21 8L20 8L20 10L19 10L19 11L20 11L20 10L21 10L21 11L22 11L22 10L21 10L21 9L24 9L24 6L23 6L23 5L24 5L24 4L23 4L23 3ZM22 4L22 5L23 5L23 4ZM33 4L33 5L34 5L34 8L35 8L35 9L37 9L37 10L36 10L36 11L35 11L35 12L36 12L36 13L38 13L38 12L39 12L39 13L40 13L40 12L41 12L41 11L42 11L42 10L44 10L44 8L42 8L42 9L41 9L41 10L40 10L40 12L39 12L39 10L38 10L38 8L36 8L36 7L37 7L37 6L36 6L36 5L34 5L34 4ZM44 4L44 5L45 5L45 4ZM27 5L27 8L30 8L30 5ZM10 6L10 7L11 7L11 8L12 8L12 7L13 7L13 6L12 6L12 7L11 7L11 6ZM16 6L16 7L15 7L15 9L16 9L16 7L17 7L17 6ZM22 6L22 7L23 7L23 6ZM28 6L28 7L29 7L29 6ZM32 6L32 7L33 7L33 6ZM35 6L35 7L36 7L36 6ZM44 6L44 7L45 7L45 6ZM6 10L6 11L7 11L7 10ZM26 10L26 11L27 11L27 10ZM37 10L37 11L36 11L36 12L37 12L37 11L38 11L38 10ZM52 10L52 11L53 11L53 10ZM24 11L24 12L25 12L25 11ZM16 12L16 13L17 13L17 12ZM6 13L6 14L7 14L7 15L6 15L6 16L7 16L7 17L6 17L6 18L7 18L7 17L8 17L8 16L9 16L9 14L10 14L10 13L9 13L9 14L7 14L7 13ZM21 13L21 15L19 15L19 16L16 16L16 17L14 17L14 18L15 18L15 19L17 19L17 21L20 21L20 20L18 20L18 19L19 19L19 18L18 18L18 19L17 19L17 18L16 18L16 17L21 17L21 18L20 18L20 19L21 19L21 18L23 18L23 17L21 17L21 16L23 16L23 15L24 15L24 16L25 16L25 17L24 17L24 18L25 18L25 19L24 19L24 21L21 21L21 23L23 23L23 24L24 24L24 25L23 25L23 26L25 26L25 24L27 24L27 23L28 23L28 24L29 24L29 23L30 23L30 22L31 22L31 23L33 23L33 21L32 21L32 20L33 20L33 19L32 19L32 18L31 18L31 17L29 17L29 16L28 16L28 15L29 15L29 14L30 14L30 13L28 13L28 14L26 14L26 15L27 15L27 16L25 16L25 15L24 15L24 14L23 14L23 15L22 15L22 13ZM1 14L1 15L0 15L0 16L2 16L2 15L3 15L3 14ZM15 14L15 15L14 15L14 16L15 16L15 15L16 15L16 14ZM7 15L7 16L8 16L8 15ZM53 15L53 16L55 16L55 15ZM56 15L56 16L57 16L57 15ZM27 16L27 17L26 17L26 20L25 20L25 21L24 21L24 22L23 22L23 23L24 23L24 24L25 24L25 23L26 23L26 22L25 22L25 21L27 21L27 22L28 22L28 21L29 21L29 22L30 22L30 21L31 21L31 20L30 20L30 19L31 19L31 18L29 18L29 19L28 19L28 18L27 18L27 17L28 17L28 16ZM0 17L0 19L1 19L1 17ZM4 17L4 18L5 18L5 17ZM55 17L55 18L57 18L57 17ZM13 19L13 20L14 20L14 19ZM22 19L22 20L23 20L23 19ZM51 19L51 20L52 20L52 19ZM5 20L5 21L7 21L7 22L6 22L6 23L7 23L7 22L8 22L8 21L9 21L9 20ZM15 20L15 21L16 21L16 20ZM29 20L29 21L30 21L30 20ZM36 20L36 21L37 21L37 22L36 22L36 23L37 23L37 22L38 22L38 21L40 21L40 20L38 20L38 21L37 21L37 20ZM19 22L19 23L18 23L18 24L17 24L17 27L18 27L18 26L19 26L19 27L20 27L20 29L22 29L22 28L21 28L21 27L22 27L22 25L21 25L21 26L20 26L20 25L19 25L19 23L20 23L20 22ZM6 24L6 25L7 25L7 24ZM51 24L51 25L52 25L52 24ZM31 25L31 26L32 26L32 25ZM39 25L39 26L37 26L37 27L36 27L36 28L35 28L35 27L34 27L34 28L33 28L33 29L35 29L35 30L32 30L32 32L30 32L30 33L29 33L29 32L27 32L27 33L26 33L26 34L27 34L27 33L29 33L29 34L30 34L30 35L29 35L29 39L31 39L31 40L29 40L29 41L31 41L31 42L30 42L30 43L29 43L29 42L28 42L28 44L27 44L27 43L26 43L26 44L25 44L25 45L24 45L24 46L23 46L23 47L24 47L24 46L25 46L25 45L26 45L26 44L27 44L27 45L29 45L29 44L30 44L30 43L31 43L31 45L30 45L30 46L29 46L29 47L31 47L31 46L32 46L32 44L34 44L34 43L31 43L31 42L32 42L32 41L31 41L31 40L32 40L32 39L31 39L31 38L32 38L32 35L31 35L31 33L32 33L32 32L34 32L34 31L35 31L35 30L36 30L36 31L40 31L40 32L38 32L38 33L39 33L39 34L33 34L33 37L34 37L34 35L37 35L37 36L36 36L36 37L35 37L35 38L33 38L33 40L34 40L34 39L35 39L35 40L36 40L36 41L35 41L35 44L36 44L36 46L37 46L37 44L36 44L36 42L37 42L37 43L41 43L41 44L43 44L43 45L42 45L42 46L43 46L43 45L44 45L44 44L43 44L43 43L44 43L44 40L45 40L45 39L44 39L44 40L43 40L43 37L44 37L44 38L45 38L45 37L46 37L46 36L45 36L45 37L44 37L44 35L42 35L42 36L41 36L41 35L40 35L40 34L43 34L43 33L44 33L44 34L45 34L45 35L47 35L47 36L48 36L48 35L50 35L50 33L49 33L49 34L48 34L48 33L47 33L47 32L48 32L48 31L47 31L47 30L46 30L46 31L45 31L45 30L43 30L43 29L44 29L44 27L42 27L42 28L43 28L43 29L42 29L42 30L41 30L41 31L40 31L40 30L36 30L36 29L39 29L39 28L40 28L40 27L41 27L41 26L43 26L43 25L41 25L41 26L40 26L40 25ZM9 26L9 27L10 27L10 26ZM13 26L13 27L14 27L14 28L13 28L13 29L14 29L14 28L15 28L15 27L14 27L14 26ZM5 27L5 30L8 30L8 27ZM27 27L27 30L30 30L30 27ZM37 27L37 28L39 28L39 27ZM49 27L49 30L52 30L52 27ZM6 28L6 29L7 29L7 28ZM9 28L9 29L10 29L10 28ZM16 28L16 29L18 29L18 30L17 30L17 31L18 31L18 32L16 32L16 31L15 31L15 32L13 32L13 33L12 33L12 32L11 32L11 33L12 33L12 35L14 35L14 34L15 34L15 35L17 35L17 37L19 37L19 38L18 38L18 39L19 39L19 40L18 40L18 41L17 41L17 42L18 42L18 41L19 41L19 40L21 40L21 41L22 41L22 40L23 40L23 39L22 39L22 38L23 38L23 37L19 37L19 35L17 35L17 34L15 34L15 33L19 33L19 29L18 29L18 28ZM23 28L23 29L24 29L24 28ZM28 28L28 29L29 29L29 28ZM50 28L50 29L51 29L51 28ZM53 29L53 30L54 30L54 29ZM1 30L1 31L2 31L2 30ZM20 30L20 31L21 31L21 32L20 32L20 33L21 33L21 34L23 34L23 33L21 33L21 32L22 32L22 31L23 31L23 30ZM42 30L42 31L41 31L41 32L40 32L40 33L41 33L41 32L42 32L42 33L43 33L43 32L44 32L44 33L45 33L45 34L47 34L47 33L46 33L46 32L47 32L47 31L46 31L46 32L44 32L44 31L43 31L43 30ZM9 31L9 32L8 32L8 33L9 33L9 32L10 32L10 31ZM42 31L42 32L43 32L43 31ZM35 32L35 33L37 33L37 32ZM13 33L13 34L14 34L14 33ZM24 33L24 34L25 34L25 33ZM54 33L54 34L55 34L55 33ZM4 35L4 36L3 36L3 37L4 37L4 38L5 38L5 39L6 39L6 38L5 38L5 36L7 36L7 35ZM20 35L20 36L22 36L22 35ZM38 35L38 36L40 36L40 38L39 38L39 37L38 37L38 38L37 38L37 39L36 39L36 40L37 40L37 41L38 41L38 42L42 42L42 43L43 43L43 42L42 42L42 41L43 41L43 40L42 40L42 41L41 41L41 40L39 40L39 39L42 39L42 38L41 38L41 36L40 36L40 35ZM1 36L1 37L2 37L2 36ZM25 36L25 38L26 38L26 36ZM30 36L30 38L31 38L31 36ZM42 36L42 37L43 37L43 36ZM49 36L49 37L48 37L48 38L47 38L47 39L46 39L46 40L47 40L47 39L50 39L50 40L51 40L51 39L50 39L50 38L49 38L49 37L50 37L50 36ZM15 37L15 38L16 38L16 37ZM19 38L19 39L20 39L20 38ZM54 38L54 39L55 39L55 38ZM37 39L37 40L38 40L38 41L39 41L39 40L38 40L38 39ZM26 41L26 42L27 42L27 41ZM33 41L33 42L34 42L34 41ZM47 41L47 42L48 42L48 41ZM3 43L3 44L4 44L4 45L5 45L5 44L4 44L4 43ZM6 44L6 45L7 45L7 44ZM13 44L13 45L12 45L12 46L11 46L11 47L12 47L12 46L14 46L14 44ZM38 44L38 45L39 45L39 44ZM21 45L21 47L20 47L20 49L21 49L21 47L22 47L22 45ZM51 45L51 46L52 46L52 45ZM27 46L27 47L28 47L28 46ZM23 48L23 49L22 49L22 50L23 50L23 49L24 49L24 50L25 50L25 49L24 49L24 48ZM27 49L27 52L30 52L30 49ZM34 49L34 50L35 50L35 49ZM45 49L45 50L46 50L46 51L45 51L45 52L46 52L46 53L47 53L47 54L48 54L48 53L47 53L47 52L46 52L46 51L47 51L47 50L46 50L46 49ZM49 49L49 52L52 52L52 49ZM28 50L28 51L29 51L29 50ZM50 50L50 51L51 51L51 50ZM39 51L39 52L40 52L40 51ZM8 52L8 57L11 57L11 56L12 56L12 57L13 57L13 56L12 56L12 55L11 55L11 56L10 56L10 54L13 54L13 53L10 53L10 52ZM22 52L22 53L24 53L24 52ZM37 52L37 53L38 53L38 52ZM53 52L53 53L54 53L54 52ZM9 53L9 54L10 54L10 53ZM22 55L22 56L20 56L20 57L22 57L22 56L23 56L23 57L24 57L24 55ZM51 55L51 57L52 57L52 56L53 56L53 55ZM0 0L0 7L7 7L7 0ZM1 1L1 6L6 6L6 1ZM2 2L2 5L5 5L5 2ZM50 0L50 7L57 7L57 0ZM51 1L51 6L56 6L56 1ZM52 2L52 5L55 5L55 2ZM0 50L0 57L7 57L7 50ZM1 51L1 56L6 56L6 51ZM2 52L2 55L5 55L5 52Z" fill="#000000"/></g></g></svg>
