<?xml version="1.0" encoding="UTF-8"?>
<svg xmlns="http://www.w3.org/2000/svg" version="1.1" width="300" height="300" viewBox="0 0 300 300"><rect x="0" y="0" width="300" height="300" fill="#ffffff"/><g transform="scale(4.918)"><g transform="translate(2,2)"><path fill-rule="evenodd" d="M11 0L11 2L10 2L10 4L11 4L11 2L13 2L13 3L12 3L12 4L14 4L14 7L15 7L15 8L16 8L16 9L18 9L18 11L17 11L17 10L13 10L13 9L14 9L14 8L13 8L13 5L10 5L10 7L9 7L9 5L8 5L8 7L9 7L9 8L6 8L6 9L7 9L7 10L5 10L5 11L7 11L7 12L5 12L5 13L7 13L7 14L6 14L6 15L5 15L5 14L4 14L4 13L3 13L3 12L2 12L2 9L3 9L3 10L4 10L4 9L5 9L5 8L0 8L0 9L1 9L1 12L2 12L2 13L1 13L1 14L0 14L0 16L1 16L1 14L2 14L2 13L3 13L3 14L4 14L4 15L5 15L5 16L3 16L3 15L2 15L2 16L3 16L3 17L7 17L7 18L4 18L4 19L3 19L3 18L2 18L2 17L0 17L0 18L1 18L1 19L0 19L0 20L1 20L1 19L3 19L3 20L5 20L5 19L8 19L8 20L6 20L6 21L4 21L4 22L5 22L5 23L8 23L8 21L9 21L9 22L10 22L10 21L9 21L9 18L10 18L10 19L11 19L11 18L10 18L10 16L11 16L11 17L12 17L12 18L14 18L14 16L13 16L13 17L12 17L12 15L14 15L14 14L12 14L12 12L13 12L13 13L15 13L15 11L17 11L17 12L16 12L16 13L17 13L17 14L15 14L15 21L16 21L16 22L14 22L14 21L13 21L13 22L12 22L12 23L13 23L13 24L14 24L14 23L16 23L16 24L15 24L15 25L13 25L13 26L11 26L11 28L10 28L10 26L8 26L8 25L7 25L7 24L5 24L5 25L4 25L4 23L3 23L3 25L1 25L1 24L0 24L0 27L1 27L1 28L4 28L4 32L3 32L3 35L1 35L1 33L0 33L0 35L1 35L1 36L0 36L0 39L2 39L2 40L3 40L3 41L1 41L1 40L0 40L0 43L1 43L1 42L4 42L4 38L6 38L6 39L7 39L7 40L5 40L5 41L8 41L8 42L6 42L6 43L8 43L8 42L10 42L10 40L12 40L12 42L11 42L11 45L12 45L12 46L14 46L14 47L13 47L13 49L12 49L12 47L11 47L11 46L10 46L10 47L9 47L9 48L8 48L8 45L9 45L9 44L5 44L5 43L4 43L4 44L5 44L5 45L3 45L3 43L2 43L2 45L3 45L3 46L2 46L2 47L1 47L1 44L0 44L0 48L5 48L5 47L7 47L7 48L6 48L6 49L7 49L7 48L8 48L8 51L10 51L10 52L8 52L8 57L9 57L9 53L10 53L10 55L11 55L11 53L10 53L10 52L13 52L13 53L14 53L14 52L13 52L13 51L14 51L14 50L15 50L15 53L16 53L16 54L15 54L15 55L14 55L14 56L13 56L13 55L12 55L12 56L10 56L10 57L16 57L16 56L17 56L17 57L21 57L21 56L19 56L19 55L20 55L20 54L18 54L18 55L17 55L17 53L16 53L16 52L18 52L18 53L20 53L20 52L21 52L21 53L22 53L22 54L24 54L24 53L25 53L25 56L24 56L24 55L22 55L22 56L24 56L24 57L26 57L26 55L27 55L27 56L28 56L28 55L27 55L27 53L28 53L28 54L30 54L30 53L31 53L31 56L30 56L30 55L29 55L29 56L30 56L30 57L32 57L32 56L33 56L33 57L34 57L34 56L35 56L35 57L38 57L38 56L39 56L39 55L40 55L40 56L42 56L42 57L44 57L44 56L45 56L45 57L46 57L46 54L45 54L45 53L44 53L44 49L42 49L42 50L41 50L41 51L40 51L40 52L39 52L39 50L37 50L37 48L38 48L38 47L40 47L40 48L39 48L39 49L40 49L40 48L41 48L41 47L42 47L42 48L47 48L47 46L46 46L46 45L47 45L47 44L48 44L48 45L49 45L49 46L51 46L51 47L49 47L49 48L48 48L48 51L47 51L47 50L45 50L45 52L46 52L46 51L47 51L47 52L48 52L48 53L51 53L51 54L50 54L50 55L49 55L49 54L47 54L47 55L49 55L49 56L47 56L47 57L49 57L49 56L50 56L50 55L51 55L51 57L52 57L52 56L53 56L53 57L56 57L56 56L55 56L55 53L54 53L54 52L55 52L55 51L56 51L56 50L57 50L57 48L56 48L56 46L57 46L57 44L55 44L55 39L57 39L57 37L56 37L56 35L55 35L55 34L57 34L57 33L56 33L56 32L57 32L57 31L56 31L56 30L57 30L57 27L56 27L56 25L54 25L54 24L57 24L57 23L56 23L56 22L57 22L57 21L56 21L56 20L55 20L55 19L56 19L56 18L57 18L57 15L56 15L56 14L57 14L57 12L56 12L56 14L55 14L55 13L54 13L54 14L53 14L53 15L54 15L54 16L53 16L53 17L54 17L54 18L53 18L53 19L52 19L52 17L51 17L51 21L52 21L52 20L53 20L53 21L54 21L54 20L55 20L55 22L54 22L54 24L53 24L53 23L52 23L52 24L49 24L49 22L50 22L50 23L51 23L51 22L50 22L50 19L49 19L49 18L50 18L50 16L52 16L52 15L51 15L51 14L52 14L52 13L51 13L51 12L50 12L50 13L51 13L51 14L49 14L49 13L47 13L47 14L46 14L46 12L45 12L45 10L44 10L44 9L40 9L40 10L44 10L44 12L43 12L43 11L42 11L42 14L41 14L41 13L39 13L39 14L37 14L37 13L38 13L38 12L41 12L41 11L39 11L39 10L34 10L34 11L33 11L33 10L32 10L32 9L31 9L31 4L32 4L32 3L33 3L33 4L34 4L34 2L35 2L35 1L34 1L34 0L33 0L33 1L34 1L34 2L31 2L31 3L30 3L30 4L28 4L28 3L29 3L29 2L30 2L30 1L32 1L32 0L30 0L30 1L29 1L29 0L27 0L27 2L28 2L28 3L27 3L27 4L26 4L26 3L25 3L25 2L26 2L26 0L23 0L23 2L24 2L24 3L23 3L23 4L19 4L19 3L17 3L17 4L19 4L19 5L17 5L17 6L16 6L16 7L15 7L15 5L16 5L16 4L14 4L14 3L16 3L16 2L17 2L17 1L16 1L16 0ZM19 0L19 1L18 1L18 2L19 2L19 1L20 1L20 2L22 2L22 0L21 0L21 1L20 1L20 0ZM36 0L36 1L37 1L37 3L36 3L36 5L35 5L35 6L34 6L34 7L33 7L33 6L32 6L32 7L33 7L33 9L38 9L38 8L41 8L41 6L40 6L40 7L39 7L39 5L38 5L38 7L37 7L37 6L36 6L36 5L37 5L37 4L40 4L40 5L43 5L43 4L42 4L42 3L47 3L47 5L46 5L46 4L44 4L44 5L45 5L45 6L44 6L44 7L43 7L43 6L42 6L42 8L45 8L45 9L46 9L46 7L47 7L47 5L48 5L48 0L44 0L44 1L47 1L47 2L40 2L40 1L43 1L43 0L39 0L39 1L37 1L37 0ZM8 1L8 2L9 2L9 1ZM13 1L13 2L15 2L15 1ZM38 2L38 3L39 3L39 2ZM8 3L8 4L9 4L9 3ZM40 3L40 4L41 4L41 3ZM23 4L23 5L24 5L24 4ZM25 4L25 8L26 8L26 4ZM19 5L19 7L18 7L18 6L17 6L17 7L16 7L16 8L17 8L17 7L18 7L18 8L19 8L19 9L20 9L20 10L19 10L19 11L20 11L20 12L21 12L21 13L19 13L19 14L17 14L17 15L16 15L16 16L18 16L18 15L19 15L19 14L20 14L20 16L19 16L19 17L16 17L16 18L19 18L19 19L22 19L22 21L21 21L21 20L20 20L20 21L18 21L18 19L17 19L17 20L16 20L16 21L18 21L18 22L17 22L17 23L19 23L19 25L15 25L15 26L14 26L14 27L12 27L12 28L11 28L11 30L12 30L12 31L10 31L10 30L9 30L9 32L10 32L10 33L8 33L8 32L7 32L7 31L6 31L6 32L4 32L4 34L7 34L7 35L5 35L5 37L6 37L6 38L7 38L7 37L6 37L6 36L8 36L8 34L9 34L9 35L10 35L10 37L8 37L8 39L9 39L9 40L8 40L8 41L9 41L9 40L10 40L10 39L11 39L11 38L10 38L10 37L12 37L12 38L14 38L14 39L12 39L12 40L14 40L14 41L13 41L13 42L12 42L12 44L13 44L13 45L14 45L14 46L15 46L15 45L14 45L14 44L16 44L16 43L15 43L15 41L16 41L16 42L17 42L17 43L18 43L18 41L16 41L16 40L18 40L18 39L20 39L20 38L19 38L19 37L21 37L21 38L22 38L22 37L23 37L23 38L24 38L24 37L23 37L23 36L24 36L24 35L25 35L25 40L24 40L24 39L23 39L23 40L22 40L22 41L21 41L21 40L20 40L20 42L19 42L19 43L20 43L20 44L19 44L19 45L20 45L20 46L19 46L19 47L18 47L18 46L17 46L17 45L18 45L18 44L17 44L17 45L16 45L16 46L17 46L17 47L16 47L16 48L17 48L17 47L18 47L18 48L19 48L19 49L16 49L16 51L18 51L18 52L19 52L19 51L18 51L18 50L21 50L21 49L22 49L22 50L23 50L23 51L21 51L21 52L22 52L22 53L24 53L24 51L25 51L25 53L26 53L26 51L25 51L25 50L23 50L23 48L24 48L24 46L23 46L23 45L25 45L25 49L26 49L26 48L32 48L32 51L31 51L31 52L32 52L32 54L33 54L33 55L36 55L36 56L37 56L37 54L39 54L39 52L37 52L37 50L35 50L35 48L37 48L37 47L34 47L34 48L32 48L32 46L40 46L40 47L41 47L41 46L42 46L42 47L45 47L45 46L42 46L42 45L43 45L43 44L44 44L44 45L45 45L45 43L46 43L46 42L48 42L48 43L49 43L49 41L51 41L51 42L50 42L50 43L51 43L51 42L53 42L53 43L52 43L52 44L53 44L53 43L54 43L54 41L51 41L51 40L53 40L53 39L55 39L55 38L53 38L53 37L52 37L52 34L53 34L53 35L54 35L54 34L53 34L53 33L55 33L55 32L53 32L53 31L54 31L54 30L56 30L56 29L55 29L55 28L54 28L54 29L53 29L53 31L52 31L52 32L53 32L53 33L51 33L51 34L50 34L50 32L49 32L49 31L48 31L48 28L47 28L47 27L48 27L48 26L47 26L47 25L49 25L49 26L53 26L53 27L55 27L55 26L54 26L54 25L53 25L53 24L52 24L52 25L49 25L49 24L47 24L47 21L46 21L46 20L47 20L47 19L46 19L46 18L47 18L47 17L46 17L46 18L45 18L45 16L49 16L49 15L45 15L45 16L43 16L43 17L44 17L44 19L46 19L46 20L43 20L43 22L42 22L42 21L41 21L41 20L40 20L40 19L39 19L39 20L40 20L40 21L38 21L38 22L37 22L37 21L36 21L36 20L38 20L38 18L41 18L41 19L43 19L43 18L41 18L41 16L42 16L42 15L43 15L43 14L42 14L42 15L41 15L41 14L39 14L39 15L38 15L38 16L37 16L37 14L35 14L35 13L33 13L33 12L31 12L31 11L30 11L30 12L28 12L28 13L27 13L27 14L26 14L26 13L25 13L25 12L27 12L27 11L29 11L29 9L25 9L25 12L24 12L24 13L22 13L22 12L21 12L21 11L22 11L22 10L23 10L23 11L24 11L24 10L23 10L23 9L24 9L24 6L23 6L23 8L22 8L22 5L21 5L21 9L20 9L20 8L19 8L19 7L20 7L20 5ZM27 5L27 8L30 8L30 5ZM11 6L11 8L10 8L10 10L7 10L7 11L9 11L9 12L8 12L8 13L9 13L9 12L10 12L10 13L11 13L11 11L12 11L12 10L11 10L11 8L12 8L12 9L13 9L13 8L12 8L12 6ZM28 6L28 7L29 7L29 6ZM35 6L35 7L36 7L36 8L37 8L37 7L36 7L36 6ZM45 6L45 7L46 7L46 6ZM48 6L48 7L49 7L49 6ZM49 8L49 9L47 9L47 10L50 10L50 11L52 11L52 12L53 12L53 11L54 11L54 12L55 12L55 11L56 11L56 10L57 10L57 9L56 9L56 8L55 8L55 11L54 11L54 10L53 10L53 9L54 9L54 8L53 8L53 9L52 9L52 8L51 8L51 9L52 9L52 10L50 10L50 8ZM21 9L21 10L22 10L22 9ZM26 10L26 11L27 11L27 10ZM52 10L52 11L53 11L53 10ZM13 11L13 12L14 12L14 11ZM34 11L34 12L35 12L35 11ZM36 11L36 12L37 12L37 11ZM48 11L48 12L49 12L49 11ZM17 12L17 13L18 13L18 12ZM44 12L44 14L45 14L45 12ZM21 13L21 14L22 14L22 13ZM24 13L24 14L23 14L23 15L24 15L24 17L22 17L22 15L21 15L21 16L20 16L20 17L21 17L21 18L23 18L23 20L24 20L24 21L22 21L22 22L24 22L24 21L25 21L25 22L26 22L26 23L25 23L25 24L27 24L27 25L26 25L26 26L25 26L25 25L22 25L22 26L20 26L20 25L19 25L19 26L20 26L20 28L19 28L19 29L18 29L18 28L16 28L16 26L15 26L15 27L14 27L14 28L15 28L15 31L14 31L14 33L15 33L15 34L12 34L12 32L11 32L11 34L10 34L10 35L11 35L11 36L12 36L12 37L13 37L13 35L15 35L15 36L16 36L16 35L17 35L17 37L19 37L19 34L18 34L18 33L19 33L19 31L21 31L21 32L20 32L20 33L21 33L21 34L20 34L20 35L21 35L21 34L22 34L22 33L21 33L21 32L23 32L23 30L22 30L22 31L21 31L21 30L19 30L19 29L22 29L22 28L21 28L21 27L22 27L22 26L23 26L23 29L24 29L24 30L25 30L25 31L24 31L24 33L23 33L23 34L25 34L25 35L27 35L27 33L29 33L29 34L30 34L30 35L29 35L29 39L31 39L31 38L32 38L32 34L31 34L31 32L33 32L33 34L34 34L34 35L33 35L33 36L34 36L34 37L35 37L35 38L36 38L36 39L37 39L37 38L38 38L38 37L39 37L39 38L40 38L40 36L43 36L43 37L41 37L41 39L40 39L40 40L42 40L42 41L41 41L41 42L42 42L42 43L41 43L41 44L43 44L43 43L44 43L44 42L43 42L43 40L45 40L45 41L46 41L46 40L45 40L45 39L43 39L43 37L44 37L44 38L45 38L45 37L44 37L44 35L40 35L40 32L41 32L41 34L43 34L43 32L45 32L45 30L46 30L46 31L47 31L47 32L48 32L48 31L47 31L47 30L46 30L46 29L47 29L47 28L46 28L46 27L47 27L47 26L46 26L46 25L47 25L47 24L46 24L46 22L45 22L45 21L44 21L44 24L43 24L43 23L42 23L42 22L41 22L41 23L40 23L40 22L39 22L39 23L40 23L40 24L41 24L41 26L40 26L40 25L39 25L39 24L36 24L36 23L37 23L37 22L36 22L36 23L35 23L35 22L34 22L34 21L35 21L35 19L37 19L37 18L38 18L38 17L39 17L39 16L41 16L41 15L39 15L39 16L38 16L38 17L37 17L37 16L36 16L36 15L35 15L35 14L30 14L30 13L28 13L28 14L27 14L27 16L25 16L25 13ZM7 14L7 15L6 15L6 16L7 16L7 17L8 17L8 16L7 16L7 15L8 15L8 14ZM29 14L29 15L28 15L28 16L27 16L27 17L28 17L28 16L29 16L29 17L31 17L31 16L32 16L32 17L33 17L33 16L32 16L32 15L31 15L31 16L30 16L30 14ZM55 15L55 16L54 16L54 17L55 17L55 18L56 18L56 17L55 17L55 16L56 16L56 15ZM34 16L34 18L29 18L29 19L28 19L28 18L26 18L26 17L25 17L25 18L26 18L26 20L25 20L25 21L28 21L28 22L30 22L30 23L31 23L31 22L30 22L30 21L29 21L29 20L30 20L30 19L34 19L34 18L36 18L36 16ZM13 19L13 20L14 20L14 19ZM27 19L27 20L28 20L28 19ZM32 20L32 21L33 21L33 20ZM6 21L6 22L7 22L7 21ZM1 22L1 23L2 23L2 22ZM13 22L13 23L14 23L14 22ZM19 22L19 23L20 23L20 22ZM33 22L33 23L34 23L34 25L33 25L33 24L32 24L32 25L31 25L31 24L28 24L28 23L27 23L27 24L28 24L28 25L27 25L27 26L29 26L29 25L31 25L31 28L32 28L32 30L31 30L31 31L33 31L33 30L39 30L39 29L41 29L41 30L40 30L40 31L38 31L38 32L37 32L37 31L36 31L36 32L35 32L35 31L34 31L34 34L35 34L35 33L36 33L36 32L37 32L37 33L38 33L38 34L37 34L37 35L34 35L34 36L35 36L35 37L36 37L36 38L37 38L37 37L38 37L38 36L37 36L37 35L38 35L38 34L39 34L39 33L38 33L38 32L40 32L40 31L41 31L41 30L42 30L42 31L44 31L44 30L45 30L45 28L44 28L44 27L46 27L46 26L45 26L45 24L44 24L44 25L43 25L43 24L42 24L42 23L41 23L41 24L42 24L42 25L43 25L43 26L41 26L41 28L40 28L40 27L39 27L39 25L38 25L38 27L37 27L37 25L36 25L36 24L35 24L35 23L34 23L34 22ZM9 23L9 25L10 25L10 24L11 24L11 25L12 25L12 24L11 24L11 23ZM23 23L23 24L24 24L24 23ZM5 25L5 26L7 26L7 25ZM32 25L32 26L33 26L33 25ZM3 26L3 27L4 27L4 26ZM17 26L17 27L18 27L18 26ZM24 26L24 27L25 27L25 28L24 28L24 29L25 29L25 30L26 30L26 27L25 27L25 26ZM34 26L34 28L33 28L33 27L32 27L32 28L33 28L33 29L37 29L37 27L36 27L36 26ZM5 27L5 30L8 30L8 27ZM27 27L27 30L30 30L30 27ZM42 27L42 28L43 28L43 29L42 29L42 30L44 30L44 28L43 28L43 27ZM49 27L49 30L52 30L52 27ZM6 28L6 29L7 29L7 28ZM12 28L12 30L14 30L14 29L13 29L13 28ZM28 28L28 29L29 29L29 28ZM38 28L38 29L39 29L39 28ZM50 28L50 29L51 29L51 28ZM1 29L1 30L0 30L0 32L2 32L2 30L3 30L3 29ZM16 29L16 31L15 31L15 33L16 33L16 34L17 34L17 33L16 33L16 31L18 31L18 29ZM25 31L25 32L26 32L26 33L25 33L25 34L26 34L26 33L27 33L27 31ZM28 31L28 32L29 32L29 33L30 33L30 31ZM6 32L6 33L7 33L7 32ZM45 33L45 34L46 34L46 35L45 35L45 36L47 36L47 35L49 35L49 34L48 34L48 33L47 33L47 34L46 34L46 33ZM22 35L22 36L21 36L21 37L22 37L22 36L23 36L23 35ZM39 35L39 36L40 36L40 35ZM50 35L50 36L49 36L49 37L50 37L50 38L48 38L48 37L47 37L47 38L48 38L48 39L50 39L50 40L51 40L51 39L50 39L50 38L52 38L52 39L53 39L53 38L52 38L52 37L50 37L50 36L51 36L51 35ZM2 36L2 37L1 37L1 38L3 38L3 37L4 37L4 36ZM26 36L26 39L27 39L27 41L26 41L26 42L27 42L27 43L26 43L26 44L25 44L25 41L24 41L24 40L23 40L23 41L22 41L22 43L21 43L21 44L20 44L20 45L21 45L21 47L20 47L20 49L21 49L21 47L22 47L22 48L23 48L23 47L22 47L22 45L23 45L23 44L25 44L25 45L26 45L26 44L27 44L27 45L30 45L30 44L27 44L27 43L28 43L28 42L27 42L27 41L28 41L28 39L27 39L27 38L28 38L28 37L27 37L27 36ZM30 36L30 38L31 38L31 36ZM36 36L36 37L37 37L37 36ZM54 36L54 37L55 37L55 36ZM15 37L15 38L16 38L16 37ZM9 38L9 39L10 39L10 38ZM14 39L14 40L16 40L16 39ZM32 39L32 40L34 40L34 41L35 41L35 42L32 42L32 41L31 41L31 40L30 40L30 41L29 41L29 43L31 43L31 44L34 44L34 43L36 43L36 44L35 44L35 45L37 45L37 42L38 42L38 43L39 43L39 44L38 44L38 45L39 45L39 44L40 44L40 43L39 43L39 42L40 42L40 41L39 41L39 42L38 42L38 41L37 41L37 40L34 40L34 39ZM38 39L38 40L39 40L39 39ZM23 41L23 43L24 43L24 41ZM56 41L56 42L57 42L57 41ZM13 42L13 44L14 44L14 42ZM31 42L31 43L32 43L32 42ZM21 44L21 45L22 45L22 44ZM49 44L49 45L51 45L51 46L52 46L52 47L51 47L51 48L53 48L53 49L55 49L55 50L56 50L56 48L53 48L53 46L54 46L54 47L55 47L55 46L56 46L56 45L55 45L55 44L54 44L54 45L51 45L51 44ZM6 45L6 46L7 46L7 45ZM54 45L54 46L55 46L55 45ZM3 46L3 47L5 47L5 46ZM26 46L26 47L31 47L31 46ZM10 47L10 48L9 48L9 50L11 50L11 51L13 51L13 50L11 50L11 47ZM27 49L27 52L30 52L30 49ZM33 49L33 50L34 50L34 51L32 51L32 52L33 52L33 53L34 53L34 51L35 51L35 52L36 52L36 53L35 53L35 54L37 54L37 52L36 52L36 51L35 51L35 50L34 50L34 49ZM49 49L49 52L52 52L52 49ZM28 50L28 51L29 51L29 50ZM42 50L42 51L43 51L43 50ZM50 50L50 51L51 51L51 50ZM40 52L40 55L41 55L41 52ZM42 52L42 53L43 53L43 55L42 55L42 56L44 56L44 55L45 55L45 54L44 54L44 53L43 53L43 52ZM56 52L56 53L57 53L57 52ZM51 54L51 55L54 55L54 54ZM15 55L15 56L16 56L16 55ZM0 0L0 7L7 7L7 0ZM1 1L1 6L6 6L6 1ZM2 2L2 5L5 5L5 2ZM50 0L50 7L57 7L57 0ZM51 1L51 6L56 6L56 1ZM52 2L52 5L55 5L55 2ZM0 50L0 57L7 57L7 50ZM1 51L1 56L6 56L6 51ZM2 52L2 55L5 55L5 52Z" fill="#000000"/></g></g></svg>
