<?xml version="1.0" encoding="UTF-8"?>
<svg xmlns="http://www.w3.org/2000/svg" version="1.1" width="300" height="300" viewBox="0 0 300 300"><rect x="0" y="0" width="300" height="300" fill="#ffffff"/><g transform="scale(4.918)"><g transform="translate(2,2)"><path fill-rule="evenodd" d="M9 0L9 1L8 1L8 2L9 2L9 3L8 3L8 4L9 4L9 3L12 3L12 4L13 4L13 5L12 5L12 9L13 9L13 11L14 11L14 12L12 12L12 11L11 11L11 10L8 10L8 9L9 9L9 8L6 8L6 9L5 9L5 8L0 8L0 10L1 10L1 11L0 11L0 12L1 12L1 13L2 13L2 15L1 15L1 14L0 14L0 15L1 15L1 16L0 16L0 17L1 17L1 16L2 16L2 18L1 18L1 19L0 19L0 21L1 21L1 22L0 22L0 23L1 23L1 24L5 24L5 22L3 22L3 21L5 21L5 20L6 20L6 21L7 21L7 20L8 20L8 21L9 21L9 22L6 22L6 23L8 23L8 24L9 24L9 25L8 25L8 26L6 26L6 25L7 25L7 24L6 24L6 25L5 25L5 26L4 26L4 25L3 25L3 26L2 26L2 25L0 25L0 26L2 26L2 28L3 28L3 29L4 29L4 30L0 30L0 32L4 32L4 33L2 33L2 34L0 34L0 37L2 37L2 38L3 38L3 39L4 39L4 40L5 40L5 41L4 41L4 42L3 42L3 40L2 40L2 39L0 39L0 40L2 40L2 41L1 41L1 42L2 42L2 45L1 45L1 46L0 46L0 48L5 48L5 47L7 47L7 48L6 48L6 49L8 49L8 51L10 51L10 53L9 53L9 52L8 52L8 57L9 57L9 55L10 55L10 54L11 54L11 55L12 55L12 56L11 56L11 57L12 57L12 56L13 56L13 57L15 57L15 55L16 55L16 57L17 57L17 56L18 56L18 57L20 57L20 56L19 56L19 55L20 55L20 54L19 54L19 55L18 55L18 54L17 54L17 53L20 53L20 52L21 52L21 51L22 51L22 50L23 50L23 51L24 51L24 53L21 53L21 54L24 54L24 53L25 53L25 54L26 54L26 55L27 55L27 56L28 56L28 55L27 55L27 53L28 53L28 54L30 54L30 53L31 53L31 55L34 55L34 56L30 56L30 55L29 55L29 56L30 56L30 57L38 57L38 55L40 55L40 56L39 56L39 57L40 57L40 56L41 56L41 57L42 57L42 56L43 56L43 57L44 57L44 56L45 56L45 57L46 57L46 56L47 56L47 57L48 57L48 56L50 56L50 55L51 55L51 57L52 57L52 56L53 56L53 57L54 57L54 56L55 56L55 57L56 57L56 56L55 56L55 54L54 54L54 55L51 55L51 54L53 54L53 49L54 49L54 48L55 48L55 50L57 50L57 49L56 49L56 48L55 48L55 47L56 47L56 46L57 46L57 45L56 45L56 44L55 44L55 43L56 43L56 42L57 42L57 41L55 41L55 39L57 39L57 37L56 37L56 38L55 38L55 39L54 39L54 38L53 38L53 40L54 40L54 43L53 43L53 42L51 42L51 41L52 41L52 38L51 38L51 37L52 37L52 36L53 36L53 37L54 37L54 36L55 36L55 35L54 35L54 36L53 36L53 34L52 34L52 36L51 36L51 37L50 37L50 36L48 36L48 35L50 35L50 32L51 32L51 33L53 33L53 32L55 32L55 33L54 33L54 34L57 34L57 33L56 33L56 30L57 30L57 29L56 29L56 28L57 28L57 27L53 27L53 25L52 25L52 24L54 24L54 26L57 26L57 23L56 23L56 22L57 22L57 21L56 21L56 20L57 20L57 19L55 19L55 18L57 18L57 17L54 17L54 16L55 16L55 15L56 15L56 16L57 16L57 15L56 15L56 14L57 14L57 13L56 13L56 14L55 14L55 13L54 13L54 16L53 16L53 15L50 15L50 11L52 11L52 12L53 12L53 11L54 11L54 12L55 12L55 11L56 11L56 12L57 12L57 11L56 11L56 10L55 10L55 11L54 11L54 10L53 10L53 9L54 9L54 8L53 8L53 9L52 9L52 8L51 8L51 10L50 10L50 8L49 8L49 6L48 6L48 7L47 7L47 5L48 5L48 0L45 0L45 2L43 2L43 3L42 3L42 2L40 2L40 1L44 1L44 0L39 0L39 1L37 1L37 0L36 0L36 1L33 1L33 2L32 2L32 1L31 1L31 0L30 0L30 1L28 1L28 0L27 0L27 1L26 1L26 0L24 0L24 1L23 1L23 0L21 0L21 2L20 2L20 3L21 3L21 4L19 4L19 3L18 3L18 4L19 4L19 5L20 5L20 7L19 7L19 6L18 6L18 8L16 8L16 7L17 7L17 6L16 6L16 7L15 7L15 6L14 6L14 5L16 5L16 4L14 4L14 2L12 2L12 0ZM13 0L13 1L15 1L15 3L17 3L17 2L16 2L16 0ZM9 1L9 2L10 2L10 1ZM18 1L18 2L19 2L19 1ZM22 1L22 2L21 2L21 3L22 3L22 4L21 4L21 8L20 8L20 10L21 10L21 11L20 11L20 12L19 12L19 14L20 14L20 15L18 15L18 14L17 14L17 13L18 13L18 12L17 12L17 11L18 11L18 10L19 10L19 9L15 9L15 8L14 8L14 6L13 6L13 9L15 9L15 12L17 12L17 13L12 13L12 15L13 15L13 14L14 14L14 15L15 15L15 16L14 16L14 17L13 17L13 16L11 16L11 17L10 17L10 15L11 15L11 12L10 12L10 11L9 11L9 12L8 12L8 11L6 11L6 10L7 10L7 9L6 9L6 10L5 10L5 11L6 11L6 12L5 12L5 13L4 13L4 14L5 14L5 13L6 13L6 14L7 14L7 15L4 15L4 16L3 16L3 15L2 15L2 16L3 16L3 17L4 17L4 18L7 18L7 19L6 19L6 20L7 20L7 19L9 19L9 20L10 20L10 18L11 18L11 17L13 17L13 18L12 18L12 21L11 21L11 22L10 22L10 23L9 23L9 24L10 24L10 25L11 25L11 26L10 26L10 27L11 27L11 26L12 26L12 24L16 24L16 25L14 25L14 27L13 27L13 28L11 28L11 30L12 30L12 33L11 33L11 31L10 31L10 32L9 32L9 33L11 33L11 34L13 34L13 35L11 35L11 36L10 36L10 34L9 34L9 36L8 36L8 31L5 31L5 32L7 32L7 33L6 33L6 34L7 34L7 35L6 35L6 36L7 36L7 37L5 37L5 34L3 34L3 35L2 35L2 37L3 37L3 38L4 38L4 39L5 39L5 38L7 38L7 39L6 39L6 40L7 40L7 41L5 41L5 42L4 42L4 45L2 45L2 46L1 46L1 47L2 47L2 46L3 46L3 47L5 47L5 46L4 46L4 45L6 45L6 46L7 46L7 47L9 47L9 48L10 48L10 46L11 46L11 49L9 49L9 50L10 50L10 51L11 51L11 49L12 49L12 50L13 50L13 51L12 51L12 52L11 52L11 54L13 54L13 53L12 53L12 52L14 52L14 53L15 53L15 54L16 54L16 53L17 53L17 51L18 51L18 52L20 52L20 51L21 51L21 49L25 49L25 48L26 48L26 47L25 47L25 48L24 48L24 46L23 46L23 45L25 45L25 46L27 46L27 48L32 48L32 49L31 49L31 52L32 52L32 54L34 54L34 55L36 55L36 56L37 56L37 55L38 55L38 54L39 54L39 53L38 53L38 54L37 54L37 55L36 55L36 54L35 54L35 52L36 52L36 51L34 51L34 52L32 52L32 51L33 51L33 50L37 50L37 52L40 52L40 55L42 55L42 54L41 54L41 52L40 52L40 51L44 51L44 53L43 53L43 52L42 52L42 53L43 53L43 56L44 56L44 55L45 55L45 56L46 56L46 54L47 54L47 53L48 53L48 52L47 52L47 51L48 51L48 48L49 48L49 47L52 47L52 48L54 48L54 47L55 47L55 46L53 46L53 45L52 45L52 44L53 44L53 43L52 43L52 44L51 44L51 45L50 45L50 44L49 44L49 43L48 43L48 44L47 44L47 45L46 45L46 46L47 46L47 47L45 47L45 46L42 46L42 45L43 45L43 44L39 44L39 43L38 43L38 44L39 44L39 45L38 45L38 46L36 46L36 45L35 45L35 44L37 44L37 43L36 43L36 42L39 42L39 41L43 41L43 40L42 40L42 39L47 39L47 41L46 41L46 40L44 40L44 42L48 42L48 41L51 41L51 40L50 40L50 39L51 39L51 38L50 38L50 37L48 37L48 36L47 36L47 35L45 35L45 34L47 34L47 33L48 33L48 34L49 34L49 31L48 31L48 28L47 28L47 26L48 26L48 25L49 25L49 26L51 26L51 24L52 24L52 22L53 22L53 23L55 23L55 20L54 20L54 19L53 19L53 16L50 16L50 15L46 15L46 16L44 16L44 15L45 15L45 12L46 12L46 14L47 14L47 13L49 13L49 11L50 11L50 10L49 10L49 11L47 11L47 9L49 9L49 8L47 8L47 7L46 7L46 6L45 6L45 5L47 5L47 3L43 3L43 5L42 5L42 3L40 3L40 5L41 5L41 7L40 7L40 6L39 6L39 2L34 2L34 3L32 3L32 4L31 4L31 3L30 3L30 2L31 2L31 1L30 1L30 2L29 2L29 3L27 3L27 2L28 2L28 1L27 1L27 2L25 2L25 1L24 1L24 2L23 2L23 1ZM46 1L46 2L47 2L47 1ZM22 2L22 3L23 3L23 4L22 4L22 5L23 5L23 6L22 6L22 7L23 7L23 6L24 6L24 8L23 8L23 9L22 9L22 8L21 8L21 9L22 9L22 11L21 11L21 12L20 12L20 13L21 13L21 15L20 15L20 17L19 17L19 16L18 16L18 17L17 17L17 14L15 14L15 15L16 15L16 17L14 17L14 18L16 18L16 17L17 17L17 19L18 19L18 21L20 21L20 20L19 20L19 19L21 19L21 21L22 21L22 22L21 22L21 23L22 23L22 24L24 24L24 23L22 23L22 22L24 22L24 21L25 21L25 22L26 22L26 23L25 23L25 24L27 24L27 25L26 25L26 26L25 26L25 25L23 25L23 26L24 26L24 28L23 28L23 29L24 29L24 30L22 30L22 31L20 31L20 30L19 30L19 29L22 29L22 28L21 28L21 27L22 27L22 25L21 25L21 24L20 24L20 25L19 25L19 23L20 23L20 22L19 22L19 23L18 23L18 22L17 22L17 21L16 21L16 20L15 20L15 21L16 21L16 22L15 22L15 23L16 23L16 24L17 24L17 23L18 23L18 25L17 25L17 26L16 26L16 27L15 27L15 28L14 28L14 29L18 29L18 30L19 30L19 31L20 31L20 32L18 32L18 33L19 33L19 34L18 34L18 35L20 35L20 33L21 33L21 34L23 34L23 35L24 35L24 36L23 36L23 37L22 37L22 35L21 35L21 37L19 37L19 36L17 36L17 40L16 40L16 39L14 39L14 41L19 41L19 42L18 42L18 43L17 43L17 44L15 44L15 43L16 43L16 42L14 42L14 44L13 44L13 45L12 45L12 44L11 44L11 43L13 43L13 40L12 40L12 38L14 38L14 37L12 37L12 36L11 36L11 37L10 37L10 36L9 36L9 37L8 37L8 39L7 39L7 40L8 40L8 41L7 41L7 42L5 42L5 43L8 43L8 41L9 41L9 45L12 45L12 47L13 47L13 48L14 48L14 50L15 50L15 49L17 49L17 50L18 50L18 51L19 51L19 50L20 50L20 49L21 49L21 48L23 48L23 47L22 47L22 45L23 45L23 44L25 44L25 45L26 45L26 44L27 44L27 45L29 45L29 47L32 47L32 48L33 48L33 49L32 49L32 50L33 50L33 49L35 49L35 48L36 48L36 49L37 49L37 50L38 50L38 51L39 51L39 50L46 50L46 51L47 51L47 50L46 50L46 48L45 48L45 47L42 47L42 46L41 46L41 47L39 47L39 48L38 48L38 49L37 49L37 48L36 48L36 46L32 46L32 43L31 43L31 42L32 42L32 41L31 41L31 40L32 40L32 39L31 39L31 38L32 38L32 35L31 35L31 34L32 34L32 32L34 32L34 31L36 31L36 30L37 30L37 32L35 32L35 34L33 34L33 37L35 37L35 38L36 38L36 39L34 39L34 40L35 40L35 41L37 41L37 40L38 40L38 41L39 41L39 40L38 40L38 39L40 39L40 38L38 38L38 37L40 37L40 36L43 36L43 37L42 37L42 38L41 38L41 39L42 39L42 38L43 38L43 37L44 37L44 38L45 38L45 37L47 37L47 38L48 38L48 37L47 37L47 36L45 36L45 37L44 37L44 35L42 35L42 34L44 34L44 32L45 32L45 31L44 31L44 30L46 30L46 31L47 31L47 32L46 32L46 33L47 33L47 32L48 32L48 31L47 31L47 30L46 30L46 29L47 29L47 28L46 28L46 26L45 26L45 25L48 25L48 24L49 24L49 25L50 25L50 24L49 24L49 22L50 22L50 23L51 23L51 22L50 22L50 19L49 19L49 20L48 20L48 19L47 19L47 18L50 18L50 16L47 16L47 18L46 18L46 17L45 17L45 18L46 18L46 19L44 19L44 16L43 16L43 15L44 15L44 11L46 11L46 10L44 10L44 8L45 8L45 9L46 9L46 7L45 7L45 6L44 6L44 8L41 8L41 10L42 10L42 14L41 14L41 13L40 13L40 14L41 14L41 15L40 15L40 16L38 16L38 17L39 17L39 18L37 18L37 16L36 16L36 15L39 15L39 14L36 14L36 13L38 13L38 12L40 12L40 11L39 11L39 10L38 10L38 9L39 9L39 8L40 8L40 7L39 7L39 6L38 6L38 3L36 3L36 5L35 5L35 6L34 6L34 8L36 8L36 9L35 9L35 10L34 10L34 9L33 9L33 13L32 13L32 12L31 12L31 14L30 14L30 13L28 13L28 12L30 12L30 11L27 11L27 10L26 10L26 11L27 11L27 12L25 12L25 13L23 13L23 11L24 11L24 10L25 10L25 9L29 9L29 10L32 10L32 9L31 9L31 8L32 8L32 7L33 7L33 6L32 6L32 7L31 7L31 4L30 4L30 3L29 3L29 4L26 4L26 3L25 3L25 2L24 2L24 3L23 3L23 2ZM23 4L23 5L24 5L24 4ZM25 4L25 8L24 8L24 9L23 9L23 10L24 10L24 9L25 9L25 8L26 8L26 4ZM44 4L44 5L45 5L45 4ZM8 5L8 7L9 7L9 6L10 6L10 8L11 8L11 6L10 6L10 5ZM27 5L27 8L30 8L30 5ZM36 5L36 6L35 6L35 7L36 7L36 8L39 8L39 7L38 7L38 6L37 6L37 5ZM28 6L28 7L29 7L29 6ZM36 6L36 7L37 7L37 6ZM42 6L42 7L43 7L43 6ZM55 8L55 9L56 9L56 8ZM36 9L36 10L37 10L37 11L34 11L34 12L37 12L37 11L38 11L38 10L37 10L37 9ZM2 10L2 13L3 13L3 12L4 12L4 11L3 11L3 10ZM43 10L43 11L44 11L44 10ZM52 10L52 11L53 11L53 10ZM6 12L6 13L7 13L7 14L8 14L8 16L9 16L9 15L10 15L10 14L9 14L9 13L8 13L8 12ZM21 12L21 13L22 13L22 15L23 15L23 16L22 16L22 17L23 17L23 16L24 16L24 17L25 17L25 18L24 18L24 20L23 20L23 19L22 19L22 21L24 21L24 20L25 20L25 21L27 21L27 24L28 24L28 25L29 25L29 24L28 24L28 23L29 23L29 22L30 22L30 25L31 25L31 26L32 26L32 25L31 25L31 24L33 24L33 23L31 23L31 22L30 22L30 20L31 20L31 19L33 19L33 18L36 18L36 16L35 16L35 15L36 15L36 14L35 14L35 13L33 13L33 14L31 14L31 15L33 15L33 16L30 16L30 14L29 14L29 15L28 15L28 16L27 16L27 15L26 15L26 14L28 14L28 13L25 13L25 16L24 16L24 14L23 14L23 13L22 13L22 12ZM51 13L51 14L52 14L52 13ZM33 14L33 15L35 15L35 14ZM42 14L42 15L41 15L41 16L40 16L40 17L41 17L41 18L40 18L40 19L35 19L35 20L34 20L34 21L33 21L33 20L32 20L32 21L33 21L33 22L35 22L35 23L34 23L34 24L35 24L35 23L36 23L36 24L37 24L37 25L36 25L36 26L35 26L35 25L33 25L33 28L31 28L31 31L30 31L30 32L29 32L29 31L25 31L25 30L26 30L26 27L25 27L25 28L24 28L24 29L25 29L25 30L24 30L24 31L22 31L22 33L25 33L25 34L26 34L26 35L27 35L27 37L28 37L28 38L27 38L27 39L28 39L28 40L29 40L29 41L27 41L27 40L26 40L26 39L25 39L25 40L24 40L24 39L23 39L23 38L24 38L24 37L23 37L23 38L22 38L22 37L21 37L21 38L22 38L22 39L21 39L21 40L19 40L19 39L20 39L20 38L19 38L19 37L18 37L18 38L19 38L19 39L18 39L18 40L19 40L19 41L20 41L20 43L19 43L19 44L21 44L21 45L19 45L19 47L18 47L18 46L17 46L17 45L18 45L18 44L17 44L17 45L15 45L15 47L17 47L17 49L18 49L18 50L19 50L19 49L20 49L20 48L21 48L21 45L22 45L22 44L21 44L21 43L22 43L22 42L21 42L21 41L23 41L23 42L24 42L24 43L25 43L25 44L26 44L26 43L27 43L27 42L29 42L29 43L30 43L30 44L31 44L31 43L30 43L30 42L31 42L31 41L30 41L30 40L31 40L31 39L29 39L29 35L30 35L30 34L29 34L29 33L30 33L30 32L32 32L32 30L36 30L36 29L33 29L33 28L34 28L34 26L35 26L35 27L36 27L36 26L37 26L37 25L38 25L38 27L37 27L37 30L39 30L39 31L38 31L38 32L37 32L37 33L38 33L38 34L37 34L37 35L35 35L35 37L36 37L36 36L38 36L38 34L39 34L39 33L38 33L38 32L40 32L40 33L41 33L41 34L40 34L40 35L39 35L39 36L40 36L40 35L41 35L41 34L42 34L42 33L43 33L43 32L44 32L44 31L43 31L43 30L44 30L44 29L45 29L45 26L44 26L44 29L43 29L43 28L42 28L42 27L43 27L43 26L41 26L41 27L39 27L39 25L42 25L42 24L44 24L44 25L45 25L45 24L46 24L46 22L47 22L47 21L48 21L48 20L47 20L47 19L46 19L46 20L47 20L47 21L46 21L46 22L45 22L45 24L44 24L44 21L45 21L45 20L43 20L43 18L42 18L42 17L43 17L43 16L42 16L42 15L43 15L43 14ZM4 16L4 17L7 17L7 18L10 18L10 17L7 17L7 16ZM25 16L25 17L26 17L26 18L28 18L28 19L27 19L27 20L29 20L29 18L32 18L32 17L29 17L29 16L28 16L28 17L27 17L27 16ZM41 16L41 17L42 17L42 16ZM18 17L18 19L19 19L19 17ZM20 17L20 18L21 18L21 17ZM2 18L2 19L3 19L3 20L4 20L4 19L3 19L3 18ZM41 18L41 19L40 19L40 20L39 20L39 22L38 22L38 23L37 23L37 22L36 22L36 23L37 23L37 24L38 24L38 25L39 25L39 24L38 24L38 23L40 23L40 22L41 22L41 23L42 23L42 22L43 22L43 21L42 21L42 18ZM13 19L13 20L14 20L14 19ZM25 19L25 20L26 20L26 19ZM51 19L51 20L52 20L52 19ZM1 20L1 21L2 21L2 20ZM36 20L36 21L37 21L37 20ZM40 20L40 21L41 21L41 20ZM13 21L13 22L11 22L11 23L10 23L10 24L12 24L12 23L13 23L13 22L14 22L14 21ZM28 21L28 22L29 22L29 21ZM53 21L53 22L54 22L54 21ZM2 22L2 23L3 23L3 22ZM47 23L47 24L48 24L48 23ZM18 25L18 27L17 27L17 28L18 28L18 29L19 29L19 28L20 28L20 27L21 27L21 25L20 25L20 27L19 27L19 25ZM0 27L0 28L1 28L1 27ZM3 27L3 28L4 28L4 27ZM5 27L5 30L8 30L8 27ZM27 27L27 30L30 30L30 27ZM49 27L49 30L52 30L52 27ZM6 28L6 29L7 29L7 28ZM28 28L28 29L29 29L29 28ZM38 28L38 29L39 29L39 28ZM50 28L50 29L51 29L51 28ZM54 28L54 29L53 29L53 30L55 30L55 28ZM9 29L9 30L10 30L10 29ZM12 29L12 30L13 30L13 29ZM42 29L42 30L40 30L40 32L41 32L41 33L42 33L42 32L43 32L43 31L42 31L42 30L43 30L43 29ZM14 30L14 31L13 31L13 32L14 32L14 31L15 31L15 30ZM16 30L16 31L17 31L17 30ZM24 31L24 32L25 32L25 31ZM51 31L51 32L53 32L53 31ZM16 32L16 33L15 33L15 35L13 35L13 36L16 36L16 35L17 35L17 34L16 34L16 33L17 33L17 32ZM27 32L27 33L26 33L26 34L27 34L27 33L29 33L29 32ZM3 36L3 37L4 37L4 38L5 38L5 37L4 37L4 36ZM30 36L30 38L31 38L31 36ZM9 37L9 39L8 39L8 40L9 40L9 39L10 39L10 40L11 40L11 41L10 41L10 43L11 43L11 42L12 42L12 40L11 40L11 38L12 38L12 37L11 37L11 38L10 38L10 37ZM15 37L15 38L16 38L16 37ZM25 37L25 38L26 38L26 37ZM49 38L49 39L50 39L50 38ZM22 39L22 40L23 40L23 41L24 41L24 42L25 42L25 41L24 41L24 40L23 40L23 39ZM36 39L36 40L37 40L37 39ZM26 41L26 42L27 42L27 41ZM33 41L33 44L34 44L34 41ZM40 42L40 43L43 43L43 42ZM50 42L50 43L51 43L51 42ZM0 43L0 44L1 44L1 43ZM44 43L44 45L45 45L45 43ZM6 44L6 45L8 45L8 44ZM54 44L54 45L55 45L55 44ZM13 45L13 46L14 46L14 45ZM48 45L48 46L49 46L49 45ZM51 45L51 46L52 46L52 47L53 47L53 46L52 46L52 45ZM19 47L19 48L18 48L18 49L19 49L19 48L20 48L20 47ZM33 47L33 48L35 48L35 47ZM39 48L39 49L38 49L38 50L39 50L39 49L42 49L42 48ZM43 48L43 49L45 49L45 48ZM27 49L27 52L30 52L30 49ZM49 49L49 52L52 52L52 49ZM24 50L24 51L25 51L25 53L26 53L26 50ZM28 50L28 51L29 51L29 50ZM50 50L50 51L51 51L51 50ZM54 51L54 52L55 52L55 51ZM15 52L15 53L16 53L16 52ZM45 52L45 53L44 53L44 54L46 54L46 52ZM56 52L56 53L57 53L57 52ZM49 53L49 54L51 54L51 53ZM23 55L23 56L24 56L24 57L26 57L26 56L24 56L24 55ZM47 55L47 56L48 56L48 55ZM0 0L0 7L7 7L7 0ZM1 1L1 6L6 6L6 1ZM2 2L2 5L5 5L5 2ZM50 0L50 7L57 7L57 0ZM51 1L51 6L56 6L56 1ZM52 2L52 5L55 5L55 2ZM0 50L0 57L7 57L7 50ZM1 51L1 56L6 56L6 51ZM2 52L2 55L5 55L5 52Z" fill="#000000"/></g></g></svg>
