<?xml version="1.0" encoding="UTF-8"?>
<svg xmlns="http://www.w3.org/2000/svg" version="1.1" width="300" height="300" viewBox="0 0 300 300"><rect x="0" y="0" width="300" height="300" fill="#ffffff"/><g transform="scale(4.918)"><g transform="translate(2,2)"><path fill-rule="evenodd" d="M9 0L9 1L8 1L8 2L10 2L10 3L8 3L8 4L9 4L9 5L8 5L8 7L9 7L9 8L6 8L6 9L8 9L8 10L9 10L9 11L7 11L7 10L5 10L5 8L0 8L0 10L2 10L2 11L0 11L0 13L1 13L1 14L2 14L2 13L3 13L3 12L2 12L2 11L5 11L5 16L4 16L4 17L5 17L5 18L6 18L6 19L5 19L5 20L4 20L4 21L3 21L3 19L2 19L2 16L3 16L3 15L0 15L0 18L1 18L1 19L0 19L0 20L1 20L1 21L2 21L2 22L0 22L0 24L2 24L2 25L1 25L1 26L0 26L0 28L1 28L1 30L0 30L0 33L2 33L2 35L3 35L3 33L4 33L4 35L7 35L7 36L4 36L4 37L3 37L3 36L2 36L2 37L3 37L3 38L2 38L2 39L0 39L0 43L1 43L1 44L0 44L0 45L1 45L1 46L0 46L0 48L5 48L5 47L8 47L8 48L6 48L6 49L8 49L8 51L9 51L9 52L8 52L8 57L9 57L9 55L10 55L10 57L13 57L13 56L14 56L14 57L16 57L16 55L15 55L15 54L16 54L16 53L15 53L15 52L16 52L16 51L17 51L17 50L16 50L16 49L17 49L17 48L16 48L16 47L17 47L17 46L16 46L16 47L15 47L15 46L13 46L13 45L14 45L14 44L15 44L15 45L18 45L18 46L20 46L20 47L21 47L21 48L20 48L20 49L19 49L19 48L18 48L18 49L19 49L19 50L18 50L18 51L19 51L19 50L20 50L20 51L21 51L21 50L23 50L23 53L22 53L22 52L21 52L21 53L19 53L19 52L17 52L17 55L19 55L19 56L17 56L17 57L19 57L19 56L20 56L20 57L21 57L21 55L22 55L22 54L23 54L23 55L24 55L24 56L25 56L25 57L26 57L26 56L25 56L25 55L26 55L26 54L27 54L27 53L28 53L28 54L29 54L29 55L30 55L30 56L29 56L29 57L31 57L31 55L34 55L34 56L35 56L35 57L37 57L37 56L38 56L38 55L39 55L39 56L40 56L40 52L42 52L42 53L41 53L41 54L42 54L42 56L45 56L45 57L49 57L49 56L50 56L50 54L49 54L49 53L51 53L51 54L53 54L53 55L51 55L51 57L52 57L52 56L55 56L55 57L56 57L56 56L55 56L55 54L54 54L54 52L57 52L57 51L54 51L54 52L53 52L53 49L54 49L54 50L57 50L57 49L54 49L54 48L56 48L56 46L57 46L57 45L56 45L56 44L57 44L57 43L56 43L56 41L55 41L55 39L57 39L57 36L56 36L56 34L57 34L57 33L56 33L56 32L55 32L55 31L56 31L56 30L57 30L57 28L55 28L55 27L53 27L53 25L54 25L54 26L55 26L55 23L56 23L56 22L57 22L57 21L51 21L51 22L50 22L50 19L51 19L51 20L52 20L52 19L51 19L51 18L50 18L50 16L51 16L51 15L50 15L50 16L49 16L49 17L48 17L48 16L47 16L47 18L46 18L46 16L45 16L45 15L49 15L49 14L50 14L50 12L51 12L51 11L52 11L52 12L53 12L53 11L54 11L54 12L55 12L55 13L53 13L53 14L54 14L54 16L53 16L53 17L54 17L54 18L57 18L57 17L56 17L56 14L57 14L57 11L56 11L56 10L55 10L55 11L54 11L54 10L50 10L50 8L49 8L49 6L48 6L48 8L49 8L49 9L47 9L47 10L45 10L45 9L46 9L46 8L47 8L47 5L48 5L48 0L46 0L46 1L45 1L45 0L44 0L44 1L43 1L43 0L42 0L42 1L41 1L41 0L39 0L39 1L38 1L38 0L37 0L37 1L33 1L33 2L32 2L32 0L30 0L30 1L29 1L29 2L28 2L28 0L27 0L27 1L26 1L26 0L23 0L23 1L22 1L22 0L21 0L21 1L20 1L20 0L19 0L19 1L18 1L18 2L17 2L17 1L16 1L16 0L12 0L12 1L13 1L13 2L14 2L14 3L13 3L13 4L11 4L11 5L13 5L13 6L12 6L12 7L11 7L11 6L10 6L10 3L12 3L12 2L10 2L10 1L11 1L11 0ZM23 1L23 2L22 2L22 4L21 4L21 2L18 2L18 3L17 3L17 2L16 2L16 4L15 4L15 3L14 3L14 4L13 4L13 5L14 5L14 6L13 6L13 7L12 7L12 8L11 8L11 7L10 7L10 6L9 6L9 7L10 7L10 8L9 8L9 10L10 10L10 11L14 11L14 12L13 12L13 13L14 13L14 14L13 14L13 15L12 15L12 16L11 16L11 14L12 14L12 13L11 13L11 12L9 12L9 15L10 15L10 16L11 16L11 17L8 17L8 12L7 12L7 11L6 11L6 12L7 12L7 13L6 13L6 14L7 14L7 15L6 15L6 16L7 16L7 17L6 17L6 18L10 18L10 19L9 19L9 20L10 20L10 22L9 22L9 21L8 21L8 20L7 20L7 19L6 19L6 20L7 20L7 21L6 21L6 22L7 22L7 21L8 21L8 23L5 23L5 22L3 22L3 23L2 23L2 24L3 24L3 23L4 23L4 24L7 24L7 25L5 25L5 26L7 26L7 25L10 25L10 26L9 26L9 27L11 27L11 28L12 28L12 30L11 30L11 29L10 29L10 28L9 28L9 29L10 29L10 31L9 31L9 32L7 32L7 31L6 31L6 32L7 32L7 33L5 33L5 32L4 32L4 31L3 31L3 32L4 32L4 33L5 33L5 34L7 34L7 35L8 35L8 37L4 37L4 38L5 38L5 40L8 40L8 41L9 41L9 42L8 42L8 47L9 47L9 48L8 48L8 49L10 49L10 50L9 50L9 51L10 51L10 55L11 55L11 56L13 56L13 55L14 55L14 54L13 54L13 53L14 53L14 51L15 51L15 49L16 49L16 48L15 48L15 49L14 49L14 50L13 50L13 48L14 48L14 47L13 47L13 48L10 48L10 47L12 47L12 46L10 46L10 45L11 45L11 44L12 44L12 43L10 43L10 42L12 42L12 41L11 41L11 38L12 38L12 40L13 40L13 41L14 41L14 40L15 40L15 41L16 41L16 43L17 43L17 44L18 44L18 45L20 45L20 46L21 46L21 47L22 47L22 49L24 49L24 47L22 47L22 46L24 46L24 45L25 45L25 49L26 49L26 48L30 48L30 47L26 47L26 46L27 46L27 45L28 45L28 46L29 46L29 45L28 45L28 44L27 44L27 43L29 43L29 44L32 44L32 45L31 45L31 47L32 47L32 45L33 45L33 46L35 46L35 47L34 47L34 48L31 48L31 49L34 49L34 50L32 50L32 51L31 51L31 52L32 52L32 54L35 54L35 53L33 53L33 52L32 52L32 51L34 51L34 50L35 50L35 52L36 52L36 50L39 50L39 51L38 51L38 52L37 52L37 53L38 53L38 54L37 54L37 55L38 55L38 54L39 54L39 53L38 53L38 52L40 52L40 51L44 51L44 53L43 53L43 55L45 55L45 56L47 56L47 55L45 55L45 54L48 54L48 52L47 52L47 53L46 53L46 52L45 52L45 51L46 51L46 50L47 50L47 51L48 51L48 48L49 48L49 47L51 47L51 45L52 45L52 47L53 47L53 48L54 48L54 47L53 47L53 45L52 45L52 44L49 44L49 43L48 43L48 42L47 42L47 41L51 41L51 40L49 40L49 39L47 39L47 40L43 40L43 39L45 39L45 38L44 38L44 37L46 37L46 38L50 38L50 39L52 39L52 40L53 40L53 41L52 41L52 42L53 42L53 43L54 43L54 40L53 40L53 39L55 39L55 38L54 38L54 37L56 37L56 36L54 36L54 35L53 35L53 36L52 36L52 34L53 34L53 33L55 33L55 34L56 34L56 33L55 33L55 32L53 32L53 31L52 31L52 32L53 32L53 33L51 33L51 32L50 32L50 31L48 31L48 29L46 29L46 30L45 30L45 28L44 28L44 27L46 27L46 28L47 28L47 27L48 27L48 25L49 25L49 24L50 24L50 26L52 26L52 25L53 25L53 24L52 24L52 23L53 23L53 22L52 22L52 23L50 23L50 22L49 22L49 23L47 23L47 21L48 21L48 20L47 20L47 19L46 19L46 18L44 18L44 19L45 19L45 20L42 20L42 19L43 19L43 18L42 18L42 17L41 17L41 16L42 16L42 15L43 15L43 16L44 16L44 17L45 17L45 16L44 16L44 15L43 15L43 14L42 14L42 11L43 11L43 10L42 10L42 11L41 11L41 10L40 10L40 9L41 9L41 7L42 7L42 9L43 9L43 8L44 8L44 9L45 9L45 8L44 8L44 6L45 6L45 7L46 7L46 5L47 5L47 3L46 3L46 4L45 4L45 3L42 3L42 2L43 2L43 1L42 1L42 2L41 2L41 1L39 1L39 2L38 2L38 1L37 1L37 2L33 2L33 3L32 3L32 4L31 4L31 8L33 8L33 9L34 9L34 10L33 10L33 11L32 11L32 13L31 13L31 15L33 15L33 16L30 16L30 15L27 15L27 14L28 14L28 13L29 13L29 14L30 14L30 13L29 13L29 12L30 12L30 11L31 11L31 10L32 10L32 9L31 9L31 10L29 10L29 9L26 9L26 6L25 6L25 4L26 4L26 3L25 3L25 2L24 2L24 1ZM30 1L30 2L29 2L29 3L28 3L28 2L27 2L27 3L28 3L28 4L30 4L30 2L31 2L31 1ZM44 1L44 2L45 2L45 1ZM46 1L46 2L47 2L47 1ZM39 2L39 3L38 3L38 4L37 4L37 3L36 3L36 5L34 5L34 4L35 4L35 3L34 3L34 4L33 4L33 5L34 5L34 8L36 8L36 9L35 9L35 10L34 10L34 11L33 11L33 13L32 13L32 14L33 14L33 15L35 15L35 16L36 16L36 17L37 17L37 18L36 18L36 19L37 19L37 20L36 20L36 21L37 21L37 22L36 22L36 24L35 24L35 23L34 23L34 24L35 24L35 25L36 25L36 26L34 26L34 25L33 25L33 27L31 27L31 26L32 26L32 25L30 25L30 22L31 22L31 24L32 24L32 23L33 23L33 21L34 21L34 20L35 20L35 18L34 18L34 17L33 17L33 18L34 18L34 19L30 19L30 20L29 20L29 21L27 21L27 20L26 20L26 19L28 19L28 18L25 18L25 16L26 16L26 17L28 17L28 16L26 16L26 15L24 15L24 17L22 17L22 16L19 16L19 15L20 15L20 14L19 14L19 13L22 13L22 12L20 12L20 11L22 11L22 10L23 10L23 11L24 11L24 12L23 12L23 13L24 13L24 14L25 14L25 13L26 13L26 14L27 14L27 13L28 13L28 12L29 12L29 11L27 11L27 10L26 10L26 11L27 11L27 12L25 12L25 11L24 11L24 10L25 10L25 9L24 9L24 7L25 7L25 6L24 6L24 7L23 7L23 6L22 6L22 5L24 5L24 4L25 4L25 3L24 3L24 4L22 4L22 5L21 5L21 6L20 6L20 5L19 5L19 6L18 6L18 7L19 7L19 6L20 6L20 7L21 7L21 8L20 8L20 9L19 9L19 8L17 8L17 4L16 4L16 5L15 5L15 4L14 4L14 5L15 5L15 6L14 6L14 8L12 8L12 9L11 9L11 8L10 8L10 9L11 9L11 10L15 10L15 13L18 13L18 14L19 14L19 15L18 15L18 17L19 17L19 18L18 18L18 19L20 19L20 17L21 17L21 21L19 21L19 20L18 20L18 21L19 21L19 22L18 22L18 23L19 23L19 24L16 24L16 23L14 23L14 22L13 22L13 21L15 21L15 22L16 22L16 21L15 21L15 19L17 19L17 18L15 18L15 17L17 17L17 16L15 16L15 17L12 17L12 18L13 18L13 19L14 19L14 20L12 20L12 21L11 21L11 22L10 22L10 24L11 24L11 23L13 23L13 24L16 24L16 25L19 25L19 26L18 26L18 27L17 27L17 28L15 28L15 27L16 27L16 26L15 26L15 25L11 25L11 27L13 27L13 26L14 26L14 28L15 28L15 29L13 29L13 30L15 30L15 29L17 29L17 30L18 30L18 31L19 31L19 32L18 32L18 33L17 33L17 31L13 31L13 32L16 32L16 33L14 33L14 34L13 34L13 35L14 35L14 36L12 36L12 38L13 38L13 39L16 39L16 41L19 41L19 43L20 43L20 45L22 45L22 44L21 44L21 43L22 43L22 41L21 41L21 43L20 43L20 41L19 41L19 39L20 39L20 38L19 38L19 39L18 39L18 38L17 38L17 37L16 37L16 36L17 36L17 35L18 35L18 37L20 37L20 36L21 36L21 35L23 35L23 36L24 36L24 37L21 37L21 38L22 38L22 40L23 40L23 41L24 41L24 42L23 42L23 43L25 43L25 42L26 42L26 43L27 43L27 42L26 42L26 41L28 41L28 40L29 40L29 39L31 39L31 38L32 38L32 34L34 34L34 35L33 35L33 37L35 37L35 38L34 38L34 39L33 39L33 40L30 40L30 41L29 41L29 43L33 43L33 44L34 44L34 43L35 43L35 46L36 46L36 47L37 47L37 48L34 48L34 49L37 49L37 48L38 48L38 49L39 49L39 50L43 50L43 48L47 48L47 46L50 46L50 45L49 45L49 44L48 44L48 43L47 43L47 42L45 42L45 43L44 43L44 42L43 42L43 40L41 40L41 39L39 39L39 38L40 38L40 36L41 36L41 38L42 38L42 39L43 39L43 37L44 37L44 35L42 35L42 34L43 34L43 32L48 32L48 31L47 31L47 30L46 30L46 31L43 31L43 32L41 32L41 31L42 31L42 30L44 30L44 28L43 28L43 26L44 26L44 25L40 25L40 24L45 24L45 26L46 26L46 27L47 27L47 26L46 26L46 25L48 25L48 24L46 24L46 22L45 22L45 21L46 21L46 20L45 20L45 21L44 21L44 23L43 23L43 21L41 21L41 23L40 23L40 20L41 20L41 19L42 19L42 18L41 18L41 19L40 19L40 20L39 20L39 18L40 18L40 16L41 16L41 15L42 15L42 14L41 14L41 13L40 13L40 12L41 12L41 11L40 11L40 12L39 12L39 11L38 11L38 9L39 9L39 8L40 8L40 7L41 7L41 6L42 6L42 7L43 7L43 6L42 6L42 5L43 5L43 4L42 4L42 3L41 3L41 2ZM18 3L18 4L20 4L20 3ZM40 3L40 4L38 4L38 5L36 5L36 6L35 6L35 7L36 7L36 8L37 8L37 9L38 9L38 8L39 8L39 7L40 7L40 6L41 6L41 5L42 5L42 4L41 4L41 3ZM40 4L40 5L41 5L41 4ZM44 4L44 5L45 5L45 4ZM27 5L27 8L30 8L30 5ZM38 5L38 7L37 7L37 6L36 6L36 7L37 7L37 8L38 8L38 7L39 7L39 5ZM15 6L15 8L14 8L14 9L15 9L15 10L16 10L16 12L18 12L18 13L19 13L19 11L20 11L20 10L22 10L22 9L23 9L23 8L21 8L21 9L20 9L20 10L19 10L19 9L18 9L18 11L17 11L17 9L15 9L15 8L16 8L16 6ZM21 6L21 7L22 7L22 6ZM28 6L28 7L29 7L29 6ZM32 6L32 7L33 7L33 6ZM51 8L51 9L52 9L52 8ZM53 8L53 9L54 9L54 8ZM55 8L55 9L56 9L56 8ZM2 9L2 10L4 10L4 9ZM35 10L35 11L34 11L34 12L35 12L35 11L36 11L36 12L37 12L37 11L36 11L36 10ZM44 10L44 11L45 11L45 12L43 12L43 13L44 13L44 14L45 14L45 12L46 12L46 14L47 14L47 13L49 13L49 12L47 12L47 11L50 11L50 10L47 10L47 11L45 11L45 10ZM1 12L1 13L2 13L2 12ZM24 12L24 13L25 13L25 12ZM38 12L38 14L35 14L35 13L33 13L33 14L35 14L35 15L36 15L36 16L37 16L37 17L38 17L38 18L37 18L37 19L38 19L38 18L39 18L39 17L38 17L38 16L40 16L40 15L41 15L41 14L40 14L40 15L39 15L39 12ZM10 13L10 14L11 14L11 13ZM51 13L51 14L52 14L52 13ZM16 14L16 15L17 15L17 14ZM21 14L21 15L23 15L23 14ZM13 15L13 16L14 16L14 15ZM54 16L54 17L55 17L55 16ZM29 17L29 18L31 18L31 17ZM22 18L22 19L23 19L23 20L22 20L22 21L21 21L21 22L22 22L22 23L21 23L21 25L20 25L20 26L19 26L19 29L20 29L20 32L19 32L19 33L18 33L18 35L19 35L19 36L20 36L20 35L21 35L21 33L20 33L20 32L21 32L21 29L22 29L22 31L25 31L25 34L24 34L24 36L26 36L26 37L24 37L24 38L23 38L23 39L24 39L24 41L25 41L25 38L26 38L26 37L27 37L27 38L28 38L28 37L29 37L29 36L30 36L30 38L31 38L31 36L30 36L30 35L31 35L31 34L32 34L32 33L33 33L33 32L30 32L30 31L28 31L28 32L30 32L30 33L27 33L27 31L25 31L25 30L26 30L26 27L24 27L24 26L23 26L23 24L24 24L24 23L23 23L23 22L24 22L24 21L23 21L23 20L25 20L25 22L26 22L26 23L25 23L25 24L26 24L26 25L25 25L25 26L26 26L26 25L28 25L28 26L29 26L29 24L27 24L27 23L29 23L29 22L30 22L30 21L31 21L31 20L30 20L30 21L29 21L29 22L27 22L27 21L26 21L26 20L25 20L25 18ZM48 18L48 19L50 19L50 18ZM1 19L1 20L2 20L2 19ZM10 19L10 20L11 20L11 19ZM53 19L53 20L57 20L57 19ZM32 20L32 21L33 21L33 20ZM37 20L37 21L38 21L38 23L37 23L37 25L38 25L38 26L40 26L40 27L41 27L41 28L39 28L39 27L36 27L36 28L37 28L37 29L33 29L33 28L34 28L34 27L33 27L33 28L31 28L31 29L32 29L32 30L31 30L31 31L32 31L32 30L35 30L35 32L34 32L34 34L39 34L39 33L40 33L40 35L38 35L38 36L37 36L37 35L35 35L35 37L36 37L36 38L35 38L35 39L34 39L34 40L36 40L36 38L39 38L39 37L38 37L38 36L40 36L40 35L41 35L41 36L42 36L42 37L43 37L43 36L42 36L42 35L41 35L41 34L42 34L42 33L41 33L41 32L39 32L39 31L41 31L41 30L42 30L42 29L43 29L43 28L42 28L42 26L40 26L40 25L39 25L39 24L40 24L40 23L39 23L39 21L38 21L38 20ZM22 21L22 22L23 22L23 21ZM19 22L19 23L20 23L20 22ZM54 22L54 23L55 23L55 22ZM51 24L51 25L52 25L52 24ZM2 25L2 26L4 26L4 25ZM21 25L21 26L20 26L20 27L21 27L21 28L20 28L20 29L21 29L21 28L22 28L22 29L24 29L24 30L25 30L25 29L24 29L24 28L23 28L23 26L22 26L22 25ZM56 25L56 26L57 26L57 25ZM21 26L21 27L22 27L22 26ZM1 27L1 28L3 28L3 27ZM5 27L5 30L8 30L8 27ZM27 27L27 30L30 30L30 27ZM49 27L49 30L52 30L52 27ZM6 28L6 29L7 29L7 28ZM17 28L17 29L18 29L18 28ZM28 28L28 29L29 29L29 28ZM38 28L38 29L39 29L39 30L37 30L37 31L39 31L39 30L41 30L41 29L39 29L39 28ZM50 28L50 29L51 29L51 28ZM54 28L54 29L53 29L53 30L54 30L54 31L55 31L55 30L54 30L54 29L55 29L55 28ZM1 30L1 31L2 31L2 30ZM10 31L10 32L9 32L9 38L8 38L8 40L9 40L9 38L10 38L10 37L11 37L11 35L10 35L10 32L11 32L11 34L12 34L12 31ZM22 32L22 33L24 33L24 32ZM35 32L35 33L38 33L38 32ZM49 32L49 36L48 36L48 37L49 37L49 36L50 36L50 37L51 37L51 36L50 36L50 32ZM7 33L7 34L8 34L8 33ZM16 33L16 34L15 34L15 35L17 35L17 33ZM19 33L19 34L20 34L20 33ZM26 33L26 34L25 34L25 35L26 35L26 36L27 36L27 37L28 37L28 36L27 36L27 35L26 35L26 34L27 34L27 33ZM45 33L45 34L46 34L46 35L48 35L48 33L47 33L47 34L46 34L46 33ZM29 34L29 35L30 35L30 34ZM0 36L0 37L1 37L1 36ZM14 36L14 37L15 37L15 38L16 38L16 37L15 37L15 36ZM36 36L36 37L37 37L37 36ZM46 36L46 37L47 37L47 36ZM6 38L6 39L7 39L7 38ZM52 38L52 39L53 39L53 38ZM17 39L17 40L18 40L18 39ZM27 39L27 40L28 40L28 39ZM37 39L37 41L33 41L33 43L34 43L34 42L37 42L37 44L38 44L38 45L36 45L36 46L39 46L39 47L38 47L38 48L40 48L40 49L41 49L41 48L42 48L42 47L45 47L45 44L44 44L44 43L43 43L43 42L42 42L42 43L43 43L43 44L38 44L38 43L41 43L41 40L38 40L38 39ZM2 40L2 41L1 41L1 43L2 43L2 41L3 41L3 42L4 42L4 43L3 43L3 44L1 44L1 45L4 45L4 44L5 44L5 42L4 42L4 41L3 41L3 40ZM6 41L6 42L7 42L7 41ZM30 41L30 42L32 42L32 41ZM37 41L37 42L38 42L38 41ZM39 41L39 42L40 42L40 41ZM14 42L14 43L13 43L13 44L14 44L14 43L15 43L15 42ZM17 42L17 43L18 43L18 42ZM50 42L50 43L51 43L51 42ZM6 43L6 44L7 44L7 43ZM9 43L9 45L10 45L10 43ZM23 44L23 45L24 45L24 44ZM25 44L25 45L26 45L26 44ZM43 44L43 45L42 45L42 46L41 46L41 47L40 47L40 48L41 48L41 47L42 47L42 46L44 46L44 44ZM47 44L47 45L46 45L46 46L47 46L47 45L48 45L48 44ZM54 44L54 45L55 45L55 44ZM5 45L5 46L3 46L3 47L5 47L5 46L7 46L7 45ZM39 45L39 46L40 46L40 45ZM1 46L1 47L2 47L2 46ZM20 49L20 50L21 50L21 49ZM27 49L27 52L30 52L30 49ZM45 49L45 50L44 50L44 51L45 51L45 50L46 50L46 49ZM49 49L49 52L52 52L52 49ZM24 50L24 52L26 52L26 51L25 51L25 50ZM28 50L28 51L29 51L29 50ZM50 50L50 51L51 51L51 50ZM11 51L11 52L12 52L12 53L11 53L11 54L12 54L12 55L13 55L13 54L12 54L12 53L13 53L13 52L12 52L12 51ZM18 53L18 54L19 54L19 55L20 55L20 54L19 54L19 53ZM21 53L21 54L22 54L22 53ZM23 53L23 54L24 54L24 53ZM25 53L25 54L26 54L26 53ZM29 53L29 54L30 54L30 53ZM44 53L44 54L45 54L45 53ZM27 55L27 56L28 56L28 55ZM35 55L35 56L36 56L36 55ZM0 0L0 7L7 7L7 0ZM1 1L1 6L6 6L6 1ZM2 2L2 5L5 5L5 2ZM50 0L50 7L57 7L57 0ZM51 1L51 6L56 6L56 1ZM52 2L52 5L55 5L55 2ZM0 50L0 57L7 57L7 50ZM1 51L1 56L6 56L6 51ZM2 52L2 55L5 55L5 52Z" fill="#000000"/></g></g></svg>
