<?xml version="1.0" encoding="UTF-8"?>
<svg xmlns="http://www.w3.org/2000/svg" version="1.1" width="300" height="300" viewBox="0 0 300 300"><rect x="0" y="0" width="300" height="300" fill="#ffffff"/><g transform="scale(4.918)"><g transform="translate(2,2)"><path fill-rule="evenodd" d="M9 0L9 1L8 1L8 2L9 2L9 3L8 3L8 4L9 4L9 5L8 5L8 7L9 7L9 5L10 5L10 4L11 4L11 5L13 5L13 4L14 4L14 7L15 7L15 8L16 8L16 7L17 7L17 9L19 9L19 10L18 10L18 11L17 11L17 10L16 10L16 11L15 11L15 9L14 9L14 8L12 8L12 7L13 7L13 6L12 6L12 7L11 7L11 6L10 6L10 9L11 9L11 8L12 8L12 9L13 9L13 10L12 10L12 11L11 11L11 13L10 13L10 14L9 14L9 12L10 12L10 11L7 11L7 10L6 10L6 9L8 9L8 10L9 10L9 8L6 8L6 9L5 9L5 8L0 8L0 9L1 9L1 10L0 10L0 12L2 12L2 11L3 11L3 12L4 12L4 13L2 13L2 14L1 14L1 13L0 13L0 17L1 17L1 18L0 18L0 19L1 19L1 20L3 20L3 19L4 19L4 18L3 18L3 19L1 19L1 18L2 18L2 17L1 17L1 16L4 16L4 15L7 15L7 16L5 16L5 17L8 17L8 18L5 18L5 20L4 20L4 21L3 21L3 22L2 22L2 24L1 24L1 23L0 23L0 26L4 26L4 28L3 28L3 30L4 30L4 31L9 31L9 30L10 30L10 32L9 32L9 33L8 33L8 34L6 34L6 33L7 33L7 32L2 32L2 31L1 31L1 30L2 30L2 28L0 28L0 29L1 29L1 30L0 30L0 33L1 33L1 34L0 34L0 35L1 35L1 34L4 34L4 35L2 35L2 36L0 36L0 37L1 37L1 38L2 38L2 37L3 37L3 38L4 38L4 37L7 37L7 36L8 36L8 38L5 38L5 39L7 39L7 40L2 40L2 42L1 42L1 44L3 44L3 45L5 45L5 47L3 47L3 46L2 46L2 45L0 45L0 48L5 48L5 47L7 47L7 48L6 48L6 49L8 49L8 51L9 51L9 52L8 52L8 57L10 57L10 53L11 53L11 54L12 54L12 52L13 52L13 51L14 51L14 53L13 53L13 54L14 54L14 53L16 53L16 54L15 54L15 55L11 55L11 57L14 57L14 56L15 56L15 57L20 57L20 56L18 56L18 55L20 55L20 54L18 54L18 55L17 55L17 53L16 53L16 51L17 51L17 50L16 50L16 49L17 49L17 47L16 47L16 45L17 45L17 46L19 46L19 47L18 47L18 49L19 49L19 47L20 47L20 49L21 49L21 50L20 50L20 51L21 51L21 53L22 53L22 54L21 54L21 56L24 56L24 57L26 57L26 56L24 56L24 55L22 55L22 54L24 54L24 53L26 53L26 54L25 54L25 55L26 55L26 54L27 54L27 53L28 53L28 54L30 54L30 53L31 53L31 56L30 56L30 55L29 55L29 56L30 56L30 57L32 57L32 56L33 56L33 57L35 57L35 56L36 56L36 57L37 57L37 56L39 56L39 55L40 55L40 52L41 52L41 53L42 53L42 54L41 54L41 55L42 55L42 54L43 54L43 53L44 53L44 54L45 54L45 55L46 55L46 56L48 56L48 57L49 57L49 56L50 56L50 54L53 54L53 55L51 55L51 57L52 57L52 56L54 56L54 57L56 57L56 56L55 56L55 54L53 54L53 52L55 52L55 53L56 53L56 52L55 52L55 51L53 51L53 49L54 49L54 50L57 50L57 49L56 49L56 48L57 48L57 47L56 47L56 46L57 46L57 45L56 45L56 44L57 44L57 43L56 43L56 42L57 42L57 41L56 41L56 42L55 42L55 41L54 41L54 40L55 40L55 39L57 39L57 37L54 37L54 36L56 36L56 34L57 34L57 31L56 31L56 30L57 30L57 29L56 29L56 30L55 30L55 29L54 29L54 28L56 28L56 26L57 26L57 25L56 25L56 26L55 26L55 25L54 25L54 24L56 24L56 22L57 22L57 21L54 21L54 20L57 20L57 19L56 19L56 18L57 18L57 17L56 17L56 18L55 18L55 17L53 17L53 18L49 18L49 17L51 17L51 16L52 16L52 15L51 15L51 14L52 14L52 13L51 13L51 11L52 11L52 12L53 12L53 11L54 11L54 12L57 12L57 11L56 11L56 10L55 10L55 11L54 11L54 10L53 10L53 11L52 11L52 10L49 10L49 9L50 9L50 8L49 8L49 6L48 6L48 8L47 8L47 5L48 5L48 0L46 0L46 1L47 1L47 2L39 2L39 1L44 1L44 0L39 0L39 1L37 1L37 0L35 0L35 1L34 1L34 0L32 0L32 1L34 1L34 2L30 2L30 1L31 1L31 0L30 0L30 1L29 1L29 0L28 0L28 1L27 1L27 3L30 3L30 4L26 4L26 3L25 3L25 2L24 2L24 1L26 1L26 0L21 0L21 2L20 2L20 3L21 3L21 4L19 4L19 3L18 3L18 2L19 2L19 1L20 1L20 0L19 0L19 1L18 1L18 2L17 2L17 1L16 1L16 0L12 0L12 1L11 1L11 0ZM10 1L10 2L11 2L11 1ZM12 1L12 3L11 3L11 4L13 4L13 2L14 2L14 4L16 4L16 5L15 5L15 7L16 7L16 6L17 6L17 7L18 7L18 6L19 6L19 7L20 7L20 5L19 5L19 4L17 4L17 2L14 2L14 1ZM22 1L22 2L21 2L21 3L22 3L22 4L21 4L21 5L22 5L22 4L23 4L23 5L24 5L24 4L23 4L23 3L24 3L24 2L23 2L23 1ZM28 1L28 2L29 2L29 1ZM35 1L35 3L32 3L32 4L31 4L31 7L32 7L32 8L31 8L31 9L32 9L32 10L28 10L28 11L30 11L30 12L28 12L28 13L26 13L26 14L25 14L25 16L24 16L24 17L25 17L25 16L27 16L27 17L28 17L28 16L29 16L29 17L31 17L31 16L32 16L32 19L33 19L33 20L32 20L32 21L33 21L33 22L35 22L35 23L34 23L34 24L33 24L33 23L31 23L31 22L28 22L28 23L27 23L27 24L25 24L25 23L26 23L26 22L25 22L25 21L24 21L24 19L23 19L23 18L21 18L21 17L23 17L23 14L24 14L24 13L25 13L25 12L27 12L27 11L26 11L26 10L27 10L27 9L25 9L25 8L26 8L26 4L25 4L25 8L24 8L24 6L23 6L23 8L22 8L22 6L21 6L21 8L19 8L19 9L20 9L20 11L19 11L19 13L20 13L20 14L19 14L19 17L18 17L18 18L19 18L19 19L16 19L16 21L15 21L15 18L17 18L17 17L15 17L15 16L14 16L14 15L16 15L16 16L17 16L17 15L18 15L18 14L17 14L17 13L18 13L18 12L17 12L17 11L16 11L16 12L17 12L17 13L13 13L13 12L14 12L14 11L12 11L12 16L11 16L11 17L9 17L9 18L8 18L8 19L6 19L6 20L5 20L5 21L6 21L6 22L5 22L5 23L3 23L3 24L2 24L2 25L4 25L4 24L5 24L5 26L7 26L7 25L8 25L8 26L9 26L9 27L10 27L10 29L13 29L13 30L11 30L11 31L13 31L13 30L14 30L14 32L13 32L13 33L12 33L12 36L10 36L10 37L11 37L11 38L8 38L8 41L5 41L5 42L2 42L2 43L6 43L6 44L5 44L5 45L6 45L6 46L7 46L7 47L8 47L8 49L9 49L9 47L10 47L10 46L11 46L11 45L12 45L12 46L13 46L13 48L15 48L15 49L16 49L16 47L15 47L15 46L13 46L13 45L14 45L14 43L13 43L13 44L12 44L12 43L11 43L11 41L10 41L10 40L11 40L11 39L12 39L12 41L13 41L13 42L17 42L17 43L15 43L15 44L17 44L17 45L18 45L18 44L17 44L17 43L18 43L18 42L17 42L17 41L16 41L16 40L18 40L18 39L20 39L20 38L19 38L19 37L23 37L23 38L21 38L21 39L22 39L22 40L21 40L21 41L19 41L19 42L20 42L20 43L19 43L19 45L20 45L20 47L21 47L21 48L22 48L22 49L25 49L25 50L26 50L26 49L25 49L25 48L29 48L29 47L30 47L30 48L31 48L31 52L32 52L32 54L33 54L33 55L34 55L34 56L35 56L35 55L34 55L34 54L36 54L36 52L37 52L37 53L38 53L38 54L37 54L37 55L36 55L36 56L37 56L37 55L38 55L38 54L39 54L39 52L40 52L40 51L41 51L41 52L42 52L42 53L43 53L43 52L42 52L42 51L43 51L43 50L44 50L44 53L45 53L45 54L49 54L49 53L48 53L48 52L47 52L47 51L48 51L48 48L50 48L50 47L51 47L51 46L50 46L50 45L52 45L52 46L53 46L53 47L52 47L52 48L54 48L54 49L55 49L55 48L54 48L54 47L55 47L55 46L56 46L56 45L55 45L55 44L56 44L56 43L55 43L55 44L54 44L54 45L55 45L55 46L53 46L53 45L52 45L52 44L53 44L53 43L54 43L54 41L52 41L52 42L50 42L50 43L51 43L51 44L49 44L49 43L48 43L48 42L49 42L49 41L51 41L51 39L52 39L52 40L54 40L54 37L53 37L53 36L52 36L52 34L53 34L53 33L51 33L51 32L54 32L54 33L55 33L55 34L56 34L56 33L55 33L55 32L56 32L56 31L55 31L55 30L54 30L54 29L53 29L53 30L54 30L54 31L51 31L51 32L49 32L49 31L48 31L48 29L46 29L46 30L44 30L44 29L45 29L45 28L44 28L44 29L43 29L43 28L42 28L42 27L43 27L43 26L44 26L44 27L45 27L45 26L47 26L47 27L46 27L46 28L48 28L48 25L49 25L49 26L53 26L53 27L55 27L55 26L54 26L54 25L53 25L53 24L52 24L52 23L54 23L54 22L52 22L52 23L50 23L50 22L51 22L51 20L52 20L52 21L53 21L53 20L52 20L52 19L50 19L50 22L49 22L49 24L48 24L48 25L46 25L46 24L47 24L47 21L48 21L48 19L49 19L49 18L47 18L47 17L49 17L49 16L51 16L51 15L50 15L50 14L51 14L51 13L50 13L50 11L49 11L49 12L48 12L48 9L49 9L49 8L48 8L48 9L47 9L47 8L46 8L46 9L45 9L45 8L43 8L43 9L44 9L44 10L43 10L43 12L44 12L44 13L45 13L45 12L46 12L46 14L47 14L47 13L49 13L49 15L45 15L45 14L42 14L42 10L41 10L41 8L42 8L42 6L43 6L43 7L44 7L44 6L45 6L45 7L46 7L46 6L45 6L45 5L44 5L44 4L46 4L46 5L47 5L47 3L42 3L42 4L43 4L43 5L41 5L41 3L40 3L40 5L41 5L41 8L40 8L40 6L39 6L39 4L38 4L38 5L36 5L36 3L37 3L37 1ZM38 2L38 3L39 3L39 2ZM27 5L27 8L30 8L30 5ZM33 5L33 6L32 6L32 7L33 7L33 9L34 9L34 8L35 8L35 9L37 9L37 10L38 10L38 11L35 11L35 12L34 12L34 11L31 11L31 14L30 14L30 13L28 13L28 14L26 14L26 15L27 15L27 16L28 16L28 15L29 15L29 14L30 14L30 16L31 16L31 15L32 15L32 16L33 16L33 15L35 15L35 16L36 16L36 17L35 17L35 18L34 18L34 17L33 17L33 18L34 18L34 21L35 21L35 19L39 19L39 18L37 18L37 17L39 17L39 16L41 16L41 17L40 17L40 18L41 18L41 19L40 19L40 20L38 20L38 21L37 21L37 20L36 20L36 21L37 21L37 22L36 22L36 23L37 23L37 24L35 24L35 25L36 25L36 26L34 26L34 25L33 25L33 24L30 24L30 23L28 23L28 24L27 24L27 25L26 25L26 26L25 26L25 25L23 25L23 27L24 27L24 28L23 28L23 29L24 29L24 30L23 30L23 31L24 31L24 32L25 32L25 33L22 33L22 34L23 34L23 35L24 35L24 36L23 36L23 37L24 37L24 38L23 38L23 39L24 39L24 41L23 41L23 42L22 42L22 43L20 43L20 45L21 45L21 47L22 47L22 48L25 48L25 47L27 47L27 46L25 46L25 45L26 45L26 44L27 44L27 45L29 45L29 46L30 46L30 47L31 47L31 48L33 48L33 50L34 50L34 51L32 51L32 52L34 52L34 53L35 53L35 52L36 52L36 51L37 51L37 52L38 52L38 51L40 51L40 50L38 50L38 49L39 49L39 48L41 48L41 50L43 50L43 49L42 49L42 48L46 48L46 47L47 47L47 46L46 46L46 45L47 45L47 44L48 44L48 43L46 43L46 42L45 42L45 43L42 43L42 42L43 42L43 41L44 41L44 40L43 40L43 39L42 39L42 38L43 38L43 37L44 37L44 38L45 38L45 39L46 39L46 40L47 40L47 39L46 39L46 38L45 38L45 37L44 37L44 35L42 35L42 34L43 34L43 33L44 33L44 32L45 32L45 31L44 31L44 32L43 32L43 31L42 31L42 30L43 30L43 29L42 29L42 30L41 30L41 29L39 29L39 28L36 28L36 27L39 27L39 26L41 26L41 27L42 27L42 26L43 26L43 25L39 25L39 24L38 24L38 23L40 23L40 24L41 24L41 23L42 23L42 24L46 24L46 23L45 23L45 21L44 21L44 23L43 23L43 20L47 20L47 18L46 18L46 17L47 17L47 16L46 16L46 17L44 17L44 18L43 18L43 17L42 17L42 16L45 16L45 15L42 15L42 14L41 14L41 13L39 13L39 14L37 14L37 16L36 16L36 15L35 15L35 14L33 14L33 15L32 15L32 12L33 12L33 13L38 13L38 12L40 12L40 11L41 11L41 10L38 10L38 7L39 7L39 6L38 6L38 7L37 7L37 6L36 6L36 5ZM28 6L28 7L29 7L29 6ZM33 6L33 7L34 7L34 6ZM35 6L35 8L37 8L37 7L36 7L36 6ZM39 8L39 9L40 9L40 8ZM51 8L51 9L52 9L52 8ZM53 8L53 9L54 9L54 8ZM55 8L55 9L56 9L56 8ZM2 9L2 10L1 10L1 11L2 11L2 10L3 10L3 9ZM24 9L24 10L22 10L22 11L21 11L21 12L20 12L20 13L21 13L21 14L20 14L20 15L21 15L21 16L20 16L20 17L19 17L19 18L20 18L20 19L21 19L21 18L20 18L20 17L21 17L21 16L22 16L22 15L21 15L21 14L22 14L22 13L24 13L24 12L25 12L25 9ZM4 10L4 11L6 11L6 12L7 12L7 13L5 13L5 14L7 14L7 13L8 13L8 12L7 12L7 11L6 11L6 10ZM46 10L46 11L47 11L47 10ZM23 11L23 12L24 12L24 11ZM21 12L21 13L22 13L22 12ZM54 13L54 14L55 14L55 15L53 15L53 16L56 16L56 14L57 14L57 13ZM2 14L2 15L3 15L3 14ZM10 14L10 15L11 15L11 14ZM16 14L16 15L17 15L17 14ZM39 14L39 15L38 15L38 16L39 16L39 15L41 15L41 16L42 16L42 15L41 15L41 14ZM8 15L8 16L9 16L9 15ZM12 16L12 17L14 17L14 16ZM41 17L41 18L42 18L42 19L43 19L43 18L42 18L42 17ZM11 18L11 19L12 19L12 18ZM25 18L25 20L28 20L28 21L31 21L31 20L28 20L28 18ZM29 18L29 19L31 19L31 18ZM44 18L44 19L46 19L46 18ZM53 18L53 19L54 19L54 18ZM13 19L13 20L14 20L14 19ZM6 20L6 21L7 21L7 20ZM8 20L8 21L9 21L9 23L7 23L7 22L6 22L6 23L5 23L5 24L6 24L6 25L7 25L7 24L8 24L8 25L9 25L9 24L10 24L10 27L11 27L11 28L12 28L12 27L11 27L11 25L13 25L13 29L14 29L14 30L15 30L15 32L14 32L14 33L15 33L15 36L14 36L14 37L15 37L15 38L14 38L14 39L15 39L15 40L14 40L14 41L15 41L15 40L16 40L16 39L15 39L15 38L16 38L16 37L15 37L15 36L17 36L17 35L18 35L18 37L19 37L19 36L21 36L21 35L19 35L19 34L16 34L16 33L19 33L19 32L20 32L20 33L21 33L21 32L20 32L20 30L19 30L19 29L22 29L22 28L19 28L19 29L18 29L18 28L16 28L16 29L18 29L18 31L17 31L17 30L15 30L15 29L14 29L14 28L15 28L15 27L14 27L14 26L15 26L15 25L17 25L17 26L16 26L16 27L18 27L18 26L19 26L19 27L20 27L20 25L19 25L19 24L18 24L18 23L20 23L20 22L17 22L17 21L20 21L20 20L17 20L17 21L16 21L16 22L15 22L15 23L14 23L14 24L13 24L13 23L11 23L11 21L12 21L12 22L14 22L14 21L12 21L12 20ZM21 20L21 21L22 21L22 22L21 22L21 24L22 24L22 23L23 23L23 24L24 24L24 23L23 23L23 22L24 22L24 21L22 21L22 20ZM40 20L40 21L41 21L41 20ZM38 21L38 22L39 22L39 21ZM40 22L40 23L41 23L41 22ZM6 23L6 24L7 24L7 23ZM10 23L10 24L11 24L11 23ZM15 23L15 24L14 24L14 25L15 25L15 24L16 24L16 23ZM28 24L28 25L30 25L30 24ZM37 24L37 25L38 25L38 26L39 26L39 25L38 25L38 24ZM50 24L50 25L52 25L52 24ZM31 25L31 26L32 26L32 25ZM44 25L44 26L45 26L45 25ZM21 26L21 27L22 27L22 26ZM33 26L33 28L31 28L31 29L33 29L33 30L32 30L32 31L28 31L28 32L29 32L29 33L25 33L25 34L27 34L27 35L26 35L26 36L25 36L25 38L26 38L26 39L25 39L25 42L23 42L23 43L24 43L24 45L22 45L22 44L21 44L21 45L22 45L22 47L25 47L25 46L24 46L24 45L25 45L25 44L26 44L26 43L28 43L28 44L31 44L31 43L28 43L28 42L29 42L29 41L30 41L30 42L31 42L31 41L32 41L32 42L33 42L33 41L34 41L34 42L35 42L35 43L34 43L34 44L33 44L33 43L32 43L32 46L31 46L31 45L30 45L30 46L31 46L31 47L33 47L33 46L35 46L35 47L34 47L34 48L37 48L37 49L34 49L34 50L35 50L35 51L34 51L34 52L35 52L35 51L36 51L36 50L37 50L37 51L38 51L38 50L37 50L37 49L38 49L38 48L39 48L39 45L41 45L41 46L40 46L40 47L41 47L41 46L42 46L42 47L43 47L43 46L44 46L44 45L45 45L45 44L44 44L44 45L43 45L43 44L40 44L40 43L41 43L41 42L40 42L40 43L38 43L38 42L39 42L39 41L41 41L41 40L42 40L42 39L41 39L41 36L42 36L42 35L41 35L41 34L42 34L42 33L43 33L43 32L40 32L40 31L41 31L41 30L39 30L39 29L33 29L33 28L34 28L34 26ZM5 27L5 30L8 30L8 27ZM25 27L25 28L24 28L24 29L25 29L25 30L24 30L24 31L25 31L25 32L27 32L27 31L25 31L25 30L26 30L26 27ZM27 27L27 30L30 30L30 27ZM49 27L49 30L52 30L52 27ZM6 28L6 29L7 29L7 28ZM28 28L28 29L29 29L29 28ZM50 28L50 29L51 29L51 28ZM21 30L21 31L22 31L22 30ZM33 30L33 31L32 31L32 32L30 32L30 33L29 33L29 34L30 34L30 35L29 35L29 39L31 39L31 38L32 38L32 35L33 35L33 37L35 37L35 35L37 35L37 34L38 34L38 37L37 37L37 36L36 36L36 38L38 38L38 37L40 37L40 36L41 36L41 35L40 35L40 36L39 36L39 34L38 34L38 31L39 31L39 30ZM46 30L46 31L47 31L47 32L46 32L46 33L47 33L47 34L45 34L45 36L46 36L46 35L47 35L47 36L48 36L48 33L47 33L47 32L48 32L48 31L47 31L47 30ZM16 31L16 32L17 32L17 31ZM18 31L18 32L19 32L19 31ZM36 31L36 32L32 32L32 33L31 33L31 35L32 35L32 34L33 34L33 35L34 35L34 34L37 34L37 33L36 33L36 32L37 32L37 31ZM54 31L54 32L55 32L55 31ZM10 32L10 33L11 33L11 32ZM39 32L39 33L40 33L40 32ZM33 33L33 34L34 34L34 33ZM50 33L50 34L49 34L49 35L50 35L50 34L51 34L51 33ZM9 34L9 35L11 35L11 34ZM13 34L13 35L14 35L14 34ZM6 35L6 36L7 36L7 35ZM3 36L3 37L4 37L4 36ZM12 36L12 37L13 37L13 36ZM30 36L30 38L31 38L31 36ZM49 36L49 37L47 37L47 38L49 38L49 40L50 40L50 38L51 38L51 37L52 37L52 36L51 36L51 37L50 37L50 36ZM27 37L27 38L28 38L28 37ZM39 38L39 39L40 39L40 38ZM52 38L52 39L53 39L53 38ZM26 39L26 40L28 40L28 41L26 41L26 42L28 42L28 41L29 41L29 40L28 40L28 39ZM34 39L34 40L35 40L35 41L37 41L37 42L36 42L36 44L35 44L35 45L37 45L37 46L36 46L36 47L37 47L37 48L38 48L38 47L37 47L37 46L38 46L38 45L37 45L37 42L38 42L38 41L39 41L39 40L38 40L38 39L36 39L36 40L35 40L35 39ZM30 40L30 41L31 41L31 40ZM9 41L9 44L10 44L10 45L9 45L9 46L10 46L10 45L11 45L11 43L10 43L10 41ZM6 42L6 43L8 43L8 42ZM6 44L6 45L7 45L7 44ZM42 45L42 46L43 46L43 45ZM48 45L48 46L49 46L49 47L50 47L50 46L49 46L49 45ZM1 46L1 47L2 47L2 46ZM10 48L10 49L11 49L11 50L10 50L10 51L11 51L11 52L12 52L12 48ZM13 49L13 50L14 50L14 51L15 51L15 50L14 50L14 49ZM27 49L27 52L30 52L30 49ZM44 49L44 50L45 50L45 51L47 51L47 50L45 50L45 49ZM49 49L49 52L52 52L52 49ZM18 50L18 51L19 51L19 50ZM22 50L22 51L24 51L24 50ZM28 50L28 51L29 51L29 50ZM50 50L50 51L51 51L51 50ZM25 51L25 52L26 52L26 51ZM9 52L9 53L10 53L10 52ZM18 52L18 53L20 53L20 52ZM22 52L22 53L24 53L24 52ZM45 52L45 53L46 53L46 52ZM15 55L15 56L16 56L16 55ZM27 55L27 56L28 56L28 55ZM43 55L43 56L41 56L41 57L44 57L44 55ZM48 55L48 56L49 56L49 55ZM0 0L0 7L7 7L7 0ZM1 1L1 6L6 6L6 1ZM2 2L2 5L5 5L5 2ZM50 0L50 7L57 7L57 0ZM51 1L51 6L56 6L56 1ZM52 2L52 5L55 5L55 2ZM0 50L0 57L7 57L7 50ZM1 51L1 56L6 56L6 51ZM2 52L2 55L5 55L5 52Z" fill="#000000"/></g></g></svg>
