<?xml version="1.0" encoding="UTF-8"?>
<svg xmlns="http://www.w3.org/2000/svg" version="1.1" width="300" height="300" viewBox="0 0 300 300"><rect x="0" y="0" width="300" height="300" fill="#ffffff"/><g transform="scale(4.918)"><g transform="translate(2,2)"><path fill-rule="evenodd" d="M10 0L10 2L9 2L9 1L8 1L8 2L9 2L9 3L8 3L8 4L9 4L9 5L8 5L8 7L9 7L9 8L6 8L6 9L7 9L7 10L5 10L5 8L0 8L0 9L1 9L1 10L0 10L0 14L1 14L1 16L0 16L0 17L1 17L1 16L2 16L2 15L4 15L4 13L5 13L5 12L6 12L6 13L8 13L8 16L6 16L6 17L8 17L8 18L6 18L6 19L5 19L5 16L3 16L3 17L2 17L2 18L0 18L0 19L2 19L2 22L1 22L1 21L0 21L0 23L1 23L1 24L0 24L0 25L1 25L1 27L0 27L0 28L1 28L1 27L4 27L4 28L3 28L3 29L4 29L4 31L3 31L3 32L1 32L1 29L0 29L0 33L1 33L1 34L2 34L2 35L1 35L1 36L0 36L0 37L1 37L1 36L2 36L2 37L3 37L3 38L2 38L2 39L1 39L1 40L0 40L0 42L1 42L1 43L2 43L2 44L3 44L3 43L4 43L4 42L6 42L6 43L5 43L5 44L4 44L4 45L5 45L5 47L3 47L3 46L2 46L2 45L1 45L1 44L0 44L0 45L1 45L1 46L0 46L0 48L5 48L5 47L7 47L7 48L6 48L6 49L8 49L8 51L9 51L9 52L8 52L8 57L9 57L9 53L10 53L10 55L11 55L11 53L10 53L10 52L13 52L13 53L12 53L12 56L13 56L13 57L16 57L16 56L17 56L17 57L19 57L19 55L20 55L20 54L19 54L19 55L18 55L18 56L17 56L17 54L18 54L18 53L20 53L20 52L21 52L21 53L22 53L22 54L24 54L24 53L25 53L25 54L26 54L26 55L27 55L27 56L28 56L28 55L27 55L27 53L28 53L28 54L30 54L30 53L31 53L31 56L30 56L30 55L29 55L29 56L30 56L30 57L32 57L32 55L34 55L34 54L32 54L32 52L33 52L33 51L34 51L34 53L35 53L35 56L33 56L33 57L35 57L35 56L36 56L36 57L37 57L37 56L36 56L36 55L37 55L37 54L38 54L38 57L39 57L39 55L40 55L40 52L41 52L41 54L42 54L42 55L41 55L41 56L42 56L42 57L44 57L44 56L45 56L45 57L46 57L46 56L47 56L47 57L49 57L49 56L48 56L48 55L49 55L49 53L50 53L50 55L51 55L51 56L50 56L50 57L52 57L52 56L53 56L53 57L54 57L54 56L55 56L55 57L56 57L56 56L55 56L55 55L54 55L54 54L55 54L55 53L54 53L54 52L55 52L55 51L56 51L56 52L57 52L57 51L56 51L56 50L57 50L57 49L56 49L56 50L55 50L55 49L54 49L54 48L57 48L57 47L56 47L56 46L57 46L57 45L56 45L56 44L57 44L57 43L56 43L56 41L55 41L55 39L57 39L57 37L55 37L55 38L54 38L54 36L57 36L57 35L55 35L55 34L57 34L57 32L56 32L56 30L57 30L57 29L56 29L56 26L57 26L57 25L56 25L56 26L55 26L55 25L54 25L54 26L55 26L55 27L53 27L53 26L52 26L52 24L57 24L57 23L56 23L56 22L57 22L57 21L55 21L55 23L54 23L54 22L53 22L53 21L51 21L51 22L50 22L50 19L49 19L49 18L50 18L50 16L51 16L51 14L52 14L52 13L51 13L51 14L50 14L50 16L49 16L49 17L48 17L48 16L47 16L47 18L46 18L46 17L44 17L44 18L46 18L46 19L42 19L42 18L43 18L43 16L45 16L45 15L49 15L49 13L50 13L50 11L52 11L52 12L53 12L53 11L54 11L54 12L55 12L55 13L53 13L53 15L54 15L54 16L53 16L53 18L54 18L54 16L55 16L55 17L56 17L56 18L55 18L55 19L51 19L51 20L57 20L57 19L56 19L56 18L57 18L57 17L56 17L56 16L57 16L57 15L56 15L56 14L57 14L57 13L56 13L56 12L55 12L55 11L56 11L56 10L57 10L57 9L56 9L56 8L55 8L55 9L56 9L56 10L55 10L55 11L54 11L54 10L49 10L49 9L50 9L50 8L49 8L49 6L48 6L48 7L47 7L47 5L48 5L48 0L40 0L40 1L37 1L37 0L36 0L36 1L37 1L37 3L36 3L36 5L35 5L35 6L34 6L34 5L33 5L33 6L32 6L32 7L33 7L33 6L34 6L34 7L35 7L35 10L36 10L36 9L37 9L37 8L38 8L38 9L39 9L39 10L37 10L37 11L36 11L36 12L34 12L34 10L32 10L32 9L31 9L31 4L32 4L32 3L33 3L33 2L32 2L32 0L30 0L30 1L29 1L29 0L27 0L27 1L25 1L25 0L24 0L24 1L23 1L23 0L21 0L21 1L23 1L23 2L28 2L28 3L27 3L27 4L26 4L26 3L23 3L23 4L19 4L19 3L22 3L22 2L19 2L19 1L16 1L16 0L14 0L14 1L15 1L15 2L14 2L14 3L13 3L13 4L12 4L12 5L13 5L13 6L12 6L12 8L11 8L11 4L10 4L10 3L12 3L12 2L11 2L11 1L13 1L13 0ZM33 0L33 1L34 1L34 2L35 2L35 1L34 1L34 0ZM28 1L28 2L29 2L29 3L28 3L28 4L29 4L29 3L30 3L30 4L31 4L31 3L30 3L30 2L31 2L31 1L30 1L30 2L29 2L29 1ZM40 1L40 2L47 2L47 1ZM38 2L38 3L37 3L37 4L38 4L38 5L36 5L36 6L35 6L35 7L36 7L36 8L37 8L37 7L38 7L38 8L39 8L39 9L41 9L41 8L39 8L39 7L40 7L40 6L39 6L39 7L38 7L38 5L39 5L39 4L38 4L38 3L39 3L39 2ZM14 3L14 4L16 4L16 5L14 5L14 6L13 6L13 7L14 7L14 8L13 8L13 9L11 9L11 8L9 8L9 9L10 9L10 10L8 10L8 12L10 12L10 14L9 14L9 16L11 16L11 15L12 15L12 14L13 14L13 15L14 15L14 17L11 17L11 18L12 18L12 20L13 20L13 21L14 21L14 22L13 22L13 23L12 23L12 21L10 21L10 23L9 23L9 24L8 24L8 23L6 23L6 22L8 22L8 19L6 19L6 20L7 20L7 21L4 21L4 20L3 20L3 21L4 21L4 22L3 22L3 23L5 23L5 25L4 25L4 26L7 26L7 25L8 25L8 26L9 26L9 28L11 28L11 27L10 27L10 26L12 26L12 27L14 27L14 29L15 29L15 28L16 28L16 27L14 27L14 25L15 25L15 26L18 26L18 27L17 27L17 28L18 28L18 29L16 29L16 30L17 30L17 31L16 31L16 32L18 32L18 31L19 31L19 33L16 33L16 35L18 35L18 34L19 34L19 35L20 35L20 34L21 34L21 33L22 33L22 35L21 35L21 36L19 36L19 37L17 37L17 36L15 36L15 37L16 37L16 38L15 38L15 39L16 39L16 41L14 41L14 40L13 40L13 39L14 39L14 38L13 38L13 36L14 36L14 35L15 35L15 34L13 34L13 33L14 33L14 32L15 32L15 30L13 30L13 28L12 28L12 29L10 29L10 30L9 30L9 31L6 31L6 32L7 32L7 33L6 33L6 34L5 34L5 32L3 32L3 33L4 33L4 34L3 34L3 37L5 37L5 39L6 39L6 40L5 40L5 41L6 41L6 42L7 42L7 43L6 43L6 44L7 44L7 45L6 45L6 46L9 46L9 45L12 45L12 46L11 46L11 47L12 47L12 46L13 46L13 47L14 47L14 48L13 48L13 49L14 49L14 51L13 51L13 50L10 50L10 47L9 47L9 51L13 51L13 52L14 52L14 55L13 55L13 56L16 56L16 55L15 55L15 54L16 54L16 53L18 53L18 51L16 51L16 50L17 50L17 49L14 49L14 48L15 48L15 47L18 47L18 46L17 46L17 45L18 45L18 44L17 44L17 43L18 43L18 42L19 42L19 41L20 41L20 43L19 43L19 44L21 44L21 45L19 45L19 49L18 49L18 50L19 50L19 49L20 49L20 50L21 50L21 49L22 49L22 50L23 50L23 51L21 51L21 52L22 52L22 53L24 53L24 51L25 51L25 53L26 53L26 50L23 50L23 49L24 49L24 45L25 45L25 48L26 48L26 46L29 46L29 47L28 47L28 48L29 48L29 47L30 47L30 48L32 48L32 51L31 51L31 52L32 52L32 51L33 51L33 50L35 50L35 52L36 52L36 50L35 50L35 49L36 49L36 48L37 48L37 49L38 49L38 50L37 50L37 51L38 51L38 50L39 50L39 49L38 49L38 48L40 48L40 49L42 49L42 47L43 47L43 48L44 48L44 49L46 49L46 50L40 50L40 51L39 51L39 52L37 52L37 53L38 53L38 54L39 54L39 52L40 52L40 51L41 51L41 52L42 52L42 53L43 53L43 55L47 55L47 53L48 53L48 52L45 52L45 51L46 51L46 50L47 50L47 51L48 51L48 48L49 48L49 47L51 47L51 46L50 46L50 45L52 45L52 47L53 47L53 48L54 48L54 45L55 45L55 46L56 46L56 45L55 45L55 44L54 44L54 45L52 45L52 44L53 44L53 43L54 43L54 40L53 40L53 41L52 41L52 40L51 40L51 39L53 39L53 37L52 37L52 34L54 34L54 33L56 33L56 32L54 32L54 31L51 31L51 32L49 32L49 31L48 31L48 29L46 29L46 30L45 30L45 28L44 28L44 27L43 27L43 28L42 28L42 27L41 27L41 26L40 26L40 25L41 25L41 24L42 24L42 25L43 25L43 26L44 26L44 25L45 25L45 26L47 26L47 27L46 27L46 28L47 28L47 27L48 27L48 25L49 25L49 26L51 26L51 25L49 25L49 24L52 24L52 23L53 23L53 22L52 22L52 23L50 23L50 22L49 22L49 23L48 23L48 25L47 25L47 21L48 21L48 19L47 19L47 20L42 20L42 21L43 21L43 23L41 23L41 22L40 22L40 23L41 23L41 24L39 24L39 21L38 21L38 20L37 20L37 19L36 19L36 18L40 18L40 19L39 19L39 20L40 20L40 21L41 21L41 20L40 20L40 19L41 19L41 18L42 18L42 16L40 16L40 15L41 15L41 14L42 14L42 15L45 15L45 14L44 14L44 13L45 13L45 12L46 12L46 14L47 14L47 13L49 13L49 12L47 12L47 11L46 11L46 10L48 10L48 11L49 11L49 10L48 10L48 9L49 9L49 8L48 8L48 9L46 9L46 10L44 10L44 9L45 9L45 8L47 8L47 7L46 7L46 5L47 5L47 3L43 3L43 5L42 5L42 6L41 6L41 7L42 7L42 6L43 6L43 8L44 8L44 9L43 9L43 10L40 10L40 11L39 11L39 12L38 12L38 13L37 13L37 14L36 14L36 16L35 16L35 15L34 15L34 16L32 16L32 14L35 14L35 13L33 13L33 12L32 12L32 11L31 11L31 10L29 10L29 9L28 9L28 10L27 10L27 9L25 9L25 11L24 11L24 10L23 10L23 9L24 9L24 6L23 6L23 5L24 5L24 4L23 4L23 5L22 5L22 6L21 6L21 8L20 8L20 10L21 10L21 11L20 11L20 12L21 12L21 13L19 13L19 14L20 14L20 15L18 15L18 14L17 14L17 13L18 13L18 12L17 12L17 11L18 11L18 10L17 10L17 9L16 9L16 8L19 8L19 7L20 7L20 5L19 5L19 4L17 4L17 3ZM34 3L34 4L35 4L35 3ZM40 3L40 5L41 5L41 3ZM25 4L25 8L26 8L26 4ZM44 4L44 5L46 5L46 4ZM27 5L27 8L30 8L30 5ZM9 6L9 7L10 7L10 6ZM14 6L14 7L15 7L15 8L16 8L16 7L17 7L17 6L16 6L16 7L15 7L15 6ZM18 6L18 7L19 7L19 6ZM22 6L22 8L23 8L23 6ZM28 6L28 7L29 7L29 6ZM36 6L36 7L37 7L37 6ZM44 6L44 8L45 8L45 6ZM33 8L33 9L34 9L34 8ZM51 8L51 9L52 9L52 8ZM53 8L53 9L54 9L54 8ZM3 9L3 10L4 10L4 9ZM13 9L13 11L14 11L14 12L11 12L11 13L15 13L15 14L14 14L14 15L16 15L16 17L14 17L14 18L15 18L15 21L16 21L16 22L14 22L14 23L13 23L13 24L15 24L15 23L16 23L16 24L17 24L17 25L18 25L18 26L19 26L19 29L18 29L18 30L19 30L19 29L22 29L22 28L21 28L21 27L22 27L22 26L23 26L23 28L24 28L24 27L26 27L26 30L25 30L25 29L23 29L23 30L24 30L24 31L29 31L29 32L27 32L27 33L26 33L26 34L25 34L25 32L23 32L23 35L22 35L22 36L21 36L21 37L19 37L19 38L20 38L20 39L17 39L17 41L19 41L19 40L21 40L21 37L22 37L22 38L23 38L23 39L24 39L24 40L25 40L25 36L24 36L24 34L25 34L25 35L26 35L26 36L27 36L27 35L26 35L26 34L27 34L27 33L29 33L29 34L30 34L30 35L29 35L29 39L31 39L31 38L32 38L32 35L31 35L31 34L32 34L32 33L31 33L31 32L33 32L33 34L34 34L34 35L33 35L33 36L34 36L34 37L35 37L35 38L33 38L33 39L32 39L32 40L33 40L33 41L32 41L32 43L31 43L31 40L30 40L30 41L29 41L29 40L28 40L28 39L27 39L27 38L28 38L28 37L26 37L26 40L28 40L28 41L26 41L26 42L28 42L28 41L29 41L29 43L31 43L31 44L30 44L30 45L29 45L29 44L28 44L28 43L26 43L26 44L25 44L25 41L23 41L23 42L22 42L22 41L21 41L21 42L22 42L22 43L21 43L21 44L22 44L22 45L21 45L21 48L23 48L23 47L22 47L22 45L24 45L24 44L25 44L25 45L26 45L26 44L27 44L27 45L29 45L29 46L30 46L30 47L32 47L32 48L36 48L36 47L35 47L35 46L37 46L37 47L39 47L39 46L40 46L40 48L41 48L41 47L42 47L42 46L44 46L44 44L43 44L43 43L44 43L44 42L45 42L45 47L44 47L44 48L46 48L46 47L47 47L47 46L46 46L46 45L47 45L47 44L48 44L48 43L49 43L49 45L50 45L50 44L51 44L51 43L50 43L50 42L51 42L51 41L49 41L49 40L50 40L50 38L51 38L51 37L50 37L50 36L51 36L51 35L49 35L49 34L48 34L48 33L47 33L47 32L48 32L48 31L47 31L47 30L46 30L46 31L47 31L47 32L45 32L45 31L44 31L44 30L43 30L43 29L44 29L44 28L43 28L43 29L42 29L42 30L40 30L40 29L39 29L39 31L40 31L40 32L36 32L36 30L33 30L33 29L37 29L37 30L38 30L38 29L37 29L37 28L35 28L35 26L34 26L34 24L35 24L35 25L37 25L37 27L38 27L38 28L40 28L40 26L39 26L39 27L38 27L38 25L39 25L39 24L38 24L38 23L37 23L37 22L38 22L38 21L37 21L37 20L36 20L36 21L37 21L37 22L36 22L36 23L37 23L37 24L35 24L35 22L34 22L34 20L33 20L33 19L32 19L32 18L34 18L34 19L35 19L35 18L36 18L36 17L37 17L37 16L38 16L38 17L40 17L40 16L38 16L38 15L39 15L39 14L37 14L37 16L36 16L36 17L35 17L35 18L34 18L34 17L32 17L32 16L31 16L31 14L32 14L32 12L31 12L31 14L30 14L30 13L28 13L28 12L30 12L30 11L27 11L27 10L26 10L26 11L27 11L27 12L25 12L25 13L24 13L24 12L23 12L23 10L22 10L22 9L21 9L21 10L22 10L22 11L21 11L21 12L22 12L22 13L21 13L21 15L20 15L20 17L21 17L21 18L20 18L20 19L21 19L21 18L22 18L22 17L21 17L21 16L22 16L22 13L24 13L24 15L23 15L23 16L24 16L24 17L23 17L23 18L24 18L24 19L23 19L23 20L24 20L24 21L22 21L22 20L21 20L21 21L22 21L22 23L23 23L23 24L24 24L24 23L23 23L23 22L24 22L24 21L25 21L25 22L26 22L26 23L25 23L25 24L27 24L27 25L26 25L26 26L25 26L25 25L21 25L21 27L20 27L20 24L19 24L19 23L20 23L20 22L18 22L18 23L17 23L17 21L20 21L20 20L18 20L18 19L19 19L19 18L18 18L18 19L17 19L17 18L16 18L16 17L19 17L19 16L17 16L17 15L16 15L16 13L17 13L17 12L15 12L15 10L16 10L16 11L17 11L17 10L16 10L16 9ZM1 10L1 12L5 12L5 11L2 11L2 10ZM10 10L10 11L12 11L12 10ZM6 11L6 12L7 12L7 11ZM40 11L40 12L39 12L39 13L40 13L40 14L41 14L41 13L40 13L40 12L41 12L41 11ZM42 11L42 14L43 14L43 13L44 13L44 11ZM1 13L1 14L2 14L2 13ZM26 13L26 16L25 16L25 17L26 17L26 18L25 18L25 20L28 20L28 21L27 21L27 24L28 24L28 25L27 25L27 26L30 26L30 25L29 25L29 24L28 24L28 23L29 23L29 22L30 22L30 24L31 24L31 22L30 22L30 20L31 20L31 18L32 18L32 17L31 17L31 16L30 16L30 14L29 14L29 15L28 15L28 16L27 16L27 14L28 14L28 13ZM55 13L55 14L56 14L56 13ZM6 14L6 15L7 15L7 14ZM26 16L26 17L27 17L27 18L28 18L28 20L29 20L29 18L31 18L31 17L29 17L29 16L28 16L28 17L27 17L27 16ZM3 17L3 18L2 18L2 19L3 19L3 18L4 18L4 17ZM9 17L9 18L10 18L10 17ZM51 17L51 18L52 18L52 17ZM13 19L13 20L14 20L14 19ZM16 19L16 21L17 21L17 19ZM32 20L32 21L33 21L33 20ZM44 21L44 23L43 23L43 25L44 25L44 24L45 24L45 25L46 25L46 22L45 22L45 21ZM33 22L33 23L34 23L34 22ZM10 23L10 24L9 24L9 25L10 25L10 24L11 24L11 23ZM2 24L2 25L3 25L3 24ZM6 24L6 25L7 25L7 24ZM32 24L32 25L31 25L31 27L33 27L33 28L31 28L31 31L30 31L30 32L29 32L29 33L30 33L30 32L31 32L31 31L32 31L32 29L33 29L33 28L34 28L34 26L32 26L32 25L33 25L33 24ZM37 24L37 25L38 25L38 24ZM5 27L5 30L8 30L8 27ZM27 27L27 30L30 30L30 27ZM49 27L49 30L52 30L52 27ZM6 28L6 29L7 29L7 28ZM28 28L28 29L29 29L29 28ZM50 28L50 29L51 29L51 28ZM54 28L54 29L53 29L53 30L54 30L54 29L55 29L55 30L56 30L56 29L55 29L55 28ZM10 30L10 31L9 31L9 32L8 32L8 33L7 33L7 34L6 34L6 35L5 35L5 34L4 34L4 36L5 36L5 37L7 37L7 38L6 38L6 39L12 39L12 38L9 38L9 36L10 36L10 35L11 35L11 37L12 37L12 35L13 35L13 34L12 34L12 35L11 35L11 34L10 34L10 33L13 33L13 32L14 32L14 31L12 31L12 30ZM21 30L21 31L20 31L20 33L21 33L21 31L22 31L22 30ZM42 30L42 31L43 31L43 32L40 32L40 34L42 34L42 35L41 35L41 36L40 36L40 35L39 35L39 36L38 36L38 34L39 34L39 33L38 33L38 34L37 34L37 35L34 35L34 36L35 36L35 37L36 37L36 38L35 38L35 39L36 39L36 38L37 38L37 41L38 41L38 42L37 42L37 43L34 43L34 42L35 42L35 40L34 40L34 42L33 42L33 43L34 43L34 44L32 44L32 45L31 45L31 46L32 46L32 45L33 45L33 46L35 46L35 44L38 44L38 45L37 45L37 46L39 46L39 45L41 45L41 46L42 46L42 45L43 45L43 44L41 44L41 43L39 43L39 42L41 42L41 37L42 37L42 35L43 35L43 34L44 34L44 37L43 37L43 38L42 38L42 39L43 39L43 40L42 40L42 41L43 41L43 42L42 42L42 43L43 43L43 42L44 42L44 41L45 41L45 42L47 42L47 43L48 43L48 42L47 42L47 41L48 41L48 40L49 40L49 39L48 39L48 37L49 37L49 38L50 38L50 37L49 37L49 35L48 35L48 36L47 36L47 35L46 35L46 36L45 36L45 34L47 34L47 33L45 33L45 32L44 32L44 31L43 31L43 30ZM11 31L11 32L12 32L12 31ZM9 32L9 33L10 33L10 32ZM34 32L34 34L36 34L36 32ZM43 32L43 33L42 33L42 34L43 34L43 33L44 33L44 32ZM51 32L51 33L50 33L50 34L51 34L51 33L54 33L54 32ZM7 34L7 35L6 35L6 36L7 36L7 35L8 35L8 36L9 36L9 34ZM22 36L22 37L23 37L23 38L24 38L24 37L23 37L23 36ZM30 36L30 38L31 38L31 36ZM36 36L36 37L37 37L37 38L38 38L38 39L39 39L39 40L38 40L38 41L39 41L39 40L40 40L40 38L38 38L38 36ZM39 36L39 37L40 37L40 36ZM46 36L46 37L47 37L47 36ZM44 37L44 38L45 38L45 39L44 39L44 40L43 40L43 41L44 41L44 40L45 40L45 39L46 39L46 38L45 38L45 37ZM2 39L2 40L1 40L1 42L2 42L2 40L3 40L3 42L4 42L4 40L3 40L3 39ZM6 40L6 41L7 41L7 42L8 42L8 43L7 43L7 44L8 44L8 45L9 45L9 44L10 44L10 43L11 43L11 44L12 44L12 45L13 45L13 46L14 46L14 47L15 47L15 46L16 46L16 45L17 45L17 44L16 44L16 43L15 43L15 42L14 42L14 41L13 41L13 42L12 42L12 43L11 43L11 42L10 42L10 40ZM11 40L11 41L12 41L12 40ZM46 40L46 41L47 41L47 40ZM9 42L9 43L8 43L8 44L9 44L9 43L10 43L10 42ZM13 42L13 43L14 43L14 46L15 46L15 43L14 43L14 42ZM1 46L1 47L2 47L2 46ZM11 48L11 49L12 49L12 48ZM27 49L27 52L30 52L30 49ZM49 49L49 52L52 52L52 49ZM28 50L28 51L29 51L29 50ZM50 50L50 51L51 51L51 50ZM53 50L53 51L54 51L54 50ZM14 51L14 52L15 52L15 53L16 53L16 51ZM42 51L42 52L43 52L43 53L44 53L44 54L45 54L45 53L44 53L44 51ZM51 54L51 55L53 55L53 54ZM21 55L21 56L20 56L20 57L21 57L21 56L22 56L22 55ZM23 55L23 56L24 56L24 57L26 57L26 56L24 56L24 55ZM0 0L0 7L7 7L7 0ZM1 1L1 6L6 6L6 1ZM2 2L2 5L5 5L5 2ZM50 0L50 7L57 7L57 0ZM51 1L51 6L56 6L56 1ZM52 2L52 5L55 5L55 2ZM0 50L0 57L7 57L7 50ZM1 51L1 56L6 56L6 51ZM2 52L2 55L5 55L5 52Z" fill="#000000"/></g></g></svg>
