<?xml version="1.0" encoding="UTF-8"?>
<svg xmlns="http://www.w3.org/2000/svg" version="1.1" width="300" height="300" viewBox="0 0 300 300"><rect x="0" y="0" width="300" height="300" fill="#ffffff"/><g transform="scale(4.918)"><g transform="translate(2,2)"><path fill-rule="evenodd" d="M9 0L9 1L8 1L8 2L11 2L11 4L10 4L10 3L8 3L8 4L10 4L10 5L8 5L8 7L9 7L9 6L10 6L10 8L6 8L6 9L10 9L10 11L9 11L9 10L8 10L8 13L7 13L7 12L6 12L6 11L7 11L7 10L6 10L6 11L5 11L5 13L7 13L7 14L5 14L5 15L4 15L4 16L2 16L2 15L3 15L3 12L2 12L2 13L1 13L1 14L0 14L0 17L2 17L2 18L3 18L3 19L4 19L4 20L2 20L2 19L0 19L0 20L2 20L2 21L4 21L4 20L5 20L5 19L7 19L7 18L6 18L6 17L7 17L7 16L8 16L8 18L9 18L9 16L10 16L10 18L11 18L11 19L10 19L10 21L8 21L8 20L9 20L9 19L8 19L8 20L6 20L6 21L5 21L5 22L6 22L6 23L2 23L2 24L3 24L3 25L4 25L4 24L6 24L6 25L7 25L7 24L6 24L6 23L8 23L8 22L9 22L9 24L8 24L8 25L9 25L9 26L4 26L4 27L3 27L3 26L1 26L1 28L4 28L4 30L3 30L3 29L2 29L2 31L4 31L4 32L6 32L6 33L3 33L3 34L6 34L6 35L4 35L4 36L2 36L2 32L1 32L1 29L0 29L0 32L1 32L1 35L0 35L0 39L1 39L1 37L3 37L3 38L4 38L4 40L5 40L5 41L3 41L3 40L2 40L2 41L1 41L1 40L0 40L0 48L5 48L5 47L7 47L7 46L6 46L6 45L8 45L8 46L9 46L9 47L10 47L10 45L11 45L11 46L12 46L12 45L13 45L13 46L14 46L14 47L15 47L15 48L14 48L14 49L11 49L11 48L8 48L8 51L9 51L9 49L11 49L11 50L10 50L10 52L11 52L11 53L10 53L10 56L9 56L9 52L8 52L8 57L14 57L14 56L16 56L16 57L17 57L17 56L18 56L18 57L19 57L19 56L21 56L21 55L22 55L22 56L23 56L23 55L24 55L24 56L25 56L25 57L26 57L26 56L28 56L28 55L26 55L26 54L27 54L27 53L28 53L28 54L29 54L29 55L30 55L30 56L29 56L29 57L32 57L32 56L33 56L33 57L39 57L39 55L40 55L40 52L41 52L41 51L40 51L40 50L37 50L37 49L38 49L38 48L36 48L36 47L37 47L37 46L38 46L38 45L37 45L37 44L35 44L35 46L33 46L33 45L32 45L32 44L34 44L34 43L35 43L35 42L33 42L33 41L37 41L37 40L39 40L39 41L40 41L40 40L41 40L41 39L42 39L42 38L43 38L43 37L44 37L44 38L45 38L45 39L46 39L46 38L45 38L45 37L44 37L44 35L42 35L42 36L43 36L43 37L42 37L42 38L41 38L41 39L40 39L40 40L39 40L39 38L40 38L40 36L41 36L41 34L44 34L44 32L48 32L48 31L49 31L49 32L50 32L50 34L51 34L51 33L53 33L53 34L52 34L52 37L51 37L51 35L50 35L50 37L48 37L48 39L49 39L49 40L51 40L51 41L49 41L49 43L48 43L48 42L46 42L46 40L45 40L45 42L44 42L44 40L42 40L42 41L41 41L41 42L44 42L44 44L43 44L43 43L40 43L40 42L38 42L38 43L39 43L39 44L43 44L43 45L42 45L42 46L41 46L41 45L40 45L40 46L39 46L39 47L40 47L40 48L39 48L39 49L40 49L40 48L41 48L41 50L43 50L43 51L42 51L42 52L43 52L43 53L41 53L41 54L42 54L42 55L41 55L41 56L42 56L42 57L44 57L44 56L46 56L46 57L47 57L47 56L48 56L48 57L49 57L49 56L50 56L50 55L51 55L51 57L52 57L52 56L54 56L54 57L56 57L56 56L55 56L55 55L54 55L54 52L55 52L55 53L56 53L56 52L57 52L57 51L55 51L55 50L57 50L57 48L56 48L56 46L57 46L57 44L56 44L56 46L55 46L55 45L54 45L54 44L55 44L55 43L56 43L56 41L54 41L54 43L53 43L53 42L51 42L51 41L53 41L53 39L52 39L52 37L53 37L53 38L54 38L54 40L55 40L55 39L57 39L57 37L56 37L56 36L57 36L57 35L56 35L56 36L55 36L55 34L57 34L57 33L56 33L56 32L57 32L57 31L56 31L56 30L57 30L57 29L56 29L56 28L57 28L57 27L56 27L56 24L55 24L55 23L56 23L56 22L57 22L57 21L56 21L56 20L57 20L57 19L55 19L55 18L57 18L57 15L56 15L56 14L57 14L57 13L56 13L56 14L55 14L55 13L54 13L54 15L51 15L51 14L52 14L52 13L51 13L51 12L50 12L50 13L51 13L51 14L49 14L49 13L47 13L47 14L46 14L46 12L45 12L45 13L44 13L44 10L43 10L43 9L44 9L44 8L45 8L45 9L46 9L46 8L45 8L45 6L46 6L46 7L47 7L47 9L48 9L48 10L45 10L45 11L47 11L47 12L49 12L49 11L52 11L52 12L53 12L53 11L54 11L54 12L55 12L55 11L56 11L56 12L57 12L57 11L56 11L56 10L57 10L57 9L56 9L56 8L55 8L55 11L54 11L54 10L53 10L53 9L54 9L54 8L53 8L53 9L52 9L52 8L51 8L51 9L52 9L52 10L49 10L49 9L50 9L50 8L49 8L49 6L48 6L48 7L47 7L47 5L48 5L48 0L45 0L45 1L47 1L47 2L44 2L44 1L43 1L43 0L42 0L42 1L41 1L41 2L40 2L40 1L36 1L36 0L35 0L35 1L34 1L34 0L33 0L33 1L32 1L32 0L30 0L30 1L29 1L29 0L28 0L28 1L29 1L29 2L26 2L26 0L23 0L23 2L21 2L21 1L22 1L22 0L21 0L21 1L20 1L20 0L19 0L19 1L16 1L16 0L12 0L12 1L10 1L10 0ZM12 1L12 2L15 2L15 1ZM19 1L19 2L16 2L16 4L15 4L15 3L14 3L14 4L13 4L13 3L12 3L12 6L11 6L11 8L12 8L12 9L13 9L13 10L12 10L12 11L10 11L10 12L9 12L9 13L8 13L8 14L7 14L7 15L5 15L5 16L4 16L4 17L5 17L5 16L7 16L7 15L10 15L10 14L9 14L9 13L11 13L11 15L12 15L12 16L11 16L11 17L13 17L13 16L14 16L14 18L15 18L15 14L17 14L17 15L16 15L16 16L18 16L18 15L20 15L20 16L19 16L19 17L16 17L16 18L19 18L19 19L21 19L21 20L19 20L19 21L18 21L18 19L17 19L17 20L15 20L15 21L13 21L13 22L12 22L12 20L14 20L14 19L12 19L12 20L11 20L11 21L10 21L10 23L11 23L11 24L12 24L12 25L13 25L13 26L14 26L14 27L12 27L12 26L11 26L11 25L10 25L10 29L9 29L9 32L8 32L8 31L6 31L6 32L7 32L7 33L6 33L6 34L7 34L7 35L6 35L6 36L7 36L7 37L6 37L6 38L7 38L7 39L5 39L5 40L7 40L7 39L8 39L8 42L9 42L9 41L11 41L11 43L9 43L9 45L10 45L10 44L13 44L13 45L14 45L14 46L15 46L15 43L16 43L16 44L18 44L18 45L16 45L16 46L17 46L17 47L16 47L16 48L17 48L17 47L18 47L18 48L19 48L19 49L16 49L16 51L17 51L17 52L15 52L15 51L12 51L12 53L11 53L11 54L13 54L13 52L14 52L14 54L15 54L15 55L16 55L16 56L17 56L17 54L19 54L19 55L18 55L18 56L19 56L19 55L20 55L20 54L19 54L19 53L21 53L21 54L22 54L22 55L23 55L23 54L24 54L24 53L23 53L23 52L24 52L24 51L25 51L25 53L26 53L26 51L25 51L25 50L26 50L26 48L30 48L30 47L28 47L28 46L29 46L29 45L30 45L30 46L31 46L31 47L32 47L32 45L31 45L31 44L32 44L32 43L33 43L33 42L32 42L32 43L30 43L30 41L26 41L26 42L25 42L25 43L24 43L24 42L22 42L22 41L24 41L24 40L25 40L25 39L26 39L26 38L28 38L28 37L29 37L29 36L30 36L30 38L31 38L31 39L29 39L29 40L31 40L31 41L33 41L33 40L35 40L35 37L36 37L36 38L37 38L37 39L36 39L36 40L37 40L37 39L38 39L38 38L39 38L39 37L38 37L38 38L37 38L37 37L36 37L36 36L40 36L40 35L38 35L38 34L41 34L41 33L42 33L42 31L43 31L43 32L44 32L44 31L43 31L43 30L42 30L42 29L43 29L43 28L44 28L44 29L45 29L45 26L47 26L47 27L46 27L46 28L47 28L47 29L46 29L46 30L45 30L45 31L46 31L46 30L47 30L47 31L48 31L48 28L47 28L47 27L48 27L48 25L49 25L49 26L51 26L51 24L52 24L52 25L53 25L53 27L55 27L55 28L54 28L54 29L55 29L55 30L53 30L53 31L51 31L51 32L53 32L53 33L55 33L55 32L53 32L53 31L55 31L55 30L56 30L56 29L55 29L55 28L56 28L56 27L55 27L55 26L54 26L54 25L53 25L53 24L52 24L52 23L53 23L53 22L54 22L54 21L55 21L55 20L54 20L54 21L53 21L53 20L52 20L52 21L51 21L51 19L53 19L53 18L54 18L54 17L55 17L55 16L56 16L56 15L55 15L55 16L51 16L51 17L50 17L50 18L49 18L49 19L48 19L48 18L47 18L47 17L46 17L46 16L50 16L50 15L46 15L46 16L44 16L44 15L45 15L45 14L44 14L44 13L43 13L43 14L42 14L42 11L43 11L43 10L42 10L42 9L43 9L43 8L41 8L41 7L42 7L42 6L41 6L41 3L43 3L43 7L44 7L44 6L45 6L45 5L44 5L44 4L46 4L46 5L47 5L47 3L43 3L43 1L42 1L42 2L41 2L41 3L40 3L40 4L38 4L38 3L39 3L39 2L36 2L36 1L35 1L35 4L34 4L34 1L33 1L33 3L32 3L32 4L31 4L31 7L32 7L32 6L33 6L33 8L32 8L32 9L31 9L31 11L30 11L30 10L28 10L28 11L30 11L30 12L32 12L32 13L31 13L31 14L37 14L37 15L34 15L34 16L30 16L30 13L29 13L29 12L28 12L28 13L26 13L26 15L25 15L25 14L23 14L23 13L25 13L25 12L27 12L27 11L26 11L26 10L27 10L27 9L26 9L26 6L25 6L25 4L26 4L26 3L25 3L25 4L24 4L24 3L21 3L21 2L20 2L20 1ZM24 1L24 2L25 2L25 1ZM30 1L30 2L32 2L32 1ZM18 3L18 4L16 4L16 5L15 5L15 4L14 4L14 5L13 5L13 6L12 6L12 8L13 8L13 9L14 9L14 10L15 10L15 11L18 11L18 10L19 10L19 11L20 11L20 9L22 9L22 10L21 10L21 11L22 11L22 10L23 10L23 11L25 11L25 9L22 9L22 7L23 7L23 8L24 8L24 7L25 7L25 6L24 6L24 7L23 7L23 5L24 5L24 4L21 4L21 5L22 5L22 7L21 7L21 6L20 6L20 5L19 5L19 6L18 6L18 7L17 7L17 5L18 5L18 4L20 4L20 3ZM27 3L27 4L30 4L30 3ZM36 3L36 5L34 5L34 7L35 7L35 8L33 8L33 9L32 9L32 10L33 10L33 11L32 11L32 12L33 12L33 13L37 13L37 14L38 14L38 12L41 12L41 11L39 11L39 10L40 10L40 9L39 9L39 8L40 8L40 7L41 7L41 6L40 6L40 5L38 5L38 4L37 4L37 3ZM14 5L14 6L13 6L13 8L14 8L14 9L15 9L15 10L18 10L18 9L16 9L16 6L15 6L15 5ZM27 5L27 8L30 8L30 5ZM36 5L36 6L35 6L35 7L36 7L36 8L35 8L35 9L33 9L33 10L34 10L34 12L36 12L36 10L35 10L35 9L36 9L36 8L39 8L39 7L40 7L40 6L39 6L39 7L38 7L38 6L37 6L37 5ZM14 6L14 7L15 7L15 6ZM19 6L19 9L20 9L20 8L21 8L21 7L20 7L20 6ZM28 6L28 7L29 7L29 6ZM36 6L36 7L37 7L37 6ZM0 8L0 10L1 10L1 11L0 11L0 12L1 12L1 11L4 11L4 10L3 10L3 9L5 9L5 8ZM48 8L48 9L49 9L49 8ZM38 9L38 10L37 10L37 11L38 11L38 10L39 10L39 9ZM52 10L52 11L53 11L53 10ZM13 11L13 12L11 12L11 13L13 13L13 14L12 14L12 15L14 15L14 13L13 13L13 12L14 12L14 11ZM16 12L16 13L18 13L18 14L19 14L19 13L22 13L22 12L19 12L19 13L18 13L18 12ZM28 13L28 14L27 14L27 15L29 15L29 13ZM39 13L39 14L40 14L40 13ZM1 14L1 15L2 15L2 14ZM20 14L20 15L21 15L21 16L20 16L20 17L21 17L21 19L22 19L22 17L21 17L21 16L23 16L23 21L22 21L22 20L21 20L21 21L19 21L19 22L18 22L18 21L17 21L17 24L16 24L16 23L15 23L15 22L16 22L16 21L15 21L15 22L14 22L14 24L13 24L13 25L14 25L14 26L15 26L15 24L16 24L16 25L18 25L18 27L17 27L17 26L16 26L16 27L14 27L14 29L13 29L13 30L12 30L12 28L11 28L11 29L10 29L10 30L11 30L11 31L10 31L10 32L9 32L9 34L10 34L10 33L12 33L12 34L11 34L11 35L7 35L7 36L11 36L11 35L12 35L12 38L14 38L14 37L13 37L13 36L14 36L14 35L15 35L15 37L16 37L16 38L15 38L15 39L16 39L16 40L15 40L15 41L14 41L14 39L13 39L13 41L14 41L14 42L13 42L13 43L14 43L14 42L15 42L15 41L17 41L17 43L18 43L18 41L19 41L19 44L20 44L20 45L18 45L18 47L20 47L20 45L22 45L22 44L20 44L20 40L19 40L19 39L20 39L20 38L18 38L18 39L17 39L17 37L20 37L20 36L19 36L19 34L18 34L18 33L19 33L19 32L20 32L20 33L21 33L21 34L20 34L20 35L22 35L22 33L21 33L21 32L20 32L20 31L23 31L23 32L24 32L24 33L23 33L23 34L25 34L25 35L24 35L24 37L21 37L21 41L22 41L22 39L23 39L23 40L24 40L24 39L23 39L23 38L24 38L24 37L25 37L25 35L27 35L27 33L30 33L30 32L28 32L28 31L31 31L31 32L34 32L34 33L32 33L32 34L34 34L34 36L35 36L35 34L34 34L34 33L37 33L37 34L36 34L36 35L37 35L37 34L38 34L38 31L40 31L40 32L39 32L39 33L40 33L40 32L41 32L41 31L42 31L42 30L41 30L41 29L40 29L40 28L41 28L41 27L40 27L40 28L38 28L38 25L37 25L37 23L38 23L38 24L39 24L39 23L40 23L40 22L41 22L41 23L42 23L42 22L43 22L43 21L42 21L42 20L46 20L46 21L47 21L47 24L46 24L46 25L48 25L48 24L49 24L49 25L50 25L50 24L51 24L51 22L50 22L50 19L49 19L49 20L48 20L48 19L47 19L47 18L46 18L46 17L45 17L45 18L46 18L46 19L42 19L42 18L44 18L44 16L41 16L41 15L42 15L42 14L41 14L41 15L40 15L40 16L39 16L39 18L38 18L38 17L37 17L37 16L38 16L38 15L37 15L37 16L34 16L34 17L37 17L37 18L33 18L33 19L32 19L32 17L29 17L29 18L31 18L31 19L30 19L30 22L29 22L29 21L28 21L28 20L29 20L29 19L28 19L28 18L27 18L27 19L28 19L28 20L27 20L27 21L28 21L28 22L27 22L27 24L30 24L30 25L28 25L28 26L27 26L27 25L26 25L26 24L25 24L25 23L26 23L26 22L25 22L25 21L26 21L26 19L25 19L25 20L24 20L24 18L25 18L25 17L28 17L28 16L25 16L25 15L24 15L24 16L23 16L23 14L22 14L22 15L21 15L21 14ZM43 14L43 15L44 15L44 14ZM40 16L40 18L39 18L39 19L38 19L38 18L37 18L37 19L35 19L35 21L33 21L33 20L32 20L32 21L33 21L33 22L35 22L35 23L33 23L33 24L32 24L32 23L31 23L31 22L30 22L30 23L31 23L31 25L32 25L32 26L34 26L34 27L33 27L33 28L32 28L32 27L31 27L31 28L32 28L32 29L31 29L31 30L32 30L32 31L33 31L33 30L35 30L35 29L33 29L33 28L34 28L34 27L35 27L35 28L37 28L37 29L36 29L36 31L34 31L34 32L37 32L37 30L39 30L39 29L38 29L38 28L37 28L37 26L36 26L36 25L34 25L34 24L35 24L35 23L36 23L36 22L37 22L37 21L36 21L36 20L37 20L37 19L38 19L38 20L40 20L40 21L41 21L41 20L42 20L42 19L41 19L41 18L42 18L42 17L41 17L41 16ZM51 17L51 18L52 18L52 17ZM4 18L4 19L5 19L5 18ZM40 19L40 20L41 20L41 19ZM46 19L46 20L47 20L47 19ZM0 21L0 22L1 22L1 21ZM6 21L6 22L8 22L8 21ZM21 21L21 22L22 22L22 23L21 23L21 24L19 24L19 25L20 25L20 26L19 26L19 27L20 27L20 28L21 28L21 29L19 29L19 31L20 31L20 30L21 30L21 29L22 29L22 30L23 30L23 29L25 29L25 30L26 30L26 27L25 27L25 28L23 28L23 29L22 29L22 28L21 28L21 27L22 27L22 26L23 26L23 27L24 27L24 26L23 26L23 25L25 25L25 26L26 26L26 25L25 25L25 24L24 24L24 23L23 23L23 22L24 22L24 21L23 21L23 22L22 22L22 21ZM38 21L38 23L39 23L39 21ZM44 21L44 23L46 23L46 22L45 22L45 21ZM11 22L11 23L12 23L12 22ZM19 22L19 23L20 23L20 22ZM49 22L49 24L50 24L50 22ZM22 23L22 24L23 24L23 23ZM41 24L41 26L42 26L42 28L43 28L43 27L44 27L44 26L43 26L43 25L44 25L44 24L43 24L43 25L42 25L42 24ZM39 25L39 26L40 26L40 25ZM5 27L5 30L8 30L8 27ZM16 27L16 28L17 28L17 29L16 29L16 31L15 31L15 30L13 30L13 31L12 31L12 32L13 32L13 31L15 31L15 32L14 32L14 33L13 33L13 34L12 34L12 35L13 35L13 34L14 34L14 33L16 33L16 34L17 34L17 33L16 33L16 31L18 31L18 30L17 30L17 29L18 29L18 28L17 28L17 27ZM27 27L27 30L30 30L30 27ZM49 27L49 30L52 30L52 27ZM6 28L6 29L7 29L7 28ZM28 28L28 29L29 29L29 28ZM50 28L50 29L51 29L51 28ZM25 31L25 32L27 32L27 31ZM25 33L25 34L26 34L26 33ZM45 33L45 34L46 34L46 35L45 35L45 36L47 36L47 35L49 35L49 34L48 34L48 33L47 33L47 34L46 34L46 33ZM29 34L29 35L30 35L30 36L31 36L31 38L32 38L32 35L30 35L30 34ZM53 34L53 35L54 35L54 34ZM16 35L16 37L17 37L17 36L18 36L18 35ZM27 36L27 37L28 37L28 36ZM54 36L54 38L55 38L55 36ZM9 37L9 39L10 39L10 40L11 40L11 41L12 41L12 39L10 39L10 37ZM50 37L50 38L49 38L49 39L51 39L51 37ZM33 38L33 39L31 39L31 40L33 40L33 39L34 39L34 38ZM27 39L27 40L28 40L28 39ZM17 40L17 41L18 41L18 40ZM5 41L5 44L3 44L3 47L5 47L5 46L4 46L4 45L6 45L6 44L7 44L7 43L6 43L6 42L7 42L7 41ZM2 42L2 43L4 43L4 42ZM21 42L21 43L22 43L22 42ZM26 42L26 43L27 43L27 45L29 45L29 44L30 44L30 43L28 43L28 42ZM45 42L45 43L46 43L46 42ZM50 42L50 43L51 43L51 42ZM23 43L23 44L24 44L24 43ZM52 43L52 44L53 44L53 43ZM1 44L1 45L2 45L2 44ZM25 44L25 45L23 45L23 46L25 46L25 45L26 45L26 44ZM44 44L44 46L42 46L42 47L43 47L43 48L44 48L44 53L43 53L43 55L42 55L42 56L44 56L44 55L45 55L45 54L47 54L47 55L46 55L46 56L47 56L47 55L48 55L48 54L49 54L49 55L50 55L50 54L51 54L51 55L53 55L53 54L51 54L51 53L48 53L48 52L46 52L46 53L45 53L45 50L47 50L47 51L48 51L48 48L49 48L49 47L52 47L52 48L54 48L54 49L56 49L56 48L54 48L54 46L53 46L53 45L51 45L51 44L49 44L49 45L50 45L50 46L48 46L48 44L47 44L47 45L46 45L46 46L47 46L47 47L45 47L45 48L44 48L44 46L45 46L45 44ZM1 46L1 47L2 47L2 46ZM26 46L26 47L27 47L27 46ZM35 46L35 47L34 47L34 50L32 50L32 51L31 51L31 52L32 52L32 54L37 54L37 55L38 55L38 54L39 54L39 52L40 52L40 51L38 51L38 52L37 52L37 51L36 51L36 50L35 50L35 49L36 49L36 48L35 48L35 47L36 47L36 46ZM23 47L23 50L25 50L25 47ZM6 48L6 49L7 49L7 48ZM20 48L20 49L21 49L21 48ZM31 48L31 49L33 49L33 48ZM46 48L46 49L47 49L47 48ZM27 49L27 52L30 52L30 49ZM49 49L49 52L52 52L52 49ZM18 50L18 51L21 51L21 53L22 53L22 54L23 54L23 53L22 53L22 51L21 51L21 50ZM28 50L28 51L29 51L29 50ZM34 50L34 51L35 51L35 52L36 52L36 53L37 53L37 54L38 54L38 53L37 53L37 52L36 52L36 51L35 51L35 50ZM50 50L50 51L51 51L51 50ZM32 51L32 52L33 52L33 53L34 53L34 52L33 52L33 51ZM18 52L18 53L19 53L19 52ZM15 53L15 54L16 54L16 53ZM29 53L29 54L30 54L30 53ZM44 53L44 54L45 54L45 53ZM47 53L47 54L48 54L48 53ZM11 55L11 56L12 56L12 55ZM13 55L13 56L14 56L14 55ZM25 55L25 56L26 56L26 55ZM31 55L31 56L32 56L32 55ZM33 55L33 56L36 56L36 55ZM0 0L0 7L7 7L7 0ZM1 1L1 6L6 6L6 1ZM2 2L2 5L5 5L5 2ZM50 0L50 7L57 7L57 0ZM51 1L51 6L56 6L56 1ZM52 2L52 5L55 5L55 2ZM0 50L0 57L7 57L7 50ZM1 51L1 56L6 56L6 51ZM2 52L2 55L5 55L5 52Z" fill="#000000"/></g></g></svg>
