<?xml version="1.0" encoding="UTF-8"?>
<svg xmlns="http://www.w3.org/2000/svg" version="1.1" width="300" height="300" viewBox="0 0 300 300"><rect x="0" y="0" width="300" height="300" fill="#ffffff"/><g transform="scale(4.918)"><g transform="translate(2,2)"><path fill-rule="evenodd" d="M13 0L13 1L14 1L14 2L13 2L13 4L14 4L14 5L16 5L16 4L14 4L14 2L15 2L15 3L16 3L16 2L15 2L15 1L16 1L16 0ZM19 0L19 1L17 1L17 3L18 3L18 4L17 4L17 5L18 5L18 4L19 4L19 5L20 5L20 7L19 7L19 6L18 6L18 7L17 7L17 6L16 6L16 7L15 7L15 6L14 6L14 7L13 7L13 6L12 6L12 8L14 8L14 7L15 7L15 8L16 8L16 9L13 9L13 11L11 11L11 10L12 10L12 9L11 9L11 4L12 4L12 3L11 3L11 4L10 4L10 5L8 5L8 7L9 7L9 8L6 8L6 9L9 9L9 10L10 10L10 11L8 11L8 10L6 10L6 11L5 11L5 10L4 10L4 11L3 11L3 13L2 13L2 12L1 12L1 11L0 11L0 12L1 12L1 13L2 13L2 14L1 14L1 15L0 15L0 16L1 16L1 19L2 19L2 14L3 14L3 13L4 13L4 14L5 14L5 15L3 15L3 16L5 16L5 18L6 18L6 19L7 19L7 20L6 20L6 21L5 21L5 22L6 22L6 23L8 23L8 25L7 25L7 24L6 24L6 25L5 25L5 26L4 26L4 21L2 21L2 20L1 20L1 21L0 21L0 25L1 25L1 26L0 26L0 28L1 28L1 26L2 26L2 24L3 24L3 26L4 26L4 29L2 29L2 30L3 30L3 31L1 31L1 29L0 29L0 31L1 31L1 32L0 32L0 37L1 37L1 38L3 38L3 37L2 37L2 36L3 36L3 35L4 35L4 36L5 36L5 37L4 37L4 38L6 38L6 39L9 39L9 40L8 40L8 42L6 42L6 41L7 41L7 40L5 40L5 39L0 39L0 40L2 40L2 41L1 41L1 42L0 42L0 44L1 44L1 42L2 42L2 41L3 41L3 42L4 42L4 41L5 41L5 44L3 44L3 43L2 43L2 44L3 44L3 45L0 45L0 48L5 48L5 47L7 47L7 48L6 48L6 49L8 49L8 51L10 51L10 52L12 52L12 53L11 53L11 54L10 54L10 53L9 53L9 52L8 52L8 57L9 57L9 56L10 56L10 55L11 55L11 56L15 56L15 57L16 57L16 56L17 56L17 57L19 57L19 56L17 56L17 53L16 53L16 51L17 51L17 50L16 50L16 49L17 49L17 47L16 47L16 45L17 45L17 46L20 46L20 47L18 47L18 49L19 49L19 48L20 48L20 49L21 49L21 50L20 50L20 51L21 51L21 50L23 50L23 51L25 51L25 49L24 49L24 48L26 48L26 52L24 52L24 53L22 53L22 52L21 52L21 53L22 53L22 54L21 54L21 55L23 55L23 56L24 56L24 57L26 57L26 56L24 56L24 55L23 55L23 54L24 54L24 53L26 53L26 55L27 55L27 56L28 56L28 55L27 55L27 53L28 53L28 54L30 54L30 53L31 53L31 56L30 56L30 55L29 55L29 56L30 56L30 57L32 57L32 56L33 56L33 57L37 57L37 56L39 56L39 55L40 55L40 56L41 56L41 55L40 55L40 52L41 52L41 54L42 54L42 56L43 56L43 57L44 57L44 56L43 56L43 53L44 53L44 54L45 54L45 55L48 55L48 56L50 56L50 54L53 54L53 55L51 55L51 57L52 57L52 56L55 56L55 57L56 57L56 56L55 56L55 54L53 54L53 52L55 52L55 51L53 51L53 49L54 49L54 50L57 50L57 49L56 49L56 48L57 48L57 47L56 47L56 46L57 46L57 45L56 45L56 46L55 46L55 45L54 45L54 44L55 44L55 43L56 43L56 42L57 42L57 41L56 41L56 42L55 42L55 39L57 39L57 36L56 36L56 37L54 37L54 36L55 36L55 35L56 35L56 34L57 34L57 31L56 31L56 30L57 30L57 29L56 29L56 28L57 28L57 27L56 27L56 26L55 26L55 24L56 24L56 22L57 22L57 21L56 21L56 18L57 18L57 17L56 17L56 18L55 18L55 17L53 17L53 18L54 18L54 19L52 19L52 20L51 20L51 22L50 22L50 17L51 17L51 18L52 18L52 17L51 17L51 16L52 16L52 15L51 15L51 14L52 14L52 13L51 13L51 11L52 11L52 12L53 12L53 11L54 11L54 12L55 12L55 13L54 13L54 14L53 14L53 16L56 16L56 14L57 14L57 12L55 12L55 11L56 11L56 8L55 8L55 11L54 11L54 10L53 10L53 9L54 9L54 8L53 8L53 9L52 9L52 8L51 8L51 9L52 9L52 10L50 10L50 8L49 8L49 6L48 6L48 8L46 8L46 7L47 7L47 5L48 5L48 0L46 0L46 1L47 1L47 2L44 2L44 1L45 1L45 0L40 0L40 1L37 1L37 0L35 0L35 1L34 1L34 0L33 0L33 1L32 1L32 2L30 2L30 1L31 1L31 0L30 0L30 1L26 1L26 0L22 0L22 1L21 1L21 2L20 2L20 3L23 3L23 4L19 4L19 1L20 1L20 0ZM8 1L8 2L9 2L9 3L8 3L8 4L9 4L9 3L10 3L10 2L12 2L12 1ZM22 1L22 2L23 2L23 1ZM25 1L25 3L26 3L26 4L25 4L25 8L24 8L24 6L23 6L23 5L24 5L24 4L23 4L23 5L21 5L21 8L19 8L19 9L16 9L16 10L15 10L15 11L16 11L16 12L17 12L17 13L13 13L13 14L14 14L14 15L13 15L13 16L12 16L12 15L11 15L11 17L10 17L10 14L12 14L12 13L11 13L11 11L10 11L10 12L9 12L9 13L10 13L10 14L9 14L9 16L7 16L7 15L6 15L6 16L7 16L7 17L6 17L6 18L7 18L7 19L8 19L8 18L7 18L7 17L10 17L10 18L9 18L9 20L8 20L8 23L9 23L9 24L11 24L11 25L12 25L12 26L11 26L11 27L10 27L10 26L9 26L9 25L8 25L8 26L9 26L9 27L10 27L10 28L9 28L9 29L10 29L10 30L9 30L9 31L6 31L6 32L7 32L7 33L6 33L6 34L5 34L5 31L4 31L4 32L3 32L3 34L4 34L4 35L5 35L5 36L9 36L9 37L6 37L6 38L9 38L9 39L10 39L10 41L9 41L9 42L8 42L8 44L7 44L7 43L6 43L6 44L7 44L7 45L4 45L4 46L3 46L3 47L5 47L5 46L7 46L7 47L9 47L9 48L8 48L8 49L9 49L9 50L11 50L11 49L10 49L10 47L9 47L9 46L10 46L10 45L12 45L12 43L11 43L11 42L12 42L12 41L11 41L11 40L12 40L12 39L10 39L10 37L11 37L11 36L12 36L12 38L13 38L13 40L14 40L14 38L15 38L15 39L16 39L16 40L15 40L15 42L14 42L14 41L13 41L13 43L14 43L14 44L13 44L13 47L12 47L12 46L11 46L11 47L12 47L12 51L13 51L13 53L14 53L14 52L15 52L15 51L13 51L13 47L14 47L14 46L15 46L15 45L14 45L14 44L15 44L15 43L16 43L16 42L17 42L17 43L18 43L18 41L17 41L17 39L18 39L18 38L19 38L19 39L20 39L20 38L19 38L19 37L21 37L21 38L22 38L22 37L23 37L23 38L24 38L24 37L23 37L23 34L22 34L22 35L21 35L21 33L25 33L25 34L26 34L26 35L27 35L27 36L26 36L26 37L25 37L25 40L24 40L24 39L21 39L21 40L20 40L20 42L19 42L19 43L20 43L20 44L19 44L19 45L20 45L20 46L21 46L21 45L22 45L22 46L23 46L23 47L20 47L20 48L22 48L22 49L23 49L23 47L24 47L24 45L25 45L25 46L27 46L27 45L28 45L28 46L29 46L29 45L30 45L30 44L31 44L31 43L30 43L30 41L32 41L32 42L33 42L33 39L34 39L34 40L35 40L35 39L34 39L34 38L35 38L35 37L36 37L36 38L37 38L37 39L38 39L38 38L39 38L39 39L42 39L42 38L41 38L41 37L42 37L42 36L40 36L40 35L43 35L43 34L44 34L44 37L43 37L43 39L45 39L45 38L46 38L46 41L45 41L45 40L44 40L44 41L45 41L45 42L47 42L47 43L48 43L48 44L47 44L47 45L46 45L46 46L47 46L47 47L45 47L45 48L43 48L43 50L42 50L42 48L40 48L40 47L37 47L37 46L42 46L42 47L43 47L43 46L42 46L42 45L43 45L43 44L44 44L44 46L45 46L45 43L44 43L44 42L43 42L43 44L39 44L39 43L42 43L42 42L40 42L40 41L42 41L42 40L39 40L39 41L38 41L38 40L37 40L37 41L34 41L34 42L35 42L35 43L34 43L34 44L32 44L32 46L31 46L31 48L32 48L32 50L31 50L31 52L32 52L32 54L33 54L33 55L34 55L34 56L35 56L35 55L36 55L36 52L37 52L37 53L38 53L38 54L39 54L39 53L38 53L38 52L40 52L40 51L38 51L38 50L42 50L42 51L41 51L41 52L42 52L42 53L43 53L43 51L44 51L44 53L45 53L45 54L49 54L49 53L48 53L48 52L47 52L47 51L48 51L48 48L49 48L49 47L53 47L53 48L54 48L54 49L55 49L55 48L54 48L54 47L55 47L55 46L54 46L54 45L51 45L51 44L53 44L53 43L54 43L54 41L52 41L52 42L50 42L50 43L51 43L51 44L50 44L50 45L49 45L49 46L47 46L47 45L48 45L48 44L49 44L49 43L48 43L48 42L49 42L49 41L51 41L51 38L52 38L52 39L53 39L53 38L54 38L54 39L55 39L55 38L54 38L54 37L53 37L53 36L52 36L52 34L53 34L53 33L51 33L51 32L54 32L54 33L55 33L55 34L56 34L56 33L55 33L55 32L56 32L56 31L55 31L55 32L54 32L54 30L53 30L53 31L51 31L51 32L50 32L50 31L48 31L48 28L47 28L47 27L46 27L46 26L47 26L47 25L49 25L49 24L52 24L52 26L53 26L53 27L55 27L55 26L54 26L54 24L52 24L52 23L55 23L55 22L54 22L54 21L55 21L55 20L54 20L54 21L53 21L53 20L52 20L52 21L53 21L53 22L52 22L52 23L50 23L50 22L49 22L49 23L47 23L47 21L48 21L48 19L49 19L49 18L47 18L47 16L49 16L49 15L50 15L50 14L51 14L51 13L50 13L50 10L49 10L49 12L48 12L48 11L45 11L45 10L48 10L48 9L49 9L49 8L48 8L48 9L46 9L46 8L45 8L45 7L46 7L46 6L45 6L45 5L44 5L44 4L46 4L46 5L47 5L47 3L43 3L43 8L42 8L42 9L43 9L43 10L42 10L42 11L40 11L40 10L39 10L39 9L41 9L41 7L42 7L42 6L41 6L41 5L40 5L40 4L41 4L41 3L42 3L42 2L43 2L43 1L40 1L40 2L41 2L41 3L40 3L40 4L39 4L39 2L38 2L38 5L36 5L36 3L37 3L37 2L36 2L36 1L35 1L35 3L32 3L32 4L31 4L31 3L30 3L30 2L29 2L29 3L27 3L27 2L26 2L26 1ZM33 1L33 2L34 2L34 1ZM26 4L26 8L25 8L25 9L24 9L24 8L23 8L23 10L22 10L22 9L21 9L21 10L22 10L22 11L21 11L21 12L19 12L19 11L20 11L20 9L19 9L19 10L18 10L18 11L17 11L17 10L16 10L16 11L17 11L17 12L18 12L18 13L17 13L17 14L16 14L16 15L15 15L15 16L16 16L16 17L13 17L13 18L15 18L15 21L16 21L16 22L15 22L15 23L16 23L16 24L15 24L15 25L16 25L16 24L17 24L17 25L18 25L18 26L17 26L17 27L16 27L16 26L15 26L15 28L13 28L13 27L12 27L12 29L11 29L11 28L10 28L10 29L11 29L11 30L10 30L10 33L9 33L9 34L8 34L8 33L7 33L7 34L6 34L6 35L7 35L7 34L8 34L8 35L9 35L9 34L11 34L11 35L13 35L13 36L14 36L14 37L13 37L13 38L14 38L14 37L15 37L15 38L16 38L16 37L15 37L15 36L18 36L18 37L19 37L19 36L21 36L21 37L22 37L22 36L21 36L21 35L19 35L19 34L18 34L18 35L17 35L17 34L16 34L16 33L19 33L19 32L20 32L20 33L21 33L21 32L20 32L20 30L19 30L19 29L22 29L22 28L20 28L20 27L22 27L22 26L23 26L23 27L26 27L26 30L25 30L25 29L23 29L23 30L21 30L21 31L23 31L23 32L25 32L25 31L27 31L27 33L29 33L29 34L30 34L30 35L29 35L29 39L31 39L31 38L32 38L32 35L31 35L31 34L33 34L33 37L34 37L34 36L35 36L35 34L36 34L36 35L37 35L37 34L38 34L38 35L39 35L39 34L43 34L43 33L42 33L42 32L45 32L45 33L44 33L44 34L45 34L45 36L46 36L46 35L47 35L47 36L49 36L49 37L48 37L48 38L49 38L49 40L50 40L50 36L49 36L49 35L50 35L50 34L51 34L51 33L50 33L50 34L49 34L49 35L48 35L48 33L47 33L47 34L45 34L45 33L46 33L46 32L45 32L45 30L46 30L46 31L47 31L47 32L48 32L48 31L47 31L47 30L46 30L46 29L47 29L47 28L46 28L46 27L44 27L44 26L46 26L46 25L44 25L44 24L46 24L46 23L45 23L45 21L44 21L44 23L42 23L42 22L43 22L43 20L47 20L47 18L45 18L45 17L46 17L46 16L47 16L47 15L49 15L49 13L47 13L47 14L46 14L46 12L45 12L45 15L42 15L42 14L44 14L44 11L42 11L42 14L39 14L39 16L38 16L38 15L37 15L37 14L38 14L38 12L39 12L39 11L38 11L38 9L37 9L37 8L38 8L38 7L39 7L39 5L38 5L38 7L37 7L37 6L36 6L36 5L34 5L34 4L33 4L33 5L34 5L34 7L35 7L35 11L37 11L37 12L34 12L34 10L33 10L33 13L35 13L35 14L30 14L30 13L28 13L28 12L30 12L30 11L31 11L31 13L32 13L32 11L31 11L31 10L32 10L32 9L31 9L31 8L32 8L32 7L33 7L33 6L32 6L32 7L31 7L31 4ZM27 5L27 8L30 8L30 5ZM9 6L9 7L10 7L10 6ZM22 6L22 7L23 7L23 6ZM28 6L28 7L29 7L29 6ZM35 6L35 7L36 7L36 8L37 8L37 7L36 7L36 6ZM40 6L40 7L41 7L41 6ZM44 6L44 7L45 7L45 6ZM16 7L16 8L17 8L17 7ZM0 8L0 9L1 9L1 10L2 10L2 9L5 9L5 8ZM43 8L43 9L44 9L44 8ZM10 9L10 10L11 10L11 9ZM25 9L25 10L24 10L24 11L23 11L23 12L24 12L24 13L22 13L22 12L21 12L21 13L19 13L19 14L21 14L21 15L20 15L20 16L19 16L19 17L18 17L18 18L17 18L17 17L16 17L16 18L17 18L17 19L16 19L16 21L17 21L17 24L18 24L18 23L19 23L19 24L20 24L20 26L18 26L18 27L17 27L17 28L18 28L18 29L16 29L16 28L15 28L15 30L17 30L17 31L16 31L16 32L17 32L17 31L18 31L18 32L19 32L19 31L18 31L18 29L19 29L19 27L20 27L20 26L21 26L21 25L25 25L25 26L26 26L26 25L28 25L28 26L30 26L30 24L25 24L25 23L26 23L26 22L25 22L25 21L26 21L26 20L27 20L27 23L29 23L29 22L30 22L30 23L31 23L31 24L33 24L33 28L32 28L32 27L31 27L31 28L32 28L32 29L31 29L31 31L30 31L30 32L29 32L29 33L30 33L30 32L31 32L31 33L33 33L33 34L35 34L35 33L33 33L33 32L31 32L31 31L33 31L33 30L35 30L35 29L33 29L33 28L34 28L34 27L35 27L35 28L39 28L39 29L36 29L36 30L39 30L39 31L34 31L34 32L38 32L38 34L39 34L39 32L40 32L40 33L41 33L41 32L40 32L40 31L41 31L41 30L42 30L42 31L43 31L43 30L42 30L42 29L44 29L44 30L45 30L45 28L42 28L42 27L43 27L43 26L42 26L42 25L43 25L43 24L42 24L42 25L41 25L41 21L42 21L42 20L40 20L40 19L39 19L39 20L40 20L40 24L39 24L39 21L38 21L38 18L39 18L39 17L40 17L40 18L42 18L42 19L43 19L43 18L44 18L44 19L45 19L45 18L44 18L44 17L45 17L45 16L42 16L42 15L41 15L41 16L39 16L39 17L38 17L38 18L37 18L37 17L36 17L36 16L37 16L37 15L36 15L36 16L35 16L35 15L34 15L34 18L33 18L33 16L30 16L30 14L29 14L29 15L28 15L28 16L27 16L27 14L28 14L28 13L26 13L26 15L25 15L25 14L24 14L24 13L25 13L25 12L27 12L27 11L26 11L26 10L27 10L27 9ZM28 10L28 11L29 11L29 10ZM52 10L52 11L53 11L53 10ZM6 11L6 12L5 12L5 14L8 14L8 13L6 13L6 12L8 12L8 11ZM13 11L13 12L14 12L14 11ZM21 13L21 14L22 14L22 13ZM36 13L36 14L37 14L37 13ZM17 14L17 15L16 15L16 16L17 16L17 15L18 15L18 14ZM23 14L23 15L24 15L24 16L23 16L23 17L21 17L21 16L20 16L20 17L19 17L19 18L18 18L18 20L17 20L17 21L20 21L20 20L19 20L19 18L20 18L20 19L22 19L22 20L23 20L23 19L25 19L25 18L26 18L26 19L27 19L27 20L30 20L30 22L31 22L31 23L33 23L33 24L34 24L34 23L35 23L35 26L36 26L36 27L37 27L37 26L38 26L38 27L39 27L39 28L41 28L41 27L42 27L42 26L41 26L41 27L39 27L39 26L40 26L40 25L39 25L39 24L38 24L38 25L37 25L37 22L38 22L38 21L37 21L37 20L36 20L36 21L37 21L37 22L36 22L36 23L35 23L35 22L34 22L34 21L35 21L35 20L34 20L34 21L32 21L32 20L33 20L33 19L32 19L32 18L31 18L31 17L29 17L29 16L28 16L28 17L27 17L27 16L25 16L25 15L24 15L24 14ZM24 16L24 17L25 17L25 16ZM41 16L41 17L42 17L42 18L43 18L43 17L42 17L42 16ZM11 17L11 18L10 18L10 21L9 21L9 23L10 23L10 22L12 22L12 21L13 21L13 22L14 22L14 21L13 21L13 20L14 20L14 19L13 19L13 20L12 20L12 19L11 19L11 18L12 18L12 17ZM20 17L20 18L21 18L21 17ZM35 17L35 18L34 18L34 19L35 19L35 18L36 18L36 19L37 19L37 18L36 18L36 17ZM3 18L3 20L4 20L4 18ZM22 18L22 19L23 19L23 18ZM27 18L27 19L28 19L28 18ZM29 18L29 19L31 19L31 18ZM24 20L24 21L21 21L21 22L24 22L24 21L25 21L25 20ZM1 21L1 22L2 22L2 21ZM6 21L6 22L7 22L7 21ZM19 22L19 23L20 23L20 22ZM33 22L33 23L34 23L34 22ZM11 23L11 24L12 24L12 25L14 25L14 23L13 23L13 24L12 24L12 23ZM21 23L21 24L22 24L22 23ZM23 23L23 24L24 24L24 23ZM6 25L6 26L7 26L7 25ZM31 25L31 26L32 26L32 25ZM38 25L38 26L39 26L39 25ZM50 25L50 26L51 26L51 25ZM2 27L2 28L3 28L3 27ZM5 27L5 30L8 30L8 27ZM27 27L27 30L30 30L30 27ZM49 27L49 30L52 30L52 27ZM6 28L6 29L7 29L7 28ZM28 28L28 29L29 29L29 28ZM50 28L50 29L51 29L51 28ZM54 28L54 29L55 29L55 30L56 30L56 29L55 29L55 28ZM12 29L12 30L13 30L13 32L12 32L12 33L13 33L13 34L15 34L15 33L14 33L14 29ZM32 29L32 30L33 30L33 29ZM24 30L24 31L25 31L25 30ZM1 32L1 33L2 33L2 32ZM36 33L36 34L37 34L37 33ZM1 34L1 36L2 36L2 34ZM30 36L30 38L31 38L31 36ZM36 36L36 37L37 37L37 38L38 38L38 36ZM39 36L39 38L40 38L40 36ZM51 36L51 37L52 37L52 36ZM26 37L26 39L27 39L27 40L28 40L28 41L26 41L26 42L27 42L27 43L26 43L26 44L25 44L25 41L23 41L23 42L22 42L22 41L21 41L21 42L22 42L22 43L21 43L21 44L20 44L20 45L21 45L21 44L22 44L22 45L24 45L24 44L25 44L25 45L26 45L26 44L27 44L27 43L28 43L28 45L29 45L29 44L30 44L30 43L28 43L28 41L29 41L29 40L28 40L28 39L27 39L27 38L28 38L28 37ZM44 37L44 38L45 38L45 37ZM37 41L37 42L36 42L36 43L35 43L35 44L36 44L36 45L37 45L37 44L36 44L36 43L37 43L37 42L38 42L38 41ZM23 42L23 43L24 43L24 42ZM9 43L9 45L8 45L8 46L9 46L9 45L10 45L10 43ZM17 44L17 45L18 45L18 44ZM38 44L38 45L39 45L39 44ZM1 46L1 47L2 47L2 46ZM33 46L33 47L32 47L32 48L33 48L33 50L34 50L34 51L32 51L32 52L34 52L34 51L35 51L35 52L36 52L36 51L37 51L37 52L38 52L38 51L37 51L37 50L38 50L38 49L40 49L40 48L38 48L38 49L37 49L37 48L36 48L36 47L35 47L35 46ZM15 47L15 48L14 48L14 50L15 50L15 49L16 49L16 47ZM26 47L26 48L27 48L27 47ZM28 47L28 48L30 48L30 47ZM34 47L34 48L35 48L35 49L34 49L34 50L35 50L35 51L36 51L36 50L35 50L35 49L36 49L36 48L35 48L35 47ZM45 48L45 50L46 50L46 51L45 51L45 52L46 52L46 53L47 53L47 52L46 52L46 51L47 51L47 50L46 50L46 48ZM27 49L27 52L30 52L30 49ZM49 49L49 52L52 52L52 49ZM18 50L18 51L19 51L19 50ZM28 50L28 51L29 51L29 50ZM50 50L50 51L51 51L51 50ZM18 52L18 53L20 53L20 52ZM56 52L56 53L57 53L57 52ZM15 53L15 54L11 54L11 55L15 55L15 56L16 56L16 55L15 55L15 54L16 54L16 53ZM9 54L9 55L10 55L10 54ZM19 54L19 55L20 55L20 54ZM46 56L46 57L47 57L47 56ZM0 0L0 7L7 7L7 0ZM1 1L1 6L6 6L6 1ZM2 2L2 5L5 5L5 2ZM50 0L50 7L57 7L57 0ZM51 1L51 6L56 6L56 1ZM52 2L52 5L55 5L55 2ZM0 50L0 57L7 57L7 50ZM1 51L1 56L6 56L6 51ZM2 52L2 55L5 55L5 52Z" fill="#000000"/></g></g></svg>
