<?xml version="1.0" encoding="UTF-8"?>
<svg xmlns="http://www.w3.org/2000/svg" version="1.1" width="300" height="300" viewBox="0 0 300 300"><rect x="0" y="0" width="300" height="300" fill="#ffffff"/><g transform="scale(4.918)"><g transform="translate(2,2)"><path fill-rule="evenodd" d="M8 0L8 1L9 1L9 0ZM10 0L10 2L12 2L12 0ZM14 0L14 3L13 3L13 4L14 4L14 3L15 3L15 0ZM19 0L19 1L20 1L20 0ZM21 0L21 1L22 1L22 0ZM23 0L23 1L25 1L25 3L23 3L23 4L22 4L22 3L21 3L21 5L20 5L20 4L19 4L19 3L20 3L20 2L19 2L19 3L18 3L18 7L17 7L17 5L14 5L14 7L15 7L15 6L16 6L16 7L17 7L17 8L16 8L16 9L18 9L18 10L15 10L15 9L12 9L12 8L13 8L13 6L12 6L12 3L11 3L11 6L10 6L10 5L9 5L9 2L8 2L8 5L9 5L9 6L8 6L8 7L9 7L9 6L10 6L10 7L11 7L11 6L12 6L12 8L8 8L8 9L12 9L12 10L11 10L11 11L10 11L10 10L6 10L6 9L7 9L7 8L6 8L6 9L4 9L4 8L0 8L0 9L1 9L1 13L0 13L0 15L1 15L1 17L0 17L0 19L2 19L2 18L5 18L5 19L3 19L3 20L2 20L2 22L3 22L3 23L2 23L2 24L1 24L1 26L0 26L0 27L1 27L1 28L0 28L0 29L2 29L2 27L3 27L3 29L4 29L4 30L2 30L2 31L3 31L3 33L2 33L2 32L1 32L1 31L0 31L0 32L1 32L1 33L0 33L0 34L2 34L2 36L0 36L0 37L1 37L1 40L0 40L0 44L2 44L2 43L4 43L4 44L3 44L3 45L4 45L4 46L5 46L5 47L3 47L3 46L2 46L2 45L0 45L0 48L5 48L5 47L7 47L7 46L8 46L8 50L9 50L9 51L10 51L10 49L11 49L11 48L10 48L10 47L9 47L9 46L10 46L10 45L8 45L8 43L7 43L7 42L9 42L9 41L8 41L8 40L9 40L9 38L8 38L8 37L10 37L10 36L11 36L11 37L12 37L12 38L15 38L15 40L14 40L14 42L17 42L17 41L15 41L15 40L16 40L16 39L17 39L17 40L19 40L19 41L18 41L18 43L20 43L20 44L19 44L19 45L17 45L17 46L16 46L16 45L14 45L14 43L13 43L13 42L12 42L12 41L13 41L13 39L12 39L12 41L11 41L11 42L12 42L12 43L11 43L11 44L12 44L12 43L13 43L13 45L14 45L14 46L13 46L13 47L12 47L12 49L13 49L13 47L14 47L14 46L16 46L16 48L14 48L14 50L12 50L12 51L14 51L14 52L13 52L13 54L12 54L12 53L10 53L10 52L9 52L9 53L8 53L8 57L9 57L9 55L13 55L13 56L12 56L12 57L13 57L13 56L14 56L14 53L15 53L15 56L16 56L16 57L18 57L18 55L17 55L17 54L16 54L16 53L15 53L15 52L17 52L17 53L18 53L18 54L19 54L19 55L20 55L20 56L21 56L21 57L23 57L23 54L25 54L25 53L24 53L24 52L25 52L25 51L26 51L26 56L27 56L27 57L29 57L29 56L27 56L27 54L28 54L28 53L29 53L29 54L31 54L31 55L30 55L30 56L32 56L32 55L34 55L34 56L35 56L35 57L36 57L36 56L35 56L35 55L37 55L37 54L36 54L36 51L35 51L35 53L34 53L34 50L33 50L33 51L32 51L32 50L31 50L31 47L30 47L30 48L29 48L29 46L32 46L32 48L33 48L33 49L34 49L34 48L35 48L35 49L36 49L36 50L37 50L37 52L38 52L38 51L39 51L39 50L40 50L40 52L42 52L42 53L40 53L40 54L39 54L39 55L38 55L38 56L37 56L37 57L42 57L42 56L45 56L45 57L50 57L50 56L51 56L51 54L50 54L50 53L53 53L53 52L54 52L54 54L53 54L53 55L52 55L52 57L55 57L55 56L54 56L54 55L55 55L55 54L56 54L56 53L57 53L57 52L56 52L56 49L57 49L57 48L56 48L56 49L55 49L55 51L54 51L54 50L53 50L53 49L54 49L54 48L53 48L53 46L54 46L54 47L57 47L57 45L56 45L56 44L57 44L57 43L56 43L56 42L57 42L57 40L56 40L56 42L54 42L54 43L55 43L55 44L53 44L53 46L52 46L52 44L51 44L51 45L49 45L49 46L46 46L46 45L45 45L45 46L43 46L43 44L42 44L42 47L44 47L44 48L45 48L45 50L46 50L46 48L47 48L47 47L48 47L48 49L47 49L47 50L48 50L48 51L47 51L47 53L46 53L46 51L45 51L45 52L44 52L44 49L43 49L43 48L42 48L42 49L41 49L41 50L40 50L40 46L41 46L41 44L39 44L39 43L40 43L40 42L37 42L37 41L38 41L38 39L40 39L40 40L41 40L41 38L39 38L39 37L40 37L40 35L39 35L39 36L37 36L37 35L38 35L38 34L37 34L37 33L38 33L38 32L40 32L40 34L41 34L41 33L42 33L42 35L41 35L41 37L44 37L44 36L43 36L43 35L45 35L45 34L43 34L43 33L42 33L42 30L41 30L41 29L43 29L43 30L44 30L44 31L45 31L45 32L46 32L46 33L47 33L47 34L46 34L46 35L47 35L47 36L48 36L48 38L50 38L50 37L49 37L49 36L52 36L52 37L53 37L53 38L51 38L51 40L50 40L50 42L49 42L49 40L47 40L47 38L46 38L46 37L45 37L45 39L44 39L44 38L43 38L43 39L44 39L44 40L43 40L43 42L42 42L42 41L41 41L41 42L42 42L42 43L43 43L43 42L44 42L44 41L45 41L45 42L47 42L47 43L46 43L46 44L47 44L47 43L48 43L48 44L50 44L50 42L51 42L51 43L53 43L53 39L54 39L54 41L55 41L55 39L54 39L54 34L56 34L56 35L57 35L57 33L55 33L55 32L56 32L56 30L57 30L57 28L56 28L56 29L55 29L55 26L56 26L56 25L55 25L55 26L54 26L54 23L53 23L53 25L52 25L52 22L51 22L51 25L50 25L50 24L49 24L49 25L50 25L50 26L46 26L46 25L44 25L44 23L42 23L42 22L43 22L43 21L44 21L44 22L45 22L45 21L46 21L46 20L45 20L45 21L44 21L44 17L45 17L45 19L47 19L47 22L50 22L50 21L48 21L48 17L49 17L49 16L51 16L51 17L52 17L52 16L53 16L53 17L56 17L56 18L57 18L57 17L56 17L56 16L57 16L57 15L56 15L56 16L55 16L55 15L54 15L54 13L53 13L53 14L51 14L51 12L52 12L52 9L55 9L55 8L52 8L52 9L51 9L51 12L50 12L50 10L49 10L49 9L50 9L50 8L49 8L49 6L48 6L48 7L47 7L47 5L48 5L48 0L44 0L44 3L45 3L45 2L46 2L46 3L47 3L47 5L46 5L46 8L45 8L45 9L47 9L47 11L46 11L46 10L43 10L43 9L44 9L44 7L45 7L45 6L44 6L44 5L43 5L43 6L42 6L42 7L41 7L41 4L42 4L42 3L43 3L43 0L41 0L41 2L42 2L42 3L41 3L41 4L40 4L40 3L38 3L38 7L37 7L37 5L36 5L36 4L37 4L37 2L36 2L36 0L35 0L35 1L34 1L34 2L36 2L36 4L35 4L35 3L33 3L33 0L32 0L32 1L31 1L31 0L30 0L30 2L29 2L29 3L30 3L30 4L26 4L26 2L27 2L27 1L29 1L29 0L27 0L27 1L26 1L26 0ZM37 0L37 1L38 1L38 0ZM16 1L16 3L17 3L17 1ZM46 1L46 2L47 2L47 1ZM31 2L31 3L32 3L32 4L31 4L31 5L32 5L32 6L31 6L31 8L32 8L32 11L31 11L31 12L29 12L29 10L30 10L30 9L28 9L28 11L27 11L27 9L26 9L26 6L25 6L25 5L26 5L26 4L24 4L24 6L23 6L23 5L22 5L22 6L21 6L21 7L20 7L20 6L19 6L19 7L18 7L18 9L19 9L19 7L20 7L20 8L21 8L21 7L22 7L22 6L23 6L23 7L24 7L24 8L23 8L23 9L22 9L22 10L23 10L23 9L25 9L25 11L24 11L24 15L26 15L26 16L24 16L24 18L25 18L25 19L23 19L23 15L22 15L22 16L21 16L21 14L23 14L23 13L22 13L22 12L23 12L23 11L21 11L21 9L20 9L20 10L18 10L18 12L17 12L17 13L16 13L16 11L15 11L15 10L14 10L14 11L15 11L15 13L16 13L16 14L15 14L15 15L13 15L13 14L14 14L14 13L13 13L13 10L12 10L12 11L11 11L11 12L10 12L10 13L11 13L11 14L9 14L9 16L7 16L7 15L6 15L6 14L8 14L8 12L9 12L9 11L5 11L5 12L4 12L4 13L3 13L3 14L2 14L2 13L1 13L1 14L2 14L2 17L4 17L4 14L5 14L5 15L6 15L6 16L5 16L5 17L6 17L6 18L8 18L8 19L5 19L5 20L8 20L8 21L10 21L10 20L11 20L11 21L12 21L12 22L13 22L13 23L12 23L12 24L10 24L10 23L9 23L9 25L8 25L8 26L9 26L9 28L11 28L11 29L13 29L13 27L14 27L14 31L13 31L13 30L12 30L12 31L10 31L10 29L9 29L9 33L8 33L8 35L9 35L9 36L10 36L10 34L9 34L9 33L10 33L10 32L12 32L12 31L13 31L13 32L15 32L15 30L16 30L16 31L17 31L17 32L16 32L16 34L15 34L15 36L14 36L14 37L15 37L15 38L17 38L17 39L18 39L18 36L19 36L19 37L20 37L20 38L21 38L21 40L20 40L20 41L19 41L19 42L20 42L20 43L21 43L21 44L22 44L22 46L21 46L21 45L20 45L20 46L18 46L18 47L19 47L19 50L18 50L18 51L17 51L17 52L18 52L18 53L19 53L19 51L20 51L20 48L21 48L21 52L22 52L22 53L20 53L20 55L21 55L21 56L22 56L22 55L21 55L21 54L23 54L23 52L24 52L24 50L25 50L25 49L26 49L26 48L27 48L27 42L25 42L25 41L26 41L26 39L25 39L25 38L26 38L26 36L25 36L25 35L23 35L23 33L25 33L25 34L26 34L26 33L25 33L25 32L26 32L26 31L24 31L24 32L23 32L23 33L22 33L22 34L21 34L21 33L19 33L19 32L20 32L20 30L21 30L21 32L22 32L22 30L21 30L21 29L23 29L23 30L25 30L25 29L26 29L26 26L27 26L27 25L28 25L28 26L32 26L32 27L31 27L31 28L32 28L32 27L33 27L33 29L34 29L34 27L35 27L35 31L33 31L33 30L31 30L31 31L32 31L32 34L30 34L30 37L29 37L29 36L27 36L27 38L30 38L30 39L28 39L28 40L27 40L27 41L28 41L28 40L29 40L29 41L30 41L30 42L28 42L28 43L29 43L29 44L28 44L28 46L29 46L29 45L30 45L30 42L31 42L31 43L33 43L33 44L31 44L31 45L33 45L33 48L34 48L34 46L35 46L35 48L36 48L36 46L35 46L35 45L33 45L33 44L35 44L35 43L36 43L36 41L37 41L37 40L35 40L35 39L38 39L38 38L35 38L35 37L36 37L36 35L37 35L37 34L36 34L36 33L37 33L37 32L36 32L36 29L38 29L38 30L39 30L39 31L41 31L41 30L40 30L40 29L41 29L41 28L42 28L42 27L43 27L43 28L44 28L44 26L43 26L43 24L42 24L42 25L41 25L41 24L39 24L39 25L40 25L40 26L37 26L37 25L36 25L36 26L35 26L35 24L36 24L36 23L37 23L37 24L38 24L38 22L39 22L39 23L41 23L41 21L43 21L43 20L42 20L42 19L43 19L43 17L44 17L44 16L40 16L40 17L37 17L37 15L38 15L38 16L39 16L39 15L38 15L38 13L40 13L40 14L41 14L41 13L42 13L42 14L43 14L43 15L46 15L46 16L45 16L45 17L46 17L46 16L49 16L49 15L50 15L50 12L49 12L49 11L47 11L47 12L46 12L46 13L45 13L45 12L44 12L44 13L42 13L42 12L43 12L43 11L41 11L41 10L40 10L40 12L38 12L38 10L39 10L39 8L40 8L40 6L39 6L39 8L37 8L37 7L36 7L36 6L35 6L35 7L34 7L34 5L35 5L35 4L34 4L34 5L32 5L32 4L33 4L33 3L32 3L32 2ZM27 5L27 8L30 8L30 5ZM24 6L24 7L25 7L25 6ZM28 6L28 7L29 7L29 6ZM32 6L32 8L33 8L33 6ZM43 6L43 7L42 7L42 8L41 8L41 9L43 9L43 7L44 7L44 6ZM35 7L35 10L33 10L33 11L34 11L34 12L33 12L33 13L32 13L32 12L31 12L31 13L30 13L30 14L31 14L31 13L32 13L32 15L30 15L30 16L28 16L28 15L27 15L27 14L29 14L29 13L28 13L28 12L26 12L26 11L25 11L25 13L26 13L26 15L27 15L27 17L25 17L25 18L26 18L26 19L25 19L25 22L24 22L24 21L23 21L23 20L22 20L22 18L21 18L21 22L19 22L19 24L18 24L18 21L17 21L17 19L18 19L18 20L20 20L20 19L19 19L19 18L20 18L20 17L18 17L18 18L17 18L17 16L16 16L16 15L15 15L15 16L14 16L14 18L15 18L15 19L13 19L13 20L12 20L12 19L11 19L11 18L12 18L12 17L9 17L9 18L10 18L10 19L9 19L9 20L10 20L10 19L11 19L11 20L12 20L12 21L13 21L13 22L14 22L14 23L13 23L13 24L12 24L12 25L11 25L11 26L10 26L10 27L11 27L11 28L12 28L12 27L13 27L13 24L16 24L16 23L17 23L17 26L16 26L16 25L14 25L14 27L16 27L16 30L17 30L17 27L21 27L21 25L20 25L20 23L22 23L22 24L25 24L25 22L27 22L27 20L28 20L28 23L29 23L29 25L30 25L30 24L31 24L31 25L32 25L32 24L33 24L33 23L32 23L32 22L33 22L33 21L30 21L30 20L32 20L32 18L33 18L33 14L34 14L34 13L36 13L36 15L35 15L35 16L34 16L34 20L37 20L37 22L38 22L38 20L40 20L40 21L41 21L41 19L40 19L40 18L38 18L38 19L37 19L37 18L36 18L36 19L35 19L35 17L36 17L36 15L37 15L37 13L38 13L38 12L35 12L35 10L36 10L36 7ZM47 8L47 9L48 9L48 8ZM56 8L56 10L54 10L54 11L57 11L57 8ZM37 9L37 10L38 10L38 9ZM3 10L3 11L2 11L2 12L3 12L3 11L4 11L4 10ZM19 11L19 12L18 12L18 13L20 13L20 14L21 14L21 11ZM5 12L5 14L6 14L6 13L7 13L7 12ZM55 12L55 13L56 13L56 12ZM12 13L12 14L11 14L11 15L10 15L10 16L13 16L13 15L12 15L12 14L13 14L13 13ZM44 13L44 14L45 14L45 13ZM18 14L18 16L19 16L19 14ZM47 14L47 15L48 15L48 14ZM6 16L6 17L7 17L7 16ZM15 16L15 18L16 18L16 16ZM31 16L31 17L30 17L30 18L29 18L29 17L27 17L27 19L28 19L28 18L29 18L29 19L31 19L31 17L32 17L32 16ZM41 17L41 18L42 18L42 17ZM50 18L50 19L49 19L49 20L51 20L51 19L52 19L52 21L53 21L53 22L54 22L54 21L55 21L55 23L56 23L56 24L57 24L57 21L56 21L56 19L55 19L55 18L53 18L53 19L52 19L52 18ZM15 19L15 20L14 20L14 22L15 22L15 23L16 23L16 19ZM53 19L53 20L55 20L55 19ZM0 21L0 22L1 22L1 21ZM3 21L3 22L4 22L4 23L6 23L6 24L4 24L4 25L2 25L2 26L3 26L3 27L4 27L4 26L7 26L7 25L6 25L6 24L7 24L7 23L8 23L8 22L7 22L7 21L5 21L5 22L4 22L4 21ZM29 21L29 23L30 23L30 21ZM6 22L6 23L7 23L7 22ZM22 22L22 23L23 23L23 22ZM35 22L35 23L36 23L36 22ZM26 23L26 24L27 24L27 23ZM31 23L31 24L32 24L32 23ZM45 23L45 24L48 24L48 23ZM18 25L18 26L19 26L19 25ZM22 25L22 27L23 27L23 25ZM33 25L33 26L34 26L34 25ZM11 26L11 27L12 27L12 26ZM36 26L36 27L37 27L37 26ZM45 26L45 27L46 27L46 28L45 28L45 29L44 29L44 30L45 30L45 31L46 31L46 32L47 32L47 33L48 33L48 34L47 34L47 35L50 35L50 33L48 33L48 29L47 29L47 31L46 31L46 28L47 28L47 27L46 27L46 26ZM53 26L53 27L54 27L54 26ZM5 27L5 30L8 30L8 27ZM27 27L27 30L30 30L30 27ZM38 27L38 29L40 29L40 28L39 28L39 27ZM49 27L49 30L52 30L52 27ZM6 28L6 29L7 29L7 28ZM18 28L18 29L19 29L19 30L18 30L18 31L19 31L19 30L20 30L20 28ZM24 28L24 29L25 29L25 28ZM28 28L28 29L29 29L29 28ZM50 28L50 29L51 29L51 28ZM53 28L53 29L54 29L54 30L53 30L53 31L50 31L50 32L51 32L51 34L53 34L53 31L54 31L54 32L55 32L55 31L54 31L54 30L55 30L55 29L54 29L54 28ZM6 31L6 32L5 32L5 33L4 33L4 34L3 34L3 37L2 37L2 38L4 38L4 37L5 37L5 34L7 34L7 33L6 33L6 32L7 32L7 31ZM28 31L28 32L27 32L27 34L28 34L28 35L29 35L29 33L31 33L31 32L30 32L30 31ZM17 32L17 34L16 34L16 36L18 36L18 32ZM34 32L34 33L33 33L33 35L34 35L34 36L33 36L33 37L32 37L32 36L31 36L31 37L30 37L30 38L31 38L31 39L32 39L32 41L33 41L33 43L34 43L34 42L35 42L35 40L33 40L33 39L32 39L32 38L34 38L34 39L35 39L35 38L34 38L34 37L35 37L35 34L34 34L34 33L35 33L35 32ZM11 33L11 36L13 36L13 35L14 35L14 34L13 34L13 33ZM12 34L12 35L13 35L13 34ZM6 35L6 36L7 36L7 35ZM19 35L19 36L20 36L20 35ZM52 35L52 36L53 36L53 35ZM21 36L21 38L23 38L23 39L22 39L22 40L21 40L21 42L22 42L22 44L23 44L23 42L24 42L24 43L25 43L25 42L24 42L24 41L22 41L22 40L23 40L23 39L24 39L24 40L25 40L25 39L24 39L24 37L25 37L25 36L23 36L23 37L22 37L22 36ZM55 36L55 38L56 38L56 39L57 39L57 38L56 38L56 36ZM6 37L6 38L5 38L5 39L4 39L4 40L3 40L3 39L2 39L2 40L1 40L1 43L2 43L2 42L3 42L3 41L4 41L4 42L5 42L5 44L4 44L4 45L5 45L5 46L7 46L7 45L5 45L5 44L7 44L7 43L6 43L6 42L7 42L7 41L4 41L4 40L7 40L7 39L8 39L8 38L7 38L7 37ZM6 38L6 39L7 39L7 38ZM45 40L45 41L46 41L46 40ZM51 40L51 41L52 41L52 40ZM47 41L47 42L48 42L48 41ZM9 43L9 44L10 44L10 43ZM44 43L44 44L45 44L45 43ZM24 44L24 45L23 45L23 49L25 49L25 48L26 48L26 47L25 47L25 44ZM36 44L36 45L37 45L37 46L38 46L38 47L39 47L39 46L40 46L40 45L37 45L37 44ZM11 45L11 46L12 46L12 45ZM55 45L55 46L56 46L56 45ZM1 46L1 47L2 47L2 46ZM45 46L45 47L46 47L46 46ZM51 46L51 47L52 47L52 46ZM21 47L21 48L22 48L22 47ZM24 47L24 48L25 48L25 47ZM6 48L6 49L7 49L7 48ZM9 48L9 49L10 49L10 48ZM38 48L38 49L39 49L39 48ZM15 49L15 51L16 51L16 50L17 50L17 49ZM27 49L27 52L30 52L30 49ZM42 49L42 50L43 50L43 49ZM49 49L49 52L52 52L52 49ZM22 50L22 52L23 52L23 50ZM28 50L28 51L29 51L29 50ZM50 50L50 51L51 51L51 50ZM31 51L31 52L32 52L32 51ZM42 51L42 52L43 52L43 51ZM55 52L55 53L56 53L56 52ZM9 53L9 54L10 54L10 53ZM31 53L31 54L33 54L33 53ZM42 53L42 54L40 54L40 55L39 55L39 56L40 56L40 55L41 55L41 56L42 56L42 55L45 55L45 56L46 56L46 55L47 55L47 56L49 56L49 55L50 55L50 54L49 54L49 55L47 55L47 54L48 54L48 53L47 53L47 54L46 54L46 55L45 55L45 54L43 54L43 53ZM24 55L24 57L25 57L25 55ZM56 55L56 56L57 56L57 55ZM0 0L0 7L7 7L7 0ZM1 1L1 6L6 6L6 1ZM2 2L2 5L5 5L5 2ZM50 0L50 7L57 7L57 0ZM51 1L51 6L56 6L56 1ZM52 2L52 5L55 5L55 2ZM0 50L0 57L7 57L7 50ZM1 51L1 56L6 56L6 51ZM2 52L2 55L5 55L5 52Z" fill="#000000"/></g></g></svg>
