<?xml version="1.0" encoding="UTF-8"?>
<svg xmlns="http://www.w3.org/2000/svg" version="1.1" width="300" height="300" viewBox="0 0 300 300"><rect x="0" y="0" width="300" height="300" fill="#ffffff"/><g transform="scale(4.918)"><g transform="translate(2,2)"><path fill-rule="evenodd" d="M10 0L10 1L8 1L8 2L9 2L9 3L8 3L8 4L9 4L9 3L10 3L10 4L11 4L11 3L10 3L10 1L11 1L11 2L12 2L12 0ZM14 0L14 2L13 2L13 4L14 4L14 5L16 5L16 4L14 4L14 2L15 2L15 3L16 3L16 2L17 2L17 4L19 4L19 5L20 5L20 7L19 7L19 6L18 6L18 7L17 7L17 6L16 6L16 7L15 7L15 6L14 6L14 7L15 7L15 8L16 8L16 7L17 7L17 9L19 9L19 10L18 10L18 11L17 11L17 10L16 10L16 11L15 11L15 9L14 9L14 8L13 8L13 11L12 11L12 13L17 13L17 14L16 14L16 15L14 15L14 14L13 14L13 15L12 15L12 14L11 14L11 13L9 13L9 12L10 12L10 11L11 11L11 10L10 10L10 8L11 8L11 9L12 9L12 7L13 7L13 6L12 6L12 5L11 5L11 6L10 6L10 8L6 8L6 9L8 9L8 10L5 10L5 8L0 8L0 9L1 9L1 10L0 10L0 11L1 11L1 12L0 12L0 15L1 15L1 16L0 16L0 17L1 17L1 18L0 18L0 19L2 19L2 20L1 20L1 21L2 21L2 22L3 22L3 21L4 21L4 22L6 22L6 23L5 23L5 24L4 24L4 23L2 23L2 24L4 24L4 25L3 25L3 26L4 26L4 31L3 31L3 30L2 30L2 29L1 29L1 31L0 31L0 32L1 32L1 31L3 31L3 32L2 32L2 33L1 33L1 34L2 34L2 35L0 35L0 39L1 39L1 38L2 38L2 39L3 39L3 40L4 40L4 39L3 39L3 38L5 38L5 37L2 37L2 35L4 35L4 33L8 33L8 35L7 35L7 34L5 34L5 35L7 35L7 36L6 36L6 37L7 37L7 38L6 38L6 39L7 39L7 38L8 38L8 37L9 37L9 36L10 36L10 35L12 35L12 38L13 38L13 35L12 35L12 33L11 33L11 34L10 34L10 32L9 32L9 30L10 30L10 31L11 31L11 32L14 32L14 33L13 33L13 34L14 34L14 35L15 35L15 36L14 36L14 37L15 37L15 38L16 38L16 37L15 37L15 36L17 36L17 34L16 34L16 33L19 33L19 32L18 32L18 31L20 31L20 29L22 29L22 28L21 28L21 27L22 27L22 26L24 26L24 27L23 27L23 28L24 28L24 27L26 27L26 30L25 30L25 29L23 29L23 32L25 32L25 33L22 33L22 34L23 34L23 35L24 35L24 36L23 36L23 37L22 37L22 35L19 35L19 34L18 34L18 35L19 35L19 36L18 36L18 37L19 37L19 38L17 38L17 39L19 39L19 40L17 40L17 42L18 42L18 43L17 43L17 44L15 44L15 45L14 45L14 42L15 42L15 41L16 41L16 39L15 39L15 40L14 40L14 39L12 39L12 40L11 40L11 38L10 38L10 39L9 39L9 40L8 40L8 41L7 41L7 40L5 40L5 41L4 41L4 42L5 42L5 43L4 43L4 44L5 44L5 43L7 43L7 42L12 42L12 43L10 43L10 45L9 45L9 43L8 43L8 45L7 45L7 44L6 44L6 45L7 45L7 46L5 46L5 47L3 47L3 46L2 46L2 47L1 47L1 46L0 46L0 48L5 48L5 47L7 47L7 48L6 48L6 49L8 49L8 51L9 51L9 52L8 52L8 57L11 57L11 55L12 55L12 57L15 57L15 55L16 55L16 57L21 57L21 56L22 56L22 55L23 55L23 56L24 56L24 55L23 55L23 54L24 54L24 53L25 53L25 54L27 54L27 53L28 53L28 54L30 54L30 53L31 53L31 56L30 56L30 55L29 55L29 56L30 56L30 57L32 57L32 56L33 56L33 57L38 57L38 56L39 56L39 55L40 55L40 56L41 56L41 57L44 57L44 56L42 56L42 54L43 54L43 53L44 53L44 54L45 54L45 53L46 53L46 52L45 52L45 53L44 53L44 50L43 50L43 49L42 49L42 48L45 48L45 47L47 47L47 46L46 46L46 45L47 45L47 44L48 44L48 46L49 46L49 45L50 45L50 44L51 44L51 43L50 43L50 42L52 42L52 41L54 41L54 43L53 43L53 44L52 44L52 45L51 45L51 47L49 47L49 48L48 48L48 51L47 51L47 50L45 50L45 51L47 51L47 52L48 52L48 53L47 53L47 55L45 55L45 57L47 57L47 55L49 55L49 56L50 56L50 54L53 54L53 52L55 52L55 53L56 53L56 52L57 52L57 51L56 51L56 52L55 52L55 51L53 51L53 49L54 49L54 50L57 50L57 49L56 49L56 48L57 48L57 47L56 47L56 46L57 46L57 45L56 45L56 44L57 44L57 43L56 43L56 42L55 42L55 41L54 41L54 40L55 40L55 39L57 39L57 37L55 37L55 39L52 39L52 40L51 40L51 41L49 41L49 43L47 43L47 42L46 42L46 43L45 43L45 41L47 41L47 40L46 40L46 38L45 38L45 37L44 37L44 34L43 34L43 32L45 32L45 34L46 34L46 35L45 35L45 36L46 36L46 35L48 35L48 33L47 33L47 32L48 32L48 31L50 31L50 32L51 32L51 33L50 33L50 34L49 34L49 35L50 35L50 34L51 34L51 33L53 33L53 34L52 34L52 37L54 37L54 36L56 36L56 34L57 34L57 31L56 31L56 30L57 30L57 29L56 29L56 28L57 28L57 27L56 27L56 26L57 26L57 25L54 25L54 26L55 26L55 27L53 27L53 26L52 26L52 24L56 24L56 22L57 22L57 21L54 21L54 20L56 20L56 18L57 18L57 17L56 17L56 18L55 18L55 17L53 17L53 18L54 18L54 19L52 19L52 20L51 20L51 22L50 22L50 19L51 19L51 18L52 18L52 17L51 17L51 18L49 18L49 17L48 17L48 16L47 16L47 15L49 15L49 16L56 16L56 14L57 14L57 13L56 13L56 12L57 12L57 11L56 11L56 10L57 10L57 9L56 9L56 8L55 8L55 9L56 9L56 10L55 10L55 11L54 11L54 10L50 10L50 8L49 8L49 6L48 6L48 8L45 8L45 9L48 9L48 10L47 10L47 12L49 12L49 10L50 10L50 13L51 13L51 14L50 14L50 15L49 15L49 13L47 13L47 14L46 14L46 12L45 12L45 11L42 11L42 10L43 10L43 9L44 9L44 8L42 8L42 7L43 7L43 6L42 6L42 7L41 7L41 5L43 5L43 4L42 4L42 3L47 3L47 5L46 5L46 4L44 4L44 5L45 5L45 6L44 6L44 7L45 7L45 6L46 6L46 7L47 7L47 5L48 5L48 0L46 0L46 1L47 1L47 2L44 2L44 1L45 1L45 0L42 0L42 1L41 1L41 2L39 2L39 1L38 1L38 0L37 0L37 1L36 1L36 2L37 2L37 1L38 1L38 2L39 2L39 5L38 5L38 3L36 3L36 5L33 5L33 6L32 6L32 7L31 7L31 4L32 4L32 3L33 3L33 4L34 4L34 2L35 2L35 1L34 1L34 0L32 0L32 1L31 1L31 0L30 0L30 1L29 1L29 0L28 0L28 1L29 1L29 2L28 2L28 3L27 3L27 4L26 4L26 3L25 3L25 2L24 2L24 1L26 1L26 2L27 2L27 1L26 1L26 0L21 0L21 2L20 2L20 3L21 3L21 2L22 2L22 3L23 3L23 4L19 4L19 1L20 1L20 0L19 0L19 1L16 1L16 2L15 2L15 0ZM22 1L22 2L23 2L23 3L24 3L24 2L23 2L23 1ZM30 1L30 2L31 2L31 1ZM32 1L32 2L34 2L34 1ZM42 1L42 2L43 2L43 1ZM28 3L28 4L31 4L31 3ZM40 3L40 5L41 5L41 3ZM23 4L23 5L24 5L24 4ZM25 4L25 8L24 8L24 6L23 6L23 7L22 7L22 5L21 5L21 7L22 7L22 8L19 8L19 9L20 9L20 11L19 11L19 12L21 12L21 13L19 13L19 14L20 14L20 15L19 15L19 17L18 17L18 18L19 18L19 20L20 20L20 21L17 21L17 19L16 19L16 21L15 21L15 18L17 18L17 17L15 17L15 16L14 16L14 17L13 17L13 16L12 16L12 18L11 18L11 16L10 16L10 15L8 15L8 14L9 14L9 13L8 13L8 12L7 12L7 11L5 11L5 10L3 10L3 9L2 9L2 12L3 12L3 11L4 11L4 12L5 12L5 13L4 13L4 14L5 14L5 13L6 13L6 14L7 14L7 15L6 15L6 16L7 16L7 15L8 15L8 16L9 16L9 17L10 17L10 18L11 18L11 19L8 19L8 18L7 18L7 17L6 17L6 18L4 18L4 17L3 17L3 16L4 16L4 15L3 15L3 14L1 14L1 15L2 15L2 17L3 17L3 18L2 18L2 19L3 19L3 18L4 18L4 19L6 19L6 20L4 20L4 21L6 21L6 22L7 22L7 23L6 23L6 24L7 24L7 23L8 23L8 24L9 24L9 23L8 23L8 21L9 21L9 22L10 22L10 21L9 21L9 20L11 20L11 23L12 23L12 18L13 18L13 19L14 19L14 20L13 20L13 21L14 21L14 22L16 22L16 21L17 21L17 22L20 22L20 23L18 23L18 24L20 24L20 26L19 26L19 25L16 25L16 23L15 23L15 25L14 25L14 26L13 26L13 25L12 25L12 24L10 24L10 25L11 25L11 26L10 26L10 27L9 27L9 28L10 28L10 29L11 29L11 28L13 28L13 27L14 27L14 26L15 26L15 30L13 30L13 29L12 29L12 30L11 30L11 31L14 31L14 32L15 32L15 30L17 30L17 31L16 31L16 32L17 32L17 31L18 31L18 29L20 29L20 27L21 27L21 26L22 26L22 25L23 25L23 24L22 24L22 25L21 25L21 23L24 23L24 25L25 25L25 26L26 26L26 25L27 25L27 24L28 24L28 26L29 26L29 25L30 25L30 23L31 23L31 24L33 24L33 23L34 23L34 26L33 26L33 27L31 27L31 28L32 28L32 29L31 29L31 30L35 30L35 31L33 31L33 32L32 32L32 31L31 31L31 32L32 32L32 33L34 33L34 34L31 34L31 35L32 35L32 38L31 38L31 36L30 36L30 38L31 38L31 39L29 39L29 35L30 35L30 34L29 34L29 33L30 33L30 32L29 32L29 31L28 31L28 32L29 32L29 33L25 33L25 34L27 34L27 35L25 35L25 38L27 38L27 39L25 39L25 44L24 44L24 43L23 43L23 44L24 44L24 45L22 45L22 44L21 44L21 43L22 43L22 42L21 42L21 41L24 41L24 39L23 39L23 38L24 38L24 37L23 37L23 38L22 38L22 37L21 37L21 36L19 36L19 37L21 37L21 38L22 38L22 40L20 40L20 42L19 42L19 41L18 41L18 42L19 42L19 43L20 43L20 44L19 44L19 45L20 45L20 46L21 46L21 45L22 45L22 47L19 47L19 46L17 46L17 45L18 45L18 44L17 44L17 45L16 45L16 47L15 47L15 48L14 48L14 49L13 49L13 48L11 48L11 49L12 49L12 50L13 50L13 51L12 51L12 52L11 52L11 54L16 54L16 53L17 53L17 56L21 56L21 55L22 55L22 53L24 53L24 52L23 52L23 51L24 51L24 50L23 50L23 51L22 51L22 53L21 53L21 51L20 51L20 50L21 50L21 49L20 49L20 48L22 48L22 49L25 49L25 53L26 53L26 49L25 49L25 48L29 48L29 47L25 47L25 48L22 48L22 47L23 47L23 46L24 46L24 45L25 45L25 46L27 46L27 45L28 45L28 46L29 46L29 45L28 45L28 44L26 44L26 43L27 43L27 42L28 42L28 43L29 43L29 44L32 44L32 47L33 47L33 46L37 46L37 47L34 47L34 48L31 48L31 47L30 47L30 48L31 48L31 49L32 49L32 51L31 51L31 52L32 52L32 54L33 54L33 55L34 55L34 56L35 56L35 55L36 55L36 56L38 56L38 55L39 55L39 52L40 52L40 55L41 55L41 53L43 53L43 52L42 52L42 51L43 51L43 50L42 50L42 49L41 49L41 48L42 48L42 47L45 47L45 44L44 44L44 46L42 46L42 45L43 45L43 44L41 44L41 43L42 43L42 42L39 42L39 41L41 41L41 39L42 39L42 38L41 38L41 37L43 37L43 40L44 40L44 41L43 41L43 42L44 42L44 41L45 41L45 40L44 40L44 39L45 39L45 38L44 38L44 37L43 37L43 36L40 36L40 35L43 35L43 34L41 34L41 33L42 33L42 32L43 32L43 31L44 31L44 30L45 30L45 32L47 32L47 31L48 31L48 29L46 29L46 30L45 30L45 26L46 26L46 28L48 28L48 26L47 26L47 25L50 25L50 26L51 26L51 25L50 25L50 24L52 24L52 23L55 23L55 22L52 22L52 23L50 23L50 22L49 22L49 24L47 24L47 21L48 21L48 19L49 19L49 18L48 18L48 17L47 17L47 16L43 16L43 17L44 17L44 18L42 18L42 15L44 15L44 14L45 14L45 12L43 12L43 13L44 13L44 14L42 14L42 11L40 11L40 12L38 12L38 14L36 14L36 15L34 15L34 16L30 16L30 14L31 14L31 15L33 15L33 14L35 14L35 13L36 13L36 12L37 12L37 10L39 10L39 9L40 9L40 10L42 10L42 9L41 9L41 7L40 7L40 6L39 6L39 7L40 7L40 8L38 8L38 5L36 5L36 6L35 6L35 7L34 7L34 6L33 6L33 7L32 7L32 8L31 8L31 9L32 9L32 10L31 10L31 11L30 11L30 12L28 12L28 13L26 13L26 14L28 14L28 13L30 13L30 14L29 14L29 15L28 15L28 16L27 16L27 15L25 15L25 14L24 14L24 13L25 13L25 12L27 12L27 11L26 11L26 10L28 10L28 11L29 11L29 10L28 10L28 9L25 9L25 8L26 8L26 4ZM8 5L8 7L9 7L9 5ZM27 5L27 8L30 8L30 5ZM11 6L11 7L12 7L12 6ZM28 6L28 7L29 7L29 6ZM36 6L36 7L35 7L35 8L34 8L34 9L33 9L33 10L34 10L34 11L32 11L32 12L31 12L31 14L33 14L33 13L35 13L35 12L36 12L36 11L35 11L35 10L34 10L34 9L37 9L37 8L36 8L36 7L37 7L37 6ZM48 8L48 9L49 9L49 8ZM51 8L51 9L52 9L52 8ZM53 8L53 9L54 9L54 8ZM21 9L21 10L22 10L22 11L21 11L21 12L22 12L22 13L21 13L21 14L22 14L22 13L24 13L24 12L23 12L23 10L25 10L25 9ZM8 10L8 11L9 11L9 10ZM13 11L13 12L14 12L14 11ZM16 11L16 12L17 12L17 13L18 13L18 12L17 12L17 11ZM34 11L34 12L35 12L35 11ZM51 11L51 13L52 13L52 14L51 14L51 15L55 15L55 14L53 14L53 13L55 13L55 12L54 12L54 11L53 11L53 12L52 12L52 11ZM6 12L6 13L7 13L7 12ZM32 12L32 13L33 13L33 12ZM39 13L39 16L38 16L38 17L39 17L39 16L41 16L41 15L42 15L42 14L41 14L41 13ZM17 14L17 15L16 15L16 16L17 16L17 15L18 15L18 14ZM40 14L40 15L41 15L41 14ZM21 15L21 16L20 16L20 17L19 17L19 18L20 18L20 19L22 19L22 20L23 20L23 19L24 19L24 21L21 21L21 22L24 22L24 21L25 21L25 22L26 22L26 23L25 23L25 24L27 24L27 23L28 23L28 24L29 24L29 23L30 23L30 22L31 22L31 23L33 23L33 21L34 21L34 20L35 20L35 18L37 18L37 20L36 20L36 21L38 21L38 19L40 19L40 20L39 20L39 22L36 22L36 24L35 24L35 25L37 25L37 26L36 26L36 28L35 28L35 26L34 26L34 28L33 28L33 29L35 29L35 30L36 30L36 31L35 31L35 32L36 32L36 33L35 33L35 34L34 34L34 35L33 35L33 36L35 36L35 35L37 35L37 34L38 34L38 36L39 36L39 37L40 37L40 36L39 36L39 35L40 35L40 34L38 34L38 33L37 33L37 32L36 32L36 31L38 31L38 32L41 32L41 31L42 31L42 30L43 30L43 29L44 29L44 27L42 27L42 26L44 26L44 25L43 25L43 24L45 24L45 25L46 25L46 23L45 23L45 21L44 21L44 23L43 23L43 20L47 20L47 18L46 18L46 17L45 17L45 18L46 18L46 19L43 19L43 20L42 20L42 18L41 18L41 17L40 17L40 18L37 18L37 16L34 16L34 17L35 17L35 18L33 18L33 19L32 19L32 18L31 18L31 17L29 17L29 16L28 16L28 17L27 17L27 16L25 16L25 15L23 15L23 17L21 17L21 16L22 16L22 15ZM24 16L24 17L25 17L25 16ZM14 17L14 18L15 18L15 17ZM20 17L20 18L21 18L21 17ZM6 18L6 19L7 19L7 18ZM22 18L22 19L23 19L23 18ZM25 18L25 19L26 19L26 21L28 21L28 22L30 22L30 20L31 20L31 18L29 18L29 19L28 19L28 18ZM40 18L40 19L41 19L41 18ZM27 19L27 20L28 20L28 19ZM2 20L2 21L3 21L3 20ZM6 20L6 21L8 21L8 20ZM32 20L32 21L33 21L33 20ZM40 20L40 21L42 21L42 20ZM52 20L52 21L53 21L53 20ZM0 22L0 24L1 24L1 22ZM40 22L40 23L37 23L37 24L38 24L38 27L37 27L37 28L38 28L38 29L36 29L36 30L39 30L39 31L40 31L40 29L41 29L41 30L42 30L42 29L43 29L43 28L42 28L42 27L41 27L41 28L40 28L40 27L39 27L39 26L42 26L42 22ZM40 23L40 24L39 24L39 25L40 25L40 24L41 24L41 23ZM0 25L0 28L1 28L1 25ZM6 25L6 26L7 26L7 25ZM8 25L8 26L9 26L9 25ZM31 25L31 26L32 26L32 25ZM11 26L11 27L10 27L10 28L11 28L11 27L12 27L12 26ZM16 26L16 27L18 27L18 26ZM2 27L2 28L3 28L3 27ZM5 27L5 30L8 30L8 27ZM27 27L27 30L30 30L30 27ZM49 27L49 30L52 30L52 27ZM6 28L6 29L7 29L7 28ZM16 28L16 29L18 29L18 28ZM28 28L28 29L29 29L29 28ZM39 28L39 29L40 29L40 28ZM50 28L50 29L51 29L51 28ZM54 28L54 29L53 29L53 30L54 30L54 29L55 29L55 30L56 30L56 29L55 29L55 28ZM21 30L21 31L22 31L22 30ZM24 30L24 31L25 31L25 32L27 32L27 31L25 31L25 30ZM46 30L46 31L47 31L47 30ZM6 31L6 32L8 32L8 31ZM51 31L51 32L53 32L53 33L55 33L55 34L56 34L56 33L55 33L55 32L56 32L56 31L55 31L55 32L53 32L53 31ZM20 32L20 33L21 33L21 32ZM14 33L14 34L15 34L15 33ZM46 33L46 34L47 34L47 33ZM7 36L7 37L8 37L8 36ZM36 36L36 37L37 37L37 38L36 38L36 39L35 39L35 38L33 38L33 39L34 39L34 40L35 40L35 42L34 42L34 41L33 41L33 42L32 42L32 41L31 41L31 40L30 40L30 41L29 41L29 40L28 40L28 39L27 39L27 41L26 41L26 42L27 42L27 41L29 41L29 43L33 43L33 44L34 44L34 43L35 43L35 44L36 44L36 45L37 45L37 46L38 46L38 45L39 45L39 44L40 44L40 43L39 43L39 44L38 44L38 40L37 40L37 38L38 38L38 37L37 37L37 36ZM50 36L50 37L51 37L51 36ZM27 37L27 38L28 38L28 37ZM48 37L48 38L49 38L49 39L50 39L50 38L49 38L49 37ZM19 38L19 39L20 39L20 38ZM39 38L39 40L40 40L40 38ZM0 40L0 43L1 43L1 44L0 44L0 45L1 45L1 44L2 44L2 42L3 42L3 41L2 41L2 42L1 42L1 40ZM9 40L9 41L10 41L10 40ZM12 40L12 41L14 41L14 40ZM6 41L6 42L7 42L7 41ZM30 41L30 42L31 42L31 41ZM36 41L36 42L35 42L35 43L36 43L36 44L37 44L37 45L38 45L38 44L37 44L37 43L36 43L36 42L37 42L37 41ZM20 42L20 43L21 43L21 42ZM12 43L12 44L11 44L11 47L13 47L13 43ZM20 44L20 45L21 45L21 44ZM25 44L25 45L26 45L26 44ZM54 44L54 45L55 45L55 46L53 46L53 45L52 45L52 47L51 47L51 48L54 48L54 49L55 49L55 48L54 48L54 47L55 47L55 46L56 46L56 45L55 45L55 44ZM8 45L8 46L7 46L7 47L8 47L8 46L9 46L9 45ZM39 46L39 48L41 48L41 47L42 47L42 46L41 46L41 47L40 47L40 46ZM16 47L16 49L15 49L15 53L16 53L16 51L17 51L17 50L16 50L16 49L17 49L17 47ZM18 47L18 49L19 49L19 47ZM8 48L8 49L9 49L9 50L10 50L10 49L9 49L9 48ZM35 48L35 49L36 49L36 50L37 50L37 51L38 51L38 52L39 52L39 50L37 50L37 49L38 49L38 48ZM46 48L46 49L47 49L47 48ZM27 49L27 52L30 52L30 49ZM33 49L33 50L34 50L34 51L35 51L35 52L33 52L33 51L32 51L32 52L33 52L33 53L35 53L35 54L34 54L34 55L35 55L35 54L36 54L36 55L38 55L38 53L37 53L37 52L36 52L36 51L35 51L35 50L34 50L34 49ZM49 49L49 52L52 52L52 49ZM18 50L18 51L19 51L19 50ZM28 50L28 51L29 51L29 50ZM41 50L41 51L40 51L40 52L41 52L41 51L42 51L42 50ZM50 50L50 51L51 51L51 50ZM12 52L12 53L13 53L13 52ZM18 52L18 53L20 53L20 52ZM35 52L35 53L36 53L36 54L37 54L37 53L36 53L36 52ZM9 53L9 56L10 56L10 53ZM48 53L48 54L49 54L49 53ZM18 54L18 55L20 55L20 54ZM54 54L54 55L51 55L51 57L52 57L52 56L54 56L54 57L56 57L56 56L55 56L55 54ZM13 55L13 56L14 56L14 55ZM25 55L25 57L26 57L26 55ZM27 55L27 56L28 56L28 55ZM0 0L0 7L7 7L7 0ZM1 1L1 6L6 6L6 1ZM2 2L2 5L5 5L5 2ZM50 0L50 7L57 7L57 0ZM51 1L51 6L56 6L56 1ZM52 2L52 5L55 5L55 2ZM0 50L0 57L7 57L7 50ZM1 51L1 56L6 56L6 51ZM2 52L2 55L5 55L5 52Z" fill="#000000"/></g></g></svg>
