<?xml version="1.0" encoding="UTF-8"?>
<svg xmlns="http://www.w3.org/2000/svg" version="1.1" width="300" height="300" viewBox="0 0 300 300"><rect x="0" y="0" width="300" height="300" fill="#ffffff"/><g transform="scale(4.918)"><g transform="translate(2,2)"><path fill-rule="evenodd" d="M9 0L9 1L8 1L8 2L9 2L9 3L8 3L8 4L9 4L9 3L11 3L11 4L14 4L14 7L13 7L13 6L12 6L12 5L11 5L11 6L10 6L10 5L8 5L8 7L9 7L9 6L10 6L10 7L11 7L11 6L12 6L12 8L6 8L6 9L5 9L5 8L0 8L0 10L1 10L1 9L3 9L3 10L2 10L2 11L1 11L1 12L0 12L0 14L1 14L1 15L2 15L2 16L1 16L1 17L0 17L0 18L1 18L1 17L2 17L2 18L3 18L3 19L0 19L0 23L1 23L1 24L0 24L0 25L1 25L1 27L2 27L2 28L0 28L0 29L3 29L3 30L4 30L4 32L2 32L2 33L4 33L4 35L5 35L5 36L6 36L6 37L7 37L7 38L5 38L5 37L3 37L3 36L2 36L2 35L3 35L3 34L2 34L2 35L1 35L1 34L0 34L0 35L1 35L1 36L0 36L0 37L1 37L1 38L0 38L0 43L1 43L1 44L0 44L0 48L5 48L5 47L7 47L7 48L6 48L6 49L8 49L8 51L9 51L9 52L8 52L8 57L11 57L11 56L12 56L12 55L13 55L13 54L16 54L16 53L15 53L15 52L17 52L17 51L16 51L16 49L19 49L19 48L18 48L18 47L19 47L19 45L22 45L22 44L19 44L19 45L18 45L18 44L17 44L17 43L18 43L18 42L20 42L20 43L22 43L22 41L21 41L21 40L22 40L22 39L21 39L21 40L20 40L20 41L19 41L19 40L18 40L18 39L20 39L20 38L18 38L18 37L20 37L20 36L18 36L18 35L19 35L19 34L18 34L18 33L19 33L19 31L20 31L20 33L21 33L21 34L20 34L20 35L21 35L21 34L22 34L22 33L21 33L21 31L23 31L23 30L25 30L25 31L24 31L24 33L23 33L23 34L25 34L25 35L24 35L24 37L22 37L22 36L23 36L23 35L22 35L22 36L21 36L21 37L22 37L22 38L24 38L24 37L26 37L26 36L27 36L27 37L28 37L28 38L26 38L26 39L25 39L25 40L24 40L24 39L23 39L23 40L24 40L24 41L23 41L23 42L26 42L26 43L27 43L27 45L29 45L29 47L30 47L30 48L26 48L26 47L27 47L27 46L26 46L26 47L24 47L24 46L25 46L25 45L26 45L26 44L25 44L25 45L24 45L24 44L23 44L23 45L24 45L24 46L23 46L23 47L24 47L24 48L23 48L23 50L25 50L25 48L26 48L26 53L25 53L25 51L24 51L24 52L23 52L23 51L21 51L21 50L18 50L18 53L19 53L19 54L17 54L17 55L19 55L19 56L16 56L16 55L14 55L14 56L13 56L13 57L14 57L14 56L15 56L15 57L19 57L19 56L20 56L20 57L21 57L21 56L23 56L23 57L24 57L24 56L25 56L25 57L26 57L26 56L25 56L25 55L26 55L26 54L27 54L27 53L28 53L28 54L29 54L29 55L30 55L30 56L29 56L29 57L32 57L32 55L33 55L33 57L34 57L34 56L35 56L35 57L39 57L39 55L40 55L40 52L41 52L41 55L42 55L42 54L43 54L43 53L44 53L44 54L45 54L45 55L46 55L46 54L45 54L45 53L44 53L44 51L42 51L42 50L43 50L43 48L45 48L45 47L47 47L47 46L46 46L46 45L47 45L47 44L48 44L48 45L50 45L50 46L51 46L51 47L49 47L49 48L48 48L48 51L47 51L47 50L46 50L46 49L47 49L47 48L46 48L46 49L44 49L44 50L46 50L46 51L45 51L45 52L46 52L46 51L47 51L47 52L48 52L48 53L47 53L47 56L50 56L50 55L51 55L51 57L52 57L52 56L53 56L53 57L56 57L56 56L55 56L55 53L54 53L54 52L57 52L57 51L55 51L55 50L57 50L57 48L56 48L56 46L57 46L57 45L56 45L56 43L55 43L55 42L57 42L57 41L55 41L55 39L57 39L57 36L56 36L56 37L55 37L55 39L54 39L54 36L55 36L55 34L57 34L57 33L56 33L56 32L57 32L57 31L56 31L56 30L57 30L57 29L56 29L56 26L57 26L57 25L56 25L56 24L55 24L55 23L56 23L56 22L57 22L57 20L56 20L56 18L57 18L57 15L56 15L56 14L57 14L57 13L56 13L56 12L57 12L57 11L56 11L56 8L55 8L55 11L54 11L54 10L53 10L53 11L52 11L52 12L53 12L53 11L54 11L54 12L55 12L55 13L53 13L53 14L55 14L55 15L54 15L54 16L53 16L53 15L52 15L52 16L50 16L50 15L51 15L51 14L52 14L52 13L51 13L51 12L50 12L50 13L51 13L51 14L49 14L49 13L47 13L47 14L46 14L46 12L45 12L45 11L42 11L42 10L44 10L44 9L43 9L43 8L45 8L45 9L46 9L46 8L45 8L45 6L46 6L46 7L47 7L47 8L49 8L49 9L47 9L47 10L46 10L46 11L47 11L47 12L49 12L49 10L50 10L50 11L51 11L51 10L52 10L52 8L51 8L51 10L50 10L50 8L49 8L49 6L48 6L48 7L47 7L47 5L48 5L48 0L45 0L45 1L47 1L47 2L39 2L39 1L44 1L44 0L39 0L39 1L36 1L36 0L35 0L35 1L33 1L33 2L30 2L30 1L32 1L32 0L30 0L30 1L29 1L29 0L27 0L27 1L25 1L25 0L23 0L23 2L21 2L21 1L22 1L22 0L21 0L21 1L20 1L20 0L19 0L19 1L18 1L18 2L19 2L19 1L20 1L20 2L21 2L21 4L22 4L22 7L21 7L21 6L20 6L20 5L18 5L18 4L20 4L20 3L18 3L18 4L16 4L16 2L17 2L17 1L15 1L15 0L14 0L14 1L15 1L15 2L13 2L13 1L10 1L10 0ZM9 1L9 2L10 2L10 1ZM24 1L24 2L25 2L25 1ZM27 1L27 3L28 3L28 4L29 4L29 3L28 3L28 2L29 2L29 1ZM11 2L11 3L13 3L13 2ZM35 2L35 3L34 3L34 4L33 4L33 3L32 3L32 4L31 4L31 3L30 3L30 4L31 4L31 7L32 7L32 6L33 6L33 8L32 8L32 9L31 9L31 10L30 10L30 12L31 12L31 11L34 11L34 12L35 12L35 11L36 11L36 12L37 12L37 11L38 11L38 10L39 10L39 9L40 9L40 10L41 10L41 9L42 9L42 5L41 5L41 4L43 4L43 7L44 7L44 6L45 6L45 5L44 5L44 4L46 4L46 5L47 5L47 3L40 3L40 4L38 4L38 5L36 5L36 3L37 3L37 2ZM38 2L38 3L39 3L39 2ZM14 3L14 4L15 4L15 5L16 5L16 4L15 4L15 3ZM22 3L22 4L24 4L24 5L23 5L23 7L22 7L22 8L21 8L21 7L20 7L20 6L19 6L19 7L18 7L18 6L17 6L17 7L18 7L18 8L21 8L21 9L20 9L20 10L22 10L22 11L21 11L21 12L22 12L22 13L19 13L19 10L18 10L18 9L17 9L17 8L16 8L16 6L15 6L15 8L13 8L13 9L12 9L12 11L11 11L11 12L10 12L10 14L11 14L11 13L14 13L14 15L13 15L13 14L12 14L12 16L14 16L14 18L15 18L15 14L17 14L17 15L16 15L16 16L18 16L18 15L20 15L20 16L19 16L19 17L16 17L16 18L17 18L17 20L15 20L15 21L12 21L12 23L11 23L11 20L10 20L10 22L9 22L9 23L3 23L3 22L2 22L2 21L3 21L3 20L1 20L1 22L2 22L2 24L1 24L1 25L2 25L2 26L4 26L4 25L3 25L3 24L7 24L7 25L6 25L6 26L7 26L7 25L8 25L8 26L9 26L9 27L10 27L10 26L9 26L9 25L8 25L8 24L9 24L9 23L10 23L10 24L12 24L12 23L13 23L13 25L11 25L11 27L12 27L12 28L11 28L11 29L12 29L12 30L14 30L14 31L15 31L15 33L16 33L16 34L17 34L17 35L16 35L16 37L15 37L15 38L16 38L16 37L18 37L18 36L17 36L17 35L18 35L18 34L17 34L17 33L16 33L16 31L18 31L18 30L17 30L17 29L18 29L18 28L17 28L17 27L18 27L18 26L19 26L19 28L20 28L20 26L21 26L21 27L22 27L22 25L24 25L24 23L23 23L23 22L24 22L24 21L23 21L23 16L24 16L24 15L23 15L23 16L21 16L21 15L22 15L22 14L24 14L24 13L25 13L25 16L28 16L28 17L25 17L25 18L24 18L24 20L25 20L25 22L26 22L26 23L25 23L25 24L26 24L26 25L25 25L25 26L26 26L26 25L29 25L29 24L27 24L27 23L29 23L29 22L30 22L30 23L31 23L31 25L32 25L32 26L37 26L37 25L35 25L35 24L36 24L36 22L37 22L37 23L38 23L38 22L39 22L39 21L38 21L38 20L40 20L40 21L41 21L41 20L40 20L40 19L42 19L42 21L43 21L43 24L42 24L42 22L40 22L40 23L39 23L39 25L38 25L38 27L37 27L37 28L38 28L38 29L37 29L37 30L35 30L35 29L33 29L33 28L34 28L34 27L33 27L33 28L32 28L32 27L31 27L31 28L32 28L32 30L31 30L31 31L32 31L32 30L35 30L35 31L33 31L33 32L30 32L30 31L28 31L28 32L30 32L30 33L27 33L27 31L26 31L26 32L25 32L25 34L26 34L26 35L27 35L27 36L28 36L28 37L29 37L29 36L30 36L30 38L31 38L31 39L29 39L29 40L28 40L28 39L27 39L27 41L26 41L26 42L30 42L30 41L32 41L32 42L31 42L31 43L28 43L28 44L32 44L32 45L30 45L30 46L32 46L32 47L33 47L33 46L35 46L35 47L34 47L34 48L31 48L31 49L34 49L34 50L31 50L31 52L32 52L32 54L35 54L35 55L36 55L36 54L37 54L37 56L38 56L38 55L39 55L39 53L38 53L38 54L37 54L37 53L36 53L36 52L40 52L40 51L38 51L38 50L42 50L42 49L41 49L41 48L40 48L40 47L36 47L36 46L42 46L42 47L45 47L45 46L42 46L42 45L43 45L43 44L44 44L44 45L45 45L45 43L46 43L46 42L48 42L48 43L49 43L49 41L51 41L51 42L50 42L50 43L51 43L51 42L53 42L53 43L52 43L52 44L50 44L50 45L52 45L52 46L54 46L54 45L55 45L55 46L56 46L56 45L55 45L55 44L54 44L54 45L52 45L52 44L53 44L53 43L54 43L54 40L53 40L53 41L51 41L51 40L52 40L52 39L53 39L53 37L52 37L52 39L51 39L51 37L50 37L50 38L49 38L49 39L48 39L48 38L47 38L47 37L49 37L49 36L50 36L50 35L51 35L51 36L52 36L52 34L53 34L53 35L54 35L54 34L53 34L53 33L51 33L51 34L50 34L50 31L48 31L48 30L47 30L47 29L48 29L48 26L47 26L47 25L50 25L50 26L53 26L53 27L55 27L55 26L56 26L56 25L55 25L55 24L54 24L54 22L55 22L55 21L56 21L56 20L54 20L54 22L53 22L53 20L52 20L52 21L51 21L51 19L52 19L52 17L53 17L53 18L54 18L54 17L55 17L55 18L56 18L56 17L55 17L55 16L56 16L56 15L55 15L55 16L54 16L54 17L53 17L53 16L52 16L52 17L50 17L50 18L49 18L49 19L50 19L50 22L49 22L49 23L50 23L50 24L44 24L44 21L45 21L45 22L46 22L46 23L47 23L47 21L46 21L46 20L47 20L47 19L48 19L48 18L47 18L47 16L48 16L48 17L49 17L49 15L46 15L46 16L39 16L39 15L41 15L41 14L42 14L42 15L44 15L44 14L45 14L45 12L43 12L43 14L42 14L42 11L41 11L41 12L40 12L40 11L39 11L39 12L38 12L38 13L37 13L37 14L36 14L36 16L35 16L35 15L34 15L34 16L32 16L32 15L31 15L31 16L30 16L30 13L29 13L29 12L28 12L28 13L25 13L25 12L27 12L27 11L26 11L26 10L27 10L27 9L26 9L26 6L25 6L25 4L26 4L26 3L25 3L25 4L24 4L24 3ZM27 5L27 8L30 8L30 5ZM33 5L33 6L34 6L34 8L35 8L35 10L38 10L38 8L40 8L40 7L41 7L41 6L40 6L40 5L39 5L39 6L38 6L38 8L37 8L37 6L36 6L36 5ZM24 6L24 7L23 7L23 8L24 8L24 7L25 7L25 6ZM28 6L28 7L29 7L29 6ZM35 6L35 8L36 8L36 6ZM39 6L39 7L40 7L40 6ZM15 8L15 9L13 9L13 10L15 10L15 11L16 11L16 10L15 10L15 9L16 9L16 8ZM53 8L53 9L54 9L54 8ZM4 9L4 10L3 10L3 11L6 11L6 12L1 12L1 14L2 14L2 15L3 15L3 16L2 16L2 17L3 17L3 18L4 18L4 17L5 17L5 16L7 16L7 17L6 17L6 18L5 18L5 19L4 19L4 20L7 20L7 21L4 21L4 22L7 22L7 21L9 21L9 20L8 20L8 19L9 19L9 18L10 18L10 19L13 19L13 20L14 20L14 19L13 19L13 17L12 17L12 18L10 18L10 17L9 17L9 16L10 16L10 15L8 15L8 16L7 16L7 15L6 15L6 14L7 14L7 13L6 13L6 12L9 12L9 11L8 11L8 10L11 10L11 9L6 9L6 10L5 10L5 9ZM23 9L23 11L24 11L24 10L25 10L25 9ZM32 9L32 10L33 10L33 9ZM6 10L6 11L7 11L7 10ZM17 10L17 11L18 11L18 10ZM28 10L28 11L29 11L29 10ZM13 11L13 12L14 12L14 11ZM16 12L16 13L18 13L18 14L19 14L19 13L18 13L18 12ZM23 12L23 13L24 13L24 12ZM32 12L32 13L33 13L33 14L35 14L35 13L33 13L33 12ZM39 12L39 13L40 13L40 14L41 14L41 13L40 13L40 12ZM4 13L4 14L3 14L3 15L5 15L5 13ZM8 13L8 14L9 14L9 13ZM28 13L28 14L27 14L27 15L29 15L29 13ZM55 13L55 14L56 14L56 13ZM20 14L20 15L21 15L21 14ZM37 14L37 15L39 15L39 14ZM3 16L3 17L4 17L4 16ZM20 16L20 17L21 17L21 19L19 19L19 18L18 18L18 19L19 19L19 20L17 20L17 21L19 21L19 22L20 22L20 23L17 23L17 24L16 24L16 23L15 23L15 24L16 24L16 25L15 25L15 26L14 26L14 27L15 27L15 26L16 26L16 25L19 25L19 26L20 26L20 25L22 25L22 23L21 23L21 21L22 21L22 22L23 22L23 21L22 21L22 20L21 20L21 19L22 19L22 17L21 17L21 16ZM31 16L31 17L29 17L29 18L31 18L31 19L28 19L28 18L26 18L26 19L25 19L25 20L26 20L26 21L27 21L27 22L28 22L28 21L27 21L27 20L29 20L29 21L30 21L30 22L31 22L31 23L32 23L32 24L35 24L35 23L33 23L33 21L35 21L35 20L33 20L33 19L32 19L32 16ZM36 16L36 17L35 17L35 18L34 18L34 17L33 17L33 18L34 18L34 19L35 19L35 18L36 18L36 19L40 19L40 18L36 18L36 17L37 17L37 16ZM7 17L7 18L6 18L6 19L7 19L7 18L8 18L8 17ZM41 17L41 18L43 18L43 20L46 20L46 19L47 19L47 18L45 18L45 17L44 17L44 18L43 18L43 17ZM44 18L44 19L45 19L45 18ZM26 19L26 20L27 20L27 19ZM19 20L19 21L21 21L21 20ZM30 20L30 21L31 21L31 20ZM32 20L32 21L33 21L33 20ZM36 20L36 21L37 21L37 22L38 22L38 21L37 21L37 20ZM15 21L15 22L16 22L16 21ZM50 22L50 23L51 23L51 24L50 24L50 25L51 25L51 24L53 24L53 23L51 23L51 22ZM40 23L40 24L41 24L41 23ZM19 24L19 25L20 25L20 24ZM43 24L43 25L40 25L40 26L43 26L43 25L44 25L44 24ZM54 25L54 26L55 26L55 25ZM23 26L23 27L24 27L24 26ZM45 26L45 27L42 27L42 28L45 28L45 30L46 30L46 31L47 31L47 32L45 32L45 31L44 31L44 32L43 32L43 31L42 31L42 30L44 30L44 29L42 29L42 30L41 30L41 29L40 29L40 30L37 30L37 31L40 31L40 32L38 32L38 33L39 33L39 34L34 34L34 32L33 32L33 34L32 34L32 33L31 33L31 34L32 34L32 35L30 35L30 34L29 34L29 35L30 35L30 36L31 36L31 38L32 38L32 35L33 35L33 34L34 34L34 35L37 35L37 36L36 36L36 37L35 37L35 36L34 36L34 37L35 37L35 38L33 38L33 39L31 39L31 40L33 40L33 42L32 42L32 43L33 43L33 44L34 44L34 43L36 43L36 44L35 44L35 46L36 46L36 45L39 45L39 44L37 44L37 42L38 42L38 43L39 43L39 42L38 42L38 41L39 41L39 40L41 40L41 39L39 39L39 38L40 38L40 36L41 36L41 38L43 38L43 37L44 37L44 38L45 38L45 37L44 37L44 32L45 32L45 34L46 34L46 35L45 35L45 36L49 36L49 35L48 35L48 33L47 33L47 32L48 32L48 31L47 31L47 30L46 30L46 29L47 29L47 28L46 28L46 27L47 27L47 26ZM3 27L3 28L4 28L4 27ZM5 27L5 30L8 30L8 27ZM25 27L25 28L23 28L23 29L22 29L22 28L21 28L21 29L19 29L19 30L20 30L20 31L21 31L21 29L22 29L22 30L23 30L23 29L25 29L25 30L26 30L26 27ZM27 27L27 30L30 30L30 27ZM35 27L35 28L36 28L36 27ZM39 27L39 28L41 28L41 27ZM49 27L49 30L52 30L52 27ZM6 28L6 29L7 29L7 28ZM9 28L9 30L10 30L10 31L6 31L6 32L4 32L4 33L6 33L6 34L5 34L5 35L6 35L6 36L11 36L11 37L8 37L8 38L9 38L9 39L12 39L12 36L13 36L13 34L14 34L14 33L13 33L13 32L11 32L11 33L8 33L8 32L10 32L10 31L11 31L11 30L10 30L10 28ZM12 28L12 29L13 29L13 28ZM15 28L15 29L14 29L14 30L15 30L15 31L16 31L16 29L17 29L17 28ZM28 28L28 29L29 29L29 28ZM50 28L50 29L51 29L51 28ZM54 28L54 29L53 29L53 31L51 31L51 32L54 32L54 33L55 33L55 32L54 32L54 31L55 31L55 30L56 30L56 29L55 29L55 28ZM54 29L54 30L55 30L55 29ZM0 30L0 31L1 31L1 30ZM40 30L40 31L41 31L41 30ZM35 31L35 32L36 32L36 33L37 33L37 32L36 32L36 31ZM6 32L6 33L7 33L7 34L6 34L6 35L7 35L7 34L8 34L8 35L9 35L9 34L8 34L8 33L7 33L7 32ZM40 32L40 35L38 35L38 38L39 38L39 36L40 36L40 35L41 35L41 34L42 34L42 35L43 35L43 34L42 34L42 33L43 33L43 32ZM12 33L12 34L13 34L13 33ZM46 33L46 34L47 34L47 33ZM10 34L10 35L11 35L11 36L12 36L12 35L11 35L11 34ZM14 35L14 36L15 36L15 35ZM42 36L42 37L43 37L43 36ZM13 37L13 40L12 40L12 42L11 42L11 47L12 47L12 48L10 48L10 46L8 46L8 44L9 44L9 45L10 45L10 44L9 44L9 43L10 43L10 40L9 40L9 41L8 41L8 39L6 39L6 40L5 40L5 38L1 38L1 39L2 39L2 41L1 41L1 43L2 43L2 44L1 44L1 47L2 47L2 46L3 46L3 47L5 47L5 46L8 46L8 47L9 47L9 48L8 48L8 49L9 49L9 48L10 48L10 49L12 49L12 50L11 50L11 53L10 53L10 52L9 52L9 53L10 53L10 54L12 54L12 52L13 52L13 53L14 53L14 52L15 52L15 49L12 49L12 48L13 48L13 47L14 47L14 48L15 48L15 45L14 45L14 46L13 46L13 47L12 47L12 45L13 45L13 44L12 44L12 43L14 43L14 44L15 44L15 43L14 43L14 42L13 42L13 40L14 40L14 37ZM15 39L15 42L18 42L18 41L17 41L17 40L16 40L16 39ZM35 39L35 40L34 40L34 42L33 42L33 43L34 43L34 42L36 42L36 41L35 41L35 40L37 40L37 41L38 41L38 40L39 40L39 39ZM43 39L43 40L45 40L45 41L41 41L41 43L40 43L40 44L43 44L43 43L44 43L44 42L46 42L46 40L47 40L47 39ZM49 39L49 40L51 40L51 39ZM3 40L3 41L2 41L2 43L3 43L3 44L4 44L4 46L5 46L5 44L4 44L4 42L5 42L5 43L7 43L7 42L5 42L5 41L4 41L4 40ZM6 40L6 41L7 41L7 40ZM3 41L3 42L4 42L4 41ZM20 41L20 42L21 42L21 41ZM8 42L8 43L9 43L9 42ZM42 42L42 43L43 43L43 42ZM6 44L6 45L7 45L7 44ZM16 45L16 46L17 46L17 47L16 47L16 48L17 48L17 47L18 47L18 45ZM32 45L32 46L33 46L33 45ZM20 46L20 47L21 47L21 46ZM35 47L35 48L34 48L34 49L35 49L35 48L36 48L36 49L37 49L37 50L34 50L34 51L35 51L35 52L36 52L36 51L37 51L37 50L38 50L38 49L40 49L40 48L38 48L38 49L37 49L37 48L36 48L36 47ZM51 47L51 48L54 48L54 49L56 49L56 48L54 48L54 47ZM20 48L20 49L21 49L21 48ZM27 49L27 52L30 52L30 49ZM49 49L49 52L52 52L52 49ZM28 50L28 51L29 51L29 50ZM50 50L50 51L51 51L51 50ZM13 51L13 52L14 52L14 51ZM19 51L19 53L21 53L21 54L22 54L22 53L23 53L23 54L24 54L24 53L23 53L23 52L22 52L22 53L21 53L21 51ZM32 51L32 52L33 52L33 53L34 53L34 52L33 52L33 51ZM42 52L42 53L43 53L43 52ZM29 53L29 54L30 54L30 53ZM49 53L49 55L50 55L50 54L51 54L51 55L54 55L54 54L51 54L51 53ZM19 54L19 55L20 55L20 54ZM9 55L9 56L11 56L11 55ZM23 55L23 56L24 56L24 55ZM27 55L27 56L28 56L28 55ZM43 56L43 57L44 57L44 56ZM0 0L0 7L7 7L7 0ZM1 1L1 6L6 6L6 1ZM2 2L2 5L5 5L5 2ZM50 0L50 7L57 7L57 0ZM51 1L51 6L56 6L56 1ZM52 2L52 5L55 5L55 2ZM0 50L0 57L7 57L7 50ZM1 51L1 56L6 56L6 51ZM2 52L2 55L5 55L5 52Z" fill="#000000"/></g></g></svg>
