<?xml version="1.0" encoding="UTF-8"?>
<svg xmlns="http://www.w3.org/2000/svg" version="1.1" width="300" height="300" viewBox="0 0 300 300"><rect x="0" y="0" width="300" height="300" fill="#ffffff"/><g transform="scale(4.918)"><g transform="translate(2,2)"><path fill-rule="evenodd" d="M9 0L9 1L8 1L8 2L9 2L9 3L8 3L8 4L9 4L9 5L8 5L8 7L9 7L9 8L6 8L6 9L5 9L5 8L0 8L0 11L1 11L1 9L5 9L5 10L2 10L2 12L1 12L1 14L2 14L2 15L1 15L1 16L0 16L0 18L1 18L1 19L0 19L0 22L2 22L2 21L3 21L3 23L2 23L2 24L1 24L1 23L0 23L0 29L1 29L1 27L2 27L2 30L0 30L0 31L1 31L1 32L0 32L0 36L1 36L1 37L0 37L0 38L2 38L2 39L3 39L3 38L5 38L5 39L4 39L4 40L3 40L3 41L1 41L1 42L2 42L2 45L3 45L3 46L2 46L2 47L1 47L1 46L0 46L0 48L5 48L5 47L7 47L7 48L6 48L6 49L8 49L8 51L9 51L9 52L8 52L8 57L9 57L9 53L10 53L10 55L12 55L12 54L11 54L11 53L13 53L13 54L14 54L14 56L10 56L10 57L16 57L16 55L15 55L15 54L16 54L16 53L15 53L15 52L18 52L18 53L19 53L19 54L17 54L17 57L20 57L20 56L21 56L21 54L23 54L23 55L22 55L22 56L23 56L23 57L24 57L24 56L28 56L28 55L27 55L27 53L28 53L28 54L29 54L29 55L30 55L30 57L31 57L31 56L33 56L33 57L35 57L35 56L36 56L36 57L37 57L37 56L38 56L38 57L40 57L40 56L42 56L42 57L44 57L44 55L42 55L42 54L43 54L43 53L44 53L44 54L45 54L45 55L46 55L46 56L45 56L45 57L47 57L47 56L48 56L48 57L49 57L49 56L50 56L50 55L51 55L51 57L52 57L52 56L53 56L53 57L54 57L54 56L55 56L55 57L56 57L56 56L55 56L55 55L54 55L54 54L55 54L55 53L56 53L56 52L57 52L57 51L56 51L56 50L57 50L57 48L56 48L56 46L57 46L57 45L56 45L56 46L54 46L54 47L53 47L53 46L52 46L52 45L54 45L54 44L55 44L55 43L56 43L56 42L57 42L57 41L56 41L56 42L55 42L55 41L54 41L54 43L53 43L53 42L51 42L51 41L53 41L53 40L55 40L55 39L57 39L57 37L56 37L56 36L55 36L55 35L56 35L56 34L57 34L57 33L56 33L56 32L57 32L57 31L56 31L56 30L57 30L57 28L56 28L56 30L54 30L54 32L51 32L51 31L53 31L53 29L54 29L54 28L55 28L55 27L56 27L56 24L57 24L57 23L56 23L56 22L57 22L57 21L56 21L56 20L55 20L55 18L57 18L57 15L56 15L56 14L57 14L57 13L56 13L56 12L57 12L57 11L56 11L56 8L55 8L55 11L54 11L54 10L53 10L53 9L54 9L54 8L53 8L53 9L52 9L52 8L51 8L51 10L49 10L49 9L50 9L50 8L49 8L49 6L48 6L48 7L47 7L47 5L48 5L48 0L42 0L42 1L41 1L41 2L39 2L39 1L36 1L36 2L37 2L37 3L36 3L36 5L33 5L33 6L32 6L32 7L31 7L31 4L32 4L32 3L33 3L33 2L32 2L32 1L34 1L34 4L35 4L35 1L34 1L34 0L32 0L32 1L31 1L31 0L30 0L30 1L29 1L29 0L28 0L28 1L26 1L26 0L23 0L23 3L24 3L24 4L21 4L21 5L24 5L24 4L25 4L25 6L24 6L24 7L23 7L23 6L22 6L22 8L24 8L24 7L25 7L25 6L26 6L26 9L29 9L29 10L32 10L32 11L33 11L33 13L32 13L32 12L30 12L30 11L27 11L27 10L26 10L26 11L27 11L27 12L25 12L25 13L23 13L23 14L22 14L22 15L21 15L21 16L20 16L20 15L18 15L18 16L16 16L16 15L17 15L17 14L14 14L14 13L13 13L13 14L14 14L14 16L13 16L13 15L11 15L11 14L10 14L10 13L9 13L9 12L8 12L8 14L6 14L6 15L5 15L5 14L4 14L4 13L2 13L2 12L3 12L3 11L4 11L4 12L5 12L5 13L7 13L7 12L6 12L6 11L8 11L8 9L9 9L9 11L10 11L10 12L11 12L11 13L12 13L12 11L13 11L13 12L14 12L14 11L13 11L13 10L10 10L10 9L9 9L9 8L10 8L10 7L11 7L11 6L12 6L12 7L13 7L13 8L12 8L12 9L14 9L14 10L15 10L15 9L16 9L16 8L17 8L17 9L18 9L18 10L16 10L16 13L18 13L18 14L19 14L19 13L22 13L22 12L20 12L20 11L22 11L22 9L21 9L21 8L19 8L19 6L20 6L20 7L21 7L21 6L20 6L20 5L18 5L18 4L20 4L20 3L18 3L18 2L19 2L19 1L20 1L20 2L21 2L21 3L22 3L22 2L21 2L21 1L22 1L22 0L21 0L21 1L20 1L20 0L19 0L19 1L18 1L18 2L17 2L17 1L16 1L16 0L13 0L13 1L12 1L12 0ZM11 1L11 2L12 2L12 1ZM13 1L13 2L15 2L15 1ZM24 1L24 2L25 2L25 1ZM30 1L30 2L29 2L29 3L28 3L28 2L27 2L27 3L28 3L28 4L29 4L29 3L30 3L30 4L31 4L31 3L30 3L30 2L31 2L31 1ZM42 1L42 2L43 2L43 1ZM44 1L44 2L47 2L47 1ZM16 2L16 4L15 4L15 3L14 3L14 4L12 4L12 3L11 3L11 4L10 4L10 3L9 3L9 4L10 4L10 5L11 5L11 4L12 4L12 5L14 5L14 4L15 4L15 5L16 5L16 4L18 4L18 3L17 3L17 2ZM38 2L38 3L39 3L39 2ZM25 3L25 4L26 4L26 3ZM40 3L40 4L38 4L38 5L36 5L36 6L35 6L35 7L34 7L34 6L33 6L33 8L31 8L31 9L32 9L32 10L34 10L34 12L36 12L36 11L39 11L39 12L38 12L38 14L37 14L37 13L36 13L36 14L35 14L35 13L33 13L33 14L32 14L32 13L31 13L31 14L30 14L30 13L29 13L29 12L28 12L28 13L25 13L25 14L24 14L24 15L25 15L25 16L28 16L28 17L26 17L26 18L24 18L24 20L25 20L25 19L26 19L26 21L25 21L25 22L26 22L26 23L25 23L25 24L26 24L26 25L25 25L25 26L24 26L24 27L23 27L23 28L24 28L24 29L22 29L22 28L21 28L21 29L20 29L20 28L19 28L19 29L20 29L20 30L19 30L19 31L20 31L20 32L19 32L19 33L18 33L18 34L17 34L17 33L16 33L16 31L18 31L18 30L17 30L17 29L18 29L18 28L17 28L17 29L16 29L16 31L15 31L15 33L13 33L13 32L14 32L14 31L12 31L12 30L14 30L14 27L15 27L15 28L16 28L16 27L18 27L18 26L19 26L19 25L16 25L16 27L15 27L15 25L14 25L14 26L13 26L13 24L14 24L14 23L16 23L16 24L17 24L17 23L18 23L18 22L19 22L19 23L20 23L20 22L19 22L19 21L21 21L21 23L22 23L22 24L21 24L21 25L20 25L20 26L21 26L21 27L22 27L22 26L23 26L23 25L24 25L24 23L22 23L22 21L23 21L23 22L24 22L24 21L23 21L23 16L21 16L21 17L20 17L20 16L19 16L19 17L16 17L16 18L19 18L19 19L17 19L17 20L15 20L15 21L13 21L13 22L12 22L12 21L11 21L11 23L8 23L8 22L7 22L7 21L6 21L6 22L5 22L5 21L4 21L4 23L5 23L5 25L4 25L4 26L5 26L5 25L6 25L6 26L7 26L7 25L6 25L6 24L7 24L7 23L8 23L8 26L9 26L9 28L10 28L10 29L11 29L11 30L10 30L10 31L11 31L11 32L12 32L12 33L10 33L10 36L9 36L9 37L11 37L11 36L12 36L12 35L15 35L15 33L16 33L16 34L17 34L17 35L16 35L16 37L14 37L14 36L13 36L13 37L12 37L12 38L11 38L11 39L9 39L9 38L8 38L8 35L6 35L6 34L7 34L7 33L9 33L9 31L8 31L8 32L7 32L7 31L4 31L4 29L3 29L3 31L2 31L2 32L1 32L1 33L4 33L4 34L1 34L1 36L2 36L2 35L4 35L4 34L5 34L5 35L6 35L6 36L5 36L5 38L7 38L7 39L6 39L6 40L5 40L5 41L4 41L4 43L3 43L3 45L6 45L6 46L7 46L7 45L9 45L9 44L10 44L10 45L12 45L12 46L10 46L10 47L11 47L11 48L10 48L10 49L9 49L9 47L8 47L8 49L9 49L9 50L10 50L10 49L12 49L12 50L13 50L13 53L14 53L14 52L15 52L15 51L14 51L14 50L15 50L15 49L14 49L14 50L13 50L13 49L12 49L12 47L14 47L14 45L12 45L12 44L15 44L15 43L16 43L16 44L18 44L18 45L16 45L16 46L17 46L17 47L16 47L16 48L17 48L17 47L18 47L18 48L19 48L19 49L16 49L16 51L17 51L17 50L22 50L22 51L23 51L23 52L21 52L21 51L19 51L19 53L23 53L23 54L24 54L24 53L23 53L23 52L24 52L24 51L25 51L25 53L26 53L26 51L25 51L25 50L26 50L26 49L25 49L25 50L23 50L23 48L24 48L24 46L23 46L23 45L25 45L25 48L27 48L27 47L28 47L28 48L29 48L29 47L28 47L28 46L30 46L30 45L31 45L31 43L30 43L30 42L29 42L29 40L31 40L31 42L32 42L32 43L34 43L34 44L32 44L32 46L31 46L31 47L30 47L30 48L31 48L31 50L32 50L32 51L31 51L31 52L32 52L32 54L33 54L33 55L34 55L34 56L35 56L35 55L36 55L36 56L37 56L37 55L38 55L38 56L40 56L40 55L41 55L41 52L40 52L40 51L41 51L41 50L42 50L42 53L43 53L43 51L44 51L44 53L45 53L45 54L46 54L46 55L47 55L47 54L49 54L49 55L50 55L50 54L51 54L51 55L53 55L53 56L54 56L54 55L53 55L53 54L51 54L51 53L48 53L48 52L47 52L47 51L48 51L48 48L49 48L49 47L51 47L51 48L53 48L53 49L55 49L55 50L56 50L56 48L53 48L53 47L51 47L51 45L52 45L52 44L53 44L53 43L52 43L52 44L50 44L50 45L49 45L49 46L48 46L48 44L49 44L49 43L48 43L48 44L47 44L47 45L46 45L46 46L47 46L47 47L46 47L46 48L47 48L47 49L46 49L46 50L45 50L45 48L44 48L44 46L45 46L45 44L44 44L44 42L49 42L49 41L51 41L51 38L52 38L52 39L54 39L54 38L55 38L55 36L54 36L54 38L53 38L53 37L51 37L51 36L52 36L52 34L53 34L53 35L54 35L54 34L53 34L53 33L51 33L51 34L50 34L50 31L48 31L48 28L47 28L47 27L48 27L48 26L47 26L47 25L50 25L50 26L52 26L52 25L53 25L53 27L55 27L55 26L54 26L54 25L55 25L55 24L56 24L56 23L55 23L55 22L54 22L54 23L55 23L55 24L52 24L52 23L53 23L53 20L52 20L52 21L51 21L51 19L52 19L52 18L51 18L51 17L53 17L53 18L54 18L54 17L55 17L55 16L56 16L56 15L55 15L55 16L54 16L54 13L55 13L55 14L56 14L56 13L55 13L55 12L56 12L56 11L55 11L55 12L54 12L54 11L53 11L53 10L51 10L51 11L49 11L49 12L47 12L47 11L48 11L48 9L49 9L49 8L48 8L48 9L47 9L47 7L46 7L46 6L45 6L45 5L44 5L44 4L46 4L46 5L47 5L47 3L42 3L42 4L43 4L43 7L44 7L44 6L45 6L45 7L46 7L46 8L42 8L42 9L45 9L45 11L43 11L43 10L40 10L40 9L41 9L41 8L38 8L38 6L39 6L39 7L40 7L40 6L41 6L41 7L42 7L42 5L41 5L41 3ZM17 5L17 8L18 8L18 5ZM27 5L27 8L30 8L30 5ZM39 5L39 6L40 6L40 5ZM9 6L9 7L10 7L10 6ZM13 6L13 7L14 7L14 6ZM15 6L15 8L14 8L14 9L15 9L15 8L16 8L16 6ZM28 6L28 7L29 7L29 6ZM36 6L36 7L35 7L35 8L33 8L33 9L37 9L37 10L38 10L38 9L37 9L37 6ZM6 9L6 10L5 10L5 11L6 11L6 10L7 10L7 9ZM20 9L20 10L18 10L18 11L17 11L17 12L18 12L18 13L19 13L19 11L20 11L20 10L21 10L21 9ZM23 9L23 10L24 10L24 11L23 11L23 12L24 12L24 11L25 11L25 9ZM35 10L35 11L36 11L36 10ZM46 10L46 11L47 11L47 10ZM40 11L40 12L39 12L39 15L40 15L40 16L39 16L39 17L40 17L40 16L42 16L42 18L41 18L41 19L40 19L40 20L39 20L39 23L38 23L38 19L39 19L39 18L37 18L37 17L38 17L38 16L36 16L36 15L37 15L37 14L36 14L36 15L35 15L35 14L33 14L33 15L32 15L32 16L31 16L31 15L30 15L30 16L31 16L31 17L29 17L29 18L31 18L31 17L32 17L32 16L34 16L34 15L35 15L35 16L36 16L36 17L35 17L35 18L34 18L34 17L33 17L33 18L32 18L32 19L28 19L28 18L27 18L27 24L29 24L29 26L28 26L28 25L26 25L26 26L25 26L25 27L24 27L24 28L25 28L25 27L26 27L26 30L25 30L25 29L24 29L24 30L22 30L22 29L21 29L21 30L20 30L20 31L23 31L23 32L24 32L24 33L23 33L23 34L25 34L25 35L24 35L24 37L21 37L21 39L22 39L22 38L24 38L24 37L25 37L25 36L26 36L26 37L28 37L28 38L27 38L27 39L28 39L28 40L29 40L29 39L31 39L31 40L33 40L33 41L32 41L32 42L34 42L34 43L35 43L35 46L33 46L33 47L31 47L31 48L33 48L33 49L32 49L32 50L33 50L33 51L32 51L32 52L33 52L33 53L35 53L35 54L36 54L36 55L37 55L37 54L38 54L38 55L40 55L40 52L39 52L39 51L40 51L40 50L37 50L37 48L38 48L38 47L37 47L37 48L36 48L36 47L35 47L35 46L36 46L36 45L37 45L37 46L38 46L38 44L36 44L36 43L37 43L37 42L38 42L38 43L39 43L39 44L40 44L40 43L39 43L39 42L41 42L41 44L43 44L43 45L42 45L42 46L41 46L41 47L40 47L40 45L39 45L39 47L40 47L40 48L39 48L39 49L40 49L40 48L41 48L41 49L42 49L42 50L44 50L44 51L45 51L45 50L44 50L44 48L43 48L43 47L42 47L42 46L43 46L43 45L44 45L44 44L43 44L43 43L42 43L42 42L43 42L43 41L44 41L44 39L39 39L39 38L40 38L40 36L43 36L43 37L41 37L41 38L43 38L43 37L44 37L44 38L45 38L45 40L47 40L47 39L46 39L46 38L45 38L45 37L44 37L44 34L46 34L46 35L45 35L45 36L48 36L48 37L49 37L49 35L48 35L48 33L47 33L47 34L46 34L46 33L44 33L44 34L43 34L43 33L42 33L42 32L46 32L46 31L47 31L47 32L48 32L48 31L47 31L47 30L46 30L46 29L47 29L47 28L46 28L46 26L43 26L43 21L42 21L42 20L46 20L46 21L47 21L47 23L46 23L46 22L45 22L45 21L44 21L44 24L45 24L45 25L46 25L46 24L49 24L49 22L50 22L50 24L51 24L51 25L52 25L52 24L51 24L51 22L50 22L50 19L51 19L51 18L50 18L50 17L51 17L51 16L52 16L52 15L51 15L51 14L52 14L52 13L51 13L51 12L50 12L50 13L51 13L51 14L49 14L49 13L47 13L47 14L46 14L46 12L45 12L45 13L44 13L44 12L43 12L43 11L42 11L42 14L41 14L41 15L40 15L40 12L41 12L41 11ZM52 11L52 12L53 12L53 11ZM28 13L28 14L27 14L27 15L29 15L29 13ZM43 13L43 14L42 14L42 15L45 15L45 14L44 14L44 13ZM3 14L3 15L4 15L4 16L1 16L1 18L2 18L2 19L1 19L1 21L2 21L2 20L3 20L3 19L4 19L4 18L5 18L5 17L6 17L6 18L7 18L7 19L5 19L5 20L8 20L8 19L9 19L9 17L12 17L12 18L10 18L10 19L11 19L11 20L12 20L12 19L13 19L13 20L14 20L14 19L13 19L13 16L10 16L10 14L9 14L9 17L8 17L8 15L6 15L6 16L5 16L5 15L4 15L4 14ZM25 14L25 15L26 15L26 14ZM46 15L46 16L43 16L43 17L44 17L44 19L45 19L45 18L47 18L47 19L46 19L46 20L47 20L47 19L49 19L49 18L47 18L47 16L51 16L51 15ZM6 16L6 17L7 17L7 18L8 18L8 17L7 17L7 16ZM14 16L14 17L15 17L15 16ZM53 16L53 17L54 17L54 16ZM2 17L2 18L4 18L4 17ZM21 17L21 18L22 18L22 17ZM33 18L33 20L32 20L32 21L33 21L33 22L34 22L34 23L32 23L32 27L31 27L31 28L32 28L32 29L31 29L31 30L32 30L32 31L33 31L33 30L35 30L35 31L34 31L34 34L32 34L32 33L33 33L33 32L31 32L31 33L30 33L30 31L28 31L28 32L29 32L29 33L27 33L27 35L26 35L26 36L28 36L28 37L29 37L29 34L32 34L32 38L31 38L31 35L30 35L30 38L31 38L31 39L33 39L33 38L34 38L34 39L35 39L35 40L37 40L37 39L38 39L38 38L39 38L39 36L40 36L40 35L41 35L41 34L42 34L42 35L43 35L43 34L42 34L42 33L41 33L41 32L40 32L40 31L41 31L41 30L42 30L42 31L43 31L43 30L44 30L44 29L45 29L45 28L44 28L44 27L43 27L43 26L41 26L41 28L40 28L40 27L39 27L39 26L40 26L40 25L42 25L42 24L40 24L40 23L41 23L41 22L40 22L40 23L39 23L39 24L37 24L37 25L36 25L36 26L35 26L35 25L34 25L34 24L36 24L36 22L37 22L37 21L36 21L36 20L37 20L37 19L34 19L34 18ZM42 18L42 19L41 19L41 20L40 20L40 21L41 21L41 20L42 20L42 19L43 19L43 18ZM19 19L19 20L18 20L18 21L17 21L17 22L18 22L18 21L19 21L19 20L21 20L21 21L22 21L22 19ZM28 20L28 23L29 23L29 24L31 24L31 22L30 22L30 21L31 21L31 20ZM33 20L33 21L35 21L35 20ZM54 20L54 21L55 21L55 20ZM15 21L15 22L16 22L16 21ZM6 22L6 23L7 23L7 22ZM13 22L13 23L14 23L14 22ZM29 22L29 23L30 23L30 22ZM2 24L2 25L1 25L1 26L3 26L3 24ZM9 24L9 26L10 26L10 27L11 27L11 26L12 26L12 27L13 27L13 26L12 26L12 24ZM39 24L39 25L40 25L40 24ZM10 25L10 26L11 26L11 25ZM37 25L37 26L38 26L38 25ZM5 27L5 30L8 30L8 27ZM27 27L27 30L30 30L30 27ZM34 27L34 28L33 28L33 29L32 29L32 30L33 30L33 29L35 29L35 30L36 30L36 31L35 31L35 32L36 32L36 33L35 33L35 34L34 34L34 35L33 35L33 37L35 37L35 35L37 35L37 36L36 36L36 37L37 37L37 36L39 36L39 35L40 35L40 32L39 32L39 34L36 34L36 33L37 33L37 32L38 32L38 31L37 31L37 30L38 30L38 29L40 29L40 28L35 28L35 27ZM42 27L42 28L43 28L43 29L42 29L42 30L43 30L43 29L44 29L44 28L43 28L43 27ZM49 27L49 30L52 30L52 27ZM6 28L6 29L7 29L7 28ZM12 28L12 29L13 29L13 28ZM28 28L28 29L29 29L29 28ZM50 28L50 29L51 29L51 28ZM36 29L36 30L37 30L37 29ZM39 30L39 31L40 31L40 30ZM45 30L45 31L46 31L46 30ZM25 31L25 34L26 34L26 32L27 32L27 31ZM36 31L36 32L37 32L37 31ZM4 32L4 33L7 33L7 32ZM20 32L20 33L21 33L21 34L20 34L20 35L22 35L22 33L21 33L21 32ZM54 32L54 33L55 33L55 34L56 34L56 33L55 33L55 32ZM11 34L11 35L12 35L12 34ZM18 34L18 35L17 35L17 36L18 36L18 37L16 37L16 38L15 38L15 39L16 39L16 40L17 40L17 41L18 41L18 42L17 42L17 43L18 43L18 42L20 42L20 45L18 45L18 47L19 47L19 48L20 48L20 49L21 49L21 48L20 48L20 47L19 47L19 46L20 46L20 45L22 45L22 44L21 44L21 43L22 43L22 42L24 42L24 44L25 44L25 45L26 45L26 44L25 44L25 42L26 42L26 43L27 43L27 44L28 44L28 45L27 45L27 46L26 46L26 47L27 47L27 46L28 46L28 45L29 45L29 44L30 44L30 43L29 43L29 44L28 44L28 42L26 42L26 41L27 41L27 40L26 40L26 38L25 38L25 41L24 41L24 39L23 39L23 41L21 41L21 42L20 42L20 41L19 41L19 39L20 39L20 38L19 38L19 39L17 39L17 38L18 38L18 37L20 37L20 36L19 36L19 34ZM50 35L50 36L51 36L51 35ZM6 36L6 37L7 37L7 36ZM2 37L2 38L3 38L3 37ZM50 37L50 38L48 38L48 39L50 39L50 38L51 38L51 37ZM13 38L13 39L11 39L11 40L8 40L8 39L7 39L7 40L6 40L6 41L5 41L5 42L6 42L6 43L7 43L7 44L6 44L6 45L7 45L7 44L8 44L8 43L7 43L7 42L8 42L8 41L9 41L9 42L11 42L11 43L14 43L14 42L15 42L15 40L13 40L13 39L14 39L14 38ZM36 38L36 39L37 39L37 38ZM0 39L0 40L1 40L1 39ZM11 40L11 41L12 41L12 40ZM38 40L38 42L39 42L39 40ZM40 40L40 41L41 41L41 40ZM42 40L42 41L43 41L43 40ZM6 41L6 42L7 42L7 41ZM13 41L13 42L14 42L14 41ZM34 41L34 42L35 42L35 43L36 43L36 41ZM50 42L50 43L51 43L51 42ZM3 46L3 47L5 47L5 46ZM33 47L33 48L35 48L35 49L33 49L33 50L35 50L35 51L36 51L36 52L35 52L35 53L36 53L36 52L37 52L37 50L35 50L35 49L36 49L36 48L35 48L35 47ZM41 47L41 48L42 48L42 47ZM27 49L27 52L30 52L30 49ZM49 49L49 52L52 52L52 49ZM28 50L28 51L29 51L29 50ZM46 50L46 51L47 51L47 50ZM50 50L50 51L51 51L51 50ZM10 51L10 52L11 52L11 51ZM33 51L33 52L34 52L34 51ZM46 52L46 53L47 53L47 52ZM54 52L54 53L55 53L55 52ZM30 53L30 54L31 54L31 53ZM38 53L38 54L39 54L39 53ZM19 54L19 55L20 55L20 54ZM23 55L23 56L24 56L24 55ZM0 0L0 7L7 7L7 0ZM1 1L1 6L6 6L6 1ZM2 2L2 5L5 5L5 2ZM50 0L50 7L57 7L57 0ZM51 1L51 6L56 6L56 1ZM52 2L52 5L55 5L55 2ZM0 50L0 57L7 57L7 50ZM1 51L1 56L6 56L6 51ZM2 52L2 55L5 55L5 52Z" fill="#000000"/></g></g></svg>
