<?xml version="1.0" encoding="UTF-8"?>
<svg xmlns="http://www.w3.org/2000/svg" version="1.1" width="300" height="300" viewBox="0 0 300 300"><rect x="0" y="0" width="300" height="300" fill="#ffffff"/><g transform="scale(4.918)"><g transform="translate(2,2)"><path fill-rule="evenodd" d="M9 0L9 1L8 1L8 2L9 2L9 1L10 1L10 3L8 3L8 4L9 4L9 5L8 5L8 7L9 7L9 8L6 8L6 9L7 9L7 10L6 10L6 11L7 11L7 12L6 12L6 13L7 13L7 14L5 14L5 15L4 15L4 16L1 16L1 17L0 17L0 18L1 18L1 19L0 19L0 20L1 20L1 19L2 19L2 18L1 18L1 17L3 17L3 18L5 18L5 19L4 19L4 20L5 20L5 21L4 21L4 24L3 24L3 21L1 21L1 22L0 22L0 28L1 28L1 27L2 27L2 28L4 28L4 34L3 34L3 32L2 32L2 31L3 31L3 29L1 29L1 30L0 30L0 32L2 32L2 33L0 33L0 34L1 34L1 35L0 35L0 37L1 37L1 38L0 38L0 40L1 40L1 41L0 41L0 42L1 42L1 41L2 41L2 43L0 43L0 45L2 45L2 47L1 47L1 46L0 46L0 48L5 48L5 47L7 47L7 46L6 46L6 45L9 45L9 43L11 43L11 44L10 44L10 48L9 48L9 49L8 49L8 51L11 51L11 52L8 52L8 57L11 57L11 56L13 56L13 55L14 55L14 57L16 57L16 55L14 55L14 53L13 53L13 52L12 52L12 51L11 51L11 50L13 50L13 49L11 49L11 47L12 47L12 48L14 48L14 50L15 50L15 51L14 51L14 52L15 52L15 51L17 51L17 53L19 53L19 54L17 54L17 57L19 57L19 56L23 56L23 55L24 55L24 56L25 56L25 57L26 57L26 56L25 56L25 55L26 55L26 54L27 54L27 53L28 53L28 54L29 54L29 55L30 55L30 56L29 56L29 57L31 57L31 55L34 55L34 56L35 56L35 57L39 57L39 56L41 56L41 55L42 55L42 54L43 54L43 53L44 53L44 54L45 54L45 55L43 55L43 56L42 56L42 57L43 57L43 56L45 56L45 57L47 57L47 56L45 56L45 55L47 55L47 54L48 54L48 55L49 55L49 56L50 56L50 55L51 55L51 57L52 57L52 56L54 56L54 57L56 57L56 56L55 56L55 54L54 54L54 53L53 53L53 48L55 48L55 50L57 50L57 49L56 49L56 48L55 48L55 47L56 47L56 46L57 46L57 45L54 45L54 44L55 44L55 43L56 43L56 44L57 44L57 43L56 43L56 42L55 42L55 41L54 41L54 43L53 43L53 42L51 42L51 41L52 41L52 40L51 40L51 39L50 39L50 38L51 38L51 37L54 37L54 36L55 36L55 35L54 35L54 36L53 36L53 34L52 34L52 36L51 36L51 37L50 37L50 36L49 36L49 38L48 38L48 37L47 37L47 38L48 38L48 39L49 39L49 40L51 40L51 41L48 41L48 42L47 42L47 43L46 43L46 42L45 42L45 43L44 43L44 40L46 40L46 41L47 41L47 40L46 40L46 39L43 39L43 41L42 41L42 40L41 40L41 39L42 39L42 38L43 38L43 37L44 37L44 38L45 38L45 37L44 37L44 35L43 35L43 37L42 37L42 36L41 36L41 35L42 35L42 34L44 34L44 33L43 33L43 32L45 32L45 33L46 33L46 31L47 31L47 32L48 32L48 31L49 31L49 35L50 35L50 32L51 32L51 33L54 33L54 34L57 34L57 33L56 33L56 30L57 30L57 29L56 29L56 26L57 26L57 25L56 25L56 26L55 26L55 25L54 25L54 26L55 26L55 27L53 27L53 26L52 26L52 25L51 25L51 26L49 26L49 25L47 25L47 26L46 26L46 25L45 25L45 26L44 26L44 24L47 24L47 23L48 23L48 24L50 24L50 23L51 23L51 24L55 24L55 23L56 23L56 22L57 22L57 21L53 21L53 22L52 22L52 23L51 23L51 22L50 22L50 19L49 19L49 18L50 18L50 17L51 17L51 16L52 16L52 15L50 15L50 11L51 11L51 10L52 10L52 8L51 8L51 10L49 10L49 9L50 9L50 8L49 8L49 9L48 9L48 8L46 8L46 9L48 9L48 10L49 10L49 11L47 11L47 12L49 12L49 13L47 13L47 14L46 14L46 12L45 12L45 14L44 14L44 12L43 12L43 11L46 11L46 10L43 10L43 9L44 9L44 8L45 8L45 6L46 6L46 7L47 7L47 5L48 5L48 0L44 0L44 1L43 1L43 0L42 0L42 1L41 1L41 2L39 2L39 1L38 1L38 0L35 0L35 1L33 1L33 2L32 2L32 0L28 0L28 2L27 2L27 1L26 1L26 0L24 0L24 1L23 1L23 0L21 0L21 2L20 2L20 3L18 3L18 4L20 4L20 3L22 3L22 2L24 2L24 4L21 4L21 6L20 6L20 5L18 5L18 7L17 7L17 4L16 4L16 2L17 2L17 1L15 1L15 0L14 0L14 1L15 1L15 4L14 4L14 2L13 2L13 3L12 3L12 1L13 1L13 0L12 0L12 1L11 1L11 0ZM18 1L18 2L19 2L19 1ZM25 1L25 2L26 2L26 1ZM29 1L29 3L27 3L27 4L29 4L29 3L30 3L30 2L31 2L31 1ZM35 1L35 3L34 3L34 2L33 2L33 3L32 3L32 4L31 4L31 8L33 8L33 9L34 9L34 10L33 10L33 11L34 11L34 12L35 12L35 11L39 11L39 12L38 12L38 13L33 13L33 12L32 12L32 11L31 11L31 12L32 12L32 13L31 13L31 15L32 15L32 14L40 14L40 15L41 15L41 16L39 16L39 15L36 15L36 16L35 16L35 15L33 15L33 16L30 16L30 15L26 15L26 14L28 14L28 13L29 13L29 14L30 14L30 13L29 13L29 12L30 12L30 10L29 10L29 9L26 9L26 6L25 6L25 4L26 4L26 3L25 3L25 4L24 4L24 5L22 5L22 6L21 6L21 7L20 7L20 6L19 6L19 9L18 9L18 8L17 8L17 9L15 9L15 8L16 8L16 6L15 6L15 7L14 7L14 5L13 5L13 8L14 8L14 10L13 10L13 9L11 9L11 10L9 10L9 9L8 9L8 11L9 11L9 12L7 12L7 13L8 13L8 14L7 14L7 15L6 15L6 16L4 16L4 17L5 17L5 18L7 18L7 19L6 19L6 20L10 20L10 21L11 21L11 23L10 23L10 24L11 24L11 25L10 25L10 26L9 26L9 31L10 31L10 32L9 32L9 33L8 33L8 32L7 32L7 31L5 31L5 34L4 34L4 35L3 35L3 36L2 36L2 35L1 35L1 36L2 36L2 37L3 37L3 38L1 38L1 39L3 39L3 38L4 38L4 39L5 39L5 40L4 40L4 41L3 41L3 43L2 43L2 44L3 44L3 45L6 45L6 44L7 44L7 43L8 43L8 41L6 41L6 40L7 40L7 39L8 39L8 40L9 40L9 41L10 41L10 40L11 40L11 41L12 41L12 40L13 40L13 39L14 39L14 41L13 41L13 42L12 42L12 44L11 44L11 46L12 46L12 44L14 44L14 43L15 43L15 44L16 44L16 42L17 42L17 41L16 41L16 39L14 39L14 38L16 38L16 37L17 37L17 36L20 36L20 37L18 37L18 38L17 38L17 39L19 39L19 41L20 41L20 43L19 43L19 42L18 42L18 43L17 43L17 44L18 44L18 45L14 45L14 46L13 46L13 47L14 47L14 46L15 46L15 47L17 47L17 48L19 48L19 49L16 49L16 48L15 48L15 49L16 49L16 50L17 50L17 51L18 51L18 52L19 52L19 53L21 53L21 54L22 54L22 53L23 53L23 54L24 54L24 53L23 53L23 52L24 52L24 51L23 51L23 50L22 50L22 51L23 51L23 52L22 52L22 53L21 53L21 52L20 52L20 51L21 51L21 49L24 49L24 48L21 48L21 47L20 47L20 48L19 48L19 47L18 47L18 45L19 45L19 46L22 46L22 47L24 47L24 45L25 45L25 49L26 49L26 48L27 48L27 47L26 47L26 46L27 46L27 45L28 45L28 46L31 46L31 43L28 43L28 42L30 42L30 40L33 40L33 39L34 39L34 40L35 40L35 39L36 39L36 38L37 38L37 40L38 40L38 39L41 39L41 38L42 38L42 37L41 37L41 36L40 36L40 35L38 35L38 36L37 36L37 34L42 34L42 33L41 33L41 32L43 32L43 31L46 31L46 30L47 30L47 31L48 31L48 26L47 26L47 27L46 27L46 26L45 26L45 27L44 27L44 26L41 26L41 23L42 23L42 22L41 22L41 20L40 20L40 19L41 19L41 18L42 18L42 19L44 19L44 18L45 18L45 19L46 19L46 20L42 20L42 21L43 21L43 24L44 24L44 21L45 21L45 23L47 23L47 19L48 19L48 18L47 18L47 17L48 17L48 16L49 16L49 15L45 15L45 16L44 16L44 14L42 14L42 11L43 11L43 10L41 10L41 8L42 8L42 9L43 9L43 8L42 8L42 6L43 6L43 7L44 7L44 6L45 6L45 5L47 5L47 3L43 3L43 1L42 1L42 2L41 2L41 3L40 3L40 4L39 4L39 3L37 3L37 2L38 2L38 1ZM44 1L44 2L47 2L47 1ZM10 3L10 4L11 4L11 3ZM33 3L33 6L32 6L32 7L33 7L33 6L34 6L34 9L35 9L35 10L34 10L34 11L35 11L35 10L36 10L36 9L37 9L37 10L38 10L38 9L39 9L39 10L40 10L40 9L39 9L39 8L38 8L38 7L39 7L39 5L38 5L38 7L37 7L37 6L36 6L36 5L37 5L37 3L36 3L36 5L34 5L34 3ZM42 3L42 4L40 4L40 5L43 5L43 3ZM15 4L15 5L16 5L16 4ZM44 4L44 5L45 5L45 4ZM9 5L9 7L10 7L10 6L11 6L11 8L12 8L12 5ZM27 5L27 8L30 8L30 5ZM22 6L22 7L21 7L21 8L24 8L24 7L25 7L25 6L24 6L24 7L23 7L23 6ZM28 6L28 7L29 7L29 6ZM35 6L35 8L37 8L37 9L38 9L38 8L37 8L37 7L36 7L36 6ZM40 6L40 7L41 7L41 6ZM48 6L48 7L49 7L49 6ZM0 8L0 10L1 10L1 11L0 11L0 12L1 12L1 13L0 13L0 14L2 14L2 13L3 13L3 14L4 14L4 13L3 13L3 12L5 12L5 11L3 11L3 10L4 10L4 9L5 9L5 8ZM53 8L53 9L54 9L54 8ZM55 8L55 11L54 11L54 10L53 10L53 11L52 11L52 12L53 12L53 11L54 11L54 12L56 12L56 8ZM17 9L17 11L18 11L18 9ZM19 9L19 12L20 12L20 13L22 13L22 12L20 12L20 9ZM23 9L23 11L24 11L24 12L23 12L23 13L24 13L24 14L23 14L23 15L22 15L22 14L21 14L21 16L20 16L20 17L19 17L19 16L18 16L18 17L17 17L17 14L15 14L15 15L16 15L16 17L15 17L15 18L13 18L13 17L14 17L14 16L12 16L12 18L11 18L11 15L8 15L8 16L6 16L6 17L7 17L7 18L8 18L8 19L10 19L10 18L11 18L11 20L12 20L12 21L15 21L15 22L16 22L16 21L15 21L15 20L16 20L16 19L18 19L18 21L19 21L19 22L20 22L20 23L18 23L18 25L17 25L17 24L16 24L16 23L15 23L15 24L12 24L12 25L13 25L13 26L14 26L14 25L17 25L17 26L15 26L15 27L12 27L12 26L11 26L11 27L10 27L10 28L11 28L11 27L12 27L12 29L14 29L14 30L13 30L13 31L12 31L12 32L11 32L11 34L12 34L12 33L13 33L13 31L14 31L14 32L15 32L15 33L14 33L14 34L13 34L13 35L12 35L12 36L11 36L11 35L9 35L9 34L10 34L10 33L9 33L9 34L8 34L8 33L7 33L7 32L6 32L6 33L7 33L7 34L5 34L5 35L4 35L4 38L5 38L5 39L7 39L7 38L8 38L8 39L9 39L9 38L11 38L11 40L12 40L12 37L13 37L13 38L14 38L14 37L16 37L16 34L15 34L15 33L17 33L17 32L15 32L15 29L17 29L17 30L16 30L16 31L17 31L17 30L19 30L19 31L20 31L20 29L21 29L21 30L22 30L22 31L21 31L21 32L18 32L18 33L19 33L19 34L18 34L18 35L20 35L20 33L21 33L21 35L22 35L22 34L23 34L23 36L24 36L24 37L22 37L22 36L21 36L21 37L22 37L22 38L21 38L21 40L20 40L20 41L21 41L21 43L22 43L22 41L21 41L21 40L23 40L23 41L24 41L24 42L26 42L26 43L27 43L27 42L26 42L26 41L28 41L28 40L29 40L29 39L31 39L31 38L32 38L32 35L30 35L30 34L29 34L29 35L30 35L30 36L29 36L29 37L28 37L28 36L27 36L27 35L26 35L26 34L27 34L27 33L30 33L30 32L33 32L33 33L35 33L35 34L33 34L33 36L34 36L34 37L33 37L33 38L34 38L34 39L35 39L35 38L36 38L36 37L37 37L37 38L38 38L38 37L37 37L37 36L36 36L36 37L35 37L35 36L34 36L34 35L35 35L35 34L37 34L37 33L38 33L38 32L33 32L33 31L35 31L35 30L36 30L36 29L37 29L37 30L38 30L38 28L35 28L35 27L37 27L37 26L38 26L38 25L39 25L39 26L40 26L40 28L41 28L41 26L40 26L40 25L39 25L39 24L40 24L40 20L39 20L39 19L40 19L40 18L41 18L41 17L39 17L39 18L37 18L37 17L38 17L38 16L36 16L36 17L35 17L35 18L33 18L33 17L34 17L34 16L33 16L33 17L29 17L29 18L33 18L33 19L30 19L30 20L29 20L29 19L28 19L28 18L27 18L27 17L28 17L28 16L25 16L25 14L26 14L26 13L28 13L28 12L29 12L29 11L27 11L27 10L26 10L26 11L27 11L27 12L25 12L25 11L24 11L24 10L25 10L25 9ZM31 9L31 10L32 10L32 9ZM15 10L15 11L16 11L16 10ZM21 10L21 11L22 11L22 10ZM1 11L1 12L2 12L2 11ZM13 11L13 12L12 12L12 13L11 13L11 14L14 14L14 13L13 13L13 12L14 12L14 11ZM15 12L15 13L18 13L18 15L20 15L20 14L19 14L19 13L18 13L18 12ZM24 12L24 13L25 13L25 12ZM9 13L9 14L10 14L10 13ZM40 13L40 14L41 14L41 15L42 15L42 14L41 14L41 13ZM51 13L51 14L52 14L52 13ZM53 13L53 14L54 14L54 16L53 16L53 17L52 17L52 18L51 18L51 20L52 20L52 19L54 19L54 20L55 20L55 19L56 19L56 18L57 18L57 17L56 17L56 18L55 18L55 17L54 17L54 16L55 16L55 15L56 15L56 16L57 16L57 15L56 15L56 14L57 14L57 13L56 13L56 14L55 14L55 13ZM22 16L22 17L24 17L24 16ZM42 16L42 18L43 18L43 17L44 17L44 16ZM45 16L45 18L46 18L46 19L47 19L47 18L46 18L46 16ZM8 17L8 18L10 18L10 17ZM16 17L16 18L17 18L17 17ZM18 17L18 19L19 19L19 21L23 21L23 22L21 22L21 23L22 23L22 24L19 24L19 25L18 25L18 26L17 26L17 27L18 27L18 26L19 26L19 25L20 25L20 27L19 27L19 29L20 29L20 27L22 27L22 25L24 25L24 23L23 23L23 22L24 22L24 21L23 21L23 20L25 20L25 18L26 18L26 21L25 21L25 22L26 22L26 23L25 23L25 24L26 24L26 25L25 25L25 26L24 26L24 27L23 27L23 29L22 29L22 28L21 28L21 29L22 29L22 30L23 30L23 29L25 29L25 30L24 30L24 31L22 31L22 33L24 33L24 31L25 31L25 34L24 34L24 36L26 36L26 35L25 35L25 34L26 34L26 32L30 32L30 31L25 31L25 30L26 30L26 27L25 27L25 26L26 26L26 25L27 25L27 26L28 26L28 25L32 25L32 26L31 26L31 27L33 27L33 28L31 28L31 29L33 29L33 30L32 30L32 31L33 31L33 30L35 30L35 29L33 29L33 28L34 28L34 27L33 27L33 25L34 25L34 26L35 26L35 25L36 25L36 26L37 26L37 25L38 25L38 24L39 24L39 21L38 21L38 24L37 24L37 23L36 23L36 22L37 22L37 21L36 21L36 20L37 20L37 19L35 19L35 21L34 21L34 19L33 19L33 20L32 20L32 21L33 21L33 23L32 23L32 24L28 24L28 23L29 23L29 22L30 22L30 23L31 23L31 22L30 22L30 21L29 21L29 20L27 20L27 18L26 18L26 17L25 17L25 18L24 18L24 19L23 19L23 18L22 18L22 19L23 19L23 20L21 20L21 19L19 19L19 17ZM20 17L20 18L21 18L21 17ZM12 18L12 20L14 20L14 19L13 19L13 18ZM48 20L48 21L49 21L49 20ZM5 21L5 22L9 22L9 21ZM27 21L27 22L29 22L29 21ZM34 22L34 24L35 24L35 22ZM49 22L49 23L50 23L50 22ZM53 22L53 23L55 23L55 22ZM1 23L1 25L3 25L3 26L2 26L2 27L4 27L4 26L5 26L5 25L6 25L6 26L7 26L7 25L9 25L9 24L7 24L7 23L6 23L6 24L5 24L5 25L3 25L3 24L2 24L2 23ZM6 24L6 25L7 25L7 24ZM27 24L27 25L28 25L28 24ZM36 24L36 25L37 25L37 24ZM5 27L5 30L8 30L8 27ZM24 27L24 28L25 28L25 27ZM27 27L27 30L30 30L30 27ZM42 27L42 28L43 28L43 29L42 29L42 30L41 30L41 29L39 29L39 30L41 30L41 31L39 31L39 32L41 32L41 31L42 31L42 30L43 30L43 29L44 29L44 27ZM45 27L45 30L46 30L46 29L47 29L47 28L46 28L46 27ZM49 27L49 30L52 30L52 27ZM6 28L6 29L7 29L7 28ZM17 28L17 29L18 29L18 28ZM28 28L28 29L29 29L29 28ZM50 28L50 29L51 29L51 28ZM54 28L54 29L53 29L53 30L54 30L54 29L55 29L55 28ZM10 29L10 31L11 31L11 29ZM52 31L52 32L54 32L54 33L55 33L55 32L54 32L54 31ZM31 33L31 34L32 34L32 33ZM47 33L47 34L45 34L45 36L46 36L46 35L48 35L48 33ZM14 34L14 35L13 35L13 37L14 37L14 35L15 35L15 34ZM6 35L6 36L7 36L7 37L5 37L5 38L7 38L7 37L8 37L8 36L9 36L9 37L11 37L11 36L9 36L9 35L8 35L8 36L7 36L7 35ZM56 35L56 36L57 36L57 35ZM30 36L30 38L31 38L31 36ZM39 36L39 38L40 38L40 36ZM24 37L24 38L23 38L23 39L24 39L24 41L25 41L25 38L26 38L26 37ZM27 37L27 38L28 38L28 37ZM34 37L34 38L35 38L35 37ZM55 37L55 38L54 38L54 39L53 39L53 40L55 40L55 39L57 39L57 37ZM19 38L19 39L20 39L20 38ZM26 39L26 40L28 40L28 39ZM39 40L39 41L38 41L38 42L37 42L37 41L33 41L33 43L32 43L32 47L33 47L33 48L31 48L31 47L28 47L28 48L31 48L31 50L32 50L32 51L31 51L31 52L32 52L32 54L35 54L35 52L36 52L36 51L37 51L37 53L38 53L38 54L37 54L37 55L36 55L36 56L37 56L37 55L38 55L38 54L39 54L39 52L40 52L40 55L41 55L41 53L42 53L42 51L43 51L43 50L44 50L44 53L45 53L45 54L47 54L47 53L48 53L48 54L51 54L51 55L54 55L54 54L51 54L51 53L48 53L48 52L47 52L47 51L48 51L48 48L49 48L49 47L52 47L52 48L53 48L53 47L54 47L54 46L53 46L53 45L52 45L52 44L53 44L53 43L52 43L52 44L51 44L51 45L50 45L50 44L47 44L47 45L46 45L46 46L47 46L47 47L45 47L45 48L44 48L44 47L43 47L43 46L45 46L45 44L44 44L44 45L43 45L43 44L40 44L40 43L39 43L39 41L40 41L40 42L41 42L41 40ZM4 41L4 42L5 42L5 43L7 43L7 42L5 42L5 41ZM31 41L31 42L32 42L32 41ZM13 42L13 43L14 43L14 42ZM34 42L34 43L33 43L33 44L34 44L34 43L35 43L35 42ZM48 42L48 43L49 43L49 42ZM50 42L50 43L51 43L51 42ZM23 43L23 45L24 45L24 44L25 44L25 45L26 45L26 44L25 44L25 43ZM19 44L19 45L22 45L22 44ZM28 44L28 45L29 45L29 44ZM35 44L35 46L33 46L33 47L35 47L35 48L36 48L36 50L37 50L37 51L38 51L38 52L39 52L39 51L40 51L40 52L41 52L41 51L42 51L42 50L43 50L43 49L44 49L44 48L42 48L42 50L41 50L41 51L40 51L40 48L41 48L41 47L42 47L42 46L43 46L43 45L42 45L42 46L41 46L41 47L40 47L40 46L39 46L39 47L40 47L40 48L39 48L39 50L37 50L37 48L36 48L36 46L38 46L38 45L39 45L39 44ZM47 45L47 46L50 46L50 45ZM51 45L51 46L52 46L52 47L53 47L53 46L52 46L52 45ZM3 46L3 47L5 47L5 46ZM8 46L8 47L9 47L9 46ZM6 48L6 49L7 49L7 48ZM20 48L20 49L19 49L19 50L18 50L18 51L19 51L19 50L20 50L20 49L21 49L21 48ZM45 48L45 49L47 49L47 48ZM27 49L27 52L30 52L30 49ZM33 49L33 50L34 50L34 51L35 51L35 50L34 50L34 49ZM49 49L49 52L52 52L52 49ZM25 50L25 53L26 53L26 50ZM28 50L28 51L29 51L29 50ZM45 50L45 52L46 52L46 53L47 53L47 52L46 52L46 51L47 51L47 50ZM50 50L50 51L51 51L51 50ZM32 51L32 52L33 52L33 51ZM54 51L54 52L56 52L56 51ZM11 53L11 54L10 54L10 55L12 55L12 53ZM15 53L15 54L16 54L16 53ZM29 53L29 54L30 54L30 53ZM19 54L19 55L18 55L18 56L19 56L19 55L20 55L20 54ZM27 55L27 56L28 56L28 55ZM0 0L0 7L7 7L7 0ZM1 1L1 6L6 6L6 1ZM2 2L2 5L5 5L5 2ZM50 0L50 7L57 7L57 0ZM51 1L51 6L56 6L56 1ZM52 2L52 5L55 5L55 2ZM0 50L0 57L7 57L7 50ZM1 51L1 56L6 56L6 51ZM2 52L2 55L5 55L5 52Z" fill="#000000"/></g></g></svg>
