<?xml version="1.0" encoding="UTF-8"?>
<svg xmlns="http://www.w3.org/2000/svg" version="1.1" width="300" height="300" viewBox="0 0 300 300"><rect x="0" y="0" width="300" height="300" fill="#ffffff"/><g transform="scale(4.918)"><g transform="translate(2,2)"><path fill-rule="evenodd" d="M9 0L9 1L8 1L8 2L9 2L9 1L11 1L11 3L10 3L10 5L8 5L8 7L9 7L9 6L10 6L10 9L12 9L12 11L10 11L10 10L8 10L8 11L9 11L9 13L8 13L8 12L6 12L6 11L7 11L7 10L6 10L6 11L5 11L5 8L0 8L0 9L3 9L3 10L4 10L4 12L2 12L2 10L1 10L1 12L0 12L0 14L1 14L1 12L2 12L2 13L3 13L3 14L2 14L2 15L0 15L0 17L1 17L1 16L2 16L2 15L3 15L3 17L2 17L2 19L1 19L1 18L0 18L0 21L1 21L1 22L2 22L2 23L0 23L0 26L2 26L2 27L3 27L3 28L2 28L2 33L1 33L1 29L0 29L0 36L1 36L1 37L2 37L2 36L5 36L5 37L4 37L4 38L0 38L0 41L1 41L1 42L0 42L0 45L2 45L2 47L1 47L1 46L0 46L0 48L5 48L5 47L8 47L8 46L9 46L9 45L10 45L10 44L13 44L13 45L11 45L11 46L13 46L13 49L12 49L12 48L11 48L11 47L9 47L9 49L8 49L8 51L9 51L9 52L8 52L8 57L11 57L11 56L12 56L12 57L15 57L15 55L16 55L16 56L17 56L17 57L22 57L22 56L19 56L19 55L20 55L20 54L18 54L18 56L17 56L17 53L16 53L16 52L17 52L17 51L18 51L18 53L20 53L20 52L21 52L21 53L22 53L22 54L21 54L21 55L22 55L22 54L24 54L24 53L25 53L25 57L26 57L26 54L27 54L27 53L28 53L28 54L30 54L30 53L31 53L31 56L30 56L30 55L29 55L29 56L30 56L30 57L31 57L31 56L34 56L34 55L35 55L35 54L36 54L36 56L35 56L35 57L39 57L39 56L41 56L41 55L42 55L42 54L43 54L43 53L44 53L44 54L46 54L46 55L45 55L45 56L47 56L47 57L50 57L50 53L51 53L51 54L53 54L53 55L51 55L51 57L52 57L52 56L54 56L54 57L56 57L56 56L55 56L55 55L54 55L54 54L55 54L55 53L56 53L56 51L55 51L55 50L57 50L57 47L56 47L56 46L57 46L57 45L56 45L56 41L55 41L55 39L57 39L57 37L56 37L56 35L53 35L53 34L52 34L52 37L50 37L50 36L49 36L49 35L50 35L50 33L53 33L53 32L56 32L56 30L57 30L57 29L56 29L56 28L57 28L57 27L56 27L56 25L54 25L54 26L55 26L55 27L53 27L53 26L52 26L52 24L57 24L57 23L56 23L56 22L57 22L57 20L56 20L56 19L55 19L55 18L57 18L57 17L56 17L56 16L55 16L55 15L56 15L56 14L57 14L57 13L53 13L53 15L54 15L54 16L53 16L53 19L51 19L51 18L52 18L52 17L51 17L51 18L50 18L50 16L52 16L52 15L50 15L50 16L49 16L49 17L47 17L47 16L45 16L45 15L49 15L49 14L50 14L50 13L51 13L51 14L52 14L52 13L51 13L51 12L50 12L50 13L47 13L47 14L46 14L46 12L45 12L45 11L46 11L46 10L45 10L45 9L44 9L44 10L43 10L43 9L41 9L41 10L43 10L43 11L42 11L42 14L40 14L40 12L41 12L41 11L40 11L40 12L39 12L39 11L37 11L37 10L38 10L38 8L35 8L35 6L36 6L36 7L37 7L37 6L36 6L36 5L38 5L38 4L39 4L39 6L38 6L38 7L39 7L39 8L40 8L40 7L41 7L41 8L45 8L45 6L44 6L44 7L43 7L43 4L42 4L42 1L44 1L44 0L42 0L42 1L41 1L41 0L40 0L40 1L37 1L37 0L35 0L35 1L33 1L33 0L32 0L32 1L33 1L33 2L31 2L31 3L29 3L29 2L30 2L30 1L31 1L31 0L30 0L30 1L29 1L29 0L28 0L28 3L27 3L27 4L26 4L26 3L23 3L23 4L22 4L22 3L21 3L21 4L19 4L19 3L18 3L18 2L20 2L20 0L19 0L19 1L18 1L18 0L17 0L17 1L16 1L16 0L12 0L12 1L11 1L11 0ZM21 0L21 2L22 2L22 1L23 1L23 2L25 2L25 1L26 1L26 2L27 2L27 1L26 1L26 0ZM45 0L45 1L47 1L47 2L43 2L43 3L47 3L47 5L46 5L46 4L44 4L44 5L46 5L46 8L47 8L47 9L48 9L48 11L51 11L51 10L49 10L49 9L50 9L50 8L49 8L49 9L48 9L48 8L47 8L47 5L48 5L48 0ZM12 1L12 5L13 5L13 7L12 7L12 6L11 6L11 5L10 5L10 6L11 6L11 7L12 7L12 8L14 8L14 9L15 9L15 11L18 11L18 9L16 9L16 8L17 8L17 7L18 7L18 8L19 8L19 9L20 9L20 10L19 10L19 12L20 12L20 10L21 10L21 11L22 11L22 10L21 10L21 9L23 9L23 11L25 11L25 12L23 12L23 13L22 13L22 12L21 12L21 13L19 13L19 14L20 14L20 15L18 15L18 14L17 14L17 13L18 13L18 12L17 12L17 13L13 13L13 12L14 12L14 11L13 11L13 12L10 12L10 13L9 13L9 14L7 14L7 13L6 13L6 14L5 14L5 12L4 12L4 14L3 14L3 15L4 15L4 16L5 16L5 17L4 17L4 19L3 19L3 20L2 20L2 22L4 22L4 20L7 20L7 21L5 21L5 23L4 23L4 25L3 25L3 27L4 27L4 26L5 26L5 25L6 25L6 26L7 26L7 25L6 25L6 24L7 24L7 23L6 23L6 22L7 22L7 21L8 21L8 20L9 20L9 22L8 22L8 26L9 26L9 27L10 27L10 31L8 31L8 32L11 32L11 29L12 29L12 30L13 30L13 32L12 32L12 33L13 33L13 36L12 36L12 37L11 37L11 38L10 38L10 37L9 37L9 35L8 35L8 36L7 36L7 35L6 35L6 34L7 34L7 33L6 33L6 34L5 34L5 35L6 35L6 36L7 36L7 37L5 37L5 38L4 38L4 40L5 40L5 42L4 42L4 41L2 41L2 40L3 40L3 39L1 39L1 41L2 41L2 43L1 43L1 44L7 44L7 45L5 45L5 46L3 46L3 47L5 47L5 46L8 46L8 44L9 44L9 43L10 43L10 42L9 42L9 41L10 41L10 40L11 40L11 41L12 41L12 39L11 39L11 38L12 38L12 37L13 37L13 44L14 44L14 45L13 45L13 46L14 46L14 48L15 48L15 46L17 46L17 47L16 47L16 48L17 48L17 49L16 49L16 50L17 50L17 49L18 49L18 51L21 51L21 49L20 49L20 48L21 48L21 47L20 47L20 46L21 46L21 45L22 45L22 47L23 47L23 46L24 46L24 47L25 47L25 48L22 48L22 49L26 49L26 48L27 48L27 47L25 47L25 46L28 46L28 47L29 47L29 46L30 46L30 45L27 45L27 44L29 44L29 43L30 43L30 44L31 44L31 43L30 43L30 40L31 40L31 41L32 41L32 42L34 42L34 44L32 44L32 45L31 45L31 46L32 46L32 45L33 45L33 46L35 46L35 47L33 47L33 48L31 48L31 50L32 50L32 51L31 51L31 52L32 52L32 54L35 54L35 53L36 53L36 54L37 54L37 55L38 55L38 56L39 56L39 55L38 55L38 54L39 54L39 53L38 53L38 54L37 54L37 53L36 53L36 52L37 52L37 51L36 51L36 50L40 50L40 51L39 51L39 52L40 52L40 55L41 55L41 52L42 52L42 53L43 53L43 52L42 52L42 51L44 51L44 53L46 53L46 54L47 54L47 53L48 53L48 52L47 52L47 51L48 51L48 48L50 48L50 47L51 47L51 46L50 46L50 45L52 45L52 46L53 46L53 47L52 47L52 48L53 48L53 49L55 49L55 48L56 48L56 47L55 47L55 48L53 48L53 47L54 47L54 46L53 46L53 45L52 45L52 44L53 44L53 43L54 43L54 41L52 41L52 40L51 40L51 39L54 39L54 38L55 38L55 36L53 36L53 37L52 37L52 38L50 38L50 37L49 37L49 36L47 36L47 35L45 35L45 34L47 34L47 33L48 33L48 35L49 35L49 32L50 32L50 31L48 31L48 27L47 27L47 26L48 26L48 25L50 25L50 26L51 26L51 24L52 24L52 23L50 23L50 22L51 22L51 19L50 19L50 18L47 18L47 17L45 17L45 16L44 16L44 15L43 15L43 14L45 14L45 12L44 12L44 11L45 11L45 10L44 10L44 11L43 11L43 14L42 14L42 15L41 15L41 16L39 16L39 15L37 15L37 14L39 14L39 12L38 12L38 13L37 13L37 14L36 14L36 13L33 13L33 12L31 12L31 11L30 11L30 10L28 10L28 9L25 9L25 8L26 8L26 4L25 4L25 8L24 8L24 6L23 6L23 5L24 5L24 4L23 4L23 5L22 5L22 4L21 4L21 9L20 9L20 8L19 8L19 7L20 7L20 5L19 5L19 4L18 4L18 3L17 3L17 2L15 2L15 1L14 1L14 2L15 2L15 3L14 3L14 4L13 4L13 1ZM35 1L35 3L34 3L34 4L33 4L33 3L32 3L32 4L31 4L31 9L32 9L32 10L33 10L33 9L34 9L34 10L35 10L35 11L34 11L34 12L35 12L35 11L36 11L36 10L37 10L37 9L35 9L35 8L33 8L33 7L34 7L34 6L33 6L33 5L36 5L36 3L39 3L39 2L36 2L36 1ZM40 1L40 2L41 2L41 1ZM8 3L8 4L9 4L9 3ZM28 3L28 4L29 4L29 3ZM40 3L40 5L41 5L41 7L42 7L42 5L41 5L41 3ZM14 4L14 7L15 7L15 8L16 8L16 7L17 7L17 6L18 6L18 7L19 7L19 5L18 5L18 4L17 4L17 6L16 6L16 7L15 7L15 5L16 5L16 4ZM27 5L27 8L30 8L30 5ZM22 6L22 8L23 8L23 9L24 9L24 10L25 10L25 9L24 9L24 8L23 8L23 6ZM28 6L28 7L29 7L29 6ZM32 6L32 7L33 7L33 6ZM39 6L39 7L40 7L40 6ZM48 6L48 7L49 7L49 6ZM6 8L6 9L9 9L9 8ZM51 8L51 9L52 9L52 8ZM53 8L53 9L54 9L54 8ZM55 8L55 11L54 11L54 10L53 10L53 11L52 11L52 12L53 12L53 11L54 11L54 12L56 12L56 8ZM39 9L39 10L40 10L40 9ZM26 10L26 11L27 11L27 12L25 12L25 13L23 13L23 14L22 14L22 13L21 13L21 15L24 15L24 16L26 16L26 17L21 17L21 16L20 16L20 17L19 17L19 16L18 16L18 15L15 15L15 14L14 14L14 16L13 16L13 17L14 17L14 16L15 16L15 17L19 17L19 18L17 18L17 19L19 19L19 18L20 18L20 17L21 17L21 18L23 18L23 19L25 19L25 20L24 20L24 21L22 21L22 20L21 20L21 19L20 19L20 20L18 20L18 21L20 21L20 20L21 20L21 21L22 21L22 22L24 22L24 21L25 21L25 22L26 22L26 23L25 23L25 24L27 24L27 25L26 25L26 26L25 26L25 25L24 25L24 23L23 23L23 27L24 27L24 26L25 26L25 27L26 27L26 30L25 30L25 29L23 29L23 30L21 30L21 31L20 31L20 30L19 30L19 29L22 29L22 28L21 28L21 27L22 27L22 25L21 25L21 27L20 27L20 24L19 24L19 23L20 23L20 22L19 22L19 23L17 23L17 21L16 21L16 20L15 20L15 21L16 21L16 22L15 22L15 23L16 23L16 25L19 25L19 29L18 29L18 28L17 28L17 27L18 27L18 26L16 26L16 28L15 28L15 29L18 29L18 30L19 30L19 31L18 31L18 33L19 33L19 34L18 34L18 35L19 35L19 34L20 34L20 35L21 35L21 34L23 34L23 35L25 35L25 36L23 36L23 37L22 37L22 36L21 36L21 37L19 37L19 36L18 36L18 37L19 37L19 38L17 38L17 40L16 40L16 39L14 39L14 42L15 42L15 43L16 43L16 45L17 45L17 46L18 46L18 47L19 47L19 45L21 45L21 44L22 44L22 45L24 45L24 46L25 46L25 45L26 45L26 44L27 44L27 43L26 43L26 44L25 44L25 45L24 45L24 44L23 44L23 43L25 43L25 41L24 41L24 42L22 42L22 41L21 41L21 40L22 40L22 39L24 39L24 40L25 40L25 39L26 39L26 40L28 40L28 39L26 39L26 38L28 38L28 37L27 37L27 35L26 35L26 34L27 34L27 33L29 33L29 34L30 34L30 35L29 35L29 39L31 39L31 38L32 38L32 33L31 33L31 32L34 32L34 31L35 31L35 30L36 30L36 29L37 29L37 30L38 30L38 27L40 27L40 28L39 28L39 32L38 32L38 33L39 33L39 34L37 34L37 32L35 32L35 34L34 34L34 33L33 33L33 34L34 34L34 35L33 35L33 36L34 36L34 37L35 37L35 36L34 36L34 35L35 35L35 34L37 34L37 35L40 35L40 36L38 36L38 37L37 37L37 36L36 36L36 38L35 38L35 39L37 39L37 38L38 38L38 39L40 39L40 40L39 40L39 41L40 41L40 42L39 42L39 44L38 44L38 43L37 43L37 42L38 42L38 41L37 41L37 40L34 40L34 41L37 41L37 42L35 42L35 43L36 43L36 44L35 44L35 46L36 46L36 45L37 45L37 46L38 46L38 45L39 45L39 46L41 46L41 47L40 47L40 48L39 48L39 49L40 49L40 48L45 48L45 49L44 49L44 50L46 50L46 51L45 51L45 52L46 52L46 51L47 51L47 50L46 50L46 48L45 48L45 47L47 47L47 46L46 46L46 45L47 45L47 44L49 44L49 45L50 45L50 44L52 44L52 43L53 43L53 42L52 42L52 41L49 41L49 43L47 43L47 42L45 42L45 41L47 41L47 40L45 40L45 39L44 39L44 40L43 40L43 41L40 41L40 40L41 40L41 39L42 39L42 38L43 38L43 37L44 37L44 38L45 38L45 37L46 37L46 36L45 36L45 37L44 37L44 34L43 34L43 33L44 33L44 32L45 32L45 33L47 33L47 32L48 32L48 31L47 31L47 30L46 30L46 29L47 29L47 28L46 28L46 26L45 26L45 30L46 30L46 31L44 31L44 32L41 32L41 31L42 31L42 30L43 30L43 29L44 29L44 26L43 26L43 25L44 25L44 24L45 24L45 23L46 23L46 22L45 22L45 21L44 21L44 23L43 23L43 21L42 21L42 20L46 20L46 19L47 19L47 20L48 20L48 21L47 21L47 23L48 23L48 24L46 24L46 25L48 25L48 24L50 24L50 23L48 23L48 22L50 22L50 19L47 19L47 18L45 18L45 17L44 17L44 16L43 16L43 15L42 15L42 16L43 16L43 17L42 17L42 18L41 18L41 17L40 17L40 18L34 18L34 16L33 16L33 15L35 15L35 14L33 14L33 15L32 15L32 13L31 13L31 14L30 14L30 13L28 13L28 12L30 12L30 11L28 11L28 10ZM10 13L10 15L9 15L9 16L6 16L6 17L7 17L7 18L6 18L6 19L7 19L7 20L8 20L8 19L7 19L7 18L9 18L9 17L10 17L10 15L13 15L13 14L11 14L11 13ZM26 13L26 14L28 14L28 13ZM6 14L6 15L7 15L7 14ZM24 14L24 15L25 15L25 14ZM29 14L29 15L28 15L28 16L27 16L27 15L26 15L26 16L27 16L27 17L28 17L28 16L29 16L29 17L31 17L31 16L32 16L32 19L33 19L33 20L32 20L32 21L34 21L34 22L33 22L33 23L34 23L34 22L35 22L35 23L36 23L36 24L35 24L35 25L34 25L34 24L32 24L32 25L31 25L31 22L30 22L30 19L31 19L31 18L29 18L29 20L28 20L28 22L27 22L27 24L28 24L28 25L27 25L27 26L29 26L29 24L28 24L28 22L30 22L30 25L31 25L31 27L33 27L33 28L32 28L32 29L31 29L31 31L32 31L32 29L33 29L33 30L35 30L35 29L33 29L33 28L34 28L34 26L36 26L36 27L37 27L37 26L39 26L39 25L40 25L40 26L41 26L41 28L40 28L40 29L41 29L41 30L42 30L42 29L43 29L43 28L42 28L42 26L41 26L41 24L42 24L42 23L41 23L41 22L40 22L40 23L41 23L41 24L39 24L39 23L38 23L38 22L39 22L39 20L40 20L40 21L41 21L41 20L40 20L40 19L41 19L41 18L40 18L40 19L38 19L38 20L37 20L37 19L34 19L34 18L33 18L33 16L32 16L32 15L31 15L31 16L30 16L30 14ZM54 14L54 15L55 15L55 14ZM35 16L35 17L37 17L37 16ZM54 16L54 17L55 17L55 16ZM43 17L43 18L42 18L42 19L45 19L45 18L44 18L44 17ZM10 18L10 19L9 19L9 20L10 20L10 22L9 22L9 23L10 23L10 24L9 24L9 25L10 25L10 26L12 26L12 27L11 27L11 28L12 28L12 27L13 27L13 26L15 26L15 24L14 24L14 21L12 21L12 20L11 20L11 19L13 19L13 20L14 20L14 19L13 19L13 18ZM25 18L25 19L26 19L26 20L25 20L25 21L27 21L27 19L28 19L28 18ZM34 20L34 21L35 21L35 20ZM36 20L36 21L37 21L37 22L36 22L36 23L37 23L37 22L38 22L38 21L37 21L37 20ZM52 20L52 21L53 21L53 20ZM54 20L54 21L56 21L56 20ZM11 21L11 23L12 23L12 21ZM2 23L2 24L1 24L1 25L2 25L2 24L3 24L3 23ZM21 23L21 24L22 24L22 23ZM36 24L36 25L39 25L39 24ZM12 25L12 26L13 26L13 25ZM32 25L32 26L34 26L34 25ZM5 27L5 30L8 30L8 27ZM27 27L27 30L30 30L30 27ZM49 27L49 30L52 30L52 27ZM3 28L3 30L4 30L4 28ZM6 28L6 29L7 29L7 28ZM28 28L28 29L29 29L29 28ZM50 28L50 29L51 29L51 28ZM54 28L54 29L55 29L55 28ZM13 29L13 30L14 30L14 32L13 32L13 33L14 33L14 37L15 37L15 38L16 38L16 37L15 37L15 36L16 36L16 35L17 35L17 34L16 34L16 33L17 33L17 32L16 32L16 31L17 31L17 30L16 30L16 31L15 31L15 30L14 30L14 29ZM53 30L53 31L55 31L55 30ZM4 31L4 32L3 32L3 33L2 33L2 34L1 34L1 35L4 35L4 32L7 32L7 31ZM19 31L19 33L20 33L20 34L21 34L21 33L20 33L20 31ZM21 31L21 32L22 32L22 33L25 33L25 34L26 34L26 33L27 33L27 31L25 31L25 32L24 32L24 31ZM28 31L28 32L29 32L29 33L30 33L30 32L29 32L29 31ZM46 31L46 32L47 32L47 31ZM15 32L15 33L16 33L16 32ZM25 32L25 33L26 33L26 32ZM39 32L39 33L40 33L40 34L41 34L41 35L43 35L43 34L41 34L41 32ZM9 33L9 34L10 34L10 35L11 35L11 33ZM54 33L54 34L57 34L57 33ZM25 36L25 38L26 38L26 36ZM30 36L30 38L31 38L31 36ZM40 36L40 37L38 37L38 38L40 38L40 39L41 39L41 37L43 37L43 36ZM8 37L8 38L5 38L5 40L6 40L6 41L7 41L7 40L6 40L6 39L8 39L8 38L9 38L9 39L10 39L10 38L9 38L9 37ZM21 37L21 39L22 39L22 37ZM23 37L23 38L24 38L24 37ZM47 37L47 38L46 38L46 39L47 39L47 38L48 38L48 39L50 39L50 38L48 38L48 37ZM19 38L19 39L18 39L18 40L19 40L19 41L20 41L20 43L19 43L19 44L21 44L21 43L22 43L22 42L21 42L21 41L20 41L20 40L19 40L19 39L20 39L20 38ZM32 39L32 40L33 40L33 39ZM44 40L44 41L45 41L45 40ZM16 41L16 43L18 43L18 42L17 42L17 41ZM26 41L26 42L27 42L27 41ZM5 42L5 43L9 43L9 42ZM41 42L41 43L42 43L42 42ZM43 42L43 43L45 43L45 42ZM50 42L50 43L51 43L51 42ZM17 44L17 45L18 45L18 44ZM37 44L37 45L38 45L38 44ZM39 44L39 45L41 45L41 46L42 46L42 47L45 47L45 44ZM54 44L54 45L55 45L55 46L56 46L56 45L55 45L55 44ZM42 45L42 46L44 46L44 45ZM49 46L49 47L50 47L50 46ZM35 47L35 48L34 48L34 49L35 49L35 48L36 48L36 49L37 49L37 48L38 48L38 47L37 47L37 48L36 48L36 47ZM6 48L6 49L7 49L7 48ZM10 48L10 49L11 49L11 50L12 50L12 49L11 49L11 48ZM18 48L18 49L19 49L19 48ZM13 49L13 51L12 51L12 53L13 53L13 52L14 52L14 51L15 51L15 50L14 50L14 49ZM27 49L27 52L30 52L30 49ZM42 49L42 50L41 50L41 51L40 51L40 52L41 52L41 51L42 51L42 50L43 50L43 49ZM49 49L49 52L52 52L52 49ZM9 50L9 51L10 51L10 52L9 52L9 53L10 53L10 52L11 52L11 51L10 51L10 50ZM22 50L22 53L24 53L24 52L25 52L25 53L26 53L26 50L25 50L25 51L23 51L23 50ZM28 50L28 51L29 51L29 50ZM33 50L33 51L32 51L32 52L33 52L33 53L34 53L34 52L33 52L33 51L35 51L35 52L36 52L36 51L35 51L35 50ZM50 50L50 51L51 51L51 50ZM53 51L53 53L55 53L55 52L54 52L54 51ZM14 53L14 54L12 54L12 55L13 55L13 56L14 56L14 55L15 55L15 54L16 54L16 53ZM9 54L9 56L11 56L11 54ZM23 55L23 57L24 57L24 55ZM27 55L27 56L28 56L28 55ZM47 55L47 56L48 56L48 55ZM43 56L43 57L44 57L44 56ZM0 0L0 7L7 7L7 0ZM1 1L1 6L6 6L6 1ZM2 2L2 5L5 5L5 2ZM50 0L50 7L57 7L57 0ZM51 1L51 6L56 6L56 1ZM52 2L52 5L55 5L55 2ZM0 50L0 57L7 57L7 50ZM1 51L1 56L6 56L6 51ZM2 52L2 55L5 55L5 52Z" fill="#000000"/></g></g></svg>
