<?xml version="1.0" encoding="UTF-8"?>
<svg xmlns="http://www.w3.org/2000/svg" version="1.1" width="300" height="300" viewBox="0 0 300 300"><rect x="0" y="0" width="300" height="300" fill="#ffffff"/><g transform="scale(4.918)"><g transform="translate(2,2)"><path fill-rule="evenodd" d="M8 0L8 4L9 4L9 5L8 5L8 7L9 7L9 6L10 6L10 9L9 9L9 10L5 10L5 9L7 9L7 8L4 8L4 9L2 9L2 8L0 8L0 10L1 10L1 11L2 11L2 10L5 10L5 11L4 11L4 12L6 12L6 13L7 13L7 14L6 14L6 15L7 15L7 16L5 16L5 13L4 13L4 14L3 14L3 12L0 12L0 15L1 15L1 16L2 16L2 14L3 14L3 15L4 15L4 16L3 16L3 17L2 17L2 18L1 18L1 17L0 17L0 18L1 18L1 19L0 19L0 20L1 20L1 21L2 21L2 22L3 22L3 23L1 23L1 24L0 24L0 25L1 25L1 26L0 26L0 27L2 27L2 28L0 28L0 29L2 29L2 31L1 31L1 30L0 30L0 32L1 32L1 33L2 33L2 35L3 35L3 36L2 36L2 37L3 37L3 38L1 38L1 37L0 37L0 38L1 38L1 39L0 39L0 41L1 41L1 39L2 39L2 42L3 42L3 43L1 43L1 42L0 42L0 44L1 44L1 46L0 46L0 48L5 48L5 47L7 47L7 46L6 46L6 45L9 45L9 47L8 47L8 48L6 48L6 49L8 49L8 50L9 50L9 51L8 51L8 53L9 53L9 54L10 54L10 53L11 53L11 52L12 52L12 55L10 55L10 56L9 56L9 55L8 55L8 57L12 57L12 55L13 55L13 54L14 54L14 57L15 57L15 55L16 55L16 54L17 54L17 57L19 57L19 56L18 56L18 55L20 55L20 54L22 54L22 56L23 56L23 57L24 57L24 56L26 56L26 57L28 57L28 56L29 56L29 55L30 55L30 57L31 57L31 55L33 55L33 56L32 56L32 57L34 57L34 55L35 55L35 54L34 54L34 52L33 52L33 51L34 51L34 48L35 48L35 47L36 47L36 49L35 49L35 50L36 50L36 49L37 49L37 51L36 51L36 53L37 53L37 52L38 52L38 51L42 51L42 53L41 53L41 54L39 54L39 53L38 53L38 54L39 54L39 55L38 55L38 56L35 56L35 57L40 57L40 56L41 56L41 55L42 55L42 54L44 54L44 53L45 53L45 55L44 55L44 57L46 57L46 56L48 56L48 55L47 55L47 54L46 54L46 52L47 52L47 51L48 51L48 54L50 54L50 55L49 55L49 57L51 57L51 56L52 56L52 55L53 55L53 53L54 53L54 52L53 52L53 50L55 50L55 52L56 52L56 53L55 53L55 54L57 54L57 52L56 52L56 45L57 45L57 43L56 43L56 42L57 42L57 40L53 40L53 39L54 39L54 36L51 36L51 35L50 35L50 37L47 37L47 38L46 38L46 35L45 35L45 36L44 36L44 35L43 35L43 33L44 33L44 34L45 34L45 33L47 33L47 34L48 34L48 35L49 35L49 34L50 34L50 32L51 32L51 31L52 31L52 33L51 33L51 34L52 34L52 33L53 33L53 35L54 35L54 34L55 34L55 33L53 33L53 29L54 29L54 28L53 28L53 27L56 27L56 28L55 28L55 32L56 32L56 33L57 33L57 31L56 31L56 29L57 29L57 27L56 27L56 26L55 26L55 25L57 25L57 23L56 23L56 22L55 22L55 21L54 21L54 20L53 20L53 21L54 21L54 22L52 22L52 21L51 21L51 20L52 20L52 19L53 19L53 17L54 17L54 18L55 18L55 19L56 19L56 17L54 17L54 15L53 15L53 14L55 14L55 15L56 15L56 16L57 16L57 15L56 15L56 13L57 13L57 11L56 11L56 13L53 13L53 14L52 14L52 15L51 15L51 13L52 13L52 12L51 12L51 13L50 13L50 12L49 12L49 13L47 13L47 14L49 14L49 15L47 15L47 18L48 18L48 19L49 19L49 20L47 20L47 19L44 19L44 17L45 17L45 16L46 16L46 14L43 14L43 12L44 12L44 13L45 13L45 11L43 11L43 10L44 10L44 9L45 9L45 8L46 8L46 7L47 7L47 9L48 9L48 11L51 11L51 9L52 9L52 11L53 11L53 12L54 12L54 11L55 11L55 10L54 10L54 11L53 11L53 9L57 9L57 8L53 8L53 9L52 9L52 8L51 8L51 9L48 9L48 8L49 8L49 6L48 6L48 7L47 7L47 5L48 5L48 0L46 0L46 1L45 1L45 0L44 0L44 1L43 1L43 0L42 0L42 1L41 1L41 0L36 0L36 1L32 1L32 2L30 2L30 1L31 1L31 0L30 0L30 1L29 1L29 0L28 0L28 1L27 1L27 0L26 0L26 1L25 1L25 0L23 0L23 2L22 2L22 1L21 1L21 0L20 0L20 1L16 1L16 2L15 2L15 1L13 1L13 0L12 0L12 2L11 2L11 0ZM9 1L9 3L10 3L10 1ZM20 1L20 2L18 2L18 5L20 5L20 6L19 6L19 7L18 7L18 6L17 6L17 4L16 4L16 3L14 3L14 6L13 6L13 8L15 8L15 7L16 7L16 6L17 6L17 7L18 7L18 8L19 8L19 7L20 7L20 6L21 6L21 7L22 7L22 6L23 6L23 7L24 7L24 8L25 8L25 9L26 9L26 6L25 6L25 7L24 7L24 6L23 6L23 5L24 5L24 4L25 4L25 3L26 3L26 4L27 4L27 3L29 3L29 4L31 4L31 3L29 3L29 1L28 1L28 2L27 2L27 1L26 1L26 2L24 2L24 3L23 3L23 5L22 5L22 3L21 3L21 1ZM37 1L37 2L39 2L39 1ZM40 1L40 3L41 3L41 4L44 4L44 5L45 5L45 7L46 7L46 5L47 5L47 3L41 3L41 1ZM42 1L42 2L43 2L43 1ZM46 1L46 2L47 2L47 1ZM12 2L12 3L13 3L13 2ZM32 3L32 4L34 4L34 5L33 5L33 7L32 7L32 6L31 6L31 8L33 8L33 9L34 9L34 10L35 10L35 13L34 13L34 12L33 12L33 13L32 13L32 12L30 12L30 9L28 9L28 10L27 10L27 11L26 11L26 10L23 10L23 8L22 8L22 9L21 9L21 8L20 8L20 9L19 9L19 10L18 10L18 9L17 9L17 8L16 8L16 10L18 10L18 11L17 11L17 13L16 13L16 15L17 15L17 13L18 13L18 12L19 12L19 13L21 13L21 15L18 15L18 16L20 16L20 17L21 17L21 18L19 18L19 17L16 17L16 16L15 16L15 17L14 17L14 15L15 15L15 14L14 14L14 15L13 15L13 13L15 13L15 12L14 12L14 11L13 11L13 10L15 10L15 9L13 9L13 10L12 10L12 12L11 12L11 9L12 9L12 8L11 8L11 9L10 9L10 12L8 12L8 14L7 14L7 15L8 15L8 17L6 17L6 18L5 18L5 16L4 16L4 18L5 18L5 19L6 19L6 20L5 20L5 21L4 21L4 19L3 19L3 18L2 18L2 19L3 19L3 20L2 20L2 21L4 21L4 25L5 25L5 26L8 26L8 25L9 25L9 28L10 28L10 27L11 27L11 26L17 26L17 27L18 27L18 25L15 25L15 24L21 24L21 23L22 23L22 25L21 25L21 26L22 26L22 25L23 25L23 24L24 24L24 23L23 23L23 22L20 22L20 23L19 23L19 21L20 21L20 20L19 20L19 21L17 21L17 19L21 19L21 21L24 21L24 22L25 22L25 23L26 23L26 22L27 22L27 23L28 23L28 25L26 25L26 26L28 26L28 25L29 25L29 24L30 24L30 25L32 25L32 26L31 26L31 30L32 30L32 27L33 27L33 29L34 29L34 31L33 31L33 32L34 32L34 31L35 31L35 33L32 33L32 34L30 34L30 35L29 35L29 36L28 36L28 34L29 34L29 33L30 33L30 32L29 32L29 33L28 33L28 31L24 31L24 29L25 29L25 28L26 28L26 27L25 27L25 26L23 26L23 28L22 28L22 27L20 27L20 25L19 25L19 28L18 28L18 29L16 29L16 28L14 28L14 27L13 27L13 28L11 28L11 29L9 29L9 30L11 30L11 29L13 29L13 28L14 28L14 31L13 31L13 30L12 30L12 31L11 31L11 32L12 32L12 34L13 34L13 35L14 35L14 36L15 36L15 35L14 35L14 34L13 34L13 32L14 32L14 33L15 33L15 34L16 34L16 35L17 35L17 36L16 36L16 37L13 37L13 36L11 36L11 33L10 33L10 32L9 32L9 31L8 31L8 33L5 33L5 34L4 34L4 35L5 35L5 34L7 34L7 35L6 35L6 36L3 36L3 37L4 37L4 38L3 38L3 39L4 39L4 38L5 38L5 37L6 37L6 38L7 38L7 39L5 39L5 40L4 40L4 41L3 41L3 42L5 42L5 40L9 40L9 42L8 42L8 43L6 43L6 44L9 44L9 45L10 45L10 47L9 47L9 48L8 48L8 49L10 49L10 50L11 50L11 49L15 49L15 50L14 50L14 52L15 52L15 53L14 53L14 54L15 54L15 53L17 53L17 54L19 54L19 53L20 53L20 52L19 52L19 49L16 49L16 48L10 48L10 47L12 47L12 46L13 46L13 47L14 47L14 46L13 46L13 45L15 45L15 46L16 46L16 47L17 47L17 48L18 48L18 47L19 47L19 48L20 48L20 49L21 49L21 53L24 53L24 54L26 54L26 55L28 55L28 54L27 54L27 53L24 53L24 52L26 52L26 48L27 48L27 47L29 47L29 48L31 48L31 53L30 53L30 54L32 54L32 51L33 51L33 49L32 49L32 46L29 46L29 45L27 45L27 47L26 47L26 46L23 46L23 45L26 45L26 43L27 43L27 41L28 41L28 42L30 42L30 43L29 43L29 44L30 44L30 45L32 45L32 43L36 43L36 44L37 44L37 43L38 43L38 44L40 44L40 49L41 49L41 47L42 47L42 45L44 45L44 44L45 44L45 46L44 46L44 47L43 47L43 51L44 51L44 52L43 52L43 53L44 53L44 52L45 52L45 50L44 50L44 47L45 47L45 48L46 48L46 51L47 51L47 50L48 50L48 48L46 48L46 47L47 47L47 46L49 46L49 45L50 45L50 44L49 44L49 43L48 43L48 42L50 42L50 43L51 43L51 41L52 41L52 43L53 43L53 44L54 44L54 45L52 45L52 44L51 44L51 45L52 45L52 46L50 46L50 47L49 47L49 48L50 48L50 47L52 47L52 48L53 48L53 47L52 47L52 46L54 46L54 45L55 45L55 42L54 42L54 41L52 41L52 39L53 39L53 37L50 37L50 39L51 39L51 41L49 41L49 40L47 40L47 39L49 39L49 38L47 38L47 39L46 39L46 38L45 38L45 37L44 37L44 36L43 36L43 35L42 35L42 33L43 33L43 31L42 31L42 29L43 29L43 28L44 28L44 26L43 26L43 27L42 27L42 24L41 24L41 23L43 23L43 25L44 25L44 22L45 22L45 21L44 21L44 22L41 22L41 21L43 21L43 20L41 20L41 19L42 19L42 17L41 17L41 15L42 15L42 16L43 16L43 15L42 15L42 12L43 12L43 11L42 11L42 12L40 12L40 13L41 13L41 15L39 15L39 14L38 14L38 12L37 12L37 13L36 13L36 11L37 11L37 10L38 10L38 11L39 11L39 10L40 10L40 9L44 9L44 6L43 6L43 7L42 7L42 5L40 5L40 6L39 6L39 7L38 7L38 4L37 4L37 3L36 3L36 4L34 4L34 3ZM10 4L10 5L11 5L11 7L12 7L12 4ZM36 4L36 5L35 5L35 6L34 6L34 7L33 7L33 8L34 8L34 7L35 7L35 10L36 10L36 9L37 9L37 6L36 6L36 5L37 5L37 4ZM15 5L15 6L14 6L14 7L15 7L15 6L16 6L16 5ZM27 5L27 8L30 8L30 5ZM28 6L28 7L29 7L29 6ZM35 6L35 7L36 7L36 6ZM40 6L40 7L39 7L39 9L38 9L38 10L39 10L39 9L40 9L40 8L42 8L42 7L41 7L41 6ZM20 9L20 10L21 10L21 9ZM31 9L31 10L32 10L32 9ZM28 10L28 11L27 11L27 12L28 12L28 11L29 11L29 10ZM6 11L6 12L7 12L7 11ZM19 11L19 12L21 12L21 13L23 13L23 14L22 14L22 15L21 15L21 16L24 16L24 17L22 17L22 18L21 18L21 19L22 19L22 20L23 20L23 18L25 18L25 20L24 20L24 21L27 21L27 20L26 20L26 18L27 18L27 17L28 17L28 18L29 18L29 19L31 19L31 20L29 20L29 21L28 21L28 22L29 22L29 21L30 21L30 23L31 23L31 24L32 24L32 25L33 25L33 27L34 27L34 25L37 25L37 27L36 27L36 26L35 26L35 28L34 28L34 29L38 29L38 30L40 30L40 31L41 31L41 30L40 30L40 29L39 29L39 28L38 28L38 27L41 27L41 28L42 28L42 27L41 27L41 25L39 25L39 24L34 24L34 21L35 21L35 20L36 20L36 21L38 21L38 22L37 22L37 23L41 23L41 22L40 22L40 21L39 21L39 20L37 20L37 19L40 19L40 18L39 18L39 16L38 16L38 15L37 15L37 14L36 14L36 13L35 13L35 14L36 14L36 18L35 18L35 19L34 19L34 20L33 20L33 19L31 19L31 18L33 18L33 16L35 16L35 15L34 15L34 13L33 13L33 14L32 14L32 13L31 13L31 14L32 14L32 15L31 15L31 17L29 17L29 16L30 16L30 13L23 13L23 12L24 12L24 11L23 11L23 12L22 12L22 11ZM46 11L46 12L47 12L47 11ZM12 12L12 13L13 13L13 12ZM9 13L9 14L8 14L8 15L9 15L9 14L10 14L10 15L11 15L11 16L9 16L9 17L8 17L8 18L9 18L9 19L7 19L7 18L6 18L6 19L7 19L7 20L6 20L6 21L5 21L5 23L9 23L9 24L10 24L10 26L11 26L11 25L13 25L13 24L14 24L14 23L16 23L16 22L17 22L17 23L18 23L18 22L17 22L17 21L15 21L15 20L16 20L16 18L15 18L15 20L14 20L14 19L13 19L13 16L12 16L12 15L11 15L11 14L10 14L10 13ZM24 14L24 16L25 16L25 17L27 17L27 14L26 14L26 15L25 15L25 14ZM28 14L28 15L29 15L29 14ZM49 15L49 19L50 19L50 20L49 20L49 22L47 22L47 21L46 21L46 22L47 22L47 24L46 24L46 23L45 23L45 24L46 24L46 26L48 26L48 25L49 25L49 26L50 26L50 25L51 25L51 26L54 26L54 25L55 25L55 23L52 23L52 22L51 22L51 23L50 23L50 20L51 20L51 19L52 19L52 17L53 17L53 16L52 16L52 17L51 17L51 16L50 16L50 15ZM10 17L10 18L11 18L11 19L12 19L12 18L11 18L11 17ZM50 17L50 19L51 19L51 17ZM9 19L9 20L7 20L7 21L6 21L6 22L7 22L7 21L10 21L10 22L9 22L9 23L11 23L11 24L12 24L12 23L13 23L13 22L14 22L14 21L13 21L13 20L10 20L10 19ZM31 20L31 22L33 22L33 21L32 21L32 20ZM56 20L56 21L57 21L57 20ZM35 22L35 23L36 23L36 22ZM49 23L49 25L50 25L50 23ZM51 23L51 25L52 25L52 23ZM1 24L1 25L3 25L3 24ZM5 24L5 25L7 25L7 24ZM47 24L47 25L48 25L48 24ZM2 26L2 27L4 27L4 26ZM5 27L5 30L8 30L8 27ZM24 27L24 28L23 28L23 29L24 29L24 28L25 28L25 27ZM27 27L27 30L30 30L30 27ZM47 27L47 29L46 29L46 28L45 28L45 31L47 31L47 33L48 33L48 34L49 34L49 32L50 32L50 31L49 31L49 32L48 32L48 31L47 31L47 30L48 30L48 27ZM49 27L49 30L52 30L52 27ZM2 28L2 29L3 29L3 28ZM6 28L6 29L7 29L7 28ZM19 28L19 29L18 29L18 30L15 30L15 31L14 31L14 32L15 32L15 33L17 33L17 34L18 34L18 33L19 33L19 34L20 34L20 35L21 35L21 36L18 36L18 37L17 37L17 38L16 38L16 39L15 39L15 40L14 40L14 39L13 39L13 41L12 41L12 40L10 40L10 41L11 41L11 44L12 44L12 45L13 45L13 43L12 43L12 42L13 42L13 41L15 41L15 42L14 42L14 43L15 43L15 44L16 44L16 45L17 45L17 47L18 47L18 46L19 46L19 45L20 45L20 47L23 47L23 46L21 46L21 45L23 45L23 44L24 44L24 42L26 42L26 41L27 41L27 40L30 40L30 42L31 42L31 43L30 43L30 44L31 44L31 43L32 43L32 42L31 42L31 41L33 41L33 42L34 42L34 41L33 41L33 39L35 39L35 38L37 38L37 37L38 37L38 38L39 38L39 37L38 37L38 36L37 36L37 35L36 35L36 33L38 33L38 35L41 35L41 38L40 38L40 39L38 39L38 40L35 40L35 42L37 42L37 41L38 41L38 42L40 42L40 40L41 40L41 39L43 39L43 41L41 41L41 42L42 42L42 43L43 43L43 44L44 44L44 43L45 43L45 44L46 44L46 45L47 45L47 44L46 44L46 43L45 43L45 42L46 42L46 41L47 41L47 40L46 40L46 39L43 39L43 38L44 38L44 37L43 37L43 36L42 36L42 35L41 35L41 33L42 33L42 32L41 32L41 33L40 33L40 34L39 34L39 32L38 32L38 31L36 31L36 33L35 33L35 35L33 35L33 36L32 36L32 35L31 35L31 36L32 36L32 38L33 38L33 39L32 39L32 40L31 40L31 39L29 39L29 38L30 38L30 36L29 36L29 38L28 38L28 39L27 39L27 38L26 38L26 36L27 36L27 37L28 37L28 36L27 36L27 35L26 35L26 34L28 34L28 33L26 33L26 32L24 32L24 31L23 31L23 32L24 32L24 33L23 33L23 34L21 34L21 33L22 33L22 31L21 31L21 33L20 33L20 31L19 31L19 32L15 32L15 31L18 31L18 30L19 30L19 29L20 29L20 30L22 30L22 29L20 29L20 28ZM28 28L28 29L29 29L29 28ZM50 28L50 29L51 29L51 28ZM2 31L2 33L3 33L3 31ZM4 31L4 32L7 32L7 31ZM12 31L12 32L13 32L13 31ZM8 33L8 35L7 35L7 36L6 36L6 37L7 37L7 38L9 38L9 37L10 37L10 38L11 38L11 39L12 39L12 38L13 38L13 37L12 37L12 38L11 38L11 36L10 36L10 33ZM0 34L0 36L1 36L1 34ZM8 35L8 36L7 36L7 37L8 37L8 36L9 36L9 35ZM22 35L22 37L18 37L18 38L19 38L19 39L17 39L17 40L16 40L16 42L15 42L15 43L16 43L16 42L18 42L18 43L17 43L17 45L18 45L18 44L20 44L20 45L21 45L21 43L22 43L22 44L23 44L23 42L21 42L21 43L20 43L20 41L21 41L21 40L19 40L19 39L20 39L20 38L21 38L21 39L22 39L22 37L23 37L23 39L24 39L24 40L22 40L22 41L25 41L25 40L27 40L27 39L25 39L25 38L24 38L24 37L23 37L23 35ZM24 35L24 36L26 36L26 35ZM55 35L55 37L57 37L57 35ZM35 36L35 37L34 37L34 38L35 38L35 37L36 37L36 36ZM55 38L55 39L57 39L57 38ZM17 40L17 41L19 41L19 40ZM45 40L45 41L46 41L46 40ZM6 41L6 42L7 42L7 41ZM9 42L9 43L10 43L10 42ZM43 42L43 43L44 43L44 42ZM53 42L53 43L54 43L54 42ZM3 43L3 47L5 47L5 46L4 46L4 43ZM34 44L34 47L33 47L33 48L34 48L34 47L35 47L35 46L36 46L36 47L37 47L37 48L38 48L38 49L39 49L39 47L37 47L37 45L35 45L35 44ZM1 46L1 47L2 47L2 46ZM45 46L45 47L46 47L46 46ZM54 47L54 49L55 49L55 47ZM21 48L21 49L22 49L22 48ZM23 48L23 50L22 50L22 52L24 52L24 51L25 51L25 48ZM27 49L27 52L30 52L30 49ZM49 49L49 52L52 52L52 49ZM15 50L15 52L16 52L16 51L17 51L17 52L18 52L18 53L19 53L19 52L18 52L18 50ZM28 50L28 51L29 51L29 50ZM50 50L50 51L51 51L51 50ZM12 51L12 52L13 52L13 51ZM51 53L51 55L50 55L50 56L51 56L51 55L52 55L52 53ZM33 54L33 55L34 55L34 54ZM23 55L23 56L24 56L24 55ZM45 55L45 56L46 56L46 55ZM42 56L42 57L43 57L43 56ZM53 56L53 57L55 57L55 56ZM56 56L56 57L57 57L57 56ZM0 0L0 7L7 7L7 0ZM1 1L1 6L6 6L6 1ZM2 2L2 5L5 5L5 2ZM50 0L50 7L57 7L57 0ZM51 1L51 6L56 6L56 1ZM52 2L52 5L55 5L55 2ZM0 50L0 57L7 57L7 50ZM1 51L1 56L6 56L6 51ZM2 52L2 55L5 55L5 52Z" fill="#000000"/></g></g></svg>
