<?xml version="1.0" encoding="UTF-8"?>
<svg xmlns="http://www.w3.org/2000/svg" version="1.1" width="300" height="300" viewBox="0 0 300 300"><rect x="0" y="0" width="300" height="300" fill="#ffffff"/><g transform="scale(4.918)"><g transform="translate(2,2)"><path fill-rule="evenodd" d="M9 0L9 1L8 1L8 2L9 2L9 3L8 3L8 4L9 4L9 3L11 3L11 4L10 4L10 5L8 5L8 7L9 7L9 6L10 6L10 7L11 7L11 6L12 6L12 8L6 8L6 9L8 9L8 10L6 10L6 11L7 11L7 12L6 12L6 13L5 13L5 14L3 14L3 12L5 12L5 11L3 11L3 12L2 12L2 10L4 10L4 9L5 9L5 8L0 8L0 10L1 10L1 13L0 13L0 15L1 15L1 17L0 17L0 19L1 19L1 18L2 18L2 17L4 17L4 19L5 19L5 20L6 20L6 21L8 21L8 18L6 18L6 17L8 17L8 16L9 16L9 17L10 17L10 18L11 18L11 15L10 15L10 14L13 14L13 15L12 15L12 17L13 17L13 18L15 18L15 21L16 21L16 22L15 22L15 23L16 23L16 24L14 24L14 23L13 23L13 25L11 25L11 24L10 24L10 23L8 23L8 24L9 24L9 25L8 25L8 26L6 26L6 25L7 25L7 24L5 24L5 23L7 23L7 22L5 22L5 21L4 21L4 22L3 22L3 21L2 21L2 20L0 20L0 23L1 23L1 24L2 24L2 26L1 26L1 25L0 25L0 26L1 26L1 27L0 27L0 30L2 30L2 32L3 32L3 33L5 33L5 31L7 31L7 32L6 32L6 33L7 33L7 32L11 32L11 29L12 29L12 31L13 31L13 32L12 32L12 33L13 33L13 35L15 35L15 36L18 36L18 37L19 37L19 38L18 38L18 39L17 39L17 41L18 41L18 43L17 43L17 44L15 44L15 43L14 43L14 42L13 42L13 43L12 43L12 42L11 42L11 43L9 43L9 44L5 44L5 42L6 42L6 43L8 43L8 42L10 42L10 41L13 41L13 40L11 40L11 39L10 39L10 38L12 38L12 39L14 39L14 36L13 36L13 37L12 37L12 34L11 34L11 33L10 33L10 34L9 34L9 33L8 33L8 34L6 34L6 35L5 35L5 34L4 34L4 36L5 36L5 37L8 37L8 38L5 38L5 39L7 39L7 40L6 40L6 41L5 41L5 40L4 40L4 39L3 39L3 40L4 40L4 41L3 41L3 42L2 42L2 33L1 33L1 35L0 35L0 36L1 36L1 39L0 39L0 40L1 40L1 41L0 41L0 42L1 42L1 43L3 43L3 44L2 44L2 47L1 47L1 44L0 44L0 48L5 48L5 47L7 47L7 48L6 48L6 49L7 49L7 48L8 48L8 47L7 47L7 46L6 46L6 45L8 45L8 46L9 46L9 44L10 44L10 48L9 48L9 49L8 49L8 51L10 51L10 50L9 50L9 49L11 49L11 52L12 52L12 53L10 53L10 52L8 52L8 57L10 57L10 55L12 55L12 53L13 53L13 57L14 57L14 56L15 56L15 55L16 55L16 57L17 57L17 56L18 56L18 57L20 57L20 56L18 56L18 55L17 55L17 53L16 53L16 51L17 51L17 50L16 50L16 49L17 49L17 47L16 47L16 45L17 45L17 46L19 46L19 47L18 47L18 49L19 49L19 47L20 47L20 46L19 46L19 45L21 45L21 47L22 47L22 48L20 48L20 49L21 49L21 50L20 50L20 51L22 51L22 52L21 52L21 53L22 53L22 54L24 54L24 53L25 53L25 55L26 55L26 54L27 54L27 53L28 53L28 54L30 54L30 53L31 53L31 56L30 56L30 55L29 55L29 56L30 56L30 57L32 57L32 56L33 56L33 57L38 57L38 56L37 56L37 54L38 54L38 52L39 52L39 55L40 55L40 56L39 56L39 57L40 57L40 56L41 56L41 57L44 57L44 56L45 56L45 57L46 57L46 55L49 55L49 56L50 56L50 54L54 54L54 53L53 53L53 52L55 52L55 51L56 51L56 50L57 50L57 49L56 49L56 48L57 48L57 47L56 47L56 46L57 46L57 45L56 45L56 42L57 42L57 41L56 41L56 42L55 42L55 39L57 39L57 37L54 37L54 36L56 36L56 35L55 35L55 34L57 34L57 31L56 31L56 30L57 30L57 27L56 27L56 26L55 26L55 25L54 25L54 24L56 24L56 22L57 22L57 20L56 20L56 21L54 21L54 20L55 20L55 18L57 18L57 17L52 17L52 18L54 18L54 19L52 19L52 20L51 20L51 22L50 22L50 19L49 19L49 20L48 20L48 21L47 21L47 23L45 23L45 21L44 21L44 24L43 24L43 20L47 20L47 18L50 18L50 17L47 17L47 18L45 18L45 17L44 17L44 16L46 16L46 15L49 15L49 13L47 13L47 14L46 14L46 12L45 12L45 15L44 15L44 14L43 14L43 13L44 13L44 12L43 12L43 11L45 11L45 10L46 10L46 11L50 11L50 13L51 13L51 14L50 14L50 15L51 15L51 14L52 14L52 13L51 13L51 10L49 10L49 9L50 9L50 8L49 8L49 6L48 6L48 8L47 8L47 5L48 5L48 0L46 0L46 1L47 1L47 2L44 2L44 0L40 0L40 1L37 1L37 0L35 0L35 1L34 1L34 0L28 0L28 1L25 1L25 0L21 0L21 2L20 2L20 3L21 3L21 4L19 4L19 1L20 1L20 0L19 0L19 1L18 1L18 2L17 2L17 4L19 4L19 5L20 5L20 7L19 7L19 6L18 6L18 7L17 7L17 6L16 6L16 7L15 7L15 5L16 5L16 4L14 4L14 2L15 2L15 3L16 3L16 2L15 2L15 1L16 1L16 0L12 0L12 1L10 1L10 0ZM9 1L9 2L10 2L10 1ZM12 1L12 3L13 3L13 2L14 2L14 1ZM22 1L22 2L21 2L21 3L22 3L22 4L21 4L21 8L19 8L19 9L17 9L17 7L16 7L16 8L14 8L14 4L11 4L11 5L10 5L10 6L11 6L11 5L13 5L13 8L12 8L12 11L11 11L11 9L10 9L10 13L8 13L8 12L9 12L9 11L8 11L8 12L7 12L7 13L6 13L6 14L5 14L5 15L2 15L2 16L4 16L4 17L6 17L6 16L8 16L8 15L6 15L6 14L10 14L10 13L13 13L13 14L14 14L14 15L13 15L13 16L14 16L14 17L16 17L16 18L17 18L17 19L16 19L16 21L18 21L18 22L17 22L17 24L18 24L18 23L19 23L19 25L20 25L20 26L18 26L18 25L13 25L13 26L16 26L16 27L15 27L15 29L14 29L14 28L13 28L13 27L12 27L12 26L11 26L11 25L10 25L10 27L9 27L9 28L10 28L10 27L12 27L12 28L13 28L13 29L14 29L14 30L13 30L13 31L14 31L14 30L17 30L17 31L16 31L16 32L17 32L17 31L18 31L18 32L19 32L19 33L16 33L16 34L19 34L19 35L18 35L18 36L19 36L19 37L23 37L23 38L21 38L21 39L23 39L23 40L22 40L22 41L21 41L21 40L19 40L19 41L20 41L20 42L19 42L19 44L20 44L20 43L22 43L22 41L24 41L24 39L23 39L23 38L24 38L24 37L23 37L23 36L24 36L24 35L23 35L23 34L22 34L22 33L25 33L25 34L26 34L26 33L27 33L27 35L25 35L25 38L26 38L26 36L27 36L27 37L28 37L28 38L27 38L27 39L25 39L25 43L24 43L24 42L23 42L23 45L22 45L22 44L21 44L21 45L22 45L22 47L23 47L23 48L22 48L22 49L26 49L26 48L29 48L29 46L32 46L32 47L33 47L33 46L35 46L35 43L37 43L37 44L39 44L39 45L38 45L38 46L37 46L37 45L36 45L36 46L37 46L37 47L34 47L34 48L31 48L31 47L30 47L30 48L31 48L31 50L32 50L32 51L31 51L31 52L32 52L32 54L34 54L34 56L35 56L35 55L36 55L36 54L37 54L37 53L36 53L36 52L37 52L37 51L38 51L38 50L39 50L39 52L40 52L40 55L43 55L43 56L44 56L44 55L45 55L45 54L48 54L48 52L47 52L47 51L48 51L48 48L50 48L50 47L53 47L53 48L54 48L54 49L53 49L53 51L55 51L55 50L56 50L56 49L55 49L55 48L54 48L54 47L53 47L53 46L54 46L54 45L55 45L55 46L56 46L56 45L55 45L55 44L54 44L54 45L52 45L52 44L53 44L53 43L54 43L54 40L53 40L53 41L52 41L52 42L50 42L50 43L51 43L51 44L49 44L49 46L47 46L47 45L48 45L48 44L47 44L47 45L46 45L46 46L47 46L47 47L45 47L45 46L44 46L44 45L45 45L45 44L41 44L41 43L46 43L46 42L47 42L47 43L49 43L49 41L51 41L51 40L52 40L52 39L54 39L54 37L53 37L53 36L52 36L52 34L53 34L53 33L55 33L55 32L56 32L56 31L55 31L55 32L53 32L53 31L54 31L54 30L53 30L53 31L51 31L51 32L50 32L50 31L48 31L48 28L47 28L47 27L48 27L48 25L49 25L49 23L50 23L50 24L51 24L51 25L50 25L50 26L51 26L51 25L52 25L52 26L53 26L53 27L55 27L55 28L54 28L54 29L55 29L55 30L56 30L56 29L55 29L55 28L56 28L56 27L55 27L55 26L54 26L54 25L53 25L53 24L54 24L54 23L53 23L53 22L54 22L54 21L53 21L53 20L52 20L52 21L53 21L53 22L52 22L52 23L53 23L53 24L51 24L51 23L50 23L50 22L49 22L49 23L47 23L47 24L44 24L44 25L43 25L43 26L41 26L41 25L42 25L42 24L38 24L38 26L40 26L40 27L41 27L41 28L39 28L39 27L38 27L38 29L36 29L36 30L35 30L35 29L33 29L33 28L34 28L34 27L31 27L31 28L32 28L32 29L31 29L31 31L28 31L28 32L29 32L29 33L27 33L27 31L25 31L25 30L26 30L26 27L25 27L25 28L23 28L23 27L24 27L24 26L22 26L22 27L20 27L20 26L21 26L21 25L25 25L25 26L26 26L26 25L27 25L27 24L28 24L28 25L31 25L31 26L32 26L32 25L31 25L31 24L33 24L33 26L35 26L35 28L36 28L36 25L34 25L34 24L35 24L35 23L36 23L36 24L37 24L37 23L36 23L36 22L39 22L39 21L36 21L36 20L38 20L38 18L39 18L39 20L40 20L40 21L41 21L41 20L42 20L42 19L45 19L45 18L42 18L42 17L43 17L43 16L44 16L44 15L43 15L43 14L42 14L42 10L41 10L41 12L38 12L38 13L36 13L36 16L35 16L35 15L33 15L33 16L30 16L30 14L32 14L32 13L33 13L33 14L35 14L35 13L33 13L33 12L31 12L31 11L33 11L33 10L34 10L34 12L37 12L37 11L38 11L38 10L40 10L40 9L41 9L41 8L40 8L40 6L39 6L39 7L38 7L38 5L39 5L39 3L38 3L38 5L36 5L36 3L37 3L37 1L35 1L35 4L33 4L33 3L32 3L32 4L31 4L31 3L30 3L30 2L34 2L34 1L29 1L29 3L28 3L28 2L25 2L25 1L24 1L24 2L23 2L23 1ZM40 1L40 2L41 2L41 3L40 3L40 5L41 5L41 3L42 3L42 4L43 4L43 5L42 5L42 6L41 6L41 7L42 7L42 6L43 6L43 7L44 7L44 9L46 9L46 10L48 10L48 9L49 9L49 8L48 8L48 9L47 9L47 8L46 8L46 6L45 6L45 5L44 5L44 4L46 4L46 5L47 5L47 3L42 3L42 2L43 2L43 1ZM24 2L24 3L23 3L23 4L22 4L22 5L23 5L23 6L22 6L22 8L23 8L23 6L24 6L24 8L25 8L25 9L23 9L23 10L22 10L22 11L21 11L21 10L20 10L20 9L19 9L19 10L18 10L18 11L17 11L17 12L15 12L15 11L16 11L16 10L13 10L13 11L14 11L14 12L13 12L13 13L17 13L17 14L16 14L16 15L15 15L15 16L16 16L16 17L17 17L17 18L18 18L18 19L19 19L19 18L20 18L20 19L21 19L21 20L22 20L22 18L23 18L23 19L24 19L24 21L21 21L21 24L20 24L20 25L21 25L21 24L22 24L22 23L23 23L23 24L24 24L24 23L23 23L23 22L24 22L24 21L25 21L25 22L26 22L26 23L25 23L25 24L27 24L27 23L28 23L28 24L31 24L31 23L33 23L33 24L34 24L34 23L33 23L33 21L32 21L32 20L34 20L34 21L35 21L35 18L34 18L34 16L33 16L33 17L29 17L29 16L28 16L28 15L29 15L29 14L30 14L30 13L28 13L28 12L30 12L30 10L32 10L32 9L31 9L31 8L32 8L32 7L33 7L33 6L34 6L34 7L35 7L35 6L36 6L36 7L37 7L37 8L35 8L35 9L37 9L37 10L36 10L36 11L37 11L37 10L38 10L38 9L37 9L37 8L38 8L38 7L37 7L37 6L36 6L36 5L33 5L33 6L32 6L32 7L31 7L31 4L30 4L30 3L29 3L29 4L28 4L28 3L27 3L27 4L26 4L26 3L25 3L25 2ZM23 4L23 5L24 5L24 4ZM25 4L25 8L26 8L26 4ZM27 5L27 8L30 8L30 5ZM28 6L28 7L29 7L29 6ZM44 6L44 7L45 7L45 6ZM13 8L13 9L14 9L14 8ZM33 8L33 9L34 9L34 8ZM51 8L51 9L52 9L52 8ZM53 8L53 9L54 9L54 8ZM55 8L55 10L57 10L57 9L56 9L56 8ZM1 9L1 10L2 10L2 9ZM25 9L25 11L24 11L24 13L22 13L22 12L21 12L21 11L20 11L20 12L21 12L21 13L19 13L19 15L20 15L20 16L19 16L19 17L18 17L18 18L19 18L19 17L20 17L20 18L21 18L21 17L23 17L23 16L24 16L24 17L25 17L25 18L26 18L26 20L25 20L25 21L26 21L26 20L27 20L27 21L29 21L29 22L30 22L30 23L31 23L31 22L30 22L30 21L31 21L31 20L30 20L30 19L34 19L34 18L29 18L29 20L27 20L27 19L28 19L28 18L26 18L26 16L27 16L27 17L28 17L28 16L27 16L27 14L28 14L28 13L27 13L27 14L26 14L26 13L25 13L25 12L27 12L27 11L26 11L26 10L29 10L29 9ZM53 10L53 11L52 11L52 12L53 12L53 11L54 11L54 12L56 12L56 13L54 13L54 14L55 14L55 15L53 15L53 16L56 16L56 14L57 14L57 11L54 11L54 10ZM17 12L17 13L18 13L18 12ZM1 13L1 14L2 14L2 13ZM21 13L21 14L22 14L22 13ZM24 13L24 14L23 14L23 15L24 15L24 16L26 16L26 15L25 15L25 13ZM17 14L17 15L16 15L16 16L17 16L17 15L18 15L18 14ZM37 14L37 15L39 15L39 16L41 16L41 17L39 17L39 18L41 18L41 19L40 19L40 20L41 20L41 19L42 19L42 18L41 18L41 17L42 17L42 16L43 16L43 15L42 15L42 14L40 14L40 15L39 15L39 14ZM9 15L9 16L10 16L10 15ZM21 15L21 16L20 16L20 17L21 17L21 16L22 16L22 15ZM41 15L41 16L42 16L42 15ZM36 16L36 17L37 17L37 18L36 18L36 19L37 19L37 18L38 18L38 17L37 17L37 16ZM6 19L6 20L7 20L7 19ZM10 19L10 22L11 22L11 23L12 23L12 22L14 22L14 21L12 21L12 20L14 20L14 19ZM18 20L18 21L20 21L20 20ZM19 22L19 23L20 23L20 22ZM40 22L40 23L42 23L42 22ZM47 24L47 25L48 25L48 24ZM3 25L3 26L5 26L5 25ZM44 25L44 26L43 26L43 27L42 27L42 28L45 28L45 29L44 29L44 30L43 30L43 29L42 29L42 30L41 30L41 29L40 29L40 30L36 30L36 31L37 31L37 32L34 32L34 33L32 33L32 32L33 32L33 31L35 31L35 30L33 30L33 31L32 31L32 32L30 32L30 33L29 33L29 34L30 34L30 35L29 35L29 39L31 39L31 38L32 38L32 35L31 35L31 33L32 33L32 34L34 34L34 35L33 35L33 37L34 37L34 36L35 36L35 34L36 34L36 35L37 35L37 36L36 36L36 38L33 38L33 39L35 39L35 40L36 40L36 42L37 42L37 43L39 43L39 44L40 44L40 43L39 43L39 42L38 42L38 41L37 41L37 40L36 40L36 39L37 39L37 38L38 38L38 37L40 37L40 36L41 36L41 35L42 35L42 34L43 34L43 36L42 36L42 37L41 37L41 38L43 38L43 37L44 37L44 38L45 38L45 39L43 39L43 40L41 40L41 39L40 39L40 38L39 38L39 40L41 40L41 42L44 42L44 40L46 40L46 41L47 41L47 40L46 40L46 38L45 38L45 37L44 37L44 32L45 32L45 31L44 31L44 30L46 30L46 31L47 31L47 32L48 32L48 31L47 31L47 30L46 30L46 29L47 29L47 28L46 28L46 27L44 27L44 26L45 26L45 25ZM17 26L17 27L18 27L18 26ZM1 27L1 28L4 28L4 27ZM5 27L5 30L8 30L8 27ZM19 27L19 28L20 28L20 29L18 29L18 28L16 28L16 29L18 29L18 31L19 31L19 32L20 32L20 33L21 33L21 32L20 32L20 31L22 31L22 30L20 30L20 29L22 29L22 28L20 28L20 27ZM27 27L27 30L30 30L30 27ZM49 27L49 30L52 30L52 27ZM6 28L6 29L7 29L7 28ZM28 28L28 29L29 29L29 28ZM50 28L50 29L51 29L51 28ZM2 29L2 30L3 30L3 32L4 32L4 30L3 30L3 29ZM23 29L23 30L25 30L25 29ZM40 30L40 31L41 31L41 32L39 32L39 31L38 31L38 33L37 33L37 34L39 34L39 33L40 33L40 35L38 35L38 36L40 36L40 35L41 35L41 34L42 34L42 33L41 33L41 32L44 32L44 31L43 31L43 30L42 30L42 31L41 31L41 30ZM23 31L23 32L25 32L25 33L26 33L26 32L25 32L25 31ZM14 32L14 33L15 33L15 32ZM51 32L51 33L50 33L50 34L48 34L48 33L47 33L47 34L45 34L45 36L46 36L46 35L50 35L50 34L51 34L51 33L53 33L53 32ZM34 33L34 34L35 34L35 33ZM6 35L6 36L8 36L8 37L9 37L9 38L10 38L10 37L9 37L9 36L10 36L10 35L9 35L9 36L8 36L8 35ZM19 35L19 36L21 36L21 35ZM30 36L30 38L31 38L31 36ZM48 36L48 37L47 37L47 39L48 39L48 37L49 37L49 39L50 39L50 40L51 40L51 39L52 39L52 38L51 38L51 39L50 39L50 36ZM51 36L51 37L52 37L52 36ZM15 37L15 38L16 38L16 37ZM19 38L19 39L20 39L20 38ZM9 39L9 41L10 41L10 39ZM15 39L15 40L16 40L16 39ZM27 39L27 41L26 41L26 42L27 42L27 41L28 41L28 39ZM29 40L29 41L31 41L31 42L28 42L28 43L26 43L26 44L25 44L25 45L23 45L23 47L27 47L27 46L28 46L28 45L29 45L29 44L28 44L28 43L31 43L31 44L34 44L34 43L35 43L35 42L34 42L34 41L33 41L33 42L32 42L32 41L31 41L31 40ZM4 41L4 42L3 42L3 43L4 43L4 42L5 42L5 41ZM6 41L6 42L7 42L7 41ZM3 44L3 47L5 47L5 45L4 45L4 44ZM11 44L11 45L12 45L12 46L11 46L11 48L12 48L12 49L14 49L14 50L13 50L13 51L14 51L14 52L13 52L13 53L14 53L14 52L15 52L15 51L14 51L14 50L15 50L15 49L16 49L16 47L15 47L15 46L14 46L14 45L13 45L13 44ZM17 44L17 45L18 45L18 44ZM26 44L26 45L25 45L25 46L27 46L27 45L28 45L28 44ZM40 45L40 46L39 46L39 47L40 47L40 48L38 48L38 47L37 47L37 48L35 48L35 49L36 49L36 50L33 50L33 49L32 49L32 50L33 50L33 51L32 51L32 52L33 52L33 53L34 53L34 52L33 52L33 51L35 51L35 52L36 52L36 51L37 51L37 50L38 50L38 49L40 49L40 48L42 48L42 49L41 49L41 50L43 50L43 51L40 51L40 52L41 52L41 54L43 54L43 53L44 53L44 54L45 54L45 53L46 53L46 52L45 52L45 53L44 53L44 50L43 50L43 48L45 48L45 49L47 49L47 48L45 48L45 47L44 47L44 46L43 46L43 45L42 45L42 46L41 46L41 45ZM50 45L50 46L49 46L49 47L50 47L50 46L52 46L52 45ZM12 46L12 48L15 48L15 47L14 47L14 46ZM42 46L42 47L43 47L43 46ZM27 49L27 52L30 52L30 49ZM49 49L49 52L52 52L52 49ZM54 49L54 50L55 50L55 49ZM18 50L18 51L19 51L19 50ZM22 50L22 51L24 51L24 50ZM28 50L28 51L29 51L29 50ZM45 50L45 51L47 51L47 50ZM50 50L50 51L51 51L51 50ZM25 51L25 53L26 53L26 51ZM18 52L18 53L20 53L20 52ZM22 52L22 53L24 53L24 52ZM42 52L42 53L43 53L43 52ZM9 53L9 55L10 55L10 53ZM15 53L15 54L14 54L14 55L15 55L15 54L16 54L16 53ZM35 53L35 54L36 54L36 53ZM19 54L19 55L20 55L20 54ZM22 55L22 56L23 56L23 57L26 57L26 56L24 56L24 55ZM27 55L27 56L28 56L28 55ZM51 55L51 57L52 57L52 56L55 56L55 57L56 57L56 56L55 56L55 55ZM11 56L11 57L12 57L12 56ZM47 56L47 57L48 57L48 56ZM0 0L0 7L7 7L7 0ZM1 1L1 6L6 6L6 1ZM2 2L2 5L5 5L5 2ZM50 0L50 7L57 7L57 0ZM51 1L51 6L56 6L56 1ZM52 2L52 5L55 5L55 2ZM0 50L0 57L7 57L7 50ZM1 51L1 56L6 56L6 51ZM2 52L2 55L5 55L5 52Z" fill="#000000"/></g></g></svg>
