<?xml version="1.0" encoding="UTF-8"?>
<svg xmlns="http://www.w3.org/2000/svg" version="1.1" width="300" height="300" viewBox="0 0 300 300"><rect x="0" y="0" width="300" height="300" fill="#ffffff"/><g transform="scale(4.918)"><g transform="translate(2,2)"><path fill-rule="evenodd" d="M10 0L10 1L8 1L8 2L9 2L9 3L8 3L8 4L10 4L10 3L11 3L11 4L12 4L12 8L13 8L13 10L15 10L15 11L16 11L16 12L15 12L15 15L16 15L16 17L14 17L14 13L12 13L12 14L10 14L10 15L11 15L11 16L9 16L9 13L8 13L8 14L6 14L6 13L7 13L7 12L6 12L6 13L5 13L5 14L3 14L3 13L4 13L4 12L5 12L5 11L4 11L4 9L5 9L5 10L6 10L6 11L8 11L8 12L11 12L11 10L12 10L12 9L10 9L10 10L9 10L9 11L8 11L8 9L9 9L9 8L6 8L6 9L5 9L5 8L0 8L0 12L2 12L2 13L0 13L0 14L2 14L2 16L3 16L3 15L5 15L5 16L4 16L4 17L3 17L3 18L4 18L4 17L7 17L7 18L5 18L5 20L6 20L6 21L5 21L5 26L3 26L3 25L4 25L4 22L3 22L3 20L4 20L4 19L3 19L3 20L2 20L2 21L1 21L1 20L0 20L0 23L1 23L1 25L0 25L0 26L2 26L2 27L1 27L1 28L0 28L0 30L1 30L1 28L4 28L4 31L0 31L0 33L2 33L2 34L3 34L3 35L2 35L2 36L3 36L3 37L1 37L1 36L0 36L0 37L1 37L1 38L0 38L0 40L2 40L2 38L6 38L6 39L5 39L5 40L3 40L3 43L2 43L2 41L1 41L1 43L0 43L0 44L3 44L3 45L2 45L2 47L1 47L1 46L0 46L0 48L5 48L5 47L7 47L7 46L8 46L8 48L6 48L6 49L8 49L8 51L9 51L9 52L8 52L8 57L9 57L9 56L11 56L11 57L13 57L13 56L14 56L14 57L19 57L19 56L20 56L20 57L21 57L21 56L23 56L23 57L24 57L24 56L25 56L25 54L26 54L26 56L28 56L28 55L27 55L27 53L28 53L28 54L29 54L29 55L30 55L30 57L31 57L31 56L33 56L33 57L37 57L37 56L41 56L41 57L42 57L42 56L43 56L43 57L44 57L44 56L45 56L45 57L46 57L46 56L45 56L45 55L42 55L42 54L43 54L43 53L44 53L44 54L45 54L45 53L44 53L44 49L42 49L42 50L41 50L41 51L40 51L40 52L39 52L39 54L38 54L38 51L39 51L39 50L38 50L38 49L39 49L39 48L41 48L41 47L42 47L42 48L45 48L45 50L46 50L46 51L45 51L45 52L48 52L48 53L47 53L47 55L48 55L48 56L49 56L49 54L48 54L48 53L50 53L50 55L51 55L51 56L50 56L50 57L52 57L52 56L53 56L53 57L56 57L56 56L55 56L55 53L54 53L54 52L55 52L55 50L57 50L57 49L54 49L54 48L57 48L57 47L56 47L56 46L57 46L57 44L56 44L56 46L55 46L55 45L54 45L54 44L55 44L55 43L56 43L56 42L57 42L57 41L56 41L56 42L55 42L55 39L57 39L57 36L56 36L56 35L55 35L55 34L57 34L57 32L56 32L56 30L57 30L57 27L56 27L56 24L57 24L57 23L56 23L56 22L57 22L57 21L56 21L56 20L57 20L57 19L56 19L56 20L55 20L55 19L52 19L52 17L51 17L51 16L45 16L45 15L49 15L49 13L50 13L50 11L52 11L52 12L53 12L53 11L54 11L54 12L56 12L56 14L55 14L55 13L53 13L53 15L52 15L52 16L53 16L53 18L54 18L54 16L55 16L55 18L57 18L57 17L56 17L56 16L57 16L57 15L56 15L56 14L57 14L57 12L56 12L56 8L55 8L55 11L54 11L54 10L53 10L53 9L54 9L54 8L53 8L53 9L52 9L52 8L51 8L51 9L52 9L52 10L49 10L49 9L50 9L50 8L49 8L49 6L48 6L48 7L47 7L47 5L48 5L48 0L45 0L45 1L47 1L47 2L43 2L43 3L42 3L42 4L41 4L41 5L40 5L40 3L41 3L41 2L42 2L42 1L43 1L43 0L42 0L42 1L41 1L41 0L39 0L39 1L38 1L38 0L35 0L35 1L33 1L33 2L31 2L31 4L30 4L30 3L29 3L29 2L30 2L30 1L31 1L31 0L30 0L30 1L29 1L29 0L27 0L27 2L26 2L26 0L24 0L24 1L23 1L23 0L21 0L21 1L23 1L23 2L25 2L25 3L24 3L24 4L22 4L22 2L19 2L19 1L16 1L16 0L14 0L14 1L15 1L15 2L14 2L14 3L11 3L11 2L12 2L12 1L13 1L13 0L12 0L12 1L11 1L11 0ZM28 1L28 2L29 2L29 1ZM37 1L37 2L33 2L33 3L32 3L32 4L31 4L31 7L32 7L32 6L33 6L33 8L31 8L31 10L30 10L30 11L31 11L31 12L32 12L32 13L31 13L31 14L30 14L30 12L28 12L28 13L25 13L25 12L27 12L27 11L26 11L26 10L28 10L28 11L29 11L29 9L26 9L26 6L25 6L25 4L26 4L26 3L25 3L25 4L24 4L24 5L23 5L23 7L22 7L22 6L21 6L21 5L22 5L22 4L21 4L21 3L20 3L20 4L18 4L18 3L16 3L16 4L15 4L15 3L14 3L14 4L15 4L15 5L14 5L14 6L13 6L13 8L14 8L14 9L15 9L15 10L17 10L17 8L16 8L16 6L15 6L15 5L16 5L16 4L18 4L18 5L17 5L17 7L18 7L18 5L20 5L20 6L19 6L19 9L20 9L20 10L18 10L18 11L17 11L17 12L18 12L18 13L16 13L16 15L17 15L17 16L19 16L19 17L16 17L16 18L17 18L17 19L16 19L16 20L15 20L15 21L12 21L12 20L11 20L11 19L13 19L13 20L14 20L14 19L13 19L13 17L12 17L12 16L13 16L13 15L12 15L12 16L11 16L11 17L10 17L10 18L9 18L9 16L8 16L8 15L6 15L6 14L5 14L5 15L6 15L6 16L7 16L7 17L8 17L8 18L7 18L7 19L6 19L6 20L8 20L8 22L7 22L7 21L6 21L6 22L7 22L7 23L6 23L6 24L7 24L7 25L6 25L6 26L7 26L7 25L8 25L8 26L10 26L10 27L9 27L9 29L11 29L11 28L10 28L10 27L12 27L12 28L13 28L13 29L15 29L15 28L13 28L13 27L16 27L16 28L17 28L17 29L16 29L16 30L17 30L17 31L16 31L16 32L18 32L18 31L19 31L19 30L20 30L20 32L19 32L19 33L16 33L16 35L18 35L18 36L16 36L16 37L15 37L15 35L14 35L14 33L13 33L13 35L12 35L12 36L11 36L11 37L12 37L12 38L10 38L10 37L9 37L9 35L10 35L10 34L12 34L12 31L13 31L13 30L9 30L9 31L10 31L10 32L7 32L7 31L6 31L6 32L7 32L7 33L5 33L5 31L4 31L4 32L3 32L3 34L4 34L4 35L3 35L3 36L4 36L4 35L5 35L5 34L7 34L7 35L6 35L6 36L5 36L5 37L6 37L6 38L7 38L7 37L8 37L8 38L10 38L10 39L8 39L8 40L9 40L9 41L12 41L12 43L13 43L13 42L14 42L14 44L15 44L15 42L16 42L16 43L17 43L17 44L18 44L18 45L16 45L16 46L17 46L17 47L15 47L15 46L13 46L13 47L15 47L15 48L14 48L14 49L15 49L15 51L16 51L16 52L13 52L13 51L14 51L14 50L13 50L13 51L11 51L11 50L12 50L12 49L13 49L13 48L12 48L12 49L11 49L11 50L9 50L9 51L10 51L10 52L9 52L9 53L12 53L12 52L13 52L13 53L14 53L14 54L13 54L13 55L14 55L14 56L15 56L15 55L16 55L16 56L17 56L17 55L20 55L20 54L19 54L19 53L21 53L21 55L23 55L23 56L24 56L24 55L23 55L23 54L24 54L24 53L23 53L23 52L24 52L24 51L25 51L25 53L26 53L26 46L27 46L27 45L28 45L28 47L29 47L29 45L28 45L28 44L29 44L29 43L30 43L30 44L31 44L31 45L30 45L30 46L32 46L32 47L33 47L33 48L31 48L31 52L32 52L32 54L33 54L33 55L34 55L34 56L35 56L35 55L36 55L36 54L37 54L37 55L38 55L38 54L37 54L37 53L36 53L36 52L37 52L37 51L38 51L38 50L37 50L37 51L36 51L36 50L35 50L35 49L36 49L36 48L37 48L37 49L38 49L38 48L39 48L39 47L41 47L41 46L42 46L42 47L45 47L45 48L47 48L47 49L46 49L46 50L47 50L47 51L48 51L48 48L49 48L49 47L52 47L52 48L54 48L54 46L53 46L53 45L51 45L51 44L53 44L53 43L54 43L54 41L52 41L52 40L53 40L53 39L52 39L52 38L53 38L53 37L52 37L52 34L54 34L54 33L56 33L56 32L53 32L53 31L55 31L55 30L56 30L56 29L55 29L55 28L54 28L54 29L55 29L55 30L53 30L53 31L51 31L51 32L49 32L49 31L48 31L48 29L46 29L46 30L45 30L45 28L44 28L44 27L45 27L45 26L47 26L47 27L46 27L46 28L48 28L48 26L47 26L47 25L49 25L49 26L51 26L51 25L53 25L53 27L55 27L55 26L54 26L54 25L53 25L53 24L50 24L50 22L51 22L51 21L55 21L55 20L51 20L51 17L50 17L50 22L49 22L49 23L48 23L48 24L46 24L46 23L47 23L47 21L48 21L48 20L49 20L49 19L48 19L48 18L47 18L47 17L45 17L45 16L43 16L43 18L41 18L41 16L42 16L42 15L45 15L45 14L42 14L42 11L43 11L43 10L42 10L42 8L43 8L43 7L44 7L44 9L45 9L45 10L44 10L44 13L45 13L45 12L46 12L46 14L47 14L47 13L49 13L49 12L48 12L48 11L49 11L49 10L48 10L48 9L49 9L49 8L48 8L48 9L47 9L47 7L46 7L46 5L47 5L47 3L43 3L43 5L42 5L42 6L41 6L41 7L40 7L40 6L39 6L39 4L38 4L38 6L37 6L37 5L36 5L36 3L37 3L37 2L38 2L38 3L39 3L39 2L41 2L41 1L39 1L39 2L38 2L38 1ZM27 3L27 4L29 4L29 3ZM34 3L34 4L35 4L35 3ZM44 4L44 5L46 5L46 4ZM8 5L8 7L9 7L9 5ZM27 5L27 8L30 8L30 5ZM34 5L34 7L35 7L35 8L33 8L33 9L35 9L35 10L36 10L36 9L37 9L37 10L38 10L38 11L37 11L37 12L34 12L34 11L33 11L33 13L37 13L37 14L33 14L33 15L32 15L32 14L31 14L31 15L30 15L30 16L33 16L33 17L35 17L35 18L32 18L32 19L28 19L28 18L27 18L27 17L28 17L28 16L25 16L25 15L24 15L24 17L23 17L23 18L22 18L22 17L21 17L21 16L22 16L22 14L20 14L20 13L22 13L22 12L21 12L21 11L22 11L22 10L24 10L24 12L25 12L25 9L22 9L22 10L21 10L21 11L19 11L19 12L20 12L20 13L18 13L18 15L21 15L21 16L20 16L20 17L21 17L21 18L20 18L20 19L23 19L23 21L19 21L19 20L17 20L17 21L19 21L19 22L20 22L20 23L17 23L17 26L18 26L18 27L17 27L17 28L18 28L18 29L17 29L17 30L19 30L19 29L21 29L21 31L22 31L22 29L24 29L24 30L23 30L23 31L24 31L24 32L23 32L23 35L22 35L22 33L21 33L21 32L20 32L20 33L21 33L21 34L20 34L20 35L19 35L19 34L18 34L18 35L19 35L19 36L18 36L18 37L16 37L16 38L15 38L15 37L13 37L13 36L14 36L14 35L13 35L13 36L12 36L12 37L13 37L13 39L10 39L10 40L12 40L12 41L14 41L14 40L13 40L13 39L14 39L14 38L15 38L15 39L16 39L16 40L15 40L15 41L16 41L16 40L17 40L17 41L18 41L18 42L17 42L17 43L18 43L18 42L19 42L19 44L20 44L20 45L18 45L18 47L17 47L17 48L15 48L15 49L17 49L17 50L16 50L16 51L17 51L17 50L18 50L18 51L19 51L19 52L18 52L18 53L17 53L17 54L18 54L18 53L19 53L19 52L21 52L21 53L22 53L22 54L23 54L23 53L22 53L22 52L23 52L23 51L22 51L22 49L21 49L21 50L20 50L20 49L19 49L19 47L20 47L20 48L23 48L23 47L24 47L24 49L23 49L23 50L25 50L25 45L26 45L26 44L25 44L25 43L24 43L24 42L26 42L26 43L27 43L27 44L28 44L28 43L29 43L29 42L26 42L26 41L31 41L31 42L30 42L30 43L32 43L32 44L34 44L34 43L35 43L35 44L36 44L36 45L35 45L35 46L33 46L33 45L32 45L32 46L33 46L33 47L35 47L35 48L33 48L33 49L32 49L32 50L33 50L33 51L32 51L32 52L33 52L33 53L34 53L34 52L36 52L36 51L35 51L35 50L33 50L33 49L35 49L35 48L36 48L36 47L39 47L39 46L37 46L37 45L39 45L39 44L36 44L36 43L37 43L37 42L38 42L38 41L37 41L37 40L41 40L41 39L42 39L42 40L43 40L43 41L42 41L42 42L39 42L39 43L40 43L40 44L43 44L43 45L42 45L42 46L44 46L44 44L43 44L43 43L42 43L42 42L44 42L44 40L45 40L45 41L46 41L46 40L47 40L47 39L46 39L46 38L45 38L45 37L44 37L44 35L43 35L43 36L42 36L42 37L41 37L41 39L40 39L40 38L37 38L37 37L40 37L40 36L41 36L41 35L42 35L42 34L43 34L43 32L45 32L45 31L44 31L44 30L43 30L43 29L44 29L44 28L43 28L43 27L42 27L42 26L44 26L44 24L45 24L45 23L46 23L46 22L45 22L45 21L44 21L44 23L43 23L43 25L42 25L42 23L41 23L41 25L39 25L39 26L41 26L41 27L40 27L40 28L39 28L39 31L40 31L40 32L39 32L39 33L40 33L40 34L37 34L37 33L38 33L38 32L35 32L35 34L33 34L33 36L34 36L34 35L35 35L35 34L37 34L37 35L40 35L40 36L36 36L36 38L37 38L37 39L35 39L35 38L34 38L34 37L33 37L33 38L34 38L34 41L36 41L36 43L35 43L35 42L34 42L34 43L32 43L32 42L33 42L33 41L32 41L32 40L33 40L33 39L32 39L32 40L29 40L29 39L31 39L31 38L32 38L32 34L29 34L29 37L28 37L28 36L27 36L27 35L26 35L26 34L27 34L27 33L29 33L29 32L30 32L30 33L31 33L31 32L34 32L34 31L35 31L35 30L38 30L38 28L35 28L35 26L34 26L34 24L35 24L35 22L33 22L33 21L32 21L32 20L33 20L33 19L35 19L35 18L36 18L36 19L37 19L37 20L36 20L36 21L37 21L37 22L36 22L36 23L37 23L37 24L36 24L36 27L37 27L37 26L38 26L38 25L37 25L37 24L40 24L40 22L43 22L43 20L48 20L48 19L47 19L47 18L45 18L45 19L40 19L40 20L39 20L39 22L38 22L38 19L39 19L39 18L37 18L37 16L38 16L38 17L39 17L39 16L41 16L41 15L42 15L42 14L40 14L40 13L39 13L39 16L38 16L38 15L37 15L37 14L38 14L38 12L39 12L39 10L38 10L38 9L39 9L39 8L40 8L40 7L39 7L39 6L38 6L38 7L39 7L39 8L36 8L36 7L37 7L37 6L36 6L36 5ZM10 6L10 7L11 7L11 6ZM14 6L14 8L15 8L15 6ZM20 6L20 7L21 7L21 8L22 8L22 7L21 7L21 6ZM24 6L24 7L23 7L23 8L24 8L24 7L25 7L25 6ZM28 6L28 7L29 7L29 6ZM35 6L35 7L36 7L36 6ZM42 6L42 7L41 7L41 8L42 8L42 7L43 7L43 6ZM44 6L44 7L45 7L45 6ZM35 8L35 9L36 9L36 8ZM45 8L45 9L46 9L46 8ZM1 9L1 10L2 10L2 9ZM6 9L6 10L7 10L7 9ZM31 10L31 11L32 11L32 10ZM45 10L45 11L48 11L48 10ZM52 10L52 11L53 11L53 10ZM3 11L3 12L4 12L4 11ZM13 11L13 12L14 12L14 11ZM23 13L23 14L25 14L25 13ZM28 13L28 14L26 14L26 15L29 15L29 13ZM51 13L51 14L50 14L50 15L51 15L51 14L52 14L52 13ZM54 14L54 15L53 15L53 16L54 16L54 15L55 15L55 14ZM0 15L0 16L1 16L1 15ZM34 15L34 16L37 16L37 15ZM0 17L0 18L1 18L1 19L2 19L2 17ZM11 17L11 18L12 18L12 17ZM29 17L29 18L31 18L31 17ZM8 18L8 19L9 19L9 18ZM18 18L18 19L19 19L19 18ZM23 18L23 19L24 19L24 18ZM25 18L25 22L26 22L26 23L25 23L25 24L26 24L26 25L25 25L25 26L23 26L23 24L24 24L24 23L23 23L23 22L24 22L24 21L23 21L23 22L22 22L22 23L21 23L21 25L20 25L20 24L19 24L19 25L20 25L20 26L19 26L19 28L21 28L21 29L22 29L22 28L21 28L21 27L22 27L22 26L23 26L23 28L24 28L24 29L25 29L25 30L24 30L24 31L25 31L25 32L27 32L27 31L25 31L25 30L26 30L26 27L25 27L25 26L26 26L26 25L28 25L28 26L29 26L29 25L30 25L30 24L31 24L31 22L30 22L30 21L31 21L31 20L30 20L30 21L29 21L29 20L28 20L28 19L27 19L27 18ZM10 20L10 21L11 21L11 22L10 22L10 23L11 23L11 24L12 24L12 25L13 25L13 26L12 26L12 27L13 27L13 26L15 26L15 25L16 25L16 23L15 23L15 25L14 25L14 22L13 22L13 24L12 24L12 21L11 21L11 20ZM26 20L26 21L27 21L27 20ZM40 20L40 21L42 21L42 20ZM15 21L15 22L16 22L16 21ZM28 21L28 22L27 22L27 24L29 24L29 23L30 23L30 22L29 22L29 21ZM1 22L1 23L3 23L3 22ZM37 22L37 23L38 23L38 22ZM52 22L52 23L53 23L53 22ZM7 23L7 24L8 24L8 23ZM32 23L32 25L31 25L31 28L32 28L32 29L33 29L33 30L35 30L35 29L33 29L33 28L34 28L34 27L33 27L33 28L32 28L32 25L33 25L33 24L34 24L34 23ZM55 23L55 24L56 24L56 23ZM2 24L2 25L3 25L3 24ZM10 25L10 26L11 26L11 25ZM21 25L21 26L20 26L20 27L21 27L21 26L22 26L22 25ZM41 25L41 26L42 26L42 25ZM5 27L5 30L8 30L8 27ZM27 27L27 30L30 30L30 27ZM41 27L41 28L40 28L40 29L41 29L41 30L40 30L40 31L41 31L41 32L40 32L40 33L41 33L41 34L40 34L40 35L41 35L41 34L42 34L42 33L41 33L41 32L42 32L42 31L43 31L43 30L42 30L42 29L43 29L43 28L42 28L42 27ZM49 27L49 30L52 30L52 27ZM6 28L6 29L7 29L7 28ZM28 28L28 29L29 29L29 28ZM50 28L50 29L51 29L51 28ZM14 30L14 31L15 31L15 30ZM31 30L31 31L32 31L32 30ZM41 30L41 31L42 31L42 30ZM46 30L46 31L47 31L47 32L48 32L48 31L47 31L47 30ZM10 32L10 33L9 33L9 34L10 34L10 33L11 33L11 32ZM51 32L51 33L50 33L50 34L51 34L51 33L53 33L53 32ZM7 33L7 34L8 34L8 33ZM25 33L25 34L24 34L24 36L22 36L22 35L21 35L21 36L20 36L20 37L18 37L18 38L17 38L17 39L18 39L18 38L20 38L20 39L19 39L19 41L20 41L20 44L22 44L22 45L20 45L20 47L21 47L21 46L22 46L22 47L23 47L23 45L25 45L25 44L23 44L23 42L22 42L22 41L23 41L23 39L24 39L24 41L25 41L25 38L26 38L26 37L24 37L24 36L25 36L25 34L26 34L26 33ZM44 33L44 34L46 34L46 35L45 35L45 36L46 36L46 37L47 37L47 36L48 36L48 39L50 39L50 37L51 37L51 35L49 35L49 34L48 34L48 33L47 33L47 34L46 34L46 33ZM30 35L30 38L31 38L31 35ZM46 35L46 36L47 36L47 35ZM48 35L48 36L49 36L49 37L50 37L50 36L49 36L49 35ZM6 36L6 37L7 37L7 36ZM54 36L54 37L56 37L56 36ZM21 37L21 41L22 41L22 39L23 39L23 38L24 38L24 37ZM27 37L27 38L28 38L28 37ZM43 37L43 38L42 38L42 39L43 39L43 40L44 40L44 39L45 39L45 40L46 40L46 39L45 39L45 38L44 38L44 37ZM6 39L6 40L7 40L7 39ZM27 39L27 40L28 40L28 39ZM48 40L48 41L47 41L47 42L45 42L45 47L47 47L47 46L48 46L48 45L47 45L47 44L49 44L49 45L50 45L50 44L51 44L51 43L50 43L50 42L51 42L51 41L49 41L49 40ZM4 41L4 44L5 44L5 46L3 46L3 47L5 47L5 46L7 46L7 45L6 45L6 44L7 44L7 43L8 43L8 42L7 42L7 41L6 41L6 42L5 42L5 41ZM6 42L6 43L5 43L5 44L6 44L6 43L7 43L7 42ZM10 42L10 43L9 43L9 45L10 45L10 46L11 46L11 45L13 45L13 44L10 44L10 43L11 43L11 42ZM21 42L21 43L22 43L22 42ZM47 42L47 43L49 43L49 42ZM46 45L46 46L47 46L47 45ZM35 46L35 47L36 47L36 46ZM52 46L52 47L53 47L53 46ZM10 47L10 48L11 48L11 47ZM8 48L8 49L9 49L9 48ZM18 49L18 50L19 50L19 49ZM27 49L27 52L30 52L30 49ZM49 49L49 52L52 52L52 49ZM28 50L28 51L29 51L29 50ZM42 50L42 51L41 51L41 52L40 52L40 55L41 55L41 52L43 52L43 50ZM50 50L50 51L51 51L51 50ZM53 50L53 51L54 51L54 50ZM21 51L21 52L22 52L22 51ZM56 51L56 52L57 52L57 51ZM15 53L15 54L14 54L14 55L15 55L15 54L16 54L16 53ZM30 53L30 54L31 54L31 53ZM35 53L35 54L34 54L34 55L35 55L35 54L36 54L36 53ZM53 53L53 54L51 54L51 55L54 55L54 53ZM9 54L9 55L11 55L11 54ZM0 0L0 7L7 7L7 0ZM1 1L1 6L6 6L6 1ZM2 2L2 5L5 5L5 2ZM50 0L50 7L57 7L57 0ZM51 1L51 6L56 6L56 1ZM52 2L52 5L55 5L55 2ZM0 50L0 57L7 57L7 50ZM1 51L1 56L6 56L6 51ZM2 52L2 55L5 55L5 52Z" fill="#000000"/></g></g></svg>
