<?xml version="1.0" encoding="UTF-8"?>
<svg xmlns="http://www.w3.org/2000/svg" version="1.1" width="300" height="300" viewBox="0 0 300 300"><rect x="0" y="0" width="300" height="300" fill="#ffffff"/><g transform="scale(4.918)"><g transform="translate(2,2)"><path fill-rule="evenodd" d="M11 0L11 1L8 1L8 2L9 2L9 3L8 3L8 4L9 4L9 5L8 5L8 7L9 7L9 5L10 5L10 9L9 9L9 8L6 8L6 9L7 9L7 10L5 10L5 8L0 8L0 11L1 11L1 14L3 14L3 15L4 15L4 16L3 16L3 18L4 18L4 17L5 17L5 18L6 18L6 19L5 19L5 21L4 21L4 19L2 19L2 18L0 18L0 21L1 21L1 22L0 22L0 26L1 26L1 27L0 27L0 28L3 28L3 29L1 29L1 30L0 30L0 31L1 31L1 32L0 32L0 35L1 35L1 33L3 33L3 34L2 34L2 35L3 35L3 34L4 34L4 35L5 35L5 34L4 34L4 33L5 33L5 31L9 31L9 32L8 32L8 34L6 34L6 35L7 35L7 36L6 36L6 37L3 37L3 36L1 36L1 37L2 37L2 39L3 39L3 40L2 40L2 41L0 41L0 43L1 43L1 44L0 44L0 45L1 45L1 46L0 46L0 48L5 48L5 47L8 47L8 48L6 48L6 49L8 49L8 51L10 51L10 50L11 50L11 51L12 51L12 52L11 52L11 53L12 53L12 54L9 54L9 53L10 53L10 52L8 52L8 57L11 57L11 56L14 56L14 57L19 57L19 56L23 56L23 57L24 57L24 56L25 56L25 57L26 57L26 56L25 56L25 55L26 55L26 54L27 54L27 53L28 53L28 54L29 54L29 55L30 55L30 56L29 56L29 57L31 57L31 55L33 55L33 54L32 54L32 52L34 52L34 53L35 53L35 52L36 52L36 54L35 54L35 55L34 55L34 56L35 56L35 57L37 57L37 56L38 56L38 57L39 57L39 56L41 56L41 57L42 57L42 56L43 56L43 57L44 57L44 56L47 56L47 57L49 57L49 56L50 56L50 55L51 55L51 57L52 57L52 56L55 56L55 57L56 57L56 56L55 56L55 53L56 53L56 52L57 52L57 51L56 51L56 52L55 52L55 51L54 51L54 52L55 52L55 53L54 53L54 55L51 55L51 54L53 54L53 48L55 48L55 50L57 50L57 49L56 49L56 48L55 48L55 47L56 47L56 46L57 46L57 44L56 44L56 42L57 42L57 41L54 41L54 40L55 40L55 39L57 39L57 37L54 37L54 36L55 36L55 35L54 35L54 36L53 36L53 34L52 34L52 36L51 36L51 37L52 37L52 36L53 36L53 37L54 37L54 39L53 39L53 41L54 41L54 43L53 43L53 42L51 42L51 41L52 41L52 40L51 40L51 41L48 41L48 42L46 42L46 41L44 41L44 43L45 43L45 46L44 46L44 44L43 44L43 40L45 40L45 39L42 39L42 38L43 38L43 37L44 37L44 38L46 38L46 39L47 39L47 38L48 38L48 39L50 39L50 38L48 38L48 37L47 37L47 38L46 38L46 36L45 36L45 37L44 37L44 34L46 34L46 35L47 35L47 36L49 36L49 37L50 37L50 36L49 36L49 35L50 35L50 33L49 33L49 35L48 35L48 33L47 33L47 34L46 34L46 31L47 31L47 32L48 32L48 31L50 31L50 32L51 32L51 33L54 33L54 34L57 34L57 33L56 33L56 30L57 30L57 29L56 29L56 28L57 28L57 27L56 27L56 26L57 26L57 25L56 25L56 26L55 26L55 23L56 23L56 22L57 22L57 21L55 21L55 23L54 23L54 22L52 22L52 24L50 24L50 23L51 23L51 22L50 22L50 19L51 19L51 20L52 20L52 19L54 19L54 20L55 20L55 18L57 18L57 17L53 17L53 18L50 18L50 17L51 17L51 16L55 16L55 15L56 15L56 16L57 16L57 15L56 15L56 14L57 14L57 13L56 13L56 12L57 12L57 11L56 11L56 12L55 12L55 11L54 11L54 10L53 10L53 9L54 9L54 8L53 8L53 9L52 9L52 8L51 8L51 10L50 10L50 8L49 8L49 6L48 6L48 8L47 8L47 5L48 5L48 0L46 0L46 1L47 1L47 2L45 2L45 1L44 1L44 0L42 0L42 1L40 1L40 0L39 0L39 1L38 1L38 0L37 0L37 1L36 1L36 0L35 0L35 1L33 1L33 0L32 0L32 1L31 1L31 0L30 0L30 1L29 1L29 2L28 2L28 3L27 3L27 1L26 1L26 0L24 0L24 1L23 1L23 0L21 0L21 2L20 2L20 3L18 3L18 4L20 4L20 3L21 3L21 4L22 4L22 5L24 5L24 4L25 4L25 6L24 6L24 7L23 7L23 6L22 6L22 7L23 7L23 9L21 9L21 11L22 11L22 10L23 10L23 11L25 11L25 8L24 8L24 7L25 7L25 6L26 6L26 9L27 9L27 10L26 10L26 11L27 11L27 12L25 12L25 13L24 13L24 12L23 12L23 13L24 13L24 14L23 14L23 15L22 15L22 14L21 14L21 16L20 16L20 15L19 15L19 13L18 13L18 12L16 12L16 11L15 11L15 13L18 13L18 15L19 15L19 16L18 16L18 17L17 17L17 14L15 14L15 15L16 15L16 17L15 17L15 18L14 18L14 16L13 16L13 17L9 17L9 16L8 16L8 17L7 17L7 16L6 16L6 17L5 17L5 15L7 15L7 14L5 14L5 13L7 13L7 12L6 12L6 11L8 11L8 10L9 10L9 11L10 11L10 13L13 13L13 14L12 14L12 15L11 15L11 16L12 16L12 15L13 15L13 14L14 14L14 13L13 13L13 12L14 12L14 11L12 11L12 9L11 9L11 8L13 8L13 10L14 10L14 8L15 8L15 6L16 6L16 9L17 9L17 6L18 6L18 9L19 9L19 11L20 11L20 9L19 9L19 6L20 6L20 7L21 7L21 6L20 6L20 5L17 5L17 4L16 4L16 2L15 2L15 4L14 4L14 2L12 2L12 1L13 1L13 0ZM14 0L14 1L15 1L15 0ZM18 1L18 2L19 2L19 1ZM22 1L22 4L24 4L24 2L23 2L23 1ZM25 1L25 2L26 2L26 1ZM30 1L30 2L29 2L29 3L28 3L28 4L31 4L31 8L33 8L33 9L34 9L34 10L33 10L33 11L34 11L34 12L35 12L35 11L34 11L34 10L35 10L35 9L36 9L36 10L37 10L37 11L36 11L36 12L37 12L37 11L38 11L38 10L40 10L40 11L39 11L39 12L38 12L38 14L37 14L37 13L36 13L36 16L35 16L35 15L33 15L33 14L35 14L35 13L33 13L33 12L31 12L31 14L32 14L32 15L31 15L31 16L30 16L30 15L27 15L27 14L28 14L28 13L29 13L29 14L30 14L30 13L29 13L29 12L30 12L30 11L31 11L31 10L32 10L32 9L31 9L31 10L29 10L29 9L28 9L28 10L27 10L27 11L29 11L29 12L28 12L28 13L25 13L25 16L28 16L28 17L26 17L26 21L25 21L25 22L26 22L26 23L25 23L25 24L26 24L26 25L25 25L25 26L26 26L26 25L29 25L29 24L27 24L27 23L29 23L29 22L30 22L30 23L31 23L31 22L30 22L30 21L31 21L31 20L30 20L30 19L33 19L33 18L35 18L35 19L34 19L34 20L32 20L32 21L33 21L33 23L32 23L32 24L31 24L31 25L32 25L32 26L31 26L31 27L33 27L33 28L31 28L31 31L30 31L30 33L27 33L27 32L29 32L29 31L26 31L26 32L25 32L25 34L24 34L24 36L22 36L22 37L21 37L21 33L20 33L20 35L18 35L18 34L19 34L19 33L18 33L18 32L21 32L21 31L22 31L22 33L24 33L24 31L25 31L25 30L26 30L26 27L25 27L25 28L24 28L24 29L22 29L22 28L21 28L21 29L19 29L19 30L17 30L17 29L18 29L18 28L17 28L17 29L14 29L14 31L13 31L13 28L16 28L16 26L17 26L17 27L18 27L18 26L19 26L19 25L20 25L20 27L19 27L19 28L20 28L20 27L22 27L22 26L23 26L23 27L24 27L24 26L23 26L23 25L24 25L24 23L23 23L23 22L24 22L24 21L23 21L23 20L25 20L25 18L24 18L24 19L23 19L23 18L22 18L22 19L19 19L19 17L20 17L20 18L21 18L21 17L20 17L20 16L19 16L19 17L18 17L18 19L17 19L17 17L16 17L16 20L15 20L15 21L12 21L12 20L10 20L10 19L13 19L13 20L14 20L14 19L13 19L13 18L10 18L10 19L9 19L9 18L8 18L8 19L6 19L6 20L7 20L7 21L5 21L5 24L7 24L7 25L4 25L4 24L3 24L3 23L4 23L4 22L3 22L3 21L2 21L2 19L1 19L1 21L2 21L2 22L1 22L1 25L3 25L3 26L8 26L8 23L11 23L11 24L10 24L10 25L11 25L11 24L12 24L12 25L13 25L13 26L14 26L14 25L13 25L13 23L14 23L14 24L15 24L15 27L13 27L13 28L12 28L12 27L11 27L11 26L9 26L9 28L10 28L10 29L9 29L9 30L10 30L10 33L9 33L9 34L10 34L10 35L11 35L11 34L12 34L12 35L13 35L13 40L12 40L12 41L13 41L13 40L14 40L14 35L15 35L15 33L16 33L16 34L17 34L17 35L16 35L16 37L15 37L15 38L16 38L16 37L17 37L17 36L20 36L20 37L18 37L18 38L17 38L17 40L16 40L16 39L15 39L15 40L16 40L16 41L15 41L15 42L16 42L16 43L17 43L17 44L18 44L18 45L15 45L15 44L14 44L14 47L13 47L13 48L10 48L10 47L12 47L12 46L13 46L13 43L12 43L12 42L11 42L11 43L8 43L8 42L9 42L9 41L8 41L8 40L7 40L7 39L6 39L6 40L7 40L7 41L5 41L5 40L4 40L4 41L3 41L3 42L2 42L2 44L4 44L4 43L5 43L5 42L7 42L7 43L6 43L6 44L5 44L5 45L6 45L6 46L7 46L7 45L6 45L6 44L9 44L9 45L8 45L8 47L9 47L9 48L8 48L8 49L9 49L9 50L10 50L10 49L13 49L13 50L12 50L12 51L14 51L14 50L15 50L15 51L16 51L16 52L15 52L15 53L16 53L16 54L13 54L13 55L16 55L16 56L17 56L17 55L18 55L18 56L19 56L19 55L20 55L20 54L19 54L19 53L21 53L21 55L23 55L23 56L24 56L24 55L23 55L23 54L24 54L24 53L23 53L23 52L24 52L24 51L23 51L23 50L21 50L21 49L24 49L24 48L21 48L21 49L20 49L20 47L21 47L21 46L22 46L22 47L23 47L23 45L25 45L25 49L26 49L26 48L27 48L27 47L28 47L28 48L29 48L29 47L30 47L30 48L31 48L31 50L32 50L32 51L31 51L31 52L32 52L32 51L33 51L33 50L35 50L35 49L36 49L36 48L37 48L37 49L38 49L38 50L37 50L37 51L36 51L36 52L38 52L38 54L37 54L37 55L38 55L38 54L39 54L39 52L40 52L40 55L41 55L41 52L42 52L42 53L43 53L43 54L42 54L42 55L43 55L43 56L44 56L44 55L45 55L45 54L47 54L47 55L48 55L48 56L49 56L49 55L48 55L48 54L51 54L51 53L48 53L48 52L46 52L46 53L45 53L45 51L46 51L46 50L47 50L47 51L48 51L48 48L50 48L50 47L52 47L52 48L53 48L53 47L55 47L55 46L53 46L53 45L52 45L52 44L53 44L53 43L52 43L52 44L50 44L50 45L49 45L49 43L48 43L48 44L47 44L47 45L46 45L46 46L47 46L47 48L42 48L42 49L46 49L46 50L44 50L44 53L43 53L43 52L42 52L42 51L43 51L43 50L39 50L39 49L41 49L41 48L39 48L39 46L42 46L42 47L44 47L44 46L42 46L42 45L43 45L43 44L39 44L39 43L41 43L41 42L40 42L40 41L42 41L42 40L39 40L39 41L38 41L38 39L41 39L41 37L43 37L43 34L44 34L44 33L45 33L45 32L43 32L43 34L42 34L42 31L43 31L43 30L44 30L44 31L46 31L46 30L47 30L47 31L48 31L48 27L47 27L47 25L50 25L50 26L51 26L51 25L50 25L50 24L48 24L48 23L50 23L50 22L48 22L48 21L49 21L49 20L48 20L48 21L47 21L47 19L46 19L46 18L48 18L48 17L50 17L50 16L51 16L51 15L54 15L54 14L56 14L56 13L55 13L55 12L54 12L54 11L53 11L53 10L51 10L51 11L50 11L50 10L49 10L49 11L50 11L50 16L49 16L49 15L47 15L47 16L46 16L46 18L44 18L44 17L45 17L45 16L43 16L43 18L42 18L42 17L41 17L41 16L42 16L42 15L45 15L45 14L44 14L44 13L45 13L45 12L46 12L46 14L47 14L47 13L49 13L49 12L47 12L47 11L48 11L48 9L49 9L49 8L48 8L48 9L47 9L47 8L46 8L46 9L45 9L45 8L43 8L43 9L44 9L44 10L43 10L43 12L44 12L44 13L43 13L43 14L42 14L42 10L40 10L40 9L41 9L41 8L42 8L42 6L43 6L43 7L44 7L44 6L45 6L45 7L46 7L46 5L47 5L47 3L46 3L46 4L45 4L45 3L43 3L43 2L44 2L44 1L42 1L42 2L41 2L41 3L40 3L40 4L39 4L39 3L37 3L37 2L38 2L38 1L37 1L37 2L33 2L33 1L32 1L32 2L33 2L33 3L32 3L32 4L31 4L31 3L30 3L30 2L31 2L31 1ZM11 2L11 3L12 3L12 4L10 4L10 3L9 3L9 4L10 4L10 5L12 5L12 6L11 6L11 7L12 7L12 6L13 6L13 8L14 8L14 6L15 6L15 5L16 5L16 4L15 4L15 5L14 5L14 6L13 6L13 5L12 5L12 4L13 4L13 3L12 3L12 2ZM25 3L25 4L26 4L26 3ZM33 3L33 4L34 4L34 3ZM36 3L36 5L34 5L34 8L36 8L36 9L37 9L37 8L36 8L36 7L37 7L37 6L36 6L36 5L37 5L37 3ZM41 3L41 4L40 4L40 5L43 5L43 4L42 4L42 3ZM44 4L44 5L45 5L45 4ZM27 5L27 8L30 8L30 5ZM38 5L38 7L39 7L39 5ZM28 6L28 7L29 7L29 6ZM32 6L32 7L33 7L33 6ZM35 6L35 7L36 7L36 6ZM40 6L40 8L39 8L39 9L40 9L40 8L41 8L41 6ZM55 8L55 9L56 9L56 10L57 10L57 9L56 9L56 8ZM10 10L10 11L11 11L11 12L12 12L12 11L11 11L11 10ZM17 10L17 11L18 11L18 10ZM2 11L2 12L5 12L5 11ZM52 11L52 12L53 12L53 11ZM20 12L20 13L22 13L22 12ZM51 13L51 14L52 14L52 13ZM9 14L9 15L10 15L10 14ZM39 14L39 15L40 15L40 16L36 16L36 17L35 17L35 18L36 18L36 19L37 19L37 20L36 20L36 21L37 21L37 22L36 22L36 23L38 23L38 24L35 24L35 23L34 23L34 24L35 24L35 25L36 25L36 26L34 26L34 25L33 25L33 27L34 27L34 28L33 28L33 29L32 29L32 32L31 32L31 33L32 33L32 34L33 34L33 35L37 35L37 34L38 34L38 35L40 35L40 36L36 36L36 37L37 37L37 38L34 38L34 39L33 39L33 40L30 40L30 41L29 41L29 39L31 39L31 38L32 38L32 35L30 35L30 34L29 34L29 35L30 35L30 36L29 36L29 37L28 37L28 36L27 36L27 35L26 35L26 34L27 34L27 33L26 33L26 34L25 34L25 35L26 35L26 39L25 39L25 41L23 41L23 44L25 44L25 45L26 45L26 44L25 44L25 42L26 42L26 43L27 43L27 44L28 44L28 45L27 45L27 46L26 46L26 47L27 47L27 46L28 46L28 45L29 45L29 46L30 46L30 47L31 47L31 48L33 48L33 49L35 49L35 48L36 48L36 47L37 47L37 48L38 48L38 49L39 49L39 48L38 48L38 47L37 47L37 46L38 46L38 43L37 43L37 42L38 42L38 41L37 41L37 40L36 40L36 39L37 39L37 38L38 38L38 37L39 37L39 38L40 38L40 36L42 36L42 34L41 34L41 35L40 35L40 34L38 34L38 33L37 33L37 32L38 32L38 31L37 31L37 32L34 32L34 31L36 31L36 30L38 30L38 29L39 29L39 28L36 28L36 30L33 30L33 29L35 29L35 27L39 27L39 26L38 26L38 25L40 25L40 26L41 26L41 27L42 27L42 28L43 28L43 29L42 29L42 30L39 30L39 32L41 32L41 31L42 31L42 30L43 30L43 29L44 29L44 30L46 30L46 29L47 29L47 28L46 28L46 26L45 26L45 25L46 25L46 24L47 24L47 22L45 22L45 21L44 21L44 23L45 23L45 25L44 25L44 24L43 24L43 20L45 20L45 19L44 19L44 18L43 18L43 20L42 20L42 18L41 18L41 19L40 19L40 18L36 18L36 17L40 17L40 16L41 16L41 15L42 15L42 14ZM32 15L32 16L31 16L31 17L29 17L29 18L33 18L33 17L34 17L34 16L33 16L33 15ZM0 16L0 17L1 17L1 16ZM22 16L22 17L24 17L24 16ZM32 16L32 17L33 17L33 16ZM47 16L47 17L48 17L48 16ZM6 17L6 18L7 18L7 17ZM27 18L27 20L29 20L29 21L30 21L30 20L29 20L29 19L28 19L28 18ZM49 18L49 19L50 19L50 18ZM18 19L18 21L19 21L19 22L20 22L20 23L19 23L19 24L18 24L18 23L17 23L17 26L18 26L18 25L19 25L19 24L21 24L21 21L22 21L22 22L23 22L23 21L22 21L22 20L21 20L21 21L19 21L19 19ZM39 19L39 20L40 20L40 23L39 23L39 24L40 24L40 25L43 25L43 24L42 24L42 22L41 22L41 20L40 20L40 19ZM8 20L8 21L9 21L9 22L10 22L10 20ZM15 21L15 22L16 22L16 21ZM38 21L38 22L39 22L39 21ZM2 22L2 23L3 23L3 22ZM6 22L6 23L8 23L8 22ZM11 22L11 23L13 23L13 22ZM15 23L15 24L16 24L16 23ZM40 23L40 24L41 24L41 23ZM52 24L52 26L53 26L53 27L55 27L55 28L54 28L54 29L53 29L53 30L54 30L54 29L55 29L55 28L56 28L56 27L55 27L55 26L54 26L54 25L53 25L53 24ZM43 26L43 27L44 27L44 29L45 29L45 26ZM5 27L5 30L8 30L8 27ZM27 27L27 30L30 30L30 27ZM49 27L49 30L52 30L52 27ZM6 28L6 29L7 29L7 28ZM28 28L28 29L29 29L29 28ZM50 28L50 29L51 29L51 28ZM21 29L21 30L22 30L22 31L24 31L24 30L25 30L25 29L24 29L24 30L22 30L22 29ZM1 30L1 31L3 31L3 30ZM11 30L11 32L12 32L12 34L13 34L13 33L14 33L14 32L15 32L15 31L14 31L14 32L13 32L13 31L12 31L12 30ZM16 30L16 31L17 31L17 30ZM53 31L53 32L54 32L54 33L55 33L55 32L54 32L54 31ZM3 32L3 33L4 33L4 32ZM6 32L6 33L7 33L7 32ZM16 32L16 33L17 33L17 32ZM32 32L32 33L33 33L33 34L35 34L35 33L34 33L34 32ZM10 33L10 34L11 34L11 33ZM36 33L36 34L37 34L37 33ZM22 34L22 35L23 35L23 34ZM8 35L8 36L9 36L9 35ZM10 36L10 37L9 37L9 38L8 38L8 39L9 39L9 38L11 38L11 39L10 39L10 41L11 41L11 39L12 39L12 37L11 37L11 36ZM24 36L24 37L22 37L22 38L21 38L21 39L23 39L23 40L24 40L24 39L23 39L23 38L24 38L24 37L25 37L25 36ZM30 36L30 38L31 38L31 36ZM6 37L6 38L7 38L7 37ZM27 37L27 38L28 38L28 37ZM0 38L0 39L1 39L1 38ZM18 38L18 41L19 41L19 43L20 43L20 41L21 41L21 43L22 43L22 41L21 41L21 40L20 40L20 41L19 41L19 39L20 39L20 38ZM51 38L51 39L52 39L52 38ZM26 39L26 40L27 40L27 41L26 41L26 42L27 42L27 41L28 41L28 42L29 42L29 43L28 43L28 44L29 44L29 45L31 45L31 46L32 46L32 47L33 47L33 46L37 46L37 45L35 45L35 43L36 43L36 42L35 42L35 41L33 41L33 43L30 43L30 42L32 42L32 41L30 41L30 42L29 42L29 41L28 41L28 39ZM34 39L34 40L35 40L35 39ZM4 41L4 42L3 42L3 43L4 43L4 42L5 42L5 41ZM7 41L7 42L8 42L8 41ZM17 42L17 43L18 43L18 42ZM34 42L34 43L33 43L33 44L34 44L34 43L35 43L35 42ZM45 42L45 43L46 43L46 42ZM50 42L50 43L51 43L51 42ZM29 43L29 44L30 44L30 43ZM19 44L19 45L18 45L18 47L19 47L19 45L22 45L22 44ZM31 44L31 45L32 45L32 46L33 46L33 45L32 45L32 44ZM54 44L54 45L56 45L56 44ZM3 45L3 47L5 47L5 46L4 46L4 45ZM47 45L47 46L49 46L49 47L50 47L50 46L49 46L49 45ZM51 45L51 46L52 46L52 45ZM1 46L1 47L2 47L2 46ZM9 46L9 47L10 47L10 46ZM15 47L15 48L13 48L13 49L15 49L15 50L16 50L16 51L17 51L17 53L19 53L19 52L18 52L18 51L19 51L19 50L20 50L20 49L19 49L19 48L18 48L18 49L17 49L17 47ZM34 47L34 48L35 48L35 47ZM9 48L9 49L10 49L10 48ZM15 48L15 49L16 49L16 50L17 50L17 51L18 51L18 50L19 50L19 49L18 49L18 50L17 50L17 49L16 49L16 48ZM27 49L27 52L30 52L30 49ZM49 49L49 52L52 52L52 49ZM25 50L25 53L26 53L26 50ZM28 50L28 51L29 51L29 50ZM38 50L38 52L39 52L39 50ZM50 50L50 51L51 51L51 50ZM20 51L20 52L21 52L21 53L22 53L22 54L23 54L23 53L22 53L22 51ZM34 51L34 52L35 52L35 51ZM40 51L40 52L41 52L41 51ZM12 52L12 53L14 53L14 52ZM29 53L29 54L30 54L30 53ZM44 53L44 54L45 54L45 53ZM47 53L47 54L48 54L48 53ZM9 55L9 56L10 56L10 55ZM27 55L27 56L28 56L28 55ZM0 0L0 7L7 7L7 0ZM1 1L1 6L6 6L6 1ZM2 2L2 5L5 5L5 2ZM50 0L50 7L57 7L57 0ZM51 1L51 6L56 6L56 1ZM52 2L52 5L55 5L55 2ZM0 50L0 57L7 57L7 50ZM1 51L1 56L6 56L6 51ZM2 52L2 55L5 55L5 52Z" fill="#000000"/></g></g></svg>
