<?xml version="1.0" encoding="UTF-8"?>
<svg xmlns="http://www.w3.org/2000/svg" version="1.1" width="300" height="300" viewBox="0 0 300 300"><rect x="0" y="0" width="300" height="300" fill="#ffffff"/><g transform="scale(4.918)"><g transform="translate(2,2)"><path fill-rule="evenodd" d="M9 0L9 1L8 1L8 2L9 2L9 3L8 3L8 4L9 4L9 3L10 3L10 2L9 2L9 1L10 1L10 0ZM14 0L14 1L15 1L15 2L14 2L14 3L13 3L13 2L12 2L12 5L11 5L11 4L10 4L10 5L8 5L8 7L9 7L9 8L6 8L6 9L7 9L7 10L5 10L5 8L0 8L0 9L1 9L1 10L2 10L2 11L3 11L3 12L4 12L4 11L7 11L7 12L5 12L5 13L4 13L4 15L7 15L7 16L6 16L6 17L7 17L7 16L9 16L9 18L10 18L10 19L11 19L11 20L10 20L10 21L9 21L9 22L8 22L8 24L6 24L6 23L7 23L7 22L6 22L6 23L4 23L4 22L5 22L5 21L7 21L7 20L9 20L9 19L8 19L8 18L6 18L6 19L4 19L4 18L5 18L5 17L4 17L4 16L2 16L2 19L3 19L3 21L4 21L4 22L3 22L3 23L2 23L2 22L1 22L1 21L2 21L2 20L0 20L0 25L2 25L2 24L3 24L3 26L0 26L0 27L3 27L3 30L2 30L2 31L3 31L3 32L4 32L4 37L5 37L5 39L4 39L4 40L6 40L6 41L7 41L7 42L6 42L6 43L7 43L7 44L5 44L5 42L4 42L4 41L3 41L3 40L2 40L2 39L3 39L3 38L2 38L2 39L1 39L1 40L0 40L0 44L1 44L1 45L0 45L0 48L5 48L5 47L7 47L7 48L6 48L6 49L7 49L7 48L9 48L9 46L10 46L10 45L9 45L9 44L11 44L11 45L12 45L12 44L13 44L13 42L14 42L14 41L15 41L15 42L16 42L16 43L17 43L17 44L15 44L15 43L14 43L14 44L15 44L15 45L14 45L14 47L12 47L12 46L11 46L11 48L12 48L12 50L11 50L11 49L8 49L8 51L9 51L9 52L8 52L8 57L9 57L9 52L10 52L10 57L11 57L11 55L12 55L12 56L13 56L13 55L12 55L12 54L11 54L11 52L13 52L13 51L14 51L14 53L13 53L13 54L14 54L14 57L20 57L20 56L19 56L19 55L20 55L20 54L18 54L18 55L17 55L17 53L20 53L20 52L21 52L21 53L22 53L22 54L21 54L21 55L22 55L22 54L24 54L24 53L26 53L26 54L25 54L25 55L26 55L26 54L27 54L27 53L28 53L28 54L30 54L30 53L31 53L31 55L32 55L32 56L30 56L30 55L29 55L29 56L30 56L30 57L32 57L32 56L34 56L34 55L35 55L35 54L36 54L36 55L38 55L38 53L39 53L39 55L40 55L40 52L42 52L42 53L41 53L41 55L43 55L43 56L42 56L42 57L44 57L44 55L43 55L43 53L44 53L44 54L45 54L45 56L47 56L47 55L48 55L48 56L49 56L49 53L50 53L50 55L51 55L51 56L50 56L50 57L52 57L52 56L53 56L53 57L56 57L56 56L55 56L55 53L54 53L54 52L55 52L55 50L57 50L57 49L53 49L53 48L57 48L57 47L56 47L56 46L57 46L57 45L56 45L56 41L55 41L55 39L57 39L57 37L56 37L56 35L55 35L55 34L57 34L57 32L56 32L56 30L57 30L57 28L55 28L55 27L53 27L53 26L52 26L52 24L54 24L54 26L55 26L55 25L56 25L56 26L57 26L57 25L56 25L56 22L57 22L57 21L54 21L54 23L52 23L52 22L53 22L53 21L51 21L51 22L50 22L50 19L49 19L49 20L48 20L48 21L47 21L47 23L46 23L46 22L45 22L45 21L44 21L44 23L46 23L46 24L45 24L45 25L47 25L47 26L48 26L48 29L47 29L47 28L46 28L46 26L43 26L43 25L44 25L44 24L43 24L43 25L42 25L42 22L43 22L43 21L42 21L42 20L45 20L45 18L46 18L46 19L47 19L47 18L46 18L46 16L47 16L47 17L48 17L48 18L50 18L50 17L48 17L48 16L47 16L47 15L49 15L49 16L50 16L50 15L51 15L51 14L52 14L52 13L51 13L51 14L50 14L50 15L49 15L49 13L50 13L50 11L52 11L52 12L53 12L53 11L54 11L54 12L55 12L55 13L54 13L54 14L53 14L53 15L52 15L52 16L51 16L51 17L52 17L52 16L53 16L53 18L51 18L51 20L55 20L55 19L53 19L53 18L54 18L54 16L55 16L55 18L57 18L57 17L56 17L56 16L57 16L57 15L56 15L56 14L57 14L57 11L56 11L56 8L55 8L55 11L54 11L54 10L49 10L49 9L50 9L50 8L49 8L49 6L48 6L48 7L47 7L47 5L48 5L48 0L44 0L44 1L47 1L47 2L43 2L43 3L47 3L47 5L46 5L46 4L44 4L44 5L46 5L46 7L45 7L45 6L44 6L44 7L43 7L43 4L41 4L41 5L40 5L40 3L42 3L42 2L40 2L40 1L43 1L43 0L39 0L39 1L37 1L37 0L35 0L35 1L34 1L34 0L30 0L30 1L29 1L29 0L28 0L28 1L29 1L29 2L28 2L28 3L27 3L27 4L26 4L26 3L23 3L23 2L25 2L25 1L26 1L26 0L24 0L24 1L23 1L23 0L21 0L21 2L19 2L19 1L18 1L18 4L17 4L17 5L18 5L18 7L17 7L17 6L16 6L16 7L15 7L15 6L14 6L14 5L16 5L16 4L14 4L14 3L17 3L17 1L16 1L16 0ZM22 1L22 2L21 2L21 3L19 3L19 4L18 4L18 5L19 5L19 7L20 7L20 5L19 5L19 4L23 4L23 5L21 5L21 7L22 7L22 8L19 8L19 9L17 9L17 7L16 7L16 8L15 8L15 7L14 7L14 6L13 6L13 5L12 5L12 6L11 6L11 7L10 7L10 6L9 6L9 7L10 7L10 8L9 8L9 9L11 9L11 12L10 12L10 13L12 13L12 14L9 14L9 12L7 12L7 13L5 13L5 14L7 14L7 13L8 13L8 14L9 14L9 16L10 16L10 18L11 18L11 19L12 19L12 18L11 18L11 17L12 17L12 16L10 16L10 15L12 15L12 14L14 14L14 15L15 15L15 16L14 16L14 17L13 17L13 19L14 19L14 20L12 20L12 21L10 21L10 22L13 22L13 23L12 23L12 24L11 24L11 23L10 23L10 26L9 26L9 27L11 27L11 26L14 26L14 27L12 27L12 28L11 28L11 29L12 29L12 28L13 28L13 29L14 29L14 27L15 27L15 26L16 26L16 27L17 27L17 28L18 28L18 29L16 29L16 30L17 30L17 31L16 31L16 32L18 32L18 31L19 31L19 33L16 33L16 35L18 35L18 34L19 34L19 35L20 35L20 34L21 34L21 35L22 35L22 36L19 36L19 37L18 37L18 36L15 36L15 35L14 35L14 37L16 37L16 38L15 38L15 39L14 39L14 38L13 38L13 37L12 37L12 41L10 41L10 40L9 40L9 41L8 41L8 40L7 40L7 39L8 39L8 37L6 37L6 36L8 36L8 34L9 34L9 37L10 37L10 39L11 39L11 37L10 37L10 36L11 36L11 35L10 35L10 34L14 34L14 32L13 32L13 33L12 33L12 32L11 32L11 31L12 31L12 30L11 30L11 31L10 31L10 29L9 29L9 32L8 32L8 31L6 31L6 32L7 32L7 33L5 33L5 35L6 35L6 36L5 36L5 37L6 37L6 38L7 38L7 39L6 39L6 40L7 40L7 41L8 41L8 42L7 42L7 43L8 43L8 42L10 42L10 43L11 43L11 42L12 42L12 41L14 41L14 40L15 40L15 41L16 41L16 42L17 42L17 43L18 43L18 41L16 41L16 40L17 40L17 37L18 37L18 38L19 38L19 39L20 39L20 38L19 38L19 37L23 37L23 38L24 38L24 37L23 37L23 32L26 32L26 33L25 33L25 34L24 34L24 36L25 36L25 38L26 38L26 39L25 39L25 42L24 42L24 43L25 43L25 44L24 44L24 45L22 45L22 44L21 44L21 45L19 45L19 46L20 46L20 47L19 47L19 49L18 49L18 50L17 50L17 49L15 49L15 50L14 50L14 48L13 48L13 50L12 50L12 51L13 51L13 50L14 50L14 51L16 51L16 53L14 53L14 54L16 54L16 53L17 53L17 52L18 52L18 50L19 50L19 49L20 49L20 50L21 50L21 51L22 51L22 53L24 53L24 51L25 51L25 52L26 52L26 49L25 49L25 50L23 50L23 49L24 49L24 47L23 47L23 46L24 46L24 45L25 45L25 48L26 48L26 46L27 46L27 48L30 48L30 47L28 47L28 46L30 46L30 45L31 45L31 46L32 46L32 47L33 47L33 46L35 46L35 47L34 47L34 48L31 48L31 49L32 49L32 50L31 50L31 52L32 52L32 54L33 54L33 55L34 55L34 54L35 54L35 52L36 52L36 51L34 51L34 52L32 52L32 51L33 51L33 50L39 50L39 48L40 48L40 50L42 50L42 52L43 52L43 51L44 51L44 53L45 53L45 54L46 54L46 55L47 55L47 54L48 54L48 52L45 52L45 51L46 51L46 50L47 50L47 51L48 51L48 48L50 48L50 47L51 47L51 45L52 45L52 46L54 46L54 45L55 45L55 46L56 46L56 45L55 45L55 44L54 44L54 45L52 45L52 44L53 44L53 43L54 43L54 40L53 40L53 39L55 39L55 38L54 38L54 37L55 37L55 36L54 36L54 37L53 37L53 36L52 36L52 34L54 34L54 33L56 33L56 32L54 32L54 31L55 31L55 30L56 30L56 29L55 29L55 28L54 28L54 29L53 29L53 31L51 31L51 32L49 32L49 31L48 31L48 30L47 30L47 29L46 29L46 30L45 30L45 27L43 27L43 28L42 28L42 26L41 26L41 22L40 22L40 23L38 23L38 24L39 24L39 25L38 25L38 26L36 26L36 24L37 24L37 23L36 23L36 22L39 22L39 21L36 21L36 20L37 20L37 19L38 19L38 18L39 18L39 20L40 20L40 21L41 21L41 20L42 20L42 19L44 19L44 18L45 18L45 16L43 16L43 18L42 18L42 16L40 16L40 15L38 15L38 16L40 16L40 18L39 18L39 17L38 17L38 18L37 18L37 19L36 19L36 18L35 18L35 17L36 17L36 16L37 16L37 15L36 15L36 16L35 16L35 15L33 15L33 16L32 16L32 14L30 14L30 15L28 15L28 16L27 16L27 14L28 14L28 13L31 13L31 12L32 12L32 13L33 13L33 14L35 14L35 13L36 13L36 14L42 14L42 15L43 15L43 14L45 14L45 12L46 12L46 14L47 14L47 13L49 13L49 12L48 12L48 11L45 11L45 10L48 10L48 9L49 9L49 8L48 8L48 9L47 9L47 8L46 8L46 9L45 9L45 7L44 7L44 9L43 9L43 10L42 10L42 8L43 8L43 7L42 7L42 5L41 5L41 7L40 7L40 6L39 6L39 4L38 4L38 3L39 3L39 2L36 2L36 1L35 1L35 4L34 4L34 3L32 3L32 4L31 4L31 3L30 3L30 4L31 4L31 9L32 9L32 10L33 10L33 11L34 11L34 12L35 12L35 13L33 13L33 12L32 12L32 11L31 11L31 10L30 10L30 11L29 11L29 10L28 10L28 9L25 9L25 8L26 8L26 4L25 4L25 8L24 8L24 6L23 6L23 5L24 5L24 4L23 4L23 3L22 3L22 2L23 2L23 1ZM30 1L30 2L34 2L34 1ZM28 3L28 4L29 4L29 3ZM36 3L36 5L35 5L35 6L34 6L34 7L33 7L33 6L32 6L32 8L33 8L33 10L34 10L34 11L35 11L35 10L36 10L36 9L37 9L37 8L38 8L38 9L39 9L39 8L40 8L40 7L39 7L39 6L38 6L38 7L37 7L37 6L36 6L36 5L38 5L38 4L37 4L37 3ZM27 5L27 8L30 8L30 5ZM12 6L12 7L13 7L13 8L11 8L11 9L13 9L13 11L14 11L14 12L13 12L13 13L15 13L15 15L16 15L16 17L14 17L14 18L15 18L15 21L16 21L16 22L14 22L14 21L13 21L13 22L14 22L14 23L13 23L13 24L12 24L12 25L14 25L14 26L15 26L15 23L16 23L16 24L17 24L17 25L18 25L18 26L17 26L17 27L18 27L18 26L20 26L20 27L22 27L22 26L23 26L23 28L24 28L24 27L26 27L26 30L25 30L25 29L23 29L23 30L24 30L24 31L27 31L27 33L26 33L26 34L25 34L25 36L26 36L26 37L27 37L27 38L28 38L28 37L27 37L27 36L26 36L26 35L27 35L27 33L29 33L29 34L30 34L30 36L29 36L29 39L31 39L31 40L30 40L30 41L31 41L31 42L30 42L30 43L29 43L29 42L28 42L28 43L26 43L26 44L25 44L25 45L26 45L26 44L28 44L28 45L27 45L27 46L28 46L28 45L29 45L29 44L30 44L30 43L32 43L32 44L31 44L31 45L32 45L32 44L34 44L34 43L35 43L35 44L36 44L36 45L37 45L37 44L38 44L38 40L40 40L40 38L39 38L39 39L37 39L37 38L38 38L38 35L39 35L39 34L40 34L40 32L45 32L45 31L44 31L44 30L43 30L43 29L44 29L44 28L43 28L43 29L42 29L42 30L41 30L41 29L39 29L39 28L38 28L38 27L39 27L39 26L40 26L40 25L39 25L39 26L38 26L38 27L36 27L36 26L35 26L35 27L34 27L34 28L33 28L33 27L32 27L32 26L33 26L33 25L34 25L34 24L33 24L33 23L35 23L35 22L33 22L33 21L34 21L34 20L35 20L35 18L34 18L34 17L33 17L33 18L34 18L34 19L32 19L32 18L31 18L31 17L32 17L32 16L31 16L31 15L30 15L30 16L31 16L31 17L29 17L29 16L28 16L28 17L27 17L27 16L25 16L25 14L26 14L26 13L28 13L28 12L29 12L29 11L27 11L27 10L26 10L26 11L27 11L27 12L25 12L25 9L24 9L24 8L23 8L23 10L22 10L22 9L21 9L21 10L20 10L20 9L19 9L19 10L18 10L18 11L17 11L17 12L16 12L16 11L15 11L15 9L14 9L14 7L13 7L13 6ZM22 6L22 7L23 7L23 6ZM28 6L28 7L29 7L29 6ZM35 6L35 8L37 8L37 7L36 7L36 6ZM38 7L38 8L39 8L39 7ZM41 7L41 8L42 8L42 7ZM51 8L51 9L52 9L52 8ZM53 8L53 9L54 9L54 8ZM34 9L34 10L35 10L35 9ZM44 9L44 10L45 10L45 9ZM8 10L8 11L10 11L10 10ZM21 10L21 11L20 11L20 12L21 12L21 13L19 13L19 15L18 15L18 14L17 14L17 13L18 13L18 12L17 12L17 13L16 13L16 15L17 15L17 16L19 16L19 17L16 17L16 18L19 18L19 20L20 20L20 21L18 21L18 20L17 20L17 19L16 19L16 21L18 21L18 22L17 22L17 23L19 23L19 25L20 25L20 26L22 26L22 25L23 25L23 26L24 26L24 25L25 25L25 26L26 26L26 25L27 25L27 24L28 24L28 26L29 26L29 24L30 24L30 23L31 23L31 22L30 22L30 21L31 21L31 20L30 20L30 19L31 19L31 18L29 18L29 20L28 20L28 18L27 18L27 17L25 17L25 18L27 18L27 19L26 19L26 20L25 20L25 21L24 21L24 20L22 20L22 21L21 21L21 19L24 19L24 18L23 18L23 17L24 17L24 15L23 15L23 13L25 13L25 12L23 12L23 13L22 13L22 12L21 12L21 11L22 11L22 10ZM23 10L23 11L24 11L24 10ZM37 10L37 12L36 12L36 13L38 13L38 12L39 12L39 11L40 11L40 10ZM0 11L0 12L1 12L1 13L2 13L2 12L1 12L1 11ZM30 11L30 12L31 12L31 11ZM42 11L42 14L43 14L43 13L44 13L44 12L43 12L43 11ZM21 13L21 14L20 14L20 15L21 15L21 16L20 16L20 17L21 17L21 18L20 18L20 19L21 19L21 18L22 18L22 17L21 17L21 16L22 16L22 13ZM55 13L55 14L56 14L56 13ZM0 14L0 16L1 16L1 15L3 15L3 14ZM53 15L53 16L54 16L54 15ZM3 17L3 18L4 18L4 17ZM0 18L0 19L1 19L1 18ZM41 18L41 19L40 19L40 20L41 20L41 19L42 19L42 18ZM6 19L6 20L7 20L7 19ZM4 20L4 21L5 21L5 20ZM26 20L26 21L25 21L25 22L26 22L26 23L25 23L25 24L27 24L27 23L28 23L28 24L29 24L29 23L30 23L30 22L29 22L29 23L28 23L28 22L27 22L27 21L28 21L28 20ZM29 20L29 21L30 21L30 20ZM32 20L32 21L33 21L33 20ZM22 21L22 22L21 22L21 24L20 24L20 25L22 25L22 23L23 23L23 25L24 25L24 23L23 23L23 22L24 22L24 21ZM19 22L19 23L20 23L20 22ZM49 22L49 23L48 23L48 24L47 24L47 25L49 25L49 26L51 26L51 25L50 25L50 24L52 24L52 23L50 23L50 22ZM1 23L1 24L2 24L2 23ZM3 23L3 24L4 24L4 23ZM49 23L49 24L50 24L50 23ZM5 24L5 25L4 25L4 26L3 26L3 27L4 27L4 26L5 26L5 25L6 25L6 26L7 26L7 25L6 25L6 24ZM31 24L31 25L33 25L33 24ZM5 27L5 30L8 30L8 27ZM27 27L27 30L30 30L30 27ZM31 27L31 28L32 28L32 29L31 29L31 31L29 31L29 32L30 32L30 33L31 33L31 34L32 34L32 38L31 38L31 36L30 36L30 38L31 38L31 39L33 39L33 40L32 40L32 41L33 41L33 42L36 42L36 44L37 44L37 42L36 42L36 41L34 41L34 40L37 40L37 39L34 39L34 38L37 38L37 37L36 37L36 36L37 36L37 35L38 35L38 34L39 34L39 32L40 32L40 31L38 31L38 32L37 32L37 31L36 31L36 29L33 29L33 28L32 28L32 27ZM40 27L40 28L41 28L41 27ZM49 27L49 30L52 30L52 27ZM0 28L0 29L2 29L2 28ZM6 28L6 29L7 29L7 28ZM19 28L19 29L18 29L18 30L19 30L19 29L22 29L22 28ZM28 28L28 29L29 29L29 28ZM37 28L37 30L39 30L39 29L38 29L38 28ZM50 28L50 29L51 29L51 28ZM32 29L32 30L33 30L33 31L31 31L31 32L34 32L34 33L32 33L32 34L34 34L34 35L37 35L37 34L38 34L38 33L37 33L37 32L36 32L36 31L35 31L35 30L33 30L33 29ZM54 29L54 30L55 30L55 29ZM0 30L0 31L1 31L1 30ZM3 30L3 31L4 31L4 30ZM20 30L20 31L22 31L22 30ZM42 30L42 31L43 31L43 30ZM46 30L46 31L47 31L47 32L46 32L46 33L45 33L45 34L44 34L44 35L43 35L43 36L42 36L42 37L41 37L41 38L42 38L42 40L43 40L43 41L40 41L40 42L42 42L42 43L41 43L41 44L45 44L45 46L44 46L44 47L42 47L42 46L43 46L43 45L42 45L42 46L41 46L41 45L40 45L40 46L41 46L41 47L40 47L40 48L41 48L41 49L42 49L42 50L46 50L46 48L45 48L45 47L47 47L47 46L46 46L46 45L47 45L47 44L48 44L48 45L49 45L49 47L50 47L50 44L51 44L51 43L50 43L50 42L51 42L51 41L49 41L49 40L52 40L52 41L53 41L53 40L52 40L52 39L53 39L53 38L51 38L51 37L52 37L52 36L51 36L51 35L49 35L49 36L48 36L48 33L47 33L47 32L48 32L48 31L47 31L47 30ZM34 31L34 32L35 32L35 33L34 33L34 34L36 34L36 32L35 32L35 31ZM0 32L0 34L1 34L1 35L0 35L0 36L1 36L1 35L2 35L2 34L3 34L3 33L2 33L2 34L1 34L1 32ZM9 32L9 33L11 33L11 32ZM20 32L20 33L21 33L21 34L22 34L22 33L21 33L21 32ZM51 32L51 33L50 33L50 34L51 34L51 33L54 33L54 32ZM7 33L7 34L6 34L6 35L7 35L7 34L8 34L8 33ZM41 33L41 34L43 34L43 33ZM46 33L46 34L45 34L45 35L44 35L44 37L43 37L43 40L44 40L44 41L43 41L43 43L46 43L46 42L47 42L47 43L49 43L49 42L47 42L47 41L48 41L48 40L49 40L49 39L51 39L51 38L49 38L49 37L48 37L48 36L47 36L47 35L46 35L46 34L47 34L47 33ZM12 35L12 36L13 36L13 35ZM40 35L40 36L39 36L39 37L40 37L40 36L41 36L41 35ZM45 35L45 36L46 36L46 37L47 37L47 39L49 39L49 38L48 38L48 37L47 37L47 36L46 36L46 35ZM33 36L33 37L34 37L34 36ZM50 36L50 37L51 37L51 36ZM0 37L0 38L1 38L1 37ZM44 37L44 38L45 38L45 41L44 41L44 42L46 42L46 41L47 41L47 40L46 40L46 38L45 38L45 37ZM15 39L15 40L16 40L16 39ZM22 39L22 40L21 40L21 41L20 41L20 42L19 42L19 44L20 44L20 43L22 43L22 42L21 42L21 41L24 41L24 39ZM26 39L26 40L27 40L27 41L26 41L26 42L27 42L27 41L28 41L28 39ZM1 40L1 43L2 43L2 44L3 44L3 45L5 45L5 46L3 46L3 47L5 47L5 46L7 46L7 47L8 47L8 46L7 46L7 45L8 45L8 44L7 44L7 45L5 45L5 44L3 44L3 42L2 42L2 40ZM28 43L28 44L29 44L29 43ZM39 43L39 44L40 44L40 43ZM17 44L17 45L16 45L16 46L15 46L15 47L16 47L16 48L17 48L17 47L18 47L18 46L17 46L17 45L18 45L18 44ZM1 45L1 47L2 47L2 45ZM21 45L21 47L20 47L20 48L23 48L23 47L22 47L22 45ZM16 46L16 47L17 47L17 46ZM37 46L37 48L36 48L36 47L35 47L35 48L34 48L34 49L35 49L35 48L36 48L36 49L38 49L38 47L39 47L39 46ZM52 47L52 48L53 48L53 47ZM43 48L43 49L45 49L45 48ZM21 49L21 50L22 50L22 49ZM27 49L27 52L30 52L30 49ZM49 49L49 52L52 52L52 49ZM9 50L9 51L10 51L10 52L11 52L11 51L10 51L10 50ZM16 50L16 51L17 51L17 50ZM28 50L28 51L29 51L29 50ZM50 50L50 51L51 51L51 50ZM53 50L53 51L54 51L54 50ZM39 51L39 52L40 52L40 51ZM56 51L56 52L57 52L57 51ZM36 53L36 54L37 54L37 53ZM53 53L53 54L51 54L51 55L53 55L53 54L54 54L54 53ZM15 55L15 56L16 56L16 55ZM23 55L23 56L24 56L24 57L26 57L26 56L24 56L24 55ZM27 55L27 56L28 56L28 55ZM35 56L35 57L38 57L38 56ZM0 0L0 7L7 7L7 0ZM1 1L1 6L6 6L6 1ZM2 2L2 5L5 5L5 2ZM50 0L50 7L57 7L57 0ZM51 1L51 6L56 6L56 1ZM52 2L52 5L55 5L55 2ZM0 50L0 57L7 57L7 50ZM1 51L1 56L6 56L6 51ZM2 52L2 55L5 55L5 52Z" fill="#000000"/></g></g></svg>
