<?xml version="1.0" encoding="UTF-8"?>
<svg xmlns="http://www.w3.org/2000/svg" version="1.1" width="300" height="300" viewBox="0 0 300 300"><rect x="0" y="0" width="300" height="300" fill="#ffffff"/><g transform="scale(4.918)"><g transform="translate(2,2)"><path fill-rule="evenodd" d="M9 0L9 1L8 1L8 2L9 2L9 1L10 1L10 0ZM12 0L12 2L13 2L13 0ZM14 0L14 1L15 1L15 2L14 2L14 3L17 3L17 4L19 4L19 5L20 5L20 7L19 7L19 6L18 6L18 5L17 5L17 6L16 6L16 7L15 7L15 6L14 6L14 7L13 7L13 5L12 5L12 4L11 4L11 3L8 3L8 4L10 4L10 5L8 5L8 7L9 7L9 6L10 6L10 7L11 7L11 8L12 8L12 9L14 9L14 7L15 7L15 9L16 9L16 7L17 7L17 8L18 8L18 9L17 9L17 10L18 10L18 11L16 11L16 10L13 10L13 11L14 11L14 12L12 12L12 11L10 11L10 10L8 10L8 9L10 9L10 8L6 8L6 9L5 9L5 8L0 8L0 12L1 12L1 13L0 13L0 15L1 15L1 16L2 16L2 14L3 14L3 16L6 16L6 17L7 17L7 18L6 18L6 19L7 19L7 20L6 20L6 21L5 21L5 20L4 20L4 18L5 18L5 17L4 17L4 18L3 18L3 17L0 17L0 18L1 18L1 19L0 19L0 20L4 20L4 25L3 25L3 24L1 24L1 25L0 25L0 27L1 27L1 26L2 26L2 28L0 28L0 32L1 32L1 30L2 30L2 28L4 28L4 29L3 29L3 33L5 33L5 36L4 36L4 38L3 38L3 37L2 37L2 39L1 39L1 38L0 38L0 40L1 40L1 41L0 41L0 43L1 43L1 41L2 41L2 40L3 40L3 42L2 42L2 44L1 44L1 46L0 46L0 48L5 48L5 47L7 47L7 46L8 46L8 44L9 44L9 43L10 43L10 45L11 45L11 46L9 46L9 47L8 47L8 51L10 51L10 52L11 52L11 53L10 53L10 54L9 54L9 52L8 52L8 57L9 57L9 55L11 55L11 57L13 57L13 56L12 56L12 55L13 55L13 54L14 54L14 53L16 53L16 54L15 54L15 55L16 55L16 56L14 56L14 57L16 57L16 56L17 56L17 57L21 57L21 56L22 56L22 55L23 55L23 56L24 56L24 57L26 57L26 56L28 56L28 55L27 55L27 53L28 53L28 54L29 54L29 53L30 53L30 54L31 54L31 55L29 55L29 57L30 57L30 56L31 56L31 57L32 57L32 56L35 56L35 55L37 55L37 56L36 56L36 57L37 57L37 56L39 56L39 55L40 55L40 52L43 52L43 53L41 53L41 54L42 54L42 56L41 56L41 57L42 57L42 56L43 56L43 57L44 57L44 56L45 56L45 55L46 55L46 54L45 54L45 53L44 53L44 51L45 51L45 52L48 52L48 53L47 53L47 55L50 55L50 53L51 53L51 54L53 54L53 55L51 55L51 56L50 56L50 57L52 57L52 56L55 56L55 57L56 57L56 56L55 56L55 55L54 55L54 54L55 54L55 53L53 53L53 52L55 52L55 51L53 51L53 50L54 50L54 48L55 48L55 50L57 50L57 48L55 48L55 45L54 45L54 44L55 44L55 43L56 43L56 44L57 44L57 43L56 43L56 42L55 42L55 39L57 39L57 35L56 35L56 37L53 37L53 40L52 40L52 39L50 39L50 38L51 38L51 37L50 37L50 36L51 36L51 35L50 35L50 34L51 34L51 33L53 33L53 34L52 34L52 36L55 36L55 35L54 35L54 34L55 34L55 33L54 33L54 32L55 32L55 31L56 31L56 32L57 32L57 31L56 31L56 30L57 30L57 28L56 28L56 29L54 29L54 28L55 28L55 27L56 27L56 26L57 26L57 25L56 25L56 24L57 24L57 23L56 23L56 22L57 22L57 21L55 21L55 23L52 23L52 24L50 24L50 25L48 25L48 24L46 24L46 25L45 25L45 26L44 26L44 27L42 27L42 28L43 28L43 29L42 29L42 30L41 30L41 31L40 31L40 30L36 30L36 31L35 31L35 30L33 30L33 31L32 31L32 29L31 29L31 28L33 28L33 29L38 29L38 28L36 28L36 27L35 27L35 26L37 26L37 27L39 27L39 28L40 28L40 27L39 27L39 26L43 26L43 25L42 25L42 24L45 24L45 23L46 23L46 22L45 22L45 21L44 21L44 23L43 23L43 21L41 21L41 22L42 22L42 24L41 24L41 23L40 23L40 22L39 22L39 23L40 23L40 24L41 24L41 25L39 25L39 26L37 26L37 25L38 25L38 24L35 24L35 26L33 26L33 25L32 25L32 24L30 24L30 22L31 22L31 23L33 23L33 24L34 24L34 23L33 23L33 21L32 21L32 20L33 20L33 19L32 19L32 18L31 18L31 17L29 17L29 16L28 16L28 15L30 15L30 16L33 16L33 18L34 18L34 19L35 19L35 18L36 18L36 19L37 19L37 20L36 20L36 21L37 21L37 22L36 22L36 23L37 23L37 22L38 22L38 19L40 19L40 20L39 20L39 21L40 21L40 20L41 20L41 19L42 19L42 20L45 20L45 19L44 19L44 17L43 17L43 16L46 16L46 17L45 17L45 18L46 18L46 20L49 20L49 21L48 21L48 22L50 22L50 23L51 23L51 22L52 22L52 21L51 21L51 22L50 22L50 19L51 19L51 18L53 18L53 19L52 19L52 20L55 20L55 19L56 19L56 20L57 20L57 19L56 19L56 18L57 18L57 17L56 17L56 18L53 18L53 17L54 17L54 16L57 16L57 15L56 15L56 14L57 14L57 13L56 13L56 14L55 14L55 13L54 13L54 14L55 14L55 15L54 15L54 16L53 16L53 17L51 17L51 18L50 18L50 17L49 17L49 16L48 16L48 17L47 17L47 16L46 16L46 15L50 15L50 16L52 16L52 15L51 15L51 14L52 14L52 13L51 13L51 14L50 14L50 11L51 11L51 10L52 10L52 8L51 8L51 10L49 10L49 9L50 9L50 8L49 8L49 6L48 6L48 8L47 8L47 5L48 5L48 0L46 0L46 1L44 1L44 0L42 0L42 1L41 1L41 0L39 0L39 1L34 1L34 0L32 0L32 1L34 1L34 2L31 2L31 3L30 3L30 4L28 4L28 3L29 3L29 2L30 2L30 1L31 1L31 0L30 0L30 1L29 1L29 0L27 0L27 1L26 1L26 0L24 0L24 1L23 1L23 0L21 0L21 1L17 1L17 2L16 2L16 0ZM22 1L22 2L23 2L23 3L22 3L22 4L21 4L21 2L20 2L20 3L19 3L19 4L21 4L21 5L22 5L22 6L21 6L21 7L22 7L22 9L20 9L20 8L19 8L19 9L18 9L18 10L19 10L19 9L20 9L20 10L21 10L21 11L22 11L22 9L23 9L23 10L24 10L24 11L23 11L23 13L22 13L22 12L21 12L21 13L20 13L20 12L19 12L19 13L20 13L20 14L19 14L19 15L18 15L18 14L17 14L17 13L18 13L18 12L17 12L17 13L16 13L16 14L15 14L15 13L13 13L13 14L12 14L12 12L9 12L9 11L8 11L8 12L9 12L9 13L8 13L8 17L9 17L9 18L11 18L11 17L12 17L12 16L14 16L14 17L13 17L13 19L14 19L14 20L13 20L13 21L12 21L12 20L11 20L11 21L12 21L12 22L9 22L9 23L8 23L8 21L9 21L9 20L10 20L10 19L9 19L9 20L7 20L7 21L6 21L6 22L7 22L7 23L5 23L5 26L10 26L10 27L11 27L11 26L13 26L13 25L14 25L14 24L16 24L16 23L15 23L15 22L16 22L16 21L17 21L17 22L20 22L20 23L19 23L19 25L18 25L18 24L17 24L17 25L15 25L15 27L13 27L13 28L9 28L9 29L11 29L11 30L10 30L10 31L12 31L12 32L11 32L11 33L14 33L14 32L15 32L15 34L12 34L12 36L9 36L9 35L10 35L10 33L9 33L9 31L6 31L6 32L8 32L8 33L6 33L6 34L7 34L7 35L6 35L6 36L7 36L7 37L5 37L5 38L4 38L4 39L3 39L3 40L4 40L4 42L3 42L3 47L5 47L5 46L4 46L4 44L5 44L5 45L6 45L6 46L7 46L7 45L6 45L6 44L8 44L8 43L9 43L9 42L11 42L11 43L12 43L12 44L13 44L13 46L12 46L12 47L11 47L11 48L10 48L10 49L11 49L11 52L13 52L13 53L14 53L14 52L13 52L13 50L12 50L12 49L13 49L13 48L12 48L12 47L13 47L13 46L16 46L16 47L17 47L17 48L19 48L19 49L15 49L15 47L14 47L14 49L15 49L15 50L14 50L14 51L15 51L15 50L16 50L16 51L17 51L17 52L16 52L16 53L18 53L18 54L17 54L17 55L18 55L18 54L20 54L20 55L19 55L19 56L21 56L21 53L24 53L24 54L23 54L23 55L24 55L24 56L26 56L26 54L25 54L25 53L26 53L26 51L25 51L25 50L26 50L26 48L25 48L25 50L23 50L23 49L24 49L24 48L23 48L23 47L26 47L26 46L27 46L27 47L28 47L28 48L29 48L29 45L28 45L28 44L30 44L30 46L32 46L32 47L33 47L33 48L31 48L31 52L32 52L32 54L34 54L34 55L35 55L35 54L36 54L36 52L37 52L37 51L38 51L38 50L42 50L42 51L44 51L44 50L45 50L45 51L46 51L46 50L47 50L47 51L48 51L48 48L50 48L50 47L51 47L51 48L54 48L54 47L51 47L51 46L50 46L50 45L52 45L52 46L53 46L53 45L52 45L52 44L53 44L53 43L54 43L54 40L53 40L53 41L52 41L52 40L50 40L50 39L49 39L49 38L50 38L50 37L49 37L49 36L50 36L50 35L49 35L49 34L50 34L50 33L51 33L51 32L54 32L54 31L55 31L55 30L54 30L54 29L53 29L53 30L54 30L54 31L51 31L51 32L50 32L50 31L48 31L48 30L47 30L47 29L48 29L48 27L46 27L46 26L48 26L48 25L46 25L46 26L45 26L45 27L44 27L44 30L42 30L42 31L41 31L41 32L39 32L39 31L38 31L38 33L36 33L36 32L37 32L37 31L36 31L36 32L35 32L35 31L33 31L33 32L31 32L31 31L28 31L28 32L29 32L29 33L27 33L27 31L25 31L25 34L24 34L24 36L25 36L25 34L26 34L26 35L27 35L27 36L26 36L26 37L25 37L25 38L27 38L27 39L25 39L25 43L24 43L24 45L22 45L22 44L21 44L21 43L22 43L22 42L23 42L23 41L24 41L24 39L22 39L22 37L23 37L23 38L24 38L24 37L23 37L23 35L22 35L22 37L21 37L21 33L22 33L22 34L23 34L23 32L24 32L24 31L23 31L23 32L22 32L22 31L20 31L20 30L23 30L23 29L25 29L25 30L26 30L26 27L23 27L23 26L24 26L24 25L25 25L25 26L26 26L26 25L28 25L28 26L29 26L29 24L25 24L25 23L26 23L26 22L25 22L25 21L24 21L24 20L23 20L23 19L24 19L24 18L23 18L23 17L24 17L24 16L23 16L23 15L25 15L25 16L27 16L27 17L28 17L28 16L27 16L27 15L26 15L26 14L28 14L28 13L29 13L29 14L30 14L30 15L31 15L31 14L32 14L32 15L33 15L33 14L35 14L35 15L36 15L36 16L34 16L34 18L35 18L35 17L36 17L36 18L40 18L40 19L41 19L41 18L42 18L42 19L43 19L43 18L42 18L42 16L43 16L43 15L45 15L45 12L46 12L46 14L47 14L47 13L49 13L49 11L47 11L47 10L48 10L48 9L49 9L49 8L48 8L48 9L47 9L47 8L46 8L46 9L45 9L45 7L46 7L46 6L45 6L45 5L44 5L44 4L46 4L46 5L47 5L47 3L43 3L43 7L44 7L44 9L45 9L45 10L43 10L43 12L44 12L44 14L42 14L42 10L41 10L41 8L42 8L42 9L43 9L43 8L42 8L42 6L41 6L41 4L42 4L42 3L40 3L40 4L39 4L39 2L38 2L38 5L39 5L39 8L38 8L38 6L37 6L37 5L36 5L36 3L37 3L37 2L35 2L35 4L34 4L34 5L33 5L33 3L32 3L32 4L31 4L31 7L32 7L32 6L33 6L33 7L34 7L34 8L32 8L32 9L31 9L31 10L27 10L27 9L25 9L25 8L26 8L26 4L27 4L27 3L28 3L28 2L29 2L29 1L28 1L28 2L26 2L26 1L25 1L25 2L23 2L23 1ZM40 1L40 2L41 2L41 1ZM42 1L42 2L44 2L44 1ZM46 1L46 2L47 2L47 1ZM23 3L23 4L22 4L22 5L23 5L23 6L22 6L22 7L23 7L23 6L24 6L24 8L23 8L23 9L24 9L24 10L25 10L25 9L24 9L24 8L25 8L25 4L26 4L26 3ZM14 4L14 5L16 5L16 4ZM23 4L23 5L24 5L24 4ZM27 5L27 8L30 8L30 5ZM34 5L34 7L35 7L35 8L34 8L34 9L37 9L37 12L36 12L36 10L35 10L35 12L34 12L34 10L31 10L31 11L27 11L27 10L26 10L26 11L27 11L27 12L25 12L25 13L23 13L23 14L26 14L26 13L28 13L28 12L30 12L30 14L31 14L31 13L32 13L32 14L33 14L33 13L37 13L37 14L36 14L36 15L37 15L37 16L36 16L36 17L37 17L37 16L38 16L38 15L37 15L37 14L38 14L38 12L41 12L41 10L40 10L40 9L39 9L39 10L38 10L38 9L37 9L37 6L36 6L36 5ZM11 6L11 7L12 7L12 6ZM17 6L17 7L18 7L18 6ZM28 6L28 7L29 7L29 6ZM35 6L35 7L36 7L36 6ZM40 6L40 7L41 7L41 6ZM44 6L44 7L45 7L45 6ZM53 8L53 9L54 9L54 8ZM55 8L55 9L56 9L56 8ZM1 9L1 10L4 10L4 13L3 13L3 14L4 14L4 15L5 15L5 14L4 14L4 13L5 13L5 11L6 11L6 12L7 12L7 11L6 11L6 10L7 10L7 9L6 9L6 10L4 10L4 9ZM45 10L45 11L46 11L46 10ZM53 10L53 11L52 11L52 12L53 12L53 11L54 11L54 12L55 12L55 11L56 11L56 10L55 10L55 11L54 11L54 10ZM2 11L2 12L3 12L3 11ZM31 11L31 12L32 12L32 13L33 13L33 12L32 12L32 11ZM1 13L1 14L2 14L2 13ZM6 13L6 14L7 14L7 13ZM10 13L10 16L9 16L9 17L11 17L11 15L12 15L12 14L11 14L11 13ZM21 13L21 14L20 14L20 15L19 15L19 16L18 16L18 17L19 17L19 18L18 18L18 19L19 19L19 20L17 20L17 21L20 21L20 20L21 20L21 21L22 21L22 22L24 22L24 21L22 21L22 20L21 20L21 18L22 18L22 17L21 17L21 18L20 18L20 17L19 17L19 16L20 16L20 15L21 15L21 16L22 16L22 13ZM39 13L39 14L40 14L40 15L39 15L39 16L41 16L41 15L42 15L42 14L41 14L41 13ZM13 14L13 15L15 15L15 17L14 17L14 18L15 18L15 17L17 17L17 15L15 15L15 14ZM6 15L6 16L7 16L7 15ZM25 17L25 18L26 18L26 21L28 21L28 22L30 22L30 21L31 21L31 20L30 20L30 19L31 19L31 18L29 18L29 20L27 20L27 19L28 19L28 18L26 18L26 17ZM40 17L40 18L41 18L41 17ZM46 17L46 18L47 18L47 19L50 19L50 18L47 18L47 17ZM7 18L7 19L8 19L8 18ZM16 18L16 19L15 19L15 21L16 21L16 19L17 19L17 18ZM19 18L19 19L20 19L20 18ZM0 21L0 23L3 23L3 21ZM13 21L13 22L14 22L14 21ZM53 21L53 22L54 22L54 21ZM9 23L9 24L6 24L6 25L9 25L9 24L11 24L11 25L10 25L10 26L11 26L11 25L12 25L12 23ZM22 23L22 24L24 24L24 23ZM20 24L20 25L19 25L19 26L20 26L20 25L21 25L21 27L22 27L22 25L21 25L21 24ZM52 24L52 25L53 25L53 27L55 27L55 26L54 26L54 25L55 25L55 24ZM17 25L17 27L15 27L15 28L14 28L14 30L13 30L13 29L12 29L12 30L13 30L13 32L14 32L14 30L15 30L15 31L16 31L16 29L18 29L18 30L17 30L17 31L18 31L18 33L19 33L19 34L17 34L17 35L18 35L18 37L17 37L17 39L19 39L19 40L17 40L17 41L18 41L18 43L17 43L17 44L16 44L16 43L15 43L15 42L14 42L14 41L16 41L16 39L15 39L15 38L16 38L16 37L15 37L15 36L16 36L16 35L15 35L15 36L14 36L14 35L13 35L13 36L12 36L12 38L11 38L11 37L8 37L8 38L6 38L6 39L4 39L4 40L5 40L5 42L6 42L6 43L8 43L8 41L7 41L7 40L8 40L8 39L9 39L9 41L13 41L13 43L14 43L14 44L15 44L15 45L17 45L17 46L18 46L18 47L20 47L20 46L19 46L19 45L21 45L21 47L22 47L22 45L21 45L21 44L19 44L19 42L20 42L20 43L21 43L21 42L22 42L22 41L21 41L21 40L22 40L22 39L21 39L21 37L19 37L19 35L20 35L20 33L19 33L19 31L18 31L18 30L20 30L20 29L22 29L22 28L20 28L20 29L18 29L18 28L17 28L17 27L18 27L18 25ZM50 25L50 26L51 26L51 25ZM31 26L31 27L33 27L33 28L34 28L34 27L33 27L33 26ZM5 27L5 30L8 30L8 27ZM27 27L27 30L30 30L30 27ZM45 27L45 30L44 30L44 32L43 32L43 31L42 31L42 32L41 32L41 34L43 34L43 35L40 35L40 36L39 36L39 34L40 34L40 33L39 33L39 34L36 34L36 33L35 33L35 32L34 32L34 33L35 33L35 34L33 34L33 35L34 35L34 36L33 36L33 39L31 39L31 38L32 38L32 35L31 35L31 34L30 34L30 33L31 33L31 32L30 32L30 33L29 33L29 34L30 34L30 35L31 35L31 38L30 38L30 36L29 36L29 39L28 39L28 40L27 40L27 41L26 41L26 42L27 42L27 43L26 43L26 44L25 44L25 45L24 45L24 46L25 46L25 45L26 45L26 44L28 44L28 42L27 42L27 41L29 41L29 43L31 43L31 42L33 42L33 43L32 43L32 44L31 44L31 45L32 45L32 46L33 46L33 47L35 47L35 48L36 48L36 49L35 49L35 50L34 50L34 49L32 49L32 50L34 50L34 53L35 53L35 52L36 52L36 51L37 51L37 50L38 50L38 49L39 49L39 48L41 48L41 49L42 49L42 50L43 50L43 49L44 49L44 48L45 48L45 50L46 50L46 49L47 49L47 48L45 48L45 47L47 47L47 46L46 46L46 45L47 45L47 44L49 44L49 45L50 45L50 44L52 44L52 43L50 43L50 42L51 42L51 41L49 41L49 39L47 39L47 40L46 40L46 41L47 41L47 42L44 42L44 39L42 39L42 38L43 38L43 37L44 37L44 38L45 38L45 37L44 37L44 32L45 32L45 34L46 34L46 35L48 35L48 33L47 33L47 34L46 34L46 31L47 31L47 32L48 32L48 31L47 31L47 30L46 30L46 29L47 29L47 28L46 28L46 27ZM49 27L49 30L52 30L52 27ZM6 28L6 29L7 29L7 28ZM15 28L15 29L16 29L16 28ZM28 28L28 29L29 29L29 28ZM50 28L50 29L51 29L51 28ZM45 30L45 31L46 31L46 30ZM16 32L16 33L17 33L17 32ZM56 33L56 34L57 34L57 33ZM35 34L35 36L34 36L34 38L37 38L37 39L36 39L36 40L34 40L34 39L33 39L33 40L32 40L32 41L33 41L33 42L34 42L34 44L32 44L32 45L33 45L33 46L36 46L36 48L37 48L37 47L38 47L38 48L39 48L39 45L41 45L41 46L42 46L42 47L41 47L41 48L42 48L42 49L43 49L43 48L44 48L44 47L45 47L45 46L42 46L42 45L43 45L43 44L44 44L44 45L45 45L45 43L44 43L44 42L43 42L43 44L39 44L39 43L42 43L42 42L40 42L40 41L41 41L41 40L39 40L39 39L41 39L41 38L42 38L42 37L43 37L43 36L42 36L42 37L41 37L41 36L40 36L40 38L39 38L39 37L38 37L38 35L36 35L36 34ZM2 35L2 36L3 36L3 35ZM0 36L0 37L1 37L1 36ZM13 36L13 38L12 38L12 39L11 39L11 40L13 40L13 41L14 41L14 40L13 40L13 38L15 38L15 37L14 37L14 36ZM27 36L27 38L28 38L28 36ZM36 36L36 37L37 37L37 38L38 38L38 39L37 39L37 40L36 40L36 41L35 41L35 43L36 43L36 44L35 44L35 45L37 45L37 46L38 46L38 45L39 45L39 44L37 44L37 43L38 43L38 41L37 41L37 40L38 40L38 39L39 39L39 38L38 38L38 37L37 37L37 36ZM18 37L18 38L19 38L19 39L20 39L20 38L19 38L19 37ZM54 38L54 39L55 39L55 38ZM6 39L6 40L7 40L7 39ZM29 39L29 41L30 41L30 42L31 42L31 41L30 41L30 40L31 40L31 39ZM33 40L33 41L34 41L34 40ZM42 40L42 41L43 41L43 40ZM47 40L47 41L48 41L48 40ZM6 41L6 42L7 42L7 41ZM20 41L20 42L21 42L21 41ZM36 41L36 43L37 43L37 41ZM47 42L47 43L49 43L49 42ZM17 44L17 45L18 45L18 44ZM27 45L27 46L28 46L28 45ZM56 45L56 46L57 46L57 45ZM1 46L1 47L2 47L2 46ZM49 46L49 47L50 47L50 46ZM42 47L42 48L43 48L43 47ZM6 48L6 49L7 49L7 48ZM11 48L11 49L12 49L12 48ZM19 49L19 50L18 50L18 51L21 51L21 52L22 52L22 51L23 51L23 50L22 50L22 49L21 49L21 50L20 50L20 49ZM27 49L27 52L30 52L30 49ZM36 49L36 50L35 50L35 51L36 51L36 50L37 50L37 49ZM49 49L49 52L52 52L52 49ZM28 50L28 51L29 51L29 50ZM50 50L50 51L51 51L51 50ZM24 51L24 53L25 53L25 51ZM32 51L32 52L33 52L33 51ZM39 51L39 52L40 52L40 51ZM56 51L56 52L57 52L57 51ZM18 52L18 53L20 53L20 52ZM38 53L38 54L37 54L37 55L38 55L38 54L39 54L39 53ZM43 53L43 56L44 56L44 55L45 55L45 54L44 54L44 53ZM46 56L46 57L48 57L48 56ZM0 0L0 7L7 7L7 0ZM1 1L1 6L6 6L6 1ZM2 2L2 5L5 5L5 2ZM50 0L50 7L57 7L57 0ZM51 1L51 6L56 6L56 1ZM52 2L52 5L55 5L55 2ZM0 50L0 57L7 57L7 50ZM1 51L1 56L6 56L6 51ZM2 52L2 55L5 55L5 52Z" fill="#000000"/></g></g></svg>
