<?xml version="1.0" encoding="UTF-8"?>
<svg xmlns="http://www.w3.org/2000/svg" version="1.1" width="300" height="300" viewBox="0 0 300 300"><rect x="0" y="0" width="300" height="300" fill="#ffffff"/><g transform="scale(4.918)"><g transform="translate(2,2)"><path fill-rule="evenodd" d="M8 0L8 1L9 1L9 2L8 2L8 5L9 5L9 6L8 6L8 7L9 7L9 8L8 8L8 9L7 9L7 8L6 8L6 9L4 9L4 8L0 8L0 13L1 13L1 11L2 11L2 12L3 12L3 11L2 11L2 9L3 9L3 10L6 10L6 11L5 11L5 12L4 12L4 13L2 13L2 14L5 14L5 13L8 13L8 14L6 14L6 15L5 15L5 17L7 17L7 18L6 18L6 19L7 19L7 18L8 18L8 19L10 19L10 18L11 18L11 16L12 16L12 18L13 18L13 19L11 19L11 20L12 20L12 21L10 21L10 20L5 20L5 19L4 19L4 20L2 20L2 19L1 19L1 21L0 21L0 22L1 22L1 23L2 23L2 24L1 24L1 25L0 25L0 26L1 26L1 27L0 27L0 28L1 28L1 27L2 27L2 26L3 26L3 27L4 27L4 28L2 28L2 29L1 29L1 30L0 30L0 32L1 32L1 30L3 30L3 31L2 31L2 34L3 34L3 35L4 35L4 36L3 36L3 37L4 37L4 38L2 38L2 35L1 35L1 34L0 34L0 35L1 35L1 38L0 38L0 39L1 39L1 40L0 40L0 41L1 41L1 40L3 40L3 39L4 39L4 38L5 38L5 40L4 40L4 41L2 41L2 42L1 42L1 43L2 43L2 42L3 42L3 45L2 45L2 44L1 44L1 46L0 46L0 48L5 48L5 47L7 47L7 46L5 46L5 45L8 45L8 46L9 46L9 47L8 47L8 48L9 48L9 49L8 49L8 50L9 50L9 51L12 51L12 52L11 52L11 53L10 53L10 52L9 52L9 53L8 53L8 57L9 57L9 54L10 54L10 56L11 56L11 57L14 57L14 56L15 56L15 55L14 55L14 53L16 53L16 54L17 54L17 55L18 55L18 56L16 56L16 57L18 57L18 56L19 56L19 57L20 57L20 55L21 55L21 57L24 57L24 55L25 55L25 56L26 56L26 54L28 54L28 53L29 53L29 56L27 56L27 57L29 57L29 56L30 56L30 55L33 55L33 56L34 56L34 57L36 57L36 55L37 55L37 57L42 57L42 56L39 56L39 55L40 55L40 54L41 54L41 55L43 55L43 57L44 57L44 55L43 55L43 54L45 54L45 57L51 57L51 55L50 55L50 54L49 54L49 53L53 53L53 55L52 55L52 57L55 57L55 56L54 56L54 53L55 53L55 54L56 54L56 53L57 53L57 51L56 51L56 49L57 49L57 48L56 48L56 47L57 47L57 45L56 45L56 47L55 47L55 44L56 44L56 43L55 43L55 42L54 42L54 43L55 43L55 44L53 44L53 47L52 47L52 44L51 44L51 45L50 45L50 42L53 42L53 40L52 40L52 39L50 39L50 42L48 42L48 40L49 40L49 38L50 38L50 37L49 37L49 36L52 36L52 35L53 35L53 36L54 36L54 35L55 35L55 36L56 36L56 37L55 37L55 38L54 38L54 37L53 37L53 39L54 39L54 41L55 41L55 38L56 38L56 39L57 39L57 38L56 38L56 37L57 37L57 33L56 33L56 32L54 32L54 29L55 29L55 28L56 28L56 30L55 30L55 31L56 31L56 30L57 30L57 28L56 28L56 27L55 27L55 26L54 26L54 25L56 25L56 26L57 26L57 25L56 25L56 24L57 24L57 21L56 21L56 20L54 20L54 21L55 21L55 24L54 24L54 22L53 22L53 26L52 26L52 21L53 21L53 19L56 19L56 18L57 18L57 15L54 15L54 18L53 18L53 19L52 19L52 16L51 16L51 15L53 15L53 14L51 14L51 13L50 13L50 12L49 12L49 14L50 14L50 16L45 16L45 15L44 15L44 14L45 14L45 13L46 13L46 12L47 12L47 11L50 11L50 10L49 10L49 9L50 9L50 8L48 8L48 7L49 7L49 6L48 6L48 7L47 7L47 5L48 5L48 0L46 0L46 1L47 1L47 2L46 2L46 3L47 3L47 5L46 5L46 8L45 8L45 9L46 9L46 8L47 8L47 9L48 9L48 10L47 10L47 11L45 11L45 10L44 10L44 9L42 9L42 7L43 7L43 6L44 6L44 7L45 7L45 6L44 6L44 5L43 5L43 6L42 6L42 5L40 5L40 3L38 3L38 4L37 4L37 2L38 2L38 1L37 1L37 2L36 2L36 0L35 0L35 1L34 1L34 3L33 3L33 2L32 2L32 3L30 3L30 4L28 4L28 2L29 2L29 0L28 0L28 1L27 1L27 2L26 2L26 4L25 4L25 2L24 2L24 8L23 8L23 4L22 4L22 3L23 3L23 2L21 2L21 4L20 4L20 3L18 3L18 1L17 1L17 3L18 3L18 5L17 5L17 4L16 4L16 3L15 3L15 1L16 1L16 0L14 0L14 2L13 2L13 1L12 1L12 3L10 3L10 4L9 4L9 2L11 2L11 0L10 0L10 1L9 1L9 0ZM21 0L21 1L23 1L23 0ZM24 0L24 1L26 1L26 0ZM30 0L30 2L31 2L31 0ZM39 0L39 1L41 1L41 0ZM42 0L42 2L41 2L41 3L42 3L42 4L43 4L43 3L42 3L42 2L44 2L44 3L45 3L45 1L44 1L44 0ZM19 1L19 2L20 2L20 1ZM35 2L35 3L34 3L34 6L33 6L33 5L32 5L32 4L33 4L33 3L32 3L32 4L31 4L31 5L32 5L32 6L31 6L31 7L32 7L32 9L33 9L33 10L32 10L32 11L31 11L31 12L32 12L32 14L31 14L31 13L30 13L30 14L27 14L27 15L26 15L26 13L25 13L25 12L24 12L24 11L26 11L26 12L28 12L28 13L29 13L29 11L30 11L30 10L27 10L27 9L25 9L25 8L26 8L26 5L25 5L25 8L24 8L24 9L25 9L25 10L24 10L24 11L23 11L23 9L20 9L20 6L21 6L21 8L22 8L22 5L20 5L20 4L19 4L19 5L18 5L18 6L17 6L17 5L15 5L15 3L12 3L12 5L10 5L10 6L9 6L9 7L10 7L10 9L11 9L11 10L9 10L9 9L8 9L8 10L9 10L9 11L6 11L6 12L9 12L9 11L11 11L11 12L10 12L10 13L9 13L9 14L10 14L10 15L8 15L8 16L7 16L7 15L6 15L6 16L7 16L7 17L8 17L8 16L11 16L11 15L12 15L12 16L14 16L14 14L11 14L11 13L12 13L12 12L13 12L13 13L15 13L15 15L16 15L16 16L15 16L15 17L16 17L16 16L18 16L18 17L17 17L17 18L18 18L18 17L19 17L19 19L20 19L20 21L21 21L21 19L22 19L22 20L24 20L24 21L23 21L23 24L22 24L22 22L19 22L19 20L18 20L18 21L16 21L16 23L15 23L15 21L14 21L14 20L17 20L17 19L16 19L16 18L15 18L15 19L13 19L13 21L12 21L12 23L11 23L11 22L10 22L10 21L9 21L9 22L8 22L8 23L3 23L3 25L4 25L4 26L7 26L7 25L4 25L4 24L8 24L8 25L11 25L11 26L9 26L9 27L11 27L11 28L10 28L10 29L9 29L9 32L10 32L10 29L12 29L12 28L13 28L13 29L14 29L14 28L17 28L17 27L19 27L19 28L18 28L18 32L17 32L17 31L15 31L15 30L16 30L16 29L15 29L15 30L14 30L14 31L13 31L13 30L11 30L11 32L12 32L12 35L13 35L13 33L15 33L15 34L14 34L14 35L15 35L15 36L16 36L16 37L17 37L17 36L16 36L16 35L17 35L17 34L18 34L18 35L19 35L19 32L20 32L20 34L21 34L21 35L20 35L20 37L19 37L19 38L18 38L18 40L17 40L17 42L15 42L15 41L16 41L16 39L17 39L17 38L15 38L15 39L14 39L14 40L13 40L13 39L12 39L12 37L13 37L13 38L14 38L14 37L13 37L13 36L12 36L12 37L11 37L11 39L10 39L10 35L11 35L11 34L9 34L9 36L8 36L8 34L7 34L7 33L8 33L8 32L7 32L7 31L4 31L4 32L3 32L3 33L6 33L6 34L4 34L4 35L6 35L6 36L8 36L8 40L7 40L7 39L6 39L6 40L5 40L5 41L6 41L6 42L7 42L7 43L6 43L6 44L7 44L7 43L8 43L8 41L9 41L9 44L10 44L10 46L11 46L11 45L12 45L12 44L11 44L11 43L10 43L10 42L11 42L11 41L10 41L10 40L12 40L12 42L13 42L13 43L14 43L14 44L13 44L13 46L12 46L12 47L13 47L13 48L14 48L14 49L15 49L15 48L16 48L16 47L17 47L17 48L18 48L18 47L19 47L19 49L21 49L21 50L23 50L23 51L20 51L20 50L17 50L17 49L16 49L16 50L14 50L14 52L12 52L12 53L11 53L11 56L14 56L14 55L13 55L13 54L12 54L12 53L14 53L14 52L15 52L15 51L16 51L16 50L17 50L17 51L19 51L19 52L18 52L18 53L19 53L19 55L20 55L20 52L22 52L22 53L21 53L21 54L25 54L25 52L26 52L26 51L25 51L25 52L24 52L24 50L25 50L25 49L24 49L24 48L25 48L25 47L27 47L27 48L29 48L29 47L30 47L30 48L31 48L31 52L32 52L32 51L35 51L35 50L36 50L36 53L35 53L35 52L34 52L34 53L35 53L35 54L33 54L33 53L31 53L31 54L33 54L33 55L35 55L35 54L36 54L36 53L37 53L37 54L38 54L38 55L39 55L39 54L40 54L40 53L42 53L42 54L43 54L43 53L42 53L42 52L43 52L43 51L41 51L41 52L40 52L40 50L41 50L41 49L42 49L42 50L43 50L43 49L45 49L45 50L46 50L46 51L44 51L44 52L46 52L46 53L47 53L47 51L48 51L48 50L47 50L47 49L48 49L48 47L47 47L47 48L46 48L46 46L48 46L48 42L46 42L46 43L45 43L45 44L44 44L44 42L45 42L45 41L46 41L46 40L47 40L47 39L46 39L46 40L45 40L45 37L46 37L46 38L47 38L47 37L48 37L48 38L49 38L49 37L48 37L48 36L45 36L45 35L44 35L44 33L45 33L45 32L46 32L46 28L47 28L47 33L46 33L46 34L47 34L47 35L48 35L48 34L50 34L50 33L51 33L51 34L53 34L53 35L54 35L54 34L53 34L53 31L52 31L52 32L51 32L51 31L50 31L50 33L48 33L48 28L47 28L47 27L48 27L48 26L50 26L50 25L51 25L51 20L49 20L49 18L50 18L50 19L51 19L51 17L48 17L48 18L47 18L47 21L45 21L45 19L46 19L46 17L44 17L44 21L43 21L43 16L44 16L44 15L41 15L41 16L40 16L40 14L41 14L41 13L42 13L42 14L43 14L43 13L42 13L42 12L43 12L43 11L44 11L44 13L45 13L45 11L44 11L44 10L40 10L40 11L39 11L39 12L38 12L38 11L37 11L37 10L36 10L36 9L38 9L38 10L39 10L39 8L41 8L41 7L42 7L42 6L41 6L41 7L40 7L40 6L39 6L39 5L37 5L37 4L36 4L36 2ZM35 4L35 6L34 6L34 9L36 9L36 8L37 8L37 5L36 5L36 4ZM13 5L13 6L12 6L12 7L11 7L11 6L10 6L10 7L11 7L11 8L16 8L16 9L18 9L18 12L17 12L17 10L16 10L16 11L15 11L15 10L14 10L14 11L15 11L15 13L17 13L17 14L18 14L18 12L19 12L19 11L20 11L20 10L19 10L19 9L18 9L18 7L19 7L19 6L18 6L18 7L17 7L17 6L16 6L16 7L15 7L15 6L14 6L14 5ZM27 5L27 8L30 8L30 5ZM13 6L13 7L14 7L14 6ZM28 6L28 7L29 7L29 6ZM32 6L32 7L33 7L33 6ZM35 6L35 8L36 8L36 6ZM38 6L38 7L39 7L39 6ZM52 8L52 9L51 9L51 12L52 12L52 9L55 9L55 10L54 10L54 11L55 11L55 12L57 12L57 10L56 10L56 9L57 9L57 8L56 8L56 9L55 9L55 8ZM6 9L6 10L7 10L7 9ZM12 10L12 11L13 11L13 10ZM33 10L33 11L32 11L32 12L33 12L33 14L32 14L32 15L31 15L31 14L30 14L30 16L29 16L29 17L26 17L26 18L24 18L24 16L26 16L26 15L25 15L25 14L24 14L24 12L23 12L23 11L21 11L21 12L20 12L20 13L19 13L19 16L20 16L20 17L22 17L22 18L24 18L24 19L25 19L25 21L24 21L24 22L25 22L25 25L26 25L26 23L27 23L27 26L26 26L26 29L25 29L25 27L22 27L22 26L21 26L21 23L20 23L20 25L19 25L19 22L18 22L18 24L17 24L17 23L16 23L16 24L17 24L17 25L19 25L19 27L21 27L21 29L22 29L22 30L20 30L20 32L21 32L21 34L22 34L22 33L23 33L23 34L24 34L24 35L23 35L23 36L24 36L24 39L22 39L22 38L23 38L23 37L22 37L22 38L21 38L21 37L20 37L20 38L21 38L21 39L22 39L22 40L23 40L23 42L24 42L24 39L25 39L25 41L26 41L26 40L27 40L27 42L26 42L26 44L27 44L27 46L28 46L28 42L30 42L30 44L31 44L31 43L33 43L33 42L35 42L35 40L34 40L34 37L35 37L35 38L37 38L37 39L36 39L36 40L37 40L37 39L38 39L38 41L40 41L40 39L41 39L41 41L42 41L42 39L41 39L41 38L39 38L39 37L40 37L40 34L41 34L41 31L42 31L42 30L41 30L41 31L40 31L40 28L38 28L38 27L37 27L37 26L39 26L39 27L41 27L41 26L39 26L39 24L41 24L41 23L43 23L43 21L42 21L42 18L41 18L41 17L42 17L42 16L41 16L41 17L39 17L39 16L37 16L37 18L36 18L36 17L35 17L35 16L34 16L34 19L33 19L33 21L31 21L31 20L32 20L32 19L31 19L31 20L30 20L30 19L28 19L28 18L30 18L30 17L31 17L31 18L32 18L32 17L33 17L33 14L34 14L34 13L35 13L35 12L36 12L36 13L38 13L38 15L39 15L39 14L40 14L40 13L38 13L38 12L37 12L37 11L35 11L35 10ZM33 11L33 12L34 12L34 11ZM40 11L40 12L41 12L41 11ZM22 12L22 14L21 14L21 15L20 15L20 16L21 16L21 15L22 15L22 17L23 17L23 16L24 16L24 14L23 14L23 12ZM0 14L0 17L1 17L1 18L3 18L3 17L1 17L1 14ZM22 14L22 15L23 15L23 14ZM36 14L36 15L37 15L37 14ZM47 14L47 15L48 15L48 14ZM2 15L2 16L3 16L3 15ZM31 16L31 17L32 17L32 16ZM55 16L55 17L56 17L56 16ZM9 17L9 18L10 18L10 17ZM38 17L38 18L39 18L39 17ZM20 18L20 19L21 19L21 18ZM26 18L26 19L27 19L27 20L26 20L26 21L25 21L25 22L27 22L27 23L28 23L28 26L31 26L31 28L32 28L32 27L33 27L33 29L34 29L34 27L33 27L33 26L32 26L32 25L33 25L33 24L32 24L32 25L30 25L30 23L29 23L29 21L28 21L28 22L27 22L27 20L28 20L28 19L27 19L27 18ZM35 18L35 19L34 19L34 21L33 21L33 22L32 22L32 23L34 23L34 22L36 22L36 23L38 23L38 22L39 22L39 23L41 23L41 21L40 21L40 20L39 20L39 21L38 21L38 22L37 22L37 20L35 20L35 19L36 19L36 18ZM4 20L4 21L3 21L3 22L4 22L4 21L5 21L5 22L7 22L7 21L5 21L5 20ZM48 20L48 22L47 22L47 23L46 23L46 24L47 24L47 26L48 26L48 24L49 24L49 22L50 22L50 21L49 21L49 20ZM1 21L1 22L2 22L2 21ZM44 21L44 22L45 22L45 21ZM13 22L13 23L12 23L12 24L15 24L15 23L14 23L14 22ZM9 23L9 24L11 24L11 23ZM44 23L44 24L42 24L42 25L44 25L44 24L45 24L45 23ZM47 23L47 24L48 24L48 23ZM23 24L23 26L24 26L24 24ZM35 24L35 25L34 25L34 26L35 26L35 27L36 27L36 28L35 28L35 31L34 31L34 32L33 32L33 31L32 31L32 33L31 33L31 31L29 31L29 32L28 32L28 31L27 31L27 33L26 33L26 31L25 31L25 29L24 29L24 30L23 30L23 31L24 31L24 33L25 33L25 34L28 34L28 35L31 35L31 36L30 36L30 37L29 37L29 36L28 36L28 37L29 37L29 38L27 38L27 36L26 36L26 35L25 35L25 36L26 36L26 37L25 37L25 39L27 39L27 40L28 40L28 41L29 41L29 40L30 40L30 42L32 42L32 41L31 41L31 40L32 40L32 39L33 39L33 38L32 38L32 39L31 39L31 38L30 38L30 37L31 37L31 36L32 36L32 37L33 37L33 36L34 36L34 34L36 34L36 35L35 35L35 37L36 37L36 35L39 35L39 33L40 33L40 32L38 32L38 31L39 31L39 29L38 29L38 28L37 28L37 27L36 27L36 26L37 26L37 25L38 25L38 24L37 24L37 25L36 25L36 24ZM12 25L12 27L13 27L13 28L14 28L14 27L13 27L13 26L14 26L14 25ZM15 25L15 27L16 27L16 25ZM35 25L35 26L36 26L36 25ZM42 26L42 28L41 28L41 29L45 29L45 28L46 28L46 26ZM53 26L53 27L54 27L54 26ZM5 27L5 30L8 30L8 27ZM27 27L27 30L30 30L30 27ZM44 27L44 28L45 28L45 27ZM49 27L49 30L52 30L52 27ZM6 28L6 29L7 29L7 28ZM28 28L28 29L29 29L29 28ZM50 28L50 29L51 29L51 28ZM53 28L53 29L54 29L54 28ZM3 29L3 30L4 30L4 29ZM36 29L36 30L37 30L37 29ZM44 30L44 31L43 31L43 33L42 33L42 36L41 36L41 37L42 37L42 36L43 36L43 37L44 37L44 36L43 36L43 33L44 33L44 31L45 31L45 30ZM14 31L14 32L15 32L15 33L16 33L16 32L15 32L15 31ZM35 31L35 32L34 32L34 33L36 33L36 32L37 32L37 34L38 34L38 32L37 32L37 31ZM6 32L6 33L7 33L7 32ZM47 33L47 34L48 34L48 33ZM55 33L55 35L56 35L56 33ZM6 34L6 35L7 35L7 34ZM15 34L15 35L16 35L16 34ZM31 34L31 35L33 35L33 34ZM4 36L4 37L5 37L5 38L7 38L7 37L5 37L5 36ZM37 36L37 37L38 37L38 36ZM51 37L51 38L52 38L52 37ZM29 38L29 39L28 39L28 40L29 40L29 39L30 39L30 38ZM38 38L38 39L39 39L39 38ZM43 38L43 41L45 41L45 40L44 40L44 38ZM9 39L9 40L10 40L10 39ZM6 40L6 41L7 41L7 40ZM14 40L14 41L15 41L15 40ZM56 40L56 42L57 42L57 40ZM18 41L18 42L17 42L17 43L16 43L16 44L17 44L17 45L18 45L18 46L17 46L17 47L18 47L18 46L19 46L19 43L18 43L18 42L19 42L19 41ZM36 41L36 44L33 44L33 45L32 45L32 46L33 46L33 45L36 45L36 46L34 46L34 49L33 49L33 50L34 50L34 49L35 49L35 48L36 48L36 49L37 49L37 51L39 51L39 50L40 50L40 49L39 49L39 48L38 48L38 49L37 49L37 46L38 46L38 47L39 47L39 46L40 46L40 47L41 47L41 48L42 48L42 47L43 47L43 46L44 46L44 48L45 48L45 49L46 49L46 48L45 48L45 46L46 46L46 45L43 45L43 44L42 44L42 47L41 47L41 46L40 46L40 45L41 45L41 43L42 43L42 42L39 42L39 43L37 43L37 41ZM14 42L14 43L15 43L15 42ZM20 42L20 45L21 45L21 44L22 44L22 45L23 45L23 46L25 46L25 44L24 44L24 43L23 43L23 44L22 44L22 42ZM4 43L4 45L3 45L3 47L5 47L5 46L4 46L4 45L5 45L5 43ZM46 43L46 44L47 44L47 43ZM23 44L23 45L24 45L24 44ZM36 44L36 45L38 45L38 46L39 46L39 45L40 45L40 44ZM14 45L14 46L13 46L13 47L14 47L14 46L15 46L15 47L16 47L16 46L15 46L15 45ZM30 45L30 46L31 46L31 45ZM49 45L49 48L50 48L50 45ZM1 46L1 47L2 47L2 46ZM10 47L10 49L9 49L9 50L10 50L10 49L11 49L11 50L12 50L12 51L13 51L13 50L12 50L12 49L11 49L11 47ZM21 47L21 48L23 48L23 47ZM32 47L32 48L33 48L33 47ZM53 47L53 48L54 48L54 49L53 49L53 51L54 51L54 49L55 49L55 47ZM6 48L6 49L7 49L7 48ZM27 49L27 52L30 52L30 49ZM49 49L49 52L52 52L52 49ZM28 50L28 51L29 51L29 50ZM50 50L50 51L51 51L51 50ZM55 51L55 53L56 53L56 51ZM16 52L16 53L17 53L17 52ZM37 52L37 53L39 53L39 52ZM46 54L46 56L50 56L50 55L47 55L47 54ZM56 55L56 56L57 56L57 55ZM31 56L31 57L32 57L32 56ZM0 0L0 7L7 7L7 0ZM1 1L1 6L6 6L6 1ZM2 2L2 5L5 5L5 2ZM50 0L50 7L57 7L57 0ZM51 1L51 6L56 6L56 1ZM52 2L52 5L55 5L55 2ZM0 50L0 57L7 57L7 50ZM1 51L1 56L6 56L6 51ZM2 52L2 55L5 55L5 52Z" fill="#000000"/></g></g></svg>
