<?xml version="1.0" encoding="UTF-8"?>
<svg xmlns="http://www.w3.org/2000/svg" version="1.1" width="300" height="300" viewBox="0 0 300 300"><rect x="0" y="0" width="300" height="300" fill="#ffffff"/><g transform="scale(4.918)"><g transform="translate(2,2)"><path fill-rule="evenodd" d="M9 0L9 1L8 1L8 2L10 2L10 4L11 4L11 3L12 3L12 7L13 7L13 5L15 5L15 6L14 6L14 7L15 7L15 6L16 6L16 9L18 9L18 10L17 10L17 11L18 11L18 10L19 10L19 11L20 11L20 9L19 9L19 6L20 6L20 7L21 7L21 6L22 6L22 8L24 8L24 9L23 9L23 11L24 11L24 12L23 12L23 13L24 13L24 14L23 14L23 16L24 16L24 17L23 17L23 18L22 18L22 17L21 17L21 16L22 16L22 14L19 14L19 13L22 13L22 12L19 12L19 13L18 13L18 12L16 12L16 10L15 10L15 14L14 14L14 13L13 13L13 12L14 12L14 11L13 11L13 9L14 9L14 8L13 8L13 9L12 9L12 8L10 8L10 9L9 9L9 8L6 8L6 9L5 9L5 8L0 8L0 10L2 10L2 11L1 11L1 12L0 12L0 13L1 13L1 12L2 12L2 14L0 14L0 18L1 18L1 19L0 19L0 22L1 22L1 23L0 23L0 26L1 26L1 27L2 27L2 29L3 29L3 30L0 30L0 31L1 31L1 32L2 32L2 31L3 31L3 34L4 34L4 32L5 32L5 31L8 31L8 32L6 32L6 33L9 33L9 31L10 31L10 33L11 33L11 32L12 32L12 30L11 30L11 26L10 26L10 25L11 25L11 24L13 24L13 26L12 26L12 29L13 29L13 30L14 30L14 29L13 29L13 26L15 26L15 27L14 27L14 28L15 28L15 33L14 33L14 34L15 34L15 35L14 35L14 36L13 36L13 35L12 35L12 34L11 34L11 35L10 35L10 37L9 37L9 36L6 36L6 35L7 35L7 34L6 34L6 35L4 35L4 37L3 37L3 38L2 38L2 37L1 37L1 36L2 36L2 35L1 35L1 33L0 33L0 39L2 39L2 40L3 40L3 41L2 41L2 42L3 42L3 43L2 43L2 47L1 47L1 45L0 45L0 48L5 48L5 47L7 47L7 48L6 48L6 49L8 49L8 51L9 51L9 50L10 50L10 48L11 48L11 51L10 51L10 52L11 52L11 53L10 53L10 54L9 54L9 52L8 52L8 57L9 57L9 55L10 55L10 57L11 57L11 55L12 55L12 54L11 54L11 53L14 53L14 52L13 52L13 51L14 51L14 50L15 50L15 49L17 49L17 50L16 50L16 51L15 51L15 52L16 52L16 51L17 51L17 52L18 52L18 53L17 53L17 54L18 54L18 55L19 55L19 56L16 56L16 55L15 55L15 54L16 54L16 53L15 53L15 54L13 54L13 56L12 56L12 57L15 57L15 56L16 56L16 57L20 57L20 56L22 56L22 55L24 55L24 57L26 57L26 54L27 54L27 53L28 53L28 54L29 54L29 55L30 55L30 56L29 56L29 57L31 57L31 56L33 56L33 54L32 54L32 52L33 52L33 53L34 53L34 52L33 52L33 51L32 51L32 50L31 50L31 49L32 49L32 48L33 48L33 50L34 50L34 51L35 51L35 52L36 52L36 53L37 53L37 54L36 54L36 55L35 55L35 56L34 56L34 57L37 57L37 56L36 56L36 55L37 55L37 54L38 54L38 52L39 52L39 55L38 55L38 57L40 57L40 56L41 56L41 57L44 57L44 55L42 55L42 56L41 56L41 55L40 55L40 52L41 52L41 51L42 51L42 50L44 50L44 49L42 49L42 50L41 50L41 51L40 51L40 50L37 50L37 49L39 49L39 48L41 48L41 47L42 47L42 48L45 48L45 50L46 50L46 51L45 51L45 52L48 52L48 53L47 53L47 55L48 55L48 56L47 56L47 57L49 57L49 54L48 54L48 53L50 53L50 55L51 55L51 56L50 56L50 57L52 57L52 56L55 56L55 57L56 57L56 56L55 56L55 53L54 53L54 52L55 52L55 51L56 51L56 52L57 52L57 51L56 51L56 50L57 50L57 49L56 49L56 50L55 50L55 49L53 49L53 48L57 48L57 47L56 47L56 46L57 46L57 44L56 44L56 42L57 42L57 41L54 41L54 43L53 43L53 44L52 44L52 45L51 45L51 43L50 43L50 42L51 42L51 41L49 41L49 40L51 40L51 39L52 39L52 41L53 41L53 40L55 40L55 39L57 39L57 37L56 37L56 36L55 36L55 34L57 34L57 32L56 32L56 30L57 30L57 29L56 29L56 30L55 30L55 29L54 29L54 28L57 28L57 27L56 27L56 26L57 26L57 25L56 25L56 24L55 24L55 23L56 23L56 22L57 22L57 21L56 21L56 20L57 20L57 19L56 19L56 20L55 20L55 19L52 19L52 18L54 18L54 16L55 16L55 18L57 18L57 17L56 17L56 16L57 16L57 15L56 15L56 14L57 14L57 12L56 12L56 14L54 14L54 16L53 16L53 17L51 17L51 16L52 16L52 15L51 15L51 14L52 14L52 13L51 13L51 14L50 14L50 15L51 15L51 16L49 16L49 17L48 17L48 18L45 18L45 19L44 19L44 17L43 17L43 16L45 16L45 17L46 17L46 15L49 15L49 13L50 13L50 11L52 11L52 12L53 12L53 11L54 11L54 12L55 12L55 11L54 11L54 10L53 10L53 9L54 9L54 8L53 8L53 9L52 9L52 8L51 8L51 9L52 9L52 10L49 10L49 9L50 9L50 8L49 8L49 6L48 6L48 7L47 7L47 5L48 5L48 0L44 0L44 1L43 1L43 0L42 0L42 1L41 1L41 2L40 2L40 1L37 1L37 0L36 0L36 1L33 1L33 2L32 2L32 0L30 0L30 1L29 1L29 2L25 2L25 1L26 1L26 0L24 0L24 1L23 1L23 0L21 0L21 2L19 2L19 1L16 1L16 0L14 0L14 1L15 1L15 2L14 2L14 3L13 3L13 0L12 0L12 2L10 2L10 1L11 1L11 0ZM22 1L22 2L23 2L23 3L22 3L22 4L21 4L21 3L20 3L20 4L18 4L18 3L16 3L16 4L15 4L15 3L14 3L14 4L15 4L15 5L16 5L16 4L18 4L18 5L17 5L17 8L18 8L18 6L19 6L19 5L20 5L20 6L21 6L21 5L22 5L22 6L23 6L23 7L24 7L24 8L25 8L25 10L24 10L24 11L25 11L25 12L24 12L24 13L25 13L25 15L26 15L26 16L25 16L25 19L26 19L26 20L25 20L25 22L26 22L26 23L25 23L25 24L26 24L26 25L25 25L25 26L26 26L26 25L29 25L29 26L30 26L30 25L32 25L32 26L33 26L33 28L32 28L32 27L31 27L31 28L32 28L32 29L31 29L31 30L32 30L32 31L33 31L33 32L31 32L31 31L30 31L30 33L25 33L25 34L24 34L24 36L23 36L23 31L24 31L24 29L25 29L25 30L26 30L26 27L25 27L25 28L24 28L24 29L22 29L22 28L21 28L21 29L19 29L19 30L17 30L17 29L18 29L18 28L17 28L17 27L18 27L18 26L19 26L19 25L16 25L16 24L17 24L17 23L18 23L18 22L19 22L19 23L20 23L20 22L19 22L19 21L21 21L21 24L22 24L22 25L20 25L20 26L21 26L21 27L22 27L22 25L24 25L24 23L22 23L22 21L23 21L23 22L24 22L24 21L23 21L23 19L24 19L24 18L23 18L23 19L22 19L22 21L21 21L21 19L20 19L20 18L21 18L21 17L20 17L20 16L21 16L21 15L18 15L18 13L16 13L16 15L15 15L15 16L14 16L14 17L13 17L13 18L14 18L14 17L16 17L16 18L17 18L17 19L16 19L16 20L15 20L15 21L12 21L12 20L14 20L14 19L12 19L12 15L11 15L11 17L10 17L10 16L8 16L8 15L10 15L10 13L12 13L12 12L13 12L13 11L12 11L12 12L11 12L11 11L10 11L10 10L8 10L8 9L6 9L6 10L8 10L8 11L10 11L10 12L9 12L9 13L6 13L6 12L7 12L7 11L6 11L6 12L5 12L5 11L4 11L4 9L2 9L2 10L3 10L3 12L4 12L4 13L3 13L3 14L2 14L2 15L3 15L3 16L1 16L1 17L2 17L2 18L3 18L3 19L2 19L2 20L1 20L1 22L2 22L2 20L3 20L3 23L2 23L2 24L1 24L1 26L3 26L3 27L4 27L4 26L3 26L3 23L4 23L4 20L5 20L5 22L7 22L7 23L6 23L6 24L7 24L7 25L5 25L5 24L4 24L4 25L5 25L5 26L7 26L7 25L8 25L8 26L9 26L9 25L8 25L8 24L11 24L11 23L12 23L12 22L14 22L14 23L13 23L13 24L14 24L14 23L16 23L16 24L15 24L15 25L16 25L16 26L17 26L17 27L16 27L16 28L17 28L17 29L16 29L16 30L17 30L17 31L16 31L16 32L18 32L18 31L19 31L19 33L16 33L16 35L17 35L17 36L16 36L16 37L15 37L15 36L14 36L14 38L12 38L12 39L11 39L11 40L9 40L9 39L8 39L8 38L9 38L9 37L8 37L8 38L7 38L7 37L5 37L5 38L3 38L3 39L4 39L4 40L5 40L5 41L3 41L3 42L5 42L5 43L6 43L6 44L8 44L8 43L9 43L9 44L10 44L10 45L11 45L11 44L12 44L12 46L13 46L13 44L18 44L18 45L16 45L16 46L14 46L14 47L12 47L12 50L14 50L14 49L13 49L13 48L14 48L14 47L16 47L16 48L17 48L17 47L18 47L18 45L20 45L20 46L19 46L19 47L20 47L20 48L19 48L19 49L18 49L18 50L19 50L19 49L20 49L20 50L21 50L21 52L19 52L19 53L18 53L18 54L19 54L19 55L20 55L20 54L19 54L19 53L23 53L23 54L24 54L24 53L23 53L23 52L24 52L24 51L25 51L25 53L26 53L26 51L25 51L25 50L23 50L23 49L24 49L24 47L23 47L23 46L24 46L24 45L25 45L25 49L26 49L26 46L31 46L31 48L32 48L32 47L33 47L33 46L35 46L35 47L34 47L34 48L35 48L35 49L34 49L34 50L35 50L35 51L36 51L36 52L38 52L38 51L37 51L37 50L35 50L35 49L36 49L36 48L37 48L37 46L39 46L39 47L38 47L38 48L39 48L39 47L40 47L40 46L42 46L42 47L45 47L45 44L44 44L44 43L46 43L46 42L47 42L47 43L49 43L49 42L47 42L47 41L48 41L48 40L49 40L49 39L51 39L51 38L53 38L53 39L55 39L55 38L54 38L54 37L55 37L55 36L54 36L54 37L53 37L53 36L52 36L52 34L54 34L54 33L56 33L56 32L53 32L53 33L51 33L51 32L49 32L49 31L48 31L48 28L47 28L47 25L49 25L49 26L53 26L53 27L55 27L55 26L56 26L56 25L55 25L55 26L54 26L54 25L53 25L53 24L51 24L51 23L50 23L50 22L51 22L51 21L53 21L53 22L52 22L52 23L53 23L53 22L54 22L54 23L55 23L55 22L54 22L54 21L55 21L55 20L51 20L51 17L50 17L50 18L49 18L49 19L48 19L48 20L47 20L47 19L46 19L46 20L42 20L42 19L43 19L43 18L39 18L39 16L40 16L40 17L41 17L41 16L40 16L40 15L41 15L41 14L42 14L42 15L45 15L45 14L42 14L42 11L43 11L43 10L45 10L45 12L44 12L44 13L45 13L45 12L46 12L46 14L47 14L47 13L49 13L49 12L47 12L47 11L46 11L46 10L48 10L48 9L49 9L49 8L48 8L48 9L46 9L46 8L42 8L42 6L43 6L43 7L44 7L44 6L45 6L45 7L46 7L46 5L47 5L47 3L43 3L43 1L42 1L42 2L41 2L41 3L40 3L40 5L41 5L41 3L43 3L43 5L42 5L42 6L41 6L41 8L39 8L39 7L40 7L40 6L39 6L39 7L38 7L38 5L39 5L39 4L38 4L38 3L39 3L39 2L38 2L38 3L37 3L37 2L33 2L33 3L32 3L32 4L31 4L31 7L32 7L32 6L33 6L33 7L34 7L34 9L33 9L33 8L32 8L32 9L31 9L31 10L30 10L30 9L29 9L29 10L28 10L28 11L29 11L29 10L30 10L30 12L32 12L32 13L31 13L31 14L35 14L35 15L34 15L34 16L30 16L30 13L29 13L29 12L28 12L28 13L25 13L25 12L27 12L27 11L26 11L26 10L27 10L27 9L26 9L26 6L25 6L25 4L26 4L26 3L25 3L25 2L23 2L23 1ZM30 1L30 2L31 2L31 1ZM44 1L44 2L47 2L47 1ZM8 3L8 4L9 4L9 3ZM24 3L24 4L22 4L22 5L24 5L24 4L25 4L25 3ZM27 3L27 4L29 4L29 3ZM33 3L33 4L35 4L35 3ZM36 3L36 5L35 5L35 6L34 6L34 5L33 5L33 6L34 6L34 7L35 7L35 8L36 8L36 9L35 9L35 10L33 10L33 9L32 9L32 10L33 10L33 11L32 11L32 12L33 12L33 13L36 13L36 14L37 14L37 15L39 15L39 14L37 14L37 13L38 13L38 12L40 12L40 10L38 10L38 9L39 9L39 8L38 8L38 7L37 7L37 6L36 6L36 5L38 5L38 4L37 4L37 3ZM44 4L44 5L46 5L46 4ZM8 5L8 7L9 7L9 6L10 6L10 7L11 7L11 5ZM27 5L27 8L30 8L30 5ZM24 6L24 7L25 7L25 6ZM28 6L28 7L29 7L29 6ZM35 6L35 7L36 7L36 8L37 8L37 7L36 7L36 6ZM41 8L41 11L42 11L42 10L43 10L43 9L42 9L42 8ZM55 8L55 10L57 10L57 9L56 9L56 8ZM11 9L11 10L12 10L12 9ZM21 9L21 11L22 11L22 9ZM35 10L35 11L34 11L34 12L36 12L36 11L38 11L38 10ZM52 10L52 11L53 11L53 10ZM4 13L4 14L6 14L6 15L8 15L8 14L6 14L6 13ZM28 13L28 14L26 14L26 15L29 15L29 13ZM40 13L40 14L41 14L41 13ZM13 14L13 15L14 15L14 14ZM4 15L4 16L3 16L3 17L7 17L7 18L6 18L6 19L7 19L7 20L6 20L6 21L7 21L7 22L8 22L8 23L7 23L7 24L8 24L8 23L11 23L11 22L9 22L9 20L8 20L8 19L7 19L7 18L8 18L8 17L7 17L7 16L5 16L5 15ZM16 15L16 17L19 17L19 16L17 16L17 15ZM35 15L35 16L34 16L34 17L33 17L33 18L34 18L34 19L28 19L28 18L27 18L27 17L28 17L28 16L26 16L26 18L27 18L27 19L28 19L28 20L29 20L29 21L28 21L28 23L27 23L27 24L29 24L29 25L30 25L30 24L31 24L31 23L32 23L32 24L34 24L34 23L35 23L35 25L37 25L37 26L34 26L34 28L33 28L33 29L35 29L35 30L33 30L33 31L35 31L35 32L36 32L36 34L37 34L37 35L39 35L39 34L40 34L40 33L39 33L39 34L37 34L37 32L38 32L38 31L37 31L37 30L38 30L38 28L36 28L36 27L37 27L37 26L38 26L38 25L39 25L39 26L41 26L41 27L42 27L42 28L43 28L43 29L42 29L42 30L40 30L40 29L39 29L39 30L40 30L40 31L39 31L39 32L41 32L41 33L42 33L42 34L41 34L41 35L40 35L40 36L39 36L39 37L40 37L40 36L41 36L41 38L43 38L43 37L44 37L44 38L45 38L45 40L46 40L46 41L45 41L45 42L46 42L46 41L47 41L47 39L46 39L46 38L45 38L45 37L44 37L44 32L45 32L45 34L46 34L46 35L45 35L45 36L46 36L46 37L47 37L47 36L46 36L46 35L49 35L49 36L50 36L50 37L52 37L52 36L51 36L51 35L49 35L49 34L48 34L48 33L47 33L47 32L48 32L48 31L47 31L47 30L46 30L46 29L47 29L47 28L46 28L46 26L45 26L45 29L44 29L44 28L43 28L43 27L44 27L44 24L48 24L48 23L49 23L49 25L51 25L51 24L50 24L50 23L49 23L49 22L50 22L50 19L49 19L49 20L48 20L48 21L47 21L47 23L46 23L46 22L45 22L45 21L44 21L44 24L43 24L43 21L40 21L40 20L41 20L41 19L40 19L40 20L39 20L39 18L38 18L38 16L36 16L36 15ZM35 16L35 17L34 17L34 18L35 18L35 17L36 17L36 18L37 18L37 19L34 19L34 20L32 20L32 21L34 21L34 22L33 22L33 23L34 23L34 22L35 22L35 23L36 23L36 24L37 24L37 25L38 25L38 24L39 24L39 25L41 25L41 24L42 24L42 22L40 22L40 23L41 23L41 24L39 24L39 20L38 20L38 18L37 18L37 17L36 17L36 16ZM29 17L29 18L31 18L31 17ZM4 18L4 19L5 19L5 18ZM10 19L10 21L11 21L11 19ZM17 19L17 20L18 20L18 21L17 21L17 22L18 22L18 21L19 21L19 19ZM7 20L7 21L8 21L8 20ZM26 20L26 21L27 21L27 20ZM30 20L30 21L31 21L31 20ZM36 20L36 21L37 21L37 22L36 22L36 23L38 23L38 20ZM15 21L15 22L16 22L16 21ZM29 22L29 24L30 24L30 23L31 23L31 22ZM23 26L23 27L24 27L24 26ZM5 27L5 30L8 30L8 27ZM19 27L19 28L20 28L20 27ZM27 27L27 30L30 30L30 27ZM39 27L39 28L40 28L40 27ZM49 27L49 30L52 30L52 27ZM0 28L0 29L1 29L1 28ZM6 28L6 29L7 29L7 28ZM28 28L28 29L29 29L29 28ZM35 28L35 29L36 29L36 28ZM50 28L50 29L51 29L51 28ZM9 29L9 30L10 30L10 31L11 31L11 30L10 30L10 29ZM21 29L21 30L20 30L20 31L22 31L22 29ZM43 29L43 30L42 30L42 31L43 31L43 32L44 32L44 29ZM53 29L53 31L54 31L54 29ZM45 30L45 31L46 31L46 32L47 32L47 31L46 31L46 30ZM13 31L13 32L14 32L14 31ZM25 31L25 32L29 32L29 31ZM36 31L36 32L37 32L37 31ZM20 32L20 33L21 33L21 34L20 34L20 35L19 35L19 34L17 34L17 35L19 35L19 36L18 36L18 37L16 37L16 38L15 38L15 39L12 39L12 40L11 40L11 41L12 41L12 42L14 42L14 43L16 43L16 42L14 42L14 41L15 41L15 39L16 39L16 40L17 40L17 41L18 41L18 42L17 42L17 43L18 43L18 42L19 42L19 43L20 43L20 45L22 45L22 44L21 44L21 43L22 43L22 42L23 42L23 45L24 45L24 43L25 43L25 42L26 42L26 43L28 43L28 44L27 44L27 45L31 45L31 46L32 46L32 44L34 44L34 43L37 43L37 44L35 44L35 46L37 46L37 44L38 44L38 45L39 45L39 46L40 46L40 45L39 45L39 44L40 44L40 42L39 42L39 44L38 44L38 43L37 43L37 42L38 42L38 41L39 41L39 40L38 40L38 39L40 39L40 40L41 40L41 39L40 39L40 38L38 38L38 37L37 37L37 36L36 36L36 37L35 37L35 38L38 38L38 39L35 39L35 42L34 42L34 43L33 43L33 42L32 42L32 41L31 41L31 40L33 40L33 41L34 41L34 40L33 40L33 39L31 39L31 38L32 38L32 34L33 34L33 36L35 36L35 34L33 34L33 33L32 33L32 34L31 34L31 35L30 35L30 34L29 34L29 35L30 35L30 36L29 36L29 37L28 37L28 36L27 36L27 37L28 37L28 38L26 38L26 39L25 39L25 41L24 41L24 39L22 39L22 38L24 38L24 37L26 37L26 35L27 35L27 34L25 34L25 36L24 36L24 37L22 37L22 35L21 35L21 34L22 34L22 33L21 33L21 32ZM46 33L46 34L47 34L47 33ZM50 33L50 34L51 34L51 33ZM8 34L8 35L9 35L9 34ZM42 34L42 35L41 35L41 36L42 36L42 37L43 37L43 36L42 36L42 35L43 35L43 34ZM11 35L11 36L12 36L12 37L13 37L13 36L12 36L12 35ZM20 36L20 37L18 37L18 38L17 38L17 39L19 39L19 42L20 42L20 43L21 43L21 41L23 41L23 40L22 40L22 39L21 39L21 38L22 38L22 37L21 37L21 36ZM30 36L30 38L31 38L31 36ZM48 37L48 39L49 39L49 37ZM6 38L6 39L7 39L7 40L6 40L6 41L5 41L5 42L6 42L6 43L7 43L7 42L9 42L9 43L10 43L10 44L11 44L11 42L9 42L9 41L8 41L8 39L7 39L7 38ZM19 38L19 39L20 39L20 38ZM26 39L26 40L28 40L28 39ZM29 39L29 40L31 40L31 39ZM42 39L42 41L41 41L41 42L43 42L43 43L41 43L41 44L43 44L43 45L42 45L42 46L44 46L44 44L43 44L43 43L44 43L44 39ZM20 40L20 41L21 41L21 40ZM6 41L6 42L7 42L7 41ZM26 41L26 42L27 42L27 41ZM28 41L28 43L29 43L29 44L31 44L31 43L29 43L29 41ZM0 42L0 44L1 44L1 42ZM12 43L12 44L13 44L13 43ZM4 44L4 45L5 45L5 44ZM25 44L25 45L26 45L26 44ZM47 44L47 45L46 45L46 46L47 46L47 47L46 47L46 50L47 50L47 51L48 51L48 48L50 48L50 47L51 47L51 48L53 48L53 46L54 46L54 45L55 45L55 46L56 46L56 45L55 45L55 44L54 44L54 45L52 45L52 46L51 46L51 45L50 45L50 44L49 44L49 45L48 45L48 44ZM6 45L6 46L7 46L7 47L9 47L9 48L10 48L10 47L11 47L11 46L10 46L10 47L9 47L9 46L8 46L8 45ZM47 45L47 46L48 46L48 45ZM3 46L3 47L5 47L5 46ZM20 46L20 47L21 47L21 48L23 48L23 47L22 47L22 46ZM49 46L49 47L50 47L50 46ZM27 47L27 48L29 48L29 47ZM35 47L35 48L36 48L36 47ZM21 49L21 50L22 50L22 49ZM27 49L27 52L30 52L30 49ZM49 49L49 52L52 52L52 49ZM28 50L28 51L29 51L29 50ZM50 50L50 51L51 51L51 50ZM53 50L53 51L54 51L54 50ZM31 51L31 52L32 52L32 51ZM39 51L39 52L40 52L40 51ZM43 51L43 53L41 53L41 54L43 54L43 53L44 53L44 54L45 54L45 55L46 55L46 54L45 54L45 53L44 53L44 51ZM29 53L29 54L30 54L30 53ZM53 53L53 54L51 54L51 55L53 55L53 54L54 54L54 53ZM14 55L14 56L15 56L15 55ZM27 55L27 56L28 56L28 55ZM39 55L39 56L40 56L40 55ZM0 0L0 7L7 7L7 0ZM1 1L1 6L6 6L6 1ZM2 2L2 5L5 5L5 2ZM50 0L50 7L57 7L57 0ZM51 1L51 6L56 6L56 1ZM52 2L52 5L55 5L55 2ZM0 50L0 57L7 57L7 50ZM1 51L1 56L6 56L6 51ZM2 52L2 55L5 55L5 52Z" fill="#000000"/></g></g></svg>
