<?xml version="1.0" encoding="UTF-8"?>
<svg xmlns="http://www.w3.org/2000/svg" version="1.1" width="300" height="300" viewBox="0 0 300 300"><rect x="0" y="0" width="300" height="300" fill="#ffffff"/><g transform="scale(4.918)"><g transform="translate(2,2)"><path fill-rule="evenodd" d="M9 0L9 1L8 1L8 2L10 2L10 0ZM12 0L12 1L13 1L13 0ZM14 0L14 1L15 1L15 2L14 2L14 3L13 3L13 2L12 2L12 3L11 3L11 4L10 4L10 7L11 7L11 6L12 6L12 7L13 7L13 8L12 8L12 9L11 9L11 10L9 10L9 9L10 9L10 8L6 8L6 9L5 9L5 8L0 8L0 9L2 9L2 10L3 10L3 11L2 11L2 12L1 12L1 13L0 13L0 17L1 17L1 15L2 15L2 14L1 14L1 13L2 13L2 12L3 12L3 13L4 13L4 12L5 12L5 11L4 11L4 10L6 10L6 11L7 11L7 12L6 12L6 13L5 13L5 14L6 14L6 15L4 15L4 18L3 18L3 16L2 16L2 19L0 19L0 20L1 20L1 21L0 21L0 24L1 24L1 23L2 23L2 24L3 24L3 25L1 25L1 26L0 26L0 27L2 27L2 29L0 29L0 30L1 30L1 33L0 33L0 38L2 38L2 35L3 35L3 36L4 36L4 37L3 37L3 39L0 39L0 40L3 40L3 42L2 42L2 41L1 41L1 42L0 42L0 48L5 48L5 47L8 47L8 48L6 48L6 49L8 49L8 51L9 51L9 52L8 52L8 57L9 57L9 56L10 56L10 57L11 57L11 55L12 55L12 56L13 56L13 57L14 57L14 56L13 56L13 55L15 55L15 57L16 57L16 55L15 55L15 54L16 54L16 53L15 53L15 52L16 52L16 51L17 51L17 53L19 53L19 54L17 54L17 57L20 57L20 56L22 56L22 55L24 55L24 56L25 56L25 57L26 57L26 56L25 56L25 55L26 55L26 54L27 54L27 53L28 53L28 54L29 54L29 55L30 55L30 56L29 56L29 57L32 57L32 56L36 56L36 57L37 57L37 56L36 56L36 55L37 55L37 54L38 54L38 52L37 52L37 51L40 51L40 52L39 52L39 55L38 55L38 56L40 56L40 52L41 52L41 57L42 57L42 56L45 56L45 55L46 55L46 54L45 54L45 53L44 53L44 48L45 48L45 49L47 49L47 48L46 48L46 47L47 47L47 46L46 46L46 45L47 45L47 44L51 44L51 43L50 43L50 42L51 42L51 41L49 41L49 40L50 40L50 38L48 38L48 39L49 39L49 40L48 40L48 41L47 41L47 39L46 39L46 38L45 38L45 37L44 37L44 35L43 35L43 36L42 36L42 34L44 34L44 32L45 32L45 34L46 34L46 35L45 35L45 36L46 36L46 37L47 37L47 36L48 36L48 37L50 37L50 36L51 36L51 37L54 37L54 36L55 36L55 34L57 34L57 32L56 32L56 30L57 30L57 29L56 29L56 28L55 28L55 27L53 27L53 26L52 26L52 24L55 24L55 25L54 25L54 26L57 26L57 25L56 25L56 24L55 24L55 23L56 23L56 22L57 22L57 20L56 20L56 19L53 19L53 18L54 18L54 17L51 17L51 20L56 20L56 21L51 21L51 22L50 22L50 19L48 19L48 21L47 21L47 25L48 25L48 29L47 29L47 28L46 28L46 27L47 27L47 26L46 26L46 27L45 27L45 30L46 30L46 31L44 31L44 32L43 32L43 31L42 31L42 30L44 30L44 27L43 27L43 26L44 26L44 24L45 24L45 25L46 25L46 24L45 24L45 23L46 23L46 22L45 22L45 21L44 21L44 23L43 23L43 21L42 21L42 20L45 20L45 19L47 19L47 18L50 18L50 16L51 16L51 14L52 14L52 13L51 13L51 14L50 14L50 16L49 16L49 17L47 17L47 16L46 16L46 15L49 15L49 13L50 13L50 11L52 11L52 12L53 12L53 11L54 11L54 12L55 12L55 13L56 13L56 14L53 14L53 16L55 16L55 18L57 18L57 17L56 17L56 16L57 16L57 15L56 15L56 14L57 14L57 13L56 13L56 11L54 11L54 10L53 10L53 9L54 9L54 8L53 8L53 9L52 9L52 8L51 8L51 10L49 10L49 9L50 9L50 8L49 8L49 6L48 6L48 7L47 7L47 5L48 5L48 0L42 0L42 1L41 1L41 2L40 2L40 0L39 0L39 1L37 1L37 0L35 0L35 1L34 1L34 0L33 0L33 1L34 1L34 2L30 2L30 1L31 1L31 0L30 0L30 1L28 1L28 0L27 0L27 1L26 1L26 2L25 2L25 0L24 0L24 1L23 1L23 0L21 0L21 2L19 2L19 1L16 1L16 0ZM22 1L22 2L23 2L23 3L22 3L22 4L21 4L21 3L20 3L20 4L18 4L18 2L17 2L17 3L16 3L16 4L15 4L15 3L14 3L14 4L15 4L15 5L13 5L13 3L12 3L12 6L13 6L13 7L14 7L14 6L15 6L15 8L13 8L13 9L15 9L15 10L13 10L13 11L14 11L14 12L12 12L12 11L9 11L9 10L7 10L7 9L6 9L6 10L7 10L7 11L9 11L9 13L8 13L8 12L7 12L7 13L6 13L6 14L7 14L7 15L6 15L6 16L5 16L5 17L6 17L6 18L5 18L5 19L6 19L6 20L7 20L7 21L6 21L6 22L5 22L5 20L4 20L4 19L3 19L3 20L2 20L2 22L3 22L3 24L4 24L4 25L3 25L3 26L2 26L2 27L3 27L3 26L5 26L5 24L7 24L7 25L6 25L6 26L7 26L7 25L8 25L8 26L10 26L10 27L11 27L11 30L10 30L10 31L8 31L8 32L7 32L7 31L6 31L6 32L4 32L4 34L5 34L5 35L4 35L4 36L7 36L7 37L6 37L6 38L7 38L7 39L6 39L6 40L9 40L9 39L10 39L10 41L11 41L11 39L13 39L13 42L12 42L12 43L11 43L11 42L10 42L10 43L9 43L9 42L7 42L7 41L5 41L5 37L4 37L4 39L3 39L3 40L4 40L4 42L3 42L3 43L2 43L2 44L1 44L1 47L2 47L2 44L3 44L3 43L4 43L4 44L5 44L5 46L3 46L3 47L5 47L5 46L7 46L7 45L9 45L9 46L8 46L8 47L9 47L9 48L8 48L8 49L10 49L10 52L9 52L9 53L10 53L10 54L11 54L11 53L12 53L12 51L13 51L13 52L14 52L14 51L13 51L13 50L15 50L15 51L16 51L16 50L17 50L17 49L14 49L14 48L17 48L17 47L18 47L18 45L19 45L19 49L18 49L18 50L19 50L19 49L20 49L20 50L21 50L21 49L22 49L22 51L21 51L21 52L19 52L19 53L21 53L21 54L22 54L22 53L23 53L23 54L24 54L24 53L23 53L23 52L24 52L24 51L25 51L25 52L26 52L26 51L25 51L25 50L26 50L26 49L25 49L25 50L23 50L23 49L24 49L24 47L25 47L25 48L26 48L26 46L28 46L28 47L29 47L29 45L27 45L27 44L29 44L29 43L30 43L30 45L31 45L31 43L30 43L30 41L34 41L34 42L33 42L33 43L34 43L34 44L32 44L32 45L33 45L33 46L36 46L36 47L33 47L33 48L32 48L32 47L31 47L31 48L32 48L32 51L31 51L31 52L32 52L32 54L34 54L34 55L35 55L35 53L34 53L34 52L36 52L36 51L37 51L37 50L39 50L39 49L40 49L40 50L42 50L42 51L41 51L41 52L42 52L42 53L43 53L43 54L42 54L42 55L45 55L45 54L44 54L44 53L43 53L43 52L42 52L42 51L43 51L43 50L42 50L42 49L41 49L41 48L39 48L39 47L41 47L41 46L42 46L42 47L43 47L43 48L44 48L44 47L45 47L45 46L44 46L44 45L45 45L45 43L46 43L46 42L47 42L47 43L49 43L49 42L47 42L47 41L45 41L45 38L44 38L44 37L43 37L43 39L42 39L42 38L41 38L41 36L40 36L40 35L41 35L41 34L42 34L42 33L43 33L43 32L42 32L42 31L41 31L41 32L39 32L39 30L42 30L42 29L43 29L43 28L42 28L42 26L41 26L41 27L40 27L40 28L39 28L39 27L36 27L36 28L35 28L35 29L33 29L33 28L34 28L34 26L35 26L35 24L36 24L36 22L37 22L37 23L38 23L38 24L37 24L37 26L39 26L39 24L40 24L40 25L41 25L41 24L43 24L43 23L42 23L42 22L40 22L40 23L38 23L38 22L39 22L39 21L38 21L38 19L35 19L35 21L33 21L33 20L34 20L34 19L33 19L33 18L40 18L40 19L39 19L39 20L40 20L40 21L41 21L41 20L42 20L42 19L45 19L45 18L47 18L47 17L46 17L46 16L44 16L44 15L45 15L45 14L44 14L44 13L45 13L45 12L46 12L46 14L47 14L47 13L49 13L49 12L47 12L47 10L48 10L48 9L49 9L49 8L48 8L48 9L46 9L46 5L47 5L47 3L43 3L43 2L47 2L47 1L42 1L42 3L40 3L40 5L41 5L41 4L42 4L42 3L43 3L43 5L42 5L42 6L41 6L41 7L40 7L40 6L39 6L39 3L37 3L37 2L36 2L36 1L35 1L35 3L34 3L34 4L33 4L33 3L32 3L32 4L31 4L31 7L32 7L32 6L33 6L33 7L34 7L34 8L32 8L32 9L31 9L31 10L29 10L29 9L28 9L28 10L27 10L27 9L26 9L26 6L25 6L25 4L26 4L26 3L25 3L25 2L23 2L23 1ZM27 1L27 3L28 3L28 4L29 4L29 3L30 3L30 2L29 2L29 3L28 3L28 1ZM8 3L8 4L9 4L9 3ZM24 3L24 4L22 4L22 5L21 5L21 6L20 6L20 5L19 5L19 6L18 6L18 7L17 7L17 5L18 5L18 4L16 4L16 5L15 5L15 6L16 6L16 9L18 9L18 10L16 10L16 11L15 11L15 15L14 15L14 13L13 13L13 14L12 14L12 12L10 12L10 13L11 13L11 14L12 14L12 15L10 15L10 14L9 14L9 15L8 15L8 16L9 16L9 17L10 17L10 16L11 16L11 18L12 18L12 19L14 19L14 20L13 20L13 21L12 21L12 20L9 20L9 19L10 19L10 18L9 18L9 19L8 19L8 18L6 18L6 19L7 19L7 20L8 20L8 21L7 21L7 22L6 22L6 23L8 23L8 25L10 25L10 26L11 26L11 27L12 27L12 28L13 28L13 27L12 27L12 26L14 26L14 27L15 27L15 25L16 25L16 23L15 23L15 22L16 22L16 21L15 21L15 20L16 20L16 19L18 19L18 21L17 21L17 22L18 22L18 23L17 23L17 25L19 25L19 26L18 26L18 27L17 27L17 26L16 26L16 27L17 27L17 28L14 28L14 30L15 30L15 32L13 32L13 33L12 33L12 34L11 34L11 33L10 33L10 34L9 34L9 32L8 32L8 34L6 34L6 35L7 35L7 36L8 36L8 37L7 37L7 38L8 38L8 37L9 37L9 38L11 38L11 37L9 37L9 35L10 35L10 34L11 34L11 36L12 36L12 37L13 37L13 38L15 38L15 39L14 39L14 41L18 41L18 42L17 42L17 43L18 43L18 42L19 42L19 45L22 45L22 44L20 44L20 43L22 43L22 42L23 42L23 44L24 44L24 42L26 42L26 43L29 43L29 42L26 42L26 41L29 41L29 39L31 39L31 40L36 40L36 41L35 41L35 42L34 42L34 43L39 43L39 44L35 44L35 45L36 45L36 46L38 46L38 45L39 45L39 44L40 44L40 43L39 43L39 42L36 42L36 41L38 41L38 39L39 39L39 40L41 40L41 42L43 42L43 43L41 43L41 44L43 44L43 45L42 45L42 46L43 46L43 47L44 47L44 46L43 46L43 45L44 45L44 39L43 39L43 41L42 41L42 40L41 40L41 39L40 39L40 38L38 38L38 36L39 36L39 37L40 37L40 36L39 36L39 34L37 34L37 32L36 32L36 31L35 31L35 30L38 30L38 29L37 29L37 28L36 28L36 29L35 29L35 30L32 30L32 28L31 28L31 27L33 27L33 26L34 26L34 24L35 24L35 22L33 22L33 21L32 21L32 20L33 20L33 19L29 19L29 20L31 20L31 21L30 21L30 22L28 22L28 21L27 21L27 24L30 24L30 25L29 25L29 26L27 26L27 25L26 25L26 24L25 24L25 23L26 23L26 22L25 22L25 20L26 20L26 19L28 19L28 18L27 18L27 17L28 17L28 16L26 16L26 15L29 15L29 13L30 13L30 16L33 16L33 17L29 17L29 18L33 18L33 17L37 17L37 16L33 16L33 15L40 15L40 16L38 16L38 17L40 17L40 18L43 18L43 17L44 17L44 18L45 18L45 17L44 17L44 16L42 16L42 17L40 17L40 16L41 16L41 15L42 15L42 14L43 14L43 13L44 13L44 12L45 12L45 11L44 11L44 10L43 10L43 9L44 9L44 8L45 8L45 6L44 6L44 8L43 8L43 6L42 6L42 7L41 7L41 8L42 8L42 9L41 9L41 11L42 11L42 14L41 14L41 13L40 13L40 14L37 14L37 13L38 13L38 12L40 12L40 11L39 11L39 10L37 10L37 9L38 9L38 8L36 8L36 7L37 7L37 6L38 6L38 7L39 7L39 8L40 8L40 7L39 7L39 6L38 6L38 4L37 4L37 3L36 3L36 5L33 5L33 6L34 6L34 7L35 7L35 8L34 8L34 9L35 9L35 10L33 10L33 9L32 9L32 10L33 10L33 13L32 13L32 12L30 12L30 11L27 11L27 10L26 10L26 11L27 11L27 12L25 12L25 8L24 8L24 7L25 7L25 6L24 6L24 7L23 7L23 5L24 5L24 4L25 4L25 3ZM44 4L44 5L46 5L46 4ZM8 5L8 7L9 7L9 5ZM27 5L27 8L30 8L30 5ZM36 5L36 6L35 6L35 7L36 7L36 6L37 6L37 5ZM19 6L19 8L20 8L20 10L21 10L21 9L24 9L24 8L23 8L23 7L22 7L22 6L21 6L21 7L20 7L20 6ZM28 6L28 7L29 7L29 6ZM21 7L21 8L22 8L22 7ZM35 8L35 9L36 9L36 8ZM55 8L55 10L57 10L57 9L56 9L56 8ZM18 10L18 11L17 11L17 12L18 12L18 13L16 13L16 15L15 15L15 16L14 16L14 18L15 18L15 17L16 17L16 18L19 18L19 21L18 21L18 22L19 22L19 23L20 23L20 22L19 22L19 21L21 21L21 22L22 22L22 21L23 21L23 22L24 22L24 21L23 21L23 20L22 20L22 19L24 19L24 18L23 18L23 17L24 17L24 16L25 16L25 17L26 17L26 16L25 16L25 15L26 15L26 14L28 14L28 13L29 13L29 12L28 12L28 13L26 13L26 14L25 14L25 15L24 15L24 14L23 14L23 13L25 13L25 12L24 12L24 11L23 11L23 10L22 10L22 11L21 11L21 12L22 12L22 13L19 13L19 12L20 12L20 11L19 11L19 10ZM35 10L35 11L34 11L34 12L35 12L35 11L37 11L37 10ZM42 10L42 11L43 11L43 12L44 12L44 11L43 11L43 10ZM52 10L52 11L53 11L53 10ZM7 13L7 14L8 14L8 13ZM18 13L18 15L20 15L20 14L19 14L19 13ZM31 13L31 14L32 14L32 15L33 15L33 14L35 14L35 13L33 13L33 14L32 14L32 13ZM21 14L21 16L20 16L20 17L21 17L21 18L20 18L20 19L22 19L22 17L21 17L21 16L22 16L22 14ZM40 14L40 15L41 15L41 14ZM9 15L9 16L10 16L10 15ZM16 15L16 17L19 17L19 16L17 16L17 15ZM6 16L6 17L7 17L7 16ZM12 16L12 17L13 17L13 16ZM40 19L40 20L41 20L41 19ZM3 20L3 22L4 22L4 23L5 23L5 22L4 22L4 20ZM21 20L21 21L22 21L22 20ZM36 20L36 21L37 21L37 22L38 22L38 21L37 21L37 20ZM9 21L9 22L11 22L11 21ZM13 21L13 23L12 23L12 24L15 24L15 23L14 23L14 22L15 22L15 21ZM30 22L30 24L31 24L31 25L32 25L32 26L33 26L33 24L34 24L34 23L33 23L33 24L32 24L32 23L31 23L31 22ZM49 22L49 23L48 23L48 25L49 25L49 23L50 23L50 24L52 24L52 23L53 23L53 22L52 22L52 23L50 23L50 22ZM9 23L9 24L10 24L10 23ZM23 23L23 24L19 24L19 25L20 25L20 28L19 28L19 29L20 29L20 30L17 30L17 29L18 29L18 28L17 28L17 29L16 29L16 30L17 30L17 31L16 31L16 32L18 32L18 31L19 31L19 33L16 33L16 35L17 35L17 36L16 36L16 37L15 37L15 34L14 34L14 37L15 37L15 38L16 38L16 37L17 37L17 39L19 39L19 40L20 40L20 42L21 42L21 41L24 41L24 40L25 40L25 38L28 38L28 37L29 37L29 36L30 36L30 38L31 38L31 39L33 39L33 38L34 38L34 39L36 39L36 40L37 40L37 39L36 39L36 38L37 38L37 37L36 37L36 36L38 36L38 35L34 35L34 36L35 36L35 37L33 37L33 34L36 34L36 32L35 32L35 31L34 31L34 32L32 32L32 30L31 30L31 31L25 31L25 34L24 34L24 36L23 36L23 30L24 30L24 29L25 29L25 30L26 30L26 27L25 27L25 28L24 28L24 29L22 29L22 28L21 28L21 27L22 27L22 26L23 26L23 27L24 27L24 25L25 25L25 26L26 26L26 25L25 25L25 24L24 24L24 23ZM40 23L40 24L41 24L41 23ZM23 24L23 25L24 25L24 24ZM11 25L11 26L12 26L12 25ZM21 25L21 26L22 26L22 25ZM50 25L50 26L51 26L51 25ZM5 27L5 30L8 30L8 27ZM27 27L27 30L30 30L30 27ZM49 27L49 30L52 30L52 27ZM3 28L3 29L2 29L2 30L3 30L3 29L4 29L4 28ZM6 28L6 29L7 29L7 28ZM20 28L20 29L21 29L21 30L20 30L20 31L22 31L22 29L21 29L21 28ZM28 28L28 29L29 29L29 28ZM50 28L50 29L51 29L51 28ZM54 28L54 29L55 29L55 30L53 30L53 31L51 31L51 32L50 32L50 31L48 31L48 30L47 30L47 29L46 29L46 30L47 30L47 31L46 31L46 32L47 32L47 33L46 33L46 34L47 34L47 33L48 33L48 36L49 36L49 35L51 35L51 36L52 36L52 34L54 34L54 33L56 33L56 32L54 32L54 31L55 31L55 30L56 30L56 29L55 29L55 28ZM12 29L12 30L11 30L11 31L10 31L10 32L11 32L11 31L13 31L13 29ZM2 31L2 33L1 33L1 34L2 34L2 33L3 33L3 31ZM47 31L47 32L48 32L48 31ZM6 32L6 33L7 33L7 32ZM20 32L20 33L21 33L21 34L20 34L20 35L18 35L18 36L17 36L17 37L20 37L20 36L21 36L21 34L22 34L22 33L21 33L21 32ZM27 32L27 33L26 33L26 34L25 34L25 35L26 35L26 37L28 37L28 36L27 36L27 35L26 35L26 34L27 34L27 33L30 33L30 32ZM31 32L31 33L32 33L32 34L33 34L33 33L32 33L32 32ZM34 32L34 33L35 33L35 32ZM51 32L51 33L50 33L50 34L51 34L51 33L54 33L54 32ZM8 34L8 35L9 35L9 34ZM12 34L12 35L13 35L13 34ZM29 34L29 35L30 35L30 36L31 36L31 38L32 38L32 35L30 35L30 34ZM46 35L46 36L47 36L47 35ZM56 35L56 36L57 36L57 35ZM24 36L24 37L21 37L21 40L24 40L24 39L22 39L22 38L24 38L24 37L25 37L25 36ZM35 37L35 38L36 38L36 37ZM55 37L55 38L53 38L53 39L52 39L52 38L51 38L51 39L52 39L52 41L54 41L54 43L53 43L53 44L52 44L52 45L50 45L50 46L52 46L52 47L54 47L54 48L51 48L51 47L49 47L49 48L48 48L48 51L47 51L47 50L45 50L45 52L48 52L48 53L50 53L50 55L51 55L51 56L50 56L50 57L52 57L52 56L55 56L55 57L56 57L56 56L55 56L55 53L54 53L54 52L55 52L55 51L56 51L56 52L57 52L57 51L56 51L56 50L57 50L57 49L56 49L56 50L55 50L55 49L54 49L54 48L57 48L57 47L56 47L56 46L57 46L57 45L56 45L56 46L55 46L55 45L54 45L54 44L56 44L56 42L57 42L57 41L56 41L56 42L55 42L55 39L57 39L57 37ZM19 38L19 39L20 39L20 38ZM15 39L15 40L16 40L16 39ZM27 39L27 40L28 40L28 39ZM6 42L6 43L5 43L5 44L6 44L6 45L7 45L7 44L8 44L8 43L7 43L7 42ZM13 42L13 43L12 43L12 44L11 44L11 43L10 43L10 44L9 44L9 45L10 45L10 49L13 49L13 48L11 48L11 47L12 47L12 46L13 46L13 47L14 47L14 45L15 45L15 47L16 47L16 45L18 45L18 44L16 44L16 43L14 43L14 42ZM6 43L6 44L7 44L7 43ZM12 44L12 45L14 45L14 44ZM25 44L25 45L23 45L23 46L25 46L25 45L26 45L26 44ZM40 45L40 46L41 46L41 45ZM52 45L52 46L53 46L53 45ZM20 46L20 47L21 47L21 48L23 48L23 47L22 47L22 46ZM37 47L37 48L33 48L33 50L34 50L34 51L35 51L35 50L37 50L37 49L39 49L39 48L38 48L38 47ZM27 49L27 52L30 52L30 49ZM34 49L34 50L35 50L35 49ZM49 49L49 52L52 52L52 49ZM28 50L28 51L29 51L29 50ZM50 50L50 51L51 51L51 50ZM53 50L53 51L54 51L54 50ZM32 51L32 52L33 52L33 51ZM21 52L21 53L22 53L22 52ZM14 53L14 54L15 54L15 53ZM25 53L25 54L26 54L26 53ZM29 53L29 54L30 54L30 53ZM12 54L12 55L13 55L13 54ZM19 54L19 55L20 55L20 54ZM47 54L47 55L49 55L49 54ZM51 54L51 55L54 55L54 54ZM27 55L27 56L28 56L28 55ZM31 55L31 56L32 56L32 55ZM46 56L46 57L49 57L49 56ZM0 0L0 7L7 7L7 0ZM1 1L1 6L6 6L6 1ZM2 2L2 5L5 5L5 2ZM50 0L50 7L57 7L57 0ZM51 1L51 6L56 6L56 1ZM52 2L52 5L55 5L55 2ZM0 50L0 57L7 57L7 50ZM1 51L1 56L6 56L6 51ZM2 52L2 55L5 55L5 52Z" fill="#000000"/></g></g></svg>
