<?xml version="1.0" encoding="UTF-8"?>
<svg xmlns="http://www.w3.org/2000/svg" version="1.1" width="300" height="300" viewBox="0 0 300 300"><rect x="0" y="0" width="300" height="300" fill="#ffffff"/><g transform="scale(4.918)"><g transform="translate(2,2)"><path fill-rule="evenodd" d="M11 0L11 1L10 1L10 2L11 2L11 3L10 3L10 5L8 5L8 7L9 7L9 6L10 6L10 7L11 7L11 4L12 4L12 7L13 7L13 5L14 5L14 8L13 8L13 11L14 11L14 12L13 12L13 13L15 13L15 14L14 14L14 15L16 15L16 17L13 17L13 18L12 18L12 19L11 19L11 16L10 16L10 15L9 15L9 13L8 13L8 12L9 12L9 11L8 11L8 12L6 12L6 13L7 13L7 14L6 14L6 15L5 15L5 13L4 13L4 15L3 15L3 14L2 14L2 13L3 13L3 12L5 12L5 11L7 11L7 10L6 10L6 9L9 9L9 8L6 8L6 9L5 9L5 8L0 8L0 9L2 9L2 10L3 10L3 11L0 11L0 12L1 12L1 13L0 13L0 14L1 14L1 15L0 15L0 18L1 18L1 17L2 17L2 19L1 19L1 20L0 20L0 25L2 25L2 24L4 24L4 25L3 25L3 27L1 27L1 29L0 29L0 31L1 31L1 33L2 33L2 32L3 32L3 31L5 31L5 33L7 33L7 34L6 34L6 35L8 35L8 36L5 36L5 37L4 37L4 38L3 38L3 36L2 36L2 35L3 35L3 34L4 34L4 33L3 33L3 34L2 34L2 35L1 35L1 34L0 34L0 36L2 36L2 38L1 38L1 37L0 37L0 40L2 40L2 39L4 39L4 40L6 40L6 41L5 41L5 42L4 42L4 41L2 41L2 42L4 42L4 46L5 46L5 47L3 47L3 43L1 43L1 44L2 44L2 47L1 47L1 45L0 45L0 48L5 48L5 47L7 47L7 48L6 48L6 49L7 49L7 48L9 48L9 49L8 49L8 51L9 51L9 50L10 50L10 52L8 52L8 57L9 57L9 55L11 55L11 56L10 56L10 57L14 57L14 56L15 56L15 57L16 57L16 56L17 56L17 57L20 57L20 56L19 56L19 55L20 55L20 54L19 54L19 55L17 55L17 53L20 53L20 52L21 52L21 53L22 53L22 54L21 54L21 55L22 55L22 56L23 56L23 57L26 57L26 56L28 56L28 55L27 55L27 53L28 53L28 54L30 54L30 53L31 53L31 56L30 56L30 55L29 55L29 56L30 56L30 57L32 57L32 55L33 55L33 57L34 57L34 56L35 56L35 57L37 57L37 56L38 56L38 57L40 57L40 56L42 56L42 57L44 57L44 56L45 56L45 57L47 57L47 55L49 55L49 54L47 54L47 55L46 55L46 54L45 54L45 53L44 53L44 49L40 49L40 48L41 48L41 47L42 47L42 48L46 48L46 47L47 47L47 46L50 46L50 45L49 45L49 44L51 44L51 43L50 43L50 42L51 42L51 41L49 41L49 40L51 40L51 39L49 39L49 37L50 37L50 38L51 38L51 37L54 37L54 39L53 39L53 40L52 40L52 41L54 41L54 43L53 43L53 44L52 44L52 45L51 45L51 46L52 46L52 45L54 45L54 44L56 44L56 46L53 46L53 47L54 47L54 48L52 48L52 47L49 47L49 48L48 48L48 51L47 51L47 50L45 50L45 52L48 52L48 53L50 53L50 55L51 55L51 56L50 56L50 57L52 57L52 56L55 56L55 57L56 57L56 56L55 56L55 55L54 55L54 54L55 54L55 53L54 53L54 52L55 52L55 50L57 50L57 49L54 49L54 48L57 48L57 47L56 47L56 46L57 46L57 44L56 44L56 43L55 43L55 42L57 42L57 41L54 41L54 40L55 40L55 39L57 39L57 37L54 37L54 36L57 36L57 35L56 35L56 34L57 34L57 32L56 32L56 30L57 30L57 28L56 28L56 26L57 26L57 25L56 25L56 22L57 22L57 21L56 21L56 20L57 20L57 19L56 19L56 20L55 20L55 19L53 19L53 18L54 18L54 16L55 16L55 18L57 18L57 17L56 17L56 16L57 16L57 15L56 15L56 14L57 14L57 13L56 13L56 10L55 10L55 11L54 11L54 10L53 10L53 9L54 9L54 8L53 8L53 9L52 9L52 8L51 8L51 10L49 10L49 9L50 9L50 8L49 8L49 6L48 6L48 7L47 7L47 5L48 5L48 0L39 0L39 1L38 1L38 0L35 0L35 1L34 1L34 0L33 0L33 1L32 1L32 2L30 2L30 1L31 1L31 0L30 0L30 1L29 1L29 0L28 0L28 1L29 1L29 2L28 2L28 3L27 3L27 4L26 4L26 3L23 3L23 4L22 4L22 3L21 3L21 2L22 2L22 1L23 1L23 2L27 2L27 1L25 1L25 0L24 0L24 1L23 1L23 0L21 0L21 2L19 2L19 1L18 1L18 2L19 2L19 3L18 3L18 4L17 4L17 6L16 6L16 7L15 7L15 5L16 5L16 4L14 4L14 3L17 3L17 1L16 1L16 0L14 0L14 1L15 1L15 2L14 2L14 3L13 3L13 1L12 1L12 0ZM8 1L8 2L9 2L9 1ZM11 1L11 2L12 2L12 1ZM33 1L33 2L34 2L34 1ZM35 1L35 4L34 4L34 3L32 3L32 4L31 4L31 9L32 9L32 10L33 10L33 11L32 11L32 13L31 13L31 12L30 12L30 11L29 11L29 10L28 10L28 9L25 9L25 8L26 8L26 4L25 4L25 8L24 8L24 6L23 6L23 5L24 5L24 4L23 4L23 5L22 5L22 4L21 4L21 3L19 3L19 4L18 4L18 5L19 5L19 7L18 7L18 6L17 6L17 7L16 7L16 8L17 8L17 7L18 7L18 8L19 8L19 7L20 7L20 5L19 5L19 4L21 4L21 9L19 9L19 10L20 10L20 11L19 11L19 12L20 12L20 11L22 11L22 10L23 10L23 11L24 11L24 9L25 9L25 12L23 12L23 13L22 13L22 12L21 12L21 13L19 13L19 15L18 15L18 14L17 14L17 13L18 13L18 12L17 12L17 13L16 13L16 15L17 15L17 16L19 16L19 17L16 17L16 18L17 18L17 19L16 19L16 21L15 21L15 18L13 18L13 19L14 19L14 20L13 20L13 21L12 21L12 24L11 24L11 23L10 23L10 22L9 22L9 24L8 24L8 22L7 22L7 21L11 21L11 20L9 20L9 19L8 19L8 20L7 20L7 19L5 19L5 18L10 18L10 17L8 17L8 14L7 14L7 15L6 15L6 16L7 16L7 17L4 17L4 18L3 18L3 20L4 20L4 21L3 21L3 23L5 23L5 22L7 22L7 23L6 23L6 24L5 24L5 25L6 25L6 26L7 26L7 25L8 25L8 26L9 26L9 27L10 27L10 28L9 28L9 29L10 29L10 31L8 31L8 32L10 32L10 33L11 33L11 32L12 32L12 33L13 33L13 35L11 35L11 36L8 36L8 37L5 37L5 38L7 38L7 39L6 39L6 40L7 40L7 41L6 41L6 42L7 42L7 43L5 43L5 45L6 45L6 46L7 46L7 47L8 47L8 46L11 46L11 47L10 47L10 49L11 49L11 47L12 47L12 49L13 49L13 50L12 50L12 51L13 51L13 53L12 53L12 52L10 52L10 53L9 53L9 54L10 54L10 53L11 53L11 54L12 54L12 56L13 56L13 53L14 53L14 54L16 54L16 53L17 53L17 52L19 52L19 51L16 51L16 50L17 50L17 49L15 49L15 48L13 48L13 47L12 47L12 46L11 46L11 45L12 45L12 44L11 44L11 43L10 43L10 42L11 42L11 41L12 41L12 42L14 42L14 41L12 41L12 39L13 39L13 40L15 40L15 39L16 39L16 40L17 40L17 39L18 39L18 38L19 38L19 39L20 39L20 38L19 38L19 37L23 37L23 38L22 38L22 39L21 39L21 41L20 41L20 40L19 40L19 41L15 41L15 42L17 42L17 43L16 43L16 44L17 44L17 45L16 45L16 46L15 46L15 47L16 47L16 48L17 48L17 47L18 47L18 46L17 46L17 45L18 45L18 44L17 44L17 43L18 43L18 42L19 42L19 43L22 43L22 41L23 41L23 43L24 43L24 44L23 44L23 45L22 45L22 44L21 44L21 45L20 45L20 44L19 44L19 45L20 45L20 47L19 47L19 49L18 49L18 50L19 50L19 49L20 49L20 50L21 50L21 49L22 49L22 51L21 51L21 52L22 52L22 53L24 53L24 54L22 54L22 55L24 55L24 56L26 56L26 55L25 55L25 53L26 53L26 51L25 51L25 50L23 50L23 49L24 49L24 48L25 48L25 49L26 49L26 46L27 46L27 48L29 48L29 47L30 47L30 48L31 48L31 49L34 49L34 50L31 50L31 52L32 52L32 54L33 54L33 55L34 55L34 54L39 54L39 53L36 53L36 52L37 52L37 51L38 51L38 52L40 52L40 55L38 55L38 56L40 56L40 55L42 55L42 56L44 56L44 55L45 55L45 56L46 56L46 55L45 55L45 54L44 54L44 53L43 53L43 54L41 54L41 53L42 53L42 52L40 52L40 51L43 51L43 50L40 50L40 51L38 51L38 50L39 50L39 49L38 49L38 48L40 48L40 47L39 47L39 46L40 46L40 45L41 45L41 46L42 46L42 47L43 47L43 46L44 46L44 47L45 47L45 44L44 44L44 43L45 43L45 42L47 42L47 43L49 43L49 42L47 42L47 41L48 41L48 40L49 40L49 39L47 39L47 38L48 38L48 36L49 36L49 35L51 35L51 36L50 36L50 37L51 37L51 36L52 36L52 34L54 34L54 33L55 33L55 34L56 34L56 32L54 32L54 31L51 31L51 32L49 32L49 31L48 31L48 29L46 29L46 30L44 30L44 31L43 31L43 30L42 30L42 29L43 29L43 28L44 28L44 29L45 29L45 27L46 27L46 28L47 28L47 27L48 27L48 25L49 25L49 26L51 26L51 24L52 24L52 25L53 25L53 27L55 27L55 26L56 26L56 25L55 25L55 26L54 26L54 25L53 25L53 24L52 24L52 23L53 23L53 22L52 22L52 23L50 23L50 22L51 22L51 21L54 21L54 22L55 22L55 20L51 20L51 19L52 19L52 18L53 18L53 16L54 16L54 15L55 15L55 14L56 14L56 13L55 13L55 12L54 12L54 11L53 11L53 10L52 10L52 11L50 11L50 13L49 13L49 12L48 12L48 11L47 11L47 10L48 10L48 9L49 9L49 8L48 8L48 9L47 9L47 7L46 7L46 5L47 5L47 3L42 3L42 4L43 4L43 5L42 5L42 6L41 6L41 7L42 7L42 6L43 6L43 7L44 7L44 6L45 6L45 7L46 7L46 8L44 8L44 10L42 10L42 11L41 11L41 8L39 8L39 7L40 7L40 6L39 6L39 2L47 2L47 1L39 1L39 2L38 2L38 1ZM8 3L8 4L9 4L9 3ZM28 3L28 4L29 4L29 3ZM36 3L36 5L33 5L33 6L32 6L32 8L33 8L33 6L34 6L34 7L35 7L35 10L34 10L34 9L33 9L33 10L34 10L34 11L33 11L33 13L35 13L35 14L33 14L33 15L30 15L30 14L31 14L31 13L28 13L28 12L29 12L29 11L27 11L27 10L26 10L26 11L27 11L27 12L25 12L25 13L23 13L23 14L25 14L25 13L28 13L28 14L27 14L27 16L25 16L25 15L24 15L24 17L23 17L23 18L24 18L24 19L22 19L22 20L24 20L24 21L21 21L21 24L20 24L20 25L19 25L19 23L20 23L20 22L18 22L18 21L20 21L20 20L18 20L18 21L16 21L16 22L15 22L15 23L13 23L13 24L12 24L12 25L13 25L13 27L12 27L12 28L11 28L11 29L12 29L12 28L13 28L13 30L15 30L15 31L13 31L13 32L15 32L15 34L14 34L14 35L13 35L13 36L12 36L12 37L15 37L15 38L16 38L16 37L15 37L15 36L17 36L17 37L19 37L19 36L21 36L21 35L22 35L22 33L21 33L21 32L20 32L20 33L21 33L21 34L20 34L20 35L19 35L19 34L17 34L17 35L16 35L16 33L19 33L19 31L18 31L18 32L16 32L16 31L17 31L17 30L16 30L16 29L18 29L18 30L20 30L20 31L22 31L22 30L20 30L20 29L22 29L22 28L21 28L21 27L22 27L22 26L23 26L23 29L24 29L24 30L23 30L23 31L24 31L24 32L23 32L23 37L24 37L24 38L23 38L23 39L24 39L24 40L25 40L25 39L27 39L27 41L26 41L26 42L27 42L27 41L29 41L29 42L28 42L28 43L29 43L29 44L27 44L27 43L26 43L26 44L25 44L25 45L23 45L23 47L22 47L22 45L21 45L21 48L23 48L23 47L25 47L25 45L26 45L26 44L27 44L27 45L29 45L29 46L28 46L28 47L29 47L29 46L30 46L30 47L31 47L31 48L34 48L34 47L35 47L35 48L36 48L36 49L35 49L35 50L34 50L34 51L35 51L35 52L36 52L36 51L37 51L37 50L38 50L38 49L37 49L37 48L38 48L38 47L37 47L37 46L38 46L38 45L37 45L37 43L38 43L38 44L39 44L39 45L40 45L40 44L43 44L43 45L42 45L42 46L43 46L43 45L44 45L44 44L43 44L43 43L40 43L40 44L39 44L39 42L36 42L36 44L35 44L35 45L36 45L36 47L35 47L35 46L33 46L33 45L32 45L32 44L30 44L30 43L31 43L31 42L32 42L32 41L31 41L31 40L33 40L33 41L37 41L37 40L38 40L38 41L39 41L39 40L38 40L38 39L40 39L40 38L37 38L37 37L40 37L40 36L41 36L41 35L42 35L42 38L41 38L41 39L42 39L42 38L43 38L43 37L44 37L44 38L45 38L45 40L46 40L46 41L47 41L47 40L46 40L46 38L45 38L45 37L44 37L44 32L45 32L45 33L46 33L46 32L45 32L45 31L44 31L44 32L43 32L43 31L42 31L42 30L41 30L41 31L40 31L40 30L37 30L37 28L36 28L36 27L37 27L37 26L38 26L38 27L39 27L39 28L38 28L38 29L39 29L39 28L41 28L41 27L42 27L42 28L43 28L43 27L44 27L44 26L45 26L45 25L46 25L46 24L47 24L47 25L48 25L48 23L49 23L49 22L50 22L50 19L49 19L49 18L50 18L50 17L51 17L51 16L52 16L52 15L51 15L51 14L52 14L52 13L51 13L51 14L50 14L50 15L49 15L49 13L47 13L47 14L46 14L46 12L45 12L45 14L43 14L43 13L44 13L44 11L42 11L42 14L40 14L40 15L39 15L39 16L38 16L38 17L39 17L39 18L37 18L37 16L36 16L36 15L37 15L37 14L38 14L38 12L40 12L40 9L39 9L39 8L38 8L38 7L39 7L39 6L38 6L38 7L37 7L37 6L36 6L36 5L38 5L38 3ZM40 3L40 5L41 5L41 3ZM44 4L44 5L46 5L46 4ZM27 5L27 8L30 8L30 5ZM22 6L22 7L23 7L23 6ZM28 6L28 7L29 7L29 6ZM35 6L35 7L36 7L36 6ZM11 8L11 9L12 9L12 8ZM14 8L14 10L15 10L15 11L16 11L16 10L17 10L17 11L18 11L18 10L17 10L17 9L15 9L15 8ZM23 8L23 9L24 9L24 8ZM37 8L37 9L36 9L36 10L37 10L37 9L38 9L38 11L39 11L39 9L38 9L38 8ZM55 8L55 9L56 9L56 8ZM3 9L3 10L5 10L5 9ZM45 10L45 11L46 11L46 10ZM10 11L10 12L12 12L12 11ZM34 11L34 12L35 12L35 13L36 13L36 12L37 12L37 11ZM52 11L52 12L53 12L53 11ZM10 13L10 14L11 14L11 15L13 15L13 14L12 14L12 13ZM21 13L21 14L20 14L20 15L19 15L19 16L20 16L20 17L21 17L21 18L20 18L20 19L21 19L21 18L22 18L22 17L21 17L21 16L22 16L22 13ZM53 13L53 14L55 14L55 13ZM42 14L42 15L41 15L41 16L39 16L39 17L40 17L40 18L39 18L39 20L38 20L38 19L33 19L33 18L35 18L35 17L36 17L36 16L35 16L35 15L33 15L33 16L30 16L30 15L28 15L28 16L27 16L27 17L28 17L28 16L29 16L29 17L31 17L31 18L29 18L29 19L28 19L28 18L26 18L26 17L25 17L25 18L26 18L26 20L25 20L25 21L24 21L24 22L23 22L23 23L24 23L24 24L21 24L21 25L20 25L20 26L21 26L21 25L25 25L25 26L24 26L24 29L25 29L25 30L26 30L26 27L25 27L25 26L26 26L26 25L27 25L27 24L28 24L28 26L29 26L29 25L30 25L30 24L28 24L28 23L29 23L29 22L30 22L30 23L31 23L31 22L30 22L30 19L31 19L31 18L32 18L32 19L33 19L33 20L32 20L32 21L34 21L34 22L33 22L33 24L31 24L31 25L32 25L32 26L33 26L33 28L32 28L32 29L31 29L31 30L32 30L32 31L33 31L33 30L35 30L35 29L33 29L33 28L34 28L34 26L35 26L35 27L36 27L36 26L37 26L37 25L38 25L38 26L39 26L39 27L41 27L41 24L42 24L42 23L41 23L41 22L40 22L40 23L39 23L39 20L40 20L40 21L43 21L43 23L44 23L44 21L45 21L45 22L46 22L46 23L45 23L45 24L43 24L43 25L45 25L45 24L46 24L46 23L47 23L47 21L48 21L48 20L47 20L47 19L48 19L48 18L47 18L47 17L48 17L48 16L49 16L49 15L45 15L45 16L44 16L44 15L43 15L43 14ZM2 15L2 17L3 17L3 15ZM4 15L4 16L5 16L5 15ZM20 15L20 16L21 16L21 15ZM42 15L42 16L43 16L43 17L41 17L41 18L44 18L44 16L43 16L43 15ZM50 15L50 16L51 16L51 15ZM34 16L34 17L35 17L35 16ZM45 16L45 18L46 18L46 19L43 19L43 20L46 20L46 19L47 19L47 18L46 18L46 16ZM32 17L32 18L33 18L33 17ZM18 18L18 19L19 19L19 18ZM4 19L4 20L5 20L5 21L4 21L4 22L5 22L5 21L7 21L7 20L5 20L5 19ZM40 19L40 20L41 20L41 19ZM1 20L1 21L2 21L2 20ZM26 20L26 21L25 21L25 22L26 22L26 23L25 23L25 24L27 24L27 20ZM36 20L36 21L37 21L37 22L36 22L36 23L35 23L35 22L34 22L34 23L35 23L35 24L33 24L33 26L34 26L34 25L37 25L37 22L38 22L38 21L37 21L37 20ZM13 21L13 22L14 22L14 21ZM1 23L1 24L2 24L2 23ZM15 23L15 24L16 24L16 23ZM17 23L17 24L18 24L18 23ZM38 23L38 24L39 24L39 25L40 25L40 24L41 24L41 23L40 23L40 24L39 24L39 23ZM6 24L6 25L7 25L7 24ZM10 24L10 25L9 25L9 26L10 26L10 27L11 27L11 26L10 26L10 25L11 25L11 24ZM13 24L13 25L14 25L14 24ZM15 25L15 27L14 27L14 29L15 29L15 27L17 27L17 28L18 28L18 29L20 29L20 28L19 28L19 26L18 26L18 25ZM17 26L17 27L18 27L18 26ZM46 26L46 27L47 27L47 26ZM3 27L3 28L2 28L2 29L1 29L1 31L3 31L3 30L4 30L4 29L3 29L3 28L4 28L4 27ZM5 27L5 30L8 30L8 27ZM27 27L27 30L30 30L30 27ZM49 27L49 30L52 30L52 27ZM6 28L6 29L7 29L7 28ZM28 28L28 29L29 29L29 28ZM50 28L50 29L51 29L51 28ZM54 28L54 29L53 29L53 30L54 30L54 29L55 29L55 30L56 30L56 28ZM2 29L2 30L3 30L3 29ZM11 30L11 31L12 31L12 30ZM36 30L36 31L34 31L34 32L40 32L40 33L37 33L37 34L42 34L42 35L43 35L43 34L42 34L42 33L43 33L43 32L42 32L42 31L41 31L41 32L40 32L40 31L37 31L37 30ZM46 30L46 31L47 31L47 32L48 32L48 31L47 31L47 30ZM6 31L6 32L7 32L7 31ZM25 31L25 34L24 34L24 36L25 36L25 38L26 38L26 37L28 37L28 38L27 38L27 39L28 39L28 40L31 40L31 39L33 39L33 40L35 40L35 39L36 39L36 38L35 38L35 37L36 37L36 36L40 36L40 35L36 35L36 33L34 33L34 34L32 34L32 38L31 38L31 36L30 36L30 34L29 34L29 33L26 33L26 32L29 32L29 31ZM30 31L30 33L33 33L33 32L31 32L31 31ZM41 32L41 33L42 33L42 32ZM51 32L51 33L50 33L50 34L51 34L51 33L54 33L54 32ZM8 33L8 35L9 35L9 33ZM47 33L47 34L45 34L45 36L46 36L46 37L47 37L47 36L46 36L46 35L49 35L49 34L48 34L48 33ZM25 34L25 35L26 35L26 36L27 36L27 35L26 35L26 34ZM34 34L34 35L33 35L33 36L35 36L35 34ZM17 35L17 36L18 36L18 35ZM29 36L29 39L31 39L31 38L30 38L30 36ZM8 37L8 40L10 40L10 41L8 41L8 43L7 43L7 44L6 44L6 45L7 45L7 44L8 44L8 45L11 45L11 44L10 44L10 43L9 43L9 42L10 42L10 41L11 41L11 40L10 40L10 38L11 38L11 39L12 39L12 38L11 38L11 37ZM34 38L34 39L35 39L35 38ZM43 39L43 41L40 41L40 42L43 42L43 41L44 41L44 42L45 42L45 41L44 41L44 39ZM0 41L0 42L1 42L1 41ZM24 41L24 43L25 43L25 41ZM29 42L29 43L30 43L30 42ZM33 42L33 44L34 44L34 42ZM29 44L29 45L30 45L30 44ZM47 44L47 45L46 45L46 46L47 46L47 45L48 45L48 44ZM31 45L31 46L32 46L32 47L33 47L33 46L32 46L32 45ZM16 46L16 47L17 47L17 46ZM36 47L36 48L37 48L37 47ZM14 49L14 50L15 50L15 49ZM27 49L27 52L30 52L30 49ZM49 49L49 52L52 52L52 49ZM28 50L28 51L29 51L29 50ZM35 50L35 51L36 51L36 50ZM50 50L50 51L51 51L51 50ZM53 50L53 51L54 51L54 50ZM14 51L14 52L15 52L15 53L16 53L16 51ZM22 51L22 52L23 52L23 51ZM24 51L24 53L25 53L25 51ZM32 51L32 52L33 52L33 53L34 53L34 52L33 52L33 51ZM56 51L56 52L57 52L57 51ZM51 54L51 55L53 55L53 54ZM15 55L15 56L16 56L16 55ZM48 56L48 57L49 57L49 56ZM0 0L0 7L7 7L7 0ZM1 1L1 6L6 6L6 1ZM2 2L2 5L5 5L5 2ZM50 0L50 7L57 7L57 0ZM51 1L51 6L56 6L56 1ZM52 2L52 5L55 5L55 2ZM0 50L0 57L7 57L7 50ZM1 51L1 56L6 56L6 51ZM2 52L2 55L5 55L5 52Z" fill="#000000"/></g></g></svg>
