<?xml version="1.0" encoding="UTF-8"?>
<svg xmlns="http://www.w3.org/2000/svg" version="1.1" width="300" height="300" viewBox="0 0 300 300"><rect x="0" y="0" width="300" height="300" fill="#ffffff"/><g transform="scale(4.918)"><g transform="translate(2,2)"><path fill-rule="evenodd" d="M10 0L10 2L9 2L9 1L8 1L8 2L9 2L9 3L8 3L8 4L9 4L9 3L10 3L10 4L11 4L11 6L10 6L10 9L9 9L9 8L6 8L6 9L8 9L8 12L6 12L6 11L7 11L7 10L5 10L5 8L0 8L0 9L1 9L1 10L2 10L2 9L4 9L4 12L3 12L3 11L2 11L2 12L1 12L1 11L0 11L0 12L1 12L1 13L2 13L2 16L1 16L1 18L0 18L0 22L1 22L1 24L0 24L0 25L3 25L3 24L4 24L4 26L3 26L3 27L2 27L2 26L1 26L1 27L2 27L2 28L3 28L3 29L4 29L4 30L2 30L2 29L1 29L1 28L0 28L0 29L1 29L1 30L0 30L0 31L1 31L1 34L2 34L2 35L1 35L1 36L2 36L2 35L3 35L3 37L1 37L1 38L0 38L0 39L2 39L2 40L1 40L1 41L0 41L0 48L5 48L5 47L7 47L7 48L6 48L6 49L7 49L7 48L9 48L9 49L8 49L8 51L9 51L9 52L8 52L8 57L9 57L9 55L10 55L10 56L11 56L11 55L12 55L12 57L13 57L13 56L14 56L14 57L19 57L19 56L23 56L23 55L24 55L24 57L26 57L26 55L25 55L25 54L27 54L27 53L28 53L28 54L29 54L29 55L30 55L30 56L29 56L29 57L32 57L32 56L34 56L34 54L32 54L32 52L33 52L33 53L34 53L34 52L33 52L33 51L32 51L32 50L34 50L34 51L35 51L35 52L36 52L36 53L35 53L35 56L36 56L36 57L38 57L38 56L39 56L39 55L40 55L40 56L45 56L45 57L46 57L46 55L42 55L42 54L43 54L43 53L44 53L44 54L45 54L45 53L44 53L44 49L43 49L43 48L45 48L45 49L47 49L47 48L46 48L46 47L47 47L47 46L46 46L46 45L47 45L47 44L48 44L48 45L49 45L49 47L50 47L50 48L48 48L48 51L47 51L47 50L45 50L45 52L48 52L48 53L47 53L47 57L49 57L49 56L48 56L48 55L49 55L49 53L50 53L50 55L51 55L51 56L50 56L50 57L52 57L52 56L54 56L54 57L56 57L56 56L55 56L55 53L54 53L54 52L55 52L55 51L56 51L56 52L57 52L57 51L56 51L56 50L57 50L57 49L56 49L56 50L55 50L55 49L54 49L54 48L57 48L57 47L56 47L56 46L57 46L57 43L56 43L56 46L55 46L55 45L54 45L54 44L55 44L55 42L57 42L57 41L55 41L55 39L57 39L57 37L54 37L54 36L56 36L56 35L55 35L55 34L57 34L57 32L56 32L56 30L57 30L57 28L56 28L56 30L55 30L55 29L54 29L54 28L55 28L55 27L56 27L56 26L57 26L57 25L56 25L56 24L55 24L55 23L56 23L56 22L57 22L57 21L51 21L51 22L50 22L50 19L51 19L51 20L55 20L55 19L53 19L53 18L54 18L54 17L53 17L53 18L52 18L52 19L51 19L51 18L50 18L50 19L47 19L47 18L46 18L46 16L45 16L45 15L49 15L49 16L50 16L50 15L51 15L51 14L52 14L52 13L51 13L51 14L50 14L50 15L49 15L49 13L50 13L50 11L51 11L51 10L53 10L53 11L52 11L52 12L53 12L53 11L54 11L54 12L55 12L55 13L56 13L56 14L54 14L54 15L52 15L52 16L55 16L55 18L57 18L57 17L56 17L56 16L57 16L57 15L56 15L56 14L57 14L57 13L56 13L56 12L57 12L57 11L56 11L56 10L57 10L57 9L56 9L56 8L55 8L55 11L54 11L54 10L53 10L53 9L54 9L54 8L53 8L53 9L52 9L52 8L51 8L51 10L49 10L49 9L50 9L50 8L49 8L49 6L48 6L48 7L47 7L47 5L48 5L48 0L44 0L44 1L43 1L43 0L42 0L42 1L41 1L41 2L39 2L39 1L38 1L38 0L35 0L35 1L34 1L34 0L32 0L32 1L34 1L34 2L31 2L31 3L29 3L29 2L30 2L30 1L31 1L31 0L30 0L30 1L29 1L29 0L28 0L28 1L27 1L27 2L26 2L26 0L24 0L24 1L23 1L23 0L21 0L21 2L19 2L19 1L18 1L18 2L17 2L17 1L16 1L16 0L14 0L14 1L15 1L15 2L14 2L14 3L12 3L12 2L11 2L11 0ZM12 0L12 1L13 1L13 0ZM22 1L22 2L21 2L21 3L20 3L20 4L17 4L17 3L16 3L16 4L15 4L15 3L14 3L14 4L15 4L15 5L14 5L14 6L13 6L13 4L12 4L12 3L11 3L11 2L10 2L10 3L11 3L11 4L12 4L12 6L11 6L11 10L12 10L12 9L13 9L13 11L14 11L14 12L13 12L13 13L14 13L14 14L13 14L13 15L11 15L11 16L10 16L10 14L8 14L8 16L9 16L9 17L10 17L10 18L8 18L8 17L6 17L6 16L7 16L7 15L5 15L5 14L3 14L3 15L4 15L4 17L3 17L3 16L2 16L2 17L3 17L3 18L2 18L2 19L1 19L1 22L2 22L2 24L3 24L3 22L5 22L5 23L4 23L4 24L5 24L5 25L6 25L6 26L8 26L8 25L10 25L10 24L11 24L11 25L14 25L14 26L13 26L13 27L15 27L15 26L17 26L17 27L18 27L18 26L17 26L17 23L20 23L20 22L19 22L19 21L23 21L23 22L21 22L21 23L22 23L22 25L21 25L21 24L20 24L20 27L19 27L19 29L20 29L20 31L19 31L19 30L17 30L17 29L18 29L18 28L17 28L17 29L16 29L16 30L17 30L17 31L16 31L16 32L18 32L18 31L19 31L19 33L16 33L16 35L18 35L18 36L16 36L16 37L13 37L13 40L12 40L12 41L11 41L11 42L10 42L10 44L9 44L9 46L7 46L7 45L8 45L8 44L7 44L7 43L9 43L9 41L10 41L10 40L8 40L8 42L7 42L7 41L6 41L6 40L7 40L7 39L5 39L5 41L3 41L3 40L2 40L2 41L1 41L1 42L2 42L2 44L1 44L1 47L2 47L2 45L3 45L3 44L4 44L4 43L5 43L5 41L6 41L6 42L7 42L7 43L6 43L6 44L5 44L5 45L4 45L4 46L3 46L3 47L5 47L5 45L6 45L6 46L7 46L7 47L9 47L9 48L10 48L10 47L11 47L11 46L12 46L12 48L11 48L11 51L10 51L10 52L9 52L9 54L10 54L10 52L12 52L12 53L13 53L13 54L12 54L12 55L14 55L14 56L15 56L15 55L16 55L16 56L17 56L17 55L20 55L20 54L19 54L19 53L21 53L21 54L22 54L22 55L23 55L23 54L24 54L24 53L23 53L23 52L24 52L24 51L25 51L25 53L26 53L26 50L23 50L23 49L24 49L24 46L23 46L23 45L25 45L25 49L26 49L26 46L27 46L27 47L29 47L29 48L30 48L30 47L29 47L29 45L30 45L30 46L31 46L31 47L33 47L33 48L31 48L31 50L32 50L32 49L33 49L33 48L34 48L34 50L35 50L35 51L36 51L36 52L37 52L37 51L38 51L38 50L39 50L39 52L40 52L40 55L41 55L41 54L42 54L42 53L41 53L41 52L42 52L42 51L43 51L43 50L41 50L41 48L43 48L43 47L45 47L45 43L46 43L46 42L47 42L47 43L48 43L48 44L49 44L49 43L48 43L48 42L47 42L47 41L48 41L48 40L49 40L49 41L51 41L51 42L50 42L50 43L51 43L51 44L50 44L50 47L51 47L51 48L54 48L54 47L55 47L55 46L54 46L54 45L51 45L51 44L53 44L53 43L54 43L54 41L52 41L52 40L49 40L49 39L52 39L52 38L53 38L53 37L51 37L51 38L49 38L49 39L48 39L48 38L47 38L47 37L50 37L50 36L49 36L49 35L51 35L51 36L52 36L52 34L54 34L54 33L56 33L56 32L53 32L53 31L54 31L54 30L53 30L53 31L51 31L51 32L50 32L50 31L48 31L48 28L47 28L47 27L48 27L48 26L47 26L47 25L49 25L49 24L51 24L51 25L50 25L50 26L51 26L51 25L53 25L53 27L55 27L55 26L54 26L54 25L55 25L55 24L54 24L54 23L53 23L53 22L52 22L52 23L53 23L53 24L51 24L51 23L50 23L50 22L49 22L49 23L48 23L48 24L47 24L47 25L45 25L45 24L43 24L43 25L44 25L44 27L43 27L43 26L42 26L42 27L40 27L40 28L39 28L39 27L38 27L38 26L39 26L39 25L38 25L38 24L40 24L40 25L42 25L42 24L40 24L40 23L41 23L41 22L42 22L42 23L44 23L44 21L45 21L45 22L46 22L46 23L47 23L47 21L48 21L48 20L47 20L47 19L46 19L46 18L45 18L45 16L44 16L44 14L42 14L42 11L43 11L43 12L44 12L44 13L45 13L45 12L46 12L46 14L47 14L47 13L49 13L49 12L48 12L48 11L49 11L49 10L48 10L48 11L47 11L47 9L49 9L49 8L47 8L47 7L46 7L46 5L47 5L47 3L40 3L40 5L41 5L41 8L40 8L40 6L39 6L39 4L38 4L38 6L37 6L37 5L36 5L36 3L38 3L38 1L37 1L37 2L35 2L35 3L32 3L32 4L31 4L31 7L32 7L32 6L33 6L33 7L34 7L34 8L32 8L32 9L31 9L31 10L29 10L29 9L26 9L26 6L25 6L25 4L26 4L26 3L25 3L25 2L23 2L23 1ZM42 1L42 2L43 2L43 1ZM44 1L44 2L47 2L47 1ZM18 2L18 3L19 3L19 2ZM24 3L24 4L21 4L21 5L22 5L22 8L24 8L24 7L25 7L25 6L24 6L24 7L23 7L23 5L24 5L24 4L25 4L25 3ZM27 3L27 4L29 4L29 3ZM16 4L16 5L15 5L15 6L14 6L14 8L13 8L13 6L12 6L12 8L13 8L13 9L14 9L14 10L15 10L15 11L18 11L18 9L19 9L19 13L18 13L18 12L15 12L15 15L16 15L16 17L14 17L14 15L13 15L13 16L11 16L11 19L12 19L12 17L14 17L14 18L13 18L13 19L14 19L14 20L13 20L13 21L15 21L15 22L16 22L16 21L15 21L15 20L16 20L16 19L17 19L17 20L18 20L18 21L17 21L17 22L18 22L18 21L19 21L19 20L18 20L18 19L19 19L19 18L18 18L18 19L17 19L17 18L16 18L16 17L19 17L19 16L20 16L20 17L21 17L21 18L20 18L20 19L21 19L21 18L22 18L22 17L21 17L21 16L22 16L22 14L21 14L21 16L20 16L20 14L19 14L19 13L22 13L22 12L20 12L20 11L22 11L22 9L21 9L21 10L20 10L20 9L19 9L19 6L20 6L20 7L21 7L21 6L20 6L20 5L19 5L19 6L18 6L18 5L17 5L17 4ZM33 4L33 5L34 5L34 7L35 7L35 8L34 8L34 9L35 9L35 10L34 10L34 11L31 11L31 12L30 12L30 11L29 11L29 10L26 10L26 11L27 11L27 12L25 12L25 13L24 13L24 11L25 11L25 9L24 9L24 11L23 11L23 13L24 13L24 14L25 14L25 15L24 15L24 17L23 17L23 18L24 18L24 19L23 19L23 21L24 21L24 22L23 22L23 23L24 23L24 24L23 24L23 25L22 25L22 27L20 27L20 29L21 29L21 31L20 31L20 33L21 33L21 34L20 34L20 35L19 35L19 34L18 34L18 35L19 35L19 36L18 36L18 37L16 37L16 38L14 38L14 39L16 39L16 40L17 40L17 41L18 41L18 42L16 42L16 43L18 43L18 42L19 42L19 45L18 45L18 44L15 44L15 46L13 46L13 45L14 45L14 43L15 43L15 42L14 42L14 41L12 41L12 42L14 42L14 43L13 43L13 44L12 44L12 43L11 43L11 44L10 44L10 46L11 46L11 45L12 45L12 46L13 46L13 48L12 48L12 52L13 52L13 51L15 51L15 52L16 52L16 51L17 51L17 50L18 50L18 53L17 53L17 54L18 54L18 53L19 53L19 52L21 52L21 53L22 53L22 54L23 54L23 53L22 53L22 52L21 52L21 50L22 50L22 49L21 49L21 50L20 50L20 49L19 49L19 48L20 48L20 47L19 47L19 45L22 45L22 44L20 44L20 40L19 40L19 39L20 39L20 38L18 38L18 37L20 37L20 36L24 36L24 37L21 37L21 38L24 38L24 37L26 37L26 35L27 35L27 33L30 33L30 32L27 32L27 33L26 33L26 32L25 32L25 31L31 31L31 30L32 30L32 27L33 27L33 26L34 26L34 28L33 28L33 29L37 29L37 30L36 30L36 31L35 31L35 30L33 30L33 31L32 31L32 32L31 32L31 35L30 35L30 34L29 34L29 35L30 35L30 36L29 36L29 37L28 37L28 36L27 36L27 37L28 37L28 38L25 38L25 41L21 41L21 43L22 43L22 42L24 42L24 43L23 43L23 44L25 44L25 45L26 45L26 44L25 44L25 42L26 42L26 43L27 43L27 44L28 44L28 45L27 45L27 46L28 46L28 45L29 45L29 44L30 44L30 43L31 43L31 44L34 44L34 43L35 43L35 44L36 44L36 45L35 45L35 46L33 46L33 45L32 45L32 46L33 46L33 47L35 47L35 48L36 48L36 49L37 49L37 50L36 50L36 51L37 51L37 50L38 50L38 48L36 48L36 47L40 47L40 48L39 48L39 50L40 50L40 48L41 48L41 47L42 47L42 46L44 46L44 44L43 44L43 43L42 43L42 42L43 42L43 41L44 41L44 40L43 40L43 37L44 37L44 38L45 38L45 39L46 39L46 38L45 38L45 37L44 37L44 35L43 35L43 36L42 36L42 37L41 37L41 38L42 38L42 39L41 39L41 40L43 40L43 41L40 41L40 42L38 42L38 41L37 41L37 40L40 40L40 38L39 38L39 39L37 39L37 38L38 38L38 37L40 37L40 36L41 36L41 35L42 35L42 34L44 34L44 33L42 33L42 34L38 34L38 33L40 33L40 32L41 32L41 31L42 31L42 32L45 32L45 33L47 33L47 34L45 34L45 36L46 36L46 37L47 37L47 36L48 36L48 33L47 33L47 32L48 32L48 31L47 31L47 30L46 30L46 29L47 29L47 28L46 28L46 27L47 27L47 26L46 26L46 27L45 27L45 29L44 29L44 28L43 28L43 27L42 27L42 28L43 28L43 29L42 29L42 30L41 30L41 31L40 31L40 32L36 32L36 31L37 31L37 30L38 30L38 29L37 29L37 28L38 28L38 27L37 27L37 26L38 26L38 25L37 25L37 24L35 24L35 23L33 23L33 21L32 21L32 20L34 20L34 21L35 21L35 20L34 20L34 19L35 19L35 18L34 18L34 17L35 17L35 16L36 16L36 19L37 19L37 20L36 20L36 21L37 21L37 22L36 22L36 23L40 23L40 22L41 22L41 21L42 21L42 22L43 22L43 20L45 20L45 19L44 19L44 18L43 18L43 17L44 17L44 16L43 16L43 15L42 15L42 14L41 14L41 13L40 13L40 12L41 12L41 10L43 10L43 9L44 9L44 8L45 8L45 9L47 9L47 8L46 8L46 7L45 7L45 6L44 6L44 7L43 7L43 4L41 4L41 5L42 5L42 8L41 8L41 10L38 10L38 9L37 9L37 8L38 8L38 7L39 7L39 6L38 6L38 7L37 7L37 6L36 6L36 5L34 5L34 4ZM44 4L44 5L46 5L46 4ZM8 5L8 7L9 7L9 5ZM27 5L27 8L30 8L30 5ZM15 6L15 8L14 8L14 9L15 9L15 10L17 10L17 9L18 9L18 8L16 8L16 6ZM17 6L17 7L18 7L18 6ZM28 6L28 7L29 7L29 6ZM35 6L35 7L36 7L36 8L37 8L37 7L36 7L36 6ZM15 8L15 9L16 9L16 8ZM42 8L42 9L43 9L43 8ZM32 9L32 10L33 10L33 9ZM37 10L37 11L36 11L36 12L35 12L35 11L34 11L34 12L35 12L35 13L33 13L33 12L32 12L32 13L33 13L33 14L32 14L32 15L33 15L33 14L37 14L37 15L36 15L36 16L37 16L37 17L38 17L38 18L37 18L37 19L38 19L38 22L39 22L39 20L40 20L40 21L41 21L41 20L40 20L40 19L38 19L38 18L41 18L41 19L43 19L43 18L41 18L41 16L42 16L42 17L43 17L43 16L42 16L42 15L41 15L41 14L40 14L40 13L39 13L39 12L38 12L38 14L37 14L37 13L36 13L36 12L37 12L37 11L38 11L38 10ZM10 11L10 12L11 12L11 14L12 14L12 11ZM55 11L55 12L56 12L56 11ZM4 12L4 13L5 13L5 12ZM28 12L28 13L26 13L26 16L25 16L25 17L26 17L26 18L25 18L25 19L26 19L26 20L27 20L27 21L25 21L25 22L26 22L26 23L25 23L25 24L26 24L26 25L25 25L25 26L23 26L23 27L24 27L24 28L23 28L23 29L22 29L22 28L21 28L21 29L22 29L22 31L21 31L21 33L22 33L22 34L21 34L21 35L23 35L23 32L24 32L24 31L23 31L23 29L25 29L25 30L26 30L26 27L25 27L25 26L26 26L26 25L27 25L27 24L28 24L28 26L30 26L30 25L32 25L32 26L33 26L33 24L32 24L32 23L31 23L31 22L30 22L30 19L31 19L31 18L29 18L29 17L32 17L32 19L34 19L34 18L33 18L33 16L30 16L30 13L29 13L29 12ZM6 13L6 14L7 14L7 13ZM16 13L16 15L17 15L17 16L19 16L19 15L18 15L18 13ZM28 13L28 14L27 14L27 15L29 15L29 13ZM0 14L0 15L1 15L1 14ZM39 14L39 16L38 16L38 17L39 17L39 16L41 16L41 15L40 15L40 14ZM34 15L34 16L35 16L35 15ZM26 16L26 17L28 17L28 16ZM47 16L47 17L48 17L48 18L49 18L49 17L48 17L48 16ZM4 18L4 19L2 19L2 21L4 21L4 20L5 20L5 18ZM6 18L6 19L7 19L7 18ZM27 18L27 20L29 20L29 19L28 19L28 18ZM9 19L9 20L6 20L6 21L5 21L5 22L6 22L6 23L5 23L5 24L6 24L6 25L8 25L8 24L10 24L10 23L7 23L7 22L8 22L8 21L9 21L9 22L11 22L11 24L12 24L12 23L13 23L13 24L14 24L14 25L15 25L15 24L16 24L16 23L15 23L15 24L14 24L14 23L13 23L13 22L11 22L11 21L12 21L12 20L10 20L10 19ZM6 21L6 22L7 22L7 21ZM27 21L27 22L28 22L28 24L29 24L29 25L30 25L30 24L31 24L31 23L30 23L30 22L29 22L29 21ZM6 23L6 24L7 24L7 23ZM29 23L29 24L30 24L30 23ZM34 24L34 26L36 26L36 25L35 25L35 24ZM53 24L53 25L54 25L54 24ZM5 27L5 30L8 30L8 27ZM9 27L9 29L10 29L10 28L11 28L11 27ZM27 27L27 30L30 30L30 27ZM49 27L49 30L52 30L52 27ZM6 28L6 29L7 29L7 28ZM14 28L14 29L11 29L11 30L9 30L9 31L11 31L11 30L12 30L12 33L11 33L11 32L10 32L10 34L9 34L9 32L8 32L8 31L6 31L6 32L5 32L5 31L2 31L2 30L1 30L1 31L2 31L2 33L4 33L4 34L3 34L3 35L5 35L5 36L9 36L9 39L10 39L10 38L12 38L12 36L14 36L14 35L15 35L15 33L13 33L13 31L14 31L14 30L15 30L15 28ZM28 28L28 29L29 29L29 28ZM50 28L50 29L51 29L51 28ZM39 29L39 30L40 30L40 29ZM42 30L42 31L46 31L46 32L47 32L47 31L46 31L46 30ZM34 31L34 32L32 32L32 38L31 38L31 36L30 36L30 38L31 38L31 39L29 39L29 40L28 40L28 39L27 39L27 40L28 40L28 41L26 41L26 42L27 42L27 43L28 43L28 44L29 44L29 43L30 43L30 41L29 41L29 40L31 40L31 41L33 41L33 42L32 42L32 43L34 43L34 42L35 42L35 43L36 43L36 44L37 44L37 45L36 45L36 46L40 46L40 47L41 47L41 46L42 46L42 45L43 45L43 44L40 44L40 43L41 43L41 42L40 42L40 43L38 43L38 42L36 42L36 41L33 41L33 40L37 40L37 39L36 39L36 38L37 38L37 37L38 37L38 36L40 36L40 35L38 35L38 34L37 34L37 35L35 35L35 36L34 36L34 37L33 37L33 34L36 34L36 32L35 32L35 31ZM4 32L4 33L5 33L5 34L6 34L6 35L7 35L7 34L8 34L8 35L9 35L9 34L8 34L8 33L7 33L7 32L6 32L6 33L5 33L5 32ZM51 32L51 33L50 33L50 34L51 34L51 33L53 33L53 32ZM6 33L6 34L7 34L7 33ZM12 33L12 34L13 34L13 33ZM25 33L25 34L24 34L24 36L25 36L25 34L26 34L26 33ZM46 35L46 36L47 36L47 35ZM36 36L36 37L37 37L37 36ZM6 37L6 38L7 38L7 37ZM17 38L17 39L18 39L18 38ZM33 38L33 39L31 39L31 40L33 40L33 39L34 39L34 38ZM54 38L54 39L55 39L55 38ZM21 39L21 40L22 40L22 39ZM23 39L23 40L24 40L24 39ZM45 40L45 41L47 41L47 40ZM37 43L37 44L38 44L38 45L39 45L39 44L38 44L38 43ZM6 44L6 45L7 45L7 44ZM16 45L16 46L15 46L15 48L13 48L13 49L14 49L14 50L15 50L15 51L16 51L16 50L17 50L17 49L15 49L15 48L17 48L17 47L18 47L18 45ZM40 45L40 46L41 46L41 45ZM16 46L16 47L17 47L17 46ZM21 46L21 48L23 48L23 47L22 47L22 46ZM51 46L51 47L52 47L52 46ZM18 49L18 50L19 50L19 49ZM27 49L27 52L30 52L30 49ZM49 49L49 52L52 52L52 49ZM28 50L28 51L29 51L29 50ZM50 50L50 51L51 51L51 50ZM53 50L53 51L54 51L54 50ZM31 51L31 52L32 52L32 51ZM40 51L40 52L41 52L41 51ZM14 53L14 55L15 55L15 54L16 54L16 53ZM29 53L29 54L30 54L30 53ZM36 53L36 54L37 54L37 53ZM38 53L38 55L39 55L39 53ZM53 53L53 54L51 54L51 55L53 55L53 54L54 54L54 53ZM27 55L27 56L28 56L28 55ZM36 55L36 56L37 56L37 55ZM0 0L0 7L7 7L7 0ZM1 1L1 6L6 6L6 1ZM2 2L2 5L5 5L5 2ZM50 0L50 7L57 7L57 0ZM51 1L51 6L56 6L56 1ZM52 2L52 5L55 5L55 2ZM0 50L0 57L7 57L7 50ZM1 51L1 56L6 56L6 51ZM2 52L2 55L5 55L5 52Z" fill="#000000"/></g></g></svg>
