<?xml version="1.0" encoding="UTF-8"?>
<svg xmlns="http://www.w3.org/2000/svg" version="1.1" width="300" height="300" viewBox="0 0 300 300"><rect x="0" y="0" width="300" height="300" fill="#ffffff"/><g transform="scale(4.918)"><g transform="translate(2,2)"><path fill-rule="evenodd" d="M10 0L10 3L8 3L8 4L10 4L10 5L8 5L8 7L9 7L9 8L6 8L6 9L7 9L7 10L5 10L5 8L0 8L0 9L3 9L3 10L5 10L5 12L4 12L4 11L2 11L2 12L0 12L0 15L3 15L3 16L2 16L2 17L1 17L1 19L0 19L0 21L2 21L2 23L1 23L1 22L0 22L0 24L1 24L1 25L0 25L0 26L1 26L1 27L0 27L0 28L3 28L3 29L1 29L1 30L2 30L2 31L0 31L0 32L1 32L1 38L0 38L0 39L1 39L1 41L0 41L0 42L2 42L2 41L3 41L3 39L1 39L1 38L3 38L3 36L4 36L4 37L5 37L5 38L4 38L4 39L5 39L5 41L7 41L7 40L6 40L6 39L7 39L7 38L9 38L9 37L8 37L8 36L9 36L9 35L10 35L10 34L11 34L11 33L10 33L10 32L12 32L12 31L13 31L13 32L14 32L14 33L12 33L12 35L11 35L11 36L10 36L10 37L12 37L12 38L13 38L13 37L14 37L14 38L16 38L16 37L15 37L15 36L17 36L17 37L19 37L19 38L20 38L20 39L17 39L17 40L16 40L16 39L15 39L15 40L16 40L16 41L14 41L14 39L13 39L13 40L12 40L12 39L10 39L10 42L9 42L9 41L8 41L8 42L9 42L9 43L8 43L8 44L11 44L11 45L9 45L9 47L10 47L10 46L12 46L12 47L11 47L11 48L9 48L9 49L8 49L8 45L7 45L7 44L4 44L4 43L7 43L7 42L4 42L4 43L2 43L2 44L0 44L0 48L5 48L5 47L7 47L7 48L6 48L6 49L8 49L8 51L9 51L9 52L8 52L8 57L10 57L10 53L11 53L11 54L13 54L13 55L14 55L14 56L13 56L13 57L14 57L14 56L15 56L15 55L16 55L16 56L17 56L17 57L20 57L20 56L18 56L18 55L20 55L20 54L17 54L17 53L20 53L20 52L21 52L21 53L22 53L22 54L21 54L21 56L23 56L23 57L26 57L26 56L28 56L28 55L27 55L27 53L28 53L28 54L30 54L30 53L31 53L31 56L30 56L30 55L29 55L29 56L30 56L30 57L31 57L31 56L34 56L34 57L39 57L39 56L34 56L34 54L32 54L32 52L34 52L34 53L37 53L37 54L36 54L36 55L37 55L37 54L38 54L38 55L40 55L40 56L42 56L42 57L44 57L44 56L45 56L45 57L46 57L46 55L44 55L44 56L43 56L43 53L44 53L44 54L45 54L45 53L44 53L44 51L42 51L42 50L43 50L43 49L44 49L44 48L45 48L45 50L46 50L46 51L45 51L45 52L48 52L48 53L47 53L47 54L48 54L48 55L47 55L47 56L49 56L49 54L48 54L48 53L50 53L50 55L51 55L51 56L50 56L50 57L52 57L52 56L55 56L55 57L56 57L56 56L55 56L55 54L54 54L54 55L51 55L51 54L53 54L53 53L54 53L54 52L55 52L55 51L56 51L56 52L57 52L57 51L56 51L56 50L57 50L57 49L56 49L56 50L55 50L55 49L53 49L53 48L57 48L57 47L56 47L56 46L57 46L57 45L56 45L56 46L55 46L55 45L54 45L54 44L56 44L56 41L55 41L55 39L57 39L57 37L54 37L54 36L56 36L56 35L55 35L55 34L57 34L57 32L56 32L56 30L57 30L57 29L56 29L56 28L57 28L57 27L56 27L56 26L57 26L57 25L55 25L55 24L57 24L57 23L56 23L56 22L57 22L57 21L51 21L51 22L50 22L50 16L49 16L49 17L48 17L48 16L46 16L46 15L49 15L49 13L50 13L50 11L52 11L52 12L53 12L53 11L54 11L54 12L55 12L55 11L56 11L56 12L57 12L57 11L56 11L56 10L55 10L55 11L54 11L54 10L53 10L53 11L52 11L52 10L49 10L49 9L50 9L50 8L49 8L49 6L48 6L48 7L47 7L47 5L48 5L48 0L45 0L45 1L47 1L47 2L43 2L43 3L41 3L41 2L42 2L42 1L44 1L44 0L42 0L42 1L41 1L41 2L39 2L39 1L40 1L40 0L39 0L39 1L38 1L38 0L37 0L37 1L36 1L36 2L37 2L37 1L38 1L38 3L36 3L36 5L33 5L33 6L32 6L32 7L33 7L33 6L34 6L34 7L35 7L35 9L36 9L36 10L37 10L37 12L34 12L34 11L35 11L35 10L32 10L32 9L31 9L31 4L32 4L32 3L34 3L34 4L35 4L35 3L34 3L34 2L35 2L35 1L34 1L34 0L33 0L33 1L32 1L32 0L28 0L28 1L26 1L26 0L24 0L24 1L23 1L23 0L21 0L21 1L23 1L23 2L25 2L25 1L26 1L26 2L28 2L28 3L27 3L27 4L26 4L26 3L23 3L23 4L22 4L22 3L21 3L21 2L19 2L19 1L16 1L16 0L14 0L14 1L15 1L15 2L14 2L14 3L12 3L12 1L13 1L13 0ZM8 1L8 2L9 2L9 1ZM28 1L28 2L29 2L29 3L28 3L28 4L29 4L29 3L30 3L30 2L32 2L32 1ZM33 1L33 2L34 2L34 1ZM17 2L17 3L14 3L14 4L16 4L16 5L10 5L10 6L9 6L9 7L10 7L10 6L11 6L11 9L13 9L13 8L14 8L14 10L17 10L17 11L18 11L18 10L17 10L17 9L15 9L15 8L14 8L14 6L15 6L15 7L16 7L16 8L17 8L17 7L18 7L18 8L19 8L19 7L20 7L20 5L19 5L19 4L21 4L21 8L22 8L22 9L20 9L20 10L19 10L19 12L21 12L21 13L19 13L19 15L18 15L18 14L17 14L17 13L18 13L18 12L17 12L17 13L16 13L16 15L15 15L15 13L13 13L13 14L12 14L12 13L11 13L11 11L9 11L9 13L8 13L8 12L7 12L7 11L6 11L6 12L5 12L5 13L3 13L3 15L4 15L4 17L3 17L3 19L2 19L2 20L3 20L3 23L4 23L4 25L3 25L3 24L2 24L2 27L4 27L4 25L5 25L5 23L6 23L6 24L8 24L8 25L6 25L6 26L9 26L9 27L11 27L11 28L10 28L10 29L9 29L9 30L10 30L10 31L11 31L11 30L12 30L12 28L13 28L13 29L14 29L14 30L13 30L13 31L14 31L14 32L15 32L15 31L14 31L14 30L15 30L15 29L14 29L14 28L13 28L13 27L14 27L14 23L15 23L15 24L16 24L16 25L15 25L15 26L16 26L16 28L18 28L18 29L16 29L16 30L17 30L17 31L16 31L16 32L18 32L18 31L19 31L19 33L16 33L16 35L18 35L18 34L19 34L19 35L20 35L20 34L21 34L21 33L22 33L22 35L23 35L23 32L24 32L24 31L23 31L23 30L24 30L24 29L25 29L25 30L26 30L26 27L25 27L25 28L24 28L24 27L23 27L23 26L22 26L22 25L23 25L23 23L24 23L24 25L25 25L25 26L26 26L26 25L27 25L27 26L30 26L30 25L31 25L31 27L33 27L33 28L32 28L32 29L33 29L33 30L35 30L35 31L33 31L33 32L31 32L31 31L32 31L32 30L31 30L31 31L30 31L30 32L29 32L29 33L27 33L27 31L25 31L25 34L24 34L24 36L26 36L26 35L27 35L27 37L25 37L25 38L27 38L27 39L25 39L25 40L24 40L24 39L23 39L23 38L24 38L24 37L23 37L23 36L19 36L19 37L23 37L23 38L21 38L21 40L20 40L20 42L19 42L19 41L16 41L16 42L15 42L15 44L14 44L14 45L13 45L13 46L14 46L14 45L15 45L15 44L17 44L17 45L16 45L16 46L17 46L17 47L16 47L16 48L17 48L17 47L18 47L18 46L17 46L17 45L18 45L18 44L17 44L17 43L18 43L18 42L19 42L19 44L21 44L21 45L19 45L19 46L21 46L21 45L22 45L22 47L23 47L23 48L21 48L21 47L20 47L20 48L19 48L19 49L18 49L18 50L19 50L19 49L20 49L20 50L21 50L21 51L22 51L22 53L24 53L24 54L22 54L22 55L24 55L24 56L26 56L26 54L25 54L25 53L26 53L26 50L23 50L23 49L24 49L24 48L26 48L26 46L27 46L27 45L28 45L28 46L29 46L29 45L30 45L30 46L31 46L31 48L32 48L32 49L33 49L33 50L31 50L31 52L32 52L32 51L33 51L33 50L35 50L35 51L34 51L34 52L36 52L36 50L35 50L35 49L36 49L36 48L37 48L37 47L38 47L38 48L40 48L40 51L39 51L39 52L40 52L40 55L42 55L42 54L41 54L41 52L40 52L40 51L41 51L41 50L42 50L42 49L41 49L41 48L40 48L40 47L41 47L41 46L42 46L42 47L43 47L43 48L44 48L44 47L45 47L45 48L46 48L46 50L47 50L47 51L48 51L48 48L49 48L49 47L51 47L51 46L53 46L53 45L51 45L51 44L53 44L53 43L54 43L54 41L52 41L52 40L51 40L51 38L52 38L52 39L53 39L53 36L52 36L52 34L54 34L54 33L56 33L56 32L54 32L54 31L51 31L51 32L50 32L50 31L48 31L48 27L46 27L46 26L47 26L47 25L50 25L50 26L51 26L51 25L53 25L53 27L55 27L55 28L54 28L54 29L55 29L55 30L56 30L56 29L55 29L55 28L56 28L56 27L55 27L55 26L54 26L54 25L53 25L53 24L51 24L51 23L50 23L50 22L49 22L49 23L48 23L48 24L47 24L47 21L48 21L48 20L49 20L49 18L48 18L48 19L46 19L46 18L47 18L47 17L46 17L46 16L42 16L42 17L41 17L41 16L39 16L39 15L36 15L36 16L35 16L35 15L33 15L33 14L39 14L39 13L40 13L40 15L41 15L41 14L42 14L42 15L45 15L45 12L46 12L46 14L47 14L47 13L49 13L49 12L48 12L48 11L49 11L49 10L48 10L48 11L46 11L46 10L47 10L47 9L49 9L49 8L46 8L46 10L45 10L45 8L44 8L44 6L45 6L45 7L46 7L46 5L47 5L47 3L43 3L43 7L42 7L42 5L41 5L41 3L40 3L40 5L41 5L41 8L40 8L40 6L39 6L39 7L38 7L38 6L37 6L37 5L39 5L39 3L38 3L38 4L37 4L37 5L36 5L36 6L35 6L35 7L36 7L36 8L37 8L37 9L38 9L38 11L39 11L39 9L38 9L38 8L40 8L40 9L43 9L43 11L45 11L45 12L44 12L44 13L43 13L43 14L42 14L42 10L41 10L41 11L40 11L40 12L38 12L38 13L33 13L33 12L31 12L31 11L30 11L30 10L29 10L29 9L28 9L28 11L30 11L30 12L28 12L28 13L26 13L26 16L25 16L25 17L26 17L26 18L25 18L25 19L26 19L26 20L25 20L25 21L24 21L24 20L22 20L22 19L24 19L24 18L23 18L23 17L24 17L24 16L23 16L23 15L25 15L25 14L23 14L23 13L25 13L25 12L27 12L27 11L26 11L26 10L27 10L27 9L25 9L25 8L26 8L26 4L25 4L25 8L24 8L24 6L23 6L23 5L24 5L24 4L23 4L23 5L22 5L22 4L21 4L21 3L19 3L19 2ZM10 3L10 4L12 4L12 3ZM17 3L17 4L19 4L19 3ZM44 4L44 5L46 5L46 4ZM18 5L18 7L19 7L19 5ZM27 5L27 8L30 8L30 5ZM12 6L12 7L13 7L13 6ZM16 6L16 7L17 7L17 6ZM22 6L22 7L23 7L23 6ZM28 6L28 7L29 7L29 6ZM36 6L36 7L37 7L37 6ZM9 8L9 9L8 9L8 10L10 10L10 8ZM43 8L43 9L44 9L44 8ZM51 8L51 9L52 9L52 8ZM53 8L53 9L54 9L54 8ZM55 8L55 9L56 9L56 8ZM22 9L22 11L21 11L21 10L20 10L20 11L21 11L21 12L22 12L22 13L21 13L21 14L20 14L20 15L19 15L19 16L17 16L17 15L16 15L16 17L15 17L15 21L16 21L16 22L15 22L15 23L16 23L16 24L17 24L17 25L18 25L18 26L17 26L17 27L18 27L18 26L19 26L19 25L22 25L22 23L21 23L21 24L19 24L19 23L20 23L20 22L18 22L18 21L20 21L20 20L19 20L19 18L18 18L18 19L17 19L17 18L16 18L16 17L19 17L19 16L20 16L20 17L21 17L21 18L20 18L20 19L22 19L22 17L21 17L21 16L22 16L22 13L23 13L23 11L25 11L25 9ZM0 10L0 11L1 11L1 10ZM12 10L12 12L14 12L14 11L13 11L13 10ZM15 11L15 12L16 12L16 11ZM6 12L6 13L7 13L7 14L5 14L5 16L6 16L6 17L7 17L7 18L5 18L5 17L4 17L4 19L3 19L3 20L5 20L5 21L7 21L7 22L6 22L6 23L7 23L7 22L9 22L9 26L10 26L10 25L12 25L12 27L13 27L13 23L14 23L14 21L12 21L12 22L11 22L11 21L10 21L10 20L14 20L14 19L10 19L10 18L11 18L11 17L14 17L14 14L13 14L13 15L12 15L12 14L11 14L11 15L10 15L10 13L9 13L9 14L8 14L8 13L7 13L7 12ZM1 13L1 14L2 14L2 13ZM28 13L28 14L27 14L27 16L26 16L26 17L27 17L27 18L28 18L28 20L27 20L27 21L25 21L25 22L26 22L26 23L25 23L25 24L27 24L27 25L28 25L28 24L31 24L31 25L32 25L32 26L33 26L33 25L32 25L32 24L33 24L33 22L34 22L34 23L35 23L35 26L34 26L34 28L33 28L33 29L36 29L36 30L37 30L37 31L40 31L40 32L38 32L38 33L39 33L39 34L36 34L36 33L37 33L37 32L36 32L36 31L35 31L35 32L36 32L36 33L35 33L35 34L33 34L33 35L37 35L37 36L36 36L36 37L35 37L35 36L34 36L34 37L35 37L35 38L36 38L36 39L32 39L32 40L33 40L33 41L34 41L34 40L36 40L36 41L35 41L35 42L32 42L32 41L31 41L31 40L30 40L30 41L29 41L29 40L28 40L28 39L27 39L27 41L26 41L26 42L27 42L27 43L26 43L26 44L25 44L25 41L23 41L23 42L22 42L22 43L21 43L21 42L20 42L20 43L21 43L21 44L22 44L22 45L24 45L24 46L23 46L23 47L25 47L25 45L26 45L26 44L27 44L27 43L29 43L29 44L28 44L28 45L29 45L29 44L30 44L30 45L32 45L32 48L33 48L33 47L35 47L35 48L36 48L36 47L37 47L37 46L38 46L38 44L36 44L36 43L35 43L35 42L36 42L36 41L37 41L37 42L38 42L38 43L39 43L39 42L38 42L38 41L40 41L40 40L41 40L41 39L40 39L40 38L38 38L38 37L40 37L40 36L41 36L41 38L43 38L43 37L44 37L44 38L45 38L45 39L42 39L42 40L45 40L45 41L41 41L41 42L45 42L45 41L47 41L47 42L46 42L46 43L45 43L45 47L47 47L47 46L48 46L48 45L47 45L47 44L48 44L48 43L49 43L49 46L50 46L50 44L51 44L51 43L50 43L50 42L51 42L51 41L49 41L49 40L50 40L50 38L51 38L51 37L52 37L52 36L51 36L51 35L49 35L49 34L48 34L48 33L47 33L47 34L46 34L46 33L43 33L43 32L46 32L46 31L47 31L47 32L48 32L48 31L47 31L47 30L46 30L46 29L47 29L47 28L46 28L46 27L45 27L45 30L46 30L46 31L44 31L44 30L43 30L43 29L44 29L44 27L43 27L43 26L44 26L44 24L46 24L46 22L45 22L45 21L44 21L44 23L43 23L43 20L45 20L45 19L44 19L44 18L46 18L46 17L44 17L44 18L43 18L43 17L42 17L42 18L41 18L41 17L40 17L40 18L38 18L38 17L39 17L39 16L38 16L38 17L37 17L37 16L36 16L36 17L35 17L35 18L33 18L33 17L34 17L34 16L33 16L33 15L31 15L31 14L32 14L32 13L31 13L31 14L30 14L30 13ZM51 13L51 14L50 14L50 15L51 15L51 14L52 14L52 13ZM56 13L56 14L54 14L54 16L53 16L53 15L52 15L52 16L51 16L51 17L52 17L52 16L53 16L53 18L51 18L51 20L56 20L56 19L53 19L53 18L54 18L54 16L55 16L55 18L57 18L57 17L56 17L56 16L57 16L57 15L56 15L56 14L57 14L57 13ZM29 14L29 15L28 15L28 16L27 16L27 17L28 17L28 16L29 16L29 17L33 17L33 16L30 16L30 14ZM6 15L6 16L7 16L7 17L8 17L8 16L9 16L9 18L7 18L7 19L5 19L5 20L7 20L7 19L8 19L8 20L9 20L9 18L10 18L10 17L11 17L11 16L9 16L9 15ZM20 15L20 16L21 16L21 15ZM29 18L29 20L28 20L28 22L29 22L29 23L31 23L31 22L29 22L29 20L30 20L30 21L31 21L31 20L30 20L30 19L33 19L33 20L32 20L32 21L33 21L33 20L34 20L34 19L33 19L33 18ZM37 18L37 19L35 19L35 21L34 21L34 22L35 22L35 23L36 23L36 24L37 24L37 23L36 23L36 22L39 22L39 20L40 20L40 21L41 21L41 20L40 20L40 19L41 19L41 18L40 18L40 19L38 19L38 18ZM42 18L42 19L43 19L43 18ZM16 19L16 21L18 21L18 20L17 20L17 19ZM36 20L36 21L38 21L38 20ZM9 21L9 22L10 22L10 24L12 24L12 23L11 23L11 22L10 22L10 21ZM21 21L21 22L24 22L24 21ZM17 22L17 23L18 23L18 22ZM40 22L40 23L38 23L38 24L39 24L39 25L37 25L37 26L39 26L39 25L40 25L40 26L41 26L41 28L40 28L40 27L38 27L38 28L37 28L37 27L36 27L36 28L37 28L37 30L39 30L39 29L40 29L40 31L41 31L41 32L40 32L40 33L41 33L41 34L40 34L40 35L38 35L38 36L37 36L37 37L36 37L36 38L37 38L37 37L38 37L38 36L40 36L40 35L41 35L41 34L42 34L42 35L44 35L44 37L45 37L45 38L46 38L46 39L47 39L47 41L48 41L48 40L49 40L49 39L48 39L48 38L49 38L49 37L51 37L51 36L49 36L49 35L46 35L46 34L42 34L42 33L41 33L41 32L42 32L42 31L43 31L43 30L42 30L42 29L43 29L43 28L42 28L42 26L41 26L41 24L42 24L42 25L43 25L43 24L42 24L42 23L41 23L41 22ZM52 22L52 23L55 23L55 22ZM27 23L27 24L28 24L28 23ZM40 23L40 24L41 24L41 23ZM49 23L49 24L50 24L50 25L51 25L51 24L50 24L50 23ZM21 26L21 27L22 27L22 26ZM5 27L5 30L8 30L8 27ZM27 27L27 30L30 30L30 27ZM49 27L49 30L52 30L52 27ZM6 28L6 29L7 29L7 28ZM19 28L19 29L18 29L18 30L19 30L19 29L22 29L22 28ZM23 28L23 29L24 29L24 28ZM28 28L28 29L29 29L29 28ZM38 28L38 29L39 29L39 28ZM50 28L50 29L51 29L51 28ZM3 29L3 31L2 31L2 32L3 32L3 31L4 31L4 32L5 32L5 34L8 34L8 35L9 35L9 34L10 34L10 33L9 33L9 32L8 32L8 31L4 31L4 29ZM20 30L20 31L22 31L22 30ZM41 30L41 31L42 31L42 30ZM6 32L6 33L7 33L7 32ZM20 32L20 33L21 33L21 32ZM30 32L30 33L29 33L29 34L30 34L30 35L29 35L29 39L31 39L31 38L32 38L32 34L31 34L31 32ZM33 32L33 33L34 33L34 32ZM51 32L51 33L50 33L50 34L51 34L51 33L54 33L54 32ZM2 33L2 36L3 36L3 35L4 35L4 34L3 34L3 33ZM8 33L8 34L9 34L9 33ZM26 33L26 34L25 34L25 35L26 35L26 34L27 34L27 33ZM13 34L13 36L15 36L15 35L14 35L14 34ZM5 35L5 36L7 36L7 35ZM45 35L45 36L46 36L46 37L47 37L47 38L48 38L48 37L49 37L49 36L48 36L48 37L47 37L47 36L46 36L46 35ZM30 36L30 38L31 38L31 36ZM42 36L42 37L43 37L43 36ZM6 37L6 38L5 38L5 39L6 39L6 38L7 38L7 37ZM27 37L27 38L28 38L28 37ZM54 38L54 39L55 39L55 38ZM22 39L22 40L23 40L23 39ZM36 39L36 40L37 40L37 39ZM38 39L38 40L40 40L40 39ZM11 40L11 42L12 42L12 40ZM13 41L13 42L14 42L14 41ZM27 41L27 42L29 42L29 43L30 43L30 44L32 44L32 45L33 45L33 46L35 46L35 47L36 47L36 46L37 46L37 45L35 45L35 43L34 43L34 44L33 44L33 43L30 43L30 42L31 42L31 41L30 41L30 42L29 42L29 41ZM16 42L16 43L17 43L17 42ZM47 42L47 43L48 43L48 42ZM11 43L11 44L13 44L13 43ZM23 43L23 44L24 44L24 45L25 45L25 44L24 44L24 43ZM40 43L40 44L39 44L39 45L40 45L40 46L39 46L39 47L40 47L40 46L41 46L41 45L40 45L40 44L43 44L43 45L42 45L42 46L44 46L44 44L43 44L43 43ZM3 44L3 45L1 45L1 47L2 47L2 46L3 46L3 47L5 47L5 46L7 46L7 45L4 45L4 44ZM3 45L3 46L4 46L4 45ZM46 45L46 46L47 46L47 45ZM54 46L54 47L55 47L55 46ZM13 47L13 49L12 49L12 51L13 51L13 54L14 54L14 55L15 55L15 54L16 54L16 53L17 53L17 52L18 52L18 51L16 51L16 50L17 50L17 49L15 49L15 50L13 50L13 49L14 49L14 47ZM27 47L27 48L29 48L29 47ZM52 47L52 48L53 48L53 47ZM9 49L9 50L10 50L10 51L11 51L11 50L10 50L10 49ZM21 49L21 50L22 50L22 49ZM27 49L27 52L30 52L30 49ZM37 49L37 50L39 50L39 49ZM49 49L49 52L52 52L52 49ZM28 50L28 51L29 51L29 50ZM50 50L50 51L51 51L51 50ZM53 50L53 51L54 51L54 50ZM14 51L14 54L15 54L15 53L16 53L16 51ZM24 51L24 53L25 53L25 51ZM37 51L37 53L38 53L38 54L39 54L39 53L38 53L38 51ZM9 52L9 53L10 53L10 52ZM42 52L42 53L43 53L43 52ZM11 55L11 56L12 56L12 55ZM0 0L0 7L7 7L7 0ZM1 1L1 6L6 6L6 1ZM2 2L2 5L5 5L5 2ZM50 0L50 7L57 7L57 0ZM51 1L51 6L56 6L56 1ZM52 2L52 5L55 5L55 2ZM0 50L0 57L7 57L7 50ZM1 51L1 56L6 56L6 51ZM2 52L2 55L5 55L5 52Z" fill="#000000"/></g></g></svg>
