<?xml version="1.0" encoding="UTF-8"?>
<svg xmlns="http://www.w3.org/2000/svg" version="1.1" width="300" height="300" viewBox="0 0 300 300"><rect x="0" y="0" width="300" height="300" fill="#ffffff"/><g transform="scale(4.918)"><g transform="translate(2,2)"><path fill-rule="evenodd" d="M9 0L9 1L8 1L8 2L9 2L9 3L8 3L8 4L11 4L11 3L13 3L13 2L12 2L12 1L13 1L13 0L12 0L12 1L11 1L11 2L9 2L9 1L10 1L10 0ZM14 0L14 1L15 1L15 2L14 2L14 3L15 3L15 4L14 4L14 5L13 5L13 4L12 4L12 7L11 7L11 5L8 5L8 7L9 7L9 6L10 6L10 7L11 7L11 8L6 8L6 9L5 9L5 8L0 8L0 10L1 10L1 11L0 11L0 14L1 14L1 13L2 13L2 11L4 11L4 10L6 10L6 11L7 11L7 10L6 10L6 9L8 9L8 10L10 10L10 11L9 11L9 12L8 12L8 13L7 13L7 12L6 12L6 13L7 13L7 14L5 14L5 12L3 12L3 14L4 14L4 15L5 15L5 16L3 16L3 17L1 17L1 18L3 18L3 19L5 19L5 20L4 20L4 21L3 21L3 20L2 20L2 19L1 19L1 20L0 20L0 21L2 21L2 22L4 22L4 21L5 21L5 22L6 22L6 23L5 23L5 24L4 24L4 23L3 23L3 27L2 27L2 28L3 28L3 27L4 27L4 29L3 29L3 30L2 30L2 29L0 29L0 31L1 31L1 30L2 30L2 32L4 32L4 33L5 33L5 34L6 34L6 35L7 35L7 34L6 34L6 33L8 33L8 34L9 34L9 36L6 36L6 37L9 37L9 39L10 39L10 40L9 40L9 41L10 41L10 40L13 40L13 39L12 39L12 37L13 37L13 36L12 36L12 35L13 35L13 33L14 33L14 34L15 34L15 30L13 30L13 31L14 31L14 32L12 32L12 31L10 31L10 30L12 30L12 29L10 29L10 30L9 30L9 26L11 26L11 25L12 25L12 26L13 26L13 24L14 24L14 25L15 25L15 24L16 24L16 23L15 23L15 22L16 22L16 21L15 21L15 20L16 20L16 19L17 19L17 18L16 18L16 19L15 19L15 17L17 17L17 16L15 16L15 17L12 17L12 16L10 16L10 17L8 17L8 15L9 15L9 14L10 14L10 15L13 15L13 16L14 16L14 13L13 13L13 14L11 14L11 13L12 13L12 12L11 12L11 11L12 11L12 10L10 10L10 9L13 9L13 10L14 10L14 8L12 8L12 7L13 7L13 6L14 6L14 7L15 7L15 6L16 6L16 8L18 8L18 9L17 9L17 10L15 10L15 15L16 15L16 13L18 13L18 15L21 15L21 16L22 16L22 14L19 14L19 13L22 13L22 12L20 12L20 11L22 11L22 9L21 9L21 8L20 8L20 9L19 9L19 8L18 8L18 7L19 7L19 6L20 6L20 7L21 7L21 6L22 6L22 8L24 8L24 9L23 9L23 10L25 10L25 8L24 8L24 7L25 7L25 6L26 6L26 9L27 9L27 10L26 10L26 11L27 11L27 12L25 12L25 11L24 11L24 12L23 12L23 13L24 13L24 15L23 15L23 16L24 16L24 17L23 17L23 18L24 18L24 19L23 19L23 21L22 21L22 20L21 20L21 18L22 18L22 17L21 17L21 18L20 18L20 17L19 17L19 16L18 16L18 17L19 17L19 18L18 18L18 19L19 19L19 20L18 20L18 21L17 21L17 22L18 22L18 21L19 21L19 22L20 22L20 23L17 23L17 25L18 25L18 27L17 27L17 26L16 26L16 27L17 27L17 28L15 28L15 29L17 29L17 31L18 31L18 33L19 33L19 34L18 34L18 35L20 35L20 33L19 33L19 32L20 32L20 31L18 31L18 30L20 30L20 29L21 29L21 31L22 31L22 32L23 32L23 35L22 35L22 33L21 33L21 35L22 35L22 36L21 36L21 37L22 37L22 38L24 38L24 37L25 37L25 36L27 36L27 37L26 37L26 38L25 38L25 40L24 40L24 39L23 39L23 40L24 40L24 41L22 41L22 42L20 42L20 41L21 41L21 40L22 40L22 39L21 39L21 40L20 40L20 41L19 41L19 40L17 40L17 37L20 37L20 36L17 36L17 37L16 37L16 35L15 35L15 37L14 37L14 40L15 40L15 41L18 41L18 42L17 42L17 43L15 43L15 42L14 42L14 41L13 41L13 42L11 42L11 43L10 43L10 42L8 42L8 43L7 43L7 42L5 42L5 41L7 41L7 40L5 40L5 39L4 39L4 40L3 40L3 41L2 41L2 38L4 38L4 36L5 36L5 35L3 35L3 34L0 34L0 35L3 35L3 36L2 36L2 38L1 38L1 37L0 37L0 43L1 43L1 44L0 44L0 48L5 48L5 47L9 47L9 49L8 49L8 48L6 48L6 49L8 49L8 51L9 51L9 52L8 52L8 57L11 57L11 56L12 56L12 55L13 55L13 57L14 57L14 56L15 56L15 57L16 57L16 55L15 55L15 54L16 54L16 53L15 53L15 52L17 52L17 51L18 51L18 53L17 53L17 54L18 54L18 55L17 55L17 57L19 57L19 56L20 56L20 57L21 57L21 55L22 55L22 54L23 54L23 55L24 55L24 57L26 57L26 56L28 56L28 55L26 55L26 54L27 54L27 53L28 53L28 54L29 54L29 55L30 55L30 57L32 57L32 56L33 56L33 57L37 57L37 55L38 55L38 56L39 56L39 55L40 55L40 52L41 52L41 51L40 51L40 52L39 52L39 50L43 50L43 52L42 52L42 53L41 53L41 54L42 54L42 55L41 55L41 57L42 57L42 56L43 56L43 57L44 57L44 56L45 56L45 57L47 57L47 55L48 55L48 57L49 57L49 55L50 55L50 53L51 53L51 54L53 54L53 52L55 52L55 51L53 51L53 50L54 50L54 49L53 49L53 48L55 48L55 50L57 50L57 48L55 48L55 47L53 47L53 48L52 48L52 47L49 47L49 48L48 48L48 51L47 51L47 50L45 50L45 51L47 51L47 52L48 52L48 53L47 53L47 55L46 55L46 54L45 54L45 53L44 53L44 50L43 50L43 48L45 48L45 49L47 49L47 48L46 48L46 47L47 47L47 46L46 46L46 45L47 45L47 44L48 44L48 45L49 45L49 44L52 44L52 45L50 45L50 46L52 46L52 45L54 45L54 46L55 46L55 45L56 45L56 46L57 46L57 45L56 45L56 44L57 44L57 43L56 43L56 42L57 42L57 41L55 41L55 39L57 39L57 35L56 35L56 37L55 37L55 38L53 38L53 39L52 39L52 38L51 38L51 37L53 37L53 36L55 36L55 35L54 35L54 34L55 34L55 33L54 33L54 32L55 32L55 31L56 31L56 32L57 32L57 31L56 31L56 30L57 30L57 29L54 29L54 28L55 28L55 27L53 27L53 26L49 26L49 25L50 25L50 24L49 24L49 25L47 25L47 26L46 26L46 27L45 27L45 26L44 26L44 25L43 25L43 20L45 20L45 19L42 19L42 21L41 21L41 22L42 22L42 23L41 23L41 24L42 24L42 26L41 26L41 27L42 27L42 28L43 28L43 29L42 29L42 30L41 30L41 29L40 29L40 30L41 30L41 31L40 31L40 32L39 32L39 33L40 33L40 34L41 34L41 35L40 35L40 36L39 36L39 38L38 38L38 37L37 37L37 36L38 36L38 35L39 35L39 34L38 34L38 33L37 33L37 32L38 32L38 31L39 31L39 30L37 30L37 29L38 29L38 28L36 28L36 25L37 25L37 27L38 27L38 25L39 25L39 26L40 26L40 25L39 25L39 24L40 24L40 22L38 22L38 21L40 21L40 20L41 20L41 19L40 19L40 18L37 18L37 17L38 17L38 16L41 16L41 18L44 18L44 16L46 16L46 17L45 17L45 18L46 18L46 20L49 20L49 21L48 21L48 22L50 22L50 23L51 23L51 22L52 22L52 21L51 21L51 22L50 22L50 19L51 19L51 18L50 18L50 19L48 19L48 18L49 18L49 17L48 17L48 16L46 16L46 15L49 15L49 16L50 16L50 17L51 17L51 16L50 16L50 15L51 15L51 14L52 14L52 13L51 13L51 14L50 14L50 11L51 11L51 10L53 10L53 11L52 11L52 12L53 12L53 11L54 11L54 12L55 12L55 11L56 11L56 12L57 12L57 11L56 11L56 10L57 10L57 9L56 9L56 8L55 8L55 11L54 11L54 10L53 10L53 9L54 9L54 8L53 8L53 9L52 9L52 8L51 8L51 10L49 10L49 9L50 9L50 8L49 8L49 6L48 6L48 8L47 8L47 9L48 9L48 11L47 11L47 10L45 10L45 9L46 9L46 8L45 8L45 9L44 9L44 8L43 8L43 9L42 9L42 7L43 7L43 6L42 6L42 5L43 5L43 4L42 4L42 3L47 3L47 5L46 5L46 4L44 4L44 5L45 5L45 6L44 6L44 7L45 7L45 6L46 6L46 7L47 7L47 5L48 5L48 0L46 0L46 1L45 1L45 0L39 0L39 1L37 1L37 0L36 0L36 1L32 1L32 2L31 2L31 3L29 3L29 2L30 2L30 1L31 1L31 0L30 0L30 1L29 1L29 2L28 2L28 3L27 3L27 2L26 2L26 0L24 0L24 1L23 1L23 0L21 0L21 1L18 1L18 2L16 2L16 0ZM27 0L27 1L28 1L28 0ZM21 1L21 2L20 2L20 4L17 4L17 3L16 3L16 4L15 4L15 5L14 5L14 6L15 6L15 5L16 5L16 4L17 4L17 7L18 7L18 5L20 5L20 6L21 6L21 4L24 4L24 5L22 5L22 6L23 6L23 7L24 7L24 6L25 6L25 4L26 4L26 3L25 3L25 2L23 2L23 1ZM39 1L39 2L41 2L41 3L40 3L40 4L39 4L39 3L38 3L38 2L33 2L33 3L32 3L32 4L31 4L31 7L32 7L32 6L33 6L33 8L31 8L31 9L33 9L33 10L34 10L34 12L36 12L36 11L35 11L35 10L37 10L37 11L38 11L38 10L39 10L39 12L38 12L38 13L37 13L37 14L39 14L39 13L41 13L41 14L40 14L40 15L41 15L41 16L42 16L42 15L43 15L43 16L44 16L44 15L45 15L45 12L46 12L46 14L47 14L47 13L49 13L49 12L47 12L47 11L44 11L44 10L43 10L43 12L44 12L44 14L42 14L42 11L41 11L41 12L40 12L40 10L41 10L41 7L42 7L42 6L41 6L41 3L42 3L42 2L45 2L45 1ZM46 1L46 2L47 2L47 1ZM18 2L18 3L19 3L19 2ZM22 2L22 3L23 3L23 2ZM24 3L24 4L25 4L25 3ZM28 3L28 4L29 4L29 3ZM33 3L33 4L34 4L34 3ZM36 3L36 5L33 5L33 6L34 6L34 7L35 7L35 6L36 6L36 7L37 7L37 8L34 8L34 9L37 9L37 8L39 8L39 5L38 5L38 4L37 4L37 3ZM27 5L27 8L30 8L30 5ZM36 5L36 6L37 6L37 7L38 7L38 6L37 6L37 5ZM28 6L28 7L29 7L29 6ZM40 6L40 7L41 7L41 6ZM48 8L48 9L49 9L49 8ZM1 9L1 10L3 10L3 9ZM18 9L18 11L17 11L17 12L18 12L18 13L19 13L19 11L20 11L20 10L21 10L21 9L20 9L20 10L19 10L19 9ZM28 9L28 11L30 11L30 12L31 12L31 11L32 11L32 10L31 10L31 11L30 11L30 10L29 10L29 9ZM39 9L39 10L40 10L40 9ZM13 11L13 12L14 12L14 11ZM9 12L9 13L8 13L8 14L9 14L9 13L10 13L10 12ZM24 12L24 13L25 13L25 14L26 14L26 15L25 15L25 16L28 16L28 17L26 17L26 18L25 18L25 19L26 19L26 21L25 21L25 22L26 22L26 23L25 23L25 24L24 24L24 23L23 23L23 22L24 22L24 21L23 21L23 22L22 22L22 21L21 21L21 20L19 20L19 21L21 21L21 22L22 22L22 23L21 23L21 24L20 24L20 26L19 26L19 27L20 27L20 26L21 26L21 27L22 27L22 26L21 26L21 25L23 25L23 26L24 26L24 27L23 27L23 29L22 29L22 28L21 28L21 29L22 29L22 30L23 30L23 29L25 29L25 30L26 30L26 27L25 27L25 26L26 26L26 25L27 25L27 26L28 26L28 25L31 25L31 24L32 24L32 25L33 25L33 26L32 26L32 27L33 27L33 28L32 28L32 29L31 29L31 32L32 32L32 33L33 33L33 32L35 32L35 33L34 33L34 34L32 34L32 38L31 38L31 35L30 35L30 38L31 38L31 39L29 39L29 40L31 40L31 39L32 39L32 41L33 41L33 42L31 42L31 41L28 41L28 39L26 39L26 40L27 40L27 41L26 41L26 42L25 42L25 43L23 43L23 42L22 42L22 43L20 43L20 42L18 42L18 43L17 43L17 44L18 44L18 45L15 45L15 46L17 46L17 47L14 47L14 44L13 44L13 43L14 43L14 42L13 42L13 43L11 43L11 45L10 45L10 43L8 43L8 44L9 44L9 45L8 45L8 46L13 46L13 47L14 47L14 48L13 48L13 50L12 50L12 51L14 51L14 52L15 52L15 50L16 50L16 51L17 51L17 50L19 50L19 49L20 49L20 50L21 50L21 51L19 51L19 53L18 53L18 54L19 54L19 55L20 55L20 54L19 54L19 53L23 53L23 54L24 54L24 53L23 53L23 52L24 52L24 51L25 51L25 52L26 52L26 50L23 50L23 49L24 49L24 47L23 47L23 45L25 45L25 49L26 49L26 46L28 46L28 47L27 47L27 48L31 48L31 49L32 49L32 51L31 51L31 52L32 52L32 54L33 54L33 55L34 55L34 56L36 56L36 55L35 55L35 53L36 53L36 52L38 52L38 54L39 54L39 52L38 52L38 50L39 50L39 49L38 49L38 48L40 48L40 49L42 49L42 47L45 47L45 46L42 46L42 45L43 45L43 44L44 44L44 45L45 45L45 43L46 43L46 42L47 42L47 43L49 43L49 42L47 42L47 41L48 41L48 40L46 40L46 41L45 41L45 40L44 40L44 39L49 39L49 37L50 37L50 35L51 35L51 36L52 36L52 34L53 34L53 33L51 33L51 32L54 32L54 31L51 31L51 32L49 32L49 31L48 31L48 29L46 29L46 30L45 30L45 27L44 27L44 30L42 30L42 31L43 31L43 32L44 32L44 34L42 34L42 33L41 33L41 32L40 32L40 33L41 33L41 34L42 34L42 35L41 35L41 36L40 36L40 38L39 38L39 39L37 39L37 38L36 38L36 36L37 36L37 35L38 35L38 34L36 34L36 32L37 32L37 30L36 30L36 29L33 29L33 28L34 28L34 26L35 26L35 24L37 24L37 23L38 23L38 22L37 22L37 21L38 21L38 20L40 20L40 19L36 19L36 16L38 16L38 15L36 15L36 13L33 13L33 12L32 12L32 13L33 13L33 14L30 14L30 13L29 13L29 12L28 12L28 13L27 13L27 14L26 14L26 13L25 13L25 12ZM28 13L28 14L27 14L27 15L29 15L29 13ZM54 13L54 14L53 14L53 15L52 15L52 16L53 16L53 17L52 17L52 20L55 20L55 18L57 18L57 17L55 17L55 18L53 18L53 17L54 17L54 16L57 16L57 15L56 15L56 14L57 14L57 13L56 13L56 14L55 14L55 13ZM33 14L33 15L30 15L30 16L33 16L33 17L32 17L32 18L31 18L31 17L29 17L29 18L31 18L31 20L30 20L30 21L29 21L29 22L31 22L31 23L32 23L32 24L33 24L33 23L35 23L35 22L33 22L33 21L32 21L32 20L34 20L34 19L35 19L35 18L33 18L33 17L35 17L35 16L36 16L36 15L35 15L35 14ZM41 14L41 15L42 15L42 14ZM0 15L0 16L1 16L1 15ZM6 15L6 16L7 16L7 15ZM33 15L33 16L35 16L35 15ZM53 15L53 16L54 16L54 15ZM4 17L4 18L5 18L5 19L6 19L6 20L7 20L7 21L6 21L6 22L7 22L7 23L6 23L6 24L7 24L7 25L5 25L5 26L9 26L9 25L10 25L10 23L11 23L11 24L13 24L13 23L11 23L11 22L10 22L10 21L11 21L11 20L12 20L12 19L11 19L11 20L10 20L10 18L12 18L12 17L10 17L10 18L7 18L7 17ZM46 17L46 18L47 18L47 17ZM6 18L6 19L7 19L7 18ZM19 18L19 19L20 19L20 18ZM27 18L27 19L28 19L28 20L27 20L27 21L28 21L28 20L29 20L29 19L28 19L28 18ZM32 18L32 19L33 19L33 18ZM8 19L8 20L9 20L9 21L10 21L10 20L9 20L9 19ZM13 19L13 20L14 20L14 19ZM56 19L56 20L57 20L57 19ZM36 20L36 21L37 21L37 20ZM12 21L12 22L15 22L15 21ZM44 21L44 24L45 24L45 25L46 25L46 24L45 24L45 23L46 23L46 22L45 22L45 21ZM55 21L55 22L54 22L54 23L52 23L52 24L51 24L51 25L52 25L52 24L54 24L54 26L57 26L57 25L56 25L56 24L57 24L57 23L56 23L56 22L57 22L57 21ZM0 22L0 24L1 24L1 25L0 25L0 28L1 28L1 26L2 26L2 23L1 23L1 22ZM27 22L27 23L28 23L28 24L27 24L27 25L28 25L28 24L30 24L30 23L28 23L28 22ZM36 22L36 23L37 23L37 22ZM8 23L8 25L9 25L9 23ZM22 23L22 24L23 24L23 25L24 25L24 26L25 26L25 25L26 25L26 24L25 24L25 25L24 25L24 24L23 24L23 23ZM55 23L55 24L56 24L56 23ZM14 26L14 27L13 27L13 28L14 28L14 27L15 27L15 26ZM42 26L42 27L43 27L43 26ZM47 26L47 27L46 27L46 28L47 28L47 27L48 27L48 26ZM5 27L5 30L8 30L8 27ZM11 27L11 28L12 28L12 27ZM24 27L24 28L25 28L25 27ZM27 27L27 30L30 30L30 27ZM49 27L49 30L52 30L52 27ZM56 27L56 28L57 28L57 27ZM6 28L6 29L7 29L7 28ZM17 28L17 29L18 29L18 28ZM19 28L19 29L20 29L20 28ZM28 28L28 29L29 29L29 28ZM50 28L50 29L51 29L51 28ZM3 30L3 31L4 31L4 30ZM32 30L32 32L33 32L33 31L35 31L35 32L36 32L36 31L35 31L35 30ZM44 30L44 32L46 32L46 31L47 31L47 32L48 32L48 31L47 31L47 30L46 30L46 31L45 31L45 30ZM5 31L5 33L6 33L6 32L8 32L8 31ZM23 31L23 32L24 32L24 31ZM25 31L25 34L24 34L24 36L22 36L22 37L24 37L24 36L25 36L25 34L26 34L26 35L27 35L27 36L28 36L28 37L27 37L27 38L28 38L28 37L29 37L29 34L31 34L31 33L30 33L30 31L28 31L28 32L29 32L29 33L27 33L27 31ZM0 32L0 33L1 33L1 32ZM9 32L9 33L10 33L10 34L11 34L11 33L12 33L12 32ZM16 32L16 33L17 33L17 32ZM26 33L26 34L27 34L27 33ZM45 33L45 34L44 34L44 35L43 35L43 36L42 36L42 37L41 37L41 38L42 38L42 39L40 39L40 40L38 40L38 41L37 41L37 40L34 40L34 39L33 39L33 40L34 40L34 41L35 41L35 42L37 42L37 43L36 43L36 44L35 44L35 46L33 46L33 47L32 47L32 46L31 46L31 45L32 45L32 44L34 44L34 43L32 43L32 44L31 44L31 45L30 45L30 43L31 43L31 42L30 42L30 43L29 43L29 42L28 42L28 41L27 41L27 42L26 42L26 43L27 43L27 45L30 45L30 46L29 46L29 47L31 47L31 48L36 48L36 49L37 49L37 50L36 50L36 51L35 51L35 50L33 50L33 51L32 51L32 52L33 52L33 53L34 53L34 51L35 51L35 52L36 52L36 51L37 51L37 50L38 50L38 49L37 49L37 48L36 48L36 47L40 47L40 48L41 48L41 47L42 47L42 46L41 46L41 45L40 45L40 46L37 46L37 43L38 43L38 44L39 44L39 42L38 42L38 41L40 41L40 42L41 42L41 44L43 44L43 43L44 43L44 40L43 40L43 37L44 37L44 38L45 38L45 37L44 37L44 35L45 35L45 34L46 34L46 35L47 35L47 36L49 36L49 35L50 35L50 34L51 34L51 33L50 33L50 34L49 34L49 35L48 35L48 33L47 33L47 34L46 34L46 33ZM56 33L56 34L57 34L57 33ZM34 34L34 37L35 37L35 34ZM10 35L10 36L11 36L11 35ZM15 37L15 38L16 38L16 37ZM6 38L6 39L7 39L7 38ZM10 38L10 39L11 39L11 38ZM18 38L18 39L20 39L20 38ZM50 38L50 39L51 39L51 38ZM15 39L15 40L16 40L16 39ZM4 40L4 41L5 41L5 40ZM40 40L40 41L41 41L41 40ZM49 40L49 41L51 41L51 42L50 42L50 43L52 43L52 44L53 44L53 43L54 43L54 40L53 40L53 41L52 41L52 40ZM3 42L3 44L1 44L1 47L2 47L2 46L3 46L3 47L5 47L5 46L7 46L7 45L6 45L6 44L7 44L7 43L6 43L6 44L5 44L5 43L4 43L4 42ZM42 42L42 43L43 43L43 42ZM19 43L19 44L20 44L20 45L18 45L18 47L19 47L19 48L14 48L14 50L15 50L15 49L19 49L19 48L20 48L20 47L19 47L19 46L20 46L20 45L22 45L22 44L20 44L20 43ZM55 43L55 44L54 44L54 45L55 45L55 44L56 44L56 43ZM4 44L4 46L5 46L5 44ZM25 44L25 45L26 45L26 44ZM21 46L21 47L22 47L22 46ZM40 46L40 47L41 47L41 46ZM9 49L9 51L10 51L10 52L9 52L9 54L10 54L10 55L9 55L9 56L10 56L10 55L12 55L12 54L13 54L13 55L14 55L14 53L12 53L12 52L11 52L11 51L10 51L10 49ZM21 49L21 50L22 50L22 49ZM27 49L27 52L30 52L30 49ZM49 49L49 52L52 52L52 49ZM28 50L28 51L29 51L29 50ZM50 50L50 51L51 51L51 50ZM56 51L56 52L57 52L57 51ZM10 53L10 54L12 54L12 53ZM25 53L25 54L26 54L26 53ZM30 53L30 54L31 54L31 53ZM43 53L43 55L45 55L45 54L44 54L44 53ZM51 55L51 56L50 56L50 57L52 57L52 56L53 56L53 57L56 57L56 56L55 56L55 55ZM0 0L0 7L7 7L7 0ZM1 1L1 6L6 6L6 1ZM2 2L2 5L5 5L5 2ZM50 0L50 7L57 7L57 0ZM51 1L51 6L56 6L56 1ZM52 2L52 5L55 5L55 2ZM0 50L0 57L7 57L7 50ZM1 51L1 56L6 56L6 51ZM2 52L2 55L5 55L5 52Z" fill="#000000"/></g></g></svg>
