<?xml version="1.0" encoding="UTF-8"?>
<svg xmlns="http://www.w3.org/2000/svg" version="1.1" width="300" height="300" viewBox="0 0 300 300"><rect x="0" y="0" width="300" height="300" fill="#ffffff"/><g transform="scale(4.918)"><g transform="translate(2,2)"><path fill-rule="evenodd" d="M9 0L9 1L8 1L8 2L9 2L9 3L8 3L8 4L10 4L10 5L8 5L8 7L9 7L9 6L10 6L10 8L11 8L11 6L12 6L12 9L13 9L13 11L14 11L14 12L12 12L12 10L8 10L8 9L9 9L9 8L6 8L6 9L5 9L5 8L0 8L0 12L1 12L1 13L0 13L0 16L1 16L1 17L0 17L0 18L1 18L1 17L2 17L2 18L5 18L5 17L3 17L3 16L2 16L2 15L1 15L1 14L2 14L2 13L3 13L3 14L5 14L5 13L7 13L7 12L4 12L4 13L3 13L3 12L2 12L2 11L3 11L3 10L2 10L2 9L5 9L5 10L6 10L6 11L9 11L9 12L8 12L8 13L9 13L9 14L6 14L6 15L5 15L5 16L6 16L6 17L7 17L7 18L6 18L6 19L4 19L4 20L6 20L6 21L5 21L5 23L7 23L7 24L6 24L6 25L5 25L5 26L4 26L4 28L3 28L3 27L2 27L2 29L0 29L0 30L1 30L1 31L0 31L0 32L2 32L2 33L1 33L1 35L0 35L0 40L1 40L1 41L3 41L3 40L2 40L2 39L7 39L7 40L5 40L5 41L7 41L7 40L9 40L9 41L8 41L8 42L6 42L6 43L9 43L9 44L5 44L5 42L4 42L4 43L3 43L3 42L2 42L2 43L3 43L3 45L2 45L2 44L0 44L0 45L1 45L1 46L0 46L0 48L5 48L5 47L7 47L7 46L8 46L8 45L10 45L10 46L9 46L9 48L10 48L10 49L8 49L8 51L9 51L9 52L8 52L8 57L9 57L9 56L10 56L10 57L14 57L14 56L13 56L13 55L12 55L12 54L11 54L11 52L12 52L12 53L13 53L13 54L14 54L14 55L16 55L16 57L19 57L19 55L20 55L20 54L19 54L19 55L17 55L17 53L16 53L16 52L17 52L17 51L18 51L18 53L20 53L20 52L21 52L21 53L22 53L22 54L24 54L24 53L25 53L25 54L27 54L27 53L28 53L28 54L30 54L30 53L31 53L31 56L30 56L30 55L29 55L29 56L30 56L30 57L32 57L32 56L33 56L33 57L37 57L37 54L38 54L38 57L39 57L39 55L40 55L40 52L41 52L41 57L42 57L42 56L45 56L45 55L46 55L46 56L47 56L47 57L50 57L50 53L51 53L51 54L53 54L53 55L51 55L51 57L52 57L52 56L54 56L54 57L56 57L56 56L55 56L55 53L56 53L56 52L57 52L57 51L56 51L56 52L55 52L55 50L57 50L57 47L56 47L56 46L57 46L57 45L56 45L56 46L55 46L55 45L54 45L54 44L57 44L57 43L56 43L56 42L55 42L55 41L54 41L54 40L55 40L55 39L57 39L57 37L55 37L55 38L53 38L53 39L52 39L52 37L53 37L53 36L57 36L57 35L53 35L53 34L52 34L52 37L51 37L51 36L50 36L50 37L51 37L51 40L52 40L52 41L49 41L49 42L48 42L48 43L47 43L47 42L44 42L44 40L47 40L47 39L50 39L50 38L49 38L49 37L48 37L48 38L47 38L47 39L43 39L43 40L41 40L41 39L42 39L42 38L43 38L43 37L44 37L44 38L45 38L45 37L46 37L46 36L45 36L45 37L44 37L44 34L43 34L43 33L42 33L42 34L41 34L41 35L40 35L40 33L39 33L39 32L45 32L45 34L46 34L46 35L50 35L50 33L53 33L53 32L56 32L56 30L57 30L57 29L55 29L55 30L54 30L54 31L53 31L53 29L54 29L54 28L55 28L55 27L53 27L53 26L52 26L52 25L51 25L51 26L49 26L49 25L50 25L50 24L53 24L53 25L54 25L54 26L55 26L55 24L56 24L56 22L57 22L57 20L56 20L56 21L55 21L55 22L54 22L54 23L53 23L53 21L54 21L54 20L55 20L55 18L57 18L57 17L56 17L56 16L55 16L55 15L56 15L56 14L57 14L57 11L54 11L54 10L53 10L53 11L52 11L52 12L53 12L53 11L54 11L54 12L56 12L56 13L53 13L53 15L52 15L52 16L51 16L51 15L50 15L50 16L51 16L51 17L52 17L52 18L50 18L50 17L49 17L49 16L48 16L48 17L47 17L47 18L45 18L45 19L43 19L43 20L42 20L42 19L40 19L40 20L38 20L38 19L39 19L39 18L40 18L40 17L39 17L39 16L41 16L41 15L42 15L42 16L46 16L46 15L49 15L49 14L50 14L50 13L51 13L51 14L52 14L52 13L51 13L51 12L50 12L50 13L47 13L47 14L46 14L46 12L45 12L45 11L47 11L47 12L49 12L49 11L51 11L51 10L52 10L52 8L51 8L51 10L49 10L49 9L50 9L50 8L49 8L49 9L48 9L48 8L46 8L46 9L48 9L48 10L49 10L49 11L47 11L47 10L45 10L45 9L44 9L44 7L45 7L45 6L44 6L44 7L43 7L43 3L47 3L47 5L46 5L46 4L44 4L44 5L46 5L46 7L47 7L47 5L48 5L48 0L44 0L44 1L43 1L43 0L42 0L42 1L41 1L41 0L40 0L40 1L38 1L38 0L36 0L36 2L37 2L37 3L36 3L36 5L33 5L33 6L32 6L32 7L31 7L31 4L32 4L32 3L33 3L33 2L35 2L35 1L33 1L33 0L32 0L32 1L33 1L33 2L31 2L31 3L29 3L29 2L30 2L30 1L31 1L31 0L30 0L30 1L29 1L29 0L28 0L28 1L26 1L26 0L21 0L21 2L28 2L28 3L27 3L27 4L26 4L26 3L23 3L23 4L19 4L19 2L20 2L20 0L19 0L19 1L18 1L18 0L17 0L17 1L16 1L16 0L13 0L13 2L12 2L12 1L11 1L11 0ZM9 1L9 2L10 2L10 3L11 3L11 5L12 5L12 4L13 4L13 5L14 5L14 6L13 6L13 7L14 7L14 6L15 6L15 7L16 7L16 9L15 9L15 8L14 8L14 9L15 9L15 12L17 12L17 13L13 13L13 15L14 15L14 18L13 18L13 19L14 19L14 20L12 20L12 19L11 19L11 21L14 21L14 22L11 22L11 23L12 23L12 25L13 25L13 24L14 24L14 22L16 22L16 21L17 21L17 22L20 22L20 23L18 23L18 24L21 24L21 22L22 22L22 23L24 23L24 24L22 24L22 25L24 25L24 24L25 24L25 26L26 26L26 25L27 25L27 26L28 26L28 25L31 25L31 26L32 26L32 25L31 25L31 24L33 24L33 25L34 25L34 26L33 26L33 27L32 27L32 30L31 30L31 31L33 31L33 30L35 30L35 31L34 31L34 32L31 32L31 34L32 34L32 38L31 38L31 36L30 36L30 38L31 38L31 39L29 39L29 35L30 35L30 34L29 34L29 33L30 33L30 31L28 31L28 32L29 32L29 33L27 33L27 31L25 31L25 32L23 32L23 31L19 31L19 30L24 30L24 29L25 29L25 30L26 30L26 27L24 27L24 29L23 29L23 26L22 26L22 27L19 27L19 26L18 26L18 25L17 25L17 24L16 24L16 23L15 23L15 26L13 26L13 27L16 27L16 28L18 28L18 29L14 29L14 28L12 28L12 26L10 26L10 28L9 28L9 30L11 30L11 32L12 32L12 33L11 33L11 34L10 34L10 35L11 35L11 34L12 34L12 35L13 35L13 36L12 36L12 37L11 37L11 36L9 36L9 34L8 34L8 33L6 33L6 34L8 34L8 36L7 36L7 35L6 35L6 36L5 36L5 35L4 35L4 34L5 34L5 33L4 33L4 34L3 34L3 33L2 33L2 34L3 34L3 38L5 38L5 37L6 37L6 38L8 38L8 39L9 39L9 38L10 38L10 37L11 37L11 38L12 38L12 37L13 37L13 38L14 38L14 41L13 41L13 42L11 42L11 43L10 43L10 41L9 41L9 43L10 43L10 45L11 45L11 46L10 46L10 47L11 47L11 48L13 48L13 49L12 49L12 50L14 50L14 49L15 49L15 47L13 47L13 46L12 46L12 45L15 45L15 46L17 46L17 47L16 47L16 48L17 48L17 49L16 49L16 50L17 50L17 49L18 49L18 51L23 51L23 52L22 52L22 53L24 53L24 52L25 52L25 53L26 53L26 50L25 50L25 51L23 51L23 50L21 50L21 49L20 49L20 48L21 48L21 45L22 45L22 47L23 47L23 46L24 46L24 45L25 45L25 46L27 46L27 47L25 47L25 48L22 48L22 49L25 49L25 48L27 48L27 47L28 47L28 48L30 48L30 47L29 47L29 46L30 46L30 45L31 45L31 47L32 47L32 45L33 45L33 46L35 46L35 47L34 47L34 48L31 48L31 52L32 52L32 54L33 54L33 55L34 55L34 56L35 56L35 54L36 54L36 52L40 52L40 51L36 51L36 50L35 50L35 48L37 48L37 50L39 50L39 48L40 48L40 50L42 50L42 51L41 51L41 52L42 52L42 51L43 51L43 50L44 50L44 53L43 53L43 54L42 54L42 55L45 55L45 54L44 54L44 53L45 53L45 52L46 52L46 54L48 54L48 52L46 52L46 50L47 50L47 51L48 51L48 48L49 48L49 47L51 47L51 45L52 45L52 46L54 46L54 47L55 47L55 48L53 48L53 47L52 47L52 48L53 48L53 49L55 49L55 48L56 48L56 47L55 47L55 46L54 46L54 45L52 45L52 44L53 44L53 43L54 43L54 41L52 41L52 42L53 42L53 43L52 43L52 44L51 44L51 45L50 45L50 44L49 44L49 43L48 43L48 44L47 44L47 45L46 45L46 46L47 46L47 47L46 47L46 50L45 50L45 48L42 48L42 47L43 47L43 46L42 46L42 45L43 45L43 44L44 44L44 45L45 45L45 43L44 43L44 42L42 42L42 41L41 41L41 40L39 40L39 41L38 41L38 39L39 39L39 38L40 38L40 39L41 39L41 36L42 36L42 37L43 37L43 36L42 36L42 35L43 35L43 34L42 34L42 35L41 35L41 36L40 36L40 35L39 35L39 36L38 36L38 35L36 35L36 34L35 34L35 33L34 33L34 32L39 32L39 31L41 31L41 30L42 30L42 31L43 31L43 30L44 30L44 31L45 31L45 32L47 32L47 33L46 33L46 34L47 34L47 33L48 33L48 34L49 34L49 31L48 31L48 29L46 29L46 30L44 30L44 29L45 29L45 26L46 26L46 28L48 28L48 27L47 27L47 26L48 26L48 25L49 25L49 24L50 24L50 22L51 22L51 19L50 19L50 22L48 22L48 23L47 23L47 21L48 21L48 20L49 20L49 18L48 18L48 19L46 19L46 20L43 20L43 23L44 23L44 21L45 21L45 22L46 22L46 23L47 23L47 24L48 24L48 25L45 25L45 24L44 24L44 25L45 25L45 26L40 26L40 25L41 25L41 24L42 24L42 25L43 25L43 24L42 24L42 22L40 22L40 23L41 23L41 24L39 24L39 23L38 23L38 29L37 29L37 30L35 30L35 29L33 29L33 28L34 28L34 26L35 26L35 27L36 27L36 28L37 28L37 27L36 27L36 26L35 26L35 24L34 24L34 23L31 23L31 22L28 22L28 21L30 21L30 20L29 20L29 19L31 19L31 18L29 18L29 19L28 19L28 18L27 18L27 17L28 17L28 16L29 16L29 17L33 17L33 18L32 18L32 19L33 19L33 20L32 20L32 21L33 21L33 22L35 22L35 23L36 23L36 24L37 24L37 23L36 23L36 22L39 22L39 21L38 21L38 20L37 20L37 19L38 19L38 18L39 18L39 17L38 17L38 18L37 18L37 17L36 17L36 16L39 16L39 15L41 15L41 14L42 14L42 15L45 15L45 14L44 14L44 13L45 13L45 12L43 12L43 14L42 14L42 11L41 11L41 12L40 12L40 10L41 10L41 8L42 8L42 9L43 9L43 8L42 8L42 5L41 5L41 3L43 3L43 1L42 1L42 2L41 2L41 1L40 1L40 2L41 2L41 3L40 3L40 5L41 5L41 7L40 7L40 6L39 6L39 7L38 7L38 6L37 6L37 5L39 5L39 2L38 2L38 1L37 1L37 2L38 2L38 3L37 3L37 5L36 5L36 6L35 6L35 8L34 8L34 6L33 6L33 7L32 7L32 8L31 8L31 9L32 9L32 10L31 10L31 11L30 11L30 12L28 12L28 13L26 13L26 14L28 14L28 13L30 13L30 14L29 14L29 15L28 15L28 16L27 16L27 15L25 15L25 14L24 14L24 13L25 13L25 12L27 12L27 11L26 11L26 10L28 10L28 11L29 11L29 10L28 10L28 9L25 9L25 8L26 8L26 4L25 4L25 8L24 8L24 6L23 6L23 8L22 8L22 5L21 5L21 8L19 8L19 9L17 9L17 7L18 7L18 6L19 6L19 7L20 7L20 5L19 5L19 4L18 4L18 3L17 3L17 2L16 2L16 3L14 3L14 4L13 4L13 3L12 3L12 2L10 2L10 1ZM14 1L14 2L15 2L15 1ZM44 1L44 2L47 2L47 1ZM28 3L28 4L29 4L29 3ZM34 3L34 4L35 4L35 3ZM14 4L14 5L16 5L16 4ZM17 4L17 5L18 5L18 4ZM23 4L23 5L24 5L24 4ZM27 5L27 8L30 8L30 5ZM16 6L16 7L17 7L17 6ZM28 6L28 7L29 7L29 6ZM36 6L36 8L35 8L35 12L34 12L34 10L33 10L33 11L32 11L32 12L31 12L31 13L32 13L32 15L31 15L31 14L30 14L30 16L34 16L34 17L35 17L35 16L36 16L36 15L39 15L39 14L41 14L41 13L39 13L39 14L36 14L36 13L38 13L38 12L39 12L39 10L38 10L38 9L37 9L37 8L38 8L38 7L37 7L37 6ZM48 6L48 7L49 7L49 6ZM53 8L53 9L54 9L54 8ZM55 8L55 10L57 10L57 9L56 9L56 8ZM6 9L6 10L7 10L7 9ZM19 9L19 10L18 10L18 11L17 11L17 10L16 10L16 11L17 11L17 12L18 12L18 13L17 13L17 14L18 14L18 15L15 15L15 17L19 17L19 18L20 18L20 17L21 17L21 19L20 19L20 20L19 20L19 19L15 19L15 21L16 21L16 20L18 20L18 21L20 21L20 20L21 20L21 21L22 21L22 22L24 22L24 21L25 21L25 22L26 22L26 23L25 23L25 24L27 24L27 25L28 25L28 24L29 24L29 23L28 23L28 24L27 24L27 20L28 20L28 19L27 19L27 20L26 20L26 19L25 19L25 18L26 18L26 17L27 17L27 16L25 16L25 15L23 15L23 14L22 14L22 13L24 13L24 12L23 12L23 10L25 10L25 9L23 9L23 10L22 10L22 11L21 11L21 10L20 10L20 9ZM36 9L36 10L37 10L37 9ZM43 10L43 11L45 11L45 10ZM10 11L10 12L9 12L9 13L10 13L10 12L11 12L11 11ZM20 11L20 12L19 12L19 13L20 13L20 14L19 14L19 15L18 15L18 16L19 16L19 17L20 17L20 16L21 16L21 17L25 17L25 16L23 16L23 15L21 15L21 13L22 13L22 12L21 12L21 11ZM20 12L20 13L21 13L21 12ZM32 12L32 13L33 13L33 14L35 14L35 15L34 15L34 16L35 16L35 15L36 15L36 14L35 14L35 13L33 13L33 12ZM11 13L11 14L9 14L9 15L8 15L8 16L7 16L7 15L6 15L6 16L7 16L7 17L8 17L8 18L7 18L7 19L6 19L6 20L7 20L7 21L6 21L6 22L7 22L7 23L8 23L8 24L7 24L7 25L6 25L6 26L9 26L9 24L10 24L10 21L9 21L9 23L8 23L8 22L7 22L7 21L8 21L8 20L10 20L10 18L9 18L9 17L10 17L10 15L12 15L12 13ZM54 14L54 15L53 15L53 16L52 16L52 17L53 17L53 16L54 16L54 17L55 17L55 16L54 16L54 15L55 15L55 14ZM11 17L11 18L12 18L12 17ZM41 17L41 18L44 18L44 17ZM8 18L8 19L9 19L9 18ZM22 18L22 19L21 19L21 20L22 20L22 21L24 21L24 20L25 20L25 21L26 21L26 20L25 20L25 19L23 19L23 18ZM33 18L33 19L34 19L34 21L35 21L35 19L37 19L37 18ZM52 18L52 19L53 19L53 18ZM1 19L1 20L3 20L3 19ZM22 19L22 20L23 20L23 19ZM36 20L36 21L37 21L37 20ZM40 20L40 21L42 21L42 20ZM52 20L52 21L53 21L53 20ZM2 21L2 22L1 22L1 23L2 23L2 26L3 26L3 25L4 25L4 21ZM30 23L30 24L31 24L31 23ZM48 23L48 24L49 24L49 23ZM0 24L0 27L1 27L1 24ZM20 25L20 26L21 26L21 25ZM56 25L56 26L57 26L57 25ZM16 26L16 27L18 27L18 26ZM5 27L5 30L8 30L8 27ZM27 27L27 30L30 30L30 27ZM40 27L40 28L41 28L41 27ZM42 27L42 28L43 28L43 29L42 29L42 30L43 30L43 29L44 29L44 28L43 28L43 27ZM49 27L49 30L52 30L52 27ZM56 27L56 28L57 28L57 27ZM6 28L6 29L7 29L7 28ZM19 28L19 29L18 29L18 30L19 30L19 29L22 29L22 28ZM28 28L28 29L29 29L29 28ZM50 28L50 29L51 29L51 28ZM2 29L2 32L3 32L3 31L4 31L4 32L5 32L5 31L4 31L4 29ZM13 29L13 32L14 32L14 33L13 33L13 35L14 35L14 36L13 36L13 37L14 37L14 36L16 36L16 35L17 35L17 34L16 34L16 33L17 33L17 32L16 32L16 31L17 31L17 30L16 30L16 31L14 31L14 29ZM40 29L40 30L41 30L41 29ZM37 30L37 31L39 31L39 30ZM46 30L46 31L47 31L47 32L48 32L48 31L47 31L47 30ZM6 31L6 32L7 32L7 31ZM9 31L9 33L10 33L10 31ZM18 31L18 33L19 33L19 34L18 34L18 35L19 35L19 34L20 34L20 35L21 35L21 34L23 34L23 35L22 35L22 36L21 36L21 37L19 37L19 36L18 36L18 37L19 37L19 38L18 38L18 39L19 39L19 40L18 40L18 41L17 41L17 42L15 42L15 43L17 43L17 44L16 44L16 45L17 45L17 46L18 46L18 47L19 47L19 48L18 48L18 49L19 49L19 48L20 48L20 45L21 45L21 44L22 44L22 45L24 45L24 44L25 44L25 45L26 45L26 44L27 44L27 45L29 45L29 43L31 43L31 45L32 45L32 44L34 44L34 43L35 43L35 42L34 42L34 41L33 41L33 42L32 42L32 41L31 41L31 40L28 40L28 39L27 39L27 38L28 38L28 37L27 37L27 35L26 35L26 34L27 34L27 33L26 33L26 32L25 32L25 33L22 33L22 32L20 32L20 33L19 33L19 31ZM52 31L52 32L53 32L53 31ZM15 32L15 33L14 33L14 34L15 34L15 33L16 33L16 32ZM20 33L20 34L21 34L21 33ZM25 33L25 34L26 34L26 33ZM32 33L32 34L34 34L34 35L35 35L35 34L34 34L34 33ZM37 33L37 34L39 34L39 33ZM54 33L54 34L57 34L57 33ZM23 35L23 36L22 36L22 37L21 37L21 38L22 38L22 37L23 37L23 38L24 38L24 37L23 37L23 36L26 36L26 35ZM1 36L1 37L2 37L2 36ZM6 36L6 37L7 37L7 36ZM8 36L8 37L9 37L9 36ZM33 36L33 37L34 37L34 36ZM36 36L36 37L35 37L35 38L33 38L33 39L34 39L34 40L35 40L35 41L36 41L36 42L37 42L37 43L36 43L36 44L35 44L35 46L36 46L36 45L37 45L37 46L38 46L38 43L39 43L39 42L40 42L40 41L39 41L39 42L38 42L38 41L37 41L37 38L38 38L38 36ZM39 36L39 37L40 37L40 36ZM15 37L15 38L16 38L16 37ZM25 37L25 38L27 38L27 37ZM19 38L19 39L20 39L20 38ZM35 38L35 39L36 39L36 38ZM10 39L10 40L11 40L11 41L12 41L12 39ZM15 39L15 40L16 40L16 39ZM21 39L21 40L19 40L19 41L18 41L18 42L17 42L17 43L18 43L18 42L19 42L19 41L20 41L20 43L22 43L22 42L23 42L23 44L24 44L24 42L23 42L23 41L24 41L24 39L23 39L23 40L22 40L22 39ZM25 39L25 44L26 44L26 43L27 43L27 44L28 44L28 43L29 43L29 42L31 42L31 41L28 41L28 40L26 40L26 39ZM53 39L53 40L54 40L54 39ZM21 41L21 42L22 42L22 41ZM26 41L26 42L27 42L27 41ZM0 42L0 43L1 43L1 42ZM41 42L41 43L40 43L40 44L39 44L39 46L40 46L40 44L43 44L43 43L42 43L42 42ZM50 42L50 43L51 43L51 42ZM4 44L4 46L3 46L3 47L5 47L5 46L7 46L7 45L5 45L5 44ZM11 44L11 45L12 45L12 44ZM17 44L17 45L18 45L18 44ZM19 44L19 45L20 45L20 44ZM48 44L48 45L49 45L49 44ZM1 46L1 47L2 47L2 46ZM41 46L41 47L40 47L40 48L41 48L41 49L42 49L42 50L43 50L43 49L42 49L42 48L41 48L41 47L42 47L42 46ZM37 47L37 48L38 48L38 47ZM6 48L6 49L7 49L7 48ZM27 49L27 52L30 52L30 49ZM33 49L33 50L32 50L32 52L33 52L33 50L34 50L34 53L35 53L35 52L36 52L36 51L35 51L35 50L34 50L34 49ZM49 49L49 52L52 52L52 49ZM9 50L9 51L10 51L10 52L11 52L11 51L10 51L10 50ZM28 50L28 51L29 51L29 50ZM50 50L50 51L51 51L51 50ZM14 51L14 52L13 52L13 53L14 53L14 52L15 52L15 51ZM53 51L53 53L55 53L55 52L54 52L54 51ZM15 53L15 54L16 54L16 53ZM38 53L38 54L39 54L39 53ZM9 54L9 55L10 55L10 54ZM22 55L22 56L23 56L23 57L24 57L24 55ZM27 55L27 56L28 56L28 55ZM48 55L48 56L49 56L49 55ZM20 56L20 57L21 57L21 56ZM0 0L0 7L7 7L7 0ZM1 1L1 6L6 6L6 1ZM2 2L2 5L5 5L5 2ZM50 0L50 7L57 7L57 0ZM51 1L51 6L56 6L56 1ZM52 2L52 5L55 5L55 2ZM0 50L0 57L7 57L7 50ZM1 51L1 56L6 56L6 51ZM2 52L2 55L5 55L5 52Z" fill="#000000"/></g></g></svg>
