<?xml version="1.0" encoding="UTF-8"?>
<svg xmlns="http://www.w3.org/2000/svg" version="1.1" width="300" height="300" viewBox="0 0 300 300"><rect x="0" y="0" width="300" height="300" fill="#ffffff"/><g transform="scale(4.918)"><g transform="translate(2,2)"><path fill-rule="evenodd" d="M9 0L9 1L8 1L8 2L9 2L9 3L8 3L8 4L9 4L9 5L8 5L8 7L9 7L9 6L10 6L10 7L11 7L11 6L12 6L12 7L13 7L13 6L12 6L12 5L13 5L13 4L14 4L14 5L16 5L16 4L14 4L14 3L16 3L16 2L19 2L19 1L20 1L20 2L21 2L21 1L22 1L22 0L21 0L21 1L20 1L20 0L19 0L19 1L16 1L16 0L13 0L13 1L12 1L12 0L11 0L11 1L10 1L10 0ZM23 0L23 2L22 2L22 3L21 3L21 4L19 4L19 3L17 3L17 4L19 4L19 5L17 5L17 6L16 6L16 7L15 7L15 6L14 6L14 8L12 8L12 9L11 9L11 8L6 8L6 9L9 9L9 13L8 13L8 14L6 14L6 13L7 13L7 12L8 12L8 10L6 10L6 11L5 11L5 8L0 8L0 12L2 12L2 14L1 14L1 15L0 15L0 16L2 16L2 14L3 14L3 12L4 12L4 11L5 11L5 12L6 12L6 13L5 13L5 14L4 14L4 17L5 17L5 18L4 18L4 19L3 19L3 18L2 18L2 17L1 17L1 18L2 18L2 19L1 19L1 21L0 21L0 27L1 27L1 28L0 28L0 31L1 31L1 28L2 28L2 27L4 27L4 28L3 28L3 29L4 29L4 30L3 30L3 31L2 31L2 32L1 32L1 33L0 33L0 35L1 35L1 36L0 36L0 40L1 40L1 41L0 41L0 45L1 45L1 41L3 41L3 42L4 42L4 41L5 41L5 43L4 43L4 45L3 45L3 46L2 46L2 47L1 47L1 46L0 46L0 48L5 48L5 47L7 47L7 48L6 48L6 49L8 49L8 51L11 51L11 53L10 53L10 52L8 52L8 57L9 57L9 56L11 56L11 57L14 57L14 56L12 56L12 54L14 54L14 55L16 55L16 56L15 56L15 57L16 57L16 56L17 56L17 57L21 57L21 56L18 56L18 55L20 55L20 54L18 54L18 55L17 55L17 53L16 53L16 52L18 52L18 53L20 53L20 52L21 52L21 51L22 51L22 52L23 52L23 51L22 51L22 49L21 49L21 48L20 48L20 45L21 45L21 47L22 47L22 48L23 48L23 50L25 50L25 51L24 51L24 53L21 53L21 55L22 55L22 54L24 54L24 53L25 53L25 56L24 56L24 55L23 55L23 56L24 56L24 57L26 57L26 54L27 54L27 53L28 53L28 54L30 54L30 53L31 53L31 56L30 56L30 55L29 55L29 56L30 56L30 57L31 57L31 56L33 56L33 55L34 55L34 57L39 57L39 56L37 56L37 55L40 55L40 52L41 52L41 54L43 54L43 53L44 53L44 54L45 54L45 55L46 55L46 54L45 54L45 53L44 53L44 49L42 49L42 48L45 48L45 49L47 49L47 48L45 48L45 47L47 47L47 46L49 46L49 47L50 47L50 48L48 48L48 51L47 51L47 50L45 50L45 52L46 52L46 51L47 51L47 52L48 52L48 54L47 54L47 56L46 56L46 57L47 57L47 56L48 56L48 55L49 55L49 56L50 56L50 55L51 55L51 57L52 57L52 56L53 56L53 57L56 57L56 56L55 56L55 54L53 54L53 53L54 53L54 52L55 52L55 53L56 53L56 52L57 52L57 51L56 51L56 50L57 50L57 48L56 48L56 46L57 46L57 45L56 45L56 46L55 46L55 45L54 45L54 44L56 44L56 42L55 42L55 39L57 39L57 37L56 37L56 35L55 35L55 34L57 34L57 33L56 33L56 32L57 32L57 31L56 31L56 30L57 30L57 29L56 29L56 28L57 28L57 27L56 27L56 26L57 26L57 25L55 25L55 24L57 24L57 23L56 23L56 22L57 22L57 21L56 21L56 20L57 20L57 19L56 19L56 18L57 18L57 15L56 15L56 14L57 14L57 13L56 13L56 12L57 12L57 11L54 11L54 10L53 10L53 9L54 9L54 8L53 8L53 9L52 9L52 8L51 8L51 10L49 10L49 9L50 9L50 8L49 8L49 6L48 6L48 7L47 7L47 5L48 5L48 0L45 0L45 1L44 1L44 0L42 0L42 1L40 1L40 0L39 0L39 1L36 1L36 0L35 0L35 1L33 1L33 0L30 0L30 1L28 1L28 0L27 0L27 1L28 1L28 3L27 3L27 4L26 4L26 3L25 3L25 2L26 2L26 0ZM11 1L11 2L12 2L12 1ZM13 1L13 2L15 2L15 1ZM30 1L30 2L29 2L29 3L28 3L28 4L30 4L30 3L31 3L31 1ZM32 1L32 2L33 2L33 3L32 3L32 4L31 4L31 9L32 9L32 10L34 10L34 12L36 12L36 10L37 10L37 9L35 9L35 8L36 8L36 6L37 6L37 8L38 8L38 11L39 11L39 10L40 10L40 12L38 12L38 13L36 13L36 14L39 14L39 16L38 16L38 15L36 15L36 16L35 16L35 15L33 15L33 16L30 16L30 14L31 14L31 15L32 15L32 14L35 14L35 13L33 13L33 12L32 12L32 11L31 11L31 10L30 10L30 12L28 12L28 13L25 13L25 12L27 12L27 11L29 11L29 10L27 10L27 9L25 9L25 8L26 8L26 4L25 4L25 8L24 8L24 6L23 6L23 7L22 7L22 4L23 4L23 5L24 5L24 4L23 4L23 3L24 3L24 2L23 2L23 3L22 3L22 4L21 4L21 7L22 7L22 8L21 8L21 9L20 9L20 12L21 12L21 13L19 13L19 14L17 14L17 13L18 13L18 12L17 12L17 11L18 11L18 9L16 9L16 8L17 8L17 7L18 7L18 8L19 8L19 7L20 7L20 5L19 5L19 7L18 7L18 6L17 6L17 7L16 7L16 8L14 8L14 9L16 9L16 11L15 11L15 13L13 13L13 14L12 14L12 12L14 12L14 11L13 11L13 10L11 10L11 9L10 9L10 10L11 10L11 11L10 11L10 14L9 14L9 15L10 15L10 14L12 14L12 15L15 15L15 14L17 14L17 15L16 15L16 16L18 16L18 15L19 15L19 17L16 17L16 18L19 18L19 19L17 19L17 20L16 20L16 21L15 21L15 16L14 16L14 17L13 17L13 16L12 16L12 18L11 18L11 19L12 19L12 20L10 20L10 19L9 19L9 20L10 20L10 21L9 21L9 22L10 22L10 23L8 23L8 25L10 25L10 23L11 23L11 24L14 24L14 22L16 22L16 21L17 21L17 23L19 23L19 24L20 24L20 26L21 26L21 25L22 25L22 27L20 27L20 28L22 28L22 29L19 29L19 25L15 25L15 26L14 26L14 25L13 25L13 26L12 26L12 25L11 25L11 26L12 26L12 28L11 28L11 27L9 27L9 30L11 30L11 31L12 31L12 30L11 30L11 29L13 29L13 27L14 27L14 30L13 30L13 32L12 32L12 34L11 34L11 33L10 33L10 31L6 31L6 32L3 32L3 33L2 33L2 35L3 35L3 36L2 36L2 38L3 38L3 39L2 39L2 40L4 40L4 39L5 39L5 38L7 38L7 39L6 39L6 40L7 40L7 39L8 39L8 38L9 38L9 42L7 42L7 41L6 41L6 42L7 42L7 43L6 43L6 44L5 44L5 45L4 45L4 46L3 46L3 47L5 47L5 46L7 46L7 47L8 47L8 48L9 48L9 49L10 49L10 50L12 50L12 52L15 52L15 50L12 50L12 49L13 49L13 48L14 48L14 49L15 49L15 44L17 44L17 45L16 45L16 46L17 46L17 47L16 47L16 48L17 48L17 47L18 47L18 48L19 48L19 49L16 49L16 51L18 51L18 50L21 50L21 49L20 49L20 48L19 48L19 47L18 47L18 46L17 46L17 45L18 45L18 44L17 44L17 43L18 43L18 41L15 41L15 40L13 40L13 39L16 39L16 40L17 40L17 38L19 38L19 39L18 39L18 40L19 40L19 39L20 39L20 38L19 38L19 37L21 37L21 40L22 40L22 41L20 41L20 42L19 42L19 45L20 45L20 43L22 43L22 41L24 41L24 39L23 39L23 38L24 38L24 37L23 37L23 36L24 36L24 35L25 35L25 36L26 36L26 37L25 37L25 44L23 44L23 45L22 45L22 44L21 44L21 45L22 45L22 47L23 47L23 48L31 48L31 49L32 49L32 51L31 51L31 52L32 52L32 54L35 54L35 56L36 56L36 55L37 55L37 54L36 54L36 52L37 52L37 51L36 51L36 50L39 50L39 51L38 51L38 54L39 54L39 52L40 52L40 51L41 51L41 52L42 52L42 51L43 51L43 50L41 50L41 48L42 48L42 47L45 47L45 46L42 46L42 45L43 45L43 44L41 44L41 43L42 43L42 42L41 42L41 40L42 40L42 39L43 39L43 40L44 40L44 41L45 41L45 43L47 43L47 42L48 42L48 43L49 43L49 41L51 41L51 42L50 42L50 43L51 43L51 42L53 42L53 43L52 43L52 44L50 44L50 45L49 45L49 46L50 46L50 47L52 47L52 48L54 48L54 49L55 49L55 50L56 50L56 48L54 48L54 47L55 47L55 46L53 46L53 45L52 45L52 44L53 44L53 43L54 43L54 41L51 41L51 40L53 40L53 39L51 39L51 38L53 38L53 37L51 37L51 36L52 36L52 34L53 34L53 35L54 35L54 34L53 34L53 33L51 33L51 34L50 34L50 32L49 32L49 31L48 31L48 29L46 29L46 30L45 30L45 26L46 26L46 28L47 28L47 27L48 27L48 26L47 26L47 25L49 25L49 26L51 26L51 25L52 25L52 26L53 26L53 27L55 27L55 28L54 28L54 29L53 29L53 32L54 32L54 33L55 33L55 32L54 32L54 29L55 29L55 30L56 30L56 29L55 29L55 28L56 28L56 27L55 27L55 26L54 26L54 24L50 24L50 22L51 22L51 23L53 23L53 22L54 22L54 23L55 23L55 22L54 22L54 21L55 21L55 20L54 20L54 21L53 21L53 20L52 20L52 21L51 21L51 19L53 19L53 18L54 18L54 17L55 17L55 18L56 18L56 17L55 17L55 16L56 16L56 15L55 15L55 16L54 16L54 15L53 15L53 13L55 13L55 14L56 14L56 13L55 13L55 12L54 12L54 11L53 11L53 10L52 10L52 11L49 11L49 12L47 12L47 11L48 11L48 9L49 9L49 8L48 8L48 9L46 9L46 6L45 6L45 5L44 5L44 4L46 4L46 5L47 5L47 3L43 3L43 2L44 2L44 1L42 1L42 2L41 2L41 3L40 3L40 4L38 4L38 6L37 6L37 5L36 5L36 3L38 3L38 2L35 2L35 4L34 4L34 5L33 5L33 3L34 3L34 2L33 2L33 1ZM45 1L45 2L47 2L47 1ZM9 3L9 4L10 4L10 6L11 6L11 5L12 5L12 4L13 4L13 3L12 3L12 4L10 4L10 3ZM41 3L41 4L40 4L40 5L41 5L41 6L40 6L40 8L42 8L42 10L41 10L41 11L42 11L42 14L41 14L41 15L40 15L40 16L39 16L39 17L40 17L40 18L37 18L37 17L38 17L38 16L36 16L36 17L35 17L35 16L33 16L33 17L32 17L32 18L34 18L34 19L31 19L31 20L29 20L29 21L27 21L27 20L28 20L28 19L29 19L29 18L31 18L31 17L29 17L29 16L28 16L28 15L29 15L29 14L30 14L30 13L28 13L28 14L27 14L27 16L25 16L25 15L26 15L26 14L25 14L25 13L24 13L24 11L25 11L25 9L21 9L21 10L22 10L22 11L21 11L21 12L22 12L22 13L21 13L21 14L22 14L22 13L24 13L24 14L23 14L23 15L24 15L24 17L22 17L22 15L21 15L21 16L20 16L20 17L21 17L21 18L23 18L23 19L19 19L19 20L17 20L17 21L20 21L20 20L21 20L21 21L22 21L22 22L24 22L24 21L25 21L25 22L26 22L26 23L25 23L25 24L24 24L24 23L22 23L22 24L24 24L24 25L23 25L23 28L25 28L25 27L26 27L26 30L25 30L25 29L23 29L23 30L22 30L22 31L21 31L21 32L20 32L20 33L21 33L21 34L20 34L20 35L21 35L21 37L22 37L22 38L23 38L23 37L22 37L22 33L21 33L21 32L24 32L24 33L23 33L23 34L25 34L25 35L26 35L26 36L27 36L27 35L26 35L26 34L27 34L27 33L29 33L29 34L30 34L30 35L29 35L29 39L31 39L31 38L32 38L32 33L31 33L31 32L33 32L33 31L35 31L35 32L34 32L34 33L33 33L33 34L34 34L34 35L33 35L33 36L35 36L35 34L36 34L36 35L40 35L40 36L39 36L39 38L38 38L38 37L37 37L37 36L36 36L36 39L35 39L35 38L34 38L34 39L35 39L35 40L33 40L33 39L32 39L32 40L33 40L33 41L36 41L36 42L32 42L32 41L31 41L31 40L30 40L30 41L29 41L29 40L28 40L28 39L27 39L27 38L28 38L28 37L26 37L26 39L27 39L27 40L28 40L28 41L29 41L29 43L28 43L28 42L27 42L27 41L26 41L26 42L27 42L27 43L26 43L26 44L25 44L25 45L23 45L23 47L25 47L25 45L26 45L26 44L28 44L28 45L27 45L27 46L26 46L26 47L31 47L31 48L33 48L33 47L35 47L35 48L36 48L36 49L35 49L35 50L34 50L34 49L33 49L33 50L34 50L34 51L32 51L32 52L33 52L33 53L34 53L34 51L35 51L35 52L36 52L36 51L35 51L35 50L36 50L36 49L38 49L38 47L39 47L39 48L41 48L41 47L42 47L42 46L40 46L40 45L39 45L39 46L37 46L37 48L36 48L36 47L35 47L35 46L33 46L33 45L32 45L32 44L30 44L30 45L31 45L31 46L28 46L28 45L29 45L29 43L33 43L33 44L34 44L34 43L35 43L35 44L36 44L36 45L38 45L38 44L36 44L36 43L39 43L39 44L40 44L40 43L41 43L41 42L40 42L40 40L41 40L41 39L39 39L39 38L40 38L40 36L41 36L41 35L40 35L40 34L43 34L43 33L44 33L44 34L45 34L45 36L48 36L48 37L47 37L47 38L48 38L48 39L49 39L49 38L51 38L51 37L50 37L50 36L51 36L51 35L50 35L50 36L48 36L48 35L49 35L49 34L48 34L48 33L47 33L47 32L48 32L48 31L47 31L47 30L46 30L46 31L45 31L45 30L44 30L44 32L43 32L43 31L42 31L42 30L43 30L43 29L44 29L44 26L45 26L45 25L47 25L47 24L49 24L49 22L50 22L50 15L51 15L51 16L52 16L52 15L51 15L51 14L52 14L52 13L51 13L51 12L50 12L50 13L51 13L51 14L49 14L49 13L47 13L47 14L46 14L46 12L45 12L45 11L46 11L46 10L45 10L45 9L44 9L44 8L43 8L43 6L42 6L42 5L43 5L43 4L42 4L42 3ZM27 5L27 8L30 8L30 5ZM34 5L34 7L33 7L33 6L32 6L32 7L33 7L33 8L35 8L35 6L36 6L36 5ZM28 6L28 7L29 7L29 6ZM38 6L38 7L39 7L39 6ZM41 6L41 7L42 7L42 6ZM44 6L44 7L45 7L45 6ZM55 8L55 10L57 10L57 9L56 9L56 8ZM1 9L1 10L3 10L3 11L4 11L4 10L3 10L3 9ZM43 9L43 10L42 10L42 11L43 11L43 13L45 13L45 12L44 12L44 11L45 11L45 10L44 10L44 9ZM23 10L23 11L24 11L24 10ZM26 10L26 11L27 11L27 10ZM43 10L43 11L44 11L44 10ZM6 11L6 12L7 12L7 11ZM52 11L52 12L53 12L53 11ZM16 12L16 13L17 13L17 12ZM31 12L31 13L32 13L32 12ZM39 13L39 14L40 14L40 13ZM24 14L24 15L25 15L25 14ZM42 14L42 15L41 15L41 16L40 16L40 17L44 17L44 18L40 18L40 19L39 19L39 20L38 20L38 19L34 19L34 20L32 20L32 21L33 21L33 22L35 22L35 23L36 23L36 24L37 24L37 25L38 25L38 26L37 26L37 27L38 27L38 28L39 28L39 29L37 29L37 30L39 30L39 31L36 31L36 32L35 32L35 33L34 33L34 34L35 34L35 33L36 33L36 32L40 32L40 33L37 33L37 34L40 34L40 33L43 33L43 32L40 32L40 30L42 30L42 29L43 29L43 28L42 28L42 27L43 27L43 26L42 26L42 25L41 25L41 24L42 24L42 23L44 23L44 25L45 25L45 24L47 24L47 21L46 21L46 20L48 20L48 19L46 19L46 20L43 20L43 19L45 19L45 18L47 18L47 17L49 17L49 15L45 15L45 14ZM5 15L5 17L6 17L6 18L9 18L9 16L8 16L8 15ZM42 15L42 16L45 16L45 15ZM6 16L6 17L7 17L7 16ZM10 16L10 17L11 17L11 16ZM27 16L27 17L28 17L28 16ZM46 16L46 17L47 17L47 16ZM53 16L53 17L51 17L51 18L53 18L53 17L54 17L54 16ZM25 17L25 18L26 18L26 20L27 20L27 19L28 19L28 18L26 18L26 17ZM34 17L34 18L35 18L35 17ZM4 19L4 20L3 20L3 21L1 21L1 23L2 23L2 22L4 22L4 23L5 23L5 19ZM6 19L6 20L7 20L7 21L6 21L6 22L8 22L8 19ZM13 19L13 20L12 20L12 21L10 21L10 22L11 22L11 23L12 23L12 22L14 22L14 21L13 21L13 20L14 20L14 19ZM40 19L40 20L39 20L39 21L40 21L40 20L41 20L41 19ZM22 20L22 21L24 21L24 20ZM36 20L36 21L37 21L37 20ZM41 21L41 23L42 23L42 22L43 22L43 21ZM44 21L44 23L46 23L46 22L45 22L45 21ZM19 22L19 23L20 23L20 22ZM27 22L27 23L29 23L29 24L25 24L25 26L26 26L26 25L28 25L28 26L29 26L29 25L31 25L31 28L32 28L32 29L33 29L33 30L36 30L36 29L33 29L33 28L34 28L34 27L35 27L35 28L36 28L36 26L35 26L35 24L34 24L34 23L33 23L33 24L32 24L32 25L31 25L31 22ZM36 22L36 23L37 23L37 24L38 24L38 25L39 25L39 24L40 24L40 22ZM6 23L6 24L7 24L7 23ZM15 23L15 24L16 24L16 23ZM38 23L38 24L39 24L39 23ZM3 24L3 26L5 26L5 25L4 25L4 24ZM6 25L6 26L7 26L7 25ZM32 25L32 26L33 26L33 27L32 27L32 28L33 28L33 27L34 27L34 26L33 26L33 25ZM40 25L40 27L42 27L42 26L41 26L41 25ZM1 26L1 27L2 27L2 26ZM15 26L15 30L14 30L14 31L16 31L16 33L15 33L15 32L13 32L13 33L15 33L15 34L14 34L14 35L13 35L13 36L14 36L14 37L15 37L15 38L16 38L16 37L15 37L15 36L16 36L16 35L19 35L19 34L18 34L18 33L19 33L19 31L20 31L20 30L19 30L19 29L18 29L18 28L17 28L17 27L18 27L18 26ZM5 27L5 30L8 30L8 27ZM27 27L27 30L30 30L30 27ZM49 27L49 30L52 30L52 27ZM6 28L6 29L7 29L7 28ZM10 28L10 29L11 29L11 28ZM28 28L28 29L29 29L29 28ZM50 28L50 29L51 29L51 28ZM16 29L16 31L18 31L18 29ZM39 29L39 30L40 30L40 29ZM23 30L23 31L24 31L24 30ZM25 31L25 32L27 32L27 31ZM29 31L29 33L30 33L30 31ZM46 31L46 32L44 32L44 33L45 33L45 34L47 34L47 33L46 33L46 32L47 32L47 31ZM6 32L6 33L5 33L5 36L3 36L3 37L4 37L4 38L5 38L5 36L6 36L6 37L7 37L7 36L9 36L9 35L7 35L7 34L8 34L8 32ZM3 33L3 35L4 35L4 33ZM6 33L6 34L7 34L7 33ZM9 33L9 34L10 34L10 36L11 36L11 37L9 37L9 38L12 38L12 39L13 39L13 38L12 38L12 35L11 35L11 34L10 34L10 33ZM16 33L16 34L17 34L17 33ZM25 33L25 34L26 34L26 33ZM6 35L6 36L7 36L7 35ZM43 35L43 37L41 37L41 38L43 38L43 37L44 37L44 38L45 38L45 37L44 37L44 35ZM17 36L17 37L19 37L19 36ZM30 36L30 38L31 38L31 36ZM54 36L54 39L55 39L55 36ZM48 37L48 38L49 38L49 37ZM37 38L37 39L38 39L38 40L37 40L37 41L38 41L38 42L39 42L39 43L40 43L40 42L39 42L39 41L38 41L38 40L39 40L39 39L38 39L38 38ZM46 39L46 40L45 40L45 41L47 41L47 39ZM50 39L50 40L51 40L51 39ZM10 40L10 42L9 42L9 43L10 43L10 45L9 45L9 46L10 46L10 47L9 47L9 48L11 48L11 49L12 49L12 48L13 48L13 47L14 47L14 46L12 46L12 47L11 47L11 46L10 46L10 45L11 45L11 43L10 43L10 42L12 42L12 41L11 41L11 40ZM14 41L14 42L13 42L13 45L14 45L14 42L15 42L15 41ZM7 43L7 44L6 44L6 45L8 45L8 43ZM44 44L44 45L45 45L45 44ZM47 44L47 45L46 45L46 46L47 46L47 45L48 45L48 44ZM50 45L50 46L52 46L52 47L53 47L53 46L52 46L52 45ZM31 46L31 47L33 47L33 46ZM25 49L25 50L26 50L26 49ZM27 49L27 52L30 52L30 49ZM39 49L39 50L40 50L40 49ZM49 49L49 52L52 52L52 49ZM28 50L28 51L29 51L29 50ZM50 50L50 51L51 51L51 50ZM25 51L25 53L26 53L26 51ZM55 51L55 52L56 52L56 51ZM11 53L11 54L10 54L10 55L11 55L11 54L12 54L12 53ZM15 53L15 54L16 54L16 53ZM49 53L49 55L50 55L50 54L51 54L51 55L53 55L53 54L51 54L51 53ZM27 55L27 56L28 56L28 55ZM41 55L41 57L42 57L42 56L43 56L43 57L44 57L44 56L43 56L43 55ZM0 0L0 7L7 7L7 0ZM1 1L1 6L6 6L6 1ZM2 2L2 5L5 5L5 2ZM50 0L50 7L57 7L57 0ZM51 1L51 6L56 6L56 1ZM52 2L52 5L55 5L55 2ZM0 50L0 57L7 57L7 50ZM1 51L1 56L6 56L6 51ZM2 52L2 55L5 55L5 52Z" fill="#000000"/></g></g></svg>
