<?xml version="1.0" encoding="UTF-8"?>
<svg xmlns="http://www.w3.org/2000/svg" version="1.1" width="300" height="300" viewBox="0 0 300 300"><rect x="0" y="0" width="300" height="300" fill="#ffffff"/><g transform="scale(4.918)"><g transform="translate(2,2)"><path fill-rule="evenodd" d="M9 0L9 1L8 1L8 2L9 2L9 3L8 3L8 4L9 4L9 5L8 5L8 7L9 7L9 6L10 6L10 7L11 7L11 9L10 9L10 8L6 8L6 9L8 9L8 10L6 10L6 11L8 11L8 12L9 12L9 11L10 11L10 10L12 10L12 11L14 11L14 12L11 12L11 13L17 13L17 14L15 14L15 15L14 15L14 14L9 14L9 13L8 13L8 14L6 14L6 15L5 15L5 14L3 14L3 11L4 11L4 13L5 13L5 11L4 11L4 9L5 9L5 8L0 8L0 12L2 12L2 13L0 13L0 14L3 14L3 15L4 15L4 16L6 16L6 17L2 17L2 18L1 18L1 16L2 16L2 15L0 15L0 18L1 18L1 20L2 20L2 21L3 21L3 22L2 22L2 23L3 23L3 24L4 24L4 28L3 28L3 26L2 26L2 24L0 24L0 27L2 27L2 28L1 28L1 29L2 29L2 30L0 30L0 31L2 31L2 32L0 32L0 33L3 33L3 35L2 35L2 36L1 36L1 34L0 34L0 36L1 36L1 37L0 37L0 39L1 39L1 40L0 40L0 41L1 41L1 40L2 40L2 42L4 42L4 44L5 44L5 43L7 43L7 44L6 44L6 45L7 45L7 44L9 44L9 45L8 45L8 46L5 46L5 45L4 45L4 46L5 46L5 47L3 47L3 46L2 46L2 45L3 45L3 44L2 44L2 43L1 43L1 42L0 42L0 43L1 43L1 46L0 46L0 48L5 48L5 47L8 47L8 46L11 46L11 48L13 48L13 46L14 46L14 47L15 47L15 48L14 48L14 49L12 49L12 50L11 50L11 51L9 51L9 48L10 48L10 47L9 47L9 48L8 48L8 51L9 51L9 52L8 52L8 57L10 57L10 55L11 55L11 56L12 56L12 57L13 57L13 56L14 56L14 55L16 55L16 57L17 57L17 55L18 55L18 57L19 57L19 55L20 55L20 54L17 54L17 53L20 53L20 52L21 52L21 53L22 53L22 54L21 54L21 55L22 55L22 54L24 54L24 53L26 53L26 54L27 54L27 53L28 53L28 54L30 54L30 53L31 53L31 55L34 55L34 56L30 56L30 55L29 55L29 56L30 56L30 57L38 57L38 56L37 56L37 55L39 55L39 56L42 56L42 57L43 57L43 56L47 56L47 57L48 57L48 56L50 56L50 55L51 55L51 57L52 57L52 56L53 56L53 57L54 57L54 56L55 56L55 57L56 57L56 56L55 56L55 55L54 55L54 56L53 56L53 55L51 55L51 54L53 54L53 48L55 48L55 50L57 50L57 49L56 49L56 48L55 48L55 47L56 47L56 46L57 46L57 44L56 44L56 45L54 45L54 44L55 44L55 43L56 43L56 42L55 42L55 41L54 41L54 43L53 43L53 42L51 42L51 41L52 41L52 37L54 37L54 36L56 36L56 38L53 38L53 40L55 40L55 39L57 39L57 36L56 36L56 34L57 34L57 33L56 33L56 30L57 30L57 28L56 28L56 25L57 25L57 23L56 23L56 22L57 22L57 21L53 21L53 22L52 22L52 24L50 24L50 25L48 25L48 24L49 24L49 22L50 22L50 23L51 23L51 22L50 22L50 19L51 19L51 20L52 20L52 19L51 19L51 18L52 18L52 17L51 17L51 16L55 16L55 15L56 15L56 16L57 16L57 15L56 15L56 14L57 14L57 13L56 13L56 14L53 14L53 15L51 15L51 16L50 16L50 17L51 17L51 18L49 18L49 16L47 16L47 18L46 18L46 17L44 17L44 16L46 16L46 15L50 15L50 11L51 11L51 10L52 10L52 8L51 8L51 10L49 10L49 9L50 9L50 8L49 8L49 6L48 6L48 8L49 8L49 9L47 9L47 10L46 10L46 9L45 9L45 10L46 10L46 11L47 11L47 10L48 10L48 12L49 12L49 13L47 13L47 14L46 14L46 12L45 12L45 14L44 14L44 10L43 10L43 9L44 9L44 8L45 8L45 6L46 6L46 7L47 7L47 5L48 5L48 0L46 0L46 1L47 1L47 2L42 2L42 1L43 1L43 0L42 0L42 1L36 1L36 0L35 0L35 1L34 1L34 0L30 0L30 1L29 1L29 2L28 2L28 0L27 0L27 3L31 3L31 4L26 4L26 3L25 3L25 2L26 2L26 0L24 0L24 1L23 1L23 0L21 0L21 1L23 1L23 2L24 2L24 3L23 3L23 4L22 4L22 2L20 2L20 3L21 3L21 4L19 4L19 3L18 3L18 4L19 4L19 5L20 5L20 7L19 7L19 6L18 6L18 5L17 5L17 6L16 6L16 7L15 7L15 5L16 5L16 4L14 4L14 2L13 2L13 0L12 0L12 2L11 2L11 0ZM14 0L14 1L15 1L15 0ZM44 0L44 1L45 1L45 0ZM9 1L9 2L10 2L10 1ZM18 1L18 2L19 2L19 1ZM24 1L24 2L25 2L25 1ZM30 1L30 2L34 2L34 1ZM15 2L15 3L16 3L16 2ZM35 2L35 3L32 3L32 4L31 4L31 7L32 7L32 8L31 8L31 9L32 9L32 10L31 10L31 11L30 11L30 12L28 12L28 13L25 13L25 12L27 12L27 11L29 11L29 10L27 10L27 9L25 9L25 8L26 8L26 4L25 4L25 8L24 8L24 6L23 6L23 5L24 5L24 4L23 4L23 5L22 5L22 4L21 4L21 9L20 9L20 8L19 8L19 9L18 9L18 6L17 6L17 7L16 7L16 8L14 8L14 5L13 5L13 3L10 3L10 5L11 5L11 4L12 4L12 6L11 6L11 7L12 7L12 8L13 8L13 9L15 9L15 11L18 11L18 10L19 10L19 9L20 9L20 11L19 11L19 14L21 14L21 13L22 13L22 15L23 15L23 14L24 14L24 13L25 13L25 14L26 14L26 15L25 15L25 16L24 16L24 17L25 17L25 18L24 18L24 20L23 20L23 18L22 18L22 19L19 19L19 17L20 17L20 18L21 18L21 17L20 17L20 16L21 16L21 15L20 15L20 16L19 16L19 15L18 15L18 14L17 14L17 17L16 17L16 15L15 15L15 16L14 16L14 15L13 15L13 16L12 16L12 15L10 15L10 16L11 16L11 17L13 17L13 19L12 19L12 18L10 18L10 17L9 17L9 16L8 16L8 15L9 15L9 14L8 14L8 15L6 15L6 16L8 16L8 17L6 17L6 18L8 18L8 19L9 19L9 21L8 21L8 20L7 20L7 19L6 19L6 20L4 20L4 19L3 19L3 18L2 18L2 20L3 20L3 21L4 21L4 22L3 22L3 23L4 23L4 24L5 24L5 26L7 26L7 25L9 25L9 23L10 23L10 22L11 22L11 21L12 21L12 23L13 23L13 21L14 21L14 22L16 22L16 21L17 21L17 22L20 22L20 23L19 23L19 25L18 25L18 24L16 24L16 23L15 23L15 24L14 24L14 25L15 25L15 26L17 26L17 25L18 25L18 27L16 27L16 28L18 28L18 29L15 29L15 33L14 33L14 32L13 32L13 31L14 31L14 30L13 30L13 29L14 29L14 28L13 28L13 29L12 29L12 28L11 28L11 27L10 27L10 28L9 28L9 29L10 29L10 30L11 30L11 31L10 31L10 32L8 32L8 31L4 31L4 30L2 30L2 31L3 31L3 32L4 32L4 34L5 34L5 33L6 33L6 34L7 34L7 33L8 33L8 36L10 36L10 37L11 37L11 36L12 36L12 37L13 37L13 38L12 38L12 39L9 39L9 37L6 37L6 38L8 38L8 39L6 39L6 40L3 40L3 38L2 38L2 37L3 37L3 36L2 36L2 37L1 37L1 38L2 38L2 40L3 40L3 41L5 41L5 42L8 42L8 41L6 41L6 40L8 40L8 39L9 39L9 42L10 42L10 43L9 43L9 44L10 44L10 43L11 43L11 42L13 42L13 41L14 41L14 42L16 42L16 44L17 44L17 45L15 45L15 47L17 47L17 49L16 49L16 48L15 48L15 49L16 49L16 50L17 50L17 51L16 51L16 53L15 53L15 51L14 51L14 52L13 52L13 51L12 51L12 52L11 52L11 53L10 53L10 52L9 52L9 53L10 53L10 54L9 54L9 55L10 55L10 54L11 54L11 55L14 55L14 54L11 54L11 53L15 53L15 54L16 54L16 53L17 53L17 51L18 51L18 52L20 52L20 51L23 51L23 52L22 52L22 53L24 53L24 51L25 51L25 52L26 52L26 51L25 51L25 50L26 50L26 47L25 47L25 48L21 48L21 49L20 49L20 47L21 47L21 45L22 45L22 47L23 47L23 46L24 46L24 45L25 45L25 46L27 46L27 45L28 45L28 47L29 47L29 48L31 48L31 50L32 50L32 51L31 51L31 52L32 52L32 54L34 54L34 55L36 55L36 54L35 54L35 53L36 53L36 52L37 52L37 54L39 54L39 52L40 52L40 55L41 55L41 52L40 52L40 51L42 51L42 53L43 53L43 54L42 54L42 55L46 55L46 54L47 54L47 56L48 56L48 54L51 54L51 53L48 53L48 52L47 52L47 53L46 53L46 52L45 52L45 50L47 50L47 51L48 51L48 48L50 48L50 47L52 47L52 48L53 48L53 45L51 45L51 44L49 44L49 45L48 45L48 44L47 44L47 45L46 45L46 46L47 46L47 47L46 47L46 49L45 49L45 48L42 48L42 47L44 47L44 45L45 45L45 44L40 44L40 42L41 42L41 43L43 43L43 42L41 42L41 40L42 40L42 41L45 41L45 40L42 40L42 38L41 38L41 36L43 36L43 34L42 34L42 33L44 33L44 37L43 37L43 39L45 39L45 38L47 38L47 37L48 37L48 39L47 39L47 40L46 40L46 42L44 42L44 43L46 43L46 42L48 42L48 43L49 43L49 42L48 42L48 41L51 41L51 37L52 37L52 34L53 34L53 36L54 36L54 35L55 35L55 34L56 34L56 33L55 33L55 32L54 32L54 31L52 31L52 32L54 32L54 33L51 33L51 32L50 32L50 31L48 31L48 29L46 29L46 30L44 30L44 29L45 29L45 28L44 28L44 27L46 27L46 28L47 28L47 27L48 27L48 25L46 25L46 26L44 26L44 25L45 25L45 24L48 24L48 23L47 23L47 21L48 21L48 20L49 20L49 19L48 19L48 18L47 18L47 19L46 19L46 18L44 18L44 19L46 19L46 20L47 20L47 21L45 21L45 20L43 20L43 18L42 18L42 16L44 16L44 14L42 14L42 11L43 11L43 10L41 10L41 9L42 9L42 8L44 8L44 6L45 6L45 5L47 5L47 3L43 3L43 7L42 7L42 6L41 6L41 7L42 7L42 8L40 8L40 9L36 9L36 8L38 8L38 5L39 5L39 2L38 2L38 5L36 5L36 3L37 3L37 2ZM40 3L40 5L41 5L41 3ZM44 4L44 5L45 5L45 4ZM27 5L27 8L30 8L30 5ZM34 5L34 8L36 8L36 7L37 7L37 6L36 6L36 5ZM12 6L12 7L13 7L13 6ZM22 6L22 8L23 8L23 9L21 9L21 10L22 10L22 11L20 11L20 13L21 13L21 12L22 12L22 13L24 13L24 12L25 12L25 9L24 9L24 8L23 8L23 6ZM28 6L28 7L29 7L29 6ZM32 6L32 7L33 7L33 6ZM35 6L35 7L36 7L36 6ZM39 6L39 7L40 7L40 6ZM16 8L16 9L17 9L17 10L18 10L18 9L17 9L17 8ZM53 8L53 9L54 9L54 8ZM55 8L55 11L54 11L54 10L53 10L53 11L52 11L52 12L53 12L53 11L54 11L54 12L57 12L57 11L56 11L56 10L57 10L57 9L56 9L56 8ZM1 9L1 10L3 10L3 9ZM9 9L9 10L10 10L10 9ZM23 9L23 10L24 10L24 9ZM33 9L33 11L31 11L31 12L33 12L33 13L32 13L32 14L33 14L33 15L31 15L31 14L30 14L30 13L28 13L28 14L27 14L27 16L25 16L25 17L26 17L26 18L28 18L28 20L29 20L29 21L28 21L28 22L27 22L27 21L26 21L26 19L25 19L25 20L24 20L24 21L22 21L22 20L21 20L21 21L22 21L22 22L24 22L24 21L25 21L25 22L26 22L26 23L25 23L25 24L27 24L27 25L26 25L26 26L25 26L25 25L24 25L24 23L23 23L23 29L24 29L24 30L22 30L22 31L21 31L21 30L19 30L19 29L22 29L22 28L20 28L20 27L22 27L22 25L21 25L21 26L20 26L20 25L19 25L19 29L18 29L18 30L19 30L19 31L21 31L21 32L18 32L18 33L19 33L19 34L18 34L18 35L20 35L20 33L21 33L21 34L23 34L23 35L21 35L21 37L19 37L19 36L17 36L17 35L16 35L16 33L17 33L17 32L16 32L16 33L15 33L15 35L14 35L14 34L12 34L12 33L13 33L13 32L12 32L12 31L11 31L11 32L10 32L10 33L11 33L11 34L12 34L12 35L13 35L13 37L14 37L14 38L16 38L16 37L14 37L14 36L17 36L17 38L18 38L18 39L17 39L17 41L18 41L18 43L17 43L17 44L18 44L18 45L17 45L17 46L18 46L18 47L19 47L19 45L21 45L21 44L22 44L22 45L24 45L24 44L25 44L25 45L26 45L26 44L27 44L27 43L28 43L28 42L27 42L27 41L28 41L28 39L27 39L27 38L28 38L28 37L26 37L26 40L27 40L27 41L26 41L26 42L27 42L27 43L26 43L26 44L25 44L25 41L24 41L24 40L25 40L25 36L27 36L27 35L26 35L26 34L25 34L25 33L22 33L22 31L23 31L23 32L26 32L26 31L27 31L27 33L29 33L29 34L30 34L30 35L29 35L29 39L31 39L31 40L29 40L29 42L30 42L30 43L29 43L29 44L28 44L28 45L29 45L29 47L31 47L31 48L33 48L33 49L34 49L34 48L35 48L35 50L33 50L33 51L32 51L32 52L34 52L34 53L35 53L35 52L36 52L36 51L37 51L37 50L38 50L38 52L39 52L39 51L40 51L40 50L38 50L38 49L40 49L40 48L41 48L41 47L42 47L42 46L43 46L43 45L42 45L42 46L41 46L41 45L40 45L40 44L39 44L39 43L38 43L38 44L36 44L36 43L35 43L35 45L36 45L36 47L37 47L37 48L35 48L35 46L32 46L32 44L34 44L34 41L33 41L33 43L31 43L31 42L32 42L32 41L31 41L31 40L32 40L32 39L31 39L31 38L32 38L32 34L34 34L34 35L37 35L37 36L36 36L36 37L35 37L35 38L36 38L36 40L35 40L35 39L34 39L34 38L33 38L33 39L34 39L34 40L35 40L35 41L36 41L36 42L38 42L38 41L39 41L39 42L40 42L40 41L39 41L39 40L38 40L38 39L37 39L37 38L38 38L38 37L40 37L40 36L41 36L41 35L42 35L42 34L41 34L41 33L42 33L42 32L46 32L46 33L45 33L45 34L46 34L46 35L45 35L45 36L46 36L46 37L47 37L47 36L46 36L46 35L48 35L48 33L47 33L47 32L48 32L48 31L47 31L47 30L46 30L46 31L42 31L42 30L43 30L43 29L44 29L44 28L43 28L43 27L44 27L44 26L43 26L43 25L44 25L44 24L45 24L45 21L44 21L44 24L42 24L42 22L43 22L43 21L42 21L42 22L41 22L41 21L40 21L40 20L41 20L41 19L42 19L42 18L41 18L41 19L40 19L40 20L39 20L39 18L40 18L40 16L41 16L41 15L42 15L42 14L41 14L41 13L40 13L40 12L41 12L41 11L40 11L40 12L39 12L39 10L36 10L36 9L35 9L35 10L34 10L34 9ZM26 10L26 11L27 11L27 10ZM35 10L35 11L34 11L34 12L36 12L36 10ZM23 11L23 12L24 12L24 11ZM6 12L6 13L7 13L7 12ZM17 12L17 13L18 13L18 12ZM38 12L38 13L37 13L37 14L36 14L36 16L35 16L35 15L33 15L33 16L30 16L30 14L29 14L29 15L28 15L28 16L27 16L27 17L28 17L28 16L29 16L29 17L32 17L32 18L29 18L29 19L34 19L34 18L35 18L35 20L32 20L32 21L33 21L33 23L31 23L31 22L30 22L30 21L29 21L29 22L28 22L28 23L27 23L27 24L28 24L28 25L27 25L27 26L30 26L30 23L31 23L31 24L33 24L33 23L34 23L34 24L37 24L37 23L38 23L38 24L39 24L39 25L38 25L38 26L40 26L40 28L39 28L39 27L37 27L37 26L36 26L36 25L33 25L33 27L32 27L32 29L31 29L31 31L30 31L30 32L29 32L29 33L30 33L30 32L32 32L32 33L31 33L31 34L32 34L32 33L33 33L33 32L32 32L32 29L33 29L33 30L35 30L35 31L34 31L34 32L35 32L35 33L34 33L34 34L35 34L35 33L36 33L36 32L38 32L38 33L37 33L37 34L39 34L39 36L40 36L40 35L41 35L41 34L39 34L39 32L40 32L40 33L41 33L41 32L42 32L42 31L41 31L41 30L42 30L42 29L43 29L43 28L42 28L42 27L43 27L43 26L42 26L42 27L41 27L41 26L40 26L40 25L42 25L42 24L41 24L41 22L40 22L40 23L38 23L38 22L39 22L39 20L38 20L38 22L37 22L37 21L36 21L36 20L37 20L37 19L38 19L38 18L39 18L39 17L38 17L38 18L37 18L37 17L36 17L36 16L40 16L40 14L39 14L39 12ZM33 13L33 14L35 14L35 13ZM51 13L51 14L52 14L52 13ZM37 14L37 15L39 15L39 14ZM13 16L13 17L14 17L14 18L15 18L15 19L16 19L16 17L14 17L14 16ZM18 16L18 17L17 17L17 19L18 19L18 21L20 21L20 20L19 20L19 19L18 19L18 17L19 17L19 16ZM22 16L22 17L23 17L23 16ZM33 16L33 18L34 18L34 16ZM35 17L35 18L36 18L36 19L37 19L37 18L36 18L36 17ZM53 17L53 19L54 19L54 20L55 20L55 18L57 18L57 17ZM9 18L9 19L10 19L10 21L9 21L9 22L8 22L8 21L7 21L7 20L6 20L6 21L5 21L5 22L4 22L4 23L5 23L5 22L6 22L6 23L7 23L7 22L8 22L8 23L9 23L9 22L10 22L10 21L11 21L11 19L10 19L10 18ZM13 19L13 20L12 20L12 21L13 21L13 20L14 20L14 19ZM56 19L56 20L57 20L57 19ZM15 20L15 21L16 21L16 20ZM6 21L6 22L7 22L7 21ZM0 22L0 23L1 23L1 22ZM29 22L29 23L28 23L28 24L29 24L29 23L30 23L30 22ZM34 22L34 23L35 23L35 22ZM36 22L36 23L37 23L37 22ZM54 22L54 23L55 23L55 22ZM6 24L6 25L7 25L7 24ZM12 24L12 25L11 25L11 26L12 26L12 25L13 25L13 24ZM15 24L15 25L16 25L16 24ZM52 24L52 25L50 25L50 26L53 26L53 27L55 27L55 26L54 26L54 25L53 25L53 24ZM31 25L31 26L32 26L32 25ZM13 26L13 27L14 27L14 26ZM24 26L24 27L25 27L25 28L24 28L24 29L25 29L25 30L24 30L24 31L25 31L25 30L26 30L26 27L25 27L25 26ZM34 26L34 28L33 28L33 29L38 29L38 28L37 28L37 27L36 27L36 28L35 28L35 26ZM46 26L46 27L47 27L47 26ZM5 27L5 30L8 30L8 27ZM27 27L27 30L30 30L30 27ZM49 27L49 30L52 30L52 27ZM6 28L6 29L7 29L7 28ZM10 28L10 29L11 29L11 30L12 30L12 29L11 29L11 28ZM28 28L28 29L29 29L29 28ZM50 28L50 29L51 29L51 28ZM54 28L54 29L56 29L56 28ZM39 29L39 30L37 30L37 31L40 31L40 32L41 32L41 31L40 31L40 29ZM16 30L16 31L17 31L17 30ZM35 31L35 32L36 32L36 31ZM46 31L46 32L47 32L47 31ZM6 32L6 33L7 33L7 32ZM49 32L49 35L50 35L50 32ZM46 33L46 34L47 34L47 33ZM54 33L54 34L55 34L55 33ZM9 34L9 35L10 35L10 34ZM6 35L6 36L7 36L7 35ZM23 35L23 36L22 36L22 37L21 37L21 39L22 39L22 40L21 40L21 41L20 41L20 40L19 40L19 41L20 41L20 43L19 43L19 44L20 44L20 43L22 43L22 42L23 42L23 44L24 44L24 41L23 41L23 40L24 40L24 39L23 39L23 38L24 38L24 37L23 37L23 36L24 36L24 35ZM30 36L30 38L31 38L31 36ZM33 36L33 37L34 37L34 36ZM49 36L49 40L50 40L50 36ZM18 37L18 38L19 38L19 39L20 39L20 38L19 38L19 37ZM22 37L22 38L23 38L23 37ZM44 37L44 38L45 38L45 37ZM39 38L39 39L40 39L40 40L41 40L41 39L40 39L40 38ZM15 39L15 40L14 40L14 41L15 41L15 40L16 40L16 39ZM10 40L10 42L11 42L11 40ZM21 41L21 42L22 42L22 41ZM30 41L30 42L31 42L31 41ZM50 42L50 43L51 43L51 42ZM12 43L12 44L11 44L11 46L12 46L12 44L13 44L13 45L14 45L14 44L13 44L13 43ZM30 43L30 44L31 44L31 43ZM52 43L52 44L53 44L53 43ZM38 44L38 45L37 45L37 46L39 46L39 44ZM30 45L30 46L31 46L31 45ZM47 45L47 46L48 46L48 45ZM50 45L50 46L49 46L49 47L50 47L50 46L51 46L51 45ZM1 46L1 47L2 47L2 46ZM54 46L54 47L55 47L55 46ZM38 47L38 48L40 48L40 47ZM6 48L6 49L7 49L7 48ZM18 48L18 49L17 49L17 50L18 50L18 51L19 51L19 50L20 50L20 49L19 49L19 48ZM18 49L18 50L19 50L19 49ZM21 49L21 50L23 50L23 51L24 51L24 50L25 50L25 49ZM27 49L27 52L30 52L30 49ZM36 49L36 50L35 50L35 51L34 51L34 52L35 52L35 51L36 51L36 50L37 50L37 49ZM41 49L41 50L43 50L43 49ZM44 49L44 50L45 50L45 49ZM49 49L49 52L52 52L52 49ZM28 50L28 51L29 51L29 50ZM50 50L50 51L51 51L51 50ZM43 51L43 53L44 53L44 54L45 54L45 53L44 53L44 51ZM54 51L54 52L55 52L55 53L54 53L54 54L55 54L55 53L56 53L56 51ZM23 55L23 57L24 57L24 55ZM26 55L26 56L28 56L28 55ZM0 0L0 7L7 7L7 0ZM1 1L1 6L6 6L6 1ZM2 2L2 5L5 5L5 2ZM50 0L50 7L57 7L57 0ZM51 1L51 6L56 6L56 1ZM52 2L52 5L55 5L55 2ZM0 50L0 57L7 57L7 50ZM1 51L1 56L6 56L6 51ZM2 52L2 55L5 55L5 52Z" fill="#000000"/></g></g></svg>
