<?xml version="1.0" encoding="UTF-8"?>
<svg xmlns="http://www.w3.org/2000/svg" version="1.1" width="300" height="300" viewBox="0 0 300 300"><rect x="0" y="0" width="300" height="300" fill="#ffffff"/><g transform="scale(4.918)"><g transform="translate(2,2)"><path fill-rule="evenodd" d="M8 0L8 1L9 1L9 2L8 2L8 5L10 5L10 2L11 2L11 1L12 1L12 0ZM14 0L14 3L11 3L11 6L10 6L10 7L11 7L11 8L8 8L8 10L6 10L6 11L9 11L9 10L10 10L10 12L9 12L9 13L8 13L8 12L1 12L1 13L8 13L8 14L11 14L11 15L10 15L10 16L9 16L9 15L7 15L7 14L5 14L5 15L4 15L4 14L2 14L2 15L4 15L4 16L3 16L3 17L1 17L1 16L0 16L0 17L1 17L1 19L0 19L0 21L3 21L3 20L1 20L1 19L3 19L3 17L5 17L5 15L7 15L7 16L6 16L6 17L7 17L7 18L5 18L5 20L4 20L4 22L3 22L3 23L1 23L1 22L0 22L0 24L2 24L2 25L1 25L1 26L2 26L2 27L0 27L0 28L2 28L2 29L3 29L3 31L7 31L7 32L5 32L5 33L7 33L7 34L2 34L2 33L1 33L1 34L0 34L0 37L1 37L1 38L0 38L0 40L1 40L1 42L0 42L0 43L1 43L1 44L0 44L0 48L5 48L5 47L9 47L9 48L10 48L10 49L8 49L8 48L6 48L6 49L8 49L8 50L10 50L10 52L11 52L11 53L8 53L8 57L9 57L9 56L10 56L10 57L11 57L11 56L12 56L12 57L14 57L14 56L12 56L12 54L11 54L11 53L12 53L12 48L13 48L13 50L14 50L14 51L13 51L13 52L14 52L14 53L13 53L13 54L14 54L14 53L15 53L15 56L16 56L16 57L18 57L18 56L19 56L19 57L20 57L20 56L21 56L21 57L25 57L25 55L24 55L24 56L22 56L22 55L23 55L23 54L25 54L25 53L24 53L24 52L25 52L25 51L26 51L26 55L27 55L27 54L28 54L28 53L29 53L29 54L31 54L31 55L30 55L30 56L31 56L31 55L33 55L33 56L34 56L34 57L36 57L36 55L37 55L37 56L38 56L38 57L39 57L39 56L40 56L40 57L41 57L41 55L40 55L40 54L42 54L42 52L43 52L43 54L45 54L45 55L44 55L44 56L45 56L45 57L48 57L48 56L49 56L49 57L50 57L50 56L51 56L51 54L50 54L50 53L53 53L53 55L52 55L52 57L54 57L54 56L53 56L53 55L55 55L55 54L56 54L56 53L57 53L57 51L56 51L56 49L57 49L57 48L56 48L56 49L55 49L55 51L54 51L54 50L53 50L53 49L54 49L54 48L53 48L53 46L52 46L52 44L51 44L51 45L50 45L50 48L49 48L49 44L50 44L50 42L51 42L51 43L53 43L53 40L54 40L54 41L55 41L55 42L54 42L54 43L56 43L56 42L57 42L57 40L56 40L56 41L55 41L55 38L56 38L56 39L57 39L57 38L56 38L56 37L55 37L55 38L54 38L54 34L55 34L55 35L56 35L56 36L57 36L57 33L56 33L56 34L55 34L55 32L56 32L56 30L57 30L57 29L55 29L55 26L57 26L57 25L56 25L56 24L55 24L55 26L54 26L54 24L53 24L53 26L52 26L52 22L51 22L51 24L49 24L49 26L48 26L48 23L45 23L45 24L47 24L47 26L46 26L46 25L44 25L44 23L43 23L43 21L44 21L44 22L45 22L45 21L46 21L46 20L45 20L45 21L44 21L44 18L45 18L45 19L47 19L47 22L50 22L50 21L48 21L48 20L51 20L51 18L53 18L53 19L52 19L52 21L55 21L55 23L57 23L57 21L56 21L56 20L57 20L57 19L55 19L55 18L53 18L53 17L56 17L56 18L57 18L57 17L56 17L56 16L57 16L57 15L56 15L56 16L55 16L55 15L53 15L53 14L54 14L54 13L53 13L53 14L51 14L51 12L52 12L52 10L53 10L53 9L55 9L55 10L54 10L54 11L56 11L56 12L55 12L55 13L56 13L56 12L57 12L57 8L56 8L56 9L55 9L55 8L52 8L52 9L51 9L51 12L50 12L50 10L49 10L49 9L50 9L50 8L49 8L49 6L48 6L48 7L47 7L47 5L48 5L48 0L45 0L45 1L44 1L44 0L41 0L41 1L40 1L40 0L39 0L39 1L40 1L40 2L41 2L41 4L43 4L43 3L42 3L42 2L43 2L43 1L44 1L44 3L45 3L45 2L46 2L46 3L47 3L47 5L46 5L46 7L45 7L45 6L44 6L44 5L43 5L43 6L42 6L42 5L40 5L40 3L39 3L39 4L38 4L38 2L36 2L36 4L35 4L35 1L36 1L36 0L35 0L35 1L34 1L34 0L33 0L33 2L32 2L32 3L31 3L31 4L28 4L28 1L29 1L29 0L28 0L28 1L26 1L26 0L23 0L23 1L22 1L22 0L21 0L21 1L22 1L22 3L21 3L21 5L20 5L20 4L19 4L19 3L20 3L20 2L19 2L19 3L18 3L18 2L17 2L17 1L16 1L16 3L18 3L18 5L12 5L12 4L14 4L14 3L15 3L15 0ZM19 0L19 1L20 1L20 0ZM30 0L30 2L29 2L29 3L30 3L30 2L31 2L31 1L32 1L32 0ZM37 0L37 1L38 1L38 0ZM23 1L23 2L24 2L24 3L25 3L25 2L24 2L24 1ZM46 1L46 2L47 2L47 1ZM26 2L26 4L24 4L24 6L23 6L23 5L21 5L21 7L20 7L20 6L19 6L19 5L18 5L18 6L17 6L17 7L16 7L16 6L15 6L15 8L14 8L14 9L15 9L15 10L14 10L14 11L15 11L15 13L16 13L16 14L14 14L14 13L13 13L13 14L12 14L12 13L11 13L11 12L13 12L13 11L12 11L12 9L11 9L11 12L10 12L10 13L11 13L11 14L12 14L12 15L11 15L11 17L8 17L8 18L9 18L9 19L10 19L10 20L9 20L9 21L10 21L10 20L12 20L12 21L13 21L13 20L12 20L12 18L13 18L13 19L15 19L15 20L14 20L14 22L12 22L12 23L10 23L10 24L11 24L11 25L12 25L12 26L9 26L9 27L12 27L12 26L13 26L13 28L12 28L12 29L11 29L11 28L9 28L9 30L10 30L10 31L8 31L8 33L9 33L9 34L8 34L8 35L4 35L4 36L3 36L3 37L2 37L2 36L1 36L1 37L2 37L2 39L1 39L1 40L2 40L2 39L3 39L3 37L4 37L4 36L5 36L5 38L7 38L7 39L6 39L6 40L7 40L7 39L8 39L8 38L9 38L9 37L10 37L10 34L11 34L11 36L13 36L13 38L14 38L14 39L15 39L15 38L17 38L17 39L16 39L16 40L13 40L13 39L12 39L12 38L11 38L11 40L10 40L10 39L9 39L9 41L12 41L12 40L13 40L13 41L16 41L16 40L17 40L17 42L15 42L15 44L13 44L13 45L11 45L11 44L12 44L12 42L11 42L11 43L10 43L10 45L11 45L11 46L9 46L9 43L6 43L6 42L7 42L7 41L6 41L6 42L5 42L5 41L4 41L4 40L3 40L3 42L2 42L2 43L3 43L3 42L4 42L4 44L1 44L1 45L2 45L2 46L1 46L1 47L2 47L2 46L3 46L3 47L5 47L5 46L3 46L3 45L6 45L6 46L7 46L7 45L6 45L6 44L8 44L8 46L9 46L9 47L10 47L10 48L11 48L11 47L15 47L15 48L16 48L16 46L17 46L17 45L19 45L19 46L18 46L18 47L19 47L19 46L21 46L21 45L20 45L20 42L21 42L21 44L22 44L22 47L23 47L23 45L24 45L24 44L25 44L25 47L24 47L24 48L25 48L25 49L23 49L23 48L21 48L21 47L20 47L20 48L19 48L19 50L18 50L18 51L19 51L19 52L18 52L18 53L17 53L17 52L15 52L15 51L16 51L16 50L17 50L17 49L15 49L15 51L14 51L14 52L15 52L15 53L16 53L16 54L18 54L18 53L19 53L19 52L21 52L21 53L20 53L20 55L19 55L19 56L20 56L20 55L22 55L22 54L23 54L23 52L24 52L24 50L25 50L25 49L26 49L26 48L27 48L27 47L28 47L28 46L29 46L29 48L30 48L30 47L31 47L31 50L32 50L32 51L31 51L31 52L32 52L32 51L36 51L36 54L37 54L37 55L38 55L38 54L40 54L40 53L41 53L41 52L42 52L42 51L41 51L41 52L40 52L40 51L39 51L39 53L37 53L37 52L38 52L38 51L37 51L37 50L35 50L35 49L36 49L36 48L35 48L35 49L34 49L34 46L35 46L35 47L37 47L37 48L38 48L38 49L39 49L39 50L40 50L40 49L41 49L41 48L43 48L43 49L42 49L42 50L43 50L43 49L45 49L45 50L46 50L46 53L47 53L47 51L48 51L48 50L47 50L47 49L48 49L48 47L47 47L47 49L46 49L46 46L47 46L47 45L48 45L48 44L49 44L49 42L50 42L50 40L51 40L51 41L52 41L52 40L53 40L53 39L52 39L52 38L53 38L53 37L52 37L52 36L53 36L53 35L52 35L52 36L50 36L50 37L49 37L49 36L47 36L47 35L50 35L50 33L48 33L48 28L47 28L47 27L48 27L48 26L47 26L47 27L46 27L46 26L44 26L44 25L43 25L43 23L42 23L42 22L39 22L39 21L40 21L40 20L38 20L38 22L37 22L37 20L35 20L35 21L34 21L34 20L33 20L33 17L34 17L34 16L35 16L35 13L34 13L34 14L33 14L33 12L34 12L34 10L35 10L35 11L36 11L36 12L38 12L38 13L36 13L36 17L35 17L35 19L36 19L36 17L37 17L37 19L38 19L38 18L39 18L39 17L41 17L41 16L40 16L40 15L41 15L41 14L39 14L39 15L38 15L38 13L42 13L42 14L43 14L43 15L44 15L44 14L45 14L45 17L46 17L46 16L47 16L47 17L48 17L48 19L49 19L49 18L51 18L51 15L50 15L50 12L48 12L48 11L49 11L49 10L47 10L47 9L48 9L48 8L47 8L47 7L46 7L46 8L44 8L44 6L43 6L43 11L42 11L42 8L41 8L41 10L40 10L40 12L38 12L38 11L39 11L39 9L38 9L38 10L37 10L37 8L38 8L38 5L37 5L37 4L36 4L36 5L37 5L37 7L36 7L36 6L35 6L35 7L36 7L36 10L35 10L35 9L33 9L33 7L34 7L34 6L33 6L33 5L32 5L32 4L33 4L33 3L32 3L32 4L31 4L31 5L32 5L32 6L31 6L31 8L32 8L32 10L30 10L30 11L29 11L29 9L26 9L26 6L25 6L25 5L26 5L26 4L27 4L27 2ZM22 3L22 4L23 4L23 3ZM34 4L34 5L35 5L35 4ZM27 5L27 8L30 8L30 5ZM39 5L39 7L40 7L40 5ZM8 6L8 7L9 7L9 6ZM11 6L11 7L12 7L12 8L13 8L13 7L14 7L14 6L13 6L13 7L12 7L12 6ZM18 6L18 7L17 7L17 8L16 8L16 9L17 9L17 11L16 11L16 10L15 10L15 11L16 11L16 13L17 13L17 12L18 12L18 13L19 13L19 14L18 14L18 16L19 16L19 15L21 15L21 17L22 17L22 18L21 18L21 19L22 19L22 20L21 20L21 22L18 22L18 21L17 21L17 20L18 20L18 19L19 19L19 20L20 20L20 19L19 19L19 18L20 18L20 17L18 17L18 19L17 19L17 16L16 16L16 15L15 15L15 16L14 16L14 15L13 15L13 18L14 18L14 17L15 17L15 16L16 16L16 18L15 18L15 19L16 19L16 23L15 23L15 22L14 22L14 23L15 23L15 24L14 24L14 25L13 25L13 23L12 23L12 25L13 25L13 26L14 26L14 25L15 25L15 26L16 26L16 27L14 27L14 30L15 30L15 31L14 31L14 32L12 32L12 31L13 31L13 29L12 29L12 30L11 30L11 29L10 29L10 30L11 30L11 31L10 31L10 33L11 33L11 32L12 32L12 33L15 33L15 34L16 34L16 36L17 36L17 38L18 38L18 39L17 39L17 40L18 40L18 39L19 39L19 41L18 41L18 43L19 43L19 41L20 41L20 40L21 40L21 41L22 41L22 40L23 40L23 42L22 42L22 44L23 44L23 42L24 42L24 43L25 43L25 42L27 42L27 46L28 46L28 42L29 42L29 44L30 44L30 45L29 45L29 46L31 46L31 47L32 47L32 48L33 48L33 45L36 45L36 44L37 44L37 43L38 43L38 45L37 45L37 46L38 46L38 47L39 47L39 49L40 49L40 47L41 47L41 44L39 44L39 43L40 43L40 42L38 42L38 39L39 39L39 41L40 41L40 39L41 39L41 43L43 43L43 44L42 44L42 47L44 47L44 48L45 48L45 46L46 46L46 45L45 45L45 46L43 46L43 44L45 44L45 43L44 43L44 42L45 42L45 41L46 41L46 44L47 44L47 43L48 43L48 42L49 42L49 40L50 40L50 39L49 39L49 40L47 40L47 39L48 39L48 37L47 37L47 38L46 38L46 37L45 37L45 40L44 40L44 38L42 38L42 37L44 37L44 36L42 36L42 35L43 35L43 33L44 33L44 31L45 31L45 30L44 30L44 29L45 29L45 28L46 28L46 31L47 31L47 28L46 28L46 27L44 27L44 29L43 29L43 27L42 27L42 26L41 26L41 25L42 25L42 23L41 23L41 25L38 25L38 24L40 24L40 23L39 23L39 22L38 22L38 23L36 23L36 22L34 22L34 21L30 21L30 25L28 25L28 26L26 26L26 29L25 29L25 26L22 26L22 27L23 27L23 28L24 28L24 29L25 29L25 31L26 31L26 32L25 32L25 33L23 33L23 32L24 32L24 31L23 31L23 29L21 29L21 30L18 30L18 31L20 31L20 32L19 32L19 33L21 33L21 36L23 36L23 37L22 37L22 39L21 39L21 38L20 38L20 37L19 37L19 36L20 36L20 35L18 35L18 32L17 32L17 31L16 31L16 30L17 30L17 27L19 27L19 26L21 26L21 25L19 25L19 24L20 24L20 23L21 23L21 22L22 22L22 23L23 23L23 25L24 25L24 24L25 24L25 22L27 22L27 21L28 21L28 22L29 22L29 20L32 20L32 17L33 17L33 16L34 16L34 15L33 15L33 14L32 14L32 13L31 13L31 14L29 14L29 13L28 13L28 12L26 12L26 11L25 11L25 8L24 8L24 7L25 7L25 6L24 6L24 7L23 7L23 6L22 6L22 7L23 7L23 8L20 8L20 7L19 7L19 6ZM28 6L28 7L29 7L29 6ZM32 6L32 7L33 7L33 6ZM41 6L41 7L42 7L42 6ZM0 8L0 9L1 9L1 10L3 10L3 11L4 11L4 10L3 10L3 9L4 9L4 8ZM6 8L6 9L7 9L7 8ZM17 8L17 9L18 9L18 12L19 12L19 13L20 13L20 12L21 12L21 14L22 14L22 15L23 15L23 16L22 16L22 17L24 17L24 19L23 19L23 18L22 18L22 19L23 19L23 21L24 21L24 22L25 22L25 21L26 21L26 18L27 18L27 20L28 20L28 18L29 18L29 19L31 19L31 17L32 17L32 16L31 16L31 17L30 17L30 18L29 18L29 17L27 17L27 15L28 15L28 16L30 16L30 15L29 15L29 14L27 14L27 13L25 13L25 12L24 12L24 11L20 11L20 12L19 12L19 8ZM46 8L46 9L47 9L47 8ZM20 9L20 10L21 10L21 9ZM22 9L22 10L24 10L24 9ZM44 9L44 10L45 10L45 9ZM27 10L27 11L28 11L28 10ZM46 10L46 11L43 11L43 12L42 12L42 13L43 13L43 14L44 14L44 12L45 12L45 13L46 13L46 12L47 12L47 10ZM32 11L32 12L33 12L33 11ZM22 12L22 13L23 13L23 14L24 14L24 16L25 16L25 18L26 18L26 16L25 16L25 15L26 15L26 14L24 14L24 12ZM0 14L0 15L1 15L1 14ZM31 14L31 15L32 15L32 14ZM47 14L47 15L48 15L48 14ZM37 15L37 16L38 16L38 15ZM49 15L49 16L50 16L50 15ZM43 16L43 17L42 17L42 18L40 18L40 19L41 19L41 21L42 21L42 20L43 20L43 18L44 18L44 16ZM52 16L52 17L53 17L53 16ZM6 19L6 20L5 20L5 22L4 22L4 23L3 23L3 25L2 25L2 26L3 26L3 27L2 27L2 28L4 28L4 26L5 26L5 22L7 22L7 23L6 23L6 24L7 24L7 25L6 25L6 26L8 26L8 24L9 24L9 23L8 23L8 21L6 21L6 20L8 20L8 19ZM24 19L24 20L25 20L25 19ZM53 19L53 20L55 20L55 19ZM32 22L32 23L31 23L31 24L32 24L32 25L34 25L34 26L35 26L35 25L34 25L34 24L32 24L32 23L34 23L34 22ZM7 23L7 24L8 24L8 23ZM16 23L16 26L17 26L17 23ZM18 23L18 24L19 24L19 23ZM26 23L26 24L27 24L27 23ZM35 23L35 24L36 24L36 23ZM3 25L3 26L4 26L4 25ZM30 25L30 26L31 26L31 25ZM36 25L36 27L35 27L35 30L36 30L36 29L38 29L38 30L39 30L39 32L40 32L40 29L41 29L41 30L42 30L42 32L43 32L43 29L41 29L41 28L42 28L42 27L41 27L41 26L40 26L40 29L38 29L38 28L39 28L39 27L38 27L38 26L37 26L37 25ZM32 26L32 27L31 27L31 29L32 29L32 30L33 30L33 29L34 29L34 27L33 27L33 26ZM53 26L53 27L54 27L54 26ZM5 27L5 30L8 30L8 27ZM27 27L27 30L30 30L30 27ZM32 27L32 29L33 29L33 27ZM36 27L36 28L38 28L38 27ZM49 27L49 30L52 30L52 27ZM6 28L6 29L7 29L7 28ZM15 28L15 30L16 30L16 28ZM18 28L18 29L19 29L19 28ZM28 28L28 29L29 29L29 28ZM50 28L50 29L51 29L51 28ZM53 28L53 29L54 29L54 30L53 30L53 31L54 31L54 32L55 32L55 31L54 31L54 30L55 30L55 29L54 29L54 28ZM0 29L0 30L1 30L1 31L0 31L0 32L1 32L1 31L2 31L2 30L1 30L1 29ZM22 31L22 32L23 32L23 31ZM28 31L28 32L27 32L27 34L28 34L28 35L29 35L29 36L27 36L27 38L30 38L30 39L28 39L28 40L27 40L27 39L26 39L26 36L25 36L25 35L23 35L23 33L22 33L22 35L23 35L23 36L25 36L25 37L24 37L24 39L23 39L23 40L24 40L24 39L25 39L25 41L24 41L24 42L25 42L25 41L26 41L26 40L27 40L27 41L28 41L28 40L29 40L29 42L32 42L32 41L31 41L31 40L33 40L33 41L34 41L34 40L33 40L33 38L32 38L32 39L31 39L31 38L30 38L30 37L31 37L31 36L32 36L32 37L34 37L34 38L35 38L35 39L38 39L38 37L39 37L39 38L41 38L41 37L42 37L42 36L41 36L41 35L40 35L40 34L41 34L41 33L38 33L38 34L36 34L36 35L34 35L34 36L33 36L33 32L35 32L35 31L32 31L32 34L30 34L30 35L29 35L29 32L30 32L30 31ZM49 31L49 32L51 32L51 34L53 34L53 32L52 32L52 31ZM16 32L16 34L17 34L17 32ZM36 32L36 33L37 33L37 32ZM45 32L45 34L44 34L44 35L47 35L47 34L48 34L48 33L47 33L47 32ZM25 33L25 34L26 34L26 33ZM34 33L34 34L35 34L35 33ZM46 33L46 34L47 34L47 33ZM12 34L12 35L13 35L13 34ZM8 35L8 36L6 36L6 37L9 37L9 35ZM14 35L14 38L15 38L15 35ZM17 35L17 36L18 36L18 35ZM36 35L36 37L35 37L35 36L34 36L34 37L35 37L35 38L37 38L37 37L38 37L38 36L39 36L39 37L40 37L40 35ZM29 36L29 37L30 37L30 36ZM50 37L50 38L52 38L52 37ZM35 40L35 42L36 42L36 43L33 43L33 44L31 44L31 45L33 45L33 44L36 44L36 43L37 43L37 42L36 42L36 41L37 41L37 40ZM42 40L42 42L44 42L44 41L43 41L43 40ZM47 41L47 42L48 42L48 41ZM16 43L16 44L17 44L17 43ZM53 44L53 45L54 45L54 46L55 46L55 47L57 47L57 45L56 45L56 46L55 46L55 44ZM13 45L13 46L16 46L16 45ZM38 45L38 46L39 46L39 47L40 47L40 46L39 46L39 45ZM25 47L25 48L26 48L26 47ZM51 47L51 48L52 48L52 47ZM20 48L20 51L23 51L23 50L22 50L22 49L21 49L21 48ZM27 49L27 52L30 52L30 49ZM33 49L33 50L34 50L34 49ZM49 49L49 52L52 52L52 49ZM28 50L28 51L29 51L29 50ZM50 50L50 51L51 51L51 50ZM44 51L44 52L45 52L45 51ZM55 51L55 52L56 52L56 51ZM33 52L33 53L31 53L31 54L33 54L33 53L34 53L34 52ZM53 52L53 53L54 53L54 54L55 54L55 53L54 53L54 52ZM21 53L21 54L22 54L22 53ZM48 53L48 54L49 54L49 55L50 55L50 54L49 54L49 53ZM10 54L10 55L11 55L11 54ZM34 54L34 56L35 56L35 54ZM46 54L46 55L45 55L45 56L47 56L47 54ZM17 55L17 56L18 56L18 55ZM56 55L56 56L57 56L57 55ZM27 56L27 57L29 57L29 56ZM42 56L42 57L43 57L43 56ZM0 0L0 7L7 7L7 0ZM1 1L1 6L6 6L6 1ZM2 2L2 5L5 5L5 2ZM50 0L50 7L57 7L57 0ZM51 1L51 6L56 6L56 1ZM52 2L52 5L55 5L55 2ZM0 50L0 57L7 57L7 50ZM1 51L1 56L6 56L6 51ZM2 52L2 55L5 55L5 52Z" fill="#000000"/></g></g></svg>
