<?xml version="1.0" encoding="UTF-8"?>
<svg xmlns="http://www.w3.org/2000/svg" version="1.1" width="300" height="300" viewBox="0 0 300 300"><rect x="0" y="0" width="300" height="300" fill="#ffffff"/><g transform="scale(4.918)"><g transform="translate(2,2)"><path fill-rule="evenodd" d="M9 0L9 1L8 1L8 2L9 2L9 3L8 3L8 4L9 4L9 5L8 5L8 7L9 7L9 6L10 6L10 8L6 8L6 9L9 9L9 10L6 10L6 11L7 11L7 12L4 12L4 11L2 11L2 10L4 10L4 9L5 9L5 8L0 8L0 10L1 10L1 11L0 11L0 13L1 13L1 14L2 14L2 15L3 15L3 13L1 13L1 12L4 12L4 15L5 15L5 16L4 16L4 17L3 17L3 16L2 16L2 19L1 19L1 18L0 18L0 20L1 20L1 21L0 21L0 22L1 22L1 23L0 23L0 25L1 25L1 23L2 23L2 19L3 19L3 20L4 20L4 21L3 21L3 22L4 22L4 21L5 21L5 20L6 20L6 21L9 21L9 22L8 22L8 23L9 23L9 25L8 25L8 24L6 24L6 25L7 25L7 26L5 26L5 24L4 24L4 25L3 25L3 26L0 26L0 29L1 29L1 30L2 30L2 31L0 31L0 33L3 33L3 36L2 36L2 37L4 37L4 32L5 32L5 34L6 34L6 35L8 35L8 37L9 37L9 38L6 38L6 37L7 37L7 36L6 36L6 37L5 37L5 38L6 38L6 39L5 39L5 40L6 40L6 41L5 41L5 43L7 43L7 44L5 44L5 45L7 45L7 46L5 46L5 47L3 47L3 46L4 46L4 43L3 43L3 42L2 42L2 41L3 41L3 40L4 40L4 38L3 38L3 40L1 40L1 39L2 39L2 38L1 38L1 37L0 37L0 41L1 41L1 43L2 43L2 45L1 45L1 44L0 44L0 45L1 45L1 46L0 46L0 48L5 48L5 47L7 47L7 48L6 48L6 49L8 49L8 51L9 51L9 52L8 52L8 57L9 57L9 56L10 56L10 54L13 54L13 53L14 53L14 52L15 52L15 53L16 53L16 54L14 54L14 55L12 55L12 57L14 57L14 55L16 55L16 56L15 56L15 57L22 57L22 56L23 56L23 57L24 57L24 55L23 55L23 54L24 54L24 53L26 53L26 54L27 54L27 53L28 53L28 54L30 54L30 53L31 53L31 56L30 56L30 55L29 55L29 56L30 56L30 57L32 57L32 56L33 56L33 54L32 54L32 52L33 52L33 53L34 53L34 52L36 52L36 53L35 53L35 55L36 55L36 56L34 56L34 57L39 57L39 56L38 56L38 55L40 55L40 56L41 56L41 57L44 57L44 56L41 56L41 55L42 55L42 54L43 54L43 53L44 53L44 54L45 54L45 56L46 56L46 57L47 57L47 56L46 56L46 54L45 54L45 53L44 53L44 51L42 51L42 50L46 50L46 51L45 51L45 52L46 52L46 51L47 51L47 52L48 52L48 53L47 53L47 54L48 54L48 57L49 57L49 56L50 56L50 55L51 55L51 57L52 57L52 56L53 56L53 57L56 57L56 56L55 56L55 55L54 55L54 54L55 54L55 53L56 53L56 52L55 52L55 50L57 50L57 48L56 48L56 46L57 46L57 45L56 45L56 44L57 44L57 43L56 43L56 42L57 42L57 41L56 41L56 42L55 42L55 41L54 41L54 40L55 40L55 39L57 39L57 37L54 37L54 36L56 36L56 35L55 35L55 34L57 34L57 33L56 33L56 32L57 32L57 31L56 31L56 30L57 30L57 28L56 28L56 30L55 30L55 29L54 29L54 28L55 28L55 27L56 27L56 26L55 26L55 25L56 25L56 22L57 22L57 21L55 21L55 22L54 22L54 23L51 23L51 22L50 22L50 19L51 19L51 21L52 21L52 20L53 20L53 21L54 21L54 20L56 20L56 19L55 19L55 18L57 18L57 15L56 15L56 14L57 14L57 13L56 13L56 14L55 14L55 13L54 13L54 14L53 14L53 15L51 15L51 14L52 14L52 13L51 13L51 12L50 12L50 13L51 13L51 14L49 14L49 13L47 13L47 14L46 14L46 12L45 12L45 11L46 11L46 10L45 10L45 9L44 9L44 7L45 7L45 6L46 6L46 7L47 7L47 5L48 5L48 0L45 0L45 1L44 1L44 0L42 0L42 1L41 1L41 0L40 0L40 1L41 1L41 2L39 2L39 1L38 1L38 0L35 0L35 1L32 1L32 2L31 2L31 3L29 3L29 2L30 2L30 1L31 1L31 0L30 0L30 1L29 1L29 0L27 0L27 1L29 1L29 2L28 2L28 3L27 3L27 4L26 4L26 3L25 3L25 1L26 1L26 0L23 0L23 2L24 2L24 3L23 3L23 4L19 4L19 3L17 3L17 4L19 4L19 5L20 5L20 7L19 7L19 6L18 6L18 5L17 5L17 6L16 6L16 7L15 7L15 6L14 6L14 5L16 5L16 4L14 4L14 3L16 3L16 2L19 2L19 1L20 1L20 2L21 2L21 1L22 1L22 0L21 0L21 1L20 1L20 0L19 0L19 1L16 1L16 0L11 0L11 1L12 1L12 2L11 2L11 5L10 5L10 4L9 4L9 3L10 3L10 2L9 2L9 1L10 1L10 0ZM13 1L13 2L15 2L15 1ZM35 1L35 2L34 2L34 3L32 3L32 4L31 4L31 9L33 9L33 8L32 8L32 6L33 6L33 7L34 7L34 6L33 6L33 5L36 5L36 6L35 6L35 8L38 8L38 10L39 10L39 12L38 12L38 14L37 14L37 15L36 15L36 13L33 13L33 12L30 12L30 11L32 11L32 10L30 10L30 9L29 9L29 10L28 10L28 9L25 9L25 8L26 8L26 4L25 4L25 8L24 8L24 6L23 6L23 5L24 5L24 4L23 4L23 5L22 5L22 6L21 6L21 7L22 7L22 9L20 9L20 8L19 8L19 7L18 7L18 6L17 6L17 7L16 7L16 8L17 8L17 7L18 7L18 8L19 8L19 9L18 9L18 10L17 10L17 9L15 9L15 8L14 8L14 6L13 6L13 7L12 7L12 5L14 5L14 4L13 4L13 3L12 3L12 5L11 5L11 9L12 9L12 10L11 10L11 11L10 11L10 12L9 12L9 11L8 11L8 12L9 12L9 14L8 14L8 13L6 13L6 14L8 14L8 15L6 15L6 16L5 16L5 17L4 17L4 18L3 18L3 19L4 19L4 20L5 20L5 19L6 19L6 20L9 20L9 21L12 21L12 23L11 23L11 22L10 22L10 23L11 23L11 24L10 24L10 25L9 25L9 29L10 29L10 28L13 28L13 29L14 29L14 30L13 30L13 31L12 31L12 29L11 29L11 30L10 30L10 32L9 32L9 33L10 33L10 35L9 35L9 37L10 37L10 38L9 38L9 39L8 39L8 40L7 40L7 39L6 39L6 40L7 40L7 41L6 41L6 42L8 42L8 44L7 44L7 45L8 45L8 44L9 44L9 46L7 46L7 47L8 47L8 48L9 48L9 49L10 49L10 50L9 50L9 51L13 51L13 52L14 52L14 51L15 51L15 49L13 49L13 50L12 50L12 48L14 48L14 43L15 43L15 42L16 42L16 43L18 43L18 41L17 41L17 39L18 39L18 38L19 38L19 39L20 39L20 38L19 38L19 37L23 37L23 38L21 38L21 39L22 39L22 40L21 40L21 41L20 41L20 40L19 40L19 41L20 41L20 42L19 42L19 44L21 44L21 45L19 45L19 47L18 47L18 46L17 46L17 45L18 45L18 44L17 44L17 45L16 45L16 46L17 46L17 47L16 47L16 48L17 48L17 47L18 47L18 48L19 48L19 49L16 49L16 51L18 51L18 50L21 50L21 49L22 49L22 51L21 51L21 52L20 52L20 53L18 53L18 52L16 52L16 53L17 53L17 55L19 55L19 56L21 56L21 55L22 55L22 54L21 54L21 53L24 53L24 51L25 51L25 52L26 52L26 48L27 48L27 47L28 47L28 48L31 48L31 49L34 49L34 50L32 50L32 51L31 51L31 52L32 52L32 51L34 51L34 50L37 50L37 51L36 51L36 52L37 52L37 51L38 51L38 54L39 54L39 52L40 52L40 55L41 55L41 53L43 53L43 52L40 52L40 51L41 51L41 50L42 50L42 48L40 48L40 47L41 47L41 46L42 46L42 47L45 47L45 48L43 48L43 49L46 49L46 50L47 50L47 51L48 51L48 48L49 48L49 47L51 47L51 46L50 46L50 45L52 45L52 48L54 48L54 49L56 49L56 48L54 48L54 47L53 47L53 46L56 46L56 45L55 45L55 44L54 44L54 45L52 45L52 44L53 44L53 43L54 43L54 41L51 41L51 40L52 40L52 39L53 39L53 40L54 40L54 39L55 39L55 38L54 38L54 37L52 37L52 39L51 39L51 38L50 38L50 37L51 37L51 36L52 36L52 34L53 34L53 35L54 35L54 34L53 34L53 33L51 33L51 34L50 34L50 32L49 32L49 31L48 31L48 28L47 28L47 27L48 27L48 25L49 25L49 26L53 26L53 27L55 27L55 26L54 26L54 25L55 25L55 24L50 24L50 22L49 22L49 24L48 24L48 25L46 25L46 24L47 24L47 21L46 21L46 20L47 20L47 19L46 19L46 20L43 20L43 18L40 18L40 19L39 19L39 20L40 20L40 21L38 21L38 22L40 22L40 23L39 23L39 25L38 25L38 23L36 23L36 22L37 22L37 21L36 21L36 20L37 20L37 18L39 18L39 17L38 17L38 16L40 16L40 17L42 17L42 16L43 16L43 17L44 17L44 19L45 19L45 18L47 18L47 17L50 17L50 18L48 18L48 20L49 20L49 19L50 19L50 18L51 18L51 19L52 19L52 17L53 17L53 18L54 18L54 17L55 17L55 16L56 16L56 15L55 15L55 14L54 14L54 15L53 15L53 16L50 16L50 15L45 15L45 16L43 16L43 14L42 14L42 10L39 10L39 8L40 8L40 9L41 9L41 8L42 8L42 9L43 9L43 12L44 12L44 14L45 14L45 12L44 12L44 11L45 11L45 10L44 10L44 9L43 9L43 8L42 8L42 6L41 6L41 5L40 5L40 4L43 4L43 7L44 7L44 6L45 6L45 5L44 5L44 4L46 4L46 5L47 5L47 3L43 3L43 2L44 2L44 1L42 1L42 3L40 3L40 4L38 4L38 3L39 3L39 2L38 2L38 1ZM45 1L45 2L47 2L47 1ZM37 2L37 3L36 3L36 5L38 5L38 8L39 8L39 5L38 5L38 4L37 4L37 3L38 3L38 2ZM28 3L28 4L29 4L29 3ZM27 5L27 8L30 8L30 5ZM22 6L22 7L23 7L23 6ZM28 6L28 7L29 7L29 6ZM36 6L36 7L37 7L37 6ZM40 6L40 8L41 8L41 6ZM48 6L48 7L49 7L49 6ZM13 8L13 9L14 9L14 8ZM23 8L23 9L22 9L22 11L19 11L19 10L18 10L18 11L15 11L15 10L13 10L13 11L11 11L11 12L13 12L13 13L11 13L11 15L12 15L12 14L13 14L13 15L14 15L14 14L13 14L13 13L15 13L15 12L16 12L16 13L17 13L17 14L15 14L15 17L13 17L13 16L12 16L12 17L11 17L11 16L6 16L6 17L7 17L7 18L6 18L6 19L7 19L7 18L8 18L8 19L9 19L9 20L10 20L10 19L13 19L13 20L14 20L14 19L13 19L13 18L15 18L15 21L16 21L16 22L15 22L15 23L16 23L16 24L11 24L11 25L10 25L10 27L11 27L11 26L12 26L12 27L14 27L14 28L15 28L15 30L14 30L14 31L13 31L13 32L14 32L14 31L16 31L16 33L14 33L14 34L13 34L13 33L12 33L12 32L10 32L10 33L11 33L11 34L12 34L12 35L10 35L10 37L12 37L12 35L13 35L13 36L14 36L14 35L15 35L15 36L16 36L16 35L17 35L17 37L19 37L19 34L18 34L18 33L19 33L19 32L20 32L20 33L21 33L21 34L20 34L20 35L21 35L21 36L23 36L23 37L24 37L24 38L23 38L23 39L24 39L24 41L21 41L21 42L20 42L20 43L21 43L21 44L22 44L22 45L21 45L21 46L20 46L20 47L22 47L22 48L23 48L23 50L25 50L25 45L26 45L26 44L27 44L27 45L29 45L29 46L28 46L28 47L29 47L29 46L30 46L30 47L31 47L31 48L34 48L34 49L35 49L35 48L36 48L36 49L37 49L37 50L38 50L38 51L40 51L40 50L41 50L41 49L40 49L40 48L39 48L39 49L40 49L40 50L38 50L38 49L37 49L37 48L38 48L38 47L37 47L37 46L38 46L38 45L37 45L37 43L40 43L40 44L43 44L43 45L42 45L42 46L45 46L45 47L48 47L48 46L49 46L49 45L48 45L48 46L46 46L46 45L47 45L47 44L48 44L48 43L49 43L49 44L52 44L52 43L53 43L53 42L51 42L51 41L49 41L49 42L46 42L46 43L45 43L45 42L44 42L44 39L43 39L43 40L41 40L41 39L42 39L42 38L43 38L43 37L44 37L44 38L45 38L45 37L44 37L44 35L43 35L43 37L42 37L42 35L40 35L40 36L39 36L39 38L38 38L38 37L37 37L37 36L36 36L36 37L35 37L35 38L34 38L34 39L36 39L36 40L35 40L35 42L33 42L33 43L32 43L32 44L34 44L34 43L36 43L36 44L35 44L35 45L37 45L37 46L33 46L33 47L32 47L32 45L29 45L29 44L30 44L30 43L31 43L31 42L32 42L32 40L33 40L33 39L32 39L32 40L30 40L30 41L29 41L29 42L28 42L28 43L26 43L26 44L25 44L25 45L24 45L24 44L23 44L23 42L25 42L25 35L26 35L26 37L27 37L27 38L26 38L26 40L28 40L28 39L27 39L27 38L28 38L28 37L27 37L27 35L26 35L26 34L27 34L27 33L29 33L29 34L30 34L30 36L29 36L29 39L31 39L31 38L32 38L32 34L33 34L33 36L34 36L34 35L35 35L35 34L33 34L33 33L34 33L34 32L33 32L33 31L35 31L35 32L36 32L36 33L37 33L37 34L36 34L36 35L37 35L37 34L38 34L38 35L39 35L39 34L44 34L44 32L46 32L46 31L47 31L47 32L48 32L48 31L47 31L47 30L46 30L46 29L47 29L47 28L46 28L46 27L45 27L45 29L44 29L44 28L43 28L43 27L44 27L44 23L46 23L46 22L45 22L45 21L44 21L44 23L43 23L43 24L42 24L42 23L41 23L41 25L42 25L42 26L41 26L41 27L40 27L40 25L39 25L39 26L38 26L38 25L37 25L37 24L36 24L36 23L35 23L35 22L34 22L34 20L35 20L35 18L33 18L33 17L29 17L29 16L28 16L28 15L30 15L30 16L34 16L34 15L35 15L35 16L36 16L36 18L37 18L37 16L38 16L38 15L37 15L37 16L36 16L36 15L35 15L35 14L33 14L33 13L28 13L28 12L29 12L29 11L30 11L30 10L29 10L29 11L28 11L28 10L26 10L26 11L27 11L27 12L25 12L25 11L24 11L24 10L25 10L25 9L24 9L24 8ZM46 8L46 9L47 9L47 10L48 10L48 11L52 11L52 12L53 12L53 11L54 11L54 12L56 12L56 10L57 10L57 9L56 9L56 8L55 8L55 9L56 9L56 10L55 10L55 11L54 11L54 10L53 10L53 11L52 11L52 10L49 10L49 9L50 9L50 8L49 8L49 9L47 9L47 8ZM51 8L51 9L52 9L52 8ZM53 8L53 9L54 9L54 8ZM34 9L34 10L33 10L33 11L34 11L34 12L37 12L37 11L34 11L34 10L36 10L36 9ZM13 11L13 12L14 12L14 11ZM40 11L40 12L41 12L41 11ZM17 12L17 13L18 13L18 12ZM21 12L21 13L19 13L19 14L17 14L17 15L16 15L16 16L18 16L18 15L19 15L19 14L21 14L21 15L20 15L20 16L19 16L19 17L16 17L16 18L19 18L19 19L17 19L17 20L16 20L16 21L17 21L17 22L20 22L20 23L19 23L19 24L20 24L20 27L19 27L19 26L18 26L18 25L17 25L17 24L16 24L16 25L15 25L15 27L16 27L16 28L18 28L18 29L16 29L16 31L18 31L18 29L19 29L19 31L20 31L20 32L21 32L21 33L22 33L22 34L21 34L21 35L23 35L23 36L24 36L24 35L25 35L25 34L26 34L26 33L27 33L27 32L29 32L29 31L26 31L26 32L25 32L25 34L23 34L23 33L24 33L24 31L25 31L25 30L26 30L26 27L25 27L25 26L26 26L26 25L27 25L27 26L30 26L30 25L29 25L29 24L30 24L30 23L31 23L31 24L32 24L32 26L33 26L33 27L32 27L32 29L33 29L33 30L35 30L35 29L33 29L33 28L34 28L34 26L35 26L35 27L37 27L37 25L36 25L36 24L35 24L35 23L34 23L34 22L33 22L33 23L31 23L31 22L28 22L28 21L31 21L31 20L28 20L28 18L27 18L27 17L28 17L28 16L27 16L27 15L25 15L25 14L24 14L24 13L25 13L25 12L24 12L24 13L22 13L22 12ZM21 13L21 14L22 14L22 13ZM26 13L26 14L28 14L28 13ZM39 13L39 15L40 15L40 16L41 16L41 15L42 15L42 14L41 14L41 15L40 15L40 13ZM23 14L23 15L24 15L24 17L22 17L22 15L21 15L21 16L20 16L20 17L21 17L21 19L19 19L19 20L17 20L17 21L20 21L20 20L21 20L21 21L22 21L22 22L24 22L24 21L25 21L25 22L26 22L26 23L25 23L25 24L27 24L27 25L28 25L28 24L29 24L29 23L28 23L28 22L27 22L27 20L25 20L25 17L27 17L27 16L25 16L25 15L24 15L24 14ZM30 14L30 15L31 15L31 14ZM32 14L32 15L33 15L33 14ZM0 15L0 16L1 16L1 15ZM54 15L54 16L53 16L53 17L54 17L54 16L55 16L55 15ZM45 16L45 17L46 17L46 16ZM9 18L9 19L10 19L10 18ZM22 18L22 19L23 19L23 18ZM26 18L26 19L27 19L27 18ZM29 18L29 19L33 19L33 20L32 20L32 21L33 21L33 20L34 20L34 19L33 19L33 18ZM40 19L40 20L42 20L42 22L43 22L43 20L42 20L42 19ZM22 20L22 21L24 21L24 20ZM13 21L13 22L14 22L14 21ZM5 22L5 23L7 23L7 22ZM21 23L21 24L22 24L22 23ZM23 23L23 24L24 24L24 23ZM27 23L27 24L28 24L28 23ZM33 23L33 25L35 25L35 24L34 24L34 23ZM21 25L21 27L20 27L20 28L19 28L19 29L22 29L22 28L21 28L21 27L22 27L22 25ZM23 25L23 28L24 28L24 26L25 26L25 25ZM3 26L3 27L4 27L4 26ZM17 26L17 27L18 27L18 26ZM42 26L42 27L41 27L41 28L40 28L40 27L38 27L38 29L36 29L36 30L42 30L42 31L43 31L43 32L44 32L44 29L43 29L43 28L42 28L42 27L43 27L43 26ZM1 27L1 29L2 29L2 27ZM5 27L5 30L8 30L8 27ZM27 27L27 30L30 30L30 27ZM49 27L49 30L52 30L52 27ZM3 28L3 29L4 29L4 28ZM6 28L6 29L7 29L7 28ZM28 28L28 29L29 29L29 28ZM39 28L39 29L40 29L40 28ZM50 28L50 29L51 29L51 28ZM23 29L23 30L22 30L22 31L21 31L21 30L20 30L20 31L21 31L21 32L23 32L23 31L24 31L24 30L25 30L25 29ZM42 29L42 30L43 30L43 29ZM53 29L53 30L54 30L54 29ZM3 30L3 31L2 31L2 32L3 32L3 31L4 31L4 30ZM31 30L31 31L30 31L30 33L31 33L31 32L32 32L32 33L33 33L33 32L32 32L32 30ZM45 30L45 31L46 31L46 30ZM6 31L6 32L7 32L7 33L6 33L6 34L7 34L7 33L8 33L8 31ZM36 31L36 32L40 32L40 33L41 33L41 32L40 32L40 31ZM53 31L53 32L54 32L54 33L55 33L55 32L54 32L54 31ZM16 33L16 34L17 34L17 35L18 35L18 34L17 34L17 33ZM38 33L38 34L39 34L39 33ZM47 33L47 34L45 34L45 36L48 36L48 37L47 37L47 38L48 38L48 39L49 39L49 40L50 40L50 38L48 38L48 37L50 37L50 36L51 36L51 35L50 35L50 36L48 36L48 35L49 35L49 34L48 34L48 33ZM0 34L0 35L1 35L1 34ZM30 36L30 38L31 38L31 36ZM40 36L40 38L39 38L39 40L38 40L38 38L37 38L37 40L38 40L38 41L36 41L36 42L39 42L39 40L40 40L40 41L41 41L41 40L40 40L40 39L41 39L41 36ZM14 37L14 38L13 38L13 39L12 39L12 38L11 38L11 39L10 39L10 40L8 40L8 42L9 42L9 41L10 41L10 40L11 40L11 39L12 39L12 41L11 41L11 42L10 42L10 43L11 43L11 44L13 44L13 43L14 43L14 41L16 41L16 39L15 39L15 38L16 38L16 37ZM53 38L53 39L54 39L54 38ZM13 39L13 41L12 41L12 42L11 42L11 43L12 43L12 42L13 42L13 41L14 41L14 39ZM45 39L45 41L47 41L47 40L46 40L46 39ZM26 41L26 42L27 42L27 41ZM30 41L30 42L29 42L29 43L30 43L30 42L31 42L31 41ZM21 42L21 43L22 43L22 42ZM40 42L40 43L42 43L42 42ZM50 42L50 43L51 43L51 42ZM43 43L43 44L44 44L44 45L45 45L45 44L44 44L44 43ZM2 45L2 46L1 46L1 47L2 47L2 46L3 46L3 45ZM11 45L11 47L13 47L13 45ZM22 45L22 47L23 47L23 48L24 48L24 47L23 47L23 46L24 46L24 45ZM39 45L39 47L40 47L40 46L41 46L41 45ZM26 46L26 47L27 47L27 46ZM9 47L9 48L10 48L10 47ZM34 47L34 48L35 48L35 47ZM36 47L36 48L37 48L37 47ZM20 48L20 49L21 49L21 48ZM27 49L27 52L30 52L30 49ZM49 49L49 52L52 52L52 49ZM13 50L13 51L14 51L14 50ZM28 50L28 51L29 51L29 50ZM50 50L50 51L51 51L51 50ZM10 52L10 53L11 53L11 52ZM54 52L54 53L53 53L53 54L51 54L51 53L48 53L48 54L49 54L49 55L50 55L50 54L51 54L51 55L53 55L53 54L54 54L54 53L55 53L55 52ZM19 54L19 55L20 55L20 54ZM26 55L26 56L25 56L25 57L26 57L26 56L28 56L28 55ZM0 0L0 7L7 7L7 0ZM1 1L1 6L6 6L6 1ZM2 2L2 5L5 5L5 2ZM50 0L50 7L57 7L57 0ZM51 1L51 6L56 6L56 1ZM52 2L52 5L55 5L55 2ZM0 50L0 57L7 57L7 50ZM1 51L1 56L6 56L6 51ZM2 52L2 55L5 55L5 52Z" fill="#000000"/></g></g></svg>
