<?xml version="1.0" encoding="UTF-8"?>
<svg xmlns="http://www.w3.org/2000/svg" version="1.1" width="300" height="300" viewBox="0 0 300 300"><rect x="0" y="0" width="300" height="300" fill="#ffffff"/><g transform="scale(4.918)"><g transform="translate(2,2)"><path fill-rule="evenodd" d="M9 0L9 1L8 1L8 2L9 2L9 1L11 1L11 2L10 2L10 3L8 3L8 4L9 4L9 5L8 5L8 7L9 7L9 8L6 8L6 9L7 9L7 10L6 10L6 11L7 11L7 10L8 10L8 12L9 12L9 13L8 13L8 14L6 14L6 15L4 15L4 13L5 13L5 11L4 11L4 10L3 10L3 11L2 11L2 12L3 12L3 11L4 11L4 13L3 13L3 16L6 16L6 17L5 17L5 18L4 18L4 17L3 17L3 18L2 18L2 17L0 17L0 18L1 18L1 19L2 19L2 20L3 20L3 21L0 21L0 22L2 22L2 23L0 23L0 24L1 24L1 25L3 25L3 26L2 26L2 27L1 27L1 26L0 26L0 28L3 28L3 30L1 30L1 31L0 31L0 32L1 32L1 33L2 33L2 35L3 35L3 36L1 36L1 34L0 34L0 38L3 38L3 39L0 39L0 41L1 41L1 40L2 40L2 41L3 41L3 43L4 43L4 41L5 41L5 44L4 44L4 45L5 45L5 47L3 47L3 45L2 45L2 43L0 43L0 48L5 48L5 47L7 47L7 48L6 48L6 49L7 49L7 48L8 48L8 51L9 51L9 50L12 50L12 51L10 51L10 52L8 52L8 57L9 57L9 55L10 55L10 57L13 57L13 54L15 54L15 55L16 55L16 56L15 56L15 57L19 57L19 55L20 55L20 54L19 54L19 55L18 55L18 53L20 53L20 51L19 51L19 50L20 50L20 49L21 49L21 47L22 47L22 45L24 45L24 46L23 46L23 47L24 47L24 48L25 48L25 49L22 49L22 50L23 50L23 51L24 51L24 53L22 53L22 51L21 51L21 53L22 53L22 54L21 54L21 55L23 55L23 54L25 54L25 53L26 53L26 54L27 54L27 53L28 53L28 54L29 54L29 55L30 55L30 56L29 56L29 57L30 57L30 56L31 56L31 57L32 57L32 55L35 55L35 54L32 54L32 52L33 52L33 53L35 53L35 52L36 52L36 53L37 53L37 54L36 54L36 55L38 55L38 56L34 56L34 57L38 57L38 56L41 56L41 57L42 57L42 56L41 56L41 55L42 55L42 54L43 54L43 53L44 53L44 54L45 54L45 55L44 55L44 56L43 56L43 57L44 57L44 56L45 56L45 57L46 57L46 56L47 56L47 57L48 57L48 55L51 55L51 56L50 56L50 57L52 57L52 56L54 56L54 57L56 57L56 56L55 56L55 55L54 55L54 54L55 54L55 53L54 53L54 54L53 54L53 52L55 52L55 51L56 51L56 52L57 52L57 51L56 51L56 50L57 50L57 49L56 49L56 48L57 48L57 47L56 47L56 48L55 48L55 47L54 47L54 48L55 48L55 49L54 49L54 50L53 50L53 47L52 47L52 45L54 45L54 46L57 46L57 45L56 45L56 44L57 44L57 43L56 43L56 41L55 41L55 40L56 40L56 39L55 39L55 37L54 37L54 38L53 38L53 40L52 40L52 39L51 39L51 40L52 40L52 41L49 41L49 39L50 39L50 37L49 37L49 38L48 38L48 37L47 37L47 38L45 38L45 37L44 37L44 35L40 35L40 36L36 36L36 37L35 37L35 38L36 38L36 40L35 40L35 42L34 42L34 41L33 41L33 42L34 42L34 43L31 43L31 42L32 42L32 41L31 41L31 40L33 40L33 39L34 39L34 38L33 38L33 39L31 39L31 38L32 38L32 35L31 35L31 32L33 32L33 31L35 31L35 32L36 32L36 34L34 34L34 33L32 33L32 34L34 34L34 35L33 35L33 36L34 36L34 35L37 35L37 34L38 34L38 35L39 35L39 34L38 34L38 33L39 33L39 32L41 32L41 33L40 33L40 34L43 34L43 32L45 32L45 33L44 33L44 34L46 34L46 35L45 35L45 36L48 36L48 33L47 33L47 32L48 32L48 31L49 31L49 34L50 34L50 32L51 32L51 33L53 33L53 32L52 32L52 31L54 31L54 32L55 32L55 31L56 31L56 30L57 30L57 29L56 29L56 30L53 30L53 29L54 29L54 28L56 28L56 25L55 25L55 24L56 24L56 22L57 22L57 21L55 21L55 23L54 23L54 20L57 20L57 19L56 19L56 18L57 18L57 17L56 17L56 16L55 16L55 14L57 14L57 13L54 13L54 15L51 15L51 14L52 14L52 13L51 13L51 14L49 14L49 13L50 13L50 11L52 11L52 12L53 12L53 11L54 11L54 12L55 12L55 11L56 11L56 10L57 10L57 9L56 9L56 8L55 8L55 9L56 9L56 10L55 10L55 11L54 11L54 10L52 10L52 8L51 8L51 10L50 10L50 8L49 8L49 6L48 6L48 8L49 8L49 9L48 9L48 10L50 10L50 11L49 11L49 13L47 13L47 14L46 14L46 12L45 12L45 11L43 11L43 9L44 9L44 10L45 10L45 9L44 9L44 8L46 8L46 9L47 9L47 5L48 5L48 0L46 0L46 1L45 1L45 0L44 0L44 1L43 1L43 0L41 0L41 1L43 1L43 2L40 2L40 0L39 0L39 1L38 1L38 0L35 0L35 1L34 1L34 0L33 0L33 1L34 1L34 2L32 2L32 1L31 1L31 0L27 0L27 1L26 1L26 0L21 0L21 2L22 2L22 3L21 3L21 4L19 4L19 2L20 2L20 0L19 0L19 1L18 1L18 3L17 3L17 4L19 4L19 5L17 5L17 6L16 6L16 7L15 7L15 6L14 6L14 5L16 5L16 4L13 4L13 3L14 3L14 2L13 2L13 1L15 1L15 0ZM16 1L16 2L15 2L15 3L16 3L16 2L17 2L17 1ZM22 1L22 2L23 2L23 3L22 3L22 4L21 4L21 5L22 5L22 6L21 6L21 7L22 7L22 6L23 6L23 7L24 7L24 6L23 6L23 5L24 5L24 4L25 4L25 5L26 5L26 4L27 4L27 3L28 3L28 4L29 4L29 3L28 3L28 2L31 2L31 1L27 1L27 2L26 2L26 1L24 1L24 2L23 2L23 1ZM35 1L35 2L34 2L34 3L32 3L32 4L31 4L31 8L32 8L32 10L31 10L31 11L30 11L30 10L28 10L28 9L25 9L25 8L26 8L26 6L25 6L25 8L24 8L24 9L25 9L25 10L24 10L24 11L23 11L23 10L22 10L22 11L23 11L23 12L21 12L21 11L20 11L20 12L21 12L21 13L19 13L19 14L18 14L18 15L16 15L16 14L17 14L17 13L18 13L18 12L17 12L17 11L18 11L18 10L19 10L19 9L18 9L18 6L17 6L17 7L16 7L16 8L15 8L15 7L14 7L14 6L13 6L13 4L12 4L12 3L13 3L13 2L12 2L12 3L11 3L11 4L12 4L12 6L11 6L11 5L9 5L9 7L10 7L10 8L9 8L9 9L11 9L11 11L12 11L12 10L13 10L13 7L14 7L14 9L16 9L16 10L17 10L17 11L15 11L15 13L13 13L13 14L10 14L10 13L9 13L9 14L8 14L8 16L7 16L7 15L6 15L6 16L7 16L7 17L6 17L6 18L7 18L7 19L5 19L5 20L4 20L4 21L3 21L3 23L4 23L4 24L3 24L3 25L4 25L4 24L5 24L5 26L7 26L7 25L8 25L8 26L9 26L9 27L10 27L10 29L11 29L11 30L10 30L10 32L11 32L11 33L10 33L10 35L9 35L9 33L8 33L8 31L6 31L6 32L7 32L7 33L6 33L6 34L5 34L5 32L4 32L4 33L3 33L3 32L2 32L2 33L3 33L3 34L5 34L5 35L4 35L4 36L3 36L3 37L4 37L4 38L5 38L5 40L7 40L7 41L6 41L6 42L7 42L7 41L8 41L8 43L6 43L6 44L8 44L8 43L9 43L9 45L6 45L6 46L7 46L7 47L8 47L8 48L10 48L10 49L14 49L14 50L13 50L13 51L12 51L12 52L10 52L10 55L11 55L11 56L12 56L12 55L11 55L11 53L12 53L12 52L14 52L14 53L15 53L15 54L16 54L16 53L18 53L18 52L16 52L16 51L14 51L14 50L19 50L19 49L20 49L20 47L21 47L21 45L22 45L22 44L21 44L21 45L20 45L20 44L19 44L19 45L20 45L20 46L18 46L18 48L19 48L19 49L15 49L15 48L17 48L17 47L15 47L15 46L14 46L14 47L13 47L13 46L12 46L12 44L13 44L13 42L12 42L12 41L14 41L14 42L15 42L15 43L14 43L14 44L15 44L15 45L16 45L16 46L17 46L17 45L18 45L18 44L17 44L17 45L16 45L16 42L17 42L17 43L18 43L18 42L19 42L19 41L15 41L15 40L12 40L12 39L10 39L10 37L11 37L11 38L13 38L13 37L14 37L14 36L12 36L12 37L11 37L11 36L10 36L10 35L12 35L12 34L14 34L14 35L15 35L15 37L16 37L16 38L14 38L14 39L16 39L16 40L19 40L19 39L20 39L20 38L19 38L19 37L21 37L21 39L24 39L24 40L22 40L22 41L20 41L20 43L22 43L22 41L25 41L25 44L24 44L24 43L23 43L23 44L24 44L24 45L25 45L25 48L27 48L27 47L26 47L26 46L28 46L28 48L30 48L30 47L29 47L29 45L31 45L31 43L30 43L30 42L31 42L31 41L29 41L29 40L31 40L31 39L28 39L28 38L29 38L29 35L30 35L30 38L31 38L31 35L30 35L30 33L25 33L25 32L30 32L30 31L25 31L25 30L26 30L26 27L25 27L25 26L26 26L26 25L25 25L25 24L27 24L27 25L30 25L30 24L31 24L31 22L30 22L30 21L31 21L31 20L30 20L30 19L31 19L31 18L32 18L32 19L33 19L33 18L35 18L35 17L36 17L36 16L38 16L38 17L37 17L37 18L39 18L39 20L38 20L38 19L34 19L34 20L35 20L35 21L33 21L33 20L32 20L32 21L33 21L33 23L32 23L32 25L31 25L31 28L32 28L32 29L31 29L31 30L32 30L32 31L33 31L33 30L35 30L35 31L36 31L36 32L37 32L37 33L38 33L38 32L39 32L39 31L36 31L36 30L39 30L39 29L41 29L41 30L40 30L40 31L41 31L41 30L42 30L42 31L46 31L46 32L47 32L47 31L48 31L48 28L47 28L47 27L48 27L48 25L49 25L49 24L50 24L50 26L51 26L51 25L53 25L53 27L55 27L55 26L54 26L54 24L51 24L51 23L53 23L53 22L51 22L51 20L52 20L52 21L53 21L53 20L54 20L54 19L55 19L55 18L54 18L54 17L55 17L55 16L54 16L54 17L53 17L53 16L50 16L50 15L46 15L46 16L47 16L47 17L45 17L45 16L40 16L40 14L42 14L42 15L43 15L43 14L44 14L44 15L45 15L45 12L44 12L44 13L43 13L43 14L42 14L42 11L41 11L41 10L40 10L40 9L42 9L42 6L43 6L43 7L44 7L44 6L45 6L45 7L46 7L46 5L47 5L47 3L43 3L43 5L42 5L42 6L41 6L41 3L40 3L40 5L39 5L39 2L38 2L38 1ZM44 1L44 2L45 2L45 1ZM46 1L46 2L47 2L47 1ZM24 2L24 3L25 3L25 4L26 4L26 3L25 3L25 2ZM37 2L37 3L36 3L36 5L33 5L33 6L32 6L32 8L35 8L35 9L37 9L37 10L38 10L38 11L37 11L37 12L34 12L34 11L36 11L36 10L32 10L32 11L31 11L31 12L33 12L33 13L32 13L32 16L31 16L31 15L30 15L30 14L31 14L31 13L30 13L30 14L29 14L29 13L28 13L28 12L29 12L29 11L28 11L28 10L26 10L26 11L27 11L27 12L25 12L25 13L24 13L24 12L23 12L23 13L22 13L22 16L23 16L23 13L24 13L24 16L26 16L26 17L21 17L21 18L23 18L23 21L21 21L21 23L22 23L22 24L25 24L25 23L26 23L26 19L25 19L25 21L24 21L24 18L26 18L26 17L27 17L27 16L26 16L26 14L27 14L27 15L30 15L30 16L31 16L31 17L28 17L28 18L27 18L27 19L28 19L28 20L29 20L29 19L28 19L28 18L31 18L31 17L32 17L32 16L33 16L33 17L35 17L35 16L36 16L36 15L39 15L39 14L37 14L37 13L38 13L38 12L40 12L40 10L38 10L38 9L37 9L37 6L38 6L38 8L39 8L39 6L38 6L38 2ZM34 3L34 4L35 4L35 3ZM22 4L22 5L23 5L23 4ZM44 4L44 5L45 5L45 4ZM19 5L19 7L20 7L20 5ZM27 5L27 8L30 8L30 5ZM36 5L36 6L35 6L35 7L36 7L36 6L37 6L37 5ZM10 6L10 7L11 7L11 6ZM12 6L12 7L13 7L13 6ZM28 6L28 7L29 7L29 6ZM33 6L33 7L34 7L34 6ZM40 6L40 7L41 7L41 6ZM0 8L0 10L1 10L1 9L5 9L5 8ZM16 8L16 9L17 9L17 10L18 10L18 9L17 9L17 8ZM21 8L21 9L20 9L20 10L21 10L21 9L23 9L23 8ZM53 8L53 9L54 9L54 8ZM9 10L9 12L10 12L10 10ZM13 11L13 12L14 12L14 11ZM0 12L0 13L1 13L1 14L2 14L2 13L1 13L1 12ZM6 12L6 13L7 13L7 12ZM11 12L11 13L12 13L12 12ZM16 12L16 13L15 13L15 14L16 14L16 13L17 13L17 12ZM25 13L25 14L26 14L26 13ZM27 13L27 14L28 14L28 13ZM33 13L33 14L35 14L35 15L34 15L34 16L35 16L35 15L36 15L36 13ZM13 14L13 15L14 15L14 16L13 16L13 17L14 17L14 18L15 18L15 21L16 21L16 22L15 22L15 23L14 23L14 21L13 21L13 24L12 24L12 23L10 23L10 22L11 22L11 21L12 21L12 19L13 19L13 20L14 20L14 19L13 19L13 18L11 18L11 17L12 17L12 16L11 16L11 15L9 15L9 16L8 16L8 20L6 20L6 21L9 21L9 20L11 20L11 21L10 21L10 22L8 22L8 23L7 23L7 22L6 22L6 23L7 23L7 24L6 24L6 25L7 25L7 24L8 24L8 25L9 25L9 24L8 24L8 23L10 23L10 24L12 24L12 25L10 25L10 27L11 27L11 28L12 28L12 30L11 30L11 31L13 31L13 33L14 33L14 34L15 34L15 35L16 35L16 33L19 33L19 31L20 31L20 29L21 29L21 30L22 30L22 31L21 31L21 32L20 32L20 33L21 33L21 35L22 35L22 34L24 34L24 35L27 35L27 34L25 34L25 33L21 33L21 32L22 32L22 31L23 31L23 32L25 32L25 31L24 31L24 30L25 30L25 29L24 29L24 28L25 28L25 27L23 27L23 26L25 26L25 25L22 25L22 27L23 27L23 29L24 29L24 30L22 30L22 28L20 28L20 29L18 29L18 28L16 28L16 27L15 27L15 29L18 29L18 30L17 30L17 32L15 32L15 30L13 30L13 29L14 29L14 28L12 28L12 27L13 27L13 26L12 26L12 25L13 25L13 24L15 24L15 25L14 25L14 26L15 26L15 25L17 25L17 27L18 27L18 25L19 25L19 26L20 26L20 25L21 25L21 24L20 24L20 25L19 25L19 24L18 24L18 23L20 23L20 22L18 22L18 23L17 23L17 21L20 21L20 20L19 20L19 18L20 18L20 17L19 17L19 16L20 16L20 15L21 15L21 14L20 14L20 15L18 15L18 16L17 16L17 17L19 17L19 18L17 18L17 19L18 19L18 20L17 20L17 21L16 21L16 18L15 18L15 17L16 17L16 15L14 15L14 14ZM1 15L1 16L2 16L2 15ZM10 16L10 17L9 17L9 19L10 19L10 17L11 17L11 16ZM14 16L14 17L15 17L15 16ZM39 16L39 18L40 18L40 16ZM42 17L42 18L41 18L41 19L40 19L40 20L39 20L39 21L40 21L40 20L41 20L41 19L42 19L42 20L46 20L46 21L47 21L47 20L49 20L49 21L48 21L48 23L47 23L47 22L45 22L45 21L44 21L44 23L40 23L40 22L39 22L39 23L38 23L38 25L37 25L37 22L38 22L38 20L36 20L36 21L37 21L37 22L36 22L36 24L33 24L33 25L32 25L32 26L33 26L33 25L37 25L37 26L35 26L35 27L34 27L34 28L33 28L33 27L32 27L32 28L33 28L33 29L32 29L32 30L33 30L33 29L35 29L35 30L36 30L36 29L38 29L38 28L40 28L40 27L42 27L42 28L43 28L43 29L42 29L42 30L44 30L44 28L45 28L45 30L46 30L46 31L47 31L47 30L46 30L46 29L47 29L47 28L46 28L46 26L44 26L44 25L43 25L43 24L45 24L45 25L46 25L46 24L47 24L47 25L48 25L48 23L49 23L49 22L50 22L50 23L51 23L51 22L50 22L50 19L49 19L49 18L50 18L50 17L47 17L47 18L44 18L44 17ZM42 18L42 19L44 19L44 18ZM51 18L51 19L52 19L52 20L53 20L53 18ZM21 19L21 20L22 20L22 19ZM46 19L46 20L47 20L47 19ZM4 21L4 22L5 22L5 21ZM23 21L23 22L22 22L22 23L24 23L24 21ZM27 21L27 24L30 24L30 22L28 22L28 21ZM41 21L41 22L43 22L43 21ZM34 22L34 23L35 23L35 22ZM15 23L15 24L16 24L16 23ZM39 23L39 24L40 24L40 25L41 25L41 24L40 24L40 23ZM38 25L38 26L37 26L37 28L38 28L38 26L39 26L39 27L40 27L40 26L39 26L39 25ZM11 26L11 27L12 27L12 26ZM42 26L42 27L44 27L44 26ZM3 27L3 28L4 28L4 27ZM5 27L5 30L8 30L8 27ZM27 27L27 30L30 30L30 27ZM49 27L49 30L52 30L52 27ZM6 28L6 29L7 29L7 28ZM28 28L28 29L29 29L29 28ZM50 28L50 29L51 29L51 28ZM18 30L18 31L19 31L19 30ZM14 32L14 33L15 33L15 32ZM56 32L56 33L54 33L54 34L52 34L52 36L51 36L51 35L49 35L49 36L51 36L51 37L52 37L52 36L56 36L56 37L57 37L57 36L56 36L56 34L57 34L57 32ZM7 33L7 34L6 34L6 35L5 35L5 36L4 36L4 37L5 37L5 38L6 38L6 39L7 39L7 40L8 40L8 39L9 39L9 37L7 37L7 36L6 36L6 35L7 35L7 34L8 34L8 33ZM46 33L46 34L47 34L47 33ZM17 34L17 37L19 37L19 36L20 36L20 34ZM21 36L21 37L22 37L22 38L25 38L25 37L24 37L24 36L23 36L23 37L22 37L22 36ZM27 36L27 37L26 37L26 39L27 39L27 37L28 37L28 36ZM40 36L40 38L39 38L39 37L38 37L38 38L37 38L37 40L39 40L39 41L37 41L37 42L35 42L35 43L34 43L34 44L32 44L32 45L33 45L33 46L35 46L35 47L34 47L34 48L31 48L31 52L32 52L32 51L34 51L34 52L35 52L35 51L36 51L36 52L38 52L38 55L39 55L39 52L40 52L40 55L41 55L41 54L42 54L42 53L43 53L43 52L42 52L42 51L43 51L43 50L42 50L42 49L41 49L41 48L42 48L42 47L43 47L43 46L44 46L44 45L45 45L45 44L44 44L44 43L45 43L45 42L47 42L47 43L48 43L48 42L47 42L47 41L48 41L48 40L47 40L47 39L45 39L45 38L44 38L44 37L43 37L43 38L42 38L42 37L41 37L41 36ZM6 37L6 38L7 38L7 37ZM3 39L3 41L4 41L4 39ZM39 39L39 40L41 40L41 41L40 41L40 42L37 42L37 43L36 43L36 44L35 44L35 46L36 46L36 47L37 47L37 48L35 48L35 50L34 50L34 49L32 49L32 50L34 50L34 51L35 51L35 50L36 50L36 51L38 51L38 52L39 52L39 50L36 50L36 49L37 49L37 48L38 48L38 47L40 47L40 48L39 48L39 49L40 49L40 50L41 50L41 51L40 51L40 52L41 52L41 51L42 51L42 50L41 50L41 49L40 49L40 48L41 48L41 47L42 47L42 46L43 46L43 45L44 45L44 44L43 44L43 43L44 43L44 42L43 42L43 40L45 40L45 39L43 39L43 40L41 40L41 39ZM9 40L9 41L10 41L10 40ZM11 40L11 41L12 41L12 40ZM25 40L25 41L26 41L26 44L25 44L25 45L26 45L26 44L27 44L27 45L29 45L29 44L30 44L30 43L28 43L28 42L27 42L27 41L26 41L26 40ZM46 40L46 41L47 41L47 40ZM52 41L52 43L51 43L51 42L50 42L50 43L51 43L51 44L49 44L49 45L51 45L51 44L53 44L53 43L54 43L54 41ZM10 42L10 44L12 44L12 43L11 43L11 42ZM41 42L41 43L42 43L42 42ZM27 43L27 44L28 44L28 43ZM38 43L38 44L39 44L39 43ZM55 43L55 44L54 44L54 45L55 45L55 44L56 44L56 43ZM40 44L40 45L41 45L41 46L42 46L42 45L43 45L43 44ZM47 44L47 45L46 45L46 46L48 46L48 47L46 47L46 48L47 48L47 49L46 49L46 50L45 50L45 48L43 48L43 49L44 49L44 53L45 53L45 54L48 54L48 52L47 52L47 51L48 51L48 48L50 48L50 47L51 47L51 48L52 48L52 47L51 47L51 46L50 46L50 47L49 47L49 46L48 46L48 44ZM9 45L9 46L8 46L8 47L10 47L10 48L11 48L11 47L12 47L12 46L11 46L11 45ZM37 45L37 46L39 46L39 45ZM1 46L1 47L2 47L2 46ZM10 46L10 47L11 47L11 46ZM31 46L31 47L32 47L32 46ZM14 47L14 48L15 48L15 47ZM27 49L27 52L30 52L30 49ZM49 49L49 52L52 52L52 49ZM55 49L55 50L54 50L54 51L55 51L55 50L56 50L56 49ZM24 50L24 51L25 51L25 52L26 52L26 50ZM28 50L28 51L29 51L29 50ZM46 50L46 51L47 51L47 50ZM50 50L50 51L51 51L51 50ZM15 52L15 53L16 53L16 52ZM46 52L46 53L47 53L47 52ZM49 53L49 54L51 54L51 55L53 55L53 54L51 54L51 53ZM17 55L17 56L18 56L18 55ZM25 55L25 56L28 56L28 55ZM23 56L23 57L24 57L24 56ZM0 0L0 7L7 7L7 0ZM1 1L1 6L6 6L6 1ZM2 2L2 5L5 5L5 2ZM50 0L50 7L57 7L57 0ZM51 1L51 6L56 6L56 1ZM52 2L52 5L55 5L55 2ZM0 50L0 57L7 57L7 50ZM1 51L1 56L6 56L6 51ZM2 52L2 55L5 55L5 52Z" fill="#000000"/></g></g></svg>
