<?xml version="1.0" encoding="UTF-8"?>
<svg xmlns="http://www.w3.org/2000/svg" version="1.1" width="300" height="300" viewBox="0 0 300 300"><rect x="0" y="0" width="300" height="300" fill="#ffffff"/><g transform="scale(4.918)"><g transform="translate(2,2)"><path fill-rule="evenodd" d="M10 0L10 1L11 1L11 0ZM12 0L12 2L11 2L11 3L10 3L10 2L9 2L9 1L8 1L8 2L9 2L9 3L8 3L8 4L9 4L9 5L8 5L8 7L9 7L9 8L6 8L6 9L7 9L7 10L6 10L6 11L7 11L7 12L6 12L6 13L5 13L5 12L2 12L2 11L1 11L1 10L3 10L3 11L5 11L5 8L0 8L0 9L1 9L1 10L0 10L0 11L1 11L1 12L2 12L2 13L0 13L0 14L2 14L2 15L0 15L0 16L2 16L2 18L1 18L1 19L3 19L3 18L4 18L4 20L0 20L0 21L4 21L4 22L1 22L1 23L3 23L3 24L0 24L0 25L4 25L4 28L3 28L3 26L1 26L1 27L2 27L2 28L3 28L3 29L1 29L1 28L0 28L0 29L1 29L1 30L3 30L3 32L2 32L2 31L1 31L1 32L2 32L2 33L0 33L0 37L2 37L2 38L1 38L1 40L2 40L2 39L3 39L3 36L4 36L4 37L5 37L5 36L6 36L6 37L7 37L7 38L5 38L5 39L4 39L4 41L2 41L2 43L3 43L3 42L4 42L4 43L5 43L5 41L7 41L7 42L6 42L6 43L9 43L9 41L7 41L7 40L9 40L9 38L8 38L8 37L9 37L9 36L10 36L10 37L11 37L11 38L13 38L13 41L14 41L14 42L12 42L12 40L11 40L11 39L10 39L10 40L11 40L11 42L12 42L12 43L10 43L10 46L11 46L11 47L13 47L13 48L12 48L12 49L11 49L11 48L10 48L10 47L9 47L9 48L8 48L8 47L7 47L7 46L9 46L9 45L8 45L8 44L6 44L6 45L4 45L4 44L3 44L3 45L2 45L2 44L1 44L1 43L0 43L0 45L2 45L2 47L1 47L1 46L0 46L0 48L5 48L5 47L7 47L7 48L6 48L6 49L8 49L8 51L9 51L9 50L10 50L10 52L8 52L8 57L11 57L11 56L12 56L12 54L14 54L14 55L15 55L15 56L13 56L13 57L19 57L19 56L20 56L20 57L22 57L22 55L21 55L21 53L22 53L22 54L23 54L23 55L24 55L24 56L23 56L23 57L26 57L26 55L25 55L25 54L27 54L27 53L28 53L28 54L29 54L29 55L30 55L30 56L29 56L29 57L31 57L31 56L34 56L34 55L35 55L35 54L32 54L32 52L33 52L33 53L37 53L37 52L38 52L38 51L40 51L40 52L39 52L39 54L36 54L36 56L35 56L35 57L38 57L38 55L39 55L39 56L40 56L40 52L41 52L41 54L43 54L43 53L44 53L44 54L45 54L45 55L46 55L46 54L45 54L45 53L44 53L44 50L46 50L46 51L45 51L45 52L48 52L48 53L50 53L50 55L51 55L51 56L50 56L50 57L52 57L52 56L53 56L53 57L54 57L54 56L55 56L55 57L56 57L56 56L55 56L55 54L54 54L54 55L51 55L51 54L53 54L53 53L54 53L54 52L55 52L55 50L57 50L57 49L54 49L54 48L57 48L57 47L56 47L56 46L57 46L57 45L56 45L56 46L55 46L55 45L54 45L54 44L55 44L55 43L56 43L56 44L57 44L57 43L56 43L56 42L55 42L55 39L57 39L57 37L56 37L56 36L55 36L55 34L57 34L57 32L56 32L56 30L57 30L57 29L56 29L56 30L55 30L55 29L54 29L54 28L56 28L56 26L55 26L55 25L56 25L56 24L55 24L55 23L56 23L56 22L57 22L57 21L56 21L56 20L55 20L55 19L53 19L53 18L54 18L54 17L53 17L53 18L52 18L52 16L55 16L55 18L57 18L57 17L56 17L56 16L57 16L57 15L56 15L56 14L57 14L57 12L56 12L56 14L53 14L53 15L51 15L51 14L52 14L52 13L51 13L51 14L50 14L50 15L49 15L49 13L50 13L50 11L52 11L52 12L53 12L53 11L54 11L54 12L55 12L55 11L56 11L56 10L57 10L57 9L56 9L56 8L55 8L55 9L56 9L56 10L55 10L55 11L54 11L54 10L53 10L53 11L52 11L52 8L51 8L51 10L50 10L50 8L49 8L49 6L48 6L48 7L47 7L47 5L48 5L48 0L45 0L45 1L47 1L47 2L44 2L44 1L43 1L43 0L42 0L42 1L41 1L41 2L39 2L39 1L40 1L40 0L39 0L39 1L38 1L38 0L37 0L37 1L34 1L34 0L33 0L33 1L34 1L34 2L30 2L30 3L31 3L31 4L28 4L28 3L29 3L29 1L31 1L31 0L29 0L29 1L28 1L28 0L27 0L27 2L25 2L25 1L26 1L26 0L24 0L24 1L23 1L23 0L21 0L21 2L19 2L19 1L16 1L16 0L14 0L14 1L15 1L15 2L14 2L14 3L13 3L13 0ZM22 1L22 2L23 2L23 3L22 3L22 4L21 4L21 3L20 3L20 4L17 4L17 3L16 3L16 4L15 4L15 3L14 3L14 4L15 4L15 5L16 5L16 4L17 4L17 7L18 7L18 5L20 5L20 6L19 6L19 9L15 9L15 8L16 8L16 6L15 6L15 8L14 8L14 6L13 6L13 7L12 7L12 5L11 5L11 4L13 4L13 3L11 3L11 4L10 4L10 6L9 6L9 7L10 7L10 6L11 6L11 7L12 7L12 8L11 8L11 11L9 11L9 10L10 10L10 9L8 9L8 11L9 11L9 12L10 12L10 13L11 13L11 14L10 14L10 15L9 15L9 13L8 13L8 12L7 12L7 13L6 13L6 14L7 14L7 15L6 15L6 16L7 16L7 17L6 17L6 18L5 18L5 19L6 19L6 20L4 20L4 21L5 21L5 22L8 22L8 23L5 23L5 24L4 24L4 25L5 25L5 26L7 26L7 25L5 25L5 24L9 24L9 23L10 23L10 24L13 24L13 25L12 25L12 27L13 27L13 26L14 26L14 27L15 27L15 28L13 28L13 29L12 29L12 30L11 30L11 31L12 31L12 30L13 30L13 29L14 29L14 32L13 32L13 33L12 33L12 32L11 32L11 33L8 33L8 34L9 34L9 35L8 35L8 36L7 36L7 35L6 35L6 34L7 34L7 33L6 33L6 32L8 32L8 31L4 31L4 32L3 32L3 33L2 33L2 34L3 34L3 35L1 35L1 36L3 36L3 35L4 35L4 36L5 36L5 35L6 35L6 36L7 36L7 37L8 37L8 36L9 36L9 35L10 35L10 34L11 34L11 35L12 35L12 36L11 36L11 37L13 37L13 38L14 38L14 40L16 40L16 39L15 39L15 38L16 38L16 37L18 37L18 38L17 38L17 39L18 39L18 38L20 38L20 39L19 39L19 41L20 41L20 42L21 42L21 41L22 41L22 43L21 43L21 44L22 44L22 45L19 45L19 44L20 44L20 43L19 43L19 42L18 42L18 41L15 41L15 42L18 42L18 43L16 43L16 44L18 44L18 45L16 45L16 46L17 46L17 47L16 47L16 48L17 48L17 47L18 47L18 45L19 45L19 47L20 47L20 48L19 48L19 49L18 49L18 50L19 50L19 49L20 49L20 50L21 50L21 49L22 49L22 51L21 51L21 52L19 52L19 53L17 53L17 52L18 52L18 51L16 51L16 50L17 50L17 49L15 49L15 48L13 48L13 50L14 50L14 51L16 51L16 52L15 52L15 53L14 53L14 54L15 54L15 55L16 55L16 56L19 56L19 55L20 55L20 54L19 54L19 53L21 53L21 52L22 52L22 53L23 53L23 54L24 54L24 53L23 53L23 52L24 52L24 51L25 51L25 53L26 53L26 49L25 49L25 50L23 50L23 49L24 49L24 48L26 48L26 46L29 46L29 45L27 45L27 44L28 44L28 43L29 43L29 44L30 44L30 46L31 46L31 48L32 48L32 49L33 49L33 48L35 48L35 49L34 49L34 50L32 50L32 51L31 51L31 52L32 52L32 51L34 51L34 50L35 50L35 49L36 49L36 48L37 48L37 49L38 49L38 50L37 50L37 51L38 51L38 50L42 50L42 51L43 51L43 50L44 50L44 49L45 49L45 48L40 48L40 47L41 47L41 46L42 46L42 47L43 47L43 46L44 46L44 47L45 47L45 46L44 46L44 45L45 45L45 44L44 44L44 45L43 45L43 44L41 44L41 43L44 43L44 42L45 42L45 43L46 43L46 42L47 42L47 43L48 43L48 44L47 44L47 45L46 45L46 46L47 46L47 47L46 47L46 50L47 50L47 51L48 51L48 48L49 48L49 47L51 47L51 48L54 48L54 47L55 47L55 46L54 46L54 45L51 45L51 44L53 44L53 43L54 43L54 41L52 41L52 40L51 40L51 39L55 39L55 38L53 38L53 36L52 36L52 34L54 34L54 33L56 33L56 32L53 32L53 31L54 31L54 30L53 30L53 31L51 31L51 32L49 32L49 31L48 31L48 29L46 29L46 30L45 30L45 28L44 28L44 27L46 27L46 28L47 28L47 27L48 27L48 25L49 25L49 26L53 26L53 27L55 27L55 26L54 26L54 24L52 24L52 23L53 23L53 22L52 22L52 23L50 23L50 22L51 22L51 21L54 21L54 23L55 23L55 20L51 20L51 19L52 19L52 18L51 18L51 17L50 17L50 18L49 18L49 19L50 19L50 22L49 22L49 23L48 23L48 25L47 25L47 24L46 24L46 23L47 23L47 21L48 21L48 18L47 18L47 17L46 17L46 18L45 18L45 16L48 16L48 17L49 17L49 15L45 15L45 16L44 16L44 14L42 14L42 11L41 11L41 9L44 9L44 10L43 10L43 11L44 11L44 10L47 10L47 11L45 11L45 12L44 12L44 13L45 13L45 12L46 12L46 14L47 14L47 13L49 13L49 12L48 12L48 9L49 9L49 8L48 8L48 9L45 9L45 8L42 8L42 6L43 6L43 7L44 7L44 6L45 6L45 7L46 7L46 8L47 8L47 7L46 7L46 5L47 5L47 3L40 3L40 5L41 5L41 7L40 7L40 6L39 6L39 7L40 7L40 8L38 8L38 10L40 10L40 11L41 11L41 12L38 12L38 13L37 13L37 14L39 14L39 13L40 13L40 15L41 15L41 14L42 14L42 15L43 15L43 16L42 16L42 17L41 17L41 16L39 16L39 15L38 15L38 16L37 16L37 15L33 15L33 16L30 16L30 13L29 13L29 12L28 12L28 13L26 13L26 14L25 14L25 15L26 15L26 16L25 16L25 17L26 17L26 16L28 16L28 17L27 17L27 18L28 18L28 19L26 19L26 20L27 20L27 21L25 21L25 22L26 22L26 23L25 23L25 24L26 24L26 25L25 25L25 26L24 26L24 27L25 27L25 28L23 28L23 29L22 29L22 28L21 28L21 29L19 29L19 30L17 30L17 29L18 29L18 28L17 28L17 29L16 29L16 30L17 30L17 31L16 31L16 32L18 32L18 31L19 31L19 33L16 33L16 35L17 35L17 34L19 34L19 35L18 35L18 36L16 36L16 37L15 37L15 38L14 38L14 37L13 37L13 36L15 36L15 35L14 35L14 33L15 33L15 28L16 28L16 27L15 27L15 26L17 26L17 27L18 27L18 25L14 25L14 24L13 24L13 23L11 23L11 22L15 22L15 23L16 23L16 24L17 24L17 23L20 23L20 22L19 22L19 21L21 21L21 22L22 22L22 23L21 23L21 24L19 24L19 25L20 25L20 26L19 26L19 28L20 28L20 27L22 27L22 26L21 26L21 25L24 25L24 23L23 23L23 22L24 22L24 21L23 21L23 19L24 19L24 18L23 18L23 17L24 17L24 16L23 16L23 14L24 14L24 13L25 13L25 12L27 12L27 11L30 11L30 12L31 12L31 13L33 13L33 14L36 14L36 13L33 13L33 12L31 12L31 11L33 11L33 10L34 10L34 12L35 12L35 9L33 9L33 8L32 8L32 9L31 9L31 10L27 10L27 9L26 9L26 6L25 6L25 4L26 4L26 3L25 3L25 2L23 2L23 1ZM37 1L37 2L35 2L35 3L32 3L32 4L31 4L31 7L32 7L32 6L33 6L33 7L34 7L34 8L37 8L37 7L38 7L38 5L39 5L39 4L38 4L38 1ZM42 1L42 2L43 2L43 1ZM27 2L27 3L28 3L28 2ZM24 3L24 4L22 4L22 5L24 5L24 4L25 4L25 3ZM36 3L36 5L34 5L34 4L33 4L33 5L34 5L34 7L35 7L35 6L36 6L36 7L37 7L37 6L36 6L36 5L38 5L38 4L37 4L37 3ZM41 4L41 5L43 5L43 4ZM44 4L44 5L46 5L46 4ZM27 5L27 8L30 8L30 5ZM20 6L20 7L21 7L21 6ZM22 6L22 7L23 7L23 9L21 9L21 10L20 10L20 9L19 9L19 13L18 13L18 12L16 12L16 11L18 11L18 10L16 10L16 11L15 11L15 15L16 15L16 17L15 17L15 18L13 18L13 17L14 17L14 16L13 16L13 15L14 15L14 13L13 13L13 15L12 15L12 14L11 14L11 16L9 16L9 17L7 17L7 18L6 18L6 19L7 19L7 20L6 20L6 21L7 21L7 20L10 20L10 22L11 22L11 20L10 20L10 19L11 19L11 18L10 18L10 17L11 17L11 16L13 16L13 17L12 17L12 20L13 20L13 21L15 21L15 22L16 22L16 21L15 21L15 20L16 20L16 19L17 19L17 20L18 20L18 21L17 21L17 22L18 22L18 21L19 21L19 18L16 18L16 17L19 17L19 16L17 16L17 15L16 15L16 13L18 13L18 15L19 15L19 13L22 13L22 12L20 12L20 11L22 11L22 10L23 10L23 11L24 11L24 12L23 12L23 13L24 13L24 12L25 12L25 11L24 11L24 10L25 10L25 9L24 9L24 7L25 7L25 6L24 6L24 7L23 7L23 6ZM28 6L28 7L29 7L29 6ZM53 8L53 9L54 9L54 8ZM12 9L12 11L13 11L13 12L14 12L14 11L13 11L13 10L15 10L15 9ZM32 9L32 10L33 10L33 9ZM26 10L26 11L27 11L27 10ZM49 10L49 11L50 11L50 10ZM11 12L11 13L12 13L12 12ZM2 13L2 14L4 14L4 15L5 15L5 14L4 14L4 13ZM28 13L28 14L27 14L27 15L29 15L29 13ZM20 14L20 15L21 15L21 16L20 16L20 17L21 17L21 18L20 18L20 19L21 19L21 18L22 18L22 17L21 17L21 16L22 16L22 14ZM31 14L31 15L32 15L32 14ZM7 15L7 16L8 16L8 15ZM3 16L3 17L4 17L4 16ZM35 16L35 18L33 18L33 17L32 17L32 18L33 18L33 19L30 19L30 20L29 20L29 19L28 19L28 20L29 20L29 21L30 21L30 22L29 22L29 23L27 23L27 24L29 24L29 23L30 23L30 22L31 22L31 23L32 23L32 24L33 24L33 23L35 23L35 24L34 24L34 25L33 25L33 26L32 26L32 25L31 25L31 24L30 24L30 25L29 25L29 26L27 26L27 25L26 25L26 26L25 26L25 27L26 27L26 30L25 30L25 29L23 29L23 31L27 31L27 33L30 33L30 32L28 32L28 31L31 31L31 30L32 30L32 28L33 28L33 29L36 29L36 30L33 30L33 31L32 31L32 32L31 32L31 34L32 34L32 32L34 32L34 33L35 33L35 34L33 34L33 35L34 35L34 36L33 36L33 37L34 37L34 36L35 36L35 34L36 34L36 35L38 35L38 36L39 36L39 37L40 37L40 36L41 36L41 39L40 39L40 38L36 38L36 39L37 39L37 40L33 40L33 39L34 39L34 38L33 38L33 39L31 39L31 38L32 38L32 35L30 35L30 34L29 34L29 35L30 35L30 36L29 36L29 37L28 37L28 36L27 36L27 35L26 35L26 34L25 34L25 33L26 33L26 32L23 32L23 36L24 36L24 37L21 37L21 40L24 40L24 39L23 39L23 38L24 38L24 37L25 37L25 36L27 36L27 37L26 37L26 38L25 38L25 41L23 41L23 43L25 43L25 42L26 42L26 43L27 43L27 42L26 42L26 41L27 41L27 40L26 40L26 39L28 39L28 40L29 40L29 39L31 39L31 40L33 40L33 41L35 41L35 42L38 42L38 43L37 43L37 44L36 44L36 43L35 43L35 44L36 44L36 45L37 45L37 44L38 44L38 43L39 43L39 44L40 44L40 43L41 43L41 42L43 42L43 41L44 41L44 39L43 39L43 37L44 37L44 38L45 38L45 41L47 41L47 42L48 42L48 43L49 43L49 44L51 44L51 43L50 43L50 42L51 42L51 41L49 41L49 40L48 40L48 41L47 41L47 40L46 40L46 38L45 38L45 37L44 37L44 35L45 35L45 36L46 36L46 37L47 37L47 36L46 36L46 35L48 35L48 33L47 33L47 32L48 32L48 31L47 31L47 30L46 30L46 31L47 31L47 32L45 32L45 31L43 31L43 32L42 32L42 33L41 33L41 34L37 34L37 33L38 33L38 31L37 31L37 30L38 30L38 28L36 28L36 26L38 26L38 27L39 27L39 26L38 26L38 24L39 24L39 23L40 23L40 24L41 24L41 23L42 23L42 22L43 22L43 21L40 21L40 20L41 20L41 19L42 19L42 18L43 18L43 17L44 17L44 16L43 16L43 17L42 17L42 18L41 18L41 19L40 19L40 20L39 20L39 18L37 18L37 16ZM38 16L38 17L39 17L39 16ZM29 17L29 18L31 18L31 17ZM9 18L9 19L10 19L10 18ZM35 18L35 19L34 19L34 20L35 20L35 21L33 21L33 20L32 20L32 21L33 21L33 22L35 22L35 23L36 23L36 22L37 22L37 21L36 21L36 20L38 20L38 22L39 22L39 20L38 20L38 19L36 19L36 18ZM46 18L46 19L43 19L43 20L46 20L46 19L47 19L47 18ZM13 19L13 20L14 20L14 19ZM21 20L21 21L22 21L22 22L23 22L23 21L22 21L22 20ZM30 20L30 21L31 21L31 20ZM44 21L44 23L43 23L43 25L41 25L41 26L40 26L40 28L41 28L41 26L42 26L42 28L43 28L43 29L42 29L42 30L39 30L39 31L40 31L40 32L39 32L39 33L40 33L40 32L41 32L41 31L42 31L42 30L44 30L44 28L43 28L43 27L44 27L44 26L45 26L45 25L44 25L44 23L46 23L46 22L45 22L45 21ZM40 22L40 23L41 23L41 22ZM22 23L22 24L23 24L23 23ZM37 23L37 24L38 24L38 23ZM49 23L49 24L50 24L50 25L52 25L52 24L50 24L50 23ZM8 25L8 26L9 26L9 25ZM34 25L34 26L33 26L33 28L34 28L34 26L36 26L36 25ZM10 26L10 27L11 27L11 26ZM46 26L46 27L47 27L47 26ZM5 27L5 30L8 30L8 27ZM27 27L27 30L30 30L30 27ZM31 27L31 28L32 28L32 27ZM49 27L49 30L52 30L52 27ZM6 28L6 29L7 29L7 28ZM9 28L9 32L10 32L10 28ZM28 28L28 29L29 29L29 28ZM50 28L50 29L51 29L51 28ZM21 29L21 31L22 31L22 29ZM34 31L34 32L35 32L35 33L36 33L36 32L37 32L37 31L36 31L36 32L35 32L35 31ZM4 32L4 33L3 33L3 34L4 34L4 35L5 35L5 32ZM20 32L20 33L21 33L21 34L20 34L20 35L19 35L19 36L18 36L18 37L20 37L20 36L21 36L21 34L22 34L22 33L21 33L21 32ZM43 32L43 34L41 34L41 36L42 36L42 37L43 37L43 36L42 36L42 35L44 35L44 34L45 34L45 35L46 35L46 34L47 34L47 33L46 33L46 34L45 34L45 32ZM51 32L51 33L50 33L50 34L51 34L51 33L53 33L53 32ZM11 33L11 34L12 34L12 33ZM24 34L24 36L25 36L25 34ZM39 35L39 36L40 36L40 35ZM49 35L49 36L50 36L50 37L49 37L49 38L47 38L47 39L50 39L50 37L51 37L51 35ZM30 36L30 38L31 38L31 36ZM36 36L36 37L37 37L37 36ZM54 36L54 37L55 37L55 36ZM27 37L27 38L28 38L28 37ZM5 39L5 40L7 40L7 39ZM38 39L38 40L39 40L39 41L38 41L38 42L39 42L39 43L40 43L40 42L41 42L41 40L42 40L42 41L43 41L43 39L41 39L41 40L39 40L39 39ZM29 41L29 43L31 43L31 46L32 46L32 48L33 48L33 47L35 47L35 48L36 48L36 47L39 47L39 46L40 46L40 45L39 45L39 46L33 46L33 45L32 45L32 44L34 44L34 42L32 42L32 41ZM39 41L39 42L40 42L40 41ZM12 43L12 45L11 45L11 46L14 46L14 44L15 44L15 43L14 43L14 44L13 44L13 43ZM23 44L23 45L24 45L24 47L25 47L25 45L26 45L26 44L25 44L25 45L24 45L24 44ZM3 45L3 47L5 47L5 46L4 46L4 45ZM6 45L6 46L7 46L7 45ZM42 45L42 46L43 46L43 45ZM47 45L47 46L51 46L51 47L52 47L52 46L51 46L51 45ZM20 46L20 47L21 47L21 48L23 48L23 47L22 47L22 46ZM28 47L28 48L30 48L30 47ZM9 48L9 49L10 49L10 48ZM38 48L38 49L40 49L40 48ZM27 49L27 52L30 52L30 49ZM42 49L42 50L43 50L43 49ZM49 49L49 52L52 52L52 49ZM28 50L28 51L29 51L29 50ZM50 50L50 51L51 51L51 50ZM53 50L53 51L54 51L54 50ZM12 51L12 53L13 53L13 51ZM35 51L35 52L36 52L36 51ZM56 51L56 52L57 52L57 51ZM9 53L9 54L10 54L10 55L9 55L9 56L11 56L11 53ZM15 53L15 54L16 54L16 53ZM29 53L29 54L30 54L30 53ZM17 54L17 55L19 55L19 54ZM47 54L47 55L49 55L49 54ZM27 55L27 56L28 56L28 55ZM43 55L43 57L44 57L44 55ZM47 56L47 57L48 57L48 56ZM0 0L0 7L7 7L7 0ZM1 1L1 6L6 6L6 1ZM2 2L2 5L5 5L5 2ZM50 0L50 7L57 7L57 0ZM51 1L51 6L56 6L56 1ZM52 2L52 5L55 5L55 2ZM0 50L0 57L7 57L7 50ZM1 51L1 56L6 56L6 51ZM2 52L2 55L5 55L5 52Z" fill="#000000"/></g></g></svg>
