<?xml version="1.0" encoding="UTF-8"?>
<svg xmlns="http://www.w3.org/2000/svg" version="1.1" width="300" height="300" viewBox="0 0 300 300"><rect x="0" y="0" width="300" height="300" fill="#ffffff"/><g transform="scale(4.918)"><g transform="translate(2,2)"><path fill-rule="evenodd" d="M10 0L10 2L9 2L9 1L8 1L8 2L9 2L9 3L8 3L8 4L10 4L10 8L11 8L11 10L10 10L10 9L9 9L9 8L6 8L6 9L5 9L5 8L0 8L0 10L1 10L1 13L0 13L0 15L3 15L3 17L1 17L1 18L0 18L0 21L1 21L1 18L3 18L3 17L4 17L4 15L3 15L3 14L4 14L4 13L3 13L3 14L1 14L1 13L2 13L2 12L4 12L4 11L7 11L7 12L6 12L6 13L7 13L7 14L5 14L5 16L6 16L6 17L5 17L5 18L4 18L4 19L2 19L2 21L3 21L3 22L2 22L2 23L0 23L0 25L1 25L1 26L4 26L4 27L3 27L3 29L2 29L2 28L1 28L1 27L0 27L0 28L1 28L1 29L0 29L0 31L1 31L1 30L3 30L3 31L4 31L4 32L2 32L2 33L3 33L3 35L5 35L5 36L6 36L6 37L4 37L4 38L5 38L5 39L4 39L4 40L3 40L3 37L2 37L2 35L1 35L1 34L0 34L0 36L1 36L1 38L0 38L0 39L2 39L2 40L0 40L0 43L1 43L1 42L2 42L2 41L4 41L4 40L6 40L6 41L5 41L5 42L3 42L3 43L4 43L4 44L5 44L5 45L7 45L7 46L5 46L5 47L3 47L3 46L4 46L4 45L3 45L3 44L2 44L2 45L1 45L1 44L0 44L0 48L5 48L5 47L7 47L7 48L6 48L6 49L7 49L7 48L9 48L9 47L8 47L8 46L10 46L10 47L11 47L11 50L10 50L10 49L8 49L8 51L11 51L11 53L10 53L10 52L8 52L8 57L9 57L9 53L10 53L10 56L11 56L11 57L13 57L13 55L14 55L14 56L16 56L16 57L17 57L17 56L16 56L16 55L15 55L15 54L16 54L16 53L15 53L15 52L14 52L14 51L16 51L16 52L17 52L17 53L19 53L19 54L20 54L20 55L19 55L19 56L18 56L18 57L22 57L22 56L23 56L23 55L24 55L24 57L26 57L26 56L28 56L28 55L27 55L27 53L28 53L28 54L29 54L29 55L30 55L30 56L29 56L29 57L30 57L30 56L31 56L31 57L32 57L32 55L33 55L33 57L34 57L34 55L35 55L35 57L39 57L39 56L41 56L41 57L43 57L43 56L46 56L46 57L48 57L48 56L47 56L47 55L50 55L50 54L45 54L45 53L44 53L44 50L43 50L43 48L45 48L45 50L46 50L46 51L47 51L47 52L46 52L46 53L47 53L47 52L48 52L48 53L51 53L51 54L53 54L53 55L51 55L51 56L50 56L50 57L52 57L52 56L55 56L55 57L56 57L56 56L55 56L55 53L54 53L54 54L53 54L53 52L55 52L55 51L56 51L56 52L57 52L57 51L56 51L56 50L57 50L57 49L56 49L56 50L55 50L55 49L54 49L54 50L53 50L53 47L52 47L52 45L54 45L54 46L57 46L57 45L56 45L56 44L57 44L57 43L56 43L56 42L55 42L55 40L56 40L56 39L54 39L54 38L55 38L55 37L54 37L54 36L56 36L56 37L57 37L57 36L56 36L56 34L57 34L57 33L55 33L55 34L52 34L52 36L51 36L51 35L49 35L49 34L48 34L48 33L47 33L47 32L48 32L48 31L49 31L49 33L50 33L50 32L51 32L51 33L53 33L53 32L52 32L52 31L54 31L54 32L55 32L55 30L57 30L57 29L56 29L56 28L57 28L57 27L56 27L56 26L57 26L57 25L56 25L56 26L55 26L55 25L54 25L54 26L55 26L55 27L53 27L53 25L51 25L51 26L50 26L50 24L49 24L49 25L48 25L48 23L49 23L49 22L50 22L50 23L51 23L51 24L55 24L55 23L56 23L56 24L57 24L57 23L56 23L56 22L57 22L57 21L54 21L54 20L57 20L57 19L56 19L56 18L57 18L57 17L55 17L55 18L54 18L54 20L53 20L53 19L52 19L52 18L53 18L53 17L54 17L54 16L55 16L55 14L57 14L57 12L56 12L56 11L54 11L54 10L52 10L52 8L51 8L51 10L50 10L50 8L49 8L49 6L48 6L48 8L49 8L49 9L48 9L48 10L50 10L50 11L52 11L52 12L53 12L53 11L54 11L54 12L55 12L55 13L54 13L54 15L51 15L51 14L52 14L52 13L51 13L51 12L50 12L50 13L51 13L51 14L49 14L49 13L47 13L47 14L46 14L46 12L45 12L45 11L47 11L47 10L45 10L45 11L43 11L43 9L44 9L44 8L45 8L45 9L46 9L46 8L47 8L47 5L48 5L48 0L46 0L46 1L45 1L45 0L44 0L44 1L45 1L45 2L39 2L39 1L38 1L38 0L36 0L36 2L37 2L37 3L36 3L36 5L35 5L35 6L34 6L34 5L33 5L33 6L32 6L32 7L33 7L33 6L34 6L34 8L33 8L33 9L32 9L32 8L31 8L31 4L32 4L32 3L33 3L33 4L34 4L34 3L35 3L35 1L34 1L34 0L32 0L32 1L34 1L34 2L30 2L30 1L31 1L31 0L30 0L30 1L29 1L29 0L28 0L28 1L26 1L26 0L21 0L21 1L23 1L23 2L24 2L24 3L23 3L23 4L22 4L22 2L21 2L21 4L22 4L22 5L21 5L21 6L20 6L20 5L18 5L18 4L20 4L20 3L18 3L18 2L20 2L20 0L19 0L19 1L18 1L18 2L17 2L17 1L16 1L16 2L14 2L14 1L15 1L15 0L12 0L12 1L11 1L11 0ZM41 0L41 1L43 1L43 0ZM24 1L24 2L25 2L25 3L24 3L24 4L23 4L23 5L22 5L22 6L21 6L21 7L20 7L20 6L19 6L19 8L20 8L20 10L21 10L21 12L22 12L22 13L23 13L23 14L24 14L24 15L25 15L25 16L22 16L22 14L21 14L21 13L20 13L20 12L19 12L19 10L18 10L18 9L17 9L17 8L18 8L18 6L17 6L17 8L16 8L16 6L15 6L15 5L16 5L16 4L18 4L18 3L17 3L17 2L16 2L16 4L15 4L15 3L14 3L14 2L13 2L13 3L12 3L12 2L11 2L11 5L12 5L12 6L11 6L11 8L12 8L12 6L13 6L13 7L14 7L14 6L15 6L15 8L14 8L14 10L13 10L13 9L12 9L12 10L13 10L13 11L14 11L14 12L13 12L13 13L14 13L14 14L13 14L13 15L12 15L12 11L10 11L10 10L9 10L9 11L10 11L10 13L11 13L11 15L10 15L10 16L11 16L11 15L12 15L12 16L14 16L14 17L12 17L12 18L14 18L14 17L15 17L15 18L16 18L16 20L15 20L15 21L12 21L12 20L14 20L14 19L12 19L12 20L11 20L11 21L9 21L9 23L8 23L8 20L7 20L7 19L8 19L8 18L7 18L7 17L6 17L6 18L7 18L7 19L5 19L5 20L4 20L4 21L6 21L6 22L7 22L7 23L6 23L6 24L4 24L4 26L10 26L10 27L11 27L11 24L12 24L12 23L13 23L13 25L12 25L12 26L14 26L14 27L12 27L12 28L10 28L10 31L9 31L9 32L10 32L10 33L9 33L9 35L8 35L8 32L7 32L7 31L6 31L6 32L7 32L7 33L5 33L5 35L6 35L6 36L7 36L7 37L6 37L6 38L7 38L7 39L6 39L6 40L7 40L7 41L6 41L6 42L5 42L5 44L7 44L7 45L10 45L10 46L11 46L11 45L13 45L13 46L14 46L14 44L11 44L11 43L13 43L13 40L14 40L14 42L15 42L15 45L16 45L16 46L18 46L18 48L19 48L19 49L14 49L14 48L15 48L15 47L12 47L12 48L13 48L13 49L14 49L14 50L13 50L13 51L14 51L14 50L17 50L17 52L18 52L18 51L20 51L20 52L19 52L19 53L23 53L23 52L24 52L24 51L25 51L25 53L26 53L26 48L27 48L27 47L26 47L26 46L28 46L28 47L29 47L29 48L31 48L31 49L32 49L32 51L31 51L31 52L32 52L32 54L35 54L35 52L36 52L36 51L37 51L37 52L38 52L38 54L37 54L37 53L36 53L36 54L37 54L37 55L38 55L38 56L39 56L39 52L40 52L40 55L41 55L41 56L42 56L42 55L45 55L45 54L44 54L44 53L43 53L43 52L42 52L42 51L43 51L43 50L42 50L42 49L41 49L41 48L40 48L40 47L38 47L38 49L37 49L37 50L35 50L35 49L36 49L36 48L37 48L37 47L36 47L36 48L35 48L35 47L33 47L33 46L35 46L35 44L36 44L36 43L37 43L37 44L39 44L39 43L40 43L40 42L39 42L39 41L42 41L42 40L43 40L43 41L45 41L45 42L44 42L44 43L43 43L43 44L40 44L40 45L41 45L41 46L42 46L42 47L43 47L43 46L44 46L44 45L45 45L45 44L44 44L44 43L45 43L45 42L47 42L47 43L48 43L48 42L47 42L47 41L48 41L48 40L47 40L47 39L46 39L46 40L47 40L47 41L45 41L45 40L43 40L43 39L45 39L45 38L47 38L47 37L49 37L49 38L50 38L50 39L49 39L49 41L52 41L52 42L50 42L50 43L52 43L52 44L53 44L53 43L54 43L54 40L53 40L53 41L52 41L52 40L50 40L50 39L53 39L53 36L54 36L54 35L53 35L53 36L52 36L52 37L51 37L51 36L50 36L50 37L49 37L49 35L48 35L48 36L45 36L45 35L44 35L44 34L47 34L47 33L45 33L45 32L47 32L47 31L48 31L48 28L47 28L47 27L48 27L48 25L46 25L46 26L44 26L44 25L45 25L45 24L44 24L44 25L43 25L43 26L41 26L41 24L42 24L42 23L44 23L44 21L45 21L45 22L47 22L47 23L46 23L46 24L47 24L47 23L48 23L48 21L49 21L49 19L48 19L48 18L47 18L47 17L45 17L45 16L40 16L40 14L42 14L42 15L43 15L43 14L44 14L44 15L45 15L45 12L44 12L44 13L43 13L43 14L42 14L42 10L41 10L41 8L42 8L42 6L43 6L43 8L44 8L44 6L45 6L45 7L46 7L46 5L47 5L47 3L43 3L43 5L42 5L42 6L41 6L41 3L40 3L40 5L39 5L39 2L38 2L38 1L37 1L37 2L38 2L38 6L37 6L37 5L36 5L36 6L35 6L35 8L36 8L36 6L37 6L37 7L38 7L38 8L39 8L39 9L38 9L38 10L37 10L37 11L34 11L34 12L37 12L37 11L38 11L38 10L39 10L39 11L40 11L40 12L38 12L38 13L36 13L36 16L34 16L34 18L32 18L32 17L33 17L33 16L30 16L30 15L31 15L31 14L30 14L30 13L31 13L31 12L28 12L28 13L26 13L26 14L24 14L24 13L25 13L25 12L27 12L27 11L26 11L26 10L28 10L28 11L29 11L29 9L25 9L25 7L26 7L26 6L25 6L25 7L24 7L24 6L23 6L23 5L24 5L24 4L25 4L25 5L26 5L26 4L25 4L25 3L26 3L26 1ZM46 1L46 2L47 2L47 1ZM27 2L27 3L28 3L28 4L29 4L29 3L30 3L30 2L29 2L29 3L28 3L28 2ZM13 3L13 4L14 4L14 5L13 5L13 6L14 6L14 5L15 5L15 4L14 4L14 3ZM44 4L44 5L45 5L45 4ZM8 5L8 7L9 7L9 5ZM27 5L27 8L30 8L30 5ZM22 6L22 7L21 7L21 8L24 8L24 7L23 7L23 6ZM28 6L28 7L29 7L29 6ZM38 6L38 7L39 7L39 8L41 8L41 6L40 6L40 7L39 7L39 6ZM53 8L53 9L54 9L54 8ZM55 8L55 10L57 10L57 9L56 9L56 8ZM1 9L1 10L2 10L2 11L3 11L3 10L4 10L4 9L3 9L3 10L2 10L2 9ZM6 9L6 10L7 10L7 9ZM21 9L21 10L22 10L22 11L23 11L23 13L24 13L24 11L25 11L25 9L23 9L23 10L22 10L22 9ZM33 9L33 10L36 10L36 9ZM15 10L15 13L18 13L18 14L17 14L17 15L15 15L15 17L16 17L16 16L17 16L17 17L19 17L19 18L17 18L17 19L19 19L19 18L20 18L20 17L19 17L19 15L18 15L18 14L20 14L20 13L18 13L18 12L16 12L16 11L18 11L18 10ZM40 10L40 11L41 11L41 10ZM32 11L32 14L35 14L35 13L33 13L33 11ZM7 12L7 13L9 13L9 12ZM28 13L28 14L26 14L26 15L27 15L27 16L25 16L25 17L21 17L21 18L23 18L23 21L19 21L19 20L17 20L17 21L19 21L19 22L20 22L20 23L17 23L17 24L16 24L16 23L15 23L15 25L17 25L17 26L16 26L16 27L17 27L17 28L16 28L16 29L13 29L13 28L12 28L12 29L11 29L11 30L12 30L12 31L10 31L10 32L13 32L13 34L12 34L12 33L11 33L11 34L12 34L12 35L13 35L13 34L14 34L14 35L16 35L16 33L19 33L19 31L20 31L20 30L19 30L19 29L21 29L21 28L23 28L23 29L22 29L22 31L21 31L21 32L20 32L20 33L21 33L21 34L24 34L24 35L25 35L25 37L22 37L22 36L23 36L23 35L21 35L21 37L22 37L22 38L24 38L24 39L21 39L21 41L22 41L22 43L23 43L23 41L22 41L22 40L25 40L25 39L27 39L27 40L26 40L26 42L25 42L25 41L24 41L24 42L25 42L25 43L27 43L27 42L28 42L28 43L29 43L29 44L27 44L27 45L29 45L29 47L31 47L31 48L33 48L33 50L34 50L34 51L32 51L32 52L33 52L33 53L34 53L34 52L35 52L35 50L34 50L34 49L35 49L35 48L33 48L33 47L32 47L32 46L31 46L31 45L32 45L32 42L30 42L30 43L29 43L29 42L28 42L28 41L32 41L32 39L31 39L31 38L32 38L32 34L31 34L31 33L32 33L32 32L33 32L33 31L35 31L35 32L34 32L34 33L33 33L33 34L34 34L34 35L35 35L35 34L36 34L36 35L37 35L37 34L38 34L38 35L39 35L39 34L38 34L38 33L37 33L37 32L38 32L38 31L37 31L37 32L36 32L36 30L38 30L38 29L39 29L39 32L41 32L41 33L42 33L42 34L41 34L41 35L40 35L40 36L36 36L36 37L35 37L35 36L33 36L33 37L35 37L35 38L34 38L34 39L33 39L33 40L34 40L34 39L35 39L35 38L36 38L36 39L37 39L37 38L38 38L38 37L39 37L39 38L40 38L40 36L41 36L41 37L42 37L42 38L43 38L43 37L44 37L44 38L45 38L45 37L44 37L44 35L42 35L42 34L43 34L43 32L45 32L45 31L42 31L42 30L44 30L44 28L45 28L45 30L46 30L46 31L47 31L47 30L46 30L46 29L47 29L47 28L46 28L46 27L47 27L47 26L46 26L46 27L42 27L42 28L43 28L43 29L42 29L42 30L41 30L41 29L39 29L39 28L40 28L40 27L39 27L39 26L37 26L37 27L36 27L36 25L39 25L39 24L41 24L41 23L40 23L40 22L39 22L39 23L37 23L37 22L38 22L38 20L36 20L36 21L37 21L37 22L36 22L36 24L35 24L35 23L34 23L34 22L33 22L33 21L34 21L34 20L35 20L35 19L37 19L37 18L38 18L38 19L39 19L39 18L38 18L38 17L40 17L40 16L38 16L38 17L37 17L37 16L36 16L36 17L35 17L35 18L34 18L34 19L32 19L32 18L31 18L31 17L29 17L29 18L31 18L31 19L29 19L29 20L30 20L30 22L29 22L29 23L28 23L28 22L27 22L27 24L26 24L26 22L25 22L25 21L24 21L24 18L25 18L25 20L26 20L26 19L27 19L27 20L28 20L28 16L29 16L29 15L30 15L30 14L29 14L29 13ZM37 14L37 15L39 15L39 14ZM6 15L6 16L8 16L8 17L9 17L9 15ZM17 15L17 16L18 16L18 15ZM20 15L20 16L21 16L21 15ZM46 15L46 16L48 16L48 17L49 17L49 18L51 18L51 17L53 17L53 16L50 16L50 17L49 17L49 15ZM56 15L56 16L57 16L57 15ZM41 17L41 18L43 18L43 17ZM44 17L44 18L45 18L45 19L42 19L42 20L46 20L46 21L47 21L47 20L46 20L46 19L47 19L47 18L45 18L45 17ZM9 19L9 20L10 20L10 19ZM21 19L21 20L22 20L22 19ZM40 19L40 20L39 20L39 21L40 21L40 20L41 20L41 19ZM50 19L50 22L51 22L51 23L55 23L55 22L52 22L52 21L53 21L53 20L51 20L51 19ZM6 20L6 21L7 21L7 20ZM32 20L32 21L33 21L33 20ZM15 21L15 22L16 22L16 21ZM23 21L23 22L24 22L24 23L25 23L25 22L24 22L24 21ZM41 21L41 22L43 22L43 21ZM4 22L4 23L5 23L5 22ZM11 22L11 23L12 23L12 22ZM21 22L21 24L19 24L19 25L18 25L18 24L17 24L17 25L18 25L18 26L17 26L17 27L18 27L18 26L19 26L19 27L20 27L20 28L21 28L21 27L20 27L20 26L21 26L21 25L22 25L22 27L23 27L23 28L24 28L24 29L23 29L23 31L22 31L22 32L21 32L21 33L25 33L25 34L26 34L26 35L27 35L27 38L28 38L28 39L29 39L29 40L31 40L31 39L29 39L29 37L28 37L28 36L30 36L30 38L31 38L31 36L30 36L30 35L29 35L29 34L30 34L30 32L32 32L32 31L33 31L33 30L36 30L36 29L33 29L33 28L34 28L34 27L33 27L33 28L32 28L32 26L35 26L35 24L34 24L34 23L33 23L33 24L32 24L32 23L31 23L31 22L30 22L30 23L29 23L29 24L27 24L27 25L31 25L31 28L32 28L32 29L31 29L31 31L28 31L28 32L29 32L29 33L27 33L27 31L25 31L25 30L26 30L26 27L25 27L25 26L26 26L26 25L25 25L25 24L23 24L23 23L22 23L22 22ZM30 23L30 24L31 24L31 25L32 25L32 24L31 24L31 23ZM1 24L1 25L2 25L2 24ZM6 24L6 25L7 25L7 24ZM8 24L8 25L10 25L10 24ZM33 24L33 25L34 25L34 24ZM19 25L19 26L20 26L20 25ZM23 25L23 27L24 27L24 26L25 26L25 25ZM5 27L5 30L8 30L8 27ZM27 27L27 30L30 30L30 27ZM35 27L35 28L36 28L36 27ZM37 27L37 28L39 28L39 27ZM49 27L49 30L52 30L52 27ZM6 28L6 29L7 29L7 28ZM17 28L17 29L16 29L16 30L17 30L17 29L18 29L18 28ZM28 28L28 29L29 29L29 28ZM50 28L50 29L51 29L51 28ZM54 28L54 29L53 29L53 30L55 30L55 28ZM12 29L12 30L13 30L13 32L14 32L14 34L15 34L15 32L17 32L17 31L15 31L15 30L13 30L13 29ZM24 29L24 30L25 30L25 29ZM32 29L32 30L33 30L33 29ZM18 30L18 31L19 31L19 30ZM40 30L40 31L41 31L41 32L42 32L42 31L41 31L41 30ZM14 31L14 32L15 32L15 31ZM24 31L24 32L25 32L25 31ZM0 32L0 33L1 33L1 32ZM35 32L35 33L34 33L34 34L35 34L35 33L36 33L36 34L37 34L37 33L36 33L36 32ZM26 33L26 34L27 34L27 33ZM6 34L6 35L7 35L7 34ZM17 34L17 35L18 35L18 37L16 37L16 36L15 36L15 37L16 37L16 38L14 38L14 36L13 36L13 37L12 37L12 36L8 36L8 37L7 37L7 38L9 38L9 40L8 40L8 41L10 41L10 40L11 40L11 41L12 41L12 40L13 40L13 38L14 38L14 40L15 40L15 39L16 39L16 41L15 41L15 42L16 42L16 43L18 43L18 41L19 41L19 42L20 42L20 41L19 41L19 40L17 40L17 39L20 39L20 38L18 38L18 37L20 37L20 34ZM11 37L11 38L10 38L10 39L11 39L11 40L12 40L12 37ZM25 37L25 38L26 38L26 37ZM36 37L36 38L37 38L37 37ZM50 37L50 38L51 38L51 37ZM27 40L27 41L28 41L28 40ZM36 40L36 42L34 42L34 41L33 41L33 42L34 42L34 43L33 43L33 44L34 44L34 43L36 43L36 42L38 42L38 43L39 43L39 42L38 42L38 40ZM16 41L16 42L17 42L17 41ZM6 42L6 43L7 43L7 42ZM10 42L10 43L8 43L8 44L10 44L10 45L11 45L11 44L10 44L10 43L11 43L11 42ZM41 42L41 43L42 43L42 42ZM52 42L52 43L53 43L53 42ZM20 43L20 44L19 44L19 45L18 45L18 44L16 44L16 45L18 45L18 46L19 46L19 47L22 47L22 44L21 44L21 43ZM30 43L30 44L31 44L31 43ZM25 44L25 45L23 45L23 46L24 46L24 47L23 47L23 48L25 48L25 45L26 45L26 44ZM43 44L43 45L42 45L42 46L43 46L43 45L44 45L44 44ZM47 44L47 45L46 45L46 46L48 46L48 47L45 47L45 48L46 48L46 50L47 50L47 51L48 51L48 48L50 48L50 47L51 47L51 48L52 48L52 47L51 47L51 46L50 46L50 47L49 47L49 46L48 46L48 44ZM49 44L49 45L51 45L51 44ZM54 44L54 45L55 45L55 44ZM2 45L2 46L1 46L1 47L2 47L2 46L3 46L3 45ZM19 45L19 46L21 46L21 45ZM37 45L37 46L39 46L39 45ZM16 47L16 48L17 48L17 47ZM54 47L54 48L56 48L56 47ZM20 48L20 49L19 49L19 50L20 50L20 49L21 49L21 48ZM39 48L39 49L40 49L40 48ZM22 49L22 50L21 50L21 51L22 51L22 52L23 52L23 51L24 51L24 50L25 50L25 49ZM27 49L27 52L30 52L30 49ZM49 49L49 52L52 52L52 49ZM22 50L22 51L23 51L23 50ZM28 50L28 51L29 51L29 50ZM37 50L37 51L38 51L38 52L39 52L39 50ZM41 50L41 51L40 51L40 52L41 52L41 51L42 51L42 50ZM50 50L50 51L51 51L51 50ZM54 50L54 51L55 51L55 50ZM13 52L13 53L14 53L14 52ZM11 53L11 54L12 54L12 53ZM30 53L30 54L31 54L31 53ZM42 53L42 54L41 54L41 55L42 55L42 54L43 54L43 53ZM22 54L22 55L23 55L23 54ZM24 54L24 55L25 55L25 56L26 56L26 55L25 55L25 54ZM11 55L11 56L12 56L12 55ZM0 0L0 7L7 7L7 0ZM1 1L1 6L6 6L6 1ZM2 2L2 5L5 5L5 2ZM50 0L50 7L57 7L57 0ZM51 1L51 6L56 6L56 1ZM52 2L52 5L55 5L55 2ZM0 50L0 57L7 57L7 50ZM1 51L1 56L6 56L6 51ZM2 52L2 55L5 55L5 52Z" fill="#000000"/></g></g></svg>
