<?xml version="1.0" encoding="UTF-8"?>
<svg xmlns="http://www.w3.org/2000/svg" version="1.1" width="300" height="300" viewBox="0 0 300 300"><rect x="0" y="0" width="300" height="300" fill="#ffffff"/><g transform="scale(4.918)"><g transform="translate(2,2)"><path fill-rule="evenodd" d="M9 0L9 1L8 1L8 2L10 2L10 3L11 3L11 4L13 4L13 6L12 6L12 7L11 7L11 5L10 5L10 4L9 4L9 3L8 3L8 4L9 4L9 5L8 5L8 7L9 7L9 8L6 8L6 9L5 9L5 8L0 8L0 10L1 10L1 11L0 11L0 12L1 12L1 11L2 11L2 10L1 10L1 9L3 9L3 10L4 10L4 11L3 11L3 12L2 12L2 14L0 14L0 15L1 15L1 16L2 16L2 18L1 18L1 17L0 17L0 18L1 18L1 20L0 20L0 23L1 23L1 22L2 22L2 24L0 24L0 25L1 25L1 28L0 28L0 30L1 30L1 29L3 29L3 28L4 28L4 30L3 30L3 31L1 31L1 32L0 32L0 34L1 34L1 37L0 37L0 38L1 38L1 39L0 39L0 40L2 40L2 41L3 41L3 42L4 42L4 41L5 41L5 40L4 40L4 41L3 41L3 40L2 40L2 39L4 39L4 37L5 37L5 39L8 39L8 40L6 40L6 41L8 41L8 40L9 40L9 39L11 39L11 40L12 40L12 42L11 42L11 41L10 41L10 42L9 42L9 44L8 44L8 43L7 43L7 42L5 42L5 43L2 43L2 44L4 44L4 45L1 45L1 43L0 43L0 45L1 45L1 46L0 46L0 48L5 48L5 47L7 47L7 48L6 48L6 49L7 49L7 48L8 48L8 51L9 51L9 52L8 52L8 57L9 57L9 53L10 53L10 51L9 51L9 50L11 50L11 51L13 51L13 52L12 52L12 53L13 53L13 55L10 55L10 56L11 56L11 57L14 57L14 56L13 56L13 55L14 55L14 54L16 54L16 53L13 53L13 52L16 52L16 51L17 51L17 50L18 50L18 49L19 49L19 51L18 51L18 52L17 52L17 53L19 53L19 54L18 54L18 55L17 55L17 57L19 57L19 56L20 56L20 57L22 57L22 55L24 55L24 56L23 56L23 57L24 57L24 56L25 56L25 57L26 57L26 56L25 56L25 55L26 55L26 54L27 54L27 53L28 53L28 54L29 54L29 55L30 55L30 56L31 56L31 55L32 55L32 56L33 56L33 55L34 55L34 57L37 57L37 56L38 56L38 57L39 57L39 55L40 55L40 52L41 52L41 51L42 51L42 50L43 50L43 49L42 49L42 48L45 48L45 47L47 47L47 46L49 46L49 47L50 47L50 48L48 48L48 51L47 51L47 50L45 50L45 49L44 49L44 50L45 50L45 52L48 52L48 53L47 53L47 55L43 55L43 56L42 56L42 57L44 57L44 56L45 56L45 57L49 57L49 56L47 56L47 55L49 55L49 54L48 54L48 53L50 53L50 55L51 55L51 56L50 56L50 57L52 57L52 56L54 56L54 57L56 57L56 56L55 56L55 55L54 55L54 54L55 54L55 53L54 53L54 52L55 52L55 50L57 50L57 49L54 49L54 48L57 48L57 47L56 47L56 46L57 46L57 43L56 43L56 41L54 41L54 43L53 43L53 44L52 44L52 45L51 45L51 43L50 43L50 42L51 42L51 41L49 41L49 40L48 40L48 41L47 41L47 39L46 39L46 38L45 38L45 37L44 37L44 34L46 34L46 35L45 35L45 36L46 36L46 37L47 37L47 36L46 36L46 35L49 35L49 36L50 36L50 37L48 37L48 39L50 39L50 37L52 37L52 36L53 36L53 38L51 38L51 39L53 39L53 40L52 40L52 41L53 41L53 40L55 40L55 39L57 39L57 37L56 37L56 36L57 36L57 35L55 35L55 34L57 34L57 32L56 32L56 30L57 30L57 28L56 28L56 26L57 26L57 24L56 24L56 25L54 25L54 26L55 26L55 27L53 27L53 25L51 25L51 26L49 26L49 25L50 25L50 24L49 24L49 25L48 25L48 23L49 23L49 22L50 22L50 23L51 23L51 24L53 24L53 23L52 23L52 22L54 22L54 24L55 24L55 23L56 23L56 22L57 22L57 21L55 21L55 22L54 22L54 21L51 21L51 22L50 22L50 19L48 19L48 21L47 21L47 23L46 23L46 22L45 22L45 21L44 21L44 24L46 24L46 25L45 25L45 26L43 26L43 25L40 25L40 26L39 26L39 27L40 27L40 28L41 28L41 26L42 26L42 28L43 28L43 29L42 29L42 30L41 30L41 31L40 31L40 32L38 32L38 33L37 33L37 32L36 32L36 30L37 30L37 31L39 31L39 30L37 30L37 29L38 29L38 28L37 28L37 27L34 27L34 26L33 26L33 25L32 25L32 24L33 24L33 21L32 21L32 20L34 20L34 21L35 21L35 19L40 19L40 20L38 20L38 21L39 21L39 22L36 22L36 23L35 23L35 22L34 22L34 25L37 25L37 26L38 26L38 25L39 25L39 24L40 24L40 22L41 22L41 24L43 24L43 23L42 23L42 22L43 22L43 21L42 21L42 20L45 20L45 19L44 19L44 18L46 18L46 19L47 19L47 18L50 18L50 17L51 17L51 18L54 18L54 16L55 16L55 18L57 18L57 17L56 17L56 16L57 16L57 15L56 15L56 14L57 14L57 13L56 13L56 14L55 14L55 13L53 13L53 15L54 15L54 16L53 16L53 17L51 17L51 16L49 16L49 17L47 17L47 18L46 18L46 17L43 17L43 16L45 16L45 15L49 15L49 13L50 13L50 11L52 11L52 12L53 12L53 11L54 11L54 12L55 12L55 11L56 11L56 8L55 8L55 11L54 11L54 10L53 10L53 9L54 9L54 8L53 8L53 9L52 9L52 8L51 8L51 10L50 10L50 8L49 8L49 6L48 6L48 7L47 7L47 5L48 5L48 0L45 0L45 1L44 1L44 0L40 0L40 1L38 1L38 0L36 0L36 1L34 1L34 0L33 0L33 1L32 1L32 0L30 0L30 1L28 1L28 0L27 0L27 1L26 1L26 0L24 0L24 1L23 1L23 0L21 0L21 2L19 2L19 1L18 1L18 2L17 2L17 1L16 1L16 0L14 0L14 1L15 1L15 2L14 2L14 3L12 3L12 2L10 2L10 1L12 1L12 0ZM22 1L22 2L23 2L23 3L22 3L22 4L21 4L21 3L20 3L20 4L17 4L17 3L16 3L16 4L15 4L15 3L14 3L14 4L15 4L15 5L14 5L14 6L13 6L13 7L12 7L12 8L14 8L14 10L13 10L13 11L11 11L11 10L10 10L10 11L8 11L8 10L9 10L9 9L6 9L6 10L7 10L7 11L6 11L6 12L4 12L4 13L6 13L6 14L5 14L5 15L4 15L4 14L2 14L2 15L4 15L4 16L7 16L7 17L5 17L5 18L2 18L2 20L1 20L1 21L2 21L2 22L7 22L7 23L6 23L6 24L4 24L4 25L3 25L3 24L2 24L2 28L3 28L3 27L4 27L4 26L5 26L5 25L6 25L6 26L7 26L7 25L6 25L6 24L7 24L7 23L8 23L8 26L9 26L9 25L10 25L10 26L12 26L12 27L11 27L11 28L10 28L10 29L9 29L9 32L8 32L8 33L6 33L6 34L8 34L8 35L9 35L9 36L10 36L10 34L11 34L11 33L9 33L9 32L11 32L11 31L13 31L13 30L10 30L10 29L14 29L14 31L15 31L15 29L14 29L14 28L17 28L17 29L16 29L16 30L17 30L17 31L16 31L16 32L18 32L18 31L20 31L20 32L19 32L19 33L16 33L16 35L17 35L17 34L19 34L19 35L20 35L20 34L21 34L21 35L22 35L22 36L20 36L20 37L18 37L18 36L16 36L16 37L14 37L14 38L16 38L16 37L18 37L18 40L19 40L19 41L20 41L20 42L22 42L22 43L21 43L21 44L22 44L22 45L19 45L19 42L18 42L18 43L17 43L17 41L15 41L15 40L16 40L16 39L15 39L15 40L14 40L14 42L13 42L13 44L11 44L11 43L10 43L10 44L11 44L11 45L13 45L13 44L14 44L14 49L13 49L13 48L12 48L12 47L13 47L13 46L9 46L9 48L10 48L10 49L11 49L11 50L12 50L12 49L13 49L13 50L14 50L14 51L16 51L16 50L17 50L17 49L15 49L15 47L16 47L16 48L17 48L17 47L18 47L18 45L19 45L19 46L22 46L22 47L23 47L23 48L21 48L21 47L20 47L20 48L19 48L19 49L20 49L20 50L21 50L21 52L19 52L19 53L21 53L21 55L22 55L22 53L23 53L23 54L24 54L24 53L23 53L23 52L24 52L24 51L25 51L25 52L26 52L26 46L27 46L27 47L28 47L28 48L29 48L29 47L30 47L30 48L31 48L31 50L32 50L32 51L31 51L31 52L32 52L32 54L35 54L35 56L37 56L37 55L38 55L38 54L39 54L39 52L40 52L40 51L38 51L38 52L37 52L37 53L35 53L35 52L36 52L36 51L34 51L34 50L42 50L42 49L41 49L41 48L40 48L40 47L41 47L41 46L42 46L42 47L45 47L45 43L49 43L49 42L47 42L47 41L46 41L46 40L45 40L45 38L44 38L44 37L43 37L43 38L41 38L41 37L42 37L42 36L43 36L43 34L42 34L42 32L40 32L40 33L38 33L38 34L37 34L37 35L35 35L35 36L33 36L33 35L32 35L32 34L36 34L36 32L35 32L35 31L33 31L33 32L30 32L30 31L28 31L28 32L29 32L29 33L26 33L26 32L27 32L27 31L25 31L25 34L24 34L24 36L23 36L23 30L24 30L24 29L25 29L25 30L26 30L26 27L25 27L25 26L26 26L26 25L28 25L28 26L29 26L29 25L30 25L30 23L31 23L31 24L32 24L32 23L31 23L31 22L29 22L29 21L30 21L30 19L32 19L32 18L33 18L33 19L34 19L34 18L36 18L36 17L35 17L35 16L37 16L37 15L38 15L38 17L37 17L37 18L39 18L39 17L40 17L40 19L41 19L41 20L40 20L40 21L41 21L41 22L42 22L42 21L41 21L41 20L42 20L42 19L43 19L43 18L41 18L41 16L39 16L39 15L41 15L41 14L42 14L42 15L43 15L43 14L45 14L45 12L46 12L46 14L47 14L47 13L49 13L49 12L47 12L47 11L48 11L48 10L47 10L47 9L49 9L49 8L47 8L47 7L46 7L46 5L47 5L47 3L43 3L43 2L44 2L44 1L40 1L40 2L42 2L42 4L43 4L43 7L44 7L44 6L45 6L45 8L43 8L43 9L45 9L45 10L47 10L47 11L45 11L45 12L44 12L44 11L43 11L43 14L42 14L42 11L40 11L40 9L41 9L41 8L42 8L42 5L41 5L41 3L40 3L40 5L41 5L41 8L39 8L39 7L40 7L40 6L39 6L39 7L38 7L38 5L39 5L39 4L38 4L38 1L37 1L37 2L34 2L34 1L33 1L33 3L32 3L32 4L31 4L31 3L27 3L27 4L31 4L31 8L32 8L32 10L30 10L30 9L26 9L26 6L25 6L25 4L26 4L26 3L25 3L25 2L26 2L26 1L25 1L25 2L23 2L23 1ZM27 1L27 2L28 2L28 1ZM30 1L30 2L32 2L32 1ZM45 1L45 2L47 2L47 1ZM24 3L24 4L22 4L22 5L21 5L21 6L20 6L20 5L17 5L17 4L16 4L16 5L15 5L15 6L14 6L14 7L15 7L15 6L16 6L16 9L15 9L15 15L13 15L13 14L14 14L14 13L13 13L13 12L14 12L14 11L13 11L13 12L12 12L12 14L9 14L9 15L10 15L10 16L8 16L8 17L10 17L10 20L11 20L11 21L10 21L10 22L8 22L8 21L9 21L9 18L8 18L8 20L6 20L6 19L7 19L7 18L5 18L5 21L7 21L7 22L8 22L8 23L10 23L10 24L11 24L11 25L12 25L12 26L13 26L13 27L15 27L15 26L14 26L14 25L16 25L16 23L15 23L15 22L16 22L16 21L15 21L15 20L16 20L16 19L17 19L17 21L19 21L19 22L17 22L17 25L18 25L18 27L17 27L17 26L16 26L16 27L17 27L17 28L18 28L18 29L17 29L17 30L20 30L20 29L21 29L21 31L22 31L22 29L24 29L24 28L25 28L25 27L23 27L23 25L24 25L24 26L25 26L25 25L26 25L26 24L25 24L25 23L26 23L26 22L25 22L25 21L26 21L26 19L27 19L27 20L28 20L28 19L29 19L29 18L32 18L32 17L29 17L29 18L28 18L28 19L27 19L27 17L28 17L28 15L30 15L30 16L33 16L33 18L34 18L34 16L33 16L33 15L35 15L35 14L31 14L31 13L32 13L32 12L31 12L31 13L28 13L28 12L30 12L30 10L29 10L29 11L28 11L28 10L26 10L26 11L27 11L27 12L25 12L25 11L24 11L24 10L25 10L25 9L24 9L24 7L25 7L25 6L24 6L24 7L23 7L23 6L22 6L22 5L24 5L24 4L25 4L25 3ZM34 3L34 4L35 4L35 3ZM36 3L36 5L33 5L33 6L32 6L32 7L33 7L33 6L34 6L34 8L33 8L33 10L32 10L32 11L33 11L33 13L35 13L35 12L36 12L36 13L37 13L37 14L36 14L36 15L37 15L37 14L38 14L38 12L39 12L39 10L37 10L37 9L38 9L38 8L37 8L37 6L36 6L36 5L38 5L38 4L37 4L37 3ZM44 4L44 5L46 5L46 4ZM27 5L27 8L30 8L30 5ZM9 6L9 7L10 7L10 6ZM17 6L17 7L18 7L18 8L17 8L17 9L16 9L16 10L17 10L17 9L18 9L18 11L16 11L16 12L18 12L18 13L16 13L16 15L15 15L15 16L14 16L14 17L13 17L13 16L12 16L12 15L11 15L11 16L12 16L12 17L11 17L11 18L14 18L14 17L16 17L16 18L17 18L17 19L18 19L18 20L19 20L19 21L23 21L23 22L24 22L24 21L23 21L23 20L22 20L22 19L24 19L24 18L23 18L23 17L24 17L24 14L23 14L23 13L25 13L25 14L28 14L28 13L25 13L25 12L23 12L23 10L24 10L24 9L23 9L23 8L21 8L21 7L22 7L22 6L21 6L21 7L20 7L20 6L19 6L19 7L18 7L18 6ZM28 6L28 7L29 7L29 6ZM35 6L35 7L36 7L36 6ZM10 8L10 9L11 9L11 8ZM18 8L18 9L19 9L19 12L20 12L20 13L18 13L18 15L19 15L19 16L17 16L17 15L16 15L16 17L19 17L19 16L20 16L20 17L21 17L21 18L20 18L20 19L21 19L21 18L22 18L22 17L21 17L21 16L22 16L22 14L20 14L20 13L22 13L22 12L21 12L21 11L22 11L22 9L21 9L21 8L20 8L20 9L19 9L19 8ZM34 8L34 10L36 10L36 9L35 9L35 8ZM45 8L45 9L47 9L47 8ZM20 9L20 10L21 10L21 9ZM49 10L49 11L50 11L50 10ZM52 10L52 11L53 11L53 10ZM7 11L7 12L6 12L6 13L7 13L7 14L6 14L6 15L7 15L7 14L8 14L8 13L7 13L7 12L8 12L8 11ZM34 11L34 12L35 12L35 11ZM36 11L36 12L37 12L37 11ZM9 12L9 13L10 13L10 12ZM51 13L51 14L50 14L50 15L51 15L51 14L52 14L52 13ZM19 14L19 15L20 15L20 16L21 16L21 15L20 15L20 14ZM54 14L54 15L55 15L55 14ZM26 15L26 16L25 16L25 19L26 19L26 16L27 16L27 15ZM18 18L18 19L19 19L19 18ZM13 19L13 20L14 20L14 19ZM51 19L51 20L56 20L56 19ZM36 20L36 21L37 21L37 20ZM11 21L11 23L13 23L13 22L15 22L15 21ZM27 21L27 22L28 22L28 21ZM19 22L19 23L18 23L18 24L19 24L19 25L20 25L20 28L19 28L19 29L20 29L20 28L21 28L21 29L22 29L22 28L21 28L21 27L22 27L22 25L23 25L23 24L24 24L24 25L25 25L25 24L24 24L24 23L23 23L23 24L19 24L19 23L20 23L20 22ZM21 22L21 23L22 23L22 22ZM14 23L14 24L15 24L15 23ZM27 23L27 24L29 24L29 23ZM38 23L38 24L39 24L39 23ZM46 25L46 26L47 26L47 27L46 27L46 28L47 28L47 29L46 29L46 30L42 30L42 31L46 31L46 30L47 30L47 31L48 31L48 32L46 32L46 34L47 34L47 33L48 33L48 34L49 34L49 35L51 35L51 36L52 36L52 34L54 34L54 33L56 33L56 32L53 32L53 31L54 31L54 30L56 30L56 28L54 28L54 29L53 29L53 31L51 31L51 32L49 32L49 31L48 31L48 25ZM32 26L32 27L31 27L31 28L32 28L32 29L31 29L31 31L32 31L32 30L35 30L35 29L33 29L33 28L34 28L34 27L33 27L33 26ZM5 27L5 30L8 30L8 27ZM27 27L27 30L30 30L30 27ZM44 27L44 29L45 29L45 27ZM49 27L49 30L52 30L52 27ZM6 28L6 29L7 29L7 28ZM28 28L28 29L29 29L29 28ZM50 28L50 29L51 29L51 28ZM3 31L3 34L2 34L2 35L3 35L3 36L2 36L2 38L3 38L3 37L4 37L4 36L5 36L5 37L6 37L6 38L7 38L7 37L6 37L6 36L7 36L7 35L6 35L6 36L5 36L5 35L4 35L4 32L5 32L5 31ZM6 31L6 32L7 32L7 31ZM12 32L12 33L13 33L13 32ZM20 32L20 33L21 33L21 34L22 34L22 33L21 33L21 32ZM33 32L33 33L35 33L35 32ZM43 32L43 33L45 33L45 32ZM51 32L51 33L50 33L50 34L51 34L51 33L53 33L53 32ZM8 33L8 34L9 34L9 33ZM29 33L29 34L30 34L30 35L29 35L29 36L28 36L28 37L29 37L29 38L27 38L27 37L26 37L26 38L25 38L25 41L24 41L24 39L23 39L23 38L24 38L24 37L25 37L25 36L27 36L27 35L26 35L26 34L25 34L25 36L24 36L24 37L21 37L21 40L20 40L20 41L21 41L21 40L23 40L23 42L26 42L26 43L27 43L27 44L28 44L28 45L27 45L27 46L28 46L28 47L29 47L29 46L30 46L30 47L31 47L31 48L33 48L33 50L34 50L34 49L37 49L37 48L38 48L38 47L37 47L37 48L34 48L34 47L36 47L36 46L38 46L38 45L39 45L39 44L40 44L40 43L41 43L41 44L43 44L43 45L42 45L42 46L44 46L44 44L43 44L43 43L42 43L42 42L45 42L45 41L44 41L44 39L40 39L40 38L36 38L36 37L38 37L38 36L39 36L39 37L40 37L40 36L41 36L41 35L42 35L42 34L41 34L41 35L40 35L40 34L38 34L38 36L36 36L36 37L35 37L35 38L33 38L33 39L32 39L32 40L30 40L30 41L29 41L29 40L28 40L28 39L31 39L31 38L32 38L32 35L31 35L31 34L32 34L32 33ZM13 34L13 35L12 35L12 36L11 36L11 37L13 37L13 36L15 36L15 34ZM30 35L30 38L31 38L31 35ZM39 35L39 36L40 36L40 35ZM54 36L54 39L55 39L55 36ZM8 37L8 39L9 39L9 38L10 38L10 37ZM11 38L11 39L13 39L13 38ZM19 38L19 39L20 39L20 38ZM35 38L35 39L34 39L34 40L35 40L35 39L36 39L36 38ZM38 39L38 42L37 42L37 41L36 41L36 42L37 42L37 44L39 44L39 42L42 42L42 41L43 41L43 40L40 40L40 41L39 41L39 39ZM27 40L27 41L26 41L26 42L27 42L27 43L28 43L28 44L29 44L29 43L30 43L30 44L31 44L31 43L32 43L32 45L31 45L31 46L35 46L35 44L36 44L36 43L35 43L35 41L33 41L33 40L32 40L32 41L33 41L33 42L34 42L34 44L33 44L33 43L32 43L32 42L31 42L31 43L30 43L30 42L29 42L29 41L28 41L28 40ZM27 41L27 42L28 42L28 41ZM5 43L5 44L7 44L7 45L5 45L5 46L3 46L3 47L5 47L5 46L7 46L7 45L8 45L8 44L7 44L7 43ZM14 43L14 44L15 44L15 46L16 46L16 47L17 47L17 46L16 46L16 45L18 45L18 44L17 44L17 43ZM23 43L23 45L24 45L24 46L25 46L25 45L26 45L26 44L25 44L25 43ZM24 44L24 45L25 45L25 44ZM47 44L47 45L46 45L46 46L47 46L47 45L49 45L49 46L50 46L50 47L51 47L51 45L50 45L50 44ZM54 44L54 45L55 45L55 46L56 46L56 44ZM28 45L28 46L29 46L29 45ZM40 45L40 46L39 46L39 47L40 47L40 46L41 46L41 45ZM52 45L52 46L53 46L53 45ZM1 46L1 47L2 47L2 46ZM10 47L10 48L11 48L11 47ZM24 47L24 49L23 49L23 50L25 50L25 47ZM52 47L52 48L54 48L54 47ZM39 48L39 49L40 49L40 48ZM46 48L46 49L47 49L47 48ZM14 49L14 50L15 50L15 49ZM21 49L21 50L22 50L22 49ZM27 49L27 52L30 52L30 49ZM49 49L49 52L52 52L52 49ZM28 50L28 51L29 51L29 50ZM50 50L50 51L51 51L51 50ZM53 50L53 51L54 51L54 50ZM32 51L32 52L34 52L34 51ZM43 51L43 52L42 52L42 54L41 54L41 55L42 55L42 54L43 54L43 53L44 53L44 54L45 54L45 53L44 53L44 51ZM56 51L56 52L57 52L57 51ZM21 52L21 53L22 53L22 52ZM25 53L25 54L26 54L26 53ZM30 53L30 54L31 54L31 53ZM37 53L37 54L36 54L36 55L37 55L37 54L38 54L38 53ZM19 54L19 55L20 55L20 54ZM51 54L51 55L53 55L53 54ZM15 55L15 57L16 57L16 55ZM27 55L27 56L28 56L28 55ZM0 0L0 7L7 7L7 0ZM1 1L1 6L6 6L6 1ZM2 2L2 5L5 5L5 2ZM50 0L50 7L57 7L57 0ZM51 1L51 6L56 6L56 1ZM52 2L52 5L55 5L55 2ZM0 50L0 57L7 57L7 50ZM1 51L1 56L6 56L6 51ZM2 52L2 55L5 55L5 52Z" fill="#000000"/></g></g></svg>
