<?xml version="1.0" encoding="UTF-8"?>
<svg xmlns="http://www.w3.org/2000/svg" version="1.1" width="300" height="300" viewBox="0 0 300 300"><rect x="0" y="0" width="300" height="300" fill="#ffffff"/><g transform="scale(4.918)"><g transform="translate(2,2)"><path fill-rule="evenodd" d="M9 0L9 1L8 1L8 2L10 2L10 1L11 1L11 3L10 3L10 5L11 5L11 6L10 6L10 7L9 7L9 5L8 5L8 7L9 7L9 8L6 8L6 9L9 9L9 10L12 10L12 9L9 9L9 8L13 8L13 9L14 9L14 10L13 10L13 11L11 11L11 13L12 13L12 12L13 12L13 13L17 13L17 14L15 14L15 15L16 15L16 16L15 16L15 17L14 17L14 16L10 16L10 15L9 15L9 13L8 13L8 12L9 12L9 11L8 11L8 12L6 12L6 13L7 13L7 14L4 14L4 15L3 15L3 16L4 16L4 15L5 15L5 16L6 16L6 17L7 17L7 18L5 18L5 19L7 19L7 18L8 18L8 20L3 20L3 23L2 23L2 26L0 26L0 28L2 28L2 29L3 29L3 30L1 30L1 29L0 29L0 30L1 30L1 31L0 31L0 32L1 32L1 33L0 33L0 37L1 37L1 40L0 40L0 42L2 42L2 43L0 43L0 44L1 44L1 45L2 45L2 47L1 47L1 46L0 46L0 48L5 48L5 47L7 47L7 48L6 48L6 49L8 49L8 51L9 51L9 52L8 52L8 57L9 57L9 55L10 55L10 57L11 57L11 56L12 56L12 57L13 57L13 56L15 56L15 57L19 57L19 56L18 56L18 55L20 55L20 54L17 54L17 53L20 53L20 52L21 52L21 53L22 53L22 54L24 54L24 53L26 53L26 54L25 54L25 55L26 55L26 56L25 56L25 57L26 57L26 56L28 56L28 55L26 55L26 54L27 54L27 53L28 53L28 54L30 54L30 53L31 53L31 55L34 55L34 56L30 56L30 55L29 55L29 56L30 56L30 57L39 57L39 56L38 56L38 55L40 55L40 52L41 52L41 51L42 51L42 50L43 50L43 52L42 52L42 54L41 54L41 55L42 55L42 56L41 56L41 57L44 57L44 56L46 56L46 57L49 57L49 56L50 56L50 55L51 55L51 57L52 57L52 56L53 56L53 57L56 57L56 56L55 56L55 54L53 54L53 49L54 49L54 48L55 48L55 49L56 49L56 50L55 50L55 51L54 51L54 52L56 52L56 50L57 50L57 49L56 49L56 48L55 48L55 47L56 47L56 46L57 46L57 44L56 44L56 45L54 45L54 44L55 44L55 43L56 43L56 42L55 42L55 41L54 41L54 43L53 43L53 42L51 42L51 41L52 41L52 40L55 40L55 39L57 39L57 37L56 37L56 35L54 35L54 36L53 36L53 34L52 34L52 36L49 36L49 40L51 40L51 41L48 41L48 42L46 42L46 43L45 43L45 42L44 42L44 43L43 43L43 41L44 41L44 40L45 40L45 41L46 41L46 40L47 40L47 38L48 38L48 37L47 37L47 38L46 38L46 40L45 40L45 39L44 39L44 40L43 40L43 39L42 39L42 38L43 38L43 37L44 37L44 38L45 38L45 37L46 37L46 36L47 36L47 35L50 35L50 33L54 33L54 34L57 34L57 33L56 33L56 30L57 30L57 27L56 27L56 26L55 26L55 25L57 25L57 23L56 23L56 22L57 22L57 21L55 21L55 23L54 23L54 24L53 24L53 22L52 22L52 24L51 24L51 26L49 26L49 25L50 25L50 23L51 23L51 22L50 22L50 19L51 19L51 20L52 20L52 19L54 19L54 20L55 20L55 19L56 19L56 20L57 20L57 19L56 19L56 18L57 18L57 17L56 17L56 18L55 18L55 17L54 17L54 16L55 16L55 15L56 15L56 16L57 16L57 15L56 15L56 14L57 14L57 11L56 11L56 10L57 10L57 9L56 9L56 8L55 8L55 9L56 9L56 10L55 10L55 11L54 11L54 10L49 10L49 9L50 9L50 8L49 8L49 6L48 6L48 7L47 7L47 5L48 5L48 0L44 0L44 1L43 1L43 0L41 0L41 1L43 1L43 2L39 2L39 1L38 1L38 0L35 0L35 1L34 1L34 0L33 0L33 1L32 1L32 0L30 0L30 1L29 1L29 0L28 0L28 1L29 1L29 2L28 2L28 3L27 3L27 4L26 4L26 3L25 3L25 2L27 2L27 1L26 1L26 0L24 0L24 1L23 1L23 0L21 0L21 2L20 2L20 3L21 3L21 4L19 4L19 3L18 3L18 4L19 4L19 5L18 5L18 8L16 8L16 7L17 7L17 6L16 6L16 7L15 7L15 5L16 5L16 4L14 4L14 2L13 2L13 1L15 1L15 3L16 3L16 2L17 2L17 1L16 1L16 0L13 0L13 1L11 1L11 0ZM18 1L18 2L19 2L19 1ZM22 1L22 2L21 2L21 3L22 3L22 4L21 4L21 5L22 5L22 6L21 6L21 8L20 8L20 11L19 11L19 14L20 14L20 15L18 15L18 14L17 14L17 17L15 17L15 18L13 18L13 17L12 17L12 18L11 18L11 17L10 17L10 18L9 18L9 15L6 15L6 16L8 16L8 18L9 18L9 20L11 20L11 25L12 25L12 28L11 28L11 29L12 29L12 28L13 28L13 25L15 25L15 27L14 27L14 28L16 28L16 26L18 26L18 27L17 27L17 28L18 28L18 29L15 29L15 30L14 30L14 29L13 29L13 30L10 30L10 28L9 28L9 30L10 30L10 32L11 32L11 34L12 34L12 35L10 35L10 34L9 34L9 35L10 35L10 37L9 37L9 36L8 36L8 33L9 33L9 32L8 32L8 31L5 31L5 32L4 32L4 31L1 31L1 32L2 32L2 33L1 33L1 34L2 34L2 35L4 35L4 34L5 34L5 36L8 36L8 38L7 38L7 37L4 37L4 36L1 36L1 37L2 37L2 38L7 38L7 39L4 39L4 40L3 40L3 39L2 39L2 40L1 40L1 41L2 41L2 42L3 42L3 43L4 43L4 44L3 44L3 47L5 47L5 45L4 45L4 44L5 44L5 43L4 43L4 42L3 42L3 41L5 41L5 42L7 42L7 43L6 43L6 44L7 44L7 45L6 45L6 46L7 46L7 45L8 45L8 46L9 46L9 44L7 44L7 43L10 43L10 40L11 40L11 46L10 46L10 47L11 47L11 50L10 50L10 49L9 49L9 48L8 48L8 49L9 49L9 50L10 50L10 53L9 53L9 54L10 54L10 53L11 53L11 50L12 50L12 47L11 47L11 46L12 46L12 45L13 45L13 47L14 47L14 52L15 52L15 51L16 51L16 53L14 53L14 54L16 54L16 53L17 53L17 51L18 51L18 52L20 52L20 51L23 51L23 52L22 52L22 53L24 53L24 51L23 51L23 50L21 50L21 49L24 49L24 47L23 47L23 45L25 45L25 48L27 48L27 47L26 47L26 46L29 46L29 45L27 45L27 44L28 44L28 43L29 43L29 44L31 44L31 45L30 45L30 46L31 46L31 45L33 45L33 46L32 46L32 47L33 47L33 48L31 48L31 47L28 47L28 48L31 48L31 49L32 49L32 50L31 50L31 52L32 52L32 54L35 54L35 55L37 55L37 54L39 54L39 52L40 52L40 51L41 51L41 50L42 50L42 48L40 48L40 47L41 47L41 46L42 46L42 47L44 47L44 46L45 46L45 44L41 44L41 43L40 43L40 44L39 44L39 43L38 43L38 42L39 42L39 41L40 41L40 42L41 42L41 36L42 36L42 35L43 35L43 34L44 34L44 37L45 37L45 35L46 35L46 34L47 34L47 33L48 33L48 34L49 34L49 33L50 33L50 32L49 32L49 31L48 31L48 27L47 27L47 26L48 26L48 25L49 25L49 24L48 24L48 23L46 23L46 22L47 22L47 21L48 21L48 20L49 20L49 19L50 19L50 18L51 18L51 19L52 19L52 17L53 17L53 16L54 16L54 15L55 15L55 14L56 14L56 12L54 12L54 11L53 11L53 12L52 12L52 11L50 11L50 15L53 15L53 16L51 16L51 17L50 17L50 18L48 18L48 19L47 19L47 21L46 21L46 20L43 20L43 19L45 19L45 18L47 18L47 17L48 17L48 16L49 16L49 15L45 15L45 12L46 12L46 14L47 14L47 13L49 13L49 12L47 12L47 11L48 11L48 9L49 9L49 8L48 8L48 9L46 9L46 6L45 6L45 5L47 5L47 3L43 3L43 5L40 5L40 4L42 4L42 3L40 3L40 4L39 4L39 3L38 3L38 1L37 1L37 2L35 2L35 4L34 4L34 5L33 5L33 3L32 3L32 4L31 4L31 7L32 7L32 8L31 8L31 9L32 9L32 10L28 10L28 9L25 9L25 8L26 8L26 4L25 4L25 8L24 8L24 6L23 6L23 5L24 5L24 4L23 4L23 3L24 3L24 2L23 2L23 1ZM30 1L30 2L29 2L29 3L28 3L28 4L29 4L29 3L30 3L30 2L32 2L32 1ZM33 1L33 2L34 2L34 1ZM44 1L44 2L45 2L45 1ZM46 1L46 2L47 2L47 1ZM8 3L8 4L9 4L9 3ZM11 3L11 5L12 5L12 6L11 6L11 7L12 7L12 6L13 6L13 7L14 7L14 5L13 5L13 4L12 4L12 3ZM36 3L36 5L34 5L34 7L33 7L33 6L32 6L32 7L33 7L33 8L34 8L34 9L33 9L33 13L32 13L32 12L31 12L31 13L32 13L32 14L30 14L30 13L28 13L28 12L30 12L30 11L27 11L27 10L26 10L26 11L27 11L27 12L25 12L25 9L24 9L24 8L23 8L23 9L22 9L22 8L21 8L21 10L22 10L22 11L21 11L21 12L20 12L20 13L21 13L21 16L20 16L20 17L19 17L19 16L18 16L18 17L17 17L17 18L16 18L16 19L18 19L18 21L20 21L20 20L19 20L19 19L22 19L22 18L23 18L23 19L24 19L24 18L26 18L26 17L27 17L27 18L28 18L28 20L26 20L26 19L25 19L25 20L24 20L24 21L21 21L21 23L22 23L22 24L23 24L23 27L26 27L26 30L25 30L25 29L24 29L24 28L23 28L23 29L24 29L24 30L25 30L25 31L24 31L24 33L22 33L22 31L23 31L23 30L22 30L22 31L21 31L21 30L20 30L20 31L21 31L21 32L18 32L18 33L19 33L19 34L18 34L18 35L20 35L20 33L21 33L21 34L23 34L23 37L19 37L19 36L17 36L17 38L18 38L18 37L19 37L19 38L20 38L20 39L19 39L19 40L18 40L18 39L17 39L17 42L16 42L16 43L15 43L15 45L14 45L14 44L13 44L13 45L14 45L14 46L15 46L15 45L17 45L17 46L18 46L18 47L20 47L20 46L19 46L19 45L21 45L21 48L20 48L20 49L19 49L19 48L17 48L17 47L15 47L15 48L16 48L16 49L15 49L15 50L16 50L16 49L19 49L19 50L18 50L18 51L19 51L19 50L20 50L20 49L21 49L21 48L23 48L23 47L22 47L22 45L23 45L23 44L25 44L25 45L26 45L26 44L27 44L27 43L28 43L28 42L27 42L27 41L28 41L28 39L27 39L27 38L28 38L28 37L27 37L27 38L26 38L26 39L27 39L27 41L26 41L26 42L27 42L27 43L26 43L26 44L25 44L25 37L26 37L26 36L27 36L27 35L26 35L26 34L25 34L25 31L27 31L27 33L29 33L29 34L30 34L30 35L29 35L29 39L31 39L31 40L30 40L30 41L29 41L29 43L31 43L31 44L34 44L34 41L33 41L33 43L31 43L31 42L32 42L32 41L31 41L31 40L32 40L32 39L31 39L31 38L32 38L32 35L33 35L33 36L34 36L34 37L35 37L35 36L34 36L34 35L37 35L37 36L36 36L36 37L37 37L37 38L36 38L36 39L35 39L35 38L33 38L33 39L34 39L34 40L35 40L35 41L36 41L36 42L35 42L35 45L36 45L36 47L38 47L38 48L35 48L35 49L36 49L36 51L35 51L35 50L33 50L33 51L32 51L32 52L33 52L33 53L35 53L35 52L36 52L36 54L37 54L37 52L38 52L38 51L40 51L40 50L37 50L37 49L38 49L38 48L39 48L39 49L40 49L40 48L39 48L39 46L37 46L37 44L38 44L38 43L37 43L37 42L38 42L38 41L39 41L39 40L37 40L37 39L38 39L38 37L39 37L39 38L40 38L40 36L41 36L41 35L42 35L42 34L43 34L43 32L45 32L45 31L44 31L44 30L43 30L43 29L42 29L42 30L41 30L41 29L40 29L40 31L39 31L39 30L37 30L37 26L38 26L38 24L36 24L36 23L37 23L37 22L38 22L38 19L39 19L39 18L38 18L38 17L40 17L40 16L41 16L41 18L43 18L43 16L45 16L45 15L44 15L44 14L43 14L43 13L44 13L44 12L45 12L45 11L46 11L46 10L45 10L45 11L44 11L44 12L43 12L43 10L44 10L44 8L43 8L43 6L42 6L42 8L41 8L41 6L40 6L40 8L41 8L41 10L42 10L42 14L41 14L41 13L39 13L39 14L37 14L37 13L38 13L38 12L39 12L39 11L40 11L40 12L41 12L41 11L40 11L40 9L39 9L39 11L38 11L38 8L36 8L36 7L37 7L37 6L38 6L38 7L39 7L39 6L38 6L38 4L37 4L37 3ZM22 4L22 5L23 5L23 4ZM44 4L44 5L45 5L45 4ZM19 5L19 7L20 7L20 5ZM27 5L27 8L30 8L30 5ZM36 5L36 6L35 6L35 7L34 7L34 8L35 8L35 9L34 9L34 10L35 10L35 9L36 9L36 10L37 10L37 9L36 9L36 8L35 8L35 7L36 7L36 6L37 6L37 5ZM22 6L22 7L23 7L23 6ZM28 6L28 7L29 7L29 6ZM44 6L44 7L45 7L45 6ZM0 8L0 11L2 11L2 12L0 12L0 14L1 14L1 16L2 16L2 14L3 14L3 12L4 12L4 13L5 13L5 12L4 12L4 11L5 11L5 10L4 10L4 9L5 9L5 8ZM14 8L14 9L15 9L15 8ZM51 8L51 9L52 9L52 8ZM53 8L53 9L54 9L54 8ZM2 9L2 10L3 10L3 9ZM16 9L16 10L15 10L15 11L16 11L16 12L17 12L17 13L18 13L18 12L17 12L17 11L18 11L18 10L19 10L19 9ZM23 9L23 11L24 11L24 9ZM6 10L6 11L7 11L7 10ZM16 10L16 11L17 11L17 10ZM13 11L13 12L14 12L14 11ZM34 11L34 12L36 12L36 11ZM21 12L21 13L22 13L22 15L23 15L23 16L22 16L22 17L24 17L24 13L25 13L25 16L27 16L27 17L28 17L28 16L29 16L29 17L31 17L31 18L29 18L29 20L28 20L28 21L29 21L29 20L30 20L30 19L34 19L34 20L35 20L35 21L33 21L33 20L32 20L32 21L33 21L33 22L35 22L35 23L34 23L34 24L35 24L35 23L36 23L36 22L37 22L37 21L36 21L36 20L37 20L37 19L38 19L38 18L36 18L36 17L35 17L35 16L37 16L37 17L38 17L38 16L40 16L40 15L38 15L38 16L37 16L37 14L36 14L36 13L33 13L33 14L32 14L32 15L33 15L33 14L35 14L35 15L34 15L34 16L30 16L30 14L29 14L29 15L28 15L28 16L27 16L27 14L28 14L28 13L25 13L25 12L24 12L24 13L22 13L22 12ZM1 13L1 14L2 14L2 13ZM51 13L51 14L52 14L52 13ZM53 13L53 14L55 14L55 13ZM11 14L11 15L14 15L14 14ZM42 14L42 15L43 15L43 14ZM0 17L0 18L1 18L1 17ZM18 17L18 19L19 19L19 17ZM20 17L20 18L21 18L21 17ZM32 17L32 18L34 18L34 19L35 19L35 18L34 18L34 17ZM44 17L44 18L45 18L45 17ZM3 18L3 19L4 19L4 18ZM10 18L10 19L11 19L11 20L14 20L14 19L11 19L11 18ZM40 19L40 20L39 20L39 23L40 23L40 24L39 24L39 27L40 27L40 28L41 28L41 27L42 27L42 28L45 28L45 30L46 30L46 31L47 31L47 32L48 32L48 31L47 31L47 30L46 30L46 29L47 29L47 28L46 28L46 26L45 26L45 25L44 25L44 23L45 23L45 22L46 22L46 21L44 21L44 23L43 23L43 24L42 24L42 23L40 23L40 20L41 20L41 22L43 22L43 21L42 21L42 20L41 20L41 19ZM15 20L15 21L16 21L16 22L15 22L15 23L16 23L16 24L15 24L15 25L18 25L18 26L20 26L20 25L19 25L19 23L20 23L20 22L17 22L17 21L16 21L16 20ZM1 21L1 22L0 22L0 23L1 23L1 22L2 22L2 21ZM4 21L4 23L3 23L3 27L2 27L2 28L3 28L3 29L4 29L4 26L7 26L7 25L8 25L8 26L10 26L10 25L8 25L8 24L10 24L10 22L9 22L9 21L8 21L8 22L7 22L7 21ZM12 21L12 25L13 25L13 24L14 24L14 21ZM24 21L24 22L23 22L23 23L24 23L24 25L25 25L25 26L26 26L26 25L27 25L27 24L28 24L28 25L29 25L29 24L28 24L28 23L27 23L27 24L25 24L25 23L26 23L26 22L25 22L25 21ZM6 22L6 23L7 23L7 24L5 24L5 23L4 23L4 25L7 25L7 24L8 24L8 23L9 23L9 22L8 22L8 23L7 23L7 22ZM29 22L29 23L30 23L30 24L33 24L33 23L31 23L31 22ZM49 22L49 23L50 23L50 22ZM40 24L40 25L41 25L41 24ZM46 24L46 25L48 25L48 24ZM52 24L52 26L53 26L53 27L55 27L55 26L54 26L54 25L55 25L55 24L54 24L54 25L53 25L53 24ZM31 25L31 26L32 26L32 25ZM33 25L33 28L32 28L32 27L31 27L31 28L32 28L32 31L33 31L33 30L35 30L35 31L34 31L34 32L31 32L31 31L30 31L30 32L29 32L29 31L28 31L28 32L29 32L29 33L30 33L30 32L31 32L31 35L32 35L32 34L36 34L36 32L37 32L37 30L36 30L36 29L33 29L33 28L34 28L34 26L35 26L35 27L36 27L36 26L35 26L35 25ZM43 25L43 26L42 26L42 27L44 27L44 25ZM21 26L21 27L20 27L20 28L19 28L19 29L18 29L18 30L19 30L19 29L22 29L22 28L21 28L21 27L22 27L22 26ZM5 27L5 30L8 30L8 27ZM27 27L27 30L30 30L30 27ZM49 27L49 30L52 30L52 27ZM6 28L6 29L7 29L7 28ZM28 28L28 29L29 29L29 28ZM50 28L50 29L51 29L51 28ZM54 28L54 29L56 29L56 28ZM16 30L16 31L17 31L17 30ZM42 30L42 31L43 31L43 30ZM54 30L54 31L51 31L51 32L54 32L54 33L55 33L55 32L54 32L54 31L55 31L55 30ZM11 31L11 32L12 32L12 34L13 34L13 35L12 35L12 36L13 36L13 37L14 37L14 36L16 36L16 35L14 35L14 34L13 34L13 32L15 32L15 31L13 31L13 32L12 32L12 31ZM35 31L35 32L36 32L36 31ZM38 31L38 33L37 33L37 34L40 34L40 35L39 35L39 36L40 36L40 35L41 35L41 34L42 34L42 32L39 32L39 31ZM6 32L6 33L7 33L7 32ZM16 32L16 33L15 33L15 34L16 34L16 33L17 33L17 32ZM3 33L3 34L4 34L4 33ZM40 33L40 34L41 34L41 33ZM45 33L45 34L46 34L46 33ZM6 34L6 35L7 35L7 34ZM24 34L24 36L26 36L26 35L25 35L25 34ZM30 36L30 38L31 38L31 36ZM37 36L37 37L38 37L38 36ZM54 36L54 37L52 37L52 39L51 39L51 37L50 37L50 39L51 39L51 40L52 40L52 39L53 39L53 38L56 38L56 37L55 37L55 36ZM10 37L10 38L9 38L9 39L7 39L7 40L5 40L5 41L7 41L7 42L9 42L9 40L10 40L10 38L11 38L11 39L12 39L12 37ZM15 37L15 38L13 38L13 39L14 39L14 40L15 40L15 41L12 41L12 42L15 42L15 41L16 41L16 39L15 39L15 38L16 38L16 37ZM23 37L23 38L22 38L22 40L21 40L21 41L20 41L20 40L19 40L19 41L20 41L20 43L19 43L19 44L20 44L20 43L22 43L22 42L21 42L21 41L23 41L23 40L24 40L24 39L23 39L23 38L24 38L24 37ZM17 42L17 43L18 43L18 42ZM23 42L23 43L24 43L24 42ZM50 42L50 43L51 43L51 42ZM36 43L36 44L37 44L37 43ZM48 43L48 44L47 44L47 45L46 45L46 46L48 46L48 47L45 47L45 48L43 48L43 49L44 49L44 53L43 53L43 54L42 54L42 55L46 55L46 56L49 56L49 55L47 55L47 53L48 53L48 52L47 52L47 53L45 53L45 51L46 51L46 50L47 50L47 51L48 51L48 48L49 48L49 47L51 47L51 45L52 45L52 47L53 47L53 48L54 48L54 46L53 46L53 45L52 45L52 44L53 44L53 43L52 43L52 44L50 44L50 46L48 46L48 45L49 45L49 43ZM17 44L17 45L18 45L18 44ZM21 44L21 45L22 45L22 44ZM40 45L40 46L41 46L41 45ZM42 45L42 46L43 46L43 45ZM33 46L33 47L35 47L35 46ZM33 48L33 49L34 49L34 48ZM45 48L45 50L46 50L46 48ZM25 49L25 50L26 50L26 49ZM27 49L27 52L30 52L30 49ZM49 49L49 52L52 52L52 49ZM28 50L28 51L29 51L29 50ZM50 50L50 51L51 51L51 50ZM12 51L12 53L13 53L13 51ZM25 51L25 52L26 52L26 51ZM36 51L36 52L37 52L37 51ZM44 53L44 54L45 54L45 53ZM49 53L49 54L51 54L51 55L53 55L53 54L51 54L51 53ZM11 54L11 55L12 55L12 56L13 56L13 55L12 55L12 54ZM15 55L15 56L16 56L16 55ZM22 55L22 56L24 56L24 55ZM0 0L0 7L7 7L7 0ZM1 1L1 6L6 6L6 1ZM2 2L2 5L5 5L5 2ZM50 0L50 7L57 7L57 0ZM51 1L51 6L56 6L56 1ZM52 2L52 5L55 5L55 2ZM0 50L0 57L7 57L7 50ZM1 51L1 56L6 56L6 51ZM2 52L2 55L5 55L5 52Z" fill="#000000"/></g></g></svg>
