<?xml version="1.0" encoding="UTF-8"?>
<svg xmlns="http://www.w3.org/2000/svg" version="1.1" width="300" height="300" viewBox="0 0 300 300"><rect x="0" y="0" width="300" height="300" fill="#ffffff"/><g transform="scale(4.918)"><g transform="translate(2,2)"><path fill-rule="evenodd" d="M9 0L9 1L8 1L8 2L9 2L9 3L8 3L8 4L9 4L9 3L11 3L11 2L10 2L10 0ZM11 0L11 1L12 1L12 5L10 5L10 7L11 7L11 6L12 6L12 7L13 7L13 10L12 10L12 11L10 11L10 10L9 10L9 8L6 8L6 9L5 9L5 8L0 8L0 9L3 9L3 11L5 11L5 12L4 12L4 14L3 14L3 15L2 15L2 16L4 16L4 14L5 14L5 12L6 12L6 13L12 13L12 14L11 14L11 15L10 15L10 14L9 14L9 15L8 15L8 16L6 16L6 15L7 15L7 14L6 14L6 15L5 15L5 16L6 16L6 17L8 17L8 16L9 16L9 17L10 17L10 16L11 16L11 17L12 17L12 15L13 15L13 19L14 19L14 20L11 20L11 19L12 19L12 18L11 18L11 19L10 19L10 18L4 18L4 17L1 17L1 18L0 18L0 20L1 20L1 21L2 21L2 22L0 22L0 24L1 24L1 25L0 25L0 32L1 32L1 33L2 33L2 34L3 34L3 35L0 35L0 36L1 36L1 37L0 37L0 40L1 40L1 41L0 41L0 48L5 48L5 47L7 47L7 48L6 48L6 49L7 49L7 48L8 48L8 51L9 51L9 50L10 50L10 49L11 49L11 50L12 50L12 53L11 53L11 51L10 51L10 52L8 52L8 57L10 57L10 56L9 56L9 55L10 55L10 54L9 54L9 53L11 53L11 54L13 54L13 57L16 57L16 55L15 55L15 56L14 56L14 53L15 53L15 54L16 54L16 53L15 53L15 52L16 52L16 51L13 51L13 49L14 49L14 50L16 50L16 49L19 49L19 50L18 50L18 51L17 51L17 53L19 53L19 54L18 54L18 55L19 55L19 56L17 56L17 57L19 57L19 56L21 56L21 55L24 55L24 56L23 56L23 57L24 57L24 56L25 56L25 57L26 57L26 56L25 56L25 55L27 55L27 56L28 56L28 55L27 55L27 53L28 53L28 54L29 54L29 55L30 55L30 56L29 56L29 57L31 57L31 56L32 56L32 55L33 55L33 56L34 56L34 55L35 55L35 57L37 57L37 56L38 56L38 55L40 55L40 52L43 52L43 53L41 53L41 55L43 55L43 57L44 57L44 56L45 56L45 57L47 57L47 56L48 56L48 55L49 55L49 56L50 56L50 55L51 55L51 57L52 57L52 56L53 56L53 57L54 57L54 56L55 56L55 57L56 57L56 56L55 56L55 54L54 54L54 53L53 53L53 49L54 49L54 48L55 48L55 49L56 49L56 50L55 50L55 51L54 51L54 52L55 52L55 53L56 53L56 52L55 52L55 51L56 51L56 50L57 50L57 49L56 49L56 48L55 48L55 47L56 47L56 46L57 46L57 45L56 45L56 44L57 44L57 43L56 43L56 42L55 42L55 39L57 39L57 37L56 37L56 34L57 34L57 33L56 33L56 30L57 30L57 29L56 29L56 28L57 28L57 27L56 27L56 26L57 26L57 23L56 23L56 22L57 22L57 21L53 21L53 22L52 22L52 23L51 23L51 22L50 22L50 19L49 19L49 18L50 18L50 17L51 17L51 20L52 20L52 19L54 19L54 20L57 20L57 19L55 19L55 18L57 18L57 17L54 17L54 16L55 16L55 15L56 15L56 16L57 16L57 15L56 15L56 14L57 14L57 12L56 12L56 14L55 14L55 13L54 13L54 14L53 14L53 15L52 15L52 16L53 16L53 17L51 17L51 16L49 16L49 17L47 17L47 18L46 18L46 17L45 17L45 18L46 18L46 19L47 19L47 18L48 18L48 19L49 19L49 21L48 21L48 20L45 20L45 19L44 19L44 18L43 18L43 17L44 17L44 16L46 16L46 15L50 15L50 11L51 11L51 10L53 10L53 11L52 11L52 12L53 12L53 11L54 11L54 12L55 12L55 11L56 11L56 10L57 10L57 9L56 9L56 8L55 8L55 11L54 11L54 10L53 10L53 9L54 9L54 8L53 8L53 9L52 9L52 8L51 8L51 10L49 10L49 9L50 9L50 8L49 8L49 6L48 6L48 8L45 8L45 6L46 6L46 7L47 7L47 5L48 5L48 0L44 0L44 1L43 1L43 0L42 0L42 1L41 1L41 0L39 0L39 1L37 1L37 0L35 0L35 1L34 1L34 0L29 0L29 1L28 1L28 0L27 0L27 1L25 1L25 0L24 0L24 1L23 1L23 0L21 0L21 1L23 1L23 2L24 2L24 4L22 4L22 3L21 3L21 2L20 2L20 3L18 3L18 4L20 4L20 3L21 3L21 4L22 4L22 5L21 5L21 6L20 6L20 5L17 5L17 4L16 4L16 2L15 2L15 4L14 4L14 2L13 2L13 1L16 1L16 0ZM18 1L18 2L19 2L19 1ZM29 1L29 2L34 2L34 3L32 3L32 4L31 4L31 8L33 8L33 7L34 7L34 8L35 8L35 9L33 9L33 11L34 11L34 12L35 12L35 11L34 11L34 10L35 10L35 9L36 9L36 8L37 8L37 9L38 9L38 10L36 10L36 12L37 12L37 11L38 11L38 10L40 10L40 12L38 12L38 13L36 13L36 15L33 15L33 16L32 16L32 14L35 14L35 13L33 13L33 12L32 12L32 11L31 11L31 10L32 10L32 9L31 9L31 10L30 10L30 11L29 11L29 9L28 9L28 11L29 11L29 12L28 12L28 13L26 13L26 14L25 14L25 15L24 15L24 13L25 13L25 12L27 12L27 11L26 11L26 10L27 10L27 9L26 9L26 6L25 6L25 4L26 4L26 3L25 3L25 4L24 4L24 5L23 5L23 7L22 7L22 6L21 6L21 7L20 7L20 6L19 6L19 8L21 8L21 9L20 9L20 10L19 10L19 9L15 9L15 8L16 8L16 6L15 6L15 7L14 7L14 5L12 5L12 6L13 6L13 7L14 7L14 9L15 9L15 10L13 10L13 11L12 11L12 12L13 12L13 13L14 13L14 14L13 14L13 15L14 15L14 18L15 18L15 19L16 19L16 20L15 20L15 21L13 21L13 22L11 22L11 21L8 21L8 20L9 20L9 19L5 19L5 20L7 20L7 21L5 21L5 22L4 22L4 21L3 21L3 22L4 22L4 23L3 23L3 24L4 24L4 25L1 25L1 26L4 26L4 25L5 25L5 24L7 24L7 23L9 23L9 24L8 24L8 25L6 25L6 26L11 26L11 28L10 28L10 27L9 27L9 30L11 30L11 31L9 31L9 33L11 33L11 35L10 35L10 37L6 37L6 36L7 36L7 35L6 35L6 36L4 36L4 35L5 35L5 32L7 32L7 33L6 33L6 34L7 34L7 33L8 33L8 32L7 32L7 31L4 31L4 33L3 33L3 34L4 34L4 35L3 35L3 36L2 36L2 38L1 38L1 39L2 39L2 40L3 40L3 39L4 39L4 40L5 40L5 39L4 39L4 38L5 38L5 37L6 37L6 38L7 38L7 39L6 39L6 40L7 40L7 39L8 39L8 41L9 41L9 43L10 43L10 44L9 44L9 45L10 45L10 44L11 44L11 43L12 43L12 44L13 44L13 45L14 45L14 46L13 46L13 47L17 47L17 48L19 48L19 49L20 49L20 50L19 50L19 51L18 51L18 52L19 52L19 53L21 53L21 54L22 54L22 53L23 53L23 54L24 54L24 53L23 53L23 52L24 52L24 51L23 51L23 50L22 50L22 51L21 51L21 49L24 49L24 47L25 47L25 48L27 48L27 47L28 47L28 48L29 48L29 47L28 47L28 46L29 46L29 45L28 45L28 44L32 44L32 45L33 45L33 46L31 46L31 45L30 45L30 46L31 46L31 47L30 47L30 48L31 48L31 50L32 50L32 51L31 51L31 52L32 52L32 54L33 54L33 55L34 55L34 54L37 54L37 55L38 55L38 54L39 54L39 52L40 52L40 51L43 51L43 50L44 50L44 53L43 53L43 55L46 55L46 56L47 56L47 53L48 53L48 54L51 54L51 55L53 55L53 56L54 56L54 55L53 55L53 54L51 54L51 53L48 53L48 52L47 52L47 51L48 51L48 48L49 48L49 47L53 47L53 48L54 48L54 46L53 46L53 45L52 45L52 44L53 44L53 43L54 43L54 40L53 40L53 39L54 39L54 38L56 38L56 37L55 37L55 36L54 36L54 35L55 35L55 34L56 34L56 33L55 33L55 32L53 32L53 31L51 31L51 32L49 32L49 31L48 31L48 29L46 29L46 30L44 30L44 31L43 31L43 30L42 30L42 29L43 29L43 28L44 28L44 29L45 29L45 28L44 28L44 27L45 27L45 26L47 26L47 27L46 27L46 28L47 28L47 27L48 27L48 25L49 25L49 26L52 26L52 25L53 25L53 27L55 27L55 26L56 26L56 25L55 25L55 24L56 24L56 23L55 23L55 24L54 24L54 25L53 25L53 24L51 24L51 23L50 23L50 22L48 22L48 21L45 21L45 20L43 20L43 23L44 23L44 21L45 21L45 22L46 22L46 25L45 25L45 24L44 24L44 26L43 26L43 28L42 28L42 27L41 27L41 28L40 28L40 27L38 27L38 26L41 26L41 24L42 24L42 25L43 25L43 24L42 24L42 22L41 22L41 21L42 21L42 20L40 20L40 19L43 19L43 18L41 18L41 16L44 16L44 15L43 15L43 14L44 14L44 13L45 13L45 12L46 12L46 14L47 14L47 13L49 13L49 12L47 12L47 10L48 10L48 9L49 9L49 8L48 8L48 9L45 9L45 8L44 8L44 6L45 6L45 5L44 5L44 4L46 4L46 5L47 5L47 3L43 3L43 8L44 8L44 9L45 9L45 10L42 10L42 11L41 11L41 10L40 10L40 9L42 9L42 8L40 8L40 6L41 6L41 7L42 7L42 5L40 5L40 4L42 4L42 3L40 3L40 4L39 4L39 2L41 2L41 1L39 1L39 2L38 2L38 3L37 3L37 2L36 2L36 1L35 1L35 2L34 2L34 1ZM42 1L42 2L43 2L43 1ZM44 1L44 2L47 2L47 1ZM27 2L27 3L28 3L28 4L29 4L29 3L28 3L28 2ZM36 3L36 5L34 5L34 4L33 4L33 5L34 5L34 7L35 7L35 6L36 6L36 7L37 7L37 6L36 6L36 5L37 5L37 3ZM15 4L15 5L16 5L16 4ZM8 5L8 7L9 7L9 5ZM27 5L27 8L30 8L30 5ZM38 5L38 7L39 7L39 5ZM17 6L17 8L18 8L18 6ZM24 6L24 7L23 7L23 9L22 9L22 10L21 10L21 11L19 11L19 12L20 12L20 13L22 13L22 12L21 12L21 11L22 11L22 10L23 10L23 11L24 11L24 12L23 12L23 13L24 13L24 12L25 12L25 9L24 9L24 7L25 7L25 6ZM28 6L28 7L29 7L29 6ZM32 6L32 7L33 7L33 6ZM21 7L21 8L22 8L22 7ZM11 8L11 9L12 9L12 8ZM38 8L38 9L39 9L39 8ZM4 9L4 10L5 10L5 9ZM6 9L6 10L7 10L7 11L6 11L6 12L7 12L7 11L8 11L8 12L9 12L9 10L7 10L7 9ZM23 9L23 10L24 10L24 9ZM1 10L1 11L0 11L0 12L1 12L1 11L2 11L2 10ZM16 10L16 11L15 11L15 13L18 13L18 15L19 15L19 16L18 16L18 17L17 17L17 14L15 14L15 15L16 15L16 16L15 16L15 17L17 17L17 19L18 19L18 21L19 21L19 22L17 22L17 24L16 24L16 23L15 23L15 22L16 22L16 21L15 21L15 22L14 22L14 23L13 23L13 24L12 24L12 23L11 23L11 22L9 22L9 23L11 23L11 24L9 24L9 25L11 25L11 26L12 26L12 28L13 28L13 29L12 29L12 30L13 30L13 31L12 31L12 32L13 32L13 34L12 34L12 35L11 35L11 36L12 36L12 38L11 38L11 39L10 39L10 40L9 40L9 41L10 41L10 40L13 40L13 41L14 41L14 42L15 42L15 39L16 39L16 40L17 40L17 42L16 42L16 43L18 43L18 42L20 42L20 43L22 43L22 42L24 42L24 44L25 44L25 45L23 45L23 47L22 47L22 46L21 46L21 48L20 48L20 49L21 49L21 48L23 48L23 47L24 47L24 46L25 46L25 45L26 45L26 44L25 44L25 42L26 42L26 43L27 43L27 42L26 42L26 41L29 41L29 39L31 39L31 38L32 38L32 35L30 35L30 34L29 34L29 35L30 35L30 36L29 36L29 37L28 37L28 36L27 36L27 35L26 35L26 34L27 34L27 33L30 33L30 32L28 32L28 31L31 31L31 32L33 32L33 34L34 34L34 35L33 35L33 36L35 36L35 34L34 34L34 32L33 32L33 31L35 31L35 32L36 32L36 33L37 33L37 34L36 34L36 35L37 35L37 34L38 34L38 35L40 35L40 36L36 36L36 37L35 37L35 38L33 38L33 39L34 39L34 40L30 40L30 42L28 42L28 43L33 43L33 44L34 44L34 42L36 42L36 43L35 43L35 45L38 45L38 43L40 43L40 44L39 44L39 45L40 45L40 46L37 46L37 48L35 48L35 46L33 46L33 47L31 47L31 48L33 48L33 49L32 49L32 50L34 50L34 51L35 51L35 52L33 52L33 51L32 51L32 52L33 52L33 53L35 53L35 52L36 52L36 53L37 53L37 54L38 54L38 53L37 53L37 52L39 52L39 50L40 50L40 48L41 48L41 50L43 50L43 48L45 48L45 47L47 47L47 46L46 46L46 45L47 45L47 44L49 44L49 45L48 45L48 46L52 46L52 45L50 45L50 44L52 44L52 43L53 43L53 42L51 42L51 41L52 41L52 38L51 38L51 37L50 37L50 36L48 36L48 33L47 33L47 34L46 34L46 32L48 32L48 31L47 31L47 30L46 30L46 31L44 31L44 32L43 32L43 31L42 31L42 30L41 30L41 31L40 31L40 29L39 29L39 30L33 30L33 29L38 29L38 28L37 28L37 27L36 27L36 26L38 26L38 25L39 25L39 23L40 23L40 24L41 24L41 23L40 23L40 20L39 20L39 18L40 18L40 17L39 17L39 16L41 16L41 15L42 15L42 14L43 14L43 13L44 13L44 12L45 12L45 11L44 11L44 12L43 12L43 11L42 11L42 14L41 14L41 13L39 13L39 14L37 14L37 15L39 15L39 16L35 16L35 18L33 18L33 19L30 19L30 20L29 20L29 19L28 19L28 18L25 18L25 17L28 17L28 16L24 16L24 17L22 17L22 16L23 16L23 15L22 15L22 14L20 14L20 15L19 15L19 13L18 13L18 12L17 12L17 11L18 11L18 10ZM13 11L13 12L14 12L14 11ZM30 11L30 12L29 12L29 13L28 13L28 14L27 14L27 15L30 15L30 16L31 16L31 17L29 17L29 18L32 18L32 16L31 16L31 13L32 13L32 12L31 12L31 11ZM2 12L2 13L1 13L1 14L0 14L0 16L1 16L1 14L2 14L2 13L3 13L3 12ZM29 13L29 14L30 14L30 13ZM51 13L51 14L52 14L52 13ZM39 14L39 15L41 15L41 14ZM54 14L54 15L53 15L53 16L54 16L54 15L55 15L55 14ZM9 15L9 16L10 16L10 15ZM20 15L20 16L19 16L19 17L18 17L18 19L19 19L19 21L21 21L21 22L22 22L22 23L21 23L21 25L20 25L20 24L19 24L19 23L20 23L20 22L19 22L19 23L18 23L18 24L19 24L19 25L15 25L15 27L14 27L14 28L15 28L15 27L16 27L16 28L17 28L17 29L13 29L13 30L14 30L14 31L15 31L15 32L17 32L17 33L15 33L15 34L13 34L13 35L14 35L14 38L13 38L13 39L14 39L14 38L16 38L16 37L17 37L17 36L20 36L20 37L18 37L18 39L17 39L17 40L19 40L19 41L20 41L20 42L21 42L21 41L23 41L23 39L24 39L24 40L25 40L25 39L26 39L26 40L28 40L28 39L26 39L26 38L28 38L28 37L24 37L24 36L26 36L26 35L25 35L25 34L26 34L26 33L25 33L25 34L24 34L24 36L23 36L23 34L21 34L21 33L20 33L20 35L18 35L18 34L19 34L19 33L18 33L18 32L21 32L21 31L22 31L22 33L24 33L24 31L22 31L22 30L24 30L24 29L25 29L25 30L26 30L26 27L24 27L24 26L23 26L23 24L24 24L24 23L23 23L23 22L24 22L24 21L23 21L23 20L25 20L25 22L26 22L26 23L25 23L25 24L26 24L26 25L25 25L25 26L26 26L26 25L27 25L27 24L28 24L28 26L29 26L29 25L32 25L32 26L31 26L31 28L32 28L32 29L33 29L33 28L34 28L34 27L35 27L35 28L36 28L36 27L35 27L35 25L36 25L36 24L37 24L37 25L38 25L38 24L37 24L37 23L38 23L38 22L39 22L39 21L38 21L38 22L37 22L37 21L36 21L36 20L38 20L38 18L39 18L39 17L38 17L38 18L37 18L37 19L33 19L33 20L32 20L32 21L33 21L33 23L32 23L32 24L30 24L30 23L31 23L31 22L30 22L30 21L29 21L29 20L27 20L27 19L26 19L26 20L25 20L25 18L24 18L24 19L23 19L23 18L21 18L21 17L20 17L20 16L21 16L21 15ZM19 17L19 19L21 19L21 21L22 21L22 22L23 22L23 21L22 21L22 20L23 20L23 19L21 19L21 18L20 18L20 17ZM1 18L1 20L3 20L3 19L4 19L4 18ZM34 20L34 21L35 21L35 20ZM27 21L27 22L28 22L28 24L29 24L29 23L30 23L30 22L28 22L28 21ZM5 22L5 23L7 23L7 22ZM36 22L36 23L34 23L34 24L36 24L36 23L37 23L37 22ZM47 22L47 23L48 23L48 24L47 24L47 25L48 25L48 24L49 24L49 25L50 25L50 24L49 24L49 23L48 23L48 22ZM53 22L53 23L54 23L54 22ZM1 23L1 24L2 24L2 23ZM22 23L22 24L23 24L23 23ZM13 24L13 25L12 25L12 26L14 26L14 24ZM19 25L19 26L18 26L18 27L17 27L17 28L18 28L18 29L17 29L17 30L16 30L16 31L17 31L17 30L19 30L19 29L21 29L21 30L20 30L20 31L21 31L21 30L22 30L22 29L24 29L24 28L23 28L23 26L22 26L22 25L21 25L21 26L20 26L20 25ZM33 25L33 27L32 27L32 28L33 28L33 27L34 27L34 25ZM54 25L54 26L55 26L55 25ZM21 26L21 27L19 27L19 28L21 28L21 29L22 29L22 28L21 28L21 27L22 27L22 26ZM1 27L1 28L3 28L3 29L4 29L4 27ZM5 27L5 30L8 30L8 27ZM27 27L27 30L30 30L30 27ZM49 27L49 30L52 30L52 27ZM6 28L6 29L7 29L7 28ZM28 28L28 29L29 29L29 28ZM50 28L50 29L51 29L51 28ZM54 28L54 29L53 29L53 30L54 30L54 29L55 29L55 28ZM1 31L1 32L2 32L2 31ZM25 31L25 32L27 32L27 31ZM36 31L36 32L38 32L38 34L40 34L40 35L44 35L44 37L43 37L43 36L40 36L40 38L39 38L39 37L38 37L38 38L37 38L37 37L36 37L36 38L35 38L35 39L36 39L36 40L35 40L35 41L36 41L36 40L38 40L38 42L39 42L39 40L40 40L40 43L45 43L45 42L48 42L48 43L49 43L49 42L48 42L48 41L51 41L51 40L50 40L50 39L51 39L51 38L50 38L50 39L46 39L46 38L48 38L48 36L45 36L45 35L46 35L46 34L45 34L45 32L44 32L44 33L43 33L43 32L42 32L42 31L41 31L41 32L39 32L39 31ZM41 32L41 33L40 33L40 34L43 34L43 33L42 33L42 32ZM51 32L51 33L53 33L53 32ZM49 33L49 35L50 35L50 33ZM54 33L54 34L55 34L55 33ZM8 34L8 35L9 35L9 34ZM15 34L15 37L16 37L16 36L17 36L17 35L16 35L16 34ZM44 34L44 35L45 35L45 34ZM52 34L52 37L54 37L54 36L53 36L53 34ZM21 36L21 37L22 37L22 38L21 38L21 39L22 39L22 38L24 38L24 37L22 37L22 36ZM30 36L30 38L31 38L31 36ZM41 37L41 38L42 38L42 40L41 40L41 39L40 39L40 40L41 40L41 42L44 42L44 39L43 39L43 37ZM44 37L44 38L46 38L46 37ZM19 38L19 39L20 39L20 38ZM36 38L36 39L37 39L37 38ZM38 38L38 39L39 39L39 38ZM20 40L20 41L21 41L21 40ZM46 40L46 41L47 41L47 40ZM4 41L4 42L5 42L5 43L3 43L3 44L2 44L2 43L1 43L1 45L2 45L2 46L1 46L1 47L2 47L2 46L3 46L3 47L5 47L5 46L4 46L4 44L5 44L5 43L6 43L6 44L7 44L7 43L6 43L6 42L7 42L7 41ZM31 41L31 42L32 42L32 41ZM33 41L33 42L34 42L34 41ZM10 42L10 43L11 43L11 42ZM50 42L50 43L51 43L51 42ZM14 43L14 44L15 44L15 45L18 45L18 47L20 47L20 45L22 45L22 44L20 44L20 45L18 45L18 44L15 44L15 43ZM55 43L55 44L54 44L54 45L55 45L55 44L56 44L56 43ZM40 44L40 45L41 45L41 46L40 46L40 47L38 47L38 48L37 48L37 49L36 49L36 50L35 50L35 48L34 48L34 50L35 50L35 51L36 51L36 52L37 52L37 51L38 51L38 50L39 50L39 49L38 49L38 48L40 48L40 47L41 47L41 46L42 46L42 47L45 47L45 44L44 44L44 46L42 46L42 45L43 45L43 44ZM6 45L6 46L7 46L7 47L8 47L8 46L7 46L7 45ZM11 45L11 48L12 48L12 45ZM27 45L27 46L26 46L26 47L27 47L27 46L28 46L28 45ZM9 46L9 49L10 49L10 46ZM14 48L14 49L16 49L16 48ZM27 49L27 52L30 52L30 49ZM37 49L37 50L36 50L36 51L37 51L37 50L38 50L38 49ZM45 49L45 50L46 50L46 51L45 51L45 53L44 53L44 54L45 54L45 53L47 53L47 52L46 52L46 51L47 51L47 50L46 50L46 49ZM49 49L49 52L52 52L52 49ZM25 50L25 52L26 52L26 50ZM28 50L28 51L29 51L29 50ZM50 50L50 51L51 51L51 50ZM20 51L20 52L21 52L21 53L22 53L22 52L23 52L23 51L22 51L22 52L21 52L21 51ZM25 53L25 54L26 54L26 53ZM29 53L29 54L30 54L30 53ZM19 54L19 55L20 55L20 54ZM11 55L11 57L12 57L12 55ZM41 56L41 57L42 57L42 56ZM0 0L0 7L7 7L7 0ZM1 1L1 6L6 6L6 1ZM2 2L2 5L5 5L5 2ZM50 0L50 7L57 7L57 0ZM51 1L51 6L56 6L56 1ZM52 2L52 5L55 5L55 2ZM0 50L0 57L7 57L7 50ZM1 51L1 56L6 56L6 51ZM2 52L2 55L5 55L5 52Z" fill="#000000"/></g></g></svg>
