<?xml version="1.0" encoding="UTF-8"?>
<svg xmlns="http://www.w3.org/2000/svg" version="1.1" width="300" height="300" viewBox="0 0 300 300"><rect x="0" y="0" width="300" height="300" fill="#ffffff"/><g transform="scale(4.918)"><g transform="translate(2,2)"><path fill-rule="evenodd" d="M8 0L8 1L9 1L9 0ZM11 0L11 3L10 3L10 2L8 2L8 5L10 5L10 4L12 4L12 1L13 1L13 2L15 2L15 3L17 3L17 4L18 4L18 5L19 5L19 6L18 6L18 7L19 7L19 12L18 12L18 10L17 10L17 12L16 12L16 11L14 11L14 10L11 10L11 9L13 9L13 6L14 6L14 7L15 7L15 6L16 6L16 7L17 7L17 5L15 5L15 6L14 6L14 3L13 3L13 5L12 5L12 8L8 8L8 9L7 9L7 8L6 8L6 9L5 9L5 10L4 10L4 8L0 8L0 9L3 9L3 10L1 10L1 11L2 11L2 12L1 12L1 13L3 13L3 14L2 14L2 15L1 15L1 14L0 14L0 15L1 15L1 16L0 16L0 17L1 17L1 18L0 18L0 20L1 20L1 21L4 21L4 22L3 22L3 23L7 23L7 24L3 24L3 25L4 25L4 26L3 26L3 27L2 27L2 25L1 25L1 24L2 24L2 23L1 23L1 22L0 22L0 23L1 23L1 24L0 24L0 28L1 28L1 29L0 29L0 33L1 33L1 32L3 32L3 33L2 33L2 34L0 34L0 35L1 35L1 36L0 36L0 39L1 39L1 38L2 38L2 37L3 37L3 36L4 36L4 39L3 39L3 40L2 40L2 41L1 41L1 40L0 40L0 41L1 41L1 42L0 42L0 43L2 43L2 45L1 45L1 46L0 46L0 48L5 48L5 47L7 47L7 48L6 48L6 49L8 49L8 50L9 50L9 52L10 52L10 53L11 53L11 55L10 55L10 54L9 54L9 53L8 53L8 57L10 57L10 56L11 56L11 57L13 57L13 55L14 55L14 56L15 56L15 57L16 57L16 56L18 56L18 55L20 55L20 56L19 56L19 57L24 57L24 56L26 56L26 55L24 55L24 56L22 56L22 55L23 55L23 54L28 54L28 53L29 53L29 54L31 54L31 55L30 55L30 56L31 56L31 55L32 55L32 57L33 57L33 56L35 56L35 57L36 57L36 56L37 56L37 57L41 57L41 56L42 56L42 57L43 57L43 54L45 54L45 52L47 52L47 53L46 53L46 55L45 55L45 57L47 57L47 56L48 56L48 57L50 57L50 56L51 56L51 55L50 55L50 53L54 53L54 52L55 52L55 54L56 54L56 53L57 53L57 51L56 51L56 49L54 49L54 48L53 48L53 47L54 47L54 46L55 46L55 48L57 48L57 44L53 44L53 46L52 46L52 43L51 43L51 45L50 45L50 42L53 42L53 41L54 41L54 40L55 40L55 39L54 39L54 37L56 37L56 36L54 36L54 35L57 35L57 33L56 33L56 34L55 34L55 32L57 32L57 31L55 31L55 30L57 30L57 29L55 29L55 26L54 26L54 25L57 25L57 24L54 24L54 22L55 22L55 23L57 23L57 21L55 21L55 20L54 20L54 19L53 19L53 18L52 18L52 15L53 15L53 17L54 17L54 18L55 18L55 19L56 19L56 18L57 18L57 15L56 15L56 11L57 11L57 8L56 8L56 9L55 9L55 8L52 8L52 9L55 9L55 10L54 10L54 11L55 11L55 14L54 14L54 13L53 13L53 14L51 14L51 12L52 12L52 11L53 11L53 10L52 10L52 11L51 11L51 12L50 12L50 10L49 10L49 9L50 9L50 8L49 8L49 6L48 6L48 8L47 8L47 5L48 5L48 0L45 0L45 1L44 1L44 0L42 0L42 2L41 2L41 3L42 3L42 4L43 4L43 1L44 1L44 3L45 3L45 5L46 5L46 9L48 9L48 11L49 11L49 15L50 15L50 17L51 17L51 19L49 19L49 20L51 20L51 21L53 21L53 26L52 26L52 22L51 22L51 25L50 25L50 24L49 24L49 26L46 26L46 24L48 24L48 23L49 23L49 22L50 22L50 21L48 21L48 17L49 17L49 16L48 16L48 17L46 17L46 15L44 15L44 16L43 16L43 14L42 14L42 13L44 13L44 11L43 11L43 12L42 12L42 13L41 13L41 15L40 15L40 16L43 16L43 21L42 21L42 19L40 19L40 18L42 18L42 17L39 17L39 16L38 16L38 15L39 15L39 13L40 13L40 11L41 11L41 10L44 10L44 9L42 9L42 8L39 8L39 4L40 4L40 7L41 7L41 6L42 6L42 7L43 7L43 6L44 6L44 7L45 7L45 6L44 6L44 5L41 5L41 4L40 4L40 3L39 3L39 2L38 2L38 1L37 1L37 0L35 0L35 1L34 1L34 3L33 3L33 2L32 2L32 3L31 3L31 4L30 4L30 2L31 2L31 1L32 1L32 0L30 0L30 2L29 2L29 1L28 1L28 2L27 2L27 4L26 4L26 0L24 0L24 1L23 1L23 0L21 0L21 2L18 2L18 1L17 1L17 2L15 2L15 1L16 1L16 0ZM40 0L40 1L41 1L41 0ZM22 1L22 2L21 2L21 3L19 3L19 4L20 4L20 5L22 5L22 6L21 6L21 7L20 7L20 6L19 6L19 7L20 7L20 8L22 8L22 6L23 6L23 7L24 7L24 8L23 8L23 9L22 9L22 10L23 10L23 11L21 11L21 14L20 14L20 12L19 12L19 13L18 13L18 12L17 12L17 13L16 13L16 12L15 12L15 13L16 13L16 14L14 14L14 13L12 13L12 11L10 11L10 10L7 10L7 9L6 9L6 10L7 10L7 11L4 11L4 12L9 12L9 11L10 11L10 13L8 13L8 15L9 15L9 16L8 16L8 17L10 17L10 18L7 18L7 17L5 17L5 16L4 16L4 17L5 17L5 19L4 19L4 18L3 18L3 17L2 17L2 19L1 19L1 20L3 20L3 19L4 19L4 20L5 20L5 21L6 21L6 22L7 22L7 23L8 23L8 26L9 26L9 27L10 27L10 29L9 29L9 33L4 33L4 35L5 35L5 36L7 36L7 35L8 35L8 34L9 34L9 35L10 35L10 37L9 37L9 38L10 38L10 37L11 37L11 38L12 38L12 41L13 41L13 40L14 40L14 42L11 42L11 40L9 40L9 41L8 41L8 40L7 40L7 39L6 39L6 38L7 38L7 37L6 37L6 38L5 38L5 39L4 39L4 41L3 41L3 45L4 45L4 46L3 46L3 47L5 47L5 46L7 46L7 45L6 45L6 44L7 44L7 43L6 43L6 42L11 42L11 43L9 43L9 44L8 44L8 45L10 45L10 46L11 46L11 49L12 49L12 50L10 50L10 49L9 49L9 50L10 50L10 51L11 51L11 52L13 52L13 51L15 51L15 53L16 53L16 54L18 54L18 53L19 53L19 52L22 52L22 53L20 53L20 55L21 55L21 54L23 54L23 51L22 51L22 50L21 50L21 51L20 51L20 50L18 50L18 52L17 52L17 51L16 51L16 50L17 50L17 49L16 49L16 50L15 50L15 49L12 49L12 48L14 48L14 46L13 46L13 47L12 47L12 46L11 46L11 45L13 45L13 43L14 43L14 42L15 42L15 41L16 41L16 40L18 40L18 41L19 41L19 42L21 42L21 44L22 44L22 46L21 46L21 45L19 45L19 43L18 43L18 42L16 42L16 43L15 43L15 44L14 44L14 45L15 45L15 47L16 47L16 48L17 48L17 47L19 47L19 46L21 46L21 47L20 47L20 48L19 48L19 49L20 49L20 48L21 48L21 49L23 49L23 48L21 48L21 47L23 47L23 45L24 45L24 44L25 44L25 46L24 46L24 50L25 50L25 52L24 52L24 53L25 53L25 52L26 52L26 48L25 48L25 46L27 46L27 47L28 47L28 46L29 46L29 48L31 48L31 49L33 49L33 50L34 50L34 51L33 51L33 53L31 53L31 54L33 54L33 55L34 55L34 53L37 53L37 56L38 56L38 55L39 55L39 56L41 56L41 54L40 54L40 53L41 53L41 52L42 52L42 54L43 54L43 52L42 52L42 50L43 50L43 51L44 51L44 52L45 52L45 50L46 50L46 51L48 51L48 50L47 50L47 49L48 49L48 42L50 42L50 39L52 39L52 41L53 41L53 37L54 37L54 36L53 36L53 35L52 35L52 36L53 36L53 37L51 37L51 35L49 35L49 36L47 36L47 37L46 37L46 40L47 40L47 39L48 39L48 40L49 40L49 41L48 41L48 42L47 42L47 44L46 44L46 43L45 43L45 41L44 41L44 43L42 43L42 42L43 42L43 41L42 41L42 42L40 42L40 43L39 43L39 41L38 41L38 40L37 40L37 39L39 39L39 40L40 40L40 41L41 41L41 40L44 40L44 39L45 39L45 35L42 35L42 38L44 38L44 39L39 39L39 38L41 38L41 33L39 33L39 32L40 32L40 30L42 30L42 32L43 32L43 34L45 34L45 32L46 32L46 34L47 34L47 35L48 35L48 34L49 34L49 33L48 33L48 29L47 29L47 31L46 31L46 28L48 28L48 27L46 27L46 28L45 28L45 26L44 26L44 28L45 28L45 29L44 29L44 30L43 30L43 29L41 29L41 28L42 28L42 27L43 27L43 23L44 23L44 25L45 25L45 24L46 24L46 23L45 23L45 22L47 22L47 20L46 20L46 21L45 21L45 17L44 17L44 21L43 21L43 22L42 22L42 23L41 23L41 21L40 21L40 20L39 20L39 21L38 21L38 20L35 20L35 19L36 19L36 18L35 18L35 19L34 19L34 17L33 17L33 18L32 18L32 16L31 16L31 17L30 17L30 18L29 18L29 17L27 17L27 15L28 15L28 16L30 16L30 15L31 15L31 14L32 14L32 15L34 15L34 16L35 16L35 15L36 15L36 17L38 17L38 18L39 18L39 17L38 17L38 16L37 16L37 15L38 15L38 13L39 13L39 12L38 12L38 11L37 11L37 9L38 9L38 10L39 10L39 9L38 9L38 8L36 8L36 6L35 6L35 4L36 4L36 5L37 5L37 7L38 7L38 4L39 4L39 3L37 3L37 4L36 4L36 2L37 2L37 1L35 1L35 4L34 4L34 5L32 5L32 4L33 4L33 3L32 3L32 4L31 4L31 5L32 5L32 6L31 6L31 7L32 7L32 6L33 6L33 7L34 7L34 6L35 6L35 8L36 8L36 9L34 9L34 10L33 10L33 8L32 8L32 10L29 10L29 9L28 9L28 11L27 11L27 9L26 9L26 6L25 6L25 5L26 5L26 4L24 4L24 6L23 6L23 5L22 5L22 4L23 4L23 3L22 3L22 2L23 2L23 1ZM24 1L24 2L25 2L25 1ZM45 1L45 3L46 3L46 5L47 5L47 3L46 3L46 2L47 2L47 1ZM17 2L17 3L18 3L18 2ZM28 2L28 4L29 4L29 2ZM27 5L27 8L30 8L30 5ZM8 6L8 7L9 7L9 6ZM10 6L10 7L11 7L11 6ZM24 6L24 7L25 7L25 6ZM28 6L28 7L29 7L29 6ZM16 8L16 9L18 9L18 8ZM24 8L24 9L23 9L23 10L25 10L25 8ZM20 9L20 10L21 10L21 9ZM32 10L32 11L29 11L29 12L31 12L31 13L30 13L30 14L31 14L31 13L32 13L32 11L33 11L33 10ZM35 10L35 11L34 11L34 12L33 12L33 14L34 14L34 13L35 13L35 14L36 14L36 15L37 15L37 14L36 14L36 13L38 13L38 12L37 12L37 11L36 11L36 10ZM45 10L45 13L46 13L46 12L47 12L47 11L46 11L46 10ZM23 11L23 12L22 12L22 13L23 13L23 14L22 14L22 15L20 15L20 14L19 14L19 17L18 17L18 20L16 20L16 19L11 19L11 18L13 18L13 17L15 17L15 18L17 18L17 16L16 16L16 17L15 17L15 16L14 16L14 15L13 15L13 14L12 14L12 13L10 13L10 14L9 14L9 15L10 15L10 16L12 16L12 17L11 17L11 18L10 18L10 19L8 19L8 23L9 23L9 21L10 21L10 22L11 22L11 21L10 21L10 19L11 19L11 20L12 20L12 21L13 21L13 22L12 22L12 25L11 25L11 26L10 26L10 27L11 27L11 30L10 30L10 32L11 32L11 33L9 33L9 34L10 34L10 35L11 35L11 36L12 36L12 37L13 37L13 39L14 39L14 40L16 40L16 39L18 39L18 38L19 38L19 40L20 40L20 41L22 41L22 44L24 44L24 43L25 43L25 42L27 42L27 41L28 41L28 42L30 42L30 45L29 45L29 46L32 46L32 45L31 45L31 44L32 44L32 43L31 43L31 42L30 42L30 40L28 40L28 39L30 39L30 38L31 38L31 40L32 40L32 41L34 41L34 42L36 42L36 43L35 43L35 44L33 44L33 45L35 45L35 46L34 46L34 49L35 49L35 51L34 51L34 52L35 52L35 51L36 51L36 52L37 52L37 53L38 53L38 51L40 51L40 52L41 52L41 50L40 50L40 47L39 47L39 48L38 48L38 46L37 46L37 45L38 45L38 44L37 44L37 41L36 41L36 38L34 38L34 37L32 37L32 36L31 36L31 37L30 37L30 34L31 34L31 35L36 35L36 37L37 37L37 38L39 38L39 37L40 37L40 34L39 34L39 36L38 36L38 37L37 37L37 35L36 35L36 34L34 34L34 31L36 31L36 32L39 32L39 30L38 30L38 28L37 28L37 30L36 30L36 27L38 27L38 26L40 26L40 25L37 25L37 23L38 23L38 21L37 21L37 23L36 23L36 22L35 22L35 23L36 23L36 25L37 25L37 26L35 26L35 24L34 24L34 22L33 22L33 21L35 21L35 20L34 20L34 19L33 19L33 21L29 21L29 20L32 20L32 19L29 19L29 18L28 18L28 19L26 19L26 18L27 18L27 17L25 17L25 16L26 16L26 14L25 14L25 15L23 15L23 14L24 14L24 11ZM25 11L25 13L27 13L27 14L29 14L29 13L28 13L28 12L26 12L26 11ZM4 13L4 14L7 14L7 13ZM16 14L16 15L17 15L17 14ZM47 14L47 15L48 15L48 14ZM50 14L50 15L51 15L51 14ZM53 14L53 15L54 15L54 14ZM6 15L6 16L7 16L7 15ZM55 15L55 17L56 17L56 15ZM20 16L20 18L19 18L19 20L18 20L18 21L17 21L17 23L16 23L16 20L14 20L14 22L13 22L13 25L12 25L12 26L11 26L11 27L12 27L12 28L13 28L13 29L12 29L12 30L11 30L11 32L14 32L14 33L12 33L12 34L13 34L13 35L12 35L12 36L15 36L15 37L14 37L14 39L15 39L15 38L17 38L17 36L16 36L16 35L14 35L14 34L17 34L17 33L18 33L18 34L19 34L19 35L18 35L18 36L19 36L19 37L20 37L20 38L21 38L21 36L22 36L22 37L23 37L23 36L22 36L22 35L23 35L23 34L24 34L24 32L25 32L25 34L26 34L26 36L27 36L27 37L24 37L24 39L23 39L23 40L22 40L22 39L21 39L21 40L22 40L22 41L24 41L24 42L23 42L23 43L24 43L24 42L25 42L25 41L26 41L26 40L27 40L27 39L26 39L26 38L30 38L30 37L29 37L29 36L27 36L27 34L28 34L28 35L29 35L29 33L31 33L31 34L32 34L32 33L33 33L33 29L34 29L34 26L33 26L33 25L31 25L31 23L30 23L30 25L29 25L29 23L28 23L28 22L29 22L29 21L27 21L27 20L26 20L26 21L27 21L27 22L25 22L25 17L23 17L23 16L22 16L22 17L21 17L21 16ZM6 18L6 19L7 19L7 18ZM20 18L20 20L21 20L21 22L18 22L18 23L19 23L19 24L17 24L17 27L16 27L16 23L15 23L15 22L14 22L14 23L15 23L15 26L14 26L14 25L13 25L13 26L12 26L12 27L13 27L13 26L14 26L14 27L16 27L16 28L14 28L14 29L13 29L13 31L15 31L15 30L17 30L17 27L20 27L20 28L21 28L21 26L22 26L22 27L23 27L23 25L21 25L21 24L20 24L20 23L21 23L21 22L23 22L23 24L24 24L24 25L25 25L25 22L24 22L24 21L23 21L23 20L24 20L24 19L23 19L23 20L22 20L22 19L21 19L21 18ZM28 19L28 20L29 20L29 19ZM51 19L51 20L53 20L53 21L54 21L54 20L53 20L53 19ZM6 20L6 21L7 21L7 20ZM44 21L44 22L45 22L45 21ZM32 22L32 24L33 24L33 22ZM26 23L26 24L27 24L27 23ZM40 23L40 24L41 24L41 25L42 25L42 24L41 24L41 23ZM6 25L6 26L7 26L7 25ZM18 25L18 26L20 26L20 25ZM26 26L26 29L25 29L25 28L23 28L23 29L21 29L21 30L20 30L20 29L19 29L19 28L18 28L18 29L19 29L19 30L18 30L18 32L19 32L19 33L21 33L21 34L20 34L20 35L19 35L19 36L21 36L21 35L22 35L22 34L23 34L23 32L24 32L24 29L25 29L25 31L26 31L26 32L27 32L27 31L28 31L28 32L30 32L30 31L31 31L31 33L32 33L32 31L31 31L31 30L32 30L32 29L33 29L33 28L31 28L31 26ZM32 26L32 27L33 27L33 26ZM53 26L53 27L54 27L54 26ZM1 27L1 28L2 28L2 27ZM5 27L5 30L8 30L8 27ZM27 27L27 30L30 30L30 27ZM40 27L40 28L39 28L39 29L40 29L40 28L41 28L41 27ZM49 27L49 30L52 30L52 27ZM6 28L6 29L7 29L7 28ZM28 28L28 29L29 29L29 28ZM50 28L50 29L51 29L51 28ZM53 28L53 30L55 30L55 29L54 29L54 28ZM1 29L1 30L2 30L2 29ZM3 29L3 30L4 30L4 29ZM19 30L19 32L20 32L20 30ZM44 30L44 31L45 31L45 30ZM3 31L3 32L8 32L8 31ZM21 31L21 32L23 32L23 31ZM49 31L49 32L51 32L51 33L50 33L50 34L54 34L54 32L55 32L55 31ZM37 33L37 34L38 34L38 33ZM47 33L47 34L48 34L48 33ZM6 34L6 35L7 35L7 34ZM2 35L2 36L1 36L1 37L2 37L2 36L3 36L3 35ZM24 35L24 36L25 36L25 35ZM43 36L43 37L44 37L44 36ZM48 37L48 38L49 38L49 37ZM32 38L32 40L33 40L33 39L34 39L34 41L35 41L35 39L34 39L34 38ZM56 38L56 39L57 39L57 38ZM24 39L24 40L25 40L25 39ZM6 40L6 41L7 41L7 40ZM56 40L56 41L55 41L55 42L54 42L54 43L56 43L56 41L57 41L57 40ZM4 41L4 42L5 42L5 41ZM16 43L16 44L17 44L17 43ZM27 43L27 46L28 46L28 43ZM44 43L44 44L45 44L45 43ZM4 44L4 45L5 45L5 44ZM36 44L36 45L37 45L37 44ZM39 44L39 45L40 45L40 46L41 46L41 44ZM42 44L42 47L44 47L44 48L45 48L45 49L44 49L44 50L45 50L45 49L46 49L46 48L47 48L47 46L46 46L46 45L45 45L45 46L43 46L43 44ZM17 45L17 46L16 46L16 47L17 47L17 46L19 46L19 45ZM55 45L55 46L56 46L56 45ZM1 46L1 47L2 47L2 46ZM8 46L8 47L9 47L9 48L10 48L10 47L9 47L9 46ZM35 46L35 48L36 48L36 47L37 47L37 46ZM45 46L45 47L46 47L46 46ZM49 46L49 48L50 48L50 46ZM32 47L32 48L33 48L33 47ZM27 49L27 52L30 52L30 49ZM36 49L36 51L37 51L37 49ZM49 49L49 52L52 52L52 49ZM53 49L53 50L54 50L54 51L55 51L55 52L56 52L56 51L55 51L55 50L54 50L54 49ZM28 50L28 51L29 51L29 50ZM50 50L50 51L51 51L51 50ZM31 51L31 52L32 52L32 51ZM14 54L14 55L15 55L15 54ZM35 54L35 56L36 56L36 54ZM39 54L39 55L40 55L40 54ZM47 54L47 55L48 55L48 56L49 56L49 55L48 55L48 54ZM9 55L9 56L10 56L10 55ZM11 55L11 56L12 56L12 55ZM52 55L52 57L53 57L53 55ZM56 55L56 56L57 56L57 55ZM27 56L27 57L29 57L29 56ZM54 56L54 57L55 57L55 56ZM0 0L0 7L7 7L7 0ZM1 1L1 6L6 6L6 1ZM2 2L2 5L5 5L5 2ZM50 0L50 7L57 7L57 0ZM51 1L51 6L56 6L56 1ZM52 2L52 5L55 5L55 2ZM0 50L0 57L7 57L7 50ZM1 51L1 56L6 56L6 51ZM2 52L2 55L5 55L5 52Z" fill="#000000"/></g></g></svg>
