<?xml version="1.0" encoding="UTF-8"?>
<svg xmlns="http://www.w3.org/2000/svg" version="1.1" width="300" height="300" viewBox="0 0 300 300"><rect x="0" y="0" width="300" height="300" fill="#ffffff"/><g transform="scale(4.918)"><g transform="translate(2,2)"><path fill-rule="evenodd" d="M9 0L9 1L8 1L8 2L9 2L9 3L8 3L8 4L9 4L9 3L10 3L10 4L11 4L11 5L8 5L8 7L9 7L9 8L6 8L6 9L5 9L5 8L0 8L0 9L3 9L3 10L4 10L4 9L5 9L5 12L4 12L4 11L3 11L3 16L4 16L4 18L3 18L3 17L2 17L2 20L4 20L4 21L7 21L7 22L5 22L5 24L3 24L3 25L1 25L1 27L2 27L2 28L1 28L1 30L0 30L0 31L2 31L2 32L3 32L3 31L2 31L2 30L3 30L3 29L2 29L2 28L4 28L4 31L5 31L5 32L4 32L4 33L5 33L5 32L6 32L6 33L7 33L7 34L3 34L3 37L2 37L2 38L3 38L3 39L5 39L5 38L3 38L3 37L5 37L5 35L7 35L7 34L8 34L8 35L9 35L9 34L8 34L8 32L9 32L9 33L10 33L10 32L9 32L9 31L10 31L10 30L12 30L12 31L11 31L11 34L10 34L10 35L11 35L11 34L13 34L13 33L15 33L15 34L16 34L16 33L17 33L17 32L16 32L16 33L15 33L15 32L14 32L14 30L15 30L15 29L18 29L18 30L19 30L19 32L18 32L18 33L19 33L19 34L18 34L18 35L20 35L20 33L21 33L21 35L22 35L22 36L21 36L21 37L19 37L19 36L17 36L17 35L14 35L14 37L15 37L15 38L14 38L14 40L13 40L13 39L11 39L11 38L10 38L10 36L6 36L6 37L7 37L7 38L6 38L6 39L7 39L7 38L8 38L8 40L9 40L9 41L8 41L8 42L6 42L6 41L7 41L7 40L6 40L6 41L4 41L4 40L2 40L2 39L1 39L1 41L0 41L0 45L2 45L2 47L1 47L1 46L0 46L0 48L5 48L5 47L7 47L7 48L6 48L6 49L8 49L8 51L9 51L9 52L8 52L8 57L10 57L10 56L11 56L11 57L12 57L12 56L14 56L14 57L19 57L19 56L17 56L17 53L20 53L20 52L21 52L21 53L22 53L22 54L21 54L21 56L24 56L24 55L23 55L23 54L24 54L24 53L25 53L25 54L26 54L26 56L25 56L25 57L26 57L26 56L28 56L28 55L27 55L27 53L28 53L28 54L30 54L30 53L31 53L31 56L30 56L30 55L29 55L29 56L30 56L30 57L32 57L32 56L33 56L33 57L39 57L39 56L37 56L37 54L34 54L34 53L35 53L35 52L36 52L36 53L37 53L37 52L39 52L39 54L38 54L38 55L40 55L40 52L41 52L41 54L42 54L42 55L43 55L43 53L44 53L44 54L45 54L45 55L44 55L44 56L42 56L42 57L44 57L44 56L46 56L46 57L47 57L47 55L48 55L48 56L50 56L50 55L51 55L51 57L52 57L52 56L53 56L53 57L54 57L54 56L55 56L55 57L56 57L56 56L55 56L55 54L54 54L54 53L53 53L53 48L55 48L55 50L57 50L57 49L56 49L56 48L55 48L55 47L56 47L56 46L57 46L57 45L56 45L56 42L55 42L55 39L57 39L57 37L55 37L55 38L52 38L52 39L51 39L51 41L48 41L48 42L45 42L45 45L44 45L44 42L43 42L43 41L41 41L41 42L40 42L40 40L41 40L41 39L42 39L42 38L43 38L43 37L44 37L44 38L45 38L45 37L44 37L44 34L45 34L45 36L46 36L46 35L48 35L48 33L47 33L47 32L48 32L48 31L49 31L49 35L50 35L50 32L51 32L51 33L53 33L53 32L55 32L55 33L54 33L54 34L55 34L55 35L54 35L54 36L53 36L53 34L52 34L52 36L51 36L51 37L50 37L50 36L49 36L49 37L48 37L48 38L49 38L49 39L50 39L50 38L51 38L51 37L54 37L54 36L55 36L55 35L56 35L56 34L57 34L57 33L56 33L56 30L57 30L57 28L56 28L56 26L55 26L55 25L54 25L54 26L55 26L55 27L53 27L53 26L52 26L52 25L51 25L51 26L49 26L49 25L50 25L50 23L51 23L51 24L56 24L56 22L57 22L57 21L55 21L55 23L53 23L53 22L54 22L54 21L53 21L53 22L52 22L52 23L51 23L51 22L50 22L50 19L51 19L51 20L52 20L52 19L51 19L51 18L50 18L50 11L52 11L52 12L53 12L53 11L54 11L54 12L55 12L55 13L54 13L54 14L55 14L55 15L52 15L52 16L55 16L55 15L56 15L56 16L57 16L57 15L56 15L56 14L57 14L57 13L56 13L56 12L57 12L57 11L56 11L56 10L57 10L57 9L56 9L56 8L55 8L55 9L56 9L56 10L55 10L55 11L54 11L54 10L53 10L53 9L54 9L54 8L53 8L53 9L52 9L52 8L51 8L51 9L52 9L52 10L49 10L49 9L50 9L50 8L49 8L49 6L48 6L48 8L49 8L49 9L47 9L47 11L48 11L48 12L49 12L49 13L47 13L47 14L46 14L46 12L45 12L45 9L46 9L46 8L47 8L47 5L48 5L48 0L46 0L46 1L47 1L47 2L45 2L45 1L44 1L44 0L42 0L42 1L41 1L41 0L39 0L39 1L36 1L36 2L38 2L38 3L36 3L36 5L33 5L33 6L32 6L32 7L31 7L31 4L32 4L32 3L34 3L34 4L35 4L35 3L34 3L34 2L35 2L35 1L34 1L34 0L32 0L32 1L34 1L34 2L30 2L30 1L31 1L31 0L30 0L30 1L28 1L28 0L27 0L27 1L26 1L26 2L27 2L27 1L28 1L28 3L27 3L27 4L26 4L26 3L25 3L25 0L24 0L24 1L23 1L23 0L21 0L21 2L20 2L20 3L21 3L21 4L19 4L19 3L18 3L18 4L19 4L19 5L17 5L17 6L16 6L16 7L15 7L15 5L16 5L16 4L14 4L14 2L13 2L13 0L12 0L12 3L10 3L10 2L11 2L11 1L10 1L10 0ZM14 0L14 1L15 1L15 0ZM16 1L16 2L15 2L15 3L16 3L16 2L17 2L17 1ZM18 1L18 2L19 2L19 1ZM22 1L22 2L21 2L21 3L22 3L22 4L21 4L21 5L22 5L22 4L23 4L23 5L24 5L24 4L23 4L23 3L24 3L24 2L23 2L23 1ZM39 1L39 2L41 2L41 3L40 3L40 4L38 4L38 6L37 6L37 5L36 5L36 6L35 6L35 8L37 8L37 7L38 7L38 11L41 11L41 12L40 12L40 14L39 14L39 12L38 12L38 13L37 13L37 14L35 14L35 13L33 13L33 12L32 12L32 13L33 13L33 14L32 14L32 15L31 15L31 16L30 16L30 14L31 14L31 11L33 11L33 10L35 10L35 11L34 11L34 12L35 12L35 11L37 11L37 10L35 10L35 9L33 9L33 8L34 8L34 6L33 6L33 7L32 7L32 8L31 8L31 9L32 9L32 10L31 10L31 11L30 11L30 10L28 10L28 9L25 9L25 8L26 8L26 4L25 4L25 8L24 8L24 6L23 6L23 8L21 8L21 9L20 9L20 8L19 8L19 7L20 7L20 5L19 5L19 7L18 7L18 6L17 6L17 7L16 7L16 8L17 8L17 7L18 7L18 8L19 8L19 9L20 9L20 11L19 11L19 15L18 15L18 14L17 14L17 13L18 13L18 12L17 12L17 13L11 13L11 14L10 14L10 12L11 12L11 11L12 11L12 12L14 12L14 11L13 11L13 10L17 10L17 11L18 11L18 9L15 9L15 7L14 7L14 5L13 5L13 4L12 4L12 6L11 6L11 8L10 8L10 10L9 10L9 9L8 9L8 10L7 10L7 9L6 9L6 10L7 10L7 11L6 11L6 12L7 12L7 11L8 11L8 12L9 12L9 13L8 13L8 14L7 14L7 13L6 13L6 14L5 14L5 13L4 13L4 14L5 14L5 15L6 15L6 16L5 16L5 17L6 17L6 18L5 18L5 20L8 20L8 21L9 21L9 22L7 22L7 23L6 23L6 24L5 24L5 25L4 25L4 26L3 26L3 27L4 27L4 26L7 26L7 25L8 25L8 24L7 24L7 23L9 23L9 25L10 25L10 24L12 24L12 21L14 21L14 22L13 22L13 24L16 24L16 23L15 23L15 22L16 22L16 21L17 21L17 24L18 24L18 23L19 23L19 25L14 25L14 26L15 26L15 28L16 28L16 27L17 27L17 28L18 28L18 29L19 29L19 30L20 30L20 32L21 32L21 31L22 31L22 33L24 33L24 32L23 32L23 31L25 31L25 34L24 34L24 36L25 36L25 44L24 44L24 43L23 43L23 44L24 44L24 45L22 45L22 44L21 44L21 45L20 45L20 43L19 43L19 45L20 45L20 47L18 47L18 46L17 46L17 45L18 45L18 44L17 44L17 45L15 45L15 46L14 46L14 44L16 44L16 43L18 43L18 41L15 41L15 40L14 40L14 41L13 41L13 43L14 43L14 44L13 44L13 45L12 45L12 41L11 41L11 42L10 42L10 41L9 41L9 42L10 42L10 43L11 43L11 44L10 44L10 45L11 45L11 46L9 46L9 47L8 47L8 46L7 46L7 45L8 45L8 43L6 43L6 42L4 42L4 41L3 41L3 42L2 42L2 41L1 41L1 44L2 44L2 45L4 45L4 44L3 44L3 42L4 42L4 43L6 43L6 44L7 44L7 45L5 45L5 46L3 46L3 47L5 47L5 46L7 46L7 47L8 47L8 49L9 49L9 50L10 50L10 52L9 52L9 56L10 56L10 53L11 53L11 55L12 55L12 54L14 54L14 56L16 56L16 55L15 55L15 54L16 54L16 53L17 53L17 51L18 51L18 52L20 52L20 51L21 51L21 52L22 52L22 53L24 53L24 51L21 51L21 49L24 49L24 45L25 45L25 48L29 48L29 47L30 47L30 48L31 48L31 52L32 52L32 54L33 54L33 55L34 55L34 56L36 56L36 55L34 55L34 54L33 54L33 52L32 52L32 51L34 51L34 50L39 50L39 52L40 52L40 51L41 51L41 52L42 52L42 51L43 51L43 50L44 50L44 53L45 53L45 54L47 54L47 53L48 53L48 52L47 52L47 51L48 51L48 48L49 48L49 47L51 47L51 48L53 48L53 47L54 47L54 46L53 46L53 45L52 45L52 44L53 44L53 43L54 43L54 40L53 40L53 39L52 39L52 41L51 41L51 42L50 42L50 43L51 43L51 42L53 42L53 43L52 43L52 44L51 44L51 45L50 45L50 44L49 44L49 43L48 43L48 44L47 44L47 45L46 45L46 46L47 46L47 47L46 47L46 48L42 48L42 49L41 49L41 48L40 48L40 46L42 46L42 47L45 47L45 46L42 46L42 45L43 45L43 44L40 44L40 42L39 42L39 40L38 40L38 39L41 39L41 36L42 36L42 37L43 37L43 34L42 34L42 33L45 33L45 34L47 34L47 33L46 33L46 32L47 32L47 31L48 31L48 29L46 29L46 30L45 30L45 28L44 28L44 27L46 27L46 28L47 28L47 27L48 27L48 25L49 25L49 24L48 24L48 23L47 23L47 24L48 24L48 25L45 25L45 24L44 24L44 21L45 21L45 23L46 23L46 22L47 22L47 21L48 21L48 20L49 20L49 19L50 19L50 18L49 18L49 19L45 19L45 18L47 18L47 17L45 17L45 16L42 16L42 15L43 15L43 14L45 14L45 12L44 12L44 10L42 10L42 11L41 11L41 9L42 9L42 8L44 8L44 9L45 9L45 8L44 8L44 6L45 6L45 7L46 7L46 6L45 6L45 5L47 5L47 3L43 3L43 2L44 2L44 1L42 1L42 2L41 2L41 1ZM22 2L22 3L23 3L23 2ZM29 2L29 3L28 3L28 4L31 4L31 3L30 3L30 2ZM42 3L42 4L40 4L40 5L42 5L42 7L43 7L43 3ZM44 4L44 5L45 5L45 4ZM27 5L27 8L30 8L30 5ZM9 6L9 7L10 7L10 6ZM12 6L12 8L13 8L13 9L14 9L14 8L13 8L13 6ZM21 6L21 7L22 7L22 6ZM28 6L28 7L29 7L29 6ZM36 6L36 7L37 7L37 6ZM38 6L38 7L39 7L39 6ZM40 6L40 8L39 8L39 10L40 10L40 8L41 8L41 6ZM11 9L11 10L12 10L12 9ZM21 9L21 10L22 10L22 11L20 11L20 13L21 13L21 16L20 16L20 15L19 15L19 16L18 16L18 17L17 17L17 14L11 14L11 16L12 16L12 18L11 18L11 17L10 17L10 16L9 16L9 15L7 15L7 14L6 14L6 15L7 15L7 16L6 16L6 17L7 17L7 16L9 16L9 17L8 17L8 20L9 20L9 21L10 21L10 20L9 20L9 19L12 19L12 20L11 20L11 21L12 21L12 20L14 20L14 19L12 19L12 18L14 18L14 15L16 15L16 17L15 17L15 18L16 18L16 17L17 17L17 19L15 19L15 21L16 21L16 20L17 20L17 19L18 19L18 21L20 21L20 20L19 20L19 19L21 19L21 21L22 21L22 22L21 22L21 23L22 23L22 22L24 22L24 21L25 21L25 22L26 22L26 23L25 23L25 24L24 24L24 23L23 23L23 27L24 27L24 28L23 28L23 29L24 29L24 30L25 30L25 31L27 31L27 33L26 33L26 34L25 34L25 35L26 35L26 36L27 36L27 35L26 35L26 34L27 34L27 33L29 33L29 34L30 34L30 35L29 35L29 39L31 39L31 38L32 38L32 34L31 34L31 33L32 33L32 32L33 32L33 31L35 31L35 32L36 32L36 33L35 33L35 34L33 34L33 36L35 36L35 35L37 35L37 34L38 34L38 35L39 35L39 34L38 34L38 32L36 32L36 31L40 31L40 32L39 32L39 33L40 33L40 32L46 32L46 31L47 31L47 30L46 30L46 31L42 31L42 30L44 30L44 28L43 28L43 27L44 27L44 26L45 26L45 25L44 25L44 24L42 24L42 25L40 25L40 28L41 28L41 26L42 26L42 28L43 28L43 29L42 29L42 30L41 30L41 29L39 29L39 28L38 28L38 27L39 27L39 26L37 26L37 24L35 24L35 22L34 22L34 23L33 23L33 21L32 21L32 20L34 20L34 21L35 21L35 19L37 19L37 18L38 18L38 19L39 19L39 18L40 18L40 17L39 17L39 18L38 18L38 15L39 15L39 16L41 16L41 18L43 18L43 17L42 17L42 16L41 16L41 15L42 15L42 14L43 14L43 13L44 13L44 12L43 12L43 11L42 11L42 14L41 14L41 15L39 15L39 14L37 14L37 16L36 16L36 15L35 15L35 14L33 14L33 15L32 15L32 16L31 16L31 17L29 17L29 16L28 16L28 15L29 15L29 14L30 14L30 13L28 13L28 12L30 12L30 11L28 11L28 10L26 10L26 11L27 11L27 12L25 12L25 9ZM23 10L23 11L24 11L24 10ZM48 10L48 11L49 11L49 10ZM52 10L52 11L53 11L53 10ZM1 11L1 16L0 16L0 18L1 18L1 16L2 16L2 11ZM55 11L55 12L56 12L56 11ZM21 12L21 13L22 13L22 15L23 15L23 16L22 16L22 17L24 17L24 13L25 13L25 12L24 12L24 13L22 13L22 12ZM26 13L26 14L28 14L28 13ZM51 13L51 14L52 14L52 13ZM55 13L55 14L56 14L56 13ZM12 15L12 16L13 16L13 15ZM25 15L25 16L27 16L27 17L28 17L28 16L27 16L27 15ZM46 15L46 16L49 16L49 15ZM19 16L19 17L18 17L18 19L19 19L19 17L20 17L20 18L21 18L21 19L22 19L22 21L24 21L24 20L27 20L27 21L31 21L31 20L29 20L29 19L31 19L31 18L32 18L32 19L34 19L34 18L37 18L37 17L36 17L36 16L34 16L34 18L32 18L32 17L33 17L33 16L32 16L32 17L31 17L31 18L29 18L29 19L28 19L28 18L27 18L27 19L25 19L25 18L24 18L24 19L23 19L23 18L21 18L21 17L20 17L20 16ZM9 17L9 18L10 18L10 17ZM44 17L44 18L45 18L45 17ZM53 17L53 19L54 19L54 20L55 20L55 19L56 19L56 20L57 20L57 19L56 19L56 18L57 18L57 17L56 17L56 18L55 18L55 17ZM6 18L6 19L7 19L7 18ZM0 19L0 20L1 20L1 19ZM40 19L40 20L36 20L36 21L37 21L37 22L36 22L36 23L37 23L37 22L38 22L38 23L39 23L39 24L40 24L40 20L41 20L41 19ZM43 19L43 20L42 20L42 21L41 21L41 22L43 22L43 20L45 20L45 19ZM38 21L38 22L39 22L39 21ZM1 22L1 24L2 24L2 22ZM10 22L10 23L11 23L11 22ZM19 22L19 23L20 23L20 22ZM28 22L28 23L27 23L27 24L25 24L25 26L26 26L26 25L27 25L27 26L28 26L28 25L29 25L29 26L30 26L30 25L31 25L31 26L32 26L32 25L31 25L31 24L33 24L33 25L34 25L34 26L33 26L33 27L31 27L31 28L32 28L32 30L31 30L31 31L30 31L30 32L29 32L29 31L28 31L28 32L29 32L29 33L30 33L30 32L32 32L32 31L33 31L33 30L39 30L39 29L33 29L33 28L34 28L34 26L35 26L35 28L37 28L37 26L35 26L35 25L34 25L34 24L33 24L33 23L31 23L31 22ZM49 22L49 23L50 23L50 22ZM28 23L28 24L27 24L27 25L28 25L28 24L29 24L29 25L30 25L30 23ZM6 24L6 25L7 25L7 24ZM11 25L11 27L10 27L10 28L9 28L9 29L11 29L11 27L13 27L13 29L12 29L12 30L13 30L13 29L14 29L14 27L13 27L13 25ZM19 25L19 29L22 29L22 28L20 28L20 27L22 27L22 26L20 26L20 25ZM43 25L43 26L44 26L44 25ZM17 26L17 27L18 27L18 26ZM5 27L5 30L8 30L8 27ZM25 27L25 28L24 28L24 29L25 29L25 30L26 30L26 27ZM27 27L27 30L30 30L30 27ZM49 27L49 30L52 30L52 27ZM6 28L6 29L7 29L7 28ZM28 28L28 29L29 29L29 28ZM50 28L50 29L51 29L51 28ZM54 28L54 29L55 29L55 28ZM16 30L16 31L17 31L17 30ZM22 30L22 31L23 31L23 30ZM40 30L40 31L41 31L41 30ZM53 30L53 31L51 31L51 32L53 32L53 31L54 31L54 30ZM6 31L6 32L7 32L7 31ZM0 32L0 33L1 33L1 32ZM12 32L12 33L13 33L13 32ZM55 33L55 34L56 34L56 33ZM0 34L0 35L1 35L1 34ZM22 34L22 35L23 35L23 34ZM41 34L41 35L40 35L40 36L36 36L36 37L37 37L37 38L34 38L34 40L35 40L35 41L37 41L37 42L36 42L36 44L35 44L35 46L33 46L33 47L32 47L32 46L31 46L31 45L32 45L32 44L30 44L30 45L29 45L29 44L28 44L28 43L26 43L26 44L25 44L25 45L26 45L26 44L27 44L27 45L29 45L29 46L30 46L30 47L31 47L31 48L33 48L33 47L35 47L35 48L36 48L36 49L37 49L37 48L38 48L38 47L39 47L39 46L37 46L37 48L36 48L36 45L37 45L37 44L38 44L38 43L39 43L39 42L38 42L38 40L35 40L35 39L38 39L38 37L39 37L39 38L40 38L40 36L41 36L41 35L42 35L42 34ZM12 35L12 36L13 36L13 35ZM0 36L0 37L1 37L1 36ZM15 36L15 37L16 37L16 38L15 38L15 39L16 39L16 40L17 40L17 36ZM22 36L22 37L21 37L21 38L22 38L22 37L23 37L23 38L24 38L24 37L23 37L23 36ZM30 36L30 38L31 38L31 36ZM18 37L18 38L19 38L19 39L20 39L20 38L19 38L19 37ZM26 37L26 40L27 40L27 41L26 41L26 42L27 42L27 41L28 41L28 39L27 39L27 38L28 38L28 37ZM9 38L9 40L11 40L11 39L10 39L10 38ZM22 39L22 40L21 40L21 41L20 41L20 40L19 40L19 41L20 41L20 42L21 42L21 43L22 43L22 42L23 42L23 40L24 40L24 39ZM43 39L43 40L47 40L47 39ZM30 40L30 41L31 41L31 42L29 42L29 43L33 43L33 44L34 44L34 43L35 43L35 42L34 42L34 41L33 41L33 42L32 42L32 41L31 41L31 40ZM14 41L14 42L15 42L15 43L16 43L16 42L15 42L15 41ZM21 41L21 42L22 42L22 41ZM37 42L37 43L38 43L38 42ZM42 42L42 43L43 43L43 42ZM39 44L39 45L40 45L40 44ZM48 44L48 45L47 45L47 46L50 46L50 45L49 45L49 44ZM54 44L54 45L55 45L55 44ZM21 45L21 47L20 47L20 49L19 49L19 48L17 48L17 47L14 47L14 48L16 48L16 49L13 49L13 50L12 50L12 48L11 48L11 47L12 47L12 46L11 46L11 47L10 47L10 49L11 49L11 50L12 50L12 51L11 51L11 53L12 53L12 51L14 51L14 50L15 50L15 51L16 51L16 49L19 49L19 50L18 50L18 51L19 51L19 50L20 50L20 49L21 49L21 48L23 48L23 47L22 47L22 45ZM51 45L51 46L52 46L52 45ZM26 46L26 47L27 47L27 46ZM39 48L39 49L40 49L40 50L41 50L41 51L42 51L42 50L43 50L43 49L42 49L42 50L41 50L41 49L40 49L40 48ZM27 49L27 52L30 52L30 49ZM33 49L33 50L34 50L34 49ZM44 49L44 50L46 50L46 51L47 51L47 50L46 50L46 49ZM49 49L49 52L52 52L52 49ZM28 50L28 51L29 51L29 50ZM50 50L50 51L51 51L51 50ZM25 51L25 53L26 53L26 51ZM36 51L36 52L37 52L37 51ZM54 51L54 52L55 52L55 53L56 53L56 51ZM13 52L13 53L16 53L16 52ZM45 52L45 53L47 53L47 52ZM49 53L49 54L51 54L51 55L53 55L53 56L54 56L54 55L53 55L53 54L51 54L51 53ZM18 54L18 55L20 55L20 54ZM0 0L0 7L7 7L7 0ZM1 1L1 6L6 6L6 1ZM2 2L2 5L5 5L5 2ZM50 0L50 7L57 7L57 0ZM51 1L51 6L56 6L56 1ZM52 2L52 5L55 5L55 2ZM0 50L0 57L7 57L7 50ZM1 51L1 56L6 56L6 51ZM2 52L2 55L5 55L5 52Z" fill="#000000"/></g></g></svg>
