<?xml version="1.0" encoding="UTF-8"?>
<svg xmlns="http://www.w3.org/2000/svg" version="1.1" width="300" height="300" viewBox="0 0 300 300"><rect x="0" y="0" width="300" height="300" fill="#ffffff"/><g transform="scale(4.918)"><g transform="translate(2,2)"><path fill-rule="evenodd" d="M10 0L10 1L8 1L8 2L9 2L9 3L8 3L8 4L9 4L9 5L8 5L8 7L9 7L9 8L6 8L6 9L8 9L8 11L7 11L7 10L5 10L5 12L3 12L3 11L4 11L4 9L5 9L5 8L0 8L0 10L1 10L1 9L2 9L2 11L1 11L1 14L2 14L2 15L1 15L1 16L0 16L0 17L1 17L1 18L0 18L0 22L2 22L2 23L1 23L1 24L0 24L0 26L1 26L1 24L2 24L2 25L3 25L3 24L4 24L4 23L5 23L5 24L6 24L6 25L5 25L5 26L2 26L2 27L3 27L3 28L4 28L4 31L5 31L5 32L4 32L4 33L3 33L3 31L2 31L2 30L1 30L1 29L2 29L2 28L1 28L1 29L0 29L0 31L2 31L2 33L1 33L1 32L0 32L0 33L1 33L1 34L3 34L3 36L4 36L4 37L3 37L3 38L2 38L2 39L1 39L1 37L2 37L2 35L1 35L1 36L0 36L0 40L3 40L3 41L2 41L2 42L1 42L1 41L0 41L0 42L1 42L1 43L0 43L0 44L1 44L1 45L0 45L0 48L5 48L5 47L8 47L8 46L9 46L9 47L11 47L11 52L15 52L15 53L11 53L11 54L10 54L10 53L9 53L9 52L8 52L8 57L10 57L10 55L11 55L11 54L13 54L13 56L14 56L14 54L15 54L15 55L16 55L16 56L15 56L15 57L16 57L16 56L17 56L17 57L19 57L19 55L20 55L20 54L17 54L17 53L16 53L16 51L17 51L17 50L16 50L16 49L17 49L17 47L16 47L16 45L17 45L17 46L20 46L20 45L21 45L21 47L22 47L22 48L20 48L20 47L18 47L18 49L19 49L19 48L20 48L20 49L21 49L21 50L20 50L20 51L21 51L21 53L22 53L22 56L23 56L23 57L24 57L24 55L23 55L23 54L24 54L24 53L26 53L26 56L25 56L25 57L26 57L26 56L28 56L28 55L27 55L27 53L28 53L28 54L30 54L30 53L31 53L31 55L33 55L33 56L34 56L34 57L37 57L37 56L38 56L38 55L39 55L39 56L41 56L41 55L40 55L40 52L41 52L41 54L43 54L43 53L44 53L44 54L46 54L46 55L42 55L42 56L45 56L45 57L47 57L47 56L48 56L48 57L49 57L49 56L50 56L50 54L53 54L53 55L51 55L51 57L52 57L52 56L53 56L53 57L56 57L56 56L55 56L55 53L53 53L53 52L55 52L55 51L56 51L56 50L57 50L57 49L56 49L56 48L57 48L57 47L56 47L56 46L57 46L57 44L55 44L55 39L57 39L57 37L54 37L54 36L55 36L55 34L57 34L57 31L56 31L56 30L57 30L57 27L53 27L53 26L52 26L52 25L51 25L51 26L49 26L49 25L48 25L48 24L49 24L49 22L50 22L50 24L54 24L54 26L57 26L57 25L56 25L56 22L57 22L57 21L54 21L54 20L55 20L55 19L56 19L56 18L57 18L57 17L56 17L56 18L55 18L55 17L53 17L53 18L54 18L54 19L52 19L52 17L51 17L51 16L48 16L48 17L47 17L47 16L46 16L46 15L49 15L49 13L47 13L47 14L46 14L46 12L45 12L45 11L46 11L46 10L44 10L44 11L43 11L43 9L41 9L41 10L39 10L39 11L37 11L37 10L38 10L38 7L39 7L39 8L41 8L41 6L42 6L42 8L46 8L46 7L47 7L47 5L48 5L48 0L46 0L46 1L47 1L47 2L44 2L44 1L45 1L45 0L44 0L44 1L43 1L43 0L42 0L42 1L40 1L40 0L39 0L39 1L37 1L37 0L35 0L35 1L34 1L34 0L32 0L32 1L31 1L31 0L30 0L30 1L29 1L29 0L28 0L28 2L27 2L27 3L29 3L29 4L26 4L26 3L25 3L25 2L24 2L24 1L26 1L26 0L21 0L21 1L23 1L23 2L24 2L24 3L23 3L23 4L22 4L22 2L20 2L20 3L21 3L21 4L19 4L19 1L20 1L20 0L19 0L19 1L16 1L16 0L13 0L13 1L12 1L12 0ZM10 1L10 3L9 3L9 4L12 4L12 5L11 5L11 9L10 9L10 8L9 8L9 9L10 9L10 10L9 10L9 12L7 12L7 11L6 11L6 12L5 12L5 13L6 13L6 14L7 14L7 13L10 13L10 15L9 15L9 14L8 14L8 15L5 15L5 14L4 14L4 15L5 15L5 16L3 16L3 15L2 15L2 16L1 16L1 17L2 17L2 16L3 16L3 18L4 18L4 19L2 19L2 18L1 18L1 19L2 19L2 20L1 20L1 21L3 21L3 20L5 20L5 18L4 18L4 17L5 17L5 16L7 16L7 17L6 17L6 18L7 18L7 19L6 19L6 20L7 20L7 21L5 21L5 23L6 23L6 24L7 24L7 25L6 25L6 26L7 26L7 25L8 25L8 26L9 26L9 28L10 28L10 26L11 26L11 24L12 24L12 23L11 23L11 24L10 24L10 26L9 26L9 25L8 25L8 24L9 24L9 23L6 23L6 22L7 22L7 21L8 21L8 20L10 20L10 21L9 21L9 22L11 22L11 21L12 21L12 22L13 22L13 21L14 21L14 23L13 23L13 24L14 24L14 27L15 27L15 28L14 28L14 30L13 30L13 28L12 28L12 30L13 30L13 31L11 31L11 32L12 32L12 33L11 33L11 34L9 34L9 35L10 35L10 37L9 37L9 38L8 38L8 39L5 39L5 38L4 38L4 39L3 39L3 40L8 40L8 41L6 41L6 42L7 42L7 43L6 43L6 44L3 44L3 43L4 43L4 42L2 42L2 43L1 43L1 44L2 44L2 45L1 45L1 47L2 47L2 46L3 46L3 47L5 47L5 45L6 45L6 46L8 46L8 44L7 44L7 43L10 43L10 42L11 42L11 41L13 41L13 42L12 42L12 43L11 43L11 44L10 44L10 46L11 46L11 45L13 45L13 46L14 46L14 47L12 47L12 51L13 51L13 50L14 50L14 51L15 51L15 50L14 50L14 48L15 48L15 49L16 49L16 47L15 47L15 46L14 46L14 45L13 45L13 44L15 44L15 43L16 43L16 44L17 44L17 45L18 45L18 44L17 44L17 43L18 43L18 41L16 41L16 40L17 40L17 39L20 39L20 38L19 38L19 37L23 37L23 38L24 38L24 37L23 37L23 36L24 36L24 35L23 35L23 34L22 34L22 33L25 33L25 34L26 34L26 33L27 33L27 35L25 35L25 40L24 40L24 39L22 39L22 38L21 38L21 39L22 39L22 41L23 41L23 40L24 40L24 41L25 41L25 44L24 44L24 45L22 45L22 44L21 44L21 45L22 45L22 47L25 47L25 48L22 48L22 49L25 49L25 50L26 50L26 48L27 48L27 47L30 47L30 48L31 48L31 49L32 49L32 50L31 50L31 52L32 52L32 54L33 54L33 52L34 52L34 54L37 54L37 55L38 55L38 54L39 54L39 53L38 53L38 54L37 54L37 53L35 53L35 52L36 52L36 50L40 50L40 51L38 51L38 52L40 52L40 51L41 51L41 52L42 52L42 53L43 53L43 50L44 50L44 53L45 53L45 51L46 51L46 50L47 50L47 51L48 51L48 48L50 48L50 47L51 47L51 46L52 46L52 48L54 48L54 49L53 49L53 51L55 51L55 50L56 50L56 49L55 49L55 48L54 48L54 47L55 47L55 46L56 46L56 45L55 45L55 44L54 44L54 45L55 45L55 46L54 46L54 47L53 47L53 45L51 45L51 44L53 44L53 43L54 43L54 41L52 41L52 42L50 42L50 43L51 43L51 44L50 44L50 45L49 45L49 44L47 44L47 45L46 45L46 46L47 46L47 48L44 48L44 47L45 47L45 46L44 46L44 45L45 45L45 43L49 43L49 41L51 41L51 40L53 40L53 39L55 39L55 38L54 38L54 37L52 37L52 34L53 34L53 33L51 33L51 32L54 32L54 33L55 33L55 32L56 32L56 31L55 31L55 32L54 32L54 31L51 31L51 32L49 32L49 31L48 31L48 27L47 27L47 26L48 26L48 25L45 25L45 24L47 24L47 21L48 21L48 20L43 20L43 19L46 19L46 18L47 18L47 17L46 17L46 18L44 18L44 17L45 17L45 16L44 16L44 15L43 15L43 14L42 14L42 10L41 10L41 11L40 11L40 12L38 12L38 13L33 13L33 11L31 11L31 12L30 12L30 10L29 10L29 9L28 9L28 10L27 10L27 9L25 9L25 8L26 8L26 4L25 4L25 8L24 8L24 6L23 6L23 7L22 7L22 6L21 6L21 8L19 8L19 9L20 9L20 10L21 10L21 11L19 11L19 13L20 13L20 14L21 14L21 15L19 15L19 17L18 17L18 18L17 18L17 17L15 17L15 16L14 16L14 14L15 14L15 15L16 15L16 16L17 16L17 15L18 15L18 14L17 14L17 13L18 13L18 12L17 12L17 13L12 13L12 10L15 10L15 11L18 11L18 9L16 9L16 8L17 8L17 7L18 7L18 6L19 6L19 7L20 7L20 5L19 5L19 4L18 4L18 3L17 3L17 2L14 2L14 1L13 1L13 2L12 2L12 1ZM30 1L30 2L31 2L31 1ZM32 1L32 2L33 2L33 3L32 3L32 4L31 4L31 3L30 3L30 4L31 4L31 9L32 9L32 10L37 10L37 9L34 9L34 6L35 6L35 8L37 8L37 7L38 7L38 5L39 5L39 4L38 4L38 3L39 3L39 2L36 2L36 1L35 1L35 2L34 2L34 1ZM42 1L42 2L43 2L43 1ZM11 2L11 3L12 3L12 2ZM13 2L13 4L14 4L14 5L13 5L13 6L12 6L12 7L13 7L13 6L14 6L14 7L15 7L15 8L16 8L16 7L17 7L17 6L18 6L18 4L17 4L17 6L16 6L16 7L15 7L15 6L14 6L14 5L16 5L16 4L14 4L14 2ZM33 3L33 4L34 4L34 3ZM36 3L36 5L35 5L35 6L36 6L36 7L37 7L37 6L36 6L36 5L38 5L38 4L37 4L37 3ZM40 3L40 5L42 5L42 6L43 6L43 7L44 7L44 6L45 6L45 7L46 7L46 6L45 6L45 5L44 5L44 4L46 4L46 5L47 5L47 3L42 3L42 4L41 4L41 3ZM21 4L21 5L22 5L22 4ZM23 4L23 5L24 5L24 4ZM42 4L42 5L43 5L43 4ZM9 5L9 7L10 7L10 5ZM27 5L27 8L30 8L30 5ZM28 6L28 7L29 7L29 6ZM32 6L32 8L33 8L33 6ZM39 6L39 7L40 7L40 6ZM48 6L48 8L49 8L49 9L47 9L47 10L48 10L48 11L47 11L47 12L49 12L49 11L50 11L50 13L51 13L51 14L50 14L50 15L51 15L51 14L52 14L52 13L51 13L51 10L49 10L49 9L50 9L50 8L49 8L49 6ZM12 8L12 9L11 9L11 10L12 10L12 9L14 9L14 8ZM23 8L23 9L24 9L24 10L22 10L22 9L21 9L21 10L22 10L22 11L21 11L21 12L20 12L20 13L21 13L21 14L22 14L22 13L23 13L23 15L24 15L24 16L23 16L23 17L21 17L21 16L22 16L22 15L21 15L21 16L20 16L20 17L19 17L19 18L18 18L18 20L17 20L17 21L16 21L16 19L17 19L17 18L15 18L15 21L16 21L16 22L15 22L15 23L14 23L14 24L15 24L15 23L16 23L16 25L15 25L15 27L16 27L16 25L19 25L19 27L22 27L22 26L20 26L20 25L21 25L21 24L20 24L20 25L19 25L19 23L20 23L20 22L18 22L18 23L17 23L17 21L20 21L20 20L19 20L19 18L20 18L20 19L21 19L21 20L22 20L22 19L21 19L21 18L23 18L23 19L24 19L24 21L21 21L21 22L22 22L22 23L23 23L23 25L24 25L24 27L26 27L26 30L25 30L25 29L23 29L23 30L25 30L25 31L24 31L24 32L25 32L25 33L26 33L26 32L25 32L25 31L31 31L31 30L33 30L33 31L32 31L32 32L31 32L31 33L30 33L30 32L27 32L27 33L29 33L29 34L30 34L30 36L29 36L29 39L31 39L31 38L32 38L32 35L31 35L31 34L32 34L32 32L33 32L33 33L37 33L37 34L36 34L36 35L37 35L37 36L36 36L36 38L35 38L35 39L32 39L32 40L30 40L30 41L29 41L29 42L30 42L30 43L26 43L26 44L25 44L25 45L24 45L24 46L25 46L25 47L27 47L27 46L25 46L25 45L26 45L26 44L27 44L27 45L31 45L31 46L30 46L30 47L31 47L31 48L34 48L34 47L35 47L35 46L33 46L33 45L32 45L32 44L34 44L34 42L33 42L33 41L32 41L32 40L35 40L35 41L37 41L37 43L38 43L38 41L40 41L40 40L41 40L41 42L39 42L39 44L38 44L38 45L37 45L37 44L36 44L36 42L35 42L35 45L37 45L37 46L38 46L38 45L39 45L39 44L40 44L40 43L41 43L41 44L43 44L43 45L42 45L42 46L41 46L41 45L40 45L40 46L39 46L39 47L40 47L40 48L39 48L39 49L40 49L40 48L43 48L43 49L41 49L41 50L43 50L43 49L44 49L44 48L43 48L43 47L42 47L42 46L43 46L43 45L44 45L44 40L43 40L43 41L42 41L42 40L41 40L41 39L40 39L40 38L38 38L38 37L37 37L37 36L38 36L38 35L39 35L39 34L40 34L40 33L39 33L39 34L38 34L38 32L41 32L41 31L42 31L42 30L43 30L43 29L44 29L44 32L42 32L42 34L41 34L41 35L40 35L40 36L39 36L39 37L40 37L40 36L41 36L41 35L42 35L42 34L43 34L43 37L41 37L41 38L43 38L43 37L44 37L44 38L45 38L45 39L46 39L46 38L45 38L45 37L44 37L44 34L43 34L43 33L44 33L44 32L45 32L45 34L46 34L46 35L45 35L45 36L46 36L46 35L50 35L50 34L51 34L51 33L50 33L50 34L48 34L48 33L47 33L47 34L46 34L46 32L45 32L45 30L46 30L46 31L47 31L47 32L48 32L48 31L47 31L47 30L46 30L46 29L47 29L47 28L46 28L46 26L45 26L45 27L44 27L44 26L43 26L43 25L44 25L44 23L46 23L46 22L45 22L45 21L44 21L44 23L43 23L43 20L42 20L42 21L40 21L40 20L41 20L41 19L42 19L42 18L43 18L43 17L44 17L44 16L43 16L43 15L42 15L42 14L41 14L41 13L40 13L40 14L37 14L37 15L38 15L38 16L36 16L36 15L35 15L35 14L32 14L32 15L30 15L30 14L31 14L31 13L32 13L32 12L31 12L31 13L28 13L28 12L29 12L29 11L27 11L27 10L26 10L26 11L27 11L27 12L25 12L25 11L24 11L24 10L25 10L25 9L24 9L24 8ZM51 8L51 9L52 9L52 8ZM53 8L53 9L54 9L54 8ZM55 8L55 11L54 11L54 10L53 10L53 11L52 11L52 12L53 12L53 11L54 11L54 12L55 12L55 11L56 11L56 10L57 10L57 9L56 9L56 8ZM15 9L15 10L16 10L16 9ZM13 11L13 12L14 12L14 11ZM23 11L23 13L25 13L25 12L24 12L24 11ZM34 11L34 12L36 12L36 11ZM2 12L2 14L3 14L3 12ZM6 12L6 13L7 13L7 12ZM10 12L10 13L11 13L11 12ZM21 12L21 13L22 13L22 12ZM44 12L44 14L45 14L45 12ZM26 13L26 14L24 14L24 15L26 15L26 16L24 16L24 17L26 17L26 16L27 16L27 17L28 17L28 16L29 16L29 17L34 17L34 18L29 18L29 19L34 19L34 20L32 20L32 21L33 21L33 22L35 22L35 23L34 23L34 24L31 24L31 22L29 22L29 20L28 20L28 22L27 22L27 24L25 24L25 23L26 23L26 22L25 22L25 21L24 21L24 22L23 22L23 23L24 23L24 25L25 25L25 26L26 26L26 25L27 25L27 24L28 24L28 25L29 25L29 24L28 24L28 22L29 22L29 23L30 23L30 24L31 24L31 25L33 25L33 26L32 26L32 29L33 29L33 30L35 30L35 31L34 31L34 32L38 32L38 31L36 31L36 30L35 30L35 29L33 29L33 28L34 28L34 26L35 26L35 27L36 27L36 28L37 28L37 30L40 30L40 31L41 31L41 30L42 30L42 29L43 29L43 28L44 28L44 29L45 29L45 28L44 28L44 27L43 27L43 26L42 26L42 25L43 25L43 23L42 23L42 22L40 22L40 23L42 23L42 25L41 25L41 24L39 24L39 23L38 23L38 24L39 24L39 25L38 25L38 26L37 26L37 27L36 27L36 26L35 26L35 25L34 25L34 24L36 24L36 22L37 22L37 21L36 21L36 20L38 20L38 22L39 22L39 20L40 20L40 19L41 19L41 18L42 18L42 17L43 17L43 16L42 16L42 15L41 15L41 14L40 14L40 15L39 15L39 16L38 16L38 17L36 17L36 16L35 16L35 15L34 15L34 16L30 16L30 15L28 15L28 16L27 16L27 15L26 15L26 14L28 14L28 13ZM54 13L54 14L55 14L55 15L53 15L53 16L56 16L56 14L57 14L57 13ZM11 14L11 15L10 15L10 17L9 17L9 18L8 18L8 17L7 17L7 18L8 18L8 19L10 19L10 20L12 20L12 21L13 21L13 20L14 20L14 19L13 19L13 18L14 18L14 16L12 16L12 17L11 17L11 15L13 15L13 14ZM16 14L16 15L17 15L17 14ZM8 15L8 16L9 16L9 15ZM40 15L40 16L39 16L39 18L34 18L34 19L38 19L38 20L39 20L39 19L40 19L40 18L41 18L41 17L40 17L40 16L41 16L41 15ZM34 16L34 17L35 17L35 16ZM20 17L20 18L21 18L21 17ZM50 17L50 18L48 18L48 19L50 19L50 22L51 22L51 20L52 20L52 21L53 21L53 22L52 22L52 23L53 23L53 22L54 22L54 23L55 23L55 22L54 22L54 21L53 21L53 20L52 20L52 19L50 19L50 18L51 18L51 17ZM25 18L25 20L27 20L27 19L28 19L28 18L27 18L27 19L26 19L26 18ZM30 20L30 21L31 21L31 20ZM3 22L3 23L4 23L4 22ZM39 25L39 26L38 26L38 28L39 28L39 27L40 27L40 26L41 26L41 25ZM12 26L12 27L13 27L13 26ZM17 26L17 27L18 27L18 26ZM5 27L5 30L8 30L8 27ZM27 27L27 30L30 30L30 27ZM42 27L42 28L43 28L43 27ZM49 27L49 30L52 30L52 27ZM6 28L6 29L7 29L7 28ZM16 28L16 29L18 29L18 31L17 31L17 30L14 30L14 33L15 33L15 34L14 34L14 35L13 35L13 34L11 34L11 38L9 38L9 41L8 41L8 42L10 42L10 41L11 41L11 40L12 40L12 39L13 39L13 38L14 38L14 39L15 39L15 40L14 40L14 43L15 43L15 42L16 42L16 41L15 41L15 40L16 40L16 39L15 39L15 38L16 38L16 37L15 37L15 36L17 36L17 35L18 35L18 37L19 37L19 36L22 36L22 35L19 35L19 34L16 34L16 33L19 33L19 32L18 32L18 31L19 31L19 29L22 29L22 28L19 28L19 29L18 29L18 28ZM28 28L28 29L29 29L29 28ZM50 28L50 29L51 29L51 28ZM54 28L54 29L55 29L55 30L56 30L56 29L55 29L55 28ZM9 29L9 30L11 30L11 29ZM20 30L20 31L22 31L22 30ZM6 31L6 32L7 32L7 31ZM16 31L16 32L17 32L17 31ZM20 32L20 33L21 33L21 32ZM5 33L5 34L4 34L4 36L5 36L5 37L6 37L6 38L7 38L7 37L8 37L8 36L7 36L7 35L8 35L8 33ZM5 34L5 36L6 36L6 37L7 37L7 36L6 36L6 35L7 35L7 34ZM33 34L33 37L35 37L35 34ZM37 34L37 35L38 35L38 34ZM12 35L12 38L13 38L13 37L14 37L14 36L15 36L15 35L14 35L14 36L13 36L13 35ZM56 35L56 36L57 36L57 35ZM30 36L30 38L31 38L31 36ZM49 36L49 37L47 37L47 38L49 38L49 40L51 40L51 39L53 39L53 38L52 38L52 37L50 37L50 36ZM26 37L26 40L28 40L28 39L27 39L27 38L28 38L28 37ZM37 38L37 39L38 39L38 38ZM50 38L50 39L51 39L51 38ZM10 39L10 40L11 40L11 39ZM39 39L39 40L40 40L40 39ZM37 40L37 41L38 41L38 40ZM46 40L46 41L47 41L47 40ZM19 41L19 42L21 42L21 43L22 43L22 42L21 42L21 41ZM26 41L26 42L27 42L27 41ZM31 41L31 42L32 42L32 41ZM56 41L56 42L57 42L57 41ZM42 42L42 43L43 43L43 42ZM12 43L12 44L13 44L13 43ZM30 43L30 44L32 44L32 43ZM6 44L6 45L7 45L7 44ZM19 44L19 45L20 45L20 44ZM48 45L48 46L49 46L49 47L50 47L50 46L51 46L51 45L50 45L50 46L49 46L49 45ZM6 48L6 49L8 49L8 51L9 51L9 48ZM35 48L35 50L34 50L34 49L33 49L33 50L32 50L32 52L33 52L33 50L34 50L34 52L35 52L35 50L36 50L36 49L38 49L38 48ZM27 49L27 52L30 52L30 49ZM45 49L45 50L46 50L46 49ZM49 49L49 52L52 52L52 49ZM54 49L54 50L55 50L55 49ZM18 50L18 51L19 51L19 50ZM22 50L22 51L24 51L24 50ZM28 50L28 51L29 51L29 50ZM50 50L50 51L51 51L51 50ZM25 51L25 52L26 52L26 51ZM18 52L18 53L20 53L20 52ZM22 52L22 53L24 53L24 52ZM46 52L46 54L47 54L47 53L48 53L48 52ZM15 53L15 54L16 54L16 53ZM9 54L9 55L10 55L10 54ZM29 55L29 56L30 56L30 57L32 57L32 56L30 56L30 55ZM34 55L34 56L36 56L36 55ZM48 55L48 56L49 56L49 55ZM11 56L11 57L12 57L12 56ZM0 0L0 7L7 7L7 0ZM1 1L1 6L6 6L6 1ZM2 2L2 5L5 5L5 2ZM50 0L50 7L57 7L57 0ZM51 1L51 6L56 6L56 1ZM52 2L52 5L55 5L55 2ZM0 50L0 57L7 57L7 50ZM1 51L1 56L6 56L6 51ZM2 52L2 55L5 55L5 52Z" fill="#000000"/></g></g></svg>
