<?xml version="1.0" encoding="UTF-8"?>
<svg xmlns="http://www.w3.org/2000/svg" version="1.1" width="300" height="300" viewBox="0 0 300 300"><rect x="0" y="0" width="300" height="300" fill="#ffffff"/><g transform="scale(8.108)"><g transform="translate(2,2)"><path fill-rule="evenodd" d="M11 0L11 2L10 2L10 1L8 1L8 3L9 3L9 2L10 2L10 3L11 3L11 4L8 4L8 8L6 8L6 9L5 9L5 10L4 10L4 11L3 11L3 10L2 10L2 8L0 8L0 11L1 11L1 10L2 10L2 11L3 11L3 13L2 13L2 12L0 12L0 13L2 13L2 14L0 14L0 15L1 15L1 16L0 16L0 18L1 18L1 19L0 19L0 20L1 20L1 21L2 21L2 22L0 22L0 23L1 23L1 24L0 24L0 25L1 25L1 24L2 24L2 25L4 25L4 24L3 24L3 23L5 23L5 22L6 22L6 23L8 23L8 24L5 24L5 25L8 25L8 27L9 27L9 28L10 28L10 29L11 29L11 30L12 30L12 32L9 32L9 31L10 31L10 30L9 30L9 29L8 29L8 30L9 30L9 31L8 31L8 33L12 33L12 32L13 32L13 33L14 33L14 32L13 32L13 31L15 31L15 32L16 32L16 33L17 33L17 32L18 32L18 29L19 29L19 27L18 27L18 24L19 24L19 26L21 26L21 30L20 30L20 31L19 31L19 33L20 33L20 32L21 32L21 33L22 33L22 31L21 31L21 30L22 30L22 29L23 29L23 25L22 25L22 24L23 24L23 23L20 23L20 22L22 22L22 19L20 19L20 20L21 20L21 21L20 21L20 22L19 22L19 23L18 23L18 24L17 24L17 23L16 23L16 24L17 24L17 27L15 27L15 28L14 28L14 27L13 27L13 26L9 26L9 25L11 25L11 22L10 22L10 19L7 19L7 18L6 18L6 19L7 19L7 20L5 20L5 18L4 18L4 16L5 16L5 17L8 17L8 16L10 16L10 17L9 17L9 18L12 18L12 19L15 19L15 18L12 18L12 14L11 14L11 13L13 13L13 12L14 12L14 11L12 11L12 12L11 12L11 13L10 13L10 14L9 14L9 12L8 12L8 13L7 13L7 12L5 12L5 11L7 11L7 10L8 10L8 8L10 8L10 9L12 9L12 8L13 8L13 9L14 9L14 8L15 8L15 6L16 6L16 8L18 8L18 9L19 9L19 8L21 8L21 9L20 9L20 10L19 10L19 11L18 11L18 12L17 12L17 9L16 9L16 11L15 11L15 12L16 12L16 13L17 13L17 14L16 14L16 18L17 18L17 20L15 20L15 21L14 21L14 20L13 20L13 22L12 22L12 24L13 24L13 25L14 25L14 26L15 26L15 21L17 21L17 22L18 22L18 21L17 21L17 20L18 20L18 19L19 19L19 17L18 17L18 15L17 15L17 14L18 14L18 12L19 12L19 14L21 14L21 13L22 13L22 14L23 14L23 15L20 15L20 18L21 18L21 17L23 17L23 18L25 18L25 17L23 17L23 16L26 16L26 17L27 17L27 16L26 16L26 15L27 15L27 11L28 11L28 10L27 10L27 9L29 9L29 11L30 11L30 9L32 9L32 11L31 11L31 12L32 12L32 13L30 13L30 12L29 12L29 13L28 13L28 17L29 17L29 18L28 18L28 19L29 19L29 21L30 21L30 22L29 22L29 24L28 24L28 22L27 22L27 21L24 21L24 20L23 20L23 21L24 21L24 22L27 22L27 23L26 23L26 24L25 24L25 23L24 23L24 33L25 33L25 32L26 32L26 33L27 33L27 32L28 32L28 33L29 33L29 32L28 32L28 31L33 31L33 29L31 29L31 30L29 30L29 27L32 27L32 26L33 26L33 25L32 25L32 26L30 26L30 22L31 22L31 21L32 21L32 23L31 23L31 24L33 24L33 21L32 21L32 20L31 20L31 21L30 21L30 18L31 18L31 19L33 19L33 18L31 18L31 17L29 17L29 16L30 16L30 14L31 14L31 16L32 16L32 17L33 17L33 16L32 16L32 14L33 14L33 9L32 9L32 8L30 8L30 9L29 9L29 8L26 8L26 9L25 9L25 8L24 8L24 7L25 7L25 5L24 5L24 4L25 4L25 3L24 3L24 0L21 0L21 2L23 2L23 3L22 3L22 7L21 7L21 6L20 6L20 5L19 5L19 4L21 4L21 3L20 3L20 2L19 2L19 1L20 1L20 0L17 0L17 1L18 1L18 2L16 2L16 0L14 0L14 1L13 1L13 0ZM12 1L12 4L11 4L11 5L10 5L10 6L9 6L9 7L10 7L10 6L11 6L11 7L12 7L12 6L13 6L13 8L14 8L14 6L13 6L13 5L15 5L15 4L18 4L18 3L19 3L19 2L18 2L18 3L16 3L16 2L13 2L13 1ZM14 3L14 4L15 4L15 3ZM16 5L16 6L17 6L17 7L18 7L18 6L19 6L19 7L20 7L20 6L19 6L19 5L18 5L18 6L17 6L17 5ZM23 5L23 7L24 7L24 5ZM3 8L3 9L4 9L4 8ZM22 8L22 10L21 10L21 11L19 11L19 12L21 12L21 11L22 11L22 10L23 10L23 11L24 11L24 12L23 12L23 14L24 14L24 13L25 13L25 14L26 14L26 13L25 13L25 11L27 11L27 10L25 10L25 11L24 11L24 9L23 9L23 8ZM6 9L6 10L7 10L7 9ZM9 10L9 11L11 11L11 10ZM4 12L4 13L3 13L3 14L2 14L2 15L6 15L6 16L7 16L7 15L6 15L6 14L7 14L7 13L5 13L5 12ZM14 13L14 14L13 14L13 17L14 17L14 14L15 14L15 13ZM8 14L8 15L9 15L9 14ZM10 14L10 16L11 16L11 14ZM2 16L2 17L1 17L1 18L2 18L2 19L1 19L1 20L3 20L3 19L4 19L4 18L3 18L3 16ZM17 17L17 18L18 18L18 17ZM25 19L25 20L26 20L26 19ZM7 20L7 21L6 21L6 22L8 22L8 23L9 23L9 22L8 22L8 20ZM11 20L11 21L12 21L12 20ZM13 22L13 23L14 23L14 22ZM21 25L21 26L22 26L22 25ZM25 25L25 28L28 28L28 25ZM26 26L26 27L27 27L27 26ZM10 27L10 28L11 28L11 29L12 29L12 30L13 30L13 29L14 29L14 30L15 30L15 31L16 31L16 32L17 32L17 31L16 31L16 29L17 29L17 28L15 28L15 29L14 29L14 28L13 28L13 27L12 27L12 28L11 28L11 27ZM25 29L25 31L26 31L26 32L27 32L27 30L26 30L26 29ZM31 32L31 33L32 33L32 32ZM0 0L0 7L7 7L7 0ZM1 1L1 6L6 6L6 1ZM2 2L2 5L5 5L5 2ZM26 0L26 7L33 7L33 0ZM27 1L27 6L32 6L32 1ZM28 2L28 5L31 5L31 2ZM0 26L0 33L7 33L7 26ZM1 27L1 32L6 32L6 27ZM2 28L2 31L5 31L5 28Z" fill="#000000"/></g></g></svg>
