<?xml version="1.0" encoding="UTF-8"?>
<svg xmlns="http://www.w3.org/2000/svg" version="1.1" width="300" height="300" viewBox="0 0 300 300"><rect x="0" y="0" width="300" height="300" fill="#ffffff"/><g transform="scale(4.918)"><g transform="translate(2,2)"><path fill-rule="evenodd" d="M11 0L11 1L10 1L10 2L9 2L9 1L8 1L8 2L9 2L9 3L8 3L8 4L9 4L9 3L10 3L10 4L11 4L11 6L10 6L10 5L8 5L8 7L9 7L9 6L10 6L10 7L11 7L11 8L10 8L10 9L9 9L9 8L6 8L6 9L5 9L5 8L0 8L0 11L2 11L2 10L1 10L1 9L3 9L3 10L4 10L4 11L3 11L3 12L1 12L1 13L2 13L2 14L1 14L1 16L0 16L0 19L1 19L1 16L2 16L2 17L4 17L4 16L6 16L6 17L7 17L7 16L8 16L8 15L10 15L10 16L9 16L9 18L11 18L11 13L10 13L10 14L9 14L9 13L7 13L7 12L5 12L5 13L4 13L4 14L3 14L3 12L4 12L4 11L5 11L5 10L6 10L6 11L7 11L7 10L8 10L8 11L9 11L9 12L11 12L11 11L12 11L12 9L13 9L13 11L14 11L14 12L12 12L12 13L15 13L15 12L16 12L16 13L17 13L17 14L15 14L15 15L14 15L14 14L12 14L12 15L14 15L14 16L13 16L13 18L12 18L12 19L11 19L11 20L10 20L10 21L11 21L11 20L12 20L12 22L11 22L11 23L10 23L10 22L9 22L9 21L8 21L8 20L9 20L9 19L8 19L8 18L5 18L5 19L8 19L8 20L6 20L6 21L7 21L7 22L5 22L5 23L7 23L7 24L6 24L6 25L7 25L7 26L4 26L4 28L1 28L1 27L3 27L3 25L4 25L4 21L5 21L5 20L3 20L3 19L4 19L4 18L3 18L3 19L2 19L2 20L1 20L1 21L0 21L0 22L1 22L1 23L3 23L3 25L0 25L0 31L1 31L1 32L0 32L0 36L2 36L2 34L3 34L3 37L2 37L2 40L1 40L1 41L2 41L2 42L1 42L1 43L2 43L2 45L3 45L3 46L2 46L2 47L1 47L1 45L0 45L0 48L5 48L5 47L7 47L7 48L6 48L6 49L8 49L8 51L9 51L9 49L8 49L8 48L10 48L10 52L11 52L11 49L14 49L14 48L12 48L12 47L13 47L13 45L14 45L14 44L15 44L15 52L14 52L14 51L13 51L13 50L12 50L12 53L11 53L11 55L12 55L12 53L13 53L13 56L14 56L14 57L15 57L15 55L16 55L16 57L17 57L17 55L20 55L20 54L17 54L17 53L16 53L16 52L18 52L18 53L20 53L20 52L21 52L21 51L22 51L22 52L23 52L23 51L22 51L22 49L21 49L21 48L20 48L20 47L19 47L19 46L20 46L20 45L21 45L21 47L22 47L22 48L23 48L23 50L26 50L26 52L25 52L25 51L24 51L24 53L21 53L21 55L22 55L22 54L24 54L24 53L26 53L26 54L27 54L27 53L28 53L28 54L30 54L30 53L31 53L31 56L30 56L30 55L29 55L29 56L30 56L30 57L31 57L31 56L33 56L33 54L34 54L34 56L35 56L35 57L39 57L39 56L41 56L41 55L42 55L42 54L43 54L43 53L44 53L44 54L45 54L45 55L44 55L44 56L43 56L43 57L44 57L44 56L47 56L47 57L49 57L49 56L50 56L50 55L51 55L51 57L52 57L52 56L55 56L55 57L56 57L56 56L55 56L55 55L51 55L51 54L55 54L55 53L56 53L56 52L55 52L55 51L56 51L56 50L57 50L57 48L56 48L56 46L57 46L57 45L56 45L56 43L55 43L55 42L57 42L57 41L55 41L55 39L57 39L57 37L54 37L54 36L57 36L57 35L55 35L55 34L57 34L57 33L56 33L56 32L57 32L57 31L56 31L56 30L57 30L57 29L56 29L56 26L55 26L55 24L57 24L57 23L56 23L56 22L57 22L57 21L56 21L56 20L57 20L57 19L55 19L55 18L57 18L57 15L56 15L56 14L57 14L57 13L56 13L56 14L55 14L55 13L53 13L53 15L52 15L52 16L51 16L51 17L52 17L52 18L49 18L49 17L50 17L50 15L51 15L51 14L52 14L52 13L51 13L51 12L50 12L50 13L51 13L51 14L49 14L49 13L47 13L47 14L46 14L46 12L45 12L45 11L46 11L46 10L43 10L43 9L42 9L42 7L43 7L43 4L42 4L42 3L47 3L47 5L46 5L46 4L44 4L44 5L45 5L45 6L44 6L44 8L45 8L45 9L46 9L46 8L47 8L47 9L48 9L48 12L49 12L49 11L52 11L52 12L53 12L53 11L54 11L54 12L56 12L56 10L57 10L57 9L56 9L56 8L55 8L55 9L56 9L56 10L55 10L55 11L54 11L54 10L53 10L53 9L54 9L54 8L53 8L53 9L52 9L52 8L51 8L51 9L52 9L52 10L49 10L49 9L50 9L50 8L49 8L49 6L48 6L48 8L47 8L47 5L48 5L48 0L45 0L45 1L47 1L47 2L42 2L42 3L41 3L41 2L40 2L40 1L38 1L38 0L36 0L36 1L38 1L38 2L37 2L37 3L36 3L36 5L35 5L35 6L34 6L34 7L33 7L33 6L32 6L32 7L33 7L33 10L32 10L32 9L31 9L31 4L32 4L32 3L33 3L33 4L34 4L34 3L35 3L35 1L34 1L34 0L33 0L33 1L34 1L34 2L32 2L32 0L30 0L30 1L29 1L29 2L28 2L28 1L25 1L25 0L23 0L23 2L24 2L24 3L23 3L23 4L19 4L19 1L20 1L20 2L21 2L21 1L22 1L22 0L21 0L21 1L20 1L20 0L19 0L19 1L16 1L16 0ZM41 0L41 1L44 1L44 0ZM11 1L11 2L10 2L10 3L13 3L13 2L15 2L15 1L13 1L13 2L12 2L12 1ZM30 1L30 2L29 2L29 3L27 3L27 2L25 2L25 3L26 3L26 4L25 4L25 8L26 8L26 4L29 4L29 3L30 3L30 2L31 2L31 1ZM16 2L16 3L14 3L14 4L12 4L12 6L11 6L11 7L12 7L12 6L13 6L13 8L14 8L14 9L16 9L16 10L15 10L15 11L16 11L16 12L17 12L17 13L18 13L18 12L17 12L17 11L18 11L18 9L16 9L16 8L17 8L17 7L18 7L18 6L19 6L19 7L20 7L20 5L19 5L19 4L17 4L17 3L18 3L18 2ZM38 2L38 3L37 3L37 5L36 5L36 6L35 6L35 8L37 8L37 7L38 7L38 10L36 10L36 9L34 9L34 10L33 10L33 11L34 11L34 12L35 12L35 13L33 13L33 12L32 12L32 13L31 13L31 10L29 10L29 9L25 9L25 10L23 10L23 12L24 12L24 13L22 13L22 12L21 12L21 11L22 11L22 10L21 10L21 9L24 9L24 6L23 6L23 5L24 5L24 4L23 4L23 5L22 5L22 6L21 6L21 7L22 7L22 6L23 6L23 8L21 8L21 9L20 9L20 8L19 8L19 9L20 9L20 11L19 11L19 13L20 13L20 14L17 14L17 15L16 15L16 16L18 16L18 15L19 15L19 17L16 17L16 18L17 18L17 19L18 19L18 18L19 18L19 19L21 19L21 17L20 17L20 16L21 16L21 15L22 15L22 17L24 17L24 16L23 16L23 15L24 15L24 13L25 13L25 12L27 12L27 11L26 11L26 10L28 10L28 11L30 11L30 12L28 12L28 13L26 13L26 15L25 15L25 16L27 16L27 17L26 17L26 18L25 18L25 19L26 19L26 21L27 21L27 24L25 24L25 23L26 23L26 22L25 22L25 21L24 21L24 20L22 20L22 21L21 21L21 20L20 20L20 21L18 21L18 20L16 20L16 21L15 21L15 16L14 16L14 18L13 18L13 19L14 19L14 20L13 20L13 21L14 21L14 22L13 22L13 23L14 23L14 22L16 22L16 21L18 21L18 22L17 22L17 24L16 24L16 23L15 23L15 24L16 24L16 25L14 25L14 24L13 24L13 25L11 25L11 24L12 24L12 23L11 23L11 24L10 24L10 23L9 23L9 22L8 22L8 23L9 23L9 24L8 24L8 25L11 25L11 26L10 26L10 27L9 27L9 28L10 28L10 27L11 27L11 29L10 29L10 30L9 30L9 31L6 31L6 32L5 32L5 35L4 35L4 36L5 36L5 37L3 37L3 38L4 38L4 39L5 39L5 37L6 37L6 38L8 38L8 39L6 39L6 40L5 40L5 41L4 41L4 40L3 40L3 42L2 42L2 43L3 43L3 42L7 42L7 43L4 43L4 44L3 44L3 45L4 45L4 46L3 46L3 47L5 47L5 46L7 46L7 47L11 47L11 46L12 46L12 44L13 44L13 43L12 43L12 42L17 42L17 43L16 43L16 44L17 44L17 45L16 45L16 46L17 46L17 47L16 47L16 48L17 48L17 47L18 47L18 48L19 48L19 49L16 49L16 51L17 51L17 50L21 50L21 49L20 49L20 48L19 48L19 47L18 47L18 46L17 46L17 45L18 45L18 44L17 44L17 43L18 43L18 42L17 42L17 40L18 40L18 39L20 39L20 38L19 38L19 37L23 37L23 38L24 38L24 37L23 37L23 36L24 36L24 35L25 35L25 42L24 42L24 43L23 43L23 45L22 45L22 44L21 44L21 45L22 45L22 47L23 47L23 48L24 48L24 47L23 47L23 45L25 45L25 49L26 49L26 48L27 48L27 47L28 47L28 48L32 48L32 49L31 49L31 52L32 52L32 54L33 54L33 53L34 53L34 54L37 54L37 56L39 56L39 53L38 53L38 52L37 52L37 53L34 53L34 52L36 52L36 51L34 51L34 50L35 50L35 48L37 48L37 49L38 49L38 50L37 50L37 51L38 51L38 50L39 50L39 52L40 52L40 55L41 55L41 54L42 54L42 53L41 53L41 52L40 52L40 51L42 51L42 52L43 52L43 51L44 51L44 53L45 53L45 54L46 54L46 55L47 55L47 53L48 53L48 52L47 52L47 51L48 51L48 48L49 48L49 47L51 47L51 46L53 46L53 47L52 47L52 48L53 48L53 49L55 49L55 50L56 50L56 48L53 48L53 47L54 47L54 46L56 46L56 45L55 45L55 44L54 44L54 45L51 45L51 44L47 44L47 45L46 45L46 46L47 46L47 47L45 47L45 48L43 48L43 50L41 50L41 48L42 48L42 47L43 47L43 46L44 46L44 45L45 45L45 44L44 44L44 42L45 42L45 43L47 43L47 42L48 42L48 43L49 43L49 41L51 41L51 42L50 42L50 43L51 43L51 42L53 42L53 43L52 43L52 44L53 44L53 43L54 43L54 40L53 40L53 39L52 39L52 38L53 38L53 37L51 37L51 36L52 36L52 34L53 34L53 35L54 35L54 34L53 34L53 33L51 33L51 34L50 34L50 32L49 32L49 31L48 31L48 29L46 29L46 30L42 30L42 29L43 29L43 28L44 28L44 29L45 29L45 27L46 27L46 28L48 28L48 27L46 27L46 26L48 26L48 25L49 25L49 26L51 26L51 25L50 25L50 24L52 24L52 25L53 25L53 27L55 27L55 26L54 26L54 24L52 24L52 23L54 23L54 22L55 22L55 20L54 20L54 21L53 21L53 20L52 20L52 21L51 21L51 19L50 19L50 22L49 22L49 23L50 23L50 24L48 24L48 25L47 25L47 21L46 21L46 20L47 20L47 19L46 19L46 18L47 18L47 17L49 17L49 15L45 15L45 16L43 16L43 18L40 18L40 17L41 17L41 16L42 16L42 15L44 15L44 14L45 14L45 12L44 12L44 14L42 14L42 11L43 11L43 10L41 10L41 12L40 12L40 11L39 11L39 9L41 9L41 7L42 7L42 5L40 5L40 4L41 4L41 3L40 3L40 4L38 4L38 3L39 3L39 2ZM14 4L14 7L15 7L15 8L16 8L16 7L17 7L17 6L16 6L16 7L15 7L15 5L16 5L16 4ZM27 5L27 8L30 8L30 5ZM37 5L37 6L36 6L36 7L37 7L37 6L38 6L38 7L39 7L39 5ZM28 6L28 7L29 7L29 6ZM40 6L40 7L41 7L41 6ZM45 6L45 7L46 7L46 6ZM48 8L48 9L49 9L49 8ZM4 9L4 10L5 10L5 9ZM6 9L6 10L7 10L7 9ZM8 9L8 10L9 10L9 9ZM16 10L16 11L17 11L17 10ZM34 10L34 11L35 11L35 12L36 12L36 13L35 13L35 14L32 14L32 16L31 16L31 14L30 14L30 13L28 13L28 14L27 14L27 16L28 16L28 17L27 17L27 18L28 18L28 20L27 20L27 21L28 21L28 20L29 20L29 22L28 22L28 24L27 24L27 25L26 25L26 26L25 26L25 25L23 25L23 27L24 27L24 28L25 28L25 27L26 27L26 30L25 30L25 29L23 29L23 30L22 30L22 31L21 31L21 32L20 32L20 33L21 33L21 34L20 34L20 35L22 35L22 33L21 33L21 32L24 32L24 33L23 33L23 34L25 34L25 35L27 35L27 33L29 33L29 34L30 34L30 35L29 35L29 39L31 39L31 38L32 38L32 35L31 35L31 34L32 34L32 33L31 33L31 32L33 32L33 33L34 33L34 32L33 32L33 31L40 31L40 32L35 32L35 33L39 33L39 34L33 34L33 35L34 35L34 36L35 36L35 35L38 35L38 37L37 37L37 36L36 36L36 37L35 37L35 38L34 38L34 39L35 39L35 40L34 40L34 41L33 41L33 42L32 42L32 41L31 41L31 40L29 40L29 41L31 41L31 42L30 42L30 43L29 43L29 44L28 44L28 43L26 43L26 44L25 44L25 43L24 43L24 44L25 44L25 45L26 45L26 44L28 44L28 45L27 45L27 46L26 46L26 47L27 47L27 46L28 46L28 47L32 47L32 48L33 48L33 50L32 50L32 52L33 52L33 50L34 50L34 48L33 48L33 47L37 47L37 48L38 48L38 49L40 49L40 48L41 48L41 47L42 47L42 46L43 46L43 45L44 45L44 44L43 44L43 42L44 42L44 40L43 40L43 37L44 37L44 38L45 38L45 41L46 41L46 38L45 38L45 37L44 37L44 34L43 34L43 32L45 32L45 34L46 34L46 35L45 35L45 36L48 36L48 37L49 37L49 36L48 36L48 35L49 35L49 34L48 34L48 33L47 33L47 34L46 34L46 32L48 32L48 31L47 31L47 30L46 30L46 31L42 31L42 30L41 30L41 31L40 31L40 30L33 30L33 29L38 29L38 27L39 27L39 28L40 28L40 26L41 26L41 27L42 27L42 28L43 28L43 27L45 27L45 26L46 26L46 24L45 24L45 26L44 26L44 23L46 23L46 22L45 22L45 21L44 21L44 23L42 23L42 22L43 22L43 20L46 20L46 19L45 19L45 18L46 18L46 17L47 17L47 16L46 16L46 17L45 17L45 18L44 18L44 19L42 19L42 20L41 20L41 19L40 19L40 18L36 18L36 17L38 17L38 15L37 15L37 16L36 16L36 15L35 15L35 14L36 14L36 13L37 13L37 14L38 14L38 12L39 12L39 14L40 14L40 12L39 12L39 11L37 11L37 12L36 12L36 11L35 11L35 10ZM52 10L52 11L53 11L53 10ZM24 11L24 12L25 12L25 11ZM20 12L20 13L21 13L21 14L20 14L20 15L21 15L21 14L22 14L22 13L21 13L21 12ZM5 13L5 15L6 15L6 16L7 16L7 15L6 15L6 14L7 14L7 13ZM2 14L2 16L3 16L3 14ZM29 14L29 15L28 15L28 16L29 16L29 17L31 17L31 16L30 16L30 14ZM41 14L41 15L40 15L40 16L39 16L39 17L40 17L40 16L41 16L41 15L42 15L42 14ZM54 14L54 15L53 15L53 16L52 16L52 17L53 17L53 18L54 18L54 17L55 17L55 16L56 16L56 15L55 15L55 14ZM34 15L34 16L35 16L35 17L33 17L33 16L32 16L32 18L29 18L29 19L32 19L32 18L35 18L35 20L34 20L34 21L33 21L33 20L32 20L32 21L33 21L33 22L34 22L34 23L36 23L36 24L37 24L37 25L38 25L38 26L39 26L39 25L41 25L41 22L42 22L42 21L41 21L41 20L40 20L40 19L36 19L36 18L35 18L35 17L36 17L36 16L35 16L35 15ZM54 15L54 16L53 16L53 17L54 17L54 16L55 16L55 15ZM22 18L22 19L23 19L23 18ZM48 18L48 20L49 20L49 18ZM2 20L2 22L3 22L3 20ZM36 20L36 21L37 21L37 22L36 22L36 23L37 23L37 24L38 24L38 25L39 25L39 24L40 24L40 22L38 22L38 21L40 21L40 20L38 20L38 21L37 21L37 20ZM22 21L22 22L21 22L21 23L22 23L22 24L24 24L24 23L22 23L22 22L24 22L24 21ZM18 22L18 23L20 23L20 22ZM29 22L29 24L28 24L28 26L29 26L29 24L31 24L31 22ZM50 22L50 23L51 23L51 22ZM38 23L38 24L39 24L39 23ZM17 24L17 27L15 27L15 26L14 26L14 25L13 25L13 27L12 27L12 26L11 26L11 27L12 27L12 29L11 29L11 31L12 31L12 32L11 32L11 33L10 33L10 34L9 34L9 32L10 32L10 31L9 31L9 32L6 32L6 33L8 33L8 34L6 34L6 35L5 35L5 36L6 36L6 37L7 37L7 36L8 36L8 38L9 38L9 37L10 37L10 39L11 39L11 38L12 38L12 37L13 37L13 36L12 36L12 37L11 37L11 35L10 35L10 34L11 34L11 33L13 33L13 34L12 34L12 35L13 35L13 34L14 34L14 38L13 38L13 39L14 39L14 40L16 40L16 39L15 39L15 38L16 38L16 37L15 37L15 36L16 36L16 35L17 35L17 37L19 37L19 36L18 36L18 35L19 35L19 34L18 34L18 33L19 33L19 31L20 31L20 30L19 30L19 29L22 29L22 28L19 28L19 29L18 29L18 28L17 28L17 27L18 27L18 26L19 26L19 27L20 27L20 25L19 25L19 24ZM32 24L32 25L31 25L31 28L32 28L32 29L33 29L33 28L34 28L34 26L35 26L35 28L36 28L36 26L35 26L35 24L34 24L34 25L33 25L33 24ZM21 25L21 27L22 27L22 25ZM32 25L32 26L33 26L33 25ZM42 26L42 27L43 27L43 26ZM5 27L5 30L8 30L8 27ZM13 27L13 28L14 28L14 29L15 29L15 28L14 28L14 27ZM27 27L27 30L30 30L30 27ZM49 27L49 30L52 30L52 27ZM6 28L6 29L7 29L7 28ZM28 28L28 29L29 29L29 28ZM50 28L50 29L51 29L51 28ZM54 28L54 29L55 29L55 30L56 30L56 29L55 29L55 28ZM1 29L1 31L2 31L2 33L1 33L1 34L2 34L2 33L3 33L3 34L4 34L4 33L3 33L3 31L4 31L4 29ZM12 29L12 31L13 31L13 33L14 33L14 31L13 31L13 29ZM16 29L16 31L15 31L15 33L16 33L16 34L17 34L17 35L18 35L18 34L17 34L17 33L16 33L16 31L18 31L18 29ZM23 30L23 31L24 31L24 30ZM31 30L31 31L33 31L33 30ZM53 30L53 31L52 31L52 32L54 32L54 33L55 33L55 32L54 32L54 30ZM25 31L25 34L26 34L26 32L27 32L27 31ZM29 32L29 33L30 33L30 32ZM40 32L40 34L42 34L42 35L41 35L41 36L40 36L40 35L39 35L39 36L40 36L40 38L39 38L39 37L38 37L38 38L37 38L37 39L36 39L36 40L35 40L35 41L34 41L34 42L33 42L33 43L30 43L30 44L29 44L29 45L28 45L28 46L29 46L29 45L31 45L31 46L32 46L32 47L33 47L33 46L39 46L39 45L40 45L40 47L38 47L38 48L40 48L40 47L41 47L41 46L42 46L42 45L43 45L43 44L41 44L41 43L42 43L42 42L41 42L41 43L40 43L40 42L39 42L39 41L42 41L42 40L41 40L41 39L42 39L42 38L41 38L41 36L42 36L42 35L43 35L43 34L42 34L42 32ZM8 34L8 36L10 36L10 35L9 35L9 34ZM6 35L6 36L7 36L7 35ZM50 35L50 36L51 36L51 35ZM30 36L30 38L31 38L31 36ZM27 37L27 38L26 38L26 39L27 39L27 41L26 41L26 42L27 42L27 41L28 41L28 39L27 39L27 38L28 38L28 37ZM48 38L48 39L50 39L50 40L51 40L51 41L53 41L53 40L51 40L51 39L50 39L50 38ZM54 38L54 39L55 39L55 38ZM21 39L21 41L20 41L20 40L19 40L19 41L20 41L20 42L19 42L19 45L20 45L20 43L22 43L22 42L23 42L23 40L24 40L24 39ZM32 39L32 40L33 40L33 39ZM37 39L37 40L36 40L36 41L37 41L37 43L39 43L39 42L38 42L38 41L39 41L39 40L38 40L38 39ZM6 40L6 41L7 41L7 42L10 42L10 40L9 40L9 41L8 41L8 40ZM37 40L37 41L38 41L38 40ZM11 41L11 42L12 42L12 41ZM21 41L21 42L22 42L22 41ZM34 42L34 43L33 43L33 44L34 44L34 43L35 43L35 44L36 44L36 45L37 45L37 44L36 44L36 43L35 43L35 42ZM7 43L7 44L5 44L5 45L9 45L9 46L10 46L10 45L9 45L9 44L10 44L10 43L9 43L9 44L8 44L8 43ZM31 44L31 45L32 45L32 44ZM38 44L38 45L39 45L39 44ZM47 45L47 46L49 46L49 45ZM45 48L45 50L46 50L46 51L47 51L47 50L46 50L46 49L47 49L47 48ZM27 49L27 52L30 52L30 49ZM49 49L49 52L52 52L52 49ZM28 50L28 51L29 51L29 50ZM50 50L50 51L51 51L51 50ZM8 52L8 57L10 57L10 56L9 56L9 55L10 55L10 53L9 53L9 52ZM45 52L45 53L46 53L46 52ZM54 52L54 53L55 53L55 52ZM15 53L15 54L14 54L14 55L15 55L15 54L16 54L16 53ZM37 53L37 54L38 54L38 53ZM49 53L49 55L50 55L50 54L51 54L51 53ZM23 55L23 57L24 57L24 55ZM25 55L25 56L28 56L28 55ZM35 55L35 56L36 56L36 55ZM11 56L11 57L12 57L12 56ZM18 56L18 57L21 57L21 56ZM0 0L0 7L7 7L7 0ZM1 1L1 6L6 6L6 1ZM2 2L2 5L5 5L5 2ZM50 0L50 7L57 7L57 0ZM51 1L51 6L56 6L56 1ZM52 2L52 5L55 5L55 2ZM0 50L0 57L7 57L7 50ZM1 51L1 56L6 56L6 51ZM2 52L2 55L5 55L5 52Z" fill="#000000"/></g></g></svg>
