<?xml version="1.0" encoding="UTF-8"?>
<svg xmlns="http://www.w3.org/2000/svg" version="1.1" width="300" height="300" viewBox="0 0 300 300"><rect x="0" y="0" width="300" height="300" fill="#ffffff"/><g transform="scale(4.918)"><g transform="translate(2,2)"><path fill-rule="evenodd" d="M10 0L10 1L12 1L12 0ZM14 0L14 1L15 1L15 4L14 4L14 2L13 2L13 3L12 3L12 2L11 2L11 3L10 3L10 2L9 2L9 1L8 1L8 2L9 2L9 3L8 3L8 4L9 4L9 5L8 5L8 7L9 7L9 5L10 5L10 7L11 7L11 8L6 8L6 9L5 9L5 8L0 8L0 9L5 9L5 10L3 10L3 11L1 11L1 10L0 10L0 12L4 12L4 14L1 14L1 13L0 13L0 14L1 14L1 15L4 15L4 16L5 16L5 12L6 12L6 13L7 13L7 14L6 14L6 15L7 15L7 14L8 14L8 16L6 16L6 17L8 17L8 18L5 18L5 17L3 17L3 16L1 16L1 17L2 17L2 18L3 18L3 19L1 19L1 20L0 20L0 22L1 22L1 23L3 23L3 22L4 22L4 25L7 25L7 26L3 26L3 24L1 24L1 25L0 25L0 26L3 26L3 27L4 27L4 28L3 28L3 29L2 29L2 28L0 28L0 29L2 29L2 30L0 30L0 32L1 32L1 33L0 33L0 36L1 36L1 37L0 37L0 38L2 38L2 39L3 39L3 38L2 38L2 35L1 35L1 34L2 34L2 33L3 33L3 35L4 35L4 36L3 36L3 37L5 37L5 38L6 38L6 39L7 39L7 38L8 38L8 39L11 39L11 38L12 38L12 40L6 40L6 41L7 41L7 42L4 42L4 40L1 40L1 39L0 39L0 42L1 42L1 41L2 41L2 42L4 42L4 44L3 44L3 45L5 45L5 44L6 44L6 45L8 45L8 47L9 47L9 49L8 49L8 48L6 48L6 49L8 49L8 51L9 51L9 52L8 52L8 57L9 57L9 56L10 56L10 57L14 57L14 56L16 56L16 57L17 57L17 56L16 56L16 55L14 55L14 56L13 56L13 54L12 54L12 53L13 53L13 52L14 52L14 54L16 54L16 53L15 53L15 52L16 52L16 51L17 51L17 53L19 53L19 54L17 54L17 55L19 55L19 56L18 56L18 57L21 57L21 56L22 56L22 55L21 55L21 53L22 53L22 54L23 54L23 55L24 55L24 56L23 56L23 57L24 57L24 56L26 56L26 55L27 55L27 56L28 56L28 55L27 55L27 53L28 53L28 54L29 54L29 55L30 55L30 56L29 56L29 57L31 57L31 55L33 55L33 54L34 54L34 56L35 56L35 57L37 57L37 56L38 56L38 55L40 55L40 56L39 56L39 57L40 57L40 56L41 56L41 57L43 57L43 56L42 56L42 55L43 55L43 53L44 53L44 54L45 54L45 55L44 55L44 56L45 56L45 57L46 57L46 56L47 56L47 55L49 55L49 56L48 56L48 57L49 57L49 56L50 56L50 55L51 55L51 57L52 57L52 56L54 56L54 57L56 57L56 56L55 56L55 54L54 54L54 53L53 53L53 49L54 49L54 48L55 48L55 50L57 50L57 49L56 49L56 48L55 48L55 47L56 47L56 46L57 46L57 43L56 43L56 42L57 42L57 41L56 41L56 42L55 42L55 39L57 39L57 37L56 37L56 36L55 36L55 35L54 35L54 36L53 36L53 34L52 34L52 37L51 37L51 36L49 36L49 37L50 37L50 38L49 38L49 39L50 39L50 40L51 40L51 41L48 41L48 42L47 42L47 43L45 43L45 41L44 41L44 39L43 39L43 37L44 37L44 38L45 38L45 40L46 40L46 41L47 41L47 38L46 38L46 36L47 36L47 35L50 35L50 32L51 32L51 33L54 33L54 34L57 34L57 33L56 33L56 30L57 30L57 28L56 28L56 27L53 27L53 25L54 25L54 26L57 26L57 25L54 25L54 24L55 24L55 23L56 23L56 22L57 22L57 21L56 21L56 20L57 20L57 19L56 19L56 18L57 18L57 17L56 17L56 18L55 18L55 17L53 17L53 19L54 19L54 20L55 20L55 21L53 21L53 22L52 22L52 23L51 23L51 22L50 22L50 19L49 19L49 18L50 18L50 11L51 11L51 10L52 10L52 8L51 8L51 10L49 10L49 9L50 9L50 8L49 8L49 6L48 6L48 8L47 8L47 9L48 9L48 11L47 11L47 10L45 10L45 9L44 9L44 8L46 8L46 7L47 7L47 5L48 5L48 0L46 0L46 1L47 1L47 2L43 2L43 3L42 3L42 4L41 4L41 5L40 5L40 3L41 3L41 2L42 2L42 1L44 1L44 0L42 0L42 1L41 1L41 2L39 2L39 1L38 1L38 0L35 0L35 1L34 1L34 0L32 0L32 1L31 1L31 0L30 0L30 1L28 1L28 0L27 0L27 2L26 2L26 0L24 0L24 1L23 1L23 0L21 0L21 2L20 2L20 3L18 3L18 4L20 4L20 3L21 3L21 4L22 4L22 5L24 5L24 4L25 4L25 6L24 6L24 7L23 7L23 6L22 6L22 7L23 7L23 8L24 8L24 7L25 7L25 6L26 6L26 9L27 9L27 10L26 10L26 11L27 11L27 12L25 12L25 11L23 11L23 13L24 13L24 14L23 14L23 15L22 15L22 14L20 14L20 15L19 15L19 13L18 13L18 12L16 12L16 10L15 10L15 13L18 13L18 15L19 15L19 16L18 16L18 17L17 17L17 14L14 14L14 13L13 13L13 14L12 14L12 17L8 17L8 16L11 16L11 15L9 15L9 14L8 14L8 13L7 13L7 12L8 12L8 11L9 11L9 13L10 13L10 14L11 14L11 13L10 13L10 12L11 12L11 11L13 11L13 12L14 12L14 11L13 11L13 10L14 10L14 8L13 8L13 6L12 6L12 7L11 7L11 5L10 5L10 4L11 4L11 3L12 3L12 4L13 4L13 5L15 5L15 6L14 6L14 7L15 7L15 6L16 6L16 9L17 9L17 11L18 11L18 9L19 9L19 12L20 12L20 13L22 13L22 12L20 12L20 11L22 11L22 10L25 10L25 9L22 9L22 10L20 10L20 9L19 9L19 6L20 6L20 7L21 7L21 6L20 6L20 5L19 5L19 6L18 6L18 7L17 7L17 4L16 4L16 1L15 1L15 0ZM18 1L18 2L19 2L19 1ZM24 1L24 2L22 2L22 4L24 4L24 2L25 2L25 1ZM30 1L30 2L29 2L29 3L27 3L27 4L30 4L30 2L31 2L31 1ZM32 1L32 2L34 2L34 1ZM35 1L35 3L34 3L34 5L33 5L33 3L32 3L32 4L31 4L31 8L33 8L33 9L34 9L34 10L33 10L33 11L32 11L32 13L31 13L31 15L32 15L32 13L33 13L33 14L35 14L35 13L33 13L33 11L34 11L34 12L36 12L36 11L34 11L34 10L36 10L36 9L34 9L34 8L35 8L35 7L36 7L36 8L39 8L39 9L38 9L38 11L39 11L39 10L41 10L41 12L38 12L38 13L37 13L37 14L39 14L39 15L36 15L36 16L35 16L35 15L33 15L33 16L30 16L30 15L26 15L26 14L28 14L28 13L29 13L29 14L30 14L30 13L29 13L29 12L30 12L30 11L31 11L31 10L32 10L32 9L31 9L31 10L30 10L30 9L29 9L29 10L27 10L27 11L29 11L29 12L28 12L28 13L25 13L25 12L24 12L24 13L25 13L25 14L24 14L24 15L23 15L23 16L22 16L22 17L23 17L23 16L24 16L24 17L25 17L25 16L28 16L28 17L26 17L26 18L28 18L28 20L27 20L27 19L25 19L25 18L24 18L24 20L27 20L27 21L25 21L25 22L26 22L26 23L25 23L25 24L24 24L24 23L23 23L23 24L21 24L21 25L20 25L20 24L19 24L19 23L20 23L20 22L19 22L19 21L21 21L21 22L22 22L22 21L23 21L23 22L24 22L24 21L23 21L23 18L22 18L22 21L21 21L21 19L19 19L19 17L20 17L20 18L21 18L21 17L20 17L20 16L21 16L21 15L20 15L20 16L19 16L19 17L18 17L18 19L17 19L17 17L16 17L16 15L14 15L14 14L13 14L13 15L14 15L14 17L13 17L13 18L14 18L14 17L16 17L16 19L15 19L15 21L13 21L13 20L14 20L14 19L12 19L12 20L11 20L11 21L13 21L13 22L14 22L14 23L13 23L13 24L12 24L12 22L10 22L10 23L11 23L11 24L12 24L12 25L14 25L14 26L13 26L13 27L14 27L14 29L13 29L13 33L12 33L12 30L11 30L11 28L12 28L12 27L9 27L9 30L11 30L11 31L10 31L10 32L9 32L9 36L10 36L10 35L11 35L11 36L12 36L12 38L13 38L13 39L14 39L14 38L16 38L16 37L17 37L17 36L20 36L20 37L18 37L18 38L17 38L17 41L16 41L16 39L15 39L15 41L14 41L14 42L13 42L13 43L11 43L11 45L10 45L10 49L9 49L9 50L10 50L10 52L9 52L9 53L10 53L10 54L11 54L11 53L10 53L10 52L11 52L11 50L10 50L10 49L11 49L11 48L12 48L12 49L14 49L14 50L13 50L13 51L12 51L12 52L13 52L13 51L16 51L16 50L17 50L17 51L18 51L18 52L19 52L19 53L21 53L21 52L20 52L20 51L23 51L23 52L22 52L22 53L23 53L23 54L24 54L24 53L23 53L23 52L24 52L24 51L25 51L25 53L26 53L26 51L25 51L25 50L26 50L26 49L25 49L25 48L26 48L26 47L24 47L24 45L25 45L25 46L27 46L27 47L28 47L28 48L29 48L29 47L28 47L28 46L29 46L29 45L28 45L28 44L32 44L32 45L31 45L31 46L32 46L32 47L33 47L33 46L39 46L39 45L40 45L40 46L42 46L42 47L41 47L41 48L40 48L40 47L38 47L38 48L40 48L40 50L42 50L42 52L40 52L40 51L39 51L39 52L40 52L40 55L42 55L42 54L41 54L41 53L43 53L43 50L42 50L42 49L44 49L44 53L45 53L45 54L47 54L47 53L48 53L48 54L51 54L51 55L53 55L53 54L51 54L51 53L48 53L48 52L47 52L47 53L46 53L46 50L47 50L47 51L48 51L48 48L49 48L49 47L51 47L51 48L54 48L54 47L55 47L55 46L54 46L54 47L52 47L52 46L53 46L53 45L52 45L52 44L53 44L53 43L54 43L54 40L52 40L52 41L51 41L51 42L50 42L50 43L51 43L51 42L53 42L53 43L52 43L52 44L47 44L47 45L46 45L46 46L47 46L47 47L45 47L45 43L43 43L43 44L40 44L40 43L38 43L38 45L35 45L35 44L36 44L36 43L34 43L34 42L37 42L37 41L33 41L33 43L34 43L34 44L32 44L32 43L29 43L29 41L30 41L30 42L32 42L32 41L30 41L30 40L33 40L33 39L34 39L34 40L35 40L35 37L36 37L36 36L37 36L37 37L38 37L38 38L37 38L37 39L38 39L38 42L41 42L41 43L42 43L42 42L41 42L41 40L43 40L43 39L42 39L42 38L41 38L41 36L42 36L42 37L43 37L43 36L42 36L42 35L44 35L44 37L45 37L45 36L46 36L46 35L45 35L45 34L47 34L47 33L48 33L48 34L49 34L49 32L50 32L50 31L48 31L48 30L47 30L47 29L48 29L48 27L47 27L47 26L48 26L48 25L50 25L50 26L51 26L51 25L53 25L53 24L54 24L54 23L55 23L55 22L54 22L54 23L53 23L53 24L51 24L51 23L50 23L50 22L49 22L49 23L50 23L50 24L48 24L48 23L47 23L47 21L48 21L48 20L49 20L49 19L48 19L48 17L49 17L49 15L47 15L47 16L46 16L46 18L45 18L45 16L43 16L43 17L44 17L44 18L41 18L41 17L42 17L42 15L43 15L43 14L45 14L45 12L46 12L46 14L47 14L47 13L49 13L49 12L47 12L47 11L45 11L45 10L44 10L44 9L43 9L43 8L42 8L42 5L41 5L41 7L40 7L40 6L39 6L39 7L38 7L38 6L37 6L37 5L39 5L39 4L37 4L37 5L36 5L36 3L38 3L38 1L37 1L37 2L36 2L36 1ZM9 3L9 4L10 4L10 3ZM25 3L25 4L26 4L26 3ZM43 3L43 7L44 7L44 6L45 6L45 7L46 7L46 5L47 5L47 3ZM15 4L15 5L16 5L16 4ZM44 4L44 5L46 5L46 4ZM27 5L27 8L30 8L30 5ZM34 5L34 7L33 7L33 6L32 6L32 7L33 7L33 8L34 8L34 7L35 7L35 6L36 6L36 7L37 7L37 6L36 6L36 5ZM28 6L28 7L29 7L29 6ZM39 7L39 8L40 8L40 7ZM11 8L11 9L10 9L10 10L9 10L9 9L8 9L8 10L7 10L7 9L6 9L6 10L5 10L5 11L4 11L4 12L5 12L5 11L6 11L6 12L7 12L7 11L8 11L8 10L9 10L9 11L11 11L11 10L13 10L13 8ZM17 8L17 9L18 9L18 8ZM41 8L41 10L42 10L42 14L41 14L41 13L40 13L40 15L39 15L39 16L41 16L41 15L42 15L42 14L43 14L43 13L44 13L44 12L45 12L45 11L44 11L44 10L43 10L43 9L42 9L42 8ZM48 8L48 9L49 9L49 8ZM53 8L53 9L54 9L54 8ZM55 8L55 11L54 11L54 10L53 10L53 11L52 11L52 12L53 12L53 11L54 11L54 12L57 12L57 11L56 11L56 8ZM6 10L6 11L7 11L7 10ZM51 13L51 14L52 14L52 13ZM53 13L53 14L55 14L55 15L51 15L51 16L55 16L55 15L56 15L56 16L57 16L57 15L56 15L56 14L57 14L57 13L56 13L56 14L55 14L55 13ZM24 15L24 16L25 16L25 15ZM34 16L34 17L29 17L29 18L34 18L34 19L29 19L29 22L27 22L27 23L28 23L28 24L27 24L27 25L26 25L26 24L25 24L25 25L24 25L24 24L23 24L23 25L21 25L21 26L22 26L22 27L20 27L20 25L19 25L19 24L18 24L18 23L19 23L19 22L17 22L17 25L19 25L19 26L18 26L18 27L17 27L17 26L15 26L15 27L17 27L17 28L15 28L15 29L14 29L14 31L15 31L15 29L17 29L17 30L16 30L16 31L17 31L17 30L19 30L19 29L21 29L21 30L22 30L22 31L20 31L20 32L18 32L18 33L19 33L19 34L18 34L18 35L20 35L20 33L21 33L21 36L22 36L22 34L23 34L23 35L24 35L24 37L21 37L21 39L23 39L23 40L24 40L24 41L23 41L23 42L24 42L24 43L23 43L23 45L24 45L24 44L25 44L25 45L26 45L26 44L25 44L25 42L26 42L26 43L27 43L27 44L28 44L28 42L26 42L26 41L29 41L29 39L31 39L31 38L32 38L32 34L33 34L33 36L34 36L34 35L37 35L37 36L38 36L38 37L40 37L40 36L41 36L41 35L42 35L42 34L45 34L45 33L46 33L46 32L45 32L45 30L46 30L46 31L47 31L47 32L48 32L48 31L47 31L47 30L46 30L46 29L47 29L47 28L46 28L46 26L45 26L45 30L44 30L44 31L42 31L42 30L43 30L43 29L44 29L44 28L43 28L43 27L44 27L44 26L43 26L43 25L44 25L44 23L45 23L45 21L44 21L44 23L43 23L43 21L40 21L40 20L41 20L41 19L40 19L40 18L37 18L37 17L38 17L38 16L36 16L36 19L40 19L40 20L39 20L39 23L40 23L40 24L42 24L42 25L41 25L41 27L40 27L40 25L39 25L39 26L38 26L38 24L35 24L35 22L34 22L34 24L35 24L35 25L37 25L37 26L38 26L38 28L35 28L35 26L34 26L34 25L33 25L33 27L34 27L34 28L33 28L33 29L32 29L32 28L31 28L31 26L32 26L32 25L30 25L30 24L29 24L29 22L31 22L31 24L32 24L32 23L33 23L33 21L32 21L32 20L34 20L34 19L35 19L35 18L34 18L34 17L35 17L35 16ZM47 16L47 17L48 17L48 16ZM8 18L8 19L9 19L9 18ZM44 18L44 19L42 19L42 20L46 20L46 21L47 21L47 20L48 20L48 19L47 19L47 18L46 18L46 19L45 19L45 18ZM3 19L3 20L1 20L1 22L2 22L2 21L4 21L4 22L5 22L5 24L9 24L9 25L8 25L8 26L10 26L10 24L9 24L9 20L7 20L7 19L6 19L6 20L7 20L7 21L5 21L5 19ZM18 19L18 21L19 21L19 19ZM46 19L46 20L47 20L47 19ZM51 19L51 20L52 20L52 19ZM55 19L55 20L56 20L56 19ZM36 20L36 21L37 21L37 22L36 22L36 23L37 23L37 22L38 22L38 21L37 21L37 20ZM7 21L7 22L6 22L6 23L7 23L7 22L8 22L8 21ZM15 21L15 22L16 22L16 21ZM40 22L40 23L41 23L41 22ZM14 23L14 25L15 25L15 24L16 24L16 23ZM42 23L42 24L43 24L43 23ZM46 23L46 24L45 24L45 25L48 25L48 24L47 24L47 23ZM28 24L28 26L29 26L29 24ZM23 25L23 26L24 26L24 25ZM25 25L25 26L26 26L26 25ZM42 26L42 27L41 27L41 28L38 28L38 29L33 29L33 30L35 30L35 31L33 31L33 32L32 32L32 31L31 31L31 32L30 32L30 33L27 33L27 34L26 34L26 33L25 33L25 32L27 32L27 31L25 31L25 32L23 32L23 31L24 31L24 30L23 30L23 29L25 29L25 30L26 30L26 27L25 27L25 28L23 28L23 29L22 29L22 28L21 28L21 29L22 29L22 30L23 30L23 31L22 31L22 33L25 33L25 34L26 34L26 35L25 35L25 36L26 36L26 35L27 35L27 36L28 36L28 37L24 37L24 38L23 38L23 39L24 39L24 40L25 40L25 38L28 38L28 37L29 37L29 36L30 36L30 38L31 38L31 36L30 36L30 35L31 35L31 34L32 34L32 33L33 33L33 34L40 34L40 35L39 35L39 36L40 36L40 35L41 35L41 34L42 34L42 33L41 33L41 32L39 32L39 31L38 31L38 32L39 32L39 33L36 33L36 32L37 32L37 30L39 30L39 29L40 29L40 31L41 31L41 30L42 30L42 29L43 29L43 28L42 28L42 27L43 27L43 26ZM5 27L5 30L8 30L8 27ZM19 27L19 28L20 28L20 27ZM27 27L27 30L30 30L30 27ZM49 27L49 30L52 30L52 27ZM6 28L6 29L7 29L7 28ZM17 28L17 29L18 29L18 28ZM28 28L28 29L29 29L29 28ZM50 28L50 29L51 29L51 28ZM54 28L54 29L53 29L53 30L54 30L54 29L55 29L55 28ZM3 29L3 31L2 31L2 32L3 32L3 31L4 31L4 32L5 32L5 31L4 31L4 29ZM31 29L31 30L32 30L32 29ZM6 31L6 32L7 32L7 33L6 33L6 34L5 34L5 33L4 33L4 34L5 34L5 36L7 36L7 37L6 37L6 38L7 38L7 37L8 37L8 36L7 36L7 35L8 35L8 34L7 34L7 33L8 33L8 31ZM28 31L28 32L29 32L29 31ZM35 31L35 32L34 32L34 33L35 33L35 32L36 32L36 31ZM52 31L52 32L54 32L54 33L55 33L55 32L54 32L54 31ZM16 32L16 33L14 33L14 34L16 34L16 33L17 33L17 32ZM31 32L31 33L32 33L32 32ZM43 32L43 33L45 33L45 32ZM11 33L11 34L12 34L12 33ZM6 34L6 35L7 35L7 34ZM29 34L29 35L30 35L30 34ZM12 35L12 36L13 36L13 37L14 37L14 36L15 36L15 37L16 37L16 36L15 36L15 35L14 35L14 36L13 36L13 35ZM54 36L54 37L55 37L55 36ZM9 37L9 38L11 38L11 37ZM52 37L52 38L53 38L53 39L55 39L55 38L53 38L53 37ZM19 38L19 39L20 39L20 38ZM39 38L39 39L40 39L40 38ZM50 38L50 39L51 39L51 38ZM26 39L26 40L28 40L28 39ZM18 40L18 41L17 41L17 43L16 43L16 42L14 42L14 43L13 43L13 45L12 45L12 48L13 48L13 45L14 45L14 48L15 48L15 49L17 49L17 50L18 50L18 51L19 51L19 50L20 50L20 49L21 49L21 50L23 50L23 51L24 51L24 50L25 50L25 49L21 49L21 48L23 48L23 47L22 47L22 46L20 46L20 47L19 47L19 45L22 45L22 44L20 44L20 43L22 43L22 41L21 41L21 42L20 42L20 41L19 41L19 40ZM8 41L8 42L7 42L7 43L6 43L6 44L8 44L8 45L9 45L9 44L10 44L10 43L9 43L9 41ZM11 41L11 42L12 42L12 41ZM18 41L18 43L17 43L17 44L18 44L18 45L15 45L15 47L17 47L17 49L18 49L18 50L19 50L19 49L20 49L20 48L21 48L21 47L20 47L20 48L19 48L19 47L18 47L18 45L19 45L19 41ZM48 42L48 43L49 43L49 42ZM0 43L0 45L1 45L1 46L0 46L0 48L5 48L5 47L7 47L7 46L5 46L5 47L3 47L3 46L2 46L2 43ZM43 44L43 45L42 45L42 46L43 46L43 47L42 47L42 48L45 48L45 50L46 50L46 48L45 48L45 47L44 47L44 44ZM54 44L54 45L55 45L55 44ZM27 45L27 46L28 46L28 45ZM50 45L50 46L52 46L52 45ZM1 46L1 47L2 47L2 46ZM34 47L34 48L31 48L31 52L32 52L32 54L33 54L33 53L34 53L34 54L36 54L36 53L35 53L35 52L36 52L36 51L34 51L34 52L32 52L32 51L33 51L33 50L35 50L35 49L36 49L36 48L37 48L37 47L36 47L36 48L35 48L35 47ZM18 48L18 49L19 49L19 48ZM27 49L27 52L30 52L30 49ZM32 49L32 50L33 50L33 49ZM37 49L37 50L39 50L39 49ZM49 49L49 52L52 52L52 49ZM28 50L28 51L29 51L29 50ZM50 50L50 51L51 51L51 50ZM54 51L54 52L55 52L55 53L56 53L56 51ZM37 52L37 54L39 54L39 53L38 53L38 52ZM29 53L29 54L30 54L30 53ZM19 54L19 55L20 55L20 54ZM10 55L10 56L11 56L11 55ZM35 55L35 56L36 56L36 55ZM45 55L45 56L46 56L46 55ZM0 0L0 7L7 7L7 0ZM1 1L1 6L6 6L6 1ZM2 2L2 5L5 5L5 2ZM50 0L50 7L57 7L57 0ZM51 1L51 6L56 6L56 1ZM52 2L52 5L55 5L55 2ZM0 50L0 57L7 57L7 50ZM1 51L1 56L6 56L6 51ZM2 52L2 55L5 55L5 52Z" fill="#000000"/></g></g></svg>
