<?xml version="1.0" encoding="UTF-8"?>
<svg xmlns="http://www.w3.org/2000/svg" version="1.1" width="300" height="300" viewBox="0 0 300 300"><rect x="0" y="0" width="300" height="300" fill="#ffffff"/><g transform="scale(4.918)"><g transform="translate(2,2)"><path fill-rule="evenodd" d="M12 0L12 1L11 1L11 2L14 2L14 3L12 3L12 4L11 4L11 6L10 6L10 4L9 4L9 3L8 3L8 4L9 4L9 5L8 5L8 7L9 7L9 6L10 6L10 8L11 8L11 6L12 6L12 7L13 7L13 6L12 6L12 4L14 4L14 8L15 8L15 9L13 9L13 8L12 8L12 9L10 9L10 10L9 10L9 8L6 8L6 9L5 9L5 8L0 8L0 11L1 11L1 12L3 12L3 13L2 13L2 14L1 14L1 13L0 13L0 16L1 16L1 17L0 17L0 18L1 18L1 17L2 17L2 18L3 18L3 21L1 21L1 23L0 23L0 25L2 25L2 26L3 26L3 25L2 25L2 24L3 24L3 21L4 21L4 29L1 29L1 30L4 30L4 31L9 31L9 33L10 33L10 32L11 32L11 34L10 34L10 35L9 35L9 34L6 34L6 33L7 33L7 32L6 32L6 33L3 33L3 34L2 34L2 32L3 32L3 31L1 31L1 32L0 32L0 35L1 35L1 34L2 34L2 35L4 35L4 36L0 36L0 37L1 37L1 38L0 38L0 39L2 39L2 41L3 41L3 44L4 44L4 46L5 46L5 47L3 47L3 45L2 45L2 44L1 44L1 43L2 43L2 42L1 42L1 40L0 40L0 44L1 44L1 46L0 46L0 48L5 48L5 47L7 47L7 48L6 48L6 49L7 49L7 48L8 48L8 51L9 51L9 52L8 52L8 57L9 57L9 54L10 54L10 55L11 55L11 56L10 56L10 57L14 57L14 53L15 53L15 54L16 54L16 53L15 53L15 52L16 52L16 51L17 51L17 50L15 50L15 49L17 49L17 48L16 48L16 47L17 47L17 46L16 46L16 47L15 47L15 46L14 46L14 45L13 45L13 44L15 44L15 45L18 45L18 46L19 46L19 47L20 47L20 49L19 49L19 48L18 48L18 49L19 49L19 50L18 50L18 51L19 51L19 50L20 50L20 51L21 51L21 53L19 53L19 52L17 52L17 57L21 57L21 55L22 55L22 56L23 56L23 55L24 55L24 57L26 57L26 56L28 56L28 55L27 55L27 53L28 53L28 54L29 54L29 55L30 55L30 56L29 56L29 57L31 57L31 55L33 55L33 54L34 54L34 56L35 56L35 57L37 57L37 56L38 56L38 57L39 57L39 56L38 56L38 55L40 55L40 52L41 52L41 51L42 51L42 50L43 50L43 48L46 48L46 47L47 47L47 46L46 46L46 45L47 45L47 44L48 44L48 43L49 43L49 44L52 44L52 45L51 45L51 46L52 46L52 45L54 45L54 46L53 46L53 48L51 48L51 47L50 47L50 46L49 46L49 45L48 45L48 46L49 46L49 47L50 47L50 48L48 48L48 51L47 51L47 50L45 50L45 49L44 49L44 50L45 50L45 52L46 52L46 51L47 51L47 52L48 52L48 53L47 53L47 54L46 54L46 53L44 53L44 51L43 51L43 52L42 52L42 53L41 53L41 55L42 55L42 56L43 56L43 57L44 57L44 56L47 56L47 55L49 55L49 56L50 56L50 53L51 53L51 54L53 54L53 55L51 55L51 57L52 57L52 56L53 56L53 57L54 57L54 56L55 56L55 57L56 57L56 56L55 56L55 54L53 54L53 53L54 53L54 52L55 52L55 53L56 53L56 52L57 52L57 51L56 51L56 52L55 52L55 51L54 51L54 52L53 52L53 48L56 48L56 46L57 46L57 45L54 45L54 44L57 44L57 43L55 43L55 42L57 42L57 41L55 41L55 39L57 39L57 37L54 37L54 38L55 38L55 39L53 39L53 40L51 40L51 39L50 39L50 38L48 38L48 37L49 37L49 36L50 36L50 37L51 37L51 38L52 38L52 37L53 37L53 35L54 35L54 36L56 36L56 35L55 35L55 34L57 34L57 33L56 33L56 32L55 32L55 31L56 31L56 30L57 30L57 29L56 29L56 28L57 28L57 27L56 27L56 25L54 25L54 24L55 24L55 23L56 23L56 22L57 22L57 21L56 21L56 20L57 20L57 19L56 19L56 18L57 18L57 17L56 17L56 14L57 14L57 12L56 12L56 10L57 10L57 9L56 9L56 8L55 8L55 11L54 11L54 10L53 10L53 9L54 9L54 8L53 8L53 9L52 9L52 8L51 8L51 10L49 10L49 9L50 9L50 8L49 8L49 6L48 6L48 8L47 8L47 5L48 5L48 0L44 0L44 1L47 1L47 2L42 2L42 1L43 1L43 0L42 0L42 1L41 1L41 2L40 2L40 1L38 1L38 0L36 0L36 1L33 1L33 0L30 0L30 1L25 1L25 0L21 0L21 1L20 1L20 0L19 0L19 1L18 1L18 4L20 4L20 3L19 3L19 2L22 2L22 3L21 3L21 4L22 4L22 5L24 5L24 4L25 4L25 6L24 6L24 7L23 7L23 6L22 6L22 7L21 7L21 6L20 6L20 5L17 5L17 4L16 4L16 2L17 2L17 1L15 1L15 0L14 0L14 1L13 1L13 0ZM8 1L8 2L9 2L9 1ZM22 1L22 2L23 2L23 1ZM30 1L30 2L29 2L29 3L27 3L27 4L31 4L31 8L33 8L33 9L34 9L34 10L33 10L33 11L31 11L31 12L32 12L32 14L39 14L39 15L36 15L36 16L35 16L35 15L34 15L34 16L32 16L32 15L31 15L31 16L30 16L30 15L27 15L27 14L28 14L28 13L29 13L29 14L30 14L30 13L29 13L29 12L30 12L30 10L29 10L29 9L26 9L26 6L25 6L25 7L24 7L24 9L23 9L23 7L22 7L22 8L21 8L21 7L20 7L20 6L19 6L19 7L18 7L18 6L17 6L17 7L18 7L18 8L19 8L19 9L20 9L20 11L19 11L19 10L18 10L18 9L17 9L17 8L16 8L16 6L15 6L15 8L16 8L16 9L15 9L15 10L13 10L13 9L12 9L12 11L11 11L11 12L10 12L10 13L11 13L11 16L10 16L10 14L9 14L9 13L8 13L8 12L7 12L7 11L6 11L6 10L8 10L8 9L6 9L6 10L5 10L5 9L1 9L1 10L3 10L3 12L4 12L4 13L3 13L3 14L2 14L2 15L3 15L3 14L4 14L4 13L5 13L5 15L4 15L4 17L3 17L3 18L4 18L4 17L5 17L5 19L4 19L4 21L5 21L5 22L7 22L7 21L8 21L8 20L9 20L9 19L11 19L11 20L14 20L14 19L13 19L13 18L14 18L14 17L15 17L15 19L16 19L16 20L15 20L15 21L13 21L13 22L15 22L15 23L14 23L14 25L15 25L15 26L17 26L17 27L16 27L16 28L17 28L17 29L15 29L15 27L14 27L14 26L12 26L12 27L14 27L14 29L15 29L15 30L14 30L14 32L13 32L13 28L12 28L12 30L11 30L11 31L12 31L12 33L13 33L13 34L11 34L11 35L12 35L12 37L11 37L11 36L7 36L7 35L6 35L6 36L4 36L4 37L5 37L5 40L7 40L7 41L6 41L6 42L5 42L5 43L4 43L4 44L5 44L5 43L6 43L6 44L7 44L7 45L5 45L5 46L8 46L8 45L9 45L9 46L10 46L10 47L9 47L9 51L10 51L10 52L9 52L9 53L10 53L10 54L11 54L11 53L10 53L10 52L11 52L11 51L12 51L12 52L13 52L13 53L14 53L14 48L15 48L15 47L13 47L13 49L11 49L11 48L12 48L12 47L11 47L11 46L13 46L13 45L12 45L12 44L11 44L11 42L13 42L13 43L14 43L14 42L13 42L13 41L15 41L15 42L16 42L16 43L17 43L17 44L18 44L18 45L19 45L19 46L20 46L20 47L22 47L22 49L25 49L25 50L24 50L24 51L23 51L23 50L21 50L21 49L20 49L20 50L21 50L21 51L23 51L23 52L22 52L22 53L21 53L21 54L22 54L22 53L23 53L23 54L24 54L24 53L23 53L23 52L24 52L24 51L25 51L25 53L26 53L26 49L25 49L25 48L26 48L26 47L25 47L25 48L24 48L24 47L22 47L22 46L23 46L23 45L25 45L25 46L27 46L27 45L28 45L28 46L29 46L29 45L28 45L28 44L32 44L32 45L30 45L30 46L31 46L31 47L30 47L30 48L31 48L31 49L32 49L32 51L31 51L31 52L32 52L32 54L33 54L33 53L34 53L34 54L35 54L35 56L36 56L36 55L37 55L37 54L39 54L39 53L37 53L37 54L36 54L36 52L40 52L40 51L36 51L36 52L35 52L35 51L34 51L34 50L39 50L39 48L40 48L40 50L42 50L42 48L43 48L43 46L42 46L42 45L43 45L43 44L44 44L44 47L45 47L45 44L44 44L44 43L45 43L45 42L46 42L46 43L48 43L48 42L47 42L47 41L51 41L51 40L50 40L50 39L48 39L48 38L47 38L47 37L48 37L48 36L46 36L46 37L45 37L45 34L47 34L47 33L48 33L48 35L49 35L49 31L48 31L48 29L46 29L46 30L45 30L45 27L46 27L46 28L48 28L48 27L46 27L46 26L47 26L47 25L49 25L49 26L52 26L52 25L53 25L53 27L55 27L55 28L54 28L54 29L53 29L53 31L51 31L51 32L50 32L50 36L52 36L52 34L53 34L53 33L51 33L51 32L54 32L54 33L55 33L55 32L54 32L54 29L55 29L55 28L56 28L56 27L55 27L55 26L54 26L54 25L53 25L53 24L51 24L51 23L50 23L50 22L51 22L51 21L53 21L53 22L52 22L52 23L54 23L54 21L55 21L55 20L56 20L56 19L55 19L55 18L56 18L56 17L55 17L55 16L54 16L54 15L55 15L55 14L54 14L54 13L56 13L56 12L54 12L54 11L53 11L53 10L51 10L51 12L50 12L50 14L49 14L49 15L45 15L45 16L43 16L43 17L46 17L46 18L40 18L40 17L41 17L41 16L39 16L39 15L40 15L40 13L41 13L41 14L42 14L42 15L44 15L44 14L42 14L42 10L41 10L41 12L40 12L40 9L41 9L41 8L40 8L40 6L39 6L39 7L38 7L38 6L37 6L37 5L39 5L39 3L38 3L38 1L37 1L37 2L33 2L33 1ZM30 2L30 3L31 3L31 4L32 4L32 3L33 3L33 5L34 5L34 7L33 7L33 6L32 6L32 7L33 7L33 8L34 8L34 9L36 9L36 10L34 10L34 11L33 11L33 13L35 13L35 12L36 12L36 13L38 13L38 12L39 12L39 10L38 10L38 9L37 9L37 8L34 8L34 7L35 7L35 6L36 6L36 7L37 7L37 6L36 6L36 5L37 5L37 4L38 4L38 3L36 3L36 5L34 5L34 3L33 3L33 2ZM14 3L14 4L15 4L15 5L16 5L16 4L15 4L15 3ZM22 3L22 4L24 4L24 3ZM25 3L25 4L26 4L26 3ZM40 3L40 5L41 5L41 7L42 7L42 8L44 8L44 9L43 9L43 12L44 12L44 13L45 13L45 12L46 12L46 14L47 14L47 13L49 13L49 12L48 12L48 11L45 11L45 10L48 10L48 9L49 9L49 8L48 8L48 9L46 9L46 8L45 8L45 7L46 7L46 6L45 6L45 5L44 5L44 4L46 4L46 5L47 5L47 3L43 3L43 5L41 5L41 4L42 4L42 3ZM27 5L27 8L30 8L30 5ZM28 6L28 7L29 7L29 6ZM42 6L42 7L43 7L43 6ZM44 6L44 7L45 7L45 6ZM20 8L20 9L21 9L21 11L20 11L20 12L19 12L19 13L18 13L18 12L17 12L17 11L18 11L18 10L15 10L15 13L18 13L18 14L19 14L19 13L22 13L22 12L21 12L21 11L22 11L22 10L23 10L23 9L21 9L21 8ZM39 8L39 9L40 9L40 8ZM24 9L24 12L25 12L25 13L23 13L23 14L21 14L21 15L22 15L22 16L19 16L19 15L18 15L18 17L19 17L19 18L18 18L18 19L20 19L20 17L21 17L21 18L25 18L25 19L24 19L24 20L23 20L23 21L22 21L22 19L21 19L21 21L19 21L19 20L18 20L18 21L19 21L19 22L17 22L17 24L16 24L16 23L15 23L15 24L16 24L16 25L18 25L18 27L17 27L17 28L18 28L18 29L17 29L17 30L18 30L18 31L19 31L19 29L21 29L21 30L20 30L20 31L21 31L21 32L20 32L20 33L19 33L19 32L18 32L18 33L17 33L17 31L15 31L15 32L14 32L14 33L17 33L17 35L18 35L18 37L20 37L20 36L21 36L21 35L23 35L23 36L24 36L24 37L21 37L21 38L24 38L24 37L28 37L28 38L26 38L26 39L25 39L25 40L24 40L24 39L22 39L22 40L21 40L21 42L20 42L20 41L19 41L19 39L20 39L20 38L17 38L17 37L16 37L16 36L15 36L15 35L16 35L16 34L13 34L13 36L14 36L14 37L12 37L12 38L13 38L13 39L11 39L11 41L10 41L10 38L11 38L11 37L10 37L10 38L9 38L9 39L8 39L8 41L10 41L10 42L6 42L6 43L7 43L7 44L8 44L8 43L10 43L10 42L11 42L11 41L12 41L12 40L15 40L15 39L16 39L16 40L17 40L17 41L19 41L19 42L20 42L20 43L19 43L19 45L22 45L22 44L20 44L20 43L22 43L22 42L23 42L23 43L24 43L24 44L25 44L25 45L26 45L26 44L25 44L25 42L26 42L26 43L27 43L27 44L28 44L28 43L33 43L33 44L34 44L34 43L35 43L35 44L36 44L36 45L35 45L35 46L33 46L33 45L32 45L32 46L33 46L33 47L31 47L31 48L33 48L33 50L34 50L34 49L35 49L35 48L36 48L36 49L38 49L38 48L36 48L36 47L40 47L40 48L41 48L41 47L42 47L42 46L41 46L41 47L40 47L40 46L36 46L36 45L38 45L38 44L36 44L36 43L35 43L35 42L34 42L34 43L33 43L33 41L36 41L36 42L37 42L37 43L39 43L39 42L40 42L40 40L42 40L42 41L41 41L41 42L43 42L43 41L44 41L44 42L45 42L45 41L46 41L46 40L47 40L47 39L46 39L46 38L45 38L45 37L44 37L44 35L42 35L42 34L45 34L45 33L46 33L46 32L48 32L48 31L47 31L47 30L46 30L46 31L44 31L44 30L43 30L43 29L44 29L44 28L43 28L43 27L44 27L44 26L45 26L45 25L41 25L41 26L43 26L43 27L42 27L42 28L43 28L43 29L42 29L42 30L40 30L40 28L41 28L41 27L40 27L40 26L38 26L38 24L40 24L40 22L41 22L41 24L46 24L46 25L47 25L47 23L49 23L49 22L50 22L50 19L51 19L51 20L52 20L52 19L53 19L53 20L55 20L55 19L53 19L53 17L54 17L54 18L55 18L55 17L54 17L54 16L53 16L53 15L52 15L52 16L53 16L53 17L52 17L52 18L50 18L50 17L51 17L51 15L50 15L50 17L49 17L49 16L48 16L48 17L47 17L47 18L46 18L46 19L47 19L47 18L48 18L48 20L47 20L47 22L46 22L46 23L45 23L45 21L46 21L46 20L45 20L45 19L43 19L43 20L42 20L42 19L40 19L40 18L38 18L38 17L39 17L39 16L38 16L38 17L37 17L37 16L36 16L36 17L37 17L37 18L36 18L36 19L37 19L37 18L38 18L38 19L40 19L40 20L36 20L36 21L37 21L37 22L36 22L36 23L34 23L34 22L33 22L33 21L32 21L32 20L34 20L34 19L35 19L35 18L33 18L33 19L32 19L32 16L31 16L31 17L29 17L29 18L31 18L31 20L29 20L29 19L28 19L28 18L25 18L25 17L28 17L28 16L25 16L25 15L26 15L26 14L25 14L25 13L28 13L28 12L29 12L29 11L28 11L28 10L26 10L26 11L27 11L27 12L25 12L25 9ZM31 9L31 10L32 10L32 9ZM4 10L4 11L5 11L5 10ZM12 11L12 16L11 16L11 17L7 17L7 16L9 16L9 15L7 15L7 14L8 14L8 13L7 13L7 12L6 12L6 13L7 13L7 14L6 14L6 15L7 15L7 16L5 16L5 17L7 17L7 18L6 18L6 19L5 19L5 20L6 20L6 21L7 21L7 20L8 20L8 19L9 19L9 18L11 18L11 17L12 17L12 18L13 18L13 17L14 17L14 16L15 16L15 17L17 17L17 16L15 16L15 15L14 15L14 13L13 13L13 12L14 12L14 11ZM34 11L34 12L35 12L35 11ZM36 11L36 12L37 12L37 11ZM52 11L52 12L53 12L53 11ZM51 13L51 14L52 14L52 13ZM16 14L16 15L17 15L17 14ZM23 14L23 15L25 15L25 14ZM22 16L22 17L25 17L25 16ZM7 18L7 19L6 19L6 20L7 20L7 19L8 19L8 18ZM49 18L49 19L50 19L50 18ZM0 19L0 20L1 20L1 19ZM26 19L26 20L28 20L28 22L27 22L27 21L25 21L25 22L26 22L26 23L25 23L25 24L26 24L26 25L25 25L25 26L24 26L24 27L23 27L23 28L24 28L24 29L22 29L22 28L21 28L21 27L22 27L22 26L23 26L23 24L24 24L24 23L23 23L23 24L22 24L22 23L21 23L21 24L19 24L19 25L20 25L20 27L19 27L19 28L21 28L21 29L22 29L22 31L24 31L24 29L25 29L25 30L26 30L26 27L25 27L25 26L26 26L26 25L27 25L27 24L28 24L28 26L30 26L30 25L32 25L32 26L31 26L31 28L32 28L32 29L31 29L31 31L30 31L30 33L27 33L27 32L29 32L29 31L25 31L25 32L22 32L22 33L25 33L25 34L24 34L24 36L28 36L28 37L29 37L29 36L30 36L30 38L31 38L31 39L29 39L29 41L26 41L26 42L29 42L29 41L30 41L30 42L32 42L32 41L30 41L30 40L33 40L33 39L34 39L34 40L36 40L36 39L37 39L37 40L40 40L40 39L42 39L42 40L43 40L43 39L44 39L44 41L45 41L45 38L44 38L44 37L43 37L43 38L41 38L41 37L42 37L42 36L40 36L40 35L41 35L41 34L42 34L42 32L39 32L39 31L40 31L40 30L39 30L39 28L38 28L38 26L37 26L37 25L36 25L36 24L38 24L38 23L39 23L39 21L38 21L38 23L36 23L36 24L34 24L34 23L32 23L32 24L30 24L30 25L29 25L29 24L28 24L28 22L30 22L30 23L31 23L31 22L30 22L30 21L29 21L29 20L28 20L28 19ZM40 20L40 21L41 21L41 22L42 22L42 23L44 23L44 21L45 21L45 20L43 20L43 22L42 22L42 21L41 21L41 20ZM9 21L9 22L8 22L8 23L5 23L5 24L7 24L7 25L6 25L6 26L8 26L8 24L9 24L9 28L10 28L10 29L11 29L11 26L10 26L10 25L11 25L11 23L12 23L12 24L13 24L13 23L12 23L12 22L10 22L10 21ZM15 21L15 22L16 22L16 21ZM21 21L21 22L22 22L22 21ZM23 21L23 22L24 22L24 21ZM19 22L19 23L20 23L20 22ZM1 23L1 24L2 24L2 23ZM9 23L9 24L10 24L10 23ZM50 24L50 25L51 25L51 24ZM21 25L21 26L22 26L22 25ZM33 25L33 27L34 27L34 28L33 28L33 29L32 29L32 31L31 31L31 32L34 32L34 33L33 33L33 34L34 34L34 35L33 35L33 37L34 37L34 36L35 36L35 35L38 35L38 36L36 36L36 37L35 37L35 38L37 38L37 39L40 39L40 38L38 38L38 36L39 36L39 37L40 37L40 36L39 36L39 34L40 34L40 33L39 33L39 32L38 32L38 31L37 31L37 30L38 30L38 28L36 28L36 27L35 27L35 26L36 26L36 25L35 25L35 26L34 26L34 25ZM1 27L1 28L2 28L2 27ZM5 27L5 30L8 30L8 27ZM24 27L24 28L25 28L25 27ZM27 27L27 30L30 30L30 27ZM49 27L49 30L52 30L52 27ZM6 28L6 29L7 29L7 28ZM28 28L28 29L29 29L29 28ZM50 28L50 29L51 29L51 28ZM33 29L33 30L35 30L35 31L34 31L34 32L37 32L37 34L39 34L39 33L38 33L38 32L37 32L37 31L36 31L36 30L35 30L35 29ZM9 30L9 31L10 31L10 30ZM42 30L42 31L43 31L43 32L44 32L44 33L45 33L45 32L44 32L44 31L43 31L43 30ZM18 33L18 35L19 35L19 36L20 36L20 35L21 35L21 33L20 33L20 34L19 34L19 33ZM26 33L26 34L25 34L25 35L27 35L27 33ZM34 33L34 34L36 34L36 33ZM4 34L4 35L5 35L5 34ZM29 34L29 35L30 35L30 36L31 36L31 38L32 38L32 35L30 35L30 34ZM6 36L6 37L7 37L7 36ZM15 37L15 38L16 38L16 37ZM3 38L3 39L4 39L4 38ZM6 38L6 39L7 39L7 38ZM17 39L17 40L18 40L18 39ZM26 39L26 40L28 40L28 39ZM3 40L3 41L4 41L4 40ZM22 40L22 41L23 41L23 40ZM37 41L37 42L39 42L39 41ZM52 41L52 42L53 42L53 43L54 43L54 41ZM17 42L17 43L18 43L18 42ZM50 42L50 43L51 43L51 42ZM41 43L41 44L43 44L43 43ZM9 44L9 45L10 45L10 44ZM1 46L1 47L2 47L2 46ZM54 46L54 47L55 47L55 46ZM27 47L27 48L29 48L29 47ZM33 47L33 48L35 48L35 47ZM10 49L10 51L11 51L11 49ZM27 49L27 52L30 52L30 49ZM49 49L49 52L52 52L52 49ZM54 49L54 50L57 50L57 49ZM12 50L12 51L13 51L13 50ZM28 50L28 51L29 51L29 50ZM50 50L50 51L51 51L51 50ZM32 51L32 52L34 52L34 51ZM18 53L18 54L19 54L19 55L18 55L18 56L19 56L19 55L20 55L20 54L19 54L19 53ZM29 53L29 54L30 54L30 53ZM43 53L43 56L44 56L44 55L46 55L46 54L44 54L44 53ZM12 54L12 55L13 55L13 54ZM25 54L25 56L26 56L26 54ZM15 55L15 56L16 56L16 55ZM0 0L0 7L7 7L7 0ZM1 1L1 6L6 6L6 1ZM2 2L2 5L5 5L5 2ZM50 0L50 7L57 7L57 0ZM51 1L51 6L56 6L56 1ZM52 2L52 5L55 5L55 2ZM0 50L0 57L7 57L7 50ZM1 51L1 56L6 56L6 51ZM2 52L2 55L5 55L5 52Z" fill="#000000"/></g></g></svg>
