<?xml version="1.0" encoding="UTF-8"?>
<svg xmlns="http://www.w3.org/2000/svg" version="1.1" width="300" height="300" viewBox="0 0 300 300"><rect x="0" y="0" width="300" height="300" fill="#ffffff"/><g transform="scale(4.918)"><g transform="translate(2,2)"><path fill-rule="evenodd" d="M8 0L8 1L11 1L11 2L8 2L8 5L9 5L9 6L8 6L8 7L9 7L9 6L10 6L10 9L9 9L9 8L8 8L8 10L5 10L5 11L4 11L4 8L0 8L0 11L3 11L3 12L2 12L2 14L0 14L0 20L1 20L1 21L4 21L4 25L3 25L3 24L0 24L0 27L1 27L1 30L3 30L3 31L1 31L1 32L0 32L0 34L1 34L1 33L2 33L2 34L3 34L3 35L2 35L2 36L3 36L3 37L4 37L4 38L3 38L3 39L4 39L4 40L2 40L2 39L1 39L1 37L0 37L0 40L1 40L1 41L5 41L5 40L6 40L6 41L7 41L7 42L6 42L6 43L7 43L7 44L5 44L5 42L3 42L3 43L2 43L2 42L0 42L0 45L1 45L1 43L2 43L2 44L3 44L3 45L2 45L2 47L1 47L1 46L0 46L0 48L5 48L5 47L7 47L7 48L6 48L6 49L7 49L7 48L8 48L8 50L9 50L9 52L10 52L10 53L8 53L8 57L9 57L9 56L10 56L10 57L11 57L11 56L15 56L15 55L14 55L14 54L15 54L15 53L16 53L16 54L17 54L17 55L19 55L19 57L24 57L24 55L25 55L25 54L26 54L26 56L27 56L27 57L30 57L30 55L31 55L31 56L33 56L33 57L34 57L34 56L35 56L35 57L36 57L36 56L38 56L38 55L39 55L39 57L42 57L42 56L48 56L48 57L51 57L51 53L53 53L53 55L52 55L52 57L53 57L53 55L55 55L55 54L56 54L56 53L57 53L57 51L56 51L56 53L55 53L55 51L53 51L53 49L54 49L54 48L53 48L53 46L52 46L52 43L51 43L51 45L50 45L50 42L53 42L53 41L55 41L55 42L54 42L54 43L56 43L56 42L57 42L57 40L56 40L56 41L55 41L55 38L56 38L56 39L57 39L57 38L56 38L56 37L55 37L55 38L54 38L54 35L53 35L53 34L51 34L51 33L50 33L50 32L49 32L49 31L51 31L51 32L52 32L52 31L53 31L53 33L54 33L54 34L55 34L55 35L57 35L57 31L56 31L56 30L57 30L57 27L55 27L55 26L57 26L57 25L56 25L56 23L57 23L57 21L55 21L55 20L54 20L54 22L55 22L55 26L54 26L54 24L53 24L53 25L50 25L50 23L45 23L45 24L47 24L47 26L48 26L48 28L46 28L46 27L44 27L44 28L43 28L43 26L39 26L39 25L38 25L38 24L37 24L37 23L36 23L36 22L35 22L35 23L32 23L32 22L33 22L33 21L31 21L31 20L32 20L32 19L33 19L33 18L32 18L32 17L34 17L34 21L35 21L35 20L37 20L37 22L38 22L38 23L39 23L39 22L43 22L43 21L44 21L44 22L45 22L45 21L47 21L47 22L50 22L50 21L47 21L47 20L46 20L46 19L47 19L47 18L48 18L48 20L51 20L51 22L53 22L53 19L52 19L52 20L51 20L51 19L50 19L50 18L48 18L48 17L46 17L46 19L45 19L45 21L44 21L44 19L43 19L43 21L41 21L41 19L42 19L42 18L41 18L41 17L40 17L40 16L41 16L41 15L42 15L42 16L44 16L44 18L45 18L45 16L47 16L47 15L48 15L48 14L47 14L47 15L44 15L44 14L45 14L45 13L46 13L46 12L47 12L47 10L46 10L46 11L45 11L45 9L43 9L43 8L42 8L42 11L43 11L43 12L42 12L42 13L40 13L40 11L41 11L41 8L38 8L38 7L39 7L39 4L40 4L40 3L39 3L39 2L38 2L38 1L37 1L37 0L36 0L36 1L34 1L34 2L36 2L36 4L35 4L35 3L34 3L34 4L35 4L35 6L34 6L34 5L33 5L33 4L32 4L32 3L33 3L33 0L32 0L32 3L31 3L31 4L30 4L30 2L31 2L31 0L27 0L27 2L26 2L26 4L25 4L25 2L24 2L24 8L22 8L22 7L23 7L23 6L22 6L22 7L21 7L21 6L20 6L20 8L19 8L19 6L18 6L18 7L17 7L17 6L16 6L16 7L15 7L15 6L14 6L14 7L13 7L13 6L12 6L12 7L11 7L11 5L12 5L12 4L13 4L13 5L14 5L14 3L15 3L15 5L17 5L17 4L16 4L16 3L15 3L15 1L16 1L16 2L17 2L17 3L18 3L18 5L19 5L19 4L20 4L20 5L23 5L23 4L22 4L22 3L23 3L23 2L22 2L22 1L23 1L23 0L21 0L21 1L20 1L20 3L19 3L19 2L18 2L18 1L16 1L16 0L14 0L14 2L12 2L12 0ZM24 0L24 1L26 1L26 0ZM42 0L42 2L44 2L44 3L45 3L45 2L46 2L46 3L47 3L47 5L45 5L45 6L44 6L44 5L43 5L43 6L42 6L42 5L41 5L41 6L40 6L40 7L41 7L41 6L42 6L42 7L43 7L43 6L44 6L44 7L45 7L45 6L46 6L46 8L47 8L47 9L48 9L48 10L49 10L49 11L48 11L48 12L49 12L49 13L50 13L50 14L49 14L49 15L50 15L50 16L49 16L49 17L50 17L50 16L51 16L51 17L52 17L52 18L55 18L55 17L56 17L56 18L57 18L57 15L54 15L54 14L55 14L55 13L53 13L53 14L51 14L51 13L50 13L50 12L49 12L49 11L50 11L50 10L49 10L49 9L50 9L50 8L47 8L47 5L48 5L48 0L45 0L45 1L43 1L43 0ZM28 1L28 2L27 2L27 4L29 4L29 1ZM46 1L46 2L47 2L47 1ZM11 2L11 4L12 4L12 2ZM9 3L9 5L10 5L10 3ZM20 3L20 4L21 4L21 3ZM37 3L37 4L36 4L36 5L37 5L37 7L38 7L38 5L37 5L37 4L39 4L39 3ZM41 3L41 4L43 4L43 3ZM31 4L31 5L32 5L32 6L31 6L31 7L32 7L32 8L31 8L31 12L32 12L32 15L31 15L31 13L30 13L30 14L27 14L27 15L26 15L26 13L25 13L25 11L26 11L26 12L28 12L28 13L29 13L29 11L30 11L30 9L28 9L28 10L27 10L27 9L25 9L25 11L23 11L23 9L20 9L20 10L19 10L19 11L20 11L20 12L18 12L18 9L19 9L19 8L18 8L18 9L17 9L17 8L15 8L15 7L14 7L14 8L13 8L13 9L11 9L11 10L10 10L10 11L9 11L9 10L8 10L8 11L5 11L5 12L3 12L3 16L4 16L4 15L5 15L5 17L4 17L4 18L5 18L5 19L4 19L4 20L5 20L5 19L6 19L6 20L7 20L7 19L6 19L6 18L7 18L7 17L9 17L9 21L8 21L8 23L6 23L6 22L7 22L7 21L5 21L5 23L6 23L6 24L5 24L5 25L4 25L4 26L3 26L3 25L2 25L2 27L3 27L3 28L2 28L2 29L3 29L3 30L4 30L4 26L5 26L5 25L6 25L6 26L7 26L7 25L6 25L6 24L8 24L8 25L9 25L9 27L11 27L11 24L10 24L10 25L9 25L9 24L8 24L8 23L9 23L9 21L10 21L10 18L11 18L11 15L10 15L10 16L9 16L9 15L8 15L8 14L10 14L10 13L11 13L11 12L10 12L10 11L13 11L13 13L15 13L15 14L14 14L14 16L16 16L16 14L17 14L17 19L13 19L13 16L12 16L12 19L13 19L13 22L14 22L14 23L13 23L13 24L12 24L12 27L13 27L13 28L11 28L11 29L10 29L10 28L9 28L9 31L6 31L6 32L4 32L4 31L3 31L3 32L2 32L2 33L3 33L3 34L5 34L5 35L3 35L3 36L8 36L8 35L9 35L9 34L10 34L10 33L16 33L16 34L14 34L14 35L13 35L13 37L11 37L11 38L10 38L10 39L11 39L11 38L12 38L12 40L11 40L11 41L10 41L10 40L9 40L9 41L10 41L10 42L9 42L9 43L8 43L8 42L7 42L7 43L8 43L8 44L9 44L9 43L10 43L10 42L11 42L11 41L12 41L12 40L13 40L13 42L12 42L12 43L11 43L11 44L12 44L12 43L14 43L14 41L16 41L16 39L18 39L18 35L19 35L19 36L20 36L20 37L19 37L19 40L17 40L17 42L15 42L15 45L14 45L14 44L13 44L13 45L14 45L14 46L13 46L13 47L12 47L12 46L11 46L11 45L8 45L8 46L9 46L9 47L10 47L10 48L9 48L9 50L10 50L10 51L13 51L13 50L15 50L15 49L14 49L14 48L16 48L16 47L17 47L17 46L18 46L18 48L19 48L19 49L21 49L21 51L22 51L22 53L21 53L21 54L25 54L25 52L26 52L26 51L25 51L25 52L24 52L24 50L26 50L26 48L25 48L25 47L29 47L29 48L30 48L30 47L31 47L31 45L30 45L30 44L26 44L26 42L27 42L27 43L29 43L29 42L30 42L30 41L31 41L31 43L32 43L32 45L33 45L33 46L32 46L32 47L33 47L33 48L32 48L32 49L31 49L31 50L32 50L32 51L31 51L31 52L32 52L32 51L33 51L33 53L28 53L28 54L27 54L27 56L29 56L29 54L34 54L34 53L35 53L35 54L36 54L36 53L37 53L37 55L38 55L38 54L40 54L40 56L42 56L42 54L43 54L43 55L45 55L45 54L43 54L43 52L40 52L40 50L41 50L41 51L42 51L42 50L43 50L43 51L44 51L44 52L45 52L45 50L46 50L46 51L48 51L48 50L47 50L47 49L48 49L48 47L47 47L47 48L46 48L46 49L45 49L45 48L44 48L44 47L42 47L42 44L43 44L43 45L44 45L44 46L45 46L45 47L46 47L46 46L47 46L47 45L48 45L48 46L49 46L49 48L50 48L50 45L49 45L49 42L50 42L50 40L49 40L49 37L51 37L51 38L50 38L50 39L53 39L53 37L52 37L52 36L53 36L53 35L52 35L52 36L50 36L50 33L48 33L48 29L47 29L47 31L46 31L46 28L45 28L45 31L44 31L44 30L43 30L43 29L41 29L41 28L42 28L42 27L40 27L40 29L39 29L39 26L38 26L38 27L37 27L37 25L36 25L36 26L35 26L35 24L36 24L36 23L35 23L35 24L34 24L34 27L32 27L32 26L31 26L31 25L33 25L33 24L31 24L31 23L30 23L30 21L28 21L28 22L29 22L29 23L28 23L28 25L27 25L27 23L26 23L26 25L23 25L23 24L25 24L25 22L27 22L27 20L29 20L29 19L30 19L30 20L31 20L31 19L32 19L32 18L31 18L31 17L30 17L30 18L28 18L28 19L27 19L27 20L25 20L25 19L24 19L24 18L25 18L25 16L26 16L26 18L27 18L27 17L29 17L29 16L30 16L30 15L31 15L31 16L32 16L32 15L34 15L34 16L35 16L35 14L36 14L36 17L35 17L35 19L37 19L37 20L38 20L38 22L39 22L39 21L40 21L40 20L38 20L38 19L37 19L37 17L38 17L38 18L40 18L40 17L38 17L38 15L40 15L40 14L38 14L38 15L37 15L37 13L34 13L34 14L33 14L33 12L34 12L34 10L35 10L35 12L38 12L38 13L39 13L39 12L38 12L38 11L40 11L40 10L39 10L39 9L38 9L38 8L36 8L36 6L35 6L35 9L34 9L34 6L33 6L33 5L32 5L32 4ZM25 5L25 8L26 8L26 5ZM27 5L27 8L30 8L30 5ZM28 6L28 7L29 7L29 6ZM32 6L32 7L33 7L33 6ZM48 6L48 7L49 7L49 6ZM6 8L6 9L7 9L7 8ZM52 8L52 9L51 9L51 10L53 10L53 9L55 9L55 10L54 10L54 11L55 11L55 10L56 10L56 11L57 11L57 8L56 8L56 9L55 9L55 8ZM1 9L1 10L3 10L3 9ZM13 9L13 10L14 10L14 11L16 11L16 10L15 10L15 9ZM32 9L32 11L33 11L33 9ZM35 9L35 10L36 10L36 11L38 11L38 10L37 10L37 9ZM28 10L28 11L29 11L29 10ZM43 10L43 11L44 11L44 13L45 13L45 11L44 11L44 10ZM8 11L8 12L6 12L6 13L4 13L4 14L6 14L6 15L7 15L7 16L6 16L6 17L7 17L7 16L8 16L8 15L7 15L7 14L6 14L6 13L9 13L9 11ZM21 11L21 12L20 12L20 13L19 13L19 16L20 16L20 15L21 15L21 17L22 17L22 18L24 18L24 16L25 16L25 15L24 15L24 12L23 12L23 11ZM51 11L51 12L52 12L52 11ZM15 12L15 13L17 13L17 14L18 14L18 12ZM22 12L22 14L21 14L21 15L22 15L22 17L23 17L23 15L22 15L22 14L23 14L23 12ZM42 13L42 14L43 14L43 13ZM12 14L12 15L13 15L13 14ZM1 15L1 16L2 16L2 15ZM52 15L52 17L54 17L54 15ZM1 17L1 18L2 18L2 20L3 20L3 18L2 18L2 17ZM14 17L14 18L16 18L16 17ZM18 17L18 19L19 19L19 18L20 18L20 20L19 20L19 22L21 22L21 23L20 23L20 24L18 24L18 21L17 21L17 20L14 20L14 21L15 21L15 23L14 23L14 25L15 25L15 26L13 26L13 27L14 27L14 28L16 28L16 30L14 30L14 31L13 31L13 30L12 30L12 29L11 29L11 30L10 30L10 31L9 31L9 32L12 32L12 31L13 31L13 32L15 32L15 31L17 31L17 33L18 33L18 31L17 31L17 30L18 30L18 28L20 28L20 26L21 26L21 29L22 29L22 30L20 30L20 32L19 32L19 33L21 33L21 34L22 34L22 33L23 33L23 34L24 34L24 35L23 35L23 36L24 36L24 39L23 39L23 41L22 41L22 40L20 40L20 41L22 41L22 42L20 42L20 45L21 45L21 44L22 44L22 45L24 45L24 46L25 46L25 42L24 42L24 39L25 39L25 41L26 41L26 40L27 40L27 38L29 38L29 39L28 39L28 41L27 41L27 42L29 42L29 41L30 41L30 40L29 40L29 39L30 39L30 38L31 38L31 40L32 40L32 41L33 41L33 40L34 40L34 42L32 42L32 43L37 43L37 45L36 45L36 44L33 44L33 45L35 45L35 46L34 46L34 48L36 48L36 49L35 49L35 50L37 50L37 49L38 49L38 53L39 53L39 50L40 50L40 46L38 46L38 45L41 45L41 44L39 44L39 43L41 43L41 42L42 42L42 40L43 40L43 41L45 41L45 43L46 43L46 44L47 44L47 42L48 42L48 40L47 40L47 39L48 39L48 38L46 38L46 37L47 37L47 36L49 36L49 35L47 35L47 34L48 34L48 33L47 33L47 32L46 32L46 31L45 31L45 34L43 34L43 33L41 33L41 31L42 31L42 30L38 30L38 28L37 28L37 29L35 29L35 27L34 27L34 29L33 29L33 28L32 28L32 27L31 27L31 26L29 26L29 25L31 25L31 24L29 24L29 25L28 25L28 26L26 26L26 29L25 29L25 28L23 28L23 27L22 27L22 26L21 26L21 24L23 24L23 23L22 23L22 22L23 22L23 21L24 21L24 22L25 22L25 21L24 21L24 20L22 20L22 19L21 19L21 18L20 18L20 17ZM56 19L56 20L57 20L57 19ZM11 20L11 21L12 21L12 20ZM20 20L20 21L21 21L21 20ZM16 21L16 23L15 23L15 25L16 25L16 27L19 27L19 26L20 26L20 25L19 25L19 26L17 26L17 24L16 24L16 23L17 23L17 21ZM1 22L1 23L3 23L3 22ZM10 22L10 23L11 23L11 22ZM42 23L42 24L41 24L41 25L44 25L44 23ZM48 24L48 26L49 26L49 24ZM45 25L45 26L46 26L46 25ZM24 26L24 27L25 27L25 26ZM53 26L53 27L54 27L54 26ZM5 27L5 30L8 30L8 27ZM27 27L27 30L30 30L30 27ZM49 27L49 30L52 30L52 27ZM6 28L6 29L7 29L7 28ZM28 28L28 29L29 29L29 28ZM50 28L50 29L51 29L51 28ZM53 28L53 31L54 31L54 32L55 32L55 29L56 29L56 28L55 28L55 29L54 29L54 28ZM24 29L24 30L25 30L25 29ZM31 29L31 31L32 31L32 34L33 34L33 35L30 35L30 34L31 34L31 33L29 33L29 31L28 31L28 32L26 32L26 31L24 31L24 33L25 33L25 34L26 34L26 33L27 33L27 34L28 34L28 35L29 35L29 36L28 36L28 37L29 37L29 38L30 38L30 37L31 37L31 36L32 36L32 37L33 37L33 36L34 36L34 34L35 34L35 33L38 33L38 34L36 34L36 35L35 35L35 37L34 37L34 38L35 38L35 37L36 37L36 39L37 39L37 37L36 37L36 35L37 35L37 36L38 36L38 35L39 35L39 33L40 33L40 32L39 32L39 33L38 33L38 31L37 31L37 32L36 32L36 31L35 31L35 33L33 33L33 32L34 32L34 31L33 31L33 29ZM11 30L11 31L12 31L12 30ZM22 30L22 32L23 32L23 30ZM3 32L3 33L4 33L4 32ZM6 32L6 33L5 33L5 34L6 34L6 35L8 35L8 33L7 33L7 32ZM6 33L6 34L7 34L7 33ZM46 33L46 34L47 34L47 33ZM55 33L55 34L56 34L56 33ZM11 34L11 35L10 35L10 36L9 36L9 37L10 37L10 36L12 36L12 34ZM40 34L40 38L39 38L39 39L38 39L38 41L37 41L37 40L35 40L35 39L34 39L34 40L35 40L35 41L37 41L37 43L39 43L39 42L41 42L41 39L40 39L40 38L41 38L41 37L42 37L42 38L44 38L44 39L43 39L43 40L45 40L45 41L46 41L46 40L45 40L45 39L46 39L46 38L45 38L45 37L46 37L46 35L43 35L43 36L42 36L42 35L41 35L41 34ZM0 35L0 36L1 36L1 35ZM14 35L14 36L15 36L15 38L14 38L14 37L13 37L13 39L15 39L15 38L17 38L17 37L16 37L16 36L15 36L15 35ZM20 35L20 36L21 36L21 37L20 37L20 38L23 38L23 37L22 37L22 35ZM25 36L25 39L26 39L26 37L27 37L27 36ZM29 36L29 37L30 37L30 36ZM43 36L43 37L44 37L44 36ZM6 37L6 38L7 38L7 37ZM4 38L4 39L5 39L5 38ZM8 38L8 39L9 39L9 38ZM32 38L32 39L33 39L33 38ZM6 39L6 40L7 40L7 41L8 41L8 40L7 40L7 39ZM39 39L39 41L40 41L40 39ZM17 42L17 45L18 45L18 46L19 46L19 48L20 48L20 47L21 47L21 46L19 46L19 43L18 43L18 42ZM22 42L22 44L23 44L23 42ZM3 43L3 44L4 44L4 43ZM43 43L43 44L44 44L44 43ZM53 44L53 45L54 45L54 47L56 47L56 48L57 48L57 44L56 44L56 46L55 46L55 44ZM4 45L4 46L3 46L3 47L5 47L5 45ZM6 45L6 46L7 46L7 45ZM15 45L15 47L16 47L16 45ZM29 45L29 46L30 46L30 45ZM45 45L45 46L46 46L46 45ZM10 46L10 47L11 47L11 48L10 48L10 50L11 50L11 48L12 48L12 49L13 49L13 48L14 48L14 47L13 47L13 48L12 48L12 47L11 47L11 46ZM35 46L35 47L37 47L37 48L38 48L38 49L39 49L39 47L38 47L38 46ZM51 46L51 47L52 47L52 46ZM23 47L23 48L24 48L24 49L25 49L25 48L24 48L24 47ZM41 48L41 49L43 49L43 48ZM16 49L16 53L17 53L17 54L18 54L18 53L19 53L19 55L20 55L20 56L23 56L23 55L20 55L20 52L19 52L19 51L20 51L20 50L18 50L18 49ZM27 49L27 52L30 52L30 49ZM33 49L33 50L34 50L34 49ZM44 49L44 50L45 50L45 49ZM49 49L49 52L52 52L52 49ZM22 50L22 51L23 51L23 50ZM28 50L28 51L29 51L29 50ZM50 50L50 51L51 51L51 50ZM14 51L14 53L15 53L15 51ZM34 51L34 52L35 52L35 51ZM36 51L36 52L37 52L37 51ZM46 52L46 53L47 53L47 54L46 54L46 55L47 55L47 54L49 54L49 55L48 55L48 56L50 56L50 54L49 54L49 53L47 53L47 52ZM53 52L53 53L54 53L54 54L55 54L55 53L54 53L54 52ZM10 53L10 55L11 55L11 54L12 54L12 53ZM40 53L40 54L42 54L42 53ZM33 55L33 56L34 56L34 55ZM35 55L35 56L36 56L36 55ZM56 55L56 56L57 56L57 55ZM16 56L16 57L18 57L18 56ZM54 56L54 57L55 57L55 56ZM0 0L0 7L7 7L7 0ZM1 1L1 6L6 6L6 1ZM2 2L2 5L5 5L5 2ZM50 0L50 7L57 7L57 0ZM51 1L51 6L56 6L56 1ZM52 2L52 5L55 5L55 2ZM0 50L0 57L7 57L7 50ZM1 51L1 56L6 56L6 51ZM2 52L2 55L5 55L5 52Z" fill="#000000"/></g></g></svg>
