<?xml version="1.0" encoding="UTF-8"?>
<svg xmlns="http://www.w3.org/2000/svg" version="1.1" width="300" height="300" viewBox="0 0 300 300"><rect x="0" y="0" width="300" height="300" fill="#ffffff"/><g transform="scale(4.918)"><g transform="translate(2,2)"><path fill-rule="evenodd" d="M9 0L9 1L8 1L8 2L9 2L9 1L10 1L10 2L11 2L11 3L10 3L10 4L9 4L9 3L8 3L8 4L9 4L9 5L8 5L8 7L9 7L9 8L6 8L6 9L5 9L5 8L0 8L0 10L2 10L2 12L1 12L1 13L0 13L0 14L1 14L1 15L2 15L2 14L1 14L1 13L4 13L4 14L5 14L5 17L4 17L4 15L3 15L3 19L0 19L0 26L1 26L1 25L2 25L2 26L3 26L3 25L2 25L2 24L4 24L4 31L3 31L3 32L1 32L1 33L2 33L2 34L6 34L6 35L7 35L7 34L6 34L6 33L7 33L7 32L5 32L5 31L13 31L13 34L11 34L11 33L12 33L12 32L11 32L11 33L10 33L10 32L9 32L9 34L11 34L11 35L13 35L13 36L12 36L12 37L13 37L13 36L14 36L14 35L15 35L15 37L14 37L14 38L13 38L13 39L12 39L12 40L11 40L11 36L9 36L9 35L8 35L8 37L7 37L7 36L5 36L5 35L4 35L4 36L3 36L3 35L0 35L0 37L7 37L7 38L6 38L6 39L7 39L7 40L5 40L5 39L4 39L4 38L1 38L1 39L4 39L4 42L5 42L5 43L7 43L7 42L5 42L5 41L8 41L8 44L4 44L4 45L5 45L5 47L3 47L3 45L0 45L0 48L5 48L5 47L8 47L8 48L6 48L6 49L8 49L8 51L9 51L9 50L10 50L10 52L11 52L11 57L19 57L19 56L20 56L20 57L21 57L21 56L22 56L22 54L23 54L23 55L24 55L24 56L23 56L23 57L26 57L26 55L27 55L27 56L28 56L28 55L27 55L27 53L28 53L28 54L29 54L29 55L30 55L30 56L29 56L29 57L31 57L31 56L33 56L33 55L37 55L37 56L34 56L34 57L38 57L38 55L40 55L40 56L42 56L42 57L44 57L44 56L42 56L42 55L43 55L43 53L44 53L44 54L46 54L46 56L45 56L45 57L47 57L47 56L48 56L48 55L49 55L49 56L50 56L50 54L53 54L53 52L57 52L57 51L53 51L53 48L55 48L55 49L54 49L54 50L57 50L57 49L56 49L56 48L57 48L57 47L56 47L56 46L57 46L57 43L56 43L56 42L55 42L55 39L57 39L57 37L54 37L54 36L55 36L55 34L57 34L57 31L56 31L56 30L57 30L57 28L55 28L55 27L56 27L56 26L55 26L55 25L56 25L56 24L55 24L55 23L56 23L56 22L57 22L57 21L56 21L56 20L57 20L57 19L56 19L56 20L55 20L55 18L57 18L57 17L54 17L54 16L56 16L56 14L57 14L57 12L56 12L56 13L54 13L54 14L55 14L55 15L54 15L54 16L53 16L53 15L52 15L52 16L53 16L53 18L52 18L52 17L51 17L51 19L52 19L52 20L51 20L51 22L50 22L50 19L49 19L49 18L50 18L50 17L49 17L49 16L48 16L48 17L47 17L47 16L46 16L46 15L49 15L49 13L47 13L47 14L46 14L46 12L45 12L45 11L46 11L46 10L45 10L45 9L44 9L44 8L43 8L43 3L47 3L47 5L46 5L46 4L44 4L44 5L45 5L45 6L44 6L44 7L45 7L45 8L46 8L46 9L48 9L48 10L49 10L49 11L47 11L47 12L49 12L49 11L50 11L50 13L51 13L51 14L50 14L50 16L51 16L51 14L52 14L52 13L51 13L51 10L49 10L49 9L50 9L50 8L49 8L49 6L48 6L48 8L47 8L47 5L48 5L48 0L46 0L46 1L47 1L47 2L43 2L43 3L42 3L42 4L41 4L41 5L40 5L40 3L41 3L41 2L39 2L39 1L44 1L44 0L39 0L39 1L37 1L37 0L35 0L35 1L34 1L34 0L32 0L32 1L34 1L34 2L30 2L30 1L31 1L31 0L30 0L30 1L28 1L28 3L27 3L27 1L26 1L26 0L21 0L21 2L20 2L20 3L19 3L19 1L20 1L20 0L19 0L19 1L18 1L18 2L15 2L15 0L14 0L14 2L13 2L13 1L12 1L12 0L11 0L11 1L10 1L10 0ZM22 1L22 2L23 2L23 3L22 3L22 4L21 4L21 3L20 3L20 4L18 4L18 3L16 3L16 4L15 4L15 2L14 2L14 4L13 4L13 2L12 2L12 3L11 3L11 4L13 4L13 5L12 5L12 6L11 6L11 5L9 5L9 7L10 7L10 9L11 9L11 7L12 7L12 6L13 6L13 7L14 7L14 9L13 9L13 8L12 8L12 9L13 9L13 11L12 11L12 12L11 12L11 10L8 10L8 9L6 9L6 10L7 10L7 11L6 11L6 12L5 12L5 14L7 14L7 13L6 13L6 12L7 12L7 11L8 11L8 15L6 15L6 16L7 16L7 17L6 17L6 18L7 18L7 19L5 19L5 18L4 18L4 19L5 19L5 20L2 20L2 21L1 21L1 23L4 23L4 21L5 21L5 20L9 20L9 18L10 18L10 16L9 16L9 15L11 15L11 16L12 16L12 17L11 17L11 18L15 18L15 17L16 17L16 18L17 18L17 17L16 17L16 16L17 16L17 15L18 15L18 13L19 13L19 14L21 14L21 15L19 15L19 17L18 17L18 18L19 18L19 19L18 19L18 20L19 20L19 21L17 21L17 19L16 19L16 20L15 20L15 21L12 21L12 20L14 20L14 19L11 19L11 21L9 21L9 23L8 23L8 22L7 22L7 21L6 21L6 22L7 22L7 23L5 23L5 24L7 24L7 25L5 25L5 26L8 26L8 25L9 25L9 26L10 26L10 25L11 25L11 23L12 23L12 25L13 25L13 26L12 26L12 27L13 27L13 26L17 26L17 27L18 27L18 25L16 25L16 24L17 24L17 23L20 23L20 22L19 22L19 21L21 21L21 22L22 22L22 23L21 23L21 24L20 24L20 26L21 26L21 27L22 27L22 26L23 26L23 24L24 24L24 23L23 23L23 22L24 22L24 21L23 21L23 20L24 20L24 19L20 19L20 18L21 18L21 17L23 17L23 14L24 14L24 13L25 13L25 14L26 14L26 15L25 15L25 16L24 16L24 17L25 17L25 18L26 18L26 20L25 20L25 22L26 22L26 23L25 23L25 24L26 24L26 25L25 25L25 26L24 26L24 28L23 28L23 29L22 29L22 28L21 28L21 29L20 29L20 27L19 27L19 29L20 29L20 30L19 30L19 31L18 31L18 30L17 30L17 29L18 29L18 28L17 28L17 29L16 29L16 28L15 28L15 29L14 29L14 31L15 31L15 30L17 30L17 31L16 31L16 32L17 32L17 31L18 31L18 32L19 32L19 33L16 33L16 34L17 34L17 35L18 35L18 34L19 34L19 35L21 35L21 34L22 34L22 35L23 35L23 36L20 36L20 37L18 37L18 36L16 36L16 37L15 37L15 38L16 38L16 37L17 37L17 40L19 40L19 42L18 42L18 41L16 41L16 39L15 39L15 40L14 40L14 39L13 39L13 40L12 40L12 42L11 42L11 43L10 43L10 42L9 42L9 44L8 44L8 45L6 45L6 46L8 46L8 47L9 47L9 45L10 45L10 48L9 48L9 49L10 49L10 48L11 48L11 49L12 49L12 50L13 50L13 49L14 49L14 50L15 50L15 49L16 49L16 50L17 50L17 51L16 51L16 52L15 52L15 53L13 53L13 52L14 52L14 51L13 51L13 52L12 52L12 51L11 51L11 52L12 52L12 53L13 53L13 54L15 54L15 55L16 55L16 56L17 56L17 54L19 54L19 55L20 55L20 54L19 54L19 53L21 53L21 54L22 54L22 53L23 53L23 54L24 54L24 53L23 53L23 51L24 51L24 50L21 50L21 49L20 49L20 47L21 47L21 48L22 48L22 49L26 49L26 48L30 48L30 47L25 47L25 46L29 46L29 45L30 45L30 44L31 44L31 43L30 43L30 42L31 42L31 41L32 41L32 42L35 42L35 43L34 43L34 44L32 44L32 46L31 46L31 48L32 48L32 50L31 50L31 52L32 52L32 54L36 54L36 53L33 53L33 52L32 52L32 51L33 51L33 50L37 50L37 51L38 51L38 52L37 52L37 54L39 54L39 52L40 52L40 55L41 55L41 53L43 53L43 52L40 52L40 51L41 51L41 50L42 50L42 51L44 51L44 53L45 53L45 51L46 51L46 54L47 54L47 53L48 53L48 52L47 52L47 51L48 51L48 48L49 48L49 47L51 47L51 46L49 46L49 45L52 45L52 46L54 46L54 45L55 45L55 46L56 46L56 44L54 44L54 45L52 45L52 44L53 44L53 43L54 43L54 40L53 40L53 39L51 39L51 38L54 38L54 39L55 39L55 38L54 38L54 37L49 37L49 38L48 38L48 39L46 39L46 38L47 38L47 37L48 37L48 36L52 36L52 34L53 34L53 33L51 33L51 32L50 32L50 31L48 31L48 29L46 29L46 30L45 30L45 31L46 31L46 34L45 34L45 32L43 32L43 34L42 34L42 33L41 33L41 32L40 32L40 30L39 30L39 29L41 29L41 30L42 30L42 31L43 31L43 30L44 30L44 29L45 29L45 28L44 28L44 27L43 27L43 28L42 28L42 26L40 26L40 25L42 25L42 24L41 24L41 23L43 23L43 26L45 26L45 27L46 27L46 28L48 28L48 25L50 25L50 26L51 26L51 25L52 25L52 26L53 26L53 27L55 27L55 26L54 26L54 25L55 25L55 24L51 24L51 23L50 23L50 22L49 22L49 24L48 24L48 23L47 23L47 21L48 21L48 20L43 20L43 22L40 22L40 23L38 23L38 24L37 24L37 23L36 23L36 22L39 22L39 20L40 20L40 21L41 21L41 20L42 20L42 19L46 19L46 18L47 18L47 17L46 17L46 16L44 16L44 15L43 15L43 14L42 14L42 10L40 10L40 9L41 9L41 8L42 8L42 9L43 9L43 8L42 8L42 5L41 5L41 8L40 8L40 6L39 6L39 9L38 9L38 6L37 6L37 5L39 5L39 4L37 4L37 5L36 5L36 3L37 3L37 2L36 2L36 1L35 1L35 2L34 2L34 3L32 3L32 4L31 4L31 7L32 7L32 6L33 6L33 7L34 7L34 8L32 8L32 9L31 9L31 11L30 11L30 12L31 12L31 11L33 11L33 10L35 10L35 7L36 7L36 6L37 6L37 9L36 9L36 10L37 10L37 11L36 11L36 12L37 12L37 11L38 11L38 10L40 10L40 11L41 11L41 12L40 12L40 14L39 14L39 12L38 12L38 14L37 14L37 13L36 13L36 14L35 14L35 13L33 13L33 12L32 12L32 13L31 13L31 15L32 15L32 14L35 14L35 15L34 15L34 18L32 18L32 17L33 17L33 16L30 16L30 13L29 13L29 12L28 12L28 13L27 13L27 14L26 14L26 13L25 13L25 12L27 12L27 11L26 11L26 10L28 10L28 11L29 11L29 9L26 9L26 6L25 6L25 4L26 4L26 3L25 3L25 4L24 4L24 2L26 2L26 1L24 1L24 2L23 2L23 1ZM29 2L29 3L28 3L28 4L29 4L29 3L30 3L30 2ZM34 3L34 4L33 4L33 5L34 5L34 7L35 7L35 6L36 6L36 5L34 5L34 4L35 4L35 3ZM14 4L14 5L13 5L13 6L14 6L14 7L15 7L15 6L16 6L16 8L17 8L17 9L19 9L19 11L22 11L22 10L25 10L25 8L24 8L24 7L25 7L25 6L24 6L24 7L23 7L23 6L22 6L22 5L24 5L24 4L22 4L22 5L21 5L21 6L20 6L20 5L18 5L18 4L16 4L16 5L15 5L15 4ZM14 5L14 6L15 6L15 5ZM17 5L17 7L18 7L18 5ZM27 5L27 8L30 8L30 5ZM10 6L10 7L11 7L11 6ZM19 6L19 9L20 9L20 10L22 10L22 9L24 9L24 8L23 8L23 7L22 7L22 6L21 6L21 7L20 7L20 6ZM28 6L28 7L29 7L29 6ZM45 6L45 7L46 7L46 6ZM21 8L21 9L22 9L22 8ZM48 8L48 9L49 9L49 8ZM51 8L51 9L52 9L52 8ZM53 8L53 9L54 9L54 8ZM55 8L55 11L54 11L54 10L53 10L53 11L52 11L52 12L53 12L53 11L54 11L54 12L55 12L55 11L56 11L56 8ZM2 9L2 10L3 10L3 9ZM4 9L4 10L5 10L5 9ZM14 9L14 10L15 10L15 13L18 13L18 12L17 12L17 11L18 11L18 10L15 10L15 9ZM32 9L32 10L33 10L33 9ZM37 9L37 10L38 10L38 9ZM9 11L9 13L10 13L10 14L11 14L11 15L12 15L12 16L13 16L13 17L14 17L14 16L13 16L13 14L14 14L14 15L15 15L15 16L16 16L16 15L17 15L17 14L16 14L16 15L15 15L15 14L14 14L14 13L13 13L13 12L14 12L14 11L13 11L13 12L12 12L12 13L13 13L13 14L11 14L11 13L10 13L10 11ZM34 11L34 12L35 12L35 11ZM43 11L43 12L44 12L44 13L45 13L45 12L44 12L44 11ZM19 12L19 13L22 13L22 12ZM23 12L23 13L24 13L24 12ZM28 13L28 14L27 14L27 15L29 15L29 13ZM40 14L40 15L38 15L38 16L41 16L41 17L42 17L42 18L41 18L41 19L40 19L40 17L39 17L39 18L37 18L37 16L36 16L36 15L35 15L35 16L36 16L36 17L35 17L35 18L34 18L34 19L32 19L32 18L31 18L31 17L29 17L29 18L31 18L31 19L30 19L30 22L29 22L29 23L28 23L28 22L27 22L27 24L29 24L29 23L30 23L30 25L29 25L29 26L28 26L28 25L26 25L26 26L25 26L25 27L26 27L26 30L25 30L25 29L23 29L23 31L24 31L24 32L25 32L25 33L22 33L22 34L23 34L23 35L24 35L24 37L21 37L21 39L22 39L22 40L20 40L20 41L22 41L22 42L20 42L20 43L22 43L22 42L23 42L23 41L22 41L22 40L24 40L24 39L22 39L22 38L24 38L24 37L28 37L28 38L26 38L26 39L25 39L25 41L24 41L24 43L23 43L23 45L24 45L24 46L25 46L25 45L26 45L26 44L25 44L25 45L24 45L24 43L25 43L25 42L26 42L26 43L27 43L27 45L29 45L29 44L30 44L30 43L29 43L29 42L30 42L30 41L31 41L31 40L34 40L34 41L35 41L35 42L36 42L36 43L35 43L35 44L36 44L36 45L35 45L35 46L33 46L33 47L32 47L32 48L34 48L34 47L37 47L37 48L35 48L35 49L37 49L37 50L38 50L38 51L39 51L39 50L41 50L41 49L39 49L39 48L41 48L41 47L42 47L42 46L43 46L43 45L44 45L44 46L45 46L45 47L44 47L44 48L42 48L42 50L43 50L43 49L44 49L44 48L45 48L45 50L46 50L46 51L47 51L47 50L46 50L46 49L47 49L47 48L45 48L45 47L47 47L47 46L48 46L48 45L49 45L49 44L51 44L51 43L50 43L50 42L52 42L52 41L53 41L53 40L51 40L51 41L49 41L49 42L48 42L48 43L47 43L47 42L45 42L45 41L46 41L46 39L45 39L45 41L44 41L44 39L43 39L43 37L44 37L44 38L45 38L45 37L46 37L46 36L45 36L45 37L44 37L44 34L43 34L43 35L42 35L42 34L41 34L41 35L40 35L40 36L39 36L39 37L40 37L40 36L41 36L41 39L42 39L42 40L41 40L41 42L43 42L43 43L41 43L41 44L43 44L43 45L42 45L42 46L36 46L36 45L37 45L37 44L36 44L36 43L37 43L37 42L38 42L38 41L37 41L37 40L36 40L36 39L38 39L38 40L39 40L39 39L40 39L40 38L39 38L39 39L38 39L38 35L39 35L39 34L34 34L34 33L40 33L40 32L38 32L38 31L39 31L39 30L37 30L37 29L39 29L39 28L36 28L36 29L35 29L35 27L37 27L37 26L38 26L38 25L39 25L39 24L38 24L38 25L37 25L37 24L36 24L36 23L34 23L34 22L33 22L33 21L32 21L32 20L34 20L34 21L35 21L35 20L34 20L34 19L37 19L37 20L36 20L36 21L37 21L37 20L38 20L38 19L40 19L40 20L41 20L41 19L42 19L42 18L44 18L44 16L43 16L43 15L42 15L42 14ZM21 15L21 16L20 16L20 17L19 17L19 18L20 18L20 17L21 17L21 16L22 16L22 15ZM41 15L41 16L42 16L42 15ZM1 16L1 17L0 17L0 18L1 18L1 17L2 17L2 16ZM8 16L8 17L7 17L7 18L8 18L8 17L9 17L9 16ZM25 16L25 17L28 17L28 16ZM45 17L45 18L46 18L46 17ZM27 18L27 20L26 20L26 21L27 21L27 20L28 20L28 18ZM53 18L53 19L54 19L54 18ZM21 20L21 21L22 21L22 22L23 22L23 21L22 21L22 20ZM52 20L52 21L53 21L53 22L52 22L52 23L53 23L53 22L54 22L54 23L55 23L55 22L54 22L54 21L55 21L55 20L54 20L54 21L53 21L53 20ZM15 21L15 22L16 22L16 21ZM44 21L44 24L46 24L46 25L45 25L45 26L46 26L46 27L47 27L47 26L46 26L46 25L48 25L48 24L46 24L46 22L45 22L45 21ZM30 22L30 23L31 23L31 25L32 25L32 26L33 26L33 25L34 25L34 26L35 26L35 25L36 25L36 24L35 24L35 25L34 25L34 23L33 23L33 24L32 24L32 23L31 23L31 22ZM7 23L7 24L8 24L8 23ZM15 23L15 24L16 24L16 23ZM50 24L50 25L51 25L51 24ZM2 27L2 28L3 28L3 27ZM5 27L5 30L8 30L8 27ZM9 27L9 30L11 30L11 29L12 29L12 30L13 30L13 28L10 28L10 27ZM27 27L27 30L30 30L30 27ZM33 27L33 28L31 28L31 29L32 29L32 30L31 30L31 31L25 31L25 30L24 30L24 31L25 31L25 32L26 32L26 33L25 33L25 34L27 34L27 35L25 35L25 36L28 36L28 37L29 37L29 36L30 36L30 38L31 38L31 39L29 39L29 40L28 40L28 39L26 39L26 40L28 40L28 41L26 41L26 42L29 42L29 41L30 41L30 40L31 40L31 39L33 39L33 38L34 38L34 39L36 39L36 38L35 38L35 37L36 37L36 36L37 36L37 35L35 35L35 36L33 36L33 35L34 35L34 34L33 34L33 32L32 32L32 31L33 31L33 30L35 30L35 31L34 31L34 32L37 32L37 30L35 30L35 29L33 29L33 28L34 28L34 27ZM49 27L49 30L52 30L52 27ZM6 28L6 29L7 29L7 28ZM28 28L28 29L29 29L29 28ZM43 28L43 29L42 29L42 30L43 30L43 29L44 29L44 28ZM50 28L50 29L51 29L51 28ZM54 28L54 29L53 29L53 30L54 30L54 31L52 31L52 32L54 32L54 33L55 33L55 32L56 32L56 31L55 31L55 30L56 30L56 29L55 29L55 28ZM0 29L0 31L2 31L2 30L3 30L3 29ZM21 29L21 30L20 30L20 31L22 31L22 29ZM54 29L54 30L55 30L55 29ZM46 30L46 31L47 31L47 32L48 32L48 31L47 31L47 30ZM54 31L54 32L55 32L55 31ZM3 32L3 33L4 33L4 32ZM20 32L20 33L21 33L21 32ZM27 32L27 33L30 33L30 32ZM31 32L31 33L32 33L32 32ZM47 33L47 34L46 34L46 35L47 35L47 36L48 36L48 35L50 35L50 34L51 34L51 33L50 33L50 34L48 34L48 33ZM29 34L29 35L30 35L30 36L31 36L31 38L32 38L32 34L31 34L31 35L30 35L30 34ZM41 35L41 36L42 36L42 35ZM56 35L56 36L57 36L57 35ZM7 38L7 39L8 39L8 40L9 40L9 39L8 39L8 38ZM18 38L18 39L20 39L20 38ZM49 38L49 39L50 39L50 38ZM1 40L1 41L0 41L0 42L1 42L1 43L0 43L0 44L1 44L1 43L2 43L2 44L3 44L3 43L2 43L2 41L3 41L3 40ZM13 40L13 41L14 41L14 40ZM42 40L42 41L43 41L43 42L44 42L44 43L43 43L43 44L44 44L44 45L45 45L45 42L44 42L44 41L43 41L43 40ZM12 42L12 43L11 43L11 44L10 44L10 45L11 45L11 47L14 47L14 46L13 46L13 45L12 45L12 43L13 43L13 44L14 44L14 43L13 43L13 42ZM15 42L15 47L16 47L16 49L17 49L17 47L16 47L16 45L18 45L18 46L19 46L19 47L18 47L18 49L19 49L19 47L20 47L20 45L22 45L22 44L20 44L20 45L18 45L18 44L16 44L16 43L18 43L18 42ZM39 43L39 44L40 44L40 43ZM48 43L48 44L47 44L47 45L46 45L46 46L47 46L47 45L48 45L48 44L49 44L49 43ZM1 46L1 47L2 47L2 46ZM21 46L21 47L22 47L22 48L23 48L23 47L22 47L22 46ZM24 47L24 48L25 48L25 47ZM38 47L38 48L39 48L39 47ZM52 47L52 48L53 48L53 47ZM14 48L14 49L15 49L15 48ZM27 49L27 52L30 52L30 49ZM38 49L38 50L39 50L39 49ZM49 49L49 52L52 52L52 49ZM18 50L18 51L19 51L19 50ZM20 50L20 51L21 51L21 53L22 53L22 51L21 51L21 50ZM25 50L25 53L26 53L26 50ZM28 50L28 51L29 51L29 50ZM50 50L50 51L51 51L51 50ZM35 51L35 52L36 52L36 51ZM8 52L8 57L10 57L10 53L9 53L9 52ZM18 52L18 53L19 53L19 52ZM15 53L15 54L16 54L16 53ZM29 53L29 54L30 54L30 53ZM25 54L25 55L26 55L26 54ZM54 54L54 55L51 55L51 57L52 57L52 56L55 56L55 57L56 57L56 56L55 56L55 54ZM12 55L12 56L14 56L14 55ZM0 0L0 7L7 7L7 0ZM1 1L1 6L6 6L6 1ZM2 2L2 5L5 5L5 2ZM50 0L50 7L57 7L57 0ZM51 1L51 6L56 6L56 1ZM52 2L52 5L55 5L55 2ZM0 50L0 57L7 57L7 50ZM1 51L1 56L6 56L6 51ZM2 52L2 55L5 55L5 52Z" fill="#000000"/></g></g></svg>
