<?xml version="1.0" encoding="UTF-8"?>
<svg xmlns="http://www.w3.org/2000/svg" version="1.1" width="300" height="300" viewBox="0 0 300 300"><rect x="0" y="0" width="300" height="300" fill="#ffffff"/><g transform="scale(4.918)"><g transform="translate(2,2)"><path fill-rule="evenodd" d="M9 0L9 1L8 1L8 2L9 2L9 3L8 3L8 4L10 4L10 1L11 1L11 2L13 2L13 3L11 3L11 5L13 5L13 6L12 6L12 8L10 8L10 9L9 9L9 8L6 8L6 9L5 9L5 8L0 8L0 10L1 10L1 11L0 11L0 12L1 12L1 11L2 11L2 13L3 13L3 9L5 9L5 10L4 10L4 11L5 11L5 12L4 12L4 13L5 13L5 14L6 14L6 15L4 15L4 14L2 14L2 15L1 15L1 14L0 14L0 16L2 16L2 17L0 17L0 20L2 20L2 21L0 21L0 22L2 22L2 21L3 21L3 22L4 22L4 20L5 20L5 22L6 22L6 23L9 23L9 24L6 24L6 25L5 25L5 23L1 23L1 24L0 24L0 25L1 25L1 24L2 24L2 25L3 25L3 24L4 24L4 25L5 25L5 26L4 26L4 30L3 30L3 29L1 29L1 28L3 28L3 27L2 27L2 26L1 26L1 27L0 27L0 30L3 30L3 32L2 32L2 31L1 31L1 32L0 32L0 33L1 33L1 34L2 34L2 35L0 35L0 36L2 36L2 38L4 38L4 39L5 39L5 40L2 40L2 39L1 39L1 40L0 40L0 45L1 45L1 43L2 43L2 42L3 42L3 43L4 43L4 41L5 41L5 43L7 43L7 44L2 44L2 45L3 45L3 46L2 46L2 47L1 47L1 46L0 46L0 48L5 48L5 47L8 47L8 51L9 51L9 52L8 52L8 57L10 57L10 55L11 55L11 57L13 57L13 56L14 56L14 55L16 55L16 57L19 57L19 55L20 55L20 54L19 54L19 55L17 55L17 53L16 53L16 52L17 52L17 51L18 51L18 53L20 53L20 52L22 52L22 51L18 51L18 49L19 49L19 48L18 48L18 49L17 49L17 48L16 48L16 47L17 47L17 46L18 46L18 47L19 47L19 45L21 45L21 46L20 46L20 47L21 47L21 48L20 48L20 49L21 49L21 50L23 50L23 51L25 51L25 49L22 49L22 48L25 48L25 47L27 47L27 46L28 46L28 45L30 45L30 46L29 46L29 47L30 47L30 48L26 48L26 52L24 52L24 53L21 53L21 55L22 55L22 54L24 54L24 53L26 53L26 54L25 54L25 55L26 55L26 54L27 54L27 53L28 53L28 54L30 54L30 53L31 53L31 56L30 56L30 55L29 55L29 56L30 56L30 57L32 57L32 56L33 56L33 57L39 57L39 56L40 56L40 52L41 52L41 53L42 53L42 54L41 54L41 57L44 57L44 56L46 56L46 57L47 57L47 56L46 56L46 54L45 54L45 53L46 53L46 52L45 52L45 53L44 53L44 50L45 50L45 51L47 51L47 52L48 52L48 53L49 53L49 54L47 54L47 55L49 55L49 57L50 57L50 53L51 53L51 54L53 54L53 51L54 51L54 52L55 52L55 53L56 53L56 52L57 52L57 51L55 51L55 50L57 50L57 47L56 47L56 46L57 46L57 45L56 45L56 44L57 44L57 43L56 43L56 42L57 42L57 41L56 41L56 42L55 42L55 41L54 41L54 40L55 40L55 39L57 39L57 37L56 37L56 36L55 36L55 35L53 35L53 34L52 34L52 37L53 37L53 36L55 36L55 37L54 37L54 40L53 40L53 39L52 39L52 38L51 38L51 36L50 36L50 38L48 38L48 39L49 39L49 40L50 40L50 38L51 38L51 40L52 40L52 41L49 41L49 43L47 43L47 42L46 42L46 41L47 41L47 39L46 39L46 38L45 38L45 37L46 37L46 36L45 36L45 37L44 37L44 35L42 35L42 34L44 34L44 32L45 32L45 31L44 31L44 32L43 32L43 31L42 31L42 30L44 30L44 27L43 27L43 26L45 26L45 25L44 25L44 24L43 24L43 25L42 25L42 24L41 24L41 23L42 23L42 22L43 22L43 21L40 21L40 20L42 20L42 18L43 18L43 20L46 20L46 19L49 19L49 20L48 20L48 21L47 21L47 23L48 23L48 24L46 24L46 25L48 25L48 29L47 29L47 28L46 28L46 27L47 27L47 26L46 26L46 27L45 27L45 30L46 30L46 31L47 31L47 32L48 32L48 31L49 31L49 34L48 34L48 33L47 33L47 34L46 34L46 33L45 33L45 34L46 34L46 35L50 35L50 33L53 33L53 32L56 32L56 30L57 30L57 29L54 29L54 28L57 28L57 27L56 27L56 26L55 26L55 25L54 25L54 24L56 24L56 22L57 22L57 21L54 21L54 20L55 20L55 18L57 18L57 17L56 17L56 16L55 16L55 15L56 15L56 14L57 14L57 11L56 11L56 10L55 10L55 11L54 11L54 10L53 10L53 11L52 11L52 8L51 8L51 10L49 10L49 9L50 9L50 8L49 8L49 9L47 9L47 10L46 10L46 9L44 9L44 8L43 8L43 6L42 6L42 7L41 7L41 5L43 5L43 4L41 4L41 5L40 5L40 3L41 3L41 1L47 1L47 2L42 2L42 3L47 3L47 5L46 5L46 4L44 4L44 5L46 5L46 7L45 7L45 6L44 6L44 7L45 7L45 8L47 8L47 5L48 5L48 0L41 0L41 1L40 1L40 0L39 0L39 1L38 1L38 0L36 0L36 1L38 1L38 2L37 2L37 3L36 3L36 5L35 5L35 6L34 6L34 5L33 5L33 6L32 6L32 7L31 7L31 4L32 4L32 3L33 3L33 2L32 2L32 0L30 0L30 1L28 1L28 0L27 0L27 1L26 1L26 2L27 2L27 1L28 1L28 3L27 3L27 4L26 4L26 3L23 3L23 4L22 4L22 2L21 2L21 4L19 4L19 3L18 3L18 2L20 2L20 0L19 0L19 1L18 1L18 0L17 0L17 1L18 1L18 2L17 2L17 3L18 3L18 4L17 4L17 5L18 5L18 4L19 4L19 5L20 5L20 7L19 7L19 6L18 6L18 7L17 7L17 6L16 6L16 7L15 7L15 6L14 6L14 5L16 5L16 4L14 4L14 3L15 3L15 2L14 2L14 1L16 1L16 0L12 0L12 1L11 1L11 0ZM21 0L21 1L23 1L23 2L25 2L25 0ZM33 0L33 1L34 1L34 2L35 2L35 1L34 1L34 0ZM30 1L30 2L29 2L29 3L28 3L28 4L30 4L30 3L31 3L31 1ZM38 2L38 3L37 3L37 4L38 4L38 6L37 6L37 5L36 5L36 6L35 6L35 7L34 7L34 6L33 6L33 7L32 7L32 8L31 8L31 9L32 9L32 10L29 10L29 9L28 9L28 10L29 10L29 11L30 11L30 12L28 12L28 13L27 13L27 14L26 14L26 13L25 13L25 12L27 12L27 11L26 11L26 10L27 10L27 9L25 9L25 12L24 12L24 11L23 11L23 13L22 13L22 12L21 12L21 11L22 11L22 10L23 10L23 8L24 8L24 6L23 6L23 5L24 5L24 4L23 4L23 5L22 5L22 4L21 4L21 8L19 8L19 9L16 9L16 8L17 8L17 7L16 7L16 8L15 8L15 7L14 7L14 6L13 6L13 7L14 7L14 9L10 9L10 11L11 11L11 10L12 10L12 11L13 11L13 12L12 12L12 13L13 13L13 15L14 15L14 14L15 14L15 15L18 15L18 16L19 16L19 17L15 17L15 16L14 16L14 17L15 17L15 18L13 18L13 16L12 16L12 14L11 14L11 13L10 13L10 15L9 15L9 11L8 11L8 13L6 13L6 12L7 12L7 11L6 11L6 10L9 10L9 9L6 9L6 10L5 10L5 11L6 11L6 12L5 12L5 13L6 13L6 14L8 14L8 15L9 15L9 16L8 16L8 17L9 17L9 18L8 18L8 19L9 19L9 21L6 21L6 22L10 22L10 23L12 23L12 22L10 22L10 21L14 21L14 22L13 22L13 24L11 24L11 29L12 29L12 30L13 30L13 31L14 31L14 32L15 32L15 33L16 33L16 34L17 34L17 35L16 35L16 36L14 36L14 35L15 35L15 34L14 34L14 35L13 35L13 33L12 33L12 31L11 31L11 30L10 30L10 33L12 33L12 35L9 35L9 34L7 34L7 33L9 33L9 32L8 32L8 31L4 31L4 32L3 32L3 33L4 33L4 34L3 34L3 36L5 36L5 37L6 37L6 38L7 38L7 39L6 39L6 40L7 40L7 39L8 39L8 41L9 41L9 43L8 43L8 44L7 44L7 45L6 45L6 46L7 46L7 45L9 45L9 46L8 46L8 47L9 47L9 48L10 48L10 45L9 45L9 44L10 44L10 42L11 42L11 45L12 45L12 46L11 46L11 47L12 47L12 48L14 48L14 46L17 46L17 45L18 45L18 44L17 44L17 43L18 43L18 42L19 42L19 44L21 44L21 45L22 45L22 47L25 47L25 46L27 46L27 45L28 45L28 44L31 44L31 43L28 43L28 42L30 42L30 41L32 41L32 42L33 42L33 41L34 41L34 42L35 42L35 40L37 40L37 39L38 39L38 40L39 40L39 41L38 41L38 42L37 42L37 43L34 43L34 44L32 44L32 46L31 46L31 48L32 48L32 51L31 51L31 52L32 52L32 54L36 54L36 52L38 52L38 51L37 51L37 50L39 50L39 49L37 49L37 50L36 50L36 49L35 49L35 48L40 48L40 49L41 49L41 50L40 50L40 51L39 51L39 52L40 52L40 51L41 51L41 50L42 50L42 51L43 51L43 50L44 50L44 49L45 49L45 50L47 50L47 51L48 51L48 48L49 48L49 47L52 47L52 48L53 48L53 49L55 49L55 48L56 48L56 47L55 47L55 46L56 46L56 45L55 45L55 44L56 44L56 43L55 43L55 44L54 44L54 45L52 45L52 44L53 44L53 43L54 43L54 41L52 41L52 42L53 42L53 43L52 43L52 44L47 44L47 45L46 45L46 46L47 46L47 47L46 47L46 48L47 48L47 49L45 49L45 48L44 48L44 46L42 46L42 45L43 45L43 44L44 44L44 45L45 45L45 44L44 44L44 43L46 43L46 42L44 42L44 41L45 41L45 38L44 38L44 37L43 37L43 36L42 36L42 37L43 37L43 39L41 39L41 36L40 36L40 35L41 35L41 34L42 34L42 31L41 31L41 30L42 30L42 29L43 29L43 28L42 28L42 27L40 27L40 28L38 28L38 26L39 26L39 25L40 25L40 26L41 26L41 24L38 24L38 26L37 26L37 25L36 25L36 26L35 26L35 24L37 24L37 23L38 23L38 22L39 22L39 21L38 21L38 20L40 20L40 19L41 19L41 18L42 18L42 16L40 16L40 15L38 15L38 18L37 18L37 19L36 19L36 18L35 18L35 17L36 17L36 16L37 16L37 14L39 14L39 13L40 13L40 14L42 14L42 15L43 15L43 16L44 16L44 17L43 17L43 18L44 18L44 19L46 19L46 18L47 18L47 17L48 17L48 16L49 16L49 15L50 15L50 16L51 16L51 17L50 17L50 18L49 18L49 19L50 19L50 22L48 22L48 23L50 23L50 24L48 24L48 25L49 25L49 26L53 26L53 27L55 27L55 26L54 26L54 25L53 25L53 24L54 24L54 23L55 23L55 22L54 22L54 21L53 21L53 20L52 20L52 21L53 21L53 24L52 24L52 23L50 23L50 22L51 22L51 19L53 19L53 18L51 18L51 17L53 17L53 16L54 16L54 17L55 17L55 16L54 16L54 14L55 14L55 13L56 13L56 12L54 12L54 11L53 11L53 12L52 12L52 11L49 11L49 12L47 12L47 11L48 11L48 10L47 10L47 11L46 11L46 10L44 10L44 11L43 11L43 12L44 12L44 13L43 13L43 14L42 14L42 10L40 10L40 11L41 11L41 12L38 12L38 13L37 13L37 14L36 14L36 16L35 16L35 15L34 15L34 16L32 16L32 14L35 14L35 13L33 13L33 12L32 12L32 11L34 11L34 12L35 12L35 11L36 11L36 10L37 10L37 11L38 11L38 10L39 10L39 9L42 9L42 8L41 8L41 7L40 7L40 6L39 6L39 4L38 4L38 3L39 3L39 2ZM13 4L13 5L14 5L14 4ZM25 4L25 8L26 8L26 4ZM8 5L8 7L9 7L9 5ZM27 5L27 8L30 8L30 5ZM10 6L10 7L11 7L11 6ZM22 6L22 7L23 7L23 6ZM28 6L28 7L29 7L29 6ZM36 6L36 7L37 7L37 6ZM38 6L38 8L34 8L34 9L37 9L37 10L38 10L38 8L39 8L39 6ZM48 6L48 7L49 7L49 6ZM53 8L53 9L54 9L54 8ZM55 8L55 9L56 9L56 8ZM1 9L1 10L2 10L2 9ZM19 9L19 10L18 10L18 11L17 11L17 12L16 12L16 11L15 11L15 10L13 10L13 11L14 11L14 12L13 12L13 13L17 13L17 14L18 14L18 15L20 15L20 14L19 14L19 13L21 13L21 15L24 15L24 16L25 16L25 17L21 17L21 16L20 16L20 17L19 17L19 18L16 18L16 19L15 19L15 21L16 21L16 22L15 22L15 23L14 23L14 24L15 24L15 23L16 23L16 25L17 25L17 26L16 26L16 27L18 27L18 26L20 26L20 27L19 27L19 28L20 28L20 29L18 29L18 28L14 28L14 27L15 27L15 25L12 25L12 27L13 27L13 30L15 30L15 29L18 29L18 30L20 30L20 29L22 29L22 28L20 28L20 27L22 27L22 26L23 26L23 28L25 28L25 27L26 27L26 30L25 30L25 29L23 29L23 30L21 30L21 31L23 31L23 32L25 32L25 33L22 33L22 32L20 32L20 33L19 33L19 31L18 31L18 33L19 33L19 34L18 34L18 35L19 35L19 34L20 34L20 35L21 35L21 36L22 36L22 35L26 35L26 38L25 38L25 36L23 36L23 37L19 37L19 36L18 36L18 37L19 37L19 38L18 38L18 39L17 39L17 42L15 42L15 40L16 40L16 39L14 39L14 42L13 42L13 43L12 43L12 44L13 44L13 46L14 46L14 45L15 45L15 44L13 44L13 43L17 43L17 42L18 42L18 41L19 41L19 42L20 42L20 43L21 43L21 44L22 44L22 45L23 45L23 46L25 46L25 45L26 45L26 44L28 44L28 43L26 43L26 44L25 44L25 45L23 45L23 43L24 43L24 42L25 42L25 41L21 41L21 42L20 42L20 40L22 40L22 39L24 39L24 40L25 40L25 39L27 39L27 40L28 40L28 39L27 39L27 38L28 38L28 37L27 37L27 35L26 35L26 34L27 34L27 33L29 33L29 34L30 34L30 35L29 35L29 39L31 39L31 38L32 38L32 35L31 35L31 34L34 34L34 35L33 35L33 36L35 36L35 34L36 34L36 35L37 35L37 36L36 36L36 37L35 37L35 38L34 38L34 37L33 37L33 38L34 38L34 40L35 40L35 38L36 38L36 39L37 39L37 36L38 36L38 35L40 35L40 34L41 34L41 33L39 33L39 34L38 34L38 31L39 31L39 32L41 32L41 31L39 31L39 30L41 30L41 29L39 29L39 30L37 30L37 29L38 29L38 28L37 28L37 27L36 27L36 28L35 28L35 26L34 26L34 25L33 25L33 24L35 24L35 23L34 23L34 22L33 22L33 21L32 21L32 20L35 20L35 18L34 18L34 17L33 17L33 18L34 18L34 19L32 19L32 16L31 16L31 14L32 14L32 12L31 12L31 14L30 14L30 13L28 13L28 14L27 14L27 16L25 16L25 15L24 15L24 14L25 14L25 13L23 13L23 14L22 14L22 13L21 13L21 12L19 12L19 11L20 11L20 9ZM21 9L21 10L22 10L22 9ZM17 12L17 13L18 13L18 12ZM45 12L45 15L44 15L44 16L46 16L46 15L49 15L49 14L50 14L50 13L51 13L51 14L52 14L52 13L51 13L51 12L50 12L50 13L47 13L47 14L46 14L46 12ZM29 14L29 15L28 15L28 16L27 16L27 17L28 17L28 16L29 16L29 17L31 17L31 16L30 16L30 14ZM3 15L3 18L4 18L4 19L3 19L3 20L4 20L4 19L6 19L6 20L7 20L7 19L6 19L6 18L7 18L7 17L6 17L6 16L7 16L7 15L6 15L6 16L5 16L5 18L4 18L4 15ZM9 16L9 17L10 17L10 16ZM11 16L11 18L9 18L9 19L10 19L10 20L11 20L11 19L12 19L12 20L14 20L14 19L13 19L13 18L12 18L12 16ZM39 16L39 17L40 17L40 16ZM20 17L20 18L19 18L19 19L18 19L18 20L17 20L17 19L16 19L16 21L17 21L17 22L20 22L20 23L18 23L18 24L19 24L19 25L20 25L20 26L22 26L22 25L25 25L25 26L26 26L26 25L27 25L27 26L28 26L28 25L30 25L30 24L33 24L33 23L31 23L31 22L30 22L30 21L31 21L31 20L30 20L30 19L31 19L31 18L29 18L29 19L28 19L28 18L27 18L27 19L26 19L26 20L25 20L25 19L21 19L21 17ZM44 17L44 18L46 18L46 17ZM38 18L38 19L37 19L37 20L36 20L36 21L37 21L37 22L36 22L36 23L37 23L37 22L38 22L38 21L37 21L37 20L38 20L38 19L39 19L39 18ZM50 18L50 19L51 19L51 18ZM20 19L20 20L18 20L18 21L20 21L20 20L21 20L21 21L22 21L22 24L21 24L21 25L22 25L22 24L24 24L24 23L23 23L23 22L24 22L24 21L25 21L25 22L26 22L26 23L25 23L25 24L27 24L27 25L28 25L28 24L30 24L30 22L29 22L29 21L30 21L30 20L29 20L29 21L27 21L27 20L26 20L26 21L25 21L25 20L24 20L24 21L22 21L22 20L21 20L21 19ZM56 19L56 20L57 20L57 19ZM44 21L44 23L46 23L46 22L45 22L45 21ZM27 22L27 24L28 24L28 23L29 23L29 22ZM40 22L40 23L41 23L41 22ZM50 24L50 25L52 25L52 24ZM6 25L6 26L8 26L8 25ZM31 25L31 26L32 26L32 25ZM33 26L33 27L32 27L32 29L31 29L31 30L32 30L32 31L28 31L28 32L29 32L29 33L30 33L30 32L32 32L32 33L34 33L34 34L35 34L35 33L36 33L36 34L37 34L37 35L38 35L38 34L37 34L37 33L36 33L36 32L37 32L37 30L36 30L36 32L35 32L35 31L33 31L33 30L35 30L35 29L33 29L33 28L34 28L34 26ZM5 27L5 30L8 30L8 27ZM9 27L9 29L10 29L10 27ZM27 27L27 30L30 30L30 27ZM49 27L49 30L52 30L52 27ZM6 28L6 29L7 29L7 28ZM28 28L28 29L29 29L29 28ZM50 28L50 29L51 29L51 28ZM32 29L32 30L33 30L33 29ZM46 29L46 30L47 30L47 31L48 31L48 30L47 30L47 29ZM53 29L53 30L54 30L54 31L55 31L55 30L54 30L54 29ZM16 30L16 31L15 31L15 32L16 32L16 33L17 33L17 32L16 32L16 31L17 31L17 30ZM23 30L23 31L25 31L25 32L27 32L27 31L25 31L25 30ZM32 31L32 32L33 32L33 31ZM51 31L51 32L53 32L53 31ZM1 32L1 33L2 33L2 32ZM5 32L5 33L7 33L7 32ZM20 33L20 34L21 34L21 33ZM25 33L25 34L26 34L26 33ZM54 33L54 34L57 34L57 33ZM6 34L6 35L7 35L7 34ZM8 35L8 36L6 36L6 37L8 37L8 39L10 39L10 40L11 40L11 42L12 42L12 41L13 41L13 39L10 39L10 38L16 38L16 37L14 37L14 36L13 36L13 37L11 37L11 36L9 36L9 35ZM8 36L8 37L9 37L9 36ZM30 36L30 38L31 38L31 36ZM39 36L39 37L40 37L40 36ZM0 37L0 38L1 38L1 37ZM23 37L23 38L24 38L24 37ZM19 38L19 39L18 39L18 40L19 40L19 39L20 39L20 38ZM38 38L38 39L40 39L40 38ZM1 40L1 41L2 41L2 40ZM43 40L43 41L41 41L41 42L39 42L39 44L38 44L38 43L37 43L37 44L35 44L35 46L33 46L33 47L32 47L32 48L33 48L33 47L40 47L40 48L41 48L41 49L42 49L42 50L43 50L43 49L44 49L44 48L41 48L41 47L42 47L42 46L41 46L41 45L39 45L39 44L40 44L40 43L41 43L41 44L43 44L43 43L44 43L44 42L43 42L43 41L44 41L44 40ZM6 41L6 42L7 42L7 41ZM26 41L26 42L27 42L27 41ZM21 42L21 43L22 43L22 42ZM41 42L41 43L42 43L42 42ZM50 42L50 43L51 43L51 42ZM16 44L16 45L17 45L17 44ZM4 45L4 46L3 46L3 47L5 47L5 45ZM36 45L36 46L39 46L39 45ZM47 45L47 46L48 46L48 45ZM49 45L49 46L52 46L52 47L53 47L53 48L55 48L55 47L54 47L54 46L55 46L55 45L54 45L54 46L52 46L52 45ZM40 46L40 47L41 47L41 46ZM6 48L6 49L7 49L7 48ZM9 49L9 50L11 50L11 49ZM13 49L13 51L12 51L12 52L14 52L14 51L15 51L15 49ZM16 49L16 50L17 50L17 49ZM27 49L27 52L30 52L30 49ZM33 49L33 50L34 50L34 51L32 51L32 52L33 52L33 53L35 53L35 52L36 52L36 51L35 51L35 50L34 50L34 49ZM49 49L49 52L52 52L52 49ZM28 50L28 51L29 51L29 50ZM50 50L50 51L51 51L51 50ZM10 51L10 52L9 52L9 54L11 54L11 53L10 53L10 52L11 52L11 51ZM34 51L34 52L35 52L35 51ZM12 53L12 56L13 56L13 55L14 55L14 53ZM15 53L15 54L16 54L16 53ZM38 53L38 56L39 56L39 53ZM43 53L43 54L42 54L42 55L45 55L45 54L44 54L44 53ZM54 54L54 56L53 56L53 55L51 55L51 57L52 57L52 56L53 56L53 57L54 57L54 56L55 56L55 57L56 57L56 56L55 56L55 54ZM23 55L23 56L24 56L24 55ZM27 55L27 56L28 56L28 55ZM34 55L34 56L36 56L36 55ZM20 56L20 57L21 57L21 56ZM25 56L25 57L26 57L26 56ZM0 0L0 7L7 7L7 0ZM1 1L1 6L6 6L6 1ZM2 2L2 5L5 5L5 2ZM50 0L50 7L57 7L57 0ZM51 1L51 6L56 6L56 1ZM52 2L52 5L55 5L55 2ZM0 50L0 57L7 57L7 50ZM1 51L1 56L6 56L6 51ZM2 52L2 55L5 55L5 52Z" fill="#000000"/></g></g></svg>
