<?xml version="1.0" encoding="UTF-8"?>
<svg xmlns="http://www.w3.org/2000/svg" version="1.1" width="300" height="300" viewBox="0 0 300 300"><rect x="0" y="0" width="300" height="300" fill="#ffffff"/><g transform="scale(4.918)"><g transform="translate(2,2)"><path fill-rule="evenodd" d="M12 0L12 1L11 1L11 2L12 2L12 3L10 3L10 1L8 1L8 2L9 2L9 3L8 3L8 4L9 4L9 3L10 3L10 5L8 5L8 7L9 7L9 8L6 8L6 9L7 9L7 10L5 10L5 8L0 8L0 9L1 9L1 10L0 10L0 11L1 11L1 10L2 10L2 11L5 11L5 12L6 12L6 13L4 13L4 12L2 12L2 14L4 14L4 15L3 15L3 16L2 16L2 15L1 15L1 12L0 12L0 15L1 15L1 16L2 16L2 18L1 18L1 17L0 17L0 19L2 19L2 18L3 18L3 17L4 17L4 18L5 18L5 17L8 17L8 16L4 16L4 15L5 15L5 14L6 14L6 15L13 15L13 17L12 17L12 16L9 16L9 17L10 17L10 20L9 20L9 21L8 21L8 22L9 22L9 23L11 23L11 24L8 24L8 26L6 26L6 25L7 25L7 24L6 24L6 23L7 23L7 22L4 22L4 25L5 25L5 26L4 26L4 28L3 28L3 31L2 31L2 30L1 30L1 29L2 29L2 28L0 28L0 31L1 31L1 33L0 33L0 37L1 37L1 38L0 38L0 40L1 40L1 41L2 41L2 42L0 42L0 48L5 48L5 47L7 47L7 48L6 48L6 49L8 49L8 51L9 51L9 52L8 52L8 57L9 57L9 55L10 55L10 56L12 56L12 55L10 55L10 54L12 54L12 53L13 53L13 56L14 56L14 52L13 52L13 51L12 51L12 50L13 50L13 49L14 49L14 51L15 51L15 52L17 52L17 51L18 51L18 53L19 53L19 54L20 54L20 55L17 55L17 56L16 56L16 55L15 55L15 56L16 56L16 57L19 57L19 56L21 56L21 55L22 55L22 54L23 54L23 55L24 55L24 56L25 56L25 57L26 57L26 56L28 56L28 55L27 55L27 53L28 53L28 54L29 54L29 55L30 55L30 56L29 56L29 57L31 57L31 55L34 55L34 56L36 56L36 57L37 57L37 56L36 56L36 55L37 55L37 54L38 54L38 53L37 53L37 52L38 52L38 51L40 51L40 52L39 52L39 55L38 55L38 56L39 56L39 57L40 57L40 56L41 56L41 57L42 57L42 56L41 56L41 55L40 55L40 52L41 52L41 51L40 51L40 50L38 50L38 49L37 49L37 48L36 48L36 47L37 47L37 46L38 46L38 45L37 45L37 44L36 44L36 43L38 43L38 44L39 44L39 47L40 47L40 48L39 48L39 49L40 49L40 48L41 48L41 50L43 50L43 53L41 53L41 54L42 54L42 55L43 55L43 53L44 53L44 54L46 54L46 55L44 55L44 56L45 56L45 57L46 57L46 56L47 56L47 57L50 57L50 53L51 53L51 54L53 54L53 51L54 51L54 52L55 52L55 50L57 50L57 47L56 47L56 46L57 46L57 44L56 44L56 46L55 46L55 45L54 45L54 44L55 44L55 43L56 43L56 42L57 42L57 41L56 41L56 42L55 42L55 41L54 41L54 40L55 40L55 39L57 39L57 37L56 37L56 35L53 35L53 34L52 34L52 36L51 36L51 37L53 37L53 36L55 36L55 37L54 37L54 38L53 38L53 39L54 39L54 40L52 40L52 41L48 41L48 42L49 42L49 43L46 43L46 42L45 42L45 41L44 41L44 40L43 40L43 41L42 41L42 39L43 39L43 37L44 37L44 38L45 38L45 40L46 40L46 39L47 39L47 38L48 38L48 39L49 39L49 40L51 40L51 39L50 39L50 38L49 38L49 37L50 37L50 36L49 36L49 35L50 35L50 33L53 33L53 32L56 32L56 30L57 30L57 28L55 28L55 27L56 27L56 26L57 26L57 25L56 25L56 26L55 26L55 25L54 25L54 24L55 24L55 23L56 23L56 22L57 22L57 21L56 21L56 20L57 20L57 19L56 19L56 20L55 20L55 18L57 18L57 17L56 17L56 16L55 16L55 15L56 15L56 14L57 14L57 12L56 12L56 10L55 10L55 11L54 11L54 10L53 10L53 9L54 9L54 8L53 8L53 9L52 9L52 8L51 8L51 9L52 9L52 10L49 10L49 9L50 9L50 8L49 8L49 9L47 9L47 5L48 5L48 0L45 0L45 1L47 1L47 2L44 2L44 1L43 1L43 0L42 0L42 1L41 1L41 2L39 2L39 1L38 1L38 0L36 0L36 1L32 1L32 0L30 0L30 1L29 1L29 2L28 2L28 3L27 3L27 1L26 1L26 0L21 0L21 2L22 2L22 3L23 3L23 2L25 2L25 3L24 3L24 4L21 4L21 5L24 5L24 4L25 4L25 6L24 6L24 7L23 7L23 6L22 6L22 8L23 8L23 9L24 9L24 10L23 10L23 11L24 11L24 10L25 10L25 9L24 9L24 7L25 7L25 6L26 6L26 9L27 9L27 10L26 10L26 11L27 11L27 12L25 12L25 13L24 13L24 12L23 12L23 13L24 13L24 15L23 15L23 14L19 14L19 13L22 13L22 12L19 12L19 13L18 13L18 12L16 12L16 10L15 10L15 9L13 9L13 8L14 8L14 7L15 7L15 6L16 6L16 8L17 8L17 9L18 9L18 10L17 10L17 11L18 11L18 10L20 10L20 11L22 11L22 9L21 9L21 10L20 10L20 8L19 8L19 6L20 6L20 7L21 7L21 6L20 6L20 5L18 5L18 4L20 4L20 3L18 3L18 2L20 2L20 0L19 0L19 1L18 1L18 0L17 0L17 3L18 3L18 4L16 4L16 0ZM12 1L12 2L13 2L13 1ZM14 1L14 2L15 2L15 1ZM22 1L22 2L23 2L23 1ZM30 1L30 2L29 2L29 3L28 3L28 4L29 4L29 3L30 3L30 2L32 2L32 1ZM37 1L37 2L35 2L35 3L32 3L32 4L31 4L31 8L33 8L33 9L34 9L34 10L33 10L33 11L32 11L32 13L31 13L31 15L33 15L33 16L30 16L30 15L27 15L27 14L28 14L28 13L29 13L29 14L30 14L30 13L29 13L29 12L30 12L30 10L29 10L29 9L28 9L28 10L29 10L29 12L28 12L28 13L27 13L27 14L26 14L26 13L25 13L25 14L26 14L26 15L25 15L25 16L23 16L23 15L18 15L18 13L15 13L15 10L12 10L12 9L11 9L11 10L8 10L8 11L6 11L6 12L11 12L11 14L13 14L13 15L14 15L14 17L13 17L13 18L15 18L15 19L16 19L16 20L15 20L15 21L13 21L13 22L14 22L14 25L13 25L13 23L12 23L12 22L11 22L11 21L10 21L10 22L11 22L11 23L12 23L12 24L11 24L11 26L10 26L10 25L9 25L9 28L10 28L10 27L11 27L11 29L10 29L10 33L8 33L8 32L7 32L7 31L5 31L5 32L4 32L4 33L3 33L3 32L2 32L2 33L1 33L1 35L4 35L4 36L3 36L3 37L5 37L5 38L4 38L4 41L5 41L5 42L2 42L2 43L3 43L3 44L1 44L1 47L2 47L2 45L3 45L3 47L5 47L5 46L7 46L7 47L9 47L9 46L8 46L8 45L9 45L9 44L10 44L10 45L11 45L11 48L10 48L10 50L9 50L9 51L11 51L11 52L12 52L12 51L11 51L11 50L12 50L12 46L14 46L14 47L13 47L13 48L14 48L14 47L15 47L15 46L17 46L17 47L16 47L16 48L17 48L17 49L16 49L16 50L17 50L17 49L18 49L18 51L21 51L21 52L19 52L19 53L23 53L23 54L24 54L24 53L23 53L23 52L26 52L26 51L23 51L23 50L21 50L21 49L20 49L20 48L21 48L21 46L22 46L22 47L25 47L25 48L22 48L22 49L25 49L25 50L26 50L26 49L25 49L25 48L30 48L30 47L28 47L28 46L29 46L29 45L28 45L28 43L30 43L30 44L32 44L32 45L33 45L33 46L35 46L35 45L36 45L36 46L37 46L37 45L36 45L36 44L35 44L35 43L36 43L36 42L39 42L39 44L40 44L40 45L41 45L41 46L40 46L40 47L41 47L41 48L42 48L42 47L43 47L43 48L44 48L44 49L45 49L45 48L47 48L47 49L46 49L46 50L44 50L44 53L46 53L46 54L48 54L48 52L47 52L47 51L48 51L48 48L49 48L49 47L51 47L51 45L52 45L52 48L54 48L54 49L55 49L55 48L56 48L56 47L55 47L55 46L54 46L54 45L52 45L52 44L53 44L53 43L54 43L54 41L52 41L52 42L53 42L53 43L52 43L52 44L49 44L49 46L48 46L48 44L47 44L47 45L46 45L46 46L47 46L47 47L45 47L45 43L44 43L44 42L42 42L42 41L41 41L41 40L39 40L39 39L36 39L36 40L37 40L37 41L36 41L36 42L35 42L35 41L33 41L33 43L34 43L34 44L32 44L32 43L30 43L30 42L29 42L29 41L31 41L31 42L32 42L32 41L31 41L31 40L33 40L33 39L34 39L34 40L35 40L35 39L34 39L34 38L35 38L35 37L36 37L36 38L40 38L40 39L41 39L41 36L42 36L42 37L43 37L43 34L44 34L44 37L45 37L45 38L47 38L47 37L48 37L48 36L47 36L47 35L46 35L46 34L47 34L47 33L48 33L48 35L49 35L49 31L48 31L48 29L46 29L46 30L45 30L45 28L44 28L44 29L43 29L43 28L42 28L42 27L43 27L43 26L44 26L44 25L45 25L45 27L46 27L46 28L47 28L47 27L46 27L46 26L47 26L47 25L49 25L49 26L51 26L51 25L50 25L50 24L52 24L52 26L53 26L53 27L55 27L55 26L54 26L54 25L53 25L53 24L52 24L52 23L50 23L50 22L51 22L51 19L50 19L50 22L48 22L48 23L46 23L46 22L47 22L47 21L48 21L48 20L49 20L49 19L47 19L47 20L46 20L46 21L45 21L45 20L43 20L43 24L44 24L44 25L43 25L43 26L40 26L40 25L41 25L41 23L42 23L42 22L40 22L40 23L39 23L39 21L38 21L38 23L37 23L37 25L36 25L36 26L37 26L37 25L38 25L38 27L35 27L35 28L37 28L37 29L36 29L36 30L35 30L35 29L33 29L33 28L34 28L34 27L33 27L33 25L34 25L34 26L35 26L35 24L34 24L34 22L35 22L35 23L36 23L36 22L37 22L37 21L36 21L36 20L37 20L37 19L34 19L34 18L39 18L39 19L38 19L38 20L40 20L40 21L42 21L42 19L46 19L46 18L47 18L47 17L46 17L46 18L44 18L44 17L45 17L45 16L40 16L40 15L41 15L41 14L42 14L42 15L45 15L45 12L46 12L46 14L47 14L47 13L50 13L50 14L49 14L49 15L46 15L46 16L48 16L48 17L50 17L50 18L52 18L52 19L53 19L53 16L54 16L54 17L55 17L55 16L54 16L54 13L55 13L55 12L54 12L54 11L53 11L53 10L52 10L52 11L49 11L49 12L47 12L47 11L45 11L45 10L47 10L47 9L45 9L45 8L44 8L44 9L43 9L43 10L41 10L41 9L42 9L42 8L43 8L43 7L44 7L44 6L45 6L45 7L46 7L46 6L45 6L45 5L44 5L44 4L46 4L46 5L47 5L47 3L43 3L43 5L42 5L42 6L41 6L41 8L40 8L40 6L39 6L39 8L38 8L38 6L37 6L37 5L39 5L39 4L38 4L38 3L39 3L39 2L38 2L38 1ZM42 1L42 2L43 2L43 1ZM37 2L37 3L36 3L36 5L34 5L34 4L33 4L33 5L34 5L34 8L36 8L36 9L35 9L35 10L34 10L34 11L33 11L33 13L38 13L38 12L41 12L41 11L38 11L38 9L37 9L37 8L36 8L36 7L37 7L37 6L36 6L36 5L37 5L37 3L38 3L38 2ZM12 3L12 6L11 6L11 8L13 8L13 7L14 7L14 4L15 4L15 5L16 5L16 4L15 4L15 3L14 3L14 4L13 4L13 3ZM25 3L25 4L26 4L26 3ZM40 3L40 5L41 5L41 4L42 4L42 3ZM27 5L27 8L30 8L30 5ZM9 6L9 7L10 7L10 6ZM12 6L12 7L13 7L13 6ZM17 6L17 7L18 7L18 6ZM28 6L28 7L29 7L29 6ZM32 6L32 7L33 7L33 6ZM35 6L35 7L36 7L36 6ZM42 6L42 7L43 7L43 6ZM48 6L48 7L49 7L49 6ZM9 8L9 9L10 9L10 8ZM55 8L55 9L56 9L56 8ZM2 9L2 10L3 10L3 9ZM31 9L31 10L32 10L32 9ZM44 9L44 10L45 10L45 9ZM35 10L35 11L34 11L34 12L35 12L35 11L36 11L36 10ZM12 11L12 13L13 13L13 14L14 14L14 13L13 13L13 12L14 12L14 11ZM42 11L42 14L44 14L44 12L43 12L43 11ZM52 11L52 12L53 12L53 11ZM50 12L50 13L51 13L51 14L52 14L52 13L51 13L51 12ZM6 13L6 14L7 14L7 13ZM9 13L9 14L10 14L10 13ZM39 13L39 14L36 14L36 15L37 15L37 16L35 16L35 17L37 17L37 16L38 16L38 15L40 15L40 14L41 14L41 13ZM33 14L33 15L35 15L35 14ZM15 15L15 16L16 16L16 17L15 17L15 18L16 18L16 19L17 19L17 18L16 18L16 17L19 17L19 18L20 18L20 17L21 17L21 18L23 18L23 19L20 19L20 20L23 20L23 21L19 21L19 19L18 19L18 21L19 21L19 22L20 22L20 23L19 23L19 24L18 24L18 23L17 23L17 24L16 24L16 23L15 23L15 24L16 24L16 25L15 25L15 27L13 27L13 26L11 26L11 27L13 27L13 31L11 31L11 33L10 33L10 35L8 35L8 34L6 34L6 35L5 35L5 37L7 37L7 38L6 38L6 39L5 39L5 40L6 40L6 41L8 41L8 42L6 42L6 43L4 43L4 46L5 46L5 44L6 44L6 45L8 45L8 44L6 44L6 43L8 43L8 42L10 42L10 43L11 43L11 42L10 42L10 41L9 41L9 40L11 40L11 37L10 37L10 38L8 38L8 37L9 37L9 36L12 36L12 37L13 37L13 38L15 38L15 39L13 39L13 40L12 40L12 45L14 45L14 42L15 42L15 44L16 44L16 45L18 45L18 47L19 47L19 48L18 48L18 49L19 49L19 48L20 48L20 47L19 47L19 45L22 45L22 44L19 44L19 45L18 45L18 44L16 44L16 42L15 42L15 41L16 41L16 40L17 40L17 41L18 41L18 42L17 42L17 43L18 43L18 42L19 42L19 43L20 43L20 41L22 41L22 42L21 42L21 43L22 43L22 42L23 42L23 43L24 43L24 44L25 44L25 45L23 45L23 46L25 46L25 47L27 47L27 46L28 46L28 45L27 45L27 46L25 46L25 45L26 45L26 44L25 44L25 43L24 43L24 42L26 42L26 43L27 43L27 42L26 42L26 41L27 41L27 40L26 40L26 39L28 39L28 41L29 41L29 39L31 39L31 38L32 38L32 34L31 34L31 35L30 35L30 34L29 34L29 35L30 35L30 36L29 36L29 37L28 37L28 36L27 36L27 35L26 35L26 34L27 34L27 33L30 33L30 32L33 32L33 33L34 33L34 32L36 32L36 33L35 33L35 34L33 34L33 35L38 35L38 37L40 37L40 36L41 36L41 35L40 35L40 34L43 34L43 33L40 33L40 32L41 32L41 31L42 31L42 32L46 32L46 31L47 31L47 32L48 32L48 31L47 31L47 30L46 30L46 31L42 31L42 30L43 30L43 29L42 29L42 30L40 30L40 29L39 29L39 30L36 30L36 31L35 31L35 30L33 30L33 29L32 29L32 28L33 28L33 27L31 27L31 26L32 26L32 25L31 25L31 24L32 24L32 23L33 23L33 21L32 21L32 20L33 20L33 19L32 19L32 18L34 18L34 16L33 16L33 17L32 17L32 18L31 18L31 17L29 17L29 18L31 18L31 19L30 19L30 22L29 22L29 21L28 21L28 22L27 22L27 23L28 23L28 24L27 24L27 25L26 25L26 24L25 24L25 23L26 23L26 22L25 22L25 20L26 20L26 21L27 21L27 20L29 20L29 19L28 19L28 18L25 18L25 17L28 17L28 16L25 16L25 17L21 17L21 16L20 16L20 17L19 17L19 16L18 16L18 15ZM50 15L50 16L52 16L52 15ZM39 16L39 17L40 17L40 18L43 18L43 17L40 17L40 16ZM6 18L6 19L8 19L8 18ZM3 19L3 20L1 20L1 23L0 23L0 26L2 26L2 27L3 27L3 26L2 26L2 25L3 25L3 24L2 24L2 25L1 25L1 23L2 23L2 21L4 21L4 20L5 20L5 19ZM13 19L13 20L14 20L14 19ZM23 19L23 20L25 20L25 19ZM26 19L26 20L27 20L27 19ZM40 19L40 20L41 20L41 19ZM6 20L6 21L7 21L7 20ZM34 20L34 21L35 21L35 20ZM52 20L52 21L53 21L53 20ZM54 20L54 23L55 23L55 20ZM15 21L15 22L16 22L16 21ZM23 21L23 22L21 22L21 24L19 24L19 25L20 25L20 27L19 27L19 29L20 29L20 30L17 30L17 29L18 29L18 28L17 28L17 29L15 29L15 28L16 28L16 27L15 27L15 28L14 28L14 29L15 29L15 31L16 31L16 32L15 32L15 33L16 33L16 34L17 34L17 35L16 35L16 37L15 37L15 35L14 35L14 34L13 34L13 33L11 33L11 35L14 35L14 36L13 36L13 37L15 37L15 38L16 38L16 37L17 37L17 38L18 38L18 39L19 39L19 41L20 41L20 40L21 40L21 39L24 39L24 41L23 41L23 40L22 40L22 41L23 41L23 42L24 42L24 41L25 41L25 39L26 39L26 37L27 37L27 38L28 38L28 37L27 37L27 36L26 36L26 35L23 35L23 34L21 34L21 33L20 33L20 32L22 32L22 33L25 33L25 34L26 34L26 33L27 33L27 31L25 31L25 32L23 32L23 31L24 31L24 30L23 30L23 29L25 29L25 30L26 30L26 27L25 27L25 26L26 26L26 25L25 25L25 26L23 26L23 25L24 25L24 23L23 23L23 22L24 22L24 21ZM44 21L44 24L45 24L45 21ZM28 22L28 23L29 23L29 24L28 24L28 25L29 25L29 24L30 24L30 23L31 23L31 22L30 22L30 23L29 23L29 22ZM48 23L48 24L50 24L50 23ZM5 24L5 25L6 25L6 24ZM16 25L16 26L17 26L17 27L18 27L18 25ZM22 26L22 27L20 27L20 29L21 29L21 31L23 31L23 30L22 30L22 29L23 29L23 26ZM39 26L39 27L38 27L38 28L41 28L41 27L40 27L40 26ZM5 27L5 30L8 30L8 27ZM24 27L24 28L25 28L25 27ZM27 27L27 30L30 30L30 27ZM49 27L49 30L52 30L52 27ZM6 28L6 29L7 29L7 28ZM21 28L21 29L22 29L22 28ZM28 28L28 29L29 29L29 28ZM50 28L50 29L51 29L51 28ZM54 28L54 29L53 29L53 31L51 31L51 32L53 32L53 31L55 31L55 30L54 30L54 29L55 29L55 28ZM16 30L16 31L17 31L17 30ZM31 30L31 31L33 31L33 30ZM18 31L18 33L19 33L19 34L18 34L18 35L19 35L19 34L20 34L20 35L21 35L21 37L22 37L22 38L24 38L24 37L25 37L25 36L24 36L24 37L22 37L22 35L21 35L21 34L20 34L20 33L19 33L19 31ZM28 31L28 32L29 32L29 31ZM36 31L36 32L40 32L40 31ZM6 32L6 33L7 33L7 32ZM16 32L16 33L17 33L17 32ZM4 33L4 34L5 34L5 33ZM37 33L37 34L40 34L40 33ZM45 33L45 34L46 34L46 33ZM54 33L54 34L57 34L57 33ZM6 35L6 36L7 36L7 37L8 37L8 35ZM39 35L39 36L40 36L40 35ZM1 36L1 37L2 37L2 36ZM18 36L18 37L20 37L20 36ZM30 36L30 38L31 38L31 36ZM33 36L33 38L34 38L34 36ZM36 36L36 37L37 37L37 36ZM1 38L1 39L2 39L2 40L3 40L3 38ZM19 38L19 39L20 39L20 38ZM6 39L6 40L9 40L9 39ZM15 39L15 40L13 40L13 41L15 41L15 40L16 40L16 39ZM34 42L34 43L35 43L35 42ZM50 42L50 43L51 43L51 42ZM40 43L40 44L43 44L43 45L42 45L42 46L41 46L41 47L42 47L42 46L43 46L43 47L44 47L44 48L45 48L45 47L44 47L44 46L43 46L43 45L44 45L44 43ZM30 45L30 46L31 46L31 45ZM53 46L53 47L54 47L54 48L55 48L55 47L54 47L54 46ZM33 47L33 48L31 48L31 52L32 52L32 54L37 54L37 53L36 53L36 52L37 52L37 51L38 51L38 50L37 50L37 51L36 51L36 52L35 52L35 51L34 51L34 50L35 50L35 49L36 49L36 48L35 48L35 47ZM8 48L8 49L9 49L9 48ZM33 48L33 50L34 50L34 49L35 49L35 48ZM27 49L27 52L30 52L30 49ZM49 49L49 52L52 52L52 49ZM28 50L28 51L29 51L29 50ZM46 50L46 51L45 51L45 52L46 52L46 51L47 51L47 50ZM50 50L50 51L51 51L51 50ZM32 51L32 52L34 52L34 53L35 53L35 52L34 52L34 51ZM56 52L56 53L57 53L57 52ZM15 53L15 54L16 54L16 53ZM25 53L25 54L26 54L26 53ZM29 53L29 54L30 54L30 53ZM54 53L54 55L51 55L51 57L52 57L52 56L53 56L53 57L54 57L54 56L55 56L55 57L56 57L56 56L55 56L55 53ZM25 55L25 56L26 56L26 55ZM39 55L39 56L40 56L40 55ZM47 55L47 56L48 56L48 55ZM0 0L0 7L7 7L7 0ZM1 1L1 6L6 6L6 1ZM2 2L2 5L5 5L5 2ZM50 0L50 7L57 7L57 0ZM51 1L51 6L56 6L56 1ZM52 2L52 5L55 5L55 2ZM0 50L0 57L7 57L7 50ZM1 51L1 56L6 56L6 51ZM2 52L2 55L5 55L5 52Z" fill="#000000"/></g></g></svg>
