<?xml version="1.0" encoding="UTF-8"?>
<svg xmlns="http://www.w3.org/2000/svg" version="1.1" width="300" height="300" viewBox="0 0 300 300"><rect x="0" y="0" width="300" height="300" fill="#ffffff"/><g transform="scale(4.918)"><g transform="translate(2,2)"><path fill-rule="evenodd" d="M10 0L10 2L9 2L9 1L8 1L8 2L9 2L9 3L8 3L8 4L9 4L9 5L8 5L8 7L9 7L9 6L10 6L10 9L9 9L9 8L6 8L6 9L7 9L7 10L4 10L4 9L5 9L5 8L0 8L0 9L2 9L2 10L4 10L4 12L3 12L3 11L2 11L2 12L3 12L3 14L4 14L4 12L5 12L5 13L8 13L8 14L9 14L9 13L10 13L10 12L12 12L12 11L14 11L14 12L13 12L13 13L15 13L15 15L14 15L14 14L12 14L12 13L11 13L11 14L10 14L10 15L8 15L8 16L6 16L6 15L7 15L7 14L5 14L5 16L6 16L6 17L7 17L7 18L6 18L6 19L7 19L7 20L5 20L5 19L2 19L2 18L0 18L0 19L1 19L1 20L0 20L0 23L1 23L1 24L0 24L0 25L1 25L1 26L0 26L0 27L1 27L1 30L0 30L0 32L1 32L1 33L2 33L2 34L0 34L0 38L1 38L1 36L2 36L2 35L3 35L3 36L6 36L6 37L7 37L7 36L8 36L8 39L10 39L10 40L11 40L11 39L13 39L13 40L12 40L12 41L10 41L10 42L9 42L9 41L8 41L8 40L6 40L6 41L8 41L8 42L6 42L6 43L8 43L8 42L9 42L9 44L6 44L6 45L5 45L5 44L4 44L4 43L5 43L5 41L3 41L3 40L2 40L2 39L1 39L1 40L2 40L2 42L1 42L1 41L0 41L0 42L1 42L1 44L0 44L0 45L2 45L2 47L1 47L1 46L0 46L0 48L5 48L5 47L7 47L7 48L6 48L6 49L8 49L8 51L9 51L9 52L8 52L8 57L10 57L10 55L11 55L11 54L13 54L13 55L12 55L12 56L13 56L13 55L16 55L16 56L17 56L17 57L20 57L20 56L17 56L17 55L20 55L20 54L18 54L18 53L20 53L20 52L21 52L21 51L23 51L23 50L25 50L25 49L26 49L26 53L25 53L25 51L24 51L24 53L21 53L21 56L23 56L23 57L24 57L24 55L23 55L23 54L24 54L24 53L25 53L25 57L26 57L26 55L27 55L27 56L28 56L28 55L27 55L27 53L28 53L28 54L30 54L30 53L31 53L31 56L30 56L30 55L29 55L29 56L30 56L30 57L31 57L31 56L33 56L33 55L34 55L34 56L35 56L35 57L39 57L39 56L40 56L40 52L41 52L41 53L42 53L42 54L41 54L41 55L42 55L42 57L44 57L44 56L43 56L43 55L42 55L42 54L43 54L43 53L44 53L44 54L45 54L45 57L47 57L47 56L49 56L49 53L50 53L50 55L51 55L51 56L50 56L50 57L52 57L52 56L53 56L53 57L54 57L54 56L55 56L55 57L56 57L56 56L55 56L55 53L54 53L54 52L55 52L55 50L57 50L57 49L53 49L53 48L57 48L57 47L56 47L56 46L57 46L57 45L56 45L56 44L57 44L57 43L56 43L56 41L54 41L54 43L53 43L53 44L52 44L52 45L51 45L51 47L49 47L49 48L48 48L48 51L47 51L47 50L46 50L46 49L47 49L47 48L45 48L45 47L48 47L48 46L49 46L49 45L50 45L50 44L51 44L51 43L50 43L50 42L51 42L51 41L49 41L49 40L50 40L50 38L51 38L51 40L52 40L52 41L53 41L53 40L55 40L55 39L57 39L57 37L54 37L54 36L56 36L56 34L57 34L57 32L56 32L56 30L57 30L57 29L56 29L56 28L55 28L55 27L56 27L56 25L54 25L54 26L55 26L55 27L53 27L53 25L52 25L52 24L57 24L57 23L56 23L56 22L57 22L57 21L56 21L56 19L53 19L53 18L54 18L54 16L55 16L55 18L57 18L57 17L56 17L56 16L57 16L57 15L56 15L56 14L57 14L57 13L56 13L56 14L55 14L55 13L54 13L54 14L53 14L53 15L52 15L52 16L53 16L53 18L52 18L52 17L51 17L51 16L50 16L50 15L51 15L51 14L52 14L52 13L51 13L51 14L50 14L50 15L49 15L49 13L50 13L50 11L51 11L51 10L49 10L49 9L50 9L50 8L49 8L49 6L48 6L48 7L47 7L47 5L48 5L48 0L45 0L45 1L47 1L47 2L44 2L44 1L43 1L43 0L42 0L42 1L41 1L41 0L39 0L39 1L38 1L38 0L36 0L36 1L38 1L38 2L37 2L37 3L36 3L36 5L34 5L34 3L33 3L33 2L30 2L30 1L34 1L34 2L35 2L35 1L34 1L34 0L30 0L30 1L29 1L29 0L28 0L28 1L29 1L29 2L27 2L27 1L26 1L26 0L24 0L24 1L23 1L23 0L21 0L21 2L18 2L18 4L17 4L17 5L18 5L18 7L17 7L17 6L16 6L16 7L15 7L15 5L16 5L16 4L14 4L14 3L17 3L17 1L16 1L16 0L14 0L14 1L15 1L15 2L14 2L14 3L13 3L13 4L12 4L12 3L11 3L11 0ZM12 1L12 2L13 2L13 1ZM22 1L22 2L23 2L23 3L19 3L19 4L18 4L18 5L19 5L19 7L20 7L20 5L19 5L19 4L23 4L23 5L22 5L22 6L21 6L21 7L22 7L22 6L23 6L23 8L19 8L19 9L15 9L15 8L14 8L14 5L11 5L11 8L12 8L12 9L13 9L13 10L17 10L17 11L18 11L18 10L19 10L19 12L20 12L20 11L22 11L22 9L24 9L24 6L23 6L23 5L24 5L24 4L23 4L23 3L26 3L26 4L25 4L25 8L26 8L26 4L31 4L31 9L32 9L32 10L35 10L35 11L34 11L34 12L37 12L37 10L40 10L40 9L41 9L41 8L42 8L42 6L43 6L43 7L44 7L44 10L47 10L47 11L45 11L45 12L44 12L44 13L43 13L43 14L42 14L42 11L39 11L39 12L38 12L38 13L37 13L37 14L42 14L42 15L41 15L41 16L39 16L39 15L36 15L36 16L35 16L35 15L33 15L33 14L35 14L35 13L33 13L33 11L30 11L30 10L29 10L29 9L28 9L28 10L27 10L27 9L25 9L25 12L24 12L24 11L23 11L23 13L22 13L22 12L21 12L21 13L19 13L19 14L20 14L20 15L18 15L18 14L17 14L17 13L18 13L18 12L17 12L17 13L16 13L16 15L15 15L15 16L14 16L14 15L11 15L11 18L12 18L12 19L14 19L14 20L13 20L13 21L11 21L11 20L10 20L10 19L9 19L9 18L10 18L10 16L9 16L9 18L8 18L8 20L7 20L7 21L5 21L5 20L4 20L4 21L3 21L3 20L1 20L1 22L2 22L2 21L3 21L3 23L2 23L2 24L3 24L3 23L5 23L5 22L7 22L7 23L6 23L6 24L8 24L8 25L9 25L9 27L10 27L10 25L11 25L11 26L13 26L13 27L14 27L14 26L13 26L13 25L15 25L15 26L16 26L16 27L17 27L17 28L18 28L18 29L16 29L16 30L17 30L17 31L16 31L16 32L18 32L18 31L20 31L20 32L19 32L19 33L16 33L16 35L17 35L17 36L15 36L15 31L14 31L14 29L15 29L15 28L10 28L10 29L13 29L13 31L11 31L11 32L13 32L13 33L12 33L12 34L10 34L10 39L11 39L11 38L12 38L12 37L13 37L13 36L14 36L14 38L15 38L15 39L16 39L16 40L19 40L19 39L20 39L20 38L19 38L19 37L21 37L21 38L22 38L22 39L21 39L21 41L20 41L20 44L19 44L19 45L20 45L20 46L21 46L21 45L22 45L22 47L23 47L23 48L21 48L21 47L19 47L19 49L18 49L18 50L17 50L17 49L15 49L15 51L16 51L16 53L15 53L15 52L14 52L14 48L15 48L15 45L14 45L14 44L15 44L15 43L16 43L16 44L17 44L17 45L16 45L16 46L17 46L17 47L16 47L16 48L17 48L17 47L18 47L18 46L17 46L17 45L18 45L18 44L17 44L17 43L18 43L18 41L15 41L15 42L14 42L14 43L13 43L13 41L14 41L14 40L13 40L13 41L12 41L12 42L11 42L11 43L10 43L10 45L11 45L11 46L12 46L12 47L8 47L8 45L6 45L6 46L7 46L7 47L8 47L8 49L9 49L9 48L10 48L10 52L12 52L12 51L13 51L13 53L14 53L14 54L16 54L16 53L18 53L18 51L19 51L19 49L20 49L20 50L21 50L21 49L22 49L22 50L23 50L23 49L24 49L24 47L23 47L23 46L24 46L24 45L25 45L25 48L26 48L26 46L27 46L27 45L28 45L28 46L29 46L29 45L30 45L30 46L31 46L31 47L27 47L27 48L31 48L31 50L32 50L32 51L31 51L31 52L32 52L32 54L34 54L34 55L35 55L35 54L36 54L36 52L37 52L37 51L36 51L36 52L35 52L35 51L33 51L33 50L36 50L36 49L35 49L35 48L37 48L37 50L39 50L39 51L38 51L38 54L37 54L37 55L36 55L36 56L37 56L37 55L38 55L38 56L39 56L39 55L38 55L38 54L39 54L39 52L40 52L40 51L41 51L41 52L42 52L42 53L43 53L43 50L44 50L44 53L45 53L45 54L46 54L46 55L47 55L47 53L48 53L48 52L45 52L45 51L46 51L46 50L44 50L44 49L45 49L45 48L40 48L40 47L41 47L41 46L42 46L42 47L45 47L45 46L42 46L42 45L43 45L43 44L44 44L44 45L45 45L45 44L44 44L44 43L48 43L48 44L47 44L47 45L46 45L46 46L48 46L48 44L49 44L49 43L48 43L48 42L47 42L47 41L48 41L48 40L49 40L49 39L48 39L48 38L50 38L50 36L49 36L49 37L48 37L48 36L47 36L47 35L46 35L46 36L45 36L45 35L44 35L44 34L47 34L47 33L48 33L48 35L51 35L51 38L53 38L53 39L52 39L52 40L53 40L53 39L55 39L55 38L54 38L54 37L53 37L53 36L52 36L52 34L54 34L54 33L55 33L55 34L56 34L56 32L54 32L54 30L56 30L56 29L55 29L55 28L54 28L54 29L53 29L53 31L52 31L52 32L54 32L54 33L51 33L51 32L49 32L49 31L48 31L48 27L46 27L46 26L47 26L47 25L49 25L49 26L51 26L51 25L49 25L49 24L52 24L52 23L55 23L55 20L51 20L51 17L50 17L50 16L49 16L49 15L46 15L46 16L44 16L44 15L45 15L45 14L44 14L44 13L45 13L45 12L46 12L46 14L47 14L47 13L49 13L49 12L48 12L48 11L49 11L49 10L47 10L47 9L49 9L49 8L47 8L47 7L46 7L46 5L47 5L47 3L42 3L42 2L43 2L43 1L42 1L42 2L41 2L41 1L39 1L39 2L38 2L38 3L39 3L39 2L41 2L41 3L40 3L40 5L41 5L41 8L40 8L40 6L39 6L39 4L38 4L38 5L36 5L36 6L35 6L35 7L36 7L36 6L37 6L37 8L40 8L40 9L37 9L37 10L36 10L36 9L35 9L35 8L34 8L34 9L33 9L33 7L34 7L34 5L33 5L33 3L32 3L32 4L31 4L31 3L27 3L27 2L26 2L26 1L25 1L25 2L23 2L23 1ZM41 4L41 5L43 5L43 4ZM44 4L44 5L46 5L46 4ZM27 5L27 8L30 8L30 5ZM12 6L12 8L13 8L13 9L14 9L14 8L13 8L13 6ZM28 6L28 7L29 7L29 6ZM32 6L32 7L33 7L33 6ZM38 6L38 7L39 7L39 6ZM44 6L44 7L45 7L45 9L46 9L46 7L45 7L45 6ZM16 7L16 8L17 8L17 7ZM51 8L51 9L52 9L52 10L53 10L53 11L52 11L52 12L53 12L53 11L54 11L54 12L56 12L56 10L57 10L57 9L56 9L56 8L55 8L55 11L54 11L54 10L53 10L53 9L54 9L54 8L53 8L53 9L52 9L52 8ZM10 9L10 10L8 10L8 11L9 11L9 12L10 12L10 11L11 11L11 9ZM19 9L19 10L20 10L20 9ZM26 10L26 11L27 11L27 12L25 12L25 13L23 13L23 15L24 15L24 17L23 17L23 18L24 18L24 19L22 19L22 17L21 17L21 16L22 16L22 13L21 13L21 16L20 16L20 17L21 17L21 18L20 18L20 19L22 19L22 20L21 20L21 21L22 21L22 22L21 22L21 24L22 24L22 22L24 22L24 21L25 21L25 22L26 22L26 23L25 23L25 24L27 24L27 25L26 25L26 26L25 26L25 25L24 25L24 23L23 23L23 25L24 25L24 26L23 26L23 29L24 29L24 30L23 30L23 31L24 31L24 32L23 32L23 37L22 37L22 36L21 36L21 34L22 34L22 33L21 33L21 32L20 32L20 33L21 33L21 34L20 34L20 35L18 35L18 37L17 37L17 38L18 38L18 39L19 39L19 38L18 38L18 37L19 37L19 36L21 36L21 37L22 37L22 38L23 38L23 39L22 39L22 40L23 40L23 39L24 39L24 41L23 41L23 42L22 42L22 41L21 41L21 42L22 42L22 43L21 43L21 44L20 44L20 45L21 45L21 44L22 44L22 45L24 45L24 44L25 44L25 45L26 45L26 44L28 44L28 45L29 45L29 43L31 43L31 44L34 44L34 43L35 43L35 42L34 42L34 41L33 41L33 42L32 42L32 41L31 41L31 40L30 40L30 42L27 42L27 41L26 41L26 42L27 42L27 43L26 43L26 44L25 44L25 39L27 39L27 40L28 40L28 41L29 41L29 40L28 40L28 39L27 39L27 38L28 38L28 37L26 37L26 36L27 36L27 35L26 35L26 34L25 34L25 31L31 31L31 32L30 32L30 33L29 33L29 32L26 32L26 33L29 33L29 34L30 34L30 35L29 35L29 39L31 39L31 38L32 38L32 34L34 34L34 35L33 35L33 36L34 36L34 37L35 37L35 38L36 38L36 40L35 40L35 41L37 41L37 43L40 43L40 44L43 44L43 43L44 43L44 42L45 42L45 41L44 41L44 39L43 39L43 37L44 37L44 38L45 38L45 40L47 40L47 39L46 39L46 38L45 38L45 37L44 37L44 35L43 35L43 37L42 37L42 36L41 36L41 35L42 35L42 34L43 34L43 33L42 33L42 34L40 34L40 33L39 33L39 32L45 32L45 33L46 33L46 32L45 32L45 30L46 30L46 31L47 31L47 32L48 32L48 31L47 31L47 30L46 30L46 29L47 29L47 28L46 28L46 27L45 27L45 25L44 25L44 24L43 24L43 23L40 23L40 22L43 22L43 21L42 21L42 20L46 20L46 19L47 19L47 20L48 20L48 21L47 21L47 24L48 24L48 23L49 23L49 22L50 22L50 23L52 23L52 22L53 22L53 21L51 21L51 22L50 22L50 19L49 19L49 18L50 18L50 17L48 17L48 16L47 16L47 18L46 18L46 17L44 17L44 16L43 16L43 15L42 15L42 17L41 17L41 18L46 18L46 19L40 19L40 18L36 18L36 17L37 17L37 16L36 16L36 17L35 17L35 18L33 18L33 17L34 17L34 16L33 16L33 15L32 15L32 16L31 16L31 14L33 14L33 13L32 13L32 12L31 12L31 14L30 14L30 13L28 13L28 12L30 12L30 11L27 11L27 10ZM0 11L0 16L1 16L1 17L3 17L3 16L1 16L1 14L2 14L2 13L1 13L1 11ZM6 11L6 12L7 12L7 11ZM25 13L25 15L26 15L26 16L25 16L25 18L26 18L26 20L25 20L25 21L26 21L26 20L27 20L27 21L29 21L29 22L28 22L28 23L27 23L27 24L28 24L28 25L27 25L27 26L28 26L28 25L29 25L29 26L30 26L30 25L29 25L29 24L28 24L28 23L29 23L29 22L30 22L30 24L31 24L31 22L30 22L30 21L31 21L31 20L29 20L29 19L31 19L31 18L32 18L32 19L33 19L33 20L32 20L32 21L33 21L33 22L34 22L34 24L35 24L35 25L33 25L33 24L32 24L32 25L31 25L31 27L33 27L33 28L32 28L32 29L31 29L31 31L33 31L33 32L31 32L31 33L33 33L33 32L37 32L37 31L33 31L33 30L35 30L35 29L36 29L36 30L39 30L39 29L41 29L41 30L42 30L42 31L43 31L43 30L42 30L42 29L43 29L43 28L42 28L42 27L44 27L44 25L43 25L43 26L42 26L42 27L41 27L41 26L40 26L40 25L41 25L41 24L39 24L39 20L40 20L40 21L41 21L41 20L40 20L40 19L38 19L38 23L36 23L36 22L37 22L37 21L36 21L36 20L37 20L37 19L36 19L36 18L35 18L35 19L33 19L33 18L32 18L32 17L33 17L33 16L32 16L32 17L31 17L31 16L30 16L30 14L29 14L29 15L28 15L28 16L27 16L27 15L26 15L26 14L28 14L28 13ZM54 14L54 15L53 15L53 16L54 16L54 15L55 15L55 14ZM16 15L16 17L14 17L14 16L13 16L13 17L12 17L12 18L13 18L13 17L14 17L14 18L15 18L15 21L16 21L16 22L15 22L15 23L16 23L16 24L15 24L15 25L18 25L18 26L17 26L17 27L18 27L18 26L19 26L19 27L20 27L20 28L19 28L19 29L18 29L18 30L19 30L19 29L22 29L22 28L21 28L21 27L22 27L22 25L21 25L21 27L20 27L20 25L19 25L19 23L20 23L20 22L19 22L19 23L17 23L17 22L18 22L18 21L20 21L20 20L19 20L19 19L17 19L17 18L16 18L16 17L19 17L19 16L17 16L17 15ZM26 16L26 17L27 17L27 18L28 18L28 19L27 19L27 20L28 20L28 19L29 19L29 18L31 18L31 17L29 17L29 16L28 16L28 17L27 17L27 16ZM38 16L38 17L39 17L39 16ZM47 18L47 19L48 19L48 18ZM16 19L16 21L18 21L18 20L17 20L17 19ZM8 20L8 21L7 21L7 22L11 22L11 23L9 23L9 25L10 25L10 24L11 24L11 25L13 25L13 23L12 23L12 22L11 22L11 21L9 21L9 20ZM22 20L22 21L24 21L24 20ZM33 20L33 21L35 21L35 20ZM13 21L13 22L14 22L14 21ZM44 21L44 23L45 23L45 24L46 24L46 22L45 22L45 21ZM35 23L35 24L36 24L36 25L35 25L35 26L36 26L36 27L34 27L34 28L33 28L33 29L35 29L35 28L36 28L36 29L37 29L37 28L38 28L38 29L39 29L39 28L38 28L38 27L37 27L37 26L38 26L38 24L36 24L36 23ZM3 25L3 26L1 26L1 27L2 27L2 28L4 28L4 27L3 27L3 26L5 26L5 25ZM6 25L6 26L7 26L7 25ZM32 25L32 26L33 26L33 25ZM39 26L39 27L40 27L40 26ZM5 27L5 30L8 30L8 27ZM24 27L24 29L25 29L25 30L24 30L24 31L25 31L25 30L26 30L26 27ZM27 27L27 30L30 30L30 27ZM36 27L36 28L37 28L37 27ZM49 27L49 30L52 30L52 27ZM6 28L6 29L7 29L7 28ZM28 28L28 29L29 29L29 28ZM44 28L44 29L45 29L45 28ZM50 28L50 29L51 29L51 28ZM2 30L2 31L3 31L3 32L4 32L4 33L3 33L3 35L5 35L5 34L8 34L8 35L9 35L9 34L8 34L8 33L9 33L9 31L3 31L3 30ZM20 30L20 31L22 31L22 30ZM38 31L38 32L39 32L39 31ZM6 32L6 33L8 33L8 32ZM13 33L13 34L12 34L12 35L11 35L11 37L12 37L12 35L14 35L14 33ZM34 33L34 34L35 34L35 33ZM37 33L37 34L39 34L39 33ZM50 33L50 34L51 34L51 33ZM24 34L24 36L26 36L26 35L25 35L25 34ZM6 35L6 36L7 36L7 35ZM35 35L35 37L36 37L36 38L37 38L37 37L38 37L38 39L37 39L37 40L38 40L38 42L39 42L39 40L40 40L40 41L42 41L42 38L41 38L41 36L40 36L40 35ZM30 36L30 38L31 38L31 36ZM36 36L36 37L37 37L37 36ZM39 36L39 37L40 37L40 36ZM46 36L46 37L47 37L47 38L48 38L48 37L47 37L47 36ZM2 37L2 38L4 38L4 37ZM15 37L15 38L16 38L16 37ZM23 37L23 38L24 38L24 37ZM25 37L25 38L26 38L26 37ZM6 38L6 39L7 39L7 38ZM39 38L39 39L40 39L40 40L41 40L41 39L40 39L40 38ZM32 39L32 40L34 40L34 39ZM23 42L23 44L24 44L24 42ZM33 42L33 43L34 43L34 42ZM2 43L2 45L4 45L4 44L3 44L3 43ZM12 43L12 44L11 44L11 45L12 45L12 46L14 46L14 45L12 45L12 44L13 44L13 43ZM35 44L35 46L33 46L33 45L32 45L32 46L33 46L33 47L31 47L31 48L35 48L35 46L37 46L37 47L39 47L39 46L40 46L40 45L39 45L39 46L37 46L37 45L38 45L38 44ZM54 44L54 45L52 45L52 47L51 47L51 48L53 48L53 47L54 47L54 46L56 46L56 45L55 45L55 44ZM3 46L3 47L5 47L5 46ZM12 47L12 48L13 48L13 47ZM39 48L39 50L43 50L43 49L40 49L40 48ZM12 49L12 50L13 50L13 49ZM27 49L27 52L30 52L30 49ZM49 49L49 52L52 52L52 49ZM16 50L16 51L17 51L17 50ZM28 50L28 51L29 51L29 50ZM50 50L50 51L51 51L51 50ZM53 50L53 51L54 51L54 50ZM32 51L32 52L33 52L33 53L35 53L35 52L33 52L33 51ZM56 51L56 52L57 52L57 51ZM9 53L9 55L10 55L10 54L11 54L11 53ZM51 54L51 55L54 55L54 54ZM14 56L14 57L15 57L15 56ZM0 0L0 7L7 7L7 0ZM1 1L1 6L6 6L6 1ZM2 2L2 5L5 5L5 2ZM50 0L50 7L57 7L57 0ZM51 1L51 6L56 6L56 1ZM52 2L52 5L55 5L55 2ZM0 50L0 57L7 57L7 50ZM1 51L1 56L6 56L6 51ZM2 52L2 55L5 55L5 52Z" fill="#000000"/></g></g></svg>
