<?xml version="1.0" encoding="UTF-8"?>
<svg xmlns="http://www.w3.org/2000/svg" version="1.1" width="300" height="300" viewBox="0 0 300 300"><rect x="0" y="0" width="300" height="300" fill="#ffffff"/><g transform="scale(4.918)"><g transform="translate(2,2)"><path fill-rule="evenodd" d="M12 0L12 1L13 1L13 0ZM14 0L14 1L15 1L15 2L14 2L14 3L17 3L17 2L18 2L18 4L17 4L17 5L18 5L18 4L19 4L19 5L20 5L20 7L19 7L19 6L18 6L18 7L17 7L17 6L16 6L16 7L15 7L15 6L14 6L14 7L13 7L13 6L12 6L12 8L11 8L11 6L10 6L10 5L8 5L8 7L9 7L9 6L10 6L10 8L6 8L6 9L7 9L7 10L6 10L6 11L8 11L8 13L9 13L9 14L8 14L8 15L7 15L7 14L6 14L6 13L7 13L7 12L6 12L6 13L5 13L5 14L6 14L6 15L4 15L4 14L2 14L2 12L1 12L1 14L0 14L0 18L1 18L1 20L0 20L0 21L1 21L1 24L0 24L0 25L2 25L2 26L1 26L1 27L0 27L0 28L1 28L1 31L0 31L0 33L1 33L1 34L2 34L2 35L0 35L0 36L2 36L2 35L3 35L3 36L4 36L4 39L5 39L5 40L3 40L3 39L2 39L2 37L1 37L1 39L0 39L0 40L3 40L3 41L1 41L1 42L2 42L2 43L3 43L3 42L4 42L4 41L5 41L5 43L7 43L7 42L9 42L9 43L8 43L8 44L1 44L1 45L7 45L7 46L5 46L5 47L3 47L3 46L2 46L2 47L1 47L1 46L0 46L0 48L5 48L5 47L8 47L8 48L11 48L11 50L10 50L10 49L8 49L8 51L9 51L9 52L8 52L8 57L9 57L9 56L10 56L10 55L9 55L9 54L11 54L11 53L13 53L13 54L12 54L12 55L13 55L13 56L12 56L12 57L13 57L13 56L14 56L14 55L13 55L13 54L15 54L15 55L16 55L16 56L15 56L15 57L16 57L16 56L17 56L17 57L22 57L22 56L19 56L19 55L20 55L20 54L18 54L18 53L20 53L20 52L19 52L19 51L21 51L21 53L22 53L22 54L24 54L24 53L26 53L26 54L27 54L27 53L28 53L28 54L29 54L29 53L30 53L30 54L31 54L31 55L29 55L29 57L30 57L30 56L31 56L31 57L32 57L32 56L33 56L33 54L32 54L32 52L33 52L33 53L34 53L34 52L35 52L35 54L34 54L34 55L35 55L35 54L36 54L36 55L37 55L37 56L35 56L35 57L38 57L38 56L39 56L39 55L40 55L40 56L43 56L43 57L44 57L44 56L43 56L43 53L44 53L44 54L45 54L45 55L46 55L46 56L45 56L45 57L47 57L47 56L49 56L49 55L50 55L50 53L51 53L51 54L54 54L54 56L53 56L53 55L51 55L51 56L50 56L50 57L52 57L52 56L53 56L53 57L54 57L54 56L55 56L55 57L56 57L56 56L55 56L55 54L54 54L54 53L53 53L53 52L55 52L55 51L53 51L53 50L54 50L54 49L53 49L53 48L55 48L55 50L57 50L57 48L55 48L55 45L56 45L56 46L57 46L57 43L56 43L56 42L57 42L57 41L55 41L55 39L57 39L57 35L56 35L56 37L54 37L54 38L53 38L53 40L52 40L52 38L51 38L51 40L52 40L52 41L53 41L53 40L54 40L54 43L53 43L53 44L52 44L52 43L50 43L50 42L51 42L51 41L49 41L49 39L50 39L50 36L51 36L51 35L50 35L50 34L51 34L51 33L53 33L53 34L52 34L52 37L53 37L53 36L55 36L55 35L54 35L54 34L55 34L55 33L53 33L53 32L55 32L55 31L56 31L56 32L57 32L57 31L56 31L56 30L57 30L57 28L56 28L56 29L54 29L54 28L55 28L55 27L56 27L56 24L57 24L57 23L56 23L56 22L57 22L57 21L55 21L55 22L53 22L53 23L51 23L51 22L52 22L52 21L51 21L51 22L50 22L50 19L49 19L49 21L48 21L48 22L50 22L50 24L55 24L55 25L54 25L54 26L55 26L55 27L53 27L53 26L50 26L50 25L48 25L48 24L46 24L46 25L48 25L48 26L47 26L47 27L48 27L48 28L46 28L46 26L44 26L44 24L43 24L43 20L45 20L45 19L46 19L46 20L47 20L47 18L45 18L45 17L47 17L47 16L46 16L46 15L49 15L49 16L50 16L50 15L51 15L51 14L52 14L52 13L51 13L51 14L50 14L50 11L52 11L52 12L53 12L53 11L54 11L54 12L55 12L55 11L56 11L56 14L55 14L55 13L53 13L53 15L54 15L54 16L53 16L53 17L51 17L51 18L53 18L53 19L52 19L52 20L55 20L55 18L57 18L57 17L55 17L55 18L53 18L53 17L54 17L54 16L57 16L57 15L56 15L56 14L57 14L57 11L56 11L56 10L57 10L57 9L56 9L56 8L55 8L55 9L56 9L56 10L55 10L55 11L54 11L54 10L53 10L53 9L54 9L54 8L53 8L53 9L52 9L52 8L51 8L51 9L52 9L52 10L49 10L49 9L50 9L50 8L49 8L49 6L48 6L48 8L47 8L47 5L48 5L48 0L46 0L46 1L45 1L45 2L44 2L44 1L43 1L43 0L42 0L42 1L41 1L41 2L39 2L39 1L36 1L36 0L35 0L35 1L32 1L32 2L31 2L31 4L30 4L30 2L29 2L29 1L31 1L31 0L27 0L27 1L26 1L26 0L24 0L24 1L23 1L23 0L21 0L21 1L17 1L17 2L16 2L16 0ZM8 1L8 2L9 2L9 3L8 3L8 4L11 4L11 5L12 5L12 4L13 4L13 2L12 2L12 3L11 3L11 2L10 2L10 1ZM22 1L22 2L20 2L20 3L19 3L19 4L23 4L23 5L22 5L22 6L21 6L21 7L22 7L22 6L23 6L23 8L19 8L19 7L18 7L18 8L17 8L17 7L16 7L16 9L15 9L15 7L14 7L14 9L13 9L13 8L12 8L12 9L13 9L13 10L12 10L12 11L11 11L11 8L10 8L10 9L9 9L9 10L10 10L10 11L9 11L9 13L10 13L10 15L8 15L8 16L7 16L7 15L6 15L6 16L7 16L7 17L6 17L6 18L5 18L5 16L4 16L4 17L1 17L1 18L2 18L2 19L3 19L3 22L2 22L2 23L3 23L3 24L2 24L2 25L3 25L3 27L2 27L2 29L3 29L3 30L4 30L4 29L3 29L3 27L4 27L4 26L5 26L5 25L3 25L3 24L7 24L7 23L8 23L8 24L9 24L9 25L6 25L6 26L9 26L9 25L10 25L10 24L12 24L12 26L13 26L13 27L12 27L12 28L11 28L11 27L10 27L10 28L9 28L9 32L8 32L8 33L6 33L6 32L7 32L7 31L6 31L6 32L5 32L5 31L4 31L4 32L5 32L5 33L6 33L6 34L4 34L4 33L3 33L3 31L2 31L2 34L4 34L4 35L5 35L5 38L7 38L7 39L6 39L6 40L5 40L5 41L6 41L6 42L7 42L7 41L8 41L8 39L9 39L9 38L10 38L10 41L9 41L9 42L11 42L11 44L10 44L10 43L9 43L9 44L10 44L10 45L9 45L9 46L8 46L8 47L9 47L9 46L10 46L10 47L11 47L11 48L12 48L12 47L13 47L13 48L14 48L14 47L15 47L15 48L19 48L19 49L14 49L14 51L13 51L13 53L15 53L15 54L16 54L16 53L18 53L18 51L17 51L17 50L19 50L19 49L20 49L20 50L21 50L21 49L22 49L22 51L23 51L23 52L22 52L22 53L24 53L24 51L25 51L25 52L26 52L26 50L23 50L23 49L24 49L24 48L23 48L23 47L25 47L25 49L26 49L26 46L27 46L27 47L29 47L29 46L30 46L30 45L31 45L31 43L32 43L32 46L31 46L31 47L32 47L32 46L37 46L37 47L33 47L33 48L31 48L31 49L33 49L33 48L34 48L34 50L32 50L32 51L31 51L31 52L32 52L32 51L34 51L34 50L35 50L35 52L36 52L36 50L39 50L39 48L40 48L40 51L38 51L38 54L37 54L37 55L39 55L39 52L40 52L40 55L42 55L42 54L41 54L41 53L43 53L43 51L44 51L44 53L45 53L45 54L46 54L46 55L47 55L47 54L48 54L48 52L47 52L47 51L48 51L48 48L49 48L49 47L51 47L51 46L53 46L53 45L51 45L51 44L50 44L50 45L48 45L48 44L47 44L47 45L46 45L46 46L47 46L47 47L45 47L45 46L42 46L42 45L43 45L43 44L44 44L44 45L45 45L45 43L44 43L44 41L45 41L45 42L46 42L46 43L49 43L49 42L47 42L47 41L48 41L48 40L47 40L47 38L48 38L48 39L49 39L49 36L50 36L50 35L48 35L48 36L47 36L47 35L46 35L46 34L47 34L47 33L48 33L48 34L50 34L50 33L51 33L51 32L50 32L50 31L48 31L48 29L46 29L46 30L45 30L45 27L44 27L44 26L42 26L42 25L41 25L41 24L42 24L42 23L41 23L41 20L43 20L43 18L44 18L44 19L45 19L45 18L44 18L44 17L45 17L45 16L43 16L43 14L44 14L44 15L45 15L45 14L44 14L44 13L45 13L45 12L46 12L46 14L47 14L47 13L49 13L49 12L48 12L48 11L49 11L49 10L48 10L48 9L49 9L49 8L48 8L48 9L46 9L46 8L45 8L45 7L46 7L46 6L45 6L45 5L44 5L44 4L46 4L46 5L47 5L47 3L43 3L43 5L42 5L42 4L41 4L41 3L40 3L40 4L38 4L38 3L39 3L39 2L36 2L36 1L35 1L35 4L33 4L33 3L34 3L34 2L33 2L33 3L32 3L32 4L31 4L31 8L32 8L32 9L31 9L31 14L30 14L30 13L29 13L29 12L28 12L28 13L26 13L26 14L28 14L28 13L29 13L29 14L30 14L30 15L28 15L28 16L27 16L27 15L23 15L23 13L25 13L25 12L27 12L27 11L30 11L30 10L29 10L29 9L28 9L28 10L27 10L27 9L25 9L25 12L23 12L23 13L22 13L22 12L21 12L21 13L19 13L19 15L18 15L18 14L17 14L17 13L18 13L18 12L17 12L17 11L18 11L18 10L19 10L19 12L20 12L20 11L22 11L22 10L23 10L23 11L24 11L24 10L23 10L23 8L24 8L24 6L23 6L23 5L24 5L24 4L23 4L23 3L26 3L26 4L25 4L25 8L26 8L26 4L27 4L27 3L28 3L28 4L29 4L29 3L28 3L28 2L23 2L23 1ZM42 1L42 2L43 2L43 1ZM46 1L46 2L47 2L47 1ZM36 3L36 5L35 5L35 6L34 6L34 7L33 7L33 6L32 6L32 7L33 7L33 8L34 8L34 9L35 9L35 10L33 10L33 9L32 9L32 12L33 12L33 13L35 13L35 14L31 14L31 15L30 15L30 16L33 16L33 17L32 17L32 18L31 18L31 17L29 17L29 16L28 16L28 17L27 17L27 16L24 16L24 17L23 17L23 18L24 18L24 19L21 19L21 18L22 18L22 17L21 17L21 18L20 18L20 17L19 17L19 16L18 16L18 17L19 17L19 18L16 18L16 19L15 19L15 21L16 21L16 22L15 22L15 23L16 23L16 24L14 24L14 21L13 21L13 20L14 20L14 19L13 19L13 18L12 18L12 19L11 19L11 18L10 18L10 17L11 17L11 16L13 16L13 17L14 17L14 18L15 18L15 17L17 17L17 16L15 16L15 15L17 15L17 14L16 14L16 13L17 13L17 12L15 12L15 9L14 9L14 10L13 10L13 11L12 11L12 12L11 12L11 11L10 11L10 12L11 12L11 15L10 15L10 16L8 16L8 17L7 17L7 18L6 18L6 19L4 19L4 21L5 21L5 20L6 20L6 21L7 21L7 22L5 22L5 23L7 23L7 22L8 22L8 23L9 23L9 22L11 22L11 23L13 23L13 24L14 24L14 28L15 28L15 29L14 29L14 30L13 30L13 29L12 29L12 30L13 30L13 31L14 31L14 33L15 33L15 32L16 32L16 33L17 33L17 32L16 32L16 31L18 31L18 33L19 33L19 34L18 34L18 35L20 35L20 33L19 33L19 31L20 31L20 32L21 32L21 31L22 31L22 32L23 32L23 35L22 35L22 33L21 33L21 35L22 35L22 36L21 36L21 37L19 37L19 36L17 36L17 37L19 37L19 38L17 38L17 40L16 40L16 39L14 39L14 40L13 40L13 39L11 39L11 40L12 40L12 41L11 41L11 42L12 42L12 41L14 41L14 42L13 42L13 43L12 43L12 44L13 44L13 43L14 43L14 45L13 45L13 46L15 46L15 45L17 45L17 46L16 46L16 47L17 47L17 46L18 46L18 47L22 47L22 45L23 45L23 46L25 46L25 45L26 45L26 44L27 44L27 43L26 43L26 44L25 44L25 45L23 45L23 42L24 42L24 43L25 43L25 41L23 41L23 42L22 42L22 43L21 43L21 42L20 42L20 41L19 41L19 40L21 40L21 39L22 39L22 40L23 40L23 39L24 39L24 40L25 40L25 39L26 39L26 40L27 40L27 41L26 41L26 42L27 42L27 41L29 41L29 42L30 42L30 43L29 43L29 44L28 44L28 45L27 45L27 46L28 46L28 45L29 45L29 44L30 44L30 43L31 43L31 41L32 41L32 43L33 43L33 44L34 44L34 43L35 43L35 45L37 45L37 46L38 46L38 45L37 45L37 44L38 44L38 43L37 43L37 42L38 42L38 41L39 41L39 40L35 40L35 39L37 39L37 38L38 38L38 37L39 37L39 38L40 38L40 36L43 36L43 37L41 37L41 38L43 38L43 37L44 37L44 38L45 38L45 37L44 37L44 35L40 35L40 34L44 34L44 33L43 33L43 32L45 32L45 34L46 34L46 33L47 33L47 32L48 32L48 31L47 31L47 30L46 30L46 31L45 31L45 30L44 30L44 28L43 28L43 27L42 27L42 26L39 26L39 27L40 27L40 28L41 28L41 27L42 27L42 28L43 28L43 29L42 29L42 30L41 30L41 29L39 29L39 30L37 30L37 29L38 29L38 28L36 28L36 30L33 30L33 31L32 31L32 32L31 32L31 33L30 33L30 31L31 31L31 30L32 30L32 27L33 27L33 26L32 26L32 27L31 27L31 25L32 25L32 23L35 23L35 24L34 24L34 25L36 25L36 26L34 26L34 28L33 28L33 29L35 29L35 27L37 27L37 26L38 26L38 25L39 25L39 24L41 24L41 23L40 23L40 22L36 22L36 23L35 23L35 22L33 22L33 21L32 21L32 20L33 20L33 19L35 19L35 18L33 18L33 17L35 17L35 16L36 16L36 17L37 17L37 18L36 18L36 19L37 19L37 20L36 20L36 21L40 21L40 20L41 20L41 19L42 19L42 18L43 18L43 16L42 16L42 18L41 18L41 19L40 19L40 18L38 18L38 17L39 17L39 16L41 16L41 15L42 15L42 14L43 14L43 13L44 13L44 10L46 10L46 11L48 11L48 10L46 10L46 9L44 9L44 8L43 8L43 9L40 9L40 10L39 10L39 11L38 11L38 9L39 9L39 8L42 8L42 7L43 7L43 6L42 6L42 5L41 5L41 6L40 6L40 7L39 7L39 6L38 6L38 4L37 4L37 3ZM14 4L14 5L16 5L16 4ZM27 5L27 8L30 8L30 5ZM36 5L36 6L35 6L35 8L37 8L37 9L36 9L36 10L35 10L35 11L34 11L34 12L36 12L36 10L37 10L37 9L38 9L38 6L37 6L37 5ZM28 6L28 7L29 7L29 6ZM36 6L36 7L37 7L37 6ZM41 6L41 7L42 7L42 6ZM44 6L44 7L45 7L45 6ZM0 8L0 9L3 9L3 10L4 10L4 11L3 11L3 13L4 13L4 11L5 11L5 8ZM18 8L18 9L17 9L17 10L18 10L18 9L19 9L19 10L20 10L20 9L19 9L19 8ZM26 10L26 11L27 11L27 10ZM40 10L40 11L39 11L39 12L38 12L38 14L37 14L37 13L36 13L36 16L39 16L39 14L40 14L40 15L41 15L41 14L42 14L42 10ZM52 10L52 11L53 11L53 10ZM13 11L13 12L14 12L14 11ZM40 11L40 12L39 12L39 13L40 13L40 14L41 14L41 13L40 13L40 12L41 12L41 11ZM13 13L13 16L14 16L14 17L15 17L15 16L14 16L14 14L15 14L15 13ZM21 13L21 14L20 14L20 15L21 15L21 16L22 16L22 13ZM1 14L1 16L2 16L2 14ZM33 15L33 16L35 16L35 15ZM8 17L8 18L9 18L9 19L6 19L6 20L7 20L7 21L9 21L9 20L10 20L10 18L9 18L9 17ZM26 17L26 18L27 18L27 19L26 19L26 20L25 20L25 21L24 21L24 20L22 20L22 21L21 21L21 20L20 20L20 21L17 21L17 19L16 19L16 21L17 21L17 23L18 23L18 22L20 22L20 23L19 23L19 25L20 25L20 26L18 26L18 27L17 27L17 24L16 24L16 25L15 25L15 27L17 27L17 28L18 28L18 29L15 29L15 31L16 31L16 30L18 30L18 31L19 31L19 30L18 30L18 29L20 29L20 31L21 31L21 30L23 30L23 32L24 32L24 31L25 31L25 34L24 34L24 36L25 36L25 38L26 38L26 37L27 37L27 36L28 36L28 38L27 38L27 40L28 40L28 39L29 39L29 40L31 40L31 39L33 39L33 38L34 38L34 39L35 39L35 38L37 38L37 37L36 37L36 36L37 36L37 35L36 35L36 34L35 34L35 33L36 33L36 32L37 32L37 34L39 34L39 33L41 33L41 32L43 32L43 31L44 31L44 30L42 30L42 31L41 31L41 32L39 32L39 31L38 31L38 32L37 32L37 30L36 30L36 32L35 32L35 31L34 31L34 32L32 32L32 33L31 33L31 35L30 35L30 34L29 34L29 33L27 33L27 34L26 34L26 32L27 32L27 31L25 31L25 30L26 30L26 27L25 27L25 28L24 28L24 27L23 27L23 26L22 26L22 27L20 27L20 26L21 26L21 25L20 25L20 24L21 24L21 22L22 22L22 21L24 21L24 22L23 22L23 23L24 23L24 25L25 25L25 26L26 26L26 25L27 25L27 26L29 26L29 25L30 25L30 24L31 24L31 22L30 22L30 21L31 21L31 20L30 20L30 19L31 19L31 18L29 18L29 19L28 19L28 18L27 18L27 17ZM48 17L48 18L50 18L50 17ZM19 18L19 19L20 19L20 18ZM32 18L32 19L33 19L33 18ZM37 18L37 19L38 19L38 20L40 20L40 19L38 19L38 18ZM12 19L12 20L11 20L11 22L13 22L13 21L12 21L12 20L13 20L13 19ZM56 19L56 20L57 20L57 19ZM26 20L26 21L25 21L25 22L26 22L26 23L25 23L25 24L29 24L29 23L30 23L30 22L29 22L29 21L28 21L28 23L27 23L27 20ZM34 20L34 21L35 21L35 20ZM44 21L44 23L46 23L46 22L45 22L45 21ZM3 22L3 23L4 23L4 22ZM36 23L36 24L37 24L37 23ZM38 23L38 24L39 24L39 23ZM22 24L22 25L23 25L23 24ZM5 27L5 30L8 30L8 27ZM19 27L19 28L20 28L20 29L22 29L22 28L20 28L20 27ZM27 27L27 30L30 30L30 27ZM49 27L49 30L52 30L52 27ZM6 28L6 29L7 29L7 28ZM10 28L10 29L11 29L11 28ZM23 28L23 29L24 29L24 30L25 30L25 29L24 29L24 28ZM28 28L28 29L29 29L29 28ZM50 28L50 29L51 29L51 28ZM10 31L10 32L9 32L9 34L10 34L10 32L11 32L11 33L12 33L12 34L11 34L11 35L9 35L9 36L8 36L8 38L9 38L9 36L11 36L11 38L14 38L14 37L15 37L15 38L16 38L16 37L15 37L15 36L16 36L16 35L15 35L15 36L14 36L14 35L13 35L13 32L12 32L12 31ZM46 31L46 32L47 32L47 31ZM52 31L52 32L53 32L53 31ZM38 32L38 33L39 33L39 32ZM33 33L33 34L32 34L32 35L31 35L31 38L30 38L30 36L29 36L29 39L31 39L31 38L32 38L32 35L33 35L33 34L34 34L34 35L35 35L35 34L34 34L34 33ZM56 33L56 34L57 34L57 33ZM6 34L6 35L7 35L7 34ZM25 34L25 36L27 36L27 35L26 35L26 34ZM11 35L11 36L12 36L12 35ZM38 35L38 36L40 36L40 35ZM6 36L6 37L7 37L7 36ZM22 36L22 37L21 37L21 38L22 38L22 37L23 37L23 38L24 38L24 37L23 37L23 36ZM19 38L19 39L18 39L18 40L19 40L19 39L20 39L20 38ZM42 39L42 40L41 40L41 41L40 41L40 42L39 42L39 43L40 43L40 42L41 42L41 44L43 44L43 41L44 41L44 40L45 40L45 39ZM6 40L6 41L7 41L7 40ZM32 40L32 41L33 41L33 43L34 43L34 42L35 42L35 43L36 43L36 42L37 42L37 41L35 41L35 40ZM42 40L42 41L43 41L43 40ZM15 41L15 42L14 42L14 43L16 43L16 44L17 44L17 45L18 45L18 44L17 44L17 43L18 43L18 42L17 42L17 41ZM19 42L19 43L20 43L20 44L21 44L21 45L19 45L19 46L21 46L21 45L22 45L22 44L21 44L21 43L20 43L20 42ZM54 44L54 45L55 45L55 44ZM39 45L39 47L40 47L40 48L41 48L41 49L42 49L42 50L41 50L41 51L40 51L40 52L42 52L42 50L43 50L43 49L44 49L44 50L45 50L45 51L47 51L47 50L45 50L45 49L44 49L44 48L45 48L45 47L44 47L44 48L43 48L43 47L42 47L42 46L41 46L41 45ZM37 47L37 48L35 48L35 49L37 49L37 48L38 48L38 47ZM52 47L52 48L53 48L53 47ZM6 48L6 49L7 49L7 48ZM27 49L27 52L30 52L30 49ZM49 49L49 52L52 52L52 49ZM9 50L9 51L10 51L10 52L12 52L12 51L10 51L10 50ZM15 50L15 53L16 53L16 52L17 52L17 51L16 51L16 50ZM28 50L28 51L29 51L29 50ZM50 50L50 51L51 51L51 50ZM56 51L56 52L57 52L57 51ZM17 55L17 56L18 56L18 55ZM23 55L23 56L24 56L24 55ZM26 55L26 56L25 56L25 57L26 57L26 56L28 56L28 55ZM0 0L0 7L7 7L7 0ZM1 1L1 6L6 6L6 1ZM2 2L2 5L5 5L5 2ZM50 0L50 7L57 7L57 0ZM51 1L51 6L56 6L56 1ZM52 2L52 5L55 5L55 2ZM0 50L0 57L7 57L7 50ZM1 51L1 56L6 56L6 51ZM2 52L2 55L5 55L5 52Z" fill="#000000"/></g></g></svg>
