<?xml version="1.0" encoding="UTF-8"?>
<svg xmlns="http://www.w3.org/2000/svg" version="1.1" width="300" height="300" viewBox="0 0 300 300"><rect x="0" y="0" width="300" height="300" fill="#ffffff"/><g transform="scale(4.918)"><g transform="translate(2,2)"><path fill-rule="evenodd" d="M10 0L10 1L11 1L11 0ZM14 0L14 1L15 1L15 2L14 2L14 3L12 3L12 5L11 5L11 6L10 6L10 5L8 5L8 7L9 7L9 6L10 6L10 7L11 7L11 8L12 8L12 7L13 7L13 9L14 9L14 10L13 10L13 11L12 11L12 12L13 12L13 13L15 13L15 14L14 14L14 15L13 15L13 14L12 14L12 13L8 13L8 12L9 12L9 11L11 11L11 10L12 10L12 9L10 9L10 8L6 8L6 9L5 9L5 8L0 8L0 10L1 10L1 9L4 9L4 10L2 10L2 11L0 11L0 14L1 14L1 15L2 15L2 16L1 16L1 17L0 17L0 20L1 20L1 21L2 21L2 22L0 22L0 23L1 23L1 24L2 24L2 25L0 25L0 26L3 26L3 25L5 25L5 26L4 26L4 29L3 29L3 27L1 27L1 29L3 29L3 31L8 31L8 34L6 34L6 33L7 33L7 32L3 32L3 33L2 33L2 32L0 32L0 33L2 33L2 35L0 35L0 36L1 36L1 37L2 37L2 38L3 38L3 39L1 39L1 41L2 41L2 42L3 42L3 39L4 39L4 40L5 40L5 39L4 39L4 38L6 38L6 39L7 39L7 40L6 40L6 41L4 41L4 42L5 42L5 43L2 43L2 44L1 44L1 43L0 43L0 48L5 48L5 47L7 47L7 48L6 48L6 49L7 49L7 48L8 48L8 51L9 51L9 50L10 50L10 51L11 51L11 52L10 52L10 53L12 53L12 49L11 49L11 48L13 48L13 49L17 49L17 50L16 50L16 51L15 51L15 50L14 50L14 51L15 51L15 52L13 52L13 53L16 53L16 54L13 54L13 55L11 55L11 56L10 56L10 57L13 57L13 56L15 56L15 57L19 57L19 55L20 55L20 54L19 54L19 55L17 55L17 53L20 53L20 52L21 52L21 53L22 53L22 54L21 54L21 56L20 56L20 57L21 57L21 56L22 56L22 54L24 54L24 53L26 53L26 55L27 55L27 56L28 56L28 55L27 55L27 53L28 53L28 54L30 54L30 53L31 53L31 56L30 56L30 55L29 55L29 56L30 56L30 57L32 57L32 56L33 56L33 57L34 57L34 56L35 56L35 57L37 57L37 56L38 56L38 55L40 55L40 52L42 52L42 53L41 53L41 54L43 54L43 53L44 53L44 54L45 54L45 53L44 53L44 49L43 49L43 48L45 48L45 50L46 50L46 51L45 51L45 52L48 52L48 53L50 53L50 55L51 55L51 56L50 56L50 57L52 57L52 56L55 56L55 57L56 57L56 56L55 56L55 55L51 55L51 54L55 54L55 53L54 53L54 52L55 52L55 50L57 50L57 49L54 49L54 48L57 48L57 47L56 47L56 46L57 46L57 45L56 45L56 46L53 46L53 47L54 47L54 48L51 48L51 47L52 47L52 46L51 46L51 47L49 47L49 48L48 48L48 51L47 51L47 50L46 50L46 48L45 48L45 47L47 47L47 46L46 46L46 45L47 45L47 44L50 44L50 45L48 45L48 46L50 46L50 45L54 45L54 44L56 44L56 42L55 42L55 41L54 41L54 40L55 40L55 39L57 39L57 37L54 37L54 36L57 36L57 35L55 35L55 34L57 34L57 32L56 32L56 30L57 30L57 29L56 29L56 30L55 30L55 29L54 29L54 28L55 28L55 27L56 27L56 28L57 28L57 27L56 27L56 26L57 26L57 25L56 25L56 22L57 22L57 21L54 21L54 22L53 22L53 21L51 21L51 22L50 22L50 19L51 19L51 20L56 20L56 19L53 19L53 18L54 18L54 17L52 17L52 16L55 16L55 18L57 18L57 17L56 17L56 16L57 16L57 15L56 15L56 14L57 14L57 13L56 13L56 12L57 12L57 11L56 11L56 10L57 10L57 9L56 9L56 8L55 8L55 11L54 11L54 10L53 10L53 11L52 11L52 8L51 8L51 10L49 10L49 9L50 9L50 8L49 8L49 6L48 6L48 7L47 7L47 5L48 5L48 0L45 0L45 1L44 1L44 2L42 2L42 1L43 1L43 0L42 0L42 1L40 1L40 0L39 0L39 1L34 1L34 0L30 0L30 1L29 1L29 0L27 0L27 1L26 1L26 0L24 0L24 1L23 1L23 0L21 0L21 2L19 2L19 1L16 1L16 0ZM8 1L8 2L9 2L9 1ZM30 1L30 2L29 2L29 3L27 3L27 2L22 2L22 3L19 3L19 2L18 2L18 3L14 3L14 4L16 4L16 5L13 5L13 7L14 7L14 9L15 9L15 12L16 12L16 10L17 10L17 11L18 11L18 10L19 10L19 9L18 9L18 6L19 6L19 7L20 7L20 5L19 5L19 4L23 4L23 5L22 5L22 6L21 6L21 7L22 7L22 6L23 6L23 8L20 8L20 11L22 11L22 10L23 10L23 12L24 12L24 13L22 13L22 12L21 12L21 13L19 13L19 15L18 15L18 14L17 14L17 13L18 13L18 12L17 12L17 13L16 13L16 15L15 15L15 16L14 16L14 17L12 17L12 15L9 15L9 14L8 14L8 15L6 15L6 16L7 16L7 17L6 17L6 18L5 18L5 16L4 16L4 15L5 15L5 14L7 14L7 13L6 13L6 12L8 12L8 10L7 10L7 9L6 9L6 10L5 10L5 11L6 11L6 12L5 12L5 14L4 14L4 11L3 11L3 12L1 12L1 14L2 14L2 15L3 15L3 16L2 16L2 17L1 17L1 19L2 19L2 20L3 20L3 22L7 22L7 23L6 23L6 24L7 24L7 25L6 25L6 26L7 26L7 25L8 25L8 26L9 26L9 25L8 25L8 24L7 24L7 23L8 23L8 22L10 22L10 23L11 23L11 22L13 22L13 21L14 21L14 22L16 22L16 21L18 21L18 24L19 24L19 25L20 25L20 28L19 28L19 26L18 26L18 27L17 27L17 24L16 24L16 23L12 23L12 24L10 24L10 27L9 27L9 29L10 29L10 30L9 30L9 31L10 31L10 35L9 35L9 34L8 34L8 35L9 35L9 37L10 37L10 36L12 36L12 35L15 35L15 34L12 34L12 33L15 33L15 32L13 32L13 31L15 31L15 29L14 29L14 30L13 30L13 29L12 29L12 28L11 28L11 29L10 29L10 27L11 27L11 25L12 25L12 24L16 24L16 25L13 25L13 26L12 26L12 27L13 27L13 26L14 26L14 27L16 27L16 28L18 28L18 29L16 29L16 30L17 30L17 31L16 31L16 32L18 32L18 31L19 31L19 30L18 30L18 29L20 29L20 32L19 32L19 33L16 33L16 35L17 35L17 36L15 36L15 37L16 37L16 38L15 38L15 39L16 39L16 41L15 41L15 40L14 40L14 39L12 39L12 41L13 41L13 42L11 42L11 43L12 43L12 44L10 44L10 43L9 43L9 42L10 42L10 41L11 41L11 40L7 40L7 41L6 41L6 42L7 42L7 43L5 43L5 45L6 45L6 46L7 46L7 47L8 47L8 48L9 48L9 49L10 49L10 50L11 50L11 49L10 49L10 48L9 48L9 46L8 46L8 45L10 45L10 47L11 47L11 46L13 46L13 42L14 42L14 44L15 44L15 42L16 42L16 43L18 43L18 41L17 41L17 39L18 39L18 38L19 38L19 39L20 39L20 38L19 38L19 37L21 37L21 38L22 38L22 39L23 39L23 40L21 40L21 41L19 41L19 42L21 42L21 43L20 43L20 44L19 44L19 45L20 45L20 46L19 46L19 49L18 49L18 50L17 50L17 51L16 51L16 53L17 53L17 52L18 52L18 51L19 51L19 49L20 49L20 50L21 50L21 49L22 49L22 50L23 50L23 51L21 51L21 52L22 52L22 53L24 53L24 51L25 51L25 52L26 52L26 49L25 49L25 50L23 50L23 49L24 49L24 47L23 47L23 46L24 46L24 45L25 45L25 48L26 48L26 46L27 46L27 47L28 47L28 48L30 48L30 47L29 47L29 46L31 46L31 45L32 45L32 47L31 47L31 48L32 48L32 49L34 49L34 50L32 50L32 51L31 51L31 52L32 52L32 54L33 54L33 55L34 55L34 54L35 54L35 56L36 56L36 55L38 55L38 54L39 54L39 52L40 52L40 51L39 51L39 52L38 52L38 50L42 50L42 51L43 51L43 50L42 50L42 48L43 48L43 47L45 47L45 43L46 43L46 42L47 42L47 43L49 43L49 42L47 42L47 41L48 41L48 40L49 40L49 41L51 41L51 42L50 42L50 43L51 43L51 44L53 44L53 43L54 43L54 41L52 41L52 40L53 40L53 36L52 36L52 34L54 34L54 33L56 33L56 32L54 32L54 31L52 31L52 32L54 32L54 33L51 33L51 32L49 32L49 31L48 31L48 29L46 29L46 30L42 30L42 29L43 29L43 28L42 28L42 27L44 27L44 25L45 25L45 26L46 26L46 28L47 28L47 26L48 26L48 25L49 25L49 26L52 26L52 25L53 25L53 27L55 27L55 26L56 26L56 25L55 25L55 24L54 24L54 23L55 23L55 22L54 22L54 23L53 23L53 22L52 22L52 23L50 23L50 22L49 22L49 23L48 23L48 25L45 25L45 24L43 24L43 23L44 23L44 21L45 21L45 22L46 22L46 23L47 23L47 21L48 21L48 20L49 20L49 19L50 19L50 18L51 18L51 16L52 16L52 15L54 15L54 13L55 13L55 14L56 14L56 13L55 13L55 12L56 12L56 11L55 11L55 12L54 12L54 11L53 11L53 12L52 12L52 11L50 11L50 13L49 13L49 12L48 12L48 11L49 11L49 10L48 10L48 9L49 9L49 8L48 8L48 9L46 9L46 5L47 5L47 3L42 3L42 4L41 4L41 3L40 3L40 5L42 5L42 6L41 6L41 8L40 8L40 6L39 6L39 7L38 7L38 6L37 6L37 5L36 5L36 3L38 3L38 5L39 5L39 2L35 2L35 4L34 4L34 3L32 3L32 4L31 4L31 2L34 2L34 1ZM45 1L45 2L47 2L47 1ZM8 3L8 4L10 4L10 3ZM18 3L18 4L17 4L17 6L16 6L16 7L15 7L15 6L14 6L14 7L15 7L15 8L16 8L16 9L17 9L17 8L16 8L16 7L17 7L17 6L18 6L18 4L19 4L19 3ZM23 3L23 4L24 4L24 5L23 5L23 6L24 6L24 8L25 8L25 9L23 9L23 10L25 10L25 9L27 9L27 10L26 10L26 11L27 11L27 12L25 12L25 13L24 13L24 14L25 14L25 15L23 15L23 16L24 16L24 17L23 17L23 18L24 18L24 19L21 19L21 18L22 18L22 17L21 17L21 16L22 16L22 13L21 13L21 14L20 14L20 15L21 15L21 16L20 16L20 17L21 17L21 18L20 18L20 19L21 19L21 20L24 20L24 21L21 21L21 23L22 23L22 24L23 24L23 25L21 25L21 24L20 24L20 25L21 25L21 27L22 27L22 26L25 26L25 27L26 27L26 30L25 30L25 29L23 29L23 37L22 37L22 36L21 36L21 35L22 35L22 33L21 33L21 32L20 32L20 33L21 33L21 34L20 34L20 35L18 35L18 37L17 37L17 38L18 38L18 37L19 37L19 36L21 36L21 37L22 37L22 38L23 38L23 39L24 39L24 41L22 41L22 43L21 43L21 44L20 44L20 45L21 45L21 48L23 48L23 47L22 47L22 45L24 45L24 43L25 43L25 36L24 36L24 34L25 34L25 35L27 35L27 33L29 33L29 34L30 34L30 36L29 36L29 39L31 39L31 40L30 40L30 41L29 41L29 43L26 43L26 44L25 44L25 45L26 45L26 44L27 44L27 45L29 45L29 43L31 43L31 44L30 44L30 45L31 45L31 44L34 44L34 43L35 43L35 42L36 42L36 43L37 43L37 44L35 44L35 45L37 45L37 44L38 44L38 45L40 45L40 48L38 48L38 47L39 47L39 46L37 46L37 48L36 48L36 47L35 47L35 46L33 46L33 47L32 47L32 48L34 48L34 47L35 47L35 48L36 48L36 50L34 50L34 51L32 51L32 52L34 52L34 53L33 53L33 54L34 54L34 53L35 53L35 54L38 54L38 53L37 53L37 52L36 52L36 51L37 51L37 50L38 50L38 49L40 49L40 48L41 48L41 47L42 47L42 46L44 46L44 44L43 44L43 43L42 43L42 42L43 42L43 41L44 41L44 40L43 40L43 37L44 37L44 38L45 38L45 39L46 39L46 38L45 38L45 37L44 37L44 35L45 35L45 36L46 36L46 37L47 37L47 36L46 36L46 35L48 35L48 33L47 33L47 34L46 34L46 32L45 32L45 31L42 31L42 30L39 30L39 31L40 31L40 32L39 32L39 34L37 34L37 33L38 33L38 32L36 32L36 31L37 31L37 30L38 30L38 29L39 29L39 28L41 28L41 27L42 27L42 26L43 26L43 24L42 24L42 22L43 22L43 21L40 21L40 20L41 20L41 19L42 19L42 20L48 20L48 19L49 19L49 18L50 18L50 16L49 16L49 17L48 17L48 19L47 19L47 18L46 18L46 16L47 16L47 15L49 15L49 13L47 13L47 14L46 14L46 12L45 12L45 11L44 11L44 12L43 12L43 9L44 9L44 8L41 8L41 10L42 10L42 14L41 14L41 13L40 13L40 12L41 12L41 11L40 11L40 12L39 12L39 11L37 11L37 12L34 12L34 11L35 11L35 10L38 10L38 9L37 9L37 8L38 8L38 7L37 7L37 6L36 6L36 5L34 5L34 4L33 4L33 5L34 5L34 7L35 7L35 8L33 8L33 6L32 6L32 8L33 8L33 9L35 9L35 10L34 10L34 11L32 11L32 10L31 10L31 4L30 4L30 3L29 3L29 4L26 4L26 3ZM25 4L25 8L26 8L26 4ZM42 4L42 5L43 5L43 4ZM44 4L44 5L46 5L46 4ZM27 5L27 8L30 8L30 5ZM11 6L11 7L12 7L12 6ZM28 6L28 7L29 7L29 6ZM35 6L35 7L36 7L36 8L37 8L37 7L36 7L36 6ZM42 6L42 7L43 7L43 6ZM44 6L44 7L45 7L45 6ZM39 8L39 9L40 9L40 8ZM53 8L53 9L54 9L54 8ZM21 9L21 10L22 10L22 9ZM6 10L6 11L7 11L7 10ZM28 10L28 11L29 11L29 12L28 12L28 13L25 13L25 14L26 14L26 15L25 15L25 16L27 16L27 17L26 17L26 19L25 19L25 20L27 20L27 23L29 23L29 24L25 24L25 23L26 23L26 22L25 22L25 21L24 21L24 22L22 22L22 23L24 23L24 25L25 25L25 26L26 26L26 25L27 25L27 26L29 26L29 24L30 24L30 25L31 25L31 26L32 26L32 30L31 30L31 31L30 31L30 33L31 33L31 34L32 34L32 38L31 38L31 36L30 36L30 38L31 38L31 39L33 39L33 34L35 34L35 35L34 35L34 36L35 36L35 37L34 37L34 38L35 38L35 39L34 39L34 40L35 40L35 39L36 39L36 40L38 40L38 42L37 42L37 43L38 43L38 44L40 44L40 45L41 45L41 46L42 46L42 45L43 45L43 44L40 44L40 43L41 43L41 42L42 42L42 41L41 41L41 40L42 40L42 38L41 38L41 37L42 37L42 35L44 35L44 34L45 34L45 35L46 35L46 34L45 34L45 32L42 32L42 31L41 31L41 32L40 32L40 34L39 34L39 35L38 35L38 36L37 36L37 34L36 34L36 32L35 32L35 31L33 31L33 30L35 30L35 29L33 29L33 28L34 28L34 26L35 26L35 25L34 25L34 26L33 26L33 23L34 23L34 24L37 24L37 25L38 25L38 28L37 28L37 27L35 27L35 28L37 28L37 29L36 29L36 30L37 30L37 29L38 29L38 28L39 28L39 27L40 27L40 26L42 26L42 24L40 24L40 23L41 23L41 22L40 22L40 23L39 23L39 24L38 24L38 22L39 22L39 21L38 21L38 22L37 22L37 21L36 21L36 20L37 20L37 19L38 19L38 20L40 20L40 19L41 19L41 18L42 18L42 19L46 19L46 18L45 18L45 16L43 16L43 17L44 17L44 18L42 18L42 15L43 15L43 14L42 14L42 15L41 15L41 16L40 16L40 14L39 14L39 12L38 12L38 13L36 13L36 14L39 14L39 15L36 15L36 16L35 16L35 15L33 15L33 14L35 14L35 13L33 13L33 12L32 12L32 11L31 11L31 12L30 12L30 10ZM47 10L47 11L48 11L48 10ZM13 11L13 12L14 12L14 11ZM44 12L44 15L45 15L45 12ZM2 13L2 14L3 14L3 15L4 15L4 14L3 14L3 13ZM28 13L28 14L27 14L27 16L28 16L28 17L27 17L27 18L28 18L28 19L29 19L29 18L33 18L33 19L31 19L31 20L29 20L29 21L30 21L30 22L29 22L29 23L30 23L30 24L31 24L31 25L32 25L32 24L31 24L31 23L33 23L33 22L34 22L34 23L35 23L35 22L34 22L34 20L33 20L33 19L35 19L35 18L33 18L33 17L29 17L29 16L28 16L28 15L30 15L30 16L33 16L33 15L30 15L30 14L33 14L33 13ZM51 13L51 14L50 14L50 15L51 15L51 14L52 14L52 13ZM8 15L8 16L9 16L9 18L6 18L6 19L7 19L7 20L5 20L5 21L7 21L7 20L9 20L9 21L10 21L10 22L11 22L11 21L10 21L10 20L9 20L9 19L11 19L11 20L14 20L14 19L12 19L12 17L11 17L11 18L10 18L10 16L9 16L9 15ZM16 15L16 17L15 17L15 21L16 21L16 19L17 19L17 18L16 18L16 17L19 17L19 16L17 16L17 15ZM3 16L3 17L2 17L2 18L3 18L3 17L4 17L4 16ZM36 16L36 19L37 19L37 18L38 18L38 19L40 19L40 18L41 18L41 17L40 17L40 16L38 16L38 17L37 17L37 16ZM38 17L38 18L39 18L39 17ZM4 18L4 19L3 19L3 20L4 20L4 19L5 19L5 18ZM18 18L18 19L19 19L19 18ZM18 20L18 21L20 21L20 20ZM32 20L32 21L33 21L33 20ZM19 22L19 23L20 23L20 22ZM30 22L30 23L31 23L31 22ZM36 22L36 23L37 23L37 22ZM2 23L2 24L3 24L3 23ZM4 23L4 24L5 24L5 23ZM49 23L49 25L50 25L50 23ZM52 23L52 24L51 24L51 25L52 25L52 24L53 24L53 25L54 25L54 26L55 26L55 25L54 25L54 24L53 24L53 23ZM39 25L39 26L40 26L40 25ZM5 27L5 30L8 30L8 27ZM27 27L27 30L30 30L30 27ZM49 27L49 30L52 30L52 27ZM6 28L6 29L7 29L7 28ZM20 28L20 29L22 29L22 28ZM28 28L28 29L29 29L29 28ZM44 28L44 29L45 29L45 28ZM50 28L50 29L51 29L51 28ZM11 29L11 30L12 30L12 29ZM53 29L53 30L54 30L54 29ZM21 30L21 31L22 31L22 30ZM24 30L24 31L25 31L25 30ZM46 30L46 31L47 31L47 32L48 32L48 31L47 31L47 30ZM26 31L26 32L25 32L25 34L26 34L26 33L27 33L27 32L29 32L29 31ZM31 31L31 32L33 32L33 33L32 33L32 34L33 34L33 33L35 33L35 32L33 32L33 31ZM41 32L41 33L42 33L42 34L41 34L41 35L40 35L40 36L39 36L39 37L40 37L40 36L41 36L41 35L42 35L42 34L44 34L44 33L42 33L42 32ZM3 33L3 34L5 34L5 36L3 36L3 35L2 35L2 37L3 37L3 38L4 38L4 37L6 37L6 38L7 38L7 37L6 37L6 36L7 36L7 35L6 35L6 34L5 34L5 33ZM50 33L50 34L51 34L51 33ZM49 35L49 36L48 36L48 37L49 37L49 38L48 38L48 39L50 39L50 37L51 37L51 35ZM13 36L13 38L14 38L14 36ZM36 36L36 37L35 37L35 38L36 38L36 39L38 39L38 40L41 40L41 39L40 39L40 38L37 38L37 36ZM11 37L11 38L8 38L8 39L11 39L11 38L12 38L12 37ZM23 37L23 38L24 38L24 37ZM26 37L26 39L27 39L27 40L28 40L28 39L27 39L27 38L28 38L28 37ZM51 38L51 39L52 39L52 38ZM32 40L32 42L31 42L31 43L34 43L34 42L35 42L35 41L34 41L34 42L33 42L33 40ZM45 40L45 41L47 41L47 40ZM7 41L7 42L9 42L9 41ZM26 41L26 42L27 42L27 41ZM39 41L39 43L40 43L40 42L41 42L41 41ZM44 42L44 43L45 43L45 42ZM7 43L7 44L6 44L6 45L7 45L7 44L8 44L8 43ZM3 44L3 45L4 45L4 44ZM17 44L17 45L16 45L16 46L17 46L17 47L16 47L16 48L17 48L17 47L18 47L18 46L17 46L17 45L18 45L18 44ZM21 44L21 45L22 45L22 44ZM1 45L1 47L2 47L2 45ZM3 46L3 47L5 47L5 46ZM14 46L14 47L13 47L13 48L14 48L14 47L15 47L15 46ZM27 49L27 52L30 52L30 49ZM49 49L49 52L52 52L52 49ZM28 50L28 51L29 51L29 50ZM50 50L50 51L51 51L51 50ZM53 50L53 51L54 51L54 50ZM56 51L56 52L57 52L57 51ZM8 52L8 57L9 57L9 55L10 55L10 54L9 54L9 52ZM35 52L35 53L36 53L36 52ZM47 54L47 56L48 56L48 57L49 57L49 56L48 56L48 55L49 55L49 54ZM15 55L15 56L16 56L16 55ZM23 55L23 56L24 56L24 57L26 57L26 56L24 56L24 55ZM41 55L41 57L44 57L44 56L45 56L45 55L44 55L44 56L43 56L43 55ZM0 0L0 7L7 7L7 0ZM1 1L1 6L6 6L6 1ZM2 2L2 5L5 5L5 2ZM50 0L50 7L57 7L57 0ZM51 1L51 6L56 6L56 1ZM52 2L52 5L55 5L55 2ZM0 50L0 57L7 57L7 50ZM1 51L1 56L6 56L6 51ZM2 52L2 55L5 55L5 52Z" fill="#000000"/></g></g></svg>
