<?xml version="1.0" encoding="UTF-8"?>
<svg xmlns="http://www.w3.org/2000/svg" version="1.1" width="300" height="300" viewBox="0 0 300 300"><rect x="0" y="0" width="300" height="300" fill="#ffffff"/><g transform="scale(4.918)"><g transform="translate(2,2)"><path fill-rule="evenodd" d="M9 0L9 1L8 1L8 2L10 2L10 0ZM12 0L12 1L11 1L11 3L8 3L8 4L9 4L9 5L8 5L8 7L9 7L9 6L10 6L10 7L11 7L11 8L6 8L6 9L5 9L5 8L0 8L0 9L1 9L1 10L0 10L0 14L1 14L1 20L0 20L0 21L1 21L1 23L3 23L3 25L5 25L5 26L3 26L3 27L0 27L0 29L2 29L2 28L3 28L3 29L4 29L4 30L2 30L2 31L1 31L1 30L0 30L0 32L1 32L1 33L0 33L0 34L1 34L1 33L3 33L3 35L4 35L4 33L5 33L5 32L6 32L6 33L7 33L7 34L5 34L5 36L4 36L4 37L2 37L2 35L0 35L0 38L2 38L2 40L1 40L1 39L0 39L0 41L3 41L3 43L2 43L2 44L1 44L1 42L0 42L0 44L1 44L1 45L0 45L0 48L5 48L5 47L7 47L7 46L6 46L6 45L8 45L8 48L6 48L6 49L8 49L8 51L10 51L10 52L8 52L8 57L9 57L9 56L10 56L10 55L9 55L9 54L11 54L11 55L12 55L12 53L13 53L13 54L14 54L14 55L13 55L13 56L11 56L11 57L13 57L13 56L14 56L14 57L16 57L16 55L15 55L15 54L16 54L16 53L13 53L13 52L14 52L14 51L16 51L16 52L17 52L17 50L15 50L15 49L19 49L19 50L18 50L18 51L19 51L19 52L18 52L18 53L17 53L17 57L19 57L19 56L18 56L18 55L19 55L19 54L20 54L20 55L21 55L21 56L22 56L22 55L23 55L23 57L24 57L24 56L25 56L25 57L26 57L26 56L28 56L28 55L23 55L23 54L27 54L27 53L28 53L28 54L29 54L29 53L31 53L31 55L29 55L29 56L31 56L31 57L32 57L32 56L33 56L33 55L34 55L34 56L36 56L36 57L38 57L38 56L36 56L36 55L35 55L35 54L32 54L32 52L33 52L33 53L35 53L35 52L36 52L36 54L38 54L38 52L39 52L39 56L40 56L40 52L41 52L41 51L40 51L40 50L43 50L43 48L45 48L45 49L44 49L44 50L45 50L45 51L47 51L47 52L46 52L46 53L47 53L47 54L45 54L45 53L44 53L44 51L42 51L42 52L43 52L43 53L42 53L42 54L41 54L41 56L42 56L42 57L44 57L44 56L45 56L45 57L47 57L47 56L49 56L49 55L50 55L50 54L55 54L55 53L54 53L54 52L55 52L55 51L56 51L56 52L57 52L57 51L56 51L56 50L57 50L57 49L56 49L56 48L57 48L57 47L54 47L54 48L55 48L55 49L53 49L53 47L52 47L52 45L54 45L54 46L57 46L57 43L56 43L56 42L55 42L55 40L56 40L56 39L55 39L55 37L54 37L54 36L56 36L56 37L57 37L57 36L56 36L56 34L57 34L57 33L56 33L56 32L57 32L57 31L55 31L55 30L57 30L57 29L56 29L56 28L57 28L57 27L53 27L53 25L54 25L54 26L57 26L57 25L56 25L56 24L55 24L55 23L56 23L56 22L57 22L57 21L55 21L55 23L52 23L52 22L50 22L50 19L49 19L49 18L50 18L50 15L51 15L51 16L52 16L52 15L51 15L51 14L52 14L52 13L51 13L51 14L49 14L49 13L50 13L50 12L51 12L51 11L52 11L52 12L53 12L53 11L54 11L54 12L57 12L57 11L56 11L56 10L55 10L55 11L54 11L54 10L52 10L52 8L51 8L51 10L50 10L50 8L49 8L49 6L48 6L48 8L49 8L49 9L48 9L48 10L50 10L50 12L49 12L49 13L47 13L47 14L46 14L46 12L45 12L45 11L44 11L44 10L45 10L45 9L44 9L44 8L45 8L45 6L44 6L44 7L43 7L43 6L42 6L42 5L43 5L43 3L47 3L47 5L46 5L46 7L47 7L47 5L48 5L48 0L46 0L46 1L45 1L45 0L41 0L41 1L45 1L45 2L39 2L39 1L40 1L40 0L39 0L39 1L38 1L38 0L37 0L37 1L33 1L33 2L32 2L32 1L31 1L31 0L28 0L28 1L27 1L27 2L28 2L28 3L26 3L26 5L25 5L25 4L24 4L24 3L25 3L25 2L24 2L24 1L26 1L26 0L21 0L21 4L22 4L22 5L21 5L21 6L20 6L20 5L18 5L18 4L20 4L20 3L19 3L19 2L20 2L20 0L19 0L19 1L18 1L18 4L16 4L16 2L17 2L17 1L16 1L16 2L15 2L15 4L13 4L13 5L11 5L11 3L13 3L13 2L12 2L12 1L15 1L15 0ZM28 1L28 2L31 2L31 1ZM37 1L37 2L34 2L34 3L35 3L35 4L34 4L34 5L33 5L33 3L32 3L32 4L31 4L31 3L28 3L28 4L31 4L31 8L32 8L32 11L31 11L31 10L29 10L29 9L25 9L25 10L23 10L23 11L19 11L19 10L18 10L18 9L17 9L17 8L21 8L21 7L22 7L22 9L20 9L20 10L22 10L22 9L23 9L23 7L24 7L24 4L23 4L23 3L24 3L24 2L22 2L22 4L23 4L23 5L22 5L22 6L21 6L21 7L20 7L20 6L19 6L19 7L18 7L18 6L17 6L17 8L16 8L16 6L15 6L15 5L16 5L16 4L15 4L15 5L13 5L13 7L12 7L12 6L11 6L11 7L12 7L12 8L11 8L11 9L15 9L15 10L13 10L13 11L12 11L12 10L10 10L10 9L9 9L9 10L7 10L7 9L6 9L6 10L5 10L5 9L2 9L2 10L3 10L3 11L1 11L1 13L2 13L2 17L3 17L3 18L2 18L2 20L3 20L3 21L2 21L2 22L5 22L5 21L6 21L6 22L7 22L7 23L4 23L4 24L5 24L5 25L6 25L6 26L8 26L8 25L6 25L6 24L7 24L7 23L9 23L9 24L12 24L12 22L15 22L15 23L14 23L14 24L13 24L13 25L12 25L12 26L11 26L11 25L9 25L9 28L10 28L10 27L11 27L11 29L12 29L12 30L9 30L9 32L8 32L8 35L6 35L6 36L5 36L5 38L7 38L7 39L4 39L4 40L3 40L3 41L4 41L4 42L5 42L5 40L8 40L8 42L7 42L7 41L6 41L6 42L7 42L7 43L6 43L6 44L8 44L8 45L9 45L9 48L8 48L8 49L10 49L10 50L12 50L12 49L10 49L10 48L12 48L12 47L13 47L13 51L11 51L11 52L10 52L10 53L11 53L11 52L13 52L13 51L14 51L14 47L15 47L15 45L16 45L16 48L17 48L17 46L18 46L18 48L19 48L19 49L20 49L20 50L19 50L19 51L20 51L20 52L21 52L21 50L22 50L22 51L23 51L23 52L22 52L22 53L20 53L20 54L22 54L22 53L24 53L24 51L25 51L25 53L26 53L26 48L27 48L27 47L28 47L28 48L32 48L32 49L31 49L31 52L32 52L32 51L34 51L34 50L39 50L39 48L40 48L40 49L41 49L41 48L42 48L42 47L43 47L43 46L44 46L44 45L45 45L45 44L44 44L44 42L43 42L43 44L40 44L40 45L41 45L41 46L42 46L42 47L41 47L41 48L40 48L40 47L36 47L36 46L39 46L39 45L38 45L38 44L39 44L39 43L42 43L42 42L40 42L40 41L41 41L41 39L42 39L42 41L43 41L43 40L44 40L44 41L45 41L45 42L46 42L46 43L48 43L48 42L47 42L47 41L48 41L48 40L47 40L47 39L45 39L45 38L47 38L47 37L48 37L48 36L49 36L49 37L50 37L50 39L52 39L52 40L49 40L49 41L52 41L52 43L54 43L54 40L53 40L53 39L54 39L54 38L53 38L53 37L51 37L51 36L52 36L52 34L54 34L54 35L53 35L53 36L54 36L54 35L55 35L55 34L54 34L54 33L55 33L55 32L54 32L54 31L52 31L52 32L53 32L53 33L50 33L50 32L49 32L49 31L48 31L48 28L47 28L47 27L48 27L48 25L49 25L49 24L50 24L50 26L51 26L51 25L53 25L53 24L51 24L51 23L50 23L50 22L49 22L49 23L48 23L48 21L49 21L49 20L48 20L48 19L46 19L46 18L47 18L47 17L46 17L46 18L44 18L44 17L45 17L45 16L42 16L42 15L43 15L43 14L44 14L44 15L45 15L45 12L44 12L44 13L43 13L43 14L42 14L42 11L41 11L41 8L42 8L42 9L43 9L43 10L44 10L44 9L43 9L43 8L42 8L42 6L41 6L41 3L40 3L40 5L39 5L39 2L38 2L38 1ZM46 1L46 2L47 2L47 1ZM37 2L37 3L36 3L36 5L34 5L34 8L33 8L33 9L37 9L37 8L39 8L39 6L38 6L38 2ZM44 4L44 5L45 5L45 4ZM27 5L27 8L30 8L30 5ZM36 5L36 6L35 6L35 8L37 8L37 7L38 7L38 6L37 6L37 5ZM14 6L14 8L15 8L15 9L16 9L16 8L15 8L15 6ZM22 6L22 7L23 7L23 6ZM25 6L25 7L26 7L26 6ZM28 6L28 7L29 7L29 6ZM32 6L32 7L33 7L33 6ZM36 6L36 7L37 7L37 6ZM40 6L40 7L41 7L41 6ZM53 8L53 9L54 9L54 8ZM55 8L55 9L56 9L56 8ZM39 9L39 10L38 10L38 11L36 11L36 12L34 12L34 11L35 11L35 10L33 10L33 11L32 11L32 12L31 12L31 11L28 11L28 10L26 10L26 11L27 11L27 12L25 12L25 13L24 13L24 12L23 12L23 13L24 13L24 14L25 14L25 15L24 15L24 16L26 16L26 18L25 18L25 17L21 17L21 19L23 19L23 20L24 20L24 18L25 18L25 19L28 19L28 18L31 18L31 19L29 19L29 20L31 20L31 21L30 21L30 22L28 22L28 21L27 21L27 20L25 20L25 21L19 21L19 20L18 20L18 21L17 21L17 22L18 22L18 21L19 21L19 22L20 22L20 23L19 23L19 24L18 24L18 23L17 23L17 26L18 26L18 27L17 27L17 28L15 28L15 27L14 27L14 25L13 25L13 26L12 26L12 27L13 27L13 28L12 28L12 29L13 29L13 28L14 28L14 29L17 29L17 32L14 32L14 31L16 31L16 30L14 30L14 31L13 31L13 30L12 30L12 32L11 32L11 34L12 34L12 35L13 35L13 36L14 36L14 37L12 37L12 36L11 36L11 35L10 35L10 34L9 34L9 35L10 35L10 36L9 36L9 37L12 37L12 39L9 39L9 38L8 38L8 40L9 40L9 43L10 43L10 44L11 44L11 46L13 46L13 47L14 47L14 45L15 45L15 44L16 44L16 45L18 45L18 46L19 46L19 47L22 47L22 46L23 46L23 47L24 47L24 48L25 48L25 47L24 47L24 46L25 46L25 45L26 45L26 44L27 44L27 42L28 42L28 45L27 45L27 46L26 46L26 47L27 47L27 46L28 46L28 47L29 47L29 46L28 46L28 45L30 45L30 47L32 47L32 48L34 48L34 47L35 47L35 48L36 48L36 49L38 49L38 48L36 48L36 47L35 47L35 46L36 46L36 45L37 45L37 44L36 44L36 43L37 43L37 42L38 42L38 40L37 40L37 38L38 38L38 37L39 37L39 38L40 38L40 36L41 36L41 37L42 37L42 38L43 38L43 37L44 37L44 38L45 38L45 37L44 37L44 32L45 32L45 34L46 34L46 35L45 35L45 36L48 36L48 33L47 33L47 34L46 34L46 31L47 31L47 32L48 32L48 31L47 31L47 30L46 30L46 29L47 29L47 28L46 28L46 27L47 27L47 26L46 26L46 25L48 25L48 23L47 23L47 22L45 22L45 21L44 21L44 23L43 23L43 24L42 24L42 23L40 23L40 22L39 22L39 23L37 23L37 22L38 22L38 19L40 19L40 20L39 20L39 21L40 21L40 20L41 20L41 19L42 19L42 20L46 20L46 21L47 21L47 20L46 20L46 19L42 19L42 18L43 18L43 17L42 17L42 16L41 16L41 15L42 15L42 14L40 14L40 16L38 16L38 17L37 17L37 16L34 16L34 15L39 15L39 14L36 14L36 13L38 13L38 12L40 12L40 11L39 11L39 10L40 10L40 9ZM4 10L4 11L3 11L3 12L2 12L2 13L3 13L3 15L4 15L4 13L5 13L5 12L6 12L6 13L8 13L8 14L5 14L5 15L7 15L7 16L6 16L6 17L8 17L8 19L11 19L11 20L12 20L12 21L15 21L15 22L16 22L16 21L15 21L15 20L16 20L16 18L15 18L15 17L16 17L16 15L15 15L15 17L14 17L14 16L13 16L13 15L12 15L12 14L14 14L14 13L13 13L13 12L14 12L14 11L13 11L13 12L12 12L12 13L11 13L11 12L10 12L10 10L9 10L9 11L7 11L7 10L6 10L6 11L5 11L5 10ZM15 10L15 11L18 11L18 10ZM6 11L6 12L7 12L7 11ZM3 12L3 13L4 13L4 12ZM9 12L9 14L8 14L8 15L10 15L10 12ZM16 12L16 13L15 13L15 14L16 14L16 13L18 13L18 14L17 14L17 15L18 15L18 16L17 16L17 17L19 17L19 18L17 18L17 19L19 19L19 18L20 18L20 17L19 17L19 15L18 15L18 14L19 14L19 13L21 13L21 14L20 14L20 15L21 15L21 14L22 14L22 16L23 16L23 14L22 14L22 13L21 13L21 12L19 12L19 13L18 13L18 12ZM28 12L28 13L26 13L26 16L27 16L27 17L31 17L31 18L32 18L32 19L33 19L33 20L32 20L32 21L33 21L33 22L34 22L34 23L31 23L31 22L30 22L30 23L29 23L29 24L28 24L28 23L27 23L27 21L26 21L26 23L25 23L25 22L22 22L22 23L25 23L25 24L21 24L21 25L20 25L20 24L19 24L19 25L18 25L18 26L19 26L19 25L20 25L20 28L22 28L22 29L19 29L19 30L18 30L18 31L19 31L19 33L16 33L16 35L14 35L14 34L15 34L15 33L14 33L14 32L13 32L13 35L14 35L14 36L16 36L16 37L14 37L14 38L13 38L13 39L12 39L12 40L10 40L10 41L11 41L11 44L12 44L12 40L14 40L14 41L13 41L13 42L14 42L14 43L13 43L13 45L14 45L14 44L15 44L15 42L17 42L17 41L18 41L18 43L16 43L16 44L18 44L18 45L19 45L19 46L21 46L21 45L19 45L19 44L20 44L20 42L21 42L21 44L22 44L22 45L23 45L23 46L24 46L24 45L25 45L25 44L26 44L26 43L25 43L25 44L24 44L24 45L23 45L23 43L22 43L22 42L23 42L23 41L25 41L25 42L26 42L26 41L25 41L25 40L26 40L26 39L27 39L27 41L28 41L28 42L29 42L29 41L28 41L28 40L31 40L31 39L32 39L32 42L34 42L34 44L32 44L32 43L29 43L29 44L30 44L30 45L31 45L31 46L32 46L32 47L33 47L33 46L35 46L35 45L36 45L36 44L35 44L35 41L33 41L33 38L37 38L37 37L36 37L36 36L40 36L40 35L41 35L41 34L42 34L42 35L43 35L43 34L42 34L42 32L44 32L44 31L46 31L46 30L45 30L45 28L44 28L44 30L42 30L42 29L43 29L43 28L42 28L42 27L43 27L43 26L42 26L42 24L39 24L39 25L38 25L38 28L37 28L37 27L36 27L36 28L35 28L35 29L33 29L33 28L34 28L34 27L35 27L35 26L37 26L37 25L35 25L35 24L34 24L34 23L36 23L36 24L37 24L37 23L36 23L36 22L37 22L37 21L36 21L36 20L37 20L37 19L38 19L38 18L40 18L40 19L41 19L41 18L42 18L42 17L41 17L41 16L40 16L40 17L38 17L38 18L37 18L37 17L34 17L34 18L32 18L32 17L33 17L33 16L32 16L32 15L33 15L33 14L35 14L35 13L33 13L33 12L32 12L32 13L33 13L33 14L31 14L31 16L30 16L30 15L28 15L28 16L27 16L27 14L28 14L28 13L29 13L29 12ZM30 12L30 13L31 13L31 12ZM54 13L54 15L53 15L53 17L54 17L54 19L53 19L53 18L51 18L51 19L52 19L52 20L51 20L51 21L52 21L52 20L57 20L57 19L56 19L56 18L57 18L57 16L56 16L56 17L54 17L54 16L55 16L55 14L57 14L57 13ZM11 15L11 17L10 17L10 18L11 18L11 19L13 19L13 20L14 20L14 19L13 19L13 18L14 18L14 17L13 17L13 18L12 18L12 15ZM46 15L46 16L48 16L48 17L49 17L49 15ZM8 16L8 17L9 17L9 16ZM31 16L31 17L32 17L32 16ZM4 18L4 19L5 19L5 18ZM6 18L6 19L7 19L7 18ZM34 18L34 19L37 19L37 18ZM6 20L6 21L8 21L8 22L9 22L9 23L10 23L10 22L11 22L11 21L10 21L10 20L9 20L9 21L8 21L8 20ZM34 20L34 21L35 21L35 20ZM41 21L41 22L43 22L43 21ZM15 23L15 24L16 24L16 23ZM44 23L44 25L45 25L45 24L47 24L47 23ZM25 24L25 25L23 25L23 26L22 26L22 25L21 25L21 26L22 26L22 27L23 27L23 26L25 26L25 27L24 27L24 28L25 28L25 27L26 27L26 30L25 30L25 29L22 29L22 31L21 31L21 30L20 30L20 31L21 31L21 32L20 32L20 33L21 33L21 34L24 34L24 35L25 35L25 36L27 36L27 35L26 35L26 34L27 34L27 33L29 33L29 35L30 35L30 36L28 36L28 37L29 37L29 39L31 39L31 38L32 38L32 34L31 34L31 33L32 33L32 32L36 32L36 33L35 33L35 34L34 34L34 33L33 33L33 34L34 34L34 36L33 36L33 37L34 37L34 36L35 36L35 34L36 34L36 35L37 35L37 34L38 34L38 35L40 35L40 32L41 32L41 31L42 31L42 30L41 30L41 29L39 29L39 31L40 31L40 32L36 32L36 31L37 31L37 30L38 30L38 29L37 29L37 28L36 28L36 29L35 29L35 30L33 30L33 31L32 31L32 28L33 28L33 27L32 27L32 26L33 26L33 25L34 25L34 24L33 24L33 25L32 25L32 24L31 24L31 25L28 25L28 24ZM1 25L1 26L2 26L2 25ZM25 25L25 26L26 26L26 25ZM27 25L27 26L28 26L28 25ZM31 25L31 26L32 26L32 25ZM40 26L40 27L39 27L39 28L40 28L40 27L41 27L41 26ZM45 26L45 27L46 27L46 26ZM5 27L5 30L8 30L8 27ZM27 27L27 30L30 30L30 27ZM31 27L31 28L32 28L32 27ZM49 27L49 30L52 30L52 27ZM6 28L6 29L7 29L7 28ZM17 28L17 29L18 29L18 28ZM28 28L28 29L29 29L29 28ZM50 28L50 29L51 29L51 28ZM54 28L54 29L53 29L53 30L55 30L55 28ZM36 29L36 30L35 30L35 31L36 31L36 30L37 30L37 29ZM23 30L23 31L22 31L22 32L21 32L21 33L25 33L25 34L26 34L26 33L27 33L27 31L25 31L25 32L23 32L23 31L24 31L24 30ZM40 30L40 31L41 31L41 30ZM3 31L3 33L4 33L4 31ZM6 31L6 32L7 32L7 31ZM28 31L28 32L29 32L29 33L30 33L30 32L29 32L29 31ZM31 31L31 32L32 32L32 31ZM25 32L25 33L26 33L26 32ZM38 33L38 34L39 34L39 33ZM17 34L17 37L16 37L16 38L15 38L15 39L16 39L16 40L17 40L17 37L19 37L19 36L20 36L20 34ZM18 35L18 36L19 36L19 35ZM49 35L49 36L51 36L51 35ZM6 36L6 37L8 37L8 36ZM21 36L21 37L22 37L22 38L21 38L21 39L20 39L20 38L18 38L18 41L19 41L19 42L20 42L20 40L21 40L21 39L23 39L23 40L25 40L25 39L26 39L26 38L25 38L25 37L24 37L24 36L23 36L23 37L22 37L22 36ZM30 36L30 38L31 38L31 36ZM23 37L23 38L24 38L24 37ZM35 39L35 40L36 40L36 39ZM39 39L39 40L40 40L40 39ZM46 40L46 41L47 41L47 40ZM52 40L52 41L53 41L53 40ZM14 41L14 42L15 42L15 41ZM30 41L30 42L31 42L31 41ZM50 42L50 43L51 43L51 42ZM4 43L4 44L3 44L3 45L4 45L4 46L3 46L3 47L5 47L5 45L4 45L4 44L5 44L5 43ZM55 43L55 44L54 44L54 45L55 45L55 44L56 44L56 43ZM31 44L31 45L32 45L32 44ZM43 44L43 45L42 45L42 46L43 46L43 45L44 45L44 44ZM47 44L47 45L46 45L46 46L48 46L48 47L45 47L45 48L46 48L46 49L45 49L45 50L47 50L47 51L48 51L48 48L50 48L50 47L51 47L51 48L52 48L52 47L51 47L51 46L50 46L50 47L49 47L49 46L48 46L48 44ZM49 44L49 45L51 45L51 44ZM1 46L1 47L2 47L2 46ZM20 48L20 49L21 49L21 48ZM22 49L22 50L23 50L23 51L24 51L24 50L25 50L25 49ZM27 49L27 52L30 52L30 49ZM33 49L33 50L34 50L34 49ZM49 49L49 52L52 52L52 49ZM55 49L55 50L53 50L53 52L54 52L54 51L55 51L55 50L56 50L56 49ZM28 50L28 51L29 51L29 50ZM50 50L50 51L51 51L51 50ZM36 51L36 52L38 52L38 51ZM39 51L39 52L40 52L40 51ZM47 52L47 53L48 53L48 52ZM18 53L18 54L19 54L19 53ZM43 53L43 54L42 54L42 56L44 56L44 55L45 55L45 54L44 54L44 53ZM49 53L49 54L50 54L50 53ZM31 55L31 56L32 56L32 55ZM51 55L51 56L50 56L50 57L52 57L52 56L54 56L54 57L56 57L56 56L55 56L55 55ZM0 0L0 7L7 7L7 0ZM1 1L1 6L6 6L6 1ZM2 2L2 5L5 5L5 2ZM50 0L50 7L57 7L57 0ZM51 1L51 6L56 6L56 1ZM52 2L52 5L55 5L55 2ZM0 50L0 57L7 57L7 50ZM1 51L1 56L6 56L6 51ZM2 52L2 55L5 55L5 52Z" fill="#000000"/></g></g></svg>
