<?xml version="1.0" encoding="UTF-8"?>
<svg xmlns="http://www.w3.org/2000/svg" version="1.1" width="300" height="300" viewBox="0 0 300 300"><rect x="0" y="0" width="300" height="300" fill="#ffffff"/><g transform="scale(4.918)"><g transform="translate(2,2)"><path fill-rule="evenodd" d="M9 0L9 1L8 1L8 2L10 2L10 0ZM11 0L11 1L15 1L15 2L11 2L11 4L10 4L10 3L8 3L8 4L9 4L9 5L8 5L8 7L9 7L9 8L6 8L6 9L5 9L5 8L0 8L0 9L3 9L3 10L4 10L4 11L7 11L7 12L6 12L6 13L7 13L7 14L5 14L5 15L7 15L7 16L4 16L4 14L3 14L3 13L4 13L4 12L3 12L3 11L2 11L2 14L1 14L1 13L0 13L0 15L2 15L2 14L3 14L3 16L4 16L4 17L9 17L9 16L11 16L11 17L12 17L12 18L11 18L11 19L12 19L12 20L11 20L11 21L10 21L10 25L7 25L7 24L9 24L9 23L7 23L7 22L9 22L9 20L10 20L10 18L9 18L9 19L8 19L8 18L6 18L6 19L7 19L7 20L2 20L2 19L1 19L1 18L3 18L3 17L2 17L2 16L1 16L1 18L0 18L0 19L1 19L1 20L2 20L2 21L1 21L1 22L0 22L0 25L1 25L1 26L0 26L0 27L1 27L1 26L2 26L2 27L4 27L4 28L3 28L3 30L1 30L1 29L0 29L0 30L1 30L1 31L0 31L0 36L1 36L1 37L0 37L0 38L1 38L1 39L0 39L0 40L1 40L1 41L0 41L0 42L1 42L1 44L0 44L0 45L1 45L1 44L2 44L2 47L1 47L1 46L0 46L0 48L5 48L5 47L7 47L7 48L6 48L6 49L8 49L8 51L10 51L10 52L8 52L8 57L12 57L12 56L13 56L13 57L16 57L16 55L14 55L14 54L16 54L16 53L14 53L14 52L17 52L17 51L16 51L16 49L19 49L19 48L20 48L20 49L21 49L21 50L18 50L18 51L19 51L19 52L18 52L18 53L19 53L19 54L20 54L20 55L19 55L19 56L17 56L17 57L21 57L21 56L22 56L22 55L21 55L21 53L22 53L22 54L23 54L23 55L24 55L24 56L25 56L25 57L26 57L26 54L27 54L27 53L28 53L28 54L29 54L29 55L30 55L30 56L29 56L29 57L31 57L31 55L32 55L32 56L33 56L33 54L32 54L32 52L33 52L33 51L35 51L35 50L36 50L36 52L34 52L34 53L36 53L36 54L34 54L34 56L35 56L35 57L37 57L37 56L38 56L38 55L39 55L39 56L40 56L40 52L41 52L41 56L43 56L43 57L44 57L44 55L43 55L43 53L44 53L44 54L45 54L45 55L46 55L46 56L45 56L45 57L47 57L47 56L50 56L50 55L51 55L51 57L52 57L52 56L53 56L53 57L54 57L54 56L55 56L55 57L56 57L56 56L55 56L55 53L54 53L54 52L55 52L55 50L57 50L57 48L56 48L56 46L57 46L57 45L56 45L56 46L54 46L54 48L51 48L51 47L49 47L49 48L48 48L48 51L47 51L47 50L46 50L46 49L47 49L47 48L46 48L46 49L45 49L45 50L46 50L46 51L47 51L47 52L45 52L45 53L44 53L44 48L45 48L45 47L47 47L47 46L48 46L48 45L47 45L47 44L52 44L52 45L51 45L51 46L52 46L52 47L53 47L53 46L52 46L52 45L54 45L54 44L55 44L55 43L56 43L56 42L55 42L55 39L57 39L57 37L56 37L56 36L57 36L57 35L56 35L56 34L57 34L57 33L56 33L56 32L57 32L57 31L56 31L56 30L57 30L57 29L56 29L56 28L55 28L55 27L53 27L53 26L50 26L50 24L53 24L53 25L54 25L54 26L57 26L57 25L55 25L55 23L56 23L56 24L57 24L57 23L56 23L56 22L57 22L57 21L54 21L54 20L57 20L57 19L56 19L56 18L57 18L57 15L56 15L56 14L57 14L57 13L56 13L56 10L55 10L55 11L54 11L54 10L53 10L53 9L54 9L54 8L53 8L53 9L52 9L52 8L51 8L51 9L52 9L52 10L49 10L49 9L50 9L50 8L49 8L49 6L48 6L48 7L47 7L47 5L48 5L48 0L45 0L45 1L44 1L44 0L42 0L42 1L41 1L41 2L40 2L40 1L38 1L38 0L35 0L35 1L34 1L34 0L33 0L33 1L34 1L34 3L35 3L35 2L37 2L37 3L36 3L36 5L35 5L35 6L34 6L34 5L33 5L33 6L32 6L32 7L33 7L33 8L31 8L31 4L32 4L32 3L33 3L33 2L31 2L31 3L29 3L29 2L30 2L30 1L32 1L32 0L30 0L30 1L29 1L29 0L28 0L28 1L29 1L29 2L28 2L28 3L27 3L27 2L26 2L26 0L23 0L23 2L21 2L21 1L22 1L22 0L21 0L21 1L20 1L20 0L19 0L19 1L20 1L20 2L21 2L21 3L23 3L23 2L24 2L24 4L21 4L21 5L24 5L24 4L25 4L25 6L24 6L24 7L23 7L23 6L22 6L22 7L21 7L21 6L20 6L20 5L19 5L19 6L18 6L18 7L17 7L17 5L18 5L18 4L20 4L20 3L19 3L19 2L17 2L17 1L16 1L16 0ZM37 1L37 2L38 2L38 1ZM42 1L42 2L41 2L41 3L40 3L40 4L38 4L38 5L36 5L36 6L35 6L35 7L34 7L34 6L33 6L33 7L34 7L34 8L33 8L33 10L35 10L35 11L34 11L34 12L37 12L37 10L40 10L40 12L38 12L38 13L37 13L37 14L36 14L36 13L33 13L33 11L31 11L31 12L32 12L32 14L31 14L31 15L32 15L32 14L35 14L35 15L33 15L33 16L30 16L30 15L27 15L27 14L28 14L28 13L29 13L29 14L30 14L30 13L29 13L29 12L30 12L30 10L28 10L28 11L29 11L29 12L28 12L28 13L26 13L26 14L24 14L24 15L25 15L25 16L28 16L28 17L25 17L25 19L26 19L26 20L28 20L28 21L25 21L25 22L26 22L26 23L25 23L25 24L26 24L26 25L25 25L25 26L23 26L23 24L24 24L24 23L23 23L23 22L24 22L24 21L23 21L23 18L21 18L21 17L20 17L20 16L21 16L21 15L22 15L22 17L24 17L24 16L23 16L23 13L25 13L25 12L27 12L27 11L26 11L26 10L27 10L27 9L26 9L26 6L25 6L25 7L24 7L24 9L23 9L23 7L22 7L22 8L21 8L21 7L20 7L20 6L19 6L19 9L20 9L20 11L19 11L19 10L18 10L18 9L17 9L17 8L16 8L16 6L15 6L15 5L16 5L16 4L18 4L18 3L17 3L17 2L16 2L16 4L15 4L15 3L14 3L14 4L13 4L13 5L11 5L11 7L12 7L12 8L11 8L11 9L13 9L13 11L14 11L14 12L13 12L13 13L14 13L14 18L15 18L15 14L17 14L17 15L16 15L16 16L18 16L18 15L19 15L19 17L16 17L16 18L17 18L17 19L18 19L18 20L19 20L19 21L17 21L17 20L15 20L15 21L13 21L13 22L14 22L14 23L12 23L12 22L11 22L11 25L12 25L12 28L11 28L11 29L12 29L12 31L11 31L11 30L9 30L9 31L2 31L2 32L1 32L1 34L2 34L2 33L3 33L3 32L9 32L9 34L7 34L7 33L4 33L4 35L5 35L5 36L8 36L8 37L6 37L6 38L9 38L9 40L7 40L7 39L5 39L5 40L3 40L3 39L4 39L4 38L5 38L5 37L4 37L4 36L3 36L3 37L2 37L2 39L1 39L1 40L2 40L2 44L3 44L3 45L6 45L6 46L7 46L7 47L8 47L8 49L9 49L9 47L10 47L10 48L11 48L11 47L12 47L12 48L14 48L14 51L13 51L13 52L14 52L14 51L15 51L15 47L12 47L12 45L15 45L15 44L16 44L16 42L18 42L18 43L17 43L17 44L18 44L18 45L16 45L16 46L17 46L17 47L16 47L16 48L17 48L17 47L18 47L18 48L19 48L19 47L20 47L20 48L21 48L21 49L22 49L22 50L21 50L21 51L23 51L23 52L22 52L22 53L23 53L23 54L24 54L24 53L23 53L23 52L24 52L24 51L25 51L25 52L26 52L26 51L25 51L25 50L26 50L26 49L25 49L25 50L23 50L23 48L22 48L22 47L25 47L25 48L31 48L31 52L32 52L32 51L33 51L33 50L35 50L35 49L36 49L36 48L38 48L38 49L37 49L37 50L39 50L39 51L37 51L37 52L40 52L40 51L41 51L41 52L42 52L42 51L43 51L43 50L42 50L42 49L43 49L43 48L44 48L44 47L45 47L45 42L46 42L46 43L47 43L47 42L48 42L48 43L49 43L49 41L51 41L51 42L50 42L50 43L51 43L51 42L53 42L53 43L52 43L52 44L53 44L53 43L54 43L54 40L53 40L53 39L54 39L54 37L55 37L55 36L56 36L56 35L55 35L55 36L54 36L54 37L53 37L53 36L52 36L52 34L53 34L53 35L54 35L54 34L53 34L53 33L51 33L51 34L50 34L50 31L48 31L48 29L46 29L46 30L45 30L45 28L44 28L44 30L42 30L42 29L43 29L43 28L42 28L42 27L46 27L46 28L47 28L47 25L49 25L49 24L50 24L50 22L51 22L51 23L55 23L55 22L53 22L53 20L52 20L52 21L51 21L51 19L50 19L50 22L49 22L49 24L47 24L47 21L46 21L46 20L47 20L47 19L48 19L48 20L49 20L49 19L48 19L48 18L47 18L47 17L48 17L48 16L49 16L49 15L45 15L45 14L42 14L42 11L41 11L41 9L42 9L42 8L39 8L39 9L37 9L37 10L36 10L36 8L37 8L37 7L38 7L38 5L39 5L39 7L40 7L40 6L41 6L41 7L42 7L42 6L43 6L43 7L44 7L44 6L45 6L45 7L46 7L46 6L45 6L45 5L44 5L44 4L46 4L46 5L47 5L47 3L43 3L43 2L44 2L44 1ZM45 1L45 2L47 2L47 1ZM25 3L25 4L26 4L26 3ZM28 3L28 4L29 4L29 3ZM41 3L41 4L40 4L40 5L43 5L43 3ZM14 4L14 5L15 5L15 4ZM9 5L9 7L10 7L10 5ZM27 5L27 8L30 8L30 5ZM12 6L12 7L13 7L13 9L14 9L14 10L15 10L15 12L16 12L16 13L18 13L18 14L19 14L19 13L22 13L22 12L19 12L19 13L18 13L18 12L16 12L16 11L18 11L18 10L15 10L15 9L16 9L16 8L15 8L15 6L14 6L14 7L13 7L13 6ZM28 6L28 7L29 7L29 6ZM36 6L36 7L35 7L35 8L34 8L34 9L35 9L35 8L36 8L36 7L37 7L37 6ZM14 8L14 9L15 9L15 8ZM20 8L20 9L21 9L21 11L22 11L22 9L21 9L21 8ZM43 8L43 9L44 9L44 10L43 10L43 11L44 11L44 13L45 13L45 12L46 12L46 14L47 14L47 13L49 13L49 14L51 14L51 15L50 15L50 18L54 18L54 17L55 17L55 18L56 18L56 17L55 17L55 16L56 16L56 15L55 15L55 16L54 16L54 14L53 14L53 13L55 13L55 14L56 14L56 13L55 13L55 12L54 12L54 11L53 11L53 10L52 10L52 11L49 11L49 10L48 10L48 9L49 9L49 8L48 8L48 9L47 9L47 8L46 8L46 10L45 10L45 8ZM55 8L55 9L56 9L56 8ZM6 9L6 10L7 10L7 11L9 11L9 12L7 12L7 13L8 13L8 14L9 14L9 12L10 12L10 11L9 11L9 10L10 10L10 9L8 9L8 10L7 10L7 9ZM24 9L24 10L23 10L23 12L25 12L25 11L24 11L24 10L25 10L25 9ZM31 9L31 10L32 10L32 9ZM0 10L0 11L1 11L1 10ZM11 10L11 11L12 11L12 10ZM44 10L44 11L45 11L45 10ZM46 10L46 11L47 11L47 12L49 12L49 11L47 11L47 10ZM52 11L52 12L53 12L53 11ZM11 12L11 14L10 14L10 15L11 15L11 14L12 14L12 12ZM50 12L50 13L51 13L51 14L52 14L52 13L51 13L51 12ZM39 13L39 14L37 14L37 16L35 16L35 17L37 17L37 18L36 18L36 19L37 19L37 20L36 20L36 21L37 21L37 22L36 22L36 23L35 23L35 22L34 22L34 24L33 24L33 25L35 25L35 26L32 26L32 25L30 25L30 24L31 24L31 23L33 23L33 21L32 21L32 20L35 20L35 18L34 18L34 17L33 17L33 18L34 18L34 19L28 19L28 18L27 18L27 19L28 19L28 20L29 20L29 21L30 21L30 22L27 22L27 24L29 24L29 26L28 26L28 25L26 25L26 26L25 26L25 27L24 27L24 28L23 28L23 26L22 26L22 27L21 27L21 28L20 28L20 27L19 27L19 26L20 26L20 25L19 25L19 24L21 24L21 22L23 22L23 21L19 21L19 22L17 22L17 24L16 24L16 23L15 23L15 24L16 24L16 25L15 25L15 26L16 26L16 27L15 27L15 31L16 31L16 33L15 33L15 32L14 32L14 33L13 33L13 32L11 32L11 33L10 33L10 35L11 35L11 34L14 34L14 36L13 36L13 35L12 35L12 36L13 36L13 37L12 37L12 38L14 38L14 36L15 36L15 37L16 37L16 38L15 38L15 39L16 39L16 41L14 41L14 39L11 39L11 36L10 36L10 37L9 37L9 38L10 38L10 40L9 40L9 42L10 42L10 43L8 43L8 44L9 44L9 46L8 46L8 45L7 45L7 44L6 44L6 45L7 45L7 46L8 46L8 47L9 47L9 46L10 46L10 47L11 47L11 45L12 45L12 44L10 44L10 43L13 43L13 42L12 42L12 41L11 41L11 42L10 42L10 40L13 40L13 41L14 41L14 42L16 42L16 41L19 41L19 43L20 43L20 44L19 44L19 45L18 45L18 47L19 47L19 45L22 45L22 44L21 44L21 43L22 43L22 42L23 42L23 43L24 43L24 44L23 44L23 45L24 45L24 46L25 46L25 45L26 45L26 44L25 44L25 42L26 42L26 43L27 43L27 44L28 44L28 45L27 45L27 46L26 46L26 47L31 47L31 48L33 48L33 49L32 49L32 50L33 50L33 49L34 49L34 48L33 48L33 47L35 47L35 48L36 48L36 47L40 47L40 48L39 48L39 50L41 50L41 51L42 51L42 50L41 50L41 49L40 49L40 48L41 48L41 47L42 47L42 48L43 48L43 47L42 47L42 46L44 46L44 44L43 44L43 43L44 43L44 42L45 42L45 41L47 41L47 39L49 39L49 40L50 40L50 38L51 38L51 37L49 37L49 36L48 36L48 38L47 38L47 39L46 39L46 38L45 38L45 37L44 37L44 34L46 34L46 35L45 35L45 36L47 36L47 35L49 35L49 34L48 34L48 33L47 33L47 32L48 32L48 31L47 31L47 30L46 30L46 31L45 31L45 30L44 30L44 31L43 31L43 32L41 32L41 31L42 31L42 30L41 30L41 29L39 29L39 28L36 28L36 27L40 27L40 26L43 26L43 25L44 25L44 26L45 26L45 25L44 25L44 24L42 24L42 25L40 25L40 26L38 26L38 23L39 23L39 24L41 24L41 23L43 23L43 20L46 20L46 19L47 19L47 18L45 18L45 17L44 17L44 18L45 18L45 19L42 19L42 18L43 18L43 16L45 16L45 15L42 15L42 14L41 14L41 15L40 15L40 13ZM20 14L20 15L21 15L21 14ZM8 15L8 16L9 16L9 15ZM38 15L38 16L37 16L37 17L38 17L38 18L37 18L37 19L38 19L38 20L37 20L37 21L38 21L38 22L37 22L37 23L36 23L36 24L37 24L37 23L38 23L38 22L40 22L40 23L41 23L41 20L40 20L40 19L41 19L41 18L42 18L42 17L41 17L41 16L42 16L42 15L41 15L41 16L40 16L40 15ZM12 16L12 17L13 17L13 16ZM38 16L38 17L39 17L39 18L38 18L38 19L40 19L40 18L41 18L41 17L40 17L40 16ZM46 16L46 17L47 17L47 16ZM53 16L53 17L54 17L54 16ZM29 17L29 18L32 18L32 17ZM12 18L12 19L13 19L13 20L14 20L14 19L13 19L13 18ZM18 18L18 19L19 19L19 20L21 20L21 19L19 19L19 18ZM30 20L30 21L31 21L31 20ZM38 20L38 21L40 21L40 20ZM2 21L2 22L1 22L1 24L2 24L2 26L5 26L5 24L7 24L7 23L5 23L5 24L4 24L4 25L3 25L3 24L2 24L2 22L3 22L3 23L4 23L4 22L3 22L3 21ZM5 21L5 22L7 22L7 21ZM15 21L15 22L16 22L16 21ZM44 21L44 23L46 23L46 22L45 22L45 21ZM19 22L19 23L20 23L20 22ZM30 22L30 23L31 23L31 22ZM12 24L12 25L13 25L13 26L14 26L14 24ZM6 25L6 26L7 26L7 25ZM16 25L16 26L17 26L17 27L16 27L16 28L17 28L17 29L16 29L16 31L18 31L18 30L17 30L17 29L18 29L18 28L17 28L17 27L18 27L18 25ZM36 25L36 26L35 26L35 27L36 27L36 26L37 26L37 25ZM9 26L9 27L10 27L10 26ZM5 27L5 30L8 30L8 27ZM25 27L25 28L24 28L24 29L22 29L22 28L21 28L21 29L19 29L19 33L18 33L18 34L17 34L17 33L16 33L16 34L17 34L17 35L16 35L16 37L18 37L18 38L17 38L17 39L18 39L18 38L20 38L20 39L19 39L19 40L20 40L20 43L21 43L21 41L23 41L23 42L24 42L24 41L25 41L25 38L26 38L26 39L27 39L27 41L26 41L26 42L27 42L27 43L28 43L28 44L29 44L29 45L28 45L28 46L29 46L29 45L30 45L30 46L31 46L31 47L32 47L32 46L35 46L35 47L36 47L36 46L40 46L40 47L41 47L41 46L42 46L42 45L43 45L43 44L39 44L39 43L40 43L40 41L42 41L42 40L43 40L43 39L45 39L45 38L44 38L44 37L43 37L43 34L44 34L44 33L45 33L45 32L43 32L43 34L42 34L42 33L41 33L41 32L40 32L40 31L37 31L37 30L39 30L39 29L37 29L37 30L36 30L36 29L33 29L33 28L34 28L34 27L33 27L33 28L32 28L32 27L31 27L31 28L32 28L32 29L33 29L33 30L31 30L31 31L33 31L33 32L30 32L30 31L29 31L29 32L30 32L30 33L25 33L25 34L23 34L23 33L24 33L24 31L25 31L25 32L27 32L27 31L25 31L25 30L26 30L26 27ZM27 27L27 30L30 30L30 27ZM49 27L49 30L52 30L52 27ZM6 28L6 29L7 29L7 28ZM28 28L28 29L29 29L29 28ZM50 28L50 29L51 29L51 28ZM54 28L54 29L53 29L53 30L54 30L54 31L52 31L52 32L54 32L54 33L55 33L55 34L56 34L56 33L55 33L55 32L54 32L54 31L55 31L55 30L56 30L56 29L55 29L55 28ZM13 29L13 31L14 31L14 29ZM21 29L21 30L22 30L22 31L21 31L21 32L20 32L20 33L21 33L21 34L20 34L20 35L21 35L21 34L22 34L22 33L21 33L21 32L23 32L23 30L22 30L22 29ZM24 29L24 30L25 30L25 29ZM54 29L54 30L55 30L55 29ZM33 30L33 31L35 31L35 32L34 32L34 33L32 33L32 34L34 34L34 35L33 35L33 36L34 36L34 37L33 37L33 38L34 38L34 41L32 41L32 40L33 40L33 39L31 39L31 38L32 38L32 35L30 35L30 34L29 34L29 35L30 35L30 36L29 36L29 37L28 37L28 36L27 36L27 35L26 35L26 34L25 34L25 35L24 35L24 37L22 37L22 36L21 36L21 37L22 37L22 38L24 38L24 37L25 37L25 35L26 35L26 38L27 38L27 39L28 39L28 41L27 41L27 42L28 42L28 43L29 43L29 44L30 44L30 45L31 45L31 44L34 44L34 43L36 43L36 44L35 44L35 46L36 46L36 45L38 45L38 44L37 44L37 43L36 43L36 41L37 41L37 42L38 42L38 43L39 43L39 42L38 42L38 40L36 40L36 39L38 39L38 37L39 37L39 38L40 38L40 36L41 36L41 35L42 35L42 34L40 34L40 32L38 32L38 33L37 33L37 32L36 32L36 30ZM46 31L46 32L47 32L47 31ZM35 32L35 33L34 33L34 34L35 34L35 35L34 35L34 36L35 36L35 37L34 37L34 38L35 38L35 39L36 39L36 38L37 38L37 37L38 37L38 36L37 36L37 35L38 35L38 34L39 34L39 33L38 33L38 34L35 34L35 33L36 33L36 32ZM46 33L46 34L47 34L47 33ZM5 34L5 35L7 35L7 34ZM18 34L18 35L17 35L17 36L18 36L18 37L20 37L20 36L18 36L18 35L19 35L19 34ZM1 35L1 36L2 36L2 35ZM8 35L8 36L9 36L9 35ZM39 35L39 36L40 36L40 35ZM50 35L50 36L51 36L51 35ZM30 36L30 38L31 38L31 36ZM36 36L36 37L35 37L35 38L36 38L36 37L37 37L37 36ZM27 37L27 38L28 38L28 37ZM42 37L42 38L41 38L41 40L42 40L42 38L43 38L43 37ZM52 38L52 39L53 39L53 38ZM23 39L23 41L24 41L24 39ZM29 39L29 40L31 40L31 39ZM39 39L39 40L40 40L40 39ZM5 40L5 41L4 41L4 43L3 43L3 44L4 44L4 43L5 43L5 42L6 42L6 43L7 43L7 42L6 42L6 41L7 41L7 40ZM44 40L44 41L43 41L43 42L44 42L44 41L45 41L45 40ZM51 40L51 41L53 41L53 40ZM28 41L28 42L29 42L29 43L30 43L30 44L31 44L31 43L34 43L34 42L35 42L35 41L34 41L34 42L32 42L32 41ZM30 42L30 43L31 43L31 42ZM41 42L41 43L42 43L42 42ZM14 43L14 44L15 44L15 43ZM24 44L24 45L25 45L25 44ZM40 45L40 46L41 46L41 45ZM46 45L46 46L47 46L47 45ZM49 45L49 46L50 46L50 45ZM3 46L3 47L5 47L5 46ZM21 46L21 47L22 47L22 46ZM54 48L54 49L56 49L56 48ZM27 49L27 52L30 52L30 49ZM49 49L49 52L52 52L52 49ZM10 50L10 51L11 51L11 50ZM28 50L28 51L29 51L29 50ZM50 50L50 51L51 51L51 50ZM10 52L10 54L12 54L12 55L9 55L9 56L12 56L12 55L13 55L13 56L14 56L14 55L13 55L13 53L11 53L11 52ZM19 52L19 53L21 53L21 52ZM47 52L47 53L45 53L45 54L46 54L46 55L47 55L47 54L49 54L49 55L50 55L50 54L51 54L51 55L53 55L53 54L51 54L51 53L48 53L48 52ZM25 53L25 54L26 54L26 53ZM29 53L29 54L30 54L30 53ZM38 53L38 54L37 54L37 55L38 55L38 54L39 54L39 53ZM27 55L27 56L28 56L28 55ZM35 55L35 56L36 56L36 55ZM0 0L0 7L7 7L7 0ZM1 1L1 6L6 6L6 1ZM2 2L2 5L5 5L5 2ZM50 0L50 7L57 7L57 0ZM51 1L51 6L56 6L56 1ZM52 2L52 5L55 5L55 2ZM0 50L0 57L7 57L7 50ZM1 51L1 56L6 56L6 51ZM2 52L2 55L5 55L5 52Z" fill="#000000"/></g></g></svg>
