<?xml version="1.0" encoding="UTF-8"?>
<svg xmlns="http://www.w3.org/2000/svg" version="1.1" width="300" height="300" viewBox="0 0 300 300"><rect x="0" y="0" width="300" height="300" fill="#ffffff"/><g transform="scale(4.918)"><g transform="translate(2,2)"><path fill-rule="evenodd" d="M10 0L10 2L9 2L9 1L8 1L8 2L9 2L9 3L8 3L8 4L9 4L9 5L8 5L8 7L9 7L9 5L10 5L10 4L9 4L9 3L11 3L11 6L10 6L10 7L11 7L11 6L12 6L12 7L13 7L13 6L14 6L14 8L13 8L13 9L14 9L14 10L15 10L15 9L14 9L14 8L15 8L15 6L16 6L16 8L17 8L17 9L19 9L19 12L20 12L20 13L22 13L22 12L20 12L20 9L19 9L19 6L20 6L20 7L21 7L21 8L22 8L22 7L23 7L23 9L22 9L22 10L21 10L21 11L22 11L22 10L23 10L23 13L24 13L24 14L23 14L23 15L22 15L22 14L21 14L21 15L19 15L19 13L18 13L18 12L16 12L16 11L15 11L15 12L16 12L16 13L18 13L18 15L19 15L19 16L18 16L18 17L17 17L17 16L16 16L16 17L14 17L14 16L13 16L13 14L14 14L14 15L16 15L16 14L14 14L14 13L11 13L11 12L14 12L14 11L13 11L13 10L12 10L12 9L10 9L10 8L6 8L6 9L7 9L7 10L5 10L5 8L0 8L0 9L2 9L2 10L1 10L1 11L2 11L2 10L3 10L3 12L4 12L4 13L3 13L3 16L4 16L4 15L5 15L5 16L6 16L6 17L2 17L2 19L3 19L3 21L4 21L4 20L5 20L5 22L2 22L2 20L1 20L1 19L0 19L0 20L1 20L1 21L0 21L0 25L1 25L1 28L2 28L2 29L0 29L0 32L2 32L2 35L3 35L3 36L2 36L2 37L1 37L1 36L0 36L0 38L3 38L3 39L2 39L2 40L3 40L3 42L1 42L1 44L0 44L0 45L1 45L1 44L2 44L2 47L1 47L1 46L0 46L0 48L5 48L5 47L7 47L7 48L6 48L6 49L7 49L7 48L8 48L8 51L9 51L9 52L8 52L8 57L9 57L9 55L10 55L10 56L11 56L11 55L12 55L12 54L13 54L13 52L15 52L15 51L17 51L17 53L19 53L19 54L17 54L17 57L19 57L19 56L23 56L23 57L24 57L24 56L25 56L25 57L26 57L26 56L28 56L28 55L27 55L27 53L28 53L28 54L29 54L29 55L30 55L30 56L29 56L29 57L31 57L31 55L33 55L33 54L32 54L32 52L33 52L33 51L35 51L35 52L36 52L36 53L37 53L37 54L34 54L34 56L35 56L35 57L39 57L39 56L41 56L41 57L44 57L44 56L45 56L45 57L46 57L46 56L45 56L45 55L49 55L49 56L48 56L48 57L52 57L52 56L53 56L53 57L54 57L54 56L55 56L55 57L56 57L56 56L55 56L55 55L54 55L54 54L55 54L55 53L56 53L56 52L57 52L57 51L56 51L56 50L57 50L57 49L56 49L56 50L54 50L54 49L53 49L53 48L55 48L55 47L56 47L56 48L57 48L57 47L56 47L56 46L57 46L57 45L56 45L56 46L55 46L55 45L54 45L54 44L57 44L57 43L56 43L56 42L57 42L57 41L54 41L54 40L55 40L55 39L57 39L57 37L55 37L55 36L57 36L57 35L53 35L53 34L52 34L52 36L51 36L51 37L50 37L50 36L49 36L49 35L50 35L50 33L53 33L53 32L55 32L55 33L54 33L54 34L57 34L57 33L56 33L56 31L55 31L55 29L56 29L56 30L57 30L57 29L56 29L56 28L55 28L55 27L56 27L56 26L55 26L55 25L54 25L54 24L55 24L55 23L56 23L56 22L57 22L57 20L56 20L56 21L55 21L55 22L54 22L54 21L53 21L53 22L54 22L54 24L53 24L53 23L52 23L52 24L51 24L51 26L50 26L50 23L51 23L51 22L50 22L50 19L49 19L49 18L50 18L50 17L51 17L51 18L52 18L52 17L51 17L51 16L52 16L52 15L49 15L49 14L50 14L50 13L51 13L51 14L52 14L52 13L51 13L51 12L49 12L49 11L52 11L52 12L53 12L53 11L54 11L54 12L55 12L55 13L53 13L53 14L57 14L57 13L56 13L56 10L57 10L57 9L56 9L56 8L55 8L55 9L56 9L56 10L55 10L55 11L54 11L54 10L53 10L53 9L54 9L54 8L53 8L53 9L52 9L52 8L51 8L51 10L49 10L49 9L50 9L50 8L49 8L49 6L48 6L48 7L47 7L47 5L48 5L48 0L44 0L44 1L43 1L43 0L42 0L42 1L41 1L41 2L39 2L39 1L40 1L40 0L39 0L39 1L37 1L37 0L36 0L36 1L33 1L33 2L32 2L32 1L31 1L31 0L30 0L30 1L29 1L29 2L28 2L28 1L26 1L26 0L24 0L24 2L22 2L22 1L23 1L23 0L21 0L21 1L20 1L20 3L17 3L17 2L16 2L16 0L12 0L12 1L11 1L11 0ZM12 1L12 2L11 2L11 3L12 3L12 2L13 2L13 1ZM14 1L14 4L15 4L15 5L14 5L14 6L15 6L15 5L16 5L16 4L17 4L17 3L16 3L16 4L15 4L15 1ZM18 1L18 2L19 2L19 1ZM25 1L25 2L24 2L24 3L20 3L20 4L18 4L18 5L17 5L17 7L18 7L18 5L20 5L20 6L21 6L21 7L22 7L22 6L23 6L23 7L24 7L24 9L23 9L23 10L24 10L24 13L25 13L25 15L26 15L26 16L21 16L21 17L18 17L18 18L17 18L17 17L16 17L16 18L15 18L15 19L16 19L16 20L15 20L15 21L13 21L13 20L14 20L14 19L13 19L13 18L12 18L12 14L11 14L11 15L10 15L10 13L9 13L9 12L10 12L10 11L9 11L9 10L7 10L7 11L4 11L4 12L5 12L5 13L4 13L4 14L7 14L7 13L6 13L6 12L8 12L8 14L9 14L9 15L8 15L8 18L7 18L7 17L6 17L6 18L4 18L4 19L6 19L6 20L7 20L7 21L6 21L6 22L9 22L9 21L10 21L10 22L11 22L11 21L10 21L10 20L11 20L11 19L13 19L13 20L12 20L12 22L13 22L13 23L16 23L16 25L14 25L14 24L13 24L13 25L14 25L14 26L13 26L13 27L14 27L14 26L16 26L16 27L18 27L18 26L19 26L19 25L20 25L20 27L19 27L19 33L16 33L16 32L17 32L17 31L18 31L18 30L17 30L17 29L18 29L18 28L17 28L17 29L16 29L16 28L12 28L12 27L11 27L11 25L9 25L9 27L10 27L10 29L9 29L9 32L8 32L8 31L4 31L4 34L3 34L3 35L4 35L4 36L3 36L3 37L6 37L6 38L9 38L9 37L6 37L6 36L7 36L7 35L5 35L5 34L8 34L8 35L9 35L9 36L10 36L10 37L11 37L11 39L10 39L10 40L8 40L8 39L5 39L5 38L4 38L4 39L3 39L3 40L4 40L4 41L5 41L5 40L7 40L7 41L6 41L6 42L4 42L4 43L3 43L3 45L4 45L4 43L6 43L6 44L5 44L5 45L6 45L6 46L7 46L7 47L8 47L8 46L9 46L9 45L10 45L10 46L11 46L11 44L12 44L12 43L13 43L13 45L14 45L14 43L16 43L16 44L18 44L18 45L15 45L15 46L13 46L13 48L12 48L12 47L10 47L10 48L12 48L12 51L14 51L14 47L15 47L15 48L16 48L16 47L15 47L15 46L18 46L18 45L19 45L19 47L20 47L20 48L19 48L19 49L15 49L15 50L19 50L19 49L20 49L20 50L22 50L22 51L23 51L23 50L24 50L24 51L25 51L25 53L26 53L26 49L25 49L25 48L26 48L26 47L28 47L28 48L29 48L29 47L28 47L28 46L29 46L29 45L30 45L30 46L31 46L31 47L30 47L30 48L31 48L31 49L32 49L32 50L31 50L31 52L32 52L32 51L33 51L33 50L35 50L35 48L37 48L37 49L36 49L36 50L39 50L39 48L40 48L40 51L39 51L39 52L38 52L38 51L36 51L36 52L38 52L38 54L37 54L37 55L35 55L35 56L37 56L37 55L38 55L38 56L39 56L39 52L40 52L40 55L41 55L41 56L43 56L43 55L45 55L45 54L44 54L44 53L45 53L45 52L46 52L46 54L47 54L47 53L48 53L48 52L46 52L46 51L45 51L45 50L47 50L47 51L48 51L48 48L49 48L49 47L51 47L51 48L53 48L53 47L55 47L55 46L53 46L53 45L52 45L52 44L53 44L53 43L54 43L54 41L53 41L53 40L54 40L54 38L55 38L55 37L54 37L54 36L53 36L53 37L51 37L51 38L49 38L49 39L48 39L48 37L49 37L49 36L47 36L47 35L46 35L46 36L47 36L47 37L45 37L45 34L47 34L47 33L48 33L48 35L49 35L49 33L50 33L50 31L48 31L48 30L47 30L47 29L48 29L48 27L47 27L47 26L48 26L48 25L49 25L49 23L50 23L50 22L49 22L49 23L47 23L47 22L48 22L48 21L49 21L49 19L47 19L47 20L48 20L48 21L46 21L46 20L43 20L43 19L46 19L46 18L48 18L48 17L49 17L49 15L45 15L45 16L44 16L44 15L43 15L43 14L42 14L42 11L43 11L43 12L44 12L44 13L45 13L45 12L46 12L46 14L47 14L47 13L49 13L49 12L48 12L48 10L47 10L47 9L49 9L49 8L47 8L47 7L46 7L46 6L45 6L45 5L44 5L44 4L46 4L46 5L47 5L47 3L43 3L43 1L42 1L42 3L40 3L40 4L42 4L42 3L43 3L43 7L42 7L42 6L41 6L41 5L40 5L40 6L39 6L39 8L38 8L38 6L37 6L37 5L36 5L36 3L37 3L37 4L38 4L38 5L39 5L39 4L38 4L38 3L37 3L37 2L33 2L33 3L32 3L32 4L31 4L31 1L30 1L30 4L31 4L31 8L34 8L34 10L33 10L33 11L34 11L34 12L35 12L35 11L36 11L36 10L37 10L37 11L38 11L38 10L40 10L40 12L38 12L38 14L37 14L37 13L33 13L33 12L32 12L32 11L31 11L31 14L35 14L35 15L33 15L33 16L30 16L30 15L27 15L27 14L28 14L28 13L29 13L29 14L30 14L30 13L29 13L29 12L30 12L30 10L27 10L27 9L26 9L26 6L25 6L25 4L26 4L26 3L25 3L25 2L26 2L26 1ZM44 1L44 2L45 2L45 1ZM46 1L46 2L47 2L47 1ZM27 2L27 3L28 3L28 4L29 4L29 3L28 3L28 2ZM24 3L24 4L21 4L21 5L24 5L24 4L25 4L25 3ZM33 3L33 4L34 4L34 3ZM27 5L27 8L30 8L30 5ZM34 5L34 7L35 7L35 8L36 8L36 9L35 9L35 10L34 10L34 11L35 11L35 10L36 10L36 9L37 9L37 10L38 10L38 9L37 9L37 8L36 8L36 7L37 7L37 6L36 6L36 5ZM24 6L24 7L25 7L25 6ZM28 6L28 7L29 7L29 6ZM32 6L32 7L33 7L33 6ZM35 6L35 7L36 7L36 6ZM40 6L40 7L41 7L41 9L42 9L42 10L41 10L41 11L42 11L42 10L43 10L43 11L44 11L44 12L45 12L45 11L46 11L46 10L45 10L45 11L44 11L44 8L46 8L46 7L45 7L45 6L44 6L44 8L42 8L42 7L41 7L41 6ZM3 9L3 10L4 10L4 9ZM24 9L24 10L25 10L25 9ZM31 9L31 10L32 10L32 9ZM17 10L17 11L18 11L18 10ZM26 10L26 11L27 11L27 12L25 12L25 13L26 13L26 14L27 14L27 13L28 13L28 12L29 12L29 11L27 11L27 10ZM52 10L52 11L53 11L53 10ZM8 11L8 12L9 12L9 11ZM0 12L0 13L1 13L1 16L0 16L0 17L1 17L1 16L2 16L2 12ZM36 14L36 15L35 15L35 16L33 16L33 18L34 18L34 19L32 19L32 18L31 18L31 17L29 17L29 18L31 18L31 19L29 19L29 21L30 21L30 22L29 22L29 23L28 23L28 21L27 21L27 24L29 24L29 26L27 26L27 25L26 25L26 24L25 24L25 23L26 23L26 22L25 22L25 21L26 21L26 19L27 19L27 20L28 20L28 18L27 18L27 17L28 17L28 16L26 16L26 17L24 17L24 18L25 18L25 19L24 19L24 20L23 20L23 21L22 21L22 20L21 20L21 21L19 21L19 20L18 20L18 19L19 19L19 18L18 18L18 19L17 19L17 18L16 18L16 19L17 19L17 21L19 21L19 22L20 22L20 23L19 23L19 24L18 24L18 22L17 22L17 24L18 24L18 25L17 25L17 26L18 26L18 25L19 25L19 24L23 24L23 23L24 23L24 25L23 25L23 26L22 26L22 27L20 27L20 29L21 29L21 30L20 30L20 31L21 31L21 32L20 32L20 33L21 33L21 35L20 35L20 36L19 36L19 35L17 35L17 34L16 34L16 33L15 33L15 34L14 34L14 32L13 32L13 33L11 33L11 34L10 34L10 35L12 35L12 34L13 34L13 38L15 38L15 39L16 39L16 40L14 40L14 39L13 39L13 41L14 41L14 42L15 42L15 41L17 41L17 42L16 42L16 43L18 43L18 42L19 42L19 43L20 43L20 41L21 41L21 43L22 43L22 42L24 42L24 43L23 43L23 45L24 45L24 46L25 46L25 47L24 47L24 48L23 48L23 49L22 49L22 50L23 50L23 49L24 49L24 50L25 50L25 49L24 49L24 48L25 48L25 47L26 47L26 46L25 46L25 45L26 45L26 44L25 44L25 42L26 42L26 43L27 43L27 45L29 45L29 44L30 44L30 43L31 43L31 44L34 44L34 43L35 43L35 45L37 45L37 44L38 44L38 45L39 45L39 44L38 44L38 41L37 41L37 40L38 40L38 37L39 37L39 38L40 38L40 36L41 36L41 37L42 37L42 38L43 38L43 37L44 37L44 38L45 38L45 37L44 37L44 35L43 35L43 36L42 36L42 35L41 35L41 34L43 34L43 33L41 33L41 34L37 34L37 33L38 33L38 32L35 32L35 34L33 34L33 36L34 36L34 37L35 37L35 36L34 36L34 35L35 35L35 34L36 34L36 35L37 35L37 36L36 36L36 37L37 37L37 38L36 38L36 39L35 39L35 38L34 38L34 39L33 39L33 40L29 40L29 39L31 39L31 38L32 38L32 35L30 35L30 34L29 34L29 35L30 35L30 36L29 36L29 37L28 37L28 36L26 36L26 35L27 35L27 33L30 33L30 32L31 32L31 33L32 33L32 32L33 32L33 33L34 33L34 32L33 32L33 31L35 31L35 30L37 30L37 31L40 31L40 32L39 32L39 33L40 33L40 32L45 32L45 33L44 33L44 34L45 34L45 33L46 33L46 31L47 31L47 32L48 32L48 31L47 31L47 30L46 30L46 29L47 29L47 28L46 28L46 26L45 26L45 25L48 25L48 24L47 24L47 23L45 23L45 21L44 21L44 23L43 23L43 24L41 24L41 23L40 23L40 22L39 22L39 23L38 23L38 24L37 24L37 22L38 22L38 21L40 21L40 20L41 20L41 19L42 19L42 18L46 18L46 17L44 17L44 16L42 16L42 18L38 18L38 17L40 17L40 16L41 16L41 15L42 15L42 14L41 14L41 15L40 15L40 14L39 14L39 15L40 15L40 16L38 16L38 15L37 15L37 14ZM6 15L6 16L7 16L7 15ZM36 15L36 16L35 16L35 17L34 17L34 18L35 18L35 17L36 17L36 16L37 16L37 15ZM54 15L54 16L53 16L53 17L54 17L54 16L55 16L55 15ZM56 15L56 16L57 16L57 15ZM10 16L10 18L8 18L8 21L9 21L9 19L11 19L11 16ZM47 16L47 17L48 17L48 16ZM21 17L21 18L20 18L20 19L22 19L22 18L23 18L23 17ZM55 17L55 18L57 18L57 17ZM6 18L6 19L7 19L7 18ZM37 18L37 19L34 19L34 20L32 20L32 21L33 21L33 23L32 23L32 24L31 24L31 25L32 25L32 26L31 26L31 27L32 27L32 30L31 30L31 32L32 32L32 31L33 31L33 30L35 30L35 29L33 29L33 28L34 28L34 27L33 27L33 25L34 25L34 26L35 26L35 27L36 27L36 25L35 25L35 24L36 24L36 22L37 22L37 21L38 21L38 20L40 20L40 19L38 19L38 18ZM37 19L37 20L36 20L36 21L37 21L37 20L38 20L38 19ZM51 19L51 20L52 20L52 19ZM54 19L54 20L55 20L55 19ZM42 20L42 21L41 21L41 22L43 22L43 20ZM15 21L15 22L16 22L16 21ZM21 21L21 22L22 22L22 21ZM23 21L23 22L24 22L24 21ZM30 22L30 23L29 23L29 24L30 24L30 23L31 23L31 22ZM34 22L34 24L35 24L35 22ZM2 23L2 24L1 24L1 25L2 25L2 28L4 28L4 27L3 27L3 25L4 25L4 26L8 26L8 24L7 24L7 23ZM39 23L39 24L40 24L40 25L38 25L38 26L37 26L37 27L38 27L38 28L37 28L37 30L39 30L39 29L40 29L40 31L41 31L41 30L42 30L42 31L43 31L43 30L45 30L45 31L46 31L46 30L45 30L45 28L44 28L44 27L45 27L45 26L42 26L42 25L41 25L41 24L40 24L40 23ZM6 24L6 25L7 25L7 24ZM44 24L44 25L45 25L45 24ZM52 24L52 26L53 26L53 27L55 27L55 26L54 26L54 25L53 25L53 24ZM25 25L25 26L26 26L26 25ZM40 25L40 26L38 26L38 27L39 27L39 28L40 28L40 26L41 26L41 27L42 27L42 28L43 28L43 27L42 27L42 26L41 26L41 25ZM23 26L23 29L22 29L22 28L21 28L21 29L22 29L22 30L23 30L23 29L25 29L25 30L24 30L24 31L22 31L22 32L21 32L21 33L23 33L23 35L22 35L22 37L21 37L21 36L20 36L20 37L17 37L17 35L15 35L15 36L14 36L14 37L15 37L15 38L16 38L16 37L17 37L17 38L20 38L20 39L17 39L17 40L19 40L19 41L20 41L20 40L21 40L21 41L23 41L23 39L24 39L24 41L25 41L25 38L26 38L26 40L27 40L27 41L26 41L26 42L29 42L29 43L28 43L28 44L29 44L29 43L30 43L30 42L29 42L29 40L28 40L28 39L27 39L27 38L28 38L28 37L26 37L26 36L25 36L25 37L24 37L24 36L23 36L23 35L25 35L25 34L26 34L26 33L27 33L27 31L25 31L25 30L26 30L26 27L24 27L24 26ZM5 27L5 30L8 30L8 27ZM27 27L27 30L30 30L30 27ZM49 27L49 30L52 30L52 27ZM6 28L6 29L7 29L7 28ZM11 28L11 29L10 29L10 31L11 31L11 32L12 32L12 31L11 31L11 29L12 29L12 28ZM28 28L28 29L29 29L29 28ZM50 28L50 29L51 29L51 28ZM54 28L54 29L55 29L55 28ZM2 29L2 30L1 30L1 31L3 31L3 29ZM42 29L42 30L43 30L43 29ZM14 30L14 31L15 31L15 32L16 32L16 31L15 31L15 30ZM53 30L53 31L51 31L51 32L53 32L53 31L54 31L54 30ZM24 31L24 32L25 32L25 33L24 33L24 34L25 34L25 33L26 33L26 32L25 32L25 31ZM28 31L28 32L30 32L30 31ZM6 32L6 33L8 33L8 32ZM9 32L9 33L10 33L10 32ZM0 33L0 34L1 34L1 33ZM38 35L38 36L37 36L37 37L38 37L38 36L40 36L40 35ZM11 36L11 37L12 37L12 36ZM15 36L15 37L16 37L16 36ZM30 36L30 38L31 38L31 36ZM22 37L22 38L21 38L21 40L22 40L22 38L24 38L24 37ZM0 39L0 41L1 41L1 39ZM34 39L34 40L35 40L35 41L33 41L33 43L34 43L34 42L35 42L35 43L36 43L36 42L37 42L37 41L36 41L36 40L37 40L37 39L36 39L36 40L35 40L35 39ZM39 39L39 40L41 40L41 44L43 44L43 45L42 45L42 46L41 46L41 45L40 45L40 46L33 46L33 45L32 45L32 46L33 46L33 47L31 47L31 48L34 48L34 47L40 47L40 48L41 48L41 47L42 47L42 48L43 48L43 49L42 49L42 50L41 50L41 51L40 51L40 52L41 52L41 55L43 55L43 53L44 53L44 50L45 50L45 49L44 49L44 48L45 48L45 47L47 47L47 46L46 46L46 45L47 45L47 44L51 44L51 43L50 43L50 42L51 42L51 41L49 41L49 40L53 40L53 39L49 39L49 40L48 40L48 39L42 39L42 40L41 40L41 39ZM10 40L10 41L8 41L8 43L7 43L7 42L6 42L6 43L7 43L7 44L6 44L6 45L7 45L7 46L8 46L8 45L9 45L9 43L12 43L12 41L11 41L11 40ZM42 40L42 41L43 41L43 43L44 43L44 45L45 45L45 43L46 43L46 42L47 42L47 43L49 43L49 41L48 41L48 40L44 40L44 41L43 41L43 40ZM31 41L31 42L32 42L32 41ZM39 41L39 42L40 42L40 41ZM44 41L44 42L45 42L45 41ZM47 41L47 42L48 42L48 41ZM7 44L7 45L8 45L8 44ZM20 44L20 45L22 45L22 44ZM24 44L24 45L25 45L25 44ZM49 45L49 46L51 46L51 47L52 47L52 45ZM3 46L3 47L5 47L5 46ZM21 46L21 47L22 47L22 46ZM40 46L40 47L41 47L41 46ZM42 46L42 47L43 47L43 48L44 48L44 47L43 47L43 46ZM17 47L17 48L18 48L18 47ZM20 48L20 49L21 49L21 48ZM9 49L9 50L10 50L10 51L11 51L11 49ZM27 49L27 52L30 52L30 49ZM43 49L43 50L42 50L42 51L41 51L41 52L42 52L42 53L43 53L43 50L44 50L44 49ZM49 49L49 52L52 52L52 49ZM28 50L28 51L29 51L29 50ZM50 50L50 51L51 51L51 50ZM18 51L18 52L19 52L19 53L21 53L21 54L22 54L22 53L23 53L23 54L24 54L24 53L23 53L23 52L22 52L22 53L21 53L21 51ZM9 52L9 54L10 54L10 55L11 55L11 54L12 54L12 52ZM53 52L53 53L54 53L54 52ZM14 53L14 54L16 54L16 53ZM29 53L29 54L30 54L30 53ZM50 53L50 54L49 54L49 55L50 55L50 56L51 56L51 55L53 55L53 56L54 56L54 55L53 55L53 54L51 54L51 53ZM19 54L19 55L18 55L18 56L19 56L19 55L20 55L20 54ZM50 54L50 55L51 55L51 54ZM13 55L13 56L12 56L12 57L14 57L14 55ZM15 55L15 56L16 56L16 55ZM23 55L23 56L24 56L24 55ZM0 0L0 7L7 7L7 0ZM1 1L1 6L6 6L6 1ZM2 2L2 5L5 5L5 2ZM50 0L50 7L57 7L57 0ZM51 1L51 6L56 6L56 1ZM52 2L52 5L55 5L55 2ZM0 50L0 57L7 57L7 50ZM1 51L1 56L6 56L6 51ZM2 52L2 55L5 55L5 52Z" fill="#000000"/></g></g></svg>
