<?xml version="1.0" encoding="UTF-8"?>
<svg xmlns="http://www.w3.org/2000/svg" version="1.1" width="300" height="300" viewBox="0 0 300 300"><rect x="0" y="0" width="300" height="300" fill="#ffffff"/><g transform="scale(4.918)"><g transform="translate(2,2)"><path fill-rule="evenodd" d="M9 0L9 1L8 1L8 2L11 2L11 4L10 4L10 3L8 3L8 4L9 4L9 5L8 5L8 7L9 7L9 8L6 8L6 9L5 9L5 8L0 8L0 9L1 9L1 10L2 10L2 11L1 11L1 12L3 12L3 13L4 13L4 12L3 12L3 11L4 11L4 10L6 10L6 11L7 11L7 12L5 12L5 13L8 13L8 14L6 14L6 15L5 15L5 14L3 14L3 18L2 18L2 16L0 16L0 17L1 17L1 18L2 18L2 19L1 19L1 20L3 20L3 18L4 18L4 17L5 17L5 20L4 20L4 21L2 21L2 23L1 23L1 24L0 24L0 25L1 25L1 27L0 27L0 29L1 29L1 30L4 30L4 32L3 32L3 31L1 31L1 32L0 32L0 33L1 33L1 32L2 32L2 34L0 34L0 36L2 36L2 34L3 34L3 35L5 35L5 36L3 36L3 37L1 37L1 38L2 38L2 40L1 40L1 39L0 39L0 40L1 40L1 41L0 41L0 43L1 43L1 45L0 45L0 48L5 48L5 47L7 47L7 48L6 48L6 49L8 49L8 51L9 51L9 49L8 49L8 48L11 48L11 47L12 47L12 48L13 48L13 50L14 50L14 51L12 51L12 52L13 52L13 53L11 53L11 55L10 55L10 56L11 56L11 55L12 55L12 54L16 54L16 53L15 53L15 52L18 52L18 53L19 53L19 54L18 54L18 55L19 55L19 56L18 56L18 57L21 57L21 55L22 55L22 54L23 54L23 55L24 55L24 56L23 56L23 57L24 57L24 56L25 56L25 57L26 57L26 56L25 56L25 53L26 53L26 55L27 55L27 56L28 56L28 55L27 55L27 53L28 53L28 54L29 54L29 55L30 55L30 56L29 56L29 57L31 57L31 55L32 55L32 56L33 56L33 55L34 55L34 56L35 56L35 57L38 57L38 56L39 56L39 55L40 55L40 56L41 56L41 57L44 57L44 56L45 56L45 55L48 55L48 56L46 56L46 57L49 57L49 56L50 56L50 55L51 55L51 57L52 57L52 56L53 56L53 57L54 57L54 56L55 56L55 57L56 57L56 56L55 56L55 53L54 53L54 52L55 52L55 51L56 51L56 50L57 50L57 48L56 48L56 46L57 46L57 45L56 45L56 44L55 44L55 43L56 43L56 42L57 42L57 41L55 41L55 39L57 39L57 37L54 37L54 36L57 36L57 35L55 35L55 34L57 34L57 33L56 33L56 32L57 32L57 31L56 31L56 30L57 30L57 29L56 29L56 26L57 26L57 25L54 25L54 24L55 24L55 23L56 23L56 24L57 24L57 23L56 23L56 22L57 22L57 21L56 21L56 20L55 20L55 19L56 19L56 18L57 18L57 15L56 15L56 14L57 14L57 12L56 12L56 10L55 10L55 11L54 11L54 10L53 10L53 11L52 11L52 12L53 12L53 11L54 11L54 12L56 12L56 14L55 14L55 13L53 13L53 16L55 16L55 17L54 17L54 18L52 18L52 17L51 17L51 18L50 18L50 15L51 15L51 16L52 16L52 15L51 15L51 14L52 14L52 13L51 13L51 12L50 12L50 13L51 13L51 14L49 14L49 13L47 13L47 14L46 14L46 12L45 12L45 13L44 13L44 12L43 12L43 11L42 11L42 10L44 10L44 7L45 7L45 6L46 6L46 7L47 7L47 8L46 8L46 9L48 9L48 10L47 10L47 11L48 11L48 12L49 12L49 11L51 11L51 10L49 10L49 9L50 9L50 8L49 8L49 6L48 6L48 7L47 7L47 5L48 5L48 0L45 0L45 1L47 1L47 2L43 2L43 3L42 3L42 1L44 1L44 0L42 0L42 1L41 1L41 2L40 2L40 1L37 1L37 0L35 0L35 1L34 1L34 0L33 0L33 1L34 1L34 2L29 2L29 1L31 1L31 0L29 0L29 1L28 1L28 0L27 0L27 2L26 2L26 0L23 0L23 2L22 2L22 0L21 0L21 1L20 1L20 0L19 0L19 1L18 1L18 2L17 2L17 1L16 1L16 0L12 0L12 1L15 1L15 2L13 2L13 4L12 4L12 2L11 2L11 1L10 1L10 0ZM19 1L19 3L20 3L20 4L18 4L18 3L17 3L17 2L16 2L16 4L15 4L15 3L14 3L14 4L13 4L13 7L12 7L12 5L11 5L11 8L10 8L10 10L8 10L8 9L6 9L6 10L7 10L7 11L8 11L8 13L10 13L10 12L9 12L9 11L12 11L12 10L11 10L11 9L13 9L13 11L14 11L14 12L11 12L11 13L14 13L14 15L13 15L13 14L9 14L9 16L7 16L7 15L6 15L6 16L5 16L5 15L4 15L4 16L5 16L5 17L6 17L6 18L7 18L7 19L6 19L6 20L5 20L5 21L4 21L4 22L8 22L8 21L6 21L6 20L7 20L7 19L9 19L9 18L8 18L8 17L9 17L9 16L10 16L10 17L11 17L11 18L15 18L15 14L17 14L17 15L16 15L16 16L18 16L18 15L19 15L19 14L18 14L18 13L20 13L20 16L19 16L19 17L16 17L16 18L19 18L19 19L21 19L21 20L19 20L19 21L17 21L17 20L18 20L18 19L17 19L17 20L15 20L15 21L13 21L13 22L12 22L12 19L10 19L10 20L9 20L9 23L13 23L13 24L12 24L12 25L13 25L13 24L14 24L14 26L12 26L12 27L11 27L11 28L12 28L12 27L14 27L14 28L13 28L13 29L12 29L12 30L13 30L13 29L15 29L15 28L16 28L16 27L18 27L18 25L15 25L15 24L14 24L14 22L15 22L15 23L16 23L16 24L17 24L17 22L19 22L19 23L20 23L20 22L19 22L19 21L23 21L23 22L24 22L24 21L23 21L23 19L21 19L21 17L20 17L20 16L21 16L21 15L22 15L22 17L24 17L24 15L25 15L25 16L28 16L28 17L25 17L25 19L26 19L26 20L27 20L27 21L25 21L25 22L26 22L26 23L25 23L25 24L26 24L26 25L25 25L25 26L26 26L26 25L27 25L27 26L29 26L29 25L32 25L32 26L33 26L33 27L32 27L32 30L31 30L31 32L30 32L30 31L28 31L28 32L30 32L30 33L26 33L26 32L27 32L27 31L25 31L25 30L26 30L26 27L24 27L24 26L23 26L23 29L22 29L22 28L21 28L21 27L22 27L22 25L24 25L24 23L23 23L23 24L22 24L22 23L21 23L21 24L19 24L19 25L20 25L20 26L21 26L21 27L19 27L19 28L21 28L21 29L19 29L19 30L21 30L21 31L19 31L19 33L18 33L18 34L19 34L19 36L20 36L20 37L17 37L17 36L18 36L18 35L16 35L16 37L15 37L15 33L16 33L16 34L17 34L17 33L16 33L16 31L18 31L18 30L17 30L17 29L18 29L18 28L17 28L17 29L16 29L16 31L15 31L15 30L14 30L14 31L13 31L13 32L12 32L12 31L11 31L11 30L9 30L9 32L11 32L11 33L10 33L10 35L11 35L11 37L10 37L10 36L9 36L9 35L8 35L8 34L9 34L9 33L6 33L6 34L7 34L7 35L6 35L6 36L7 36L7 35L8 35L8 36L9 36L9 37L8 37L8 38L7 38L7 37L5 37L5 38L4 38L4 37L3 37L3 38L4 38L4 39L3 39L3 40L2 40L2 42L1 42L1 43L3 43L3 44L4 44L4 45L6 45L6 46L7 46L7 47L10 47L10 46L11 46L11 45L13 45L13 46L14 46L14 49L15 49L15 46L14 46L14 45L15 45L15 44L18 44L18 45L16 45L16 46L17 46L17 47L16 47L16 48L17 48L17 47L18 47L18 48L19 48L19 49L16 49L16 51L18 51L18 50L21 50L21 49L22 49L22 51L23 51L23 52L19 52L19 53L23 53L23 54L24 54L24 53L23 53L23 52L24 52L24 51L25 51L25 52L26 52L26 49L25 49L25 50L23 50L23 48L24 48L24 47L25 47L25 48L30 48L30 47L29 47L29 46L30 46L30 45L31 45L31 43L32 43L32 45L33 45L33 46L32 46L32 47L33 47L33 46L35 46L35 47L34 47L34 48L35 48L35 49L34 49L34 50L33 50L33 48L31 48L31 49L32 49L32 50L31 50L31 52L32 52L32 54L35 54L35 53L36 53L36 52L38 52L38 54L39 54L39 52L40 52L40 55L41 55L41 53L43 53L43 56L44 56L44 55L45 55L45 54L49 54L49 55L50 55L50 54L51 54L51 55L53 55L53 56L54 56L54 53L53 53L53 54L51 54L51 53L48 53L48 52L47 52L47 51L48 51L48 48L49 48L49 47L51 47L51 48L53 48L53 49L55 49L55 50L56 50L56 48L53 48L53 47L54 47L54 46L53 46L53 45L52 45L52 44L53 44L53 43L54 43L54 41L51 41L51 40L50 40L50 39L52 39L52 40L53 40L53 39L55 39L55 38L53 38L53 36L52 36L52 34L53 34L53 35L54 35L54 34L53 34L53 33L55 33L55 32L53 32L53 31L55 31L55 30L56 30L56 29L55 29L55 28L54 28L54 29L55 29L55 30L53 30L53 31L51 31L51 32L53 32L53 33L51 33L51 34L50 34L50 32L49 32L49 31L48 31L48 30L47 30L47 29L48 29L48 25L49 25L49 26L52 26L52 25L53 25L53 27L55 27L55 26L54 26L54 25L53 25L53 24L54 24L54 23L53 23L53 20L52 20L52 21L51 21L51 19L52 19L52 18L51 18L51 19L50 19L50 18L48 18L48 19L46 19L46 18L47 18L47 17L46 17L46 18L45 18L45 16L48 16L48 17L49 17L49 15L45 15L45 14L44 14L44 13L43 13L43 14L42 14L42 11L41 11L41 8L43 8L43 7L44 7L44 6L45 6L45 5L44 5L44 4L46 4L46 5L47 5L47 3L43 3L43 7L42 7L42 6L41 6L41 5L40 5L40 4L42 4L42 3L40 3L40 4L39 4L39 2L34 2L34 3L32 3L32 4L31 4L31 8L33 8L33 11L32 11L32 13L33 13L33 14L31 14L31 15L33 15L33 14L35 14L35 15L34 15L34 16L30 16L30 15L25 15L25 14L28 14L28 13L29 13L29 14L30 14L30 13L29 13L29 12L30 12L30 11L31 11L31 10L32 10L32 9L31 9L31 10L30 10L30 11L29 11L29 9L28 9L28 11L29 11L29 12L28 12L28 13L25 13L25 12L27 12L27 11L26 11L26 10L27 10L27 9L26 9L26 6L25 6L25 4L26 4L26 3L25 3L25 4L24 4L24 2L23 2L23 3L22 3L22 4L21 4L21 2L20 2L20 1ZM27 3L27 4L30 4L30 3ZM34 3L34 4L35 4L35 3ZM36 3L36 5L33 5L33 6L32 6L32 7L33 7L33 8L34 8L34 9L35 9L35 10L34 10L34 11L33 11L33 13L35 13L35 14L36 14L36 13L37 13L37 14L38 14L38 12L39 12L39 13L40 13L40 12L41 12L41 11L40 11L40 12L39 12L39 10L40 10L40 9L39 9L39 8L40 8L40 7L41 7L41 6L40 6L40 7L39 7L39 6L38 6L38 7L37 7L37 6L36 6L36 5L38 5L38 4L37 4L37 3ZM14 4L14 8L13 8L13 9L14 9L14 8L15 8L15 6L16 6L16 9L18 9L18 10L16 10L16 11L15 11L15 12L16 12L16 13L18 13L18 12L16 12L16 11L18 11L18 10L19 10L19 11L20 11L20 9L21 9L21 11L22 11L22 10L23 10L23 11L24 11L24 12L25 12L25 9L22 9L22 7L23 7L23 8L24 8L24 7L25 7L25 6L24 6L24 7L23 7L23 6L22 6L22 7L21 7L21 6L20 6L20 5L19 5L19 6L18 6L18 7L17 7L17 5L18 5L18 4L16 4L16 5L15 5L15 4ZM22 4L22 5L24 5L24 4ZM27 5L27 8L30 8L30 5ZM9 6L9 7L10 7L10 6ZM19 6L19 9L20 9L20 8L21 8L21 7L20 7L20 6ZM28 6L28 7L29 7L29 6ZM33 6L33 7L34 7L34 6ZM35 6L35 8L36 8L36 6ZM48 8L48 9L49 9L49 8ZM51 8L51 9L52 9L52 8ZM53 8L53 9L54 9L54 8ZM55 8L55 9L56 9L56 8ZM3 9L3 10L4 10L4 9ZM36 9L36 10L35 10L35 11L34 11L34 12L35 12L35 13L36 13L36 12L37 12L37 9ZM38 9L38 10L39 10L39 9ZM45 10L45 11L46 11L46 10ZM35 11L35 12L36 12L36 11ZM20 12L20 13L22 13L22 12ZM1 13L1 14L0 14L0 15L2 15L2 13ZM23 13L23 14L25 14L25 13ZM39 14L39 16L38 16L38 15L37 15L37 16L34 16L34 17L33 17L33 18L34 18L34 19L37 19L37 20L36 20L36 21L37 21L37 22L36 22L36 23L37 23L37 24L36 24L36 25L37 25L37 26L36 26L36 28L35 28L35 26L34 26L34 24L33 24L33 26L34 26L34 28L33 28L33 29L35 29L35 30L33 30L33 31L32 31L32 32L31 32L31 33L32 33L32 34L34 34L34 35L33 35L33 36L34 36L34 37L35 37L35 34L34 34L34 33L35 33L35 32L36 32L36 33L37 33L37 34L36 34L36 35L37 35L37 36L36 36L36 37L37 37L37 36L38 36L38 37L39 37L39 38L36 38L36 40L35 40L35 39L31 39L31 38L32 38L32 35L30 35L30 34L29 34L29 35L30 35L30 36L29 36L29 37L28 37L28 36L25 36L25 35L27 35L27 34L25 34L25 31L24 31L24 33L23 33L23 34L25 34L25 35L24 35L24 37L22 37L22 36L21 36L21 37L22 37L22 38L24 38L24 37L28 37L28 38L26 38L26 39L25 39L25 41L24 41L24 39L23 39L23 41L22 41L22 39L21 39L21 40L20 40L20 41L19 41L19 39L20 39L20 38L18 38L18 39L17 39L17 37L16 37L16 38L15 38L15 37L14 37L14 38L13 38L13 36L12 36L12 38L13 38L13 40L12 40L12 39L11 39L11 38L10 38L10 39L9 39L9 38L8 38L8 39L7 39L7 38L5 38L5 39L4 39L4 40L3 40L3 41L4 41L4 43L5 43L5 44L6 44L6 45L7 45L7 46L10 46L10 45L11 45L11 44L10 44L10 43L13 43L13 42L14 42L14 41L16 41L16 40L18 40L18 41L17 41L17 42L15 42L15 43L18 43L18 41L19 41L19 45L18 45L18 47L22 47L22 48L23 48L23 47L24 47L24 46L25 46L25 45L26 45L26 44L25 44L25 43L24 43L24 42L26 42L26 43L27 43L27 44L28 44L28 45L27 45L27 46L26 46L26 47L27 47L27 46L28 46L28 45L30 45L30 44L28 44L28 43L31 43L31 41L32 41L32 42L34 42L34 43L33 43L33 44L34 44L34 43L36 43L36 44L35 44L35 46L36 46L36 47L35 47L35 48L36 48L36 49L35 49L35 50L34 50L34 51L35 51L35 52L34 52L34 53L35 53L35 52L36 52L36 51L39 51L39 50L36 50L36 49L38 49L38 48L36 48L36 47L37 47L37 46L38 46L38 43L36 43L36 42L34 42L34 40L35 40L35 41L37 41L37 42L38 42L38 41L39 41L39 40L40 40L40 39L39 39L39 38L40 38L40 36L41 36L41 38L43 38L43 37L44 37L44 38L45 38L45 39L44 39L44 40L43 40L43 39L42 39L42 40L41 40L41 44L43 44L43 45L42 45L42 46L41 46L41 45L39 45L39 46L41 46L41 47L40 47L40 48L39 48L39 49L40 49L40 48L46 48L46 47L47 47L47 46L46 46L46 45L47 45L47 44L48 44L48 46L50 46L50 45L49 45L49 44L52 44L52 43L53 43L53 42L51 42L51 41L49 41L49 43L48 43L48 42L47 42L47 43L46 43L46 42L44 42L44 43L42 43L42 42L43 42L43 41L44 41L44 40L46 40L46 41L47 41L47 40L46 40L46 38L45 38L45 37L44 37L44 34L45 34L45 36L47 36L47 35L49 35L49 34L48 34L48 33L47 33L47 34L45 34L45 33L42 33L42 34L41 34L41 33L40 33L40 34L38 34L38 33L37 33L37 32L36 32L36 31L35 31L35 30L36 30L36 29L37 29L37 28L38 28L38 29L39 29L39 28L40 28L40 27L41 27L41 26L42 26L42 28L43 28L43 29L42 29L42 30L41 30L41 29L40 29L40 30L41 30L41 31L39 31L39 30L37 30L37 31L39 31L39 32L46 32L46 31L47 31L47 32L48 32L48 31L47 31L47 30L46 30L46 29L47 29L47 28L46 28L46 27L47 27L47 26L46 26L46 27L45 27L45 30L46 30L46 31L44 31L44 30L43 30L43 29L44 29L44 27L43 27L43 26L44 26L44 23L45 23L45 24L46 24L46 22L45 22L45 21L44 21L44 23L41 23L41 24L43 24L43 25L40 25L40 26L39 26L39 28L38 28L38 23L37 23L37 22L38 22L38 19L39 19L39 18L41 18L41 19L40 19L40 20L39 20L39 21L40 21L40 20L41 20L41 22L43 22L43 20L46 20L46 21L47 21L47 25L48 25L48 24L49 24L49 22L50 22L50 23L51 23L51 24L50 24L50 25L51 25L51 24L53 24L53 23L51 23L51 22L50 22L50 19L48 19L48 20L46 20L46 19L45 19L45 18L44 18L44 19L42 19L42 18L43 18L43 17L42 17L42 16L45 16L45 15L42 15L42 14ZM10 15L10 16L11 16L11 17L12 17L12 16L13 16L13 17L14 17L14 16L13 16L13 15L12 15L12 16L11 16L11 15ZM41 15L41 16L39 16L39 17L38 17L38 16L37 16L37 18L39 18L39 17L41 17L41 18L42 18L42 17L41 17L41 16L42 16L42 15ZM55 15L55 16L56 16L56 15ZM6 16L6 17L7 17L7 16ZM29 17L29 18L31 18L31 19L30 19L30 20L29 20L29 21L30 21L30 22L29 22L29 23L28 23L28 24L27 24L27 25L28 25L28 24L31 24L31 23L34 23L34 22L33 22L33 21L35 21L35 20L33 20L33 19L32 19L32 18L31 18L31 17ZM34 17L34 18L35 18L35 17ZM55 17L55 18L56 18L56 17ZM27 18L27 19L28 19L28 18ZM13 19L13 20L14 20L14 19ZM41 19L41 20L42 20L42 19ZM30 20L30 21L31 21L31 20ZM32 20L32 21L33 21L33 20ZM54 20L54 21L55 21L55 20ZM0 21L0 22L1 22L1 21ZM15 21L15 22L16 22L16 21ZM27 21L27 22L28 22L28 21ZM30 22L30 23L31 23L31 22ZM39 22L39 24L40 24L40 22ZM2 23L2 27L1 27L1 29L2 29L2 27L3 27L3 29L4 29L4 27L3 27L3 25L4 25L4 24L5 24L5 26L7 26L7 25L9 25L9 26L10 26L10 24L8 24L8 23L6 23L6 24L5 24L5 23ZM6 24L6 25L7 25L7 24ZM21 24L21 25L22 25L22 24ZM5 27L5 30L8 30L8 27ZM27 27L27 30L30 30L30 27ZM49 27L49 30L52 30L52 27ZM6 28L6 29L7 29L7 28ZM9 28L9 29L10 29L10 28ZM28 28L28 29L29 29L29 28ZM50 28L50 29L51 29L51 28ZM21 29L21 30L22 30L22 31L21 31L21 32L20 32L20 33L21 33L21 34L20 34L20 35L22 35L22 33L21 33L21 32L23 32L23 30L25 30L25 29L23 29L23 30L22 30L22 29ZM42 30L42 31L43 31L43 30ZM5 31L5 32L4 32L4 33L5 33L5 32L7 32L7 31ZM14 31L14 32L13 32L13 34L14 34L14 33L15 33L15 31ZM34 31L34 32L35 32L35 31ZM32 32L32 33L33 33L33 32ZM11 34L11 35L12 35L12 34ZM37 34L37 35L38 35L38 34ZM40 34L40 35L39 35L39 36L40 36L40 35L41 35L41 34ZM42 34L42 37L43 37L43 34ZM50 35L50 36L51 36L51 37L50 37L50 38L48 38L48 37L47 37L47 38L48 38L48 39L50 39L50 38L51 38L51 37L52 37L52 36L51 36L51 35ZM30 36L30 38L31 38L31 36ZM52 38L52 39L53 39L53 38ZM5 39L5 43L6 43L6 44L9 44L9 43L10 43L10 42L11 42L11 41L9 41L9 39L8 39L8 40L7 40L7 39ZM10 39L10 40L11 40L11 39ZM14 39L14 40L16 40L16 39ZM27 39L27 40L28 40L28 39ZM29 39L29 41L26 41L26 42L29 42L29 41L31 41L31 39ZM38 39L38 40L37 40L37 41L38 41L38 40L39 40L39 39ZM6 40L6 41L7 41L7 42L6 42L6 43L9 43L9 41L7 41L7 40ZM32 40L32 41L33 41L33 40ZM20 41L20 42L22 42L22 43L20 43L20 44L22 44L22 45L19 45L19 46L22 46L22 47L23 47L23 45L25 45L25 44L24 44L24 43L23 43L23 42L22 42L22 41ZM39 42L39 44L40 44L40 42ZM50 42L50 43L51 43L51 42ZM44 44L44 45L45 45L45 44ZM54 44L54 45L55 45L55 46L56 46L56 45L55 45L55 44ZM51 45L51 46L52 46L52 45ZM1 46L1 47L2 47L2 46ZM3 46L3 47L5 47L5 46ZM42 46L42 47L44 47L44 46ZM20 48L20 49L21 49L21 48ZM10 49L10 50L11 50L11 49ZM27 49L27 52L30 52L30 49ZM41 49L41 50L45 50L45 52L46 52L46 53L47 53L47 52L46 52L46 51L47 51L47 50L45 50L45 49ZM49 49L49 52L52 52L52 49ZM28 50L28 51L29 51L29 50ZM35 50L35 51L36 51L36 50ZM50 50L50 51L51 51L51 50ZM14 51L14 52L15 52L15 51ZM32 51L32 52L33 52L33 51ZM40 51L40 52L41 52L41 51ZM43 51L43 53L44 53L44 54L45 54L45 53L44 53L44 51ZM8 52L8 57L9 57L9 52ZM56 52L56 53L57 53L57 52ZM29 53L29 54L30 54L30 53ZM19 54L19 55L20 55L20 54ZM13 55L13 56L14 56L14 57L15 57L15 56L16 56L16 57L17 57L17 56L16 56L16 55L15 55L15 56L14 56L14 55ZM35 55L35 56L37 56L37 55ZM0 0L0 7L7 7L7 0ZM1 1L1 6L6 6L6 1ZM2 2L2 5L5 5L5 2ZM50 0L50 7L57 7L57 0ZM51 1L51 6L56 6L56 1ZM52 2L52 5L55 5L55 2ZM0 50L0 57L7 57L7 50ZM1 51L1 56L6 56L6 51ZM2 52L2 55L5 55L5 52Z" fill="#000000"/></g></g></svg>
