<?xml version="1.0" encoding="UTF-8"?>
<svg xmlns="http://www.w3.org/2000/svg" version="1.1" width="300" height="300" viewBox="0 0 300 300"><rect x="0" y="0" width="300" height="300" fill="#ffffff"/><g transform="scale(4.918)"><g transform="translate(2,2)"><path fill-rule="evenodd" d="M10 0L10 2L9 2L9 1L8 1L8 2L9 2L9 3L8 3L8 4L11 4L11 3L13 3L13 4L14 4L14 5L11 5L11 6L10 6L10 5L8 5L8 7L9 7L9 8L6 8L6 9L5 9L5 8L0 8L0 9L2 9L2 11L4 11L4 12L6 12L6 13L3 13L3 12L2 12L2 14L5 14L5 16L3 16L3 17L2 17L2 15L1 15L1 16L0 16L0 19L1 19L1 20L0 20L0 22L1 22L1 24L0 24L0 26L1 26L1 27L3 27L3 28L2 28L2 29L1 29L1 28L0 28L0 31L2 31L2 33L1 33L1 34L0 34L0 36L3 36L3 38L4 38L4 36L5 36L5 37L7 37L7 36L5 36L5 34L6 34L6 35L8 35L8 36L9 36L9 35L8 35L8 34L10 34L10 37L9 37L9 38L8 38L8 39L7 39L7 38L5 38L5 41L4 41L4 39L3 39L3 42L6 42L6 43L7 43L7 42L8 42L8 41L9 41L9 40L10 40L10 39L11 39L11 38L14 38L14 39L16 39L16 40L17 40L17 41L19 41L19 44L20 44L20 45L18 45L18 44L16 44L16 43L14 43L14 42L15 42L15 40L13 40L13 39L12 39L12 41L11 41L11 43L10 43L10 42L9 42L9 43L8 43L8 45L7 45L7 44L4 44L4 43L3 43L3 44L0 44L0 48L5 48L5 47L7 47L7 48L6 48L6 49L8 49L8 51L9 51L9 49L8 49L8 48L9 48L9 47L10 47L10 46L8 46L8 45L9 45L9 43L10 43L10 45L11 45L11 46L12 46L12 47L13 47L13 46L14 46L14 45L15 45L15 48L13 48L13 49L12 49L12 48L10 48L10 49L11 49L11 50L14 50L14 51L15 51L15 52L14 52L14 54L12 54L12 55L13 55L13 56L11 56L11 57L13 57L13 56L14 56L14 57L16 57L16 55L15 55L15 54L16 54L16 53L15 53L15 52L18 52L18 53L19 53L19 54L20 54L20 55L18 55L18 56L17 56L17 57L22 57L22 56L23 56L23 57L24 57L24 56L25 56L25 57L26 57L26 56L25 56L25 55L27 55L27 56L28 56L28 55L27 55L27 53L28 53L28 54L29 54L29 55L30 55L30 56L29 56L29 57L32 57L32 56L33 56L33 54L32 54L32 52L33 52L33 51L34 51L34 53L36 53L36 55L35 55L35 54L34 54L34 57L38 57L38 56L39 56L39 55L40 55L40 56L41 56L41 55L42 55L42 56L43 56L43 57L44 57L44 56L45 56L45 55L46 55L46 54L45 54L45 53L44 53L44 50L43 50L43 49L44 49L44 48L46 48L46 49L45 49L45 50L46 50L46 51L45 51L45 52L46 52L46 51L47 51L47 52L48 52L48 53L47 53L47 57L48 57L48 55L49 55L49 56L50 56L50 55L51 55L51 57L52 57L52 56L54 56L54 57L56 57L56 56L55 56L55 54L53 54L53 53L54 53L54 52L56 52L56 51L55 51L55 50L57 50L57 48L56 48L56 46L57 46L57 43L56 43L56 42L57 42L57 41L54 41L54 43L53 43L53 42L51 42L51 41L53 41L53 40L55 40L55 39L57 39L57 37L56 37L56 35L55 35L55 34L57 34L57 33L56 33L56 32L57 32L57 31L56 31L56 30L57 30L57 28L56 28L56 30L55 30L55 29L54 29L54 28L55 28L55 27L56 27L56 24L55 24L55 23L56 23L56 22L57 22L57 21L55 21L55 23L54 23L54 20L55 20L55 19L56 19L56 18L57 18L57 15L56 15L56 14L57 14L57 12L55 12L55 11L54 11L54 10L49 10L49 9L50 9L50 8L49 8L49 9L47 9L47 8L45 8L45 6L46 6L46 7L47 7L47 5L48 5L48 0L44 0L44 1L43 1L43 0L41 0L41 1L43 1L43 3L42 3L42 2L39 2L39 1L38 1L38 0L36 0L36 1L34 1L34 0L33 0L33 1L32 1L32 2L31 2L31 3L30 3L30 2L29 2L29 1L31 1L31 0L28 0L28 3L27 3L27 1L26 1L26 0L23 0L23 2L24 2L24 4L21 4L21 6L20 6L20 5L19 5L19 6L18 6L18 4L20 4L20 3L18 3L18 4L16 4L16 2L17 2L17 1L15 1L15 0L14 0L14 1L15 1L15 2L12 2L12 1L13 1L13 0ZM19 0L19 1L18 1L18 2L19 2L19 1L20 1L20 2L21 2L21 1L22 1L22 0L21 0L21 1L20 1L20 0ZM33 1L33 2L34 2L34 3L32 3L32 4L31 4L31 7L32 7L32 6L33 6L33 7L34 7L34 6L35 6L35 8L36 8L36 6L37 6L37 8L39 8L39 9L38 9L38 10L39 10L39 12L38 12L38 14L35 14L35 13L33 13L33 11L34 11L34 12L36 12L36 10L37 10L37 9L36 9L36 10L35 10L35 9L33 9L33 8L32 8L32 9L31 9L31 10L30 10L30 9L26 9L26 6L25 6L25 4L26 4L26 3L25 3L25 4L24 4L24 5L22 5L22 6L21 6L21 7L20 7L20 6L19 6L19 9L20 9L20 11L19 11L19 10L18 10L18 11L16 11L16 10L17 10L17 9L15 9L15 8L16 8L16 6L15 6L15 7L14 7L14 6L13 6L13 7L14 7L14 9L15 9L15 10L13 10L13 11L14 11L14 12L12 12L12 9L13 9L13 8L12 8L12 9L11 9L11 10L10 10L10 11L9 11L9 12L8 12L8 15L6 15L6 16L11 16L11 15L10 15L10 14L12 14L12 13L14 13L14 14L13 14L13 15L14 15L14 17L13 17L13 16L12 16L12 17L9 17L9 18L8 18L8 17L3 17L3 18L4 18L4 19L2 19L2 21L1 21L1 22L2 22L2 21L3 21L3 22L4 22L4 25L2 25L2 26L3 26L3 27L4 27L4 25L6 25L6 26L7 26L7 25L8 25L8 24L7 24L7 23L6 23L6 22L7 22L7 21L8 21L8 20L9 20L9 18L10 18L10 19L11 19L11 20L14 20L14 19L13 19L13 18L14 18L14 17L15 17L15 15L14 15L14 14L17 14L17 15L16 15L16 16L18 16L18 15L19 15L19 17L16 17L16 18L17 18L17 20L15 20L15 21L13 21L13 23L12 23L12 21L11 21L11 22L10 22L10 23L9 23L9 22L8 22L8 23L9 23L9 24L10 24L10 23L11 23L11 25L12 25L12 26L10 26L10 27L11 27L11 28L12 28L12 29L10 29L10 28L9 28L9 30L12 30L12 29L13 29L13 31L12 31L12 32L13 32L13 33L11 33L11 32L10 32L10 31L5 31L5 33L6 33L6 34L8 34L8 33L10 33L10 34L11 34L11 36L13 36L13 35L14 35L14 37L15 37L15 38L16 38L16 37L18 37L18 38L17 38L17 39L19 39L19 41L20 41L20 42L21 42L21 41L22 41L22 43L20 43L20 44L22 44L22 45L20 45L20 46L19 46L19 47L18 47L18 45L16 45L16 46L17 46L17 47L16 47L16 48L17 48L17 47L18 47L18 48L19 48L19 49L16 49L16 51L17 51L17 50L21 50L21 49L22 49L22 51L21 51L21 52L19 52L19 51L18 51L18 52L19 52L19 53L21 53L21 54L22 54L22 55L23 55L23 56L24 56L24 55L23 55L23 54L24 54L24 53L23 53L23 52L24 52L24 51L25 51L25 52L26 52L26 49L25 49L25 50L23 50L23 48L24 48L24 47L25 47L25 48L27 48L27 47L26 47L26 46L28 46L28 48L29 48L29 46L30 46L30 45L31 45L31 46L32 46L32 47L31 47L31 48L32 48L32 50L31 50L31 52L32 52L32 51L33 51L33 50L35 50L35 52L36 52L36 50L39 50L39 49L42 49L42 48L38 48L38 47L37 47L37 46L39 46L39 47L41 47L41 46L42 46L42 47L43 47L43 48L44 48L44 47L45 47L45 43L47 43L47 42L49 42L49 41L51 41L51 40L53 40L53 37L51 37L51 38L50 38L50 39L47 39L47 38L48 38L48 36L45 36L45 34L47 34L47 33L48 33L48 35L49 35L49 36L50 36L50 35L51 35L51 36L52 36L52 34L53 34L53 35L54 35L54 34L53 34L53 33L51 33L51 34L50 34L50 32L49 32L49 31L48 31L48 28L47 28L47 27L46 27L46 28L47 28L47 29L46 29L46 30L45 30L45 26L48 26L48 25L49 25L49 26L51 26L51 25L50 25L50 24L52 24L52 25L53 25L53 27L55 27L55 26L54 26L54 25L53 25L53 24L52 24L52 23L53 23L53 20L52 20L52 21L51 21L51 19L53 19L53 18L54 18L54 17L55 17L55 18L56 18L56 17L55 17L55 16L56 16L56 15L55 15L55 16L53 16L53 13L55 13L55 14L56 14L56 13L55 13L55 12L54 12L54 11L53 11L53 12L52 12L52 11L49 11L49 10L47 10L47 9L45 9L45 8L44 8L44 6L45 6L45 5L44 5L44 4L46 4L46 5L47 5L47 3L43 3L43 5L40 5L40 4L41 4L41 3L40 3L40 4L39 4L39 2L38 2L38 1L37 1L37 2L34 2L34 1ZM44 1L44 2L47 2L47 1ZM37 2L37 3L36 3L36 5L35 5L35 6L36 6L36 5L38 5L38 2ZM14 3L14 4L15 4L15 5L16 5L16 4L15 4L15 3ZM28 3L28 4L30 4L30 3ZM27 5L27 8L30 8L30 5ZM33 5L33 6L34 6L34 5ZM9 6L9 7L10 7L10 6ZM11 6L11 7L12 7L12 6ZM17 6L17 8L18 8L18 6ZM22 6L22 7L23 7L23 9L21 9L21 8L20 8L20 9L21 9L21 11L22 11L22 10L24 10L24 11L25 11L25 8L24 8L24 7L25 7L25 6L24 6L24 7L23 7L23 6ZM28 6L28 7L29 7L29 6ZM38 6L38 7L39 7L39 8L40 8L40 7L41 7L41 6L40 6L40 7L39 7L39 6ZM42 6L42 8L41 8L41 10L40 10L40 9L39 9L39 10L40 10L40 12L39 12L39 13L40 13L40 12L41 12L41 10L44 10L44 12L43 12L43 11L42 11L42 14L39 14L39 15L40 15L40 16L39 16L39 18L38 18L38 17L37 17L37 16L38 16L38 15L37 15L37 16L36 16L36 15L35 15L35 14L32 14L32 15L31 15L31 13L32 13L32 11L31 11L31 12L30 12L30 11L29 11L29 10L26 10L26 11L27 11L27 12L25 12L25 13L23 13L23 16L24 16L24 17L22 17L22 15L21 15L21 14L20 14L20 13L22 13L22 12L20 12L20 13L18 13L18 12L16 12L16 11L15 11L15 12L16 12L16 13L18 13L18 14L20 14L20 15L21 15L21 16L20 16L20 17L21 17L21 19L19 19L19 18L18 18L18 19L19 19L19 20L18 20L18 21L17 21L17 22L18 22L18 23L17 23L17 25L18 25L18 27L17 27L17 28L16 28L16 26L14 26L14 25L13 25L13 26L12 26L12 28L14 28L14 29L15 29L15 31L13 31L13 32L15 32L15 31L16 31L16 33L14 33L14 35L15 35L15 37L16 37L16 35L17 35L17 36L18 36L18 37L20 37L20 36L18 36L18 35L19 35L19 34L18 34L18 33L19 33L19 31L20 31L20 30L19 30L19 29L21 29L21 30L22 30L22 31L21 31L21 32L20 32L20 33L21 33L21 34L20 34L20 35L21 35L21 37L22 37L22 38L21 38L21 39L22 39L22 40L23 40L23 42L24 42L24 43L25 43L25 42L26 42L26 43L27 43L27 45L29 45L29 44L30 44L30 43L31 43L31 41L32 41L32 40L34 40L34 41L37 41L37 42L35 42L35 44L36 44L36 46L37 46L37 45L39 45L39 44L40 44L40 42L41 42L41 44L43 44L43 45L42 45L42 46L43 46L43 47L44 47L44 46L43 46L43 45L44 45L44 44L43 44L43 43L42 43L42 42L43 42L43 41L44 41L44 40L47 40L47 39L44 39L44 40L43 40L43 41L42 41L42 42L41 42L41 41L39 41L39 42L38 42L38 39L39 39L39 40L40 40L40 39L39 39L39 38L40 38L40 36L41 36L41 39L43 39L43 37L44 37L44 38L45 38L45 37L44 37L44 34L45 34L45 33L44 33L44 34L43 34L43 33L42 33L42 32L45 32L45 31L42 31L42 30L44 30L44 28L43 28L43 27L44 27L44 24L43 24L43 21L41 21L41 22L42 22L42 24L41 24L41 25L39 25L39 24L40 24L40 22L39 22L39 24L36 24L36 23L37 23L37 22L38 22L38 21L37 21L37 20L36 20L36 21L37 21L37 22L36 22L36 23L35 23L35 24L33 24L33 23L34 23L34 22L33 22L33 21L32 21L32 20L34 20L34 19L35 19L35 18L34 18L34 16L36 16L36 18L38 18L38 20L39 20L39 21L40 21L40 20L41 20L41 19L42 19L42 20L46 20L46 21L47 21L47 23L46 23L46 22L45 22L45 21L44 21L44 23L45 23L45 24L47 24L47 25L48 25L48 24L50 24L50 23L51 23L51 22L50 22L50 19L51 19L51 18L50 18L50 17L51 17L51 16L50 16L50 15L51 15L51 14L52 14L52 13L51 13L51 12L50 12L50 13L51 13L51 14L49 14L49 13L47 13L47 14L46 14L46 12L45 12L45 10L44 10L44 8L43 8L43 6ZM48 6L48 7L49 7L49 6ZM9 8L9 9L10 9L10 8ZM51 8L51 9L52 9L52 8ZM53 8L53 9L54 9L54 8ZM55 8L55 9L56 9L56 10L57 10L57 9L56 9L56 8ZM3 9L3 10L5 10L5 9ZM6 9L6 10L7 10L7 9ZM32 9L32 10L33 10L33 9ZM0 10L0 13L1 13L1 10ZM46 10L46 11L47 11L47 10ZM6 11L6 12L7 12L7 11ZM48 11L48 12L49 12L49 11ZM9 12L9 13L12 13L12 12ZM28 12L28 13L26 13L26 14L24 14L24 15L25 15L25 16L28 16L28 17L26 17L26 20L25 20L25 22L26 22L26 23L25 23L25 24L26 24L26 25L25 25L25 26L23 26L23 25L24 25L24 23L23 23L23 24L22 24L22 22L21 22L21 25L20 25L20 27L22 27L22 26L23 26L23 27L25 27L25 28L24 28L24 29L22 29L22 28L21 28L21 29L22 29L22 30L23 30L23 32L21 32L21 33L22 33L22 34L21 34L21 35L23 35L23 36L22 36L22 37L24 37L24 38L23 38L23 39L24 39L24 40L25 40L25 39L26 39L26 40L28 40L28 41L26 41L26 42L27 42L27 43L28 43L28 44L29 44L29 43L30 43L30 41L29 41L29 40L31 40L31 39L33 39L33 38L35 38L35 37L36 37L36 36L37 36L37 37L38 37L38 38L37 38L37 39L34 39L34 40L37 40L37 39L38 39L38 38L39 38L39 37L38 37L38 36L40 36L40 35L41 35L41 36L42 36L42 37L43 37L43 34L42 34L42 33L41 33L41 32L40 32L40 30L39 30L39 29L38 29L38 28L40 28L40 29L41 29L41 30L42 30L42 29L43 29L43 28L42 28L42 27L43 27L43 26L39 26L39 25L38 25L38 27L36 27L36 26L35 26L35 25L34 25L34 26L33 26L33 24L32 24L32 23L31 23L31 22L30 22L30 20L29 20L29 19L32 19L32 18L33 18L33 19L34 19L34 18L33 18L33 16L30 16L30 13L29 13L29 12ZM44 12L44 13L43 13L43 14L42 14L42 15L43 15L43 14L44 14L44 15L45 15L45 16L43 16L43 17L45 17L45 16L47 16L47 17L46 17L46 18L44 18L44 19L46 19L46 20L47 20L47 19L48 19L48 18L47 18L47 17L50 17L50 16L49 16L49 15L45 15L45 12ZM6 13L6 14L7 14L7 13ZM28 13L28 14L26 14L26 15L29 15L29 13ZM40 16L40 17L41 17L41 18L39 18L39 20L40 20L40 19L41 19L41 18L42 18L42 19L43 19L43 18L42 18L42 17L41 17L41 16ZM1 17L1 18L2 18L2 17ZM12 17L12 18L13 18L13 17ZM29 17L29 18L31 18L31 17ZM5 18L5 19L7 19L7 18ZM22 18L22 19L23 19L23 18ZM27 18L27 20L28 20L28 18ZM46 18L46 19L47 19L47 18ZM49 18L49 19L50 19L50 18ZM4 20L4 22L6 22L6 21L7 21L7 20ZM19 20L19 21L18 21L18 22L19 22L19 23L20 23L20 22L19 22L19 21L23 21L23 22L24 22L24 21L23 21L23 20ZM15 21L15 22L14 22L14 24L16 24L16 23L15 23L15 22L16 22L16 21ZM27 21L27 22L28 22L28 21ZM29 22L29 23L28 23L28 24L27 24L27 25L26 25L26 26L25 26L25 27L26 27L26 30L25 30L25 29L24 29L24 33L23 33L23 34L25 34L25 35L24 35L24 37L26 37L26 36L25 36L25 35L27 35L27 33L30 33L30 32L36 32L36 35L40 35L40 34L41 34L41 35L42 35L42 34L41 34L41 33L40 33L40 32L38 32L38 33L40 33L40 34L37 34L37 32L36 32L36 31L39 31L39 30L36 30L36 29L37 29L37 28L35 28L35 26L34 26L34 28L33 28L33 27L32 27L32 28L31 28L31 26L32 26L32 25L30 25L30 22ZM49 22L49 23L50 23L50 22ZM2 23L2 24L3 24L3 23ZM6 24L6 25L7 25L7 24ZM28 24L28 25L27 25L27 26L28 26L28 25L29 25L29 24ZM42 24L42 25L43 25L43 24ZM21 25L21 26L22 26L22 25ZM13 26L13 27L14 27L14 28L15 28L15 27L14 27L14 26ZM5 27L5 30L8 30L8 27ZM27 27L27 30L30 30L30 27ZM40 27L40 28L41 28L41 27ZM49 27L49 30L52 30L52 27ZM3 28L3 29L2 29L2 30L4 30L4 28ZM6 28L6 29L7 29L7 28ZM17 28L17 29L16 29L16 31L18 31L18 30L17 30L17 29L18 29L18 28ZM28 28L28 29L29 29L29 28ZM32 28L32 29L31 29L31 30L35 30L35 31L36 31L36 30L35 30L35 29L33 29L33 28ZM50 28L50 29L51 29L51 28ZM46 30L46 31L47 31L47 32L48 32L48 31L47 31L47 30ZM53 30L53 31L52 31L52 32L54 32L54 33L55 33L55 32L54 32L54 31L55 31L55 30ZM3 31L3 33L2 33L2 34L1 34L1 35L2 35L2 34L3 34L3 35L4 35L4 34L3 34L3 33L4 33L4 31ZM25 31L25 32L27 32L27 31ZM28 31L28 32L30 32L30 31ZM6 32L6 33L8 33L8 32ZM16 33L16 34L17 34L17 35L18 35L18 34L17 34L17 33ZM25 33L25 34L26 34L26 33ZM33 33L33 34L34 34L34 35L33 35L33 36L34 36L34 35L35 35L35 34L34 34L34 33ZM12 34L12 35L13 35L13 34ZM29 34L29 35L30 35L30 36L29 36L29 37L28 37L28 36L27 36L27 37L28 37L28 38L26 38L26 39L28 39L28 40L29 40L29 39L31 39L31 38L32 38L32 34L31 34L31 35L30 35L30 34ZM30 36L30 38L31 38L31 36ZM54 36L54 37L55 37L55 36ZM0 37L0 39L1 39L1 37ZM9 38L9 39L8 39L8 40L7 40L7 39L6 39L6 40L7 40L7 41L6 41L6 42L7 42L7 41L8 41L8 40L9 40L9 39L10 39L10 38ZM19 38L19 39L20 39L20 38ZM51 38L51 39L52 39L52 38ZM54 38L54 39L55 39L55 38ZM1 40L1 41L0 41L0 43L1 43L1 42L2 42L2 40ZM12 42L12 44L13 44L13 42ZM17 42L17 43L18 43L18 42ZM32 42L32 44L31 44L31 45L32 45L32 44L34 44L34 42ZM37 42L37 43L36 43L36 44L37 44L37 43L38 43L38 44L39 44L39 43L38 43L38 42ZM44 42L44 43L45 43L45 42ZM50 42L50 43L51 43L51 42ZM48 43L48 44L47 44L47 45L46 45L46 46L47 46L47 47L46 47L46 48L47 48L47 49L46 49L46 50L47 50L47 51L48 51L48 48L49 48L49 47L51 47L51 46L53 46L53 47L52 47L52 48L53 48L53 49L56 49L56 48L53 48L53 47L54 47L54 46L56 46L56 45L55 45L55 44L54 44L54 45L50 45L50 44L49 44L49 43ZM52 43L52 44L53 44L53 43ZM23 44L23 45L24 45L24 46L25 46L25 45L26 45L26 44L25 44L25 45L24 45L24 44ZM48 44L48 45L47 45L47 46L48 46L48 45L49 45L49 44ZM2 45L2 46L1 46L1 47L2 47L2 46L3 46L3 47L5 47L5 46L7 46L7 47L8 47L8 46L7 46L7 45L4 45L4 46L3 46L3 45ZM21 46L21 47L22 47L22 48L23 48L23 47L22 47L22 46ZM33 46L33 47L32 47L32 48L33 48L33 49L34 49L34 48L33 48L33 47L35 47L35 48L36 48L36 49L35 49L35 50L36 50L36 49L37 49L37 48L36 48L36 47L35 47L35 46ZM20 48L20 49L21 49L21 48ZM27 49L27 52L30 52L30 49ZM49 49L49 52L52 52L52 49ZM28 50L28 51L29 51L29 50ZM40 50L40 51L38 51L38 52L40 52L40 55L41 55L41 54L42 54L42 55L43 55L43 56L44 56L44 55L45 55L45 54L44 54L44 53L43 53L43 52L42 52L42 53L41 53L41 52L40 52L40 51L43 51L43 50ZM50 50L50 51L51 51L51 50ZM22 51L22 52L21 52L21 53L22 53L22 54L23 54L23 53L22 53L22 52L23 52L23 51ZM8 52L8 57L10 57L10 56L9 56L9 55L11 55L11 53L10 53L10 54L9 54L9 52ZM12 52L12 53L13 53L13 52ZM25 53L25 54L26 54L26 53ZM29 53L29 54L30 54L30 53ZM38 53L38 54L37 54L37 55L39 55L39 53ZM42 53L42 54L43 54L43 53ZM48 53L48 54L49 54L49 55L50 55L50 54L51 54L51 55L53 55L53 54L51 54L51 53ZM14 55L14 56L15 56L15 55ZM31 55L31 56L32 56L32 55ZM0 0L0 7L7 7L7 0ZM1 1L1 6L6 6L6 1ZM2 2L2 5L5 5L5 2ZM50 0L50 7L57 7L57 0ZM51 1L51 6L56 6L56 1ZM52 2L52 5L55 5L55 2ZM0 50L0 57L7 57L7 50ZM1 51L1 56L6 56L6 51ZM2 52L2 55L5 55L5 52Z" fill="#000000"/></g></g></svg>
