<?xml version="1.0" encoding="UTF-8"?>
<svg xmlns="http://www.w3.org/2000/svg" version="1.1" width="300" height="300" viewBox="0 0 300 300"><rect x="0" y="0" width="300" height="300" fill="#ffffff"/><g transform="scale(4.918)"><g transform="translate(2,2)"><path fill-rule="evenodd" d="M14 0L14 1L15 1L15 0ZM21 0L21 2L20 2L20 3L18 3L18 4L20 4L20 3L21 3L21 4L22 4L22 5L21 5L21 6L20 6L20 5L19 5L19 6L18 6L18 5L17 5L17 4L16 4L16 3L15 3L15 4L14 4L14 2L13 2L13 1L12 1L12 4L11 4L11 3L10 3L10 1L8 1L8 2L9 2L9 3L8 3L8 4L9 4L9 5L8 5L8 7L9 7L9 6L10 6L10 7L11 7L11 5L14 5L14 7L15 7L15 6L16 6L16 8L17 8L17 10L16 10L16 11L15 11L15 13L18 13L18 15L19 15L19 13L18 13L18 12L16 12L16 11L18 11L18 9L19 9L19 11L20 11L20 9L19 9L19 8L17 8L17 6L18 6L18 7L19 7L19 6L20 6L20 7L21 7L21 6L22 6L22 7L23 7L23 9L22 9L22 10L21 10L21 11L22 11L22 10L23 10L23 12L25 12L25 13L23 13L23 15L22 15L22 14L20 14L20 15L21 15L21 16L20 16L20 17L19 17L19 16L18 16L18 17L17 17L17 14L14 14L14 13L12 13L12 12L9 12L9 11L11 11L11 10L12 10L12 11L13 11L13 12L14 12L14 11L13 11L13 10L15 10L15 9L13 9L13 6L12 6L12 9L11 9L11 10L10 10L10 8L6 8L6 9L7 9L7 10L5 10L5 8L0 8L0 14L2 14L2 12L3 12L3 13L4 13L4 16L6 16L6 17L3 17L3 16L2 16L2 17L0 17L0 18L1 18L1 19L2 19L2 20L1 20L1 22L0 22L0 23L1 23L1 24L2 24L2 23L4 23L4 21L5 21L5 20L6 20L6 21L7 21L7 22L5 22L5 24L4 24L4 25L3 25L3 27L4 27L4 29L1 29L1 27L0 27L0 29L1 29L1 31L2 31L2 30L3 30L3 31L5 31L5 34L6 34L6 35L5 35L5 36L6 36L6 37L5 37L5 39L4 39L4 36L2 36L2 35L4 35L4 32L0 32L0 33L2 33L2 35L1 35L1 34L0 34L0 35L1 35L1 36L0 36L0 39L1 39L1 40L3 40L3 41L1 41L1 43L0 43L0 48L5 48L5 47L8 47L8 48L6 48L6 49L8 49L8 51L9 51L9 52L8 52L8 57L9 57L9 55L10 55L10 54L11 54L11 53L12 53L12 54L13 54L13 55L12 55L12 56L10 56L10 57L12 57L12 56L14 56L14 57L16 57L16 55L14 55L14 54L13 54L13 53L12 53L12 52L13 52L13 51L12 51L12 50L13 50L13 48L14 48L14 46L15 46L15 45L18 45L18 47L19 47L19 48L17 48L17 47L15 47L15 48L16 48L16 49L15 49L15 50L16 50L16 51L15 51L15 52L14 52L14 53L15 53L15 54L16 54L16 53L15 53L15 52L16 52L16 51L17 51L17 53L19 53L19 54L18 54L18 56L17 56L17 57L19 57L19 56L21 56L21 53L22 53L22 54L23 54L23 55L22 55L22 56L23 56L23 57L26 57L26 56L28 56L28 55L27 55L27 53L28 53L28 54L29 54L29 55L30 55L30 56L29 56L29 57L31 57L31 56L32 56L32 55L33 55L33 56L34 56L34 55L35 55L35 54L34 54L34 53L35 53L35 52L36 52L36 53L37 53L37 52L38 52L38 51L40 51L40 52L39 52L39 54L36 54L36 56L35 56L35 57L38 57L38 56L39 56L39 55L40 55L40 56L41 56L41 57L43 57L43 56L46 56L46 55L43 55L43 53L44 53L44 54L45 54L45 53L47 53L47 52L48 52L48 53L51 53L51 54L47 54L47 56L50 56L50 55L51 55L51 57L52 57L52 56L55 56L55 57L56 57L56 56L55 56L55 53L56 53L56 52L57 52L57 51L56 51L56 52L55 52L55 51L54 51L54 52L55 52L55 53L54 53L54 55L51 55L51 54L53 54L53 48L55 48L55 50L57 50L57 49L56 49L56 48L55 48L55 47L56 47L56 46L57 46L57 43L56 43L56 41L55 41L55 39L57 39L57 37L56 37L56 36L57 36L57 35L56 35L56 34L57 34L57 33L56 33L56 30L57 30L57 29L56 29L56 28L57 28L57 27L56 27L56 26L57 26L57 23L56 23L56 22L57 22L57 21L54 21L54 22L52 22L52 24L49 24L49 22L50 22L50 23L51 23L51 22L50 22L50 17L51 17L51 18L52 18L52 17L51 17L51 16L53 16L53 19L54 19L54 20L57 20L57 19L55 19L55 18L57 18L57 17L54 17L54 16L55 16L55 15L56 15L56 16L57 16L57 15L56 15L56 14L57 14L57 13L56 13L56 10L57 10L57 9L56 9L56 8L55 8L55 11L54 11L54 10L53 10L53 11L52 11L52 10L49 10L49 9L50 9L50 8L49 8L49 6L48 6L48 7L47 7L47 5L48 5L48 0L44 0L44 1L43 1L43 0L39 0L39 1L37 1L37 0L35 0L35 1L33 1L33 2L30 2L30 1L32 1L32 0L30 0L30 1L28 1L28 0L27 0L27 1L26 1L26 0L24 0L24 1L23 1L23 0ZM18 1L18 2L19 2L19 1ZM22 1L22 2L23 2L23 3L22 3L22 4L24 4L24 5L22 5L22 6L23 6L23 7L24 7L24 9L25 9L25 12L27 12L27 11L26 11L26 10L28 10L28 11L29 11L29 12L28 12L28 13L25 13L25 14L28 14L28 13L29 13L29 14L30 14L30 13L29 13L29 12L30 12L30 11L31 11L31 12L32 12L32 13L31 13L31 14L32 14L32 15L31 15L31 16L30 16L30 15L25 15L25 16L28 16L28 17L26 17L26 18L24 18L24 19L23 19L23 18L21 18L21 17L20 17L20 18L21 18L21 19L19 19L19 17L18 17L18 19L17 19L17 17L15 17L15 16L16 16L16 15L14 15L14 14L12 14L12 13L10 13L10 14L11 14L11 15L12 15L12 16L11 16L11 17L10 17L10 16L9 16L9 14L7 14L7 13L5 13L5 15L6 15L6 16L7 16L7 17L6 17L6 18L5 18L5 19L6 19L6 20L7 20L7 21L8 21L8 23L6 23L6 24L5 24L5 25L4 25L4 26L9 26L9 27L10 27L10 30L11 30L11 31L8 31L8 32L7 32L7 31L6 31L6 32L7 32L7 33L6 33L6 34L7 34L7 33L10 33L10 34L12 34L12 35L11 35L11 36L9 36L9 37L6 37L6 38L7 38L7 39L6 39L6 40L4 40L4 39L3 39L3 40L4 40L4 41L3 41L3 42L2 42L2 43L3 43L3 44L1 44L1 47L2 47L2 45L4 45L4 46L3 46L3 47L5 47L5 44L7 44L7 45L6 45L6 46L8 46L8 47L10 47L10 46L9 46L9 45L8 45L8 44L7 44L7 43L6 43L6 42L7 42L7 41L8 41L8 42L10 42L10 44L11 44L11 42L15 42L15 43L16 43L16 44L18 44L18 45L20 45L20 46L22 46L22 47L25 47L25 48L27 48L27 47L26 47L26 46L29 46L29 45L32 45L32 46L31 46L31 47L33 47L33 46L35 46L35 47L36 47L36 48L31 48L31 52L32 52L32 54L33 54L33 55L34 55L34 54L33 54L33 52L32 52L32 51L34 51L34 52L35 52L35 51L36 51L36 52L37 52L37 51L38 51L38 50L40 50L40 51L41 51L41 52L40 52L40 55L41 55L41 56L42 56L42 54L41 54L41 53L43 53L43 52L42 52L42 51L44 51L44 53L45 53L45 52L47 52L47 51L48 51L48 48L50 48L50 47L52 47L52 48L53 48L53 47L52 47L52 46L54 46L54 45L55 45L55 44L54 44L54 45L52 45L52 44L53 44L53 43L54 43L54 41L53 41L53 40L52 40L52 41L51 41L51 40L49 40L49 39L51 39L51 38L56 38L56 37L55 37L55 36L54 36L54 35L55 35L55 34L56 34L56 33L55 33L55 32L53 32L53 31L51 31L51 32L53 32L53 33L50 33L50 31L48 31L48 29L46 29L46 30L44 30L44 31L43 31L43 30L42 30L42 29L43 29L43 28L44 28L44 29L45 29L45 27L46 27L46 28L47 28L47 27L48 27L48 26L47 26L47 25L49 25L49 24L48 24L48 23L45 23L45 24L44 24L44 25L43 25L43 28L42 28L42 26L41 26L41 25L42 25L42 24L43 24L43 23L44 23L44 21L45 21L45 22L47 22L47 21L48 21L48 20L49 20L49 19L46 19L46 18L48 18L48 17L49 17L49 16L51 16L51 15L53 15L53 16L54 16L54 15L53 15L53 14L54 14L54 13L55 13L55 14L56 14L56 13L55 13L55 12L54 12L54 11L53 11L53 12L52 12L52 11L50 11L50 15L45 15L45 16L43 16L43 17L44 17L44 19L45 19L45 20L43 20L43 22L41 22L41 20L40 20L40 19L43 19L43 18L39 18L39 17L37 17L37 18L35 18L35 17L36 17L36 16L37 16L37 15L36 15L36 14L40 14L40 15L38 15L38 16L40 16L40 17L41 17L41 16L42 16L42 15L43 15L43 14L44 14L44 13L45 13L45 12L46 12L46 14L47 14L47 13L49 13L49 12L47 12L47 10L48 10L48 9L49 9L49 8L48 8L48 9L45 9L45 8L44 8L44 6L45 6L45 7L46 7L46 8L47 8L47 7L46 7L46 5L47 5L47 3L42 3L42 2L43 2L43 1L40 1L40 2L41 2L41 3L40 3L40 4L38 4L38 3L37 3L37 1L35 1L35 2L33 2L33 3L32 3L32 4L31 4L31 3L30 3L30 2L29 2L29 3L28 3L28 2L27 2L27 3L28 3L28 4L29 4L29 3L30 3L30 4L31 4L31 8L33 8L33 7L34 7L34 8L35 8L35 9L33 9L33 11L31 11L31 10L32 10L32 9L31 9L31 10L28 10L28 9L26 9L26 6L25 6L25 4L26 4L26 3L25 3L25 4L24 4L24 2L23 2L23 1ZM44 1L44 2L45 2L45 1ZM46 1L46 2L47 2L47 1ZM33 3L33 4L35 4L35 3ZM36 3L36 5L35 5L35 6L34 6L34 5L33 5L33 6L32 6L32 7L33 7L33 6L34 6L34 7L35 7L35 6L36 6L36 7L37 7L37 6L36 6L36 5L38 5L38 4L37 4L37 3ZM41 3L41 4L40 4L40 5L43 5L43 4L42 4L42 3ZM10 4L10 5L11 5L11 4ZM15 4L15 5L16 5L16 4ZM44 4L44 5L45 5L45 4ZM27 5L27 8L30 8L30 5ZM24 6L24 7L25 7L25 6ZM28 6L28 7L29 7L29 6ZM38 6L38 7L39 7L39 6ZM40 6L40 7L41 7L41 6ZM42 6L42 7L43 7L43 6ZM36 8L36 9L35 9L35 10L34 10L34 11L33 11L33 13L38 13L38 12L40 12L40 11L42 11L42 14L41 14L41 15L40 15L40 16L41 16L41 15L42 15L42 14L43 14L43 12L45 12L45 11L42 11L42 10L44 10L44 8L43 8L43 9L42 9L42 8L41 8L41 9L42 9L42 10L40 10L40 9L39 9L39 10L36 10L36 9L38 9L38 8ZM51 8L51 9L52 9L52 8ZM53 8L53 9L54 9L54 8ZM1 9L1 10L2 10L2 11L3 11L3 12L4 12L4 11L5 11L5 12L7 12L7 11L5 11L5 10L3 10L3 9ZM12 9L12 10L13 10L13 9ZM8 10L8 11L9 11L9 10ZM39 10L39 11L40 11L40 10ZM34 11L34 12L35 12L35 11ZM36 11L36 12L37 12L37 11ZM20 12L20 13L22 13L22 12ZM51 13L51 14L52 14L52 13ZM6 14L6 15L7 15L7 16L8 16L8 18L6 18L6 19L8 19L8 21L10 21L10 23L11 23L11 21L10 21L10 19L8 19L8 18L9 18L9 16L8 16L8 15L7 15L7 14ZM33 14L33 15L32 15L32 16L31 16L31 17L29 17L29 18L31 18L31 17L32 17L32 18L33 18L33 19L30 19L30 20L29 20L29 19L28 19L28 18L26 18L26 19L25 19L25 20L23 20L23 19L22 19L22 20L21 20L21 21L19 21L19 19L18 19L18 21L19 21L19 22L18 22L18 23L17 23L17 24L16 24L16 23L14 23L14 22L12 22L12 23L13 23L13 24L15 24L15 25L17 25L17 26L16 26L16 27L15 27L15 26L13 26L13 25L12 25L12 24L11 24L11 25L10 25L10 24L9 24L9 23L8 23L8 24L6 24L6 25L10 25L10 26L11 26L11 28L12 28L12 27L13 27L13 29L17 29L17 30L16 30L16 31L17 31L17 30L19 30L19 31L20 31L20 29L21 29L21 30L22 30L22 31L21 31L21 32L18 32L18 33L19 33L19 34L18 34L18 35L20 35L20 33L21 33L21 37L22 37L22 38L24 38L24 37L25 37L25 36L24 36L24 34L25 34L25 35L26 35L26 37L28 37L28 38L25 38L25 40L24 40L24 39L23 39L23 40L24 40L24 41L22 41L22 42L21 42L21 43L20 43L20 41L21 41L21 40L20 40L20 41L19 41L19 40L18 40L18 39L20 39L20 38L18 38L18 37L20 37L20 36L17 36L17 37L16 37L16 35L17 35L17 34L16 34L16 33L17 33L17 32L16 32L16 33L14 33L14 37L13 37L13 38L14 38L14 37L16 37L16 38L15 38L15 39L13 39L13 41L14 41L14 40L15 40L15 39L16 39L16 41L15 41L15 42L16 42L16 43L18 43L18 42L19 42L19 43L20 43L20 45L22 45L22 44L21 44L21 43L22 43L22 42L24 42L24 43L25 43L25 42L26 42L26 43L27 43L27 45L29 45L29 44L30 44L30 43L31 43L31 44L34 44L34 42L38 42L38 40L37 40L37 39L39 39L39 40L41 40L41 41L42 41L42 42L40 42L40 41L39 41L39 43L41 43L41 44L43 44L43 45L42 45L42 46L41 46L41 45L39 45L39 44L38 44L38 43L37 43L37 44L36 44L36 43L35 43L35 44L36 44L36 45L35 45L35 46L36 46L36 47L37 47L37 46L38 46L38 45L39 45L39 47L38 47L38 48L39 48L39 49L40 49L40 50L41 50L41 51L42 51L42 50L43 50L43 49L44 49L44 50L45 50L45 51L47 51L47 50L45 50L45 49L46 49L46 48L45 48L45 47L47 47L47 46L46 46L46 45L47 45L47 44L48 44L48 45L49 45L49 44L52 44L52 43L53 43L53 42L51 42L51 41L48 41L48 42L45 42L45 41L46 41L46 40L47 40L47 39L48 39L48 37L47 37L47 36L48 36L48 35L50 35L50 33L49 33L49 34L48 34L48 33L47 33L47 34L46 34L46 33L44 33L44 32L45 32L45 31L44 31L44 32L43 32L43 31L42 31L42 30L39 30L39 31L40 31L40 32L39 32L39 34L36 34L36 33L38 33L38 31L37 31L37 30L38 30L38 29L37 29L37 27L38 27L38 28L39 28L39 27L40 27L40 28L41 28L41 26L40 26L40 25L39 25L39 27L38 27L38 25L37 25L37 24L38 24L38 23L37 23L37 22L38 22L38 21L37 21L37 20L38 20L38 19L39 19L39 18L37 18L37 20L36 20L36 21L37 21L37 22L36 22L36 24L35 24L35 23L34 23L34 22L33 22L33 21L34 21L34 20L35 20L35 18L33 18L33 17L34 17L34 16L33 16L33 15L35 15L35 16L36 16L36 15L35 15L35 14ZM12 16L12 18L11 18L11 19L12 19L12 20L13 20L13 21L15 21L15 22L16 22L16 21L15 21L15 20L16 20L16 19L15 19L15 17L14 17L14 16ZM22 16L22 17L24 17L24 16ZM32 16L32 17L33 17L33 16ZM45 16L45 18L46 18L46 16ZM47 16L47 17L48 17L48 16ZM2 17L2 18L3 18L3 20L4 20L4 18L3 18L3 17ZM13 17L13 18L12 18L12 19L13 19L13 20L14 20L14 19L13 19L13 18L14 18L14 17ZM26 19L26 20L25 20L25 22L26 22L26 23L25 23L25 24L24 24L24 23L23 23L23 22L24 22L24 21L23 21L23 20L22 20L22 21L21 21L21 23L22 23L22 24L19 24L19 25L18 25L18 24L17 24L17 25L18 25L18 26L17 26L17 27L16 27L16 28L17 28L17 29L18 29L18 28L17 28L17 27L18 27L18 26L19 26L19 29L20 29L20 27L22 27L22 26L24 26L24 28L23 28L23 29L22 29L22 28L21 28L21 29L22 29L22 30L23 30L23 31L22 31L22 33L24 33L24 32L23 32L23 31L25 31L25 34L26 34L26 35L27 35L27 36L28 36L28 37L29 37L29 36L30 36L30 38L31 38L31 39L29 39L29 40L34 40L34 38L35 38L35 40L36 40L36 38L39 38L39 39L41 39L41 40L43 40L43 39L44 39L44 41L45 41L45 39L46 39L46 38L47 38L47 37L46 37L46 36L45 36L45 35L46 35L46 34L44 34L44 33L43 33L43 34L42 34L42 33L41 33L41 32L40 32L40 34L39 34L39 36L40 36L40 38L39 38L39 37L38 37L38 35L35 35L35 36L34 36L34 34L35 34L35 33L36 33L36 32L37 32L37 31L36 31L36 30L37 30L37 29L36 29L36 30L35 30L35 29L33 29L33 28L34 28L34 27L35 27L35 24L34 24L34 23L32 23L32 24L31 24L31 22L29 22L29 20L28 20L28 19ZM33 19L33 20L32 20L32 21L33 21L33 20L34 20L34 19ZM51 19L51 20L52 20L52 19ZM26 20L26 21L27 21L27 20ZM30 20L30 21L31 21L31 20ZM39 20L39 24L41 24L41 23L40 23L40 20ZM2 21L2 22L3 22L3 21ZM22 21L22 22L23 22L23 21ZM19 22L19 23L20 23L20 22ZM54 22L54 23L55 23L55 24L54 24L54 25L53 25L53 24L52 24L52 26L53 26L53 27L55 27L55 26L54 26L54 25L55 25L55 24L56 24L56 23L55 23L55 22ZM27 23L27 24L29 24L29 26L27 26L27 25L26 25L26 24L25 24L25 25L24 25L24 24L23 24L23 25L24 25L24 26L25 26L25 27L26 27L26 30L25 30L25 29L23 29L23 30L25 30L25 31L31 31L31 32L33 32L33 34L32 34L32 35L30 35L30 34L29 34L29 35L30 35L30 36L31 36L31 38L32 38L32 35L33 35L33 34L34 34L34 32L33 32L33 31L35 31L35 32L36 32L36 31L35 31L35 30L33 30L33 31L32 31L32 28L33 28L33 27L34 27L34 25L33 25L33 27L31 27L31 26L32 26L32 25L31 25L31 24L29 24L29 23ZM46 24L46 25L47 25L47 24ZM0 25L0 26L1 26L1 25ZM19 25L19 26L20 26L20 25ZM25 25L25 26L26 26L26 25ZM36 25L36 26L37 26L37 25ZM50 25L50 26L51 26L51 25ZM5 27L5 30L8 30L8 27ZM14 27L14 28L15 28L15 27ZM27 27L27 30L30 30L30 27ZM49 27L49 30L52 30L52 27ZM6 28L6 29L7 29L7 28ZM28 28L28 29L29 29L29 28ZM50 28L50 29L51 29L51 28ZM54 28L54 29L53 29L53 30L54 30L54 29L55 29L55 28ZM11 29L11 30L12 30L12 29ZM46 30L46 31L47 31L47 32L48 32L48 31L47 31L47 30ZM13 31L13 32L15 32L15 31ZM10 32L10 33L12 33L12 32ZM26 32L26 34L27 34L27 33L30 33L30 32ZM54 33L54 34L55 34L55 33ZM22 34L22 35L23 35L23 34ZM41 34L41 35L40 35L40 36L41 36L41 35L42 35L42 34ZM52 34L52 36L53 36L53 37L54 37L54 36L53 36L53 34ZM6 35L6 36L8 36L8 35ZM12 35L12 36L13 36L13 35ZM43 35L43 36L42 36L42 38L41 38L41 39L42 39L42 38L43 38L43 37L44 37L44 38L45 38L45 37L44 37L44 35ZM22 36L22 37L24 37L24 36ZM33 36L33 37L34 37L34 36ZM36 36L36 37L37 37L37 36ZM50 36L50 38L51 38L51 36ZM1 37L1 39L2 39L2 38L3 38L3 37ZM9 37L9 39L8 39L8 40L9 40L9 39L11 39L11 40L12 40L12 37L11 37L11 38L10 38L10 37ZM17 38L17 39L18 39L18 38ZM26 39L26 40L27 40L27 41L26 41L26 42L29 42L29 43L28 43L28 44L29 44L29 43L30 43L30 41L28 41L28 39ZM6 40L6 41L5 41L5 42L4 42L4 44L5 44L5 42L6 42L6 41L7 41L7 40ZM16 41L16 42L17 42L17 41ZM31 41L31 42L32 42L32 41ZM33 41L33 42L34 42L34 41ZM42 42L42 43L43 43L43 44L44 44L44 45L43 45L43 46L42 46L42 47L41 47L41 46L40 46L40 47L39 47L39 48L40 48L40 49L41 49L41 50L42 50L42 49L41 49L41 48L44 48L44 49L45 49L45 48L44 48L44 47L45 47L45 46L44 46L44 45L45 45L45 42L44 42L44 43L43 43L43 42ZM50 42L50 43L51 43L51 42ZM48 43L48 44L49 44L49 43ZM12 44L12 45L11 45L11 46L12 46L12 45L13 45L13 46L14 46L14 45L13 45L13 44ZM25 44L25 45L23 45L23 46L25 46L25 45L26 45L26 44ZM37 44L37 45L36 45L36 46L37 46L37 45L38 45L38 44ZM50 45L50 46L49 46L49 47L50 47L50 46L52 46L52 45ZM43 46L43 47L44 47L44 46ZM11 47L11 48L9 48L9 50L10 50L10 51L11 51L11 52L12 52L12 51L11 51L11 49L12 49L12 47ZM20 47L20 48L19 48L19 49L16 49L16 50L17 50L17 51L18 51L18 52L19 52L19 53L21 53L21 52L22 52L22 53L23 53L23 54L24 54L24 53L23 53L23 52L24 52L24 51L23 51L23 50L22 50L22 51L21 51L21 49L24 49L24 48L21 48L21 47ZM28 47L28 48L30 48L30 47ZM40 47L40 48L41 48L41 47ZM20 48L20 49L19 49L19 50L18 50L18 51L19 51L19 50L20 50L20 49L21 49L21 48ZM36 48L36 49L35 49L35 50L34 50L34 49L33 49L33 50L34 50L34 51L35 51L35 50L36 50L36 51L37 51L37 50L38 50L38 49L37 49L37 48ZM25 49L25 52L26 52L26 49ZM27 49L27 52L30 52L30 49ZM49 49L49 52L52 52L52 49ZM28 50L28 51L29 51L29 50ZM50 50L50 51L51 51L51 50ZM20 51L20 52L21 52L21 51ZM25 53L25 56L26 56L26 53ZM29 53L29 54L30 54L30 53ZM19 54L19 55L20 55L20 54ZM23 55L23 56L24 56L24 55ZM37 55L37 56L38 56L38 55ZM0 0L0 7L7 7L7 0ZM1 1L1 6L6 6L6 1ZM2 2L2 5L5 5L5 2ZM50 0L50 7L57 7L57 0ZM51 1L51 6L56 6L56 1ZM52 2L52 5L55 5L55 2ZM0 50L0 57L7 57L7 50ZM1 51L1 56L6 56L6 51ZM2 52L2 55L5 55L5 52Z" fill="#000000"/></g></g></svg>
