<?xml version="1.0" encoding="UTF-8"?>
<svg xmlns="http://www.w3.org/2000/svg" version="1.1" width="300" height="300" viewBox="0 0 300 300"><rect x="0" y="0" width="300" height="300" fill="#ffffff"/><g transform="scale(4.918)"><g transform="translate(2,2)"><path fill-rule="evenodd" d="M9 0L9 1L8 1L8 2L9 2L9 1L10 1L10 3L8 3L8 4L9 4L9 5L8 5L8 7L9 7L9 8L6 8L6 9L5 9L5 8L0 8L0 9L1 9L1 10L0 10L0 16L1 16L1 21L2 21L2 24L3 24L3 23L5 23L5 25L4 25L4 32L5 32L5 33L4 33L4 34L3 34L3 32L2 32L2 33L1 33L1 31L0 31L0 34L1 34L1 36L2 36L2 37L0 37L0 39L2 39L2 41L1 41L1 42L0 42L0 43L1 43L1 44L0 44L0 48L5 48L5 47L7 47L7 48L6 48L6 49L8 49L8 51L10 51L10 50L12 50L12 51L11 51L11 52L8 52L8 57L10 57L10 53L11 53L11 52L12 52L12 53L13 53L13 54L11 54L11 55L13 55L13 56L15 56L15 57L19 57L19 56L20 56L20 57L21 57L21 55L22 55L22 54L24 54L24 55L25 55L25 53L26 53L26 54L27 54L27 53L28 53L28 54L29 54L29 56L30 56L30 57L32 57L32 55L33 55L33 54L34 54L34 57L38 57L38 56L39 56L39 57L40 57L40 56L42 56L42 57L44 57L44 55L43 55L43 56L42 56L42 54L43 54L43 53L44 53L44 54L45 54L45 55L47 55L47 56L48 56L48 57L49 57L49 56L48 56L48 55L51 55L51 56L50 56L50 57L52 57L52 56L55 56L55 57L56 57L56 56L55 56L55 53L54 53L54 52L55 52L55 51L56 51L56 52L57 52L57 51L56 51L56 50L57 50L57 49L56 49L56 50L55 50L55 49L53 49L53 47L52 47L52 45L54 45L54 46L57 46L57 45L54 45L54 44L56 44L56 41L55 41L55 40L56 40L56 39L55 39L55 38L54 38L54 39L50 39L50 38L51 38L51 37L52 37L52 36L53 36L53 37L54 37L54 36L56 36L56 37L57 37L57 36L56 36L56 34L57 34L57 33L56 33L56 32L57 32L57 31L55 31L55 30L57 30L57 29L55 29L55 30L53 30L53 29L54 29L54 28L55 28L55 27L56 27L56 28L57 28L57 27L56 27L56 26L55 26L55 24L57 24L57 23L56 23L56 22L57 22L57 21L54 21L54 20L57 20L57 19L56 19L56 18L57 18L57 17L56 17L56 14L57 14L57 12L56 12L56 10L55 10L55 11L54 11L54 10L52 10L52 8L51 8L51 10L50 10L50 8L49 8L49 6L48 6L48 8L49 8L49 9L48 9L48 10L50 10L50 11L52 11L52 12L53 12L53 11L54 11L54 12L55 12L55 13L54 13L54 15L53 15L53 17L54 17L54 18L53 18L53 19L52 19L52 20L51 20L51 21L52 21L52 22L50 22L50 19L51 19L51 18L50 18L50 16L49 16L49 17L48 17L48 16L46 16L46 15L51 15L51 16L52 16L52 15L51 15L51 14L52 14L52 13L51 13L51 14L49 14L49 13L50 13L50 12L49 12L49 13L47 13L47 14L46 14L46 12L45 12L45 11L44 11L44 10L43 10L43 9L44 9L44 7L45 7L45 6L44 6L44 7L43 7L43 6L42 6L42 5L43 5L43 3L47 3L47 5L46 5L46 7L47 7L47 5L48 5L48 0L46 0L46 1L45 1L45 2L41 2L41 1L43 1L43 0L41 0L41 1L40 1L40 0L39 0L39 1L36 1L36 0L35 0L35 1L34 1L34 0L33 0L33 1L34 1L34 2L37 2L37 3L36 3L36 5L35 5L35 6L34 6L34 7L35 7L35 8L36 8L36 9L35 9L35 11L36 11L36 10L37 10L37 12L34 12L34 10L33 10L33 9L32 9L32 8L33 8L33 6L32 6L32 7L31 7L31 4L32 4L32 3L33 3L33 2L32 2L32 0L30 0L30 1L27 1L27 3L29 3L29 4L26 4L26 3L25 3L25 2L26 2L26 0L21 0L21 2L22 2L22 3L21 3L21 4L19 4L19 2L20 2L20 0L19 0L19 2L17 2L17 1L16 1L16 2L15 2L15 3L16 3L16 2L17 2L17 3L18 3L18 4L17 4L17 5L18 5L18 7L17 7L17 6L16 6L16 7L15 7L15 5L16 5L16 4L14 4L14 3L13 3L13 1L15 1L15 0L12 0L12 2L11 2L11 0ZM22 1L22 2L23 2L23 3L22 3L22 4L21 4L21 9L20 9L20 10L19 10L19 9L18 9L18 8L19 8L19 7L20 7L20 5L19 5L19 4L18 4L18 5L19 5L19 7L18 7L18 8L17 8L17 7L16 7L16 8L17 8L17 9L16 9L16 10L15 10L15 13L13 13L13 12L14 12L14 11L12 11L12 14L15 14L15 15L12 15L12 16L10 16L10 18L9 18L9 20L8 20L8 18L7 18L7 17L9 17L9 15L10 15L10 14L9 14L9 15L8 15L8 14L7 14L7 13L6 13L6 12L9 12L9 11L8 11L8 10L11 10L11 8L13 8L13 7L14 7L14 4L12 4L12 6L11 6L11 5L10 5L10 6L9 6L9 7L10 7L10 9L6 9L6 10L5 10L5 9L4 9L4 11L2 11L2 10L3 10L3 9L2 9L2 10L1 10L1 13L2 13L2 14L1 14L1 15L2 15L2 18L3 18L3 20L2 20L2 21L3 21L3 22L4 22L4 21L5 21L5 23L6 23L6 24L7 24L7 25L6 25L6 26L7 26L7 25L8 25L8 26L9 26L9 27L10 27L10 28L9 28L9 29L11 29L11 32L12 32L12 30L13 30L13 31L14 31L14 32L13 32L13 33L12 33L12 34L10 34L10 35L9 35L9 33L10 33L10 32L9 32L9 31L6 31L6 32L7 32L7 33L6 33L6 34L5 34L5 35L6 35L6 36L7 36L7 37L5 37L5 36L4 36L4 35L3 35L3 37L2 37L2 39L3 39L3 38L4 38L4 37L5 37L5 38L7 38L7 39L5 39L5 40L4 40L4 41L3 41L3 42L1 42L1 43L3 43L3 42L5 42L5 43L4 43L4 44L5 44L5 43L6 43L6 44L8 44L8 42L9 42L9 44L10 44L10 42L11 42L11 44L12 44L12 46L11 46L11 45L10 45L10 46L11 46L11 47L10 47L10 48L9 48L9 46L8 46L8 49L9 49L9 50L10 50L10 49L13 49L13 50L19 50L19 51L20 51L20 52L19 52L19 53L17 53L17 52L18 52L18 51L17 51L17 52L16 52L16 51L15 51L15 52L14 52L14 51L12 51L12 52L14 52L14 55L15 55L15 56L16 56L16 55L15 55L15 54L16 54L16 53L17 53L17 56L19 56L19 55L18 55L18 54L20 54L20 55L21 55L21 54L22 54L22 53L25 53L25 52L26 52L26 51L25 51L25 50L26 50L26 49L25 49L25 48L27 48L27 47L26 47L26 46L28 46L28 48L30 48L30 47L29 47L29 46L31 46L31 47L33 47L33 48L31 48L31 50L32 50L32 51L31 51L31 52L32 52L32 54L33 54L33 53L34 53L34 54L35 54L35 55L36 55L36 53L34 53L34 52L36 52L36 50L39 50L39 49L38 49L38 48L40 48L40 50L42 50L42 51L41 51L41 52L40 52L40 51L39 51L39 52L38 52L38 51L37 51L37 52L38 52L38 54L37 54L37 56L38 56L38 55L39 55L39 56L40 56L40 55L41 55L41 54L42 54L42 53L43 53L43 52L42 52L42 51L43 51L43 50L44 50L44 53L45 53L45 54L47 54L47 53L48 53L48 54L51 54L51 55L53 55L53 54L54 54L54 53L53 53L53 54L51 54L51 53L48 53L48 52L47 52L47 51L48 51L48 48L50 48L50 47L51 47L51 48L52 48L52 47L51 47L51 46L50 46L50 47L49 47L49 46L48 46L48 44L47 44L47 45L46 45L46 46L48 46L48 47L45 47L45 48L44 48L44 47L43 47L43 46L44 46L44 45L45 45L45 44L44 44L44 43L48 43L48 42L47 42L47 41L48 41L48 40L47 40L47 39L48 39L48 38L47 38L47 37L49 37L49 38L50 38L50 37L49 37L49 35L51 35L51 36L52 36L52 34L53 34L53 33L55 33L55 32L54 32L54 31L52 31L52 32L53 32L53 33L51 33L51 32L49 32L49 31L48 31L48 28L47 28L47 27L48 27L48 25L49 25L49 24L50 24L50 26L51 26L51 25L53 25L53 27L55 27L55 26L54 26L54 24L51 24L51 23L50 23L50 22L49 22L49 23L48 23L48 21L49 21L49 19L50 19L50 18L49 18L49 19L48 19L48 20L47 20L47 19L46 19L46 20L42 20L42 19L45 19L45 18L47 18L47 17L45 17L45 16L43 16L43 17L45 17L45 18L42 18L42 17L41 17L41 16L40 16L40 14L42 14L42 15L43 15L43 14L44 14L44 15L45 15L45 12L44 12L44 13L43 13L43 14L42 14L42 11L41 11L41 10L39 10L39 9L38 9L38 8L40 8L40 9L41 9L41 8L42 8L42 6L41 6L41 3L40 3L40 5L39 5L39 2L38 2L38 6L37 6L37 5L36 5L36 6L35 6L35 7L36 7L36 8L37 8L37 10L39 10L39 11L40 11L40 12L38 12L38 13L36 13L36 14L35 14L35 13L33 13L33 12L32 12L32 11L31 11L31 12L32 12L32 13L31 13L31 14L30 14L30 15L27 15L27 14L28 14L28 13L30 13L30 11L29 11L29 10L28 10L28 11L29 11L29 12L28 12L28 13L25 13L25 12L27 12L27 11L26 11L26 10L27 10L27 9L26 9L26 6L25 6L25 5L26 5L26 4L25 4L25 5L22 5L22 4L24 4L24 2L25 2L25 1L24 1L24 2L23 2L23 1ZM30 1L30 3L31 3L31 1ZM46 1L46 2L47 2L47 1ZM44 4L44 5L45 5L45 4ZM27 5L27 8L30 8L30 5ZM10 6L10 7L11 7L11 6ZM12 6L12 7L13 7L13 6ZM22 6L22 7L23 7L23 6ZM24 6L24 8L23 8L23 9L24 9L24 10L23 10L23 11L24 11L24 12L23 12L23 13L22 13L22 12L21 12L21 11L22 11L22 9L21 9L21 11L20 11L20 12L19 12L19 10L18 10L18 9L17 9L17 10L16 10L16 11L17 11L17 12L16 12L16 13L15 13L15 14L16 14L16 13L17 13L17 15L18 15L18 16L17 16L17 17L19 17L19 18L18 18L18 20L17 20L17 21L16 21L16 18L15 18L15 21L16 21L16 22L15 22L15 23L14 23L14 21L11 21L11 20L14 20L14 19L12 19L12 18L14 18L14 16L12 16L12 17L11 17L11 20L10 20L10 23L11 23L11 24L8 24L8 25L9 25L9 26L10 26L10 25L11 25L11 24L12 24L12 25L14 25L14 26L11 26L11 28L12 28L12 29L13 29L13 28L15 28L15 29L18 29L18 30L17 30L17 32L15 32L15 35L11 35L11 36L10 36L10 37L9 37L9 35L8 35L8 37L7 37L7 38L11 38L11 39L9 39L9 42L10 42L10 41L11 41L11 40L12 40L12 41L13 41L13 42L12 42L12 44L13 44L13 45L14 45L14 44L13 44L13 43L14 43L14 42L15 42L15 41L13 41L13 38L16 38L16 37L14 37L14 36L15 36L15 35L16 35L16 33L19 33L19 31L18 31L18 30L20 30L20 29L21 29L21 30L22 30L22 31L21 31L21 32L20 32L20 33L21 33L21 34L24 34L24 35L27 35L27 34L25 34L25 33L21 33L21 32L22 32L22 31L23 31L23 29L24 29L24 32L26 32L26 31L29 31L29 32L27 32L27 33L29 33L29 36L26 36L26 39L28 39L28 41L29 41L29 42L30 42L30 43L29 43L29 44L27 44L27 43L28 43L28 42L27 42L27 41L26 41L26 42L25 42L25 41L22 41L22 42L20 42L20 40L25 40L25 37L24 37L24 36L23 36L23 37L22 37L22 35L21 35L21 37L19 37L19 36L20 36L20 34L17 34L17 35L19 35L19 36L18 36L18 37L17 37L17 38L18 38L18 37L19 37L19 38L20 38L20 39L17 39L17 40L16 40L16 39L14 39L14 40L16 40L16 41L18 41L18 43L17 43L17 42L16 42L16 45L15 45L15 46L16 46L16 45L17 45L17 48L15 48L15 47L11 47L11 48L15 48L15 49L19 49L19 50L20 50L20 49L21 49L21 48L20 48L20 49L19 49L19 48L18 48L18 46L19 46L19 47L20 47L20 46L19 46L19 45L21 45L21 44L23 44L23 45L22 45L22 46L21 46L21 47L22 47L22 46L23 46L23 45L24 45L24 46L25 46L25 45L26 45L26 44L27 44L27 45L29 45L29 44L30 44L30 45L32 45L32 46L33 46L33 47L35 47L35 48L36 48L36 49L37 49L37 48L36 48L36 47L40 47L40 48L41 48L41 47L42 47L42 46L43 46L43 45L44 45L44 44L43 44L43 42L45 42L45 41L46 41L46 40L45 40L45 41L44 41L44 40L43 40L43 41L42 41L42 39L41 39L41 41L39 41L39 40L40 40L40 39L39 39L39 40L35 40L35 39L37 39L37 38L38 38L38 37L39 37L39 38L40 38L40 36L41 36L41 37L42 37L42 38L43 38L43 37L44 37L44 38L45 38L45 39L47 39L47 38L45 38L45 37L44 37L44 34L43 34L43 33L44 33L44 32L46 32L46 33L47 33L47 34L45 34L45 36L47 36L47 35L49 35L49 34L48 34L48 33L47 33L47 32L48 32L48 31L47 31L47 30L46 30L46 29L47 29L47 28L46 28L46 26L45 26L45 25L44 25L44 23L45 23L45 24L47 24L47 25L48 25L48 23L47 23L47 22L45 22L45 21L44 21L44 23L43 23L43 24L42 24L42 23L40 23L40 22L39 22L39 23L38 23L38 24L37 24L37 22L38 22L38 19L40 19L40 20L39 20L39 21L40 21L40 20L41 20L41 19L42 19L42 18L41 18L41 17L40 17L40 16L38 16L38 17L37 17L37 16L36 16L36 15L35 15L35 14L33 14L33 13L32 13L32 14L31 14L31 15L30 15L30 16L31 16L31 17L29 17L29 18L32 18L32 16L34 16L34 17L35 17L35 18L33 18L33 19L28 19L28 20L27 20L27 22L26 22L26 19L25 19L25 21L24 21L24 18L25 18L25 17L27 17L27 16L25 16L25 15L26 15L26 14L25 14L25 13L24 13L24 12L25 12L25 11L24 11L24 10L25 10L25 9L24 9L24 8L25 8L25 6ZM28 6L28 7L29 7L29 6ZM36 6L36 7L37 7L37 8L38 8L38 7L39 7L39 6L38 6L38 7L37 7L37 6ZM40 6L40 8L41 8L41 6ZM14 8L14 9L12 9L12 10L14 10L14 9L15 9L15 8ZM46 8L46 9L47 9L47 8ZM53 8L53 9L54 9L54 8ZM55 8L55 9L56 9L56 8ZM6 10L6 11L7 11L7 10ZM17 10L17 11L18 11L18 10ZM46 10L46 11L47 11L47 10ZM4 11L4 12L2 12L2 13L3 13L3 14L2 14L2 15L3 15L3 17L7 17L7 16L4 16L4 15L5 15L5 13L4 13L4 12L5 12L5 11ZM17 12L17 13L18 13L18 12ZM19 13L19 14L18 14L18 15L19 15L19 17L20 17L20 18L19 18L19 20L20 20L20 21L17 21L17 22L20 22L20 23L19 23L19 24L21 24L21 25L20 25L20 26L19 26L19 25L18 25L18 27L17 27L17 28L18 28L18 29L20 29L20 28L22 28L22 29L23 29L23 28L24 28L24 29L25 29L25 30L26 30L26 27L25 27L25 26L26 26L26 25L25 25L25 24L28 24L28 25L30 25L30 24L31 24L31 26L35 26L35 28L37 28L37 29L38 29L38 30L35 30L35 29L33 29L33 28L34 28L34 27L33 27L33 28L32 28L32 27L31 27L31 28L32 28L32 29L33 29L33 30L35 30L35 31L34 31L34 32L35 32L35 33L34 33L34 34L33 34L33 32L31 32L31 31L30 31L30 32L29 32L29 33L31 33L31 34L32 34L32 38L31 38L31 35L30 35L30 38L31 38L31 39L29 39L29 37L27 37L27 38L28 38L28 39L29 39L29 41L31 41L31 43L30 43L30 44L32 44L32 45L33 45L33 46L35 46L35 47L36 47L36 46L39 46L39 45L36 45L36 44L39 44L39 41L38 41L38 42L37 42L37 43L36 43L36 42L35 42L35 41L33 41L33 40L34 40L34 39L35 39L35 37L36 37L36 36L40 36L40 35L41 35L41 34L42 34L42 35L43 35L43 34L42 34L42 31L43 31L43 32L44 32L44 31L46 31L46 32L47 32L47 31L46 31L46 30L45 30L45 28L44 28L44 30L42 30L42 29L43 29L43 28L42 28L42 27L43 27L43 26L44 26L44 27L45 27L45 26L44 26L44 25L43 25L43 26L42 26L42 24L40 24L40 23L39 23L39 24L38 24L38 25L36 25L36 26L35 26L35 25L34 25L34 24L36 24L36 22L37 22L37 21L36 21L36 20L37 20L37 19L38 19L38 18L39 18L39 17L38 17L38 18L37 18L37 19L36 19L36 18L35 18L35 20L32 20L32 21L34 21L34 22L33 22L33 24L32 24L32 23L31 23L31 22L30 22L30 20L28 20L28 21L29 21L29 22L28 22L28 23L22 23L22 22L21 22L21 21L23 21L23 20L21 20L21 17L25 17L25 16L24 16L24 15L23 15L23 16L22 16L22 13ZM23 13L23 14L24 14L24 13ZM55 13L55 14L56 14L56 13ZM6 14L6 15L7 15L7 14ZM19 14L19 15L20 15L20 14ZM32 14L32 15L31 15L31 16L32 16L32 15L33 15L33 14ZM37 14L37 15L39 15L39 14ZM15 15L15 17L16 17L16 15ZM34 15L34 16L35 16L35 17L36 17L36 16L35 16L35 15ZM54 16L54 17L55 17L55 16ZM6 18L6 19L7 19L7 18ZM22 18L22 19L23 19L23 18ZM40 18L40 19L41 19L41 18ZM54 18L54 19L53 19L53 20L52 20L52 21L53 21L53 20L54 20L54 19L55 19L55 18ZM3 20L3 21L4 21L4 20ZM6 20L6 21L7 21L7 22L6 22L6 23L9 23L9 21L7 21L7 20ZM46 20L46 21L47 21L47 20ZM41 21L41 22L43 22L43 21ZM0 22L0 23L1 23L1 22ZM29 22L29 23L28 23L28 24L29 24L29 23L30 23L30 22ZM34 22L34 23L35 23L35 22ZM52 22L52 23L53 23L53 22ZM13 23L13 24L14 24L14 23ZM15 23L15 24L16 24L16 25L15 25L15 26L14 26L14 27L15 27L15 26L17 26L17 24L18 24L18 23L17 23L17 24L16 24L16 23ZM21 23L21 24L22 24L22 23ZM0 24L0 25L1 25L1 27L2 27L2 25L1 25L1 24ZM23 25L23 26L22 26L22 27L23 27L23 26L25 26L25 25ZM20 26L20 27L19 27L19 28L20 28L20 27L21 27L21 26ZM37 26L37 27L38 27L38 28L40 28L40 27L39 27L39 26ZM5 27L5 30L8 30L8 27ZM24 27L24 28L25 28L25 27ZM27 27L27 30L30 30L30 27ZM49 27L49 30L52 30L52 27ZM0 28L0 30L1 30L1 28ZM6 28L6 29L7 29L7 28ZM28 28L28 29L29 29L29 28ZM50 28L50 29L51 29L51 28ZM39 29L39 31L40 31L40 32L39 32L39 33L40 33L40 34L41 34L41 33L40 33L40 32L41 32L41 31L42 31L42 30L41 30L41 29ZM14 30L14 31L16 31L16 30ZM40 30L40 31L41 31L41 30ZM35 31L35 32L36 32L36 33L35 33L35 34L34 34L34 35L33 35L33 36L34 36L34 35L35 35L35 34L36 34L36 35L39 35L39 34L37 34L37 32L38 32L38 31L37 31L37 32L36 32L36 31ZM13 33L13 34L14 34L14 33ZM6 34L6 35L7 35L7 34ZM53 35L53 36L54 36L54 35ZM12 36L12 37L11 37L11 38L13 38L13 36ZM21 37L21 39L23 39L23 38L24 38L24 37L23 37L23 38L22 38L22 37ZM7 39L7 40L5 40L5 41L7 41L7 42L6 42L6 43L7 43L7 42L8 42L8 41L7 41L7 40L8 40L8 39ZM31 39L31 41L32 41L32 42L33 42L33 43L32 43L32 44L34 44L34 42L33 42L33 41L32 41L32 39ZM49 40L49 41L51 41L51 42L50 42L50 43L52 43L52 44L53 44L53 43L54 43L54 40L53 40L53 41L51 41L51 40ZM19 42L19 43L20 43L20 42ZM22 42L22 43L23 43L23 44L24 44L24 45L25 45L25 44L26 44L26 43L25 43L25 42ZM40 42L40 43L42 43L42 42ZM24 43L24 44L25 44L25 43ZM35 43L35 44L36 44L36 43ZM17 44L17 45L18 45L18 44ZM40 44L40 45L41 45L41 46L42 46L42 45L43 45L43 44ZM49 44L49 45L51 45L51 44ZM2 45L2 46L1 46L1 47L2 47L2 46L3 46L3 47L5 47L5 46L7 46L7 45L5 45L5 46L4 46L4 45ZM35 45L35 46L36 46L36 45ZM24 47L24 48L25 48L25 47ZM54 47L54 48L57 48L57 47ZM42 48L42 50L43 50L43 49L44 49L44 48ZM22 49L22 50L21 50L21 51L22 51L22 52L21 52L21 53L22 53L22 52L23 52L23 51L24 51L24 52L25 52L25 51L24 51L24 50L25 50L25 49ZM27 49L27 52L30 52L30 49ZM32 49L32 50L34 50L34 51L32 51L32 52L34 52L34 51L35 51L35 50L34 50L34 49ZM45 49L45 50L46 50L46 51L47 51L47 50L46 50L46 49ZM49 49L49 52L52 52L52 49ZM22 50L22 51L23 51L23 50ZM28 50L28 51L29 51L29 50ZM50 50L50 51L51 51L51 50ZM54 50L54 51L53 51L53 52L54 52L54 51L55 51L55 50ZM15 52L15 53L16 53L16 52ZM39 52L39 55L40 55L40 52ZM46 52L46 53L47 53L47 52ZM29 53L29 54L30 54L30 53ZM26 55L26 56L25 56L25 57L26 57L26 56L28 56L28 55ZM11 56L11 57L12 57L12 56ZM0 0L0 7L7 7L7 0ZM1 1L1 6L6 6L6 1ZM2 2L2 5L5 5L5 2ZM50 0L50 7L57 7L57 0ZM51 1L51 6L56 6L56 1ZM52 2L52 5L55 5L55 2ZM0 50L0 57L7 57L7 50ZM1 51L1 56L6 56L6 51ZM2 52L2 55L5 55L5 52Z" fill="#000000"/></g></g></svg>
