<?xml version="1.0" encoding="UTF-8"?>
<svg xmlns="http://www.w3.org/2000/svg" version="1.1" width="300" height="300" viewBox="0 0 300 300"><rect x="0" y="0" width="300" height="300" fill="#ffffff"/><g transform="scale(4.918)"><g transform="translate(2,2)"><path fill-rule="evenodd" d="M10 0L10 1L11 1L11 2L10 2L10 3L13 3L13 4L14 4L14 5L8 5L8 7L9 7L9 8L6 8L6 9L5 9L5 8L0 8L0 9L4 9L4 10L3 10L3 14L5 14L5 15L2 15L2 14L1 14L1 11L2 11L2 10L1 10L1 11L0 11L0 14L1 14L1 15L0 15L0 17L1 17L1 19L0 19L0 21L2 21L2 23L0 23L0 24L2 24L2 23L3 23L3 22L4 22L4 23L5 23L5 24L3 24L3 25L0 25L0 28L2 28L2 27L1 27L1 26L4 26L4 27L3 27L3 28L4 28L4 29L1 29L1 30L0 30L0 35L1 35L1 36L0 36L0 37L1 37L1 38L0 38L0 39L1 39L1 42L0 42L0 43L1 43L1 42L2 42L2 41L3 41L3 42L4 42L4 43L2 43L2 44L3 44L3 45L1 45L1 44L0 44L0 48L5 48L5 47L7 47L7 48L6 48L6 49L8 49L8 51L11 51L11 52L8 52L8 57L9 57L9 56L10 56L10 57L11 57L11 56L14 56L14 57L15 57L15 56L16 56L16 55L15 55L15 54L16 54L16 53L14 53L14 52L16 52L16 51L17 51L17 50L16 50L16 49L17 49L17 47L16 47L16 45L18 45L18 46L19 46L19 45L22 45L22 44L19 44L19 45L18 45L18 44L15 44L15 45L13 45L13 44L14 44L14 43L13 43L13 44L12 44L12 45L11 45L11 43L12 43L12 42L14 42L14 41L18 41L18 42L15 42L15 43L18 43L18 42L19 42L19 43L20 43L20 41L19 41L19 40L18 40L18 39L17 39L17 37L16 37L16 36L18 36L18 37L20 37L20 36L23 36L23 35L24 35L24 37L21 37L21 38L24 38L24 37L25 37L25 35L27 35L27 34L25 34L25 33L30 33L30 32L25 32L25 31L31 31L31 30L33 30L33 31L32 31L32 32L31 32L31 35L30 35L30 34L29 34L29 35L30 35L30 36L29 36L29 37L28 37L28 36L26 36L26 39L25 39L25 41L24 41L24 39L22 39L22 40L23 40L23 41L24 41L24 42L23 42L23 43L24 43L24 42L26 42L26 43L27 43L27 42L28 42L28 43L29 43L29 44L28 44L28 45L27 45L27 46L25 46L25 45L26 45L26 44L25 44L25 45L24 45L24 44L23 44L23 45L24 45L24 46L23 46L23 47L22 47L22 46L21 46L21 47L22 47L22 48L20 48L20 47L18 47L18 49L19 49L19 48L20 48L20 49L21 49L21 50L20 50L20 51L21 51L21 52L23 52L23 53L19 53L19 52L18 52L18 53L19 53L19 54L17 54L17 57L19 57L19 56L20 56L20 57L21 57L21 56L22 56L22 55L24 55L24 57L26 57L26 56L28 56L28 55L26 55L26 56L25 56L25 54L27 54L27 53L28 53L28 54L29 54L29 55L30 55L30 56L29 56L29 57L31 57L31 55L32 55L32 56L33 56L33 55L34 55L34 56L35 56L35 57L38 57L38 55L37 55L37 54L38 54L38 51L39 51L39 50L40 50L40 48L41 48L41 50L45 50L45 51L47 51L47 52L45 52L45 53L44 53L44 51L42 51L42 52L41 52L41 51L40 51L40 52L39 52L39 56L40 56L40 52L41 52L41 55L42 55L42 54L43 54L43 53L44 53L44 54L46 54L46 55L44 55L44 56L43 56L43 57L44 57L44 56L48 56L48 57L49 57L49 56L50 56L50 54L53 54L53 52L55 52L55 53L56 53L56 52L55 52L55 51L53 51L53 49L54 49L54 50L57 50L57 49L56 49L56 48L57 48L57 47L56 47L56 46L57 46L57 45L56 45L56 44L57 44L57 43L56 43L56 42L55 42L55 39L57 39L57 36L56 36L56 37L54 37L54 36L55 36L55 34L57 34L57 31L56 31L56 30L57 30L57 29L56 29L56 28L55 28L55 27L56 27L56 26L57 26L57 25L54 25L54 26L55 26L55 27L53 27L53 26L49 26L49 25L48 25L48 24L50 24L50 23L52 23L52 24L51 24L51 25L52 25L52 24L55 24L55 23L56 23L56 24L57 24L57 23L56 23L56 22L57 22L57 21L55 21L55 22L54 22L54 20L56 20L56 18L57 18L57 17L56 17L56 18L55 18L55 17L53 17L53 18L54 18L54 19L52 19L52 20L51 20L51 22L50 22L50 19L51 19L51 18L52 18L52 17L51 17L51 16L52 16L52 15L51 15L51 14L52 14L52 13L51 13L51 10L52 10L52 8L51 8L51 10L49 10L49 9L50 9L50 8L49 8L49 6L48 6L48 8L47 8L47 5L48 5L48 0L46 0L46 1L47 1L47 2L43 2L43 3L47 3L47 5L46 5L46 4L44 4L44 5L45 5L45 6L44 6L44 7L43 7L43 6L42 6L42 7L41 7L41 5L43 5L43 4L41 4L41 5L40 5L40 3L41 3L41 2L42 2L42 1L43 1L43 0L42 0L42 1L41 1L41 0L40 0L40 1L37 1L37 0L35 0L35 1L33 1L33 0L29 0L29 1L28 1L28 0L27 0L27 2L24 2L24 1L26 1L26 0L21 0L21 2L20 2L20 3L19 3L19 1L20 1L20 0L19 0L19 1L18 1L18 4L16 4L16 3L17 3L17 2L15 2L15 1L16 1L16 0L13 0L13 1L14 1L14 2L12 2L12 0ZM8 1L8 2L9 2L9 1ZM22 1L22 2L21 2L21 3L20 3L20 4L18 4L18 5L20 5L20 6L19 6L19 9L20 9L20 11L19 11L19 10L18 10L18 9L16 9L16 6L15 6L15 5L16 5L16 4L15 4L15 2L14 2L14 4L15 4L15 5L14 5L14 6L13 6L13 8L11 8L11 7L12 7L12 6L11 6L11 7L10 7L10 6L9 6L9 7L10 7L10 8L9 8L9 9L8 9L8 10L7 10L7 9L6 9L6 10L7 10L7 11L5 11L5 10L4 10L4 13L6 13L6 14L7 14L7 15L5 15L5 16L7 16L7 17L6 17L6 18L4 18L4 16L2 16L2 19L3 19L3 18L4 18L4 19L5 19L5 20L3 20L3 21L4 21L4 22L5 22L5 21L6 21L6 22L7 22L7 23L6 23L6 24L5 24L5 25L6 25L6 26L8 26L8 25L9 25L9 26L10 26L10 27L12 27L12 26L14 26L14 25L15 25L15 27L16 27L16 28L14 28L14 27L13 27L13 29L12 29L12 30L13 30L13 31L14 31L14 33L13 33L13 32L12 32L12 31L11 31L11 30L10 30L10 31L9 31L9 32L10 32L10 33L12 33L12 34L10 34L10 35L9 35L9 36L10 36L10 37L8 37L8 38L7 38L7 37L6 37L6 36L7 36L7 35L6 35L6 34L7 34L7 33L8 33L8 34L9 34L9 33L8 33L8 32L7 32L7 31L4 31L4 30L1 30L1 35L2 35L2 33L5 33L5 34L3 34L3 35L4 35L4 36L5 36L5 37L6 37L6 38L5 38L5 39L4 39L4 40L3 40L3 41L4 41L4 40L5 40L5 43L6 43L6 44L4 44L4 45L6 45L6 46L7 46L7 47L8 47L8 48L9 48L9 46L8 46L8 45L9 45L9 44L10 44L10 43L9 43L9 40L8 40L8 38L10 38L10 39L11 39L11 38L12 38L12 40L10 40L10 42L12 42L12 41L13 41L13 38L16 38L16 37L13 37L13 38L12 38L12 35L13 35L13 34L14 34L14 33L15 33L15 31L14 31L14 30L13 30L13 29L15 29L15 30L17 30L17 31L16 31L16 32L17 32L17 31L18 31L18 32L19 32L19 33L16 33L16 34L17 34L17 35L21 35L21 34L22 34L22 35L23 35L23 34L22 34L22 33L25 33L25 32L24 32L24 29L25 29L25 30L26 30L26 27L25 27L25 26L26 26L26 25L29 25L29 24L31 24L31 25L32 25L32 26L35 26L35 28L37 28L37 29L38 29L38 30L37 30L37 31L36 31L36 32L35 32L35 31L34 31L34 34L32 34L32 38L31 38L31 36L30 36L30 38L31 38L31 39L29 39L29 41L28 41L28 39L26 39L26 40L27 40L27 41L26 41L26 42L27 42L27 41L28 41L28 42L29 42L29 43L30 43L30 44L32 44L32 45L33 45L33 46L32 46L32 47L33 47L33 46L35 46L35 47L36 47L36 48L34 48L34 50L33 50L33 48L31 48L31 49L32 49L32 51L31 51L31 52L32 52L32 54L34 54L34 55L35 55L35 56L36 56L36 55L35 55L35 53L36 53L36 54L37 54L37 53L36 53L36 52L37 52L37 51L36 51L36 52L35 52L35 53L33 53L33 52L34 52L34 50L35 50L35 49L36 49L36 50L39 50L39 48L40 48L40 47L41 47L41 48L42 48L42 49L43 49L43 48L44 48L44 49L45 49L45 50L47 50L47 51L48 51L48 48L49 48L49 47L52 47L52 48L54 48L54 49L55 49L55 48L54 48L54 45L55 45L55 46L56 46L56 45L55 45L55 44L54 44L54 45L52 45L52 44L53 44L53 43L54 43L54 40L53 40L53 39L51 39L51 38L54 38L54 37L53 37L53 36L52 36L52 34L53 34L53 33L51 33L51 32L49 32L49 31L48 31L48 30L47 30L47 29L48 29L48 27L46 27L46 26L48 26L48 25L46 25L46 24L44 24L44 21L45 21L45 22L46 22L46 23L47 23L47 21L48 21L48 20L49 20L49 19L50 19L50 18L51 18L51 17L50 17L50 16L51 16L51 15L50 15L50 14L51 14L51 13L50 13L50 11L49 11L49 12L48 12L48 11L45 11L45 12L44 12L44 13L43 13L43 14L42 14L42 10L41 10L41 9L43 9L43 8L40 8L40 6L39 6L39 7L38 7L38 6L37 6L37 5L39 5L39 2L36 2L36 1L35 1L35 3L34 3L34 4L33 4L33 3L32 3L32 4L31 4L31 8L35 8L35 7L36 7L36 8L37 8L37 7L38 7L38 9L37 9L37 10L39 10L39 12L38 12L38 14L37 14L37 13L36 13L36 12L37 12L37 11L36 11L36 9L33 9L33 10L34 10L34 12L35 12L35 13L33 13L33 11L32 11L32 13L31 13L31 15L32 15L32 13L33 13L33 14L35 14L35 15L33 15L33 16L30 16L30 15L27 15L27 14L28 14L28 13L29 13L29 14L30 14L30 13L29 13L29 12L30 12L30 11L29 11L29 10L28 10L28 9L26 9L26 6L25 6L25 4L26 4L26 3L25 3L25 4L24 4L24 2L23 2L23 1ZM29 1L29 3L28 3L28 2L27 2L27 3L28 3L28 4L29 4L29 3L30 3L30 2L31 2L31 1ZM32 1L32 2L33 2L33 1ZM40 1L40 2L41 2L41 1ZM22 2L22 3L21 3L21 4L22 4L22 5L21 5L21 6L20 6L20 7L21 7L21 8L22 8L22 7L23 7L23 9L21 9L21 11L20 11L20 12L19 12L19 13L18 13L18 12L15 12L15 13L18 13L18 15L17 15L17 14L16 14L16 15L15 15L15 16L16 16L16 17L14 17L14 16L13 16L13 15L14 15L14 13L11 13L11 14L10 14L10 13L9 13L9 11L7 11L7 12L6 12L6 13L7 13L7 12L8 12L8 16L10 16L10 15L11 15L11 14L13 14L13 15L12 15L12 16L11 16L11 17L12 17L12 18L13 18L13 19L14 19L14 20L13 20L13 21L15 21L15 22L16 22L16 21L15 21L15 20L16 20L16 19L17 19L17 18L18 18L18 21L17 21L17 22L18 22L18 23L17 23L17 24L16 24L16 23L13 23L13 24L16 24L16 25L19 25L19 26L18 26L18 27L17 27L17 26L16 26L16 27L17 27L17 28L16 28L16 29L17 29L17 30L18 30L18 31L20 31L20 33L21 33L21 31L22 31L22 29L24 29L24 28L25 28L25 27L23 27L23 26L25 26L25 25L26 25L26 24L25 24L25 23L26 23L26 22L25 22L25 21L26 21L26 19L28 19L28 20L27 20L27 21L28 21L28 22L29 22L29 23L27 23L27 24L29 24L29 23L30 23L30 22L31 22L31 23L33 23L33 25L35 25L35 26L36 26L36 27L37 27L37 28L38 28L38 29L39 29L39 28L41 28L41 26L42 26L42 28L43 28L43 29L42 29L42 30L39 30L39 31L40 31L40 32L39 32L39 33L40 33L40 34L41 34L41 35L40 35L40 36L39 36L39 34L36 34L36 33L37 33L37 32L38 32L38 31L37 31L37 32L36 32L36 33L35 33L35 34L34 34L34 35L33 35L33 36L35 36L35 35L38 35L38 36L36 36L36 37L37 37L37 38L35 38L35 39L34 39L34 38L33 38L33 39L31 39L31 41L29 41L29 42L30 42L30 43L31 43L31 41L32 41L32 42L34 42L34 43L32 43L32 44L34 44L34 43L35 43L35 42L36 42L36 44L35 44L35 46L37 46L37 47L39 47L39 46L37 46L37 45L38 45L38 44L37 44L37 42L38 42L38 41L37 41L37 40L38 40L38 39L37 39L37 38L38 38L38 36L39 36L39 37L40 37L40 36L41 36L41 37L42 37L42 38L41 38L41 39L42 39L42 38L43 38L43 37L44 37L44 38L45 38L45 40L47 40L47 39L48 39L48 37L47 37L47 39L46 39L46 38L45 38L45 37L44 37L44 35L42 35L42 34L46 34L46 35L47 35L47 36L48 36L48 35L50 35L50 34L51 34L51 33L50 33L50 34L48 34L48 33L47 33L47 34L46 34L46 32L45 32L45 31L44 31L44 30L46 30L46 31L47 31L47 32L48 32L48 31L47 31L47 30L46 30L46 29L47 29L47 28L46 28L46 27L45 27L45 26L43 26L43 24L41 24L41 23L42 23L42 22L43 22L43 20L47 20L47 19L48 19L48 18L50 18L50 17L47 17L47 16L45 16L45 15L49 15L49 16L50 16L50 15L49 15L49 13L47 13L47 14L46 14L46 12L45 12L45 14L44 14L44 15L43 15L43 16L42 16L42 17L40 17L40 16L41 16L41 15L42 15L42 14L41 14L41 13L39 13L39 15L40 15L40 16L38 16L38 15L37 15L37 16L36 16L36 15L35 15L35 16L33 16L33 18L34 18L34 19L28 19L28 18L26 18L26 19L25 19L25 17L28 17L28 16L25 16L25 15L24 15L24 16L23 16L23 17L21 17L21 16L22 16L22 15L20 15L20 14L19 14L19 13L22 13L22 12L21 12L21 11L22 11L22 10L23 10L23 13L24 13L24 14L25 14L25 13L28 13L28 12L29 12L29 11L28 11L28 10L26 10L26 11L27 11L27 12L25 12L25 11L24 11L24 10L25 10L25 9L24 9L24 7L25 7L25 6L24 6L24 7L23 7L23 5L24 5L24 4L22 4L22 3L23 3L23 2ZM8 3L8 4L9 4L9 3ZM36 3L36 5L35 5L35 6L34 6L34 5L33 5L33 6L32 6L32 7L33 7L33 6L34 6L34 7L35 7L35 6L36 6L36 7L37 7L37 6L36 6L36 5L37 5L37 4L38 4L38 3ZM27 5L27 8L30 8L30 5ZM14 6L14 7L15 7L15 6ZM17 6L17 7L18 7L18 6ZM21 6L21 7L22 7L22 6ZM28 6L28 7L29 7L29 6ZM45 6L45 8L44 8L44 9L45 9L45 8L46 8L46 10L48 10L48 9L49 9L49 8L48 8L48 9L47 9L47 8L46 8L46 6ZM13 8L13 9L14 9L14 10L15 10L15 11L18 11L18 10L16 10L16 9L14 9L14 8ZM39 8L39 9L40 9L40 8ZM53 8L53 9L54 9L54 8ZM55 8L55 9L56 9L56 8ZM10 9L10 12L14 12L14 11L12 11L12 9ZM31 9L31 10L32 10L32 9ZM53 10L53 11L52 11L52 12L53 12L53 11L54 11L54 12L55 12L55 11L56 11L56 10L55 10L55 11L54 11L54 10ZM35 11L35 12L36 12L36 11ZM24 12L24 13L25 13L25 12ZM56 12L56 13L53 13L53 14L54 14L54 15L53 15L53 16L56 16L56 14L57 14L57 12ZM9 14L9 15L10 15L10 14ZM40 14L40 15L41 15L41 14ZM16 15L16 16L17 16L17 15ZM19 15L19 17L18 17L18 18L19 18L19 21L18 21L18 22L19 22L19 23L20 23L20 22L19 22L19 21L23 21L23 22L21 22L21 25L20 25L20 24L19 24L19 25L20 25L20 27L19 27L19 28L21 28L21 29L19 29L19 30L20 30L20 31L21 31L21 29L22 29L22 28L21 28L21 27L22 27L22 25L23 25L23 24L24 24L24 23L23 23L23 22L24 22L24 21L23 21L23 20L24 20L24 19L20 19L20 18L21 18L21 17L20 17L20 15ZM24 16L24 17L25 17L25 16ZM35 16L35 17L34 17L34 18L35 18L35 17L36 17L36 18L37 18L37 19L35 19L35 21L34 21L34 20L32 20L32 21L33 21L33 23L36 23L36 24L35 24L35 25L36 25L36 26L39 26L39 27L38 27L38 28L39 28L39 27L40 27L40 26L41 26L41 24L40 24L40 23L41 23L41 22L42 22L42 21L41 21L41 20L40 20L40 19L42 19L42 20L43 20L43 19L44 19L44 18L45 18L45 19L46 19L46 18L47 18L47 17L46 17L46 18L45 18L45 16L43 16L43 18L40 18L40 19L38 19L38 18L39 18L39 17L38 17L38 16L37 16L37 17L36 17L36 16ZM7 17L7 18L6 18L6 19L8 19L8 20L6 20L6 21L7 21L7 22L10 22L10 24L11 24L11 25L10 25L10 26L11 26L11 25L12 25L12 21L11 21L11 20L12 20L12 19L11 19L11 18L10 18L10 17ZM13 17L13 18L14 18L14 17ZM16 17L16 18L17 18L17 17ZM19 17L19 18L20 18L20 17ZM29 17L29 18L32 18L32 17ZM37 17L37 18L38 18L38 17ZM10 19L10 20L8 20L8 21L10 21L10 20L11 20L11 19ZM28 20L28 21L29 21L29 22L30 22L30 21L31 21L31 20ZM36 20L36 21L37 21L37 22L36 22L36 23L38 23L38 24L36 24L36 25L38 25L38 24L39 24L39 26L40 26L40 24L39 24L39 23L40 23L40 22L41 22L41 21L40 21L40 20ZM52 20L52 21L53 21L53 20ZM38 21L38 22L39 22L39 21ZM49 22L49 23L50 23L50 22ZM52 22L52 23L53 23L53 22ZM8 23L8 24L9 24L9 23ZM22 23L22 24L23 24L23 23ZM6 24L6 25L7 25L7 24ZM5 27L5 30L8 30L8 27ZM27 27L27 30L30 30L30 27ZM31 27L31 28L32 28L32 29L33 29L33 30L35 30L35 29L33 29L33 28L34 28L34 27ZM44 27L44 29L43 29L43 30L42 30L42 31L43 31L43 30L44 30L44 29L45 29L45 27ZM49 27L49 30L52 30L52 27ZM6 28L6 29L7 29L7 28ZM10 28L10 29L11 29L11 28ZM17 28L17 29L18 29L18 28ZM28 28L28 29L29 29L29 28ZM50 28L50 29L51 29L51 28ZM54 28L54 29L55 29L55 30L56 30L56 29L55 29L55 28ZM53 30L53 31L52 31L52 32L54 32L54 33L55 33L55 32L56 32L56 31L55 31L55 32L54 32L54 30ZM3 31L3 32L4 32L4 31ZM6 32L6 33L7 33L7 32ZM32 32L32 33L33 33L33 32ZM40 32L40 33L41 33L41 34L42 34L42 33L41 33L41 32ZM43 32L43 33L45 33L45 32ZM10 35L10 36L11 36L11 35ZM41 35L41 36L42 36L42 35ZM2 36L2 38L1 38L1 39L2 39L2 38L4 38L4 37L3 37L3 36ZM50 36L50 37L49 37L49 39L50 39L50 38L51 38L51 36ZM27 37L27 38L28 38L28 37ZM6 38L6 39L7 39L7 38ZM19 38L19 39L20 39L20 38ZM39 38L39 40L40 40L40 38ZM14 39L14 40L16 40L16 39ZM33 39L33 40L32 40L32 41L34 41L34 42L35 42L35 41L34 41L34 39ZM35 39L35 40L36 40L36 39ZM43 39L43 41L42 41L42 40L41 40L41 41L40 41L40 42L39 42L39 44L40 44L40 43L41 43L41 44L45 44L45 46L44 46L44 45L42 45L42 46L41 46L41 45L40 45L40 46L41 46L41 47L42 47L42 48L43 48L43 47L42 47L42 46L44 46L44 48L45 48L45 49L46 49L46 48L47 48L47 47L48 47L48 46L49 46L49 44L50 44L50 45L51 45L51 46L52 46L52 47L53 47L53 46L52 46L52 45L51 45L51 43L50 43L50 42L52 42L52 41L53 41L53 40L51 40L51 41L49 41L49 43L47 43L47 42L45 42L45 43L41 43L41 42L44 42L44 39ZM6 40L6 41L7 41L7 42L6 42L6 43L7 43L7 44L6 44L6 45L7 45L7 44L9 44L9 43L7 43L7 42L8 42L8 41L7 41L7 40ZM21 42L21 43L22 43L22 42ZM47 44L47 45L46 45L46 46L48 46L48 44ZM10 45L10 46L11 46L11 45ZM12 45L12 46L13 46L13 47L12 47L12 48L11 48L11 47L10 47L10 49L9 49L9 50L10 50L10 49L11 49L11 51L12 51L12 52L11 52L11 53L9 53L9 55L10 55L10 56L11 56L11 54L12 54L12 55L13 55L13 54L12 54L12 53L13 53L13 50L15 50L15 49L16 49L16 47L15 47L15 46L13 46L13 45ZM28 45L28 46L27 46L27 47L23 47L23 48L22 48L22 49L25 49L25 53L26 53L26 49L25 49L25 48L27 48L27 47L28 47L28 48L30 48L30 47L28 47L28 46L31 46L31 45ZM1 46L1 47L2 47L2 46ZM3 46L3 47L5 47L5 46ZM13 47L13 48L14 48L14 47ZM36 48L36 49L38 49L38 48ZM27 49L27 52L30 52L30 49ZM49 49L49 52L52 52L52 49ZM18 50L18 51L19 51L19 50ZM21 50L21 51L24 51L24 50ZM28 50L28 51L29 51L29 50ZM50 50L50 51L51 51L51 50ZM32 51L32 52L33 52L33 51ZM42 52L42 53L43 53L43 52ZM47 52L47 53L46 53L46 54L49 54L49 53L48 53L48 52ZM23 53L23 54L24 54L24 53ZM29 53L29 54L30 54L30 53ZM19 54L19 55L18 55L18 56L19 56L19 55L20 55L20 54ZM14 55L14 56L15 56L15 55ZM51 55L51 57L52 57L52 56L53 56L53 57L54 57L54 56L55 56L55 57L56 57L56 56L55 56L55 55L54 55L54 56L53 56L53 55ZM41 56L41 57L42 57L42 56ZM0 0L0 7L7 7L7 0ZM1 1L1 6L6 6L6 1ZM2 2L2 5L5 5L5 2ZM50 0L50 7L57 7L57 0ZM51 1L51 6L56 6L56 1ZM52 2L52 5L55 5L55 2ZM0 50L0 57L7 57L7 50ZM1 51L1 56L6 56L6 51ZM2 52L2 55L5 55L5 52Z" fill="#000000"/></g></g></svg>
