<?xml version="1.0" encoding="UTF-8"?>
<svg xmlns="http://www.w3.org/2000/svg" version="1.1" width="300" height="300" viewBox="0 0 300 300"><rect x="0" y="0" width="300" height="300" fill="#ffffff"/><g transform="scale(4.918)"><g transform="translate(2,2)"><path fill-rule="evenodd" d="M9 0L9 1L8 1L8 2L9 2L9 3L8 3L8 4L9 4L9 3L10 3L10 0ZM11 0L11 1L12 1L12 2L15 2L15 3L16 3L16 2L17 2L17 4L19 4L19 5L20 5L20 7L19 7L19 6L18 6L18 7L17 7L17 6L16 6L16 7L15 7L15 5L16 5L16 4L14 4L14 5L13 5L13 4L10 4L10 11L8 11L8 9L9 9L9 8L6 8L6 9L5 9L5 8L0 8L0 9L1 9L1 10L0 10L0 12L1 12L1 10L2 10L2 11L4 11L4 10L6 10L6 11L5 11L5 12L4 12L4 13L3 13L3 12L2 12L2 13L3 13L3 14L5 14L5 15L7 15L7 16L6 16L6 17L5 17L5 16L3 16L3 15L1 15L1 14L0 14L0 15L1 15L1 16L0 16L0 17L1 17L1 18L0 18L0 19L1 19L1 22L2 22L2 24L1 24L1 23L0 23L0 24L1 24L1 27L4 27L4 31L3 31L3 29L2 29L2 28L1 28L1 29L2 29L2 30L1 30L1 32L2 32L2 34L3 34L3 35L5 35L5 37L7 37L7 38L6 38L6 39L8 39L8 40L6 40L6 41L8 41L8 40L9 40L9 41L10 41L10 40L11 40L11 41L12 41L12 42L11 42L11 43L12 43L12 45L10 45L10 43L7 43L7 42L6 42L6 43L4 43L4 40L5 40L5 39L0 39L0 40L1 40L1 41L0 41L0 42L2 42L2 44L1 44L1 43L0 43L0 48L5 48L5 47L7 47L7 46L6 46L6 45L10 45L10 46L8 46L8 51L10 51L10 52L8 52L8 57L9 57L9 55L11 55L11 56L10 56L10 57L11 57L11 56L12 56L12 57L16 57L16 56L17 56L17 57L19 57L19 55L20 55L20 54L19 54L19 55L17 55L17 54L18 54L18 53L20 53L20 52L21 52L21 53L22 53L22 54L24 54L24 53L25 53L25 54L26 54L26 55L27 55L27 56L28 56L28 55L27 55L27 53L28 53L28 54L30 54L30 53L31 53L31 55L32 55L32 56L30 56L30 55L29 55L29 56L30 56L30 57L32 57L32 56L34 56L34 57L35 57L35 56L36 56L36 57L37 57L37 56L38 56L38 57L39 57L39 56L38 56L38 55L40 55L40 56L41 56L41 57L44 57L44 56L46 56L46 57L48 57L48 55L49 55L49 54L47 54L47 55L46 55L46 54L45 54L45 53L44 53L44 51L42 51L42 50L43 50L43 48L45 48L45 47L47 47L47 46L51 46L51 45L53 45L53 46L55 46L55 47L54 47L54 48L53 48L53 47L49 47L49 48L48 48L48 51L47 51L47 50L46 50L46 49L47 49L47 48L46 48L46 49L45 49L45 50L46 50L46 51L45 51L45 52L46 52L46 53L47 53L47 52L48 52L48 53L51 53L51 54L50 54L50 55L51 55L51 56L49 56L49 57L52 57L52 56L53 56L53 57L54 57L54 56L55 56L55 57L56 57L56 56L55 56L55 55L54 55L54 54L53 54L53 53L54 53L54 52L55 52L55 49L54 49L54 48L55 48L55 47L56 47L56 48L57 48L57 47L56 47L56 46L57 46L57 44L55 44L55 43L56 43L56 41L54 41L54 43L53 43L53 44L51 44L51 43L52 43L52 42L51 42L51 41L49 41L49 39L50 39L50 37L51 37L51 38L52 38L52 39L51 39L51 40L52 40L52 41L53 41L53 40L52 40L52 39L53 39L53 38L52 38L52 37L53 37L53 36L55 36L55 35L53 35L53 34L54 34L54 33L53 33L53 32L57 32L57 31L56 31L56 30L57 30L57 29L56 29L56 30L55 30L55 29L54 29L54 28L55 28L55 27L56 27L56 26L57 26L57 25L56 25L56 22L57 22L57 21L56 21L56 20L55 20L55 19L54 19L54 18L57 18L57 16L56 16L56 14L57 14L57 13L56 13L56 10L55 10L55 11L54 11L54 10L53 10L53 11L52 11L52 12L53 12L53 11L54 11L54 12L55 12L55 13L54 13L54 14L53 14L53 16L56 16L56 17L52 17L52 18L50 18L50 17L51 17L51 16L52 16L52 15L51 15L51 14L52 14L52 13L51 13L51 12L50 12L50 13L47 13L47 14L46 14L46 12L45 12L45 11L47 11L47 12L49 12L49 10L50 10L50 11L51 11L51 10L50 10L50 8L49 8L49 9L47 9L47 8L48 8L48 7L49 7L49 6L48 6L48 7L47 7L47 5L48 5L48 0L44 0L44 1L43 1L43 0L41 0L41 1L43 1L43 2L39 2L39 1L37 1L37 0L36 0L36 1L34 1L34 0L27 0L27 1L26 1L26 0L24 0L24 1L23 1L23 0L21 0L21 1L20 1L20 2L21 2L21 1L23 1L23 2L22 2L22 3L21 3L21 4L19 4L19 2L17 2L17 1L16 1L16 0L13 0L13 1L12 1L12 0ZM28 1L28 2L23 2L23 3L22 3L22 4L21 4L21 5L22 5L22 4L23 4L23 5L24 5L24 4L23 4L23 3L26 3L26 4L25 4L25 8L24 8L24 6L23 6L23 7L22 7L22 6L21 6L21 9L20 9L20 8L19 8L19 9L17 9L17 7L16 7L16 9L15 9L15 7L14 7L14 6L13 6L13 5L11 5L11 8L13 8L13 7L14 7L14 9L13 9L13 10L12 10L12 9L11 9L11 10L12 10L12 11L10 11L10 12L9 12L9 13L8 13L8 16L7 16L7 17L6 17L6 18L5 18L5 17L3 17L3 16L2 16L2 17L3 17L3 19L2 19L2 18L1 18L1 19L2 19L2 21L6 21L6 22L5 22L5 23L6 23L6 24L4 24L4 25L5 25L5 26L7 26L7 25L8 25L8 26L9 26L9 27L12 27L12 28L13 28L13 27L14 27L14 26L18 26L18 27L15 27L15 28L14 28L14 30L13 30L13 29L12 29L12 30L13 30L13 32L12 32L12 31L11 31L11 30L9 30L9 31L4 31L4 32L5 32L5 33L3 33L3 34L5 34L5 33L6 33L6 34L7 34L7 33L8 33L8 32L9 32L9 34L8 34L8 35L6 35L6 36L8 36L8 37L9 37L9 36L10 36L10 38L11 38L11 40L12 40L12 38L13 38L13 42L14 42L14 38L15 38L15 39L16 39L16 40L15 40L15 42L17 42L17 43L16 43L16 44L14 44L14 43L13 43L13 44L14 44L14 45L12 45L12 47L11 47L11 48L10 48L10 49L11 49L11 50L10 50L10 51L11 51L11 52L10 52L10 53L9 53L9 54L11 54L11 55L12 55L12 56L14 56L14 52L15 52L15 51L16 51L16 53L15 53L15 54L16 54L16 53L18 53L18 51L20 51L20 50L21 50L21 49L22 49L22 51L21 51L21 52L22 52L22 53L24 53L24 51L25 51L25 53L26 53L26 48L25 48L25 50L23 50L23 49L24 49L24 48L23 48L23 47L24 47L24 46L23 46L23 45L25 45L25 47L26 47L26 46L27 46L27 45L28 45L28 46L30 46L30 45L31 45L31 47L32 47L32 46L42 46L42 47L44 47L44 46L45 46L45 42L46 42L46 43L47 43L47 41L48 41L48 40L47 40L47 41L46 41L46 40L44 40L44 39L45 39L45 38L46 38L46 39L47 39L47 37L48 37L48 36L49 36L49 37L50 37L50 35L51 35L51 36L52 36L52 34L53 34L53 33L51 33L51 32L53 32L53 31L55 31L55 30L53 30L53 31L51 31L51 32L50 32L50 31L48 31L48 28L47 28L47 27L48 27L48 26L47 26L47 25L50 25L50 26L53 26L53 27L55 27L55 26L54 26L54 25L53 25L53 24L52 24L52 23L53 23L53 21L55 21L55 20L52 20L52 19L50 19L50 18L49 18L49 19L48 19L48 18L47 18L47 17L50 17L50 14L51 14L51 13L50 13L50 14L49 14L49 15L46 15L46 16L44 16L44 14L45 14L45 12L44 12L44 11L45 11L45 10L47 10L47 9L45 9L45 7L46 7L46 8L47 8L47 7L46 7L46 6L45 6L45 5L44 5L44 4L46 4L46 5L47 5L47 3L42 3L42 4L43 4L43 5L42 5L42 6L41 6L41 7L40 7L40 6L39 6L39 7L40 7L40 8L39 8L39 9L38 9L38 10L41 10L41 12L38 12L38 13L33 13L33 11L31 11L31 12L30 12L30 10L29 10L29 9L25 9L25 8L26 8L26 4L27 4L27 3L28 3L28 4L30 4L30 3L31 3L31 1ZM32 1L32 2L33 2L33 3L32 3L32 4L31 4L31 9L32 9L32 10L34 10L34 12L36 12L36 11L37 11L37 10L36 10L36 9L34 9L34 8L36 8L36 6L37 6L37 7L38 7L38 5L41 5L41 3L40 3L40 4L39 4L39 2L38 2L38 5L36 5L36 3L37 3L37 2L34 2L34 1ZM44 1L44 2L47 2L47 1ZM28 2L28 3L30 3L30 2ZM33 3L33 4L35 4L35 3ZM8 5L8 7L9 7L9 5ZM27 5L27 8L30 8L30 5ZM33 5L33 6L32 6L32 8L34 8L34 7L35 7L35 6L36 6L36 5L35 5L35 6L34 6L34 5ZM12 6L12 7L13 7L13 6ZM28 6L28 7L29 7L29 6ZM33 6L33 7L34 7L34 6ZM42 6L42 7L43 7L43 6ZM44 6L44 7L45 7L45 6ZM23 8L23 9L21 9L21 10L20 10L20 9L19 9L19 10L18 10L18 11L17 11L17 10L13 10L13 11L14 11L14 12L13 12L13 13L15 13L15 14L12 14L12 12L11 12L11 13L9 13L9 15L10 15L10 17L9 17L9 18L8 18L8 17L7 17L7 18L6 18L6 19L5 19L5 18L4 18L4 19L3 19L3 20L6 20L6 21L8 21L8 22L9 22L9 23L8 23L8 24L9 24L9 23L10 23L10 22L9 22L9 21L11 21L11 24L10 24L10 25L9 25L9 26L11 26L11 24L12 24L12 23L13 23L13 25L12 25L12 27L13 27L13 25L14 25L14 24L15 24L15 23L16 23L16 25L18 25L18 26L20 26L20 25L19 25L19 24L18 24L18 23L20 23L20 22L18 22L18 23L17 23L17 21L20 21L20 20L19 20L19 19L22 19L22 17L21 17L21 16L22 16L22 13L24 13L24 15L23 15L23 16L24 16L24 17L23 17L23 18L24 18L24 19L23 19L23 20L24 20L24 21L22 21L22 20L21 20L21 21L22 21L22 22L24 22L24 21L25 21L25 22L26 22L26 23L25 23L25 24L24 24L24 23L21 23L21 24L23 24L23 25L21 25L21 27L20 27L20 28L19 28L19 29L18 29L18 28L15 28L15 30L14 30L14 32L15 32L15 33L14 33L14 34L12 34L12 36L11 36L11 35L10 35L10 36L11 36L11 37L14 37L14 36L13 36L13 35L15 35L15 36L16 36L16 35L17 35L17 36L18 36L18 37L17 37L17 38L18 38L18 39L17 39L17 41L21 41L21 38L23 38L23 39L24 39L24 40L23 40L23 41L22 41L22 43L21 43L21 42L18 42L18 43L17 43L17 44L16 44L16 45L14 45L14 48L13 48L13 47L12 47L12 48L11 48L11 49L12 49L12 50L11 50L11 51L12 51L12 52L11 52L11 54L12 54L12 55L13 55L13 54L12 54L12 53L13 53L13 52L14 52L14 49L15 49L15 48L16 48L16 49L19 49L19 50L20 50L20 49L19 49L19 48L20 48L20 46L19 46L19 45L21 45L21 47L22 47L22 45L23 45L23 44L25 44L25 45L26 45L26 44L28 44L28 45L30 45L30 43L32 43L32 42L33 42L33 41L31 41L31 40L33 40L33 39L34 39L34 38L33 38L33 39L31 39L31 38L32 38L32 34L33 34L33 35L37 35L37 36L36 36L36 37L37 37L37 36L39 36L39 37L40 37L40 36L41 36L41 38L42 38L42 39L40 39L40 38L38 38L38 40L34 40L34 41L37 41L37 42L36 42L36 43L35 43L35 42L34 42L34 43L33 43L33 44L34 44L34 43L35 43L35 44L36 44L36 45L38 45L38 43L37 43L37 42L38 42L38 40L39 40L39 39L40 39L40 40L41 40L41 42L44 42L44 40L43 40L43 41L42 41L42 39L43 39L43 37L44 37L44 38L45 38L45 37L44 37L44 34L46 34L46 35L45 35L45 36L46 36L46 35L49 35L49 34L50 34L50 32L49 32L49 34L48 34L48 33L47 33L47 34L46 34L46 32L45 32L45 31L42 31L42 30L46 30L46 31L47 31L47 32L48 32L48 31L47 31L47 30L46 30L46 29L47 29L47 28L46 28L46 26L45 26L45 27L44 27L44 26L43 26L43 25L44 25L44 23L45 23L45 21L44 21L44 23L43 23L43 20L45 20L45 19L44 19L44 18L46 18L46 19L47 19L47 18L46 18L46 17L47 17L47 16L46 16L46 17L44 17L44 16L43 16L43 15L42 15L42 14L43 14L43 13L44 13L44 12L43 12L43 11L42 11L42 14L41 14L41 15L40 15L40 13L39 13L39 14L37 14L37 15L38 15L38 16L41 16L41 17L39 17L39 18L38 18L38 17L37 17L37 16L34 16L34 17L37 17L37 18L33 18L33 17L29 17L29 16L28 16L28 15L30 15L30 16L33 16L33 15L35 15L35 14L32 14L32 12L31 12L31 13L28 13L28 12L29 12L29 11L28 11L28 10L26 10L26 11L27 11L27 12L25 12L25 13L24 13L24 12L23 12L23 10L24 10L24 11L25 11L25 9L24 9L24 8ZM41 8L41 10L43 10L43 9L44 9L44 8ZM51 8L51 9L52 9L52 8ZM53 8L53 9L54 9L54 8ZM55 8L55 9L56 9L56 8ZM2 9L2 10L3 10L3 9ZM6 9L6 10L7 10L7 9ZM21 10L21 11L22 11L22 10ZM6 11L6 12L5 12L5 14L7 14L7 13L6 13L6 12L7 12L7 11ZM19 11L19 12L20 12L20 11ZM17 12L17 13L16 13L16 14L17 14L17 13L18 13L18 12ZM21 12L21 13L19 13L19 14L18 14L18 15L16 15L16 16L17 16L17 17L16 17L16 19L17 19L17 20L16 20L16 21L15 21L15 18L14 18L14 17L15 17L15 16L14 16L14 15L12 15L12 14L10 14L10 15L12 15L12 16L11 16L11 17L12 17L12 16L14 16L14 17L13 17L13 18L12 18L12 20L11 20L11 21L12 21L12 22L13 22L13 23L14 23L14 22L16 22L16 21L17 21L17 20L18 20L18 19L17 19L17 18L21 18L21 17L20 17L20 16L21 16L21 15L20 15L20 16L19 16L19 17L18 17L18 15L19 15L19 14L21 14L21 13L22 13L22 12ZM25 13L25 14L28 14L28 13ZM55 13L55 14L56 14L56 13ZM30 14L30 15L32 15L32 14ZM25 15L25 16L27 16L27 17L25 17L25 19L26 19L26 20L25 20L25 21L26 21L26 20L27 20L27 23L28 23L28 21L29 21L29 22L30 22L30 23L29 23L29 24L25 24L25 26L22 26L22 27L21 27L21 28L22 28L22 29L19 29L19 31L18 31L18 29L16 29L16 30L17 30L17 31L16 31L16 32L19 32L19 31L20 31L20 35L19 35L19 37L18 37L18 38L19 38L19 39L20 39L20 38L19 38L19 37L23 37L23 38L24 38L24 37L23 37L23 36L21 36L21 33L22 33L22 35L23 35L23 32L21 32L21 31L22 31L22 30L23 30L23 29L25 29L25 30L26 30L26 27L25 27L25 26L26 26L26 25L27 25L27 26L29 26L29 24L30 24L30 25L32 25L32 26L34 26L34 27L33 27L33 28L32 28L32 27L31 27L31 28L32 28L32 29L31 29L31 30L32 30L32 31L33 31L33 30L35 30L35 29L33 29L33 28L34 28L34 27L35 27L35 25L34 25L34 24L37 24L37 25L38 25L38 26L36 26L36 28L38 28L38 30L37 30L37 31L34 31L34 32L30 32L30 31L29 31L29 32L30 32L30 33L33 33L33 34L35 34L35 33L34 33L34 32L37 32L37 34L39 34L39 33L38 33L38 32L40 32L40 34L42 34L42 35L41 35L41 36L43 36L43 34L44 34L44 33L45 33L45 32L43 32L43 34L42 34L42 33L41 33L41 32L42 32L42 31L41 31L41 30L42 30L42 29L43 29L43 28L42 28L42 27L43 27L43 26L41 26L41 24L42 24L42 25L43 25L43 23L41 23L41 22L40 22L40 23L39 23L39 21L38 21L38 23L36 23L36 22L37 22L37 21L36 21L36 20L37 20L37 19L38 19L38 18L37 18L37 19L35 19L35 20L34 20L34 21L33 21L33 20L32 20L32 21L33 21L33 23L34 23L34 24L31 24L31 22L30 22L30 21L31 21L31 20L30 20L30 19L31 19L31 18L29 18L29 19L28 19L28 18L27 18L27 17L28 17L28 16L27 16L27 15ZM41 15L41 16L42 16L42 15ZM41 17L41 18L39 18L39 20L40 20L40 21L41 21L41 20L40 20L40 19L41 19L41 18L42 18L42 19L43 19L43 18L44 18L44 17L43 17L43 18L42 18L42 17ZM7 18L7 19L6 19L6 20L7 20L7 19L8 19L8 18ZM26 18L26 19L27 19L27 18ZM32 18L32 19L33 19L33 18ZM13 19L13 20L12 20L12 21L13 21L13 22L14 22L14 21L13 21L13 20L14 20L14 19ZM49 19L49 20L48 20L48 21L47 21L47 22L50 22L50 23L48 23L48 24L50 24L50 25L52 25L52 24L50 24L50 23L51 23L51 22L50 22L50 19ZM29 20L29 21L30 21L30 20ZM6 22L6 23L7 23L7 22ZM34 22L34 23L35 23L35 22ZM6 24L6 25L7 25L7 24ZM38 24L38 25L39 25L39 24ZM45 24L45 25L47 25L47 24ZM2 25L2 26L3 26L3 25ZM39 26L39 27L40 27L40 28L39 28L39 30L41 30L41 29L40 29L40 28L41 28L41 27L40 27L40 26ZM5 27L5 30L8 30L8 27ZM24 27L24 28L25 28L25 27ZM27 27L27 30L30 30L30 27ZM49 27L49 30L52 30L52 27ZM6 28L6 29L7 29L7 28ZM9 28L9 29L10 29L10 28ZM28 28L28 29L29 29L29 28ZM44 28L44 29L45 29L45 28ZM50 28L50 29L51 29L51 28ZM32 29L32 30L33 30L33 29ZM20 30L20 31L21 31L21 30ZM2 31L2 32L3 32L3 31ZM25 31L25 34L24 34L24 36L25 36L25 38L27 38L27 39L25 39L25 40L24 40L24 41L25 41L25 42L23 42L23 43L25 43L25 44L26 44L26 43L27 43L27 42L29 42L29 43L30 43L30 41L27 41L27 39L28 39L28 40L31 40L31 39L29 39L29 36L30 36L30 38L31 38L31 36L30 36L30 34L29 34L29 33L27 33L27 31ZM40 31L40 32L41 32L41 31ZM6 32L6 33L7 33L7 32ZM11 32L11 33L10 33L10 34L11 34L11 33L12 33L12 32ZM0 33L0 35L1 35L1 33ZM15 33L15 35L16 35L16 34L17 34L17 35L18 35L18 34L19 34L19 33ZM55 33L55 34L57 34L57 33ZM25 34L25 35L26 35L26 37L27 37L27 38L28 38L28 37L27 37L27 35L26 35L26 34ZM8 35L8 36L9 36L9 35ZM39 35L39 36L40 36L40 35ZM56 35L56 36L57 36L57 35ZM0 36L0 37L1 37L1 36ZM2 36L2 37L3 37L3 38L4 38L4 36ZM34 36L34 37L35 37L35 36ZM15 37L15 38L16 38L16 37ZM55 37L55 39L54 39L54 40L55 40L55 39L57 39L57 37ZM36 38L36 39L37 39L37 38ZM2 40L2 42L3 42L3 40ZM26 41L26 42L27 42L27 41ZM39 41L39 43L40 43L40 44L39 44L39 45L40 45L40 44L43 44L43 45L42 45L42 46L44 46L44 44L43 44L43 43L40 43L40 41ZM48 42L48 43L49 43L49 42ZM50 42L50 43L51 43L51 42ZM6 43L6 44L5 44L5 45L2 45L2 46L1 46L1 47L2 47L2 46L3 46L3 47L5 47L5 45L6 45L6 44L7 44L7 43ZM19 43L19 44L20 44L20 43ZM36 43L36 44L37 44L37 43ZM17 44L17 45L16 45L16 46L17 46L17 47L16 47L16 48L18 48L18 47L19 47L19 46L17 46L17 45L18 45L18 44ZM21 44L21 45L22 45L22 44ZM31 44L31 45L32 45L32 44ZM47 44L47 45L46 45L46 46L47 46L47 45L51 45L51 44ZM54 44L54 45L55 45L55 44ZM28 47L28 48L30 48L30 47ZM34 47L34 48L31 48L31 50L32 50L32 51L31 51L31 52L32 52L32 54L33 54L33 55L34 55L34 56L35 56L35 55L36 55L36 56L37 56L37 55L38 55L38 54L39 54L39 53L38 53L38 54L37 54L37 55L36 55L36 54L35 54L35 53L36 53L36 52L37 52L37 51L38 51L38 50L39 50L39 49L38 49L38 48L40 48L40 49L41 49L41 50L40 50L40 51L39 51L39 52L40 52L40 55L41 55L41 56L42 56L42 55L41 55L41 53L43 53L43 55L45 55L45 54L44 54L44 53L43 53L43 52L40 52L40 51L41 51L41 50L42 50L42 49L41 49L41 48L40 48L40 47L38 47L38 48L37 48L37 47ZM6 48L6 49L7 49L7 48ZM35 48L35 50L33 50L33 49L32 49L32 50L33 50L33 51L32 51L32 52L34 52L34 51L35 51L35 52L36 52L36 51L37 51L37 50L38 50L38 49L37 49L37 48ZM27 49L27 52L30 52L30 49ZM49 49L49 52L52 52L52 49ZM53 49L53 50L54 50L54 49ZM56 49L56 50L57 50L57 49ZM12 50L12 51L13 51L13 50ZM28 50L28 51L29 51L29 50ZM35 50L35 51L36 51L36 50ZM50 50L50 51L51 51L51 50ZM22 51L22 52L23 52L23 51ZM46 51L46 52L47 52L47 51ZM56 51L56 53L57 53L57 51ZM51 54L51 55L53 55L53 54ZM15 55L15 56L16 56L16 55ZM21 55L21 56L22 56L22 55ZM23 55L23 57L24 57L24 55ZM0 0L0 7L7 7L7 0ZM1 1L1 6L6 6L6 1ZM2 2L2 5L5 5L5 2ZM50 0L50 7L57 7L57 0ZM51 1L51 6L56 6L56 1ZM52 2L52 5L55 5L55 2ZM0 50L0 57L7 57L7 50ZM1 51L1 56L6 56L6 51ZM2 52L2 55L5 55L5 52Z" fill="#000000"/></g></g></svg>
