<?xml version="1.0" encoding="UTF-8"?>
<svg xmlns="http://www.w3.org/2000/svg" version="1.1" width="300" height="300" viewBox="0 0 300 300"><rect x="0" y="0" width="300" height="300" fill="#ffffff"/><g transform="scale(4.918)"><g transform="translate(2,2)"><path fill-rule="evenodd" d="M8 0L8 1L9 1L9 5L10 5L10 1L9 1L9 0ZM12 0L12 1L11 1L11 2L12 2L12 3L13 3L13 5L12 5L12 4L11 4L11 6L10 6L10 9L11 9L11 11L9 11L9 10L8 10L8 9L7 9L7 8L6 8L6 9L7 9L7 10L4 10L4 11L9 11L9 12L8 12L8 13L9 13L9 14L6 14L6 13L7 13L7 12L5 12L5 14L4 14L4 15L3 15L3 13L4 13L4 12L3 12L3 9L5 9L5 8L3 8L3 9L2 9L2 8L0 8L0 11L1 11L1 10L2 10L2 14L1 14L1 12L0 12L0 14L1 14L1 15L0 15L0 16L1 16L1 15L2 15L2 16L3 16L3 17L2 17L2 18L1 18L1 17L0 17L0 19L2 19L2 18L3 18L3 19L4 19L4 20L0 20L0 21L1 21L1 22L0 22L0 23L1 23L1 26L4 26L4 27L0 27L0 28L1 28L1 29L2 29L2 28L4 28L4 30L2 30L2 31L3 31L3 32L2 32L2 34L1 34L1 33L0 33L0 34L1 34L1 35L2 35L2 34L3 34L3 35L7 35L7 34L6 34L6 33L8 33L8 36L6 36L6 37L5 37L5 36L2 36L2 38L3 38L3 42L4 42L4 41L5 41L5 42L6 42L6 43L7 43L7 44L6 44L6 45L7 45L7 44L8 44L8 43L7 43L7 42L6 42L6 41L7 41L7 40L8 40L8 41L9 41L9 40L11 40L11 41L12 41L12 40L13 40L13 41L14 41L14 42L15 42L15 43L16 43L16 44L15 44L15 47L14 47L14 46L13 46L13 48L12 48L12 46L11 46L11 44L13 44L13 45L14 45L14 44L13 44L13 42L12 42L12 43L11 43L11 42L9 42L9 44L10 44L10 45L9 45L9 46L10 46L10 47L8 47L8 50L9 50L9 52L8 52L8 54L9 54L9 53L10 53L10 52L11 52L11 51L12 51L12 54L10 54L10 55L11 55L11 56L12 56L12 57L16 57L16 56L12 56L12 54L13 54L13 55L15 55L15 54L14 54L14 52L15 52L15 51L12 51L12 50L13 50L13 48L16 48L16 47L17 47L17 48L18 48L18 49L20 49L20 53L19 53L19 52L18 52L18 51L19 51L19 50L17 50L17 51L16 51L16 52L18 52L18 53L16 53L16 55L20 55L20 54L21 54L21 56L20 56L20 57L21 57L21 56L22 56L22 57L23 57L23 56L22 56L22 55L23 55L23 54L24 54L24 57L25 57L25 56L27 56L27 54L28 54L28 55L29 55L29 54L30 54L30 56L28 56L28 57L32 57L32 56L33 56L33 55L34 55L34 54L35 54L35 56L34 56L34 57L35 57L35 56L36 56L36 57L37 57L37 56L38 56L38 57L39 57L39 56L40 56L40 57L41 57L41 56L40 56L40 55L41 55L41 54L43 54L43 55L42 55L42 56L44 56L44 55L45 55L45 57L50 57L50 56L51 56L51 57L53 57L53 56L54 56L54 57L55 57L55 56L57 56L57 54L55 54L55 51L56 51L56 53L57 53L57 51L56 51L56 50L54 50L54 48L55 48L55 49L57 49L57 46L55 46L55 45L54 45L54 44L55 44L55 43L57 43L57 38L56 38L56 37L57 37L57 34L56 34L56 33L54 33L54 34L53 34L53 33L52 33L52 32L49 32L49 34L48 34L48 33L47 33L47 32L48 32L48 31L53 31L53 32L55 32L55 31L56 31L56 32L57 32L57 29L56 29L56 30L55 30L55 29L54 29L54 31L53 31L53 28L57 28L57 27L53 27L53 26L51 26L51 25L53 25L53 24L52 24L52 23L50 23L50 24L49 24L49 23L48 23L48 22L55 22L55 23L54 23L54 26L57 26L57 25L55 25L55 23L57 23L57 22L56 22L56 21L57 21L57 16L56 16L56 17L55 17L55 19L54 19L54 17L51 17L51 19L50 19L50 20L51 20L51 19L52 19L52 18L53 18L53 19L54 19L54 20L55 20L55 21L53 21L53 20L52 20L52 21L48 21L48 20L49 20L49 19L48 19L48 20L47 20L47 21L46 21L46 19L45 19L45 16L47 16L47 15L49 15L49 17L48 17L48 18L50 18L50 14L51 14L51 13L50 13L50 14L49 14L49 13L48 13L48 12L49 12L49 11L50 11L50 10L53 10L53 9L51 9L51 8L50 8L50 10L49 10L49 9L47 9L47 5L48 5L48 0L45 0L45 1L43 1L43 0L42 0L42 1L43 1L43 2L42 2L42 3L40 3L40 2L41 2L41 0L40 0L40 2L39 2L39 3L40 3L40 4L38 4L38 2L37 2L37 1L39 1L39 0L37 0L37 1L36 1L36 0L32 0L32 1L31 1L31 0L29 0L29 1L28 1L28 0L26 0L26 1L28 1L28 2L30 2L30 1L31 1L31 2L32 2L32 3L30 3L30 4L29 4L29 3L28 3L28 4L25 4L25 3L24 3L24 2L25 2L25 0L23 0L23 1L24 1L24 2L22 2L22 0L19 0L19 1L18 1L18 0L15 0L15 1L14 1L14 2L15 2L15 3L13 3L13 0ZM17 1L17 3L19 3L19 2L18 2L18 1ZM20 1L20 2L21 2L21 5L20 5L20 4L17 4L17 5L16 5L16 3L15 3L15 4L14 4L14 6L13 6L13 7L14 7L14 6L15 6L15 7L16 7L16 6L17 6L17 7L18 7L18 6L17 6L17 5L20 5L20 6L19 6L19 7L20 7L20 6L21 6L21 7L22 7L22 8L21 8L21 10L22 10L22 11L23 11L23 9L24 9L24 8L25 8L25 7L26 7L26 6L25 6L25 4L24 4L24 3L23 3L23 5L24 5L24 6L23 6L23 7L22 7L22 2L21 2L21 1ZM32 1L32 2L33 2L33 5L32 5L32 4L31 4L31 7L32 7L32 6L33 6L33 7L34 7L34 5L35 5L35 8L34 8L34 11L33 11L33 9L32 9L32 8L31 8L31 10L32 10L32 12L31 12L31 13L32 13L32 14L33 14L33 13L32 13L32 12L34 12L34 15L36 15L36 16L37 16L37 14L38 14L38 15L40 15L40 17L41 17L41 15L40 15L40 14L42 14L42 15L43 15L43 16L42 16L42 17L43 17L43 18L41 18L41 21L42 21L42 19L43 19L43 20L44 20L44 21L43 21L43 22L42 22L42 23L41 23L41 22L40 22L40 24L41 24L41 25L42 25L42 23L46 23L46 21L45 21L45 19L43 19L43 18L44 18L44 17L43 17L43 16L45 16L45 14L46 14L46 15L47 15L47 13L44 13L44 12L45 12L45 11L44 11L44 10L45 10L45 8L46 8L46 6L45 6L45 5L47 5L47 3L45 3L45 4L44 4L44 2L43 2L43 3L42 3L42 4L41 4L41 7L40 7L40 5L35 5L35 4L36 4L36 3L37 3L37 2L35 2L35 3L34 3L34 2L33 2L33 1ZM46 1L46 2L47 2L47 1ZM26 2L26 3L27 3L27 2ZM42 4L42 8L43 8L43 4ZM27 5L27 8L30 8L30 5ZM8 6L8 8L9 8L9 6ZM11 6L11 9L12 9L12 12L13 12L13 11L14 11L14 12L15 12L15 13L16 13L16 14L17 14L17 16L19 16L19 15L18 15L18 13L19 13L19 12L20 12L20 13L21 13L21 11L20 11L20 10L19 10L19 9L20 9L20 8L19 8L19 9L18 9L18 10L17 10L17 11L18 11L18 12L16 12L16 10L15 10L15 11L14 11L14 9L17 9L17 8L12 8L12 6ZM24 6L24 7L23 7L23 8L22 8L22 9L23 9L23 8L24 8L24 7L25 7L25 6ZM28 6L28 7L29 7L29 6ZM36 6L36 9L35 9L35 10L37 10L37 12L36 12L36 11L34 11L34 12L36 12L36 13L35 13L35 14L36 14L36 13L37 13L37 12L38 12L38 14L40 14L40 13L42 13L42 14L44 14L44 13L43 13L43 11L41 11L41 10L44 10L44 9L41 9L41 8L40 8L40 9L39 9L39 8L38 8L38 10L37 10L37 6ZM38 6L38 7L39 7L39 6ZM44 6L44 7L45 7L45 6ZM48 6L48 8L49 8L49 6ZM56 8L56 9L55 9L55 10L56 10L56 11L57 11L57 10L56 10L56 9L57 9L57 8ZM25 9L25 10L24 10L24 11L25 11L25 12L23 12L23 13L22 13L22 14L23 14L23 15L21 15L21 14L20 14L20 17L17 17L17 18L16 18L16 16L15 16L15 15L14 15L14 16L15 16L15 18L14 18L14 17L12 17L12 16L13 16L13 14L14 14L14 13L13 13L13 14L12 14L12 13L10 13L10 12L9 12L9 13L10 13L10 14L9 14L9 15L8 15L8 16L9 16L9 18L7 18L7 17L4 17L4 18L5 18L5 19L6 19L6 20L7 20L7 19L9 19L9 20L8 20L8 21L6 21L6 22L5 22L5 21L3 21L3 22L2 22L2 23L3 23L3 22L4 22L4 23L5 23L5 24L4 24L4 26L7 26L7 25L5 25L5 24L7 24L7 23L6 23L6 22L8 22L8 24L11 24L11 23L12 23L12 22L11 22L11 20L10 20L10 19L12 19L12 20L13 20L13 22L14 22L14 20L15 20L15 24L14 24L14 25L16 25L16 26L17 26L17 27L18 27L18 26L19 26L19 30L20 30L20 31L21 31L21 34L22 34L22 35L21 35L21 36L24 36L24 35L25 35L25 37L24 37L24 38L23 38L23 39L24 39L24 40L20 40L20 39L22 39L22 38L19 38L19 37L20 37L20 33L18 33L18 32L17 32L17 31L18 31L18 29L17 29L17 31L16 31L16 30L15 30L15 29L16 29L16 28L13 28L13 27L14 27L14 26L13 26L13 24L12 24L12 25L10 25L10 26L11 26L11 27L10 27L10 30L11 30L11 32L10 32L10 33L9 33L9 31L5 31L5 32L3 32L3 33L6 33L6 32L8 32L8 33L9 33L9 36L8 36L8 37L9 37L9 36L10 36L10 37L11 37L11 38L10 38L10 39L12 39L12 37L13 37L13 40L14 40L14 38L15 38L15 36L14 36L14 37L13 37L13 35L14 35L14 33L15 33L15 32L16 32L16 33L18 33L18 35L17 35L17 34L15 34L15 35L17 35L17 38L16 38L16 41L17 41L17 44L16 44L16 45L17 45L17 47L18 47L18 45L19 45L19 46L20 46L20 49L22 49L22 48L21 48L21 46L20 46L20 45L19 45L19 42L18 42L18 40L20 40L20 43L21 43L21 42L22 42L22 41L25 41L25 37L27 37L27 36L26 36L26 35L25 35L25 34L27 34L27 35L32 35L32 36L29 36L29 37L30 37L30 38L32 38L32 39L29 39L29 38L28 38L28 40L26 40L26 43L27 43L27 42L28 42L28 40L29 40L29 41L30 41L30 40L32 40L32 41L31 41L31 43L30 43L30 44L29 44L29 43L28 43L28 44L25 44L25 43L24 43L24 42L23 42L23 43L22 43L22 44L24 44L24 45L23 45L23 46L22 46L22 47L23 47L23 50L24 50L24 51L25 51L25 53L26 53L26 51L25 51L25 50L26 50L26 49L25 49L25 48L26 48L26 47L25 47L25 48L24 48L24 45L25 45L25 46L26 46L26 45L27 45L27 46L28 46L28 47L27 47L27 48L31 48L31 49L32 49L32 47L33 47L33 46L32 46L32 47L29 47L29 46L28 46L28 45L30 45L30 46L31 46L31 45L34 45L34 44L37 44L37 43L39 43L39 41L41 41L41 42L42 42L42 41L43 41L43 43L44 43L44 47L45 47L45 49L44 49L44 50L41 50L41 49L42 49L42 47L43 47L43 46L42 46L42 45L43 45L43 44L41 44L41 46L40 46L40 45L39 45L39 46L38 46L38 45L35 45L35 48L37 48L37 49L36 49L36 50L37 50L37 51L36 51L36 52L38 52L38 55L39 55L39 54L40 54L40 53L43 53L43 54L44 54L44 53L43 53L43 52L41 52L41 51L45 51L45 53L47 53L47 51L48 51L48 49L47 49L47 48L46 48L46 47L45 47L45 46L46 46L46 45L47 45L47 46L48 46L48 48L50 48L50 47L49 47L49 45L48 45L48 44L46 44L46 43L47 43L47 42L46 42L46 43L44 43L44 41L43 41L43 40L45 40L45 41L46 41L46 40L45 40L45 37L44 37L44 36L47 36L47 35L48 35L48 37L46 37L46 38L48 38L48 39L49 39L49 41L48 41L48 43L49 43L49 44L50 44L50 46L52 46L52 45L53 45L53 48L54 48L54 45L53 45L53 43L52 43L52 42L51 42L51 43L50 43L50 42L49 42L49 41L50 41L50 39L53 39L53 40L51 40L51 41L56 41L56 38L55 38L55 37L53 37L53 36L54 36L54 35L55 35L55 36L56 36L56 34L54 34L54 35L52 35L52 34L51 34L51 35L48 35L48 34L47 34L47 35L44 35L44 36L43 36L43 34L42 34L42 36L43 36L43 37L44 37L44 39L43 39L43 40L42 40L42 41L41 41L41 40L39 40L39 41L38 41L38 42L36 42L36 41L34 41L34 42L35 42L35 43L33 43L33 42L32 42L32 41L33 41L33 40L32 40L32 39L33 39L33 38L32 38L32 36L33 36L33 35L32 35L32 34L31 34L31 33L34 33L34 32L35 32L35 35L36 35L36 36L39 36L39 34L40 34L40 36L41 36L41 33L44 33L44 34L45 34L45 33L46 33L46 32L47 32L47 30L46 30L46 29L45 29L45 30L44 30L44 32L42 32L42 31L43 31L43 30L41 30L41 33L40 33L40 29L41 29L41 28L42 28L42 29L44 29L44 28L46 28L46 27L47 27L47 24L45 24L45 25L44 25L44 26L43 26L43 27L44 27L44 28L42 28L42 26L40 26L40 25L39 25L39 26L40 26L40 27L41 27L41 28L39 28L39 29L38 29L38 28L37 28L37 27L36 27L36 26L38 26L38 23L35 23L35 25L34 25L34 23L33 23L33 21L34 21L34 19L35 19L35 22L37 22L37 21L39 21L39 19L40 19L40 18L39 18L39 16L38 16L38 17L37 17L37 19L35 19L35 18L34 18L34 17L33 17L33 19L31 19L31 18L32 18L32 16L33 16L33 15L32 15L32 16L30 16L30 15L29 15L29 14L30 14L30 12L29 12L29 11L30 11L30 10L29 10L29 9L28 9L28 11L27 11L27 10L26 10L26 9ZM38 10L38 11L39 11L39 10ZM46 10L46 11L47 11L47 12L48 12L48 11L47 11L47 10ZM40 11L40 12L41 12L41 11ZM51 11L51 12L52 12L52 13L54 13L54 14L55 14L55 15L54 15L54 16L55 16L55 15L56 15L56 14L55 14L55 13L54 13L54 12L55 12L55 11L53 11L53 12L52 12L52 11ZM27 12L27 13L24 13L24 14L25 14L25 15L24 15L24 16L23 16L23 18L21 18L21 19L20 19L20 18L17 18L17 20L16 20L16 22L17 22L17 23L16 23L16 24L17 24L17 26L18 26L18 25L19 25L19 24L20 24L20 26L21 26L21 24L22 24L22 25L23 25L23 27L25 27L25 26L26 26L26 32L25 32L25 29L24 29L24 28L22 28L22 30L21 30L21 31L22 31L22 30L23 30L23 31L24 31L24 32L25 32L25 33L24 33L24 34L23 34L23 35L24 35L24 34L25 34L25 33L26 33L26 32L27 32L27 34L29 34L29 33L30 33L30 31L31 31L31 32L32 32L32 30L33 30L33 31L34 31L34 30L35 30L35 32L36 32L36 33L37 33L37 34L36 34L36 35L37 35L37 34L39 34L39 33L37 33L37 32L36 32L36 29L37 29L37 28L34 28L34 27L35 27L35 26L34 26L34 27L32 27L32 26L33 26L33 24L32 24L32 21L31 21L31 19L30 19L30 18L31 18L31 17L30 17L30 16L29 16L29 15L28 15L28 14L29 14L29 12ZM10 14L10 15L9 15L9 16L10 16L10 15L11 15L11 16L12 16L12 14ZM26 14L26 15L25 15L25 16L24 16L24 17L25 17L25 18L24 18L24 19L23 19L23 20L24 20L24 19L26 19L26 18L27 18L27 16L26 16L26 15L27 15L27 14ZM52 14L52 15L53 15L53 14ZM6 15L6 16L7 16L7 15ZM25 16L25 17L26 17L26 16ZM28 16L28 17L29 17L29 18L30 18L30 17L29 17L29 16ZM10 17L10 18L12 18L12 19L13 19L13 20L14 20L14 19L13 19L13 18L12 18L12 17ZM46 17L46 18L47 18L47 17ZM6 18L6 19L7 19L7 18ZM15 18L15 19L16 19L16 18ZM18 19L18 20L19 20L19 19ZM29 19L29 21L30 21L30 19ZM9 20L9 21L8 21L8 22L9 22L9 23L10 23L10 20ZM20 20L20 22L19 22L19 21L17 21L17 22L18 22L18 23L17 23L17 24L18 24L18 23L21 23L21 20ZM25 20L25 22L26 22L26 20ZM27 20L27 21L28 21L28 20ZM36 20L36 21L37 21L37 20ZM22 21L22 22L23 22L23 23L24 23L24 21ZM47 21L47 22L48 22L48 21ZM28 22L28 23L25 23L25 25L26 25L26 26L30 26L30 25L31 25L31 26L32 26L32 25L31 25L31 22L30 22L30 25L28 25L28 24L29 24L29 22ZM26 24L26 25L27 25L27 24ZM36 24L36 25L37 25L37 24ZM48 24L48 25L49 25L49 24ZM8 25L8 26L9 26L9 25ZM45 25L45 26L46 26L46 25ZM5 27L5 30L8 30L8 27ZM11 27L11 28L12 28L12 31L13 31L13 32L11 32L11 33L12 33L12 34L13 34L13 32L14 32L14 31L15 31L15 30L14 30L14 31L13 31L13 28L12 28L12 27ZM20 27L20 28L21 28L21 27ZM27 27L27 30L30 30L30 27ZM31 27L31 28L32 28L32 27ZM49 27L49 30L52 30L52 27ZM6 28L6 29L7 29L7 28ZM28 28L28 29L29 29L29 28ZM47 28L47 29L48 29L48 28ZM50 28L50 29L51 29L51 28ZM23 29L23 30L24 30L24 29ZM31 29L31 30L32 30L32 29ZM0 30L0 32L1 32L1 30ZM27 31L27 32L28 32L28 33L29 33L29 31ZM38 31L38 32L39 32L39 31ZM45 31L45 32L46 32L46 31ZM22 32L22 33L23 33L23 32ZM10 34L10 36L11 36L11 34ZM18 35L18 37L19 37L19 35ZM51 35L51 36L50 36L50 37L51 37L51 38L52 38L52 35ZM3 37L3 38L5 38L5 40L7 40L7 39L9 39L9 38L7 38L7 37L6 37L6 38L5 38L5 37ZM34 37L34 38L35 38L35 39L34 39L34 40L38 40L38 38L37 38L37 37ZM39 37L39 39L40 39L40 38L41 38L41 37ZM6 38L6 39L7 39L7 38ZM18 38L18 39L19 39L19 38ZM36 38L36 39L37 39L37 38ZM54 38L54 40L55 40L55 38ZM0 39L0 44L1 44L1 42L2 42L2 41L1 41L1 40L2 40L2 39ZM10 43L10 44L11 44L11 43ZM51 43L51 44L52 44L52 43ZM4 44L4 45L5 45L5 44ZM17 44L17 45L18 45L18 44ZM30 44L30 45L31 45L31 44ZM45 44L45 45L46 45L46 44ZM56 44L56 45L57 45L57 44ZM0 45L0 48L5 48L5 47L7 47L7 46L5 46L5 47L3 47L3 45L2 45L2 47L1 47L1 45ZM36 46L36 47L38 47L38 46ZM39 46L39 49L37 49L37 50L38 50L38 52L39 52L39 53L40 53L40 51L41 51L41 50L40 50L40 49L41 49L41 48L40 48L40 46ZM10 47L10 48L11 48L11 49L12 49L12 48L11 48L11 47ZM55 47L55 48L56 48L56 47ZM6 48L6 49L7 49L7 48ZM9 49L9 50L10 50L10 49ZM14 49L14 50L15 50L15 49ZM24 49L24 50L25 50L25 49ZM27 49L27 52L30 52L30 49ZM34 49L34 51L35 51L35 49ZM49 49L49 52L52 52L52 49ZM28 50L28 51L29 51L29 50ZM31 50L31 52L33 52L33 53L32 53L32 54L31 54L31 56L32 56L32 55L33 55L33 53L34 53L34 52L33 52L33 50ZM39 50L39 51L40 51L40 50ZM50 50L50 51L51 51L51 50ZM21 51L21 52L22 52L22 54L23 54L23 53L24 53L24 52L23 52L23 51ZM18 53L18 54L19 54L19 53ZM28 53L28 54L29 54L29 53ZM36 53L36 54L37 54L37 53ZM50 53L50 55L49 55L49 56L50 56L50 55L51 55L51 56L52 56L52 54L53 54L53 53ZM25 54L25 55L26 55L26 54ZM47 54L47 55L46 55L46 56L48 56L48 54ZM54 54L54 55L55 55L55 54ZM8 55L8 57L9 57L9 55ZM36 55L36 56L37 56L37 55ZM17 56L17 57L19 57L19 56ZM0 0L0 7L7 7L7 0ZM1 1L1 6L6 6L6 1ZM2 2L2 5L5 5L5 2ZM50 0L50 7L57 7L57 0ZM51 1L51 6L56 6L56 1ZM52 2L52 5L55 5L55 2ZM0 50L0 57L7 57L7 50ZM1 51L1 56L6 56L6 51ZM2 52L2 55L5 55L5 52Z" fill="#000000"/></g></g></svg>
