<?xml version="1.0" encoding="UTF-8"?>
<svg xmlns="http://www.w3.org/2000/svg" version="1.1" width="300" height="300" viewBox="0 0 300 300"><rect x="0" y="0" width="300" height="300" fill="#ffffff"/><g transform="scale(4.918)"><g transform="translate(2,2)"><path fill-rule="evenodd" d="M10 0L10 2L9 2L9 1L8 1L8 2L9 2L9 3L8 3L8 4L9 4L9 5L8 5L8 7L9 7L9 6L10 6L10 7L11 7L11 6L10 6L10 4L11 4L11 5L12 5L12 4L13 4L13 5L15 5L15 6L14 6L14 7L15 7L15 6L16 6L16 8L17 8L17 9L19 9L19 11L20 11L20 9L19 9L19 8L18 8L18 7L19 7L19 6L20 6L20 7L21 7L21 8L22 8L22 7L23 7L23 8L24 8L24 7L25 7L25 6L26 6L26 9L27 9L27 10L26 10L26 11L27 11L27 12L25 12L25 9L22 9L22 10L21 10L21 11L22 11L22 10L23 10L23 12L25 12L25 13L23 13L23 14L24 14L24 16L23 16L23 15L22 15L22 14L20 14L20 15L19 15L19 13L18 13L18 12L17 12L17 11L18 11L18 10L17 10L17 11L16 11L16 10L15 10L15 9L11 9L11 8L10 8L10 9L9 9L9 8L6 8L6 9L5 9L5 8L0 8L0 10L1 10L1 11L0 11L0 12L1 12L1 11L2 11L2 14L3 14L3 12L4 12L4 13L9 13L9 16L8 16L8 17L7 17L7 16L6 16L6 15L8 15L8 14L4 14L4 15L3 15L3 16L2 16L2 17L1 17L1 16L0 16L0 17L1 17L1 18L0 18L0 19L1 19L1 22L2 22L2 21L4 21L4 19L3 19L3 18L6 18L6 19L5 19L5 20L6 20L6 21L5 21L5 23L7 23L7 24L5 24L5 25L4 25L4 28L3 28L3 29L1 29L1 28L2 28L2 26L1 26L1 28L0 28L0 30L1 30L1 32L0 32L0 35L1 35L1 32L2 32L2 34L3 34L3 36L2 36L2 37L1 37L1 36L0 36L0 38L1 38L1 40L2 40L2 41L3 41L3 42L4 42L4 41L3 41L3 40L5 40L5 43L7 43L7 44L6 44L6 45L4 45L4 43L2 43L2 44L1 44L1 41L0 41L0 48L5 48L5 47L7 47L7 46L6 46L6 45L9 45L9 47L8 47L8 48L6 48L6 49L8 49L8 51L10 51L10 52L11 52L11 51L12 51L12 52L13 52L13 54L12 54L12 53L9 53L9 52L8 52L8 57L11 57L11 56L9 56L9 55L12 55L12 56L13 56L13 57L14 57L14 51L16 51L16 49L19 49L19 50L18 50L18 51L17 51L17 53L19 53L19 54L20 54L20 55L18 55L18 56L16 56L16 55L15 55L15 57L19 57L19 56L21 56L21 55L22 55L22 54L23 54L23 55L24 55L24 56L25 56L25 57L26 57L26 56L28 56L28 55L25 55L25 54L27 54L27 53L28 53L28 54L29 54L29 55L30 55L30 56L29 56L29 57L31 57L31 56L32 56L32 55L33 55L33 56L34 56L34 55L35 55L35 54L32 54L32 52L33 52L33 53L36 53L36 55L37 55L37 56L35 56L35 57L37 57L37 56L38 56L38 57L40 57L40 56L43 56L43 57L44 57L44 55L40 55L40 52L41 52L41 54L43 54L43 53L44 53L44 54L46 54L46 55L47 55L47 57L48 57L48 55L49 55L49 56L50 56L50 55L51 55L51 57L52 57L52 56L53 56L53 57L56 57L56 56L55 56L55 54L54 54L54 55L51 55L51 54L53 54L53 49L54 49L54 48L55 48L55 50L57 50L57 49L56 49L56 48L55 48L55 47L56 47L56 46L57 46L57 45L54 45L54 44L57 44L57 43L56 43L56 42L55 42L55 41L54 41L54 40L55 40L55 39L57 39L57 37L56 37L56 38L55 38L55 37L54 37L54 36L57 36L57 35L56 35L56 34L57 34L57 33L56 33L56 30L57 30L57 29L56 29L56 25L57 25L57 23L56 23L56 22L57 22L57 21L56 21L56 19L55 19L55 18L57 18L57 17L54 17L54 16L55 16L55 15L56 15L56 16L57 16L57 15L56 15L56 14L57 14L57 13L56 13L56 14L55 14L55 13L53 13L53 15L50 15L50 11L52 11L52 12L53 12L53 11L54 11L54 12L55 12L55 11L56 11L56 10L57 10L57 9L56 9L56 8L55 8L55 9L56 9L56 10L55 10L55 11L54 11L54 10L53 10L53 9L54 9L54 8L53 8L53 9L52 9L52 8L51 8L51 10L50 10L50 8L49 8L49 6L48 6L48 8L47 8L47 9L48 9L48 10L47 10L47 11L48 11L48 12L49 12L49 13L47 13L47 14L46 14L46 12L45 12L45 11L46 11L46 10L45 10L45 9L46 9L46 7L47 7L47 5L48 5L48 0L46 0L46 1L47 1L47 2L43 2L43 3L47 3L47 5L46 5L46 7L45 7L45 6L44 6L44 7L43 7L43 6L42 6L42 7L41 7L41 5L40 5L40 3L41 3L41 4L42 4L42 5L43 5L43 4L42 4L42 3L41 3L41 2L42 2L42 1L43 1L43 0L42 0L42 1L41 1L41 0L39 0L39 1L37 1L37 0L35 0L35 1L34 1L34 0L32 0L32 1L31 1L31 0L30 0L30 1L29 1L29 0L28 0L28 1L29 1L29 2L28 2L28 3L27 3L27 1L26 1L26 0L24 0L24 1L23 1L23 0L21 0L21 1L23 1L23 2L20 2L20 3L18 3L18 4L20 4L20 3L21 3L21 4L22 4L22 5L21 5L21 6L20 6L20 5L19 5L19 6L18 6L18 5L17 5L17 4L16 4L16 3L15 3L15 4L14 4L14 2L13 2L13 0L12 0L12 1L11 1L11 0ZM14 0L14 1L15 1L15 0ZM44 0L44 1L45 1L45 0ZM18 1L18 2L19 2L19 1ZM24 1L24 2L23 2L23 3L22 3L22 4L24 4L24 5L23 5L23 7L24 7L24 6L25 6L25 4L26 4L26 3L25 3L25 4L24 4L24 2L26 2L26 1ZM30 1L30 2L29 2L29 3L28 3L28 4L29 4L29 3L30 3L30 2L31 2L31 1ZM32 1L32 2L34 2L34 4L33 4L33 3L32 3L32 4L31 4L31 8L33 8L33 7L34 7L34 8L35 8L35 9L33 9L33 11L34 11L34 12L35 12L35 13L33 13L33 12L32 12L32 11L31 11L31 12L32 12L32 15L33 15L33 14L36 14L36 12L37 12L37 9L38 9L38 11L39 11L39 12L38 12L38 13L37 13L37 14L39 14L39 15L38 15L38 16L37 16L37 15L36 15L36 16L35 16L35 15L34 15L34 16L30 16L30 15L25 15L25 16L24 16L24 17L25 17L25 16L28 16L28 17L27 17L27 18L28 18L28 19L26 19L26 18L24 18L24 20L27 20L27 21L25 21L25 22L26 22L26 23L25 23L25 24L24 24L24 23L23 23L23 22L24 22L24 21L23 21L23 18L22 18L22 20L21 20L21 19L19 19L19 17L20 17L20 18L21 18L21 17L20 17L20 16L21 16L21 15L20 15L20 16L19 16L19 15L18 15L18 13L15 13L15 10L13 10L13 11L11 11L11 9L10 9L10 10L8 10L8 11L9 11L9 12L12 12L12 13L10 13L10 14L11 14L11 16L9 16L9 17L11 17L11 18L7 18L7 17L6 17L6 16L5 16L5 17L6 17L6 18L7 18L7 19L6 19L6 20L7 20L7 19L8 19L8 20L9 20L9 22L10 22L10 19L11 19L11 18L12 18L12 19L13 19L13 20L12 20L12 21L11 21L11 23L12 23L12 21L13 21L13 24L11 24L11 25L10 25L10 23L9 23L9 24L8 24L8 25L6 25L6 26L9 26L9 28L12 28L12 27L13 27L13 29L12 29L12 30L9 30L9 32L7 32L7 31L4 31L4 32L3 32L3 31L2 31L2 32L3 32L3 34L8 34L8 35L6 35L6 36L5 36L5 38L7 38L7 37L8 37L8 38L10 38L10 36L11 36L11 37L12 37L12 38L13 38L13 39L15 39L15 41L16 41L16 43L14 43L14 41L13 41L13 40L12 40L12 39L10 39L10 40L9 40L9 39L8 39L8 40L9 40L9 42L7 42L7 41L6 41L6 42L7 42L7 43L8 43L8 44L9 44L9 45L10 45L10 44L12 44L12 43L13 43L13 45L11 45L11 46L10 46L10 47L13 47L13 48L14 48L14 47L17 47L17 48L19 48L19 49L20 49L20 50L19 50L19 51L18 51L18 52L19 52L19 53L21 53L21 54L22 54L22 53L23 53L23 54L24 54L24 53L23 53L23 52L24 52L24 51L25 51L25 53L26 53L26 51L25 51L25 50L26 50L26 47L25 47L25 46L28 46L28 47L27 47L27 48L30 48L30 47L29 47L29 45L31 45L31 46L35 46L35 47L34 47L34 48L31 48L31 49L34 49L34 50L32 50L32 51L31 51L31 52L32 52L32 51L34 51L34 52L36 52L36 51L34 51L34 50L35 50L35 49L36 49L36 48L37 48L37 49L38 49L38 50L37 50L37 55L38 55L38 54L39 54L39 53L38 53L38 50L39 50L39 52L40 52L40 51L41 51L41 52L42 52L42 53L43 53L43 52L42 52L42 51L44 51L44 53L46 53L46 54L48 54L48 52L45 52L45 51L46 51L46 50L47 50L47 51L48 51L48 48L50 48L50 47L51 47L51 45L52 45L52 47L53 47L53 48L54 48L54 47L55 47L55 46L54 46L54 45L52 45L52 44L53 44L53 43L54 43L54 41L53 41L53 40L54 40L54 39L55 39L55 38L54 38L54 39L53 39L53 37L52 37L52 34L53 34L53 36L54 36L54 35L55 35L55 34L56 34L56 33L55 33L55 32L54 32L54 29L55 29L55 28L54 28L54 29L53 29L53 31L51 31L51 32L54 32L54 33L50 33L50 31L48 31L48 28L47 28L47 27L46 27L46 26L47 26L47 25L49 25L49 24L48 24L48 23L47 23L47 21L48 21L48 19L49 19L49 18L51 18L51 17L49 17L49 16L50 16L50 15L45 15L45 12L44 12L44 11L45 11L45 10L41 10L41 12L40 12L40 11L39 11L39 10L40 10L40 9L42 9L42 8L40 8L40 6L39 6L39 7L38 7L38 6L37 6L37 5L36 5L36 3L37 3L37 4L38 4L38 5L39 5L39 2L41 2L41 1L39 1L39 2L38 2L38 3L37 3L37 2L34 2L34 1ZM15 4L15 5L16 5L16 4ZM44 4L44 5L45 5L45 4ZM27 5L27 8L30 8L30 5ZM33 5L33 6L32 6L32 7L33 7L33 6L34 6L34 7L35 7L35 6L36 6L36 7L37 7L37 6L36 6L36 5L35 5L35 6L34 6L34 5ZM12 6L12 8L13 8L13 6ZM17 6L17 7L18 7L18 6ZM21 6L21 7L22 7L22 6ZM28 6L28 7L29 7L29 6ZM36 8L36 9L37 9L37 8ZM39 8L39 9L40 9L40 8ZM44 8L44 9L45 9L45 8ZM48 8L48 9L49 9L49 8ZM4 9L4 12L5 12L5 9ZM6 9L6 10L7 10L7 9ZM28 9L28 10L27 10L27 11L29 11L29 12L28 12L28 13L26 13L26 14L28 14L28 13L29 13L29 14L30 14L30 13L29 13L29 12L30 12L30 11L29 11L29 9ZM31 9L31 10L32 10L32 9ZM2 10L2 11L3 11L3 10ZM34 10L34 11L35 11L35 12L36 12L36 11L35 11L35 10ZM48 10L48 11L50 11L50 10ZM52 10L52 11L53 11L53 10ZM6 11L6 12L7 12L7 11ZM13 11L13 12L14 12L14 11ZM42 11L42 14L40 14L40 15L39 15L39 16L41 16L41 17L42 17L42 18L41 18L41 19L40 19L40 20L38 20L38 21L39 21L39 22L38 22L38 23L39 23L39 24L38 24L38 25L37 25L37 22L36 22L36 23L35 23L35 22L34 22L34 24L35 24L35 25L36 25L36 28L35 28L35 27L34 27L34 25L33 25L33 27L31 27L31 26L32 26L32 25L31 25L31 24L32 24L32 23L33 23L33 21L34 21L34 20L33 20L33 19L35 19L35 18L37 18L37 19L39 19L39 18L40 18L40 17L39 17L39 18L37 18L37 16L36 16L36 17L35 17L35 16L34 16L34 17L35 17L35 18L33 18L33 19L32 19L32 18L31 18L31 17L29 17L29 18L31 18L31 19L30 19L30 20L31 20L31 21L28 21L28 22L31 22L31 23L30 23L30 24L29 24L29 23L28 23L28 24L27 24L27 25L26 25L26 24L25 24L25 25L24 25L24 24L23 24L23 25L24 25L24 26L22 26L22 27L20 27L20 28L19 28L19 26L20 26L20 25L19 25L19 24L22 24L22 23L21 23L21 22L23 22L23 21L19 21L19 19L18 19L18 17L19 17L19 16L18 16L18 17L17 17L17 14L15 14L15 15L16 15L16 17L13 17L13 19L14 19L14 20L13 20L13 21L15 21L15 22L16 22L16 21L15 21L15 19L16 19L16 17L17 17L17 19L18 19L18 21L19 21L19 22L17 22L17 24L16 24L16 23L14 23L14 25L15 25L15 24L16 24L16 25L17 25L17 26L18 26L18 27L17 27L17 28L15 28L15 26L13 26L13 25L11 25L11 27L12 27L12 26L13 26L13 27L14 27L14 28L15 28L15 29L17 29L17 30L16 30L16 31L17 31L17 30L19 30L19 31L21 31L21 32L18 32L18 33L19 33L19 34L18 34L18 35L20 35L20 33L21 33L21 34L23 34L23 35L24 35L24 37L22 37L22 36L21 36L21 37L22 37L22 38L24 38L24 37L28 37L28 38L25 38L25 40L24 40L24 39L23 39L23 40L24 40L24 41L23 41L23 43L24 43L24 44L23 44L23 45L24 45L24 46L25 46L25 45L26 45L26 44L25 44L25 43L24 43L24 42L26 42L26 43L27 43L27 45L29 45L29 43L31 43L31 45L32 45L32 44L34 44L34 42L35 42L35 40L36 40L36 41L37 41L37 42L38 42L38 43L37 43L37 44L35 44L35 46L36 46L36 45L38 45L38 43L39 43L39 44L45 44L45 47L42 47L42 46L44 46L44 45L42 45L42 46L37 46L37 48L38 48L38 47L40 47L40 48L39 48L39 49L40 49L40 50L41 50L41 51L42 51L42 50L43 50L43 48L46 48L46 49L45 49L45 50L44 50L44 51L45 51L45 50L46 50L46 49L47 49L47 48L46 48L46 47L47 47L47 46L46 46L46 45L47 45L47 44L48 44L48 45L49 45L49 47L50 47L50 45L49 45L49 44L52 44L52 43L53 43L53 42L51 42L51 41L52 41L52 38L51 38L51 37L50 37L50 36L49 36L49 35L50 35L50 33L49 33L49 35L48 35L48 33L47 33L47 34L45 34L45 35L47 35L47 36L48 36L48 37L49 37L49 39L50 39L50 38L51 38L51 41L48 41L48 42L46 42L46 43L43 43L43 42L44 42L44 40L43 40L43 37L44 37L44 38L45 38L45 37L44 37L44 34L43 34L43 32L46 32L46 31L47 31L47 32L48 32L48 31L47 31L47 30L46 30L46 29L47 29L47 28L46 28L46 27L45 27L45 25L46 25L46 24L47 24L47 23L46 23L46 22L45 22L45 21L47 21L47 19L48 19L48 18L49 18L49 17L48 17L48 16L47 16L47 18L45 18L45 17L44 17L44 16L45 16L45 15L44 15L44 16L43 16L43 15L42 15L42 14L44 14L44 13L43 13L43 11ZM20 12L20 13L22 13L22 12ZM39 12L39 13L40 13L40 12ZM13 13L13 14L12 14L12 16L11 16L11 17L12 17L12 16L14 16L14 13ZM51 13L51 14L52 14L52 13ZM54 14L54 15L53 15L53 16L52 16L52 20L51 20L51 19L50 19L50 22L49 22L49 23L50 23L50 26L51 26L51 25L53 25L53 27L55 27L55 26L54 26L54 25L53 25L53 24L51 24L51 23L52 23L52 22L53 22L53 23L55 23L55 24L56 24L56 23L55 23L55 22L54 22L54 21L55 21L55 20L54 20L54 19L53 19L53 16L54 16L54 15L55 15L55 14ZM22 16L22 17L23 17L23 16ZM2 17L2 18L1 18L1 19L2 19L2 18L3 18L3 17ZM42 18L42 19L41 19L41 20L40 20L40 21L41 21L41 20L42 20L42 21L43 21L43 23L41 23L41 22L40 22L40 23L41 23L41 24L40 24L40 26L39 26L39 25L38 25L38 26L37 26L37 27L38 27L38 29L33 29L33 28L34 28L34 27L33 27L33 28L32 28L32 29L31 29L31 31L25 31L25 32L24 32L24 29L25 29L25 30L26 30L26 27L25 27L25 26L26 26L26 25L25 25L25 26L24 26L24 27L23 27L23 28L24 28L24 29L22 29L22 28L21 28L21 29L19 29L19 30L21 30L21 31L22 31L22 33L25 33L25 34L26 34L26 35L25 35L25 36L26 36L26 35L27 35L27 36L28 36L28 37L29 37L29 36L30 36L30 38L31 38L31 39L29 39L29 41L28 41L28 39L27 39L27 41L26 41L26 42L29 42L29 41L30 41L30 40L34 40L34 39L35 39L35 37L36 37L36 36L38 36L38 34L39 34L39 36L40 36L40 37L38 37L38 38L37 38L37 39L36 39L36 40L37 40L37 41L38 41L38 42L39 42L39 40L40 40L40 41L41 41L41 40L42 40L42 41L43 41L43 40L42 40L42 38L41 38L41 36L40 36L40 35L41 35L41 34L42 34L42 35L43 35L43 34L42 34L42 33L41 33L41 32L40 32L40 31L41 31L41 30L42 30L42 31L46 31L46 30L45 30L45 28L44 28L44 29L43 29L43 28L42 28L42 27L43 27L43 26L44 26L44 25L45 25L45 23L44 23L44 21L45 21L45 20L43 20L43 18ZM44 18L44 19L45 19L45 18ZM32 20L32 21L33 21L33 20ZM36 20L36 21L37 21L37 20ZM6 21L6 22L7 22L7 23L8 23L8 22L7 22L7 21ZM19 22L19 23L20 23L20 22ZM50 22L50 23L51 23L51 22ZM2 23L2 24L1 24L1 25L2 25L2 24L4 24L4 23ZM43 23L43 25L42 25L42 24L41 24L41 27L39 27L39 28L41 28L41 27L42 27L42 26L43 26L43 25L44 25L44 23ZM17 24L17 25L18 25L18 26L19 26L19 25L18 25L18 24ZM28 24L28 26L29 26L29 24ZM5 27L5 30L8 30L8 27ZM27 27L27 30L30 30L30 27ZM49 27L49 30L52 30L52 27ZM6 28L6 29L7 29L7 28ZM17 28L17 29L18 29L18 28ZM28 28L28 29L29 29L29 28ZM50 28L50 29L51 29L51 28ZM3 29L3 30L4 30L4 29ZM13 29L13 30L14 30L14 29ZM21 29L21 30L22 30L22 31L23 31L23 30L22 30L22 29ZM39 29L39 30L32 30L32 31L31 31L31 32L33 32L33 33L35 33L35 32L36 32L36 35L37 35L37 34L38 34L38 32L36 32L36 31L40 31L40 30L41 30L41 29ZM42 29L42 30L43 30L43 29ZM10 31L10 32L9 32L9 33L8 33L8 34L9 34L9 33L12 33L12 36L14 36L14 33L12 33L12 32L14 32L14 31ZM33 31L33 32L35 32L35 31ZM6 32L6 33L7 33L7 32ZM15 32L15 33L17 33L17 32ZM27 32L27 33L26 33L26 34L27 34L27 33L30 33L30 32ZM39 32L39 33L40 33L40 32ZM31 33L31 34L32 34L32 33ZM54 33L54 34L55 34L55 33ZM10 34L10 35L11 35L11 34ZM16 34L16 35L15 35L15 37L14 37L14 38L15 38L15 39L16 39L16 41L17 41L17 43L18 43L18 42L19 42L19 43L20 43L20 45L18 45L18 44L14 44L14 45L13 45L13 46L15 46L15 45L18 45L18 47L19 47L19 48L20 48L20 49L21 49L21 50L23 50L23 51L24 51L24 50L25 50L25 49L21 49L21 48L25 48L25 47L22 47L22 46L20 46L20 45L22 45L22 44L21 44L21 43L22 43L22 42L21 42L21 43L20 43L20 41L21 41L21 40L22 40L22 39L21 39L21 40L20 40L20 41L19 41L19 40L17 40L17 38L18 38L18 39L20 39L20 38L18 38L18 37L20 37L20 36L17 36L17 37L16 37L16 35L17 35L17 34ZM29 34L29 35L30 35L30 36L31 36L31 38L32 38L32 35L30 35L30 34ZM33 34L33 36L34 36L34 37L35 37L35 36L34 36L34 35L35 35L35 34ZM6 36L6 37L7 37L7 36ZM42 36L42 37L43 37L43 36ZM15 37L15 38L16 38L16 37ZM3 38L3 39L4 39L4 38ZM39 38L39 39L38 39L38 40L39 40L39 39L40 39L40 40L41 40L41 39L40 39L40 38ZM46 38L46 39L47 39L47 38ZM5 39L5 40L7 40L7 39ZM31 41L31 42L32 42L32 41ZM33 41L33 42L34 42L34 41ZM9 42L9 44L10 44L10 42ZM11 42L11 43L12 43L12 42ZM40 42L40 43L41 43L41 42ZM50 42L50 43L51 43L51 42ZM48 43L48 44L49 44L49 43ZM2 44L2 46L1 46L1 47L2 47L2 46L3 46L3 47L5 47L5 46L3 46L3 44ZM24 44L24 45L25 45L25 44ZM19 46L19 47L20 47L20 48L21 48L21 47L20 47L20 46ZM35 47L35 48L34 48L34 49L35 49L35 48L36 48L36 47ZM41 47L41 48L40 48L40 49L41 49L41 50L42 50L42 47ZM9 48L9 49L12 49L12 48ZM15 48L15 49L16 49L16 48ZM27 49L27 52L30 52L30 49ZM49 49L49 52L52 52L52 49ZM12 50L12 51L13 51L13 50ZM28 50L28 51L29 51L29 50ZM50 50L50 51L51 51L51 50ZM20 51L20 52L21 52L21 53L22 53L22 52L21 52L21 51ZM54 51L54 52L55 52L55 53L56 53L56 51ZM15 53L15 54L16 54L16 53ZM29 53L29 54L30 54L30 53ZM49 53L49 54L51 54L51 53ZM39 55L39 56L40 56L40 55ZM0 0L0 7L7 7L7 0ZM1 1L1 6L6 6L6 1ZM2 2L2 5L5 5L5 2ZM50 0L50 7L57 7L57 0ZM51 1L51 6L56 6L56 1ZM52 2L52 5L55 5L55 2ZM0 50L0 57L7 57L7 50ZM1 51L1 56L6 56L6 51ZM2 52L2 55L5 55L5 52Z" fill="#000000"/></g></g></svg>
